<svg xmlns="http://www.w3.org/2000/svg" width="26.36" height="23.965" viewBox="0 0 26.36 23.965">
  <g id="white_imagery_text" data-name="white imagery + text" transform="translate(0.507 0.507)" opacity="0.496">
    <g id="Group_34739" data-name="Group 34739" transform="translate(0 0)">
      <g id="Group_34737" data-name="Group 34737" transform="translate(3.698 13.864)">
        <path id="Path_78285" data-name="Path 78285" d="M2708.513,175.854h6.775s4,0,4-4.587c0-4.427-3.734-4.427-3.734-4.427h-6.988Z" transform="translate(-2697.686 -166.839)" fill="none" stroke="#f27243" stroke-width="1"/>
        <path id="Path_78286" data-name="Path 78286" d="M2693.96,175.99h13.655s4,0,4-4.587c0-4.427-3.734-4.427-3.734-4.427H2693.96a4.064,4.064,0,0,0-4,4.427C2689.959,175.99,2693.96,175.99,2693.96,175.99Z" transform="translate(-2689.96 -166.896)" fill="none" stroke="#f27243" stroke-miterlimit="10" stroke-width="1"/>
        <line id="Line_796" data-name="Line 796" x2="4.481" transform="translate(12.374 7.584)" fill="none" stroke="#f37243" stroke-linecap="round" stroke-miterlimit="10" stroke-width="1"/>
        <line id="Line_797" data-name="Line 797" x2="0.321" transform="translate(18.188 7.584)" fill="none" stroke="#f37243" stroke-linecap="round" stroke-miterlimit="10" stroke-width="1"/>
      </g>
      <g id="Group_34738" data-name="Group 34738">
        <path id="Path_78287" data-name="Path 78287" d="M2700.041,155.5l4.674-4.9s2.761-2.9-.56-6.06c-3.2-3.055-5.78-.352-5.78-.352l-4.822,5.058Z" transform="translate(-2687.759 -143.081)" fill="none" stroke="#f27243" stroke-width="1"/>
        <path id="Path_78288" data-name="Path 78288" d="M2689.923,153.173l-4.674,4.9s-2.76,2.9.56,6.06c3.205,3.054,5.781.352,5.781.352l4.821-5.058Z" transform="translate(-2683.853 -147.284)" fill="none"/>
        <path id="Path_78289" data-name="Path 78289" d="M2691.254,160.508l9.421-9.885s2.76-2.895-.56-6.06c-3.206-3.055-5.781-.351-5.781-.351l-9.6,10.077a4.064,4.064,0,0,0,.445,5.95C2688.494,163.4,2691.254,160.508,2691.254,160.508Z" transform="translate(-2683.624 -143.092)" fill="none" stroke="#f27243" stroke-miterlimit="10" stroke-width="1"/>
        <line id="Line_798" data-name="Line 798" y1="3.243" x2="3.091" transform="translate(12.567 7.131)" fill="#ffbd0c" stroke="#f27243" stroke-linecap="round" stroke-miterlimit="10" stroke-width="1"/>
        <line id="Line_799" data-name="Line 799" y1="0.164" x2="0.157" transform="translate(16.696 5.877)" fill="none" stroke="#f27243" stroke-linecap="round" stroke-miterlimit="10" stroke-width="1"/>
      </g>
    </g>
  </g>
</svg>
