<svg xmlns="http://www.w3.org/2000/svg" width="13.767" height="33.085" viewBox="0 0 13.767 33.085">
  <g id="white_imagery_text" data-name="white imagery + text" transform="translate(0.575 0.736)" opacity="0.496">
    <g id="Group_34736" data-name="Group 34736" transform="translate(0 0)">
      <path id="Path_78277" data-name="Path 78277" d="M2069.865,174.292l.71-.051-.07,11.3c-.435.342-.955-.062-1.232-.282Z" transform="translate(-2064.097 -153.82)" fill="none" stroke="#febd0c" stroke-width="1"/>
      <path id="Path_78278" data-name="Path 78278" d="M2060.4,165.368c.3,1.921,2.525,7.19,4.771,5.412C2067.213,168.853,2062.288,165.173,2060.4,165.368Z" transform="translate(-2060.405 -150.123)" fill="none" stroke="#febd0c" stroke-width="1"/>
      <path id="Path_78279" data-name="Path 78279" d="M2061.625,156.407c-.128,2.05,2.6,7.051,4.785,5.673C2068.426,160.175,2063.726,156.005,2061.625,156.407Z" transform="translate(-2060.911 -146.384)" fill="none" stroke="#febd0c" stroke-width="1"/>
      <path id="Path_78280" data-name="Path 78280" d="M2064.012,147.208c-.006,1.452.948,7.054,3.628,5.734C2069.33,150.793,2067.813,150.574,2064.012,147.208Z" transform="translate(-2061.907 -142.565)" fill="none" stroke="#febd0c" stroke-width="1"/>
      <path id="Path_78281" data-name="Path 78281" d="M2071.177,139.253c-1.088.89-3.086,5.19-.45,5.937C2072.926,145.55,2072.332,140.986,2071.177,139.253Z" transform="translate(-2064.16 -139.253)" fill="none" stroke="#febd0c" stroke-width="1"/>
      <path id="Path_78282" data-name="Path 78282" d="M2076.312,147.517c-1.682.626-5.133,3.68-3.935,5.166C2074.808,154.726,2076.334,149.218,2076.312,147.517Z" transform="translate(-2065.286 -142.694)" fill="none" stroke="#febd0c" stroke-width="1"/>
      <path id="Path_78283" data-name="Path 78283" d="M2077.309,156.854c-1.9.832-6.8,2.524-5.005,5.141C2075.33,164.375,2076.429,158.583,2077.309,156.854Z" transform="translate(-2065.198 -146.581)" fill="none" stroke="#febd0c" stroke-width="1"/>
      <path id="Path_78284" data-name="Path 78284" d="M2077.739,166.034c-3,1.193-7.131,2.951-4.895,5.316C2075.078,173.785,2077.41,167.584,2077.739,166.034Z" transform="translate(-2065.318 -150.403)" fill="none" stroke="#febd0c" stroke-width="1"/>
    </g>
  </g>
</svg>
