<svg xmlns="http://www.w3.org/2000/svg" width="25.07" height="24.033" viewBox="0 0 25.07 24.033">
  <g id="white_imagery_text" data-name="white imagery + text" transform="translate(0.387 0.375)" opacity="0.496">
    <g id="Group_34740" data-name="Group 34740" transform="translate(0 0)">
      <path id="Path_78290" data-name="Path 78290" d="M1871.329,143.741c2.565,0,11.992,3.674,12.2,11.646,2.564,1.178,4.089,5.407-1.734,6.585-1.455,2.773-11.561,6.786-16.527,4.145C1859.424,162.837,1859.614,145.059,1871.329,143.741Z" transform="translate(-1861.502 -143.741)" fill="#fff" stroke="#ec6a7c" stroke-miterlimit="10" stroke-width="0.75"/>
      <path id="Path_78291" data-name="Path 78291" d="M1872.037,154.309c-.853-1.635-1.492-5.544.427-5.97C1873.885,148.267,1873.53,151.608,1872.037,154.309Z" transform="translate(-1865.806 -145.708)" fill="none" stroke="#ec6a7c" stroke-width="0.5"/>
      <path id="Path_78292" data-name="Path 78292" d="M1874.974,156.59c.025-1,.735-5.544,2.725-4.549C1878.621,152.529,1877.934,154.315,1874.974,156.59Z" transform="translate(-1867.485 -147.376)" fill="none" stroke="#ec6a7c" stroke-width="0.5"/>
      <path id="Path_78293" data-name="Path 78293" d="M1875.635,160.807c1.233-.924,3.107-3.71,3.516-1.331C1879.009,160.755,1879.448,162.584,1875.635,160.807Z" transform="translate(-1867.783 -150.313)" fill="none" stroke="#ec6a7c" stroke-width="0.5"/>
      <path id="Path_78294" data-name="Path 78294" d="M1874.809,165.181c1.848.482,3.446.752,2.23,3.944C1876.221,170.72,1875.29,169.2,1874.809,165.181Z" transform="translate(-1867.408 -153.292)" fill="none" stroke="#ec6a7c" stroke-width="0.5"/>
      <path id="Path_78295" data-name="Path 78295" d="M1872.042,168.532c-.309,1.48-2.354,6.208.452,5.627C1873.865,173.8,1873.513,170.879,1872.042,168.532Z" transform="translate(-1865.729 -154.811)" fill="none" stroke="#ec6a7c" stroke-width="0.5"/>
      <path id="Path_78296" data-name="Path 78296" d="M1868.6,169.014c-1.123.5-3.606,2.561-2.474,4.762C1866.982,174.842,1868.305,173.633,1868.6,169.014Z" transform="translate(-1863.358 -155.012)" fill="none" stroke="#ec6a7c" stroke-width="0.5"/>
      <path id="Path_78297" data-name="Path 78297" d="M1868.371,164.336c-1.517-.853-3.792-1.834-3.792,1.066C1864.579,167.189,1865.879,168.154,1868.371,164.336Z" transform="translate(-1862.819 -152.507)" fill="none" stroke="#ec6a7c" stroke-width="0.5"/>
      <path id="Path_78298" data-name="Path 78298" d="M1869.707,159.515c-.185-1.777-1-4.264-2.411-3.269C1866.508,156.858,1865.209,158.591,1869.707,159.515Z" transform="translate(-1863.639 -149.199)" fill="none" stroke="#ec6a7c" stroke-width="0.5"/>
    </g>
  </g>
</svg>
