<svg xmlns="http://www.w3.org/2000/svg" width="22.912" height="22.992" viewBox="0 0 22.912 22.992">
  <g id="white_imagery_text" data-name="white imagery + text" transform="translate(2150.875 -256.811)" opacity="0.496">
    <g id="Group_34734" data-name="Group 34734" transform="translate(-2150.5 257.193)">
      <path id="Path_78262" data-name="Path 78262" d="M2912.592,157.942l-1.54-.472-1.41-3.586-.706-3.94h1.774A11.234,11.234,0,0,1,2912.592,157.942Z" transform="translate(-2890.552 -145.214)" fill="none" stroke="#3aaba1" stroke-miterlimit="10" stroke-width="0.75"/>
      <ellipse id="Ellipse_11" data-name="Ellipse 11" cx="11.081" cy="11.081" rx="11.081" ry="11.081" transform="translate(0 0.004)" fill="none" stroke="#3aaba1" stroke-miterlimit="10" stroke-width="0.75"/>
      <path id="Path_78263" data-name="Path 78263" d="M2879.8,142.816l.556,1.356-2.7,3.292-3,2.645-.648-.628C2874.244,147.518,2877.182,143.787,2879.8,142.816Z" transform="translate(-2873.495 -141.733)" fill="none" stroke="#3aaba1" stroke-miterlimit="10" stroke-width="0.75"/>
      <path id="Path_78264" data-name="Path 78264" d="M2893.5,141.234v1.259l-3.392,1.176-4.218-.529-.556-1.356C2886.358,140.612,2891.439,140.332,2893.5,141.234Z" transform="translate(-2879.025 -140.7)" fill="none" stroke="#3aaba1" stroke-miterlimit="10" stroke-width="0.75"/>
      <path id="Path_78265" data-name="Path 78265" d="M2906.977,145.94H2905.2L2901.291,143v-1.258C2904.134,142.517,2905.342,144.233,2906.977,145.94Z" transform="translate(-2886.819 -141.21)" fill="none" stroke="#3aaba1" stroke-miterlimit="10" stroke-width="0.75"/>
      <path id="Path_78266" data-name="Path 78266" d="M2907.307,172.479l.481-4.239,2.469-3.586,1.539.472C2911.844,167.123,2909.491,171.254,2907.307,172.479Z" transform="translate(-2889.756 -152.398)" fill="none" stroke="#3aaba1" stroke-miterlimit="10" stroke-width="0.75"/>
      <path id="Path_78267" data-name="Path 78267" d="M2895.482,175.936l-3.434-1.886.647-3.913,4.35-2.266,3.292,1.94-.481,4.239A9.831,9.831,0,0,1,2895.482,175.936Z" transform="translate(-2882.305 -153.969)" fill="none" stroke="#3aaba1" stroke-width="1"/>
      <path id="Path_78268" data-name="Path 78268" d="M2882.018,179.267l.312-.712,4.821.712,3.434,1.886C2889.208,181.729,2884.417,181.352,2882.018,179.267Z" transform="translate(-2877.407 -159.186)" fill="none" stroke="#3aaba1" stroke-miterlimit="10" stroke-width="0.75"/>
      <path id="Path_78269" data-name="Path 78269" d="M2873.419,166.094l.538-.518,2.646,2.644,1.528,4-.311.712C2876.3,172.007,2873.452,168.22,2873.419,166.094Z" transform="translate(-2873.208 -152.848)" fill="none" stroke="#3aaba1" stroke-miterlimit="10" stroke-width="0.75"/>
      <path id="Path_78270" data-name="Path 78270" d="M2874.882,157.071l-.412,4.352Z" transform="translate(-2873.721 -148.695)" fill="none" stroke="#3aaba1" stroke-miterlimit="10" stroke-width="0.75"/>
      <path id="Path_78271" data-name="Path 78271" d="M2877.879,151.9l2.7,3-.556,4.7-2.912,1.94-2.646-2.644.411-4.352Z" transform="translate(-2873.721 -146.17)" fill="none" stroke="#3aaba1" stroke-width="1"/>
      <path id="Path_78272" data-name="Path 78272" d="M2888.056,149.523l-4.218,2.234-2.7-3,2.7-3.292,4.218.529Z" transform="translate(-2876.975 -143.028)" fill="none" stroke="#3aaba1" stroke-miterlimit="10" stroke-width="0.75"/>
      <path id="Path_78273" data-name="Path 78273" d="M2898.851,151.846l-4.188-2.939v-3.527l3.392-1.176,3.912,2.937.706,3.941Z" transform="translate(-2883.582 -142.411)" fill="none" stroke="#3aaba1" stroke-width="1"/>
      <path id="Path_78274" data-name="Path 78274" d="M2901.813,162.877l.529-4.467,3.821-.764,1.411,3.586-2.469,3.586Z" transform="translate(-2887.074 -148.975)" fill="none" stroke="#3aaba1" stroke-miterlimit="10" stroke-width="0.75"/>
      <path id="Path_78275" data-name="Path 78275" d="M2882.553,166.951l4.083,2.737-.647,3.913-4.82-.712-1.528-4Z" transform="translate(-2876.247 -153.519)" fill="none" stroke="#3aaba1" stroke-miterlimit="10" stroke-width="0.75"/>
    </g>
  </g>
</svg>
