<svg xmlns="http://www.w3.org/2000/svg" xmlns:xlink="http://www.w3.org/1999/xlink" viewBox="0 0 1190.74 649.14"><defs><style>.cls-1,.cls-11,.cls-13,.cls-18,.cls-30,.cls-32,.cls-47,.cls-48,.cls-49,.cls-54,.cls-56,.cls-57,.cls-75,.cls-93,.cls-98{fill:none;}.cls-2{clip-path:url(#clip-path);}.cls-3{fill:#442a14;}.cls-4{fill:#5a5153;}.cls-5{fill:#785247;}.cls-6{fill:#955e40;}.cls-7{fill:#d4c3a9;}.cls-8{fill:#806239;}.cls-15,.cls-23,.cls-25,.cls-27,.cls-31,.cls-37,.cls-40,.cls-51,.cls-59,.cls-63,.cls-64,.cls-68,.cls-71,.cls-74,.cls-79,.cls-84,.cls-9{fill:#fff;}.cls-10{fill:#3d362a;}.cls-11,.cls-13{stroke:#436da3;stroke-linecap:round;}.cls-11,.cls-13,.cls-18,.cls-22,.cls-23,.cls-24,.cls-25,.cls-26,.cls-30,.cls-32,.cls-35,.cls-36,.cls-39,.cls-42,.cls-43,.cls-47,.cls-48,.cls-49,.cls-50,.cls-51,.cls-52,.cls-53,.cls-54,.cls-56,.cls-57,.cls-59,.cls-65,.cls-66,.cls-67,.cls-70,.cls-73,.cls-74,.cls-75,.cls-77,.cls-78,.cls-81,.cls-82,.cls-83,.cls-86,.cls-87,.cls-88,.cls-89,.cls-93,.cls-98{stroke-miterlimit:10;}.cls-11{stroke-width:2.72px;}.cls-12{fill:#436da3;}.cls-13{stroke-width:2.8px;}.cls-14{fill:#61a69e;}.cls-15{opacity:0.9;}.cls-16{font-size:20.26px;}.cls-16,.cls-34{fill:#d9727e;}.cls-16,.cls-23,.cls-25{font-family:Acre-Regular, Acre;}.cls-17{letter-spacing:-0.02em;}.cls-18,.cls-23,.cls-25,.cls-26,.cls-30,.cls-32,.cls-35,.cls-36,.cls-39,.cls-42,.cls-43,.cls-47,.cls-48,.cls-49,.cls-52,.cls-65,.cls-66,.cls-67,.cls-70,.cls-74,.cls-75,.cls-77,.cls-78,.cls-81,.cls-82,.cls-83,.cls-86,.cls-87,.cls-88,.cls-89{stroke:#fff;}.cls-18{stroke-width:0.75px;}.cls-19{letter-spacing:-0.01em;}.cls-20,.cls-65{fill:#f5ce47;}.cls-21{fill:#df794f;}.cls-22,.cls-24{fill:#6a6264;stroke:#3c619d;}.cls-22{stroke-width:1.02px;}.cls-23{font-size:16.51px;stroke-width:1.16px;}.cls-24{stroke-width:1.03px;}.cls-25{font-size:16.43px;stroke-width:1.17px;}.cls-26,.cls-58{fill:#5b5153;}.cls-26,.cls-43{stroke-width:0.39px;}.cls-27{opacity:0.7;}.cls-28{letter-spacing:-0.01em;}.cls-29{letter-spacing:-0.02em;}.cls-30{stroke-width:0.74px;}.cls-31{opacity:0.8;}.cls-32{stroke-width:0.64px;}.cls-33{letter-spacing:-0.03em;}.cls-35,.cls-50{fill:#eb6b7c;}.cls-35{stroke-width:0.42px;}.cls-36,.cls-43,.cls-78{fill:#60a8a1;}.cls-36{stroke-width:0.25px;}.cls-37{font-size:16.35px;}.cls-37,.cls-68,.cls-71,.cls-79,.cls-84{font-family:Acre-Bold, Acre;font-weight:700;}.cls-38{letter-spacing:-0.03em;}.cls-39{fill:#3caaa1;}.cls-39,.cls-82{stroke-width:0.5px;}.cls-40{font-size:19.53px;}.cls-40,.cls-63,.cls-64{font-family:Acre-Semibold, Acre;font-weight:600;}.cls-41{letter-spacing:-0.04em;}.cls-42{fill:#69569e;stroke-width:0.13px;}.cls-44{clip-path:url(#clip-path-2);}.cls-45{fill:#42210b;opacity:0.72;}.cls-46{letter-spacing:-0.03em;}.cls-48{stroke-width:1.04px;}.cls-49{stroke-width:1.02px;}.cls-50{stroke:#f6d047;stroke-width:0.6px;}.cls-51{stroke:#ec6a7c;}.cls-51,.cls-52{stroke-width:0.15px;}.cls-52,.cls-67{fill:#f6d047;}.cls-53{fill:#5b5052;stroke:#69569e;stroke-width:0.62px;}.cls-54,.cls-56{stroke:#5487c6;}.cls-54{stroke-width:6.12px;}.cls-55{fill:#5487c6;}.cls-56{stroke-width:5.14px;}.cls-57,.cls-59{stroke:#5b5153;}.cls-57{stroke-width:0.91px;}.cls-59{stroke-width:0.87px;}.cls-60{letter-spacing:-0.01em;}.cls-61{fill:#60a7a0;}.cls-62{fill:#5a3a1b;}.cls-63{font-size:15.99px;}.cls-64{font-size:14.14px;}.cls-65{stroke-width:0.37px;}.cls-66,.cls-87{fill:#e1794f;}.cls-66{stroke-width:0.5px;}.cls-67{stroke-width:0.3px;}.cls-68{font-size:19.35px;}.cls-69{letter-spacing:-0.02em;}.cls-70,.cls-73,.cls-89{fill:#3c619c;}.cls-70{stroke-width:0.63px;}.cls-71{font-size:15.78px;}.cls-72{letter-spacing:-0.02em;}.cls-73{stroke:#f6d048;stroke-width:0.4px;}.cls-74{stroke-width:0.16px;}.cls-75{stroke-width:0.69px;}.cls-76{letter-spacing:0em;}.cls-77,.cls-81{fill:#3d618b;}.cls-77{stroke-width:0.18px;}.cls-78{stroke-width:0.35px;}.cls-79{font-size:12.77px;letter-spacing:-0.01em;}.cls-80{letter-spacing:0em;}.cls-81{stroke-width:0.22px;}.cls-82,.cls-88{fill:#f6d048;}.cls-83{fill:#3c619d;stroke-width:0.43px;}.cls-84{font-size:16.97px;letter-spacing:-0.01em;}.cls-85{letter-spacing:0em;}.cls-86{fill:#5a9c56;}.cls-86,.cls-88,.cls-89{stroke-width:0.23px;}.cls-87{stroke-width:0.34px;}.cls-90{fill:#414042;}.cls-91{fill:#5a5052;}.cls-92{fill:#1d170a;}.cls-93{stroke:#322b20;stroke-width:0.21px;}.cls-94{fill:#492c19;}.cls-95{fill:#ec6a7c;}.cls-96{fill:#eca2ad;}.cls-97{clip-path:url(#clip-path-3);}.cls-98{stroke:#414042;stroke-width:17px;}</style><clipPath id="clip-path" transform="translate(3.07 -238.86)"><rect class="cls-1" x="3.29" width="1178.89" height="957"/></clipPath><clipPath id="clip-path-2" transform="translate(3.07 -238.86)"><path class="cls-1" d="M641.09,597.89c-3.63.19-7.29.05-10.7,0-18.35-.3-36.71-.46-55.07-.64-18.16,0-36.32-.35-54.48-.58q-18.42-.24-36.84-.52c-5.26,0-10.52-.17-15.78-.24q-11.73-.15-23.43-.39l-3.77-.07c-.38,0-.76-.08-1.14-.08a7.66,7.66,0,0,1-2.39-.57,22.76,22.76,0,0,1-5.42-2.61c-.46-.3-.91-.62-1.35-1l-.63-.51c-.22-.2-.38-.43-.61-.62s-.48-.4-.69-.62-.31-.5-.54-.73a3,3,0,0,0-.35-.27,9.32,9.32,0,0,1-1.4-1.54,24.13,24.13,0,0,1-2.92-4.55,23.33,23.33,0,0,1-2.38-10.57,23.59,23.59,0,0,1,23.87-23.17l196.66,2.62A23.59,23.59,0,0,1,665,575.06a25.38,25.38,0,0,1-.22,2.88,23.5,23.5,0,0,1-2.37,7.48,24.5,24.5,0,0,1-1.88,3.05q-.54.72-1.11,1.41c-.37.43-.67.91-1,1.34a16.18,16.18,0,0,1-3.34,2.95,17.14,17.14,0,0,1-1.95,1.11A31.49,31.49,0,0,1,641.09,597.89Z"/></clipPath><clipPath id="clip-path-3" transform="translate(3.07 -238.86)"><path class="cls-1" d="M1031.82,332.19l.54,0c1.67.07,3.35,0,5,.16a48.06,48.06,0,0,1,10.09,1.84c.85.27,1.68.57,2.5.91,5.6,2.34,10.3,6.47,14.21,11.11,17.3,20.53,19.9,49.87,34.59,72.33,6.91,10.55,16.88,21,15.38,33.55-1.66-1.74,1.22-4.68,3.51-3.95s3.46,3.21,4.36,5.45c22.07,54.87,43.2,110.81,51.06,169.43.34,2.55.7,5.23,2.23,7.31,1.13,1.52,2.78,2.57,4.11,3.93,4.19,4.32,4.47,11,4.5,17q.06,13.61.14,27.21c0,4.1,0,8.21-.25,12.31-.12,2.07-.28,4.13-.51,6.19a41.38,41.38,0,0,0-.66,4.52c0,1.36,1.13,2.68,1.79,3.89q2.43,4.38,4.56,8.91a158.42,158.42,0,0,1,7.38,18.62,156.09,156.09,0,0,1,4.76,18.42,41.84,41.84,0,0,1,1,13c-.52,4.33-2.19,8.42-3.88,12.44-2,4.74-4.27,9.78-8.68,12.44-3.4,2-7.56,2.34-11.54,2.36h-.38a109.43,109.43,0,0,1-55.17-15.06,42.48,42.48,0,0,1-7.18-4.89c-2.06-1.86-5.71-2-8.33-2.71a314.84,314.84,0,0,1-39.05-12.8q-9.54-3.84-18.81-8.29c-2.86-1.37-6.1-2.59-8.65-4.48a11.58,11.58,0,0,0-2.51-1.65c-2.65-1.09-5.38-1.85-8-3.14a47.43,47.43,0,0,1-8.75-5.66,44.67,44.67,0,0,1-8.53-9.26c-9.77-14.28-10.59-32.65-11.07-49.94-.21-7.33-.37-14.9,2.34-21.71,2.17-5.46,6-10,9-15.09,8.94-15,9.79-33.36,10.34-50.84q1.15-37,1.89-74c.17-8.45.32-17-1.16-25.29s-4.56-16.23-6.9-24.33c-4-13.95-5.93-28.41-7.8-42.81s-3.76-28.89-4.78-43.42c-.51-7.28-.81-14.57-.78-21.87q0-5.46.3-10.92c.16-3.1.06-6.53.87-9.54.35-1.31,1.34-2.89,2.84-2.67.85.12,1.74.1,2.6.14l5.52.23,11,.46C1028.56,332,1030.2,332.11,1031.82,332.19Z"/></clipPath></defs><g id="Layer_2" data-name="Layer 2"><g id="Pedogenic_Processes" data-name="Pedogenic Processes"><g id="Layer_14" data-name="Layer 14"><g class="cls-2"><path class="cls-3" d="M.8,340.16C61,332,122.33,333,184.46,334.7c342.06,9.32,659.83-19.9,998.86,5.46V622.58H.8Z" transform="translate(3.07 -238.86)"/><rect class="cls-4" x="4.93" y="504.65" width="1180.5" height="144.49"/><path class="cls-5" d="M1147.26,625.68c-63.61-11.88-127.77,6.38-191.8,10.64-56.67,3.78-113.38-3.44-170-7.85-248.51-19.32-497.63,15.35-746.33,3-12.45-.62-25.36-1.2-37.41,2.75C1.68,685.36.35,736.18.35,787.2c45.15,0,88.34-33.52,133.44-30.82,45.77,2.74,90.82,26.52,136.46,20.59,23-3,45.73-13.56,68.82-11.76,14.69,1.15,29,7.26,43.35,12.08a252.59,252.59,0,0,0,142.36,6c28.66-7.12,57-19.3,86-19.51,32.31-.24,64,14.38,96.34,15,17.58.36,35.07-3.43,52.48-7.22,56.84-12.35,111.84-10.75,169.22-9.85,28.25.45,56.52.89,84.74-1.16,42.95-3.13,85.83-12,128.79-9.21,12.83.85,27.37,1.36,39.8-3.32V639.17C1171.4,631.44,1159.19,627.9,1147.26,625.68Z" transform="translate(3.07 -238.86)"/><path class="cls-6" d="M1126.06,560.9c-142.41,35-289.06,14.85-433.4-2.85C480.09,532,266.65,511.5,53.2,518.88c-18.58.64-38.1,1.92-55.37,9.67v47c0,33.35,1.39,65.34,1.39,98.58,0-.54,39.68-14,44-14.86,33.48-6.43,67.73-7.45,101,1.58,14.3,3.88,28.87,6.45,43.28,9.58,7.2,1.56,14.53,3.12,21.77,2,17.86-2.9,35.71-5.58,53.7-6.55,14.81-.79,33,.34,47.41,5,15.66,5,26.58,12.93,43.33,3.92,3.76-2,7.32-4.65,11.2-6.24,4.2-1.73,8.64-2.19,13-2.53,19.48-1.49,43.94,10.15,62.22,2.72,12.62-5.13,21.8-15.17,35.69-14.7,14.32.48,28.3,9.29,41.81,14.49,42,16.19,85.87-18.13,129.73-16.63,17.25.59,34.06,6.74,51.18,9.47,57.38,9.12,115.13-20.48,172.65-12.9,37.51,4.94,73,25.06,110.9,26.9,10.11.5,20.54-.53,30.57-1.8,12.11-1.54,23.57-8,35-13a54,54,0,0,1,25-5.09c13.26.43,25,11.09,38.71,6,8.39-3.1,15.71-11.53,24.44-11.32,5.82.14,11.08,4.15,16.58,6.57,9.75,4.28,20.6,2.88,29.91-2.73V561.39C1165.4,551.1,1144.81,556.29,1126.06,560.9Z" transform="translate(3.07 -238.86)"/><path class="cls-7" d="M1124.75,478.82c-58.19,8.83-116.92,12.27-175.45,8.85-61-3.57-121.68-14.55-182.71-17.69-52.9-2.73-105.86.46-158.8.06-189.06-1.4-377.26-48.35-566.11-36.72-13.29.82-26.66,1.95-39.81,4.46v67c0,9.59-3.67,27.87,0,36.77,3.84,9.33,7,5.79,18.61,5.59,29-.5,57.83,8.17,86.54,11.34A606.34,606.34,0,0,0,206.76,561c18.43-1,37-3.41,55.47-1.93,17.47,1.41,31.88,9.73,48.17,15,33,10.63,71.17,7,105.43,12.8,3,.51,6.07.87,9.08,1.49a11.11,11.11,0,0,1,3.71,1c.89.56,1.67,1.39,2.55,2a27.59,27.59,0,0,0,5.75,3,12,12,0,0,0,4.49,1.08l2.16,0,4.33,0c3.47,0,7,.22,10.41.22l13.26.15q54.6.61,109.2,1.41c2.35,0,4.7.09,7.05.09,14.34,0,28.67.07,43,.31l3.77.06h.67c7.68.13,16.24-.08,21.75-5.41,2.7-2.61,4.81-6.75,8.57-8a4.51,4.51,0,0,1,2.52-.06,13.87,13.87,0,0,0,3.58-.09q4.3-.36,8.63-.68C727.1,580,774,581,820.86,581.86c42.33.82,84.6-1,127-.46q49.51.58,98.95,4.15c20.94,1.51,41.31,5.69,62.56,5.57a311.58,311.58,0,0,0,60.22-6.23h0c6-1.22,12-2.85,18.07-4-7.28-14.43-5.3-29.57-5.3-45.25V482.69C1165.47,474.48,1143.54,476,1124.75,478.82Z" transform="translate(3.07 -238.86)"/><path class="cls-8" d="M1181.51,435.9c-10.19,1.25-20.64,3.6-30.55,1-9.14-2.43-17-8.93-26.39-10.05-8-.95-15.86,2.16-23.48,4.82-64.55,22.53-135.26,14.93-203.19,7.06l-156.27-18.1c-26.71-3.1-53.52-6.2-80.4-5.6-37.2.82-74,6.07-111.27,6.21q-15.66.06-31.28-1.43c-18.95-1.8-38.8-4.69-56.93-10.69-17.93-5.93-37.42-10.35-56.36-11.15-.95,0-1.9-.06-2.85-.08-31-.63-61.36,8-92.33,7.27-19.08-.48-39-3.83-58.52-3.74-39.48.18-78.89,2.68-118.32,4.41-33.25,1.46-66.57,2.38-99.84.9-7.33-.32-14.65-1-22-.95-3.54,0-7.43-.1-10.91.67s-4.07,3.15-3.51,6.37c.81,4.61,2.35,9,2.73,13.65A91.55,91.55,0,0,1,0,440.76a156.11,156.11,0,0,0-.79,18c.15,3.52.19,10.56,3.73,13.18,2.81,2.07,7.51,1.52,10.75,1.45,10.2-.21,20.24-2.17,30.37-3.19,19.93-2,40-.36,59.79,2.4,27.56,3.86,54.61,9.53,82.4,11.24,32.33,2,64.73,2.48,97.12,2.59,33.19.11,66.16-1.43,99.34.5,35.11,2,70.14,5.09,105.16,8.27l110.07,10c56.37,5.11,118.93-6.35,175.53-5.74,22.12.24,44.25-.29,66.32-1.89,13.62-1,27.29-2.37,40.9-1.21,12.13,1,24,4.07,35.92,6.42,49.59,9.76,100.66,7.62,151.15,5.44l49.77-2.14c21.73-.94,45.82-3.71,64.88-13V435.8Z" transform="translate(3.07 -238.86)"/></g></g><g id="Layer_15" data-name="Layer 15"><path class="cls-9" d="M96,331c-.11,1.35-.2,2.74-.41,4s-.54,2.5-.89,3.66S94,341,93.54,342.05l-1.37,3a100.88,100.88,0,0,1-6.23,10.47c-2.14,3.23-4.29,6.29-6.23,9.29a79.17,79.17,0,0,0-5.13,8.89l-.94,2.16L72.92,378a34.23,34.23,0,0,0-1,4.55,12.4,12.4,0,0,0-.06,3.68A10.55,10.55,0,0,0,73,389.56c1.31,2.51,3.79,5.32,6.13,9.1a42,42,0,0,1,5,12,42.79,42.79,0,0,1,1.14,12.8c-.06,1.07-.19,2.14-.32,3.2s-.36,2.18-.55,3.05a17.57,17.57,0,0,0-.55,4.11,3.48,3.48,0,0,0,.09.64c0,.09,0,.12.29.33a6.47,6.47,0,0,0,1.51.66c.7.22,1.62.45,2.6.76a78.53,78.53,0,0,1,11.16,4.12A84.72,84.72,0,0,1,135,470.39L129.83,474c2.45,2.25,4.35.81,3.6,1.14a1.59,1.59,0,0,0,.38-.17l.15-.09,0,0-.1.07-.31.23-.69.51-1.41,1.1L128.65,479,123,483.59c-1.81,1.44-3.54,3.08-5.3,4.71s-3.44,3.31-5.11,5a164.74,164.74,0,0,0-18.16,22.26q-4,6-7.57,12.29c-2.34,4.21-4.55,8.54-6.89,12.8s-4.84,8.45-7.45,12.55l-4,6.1a30.85,30.85,0,0,1-2.11,3,12.17,12.17,0,0,1-1.27,1.32A5.15,5.15,0,0,0,64,565a5,5,0,0,1,1.16-1.4,13.87,13.87,0,0,0,1.17-1.37,29.35,29.35,0,0,0,1.93-3.07l3.65-6.29q3.57-6.33,6.72-12.86c2.09-4.36,4.06-8.8,6.2-13.18s4.49-8.7,7-12.89a168.13,168.13,0,0,1,17.33-23.77q2.43-2.78,5-5.45c1.71-1.76,3.41-3.56,5.3-5.25l5.43-4.9,2.74-2.43,1.4-1.22.73-.62.41-.33.27-.2.21-.14.25-.15s.25-.13.44-.2c-.74.32,1.18-1.12,3.65,1.14L129.82,474a77.36,77.36,0,0,0-33.71-25.67A71.21,71.21,0,0,0,86,445.21a25.8,25.8,0,0,1-6.55-2.09,10.59,10.59,0,0,1-3.77-3.47A11.42,11.42,0,0,1,74,435a24.85,24.85,0,0,1,.33-7.07c.16-1,.22-1.7.32-2.5s.11-1.6.1-2.4a31.66,31.66,0,0,0-1.37-9.48,30.12,30.12,0,0,0-4.1-8.5c-1.69-2.55-4.42-5.25-6.91-9.23a22.89,22.89,0,0,1-3-7.08,25,25,0,0,1-.42-7.52,46.5,46.5,0,0,1,1.07-6.49l.92-3.27,1.13-3.07c3.27-7.89,7.63-14.37,11.29-20.66a87.22,87.22,0,0,0,4.81-9.12A18.61,18.61,0,0,0,80,331Z" transform="translate(3.07 -238.86)"/><path class="cls-10" d="M73.73,320.2a77.17,77.17,0,0,0-7.62-5.71,49.19,49.19,0,0,0-7.59-3.94c-2.53-1-5.55-1.07-8.27-1.31-11.12-1-22.95.23-33.18,5.35C8.2,319-5,330,2,341.22c2,3.33,6,3.27,9.46,2.87a76.53,76.53,0,0,0,10.64-2.43,136.2,136.2,0,0,1,24.22-4.09c9.8-.77,19.71-.51,29.4-2.12C85.56,333.81,78.16,323.87,73.73,320.2Z" transform="translate(3.07 -238.86)"/><path class="cls-10" d="M109.22,314.83a35.55,35.55,0,0,1,8-3.13,92,92,0,0,1,28.36-3.46,32.17,32.17,0,0,1,8.2,1.11,24,24,0,0,1,7.44,3.9,30.13,30.13,0,0,1,12.07,19.65,1.42,1.42,0,0,1,0,.79,1.82,1.82,0,0,1-1,.74c-6.15,2.65-13.29,2.55-20.13,2.73-17.37.45-35,3-51.94-.43-2.33-.47-4.57-1.57-3.67-3.92.34-.88,1.24-1.53,1.68-2.38a34,34,0,0,0,1.17-3.62A23.1,23.1,0,0,1,109.22,314.83Z" transform="translate(3.07 -238.86)"/><path class="cls-9" d="M190.46,334.65c-.12,1.38-.27,2.76-.44,4.13s-.61,2.7-1,4-.9,2.58-1.42,3.8-1.14,2.41-1.79,3.51a60.11,60.11,0,0,1-8.69,11.2c-3,3.17-6,6-8.66,8.8a59,59,0,0,0-6.94,8.46l-.35-7.73c6.41,9.42,13,19,18.56,29.45a132.62,132.62,0,0,1,7.47,16.17c1,2.81,2,5.65,2.82,8.55a40.52,40.52,0,0,1,1.85,9.58,17.69,17.69,0,0,1-.72,5.87,14.07,14.07,0,0,1-1.24,2.9,17.79,17.79,0,0,1-1.62,2.39,46.5,46.5,0,0,1-3.17,3.46,21.81,21.81,0,0,0-2.27,2.7,11.19,11.19,0,0,0-2.27,5.44,3.48,3.48,0,0,0,.4,1.9,6,6,0,0,0,1.83,1.92c4,3,9.2,5.39,14.32,8.37a42.08,42.08,0,0,1,7.53,5.41,21.76,21.76,0,0,1,5.62,8.1l.82,2.18-1.72,1.29a34,34,0,0,0-7.82,8.53,55.3,55.3,0,0,0-5.36,10.78c-1.45,3.81-2.59,7.8-3.68,11.83-.55,2-1.08,4-1.57,6.06s-1,4.11-1.63,6.18c-.32,1-.68,2.07-1.1,3.09-.21.5-.42,1-.67,1.51a11.35,11.35,0,0,0-.57,1.31c-.31.87-.53,1.9-.85,3l-.91,3-1.79,6a6.24,6.24,0,0,0-.25,1.35,3.08,3.08,0,0,0,0,.61c0,.21.1.45.15.67a14.65,14.65,0,0,0,1.15,2.74c1,1.81,2.14,3.54,3.27,5.33.56.88,1.11,1.82,1.59,2.76s1,1.84,1.5,2.76c2,3.65,4.29,7.2,6.47,10.79-2.39-3.45-4.84-6.86-7.11-10.41-.57-.88-1.13-1.78-1.67-2.69s-1.1-1.74-1.71-2.59c-1.22-1.7-2.51-3.37-3.63-5.21a15.86,15.86,0,0,1-1.46-3c-.09-.28-.17-.55-.25-.85a5.2,5.2,0,0,1-.1-1,8.1,8.1,0,0,1,.2-1.76l1.45-6.16.73-3.07c.23-1,.38-2,.69-3.13a13.56,13.56,0,0,1,.6-1.62c.19-.45.35-.93.52-1.4.32-.94.6-1.92.84-2.9.49-2,.85-4,1.22-6.08s.8-4.18,1.22-6.23A127.88,127.88,0,0,1,192,504.38a59.72,59.72,0,0,1,5.15-12.05,39.33,39.33,0,0,1,8.54-10.47l-.9,3.48c-1.92-4.31-6.14-7.23-11-9.66s-10.28-4.49-15.61-8a14.28,14.28,0,0,1-4.18-4.05,11.84,11.84,0,0,1-1.91-6.19,15.72,15.72,0,0,1,.95-5.74,23.69,23.69,0,0,1,2.27-4.72,30.27,30.27,0,0,1,3-4c1-1.14,1.84-2.11,2.43-3a8.42,8.42,0,0,0,.71-1.19,5.09,5.09,0,0,0,.35-1,8,8,0,0,0,.1-2.59,32.92,32.92,0,0,0-1.88-7c-.87-2.54-1.9-5-3-7.5a120.43,120.43,0,0,0-7.7-14.36c-5.77-9.34-12.57-18.2-19.51-27.19l-2.72-3.53,2.37-4.2a72,72,0,0,1,8-11.15c2.82-3.32,5.64-6.34,8.12-9.29a44.27,44.27,0,0,0,6-8.59,16.7,16.7,0,0,0,1.92-8.08Z" transform="translate(3.07 -238.86)"/><path class="cls-10" d="M193.37,335.24a46.68,46.68,0,0,0,6.48,1c12.88,1.33,25.78,2.66,38.76,2.83,8.16.1,16.31-.25,24.46-.6a49.74,49.74,0,0,0,8.65-.87A2.5,2.5,0,0,0,273,337a1.75,1.75,0,0,0,.37-1.19c.14-4.82-2.36-9.38-4.81-13.74a20,20,0,0,0-3.27-4.7,24.41,24.41,0,0,0-6.27-4c-4.24-2.15-8.56-4.33-13.34-5.44-5.23-1.2-10.76-1.06-16.18-.82a55,55,0,0,0-8.23.79,55.28,55.28,0,0,0-11,3.73c-5.38,2.26-11.22,4.93-13.3,9.66-.44,1-.68,2-1.1,3-1.24,3-4,5.63-4.2,8.81a1.62,1.62,0,0,0,.33,1.26,2.45,2.45,0,0,0,1,.55l3.64,1.35" transform="translate(3.07 -238.86)"/><line class="cls-11" x1="114.79" y1="278.98" x2="135.48" y2="279.16"/><polygon class="cls-12" points="132.38 283.17 134.13 279.15 132.46 275.11 141.97 279.22 132.38 283.17"/><line class="cls-11" x1="172.85" y1="279.46" x2="152.17" y2="279.28"/><polygon class="cls-12" points="155.26 275.27 153.51 279.29 155.19 283.33 145.67 279.22 155.26 275.27"/><line class="cls-13" x1="132.9" y1="298.7" x2="166.27" y2="298.84"/><polygon class="cls-12" points="163.11 302.98 164.89 298.83 163.14 294.67 172.97 298.87 163.11 302.98"/><line class="cls-13" x1="152.93" y1="298.78" x2="119.56" y2="298.64"/><polygon class="cls-12" points="122.73 294.5 120.94 298.65 122.69 302.81 112.86 298.62 122.73 294.5"/><path class="cls-14" d="M186.79,443.11c.39-.27.71-.52.85-.63a4.4,4.4,0,0,0,1.74-5.09,3.4,3.4,0,0,0-2.06-2.57c-.86-.35-2.45-.76-3,.32-.7,1.43,1,3.76.94,5.38-.06,1.09-.81,1.75-1,2.69C184.09,444.74,186.36,443.39,186.79,443.11Z" transform="translate(3.07 -238.86)"/><path class="cls-14" d="M64.55,383.75c7.12.91,9.28-9.11,4.56-13.14a10.57,10.57,0,0,1-.62,2.78A6,6,0,0,1,65.07,377c-1.46.65-3.3,1-3.91,2.5s.68,3.31,2.24,3.92A4.73,4.73,0,0,0,64.55,383.75Z" transform="translate(3.07 -238.86)"/><path class="cls-14" d="M168.65,358.1a2.92,2.92,0,0,0,1.49.71,7.9,7.9,0,0,0,3.85-.46,6.12,6.12,0,0,0,1.42-.88c.48-.37,1-.6,1.52-1a4,4,0,0,0,1.85-3.56c-.05-.71-.23-2.95-1.43-2.79-.58.08-1.15.72-1.66,1-1.63.89-3.46.7-5,1.69a6.59,6.59,0,0,0-2,2,2.94,2.94,0,0,0-.53,2.36A1.88,1.88,0,0,0,168.65,358.1Z" transform="translate(3.07 -238.86)"/><path class="cls-14" d="M76.25,434.94a2.91,2.91,0,0,0,.12,1.65,7.81,7.81,0,0,0,2.29,3.13,6.15,6.15,0,0,0,1.47.8c.55.23,1,.6,1.58.84a4,4,0,0,0,4-.14c.6-.39,2.46-1.65,1.73-2.61-.35-.47-1.19-.65-1.68-1-1.57-1-2.31-2.67-3.94-3.55a6.55,6.55,0,0,0-2.77-.79,2.94,2.94,0,0,0-2.32.69A2,2,0,0,0,76.25,434.94Z" transform="translate(3.07 -238.86)"/><rect class="cls-15" x="43.34" y="149.94" width="169.01" height="34.84"/><text class="cls-16" transform="translate(61.71 173.13)">ped<tspan class="cls-17" x="36.41" y="0">o</tspan><tspan x="48.24" y="0">turbation</tspan></text><polygon class="cls-9" points="123.47 242.93 135.66 228.18 141.05 235.39 123.47 242.93"/><path class="cls-14" d="M198.36,474.61a3.14,3.14,0,0,0-.06,1.39,5.27,5.27,0,0,0,1.2,2.46,3.05,3.05,0,0,0,.88.56c.33.15.6.43.94.59a2.12,2.12,0,0,0,2.56-.45c.41-.38,1.7-1.59,1.31-2.35-.18-.36-.7-.45-1-.67-.92-.71-1.25-2.08-2.22-2.69a2.89,2.89,0,0,0-1.7-.44,2,2,0,0,0-1.53.77A2.34,2.34,0,0,0,198.36,474.61Z" transform="translate(3.07 -238.86)"/><path class="cls-14" d="M127.58,476.29c.48,0,.91.06,1.1.06a4.59,4.59,0,0,0,4.76-3,3.56,3.56,0,0,0,0-3.44c-.46-.85-1.48-2.23-2.61-1.7-1.51.7-1.67,3.71-2.8,5-.76.85-1.8.88-2.54,1.54C124.32,475.83,127.05,476.24,127.58,476.29Z" transform="translate(3.07 -238.86)"/></g><g id="Layer_16" data-name="Layer 16"><line class="cls-18" x1="75.27" y1="450.38" x2="75.27" y2="472.68"/><polygon class="cls-9" points="72.77 470.79 75.27 471.85 77.77 470.79 75.27 476.71 72.77 470.79"/><line class="cls-18" x1="140.94" y1="450.38" x2="140.94" y2="472.68"/><polygon class="cls-9" points="138.44 470.79 140.94 471.85 143.44 470.79 140.94 476.71 138.44 470.79"/><line class="cls-18" x1="181.8" y1="407.81" x2="166.38" y2="413.37"/><polygon class="cls-9" points="167 411.38 166.9 413.18 168.13 414.51 163.85 414.28 167 411.38"/><rect class="cls-15" x="38.42" y="346.91" width="163" height="34.93"/><text class="cls-16" transform="translate(68.15 371.86)">d<tspan class="cls-19" x="12.48" y="0">e</tspan><tspan x="23.68" y="0">silication</tspan></text><polygon class="cls-20" points="214.05 410.81 203.3 409.68 192.55 408.55 188.65 413.85 202.7 415.33 216.76 416.81 214.05 410.81"/><polygon class="cls-20" points="214.66 405 203.91 403.87 193.16 402.73 190.45 396.74 204.51 398.22 218.56 399.7 214.66 405"/><rect class="cls-21" x="189.75" y="642.67" width="21.57" height="5.92" transform="translate(71.83 -256.31) rotate(6.01)"/><ellipse class="cls-22" cx="139.28" cy="663.14" rx="14.56" ry="14.29" transform="translate(-534.06 464.65) rotate(-81.55)"/><text class="cls-23" transform="translate(135.03 429.08) rotate(8.45) scale(0.98 1)">Si</text><circle class="cls-24" cx="73.35" cy="419.29" r="14.48"/><text class="cls-25" transform="translate(67.6 425.93) rotate(-7.98)">Si</text><circle class="cls-26" cx="144.1" cy="499.39" r="4.06"/><circle class="cls-26" cx="88.1" cy="494.39" r="4.06"/><circle class="cls-26" cx="58.1" cy="515.39" r="4.06"/></g><g id="Layer_17" data-name="Layer 17"><rect class="cls-27" x="239.42" y="274.78" width="118" height="34.44"/><polygon class="cls-20" points="347.19 378.05 336.84 374.86 326.49 371.68 321.55 376.39 335.09 380.55 348.63 384.72 347.19 378.05"/><polygon class="cls-20" points="349 372.19 338.64 369 328.29 365.82 326.86 359.15 340.39 363.31 353.93 367.48 349 372.19"/><rect class="cls-21" x="323.86" y="607.68" width="21.62" height="6.21" transform="translate(197.5 -310.27) rotate(17.1)"/><polygon class="cls-20" points="391.86 314.53 381.69 310.81 371.52 307.09 366.34 311.54 379.64 316.4 392.95 321.27 391.86 314.53"/><polygon class="cls-20" points="393.97 308.77 383.8 305.05 373.62 301.33 372.54 294.6 385.84 299.46 399.14 304.33 393.97 308.77"/><rect class="cls-21" x="368.86" y="543.68" width="21.62" height="6.21" transform="translate(214 -336.01) rotate(20.09)"/><polygon class="cls-20" points="266.79 383.32 277.61 381.62 288.43 379.93 292.69 385.35 278.54 387.57 264.39 389.78 266.79 383.32"/><polygon class="cls-20" points="265.83 377.19 276.65 375.5 287.47 373.8 289.87 367.33 275.72 369.55 261.57 371.77 265.83 377.19"/><rect class="cls-21" x="263.13" y="614.27" width="21.86" height="6.28" transform="translate(643.44 946.13) rotate(171.1)"/><line class="cls-18" x1="287.5" y1="420.06" x2="287.24" y2="443.49"/><polygon class="cls-9" points="284.76 441.57 287.25 442.66 289.76 441.63 287.19 447.52 284.76 441.57"/><line class="cls-18" x1="321.47" y1="406.79" x2="321.21" y2="430.23"/><polygon class="cls-9" points="318.73 428.3 321.22 429.39 323.73 428.36 321.16 434.25 318.73 428.3"/><text class="cls-16" transform="translate(257.61 298.31)">l<tspan class="cls-19" x="4.76" y="0">e</tspan><tspan x="15.96" y="0">ss</tspan><tspan class="cls-28" x="33.02" y="0">i</tspan><tspan class="cls-29" x="38.17" y="0">v</tspan><tspan x="48.08" y="0">age</tspan></text><line class="cls-18" x1="274.67" y1="326.02" x2="274.67" y2="347.75"/><polygon class="cls-9" points="272.18 345.86 274.67 346.92 277.17 345.86 274.67 351.78 272.18 345.86"/><line class="cls-18" x1="309.35" y1="321.34" x2="309.35" y2="343.08"/><polygon class="cls-9" points="306.85 341.18 309.35 342.24 311.85 341.18 309.35 347.11 306.85 341.18"/><path class="cls-30" d="M364.87,565.82s6.53,20-14.35,26.51" transform="translate(3.07 -238.86)"/><polygon class="cls-9" points="354.76 350.58 354.37 353.23 356.01 355.35 349.73 354.45 354.76 350.58"/></g><g id="Layer_18" data-name="Layer 18"><rect class="cls-31" x="224.35" y="516.14" width="143" height="35.6"/><text class="cls-16" transform="translate(252.19 540.87)">illu<tspan class="cls-19" x="26.48" y="0">v</tspan><tspan x="36.59" y="0">iation</tspan></text><polygon class="cls-20" points="354.04 490.79 343.51 488.06 332.98 485.33 328.23 490.27 342.01 493.85 355.78 497.42 354.04 490.79"/><polygon class="cls-20" points="355.59 484.83 345.06 482.1 334.52 479.36 332.78 472.74 346.56 476.31 360.33 479.88 355.59 484.83"/><rect class="cls-21" x="330.35" y="720.81" width="21.72" height="6.24" transform="translate(195.8 -301.34) rotate(14.54)"/><polygon class="cls-20" points="241.23 467.84 252.56 466.8 263.88 465.75 267.94 471.66 253.13 473.02 238.32 474.39 241.23 467.84"/><polygon class="cls-20" points="240.64 461.43 251.96 460.39 263.29 459.34 266.2 452.8 251.39 454.16 236.58 455.53 240.64 461.43"/><rect class="cls-21" x="237.84" y="699.19" width="22.7" height="6.52" transform="translate(564.87 1140.2) rotate(174.73)"/></g><g id="Layer_32" data-name="Layer 32"><polygon class="cls-32" points="463.26 457.36 457.97 455.39 457.03 449.81 461.38 446.21 466.68 448.19 467.62 453.76 463.26 457.36"/><line class="cls-32" x1="457.03" y1="449.81" x2="453.29" y2="448.42"/><line class="cls-32" x1="454.94" y1="457.98" x2="457.97" y2="455.39"/><line class="cls-32" x1="463.26" y1="457.36" x2="463.96" y2="461.28"/><line class="cls-32" x1="461.38" y1="446.21" x2="460.69" y2="442.29"/><line class="cls-32" x1="471.35" y1="455.15" x2="467.62" y2="453.76"/><polygon class="cls-32" points="444.75 453.35 441.95 448.45 444.79 443.56 450.44 443.59 453.25 448.5 450.4 453.38 444.75 453.35"/><line class="cls-32" x1="444.79" y1="443.56" x2="442.81" y2="440.1"/><line class="cls-32" x1="437.96" y1="448.5" x2="441.95" y2="448.45"/><line class="cls-32" x1="444.75" y1="453.35" x2="442.78" y2="456.81"/><line class="cls-32" x1="450.44" y1="443.59" x2="452.42" y2="440.13"/><line class="cls-32" x1="452.38" y1="456.84" x2="450.4" y2="453.38"/><polygon class="cls-32" points="433.82 436.53 436.01 431.32 441.62 430.61 445.04 435.11 442.85 440.32 437.24 441.03 433.82 436.53"/><line class="cls-32" x1="441.62" y1="430.61" x2="443.16" y2="426.93"/><line class="cls-32" x1="433.54" y1="428.19" x2="436.01" y2="431.32"/><line class="cls-32" x1="433.82" y1="436.53" x2="429.87" y2="437.07"/><line class="cls-32" x1="445.04" y1="435.11" x2="448.98" y2="434.57"/><line class="cls-32" x1="435.7" y1="444.71" x2="437.24" y2="441.03"/><rect class="cls-15" x="454.35" y="588.78" width="135" height="35.8"/><text class="cls-16" transform="translate(477.15 614.06)">glei<tspan class="cls-33" x="34.04" y="0">z</tspan><tspan x="42.61" y="0">ation</tspan></text><path class="cls-34" d="M431,713.54,424,711l5.57-3.88c-.07-.39-.14-.76-.2-1.16a6.85,6.85,0,1,0-13.58,1.66A83.09,83.09,0,0,0,426.44,737l0,0c.14.21.28.43.44.64a6.85,6.85,0,0,0,10.83-8.39S433.83,724.49,431,713.54Z" transform="translate(3.07 -238.86)"/><path class="cls-18" d="M512.79,730.14s14.41-11.71,28.08.9" transform="translate(3.07 -238.86)"/><polygon class="cls-9" points="541.5 492.54 543.46 491.75 544.25 489.79 546.13 494.43 541.5 492.54"/><circle class="cls-35" cx="490.47" cy="505.5" r="15.24"/><path class="cls-36" d="M490.63,732.61c.65-1,1.32-2.07,2-3.11a2.89,2.89,0,0,0,.62-1.81,1,1,0,0,0-1.1-.8,1.18,1.18,0,0,0-.88,1.44l-1.51-.19a2.52,2.52,0,0,1,2.16-2.8,2.42,2.42,0,0,1,2.86,2,3.61,3.61,0,0,1-.76,2.55c-.28.48-.58,1-.88,1.46l2.24-.32.22,1.49-4.85.71Z" transform="translate(3.07 -238.86)"/><path class="cls-36" d="M500,729.11l-1.44.21.22,1.47-1.2.17-.21-1.46-1.41.2-.17-1.15,1.41-.21-.21-1.42,1.19-.18.21,1.42,1.44-.21Z" transform="translate(3.07 -238.86)"/><text class="cls-37" transform="translate(483.18 512.28) rotate(-9.81)"><tspan class="cls-38">F</tspan><tspan x="7.28" y="0">e</tspan></text><circle class="cls-39" cx="565.31" cy="508.51" r="15.71"/><text class="cls-40" transform="translate(555.45 515.13)"><tspan class="cls-41">F</tspan><tspan x="8.46" y="0">e</tspan></text><path class="cls-42" d="M574.15,735.91a2.36,2.36,0,0,1-2.49,2.31,2.55,2.55,0,0,1-2.54-1.8l1.53-.82a1.08,1.08,0,0,0,1,.82.71.71,0,0,0,.75-.72.7.7,0,0,0-.74-.69,1.13,1.13,0,0,0-.64.2l-.65-.88L571.8,733h-2.25v-1.75h4.16v1.63l-1.05,1A2.17,2.17,0,0,1,574.15,735.91Z" transform="translate(3.07 -238.86)"/><path class="cls-42" d="M578.83,734.15h-1.49v1.51h-1.23v-1.51h-1.46V733h1.46v-1.46h1.23V733h1.49Z" transform="translate(3.07 -238.86)"/><line class="cls-18" x1="544.5" y1="548.59" x2="544.27" y2="568.24"/><polygon class="cls-9" points="541.52 566.11 544.28 567.32 547.08 566.17 544.22 572.72 541.52 566.11"/><line class="cls-18" x1="583.19" y1="536" x2="582.97" y2="555.65"/><polygon class="cls-9" points="580.22 553.51 582.98 554.72 585.77 553.57 582.92 560.13 580.22 553.51"/><text x="3.07" y="-238.86"/><path class="cls-18" d="M445.79,714.14s12.52-10.73,22.94,2.83" transform="translate(3.07 -238.86)"/><polygon class="cls-9" points="469.34 478.04 471.4 477.6 472.52 475.81 473.57 480.7 469.34 478.04"/><circle class="cls-43" cx="619.1" cy="608.39" r="4.06"/><circle class="cls-43" cx="613.1" cy="572.39" r="4.06"/><circle class="cls-43" cx="654.1" cy="623.39" r="4.06"/><circle class="cls-43" cx="415.1" cy="571.39" r="4.06"/><circle class="cls-43" cx="393.1" cy="593.39" r="4.06"/><circle class="cls-43" cx="649.1" cy="577.39" r="4.06"/><circle class="cls-43" cx="429.1" cy="602.39" r="4.06"/><circle class="cls-43" cx="405.1" cy="625.39" r="4.06"/><circle class="cls-43" cx="364.1" cy="584.39" r="4.06"/><circle class="cls-43" cx="354.1" cy="622.39" r="4.06"/></g><g id="Layer_33" data-name="Layer 33"><g class="cls-44"><path class="cls-45" d="M416.62,590.78c-.11.55-.59,1.06-.43,1.62,0,.15.15.25.35.35,1.37.68,4.31,1,6.08,1.44a23.24,23.24,0,0,0,4.35.73c4.09.38,8.2.7,12.3,1q12.32.94,24.66,1.7,24.69,1.49,49.47,2.11,13.86.36,27.71.44A48.25,48.25,0,0,1,551,601c3.89.78,8.14.7,12.18,1,1.74.08,3.49.1,5.24.12,13.62.2,27.17.44,40.78,0,7.17-.22,14.37-.12,21.55-.27,2.18,0,4.35-.1,6.53-.16s4.1-.12,6.15-.19c1.89-.06,3.78-.14,5.67-.22,1.7-.08,3.39-.17,5.08-.27,1.46-.08,2.91-.18,4.36-.3,1.19-.1,2.38-.2,3.55-.34.89-.11,1.77-.23,2.62-.39a7.46,7.46,0,0,0,1.58-.44c.21-.09.43-.23.44-.4.41-8.26.61-16.54,1.27-24.79s3.24-16.64,3.94-24.94c-6.21-.4-12.8.12-19,.2-5.26.07-10.55.23-15.81.16-14.24-.19-28.25-1-42.42-1.73-39.71-2.19-79.35-5.52-119-8.2l-44.38-3c-6.06-.4-4.83,5.62-5.27,7.77L417.6,586C417.27,587.6,417,589.19,416.62,590.78Z" transform="translate(3.07 -238.86)"/></g><rect class="cls-27" x="383.35" y="208.78" width="162.63" height="36.09"/><text class="cls-16" transform="translate(402.18 232.16)">pod<tspan class="cls-33" x="37.12" y="0">z</tspan><tspan x="45.69" y="0">oli</tspan><tspan class="cls-46" x="67.95" y="0">z</tspan><tspan x="76.52" y="0">ation</tspan></text><line class="cls-47" x1="544.39" y1="306.32" x2="544.39" y2="325.81"/><polygon class="cls-9" points="540.68 323.01 544.39 324.58 548.09 323.01 544.39 331.78 540.68 323.01"/><line class="cls-47" x1="589.06" y1="306.32" x2="589.06" y2="325.81"/><polygon class="cls-9" points="585.36 323.01 589.06 324.58 592.76 323.01 589.06 331.78 585.36 323.01"/><line class="cls-48" x1="561.32" y1="219.56" x2="561.32" y2="235.06"/><polygon class="cls-9" points="557.45 232.12 561.32 233.77 565.19 232.12 561.32 241.3 557.45 232.12"/><line class="cls-48" x1="619.18" y1="219.56" x2="619.18" y2="235.06"/><polygon class="cls-9" points="615.31 232.12 619.18 233.77 623.05 232.12 619.18 241.3 615.31 232.12"/><polygon class="cls-49" points="505.51 312.46 498.93 318.59 490.33 315.95 488.31 307.19 494.89 301.07 503.49 303.7 505.51 312.46"/><line class="cls-49" x1="490.33" y1="315.95" x2="485.69" y2="320.28"/><line class="cls-49" x1="500.46" y1="324.74" x2="498.93" y2="318.59"/><line class="cls-49" x1="505.51" y1="312.46" x2="511.59" y2="314.26"/><line class="cls-49" x1="488.31" y1="307.19" x2="482.24" y2="305.39"/><line class="cls-49" x1="508.13" y1="299.37" x2="503.49" y2="303.7"/><polygon class="cls-49" points="486.63 335.94 477.65 336.43 472.73 328.91 476.79 320.89 485.77 320.39 490.69 327.92 486.63 335.94"/><line class="cls-49" x1="472.73" y1="328.91" x2="466.4" y2="329.26"/><line class="cls-49" x1="474.89" y1="342.14" x2="477.65" y2="336.43"/><line class="cls-49" x1="486.63" y1="335.93" x2="490.14" y2="341.21"/><line class="cls-49" x1="476.79" y1="320.89" x2="473.28" y2="315.61"/><line class="cls-49" x1="497.02" y1="327.56" x2="490.69" y2="327.92"/><polygon class="cls-49" points="454.92 339.5 449.06 332.68 452.04 324.2 460.87 322.54 466.73 329.36 463.75 337.84 454.92 339.5"/><line class="cls-49" x1="452.04" y1="324.2" x2="447.91" y2="319.39"/><line class="cls-49" x1="442.85" y1="333.96" x2="449.06" y2="332.68"/><line class="cls-49" x1="454.92" y1="339.5" x2="452.87" y2="345.5"/><line class="cls-49" x1="460.87" y1="322.54" x2="462.92" y2="316.54"/><line class="cls-49" x1="467.88" y1="342.65" x2="463.75" y2="337.84"/><circle class="cls-50" cx="514.3" cy="295.43" r="10.78"/><path class="cls-51" d="M506.59,532l.53,2.06,2.28-.58.45,1.73-2.28.58.81,3.2-1.84.47-2.24-8.77,5.06-1.3.45,1.78Z" transform="translate(3.07 -238.86)"/><path class="cls-51" d="M517.15,534l-4.3,1.1a1.59,1.59,0,0,0,1.86.63,4.7,4.7,0,0,0,1.85-1l.43,1.61a4.46,4.46,0,0,1-2,1A3.34,3.34,0,0,1,513.2,531C515.24,530.44,516.8,531.9,517.15,534Zm-4.58,0,2.54-.65a1.32,1.32,0,0,0-1.49-.7A1.39,1.39,0,0,0,512.57,534Z" transform="translate(3.07 -238.86)"/><path class="cls-52" d="M511.44,525.91c.39-.75.78-1.56,1.16-2.33a2.12,2.12,0,0,0,.3-1.32.67.67,0,0,0-.83-.48.83.83,0,0,0-.52,1.07l-1.07,0a1.79,1.79,0,0,1,1.31-2.13,1.72,1.72,0,0,1,2.16,1.17,2.63,2.63,0,0,1-.34,1.85l-.52,1.09,1.55-.39.27,1-3.36.85Z" transform="translate(3.07 -238.86)"/><path class="cls-52" d="M517.76,522.76l-1,.25.26,1-.82.21-.26-1-1,.25-.2-.8,1-.25-.25-1,.83-.21.25,1,1-.26Z" transform="translate(3.07 -238.86)"/><polygon class="cls-48" points="557.09 272.17 564.71 277.26 572.93 273.2 573.52 264.06 565.9 258.97 557.68 263.03 557.09 272.17"/><line class="cls-48" x1="572.93" y1="273.21" x2="578.3" y2="276.8"/><line class="cls-48" x1="564.18" y1="283.7" x2="564.71" y2="277.26"/><line class="cls-48" x1="557.09" y1="272.17" x2="551.27" y2="274.98"/><line class="cls-48" x1="573.52" y1="264.06" x2="579.34" y2="261.25"/><line class="cls-48" x1="552.31" y1="259.44" x2="557.68" y2="263.03"/><polygon class="cls-48" points="579.93 292.7 589.04 291.73 592.76 283.35 587.36 275.95 578.25 276.92 574.53 285.3 579.93 292.7"/><line class="cls-48" x1="592.76" y1="283.35" x2="599.19" y2="282.67"/><line class="cls-48" x1="592.76" y1="297.02" x2="589.04" y2="291.73"/><line class="cls-48" x1="579.93" y1="292.7" x2="577.26" y2="298.59"/><line class="cls-48" x1="587.36" y1="275.95" x2="590.03" y2="270.06"/><line class="cls-48" x1="568.1" y1="285.98" x2="574.53" y2="285.3"/><polygon class="cls-48" points="612.42 291.1 617.2 283.27 612.81 275.23 603.65 275 598.87 282.83 603.26 290.87 612.42 291.1"/><line class="cls-48" x1="612.81" y1="275.23" x2="616.18" y2="269.71"/><line class="cls-48" x1="623.65" y1="283.54" x2="617.2" y2="283.27"/><line class="cls-48" x1="612.42" y1="291.1" x2="615.47" y2="296.8"/><line class="cls-48" x1="603.65" y1="275" x2="600.6" y2="269.3"/><line class="cls-48" x1="599.89" y1="296.39" x2="603.26" y2="290.87"/><circle class="cls-53" cx="621.47" cy="261.69" r="10.99"/><path class="cls-9" d="M617.62,503.44l-3.37.36-.4,1.64-2.18.23,2.77-10,1.26-.13,4.8,9.16-2.16.23Zm-.83-1.71-1.37-2.86-.74,3.09Z" transform="translate(3.07 -238.86)"/><path class="cls-9" d="M620.23,493.82l1.95-.21,1.15,10.82-2,.21Z" transform="translate(3.07 -238.86)"/><path class="cls-42" d="M629.47,493.58a2.36,2.36,0,0,1-2.48,2.31,2.55,2.55,0,0,1-2.54-1.8l1.52-.82a1.1,1.1,0,0,0,1,.82.72.72,0,0,0,.75-.72.7.7,0,0,0-.74-.69,1.08,1.08,0,0,0-.64.2l-.65-.88,1.45-1.37h-2.25v-1.75H629v1.62l-1,1A2.15,2.15,0,0,1,629.47,493.58Z" transform="translate(3.07 -238.86)"/><path class="cls-42" d="M634.15,491.82h-1.49v1.51h-1.23v-1.51H630v-1.2h1.46v-1.47h1.23v1.47h1.49Z" transform="translate(3.07 -238.86)"/></g><g id="Layer_34" data-name="Layer 34"><rect class="cls-27" x="674.35" y="212.82" width="124" height="33.09"/><text class="cls-16" transform="translate(691.95 236.9)">elu<tspan class="cls-19" x="27.78" y="0">v</tspan><tspan x="37.89" y="0">iation</tspan></text><path class="cls-54" d="M886.06,328.79c-1,5.94-3.91,11.46-5.06,17.36-1.48,7.54,1.26,12.08,7.2,18.5,5,5.41,7,12.15,4.88,18-3.56,10-21.41,9.77-26.27,19.23-2.2,4.26-1.42,9.56,2.72,13.46,3.86,3.65,10,5.71,14.34,9.1,7.64,6,8,14.89,5.16,22.17s-8.35,13.79-11,21.13c-2.22,6.26-2.27,12.86-1.4,19.51" transform="translate(3.07 -238.86)"/><polygon class="cls-55" points="869.73 243.3 879.35 245.44 887.56 240 882.56 262.78 869.73 243.3"/><path class="cls-56" d="M855.55,329.53c-.95,2.66-2,5.75-4.32,7.69-5,4.21-13.16,1.91-19.26,2.66a15.32,15.32,0,0,0-11.9,7.63c-2.39,4.29-1.8,9.06-1,13.64,1.11,6.16.45,11.83-6.64,14.32-10.35,3.63-21.76-1.7-31.77,3.37-4,2-6.86,5.39-10.11,8.26-.71.62-1.45,1.23-2.21,1.79" transform="translate(3.07 -238.86)"/><polygon class="cls-55" points="774.64 140.34 773.67 148.56 778.91 154.96 759.44 152.7 774.64 140.34"/><path class="cls-56" d="M924.28,330.62c.29,3.23.16,6.87,2.2,9.65,3.81,5.18,12.32,4.74,18.06,6.8a14.66,14.66,0,0,1,9.64,10c1.25,4.69-.52,9.21-2.48,13.48-2.62,5.74-3.41,11.4,2.86,15.37,9.15,5.8,21.58,3.11,30,10.24,3.37,2.84,5.32,6.74,7.76,10.24.51.72,1,1.44,1.61,2.13" transform="translate(3.07 -238.86)"/><polygon class="cls-55" points="988.64 172.75 995.2 167.71 996.14 159.49 1008.11 175.01 988.64 172.75"/><path class="cls-55" d="M862.55,369.51a10.52,10.52,0,0,0-1.52,2.22,16.88,16.88,0,0,0-1,2.5c-.51,1.72-.84,3.48-1.22,5.25a21.85,21.85,0,0,1-4.54,9.88,17.42,17.42,0,0,1-4.15,3.69,23.14,23.14,0,0,1-5,2.29c-3.47,1.15-7,2-9.91,3.78a22.48,22.48,0,0,0-7.43,7.05,20.29,20.29,0,0,0-2.21,4.57,25.35,25.35,0,0,0-1,5c-.23,1.76-.4,3.59-.77,5.45A22.67,22.67,0,0,1,823,424a23.84,23.84,0,0,1-1.15,2.67,27.25,27.25,0,0,1-7.24,8.91l-2.28-2.95a23.82,23.82,0,0,0,6.63-7.49,16.91,16.91,0,0,0,1.84-4.61c.4-1.65.65-3.41,1-5.22a28.32,28.32,0,0,1,1.41-5.48,22.27,22.27,0,0,1,2.7-5,24.64,24.64,0,0,1,8.44-7.36,27.05,27.05,0,0,1,5.18-2.07c1.76-.51,3.52-.92,5.22-1.41a21.58,21.58,0,0,0,4.87-2,16.2,16.2,0,0,0,4-3.3,21.12,21.12,0,0,0,4.8-9.38c.45-1.74.85-3.5,1.45-5.22a17.72,17.72,0,0,1,1.11-2.48A11,11,0,0,1,862.55,369.51Z" transform="translate(3.07 -238.86)"/><polygon class="cls-55" points="817.67 185.06 818.6 193.63 825.42 198.91 805.12 201.17 817.67 185.06"/><path class="cls-55" d="M915.14,375.34l-.9,10.43a24.79,24.79,0,0,0-.16,5.15,20.21,20.21,0,0,0,1.23,5,17.83,17.83,0,0,0,2.42,4.44,22.67,22.67,0,0,0,3.64,3.55c1.33,1.09,2.74,2.13,4.1,3.29a24.34,24.34,0,0,1,3.72,3.93,22.8,22.8,0,0,1,4.22,10,22.23,22.23,0,0,1,.16,5.53,28.69,28.69,0,0,1-1.14,5.35c-.5,1.7-1,3.34-1.38,4.95a16.76,16.76,0,0,0-.41,4.78,22.17,22.17,0,0,0,2.57,9.27l-3.31,1.67a25.29,25.29,0,0,1-2.5-10.86,19.28,19.28,0,0,1,.16-2.82,21.74,21.74,0,0,1,.56-2.76c.48-1.78,1.1-3.44,1.65-5.07a26.17,26.17,0,0,0,1.26-4.82,19.13,19.13,0,0,0,.08-4.9,20.63,20.63,0,0,0-3.44-9.25,22,22,0,0,0-3.29-3.8c-1.24-1.17-2.6-2.26-3.92-3.44A24.39,24.39,0,0,1,916.8,401a18.59,18.59,0,0,1-2.36-4.82,20.68,20.68,0,0,1-1.05-5.22,14.91,14.91,0,0,1,.05-2.67l.34-2.59Z" transform="translate(3.07 -238.86)"/><polygon class="cls-55" points="925.02 212.54 933.42 210.57 937.82 203.16 942.54 223.03 925.02 212.54"/><rect class="cls-9" x="833.16" y="65.59" width="110.69" height="24.68"/></g><g id="Layer_35" data-name="Layer 35"><path class="cls-57" d="M770.65,294.88s-12.08,4.14-23.8,17.78" transform="translate(3.07 -238.86)"/><polygon class="cls-58" points="749.06 70.15 750.59 73.06 753.74 73.98 746.86 77.61 749.06 70.15"/><rect class="cls-59" x="789" y="30.64" width="160.55" height="37.79"/><text class="cls-16" transform="translate(808.01 56.47)"><tspan class="cls-60">m</tspan><tspan x="17.71" y="0">elani</tspan><tspan class="cls-33" x="63.35" y="0">z</tspan><tspan x="71.92" y="0">ation</tspan></text><path class="cls-9" d="M652.35,326.46a17.54,17.54,0,0,0,1,4.37,8.64,8.64,0,0,0,2.63,3.55c1.16,1,2.48,1.75,3.73,2.63a38.28,38.28,0,0,1,3.63,2.82,30.66,30.66,0,0,1,6.13,6.83,18.5,18.5,0,0,1,2,4.18,31.81,31.81,0,0,1,1,4.49,6.44,6.44,0,0,0,5.78,6c1.48.35,3,.52,4.49.92a6.38,6.38,0,0,1,3.84,2.4c.87,1.29,1.09,2.87,1.84,4.19a8.77,8.77,0,0,0,3.38,3l7.88,4.67-7.91-4.61a9,9,0,0,1-3.43-3c-.77-1.34-1-2.92-1.86-4.17a6.3,6.3,0,0,0-3.78-2.32c-1.47-.39-3-.55-4.49-.88a6.67,6.67,0,0,1-6-6.16,31.62,31.62,0,0,0-1-4.46,18.73,18.73,0,0,0-2-4.09,30.22,30.22,0,0,0-6.11-6.71,39,39,0,0,0-3.62-2.78c-1.25-.86-2.57-1.63-3.78-2.62a10.74,10.74,0,0,1-1.63-1.67,9.31,9.31,0,0,1-1.15-2,18,18,0,0,1-1.12-4.49.24.24,0,0,1,.21-.28.24.24,0,0,1,.28.21h0Z" transform="translate(3.07 -238.86)"/><path class="cls-9" d="M651.65,327.87a10.5,10.5,0,0,1-.14,6.51,4.83,4.83,0,0,1-2.19,2.48,9.17,9.17,0,0,1-3.16.88,31.17,31.17,0,0,0-6.27,1.44,40.07,40.07,0,0,0-5.87,2.64c-3.79,2-7.47,4.37-11.62,5.67a12.76,12.76,0,0,1-3.18.6,5.24,5.24,0,0,1-3.12-.73,9.82,9.82,0,0,0-2.77-1.62,10.5,10.5,0,0,0-3.21-.21,10.18,10.18,0,0,1,3.21.18,9.51,9.51,0,0,1,2.8,1.6,5.08,5.08,0,0,0,3.08.68,12.48,12.48,0,0,0,3.15-.62c4.11-1.33,7.76-3.7,11.54-5.77a40.81,40.81,0,0,1,5.89-2.72,31.87,31.87,0,0,1,6.31-1.51,8.84,8.84,0,0,0,3-.87,4.41,4.41,0,0,0,2-2.29,10.13,10.13,0,0,0,.06-6.21h0a.25.25,0,0,1,.18-.31.24.24,0,0,1,.3.18Z" transform="translate(3.07 -238.86)"/><path class="cls-9" d="M654.38,341.63a15.14,15.14,0,0,1-1.87,6.36c-1,2-2.13,3.84-3,5.85a8,8,0,0,0-.12,6.25,18.42,18.42,0,0,0,3.87,5.2,30.39,30.39,0,0,1,4,5.24,16.92,16.92,0,0,1,2.13,6.21,27.25,27.25,0,0,1,.08,6.57,18.13,18.13,0,0,0,.11,6.53,18,18,0,0,1-.17-6.54,28,28,0,0,0-.15-6.54,16.74,16.74,0,0,0-2.18-6.13,30.24,30.24,0,0,0-4-5.15,18.74,18.74,0,0,1-4-5.26,8.28,8.28,0,0,1,.06-6.53c.84-2.06,2-3.94,2.93-5.9a14.66,14.66,0,0,0,1.78-6.16.25.25,0,0,1,.25-.25.23.23,0,0,1,.25.24Z" transform="translate(3.07 -238.86)"/><path class="cls-9" d="M653.76,332.9a62,62,0,0,1,6.77,4.66c2.17,1.67,4.28,3.4,6.4,5.13,1.06.86,2.11,1.72,3.19,2.56.53.43,1.08.83,1.63,1.23a7.91,7.91,0,0,0,1.71,1,8,8,0,0,0,3.92-.55,24.17,24.17,0,0,1,4-1.1,4.58,4.58,0,0,1,2.08.09,3.43,3.43,0,0,1,1.69,1.21,13.9,13.9,0,0,1,1.77,3.71,29.14,29.14,0,0,0,1.5,3.8,6.75,6.75,0,0,0,2.8,2.85,9.89,9.89,0,0,0,3.86,1.2,9.72,9.72,0,0,1,4,.81c1.23.72,1.8,2.06,2.48,3.21a4.17,4.17,0,0,0,1.39,1.47,4.28,4.28,0,0,0,2,.53,4.31,4.31,0,0,1-2-.52,4,4,0,0,1-1.4-1.46c-.7-1.16-1.28-2.48-2.49-3.18a9.69,9.69,0,0,0-4-.77,9.77,9.77,0,0,1-3.91-1.18,6.92,6.92,0,0,1-2.88-2.89,29.05,29.05,0,0,1-1.54-3.8,13.78,13.78,0,0,0-1.76-3.64,3.25,3.25,0,0,0-1.59-1.13,4.51,4.51,0,0,0-2-.07,26.06,26.06,0,0,0-3.92,1.12,8.08,8.08,0,0,1-4.08.59,7.91,7.91,0,0,1-1.82-1q-.84-.6-1.65-1.23c-1.09-.83-2.15-1.69-3.22-2.54-2.13-1.71-4.25-3.43-6.42-5.07a62.09,62.09,0,0,0-6.75-4.58h0a.25.25,0,0,1-.09-.34.26.26,0,0,1,.34-.1Z" transform="translate(3.07 -238.86)"/><path class="cls-9" d="M649.17,359.12a15,15,0,0,0,1.62,4c.7,1.28,1.44,2.54,2.08,3.87a14.48,14.48,0,0,1,1.56,8.59,16.38,16.38,0,0,1-1.23,4.24c-.57,1.36-1.34,2.61-2,3.93a20.16,20.16,0,0,0-1.5,4.1,7.28,7.28,0,0,0,.1,4.31,7.43,7.43,0,0,1-.19-4.33,20.77,20.77,0,0,1,1.43-4.15c.59-1.35,1.34-2.61,1.89-4a16.44,16.44,0,0,0,1.16-4.18,14.09,14.09,0,0,0-1.63-8.38c-.64-1.3-1.39-2.55-2.11-3.83a15.42,15.42,0,0,1-1.72-4.09.25.25,0,0,1,.2-.3.25.25,0,0,1,.29.19Z" transform="translate(3.07 -238.86)"/><path class="cls-9" d="M652.07,348.37a8.1,8.1,0,0,1-2.32,3,36.32,36.32,0,0,1-2.94,2.34c-2,1.48-4.11,2.82-6.12,4.27-.5.37-1,.74-1.44,1.14a3.11,3.11,0,0,0-.58.64,8.79,8.79,0,0,0-.41.81,11.11,11.11,0,0,0-.85,3.55,37.52,37.52,0,0,0,.42,7.4,37.31,37.31,0,0,1,.26,7.47,22,22,0,0,1-1.58,7.29c-1,2.33-2.61,4.25-4,6.3a11.85,11.85,0,0,0-1.63,3.33,9.55,9.55,0,0,0-.28,3.69,9.62,9.62,0,0,1,.24-3.7,12.44,12.44,0,0,1,1.61-3.37c1.38-2.06,3-4,3.92-6.31a22.12,22.12,0,0,0,1.5-7.24,37.59,37.59,0,0,0-.34-7.42,38,38,0,0,1-.5-7.47,11.72,11.72,0,0,1,.84-3.68,8.62,8.62,0,0,1,.43-.86,3.7,3.7,0,0,1,.66-.75,17.94,17.94,0,0,1,1.47-1.17c2-1.47,4.11-2.82,6.11-4.3a35.62,35.62,0,0,0,2.88-2.32,7.68,7.68,0,0,0,2.17-2.82v0a.23.23,0,0,1,.31-.15.25.25,0,0,1,.16.31Z" transform="translate(3.07 -238.86)"/><path class="cls-9" d="M651.27,327.9c.29,1.77.76,3.52,1.1,5.31a12,12,0,0,1,0,5.49,8.93,8.93,0,0,1-1.13,2.52,14.53,14.53,0,0,1-6.19,5.31,57,57,0,0,1-10.36,3.36c-1.74.48-3.48,1-5.17,1.6a21.68,21.68,0,0,0-4.77,2.5,22.15,22.15,0,0,0-3.87,3.75c-1.14,1.4-2.18,2.88-3.2,4.38a44.48,44.48,0,0,1-3.28,4.34,12.2,12.2,0,0,1-4.29,3.31,11.43,11.43,0,0,1-5.33.88c-1.81-.1-3.6-.42-5.41-.47a7.06,7.06,0,0,0-2.66.37,4,4,0,0,0-2,1.72,12.76,12.76,0,0,0-1.42,5.19,12.76,12.76,0,0,1,1.4-5.21,4,4,0,0,1,2-1.74,7.1,7.1,0,0,1,2.67-.4c1.82.05,3.61.35,5.42.45a11.56,11.56,0,0,0,5.27-.9,12.36,12.36,0,0,0,4.23-3.3,44.53,44.53,0,0,0,3.23-4.35c1-1.5,2-3,3.19-4.41a23.06,23.06,0,0,1,3.89-3.82,22.46,22.46,0,0,1,4.82-2.55c1.7-.65,3.44-1.16,5.19-1.64a56.7,56.7,0,0,0,10.27-3.39,17.89,17.89,0,0,0,4.35-3.11,16.47,16.47,0,0,0,1.65-2.09,8.72,8.72,0,0,0,1.07-2.42,11.62,11.62,0,0,0,0-5.28c-.34-1.77-.83-3.52-1.13-5.32a.24.24,0,0,1,.2-.29.25.25,0,0,1,.29.2Z" transform="translate(3.07 -238.86)"/><path class="cls-9" d="M632.24,342.67a47.75,47.75,0,0,1,5.28-2.47l2.69-1.13a23,23,0,0,1,2.78-.89c1-.25,1.91-.43,2.87-.6.49-.06.95-.17,1.42-.27a3.81,3.81,0,0,0,1.31-.47,6.4,6.4,0,0,0,3-4.57.25.25,0,0,1,.28-.21.25.25,0,0,1,.21.29h0a6.81,6.81,0,0,1-3.29,4.81,4.21,4.21,0,0,1-1.41.48c-.49.09-1,.19-1.45.24-1,.14-1.91.31-2.86.53a35.16,35.16,0,0,0-5.48,1.89A49.62,49.62,0,0,0,632.24,342.67Z" transform="translate(3.07 -238.86)"/><path class="cls-9" d="M609.63,392.8c1.6-3.94,1.17-8.24,1.74-12.38a13.93,13.93,0,0,1,2-5.92,8.45,8.45,0,0,1,2.1-2.36c.83-.66,1.8-1.11,2.62-1.72A5.72,5.72,0,0,0,620,368c.4-.94.63-2,.95-3a52.22,52.22,0,0,1,2.13-5.92,20.34,20.34,0,0,1,3.3-5.39,12.57,12.57,0,0,1,2.5-2c.22-.14.43-.31.66-.43l.73-.34.72-.34a2.67,2.67,0,0,1,.8-.29.25.25,0,0,1,.28.21.24.24,0,0,1-.16.27l-.06,0a14,14,0,0,0-5.15,3.19,19.82,19.82,0,0,0-3.27,5.24,50.89,50.89,0,0,0-2.18,5.86,31,31,0,0,1-1,3,5.88,5.88,0,0,1-2,2.49c-.86.63-1.82,1.06-2.64,1.7a8.2,8.2,0,0,0-2.07,2.28,13.92,13.92,0,0,0-2.06,5.84C610.88,384.55,611.27,388.88,609.63,392.8Z" transform="translate(3.07 -238.86)"/><path class="cls-9" d="M651.9,327.39c2.15,5.61,2.3,11.65,3.73,17.35a12.78,12.78,0,0,0,1.72,4c.81,1.22,1.78,2.34,2.68,3.51a14.77,14.77,0,0,1,2.28,3.84,14.36,14.36,0,0,1,.8,4.39,14.61,14.61,0,0,0,.66,4.33,5.32,5.32,0,0,0,1.17,1.81,6.32,6.32,0,0,0,1.82,1.2A20.21,20.21,0,0,0,671,369a5.18,5.18,0,0,1,3.66,2.35,19.44,19.44,0,0,1,1.22,4.27,7.51,7.51,0,0,0,.79,2.05,3.55,3.55,0,0,0,1.63,1.41c.66.26,1.51.44,1.83,1.17a5.76,5.76,0,0,1,.38,2.18,8.52,8.52,0,0,0,.22,2.2,2.59,2.59,0,0,0,1.29,1.71,2.62,2.62,0,0,1-1.31-1.71,9,9,0,0,1-.24-2.2,5.47,5.47,0,0,0-.38-2.16c-.32-.71-1.14-.87-1.81-1.13a3.58,3.58,0,0,1-1.67-1.43,7.42,7.42,0,0,1-.83-2.07,19,19,0,0,0-1.23-4.23,5.08,5.08,0,0,0-3.59-2.26,20.29,20.29,0,0,1-4.29-1.14,6.83,6.83,0,0,1-1.88-1.22,5.65,5.65,0,0,1-1.24-1.88,15,15,0,0,1-.7-4.39,14.24,14.24,0,0,0-.81-4.31,14.75,14.75,0,0,0-2.26-3.74c-.91-1.16-1.89-2.28-2.73-3.52a13.16,13.16,0,0,1-1.79-4.1c-1.48-5.76-1.68-11.77-3.83-17.27a.25.25,0,0,1,.14-.33.26.26,0,0,1,.32.14Z" transform="translate(3.07 -238.86)"/><path class="cls-9" d="M652.88,332.57a21,21,0,0,1,1,7.72,15,15,0,0,1-2.55,7.34,22.94,22.94,0,0,1-5.46,5.53c-2.07,1.56-4.29,2.89-6.49,4.25-1.1.68-2.19,1.36-3.21,2.14a23.37,23.37,0,0,0-2.83,2.62c-1.75,1.89-3.31,3.95-4.88,6s-3.14,4.12-4.89,6a17.8,17.8,0,0,1-6.13,4.65,17.79,17.79,0,0,0,6.08-4.7c1.74-1.91,3.28-4,4.83-6.05s3.1-4.14,4.85-6.06a24.59,24.59,0,0,1,2.82-2.67c1-.79,2.13-1.49,3.22-2.18,2.19-1.37,4.4-2.71,6.44-4.28a22.41,22.41,0,0,0,5.33-5.49,14.43,14.43,0,0,0,2.43-7.15,20.38,20.38,0,0,0-1-7.54h0a.25.25,0,0,1,.16-.31.26.26,0,0,1,.32.16Z" transform="translate(3.07 -238.86)"/><path class="cls-61" d="M684,277.54c-5.36-4.37-8.55-1.77-9.76-.28l-.21.26c-.24.34-.37.57-.37.57s-12.47,2.07-1.39,12.1a18.59,18.59,0,0,0,15.62,4.72S688.66,281.35,684,277.54Z" transform="translate(3.07 -238.86)"/><path class="cls-61" d="M676,273c1.61,10.78,15.41,4.36,15.41,4.36,9.91-5.8,11.87-23.26,11.87-23.26-10.11-4.78-23,.34-23,.34-.6.32-1.16.65-1.68,1a59,59,0,0,0-9.37-16.54s-14.59,13.88-11.31,23.2a13.74,13.74,0,0,0,12.23,9.42h0c.37.16,1.48,1.16.43,3.1l1-.59c-.18-.61.37-1.67-.46-2.87a19.76,19.76,0,0,0,2.79-1.39,15.27,15.27,0,0,0,1.71,2.42" transform="translate(3.07 -238.86)"/><path class="cls-61" d="M669.68,276.26A5.55,5.55,0,0,1,674,279.6s-.32-3.12-4.27-4.24C668.41,275,669.68,276.26,669.68,276.26Z" transform="translate(3.07 -238.86)"/><path class="cls-61" d="M654.27,333.28c-.36-13.2-.93-38.56-.93-38.56,10.88-18.88,24.93-23,24.93-23l-.08-.48c-13.54,3-25.49,20.95-25.49,20.95-.48-9.46-1.48-13.54-1.48-13.54-.2-.21-.38-.43-.56-.65,1.07-1.22,2-3.76,1-4.49-2.15-1.6-2.39,1-2.35,2.86a38.79,38.79,0,0,1-6.64-14.09c.11-.94.68-2.31,2.4-4.11,4.9,5.86,5.62-3.73,5.62-3.73l.5-6.22s-4.59.47-6.93,2.58a10.18,10.18,0,0,0-.54-2.06c-2.31-6.43-9.78-9.52-9.78-9.52s-1.42,7.72-.47,13.14h-.33s-3.8.65-7.44,6.29c0,0,10.81,10.09,14.93,2a9.2,9.2,0,0,0,.65-1.59,26.4,26.4,0,0,0,.41,3.61,2.14,2.14,0,0,0,.06.35h0a37.45,37.45,0,0,0,6.72,14.8c1.67,4.07,2.39,19,2.65,35.64-8.7-12.87-13.49-19.78-20-22.73a17.43,17.43,0,0,0-.29-2.12c3,.16,10.78-.09,10.69-7.18A22.77,22.77,0,0,0,636,267s-13.42,6.15-12.49,13.63c-.63-3.9-3-8.33-10.65-8.39-13.65-.09-16,5.74-16,5.74s2.31,10.73,11.58,17a8.21,8.21,0,0,0,4.34,1.54c-2.46,5.8-.22,12.65-.22,12.65s8.5,6.75,16-3c7-9.17-.93-12.13-1.95-12.46a6.78,6.78,0,0,1,5.72-1.07c8,3.69,15.83,18.23,18.85,22.37v17.64S652.28,335.73,654.27,333.28Zm-12.92-77-.06-.16.07,0Zm.28-.27a4.41,4.41,0,0,0,1.56-1,8.4,8.4,0,0,0,1.19,2.22c.17.25.35.48.52.69a8.89,8.89,0,0,0-2.62,2.52A38.4,38.4,0,0,1,641.63,256Zm-15.3,37.33a6.73,6.73,0,0,0-4.66-3.37c.49-.81.88-1.57,1.17-2.16a15,15,0,0,1,7.36,3.47C629.64,290.84,628.09,291.56,626.33,293.3ZM623,287.52c.31-.65.46-1.06.46-1.06a17.62,17.62,0,0,0,.17-5.37c1.1,7,6.15,7.39,6.15,7.39l.44,0a3.26,3.26,0,0,0,.27,1.7C626.63,287.71,624.17,287.43,623,287.52Z" transform="translate(3.07 -238.86)"/><path class="cls-9" d="M446.35,329.45a13.89,13.89,0,0,0,1.13,4.08,8.19,8.19,0,0,0,2.76,3.12c1.16.82,2.44,1.51,3.66,2.27a42.15,42.15,0,0,1,3.57,2.49,28.28,28.28,0,0,1,6.12,6.14,16.14,16.14,0,0,1,2,3.88,42.19,42.19,0,0,1,1,4.22,5.74,5.74,0,0,0,2.15,3.54,10.11,10.11,0,0,0,4,1.43c1.42.26,2.86.43,4.26.78a6.34,6.34,0,0,1,3.68,2.2c.85,1.21,1.07,2.71,1.92,3.87A9.74,9.74,0,0,0,486,370l7.65,4-7.68-4a10,10,0,0,1-3.48-2.53c-.88-1.19-1.11-2.69-1.95-3.85a6.22,6.22,0,0,0-3.61-2.13c-1.4-.34-2.83-.49-4.26-.74a10.33,10.33,0,0,1-4.09-1.44,6,6,0,0,1-2.27-3.66,40.63,40.63,0,0,0-1-4.19,15.53,15.53,0,0,0-2-3.79,27.82,27.82,0,0,0-6.09-6,40.6,40.6,0,0,0-3.55-2.44c-1.22-.75-2.5-1.43-3.71-2.26a8.77,8.77,0,0,1-2.92-3.27,14.56,14.56,0,0,1-1.21-4.22.25.25,0,1,1,.49-.07Z" transform="translate(3.07 -238.86)"/><path class="cls-9" d="M445.65,330.7a9.78,9.78,0,0,1,.44,3.18,6.36,6.36,0,0,1-.83,3.12,4.67,4.67,0,0,1-2.52,2,15.48,15.48,0,0,1-3.12.6,33.64,33.64,0,0,0-6.11,1.33,44,44,0,0,0-5.79,2.37c-3.76,1.81-7.47,3.87-11.55,5a13.07,13.07,0,0,1-3.11.47,5.54,5.54,0,0,1-3-.69,8.93,8.93,0,0,0-2.78-1.42,12.08,12.08,0,0,0-3.12-.18,12.62,12.62,0,0,1,3.13.14,9.2,9.2,0,0,1,2.8,1.4,5.42,5.42,0,0,0,3,.66,13.47,13.47,0,0,0,3.08-.5c4.05-1.12,7.72-3.21,11.47-5.06a44.92,44.92,0,0,1,5.81-2.45,33.21,33.21,0,0,1,6.15-1.4,15.07,15.07,0,0,0,3-.61,4.29,4.29,0,0,0,2.29-1.85,7.63,7.63,0,0,0,.28-5.92h0a.25.25,0,0,1,.17-.31.25.25,0,0,1,.31.16Z" transform="translate(3.07 -238.86)"/><path class="cls-9" d="M448.38,343a12.34,12.34,0,0,1-1.9,5.72c-1,1.75-2.11,3.4-2.94,5.18a6.3,6.3,0,0,0-.08,5.6,16.73,16.73,0,0,0,3.77,4.51,29.71,29.71,0,0,1,3.93,4.52,14.37,14.37,0,0,1,2.23,5.53,21.64,21.64,0,0,1,.13,6,14.39,14.39,0,0,0,.09,5.92,14.57,14.57,0,0,1-.16-5.92,21.88,21.88,0,0,0-.2-5.94,14,14,0,0,0-2.26-5.44,29.11,29.11,0,0,0-3.95-4.43,17.07,17.07,0,0,1-3.89-4.56,6.69,6.69,0,0,1,0-5.92c.84-1.84,2-3.49,2.92-5.22a12.12,12.12,0,0,0,1.79-5.51.25.25,0,0,1,.5,0Z" transform="translate(3.07 -238.86)"/><path class="cls-9" d="M447.75,335.17a110.68,110.68,0,0,1,13.16,8.72c1.07.77,2.13,1.54,3.21,2.29a17,17,0,0,0,3.32,2,8.46,8.46,0,0,0,3.8-.44,37.05,37.05,0,0,1,3.83-1,6.7,6.7,0,0,1,2,0,3.33,3.33,0,0,1,1.79.9,10.08,10.08,0,0,1,2,3.44,26.74,26.74,0,0,0,1.6,3.58,6.6,6.6,0,0,0,2.89,2.54,10.7,10.7,0,0,0,3.77,1,11.35,11.35,0,0,1,3.87.68,4.37,4.37,0,0,1,1.49,1.28c.4.52.71,1.11,1.08,1.64a3.85,3.85,0,0,0,1.43,1.32,4.64,4.64,0,0,0,1.9.44,4.87,4.87,0,0,1-1.91-.42,3.88,3.88,0,0,1-1.44-1.32c-.38-.54-.69-1.12-1.1-1.63a4.34,4.34,0,0,0-1.48-1.25,11.12,11.12,0,0,0-3.85-.64,11,11,0,0,1-3.82-1,6.6,6.6,0,0,1-3-2.57,24.17,24.17,0,0,1-1.64-3.59,9.84,9.84,0,0,0-1.95-3.35,3.12,3.12,0,0,0-1.67-.83,6.2,6.2,0,0,0-1.92.05,34.36,34.36,0,0,0-3.8,1,8.61,8.61,0,0,1-3.94.47,17.47,17.47,0,0,1-3.45-2c-1.09-.75-2.15-1.51-3.23-2.28a111.58,111.58,0,0,0-13.16-8.58h0a.26.26,0,0,1-.11-.34.26.26,0,0,1,.34-.11Z" transform="translate(3.07 -238.86)"/><path class="cls-9" d="M443.17,358.54a12.55,12.55,0,0,0,1.61,3.52c.68,1.12,1.41,2.23,2.05,3.4a11.75,11.75,0,0,1,1.6,7.72,13.32,13.32,0,0,1-1.23,3.8c-.57,1.2-1.32,2.29-1.93,3.46a16.76,16.76,0,0,0-1.51,3.64,5.87,5.87,0,0,0,.09,3.88,5.93,5.93,0,0,1-.18-3.9,17.52,17.52,0,0,1,1.44-3.7c.59-1.19,1.32-2.3,1.87-3.49a13.35,13.35,0,0,0,1.16-3.73,11.39,11.39,0,0,0-1.66-7.49c-.64-1.14-1.38-2.23-2.08-3.36a12.81,12.81,0,0,1-1.72-3.64.25.25,0,0,1,.49-.12Z" transform="translate(3.07 -238.86)"/><path class="cls-9" d="M446.06,349a7,7,0,0,1-2.28,2.68,32.47,32.47,0,0,1-2.8,2c-1.91,1.26-3.89,2.4-5.81,3.61-.48.3-1,.61-1.42.94a3.91,3.91,0,0,0-1.18,1.1,8.18,8.18,0,0,0-1.09,3.13,24.79,24.79,0,0,0,.3,6.76c.15,1.14.3,2.27.36,3.42a30.19,30.19,0,0,1,0,3.43,18.24,18.24,0,0,1-1.57,6.66,30,30,0,0,1-4,5.57,10.58,10.58,0,0,0-1.66,3,7.53,7.53,0,0,0-.31,3.37,7.63,7.63,0,0,1,.27-3.39,10.63,10.63,0,0,1,1.64-3,29.69,29.69,0,0,0,3.89-5.6,18.28,18.28,0,0,0,1.48-6.6,32.32,32.32,0,0,0,0-3.41c-.07-1.13-.24-2.25-.4-3.38a25,25,0,0,1-.37-6.86,8.5,8.5,0,0,1,1.11-3.3,4.34,4.34,0,0,1,1.29-1.24c.46-.33.95-.64,1.43-.95,1.93-1.23,3.9-2.38,5.8-3.63.94-.63,1.88-1.28,2.75-2a6.86,6.86,0,0,0,2.11-2.47v0a.25.25,0,0,1,.32-.15.26.26,0,0,1,.15.33Z" transform="translate(3.07 -238.86)"/><path class="cls-9" d="M445.27,330.73c.31,1.68.83,3.33,1.16,5a9,9,0,0,1-.32,5.22,9.35,9.35,0,0,1-1.39,2.26,14.79,14.79,0,0,1-1.9,1.81,16.52,16.52,0,0,1-2.16,1.48c-.79.38-1.55.8-2.37,1.1a70.38,70.38,0,0,1-10,2.79c-1.68.4-3.35.85-5,1.39a22.71,22.71,0,0,0-4.65,2.19,22.2,22.2,0,0,0-3.88,3.37c-1.15,1.28-2.21,2.64-3.27,4a35.23,35.23,0,0,1-3.39,3.94,12.73,12.73,0,0,1-4.32,2.84,13.74,13.74,0,0,1-5.13.66c-1.73-.11-3.44-.36-5.16-.42a9.26,9.26,0,0,0-2.57.23,4.1,4.1,0,0,0-2.11,1.39,9.69,9.69,0,0,0-1.6,4.86A9.76,9.76,0,0,1,388.8,370a4.2,4.2,0,0,1,2.13-1.42,9.74,9.74,0,0,1,2.58-.25c1.73.06,3.44.3,5.17.39a13.67,13.67,0,0,0,5.08-.68,12.45,12.45,0,0,0,4.25-2.84,33.91,33.91,0,0,0,3.35-3.93c1.05-1.37,2.1-2.75,3.26-4a22.72,22.72,0,0,1,3.9-3.43,23.06,23.06,0,0,1,4.7-2.25c1.64-.55,3.31-1,5-1.43a71.47,71.47,0,0,0,9.94-2.82c.8-.3,1.55-.72,2.32-1.1a17.81,17.81,0,0,0,2.1-1.45A14.57,14.57,0,0,0,444.4,343a9.31,9.31,0,0,0,1.31-2.15,8.49,8.49,0,0,0,.26-5c-.33-1.67-.87-3.33-1.19-5.05a.25.25,0,0,1,.2-.29.26.26,0,0,1,.29.2Z" transform="translate(3.07 -238.86)"/><path class="cls-9" d="M426.24,343.9a52,52,0,0,1,5.23-2.19,40.57,40.57,0,0,1,5.39-1.8c.93-.21,1.86-.38,2.8-.53.47-.06.93-.14,1.39-.23a4.53,4.53,0,0,0,1.32-.36,5.67,5.67,0,0,0,3.2-4.16.24.24,0,0,1,.29-.2.25.25,0,0,1,.2.29h0a6.09,6.09,0,0,1-3.54,4.42,5.4,5.4,0,0,1-1.41.35c-.47.08-.94.15-1.41.2-.93.12-1.86.28-2.78.47a39.72,39.72,0,0,0-5.41,1.66A52.89,52.89,0,0,0,426.24,343.9Z" transform="translate(3.07 -238.86)"/><path class="cls-9" d="M403.63,388.55a16.6,16.6,0,0,0,1.27-5.6c.16-1.92.19-3.85.52-5.76a11.55,11.55,0,0,1,2.23-5.3,8.21,8.21,0,0,1,2.15-2c.82-.52,1.72-.9,2.48-1.45a5.15,5.15,0,0,0,1.75-2.17c.38-.86.63-1.8,1-2.71a42.32,42.32,0,0,1,2.22-5.36,16.57,16.57,0,0,1,3.39-4.72,14.25,14.25,0,0,1,5.16-2.81.23.23,0,0,1,.31.15.25.25,0,0,1-.16.31h0l-.1,0a14.42,14.42,0,0,0-4.92,2.64,16.06,16.06,0,0,0-3.35,4.58,40.26,40.26,0,0,0-2.25,5.28c-.33.91-.58,1.83-1,2.73a5.45,5.45,0,0,1-1.86,2.25c-.81.57-1.71.93-2.51,1.44a8,8,0,0,0-2.13,1.88,11.55,11.55,0,0,0-2.25,5.21c-.35,1.89-.4,3.83-.58,5.74A16.57,16.57,0,0,1,403.63,388.55Z" transform="translate(3.07 -238.86)"/><path class="cls-9" d="M445.9,330.27c2.19,5.1,2.31,10.7,3.85,15.87a10.48,10.48,0,0,0,1.87,3.52c.84,1.06,1.8,2,2.68,3.08a12.1,12.1,0,0,1,2.17,3.49,14.08,14.08,0,0,1,.67,4,8.73,8.73,0,0,0,.91,3.89,5.81,5.81,0,0,0,3.17,2.31,36.9,36.9,0,0,0,4,.9,5.14,5.14,0,0,1,3.47,2,15.88,15.88,0,0,1,1.24,3.89,5.91,5.91,0,0,0,.84,1.84,3.34,3.34,0,0,0,1.59,1.18c.62.23,1.38.34,1.77,1a4.3,4.3,0,0,1,.42,2,6.54,6.54,0,0,0,.23,2,2.34,2.34,0,0,0,1.28,1.5,2.4,2.4,0,0,1-1.3-1.5,6.87,6.87,0,0,1-.25-2,4.1,4.1,0,0,0-.42-2c-.37-.6-1.12-.71-1.75-.93a3.5,3.5,0,0,1-1.64-1.2,6,6,0,0,1-.86-1.85,15.66,15.66,0,0,0-1.26-3.85,5,5,0,0,0-3.39-2,37.59,37.59,0,0,1-4-.87,6,6,0,0,1-3.3-2.38,8.92,8.92,0,0,1-1-4,14,14,0,0,0-.68-4,12,12,0,0,0-2.15-3.39c-.88-1-1.84-2-2.7-3.06a10.78,10.78,0,0,1-2-3.63,74,74,0,0,1-1.74-8,37.73,37.73,0,0,0-2.21-7.79.25.25,0,0,1,.13-.33.25.25,0,0,1,.33.13Z" transform="translate(3.07 -238.86)"/><path class="cls-9" d="M446.87,334.88a16.74,16.74,0,0,1,1,7.25,12.79,12.79,0,0,1-2.89,6.68c-3.17,3.81-7.64,6.05-11.85,8.38a34.82,34.82,0,0,0-3.1,1.86,23.48,23.48,0,0,0-2.77,2.32c-1.74,1.68-3.31,3.53-4.88,5.37s-3.16,3.68-4.92,5.36a17.39,17.39,0,0,1-6,4,17.36,17.36,0,0,0,6-4.06c1.73-1.69,3.29-3.55,4.85-5.4s3.12-3.71,4.85-5.42a24.16,24.16,0,0,1,2.78-2.37c1-.7,2.05-1.3,3.1-1.9,2.12-1.19,4.25-2.33,6.26-3.67a23.59,23.59,0,0,0,5.43-4.72,12.43,12.43,0,0,0,2.74-6.49,16.14,16.14,0,0,0-1-7,.25.25,0,1,1,.47-.17Z" transform="translate(3.07 -238.86)"/><path class="cls-61" d="M479.7,278.68c-5.44-4.43-8.68-1.79-9.91-.28l-.21.27a4.92,4.92,0,0,0-.37.57s-12.67,2.1-1.42,12.28a18.88,18.88,0,0,0,15.85,4.8S484.43,282.55,479.7,278.68Z" transform="translate(3.07 -238.86)"/><path class="cls-61" d="M471.59,274.05c1.64,10.95,15.65,4.43,15.65,4.43,10.06-5.89,12.05-23.62,12.05-23.62-10.26-4.85-23.39.35-23.39.35-.61.33-1.17.66-1.7,1a60.37,60.37,0,0,0-9.51-16.8s-14.82,14.1-11.48,23.56a13.94,13.94,0,0,0,12.41,9.56h0c.38.16,1.5,1.18.43,3.15l1.05-.6c-.18-.63.38-1.7-.47-2.91a19.52,19.52,0,0,0,2.84-1.42,14.68,14.68,0,0,0,1.74,2.46" transform="translate(3.07 -238.86)"/><path class="cls-61" d="M465.17,277.39a5.63,5.63,0,0,1,4.34,3.38s-.33-3.16-4.34-4.3C463.88,276.1,465.17,277.39,465.17,277.39Z" transform="translate(3.07 -238.86)"/><path class="cls-61" d="M449.53,335.26c-.37-13.4-.95-39.14-.95-39.14,11.05-19.16,25.31-23.39,25.31-23.39l-.08-.48c-13.75,3-25.88,21.26-25.88,21.26-.48-9.6-1.5-13.74-1.5-13.74-.2-.22-.38-.44-.57-.66,1.09-1.24,2.06-3.82,1.05-4.56-2.18-1.62-2.43,1.05-2.39,2.91a39.63,39.63,0,0,1-6.74-14.31,7.77,7.77,0,0,1,2.44-4.17c5,5.94,5.71-3.78,5.71-3.78l.5-6.32s-4.65.48-7,2.62a11.23,11.23,0,0,0-.55-2.09c-2.35-6.54-9.93-9.67-9.93-9.67s-1.44,7.84-.48,13.34h-.33s-3.86.66-7.55,6.39c0,0,11,10.24,15.16,2.05a9.77,9.77,0,0,0,.65-1.62,27.28,27.28,0,0,0,.41,3.67c0,.12,0,.23.07.35h0a37.9,37.9,0,0,0,6.82,15c1.7,4.13,2.43,19.31,2.7,36.18-8.84-13.07-13.7-20.08-20.31-23.07a18.61,18.61,0,0,0-.3-2.17c3,.17,10.95-.08,10.85-7.28A23.13,23.13,0,0,0,431,268s-13.62,6.24-12.67,13.84c-.65-4-3.09-8.46-10.82-8.51-13.85-.1-16.2,5.81-16.2,5.81s2.35,10.9,11.76,17.26a8.23,8.23,0,0,0,4.41,1.57c-2.5,5.89-.23,12.84-.23,12.84s8.62,6.85,16.2-3.08c7.11-9.31-.95-12.32-2-12.66a6.89,6.89,0,0,1,5.81-1.08c8.13,3.75,16.06,18.51,19.13,22.71v17.91S447.51,337.75,449.53,335.26Zm-13.12-78.2a1.77,1.77,0,0,0-.06-.17l.08,0Zm.29-.28a4.31,4.31,0,0,0,1.58-1,8.59,8.59,0,0,0,1.2,2.25c.19.26.36.49.54.71a9,9,0,0,0-2.66,2.55A37.46,37.46,0,0,1,436.7,256.78Zm-15.53,37.9c-.5-.84-2.1-3.12-4.73-3.42.49-.82.89-1.59,1.18-2.2a15.32,15.32,0,0,1,7.47,3.53C424.53,292.19,423,292.91,421.17,294.68Zm-3.43-5.87c.31-.66.47-1.08.47-1.08a18.11,18.11,0,0,0,.17-5.45c1.11,7.13,6.24,7.5,6.24,7.5s.17,0,.45.05a3.17,3.17,0,0,0,.27,1.73C421.47,289,419,288.72,417.74,288.81Z" transform="translate(3.07 -238.86)"/><polygon class="cls-62" points="568.35 141.26 553.25 157.78 531.31 153.04 524.46 131.79 539.56 115.28 561.51 120.01 568.35 141.26"/><text class="cls-63" transform="matrix(0.97, 0.26, -0.27, 0.96, 538.54, 140.75)">C</text><polygon class="cls-62" points="356.43 127.15 349.13 148.31 327.12 152.68 312.39 135.9 319.68 114.74 341.7 110.37 356.43 127.15"/><text class="cls-63" transform="matrix(1, -0.14, 0.14, 0.99, 328.91, 138.54)">C</text><polygon class="cls-62" points="757.35 117.1 750.9 135.81 731.42 139.68 718.39 124.83 724.84 106.12 744.33 102.25 757.35 117.1"/><text class="cls-64" transform="matrix(1, -0.14, 0.14, 0.99, 733, 127.16)">C</text></g><g id="Layer_37" data-name="Layer 37"><rect class="cls-15" x="872.18" y="321.78" width="151.17" height="34.89"/><text class="cls-16" transform="translate(892.28 345.72)">calcification</text><path class="cls-65" d="M892,633.94a4.64,4.64,0,0,1,5.51-4,5.08,5.08,0,0,1,1.9.66l-.37,2.56a3.15,3.15,0,0,0-1.77-.81,2.36,2.36,0,1,0-.69,4.67,3,3,0,0,0,1.93-.27l-.37,2.58a5.33,5.33,0,0,1-2,.08A4.64,4.64,0,0,1,892,633.94Z" transform="translate(3.07 -238.86)"/><path class="cls-65" d="M906.69,634.07l-1,6.56-2.33-.34.11-.75a2.3,2.3,0,0,1-1.91.56c-1.8-.26-2.6-1.93-2.33-3.78s1.52-3.22,3.32-3a2.28,2.28,0,0,1,1.66,1.09l.11-.72Zm-2.84,3.09,0-.35a1.09,1.09,0,1,0-1.26,1.14A1.11,1.11,0,0,0,903.85,637.16Z" transform="translate(3.07 -238.86)"/><path class="cls-65" d="M907.65,636.23a4.65,4.65,0,0,1,5.51-4,5.15,5.15,0,0,1,1.9.66l-.38,2.56a3.12,3.12,0,0,0-1.77-.81,2.36,2.36,0,1,0-.68,4.67,3.1,3.1,0,0,0,1.93-.26l-.38,2.57a5.32,5.32,0,0,1-2,.08A4.63,4.63,0,0,1,907.65,636.23Z" transform="translate(3.07 -238.86)"/><path class="cls-65" d="M915.18,637.32a4.84,4.84,0,1,1,4.09,5.46A4.69,4.69,0,0,1,915.18,637.32Zm7.09,1a2.32,2.32,0,1,0-2.64,2A2.32,2.32,0,0,0,922.27,638.36Z" transform="translate(3.07 -238.86)"/><path class="cls-65" d="M928.21,642.55a1.5,1.5,0,0,1-1.8,1.2,1.67,1.67,0,0,1-1.45-1.38l1.21-.36a.54.54,0,0,0,.41.42.3.3,0,0,0,.35-.24.28.28,0,0,0-.26-.33.45.45,0,0,0-.2,0l-.54-.67.73-.51-1.2-.18.19-1.28,2.73.4-.16,1.12-.67.4A1.4,1.4,0,0,1,928.21,642.55Z" transform="translate(3.07 -238.86)"/><path class="cls-65" d="M958.35,658.86a4.64,4.64,0,0,1,4.31-5.3,5,5,0,0,1,2,.17l.28,2.57A3.12,3.12,0,0,0,963,656a2.36,2.36,0,1,0,.51,4.69,3,3,0,0,0,1.8-.74l.29,2.58a5.15,5.15,0,0,1-1.93.59A4.64,4.64,0,0,1,958.35,658.86Z" transform="translate(3.07 -238.86)"/><path class="cls-65" d="M972.6,655.29l.72,6.59-2.34.26-.09-.75a2.26,2.26,0,0,1-1.7,1c-1.8.2-3-1.22-3.2-3.08s.66-3.5,2.46-3.69a2.29,2.29,0,0,1,1.89.63l-.08-.72Zm-2,3.71,0-.35a1.12,1.12,0,0,0-1.19-.84,1.14,1.14,0,0,0,.25,2.26A1.11,1.11,0,0,0,970.63,659Z" transform="translate(3.07 -238.86)"/><path class="cls-65" d="M974.07,657.15a4.65,4.65,0,0,1,4.32-5.3,5,5,0,0,1,2,.17l.28,2.57a3.13,3.13,0,0,0-1.92-.34,2.36,2.36,0,1,0,.51,4.69,3.07,3.07,0,0,0,1.8-.74l.28,2.58a5,5,0,0,1-1.92.59A4.65,4.65,0,0,1,974.07,657.15Z" transform="translate(3.07 -238.86)"/><path class="cls-65" d="M981.64,656.31a4.84,4.84,0,1,1,5.33,4.26A4.69,4.69,0,0,1,981.64,656.31Zm7.12-.78a2.31,2.31,0,1,0-2,2.62A2.31,2.31,0,0,0,988.76,655.53Z" transform="translate(3.07 -238.86)"/><path class="cls-65" d="M995.56,658.1a1.47,1.47,0,0,1-1.44,1.61,1.64,1.64,0,0,1-1.74-1l1.07-.65a.55.55,0,0,0,.5.31.32.32,0,0,0,.29-.33.29.29,0,0,0-.34-.25.33.33,0,0,0-.19.06l-.7-.51.58-.68-1.2.13-.14-1.29,2.74-.3.13,1.13-.54.55A1.39,1.39,0,0,1,995.56,658.1Z" transform="translate(3.07 -238.86)"/><path class="cls-65" d="M1012.28,620.72a4.66,4.66,0,0,1,4.4-5.24,5,5,0,0,1,2,.2l.24,2.57a3.15,3.15,0,0,0-1.91-.36,2.36,2.36,0,1,0,.45,4.7,3.06,3.06,0,0,0,1.81-.72l.24,2.59a5.13,5.13,0,0,1-1.93.55A4.64,4.64,0,0,1,1012.28,620.72Z" transform="translate(3.07 -238.86)"/><path class="cls-65" d="M1026.59,617.35l.63,6.6-2.35.23-.08-.76a2.25,2.25,0,0,1-1.71,1c-1.81.18-3-1.26-3.16-3.12s.71-3.49,2.52-3.66a2.3,2.3,0,0,1,1.87.66l-.07-.72Zm-2,3.68,0-.35a1.09,1.09,0,1,0-.95,1.41A1.12,1.12,0,0,0,1024.57,621Z" transform="translate(3.07 -238.86)"/><path class="cls-65" d="M1028,619.23a4.66,4.66,0,0,1,4.4-5.24,5,5,0,0,1,2,.2l.24,2.57a3.15,3.15,0,0,0-1.91-.36,2.36,2.36,0,1,0,.45,4.69,3.06,3.06,0,0,0,1.81-.71l.24,2.58a5.13,5.13,0,0,1-1.93.56A4.64,4.64,0,0,1,1028,619.23Z" transform="translate(3.07 -238.86)"/><path class="cls-65" d="M1035.61,618.5a4.84,4.84,0,1,1,5.27,4.33A4.7,4.7,0,0,1,1035.61,618.5Zm7.13-.68a2.32,2.32,0,1,0-2.09,2.58A2.3,2.3,0,0,0,1042.74,617.82Z" transform="translate(3.07 -238.86)"/><path class="cls-65" d="M1049.5,620.48a1.47,1.47,0,0,1-1.46,1.59,1.65,1.65,0,0,1-1.73-1l1.09-.64a.54.54,0,0,0,.49.32.31.31,0,0,0,.29-.32.29.29,0,0,0-.33-.27.53.53,0,0,0-.19.06l-.69-.52.59-.67-1.2.12-.13-1.3,2.75-.26.11,1.14-.55.54A1.4,1.4,0,0,1,1049.5,620.48Z" transform="translate(3.07 -238.86)"/><circle class="cls-66" cx="908.22" cy="291.63" r="18.15"/><path class="cls-67" d="M911.79,516.7c1-1.25,2-2.6,3-3.81a2.91,2.91,0,0,0,.78-1.89,1,1,0,0,0-1.07-.87,1.26,1.26,0,0,0-1,1.56l-2.65-.42a3.67,3.67,0,0,1,3.33-3.88,3.49,3.49,0,0,1,4,2.93,4.74,4.74,0,0,1-1.34,3.56c-.29.42-.64.9-.94,1.34l2.75-.29.27,2.6-7,.72Z" transform="translate(3.07 -238.86)"/><path class="cls-67" d="M925.18,513.25l-2,.2.2,1.94-1.85.19-.2-1.94-1.87.2-.19-1.82,1.87-.19-.2-1.92,1.85-.19.2,1.92,2-.21Z" transform="translate(3.07 -238.86)"/><text class="cls-68" transform="translate(896.78 298.73) rotate(-7.44)"><tspan class="cls-69">C</tspan><tspan x="11.42" y="0">a</tspan></text><circle class="cls-70" cx="974.5" cy="294.01" r="18.22"/><text class="cls-71" transform="matrix(0.97, 0.26, -0.26, 0.97, 960.79, 296.36)"><tspan class="cls-72">C</tspan><tspan x="9.28" y="0">O3</tspan></text><path class="cls-73" d="M985.13,525.19l8.74,3.84-1.55,3.53-8.74-3.84Z" transform="translate(3.07 -238.86)"/><circle class="cls-74" cx="855.19" cy="395.54" r="2.94"/><circle class="cls-74" cx="944.55" cy="414.84" r="2.94"/><circle class="cls-74" cx="1005.54" cy="370.73" r="2.94"/><circle class="cls-74" cx="966.14" cy="397.65" r="2.94"/><circle class="cls-74" cx="930.8" cy="379.92" r="2.94"/><circle class="cls-74" cx="970.85" cy="368.96" r="2.94"/><circle class="cls-74" cx="889.79" cy="376.13" r="2.94"/><circle class="cls-74" cx="1005.38" cy="399.78" r="2.94"/><path class="cls-75" d="M1029.42,574.81s19.66-.59,20,19.88" transform="translate(3.07 -238.86)"/><polygon class="cls-9" points="1050.19 354.01 1052.47 355.06 1054.81 354.15 1052.34 359.55 1050.19 354.01"/><path class="cls-75" d="M858.42,573.81s-19.67-.59-20,19.88" transform="translate(3.07 -238.86)"/><polygon class="cls-9" points="839.16 353.15 841.5 354.06 843.77 353.01 841.63 358.55 839.16 353.15"/></g><g id="Layer_38" data-name="Layer 38"><rect class="cls-31" x="663.82" y="393.28" width="159.65" height="35.6"/><text class="cls-16" transform="translate(691.32 419.02)"><tspan class="cls-76">s</tspan><tspan x="8.43" y="0">alini</tspan><tspan class="cls-33" x="48.01" y="0">z</tspan><tspan x="56.58" y="0">ation</tspan></text><path class="cls-77" d="M750.83,510.65l-1.21.11.11,1.2-1.16.11-.11-1.21-1.16.11-.1-1.13,1.16-.11-.11-1.19,1.16-.11.1,1.2,1.22-.11Z" transform="translate(3.07 -238.86)"/><circle class="cls-78" cx="739.19" cy="284.24" r="13.29"/><text class="cls-79" transform="translate(729.96 288.64) rotate(-5.2)">M<tspan class="cls-80" x="10.63" y="0">g</tspan></text><path class="cls-81" d="M741.13,514.24c.76-1,1.58-2,2.29-2.88a2.28,2.28,0,0,0,.62-1.44.76.76,0,0,0-.81-.68,1,1,0,0,0-.77,1.19l-2-.35a2.83,2.83,0,0,1,2.59-2.94,2.68,2.68,0,0,1,3.05,2.29,3.58,3.58,0,0,1-1.06,2.7l-.73,1,2.1-.2.18,2-5.33.49Z" transform="translate(3.07 -238.86)"/><circle class="cls-66" cx="787.22" cy="316.63" r="18.15"/><path class="cls-67" d="M790.79,541.7c1-1.25,2-2.6,3-3.81a2.91,2.91,0,0,0,.78-1.89,1,1,0,0,0-1.07-.87,1.26,1.26,0,0,0-1,1.56l-2.65-.42a3.67,3.67,0,0,1,3.33-3.88,3.49,3.49,0,0,1,4,2.93,4.74,4.74,0,0,1-1.34,3.56c-.29.42-.64.9-.94,1.34l2.75-.29.27,2.6-7,.72Z" transform="translate(3.07 -238.86)"/><path class="cls-67" d="M804.18,538.25l-2,.2.2,1.94-1.85.19-.2-1.94-1.87.2-.19-1.82,1.87-.19-.2-1.92,1.85-.19.2,1.92,2-.21Z" transform="translate(3.07 -238.86)"/><text class="cls-68" transform="translate(775.78 323.73) rotate(-7.44)"><tspan class="cls-69">C</tspan><tspan x="11.42" y="0">a</tspan></text><line class="cls-18" x1="774.4" y1="344.41" x2="774.2" y2="361.67"/><polygon class="cls-9" points="771.45 359.53 774.22 360.74 777 359.59 774.15 366.14 771.45 359.53"/><line class="cls-18" x1="805.08" y1="337.11" x2="804.89" y2="354.37"/><polygon class="cls-9" points="802.13 352.23 804.9 353.44 807.69 352.29 804.84 358.85 802.13 352.23"/><line class="cls-18" x1="683.55" y1="352.6" x2="683.35" y2="369.86"/><polygon class="cls-9" points="680.6 367.72 683.37 368.93 686.15 367.78 683.3 374.34 680.6 367.72"/><line class="cls-18" x1="713.23" y1="359.31" x2="713.04" y2="376.56"/><polygon class="cls-9" points="710.28 374.42 713.05 375.63 715.84 374.49 712.99 381.04 710.28 374.42"/><circle class="cls-82" cx="699.19" cy="320.88" r="16.89"/><path class="cls-83" d="M710.65,545.81l-3.15.27.27,3.11-3,.25-.26-3.11-3,.25-.24-2.92,3-.25-.26-3.08,3-.26.27,3.09,3.14-.27Z" transform="translate(3.07 -238.86)"/><text class="cls-84" transform="matrix(1, -0.08, 0.08, 1, 688.65, 327.7)">N<tspan class="cls-85" x="12.25" y="0">a</tspan></text><circle class="cls-86" cx="786.42" cy="494.98" r="4.06"/><circle class="cls-43" cx="712.88" cy="508.78" r="4.06"/><circle class="cls-43" cx="759.88" cy="467.78" r="4.06"/><circle class="cls-87" cx="719.88" cy="445.78" r="4.06"/><circle class="cls-87" cx="834.88" cy="484.78" r="4.06"/><circle class="cls-88" cx="812.88" cy="451.78" r="4.06"/><circle class="cls-88" cx="752.88" cy="523.78" r="4.06"/><circle class="cls-88" cx="656.88" cy="453.78" r="4.06"/><circle class="cls-89" cx="698.88" cy="471.78" r="4.06"/><circle class="cls-86" cx="657.88" cy="500.78" r="4.06"/></g><g id="Layer_39" data-name="Layer 39"><path class="cls-90" d="M1178,754.9c-1.69-1.42-3.35-2.87-4.94-4.4a120.22,120.22,0,0,1-11.25-13.2c-2.75-3.57-5.55-7.2-7.15-11.42a18.58,18.58,0,0,1-1.23-7.1c.4-1.61.76-3.24,1.08-4.88.17-.37.35-.74.56-1.1l-.32-.14c.83-4.39,1.44-8.82,1.93-13.15,3.65-31.79,3.57-68.49-20-90.1-9-8.28-20.65-13.32-29.77-21.52l-5.5-6.72c-3.84-4.67-7.93-9.54-13.56-11.73-3-1.17-6.22-1.49-9.37-2.1a52.55,52.55,0,0,1-13.73-4.73c-1-.5-4.25-3.12-5.33-1.41-1,1.56,2.87,3.69,3.94,4.24a61.28,61.28,0,0,0,7.62,2.77,44.13,44.13,0,0,1,14.67,9.09c0,.17,0,.35,0,.53a7.7,7.7,0,0,0-1.06-1,26.06,26.06,0,0,0-7.48-4.21c-2.07-.75-10.82-3-7.73-.93,4.42,2.94,7.5,5.73,9,8a24.3,24.3,0,0,1,3.13,7.29,25.22,25.22,0,0,1-2.94,18.74,64.45,64.45,0,0,1-10.06,12.68c-2.67,1.59-5.39,3.08-8.06,4.6a247.92,247.92,0,0,0-28.54,19c-10.24,7.88-20.44,17.53-22.79,30.24-2.2,11.88,3,23.91,9.55,34.07,17.41,27.07,47,47.22,78.71,50q12.35,2.67,24.84,4.54c3,.45,6.15.89,8.88,2.3,4,2.07,6.64,5.95,9.64,9.3A48.4,48.4,0,0,0,1170.78,788c2.4.28,4.81.38,7.23.49Z" transform="translate(3.07 -238.86)"/><rect class="cls-15" x="951.75" y="560.45" width="159.65" height="35.65"/><text class="cls-16" transform="translate(976.3 585.5)">bi<tspan class="cls-17" x="17.87" y="0">o</tspan><tspan x="29.7" y="0">turbation</tspan></text><path class="cls-91" d="M1107.65,745.55c-1.91.29-1.67,1-3.59,1.26s-4,1.27-4.47,3.13a4.81,4.81,0,0,0,1.26,4.23,8.87,8.87,0,0,0,7.94,3,7,7,0,0,0,1.66-.44,5.93,5.93,0,0,0,3.37-6.69c-.66-2.64-3.09-4.78-5.8-4.52" transform="translate(3.07 -238.86)"/><path class="cls-91" d="M1168.87,758.61c-2.22,1-1.68,1.77-3.92,2.76s-4.36,2.92-4.34,5.23c0,1.83,1.4,3.37,3,4.34a11.73,11.73,0,0,0,10.7.49,9,9,0,0,0,1.86-1.12,7,7,0,0,0,1.76-8.86,7.19,7.19,0,0,0-8.61-3" transform="translate(3.07 -238.86)"/><path class="cls-91" d="M1086.17,744.39a5.24,5.24,0,0,0-3.86-2.82c-3.62-.55-9.85,2.67-9.73,6.84a4.84,4.84,0,0,0,2.44,3.68,8.91,8.91,0,0,0,8.48.57,6.87,6.87,0,0,0,1.46-.91A6,6,0,0,0,1086.17,744.39Z" transform="translate(3.07 -238.86)"/><path class="cls-91" d="M1137.3,769.69c1.26,1.7,1.81,1.11,3,2.84s3.25,3.18,5.25,2.74a5,5,0,0,0,3.28-3.34,10,10,0,0,0-1.32-9.18,8,8,0,0,0-1.28-1.38,6.15,6.15,0,0,0-9.15,8" transform="translate(3.07 -238.86)"/><path class="cls-91" d="M1115.32,747c-2.87,1.94-4.27,6.21-2.28,9a9.59,9.59,0,0,0,2,1.93c1.82,1.43,3.88,2.77,6.2,2.89a13,13,0,0,0,4.78-1,13.85,13.85,0,0,0,4.11-1.94A4.64,4.64,0,0,0,1132,754a6.82,6.82,0,0,0-.66-2,15,15,0,0,0-2.45-4.17C1125.8,744.43,1118.91,744.53,1115.32,747Z" transform="translate(3.07 -238.86)"/><path class="cls-91" d="M1148.11,752.85c-2.87,1.94-4.27,6.22-2.28,9a9.59,9.59,0,0,0,2,1.94c1.83,1.43,3.89,2.76,6.2,2.88a12.81,12.81,0,0,0,4.78-1,13.39,13.39,0,0,0,4.11-1.94,4.58,4.58,0,0,0,1.92-3.93,6.82,6.82,0,0,0-.66-2,14.91,14.91,0,0,0-2.45-4.17C1158.59,750.33,1151.69,750.42,1148.11,752.85Z" transform="translate(3.07 -238.86)"/><path class="cls-91" d="M1156.17,766.3c-3.57-.1-7.6,2.73-8,6.41a10.11,10.11,0,0,0,.21,2.91c.43,2.36,1.11,4.79,2.82,6.32a11.63,11.63,0,0,0,4.39,2.11,12.93,12.93,0,0,0,4.53.87,5.32,5.32,0,0,0,4.19-2.21,8.44,8.44,0,0,0,.87-2.14,17,17,0,0,0,1-5.12C1166,770.6,1160.63,766.41,1156.17,766.3Z" transform="translate(3.07 -238.86)"/><path class="cls-91" d="M1099.55,750.4a11,11,0,0,0-1.27-3.12,8.48,8.48,0,0,0-3-3.22,5.84,5.84,0,0,0-4.43-.46,5.9,5.9,0,0,0-2.7,1.74,14.88,14.88,0,0,0-.91,1.33,3.85,3.85,0,0,0-.53,1.76,7.64,7.64,0,0,0,.61,4.22,7.91,7.91,0,0,0,7.79,4.42,5.24,5.24,0,0,0,4-2.22A5.86,5.86,0,0,0,1099.55,750.4Z" transform="translate(3.07 -238.86)"/><path class="cls-91" d="M1130,762.5c1.5,2.5,3.34,1.1,6.14.56a7.64,7.64,0,0,0,5.74-5.75,9,9,0,0,0-2.19-7.89c-1.35-1.5-3.4-2.61-5.38-2.12a6.1,6.1,0,0,0-3.18,2.31c-2.71,3.47-3.52,8.44-1.55,12.31" transform="translate(3.07 -238.86)"/><path class="cls-91" d="M1179.18,780.24a14.94,14.94,0,0,0-3.23-5.51,12.73,12.73,0,0,0-3.31-2.59c-1.3-.7-3.27-.19-4.45.53a4.9,4.9,0,0,0-2,2.42,2.55,2.55,0,0,0-.21.81c0,.51-.17,1-.23,1.5a10.37,10.37,0,0,0,2.23,7.68,8.24,8.24,0,0,0,7.41,3.09,4.9,4.9,0,0,0,4.22-3.54A8.11,8.11,0,0,0,1179.18,780.24Z" transform="translate(3.07 -238.86)"/><path class="cls-91" d="M1116.49,734.5c-1.91.29-1.67,1-3.59,1.25s-4,1.28-4.47,3.14a4.81,4.81,0,0,0,1.26,4.23,8.87,8.87,0,0,0,7.94,3,6.9,6.9,0,0,0,1.66-.44,5.93,5.93,0,0,0,3.37-6.69c-.66-2.64-3.09-4.78-5.8-4.52" transform="translate(3.07 -238.86)"/><path class="cls-91" d="M1138.46,737.41a3.44,3.44,0,0,0-2.19-1.26,7.83,7.83,0,0,0-1.36.06q-.84,0-1.68.12a28.25,28.25,0,0,0-5,1c-.81.24-1.62.52-2.41.84-1.34.54-2.85,1.14-3.36,2.62s.55,3.35,1.85,4.48A12,12,0,0,0,1134,748c2.18-.37,4.39-1.52,5.29-3.54a7,7,0,0,0,.39-3.61A6.55,6.55,0,0,0,1138.46,737.41Z" transform="translate(3.07 -238.86)"/><path class="cls-91" d="M1097.63,746.62c1,2.45,3.1,1,5.69.55a6.92,6.92,0,0,0,5.26-5.27,8.37,8.37,0,0,0-2.07-7.31,5.4,5.4,0,0,0-5-2,5.52,5.52,0,0,0-2.92,2.12,10.94,10.94,0,0,0-1.09,11.44" transform="translate(3.07 -238.86)"/><path class="cls-91" d="M1152.28,746.69a10.57,10.57,0,0,0-1.91-2.55,11.14,11.14,0,0,0-1.7-1.36c-.6-.39-1.25-.66-1.84-1a2.54,2.54,0,0,0-1.73-.36,13.4,13.4,0,0,0-2.6.4,5.16,5.16,0,0,0-1.47.57,5.42,5.42,0,0,0-2,3.53,6.93,6.93,0,0,0,2.65,7,8.44,8.44,0,0,0,7.52,1.12c1.79-.58,3.51-1.89,3.86-3.73A5.53,5.53,0,0,0,1152.28,746.69Z" transform="translate(3.07 -238.86)"/><path class="cls-91" d="M1166.15,747.7a18.19,18.19,0,0,0,.38-2.06,4.75,4.75,0,0,0,0-2.31c-.71-2-3.34-2.66-5.13-3.17-2.36-.68-7.59-1.54-9.51.52a4.39,4.39,0,0,0-.55,4.37,10.71,10.71,0,0,0,6.71,6.55,8.6,8.6,0,0,0,1.86.41,5.77,5.77,0,0,0,6-3.42A7.69,7.69,0,0,0,1166.15,747.7Z" transform="translate(3.07 -238.86)"/><path class="cls-91" d="M1172.85,758c2.54-.41,3-2.11,3-4.32s-.28-4-2.25-4.76-4.77-.47-7.23.63c-1.76.79-3.49,2.13-3.92,3.6a2.91,2.91,0,0,0,.55,2.54c1.66,2.34,5.49,3.29,9.41,2.34" transform="translate(3.07 -238.86)"/><path class="cls-91" d="M1155.91,739.62c2.17-1.41,1.8-3.17.81-5.25s-2-3.63-4.23-3.57a9.65,9.65,0,0,0-6.43,3.5c-1.27,1.44-2.28,3.39-2,4.94a3.17,3.17,0,0,0,1.66,2.16c2.6,1.53,6.58.89,9.79-1.57" transform="translate(3.07 -238.86)"/><path class="cls-10" d="M1095.36,704.37a1.54,1.54,0,0,0,.05.17,15.31,15.31,0,0,0,2.11,4.22c.49.72,1,1.42,1.58,2.1a13.35,13.35,0,0,0,4.07,3.61,6.07,6.07,0,0,0,3.29.64,4.3,4.3,0,0,0,1.6-.48c.56-.29,1.13-.55,1.68-.87,2.77-1.63,5.06-4,8-5.39,1.47-.67,3-1,4.52-1.71a13.2,13.2,0,0,0,4.89-3.77,5.65,5.65,0,0,0,1.33-2.72,4.7,4.7,0,0,0-2.22-4.25,11.88,11.88,0,0,0-4.74-1.62,39.21,39.21,0,0,0-17.51.49c-2.53.73-5.78,1.85-7.73,3.72C1094.69,700,1094.81,702.44,1095.36,704.37Z" transform="translate(3.07 -238.86)"/><path class="cls-10" d="M1089.89,679.71a3.83,3.83,0,0,1-2.89,2.93,8.49,8.49,0,0,1-2.66,0,13.16,13.16,0,0,0-6.45.56c-1.62.67-3.55,2.83-2.45,4.72a2.51,2.51,0,0,0,1,.86c1.49.84,4.66,1.95,5.2-.61a4.42,4.42,0,0,1,.17-.82c.25-.55.58-.31,1-.22.58.13,1.2.15,1.78.25,2.26.41,4.58,1.7,6.89,1.7a7.61,7.61,0,0,0,4.65-2.13,6,6,0,0,0,1.77-2.12,5.36,5.36,0,0,0-.52-4.43,10.76,10.76,0,0,0-6.63-5.45c-1.08-.26-2.59-.47-2.35.91S1090.28,677.71,1089.89,679.71Z" transform="translate(3.07 -238.86)"/><path class="cls-10" d="M1094.46,720.61a17.79,17.79,0,0,0-3-.42,1.54,1.54,0,0,0-.43.06,8.32,8.32,0,0,1-1.13.11,7.69,7.69,0,0,0-2.42.56,4.09,4.09,0,0,0-2.41,2.6,1.6,1.6,0,0,0,0,.92,1.57,1.57,0,0,0,.38.61,3.34,3.34,0,0,0,1.77.85,4.56,4.56,0,0,0,1.73.17c1.64-.15,3.23-.67,4.85-1,3.68-.67,7.48-.14,11.19-.57a1.07,1.07,0,0,0,.61-.21c.39-.37,0-1-.34-1.41-1.62-1.68-2.39-2.22-4.66-2A26.85,26.85,0,0,1,1094.46,720.61Z" transform="translate(3.07 -238.86)"/><path class="cls-10" d="M1103.11,729.12a29.72,29.72,0,0,0-8.18-1.78c-2.4-.07-9.17.89-8.79,4.52.19,1.88,2.72,2,4.17,2,6,0,11.6-.41,17.58.82,1.11.23,2.21.5,3.3.79a7.46,7.46,0,0,0,2.51.41,2.35,2.35,0,0,0,2-1.31c.52-1.31-.66-2.62-1-4-.19-.68-.18-1.4-.41-2.07a4.52,4.52,0,0,0-3.61-2.62c-2-.37-4,.19-4.37,2.33-.08.46.24,1.31-.24,1.63S1103.64,729.29,1103.11,729.12Z" transform="translate(3.07 -238.86)"/><path class="cls-91" d="M1124.17,699.45c-5.4-.64-11.54,2.37-15.29,6.33a29.32,29.32,0,0,0-6.47,11.07c-1.44,4.45.46,8.42,3.25,11.94a2.15,2.15,0,0,0,.63.61,2.53,2.53,0,0,0,1.42.17,12.9,12.9,0,0,1,6.35,1.31l-1-1.89c4.46,4.67,11,6.31,17.26,5.49,5.83-.76,13.39-3.76,16.91-8.77a4.07,4.07,0,0,0,.61-1.12,118.94,118.94,0,0,0,4.15-15.25,36.64,36.64,0,0,0,.77-9.79,13.45,13.45,0,0,0-1.19-4.83c-.66-1.3-1.81-2.31-2.22-3.75s-.14-2.78-.54-4.15c-3.85-12.9-17.44-20.17-29.49-23.68-3-.89-6.18-1.68-8.86-3.43-2-1.34-3.45-3.41-5.23-5.08a16.61,16.61,0,0,0-13.36-4.32c-1.48.2-2.88.68-4.32,1l-1.53.33c-1,.23-2,.49-3,.77a47.71,47.71,0,0,0-10.25,4.13,2.62,2.62,0,0,0-1,.77,2.41,2.41,0,0,0-.31,1.24,9.26,9.26,0,0,0,1.11,5.18c.92,1.54,2.78,3.15,4.57,3.15a1.86,1.86,0,0,0,0,2.25,5.46,5.46,0,0,0,1.88,1.51l7.74,4.48a12.54,12.54,0,0,1,4,3.07c2,2.66,1.55,6.64-.47,9.3s-5.26,4.13-8.53,4.77a38.07,38.07,0,0,0-4.86,1c-2.41.82-5.06,3.2-4.06,6,.46,1.28,1.83,3.32,3.4,3.26s2-2,2.08-3.23c.18-1.71,1.55-2,3.07-1.91.33,0,1-.18,1.21.18.77,1.21,1,1.79,2.56,2.29,4.77,1.53,17.33,3.26,18.39-4.25,0,0,10.38,4.51,20.63,3.9" transform="translate(3.07 -238.86)"/><path class="cls-92" d="M1085.19,656.27a4.5,4.5,0,0,1,2.91-.3.56.56,0,0,1,.45.2.52.52,0,0,1,0,.48,3.27,3.27,0,0,1-1.52,1.67,2.32,2.32,0,0,1-2.37-.19C1083.65,657.52,1084.4,656.74,1085.19,656.27Z" transform="translate(3.07 -238.86)"/><path class="cls-92" d="M1072,656.88a3.4,3.4,0,0,0-.74,3.12,1.17,1.17,0,0,0,.39.66.52.52,0,0,0,.7-.09,1.12,1.12,0,0,0,.09-.37,2.25,2.25,0,0,1,.86-1.49c.28-.21.65-.42.64-.77s-.62-1-.8-1.29,0-.31-.4-.3S1072.14,656.71,1072,656.88Z" transform="translate(3.07 -238.86)"/><path class="cls-10" d="M1105.59,658.54l0-.58a3.67,3.67,0,0,1,2.16,2.78,5,5,0,0,1-.76,3.52,3.88,3.88,0,0,1-2.59,1.89,2.23,2.23,0,0,1-2.51-1.62,1,1,0,0,1,.16-.81.56.56,0,0,1,.75-.13l-.72-1.31a1.08,1.08,0,0,1,.66-.16c.17-.64-.94-.92-.73-1.55.3,0,.6,0,.9,0,0-.59,0-1,.51-1.44C1103.59,659,1105.61,658,1105.59,658.54Z" transform="translate(3.07 -238.86)"/><path class="cls-93" d="M1077.23,666.9a21.33,21.33,0,0,0,2.35.28,5.35,5.35,0,0,1,3.16,1.44" transform="translate(3.07 -238.86)"/><path class="cls-91" d="M1109.3,698.83l0-.5a13.42,13.42,0,0,0,5.6,1.52,2.4,2.4,0,0,0-.53-.71,16,16,0,0,0,8.87.92,3.28,3.28,0,0,0,2.08-1,.59.59,0,0,0,.14-.61.7.7,0,0,0-.41-.27,62.8,62.8,0,0,0-6.18-1.71,56.11,56.11,0,0,0-7.37-1.44c-1.9-.2-3.83-.2-5.72-.5-.57-.09-1.81-.38-2.16.3s.66,1.16,1.14,1.45c.76.48,1.54.94,2.33,1.37A13.52,13.52,0,0,1,1109.3,698.83Z" transform="translate(3.07 -238.86)"/><path class="cls-9" d="M1087.66,656.09a1.05,1.05,0,0,0-.52-.08.47.47,0,0,0-.21.06.21.21,0,0,0-.09.19c0,.13.21.15.34.14l.41,0a.32.32,0,0,0,.16,0,.16.16,0,0,0,.06-.19.17.17,0,0,0-.19-.09" transform="translate(3.07 -238.86)"/><path class="cls-90" d="M1114.72,335.64l-1.21,32.87c-.24,6.41-.44,13.07,1.86,19,5,12.93,18.84,17.69,27,27.67,9,11,14.22,30.95,5.33,43.88-4.31,6.26-10.38,10.34-15.81,15.29-9.86,9-24,22.39-13.76,36.57,7.41,10.23,15,14.6,26.69,18.91,7.94,2.93,23,13.73,12.58,23-4,3.54-8.72,2.26-13.15.59-16.6-6.27-32.84-14.38-43.91-28.77-7-9.11-9.82-19.47-7.83-30.8a47.48,47.48,0,0,1,12.15-23.71c5.65-6.09,15.36-10.51,18.2-18.74,2.74-7.93-2.27-16.37-7.09-21.91-5.52-6.34-13-11.69-17.67-18.73-5.27-7.93-7.18-19.17-7.78-28.71-.24-3.73.84-46.44,3.52-46.44Z" transform="translate(3.07 -238.86)"/><path class="cls-14" d="M1144.94,457.72s-8-6.68-19.45-.89c0,0,2.28-.45,3.43.44a7.2,7.2,0,0,0-1.15,4.9s2.06-7.57,8-5.34,7.33,11.13,7.33,11.13,0-5.79-1.61-8.9a12.15,12.15,0,0,1,2.52,3.56,8.08,8.08,0,0,0-1.37-4.9A3.63,3.63,0,0,1,1144.94,457.72Z" transform="translate(3.07 -238.86)"/><path class="cls-94" d="M1117.05,484.08c1-.51.74-.87,1.73-1.36a3.08,3.08,0,0,0,1.9-2.6,2.78,2.78,0,0,0-1.37-2.16,4.78,4.78,0,0,0-4.77-.26,4.1,4.1,0,0,0-.82.56,3.72,3.72,0,0,0-.73,4.41,3.1,3.1,0,0,0,3.86,1.48" transform="translate(3.07 -238.86)"/><path class="cls-94" d="M1102.64,493.76c.7,1.79,2.72,3,4.35,2.22a4.54,4.54,0,0,0,1.17-.89,6.37,6.37,0,0,0,2.07-3.1,12,12,0,0,0-.61-5.21,2.38,2.38,0,0,0-1.79-1.48,3.28,3.28,0,0,0-1.08.15,7.41,7.41,0,0,0-2.35.91C1102.39,487.72,1101.76,491.53,1102.64,493.76Z" transform="translate(3.07 -238.86)"/><path class="cls-94" d="M1108.83,476.33c.7,1.79,2.72,3,4.35,2.22a4.78,4.78,0,0,0,1.18-.88,6.38,6.38,0,0,0,2.06-3.11,7.89,7.89,0,0,0,0-2.74,8.24,8.24,0,0,0-.57-2.47,2.4,2.4,0,0,0-1.8-1.47,3.1,3.1,0,0,0-1.08.15,7.39,7.39,0,0,0-2.35.9C1108.58,470.29,1108,474.1,1108.83,476.33Z" transform="translate(3.07 -238.86)"/><path class="cls-94" d="M1115.5,471.18c-.16,2.26,1.39,5.44,3.56,6.5a6,6,0,0,0,1.72.49c1.41.24,2.87.33,3.82-.43a5.31,5.31,0,0,0,1.38-2.34,7.49,7.49,0,0,0,.65-2.7,4.85,4.85,0,0,0-1.19-3.16,6.48,6.48,0,0,0-1.23-1,12.81,12.81,0,0,0-3-1.73C1118.34,465.81,1115.7,468.36,1115.5,471.18Z" transform="translate(3.07 -238.86)"/><path class="cls-94" d="M1111.93,487.35c1.41-.56.89-1.72.89-3.33a4.14,4.14,0,0,0-6.55-3.41,3.29,3.29,0,0,0-1.6,2.74,3.54,3.54,0,0,0,.86,2,5.8,5.8,0,0,0,6.07,2.17" transform="translate(3.07 -238.86)"/><path class="cls-94" d="M1099,483.7a4.86,4.86,0,0,0,.11,2.11c.2,1.29.1,2.78,1,3.35a2.08,2.08,0,0,0,2.3-.33,6.9,6.9,0,0,0,2.59-4.9,5.52,5.52,0,0,0,0-1.15c-.18-1.8-1.49-3.17-2.91-3s-2.76-.36-3.06,2.3" transform="translate(3.07 -238.86)"/><path class="cls-94" d="M1102.18,478.52c-.32,1.43,1,1.48,2.23,2.09a3.34,3.34,0,0,0,3.78-.71,4.93,4.93,0,0,0,1.3-4,3,3,0,0,0-1.5-2.53,2.65,2.65,0,0,0-1.86,0,6,6,0,0,0-3.86,4.89" transform="translate(3.07 -238.86)"/><path class="cls-94" d="M1095.69,488.62c-1.14.57-.63,1.5-.53,2.83a3.52,3.52,0,0,0,2.18,3,3.61,3.61,0,0,0,3.47-.6,2.74,2.74,0,0,0,1.16-2.39,2.85,2.85,0,0,0-.83-1.6,4.77,4.77,0,0,0-5.18-1.36" transform="translate(3.07 -238.86)"/><path class="cls-94" d="M1111.73,484.46c-1.14.57-.63,1.5-.53,2.83a3.52,3.52,0,0,0,2.18,3,3.61,3.61,0,0,0,3.47-.6,2.74,2.74,0,0,0,1.16-2.39,2.85,2.85,0,0,0-.83-1.6,4.78,4.78,0,0,0-5.18-1.36" transform="translate(3.07 -238.86)"/><path class="cls-95" d="M1133.94,420.55c-1.16-1.07-2.3-2.16-3.47-3.2-.93-.82-1.88-1.6-2.85-2.35-2.15-1.65-4.33-3.25-6.47-4.92-.88-.68-1.7-1.45-2.53-2.21-1-.92-2-1.84-2.95-2.82-6.88-7.08-9.49-17.11-9.44-27.19q.06-9.72,1.07-19.38a10.08,10.08,0,0,0-.24-4.74,4.22,4.22,0,0,0-3.79-2.69c-2.84,0-3.41,4.25-3.83,6.64a125.38,125.38,0,0,0-.7,36.85,30.64,30.64,0,0,0,8.55,18,41.42,41.42,0,0,0,6.38,5.25c1.41.93,2.86,1.78,4.25,2.74,1.72,1.17,3.42,2.37,5.08,3.63,1.08.82,2.09,1.75,3.11,2.65.33.29.63.62.94.93.08-.19.15-.38.24-.56a13.91,13.91,0,0,1,4.64-5.34C1132.61,421.45,1133.27,421,1133.94,420.55Z" transform="translate(3.07 -238.86)"/><path class="cls-96" d="M1133.94,420.55c-.67.44-1.33.9-2,1.33a13.91,13.91,0,0,0-4.64,5.34c-.09.18-.16.37-.24.56a2.66,2.66,0,0,0,.34,3,18.17,18.17,0,0,1,2.75,6.67q.64,2.72,1.17,5.47a10.56,10.56,0,0,1,.16,2.25,2.93,2.93,0,0,0,1,2.23,5,5,0,0,0,.55.39,12.18,12.18,0,0,0,6.46,1.17,15.48,15.48,0,0,0,2-.44,4.67,4.67,0,0,0,1-.73,4.14,4.14,0,0,0,.89-1.52,30.84,30.84,0,0,0,.78-9.34,21.85,21.85,0,0,0-1.72-6.55,29.56,29.56,0,0,0-6.77-9.79,1.14,1.14,0,0,0-1.25-.17A2.76,2.76,0,0,0,1133.94,420.55Z" transform="translate(3.07 -238.86)"/><path class="cls-95" d="M1141.44,448.47a15.48,15.48,0,0,1-2,.44,12.18,12.18,0,0,1-6.46-1.17,5,5,0,0,1-.55-.39c-.17,2.21-.4,4.41-.47,6.62a4.57,4.57,0,0,0,1.59,3.79,3.74,3.74,0,0,0,4.37,0,7.35,7.35,0,0,0,2.68-4A27.05,27.05,0,0,0,1141.44,448.47Z" transform="translate(3.07 -238.86)"/><g class="cls-97"><path class="cls-98" d="M1026.56,321.19c-13,15.6-7.45,39.66,3.51,56.75s26.58,31.37,34.23,50.19c3.59,8.84,4.9,19.93-1.37,27.12-6.46,7.41-19.15,8.51-23.15,17.48-6.23,13.95,15.43,27.39,12.44,42.38-1.17,5.85-6,10.32-8,15.92-4.72,12.83,6.1,26.25,17.82,33.3,9,5.41,19.35,8.57,27,16.16,10.92,10.9,16.45,30,17.87,45" transform="translate(3.07 -238.86)"/></g></g></g></g></svg>