<svg xmlns="http://www.w3.org/2000/svg" viewBox="0 0 1469 588.4992"><defs><style>.cls-1{font-size:34.3409px;fill:#5d5152;}.cls-1,.cls-10,.cls-26,.cls-27,.cls-34,.cls-5{font-family:Acre-Thin, Acre;font-weight:200;}.cls-2{letter-spacing:-0.02em;}.cls-3{letter-spacing:-0.02em;}.cls-4{letter-spacing:-0.01em;}.cls-5{font-size:38.897px;}.cls-10,.cls-5{fill:#5b5052;}.cls-6{letter-spacing:-0.07em;}.cls-7{letter-spacing:-0.02em;}.cls-8{letter-spacing:-0.02em;}.cls-9{letter-spacing:-0.01em;}.cls-10{font-size:30.8099px;}.cls-11{letter-spacing:-0.02em;}.cls-12{letter-spacing:-0.04em;}.cls-13{letter-spacing:-0.02em;}.cls-14{letter-spacing:-0.01em;}.cls-15{fill:gray;}.cls-16{fill:#ecb100;}.cls-17{fill:#009186;}.cls-18{fill:#ff6831;}.cls-19{fill:#7d5840;}.cls-20{fill:#875935;}.cls-21{fill:#8a837f;}.cls-22{fill:#8e7f80;}.cls-23{fill:#7c4e45;}.cls-24,.cls-32,.cls-33,.cls-37{fill:none;stroke-miterlimit:10;}.cls-24,.cls-37{stroke:#ec6a7c;}.cls-24{stroke-width:1.8276px;}.cls-25{fill:#ec6a7c;}.cls-26{font-size:59.6686px;}.cls-26,.cls-27,.cls-34{fill:#fff;}.cls-27{font-size:40.4011px;}.cls-28{fill:#e2627b;}.cls-29{fill:#0d628a;}.cls-30{fill:#5f4f52;}.cls-31{fill:#096e9e;}.cls-32{stroke:#5f4f52;stroke-linecap:round;stroke-width:1.4438px;}.cls-33{stroke:#009186;stroke-width:2.1657px;}.cls-34{font-size:34.9013px;}.cls-35{letter-spacing:-0.02em;}.cls-36{letter-spacing:-0.02em;}.cls-37{stroke-width:1.9044px;}.cls-38{fill:#009085;}</style></defs><g id="Layer_2" data-name="Layer 2"><g id="Layer_82" data-name="Layer 82"><text class="cls-1" transform="translate(535.489 424.6996)">e<tspan class="cls-2" x="19.4707" y="0">n</tspan><tspan x="38.3235" y="0">e</tspan><tspan class="cls-3" x="57.7942" y="0">r</tspan><tspan x="67.0664" y="0">g</tspan><tspan class="cls-2" x="88.2544" y="0">y</tspan><tspan x="103.948" y="0" xml:space="preserve"> fl</tspan><tspan class="cls-4" x="132.3132" y="0">o</tspan><tspan class="cls-3" x="152.78" y="0">w</tspan><tspan x="178.6045" y="0"> </tspan><tspan x="-8.8765" y="41.209">th</tspan><tspan class="cls-2" x="19.5916" y="41.209">r</tspan><tspan x="28.8635" y="41.209">ough ti</tspan><tspan class="cls-3" x="138.9924" y="41.209">m</tspan><tspan x="168.0107" y="41.209">e</tspan></text><text class="cls-5" transform="translate(144.6045 33.0619)">biolog<tspan class="cls-6" x="112.7209" y="0">y</tspan><tspan x="128.552" y="0">, cli</tspan><tspan class="cls-7" x="186.6619" y="0">m</tspan><tspan x="219.5298" y="0">a</tspan><tspan class="cls-7" x="243.5288" y="0">t</tspan><tspan x="252.8643" y="0">e, </tspan><tspan class="cls-7" x="39.1865" y="46.6763">t</tspan><tspan x="48.522" y="46.6763">opog</tspan><tspan class="cls-8" x="143.6235" y="46.6763">r</tspan><tspan x="154.126" y="46.6763">ap</tspan><tspan class="cls-9" x="202.0854" y="46.6763">h</tspan><tspan class="cls-8" x="223.8284" y="46.6763">y</tspan></text><text class="cls-10" transform="translate(1153.9524 377.8368)">cla<tspan class="cls-11" x="42.3315" y="0">y</tspan><tspan x="56.4119" y="0" xml:space="preserve"> or mi</tspan><tspan class="cls-11" x="139.5042" y="0">n</tspan><tspan x="156.4187" y="0">e</tspan><tspan class="cls-11" x="173.8875" y="0">r</tspan><tspan x="182.2063" y="0">al</tspan><tspan x="0" y="36.9722">build</tspan><tspan class="cls-12" x="69.4744" y="36.9722">-</tspan><tspan x="81.2439" y="36.9722">up</tspan></text><text class="cls-10" transform="translate(1156.636 179.703)">o<tspan class="cls-13" x="18.6704" y="0">r</tspan><tspan x="26.989" y="0">ganic </tspan><tspan class="cls-13" x="117.26" y="0">m</tspan><tspan x="143.2942" y="0">at</tspan><tspan class="cls-11" x="170.314" y="0">t</tspan><tspan x="177.7087" y="0">er </tspan><tspan x="0" y="36.9722">build</tspan><tspan class="cls-12" x="69.4744" y="36.9722">-</tspan><tspan x="81.2439" y="36.9722">up</tspan><tspan x="0" y="103.9438">leachi</tspan><tspan class="cls-13" x="84.6016" y="103.9438">n</tspan><tspan x="101.5159" y="103.9438">g </tspan><tspan class="cls-14" x="131.3083" y="103.9438">o</tspan><tspan x="149.6709" y="103.9438">f </tspan><tspan class="cls-11" x="0" y="140.9155">m</tspan><tspan x="26.0344" y="140.9155">obile ele</tspan><tspan class="cls-13" x="147.4836" y="140.9155">m</tspan><tspan x="173.5178" y="140.9155">en</tspan><tspan class="cls-14" x="208.5168" y="140.9155">t</tspan><tspan x="216.2195" y="140.9155">s</tspan></text><text class="cls-10" transform="translate(1150.9575 494.4901)">little<tspan x="0" y="36.9722">c</tspan><tspan class="cls-13" x="16.6677" y="36.9722">h</tspan><tspan x="33.582" y="36.9722">a</tspan><tspan class="cls-11" x="52.5913" y="36.9722">n</tspan><tspan x="69.5059" y="36.9722">ge</tspan></text><path class="cls-15" d="M1059.0518,445.8273c-11.1061-5.304-21.73-14.0845-33.4661-14.3917-17.6254-.4613-32.3975,18.0231-49.3407,24.8135-16.5337,6.626-33.2319,1.77-50.1-4.6615-11.4469-4.3646-22.9724-9.4412-34.5782-12.1666V588.4992c13.6974-1.4029,27.3942-2.7236,41.092-3.8312,35.3675-2.86,70.7412-4.3145,106.1419-2.191,25.9776,1.5583,55.4264,2.5014,80.6076-6.0961v-136.54C1100.6348,452.1413,1078.7223,455.2214,1059.0518,445.8273Z"/><path class="cls-16" d="M239.3212,187.0978A23.3243,23.3243,0,1,1,262.01,163.1552,23.3249,23.3249,0,0,1,239.3212,187.0978Z"/><polygon class="cls-16" points="234.665 136.52 238.462 129.517 242.628 136.306 234.665 136.52"/><polygon class="cls-16" points="219.411 144.095 218.366 136.198 225.727 139.241 219.411 144.095"/><polygon class="cls-16" points="211.522 159.189 206.035 153.415 213.779 151.55 211.522 159.189"/><polygon class="cls-16" points="214.012 176.038 206.179 174.591 211.347 168.531 214.012 176.038"/><polygon class="cls-16" points="225.93 188.205 218.742 191.639 219.361 183.698 225.93 188.205"/><polygon class="cls-16" points="242.723 191.044 238.926 198.047 234.76 191.258 242.723 191.044"/><polygon class="cls-16" points="257.978 183.469 259.022 191.366 251.661 188.323 257.978 183.469"/><polygon class="cls-16" points="265.867 168.374 271.353 174.15 263.61 176.014 265.867 168.374"/><polygon class="cls-16" points="263.376 151.525 271.21 152.973 266.041 159.033 263.376 151.525"/><polygon class="cls-16" points="251.458 139.358 258.647 135.925 258.027 143.866 251.458 139.358"/><path class="cls-17" d="M1083.6857,85.2269c3.1929,14.9591-.8571,30.4706-.2451,45.7544.37,9.2334,2.4391,18.434,1.6853,27.6351,2.7269-.1814,5.4589-.4377,8.1934-.7426A350.1147,350.1147,0,0,0,1083.6857,85.2269Z"/><path class="cls-17" d="M1063.8653,105.382c3.1933,14.9591-.8571,30.47-.2451,45.7544.092,2.2956.29,4.589.5234,6.881a81.2457,81.2457,0,0,0,8.3038.7858A350.0662,350.0662,0,0,0,1063.8653,105.382Z"/><path class="cls-17" d="M1007.3377,104.4956c1.417,7.2727,2.8415,14.64,2.3888,22.0359a83.1152,83.1152,0,0,1-1.4943,10.3722,70.3326,70.3326,0,0,1,10.2869,3.19A57.0737,57.0737,0,0,0,1007.3377,104.4956Z"/><path class="cls-17" d="M1112.23,151.3648c-.8481-5.699-2.3272-11.3152-2.6795-17.0662-.4522-7.3956.9719-14.7631,2.3893-22.0359a57.0693,57.0693,0,0,0-11.1747,36.0013,76.7334,76.7334,0,0,0,.88,8.5635c3.6949-.5039,7.3865-1.0422,11.0657-1.5474C1112.5746,153.9724,1112.4229,152.6664,1112.23,151.3648Z"/><path class="cls-17" d="M1040.9246,128.4934c-.8477-5.699-2.3268-11.3152-2.679-17.0661-.4523-7.3957.9719-14.7633,2.3893-22.036a57.0692,57.0692,0,0,0-11.1748,36.0013c.2755,7.0947,1.8769,14.0511,3.0682,21.0575,3.3446,1.6393,6.6906,3.292,10.0764,4.8245C1042.0661,143.6753,1042.0462,136.0276,1040.9246,128.4934Z"/><path class="cls-17" d="M954.531,144.1246a350.0732,350.0732,0,0,0-9.6644-73.6254c3.1933,14.9591-.8571,30.4706-.2446,45.7544.3764,9.3979,2.52,18.7619,1.6493,28.1269-.15,1.6119-.39,3.211-.6727,4.8044q4.4983-1.4622,8.9779-3.02Q954.5544,145.1444,954.531,144.1246Z"/><path class="cls-17" d="M990.932,125.2053A57.0692,57.0692,0,0,0,979.7572,89.204c1.4175,7.2726,2.8416,14.64,2.3893,22.0359-.3522,5.7509-1.8313,11.3672-2.6794,17.0661-.494,3.3218-.769,6.6662-.9728,10.0184a85.787,85.787,0,0,1,11.1743-2.1737A85.5288,85.5288,0,0,0,990.932,125.2053Z"/><path class="cls-17" d="M907.0538,154.9792a57.0686,57.0686,0,0,0-11.1748-36.0013c1.4175,7.2727,2.8416,14.64,2.3893,22.0359-.3522,5.751-1.8313,11.3672-2.6794,17.0661-.9951,6.6884-1.1207,13.4663-1.5128,20.22q4.9572-1.0451,9.8963-2.1864C905.1646,169.0811,906.7774,162.1,907.0538,154.9792Z"/><path class="cls-17" d="M931.4613,155.0019a57.0684,57.0684,0,0,0-11.1748-36.0013c1.4175,7.2727,2.8416,14.64,2.3893,22.0359-.3522,5.751-1.8313,11.3671-2.6789,17.0661-.7078,4.7552-.9738,9.556-1.2094,14.3611q5.4045-1.4194,10.7846-2.9624A102.8183,102.8183,0,0,0,931.4613,155.0019Z"/><path class="cls-15" d="M366.8788,256.3653q-3.825-.787-7.6341-1.8392c-19.6748-5.3949-38.55-12.8293-57.9848-.4267-15.5258,9.9079-31.7879,9.1173-47.75,7.2749-8.191-.9455-16.3788-2.2165-24.5825-2.4433-1.9708-.0545-20.5739-1.2446-20.8949,3.3043-1.0354,14.675.4989,27.1112,1.1445,41.2119.7471,16.3155.3227,33.3763.5132,49.7864.3687,31.76.7539,63.5233.7539,95.2966,0,44.9-9.0624,89.6754-6.1612,134.5983-.0717-1.109,32.3073-6.1889,35.59-6.6889,32.1947-4.9038,64.4157-4.3794,96.8513-3.4256,26.3772.7758,55.1372,3.5092,80.472-5.5257l-1.4133-81.92V365.8666c0-33.5975,2.7634-71.9438-.9106-104.7056-8.4961-3.4-11.8668-4.6479-20.4959-3.4776A81.5288,81.5288,0,0,1,366.8788,256.3653Z"/><path class="cls-18" d="M983.903,326.4775c-18.3137-4.9534-42.3505-1.2383-64.0981-9.9068-8.427-3.3589-18.5662-14.1556-27.4707-14.86l-.44,142.614c11.6057,2.1127,23.1313,6.0482,34.5782,9.4317,16.8679,4.9859,33.5661,8.75,50.1,3.6136,16.9433-5.264,31.7153-19.5934,49.3408-19.2358,11.7361.2382,22.36,7.045,33.466,11.1567,19.6706,7.2825,41.5831,4.8947,60.3567-4.641v-49.238l.3763-89.9861c-1.5782,1.0292-29.76,4.9534-35.4829,9.9068C1049.8627,345.423,1007.09,332.7489,983.903,326.4775ZM939.6566,426.9133c-.9942,1.3953-2.3073,2.0615-3.4807,3.1509-2.7908,2.5916-4.7165,5.7746-8.3806,7.05-.13.0451-.2612.0878-.3958.1281-2.6012.78-7.6283-2.0309-9.115-4.5644-1.33-2.2667-.9135-5.6921-.8467-8.2362.0432-1.6453-.5594-4.3456.1228-5.8259,1.7266-3.7474,7.5463-1.4606,10.2556-.838,1.8067.4151,3.6086.8848,5.402,1.3873l.0583,0-.0185.0106c1.921.5388,3.8324,1.1156,5.7282,1.7122C942.0767,421.8607,941.4163,424.4439,939.6566,426.9133ZM965.25,415.1445c-1.7128,3.7305-4.936,5.6611-8.7011,6.3575-2.0626.3814-2.9951-.9029-4.1732-2.7293A12.4711,12.4711,0,0,1,951,407.5547c2.0447-4.9866,8.48-7.7881,12.48-4.4664C966.7136,405.7744,967.0635,411.1937,965.25,415.1445Zm29.0444,23.3892a2.5036,2.5036,0,0,1-.1716.6574,1.6743,1.6743,0,0,1-.5575.6222,5.2659,5.2659,0,0,1-3.2076.7151c-3.6555-.0449-7.09-1.1032-10.686-1.558-2.7662-.35-4.5852-.0736-6.8859-2.1862-2.4509-2.2512-3.6783-5.036-2.3751-7.6236.6671-1.3252,4.5416-1.17,5.9126-1.382.3243-.05,3.3953-.0281,3.4029-.0656.4651-2.24-1.08-4.6107,1.4407-5.61.274-.1087,3.7115-.7107,4.0272-.7373,3.51-.296,4.7237.2258,7.3116,1.7316C997.2959,425.8839,995.0246,434.1039,994.2941,438.5337Zm18.7755-35.0779c-.6091,3.3179-5.4693,5.7962-8.0274,7.1026a4.588,4.588,0,0,1-2.6932.5356c-2.6671-.3307-4.7075-3.2341-6.1373-5.8444a18.718,18.718,0,0,1-1.9157-5.2269c-.2911-1.4268-1.1852-3.9337-.4-5.3112.9936-1.7407,3.8618-1.7705,5.5058-1.7941,2.5927-.0374,5.3191-.2346,7.8193.6385a9.3906,9.3906,0,0,1,5.4319,5.4779A8.6891,8.6891,0,0,1,1013.07,403.4558Zm44.922,10.4235a31.7692,31.7692,0,0,1-4.7824,4.4744,14.8551,14.8551,0,0,1-4.02,2.3068q-.3106.1239-.6329.2423c-2.3163.853-5.3807.614-7.7614.2276-3.5394-.5744-7.1618-2.3919-8.2839-6.3651-2.0286-7.1822,6.2738-13.1,13.2132-12.9117a23.1674,23.1674,0,0,1,8.5034,1.8982c1.9342.8311,6.6437,2.6857,6.6029,5.4651C1060.8071,410.8159,1058.9065,412.7543,1057.9916,413.8793Zm29.3335,17.4338a6.6737,6.6737,0,0,1-3.43,4.5382c-.1294.0634-.2626.1231-.3986.1788-3.8064,1.5552-8.8358-.3878-11.0151-4.3144-2.3381-4.2123-1.6483-10.2579,1.55-13.5924,4.0548-4.2267,11.6186-2.8246,14.087,2.83C1089.686,424.5434,1088.251,427.8983,1087.3251,431.3131Z"/><path class="cls-19" d="M915.1855,223.478l-.0351.0015-.3908.0169-22.8656.9886V321.77c8.9192.6513,17.85,1.5835,26.7779,2.68,17.2448,2.118,34.48,4.8068,51.6,7.0729,48.9668,6.4813,101.403,8.8766,145.0353-14.2391,1.6235-.86,3.2233-1.7722,4.8041-2.7235V193.9975C1081.5247,212.79,1032.86,218.39,988.954,220.2886Zm-.0607,87.888-.332,2.6647c-3.7551,1.5493-8.1541-2.33-8.03-6.3848s3.5946-7.41,7.469-8.6322,8.0644-.7434,12.07-.0608C928.0954,305.3321,921.6692,312.47,915.1248,311.366ZM947.2609,291.6l-.3319,2.6647c-3.7551,1.5493-8.1542-2.33-8.03-6.3848s3.5946-7.41,7.4689-8.6322,8.0644-.7434,12.07-.0608C960.2315,285.5662,953.8053,292.7036,947.2609,291.6Zm61.8791-1.4209c-1.33,1.2575-3.2974,1.5229-5.1265,1.6172a46.48,46.48,0,0,1-11.2579-.7942l.7152-.9137c-4.8312,2.2843-11.0978-3.4886-9.2046-8.48,2.37-6.2475,11.425-5.57,17.703-3.2579,2.61.9613,5.3079,2.09,7.054,4.2521S1011.16,288.2693,1009.14,290.1792Zm17.0975,25.6648-1.4929,2.4688c-5.7861-.396-6.5948-9.7414-2-13.2744s11.084-2.7666,16.7661-1.605A17.305,17.305,0,0,1,1026.2375,315.844Zm45.47-23.3191.1339.0012c.1263,1.8932-2.6459,2.2647-4.5121,1.906-3.3477-.6433-7.3422-1.8744-8.1143-5.1893-.9592-4.1155,3.8829-7.1054,7.9913-8.1211a50.4467,50.4467,0,0,1,13.8824-1.44C1082.3082,285.5293,1077.4324,291.54,1071.7076,292.5249ZM1037.72,262.5226a6.6264,6.6264,0,0,1,3.107,1.8869c2.3534,2.8885-.2118,7.1246-2.9251,9.6793a59.7886,59.7886,0,0,1-8.86,6.8928l1.09-.9277c-6.0344,1.9291-11.6429-6.3414-8.8982-12.0434S1031.72,260.4885,1037.72,262.5226Z"/><path class="cls-20" d="M1055.5,526.2285c-4.1533-1.3115-8.5271-.5546-12.7686.2094l7.9914,1.9977c-7.6287-.1588-14.26,9.8045-12.6752,19.0447,5.2451,2.2418,10.7766,4.5152,16.2378,3.2988a13.3982,13.3982,0,0,0,9.8811-14.067A12.6967,12.6967,0,0,0,1055.5,526.2285Z"/><path class="cls-20" d="M964.5745,525.6158l1.7616-.1162a15.5242,15.5242,0,0,0-11.0577,2.3982c-1.1738,5.0618.7813,11.1412,4.67,13.276s9.1624-.6153,10.2219-5.7155C971.0925,531.0187,968.1035,526.0743,964.5745,525.6158Z"/><path class="cls-20" d="M927.7805,526.0267l4.8379,2.0684A27.3708,27.3708,0,0,0,920.94,541.1985c-.7628,1.708-1.3734,3.8963-.5011,5.5218a4.4717,4.4717,0,0,0,2.3955,1.873,25.3,25.3,0,0,0,21.1966-.6528C944.8437,536.8227,936.7973,525.9717,927.7805,526.0267Z"/><path class="cls-20" d="M995.1719,527.6514l6.48,1.3691a36.684,36.684,0,0,0-22.103,7.772,9.684,9.684,0,0,0-3.1962,3.5994c-1.4175,3.1274-.2148,7.2717,1.9574,9.6446s5.0683,3.3973,7.86,4.3535c7.898,2.7051,16.4218,5.39,24.1159,1.8988s13.1161-16.0369,8.1948-24.1492A30.4531,30.4531,0,0,0,995.1719,527.6514Z"/><path class="cls-21" d="M992.5054,423.0969c-2.5879-1.5058-3.8015-2.0276-7.3116-1.7316-.3157.0266-3.7532.6286-4.0272.7373-2.5206,1-.9756,3.3707-1.4407,5.61-.0076.0375-3.0786.0154-3.4029.0656-1.371.212-5.2455.0568-5.9126,1.382-1.3032,2.5876-.0758,5.3724,2.3751,7.6236,2.3007,2.1126,4.12,1.8366,6.8859,2.1862,3.5963.4548,7.0305,1.5131,10.686,1.558a5.2659,5.2659,0,0,0,3.2076-.7151,1.6743,1.6743,0,0,0,.5575-.6222,2.5036,2.5036,0,0,0,.1716-.6574C995.0246,434.1039,997.2959,425.8839,992.5054,423.0969Z"/><path class="cls-21" d="M1074.0317,418.1233c-3.1985,3.3345-3.8883,9.38-1.55,13.5924,2.1793,3.9266,7.2087,5.87,11.0151,4.3144.136-.0557.2692-.1154.3986-.1788a6.6737,6.6737,0,0,0,3.43-4.5382c.9259-3.4148,2.3609-6.77.7936-10.36C1085.65,415.2987,1078.0865,413.8966,1074.0317,418.1233Z"/><path class="cls-21" d="M1054.2279,403.7518a23.1674,23.1674,0,0,0-8.5034-1.8982c-6.9394-.188-15.2418,5.73-13.2132,12.9117,1.1221,3.9732,4.7445,5.7907,8.2839,6.3651,2.3807.3864,5.4451.6254,7.7614-.2276q.323-.1188.6329-.2423a14.8551,14.8551,0,0,0,4.02-2.3068,31.7692,31.7692,0,0,0,4.7824-4.4744c.9149-1.125,2.8155-3.0634,2.8392-4.6624C1060.8716,406.4375,1056.1621,404.5829,1054.2279,403.7518Z"/><path class="cls-21" d="M1007.221,393.5559c-2.5-.8731-5.2266-.6759-7.8193-.6385-1.644.0236-4.5122.0534-5.5058,1.7941-.7851,1.3775.109,3.8844.4,5.3112a18.718,18.718,0,0,0,1.9157,5.2269c1.43,2.61,3.47,5.5137,6.1373,5.8444a4.588,4.588,0,0,0,2.6932-.5356c2.5581-1.3064,7.4183-3.7847,8.0274-7.1026a8.6891,8.6891,0,0,0-.4167-4.422A9.3906,9.3906,0,0,0,1007.221,393.5559Z"/><path class="cls-21" d="M963.4791,403.0883c-4-3.3217-10.4348-.52-12.48,4.4664a12.4711,12.4711,0,0,0,1.3758,11.218c1.1781,1.8264,2.1106,3.1107,4.1732,2.7293,3.7651-.6964,6.9883-2.627,8.7011-6.3575C967.0635,411.1937,966.7136,405.7744,963.4791,403.0883Z"/><path class="cls-21" d="M938.9862,420.888c-1.8958-.5966-3.8072-1.1734-5.7282-1.7122l.0185-.0106-.0583,0c-1.7934-.5025-3.5953-.9722-5.402-1.3873-2.7093-.6226-8.529-2.9094-10.2556.838-.6822,1.48-.08,4.1806-.1228,5.8259-.0668,2.5441-.483,5.9695.8467,8.2362,1.4867,2.5335,6.5138,5.3448,9.115,4.5644.1346-.04.2659-.083.3958-.1281,3.6641-1.2754,5.59-4.4584,8.3806-7.05,1.1734-1.0894,2.4865-1.7556,3.4807-3.1509C941.4163,424.4439,942.0767,421.8607,938.9862,420.888Z"/><path class="cls-22" d="M1066.6444,280.2574c-4.8031,1.1894-10.464,4.6907-9.3426,9.51.9027,3.8818,5.5726,5.3236,9.4864,6.0769,2.1818.42,5.4227-.0151,5.275-2.232l-.1565-.0014c6.6929-1.1538,12.3931-8.1921,10.9675-15.04A58.8878,58.8878,0,0,0,1066.6444,280.2574Z"/><path class="cls-22" d="M1001.7877,278.351c-6.2677-2.3122-15.3082-2.99-17.6738,3.2579-1.89,4.991,4.3662,10.7639,9.1894,8.48l-.714.9137a46.328,46.328,0,0,0,11.2393.7942c1.8261-.0943,3.79-.36,5.1181-1.6172,2.0162-1.91,1.626-5.4137-.1167-7.5761S1004.3932,279.3123,1001.7877,278.351Z"/><path class="cls-22" d="M958.3278,279.187c-3.9988-.6826-8.1824-1.1617-12.05.0608s-7.3334,4.5777-7.4566,8.6322,4.268,7.9341,8.017,6.3848L947.17,291.6C953.7033,292.7036,960.1189,285.5662,958.3278,279.187Z"/><path class="cls-22" d="M1022.5292,305.0384c-4.5875,3.533-3.78,12.8784,1.9963,13.2744l1.4905-2.4688a17.2883,17.2883,0,0,0,13.2517-12.4106C1033.595,302.2718,1027.1168,301.5054,1022.5292,305.0384Z"/><path class="cls-22" d="M1029.9048,280.0539l-1.0884.9277a59.7129,59.7129,0,0,0,8.8452-6.8928c2.7088-2.5547,5.27-6.7908,2.92-9.6793a6.6131,6.6131,0,0,0-3.1018-1.8869c-5.99-2.0341-13.7191-.2141-16.4588,5.4879S1023.88,281.983,1029.9048,280.0539Z"/><path class="cls-22" d="M914.1947,299.0137c-3.8679,1.2225-7.3334,4.5777-7.4566,8.6322s4.268,7.9341,8.017,6.3848l.3314-2.6647c6.5336,1.1035,12.9492-6.0339,11.1581-12.4131C922.2459,298.27,918.0622,297.7911,914.1947,299.0137Z"/><path class="cls-23" d="M891.894,250.5094s73.1833-17.557,97.7321-18.62c43.8335-1.8983,91.9622,27.95,130.4856,9.1569.1489-.0728-.1489.0731,0,0l.0736-86.7235q-.87.0993-1.7365.2051-2.8629.3525-5.7382.7523c-3.6792.5052-7.3708,1.0435-11.0657,1.5474-2.7747.3783-5.5509.737-8.3256,1.0463-2.7345.3049-5.4665.5612-8.1934.7426a113.5039,113.5039,0,0,1-12.6785.1868,81.2457,81.2457,0,0,1-8.3038-.7858,68.2423,68.2423,0,0,1-7.5685-1.5608,91.0606,91.0606,0,0,1-13.97-5.182c-3.3858-1.5325-6.7318-3.1852-10.0764-4.8245-4.6345-2.2714-9.2685-4.5125-14.0092-6.3562a70.3326,70.3326,0,0,0-10.2869-3.19c-1.6782-.3716-3.3772-.67-5.1024-.8755a56.06,56.06,0,0,0-13.4612.1225,85.787,85.787,0,0,0-11.1743,2.1737c-7.7392,2.0086-15.3831,4.859-22.91,7.4942-.3357.1175-.6723.23-1.0079.3461q-4.48,1.5568-8.9779,3.02-7.9843,2.5949-16.0265,4.9-5.3794,1.5433-10.7846,2.9623-3.04.7984-6.087,1.5619-4.3563,1.0865-8.7281,2.0881-4.9393,1.1408-9.8963,2.1865-1.09.23-2.1821.456v47.9257a54.1687,54.1687,0,0,1,0,6.3089"/><line class="cls-23" x1="909.6441" y1="253.7824" x2="909.6441" y2="262.3195"/><path class="cls-22" d="M909.6441,227.3681v5.6189A48.2208,48.2208,0,0,0,909.6441,227.3681Z"/><path class="cls-22" d="M922.68,215.4036A8.5559,8.5559,0,0,0,933.14,215.14c1.3714-4.07-1.2606-8.9092-5.248-10.2991l-7.6036.3771a7.4272,7.4272,0,0,0-.311.7513,8.5114,8.5114,0,0,0-.0981,5.2317A8.2264,8.2264,0,0,0,922.68,215.4036Z"/><path class="cls-22" d="M918.477,201.8171a6.9682,6.9682,0,0,1,1.3663.3407l2.1466-.1064Z"/><path class="cls-22" d="M966.185,204.6233l1.851,1.7978a19.5594,19.5594,0,0,0-7.8711,2.0713,3.1272,3.1272,0,0,0-1.39,1.1173c-1.07,1.8714,1.7314,3.5131,3.856,3.8783,2.3373.4018,4.789.7961,7.0383.0438s4.1689-3.0619,3.626-5.3706C972.634,205.3486,969.0662,204.4044,966.185,204.6233Z"/><path class="cls-22" d="M1008.43,192.1305c2.9059-.8362,4.9991-4.714,3.0127-6.9938a15.0831,15.0831,0,0,1-4.0136-1.4972,8.2841,8.2841,0,0,0-7.768,7.0151C1002.4591,191.8012,1005.5241,192.9667,1008.43,192.1305Z"/><path class="cls-22" d="M1041.5436,205.32c.8492,3.8134,5.9285,5.9388,9.24,3.8664a8.5089,8.5089,0,0,0-3.5243-10.2905l1.0112-.9976C1044.3925,197.4267,1040.6943,201.5065,1041.5436,205.32Z"/><line class="cls-24" x1="539.9482" y1="353.2092" x2="747.435" y2="353.2092"/><polygon class="cls-25" points="742.302 359.977 745.177 353.209 742.302 346.441 758.345 353.209 742.302 359.977"/><text class="cls-26" transform="translate(289.1556 409.0494)">C</text><text class="cls-27" transform="translate(1074.2889 220.9054)">A</text><text class="cls-27" transform="translate(1074.2889 302.1725)">E</text><text class="cls-27" transform="translate(1077.7228 399.4645)">B</text><text class="cls-27" transform="translate(1074.2889 521.9381)">C</text><path class="cls-28" d="M366.9694,316.83a18.916,18.916,0,0,0,1.2084,5.7141,1.8607,1.8607,0,0,1,.1286.3256,2.035,2.035,0,0,1-3.6956,1.6291s-1.6527-2.17-1.5-9.1334a1.9106,1.9106,0,0,1,.2554-1.0286,1.9324,1.9324,0,0,1,3.6079,1.053Z"/><path class="cls-29" d="M223.4537,216.9207l-.0091,0a107.7337,107.7337,0,0,0,5.272-9.9442c1.9832,3.85,5.7984,9.6467,5.7984,9.6467l-.0032,0c.0278.0461.0583.09.0861.1359a6.45,6.45,0,1,1-11.1442.1612Z"/><path class="cls-29" d="M242.156,218.7035l-.0058,0a81.4584,81.4584,0,0,0,3.9768-7.4991c1.4946,2.9037,4.3684,7.2749,4.3684,7.2749l-.0016,0c.0227.0344.0475.0656.067.1a4.8631,4.8631,0,1,1-8.4048.1238Z"/><path class="cls-29" d="M236.8969,234.1454l-.0026,0a65.97,65.97,0,0,0,3.2259-6.0862c1.2131,2.3563,3.5454,5.9043,3.5454,5.9043h-.0026c.02.0271.0381.0553.0548.0825a3.9456,3.9456,0,1,1-6.8209.0993Z"/><path class="cls-30" d="M320.8931,298.5035a13.9013,13.9013,0,0,1,4.9763-2.02c1.7644-.3639,3.5351-.6206,5.2987-.9438,1.7639-.3129,3.5228-.6495,5.2677-1.0424a47.8413,47.8413,0,0,0,10.1477-3.3148,21.0636,21.0636,0,0,0,4.464-2.8234,12.2706,12.2706,0,0,0,3.2207-4.0572,10.74,10.74,0,0,0,.4809-1.2008,7.1738,7.1738,0,0,0,.2885-1.2355,25.8992,25.8992,0,0,0,.154-2.638,11.4921,11.4921,0,0,1,.3663-2.7709,10.9176,10.9176,0,0,1,1.1377-2.5669,26.6269,26.6269,0,0,1,3.46-4.2422c.6093-.6545,1.2065-1.3068,1.7564-1.9846.2753-.3387.5371-.6845.781-1.0391.122-.1771.2222-.3481.3323-.5245.095-.1871.2019-.3644.2885-.5585a22.7358,22.7358,0,0,0,1.49-4.999c.1982-.9922.37-1.9934.5333-2.9991l.001,0a.9764.9764,0,0,1,.8533-.8459c1.02-.0755.8605,2.2474.8605,2.2474l.0016-.0028a8.7451,8.7451,0,0,0,.3758,2.926,14.2874,14.2874,0,0,0,4.6954,6.4039,46.0985,46.0985,0,0,0,6.9457,4.6673c2.4476,1.3981,4.9759,2.677,7.4592,4.0878a29.29,29.29,0,0,1,3.612,2.359,33.6851,33.6851,0,0,1,3.2043,2.87c2.0145,2.0273,3.85,4.1974,5.7065,6.3387a79.5675,79.5675,0,0,0,5.7927,6.1994,21.24,21.24,0,0,0,7.0493,4.62,21.36,21.36,0,0,1-7.2152-4.4362,79.8906,79.8906,0,0,1-5.9967-6.0538c-1.9191-2.0882-3.8133-4.1975-5.8556-6.1359a32.8484,32.8484,0,0,0-3.2077-2.71,28.6511,28.6511,0,0,0-3.5681-2.1868c-1.078-.5721-2.1719-1.1252-3.27-1.6774.3872.23.7746.46,1.1611.6938.5911.36,1.1807.7263,1.7654,1.1174.2923.1964.5832.399.8722.6212a5.3064,5.3064,0,0,1,.867.799l.11.15.0715.1179.1426.2361c.0992.155.1775.3218.2645.4834a9.1358,9.1358,0,0,1,.4421,1.0054,10.9738,10.9738,0,0,1,.5487,2.1019,27.0407,27.0407,0,0,1-.4466,8.3635c-.2144,1.3573-.4362,2.7055-.5477,4.0521a36.3741,36.3741,0,0,0-.0619,4.0724q.0543,1.164.2053,2.32,1.2412.611,2.5,1.19c2.1081.9669,4.2452,1.8884,6.3307,2.9337a36.329,36.329,0,0,1,5.96,3.6651,31.2523,31.2523,0,0,1,5.0083,4.8757,44.81,44.81,0,0,1,4.0346,5.6962,27.8633,27.8633,0,0,1,2.867,6.35,13.9616,13.9616,0,0,1,.56,3.4384,8.0226,8.0226,0,0,1-.6262,3.404,7.9978,7.9978,0,0,0,.5806-3.4027,13.89,13.89,0,0,0-.6015-3.414,27.7307,27.7307,0,0,0-2.9356-6.2821,44.5942,44.5942,0,0,0-4.0875-5.6142,30.94,30.94,0,0,0-5.02-4.7616,35.9256,35.9256,0,0,0-5.9417-3.547c-2.0824-1.01-4.226-1.9016-6.3533-2.8437-.73-.3222-1.4557-.6568-2.1786-.9972q.0828.5151.1889,1.026a18.4579,18.4579,0,0,0,1.2683,3.8516,17.9851,17.9851,0,0,0,2.1588,3.4481c.8365,1.081,1.75,2.11,2.5912,3.2045a12.4191,12.4191,0,0,1,2.0361,3.5915,8.6408,8.6408,0,0,1,.3217,4.0837,8.5841,8.5841,0,0,0-.4292-4.0462,12.2536,12.2536,0,0,0-2.1075-3.4881c-.8631-1.0618-1.804-2.0638-2.6795-3.1324a18.386,18.386,0,0,1-2.3016-3.4626,18.975,18.975,0,0,1-1.4136-3.9242c-.1157-.4848-.2092-.9738-.2931-1.4646q-1.7421-.8372-3.4485-1.7468a35.4769,35.4769,0,0,1-5.8964-3.8214,15.9156,15.9156,0,0,1-4.4367-5.5232,9.7865,9.7865,0,0,1-.8755-3.51,27.44,27.44,0,0,1,.1366-3.5344,16.6461,16.6461,0,0,0-.0676-3.3876c-.048-.3682-.1143-.7334-.1886-1.0972a20.1367,20.1367,0,0,1-1.7094,3.0189c-.8838,1.3329-1.8028,2.6064-2.5989,3.9438a21.8717,21.8717,0,0,0-1.0823,2.051,15.2522,15.2522,0,0,0-.7748,2.1638,12.7268,12.7268,0,0,0-.3608,2.2605,11.9008,11.9008,0,0,0,.1072,2.2926,14.9346,14.9346,0,0,0,1.3971,4.4109c.3317.7077.7239,1.3791,1.1179,2.0633.4012.6853.7906,1.38,1.1573,2.086a20.4227,20.4227,0,0,1,1.76,4.4356,9.0959,9.0959,0,0,1,.2824,2.37,5.3506,5.3506,0,0,1-.5531,2.299,6.64,6.64,0,0,0,.0673-4.6152,20.11,20.11,0,0,0-1.9266-4.2878c-.3928-.6815-.8079-1.35-1.236-2.0123-.4209-.6717-.84-1.36-1.2009-2.0758a15.5864,15.5864,0,0,1-1.5742-4.5633,12.6438,12.6438,0,0,1-.1773-2.437,13.5277,13.5277,0,0,1,.3226-2.4292,16.1188,16.1188,0,0,1,.7627-2.3212,22.764,22.764,0,0,1,1.0749-2.1741c.4727-.8432.9865-1.6547,1.5014-2.4569-.9211.8381-1.8643,1.6325-2.7455,2.4756-.801.7667-1.5792,1.555-2.31,2.3831a22.6831,22.6831,0,0,0-1.99,2.6347,15.9667,15.9667,0,0,0-2.2876,6.1495,23.01,23.01,0,0,0-.2764,3.3141,25.8408,25.8408,0,0,0,.1523,3.3326c.1009,1.1114.22,2.2283.21,3.35a10.4188,10.4188,0,0,1-.51,3.3048,10.3737,10.3737,0,0,0,.4162-3.3042c-.0207-1.1144-.17-2.2212-.3022-3.3307a26.0964,26.0964,0,0,1-.2468-3.3539,23.3406,23.3406,0,0,1,.187-3.3665,16.4376,16.4376,0,0,1,2.1791-6.3881,23.2691,23.2691,0,0,1,1.97-2.7661c.7241-.8682,1.4943-1.693,2.2857-2.4937a63.6267,63.6267,0,0,0,4.6926-4.7078,9.878,9.878,0,0,0,1.2095-1.9042,7.9072,7.9072,0,0,0,.3112-1.02l.0018-.0079.0038-.0153a.6011.6011,0,0,1,.1591-.2739l.002-.0075c-.0238-.071-.0442-.143-.0688-.2137a33.8849,33.8849,0,0,0-3.0706-6.1255c-.592-.9966-1.2005-1.9883-1.7747-3.015-.2707-.5327-.55-1.0614-.8123-1.5993-.2165-.56-.4577-1.1115-.6517-1.6807a14.9136,14.9136,0,0,1-.5318-2.1445,17.6109,17.6109,0,0,1-1.0134,2.7056c-.0993.2138-.225.4211-.3369.6314-.1283.2024-.2593.4164-.3951.6057-.2712.3789-.5579.7432-.8546,1.0946-.593.7038-1.22,1.3627-1.8442,2.0089a25.75,25.75,0,0,0-3.4068,4.0106,9.944,9.944,0,0,0-1.0795,2.3163,10.6125,10.6125,0,0,0-.3775,2.5417,26.4557,26.4557,0,0,1-.2125,2.7248,8.0325,8.0325,0,0,1-.3478,1.3731,11.535,11.535,0,0,1-.5422,1.2841,13.014,13.014,0,0,1-3.4908,4.2439,21.7064,21.7064,0,0,1-4.6546,2.8277,48.3162,48.3162,0,0,1-10.3183,3.164c-1.76.3623-3.53.6671-5.3021.9477-1.7688.29-3.5535.5162-5.3074.8443a13.7509,13.7509,0,0,0-4.9627,1.9088c-1.5013.9731-2.8534,2.163-4.2728,3.2561C318.0742,300.7235,319.4006,299.5108,320.8931,298.5035Zm52.6928-23.0868a8.2346,8.2346,0,0,1-.2141,2.7915,17.134,17.134,0,0,1,.6007,2.8787,17.5964,17.5964,0,0,1,.0268,3.5692,26.826,26.826,0,0,0-.181,3.4217,8.9333,8.9333,0,0,0,.76,3.2224,15.15,15.15,0,0,0,4.1566,5.2994,34.8158,34.8158,0,0,0,5.7331,3.82q1.4986.8285,3.0292,1.5958-.1377-.97-.21-1.9469a37.0893,37.0893,0,0,1-.0512-4.1657c.077-1.3955.2649-2.7673.4414-4.1289a26.17,26.17,0,0,0,.2265-8.0367,9.8155,9.8155,0,0,0-.5413-1.8648,7.9257,7.9257,0,0,0-.4111-.8686c-.08-.1384-.1508-.282-.2415-.4138l-.1293-.2014-.0645-.1007-.0433-.0569a4.2964,4.2964,0,0,0-.6574-.581c-.2576-.194-.5324-.3819-.812-.5656-.5609-.3672-1.1417-.7207-1.7278-1.0691-2.35-1.3911-4.7644-2.7229-7.1148-4.1918-1.1749-.7371-2.34-1.5-3.4589-2.3648-.2689-.2091-.5349-.4246-.7966-.6494.2348.3951.4607.7975.665,1.216A9.8843,9.8843,0,0,1,373.5859,275.4167Zm-5.2006-7.19c.5464,1.0081,1.14,2.0055,1.7214,3.0136a44.9352,44.9352,0,0,1,2.3823,4.5589c-.0075-.0881-.0074-.1765-.0179-.2644a12.616,12.616,0,0,0-2.7359-5.7032c-.5041-.6911-1.04-1.3675-1.5744-2.0577C368.2359,267.9242,368.3113,268.0749,368.3853,268.2262Z"/><path class="cls-28" d="M353.7789,314.8815a20.9341,20.9341,0,0,0,3.0248,5.7122,2.06,2.06,0,0,1,.2359.3073,2.2521,2.2521,0,0,1-3.4364,2.8583s-2.419-1.8061-4.3757-9.262a2.1148,2.1148,0,0,1-.0412-1.1722,2.1387,2.1387,0,0,1,4.1595.0224Z"/><path class="cls-31" d="M410.7593,295.8a2.1055,2.1055,0,0,0-1.8072,1.0007,1.6255,1.6255,0,0,0-.2725,1.3642,3.2967,3.2967,0,0,0,.2765,1.0773c.4976.92-4.1105,2.0245-3.3109,4.4091a5.3243,5.3243,0,0,0,2.512,2.3573c1.1665.5992,2.1838.0676,3.0438-.7792a2.36,2.36,0,0,0,.3488-3.48,2.0648,2.0648,0,0,1-.435-1.7523c.2673-.6617,1.2073-.9524,1.6333-1.51C413.65,297.3043,412.3454,295.6918,410.7593,295.8Z"/><circle class="cls-32" cx="645.1799" cy="254.1453" r="58.2907"/><line class="cls-32" x1="645.1799" y1="200.5386" x2="645.1799" y2="210.9477"/><line class="cls-32" x1="618.3766" y1="207.7205" x2="623.5811" y2="216.735"/><line class="cls-32" x1="598.7552" y1="227.3419" x2="607.7697" y2="232.5465"/><line class="cls-32" x1="591.5733" y1="254.1453" x2="601.9823" y2="254.1453"/><line class="cls-32" x1="598.7552" y1="280.9486" x2="607.7697" y2="275.7441"/><line class="cls-32" x1="618.3766" y1="300.57" x2="623.5811" y2="291.5555"/><line class="cls-32" x1="645.1799" y1="307.7519" x2="645.1799" y2="297.3429"/><line class="cls-32" x1="671.9832" y1="300.57" x2="666.7787" y2="291.5555"/><line class="cls-32" x1="691.6046" y1="280.9486" x2="682.5901" y2="275.7441"/><line class="cls-32" x1="698.7866" y1="254.1453" x2="688.3775" y2="254.1453"/><line class="cls-32" x1="691.6046" y1="227.3419" x2="682.5901" y2="232.5465"/><line class="cls-32" x1="671.9832" y1="207.7205" x2="666.7787" y2="216.735"/><line class="cls-32" x1="645.1801" y1="221.486" x2="645.1801" y2="254.1453"/><polygon class="cls-30" points="640.903 224.73 645.18 222.913 649.457 224.73 645.18 214.591 640.903 224.73"/><line class="cls-32" x1="659.7392" y1="268.6685" x2="645.2475" y2="254.1769"/><polygon class="cls-30" points="660.287 264.68 658.982 267.912 655.75 269.216 663.396 272.325 660.287 264.68"/><path class="cls-33" d="M640.2377,270.2415a16.4734,16.4734,0,1,1,21.3809-14.5881"/><polygon class="cls-17" points="659.462 253.447 661.666 254.852 664.208 254.24 660.894 259.469 659.462 253.447"/><text class="cls-34" transform="translate(262.8517 484.5016)">pa<tspan class="cls-35" x="43.0327" y="0">r</tspan><tspan x="52.4561" y="0">ent </tspan><tspan class="cls-35" x="-12.7214" y="41.8818">m</tspan><tspan x="16.77" y="41.8818">a</tspan><tspan class="cls-36" x="38.3037" y="41.8818">t</tspan><tspan x="46.6804" y="41.8818">erial</tspan></text><path class="cls-37" d="M148.559,63.9468C118.1982,90.068,109.2143,131.9229,138.01,159.721"/><polygon class="cls-25" points="129.478 161.558 136.312 158.092 138.562 150.768 146.81 166.929 129.478 161.558"/><path class="cls-38" d="M368.9029,209.14c-.3547,1.95-.7176,3.8993-.8993,5.8761a6.717,6.717,0,0,0,.1839,2.62,2.9388,2.9388,0,0,0,.782,1.3184c.1518.1425.2509.1364.3367-.0666a34.49,34.49,0,0,0,2.6819-8.04,15.7621,15.7621,0,0,0,.18-1.9153.5733.5733,0,0,1,.0649-.3394c.1319.0761.0936.1907.0955.2857a18.2714,18.2714,0,0,1-.767,5.3552c-.6067,2.16-1.4547,4.2342-2.2238,6.3373a42.5352,42.5352,0,0,0-1.3545,4.2674.1927.1927,0,0,1-.1165.1657c-1.1064-2.7872-2.3255-5.5245-3.4411-8.31.1.3523.1921.7066.3021,1.0552q.9423,3.0027,1.8927,6.0022a52.1569,52.1569,0,0,1,1.98,7.9976,21.8457,21.8457,0,0,1-.1606,7.97c-.0852.3881-.09.3885-.4689.2652a12.8879,12.8879,0,0,1-5.3176-3.3268.4688.4688,0,0,1-.1261-.6179,4.295,4.295,0,0,0,.2151-2.4555,25.59,25.59,0,0,0-1.4092-5.0275,24.0214,24.0214,0,0,0-2.6477-5.4671,15.6482,15.6482,0,0,0-4.3148-4.394,9.7494,9.7494,0,0,0-2.7178-1.2631c-.3928-.1107-.4263-.0726-.3281.3106a56.4431,56.4431,0,0,1,1.085,5.6446,26.8454,26.8454,0,0,0,3.6017,10.4367,9.6354,9.6354,0,0,0,2.4774,2.7615,3.4994,3.4994,0,0,0,2.2754.803,1.5971,1.5971,0,0,0,.282-.04c.2058-.0482.2381-.1551.11-.328a28.891,28.891,0,0,1-3.7108-7.5532c-.8468-2.3415-1.6025-4.7175-2.62-7.0008.4391.8121.8143,1.66,1.1743,2.5141.9264,2.198,1.7166,4.4519,2.6963,6.6276a22.96,22.96,0,0,0,3.1149,5.2456,13.7943,13.7943,0,0,0,5.9264,4.2323c.3588.1335.3569.1326.257.5129-.6424,2.4455-1.1426,4.8827-1.8232,7.3163a30.1506,30.1506,0,0,0-1.3339,6.4437,12.1606,12.1606,0,0,0,.6544,3.9127c.2295.2365.6732.1092,1.2347-.4435a2.92,2.92,0,0,0,1.0933-1.727c.0818-.4513-.3533-2.9732-.1774-4.5152.2882-2.5283,1.4624-5.33,1.9995-7.8085.0492-.2283.1971-.2729.3835-.3138a29.2585,29.2585,0,0,0,6.3349-2.1064c.5255-.2486,1.0366-.5278,1.553-.7947.12-.0616.2276-.1283.37-.039a3.51,3.51,0,0,0,2.9593.2359,11.6267,11.6267,0,0,0,5.6631-3.8641,13.6411,13.6411,0,0,0,3.4467-8.6253,14.2557,14.2557,0,0,0-2.933-9.1795c-.1-.1334-.1911-.3615-.3589-.3319-.1789.0319-.1546.283-.1987.4412a58.4419,58.4419,0,0,1-2.2443,6.904,36.4525,36.4525,0,0,1-5.25,8.951,10.706,10.706,0,0,0-1.6564,2.6385,3.1,3.1,0,0,0-.2439,1.174c0,.2925.0561.326.3171.1971a18.9885,18.9885,0,0,0,4.5732-3.1162,16.2213,16.2213,0,0,0,5.0657-9.7c.01-.0662.02-.1326.0335-.1981.0029-.0156.0188-.0283.058-.0823a16.7852,16.7852,0,0,1-7.2394,12.2752,23.4379,23.4379,0,0,1-7.2233,3.3679c-.8913.2527-1.7927.4543-2.7029.62-.3682.0668-.3888.0462-.3169-.3179a30.4474,30.4474,0,0,0,.6344-5.7013,23.4777,23.4777,0,0,0-.2145-3.0643.8205.8205,0,0,1,.1648-.6127,23.498,23.498,0,0,1,3.135-3.5289c.2488-.2369.5016-.47.7534-.7047.0782-.0728.1571-.1419.2766-.077a3.717,3.717,0,0,0,3.2117.034,12.4683,12.4683,0,0,0,4.6021-3.1262,10.0486,10.0486,0,0,0,2.8666-5.3877,8.6582,8.6582,0,0,0-2.4806-7.8943c-.283-.29-.3172-.28-.46.1094a21.8982,21.8982,0,0,1-1.8113,3.99,19.5382,19.5382,0,0,1-1.9485,2.51c-1.1579,1.3348-2.3591,2.6324-3.4695,4.008a7.5921,7.5921,0,0,0-1.5965,2.8263,2.8064,2.8064,0,0,0-.0049,1.5313c.0568.1935.1436.2264.3046.1059a52.243,52.243,0,0,0,5.7766-4.5922,11.0108,11.0108,0,0,0,3.0541-5.0087.1119.1119,0,0,1,.0547-.0675,7.7238,7.7238,0,0,1-.3475,1.2851,12.3658,12.3658,0,0,1-2.9226,4.4119,38.1069,38.1069,0,0,1-3.53,3.0941,53.6781,53.6781,0,0,0-4.8926,4.1866c-.2874.2925-.5578.6024-.8382.9021-.0507.0534-.0892.149-.1716.1319-.0906-.0186-.074-.1235-.0893-.1937a35.0511,35.0511,0,0,0-1.2156-4.3116,2.3637,2.3637,0,0,1-.093-1.29c.43-2.2012.9537-4.3772,1.5994-6.5244a.4173.4173,0,0,1,.44-.3507,2.9435,2.9435,0,0,0,1.7968-.799,8.2643,8.2643,0,0,0,2.19-3.2519,11.4558,11.4558,0,0,0,.9841-6.514,11.1709,11.1709,0,0,0-1.5784-4.3144,10.172,10.172,0,0,0-3.7787-3.5606c-.0747-.0408-.1435-.0934-.2146-.14-.0375.0068-.0746.0136-.112.0207-.1268,1.2391-.2449,2.4783-.4071,3.7134C369.7,204.76,369.1051,208.0281,368.9029,209.14Z"/><path class="cls-31" d="M401.6538,292.7476a1.999,1.999,0,0,1,1.6762,1.0208,1.5441,1.5441,0,0,1,.2056,1.3056,3.1407,3.1407,0,0,1-.3046,1.0118c-.5085.8542,3.8228,2.083,2.97,4.3154a5.06,5.06,0,0,1-2.4769,2.1395,2.38,2.38,0,0,1-2.8591-.8589,2.2425,2.2425,0,0,1-.1946-3.3175,1.961,1.961,0,0,0,.4813-1.6462c-.2278-.6387-1.1089-.9515-1.4913-1.4979C398.8506,294.0626,400.1522,292.583,401.6538,292.7476Z"/></g></g></svg>