<svg xmlns="http://www.w3.org/2000/svg" viewBox="0 0 1567 523.31"><defs><style>.cls-1{fill:gray;}.cls-2{font-size:60.55px;}.cls-2,.cls-20,.cls-3{fill:#fff;}.cls-2,.cls-20,.cls-21,.cls-3,.cls-30,.cls-34{font-family:Acre-Thin, Acre;font-weight:200;}.cls-3{font-size:35.41px;}.cls-4{letter-spacing:-0.02em;}.cls-5{letter-spacing:-0.02em;}.cls-6{letter-spacing:0em;}.cls-7{fill:#cf6a7c;}.cls-8{fill:#5c5052;}.cls-9{fill:#336d99;}.cls-10{fill:#438d84;}.cls-11,.cls-12,.cls-27,.cls-29{fill:none;stroke-miterlimit:10;}.cls-11{stroke:#5c5052;stroke-linecap:round;stroke-width:1.25px;}.cls-12{stroke:#3d9087;stroke-width:1.88px;}.cls-13{fill:#3d9087;}.cls-14{fill:#955e40;}.cls-15{fill:#d4c3a9;}.cls-16{fill:#805b3b;}.cls-17{fill:#8a8480;}.cls-18{fill:#8c8081;}.cls-19{fill:#755047;}.cls-20{font-size:40.81px;}.cls-21{font-size:26.73px;}.cls-21,.cls-34{fill:#5b5052;}.cls-22{letter-spacing:-0.02em;}.cls-23{letter-spacing:-0.04em;}.cls-24{letter-spacing:-0.01em;}.cls-25{fill:#e3b308;}.cls-26{fill:#2e6187;}.cls-27,.cls-29{stroke:#ec6a7c;}.cls-27{stroke-width:1.59px;}.cls-28{fill:#ec6a7c;}.cls-29{stroke-width:1.46px;}.cls-30,.cls-34{font-size:29.79px;}.cls-31{letter-spacing:-0.02em;}.cls-32{letter-spacing:-0.02em;}.cls-33{letter-spacing:-0.01em;}.cls-35{letter-spacing:-0.07em;}</style></defs><g id="Layer_2" data-name="Layer 2"><g id="Pedogenesis"><g id="Layer_20" data-name="Layer 20"><path class="cls-1" d="M508.05,182.14c-2.6-.53-5.2-1.17-7.8-1.88-20.1-5.51-39.38-13.1-59.24-.43-15.86,10.12-32.48,9.31-48.79,7.43-8.37-1-16.73-2.26-25.11-2.5-2,0-21-1.27-21.35,3.38-1.06,15,.51,27.7,1.17,42.11.76,16.67.33,34.1.52,50.86.38,32.45.77,64.91.77,97.37,0,45.87-9.26,91.62-6.29,137.52-.08-1.13,33-6.32,36.36-6.83,32.89-5,65.81-4.48,98.95-3.5,26.95.79,56.34,3.58,82.22-5.65L558,416.32V294c0-34.33,2.82-73.5-.93-107-8.68-3.47-12.13-4.75-20.94-3.55A83.37,83.37,0,0,1,508.05,182.14Z"/><text class="cls-2" transform="translate(428.45 333.36)">C</text><text class="cls-3" transform="translate(407.14 396.92)">pa<tspan class="cls-4" x="43.67" y="0">r</tspan><tspan x="53.23" y="0">ent </tspan><tspan class="cls-4" x="-12.91" y="42.5">m</tspan><tspan x="17.02" y="42.5">a</tspan><tspan class="cls-5" x="38.87" y="42.5">t</tspan><tspan class="cls-6" x="47.37" y="42.5">erial</tspan></text></g><g id="Layer_21" data-name="Layer 21"><path class="cls-7" d="M508.15,243.92a19.09,19.09,0,0,0,1.23,5.84,1.51,1.51,0,0,1,.13.33,2.07,2.07,0,0,1-3,2.4,2,2,0,0,1-.75-.73s-1.69-2.22-1.54-9.34a1.94,1.94,0,0,1,.27-1,2,2,0,0,1,3.68,1.08Z"/><path class="cls-8" d="M461.07,225.2a14.2,14.2,0,0,1,5.08-2.07c1.81-.37,3.62-.63,5.42-1s3.6-.67,5.38-1.07a49.15,49.15,0,0,0,10.37-3.38,22,22,0,0,0,4.56-2.89,12.55,12.55,0,0,0,3.29-4.14,11.66,11.66,0,0,0,.49-1.23,7.7,7.7,0,0,0,.3-1.26,26.17,26.17,0,0,0,.15-2.7,11.66,11.66,0,0,1,.38-2.83,11.18,11.18,0,0,1,1.16-2.62,27.29,27.29,0,0,1,3.53-4.34c.63-.67,1.24-1.33,1.8-2,.28-.34.55-.69.8-1.06l.34-.53c.09-.19.2-.37.29-.57a23.25,23.25,0,0,0,1.52-5.11c.21-1,.38-2,.55-3.06h0a1,1,0,0,1,.87-.87c1-.08.88,2.3.88,2.3h0a8.92,8.92,0,0,0,.39,3,14.53,14.53,0,0,0,4.79,6.55,47.6,47.6,0,0,0,7.1,4.77c2.5,1.42,5.08,2.73,7.62,4.17a29.58,29.58,0,0,1,3.69,2.41,34,34,0,0,1,3.28,2.94c2,2.07,3.93,4.28,5.83,6.47a80.59,80.59,0,0,0,5.91,6.34,21.77,21.77,0,0,0,7.21,4.72,21.93,21.93,0,0,1-7.38-4.54,83,83,0,0,1-6.12-6.18c-2-2.14-3.9-4.29-6-6.27a34.33,34.33,0,0,0-3.28-2.77,29.41,29.41,0,0,0-3.65-2.23c-1.1-.59-2.22-1.15-3.34-1.72l1.19.71c.6.37,1.2.74,1.8,1.14.3.2.6.41.89.64a5.44,5.44,0,0,1,.89.81l.11.16.07.12.15.24c.1.16.18.33.27.49a10.37,10.37,0,0,1,.45,1,11.53,11.53,0,0,1,.56,2.15,28,28,0,0,1-.45,8.54c-.22,1.39-.45,2.77-.56,4.14a38.5,38.5,0,0,0-.07,4.16q.06,1.2.21,2.37c.85.42,1.7.83,2.56,1.22,2.15,1,4.33,1.93,6.46,3a36.18,36.18,0,0,1,6.09,3.74,31.75,31.75,0,0,1,5.12,5,46.35,46.35,0,0,1,4.12,5.82,28.28,28.28,0,0,1,2.93,6.49,13.92,13.92,0,0,1,.57,3.51,8.13,8.13,0,0,1-.64,3.48,8.12,8.12,0,0,0,.6-3.48,14.21,14.21,0,0,0-.62-3.48,28.24,28.24,0,0,0-3-6.42,46.17,46.17,0,0,0-4.17-5.74,31.87,31.87,0,0,0-5.13-4.86,37.19,37.19,0,0,0-6.07-3.63c-2.13-1-4.32-1.94-6.49-2.9-.75-.33-1.49-.67-2.23-1,.06.35.12.7.19,1a19.27,19.27,0,0,0,1.3,3.93,18,18,0,0,0,2.21,3.53c.85,1.1,1.78,2.15,2.64,3.27a12.48,12.48,0,0,1,2.08,3.67,8.82,8.82,0,0,1,.33,4.17,8.77,8.77,0,0,0-.44-4.13,12.41,12.41,0,0,0-2.15-3.57c-.88-1.08-1.84-2.11-2.74-3.2A18.69,18.69,0,0,1,531,235a19.2,19.2,0,0,1-1.44-4q-.18-.75-.3-1.5c-1.19-.57-2.37-1.16-3.53-1.79a35.6,35.6,0,0,1-6-3.9,16.18,16.18,0,0,1-4.53-5.64,9.89,9.89,0,0,1-.9-3.59,28.53,28.53,0,0,1,.14-3.61,16.64,16.64,0,0,0-.07-3.46c-.05-.38-.11-.75-.19-1.12a21,21,0,0,1-1.75,3.08c-.9,1.36-1.84,2.66-2.65,4a21,21,0,0,0-1.11,2.1,15.71,15.71,0,0,0-.79,2.21,13.9,13.9,0,0,0-.37,2.31,12.24,12.24,0,0,0,.11,2.34A15.2,15.2,0,0,0,509,227c.34.72.74,1.41,1.14,2.1s.81,1.41,1.18,2.14a20.38,20.38,0,0,1,1.8,4.53,9.38,9.38,0,0,1,.29,2.42,5.6,5.6,0,0,1-.56,2.35,6.78,6.78,0,0,0,.06-4.72,20.72,20.72,0,0,0-2-4.38c-.41-.69-.83-1.38-1.27-2s-.86-1.39-1.22-2.12a15.59,15.59,0,0,1-1.61-4.67,12.18,12.18,0,0,1-.18-2.49,13.08,13.08,0,0,1,.33-2.48,16.39,16.39,0,0,1,.77-2.37c.33-.76.7-1.5,1.1-2.22s1-1.69,1.54-2.51c-.94.85-1.91,1.67-2.81,2.53s-1.61,1.59-2.36,2.43a22.84,22.84,0,0,0-2,2.69,16.41,16.41,0,0,0-2.34,6.29,23.83,23.83,0,0,0-.28,3.38,26,26,0,0,0,.16,3.41c.1,1.13.22,2.27.21,3.42a10.79,10.79,0,0,1-.52,3.38,10.74,10.74,0,0,0,.42-3.38c0-1.14-.17-2.27-.3-3.4a26.13,26.13,0,0,1-.26-3.43,24.71,24.71,0,0,1,.19-3.44,16.8,16.8,0,0,1,2.23-6.53,24.42,24.42,0,0,1,2-2.82c.74-.89,1.53-1.73,2.34-2.55a65.8,65.8,0,0,0,4.79-4.81,10.27,10.27,0,0,0,1.24-1.94,8.41,8.41,0,0,0,.32-1.05h0a.64.64,0,0,1,.16-.28h0a1.42,1.42,0,0,1-.07-.22,34.82,34.82,0,0,0-3.14-6.25c-.61-1-1.23-2-1.81-3.09-.28-.54-.57-1.08-.83-1.63s-.47-1.14-.67-1.72a14.9,14.9,0,0,1-.54-2.19,18.23,18.23,0,0,1-1,2.77c-.1.22-.23.43-.34.64s-.27.43-.41.62c-.27.39-.57.76-.87,1.12-.61.72-1.25,1.39-1.88,2a25.65,25.65,0,0,0-3.48,4.1,9.86,9.86,0,0,0-1.11,2.37,10.38,10.38,0,0,0-.38,2.59,27.28,27.28,0,0,1-.22,2.79,8.46,8.46,0,0,1-.36,1.4,10.68,10.68,0,0,1-.55,1.31,13.31,13.31,0,0,1-3.57,4.34,22.43,22.43,0,0,1-4.75,2.89A49.57,49.57,0,0,1,477,221.5c-1.8.37-3.61.68-5.42,1s-3.63.52-5.42.86a14,14,0,0,0-5.07,1.95c-1.54,1-2.92,2.21-4.37,3.33C458.19,227.46,459.55,226.22,461.07,225.2Zm53.84-23.59a8.3,8.3,0,0,1-.22,2.85,17.25,17.25,0,0,1,.61,2.94,17.82,17.82,0,0,1,0,3.65,29.84,29.84,0,0,0-.19,3.49,9.21,9.21,0,0,0,.78,3.3,15.47,15.47,0,0,0,4.25,5.41,35.66,35.66,0,0,0,5.85,3.9c1,.57,2.06,1.11,3.1,1.63-.09-.66-.17-1.32-.21-2a37.64,37.64,0,0,1-.06-4.25c.08-1.43.27-2.83.45-4.22a26.74,26.74,0,0,0,.24-8.21,10.24,10.24,0,0,0-.56-1.91,7.1,7.1,0,0,0-.42-.88c-.08-.15-.15-.29-.24-.43l-.14-.2-.06-.11,0-.05a4.08,4.08,0,0,0-.67-.6c-.26-.2-.54-.39-.83-.58-.57-.37-1.16-.73-1.76-1.09-2.4-1.42-4.87-2.78-7.27-4.28a42.65,42.65,0,0,1-3.54-2.42l-.81-.66c.24.4.47.81.68,1.24A10.27,10.27,0,0,1,514.91,201.61Zm-5.32-7.35c.56,1,1.17,2.05,1.76,3.08a46.76,46.76,0,0,1,2.44,4.66c0-.09,0-.18,0-.27a13,13,0,0,0-2.8-5.83c-.51-.71-1.06-1.4-1.61-2.1C509.44,194,509.52,194.11,509.59,194.26Z"/><path class="cls-7" d="M494.67,241.93a21.3,21.3,0,0,0,3.09,5.84,1.83,1.83,0,0,1,.24.31,2.27,2.27,0,0,1,.3,1.79,2.29,2.29,0,0,1-2.79,1.68,2.26,2.26,0,0,1-1-.55s-2.47-1.85-4.47-9.46a2.22,2.22,0,0,1,0-1.2,2.19,2.19,0,0,1,4.25,0Z"/><path class="cls-9" d="M552.89,222.43a2.16,2.16,0,0,0-1.85,1,1.67,1.67,0,0,0-.28,1.39A3.57,3.57,0,0,0,551,226c.51.94-4.19,2.07-3.38,4.5a5.44,5.44,0,0,0,2.57,2.41c1.19.62,2.23.07,3.11-.79a2.41,2.41,0,0,0,.35-3.56,2.09,2.09,0,0,1-.44-1.79c.27-.68,1.23-1,1.67-1.54C555.84,224,554.51,222.32,552.89,222.43Z"/><path class="cls-10" d="M510.12,133.89c-.36,2-.73,4-.92,6a6.89,6.89,0,0,0,.19,2.67,3,3,0,0,0,.8,1.35c.16.14.26.14.34-.07a34.92,34.92,0,0,0,2.74-8.21,16.05,16.05,0,0,0,.19-2,.64.64,0,0,1,.06-.35c.14.08.1.2.1.3a18.79,18.79,0,0,1-.78,5.47c-.62,2.2-1.49,4.32-2.27,6.47a41.67,41.67,0,0,0-1.39,4.36.18.18,0,0,1-.12.17c-1.13-2.85-2.37-5.64-3.51-8.49.1.36.19.72.31,1.08.64,2,1.28,4.09,1.93,6.13a52.42,52.42,0,0,1,2,8.17,22.28,22.28,0,0,1-.16,8.14c-.09.4-.09.4-.48.28a13.21,13.21,0,0,1-5.43-3.4.47.47,0,0,1-.13-.63,4.4,4.4,0,0,0,.22-2.51,26.16,26.16,0,0,0-1.44-5.14,24.27,24.27,0,0,0-2.71-5.59,16.11,16.11,0,0,0-4.41-4.49,10.14,10.14,0,0,0-2.77-1.29c-.4-.11-.44-.07-.34.32a56.46,56.46,0,0,1,1.11,5.77A27.37,27.37,0,0,0,497,159.11a9.76,9.76,0,0,0,2.53,2.82,3.53,3.53,0,0,0,2.33.82.9.9,0,0,0,.28,0q.32-.08.12-.33a29.33,29.33,0,0,1-3.79-7.72c-.87-2.39-1.64-4.82-2.68-7.15.45.83.83,1.69,1.2,2.57.94,2.24,1.75,4.55,2.75,6.77a23.44,23.44,0,0,0,3.19,5.36,14.14,14.14,0,0,0,6.05,4.32c.37.14.37.14.26.53-.65,2.49-1.16,5-1.86,7.47a30.53,30.53,0,0,0-1.36,6.58,12.32,12.32,0,0,0,.67,4c.23.24.68.11,1.26-.45.9-.89,1-1.3,1.11-1.76s-.36-3-.18-4.62c.3-2.58,1.5-5.44,2.05-8,.05-.23.2-.28.39-.32a29.61,29.61,0,0,0,6.47-2.15c.54-.25,1.06-.54,1.59-.81.12-.06.23-.13.38,0a3.59,3.59,0,0,0,3,.24,11.86,11.86,0,0,0,5.79-3.95,14,14,0,0,0,3.52-8.81,14.57,14.57,0,0,0-3-9.38c-.1-.14-.19-.37-.37-.34s-.15.29-.2.45a59.93,59.93,0,0,1-2.29,7.06,37.33,37.33,0,0,1-5.37,9.14,11,11,0,0,0-1.69,2.7,3.07,3.07,0,0,0-.25,1.2c0,.3.06.33.33.2a19.52,19.52,0,0,0,4.67-3.19,16.54,16.54,0,0,0,5.17-9.91c0-.06,0-.13,0-.2l.06-.08a17.76,17.76,0,0,1-.37,2.26,17,17,0,0,1-7,10.28,23.93,23.93,0,0,1-7.38,3.44c-.91.26-1.83.46-2.76.63-.38.07-.4.05-.32-.32a30.79,30.79,0,0,0,.64-5.83,21.86,21.86,0,0,0-.22-3.13.85.85,0,0,1,.17-.62,24,24,0,0,1,3.21-3.61l.77-.72c.08-.07.16-.14.28-.08a3.77,3.77,0,0,0,3.28,0,12.62,12.62,0,0,0,4.7-3.2,10.25,10.25,0,0,0,2.93-5.5,8.84,8.84,0,0,0-2.53-8.07c-.29-.29-.33-.28-.47.12a22.61,22.61,0,0,1-1.85,4.07,19.89,19.89,0,0,1-2,2.57c-1.18,1.36-2.41,2.69-3.54,4.09a7.81,7.81,0,0,0-1.63,2.89,2.85,2.85,0,0,0,0,1.56c.06.2.15.24.31.11a53.35,53.35,0,0,0,5.91-4.69,11.36,11.36,0,0,0,3.12-5.12.1.1,0,0,1,0-.07,8.55,8.55,0,0,1-.35,1.32,12.63,12.63,0,0,1-3,4.5,38.68,38.68,0,0,1-3.6,3.17,53.63,53.63,0,0,0-5,4.27c-.3.3-.57.62-.86.93-.05,0-.09.15-.17.13s-.08-.13-.1-.2a35.5,35.5,0,0,0-1.24-4.4,2.47,2.47,0,0,1-.09-1.32c.44-2.25,1-4.47,1.63-6.67a.44.44,0,0,1,.45-.36,3,3,0,0,0,1.84-.81,8.41,8.41,0,0,0,2.23-3.32,11.71,11.71,0,0,0,1-6.66,11.48,11.48,0,0,0-1.61-4.41,10.53,10.53,0,0,0-3.86-3.64,1.64,1.64,0,0,1-.22-.14l-.12,0c-.13,1.27-.25,2.53-.41,3.8C510.94,129.42,510.33,132.76,510.12,133.89Z"/><path class="cls-9" d="M543.58,219.31a2.06,2.06,0,0,1,1.72,1.05,1.57,1.57,0,0,1,.21,1.33,3.47,3.47,0,0,1-.31,1c-.52.87,3.9,2.12,3,4.4a5.16,5.16,0,0,1-2.53,2.19,2.43,2.43,0,0,1-2.92-.88,2.29,2.29,0,0,1-.2-3.39,2,2,0,0,0,.49-1.68c-.23-.65-1.13-1-1.52-1.53C540.72,220.66,542.05,219.15,543.58,219.31Z"/></g><g id="Layer_22" data-name="Layer 22"><circle class="cls-11" cx="791.45" cy="245.52" r="50.57"/><line class="cls-11" x1="791.45" y1="199.02" x2="791.45" y2="208.05"/><line class="cls-11" x1="768.2" y1="205.25" x2="772.71" y2="213.07"/><line class="cls-11" x1="751.18" y1="222.27" x2="759" y2="226.79"/><line class="cls-11" x1="744.95" y1="245.52" x2="753.98" y2="245.52"/><line class="cls-11" x1="751.18" y1="268.78" x2="759" y2="264.26"/><line class="cls-11" x1="768.2" y1="285.8" x2="772.71" y2="277.98"/><line class="cls-11" x1="791.45" y1="292.03" x2="791.45" y2="283"/><line class="cls-11" x1="814.7" y1="285.8" x2="810.19" y2="277.98"/><line class="cls-11" x1="831.73" y1="268.78" x2="823.91" y2="264.26"/><line class="cls-11" x1="837.96" y1="245.52" x2="828.93" y2="245.52"/><line class="cls-11" x1="831.73" y1="222.27" x2="823.91" y2="226.79"/><line class="cls-11" x1="814.7" y1="205.25" x2="810.19" y2="213.07"/><line class="cls-11" x1="791.45" y1="217.19" x2="791.45" y2="245.52"/><polygon class="cls-8" points="787.74 220 791.45 218.43 795.16 220 791.45 211.21 787.74 220"/><line class="cls-11" x1="804.08" y1="258.12" x2="791.51" y2="245.55"/><polygon class="cls-8" points="804.56 254.66 803.43 257.47 800.62 258.6 807.25 261.3 804.56 254.66"/><path class="cls-12" d="M787.16,259.49a14.29,14.29,0,1,1,18.55-12.66"/><polygon class="cls-13" points="803.84 244.92 805.75 246.14 807.96 245.61 805.09 250.14 803.84 244.92"/></g><g id="Layer_23" data-name="Layer 23"><path class="cls-1" d="M1186.76,379.17c-11.22-5.36-22-14.23-33.81-14.54-17.81-.46-32.73,18.21-49.85,25.07-16.7,6.69-33.57,1.79-50.61-4.71-11.57-4.41-23.21-9.54-34.93-12.29V523.31c13.83-1.42,27.67-2.76,41.51-3.88,35.73-2.88,71.47-4.35,107.23-2.21,26.24,1.58,56,2.53,81.43-6.16V373.12C1228.77,385.55,1206.63,388.66,1186.76,379.17Z"/><path class="cls-13" d="M1211.64,14.88c3.23,15.11-.86,30.78-.24,46.22.37,9.33,2.46,18.62,1.7,27.92,2.75-.18,5.51-.44,8.28-.75A354,354,0,0,0,1211.64,14.88Z"/><path class="cls-13" d="M1191.62,35.24c3.23,15.11-.87,30.78-.25,46.22.09,2.32.3,4.64.53,7a81.27,81.27,0,0,0,8.39.8A354.19,354.19,0,0,0,1191.62,35.24Z"/><path class="cls-13" d="M1134.51,34.34c1.43,7.35,2.87,14.79,2.42,22.27a86.28,86.28,0,0,1-1.51,10.47,72.16,72.16,0,0,1,10.39,3.23A57.68,57.68,0,0,0,1134.51,34.34Z"/><path class="cls-13" d="M1240.48,81.69c-.86-5.75-2.35-11.43-2.71-17.24-.45-7.47,1-14.91,2.42-22.26a57.6,57.6,0,0,0-11.29,36.37,76.13,76.13,0,0,0,.89,8.65c3.73-.51,7.46-1,11.18-1.56C1240.83,84.33,1240.67,83,1240.48,81.69Z"/><path class="cls-13" d="M1168.44,58.59c-.85-5.76-2.35-11.43-2.7-17.24-.46-7.47,1-14.92,2.41-22.26a57.62,57.62,0,0,0-11.29,36.37c.28,7.16,1.9,14.19,3.1,21.27,3.38,1.65,6.76,3.32,10.18,4.87C1169.6,73.93,1169.58,66.2,1168.44,58.59Z"/><path class="cls-13" d="M1081.17,74.38A353.86,353.86,0,0,0,1071.4,0c3.23,15.11-.86,30.78-.25,46.22.39,9.5,2.55,19,1.67,28.42-.15,1.63-.39,3.24-.68,4.85q4.54-1.47,9.07-3C1081.2,75.75,1081.18,75.07,1081.17,74.38Z"/><path class="cls-13" d="M1117.94,55.27a57.62,57.62,0,0,0-11.29-36.37c1.43,7.34,2.87,14.79,2.41,22.26-.35,5.81-1.85,11.48-2.7,17.24-.5,3.35-.78,6.73-1,10.12a87.19,87.19,0,0,1,11.29-2.2A85.56,85.56,0,0,0,1117.94,55.27Z"/><path class="cls-13" d="M1033.2,85.35A57.62,57.62,0,0,0,1021.91,49c1.43,7.34,2.87,14.79,2.42,22.26-.36,5.81-1.85,11.48-2.71,17.24-1,6.75-1.13,13.6-1.53,20.43q5-1.06,10-2.21C1031.29,99.59,1032.92,92.54,1033.2,85.35Z"/><path class="cls-13" d="M1057.86,85.37A57.64,57.64,0,0,0,1046.57,49c1.43,7.35,2.87,14.79,2.41,22.26-.35,5.81-1.85,11.48-2.7,17.24a143.36,143.36,0,0,0-1.22,14.51q5.46-1.44,10.89-3A103.6,103.6,0,0,0,1057.86,85.37Z"/><path class="cls-14" d="M1110.84,258.6c-18.5-5-42.79-1.25-64.76-10-8.51-3.39-18.75-14.3-27.75-15l-.44,144.07c11.72,2.14,23.37,6.11,34.93,9.53,17,5,33.91,8.84,50.61,3.65,17.12-5.32,32-19.79,49.85-19.43,11.85.24,22.59,7.12,33.81,11.27,19.87,7.36,42,4.95,61-4.69V328.24l.38-90.91c-1.59,1-30.06,5-35.84,10C1177.47,277.74,1134.26,264.94,1110.84,258.6Zm-44.7,101.46c-1,1.41-2.33,2.09-3.52,3.19-2.82,2.62-4.76,5.83-8.46,7.12l-.4.13c-2.63.79-7.71-2.05-9.21-4.61-1.35-2.29-.93-5.75-.86-8.32,0-1.66-.56-4.39.13-5.89,1.74-3.78,7.62-1.47,10.36-.84,1.82.41,3.64.89,5.45,1.4h0q2.92.81,5.79,1.73C1068.58,355,1067.92,357.57,1066.14,360.06ZM1092,348.18c-1.73,3.76-5,5.71-8.79,6.42-2.08.38-3-.91-4.21-2.76a12.59,12.59,0,0,1-1.39-11.33c2.06-5,8.56-7.87,12.61-4.51C1093.47,338.71,1093.83,344.18,1092,348.18Zm29.35,23.62a2.55,2.55,0,0,1-.18.67,1.69,1.69,0,0,1-.56.63,5.34,5.34,0,0,1-3.24.72c-3.69-.05-7.16-1.12-10.8-1.57-2.79-.36-4.63-.08-7-2.21-2.48-2.28-3.72-5.09-2.4-7.71.67-1.33,4.59-1.18,6-1.39.33-.05,3.43,0,3.44-.07.47-2.26-1.09-4.66,1.45-5.67.28-.11,3.75-.71,4.07-.74,3.55-.3,4.77.23,7.39,1.75C1124.37,359,1122.07,367.33,1121.34,371.8Zm19-35.43c-.61,3.35-5.52,5.85-8.11,7.17a4.55,4.55,0,0,1-2.72.54c-2.69-.33-4.75-3.26-6.2-5.9a19.1,19.1,0,0,1-1.93-5.28c-.3-1.44-1.2-4-.41-5.37,1-1.76,3.9-1.79,5.57-1.81,2.62,0,5.37-.24,7.9.65a9.46,9.46,0,0,1,5.48,5.53A8.72,8.72,0,0,1,1140.3,336.37Zm45.39,10.53a33.34,33.34,0,0,1-4.84,4.52,14.85,14.85,0,0,1-4.06,2.33l-.64.24c-2.34.86-5.43.62-7.84.23-3.57-.58-7.23-2.41-8.37-6.43-2-7.25,6.34-13.23,13.35-13a23.28,23.28,0,0,1,8.59,1.92c2,.84,6.72,2.71,6.67,5.52C1188.53,343.8,1186.61,345.76,1185.69,346.9Zm29.63,17.61a6.75,6.75,0,0,1-3.47,4.58,2.87,2.87,0,0,1-.4.18c-3.84,1.58-8.92-.39-11.13-4.35-2.36-4.26-1.66-10.37,1.57-13.74,4.1-4.27,11.74-2.85,14.23,2.86C1217.7,357.67,1216.26,361.06,1215.32,364.51Z"/><path class="cls-15" d="M1041.42,154.55H1041l-23.1,1v98.28c9,.66,18,1.6,27.05,2.71,17.42,2.14,34.83,4.86,52.13,7.15,49.47,6.54,102.44,9,146.52-14.39q2.46-1.31,4.85-2.75V124.76c-39,19-88.14,24.65-132.5,26.56Zm-.06,88.78L1041,246c-3.79,1.56-8.24-2.36-8.11-6.45s3.63-7.49,7.54-8.73,8.15-.75,12.2-.06C1054.46,237.24,1048,244.45,1041.36,243.33Zm32.46-20-.33,2.69c-3.8,1.56-8.24-2.36-8.12-6.45s3.63-7.49,7.55-8.72,8.15-.75,12.19-.06C1086.92,217.27,1080.43,224.48,1073.82,223.37Zm62.51-1.44c-1.34,1.27-3.33,1.54-5.18,1.63a46.64,46.64,0,0,1-11.37-.8l.72-.92c-4.88,2.31-11.21-3.53-9.29-8.57,2.39-6.31,11.54-5.63,17.88-3.29,2.64,1,5.36,2.11,7.13,4.3S1138.37,220,1136.33,221.93Zm17.28,25.93-1.51,2.49c-5.85-.4-6.66-9.84-2-13.41s11.2-2.79,16.94-1.62A17.51,17.51,0,0,1,1153.61,247.86Zm45.93-23.56h.14c.13,1.91-2.68,2.29-4.56,1.93-3.38-.65-7.42-1.9-8.2-5.25-1-4.15,3.92-7.17,8.07-8.2a51.4,51.4,0,0,1,14-1.46C1210.25,217.23,1205.33,223.3,1199.54,224.3ZM1165.21,194a6.79,6.79,0,0,1,3.14,1.91c2.37,2.91-.22,7.19-3,9.77a60.89,60.89,0,0,1-9,7l1.1-.94c-6.09,2-11.76-6.41-9-12.17S1159.15,191.94,1165.21,194Z"/><path class="cls-16" d="M1183.17,460.4c-4.2-1.33-8.62-.56-12.9.21l8.07,2c-7.7-.16-14.4,9.9-12.8,19.24,5.3,2.26,10.88,4.56,16.4,3.33a13.53,13.53,0,0,0,10-14.21A12.81,12.81,0,0,0,1183.17,460.4Z"/><path class="cls-16" d="M1091.31,459.78l1.78-.12a15.66,15.66,0,0,0-11.17,2.42c-1.19,5.12.79,11.26,4.72,13.42s9.25-.63,10.33-5.78C1097.9,465.24,1094.88,460.24,1091.31,459.78Z"/><path class="cls-16" d="M1054.14,460.19l4.89,2.09a27.65,27.65,0,0,0-11.8,13.24c-.77,1.73-1.39,3.94-.51,5.58a4.53,4.53,0,0,0,2.42,1.89,25.55,25.55,0,0,0,21.42-.66C1071.38,471.1,1063.25,460.14,1054.14,460.19Z"/><path class="cls-16" d="M1122.22,472.4l6.55,1.39a37,37,0,0,0-22.33,7.85,9.76,9.76,0,0,0-3.23,3.64c-1.43,3.16-.22,7.34,2,9.74s5.12,3.43,7.94,4.4c8,2.73,16.59,5.44,24.36,1.92s13.25-16.21,8.28-24.4A30.8,30.8,0,0,0,1122.22,472.4Z"/><path class="cls-17" d="M1119.53,356.21c-2.62-1.52-3.84-2-7.39-1.75-.32,0-3.79.63-4.07.74-2.54,1-1,3.41-1.45,5.67,0,0-3.11,0-3.44.07-1.38.21-5.3.06-6,1.39-1.32,2.62-.08,5.43,2.4,7.71,2.32,2.13,4.16,1.85,7,2.21,3.64.45,7.11,1.52,10.8,1.57a5.34,5.34,0,0,0,3.24-.72,1.69,1.69,0,0,0,.56-.63,2.55,2.55,0,0,0,.18-.67C1122.07,367.33,1124.37,359,1119.53,356.21Z"/><path class="cls-17" d="M1201.89,351.18c-3.23,3.37-3.93,9.48-1.57,13.74,2.21,4,7.29,5.93,11.13,4.35a2.87,2.87,0,0,0,.4-.18,6.75,6.75,0,0,0,3.47-4.58c.94-3.45,2.38-6.84.8-10.47C1213.63,348.33,1206,346.91,1201.89,351.18Z"/><path class="cls-17" d="M1181.88,336.67a23.28,23.28,0,0,0-8.59-1.92c-7-.19-15.39,5.79-13.35,13,1.14,4,4.8,5.85,8.37,6.43,2.41.39,5.5.63,7.84-.23l.64-.24a14.85,14.85,0,0,0,4.06-2.33,33.34,33.34,0,0,0,4.84-4.52c.92-1.14,2.84-3.1,2.86-4.71C1188.6,339.38,1183.84,337.51,1181.88,336.67Z"/><path class="cls-17" d="M1134.4,326.37c-2.53-.89-5.28-.69-7.9-.65-1.67,0-4.56,0-5.57,1.81-.79,1.39.11,3.93.41,5.37a19.1,19.1,0,0,0,1.93,5.28c1.45,2.64,3.51,5.57,6.2,5.9a4.55,4.55,0,0,0,2.72-.54c2.59-1.32,7.5-3.82,8.11-7.17a8.72,8.72,0,0,0-.42-4.47A9.46,9.46,0,0,0,1134.4,326.37Z"/><path class="cls-17" d="M1090.21,336c-4-3.36-10.55-.53-12.61,4.51a12.59,12.59,0,0,0,1.39,11.33c1.19,1.85,2.13,3.14,4.21,2.76,3.81-.71,7.06-2.66,8.79-6.42C1093.83,344.18,1093.47,338.71,1090.21,336Z"/><path class="cls-17" d="M1065.46,354q-2.87-.92-5.79-1.73h0c-1.81-.51-3.63-1-5.45-1.4-2.74-.63-8.62-2.94-10.36.84-.69,1.5-.08,4.23-.13,5.89-.07,2.57-.49,6,.86,8.32,1.5,2.56,6.58,5.4,9.21,4.61l.4-.13c3.7-1.29,5.64-4.5,8.46-7.12,1.19-1.1,2.51-1.78,3.52-3.19C1067.92,357.57,1068.58,355,1065.46,354Z"/><path class="cls-18" d="M1194.43,211.91c-4.86,1.2-10.57,4.74-9.44,9.6.91,3.93,5.63,5.38,9.58,6.14,2.21.43,5.48,0,5.33-2.25h-.16c6.76-1.17,12.52-8.28,11.08-15.2A59.51,59.51,0,0,0,1194.43,211.91Z"/><path class="cls-18" d="M1128.91,210c-6.34-2.34-15.47-3-17.86,3.29-1.91,5,4.41,10.88,9.28,8.57l-.72.92a46.56,46.56,0,0,0,11.36.8c1.84-.09,3.83-.36,5.17-1.63,2-1.93,1.64-5.47-.12-7.65S1131.54,211,1128.91,210Z"/><path class="cls-18" d="M1085,210.83c-4-.69-8.27-1.18-12.17.06s-7.41,4.62-7.54,8.72,4.32,8,8.1,6.45l.34-2.69C1080.33,224.48,1086.81,217.27,1085,210.83Z"/><path class="cls-18" d="M1149.86,236.94c-4.63,3.57-3.82,13,2,13.41l1.5-2.49a17.47,17.47,0,0,0,13.39-12.54C1161,234.15,1154.49,233.37,1149.86,236.94Z"/><path class="cls-18" d="M1157.31,211.7l-1.1.94a60.28,60.28,0,0,0,8.94-7c2.73-2.58,5.32-6.86,2.95-9.77A6.69,6.69,0,0,0,1165,194c-6-2.05-13.86-.22-16.62,5.54S1151.23,213.65,1157.31,211.7Z"/><path class="cls-18" d="M1040.42,230.85c-3.91,1.24-7.41,4.63-7.54,8.73s4.31,8,8.1,6.45l.34-2.7c6.6,1.12,13.08-6.09,11.27-12.54C1048.55,230.1,1044.32,229.62,1040.42,230.85Z"/><path class="cls-19" d="M1017.89,181.85s73.93-17.73,98.73-18.81c44.28-1.91,92.9,28.24,131.82,9.25h0l.08-87.61-1.76.21q-2.9.36-5.79.76c-3.72.51-7.45,1-11.18,1.56-2.81.38-5.61.75-8.41,1.06s-5.53.57-8.28.75a116.65,116.65,0,0,1-12.81.19,81.27,81.27,0,0,1-8.39-.8,70.62,70.62,0,0,1-7.65-1.57,92.84,92.84,0,0,1-14.11-5.24c-3.42-1.55-6.8-3.22-10.18-4.87-4.68-2.3-9.36-4.56-14.15-6.42a72.16,72.16,0,0,0-10.39-3.23c-1.7-.37-3.42-.67-5.16-.88a57.27,57.27,0,0,0-13.6.12,87.19,87.19,0,0,0-11.29,2.2c-7.81,2-15.54,4.91-23.14,7.57l-1,.35q-4.53,1.57-9.07,3-8.07,2.63-16.19,5-5.43,1.56-10.89,3-3.07.81-6.15,1.58-4.41,1.09-8.82,2.11-5,1.16-10,2.21l-2.2.46v48.42a56.39,56.39,0,0,1,0,6.37"/><line class="cls-19" x1="1035.82" y1="185.16" x2="1035.82" y2="193.78"/><path class="cls-18" d="M1035.82,158.48v5.67A48.74,48.74,0,0,0,1035.82,158.48Z"/><path class="cls-18" d="M1049,146.39a8.63,8.63,0,0,0,10.56-.27c1.39-4.11-1.27-9-5.3-10.4l-7.68.38a7.12,7.12,0,0,0-.31.76,8.58,8.58,0,0,0-.1,5.28A8.26,8.26,0,0,0,1049,146.39Z"/><path class="cls-18" d="M1044.74,132.66a7,7,0,0,1,1.38.35l2.17-.11Z"/><path class="cls-18" d="M1092.94,135.5l1.87,1.81a19.66,19.66,0,0,0-8,2.1,3.15,3.15,0,0,0-1.41,1.13c-1.08,1.89,1.75,3.54,3.9,3.91,2.36.41,4.84.81,7.11.05s4.21-3.1,3.66-5.43C1099.45,136.23,1095.85,135.28,1092.94,135.5Z"/><path class="cls-18" d="M1135.62,122.88c2.93-.85,5.05-4.77,3-7.07a15.45,15.45,0,0,1-4.05-1.51,8.36,8.36,0,0,0-7.85,7.09C1129.58,122.54,1132.68,123.72,1135.62,122.88Z"/><path class="cls-18" d="M1169.07,136.2c.86,3.85,6,6,9.33,3.91a8.59,8.59,0,0,0-3.56-10.4l1-1C1172,128.23,1168.21,132.35,1169.07,136.2Z"/><text class="cls-20" transform="translate(1202.15 151.95)">A</text><text class="cls-20" transform="translate(1202.15 234.05)">E</text><text class="cls-20" transform="translate(1205.62 332.33)">Bt</text><text class="cls-20" transform="translate(1202.15 456.06)">C</text><text class="cls-21" transform="translate(1298.42 299.12)">cla<tspan class="cls-22" x="36.72" y="0">y</tspan><tspan x="48.94" y="0"> </tspan><tspan x="0" y="32.07">build</tspan><tspan class="cls-23" x="60.27" y="32.07">-</tspan><tspan x="70.48" y="32.07">up</tspan></text><text class="cls-21" transform="translate(1296.01 124.58)">o<tspan class="cls-22" x="16.2" y="0">r</tspan><tspan x="23.41" y="0">ganic </tspan><tspan class="cls-22" x="101.73" y="0">m</tspan><tspan x="124.31" y="0">at</tspan><tspan class="cls-22" x="147.75" y="0">t</tspan><tspan x="154.17" y="0">er </tspan><tspan x="0" y="32.07">build</tspan><tspan class="cls-23" x="60.27" y="32.07">-</tspan><tspan x="70.48" y="32.07">up</tspan><tspan x="0" y="76.99">leachi</tspan><tspan class="cls-22" x="73.4" y="76.99">n</tspan><tspan x="88.07" y="76.99">g </tspan><tspan class="cls-24" x="113.92" y="76.99">o</tspan><tspan x="129.84" y="76.99">f </tspan><tspan class="cls-22" x="0" y="109.06">m</tspan><tspan x="22.59" y="109.06">obile ele</tspan><tspan class="cls-22" x="127.95" y="109.06">m</tspan><tspan x="150.54" y="109.06">en</tspan><tspan class="cls-24" x="180.9" y="109.06">t</tspan><tspan x="187.58" y="109.06">s</tspan></text><text class="cls-21" transform="translate(1297.29 418.44)">little<tspan x="0" y="32.07">c</tspan><tspan class="cls-22" x="14.46" y="32.07">h</tspan><tspan x="29.13" y="32.07">a</tspan><tspan class="cls-22" x="45.63" y="32.07">n</tspan><tspan x="60.3" y="32.07">ge</tspan></text></g><g id="Layer_25" data-name="Layer 25"><path class="cls-25" d="M390.89,107.15a23.67,23.67,0,1,1,23-24.3A23.67,23.67,0,0,1,390.89,107.15Z"/><polygon class="cls-25" points="386.16 55.83 390.01 48.72 394.24 55.61 386.16 55.83"/><polygon class="cls-25" points="370.68 63.51 369.62 55.5 377.09 58.59 370.68 63.51"/><polygon class="cls-25" points="362.68 78.83 357.11 72.97 364.97 71.08 362.68 78.83"/><polygon class="cls-25" points="365.2 95.92 357.26 94.46 362.5 88.31 365.2 95.92"/><polygon class="cls-25" points="377.3 108.27 370 111.75 370.63 103.7 377.3 108.27"/><polygon class="cls-25" points="394.34 111.15 390.49 118.26 386.26 111.37 394.34 111.15"/><polygon class="cls-25" points="409.82 103.46 410.88 111.48 403.41 108.39 409.82 103.46"/><polygon class="cls-25" points="417.82 88.15 423.39 94.01 415.53 95.9 417.82 88.15"/><polygon class="cls-25" points="415.3 71.05 423.24 72.52 418 78.67 415.3 71.05"/><polygon class="cls-25" points="403.2 58.7 410.5 55.22 409.87 63.28 403.2 58.7"/><path class="cls-26" d="M374.79,137.41h0a111.45,111.45,0,0,0,5.35-10.09c2,3.9,5.88,9.79,5.88,9.79h0l.08.13a6.55,6.55,0,1,1-11.3.17Z"/><path class="cls-26" d="M393.76,139.22h0a84.18,84.18,0,0,0,4-7.61c1.52,2.94,4.43,7.38,4.43,7.38h0a.61.61,0,0,1,.07.1,4.93,4.93,0,1,1-8.53.13Z"/><path class="cls-26" d="M388.43,154.89h0a68.66,68.66,0,0,0,3.28-6.18c1.23,2.39,3.59,6,3.59,6h0l.06.09a3.86,3.86,0,0,1,.56,2,4,4,0,0,1-8,.21A3.88,3.88,0,0,1,388.43,154.89Z"/></g><g id="Layer_24" data-name="Layer 24"><line class="cls-27" x1="700.16" y1="331.47" x2="880.16" y2="331.47"/><polygon class="cls-28" points="875.71 337.34 878.2 331.47 875.71 325.6 889.63 331.47 875.71 337.34"/><path class="cls-29" d="M282.84,207.26c-23.26,20-30.14,52.06-8.08,73.35"/><polygon class="cls-28" points="268.22 282.02 273.46 279.37 275.18 273.76 281.5 286.14 268.22 282.02"/><text class="cls-30" transform="translate(718.13 380.12)">e<tspan class="cls-31" x="16.89" y="0">n</tspan><tspan x="33.25" y="0">e</tspan><tspan class="cls-32" x="50.14" y="0">r</tspan><tspan x="58.18" y="0">g</tspan><tspan class="cls-31" x="76.57" y="0">y</tspan><tspan x="90.18" y="0" xml:space="preserve"> fl</tspan><tspan class="cls-33" x="114.79" y="0">o</tspan><tspan class="cls-32" x="132.54" y="0">w</tspan><tspan x="154.95" y="0"> </tspan><tspan x="-7.7" y="35.75">th</tspan><tspan class="cls-31" x="17" y="35.75">r</tspan><tspan x="25.04" y="35.75">ough ti</tspan><tspan class="cls-32" x="120.58" y="35.75">m</tspan><tspan x="145.76" y="35.75">e</tspan></text><text class="cls-34" transform="translate(110.76 129.02)">biolog<tspan class="cls-35" x="86.34" y="0">y</tspan><tspan x="98.46" y="0">, cli</tspan><tspan class="cls-32" x="142.97" y="0">m</tspan><tspan x="168.14" y="0">a</tspan><tspan class="cls-31" x="186.52" y="0">t</tspan><tspan x="193.67" y="0">e, </tspan><tspan class="cls-31" x="30.01" y="35.75">t</tspan><tspan x="37.16" y="35.75">opog</tspan><tspan class="cls-32" x="110.01" y="35.75">r</tspan><tspan x="118.05" y="35.75">ap</tspan><tspan class="cls-33" x="154.78" y="35.75">h</tspan><tspan class="cls-31" x="171.44" y="35.75">y</tspan></text></g></g></g></svg>