<svg xmlns="http://www.w3.org/2000/svg" xmlns:xlink="http://www.w3.org/1999/xlink" viewBox="0 0 213.23 212.53"><defs><style>.cls-1{fill:none;}.cls-2{clip-path:url(#clip-path);}.cls-3{fill:#ec6a7c;}.cls-4{fill:#fff;}</style><clipPath id="clip-path" transform="translate(2.74 6.51)"><circle class="cls-1" cx="102.82" cy="102.82" r="102.82"/></clipPath></defs><g id="Layer_2" data-name="Layer 2"><g id="Layer_1-2" data-name="Layer 1"><g class="cls-2"><path class="cls-3" d="M198.31,64.39H7.72a102.87,102.87,0,0,1,190.59,0Z" transform="translate(2.74 6.51)"/><path class="cls-3" d="M205.85,103.1a102.39,102.39,0,0,1-6.47,36H6.65A103.15,103.15,0,0,1,7.72,64.39H198.31A102.53,102.53,0,0,1,205.85,103.1Z" transform="translate(2.74 6.51)"/><path class="cls-3" d="M199.38,139.06a102.86,102.86,0,0,1-192.73,0Z" transform="translate(2.74 6.51)"/><path class="cls-1" d="M180.54,95.2l-.15.1" transform="translate(2.74 6.51)"/><path class="cls-4" d="M117.67,158.4c.07-.06.07-.15.09-.23s-.18-.09-.28-.12C117.2,158,117.43,158.57,117.67,158.4Z" transform="translate(2.74 6.51)"/><path class="cls-4" d="M116.05,94.87c4.77,4.82,10.27,8.52,16,12.46,8.26,5.68,15,12.29,17,22.4a46.81,46.81,0,0,0,1.44,5.47c1,3.18,2.45,6.41,5.1,8.45,4.75,3.67,12.06,2.52,16.67,6.37a22.91,22.91,0,0,1,2.9,3.24,66.83,66.83,0,0,0,9.16,9.34c.3-.21.29-.84.59-1a37,37,0,0,0-11-17.44,18.41,18.41,0,0,0-3.79-2.67c-4-2-9.72-1.69-12.63-5.58-1.28-1.7-1.54-3.84-2.31-5.79a66.25,66.25,0,0,1-2.07-6.4,1.86,1.86,0,0,1-.09-1c.54-1.71,2.74,2.12,3.08,2.52,2.65,3.18,6.82,3.81,10.71,4,4.72.26,9.52.32,14.09-.88.91-.23,2-.79,1.89-1.72-.17-1.61-5.18-1.53-6.22-1.63a69.91,69.91,0,0,0-8.8-.23c-4.46.13-7.78-2-11.05-4.81-5-4.3-8.2-8.78-12-14-5.23-7.17-14.95-9.33-21.79-15q-.61-.51-1.2-1.05a31.44,31.44,0,0,1-5.53-7c-1.57-2.64-2.23-5.57-3.45-8.4-1.13-2.64-2.6-5.07-3.12-7.93-.15-.82-.23-1.65-.36-2.48a16.09,16.09,0,0,0-.38-2.29,1.43,1.43,0,0,0-.13-.28.88.88,0,0,0-.48-.29l-.15,0-.12,0a2.32,2.32,0,0,0-1.2,1.81,33.3,33.3,0,0,1-.4,3.63,28.23,28.23,0,0,0-1,3.66,26.41,26.41,0,0,0,.52,9.5,5.42,5.42,0,0,0,.79,1.48c2,3,3.37,6.45,5.63,9.35A49.1,49.1,0,0,0,116.05,94.87Z" transform="translate(2.74 6.51)"/><path class="cls-4" d="M108.79,123.12a13.48,13.48,0,0,0,1.74,2,61.59,61.59,0,0,0,6.1,4.83,43.75,43.75,0,0,1,15.47,17.42c1.21,2.52,2.12,5.21,3.68,7.53a16,16,0,0,0,9.88,6.65c1.22.25,13.34.79,13.36.05,0-1.14-1.25-1.82-2.35-2.14-4.73-1.39-10.19-1.28-13.91-4.52-2.82-2.46-3.94-6.26-5.29-9.74-3.3-8.55-8.56-14.68-15.85-20-6.46-4.74-13.92-9.37-16.43-17.37a51.91,51.91,0,0,0,.93,7.13c.43,2.13,1.2,4.16,1.62,6.28a3.82,3.82,0,0,0,.51,1.15A9.31,9.31,0,0,0,108.79,123.12Z" transform="translate(2.74 6.51)"/><path class="cls-4" d="M210.44,98.83a15.56,15.56,0,0,0-.37-2.13c-2.32-10.27-9.16-20.11-16.13-27.81-3.09-3.41-6.41-6.71-10.48-8.92-3.8-2.06-8.06-3-12.08-4.51a22.8,22.8,0,0,1-10.19-7.67c-.87-1.16-1.62-2.39-2.51-3.53-5.19-6.62-14.18-7.78-21.83-9.72-10.82-2.74-19.44-7.36-21.7-18.92a63.46,63.46,0,0,1-1-13.49,11.35,11.35,0,0,0-.39-4C112-6.86,101.45-7,97.38-6a3.69,3.69,0,0,0-2.16,1.12,4.53,4.53,0,0,0-.49,3.1c.24,4.42-.9,8.78-2,13.06-1.21,4.58-2.45,9.24-5,13.24-4,6.28-11.39,8.79-18.33,10.21-8.46,1.74-16.48,2.46-24,7.13A86.54,86.54,0,0,0,25.19,58.49c-4.69,5.42-8,11.72-11.61,17.89-.74,1.27-1.48,2.55-2.3,3.78a27.37,27.37,0,0,1-4,4.39c-2.82,2.7-5.88,5.32-8,8.6A11.08,11.08,0,0,0-2.7,97.88a6.87,6.87,0,0,0,.15,2.43c.33,1.4.29,3.19,1.5,4.19.25.2.76.39,1,.11a.63.63,0,0,0,.12-.21,4.46,4.46,0,0,1,1.46-1.5C3,101.68,4.29,100.23,5.73,99A51.59,51.59,0,0,0,10,95a51.34,51.34,0,0,0,5.65-7.4c2.46-3.93,5.57-7.09,8-11,4-6.54,7.29-12.57,13.15-17.83a55.4,55.4,0,0,1,20.11-11.4c3.76-1.21,7.88-1,11.76-2,5.68-1.46,10.22-4.84,15.63-6.78.36-.13,2.31-.9,2.51-.47.12.27-.43,1-.55,1.22-.49.84-1.06,1.62-1.57,2.44-.94,1.53-1.83,3.09-2.9,4.53-3.2,4.26-6.71,8.41-9.47,13-3.21,5.33-5,11.5-9.54,15.93-5.7,5.57-13.12,14.19-21.2,16-2.81.61-5.64,0-8.44-.31a13,13,0,0,0-7.46,1.18L17.2,95.83c-.94.41-3.15,2.11-1.12,2.82a3.12,3.12,0,0,0,1.55,0C22,98,26.12,95.91,30.52,95.23A29.49,29.49,0,0,1,35.58,95c1,0,2.73-.44,3.59.24,1.11.88-1.8,2.67-2.39,3.24-1.65,1.62-3.21,3.42-5.36,4.39-1.26.56-2.65.81-3.91,1.36a16.21,16.21,0,0,0-3.62,2.36,20.64,20.64,0,0,0-5.59,5.82c-.9,1.59-1.39,3.39-2.27,5-1.5,2.72-4,4.66-6.08,6.9-.94,1-2.54,2.15-.92,3.12a4.16,4.16,0,0,0,3.77-.28c1.83-1,2.76-2.69,4-4.28q2.1-2.74,3.92-5.69c.48-.78,3.07-3.43,3.15-1a7.39,7.39,0,0,1-.9,3c-1.73,4-3.83,7.88-5,12.12a18,18,0,0,0-.67,6.48c.11,1,.57,4.86,2.07,4.64,1.31-.19,1.32-2.53,1.38-3.5a29.8,29.8,0,0,1,1.55-7.17,70.62,70.62,0,0,1,5.09-12.53A47.14,47.14,0,0,1,35.29,109c2.11-2.14,4.36-4.13,6.66-6.06q1.72-1.44,3.48-2.85c1.21-1,2.49-1.79,3.73-2.74.29-.22.58-.46.86-.7a13.86,13.86,0,0,1,1.58-1.26c2.08-1.31,2.62.71,1.63,2.42-3.16,5.45-8.25,9.53-11.66,14.83a42.46,42.46,0,0,0-3.09,5.95,44.46,44.46,0,0,0-2.72,7.85c-.55,2.4-.8,4.85-1.14,7.29A93.27,93.27,0,0,1,31,149.44c-1,3.05-2.8,5.8-3.67,8.84a16.92,16.92,0,0,0,.14,9.84c.18.58.63,1.27,1.2,1.08a1.09,1.09,0,0,0,.55-.49c1.6-2.48,1.43-5.85,2.3-8.59a43.32,43.32,0,0,1,2.64-5.91,112.9,112.9,0,0,0,7.31-18.68c1.72-6,3.07-11.53,6.1-17,2.52-4.55,7.06-8,10-12.3a229.31,229.31,0,0,0,13.2-22.78c3.41-6.53,6.36-13.29,10-19.7,3.55-6.25,8.75-11.17,14.21-15.85a5.5,5.5,0,0,1,1.92-1.22,1.91,1.91,0,0,1,2.07.57c1.35,1.9-.09,6.53-.3,8.59-.7,6.66-.87,13.37-1.67,20a64.11,64.11,0,0,1-3.3,14.68c-.78,2.09-1.58,4.39-3.14,6s-3.55,3-5.16,4.61c-4.06,4.16-8.38,8-11.26,13.12-.84,1.5-1.51,3.09-2.2,4.66Q69,125.59,65.59,132a31.5,31.5,0,0,1-9.65,11.34q-3.77,2.58-7.45,5.28a6.88,6.88,0,0,0-1.77,1.67.62.62,0,0,0-.12.58c.14.31.6.22.91.09,2.73-1.15,5.42-2.41,8.05-3.76,2.45-1.27,4.8-3,7.33-4a10.39,10.39,0,0,0,3-2.19,28.41,28.41,0,0,0,4.64-6.14c2.67-4.57,4.53-9.6,7.52-14s6.81-7.7,10.66-11.11c1.42-1.26,2.9-1.41,4.57-2.1a44.3,44.3,0,0,1,.16,24.14,32.52,32.52,0,0,1-14.46,19c-3.7,2.14-7.8,3.39-11.76,4.93a49.78,49.78,0,0,0-10.61,5.95c-6.36,4.47-13,9.9-15.12,17.72,3.8-.41,6.55-3.62,9.26-6.31a47.36,47.36,0,0,1,11.36-8.31c3.67-1.93,8.8-4.49,13-4.5-.64,5.62-3.8,10.6-6.9,15.33q-1.71,2.63-3.44,5.23a99.48,99.48,0,0,1-8.84,12c-1.63,1.8-7.31,6.59-6.5,9.42.89,3.14,6.09,2.26,8.33,1.53,2.09-.68,2.45-1.9,3.68-3.71a67.34,67.34,0,0,1,5.22-6.68c.81-.91,1.64-1.8,2.43-2.72,9.9-11.55,13.32-28.06,24.78-38.06,3.17-2.78,8.43-4.1,11.55-.49a14.36,14.36,0,0,1,1.95,3.18,58.54,58.54,0,0,1,2.22,5.59,54.31,54.31,0,0,0,2.61,5.51c.63,1.29,1.26,2.59,2,3.83,1.78,3.11,4.06,5.89,6.12,8.81,2.5,3.55,3.61,7.3,4.83,11.39s1.82,8.37,3.11,12.44a6.08,6.08,0,0,0,1.1,2.22c1.09,1.26,2.26.94,3.67.54,1.56-.43,3-1.08,3.38-1.75,1.32-2.39-1.29-8.3-2.26-10.55-1.12-2.57-2-5.07-3.26-7.62s-2.31-5.12-3.42-7.7c-1-2.27-2.95-4.68-3.18-7.15A36.56,36.56,0,0,1,131,174c2.31,1.58,4.9,2.72,7.05,4.52,5.09,4.26,10.71,9.64,13.68,15.67a12.79,12.79,0,0,0,2,3.33c1.63,1.69,4.83,1.6,5.79-.75a4.06,4.06,0,0,0,.17-2.05,8.5,8.5,0,0,0-1.33-3.6c-.36-.55-.78-1.06-1.16-1.6-1.8-2.5-3.19-5-5.45-7.2-2.59-2.47-5.62-4.48-8.31-6.88a49.52,49.52,0,0,0-9.07-6.78c-4.46-2.46-9.43-4.5-13.5-7.62-4.93-3.79-6.67-11.41-9.13-17a47.81,47.81,0,0,1-2.08-5.28,33.81,33.81,0,0,1-1.08-9,52.13,52.13,0,0,0-.87-9.82c-.36-1.73-.82-3.45-1.18-5.19s-.2-3.57-.62-5.2c0-.11-.06-.23-.09-.34-1.06-4.57-.84-9.32-.44-14q.51-6,1.39-12c.74-5,1.67-10,2.2-15,.36-3.28-.1-6.51-.08-9.77,0-1.51-.19-5.36,1.75-5.93s4.69,1.71,6.15,3c1.88,1.71,4.46,2.21,6.56,3.54s3.58,3.49,6.1,3.45a3.69,3.69,0,0,0,.33-3.53,10,10,0,0,0-2.09-3c-2.84-3.15-4.09-5.67-6-9.47a9.38,9.38,0,0,1-.88-2.19c-.62-3,1.68-2.79,3.76-2.29,6.73,1.62,14.95,2,21.16,5.22,5.26,2.71,7.1,9.13,11.72,12.59,2.44,1.82,5.43,2.69,8.35,3.52,7.13,2,12.85,4.08,18.64,8.9a68,68,0,0,1,13.07,15c1.48,2.25,9,18.41,11.71,15.67A4.76,4.76,0,0,0,210.44,98.83Z" transform="translate(2.74 6.51)"/><path class="cls-4" d="M109.19,45.81c6.47,11.83,19.05,18.71,25.42,30.66,2.65,5,7,10.34,12.6,11.89a70.35,70.35,0,0,0,8.37,1.77,45.39,45.39,0,0,1,6.26,1.15c5.4,1.63,10,5.87,14.57,9.07a67.16,67.16,0,0,1,7.92,6.45,82.23,82.23,0,0,1,7,8.25c.82,1,6.71,7.75,7,3.8a4.24,4.24,0,0,0-.68-2.21,88.17,88.17,0,0,0-5.17-8.88,62.23,62.23,0,0,0-10.66-12c-3.47-3-6.42-5.58-10.66-7.67a68.61,68.61,0,0,0-9-3.94c-3-1-6.16-1.56-9.12-2.74-7.44-3-12.54-9-16.18-16A63.48,63.48,0,0,0,130.63,55c-2.58-3.2-6.41-5.07-8.81-8.46-2.12-3-3.24-6.63-5.54-9.5-1.35,2.26-3,8.49-6.36,8.79" transform="translate(2.74 6.51)"/></g></g></g></svg>