<?xml version="1.0" encoding="utf-8"?>
<!-- Generator: Adobe Illustrator 16.0.0, SVG Export Plug-In . SVG Version: 6.00 Build 0)  -->
<!DOCTYPE svg PUBLIC "-//W3C//DTD SVG 1.1//EN" "http://www.w3.org/Graphics/SVG/1.1/DTD/svg11.dtd">
<svg version="1.1" xmlns="http://www.w3.org/2000/svg" xmlns:xlink="http://www.w3.org/1999/xlink" x="0px" y="0px" width="141px"
	 height="64.726px" viewBox="0 0 141 64.726" enable-background="new 0 0 141 64.726" xml:space="preserve">
<g id="Layer_1">
	<g>
		<path fill="#E96A7C" d="M71.008,35.605l1.346-1.675c0.583,0.688,1.51,1.227,2.303,1.227c0.748,0,1.196-0.434,1.196-0.987
			c0-1.824-4.546-1.361-4.516-4.77c0-1.6,1.346-2.916,3.35-2.916c1.406,0,2.587,0.703,3.305,1.436l-1.256,1.66
			c-0.479-0.463-1.256-0.942-1.959-0.942c-0.673,0-1.107,0.374-1.107,0.897c0,1.645,4.546,1.361,4.516,4.741
			c-0.015,1.689-1.316,3.036-3.514,3.036C73.191,37.31,71.801,36.577,71.008,35.605z"/>
		<path fill="#E96A7C" d="M79.355,31.896c0-2.901,2.108-5.428,5.413-5.428c3.29,0,5.413,2.527,5.413,5.428
			c0,2.916-2.124,5.428-5.413,5.428C81.464,37.325,79.355,34.812,79.355,31.896z M87.924,31.896c0-1.705-1.256-3.23-3.155-3.23
			c-1.914,0-3.155,1.525-3.155,3.23s1.241,3.245,3.155,3.245C86.667,35.142,87.924,33.601,87.924,31.896z"/>
		<path fill="#E96A7C" d="M91.891,26.663h2.198V37.13h-2.198V26.663z"/>
		<path fill="#E96A7C" d="M101.836,35.007v2.124h-5.683V26.663h2.198v8.344H101.836z"/>
		<path fill="#E96A7C" d="M113.534,35.007v2.124h-5.683V26.663h2.198v8.344H113.534z"/>
		<path fill="#E96A7C" d="M114.732,26.663h2.198V37.13h-2.198V26.663z"/>
		<path fill="#E96A7C" d="M121.193,28.786v2.467h2.722v2.064h-2.722v3.813h-2.198V26.663h6.042v2.124H121.193z"/>
		<path fill="#E96A7C" d="M128.374,28.786v2.064h3.021v1.974h-3.021v2.183h3.993v2.124h-6.191V26.663h6.191v2.124H128.374z"/>
	</g>
	<g>
		<circle fill="#EB6B7C" cx="33.622" cy="32.388" r="26.435"/>
		<g>
			<path fill="#FFFFFF" d="M31.469,52.489c0-0.017,0-0.035,0-0.053c0-0.003,0-0.007,0-0.011V52.489z"/>
			<path fill="#FFFFFF" d="M38.93,37.535c-0.006,0.003-0.01,0.007-0.016,0.011c-0.005,0.006-0.011,0.014-0.016,0.021L38.93,37.535z"
				/>
			<path fill="#FFFFFF" d="M33.565,53.631c-0.002,0.019-0.002,0.039,0.001,0.06c0.005,0.006,0.01,0.013,0.015,0.019L33.565,53.631z"
				/>
			<path fill="#FFFFFF" d="M29.592,44.839c-0.003-0.011-0.008-0.02-0.011-0.031c-0.007-0.011-0.014-0.021-0.02-0.031L29.592,44.839z
				"/>
			<path fill="#FFFFFF" d="M46.762,35.856c0.018,0.037,0.028,0.073,0.039,0.111c0.009,0.008,0.016,0.013,0.023,0.014L46.762,35.856z
				"/>
			<path fill="#FFFFFF" d="M54.323,38.041c-0.004,0.006-0.003,0.015-0.005,0.022c0.001,0.006,0.003,0.012,0.005,0.019
				C54.327,38.104,54.323,38.048,54.323,38.041z"/>
			<path fill="#FFFFFF" d="M29.119,36.2l-0.06,0.084c0.016,0.003,0.03,0.001,0.044-0.004c0.005-0.017,0.011-0.033,0.016-0.05
				C29.119,36.219,29.119,36.21,29.119,36.2z"/>
			<path fill="#FFFFFF" d="M50.673,52.591c-0.374-0.03-0.129-0.288-0.267-0.58c-0.038-0.146-0.022-0.285-0.057-0.43
				c-0.04-0.167-0.182-0.258-0.272-0.396c-0.098-0.15-0.155-0.283-0.271-0.416c-0.118-0.137-0.264-0.249-0.376-0.375
				c-0.128-0.146-0.08-0.257-0.103-0.435c-0.019-0.14-0.069-0.237-0.131-0.358c-0.102-0.199-0.201-0.431-0.328-0.612
				c-0.107-0.153-0.279-0.267-0.313-0.436c-0.051-0.248,0.059-0.432-0.084-0.668c-0.129-0.214-0.276-0.308-0.459-0.448
				c-0.104-0.079-0.149-0.189-0.233-0.279c-0.095-0.102-0.22-0.148-0.33-0.227c-0.219-0.157-0.417-0.385-0.562-0.607
				c-0.213-0.324-0.405-0.905-0.793-1.062l0.083,0.02c-0.19-0.084-0.402-0.266-0.562-0.397c-0.132-0.108-0.185-0.138-0.235-0.308
				c-0.087-0.295,0.079-0.763-0.229-0.965c-0.129-0.085-0.261-0.061-0.393-0.183c-0.082-0.076-0.179-0.161-0.213-0.274
				c-0.056-0.184,0.017-0.457-0.183-0.211c-0.018,0.021-0.039,0.273-0.161,0.185c-0.062-0.044-0.015-0.219-0.005-0.281
				c0.042-0.26,0.207-0.557,0.022-0.795c-0.153-0.197-0.444-0.269-0.609-0.462c-0.155-0.181-0.199-0.401-0.367-0.58
				c-0.297-0.316-1.072-0.281-1.023-0.894c0.333,0.07,0.597,0.054,0.914,0.206c0.143,0.067,0.271,0.217,0.418,0.183
				c0.155-0.036,0.207-0.191,0.205-0.331c-0.413,0.068-0.511-0.176-0.81-0.374c-0.321-0.213-0.646-0.176-0.771-0.61v0.104
				c-0.116-0.326-0.151-0.694-0.359-0.984c-0.161-0.225-0.331-0.443-0.518-0.643c-0.135-0.144-0.334-0.25-0.459-0.396
				c-0.244-0.285-0.225-0.738-0.375-1.065c-0.165-0.359-0.418-0.619-0.352-1.061c0.404-0.037,0.542,0.623,0.955,0.619
				c-0.171-0.162-0.265-0.414-0.378-0.626c-0.106-0.199-0.286-0.368-0.355-0.582c-0.142-0.437-0.101-1.084,0.215-1.421
				c0.329-0.353,0.595-0.665,0.839-1.096c0.213-0.379,0.267-0.737,0.287-1.172c0.008-0.183,0.022-0.381,0.061-0.558
				c0.05-0.223,0.208-0.397,0.277-0.609c0.06-0.186,0.028-0.385,0.037-0.583c0.011-0.249,0.112-0.458,0.146-0.69l-0.021,0.104
				c0.057-0.233,0.267-0.192,0.418-0.047c0.185,0.178,0.132,0.508,0.107,0.751c-0.062,0.612-0.06,1.218,0.126,1.801
				c0.095,0.3,0.157,0.606,0.307,0.878c0.145,0.262,0.146,0.524,0.255,0.788c0.145,0.346,0.291,0.075,0.538,0.167
				c0.111,0.041,0.338,0.336,0.314,0.48c-0.009,0.047-0.116,0.195-0.167,0.208c-0.133,0.036-0.164-0.101-0.312-0.06
				c0.016,0.359,0.327,0.841,0.481,1.17c0.105,0.224,0.218,0.482,0.288,0.72c0.071,0.244,0.025,0.505,0.166,0.714
				c0.13,0.193,0.383,0.321,0.48,0.522c0.08,0.166,0.081,0.405,0.104,0.583c0.059,0.457,0.305,0.77,0.401,1.19
				c0.036,0.156,0.088,0.342,0.156,0.483c0.074,0.155,0.216,0.263,0.276,0.433c0.106,0.297,0.036,0.53,0.042,0.814l-0.063-0.146
				c0.032,0.064,0.046,0.138,0.038,0.207c-0.261-0.251-0.443-0.54-0.511-0.888c-0.077,0.056-0.181-0.004-0.256,0.05
				c-0.088,0.062-0.012,0.275-0.146,0.278c-0.058,0.001-0.271-0.24-0.332-0.292c-0.109-0.09-0.275-0.204-0.337-0.33
				c0,0.003,0,0.008,0.001,0.012c-0.089,0.077,0.07,0.61,0.121,0.693c0.12,0.194,0.31,0.428,0.532,0.496
				c0.438,0.133,1.04-0.023,0.976,0.671c-0.026,0.286-0.09,0.333-0.313,0.417c-0.179,0.067-0.13,0.014-0.209,0.204
				c-0.045,0.107-0.13,0.238-0.147,0.353c-0.028,0.195,0.143,0.425,0.23,0.59c0.087,0.165,0.21,0.424,0.349,0.539
				c0.121-0.242-0.233-0.843,0.089-0.973c0.422-0.171,0.674,0.839,0.792,1.076c0.135,0.269,0.347,0.394,0.522,0.613
				c0.047,0.059,0.109,0.149,0.104,0.226c-0.01,0.143-0.055,0.057-0.099,0.13c-0.213,0.344,0.055,0.753-0.044,1.16
				c0.262,0.022,0.4-0.077,0.602-0.226c0.164-0.121,0.396-0.19,0.522-0.355c0.233-0.308,0.185-0.98-0.083-1.256
				c-0.177-0.183-0.338-0.202-0.356-0.496c-0.011-0.185,0.037-0.376-0.057-0.543c-0.054-0.095-0.175-0.14-0.236-0.229
				c-0.056-0.081-0.066-0.169-0.104-0.255c-0.058-0.136-0.239-0.349-0.169-0.491c-0.244-0.301-0.007-0.565-0.059-0.902
				c-0.014-0.091-0.094-0.177-0.105-0.25c-0.016-0.104,0.036-0.131,0.048-0.229c0.025-0.207-0.1-0.378-0.188-0.564
				c-0.186-0.39,0.026-0.821-0.193-1.188c-0.128-0.215-0.196-0.3-0.229-0.559c-0.024-0.198-0.104-0.371-0.125-0.568
				c-0.044-0.392,0.184-0.777,0.081-1.14c-0.067-0.06-0.186-0.299-0.269-0.377c-0.136-0.128-0.349-0.183-0.292-0.402
				c0.042-0.166,0.175-0.19,0.125-0.397c-0.035-0.145-0.154-0.287-0.23-0.399c-0.193-0.288-0.413-0.48-0.375-0.85
				c0.021-0.208,0.036-0.92-0.308-0.9c-0.001-0.113-0.146-0.118-0.152-0.206c-0.009-0.125,0.169-0.146,0.232-0.213
				c0.172-0.181-0.024-0.295-0.13-0.477c-0.131-0.226-0.183-0.292-0.183-0.566c0-0.213,0.06-0.44-0.026-0.637
				c-0.033-0.075-0.134-0.135-0.142-0.234c-0.007-0.084,0.055-0.152,0.064-0.235c0.02-0.19-0.041-0.411-0.078-0.595
				c-0.092-0.447-0.108-0.915-0.152-1.375c-0.046-0.488-0.151-0.944-0.122-1.442c0.193,0.057,0.297,0.38,0.393,0.544
				c0.104,0.178,0.277,0.336,0.271,0.559l-0.021-0.032c0.053,0.142,0.057,0.282,0.123,0.428c0.084,0.182,0.182,0.349,0.284,0.522
				c0.16,0.271,0.321,0.53,0.346,0.844c0.003-0.004,0.026-0.032,0.02-0.022c0.02,0.125,0.071,0.239,0.114,0.358
				c0.055,0.149,0.051,0.31,0.104,0.455c0.1,0.272,0.313,0.489,0.431,0.75c0.092,0.207,0.247,0.345,0.341,0.544
				c0.061,0.127,0.056,0.25,0.139,0.363c0.052,0.072,0.141,0.135,0.171,0.219c0.065,0.175-0.002,0.374,0.087,0.551
				c0.042,0.085,0.111,0.14,0.114,0.236c0.002,0.099-0.045,0.221-0.104,0.3c-0.046,0.062-0.212,0.103-0.224,0.185
				c-0.013,0.088,0.079,0.077,0.143,0.06c0.126-0.035,0.281-0.15,0.36-0.255c0.12-0.157,0.244-0.422,0.474-0.258
				c0.094,0.066,0.133,0.109,0.253,0.124c0.07,0.008,0.14-0.002,0.204,0.038c0.083,0.053,0.135,0.161,0.206,0.232
				c0.097,0.097,0.204,0.093,0.337,0.104c0.194,0.018,0.387,0.02,0.583,0.02c0.41,0.001,0.818-0.042,1.23-0.042
				c0.201,0,0.606-0.11,0.772,0.042l-0.031-0.015c0.151,0.085,0.335,0.259,0.379,0.433c0.033,0.13-0.028,0.305,0.09,0.4
				c0.051,0.042,0.131,0.005,0.175,0.058c0.038,0.047,0.003,0.123,0.013,0.175c0.027,0.163,0.12,0.306,0.141,0.47
				c0.016,0.115-0.011,0.209,0.042,0.313c0.042,0.082,0.091,0.112,0.118,0.204c0.059,0.198,0.05,0.431,0.142,0.623
				c0.039,0.082,0.103,0.097,0.152,0.156c0.015,0.017,0.013,0.081,0.031,0.106c0.013,0.019,0.085,0.045,0.107,0.053
				c0.042,0.204,0.016,0.459,0.111,0.624c0.077,0.131,0.178,0.264,0.236,0.422c0.134,0.373,0.327,0.764,0.437,1.126h-0.032
				c0.257,0.02,0.155,0.29,0.187,0.455c0.028,0.144,0.128,0.287,0.207,0.409c0.113,0.177,0.154,0.331,0.153,0.543
				c0,0.244,0.033,0.332,0.185,0.505c0.095,0.11,0.172,0.226,0.191,0.368c0.012,0.09,0.006,0.151,0.035,0.237
				c0.033,0.098,0.1,0.171,0.091,0.28c-0.014,0.173-0.152,0.299-0.173,0.473c-0.016,0.136-0.061,0.326-0.152,0.439
				c-0.038,0.045-0.122,0.071-0.145,0.107c-0.037,0.056-0.015,0.126-0.058,0.186c0.099,0.005,0.269,0.031,0.356-0.023
				c0.083-0.053,0.106-0.181,0.17-0.255c0.082-0.096,0.163-0.132,0.205-0.25c0.03-0.087,0.042-0.203,0.064-0.295
				c0.119-0.013,0.16,0.062,0.216,0.139c0.077,0.101,0.179,0.227,0.247,0.344c0.079,0.133,0.098,0.174,0.224,0.262
				c0.1,0.07,0.15,0.135,0.187,0.248c0.113-0.153,0.111-0.445,0.013-0.621c-0.094-0.165-0.321-0.245-0.424-0.39
				c-0.138-0.194-0.024-0.539,0.008-0.748c0.036-0.24,0.033-0.442,0.044-0.688c-0.025,0.064-0.059,0.112-0.095,0.167
				c-0.028,0.042-0.176,0.336-0.187,0.341c-0.075,0.036-0.306-0.209-0.364-0.266c-0.105-0.101-0.253-0.239-0.293-0.375
				c-0.056-0.189-0.033-0.378-0.016-0.562c0.023-0.227-0.062-0.255-0.169-0.42c-0.089-0.136-0.098-0.329-0.164-0.485
				c-0.067-0.159-0.318-0.552-0.251-0.739c-0.052-0.222-0.129-0.36-0.261-0.544c-0.134-0.184-0.311-0.292-0.364-0.516
				c-0.03-0.131-0.051-0.265-0.094-0.395c-0.045-0.134-0.142-0.232-0.196-0.359c-0.114-0.267-0.148-0.556-0.269-0.81
				c-0.07-0.148-0.134-0.179-0.141-0.359c-0.006-0.17-0.003-0.369,0.031-0.534c0.028-0.132,0.096-0.234,0.095-0.379
				c-0.002-0.201-0.008-0.359,0.047-0.56v0.016c0.157,0.067,0.377,0.045,0.562,0.125c0.193,0.084,0.34,0.198,0.525,0.289
				c0.176,0.087,0.357,0.124,0.538,0.204c0.18,0.08,0.353,0.308,0.56,0.284c-0.096-0.565-0.476-0.681-0.966-0.839
				c-0.268-0.086-0.281-0.278-0.477-0.439c-0.196-0.162-0.47-0.195-0.675-0.351c-0.276-0.208-0.827-0.679-0.975-0.994
				c-0.169-0.359,0.223-1.124-0.434-1.162c-0.024-0.483,0.134-0.901,0.152-1.371c0.019-0.487-0.345-0.803-0.5-1.251
				c-0.163-0.465-0.193-0.791-0.462-1.229c-0.112-0.182-0.216-0.336-0.064-0.555c0.079-0.112,0.398-0.138,0.428-0.262
				c0.038-0.159-0.357-0.278-0.457-0.395c-0.186-0.216-0.342-0.347-0.416-0.627c-0.126-0.48-0.236-0.839-0.562-1.25
				c-0.325-0.412-0.604-0.867-0.915-1.276c-0.175-0.231-0.32-0.18-0.55-0.297c-0.284-0.143-0.372-0.242-0.695-0.305
				c-0.297-0.057-0.358-0.114-0.523-0.351c-0.079-0.112-0.142-0.25-0.251-0.337c-0.1-0.078-0.245-0.082-0.322-0.147
				c-0.513-0.434-0.121-0.891-0.351-1.446c-0.212-0.509-0.831-0.7-1.188-1.058c-0.188-0.187-0.213-0.435-0.461-0.57
				c-0.47-0.257-0.785-0.343-1.062-0.845c-0.107-0.192-0.163-0.262-0.346-0.407c-0.321-0.252-0.29-0.544-0.431-0.915
				c-0.044-0.117-0.05-0.452-0.107-0.527c-0.072-0.096-0.382-0.059-0.497-0.193c-0.186-0.218-0.037-0.732-0.465-0.778
				c0.078-0.211,0.15-0.659,0.011-0.861c-0.137-0.199-0.434-0.16-0.608-0.317c-0.205-0.185-0.242-0.454-0.344-0.696
				c-0.197-0.464-0.461-0.706-0.876-0.977c-0.203-0.133-0.331-0.287-0.494-0.463c-0.144-0.156-0.43-0.278-0.531-0.443
				c-0.167-0.27,0.003-0.42-0.32-0.619c-0.106-0.064-0.372-0.233-0.496-0.224c-0.028-0.114,0-0.258-0.036-0.37
				c-0.048-0.148-0.119-0.153-0.181-0.257c-0.118-0.193-0.242-0.433-0.349-0.62c-0.27-0.471-0.088-0.991-0.905-1.005
				c-0.024-0.542-0.38-1.407-0.114-1.383c-1.852-0.159-2.133-0.16-4.026-0.16c-0.155,0.029,0.03,0.1,0.007,0.348
				c-0.027,0.284-0.047,0.564-0.047,0.855c0,0.354,0.045,0.742-0.089,1.069c-0.094,0.227-0.229,0.413-0.317,0.637L32.047,8.8
				c0.022,0.231-0.115,0.472-0.14,0.701c-0.031,0.276-0.124,0.355-0.33,0.522c-0.144,0.118-0.303,0.418-0.533,0.388
				c-0.178-0.024-0.119-0.223-0.126-0.374c-0.134,0.007-0.261-0.036-0.389,0.031c-0.114,0.061-0.166,0.206-0.269,0.275
				c-0.303,0.206-0.777,0.163-1.119,0.125c-0.579-0.063-1.158-0.067-1.74-0.09c-0.226-0.009-0.264-0.115-0.442-0.215
				c-0.122-0.068-0.285-0.081-0.423-0.099c-0.364-0.047-0.677-0.221-1.058-0.251c-0.081-0.006-0.19,0.024-0.269,0.002
				c-0.058-0.016-0.103-0.084-0.155-0.095c-0.116-0.025-0.301,0.062-0.434,0.078c-0.232,0.026-0.443,0.088-0.677,0.032
				c-0.264-0.063-0.517-0.168-0.786-0.215c-0.248-0.044-0.657-0.064-0.887,0.047c-0.08,0.039-0.112,0.118-0.184,0.157
				c-0.05,0.028-0.115,0.029-0.162,0.042c0.136,0.082,0.258,0.095,0.358,0.251c0.063,0.099,0.062,0.176,0.178,0.202
				c0.099,0.023,0.222,0.012,0.325,0.029c0.106,0.017,0.154,0.027,0.251,0.062c0.038,0.014,0.083,0.001,0.122,0.022
				c0.033,0.018,0.037,0.077,0.065,0.088c0.146,0.055,0.384-0.037,0.38-0.214c0.196,0.062,0.217,0.358,0.436,0.421
				c0.358,0.103,0.876-0.064,1.234-0.11l-0.032-0.016c0.204,0.081,0.301-0.025,0.485-0.075c0.187-0.05,0.359,0.004,0.532,0.072
				c0.209,0.081,0.335,0.078,0.557,0.081c0.214,0.004,0.307,0.119,0.476,0.217c0.19,0.11,0.415,0.161,0.635,0.176
				c0.431,0.029,0.929-0.091,1.348,0.018c0.079,0.021,0.092,0.057,0.194,0.048c0.102-0.009,0.201-0.038,0.292-0.082
				c0.157-0.078,0.251-0.101,0.438-0.092c0.053,0.388-0.315,0.434-0.548,0.592c-0.269,0.182-0.603,0.235-0.918,0.281
				c-0.181,0.026-0.403,0.013-0.58,0.066c-0.258,0.08-0.467,0.292-0.719,0.389c-0.202,0.078-0.423,0.04-0.622,0.145
				c-0.218,0.114-0.361,0.339-0.571,0.465c-0.384,0.232-0.864,0.364-1.291,0.497c-0.199,0.062-0.39,0.134-0.579,0.219
				c-0.181,0.082-0.356,0.25-0.536,0.302h0.031c-0.374,0.264-0.852,0.22-1.154,0.606c-0.209,0.267-0.328,0.514-0.643,0.689
				c-0.182,0.102-0.38,0.108-0.565,0.189c-0.276,0.121-0.462,0.385-0.625,0.625c-0.14,0.205-0.323,0.368-0.469,0.567
				c-0.251,0.343-0.413,0.75-0.727,1.048c-0.22,0.208-0.448,0.441-0.729,0.563c-0.124,0.054-0.283,0.097-0.375,0.203
				c-0.049,0.057-0.075,0.142-0.11,0.205c0.01,0.155-0.199,0.362-0.296,0.482c-0.094,0.115-0.209,0.21-0.294,0.336
				c-0.169,0.25-0.179,0.533-0.36,0.775c-0.189,0.252-0.375,0.421-0.639,0.593c-0.282,0.181-0.506,0.37-0.557,0.709
				c-0.039,0.254-0.095,0.489-0.184,0.73c-0.107,0.289-0.351,0.447-0.562,0.658c-0.214,0.212-0.31,0.317-0.356,0.609
				c-0.04,0.25-0.152,0.419-0.304,0.614c-0.17,0.218-0.344,0.377-0.545,0.561c-0.144,0.131-0.279,0.266-0.312,0.468l0.031-0.016
				c-0.222,0.196-0.095,0.561-0.339,0.723c-0.159,0.105-0.334,0.168-0.489,0.289c-0.185,0.145-0.22,0.302-0.341,0.49
				c-0.227,0.351-0.684,0.621-0.821,1.028c-0.089,0.264-0.075,0.376-0.344,0.501c-0.09,0.041-0.204,0.075-0.277,0.144
				c-0.08,0.075-0.077,0.161-0.129,0.251c-0.125,0.225-0.387,0.243-0.583,0.376c-0.246,0.166-0.307,0.407-0.445,0.653
				c-0.113,0.202-0.362,0.313-0.428,0.532c-0.064,0.22,0.059,0.488-0.026,0.692l-0.016-0.047c0.064,0.327-0.077,0.634-0.167,0.941
				c-0.128,0.438-0.374,0.723-0.696,1.029c-0.166,0.158-0.394,0.333-0.498,0.541c-0.075,0.15-0.03,0.319-0.089,0.477
				c-0.058,0.151-0.181,0.253-0.274,0.375c-0.111,0.147-0.177,0.322-0.204,0.504c-0.056,0.401-0.288,0.822-0.478,1.185
				c-0.007,0.016-0.017,0.03-0.026,0.045c0.074,0.527,0.2,1.354,0.345,2.062c0.008-0.016,0.018-0.034,0.022-0.046
				c0.106-0.268,0.127-0.555,0.218-0.822c0.111-0.323,0.23-0.712,0.492-0.945c0.197-0.175,0.145-0.21,0.169-0.461
				c0.02-0.215,0.154-0.414,0.242-0.599c0.068-0.144,0.062-0.307,0.141-0.451c0.082-0.149,0.169-0.281,0.242-0.44
				c0.142-0.308,0.376-0.598,0.556-0.891c0.135-0.22,0.389-0.483,0.473-0.704l-0.016,0.078c0.035-0.214,0.314-0.343,0.394-0.537
				c0.085-0.208,0.147-0.446,0.213-0.661c0.062-0.201,0.054-0.422,0.159-0.604c0.092-0.16,0.157-0.317,0.24-0.483
				c0.238-0.475,0.734-0.88,1.123-1.235c0.152-0.138,0.33-0.232,0.438-0.406c0.083-0.134,0.153-0.28,0.231-0.41
				c0.048-0.08,0.09-0.15,0.147-0.224c0.072-0.093,0.096-0.168,0.149-0.274c0.117-0.23,0.365-0.454,0.551-0.626
				c0.237-0.219,0.463-0.417,0.74-0.591c0.214-0.133,0.456-0.224,0.649-0.388c0.131,0.106,0.255,0.151,0.269,0.338
				c0.01,0.14-0.036,0.273-0.046,0.411c0.08,0.162-0.162,0.295-0.267,0.372c-0.175,0.128-0.326,0.326-0.422,0.52
				c-0.114,0.229-0.076,0.514-0.144,0.759c-0.06,0.21-0.155,0.387-0.293,0.547c-0.18,0.208-0.351,0.385-0.501,0.614
				c-0.172,0.265-0.14,0.481-0.156,0.785c-0.028,0.535-0.458,0.931-0.691,1.376c-0.139,0.267-0.415,0.381-0.591,0.61
				c-0.138,0.178-0.119,0.401-0.079,0.606l-0.015-0.062c0.135,0.312-0.245,0.763-0.389,1.016c-0.13,0.232-0.253,0.467-0.378,0.703
				c-0.154,0.292-0.413,0.442-0.624,0.687c-0.126,0.146-0.215,0.32-0.344,0.465c-0.097,0.109-0.203,0.214-0.299,0.327
				c-0.202,0.236-0.314,0.546-0.419,0.837c-0.095,0.262-0.215,0.517-0.29,0.786c-0.065,0.237-0.063,0.469-0.136,0.704
				c-0.156,0.498-0.612,0.811-0.833,1.267c-0.106,0.219-0.357,0.201-0.298,0.434c0.08,0.309,0.171,0.525,0.255,0.771
				c0.315,0.019,0.143-0.465,0.208-0.708c0.077,0.126,0.034,0.434,0.027,0.589c-0.013,0.273,0.012,0.23-0.109,0.47l0.396,1.021
				c0.053-0.109,0.01-0.107,0.077-0.318c0.073-0.228,0.138-0.447,0.137-0.687c-0.001-0.214-0.029-0.44,0.077-0.634
				c0.07-0.126,0.139-0.25,0.205-0.379c0.027-0.055,0.081-0.086,0.109-0.125c0.023-0.033,0.034-0.095,0.062-0.125
				c0.103-0.11,0.141-0.075,0.279-0.065c0.171-0.351-0.168-0.267-0.26-0.483c-0.108-0.252,0.19-0.53,0.307-0.703
				c0.154-0.229,0.208-0.514,0.343-0.751c0.127-0.223,0.302-0.413,0.442-0.629c0.115-0.178,0.248-0.304,0.394-0.454
				c0.173-0.177,0.236-0.354,0.328-0.58c0.139-0.338,0.185-0.708,0.262-1.06c0.039-0.181,0.16-0.316,0.251-0.473
				c0.085-0.145,0.111-0.31,0.191-0.461c0.086-0.163,0.184-0.294,0.247-0.474c0.038-0.106,0.081-0.328,0.211-0.354
				c0.054-0.062,0.142-0.218,0.192-0.314c0.096-0.184,0.203-0.303,0.364-0.442c0.156-0.135,0.23-0.302,0.347-0.469
				c0.118-0.166,0.233-0.311,0.297-0.504c0.106-0.315,0.197-0.639,0.312-0.951c0.067-0.18,0.145-0.349,0.2-0.535
				c0.054-0.181,0.045-0.386,0.113-0.556c0.044-0.112,0.152-0.306,0.259-0.363c0.139-0.074,0.227-0.008,0.209-0.217
				c0.034,0.013,0.148,0.03,0.173,0.056c0.047,0.049,0.049,0.144,0.078,0.202c0.098-0.14-0.061-0.294-0.083-0.439
				c-0.018-0.13-0.022-0.337,0.017-0.462c0.046-0.149,0.175-0.269,0.231-0.411c0.049-0.121,0.1-0.237,0.16-0.356
				c0.142-0.278,0.206-0.585,0.403-0.828c0.144-0.177,0.404-0.716,0.677-0.613c0.061-0.074,0.012-0.138-0.012-0.217
				c-0.039-0.129-0.058-0.185-0.031-0.333c0.014-0.085,0.03-0.26,0.089-0.325c0.107-0.117,0.095,0.028,0.188-0.002
				c0.125-0.04,0.176-0.344,0.266-0.436c0.133-0.136,0.296-0.245,0.47-0.314c0.093-0.01,0.242-0.046,0.294-0.118
				c-0.19,0.193-0.233,0.585-0.233,0.849c0,0.453,0.019,0.813-0.344,1.116c-0.322,0.269,0.003,0.557-0.124,0.905
				c-0.051,0.14-0.146,0.241-0.172,0.394c-0.025,0.145-0.022,0.28-0.11,0.407l0.032-0.094c-0.084,0.188-0.144,0.375-0.234,0.56
				c-0.126,0.253-0.236,0.372-0.43,0.57c-0.268,0.273-0.148,0.627-0.333,0.95c-0.095,0.168-0.24,0.309-0.321,0.485
				c-0.083,0.178-0.081,0.379-0.168,0.552c-0.093,0.185-0.248,0.359-0.375,0.524c-0.129,0.168-0.205,0.355-0.329,0.524
				c-0.158,0.215-0.32,0.385-0.425,0.64c-0.075,0.18-0.098,0.385-0.215,0.542c-0.143,0.19-0.38,0.271-0.52,0.471
				c-0.161,0.229-0.285,0.485-0.404,0.736c-0.181,0.383-0.15,0.8-0.254,1.208c-0.051,0.199-0.19,0.324-0.28,0.497
				c-0.094,0.18-0.184,0.384-0.185,0.59c-0.001,0.125-0.058,0.385,0.015,0.479c0.083,0.11,0.232,0.038,0.333,0.014
				c0.278-0.064,0.597-0.057,0.833-0.237c0.159-0.121,0.171-0.246,0.227-0.422c0.048-0.153,0.146-0.248,0.235-0.376
				c0.098-0.141,0.153-0.292,0.191-0.458c0.043-0.188,0.144-0.359,0.153-0.543c0.008-0.185-0.034-0.368,0.062-0.533
				c0.082-0.141,0.212-0.23,0.266-0.387c0.062-0.176,0.095-0.318,0.189-0.488c0.047-0.087,0.068-0.167,0.143-0.232
				c0.055-0.048,0.126-0.055,0.185-0.113c0.137-0.136,0.16-0.342,0.296-0.484c0.135-0.141,0.291-0.185,0.44-0.293
				c0.159-0.117,0.195-0.416,0.25-0.596c0.084-0.274,0.149-0.51,0.297-0.757c0.094-0.158,0.154-0.414,0.356-0.451
				c0.155-0.028,0.292,0.077,0.457,0.044c0.317-0.063,0.768-0.532,0.688-0.857v0.062c0.011-0.154-0.024-0.387-0.09-0.529
				c-0.044-0.096-0.145-0.146-0.161-0.254c-0.034-0.231,0.251-0.38,0.326-0.575c0.067-0.177,0.069-0.422,0.101-0.611
				c0.051-0.314,0.22-0.583,0.411-0.836c0.355-0.472,0.766-1.032,0.864-1.623c0.044-0.265,0.058-0.524-0.09-0.758
				c-0.192-0.305-0.125-0.56-0.14-0.91c-0.023-0.528-0.066-1.042-0.063-1.569h0.016c0.023,0.218,0.28,0.308,0.281,0.527
				c0.064-0.182-0.032-0.39-0.046-0.574c-0.016-0.205,0.101-0.408,0.187-0.587c0.084-0.175,0.205-0.344,0.298-0.522
				c0.075-0.144,0.201-0.4,0.357-0.453c0.025,0.153,0.07,0.293,0.031,0.452c-0.047,0.195-0.042,0.407-0.109,0.6
				c-0.048,0.138-0.092,0.282-0.181,0.402c-0.043,0.057-0.287,0.316-0.038,0.295c-0.012-0.18,0.094-0.115,0.206-0.077
				c0.143,0.049,0.162,0.046,0.27-0.047c0.244-0.212,0.236-0.449,0.279-0.743c0.042-0.287,0.12-0.584,0.175-0.871
				c0.032-0.165,0.079-0.332,0.111-0.498c0.028-0.149,0.021-0.296,0.105-0.423c0.082-0.124,0.222-0.32,0.344-0.406
				c0.125-0.089,0.27-0.017,0.391-0.097c0.15-0.099,0.194-0.31,0.298-0.448c0.078-0.103,0.125-0.263,0.218-0.352
				c0.23-0.219,0.468-0.215,0.737-0.152c0.139,0.032,0.288-0.041,0.122-0.16c-0.118-0.083-0.366-0.123-0.505-0.148
				c0.105-0.347,0.21-0.627,0.475-0.896c0.149-0.15,0.254-0.33,0.393-0.486c0.146-0.167,0.346-0.264,0.546-0.359
				c0.245-0.117,0.471-0.27,0.716-0.384c0.228-0.105,0.49-0.138,0.711-0.256c0.197-0.105,0.386-0.206,0.595-0.295
				c0.116-0.049,0.325-0.29,0.434-0.254l-0.047,0.047c0.106-0.16,0.656-0.179,0.756-0.044c0.038,0.052,0.048,0.141,0.085,0.2
				c0.038,0.059,0.09,0.101,0.129,0.157c0.088,0.125,0.086,0.21,0.058,0.359c-0.027,0.146-0.089,0.222,0.05,0.314
				c0.1,0.065,0.191,0.052,0.298,0.011c0.26-0.099,0.271-0.426,0.25-0.676c-0.031-0.365-0.102-0.723,0.251-0.979
				c0.129-0.095,0.309-0.074,0.424-0.183c0.107-0.1,0.187-0.263,0.294-0.375c0.135-0.143,0.248-0.289,0.419-0.396
				c0.218-0.137,0.421-0.052,0.661-0.092c0.382-0.064,0.58-0.518,0.813-0.766c0.092,0.237,0.055,0.563-0.09,0.777
				c-0.15,0.221-0.425,0.223-0.423,0.5c0.001,0.245,0.021,0.526-0.05,0.77c-0.076,0.261-0.402,0.446-0.376,0.75l-0.016-0.046
				c0.04,0.108-0.236,0.245-0.314,0.327c-0.14,0.151-0.26,0.396-0.308,0.596c-0.101,0.413,0.055,0.841-0.175,1.235
				c-0.147,0.253-0.405,0.322-0.657,0.406c-0.136,0.046-0.243,0.073-0.345,0.173c-0.076,0.074-0.103,0.118-0.204,0.172
				c-0.287,0.15-0.612,0.325-0.642,0.677c-0.029,0.349,0.187,0.72,0.531,0.446c0.267-0.211,0.289-0.521,0.518-0.732
				c0.121-0.112,0.2-0.235,0.285-0.047c0.059,0.13,0.048,0.394-0.02,0.517c-0.089,0.163-0.322,0.221-0.283,0.454
				c0.024,0.146,0.16,0.132,0.157,0.264c-0.004,0.213-0.223,0.26-0.375,0.185c-0.143-0.07-0.179-0.237-0.344-0.09
				c-0.268,0.24,0.216,0.353,0.204,0.61c-0.008,0.17-0.148,0.376-0.233,0.52c-0.069,0.115-0.154,0.225-0.22,0.343
				c-0.044,0.079-0.09,0.275-0.141,0.311l0.047-0.094c-0.121,0.161-0.185,0.354-0.33,0.501c-0.151,0.154-0.308,0.302-0.459,0.453
				c-0.141,0.139-0.304,0.262-0.495,0.314c-0.179,0.047-0.354,0.012-0.503,0.124c-0.127,0.094-0.32,0.26-0.403,0.395
				c-0.104,0.171-0.054,0.374-0.063,0.571c-0.009,0.209-0.027,0.375-0.172,0.533c-0.103,0.111-0.227,0.225-0.308,0.351
				c-0.127,0.196-0.165,0.413-0.192,0.64c-0.022,0.177-0.112,0.332-0.109,0.515c0.003,0.146,0,0.432,0.172,0.486
				c0.165,0.051,0.229-0.113,0.25-0.25c0.033-0.22-0.005-0.44,0.066-0.657c0.065-0.2,0.194-0.292,0.305-0.454
				c0.197-0.287,0.427-0.591,0.411-0.97c-0.007-0.16-0.113-0.308-0.043-0.47c0.048-0.113,0.235-0.264,0.341-0.324
				c0.089-0.05,0.247-0.087,0.344-0.033c0.143,0.082,0.076,0.232,0.144,0.355c0.126-0.017,0.122-0.19,0.153-0.284
				c0.045-0.141,0.12-0.208,0.263-0.276c0.071,0.181-0.057,0.366-0.151,0.514c-0.106,0.169-0.132,0.318-0.16,0.517
				c-0.028,0.201,0.015,0.369,0.036,0.567c0.031,0.284-0.074,0.564-0.051,0.84v-0.094c0.01,0.292-0.147,0.556-0.238,0.829
				c-0.122,0.367-0.229,0.656-0.478,0.955c-0.194,0.232-0.334,0.507-0.526,0.738c-0.185,0.223-0.443,0.377-0.634,0.59
				c-0.31,0.348-0.094,0.848-0.141,1.256c-0.028,0.233-0.15,0.424-0.22,0.643c-0.062,0.189-0.017,0.374-0.09,0.57
				c-0.056,0.15-0.222,0.345-0.239,0.486c-0.011,0.096,0.109,0.409,0.235,0.269l-0.016,0.032c0.112-0.05,0.066-0.177,0.124-0.251
				c0.1-0.126,0.198-0.049,0.28,0.033c0.244,0.244,0.39,0.588,0.235,0.918c-0.098,0.208-0.234,0.41-0.244,0.645
				c-0.008,0.208-0.007,0.421-0.019,0.63c-0.012,0.221-0.01,0.373-0.137,0.562c-0.109,0.161-0.2,0.312-0.224,0.518
				c-0.046,0.405-0.02,0.725-0.249,1.074c-0.221,0.335-0.459,0.794-0.528,1.192c-0.075,0.433-0.178,0.899-0.176,1.336
				c0.001,0.256-0.069,0.433-0.202,0.648c-0.075,0.121-0.144,0.223-0.193,0.356c-0.043,0.118-0.04,0.285-0.122,0.379l0.016-0.015
				c-0.08,0.202-0.152,0.354-0.169,0.583c-0.015,0.206-0.054,0.362-0.113,0.555c-0.095,0.311-0.125,0.664-0.3,0.942
				c-0.221,0.349-0.362,0.811-0.487,1.212c-0.075,0.242-0.093,0.493-0.104,0.743c-0.01,0.229-0.094,0.401-0.169,0.613
				c-0.084,0.243-0.047,0.508-0.145,0.745c-0.099,0.242-0.132,0.493-0.222,0.736c-0.116,0.314-0.139,0.56-0.123,0.894
				c0.012,0.245-0.01,0.521,0.063,0.75l-0.031-0.094c-0.005,0.162,0.126,0.263,0.141,0.422c0.011,0.121-0.007,0.261-0.031,0.376
				c-0.027,0.127-0.125,0.261-0.127,0.391c-0.002,0.111,0.075,0.247,0.107,0.356c0.14,0.463,0.269,0.927,0.477,1.365
				c0.111,0.235,0.09,0.537,0.122,0.797c0.031,0.26,0.008,0.531,0.089,0.782c0.126,0.387,0.033,0.813,0.134,1.208
				c0.102,0.396-0.087,0.779-0.004,1.197c0.035,0.181,0.065,0.363,0.106,0.54c0.031,0.133,0.192,0.592,0.301,0.307
				c0.04-0.102-0.01-0.33-0.02-0.437c-0.012-0.142-0.054-0.271-0.09-0.407c-0.066-0.245,0.034-0.46-0.004-0.703
				c-0.034-0.216-0.148-0.406-0.118-0.629c0.042-0.302,0.027-0.58-0.003-0.885c-0.032-0.32-0.089-0.611-0.075-0.941
				c0.009-0.208-0.017-0.47,0.012-0.657l0.047,0.03c-0.096-0.078-0.16-0.483-0.215-0.624c-0.106-0.275-0.185-0.589-0.207-0.879
				c-0.038-0.467-0.03-0.952-0.129-1.41c-0.065-0.3-0.069-0.585-0.04-0.892c0.027-0.271,0.002-0.544,0.062-0.81
				c0.056-0.25,0.066-0.478,0.075-0.735c0.009-0.275,0.091-0.53,0.183-0.787c0.084-0.232,0.174-0.433,0.192-0.681
				c0.017-0.214,0.072-0.402,0.157-0.601c0.081-0.191,0.122-0.357,0.14-0.563c0.014-0.155-0.013-0.384,0.079-0.513l-0.016,0.047
				c0.06-0.108,0.131-0.206,0.169-0.326c0.039-0.125,0.009-0.253,0.047-0.375c0.076-0.254,0.277-0.47,0.359-0.735
				c0.069-0.222,0.167-0.365,0.271-0.562c0.1-0.19,0.068-0.413,0.136-0.609c0.078-0.224,0.261-0.39,0.313-0.625
				c0.053-0.236,0.045-0.479,0.034-0.717c-0.017-0.379,0.22-0.733,0.278-1.102c0.034-0.219,0.115-0.347,0.21-0.532
				c0.066-0.127,0.172-0.372,0.154-0.516v0.063c0.026-0.233,0.226-0.437,0.269-0.673c0.037-0.199,0.006-0.396,0.063-0.595
				c0.051-0.176,0.159-0.283,0.243-0.438c0.12-0.218,0.077-0.439,0.082-0.673c0.005-0.212,0.061-0.432,0.16-0.623
				c0.087-0.165,0.206-0.307,0.267-0.488c0.063-0.194,0.044-0.397,0.07-0.597c0.052-0.397,0.108-0.785,0.359-1.107
				c0.188-0.243,0.256-0.638,0.335-0.938c0.095-0.354,0.086-0.715,0.276-1.033c0.094-0.161,0.165-0.324,0.285-0.469
				c0.146-0.178,0.275-0.279,0.359-0.501c0.064-0.169,0.118-0.355,0.191-0.519c0.081-0.181,0.23-0.28,0.341-0.435l-0.031,0.093
				c0.062-0.103,0.239-0.37,0.375-0.375c0.197-0.006,0.298,0.27,0.316,0.422c0.067,0.558-0.175,1.206,0.055,1.736
				c0.083,0.193,0.204,0.325,0.224,0.55c0.015,0.179,0.026,0.409,0,0.588c-0.033,0.224-0.018,0.224,0.091,0.439
				c0.057,0.112,0.16,0.216,0.206,0.334c0.077,0.199,0.005,0.391,0.031,0.589c0.024,0.183,0.141,0.342,0.158,0.534
				c0.016,0.185-0.061,0.305-0.111,0.473c-0.069,0.232-0.042,0.382,0.062,0.594c0.09,0.182,0.146,0.362,0.216,0.547
				c0.107,0.283,0.082,0.388-0.087,0.625c-0.16,0.226-0.154,0.455-0.128,0.721c0.02,0.194-0.041,0.365-0.109,0.542
				c-0.004,0.011-0.003,0.027-0.003,0.042l0.019-0.026c-0.006,0.019-0.013,0.037-0.019,0.056c0.002,0.014,0.003,0.029,0.003,0.04
				c-0.006,0.005-0.013,0.007-0.019,0.01c-0.136,0.395-0.357,0.81-0.356,1.222c0.001,0.706-0.09,1.411-0.016,2.116
				c0.027,0.261,0.114,0.512,0.141,0.767c0.023,0.224,0.007,0.375,0.108,0.578c0.121,0.241,0.139,0.435,0.174,0.694
				c0.035,0.264,0.122,0.517,0.125,0.787c0.002,0.225-0.002,0.459,0.109,0.662c0.109,0.196,0.281,0.345,0.25,0.596
				c-0.026,0.216-0.163,0.396-0.173,0.622c-0.007,0.193,0.058,0.319,0.115,0.485c0.058,0.095,0.118,0.182,0.198,0.266
				c0.287,0.301,0.657,0.494,0.939,0.798c0.3,0.325,0.444,0.975,0.407,1.399c-0.021,0.235-0.061,0.48-0.203,0.677
				c-0.173,0.242-0.418,0.265-0.669,0.379c-0.23,0.105-0.393,0.26-0.469,0.5c-0.059,0.186-0.038,0.354-0.207,0.485l0.047-0.062
				c-0.146,0.173-0.356,0.324-0.55,0.453c-0.275,0.184-0.475,0.448-0.753,0.623c-0.148,0.094-0.334,0.132-0.465,0.237
				c-0.177,0.144-0.317,0.356-0.473,0.521c-0.156,0.163-0.376,0.237-0.546,0.385c-0.187,0.16-0.387,0.303-0.572,0.455
				c-0.312,0.257-0.56,0.595-0.915,0.806c-0.177,0.105-0.401,0.118-0.576,0.229c-0.17,0.109-0.213,0.258-0.331,0.404
				c-0.185,0.232-1.108,0.366-0.981,0.798c0.021,0.072,0.064,0.079,0.109,0.137c0.065,0.085,0.048,0.082,0.082,0.191
				c0.053,0.176,0.233,0.261,0.421,0.193c0.173-0.062,0.352-0.318,0.479-0.448c0.154-0.157,0.296-0.288,0.492-0.391
				c0.2-0.104,0.356-0.152,0.509-0.324c0.14-0.156,0.283-0.223,0.473-0.312l-0.032,0.03c0.183,0.025,0.258-0.169,0.375-0.262
				c0.145-0.115,0.317-0.222,0.469-0.329c0.178-0.125,0.381-0.263,0.567-0.375c0.104-0.062,0.232-0.084,0.325-0.16
				c0.073-0.06,0.127-0.162,0.187-0.235c0.31-0.374,0.699-0.655,1.091-0.937c0.358-0.257,0.745-0.509,1.041-0.838
				c0.153-0.169,0.339-0.295,0.48-0.477c0.1-0.129,0.256-0.469,0.405-0.529c0.029,0.089,0.096,0.136,0.113,0.231
				c0.022,0.126-0.058,0.235-0.048,0.36c0.011,0.133,0.086,0.286,0.114,0.418c0.031,0.152,0.031,0.307,0.055,0.459
				c0.043,0.27,0.165,0.545,0.227,0.815c0.075,0.324,0.083,0.717,0.075,1.055c0.034,0.286-0.101,0.672-0.172,0.957
				c-0.06,0.236-0.173,0.477-0.126,0.723c0.035,0.187,0.153,0.359,0.173,0.551c0.024,0.234-0.098,0.487-0.142,0.717
				c-0.047,0.246-0.082,0.461-0.188,0.687c-0.176,0.377-0.199,0.807-0.363,1.192c-0.119,0.28-0.348,0.843-0.103,1.124
				c0.073,0.084,0.269,0.143,0.341,0.062c0.047-0.053,0.074-0.278,0.097-0.357c0.053-0.181,0.098-0.339,0.196-0.504
				c0.103-0.173,0.287-0.285,0.395-0.453c0.087-0.137,0.104-0.32,0.152-0.474c0.06-0.193,0.121-0.407,0.207-0.591
				c0.194-0.412,0.205-0.673,0.138-1.122c-0.031-0.201-0.042-0.391,0.018-0.582c0.056-0.178,0.103-0.466,0.032-0.655
				c-0.017-0.265,0.085-0.541,0.059-0.811c-0.026-0.269,0.037-0.516,0.051-0.787c0.026-0.517-0.166-1.025-0.142-1.548
				c0.011-0.244,0.018-0.432-0.08-0.661c-0.082-0.189-0.173-0.351-0.185-0.56c-0.006-0.116-0.011-0.352,0.128-0.403
				c0.142-0.051,0.185,0.169,0.22,0.277c0.07,0.217,0.228,0.347,0.31,0.548c0.073,0.181,0.091,0.498,0.03,0.673l0.031,0.016
				c-0.106,0.122-0.234,0.354-0.203,0.501c0.042,0.191,0.153,0.348,0.283,0.497c0.189,0.22,0.087,0.412,0.174,0.664
				c0.1,0.291,0.213,0.492,0.152,0.812c-0.055,0.299-0.183,0.626,0.061,0.874c0.047,0.047,0.098,0.123,0.159,0.153
				c0.059,0.028,0.134,0.008,0.192,0.046c0.097,0.062,0.195,0.244,0.262,0.347c0.087,0.134,0.129,0.304,0.246,0.42
				c0.128,0.125,0.226,0.22,0.321,0.374c0.158,0.255,0.257,0.658,0.491,0.852c-0.052-0.085-0.004-0.159,0.01-0.251
				c0.021-0.144,0.021-0.279-0.047-0.408c-0.045-0.087-0.105-0.158-0.18-0.219c-0.126-0.104-0.18-0.177-0.274-0.311
				c-0.145-0.207-0.292-0.394-0.4-0.625c-0.061-0.13-0.208-0.333-0.229-0.491c-0.104-0.145-0.253-0.213-0.202-0.42
				c0.03-0.119,0.095-0.245,0.127-0.374c0.042-0.172,0.085-0.315,0.074-0.493c-0.016-0.249-0.119-0.29-0.266-0.458
				c-0.208-0.234-0.132-0.614-0.284-0.895c-0.084-0.155-0.199-0.248-0.185-0.424c0.011-0.132,0.055-0.274,0.078-0.407
				c0.032-0.177-0.017-0.312-0.031-0.494c-0.017-0.212-0.006-0.381-0.105-0.572c-0.077-0.146-0.13-0.31-0.223-0.446
				c-0.106-0.154-0.198-0.268-0.048-0.438c0.123-0.139,0.297-0.215,0.404-0.379c0.046-0.07,0.096-0.152,0.125-0.23
				c0.018-0.05,0.014-0.169,0.039-0.207c0.222-0.331,0.435,0.256,0.576,0.332c0.104-0.096,0.087-0.217,0.137-0.332
				c0.027-0.062,0.059-0.077,0.082-0.109c0.026-0.036,0.105-0.007,0.079-0.095c-0.028-0.094-0.182-0.015-0.248-0.096
				c-0.044-0.053-0.044-0.258-0.049-0.33c-0.016-0.205,0.087-0.457,0.145-0.653c0.068-0.232,0.234-0.421,0.305-0.658
				c0.077-0.254,0.213-0.464,0.314-0.707c0.103-0.249,0.044-0.525,0.111-0.778c0.088-0.331,0.416-0.514,0.564-0.798
				c0.09-0.172,0.053-0.346,0.047-0.528c-0.007-0.223,0.063-0.409,0.137-0.614c0.054-0.15,0.092-0.316,0.18-0.457
				c0.109-0.176,0.281-0.303,0.435-0.434c0.14-0.119,0.285-0.269,0.453-0.345c0.184-0.083,0.354,0.024,0.544-0.09
				c0.354-0.213,0.051-0.726,0.41-0.938c0.158-0.095,0.35-0.188,0.376-0.392c0.021-0.166,0.008-0.289,0.066-0.456
				c0.134-0.387,0.529-0.45,0.696-0.79c0.076-0.154,0.135-0.278,0.255-0.399c0.076-0.077,0.139-0.182,0.234-0.239
				c0.077-0.1,0.162-0.197,0.173-0.329c0.03,0.115,0.087,0.224,0.124,0.34c0.048,0.15,0.025,0.303,0.067,0.448
				c0.084,0.288,0.382,0.206,0.596,0.354c0.204,0.141,0.343,0.352,0.406,0.595c0.074,0.281,0,0.574,0.121,0.845
				c0.076,0.172,0.213,0.293,0.329,0.442c0.133,0.173,0.219,0.436,0.303,0.643c0.088,0.219,0.132,0.371,0.326,0.547
				c0.198,0.18,0.368,0.352,0.518,0.573c0.157,0.232,0.21,0.519,0.375,0.738c0.199,0.265,0.504,0.369,0.646,0.682
				c0.122,0.269,0.288,0.462,0.427,0.713c0.064,0.117,0.091,0.243,0.204,0.33c0.068,0.054,0.139,0.061,0.202,0.098
				c0.011,0.188-0.083,0.251,0.153,0.365c0.084,0.041,0.194,0.051,0.271,0.109c0.125,0.093,0.283,0.274,0.375,0.406
				c0.154,0.218,0.189,0.452,0.395,0.631c0.205,0.178,0.347,0.323,0.419,0.598c0.083,0.312,0.089,0.305,0.375,0.404
				c0.177,0.062,0.418,0.213,0.522,0.374c0.206,0.325,0.032,0.862,0.436,1.089c0.124-0.073,0.147-0.329,0.244-0.354
				c-0.002,0.006-0.003,0.014-0.005,0.02l-0.009,0.019c0.004-0.003,0.005-0.008,0.007-0.011c-0.028,0.179,0.217,0.394,0.323,0.512
				c0.179,0.202,0.209,0.439,0.258,0.693c0.118,0.607,0.394,1.079,0.922,1.412c0.45,0.282,0.825,0.865,0.996,1.376
				c0.094,0.278,0.204,0.57,0.335,0.831c0.065,0.129,0.034,0.091,0.138,0.191 M46.925,48.188c0-0.002,0-0.003,0-0.005
				c0.001,0,0.002-0.001,0.003-0.001L46.925,48.188z"/>
			<path fill="#FFFFFF" d="M15.561,27.055c-0.004-0.036-0.002-0.071,0-0.106c0-0.001,0-0.002,0-0.004V27.055z"/>
			<path fill="#FFFFFF" d="M18.455,18.639c0.005-0.008,0.01-0.018,0.014-0.028c0-0.001,0.001-0.002,0.001-0.004L18.455,18.639z"/>
			<path fill="#FFFFFF" d="M12.854,33.687c-0.008,0-0.015,0.003-0.023,0.005c-0.002,0.003-0.005,0.008-0.008,0.011L12.854,33.687z"
				/>
		</g>
		<path fill="#EB6B7C" d="M52.487,32.946c-0.007,0.031-0.025,0.102-0.012,0.133c0.021,0.047,0.051,0.027,0.075,0.054
			c0.046,0.058,0.049,0.105,0.072,0.181c0.031,0.101,0.048,0.147,0.159,0.162c0.068,0.009,0.215,0.037,0.28,0.011
			c0.078-0.031,0.09-0.09,0.032-0.155c-0.023-0.024-0.083-0.044-0.113-0.075c-0.046-0.047-0.056-0.073-0.118-0.099
			c-0.088-0.038-0.135-0.023-0.201-0.089c-0.076-0.077-0.081-0.087-0.185-0.112"/>
		<path fill="#EB6B7C" d="M47.888,24.885c-0.098,0.226,0.19,0.433,0.043,0.654c-0.072,0.109-0.167,0.177-0.21,0.311
			c-0.059,0.19-0.044,0.405-0.062,0.602c-0.035,0.369,0.109,0.616,0.281,0.925c0.101,0.181,0.214,0.347,0.281,0.542
			c0.038,0.109,0.066,0.2,0.074,0.315c0.004,0.063-0.008,0.119,0.053,0.154c0.082,0.047,0.252,0.018,0.294-0.063
			c0.076-0.145,0-0.411,0.007-0.571c0.013-0.273-0.009-0.543-0.02-0.816c-0.005-0.122-0.024-0.245-0.019-0.367
			c0.005-0.138,0.047-0.275,0.061-0.413c0.021-0.215-0.027-0.276-0.136-0.442c-0.102-0.154-0.121-0.325-0.25-0.464
			c-0.06-0.064-0.312-0.515-0.417-0.326"/>
		<path fill="#EB6B7C" d="M49.223,25.729c0.12-0.012,0.248-0.024,0.364,0.011c0.127,0.037,0.219,0.127,0.345,0.165
			c0.141,0.042,0.238,0.053,0.313,0.193c0.084,0.16,0.078,0.352,0.085,0.528c0.01,0.229,0.029,0.449,0.102,0.667
			c0.039,0.118,0.061,0.239,0.127,0.345c0.061,0.096,0.13,0.181,0.186,0.282c0.175,0.32,0.322,0.666,0.446,1.011
			c0.065,0.182,0.013,0.354,0.031,0.54c0.015,0.153,0.063,0.248,0.117,0.378l-0.042-0.021c0.199,0.24,0.369,0.921,0.198,1.21
			c-0.069,0.115-0.116,0.056-0.239,0.033c-0.154-0.028-0.248-0.039-0.387-0.116c-0.148-0.082-0.306-0.157-0.475-0.115
			c0.141,0.091,0.258,0.172,0.372,0.305c0.125,0.147,0.292,0.367,0.469,0.457c0.065,0.033,0.138,0.014,0.201,0.043
			c0.056,0.026,0.096,0.091,0.135,0.136c0.116,0.132,0.13,0.272,0.193,0.433c0.034,0.084,0.063,0.148,0.106,0.221
			c0.042,0.069,0.102,0.142,0.032,0.215c-0.037,0.038-0.163,0.069-0.213,0.09c-0.112,0.047-0.222,0.096-0.332,0.146
			c-0.173,0.079-0.243,0.244-0.446,0.248c-0.144,0.002-0.32-0.041-0.385-0.165c-0.034-0.065-0.05-0.164-0.093-0.22
			c-0.036-0.047-0.114-0.086-0.158-0.137c-0.076-0.09-0.283-0.201-0.292-0.321c0.021,0.134,0.554,0.792,0.22,0.864
			c-0.146,0.031-0.37-0.003-0.516-0.023c-0.201-0.029-0.39-0.048-0.566-0.155c-0.162-0.097-0.366-0.104-0.516-0.211
			c-0.134-0.096-0.277-0.223-0.394-0.341c-0.174-0.177-0.123-0.415-0.283-0.595L47.94,31.8c-0.007,0.021-0.009,0.037-0.029,0.042
			c-0.109-0.253-0.279-0.42-0.471-0.608c-0.113-0.109-0.241-0.23-0.301-0.376c-0.031-0.075-0.039-0.16-0.073-0.237
			c-0.042-0.097-0.111-0.164-0.172-0.25c-0.1-0.143-0.158-0.353-0.174-0.524c-0.016-0.176,0.026-0.365-0.065-0.527
			c-0.067-0.122-0.158-0.22-0.222-0.346c-0.085-0.17-0.1-0.32-0.099-0.508c0-0.183-0.049-0.356-0.075-0.535
			c-0.021-0.141-0.049-0.272-0.111-0.401c-0.121-0.245-0.368-0.364-0.493-0.602c-0.06-0.113-0.09-0.239-0.154-0.351
			c-0.042-0.071-0.099-0.126-0.145-0.192c-0.066-0.099-0.181-0.293-0.188-0.414c0.152,0.01,0.358,0.201,0.489,0.279
			c0.27,0.161,0.502,0.339,0.711,0.576c0.427,0.48,0.653,1.093,1.095,1.557c0.092,0.097,0.167,0.151,0.232,0.27
			c0.062,0.113,0.136,0.233,0.214,0.335c0.059,0.075,0.139,0.126,0.19,0.207c0.052,0.081,0.083,0.171,0.125,0.257
			c0.078,0.16,0.086,0.3,0.125,0.47c0.016,0.068,0.05,0.191,0.112,0.232c0.081,0.053,0.184-0.002,0.271,0.011
			c0.24,0.035,0.204,0.281,0.261,0.449c0.064,0.189,0.222,0.268,0.321,0.425c0.09,0.143,0.171,0.187,0.315,0.268
			c0.113,0.063,0.16,0.162,0.24,0.261c0.044-0.079,0.087-0.19,0.029-0.276c-0.068-0.104-0.195-0.146-0.186-0.295
			c0.008-0.129,0.115-0.241,0.237-0.25c0.105-0.008,0.253,0.083,0.345,0.019c0.082-0.058,0.086-0.208,0.013-0.266
			c-0.052-0.042-0.169-0.043-0.231-0.086c-0.061-0.042-0.046-0.036-0.073-0.101c-0.093-0.234-0.414-0.239-0.571-0.447
			c-0.069-0.091-0.066-0.236-0.115-0.337c-0.033-0.07-0.109-0.106-0.138-0.179c-0.039-0.095,0.002-0.224,0.001-0.324
			c-0.002-0.132-0.054-0.206-0.122-0.308c-0.096-0.147-0.063-0.401-0.057-0.578c0.008-0.184,0.03-0.311-0.031-0.489
			c-0.03-0.087-0.035-0.041,0-0.135c0.022-0.06,0.035-0.112,0.042-0.177c0.023-0.224,0.043-0.459,0.032-0.686
			c-0.015-0.3-0.188-0.836,0.239-0.921"/>
		<path fill="#EB6B7C" d="M47.314,22.56c-0.088-0.037-0.202,0.09-0.25,0.156c-0.093,0.128-0.058,0.245,0.006,0.386
			c0.079,0.171,0.169,0.342,0.308,0.472c0.105,0.098,0.248,0.18,0.319,0.31c0.079,0.147,0.063,0.238,0.21,0.345
			c0.158,0.114,0.31,0.145,0.482,0.219c0.144,0.062,0.165,0.189,0.328,0.219c0.235,0.042,0.245,0.186,0.316,0.391
			c0.055,0.163,0.173,0.249,0.303,0.35c0.066,0.052,0.094,0.096,0.176,0.117c0.088,0.023,0.201,0.011,0.291,0.007
			c0.006-0.055,0.014-0.103,0.004-0.156c-0.014-0.076-0.062-0.093-0.096-0.148c-0.09-0.144-0.005-0.302-0.011-0.464
			c-0.005-0.137-0.064-0.253-0.146-0.357c-0.099-0.126-0.101-0.296-0.271-0.347c-0.126-0.037-0.268-0.003-0.394-0.049
			c-0.087-0.033-0.134-0.113-0.21-0.175c-0.117-0.093-0.17-0.216-0.258-0.333c-0.105-0.142-0.224-0.277-0.337-0.411
			c-0.074-0.088-0.054-0.185-0.111-0.269c-0.045-0.066-0.154-0.103-0.219-0.146c-0.172-0.114-0.394-0.136-0.598-0.136"/>
		<path fill="#EB6B7C" d="M43.008,17.554c0.162,0.143,0.167,0.306,0.242,0.488c0.065,0.158,0.229,0.234,0.362,0.329
			c0.315,0.223,0.709,0.237,0.962,0.544c0.115,0.138,0.173,0.249,0.328,0.347c0.15,0.095,0.315,0.129,0.427,0.273
			c0.209,0.269,0.439,0.613,0.441,0.968c0.002,0.39-0.288,0.456-0.583,0.317c-0.271-0.126-0.685,0.014-0.793-0.365
			c-0.047-0.164-0.01-0.348-0.049-0.515c-0.034-0.147-0.145-0.234-0.232-0.353c-0.072-0.096-0.125-0.27-0.229-0.332
			c-0.124-0.072-0.275-0.015-0.385-0.116c-0.119-0.11-0.095-0.263-0.176-0.395c-0.08-0.131-0.149-0.253-0.232-0.376
			c-0.066-0.099-0.033-0.206-0.072-0.312c-0.027-0.072-0.099-0.124-0.126-0.191c-0.049-0.123,0.025-0.258,0.021-0.381
			c0.012,0.048,0.089,0.079,0.125,0.122"/>
		<path fill="#EB6B7C" d="M43.383,20.746c0-0.159,0.028-0.336-0.052-0.478c-0.066-0.115-0.174-0.196-0.252-0.305
			c-0.168-0.234-0.201-0.546-0.353-0.792c-0.131-0.213-0.249-0.422-0.315-0.672c-0.055-0.205-0.07-0.227-0.28-0.266
			c-0.145-0.027-0.197-0.054-0.291-0.167c-0.083-0.1-0.146-0.101-0.261-0.125c-0.171-0.036-0.251-0.145-0.302-0.292
			c-0.043-0.129-0.148-0.224-0.199-0.345c-0.037-0.089-0.016-0.206-0.031-0.302c-0.039-0.242-0.096-0.437-0.375-0.469
			c-0.133-0.015-0.201,0.065-0.323,0.084c-0.124,0.019-0.26,0.069-0.301,0.208c-0.07,0.238,0.193,0.417,0.216,0.64
			c0.018,0.167,0.041,0.283,0.151,0.417c0.117,0.142,0.241,0.095,0.396,0.135c0.331,0.085,0.327,0.467,0.561,0.646
			c0.1,0.077,0.219,0.093,0.321,0.175c0.096,0.076,0.204,0.133,0.294,0.215c0.162,0.147,0.26,0.294,0.282,0.516
			c0.009,0.101,0.017,0.191,0.072,0.28s0.142,0.128,0.205,0.208c0.072,0.093,0.08,0.219,0.137,0.321
			c0.059,0.104,0.14,0.149,0.23,0.221c0.085,0.067,0.174,0.121,0.261,0.188c0.079,0.061,0.117,0.151,0.216,0.156
			c-0.008-0.024-0.04-0.065-0.04-0.093c-0.001-0.052,0.055-0.106,0.053-0.167"/>
		<path fill="#EB6B7C" d="M44.082,21.392c-0.066,0.198,0.018,0.285,0.111,0.438c0.073,0.119,0.069,0.261,0.146,0.063
			c0.052-0.132,0.077-0.237-0.031-0.344c-0.025-0.026-0.082-0.09-0.112-0.107c-0.05-0.028-0.104-0.006-0.146-0.049"/>
		<path fill="#EB6B7C" d="M40.933,20.589c-0.006-0.014-0.103,0.004-0.144,0.028c-0.075,0.043-0.094,0.094-0.083,0.181
			c0.018,0.142,0.16,0.25,0.271,0.314c0.088,0.051,0.151,0.083,0.204,0.175c0.069,0.12-0.002,0.319,0.162,0.334
			c0.105,0.011,0.266-0.036,0.235-0.167c-0.032-0.142-0.206-0.164-0.301-0.24c-0.104-0.082-0.189-0.217-0.222-0.346
			c-0.023-0.09-0.015-0.25-0.143-0.258"/>
		<path fill="#EB6B7C" d="M41.839,21.716c-0.17-0.025-0.157,0.455-0.06,0.533c0.067,0.056,0.137,0.081,0.188,0.156
			c0.025,0.037,0.068,0.182,0.114,0.184c0.101,0.005,0.042-0.449,0.017-0.516c-0.04-0.109-0.151-0.393-0.3-0.357"/>
		<path fill="#EB6B7C" d="M46.95,26.585c0.174-0.01,0.091-0.578,0.117-0.707c0.015-0.08,0.067-0.122,0.102-0.189
			c0.054-0.104,0.059-0.222,0.063-0.339c0.009-0.244-0.01-0.451-0.076-0.683c-0.035-0.126-0.029-0.257-0.06-0.384
			c-0.031-0.129-0.106-0.25-0.167-0.366c-0.123-0.232-0.32-0.426-0.487-0.626c-0.124-0.147-0.265-0.165-0.451-0.209
			c-0.312-0.073-0.62-0.187-0.805-0.45c-0.104-0.147-0.137-0.375-0.311-0.457c-0.098-0.048-0.233-0.093-0.303-0.031
			c-0.083,0.074-0.094,0.155-0.125,0.25c-0.04,0.126-0.103,0.173-0.021,0.302c0.047,0.075,0.122,0.115,0.177,0.181
			c0.062,0.072,0.089,0.146,0.117,0.234c0.056,0.173,0.095,0.349,0.165,0.516c0.147,0.354,0.127,0.758,0.342,1.082
			c0.125,0.19,0.35,0.223,0.474,0.396c0.053,0.075,0.121,0.145,0.188,0.207c0.095,0.089,0.217,0.116,0.308,0.209
			c0.104,0.105,0.173,0.235,0.252,0.359c0.077,0.124,0.21,0.216,0.264,0.351c0.022,0.058,0.094,0.518,0.237,0.334"/>
		<path fill="#EB6B7C" d="M43.811,23.738c-0.116-0.008-0.119,0.189-0.167,0.261c-0.069,0.101-0.146,0.193-0.209,0.302
			c-0.067,0.117-0.16,0.247-0.208,0.374c-0.054,0.143,0.064,0.25,0.107,0.388c0.059,0.194,0.078,0.382,0.08,0.583
			c0.001,0.161,0.108,0.283,0.128,0.448c0.024,0.207,0.068,0.409,0.173,0.596c0.079,0.145,0.232,0.156,0.347,0.26
			c0.046,0.041,0.083,0.108,0.104,0.165c0.029-0.161,0.077-0.259,0.149-0.397c0.076-0.144,0.039-0.309,0.039-0.467
			c0-0.262,0.065-0.344,0.243-0.524c0.131-0.133,0.119-0.398,0.008-0.547c-0.052-0.07-0.137-0.075-0.205-0.119
			c-0.061-0.04-0.118-0.111-0.152-0.175c-0.08-0.156-0.059-0.352-0.11-0.52c-0.045-0.142-0.111-0.269-0.183-0.397
			c-0.044-0.079-0.08-0.202-0.165-0.24"/>
		<path fill="#EB6B7C" d="M42.757,27.242c-0.209-0.017-0.208,0.256-0.208,0.402c-0.002,0.228,0.109,0.344,0.229,0.532
			c0.114,0.181,0.215,0.307,0.229,0.526c0.014,0.234,0,0.475,0,0.71c0,0.253,0,0.503,0.037,0.75
			c0.042,0.283,0.247,0.292,0.334,0.517c0.075,0.194,0.009,0.452,0.071,0.652c0.056,0.182,0.257,0.302,0.245,0.515
			c-0.031-0.358,0.263-0.572,0.271-0.931c0.006-0.259-0.12-0.415-0.204-0.646c-0.084-0.232-0.063-0.525-0.114-0.768
			c-0.046-0.219-0.137-0.43-0.167-0.652c-0.034-0.251,0.007-0.496-0.099-0.735c-0.091-0.207-0.248-0.378-0.354-0.583
			c-0.122-0.231-0.14-0.292-0.396-0.265"/>
		<path fill="#EB6B7C" d="M40.171,22.008c-0.109,0.341-0.129,1.011,0.036,1.333c0.088,0.171,0.174,0.269,0.235,0.461
			c0.053,0.17,0.176,0.306,0.225,0.48c0.046,0.163,0.032,0.331,0.13,0.483c0.1,0.153,0.232,0.24,0.292,0.413
			c0.072,0.213,0.084,0.287,0.253,0.458c0.071,0.073,0.262,0.331,0.4,0.235c0.212-0.146-0.114-0.872-0.157-1.053
			c-0.057-0.237-0.089-0.361-0.229-0.558c-0.125-0.176-0.232-0.339-0.288-0.543c-0.085-0.312-0.377-0.524-0.454-0.855
			c-0.083-0.366-0.035-0.641-0.444-0.832c-0.04-0.001-0.004,0.019-0.019,0.039"/>
		<path fill="#EB6B7C" d="M38.065,19.692c0.056,0.168,0.21,0.391,0.124,0.496c-0.051,0.065-0.126-0.018-0.182,0.092
			c-0.037,0.071,0.006,0.192,0.021,0.262c0.04,0.188,0.059,0.427,0.193,0.588c0.12,0.144,0.319,0.237,0.471,0.337
			c0.173-0.365-0.515-0.643-0.127-0.947c0.083-0.065,0.424-0.188,0.524-0.163c0.209,0.053,0.193,0.324,0.227,0.481
			c0.056,0.255,0.124,0.477,0.127,0.745c0.002,0.249-0.068,0.505-0.063,0.741c0.004,0.199,0.122,0.406,0.215,0.579
			c0.113,0.215,0.102,0.364,0.159,0.585c0.044,0.165,0.17,0.269,0.21,0.437c0.047,0.194,0.026,0.326,0.142,0.5
			c0.122,0.185,0.294,0.351,0.438,0.522c0.161,0.192,0.231,0.357,0.333,0.584c0.172,0.384,0.543,0.828,0.487,1.277
			c-0.025,0.197-0.137,0.356-0.194,0.542c-0.065,0.213-0.059,0.399-0.155,0.6c-0.198,0.411-0.341,0.969-0.428,1.417
			c-0.088,0.455-0.214,0.981-0.577,1.309c0.001-0.011,0.012-0.041,0.01-0.052c-0.159-0.055-0.209-0.14-0.289-0.291
			c-0.055-0.105-0.21-0.26-0.241-0.359c-0.096-0.314,0.318-0.418,0.106-0.735c-0.173-0.256-0.39-0.444-0.341-0.788
			c0.029-0.198,0.297-0.541-0.078-0.643c-0.085,0.138-0.041,0.354-0.049,0.515c-0.246,0.087-0.339,0.009-0.347-0.226
			c-0.009-0.275-0.108-0.293-0.234-0.523c-0.165-0.3-0.158-0.664-0.25-1c-0.057-0.21-0.09-0.487-0.214-0.667
			c-0.118-0.172-0.261-0.19-0.308-0.413c-0.046-0.217-0.075-0.527-0.041-0.75c0.036-0.243,0.206-0.264,0.308-0.464
			c0.182-0.354,0.109-0.843-0.148-1.122c-0.113-0.124-0.264-0.17-0.37-0.276c-0.12-0.119-0.111-0.354-0.105-0.52
			c0.008-0.23,0.093-0.506,0.022-0.732c-0.032-0.102-0.094-0.129-0.146-0.214c-0.051-0.081-0.06-0.168-0.103-0.246
			c-0.054-0.095-0.095-0.066-0.126-0.186c-0.021-0.077-0.011-0.243,0.016-0.315c0.057-0.155,0.225-0.312,0.302-0.457
			c0.136-0.255,0.412-0.767,0.726-0.459"/>
		<path fill="#EB6B7C" d="M35.833,14.416c-0.071,0.194,0.01,0.43-0.103,0.605c-0.125,0.195-0.278,0.204-0.164,0.479
			c0.096,0.228,0.28,0.234,0.409,0.396c0.114,0.143,0.083,0.376,0.107,0.542c0.061,0.432,0.168,0.98,0.065,1.419
			c-0.052,0.218-0.191,0.34-0.279,0.522c-0.073,0.156-0.083,0.393-0.094,0.563c-0.004,0.069-0.025,0.182-0.005,0.25
			c0.035,0.114,0.099,0.104,0.148,0.181c0.128,0.205,0.046,0.22-0.059,0.402c-0.12,0.211-0.026,0.263,0.142,0.438
			c0.118,0.124,0.213,0.346,0.354,0.433c0.32,0.195,0.575-0.56,0.625-0.809c0.041-0.205,0.11-0.319,0.251-0.48
			c0.13-0.149,0.381-0.265,0.475-0.417c0.116-0.188-0.019-0.347-0.059-0.521c-0.049-0.21-0.028-0.436-0.083-0.648
			c-0.044-0.167-0.088-0.378-0.162-0.542c-0.088-0.2-0.27-0.276-0.401-0.438c-0.141-0.171-0.146-0.379-0.25-0.564
			c-0.076-0.135-0.245-0.204-0.309-0.353c-0.068-0.161-0.002-0.391-0.045-0.563c-0.051-0.202-0.146-0.252-0.291-0.375
			c-0.125-0.105-0.201-0.47-0.377-0.459"/>
		<path fill="#EB6B7C" d="M36.563,22.174c-0.068,0.105-0.207,0.64,0.084,0.522c0.22-0.088,0.065-0.491-0.064-0.563"/>
		<path fill="#EB6B7C" d="M38.732,29.432c0.045-0.223-0.01-0.397-0.08-0.605c-0.074-0.223-0.135-0.264-0.279-0.433
			c-0.129-0.149-0.121-0.376-0.251-0.549c-0.142-0.187-0.241-0.264-0.333-0.494c-0.073-0.184-0.167-0.307-0.267-0.464
			c-0.123-0.194-0.075-0.348-0.108-0.562c-0.042-0.264-0.111-1.157-0.574-0.747c-0.224,0.199-0.286,0.695-0.235,0.977
			c0.059,0.326,0.403,0.488,0.497,0.792c0.048,0.159,0.012,0.334,0.108,0.48c0.084,0.129,0.215,0.218,0.298,0.354
			c0.045,0.075,0.054,0.163,0.115,0.231c0.043,0.049,0.117,0.056,0.156,0.098c0.078,0.086,0.131,0.204,0.137,0.315
			c-0.21,0.077-0.328,0.008-0.481,0.191c-0.121,0.144-0.165,0.294-0.183,0.479c-0.031,0.315,0.143,0.779,0.422,0.955
			c0.076,0.048,0.438,0.107,0.516,0.089c0.252-0.06,0.131-0.187,0.043-0.319c-0.101-0.151-0.132-0.317-0.214-0.491
			c-0.066-0.139-0.204-0.318-0.183-0.485c0.019-0.152,0.168-0.222,0.15-0.394c0.153,0.108,0.299,0.083,0.418,0.248
			c0.099,0.138,0.144,0.329,0.267,0.441c0.03-0.042,0.061-0.114,0.062-0.169"/>
		<path fill="#EB6B7C" d="M39.045,32.227c0.157-0.421-0.09-0.646-0.208-1.004c-0.092-0.279-0.191-0.866-0.632-0.522
			c-0.22,0.172-0.119,0.615-0.015,0.837c0.178,0.381,0.52,0.582,0.914,0.646c0.009-0.032-0.004-0.05-0.018-0.081"/>
		<path fill="#EB6B7C" d="M39.629,31.455c-0.142,0.126-0.362,0.25-0.121,0.458c0.209,0.179,0.252-0.285,0.121-0.417"/>
		<path fill="#EB6B7C" d="M38.753,32.623c0.021,0.114-0.001,0.828,0.288,0.58c0.248-0.213-0.245-0.48-0.246-0.664"/>
		<path fill="#EB6B7C" d="M38.211,11.475c-0.03-0.025-0.089-0.038-0.121-0.062c-0.076,0.14,0.11,0.164,0.201,0.205
			c0.018-0.081-0.03-0.052-0.08-0.081"/>
		<path fill="#EB6B7C" d="M39.566,12.893c-0.037-0.039-0.102-0.075-0.146-0.103c-0.067,0.119,0.032,0.199,0.142,0.226
			C39.566,12.979,39.573,12.931,39.566,12.893"/>
		<path fill="#EB6B7C" d="M40.192,13.29c-0.047-0.026-0.106-0.034-0.164,0.003c0.032,0.111,0.291,0.359,0.394,0.331
			c0.151-0.042-0.184-0.328-0.271-0.334"/>
		<path fill="#EB6B7C" d="M37.793,13.164c-0.036,0.276-0.198,0.492,0.083,0.672c0.064,0.041,0.193,0.122,0.271,0.126
			c0.161,0.007,0.071,0.008,0.146-0.131c0.099-0.183,0.184-0.321-0.021-0.501c-0.147-0.129-0.375-0.279-0.5-0.062"/>
		<path fill="#EB6B7C" d="M38.607,14.311c-0.033,0.247,0.14,0.384,0.33,0.478c0.018-0.15-0.093-0.598-0.31-0.498"/>
		<path fill="#EB6B7C" d="M39.316,14.979c-0.061,0.076-0.156,0.159-0.188,0.25c-0.068,0.195,0.038,0.203,0.146,0.333
			c0.172,0.207,0.181,0.557,0.519,0.56c-0.016-0.229-0.167-0.407-0.185-0.622c-0.009-0.112,0.071-0.229,0.027-0.335
			c-0.052-0.125-0.215-0.197-0.319-0.104"/>
		<path fill="#EB6B7C" d="M32.997,14.749c0.031,0.21-0.017,0.401,0.067,0.625c0.108-0.154,0.233-0.523-0.025-0.604"/>
		<path fill="#EB6B7C" d="M32.767,15.271c-0.142,0.076-0.182,0.746,0,0.711c0.082-0.015,0.102-0.654-0.063-0.669"/>
		<path fill="#EB6B7C" d="M33.33,15.354c-0.215,0.118-0.218,0.233-0.271,0.459c-0.038,0.156-0.146,0.278-0.188,0.438
			c-0.031,0.114-0.004,0.416-0.087,0.496c-0.195,0.187-0.217-0.18-0.348-0.247c-0.168-0.084-0.495,0.059-0.587,0.188
			c-0.178,0.254,0.023,0.317,0.234,0.37c0.241,0.06,0.339,0.071,0.372,0.339c0.026,0.208,0.029,0.354-0.166,0.464
			c-0.158,0.089-0.356,0.122-0.445,0.307c-0.117,0.247,0.196,0.484,0.197,0.75c0.105-0.144,0.139-0.336,0.22-0.5
			c0.096-0.193,0.249-0.339,0.356-0.528c0.176-0.312,0.317-0.622,0.501-0.929c0.151-0.252,0.462-0.611,0.467-0.896
			c0.001-0.098-0.131-0.695-0.317-0.694"/>
		<path fill="#EB6B7C" d="M33.726,17.898c-0.05,0.048-0.114,0.179-0.145,0.23c-0.019,0.031-0.208,0.145-0.09,0.255
			c0.094,0.088,0.405-0.299,0.214-0.422"/>
		<path fill="#EB6B7C" d="M32.788,19.921c-0.353-0.142,0.151-0.839,0.438-0.835c0.207,0.003,0.228,0.201,0.313,0.334
			c0.082,0.13,0.246,0.261,0.307,0.437c0.135,0.386,0.052,0.809,0.005,1.186c-0.01,0.082-0.003,0.227-0.056,0.297
			c-0.067,0.087-0.161,0.059-0.256,0.108c-0.256,0.133-0.208,0.24-0.48,0.016c-0.16-0.132-0.276-0.246-0.421-0.396
			c-0.146-0.152-0.293-0.192-0.351-0.417c-0.069-0.273,0.031-0.279,0.25-0.375c0.2-0.087,0.285-0.179,0.209-0.416"/>
		<path fill="#EB6B7C" d="M32.287,21.735c0.033-0.281,0.013-0.517-0.333-0.5c-0.261,0.012-0.389,0.25-0.458,0.481
			c-0.075,0.247,0.138,0.53,0.35,0.266c0.078-0.097-0.006-0.263,0.083-0.334c0.093-0.075,0.172-0.001,0.196,0.106
			c0.08,0.02,0.121-0.011,0.143-0.081"/>
		<path fill="#EB6B7C" d="M30.744,20.859c-0.062,0.107-0.082,0.214-0.125,0.334c-0.033,0.089-0.121,0.187-0.101,0.289
			c0.125,0.007,0.318-0.192,0.352-0.31c0.03-0.106-0.066-0.402-0.147-0.208"/>
		<path fill="#EB6B7C" d="M25.529,30.204c0,0.221,0.028,0.429-0.067,0.625c-0.091,0.189-0.236,0.312-0.266,0.523
			c-0.053,0.371,0.065,0.768,0.12,1.119c0.23-0.589,0.63-1.394,0.506-2.042c-0.047-0.247-0.312-0.347-0.168-0.58
			c0.029-0.048,0.109-0.074,0.146-0.145c0.048-0.09,0.037-0.175,0.042-0.271c0.009-0.162,0.007-0.355-0.084-0.483
			c-0.161,0.14-0.447,0.449-0.527,0.654c-0.145,0.374,0.358,0.48,0.318,0.83"/>
		<path fill="#EB6B7C" d="M26.322,29.536c-0.024,0.002-0.04,0.052-0.04-0.001c0.054-0.182,0.211-0.168,0.228-0.39
			c0.009-0.121,0.008-0.317-0.167-0.296c-0.247,0.029-0.038,0.77-0.042,0.917"/>
		<path fill="#EB6B7C" d="M26.51,28.744c-0.07-0.032,0.025-0.4,0.089-0.495c0.04-0.058,0.107-0.088,0.14-0.15
			c0.055-0.103,0.032-0.237,0.083-0.335c0.083-0.162,0.273-0.297,0.376-0.458c0.111-0.175,0.1-0.35,0.193-0.518
			c0.08-0.145,0.25-0.161,0.266-0.338c0.01-0.109-0.07-0.18-0.104-0.272c-0.041-0.11-0.03-0.223-0.061-0.333
			c-0.055-0.201-0.234-0.275-0.293-0.463c-0.074-0.234-0.03-0.486,0.08-0.686c0.166-0.303,0.261-0.625,0.416-0.942
			c0.074-0.152,0.137-0.332,0.297-0.413c0.148-0.075,0.311-0.023,0.436-0.18c-0.117,0.232-0.307,0.335-0.249,0.62
			c0.051,0.245,0.316,0.459,0.167,0.722c-0.047-0.145-0.137-0.45-0.288-0.369c-0.103,0.054-0.187,0.371-0.172,0.479
			c0.033,0.253,0.19,0.186,0.355,0.296c0.214,0.142,0.186,0.441,0.208,0.663c0.035,0.348-0.107,0.902-0.329,1.191
			c-0.145,0.188-0.302,0.186-0.485,0.306c-0.149,0.097-0.229,0.299-0.333,0.445c-0.08,0.113-0.087,0.155-0.13,0.291
			c-0.058,0.184-0.121,0.201-0.247,0.334c-0.2,0.211-0.217,0.484-0.435,0.667c0.003,0.05,0.019-0.004,0.04,0"/>
		<path fill="#EB6B7C" d="M30.16,31.476c-0.129-0.466-0.227-0.897-0.313-1.372c-0.039-0.211-0.089-0.335-0.188-0.521
			c-0.129-0.244-0.178-0.56-0.224-0.834c-0.052-0.31-0.014-0.575,0.016-0.887c0.023-0.245-0.031-0.552,0.041-0.787
			c0.065-0.211,0.178-0.333,0.121-0.567c-0.059-0.241-0.15-0.399-0.142-0.659c0.012-0.333,0.271-0.66,0.46-0.937
			c0.1,0.402,0.02,0.883,0.02,1.301c0,0.247-0.042,0.521,0.063,0.736c0.094,0.19,0.174,0.266,0.187,0.484
			c0.015,0.267,0.05,0.396,0.183,0.622c0.12,0.199,0.252,0.415,0.301,0.646c0.093,0.439-0.169,0.736-0.213,1.147
			c-0.032,0.299-0.001,0.59-0.083,0.875c-0.051,0.175-0.022,0.68-0.168,0.771c-0.04,0-0.003-0.021-0.019-0.04"/>
		<path fill="#EB6B7C" d="M36.803,34.219c0.278,0.277,0.44-0.118,0.353-0.375c-0.094-0.275-0.263-0.535-0.36-0.814
			c-0.107-0.307-0.352-0.52-0.471-0.813c-0.112-0.276-0.115-0.504-0.365-0.723c-0.169,0.111-0.41,0.561-0.44,0.754
			c-0.052,0.348,0.052,0.74-0.023,1.096c-0.078-0.273-0.206-0.544-0.283-0.821c-0.082-0.296,0.06-0.35,0.089-0.62
			c0.049-0.457-0.42-0.789-0.339-1.295c0.095-0.593,0.115-1.196,0.087-1.799c-0.015-0.312-0.128-0.379-0.244-0.629
			c-0.097-0.207-0.05-0.399-0.07-0.632c-0.052-0.596-0.404-1.09-0.313-1.744c0.036-0.252,0.037-0.45,0.062-0.689
			c0.014-0.139,0.109-0.234,0.096-0.397c-0.013-0.162-0.116-0.271-0.166-0.422c-0.197-0.595,0.137-1.294-0.312-1.832
			c-0.124-0.149-0.458-0.497-0.643-0.219c-0.209,0.314,0.423,0.436,0.15,0.619l0.126,0.094c-0.44-0.033-0.497-0.241-0.689-0.561
			c-0.197-0.327-0.333-0.182-0.658-0.064c-0.578,0.208-1.315,0.443-1.557,1.095c-0.088,0.24-0.145,0.541-0.216,0.79
			c-0.085,0.296,0.043,0.428,0.087,0.743c0.054,0.389-0.054,0.8,0.005,1.189c0.057,0.373,0.139,0.639,0.125,1.025
			c-0.013,0.362,0.095,0.512,0.274,0.812c0.175,0.293,0.198,0.456,0.187,0.789c-0.025,0.717-0.145,1.37-0.242,2.064
			c-0.091,0.655-0.022,1.36-0.155,2.005c-0.07,0.338-0.293,0.638-0.377,0.968c-0.106,0.427,0.103,0.496,0.299,0.844
			c0.235,0.417,0.139,0.955,0.32,1.409l-0.094-0.062c0.169,0.187,0.142,0.552,0.18,0.789c0.047,0.287,0.154,0.558,0.196,0.845
			c0.043,0.296,0.05,0.441,0.196,0.712c0.083,0.156,0.223,0.377,0.181,0.562c-0.061,0.263-0.297,0.432-0.314,0.759
			c-0.021,0.423,0.044,0.911,0.093,1.332c0.039,0.333,0.257,0.564,0.32,0.889c0.075,0.383-0.036,0.764-0.038,1.151l-0.031-0.156
			c0.006,0.2-0.151,0.188-0.189,0.344c-0.035,0.143,0.005,0.354,0.033,0.493c0.027,0.145,0.107,0.274,0.133,0.415
			c0.03,0.157-0.066,0.286-0.065,0.374c0.004,0.246,0.135,0.498,0.151,0.777c0.017,0.301-0.053,0.704,0.04,0.968
			c0.053,0.153,0.322,0.563,0.523,0.533c0.272-0.04,0.136-0.622,0.125-0.837c-0.024-0.491,0.104-0.444,0.367-0.788
			c0.19-0.247,0.122-0.526,0.292-0.769c0.085-0.123,0.203-0.223,0.28-0.358c0.101-0.175,0.084-0.359,0.156-0.524
			c0.13-0.303,0.518-0.395,0.565-0.72c0.021-0.15-0.118-0.297-0.096-0.439c0.021-0.15,0.196-0.229,0.245-0.349
			c0.127-0.31-0.094-0.756,0.107-1.028c0.167-0.225,0.498-0.164,0.721-0.303c0.25-0.156,0.588-0.405,0.776-0.627
			c0.21-0.251,0.285-0.567,0.443-0.853c0.192-0.344,0.396-0.688,0.579-1.038c0.149-0.285,0.611-0.618,0.534-0.925
			c-0.043-0.171-0.407-0.359-0.167-0.539c0.222-0.166,0.331,0.167,0.462,0.31c0.134-0.101,0.079-0.329,0.119-0.491
			c0.035-0.14,0.132-0.268,0.157-0.413c0.062-0.374-0.286-0.816-0.589-0.963c-0.302-0.146-0.66-0.185-0.916-0.421
			c-0.158-0.146-0.367-0.75,0.058-0.645c0.018,0.263,0.28,0.22,0.475,0.214"/>
		<path fill="#EB6B7C" d="M35.645,30.714c-0.144-0.254-0.165,0.303,0.088,0.466c0.01-0.159,0.04-0.339-0.056-0.466"/>
		<path fill="#EB6B7C" d="M30.983,45.263c0.091-0.175-0.369-0.312-0.506-0.399c-0.213-0.135-0.416-0.43-0.4-0.726
			c0.016-0.292,0.277-0.423,0.282-0.721c0.003-0.289-0.18-0.478-0.32-0.72c-0.178-0.309-0.17-0.573-0.25-0.909
			c-0.078-0.325-0.235-0.594-0.275-0.929c-0.088-0.762-0.224-1.537-0.256-2.3c-0.026-0.603,0.22-1.11,0.256-1.705
			c0.017-0.274,0.075-0.555,0.124-0.822c0.044-0.238,0.18-0.45,0.157-0.702c0.059,0.273,0.297,0.441,0.385,0.702
			c0.095,0.284,0.036,0.609,0.054,0.908c0.02,0.302,0.162,0.503,0.258,0.781c0.109,0.314,0.095,0.641,0.205,0.963
			c0.106,0.315,0.222,0.545,0.226,0.883c0.005,0.437-0.029,0.859-0.062,1.289c-0.059,0.739,0.086,1.49,0.186,2.214
			c0.103,0.754-0.125,1.471,0.063,2.191"/>
		<path fill="#EB6B7C" d="M15.717,26.084c-0.048-0.173-0.021-1.03,0.275-0.932c0.318,0.104-0.16,0.81-0.245,0.932"/>
		<path fill="#EB6B7C" d="M16.718,23.895c-0.292-0.161-0.935,0.736-0.65,0.961c0.323,0.256,0.971-0.695,0.619-0.961"/>
		<path fill="#EB6B7C" d="M17.782,22.549c-0.251,0.063-0.333-0.043-0.492,0.227c-0.108,0.183-0.162,0.394,0.031,0.547
			c0.327,0.261,0.77-0.728,0.398-0.742"/>
		<path fill="#EB6B7C" d="M36.302,9.379c-0.074-0.167,0.071-0.559,0.195-0.683c0.261-0.26,0.476-0.096,0.654,0.05
			c0.343,0.279,0.224,0.282-0.16,0.32c-0.233,0.022-0.566,0.313-0.722,0.281"/>
	</g>
</g>
<g id="Layer_2">
</g>
</svg>
