<svg xmlns="http://www.w3.org/2000/svg" viewBox="0 0 49.77 42.17"><defs><style>.cls-1{fill:#fff;stroke:#5d5152;stroke-miterlimit:10;stroke-width:0.75px;}</style></defs><g id="Layer_2" data-name="Layer 2"><g id="Layer_2-2" data-name="Layer 2"><g id="Layer_2-3" data-name="Layer 2"><g id="Layer_1-2" data-name="Layer 1-2"><circle class="cls-1" cx="7.12" cy="7.06" r="4.07"/><circle class="cls-1" cx="43.01" cy="7.06" r="4.07"/><circle class="cls-1" cx="24.92" cy="5.05" r="4.67"/><path class="cls-1" d="M10.43,12h-7A3.08,3.08,0,0,0,.38,15.06v9.72a3.09,3.09,0,0,0,2.44,3V20.52h.23v7.32a2.67,2.67,0,0,0,.4,0h7a3.17,3.17,0,0,0,.76-.1V20.52h.24v7.16a3.08,3.08,0,0,0,2.08-2.9V15.06A3.09,3.09,0,0,0,10.43,12Z"/><path class="cls-1" d="M8.12,23.2h-2a3.09,3.09,0,0,0-3.08,3.07V36a3.09,3.09,0,0,0,3.08,3.08H7V27.84h.24V39.05h.88A3.07,3.07,0,0,0,11.19,36V26.27A3.07,3.07,0,0,0,8.12,23.2Z"/><path class="cls-1" d="M46.32,12h-7a3.08,3.08,0,0,0-3.07,3.08v9.71a3.09,3.09,0,0,0,2.44,3V20.52h.24v7.32a2.56,2.56,0,0,0,.39,0h7a3.3,3.3,0,0,0,.76-.1V20.52h.23v7.16a3.07,3.07,0,0,0,2.08-2.9V15.06A3.09,3.09,0,0,0,46.32,12Z"/><path class="cls-1" d="M44,23.2H42a3.07,3.07,0,0,0-3.07,3.07V36A3.08,3.08,0,0,0,42,39.07h.88V27.84h.23V39.05H44A3.07,3.07,0,0,0,47.07,36V26.27A3.07,3.07,0,0,0,44,23.2Z"/><path class="cls-1" d="M29.18,10.7H20.25a3.09,3.09,0,0,0-3.08,3.08V25.85A3.09,3.09,0,0,0,20,28.91V19.84h.27v9.08h8.92a3.25,3.25,0,0,0,.44,0v-9h.27v9a3.07,3.07,0,0,0,2.36-3V13.78A3.08,3.08,0,0,0,29.18,10.7Z"/><path class="cls-1" d="M26.52,23.57h-3.2a3.09,3.09,0,0,0-3.07,3.08V38.72a3.09,3.09,0,0,0,3.07,3.08h1.51V28.92h.27V41.8h1.41a3.09,3.09,0,0,0,3.09-3.07h0V26.65A3.09,3.09,0,0,0,26.52,23.57Z"/></g></g></g></g></svg>