<svg xmlns="http://www.w3.org/2000/svg" viewBox="0 0 41.69 39.5"><defs><style>.cls-1,.cls-2,.cls-3,.cls-4{fill:none;stroke:#5d5152;stroke-miterlimit:10;}.cls-1{stroke-width:0.75px;}.cls-2{stroke-width:0.76px;}.cls-3{stroke-width:0.76px;}.cls-4{stroke-width:0.5px;}</style></defs><g id="Layer_2" data-name="Layer 2"><g id="Layer_2-2" data-name="Layer 2"><g id="Layer_2-3" data-name="Layer 2"><g id="Layer_1-2" data-name="Layer 1-2"><path class="cls-1" d="M21,3.14A2.86,2.86,0,0,0,17.75.38H1.62V35.55H18.79s2.1.16,2.1,1.66c0,0,.56-1.66,2.06-1.66H40.12V.38h-16S21,.38,21,3.14Z"/><line class="cls-1" x1="23.54" y1="22.3" x2="35.95" y2="22.3"/><line class="cls-1" x1="23.54" y1="25.74" x2="35.95" y2="25.74"/><line class="cls-1" x1="23.54" y1="29.18" x2="35.95" y2="29.18"/><line class="cls-1" x1="23.54" y1="11.97" x2="35.95" y2="11.97"/><line class="cls-1" x1="23.54" y1="15.41" x2="35.95" y2="15.41"/><line class="cls-1" x1="23.54" y1="18.85" x2="35.95" y2="18.85"/><rect class="cls-1" x="6.21" y="6.41" width="10.56" height="6.99"/><line class="cls-2" x1="0.38" y1="2.49" x2="0.38" y2="36.91"/><line class="cls-2" x1="41.31" y1="2.49" x2="41.31" y2="36.91"/><line class="cls-3" x1="41.69" y1="36.77" y2="36.77"/><ellipse class="cls-4" cx="20.84" cy="37.4" rx="3.01" ry="1.14"/></g></g></g></g></svg>