<svg xmlns="http://www.w3.org/2000/svg" viewBox="0 0 18.95 47.31"><defs><style>.cls-1{fill:none;stroke:#5d5152;stroke-miterlimit:10;stroke-width:0.65px;}</style></defs><g id="Layer_2" data-name="Layer 2"><g id="Layer_2-2" data-name="Layer 2"><g id="white_imagery_text" data-name="white imagery + text"><path class="cls-1" d="M8.79,30.37l1-.07-.1,16.5c-.64.5-1.4-.09-1.8-.41Z"/><path class="cls-1" d="M.37,22.74c.44,2.81,3.69,10.5,7,7.9C10.31,27.83,3.12,22.46.37,22.74Z"/><path class="cls-1" d="M1.41,15.11c-.18,3,3.8,10.3,7,8.29C11.35,20.62,4.48,14.53,1.41,15.11Z"/><path class="cls-1" d="M3.45,7.26c0,2.12,1.38,10.3,5.29,8.37C11.21,12.49,9,12.17,3.45,7.26Z"/><path class="cls-1" d="M10.62.47C9,1.78,6.11,8.06,10,9.15,13.17,9.67,12.31,3,10.62.47Z"/><path class="cls-1" d="M16.47,7.52C14,8.43,9,12.89,10.73,15.07,14.28,18.05,16.51,10,16.47,7.52Z"/><path class="cls-1" d="M18.06,15.48c-2.78,1.21-9.93,3.68-7.31,7.51C15.17,26.46,16.77,18,18.06,15.48Z"/><path class="cls-1" d="M18.51,23.3c-4.39,1.75-10.41,4.31-7.15,7.77S18,25.57,18.51,23.3Z"/></g></g></g></svg>