<svg xmlns="http://www.w3.org/2000/svg" viewBox="0 0 37.57 37.65"><defs><style>.cls-1{fill:none;stroke:#5d5152;stroke-miterlimit:10;stroke-width:0.65px;}</style></defs><g id="Layer_2" data-name="Layer 2"><g id="Layer_2-2" data-name="Layer 2"><path class="cls-1" d="M37,21.53l-2.56-.79-2.35-6L31,8.2h3A18.76,18.76,0,0,1,37,21.53Z"/><circle class="cls-1" cx="18.78" cy="18.79" r="18.46"/><path class="cls-1" d="M10.83,2.13l.93,2.26L7.25,9.87l-5,4.41-1.08-1C1.57,10,6.46,3.74,10.83,2.13Z"/><path class="cls-1" d="M24.43,1.21v2.1l-5.65,2-7-.88-.93-2.26C12.54.17,21-.29,24.43,1.21Z"/><path class="cls-1" d="M33.91,8.2H31L24.43,3.31V1.21C29.17,2.5,31.18,5.36,33.91,8.2Z"/><path class="cls-1" d="M29.56,33.78l.8-7.07,4.12-6,2.56.79C37.12,24.85,33.2,31.74,29.56,33.78Z"/><path class="cls-1" d="M22.28,36.92l-5.73-3.14,1.08-6.52,7.25-3.78,5.48,3.23-.8,7.07C29,34.2,25.77,36.59,22.28,36.92Z"/><path class="cls-1" d="M8,33.78l.52-1.19,8,1.19,5.73,3.14C20,37.88,12,37.25,8,33.78Z"/><path class="cls-1" d="M.67,22.39l.9-.86L6,25.93l2.54,6.66L8,33.78C5.47,32.24.73,25.93.67,22.39Z"/><path class="cls-1" d="M2.26,14.28l-.69,7.25Z"/><polygon class="cls-1" points="7.25 9.87 11.76 14.86 10.83 22.7 5.98 25.93 1.57 21.53 2.26 14.28 7.25 9.87"/><polygon class="cls-1" points="18.78 11.14 11.76 14.86 7.25 9.87 11.76 4.39 18.78 5.27 18.78 11.14"/><polygon class="cls-1" points="25.76 16.04 18.78 11.14 18.78 5.27 24.43 3.31 30.95 8.2 32.13 14.77 25.76 16.04"/><polygon class="cls-1" points="24.88 23.48 25.76 16.04 32.13 14.77 34.48 20.74 30.36 26.71 24.88 23.48"/><polygon class="cls-1" points="10.83 22.7 17.63 27.26 16.55 33.78 8.52 32.59 5.98 25.93 10.83 22.7"/></g></g></svg>