<svg xmlns="http://www.w3.org/2000/svg" viewBox="0 0 42.99 50.51"><defs><style>.cls-1,.cls-4{fill:none;}.cls-1,.cls-2,.cls-3,.cls-4{stroke:#5d5152;stroke-miterlimit:10;}.cls-1,.cls-2{stroke-width:0.5px;}.cls-2,.cls-3{fill:#fff;}.cls-3,.cls-4{stroke-width:0.75px;}</style></defs><g id="Layer_2" data-name="Layer 2"><g id="Layer_2-2" data-name="Layer 2"><polyline class="cls-1" points="21.39 6.27 8.06 50.42 23.64 7.01 21.39 6.27 23.64 7.01 21.39 6.27"/><path class="cls-1" d="M20,8.73l-.73,2.59a3.69,3.69,0,0,1-3.5-1.26c-1.58-1.76-.29-2.88-.29-2.88s-2.19-.49-2.89-2a4.13,4.13,0,0,1,0-3.12,27.61,27.61,0,0,1-6.06,1.8C3.32,4.36,1,4.25.38,2.9A50.71,50.71,0,0,0,10,1.14s5.3-1.79,7.91-.29,1.62,3.36,1.62,3.36-.2.73-1.41,1.21a1.32,1.32,0,0,0-.69,1.76S17.6,8.18,20,8.73Z"/><path class="cls-2" d="M13,6.84a38,38,0,0,1-3.81,1.6s.93,1,2.8.21a9.75,9.75,0,0,0,2.2-1.19A6.92,6.92,0,0,1,13,6.84Z"/><line class="cls-3" x1="14.24" y1="7.42" x2="13.1" y2="6.79"/><path class="cls-2" d="M11.66,5.3A20.27,20.27,0,0,1,6,6.92a3.59,3.59,0,0,0,3.5.46c1.84-.55,2.69-.85,3-1A3.53,3.53,0,0,1,11.66,5.3Z"/><line class="cls-3" x1="14.24" y1="7.42" x2="13.1" y2="6.79"/><path class="cls-2" d="M11.46,3.17a32.22,32.22,0,0,1-7.94,2s1,1.41,4.42.57a23.55,23.55,0,0,0,3.53-1A3.6,3.6,0,0,1,11.46,3.17Z"/><path class="cls-1" d="M23.26,9.79l-.94,2.52a3.65,3.65,0,0,0,3.56,1.06c2.32-.47,1.95-2.14,1.95-2.14s2,.91,3.52.08a4.12,4.12,0,0,0,1.83-2.54A27.51,27.51,0,0,0,37,13.82c2.33,2.39,4.28,3.7,5.57,3a49.7,49.7,0,0,1-6.71-7.14s-3.19-4.58-6.19-4.93-3.3,1.75-3.3,1.75a2.16,2.16,0,0,0,.42,1.8,1.33,1.33,0,0,1-.49,1.83S25.55,10.8,23.26,9.79Z"/><path class="cls-2" d="M30.05,12.45A39.48,39.48,0,0,0,32.16,16s-1.36.28-2.37-1.49a9.63,9.63,0,0,1-1.07-2.26A6.32,6.32,0,0,0,30.05,12.45Z"/><path class="cls-2" d="M32,12a20.31,20.31,0,0,0,3.57,4.65,3.62,3.62,0,0,1-3.1-1.72c-1.16-1.53-1.66-2.27-1.81-2.51A3.58,3.58,0,0,0,32,12Z"/><path class="cls-2" d="M33.46,10.42a33.05,33.05,0,0,0,5.2,6.33s-1.64.54-3.89-2.17a22.68,22.68,0,0,1-2.22-2.93A3.49,3.49,0,0,0,33.46,10.42Z"/><path class="cls-1" d="M20.33,21.59c-.11,0,1-.17,1.32-.21a5.61,5.61,0,0,0,2.36-1A2.86,2.86,0,0,0,24.7,16a3.41,3.41,0,0,0-2.63-1.12c-.63,0-.81.32-.63.86a2.71,2.71,0,0,0,2.4,1.78c0,.71-.34,1.33-1.4,1.71A10.87,10.87,0,0,1,20,19.6c-1.16,0-.82,0-2,0"/><path class="cls-4" d="M22.69,6.14a1.84,1.84,0,0,0,1.16-3.5A1.84,1.84,0,0,0,21.51,3.8,1.87,1.87,0,0,0,22.69,6.14Z"/><path class="cls-1" d="M11.86,42.6c-.27-.51-.6-1-.82-1.5.23-.14.67-.31.94-.48a1.53,1.53,0,0,0,.35-2.6c-.59-.67-1.17-1.34-1.73-2a5.16,5.16,0,0,1-1.27-4.4,3.37,3.37,0,0,1,1.9-2.8,11.26,11.26,0,0,1,1.53-.59.36.36,0,0,1,.32.07c.5.59,1,1.19,1.49,1.8-.49.19-1,.35-1.42.55a2.24,2.24,0,0,0-.88,3.51c.48.65,1,1.26,1.51,1.89a6.14,6.14,0,0,1,1.29,2.31A3,3,0,0,1,13.41,42C12.92,42.18,12.42,42.37,11.86,42.6Z"/><path class="cls-1" d="M14.63,37.25A6.54,6.54,0,0,0,18,34.62a3.51,3.51,0,0,0,.09-3.75,10.27,10.27,0,0,0-1-1.44c-.64-.77-1.37-1.47-2-2.25A7.32,7.32,0,0,1,14,25.46a2.26,2.26,0,0,1,1.22-3.07A10.43,10.43,0,0,1,16.8,22a2.5,2.5,0,0,1,.39-.11c-.76-.69-1.37-1.3-2.15-2-.16.06-.49.13-.67.19a4.21,4.21,0,0,0-2.45,6.36,17.94,17.94,0,0,0,1.39,2c.73,1,1.56,1.91,2.21,2.94a2.25,2.25,0,0,1-1.39,3.51c-.31.1-.74.25-1.06.34C13.07,35.15,13.92,36.21,14.63,37.25Z"/><path class="cls-1" d="M14.57,14.49a1.69,1.69,0,0,0,.11,2.2,10.43,10.43,0,0,0,1.73,1.72c.9.72,1.9,1.34,2.81,2.06a7.53,7.53,0,0,1,1.85,2.23,4.11,4.11,0,0,1-1.7,5.74,19.32,19.32,0,0,1-2.26.95l-1.68-1.85a8.35,8.35,0,0,0,1.22-.32,6,6,0,0,0,1.47-.8,2.2,2.2,0,0,0,.58-2.75A5.16,5.16,0,0,0,17.33,22c.08.08-2.18-2-3.28-3.09a5.64,5.64,0,0,1-1.33-2.17,2.86,2.86,0,0,1,2.06-3.94,3.36,3.36,0,0,1,2.77.66c.51.37.47.73,0,1.07A2.72,2.72,0,0,1,14.57,14.49Z"/><path class="cls-1" d="M12.14,37.8c-1.49.39-2.06,1.14-1.47,2.51.45,1,1,2,1.54,3.07a2.71,2.71,0,0,1,.27,1.93A2.76,2.76,0,0,1,11.08,47l.42-.85a2,2,0,0,0-.12-2.13c-.34-.52-.78-1-1.15-1.49a20.2,20.2,0,0,1-1.54-2.16,3,3,0,0,1,1.1-4.15c.19-.12.49-.33.68-.44Z"/><path class="cls-1" d="M9.54,41.67a3.44,3.44,0,0,0-2.49,2.48,2.46,2.46,0,0,0,.31,1.67c-.06-1.93,1.34-2.73,3.06-3C10.42,42.82,10.15,42.42,9.54,41.67Z"/></g></g></svg>