<svg xmlns="http://www.w3.org/2000/svg" viewBox="0 0 49.9 40.01"><defs><style>.cls-1{fill:none;stroke:#5c5052;stroke-miterlimit:10;stroke-width:0.75px;}</style></defs><g id="Layer_2" data-name="Layer 2"><g id="Layer_2-2" data-name="Layer 2"><g id="Layer_2-3" data-name="Layer 2"><g id="Layer_1-2" data-name="Layer 1-2"><path class="cls-1" d="M13.64,4.64l13.83,5.73a.93.93,0,0,0,1.3-.17,1.51,1.51,0,0,0,.15-.28c.51-1.06,1-2.33,1-2.33a1.05,1.05,0,0,0-.59-1.37h0C28.3,5.73,15.44.45,15.44.45A1.09,1.09,0,0,0,14,1a21.26,21.26,0,0,0-.88,2S12.58,4.19,13.64,4.64Z"/><path class="cls-1" d="M6.2,22.66,20,28.38a.92.92,0,0,0,1.3-.16.85.85,0,0,0,.15-.28c.51-1.06,1-2.33,1-2.33a1.06,1.06,0,0,0-.59-1.38h0C20.87,23.75,8,18.47,8,18.47a1.09,1.09,0,0,0-1.41.58c-.32.66-.61,1.33-.87,2C5.71,21.07,5.14,22.25,6.2,22.66Z"/><path class="cls-1" d="M45.51,21.73,25,15.08l1.49-3.56L13.7,6.21,9.13,17.43l12.68,5.16,1.56-3.71L42.81,29s5.19,2.41,6.5-1.52S45.51,21.73,45.51,21.73Z"/><path class="cls-1" d="M25,36.29V34a1.38,1.38,0,0,0-1.36-1.17H3.41A1.38,1.38,0,0,0,2.05,34v2.25A1.66,1.66,0,0,0,.38,37.94a.75.75,0,0,0,0,.15,1.56,1.56,0,0,0,1.16,1.55h24a1.56,1.56,0,0,0,1.16-1.55,1.66,1.66,0,0,0-1.5-1.79Z"/></g></g></g></g></svg>