<svg xmlns="http://www.w3.org/2000/svg" viewBox="0 0 901.78 284.8"><defs><style>.cls-1{fill:#2e61a1;}.cls-2{fill:#5d5152;}</style></defs><g id="Layer_2" data-name="Layer 2"><g id="Layer_13" data-name="Layer 13"><path class="cls-1" d="M364.79,71.63a27.66,27.66,0,0,1,.73,9.17,23.51,23.51,0,0,1-2.72,9,30.93,30.93,0,0,1-5.43,7.14,52.47,52.47,0,0,1-6.5,5.39c-4.47,3.2-9.09,5.82-13.53,8.49-2.21,1.34-4.39,2.68-6.47,4.09a43.8,43.8,0,0,0-5.6,4.58,32.46,32.46,0,0,0-7.7,12c-1.72,4.61-2.75,9.68-4.08,14.83a65.63,65.63,0,0,1-5.65,15.23c-2.69,4.89-6,9-9,13.2s-6.06,8.39-8,12.94a21.58,21.58,0,0,0-1.21,14.25,41.4,41.4,0,0,0,6.71,13.47,122.49,122.49,0,0,0,10,11.9,73.9,73.9,0,0,1,9.56,12.64c1.36,2.28,2.5,4.65,3.66,7s2.25,4.73,3.29,7.15a64.27,64.27,0,0,1,4.48,15.08A75.46,75.46,0,0,1,328,284.8a75.82,75.82,0,0,0-1.23-15.57,63.53,63.53,0,0,0-4.94-14.75q-1.65-3.53-3.5-7c-1.24-2.3-2.44-4.6-3.84-6.77a71.8,71.8,0,0,0-9.74-12,122.68,122.68,0,0,1-10.56-11.79,55.5,55.5,0,0,1-4.45-6.69,35.6,35.6,0,0,1-3.2-7.52,24.35,24.35,0,0,1-1-8.3,26.64,26.64,0,0,1,1.81-8.16c2-5.18,5-9.65,8-14s6-8.6,8.24-13A60.38,60.38,0,0,0,308.31,145c1.13-5,2-10.27,3.74-15.54.52-1.3.95-2.62,1.55-3.9l.93-1.91.47-1,.55-.91a30.08,30.08,0,0,1,2.39-3.54A27.85,27.85,0,0,1,320.7,115a49.6,49.6,0,0,1,6.34-5.56c2.19-1.6,4.43-3.08,6.64-4.51,4.43-2.87,8.82-5.58,12.76-8.61s7.39-6.39,9.27-10.22a16.76,16.76,0,0,0,.83-12.35Z"/><path class="cls-2" d="M101.72,131.69s15.52,10.08,22.31,19.9c0,0-8.08,16.29-19.73,19.39s-17.46-3.62-17.46-3.62.77-31.53,14.88-35.67"/><path class="cls-2" d="M169.58,165.29s-4.78-15.43-10.49-16.52a22.55,22.55,0,0,0-9.86.2s-11,5.47-8.32,20.95c0,0,17,.86,28.67-4.63"/><path class="cls-2" d="M67.58,160.52S37.79,170,37.35,183.28s21.46,9.81,21.46,9.81,17.63-3.2,16.21-21.36c-1-13.59-7.44-11.21-7.44-11.21"/><path class="cls-2" d="M272.26,134s-30.35-8.22-41.47,1.69,8.41,18.59,8.41,18.59,16,6.69,29.65-7.88c10.21-10.9,3.41-12.4,3.41-12.4"/><path class="cls-2" d="M184.54,198.12S166.39,177,150.07,179.61s-7.19,18.92-7.19,18.92,7.82,13,29.65,7.88c16.34-3.84,12-8.29,12-8.29"/><path class="cls-2" d="M39.2,129.28s-5.88,17.48-26.28,36.77l5.25,3.85s28-3.85,34.6-20.31,0-22.41,0-22.41-8.32-1.75-13.57,2.1"/><path class="cls-2" d="M382.8,177.31s-16.89-8.55-25.08-17.67c0,0,5.63-16.93,16.73-21.11s17.88,1.95,17.88,1.95,3.88,31.39-9.53,36.83"/><path class="cls-2" d="M457.79,194.8s20.1-5.61,21-10.58a12.78,12.78,0,0,0-1.24-8.38s-8.38-8.85-28.75-5c0,0,.55,14.58,9,24"/><path class="cls-2" d="M441.37,48.23s7,14.87,12.85,15.41A22,22,0,0,0,464,62.52s10.14-6.46,5.17-21.58c0,0-17,.74-27.79,7.29"/><path class="cls-2" d="M326.69,161s2.11,30.72,15.4,38.47,15.23-12.92,15.23-12.92,1.17-16.85-17.49-25.71c-13.95-6.63-13.14.16-13.14.16"/><path class="cls-2" d="M205.34,189.56s31.36,5.31,40.94-5.58-11.09-17.66-11.09-17.66a26.45,26.45,0,0,0-28.28,10.61c-8.53,11.78-1.57,12.63-1.57,12.63"/><path class="cls-2" d="M524.78,148.2S499,143.67,491.14,153s9.11,15,9.11,15,13.88,4.38,23.25-9c7-10.05,1.28-10.77,1.28-10.77"/><path class="cls-2" d="M423.42,175.84s3.5-19.16,22.14-41.72l-6.2-3.56s-29.18,6.9-33.57,25.06,3.53,23.82,3.53,23.82,9.12,1,14.1-3.6"/><path class="cls-2" d="M275.55,180.72s19.84,4.68,33.52-2.45c0,0,2.9-3-6.84-8.41a43.79,43.79,0,0,1-11.18-8.63S275.46,148.6,271.52,168c-2.6,12.81,4,12.73,4,12.73"/><path class="cls-2" d="M467.3,135.35s-15.52-10.08-22.31-19.9c0,0,8.08-16.29,19.72-19.39s17.46,3.62,17.46,3.62-.76,31.53-14.87,35.67"/><path class="cls-2" d="M397.46,95.2s4.79,15.43,10.5,16.52a22.31,22.31,0,0,0,9.85-.2s11-5.46,8.32-21c0,0-17-.85-28.67,4.63"/><path class="cls-2" d="M283.34,126.45s30.36,8.22,41.47-1.69-8.4-18.58-8.4-18.58-16-6.69-29.66,7.88c-10.2,10.89-3.41,12.39-3.41,12.39"/><path class="cls-2" d="M538.83,134.36s5.88-17.47,26.28-36.77l-5.26-3.85s-28,3.85-34.6,20.31,0,22.41,0,22.41,8.32,1.75,13.58-2.1"/><path class="cls-2" d="M356.49,123.69s19,6.51,33.64.72c0,0,3.33-2.74-5.55-9a40.52,40.52,0,0,1-9.83-9.62s-13.63-14-20.39,4.87c-4.47,12.47,2.13,13,2.13,13"/><path class="cls-2" d="M188.91,84.32S205.8,92.88,214,102c0,0-5.63,16.92-16.73,21.1s-17.88-1.95-17.88-1.95-3.88-31.39,9.53-36.83"/><path class="cls-2" d="M252.85,111s-7-14.88-12.85-15.42a22,22,0,0,0-9.76,1.12s-10.15,6.47-5.18,21.58c0,0,17-.74,27.79-7.28"/><path class="cls-2" d="M2.2,115.14S28,119.67,35.84,110.4s-9.1-15.07-9.1-15.07-13.88-4.37-23.26,9c-7,10.05-1.28,10.76-1.28,10.76"/><path class="cls-2" d="M137.39,84.66s-3.5,19.16-22.14,41.72l6.19,3.56S150.62,123,155,104.87s-3.52-23.81-3.52-23.81-9.12-1-14.1,3.6"/><path class="cls-2" d="M286.29,79.77s-19.83-4.68-33.52,2.45c0,0-2.89,3,6.84,8.41a43.79,43.79,0,0,1,11.18,8.63s15.6,12.63,19.53-6.76c2.6-12.8-4-12.73-4-12.73"/><path class="cls-2" d="M392.47,197.81s18.15,21.11,34.47,18.49,7.19-18.91,7.19-18.91-7.82-13-29.65-7.88c-16.34,3.84-12,8.3-12,8.3"/><path class="cls-2" d="M703.16,91.71s16.89,8.56,25.08,17.67c0,0-5.63,16.94-16.73,21.11s-17.88-2-17.88-2-3.88-31.39,9.53-36.83"/><path class="cls-2" d="M721.66,192.37s10,17.73,24.72,23.31c0,0,4.26.2,1.69-10.5A41.73,41.73,0,0,1,747,191.33s-1.09-19.7-18.43-10.14c-11.45,6.31-6.87,11.18-6.87,11.18"/><path class="cls-2" d="M647.2,84.66s-3.5,19.16-22.14,41.72l6.19,3.56s29.18-6.91,33.58-25.06-3.53-23.82-3.53-23.82-9.12-1-14.1,3.6"/><path class="cls-2" d="M562.94,212s14.4-6.82,14.72-12.75a23.87,23.87,0,0,0-1.45-9.94s-6.73-10.46-21.44-5.73c0,0,1.35,17.32,8.17,28.42"/><path class="cls-2" d="M658.63,153.91s-30.36-8.22-41.47,1.68,8.4,18.59,8.4,18.59,16,6.69,29.65-7.88c10.21-10.9,3.42-12.39,3.42-12.39"/><path class="cls-2" d="M718.44,166.91s-11.73-25.41-28.13-27.49-12,16.15-12,16.15,4,14.72,26.36,15.93c16.75.9,13.79-4.59,13.79-4.59"/><path class="cls-2" d="M591.71,209.42s31.34,5.32,40.93-5.57-11.08-17.67-11.08-17.67a26.46,26.46,0,0,0-28.29,10.62c-8.53,11.78-1.56,12.62-1.56,12.62"/><path class="cls-2" d="M571.51,113.37s-12.09,14.82-7.15,28.22c0,0,3,3.31,12.89-3a55.82,55.82,0,0,1,14.49-6.52s21-8.9-2.68-18.08c-15.62-6.06-17.55-.6-17.55-.6"/><path class="cls-2" d="M510,178.72s12.48,13.8,16.58,25.07c0,0-11.9,13.63-23.93,13.59s-16-8.06-16-8.06S495.31,179,510,178.72"/><path class="cls-2" d="M739.44,156s20.78-1.47,22.6-6.17a12.76,12.76,0,0,0,.39-8.46S755.92,131,735.21,130.7c0,0-2.27,14.39,4.23,25.29"/><path class="cls-2" d="M814.38,171.89s-29.78,9.46-30.22,22.77,21.46,9.8,21.46,9.8,17.62-3.2,16.21-21.36c-1.06-13.59-7.45-11.21-7.45-11.21"/><path class="cls-2" d="M814,126.14s-5.87,17.47-26.28,36.77l5.26,3.85s28-3.85,34.6-20.31,0-22.41,0-22.41-8.32-1.75-13.58,2.1"/><path class="cls-2" d="M767.31,117.84s25.77,4.53,33.64-4.75S791.84,98,791.84,98s-13.88-4.38-23.25,9c-7,10.05-1.28,10.77-1.28,10.77"/><path class="cls-2" d="M856.41,111.14s-12.08,14.82-7.14,28.23c0,0,3,3.3,12.88-3a56,56,0,0,1,14.49-6.52s21-8.91-2.68-18.08c-15.62-6.06-17.55-.6-17.55-.6"/><path class="cls-2" d="M891.74,75.52S874.84,67,866.65,57.84c0,0,5.64-16.93,16.74-21.1s17.87,1.95,17.87,1.95,3.89,31.39-9.52,36.83"/><path class="cls-2" d="M781,43.39s7,14.87,12.85,15.41a22,22,0,0,0,9.76-1.12s10.15-6.46,5.17-21.58c0,0-17,.74-27.78,7.29"/><path class="cls-2" d="M813.19,84.48s28.44,11.81,41.31,3.36-4.79-19.39-4.79-19.39-14.56-8.55-30.8,4.19c-12.15,9.54-5.72,11.84-5.72,11.84"/><path class="cls-2" d="M233,23.76s25.76,4.53,33.64-4.75S257.51,4,257.51,4,243.63-.43,234.26,13c-7,10-1.28,10.76-1.28,10.76"/><path class="cls-2" d="M635.37,22.68S623.28,37.5,628.23,50.9c0,0,3,3.31,12.88-3a55.56,55.56,0,0,1,14.5-6.51s21-8.91-2.68-18.08c-15.63-6.06-17.56-.61-17.56-.61"/><path class="cls-2" d="M324.53,51.25s15.52,10.09,22.31,19.91c0,0-8.08,16.28-19.72,19.38s-17.46-3.62-17.46-3.62.76-31.53,14.87-35.67"/><path class="cls-2" d="M330.83,17.62s-30.36-8.22-41.47,1.69,8.4,18.58,8.4,18.58,16,6.69,29.66-7.87c10.2-10.9,3.41-12.4,3.41-12.4"/><path class="cls-2" d="M243.6,33.29s-5.88,17.46-26.29,36.76l5.26,3.85s28-3.85,34.6-20.31,0-22.41,0-22.41-8.32-1.75-13.57,2.11"/><path class="cls-2" d="M409.53,57.21s-19-6.51-33.65-.73c0,0-3.33,2.74,5.55,9a40.69,40.69,0,0,1,9.84,9.62s13.62,14,20.38-4.88c4.47-12.47-2.12-13-2.12-13"/><path class="cls-2" d="M598.3,78.11s-16.9-8.55-25.09-17.67c0,0,5.64-16.93,16.74-21.1s17.87,1.95,17.87,1.95,3.88,31.39-9.52,36.82"/><path class="cls-2" d="M529.57,56.6s7,14.88,12.86,15.42a22.1,22.1,0,0,0,9.75-1.12s10.15-6.47,5.18-21.59c0,0-17,.75-27.79,7.29"/><path class="cls-2" d="M765.65,48.57S739.89,44,732,53.32s9.11,15.06,9.11,15.06,13.88,4.38,23.25-9c7-10,1.28-10.76,1.28-10.76"/><path class="cls-2" d="M695.39,68.81S707.48,54,702.54,40.59c0,0-3-3.3-12.89,3a56,56,0,0,1-14.49,6.51s-21,8.91,2.68,18.08c15.62,6.06,17.55.6,17.55.6"/><path class="cls-2" d="M492,87.87s19.83,4.67,33.52-2.45c0,0,2.9-3-6.84-8.41a43.79,43.79,0,0,1-11.18-8.63s-15.59-12.63-19.53,6.76c-2.6,12.8,4,12.73,4,12.73"/><path class="cls-2" d="M95.37,56.85S78.48,48.29,70.29,39.18c0,0,5.63-16.94,16.73-21.11S104.89,20,104.89,20s3.89,31.39-9.52,36.83"/><path class="cls-2" d="M19.35,39.34s7,14.88,12.85,15.41A22.05,22.05,0,0,0,42,53.63s10.14-6.46,5.17-21.58c0,0-17,.74-27.79,7.29"/><path class="cls-2" d="M40.47,85.59s28.44,11.8,41.3,3.35S77,69.55,77,69.55,62.43,61,46.18,73.75C34,83.28,40.47,85.59,40.47,85.59"/><path class="cls-2" d="M144.44,67.64s-.19-19.48,13.84-45.16l-6.75-2.33s-27.35,12.32-28.22,31,8,22.72,8,22.72,9.15-.72,13.16-6.2"/><path class="cls-2" d="M200.85,56S212.94,41.19,208,27.79c0,0-3-3.31-12.88,3a55.71,55.71,0,0,1-14.5,6.51s-21,8.91,2.68,18.09c15.63,6.05,17.55.6,17.55.6"/><path class="cls-1" d="M357.7,7.15c-.28,6.87-.9,13.45-1.23,20a116,116,0,0,0,.27,19.14,50,50,0,0,0,1.81,9c.44,1.38,1,2.88,1.59,4.29s1.26,2.81,2,4.19,1.51,2.73,2.35,4.17a40.84,40.84,0,0,1,2.61,4.88,13.7,13.7,0,0,1,1.08,6.76,19.84,19.84,0,0,1-1.74,5.9,45.74,45.74,0,0,1-2.57,4.77,32.63,32.63,0,0,1-3.27,4.51,85.7,85.7,0,0,1-7.44,7.21,31.27,31.27,0,0,0-5.92,6.82,21.41,21.41,0,0,0-1.89,4c-.25.7-.47,1.39-.67,2.14s-.4,1.52-.57,2.3A59.66,59.66,0,0,0,342.92,136a42.43,42.43,0,0,0,5.72,17.85l.08.13,0,0a90.13,90.13,0,0,0,6.3,10.78c2.34,3.5,4.85,6.94,7.23,10.53,4.78,7.17,8.8,15.08,10.19,23.85a29.67,29.67,0,0,1-1.89,12.92c-1.43,4.08-3.3,7.92-4.95,11.83s-3.11,7.93-3.22,12.15a15.93,15.93,0,0,0,1,6.18,19.19,19.19,0,0,0,3.32,5.4,18.8,18.8,0,0,1-3.55-5.3,16.33,16.33,0,0,1-1.33-6.28c-.06-4.35,1.31-8.54,2.79-12.52s3.21-7.91,4.43-11.93a27.75,27.75,0,0,0,1.32-12.2,20.74,20.74,0,0,0-.68-3q-.45-1.5-1-3a54.81,54.81,0,0,0-2.47-5.74,75.23,75.23,0,0,0-6.61-10.63c-2.48-3.4-5.14-6.72-7.68-10.2a92.35,92.35,0,0,1-7.07-11l.1.18a47,47,0,0,1-7.13-19.54,65,65,0,0,1,.47-20.73c.16-.85.34-1.71.53-2.56s.44-1.77.72-2.64a28.22,28.22,0,0,1,2.2-5.13,38.07,38.07,0,0,1,6.73-8.49,79.28,79.28,0,0,0,6.62-6.91,25.79,25.79,0,0,0,2.44-3.65,37.36,37.36,0,0,0,2-4.09,12.46,12.46,0,0,0,1-3.64,5.74,5.74,0,0,0-.66-2.95,39.41,39.41,0,0,0-2.26-3.81c-.9-1.39-1.85-2.87-2.73-4.41s-1.72-3.11-2.46-4.73-1.44-3.21-2.07-5a58.36,58.36,0,0,1-2.54-10.48c-2.06-14-.62-27.63-.56-40.53Z"/><path class="cls-1" d="M569.48,17.47a63.62,63.62,0,0,1,3.16,15.7c.43,5.2.38,10.24.46,15.08a78.44,78.44,0,0,0,1.19,13.93A38.5,38.5,0,0,0,579,74.64a30.85,30.85,0,0,0,3.89,5.46,61.55,61.55,0,0,0,4.88,5c3.49,3.21,7.34,6.22,11.18,9.39a89,89,0,0,1,11.14,10.48,38.29,38.29,0,0,1,4.56,6.53,28,28,0,0,1,2.86,7.61,26.85,26.85,0,0,1,.51,8.08,25.43,25.43,0,0,1-2,7.85,55.22,55.22,0,0,1-8.3,12.88c-6.22,7.79-13.41,14.57-16.54,23.76-3.6,9.06-6.53,18.52-6.78,28.28a42.47,42.47,0,0,0,8.77,27.39,44.42,44.42,0,0,1-7.4-12.77,44.9,44.9,0,0,1-2.67-14.62c-.18-10,2.4-19.84,5.64-29.19.43-1.17.81-2.33,1.28-3.51a34.88,34.88,0,0,1,1.63-3.5,61,61,0,0,1,4-6.43c2.92-4.06,6.06-7.88,9-11.79a51.15,51.15,0,0,0,7.16-12.19,20.79,20.79,0,0,0,1.39-6.45,22.41,22.41,0,0,0-.71-6.6,26.82,26.82,0,0,0-6.73-11.44,83.57,83.57,0,0,0-10.8-9.27c-3.89-2.93-7.94-5.81-11.87-9.11a67.54,67.54,0,0,1-5.71-5.32,38.84,38.84,0,0,1-5-6.35A46.68,46.68,0,0,1,566,64a85.45,85.45,0,0,1-2-15.41c-.31-5-.48-9.83-1.08-14.43a53.25,53.25,0,0,0-3.2-13.09Z"/><path class="cls-1" d="M572.92,55.58a91.94,91.94,0,0,0,1.47,10.57c.68,3.54,1.58,7.12,2.31,11a40.69,40.69,0,0,1,.7,12.13,41.23,41.23,0,0,1-3.19,11.7c-3.11,7.2-7.33,13.53-11.16,19.82-1.92,3.15-3.76,6.31-5.41,9.54-.82,1.64-1.61,3.24-2.29,4.9s-1.32,3.37-1.93,5.1c-2.37,6.91-4.18,14.13-6.08,21.33L545.91,167l-.74,2.7c-.22.89-.4,1.75-.61,2.62a58.44,58.44,0,0,0-.93,10.87c0,7.38.73,14.82.77,22.3,0,.93,0,1.87,0,2.81s0,1.87-.11,2.8l-.22,2.8-.4,2.78a33.94,33.94,0,0,1-3.5,10.59,34,34,0,0,0,3-10.66l.26-2.76.08-2.78c0-.92,0-1.85,0-2.77s0-1.85-.1-2.78c-.38-7.4-1.46-14.77-1.83-22.28A59.57,59.57,0,0,1,542,171.9c.17-1,.33-1.92.52-2.84l.6-2.72,1.17-5.45c1.55-7.27,3-14.61,5.13-21.89.54-1.81,1.1-3.63,1.77-5.44s1.41-3.6,2.18-5.33c1.57-3.47,3.32-6.84,5.12-10.13,3.61-6.59,7.37-12.92,9.85-19.55a34.3,34.3,0,0,0,2.22-9.88,33.65,33.65,0,0,0-1.11-10c-.81-3.44-1.9-7-2.81-10.76a100.71,100.71,0,0,1-2.14-11.46Z"/><path class="cls-1" d="M732.79,18.6A90.14,90.14,0,0,1,726.25,34a142.1,142.1,0,0,0-6.49,13.83,34.06,34.06,0,0,0-2.5,13.69,29.26,29.26,0,0,0,4.07,13.16l.92,1.55,1,1.6C724,78.9,724.71,80,725.44,81c1.47,2.12,3,4.21,4.56,6.28,3.13,4.14,6.4,8.2,9.76,12.21,6.71,8,13.74,15.82,20.88,23.52A145.48,145.48,0,0,1,771,135.34c.75,1.15,1.56,2.24,2.28,3.43l1,1.81a14.7,14.7,0,0,1,1,1.85l.86,1.93a19.89,19.89,0,0,1,.7,2,19,19,0,0,1,.58,2l.39,2.1a15.08,15.08,0,0,1,.21,2.11c0,.71.11,1.41.09,2.11a40.13,40.13,0,0,1-.29,4.14l-.27,2c-.09.67-.25,1.33-.37,2l-.39,2-.47,1.94c-1.26,5.19-2.75,10.24-4.17,15.31a43,43,0,0,0-1.54,7.53,38.65,38.65,0,0,0,0,7.68,76.08,76.08,0,0,0,3.49,15.21,95.88,95.88,0,0,1,3.9,15.37,35.57,35.57,0,0,1-1.28,15.69,35,35,0,0,0,.63-15.59A95.61,95.61,0,0,0,772.87,213a77.77,77.77,0,0,1-4.2-15.39,41.27,41.27,0,0,1-.33-8.09,45.25,45.25,0,0,1,1.29-8c1.21-5.13,2.5-10.25,3.51-15.35l.38-1.91.3-1.91c.09-.63.21-1.27.27-1.9l.17-1.89a36.1,36.1,0,0,0,.11-3.74c0-.62-.11-1.22-.16-1.83a10.81,10.81,0,0,0-.25-1.81c-.92-4.77-3.45-9.1-6.6-13.09a138.36,138.36,0,0,0-10.46-11.43c-7.49-7.45-14.89-15-22-22.86-3.57-3.93-7.08-7.93-10.48-12.06-1.7-2.07-3.37-4.16-5-6.32-.81-1.07-1.62-2.15-2.4-3.26l-1.19-1.66-1.17-1.8a42.59,42.59,0,0,1-3.85-7.84,34.27,34.27,0,0,1-1.95-8.72,42.71,42.71,0,0,1,2.34-17.31,149.47,149.47,0,0,1,6.29-15,82.11,82.11,0,0,0,5.29-13.87Z"/><path class="cls-1" d="M740.89,100.89a79.68,79.68,0,0,1-1.1,11.18,47.14,47.14,0,0,1-3.42,11c-1.51,3.36-3,6.39-4.15,9.57a69.94,69.94,0,0,0-2.88,9.75c-1.5,6.66-2,13.7-3.4,20.93a48.43,48.43,0,0,1-3.39,10.64,41.35,41.35,0,0,1-2.69,4.94l-1.44,2.23c-.48.72-.92,1.47-1.38,2.21-7.18,11.93-12.21,25.22-15.8,38.83a191.17,191.17,0,0,0-6.1,41.88,192.35,192.35,0,0,1,4.08-42.35c3-13.93,7.38-27.68,14.22-40.42.44-.79.85-1.59,1.32-2.37l1.33-2.3a39.68,39.68,0,0,0,2.18-4.5,43.47,43.47,0,0,0,2.56-9.72c1-6.73,1.14-13.91,2.4-21.18a78.73,78.73,0,0,1,2.59-10.76c1.08-3.54,2.53-7,3.74-10.16a38.94,38.94,0,0,0,2.4-9.42,73.27,73.27,0,0,0,.42-10Z"/><path class="cls-1" d="M185.41,3.46c-3.81,8-8.95,14.5-13.47,21.1S163.3,37.74,162.33,45a17,17,0,0,0,1.42,10.17c1.53,3.27,4,6.49,6.2,10.14a38.51,38.51,0,0,1,4.86,12,40.19,40.19,0,0,1,.63,12.83c-.88,8.46-3.73,16.14-4.36,24a38.56,38.56,0,0,0,.72,11.69,41.15,41.15,0,0,0,4.27,11c3.86,7,9.07,13.35,13.33,20.34a47.66,47.66,0,0,1,5.18,11.11,27.75,27.75,0,0,1,.88,12.11,27.35,27.35,0,0,0-1.39-12,46.75,46.75,0,0,0-5.57-10.7c-4.5-6.71-10-12.77-14.27-19.85a43.2,43.2,0,0,1-5-11.44A41.24,41.24,0,0,1,167.9,114c.34-8.43,2.87-16.36,3.3-24.14a35.85,35.85,0,0,0-1-11.39,33.42,33.42,0,0,0-4.71-10.27c-2.1-3.24-4.81-6.38-6.94-10.38-.28-.48-.49-1-.73-1.55s-.47-1.06-.66-1.61l-.5-1.69-.25-.84c-.06-.29-.09-.58-.14-.87a19,19,0,0,1-.36-3.49l0-1.75c0-.58.1-1.13.14-1.7a24.06,24.06,0,0,1,.5-3.33c.26-1.08.45-2.17.77-3.24s.64-2.14,1.06-3.15L158.9,33l.67-1.48a92,92,0,0,1,6.15-11.07c4.37-7,9-13.58,11.92-20.47Z"/><path class="cls-1" d="M122.06,8a74.48,74.48,0,0,1,2.06,14,75.15,75.15,0,0,1-.82,14c-1.36,9.2-4.12,17.81-6.44,26.3-1.18,4.25-2.24,8.46-3.08,12.75s-1.5,8.6-2.18,13c-.37,2.22-.72,4.47-1.3,6.77-.25,1.14-.65,2.28-1,3.42a28.92,28.92,0,0,1-1.43,3.34,37.82,37.82,0,0,1-8.77,11c-1.7,1.58-3.39,3-5.07,4.43s-3.35,2.89-5,4.37c-.8.74-1.61,1.47-2.36,2.24l-1.15,1.15L84.49,126a12.93,12.93,0,0,0-1,1.22l-1,1.24a25.9,25.9,0,0,0-1.64,2.65,24.83,24.83,0,0,0-2.69,12.17,114.49,114.49,0,0,0,1.17,13.12c1,8.86,1.69,17.71,2.78,26.52.55,4.41,1.17,8.8,2,13.16A92.67,92.67,0,0,0,87.36,209a91.6,91.6,0,0,1-3.79-12.79c-1-4.34-1.79-8.72-2.51-13.12-1.45-8.78-2.51-17.62-3.84-26.39A115,115,0,0,1,75.5,143.3l-.06-1.71.07-1.73a27.37,27.37,0,0,1,.36-3.48A23.76,23.76,0,0,1,78,129.64a29.17,29.17,0,0,1,1.74-3.09l1-1.42a14.88,14.88,0,0,1,1.07-1.38L83,122.42l1.17-1.26c.76-.86,1.57-1.64,2.37-2.45,1.6-1.59,3.24-3.12,4.87-4.64s3.28-3,4.79-4.54a33.49,33.49,0,0,0,7.39-10,27.51,27.51,0,0,0,1.08-2.83c.26-1,.56-2,.74-3,.43-2,.69-4.19.95-6.36.5-4.38,1-8.88,1.7-13.34s1.63-8.93,2.65-13.29C112.7,52,115,43.5,115.91,35a67.18,67.18,0,0,0,.24-12.59,66.21,66.21,0,0,0-2.3-12.24Z"/><path class="cls-1" d="M116.51,63.62a45.6,45.6,0,0,1-.33,6c-.2,1.91-.46,3.78-.74,5.63-.55,3.71-1.17,7.36-1.76,11-1.17,7.28-2.32,14.53-2.79,21.73a58,58,0,0,0,.14,10.56,19.31,19.31,0,0,0,1.13,4.72,9.4,9.4,0,0,0,.47,1c.2.37.39.75.6,1.12.43.74.87,1.47,1.36,2.17a52.34,52.34,0,0,0,7.07,7.92,35.78,35.78,0,0,1,7.33,9.15,29,29,0,0,1,3,11.4,44.15,44.15,0,0,1-.77,11.45c-.68,3.72-1.62,7.27-2,10.83A32.23,32.23,0,0,0,129.6,189,61.7,61.7,0,0,0,133,199.36c1.4,3.4,3,6.74,4.41,10.19a44.49,44.49,0,0,1,3,10.74,41.25,41.25,0,0,1-.07,11.1,41.07,41.07,0,0,0-.42-11,43.76,43.76,0,0,0-3.46-10.43c-3.1-6.65-6.9-13.12-8.86-20.49a34.28,34.28,0,0,1-1-11.37c.28-3.81,1.07-7.48,1.56-11.07a41,41,0,0,0,.25-10.66,25.15,25.15,0,0,0-3-9.81,32.09,32.09,0,0,0-6.88-7.78,56.53,56.53,0,0,1-8.06-8.27c-.6-.79-1.16-1.62-1.69-2.46-.27-.42-.51-.86-.77-1.28a14.53,14.53,0,0,1-.73-1.48,24.91,24.91,0,0,1-1.61-6,63.07,63.07,0,0,1-.43-11.6c.32-7.59,1.33-15,2.34-22.35.51-3.67,1-7.33,1.5-10.95.23-1.82.44-3.62.59-5.4a38.8,38.8,0,0,0,.17-5.09Z"/><path class="cls-1" d="M359.15,95.85a37,37,0,0,0-9.43,8.58,65.77,65.77,0,0,0-7,11.31c-2.06,4-3.88,8.25-5.77,12.5a102.1,102.1,0,0,1-6.38,12.66c-.32.51-.67,1-1,1.52a19.09,19.09,0,0,1-1.22,1.51c-.83.91-1.67,1.75-2.52,2.56-1.7,1.63-3.41,3.19-5.1,4.76a60.24,60.24,0,0,0-4.77,4.83,11,11,0,0,0-.93,1.26,3.41,3.41,0,0,0-.29.57c-.06.16-.12.5-.18.74a15.27,15.27,0,0,0-.39,3.24,21.2,21.2,0,0,0,1.13,6.57c.69,2.16,1.61,4.29,2.45,6.46a37,37,0,0,1,2.05,6.69,19.34,19.34,0,0,1,.11,6.95,19.25,19.25,0,0,0-.55-6.85,36.53,36.53,0,0,0-2.45-6.43c-1-2.09-2-4.16-2.9-6.36a22.49,22.49,0,0,1-1.67-7,17.26,17.26,0,0,1,.19-3.66,9,9,0,0,1,.19-1,4.52,4.52,0,0,1,.41-1,13.41,13.41,0,0,1,1-1.61,62.37,62.37,0,0,1,4.64-5.37c1.6-1.7,3.21-3.37,4.75-5.05.77-.84,1.51-1.69,2.19-2.54a14.54,14.54,0,0,0,.88-1.26c.27-.47.57-.94.83-1.43a97.77,97.77,0,0,0,5.46-12.46c1.64-4.31,3.26-8.7,5.18-13a72.12,72.12,0,0,1,7-12.63,43.09,43.09,0,0,1,10.49-10.6Z"/><path class="cls-1" d="M517.45,26.72a26.54,26.54,0,0,0-3,11.32,29.16,29.16,0,0,0,2.36,11.75,83.92,83.92,0,0,0,6.07,11.56,139,139,0,0,1,6.91,12.18,37.25,37.25,0,0,1,2.56,7,25.68,25.68,0,0,1,.62,3.86c0,.66.07,1.32.06,2a13.8,13.8,0,0,1-.19,2.12,22.9,22.9,0,0,1-2.69,7.34,51,51,0,0,1-4,6c-2.88,3.75-6,7.15-9.15,10.49s-6.3,6.59-9,10-4.23,7.49-6.42,11.62a36,36,0,0,1-3.88,6.05c-.39.48-.79.94-1.23,1.39a12.51,12.51,0,0,1-1.45,1.33,13.88,13.88,0,0,1-3.41,1.86c-2.32.89-4.61,1.29-6.65,1.94a11.25,11.25,0,0,0-2.74,1.21,5.52,5.52,0,0,0-1,.87,5.78,5.78,0,0,0-.82,1.15,17.18,17.18,0,0,0-2.39,5.84,9.17,9.17,0,0,0,.95,5.9,49.84,49.84,0,0,0,3.68,5.56,19.78,19.78,0,0,1,3.11,6.39,37.1,37.1,0,0,1,.58,13.84,55.19,55.19,0,0,1-4.16,13.09c-1.79,4.19-3.66,8.34-5.22,12.62,1.38-4.34,3.09-8.58,4.71-12.83a54,54,0,0,0,3.57-13,35.61,35.61,0,0,0-1.08-13.25,17.79,17.79,0,0,0-3.08-5.7,52.31,52.31,0,0,1-4.07-5.66,12.29,12.29,0,0,1-1.32-3.5,11.24,11.24,0,0,1-.13-3.79,19.61,19.61,0,0,1,2.45-6.85,9,9,0,0,1,1.1-1.66,8.53,8.53,0,0,1,1.51-1.38,14.1,14.1,0,0,1,3.41-1.7c2.28-.81,4.48-1.3,6.38-2.13a10.64,10.64,0,0,0,2.52-1.5,15.27,15.27,0,0,0,2-2.23,33,33,0,0,0,3.25-5.57c.95-2,1.82-4.08,2.79-6.2.49-1,1-2.12,1.58-3.18a32.18,32.18,0,0,1,1.93-3.11c2.79-3.89,5.87-7.26,8.83-10.72s5.87-6.86,8.38-10.43A42,42,0,0,0,525,93.15a16.66,16.66,0,0,0,1.81-5.47,9,9,0,0,0,.07-1.27c0-.48-.05-1-.1-1.42a19.3,19.3,0,0,0-.57-2.86,30.94,30.94,0,0,0-2.33-5.7c-4-7.59-10-14.72-14-23.69A36.92,36.92,0,0,1,506.39,38a34.78,34.78,0,0,1,3.4-15Z"/><path class="cls-1" d="M532.8,88.24A100.47,100.47,0,0,1,521,104.06a121.78,121.78,0,0,1-14.34,13.31c-10.19,8.1-21.35,14.64-32.39,21a184,184,0,0,0-16,9.95l-1.82,1.4c-.58.49-1.18,1-1.73,1.47a35.49,35.49,0,0,0-3.12,3.24c-2,2.34-4,4.87-5.91,7.39a158.7,158.7,0,0,1-12.4,14.71,43.17,43.17,0,0,1-7.43,6.18c-2.7,1.7-5.88,3-9.1,2.71,3.24.06,6.18-1.48,8.68-3.33a43.68,43.68,0,0,0,6.75-6.57A162,162,0,0,0,443.23,160c1.75-2.67,3.48-5.35,5.42-8l.75-1,.85-1c.55-.66,1.17-1.22,1.77-1.82s1.24-1.12,1.86-1.68L455.8,145A187.93,187.93,0,0,1,472,134.39c10.88-6.61,21.61-13.31,31.19-21.36a115.26,115.26,0,0,0,13.3-13,93.64,93.64,0,0,0,10.62-15.08Z"/><path class="cls-1" d="M164.54,36.89c-1.28,4.65-2.68,9.29-4.43,13.86A74.19,74.19,0,0,1,153.63,64a54.58,54.58,0,0,1-9.52,11.39,76.33,76.33,0,0,1-11.76,8.7l-3,1.82c-1,.62-1.9,1.26-2.81,2a43.69,43.69,0,0,0-5.12,4.6A41.84,41.84,0,0,0,113.63,104a38.49,38.49,0,0,0-3.45,13.5,39,39,0,0,0,1.66,14,39.1,39.1,0,0,1,.11-28.22,44.23,44.23,0,0,1,7.4-12.55,46.59,46.59,0,0,1,5.16-5.26c.92-.81,1.9-1.57,2.89-2.31l1.52-1.05,1.45-1a73.14,73.14,0,0,0,10.71-8.8,50.36,50.36,0,0,0,8.15-10.86c4.42-8,6.86-17,8.88-26.11Z"/><path class="cls-1" d="M719.23,48.38A78,78,0,0,1,711,69.28,94.85,94.85,0,0,1,697.75,87c-.62.68-1.26,1.33-1.9,2L694,90.88a40,40,0,0,0-3.2,3.75,20.63,20.63,0,0,0-3.86,8.48c-.64,3.12-.69,6.71-1.13,10.39a52,52,0,0,1-2.38,10.89c-.29.89-.61,1.75-.94,2.62a21.6,21.6,0,0,1-1.24,2.69,22.4,22.4,0,0,1-3.48,4.69c-2.64,2.74-5.38,4.79-7.09,7.52A19,19,0,0,0,668,151.3a44.48,44.48,0,0,0,.92,10.32c1.26,6.94,3.1,13.88,4.06,21a42,42,0,0,1,.25,10.75,18.72,18.72,0,0,1-1.44,5.19,12.24,12.24,0,0,1-3.18,4.28,12.2,12.2,0,0,0,2.92-4.39,17.81,17.81,0,0,0,1.14-5.14,41.34,41.34,0,0,0-.8-10.52c-1.31-7-3.5-13.72-5.16-20.71a47.26,47.26,0,0,1-1.52-10.86,27.51,27.51,0,0,1,.56-5.61,18.91,18.91,0,0,1,2-5.44,25.21,25.21,0,0,1,3.46-4.56c1.26-1.36,2.52-2.59,3.6-3.85a18.2,18.2,0,0,0,2.66-4,18,18,0,0,0,.88-2.22c.26-.81.52-1.63.74-2.45a48.17,48.17,0,0,0,1.65-10c.23-3.41.06-7,.62-10.89a25.37,25.37,0,0,1,1.54-5.8,28.9,28.9,0,0,1,2.79-5.25,43,43,0,0,1,3.49-4.57l1.8-2c.58-.64,1.16-1.29,1.72-2a88.37,88.37,0,0,0,11.57-16.9,70.36,70.36,0,0,0,6.57-19Z"/><path class="cls-1" d="M358.87,6.46c0,6,.16,11.78,1.88,16.94a18.21,18.21,0,0,0,3.92,6.75,40.89,40.89,0,0,0,3.12,2.8c1.14.89,2.27,1.82,3.47,2.65a71.81,71.81,0,0,0,32.47,12.71c1.47.21,2.92.3,4.42.44s3,.22,4.57.39a28.45,28.45,0,0,1,9.16,2.34A20.87,20.87,0,0,1,426,54a15,15,0,0,1,3.44,3.45,6.58,6.58,0,0,1,1,2.44,8.28,8.28,0,0,1,.08,2.52c-.15,1.6-.46,3-.63,4.52a14,14,0,0,0,1.66,8.33,21.16,21.16,0,0,0,5.55,6.8,15.67,15.67,0,0,0,8,3.53A11.46,11.46,0,0,0,453.45,83a12.23,12.23,0,0,1-3.88,2.31,11.36,11.36,0,0,1-4.52.65,16.3,16.3,0,0,1-8.5-3.29,22.24,22.24,0,0,1-6.14-6.87,15.46,15.46,0,0,1-2.2-9.08c.17-3.06,1.1-6.16-.53-8.14a13.37,13.37,0,0,0-3.07-2.79,19.25,19.25,0,0,0-3.74-2.06A25.62,25.62,0,0,0,412.46,52c-1.47-.1-3-.14-4.47-.18s-3.08-.1-4.61-.25a76,76,0,0,1-34.92-11.9c-1.32-.83-2.58-1.76-3.86-2.67a48.41,48.41,0,0,1-3.75-3.09,23.88,23.88,0,0,1-5.54-8.54c-2.4-6.27-2.76-12.72-3.06-18.79Z"/></g></g></svg>