<svg xmlns="http://www.w3.org/2000/svg" viewBox="0 0 763.96 652.02"><defs><style>.cls-1,.cls-5{font-size:40px;}.cls-1,.cls-31{fill:#3daaa1;}.cls-1{font-family:Acre-Semibold, Acre;font-weight:600;}.cls-2{letter-spacing:-0.02em;}.cls-3{letter-spacing:-0.03em;}.cls-4{letter-spacing:-0.1em;}.cls-28,.cls-5{fill:#5c5052;}.cls-5{font-family:Acre-Light, Acre;font-weight:300;}.cls-6{letter-spacing:-0.02em;}.cls-7{letter-spacing:-0.01em;}.cls-8{letter-spacing:-0.02em;}.cls-9{letter-spacing:0em;}.cls-10{letter-spacing:-0.02em;}.cls-11{letter-spacing:-0.01em;}.cls-12{letter-spacing:-0.01em;}.cls-13{letter-spacing:-0.02em;}.cls-14{letter-spacing:-0.01em;}.cls-15{letter-spacing:0em;}.cls-16{letter-spacing:-0.02em;}.cls-17{letter-spacing:0.01em;}.cls-18{letter-spacing:-0.03em;}.cls-19{letter-spacing:-0.01em;}.cls-20{letter-spacing:-0.01em;}.cls-21{letter-spacing:-0.03em;}.cls-22{letter-spacing:-0.01em;}.cls-23{letter-spacing:0em;}.cls-24{fill:#ffce01;}.cls-25,.cls-26,.cls-29{fill:none;stroke-miterlimit:10;}.cls-25,.cls-26{stroke:#f27243;}.cls-25{stroke-width:0.69px;}.cls-26{stroke-width:1.39px;}.cls-27{fill:#2b63a3;}.cls-29{stroke:#5c5052;stroke-width:2.78px;}.cls-30{fill:#ec6a7c;}</style></defs><g id="Layer_2" data-name="Layer 2"><g id="Layer_6" data-name="Layer 6"><text class="cls-1" transform="translate(156.69 34)">biodeg<tspan class="cls-2" x="131.76" y="0">r</tspan><tspan x="144.68" y="0">adation: “the l</tspan><tspan class="cls-2" x="410.83" y="0">i</tspan><tspan class="cls-3" x="421.71" y="0">v</tspan><tspan x="441.47" y="0">er</tspan><tspan class="cls-4" x="477.63" y="0">”</tspan></text><text class="cls-5" transform="translate(10.41 450.16)">a <tspan class="cls-6" x="38.48" y="0">h</tspan><tspan x="60.72" y="0">ealt</tspan><tspan class="cls-7" x="128.12" y="0">h</tspan><tspan class="cls-8" x="150.56" y="0">y</tspan><tspan class="cls-9" x="169.32" y="0" xml:space="preserve"> mic</tspan><tspan class="cls-2" x="249.24" y="0">r</tspan><tspan x="260.6" y="0">obio</tspan><tspan class="cls-10" x="343.48" y="0">m</tspan><tspan x="377.84" y="0">e ac</tspan><tspan class="cls-11" x="460.04" y="0">t</tspan><tspan x="470.72" y="0">s as t</tspan><tspan class="cls-12" x="566.71" y="0">h</tspan><tspan x="588.95" y="0">e &apos;</tspan><tspan class="cls-10" x="630.75" y="0">w</tspan><tspan x="661.99" y="0">a</tspan><tspan class="cls-13" x="686.67" y="0">s</tspan><tspan class="cls-2" x="702.31" y="0">t</tspan><tspan x="712.59" y="0">e </tspan><tspan class="cls-6" x="-4.56" y="64">m</tspan><tspan x="29.8" y="64">a</tspan><tspan class="cls-6" x="54.48" y="64">n</tspan><tspan x="76.68" y="64">age</tspan><tspan class="cls-11" x="148.64" y="64">r</tspan><tspan class="cls-14" x="160.4" y="64">s</tspan><tspan x="176.2" y="64">&apos; </tspan><tspan class="cls-14" x="195.4" y="64">o</tspan><tspan x="218.96" y="64">f t</tspan><tspan class="cls-12" x="254.92" y="64">h</tspan><tspan x="277.16" y="64">e </tspan><tspan class="cls-15" x="313.56" y="64">s</tspan><tspan x="329.76" y="64">oil, t</tspan><tspan class="cls-16" x="404.43" y="64">r</tspan><tspan x="415.79" y="64">a</tspan><tspan class="cls-17" x="440.47" y="64">n</tspan><tspan class="cls-13" x="463.55" y="64">s</tspan><tspan class="cls-2" x="479.19" y="64">f</tspan><tspan x="489.47" y="64">ormi</tspan><tspan class="cls-10" x="570.71" y="64">n</tspan><tspan x="592.91" y="64">g </tspan><tspan class="cls-12" x="631.39" y="64">h</tspan><tspan x="653.63" y="64">eav</tspan><tspan class="cls-18" x="720.99" y="64">y</tspan><tspan x="739.75" y="64"> </tspan><tspan class="cls-6" x="20.54" y="128">m</tspan><tspan class="cls-19" x="54.9" y="128">e</tspan><tspan class="cls-2" x="76.98" y="128">t</tspan><tspan x="87.26" y="128">als a</tspan><tspan class="cls-12" x="175.78" y="128">n</tspan><tspan x="197.98" y="128">d o</tspan><tspan class="cls-2" x="260.54" y="128">r</tspan><tspan x="271.9" y="128">ganic con</tspan><tspan class="cls-2" x="457.02" y="128">t</tspan><tspan x="467.3" y="128">ami</tspan><tspan class="cls-12" x="536.98" y="128">n</tspan><tspan x="559.18" y="128">an</tspan><tspan class="cls-20" x="606.66" y="128">t</tspan><tspan x="617.34" y="128">s in</tspan><tspan class="cls-16" x="680.29" y="128">t</tspan><tspan x="690.58" y="128">o </tspan><tspan class="cls-15" x="123.84" y="192">s</tspan><tspan x="140.04" y="192">a</tspan><tspan class="cls-16" x="164.72" y="192">f</tspan><tspan x="175" y="192">e</tspan><tspan class="cls-21" x="197.6" y="192">r</tspan><tspan x="208.64" y="192">, l</tspan><tspan class="cls-22" x="238.12" y="192">e</tspan><tspan class="cls-23" x="260.52" y="192">ss </tspan><tspan class="cls-2" x="306.96" y="192">t</tspan><tspan class="cls-22" x="317.24" y="192">o</tspan><tspan x="341.12" y="192">xic </tspan><tspan class="cls-12" x="405.56" y="192">b</tspan><tspan x="429.64" y="192">yp</tspan><tspan class="cls-2" x="474.04" y="192">r</tspan><tspan x="485.39" y="192">oduc</tspan><tspan class="cls-11" x="578.07" y="192">t</tspan><tspan x="588.75" y="192">s.</tspan></text><path class="cls-24" d="M200.87,286.29a19.17,19.17,0,0,0-2.77-4.79,25.63,25.63,0,0,1-1.64-2.46,18.65,18.65,0,0,1-1.23-2.78,24.86,24.86,0,0,1-1-4A18.88,18.88,0,0,1,194,270l-10.1-1.5,7.1-7.54a9.91,9.91,0,0,0-16.52,10.16l0,.08a11,11,0,0,0,.89,1.9c.59,1,1.2,1.91,1.78,2.8a26.19,26.19,0,0,1,3.19,5.8c.1.27.18.54.26.82a20.06,20.06,0,0,1,.54,4.48,24.42,24.42,0,0,0,.52,4.78,10.31,10.31,0,0,0,.29,1,10,10,0,0,0,19.39-2.4A9.21,9.21,0,0,0,200.87,286.29Z"/><path class="cls-25" d="M189.44,262.75a7.5,7.5,0,0,0-13.06,4,7.94,7.94,0,0,0,.38,3.52h0a7.87,7.87,0,0,0,.71,1.53c.56.94,1.15,1.83,1.72,2.71a24.92,24.92,0,0,1,3.75,7.29,21.71,21.71,0,0,1,.63,5,22.87,22.87,0,0,0,.47,4.34,7.48,7.48,0,0,0,3.72,4.84A7.57,7.57,0,0,0,199,290.1c.28-2.87-1.24-5-2.83-7.19a26.77,26.77,0,0,1-1.78-2.7,23.77,23.77,0,0,1-2.53-7.52,28.07,28.07,0,0,1-.28-3"/><path class="cls-24" d="M615.63,318.28l11.51,4.25a14.4,14.4,0,0,0,1.09-3.14,13.75,13.75,0,0,0-21.06-14.31l-.1.07A14.73,14.73,0,0,0,604.8,307c-1.15,1.12-2.19,2.25-3.2,3.34a36.72,36.72,0,0,1-6.78,6.2c-.33.22-.67.43-1,.62a27,27,0,0,1-5.86,2.19,36.26,36.26,0,0,0-6.29,2.29,13.12,13.12,0,0,0-1.25.73A13.89,13.89,0,0,0,590,347.71a13.05,13.05,0,0,0,5.31-2,26.72,26.72,0,0,0,5.54-5.32,39.33,39.33,0,0,1,2.79-3,25.67,25.67,0,0,1,3.34-2.59,36.12,36.12,0,0,1,5-2.68,32.09,32.09,0,0,1,3.59-1.22c1-.31,2.09-.63,3.14-1Z"/><path class="cls-25" d="M624,321.38a10.2,10.2,0,0,0,.91-2.59,10.36,10.36,0,0,0-11.33-12.56A11.14,11.14,0,0,0,609,307.9h0a11.17,11.17,0,0,0-1.83,1.46c-1.08,1.06-2.1,2.16-3.08,3.22-2.6,2.8-5.06,5.46-8.61,7.46a30,30,0,0,1-6.57,2.49,35,35,0,0,0-5.7,2.06,10.44,10.44,0,0,0-5.31,6.62,10.6,10.6,0,0,0,1.29,8.49,10.71,10.71,0,0,0,10.41,4.7c4-.56,6.31-3.3,8.78-6.19a39.71,39.71,0,0,1,3.06-3.29,32.93,32.93,0,0,1,9.31-5.88,38.08,38.08,0,0,1,4-1.37c1.07-.32,2.16-.65,3.22-1.06"/><path class="cls-24" d="M228.88,219.59l12.1,3.09a13.32,13.32,0,0,0-15.43-18.41,12.27,12.27,0,0,0-4.9,2.43,25.6,25.6,0,0,0-4.82,5.64,36.36,36.36,0,0,1-2.38,3.17,24.14,24.14,0,0,1-3,2.8,34.08,34.08,0,0,1-4.58,3.06,31.16,31.16,0,0,1-3.33,1.52,24.09,24.09,0,0,0-6.15,3.3,13.08,13.08,0,0,0-4.82,8.94,13.27,13.27,0,0,0,21.59,11.71l.1-.07a15.58,15.58,0,0,0,2-2c1-1.19,1.87-2.37,2.74-3.51a35.76,35.76,0,0,1,5.91-6.62c.3-.23.61-.47.92-.69a26.72,26.72,0,0,1,5.41-2.67c.76-.3,1.53-.62,2.3-1Z"/><path class="cls-26" d="M237.87,221.88a10.34,10.34,0,0,0-1.11-11,10.31,10.31,0,0,0-10.45-3.5c-3.74.92-5.73,3.77-7.83,6.79a36.3,36.3,0,0,1-2.61,3.45,32,32,0,0,1-8.38,6.54,34.73,34.73,0,0,1-3.68,1.7,21.14,21.14,0,0,0-5.34,2.81,9.89,9.89,0,0,0-3.64,6.71,10.06,10.06,0,0,0,2.13,7.45,9.94,9.94,0,0,0,10,3.5,10.56,10.56,0,0,0,4.28-2h0a11,11,0,0,0,1.62-1.58c.93-1.12,1.8-2.27,2.64-3.38,2.23-2.95,4.33-5.73,7.55-8a29.41,29.41,0,0,1,6.07-3c.81-.32,1.63-.66,2.44-1"/><path class="cls-27" d="M243.74,239.19a11.46,11.46,0,0,1,14.49-8.35,12,12,0,0,1,4.72,2.42l-1.33,5.08a7.87,7.87,0,0,0-4.5-2.89,7.08,7.08,0,0,0-3.68,13.68,7.72,7.72,0,0,0,5.35-.25l-1.41,5.1a12.39,12.39,0,0,1-5.29-.31A11.46,11.46,0,0,1,243.74,239.19Z"/><path class="cls-27" d="M284.1,238.19l-5.94,22.08L273.53,259l2.36-8.79L267.48,248l-2.37,8.79-4.63-1.24,5.92-22.08,4.64,1.25-2.36,8.8,8.41,2.26,2.37-8.8Z"/><path class="cls-27" d="M288.4,269.82a4.53,4.53,0,0,1-5.71,3.13,4.74,4.74,0,0,1-3.67-4.59l2.71-.53a2.41,2.41,0,0,0,1.65,2.43,1.9,1.9,0,1,0,1-3.66,3.17,3.17,0,0,0-1.71.07L281.9,265l.07,0,3.94-2.35-4.28-1.15.71-2.65,7.56,2-.62,2.28-3,1.81A4.19,4.19,0,0,1,288.4,269.82Z"/><path class="cls-27" d="M316.56,246.92,310.63,269,306,267.74l2.37-8.79-8.42-2.27-2.36,8.8-4.64-1.24,5.93-22.07,4.63,1.24-2.36,8.8,8.42,2.26,2.36-8.8Z"/><path class="cls-27" d="M330.14,273.32c-1.29,4.82-5.72,6.44-10,5.29a14,14,0,0,1-5.66-3.08l1.18-4.28a10.33,10.33,0,0,0,4.77,3.14c2.49.67,4.66-.1,5.45-3l.12-.44a6.2,6.2,0,0,1-5.37,1c-4.32-1.16-6.13-5.5-4.91-10s5-7.36,9.27-6.2a6.13,6.13,0,0,1,4.1,3.47l.53-2,4.51,1.22ZM327.5,265a3.73,3.73,0,0,0-2.53-4.66,3.86,3.86,0,0,0-2,7.44A3.72,3.72,0,0,0,327.5,265Z"/><path class="cls-27" d="M343.63,261.62l-2.52-.68-.69,2.55-2.08-.55.69-2.56-2.46-.66.54-2,2.46.66.67-2.48,2.08.56-.67,2.48,2.52.68Z"/><path class="cls-27" d="M365.6,271.82l-.6,2.24-13,3.82,1.17-4.35,7.41-1.8-5.52-5.24,1.19-4.45Z"/><path class="cls-27" d="M399.65,269.24l-5.93,22.07-4.63-1.24,2.36-8.8L383,279l-2.36,8.79L376,286.56,382,264.49l4.64,1.24-2.37,8.8,8.42,2.26L395,268Z"/><path class="cls-27" d="M413.23,295.64c-1.29,4.83-5.71,6.44-10,5.29a13.86,13.86,0,0,1-5.66-3.08l1.18-4.28a10.3,10.3,0,0,0,4.76,3.14c2.5.67,4.66-.1,5.45-3l.12-.44a6.2,6.2,0,0,1-5.37,1c-4.32-1.16-6.13-5.5-4.91-10s4.95-7.36,9.27-6.2a6.13,6.13,0,0,1,4.1,3.47l.53-1.95,4.51,1.21Zm-2.64-8.28a3.73,3.73,0,0,0-2.53-4.67,3.86,3.86,0,0,0-2,7.44A3.72,3.72,0,0,0,410.59,287.36Z"/><path class="cls-27" d="M420.18,280.27c1-3.6,3-6.31,6.25-5.43s3.63,4.22,2.66,7.82-3,6.32-6.23,5.44S419.2,283.91,420.18,280.27Zm6.19,1.66c.58-2.13.64-4-.7-4.34s-2.2,1.28-2.77,3.41-.67,4,.69,4.34S425.8,284.08,426.37,281.93Z"/><path class="cls-28" d="M294.24,323.26s1.57-3.77-.15-5.29-4.67,3.07-4.67,3.07l-9.89,1c5.63-2.11,5.42-8.7,5.42-8.7s5.06-1.83,7.33-8.71C297.4,289.16,278.46,284,278.46,284s-18.27-7.15-23.39,8.34c-2.27,6.88.7,11.36.7,11.36s-4.09,5.17-.83,10.23l-7.32-6.72s.36-5.44-1.93-5.24-3.28,4.16-3.28,4.16-3.25-.28-3.53,2.49,5.45,2.76,5.45,2.76l10.06,9.52-.57,1.72-7.59,1.79-4.16-1.37c-2-.67-3.25-.76-4,.1s1.83,3.63,1.83,3.63-2.66,4.69-.08,5.53a2.65,2.65,0,0,0,3.43-1.72,7.56,7.56,0,0,1,3.2-1.49l7.44-1.36s.32,4.56,7.82,7,10.46-1,10.46-1l5.17,5.53a7.68,7.68,0,0,1,1.69,3.1,2.66,2.66,0,0,0,1.72,3.44c2.58.85,3.24-4.51,3.24-4.51s3.72-.67,3.62-1.82-1.15-1.81-3.16-2.47l-4.16-1.38-5-5.95.57-1.72,13.75-1.67s4.6,3.43,6,1S294.24,323.26,294.24,323.26ZM261.1,312.8c-5-2.2-2.51-7.67-2.51-7.67s.55-1.76,4.89-1.09,4.85,2.16,4.85,2.16a2.17,2.17,0,0,1,.12,1.79S266.06,315,261.1,312.8Zm5.37,7.74s-1.32,2.6-2.27-.22,4.4-6.21,4-4.91Zm2.76,1.44c-2.45,1.7-2-1.18-2-1.18l1.69-5.12C269.4,314.37,271.67,320.28,269.23,322Zm7-4.17c-5.29-1.19-3-8.24-3-8.24s.33-1.12,1.16-1.37c0,0,1.23-.92,5.19,1.16s3.28,3.79,3.28,3.79S281.56,319,276.27,317.81Z"/><path class="cls-24" d="M401,337.11a24.57,24.57,0,1,1-18.74-29.26A24.56,24.56,0,0,1,401,337.11Z"/><path class="cls-28" d="M375.24,324.94c-.69,3.11-2.42,5.38-3.88,5.06s-2.08-3.1-1.4-6.22,2.42-5.39,3.88-5.07S375.91,321.82,375.24,324.94Z"/><path class="cls-28" d="M386.85,327.48c-.69,3.11-2.42,5.39-3.88,5.06s-2.08-3.1-1.39-6.22,2.41-5.39,3.87-5.07S387.53,324.36,386.85,327.48Z"/><path class="cls-29" d="M391.13,338.54c-1.57,7.16-9.48,11.51-17.68,9.71s-13.57-9.05-12-16.21"/><path class="cls-27" d="M364.6,174.13c-2.45-7.62,1.11-15.43,9.26-18a14.47,14.47,0,0,1,6.41-.66l2,6.07a9.58,9.58,0,0,0-6.5,0,8.61,8.61,0,0,0,5.28,16.38,9.36,9.36,0,0,0,5.27-3.79l1.94,6.13a15.18,15.18,0,0,1-5.6,3.18A13.92,13.92,0,0,1,364.6,174.13Z"/><path class="cls-27" d="M396.63,157.12l2,6.26c-2.59.25-5.25,1.69-4,5.58l2.94,9.13-5.43,1.75L386.08,161l5.44-1.75.91,2.83A6.7,6.7,0,0,1,396.63,157.12Z"/><path class="cls-27" d="M406.7,155.16l-3,1,1,3.06-2.48.8-1-3.06-2.95,1-.77-2.42,2.94-.94-.95-3,2.48-.8,1,3,3-1Z"/><path class="cls-27" d="M419.18,151.69a5.65,5.65,0,0,1-10.77,3.43v0c-.63-2.05-.13-4.42.16-6.16s.56-3.51.85-5.49l3.51-1.14-1,5.94.2-.07A5.41,5.41,0,0,1,419.18,151.69Zm-3.23.92a2.3,2.3,0,1,0-1.49,2.91A2.27,2.27,0,0,0,416,152.61Z"/><path class="cls-27" d="M448.17,147.11l.87,2.68L438.3,162.23l-1.68-5.2,6.38-6.72-9.08-1.7-1.72-5.32Z"/><path class="cls-27" d="M463.52,142.29a13.9,13.9,0,0,1,9.26-18,14.3,14.3,0,0,1,6.41-.65l2,6.06a9.64,9.64,0,0,0-6.5,0A8.61,8.61,0,0,0,480,146a9.39,9.39,0,0,0,5.28-3.78l1.93,6.12a14.87,14.87,0,0,1-5.6,3.17C473.42,154.18,466,149.92,463.52,142.29Z"/><path class="cls-27" d="M495.55,125.28l2,6.26c-2.59.25-5.25,1.69-4,5.58l2.94,9.13L491.07,148,485,129.13l5.43-1.75.92,2.83A6.66,6.66,0,0,1,495.55,125.28Z"/><path class="cls-27" d="M505.62,123.31l-3,1,1,3.06-2.49.8-1-3.06-2.95,1-.77-2.41,2.94-1-.95-3,2.48-.79,1,3,3-1Z"/><path class="cls-27" d="M518.28,119.9a5.52,5.52,0,0,1-3.76,7,5.77,5.77,0,0,1-6.77-2.27l2.41-2.32a2.94,2.94,0,0,0,3.28,1.39,2.3,2.3,0,1,0-1.4-4.38,3.87,3.87,0,0,0-1.7,1.2l-1.84-1.17.05-.09,2.46-5-5.12,1.65-1-3.16,9-2.91.88,2.72-1.88,3.83A5.11,5.11,0,0,1,518.28,119.9Z"/><path class="cls-28" d="M437.11,208.57s-1.08-3.79-3.29-3.91-1.7,5.11-1.7,5.11l-6.86,6.7c3-5-1.11-9.83-1.11-9.83s2.73-4.41.33-11c-5.39-14.78-22.79-7.34-22.79-7.34s-18.09,5.53-12.7,20.3c2.4,6.57,7.33,8.18,7.33,8.18s0,6.36,5.49,8.23l-9.56-.7s-3-4.34-4.59-2.81,0,5.11,0,5.11-2.62,1.73-1.17,4,5.77-1.18,5.77-1.18l13.3,1.19.6,1.64-4.67,5.9s-2.05.74-4,1.45-2.91,1.37-3,2.48,3.54,1.65,3.54,1.65.8,5.13,3.26,4.23a2.57,2.57,0,0,0,1.56-3.36,7.42,7.42,0,0,1,1.53-3l4.82-5.48s3,3.26,10.12.65,7.31-7,7.31-7l7.22,1.09a7.37,7.37,0,0,1,3.13,1.33,2.56,2.56,0,0,0,3.36,1.57c2.46-.9-.25-5.34-.25-5.34s2.41-2.74,1.65-3.55-1.95-.68-3.87,0l-4,1.45-7.36-1.49-.6-1.65,9.4-9.48s5.53-.16,5.17-2.82S437.11,208.57,437.11,208.57Zm-31.33,11.91c-5.06,1.31-6.49-4.29-6.49-4.29s-.63-1.67,3-3.75,5-1.27,5-1.27c.82.22,1.17,1.28,1.17,1.28S410.85,219.17,405.78,220.48Zm8.69,2.65s.57,2.75-1.84,1.18-.4-7.32.06-6.07Zm2.95-.57c-.83,2.76-2.18.28-2.18.28L413.46,218C413,216.71,418.25,219.81,417.42,222.56Zm2.83-7.36c-4.71,2.26-7.23-4.42-7.23-4.42a2.08,2.08,0,0,1,.06-1.73s.38-1.42,4.62-2.22,4.75.9,4.75.9S425,212.93,420.25,215.2Z"/><path class="cls-24" d="M531.36,169.13a23.69,23.69,0,1,1-31.14-12.36A23.69,23.69,0,0,1,531.36,169.13Z"/><path class="cls-28" d="M504.3,174.12c1.22,2.83,1.14,5.58-.18,6.15s-3.37-1.26-4.59-4.09-1.14-5.57.18-6.14S503.08,171.3,504.3,174.12Z"/><path class="cls-28" d="M514.82,169.58c1.22,2.82,1.15,5.58-.17,6.14s-3.38-1.25-4.6-4.08-1.14-5.58.18-6.15S513.6,166.75,514.82,169.58Z"/><path class="cls-29" d="M524.4,175.82c2.81,6.5-.94,14.35-8.37,17.56s-15.72.55-18.52-5.93"/><path class="cls-30" d="M328.58,171.26,343,173c.17-.25.35-.5.51-.77a14,14,0,0,0-24.11-14.12s-8.77,16.06-37.78,33.63a14,14,0,1,0,13.45,24.45s19.9-10.85,39.57-32.85Z"/><path class="cls-30" d="M466.47,313.76l3.81-7.44c-1.45-2-2.44-3.11-2.44-3.11a9.28,9.28,0,0,0-15,10.88c6.61,13.46,8.32,24.28,8.74,28a9.47,9.47,0,0,0,.12,1.41,9.89,9.89,0,0,0,19,1.85,10.05,10.05,0,0,0,.58-4.28A50.92,50.92,0,0,0,476,315.91Z"/><path class="cls-31" d="M216.72,173.88c-4.93,1.58-10.64-1.11-13.57-6.4a13.38,13.38,0,0,1-1.52-9.23,9.74,9.74,0,0,1,4.74-6.68,9,9,0,0,1,1.63-.71c4.93-1.58,10.64,1.11,13.58,6.39a13.46,13.46,0,0,1,1.51,9.24,9.7,9.7,0,0,1-4.73,6.68A9.13,9.13,0,0,1,216.72,173.88Z"/><path class="cls-31" d="M245.08,182c-2.66,4.45-8.72,6.2-14.42,4.17a13.42,13.42,0,0,1-7.24-5.92,9.76,9.76,0,0,1-.86-8.15,8.77,8.77,0,0,1,.76-1.61c2.65-4.44,8.71-6.2,14.41-4.17a13.34,13.34,0,0,1,7.24,5.92,9.76,9.76,0,0,1,.87,8.15A9.47,9.47,0,0,1,245.08,182Z"/><path class="cls-31" d="M203,136.21c-3.85-5-10.19-6.89-14.75-4.39a9.57,9.57,0,0,0-1.08.71,9.45,9.45,0,0,0-3.53,7.23,13.18,13.18,0,0,0,.22,2.73h8.31l-3.2,8.64c3.78,3.15,8.69,4.09,12.42,2a8.48,8.48,0,0,0,1.09-.71,9.36,9.36,0,0,0,3.52-7.24A13.89,13.89,0,0,0,203,136.21Z"/><path class="cls-30" d="M579.9,191.34a10,10,0,0,0-20.09-.38l8.31,6-9.32,2.27c-1.22,6-4,15.15-10.27,26.76a10.07,10.07,0,1,0,17.27,10.3,122.36,122.36,0,0,0,14.1-43.83h-.07A10.55,10.55,0,0,0,579.9,191.34Z"/><path class="cls-30" d="M512.11,232.55a6.68,6.68,0,0,0-3.47,1.09l.67,5.71-4.4-1.62a59.66,59.66,0,0,1-16.07,13.44,6.44,6.44,0,1,0,6,11.34c20.08-11.57,23.41-20,23.41-20a6.69,6.69,0,0,0,.79-3.33A6.77,6.77,0,0,0,512.11,232.55Z"/><path class="cls-31" d="M561,296.32c-1.64,6.28-8.32,10.52-15.88,10.08a16.76,16.76,0,0,1-10.79-4.58,12.19,12.19,0,0,1-3.91-9.5,12.55,12.55,0,0,1,.34-2.21c1.64-6.28,8.32-10.52,15.89-10.08a16.78,16.78,0,0,1,10.79,4.58,12.22,12.22,0,0,1,3.91,9.5A11.83,11.83,0,0,1,561,296.32Z"/><path class="cls-31" d="M588.62,271.76c2.92,5.79.72,13.39-5.25,18.06a16.79,16.79,0,0,1-11.14,3.7A12.2,12.2,0,0,1,563,289a11,11,0,0,1-1.2-1.89c-2.93-5.79-.71-13.39,5.25-18.06a16.76,16.76,0,0,1,11.14-3.69,12.22,12.22,0,0,1,9.2,4.54A12.06,12.06,0,0,1,588.62,271.76Z"/><path class="cls-31" d="M615.06,251.53c2.39,6-.5,13.41-6.87,17.51a16.79,16.79,0,0,1-11.42,2.67,12.21,12.21,0,0,1-8.76-5.37,11.32,11.32,0,0,1-1-2c-2.39-6,.5-13.39,6.87-17.51a16.77,16.77,0,0,1,11.42-2.66,12.23,12.23,0,0,1,8.76,5.37A11.23,11.23,0,0,1,615.06,251.53Z"/><path class="cls-31" d="M648.77,248.94c-.07,6.49-5.53,12.21-13,13.61a16.81,16.81,0,0,1-11.58-1.86,12.23,12.23,0,0,1-6.07-8.28,12,12,0,0,1-.2-2.23c.09-6.49,5.55-12.21,13-13.61a16.89,16.89,0,0,1,11.59,1.86,12.23,12.23,0,0,1,6.07,8.29A11,11,0,0,1,648.77,248.94Z"/><path class="cls-31" d="M528.73,297a11.78,11.78,0,0,0-5.29-8.59,17.48,17.48,0,0,0-11.56-2.86,16.83,16.83,0,0,0-12.66,7.14l9.18,5.73-9.84,5.41a12.83,12.83,0,0,0,4.11,4.61,17.54,17.54,0,0,0,11.56,2.86c7.88-.73,14.13-6.18,14.53-12.68A9.72,9.72,0,0,0,528.73,297Z"/><path class="cls-30" d="M190.1,339.25l1.28-8.1a118.93,118.93,0,0,0-31.4-21l0,.05a7.92,7.92,0,0,0-1-.37,9.42,9.42,0,1,0-5.6,18s11.88,3.32,27.84,19.69a9.41,9.41,0,0,0,15.65-10.3Z"/></g></g></svg>