<svg xmlns="http://www.w3.org/2000/svg" xmlns:xlink="http://www.w3.org/1999/xlink" viewBox="0 0 1257.89 746.29"><defs><style>.cls-1,.cls-22,.cls-23,.cls-24,.cls-38,.cls-57,.cls-58,.cls-8{fill:none;}.cls-2{clip-path:url(#clip-path);}.cls-3{fill:#3daaa1;}.cls-25,.cls-4{fill:#5c5052;}.cls-5{fill:#c3996b;}.cls-6{fill:#a87c4f;}.cls-7{fill:#755047;}.cls-22,.cls-8{stroke:#3daaa1;}.cls-8{stroke-linejoin:round;stroke-width:4.38px;}.cls-9{fill:#3ca9a0;}.cls-10{fill:#5d5153;}.cls-11,.cls-12,.cls-17,.cls-25,.cls-41{font-size:34.3px;}.cls-11,.cls-20{fill:#fff;}.cls-11,.cls-15,.cls-20,.cls-25,.cls-29,.cls-35{font-family:Acre-Thin, Acre;font-weight:200;}.cls-12{fill:#ffcf01;}.cls-12,.cls-36,.cls-41,.cls-46{font-family:Acre-Medium, Acre;font-weight:500;}.cls-13{letter-spacing:-0.01em;}.cls-14{letter-spacing:-0.01em;}.cls-15{font-size:25.73px;}.cls-15,.cls-29,.cls-35,.cls-39{fill:#5d5152;}.cls-16{fill:#231f20;}.cls-17,.cls-41{fill:#ec6a7c;}.cls-17,.cls-54{font-family:Acre-Regular, Acre;}.cls-18{letter-spacing:-0.02em;}.cls-19{letter-spacing:-0.01em;}.cls-20{font-size:25.73px;}.cls-21{font-size:20.58px;}.cls-22,.cls-24,.cls-28,.cls-34,.cls-38,.cls-57,.cls-58{stroke-miterlimit:10;}.cls-22{stroke-width:4.29px;}.cls-23{opacity:0.64;}.cls-24,.cls-38{stroke:#5d5152;}.cls-24{stroke-width:0.86px;}.cls-26{letter-spacing:-0.01em;}.cls-27{letter-spacing:-0.01em;}.cls-28,.cls-34{fill:#fecf08;}.cls-28,.cls-34,.cls-57,.cls-58{stroke:#ec6b7c;}.cls-28{stroke-width:2.73px;}.cls-29{font-size:32.75px;}.cls-30{letter-spacing:-0.07em;}.cls-31{letter-spacing:-0.02em;}.cls-32{letter-spacing:-0.01em;}.cls-33,.cls-36{fill:#ec6b7c;}.cls-34{stroke-width:1.64px;}.cls-35{font-size:36.39px;}.cls-36{font-size:36.39px;}.cls-37{letter-spacing:-0.01em;}.cls-38{stroke-width:0.97px;}.cls-40{fill:#2b63a3;}.cls-42{letter-spacing:0em;}.cls-43{letter-spacing:-0.01em;}.cls-44{letter-spacing:-0.03em;}.cls-45{letter-spacing:-0.07em;}.cls-46{font-size:48.88px;fill:#2e61a2;}.cls-47{letter-spacing:-0.03em;}.cls-48{letter-spacing:-0.01em;}.cls-49{letter-spacing:-0.02em;}.cls-50{letter-spacing:-0.02em;}.cls-51{font-size:51.45px;}.cls-52{font-size:77.18px;font-family:Acre-Semibold, Acre;font-weight:600;}.cls-53{letter-spacing:-0.02em;}.cls-54{font-weight:400;}.cls-55{letter-spacing:-0.01em;}.cls-56{letter-spacing:-0.07em;}.cls-57{stroke-width:1.03px;}.cls-58{stroke-width:0.97px;}</style><clipPath id="clip-path" transform="translate(15.1 -11.88)"><rect class="cls-1" width="1183.97" height="660.43"/></clipPath></defs><g id="Layer_2" data-name="Layer 2"><g id="Layer_6" data-name="Layer 6"><g class="cls-2"><path class="cls-3" d="M39,323.08c.24-2.7.93-5.33,1.15-8,.32-4.09-.47-8.17-.61-12.27-.22-6.66,1.26-13.43.09-19.95a179.46,179.46,0,0,1,3.55,32.11c.05,2.31.05,4.64.33,6.93.54,4.34,2.06,8.73,1.09,12.95-.23,1-4.66-2.07-5.09-2.89C38.44,329.88,38.8,325.33,39,323.08Z" transform="translate(15.1 -11.88)"/><path class="cls-3" d="M45.55,314.63c.23-3.48.22-7,.65-10.43.31-2.49.85-4.94,1-7.44a44.94,44.94,0,0,0-.87-9.61,28.21,28.21,0,0,1,4.1,15.69c-.12,3.62-.9,7.15-1.33,10.73-.92,7.64-.23,15.47-1.22,23.1-.93,7.17-3.18-3.7-3.3-5.58C44.21,325.59,45.19,320.09,45.55,314.63Z" transform="translate(15.1 -11.88)"/><path class="cls-3" d="M54.46,309c.23-3.48.21-7,.64-10.43.32-2.49.86-4.94,1-7.44a45.6,45.6,0,0,0-.88-9.61,28.14,28.14,0,0,1,4.1,15.7c-.11,3.61-.9,7.14-1.33,10.72-.92,7.64-.22,15.47-1.21,23.1-.93,7.17-3.18-3.7-3.3-5.57C53.12,320,54.1,314.48,54.46,309Z" transform="translate(15.1 -11.88)"/><path class="cls-3" d="M63.12,324.53c.24-2.7.94-5.33,1.15-8,.32-4.08-.47-8.16-.61-12.26-.22-6.66,1.27-13.43.09-20a179.45,179.45,0,0,1,3.55,32.1c0,2.32,0,4.65.33,6.94.54,4.34,2.06,8.73,1.09,12.95-.22,1-4.66-2.07-5.09-2.89C62.55,331.32,62.92,326.78,63.12,324.53Z" transform="translate(15.1 -11.88)"/><path class="cls-3" d="M76.92,317.54c.23-3.47.22-7,.65-10.43.31-2.48.85-4.93,1-7.44a45,45,0,0,0-.88-9.61,28.19,28.19,0,0,1,4.11,15.7c-.12,3.61-.9,7.14-1.33,10.72-.92,7.64-.23,15.47-1.22,23.1-.93,7.17-3.18-3.7-3.3-5.57C75.58,328.51,76.56,323,76.92,317.54Z" transform="translate(15.1 -11.88)"/><path class="cls-3" d="M70.12,313.86c.25-2.71.94-5.33,1.15-8,.32-4.08-.46-8.16-.6-12.26-.23-6.67,1.26-13.43.09-19.95a180.37,180.37,0,0,1,3.55,32.1,66.77,66.77,0,0,0,.33,6.94c.53,4.33,2.06,8.73,1.09,13-.23,1-4.66-2.07-5.1-2.89C69.55,320.65,69.92,316.1,70.12,313.86Z" transform="translate(15.1 -11.88)"/><path class="cls-3" d="M355,338.65q-1.73-16.63-2-33.41c1.61,6.69,3.23,13.44,3.58,20.38.17,3.31,0,6.62.26,9.92.52,7.7,3.12,16.22.13,23.64-3.42-1.56-3-3.72-2.27-7.42A42.05,42.05,0,0,0,355,338.65Z" transform="translate(15.1 -11.88)"/><path class="cls-3" d="M367.89,333.48q-1.71-16.64-2-33.41c1.61,6.69,3.23,13.44,3.58,20.38.16,3.3,0,6.62.26,9.92.52,7.7,3.11,16.22.12,23.64-3.41-1.56-3-3.72-2.26-7.42A42.36,42.36,0,0,0,367.89,333.48Z" transform="translate(15.1 -11.88)"/><path class="cls-3" d="M145.68,325.77c.24-2.7.94-5.33,1.15-8,.32-4.09-.47-8.17-.61-12.27-.22-6.66,1.27-13.43.09-20a179.45,179.45,0,0,1,3.55,32.1c0,2.32,0,4.65.33,6.94.54,4.34,2.06,8.73,1.09,12.95-.22,1-4.66-2.07-5.09-2.89C145.11,332.57,145.48,328,145.68,325.77Z" transform="translate(15.1 -11.88)"/><path class="cls-3" d="M344.6,326.38c.24-2.7.93-5.33,1.15-8,.32-4.09-.47-8.17-.61-12.27-.22-6.66,1.26-13.43.09-19.95a179.46,179.46,0,0,1,3.55,32.11c.05,2.31.05,4.64.33,6.93.54,4.34,2.06,8.73,1.09,12.95-.23,1-4.66-2.07-5.09-2.89C344,333.18,344.39,328.63,344.6,326.38Z" transform="translate(15.1 -11.88)"/><path class="cls-3" d="M468.68,338.41c.24-2.7.93-5.33,1.15-8,.32-4.09-.47-8.17-.61-12.27-.22-6.66,1.26-13.43.09-19.95a179.45,179.45,0,0,1,3.55,32.1,66.77,66.77,0,0,0,.33,6.94c.54,4.34,2.06,8.73,1.09,12.95-.23,1-4.66-2.07-5.09-2.89C468.1,345.21,468.47,340.66,468.68,338.41Z" transform="translate(15.1 -11.88)"/><path class="cls-3" d="M691.69,352.23c.25-2.7.94-5.33,1.15-8,.32-4.09-.46-8.17-.6-12.27-.23-6.66,1.26-13.43.09-19.95a180.37,180.37,0,0,1,3.55,32.1,66.77,66.77,0,0,0,.33,6.94c.53,4.34,2.06,8.73,1.09,13-.23,1-4.66-2.07-5.09-2.89C691.12,359,691.49,354.48,691.69,352.23Z" transform="translate(15.1 -11.88)"/><path class="cls-3" d="M358.56,333.85c.25-2.7.94-5.32,1.15-8,.32-4.08-.46-8.17-.6-12.26-.23-6.67,1.26-13.43.09-20a180.58,180.58,0,0,1,3.55,32.11,66.9,66.9,0,0,0,.33,6.94c.53,4.33,2.06,8.72,1.09,13-.23,1-4.67-2.07-5.1-2.89C358,340.65,358.36,336.1,358.56,333.85Z" transform="translate(15.1 -11.88)"/><path class="cls-3" d="M155.64,315.33c.22-3.47.21-7,.64-10.43.31-2.48.86-4.93,1-7.44a45,45,0,0,0-.87-9.61,28.27,28.27,0,0,1,4.1,15.7c-.12,3.61-.9,7.14-1.33,10.72-.92,7.65-.22,15.47-1.21,23.11-.93,7.17-3.19-3.71-3.31-5.58C154.29,326.3,155.27,320.8,155.64,315.33Z" transform="translate(15.1 -11.88)"/><path class="cls-3" d="M167.37,321.26q-1.71-16.63-2-33.41c1.61,6.69,3.23,13.44,3.58,20.38.16,3.31,0,6.62.26,9.92.52,7.7,3.12,16.22.13,23.64-3.42-1.56-3-3.72-2.27-7.42A42.05,42.05,0,0,0,167.37,321.26Z" transform="translate(15.1 -11.88)"/><path class="cls-3" d="M182.77,329c.24-2.71.93-5.33,1.15-8,.32-4.08-.47-8.16-.61-12.26-.22-6.67,1.26-13.43.09-19.95a179.45,179.45,0,0,1,3.55,32.1c.05,2.32.05,4.65.33,6.94.54,4.33,2.06,8.72,1.09,13-.23,1-4.66-2.07-5.09-2.89C182.2,335.77,182.56,331.22,182.77,329Z" transform="translate(15.1 -11.88)"/><path class="cls-3" d="M334.65,338.07c.24-2.71.94-5.33,1.15-8,.32-4.08-.47-8.16-.61-12.26-.22-6.67,1.27-13.43.09-19.95a179.45,179.45,0,0,1,3.55,32.1,66.77,66.77,0,0,0,.34,6.94c.53,4.33,2.05,8.72,1.08,12.95-.22,1-4.66-2.07-5.09-2.89C334.08,344.86,334.45,340.31,334.65,338.07Z" transform="translate(15.1 -11.88)"/><path class="cls-3" d="M413.79,341.19c.25-2.7.94-5.32,1.15-8,.32-4.08-.47-8.17-.6-12.26-.23-6.67,1.26-13.43.09-20A180.57,180.57,0,0,1,418,333.05a66.77,66.77,0,0,0,.34,6.94c.53,4.33,2.06,8.72,1.09,12.95-.23,1-4.67-2.07-5.1-2.89C413.22,348,413.59,343.44,413.79,341.19Z" transform="translate(15.1 -11.88)"/><path class="cls-3" d="M420.43,354c.24-2.7.94-5.33,1.15-8,.32-4.09-.47-8.17-.61-12.27-.22-6.66,1.27-13.43.09-19.95a179.46,179.46,0,0,1,3.55,32.11,66.71,66.71,0,0,0,.34,6.93c.53,4.34,2.05,8.73,1.08,12.95-.22,1-4.66-2.07-5.09-2.89C419.86,360.75,420.23,356.2,420.43,354Z" transform="translate(15.1 -11.88)"/><path class="cls-3" d="M487.33,344.07c.24-2.7.94-5.33,1.15-8,.32-4.09-.47-8.17-.61-12.27-.22-6.66,1.26-13.43.09-19.95a179.45,179.45,0,0,1,3.55,32.1c.05,2.32.05,4.65.33,6.94.54,4.34,2.06,8.73,1.09,12.95-.23,1-4.66-2.07-5.09-2.89C486.76,350.87,487.12,346.32,487.33,344.07Z" transform="translate(15.1 -11.88)"/><path class="cls-3" d="M543.66,351.87c.25-2.7.94-5.33,1.15-8,.32-4.09-.47-8.17-.6-12.27-.23-6.66,1.26-13.43.09-19.95a180.47,180.47,0,0,1,3.54,32.11,67,67,0,0,0,.34,6.94c.53,4.33,2.06,8.72,1.08,12.95-.22,1-4.66-2.08-5.09-2.89C543.09,358.67,543.46,354.12,543.66,351.87Z" transform="translate(15.1 -11.88)"/><path class="cls-3" d="M496.5,348c.25-2.7.94-5.33,1.15-8,.32-4.08-.46-8.16-.6-12.26-.23-6.67,1.26-13.43.09-19.95a180.37,180.37,0,0,1,3.55,32.1,66.77,66.77,0,0,0,.33,6.94c.53,4.34,2.06,8.73,1.09,12.95-.23,1-4.66-2.07-5.09-2.89C495.93,354.74,496.3,350.2,496.5,348Z" transform="translate(15.1 -11.88)"/><path class="cls-3" d="M682.15,345.79c.24-2.7.93-5.33,1.15-8,.31-4.08-.47-8.16-.61-12.26-.23-6.67,1.26-13.43.09-19.95a179.45,179.45,0,0,1,3.55,32.1,66.77,66.77,0,0,0,.33,6.94c.54,4.34,2.06,8.73,1.09,12.95-.23,1-4.66-2.07-5.09-2.89C681.57,352.58,681.94,348,682.15,345.79Z" transform="translate(15.1 -11.88)"/><path class="cls-3" d="M608,340.64c.25-2.7.94-5.32,1.15-8,.32-4.08-.46-8.17-.6-12.27-.23-6.66,1.26-13.42.09-19.95a180.47,180.47,0,0,1,3.54,32.11,66.91,66.91,0,0,0,.34,6.94c.53,4.33,2.06,8.72,1.09,12.95-.23,1-4.67-2.07-5.1-2.89C607.45,347.44,607.82,342.89,608,340.64Z" transform="translate(15.1 -11.88)"/><path class="cls-3" d="M432.66,339.86c.25-2.71.94-5.33,1.15-8,.32-4.08-.47-8.16-.6-12.26-.23-6.67,1.26-13.43.09-19.95a180.36,180.36,0,0,1,3.54,32.1,66.77,66.77,0,0,0,.34,6.94c.53,4.33,2.06,8.72,1.09,13-.23,1-4.67-2.07-5.1-2.89C432.09,346.65,432.46,342.1,432.66,339.86Z" transform="translate(15.1 -11.88)"/><path class="cls-3" d="M516.19,348.8c.24-2.7.93-5.33,1.14-8,.32-4.09-.46-8.17-.6-12.27-.23-6.66,1.26-13.43.09-19.95a179.45,179.45,0,0,1,3.55,32.1,66.77,66.77,0,0,0,.33,6.94c.53,4.34,2.06,8.73,1.09,13-.23,1-4.66-2.07-5.09-2.89C515.61,355.6,516,351.05,516.19,348.8Z" transform="translate(15.1 -11.88)"/><path class="cls-3" d="M523.3,344.52c.24-2.7.93-5.33,1.15-8,.32-4.08-.47-8.16-.61-12.26-.22-6.67,1.26-13.43.09-20a179.45,179.45,0,0,1,3.55,32.1c0,2.32,0,4.65.33,6.94.54,4.34,2.06,8.73,1.09,12.95-.23,1-4.66-2.07-5.09-2.89C522.73,351.31,523.09,346.77,523.3,344.52Z" transform="translate(15.1 -11.88)"/><path class="cls-3" d="M562.06,341.19c.24-2.7.93-5.32,1.15-8,.31-4.08-.47-8.17-.61-12.26-.23-6.67,1.26-13.43.09-20a179.66,179.66,0,0,1,3.55,32.11,66.77,66.77,0,0,0,.33,6.94c.54,4.33,2.06,8.72,1.09,12.95-.23,1-4.66-2.07-5.09-2.89C561.48,348,561.85,343.44,562.06,341.19Z" transform="translate(15.1 -11.88)"/><path class="cls-3" d="M531.27,340.64c.24-2.7.93-5.32,1.15-8,.32-4.08-.47-8.17-.61-12.27-.22-6.66,1.26-13.42.09-19.95a179.56,179.56,0,0,1,3.55,32.11c0,2.32,0,4.64.33,6.94.54,4.33,2.06,8.72,1.09,12.95-.23,1-4.66-2.07-5.09-2.89C530.7,347.44,531.06,342.89,531.27,340.64Z" transform="translate(15.1 -11.88)"/><path class="cls-3" d="M538.84,354c.24-2.7.93-5.33,1.14-8,.32-4.09-.46-8.17-.6-12.27-.23-6.66,1.26-13.43.09-19.95A179.46,179.46,0,0,1,543,345.81a66.71,66.71,0,0,0,.33,6.93c.54,4.34,2.06,8.73,1.09,12.95-.23,1-4.66-2.07-5.09-2.89C538.26,360.75,538.63,356.2,538.84,354Z" transform="translate(15.1 -11.88)"/><path class="cls-3" d="M626.36,345.78c.25-2.7.94-5.32,1.15-8,.32-4.08-.46-8.17-.6-12.26-.23-6.67,1.26-13.43.09-20a180.58,180.58,0,0,1,3.55,32.11,66.9,66.9,0,0,0,.33,6.94c.53,4.33,2.06,8.72,1.09,12.95-.23,1-4.66-2.07-5.1-2.89C625.79,352.58,626.16,348,626.36,345.78Z" transform="translate(15.1 -11.88)"/><path class="cls-3" d="M645.31,351.7c.24-2.71.94-5.33,1.15-8,.32-4.08-.47-8.16-.61-12.26-.22-6.67,1.27-13.43.09-19.95a179.45,179.45,0,0,1,3.55,32.1c0,2.32,0,4.65.33,6.94.54,4.33,2.06,8.72,1.09,12.95-.22,1-4.66-2.07-5.09-2.89C644.74,358.49,645.11,353.94,645.31,351.7Z" transform="translate(15.1 -11.88)"/><path class="cls-3" d="M652.78,341c.24-2.7.93-5.33,1.15-8,.31-4.09-.47-8.17-.61-12.27-.22-6.66,1.26-13.43.09-19.95A179.56,179.56,0,0,1,657,332.84a67,67,0,0,0,.33,6.94c.54,4.33,2.06,8.72,1.09,13-.23,1-4.66-2.08-5.09-2.89C652.2,347.78,652.57,343.23,652.78,341Z" transform="translate(15.1 -11.88)"/><path class="cls-3" d="M461.4,347.2c.24-2.7.94-5.33,1.15-8,.32-4.08-.47-8.16-.61-12.26-.22-6.67,1.27-13.43.09-19.95a179.45,179.45,0,0,1,3.55,32.1,66.77,66.77,0,0,0,.34,6.94c.53,4.34,2.05,8.73,1.08,12.95-.22,1-4.66-2.07-5.09-2.89C460.83,354,461.2,349.44,461.4,347.2Z" transform="translate(15.1 -11.88)"/><path class="cls-3" d="M287.83,329c.24-2.71.93-5.33,1.14-8,.32-4.08-.46-8.16-.6-12.26-.23-6.67,1.26-13.43.09-19.95a179.45,179.45,0,0,1,3.55,32.1,66.77,66.77,0,0,0,.33,6.94c.54,4.33,2.06,8.72,1.09,13-.23,1-4.66-2.07-5.09-2.89C287.25,335.77,287.62,331.22,287.83,329Z" transform="translate(15.1 -11.88)"/><path class="cls-3" d="M240,325.78c.24-2.7.94-5.33,1.15-8,.32-4.08-.47-8.16-.61-12.26-.22-6.67,1.27-13.43.09-20a179.45,179.45,0,0,1,3.55,32.1c0,2.32,0,4.65.33,6.94.54,4.34,2.06,8.73,1.09,12.95-.22,1-4.66-2.07-5.09-2.89C239.46,332.57,239.83,328,240,325.78Z" transform="translate(15.1 -11.88)"/><path class="cls-3" d="M399.16,348c.24-2.7.94-5.33,1.15-8,.32-4.08-.47-8.16-.61-12.26-.22-6.67,1.26-13.43.09-19.95a179.45,179.45,0,0,1,3.55,32.1c.05,2.32.05,4.65.33,6.94.54,4.34,2.06,8.73,1.09,12.95-.23,1-4.66-2.07-5.09-2.89C398.59,354.74,399,350.2,399.16,348Z" transform="translate(15.1 -11.88)"/><path class="cls-3" d="M426.74,350.43c.25-2.71.94-5.33,1.15-8,.32-4.08-.47-8.16-.6-12.26-.23-6.67,1.26-13.43.09-19.95a180.36,180.36,0,0,1,3.54,32.1,66.77,66.77,0,0,0,.34,6.94c.53,4.33,2.06,8.72,1.09,12.95-.23,1-4.67-2.07-5.1-2.89C426.17,357.22,426.54,352.67,426.74,350.43Z" transform="translate(15.1 -11.88)"/><path class="cls-3" d="M570.17,344.07c.24-2.7.94-5.32,1.15-8,.32-4.08-.47-8.17-.61-12.27-.22-6.66,1.27-13.42.09-19.95a179.56,179.56,0,0,1,3.55,32.11,66.91,66.91,0,0,0,.34,6.94c.53,4.33,2,8.72,1.08,12.95-.22,1-4.66-2.07-5.09-2.89C569.6,350.87,570,346.32,570.17,344.07Z" transform="translate(15.1 -11.88)"/><path class="cls-3" d="M298.05,338.07c.25-2.71.94-5.33,1.15-8,.32-4.08-.46-8.16-.6-12.26-.23-6.67,1.26-13.43.09-19.95a180.37,180.37,0,0,1,3.55,32.1,66.77,66.77,0,0,0,.33,6.94c.53,4.33,2.06,8.72,1.09,12.95-.23,1-4.67-2.07-5.1-2.89C297.48,344.86,297.85,340.31,298.05,338.07Z" transform="translate(15.1 -11.88)"/><path class="cls-3" d="M372.25,349c.25-2.7.94-5.32,1.15-8,.32-4.08-.46-8.17-.6-12.26-.23-6.67,1.26-13.43.09-20a180.58,180.58,0,0,1,3.55,32.11,66.9,66.9,0,0,0,.33,6.94c.53,4.33,2.06,8.72,1.09,13-.23,1-4.66-2.07-5.1-2.89C371.68,355.84,372.05,351.29,372.25,349Z" transform="translate(15.1 -11.88)"/><path class="cls-3" d="M256.1,323c.24-2.7.94-5.33,1.15-8,.32-4.09-.47-8.17-.61-12.27-.22-6.66,1.26-13.43.09-19.95a179.46,179.46,0,0,1,3.55,32.11c.05,2.31.05,4.64.33,6.93.54,4.34,2.06,8.73,1.09,12.95-.22,1-4.66-2.07-5.09-2.89C255.53,329.75,255.9,325.2,256.1,323Z" transform="translate(15.1 -11.88)"/><path class="cls-3" d="M191.89,320.52c.23-3.47.21-7,.64-10.43.31-2.48.86-4.93,1-7.44a45,45,0,0,0-.87-9.61,28.27,28.27,0,0,1,4.1,15.7c-.12,3.61-.9,7.14-1.33,10.72-.92,7.65-.22,15.47-1.21,23.11-.93,7.17-3.19-3.71-3.31-5.58C190.54,331.49,191.53,326,191.89,320.52Z" transform="translate(15.1 -11.88)"/><path class="cls-3" d="M200.79,314.91c.23-3.47.22-7,.65-10.43.31-2.48.85-4.93,1-7.44a45,45,0,0,0-.88-9.61,28.27,28.27,0,0,1,4.11,15.7c-.12,3.61-.91,7.14-1.34,10.72-.91,7.65-.22,15.47-1.21,23.11-.93,7.17-3.18-3.71-3.3-5.58C199.45,325.88,200.43,320.38,200.79,314.91Z" transform="translate(15.1 -11.88)"/><path class="cls-3" d="M209.45,330.42c.25-2.7.94-5.32,1.15-8,.32-4.08-.47-8.17-.6-12.26-.23-6.67,1.26-13.43.09-20a180.57,180.57,0,0,1,3.54,32.11,66.91,66.91,0,0,0,.34,6.94c.53,4.33,2.06,8.72,1.08,12.95-.22,1-4.66-2.07-5.09-2.89C208.88,337.22,209.25,332.67,209.45,330.42Z" transform="translate(15.1 -11.88)"/><path class="cls-3" d="M232.87,330.42c.24-2.7.93-5.32,1.15-8,.32-4.08-.47-8.17-.61-12.26-.22-6.67,1.26-13.43.09-20a179.66,179.66,0,0,1,3.55,32.11,66.9,66.9,0,0,0,.33,6.94c.54,4.33,2.06,8.72,1.09,12.95-.23,1-4.66-2.07-5.09-2.89C232.29,337.22,232.66,332.67,232.87,330.42Z" transform="translate(15.1 -11.88)"/><path class="cls-3" d="M267.11,333.17c.24-2.7.94-5.33,1.15-8,.32-4.09-.47-8.17-.61-12.27-.22-6.66,1.27-13.43.09-19.95a179.45,179.45,0,0,1,3.55,32.1c0,2.32,0,4.65.33,6.94.54,4.34,2.06,8.73,1.09,13-.22,1-4.66-2.07-5.09-2.89C266.54,340,266.91,335.42,267.11,333.17Z" transform="translate(15.1 -11.88)"/><path class="cls-3" d="M221.54,323.44c.23-3.48.21-7,.65-10.43.31-2.49.85-4.94,1-7.44a45.6,45.6,0,0,0-.88-9.61,28.14,28.14,0,0,1,4.1,15.7c-.11,3.61-.9,7.14-1.33,10.72-.92,7.64-.22,15.47-1.21,23.1-.93,7.17-3.18-3.7-3.3-5.58C220.2,334.4,221.18,328.9,221.54,323.44Z" transform="translate(15.1 -11.88)"/><path class="cls-3" d="M276.08,310.18c.23-3.48.22-7,.65-10.43.31-2.48.85-4.93,1-7.44a45,45,0,0,0-.88-9.61,28.19,28.19,0,0,1,4.11,15.7c-.12,3.61-.9,7.14-1.33,10.72-.92,7.64-.23,15.47-1.22,23.1-.93,7.17-3.18-3.7-3.3-5.57C274.74,321.15,275.72,315.65,276.08,310.18Z" transform="translate(15.1 -11.88)"/><path class="cls-3" d="M315.59,326.87c.23-3.48.22-7,.65-10.43.31-2.49.85-4.94,1-7.44a45,45,0,0,0-.88-9.61,28.15,28.15,0,0,1,4.11,15.7c-.12,3.61-.9,7.14-1.34,10.72-.91,7.64-.22,15.47-1.21,23.1-.93,7.17-3.18-3.7-3.3-5.58C314.25,337.83,315.23,332.33,315.59,326.87Z" transform="translate(15.1 -11.88)"/><path class="cls-3" d="M322.88,318.76c.23-3.47.21-7,.64-10.43.31-2.48.86-4.93,1-7.44a45.66,45.66,0,0,0-.88-9.61,28.27,28.27,0,0,1,4.1,15.7c-.12,3.61-.9,7.14-1.33,10.72-.92,7.65-.22,15.47-1.21,23.11-.93,7.17-3.19-3.71-3.31-5.58C321.53,329.73,322.52,324.23,322.88,318.76Z" transform="translate(15.1 -11.88)"/><path class="cls-3" d="M616.43,337.75c.22-3.48.21-7,.64-10.43.31-2.49.86-4.94,1-7.45a45.06,45.06,0,0,0-.87-9.61,28.27,28.27,0,0,1,4.1,15.7c-.12,3.62-.9,7.15-1.33,10.72-.92,7.65-.22,15.48-1.21,23.11-.93,7.17-3.19-3.7-3.31-5.58C615.08,348.71,616.06,343.21,616.43,337.75Z" transform="translate(15.1 -11.88)"/><path class="cls-3" d="M440.53,337.43c.23-3.48.22-7,.65-10.43.31-2.49.85-4.94,1-7.44a45,45,0,0,0-.88-9.61,28.25,28.25,0,0,1,4.11,15.7c-.12,3.61-.91,7.14-1.34,10.72-.91,7.64-.22,15.47-1.21,23.1-.93,7.17-3.18-3.7-3.3-5.57C439.19,348.39,440.17,342.9,440.53,337.43Z" transform="translate(15.1 -11.88)"/><path class="cls-3" d="M585.63,328.55c.23-3.48.22-7,.65-10.43.31-2.49.85-4.94,1-7.44a44.94,44.94,0,0,0-.87-9.61,28.25,28.25,0,0,1,4.1,15.7c-.12,3.61-.9,7.14-1.33,10.72-.92,7.64-.23,15.47-1.22,23.1-.93,7.17-3.18-3.7-3.3-5.57C584.29,339.51,585.27,334,585.63,328.55Z" transform="translate(15.1 -11.88)"/><path class="cls-3" d="M661.87,339.17c.23-3.47.21-7,.64-10.43.32-2.48.86-4.93,1-7.44a45.66,45.66,0,0,0-.88-9.61,28.19,28.19,0,0,1,4.1,15.7c-.12,3.61-.9,7.14-1.33,10.72-.92,7.64-.22,15.47-1.21,23.1-.93,7.17-3.19-3.7-3.31-5.57C660.52,350.14,661.51,344.64,661.87,339.17Z" transform="translate(15.1 -11.88)"/><path class="cls-3" d="M598,338c.23-3.47.22-7,.65-10.43.31-2.48.85-4.93,1-7.44a45,45,0,0,0-.87-9.61,28.27,28.27,0,0,1,4.1,15.7c-.12,3.61-.9,7.14-1.33,10.72-.92,7.65-.23,15.47-1.22,23.11-.93,7.17-3.18-3.71-3.3-5.58C596.68,349,597.66,343.48,598,338Z" transform="translate(15.1 -11.88)"/><path class="cls-3" d="M251.83,320.52c-.23-3.47-.21-7-.64-10.43-.31-2.48-.86-4.93-1-7.44a45,45,0,0,1,.87-9.61,28.27,28.27,0,0,0-4.1,15.7c.12,3.61.9,7.14,1.33,10.72.92,7.65.22,15.47,1.21,23.11.93,7.17,3.19-3.71,3.31-5.58C253.18,331.49,252.19,326,251.83,320.52Z" transform="translate(15.1 -11.88)"/><path class="cls-3" d="M383.81,325.42c-.23-3.48-.21-7-.64-10.43-.32-2.49-.86-4.93-1-7.44a45.6,45.6,0,0,1,.88-9.61,28.19,28.19,0,0,0-4.1,15.7c.12,3.61.9,7.14,1.33,10.72.92,7.64.22,15.47,1.21,23.1.93,7.17,3.19-3.7,3.31-5.57C385.16,336.38,384.17,330.89,383.81,325.42Z" transform="translate(15.1 -11.88)"/><path class="cls-3" d="M482.22,337.43c-.23-3.48-.22-7-.65-10.43-.31-2.49-.85-4.94-1-7.44a44.94,44.94,0,0,1,.87-9.61,28.25,28.25,0,0,0-4.1,15.7c.12,3.61.9,7.14,1.33,10.72.92,7.64.23,15.47,1.22,23.1.93,7.17,3.18-3.7,3.3-5.57C483.56,348.39,482.58,342.9,482.22,337.43Z" transform="translate(15.1 -11.88)"/><path class="cls-3" d="M454.26,325.76c-.23-3.47-.21-7-.65-10.43-.31-2.48-.85-4.93-1-7.44a45,45,0,0,1,.88-9.61A28.27,28.27,0,0,0,449.4,314c.12,3.61.91,7.14,1.34,10.72.91,7.65.22,15.47,1.21,23.1.93,7.17,3.18-3.7,3.3-5.57C455.6,336.73,454.62,331.23,454.26,325.76Z" transform="translate(15.1 -11.88)"/><path class="cls-3" d="M510.39,326.87c-.23-3.48-.21-7-.64-10.43-.31-2.49-.86-4.94-1-7.44a45.6,45.6,0,0,1,.88-9.61,28.22,28.22,0,0,0-4.1,15.7c.12,3.61.9,7.14,1.33,10.72.92,7.64.22,15.47,1.21,23.1.93,7.17,3.19-3.7,3.31-5.58C511.74,337.83,510.75,332.33,510.39,326.87Z" transform="translate(15.1 -11.88)"/><path class="cls-3" d="M411.61,336.4c-.23-3.48-.21-7-.64-10.43-.32-2.49-.86-4.94-1-7.44a45.6,45.6,0,0,1,.88-9.61,28.14,28.14,0,0,0-4.1,15.7c.11,3.61.9,7.14,1.33,10.72.92,7.64.22,15.47,1.21,23.1.93,7.17,3.19-3.7,3.3-5.57C413,347.36,412,341.86,411.61,336.4Z" transform="translate(15.1 -11.88)"/><path class="cls-3" d="M394,335.3c-.23-3.48-.21-7-.64-10.43-.32-2.48-.86-4.93-1-7.44a45.6,45.6,0,0,1,.88-9.61,28.19,28.19,0,0,0-4.1,15.7c.12,3.61.9,7.14,1.33,10.72.92,7.64.22,15.47,1.21,23.1.93,7.17,3.19-3.7,3.31-5.57C395.33,346.27,394.34,340.77,394,335.3Z" transform="translate(15.1 -11.88)"/><path class="cls-3" d="M309.66,313.61c-.23-3.48-.21-7-.65-10.43-.31-2.48-.85-4.93-1-7.44a45,45,0,0,1,.88-9.61,28.27,28.27,0,0,0-4.11,15.7c.12,3.61.91,7.14,1.34,10.72.91,7.64.22,15.47,1.21,23.1.93,7.17,3.18-3.7,3.3-5.57C311,324.58,310,319.08,309.66,313.61Z" transform="translate(15.1 -11.88)"/><path class="cls-3" d="M171.88,319.75c.24-2.7.94-5.33,1.15-8,.32-4.08-.47-8.17-.61-12.27-.22-6.66,1.26-13.42.09-19.95a179.56,179.56,0,0,1,3.55,32.11c.05,2.32.05,4.64.33,6.94.54,4.33,2.06,8.72,1.09,12.95-.22,1-4.66-2.07-5.09-2.89C171.31,326.55,171.68,322,171.88,319.75Z" transform="translate(15.1 -11.88)"/><path class="cls-3" d="M215.6,319.75c.24-2.7.94-5.33,1.15-8,.32-4.08-.47-8.17-.61-12.27-.22-6.66,1.27-13.42.09-19.95a179.56,179.56,0,0,1,3.55,32.11c.05,2.32.05,4.64.33,6.94.54,4.33,2.06,8.72,1.09,12.95-.22,1-4.66-2.07-5.09-2.89C215,326.55,215.4,322,215.6,319.75Z" transform="translate(15.1 -11.88)"/><path class="cls-3" d="M156.79,331.44c.24-2.7.94-5.33,1.15-8,.32-4.08-.47-8.16-.61-12.26-.22-6.66,1.26-13.43.09-19.95a179.45,179.45,0,0,1,3.55,32.1c.05,2.32.05,4.65.33,6.94.54,4.34,2.06,8.73,1.09,12.95-.23,1-4.66-2.07-5.09-2.89C156.22,338.24,156.58,333.69,156.79,331.44Z" transform="translate(15.1 -11.88)"/><path class="cls-3" d="M110,328.35c.25-2.7.94-5.33,1.15-8,.32-4.09-.47-8.17-.6-12.27-.23-6.66,1.26-13.43.09-19.95a180.37,180.37,0,0,1,3.54,32.11,66.71,66.71,0,0,0,.34,6.93c.53,4.34,2.06,8.73,1.09,12.95-.23,1-4.67-2.07-5.1-2.89C109.39,335.15,109.76,330.6,110,328.35Z" transform="translate(15.1 -11.88)"/><path class="cls-3" d="M120.19,331.44c.24-2.7.94-5.33,1.15-8,.32-4.08-.47-8.16-.61-12.26-.22-6.66,1.27-13.43.09-19.95a179.45,179.45,0,0,1,3.55,32.1,66.77,66.77,0,0,0,.34,6.94c.53,4.34,2.06,8.73,1.08,12.95-.22,1-4.66-2.07-5.09-2.89C119.62,338.24,120,333.69,120.19,331.44Z" transform="translate(15.1 -11.88)"/><path class="cls-3" d="M85.1,319.75c.24-2.7.93-5.33,1.15-8,.31-4.08-.47-8.17-.61-12.27-.22-6.66,1.26-13.42.09-19.95a179.56,179.56,0,0,1,3.55,32.11,66.9,66.9,0,0,0,.33,6.94c.54,4.33,2.06,8.72,1.09,12.95-.23,1-4.66-2.07-5.09-2.89C84.52,326.55,84.89,322,85.1,319.75Z" transform="translate(15.1 -11.88)"/><path class="cls-3" d="M92.68,330c.24-2.7.93-5.33,1.15-8,.32-4.09-.47-8.17-.61-12.27-.22-6.66,1.26-13.43.09-19.95a179.56,179.56,0,0,1,3.55,32.11,67,67,0,0,0,.33,6.94c.54,4.33,2.06,8.72,1.09,13-.23,1-4.66-2.08-5.09-2.89C92.1,336.77,92.47,332.22,92.68,330Z" transform="translate(15.1 -11.88)"/><path class="cls-3" d="M100.79,309.56c.23-3.48.22-7,.65-10.43.31-2.49.85-4.94,1-7.45a45.07,45.07,0,0,0-.88-9.61,28.19,28.19,0,0,1,4.11,15.7c-.12,3.62-.91,7.15-1.34,10.72-.91,7.65-.22,15.48-1.21,23.11-.93,7.17-3.18-3.7-3.3-5.58C99.45,320.52,100.43,315,100.79,309.56Z" transform="translate(15.1 -11.88)"/><path class="cls-3" d="M137.73,320.24c.23-3.48.21-7,.64-10.43.32-2.49.86-4.93,1-7.44a45.6,45.6,0,0,0-.88-9.61,28.19,28.19,0,0,1,4.1,15.7c-.11,3.61-.9,7.14-1.33,10.72-.92,7.64-.22,15.47-1.21,23.1-.93,7.17-3.19-3.7-3.3-5.57C136.39,331.2,137.37,325.71,137.73,320.24Z" transform="translate(15.1 -11.88)"/><path class="cls-3" d="M145,312.13c.22-3.47.21-7,.64-10.43.31-2.48.85-4.93,1-7.44a45,45,0,0,0-.87-9.61,28.27,28.27,0,0,1,4.1,15.7c-.12,3.61-.9,7.14-1.33,10.72-.92,7.65-.22,15.48-1.21,23.11-.93,7.17-3.19-3.7-3.31-5.58C143.67,323.1,144.65,317.6,145,312.13Z" transform="translate(15.1 -11.88)"/><path class="cls-3" d="M6.88,327.45c.24-2.7.93-5.33,1.14-8,.32-4.08-.46-8.16-.6-12.26-.23-6.67,1.26-13.43.09-19.95a179.45,179.45,0,0,1,3.55,32.1,66.77,66.77,0,0,0,.33,6.94c.53,4.34,2.06,8.73,1.09,12.95-.23,1-4.66-2.07-5.09-2.89C6.3,334.24,6.67,329.7,6.88,327.45Z" transform="translate(15.1 -11.88)"/><path class="cls-3" d="M26.85,322.94q-1.71-16.63-2-33.41c1.61,6.69,3.23,13.44,3.58,20.38.16,3.3,0,6.62.26,9.92.52,7.7,3.12,16.22.13,23.64-3.42-1.56-3-3.72-2.27-7.42A42.06,42.06,0,0,0,26.85,322.94Z" transform="translate(15.1 -11.88)"/><path class="cls-3" d="M31.36,321.43c.24-2.7.94-5.33,1.15-8,.32-4.09-.47-8.17-.61-12.27-.22-6.66,1.26-13.43.09-19.95a179.56,179.56,0,0,1,3.55,32.11c.05,2.31.05,4.64.33,6.93.54,4.34,2.06,8.73,1.09,12.95-.22,1-4.66-2.07-5.09-2.89C30.79,328.23,31.16,323.68,31.36,321.43Z" transform="translate(15.1 -11.88)"/><path class="cls-3" d="M19.7,333.12c.24-2.71.94-5.33,1.15-8,.32-4.08-.47-8.16-.61-12.26-.22-6.67,1.26-13.43.09-19.95A179.45,179.45,0,0,1,23.88,325c.05,2.32.05,4.65.33,6.94.54,4.33,2.06,8.73,1.09,12.95-.23,1-4.66-2.07-5.09-2.89C19.13,339.91,19.49,335.36,19.7,333.12Z" transform="translate(15.1 -11.88)"/><path class="cls-3" d="M13.92,313.81c.15-3.47.14-7,.42-10.43.2-2.48.55-4.93.64-7.44a68.4,68.4,0,0,0-.57-9.61A40.66,40.66,0,0,1,17.07,302c-.07,3.61-.58,7.14-.86,10.72-.6,7.65-.15,15.47-.79,23.11-.6,7.17-2.07-3.71-2.14-5.58C13.05,324.78,13.69,319.28,13.92,313.81Z" transform="translate(15.1 -11.88)"/><path class="cls-3" d="M131.8,309.56c-.23-3.48-.22-7-.65-10.43-.31-2.49-.85-4.94-1-7.45a45.06,45.06,0,0,1,.87-9.61,28.27,28.27,0,0,0-4.1,15.7c.12,3.62.9,7.15,1.33,10.72.92,7.65.23,15.48,1.22,23.11.93,7.17,3.18-3.7,3.3-5.58C133.14,320.52,132.16,315,131.8,309.56Z" transform="translate(15.1 -11.88)"/><path class="cls-3" d="M556,336c-.23-3.48-.21-7-.65-10.43-.31-2.49-.85-4.93-1-7.44a45,45,0,0,1,.88-9.61,28.19,28.19,0,0,0-4.1,15.7c.11,3.61.9,7.14,1.33,10.72.92,7.64.22,15.47,1.21,23.1.93,7.17,3.18-3.7,3.3-5.57C557.35,347,556.37,341.5,556,336Z" transform="translate(15.1 -11.88)"/><path class="cls-3" d="M676.44,349c-.23-3.48-.21-7-.64-10.44-.31-2.48-.86-4.93-1-7.44a45.06,45.06,0,0,1,.87-9.61,28.27,28.27,0,0,0-4.1,15.7c.12,3.61.9,7.14,1.33,10.72.92,7.65.22,15.48,1.21,23.11.93,7.17,3.19-3.7,3.31-5.58C677.79,360,676.8,354.45,676.44,349Z" transform="translate(15.1 -11.88)"/><path class="cls-3" d="M639.61,336.22c-.23-3.47-.21-7-.65-10.43-.31-2.48-.85-4.93-1-7.44a45,45,0,0,1,.88-9.61,28.19,28.19,0,0,0-4.1,15.7c.11,3.61.9,7.14,1.33,10.72.92,7.65.22,15.47,1.21,23.11.93,7.17,3.18-3.71,3.3-5.58C641,347.19,640,341.69,639.61,336.22Z" transform="translate(15.1 -11.88)"/><path class="cls-3" d="M740.5,353.1c.25-2.7.94-5.33,1.15-8,.32-4.09-.46-8.17-.6-12.27-.23-6.66,1.26-13.43.09-19.95a180.37,180.37,0,0,1,3.55,32.1,66.77,66.77,0,0,0,.33,6.94c.53,4.34,2.06,8.73,1.09,12.95-.23,1-4.67-2.07-5.1-2.89C739.93,359.9,740.3,355.35,740.5,353.1Z" transform="translate(15.1 -11.88)"/><path class="cls-3" d="M760.56,360.91c.24-2.7.94-5.33,1.15-8,.32-4.09-.47-8.17-.61-12.27-.22-6.66,1.27-13.43.09-19.95a179.45,179.45,0,0,1,3.55,32.1,66.77,66.77,0,0,0,.34,6.94c.53,4.34,2,8.73,1.08,12.95-.22,1-4.66-2.07-5.09-2.89C760,367.71,760.36,363.16,760.56,360.91Z" transform="translate(15.1 -11.88)"/><path class="cls-3" d="M711.23,352.24c.24-2.7.93-5.33,1.15-8,.32-4.09-.47-8.17-.61-12.27-.22-6.66,1.26-13.43.09-19.95a179.56,179.56,0,0,1,3.55,32.11,67,67,0,0,0,.33,6.94c.54,4.33,2.06,8.72,1.09,12.95-.23,1-4.66-2.08-5.09-2.89C710.65,359,711,354.49,711.23,352.24Z" transform="translate(15.1 -11.88)"/><path class="cls-3" d="M750.62,345.91c.23-3.47.21-7,.65-10.43.31-2.48.85-4.93,1-7.44a45,45,0,0,0-.88-9.61,28.19,28.19,0,0,1,4.1,15.7c-.11,3.61-.9,7.14-1.33,10.72-.92,7.65-.22,15.47-1.21,23.11-.93,7.17-3.18-3.7-3.3-5.58C749.28,356.88,750.26,351.38,750.62,345.91Z" transform="translate(15.1 -11.88)"/><path class="cls-3" d="M722.4,341c.23-3.47.22-7,.65-10.43.31-2.48.85-4.93,1-7.44a44.37,44.37,0,0,0-.88-9.61,28.19,28.19,0,0,1,4.11,15.7c-.12,3.61-.9,7.14-1.33,10.72-.92,7.65-.23,15.48-1.22,23.11-.93,7.17-3.18-3.7-3.3-5.58C721.06,352,722,346.47,722.4,341Z" transform="translate(15.1 -11.88)"/><path class="cls-3" d="M731.36,350.47c.23-3.48.22-7,.65-10.43.31-2.49.85-4.93,1-7.44a45,45,0,0,0-.88-9.61,28.19,28.19,0,0,1,4.11,15.7c-.12,3.61-.9,7.14-1.33,10.72-.92,7.64-.23,15.47-1.22,23.1-.93,7.17-3.18-3.7-3.3-5.57C730,361.43,731,355.94,731.36,350.47Z" transform="translate(15.1 -11.88)"/><path class="cls-3" d="M707.36,344.2c-.23-3.48-.22-7-.65-10.43-.31-2.49-.85-4.94-1-7.44a44.94,44.94,0,0,1,.87-9.61,28.25,28.25,0,0,0-4.1,15.7c.12,3.61.9,7.14,1.33,10.72.92,7.64.22,15.47,1.21,23.1.94,7.17,3.19-3.7,3.31-5.57C708.7,355.16,707.72,349.67,707.36,344.2Z" transform="translate(15.1 -11.88)"/><path class="cls-3" d="M852.56,374.38c.24-2.7.93-5.33,1.14-8,.32-4.08-.46-8.16-.6-12.26-.23-6.67,1.26-13.43.09-19.95a179.45,179.45,0,0,1,3.55,32.1,66.77,66.77,0,0,0,.33,6.94c.54,4.34,2.06,8.73,1.09,12.95-.23,1-4.66-2.07-5.09-2.89C852,381.17,852.35,376.63,852.56,374.38Z" transform="translate(15.1 -11.88)"/><path class="cls-3" d="M810.36,373.45c.25-2.7.94-5.33,1.15-8,.32-4.08-.46-8.16-.6-12.26-.23-6.67,1.26-13.43.09-19.95a180.37,180.37,0,0,1,3.55,32.1,66.77,66.77,0,0,0,.33,6.94c.53,4.33,2.06,8.73,1.09,12.95-.23,1-4.66-2.07-5.09-2.89C809.79,380.24,810.16,375.69,810.36,373.45Z" transform="translate(15.1 -11.88)"/><path class="cls-3" d="M823,381.4c.24-2.71.93-5.33,1.15-8,.32-4.08-.47-8.16-.61-12.26-.22-6.67,1.26-13.43.09-20a179.45,179.45,0,0,1,3.55,32.1c0,2.32,0,4.65.33,6.94.54,4.33,2.06,8.72,1.09,12.95-.23,1-4.66-2.07-5.09-2.89C822.37,388.19,822.74,383.64,823,381.4Z" transform="translate(15.1 -11.88)"/><path class="cls-3" d="M860,363.66c.25-2.7.94-5.32,1.15-8,.32-4.08-.47-8.17-.6-12.27-.23-6.66,1.26-13.42.09-19.95a180.47,180.47,0,0,1,3.54,32.11,66.91,66.91,0,0,0,.34,6.94c.53,4.33,2.06,8.72,1.08,13-.22,1-4.66-2.07-5.09-2.89C859.45,370.46,859.82,365.91,860,363.66Z" transform="translate(15.1 -11.88)"/><path class="cls-3" d="M869.11,361.85c.23-3.47.22-7,.65-10.43.31-2.48.85-4.93,1-7.44a45,45,0,0,0-.87-9.61,28.27,28.27,0,0,1,4.1,15.7c-.12,3.61-.9,7.14-1.33,10.72-.92,7.65-.23,15.47-1.22,23.11-.93,7.17-3.18-3.7-3.3-5.58C867.77,372.82,868.75,367.32,869.11,361.85Z" transform="translate(15.1 -11.88)"/><path class="cls-3" d="M816,367.15c.24-2.7.93-5.32,1.15-8,.32-4.08-.47-8.17-.61-12.26-.22-6.67,1.26-13.43.09-20A179.66,179.66,0,0,1,820.18,359c.05,2.32.05,4.64.33,6.94.54,4.33,2.06,8.72,1.09,12.95-.23,1-4.66-2.07-5.09-2.89C815.43,374,815.79,369.4,816,367.15Z" transform="translate(15.1 -11.88)"/><path class="cls-3" d="M803,361.57c.24-2.7.94-5.33,1.15-8,.32-4.09-.47-8.17-.61-12.27-.22-6.66,1.26-13.43.09-19.95a179.45,179.45,0,0,1,3.55,32.1c0,2.32,0,4.65.33,6.94.54,4.34,2.06,8.73,1.09,12.95-.23,1-4.66-2.07-5.09-2.89C802.45,368.37,802.81,363.82,803,361.57Z" transform="translate(15.1 -11.88)"/><path class="cls-3" d="M768.75,364.91c.25-2.71.94-5.33,1.15-8,.32-4.08-.46-8.17-.6-12.26-.23-6.67,1.26-13.43.09-19.95a180.37,180.37,0,0,1,3.55,32.1,66.77,66.77,0,0,0,.33,6.94c.53,4.33,2.06,8.72,1.09,12.95-.23,1-4.66-2.07-5.1-2.89C768.18,371.7,768.55,367.15,768.75,364.91Z" transform="translate(15.1 -11.88)"/><path class="cls-3" d="M776.22,359.34c.24-2.71.94-5.33,1.15-8,.32-4.08-.47-8.16-.61-12.26-.22-6.67,1.27-13.43.09-20a179.45,179.45,0,0,1,3.55,32.1,66.77,66.77,0,0,0,.34,6.94c.53,4.33,2,8.72,1.08,12.95-.22,1-4.66-2.07-5.09-2.89C775.65,366.13,776,361.58,776.22,359.34Z" transform="translate(15.1 -11.88)"/><path class="cls-3" d="M785.31,352.38c.23-3.48.22-7,.65-10.43.31-2.48.85-4.93,1-7.44a44.94,44.94,0,0,0-.87-9.61,28.27,28.27,0,0,1,4.1,15.7c-.12,3.61-.9,7.14-1.33,10.72-.92,7.64-.23,15.47-1.22,23.1-.93,7.17-3.18-3.7-3.3-5.57C784,363.35,785,357.85,785.31,352.38Z" transform="translate(15.1 -11.88)"/><path class="cls-3" d="M799.89,362.19c-.23-3.47-.21-7-.65-10.43-.31-2.48-.85-4.93-1-7.44a45,45,0,0,1,.88-9.61,28.27,28.27,0,0,0-4.11,15.7c.12,3.61.91,7.14,1.34,10.72.91,7.65.22,15.47,1.21,23.11.93,7.17,3.18-3.7,3.3-5.58C801.23,373.16,800.25,367.66,799.89,362.19Z" transform="translate(15.1 -11.88)"/><path class="cls-3" d="M837.24,363.74c.25-2.71.94-5.33,1.15-8,.32-4.08-.46-8.16-.6-12.26-.23-6.67,1.26-13.43.09-19.95a180.36,180.36,0,0,1,3.54,32.1,66.77,66.77,0,0,0,.34,6.94c.53,4.33,2.06,8.72,1.09,13-.23,1-4.67-2.07-5.1-2.89C836.67,370.53,837,366,837.24,363.74Z" transform="translate(15.1 -11.88)"/><path class="cls-3" d="M849.65,359.36c-.23-3.48-.21-7-.65-10.43-.31-2.49-.85-4.94-1-7.44a45,45,0,0,1,.88-9.61,28.25,28.25,0,0,0-4.11,15.7c.12,3.61.91,7.14,1.34,10.72.91,7.64.22,15.47,1.21,23.1.93,7.17,3.18-3.7,3.3-5.57C851,370.32,850,364.83,849.65,359.36Z" transform="translate(15.1 -11.88)"/><path class="cls-3" d="M833.37,359.12c-.23-3.47-.21-7-.64-10.43-.31-2.48-.86-4.93-1-7.44a45.66,45.66,0,0,1,.88-9.61,28.27,28.27,0,0,0-4.1,15.7c.12,3.61.9,7.14,1.33,10.72.92,7.65.22,15.47,1.21,23.11.93,7.17,3.19-3.71,3.31-5.58C834.72,370.09,833.73,364.59,833.37,359.12Z" transform="translate(15.1 -11.88)"/><rect class="cls-4" x="87.37" y="581.18" width="1090.52" height="103.75"/><path class="cls-4" d="M73.39,533.31V640.54C98,639,128.26,622.33,145.1,622.19c26.75-.21,53.39,5.54,80.07,9.1,38.93,5.2,78,5.72,117,6.24l172.31,2.31,148.75,2,36.41.49,82.1,1.1c22.82.3,45.65.61,68.46-.34,22.64-1,45.33-3.12,67.9.27,25.54,3.84,51.64,14.69,76.45,4.29V560.4c-1.19-.52-2.39-1-3.56-1.38-40.14-13.67-81.34-11.11-122.17-8.95-196.2,10.37-392.72,10.27-588.59-13-37.08-4.39-74.14-9.63-111.49-11.2a434.71,434.71,0,0,0-55.68.91c-8.23.7-21.27,5.34-29.13,3.78-5.66-1.13-8.29-7-15-6.56-4.37.27-8.47,2.14-12.77,3-18.18,3.66-36.25-.39-54.32,6.36-3.71,1.39-7.66,3.42-9,7.14a15.26,15.26,0,0,0-.55,6Q-5.89,594.67-4,642.83c.25,6.59,1.22,14.38,7,17.48s11.92-.51,18-.24c4.74.21,9.42,1.79,14.37,2a293.46,293.46,0,0,0,39.89-.92A103.5,103.5,0,0,0,74.39,641" transform="translate(15.1 -11.88)"/><path class="cls-5" d="M950.79,462.67C840,496.7,726,477.1,613.75,459.9c-165.31-25.34-331.3-45.27-497.3-38.09-11.76.5-23.7,1.39-35,5.66-2.61,1-5.28,2.93-7.93,3.58s-5.78.11-8.49.32c-5.73.43-11.53,1.51-16.75,4.58-9.66,5.7-22.12,7.38-33.31,7.48-8,.07-17.3-.5-22.8,5.38Q-11,492.28-10.38,535.9c.14,10,.59,20.59,5.83,29.13a8.75,8.75,0,0,0,3.7,3.7,10.22,10.22,0,0,0,4.05.53c32.66-.13,65.06-1.73,97.83,0,11.49.62,22.74,1.85,34.25,1.09,12.4-.81,24.7-2.68,37.1-3.53,29.49-2,59.53.94,89,1.45,16.11.28,32.12,2.55,48.18,3.13,13.51.5,26.94-.58,40.43-.85,14.17-.3,28,2.39,42,4.34,22.44,3.14,45.05,5.28,67.69,4.42,16.15-.61,31.93,3.61,48.13,2.8,11.83-.58,23.67-2.6,35.53-1.66,25.46,2,51,4.42,76.53,4.7,26.57.3,53.14-6.85,79.64-3.5,23.3,2.94,46.84,6,70.3,6.86,37.34,1.39,74.71,2.46,112.07,1.45,18.37-.5,36.7-1.7,55-3.14,17.32-1.37,38.9,0,55.41-5.05-.45-4.47,1.56-8.44,2.46-12.73.67-3.16.33-6.85.39-10.07.24-11.69.15-23.4.07-35.1-.12-20.24-.64-40.49-.64-60.74C981.39,453.14,965.38,458.18,950.79,462.67Z" transform="translate(15.1 -11.88)"/><path class="cls-6" d="M949.63,399.37c-45.41,6.5-91.24,9-136.92,6.51-47.62-2.62-95-10.71-142.58-13-41.27-2-82.6.34-123.91.05-147.53-1-294.39-35.58-441.76-27-11,.65-22.12,3.61-33.22,3.18-12.62-.49-25.37-2.23-38-.59S7.85,369.12-5,370.85a234.93,234.93,0,0,0-3.15,78.09c22.9,3.09,46,3,69,2.39,38.94-1,77-1.23,115.9,1.19l100.77,6.29c21,1.31,42.16,6.33,63.37,8.63L352,468.65c8,.87,16.07,1.74,23.87,3.7,16.43,4.14,32,11.81,47.65,18.11,6.28,2.54,12.61,5.08,19.29,6.41,5.36,1.06,9.27,1.33,13.71,4.31,5.47,3.68,10.36,8.92,15.36,13.23,5.69,4.89,11.44,9.83,18.08,13.33,20.73,10.92,46,7.56,68.51,8q32.89.63,65.79.2c20.51-.27,39.75,3.9,60.29-.67,6.45-1.43,12.9-3.46,18.29-7.28,6-4.24,10.28-10.4,15.41-15.64,12.42-12.7,28.62-17.07,45.88-19.05,13-1.5,25.4,1,38.17,2,23.75,1.82,48.45-1.26,72.31-1.47q39.38-.33,78.74-1.74c11.17-.4,32-.64,39.51-11,4.63-6.4,1.69-20.55,1.69-28.56V402.22C981.4,396.18,964.29,397.27,949.63,399.37Z" transform="translate(15.1 -11.88)"/><path class="cls-7" d="M1042.25,347c-14.14,3.8-28.16,5.16-43,5.69-32.93,1.17-65.88,2.42-98.83,2.18-15.62-.12-31,3.17-46.8,2.55s-31.28-2.72-46.83-4.76c-59.42-7.79-118.94-14.7-178.47-21.61-20.72-2.41-41.73-4.81-62.35-1.68-9.26,1.4-17.09,2.95-26.34,2.92-11.11,0-22.22.62-33.34.44-22.43-.35-44.82-1.79-67.18-3.34-16.23-1.13-32.28,3-48.38,1.33-17.33-1.78-34.36-5.63-51.32-9.47l-9-2c-11.85-2.68-24.5-7.14-36.6-8.22-11.52-1-23.65-.42-35.24-.25-24.56.35-49.08,1.83-73.63,2.16-9.7.13-19.42.23-29.12.17q-23.48-.14-46.89-1.94c-10-.77-19.72-2.4-29.75-2.09-23.86.73-47.31-2.81-71.19.18-8.9,1.12-19.23,4.05-22.21,12.51-1.28,3.61-.89,7.57-.5,11.37,1.21,11.56,2.58,23.61,8.92,33.34A11.21,11.21,0,0,0-.94,371a13,13,0,0,0,5,.63c12.36,0,24.76-.52,37.09-.27,15.28.31,30.55,1.1,45.82,1.58,13.08.41,26.16.67,39.24.42,46.4-.87,92.85-1.8,139.23.17,27.2,1.16,54.33,3.46,81.48,5.38,22,1.56,43.34,7.25,64.58,12.83,19.33,5.09,38,12.48,52.29,27.07,9.49,9.71,16.22,21.83,25.61,31.63,8.9,9.31,19.9,15.13,32.88,14.77,13.93-.4,28.38,1.66,42.7,1.34,29.92-.7,60.2-1.92,90,.64,10.44.89,21.3,1.74,31.11-2,19.5-7.36,28.77-28.56,44.54-40.79,12.52-9.72,25.41-9,40-10,17.69-1.28,35-2.29,52.79-2.13,9.22.08,125.35-.37,125.35-1.4l40.87-1.9c17.84-.83,37.63-3.29,53.28-11.56,0-16.85.25-33.88-.08-50.64Z" transform="translate(15.1 -11.88)"/><path class="cls-4" d="M180.15,550.58c-2.45-1-5.56,1.75-5.48,4.85a16,16,0,0,0,5.13.11c1.55-.23,3.5-1.26,3.41-3.09-.06-1.47-1.43-2.21-2.61-2.66-.65-.25-1.68-.24-1.76.58" transform="translate(15.1 -11.88)"/><path class="cls-4" d="M194.89,553a23.16,23.16,0,0,0-3.65,2.5c-1.15,1-2.35,2.66-1.69,4a2.36,2.36,0,0,0,1,1,4.62,4.62,0,0,0,6.33-1.5c1.36-2.31-.14-6.18-2.45-5.66" transform="translate(15.1 -11.88)"/><path class="cls-4" d="M209.18,557.35c-2.07,0-3.85,2.59-3.46,5,3.3.75,6.75-3.05,6.36-7a2.87,2.87,0,0,0-3,.49" transform="translate(15.1 -11.88)"/><path class="cls-4" d="M244.2,555.67a22.44,22.44,0,0,0-8.39.7c-.23,3,2.84,4.57,5.3,5.22a8.12,8.12,0,0,0,4.13.36,3.64,3.64,0,0,0,2.7-3.3c.09-2.89-3.06-4-5.48-4.26" transform="translate(15.1 -11.88)"/><path class="cls-4" d="M36.69,559.43a22.73,22.73,0,0,0-8.4.71c-.23,3,2.85,4.56,5.31,5.22a8.12,8.12,0,0,0,4.13.36,3.66,3.66,0,0,0,2.7-3.31c.09-2.88-3.07-4-5.49-4.26" transform="translate(15.1 -11.88)"/><path class="cls-4" d="M259.77,547.9c-2.51-.62-5.24,1.85-5.39,4.89a3,3,0,0,0,.31,1.67,2.46,2.46,0,0,0,1,.9,4.25,4.25,0,0,0,4.18.19,4,4,0,0,0,1.8-4.22c-.39-1.64-2.24-2.64-3.42-1.67" transform="translate(15.1 -11.88)"/><path class="cls-4" d="M275.82,558.18a18.84,18.84,0,0,0-8.58-.12c2,4.17,6.56,6.32,10.4,4.87-.48-3-2.87-5.43-5.45-5.54" transform="translate(15.1 -11.88)"/><path class="cls-4" d="M288.47,552.24c-1.8-.91-3.66,2.23-2.69,4.25a3.47,3.47,0,0,0,5.2,1.12,7.45,7.45,0,0,0-2.6-7.57" transform="translate(15.1 -11.88)"/><path class="cls-4" d="M310.25,551.25c-2.52-.1-3.82,4.55-1.92,6.49s5.34.28,5.9-2.64-1.51-6-4-6.39" transform="translate(15.1 -11.88)"/><path class="cls-4" d="M325.58,559.22a7.64,7.64,0,0,0-5.54,4.13,10.12,10.12,0,0,0,5.79,2.19,3.58,3.58,0,0,0,3-1,3.9,3.9,0,0,0-.42-4.91,3.86,3.86,0,0,0-4.45-.43" transform="translate(15.1 -11.88)"/><path class="cls-4" d="M346.18,553.66c-.6,1.76-2.44,2.27-4,2.81s-3.3,1.88-3,3.75a3.1,3.1,0,0,0,1.33,2,4.35,4.35,0,0,0,6.19-1.5,6.52,6.52,0,0,0-.71-7.45" transform="translate(15.1 -11.88)"/><path class="cls-4" d="M364.57,552.74l-6.36,4c-.48,1.42,1,2.61,2.18,3.15,2.28,1,5.53,1.66,6.59-1,1-2.41-1-4.91-2.83-6.5" transform="translate(15.1 -11.88)"/><path class="cls-4" d="M380.53,559.23a8.54,8.54,0,0,0-4,1.74,4.27,4.27,0,0,0-1.2,4.5c.74,1.77,2.8,2.07,4.41,1.56a5.53,5.53,0,0,0,3.9-4.34c.3-2.21-1.65-4.61-3.38-3.71" transform="translate(15.1 -11.88)"/><path class="cls-4" d="M151,555c-.5,1.47-2,1.9-3.32,2.35s-2.75,1.57-2.53,3.13a2.56,2.56,0,0,0,1.11,1.7,3.65,3.65,0,0,0,5.17-1.26,5.45,5.45,0,0,0-.59-6.22" transform="translate(15.1 -11.88)"/><path class="cls-4" d="M169.53,558.79a11.18,11.18,0,0,0-3.83-4.14,5.49,5.49,0,0,0-6,.45c-1.84,1.65-1.32,4.29,0,6a7.11,7.11,0,0,0,6.92,2.91c2.81-.57,4.9-4,3.07-5.69" transform="translate(15.1 -11.88)"/><path class="cls-4" d="M225.63,555a8.66,8.66,0,0,0-4,1.75,4.27,4.27,0,0,0-1.2,4.5c.74,1.77,2.8,2.07,4.41,1.55a5.51,5.51,0,0,0,3.9-4.33c.3-2.21-1.66-4.62-3.38-3.72" transform="translate(15.1 -11.88)"/><path class="cls-4" d="M399.91,559.26q-3.41,2.24-6.66,4.78c-1,.78-2.13,2.05-1.71,3.38a2.39,2.39,0,0,0,2.12,1.43,6.91,6.91,0,0,0,7.19-10.16" transform="translate(15.1 -11.88)"/><path class="cls-4" d="M419.54,561.91a5.68,5.68,0,0,0-4,.39c-1.19.77-1.84,2.87-.89,4a2.72,2.72,0,0,0,1.51.8,13.81,13.81,0,0,0,6.2.15c1.76-2.43,0-7-2.73-6.83" transform="translate(15.1 -11.88)"/><path class="cls-4" d="M300.92,561.69a5.62,5.62,0,0,0-4,.39c-1.19.76-1.85,2.87-.9,4a2.79,2.79,0,0,0,1.52.8,13.91,13.91,0,0,0,6.19.14c1.77-2.43,0-6.94-2.72-6.82" transform="translate(15.1 -11.88)"/><path class="cls-4" d="M438,559.88c-1.76.62-3.68,1.38-4.67,3.22s-.14,5,1.69,4.91a2.75,2.75,0,0,0,1.71-.92,8.23,8.23,0,0,0,1.27-8.94" transform="translate(15.1 -11.88)"/><path class="cls-4" d="M446.47,566.19a4.94,4.94,0,0,0-2.61,5.31c.46,2.17,2.91,3.47,4.45,2.15,1.27-1.09,1.46-3.37.78-5A8.07,8.07,0,0,0,445.7,565" transform="translate(15.1 -11.88)"/><path class="cls-4" d="M464.4,562.73c-2.2-.42-4.58,1.16-5.43,3.63,1.61.63,3.39,1.26,5,.49s2.41-3.68,1-4.84" transform="translate(15.1 -11.88)"/><path class="cls-4" d="M476.51,563.19c-1.25-1.13-3.31,0-3.73,1.79a4.46,4.46,0,0,0,2,4.61,5.29,5.29,0,0,0,4.61.11,4.26,4.26,0,0,0,1.62-1,3.88,3.88,0,0,0,.54-4.09,2.64,2.64,0,0,0-3.26-1.44" transform="translate(15.1 -11.88)"/><path class="cls-4" d="M490.52,570.51c-1.24-1.11-3.36-.18-3.71,1.62s1.21,3.71,2.74,3.34,2.36-2.87,1.45-4.36l-2.14-.72" transform="translate(15.1 -11.88)"/><path class="cls-4" d="M509.11,568.07c-2.86-.29-5.79,2-6.67,5.29,2,1.15,4.14,2.34,6.34,1.91S513,572,512,569.59c-.78-1.94-2.88-2.42-4.69-2.58" transform="translate(15.1 -11.88)"/><path class="cls-4" d="M52.2,557.74a5.61,5.61,0,0,0-3.93.62c-1.15.83-1.68,3-.66,4a2.74,2.74,0,0,0,1.55.71,13.82,13.82,0,0,0,6.2-.22c1.62-2.52-.45-6.93-3.12-6.65" transform="translate(15.1 -11.88)"/><path class="cls-4" d="M67,551.2c-1.72.72-3.59,1.59-4.46,3.49s.14,5,2,4.8a2.69,2.69,0,0,0,1.66-1,8.2,8.2,0,0,0,.74-9" transform="translate(15.1 -11.88)"/><path class="cls-4" d="M75.9,557a5,5,0,0,0-2.3,5.46c.59,2.14,3.11,3.28,4.57,1.88,1.2-1.16,1.26-3.45.49-5.07a8.12,8.12,0,0,0-3.6-3.44" transform="translate(15.1 -11.88)"/><path class="cls-4" d="M95.31,556.78c-2.22-.29-4.5,1.44-5.21,3.94,1.65.54,3.47,1.07,5,.2s2.19-3.81.74-4.89" transform="translate(15.1 -11.88)"/><path class="cls-4" d="M20.1,561.16c-2.22-.29-4.5,1.43-5.21,3.94,1.65.54,3.47,1.07,5,.2s2.19-3.81.74-4.89" transform="translate(15.1 -11.88)"/><path class="cls-4" d="M107.42,556.53c-1.31-1-3.3.18-3.61,2a4.45,4.45,0,0,0,2.25,4.49,5.28,5.28,0,0,0,4.6-.16,4.37,4.37,0,0,0,1.56-1.12,3.9,3.9,0,0,0,.3-4.12,2.65,2.65,0,0,0-3.33-1.25" transform="translate(15.1 -11.88)"/><path class="cls-4" d="M121.84,563c-1.3-1-3.36,0-3.61,1.83s1.42,3.63,2.93,3.17,2.19-3,1.2-4.44l-2.18-.59" transform="translate(15.1 -11.88)"/><path class="cls-4" d="M24.22,552.78c-1.3-1-3.35,0-3.6,1.84s1.42,3.63,2.92,3.17,2.19-3,1.2-4.44l-2.18-.59" transform="translate(15.1 -11.88)"/><path class="cls-4" d="M136.83,559.5c-2.88-.12-5.66,2.37-6.35,5.67,2.05,1,4.27,2.1,6.43,1.54s4-3.54,2.89-5.86c-.89-1.89-3-2.24-4.83-2.3" transform="translate(15.1 -11.88)"/><path class="cls-4" d="M529.64,563.92a8.77,8.77,0,0,0-7.51,5.41,15,15,0,0,0,5.58,3.09,5,5,0,0,0,5.52-2.33c1-1.79.85-4.13.46-6.22l-5.29-1" transform="translate(15.1 -11.88)"/><path class="cls-4" d="M561,565c-1.84.82-3.87,0-5.84,0s-4.34,1.46-4.1,3.77c.2,1.84,1.89,2.81,3.35,3.45l5.69,2.5c1.55.68,3.25,1.36,4.82.74,3-1.18,3.38-5.89,3.26-9.6a2.93,2.93,0,0,0-.47-1.84,1.88,1.88,0,0,0-1.53-.43l-5.76.12" transform="translate(15.1 -11.88)"/><path class="cls-4" d="M579.75,564.12l-3.58.12a4.24,4.24,0,0,0,.79,4.46,2.75,2.75,0,0,0,3.84,0c.6-2-.61-4.38-2.34-4.7" transform="translate(15.1 -11.88)"/><path class="cls-4" d="M594.82,568.91a11.65,11.65,0,0,0-5.4,1.53,2.34,2.34,0,0,0-1,.88c-.76,1.5,1.13,2.88,2.57,3.22a8.4,8.4,0,0,0,4.81.16,4.05,4.05,0,0,0,2.55-4.29c-.41-2.29-2.83-3.12-4.79-3" transform="translate(15.1 -11.88)"/><path class="cls-4" d="M611.68,563.24c-2.79-.4-5.63,2.21-6,5.51,1.9,1,4,2,6,1.36s3.49-3.73,2.17-5.62a9.55,9.55,0,0,1-3.6-2" transform="translate(15.1 -11.88)"/><path class="cls-4" d="M626,567.89c-1.79-.31-3.55,1.89-3.19,4s2.68,3.34,4.24,2.24a5.18,5.18,0,0,0-1.53-5.7" transform="translate(15.1 -11.88)"/><path class="cls-4" d="M543.54,569.78c-1.79-.3-3.55,1.9-3.2,4s2.69,3.34,4.24,2.25a5.19,5.19,0,0,0-1.52-5.71" transform="translate(15.1 -11.88)"/><path class="cls-4" d="M882.43,579.28c-1.79-.31-3.55,1.89-3.19,4s2.68,3.34,4.24,2.24a5.18,5.18,0,0,0-1.53-5.71" transform="translate(15.1 -11.88)"/><path class="cls-4" d="M921,577c-1.8-.3-3.55,1.9-3.2,4s2.69,3.34,4.24,2.25a5.19,5.19,0,0,0-1.52-5.71" transform="translate(15.1 -11.88)"/><path class="cls-4" d="M644.13,571.09a8.27,8.27,0,0,0-5.93,3.79,2.4,2.4,0,0,0-.51,1.47c.08.95,1,1.42,1.78,1.65,2,.6,4.32.85,6.19-.32s3-4.2,1.88-6.31a7.64,7.64,0,0,1-3.46-.55" transform="translate(15.1 -11.88)"/><path class="cls-4" d="M659.51,562.44c-2-.15-3.67,2.74-2.91,5a3.17,3.17,0,0,0,5.09,1.48,4.76,4.76,0,0,0,.9-5.13,3.34,3.34,0,0,0-4.1-2" transform="translate(15.1 -11.88)"/><path class="cls-4" d="M675.69,566.58a6.89,6.89,0,0,0-5.51,3.16,8.71,8.71,0,0,0,5.73,3.33c2.54.29,5.72-1.84,5.15-4.79-.53-2.75-3.63-3.27-6-3" transform="translate(15.1 -11.88)"/><path class="cls-4" d="M696,571.54l-4.16-.87c-1,1.59.1,4,1.63,4.73s3.26.31,4.87-.13a7.6,7.6,0,0,0-2.63-7" transform="translate(15.1 -11.88)"/><path class="cls-4" d="M714,567.77a8.54,8.54,0,0,0-3.42,3.35c-.76,1.53-.76,3.72.36,4.9,1.39,1.46,3.81.53,4.68-1.41,1.19-2.68-.49-6.49-3-6.84" transform="translate(15.1 -11.88)"/><path class="cls-4" d="M733,573.73c-1.81-.48-3.82,1.14-4.1,3.32a36.21,36.21,0,0,0,8.22,3,15.75,15.75,0,0,0,.53-7l-3.49-2.24" transform="translate(15.1 -11.88)"/><path class="cls-4" d="M933.75,571.75l-4.15-.86c-1,1.59.1,4,1.63,4.72s3.26.31,4.87-.12a7.64,7.64,0,0,0-2.63-7" transform="translate(15.1 -11.88)"/><path class="cls-4" d="M947.41,573.1a8.47,8.47,0,0,0-3.42,3.35c-.75,1.53-.75,3.72.37,4.9,1.38,1.45,3.8.52,4.67-1.42,1.2-2.67-.49-6.48-3-6.83" transform="translate(15.1 -11.88)"/><path class="cls-4" d="M890.09,570.81c-1.81-.49-3.82,1.14-4.1,3.31a35.74,35.74,0,0,0,8.22,3,15.75,15.75,0,0,0,.53-7l-3.49-2.23" transform="translate(15.1 -11.88)"/><path class="cls-4" d="M854.76,574.36c-1.8-.48-3.81,1.14-4.1,3.32a36.69,36.69,0,0,0,8.22,3,15.61,15.61,0,0,0,.53-7l-3.48-2.24" transform="translate(15.1 -11.88)"/><path class="cls-4" d="M756.12,571.71c-2.8-.06-5.24,3.45-4.66,6.7,1.93.79,4,1.59,6,1.17a4.74,4.74,0,0,0,3.63-5,4.53,4.53,0,0,0-3.18-3.69,10.19,10.19,0,0,0-4.69.07" transform="translate(15.1 -11.88)"/><path class="cls-4" d="M776.34,571.05c-3.9-.77-8,3.12-8.21,7.81a5.57,5.57,0,0,0,6.65-1.58,8.49,8.49,0,0,0,1.33-7.91l-3.87-.14" transform="translate(15.1 -11.88)"/><path class="cls-4" d="M785.26,583.43a19.53,19.53,0,0,0,12.65-7.76,7,7,0,0,0-7.93-3.78,10.46,10.46,0,0,0-7.11,7.34c-.74,2.74.87,6.4,3.24,5.17" transform="translate(15.1 -11.88)"/><path class="cls-4" d="M807.34,576.6a14.35,14.35,0,0,0-5.11,6.81,5.26,5.26,0,0,0,6.47-.46c1.77-1.73,2.15-5.32.5-7.19a.94.94,0,0,0-1.76.27" transform="translate(15.1 -11.88)"/><path class="cls-4" d="M822.59,572.28c-2.8-.06-5.24,3.45-4.66,6.7,1.93.79,4,1.59,6,1.16a4.73,4.73,0,0,0,3.62-4.95,4.5,4.5,0,0,0-3.18-3.69,10.19,10.19,0,0,0-4.69.07" transform="translate(15.1 -11.88)"/><path class="cls-4" d="M842.85,572.7c-3.39-.67-6.94,2.71-7.14,6.78a4.83,4.83,0,0,0,5.79-1.37,7.4,7.4,0,0,0,1.15-6.88l-3.36-.11" transform="translate(15.1 -11.88)"/><path class="cls-4" d="M908.9,573.15a15.09,15.09,0,0,0-6.26,9.61,5.4,5.4,0,0,0,6.78,0A8.1,8.1,0,0,0,912,575.3c-.39-2.16-2.73-4.18-4-2.54" transform="translate(15.1 -11.88)"/><path class="cls-4" d="M872.1,575.45a14.31,14.31,0,0,0-5.11,6.82,5.25,5.25,0,0,0,6.47-.47c1.76-1.73,2.15-5.32.5-7.19a1,1,0,0,0-1.77.28" transform="translate(15.1 -11.88)"/><path class="cls-8" d="M994.58,346.81c-13.83,1.79-27.43,2.76-41.44,4.11-12.15,1.16-23.75,2.88-35.87,3.22-13.08.38-26.35-.61-39.38.81-35,3.84-70.56-1-105.29-5.59l-121.94-16c-20.84-2.74-41.76-5.49-62.74-5-29.5.74-58.34,6.17-87.95,4.9-29.26-1.25-58.52-3.95-87.83-3-13.46.44-25.85,1.16-39.22-1.55-13.86-2.82-27.31-7.34-41-10.68-49.86-12.14-101.53-5.9-152.52-5.18-14.09.2-28.18-.3-42.26-1s-28.29-1.55-42.45-2.09c-7.18-.26-14.29-.64-21.45-1.28" transform="translate(15.1 -11.88)"/><path class="cls-4" d="M463.84,372a23.26,23.26,0,0,0-4.47,5.77,35.28,35.28,0,0,1-1.8,3.28,13.48,13.48,0,0,1-2.54,2.79c-1,.82-2.06,1.41-3,2.14a10.28,10.28,0,0,0-2.28,2.86c-1.19,2.16-2.22,4.43-3.34,6.64,1.06-2.25,2-4.53,3.15-6.75a10.63,10.63,0,0,1,2.26-3c1-.78,2.07-1.42,3-2.23a13.06,13.06,0,0,0,2.38-2.76,36,36,0,0,0,1.67-3.28,24.17,24.17,0,0,1,4.44-6.09Z" transform="translate(15.1 -11.88)"/><path class="cls-9" d="M603.34,256.31a47.63,47.63,0,0,0,38.4,11.16s8.3,18.81,28,14.7,16.61-22.34,16.61-22.34,54,35.86,78.35-.58-24.91-78.18-24.91-78.18,50.9,9.55,25.43-58.78c-19.72-52.9-46.7-43.5-46.7-43.5s8.82-23.51-20.76-41.73-49.29,7.06-49.29,7.06S646.4,19.43,621,13s-35.29,18.23-35.29,18.23S566-14.07,508.9,51.17c0,0-56,2.35-55,52.9,0,0-63.83,13.52-37.88,86.4,0,0-9.34,28.22,17.12,44.67,31.13,19.37,60.71,1.18,60.71,1.18s56,37,93.92,9Z" transform="translate(15.1 -11.88)"/><path class="cls-10" d="M495.22,369.21a8.27,8.27,0,0,0-.68,3.21c-.06,1.18,0,2.41.06,3.65.1,2.47.39,5.08-.4,7.73-1.48,4.66-2.07,9.71-3.89,14.47a71.45,71.45,0,0,1-7.12,13.24,29.19,29.19,0,0,0-3.26,6.66c-.82,2.35-1.44,4.77-2.18,7.16.66-2.41,1.19-4.85,1.93-7.24a29.51,29.51,0,0,1,3.07-6.86,70.74,70.74,0,0,0,6.57-13.32c1.59-4.66,2-9.65,3.36-14.56.59-2.2.28-4.68.08-7.16-.11-1.24-.21-2.51-.2-3.83a10.22,10.22,0,0,1,.76-4.08Z" transform="translate(15.1 -11.88)"/><path class="cls-10" d="M500.36,366.69a22.8,22.8,0,0,1-.78,5.19,18,18,0,0,1-2.27,4.71c-.9,1.44-1.82,2.83-2.59,4.32a12.17,12.17,0,0,0-1.52,4.74,12.52,12.52,0,0,1,1-5c.63-1.59,1.42-3.11,2.16-4.61a17,17,0,0,0,1.65-4.57,21.61,21.61,0,0,0,.21-4.84Z" transform="translate(15.1 -11.88)"/><path class="cls-10" d="M493.11,386a6.91,6.91,0,0,0-4.66,1.25,34.9,34.9,0,0,0-4.19,3.49c-3,2.65-6.64,3.84-9.54,6a12,12,0,0,0-3.4,4.13c-.87,1.62-1.56,3.35-2.29,5.07a30.26,30.26,0,0,1-2.55,5,9.49,9.49,0,0,1-4.18,3.66,9.42,9.42,0,0,0,4-3.8,29.29,29.29,0,0,0,2.28-5.07c.65-1.74,1.26-3.52,2.08-5.23a13,13,0,0,1,3.45-4.6c3-2.43,6.59-3.81,9.11-6.33a36,36,0,0,1,4.23-3.86,9,9,0,0,1,5.88-1.83Z" transform="translate(15.1 -11.88)"/><path class="cls-10" d="M493.44,369.12a16.19,16.19,0,0,0-6.74,1.17,53.36,53.36,0,0,1-7.16,1.88,24.67,24.67,0,0,0-6.54,2.67,25.14,25.14,0,0,0-2.94,2A21.28,21.28,0,0,1,467,379a23.71,23.71,0,0,1-7.12,2.08,45.49,45.49,0,0,1-7.29.86,16.12,16.12,0,0,1-3.67-.4,8.47,8.47,0,0,0-1.76-.28,5.9,5.9,0,0,0-1.75.3,32.8,32.8,0,0,1-3.52,1,8.24,8.24,0,0,1-3.63,0,8.41,8.41,0,0,0,3.6-.14,35.06,35.06,0,0,0,3.47-1.12,5.91,5.91,0,0,1,1.82-.38,8.08,8.08,0,0,1,1.85.23,15.35,15.35,0,0,0,3.58.25,45,45,0,0,0,7.15-1.11,22.87,22.87,0,0,0,6.76-2.23,20,20,0,0,0,2.86-2.11,27.57,27.57,0,0,1,3-2.22,26.52,26.52,0,0,1,6.82-3.07,53.16,53.16,0,0,0,6.88-2.06,18,18,0,0,1,7.48-1.57Z" transform="translate(15.1 -11.88)"/><path class="cls-10" d="M504.7,370.05c-.05,2.95.3,6,.29,9.11l0,1.12c0,.36,0,.73.06,1.1.06.73.15,1.49.22,2.25a13,13,0,0,1-.13,4.76,13.79,13.79,0,0,1-2.32,4.1,7.74,7.74,0,0,0-1.59,4c-.09,1.48.08,3,0,4.55a10.39,10.39,0,0,1-.27,2.29,3.79,3.79,0,0,1-1.1,2,3.76,3.76,0,0,0,1-2,10.65,10.65,0,0,0,.14-2.26c-.05-1.51-.31-3-.3-4.57a8.29,8.29,0,0,1,1.44-4.45,12.66,12.66,0,0,0,1.95-3.93c.55-2.75-.71-5.76-.7-8.93-.14-3-.66-6-.78-9.12Z" transform="translate(15.1 -11.88)"/><path class="cls-10" d="M540.2,363.14a7.64,7.64,0,0,1,.53,3.42,3.71,3.71,0,0,1-.82,1.87,4.76,4.76,0,0,1-1.47,1.13c-1,.53-2,.82-2.77,1.24s-1.72.92-2.52,1.44a10.69,10.69,0,0,0-3.88,3.94,14.51,14.51,0,0,0-1.43,5.51,91.65,91.65,0,0,1-2.09,11.91,27.32,27.32,0,0,1-2.16,5.72,10.46,10.46,0,0,1-1.83,2.53,5.38,5.38,0,0,1-2.82,1.54l.33-.45c.35,2.71.88,5.42,1.17,8.17a24.83,24.83,0,0,1-.32,8.29,14.74,14.74,0,0,1-4,7.17l-3,2.79c-.51.47-1,.93-1.55,1.37a7,7,0,0,1-1.67,1.2,7.26,7.26,0,0,0,1.64-1.23c.51-.46,1-.93,1.51-1.41l3-2.86a14.45,14.45,0,0,0,3.78-7.12,24.12,24.12,0,0,0,.11-8.13c-.35-2.71-1-5.39-1.37-8.13l-.06-.37.38-.08c1.82-.37,3.1-2,4-3.72a26.06,26.06,0,0,0,1.93-5.55,89.3,89.3,0,0,0,1.77-11.8,16.44,16.44,0,0,1,1.43-6.07,12.33,12.33,0,0,1,4.31-4.66c.87-.6,1.73-1.11,2.64-1.62s1.93-.86,2.68-1.29a2,2,0,0,0,1.22-1.58,5.93,5.93,0,0,0-.51-2.43Z" transform="translate(15.1 -11.88)"/><path class="cls-10" d="M520.31,412.23a13.08,13.08,0,0,0-7.15,3.48c-2,1.86-3.22,4.58-5.25,6.81s-4.59,3.7-6.9,5.39a15.55,15.55,0,0,0-1.67,1.34l-1.54,1.52a13.23,13.23,0,0,1-1.66,1.42,3.55,3.55,0,0,1-2,.75,3.47,3.47,0,0,0,1.93-.86,12.89,12.89,0,0,0,1.55-1.5l1.44-1.62a15,15,0,0,1,1.62-1.48c2.24-1.86,4.66-3.5,6.42-5.67s2.79-4.94,4.9-7.24a14.92,14.92,0,0,1,8-4.42Z" transform="translate(15.1 -11.88)"/><path class="cls-10" d="M505.25,425a17.69,17.69,0,0,0-2,4.79c-.49,1.7-.89,3.45-1.51,5.16a19.84,19.84,0,0,1-2.67,4.68,23.89,23.89,0,0,1-3.54,4,24.28,24.28,0,0,0,3.29-4.2,20.74,20.74,0,0,0,2.37-4.7c.53-1.68.85-3.43,1.27-5.18a18.15,18.15,0,0,1,1.87-5.15Z" transform="translate(15.1 -11.88)"/><path class="cls-10" d="M570.08,356.93a6.31,6.31,0,0,1-.78,2.9,17.81,17.81,0,0,1-1.43,2.26,15.2,15.2,0,0,0-2.42,4.06,3,3,0,0,0,0,2,5,5,0,0,0,1.2,1.78,11.63,11.63,0,0,0,1.86,1.48,7.58,7.58,0,0,1,2.07,1.88,8,8,0,0,1,1.12,2.55c.22.86.38,1.71.52,2.55a33.72,33.72,0,0,0,1,4.88c.23.75.57,1.59.8,2.42a22,22,0,0,1,.6,2.52,33.94,33.94,0,0,1,.54,5.12c.21,6.85-1.1,13.53-1.13,20.26a32.31,32.31,0,0,0,1.33,10,30.07,30.07,0,0,1,1,5,10.71,10.71,0,0,1,0,2.53,3.77,3.77,0,0,1-1,2.28,3.72,3.72,0,0,0,1-2.28,11.79,11.79,0,0,0,0-2.52,29.69,29.69,0,0,0-1.12-4.92,33.09,33.09,0,0,1-1.6-10c-.13-6.79,1-13.53.62-20.22a32.73,32.73,0,0,0-.64-4.94,21.57,21.57,0,0,0-.64-2.39c-.24-.79-.56-1.51-.85-2.37a36.54,36.54,0,0,1-1.13-5,11.53,11.53,0,0,0-1.5-4.45,6.21,6.21,0,0,0-1.71-1.45,13.25,13.25,0,0,1-2.14-1.62,6.83,6.83,0,0,1-1.66-2.36,4.82,4.82,0,0,1-.15-3,16.45,16.45,0,0,1,2.55-4.72c.92-1.35,1.78-2.77,1.72-4Z" transform="translate(15.1 -11.88)"/><path class="cls-10" d="M561.08,359.46c.39,1.59,1.82,3.09,2.83,5a5.59,5.59,0,0,1,.61,3.45A5.93,5.93,0,0,1,562.9,371a6.09,6.09,0,0,1-3,1.54,16.86,16.86,0,0,1-3.1.36c-2,.11-4,.1-5.65,1-3.53,1.72-6.72,4.34-10.44,5.94a5.11,5.11,0,0,0-2.07,1.95c-.53.83-.9,1.77-1.36,2.67a6.1,6.1,0,0,1-1.85,2.38,5.25,5.25,0,0,1-2.87.86,5.12,5.12,0,0,0,2.79-1,5.83,5.83,0,0,0,1.7-2.39c.41-.91.75-1.86,1.26-2.75a5.53,5.53,0,0,1,2.16-2.21c3.62-1.74,6.6-4.44,10.21-6.4a11.22,11.22,0,0,1,1.44-.66,10.7,10.7,0,0,1,1.55-.4c1-.17,2.05-.25,3-.34,1.95-.17,3.95-.46,5.1-1.7a4.24,4.24,0,0,0,1.05-2.23,3.73,3.73,0,0,0-.57-2.35c-.85-1.59-2.46-3-3.24-5.31Z" transform="translate(15.1 -11.88)"/><path class="cls-10" d="M549.38,374.67a13,13,0,0,1,.53,3.55,9.39,9.39,0,0,1-.75,3.57,34,34,0,0,1-3.62,5.74A82.27,82.27,0,0,0,539,398.87c-1.72,4.1-4.48,7.68-5.9,11.79s-1.63,8.71-3.76,12.62c2-4,2-8.51,3.25-12.78a36.14,36.14,0,0,1,2.65-6.12c.5-1,1-1.95,1.48-2.94s.86-2,1.31-3a81.7,81.7,0,0,1,6.2-11.78,34.46,34.46,0,0,0,3.22-5.54,8.45,8.45,0,0,0-.08-5.82Z" transform="translate(15.1 -11.88)"/><path class="cls-10" d="M559.13,389.6a9.6,9.6,0,0,0-5.82,1.57,23.12,23.12,0,0,0-5,4.15,31.22,31.22,0,0,0-4,5.29,22.41,22.41,0,0,0-2.65,6,8.64,8.64,0,0,0-.26,3.19,20.67,20.67,0,0,0,.62,3.25,41.06,41.06,0,0,1,1.54,6.66,11.81,11.81,0,0,1-.17,3.46,20.21,20.21,0,0,1-1,3.27,25.14,25.14,0,0,0-1.92,6.48,25,25,0,0,1,1.65-6.57,14,14,0,0,0,.85-6.57,40.47,40.47,0,0,0-1.8-6.49,22.06,22.06,0,0,1-.8-3.37,10.12,10.12,0,0,1,.16-3.56,24.14,24.14,0,0,1,2.56-6.46,33.89,33.89,0,0,1,4-5.68,24.69,24.69,0,0,1,5.26-4.66,11.47,11.47,0,0,1,7-2.08Z" transform="translate(15.1 -11.88)"/><path class="cls-10" d="M541,410.53a3.05,3.05,0,0,0-2.28,1.35,9.47,9.47,0,0,0-1.23,3c-.54,2.25-.77,4.65-1.11,7a32.08,32.08,0,0,1-1.63,7.07,11.53,11.53,0,0,1-1.81,3.16,7.78,7.78,0,0,1-2.86,2.17,8.85,8.85,0,0,0,4.17-5.51,31,31,0,0,0,1.08-7c.17-2.38.21-4.78.61-7.24a10.85,10.85,0,0,1,1.23-3.69,5.07,5.07,0,0,1,3.54-2.45Z" transform="translate(15.1 -11.88)"/><path class="cls-10" d="M584.18,365.05a3.72,3.72,0,0,0-.28,2.19,9.17,9.17,0,0,0,.82,2.41c.39.83.83,1.69,1.2,2.62a13.8,13.8,0,0,1,.81,2.94,22.3,22.3,0,0,1,0,5.89c-.21,1.89-.4,3.78-.7,5.68a34.66,34.66,0,0,1-1.31,5.64c-.6,1.87-1.48,3.58-2.18,5.3A19.31,19.31,0,0,0,581,403a8.14,8.14,0,0,0,.85,5.15c.91,1.54,2.35,2.94,3.06,4.86a10.18,10.18,0,0,1,.23,5.83,18.91,18.91,0,0,1-.86,2.77,13.61,13.61,0,0,1-1.31,2.58c-1.06,1.6-2.23,3.08-3.27,4.65a10.81,10.81,0,0,0-2.1,5.07,2.58,2.58,0,0,0,1.08,2.3c.38.25.81.46,1.21.74a2.68,2.68,0,0,1,.94,1.14,11.12,11.12,0,0,1,.52,2.81,6.78,6.78,0,0,0,1.15,2.54,3.64,3.64,0,0,1,.74,2.69,12.56,12.56,0,0,1-.37,1.37c-.08.23-.15.45-.21.68a1,1,0,0,0-.06.35c0,.15.21,0,.28,0l-.15.1c-.05,0-.14,0-.14-.05a1,1,0,0,1,0-.35c.06-.23.13-.46.19-.69a11,11,0,0,0,.35-1.37,3.63,3.63,0,0,0-.79-2.61,7,7,0,0,1-1.23-2.57,11,11,0,0,0-.57-2.74c-.35-.88-1.27-1.21-2.09-1.72a2.2,2.2,0,0,1-1-1.12,3.68,3.68,0,0,1-.23-.71c0-.25-.08-.49-.09-.74a7.14,7.14,0,0,1,.69-2.82,18.62,18.62,0,0,1,1.37-2.53c1-1.62,2.15-3.14,3.15-4.72a12.65,12.65,0,0,0,1.19-2.49,18.4,18.4,0,0,0,.77-2.67,9.48,9.48,0,0,0-.32-5.34c-.64-1.66-2-3-3.1-4.64a7.13,7.13,0,0,1-1-2.85,13.42,13.42,0,0,1-.08-3,20.56,20.56,0,0,1,1.47-5.64c.69-1.8,1.51-3.49,2-5.25a35.11,35.11,0,0,0,1.13-5.43c.24-1.84.39-3.73.55-5.61a20.93,20.93,0,0,0-.07-5.43,12,12,0,0,0-.75-2.5c-.35-.82-.8-1.64-1.23-2.51a11.38,11.38,0,0,1-1-2.93,5.93,5.93,0,0,1,.37-3.37Z" transform="translate(15.1 -11.88)"/><path class="cls-10" d="M572.59,381.75c.29,2.93,1.09,5.79,1.7,8.82a25.06,25.06,0,0,1,.22,9.34c-1.18,6.4-6,10.84-7.51,16.55s-1,12-2.64,17.92c-.41,1.48-.9,2.89-1.22,4.36a39.45,39.45,0,0,0-.72,4.46c-.32,3-.36,6-.4,9.07,0-3-.1-6.06.14-9.09a40.84,40.84,0,0,1,.6-4.52c.28-1.49.74-3,1.1-4.41,1.41-5.86.8-12,2.13-18,.7-3.07,2.3-5.77,3.75-8.4a24.93,24.93,0,0,0,3.24-8.16,23.22,23.22,0,0,0-.48-8.7c-.67-2.87-1.6-5.84-2-8.94Z" transform="translate(15.1 -11.88)"/><path class="cls-10" d="M560,419.38a13.64,13.64,0,0,1,2.16,4.37,8.1,8.1,0,0,1-.24,5,10.53,10.53,0,0,1-2.85,4c-.6.55-1.22,1-1.79,1.47a21.27,21.27,0,0,0-1.64,1.43,5.18,5.18,0,0,0-1.12,1.62,10.62,10.62,0,0,0-.57,2c-.27,1.45-.46,2.95-.64,4.44s-.36,3-.59,4.51a13.08,13.08,0,0,1-.47,2.32,8,8,0,0,1-1.15,2.12,34.8,34.8,0,0,1-3.13,3.36,10.74,10.74,0,0,0-2.51,3.53,6.45,6.45,0,0,0,0,4.23c.4,1.44,1,2.83,1.45,4.27a16,16,0,0,1,.93,4.48,34.49,34.49,0,0,1-.19,4.55c-.15,1.51-.34,3-.55,4.5l-.33,2.24-.16,1.12a5.15,5.15,0,0,0,0,1.11,5.08,5.08,0,0,1,0-1.11l.13-1.13.26-2.25c.17-1.5.32-3,.42-4.5a32.24,32.24,0,0,0,.07-4.5,15.88,15.88,0,0,0-1-4.34c-.53-1.4-1.13-2.8-1.58-4.26a7.18,7.18,0,0,1-.08-4.67,11.46,11.46,0,0,1,2.58-3.88,36.29,36.29,0,0,0,2.95-3.35,6.74,6.74,0,0,0,1-1.87,13.12,13.12,0,0,0,.36-2.13c.18-1.48.32-3,.46-4.49s.29-3,.53-4.54a11.31,11.31,0,0,1,.59-2.34,6.63,6.63,0,0,1,1.38-2.13,21,21,0,0,1,1.72-1.59c.59-.51,1.17-1,1.67-1.46a8.83,8.83,0,0,0,2.29-3.39,6.13,6.13,0,0,0,0-3.88,11.52,11.52,0,0,0-2-3.64Z" transform="translate(15.1 -11.88)"/><path class="cls-10" d="M549.58,454.5a21.49,21.49,0,0,0-4.75,6.38,31.2,31.2,0,0,0-2.41,7.68c-.71,2.61-.3,5.34-.33,8.08a17.06,17.06,0,0,1-.41,4.09,4.91,4.91,0,0,1-2.29,3.28,4.89,4.89,0,0,0,2.13-3.32,16.54,16.54,0,0,0,.22-4c0-1.36-.18-2.71-.25-4.08,0-.69,0-1.38,0-2.08a9.38,9.38,0,0,1,.12-1.05l.18-1a30.76,30.76,0,0,1,2.29-7.93,22.25,22.25,0,0,1,4.8-6.78Z" transform="translate(15.1 -11.88)"/><path class="cls-10" d="M597.12,404a8.47,8.47,0,0,1-.54.87,4.36,4.36,0,0,1-.74.69,5.28,5.28,0,0,1-1.66.8,17.14,17.14,0,0,1-3.18.5,19.05,19.05,0,0,0-2.92.39,4,4,0,0,0-2.27,1.3,6.7,6.7,0,0,0-1,2.62c-.2,1-.32,2-.48,3a14.87,14.87,0,0,1-.71,3,3.52,3.52,0,0,1-2,2.21,3.37,3.37,0,0,0,1.77-2.3,14.78,14.78,0,0,0,.43-3c.08-1,.11-2,.23-3.06A7.54,7.54,0,0,1,585,408a5.14,5.14,0,0,1,2.76-1.94,20,20,0,0,1,3.08-.7,15.61,15.61,0,0,0,2.79-.68,2.48,2.48,0,0,0,1.59-1.42Z" transform="translate(15.1 -11.88)"/><path class="cls-10" d="M591.6,440.48a60.26,60.26,0,0,1-4,10.22,57.39,57.39,0,0,0-3.83,9.94,37.64,37.64,0,0,0-.75,5.26c-.16,1.79-.27,3.58-.38,5.38a107.53,107.53,0,0,1-1,10.74,107.39,107.39,0,0,0,.48-10.77c0-1.79,0-3.6.1-5.4a36.21,36.21,0,0,1,.5-5.45,59.45,59.45,0,0,1,3.44-10.34,58.29,58.29,0,0,0,3.41-10Z" transform="translate(15.1 -11.88)"/><path class="cls-10" d="M589.47,482.9a14.38,14.38,0,0,0-3,2.62,25.13,25.13,0,0,0-2.29,3.47,15.91,15.91,0,0,1-1.28,1.87c-.23.3-.51.61-.74.87l-.68.78a24.68,24.68,0,0,0-2.41,3.41,30.87,30.87,0,0,0-3.19,7.76,54.78,54.78,0,0,0-1.42,8.4,110.29,110.29,0,0,0-.19,17.15c.11,2.87.58,5.7.74,8.59a24.93,24.93,0,0,1-.1,4.32,9.38,9.38,0,0,1-1.37,4.06,9.47,9.47,0,0,0,1.24-4.08,24.47,24.47,0,0,0,0-4.28c-.24-2.85-.8-5.69-1-8.57a109.52,109.52,0,0,1-.34-17.28,54.94,54.94,0,0,1,1.19-8.63,32.07,32.07,0,0,1,3.09-8.24,27.24,27.24,0,0,1,2.45-3.7l.71-.86c.23-.29.44-.51.64-.79a14.8,14.8,0,0,0,1.09-1.72,26.94,26.94,0,0,1,2.36-3.78,16.32,16.32,0,0,1,3.37-3.12Z" transform="translate(15.1 -11.88)"/><path class="cls-10" d="M606.81,474.18a7.58,7.58,0,0,0-.43,3,22.32,22.32,0,0,0,.31,3.35,22.93,22.93,0,0,0,.77,3.3,7.31,7.31,0,0,0,1.46,2.79c1.37,1.6,3.62,2.27,5.78,3.37a9.86,9.86,0,0,1,3,2.2,14.19,14.19,0,0,1,2.24,2.88,19.86,19.86,0,0,1,2.23,6.8c.38,2.34.51,4.69.67,7a44.7,44.7,0,0,0,.9,6.93,15.53,15.53,0,0,0,2.89,6.31,15.69,15.69,0,0,1-3.15-6.24,44.35,44.35,0,0,1-1.16-7c-.25-2.33-.48-4.66-.93-6.93a18.94,18.94,0,0,0-2.35-6.4,14,14,0,0,0-2.16-2.57,8.64,8.64,0,0,0-2.72-1.87c-1-.48-2.12-.86-3.23-1.36a10.13,10.13,0,0,1-3.14-2.12,9,9,0,0,1-1.92-3.31,26.11,26.11,0,0,1-1-3.51,24.18,24.18,0,0,1-.47-3.63,9.32,9.32,0,0,1,.49-3.92Z" transform="translate(15.1 -11.88)"/><path class="cls-10" d="M620.07,495.43a8.13,8.13,0,0,0-.52,2.12,8,8,0,0,1-.65,2.37,6.55,6.55,0,0,1-.66,1.06l-.67.94a20.68,20.68,0,0,0-1.21,1.93,12.62,12.62,0,0,0-1.41,4.28c-.22,1.51-.26,3.07-.34,4.62-.15,3.09-.28,6.21-.7,9.3a24.8,24.8,0,0,1-2.68,8.88,24.92,24.92,0,0,0,2.42-8.92c.33-3.08.37-6.18.43-9.28,0-1.56,0-3.11.22-4.69a12.87,12.87,0,0,1,1.36-4.55,22,22,0,0,1,1.2-2.05,16,16,0,0,0,1.2-1.91c.62-1.26.37-2.89,1-4.51Z" transform="translate(15.1 -11.88)"/><path class="cls-10" d="M606.91,482.8c-.07,4,1,8,1.19,12.18a19.57,19.57,0,0,1-.77,6.18,28.23,28.23,0,0,1-2.6,5.63,42.69,42.69,0,0,0-2.77,5.43,17.21,17.21,0,0,0-1.08,5.95c-.09,4.08.82,8.14.66,12.25.08-4.11-.92-8.13-.93-12.25a17.59,17.59,0,0,1,1-6.09,42.35,42.35,0,0,1,2.68-5.55A27.51,27.51,0,0,0,606.7,501a18.76,18.76,0,0,0,.6-6c-.21-4-1.42-8-1.44-12.21Z" transform="translate(15.1 -11.88)"/><path class="cls-10" d="M606.87,482.48a15.93,15.93,0,0,0-.9,6.35,22.71,22.71,0,0,1-.65,6.7,10,10,0,0,1-1.54,3c-.69.9-1.47,1.68-2.14,2.56a5.74,5.74,0,0,0-1.25,3,15.92,15.92,0,0,1-.47,3.29,15.8,15.8,0,0,0,.34-3.3,5.89,5.89,0,0,1,1.17-3.13c.64-.92,1.4-1.74,2-2.63a9.36,9.36,0,0,0,1.35-2.94,21.89,21.89,0,0,0,.36-6.53,16.91,16.91,0,0,1,.73-6.77Z" transform="translate(15.1 -11.88)"/><path class="cls-10" d="M636.16,428.11a6.35,6.35,0,0,0-2.59,3.12,8.71,8.71,0,0,0,.1,4.26,19.27,19.27,0,0,1,.24,4.9c0,.81-.15,1.62-.27,2.41l-.38,2.35a12.23,12.23,0,0,1-.63,2.39,10.23,10.23,0,0,1-1.24,2.14,13.75,13.75,0,0,0-1.26,1.92,5.31,5.31,0,0,0-.5,2.17c0,1.54.12,3.13.15,4.71a23.63,23.63,0,0,1,0,2.38,4.45,4.45,0,0,1-.57,2.27,4.34,4.34,0,0,0,.43-2.28c0-.78,0-1.57-.12-2.35-.13-1.58-.36-3.13-.43-4.74a5.74,5.74,0,0,1,.42-2.44,14.3,14.3,0,0,1,1.2-2.11,8.65,8.65,0,0,0,1-2,11.1,11.1,0,0,0,.45-2.21c.14-1.56.36-3.13.36-4.65a17.82,17.82,0,0,0-.48-4.51,10.31,10.31,0,0,1-.3-5.1,6.57,6.57,0,0,1,1.24-2.46,14.56,14.56,0,0,1,1.82-1.79Z" transform="translate(15.1 -11.88)"/><path class="cls-10" d="M633.4,443.81a2.49,2.49,0,0,0,.09,1.86,4.36,4.36,0,0,0,1.38,1.5,19.28,19.28,0,0,0,4,2c.7.29,1.42.57,2.14.91a6.38,6.38,0,0,1,1.07.61,9.65,9.65,0,0,1,.94.75,12.37,12.37,0,0,1,2.88,3.77,5.79,5.79,0,0,1,.36,4.77,4.73,4.73,0,0,1-1.58,1.9,12,12,0,0,1-2.07,1.14,8.38,8.38,0,0,0-3.61,2.51,16.09,16.09,0,0,0-1.7,4.16,34.51,34.51,0,0,0-.91,9.08,41.26,41.26,0,0,0,0,4.59,8.6,8.6,0,0,0,.51,2.2,3.25,3.25,0,0,0,1.44,1.62,20.28,20.28,0,0,0,4.38,1.25,5.53,5.53,0,0,1,2.11,1,5.65,5.65,0,0,1,1.43,1.83,19.89,19.89,0,0,1,.91,2.12l.83,2.15a9.08,9.08,0,0,1,.6,2.23l0,1.15c0,.19,0,.38,0,.57a1.35,1.35,0,0,0,0,.29c0,.14.16,0,.19-.06a.94.94,0,0,1-.09.12s-.09,0-.1-.06a1.4,1.4,0,0,1-.06-.28c0-.2,0-.39,0-.58l0-1.15a9.12,9.12,0,0,0-.63-2.21l-.87-2.13a17.17,17.17,0,0,0-.93-2.1,5.52,5.52,0,0,0-1.42-1.76,5.39,5.39,0,0,0-2-.93,20.35,20.35,0,0,1-4.46-1.21,3.59,3.59,0,0,1-1.59-1.74,9,9,0,0,1-.56-2.27,42.22,42.22,0,0,1-.11-4.63,34.57,34.57,0,0,1,.8-9.22,16.57,16.57,0,0,1,1.72-4.36,9,9,0,0,1,3.82-2.77c1.37-.64,2.73-1.4,3.26-2.73a5,5,0,0,0-.41-4.13,11.51,11.51,0,0,0-2.73-3.47,8.26,8.26,0,0,0-.88-.68,6,6,0,0,0-.94-.52c-.67-.31-1.39-.58-2.11-.86a20.46,20.46,0,0,1-4.24-2.06,5.21,5.21,0,0,1-1.71-1.86,3.51,3.51,0,0,1-.19-2.62Z" transform="translate(15.1 -11.88)"/><path class="cls-10" d="M644.53,453a5.12,5.12,0,0,1,2.15,1.66,4.9,4.9,0,0,1,.91,2.54,17,17,0,0,1-.64,5,10.14,10.14,0,0,0-.19,1.19,1.78,1.78,0,0,0,.21,1.07c.31.73.79,1.43,1.11,2.23.64,1.64.27,3.34.22,5-.06-1.63.16-3.38-.54-4.84-.35-.73-.86-1.39-1.26-2.15a3,3,0,0,1-.27-.62,2.85,2.85,0,0,1-.05-.7,8.79,8.79,0,0,1,.15-1.28,16.61,16.61,0,0,0,.42-4.82,4.22,4.22,0,0,0-.82-2.06,4.27,4.27,0,0,0-1.8-1.25Z" transform="translate(15.1 -11.88)"/><path class="cls-10" d="M651.69,433.75l.09,6.36.05,3.18a18.31,18.31,0,0,0,.28,3c.33,2,.92,4.05,1.45,6.12.27,1,.5,2.11.73,3.09a23,23,0,0,0,1,2.93c.78,1.94,1.74,3.87,2.35,5.95a15.32,15.32,0,0,1,.55,3.2l.25,3.16c.34,4.22.7,8.46.65,12.7-.12-4.24-.66-8.44-1.18-12.64l-.38-3.16a13.88,13.88,0,0,0-.65-3,60.87,60.87,0,0,0-2.56-5.77,24,24,0,0,1-1.16-3c-.3-1.08-.55-2-.86-3.06-.61-2-1.29-4-1.74-6.18a21.15,21.15,0,0,1-.44-3.25l-.17-3.17-.36-6.34Z" transform="translate(15.1 -11.88)"/><path class="cls-10" d="M651.72,434.59a10,10,0,0,0,.4,3.39,21.71,21.71,0,0,0,1.25,3.43,18.18,18.18,0,0,0,1.82,3.15,9.84,9.84,0,0,0,1.14,1.33,6.21,6.21,0,0,0,1.38,1A13.41,13.41,0,0,0,661,448.2a11.11,11.11,0,0,0,1.79.21,7.1,7.1,0,0,1,2.08.34,5.3,5.3,0,0,1,1.82,1.2,15.79,15.79,0,0,1,1.32,1.52,27.65,27.65,0,0,1,2,3.34c.6,1.13,1.18,2.25,1.85,3.3s1.43,2.06,2.2,3.08,1.54,2.05,2.22,3.16a21.55,21.55,0,0,1,1.65,3.51c.89,2.37,1.69,4.85,3.51,6.63a20.43,20.43,0,0,1,2.69,2.73,3,3,0,0,1,.57,1.82,4.22,4.22,0,0,1-.57,1.83h0a.67.67,0,0,1,0-.48.7.7,0,0,0,0,.47h0a4.19,4.19,0,0,0,.49-1.82,2.91,2.91,0,0,0-.6-1.74,21.44,21.44,0,0,0-2.77-2.6c-1.95-1.78-2.86-4.31-3.84-6.63a19.61,19.61,0,0,0-1.72-3.35,35.67,35.67,0,0,0-2.28-3c-.8-1-1.62-2-2.35-3.06s-1.37-2.2-2-3.29a26.31,26.31,0,0,0-2.06-3.12,6.6,6.6,0,0,0-2.6-2.18c-1-.3-2.33-.09-3.71-.36a14.89,14.89,0,0,1-3.81-1.36,8.09,8.09,0,0,1-1.76-1.18,11.73,11.73,0,0,1-1.4-1.52,20.37,20.37,0,0,1-2.1-3.4,22.92,22.92,0,0,1-1.47-3.71,11.58,11.58,0,0,1-.58-4.16Z" transform="translate(15.1 -11.88)"/><path class="cls-10" d="M671,456.52a27,27,0,0,0,1.81,5.14,12.87,12.87,0,0,1,.79,2.78,25.21,25.21,0,0,1,.11,2.85c0,3.74-.37,7.45-.23,11.14.06,1.85.31,3.69.55,5.53s.51,3.68.85,5.51.75,3.64,1.26,5.42.21,3.74.86,5.51c-.69-1.75-.43-3.71-1-5.47s-1-3.59-1.39-5.41-.71-3.66-1-5.5-.58-3.68-.69-5.56c-.23-3.74,0-7.47,0-11.17a26.52,26.52,0,0,0-.16-2.72,12.22,12.22,0,0,0-.8-2.56,27.73,27.73,0,0,1-2-5.32Z" transform="translate(15.1 -11.88)"/><path class="cls-10" d="M687.46,433.76a5.69,5.69,0,0,0,.35,1.63,5.42,5.42,0,0,0,.34.77l.24.41.27.49a8.27,8.27,0,0,1,.73,2.15,17.37,17.37,0,0,1,.23,2.12,36.88,36.88,0,0,1-.85,8.15,37.47,37.47,0,0,0-.67,7.84c0,1.32.08,2.64.19,4,.06.65.12,1.31.2,2a3.64,3.64,0,0,0,.5,1.67,8.05,8.05,0,0,0,2.89,2.36,7.19,7.19,0,0,1,3.08,2.85,4.2,4.2,0,0,1,.32,2.15,5.56,5.56,0,0,1-.68,2c-.65,1.19-1.36,2.29-1.17,3.58a9.22,9.22,0,0,0,1.14,3.68c.76,1,2.21,1.26,3.32,2.09a2.65,2.65,0,0,1,1.06,1.73,9.08,9.08,0,0,1,0,2,6,6,0,0,0,.11,2,6.14,6.14,0,0,0,.38.92,1.42,1.42,0,0,1,.18,1,1.41,1.41,0,0,0-.21-.95,5.74,5.74,0,0,1-.41-.91,5.89,5.89,0,0,1-.18-2,9.32,9.32,0,0,0,0-2,2.39,2.39,0,0,0-1-1.56c-1-.75-2.52-.9-3.47-2.05a6.81,6.81,0,0,1-.89-1.87,11.17,11.17,0,0,1-.46-2,4.08,4.08,0,0,1,.23-2.1c.24-.66.59-1.25.87-1.84a4.89,4.89,0,0,0,.54-1.77,3.44,3.44,0,0,0-.31-1.75,6.32,6.32,0,0,0-2.83-2.38,8.85,8.85,0,0,1-3.31-2.6,4.73,4.73,0,0,1-.73-2.09c-.11-.67-.19-1.34-.27-2-.15-1.34-.26-2.68-.32-4a38.75,38.75,0,0,1,.42-8.12,35.7,35.7,0,0,0,.57-7.78,15.54,15.54,0,0,0-.27-1.85,5.7,5.7,0,0,0-.61-1.61l-.22-.39-.28-.44a7.72,7.72,0,0,1-.5-1.05,7.56,7.56,0,0,1-.54-2.26Z" transform="translate(15.1 -11.88)"/><path class="cls-10" d="M693.38,438.55a32.74,32.74,0,0,1,2.37,5.13,14.11,14.11,0,0,0,1.18,2.29,14.79,14.79,0,0,0,1.61,2,25.66,25.66,0,0,0,8.89,5.76c3.3,1.5,6.75,3.06,9.43,5.68A14.85,14.85,0,0,1,720,464a36.54,36.54,0,0,0,2.54,4.84,36.65,36.65,0,0,1-2.77-4.72,14.58,14.58,0,0,0-3.24-4.28c-2.7-2.4-6.12-3.76-9.48-5.1a26.89,26.89,0,0,1-9.62-5.62,17.64,17.64,0,0,1-1.88-2.16,16.33,16.33,0,0,1-1.45-2.5,31.1,31.1,0,0,0-2.43-4.69Z" transform="translate(15.1 -11.88)"/><path class="cls-10" d="M710.8,455.27a10.33,10.33,0,0,1,3.27,6.94,55.73,55.73,0,0,1-.19,7.56c-.22,2.48.92,4.77,2,7a22.65,22.65,0,0,1,1.41,3.5,6.46,6.46,0,0,1,.11,3.72,6.5,6.5,0,0,0-.25-3.68,23,23,0,0,0-1.54-3.4,33.44,33.44,0,0,1-1.64-3.41,9.51,9.51,0,0,1-.54-1.84,12.59,12.59,0,0,1-.14-1.92,54.41,54.41,0,0,0,0-7.45,9.44,9.44,0,0,0-3.15-6.25Z" transform="translate(15.1 -11.88)"/><path class="cls-10" d="M694.19,439.92a18.57,18.57,0,0,0,3.92,4.61c1.53,1.28,3.38,2.34,5.15,2.17s3.13-1.84,4.52-3.44a14.17,14.17,0,0,1,2.42-2.34,4.93,4.93,0,0,1,3.41-1,5.75,5.75,0,0,1,1.71.45,5.21,5.21,0,0,1,1.49,1,8.25,8.25,0,0,1,1.85,2.83c.44,1,.79,2,1.28,2.92a4.7,4.7,0,0,0,2,2.15,6.78,6.78,0,0,0,3,.46c1.06,0,2.14-.14,3.22-.11a6.8,6.8,0,0,1,1.62.22,6.44,6.44,0,0,1,1.47.71,4.53,4.53,0,0,0,2.94,1.05,4.6,4.6,0,0,1-3-.93,6.37,6.37,0,0,0-1.45-.63,6.85,6.85,0,0,0-1.57-.14c-1.06,0-2.12.18-3.2.25a7.13,7.13,0,0,1-3.28-.38,5.31,5.31,0,0,1-2.42-2.31c-.57-1-1-2-1.44-2.91a7.21,7.21,0,0,0-1.74-2.45,4.67,4.67,0,0,0-2.63-1,3.76,3.76,0,0,0-2.58.88,13.19,13.19,0,0,0-2.1,2.23,25.63,25.63,0,0,1-2.15,2.51,5.75,5.75,0,0,1-3.24,1.69,6.74,6.74,0,0,1-3.58-.57,12.53,12.53,0,0,1-3-1.78,20.44,20.44,0,0,1-4.55-5Z" transform="translate(15.1 -11.88)"/><path class="cls-10" d="M633.3,358.4a3.06,3.06,0,0,0,.48,1.28c.29.49.66,1,1,1.48.77,1,1.62,2,2.41,3.09.19.28.38.58.56.9a7.2,7.2,0,0,1,.44,1,15.73,15.73,0,0,1,.57,2c.28,1.31.43,2.61.63,3.86a16.72,16.72,0,0,0,1,3.58,28,28,0,0,0,1.57,3.43,26.86,26.86,0,0,0,4.43,6.11A26.51,26.51,0,0,1,649,388a9.86,9.86,0,0,1,1.59,3.68c.57,2.54.66,5.19,2.06,7.3l2.07,3.26,1,1.63a4.07,4.07,0,0,0,1.27,1.37c.51.36,1.1.64,1.65,1a6.43,6.43,0,0,1,1.49,1.26,19,19,0,0,0,2.62,2.82,19,19,0,0,1-2.72-2.73,6.06,6.06,0,0,0-1.49-1.18c-.56-.32-1.15-.58-1.7-.93a4.32,4.32,0,0,1-1.39-1.4l-1.09-1.6-2.19-3.19c-1.57-2.23-1.75-5-2.39-7.4a9,9,0,0,0-1.56-3.32,25.94,25.94,0,0,0-2.63-2.74,28.3,28.3,0,0,1-4.84-6.2,30.69,30.69,0,0,1-1.76-3.54,18,18,0,0,1-1.15-3.84c-.26-1.29-.45-2.55-.75-3.75a15.72,15.72,0,0,0-.56-1.72,6.59,6.59,0,0,0-.36-.75c-.15-.24-.31-.48-.49-.73-.72-1-1.6-1.91-2.44-2.92a16.08,16.08,0,0,1-1.23-1.65,4.76,4.76,0,0,1-.85-2.32Z" transform="translate(15.1 -11.88)"/><path class="cls-10" d="M637.76,366a18.69,18.69,0,0,1-.21,9.07,28.65,28.65,0,0,1-1.82,4.14,5.87,5.87,0,0,0-.71,4.09c.68,2.86,1.67,5.71,2.27,8.63a21.6,21.6,0,0,1,.56,4.45,6.43,6.43,0,0,1-.33,2.22,2.44,2.44,0,0,1-1.5,1.57,2.44,2.44,0,0,0,1.43-1.59,6.77,6.77,0,0,0,.24-2.19A21.75,21.75,0,0,0,637,392c-.71-2.9-1.78-5.65-2.58-8.57a5.47,5.47,0,0,1-.1-2.35,9.52,9.52,0,0,1,.75-2.2,27,27,0,0,0,1.68-4.06,17.71,17.71,0,0,0,0-8.62Z" transform="translate(15.1 -11.88)"/><path class="cls-10" d="M644.77,359.38a9.37,9.37,0,0,1,3.2,2.89A14.29,14.29,0,0,1,649.8,366a72.41,72.41,0,0,1,1.77,7.65,17.73,17.73,0,0,0,3,6.77,25.27,25.27,0,0,0,5.22,5.46,10,10,0,0,0,6.88,2.48,71.87,71.87,0,0,0,7.69-.54,33.92,33.92,0,0,1,3.9-.1l3.88,0a43.54,43.54,0,0,1,7.74.43,43.49,43.49,0,0,0-7.74-.16l-3.87.17a35.24,35.24,0,0,0-3.86.24,72.88,72.88,0,0,1-7.75.8,12.85,12.85,0,0,1-4-.5,8.91,8.91,0,0,1-1.86-.84c-.58-.33-1.13-.7-1.67-1.08a26.93,26.93,0,0,1-5.65-5.53,22.75,22.75,0,0,1-2.13-3.39A17.56,17.56,0,0,1,650,374a71.28,71.28,0,0,0-2-7.4,9.24,9.24,0,0,0-4.27-5.36Z" transform="translate(15.1 -11.88)"/><path class="cls-10" d="M665.65,388.3a25.74,25.74,0,0,0,4.25,3c1.51.91,3.05,1.79,4.55,2.75a26.71,26.71,0,0,1,4.23,3.25,7.25,7.25,0,0,1,2.43,4.62,7.07,7.07,0,0,0-2.61-4.43,25.85,25.85,0,0,0-4.33-3c-1.52-.87-3.1-1.67-4.66-2.51a26.6,26.6,0,0,1-4.58-2.89Z" transform="translate(15.1 -11.88)"/><path class="cls-10" d="M668.47,368.14a7.92,7.92,0,0,0,1.46,2.38c.32.42.69.9,1,1.38l.87,1.35a31.94,31.94,0,0,0,3.82,5c2.89,3.13,6.07,6.06,9,9.24s7.11,4.49,10.61,7.09a11.33,11.33,0,0,1,2.36,2.28,24.14,24.14,0,0,1,1.65,2.8c1,1.9,2.54,3.53,3.06,5.66-.6-2.1-2.23-3.64-3.29-5.53a25.7,25.7,0,0,0-1.73-2.69,10.72,10.72,0,0,0-2.36-2.09A51.54,51.54,0,0,0,689.3,392a20.86,20.86,0,0,1-5.43-3.71c-3-3-6.32-5.8-9.4-8.88a32.69,32.69,0,0,1-4.2-5.07l-.94-1.32c-.29-.42-.6-.79-1-1.21a9.65,9.65,0,0,1-1.94-3.05Z" transform="translate(15.1 -11.88)"/><path class="cls-10" d="M702.22,378.27a52.3,52.3,0,0,0,5.61,5,18.17,18.17,0,0,0,6.87,2.38c2.46.4,5,.27,7.64.45a19.88,19.88,0,0,1,3.94.6,7.29,7.29,0,0,1,3.58,2.05,7.86,7.86,0,0,1,1.74,3.7,18.1,18.1,0,0,1,.3,3.94c0,2.6-.45,5.18-.18,7.67s1.82,4.71,3.3,6.78a32.2,32.2,0,0,1,4.1,6.54,32.21,32.21,0,0,0-4.31-6.38c-1.56-2-3.14-4.21-3.62-6.85a21.55,21.55,0,0,1-.16-3.92c0-1.29.08-2.57.06-3.84a17.69,17.69,0,0,0-.42-3.73,6.66,6.66,0,0,0-1.61-3.17,6.1,6.1,0,0,0-3.09-1.61,19.6,19.6,0,0,0-3.7-.43c-2.51-.08-5.13.15-7.78-.19a19.39,19.39,0,0,1-7.7-2.41,52.13,52.13,0,0,1-6-5.1Z" transform="translate(15.1 -11.88)"/><path class="cls-10" d="M728,387.73A16.11,16.11,0,0,0,729.3,391a11.17,11.17,0,0,1,.65,1.82,3.92,3.92,0,0,1,.09,1,5.12,5.12,0,0,1-.16,1,5.29,5.29,0,0,1-.84,1.8c-.39.53-.81,1-1.2,1.44a3.94,3.94,0,0,0-1.24,3.11,9.74,9.74,0,0,0,1.3,3.33,13.91,13.91,0,0,1,1.44,3.44c.65,2.51-.69,4.92-.28,7.37-.49-2.44.75-4.94,0-7.31a13.91,13.91,0,0,0-1.53-3.3,10.09,10.09,0,0,1-1.49-3.47,4.59,4.59,0,0,1,1.25-3.6,6.93,6.93,0,0,0,1.75-3,3.22,3.22,0,0,0,0-1.63,9.26,9.26,0,0,0-.64-1.64l-.81-1.65a7.26,7.26,0,0,1-.68-1.89Z" transform="translate(15.1 -11.88)"/><path class="cls-10" d="M600,379.61a8.72,8.72,0,0,0,2.87.86c.57.11,1.15.22,1.75.38a9.05,9.05,0,0,1,1.76.68,11.93,11.93,0,0,1,3.06,2.06,10.49,10.49,0,0,1,1.22,1.38l1,1.36,2.09,2.72,1,1.35a10.25,10.25,0,0,1,1,1.54,10.8,10.8,0,0,1,1,3.48,12.88,12.88,0,0,0,.81,3.19,17.6,17.6,0,0,0,3.9,5.36c1.59,1.61,3.35,3.08,5,4.66.41.4.83.78,1.23,1.23a7.48,7.48,0,0,1,1,1.47c.53,1,.89,2.12,1.49,3.07a7.69,7.69,0,0,0,2.54,2.18c.48.33.95.66,1.39,1a5.76,5.76,0,0,1,.62.59c.17.21.39.52.2.78.17-.27-.05-.56-.22-.75a5.68,5.68,0,0,0-.64-.57c-.46-.34-.94-.65-1.42-1s-1-.6-1.45-.92a3.9,3.9,0,0,1-.69-.54,7.23,7.23,0,0,1-.55-.69c-.66-1-1.06-2.05-1.62-3a7.3,7.3,0,0,0-1-1.36c-.37-.39-.82-.76-1.24-1.14-1.71-1.5-3.52-2.9-5.21-4.48a18.57,18.57,0,0,1-4.32-5.51c-1.08-2.2-.94-4.71-2-6.47a7.59,7.59,0,0,0-.93-1.29L612.62,390l-2.2-2.63L609.33,386a9.93,9.93,0,0,0-1.1-1.14,10.15,10.15,0,0,0-2.67-1.66,7.83,7.83,0,0,0-1.46-.49c-.51-.12-1.05-.2-1.61-.29a10.33,10.33,0,0,1-3.68-1Z" transform="translate(15.1 -11.88)"/><path class="cls-10" d="M629.35,395.82a4.73,4.73,0,0,0-3.23,3.88,33,33,0,0,0-.45,6.17,25.25,25.25,0,0,0,.2,6.17c.3,1.95,1.82,3.49,2.64,5.65A10.53,10.53,0,0,1,629,421a26.57,26.57,0,0,1-.16,3.23c-.21,2.13-.58,4.22-.8,6.32a33.33,33.33,0,0,0-.2,6.31,19.86,19.86,0,0,0,.71,3.08,5.67,5.67,0,0,1,.18,1.59,2.09,2.09,0,0,1-.6,1.44,2.13,2.13,0,0,0,.54-1.44,5.91,5.91,0,0,0-.25-1.56,21.09,21.09,0,0,1-.85-3.07,33.39,33.39,0,0,1,0-6.4c.13-2.13.41-4.23.54-6.33a27.27,27.27,0,0,0,0-3.13,10.43,10.43,0,0,0-.54-3A17.93,17.93,0,0,0,626,415.4a9.36,9.36,0,0,1-1.39-3.06,26.27,26.27,0,0,1-.51-6.5,34.44,34.44,0,0,1,.23-6.52,8,8,0,0,1,1.35-3.31,6.27,6.27,0,0,1,3-2.2Z" transform="translate(15.1 -11.88)"/><path class="cls-10" d="M600.08,402.83c-.05-.2,0,.07.21.26a5.2,5.2,0,0,0,.72.65,17.58,17.58,0,0,0,1.83,1.21c1.3.74,2.7,1.51,4,2.12s2.86,1.15,4.31,1.88a15.78,15.78,0,0,1,2.12,1.26c.68.5,1.24,1,1.88,1.44,1.23,1,2.47,2,3.63,3.06a14.23,14.23,0,0,1,3,3.84,10.89,10.89,0,0,1,1.09,4.79,25.56,25.56,0,0,1-.48,4.74,35.59,35.59,0,0,0-.65,4.55,13,13,0,0,0,.68,4.45,41,41,0,0,0,1.84,4.25,15,15,0,0,1,1.15,4.61,32,32,0,0,1-.1,4.7l-.3,4.66c-.07,1.55-.26,3.11-.31,4.66a6.42,6.42,0,0,0,1.2,4.38,6.5,6.5,0,0,1-1.33-4.38c0-1.57.15-3.11.18-4.67l.16-4.67a31.08,31.08,0,0,0,0-4.63,14.28,14.28,0,0,0-1.22-4.39,41.65,41.65,0,0,1-2-4.26,14,14,0,0,1-.85-4.72,35.55,35.55,0,0,1,.53-4.7,25.15,25.15,0,0,0,.33-4.55,9.59,9.59,0,0,0-1.07-4.21,13,13,0,0,0-2.83-3.39c-1.13-1-2.35-1.93-3.6-2.85-.61-.44-1.28-.95-1.87-1.35a12.3,12.3,0,0,0-1.92-1.07c-1.35-.64-2.81-1.12-4.29-1.73s-2.87-1.34-4.29-2.09a18.19,18.19,0,0,1-2.1-1.31,6.91,6.91,0,0,1-1-.9,4.19,4.19,0,0,1-.49-.66l-.21-.47a3.7,3.7,0,0,1-.07-.66Z" transform="translate(15.1 -11.88)"/><path class="cls-10" d="M622.55,437.52a9.85,9.85,0,0,0-1.23,3.65,35.92,35.92,0,0,0-.37,4c-.1,2.72,0,5.45.06,8.18s.21,5.47.22,8.21c0,1.37,0,2.74-.13,4.11a11.36,11.36,0,0,1-.89,4,11.36,11.36,0,0,0,.76-4c.07-1.36,0-2.73,0-4.09-.1-2.73-.31-5.46-.49-8.19s-.34-5.47-.32-8.23a33.94,33.94,0,0,1,.25-4.14,10.64,10.64,0,0,1,1.26-4.11Z" transform="translate(15.1 -11.88)"/><path class="cls-10" d="M614,368.1a9.25,9.25,0,0,0-.46,3c0,1.1,0,2.24,0,3.41,0,.58,0,1.19,0,1.79l-.11,1.72c-.08,1.15-.16,2.29-.2,3.42a62,62,0,0,0,.22,6.8,41.64,41.64,0,0,0,1,6.71c.14.55.29,1.08.46,1.65a4.57,4.57,0,0,1,.25,1.89,3.87,3.87,0,0,1-.8,1.75c-.35.46-.69.91-1,1.38a6.39,6.39,0,0,0-1.14,3,14.57,14.57,0,0,0,.1,3.36c.29,2.24,1,4.54.62,6.88-.13,1.17-.64,2.23-.79,3.36a32.57,32.57,0,0,0-.25,3.43,30.6,30.6,0,0,1,.12-3.45c.11-1.16.58-2.24.66-3.37.24-2.28-.49-4.49-.88-6.77a15.13,15.13,0,0,1-.24-3.5,7.2,7.2,0,0,1,1.13-3.4c.3-.51.63-1,1-1.46a3,3,0,0,0,.58-1.36,12,12,0,0,0-.81-3.15,42.38,42.38,0,0,1-1.32-6.86,59.52,59.52,0,0,1-.49-7c0-1.16,0-2.32.07-3.47l0-1.72c0-.55,0-1.09,0-1.66,0-1.12-.15-2.28-.16-3.48a11.34,11.34,0,0,1,.46-3.75Z" transform="translate(15.1 -11.88)"/><path class="cls-10" d="M613.62,371.15a12.7,12.7,0,0,0,.51,6,8.42,8.42,0,0,0,1.55,2.53c.66.78,1.48,1.48,2.24,2.35a5,5,0,0,1,1,1.54,7.1,7.1,0,0,1,.39,1.69,12.45,12.45,0,0,0,.57,3.1,2.89,2.89,0,0,0,.86,1.2,4.6,4.6,0,0,0,1.38.7,14,14,0,0,0,3.16.62,14.33,14.33,0,0,1-3.25-.32,4.74,4.74,0,0,1-1.57-.61,3.53,3.53,0,0,1-1.15-1.31,12.79,12.79,0,0,1-.93-3.21,6.58,6.58,0,0,0-.48-1.42,4.56,4.56,0,0,0-.86-1.14c-.71-.71-1.6-1.37-2.4-2.19a10.57,10.57,0,0,1-2-2.86,14.75,14.75,0,0,1-1.07-6.81Z" transform="translate(15.1 -11.88)"/><path class="cls-10" d="M593.26,376.93a8.5,8.5,0,0,0-3.32,3,18.2,18.2,0,0,0-2,4.39c-.51,1.57-.94,3.19-1.49,4.78a16.6,16.6,0,0,1-2.19,4.52A16.59,16.59,0,0,0,586,389c.36-1.62.62-3.26,1-4.91a19.11,19.11,0,0,1,1.62-4.91,10.35,10.35,0,0,1,3.64-4Z" transform="translate(15.1 -11.88)"/><path class="cls-10" d="M609.68,487.74c.28.32.56.65.87,1Q610.09,488.22,609.68,487.74Z" transform="translate(15.1 -11.88)"/><path class="cls-10" d="M609.28,487.26l.4.48Z" transform="translate(15.1 -11.88)"/><path class="cls-10" d="M480.39,371.82c-.19.19-.38.39-.56.6a25.1,25.1,0,0,1,12.21-3.1c4.88,0,8.77,1.43,13,1.43,4.67,0,9.55-.37,13.75-2.38,3.68-1.76,7.32-4.24,11.37-4.8,4.54-.64,8.17,1.35,12.33,1.75a42.39,42.39,0,0,0,12.94-1c4.56-1,6.71-2.61,10.56-5.16,3-2,7-1.15,10.06-2.4-2,5.44-5.4,10.87-7.87,15.87-1.33,2.68-.53,5.05-3.06,6.81s-3.92,5.86-6.06,8.24c-8.35,9.32-4.62,18-4.6,28,0,6.12-.51,7-4.51,10.7-4.77,4.43-2.8,10.29-4.49,15.7-1.77,5.66-10.22,7.85-15.45,9.92-3.42,1.34-1.73,8.94-4.31,11.12,0,0,2.24-1,3.32-6.92.57-3.14,7.83-5.67,7.83-5.67,5.51-2,10.23-4.68,12.65-10.35s.9-10.22,6-14.85c4.77-4.31,7.16-7.27,5.13-13.52-1.94-6-1.66-10.59.64-16.48,2.18-5.56,5.24-7.61,9.06-12.07,1.65-1.92,2.5-4.54,4.13-6.32,1.86-2,4-3,5.57-5.4,3.48-5.52,5.31-10.19,11.41-13.13l-.71-.18,1.09.07a4.9,4.9,0,0,0-1.2,2.76c-.59,4.32.1,8.87.1,13.22,0,6.2.15,12.12,1.89,17.94a52.31,52.31,0,0,1,2,17.86c-.31,6.34.21,13.48-2.34,19.4-4.3,10-1.83,15-4.75,20.53,4.28-8.13,6.45-17.77,10.94-29.36,7.07,5.27,15.42,25,8.44,32-2,2-4.75,2.75-6.47,5.1-1.57,2.14-2.3,5.25-2.79,7.66-1.21,6-1.87,10.62-7.52,14.14a14.86,14.86,0,0,0-5.71,7.5c2-2.2,4.59-3.16,7.05-4.46,5.21-2.76,5.38-7,6.46-9.84,1.55-4,.86-10.68,6.77-11.51-.45,9-1.21,18.87,4.57,26-3.64-4.51-2.88-7.89-2.36-14.73s-1.07-11.38,3.78-16.47c7.46-7.84,5.44-21.1-.26-29-3.45-4.75-7.93-8.94-8.91-14.86-.88-5.32,0-11.3,0-16.9,0-6.37.35-12.6.36-19,0-4,.66-8.29,3.84-10.27,1.57,0,3.29,0,4.43,1.3,1.54,1.7,1.12,3,3.43,4.47,3.68,2.28,7.12,4.51,9,8.47s1.08,8.39,2.68,12.16,5.56,5.13,8.27,8c4.26,4.52,7.28,10.15,7.83,16.05.53,5.63-8.79,7.8-8,13.42a.88.88,0,0,1,.5.19c3-3.11,4.85-3,8.44-5.11l1-.15c6.34,1,4.76,12.24,8.59,13.35-.69-2.09,0-5.12,0-7.46,0-2.79-1-5.44-1-8,4-1.56,7.74,1.7,11.2,3.13,4.23,1.74,8.88,2,13.21,3.62a53.55,53.55,0,0,1,11.91,6.14c1.46,1,3.48,2.09,4.49,4.23a12.94,12.94,0,0,0,3.68,4.57c2.65,2.16,1.39-.46.39-2.07s-1.9-3.05-2.83-4.65c-2.09-3.57-4.89-5.57-8.75-7.19s-8.05-2.59-12.07-4.27c-4.3-1.8-8.34-3.23-12.6-4.91-3.87-1.53-8.52-4-9.75-8-1.08-3.47-1.78-7.63-4.58-10.61-2.62-2.78-6.89-4.85-9.92-7-3.92-2.83-2.85-7.29-3.29-11.52-.7-6.83-6.41-9.89-9.77-15.57-1.29-2.2-1.14-4.57-1.68-6.76,2.73.09,5.54-.25,8.23.26,4,.78,8.45.45,12.65.27,3.74-.16,8.79-1,12.39-.2,3.19.72,6,3.51,8.61,5.43,3.89,2.9,7.44,2.49,12.14,2.27,4.49-.22,8.67.89,13.2,1.3,5.41.48,6.22,3,9.61,6a25.29,25.29,0,0,0,8.44,5.09c-2.91-3.17-5.93-7.43-9.22-10.46-1.76-1.62-4-3.68-6.34-4.53-3.23-1.19-7.24-.62-10.64-1.58-3.78-1.06-8.22-.08-11.79-1.79-4.3-2.06-6.79-5.27-9.91-8.47-7.55-7.76-18.85-3.45-28.07-3.56-2.36,0-4.05-1-6.2-1.3-2.54-.39-4.83.15-7.28-.77a14.5,14.5,0,0,1-4.64-2.45,70.44,70.44,0,0,1-24.62-.24,8.77,8.77,0,0,1-2.32,1.79c-5,2.64-11.18.87-16.64,1.1-4.58.2-8.08,1.84-11.86,4.2-4.09,2.56-8.08,3.08-12.93,3.31s-9.06-1.11-13.46-.26-8,3.25-11.86,5.44c-4.92,2.75-9.19,3.35-14.82,3.35-2.78,0-5.44-.2-8.21.05C489.87,366.61,484.07,368.08,480.39,371.82Z" transform="translate(15.1 -11.88)"/><path class="cls-10" d="M547.17,157.41q-3.28-3.63-7.06-7.39S543,153.11,547.17,157.41Z" transform="translate(15.1 -11.88)"/><path class="cls-10" d="M645.12,148.16c-5.06,4.63-9.75,9.45-14.46,14.47a4.58,4.58,0,0,1-3.54,1.84c-.94-3.07.18-7.67.7-10.85a9.07,9.07,0,0,1,.33-1.46,19.74,19.74,0,0,1,2.48-5.22,44.46,44.46,0,0,0-6.82,11.75c-1.77,4.5-4.12,8.8-5.74,13.38-2.94,8.29-2.68,16.53-4.81,24.83-.45,1.77-12.9,29.62-16.9,26.61-.05,0-20.14-15.13-13.9-35.45a64.86,64.86,0,0,0-.32-38s2.15,34.68-4.73,33.64c-4.78-.71-20.82-16.56-30.24-26.25,37.26,41,29.58,68.69,29.58,68.69s-57.12-25.88-61.43-50.47c-2.47-14.13-8.08-20.43-8.08-20.43C520.17,190.91,474.37,169,474.37,169c3.77,8.41,29.45,13.85,29.45,13.85,65.3,46.77,75.8,69.7,75.8,69.7s18,13.15,11.53,83.19v3.06a29.74,29.74,0,0,1-2.25,5.85,12.2,12.2,0,0,1-1.81,2.56,70.44,70.44,0,0,0,24.62.24,6.05,6.05,0,0,1-1.72-2.8,29.38,29.38,0,0,1-.78-3.87l-.13-2.67s-4.85-84.53,10-94.11a46.41,46.41,0,0,1,29.37-7.43c-1.35-3-6.74-2.14-6.74-2.14-22.9,3.62-31,1.55-31,1.55,22.09-27.17,65.2-39.07,65.2-39.07s6.23-1.32,15.35,3.1c10.91,5.29,23.71,12.43,23.71,12.43-3.23-5.44-33.68-25.88-33.68-25.88-2.39-1.61,2-21.69-1.12-26.31-3.55,15.39-7.35,29.35-23.54,35.1-1.93.69-28,7.65-28.41,6.22-1.53-5.22-3.73-9.79-3.59-15.29.2-8.23,4.69-16.1,10-22.33C638.61,159.23,642.67,153.74,645.12,148.16Z" transform="translate(15.1 -11.88)"/><text class="cls-11" transform="translate(585.79 130.58)"><tspan xml:space="preserve">550  </tspan></text><text class="cls-11" transform="translate(459.11 625.53)"><tspan xml:space="preserve">550  </tspan></text><text class="cls-12" transform="translate(499.94 90.27)">plant bio<tspan class="cls-13" x="143.44" y="0">m</tspan><tspan x="173.76" y="0">ass</tspan></text><text class="cls-11" transform="translate(94.06 347.33)"><tspan class="cls-14">7</tspan><tspan x="14.17" y="0">00</tspan></text><text class="cls-15" transform="translate(1016.8 317.89)">90</text><text class="cls-15" transform="translate(800.25 61.51)">120</text><text class="cls-15" transform="translate(827.45 308.99)">60</text><text class="cls-15" transform="translate(816.81 196.19)">60</text><text class="cls-15" transform="translate(1129.21 254.02)">90</text><text class="cls-11" transform="translate(89.93 414.2)">800</text><text class="cls-11" transform="translate(92.5 520.21)">840</text><path class="cls-16" d="M219.47,587c9.82,1.29,19.62,2.66,29.42,4,32.85,4.38,64.89,5.27,97.89,6.35,22.32.72,43.28-1.12,65.5,2.3,27.74,4.26,54.94,5.87,82.52.89a253.51,253.51,0,0,1,87.1-.18c17.05,2.91,34.09,7.57,51.35,6.4,11.87-.81,23.58-4.37,35.46-3.61s24.72,7.62,26.89,19.32c2.11,11.39-7.13,22.41-18,26.4s-22.87,2.71-34.38,1.38c-14.76-1.71-29.73-4.37-44.39-3.56-16.37.9-32.87.2-49.23-.6-19.41-.95-36.77-1.64-56,.07-18.61,1.66-37.33.95-56,.12-23.88-1.06-47.49-.59-71.32-.51-27.31.08-54.51-3.36-81.82-2-17.6.91-35.21,1.66-52.84,1.6-17-.06-34.19-2.42-51.1-.66-10.8,1.12-21.53,2.84-32.41,3.24C125,648.79,64,653.76,60.65,619.3c-1.48-15,7.45-29.09,21.88-33.47,21-6.39,46.37-5.07,68.1-4.76C173.71,581.41,196.62,584,219.47,587Z" transform="translate(15.1 -11.88)"/><text class="cls-17" transform="translate(112.5 618.28)"><tspan class="cls-18">f</tspan><tspan class="cls-19" x="9.4" y="0">o</tspan><tspan x="29.57" y="0">ssil fuels</tspan></text><text class="cls-11" transform="translate(332.73 621.44)">10,000</text><text class="cls-11" transform="translate(900.95 627.25)">6,000</text><text x="15.1" y="-11.88"/><path class="cls-1" d="M17.06,321h1.21" transform="translate(15.1 -11.88)"/><text class="cls-20" transform="translate(28.92 383.57) rotate(-0.05)">30</text><text class="cls-20" transform="translate(29.61 322.74) rotate(-0.05)">0<tspan class="cls-21" x="13.79" y="0">cm</tspan></text><text class="cls-20" transform="translate(30.39 463.51) rotate(-0.05)">100</text><text class="cls-20" transform="translate(30.17 581.51) rotate(-0.05)">300</text><path class="cls-22" d="M78.51,308.9c-5.86-.34-11.68-.52-17.55-.54-19.18-.09-38.37.37-57.53,1.25" transform="translate(15.1 -11.88)"/><path class="cls-23" d="M890.13,63.34c15-.71,28.75,7.36,41.52,15.16,1.55-14.85,12.22-29.24,26.9-32S989.77,56,988.82,70.92c7.08-14.16,16.4-27.79,29.84-36.16s31.67-10.44,44.94-1.82,18.27,29.25,7.81,41.13c13.62-3.2,29.14,2,37.18,13.5s7.34,28.58-2.34,38.68c10.31-9.23,27.57-9.33,38-.23,12.34,10.77,12.65,31.93,1.73,44.15s-30.53,14.79-45.08,7.27c-3.88-2-7.9-4.73-12.22-4-3.76.62-6.55,3.68-9.23,6.39-25,25.32-67,32-98.62,15.64-3.75-1.93-7.7-4.22-11.88-3.69-4.41.55-7.75,4-11.2,6.83-15,12.19-38.62,12.26-53.73.17s-20.21-35.12-11.61-52.46c-13.1,2.28-30.56,2.23-35.08-10.28-4.19-11.61,6.45-33.29,7.57-45.3C866.24,76.29,872.16,64.19,890.13,63.34Z" transform="translate(15.1 -11.88)"/><path class="cls-24" d="M890.14,63.33c15-.7,28.74,7.37,41.51,15.17,1.55-14.85,12.22-29.24,26.9-32S989.77,56,988.82,70.92c7.08-14.16,16.4-27.79,29.84-36.16s31.67-10.44,44.94-1.82,18.27,29.25,7.81,41.13c13.62-3.2,29.14,2,37.18,13.5s7.34,28.58-2.34,38.68c10.31-9.23,27.57-9.33,38-.23,12.34,10.77,12.65,31.93,1.73,44.15s-30.53,14.79-45.08,7.27c-3.88-2-7.9-4.73-12.22-4-3.76.62-6.55,3.68-9.23,6.39-25,25.32-67,32-98.62,15.64-3.75-1.93-7.7-4.22-11.88-3.69-4.41.55-7.75,4-11.2,6.84-23.25,18.83-64.77,25.21-77.39-8.85-4.13-11.14,3.32-16.59,3.42-25.91.09-7.79-1.63-6.84-10.31-11.44-11.91-6.32-24.25-13-25-28.1a26.57,26.57,0,0,1,1.46-11.17c2.55-6.43,8.33-10.78,11.77-16.67,3-5.13,3.26-10.34,5.14-15.8C870.53,69.88,878.7,63.88,890.14,63.33Z" transform="translate(15.1 -11.88)"/><text class="cls-25" transform="translate(952.03 152)">800 <tspan class="cls-14" x="67.5" y="0">P</tspan><tspan x="84" y="0">g </tspan></text><text class="cls-17" transform="translate(910.36 109.81)">at<tspan class="cls-26" x="31.25" y="0">m</tspan><tspan class="cls-19" x="61.23" y="0">o</tspan><tspan x="81.39" y="0">sp</tspan><tspan class="cls-27" x="117" y="0">h</tspan><tspan x="136.31" y="0">e</tspan><tspan class="cls-18" x="155.66" y="0">r</tspan><tspan x="165.88" y="0">e</tspan></text><circle class="cls-28" cx="377.43" cy="443.34" r="92.76"/><text class="cls-29" transform="translate(331.52 406.82)">50<tspan class="cls-30" x="35.4" y="0">-</tspan><tspan class="cls-31" x="46.93" y="0">7</tspan><tspan x="60.13" y="0">5% </tspan><tspan class="cls-32" x="-10.33" y="33.84">o</tspan><tspan x="9.19" y="33.84">f soil C </tspan><tspan x="4.26" y="67.68">bel</tspan><tspan class="cls-32" x="50.1" y="67.68">o</tspan><tspan class="cls-31" x="69.62" y="67.68">w</tspan><tspan x="94.25" y="67.68"> </tspan><tspan x="2.73" y="101.52">30 cm</tspan></text><path class="cls-33" d="M207.09,415a104.1,104.1,0,0,0-21.78,12.14,120.46,120.46,0,0,0-18.52,16.64c-11.22,12.28-20,26.59-27.18,41.52l-2.21-1.09c7.65-14.9,16.87-29.15,28.49-41.27A121,121,0,0,1,185,426.63,103.93,103.93,0,0,1,207.09,415Z" transform="translate(15.1 -11.88)"/><polygon class="cls-33" points="150.91 467.38 154.4 471.43 159.74 471.72 150.18 480.01 150.91 467.38"/><path class="cls-33" d="M193.1,390.92a92.7,92.7,0,0,1-28.91-3.82,71.11,71.11,0,0,1-25.93-13.81l1.74-1.93a69.28,69.28,0,0,0,24.6,14.5A91.78,91.78,0,0,0,193.1,390.92Z" transform="translate(15.1 -11.88)"/><polygon class="cls-33" points="161.24 359.56 155.6 361.68 153.22 367.21 148.15 353.88 161.24 359.56"/><polygon class="cls-33" points="208.61 394.25 166.7 400.86 166.41 398.59 208.61 394.25"/><polygon class="cls-33" points="169.71 394.2 168.23 399.5 171.02 404.25 158.45 400.78 169.71 394.2"/><circle class="cls-34" cx="262.31" cy="386.3" r="55.83"/><text class="cls-35" transform="translate(222.18 415.48)">2,340 </text><text class="cls-36" transform="matrix(1, 0.01, -0.01, 1, 232.58, 376.26)"><tspan class="cls-37">s</tspan><tspan x="15.39" y="0">oil </tspan></text><path class="cls-38" d="M1055.41,219.83a23.85,23.85,0,0,1,0,9.41c-.44,2.17-1.19,4.23-1.6,6.41-.65,3.49-.8,8.7.17,12.13.8,2.85,2.8,5.28,3.86,8.05,3.91,10.14,6.54,20.95,2.82,31.26a86.62,86.62,0,0,0-4,13.05c-.95,5.15-.41,11-.55,16.2a48.82,48.82,0,0,0,0,5.41" transform="translate(15.1 -11.88)"/><polygon class="cls-39" points="1067.28 307.91 1071.11 308.66 1074.31 306.42 1072.56 315.49 1067.28 307.91"/><path class="cls-38" d="M1102.48,330.29c1.06-5,3.25-11.61,1.38-16.61a35.77,35.77,0,0,0-1.81-3.54c-3.84-7.57-.34-16.33.57-24.14.78-6.7-1-10.05-4.15-15.67-4.39-7.75-3.77-16.7-1.83-25.57,1.43-6.47,4.55-12.31,5.28-18.93" transform="translate(15.1 -11.88)"/><polygon class="cls-39" points="1120.6 216.42 1116.91 215.15 1113.44 216.93 1116.41 208.18 1120.6 216.42"/><path class="cls-38" d="M1033.6,218.62c-.66,6.54-4.09,11.79-5.34,18.08-1.13,5.61,1.34,12.65,4.19,17,1.7,2.56,3.88,4.68,5,7.69,2.75,7.05-.86,14.76-3.07,21.43-1.16,3.52-2.34,7.2-2.29,10.94,0,4.33,2,6.65,4,10.2s2.09,8.21,1.71,12.46c-.21,2.38-.52,4.8-.56,7.2" transform="translate(15.1 -11.88)"/><polygon class="cls-39" points="1048.77 309.13 1052.42 310.48 1055.94 308.79 1052.75 317.46 1048.77 309.13"/><path class="cls-38" d="M1080,330.65c.75-3.75-1.48-6.92-1.85-10.51s.81-7.34.92-11c.18-6.37-3.92-12.22-2.09-18.63,1.11-3.86,3.47-7.3,4.37-11.23,1-4.52-.32-8-1.87-12.21-3.7-10-2.24-18.25.93-28a42.94,42.94,0,0,0,2-14.84" transform="translate(15.1 -11.88)"/><polygon class="cls-39" points="1101.29 214.71 1097.57 213.53 1094.14 215.39 1096.91 206.58 1101.29 214.71"/><path class="cls-40" d="M873.65,357.88a15.89,15.89,0,0,0,.84,2.06c8.26,17.32,24.45,29.33,34.25,45.67,11.42,19.06,17.44,41.74,22.7,63.1C944,519.72,942.52,570,978.68,612c13.66,15.9,28.86,30.84,39.12,49,22.54,39.86,72.44,47.78,115.55,56.12,25.42,4.92,41.29,10.21,55.51-16.37,16.23-30.36,33.08-60.32,43.11-93.51a258.49,258.49,0,0,0-5.84-165.3c-10-26.28-23.27-52.16-16.33-80.76,2.51-10.35,3.75-23.68-8.55-28.08-10.27-3.67-20.51-1.36-30.74,1-21.67,5-42.36,7.62-64.54,4.72-20.9-2.74-42.42-6.95-63.42-2.49-9.94,2.12-20,3.75-30,5.39-22.5,3.67-45.67,3.57-68.51,2.81-7.51-.25-15-.68-22.54-.61-9.48.09-47.71-2-48.19,11.8A6.42,6.42,0,0,0,873.65,357.88Z" transform="translate(15.1 -11.88)"/><text class="cls-41" transform="translate(1051.67 381.49)">ocea<tspan class="cls-42" x="78.27" y="0">n</tspan><tspan x="98.03" y="0">s</tspan></text><text class="cls-41" transform="translate(740.86 627.36)"><tspan class="cls-43">s</tspan><tspan x="14.51" y="0">edi</tspan><tspan class="cls-13" x="64.45" y="0">m</tspan><tspan x="94.77" y="0">ent</tspan></text><text class="cls-41" transform="translate(1081.79 530.08)">deep<tspan x="-31.87" y="41.16">ocea</tspan><tspan class="cls-42" x="46.41" y="41.16">n</tspan><tspan x="66.16" y="41.16">s</tspan></text><text class="cls-11" transform="translate(1088.07 426.89)">1,000</text><text class="cls-11" transform="translate(1068.48 614.82)"><tspan class="cls-44">3</tspan><tspan class="cls-45" x="17.8" y="0">7</tspan><tspan x="29.91" y="0">,000</tspan></text><text class="cls-46" transform="translate(71.3 53.53)"><tspan class="cls-47">W</tspan><tspan class="cls-48" x="48.34" y="0">h</tspan><tspan x="76.05" y="0">e</tspan><tspan class="cls-49" x="103.57" y="0">r</tspan><tspan x="118.63" y="0">e in t</tspan><tspan class="cls-48" x="235.49" y="0">h</tspan><tspan x="263.21" y="0">e </tspan><tspan class="cls-50" x="56.38" y="58.31">w</tspan><tspan x="96.22" y="58.31">orld is</tspan><tspan class="cls-51" x="234.34" y="58.31"> </tspan><tspan class="cls-52"><tspan class="cls-53" x="16.36" y="134.63">C</tspan><tspan x="62.67" y="134.63">arbon </tspan></tspan><tspan class="cls-54"><tspan x="29.69" y="190.71">Sa</tspan><tspan class="cls-55" x="85.12" y="190.71">n</tspan><tspan x="112.64" y="190.71">dieg</tspan><tspan class="cls-56" x="213.38" y="190.71">o</tspan><tspan x="239.23" y="190.71">?</tspan></tspan></text><path class="cls-57" d="M857.64,63.9A77.91,77.91,0,0,0,802.25,43a79.25,79.25,0,0,0-49.81,20.56" transform="translate(15.1 -11.88)"/><polygon class="cls-33" points="767.01 46.98 768.48 50.83 772.28 52.45 763.16 55.96 767.01 46.98"/><path class="cls-57" d="M762.52,195.26a77.94,77.94,0,0,0,54.39,23.38,79.17,79.17,0,0,0,50.68-18.29" transform="translate(15.1 -11.88)"/><polygon class="cls-33" points="883 193.18 881.71 189.26 877.99 187.48 887.25 184.38 883 193.18"/><path class="cls-58" d="M845.86,303.26A121.65,121.65,0,0,0,888,285.38c18.54-12.44,31.07-31.51,33.95-53.55" transform="translate(15.1 -11.88)"/><polygon class="cls-33" points="940.25 223.02 936.82 221.13 933.08 222.28 937.54 214.16 940.25 223.02"/></g></g></g></svg>