<svg xmlns="http://www.w3.org/2000/svg" xmlns:xlink="http://www.w3.org/1999/xlink" viewBox="0 0 1526.12 766.94"><defs><style>.cls-1,.cls-14,.cls-19,.cls-21,.cls-23,.cls-24,.cls-25,.cls-26,.cls-3,.cls-31,.cls-32,.cls-33,.cls-34,.cls-36,.cls-37,.cls-47,.cls-49,.cls-5,.cls-50,.cls-54,.cls-57{fill:none;}.cls-2{clip-path:url(#clip-path);}.cls-23,.cls-24,.cls-25,.cls-27,.cls-3,.cls-36,.cls-37,.cls-54,.cls-58,.cls-60,.cls-63,.cls-66,.cls-71,.cls-72{stroke:#fff;}.cls-18,.cls-20,.cls-23,.cls-24,.cls-25,.cls-26,.cls-27,.cls-3,.cls-31,.cls-32,.cls-33,.cls-34,.cls-36,.cls-37,.cls-47,.cls-49,.cls-5,.cls-50,.cls-54,.cls-57,.cls-58,.cls-60,.cls-63,.cls-66,.cls-71,.cls-72{stroke-miterlimit:10;}.cls-3{stroke-width:1.01px;}.cls-28,.cls-4,.cls-51,.cls-59,.cls-61,.cls-64,.cls-67{fill:#fff;}.cls-26,.cls-31,.cls-32,.cls-33,.cls-5{stroke:#5b5052;}.cls-34,.cls-37,.cls-5{stroke-width:0.5px;}.cls-42,.cls-6{fill:#5b5052;}.cls-7{clip-path:url(#clip-path-2);}.cls-8{fill:#3ca9a0;}.cls-9{fill:#3daaa1;}.cls-10{fill:#825044;}.cls-11{fill:#9f5b39;}.cls-12{fill:#daae61;}.cls-13{fill:#754f35;}.cls-14{stroke:#3daaa1;stroke-width:8.55px;}.cls-14,.cls-19,.cls-21{stroke-linejoin:round;}.cls-15{fill:#ad4053;}.cls-16{fill:#399f4c;}.cls-17{fill:#3da89f;}.cls-18,.cls-20{fill:#fbcb08;stroke:#efefef;}.cls-18{stroke-width:0.07px;}.cls-19,.cls-21{stroke:#fbcb08;stroke-linecap:round;}.cls-19{stroke-width:0.51px;}.cls-20{stroke-width:0.08px;}.cls-21{stroke-width:0.58px;}.cls-22{fill:#e86a7c;}.cls-23{stroke-width:0.59px;}.cls-24{stroke-width:0.67px;}.cls-25{stroke-width:0.42px;}.cls-26{stroke-width:0.81px;}.cls-27,.cls-55,.cls-60,.cls-63,.cls-66{fill:#ec6a7c;}.cls-27{stroke-width:0.45px;}.cls-28{font-size:11.37px;}.cls-28,.cls-61,.cls-64,.cls-67{font-family:Acre-Bold, Acre;font-weight:700;}.cls-29{letter-spacing:-0.02em;}.cls-30{letter-spacing:-0.02em;}.cls-31{stroke-width:0.94px;}.cls-32{stroke-width:12.64px;}.cls-33{stroke-width:3.16px;}.cls-34{stroke:#5d5153;}.cls-35{fill:#5d5153;}.cls-36{stroke-width:0.33px;}.cls-38{fill:#4d3b2f;}.cls-39{fill:#bd7b46;}.cls-40{fill:#a16339;}.cls-41{fill:#daab7e;}.cls-42{font-size:14.69px;font-family:Acre-Light, Acre;font-weight:300;}.cls-43{letter-spacing:-0.02em;}.cls-44{letter-spacing:0em;}.cls-45{letter-spacing:-0.02em;}.cls-46{fill:#fccc0a;}.cls-47,.cls-49,.cls-50{stroke:#ffcf01;}.cls-47{stroke-width:0.86px;}.cls-48{fill:#ffcf01;}.cls-49{stroke-width:0.95px;}.cls-50{stroke-width:0.82px;}.cls-51{font-size:26.92px;}.cls-51,.cls-55,.cls-59{font-family:Acre-Semibold, Acre;font-weight:600;}.cls-52{letter-spacing:-0.02em;}.cls-53{letter-spacing:-0.01em;}.cls-54{stroke-width:0.38px;}.cls-55{font-size:33.37px;}.cls-56{letter-spacing:-0.02em;}.cls-57{stroke:#5d5152;stroke-width:0.43px;}.cls-58{fill:#8a6239;stroke-width:0.71px;}.cls-59{font-size:17.27px;}.cls-60{stroke-width:0.63px;}.cls-61{font-size:15.94px;}.cls-62{letter-spacing:-0.02em;}.cls-63{stroke-width:0.63px;}.cls-64{font-size:15.89px;}.cls-65{letter-spacing:-0.02em;}.cls-66{stroke-width:0.48px;}.cls-67{font-size:12.14px;}.cls-68{letter-spacing:-0.02em;}.cls-69{letter-spacing:-0.02em;}.cls-70{fill:#5e5153;}.cls-71{fill:#fccc08;}.cls-71,.cls-72{stroke-width:0.16px;}.cls-72{fill:#2e62a0;}.cls-73{fill:#f17243;}</style><clipPath id="clip-path" transform="translate(28.02 -77.48)"><rect class="cls-1" width="1393" height="777"/></clipPath><clipPath id="clip-path-2" transform="translate(28.02 -77.48)"><rect class="cls-1" x="-188.14" y="56.03" width="1882.68" height="798.51"/></clipPath></defs><g id="Layer_2" data-name="Layer 2"><g id="Carbon_San_Diego" data-name="Carbon San Diego"><g class="cls-2"><path class="cls-3" d="M658.17,360.6c6.84-.54,13.56,3.11,17.55,8.46,4.44,5.95,4.78,13.8,5,20.89.2,7.4.39,14.79.4,22.2" transform="translate(28.02 -77.48)"/><polygon class="cls-4" points="706.4 332.74 709.02 333.81 711.61 332.66 709.09 338.88 706.4 332.74"/><path class="cls-5" d="M681.47,446.37c-.32,11.7.07,12.58-1.85,18.52a24.44,24.44,0,0,1-12.36,14.85,26.13,26.13,0,0,1-9.67,2.68" transform="translate(28.02 -77.48)"/><polygon class="cls-6" points="686.65 403.12 686.16 404.87 687.08 406.44 682.93 405.29 686.65 403.12"/><path class="cls-5" d="M681.15,458.07c.14,5.51.44,12.55,1.18,18,.82,6.11,2.27,12.25,1.31,18.49a39.58,39.58,0,0,1-5.25,14.87" transform="translate(28.02 -77.48)"/><polygon class="cls-6" points="705.77 430.18 706.66 431.53 708.25 431.82 705.07 433.95 705.77 430.18"/><g class="cls-7"><path class="cls-8" d="M226.34,470.62l89.07-.27V445.41a53.2,53.2,0,0,0-4.1,13.52,42.94,42.94,0,0,0-2.47-20.45s2,18.3-3,22.75c0,0-2.56-17.9,2.66-29.81,0,0-6.39,8.79-6.73,24.4.05-1.68.24-16.48-6.23-29.85,0,0,4.71,22.85,1.47,30.63a34.38,34.38,0,0,0-4.56-25c6.68,18.87-.49,27.23-.49,27.23,2.93-7.83-.05-15.48-.05-15.48.54,3.55-3.79,15.48-3.79,15.48-4.33-6.41,1.27-18.33,1.27-18.33-4.88,5-7,19.22-7,19.22-1.08-8.18,7-29.54,7-29.54-7.5,11.43-10.22,25.86-10.5,27.44,2.78-15.23-.33-25.3-.33-25.3,1.62,12.81-3.79,29.54-3.79,29.54-2.89-5.52,2.17-22.78,2.17-22.78a51.46,51.46,0,0,0-5.84,19.22,48.29,48.29,0,0,0-.37-10.12,42,42,0,0,1,4.2-12.11,53.06,53.06,0,0,0-5,8,34.31,34.31,0,0,0-4-10.17,60.07,60.07,0,0,1,2.61,13.17,35.94,35.94,0,0,0-2.9,10.66,21.34,21.34,0,0,1-.95-4.36,27.49,27.49,0,0,1,2.14-8.15,24.72,24.72,0,0,0-2.26,4.44,28.62,28.62,0,0,1,1.17-7l.72-1.35-.44.46c.16-.47.27-.72.27-.72a9.94,9.94,0,0,0-1.09,1.66,47.19,47.19,0,0,0-4.87,7A194.66,194.66,0,0,1,264,427.12c-4.4,11.48-6.34,24.61-7,29.69l-.17.48a55.11,55.11,0,0,0-1.1-12.62A87.23,87.23,0,0,0,254,430.81s.06,2.9-.14,7a38.09,38.09,0,0,0-1.35-3.59,55.12,55.12,0,0,1,1,8.26,77.5,77.5,0,0,1-1.7,11.21,37.28,37.28,0,0,0-.4-15.73,33.71,33.71,0,0,1-3,19l.09-.5c4.47-12.38-1.4-29.33-1.4-29.33a50.85,50.85,0,0,1-3.43,29.9c-.13-.76-.27-1.48-.41-2.18A94.89,94.89,0,0,1,247,436.39a35.09,35.09,0,0,0-5.86,9.52c-2.34-7.56-4.45-9.18-4.45-9.18a36.6,36.6,0,0,1,3.66,11.07,54.49,54.49,0,0,0-3,11,42.94,42.94,0,0,0-2.47-20.45s2,18.31-3,22.76c0,0-2.57-17.91,2.66-29.82,0,0-11.46,10.73-8.59,39.09" transform="translate(28.02 -77.48)"/><path class="cls-9" d="M1321.14,519.11c.25-2.31,1-4.55,1.18-6.86.33-3.48-.48-7-.62-10.47-.24-5.69,1.3-11.47.09-17a128.83,128.83,0,0,1,3.66,27.42,48.73,48.73,0,0,0,.34,5.92c.55,3.7,2.13,7.45,1.13,11.06-.24.84-4.81-1.77-5.26-2.47C1320.55,524.91,1320.93,521,1321.14,519.11Z" transform="translate(28.02 -77.48)"/><path class="cls-9" d="M1336.17,519.11c.25-2.31,1-4.55,1.18-6.86.33-3.48-.48-7-.62-10.47-.23-5.69,1.3-11.47.09-17a128.83,128.83,0,0,1,3.66,27.42,48.73,48.73,0,0,0,.34,5.92c.56,3.7,2.13,7.45,1.13,11.06-.24.84-4.81-1.77-5.26-2.47C1335.58,524.91,1336,521,1336.17,519.11Z" transform="translate(28.02 -77.48)"/><path class="cls-9" d="M1316.51,509.55c.24-3,.22-6,.66-8.91.33-2.12.89-4.21,1-6.35a32,32,0,0,0-.91-8.2,21,21,0,0,1,4.24,13.4,89,89,0,0,1-1.38,9.15c-1,6.53-.23,13.21-1.25,19.73-1,6.12-3.28-3.16-3.41-4.76C1315.12,518.91,1316.14,514.22,1316.51,509.55Z" transform="translate(28.02 -77.48)"/><path class="cls-9" d="M1388.66,507.41c.24-3,.22-6,.67-8.9.32-2.12.88-4.21,1-6.36a31.64,31.64,0,0,0-.9-8.2,21,21,0,0,1,4.23,13.4c-.12,3.09-.93,6.1-1.37,9.16-1,6.52-.23,13.21-1.25,19.72-1,6.13-3.29-3.16-3.41-4.76C1387.28,516.78,1388.29,512.08,1388.66,507.41Z" transform="translate(28.02 -77.48)"/><path class="cls-9" d="M1416.19,508.65c.24-3,.22-6,.67-8.91.32-2.12.88-4.21,1-6.35a32.48,32.48,0,0,0-.9-8.2,21,21,0,0,1,4.23,13.4c-.12,3.08-.93,6.1-1.38,9.15-.94,6.53-.23,13.21-1.25,19.73-1,6.12-3.28-3.16-3.41-4.76C1414.8,518,1415.82,513.32,1416.19,508.65Z" transform="translate(28.02 -77.48)"/><path class="cls-9" d="M1403.7,507.41c.23-3,.22-6,.66-8.9.32-2.12.88-4.21,1-6.36a32.09,32.09,0,0,0-.91-8.2,21,21,0,0,1,4.23,13.4c-.12,3.09-.93,6.1-1.37,9.16-.95,6.52-.23,13.21-1.25,19.72-1,6.13-3.29-3.16-3.41-4.76C1402.31,516.78,1403.32,512.08,1403.7,507.41Z" transform="translate(28.02 -77.48)"/><path class="cls-9" d="M1431.22,508.65c.24-3,.22-6,.67-8.91.32-2.12.88-4.21,1-6.35a32.48,32.48,0,0,0-.9-8.2,21,21,0,0,1,4.23,13.4c-.12,3.08-.93,6.1-1.37,9.15-.95,6.53-.23,13.21-1.26,19.73-.95,6.12-3.28-3.16-3.4-4.76C1429.84,518,1430.85,513.32,1431.22,508.65Z" transform="translate(28.02 -77.48)"/><path class="cls-9" d="M1439.38,509.64c.23-3,.22-6,.66-8.91.32-2.12.88-4.21,1-6.35a32,32,0,0,0-.91-8.2,21,21,0,0,1,4.23,13.4c-.12,3.08-.93,6.1-1.37,9.15-1,6.53-.23,13.21-1.25,19.73-1,6.12-3.28-3.16-3.41-4.76C1438,519,1439,514.31,1439.38,509.64Z" transform="translate(28.02 -77.48)"/><path class="cls-9" d="M1311.15,511.32c.24-3,.22-6,.66-8.9.33-2.13.89-4.22,1-6.36a32,32,0,0,0-.91-8.2,21,21,0,0,1,4.24,13.4,89,89,0,0,1-1.38,9.15c-1,6.53-.23,13.22-1.25,19.73-1,6.12-3.28-3.16-3.41-4.76C1309.76,520.68,1310.78,516,1311.15,511.32Z" transform="translate(28.02 -77.48)"/><path class="cls-9" d="M1406.14,506.35c.24-3,.22-6,.67-8.91.32-2.12.88-4.21,1-6.35a32.55,32.55,0,0,0-.9-8.21,21,21,0,0,1,4.23,13.41c-.12,3.08-.93,6.09-1.37,9.15-1,6.53-.23,13.21-1.26,19.73-1,6.12-3.28-3.16-3.4-4.76C1404.76,515.71,1405.77,511,1406.14,506.35Z" transform="translate(28.02 -77.48)"/><path class="cls-10" d="M1494.93,676.51c-13.84-6.34-29.5-9.24-44.8-11.07-81.6-9.74-163.91,5.24-246,8.73-72.71,3.1-145.45-2.82-218.13-6.43-318.78-15.85-638.34,12.59-957.37,2.48-16-.5-32.52-1-48,2.26V700c0,8.59,1.31,18.32-.18,26.78-2.95,16.87-5.71,33.92-8.26,50.93-.21,1.47-.41,3.07.36,4.34,1.22,2,4.11,2.17,6.51,2.06l40-1.83c13.19-.6,28.33-3.36,41.26-.69,125.09,25.9,252.56,38.31,379.94,47q315.3,21.64,631.74,13.7c51.19-1.28,102.12-3.57,151.9-15.69,5.14-1.25,10.85.76,16,1.45q9.11,1.2,18.3,1.57c24.68,1,49.33-2.18,73.51-6.81,24.36-4.66,48.38-10.8,72.61-16,11.22-2.42,22.83-6,34.35-5.55,9.76.37,18.24,2.17,27.79,4.15s21.66,1.22,26.83-7.07c3.13-5,2.75-11.36,2.27-17.24-2.66-32.7-.6-66.41-.6-99.39Z" transform="translate(28.02 -77.48)"/><path class="cls-11" d="M1422.94,603.55c-182.06,34.24-369.53,14.52-554.05-2.79-271.75-25.5-544.61-45.55-817.49-38.33-23.75.63-48.7,1.89-70.79,9.46V678.64c24,.58,51-3.78,68-3.71,93,.37,185.93,4.39,278.82,8.39,49.8,2.15,99.87,4.33,148.65,14.46,24.66,5.13,50.52,12.25,74.54,4.74,10.12-3.17,19.45-8.84,29.92-10.62,22.24-3.78,43,10.49,64.62,16.87C698.92,724.61,755,691,811,692.5c22.05.58,43.55,6.6,65.43,9.26,73.35,8.92,147.19-20,220.71-12.62,63.7,6.42,127.74,39.76,188.72,20.55,18.63-5.87,36.37-16.59,55.93-16.17,21.22.46,42,14.14,62.42,8.38,10.73-3,20.09-11.28,31.25-11.07,7.43.13,14.16,4,21.2,6.42,12.46,4.19,26.34,2.82,38.23-2.67V604C1473.24,594,1446.92,599,1422.94,603.55Z" transform="translate(28.02 -77.48)"/><path class="cls-12" d="M1421,527.86c-74.64,8.69-150,12.07-225.07,8.71-78.27-3.51-156.08-14.33-234.37-17.42-67.86-2.68-135.8.45-203.7.07-242.52-1.38-483.94-47.6-726.19-36.15-17,.8-34.2,1.92-51.08,4.39V596.07c22.73,1.41,47.85-2,67.75-1.47,34.06.9,68.08,2.63,102.1,4.36l165.65,8.41c10.79.55,21.67,1.11,32.1,3.9,11.37,3,21.89,8.64,33.24,11.73,34.9,9.5,72.23-5.73,108.08-.64,18.44,2.62,37.18,10.57,55.05,5.35,9.26-2.7,17.32-8.78,26.77-10.75,12.37-2.57,24.92,2.23,36.94,6.09,77.44,24.89,161.3,12.56,242.63,7.89,60-3.44,120.17-2.54,180.28-1.64,54,.8,108.41,1.65,161.36,12.19,21.47,4.28,43.19,10.17,64.94,7.63,16.94-2,32.85-9,49.56-12.34,30.6-6.18,62.15,0,93.12,4.06s64.12,5.53,91.71-8.87c1-.53,2-1.1,3-1.69V531.67C1473.25,523.59,1445.12,525.05,1421,527.86Z" transform="translate(28.02 -77.48)"/><path class="cls-13" d="M1493.83,481.8c-13.07,1.58-26.48,4.54-39.19,1.2-11.72-3.08-21.81-11.31-33.85-12.72-10.28-1.21-20.35,2.73-30.12,6.09-82.8,28.51-173.51,18.9-260.65,8.94L929.56,462.4c-34.26-3.91-68.65-7.83-103.13-7.08-39.95.87-79.55,7.67-119.54,7.69-18.75,0-36.91-4.67-55.23-5.27-20.55-.67-41.19-.28-61.75-.43S547.4,454.75,527,458c-36.39,5.85-86.49-10-121.5-17.42-81.95-17.33-166.9-8.42-250.72-7.39-54.46.66-110.07-2.27-160.95-21.41-5.13.49-9.21-.46-13.25-1.46v117l59.73-10.8a129.53,129.53,0,0,1,17.84-2.38c11-.45,21.94,1.9,32.74,4.09a1232.52,1232.52,0,0,0,183.44,23c54.67,2.71,109.47,1.78,164.17,3.73,55.27,2,110.39,6.91,165.47,11.84l141.2,12.64c72.3,6.47,152.56-8,225.16-7.26,28.37.3,56.76-.38,85.07-2.4,17.47-1.24,35-3,52.46-1.53,15.56,1.31,30.76,5.15,46.08,8.13,63.61,12.35,129.12,9.64,193.9,6.88l63.84-2.72c27.87-1.18,58.77-4.69,83.22-16.5V481.67Z" transform="translate(28.02 -77.48)"/><path class="cls-14" d="M1494.93,480.46l-1.1.13c-13.07,1.58-26.48,4.54-39.19,1.2-11.72-3.08-21.81-11.31-33.85-12.72-10.28-1.21-20.35,2.73-30.12,6.09-82.8,28.51-173.51,18.9-260.65,8.94L929.56,461.19c-34.26-3.91-68.65-7.83-103.13-7.08-12.26.27-24.49,1.1-36.7,2.11-32.1,2.65-64.28,6.72-96.55,5.29-15.07-.67-29.44-4.35-44.36-4.85q-25.26-.87-50.55-.89t-50.67.8c-15.92.51-32.05,2.34-48,1.39-32.22-1.92-62.9-12-94.11-18.57C323.58,422.06,238.63,431,154.81,432c-54.46.66-110.07-2.27-160.95-21.41-5.18-2.81-8.91-1.46-13.25-1.46" transform="translate(28.02 -77.48)"/><path class="cls-1" d="M1431.58,517.88l.16,3.35a3.64,3.64,0,0,0,5.34-1.28,3.54,3.54,0,0,0-2.7-4.71,3.58,3.58,0,0,0-3.88,3.83" transform="translate(28.02 -77.48)"/><path class="cls-4" d="M680.1,447.67a52.23,52.23,0,0,0,3,12.76,26.82,26.82,0,0,0,3.06,5.62,27.78,27.78,0,0,0,4.42,4.66c3.31,2.82,7.21,5.15,11,7.72a124,124,0,0,1,10.93,8.28,128.18,128.18,0,0,1,10,9.33q2.37,2.49,4.55,5.15c1.46,1.77,2.8,3.68,4.14,5.43,2.72,3.54,5.81,6.87,8.57,10.54a45.11,45.11,0,0,1,3.78,5.8,38.88,38.88,0,0,1,2.7,6.37,27.75,27.75,0,0,0,2.64,6,19.47,19.47,0,0,0,4.42,4.78c3.47,2.74,7.61,4.54,11.78,6.27s8.46,3.45,12.2,6.19a22.68,22.68,0,0,1,4.92,4.86,16.46,16.46,0,0,1,1.76,3,32.18,32.18,0,0,1,1.15,3.24c1.35,4.31,2.58,8.71,5,12.46a19.68,19.68,0,0,0,4.65,4.77,57.82,57.82,0,0,0,5.67,3.67l23.42,13.77L800.31,585a59.75,59.75,0,0,1-5.77-3.61,20.49,20.49,0,0,1-4.86-4.84c-2.59-3.83-3.9-8.28-5.32-12.55a27.82,27.82,0,0,0-1.16-3.14,15.81,15.81,0,0,0-1.7-2.81,21.6,21.6,0,0,0-4.78-4.57c-3.63-2.58-7.86-4.21-12.06-5.88s-8.5-3.44-12.2-6.28a20.52,20.52,0,0,1-4.84-5.08,28.51,28.51,0,0,1-2.9-6.32,37.29,37.29,0,0,0-2.69-6.08,42.85,42.85,0,0,0-3.71-5.51c-2.74-3.53-5.87-6.8-8.73-10.39-1.44-1.84-2.72-3.62-4.18-5.32s-2.94-3.36-4.51-4.95a123.69,123.69,0,0,0-10-9,121.34,121.34,0,0,0-10.83-7.95c-3.74-2.48-7.7-4.74-11.35-7.74a30.79,30.79,0,0,1-5-5.1,29.36,29.36,0,0,1-3.52-6.21,55.45,55.45,0,0,1-3.45-13.54,1.67,1.67,0,1,1,3.3-.49v.06Z" transform="translate(28.02 -77.48)"/><path class="cls-4" d="M678,451.79a38.06,38.06,0,0,1,1.28,12.07,28.13,28.13,0,0,1-1.09,6.08,18.71,18.71,0,0,1-2.84,5.64,14.38,14.38,0,0,1-4.85,4.15,21.2,21.2,0,0,1-5.84,2c-2,.42-3.93.68-5.85.94s-3.8.56-5.69.91A91.3,91.3,0,0,0,642,486.49a104.48,104.48,0,0,0-10.72,4.21c-7,3.19-13.75,7.06-20.63,10.71A134,134,0,0,1,589.26,511a48.77,48.77,0,0,1-11.53,2.33,37.8,37.8,0,0,1-11.71-1,38.89,38.89,0,0,1-5.58-1.87c-1.8-.8-3.52-1.72-5.22-2.68A84.6,84.6,0,0,0,545,502.3a21.52,21.52,0,0,0-5.56-1.51,23.26,23.26,0,0,0-2.89-.2c-1,.07-1.93.07-2.89.22a26.19,26.19,0,0,1-5.8.51,6.32,6.32,0,0,1-5-2.64,6.27,6.27,0,0,0,5,2.54,26.65,26.65,0,0,0,5.76-.61c1-.17,1.94-.19,2.92-.28a21.89,21.89,0,0,1,2.92.15,21.44,21.44,0,0,1,5.68,1.43,85.32,85.32,0,0,1,10.37,5.35,55.38,55.38,0,0,0,5.19,2.55,36.47,36.47,0,0,0,5.49,1.74,36.91,36.91,0,0,0,11.43.73,48,48,0,0,0,11.22-2.47A133.28,133.28,0,0,0,609.81,500c6.77-3.76,13.46-7.77,20.54-11.14a107.57,107.57,0,0,1,10.87-4.5,97.11,97.11,0,0,1,11.37-3.14c1.93-.39,3.87-.74,5.8-1s3.82-.58,5.63-1c3.66-.81,6.92-2.41,9-5.3a15.51,15.51,0,0,0,2.28-4.76,24.26,24.26,0,0,0,.86-5.38,34.6,34.6,0,0,0-1.36-11v0a1.67,1.67,0,0,1,3.21-.93Z" transform="translate(28.02 -77.48)"/><path class="cls-4" d="M686.33,493.44a32.91,32.91,0,0,1-1.89,10.21,67.1,67.1,0,0,1-4,9.3c-3,6-6.58,11.58-9.11,17.5a31.46,31.46,0,0,0-1.54,4.5,19.23,19.23,0,0,0-.6,4.61,22.67,22.67,0,0,0,1.69,9.2,33.27,33.27,0,0,0,5,8.15c2,2.54,4.31,4.92,6.56,7.35a92.38,92.38,0,0,1,12.18,15.82,51,51,0,0,1,6.48,18.84,75.34,75.34,0,0,1,.68,9.94,82.27,82.27,0,0,1-.53,9.93c-.33,3.29-.72,6.57-.82,9.87a45.21,45.21,0,0,0,.15,4.94,33.74,33.74,0,0,0,.88,4.88,32.46,32.46,0,0,1-1-4.86,43.37,43.37,0,0,1-.26-5c0-3.32.33-6.62.59-9.91a81.47,81.47,0,0,0,.29-9.88,75,75,0,0,0-.89-9.81,49.93,49.93,0,0,0-6.76-18.28,91.46,91.46,0,0,0-12.33-15.26c-2.29-2.37-4.65-4.72-6.82-7.3a35.48,35.48,0,0,1-5.53-8.56,25.17,25.17,0,0,1-2.1-10.12,20.92,20.92,0,0,1,.58-5.21,35,35,0,0,1,1.59-4.9c2.58-6.29,6.06-11.94,8.91-17.82a65.6,65.6,0,0,0,3.7-8.94,29.67,29.67,0,0,0,1.57-9.23v0a1.67,1.67,0,0,1,3.34,0Z" transform="translate(28.02 -77.48)"/><path class="cls-4" d="M684,466.36a185.58,185.58,0,0,1,20.75,14.18c6.62,5.07,13.08,10.32,19.53,15.54,3.23,2.61,6.45,5.22,9.72,7.77,1.63,1.26,3.27,2.51,4.94,3.7.84.59,1.68,1.17,2.53,1.7a12.58,12.58,0,0,0,2.51,1.3l.27.09.35.05c.23,0,.46.07.7.08.48,0,1,0,1.44,0a23,23,0,0,0,2.95-.34,53.51,53.51,0,0,0,5.91-1.53c4-1.2,7.9-2.67,12.15-3.3a15.59,15.59,0,0,1,6.51.25,8.43,8.43,0,0,1,3,1.46,12.4,12.4,0,0,1,2.41,2.27c2.69,3.46,4.07,7.49,5.5,11.38a87.31,87.31,0,0,0,4.58,11.49,20.27,20.27,0,0,0,8.45,8.53,29.3,29.3,0,0,0,5.65,2.39c1,.29,2,.57,3,.77s2,.33,3.05.43c2.06.21,4.14.33,6.21.63a16.39,16.39,0,0,1,6,1.86,14.27,14.27,0,0,1,4.46,4.39c1.17,1.73,2.07,3.62,3.16,5.38a12.44,12.44,0,0,0,4.22,4.43,13.33,13.33,0,0,0,5.94,1.59,13.16,13.16,0,0,1-6-1.5A12.58,12.58,0,0,1,829.5,557c-1.13-1.76-2-3.62-3.24-5.31a13.84,13.84,0,0,0-4.41-4.21,15.82,15.82,0,0,0-5.86-1.71c-2-.26-4.12-.34-6.2-.51-1-.09-2.08-.21-3.12-.39s-2-.46-3.06-.74a29.52,29.52,0,0,1-5.84-2.36,23.68,23.68,0,0,1-5.14-3.69c-.38-.37-.76-.74-1.11-1.14l-1-1.24a25.31,25.31,0,0,1-1.7-2.69A87.77,87.77,0,0,1,784,521.43c-1.48-3.84-3-7.78-5.46-10.88a10.67,10.67,0,0,0-2.14-1.95,7.05,7.05,0,0,0-2.57-1.2,14.15,14.15,0,0,0-5.84-.11c-4,.65-7.86,2.15-11.83,3.44a56.55,56.55,0,0,1-6.11,1.69,15.77,15.77,0,0,1-6.65.13,13.72,13.72,0,0,1-3-1.47c-.92-.55-1.8-1.14-2.67-1.73-1.73-1.19-3.42-2.43-5.09-3.68-3.33-2.51-6.61-5.07-9.88-7.63-6.54-5.12-13.07-10.25-19.73-15.17a182,182,0,0,0-20.59-13.58h0a1.67,1.67,0,1,1,1.6-2.94Z" transform="translate(28.02 -77.48)"/><path class="cls-4" d="M669.89,546c.82,4.12,2.8,8,4.88,11.87s4.36,7.65,6.31,11.66a52.12,52.12,0,0,1,4.42,12.66,38.68,38.68,0,0,1,.31,13.4,49,49,0,0,1-3.81,12.8c-1.77,4.1-4.13,7.84-6,11.79a61.4,61.4,0,0,0-4.67,12.28c-1,4.22-1.38,8.81.26,13-1.77-4.09-1.55-8.75-.65-13a61.72,61.72,0,0,1,4.33-12.53c1.79-4.06,4-7.88,5.71-11.9a47.56,47.56,0,0,0,3.48-12.54,40,40,0,0,0,.31-6.47,40.72,40.72,0,0,0-.83-6.42,51,51,0,0,0-4.5-12.15c-2-3.89-4.28-7.62-6.48-11.47s-4.33-7.87-5.34-12.42a1.17,1.17,0,1,1,2.28-.5v0Z" transform="translate(28.02 -77.48)"/><path class="cls-4" d="M679.22,514a15.63,15.63,0,0,1-3.23,5.4,42.48,42.48,0,0,1-4.13,4.14,109,109,0,0,1-9,7c-6.14,4.42-12.53,8.43-18.63,12.71-1.51,1.07-3,2.17-4.37,3.33a12.21,12.21,0,0,0-1.72,1.75l-.12.2-.16.29-.33.58c-.22.38-.4.79-.59,1.19A31.75,31.75,0,0,0,634.22,561c-.71,7.29.27,14.76,1.1,22.21.42,3.74.83,7.5.94,11.31s0,7.57-.24,11.35A66.36,66.36,0,0,1,631,628a51.37,51.37,0,0,1-2.58,5.07c-1,1.63-2,3.21-3.1,4.74-2.19,3.08-4.56,6-6.68,9.08a35.07,35.07,0,0,0-5.06,10,28.23,28.23,0,0,0-.93,11.13,28.22,28.22,0,0,1,.69-11.2,35.58,35.58,0,0,1,4.87-10.17c2.07-3.16,4.38-6.13,6.48-9.23,1-1.55,2-3.13,3-4.75a52.7,52.7,0,0,0,2.41-5,65.29,65.29,0,0,0,4.42-21.77c.18-3.73.15-7.47,0-11.19s-.68-7.41-1.19-11.13c-1-7.42-2.18-15-1.61-22.69a34.72,34.72,0,0,1,2.69-11.35c.21-.45.4-.91.64-1.34l.34-.66.18-.33.25-.4a13.81,13.81,0,0,1,2.18-2.3c1.48-1.3,3-2.43,4.55-3.55,6.17-4.4,12.48-8.44,18.51-12.85a110.91,110.91,0,0,0,8.67-6.92,38.29,38.29,0,0,0,3.79-3.86A12.46,12.46,0,0,0,676,513l0,0a1.67,1.67,0,0,1,3.2.95Z" transform="translate(28.02 -77.48)"/><path class="cls-4" d="M676.8,452c.87,5.33,2.31,10.62,3.34,16.14a51.51,51.51,0,0,1,.87,8.46,28.6,28.6,0,0,1-2.73,12.64c-.31.65-.68,1.27-1,1.91l-.52.94c-.19.31-.41.59-.61.89l-1.22,1.77c-.43.57-.9,1.1-1.34,1.66s-.93,1.08-1.42,1.59-.95,1.06-1.48,1.53A51.47,51.47,0,0,1,656.71,509c-10.16,4.8-21.07,7.15-31.67,9.91a163.57,163.57,0,0,0-15.71,4.73A62.15,62.15,0,0,0,594.88,531a59.62,59.62,0,0,0-6.25,5.2,80.77,80.77,0,0,0-5.56,6c-3.51,4.19-6.67,8.68-9.84,13.18a134.27,134.27,0,0,1-10.12,13.11,38.92,38.92,0,0,1-13.27,9.93,32.62,32.62,0,0,1-8,2.27,41.24,41.24,0,0,1-8.31.25c-5.51-.36-11-1.31-16.43-1.5a22.17,22.17,0,0,0-8.07,1,12.39,12.39,0,0,0-3.54,2,13.08,13.08,0,0,0-2.68,3.06,24.63,24.63,0,0,0-3.07,7.59,62.15,62.15,0,0,0-1.37,8.13,60.57,60.57,0,0,1,1.27-8.15,24.9,24.9,0,0,1,3-7.68,13.34,13.34,0,0,1,2.7-3.15,12.2,12.2,0,0,1,3.59-2.09,22.34,22.34,0,0,1,8.19-1.15c5.53.13,11,1,16.46,1.3a41.19,41.19,0,0,0,8.16-.35,31.91,31.91,0,0,0,7.79-2.31,37.9,37.9,0,0,0,12.83-9.87,129.71,129.71,0,0,0,9.87-13.13c3.11-4.54,6.24-9.1,9.74-13.4,1.76-2.14,3.63-4.21,5.6-6.17a61.23,61.23,0,0,1,6.36-5.44,64.16,64.16,0,0,1,14.77-7.77,163,163,0,0,1,15.83-5c10.62-2.91,21.39-5.39,31.12-10.16a48.88,48.88,0,0,0,13.14-9.15c.49-.45.91-1,1.37-1.45a18.78,18.78,0,0,0,1.3-1.51c.41-.52.84-1,1.23-1.56l1.11-1.64c.18-.28.37-.54.54-.82l.47-.87c.3-.58.64-1.14.91-1.73a27.23,27.23,0,0,0,1.34-3.66c1.49-5,1-10.38,0-15.65s-2.58-10.62-3.56-16.15a1.67,1.67,0,1,1,3.29-.58h0Z" transform="translate(28.02 -77.48)"/><path class="cls-4" d="M558.52,532.57a21,21,0,0,0,8.32-2.64,24.94,24.94,0,0,0,6.51-5.78c1-1.1,1.72-2.37,2.8-3.44a32,32,0,0,1,3.4-2.88c2.37-1.78,4.84-3.39,7.34-5,10-6.2,20.5-11.62,30.8-17.29a159.08,159.08,0,0,1,16.12-7.39c2.74-1.11,5.38-2.27,8.19-3.37a74.91,74.91,0,0,1,8.55-2.67c2.89-.74,5.82-1.3,8.75-1.78,1.47-.25,2.93-.43,4.26-.73a14.65,14.65,0,0,0,3.74-1.41c4.7-2.58,7.77-7.79,8.63-13.1v0a1.67,1.67,0,1,1,3.3.54v0a23.18,23.18,0,0,1-3.55,8.73,19,19,0,0,1-7,6.39,16.63,16.63,0,0,1-4.53,1.59c-1.54.31-3,.46-4.44.66-2.89.41-5.75.9-8.58,1.54a75.42,75.42,0,0,0-8.33,2.4c-2.7,1-5.47,2.13-8.21,3.16a156.47,156.47,0,0,0-16.1,6.94c-10.44,5.43-21,10.6-31.13,16.54-2.52,1.49-5,3-7.4,4.74a32,32,0,0,0-3.39,2.74c-1,1-1.84,2.24-2.85,3.33a25.25,25.25,0,0,1-6.76,5.68A21.1,21.1,0,0,1,558.52,532.57Z" transform="translate(28.02 -77.48)"/><path class="cls-4" d="M548.53,647.38a60.77,60.77,0,0,0,3.82-18.48c.49-6.3.55-12.64,1.46-18.93a55.18,55.18,0,0,1,2.09-9.29l.86-2.23.43-1.11c.16-.37.36-.71.53-1.07l1.09-2.14c.37-.7.85-1.34,1.27-2a26,26,0,0,1,6.46-7c2.54-2,5.48-3.3,8-5.16a16.69,16.69,0,0,0,3.29-3.21,16.39,16.39,0,0,0,1.26-1.93,16,16,0,0,0,1-2.07c1.22-2.83,1.93-5.94,2.89-9a155.68,155.68,0,0,1,6.56-17.88,89.8,89.8,0,0,1,4.4-8.49,50,50,0,0,1,5.75-7.73l1.74-1.71c.61-.54,1.27-1,1.9-1.54,1.28-1,2.57-1.87,3.92-2.76a31.53,31.53,0,0,1,4.26-2.35c.73-.34,1.47-.66,2.2-1l1.11-.45a7.71,7.71,0,0,1,1.38-.37.91.91,0,0,1,1.08.69.9.9,0,0,1-.63,1.06l-.25.08a5.86,5.86,0,0,0-.91.24l-1.09.43c-.73.29-1.45.59-2.15.91a30,30,0,0,0-4.07,2.18c-1.29.83-2.63,1.73-3.87,2.65-.59.48-1.21.92-1.79,1.42l-1.67,1.6a46.88,46.88,0,0,0-5.63,7.4,84.35,84.35,0,0,0-4.43,8.29,155,155,0,0,0-6.71,17.64,95.33,95.33,0,0,1-3,9,17.74,17.74,0,0,1-6,7.53c-2.62,1.91-5.53,3.17-8,5.06a25.21,25.21,0,0,0-6.36,6.78c-.42.66-.91,1.29-1.28,2l-1.09,2.08c-.18.35-.38.69-.53,1.05l-.44,1.09-.88,2.19a54.12,54.12,0,0,0-2.17,9.17c-1,6.23-1.12,12.57-1.69,18.88A60.75,60.75,0,0,1,548.53,647.38Z" transform="translate(28.02 -77.48)"/><path class="cls-4" d="M678.68,450.25a107.32,107.32,0,0,1,3.93,13.05c1,4.41,1.82,8.84,2.57,13.26l2.11,13.25c.73,4.39,1.52,8.76,2.67,13A47.32,47.32,0,0,0,692,509a31.68,31.68,0,0,0,3.11,5.67c2.43,3.64,5.39,7,8.15,10.55a44.78,44.78,0,0,1,7,11.75c1.7,4.32,2.06,9,2.35,13.41.13,2.24.27,4.45.51,6.64a27.93,27.93,0,0,0,1.51,6.31,16.28,16.28,0,0,0,3.58,5.25l1.25,1c.21.16.41.35.63.5l.69.42,1.39.84c.48.26,1,.45,1.49.68,4,1.88,8.44,2.37,12.81,3.46a24.14,24.14,0,0,1,6.39,2.36,12.36,12.36,0,0,1,4.86,4.84,25.32,25.32,0,0,1,2.24,6.41c.5,2.19.9,4.39,1.45,6.54a21.43,21.43,0,0,0,2.42,6.13A10.62,10.62,0,0,0,758.7,606c1,.41,2.11.71,3.14,1.21a5.08,5.08,0,0,1,2.47,2.33,16.71,16.71,0,0,1,1.13,6.62,25.36,25.36,0,0,0,.66,6.63,7.77,7.77,0,0,0,3.93,5.15,7.85,7.85,0,0,1-4-5.12,25.25,25.25,0,0,1-.76-6.65,16.39,16.39,0,0,0-1.21-6.49,4.76,4.76,0,0,0-2.35-2.14c-1-.46-2.07-.75-3.13-1.16a7.52,7.52,0,0,1-1.53-.76,10.53,10.53,0,0,1-2.62-2.17,8.39,8.39,0,0,1-1-1.36,21.85,21.85,0,0,1-2.58-6.25c-.59-2.17-1-4.37-1.56-6.53a24.24,24.24,0,0,0-2.26-6.17,11.44,11.44,0,0,0-4.59-4.43,23.44,23.44,0,0,0-6.17-2.17c-2.16-.49-4.36-.86-6.57-1.33a29.64,29.64,0,0,1-6.51-2c-.52-.24-1.06-.43-1.57-.7l-1.49-.87-.75-.43c-.23-.16-.45-.36-.69-.53l-1.36-1.08a17.76,17.76,0,0,1-4-5.69,29.08,29.08,0,0,1-1.71-6.67c-.29-2.25-.46-4.5-.63-6.72-.35-4.43-.78-8.84-2.44-12.86a42.61,42.61,0,0,0-6.83-11.13c-2.76-3.46-5.8-6.78-8.4-10.54a33.82,33.82,0,0,1-3.42-6,49.89,49.89,0,0,1-2.28-6.48,133.41,133.41,0,0,1-2.93-13.21l-2.32-13.21c-.81-4.37-1.67-8.73-2.73-13a104.7,104.7,0,0,0-4-12.55v0a1.67,1.67,0,1,1,3.1-1.23Z" transform="translate(28.02 -77.48)"/><path class="cls-4" d="M681.68,465.89a62.54,62.54,0,0,1,3,23.75,45.87,45.87,0,0,1-2.59,11.8,46.78,46.78,0,0,1-5.59,10.67,71.85,71.85,0,0,1-17,16.64c-6.38,4.67-13.2,8.61-19.89,12.63-3.34,2-6.67,4.06-9.77,6.36a72.79,72.79,0,0,0-8.61,7.78c-5.37,5.64-10.18,11.82-15,18s-9.67,12.34-15.07,18a79.46,79.46,0,0,1-8.65,8,41.44,41.44,0,0,1-10.13,5.89,40.82,40.82,0,0,0,10-6.07,77.8,77.8,0,0,0,8.46-8.08c5.28-5.77,10-12,14.69-18.28s9.43-12.52,14.75-18.33A73.76,73.76,0,0,1,629,546.5c3.15-2.42,6.48-4.53,9.8-6.62,6.65-4.14,13.34-8.17,19.52-12.86a69.8,69.8,0,0,0,16.16-16.34,45,45,0,0,0,5.1-10.16,42.58,42.58,0,0,0,2.24-11.11,59.5,59.5,0,0,0-3.27-22.5h0a1.67,1.67,0,1,1,3.17-1Z" transform="translate(28.02 -77.48)"/><path class="cls-9" d="M729.35,266.18a16.3,16.3,0,0,1,16-2,32.77,32.77,0,0,1-1.75,4.2,9.7,9.7,0,0,1-1.48,2.06c-.29.32-.59.62-.9.91a4.35,4.35,0,0,1-.74.62c-.35.21-.57.07-.92,0s-.4-.05-.6-.12a5.29,5.29,0,0,1-1.17-.63c-1.3-.88-2.64-1.51-4-2.27C733.35,268.66,729.48,266.08,729.35,266.18Z" transform="translate(28.02 -77.48)"/><path class="cls-9" d="M632.59,372.18a31.81,31.81,0,0,0-.65,13.25,14.85,14.85,0,0,1,3.09-3.66c2.77,2.22,3.13,6.18,4.7,9.34a1.26,1.26,0,0,0,.55.65c.66.3,1.26-.51,1.5-1.19a27,27,0,0,0,1.45-12.06A9.32,9.32,0,0,0,646,379a14.88,14.88,0,0,0-7.75-11.34,3.4,3.4,0,0,0-1.79-.51,3.05,3.05,0,0,0-1.4.59C633.17,369,632.15,371.36,632.59,372.18Z" transform="translate(28.02 -77.48)"/><path class="cls-9" d="M650,363.49a17.23,17.23,0,0,0,1.44,15.19l2.33-3.28a13.77,13.77,0,0,0,4.27,2.52l4.53,2-1.9-10.51c1,0,2.06,0,3,.12a10,10,0,0,0-7.41-8.6,6.18,6.18,0,0,0-4.5.41C650.39,362.09,649.53,363.75,650,363.49Z" transform="translate(28.02 -77.48)"/><path class="cls-9" d="M623.59,372.78c-7.53-3.77-17.85-.58-21.84,6.75l8.57-2.41a19.49,19.49,0,0,0,1.44,29.44,49.06,49.06,0,0,1,4.48,3.47,6.2,6.2,0,0,1,2.1,5c.49-4.2-1.08-8.76.89-12.51.6-1.14,1.48-2.1,2.16-3.19,2.42-3.94,1.78-8.93,1.07-13.48l3.56,6.88c-1.14-6.72,3.61-13.64,1.59-20.16C626.18,372.68,624.75,372.7,623.59,372.78Z" transform="translate(28.02 -77.48)"/><path class="cls-9" d="M635.72,324.64a12.2,12.2,0,0,1-9.56-1.6,9.5,9.5,0,0,1,4.11-2.2,4.08,4.08,0,0,1-2.69-2.6c-.49-1.2-.66-2.5-1.06-3.72a10.26,10.26,0,0,0-4.56-5.6c1.93.77,4.11.1,6.19.09,4.76,0,8.85,3.47,11.44,7.4l.28-4.43a6.1,6.1,0,0,1,5.44,5.17,7.46,7.46,0,0,1-3.29,7C639.78,325.65,636.84,326,635.72,324.64Z" transform="translate(28.02 -77.48)"/><path class="cls-9" d="M650.89,325.06a15.1,15.1,0,0,0,1.33,12.12c.63-.85,1.25-1.71,1.87-2.42a47.27,47.27,0,0,0,5.22,8.06c1.42,1.76,3.15,3.53,5.43,3.82a26.24,26.24,0,0,0-.38-11.12,19.15,19.15,0,0,1,2.5,4.16,23.87,23.87,0,0,0,1.66-5.5,7.94,7.94,0,0,0-1.12-5.52c-1.29-1.84-3.49-2.8-5.58-3.67a17.35,17.35,0,0,0-3.56-1.2,18,18,0,0,0-4.15-.14,6.94,6.94,0,0,0-2.64.47C650.66,324.5,650,325.3,650.89,325.06Z" transform="translate(28.02 -77.48)"/><path class="cls-9" d="M627.35,328.48a23.68,23.68,0,0,0-15.6,1.89c-1.38.68-2.87,1.86-2.66,3.37a14.54,14.54,0,0,1,5.58.1c-.91.93-.87,2.39-1.31,3.6a7.68,7.68,0,0,1-3.66,3.76,38.23,38.23,0,0,0-4.66,2.67,9.54,9.54,0,0,0-3.56,8.76,4.76,4.76,0,0,1,4.24-2.74,16.8,16.8,0,0,1,5.28.8,10.87,10.87,0,0,0,5.3.33c2-.53,3.58-2,5-3.55,2.26-2.38,4.55-5.09,4.83-8.38a6.24,6.24,0,0,1,3,4,10.36,10.36,0,0,0,2.92-8.56C631.74,331.72,629.53,329,627.35,328.48Z" transform="translate(28.02 -77.48)"/><path class="cls-9" d="M674.36,260.89c7,23.11,7.18,47.67,5.58,71.72s-4.93,48-4.89,72.14c0,17.77,1.88,35.9-2.89,53.05-.39,1.4-.8,3-.06,4.23s2.14,1.65,3.47,2c4.49,1.28,10.56,1.94,12.68-2.15a9.82,9.82,0,0,0,.77-4.34c.65-33.55-4.12-67-3.66-100.56.12-8.63.59-17.25.87-25.88.6-18.64.32-37.32-.83-55.94-.55-8.72-1.91-18.58-9.14-23.67C673.43,254.91,672.72,259.88,674.36,260.89Z" transform="translate(28.02 -77.48)"/><path class="cls-9" d="M683,374.39c.42-5.08,5-8.79,9.34-11.53a100,100,0,0,1,53.13-15c10.72.07,22.7,2.66,28.5,11.52,1.11,1.68,1.55,4.55-.39,5.16-1.18.37-2.36-.46-3.33-1.21-12.25-9.42-29-12.35-44.21-9.09s-28.76,12.34-38.69,24.11a8.77,8.77,0,0,1-3.73,3.09c-1.57.5-3.69-.34-3.8-2a4,4,0,0,1,.5-1.87C681.31,375.46,682.3,373.31,683,374.39Z" transform="translate(28.02 -77.48)"/><path class="cls-9" d="M683.12,330.57c4-6.15,10.49-10.21,17-13.58a150,150,0,0,1,26.12-10.43c7.13-2.09,14.68-3.66,22-2.17s14.19,6.73,15.52,13.92c-4.58-.73-7.85-4.62-11.88-6.88-6.16-3.44-13.82-2.86-20.75-1.37a90.84,90.84,0,0,0-48.28,28C681,335.71,681.69,332.8,683.12,330.57Z" transform="translate(28.02 -77.48)"/><path class="cls-9" d="M741.4,349.05c-.56-3.13,1.12-6.33,3.53-8.46s5.45-3.39,8.44-4.61a14.46,14.46,0,0,1-.11,10.2c4.31-2.59,10-2.08,14.46.34s7.68,6.47,10.22,10.77,4.63,9.34,4.81,14.39a37.34,37.34,0,0,1-13.24,5.89,21,21,0,0,1-8.61.4c-4.57-.88-8.48-3.93-11.28-7.58a45.82,45.82,0,0,1-6.33-12.48,21.9,21.9,0,0,0-.95,9.9,9.53,9.53,0,0,1-7.18-8.05C734.77,356,737,352.06,741.4,349.05Z" transform="translate(28.02 -77.48)"/><path class="cls-9" d="M718.19,354.22a25.54,25.54,0,0,0-5.64,19.31L717,369.6c2.68,7,6.26,15,13.46,17.21l1.33-14.62a9.35,9.35,0,0,1,4.06,6.13,15.43,15.43,0,0,0,.57-12.79,24.86,24.86,0,0,0-8-10.37c-2-1.63-4.45-3.09-7.09-3.11S715.89,354,718.19,354.22Z" transform="translate(28.02 -77.48)"/><path class="cls-9" d="M701.5,357.76a11.27,11.27,0,0,1-7.44-12.66,1.43,1.43,0,0,1,.5-.94,1.5,1.5,0,0,1,1.45.16,18,18,0,0,1,4.36,3.39,17.8,17.8,0,0,1,3.06-15.92,18.15,18.15,0,0,1,5.79,13.37,9.69,9.69,0,0,1,3.19-7.85C714.94,343.74,713.47,351.53,701.5,357.76Z" transform="translate(28.02 -77.48)"/><path class="cls-9" d="M712.55,337.67a24.75,24.75,0,0,1,.14,13,8.23,8.23,0,0,1-4.81,6.32,10.34,10.34,0,0,1-4.68,1.42,4.7,4.7,0,0,1-4.18-2.13" transform="translate(28.02 -77.48)"/><path class="cls-9" d="M682.71,313c0-4.76,2.87-9,5.77-12.82a151.85,151.85,0,0,1,21.32-22.73c6.63-5.75,14.29-11.14,23.1-11.83.86,1.84-1,3.74-2.6,5-14.47,10.87-29.14,22.07-39.29,36.93-2.14,3.14-4.09,6.45-6.73,9.2-.42.42-1,.87-1.54.71a1.56,1.56,0,0,1-.89-1.3C681.55,314.76,681.55,313.36,682.71,313Z" transform="translate(28.02 -77.48)"/><path class="cls-9" d="M683,281.4c7.71-6.81,12.51-16.21,16.36-25.67s7-19.29,12.14-28.12c.45-.75,1-1.58,1.92-1.62,1.65-.07,1.89,2.31,1.5,3.88a142.71,142.71,0,0,1-27.12,54.45c-1.29,1.61-3.64,3.31-5.19,1.93S681.9,282.36,683,281.4Z" transform="translate(28.02 -77.48)"/><path class="cls-9" d="M682.89,301.33c-12.29-15.81-34.2-23.74-54-19.53-4.65,1-9.43,2.78-12.32,6.5a4.16,4.16,0,0,0-1.11,2.95,1.94,1.94,0,0,0,2.28,1.72c4.63-4.49,11.59-5.5,18-6.27,6-.73,12.26-1.44,18.13.11,7.55,2,13.57,7.45,19.26,12.72l10.74,10C686.42,306.87,685.44,302,682.89,301.33Z" transform="translate(28.02 -77.48)"/><path class="cls-9" d="M683.41,342c-1.61-6.39-6.23-11.82-11.93-15.28s-12.41-5.07-19.09-5.53c-7-.47-14.27.33-20.58,3.4s-11.58,8.59-13.24,15.31c3.3-.31,5.9-2.77,8.51-4.79,8.26-6.38,19.37-9.31,29.65-7.15s19.4,9.59,22.86,19.34c.58,1.65,2.3,3.76,3.58,2.56a2.46,2.46,0,0,0,.56-1.7A22.79,22.79,0,0,0,683.41,342Z" transform="translate(28.02 -77.48)"/><path class="cls-9" d="M681.07,371.74a28.87,28.87,0,0,0-27.16-15.57c-8,.52-15.3,4.32-22,8.6-10.91,7-21.51,16.6-23.37,29.26a3.46,3.46,0,0,0,.21,2.25c.66,1.13,2.38,1.23,3.52.58a8.07,8.07,0,0,0,2.55-2.94,74.62,74.62,0,0,1,23.63-23.48c5-3.09,10.45-5.64,16.3-6.19s12.14,1.14,16.08,5.43c2.74,3,4.12,6.93,5.89,10.57.74,1.53,2.17,3.28,3.8,2.72,1.13-.39,1.58-1.72,1.7-2.9A17.4,17.4,0,0,0,681.07,371.74Z" transform="translate(28.02 -77.48)"/><path class="cls-9" d="M719.28,351.82a15.72,15.72,0,0,1-1.5-16.34,24.41,24.41,0,0,1,2.7,5.13,19.47,19.47,0,0,1,10-12.57,17,17,0,0,1,1.77,13.18,48.09,48.09,0,0,0,4-5.35c1.5,5,0,11-4.42,13.8a20.09,20.09,0,0,1-4.64,1.92l-3,.94C722.36,353.12,720.39,353.27,719.28,351.82Z" transform="translate(28.02 -77.48)"/><path class="cls-9" d="M703.19,245.71A12.34,12.34,0,0,1,701,232.8a11.57,11.57,0,0,1,3,4.9c.81-3.14,1.67-6.36,3.64-9,2.19-2.89,5.52-4.7,8.53-6.42a17.06,17.06,0,0,1-.74,18.23l5.64-4.4c1.26,2.6-.32,5.66-2.21,7.87a28.8,28.8,0,0,1-14.8,9.13C702.17,249.3,701.05,245.1,703.19,245.71Z" transform="translate(28.02 -77.48)"/><path class="cls-9" d="M697.23,262.87a10.58,10.58,0,0,1-10.05-6.27,8,8,0,0,1,4,0,13.26,13.26,0,0,1-1.7-15.69,2.54,2.54,0,0,0,1.46,2.11c.79.45,1.69.68,2.48,1.12,2.81,1.55,3.51,5.14,3.92,8.29,0-1.74,0-3.49,0-5.24a9.47,9.47,0,0,1,4.16,8.3C701.33,258.7,699.59,262.75,697.23,262.87Z" transform="translate(28.02 -77.48)"/><path class="cls-9" d="M672,260a11.34,11.34,0,0,1,6.41,4.1c.31.4.67,1.39,1.06,1.65s1-.06,1.49-.31a3.79,3.79,0,0,0,1.9-2.76,6.84,6.84,0,0,0-.09-1.75c-.85-6.26-2.23-12.61-5.61-18.06-.45-.73-.93-1.44-1.45-2.13a23.62,23.62,0,0,0-1.41-2c-.76-.8-1.53-1.58-2.32-2.33-.16.54-.16,1.28-.3,1.88s-.32,1.3-.48,2c-.2.84-.25,1.74-.44,2.57a25.38,25.38,0,0,0-1.9-4.83c-2.94-4.93-9.65-5.75-14.88-6.52a6.23,6.23,0,0,0-3.56.24c3.17,2,5,5.41,6.32,8.75a62,62,0,0,0,3.05,7.05,16,16,0,0,0,2.28,3.26c.52.57,2,2.23,2.91,2.17-.76.06-1.52.07-2.28.1a17.15,17.15,0,0,0-3,.21s.59.93.76,1.12a11.75,11.75,0,0,0,4.78,3.13A46.77,46.77,0,0,0,672,260Z" transform="translate(28.02 -77.48)"/><path class="cls-9" d="M662.79,286.61a18.39,18.39,0,0,1-1.48-13.86,9.89,9.89,0,0,1,3.52,5.23,44,44,0,0,0,4.85-10.51,18.38,18.38,0,0,1,3.86,15.75,11,11,0,0,0,2.83-3.47,9,9,0,0,1-3,11.76,3.44,3.44,0,0,1-2,.61,4.16,4.16,0,0,1-1.2-.31l-2.36-.89a11.82,11.82,0,0,1-3.37-1.68A4.37,4.37,0,0,1,662.79,286.61Z" transform="translate(28.02 -77.48)"/><path class="cls-9" d="M665.27,292A21.07,21.07,0,0,0,655,305.75l4.06-2.08a36.78,36.78,0,0,1,2.8,10.69,1,1,0,0,0,.34.82.86.86,0,0,0,.63.08c1.51-.22,2.6-1.51,3.45-2.77a31.64,31.64,0,0,0,4-8.36,12.44,12.44,0,0,1,2.27,2.94,24.56,24.56,0,0,0-.86-11.91,5,5,0,0,0-2.17-3.13C667.68,291.13,665.59,292.23,665.27,292Z" transform="translate(28.02 -77.48)"/><path class="cls-9" d="M648.09,281.82a9.7,9.7,0,0,1-4.76-9.66l4.59,3.75a16.39,16.39,0,0,0-.83-9.59,15.18,15.18,0,0,1,7.4,11.53c.86-1.29,1.65-2.61,2.39-4a19.6,19.6,0,0,1,2.38,5.15c.46,1.59.64,3.51-.55,4.67a4.38,4.38,0,0,1-2.49,1C653,285.19,649.54,284.22,648.09,281.82Z" transform="translate(28.02 -77.48)"/><path class="cls-9" d="M635,276.93c-5-2.75-11.27-2.46-16.58-.38a37.94,37.94,0,0,0-13.6,9.89c2.55,0,4.43,2.19,6.36,3.84a17.23,17.23,0,0,0,13.38,3.91,17.06,17.06,0,0,0,11.78-7.38l-2.93,7.75A26.76,26.76,0,0,0,648.86,285a2,2,0,0,1-.08-.78c-.45-1.3-1.91-1.91-3-2.75a13.92,13.92,0,0,1-3.61-4.94l-4-7.65A27.64,27.64,0,0,0,635,276.93Z" transform="translate(28.02 -77.48)"/><path class="cls-9" d="M656.11,286.49a31.58,31.58,0,0,0-14.55,7.66,4.67,4.67,0,0,0-1.7,2.64,9.71,9.71,0,0,0,6.72-.8c-.38,3.82-5.72,5.6-6.33,9.38a8.26,8.26,0,0,0,7-1.51,24,24,0,0,0,5-5.36l-.3,3.71c0,.37,0,.84.39.92a.82.82,0,0,0,.65-.33A22.67,22.67,0,0,0,659,290a3.75,3.75,0,0,0-.34-2.5A2.64,2.64,0,0,0,656.11,286.49Z" transform="translate(28.02 -77.48)"/><path class="cls-9" d="M706.12,318.18a41.76,41.76,0,0,0-1.9,8.76l2.49-1.88a16.07,16.07,0,0,0,4.49,10.58.88.88,0,0,0,.38.28c.46.13.79-.43.93-.89a36.82,36.82,0,0,0,1.48-9.45,25.48,25.48,0,0,1,3,2.82,16.37,16.37,0,0,0-3.76-10.85,5.77,5.77,0,0,0-3.66-2.36C707.48,315,705.48,317.17,706.12,318.18Z" transform="translate(28.02 -77.48)"/><path class="cls-9" d="M717.54,312.73a12.34,12.34,0,0,0,.65,9.79l2.07-3.43a12.57,12.57,0,0,0,11.6,6.73q-1.41-3.44-3-6.82a4.63,4.63,0,0,1,3,1.33,8.25,8.25,0,0,0-1.21-3.57,12.51,12.51,0,0,0-5.48-5.66c-2.45-1.11-5.68-.85-7.45,1.15C717.22,312.87,716.83,313.77,717.54,312.73Z" transform="translate(28.02 -77.48)"/><path class="cls-9" d="M722.3,307.67a3.09,3.09,0,0,1-.11-3.1,18.94,18.94,0,0,1,1.83-2.71,11.81,11.81,0,0,0,2.05-5.72l1.1,4,1.61-4.37a19.82,19.82,0,0,1,2.83-5.67,6.81,6.81,0,0,1,5.53-2.76,13.31,13.31,0,0,0-.64,4.06c0,2.73.69,5.82-1.06,7.95a6.82,6.82,0,0,0,2.49-3.2c1.79,3.65.73,8.77-3,10.55a13.12,13.12,0,0,1-3,.88l-6.9,1.45a4.14,4.14,0,0,1-2.18.06C722.19,308.87,721.63,308.09,722.3,307.67Z" transform="translate(28.02 -77.48)"/><path class="cls-9" d="M742.32,305.26a19.65,19.65,0,0,1,14-8.65,7.52,7.52,0,0,1-3.53,5.2c4.47-.72,9.57-.76,12.9,2.26a35.85,35.85,0,0,1,3.54,4.49,16.17,16.17,0,0,0,6.32,4.73c-3.7,2-6.79,5.8-11,5.58a12.36,12.36,0,0,1-5.31-2c-2.72-1.56-5.45-3.12-7.94-4.87a7.47,7.47,0,0,0,2.37,5.95c-1.15.74-2.67.19-3.86-.45a28,28,0,0,1-5.66-4,10,10,0,0,1-2.93-4.06C740.74,307.79,741,305.85,742.32,305.26Z" transform="translate(28.02 -77.48)"/><path class="cls-9" d="M713.7,275a10.74,10.74,0,0,1-3.21-10.58l2.3,2a11.27,11.27,0,0,1,4.76-11.21,8.18,8.18,0,0,1,4,9.19l2.5-4.67a13,13,0,0,1-2.92,13.27,6.75,6.75,0,0,1-2.07,1.53,9.59,9.59,0,0,1-2.18.57C715.39,275.3,714.19,275.39,713.7,275Z" transform="translate(28.02 -77.48)"/><path class="cls-9" d="M724.85,268.72a7.36,7.36,0,0,1,4-5.41,7.55,7.55,0,0,1-.13,4.39,10.26,10.26,0,0,1,7-3.83,30.59,30.59,0,0,1,8.21.3c-1.84,1-1.35,3.68-2,5.63-1,2.86-4.42,4-7.4,4.68a19,19,0,0,1,6.1.79c-1.39,1.85-3.91,2.55-6.24,2.44a34.94,34.94,0,0,1-6.83-1.46,12.67,12.67,0,0,0-6.9-.23C720.92,272.94,724.51,270.83,724.85,268.72Z" transform="translate(28.02 -77.48)"/><path class="cls-15" d="M696.86,278.81c-3.15.34-5.57,2.93-7.08,5.67-2.22,4-3,9.29-.27,13,7.56,10.07,30.12,5.84,32.38-6.87.73-4.05-1.54-8.26-5-10.62a18.86,18.86,0,0,0-12-2.81C700.8,277.42,696.75,278.61,696.86,278.81Z" transform="translate(28.02 -77.48)"/><path class="cls-15" d="M695.86,321.47c-3.55,1.27-5.71,4.88-6.66,8.48-.9,3.35-1,7.05.65,10.12,2.65,5,8.84,7,14.48,8.14,3.73.74,7.72,1.31,11.23-.11A18.48,18.48,0,0,0,722,343c2.71-3,5.33-6.59,5-10.59a11.59,11.59,0,0,0-1.63-4.85,21,21,0,0,0-16-10.32C702.77,316.63,695.92,319.37,695.86,321.47Z" transform="translate(28.02 -77.48)"/><path class="cls-15" d="M705.41,366.45c-5.91.95-12.41,2.24-16,6.94a13.46,13.46,0,0,0-2.33,4.94c-2.09,8.21,3,17.26,10.75,20.94s17.37,2.41,24.62-2.16c3.76-2.36,7.07-5.69,8.52-9.85a15.79,15.79,0,0,0-1.78-13.52,19.3,19.3,0,0,0-11.39-8C711.16,364,704.12,365.53,705.41,366.45Z" transform="translate(28.02 -77.48)"/><path class="cls-15" d="M720.61,366.22c4.36-3,9.86-3.61,15.11-4.19,6.16-.67,11.74.62,15.35,6a18.07,18.07,0,0,1,2.83,8.62,13.25,13.25,0,0,1-.61,5.63c-1.92,5.22-7.12,7.77-12.21,9.13-10.33,2.76-27.69-.68-27.28-14.35C714,372,717.87,368.08,720.61,366.22Z" transform="translate(28.02 -77.48)"/><path class="cls-15" d="M622.5,336.12a17.84,17.84,0,0,0-15.45,10.79,17.31,17.31,0,0,0,3.73,18.27c4.5,4.53,11.29,6.28,17.72,6.05a28.36,28.36,0,0,0,16.19-5.42,19.66,19.66,0,0,0,7.94-14.59,15.46,15.46,0,0,0-8-14.14c-3.27-1.65-7.05-2-10.72-2.12C628.81,334.74,623.64,334.79,622.5,336.12Z" transform="translate(28.02 -77.48)"/><path class="cls-15" d="M657.3,308.43c-4.42.5-9.41,1.34-11.88,5a11.43,11.43,0,0,0-1.67,5.53,12.86,12.86,0,0,0,1.79,8.34c2.63,3.83,7.8,5.07,12.51,5.21,5.12.15,10.49-.73,14.55-3.79S679,320,677,315.35a11.84,11.84,0,0,0-6.86-6.11,23.69,23.69,0,0,0-9.36-1.19,32.93,32.93,0,0,0-8.44,1.36c-.26.08-.54.19-.62.44S652,310.39,657.3,308.43Z" transform="translate(28.02 -77.48)"/><path class="cls-15" d="M663.21,267.73c-3,.43-6.27,1-8.42,3.11a13.73,13.73,0,0,0-2.2,3.26c-1.39,2.58-2.76,5.34-2.67,8.26.17,5,4.65,8.93,9.37,10.82a22.94,22.94,0,0,0,16.43.47,17.48,17.48,0,0,0,10.89-11.76c1.29-5.29-2.89-11-7.73-13.09-4.38-1.9-9.63-2-14.32-1.48C661.87,267.64,658.82,268.17,663.21,267.73Z" transform="translate(28.02 -77.48)"/><path class="cls-16" d="M665.45,268.22a22.29,22.29,0,0,0-7.71-4.31,8.21,8.21,0,0,1,9.73,4.4,15.81,15.81,0,0,1-.11-5,5.4,5.4,0,0,1,2.87-4,27.32,27.32,0,0,1-2,9,9.08,9.08,0,0,1,7.27-6.74l-4.77,6.28a4.56,4.56,0,0,1-2.56,2.05A2.35,2.35,0,0,1,665.45,268.22Z" transform="translate(28.02 -77.48)"/><path class="cls-16" d="M701.3,277.52a22.46,22.46,0,0,0-7.71-4.31,8.23,8.23,0,0,1,9.73,4.4,15.8,15.8,0,0,1-.11-5,5.4,5.4,0,0,1,2.87-4,27.2,27.2,0,0,1-2,9,9.07,9.07,0,0,1,7.27-6.73l-4.77,6.28a4.5,4.5,0,0,1-2.56,2A2.34,2.34,0,0,1,701.3,277.52Z" transform="translate(28.02 -77.48)"/><path class="cls-16" d="M703.87,317.65a22.27,22.27,0,0,0-7.71-4.3,8.21,8.21,0,0,1,9.73,4.39,15.51,15.51,0,0,1-.1-5,5.39,5.39,0,0,1,2.86-4,27,27,0,0,1-2,9A9.07,9.07,0,0,1,713.9,311l-4.77,6.28a4.5,4.5,0,0,1-2.56,2A2.34,2.34,0,0,1,703.87,317.65Z" transform="translate(28.02 -77.48)"/><path class="cls-16" d="M657.81,307.65a22.29,22.29,0,0,0-7.71-4.31,8.21,8.21,0,0,1,9.73,4.4,15.52,15.52,0,0,1-.1-5,5.38,5.38,0,0,1,2.86-4,27.07,27.07,0,0,1-2,9,9.08,9.08,0,0,1,7.27-6.74l-4.77,6.28a4.56,4.56,0,0,1-2.56,2.05A2.35,2.35,0,0,1,657.81,307.65Z" transform="translate(28.02 -77.48)"/><path class="cls-16" d="M622.32,335a37.06,37.06,0,0,0-12.77-7.14c6.18-2,13.63,1.39,16.12,7.29a25.74,25.74,0,0,1-.17-8.35,8.92,8.92,0,0,1,4.74-6.58,44.9,44.9,0,0,1-3.35,14.88,15.08,15.08,0,0,1,12-11.16L631,334.39c-1.11,1.48-2.41,3.06-4.25,3.38A3.89,3.89,0,0,1,622.32,335Z" transform="translate(28.02 -77.48)"/><path class="cls-16" d="M700.92,367.24a37.06,37.06,0,0,0-12.77-7.14c6.18-2,13.63,1.38,16.12,7.29a25.74,25.74,0,0,1-.17-8.35,8.9,8.9,0,0,1,4.74-6.58,44.71,44.71,0,0,1-3.35,14.88,15.07,15.07,0,0,1,12-11.16l-7.89,10.41c-1.11,1.47-2.41,3.06-4.25,3.38A3.9,3.9,0,0,1,700.92,367.24Z" transform="translate(28.02 -77.48)"/><path class="cls-16" d="M731,363.68a36.92,36.92,0,0,0-12.76-7.13c6.17-2,13.62,1.38,16.11,7.28a25.74,25.74,0,0,1-.17-8.35,8.91,8.91,0,0,1,4.75-6.58,44.91,44.91,0,0,1-3.36,14.88,15.08,15.08,0,0,1,12-11.16L739.7,363c-1.11,1.48-2.41,3.06-4.25,3.39A3.9,3.9,0,0,1,731,363.68Z" transform="translate(28.02 -77.48)"/><path class="cls-17" d="M790.31,642a5.17,5.17,0,0,0,.31-6.55,5.61,5.61,0,0,0-3.3-2.36,4.44,4.44,0,0,0-3.59.58,4.34,4.34,0,0,0-.61.51,5.18,5.18,0,0,0-.31,6.56,5.63,5.63,0,0,0,3.3,2.35,4.37,4.37,0,0,0,3.59-.58A3.75,3.75,0,0,0,790.31,642Z" transform="translate(28.02 -77.48)"/><path class="cls-17" d="M787.64,654.72a5.49,5.49,0,0,0,4.61-4.88,5.7,5.7,0,0,0-.82-4,4.13,4.13,0,0,0-3-1.89,4.07,4.07,0,0,0-.78,0,5.48,5.48,0,0,0-4.61,4.87,5.59,5.59,0,0,0,.82,4,4.1,4.1,0,0,0,3,1.89A4.17,4.17,0,0,0,787.64,654.72Z" transform="translate(28.02 -77.48)"/><path class="cls-17" d="M786.08,666.26a5.45,5.45,0,0,0,4.16-5.25,5.63,5.63,0,0,0-1.19-3.87,4.13,4.13,0,0,0-3.18-1.61,3.42,3.42,0,0,0-.78.06,5.45,5.45,0,0,0-4.16,5.25,5.63,5.63,0,0,0,1.18,3.87,4.15,4.15,0,0,0,3.18,1.61A3.51,3.51,0,0,0,786.08,666.26Z" transform="translate(28.02 -77.48)"/><path class="cls-17" d="M791.19,676.73a5.29,5.29,0,0,0,1.89-6.35,5.51,5.51,0,0,0-2.6-3.09,4.29,4.29,0,0,0-3.59-.28,4.79,4.79,0,0,0-.72.35,5.31,5.31,0,0,0-1.89,6.35,5.55,5.55,0,0,0,2.6,3.09,4.31,4.31,0,0,0,3.6.28A3.61,3.61,0,0,0,791.19,676.73Z" transform="translate(28.02 -77.48)"/><path class="cls-17" d="M782.22,626.85l-4.34-.83a4.54,4.54,0,0,1,1.87-3.21,3.6,3.6,0,0,1,.5-.29,4.22,4.22,0,0,1,3.56,0,5.81,5.81,0,0,1,2.9,2.9c1.16,2.47.59,5.32-1.33,6.63a3.6,3.6,0,0,1-.5.29,4.22,4.22,0,0,1-3.56,0,5.62,5.62,0,0,1-2.24-1.82Z" transform="translate(28.02 -77.48)"/><path class="cls-18" d="M669.32,655.91,657,673.08c-2,2.87-1.72,6.6.76,8.33s6.15.8,8.21-2.06l12.32-17.18c2.06-2.87,1.72-6.6-.76-8.33S671.38,653,669.32,655.91Z" transform="translate(28.02 -77.48)"/><path class="cls-19" d="M640.08,708.59s3.67,2.56,9.48-5.56a7.41,7.41,0,0,0,.64-7.63s-2.6-4.77,1.53-10.19c5.19-6.8,8-5.08,8-5.08" transform="translate(28.02 -77.48)"/><path class="cls-19" d="M641.67,704.06c1.88-5.3,7.55-4.89,7.55-4.89s5,1.42,10-7.21c4.59-8,2.53-11.69,2.53-11.69" transform="translate(28.02 -77.48)"/><path class="cls-19" d="M657.77,679a13.18,13.18,0,0,1-2.59,8.77s-3.42,4.45-7.11,3.23-5.58,2.44-6.58,3.71a14.57,14.57,0,0,0-2.33,7.37" transform="translate(28.02 -77.48)"/><path class="cls-19" d="M661,678c-6.77-1.69-9.73,1.57-9.73,1.57s-4,3.72-.72,9.13-.43,7.19-1.54,8.29a10.64,10.64,0,0,1-8.12,1.53" transform="translate(28.02 -77.48)"/><path class="cls-20" d="M877.72,634.52l16.95,17.09c2.83,2.85,7,3,9.24.38s1.81-7.09-1-10L885.94,625c-2.84-2.85-7-3-9.24-.38S874.88,631.66,877.72,634.52Z" transform="translate(28.02 -77.48)"/><path class="cls-21" d="M931,676.9s3.37-3.92-4.65-12a7.77,7.77,0,0,0-8.27-1.91s-5.62,2.32-10.93-3.36c-6.67-7.13-4.34-10.21-4.34-10.21" transform="translate(28.02 -77.48)"/><path class="cls-21" d="M926.29,674.34c-5.52-3-4.22-9.61-4.22-9.61s2.32-5.69-6.38-12.82c-8.09-6.61-12.43-4.75-12.43-4.75" transform="translate(28.02 -77.48)"/><path class="cls-21" d="M901.28,651.61a14.18,14.18,0,0,1,9.21,4.38s4.37,4.69,2.47,8.84,1.82,6.92,3.06,8.29a15.66,15.66,0,0,0,7.73,3.86" transform="translate(28.02 -77.48)"/><path class="cls-21" d="M900.71,647.67c-2.88,7.68.24,11.67.24,11.67s3.47,5.22,9.89,2.23,7.82,1.6,8.85,3.08a13.33,13.33,0,0,1,.45,9.77" transform="translate(28.02 -77.48)"/><path class="cls-22" d="M465.65,515.2l-4.13-5.13,6.06-.35c.13-.33.24-.63.38-1a6,6,0,0,0,.65-3.45,6.14,6.14,0,0,0-11.77-1.54,72,72,0,0,0-5.59,27h0a5,5,0,0,0,0,.67,6.12,6.12,0,0,0,12.16-1.32S462.73,524.73,465.65,515.2Z" transform="translate(28.02 -77.48)"/><path class="cls-22" d="M500.28,689.49l-5-4.34,5.9-1.39c.07-.34.13-.66.21-1a5.88,5.88,0,0,0,0-3.5,6.13,6.13,0,0,0-7.6-4.08,6.05,6.05,0,0,0-4.27,4.58,71.87,71.87,0,0,0-.71,27.52h0q.06.33.15.66a6.14,6.14,0,0,0,7.6,4.08,6,6,0,0,0,4.15-7.47S499.11,699.37,500.28,689.49Z" transform="translate(28.02 -77.48)"/><path class="cls-22" d="M892.2,581.59l4.49-4.82-6-.79c-.11-.33-.2-.64-.31-1a5.89,5.89,0,0,1-.4-3.49,6.14,6.14,0,0,1,11.86-.69,72.1,72.1,0,0,1,3.59,27.3h0c0,.22,0,.44-.09.67a6.1,6.1,0,0,1-7.13,4.82,6,6,0,0,1-4.91-7S894.41,591.3,892.2,581.59Z" transform="translate(28.02 -77.48)"/><path class="cls-17" d="M814.85,494.21a5,5,0,0,1,.9-6.33,5.48,5.48,0,0,1,3.58-1.67,4.27,4.27,0,0,1,3.33,1.19,4.72,4.72,0,0,1,.5.59,5,5,0,0,1-.91,6.33,5.53,5.53,0,0,1-3.58,1.67,4.27,4.27,0,0,1-3.33-1.19A3.94,3.94,0,0,1,814.85,494.21Z" transform="translate(28.02 -77.48)"/><path class="cls-17" d="M815.09,506.83a5.29,5.29,0,0,1-3.52-5.47,5.53,5.53,0,0,1,1.51-3.67,4.07,4.07,0,0,1,3.22-1.28,3.3,3.3,0,0,1,.75.14,5.28,5.28,0,0,1,3.52,5.47,5.56,5.56,0,0,1-1.5,3.66,4.06,4.06,0,0,1-3.23,1.28A3.93,3.93,0,0,1,815.09,506.83Z" transform="translate(28.02 -77.48)"/><path class="cls-17" d="M814.48,518.15a5.25,5.25,0,0,1-3-5.75,5.51,5.51,0,0,1,1.84-3.5,4,4,0,0,1,3.33-1,3.86,3.86,0,0,1,.74.2,5.25,5.25,0,0,1,3,5.75,5.51,5.51,0,0,1-1.84,3.5,4,4,0,0,1-3.33,1A3.86,3.86,0,0,1,814.48,518.15Z" transform="translate(28.02 -77.48)"/><path class="cls-17" d="M807.68,527.27a5.15,5.15,0,0,1-.65-6.41,5.51,5.51,0,0,1,3-2.5,4.25,4.25,0,0,1,3.5.37,4,4,0,0,1,.62.46,5.15,5.15,0,0,1,.65,6.41,5.5,5.5,0,0,1-3.05,2.5,4.24,4.24,0,0,1-3.49-.37A4,4,0,0,1,807.68,527.27Z" transform="translate(28.02 -77.48)"/><path class="cls-17" d="M825.35,481.13l4.31,0a4.43,4.43,0,0,0-1.21-3.41,3.73,3.73,0,0,0-.43-.36,4.06,4.06,0,0,0-3.4-.64,5.73,5.73,0,0,0-3.3,2.27c-1.56,2.15-1.53,5,.07,6.58a3.62,3.62,0,0,0,.42.36,4.08,4.08,0,0,0,3.4.64,5.56,5.56,0,0,0,2.48-1.35Z" transform="translate(28.02 -77.48)"/><path class="cls-17" d="M434.74,609.84a5.05,5.05,0,0,1,.9-6.32,5.56,5.56,0,0,1,3.59-1.68,4.28,4.28,0,0,1,3.33,1.2,4.72,4.72,0,0,1,.5.59,5.07,5.07,0,0,1-.91,6.33,5.53,5.53,0,0,1-3.58,1.67,4.27,4.27,0,0,1-3.33-1.19A4.19,4.19,0,0,1,434.74,609.84Z" transform="translate(28.02 -77.48)"/><path class="cls-17" d="M435,622.47a5.29,5.29,0,0,1-3.53-5.48,5.62,5.62,0,0,1,1.51-3.66,4.09,4.09,0,0,1,3.22-1.28,3.9,3.9,0,0,1,.76.13,5.29,5.29,0,0,1,3.52,5.47,5.53,5.53,0,0,1-1.51,3.67,4,4,0,0,1-3.22,1.28A3.8,3.8,0,0,1,435,622.47Z" transform="translate(28.02 -77.48)"/><path class="cls-17" d="M434.38,633.79a5.27,5.27,0,0,1-3-5.75,5.53,5.53,0,0,1,1.84-3.5,4.06,4.06,0,0,1,3.34-1,4.73,4.73,0,0,1,.74.19,5.28,5.28,0,0,1,3,5.76,5.51,5.51,0,0,1-1.84,3.5,4,4,0,0,1-3.33,1A3.86,3.86,0,0,1,434.38,633.79Z" transform="translate(28.02 -77.48)"/><path class="cls-17" d="M427.58,642.91a5.15,5.15,0,0,1-.66-6.41A5.52,5.52,0,0,1,430,634a4.18,4.18,0,0,1,3.5.37,4,4,0,0,1,.62.46,5.16,5.16,0,0,1,.65,6.41,5.47,5.47,0,0,1-3.05,2.49,4.2,4.2,0,0,1-3.49-.36A4.15,4.15,0,0,1,427.58,642.91Z" transform="translate(28.02 -77.48)"/><path class="cls-17" d="M445.25,596.76l4.31,0a4.47,4.47,0,0,0-1.21-3.41,2.93,2.93,0,0,0-.43-.36,4.06,4.06,0,0,0-3.4-.64,5.68,5.68,0,0,0-3.3,2.27c-1.57,2.15-1.54,5,.06,6.58a4.82,4.82,0,0,0,.43.36,4.11,4.11,0,0,0,3.4.64,5.56,5.56,0,0,0,2.48-1.35Z" transform="translate(28.02 -77.48)"/><path class="cls-5" d="M568.17,560.65c-5.67,9.11-14.3,17.5-25.34,19.12" transform="translate(28.02 -77.48)"/><polygon class="cls-6" points="572.05 500.24 571.46 502.18 572.44 503.95 567.86 502.55 572.05 500.24"/><path class="cls-23" d="M289,447.16c2.78,20,13.5,27.72,23.21,28.92" transform="translate(28.02 -77.48)"/><polygon class="cls-4" points="338.5 400.63 339.55 398.52 338.75 396.3 343.77 398.76 338.5 400.63"/><path class="cls-24" d="M369.26,586.43c14.84,19.91,32.28,21,44.55,15.79" transform="translate(28.02 -77.48)"/><polygon class="cls-4" points="441.19 527.75 441.06 525.05 439.02 523.27 445.42 522.95 441.19 527.75"/><path class="cls-25" d="M830.62,502.36c12.63,1.25,19.7-8.79,22.5-18.75" transform="translate(28.02 -77.48)"/><polygon class="cls-4" points="882.28 407.66 880.96 406.62 879.29 406.85 881.74 403.71 882.28 407.66"/><path class="cls-5" d="M553.27,622.23c-.8,5.52-.93,11.22-2.31,16.64a46.28,46.28,0,0,1-2.07,6.29" transform="translate(28.02 -77.48)"/><polygon class="cls-6" points="575.69 565.64 577.1 567.1 579.12 567.09 575.68 570.43 575.69 565.64"/><path class="cls-5" d="M575.37,522a24.57,24.57,0,0,1-13.87,9.75" transform="translate(28.02 -77.48)"/><polygon class="cls-6" points="590.44 452.1 590.12 454.09 591.33 455.71 586.6 454.96 590.44 452.1"/><path class="cls-5" d="M549,504.26c-3.55-3.2-8.17-3.55-12.76-3.54-3.5,0-7.59,1.22-10.94-.12" transform="translate(28.02 -77.48)"/><polygon class="cls-6" points="555.3 422.26 553.83 423.33 553.58 425.14 551.03 421.66 555.3 422.26"/><path class="cls-5" d="M672.12,629c-1.42,4-2.71,9.52-1.53,14" transform="translate(28.02 -77.48)"/><polygon class="cls-6" points="696.43 564.89 698.45 564.96 699.9 563.55 699.76 568.34 696.43 564.89"/><path class="cls-26" d="M855.65,309.05A47.4,47.4,0,0,1,853.29,322c-1.85,5-4.8,8.32-7.45,12s-5.27,8.55-5.66,14.13,1.58,10.1,1.89,15.47c.33,5.8-1.48,12.44-4.41,16.18-2,2.59-4.4,3.76-6.6,5.73-4.33,3.91-7.91,11.19-9.47,19.27-1.28,6.64-1.28,13.78-3.32,20" transform="translate(28.02 -77.48)"/><polygon class="cls-6" points="880.51 233.65 883.58 232.57 886.49 234.02 883.94 226.75 880.51 233.65"/><ellipse class="cls-27" cx="586.84" cy="232.97" rx="13.2" ry="12.98"/><text class="cls-28" transform="translate(576.07 237.06) scale(1.09 1)"><tspan class="cls-29">C</tspan><tspan x="6.69" y="0">O2</tspan></text><ellipse class="cls-27" cx="619.32" cy="160.35" rx="13.2" ry="12.98"/><text class="cls-28" transform="translate(608.55 164.44) scale(1.09 1)"><tspan class="cls-30">C</tspan><tspan x="6.68" y="0">O2</tspan></text><path class="cls-31" d="M889.56,438.54a12.45,12.45,0,0,1,7.22-14.67c7-2.74,16.9.39,21.06-5.77,1.51-2.25,1.65-5.13,1.35-7.81-.89-8-4.94-16.69-.53-23.43,2.42-3.7,6.84-5.64,9.84-8.9,2.67-2.91,4-6.63,5-10.47" transform="translate(28.02 -77.48)"/><polygon class="cls-6" points="963.71 292.7 961.27 290.9 958.28 291.42 962.5 285.62 963.71 292.7"/><path class="cls-32" d="M431.69,324.66c-23.86,16.63-34.16,47.73-34.73,77.11a127.59,127.59,0,0,0,6.83,44.41,269.63,269.63,0,0,0,11.64,28.52" transform="translate(28.02 -77.48)"/><polygon class="cls-6" points="426.21 394.73 441.37 393.02 450.67 380.92 454.81 416.82 426.21 394.73"/><path class="cls-33" d="M1029.89,475.82c13.58-16.14,16.74-38.94,12.7-59.5-3.08-15.65-9.88-30.27-17.94-44.18" transform="translate(28.02 -77.48)"/><polygon class="cls-6" points="1064.29 295.93 1054.22 297.37 1048.27 305.63 1044.79 281.79 1064.29 295.93"/><path class="cls-5" d="M559.66,329c.43,6.32,4.83,11.86,9.94,15.4s11.26,4.85,17.36,5.8" transform="translate(28.02 -77.48)"/><polygon class="cls-6" points="613.29 274.3 614.36 272.58 613.87 270.62 617.94 273.14 613.29 274.3"/><path class="cls-5" d="M582.68,255.07c-3.08,10,1.6,24.91,12.84,27.25" transform="translate(28.02 -77.48)"/><polygon class="cls-6" points="621.91 206.42 622.94 204.68 622.41 202.72 626.53 205.16 621.91 206.42"/><path class="cls-34" d="M634.72,553.5c-2.77,11.11-2.14,21.59,0,32.07" transform="translate(28.02 -77.48)"/><polygon class="cls-35" points="660.71 507.03 662.69 507.46 664.37 506.34 663.36 511.02 660.71 507.03"/><path class="cls-36" d="M879.51,578.19c-12.22-2.11-16.56-9.35-16.9-15.74" transform="translate(28.02 -77.48)"/><polygon class="cls-4" points="891.88 485.9 890.66 485.38 889.44 485.91 890.65 483 891.88 485.9"/><path class="cls-25" d="M911.68,633.61c12.19,3.49,21-5.12,25.59-14.42" transform="translate(28.02 -77.48)"/><polygon class="cls-4" points="966.13 543.42 965.02 542.15 963.34 542.07 966.33 539.44 966.13 543.42"/><path class="cls-37" d="M491.07,511.5a24.67,24.67,0,0,1-15,8" transform="translate(28.02 -77.48)"/><polygon class="cls-4" points="505.26 439.94 504.7 441.88 505.7 443.63 501.1 442.31 505.26 439.94"/><path class="cls-37" d="M526.49,676.69a24.71,24.71,0,0,1-15,8" transform="translate(28.02 -77.48)"/><polygon class="cls-4" points="540.68 605.13 540.12 607.07 541.13 608.82 536.52 607.5 540.68 605.13"/></g><path class="cls-38" d="M307.75,352.18a3.78,3.78,0,0,0-.8-.89,4.6,4.6,0,0,0-3.49-1,8.42,8.42,0,0,0,.31-5.13c-.88-3.44-3.71-5.52-7.06-6.46a10.8,10.8,0,0,0-8.37,1.1,2.9,2.9,0,0,0-1.58-2.2,3.27,3.27,0,0,0-1.75-.25,2.35,2.35,0,0,0-1.14.43,7.88,7.88,0,0,0-7.35-5.91,9.56,9.56,0,0,0-9.66,6.36,9.43,9.43,0,0,0-.39,2.84,4.51,4.51,0,0,0-3.53,0,4.45,4.45,0,0,0-2.31,2.29,5.37,5.37,0,0,0-1.81-.89,7.13,7.13,0,0,0-6.88,1.84,6.88,6.88,0,0,0-1.7,6.31,3.26,3.26,0,0,0-2.66,2c-2.52,6.1,6.4,6.53,10.21,7.14A169.07,169.07,0,0,0,276,361.66q5.49.29,11,.21a58.15,58.15,0,0,0,11.63-1.08c2.6-.57,5.38-1.19,7.61-2.68a4.57,4.57,0,0,0,2.24-3.15A4.51,4.51,0,0,0,307.75,352.18Z" transform="translate(28.02 -77.48)"/><path class="cls-39" d="M306.15,427.65c-2.06-.14-4.23-.62-5.77-.62a32.83,32.83,0,0,0-4.87.76c-3.83.62-7.65,1.42-11.53,1.67a90.53,90.53,0,0,1-21.67-1.54,48.64,48.64,0,0,0-8.07-.91c-2.59,0-7.25,2-9.08-.26a3.68,3.68,0,0,1-.46-3.41c.39-1.27,1.34-2.19,1.67-3.49a29.62,29.62,0,0,0,.64-4.8,86.87,86.87,0,0,0-.27-11.63,115.41,115.41,0,0,1,.82-20.94,75.41,75.41,0,0,0,1.06-11.22,16.39,16.39,0,0,0-.86-5.52c-.41-1.1-1.36-2.55.26-3.33a6.55,6.55,0,0,1,2.12,0H307c.76,0,1.92,13.13,2,14.4,1.07,11.32.48,22.82-.68,34.09a11.66,11.66,0,0,0,1,7.05c1,1.85,3.48,7.05,1.43,8.73C309.67,427.62,308,427.76,306.15,427.65Z" transform="translate(28.02 -77.48)"/><path class="cls-40" d="M310.82,426.68c2.05-1.68-.41-6.88-1.43-8.73a11.66,11.66,0,0,1-1-7.05c.17-1.66.33-3.32.47-5-.18.91-.36,1.83-.6,2.73-.64,2.38-3.46,3.85-3.91,6.26-.57,3,6.85,7.14,3.58,9.8-1.73,1.42-4.8-1-6.66-1.44a5.87,5.87,0,0,0-6.05,1.31c-2.08,1.78-5,2.18-7.74,2.5a92.33,92.33,0,0,1-14.94.93,34,34,0,0,1-10.18-1.95c-2.57-1-5.52-3.11-8.56-2.4-1.84.43-5.29,4.07-6.44.68s5.9-5.92,5.29-10-5.58-5.8-5.82-10a76.75,76.75,0,0,1,.22,10.72,29.62,29.62,0,0,1-.64,4.8c-.33,1.3-1.28,2.22-1.67,3.49a4.41,4.41,0,0,0-.2,1,3.84,3.84,0,0,0,.43,2.07l.09.14,0,0,.12.17c1.83,2.25,6.49.25,9.08.26.85,0,1.7.05,2.54.12.67.06,1.35.14,2,.23s1.34.19,2,.3l1.5.26,1.34.24.67.11,2,.31c1.57.23,3.15.43,4.73.58l1.35.13,2,.15c.68,0,1.36.08,2,.1l1.36,0,1.36,0h.68l1.36,0c.91,0,1.81-.06,2.72-.12,1.21-.08,2.42-.21,3.62-.37q1.08-.15,2.16-.33l2.16-.36,1.43-.25.72-.12,1.44-.24.58-.1c.7-.13,1.44-.3,2.17-.43l.62-.11a8.74,8.74,0,0,1,1.5-.12,16.26,16.26,0,0,1,2,.16l1.48.2.39.05.77.1.39,0,.78.07C308,427.76,309.67,427.62,310.82,426.68Z" transform="translate(28.02 -77.48)"/><path class="cls-40" d="M247.53,362.73h0a1.14,1.14,0,0,0-.15.17l-.05.06,0,.05v0a.2.2,0,0,0,0,.08.77.77,0,0,0-.07.16s0,0,0,0a1.06,1.06,0,0,0,0,.31h0v.1h0v.11a2.77,2.77,0,0,0,.12.54v0c0,.1.07.2.11.3.13.35.3.71.42,1a2.19,2.19,0,0,1,.12.33,9.71,9.71,0,0,1,.35,1.28l0,.13,0,.08a21,21,0,0,1,.34,3.7,75.41,75.41,0,0,1-1.06,11.22c-.06.44-.12.87-.17,1.31a10.06,10.06,0,0,1,2.74-2.15c5.39-2.93,12.36-.13,18,.73a75,75,0,0,0,23.72-.7,75.4,75.4,0,0,1,8.57-1.17c2.38-.14,4.58-.78,6.79.58a6.46,6.46,0,0,1,2.27,2.43q-.14-3.36-.45-6.7c-.11-1.14-1-11.87-1.8-14a16.89,16.89,0,0,0-4.11-.37h-53a6.55,6.55,0,0,0-2.12,0,2.18,2.18,0,0,0-.34.2Z" transform="translate(28.02 -77.48)"/><path class="cls-41" d="M279.44,424.1c3.68.12,8-.48,11.09-2.56.19-.13.4-.32.37-.54a.46.46,0,0,0-.46-.32,1.4,1.4,0,0,0-.58.18,19.24,19.24,0,0,1-4.46,1.39,36.37,36.37,0,0,1-7.72.7,26.18,26.18,0,0,1-2.66-.15,22.66,22.66,0,0,1-2.41-.55,5.09,5.09,0,0,0-1.85-.4c-.48.12-.14.49.16.67a8.2,8.2,0,0,0,1.55.57A26,26,0,0,0,279.44,424.1Z" transform="translate(28.02 -77.48)"/><path class="cls-39" d="M310.53,375a7.5,7.5,0,0,1-2.19,1.23c-5,1.9-10.75,2.36-16.07,2.9-7.46.76-26.11.69-36.34-.72-2.62-.36-7.15-.91-9.53-2.14-2.61-1.35-1.86-3-1-5.1a10.19,10.19,0,0,0,0-6c-.83-3.8-1.51-9.14,3.53-10.32,2.3-.53,4.7,0,7,.53a114.39,114.39,0,0,0,45.89.43c3.1-.6,7.06-1.89,9.31,1.15,1.46,2,.86,4.5.49,6.7-.2,1.15-.71,2.13-.94,3.28a7.07,7.07,0,0,0,0,3.39,7.84,7.84,0,0,1,.9,2.48A2.74,2.74,0,0,1,310.53,375Z" transform="translate(28.02 -77.48)"/><path class="cls-41" d="M305.61,357.22a.87.87,0,0,0-.32,0l-1.54.33c-.64.13-1.28.28-1.92.4a114.39,114.39,0,0,1-45.89-.43c-.62-.13-1.23-.27-1.86-.39h0l-.67-.13c-.21,0-.43-.09-.64-.12a1.5,1.5,0,0,0-.37,0,.23.23,0,0,0-.17.07.14.14,0,0,0,0,.15c0,.09.12.14.19.19l.32.16a11.52,11.52,0,0,0,1.32.48c.66.17,1.33.31,2,.47l.65.15.55.11,1.1.22c1.48.28,3,.54,4.45.76s3,.42,4.46.59,3,.3,4.49.4,3,.19,4.5.23,3,.07,4.51.06,3-.05,4.51-.12,3-.17,4.5-.3,3-.29,4.48-.48,3-.4,4.46-.65c1-.17,2.05-.36,3.08-.56a15.75,15.75,0,0,0,3.66-1.16C305.57,357.57,305.94,357.31,305.61,357.22Z" transform="translate(28.02 -77.48)"/><path class="cls-40" d="M266.32,372a.26.26,0,0,1,.2-.4,1.13,1.13,0,0,1,.32,0c.49,0,1,0,1.46.05l1.56.05c1.81.06,3.64.14,5.46.1,1.08,0,2.17,0,3.26,0,2.94-.06,5.87-.17,8.82-.35,1.52-.1,3.06-.18,4.57-.39.53-.08,1.06-.13,1.6-.2a.82.82,0,0,1,.27,0,.22.22,0,0,1,.14.34.93.93,0,0,1-.31.25,3.28,3.28,0,0,1-.74.33,33.32,33.32,0,0,1-7.19,1c-1.84.13-3.68.22-5.52.26-1.55,0-3.1,0-4.64,0s-3.11-.11-4.66-.22a25.57,25.57,0,0,1-3.38-.41l-.75-.16C266.63,372.19,266.41,372.14,266.32,372Z" transform="translate(28.02 -77.48)"/><path class="cls-40" d="M252.26,369.92l0,0a7.65,7.65,0,0,0-1.53-.65,15.35,15.35,0,0,1-2.69-1.18,5.42,5.42,0,0,1-2.24-2c-.1-.17-.19-.35-.27-.52a9.75,9.75,0,0,1-.09,5.64c-.2.48-.39.93-.53,1.37a3.48,3.48,0,0,1,1.1-1.38,3.75,3.75,0,0,1,2.48-.32,10.05,10.05,0,0,0,3.67,0,.87.87,0,0,0,.38-.17.41.41,0,0,0,.15-.37C252.61,370.12,252.43,370,252.26,369.92Z" transform="translate(28.02 -77.48)"/><path class="cls-40" d="M311.63,363.71c0-.14.05-.29.07-.44a8.85,8.85,0,0,1-4.95,4.72c-.54.17-2.56.56-2.32,1.44v0a.66.66,0,0,0,.57.41,2.58,2.58,0,0,0,.73-.06,7.45,7.45,0,0,1,3.84.05A4.12,4.12,0,0,1,311,371a5.71,5.71,0,0,1-.29-.66,7.07,7.07,0,0,1,0-3.39C310.92,365.84,311.43,364.86,311.63,363.71Z" transform="translate(28.02 -77.48)"/><text class="cls-42" transform="translate(275.69 326.75) scale(1.02 1)"><tspan class="cls-43">C</tspan><tspan x="8.92" y="0">omp</tspan><tspan class="cls-44" x="39.66" y="0">o</tspan><tspan class="cls-45" x="48.43" y="0">s</tspan><tspan x="54.18" y="0">t</tspan></text><path class="cls-38" d="M283.94,430.14a1,1,0,0,0-.39,0,1.92,1.92,0,0,0-.88.62c-.15.16-.38.42-.32.65a.55.55,0,0,0,.26.3,1.6,1.6,0,0,0,.75.11,3.3,3.3,0,0,0,.82-.11,1.45,1.45,0,0,0,.78-.52.61.61,0,0,0-.21-.78A1.58,1.58,0,0,0,283.94,430.14Z" transform="translate(28.02 -77.48)"/><path class="cls-38" d="M309.75,430.58a1.29,1.29,0,0,0-.39,0,2,2,0,0,0-.88.62c-.14.16-.38.42-.32.65a.55.55,0,0,0,.26.3,1.48,1.48,0,0,0,.75.11,3.24,3.24,0,0,0,.82-.11,1.45,1.45,0,0,0,.78-.52.61.61,0,0,0-.21-.78A1.58,1.58,0,0,0,309.75,430.58Z" transform="translate(28.02 -77.48)"/><path class="cls-38" d="M306.61,429.39a2.16,2.16,0,0,1-.36,0,1.57,1.57,0,0,0-.57,0,.48.48,0,0,0-.42.46c0,.26.24.36.49.37a1.91,1.91,0,0,0,.67-.06c.21-.05.56-.16.62-.39a.25.25,0,0,0-.21-.33A.55.55,0,0,0,306.61,429.39Z" transform="translate(28.02 -77.48)"/><path class="cls-38" d="M317.36,427.18a.6.6,0,0,0-.78.18c-.13.23.08.44.3.47a1.3,1.3,0,0,0,.62,0h0C317.87,427.59,317.6,427.31,317.36,427.18Z" transform="translate(28.02 -77.48)"/><path class="cls-38" d="M321.86,431.26a.6.6,0,0,0-.78.19c-.13.22.07.44.3.46a1.39,1.39,0,0,0,.61,0l0,0C322.37,431.68,322.09,431.39,321.86,431.26Z" transform="translate(28.02 -77.48)"/><path class="cls-38" d="M238.27,426c-.26,0-.59,0-.62.28-.07.43.75.41.93.17S238.54,426,238.27,426Z" transform="translate(28.02 -77.48)"/><path class="cls-38" d="M287.26,431.2a.88.88,0,0,0-.44-.17.67.67,0,0,0-.48.18c-.12.11-.26.22-.24.4a.5.5,0,0,0,.31.34,1.43,1.43,0,0,0,.61.1c.18,0,.44-.05.55-.2a.36.36,0,0,0,.05-.32.71.71,0,0,0-.28-.29Z" transform="translate(28.02 -77.48)"/><path class="cls-38" d="M321.18,426.84a1.31,1.31,0,0,0,.59-.1c.17-.08.34-.26.29-.44a.47.47,0,0,0-.23-.25,2.05,2.05,0,0,0-1.66-.09.34.34,0,0,0,0,.56,2.59,2.59,0,0,0,.82.29A.83.83,0,0,0,321.18,426.84Z" transform="translate(28.02 -77.48)"/><path class="cls-38" d="M275,430.51l-.1-.08a1.14,1.14,0,0,0-.76-.16,2.5,2.5,0,0,0-.76.24l-.58.28c-.14.06-.34.11-.41.25a.34.34,0,0,0,.15.4.87.87,0,0,0,.44.13,6.9,6.9,0,0,0,1.11.07c.44,0,1.11,0,1.16-.56A.75.75,0,0,0,275,430.51Z" transform="translate(28.02 -77.48)"/><path class="cls-38" d="M314.84,429.33l-.1-.08a1.13,1.13,0,0,0-.76-.16,2.5,2.5,0,0,0-.76.24l-.58.28c-.14.06-.34.11-.4.25a.33.33,0,0,0,.14.4.87.87,0,0,0,.44.13,8.27,8.27,0,0,0,1.11.07c.44,0,1.11,0,1.16-.56A.71.71,0,0,0,314.84,429.33Z" transform="translate(28.02 -77.48)"/><path class="cls-38" d="M319.3,431.88l-.12-.05a1.16,1.16,0,0,0-.78,0,2.31,2.31,0,0,0-.68.39c-.17.13-.33.27-.51.4s-.3.18-.33.34a.35.35,0,0,0,.23.36,1,1,0,0,0,.46,0,10.09,10.09,0,0,0,1.1-.18c.42-.1,1.09-.22,1-.8A.74.74,0,0,0,319.3,431.88Z" transform="translate(28.02 -77.48)"/><path class="cls-38" d="M264.28,431a3.94,3.94,0,0,1-.55-.35c-.1-.11-.18-.26-.33-.3a.36.36,0,0,0-.39.14.54.54,0,0,0-.09.41,1,1,0,0,0,.69.92.79.79,0,0,0,.77-.11C264.67,431.52,264.55,431.21,264.28,431Z" transform="translate(28.02 -77.48)"/><path class="cls-38" d="M243.73,425.77a.38.38,0,0,0,0-.53,1,1,0,0,0-.5-.21,4.13,4.13,0,0,0-.49-.07,2.44,2.44,0,0,0-.66,0c-.28.06-.62.29-.62.6s.42.42.65.44a2.7,2.7,0,0,0,.63-.07,2.34,2.34,0,0,1,.53-.08A.76.76,0,0,0,243.73,425.77Z" transform="translate(28.02 -77.48)"/><path class="cls-38" d="M244.32,429.22a1.5,1.5,0,0,0-1.32.83.36.36,0,0,0,.19.38.94.94,0,0,0,.36.11,3.79,3.79,0,0,0,.58,0h.28a.91.91,0,0,0,.56-.17.59.59,0,0,0,.17-.58A.82.82,0,0,0,244.32,429.22Z" transform="translate(28.02 -77.48)"/><path class="cls-38" d="M294.9,430.13c-.48,0-1.19.34-1.32.82a.37.37,0,0,0,.19.39,1.08,1.08,0,0,0,.36.11,3.68,3.68,0,0,0,.58.05H295a1,1,0,0,0,.55-.17.62.62,0,0,0,.18-.58A.83.83,0,0,0,294.9,430.13Z" transform="translate(28.02 -77.48)"/><path class="cls-38" d="M254.46,429.38a.61.61,0,0,0-.22,0,1.49,1.49,0,0,0-.59.13,1,1,0,0,0-.36.22.34.34,0,0,0-.08.33.45.45,0,0,0,.34.23,1.78,1.78,0,0,0,.61.05.92.92,0,0,0,.52-.13.48.48,0,0,0,.12-.56A.58.58,0,0,0,254.46,429.38Z" transform="translate(28.02 -77.48)"/><path class="cls-38" d="M261.37,430a1.69,1.69,0,0,0-.31-.21,5.08,5.08,0,0,0-2.92-.71,3,3,0,0,0-2.22,1,1.07,1.07,0,0,0-.22.92c.16.42.7.57,1.1.65a5.15,5.15,0,0,0,1.75,0c.59-.09,1.14-.32,1.74-.36a2.14,2.14,0,0,0,1-.12.73.73,0,0,0,.36-.78A.76.76,0,0,0,261.37,430Z" transform="translate(28.02 -77.48)"/><path class="cls-38" d="M258.38,429.61a2.08,2.08,0,0,0-2.09.73.3.3,0,0,0,.24.48.33.33,0,0,0,.25-.12,1.42,1.42,0,0,1,1.45-.5.3.3,0,0,0,.15-.59Z" transform="translate(28.02 -77.48)"/><path class="cls-38" d="M242.3,427.3c-.3-.08-.61-.12-.89-.19a2.64,2.64,0,0,0-1-.07,1.64,1.64,0,0,0-1.15.66,1.11,1.11,0,0,0,0,1.27,1.65,1.65,0,0,0,1.52.41,6.2,6.2,0,0,0,1.12-.31c.44-.17,1.23-.42,1.24-1S242.66,427.4,242.3,427.3Z" transform="translate(28.02 -77.48)"/><path class="cls-38" d="M240.39,427.44a1,1,0,0,0-.85.9.31.31,0,0,0,.28.32h0a.3.3,0,0,0,.3-.28.41.41,0,0,1,.33-.35.29.29,0,0,0,.25-.34A.3.3,0,0,0,240.39,427.44Z" transform="translate(28.02 -77.48)"/><path class="cls-38" d="M302.18,429h0a3,3,0,0,0-2.18,0,5.29,5.29,0,0,0-1.68,1.4,1,1,0,0,0-.32,1.14.94.94,0,0,0,.73.42,4.25,4.25,0,0,0,.87-.06,5.74,5.74,0,0,1,1.43.14,3.78,3.78,0,0,0,1.57-.12,1.66,1.66,0,0,0,1-.65,1.32,1.32,0,0,0-.14-1.47A2.64,2.64,0,0,0,302.18,429Z" transform="translate(28.02 -77.48)"/><path class="cls-38" d="M302.21,429.37a3.37,3.37,0,0,0-1.21-.16.29.29,0,0,0-.3.3.3.3,0,0,0,.3.3h0a2.69,2.69,0,0,1,1,.12,1.1,1.1,0,0,1,.65.55.31.31,0,0,0,.28.18l.12,0a.29.29,0,0,0,.16-.39A1.71,1.71,0,0,0,302.21,429.37Z" transform="translate(28.02 -77.48)"/><path class="cls-38" d="M249.06,430.47h0a3,3,0,0,0-2.18.05,5.3,5.3,0,0,0-1.68,1.41c-.27.3-.54.73-.32,1.13a.91.91,0,0,0,.73.42,3.64,3.64,0,0,0,.87-.06,5.7,5.7,0,0,1,1.43.15,4.13,4.13,0,0,0,1.57-.12,1.72,1.72,0,0,0,1-.66,1.35,1.35,0,0,0-.15-1.47A2.71,2.71,0,0,0,249.06,430.47Z" transform="translate(28.02 -77.48)"/><path class="cls-38" d="M249.09,430.85a3.61,3.61,0,0,0-1.21-.16.3.3,0,0,0-.3.31.3.3,0,0,0,.3.29h0a2.94,2.94,0,0,1,1,.13,1.09,1.09,0,0,1,.65.54.31.31,0,0,0,.28.18l.12,0a.29.29,0,0,0,.16-.39A1.74,1.74,0,0,0,249.09,430.85Z" transform="translate(28.02 -77.48)"/><path class="cls-38" d="M280.33,429.77a2.72,2.72,0,0,0-1.68.21,7.39,7.39,0,0,0-.66.42,2.7,2.7,0,0,1-.88.48c-.25.06-.56.13-.68.39s.12.65.44.8a4.18,4.18,0,0,0,1.61.25,5,5,0,0,0,1.68-.28,1.84,1.84,0,0,0,1-.74,1,1,0,0,0,0-1A1.29,1.29,0,0,0,280.33,429.77Z" transform="translate(28.02 -77.48)"/><path class="cls-38" d="M280.59,430.17a2.33,2.33,0,0,0-2.27.4.29.29,0,0,0,0,.42.3.3,0,0,0,.23.11.32.32,0,0,0,.2-.08,1.74,1.74,0,0,1,1.66-.29.3.3,0,1,0,.21-.56Z" transform="translate(28.02 -77.48)"/><path class="cls-38" d="M314.84,425.63a2.2,2.2,0,0,0-.45-.26,2.46,2.46,0,0,0-1.9,0,1,1,0,0,0-.42,1.16,1.64,1.64,0,0,0,1.21.65c.51,0,2.12,0,2-.78A1.22,1.22,0,0,0,314.84,425.63Z" transform="translate(28.02 -77.48)"/><path class="cls-38" d="M314.82,426a1.23,1.23,0,0,0-.8-.56,3.35,3.35,0,0,0-.83,0,.3.3,0,0,0-.29.31.32.32,0,0,0,.32.29,2.4,2.4,0,0,1,.66,0,.57.57,0,0,1,.4.26.33.33,0,0,0,.27.15.28.28,0,0,0,.15,0A.29.29,0,0,0,314.82,426Z" transform="translate(28.02 -77.48)"/><path class="cls-38" d="M339.14,428.72a1.36,1.36,0,0,0-.29,0,1.41,1.41,0,0,0-.63.45c-.11.12-.28.3-.23.47a.33.33,0,0,0,.19.21,1.08,1.08,0,0,0,.53.09,2.89,2.89,0,0,0,.6-.08,1,1,0,0,0,.56-.38.42.42,0,0,0-.15-.56A1.23,1.23,0,0,0,339.14,428.72Z" transform="translate(28.02 -77.48)"/><path class="cls-38" d="M352.12,434.9a1,1,0,0,1-.25,0,1,1,0,0,0-.42,0,.35.35,0,0,0-.3.33c0,.19.17.26.35.27a1.36,1.36,0,0,0,.49,0c.15,0,.4-.11.44-.28a.19.19,0,0,0-.14-.24A.5.5,0,0,0,352.12,434.9Z" transform="translate(28.02 -77.48)"/><path class="cls-38" d="M318.37,429.19c-.19,0-.42,0-.45.2s.54.29.67.12S318.56,429.22,318.37,429.19Z" transform="translate(28.02 -77.48)"/><path class="cls-38" d="M337.33,426.9a.73.73,0,0,0-.32-.12.47.47,0,0,0-.35.13c-.08.08-.18.16-.17.28a.37.37,0,0,0,.22.25,1,1,0,0,0,.45.07c.12,0,.32,0,.39-.14a.28.28,0,0,0,0-.23.47.47,0,0,0-.21-.21Z" transform="translate(28.02 -77.48)"/><path class="cls-38" d="M353.52,433.2a.87.87,0,0,0,.42-.07c.13-.06.25-.19.21-.32a.33.33,0,0,0-.17-.18,1.48,1.48,0,0,0-1.2-.07.26.26,0,0,0,0,.41,2.08,2.08,0,0,0,.59.21Z" transform="translate(28.02 -77.48)"/><path class="cls-38" d="M363.05,434.45a.87.87,0,0,0,.42-.07c.13-.06.25-.19.21-.32a.3.3,0,0,0-.17-.18,1.48,1.48,0,0,0-1.2-.07.26.26,0,0,0,0,.41,2.08,2.08,0,0,0,.59.21Z" transform="translate(28.02 -77.48)"/><path class="cls-38" d="M335,428.18a.19.19,0,0,0-.07-.06.76.76,0,0,0-.55-.11,2.16,2.16,0,0,0-.55.16l-.42.21c-.1,0-.24.08-.29.18a.24.24,0,0,0,.1.29.75.75,0,0,0,.32.1,5.49,5.49,0,0,0,.81,0c.31,0,.8,0,.83-.4A.51.51,0,0,0,335,428.18Z" transform="translate(28.02 -77.48)"/><path class="cls-38" d="M357.43,432.77l-.08-.06a.87.87,0,0,0-.55-.11,1.7,1.7,0,0,0-.54.17l-.43.2c-.09,0-.24.08-.29.19a.25.25,0,0,0,.11.29.7.7,0,0,0,.32.09,7,7,0,0,0,.8,0c.31,0,.8,0,.83-.4A.52.52,0,0,0,357.43,432.77Z" transform="translate(28.02 -77.48)"/><path class="cls-38" d="M342.52,431.08a.56.56,0,0,1,0-.08.9.9,0,0,0-.48-.28,1.82,1.82,0,0,0-.57,0l-.47.05c-.11,0-.26,0-.34.09a.24.24,0,0,0,0,.3.67.67,0,0,0,.28.19,6.07,6.07,0,0,0,.74.31c.3.09.75.27.92-.12A.48.48,0,0,0,342.52,431.08Z" transform="translate(28.02 -77.48)"/><path class="cls-38" d="M339.94,433a2.65,2.65,0,0,1-.39-.26c-.08-.07-.14-.18-.24-.21a.26.26,0,0,0-.29.1.39.39,0,0,0-.06.3.77.77,0,0,0,.5.66.59.59,0,0,0,.56-.08C340.22,433.3,340.13,433.07,339.94,433Z" transform="translate(28.02 -77.48)"/><path class="cls-38" d="M341,426.91a2.34,2.34,0,0,1-.39-.25c-.07-.07-.13-.18-.24-.21a.24.24,0,0,0-.28.1.44.44,0,0,0-.07.3.77.77,0,0,0,.5.66.59.59,0,0,0,.56-.08C341.24,427.27,341.15,427,341,426.91Z" transform="translate(28.02 -77.48)"/><path class="cls-38" d="M330,430.22a.27.27,0,0,0,0-.39.76.76,0,0,0-.36-.14,2.31,2.31,0,0,0-.83,0c-.2,0-.45.2-.45.43s.3.3.47.32a1.85,1.85,0,0,0,.46-.05,1.59,1.59,0,0,1,.38-.06A.51.51,0,0,0,330,430.22Z" transform="translate(28.02 -77.48)"/><path class="cls-38" d="M325.92,429.52c-.35,0-.86.25-.95.6a.27.27,0,0,0,.13.28,1.12,1.12,0,0,0,.26.08l.42,0h.2a.68.68,0,0,0,.4-.12.44.44,0,0,0,.13-.42A.59.59,0,0,0,325.92,429.52Z" transform="translate(28.02 -77.48)"/><path class="cls-38" d="M326.06,426.41c-.34,0-.86.25-.95.6a.26.26,0,0,0,.14.28,1.12,1.12,0,0,0,.26.08l.42,0h.2a.7.7,0,0,0,.4-.12.44.44,0,0,0,.13-.42A.59.59,0,0,0,326.06,426.41Z" transform="translate(28.02 -77.48)"/><path class="cls-38" d="M332.38,432.83a1,1,0,0,0-.95.6.25.25,0,0,0,.13.27.61.61,0,0,0,.26.08,2,2,0,0,0,.42,0h.2a.68.68,0,0,0,.4-.12.44.44,0,0,0,.13-.42A.59.59,0,0,0,332.38,432.83Z" transform="translate(28.02 -77.48)"/><path class="cls-38" d="M343,433.35c-.35,0-.86.24-.95.59a.26.26,0,0,0,.13.28.61.61,0,0,0,.26.08,3,3,0,0,0,.42,0h.2a.62.62,0,0,0,.4-.13.42.42,0,0,0,.13-.41A.59.59,0,0,0,343,433.35Z" transform="translate(28.02 -77.48)"/><path class="cls-38" d="M332.33,430.65a.27.27,0,0,0-.15,0,1.07,1.07,0,0,0-.43.09.71.71,0,0,0-.26.16.24.24,0,0,0-.06.24.38.38,0,0,0,.25.17,1.6,1.6,0,0,0,.44,0c.13,0,.27,0,.38-.1a.35.35,0,0,0,.08-.4A.39.39,0,0,0,332.33,430.65Z" transform="translate(28.02 -77.48)"/><path class="cls-38" d="M336.35,433.57l-.14-.07a1,1,0,0,0-.43,0,.77.77,0,0,0-.3.06.24.24,0,0,0-.14.21.36.36,0,0,0,.18.24,1.42,1.42,0,0,0,.4.17.66.66,0,0,0,.39,0,.33.33,0,0,0,.21-.35A.37.37,0,0,0,336.35,433.57Z" transform="translate(28.02 -77.48)"/><path class="cls-38" d="M337.33,431.13a1.88,1.88,0,0,0-.23-.16,3.62,3.62,0,0,0-2.11-.51,2.15,2.15,0,0,0-1.6.74.73.73,0,0,0-.15.66c.1.31.5.42.79.48a3.81,3.81,0,0,0,1.26,0c.43-.07.82-.23,1.26-.26a1.69,1.69,0,0,0,.71-.08.55.55,0,0,0,.26-.57A.58.58,0,0,0,337.33,431.13Z" transform="translate(28.02 -77.48)"/><path class="cls-38" d="M335.17,430.82a1.49,1.49,0,0,0-1.51.52.21.21,0,0,0,0,.3.24.24,0,0,0,.13.05.21.21,0,0,0,.18-.09,1,1,0,0,1,1.05-.36.22.22,0,0,0,.27-.16A.22.22,0,0,0,335.17,430.82Z" transform="translate(28.02 -77.48)"/><path class="cls-38" d="M322.66,428.26c-.21-.06-.44-.09-.64-.14a2.25,2.25,0,0,0-.73-.05,1.2,1.2,0,0,0-.83.48.81.81,0,0,0,0,.92,1.2,1.2,0,0,0,1.09.29,3.58,3.58,0,0,0,.81-.22c.32-.13.89-.3.9-.72S322.92,428.34,322.66,428.26Z" transform="translate(28.02 -77.48)"/><path class="cls-38" d="M321.28,428.36a.73.73,0,0,0-.61.65.22.22,0,0,0,.21.23h0a.22.22,0,0,0,.22-.2.3.3,0,0,1,.24-.25.22.22,0,0,0,.18-.25A.22.22,0,0,0,321.28,428.36Z" transform="translate(28.02 -77.48)"/><path class="cls-38" d="M348.28,432.52h0a2.21,2.21,0,0,0-1.58,0,3.83,3.83,0,0,0-1.21,1,.73.73,0,0,0-.23.82.66.66,0,0,0,.52.3,3.44,3.44,0,0,0,.64,0,4,4,0,0,1,1,.1,2.86,2.86,0,0,0,1.13-.08,1.26,1.26,0,0,0,.74-.48,1,1,0,0,0-.1-1.06A2.07,2.07,0,0,0,348.28,432.52Z" transform="translate(28.02 -77.48)"/><path class="cls-38" d="M348.3,432.8a2.62,2.62,0,0,0-.88-.12.21.21,0,0,0-.21.22.22.22,0,0,0,.22.22h0a1.85,1.85,0,0,1,.72.09.81.81,0,0,1,.47.39.22.22,0,0,0,.2.13l.09,0a.21.21,0,0,0,.11-.28A1.2,1.2,0,0,0,348.3,432.8Z" transform="translate(28.02 -77.48)"/><path class="cls-38" d="M327.65,431.62h0a2.21,2.21,0,0,0-1.58,0,3.83,3.83,0,0,0-1.21,1,.73.73,0,0,0-.23.82.66.66,0,0,0,.52.3,2.3,2.3,0,0,0,.64,0,4,4,0,0,1,1,.1,2.86,2.86,0,0,0,1.13-.08,1.21,1.21,0,0,0,.74-.48,1,1,0,0,0-.1-1.06A2.07,2.07,0,0,0,327.65,431.62Z" transform="translate(28.02 -77.48)"/><path class="cls-38" d="M327.67,431.9a2.62,2.62,0,0,0-.88-.12.22.22,0,0,0,0,.44h0a1.85,1.85,0,0,1,.72.09.81.81,0,0,1,.47.39.22.22,0,0,0,.2.13l.09,0a.21.21,0,0,0,.11-.28A1.2,1.2,0,0,0,327.67,431.9Z" transform="translate(28.02 -77.48)"/><path class="cls-38" d="M349.2,428.73a1.91,1.91,0,0,0-1.21.15,3.94,3.94,0,0,0-.48.31,2.27,2.27,0,0,1-.63.34.64.64,0,0,0-.5.28c-.12.27.09.47.32.58a3,3,0,0,0,1.16.18,3.59,3.59,0,0,0,1.22-.2,1.36,1.36,0,0,0,.73-.53.76.76,0,0,0,0-.72A.92.92,0,0,0,349.2,428.73Z" transform="translate(28.02 -77.48)"/><path class="cls-38" d="M349.39,429a1.68,1.68,0,0,0-1.64.29.22.22,0,0,0,0,.3.25.25,0,0,0,.17.08.24.24,0,0,0,.15-.06,1.26,1.26,0,0,1,1.2-.21.21.21,0,1,0,.15-.4Z" transform="translate(28.02 -77.48)"/><path class="cls-38" d="M331.21,427.51a1.29,1.29,0,0,0-.32-.19,1.74,1.74,0,0,0-1.38,0,.69.69,0,0,0-.3.83,1.16,1.16,0,0,0,.88.47c.36,0,1.53,0,1.45-.56A.84.84,0,0,0,331.21,427.51Z" transform="translate(28.02 -77.48)"/><path class="cls-38" d="M331.2,427.8a.89.89,0,0,0-.58-.4,2,2,0,0,0-.6,0,.23.23,0,0,0-.21.23.21.21,0,0,0,.23.2,2.54,2.54,0,0,1,.48,0,.49.49,0,0,1,.29.19.23.23,0,0,0,.19.11.2.2,0,0,0,.11,0A.23.23,0,0,0,331.2,427.8Z" transform="translate(28.02 -77.48)"/><path class="cls-38" d="M344.77,427.71a1.33,1.33,0,0,0-.28,0,1.44,1.44,0,0,0-.64.45c-.1.12-.27.3-.22.47a.33.33,0,0,0,.19.21,1.06,1.06,0,0,0,.53.09,3,3,0,0,0,.6-.08,1,1,0,0,0,.56-.38.42.42,0,0,0-.15-.56A1.16,1.16,0,0,0,344.77,427.71Z" transform="translate(28.02 -77.48)"/><path class="cls-38" d="M352.6,431a.27.27,0,0,0,0-.39.8.8,0,0,0-.36-.14,2.31,2.31,0,0,0-.83,0c-.21,0-.45.2-.46.43s.31.3.47.32a1.42,1.42,0,0,0,.46-.06,2.65,2.65,0,0,1,.38-.05A.52.52,0,0,0,352.6,431Z" transform="translate(28.02 -77.48)"/><path class="cls-38" d="M355.57,428.44c-.35,0-.86.25-.95.6a.27.27,0,0,0,.13.28,1.12,1.12,0,0,0,.26.08,3,3,0,0,0,.42,0h.2a.68.68,0,0,0,.4-.12.44.44,0,0,0,.13-.42A.61.61,0,0,0,355.57,428.44Z" transform="translate(28.02 -77.48)"/><path class="cls-38" d="M368.57,435.84a1.82,1.82,0,0,0-.23-.15,3.71,3.71,0,0,0-2.11-.52,2.22,2.22,0,0,0-1.6.74.78.78,0,0,0-.16.67c.11.3.51.41.79.47a3.88,3.88,0,0,0,1.27,0c.43-.07.82-.24,1.26-.27a1.42,1.42,0,0,0,.71-.08.53.53,0,0,0,.26-.56A.64.64,0,0,0,368.57,435.84Z" transform="translate(28.02 -77.48)"/><path class="cls-38" d="M366.4,435.53a1.49,1.49,0,0,0-1.5.53.2.2,0,0,0,0,.3.22.22,0,0,0,.13,0,.23.23,0,0,0,.18-.08,1.05,1.05,0,0,1,1.05-.37.21.21,0,0,0,.26-.15A.22.22,0,0,0,366.4,435.53Z" transform="translate(28.02 -77.48)"/><path class="cls-38" d="M360.53,429.08h0a2.21,2.21,0,0,0-1.58,0,3.83,3.83,0,0,0-1.21,1,.72.72,0,0,0-.23.82.68.68,0,0,0,.53.3,3.33,3.33,0,0,0,.63,0,4,4,0,0,1,1,.1,2.69,2.69,0,0,0,1.13-.09,1.21,1.21,0,0,0,.74-.47,1,1,0,0,0-.1-1.06A1.94,1.94,0,0,0,360.53,429.08Z" transform="translate(28.02 -77.48)"/><path class="cls-38" d="M360.55,429.36a2.56,2.56,0,0,0-.87-.12.22.22,0,0,0-.22.22.21.21,0,0,0,.22.21h0a2.33,2.33,0,0,1,.72.09.82.82,0,0,1,.47.4.23.23,0,0,0,.2.13l.09,0a.22.22,0,0,0,.11-.29A1.21,1.21,0,0,0,360.55,429.36Z" transform="translate(28.02 -77.48)"/><path class="cls-38" d="M360.14,434.59a1.91,1.91,0,0,0-1.21.15,4.76,4.76,0,0,0-.47.31,2.19,2.19,0,0,1-.64.34.64.64,0,0,0-.49.28c-.12.27.09.47.32.58a3,3,0,0,0,1.16.18,3.63,3.63,0,0,0,1.22-.2,1.36,1.36,0,0,0,.73-.54.75.75,0,0,0,0-.71A.94.94,0,0,0,360.14,434.59Z" transform="translate(28.02 -77.48)"/><path class="cls-38" d="M360.34,434.88a1.7,1.7,0,0,0-1.64.28.21.21,0,0,0,0,.31.23.23,0,0,0,.17.08.2.2,0,0,0,.14-.06,1.27,1.27,0,0,1,1.2-.21.22.22,0,1,0,.16-.4Z" transform="translate(28.02 -77.48)"/></g><path class="cls-46" d="M1301.79,179.29c23.17,0,42-18.46,42-41.24s-18.78-41.24-42-41.24-41.94,18.47-41.94,41.24S1278.63,179.29,1301.79,179.29Z" transform="translate(28.02 -77.48)"/><polygon class="cls-46" points="1335.74 12.2 1328.58 0 1321.42 12.2 1335.74 12.2"/><polygon class="cls-46" points="1363.53 24.86 1365.03 10.85 1351.94 16.58 1363.53 24.86"/><polygon class="cls-46" points="1378.44 51.17 1388.02 40.7 1374.01 37.77 1378.44 51.17"/><polygon class="cls-46" points="1374.78 81.06 1388.79 78.14 1379.2 67.67 1374.78 81.06"/><polygon class="cls-46" points="1353.94 103.14 1367.03 108.86 1365.53 94.86 1353.94 103.14"/><polygon class="cls-46" points="1323.89 108.95 1331.05 121.15 1338.21 108.95 1323.89 108.95"/><polygon class="cls-46" points="1296.1 96.29 1294.61 110.29 1307.69 104.57 1296.1 96.29"/><polygon class="cls-46" points="1281.19 69.98 1271.61 80.45 1285.62 83.38 1281.19 69.98"/><polygon class="cls-46" points="1284.86 40.08 1270.85 43.01 1280.43 53.48 1284.86 40.08"/><polygon class="cls-46" points="1305.69 18.01 1292.6 12.28 1294.1 26.29 1305.69 18.01"/><path class="cls-47" d="M1245.16,182.77a32.43,32.43,0,0,1-17.34,19.85c-13.26,6-31.39,3.7-39.84,15.57-4.75,6.67-4.44,15.58-6.87,23.41a34.36,34.36,0,0,1-20.45,21.63c-6.79,2.55-14.34,2.89-20.82,6.16-7.32,3.69-13.32,11-20.75,13.3" transform="translate(28.02 -77.48)"/><polygon class="cls-48" points="1148.97 201.53 1148.15 204.9 1149.99 207.83 1142.02 205.89 1148.97 201.53"/><path class="cls-49" d="M1232.23,141.55c-18.53,6.73-38.16.69-56.88-1.73-21.86-2.82-26.92,1.28-42.06,15.79a50.33,50.33,0,0,1-37.77,13.49" transform="translate(28.02 -77.48)"/><polygon class="cls-48" points="1126.62 88.36 1124.72 91.69 1125.8 95.38 1117.89 90.9 1126.62 88.36"/><path class="cls-50" d="M1275.89,204.42c-7.19,15.11-3.34,32.06-2.58,48,.89,18.59-3,22.56-16.75,34.26a41.8,41.8,0,0,0-14.45,30.74" transform="translate(28.02 -77.48)"/><polygon class="cls-48" points="1267.08 237.73 1270.16 238.91 1273.15 237.52 1270.36 244.81 1267.08 237.73"/><g id="Layer_42" data-name="Layer 42"><text class="cls-51" transform="translate(932.09 443.91) scale(1.02 1)"><tspan class="cls-52">C</tspan><tspan x="16.15" y="0">arbon </tspan><tspan class="cls-53" x="98.89" y="0">O</tspan><tspan x="120.88" y="0">ut</tspan></text><rect class="cls-54" x="923.91" y="417.31" width="168.66" height="34.86"/></g><g id="Layer_43" data-name="Layer 43"><text class="cls-55" transform="translate(378.88 211.9) scale(1.02 1)"><tspan class="cls-56">C</tspan><tspan x="20.02" y="0">arbon In</tspan></text><rect class="cls-57" x="368.22" y="178.76" width="179.91" height="43.2"/></g><g id="Layer_45" data-name="Layer 45"><ellipse class="cls-58" cx="706.84" cy="539.55" rx="11.86" ry="11.66"/><text class="cls-59" transform="translate(700.4 546.17) scale(1.02 1)">C</text><ellipse class="cls-58" cx="669.97" cy="463.29" rx="11.86" ry="11.66"/><text class="cls-59" transform="translate(663.53 469.91) scale(1.02 1)">C</text><ellipse class="cls-58" cx="508.39" cy="526.89" rx="11.86" ry="11.66"/><text class="cls-59" transform="translate(501.95 533.5) scale(1.02 1)">C</text><ellipse class="cls-58" cx="569.09" cy="589.87" rx="11.86" ry="11.66"/><text class="cls-59" transform="translate(562.65 596.49) scale(1.02 1)">C</text><ellipse class="cls-58" cx="786.15" cy="524.69" rx="11.86" ry="11.66"/><text class="cls-59" transform="translate(779.71 531.31) scale(1.02 1)">C</text><ellipse class="cls-58" cx="531.88" cy="421.54" rx="11.86" ry="11.66"/><text class="cls-59" transform="translate(525.45 428.15) scale(1.02 1)">C</text><ellipse class="cls-58" cx="326.01" cy="441.87" rx="11.86" ry="11.66"/><text class="cls-59" transform="translate(319.57 448.48) scale(1.02 1)">C</text><ellipse class="cls-58" cx="374.37" cy="490.88" rx="11.86" ry="11.66"/><text class="cls-59" transform="translate(367.93 497.5) scale(1.02 1)">C</text><ellipse class="cls-58" cx="369.21" cy="409.93" rx="11.86" ry="11.66"/><text class="cls-59" transform="translate(362.78 416.55) scale(1.02 1)">C</text><ellipse class="cls-58" cx="564.19" cy="459.79" rx="11.86" ry="11.66"/><text class="cls-59" transform="translate(557.75 466.4) scale(1.02 1)">C</text></g><g id="Layer_46" data-name="Layer 46"><ellipse class="cls-60" cx="886.84" cy="193.49" rx="18.51" ry="18.2"/><text class="cls-61" transform="translate(871.75 199.22) scale(1.09 1)"><tspan class="cls-62">C</tspan><tspan x="9.37" y="0">O2</tspan></text><ellipse class="cls-63" cx="983.53" cy="257.79" rx="18.46" ry="18.15"/><text class="cls-64" transform="translate(968.48 263.5) scale(1.09 1)"><tspan class="cls-65">C</tspan><tspan x="9.34" y="0">O2</tspan></text><ellipse class="cls-66" cx="886.26" cy="379.39" rx="14.1" ry="13.87"/><text class="cls-67" transform="translate(874.76 383.76) scale(1.09 1)"><tspan class="cls-68">C</tspan><tspan x="7.14" y="0">O2</tspan></text><ellipse class="cls-66" cx="887.2" cy="461.69" rx="14.1" ry="13.87"/><text class="cls-67" transform="translate(875.7 466.06) scale(1.09 1)"><tspan class="cls-68">C</tspan><tspan x="7.14" y="0">O2</tspan></text><ellipse class="cls-66" cx="986.93" cy="515.36" rx="14.1" ry="13.87"/><text class="cls-67" transform="translate(975.43 519.73) scale(1.09 1)"><tspan class="cls-69">C</tspan><tspan x="7.14" y="0">O2</tspan></text></g><g id="Group_36179" data-name="Group 36179"><g id="Group_35948" data-name="Group 35948"><path id="Path_3411" data-name="Path 3411" class="cls-70" d="M124.93,367.05c-1.46,1.51-3,3.91-1.49,5.41a4.14,4.14,0,0,0,2.31.93c5.47.94,12.06.75,15.33,5,2.43,3.16,1.85,7.55.4,11.2,3.18-.05,6.84,2.92,8.47,5.51a8.25,8.25,0,0,1,.08,8.58c8.1-.28,16.45,6.68,16.29,14.32a9.61,9.61,0,0,1-2.79,6.88c-2.07,1.95-5.07,2.69-7.93,3.27a158.13,158.13,0,0,1-58.67.74c-4.26-.75-8.66-1.75-12-4.35a13.21,13.21,0,0,1-3.3-16.93c3.3-5.39,11-8,17.19-5.73-3.74-2.41-4.54-8.78-2.44-12.54a9.89,9.89,0,0,1,11.62-4c-3.44-5.12-.56-13.88,5.35-16.27C117.25,367.43,121.17,369,124.93,367.05Z" transform="translate(28.02 -77.48)"/></g><path id="Path_123044" data-name="Path 123044" class="cls-71" d="M382.3,433.56a4.25,4.25,0,0,0-.72-4,3.46,3.46,0,0,1-.72-1.17,3,3,0,0,0-1.8-1.91c.3-1.12-1.29-2.23-1.29-2.23-.64-2-2-2.07-2-2.07-.59-1.25-2.76-1.49-2.76-1.49C371.29,419,370,420,370,420a1.31,1.31,0,0,0-1.4-.09c-1.93-1-3.68,1.73-3.68,1.73a2,2,0,0,0-.26.61h0a1.3,1.3,0,0,1-1.44.63,4.44,4.44,0,0,0-2.47.81s-.68.59,1.14.65c0,0-1,.88-.67,1.46s1.26-.78,1.26-.78a4.23,4.23,0,0,1,2.27-1.25h0a4.31,4.31,0,0,0,.61,1.28,6.5,6.5,0,0,1,2-1.54c1.05-.43.54.65.54.65a3.27,3.27,0,0,0-.43,2.86,12.36,12.36,0,0,1,.64-2,4.12,4.12,0,0,0,.14,2.09c-.1-1.34,1.35-3.78,1.35-3.78l.25.73s-1.79,3.52-.61,3.74c.92.16,1.13-1.3,1.13-1.3a2.61,2.61,0,0,1,.69-1.7c1-1.23,1.06.22,1.06.22a8.33,8.33,0,0,1-2.27,4.91c.78.13,1.52-.76,1.52-.76,1.67.93,1.73-2.05,1.72-2.63,0,.8,1.4.82,1.4.82-.34,1,1.13,1.34,1.13,1.34a1,1,0,0,0,.65,1.32l.06,0c.08,1.37,3.33,4,3.33,4S381.57,436,382.3,433.56Z" transform="translate(28.02 -77.48)"/><path id="Path_123045" data-name="Path 123045" class="cls-72" d="M69.16,426.69c-1.11-2.15.36-4,2.06-5.31a3.2,3.2,0,0,1-1.17-.37,1.32,1.32,0,0,0-.35-.23c-.41.28-.68-.26-.68-.26-.37.19-.47-.12-.47-.12-.3.21-.44,0-.44,0-.32.27-.4.07-.4.07a.35.35,0,0,1-.34.12c-.38.4-.56.28-.56.28a.43.43,0,0,1-.28.19c.39-.39-.14-.48-.14-.48a.43.43,0,0,1,.36.1.92.92,0,0,1,.32-.1.66.66,0,0,0,.27-.12c.07-.25.32-.12.32-.12a.3.3,0,0,1,.39-.1.33.33,0,0,1,.46,0l0,0c.31-.22.51.16.51.16.62-.19.68.19.68.19a2.56,2.56,0,0,1,1.74.61,16.8,16.8,0,0,1,3.34-1.8s-.44-.52-.37-.74a.2.2,0,0,0-.12-.26h0c-.68-.1-.68-.45-.68-.45-.44,0-.44-.3-.44-.3a.38.38,0,0,1-.46-.19c-.39.1-.36-.15-.36-.15a.2.2,0,0,1-.22-.18s0,0,0-.05c-.42-.35-.33-.48-.33-.48a.44.44,0,0,1-.2-.28c.39.42.46-.15.46-.15a.43.43,0,0,1,0,.33,1,1,0,0,1,.15.48c.18-.06.26.19.26.19.17-.08.33.16.33.16a.36.36,0,0,1,.47.19h0c.33-.11.44.31.44.31.44-.11.73.48.73.48.75.12.78,1,.78,1a1.41,1.41,0,0,1,1.27.34,2.89,2.89,0,0,1,.92-1.38,1.16,1.16,0,0,1,.14-1c-.15-.13,0-.3,0-.3a.93.93,0,0,1,.13-.91c-.34-.35-.1-.6-.1-.6-.22-.42,0-.49,0-.49-.11-.4.13-.41.13-.41,0-.28.19-.3.19-.3a.66.66,0,0,1,.38-.45.23.23,0,0,1,.14-.21c-.22.48.3.31.3.31l-.3.08c0,.14-.42.34-.42.34a.24.24,0,0,1-.16.3c.13.13-.09.33-.09.33.22.16,0,.45,0,.45s.29.07.19.32a1,1,0,0,0-.09.43.63.63,0,0,1-.08.9.13.13,0,0,1,0,.2.63.63,0,0,1,.12.53,1.26,1.26,0,0,1,1.69.12,1.22,1.22,0,0,1,.59-.53s-.16-.16.18-.39a.45.45,0,0,1,.6.1H81a4.91,4.91,0,0,1,.72-3.9,5.83,5.83,0,0,0,1-3.61s.61,1-.92,3.61a4.89,4.89,0,0,0-.72,3.86.36.36,0,0,1,.27.07c-.15-.58.6-.9.6-.9s.08-.17.2,0a.13.13,0,0,1,0,.2.08.08,0,0,1-.06,0,.94.94,0,0,1,.66.35.23.23,0,0,1-.31,0,.38.38,0,0,0-.28,0,.21.21,0,0,1,.11.16s0,.07-.36,0-.29.11-.29.11a.75.75,0,0,1,.66.28.7.7,0,0,1,.08.7s.19.11.2-.23.07-.36.07-.36a.22.22,0,0,1,.12.15.3.3,0,0,0,0-.26.5.5,0,0,1,.12-.28.93.93,0,0,1,.16.72.15.15,0,0,1,.2,0l.05,0c.12.16-.06.19-.06.19s-.57.58-1.1.27a.32.32,0,0,1,0,.27,5.25,5.25,0,0,0,4,.48c3-.61,3.83.25,3.83.25a6.32,6.32,0,0,0-3.87-.11,5.3,5.3,0,0,1-4.05-.51v.14a.4.4,0,0,1-.07.58h0c-.33.23-.44,0-.44,0a1.29,1.29,0,0,1-.7.39,1.16,1.16,0,0,1-.39,1.59.78.78,0,0,1,.49.27.17.17,0,0,1,.21,0,.68.68,0,0,1,.92.21,1.08,1.08,0,0,0,.44,0,.26.26,0,0,1,.27.24v0s.35-.1.43.15c0,0,.26-.14.36,0a.25.25,0,0,1,.34-.07s.3-.29.46-.28a.27.27,0,0,1,.16-.26c.17-.05-.32.44.22.37a.25.25,0,0,1-.25.07.62.62,0,0,1-.55.21s-.09.21-.36.09c0,0-.08.22-.44,0,0,0-.14.19-.48-.15,0,0-.32.15-.56-.27a1,1,0,0,1-.92-.15s-.21.1-.31-.08a1.32,1.32,0,0,1-1-.17,3.07,3.07,0,0,1-1.64.47,1.28,1.28,0,0,1,0,1.27s.91.3.78,1c0,0,.49.44.26.81,0,0,.37.22.18.5a.34.34,0,0,1,0,.49s.19.23.06.36.21.14.11.29a1,1,0,0,1,.43.28.39.39,0,0,1,.33.06s-.58-.11-.28.39a.53.53,0,0,1-.21-.28s-.17,0-.38-.45a.2.2,0,0,1-.19-.21s0,0,0-.06-.25-.05,0-.38a.35.35,0,0,1-.07-.48s-.24-.08-.15-.5c0,0-.33-.1-.23-.76,0,0-.08-.22-.22-.22s-.62-.57-.62-.57a16.52,16.52,0,0,1-2.82,2.53,2.37,2.37,0,0,1,.09,1.81s.35.15,0,.68c0,0,.31.29,0,.51a.31.31,0,0,1-.12.42l-.06,0a.28.28,0,0,1-.21.34s0,.26-.21.26c0,0-.19.1-.21.21a.83.83,0,0,1-.19.27.38.38,0,0,1,0,.36s.07-.52-.44-.27a.54.54,0,0,1,.28-.21s-.07-.2.44-.42a.32.32,0,0,1,.22-.28s-.17-.14.18-.35c0,0-.14-.19.15-.41,0,0-.28-.18,0-.47,0,0-.46-.4-.06-.71a1,1,0,0,0-.11-.38,2.75,2.75,0,0,1,0-1.21C73.17,427.56,70.94,428.34,69.16,426.69Z" transform="translate(28.02 -77.48)"/><path id="Path_123048" data-name="Path 123048" class="cls-73" d="M173.9,430.65a.2.2,0,0,0,0,.11h0l.35-.45h0l-.1.22-.06.1v.09s.07,0,.08,0l.16-.21,0-.06h0l-.08.23v.13a.24.24,0,0,0,.14-.05l.28-.28.2-.21c.14-.13.2-.12.31,0s.23.35.37.51a.92.92,0,0,0,.49.27l-.36-.68.11-.07.18.37a.6.6,0,0,0,.54.42,3.16,3.16,0,0,1,.68.14c.13,0,.17-.08.22-.17,0,.07.13.14.18.21h0a3.12,3.12,0,0,0-.11-.53h0l.16.42h0v-.45h0a2.24,2.24,0,0,0,.14.58h0s.06-.07.06-.1v-.39h0a1.27,1.27,0,0,0,.12.39h0l.1-.49h0c0,.31,0,.57.42.64l-.07-.29a.22.22,0,0,1,.13-.28,1.19,1.19,0,0,0,.11.41c0,.13,0,0,0,.06v-.08a1,1,0,0,1,0-.34,1,1,0,0,0,.16.42,3.39,3.39,0,0,1,.15-.77l.47.45.09-.08.32.21h0c-.15-.18-.28-.37-.43-.56l.09-.09.51.53c.05,0,.05,0-.11-.34l.4.29h0v-.08l-.25-.36v-.09s.07,0,.09,0l.19.23.25.21h.08a.14.14,0,0,0,0-.09,2.14,2.14,0,0,1-.2-.32l.5.32h.16l-.35-.31c-.1-.1-.09-.13,0-.22l.18-.1a.63.63,0,0,0,.44-.69,2,2,0,0,0,0-.35.79.79,0,0,0-.78-.63v.07h-.14v-.3a.59.59,0,0,1,.17-.53l.06-.05v-.09c-.23,0-.3,0-.35.19s-.12.37-.19.55a1.26,1.26,0,0,1,.12-.81.53.53,0,0,0-.26.31,2.46,2.46,0,0,1-.14.38V428s.06-.39.1-.58v-.11h0l-.23.39h0l.07-.33h0c-.08.13-.14.26-.22.39h0v-.53c-.19.05-.41-.07-.56.11-.08-.27-.14-.3-.41-.22a.66.66,0,0,1-.48,0c-.21-.08-.26,0-.4.1l-.14.12h0l.13-.17v-.1a.17.17,0,0,0-.1,0,1.21,1.21,0,0,0-.51.7v.12h0l-.51-.56a1.12,1.12,0,0,1-.16-.28c-.16-.29-.16-.29-.52-.3v.14l-.2-.16-.24.28a.49.49,0,0,0-.09-.37h-.12a.38.38,0,0,1-.41,0,.15.15,0,0,0-.13,0c-.05,0-.1.11-.18.19v-.22a6.09,6.09,0,0,0-.61-.17.52.52,0,0,0-.31.12c-.18.13-.35.3-.52.44l-.15.15a1.69,1.69,0,0,1-.33-1.11c-.07,0-.07,0-.19.29v-.43h0l-.24.37v-.5l-.13.12-.08-.05a3.39,3.39,0,0,0-1-.56,4,4,0,0,1-.65-.33.55.55,0,0,0-.55-.06l-.41.14.33-.21h.1v-.06h-.09l.3-.13h0l.08-.14h-.08a1.33,1.33,0,0,0-.93.5l-.3-1.24a.61.61,0,0,0,0,.46,2.31,2.31,0,0,0,.08.43,1.49,1.49,0,0,1-.14-1.11h0l-.19.17v-.31c-.13.14-.28.23-.31.4s0,.09,0,.16l-.15.14a3.67,3.67,0,0,0-.09-.93,2.11,2.11,0,0,0-.18.33h0l.1-.36-.12-.05a.21.21,0,0,1-.13-.17c0-.14-.16-.2-.3-.22h-.15v-.12a1.43,1.43,0,0,0-1,.52h-.09l.1-.14a1,1,0,0,1,.79-.41.34.34,0,0,0-.43-.23l-.05,0-.73.21h-.33a.32.32,0,0,1,.09-.08l.6-.2h.11a.63.63,0,0,0-.23-.16h-.46a1,1,0,0,0-.6.35l-.17-.1a10.42,10.42,0,0,0-.19-1.38.11.11,0,0,1,0-.08l-.12.18h0a.67.67,0,0,0,0-.2c-.09-.06-.1,0-.11.06s-.08.46-.12.68h0a.11.11,0,0,1,0-.08,4.41,4.41,0,0,1,0-.81v-.09h0c-.06.3-.14.6-.21.89h0l.17-.94h0a2.15,2.15,0,0,0-.33,1.11H164a.38.38,0,0,0,0-.15,1.2,1.2,0,0,1,.2-.8.19.19,0,0,0,0-.28h0a.23.23,0,0,0-.07-.07,1.12,1.12,0,0,0-.48.57.64.64,0,0,0-.1.33h-.11a.25.25,0,0,0,0-.17,1,1,0,0,1,.42-.65.36.36,0,0,0,.11-.14,1.07,1.07,0,0,0-.69.59c0-.32.29-.49.48-.73a.26.26,0,0,0-.28.07l-.37.42a.65.65,0,0,0-.15.18.25.25,0,0,1,.08-.27l.56-.52-.08-.1-.79.64h0l.15-.23.24-.2.26-.18a.72.72,0,0,0-.49.12,1.47,1.47,0,0,0-.46.5v.06l-.13-.08a2,2,0,0,1,.6-.64l.11-.11h-.18a1.82,1.82,0,0,0-.15-.23.52.52,0,0,0-.63-.11l-.84.29c-.08,0-.13,0-.16-.06a3.73,3.73,0,0,1-.2-.56,3.31,3.31,0,0,1-.06-.54.47.47,0,0,0-.1.36,2.54,2.54,0,0,1,0,.39,5.93,5.93,0,0,1-.21-.83h0v.63h0c0-.13,0-.25-.07-.38a.65.65,0,0,0-.09-.16.17.17,0,0,0-.06-.16c-.05,0,0,0,0-.06h-.06a1,1,0,0,1-.12.23v-.33h0c-.05.2-.12.4-.18.59h0a.14.14,0,0,1,0-.09,6.21,6.21,0,0,1,.12-.66,1.53,1.53,0,0,0-.16.22c-.08.18-.14.37-.2.55a.24.24,0,0,0,0,.28h-.16v-.11a1,1,0,0,1,.23-.78l.13-.15h-.29a.33.33,0,0,1,0-.14.2.2,0,0,0-.17.12c-.14.23-.26.47-.39.72h-.11a1.11,1.11,0,0,1,.53-.78c-.06-.05-.06-.05-.26,0V418c0-.12-.17-.15-.3-.08l-.44.25h0l.32-.24h0a.49.49,0,0,0-.24,0,5.65,5.65,0,0,0-.51.34l-.29.26c0-.18.14-.3.65-.69a.59.59,0,0,0-.5.18,5.2,5.2,0,0,0-.44.35h0a.08.08,0,0,1,.07-.08l.64-.51H158a1.74,1.74,0,0,0-.75.5l-.22.28a2.15,2.15,0,0,1-.54-1.11h0a1.71,1.71,0,0,0,0,.32,1.89,1.89,0,0,0,.1.41c0,.13,0,.07,0,.11h0l-.32-.84a.66.66,0,0,0,0,.44,2.75,2.75,0,0,0,.11.41l-.48-.83c-.09,0-.1.07-.07.14l.27.56v.11h0l-.13-.18-.38-.52a.08.08,0,0,1-.08-.05c0-.06,0,.07,0,.1l.44.78h-.17c-.17-.26-.37-.53-.58-.83a.65.65,0,0,0,.09.39l.22.32a.49.49,0,0,1-.36-.29l-.21-.41-.11.06c.11.25.23.5.34.76l-.7.09a.14.14,0,0,1-.11-.05l-1-.78a2.65,2.65,0,0,1-.29-.29.48.48,0,0,0-.44-.16v.14a2.44,2.44,0,0,0,.53.43c.28.13.45.39.72.51a2.14,2.14,0,0,1,.39.28l-.26.1h0c-.22.06-.48.6-.51.81a.65.65,0,0,0,0,.39h0l.39.55-1.12.47-.46.17c-.13.06-.17.14-.14.23a.22.22,0,0,0,.24.11l.15-.06c.51-.27,1-.52,1.53-.8a.27.27,0,0,1,.31,0l.19.09-.39.56-.05.07a.14.14,0,0,0,0,.09h.08l.32-.41.09-.1c-.11.29-.32.52-.26.86.11-.15.17-.28.26-.4a2.23,2.23,0,0,1,.2-.3.16.16,0,0,1,.2-.07l.29.09v1l.26-.07v-.1a5.12,5.12,0,0,1,.11-.55.24.24,0,0,1,.12-.16c0,.28-.07.57-.09.85h0l.07-.11.24-.67a.18.18,0,0,1,.07-.1c0,.32-.23.61-.06,1a1.25,1.25,0,0,1,.46-.93c-.06.29-.1.55-.16.8s0,.19.15.19l.46-.8s0-.1.11,0a1.12,1.12,0,0,0-.32.9.41.41,0,0,1,.07-.11l.06-.11v.2l.45-.6h0v.1l-.35.52a.2.2,0,0,0,0,.11.41.41,0,0,0,.11-.07c.07-.07.12-.15.19-.23h0l-.14.36a.18.18,0,0,0,.2-.11,1.85,1.85,0,0,1,.76-.68h.17c0,.38.08.75.11,1.1,0,.07,0,.12.12.08s0-.33,0-.51a1.85,1.85,0,0,1,0-.47h0v.49h.06l.15-.51h.06V422a1.22,1.22,0,0,1-.08.5.73.73,0,0,0,.12.59v-.69h0V423h0v-.12a.85.85,0,0,1,.36-.65h0c-.07.13-.12.27-.19.4a.39.39,0,0,0,.1.52c.16-.21.3-.42.46-.62h0v.1l-.28.57c.08.09.12,0,.14,0a2.85,2.85,0,0,1,.26-.41c-.07.15-.12.32-.18.48h0l.49-.65h0v.1c-.07.1-.14.19-.2.29a.54.54,0,0,0,0,.43l.24-.52h0l-.17.45h0l.68-.65h0l-.06.1-.34.52v.12h.21c.07,0,0,.15,0,.21.22-.24.4-.52.8-.58a1.41,1.41,0,0,0-.66.76l.4-.35h0c0,.06-.11.14-.16.22h0l.63-.3h.12l-.68.4a1.89,1.89,0,0,1,.11.25l1.24-.42v.86a.62.62,0,0,0,.35.45V424c.09,0,.15,0,.15.08v.94c0,.1,0,.17.19.12l.08.14a3.78,3.78,0,0,1,.13-.67v-.16c0-.1,0-.12.15-.07a1.82,1.82,0,0,0,0,1.22,3.86,3.86,0,0,1,.07-.9h0v.71c0,.08,0,.11.1.09a.76.76,0,0,1,.24-.68,8.06,8.06,0,0,1-.13,1.1.35.35,0,0,0,.31-.21,1.18,1.18,0,0,1,.12-.36.3.3,0,0,1,.21-.26c0,.11-.1.2-.13.3a2,2,0,0,0-.11.26c-.11.31-.07.36.21.52h.16l.31-.34.08-.06h0c0,.06-.1.12-.15.17a1.68,1.68,0,0,1-.18.21c-.05.07,0,.06,0,.09h.11l.32-.26h0l-.23.25-.07.08a.11.11,0,0,0,0,.08h.08l.28-.2a.09.09,0,0,1,.1,0,1,1,0,0,0-.21.21l.83-.22h0l-.35.15-.23.1a1.18,1.18,0,0,0-.13.18h0a2.1,2.1,0,0,1,.3-.15c.08,0,.16-.15.3-.05-.21.1-.45.15-.44.46a2,2,0,0,1,1.21-.34,2.37,2.37,0,0,0,.13.54l.1.46c0,.22.08.24.33.24V427h0a5.24,5.24,0,0,0,.18,1h0a.17.17,0,0,0,0-.1l-.06-.65v-.32h0l.2,1.1c.1,0,.1,0,.1-.07l-.07-.72c0-.08,0-.11.11-.09v.53a.74.74,0,0,1,0,.21c0,.12,0,.21.17.24s.1.09.17.16a3,3,0,0,1,.08-.78h0v.08a1.59,1.59,0,0,1-.06.3.72.72,0,0,0,.24.73l.1-.35.09-.27c0-.12.14-.14.27-.12l-.08.12a.92.92,0,0,0-.22.59v.08s.07,0,.08-.05l.2-.43h0a.14.14,0,0,1,0,.09l-.1.35a.2.2,0,0,0,0,.11.25.25,0,0,0,.1-.08l.22-.37h0l-.2.55h0c.15-.07.17-.27.33-.39l-.15.47h0l.46-.43h0l-.18.43V429s.08,0,.1,0l.32-.33c0,.15-.26.26-.15.48l.36-.32h0l-.17.28v.13a.37.37,0,0,0,.14-.07l.25-.19-.14.4h0l.1-.07.29-.37h0c0,.09-.08.17-.11.24l-.1.17v.08h.07l.19-.21a1.5,1.5,0,0,0,0,.3h0a.83.83,0,0,1,.75-.52,1.25,1.25,0,0,0,.53,1.16c.07-.33-.1-.61-.11-.91h0v.11c.09.23.17.48.24.72s.13.2.33.17a.19.19,0,0,1,.15,0,.56.56,0,0,1,.16.07,2.21,2.21,0,0,0-.07-.72h0a3.62,3.62,0,0,0,.15.81c.15,0,.08-.09.09-.14a.88.88,0,0,1,0-.23c.09.2.19.39.3.6a.63.63,0,0,1,.23-.08.24.24,0,0,1,.2.07l.18-.47h0v.32l.27-.31c0,.18-.22.32-.11.55l.34-.54h0v.1ZM157.83,418.5c0-.11.12-.22.18-.34a.94.94,0,0,1,.49-.33l-.55.66Zm3.78,1.5h0l.08-.1a1,1,0,0,1,.87-.43Zm5.74,3-.08.08v-.18h0l-.48.48h0l.23-.28.23-.23c.06,0,.12-.09.19,0a.11.11,0,0,1-.07.14h0Zm-.14.72-.07-.07a2.1,2.1,0,0,0,.15-.3.76.76,0,0,1,.4-.39l-.37.57a1.06,1.06,0,0,0-.12.2Z" transform="translate(28.02 -77.48)"/><path id="Path_123049" data-name="Path 123049" class="cls-71" d="M222.21,419a4.09,4.09,0,0,1-1.26-1.12,2.9,2.9,0,0,1-1.31,0,3.24,3.24,0,0,0-1.49-.88c-.5-1.53-1.5-1.22-1.5-1.22-5.84-4.9-10.73.37-10.73.37s-2.08,2.23-1.5,3.91,3,2.79,3,2.79a9.42,9.42,0,0,0,1.55.7c-.07.21-.27.52-.92.62a5.39,5.39,0,0,0-.09,2.33s.17-1.6.64-1.8a1.7,1.7,0,0,0,1.35-.5s.42.77.82.84a8.22,8.22,0,0,0,1.84,2,5.59,5.59,0,0,0-1.71-2.36c-1-.49-.48-.54-.48-.54a.52.52,0,0,0,.71-.18h0a6.37,6.37,0,0,0,1.07,0,7.86,7.86,0,0,0,3.09-1.24c.33.34.83,1,.67,1.48a18.75,18.75,0,0,0-.4,2.24s2.09-2.56.17-4a7.7,7.7,0,0,0,.76-.63,6.87,6.87,0,0,0,1.92.06,4.16,4.16,0,0,0,1,1.28,5.14,5.14,0,0,0,1.21,1.42,6.29,6.29,0,0,0-1.66-2.85.83.83,0,0,0,.57-.71,3.52,3.52,0,0,0-.73-2.33,2,2,0,0,0,.72-.14h.18c.39,1.23.68,2.23.68,2.23l.21-1a3.88,3.88,0,0,0-.61-1.34c1.54-.44,2.43,3,2.43,3a5.69,5.69,0,0,0-.25-2.39Z" transform="translate(28.02 -77.48)"/></g></g></g></svg>