<svg xmlns="http://www.w3.org/2000/svg" viewBox="0 0 216.09 183.86"><defs><style>.cls-1{fill:#ffce01;}</style></defs><g id="Layer_2" data-name="Layer 2"><g id="Layer_14" data-name="Layer 14"><path class="cls-1" d="M216.09,45.93S171.64,4.22,163.3,1.56C158.08-.11,144.89.31,135.77.86a28.55,28.55,0,0,1-28.5,26.91A28.55,28.55,0,0,1,78.78.85C72,.05,60.11-.86,53.07,1.56,42.85,5.06,4,45.65.28,45.93S30.81,82.25,30.81,82.25L53.07,63.53s8.44,54.59-13.57,111.83c-9.2,23.94,119.9-11.29,123.8-1.83s0-110,0-110l22.27,18.72Z"/></g></g></svg>