<svg xmlns="http://www.w3.org/2000/svg" viewBox="0 0 1492.66 545.03"><defs><style>.cls-1{fill:#f7c925;}.cls-2{fill:#5e5252;}.cls-3{fill:#ec6a7c;}.cls-4{fill:#fcfcfc;}.cls-5{fill:#2b76fc;}.cls-6{fill:#3daaa1;}.cls-7{fill:#5d5152;}.cls-8{fill:#fdce09;}.cls-9{fill:#fff;}.cls-10{fill:#3ca9a0;fill-rule:evenodd;}.cls-11{fill:#ffce01;}.cls-12{fill:none;stroke:#f27243;stroke-miterlimit:10;stroke-width:2.22px;}.cls-13{fill:#2e61a1;}</style></defs><g id="Layer_2" data-name="Layer 2"><g id="Layer_17" data-name="Layer 17"><path class="cls-1" d="M513.43,103.27a7.82,7.82,0,0,0-10,2.83,8.61,8.61,0,0,0,1.43,10.52,25.11,25.11,0,0,0-4.07,5.22,44.14,44.14,0,0,0,4.81-4.19,8.63,8.63,0,0,0,9.62-.68C517.86,114.82,521.7,107.81,513.43,103.27Z"/><path class="cls-1" d="M495.16,88.72c-.37,1.83.91,4.47,2,6a22.6,22.6,0,0,0,8,6.78,14.44,14.44,0,0,0,2.16.89,15.26,15.26,0,0,0,4.14.51,12.78,12.78,0,0,0-1.43-3.26c-2.32-4.17-4.79-9-8.78-11.6a9.9,9.9,0,0,0-3.34.19C496.52,88.44,495.12,88.71,495.16,88.72Z"/><path class="cls-1" d="M501.43,88.09a7.09,7.09,0,0,0-4-1.37,3.08,3.08,0,0,0-1.66.66,3,3,0,0,0-.57,1.17,1.17,1.17,0,0,1-.07.25.2.2,0,0,1,0,.11c0,.13,0,.27,0,.4h0"/><path class="cls-2" d="M520.62,95.06a28.56,28.56,0,0,0,3.82-4,10.83,10.83,0,0,0,2.16-5,.92.92,0,0,1-.51-.53.67.67,0,0,1,.16-.69.82.82,0,0,1,.36-.18,1,1,0,0,1,.91.24.8.8,0,0,1,.17.91.62.62,0,0,1-.79.32,10.46,10.46,0,0,1-2.26,5.45,27.1,27.1,0,0,1-4.22,4.21A.71.71,0,0,1,520.62,95.06Z"/><path class="cls-2" d="M521.74,96.26a10.49,10.49,0,0,1,10.06-3.81.84.84,0,1,1,1.12,1.14.84.84,0,0,1-1.18-.67,7.47,7.47,0,0,0-5.18.3,10.71,10.71,0,0,0-4.14,3.23.62.62,0,0,1-.18.18.33.33,0,0,1-.46-.17C521.71,96.29,521.82,96.07,521.74,96.26Z"/><path class="cls-2" d="M516.65,115.12a12.17,12.17,0,0,1-6.86-4.3,16.71,16.71,0,0,1-3.32-7.46,4.68,4.68,0,0,0-2.13,1.48,13.52,13.52,0,0,0-1.43,2.14,14.51,14.51,0,0,0,9.63,11.24,7.74,7.74,0,0,0,4-2.76S516.54,115.51,516.65,115.12Z"/><path class="cls-2" d="M511.39,102.43c1.86.26,3.3,1.71,4.59,3.08a12.57,12.57,0,0,1,1.76,2.17,4.81,4.81,0,0,1,.73,2.73,11.84,11.84,0,0,1-6.36-4.76A3.55,3.55,0,0,1,511.39,102.43Z"/><ellipse class="cls-1" cx="519.54" cy="101.38" rx="7.09" ry="7.04"/><path class="cls-1" d="M503.13,87.64a6.23,6.23,0,0,1-1-3.32,2.67,2.67,0,0,1,2-2.55c1.38-.2,2.53,1,3.39,2.12a14.78,14.78,0,0,1,1.68,2.55,14.77,14.77,0,0,1,1,3.34l1.2,5.65c.31,1.44.56,3.12-.39,4.32C509.62,94.93,505.39,91.65,503.13,87.64Z"/><path class="cls-1" d="M504.27,81.83a2.28,2.28,0,0,1,1.86.55,11.21,11.21,0,0,1,3.67,5,29.21,29.21,0,0,1,1.55,6c.17,1,.33,2,.42,3a4.38,4.38,0,0,1-.69,3.34"/><path class="cls-1" d="M505.8,91.45a31.84,31.84,0,0,1,5.25,8.5,6.56,6.56,0,0,0,.71-1.76"/><path class="cls-1" d="M1049.83,90.72a7.82,7.82,0,0,1,10,2.83,8.62,8.62,0,0,1-1.43,10.53,24.6,24.6,0,0,1,4.07,5.22,45.24,45.24,0,0,1-4.81-4.19,8.65,8.65,0,0,1-9.61-.68C1045.4,102.27,1041.56,95.26,1049.83,90.72Z"/><path class="cls-1" d="M1068.11,76.17c.36,1.84-.92,4.47-2,6a22.6,22.6,0,0,1-8,6.78,13.46,13.46,0,0,1-2.16.89,15.26,15.26,0,0,1-4.14.52,12.72,12.72,0,0,1,1.44-3.27c2.31-4.17,4.78-9,8.77-11.6a10.18,10.18,0,0,1,3.34.19C1066.74,75.9,1068.14,76.16,1068.11,76.17Z"/><path class="cls-1" d="M1061.83,75.54a7.09,7.09,0,0,1,4-1.37,3.25,3.25,0,0,1,1.66.66,3,3,0,0,1,.57,1.17,1.82,1.82,0,0,0,.07.25.25.25,0,0,0,0,.12c0,.13,0,.27,0,.39h0"/><path class="cls-2" d="M1042.64,82.52a29.69,29.69,0,0,1-3.82-4,10.91,10.91,0,0,1-2.16-5,.92.92,0,0,0,.51-.53.66.66,0,0,0-.16-.69.76.76,0,0,0-.35-.17,1,1,0,0,0-.92.24.8.8,0,0,0-.17.91.63.63,0,0,0,.79.31,10.51,10.51,0,0,0,2.26,5.45,27.61,27.61,0,0,0,4.22,4.22A.69.69,0,0,0,1042.64,82.52Z"/><path class="cls-2" d="M1041.52,83.71a10.53,10.53,0,0,0-10-3.81.89.89,0,0,0-1.35-.2.88.88,0,0,0,.22,1.34.84.84,0,0,0,1.18-.66,7.46,7.46,0,0,1,5.18.29,10.71,10.71,0,0,1,4.14,3.23.62.62,0,0,0,.18.18.35.35,0,0,0,.47-.16C1041.55,83.75,1041.44,83.53,1041.52,83.71Z"/><path class="cls-2" d="M1046.61,102.57a12.17,12.17,0,0,0,6.86-4.3,16.51,16.51,0,0,0,3.32-7.45,4.58,4.58,0,0,1,2.13,1.47,14,14,0,0,1,1.43,2.14,14.51,14.51,0,0,1-9.63,11.24,7.78,7.78,0,0,1-4-2.75S1046.73,103,1046.61,102.57Z"/><path class="cls-2" d="M1051.87,89.88c-1.86.26-3.3,1.71-4.59,3.08a12.73,12.73,0,0,0-1.76,2.18,4.76,4.76,0,0,0-.73,2.72,11.77,11.77,0,0,0,6.36-4.76A3.55,3.55,0,0,0,1051.87,89.88Z"/><ellipse class="cls-1" cx="1043.72" cy="88.83" rx="7.09" ry="7.04"/><path class="cls-1" d="M1060.13,75.1a6.29,6.29,0,0,0,1-3.33,2.66,2.66,0,0,0-2-2.54c-1.39-.21-2.54,1-3.39,2.11A14,14,0,0,0,1054,73.9a14.69,14.69,0,0,0-1,3.33l-1.2,5.65c-.31,1.45-.56,3.13.39,4.33C1053.64,82.38,1057.87,79.1,1060.13,75.1Z"/><path class="cls-1" d="M1059,69.28a2.28,2.28,0,0,0-1.86.55,11.21,11.21,0,0,0-3.67,5,28.73,28.73,0,0,0-1.54,6c-.18,1-.34,2-.43,3a4.39,4.39,0,0,0,.69,3.34"/><path class="cls-1" d="M1057.46,78.9a32.16,32.16,0,0,0-5.25,8.5,6.56,6.56,0,0,1-.71-1.76"/><path class="cls-3" d="M849.86,85.51a13.41,13.41,0,0,1-6,2.32,10.2,10.2,0,0,1-6.47-.91,3.26,3.26,0,0,1-1.91-2.84,4,4,0,0,1,1.34-2.92,11.39,11.39,0,0,1,5.67-2.93c.57-.13,1.15-.21,1.79-.33-.12-.19-.22-.35-.33-.5a20.53,20.53,0,0,1-3.87-9.12,8.84,8.84,0,0,1,.29-4.36,3.41,3.41,0,0,1,4.53-2.31,10.05,10.05,0,0,1,4.65,3.29,20.8,20.8,0,0,1,4.75,9.47,1.36,1.36,0,0,0,.11.27,2.86,2.86,0,0,0,.17-.29,23.58,23.58,0,0,0,1.56-7.27A6,6,0,0,0,856,66a1.51,1.51,0,0,1,0-.46c.08-.38.11-.87.63-.86s.51.47.54.84a18.17,18.17,0,0,1-.91,5.66c-.19.74-.43,1.47-.65,2.2a.8.8,0,0,0,0,.55c.13-.19.25-.38.39-.55,1.3-1.67,2.58-3.36,3.93-5a6,6,0,0,1,1.43-1.11c.18-.1.49,0,.75,0A2.35,2.35,0,0,1,862,68a1,1,0,0,1-.42.46,14.41,14.41,0,0,0-4.45,4.31,14.66,14.66,0,0,0-1.49,2.42c.15-.06.31-.11.46-.18a21,21,0,0,1,10-2,10.91,10.91,0,0,1,5.08,1.31,3.71,3.71,0,0,1,2.13,3,4.31,4.31,0,0,1-1.43,3.25,13.34,13.34,0,0,1-5.21,3.23A20.55,20.55,0,0,1,860,85.09c-.21,0-.42,0-.73.07l.32.6A12.79,12.79,0,0,1,861.44,92a6.39,6.39,0,0,1-.21,1.68,3.29,3.29,0,0,1-4.93,2.38,9.44,9.44,0,0,1-3.67-3.14A13.67,13.67,0,0,1,849.86,85.51ZM855.41,74s0,0,0,0,0,0,0,0,0,0,0,0S855.42,74,855.41,74Z"/><path class="cls-4" d="M855.41,74s0,0,0,0,0,0,0,0,0,0,0,0S855.39,74,855.41,74Z"/><path class="cls-3" d="M322.62,75.4A9.3,9.3,0,0,1,319,78.54,3.29,3.29,0,0,1,314,76.16a6.92,6.92,0,0,1-.21-1.69,12.69,12.69,0,0,1,1.83-6.25c.1-.18.19-.36.32-.61l-.74-.07a20.18,20.18,0,0,1-6.66-1.32A13.35,13.35,0,0,1,303.34,63a4.36,4.36,0,0,1-1.43-3.25,3.73,3.73,0,0,1,2.13-3,10.91,10.91,0,0,1,5.09-1.3,20.88,20.88,0,0,1,10,2.05c.15.07.31.12.46.18a15.14,15.14,0,0,0-1.48-2.43,14.72,14.72,0,0,0-4.45-4.3,1,1,0,0,1-.43-.47,2.28,2.28,0,0,1-.08-.7c.26,0,.57-.14.75,0a5.6,5.6,0,0,1,1.43,1.11c1.35,1.64,2.63,3.32,3.93,5,.14.18.26.37.39.55a.77.77,0,0,0,0-.54c-.21-.73-.46-1.46-.65-2.2a18.48,18.48,0,0,1-.91-5.67c0-.37,0-.83.54-.83s.55.48.63.85a1.54,1.54,0,0,1-.05.47,7,7,0,0,0-.13,1.1,23.64,23.64,0,0,0,1.56,7.28,2.86,2.86,0,0,0,.17.29,1.36,1.36,0,0,0,.11-.27,20.88,20.88,0,0,1,4.75-9.48,10.2,10.2,0,0,1,4.65-3.29,3.42,3.42,0,0,1,4.53,2.32,8.84,8.84,0,0,1,.29,4.36,20.41,20.41,0,0,1-3.87,9.12c-.11.15-.2.31-.32.49.63.12,1.21.2,1.78.34a11.38,11.38,0,0,1,5.68,2.93,4,4,0,0,1,1.33,2.92,3.25,3.25,0,0,1-1.91,2.84,10.13,10.13,0,0,1-6.47.9,13.4,13.4,0,0,1-6-2.31A13.62,13.62,0,0,1,322.62,75.4Zm-2.81-18.91,0,0s0,0,0-.05l0,0S319.81,56.47,319.81,56.49Z"/><path class="cls-4" d="M319.84,56.44s0,0,0,.05l0,0s0,0,0-.05Z"/><path class="cls-5" d="M1332.73,61.66c-2-1.41-2.22-3.19-.38-4.82a9.23,9.23,0,0,1,2.77-1.71c4.27-1.61,7.05-4.84,9.5-8.45a1,1,0,0,0,.08-.73,7.94,7.94,0,0,0-.43-1.11.92.92,0,0,0-.11-.15c-.51.15-1,.34-1.55.44-4.7.86-7.81-2-7.22-6.81a1.31,1.31,0,0,0-.39-1.25c-.74-.73-1.45-1.5-2.16-2.27a1.5,1.5,0,0,1-.33-1.9,1.47,1.47,0,0,1,1.87-.44c1,.35,2,.73,3,1.12a1.18,1.18,0,0,0,1.17-.11c2.06-1.21,4.24-1.76,6.42-.38a6.43,6.43,0,0,1,2.89,5.15c0,.22,0,.44,0,.74.52,0,1,0,1.55,0a.8.8,0,0,0,.5-.37c1.72-2.81,3.42-5.64,3.82-9,.17-1.46.07-2.95.25-4.4a8.31,8.31,0,0,1,.82-2.76,2.5,2.5,0,0,1,3.82-.9,3.18,3.18,0,0,0,.3.17,17.2,17.2,0,0,1,1-1.38,2.94,2.94,0,0,1,3.67-.68,7.89,7.89,0,0,1,3.38,3.59,1.07,1.07,0,0,0,1.19.69,3.71,3.71,0,0,1,3.86,2.89,7.82,7.82,0,0,1-1.13,7,20.49,20.49,0,0,1-7.73,6.55c-.94.51-1.92.94-2.9,1.42,2.24,1.62,3.65,3.71,3.56,6.42,1.95.53,3.83,1,5.66,1.58a3,3,0,0,1,2.14,2.3,2,2,0,0,1,0,1,2.53,2.53,0,0,0,.35,2.29,3.3,3.3,0,0,1,.25,3.35,3.34,3.34,0,0,1-3.6,1.71,2.65,2.65,0,0,0-2.13.49,2.61,2.61,0,0,1-3.51-.24,48.48,48.48,0,0,1-3.43-4.11,7.88,7.88,0,0,1-.55-.93,7.62,7.62,0,0,1-7.48-.65c-.07,1.16-.1,2.26-.2,3.36a21.46,21.46,0,0,1-2.41,8.64c-1.42,2.52-3.36,4.31-6.34,4.68a3.8,3.8,0,0,1-4.38-2.53c-.17-.53-.48-.6-1-.7a16.64,16.64,0,0,1-3.72-1c-2.33-1.09-2.77-3.24-1.27-5.32Z"/><path class="cls-5" d="M122.46,46c2.21-1.12,2.63-2.86,1-4.72A8.93,8.93,0,0,0,121,39.19c-4-2.17-6.33-5.74-8.27-9.65a1,1,0,0,1,0-.74,7.07,7.07,0,0,1,.58-1,.47.47,0,0,1,.12-.14c.49.22,1,.48,1.48.65,4.54,1.49,8-.94,8.08-5.77a1.28,1.28,0,0,1,.55-1.19c.84-.62,1.64-1.29,2.45-2a1.4,1.4,0,0,0-1.21-2.53c-1,.22-2.09.45-3.13.72a1.18,1.18,0,0,1-1.14-.28c-1.88-1.48-4-2.31-6.31-1.24a6.43,6.43,0,0,0-3.56,4.71c0,.22-.08.44-.14.74-.52-.08-1-.11-1.53-.23a.79.79,0,0,1-.45-.43c-1.32-3-2.63-6-2.57-9.43,0-1.47.33-2.93.34-4.39a7.79,7.79,0,0,0-.44-2.84,2.49,2.49,0,0,0-3.66-1.41l-.32.13c-.29-.53-.53-1-.85-1.52A2.93,2.93,0,0,0,97.46.19a7.84,7.84,0,0,0-3.83,3.1,1.07,1.07,0,0,1-1.27.52,3.72,3.72,0,0,0-4.22,2.34,7.78,7.78,0,0,0,.19,7.06,20.29,20.29,0,0,0,6.77,7.54c.86.62,1.77,1.18,2.68,1.79-2.44,1.31-4.12,3.19-4.4,5.88-2,.27-3.92.47-5.82.81a3,3,0,0,0-2.43,2,2,2,0,0,0-.19,1,2.5,2.5,0,0,1-.66,2.22,3.29,3.29,0,0,0-.69,3.28,3.33,3.33,0,0,0,3.33,2.19,2.66,2.66,0,0,1,2,.77,2.6,2.6,0,0,0,3.5.24,48.11,48.11,0,0,0,4-3.61,6.81,6.81,0,0,0,.67-.85,7.63,7.63,0,0,0,7.5.37c-.09,1.16-.21,2.25-.25,3.35a21.36,21.36,0,0,0,1.21,8.89c1.08,2.68,2.75,4.73,5.66,5.5a3.82,3.82,0,0,0,4.68-1.92c.23-.51.56-.53,1-.57a16.65,16.65,0,0,0,3.81-.5c2.46-.77,3.19-2.84,2-5.11Z"/></g><g id="Layer_10" data-name="Layer 10"><path class="cls-6" d="M224.76,218.76c12.66-28.73-5.19-116.62-5.19-116.62,25.63,53.74,23.21,113.56,23.21,113.56,1.1-59.46,25.11-92.95,25.11-92.95-19.48,45.06-9.9,112.79-9.9,112.79,18.56-16.82,11.15-86.08,11.15-86.08,15.37,41.41,9.23,77.36,9.23,77.36,9.35-56.67,36.05-84.62,36.05-84.62-18.27,62.71-14.14,97-14.14,97a196.6,196.6,0,0,0,16.52-70c14,22.31-3.06,77.35-3.06,77.35,28.95-23.56,26.89-125.48,26.89-125.48C353,181.18,344.5,246.4,344.5,246.4c8.57-51.31,42.51-85.76,42.51-85.76-26.33,48.19-15.13,74.65-15.13,74.65-.5-34.86,16.49-59.72,16.49-59.72-17.64,41.37-2.41,76.5-2.41,76.5-13.5-52.06,32.65-111.19,32.65-111.19-30.51,56.85-16,129.15-16,129.15h-339c-14.22,0-28.69.76-42.89.05-1-.05-2.05-.35-3.07-.35-.28,0,.22-26.42.28-28.33,1-32.94-1.68-69.11-18-98.53,0,0,14.81,11.45,26.26,76.75,0,0,24.91-50.49,12.79-113.11,0,0,23.48,68.68,3.33,115.8,0,0,18.22-30.29,12.83-74.73,0,0,8,28.28,1,61.94,0,0,13.53-22.89,2.9-76.07,0,0,19,41.74,15.63,93.58,0,0,6.06-65.31,26.93-120.52,0,0-18.85,83.49-14.14,130.62,0,0,8.08-59.93,22.9-78.1,0,0-15.75,38.5,1.75,73.51,0,0,17.77-31.77-3.1-100.44,0,0,23.09,35,19.29,92.23,0,0,2.25-36.35,21.78-72.71,0,0-18.85,65.31-8.08,86.18,0,0,20.2-63.29,14.14-111.76,0,0,11.69,38.37,1.13,96.27,0,0,9.64-58.57,39.26-104.35,0,0-30.29,80.79-26.25,111.76,0,0,8.08-53.86,26.25-72.71,0,0-20.87,45.11-4.71,69.34,0,0,16.16-45.12,14.14-58.58,0,0,11.12,29,.18,58.58,0,0,26.75-31.64,1.84-103,0,0,28.28,40.39,16.83,95.6"/><path class="cls-6" d="M601.23,218.76C613.89,190,596,102.14,596,102.14c25.63,53.74,23.21,113.56,23.21,113.56,1.1-59.46,25.11-92.95,25.11-92.95-19.48,45.06-9.9,112.79-9.9,112.79,18.56-16.82,11.15-86.08,11.15-86.08,15.37,41.41,9.23,77.36,9.23,77.36,9.35-56.67,36-84.62,36-84.62-18.27,62.71-14.14,97-14.14,97a196.6,196.6,0,0,0,16.52-70c14,22.31-3.06,77.35-3.06,77.35,28.95-23.56,26.88-125.48,26.88-125.48C729.5,181.18,721,246.4,721,246.4c8.57-51.31,42.51-85.76,42.51-85.76-26.33,48.19-15.13,74.65-15.13,74.65-.5-34.86,16.49-59.72,16.49-59.72-17.64,41.37-2.41,76.5-2.41,76.5-13.5-52.06,32.65-111.19,32.65-111.19-30.51,56.85-16,129.15-16,129.15H394s6.73-83.4-17.51-127.16c0,0,14.81,11.45,26.26,76.75,0,0,24.91-50.49,12.79-113.11,0,0,23.48,68.68,3.32,115.8,0,0,18.23-30.29,12.84-74.73,0,0,8.05,28.28,1,61.94,0,0,13.53-22.89,2.9-76.07,0,0,19,41.74,15.63,93.58,0,0,6.06-65.31,26.93-120.52,0,0-18.85,83.49-14.14,130.62,0,0,8.08-59.93,22.89-78.1,0,0-15.74,38.5,1.76,73.51,0,0,17.77-31.77-3.1-100.44,0,0,23.09,35,19.29,92.23,0,0,2.25-36.35,21.78-72.71,0,0-18.85,65.31-8.08,86.18,0,0,20.2-63.29,14.14-111.76,0,0,11.69,38.37,1.13,96.27,0,0,9.64-58.57,39.26-104.35,0,0-30.29,80.79-26.26,111.76,0,0,8.08-53.86,26.26-72.71,0,0-20.87,45.11-4.71,69.34,0,0,16.16-45.12,14.14-58.58,0,0,11.12,29,.18,58.58,0,0,26.75-31.64,1.84-103,0,0,28.28,40.39,16.83,95.6"/><path class="cls-6" d="M922.76,218.76c12.66-28.73-5.19-116.62-5.19-116.62,25.63,53.74,23.21,113.56,23.21,113.56,1.1-59.46,25.11-92.95,25.11-92.95-19.48,45.06-9.9,112.79-9.9,112.79,18.56-16.82,11.15-86.08,11.15-86.08,15.37,41.41,9.23,77.36,9.23,77.36,9.35-56.67,36-84.62,36-84.62-18.27,62.71-14.14,97-14.14,97a196.6,196.6,0,0,0,16.52-70c14,22.31-3.06,77.35-3.06,77.35,29-23.56,26.89-125.48,26.89-125.48,12.4,60.11,3.87,125.33,3.87,125.33,8.57-51.31,42.51-85.76,42.51-85.76-26.33,48.19-15.13,74.65-15.13,74.65-.5-34.86,16.49-59.72,16.49-59.72-17.64,41.37-2.41,76.5-2.41,76.5-13.5-52.06,32.65-111.19,32.65-111.19-30.51,56.85-16,129.15-16,129.15H715.51s6.73-83.4-17.51-127.16c0,0,14.81,11.45,26.26,76.75,0,0,24.91-50.49,12.79-113.11,0,0,23.48,68.68,3.33,115.8,0,0,18.22-30.29,12.83-74.73,0,0,8,28.28,1,61.94,0,0,13.53-22.89,2.9-76.07,0,0,19,41.74,15.63,93.58,0,0,6.06-65.31,26.93-120.52,0,0-18.85,83.49-14.14,130.62,0,0,8.08-59.93,22.9-78.1,0,0-15.75,38.5,1.75,73.51,0,0,17.77-31.77-3.1-100.44,0,0,23.09,35,19.29,92.23,0,0,2.25-36.35,21.78-72.71,0,0-18.85,65.31-8.08,86.18,0,0,20.2-63.29,14.14-111.76,0,0,11.69,38.37,1.13,96.27,0,0,9.64-58.57,39.26-104.35,0,0-30.29,80.79-26.25,111.76,0,0,8.08-53.86,26.25-72.71,0,0-20.87,45.11-4.71,69.34,0,0,16.16-45.12,14.14-58.58,0,0,11.12,29,.18,58.58,0,0,26.75-31.64,1.84-103,0,0,28.28,40.39,16.83,95.6"/><path class="cls-6" d="M1299,218.7c12.66-28.74-5.15-116.62-5.15-116.62,25.59,53.74,23.16,113.56,23.16,113.56,1.11-59.46,25.11-93,25.11-93-19.47,45.07-9.92,112.79-9.92,112.79,18.54-16.83,11.16-86.08,11.16-86.08,15.34,41.41,9.2,77.36,9.2,77.36,9.36-56.67,36-84.63,36-84.63-18.27,62.71-14.15,96.94-14.15,96.94a196.57,196.57,0,0,0,16.52-69.94c14,22.3-3.07,77.34-3.07,77.34C1416.8,222.89,1414.76,121,1414.76,121c12.38,60.1,3.84,125.31,3.84,125.31,8.57-51.31,42.48-85.76,42.48-85.76-26.31,48.19-15.12,74.65-15.12,74.65-.49-34.86,16.49-59.72,16.49-59.72C1444.81,216.84,1460,252,1460,252c-13.48-52.05,32.64-111.18,32.64-111.19-5.71,7.26-8.29,16.44-10.42,25.26-4,16.68-7.33,34.12-8.62,51.46-1.32,17.69,2.05,35.3.69,52.85,0-.11-53.27-.41-56.85-.41l-82.26,0-93.2,0-84.14,0h-65.93s6.74-83.4-17.46-127.15c0,0,14.8,11.44,26.21,76.74,0,0,24.9-50.5,12.81-113.1,0,0,23.44,68.66,3.29,115.79,0,0,18.21-30.3,12.84-74.73,0,0,8,28.27,1,61.93,0,0,13.52-22.89,2.91-76.07,0,0,19,41.73,15.6,93.57,0,0,6.07-65.3,26.93-120.51,0,0-18.85,83.48-14.16,130.61,0,0,8.09-59.92,22.89-78.1,0,0-15.74,38.5,1.74,73.5,0,0,17.75-31.77-3.08-100.43,0,0,23.06,35,19.25,92.23,0,0,2.26-36.36,21.77-72.72,0,0-18.84,65.31-8.09,86.18,0,0,20.2-63.29,14.15-111.76,0,0,11.68,38.37,1.11,96.27,0,0,9.65-58.57,39.25-104.36,0,0-30.28,80.8-26.26,111.76,0,0,8.09-53.86,26.25-72.71,0,0-20.86,45.11-4.72,69.34,0,0,16.15-45.12,14.14-58.58,0,0,11.1,28.95.16,58.58,0,0,26.73-31.65,1.87-103,0,0,28.23,40.39,16.79,95.6"/><path class="cls-7" d="M17.71,245.11c175.5-1.72,360.81,11.43,360.81,11.43s207.79,17,517.66,0,578.53,0,578.53,0V545H17.71Z"/><path class="cls-8" d="M310.16,177.63c0-2-1.83-3.8-4.46-4.59,1.12-2.18,1.2-4.44-.07-5.84s-3.7-1.56-6.08-.52c-.83-2.46-2.51-4.16-4.48-4.16s-3.5,1.56-4.37,3.86c-2.35-1.42-4.88-1.61-6.39-.23s-1.58,4.3-.1,6.95c-2.5.82-4.25,2.52-4.25,4.51s1.57,3.5,3.87,4.37a4.49,4.49,0,0,0,.66,4.37c1.32,1.46,3.71,1.56,6.09.52.83,2.46,2.51,4.17,4.48,4.17a4.49,4.49,0,0,0,3.68-2.44c2.19,1.12,4.44,1.2,5.84-.07s1.56-3.76.49-6.17C308,181.68,310.16,179.83,310.16,177.63Z"/><circle class="cls-9" cx="295.06" cy="176.78" r="5.66"/><path class="cls-8" d="M1381.72,204.69c0-2.12-1.9-3.93-4.62-4.75,1.17-2.25,1.24-4.59-.07-6s-3.83-1.62-6.29-.54c-.86-2.55-2.6-4.31-4.63-4.31s-3.63,1.62-4.52,4c-2.43-1.47-5-1.67-6.62-.24s-1.63,4.45-.1,7.19c-2.59.85-4.39,2.6-4.39,4.66s1.62,3.63,4,4.52a4.67,4.67,0,0,0,.68,4.53c1.37,1.5,3.84,1.61,6.3.54.86,2.54,2.6,4.3,4.63,4.3a4.66,4.66,0,0,0,3.82-2.52c2.25,1.16,4.59,1.24,6-.07s1.62-3.89.51-6.38C1379.51,208.88,1381.72,207,1381.72,204.69Z"/><circle class="cls-9" cx="1366.1" cy="203.81" r="5.86"/><path class="cls-8" d="M101.29,187.57c0-2.42-2.17-4.5-5.28-5.43,1.33-2.58,1.41-5.25-.08-6.9s-4.39-1.85-7.21-.62c-1-2.91-3-4.93-5.29-4.93s-4.15,1.85-5.17,4.57c-2.78-1.68-5.77-1.9-7.57-.27s-1.86,5.09-.11,8.23c-3,1-5,3-5,5.32s1.86,4.15,4.58,5.18a5.31,5.31,0,0,0,.78,5.17c1.56,1.72,4.39,1.84,7.21.62,1,2.91,3,4.93,5.29,4.93a5.33,5.33,0,0,0,4.36-2.89c2.59,1.33,5.26,1.42,6.91-.08s1.85-4.45.58-7.3C98.76,192.36,101.29,190.17,101.29,187.57Z"/><circle class="cls-9" cx="83.42" cy="186.56" r="6.7"/><path class="cls-8" d="M553.84,173.56c0-1.81-1.62-3.36-3.94-4.06,1-1.93,1.06-3.92-.06-5.15s-3.28-1.38-5.39-.47c-.73-2.17-2.21-3.68-4-3.68s-3.1,1.39-3.86,3.42c-2.08-1.26-4.32-1.42-5.66-.21s-1.39,3.81-.08,6.15c-2.22.72-3.76,2.23-3.76,4s1.39,3.1,3.42,3.87a4,4,0,0,0,.59,3.86c1.16,1.29,3.28,1.38,5.38.46.73,2.18,2.22,3.69,4,3.69a4,4,0,0,0,3.26-2.16c1.92,1,3.92,1.06,5.15-.06s1.39-3.33.44-5.46C552,177.14,553.84,175.51,553.84,173.56Z"/><circle class="cls-9" cx="540.49" cy="172.81" r="5.01"/><path class="cls-8" d="M1246.62,185.5c0-1.8-1.62-3.35-3.94-4.05,1-1.93,1-3.92-.06-5.16s-3.28-1.38-5.39-.46c-.73-2.18-2.21-3.68-4-3.68s-3.1,1.38-3.86,3.41c-2.08-1.25-4.32-1.42-5.66-.2s-1.39,3.81-.08,6.15c-2.22.72-3.76,2.22-3.76,4s1.39,3.1,3.42,3.86a4,4,0,0,0,.59,3.87c1.16,1.28,3.28,1.38,5.38.46.73,2.18,2.22,3.68,4,3.68a4,4,0,0,0,3.26-2.16c1.93,1,3.93,1.06,5.16,0s1.39-3.33.44-5.46C1244.73,189.09,1246.62,187.45,1246.62,185.5Z"/><circle class="cls-9" cx="1233.27" cy="184.75" r="5.01"/><path class="cls-8" d="M943.92,159.67c0-1.81-1.62-3.36-3.94-4,1-1.93,1.06-3.93-.06-5.16s-3.28-1.38-5.39-.46c-.73-2.18-2.21-3.68-3.95-3.68s-3.1,1.38-3.86,3.41c-2.08-1.25-4.32-1.42-5.66-.2s-1.39,3.8-.08,6.15c-2.22.72-3.76,2.22-3.76,4s1.39,3.1,3.42,3.86a4,4,0,0,0,.59,3.87c1.16,1.28,3.28,1.37,5.38.46.73,2.17,2.22,3.68,4,3.68a4,4,0,0,0,3.26-2.16c1.92,1,3.92,1.06,5.15-.05s1.39-3.33.44-5.46C942,163.26,943.92,161.62,943.92,159.67Z"/><circle class="cls-9" cx="930.57" cy="158.92" r="5.01"/><path class="cls-8" d="M780.34,205.62c0-2.63-2.35-4.87-5.72-5.89,1.44-2.8,1.54-5.69-.09-7.48s-4.76-2-7.81-.67c-1.06-3.16-3.22-5.34-5.74-5.35s-4.49,2-5.6,5c-3-1.82-6.26-2.06-8.21-.3s-2,5.53-.12,8.93c-3.21,1.05-5.45,3.23-5.45,5.78s2,4.49,5,5.6c-.63,2.16-.41,4.22.85,5.61,1.69,1.87,4.76,2,7.81.67,1.07,3.16,3.22,5.35,5.74,5.35,1.88,0,3.55-1.22,4.73-3.13,2.8,1.44,5.7,1.53,7.49-.09s2-4.83.63-7.92C777.6,210.82,780.34,208.45,780.34,205.62Z"/><circle class="cls-9" cx="760.97" cy="204.53" r="7.26"/><path class="cls-8" d="M1164.7,210.5c0-2.27-2-4.21-5-5.09,1.24-2.42,1.33-4.92-.08-6.47s-4.11-1.73-6.75-.58c-.92-2.73-2.78-4.62-5-4.62s-3.89,1.74-4.85,4.29c-2.6-1.58-5.41-1.78-7.09-.26s-1.74,4.78-.1,7.71c-2.78.91-4.71,2.79-4.71,5s1.74,3.89,4.28,4.85a5,5,0,0,0,.74,4.84c1.46,1.62,4.11,1.73,6.75.58.92,2.73,2.79,4.62,5,4.62a5,5,0,0,0,4.09-2.7c2.42,1.24,4.93,1.33,6.47-.08s1.74-4.17.55-6.84C1162.32,215,1164.7,212.94,1164.7,210.5Z"/><circle class="cls-9" cx="1147.95" cy="209.56" r="6.28"/><path class="cls-10" d="M981.6,248.54c-1-.43-10.47.4-11.37,0-.39-.17,5.9-39.57,5.71-39.81s2.83-2.4,2.85-2.71A104.8,104.8,0,0,1,980,195c.35-2.27.8-4.53,1.23-6.78q.56-2.88,1.19-5.73c.43-1.91.91-3.82,1.38-5.72.42-1.68.84-3.37,1.28-5.05s.92-3.36,1.39-5,.88-3.12,1.33-4.68.88-2.93,1.32-4.39.93-3,1.41-4.53.92-2.94,1.39-4.41q.81-2.46,1.63-4.94c.11-.34.23-.67.34-1l2.59,1c-.2.62-.39,1.25-.59,1.87L994.5,150c-.47,1.48-.93,3-1.39,4.43s-1,3.06-1.43,4.58-.89,2.91-1.32,4.37-.81,2.82-1.21,4.24-.77,2.7-1.13,4.06c-.4,1.53-.78,3.06-1.16,4.6-.32,1.32-.64,2.64-1,4-.24,1.08-.47,2.16-.68,3.24q-.53,2.73-1,5.46c-.21,1.21-.43,2.42-.56,3.63-.31,2.78-.63,5.55-.83,8.33-.16,2.16-.14,4.33-.19,6.5C982.64,207.79,981.59,248.06,981.6,248.54Z"/><path class="cls-10" d="M982,147.81l2.81-.23c0,.61,0,1.21-.08,1.82-.21,3.76-.37,7.53-.66,11.28-.38,4.93-.85,9.84-1.29,14.76-.1,1.11-.19,2.23-.37,3.34s-.44,2.23-.68,3.35-.49,2.19-.72,3.29c-.32,1.55-.64,3.11-.94,4.67-.24,1.28-.45,2.56-.67,3.84-.61,3.51-1,7-1.34,10.57a19.09,19.09,0,0,1-.71,2.82c-.35,1.28-.73,2.55-1.11,3.83-.13.47-.29.93-.46,1.39a.3.3,0,0,1-.22.19c-1.36.19-2.74.36-4.19.54.18-.46.36-.87.51-1.29.65-1.79,1.32-3.58,1.92-5.37q.79-2.37,1.45-4.75c.44-1.56.82-3.12,1.17-4.69.44-1.89.85-3.79,1.21-5.69.34-1.75.62-3.5.9-5.26.84-5.13,1.44-10.3,1.88-15.48.37-4.45.66-8.9,1-13.35.22-3.09.4-6.18.59-9.27Z"/><path class="cls-10" d="M972.43,140.23l1.91-.38c0,.39.07.76.11,1.12a7.22,7.22,0,0,0,.76,2.74,4.77,4.77,0,0,0,.75,1.08,2,2,0,0,1,.46,1.22c.69,3.59,1.39,7.19,2,10.79.57,3.21,1.07,6.41,1.6,9.62a.61.61,0,0,1,0,.19q-.54,5.65-1.09,11.29a1.14,1.14,0,0,1-.11.43C977.47,165.6,974.89,152.92,972.43,140.23Z"/><path class="cls-10" d="M991.27,129.4c3.46,2,5.84,4.66,6.42,8.67a20.29,20.29,0,0,1-.1,5.92c-.34-.13-.66-.24-1-.38a11.8,11.8,0,0,1-3.91-2.51,6.7,6.7,0,0,1-1.85-4.32A52.57,52.57,0,0,1,991.27,129.4Z"/><path class="cls-10" d="M980.66,150.24c.27-1.06.5-2.06.79-3a13.53,13.53,0,0,1,2.54-4.89,11.7,11.7,0,0,1,6.11-3.66l.3-.07a3.23,3.23,0,0,1,.33,2.27,38.14,38.14,0,0,1-1.42,4.79,6.87,6.87,0,0,1-4.68,4.05A15.41,15.41,0,0,1,980.66,150.24Z"/><path class="cls-10" d="M998.48,143.45c0-.9.12-1.8.11-2.7s-.14-2-.19-3.07a1,1,0,0,1,.17-.62,10.13,10.13,0,0,1,5.22-3.46c1.11-.32,2.26-.5,3.51-.77-.32.9-.59,1.65-.87,2.4a28.63,28.63,0,0,1-2,4.68,7,7,0,0,1-5.79,3.58h-.12A.15.15,0,0,1,998.48,143.45Z"/><path class="cls-10" d="M975,136.72a16.92,16.92,0,0,1,3.22,1.79,10.66,10.66,0,0,1,3.74,4.8.81.81,0,0,1,0,.74,19.39,19.39,0,0,0-1.79,5.23c0,.06,0,.12-.07.22a7.67,7.67,0,0,1-2.11-1.19,6.87,6.87,0,0,1-2.63-5.07c-.18-1.82-.21-3.66-.3-5.49C975,137.44,975,137.12,975,136.72Z"/><path class="cls-10" d="M970.55,139.33a8.27,8.27,0,0,1-3.14-1.32,6.85,6.85,0,0,1-2.61-3.89c-.58-2.12-1-4.27-1.6-6.54.83.25,1.54.46,2.23.7a10.87,10.87,0,0,1,5.82,4.53.93.93,0,0,1,.15.86A19.78,19.78,0,0,0,970.55,139.33Z"/><path class="cls-10" d="M993.66,121.6c2.84,2.12,4.88,4.68,5.27,8.28.27,2.49-.15,5.86-.79,6.48a1,1,0,0,1-.11-.2,12.05,12.05,0,0,0-5.27-6.71.62.62,0,0,1-.36-.68c.17-1.17.29-2.34.48-3.5s.44-2.18.66-3.27C993.57,121.88,993.61,121.77,993.66,121.6Z"/><path class="cls-10" d="M999.62,129.3a12.19,12.19,0,0,0-1.23-3.62,13.8,13.8,0,0,0-3.4-4,.73.73,0,0,1-.31-.83,60.86,60.86,0,0,1,2.08-6.6s0,0,.12-.11c.52.59,1.07,1.16,1.56,1.77a11,11,0,0,1,2.3,9.48c-.28,1.17-.63,2.32-1,3.48A3,3,0,0,1,999.62,129.3Z"/><path class="cls-10" d="M983.38,135.67a17.77,17.77,0,0,1,.78-6.7,10.9,10.9,0,0,1,4.71-5.73c.49-.3,1-.58,1.49-.86a3.89,3.89,0,0,1,.49-.22c0,1.91.08,3.76,0,5.6a18.55,18.55,0,0,1-.33,1.88c0,.11-.2.2-.32.25a15.41,15.41,0,0,0-3.66,2,11,11,0,0,0-2.86,3.31C983.59,135.34,983.51,135.45,983.38,135.67Z"/><path class="cls-10" d="M968.46,110.43c-.72-.55-1.45-1.17-2.24-1.71a12.39,12.39,0,0,0-3.58-1.6.74.74,0,0,1-.62-.6c-.47-2.07-1-4.12-1.47-6.25a17.45,17.45,0,0,1,3.65,1.26,10.84,10.84,0,0,1,5.34,5.79.51.51,0,0,1,.05.31C969.21,108.58,968.82,109.52,968.46,110.43Z"/><path class="cls-10" d="M1013.8,106.26c-.81,2.06-1.59,4.06-2.39,6.06a.62.62,0,0,1-.39.34,13,13,0,0,0-6.52,2.67c0-.36-.06-.67-.13-1-.14-.65-.33-1.29-.47-2a.81.81,0,0,1,.09-.55,11,11,0,0,1,7.93-5.38c.54-.1,1.08-.16,1.62-.24A1.69,1.69,0,0,1,1013.8,106.26Z"/><path class="cls-10" d="M977.23,109.32c3.16,1.38,5.69,3.33,6.95,6.62.22.6.39,1.22.56,1.84a.53.53,0,0,1,0,.41c-.52.86-1.06,1.72-1.57,2.53-.48-.55-1-1.2-1.55-1.79a12.85,12.85,0,0,0-3.64-2.55.66.66,0,0,1-.43-.62l-.27-5.49C977.23,110,977.23,109.67,977.23,109.32Z"/><path class="cls-10" d="M982.55,142.83a2.19,2.19,0,0,1-.12-.54,14.86,14.86,0,0,1,2.68-7.91,11.9,11.9,0,0,1,5.39-3.8c-.13,1.28-.3,2.46-.36,3.64s0,2.38,0,3.65A12.69,12.69,0,0,0,982.55,142.83Z"/><path class="cls-10" d="M971.35,125c-1.46-6.13-.29-10.82,5-14.52.07.92.16,1.78.21,2.64s.1,1.72.15,2.64l-1-.39c0,.61,0,1.18,0,1.75s.06,1.07,0,1.6a.81.81,0,0,1-.27.54,11.82,11.82,0,0,0-3.18,3.61C972,123.55,971.68,124.27,971.35,125Z"/><path class="cls-10" d="M975.3,129.57c.82.45,1.58.82,2.31,1.25a10.78,10.78,0,0,1,4.84,5.92,2,2,0,0,1,0,1.27c-.29,1-.5,2.07-.74,3.11-.3-.39-.6-.82-.93-1.22a14,14,0,0,0-4.86-3.58.58.58,0,0,1-.4-.54c-.06-1.67-.15-3.33-.22-5C975.31,130.42,975.31,130.07,975.3,129.57Z"/><path class="cls-10" d="M999.41,135c.13-1.21.24-2.42.38-3.63a1.56,1.56,0,0,1,.28-.58,11.32,11.32,0,0,1,8.09-4.57l.73-.09c.08,0,.16,0,.31,0-.21.58-.4,1.12-.6,1.66-.52,1.36-1.05,2.71-1.56,4.06a.58.58,0,0,1-.57.41,14.23,14.23,0,0,0-4.79,1.36C1000.91,134,1000.19,134.54,999.41,135Z"/><path class="cls-10" d="M970.68,130.8a10.44,10.44,0,0,0-3.41-2.53c-1-.46-2.11-.82-3.18-1.19a.54.54,0,0,1-.42-.43c-.39-1.71-.78-3.41-1.16-5.12-.06-.28-.12-.56-.19-.93.48.14.91.24,1.33.37a11.38,11.38,0,0,1,5.89,3.78,22.09,22.09,0,0,1,1.27,2,.87.87,0,0,1,.1.42C970.84,128.36,970.75,129.58,970.68,130.8Z"/><path class="cls-10" d="M1000.93,108.57c3.62,4.76,3.59,9.33.88,14.19-.13-.85-.21-1.75-.41-2.63a12.13,12.13,0,0,0-3-5.43.77.77,0,0,1-.16-1C999.11,112,1000,110.3,1000.93,108.57Z"/><path class="cls-10" d="M988.63,115.54c.15.84.3,1.63.44,2.42.2,1.15.38,2.3.58,3.44a.6.6,0,0,1-.38.74,12.23,12.23,0,0,0-5.28,5.3c-.1.22-.19.45-.29.68a6.65,6.65,0,0,1-.32.66,13.72,13.72,0,0,1,.41-7.46A13,13,0,0,1,988.63,115.54Z"/><path class="cls-10" d="M973,104.35c.71,2,1.37,3.89,2.06,5.78.09.26,0,.39-.2.55a13.49,13.49,0,0,0-3.49,4.1,11.32,11.32,0,0,0-1.17,3.58c-.77-.84-1.36-5.06-1-7.41A12.65,12.65,0,0,1,973,104.35Z"/><path class="cls-10" d="M1000.61,128.88c.14-.45.3-.91.41-1.38.21-.88.34-1.78.61-2.64a3.77,3.77,0,0,1,.8-1.2,11.19,11.19,0,0,1,7.06-3.67l1-.15h.38c-.27.72-.52,1.42-.78,2.12-.38,1-.77,2-1.14,3.07a.55.55,0,0,1-.52.42,13.66,13.66,0,0,0-5.72,1.87C1002,127.78,1001.32,128.35,1000.61,128.88Z"/><path class="cls-10" d="M970.41,124.63a12.43,12.43,0,0,0-7.09-4.52.76.76,0,0,1-.64-.66c-.35-1.69-.73-3.37-1.1-5,0-.08,0-.15,0-.26,3.6.84,6.59,2.5,8.34,5.9a3.11,3.11,0,0,1,.13,1.08C970.16,122.28,970.28,123.45,970.41,124.63Z"/><path class="cls-10" d="M982.61,135a13,13,0,0,0-6.18-5.64.81.81,0,0,1-.58-.81c0-1.73-.12-3.45-.18-5.18,0,0,0-.1,0-.27.8.44,1.56.81,2.29,1.25a10.57,10.57,0,0,1,4.85,6,1.67,1.67,0,0,1,0,.59c-.08,1.19-.18,2.38-.27,3.57C982.6,134.65,982.61,134.81,982.61,135Z"/><path class="cls-10" d="M961.12,107.47a12.62,12.62,0,0,1,7,3.84.85.85,0,0,1,.18.55,15.59,15.59,0,0,0,.56,5.08c0,.06,0,.13,0,.19s0,.05,0,0c-.72-.57-1.43-1.18-2.2-1.72a14.11,14.11,0,0,0-3.88-1.74.56.56,0,0,1-.32-.3C962,111.45,961.59,109.51,961.12,107.47Z"/><path class="cls-10" d="M982.39,127.56A12.7,12.7,0,0,0,977.1,123a.57.57,0,0,1-.39-.55c-.05-1.44-.12-2.88-.18-4.31,0-.51,0-1,0-1.57l.34.12a13.42,13.42,0,0,1,4.84,3.46c.27.32.49.69.77,1,.51.54.28,1.12.15,1.7a14,14,0,0,0-.2,4.33Z"/><path class="cls-10" d="M1012.2,113.25c-.45,1.26-.87,2.42-1.29,3.57-.25.65-.52,1.29-.76,2a.68.68,0,0,1-.63.47,12.81,12.81,0,0,0-5,1.73c-.43.26-.84.56-1.32.89l.47-1.25a14.14,14.14,0,0,0,.89-4,.9.9,0,0,1,.26-.51,11.18,11.18,0,0,1,5.6-2.57C1011,113.42,1011.53,113.35,1012.2,113.25Z"/><path class="cls-10" d="M975.82,120c0,.78.08,1.54.12,2.36l-1.05-.44c0,.74,0,1.45.06,2.16,0,1.27.08,2.54.11,3.82a.44.44,0,0,1-.16.33,11.21,11.21,0,0,0-2.91,3.82c0,.07-.08.14-.18.31a3.06,3.06,0,0,1-.25-.74,15.92,15.92,0,0,1,.84-7.21,10.56,10.56,0,0,1,3.28-4.34S975.75,120.08,975.82,120Z"/><path class="cls-10" d="M974.76,135.76l-.54-.18c0,.85,0,1.65.07,2.46.06,1,.07,1-.91,1.33-.6.19-1.21.35-1.81.52-.07,0-.14,0-.28,0,.06-3.72.55-7.27,3.25-10.17C974.61,131.74,974.68,133.73,974.76,135.76Z"/><path class="cls-10" d="M972.81,207.31c-.43-.27-.86-.52-1.25-.8-.1-.06-.09-.23-.06-.34.28-.84.53-1.7.86-2.53q1.62-4.12,3.29-8.23c.23-.57.5-1.13.78-1.75C976.51,194.66,973.52,205.88,972.81,207.31Z"/><path class="cls-10" d="M1014.21,101.79c-.43,1.18-.84,2.37-1.28,3.55a.52.52,0,0,1-.35.27c-.84.2-1.72.33-2.55.58s-1.6.61-2.39.93c-.23-.79-.49-1.61-.7-2.44,0-.12.14-.33.27-.43a9.21,9.21,0,0,1,3.31-1.76c1.19-.34,2.41-.57,3.62-.84A.61.61,0,0,0,1014.21,101.79Z"/><path class="cls-10" d="M985.15,110.08q1.19,2.53,2.36,5.07a.38.38,0,0,1-.07.34c-.66.61-1.35,1.2-2,1.79a16.66,16.66,0,0,0-.66-1.87c-.39-.82-.89-1.6-1.33-2.4a.54.54,0,0,1,0-.46c.53-.85,1.08-1.68,1.63-2.51Z"/><path class="cls-10" d="M968.46,99.53c.73,1,1.38,1.89,2,2.8.42.59.84,1.18,1.24,1.79a.49.49,0,0,1,0,.42c-.54.72-1.11,1.42-1.65,2.1-.45-.75-.9-1.55-1.42-2.29-.39-.55-.9-1-1.34-1.55-.08-.09-.16-.25-.13-.33C967.61,101.51,968,100.56,968.46,99.53Z"/><path class="cls-10" d="M1002,108.65l4.1-4.28c.29,1.11.56,2.11.82,3.12a.42.42,0,0,1-.15.26,11.85,11.85,0,0,0-3.2,3.38.55.55,0,0,1-.1.11Z"/><path class="cls-10" d="M1265.6,242.54c-1-.43-10.47.4-11.37,0-.39-.17,5.9-39.57,5.71-39.81s2.83-2.4,2.85-2.71a104.8,104.8,0,0,1,1.23-11c.35-2.27.8-4.53,1.23-6.78q.55-2.88,1.19-5.73c.43-1.91.91-3.82,1.38-5.72.42-1.68.84-3.37,1.28-5.05s.92-3.36,1.39-5,.88-3.12,1.33-4.68.88-2.93,1.32-4.39.93-3,1.41-4.53.92-2.94,1.39-4.41q.81-2.46,1.63-4.94c.11-.34.23-.67.34-1l2.59,1c-.2.62-.39,1.25-.59,1.87L1278.5,144c-.47,1.48-.93,3-1.39,4.43s-1,3.06-1.43,4.58-.89,2.91-1.32,4.37-.81,2.82-1.21,4.24-.77,2.7-1.13,4.06c-.4,1.53-.78,3.06-1.16,4.6-.32,1.32-.64,2.64-.95,4-.24,1.08-.47,2.16-.68,3.24q-.52,2.73-1,5.46c-.21,1.21-.43,2.42-.56,3.63-.31,2.78-.63,5.55-.83,8.33-.16,2.16-.14,4.33-.19,6.5C1266.64,201.79,1265.59,242.06,1265.6,242.54Z"/><path class="cls-10" d="M1266,141.81l2.81-.23c0,.61,0,1.21-.08,1.82-.21,3.76-.37,7.53-.66,11.28-.38,4.93-.85,9.84-1.29,14.76-.1,1.11-.19,2.23-.37,3.34s-.44,2.23-.68,3.35-.49,2.19-.72,3.29c-.32,1.55-.64,3.11-.94,4.67-.24,1.28-.45,2.56-.67,3.84-.61,3.51-1,7-1.34,10.57a19.09,19.09,0,0,1-.71,2.82c-.35,1.28-.73,2.55-1.11,3.83-.13.47-.29.93-.46,1.39a.3.3,0,0,1-.22.19c-1.36.19-2.74.36-4.19.54.18-.46.36-.87.51-1.29.65-1.79,1.32-3.58,1.92-5.37q.79-2.37,1.45-4.75c.44-1.56.82-3.12,1.17-4.69.44-1.89.85-3.79,1.21-5.69.34-1.75.62-3.5.9-5.26.84-5.13,1.44-10.3,1.88-15.48.37-4.45.66-8.9,1-13.35.22-3.09.4-6.18.59-9.27Z"/><path class="cls-10" d="M1256.43,134.23l1.91-.38c0,.39.07.76.11,1.12a7.22,7.22,0,0,0,.76,2.74,4.77,4.77,0,0,0,.75,1.08,2,2,0,0,1,.46,1.22c.69,3.59,1.39,7.19,2,10.79.57,3.21,1.07,6.41,1.6,9.62a.61.61,0,0,1,0,.19q-.54,5.65-1.09,11.29a1.14,1.14,0,0,1-.11.43C1261.47,159.6,1258.89,146.92,1256.43,134.23Z"/><path class="cls-10" d="M1275.27,123.4c3.46,2,5.84,4.66,6.42,8.67a20.29,20.29,0,0,1-.1,5.92c-.34-.13-.66-.24-1-.38a11.8,11.8,0,0,1-3.91-2.51,6.7,6.7,0,0,1-1.85-4.32A52.57,52.57,0,0,1,1275.27,123.4Z"/><path class="cls-10" d="M1264.66,144.24c.27-1.06.5-2.06.79-3a13.53,13.53,0,0,1,2.54-4.89,11.7,11.7,0,0,1,6.11-3.66l.3-.07a3.23,3.23,0,0,1,.33,2.27,38.14,38.14,0,0,1-1.42,4.79,6.87,6.87,0,0,1-4.68,4.05A15.41,15.41,0,0,1,1264.66,144.24Z"/><path class="cls-10" d="M1282.48,137.45c0-.9.12-1.8.11-2.7s-.14-2-.19-3.07a1,1,0,0,1,.17-.62,10.13,10.13,0,0,1,5.22-3.46c1.11-.32,2.26-.5,3.51-.77-.32.9-.59,1.65-.87,2.4a28.63,28.63,0,0,1-2,4.68,7,7,0,0,1-5.79,3.58h-.12A.15.15,0,0,1,1282.48,137.45Z"/><path class="cls-10" d="M1259,130.72a16.92,16.92,0,0,1,3.22,1.79,10.66,10.66,0,0,1,3.74,4.8.81.81,0,0,1,0,.74,19.39,19.39,0,0,0-1.79,5.23c0,.06,0,.12-.07.22a7.67,7.67,0,0,1-2.11-1.19,6.87,6.87,0,0,1-2.63-5.07c-.18-1.82-.21-3.66-.3-5.49C1259,131.44,1259,131.12,1259,130.72Z"/><path class="cls-10" d="M1254.55,133.33a8.27,8.27,0,0,1-3.14-1.32,6.85,6.85,0,0,1-2.61-3.89c-.58-2.12-1-4.27-1.6-6.54.83.25,1.54.46,2.23.7a10.87,10.87,0,0,1,5.82,4.53.93.93,0,0,1,.15.86A19.78,19.78,0,0,0,1254.55,133.33Z"/><path class="cls-10" d="M1277.66,115.6c2.84,2.12,4.88,4.68,5.27,8.28.27,2.49-.15,5.86-.79,6.48a1,1,0,0,1-.11-.2,12.05,12.05,0,0,0-5.27-6.71.62.62,0,0,1-.36-.68c.17-1.17.29-2.34.48-3.5s.44-2.18.66-3.27C1277.57,115.88,1277.61,115.77,1277.66,115.6Z"/><path class="cls-10" d="M1283.62,123.3a12.19,12.19,0,0,0-1.23-3.62,13.8,13.8,0,0,0-3.4-4,.73.73,0,0,1-.31-.83,60.86,60.86,0,0,1,2.08-6.6s0,0,.12-.11c.52.59,1.07,1.16,1.56,1.77a11,11,0,0,1,2.3,9.48c-.28,1.17-.63,2.32-1,3.48A3,3,0,0,1,1283.62,123.3Z"/><path class="cls-10" d="M1267.38,129.67a17.77,17.77,0,0,1,.78-6.7,10.9,10.9,0,0,1,4.71-5.73c.49-.3,1-.58,1.49-.86a3.89,3.89,0,0,1,.49-.22c0,1.91.08,3.76,0,5.6a18.55,18.55,0,0,1-.33,1.88c0,.11-.2.2-.32.25a15.41,15.41,0,0,0-3.66,2,11,11,0,0,0-2.86,3.31C1267.59,129.34,1267.51,129.45,1267.38,129.67Z"/><path class="cls-10" d="M1252.46,104.43c-.72-.55-1.45-1.17-2.24-1.71a12.39,12.39,0,0,0-3.58-1.6.74.74,0,0,1-.62-.6c-.47-2.07-1-4.12-1.47-6.25a17.45,17.45,0,0,1,3.65,1.26,10.84,10.84,0,0,1,5.34,5.79.51.51,0,0,1,0,.31C1253.21,102.58,1252.82,103.52,1252.46,104.43Z"/><path class="cls-10" d="M1297.8,100.26c-.81,2.06-1.59,4.06-2.39,6.06a.62.62,0,0,1-.39.34,13,13,0,0,0-6.52,2.67c0-.36-.06-.67-.13-1-.14-.65-.33-1.29-.47-2a.81.81,0,0,1,.09-.55,11,11,0,0,1,7.93-5.38c.54-.1,1.08-.16,1.62-.24A1.69,1.69,0,0,1,1297.8,100.26Z"/><path class="cls-10" d="M1261.23,103.32c3.16,1.38,5.69,3.33,7,6.62.22.6.39,1.22.56,1.84a.53.53,0,0,1,0,.41c-.52.86-1.06,1.72-1.57,2.53-.48-.55-1-1.2-1.55-1.79a12.85,12.85,0,0,0-3.64-2.55.66.66,0,0,1-.43-.62l-.27-5.49C1261.23,104,1261.23,103.67,1261.23,103.32Z"/><path class="cls-10" d="M1266.55,136.83a2.19,2.19,0,0,1-.12-.54,14.86,14.86,0,0,1,2.68-7.91,11.9,11.9,0,0,1,5.39-3.8c-.13,1.28-.3,2.46-.36,3.64s0,2.38,0,3.65A12.69,12.69,0,0,0,1266.55,136.83Z"/><path class="cls-10" d="M1255.35,119c-1.46-6.13-.29-10.82,5-14.52.07.92.16,1.78.21,2.64s.1,1.72.15,2.64l-1-.39c0,.61,0,1.18,0,1.75s.06,1.07,0,1.6a.81.81,0,0,1-.27.54,11.82,11.82,0,0,0-3.18,3.61C1256,117.55,1255.68,118.27,1255.35,119Z"/><path class="cls-10" d="M1259.3,123.57c.82.45,1.58.82,2.31,1.25a10.78,10.78,0,0,1,4.84,5.92,2,2,0,0,1,0,1.27c-.29,1-.5,2.07-.74,3.11-.3-.39-.6-.82-.93-1.22a14,14,0,0,0-4.86-3.58.58.58,0,0,1-.4-.54c-.06-1.67-.15-3.33-.22-5C1259.31,124.42,1259.31,124.07,1259.3,123.57Z"/><path class="cls-10" d="M1283.41,129c.13-1.21.24-2.42.38-3.63a1.56,1.56,0,0,1,.28-.58,11.32,11.32,0,0,1,8.09-4.57l.73-.09c.08,0,.16,0,.31,0-.21.58-.4,1.12-.6,1.66-.52,1.36-1,2.71-1.56,4.06a.58.58,0,0,1-.57.41,14.23,14.23,0,0,0-4.79,1.36C1284.91,128,1284.19,128.54,1283.41,129Z"/><path class="cls-10" d="M1254.68,124.8a10.44,10.44,0,0,0-3.41-2.53c-1-.46-2.11-.82-3.18-1.19a.54.54,0,0,1-.42-.43c-.39-1.71-.78-3.41-1.16-5.12-.06-.28-.12-.56-.19-.93.48.14.91.24,1.33.37a11.38,11.38,0,0,1,5.89,3.78,22.09,22.09,0,0,1,1.27,2,.87.87,0,0,1,.1.42C1254.84,122.36,1254.75,123.58,1254.68,124.8Z"/><path class="cls-10" d="M1284.93,102.57c3.62,4.76,3.59,9.33.88,14.19-.13-.85-.21-1.75-.41-2.63a12.13,12.13,0,0,0-3.05-5.43.77.77,0,0,1-.16-1C1283.11,106,1284,104.3,1284.93,102.57Z"/><path class="cls-10" d="M1272.63,109.54c.15.84.3,1.63.44,2.42.2,1.15.38,2.3.58,3.44a.6.6,0,0,1-.38.74,12.23,12.23,0,0,0-5.28,5.3c-.1.22-.19.45-.29.68a6.65,6.65,0,0,1-.32.66,13.72,13.72,0,0,1,.41-7.46A13,13,0,0,1,1272.63,109.54Z"/><path class="cls-10" d="M1257,98.35c.71,2,1.37,3.89,2.06,5.78.09.26,0,.39-.2.55a13.49,13.49,0,0,0-3.49,4.1,11.32,11.32,0,0,0-1.17,3.58c-.77-.84-1.36-5.06-1-7.41A12.65,12.65,0,0,1,1257,98.35Z"/><path class="cls-10" d="M1284.61,122.88c.14-.45.3-.91.41-1.38.21-.88.34-1.78.61-2.64a3.77,3.77,0,0,1,.8-1.2,11.19,11.19,0,0,1,7.06-3.67c.34-.06.68-.1,1-.15h.38c-.27.72-.52,1.42-.78,2.12-.38,1-.77,2-1.14,3.07a.55.55,0,0,1-.52.42,13.66,13.66,0,0,0-5.72,1.87C1286,121.78,1285.32,122.35,1284.61,122.88Z"/><path class="cls-10" d="M1254.41,118.63a12.43,12.43,0,0,0-7.09-4.52.76.76,0,0,1-.64-.66c-.35-1.69-.73-3.37-1.1-5,0-.08,0-.15,0-.26,3.6.84,6.59,2.5,8.34,5.9a3.11,3.11,0,0,1,.13,1.08C1254.16,116.28,1254.28,117.45,1254.41,118.63Z"/><path class="cls-10" d="M1266.61,129a13,13,0,0,0-6.18-5.64.81.81,0,0,1-.58-.81c0-1.73-.12-3.45-.18-5.18,0,0,0-.1,0-.27.8.44,1.56.81,2.29,1.25a10.57,10.57,0,0,1,4.85,6,1.67,1.67,0,0,1,0,.59c-.08,1.19-.18,2.38-.27,3.57C1266.6,128.65,1266.61,128.81,1266.61,129Z"/><path class="cls-10" d="M1245.12,101.47a12.62,12.62,0,0,1,7,3.84.85.85,0,0,1,.18.55,15.59,15.59,0,0,0,.56,5.08c0,.06,0,.13.05.19s0,.05,0,0c-.72-.57-1.43-1.18-2.2-1.72a14.11,14.11,0,0,0-3.88-1.74.56.56,0,0,1-.32-.3C1246,105.45,1245.59,103.51,1245.12,101.47Z"/><path class="cls-10" d="M1266.39,121.56a12.7,12.7,0,0,0-5.29-4.59.57.57,0,0,1-.39-.55c0-1.44-.12-2.88-.18-4.31,0-.51,0-1,0-1.57l.34.12a13.42,13.42,0,0,1,4.84,3.46c.27.32.49.69.77,1,.51.54.28,1.12.15,1.7a14,14,0,0,0-.2,4.33Z"/><path class="cls-10" d="M1296.2,107.25c-.45,1.26-.87,2.42-1.29,3.57-.25.65-.52,1.29-.76,2a.68.68,0,0,1-.63.47,12.81,12.81,0,0,0-5,1.73c-.43.26-.84.56-1.32.89l.47-1.25a14.14,14.14,0,0,0,.89-4,.9.9,0,0,1,.26-.51,11.18,11.18,0,0,1,5.6-2.57C1295,107.42,1295.53,107.35,1296.2,107.25Z"/><path class="cls-10" d="M1259.82,114c0,.78.08,1.54.12,2.36l-1-.44c0,.74,0,1.45.06,2.16,0,1.27.08,2.54.11,3.82a.44.44,0,0,1-.16.33,11.21,11.21,0,0,0-2.91,3.82c0,.07-.08.14-.18.31a3.06,3.06,0,0,1-.25-.74,15.92,15.92,0,0,1,.84-7.21,10.56,10.56,0,0,1,3.28-4.34S1259.75,114.08,1259.82,114Z"/><path class="cls-10" d="M1258.76,129.76c-.18,0-.33-.11-.54-.18,0,.85,0,1.65.07,2.46.06,1,.07,1-.91,1.33-.6.19-1.21.35-1.81.52-.07,0-.14,0-.28,0,.06-3.72.55-7.27,3.25-10.17C1258.61,125.74,1258.68,127.73,1258.76,129.76Z"/><path class="cls-10" d="M1256.81,201.31c-.43-.27-.86-.52-1.25-.8-.1-.06-.09-.23-.06-.34.28-.84.53-1.7.86-2.53q1.62-4.12,3.29-8.23c.23-.57.5-1.13.78-1.75C1260.51,188.66,1257.52,199.88,1256.81,201.31Z"/><path class="cls-10" d="M1298.21,95.79c-.43,1.18-.84,2.37-1.28,3.55a.52.52,0,0,1-.35.27c-.84.2-1.72.33-2.55.58s-1.6.61-2.39.93c-.23-.79-.49-1.61-.7-2.44,0-.12.14-.33.27-.43a9.21,9.21,0,0,1,3.31-1.76c1.19-.34,2.41-.57,3.62-.84A.61.61,0,0,0,1298.21,95.79Z"/><path class="cls-10" d="M1269.15,104.08q1.18,2.53,2.36,5.07a.38.38,0,0,1-.07.34c-.66.61-1.35,1.2-2,1.79a16.66,16.66,0,0,0-.66-1.87c-.39-.82-.89-1.6-1.33-2.4a.54.54,0,0,1,0-.46c.53-.85,1.08-1.68,1.63-2.51Z"/><path class="cls-10" d="M1252.46,93.53c.73,1,1.38,1.89,2,2.8.42.59.84,1.18,1.24,1.79a.49.49,0,0,1,0,.42c-.54.72-1.11,1.42-1.65,2.1-.45-.75-.9-1.55-1.42-2.29-.39-.55-.9-1-1.34-1.55-.08-.09-.16-.25-.13-.33C1251.61,95.51,1252,94.56,1252.46,93.53Z"/><path class="cls-10" d="M1286,102.65l4.1-4.28c.29,1.11.56,2.11.82,3.12a.42.42,0,0,1-.15.26,11.85,11.85,0,0,0-3.2,3.38.55.55,0,0,1-.1.11Z"/><path class="cls-10" d="M376.18,251.56c-1-.29-10.31,1.88-11.26,1.61-.41-.12.23-40,0-40.23s2.47-2.78,2.44-3.08a105.26,105.26,0,0,1-.35-11.09c0-2.3.15-4.6.26-6.89.1-1.95.21-3.9.37-5.84s.36-3.91.55-5.86c.17-1.73.35-3.45.55-5.17s.44-3.47.66-5.2.43-3.22.66-4.83.44-3,.68-4.53.49-3.12.75-4.68.49-3,.75-4.56c.3-1.71.61-3.42.91-5.13.06-.35.13-.69.2-1.05l2.7.63c-.11.64-.21,1.29-.32,1.94-.26,1.51-.52,3-.77,4.55l-.75,4.59c-.26,1.58-.51,3.16-.76,4.74s-.47,3-.69,4.51-.4,2.91-.6,4.37-.37,2.78-.54,4.17c-.18,1.57-.33,3.15-.49,4.72-.13,1.36-.26,2.71-.37,4.07-.09,1.1-.17,2.2-.22,3.3-.09,1.85-.17,3.7-.23,5.55,0,1.23-.08,2.46,0,3.68.09,2.79.16,5.58.36,8.36.16,2.16.48,4.3.74,6.45C371.42,211.08,376.1,251.08,376.18,251.56Z"/><path class="cls-10" d="M362.32,151.79l2.75-.63c.06.61.13,1.21.18,1.81.32,3.76.7,7.51.94,11.27.33,4.92.56,9.85.82,14.78.06,1.12.13,2.24.11,3.36s-.12,2.28-.2,3.41-.17,2.24-.24,3.36c-.1,1.59-.2,3.17-.27,4.76-.06,1.3-.08,2.6-.12,3.9-.11,3.56,0,7.1.17,10.65a18,18,0,0,1-.3,2.9c-.17,1.31-.36,2.63-.55,3.94-.07.48-.16,1-.26,1.45a.33.33,0,0,1-.19.21c-1.33.38-2.66.75-4.07,1.13.11-.48.23-.91.32-1.35.39-1.86.8-3.72,1.14-5.59.3-1.63.55-3.27.76-4.91s.36-3.2.49-4.8c.16-1.94.3-3.87.4-5.81.08-1.77.11-3.55.14-5.33.1-5.2,0-10.4-.34-15.59-.26-4.46-.61-8.91-.93-13.36-.23-3.08-.49-6.17-.73-9.25C362.33,152,362.33,151.89,362.32,151.79Z"/><path class="cls-10" d="M351.73,145.64l1.84-.63.27,1.09a7.23,7.23,0,0,0,1.14,2.6,4.72,4.72,0,0,0,.89,1,2,2,0,0,1,.63,1.14c1.19,3.46,2.4,6.93,3.55,10.4,1,3.09,2,6.19,2.94,9.29a.63.63,0,0,1,0,.19c.18,3.78.35,7.55.53,11.32a1.4,1.4,0,0,1-.06.45C360.33,170.05,356,157.85,351.73,145.64Z"/><path class="cls-10" d="M368.85,132.26c3.7,1.47,6.44,3.78,7.58,7.67a20.42,20.42,0,0,1,.75,5.87c-.36-.09-.69-.15-1-.24a11.87,11.87,0,0,1-4.23-1.93,6.69,6.69,0,0,1-2.44-4A50.84,50.84,0,0,1,368.85,132.26Z"/><path class="cls-10" d="M361.3,154.38c.12-1.08.2-2.11.35-3.12a13.47,13.47,0,0,1,1.82-5.2,11.65,11.65,0,0,1,5.53-4.48l.29-.11a3.22,3.22,0,0,1,.65,2.19,39.38,39.38,0,0,1-.73,5,6.89,6.89,0,0,1-4.06,4.67A15.08,15.08,0,0,1,361.3,154.38Z"/><path class="cls-10" d="M378,145.14c-.08-.9-.13-1.8-.27-2.69s-.43-2-.62-3a1,1,0,0,1,.08-.64,10.14,10.14,0,0,1,4.68-4.17c1.05-.47,2.16-.81,3.36-1.25-.19.93-.35,1.71-.52,2.5a30.05,30.05,0,0,1-1.28,4.91,7,7,0,0,1-5.23,4.36h-.12Z"/><path class="cls-10" d="M353.79,141.81a16.47,16.47,0,0,1,3.44,1.32,10.54,10.54,0,0,1,4.38,4.22.79.79,0,0,1,.07.73,19.26,19.26,0,0,0-1,5.43,1.39,1.39,0,0,1,0,.23,7.76,7.76,0,0,1-2.26-.88,6.85,6.85,0,0,1-3.32-4.64c-.44-1.78-.72-3.6-1.07-5.4C353.9,142.51,353.85,142.2,353.79,141.81Z"/><path class="cls-10" d="M349.74,145a8.37,8.37,0,0,1-3.29-.87,6.79,6.79,0,0,1-3.14-3.48c-.88-2-1.64-4.08-2.51-6.25.86.14,1.59.24,2.31.38a10.86,10.86,0,0,1,6.4,3.66.92.92,0,0,1,.27.83A20,20,0,0,0,349.74,145Z"/><path class="cls-10" d="M370.1,124.2c3.11,1.69,5.5,3.94,6.4,7.44.62,2.43.68,5.82.13,6.53a1.58,1.58,0,0,1-.13-.18,12.05,12.05,0,0,0-6.17-5.89.64.64,0,0,1-.46-.63c0-1.18,0-2.36,0-3.54s.12-2.21.18-3.32C370.05,124.49,370.08,124.37,370.1,124.2Z"/><path class="cls-10" d="M377.1,131a11.73,11.73,0,0,0-1.74-3.4,13.56,13.56,0,0,0-3.93-3.46.72.72,0,0,1-.42-.77,60.93,60.93,0,0,1,1.12-6.84s0,0,.1-.12c.6.51,1.23,1,1.8,1.53a10.92,10.92,0,0,1,3.21,5.08,11.17,11.17,0,0,1,.41,4c-.1,1.2-.29,2.39-.44,3.58C377.19,130.66,377.15,130.76,377.1,131Z"/><path class="cls-10" d="M361.93,139.57a17.59,17.59,0,0,1-.18-6.73,10.87,10.87,0,0,1,3.84-6.34c.44-.37.91-.72,1.36-1.07.13-.1.27-.17.45-.29.28,1.89.62,3.72.77,5.55a17.83,17.83,0,0,1-.06,1.92c0,.1-.17.22-.29.29a14.87,14.87,0,0,0-3.33,2.53,11,11,0,0,0-2.36,3.67C362.08,139.23,362,139.35,361.93,139.57Z"/><path class="cls-10" d="M343.57,116.71c-.78-.45-1.6-.95-2.45-1.38a12.4,12.4,0,0,0-3.78-1.07.74.74,0,0,1-.69-.51c-.76-2-1.54-3.94-2.34-6a16.88,16.88,0,0,1,3.78.74,10.8,10.8,0,0,1,6.11,5,.6.6,0,0,1,.1.3C344.06,114.77,343.81,115.76,343.57,116.71Z"/><path class="cls-10" d="M387.87,106.15c-.52,2.16-1,4.25-1.51,6.34a.63.63,0,0,1-.34.39,13.15,13.15,0,0,0-6.08,3.56,8.77,8.77,0,0,0-.26-.93c-.24-.62-.52-1.24-.75-1.86a.83.83,0,0,1,0-.56,11,11,0,0,1,7.08-6.46c.52-.17,1.05-.31,1.58-.46A1.11,1.11,0,0,1,387.87,106.15Z"/><path class="cls-10" d="M352.09,114.37c3.33.92,6.11,2.49,7.82,5.56.31.56.56,1.16.82,1.75a.53.53,0,0,1,0,.41c-.39.93-.81,1.85-1.2,2.73-.54-.48-1.13-1-1.78-1.55a13.07,13.07,0,0,0-4-2,.63.63,0,0,1-.51-.54l-1.05-5.41C352.19,115,352.15,114.72,352.09,114.37Z"/><path class="cls-10" d="M362.12,146.78a1.49,1.49,0,0,1-.19-.52,14.73,14.73,0,0,1,1.52-8.2,11.94,11.94,0,0,1,4.8-4.53c.05,1.29.05,2.48.16,3.66s.33,2.35.52,3.6A12.75,12.75,0,0,0,362.12,146.78Z"/><path class="cls-10" d="M348.5,130.72c-2.32-5.86-1.82-10.66,2.9-15.08.21.91.41,1.74.59,2.59s.34,1.69.52,2.59l-1.06-.25c.1.61.19,1.17.29,1.73s.21,1,.26,1.58a.78.78,0,0,1-.18.57,11.75,11.75,0,0,0-2.64,4C348.91,129.2,348.73,130,348.5,130.72Z"/><path class="cls-10" d="M353.06,134.69c.88.32,1.68.58,2.46.91a10.73,10.73,0,0,1,5.63,5.17,1.94,1.94,0,0,1,.21,1.25c-.14,1-.2,2.12-.29,3.19-.35-.34-.7-.73-1.09-1.08a13.87,13.87,0,0,0-5.32-2.85.57.57,0,0,1-.47-.48c-.3-1.64-.62-3.28-.93-4.92C353.19,135.53,353.14,135.18,353.06,134.69Z"/><path class="cls-10" d="M377.7,136.65c-.05-1.21-.11-2.43-.14-3.65a1.42,1.42,0,0,1,.2-.61,11.27,11.27,0,0,1,7.35-5.67l.72-.2a2.78,2.78,0,0,1,.3,0c-.13.6-.23,1.17-.36,1.73-.32,1.42-.65,2.83-1,4.24a.6.6,0,0,1-.51.49,13.81,13.81,0,0,0-4.55,2C379,135.47,378.4,136.07,377.7,136.65Z"/><path class="cls-10" d="M348.66,136.56a10.48,10.48,0,0,0-3.73-2c-1.09-.31-2.21-.52-3.32-.73a.56.56,0,0,1-.48-.36c-.62-1.64-1.25-3.27-1.87-4.91-.1-.26-.2-.53-.32-.89.5.07.94.11,1.37.18a11.37,11.37,0,0,1,6.36,2.9,21.69,21.69,0,0,1,1.54,1.77.77.77,0,0,1,.16.41C348.47,134.12,348.56,135.34,348.66,136.56Z"/><path class="cls-10" d="M375.45,110.26c4.26,4.2,4.88,8.73,2.89,13.92-.25-.82-.46-1.7-.79-2.54a12,12,0,0,0-3.78-4.94.76.76,0,0,1-.3-1C374.13,113.91,374.78,112.11,375.45,110.26Z"/><path class="cls-10" d="M364.26,118.91c.28.81.54,1.57.79,2.33.36,1.11.69,2.22,1.06,3.32a.62.62,0,0,1-.27.79,12.17,12.17,0,0,0-4.47,6c-.08.23-.14.47-.2.71a4.71,4.71,0,0,1-.22.7,13.69,13.69,0,0,1-.66-7.44A13,13,0,0,1,364.26,118.91Z"/><path class="cls-10" d="M347.18,110.05l2.86,5.43c.14.25,0,.39-.11.57a13.6,13.6,0,0,0-2.87,4.56,10.89,10.89,0,0,0-.65,3.71c-.89-.72-2.07-4.81-2-7.2A12.79,12.79,0,0,1,347.18,110.05Z"/><path class="cls-10" d="M378,130.41c.07-.46.17-.94.21-1.42.09-.9.08-1.81.23-2.7a3.66,3.66,0,0,1,.62-1.31,11.24,11.24,0,0,1,6.47-4.63l1-.29.38-.07c-.16.76-.31,1.49-.47,2.21-.23,1.07-.47,2.14-.7,3.21a.54.54,0,0,1-.45.49,13.48,13.48,0,0,0-5.4,2.66C379.23,129.13,378.65,129.79,378,130.41Z"/><path class="cls-10" d="M347.52,130.49a12.45,12.45,0,0,0-7.66-3.47.77.77,0,0,1-.73-.56c-.58-1.62-1.2-3.23-1.8-4.84,0-.08,0-.15-.06-.26,3.68.33,6.88,1.55,9.09,4.66a3.06,3.06,0,0,1,.29,1C346.94,128.2,347.22,129.34,347.52,130.49Z"/><path class="cls-10" d="M361.06,139a13,13,0,0,0-6.92-4.71.81.81,0,0,1-.68-.72c-.27-1.7-.61-3.4-.92-5.1,0-.05,0-.1,0-.27.86.32,1.67.58,2.45.91a10.57,10.57,0,0,1,5.65,5.26,1.59,1.59,0,0,1,.13.58l.24,3.57C361,138.68,361,138.84,361.06,139Z"/><path class="cls-10" d="M335.89,114.83a12.66,12.66,0,0,1,7.48,2.8.85.85,0,0,1,.25.52,15.39,15.39,0,0,0,1.27,4.94c0,.07.06.13.08.19s0,0,0,0c-.8-.47-1.59-1-2.43-1.4a14.45,14.45,0,0,0-4.09-1.18.55.55,0,0,1-.36-.24C337.36,118.64,336.65,116.78,335.89,114.83Z"/><path class="cls-10" d="M359.8,131.69a12.69,12.69,0,0,0-5.89-3.79.56.56,0,0,1-.46-.49c-.26-1.42-.54-2.83-.8-4.24-.09-.5-.17-1-.26-1.55a3.56,3.56,0,0,1,.35.07,13.33,13.33,0,0,1,5.28,2.73c.32.29.59.63.92.89.57.47.43,1.07.38,1.66a14.29,14.29,0,0,0,.41,4.32C359.75,131.38,359.76,131.48,359.8,131.69Z"/><path class="cls-10" d="M387.28,113.3c-.28,1.31-.52,2.51-.78,3.71-.15.68-.33,1.36-.47,2a.69.69,0,0,1-.56.56,13,13,0,0,0-4.76,2.42c-.39.32-.75.68-1.18,1.07.11-.47.2-.89.29-1.3a14.42,14.42,0,0,0,.32-4.09.88.88,0,0,1,.18-.54,11.22,11.22,0,0,1,5.18-3.34C386.06,113.65,386.62,113.5,387.28,113.3Z"/><path class="cls-10" d="M352.23,125.18c.15.77.29,1.51.45,2.32l-1.1-.28c.12.72.23,1.42.36,2.12l.66,3.76a.58.58,0,0,1-.12.36,11.16,11.16,0,0,0-2.34,4.2c0,.07-.06.14-.13.33a3.64,3.64,0,0,1-.36-.71,16.1,16.1,0,0,1-.19-7.24,10.55,10.55,0,0,1,2.63-4.77S352.16,125.23,352.23,125.18Z"/><path class="cls-10" d="M353.4,140.9l-.55-.11c.14.84.26,1.63.42,2.42.19,1,.21,1-.72,1.45-.56.27-1.14.52-1.72.77a2.38,2.38,0,0,1-.27.07c-.47-3.69-.48-7.28,1.77-10.53C352.69,136.94,353,138.9,353.4,140.9Z"/><path class="cls-10" d="M361.63,212c-.46-.21-.93-.4-1.36-.62-.1,0-.12-.22-.1-.32.15-.88.29-1.76.49-2.64q1-4.3,2.09-8.61c.14-.59.34-1.19.53-1.84C363.49,199,362.12,210.48,361.63,212Z"/><path class="cls-10" d="M387.63,101.67c-.25,1.23-.49,2.46-.76,3.69a.52.52,0,0,1-.3.32c-.81.32-1.66.57-2.45.94s-1.49.83-2.23,1.25c-.34-.74-.71-1.52-1-2.31,0-.11.09-.35.2-.47a9.47,9.47,0,0,1,3-2.21c1.12-.5,2.3-.9,3.45-1.34Z"/><path class="cls-10" d="M360.05,114c1,1.56,2,3.11,3.05,4.68a.39.39,0,0,1,0,.35c-.57.69-1.16,1.37-1.75,2a16.18,16.18,0,0,0-.91-1.75c-.51-.76-1.11-1.45-1.66-2.19a.55.55,0,0,1-.11-.45c.41-.91.84-1.81,1.26-2.71Z"/><path class="cls-10" d="M342,105.92c.86.89,1.64,1.68,2.4,2.48.51.53,1,1.06,1.49,1.6.08.1.15.32.09.41-.43.79-.89,1.57-1.33,2.31-.55-.67-1.11-1.4-1.73-2.06-.47-.49-1-.89-1.55-1.35-.08-.07-.2-.22-.17-.31C341.47,108,341.74,107,342,105.92Z"/><path class="cls-10" d="M376.52,110.2l3.44-4.83c.45,1.06.86,2,1.26,3a.37.37,0,0,1-.12.27,12,12,0,0,0-2.68,3.81.48.48,0,0,1-.09.11Z"/><path class="cls-10" d="M132.6,242.54c-1-.43-10.47.4-11.37,0-.39-.17,5.9-39.57,5.71-39.81s2.83-2.4,2.85-2.71A104.8,104.8,0,0,1,131,189c.35-2.27.8-4.53,1.23-6.78q.56-2.88,1.19-5.73c.43-1.91.91-3.82,1.38-5.72.42-1.68.84-3.37,1.28-5.05s.92-3.36,1.39-5,.88-3.12,1.33-4.68.88-2.93,1.32-4.39.93-3,1.41-4.53.92-2.94,1.39-4.41q.81-2.46,1.63-4.94c.11-.34.23-.67.34-1l2.59,1c-.2.62-.39,1.25-.59,1.87L145.5,144c-.47,1.48-.93,3-1.39,4.43s-1,3.06-1.43,4.58-.89,2.91-1.32,4.37-.81,2.82-1.21,4.24-.77,2.7-1.13,4.06c-.4,1.53-.78,3.06-1.16,4.6-.32,1.32-.64,2.64-1,4-.24,1.08-.47,2.16-.68,3.24q-.53,2.73-1,5.46c-.21,1.21-.43,2.42-.56,3.63-.31,2.78-.63,5.55-.83,8.33-.16,2.16-.14,4.33-.19,6.5C133.64,201.79,132.59,242.06,132.6,242.54Z"/><path class="cls-10" d="M133,141.81l2.81-.23c0,.61,0,1.21-.08,1.82-.21,3.76-.37,7.53-.66,11.28-.38,4.93-.85,9.84-1.29,14.76-.1,1.11-.19,2.23-.37,3.34s-.44,2.23-.68,3.35-.49,2.19-.72,3.29c-.32,1.55-.64,3.11-.94,4.67-.24,1.28-.45,2.56-.67,3.84-.61,3.51-1,7-1.34,10.57a19.09,19.09,0,0,1-.71,2.82c-.35,1.28-.73,2.55-1.11,3.83-.13.47-.29.93-.46,1.39a.3.3,0,0,1-.22.19c-1.36.19-2.74.36-4.19.54.18-.46.36-.87.51-1.29.65-1.79,1.32-3.58,1.92-5.37q.8-2.37,1.45-4.75c.44-1.56.82-3.12,1.17-4.69.44-1.89.85-3.79,1.21-5.69.34-1.75.62-3.5.9-5.26.84-5.13,1.44-10.3,1.88-15.48.37-4.45.66-8.9,1-13.35.22-3.09.4-6.18.59-9.27Z"/><path class="cls-10" d="M123.43,134.23l1.91-.38c0,.39.07.76.11,1.12a7.22,7.22,0,0,0,.76,2.74,4.77,4.77,0,0,0,.75,1.08,2,2,0,0,1,.46,1.22c.69,3.59,1.39,7.19,2,10.79.57,3.21,1.07,6.41,1.6,9.62a.61.61,0,0,1,0,.19q-.54,5.65-1.09,11.29a1.14,1.14,0,0,1-.11.43C128.47,159.6,125.89,146.92,123.43,134.23Z"/><path class="cls-10" d="M142.27,123.4c3.46,2,5.84,4.66,6.42,8.67a20.29,20.29,0,0,1-.1,5.92c-.34-.13-.66-.24-1-.38a11.8,11.8,0,0,1-3.91-2.51,6.7,6.7,0,0,1-1.85-4.32A52.57,52.57,0,0,1,142.27,123.4Z"/><path class="cls-10" d="M131.66,144.24c.27-1.06.5-2.06.79-3a13.53,13.53,0,0,1,2.54-4.89,11.7,11.7,0,0,1,6.11-3.66l.3-.07a3.23,3.23,0,0,1,.33,2.27,38.14,38.14,0,0,1-1.42,4.79,6.87,6.87,0,0,1-4.68,4.05A15.41,15.41,0,0,1,131.66,144.24Z"/><path class="cls-10" d="M149.48,137.45c0-.9.12-1.8.11-2.7s-.14-2-.19-3.07a1,1,0,0,1,.17-.62,10.13,10.13,0,0,1,5.22-3.46c1.11-.32,2.26-.5,3.51-.77-.32.9-.59,1.65-.87,2.4a28.63,28.63,0,0,1-2,4.68,7,7,0,0,1-5.79,3.58h-.12A.15.15,0,0,1,149.48,137.45Z"/><path class="cls-10" d="M126,130.72a16.92,16.92,0,0,1,3.22,1.79,10.66,10.66,0,0,1,3.74,4.8.81.81,0,0,1,0,.74,19.39,19.39,0,0,0-1.79,5.23c0,.06,0,.12-.07.22a7.67,7.67,0,0,1-2.11-1.19,6.87,6.87,0,0,1-2.63-5.07c-.18-1.82-.21-3.66-.3-5.49C126,131.44,126,131.12,126,130.72Z"/><path class="cls-10" d="M121.55,133.33a8.27,8.27,0,0,1-3.14-1.32,6.85,6.85,0,0,1-2.61-3.89c-.58-2.12-1-4.27-1.6-6.54.83.25,1.54.46,2.23.7a10.87,10.87,0,0,1,5.82,4.53.93.93,0,0,1,.15.86A19.78,19.78,0,0,0,121.55,133.33Z"/><path class="cls-10" d="M144.66,115.6c2.84,2.12,4.88,4.68,5.27,8.28.27,2.49-.15,5.86-.79,6.48a1,1,0,0,1-.11-.2,12.05,12.05,0,0,0-5.27-6.71.62.62,0,0,1-.36-.68c.17-1.17.29-2.34.48-3.5s.44-2.18.66-3.27C144.57,115.88,144.61,115.77,144.66,115.6Z"/><path class="cls-10" d="M150.62,123.3a12.19,12.19,0,0,0-1.23-3.62,13.8,13.8,0,0,0-3.4-4,.73.73,0,0,1-.31-.83,60.86,60.86,0,0,1,2.08-6.6s0,0,.12-.11c.52.59,1.07,1.16,1.56,1.77a11,11,0,0,1,2.3,9.48c-.28,1.17-.63,2.32-1,3.48A3,3,0,0,1,150.62,123.3Z"/><path class="cls-10" d="M134.38,129.67a17.77,17.77,0,0,1,.78-6.7,10.9,10.9,0,0,1,4.71-5.73c.49-.3,1-.58,1.49-.86a3.89,3.89,0,0,1,.49-.22c0,1.91.08,3.76,0,5.6a18.55,18.55,0,0,1-.33,1.88c0,.11-.2.2-.32.25a15.41,15.41,0,0,0-3.66,2,11,11,0,0,0-2.86,3.31C134.59,129.34,134.51,129.45,134.38,129.67Z"/><path class="cls-10" d="M119.46,104.43c-.72-.55-1.45-1.17-2.24-1.71a12.39,12.39,0,0,0-3.58-1.6.74.74,0,0,1-.62-.6c-.47-2.07-1-4.12-1.47-6.25a17.45,17.45,0,0,1,3.65,1.26,10.84,10.84,0,0,1,5.34,5.79.51.51,0,0,1,0,.31C120.21,102.58,119.82,103.52,119.46,104.43Z"/><path class="cls-10" d="M164.8,100.26c-.81,2.06-1.59,4.06-2.39,6.06a.62.62,0,0,1-.39.34,13,13,0,0,0-6.52,2.67c-.05-.36-.06-.67-.13-1-.14-.65-.33-1.29-.47-2a.81.81,0,0,1,.09-.55,11,11,0,0,1,7.93-5.38c.54-.1,1.08-.16,1.62-.24A1.69,1.69,0,0,1,164.8,100.26Z"/><path class="cls-10" d="M128.23,103.32c3.16,1.38,5.69,3.33,7,6.62.22.6.39,1.22.56,1.84a.53.53,0,0,1,0,.41c-.52.86-1.06,1.72-1.57,2.53-.48-.55-1-1.2-1.55-1.79a12.85,12.85,0,0,0-3.64-2.55.66.66,0,0,1-.43-.62l-.27-5.49C128.23,104,128.23,103.67,128.23,103.32Z"/><path class="cls-10" d="M133.55,136.83a2.19,2.19,0,0,1-.12-.54,14.86,14.86,0,0,1,2.68-7.91,11.9,11.9,0,0,1,5.39-3.8c-.13,1.28-.3,2.46-.36,3.64s0,2.38,0,3.65A12.69,12.69,0,0,0,133.55,136.83Z"/><path class="cls-10" d="M122.35,119c-1.46-6.13-.29-10.82,5-14.52.07.92.16,1.78.21,2.64s.1,1.72.15,2.64l-1-.39c0,.61,0,1.18,0,1.75s.06,1.07,0,1.6a.81.81,0,0,1-.27.54,11.82,11.82,0,0,0-3.18,3.61C123,117.55,122.68,118.27,122.35,119Z"/><path class="cls-10" d="M126.3,123.57c.82.45,1.58.82,2.31,1.25a10.78,10.78,0,0,1,4.84,5.92,2,2,0,0,1,0,1.27c-.29,1-.5,2.07-.74,3.11-.3-.39-.6-.82-.93-1.22a14,14,0,0,0-4.86-3.58.58.58,0,0,1-.4-.54c-.06-1.67-.15-3.33-.22-5C126.31,124.42,126.31,124.07,126.3,123.57Z"/><path class="cls-10" d="M150.41,129c.13-1.21.24-2.42.38-3.63a1.56,1.56,0,0,1,.28-.58,11.32,11.32,0,0,1,8.09-4.57l.73-.09c.08,0,.16,0,.31,0-.21.58-.4,1.12-.6,1.66-.52,1.36-1,2.71-1.56,4.06a.58.58,0,0,1-.57.41,14.23,14.23,0,0,0-4.79,1.36C151.91,128,151.19,128.54,150.41,129Z"/><path class="cls-10" d="M121.68,124.8a10.44,10.44,0,0,0-3.41-2.53c-1-.46-2.11-.82-3.18-1.19a.54.54,0,0,1-.42-.43c-.39-1.71-.78-3.41-1.16-5.12-.06-.28-.12-.56-.19-.93.48.14.91.24,1.33.37a11.38,11.38,0,0,1,5.89,3.78,22.09,22.09,0,0,1,1.27,2,.87.87,0,0,1,.1.42C121.84,122.36,121.75,123.58,121.68,124.8Z"/><path class="cls-10" d="M151.93,102.57c3.62,4.76,3.59,9.33.88,14.19-.13-.85-.21-1.75-.41-2.63a12.13,12.13,0,0,0-3.05-5.43.77.77,0,0,1-.16-1C150.11,106,151,104.3,151.93,102.57Z"/><path class="cls-10" d="M139.63,109.54c.15.84.3,1.63.44,2.42.2,1.15.38,2.3.58,3.44a.6.6,0,0,1-.38.74,12.23,12.23,0,0,0-5.28,5.3c-.1.22-.19.45-.29.68a6.65,6.65,0,0,1-.32.66,13.72,13.72,0,0,1,.41-7.46A13,13,0,0,1,139.63,109.54Z"/><path class="cls-10" d="M124,98.35c.71,2,1.37,3.89,2.06,5.78.09.26,0,.39-.2.55a13.49,13.49,0,0,0-3.49,4.1,11.32,11.32,0,0,0-1.17,3.58c-.77-.84-1.36-5.06-1-7.41A12.65,12.65,0,0,1,124,98.35Z"/><path class="cls-10" d="M151.61,122.88c.14-.45.3-.91.41-1.38.21-.88.34-1.78.61-2.64a3.77,3.77,0,0,1,.8-1.2,11.19,11.19,0,0,1,7.06-3.67l1-.15h.38c-.27.72-.52,1.42-.78,2.12-.38,1-.77,2-1.14,3.07a.55.55,0,0,1-.52.42,13.66,13.66,0,0,0-5.72,1.87C153,121.78,152.32,122.35,151.61,122.88Z"/><path class="cls-10" d="M121.41,118.63a12.43,12.43,0,0,0-7.09-4.52.76.76,0,0,1-.64-.66c-.35-1.69-.73-3.37-1.1-5,0-.08,0-.15,0-.26,3.6.84,6.59,2.5,8.34,5.9a3.11,3.11,0,0,1,.13,1.08C121.16,116.28,121.28,117.45,121.41,118.63Z"/><path class="cls-10" d="M133.61,129a13,13,0,0,0-6.18-5.64.81.81,0,0,1-.58-.81c0-1.73-.12-3.45-.18-5.18,0,0,0-.1,0-.27.8.44,1.56.81,2.29,1.25a10.57,10.57,0,0,1,4.85,6,1.67,1.67,0,0,1,0,.59c-.08,1.19-.18,2.38-.27,3.57C133.6,128.65,133.61,128.81,133.61,129Z"/><path class="cls-10" d="M112.12,101.47a12.62,12.62,0,0,1,7,3.84.85.85,0,0,1,.18.55,15.59,15.59,0,0,0,.56,5.08c0,.06,0,.13,0,.19s0,.05,0,0c-.72-.57-1.43-1.18-2.2-1.72a14.11,14.11,0,0,0-3.88-1.74.56.56,0,0,1-.32-.3C113,105.45,112.59,103.51,112.12,101.47Z"/><path class="cls-10" d="M133.39,121.56A12.7,12.7,0,0,0,128.1,117a.57.57,0,0,1-.39-.55c0-1.44-.12-2.88-.18-4.31,0-.51,0-1,0-1.57l.34.12a13.42,13.42,0,0,1,4.84,3.46c.27.32.49.69.77,1,.51.54.28,1.12.15,1.7a14,14,0,0,0-.2,4.33Z"/><path class="cls-10" d="M163.2,107.25c-.45,1.26-.87,2.42-1.29,3.57-.25.65-.52,1.29-.76,2a.68.68,0,0,1-.63.47,12.81,12.81,0,0,0-5.05,1.73c-.43.26-.84.56-1.32.89l.47-1.25a14.14,14.14,0,0,0,.89-4,.9.9,0,0,1,.26-.51,11.18,11.18,0,0,1,5.6-2.57C162,107.42,162.53,107.35,163.2,107.25Z"/><path class="cls-10" d="M126.82,114c0,.78.08,1.54.12,2.36l-1-.44c0,.74,0,1.45.06,2.16,0,1.27.08,2.54.11,3.82a.44.44,0,0,1-.16.33,11.21,11.21,0,0,0-2.91,3.82c0,.07-.08.14-.18.31a3.06,3.06,0,0,1-.25-.74,15.92,15.92,0,0,1,.84-7.21,10.56,10.56,0,0,1,3.28-4.34S126.75,114.08,126.82,114Z"/><path class="cls-10" d="M125.76,129.76c-.18,0-.33-.11-.54-.18,0,.85,0,1.65.07,2.46.06,1,.07,1-.91,1.33-.6.19-1.21.35-1.81.52-.07,0-.14,0-.28,0,.06-3.72.55-7.27,3.25-10.17C125.61,125.74,125.68,127.73,125.76,129.76Z"/><path class="cls-10" d="M123.81,201.31c-.43-.27-.86-.52-1.25-.8-.1-.06-.09-.23-.06-.34.28-.84.53-1.7.86-2.53q1.62-4.12,3.29-8.23c.23-.57.5-1.13.78-1.75C127.51,188.66,124.52,199.88,123.81,201.31Z"/><path class="cls-10" d="M165.21,95.79c-.43,1.18-.84,2.37-1.28,3.55a.52.52,0,0,1-.35.27c-.84.2-1.72.33-2.55.58s-1.6.61-2.39.93c-.23-.79-.49-1.61-.7-2.44,0-.12.14-.33.27-.43a9.21,9.21,0,0,1,3.31-1.76c1.19-.34,2.41-.57,3.62-.84A.61.61,0,0,0,165.21,95.79Z"/><path class="cls-10" d="M136.15,104.08q1.18,2.53,2.36,5.07a.38.38,0,0,1-.07.34c-.66.61-1.35,1.2-2,1.79a16.66,16.66,0,0,0-.66-1.87c-.39-.82-.89-1.6-1.33-2.4a.54.54,0,0,1,0-.46c.53-.85,1.08-1.68,1.63-2.51Z"/><path class="cls-10" d="M119.46,93.53c.73,1,1.38,1.89,2,2.8.42.59.84,1.18,1.24,1.79a.49.49,0,0,1,0,.42c-.54.72-1.11,1.42-1.65,2.1-.45-.75-.9-1.55-1.42-2.29-.39-.55-.9-1-1.34-1.55-.08-.09-.16-.25-.13-.33C118.61,95.51,119,94.56,119.46,93.53Z"/><path class="cls-10" d="M153,102.65l4.1-4.28c.29,1.11.56,2.11.82,3.12a.42.42,0,0,1-.15.26,11.85,11.85,0,0,0-3.2,3.38.55.55,0,0,1-.1.11Z"/><path class="cls-11" d="M451.93,423l19.38-8.37a26.12,26.12,0,0,0-8.95-10.3l-.19-.12a28.38,28.38,0,0,0-4.72-2.5c-2.71-1.08-5.35-2-7.92-2.92-5.49-1.92-10.66-3.75-15.37-6.86-.6-.41-1.21-.84-1.78-1.27a49.63,49.63,0,0,1-8-8.25,64,64,0,0,0-8.41-8.89c-.68-.56-1.4-1.09-2.13-1.58a25.44,25.44,0,0,0-35.62,34.66,23.39,23.39,0,0,0,7.24,7.45c4.09,2.72,8.6,4.11,13,5.46a66.93,66.93,0,0,1,7.11,2.48,44.81,44.81,0,0,1,6.77,3.74,62.16,62.16,0,0,1,8.18,6.51,56.13,56.13,0,0,1,4.67,5.14c2.72,3.22,5.53,6.56,9.52,9.2h0a24.88,24.88,0,0,0,18.94,3.55,25.22,25.22,0,0,0,15.93-10.67Z"/><path class="cls-12" d="M465.69,417.09c-.18-.37-.38-.73-.59-1.09a19.81,19.81,0,0,0-6.17-6.55h0a20,20,0,0,0-3.79-2c-2.56-1-5.14-1.95-7.63-2.82-6.62-2.33-12.86-4.52-18.81-9a54.71,54.71,0,0,1-9-9.22,61,61,0,0,0-7.6-8.08,19.42,19.42,0,0,0-28.32,4.27,19.55,19.55,0,0,0-.3,20.9c3.82,6.24,10.12,8.19,16.78,10.24a72.38,72.38,0,0,1,7.77,2.74A60.48,60.48,0,0,1,424.7,427.8a62.56,62.56,0,0,1,5.18,5.66c2.44,2.89,5,5.89,8.19,8a18.7,18.7,0,0,0,14.2,2.71A19.1,19.1,0,0,0,464.53,436c.17-.26.33-.52.49-.79"/><path class="cls-11" d="M1048.31,401.28l-.17-17.41a21.61,21.61,0,0,0-10.69,3.52l-.15.11a22.14,22.14,0,0,0-3.4,2.79c-1.7,1.71-3.25,3.43-4.76,5.09-3.21,3.56-6.26,6.91-10.12,9.5-.51.32-1,.64-1.54.95a41.68,41.68,0,0,1-8.81,3.41,53,53,0,0,0-9.44,3.56,18.64,18.64,0,0,0-1.88,1.12,21,21,0,0,0,15,38.15,19.54,19.54,0,0,0,8-3.13,40.15,40.15,0,0,0,8.28-8.12,56.24,56.24,0,0,1,4.16-4.61,37.91,37.91,0,0,1,5-4,52,52,0,0,1,7.57-4.13,47.25,47.25,0,0,1,5.4-1.92,37.45,37.45,0,0,0,10-4.3h0a20.52,20.52,0,0,0,8.74-13.27,20.77,20.77,0,0,0-3-15.52Z"/><path class="cls-12" d="M1048.19,388.92c-.34,0-.68.06-1,.1a16.51,16.51,0,0,0-7,2.6h0a16.33,16.33,0,0,0-2.75,2.24c-1.61,1.62-3.12,3.29-4.58,4.9-3.88,4.29-7.54,8.34-12.86,11.43a45.86,45.86,0,0,1-9.89,3.89,49.71,49.71,0,0,0-8.57,3.19,15.78,15.78,0,0,0-7.91,10.1,15.94,15.94,0,0,0,2.11,12.8,16.14,16.14,0,0,0,15.8,6.9c6-.91,9.46-5.08,13.15-9.49a57,57,0,0,1,4.55-5,49.7,49.7,0,0,1,14-9,51.89,51.89,0,0,1,6-2.13,33.35,33.35,0,0,0,8.72-3.66,15.45,15.45,0,0,0,6.59-9.94,15.74,15.74,0,0,0-2.3-11.93l-.44-.63"/><path class="cls-3" d="M211.14,347.62a15.71,15.71,0,0,1-.74,5.51l-15.06.73,10.34,12.65c-11.32,24.78-33.86,38-33.86,38a14.56,14.56,0,0,1-17.22-23.37c16.27-17,24-32.38,26.36-37.76a15.14,15.14,0,0,1,.85-2,15.51,15.51,0,0,1,29.33,6.24Z"/><path class="cls-3" d="M678.88,427.11a13,13,0,0,0-1.37-1.85,124,124,0,0,1-17.22-34.18l-11.82-.87,9.44-8.27a12.68,12.68,0,1,0-24.53,6.32c10.7,44.38,24.8,55.36,24.8,55.36a13.34,13.34,0,0,0,20.7-16.51Z"/><path class="cls-3" d="M880,377.16l15.8-6.07L883,362.44c.15-.88.31-1.72.44-2.63a15.59,15.59,0,1,1,31,3.33S911,395.71,891,430.49l-.08-.06A15.58,15.58,0,1,1,865,413.15S873.76,402.18,880,377.16Z"/><path class="cls-6" d="M1248.66,378.92c1.86-6.51-1.7-13.84-8.46-17.41a16.29,16.29,0,0,0-11.73-1.54,12.6,12.6,0,0,0-8.33,6.49,12.21,12.21,0,0,0-.85,2.17c-1.87,6.51,1.69,13.83,8.46,17.42a16.36,16.36,0,0,0,11.72,1.53,12.58,12.58,0,0,0,8.33-6.49A12.25,12.25,0,0,0,1248.66,378.92Z"/><path class="cls-6" d="M1259.74,415.55c5.56-3.69,7.61-11.68,4.89-19a17,17,0,0,0-7.7-9.17,12,12,0,0,0-10.33-.74,11.5,11.5,0,0,0-2,1.07c-5.55,3.67-7.6,11.67-4.88,19a17,17,0,0,0,7.69,9.18,12,12,0,0,0,10.33.73A10.8,10.8,0,0,0,1259.74,415.55Z"/><path class="cls-6" d="M1272,447.64c5.22-4.18,6.56-12.33,3.2-19.37a16.9,16.9,0,0,0-8.48-8.4,12,12,0,0,0-10.37.23,13.44,13.44,0,0,0-1.92,1.25c-5.21,4.19-6.56,12.34-3.19,19.37a16.83,16.83,0,0,0,8.48,8.4,12,12,0,0,0,10.37-.23A10.29,10.29,0,0,0,1272,447.64Z"/><path class="cls-6" d="M1299.83,467.69c3.33-5.89,1.59-13.9-4.13-19.07a16.41,16.41,0,0,0-11-4.42,12.18,12.18,0,0,0-10.9,6.17c-3.31,5.88-1.57,13.91,4.14,19.07a16.39,16.39,0,0,0,11,4.41,12.36,12.36,0,0,0,9.57-4.26A11.8,11.8,0,0,0,1299.83,467.69Z"/><path class="cls-6" d="M1206.67,350.84l-12.25,3.88a13.58,13.58,0,0,1,.25-10.94,11,11,0,0,1,.86-1.44,12,12,0,0,1,9.07-4.95,17,17,0,0,1,11.47,3.49c6.44,4.79,9,13,6,19.05a11.25,11.25,0,0,1-.87,1.44,12,12,0,0,1-9.05,4.95,16.31,16.31,0,0,1-8.27-1.61Z"/><path class="cls-13" d="M300.51,416.76l-9.94,44-4.85-1.09-17-31.33L262.93,454l-9.13-2.07L263.71,408l4.84,1.1,16.93,32,6-26.4Z"/><path class="cls-13" d="M563.47,331,570,376.28l-5,.72L537.6,353.53l3.8,26.3L532,381.19l-6.53-45.13,5-.72,27.6,24.16-3.92-27.13Z"/><path class="cls-13" d="M1388.39,376.18l-11.93,40.1-4.41-1.31-13.79-30-6.93,23.3-8.31-2.47,11.89-40,4.41,1.31L1373,397.76l7.14-24Z"/><path class="cls-13" d="M791.89,375.51l-12.23,41.12-4.52-1.34L761,384.5l-7.1,23.9-8.53-2.53,12.2-41,4.52,1.35,14,31.44L783.42,373Z"/></g></g></svg>