<svg xmlns="http://www.w3.org/2000/svg" viewBox="0 0 1187.8 167.1"><defs><style>.cls-1{fill:#3caba1;}</style></defs><g id="Layer_2" data-name="Layer 2"><g id="Layer_14" data-name="Layer 14"><path class="cls-1" d="M92,66.07S68.27,75,71.13,95.41a8.68,8.68,0,0,0,.81,2.78c26.89-15.48,41.53-15.13,41.53-15.13C99.41,84.25,81.68,94.19,74.89,98.29c0,0-9.1,4.11-11.1,9.54a52.37,52.37,0,0,0-8-8.57l0-.07S46.85,92,38.09,89a85.05,85.05,0,0,1-9.31-4.06c2.18.33,4.47,1.2,10.55,3.51A54.86,54.86,0,0,1,56,98.5c.49-1,1.68-3,1.59-4.65-1.26-22.83-35-24.55-35-24.55C4.14,69.05,0,77.89,0,77.89c6.62.49,16.56,17.43,16.56,17.43s14.7,22.1,36,12.52c4-1.81,3.66-4.77,3-6.49,0,0,6.36,4.85,7.19,11.64.52,4.19,2.65,13.78,2.65,13.78S68.61,140,65,151.43l2,.65c4.74-12.35,2-24.47-.7-33.85-3.41-12.1,4.79-16,8.55-17.09-.78,1.44-1.41,4.1,2.21,6.62,0,0,23.2,11.73,51.15-15.75,14.07-13.82,16.93-9.57,16.93-9.57S130,53.11,92,66.07"/><path class="cls-1" d="M860.13,4S889.06,15,885.57,39.87a10.87,10.87,0,0,1-1,3.39c-32.84-18.9-50.72-18.48-50.72-18.48C851,26.24,872.69,38.38,881,43.38c0,0,11.12,5,13.57,11.66a64.06,64.06,0,0,1,9.82-10.48l-.05-.07s10.91-8.77,21.6-12.49a105,105,0,0,0,11.38-4.95c-2.67.39-5.46,1.46-12.89,4.29-7.64,2.64-15.8,8.26-20.31,12.3C903.5,42.48,902,40,902.15,38c1.53-27.88,42.73-30,42.73-30,22.49-.3,27.55,10.49,27.55,10.49-8.09.6-20.22,21.29-20.22,21.29s-18,27-44,15.29c-4.94-2.22-4.47-5.82-3.64-7.93,0,0-7.77,5.92-8.79,14.21-.63,5.12-3.24,16.84-3.24,16.84s-3.91,16.16.51,30.1l-2.38.8c-5.78-15.08-2.38-29.88.85-41.33,4.18-14.79-5.84-19.52-10.44-20.88,1,1.77,1.73,5-2.69,8.09,0,0-28.33,14.32-62.47-19.23C798.75,18.83,795.26,24,795.26,24S813.71-11.8,860.13,4"/><path class="cls-1" d="M380,41.65S402.9,50.31,400.13,70a8.61,8.61,0,0,1-.78,2.69c-26-15-40.16-14.63-40.16-14.63,13.6,1.15,30.74,10.77,37.3,14.73,0,0,8.81,4,10.74,9.22A51.12,51.12,0,0,1,415,73.73a.21.21,0,0,0,0-.06s8.64-6.94,17.1-9.89a82.82,82.82,0,0,0,9-3.92c-2.11.32-4.32,1.16-10.2,3.4A52.83,52.83,0,0,0,414.8,73c-.47-.92-1.62-2.88-1.53-4.49,1.21-22.08,33.82-23.74,33.82-23.74,17.81-.24,21.81,8.31,21.81,8.31-6.4.47-16,16.85-16,16.85S438.68,91.29,418.07,82c-3.91-1.76-3.54-4.61-2.89-6.28,0,0-6.15,4.69-7,11.25-.5,4-2.56,13.33-2.56,13.33s-3.09,12.79.41,23.84l-1.89.62c-4.58-11.94-1.88-23.65.68-32.72,3.3-11.71-4.63-15.45-8.27-16.53.75,1.4,1.37,4-2.13,6.41,0,0-22.43,11.34-49.46-15.23-13.6-13.37-16.37-9.25-16.37-9.25S343.24,29.11,380,41.65"/><path class="cls-1" d="M580.72,6.9S615.53,20.05,611.32,50a12.88,12.88,0,0,1-1.19,4.08c-39.49-22.73-61-22.22-61-22.22,20.66,1.75,46.71,16.35,56.68,22.37,0,0,13.37,6,16.31,14a77,77,0,0,1,11.82-12.6l-.07-.09s13.13-10.55,26-15a125,125,0,0,0,13.69-6c-3.21.48-6.57,1.76-15.51,5.16-9.19,3.17-19,9.94-24.43,14.8-.71-1.4-2.46-4.38-2.33-6.83,1.84-33.54,51.39-36.06,51.39-36.06,27.07-.36,33.15,12.62,33.15,12.62-9.73.72-24.33,25.61-24.33,25.61s-21.59,32.45-52.91,18.39c-5.94-2.67-5.37-7-4.39-9.54,0,0-9.34,7.12-10.57,17.09-.75,6.16-3.88,20.25-3.88,20.25s-4.71,19.44.61,36.22l-2.86.95c-7-18.14-2.87-35.94,1-49.71,5-17.79-7-23.48-12.56-25.12,1.14,2.13,2.08,6-3.24,9.74,0,0-34.08,17.23-75.14-23.14C506.89,24.69,502.7,30.94,502.7,30.94s22.18-43.09,78-24"/><path class="cls-1" d="M781.63,67.69S759.6,76,762.26,95a8.06,8.06,0,0,0,.76,2.59c25-14.4,38.62-14.08,38.62-14.08-13.08,1.11-29.57,10.36-35.88,14.17,0,0-8.47,3.82-10.33,8.88a48.34,48.34,0,0,0-7.49-8l0-.06s-8.31-6.68-16.45-9.51a78.9,78.9,0,0,1-8.67-3.77c2,.3,4.16,1.11,9.82,3.27a51.16,51.16,0,0,1,15.47,9.36c.45-.88,1.55-2.77,1.47-4.32-1.17-21.23-32.54-22.83-32.54-22.83-17.13-.23-21,8-21,8,6.16.46,15.4,16.21,15.4,16.21s13.67,20.55,33.5,11.65c3.76-1.69,3.4-4.44,2.78-6,0,0,5.91,4.51,6.69,10.82.48,3.9,2.46,12.82,2.46,12.82s3,12.31-.39,22.93l1.81.61c4.41-11.49,1.82-22.76-.64-31.48-3.18-11.26,4.45-14.86,7.95-15.9-.73,1.34-1.32,3.82,2.05,6.16,0,0,21.58,10.91,47.57-14.65C828.38,79,831,82.91,831,82.91s-14-27.28-49.41-15.22"/><path class="cls-1" d="M261.14,18.22S232.56,29,236,53.61A10.47,10.47,0,0,0,237,57c32.43-18.67,50.1-18.25,50.1-18.25-17,1.44-38.36,13.43-46.54,18.37,0,0-11,5-13.4,11.51a63.2,63.2,0,0,0-9.71-10.34l.06-.08s-10.78-8.66-21.34-12.34a102.45,102.45,0,0,1-11.24-4.89c2.63.39,5.39,1.45,12.73,4.24,7.55,2.61,15.61,8.17,20.06,12.15.59-1.14,2-3.59,1.91-5.6-1.51-27.55-42.2-29.62-42.2-29.62-22.22-.29-27.21,10.37-27.21,10.37,8,.59,20,21,20,21s17.73,26.66,43.45,15.11c4.88-2.2,4.42-5.76,3.6-7.83,0,0,7.68,5.85,8.68,14,.63,5.06,3.2,16.63,3.2,16.63s3.86,16-.51,29.74L231,122c5.71-14.9,2.35-29.52-.84-40.83-4.13-14.6,5.77-19.28,10.31-20.62-.94,1.74-1.71,4.95,2.66,8,0,0,28,14.15,61.71-19C321.77,32.83,325.21,38,325.21,38S307,2.58,261.14,18.22"/><path class="cls-1" d="M1106.39,35.27s-36.32,13.73-31.93,45a13.54,13.54,0,0,0,1.24,4.26c41.21-23.73,63.66-23.2,63.66-23.2-21.56,1.83-48.74,17.07-59.14,23.35,0,0-14,6.3-17,14.63a80.53,80.53,0,0,0-12.34-13.15l.07-.09s-13.69-11-27.11-15.68a130.64,130.64,0,0,1-14.28-6.22c3.34.5,6.85,1.84,16.18,5.39,9.58,3.31,19.83,10.38,25.49,15.44.74-1.46,2.57-4.57,2.43-7.12-1.92-35-53.63-37.64-53.63-37.64-28.24-.37-34.58,13.18-34.58,13.18,10.15.75,25.38,26.71,25.38,26.71S1013.34,114,1046,99.3c6.2-2.79,5.61-7.31,4.58-10,0,0,9.75,7.43,11,17.83.79,6.43,4.06,21.13,4.06,21.13s4.91,20.28-.65,37.79l3,1c7.26-18.93,3-37.51-1.06-51.88-5.24-18.56,7.34-24.49,13.1-26.2-1.19,2.21-2.17,6.29,3.38,10.15,0,0,35.56,18,78.41-24.14,21.56-21.19,25.94-14.67,25.94-14.67s-23.15-45-81.41-25.09"/><path class="cls-1" d="M522.53,89.37s-17,6.44-15,21.09a6.27,6.27,0,0,0,.58,2C527.46,101.33,538,101.58,538,101.58c-10.11.85-22.85,8-27.73,10.94,0,0-6.54,3-8,6.86a37.62,37.62,0,0,0-5.79-6.16l0,0s-6.42-5.16-12.71-7.35a61.05,61.05,0,0,1-6.69-2.91c1.56.23,3.21.86,7.58,2.52a39.56,39.56,0,0,1,11.95,7.24,7.41,7.41,0,0,0,1.14-3.34c-.9-16.41-25.14-17.64-25.14-17.64-13.24-.18-16.22,6.17-16.22,6.17,4.76.36,11.91,12.53,11.91,12.53s10.56,15.88,25.88,9c2.91-1.31,2.63-3.43,2.15-4.66,0,0,4.57,3.48,5.17,8.36.37,3,1.9,9.91,1.9,9.91s2.31,9.51-.3,17.72l1.4.46c3.41-8.87,1.41-17.58-.5-24.32-2.45-8.7,3.45-11.49,6.15-12.29-.56,1-1,3,1.58,4.76,0,0,16.68,8.43,36.77-11.32,10.11-9.94,12.16-6.88,12.16-6.88s-10.85-21.08-38.17-11.76"/></g></g></svg>