<svg xmlns="http://www.w3.org/2000/svg" xmlns:xlink="http://www.w3.org/1999/xlink" viewBox="0 0 1450 1787"><defs><style>.cls-1,.cls-57{fill:none;}.cls-106,.cls-2,.cls-3,.cls-61,.cls-63,.cls-70{fill:#5d5152;}.cls-3{font-size:40px;}.cls-3,.cls-31,.cls-41,.cls-61{font-family:Acre-Light, Acre;font-weight:300;}.cls-4{letter-spacing:0em;}.cls-5{letter-spacing:-0.02em;}.cls-6{letter-spacing:-0.01em;}.cls-7{letter-spacing:0em;}.cls-8{letter-spacing:0em;}.cls-9{letter-spacing:-0.02em;}.cls-10{letter-spacing:-0.02em;}.cls-11{letter-spacing:-0.01em;}.cls-12{letter-spacing:0em;}.cls-13{letter-spacing:-0.01em;}.cls-14{letter-spacing:-0.04em;}.cls-15{letter-spacing:-0.01em;}.cls-16{letter-spacing:-0.07em;}.cls-17{letter-spacing:-0.01em;}.cls-18{letter-spacing:-0.03em;}.cls-19{letter-spacing:-0.02em;}.cls-20{letter-spacing:-0.02em;}.cls-21{letter-spacing:-0.02em;}.cls-22{letter-spacing:-0.01em;}.cls-23{letter-spacing:0em;}.cls-24{font-size:70px;font-family:Acre-Semibold, Acre;font-weight:600;}.cls-24,.cls-30,.cls-31,.cls-58,.cls-80{fill:#eb6a7c;}.cls-25{letter-spacing:-0.03em;}.cls-26{letter-spacing:-0.01em;}.cls-27{letter-spacing:-0.03em;}.cls-28{letter-spacing:0em;}.cls-29{letter-spacing:-0.01em;}.cls-30,.cls-70{font-size:52.03px;}.cls-30{font-family:Acre-Regular, Acre;}.cls-31,.cls-50{font-size:60px;}.cls-32{letter-spacing:-0.02em;}.cls-33{letter-spacing:0em;}.cls-34{letter-spacing:-0.01em;}.cls-35{letter-spacing:-0.01em;}.cls-36{letter-spacing:-0.01em;}.cls-37{letter-spacing:-0.02em;}.cls-38{letter-spacing:0.01em;}.cls-39{letter-spacing:0.01em;}.cls-40{letter-spacing:0.01em;}.cls-41{font-size:50px;fill:#fff;}.cls-42{letter-spacing:-0.02em;}.cls-43{letter-spacing:-0.01em;}.cls-44{letter-spacing:-0.01em;}.cls-45{letter-spacing:-0.02em;}.cls-46{letter-spacing:0em;}.cls-47{letter-spacing:-0.01em;}.cls-48{letter-spacing:0em;}.cls-49{letter-spacing:0em;}.cls-50,.cls-55,.cls-63,.cls-70{font-family:Acre-Bold, Acre;font-weight:700;}.cls-51{letter-spacing:-0.01em;}.cls-52{letter-spacing:-0.01em;}.cls-53{letter-spacing:-0.02em;}.cls-54{letter-spacing:-0.01em;}.cls-56,.cls-85{fill:#3caba1;}.cls-57{stroke:#f27243;stroke-linecap:round;stroke-linejoin:round;}.cls-103,.cls-59{fill:#ffce01;}.cls-111,.cls-60{fill:#2e61a1;}.cls-61,.cls-63{font-size:39.73px;}.cls-62{letter-spacing:-0.01em;}.cls-64{letter-spacing:-0.01em;}.cls-65{letter-spacing:0em;}.cls-66{letter-spacing:-0.02em;}.cls-67{letter-spacing:-0.03em;}.cls-68{letter-spacing:-0.01em;}.cls-69{letter-spacing:-0.02em;}.cls-71{letter-spacing:0em;}.cls-72{letter-spacing:-0.01em;}.cls-73{letter-spacing:-0.01em;}.cls-74{letter-spacing:-0.02em;}.cls-75{letter-spacing:0em;}.cls-76{letter-spacing:0em;}.cls-77{letter-spacing:-0.03em;}.cls-78{letter-spacing:-0.02em;}.cls-79{letter-spacing:-0.03em;}.cls-103,.cls-106,.cls-111,.cls-112,.cls-80,.cls-85{font-size:32.82px;font-family:MyriadPro-Regular, Myriad Pro;}.cls-81{letter-spacing:0.01em;}.cls-82{letter-spacing:0em;}.cls-83{letter-spacing:0em;}.cls-84{letter-spacing:0em;}.cls-86{clip-path:url(#clip-path);}.cls-87{clip-path:url(#clip-path-2);}.cls-88{clip-path:url(#clip-path-3);}.cls-89{clip-path:url(#clip-path-4);}.cls-90{clip-path:url(#clip-path-5);}.cls-91{clip-path:url(#clip-path-6);}.cls-92{clip-path:url(#clip-path-7);}.cls-93{clip-path:url(#clip-path-8);}.cls-94{clip-path:url(#clip-path-9);}.cls-95{clip-path:url(#clip-path-10);}.cls-96{clip-path:url(#clip-path-11);}.cls-97{clip-path:url(#clip-path-12);}.cls-98{clip-path:url(#clip-path-13);}.cls-99{clip-path:url(#clip-path-14);}.cls-100{clip-path:url(#clip-path-15);}.cls-101{clip-path:url(#clip-path-16);}.cls-102{clip-path:url(#clip-path-17);}.cls-104{letter-spacing:-0.01em;}.cls-105{letter-spacing:0.01em;}.cls-107{letter-spacing:0.02em;}.cls-108{letter-spacing:-0.01em;}.cls-109{letter-spacing:-0.01em;}.cls-110{letter-spacing:0em;}.cls-112,.cls-115{fill:#f27243;}.cls-113{letter-spacing:0em;}.cls-114{letter-spacing:-0.01em;}</style><clipPath id="clip-path" transform="translate(0 -169)"><rect class="cls-1" x="447.04" y="749.03" width="94.93" height="94.93"/></clipPath><clipPath id="clip-path-2" transform="translate(0 -169)"><rect class="cls-1" x="461.8" y="776.3" width="31.19" height="31.19"/></clipPath><clipPath id="clip-path-3" transform="translate(0 -169)"><rect class="cls-1" x="449.39" y="793.49" width="29.82" height="29.6"/></clipPath><clipPath id="clip-path-4" transform="translate(0 -169)"><rect class="cls-1" x="502.55" y="757.85" width="29.82" height="29.83"/></clipPath><clipPath id="clip-path-5" transform="translate(0 -169)"><rect class="cls-1" x="492.99" y="794.74" width="29.83" height="29.83"/></clipPath><clipPath id="clip-path-6" transform="translate(0 -169)"><rect class="cls-1" x="465.67" y="811.36" width="29.82" height="29.83"/></clipPath><clipPath id="clip-path-7" transform="translate(0 -169)"><rect class="cls-1" x="491.17" y="812.5" width="29.82" height="29.82"/></clipPath><clipPath id="clip-path-8" transform="translate(0 -169)"><rect class="cls-1" x="514.62" y="785.96" width="27.36" height="27.36"/></clipPath><clipPath id="clip-path-9" transform="translate(0 -169)"><rect class="cls-1" x="484.11" y="770.7" width="33.96" height="33.96"/></clipPath><clipPath id="clip-path-10" transform="translate(0 -169)"><rect class="cls-1" x="543.21" y="707.94" width="82.32" height="82.32"/></clipPath><clipPath id="clip-path-11" transform="translate(0 -169)"><rect class="cls-1" x="591.6" y="740.54" width="29.34" height="29.33"/></clipPath><clipPath id="clip-path-12" transform="translate(0 -169)"><rect class="cls-1" x="543.73" y="742.38" width="25.86" height="25.66"/></clipPath><clipPath id="clip-path-13" transform="translate(0 -169)"><rect class="cls-1" x="571.88" y="735.24" width="23.15" height="23.15"/></clipPath><clipPath id="clip-path-14" transform="translate(0 -169)"><rect class="cls-1" x="555.61" y="728.27" width="23.99" height="23.99"/></clipPath><clipPath id="clip-path-15" transform="translate(0 -169)"><rect class="cls-1" x="556.66" y="756.93" width="28.15" height="28.15"/></clipPath><clipPath id="clip-path-16" transform="translate(0 -169)"><rect class="cls-1" x="576.89" y="758.38" width="30.45" height="30.45"/></clipPath><clipPath id="clip-path-17" transform="translate(0 -169)"><rect class="cls-1" x="594.74" y="717.82" width="21.98" height="21.98"/></clipPath></defs><g id="Layer_2" data-name="Layer 2"><g id="Layer_12" data-name="Layer 12"><path class="cls-2" d="M1450,1436.71c-174.66-1.5-359.08,10-359.08,10s-206.79,14.84-515.17,0S0,1446.7,0,1446.7V1956H1450Z" transform="translate(0 -169)"/><text class="cls-3" transform="translate(185.3 365.05)"><tspan class="cls-4">s</tspan><tspan x="16.24" y="0">oils </tspan><tspan class="cls-5" x="89.52" y="0">n</tspan><tspan class="cls-6" x="111.72" y="0">o</tspan><tspan class="cls-7" x="135.32" y="0">t on</tspan><tspan class="cls-8" x="207.08" y="0">l</tspan><tspan class="cls-9" x="215.96" y="0">y</tspan><tspan x="234.75" y="0" xml:space="preserve"> boa</tspan><tspan class="cls-10" x="321.99" y="0">s</tspan><tspan x="337.63" y="0">t ¼ </tspan><tspan class="cls-6" x="396.43" y="0">o</tspan><tspan class="cls-7" x="420.03" y="0">f t</tspan><tspan class="cls-11" x="455.99" y="0">h</tspan><tspan class="cls-12" x="478.23" y="0">e</tspan><tspan class="cls-13" x="500.83" y="0"> </tspan><tspan class="cls-11" x="514.35" y="0">w</tspan><tspan x="545.59" y="0">orld</tspan><tspan class="cls-14" x="615.55" y="0">’</tspan><tspan x="620.27" y="0">s biod</tspan><tspan class="cls-8" x="733.86" y="0">i</tspan><tspan class="cls-5" x="743.74" y="0">v</tspan><tspan x="763.22" y="0">e</tspan><tspan class="cls-15" x="785.82" y="0">r</tspan><tspan x="797.62" y="0">sit</tspan><tspan class="cls-16" x="835.06" y="0">y</tspan><tspan x="851.86" y="0">, t</tspan><tspan class="cls-11" x="883.38" y="0">h</tspan><tspan class="cls-17" x="905.62" y="0">e</tspan><tspan class="cls-18" x="927.66" y="0">y</tspan><tspan x="946.42" y="0"> </tspan><tspan class="cls-11" x="960.22" y="0">h</tspan><tspan x="982.46" y="0">old t</tspan><tspan class="cls-5" x="1065.14" y="0">h</tspan><tspan x="1087.38" y="0">e </tspan></text><text class="cls-3" transform="translate(202.06 428.73)">g<tspan class="cls-19" x="24.68" y="0">r</tspan><tspan x="36.08" y="0">ea</tspan><tspan class="cls-20" x="83.36" y="0">t</tspan><tspan class="cls-8" x="93.68" y="0">e</tspan><tspan class="cls-21" x="116.12" y="0">s</tspan><tspan x="131.8" y="0">t co</tspan><tspan class="cls-17" x="201.88" y="0">n</tspan><tspan x="224.12" y="0">cent</tspan><tspan class="cls-20" x="301.71" y="0">r</tspan><tspan class="cls-12" x="313.11" y="0">ation </tspan><tspan class="cls-6" x="419.59" y="0">o</tspan><tspan x="443.19" y="0">f bio</tspan><tspan class="cls-11" x="526.87" y="0">m</tspan><tspan x="561.23" y="0">ass a</tspan><tspan class="cls-22" x="657.03" y="0">n</tspan><tspan class="cls-7" x="679.47" y="0">y</tspan><tspan class="cls-23" x="699.23" y="0">w</tspan><tspan class="cls-11" x="730.9" y="0">h</tspan><tspan x="753.15" y="0">e</tspan><tspan class="cls-20" x="775.74" y="0">r</tspan><tspan x="787.14" y="0">e on t</tspan><tspan class="cls-5" x="895.3" y="0">h</tspan><tspan x="917.54" y="0">e pla</tspan><tspan class="cls-17" x="1012.3" y="0">n</tspan><tspan class="cls-6" x="1034.54" y="0">e</tspan><tspan x="1056.66" y="0">t!</tspan></text><text class="cls-24" transform="translate(443.09 87.38)"><tspan class="cls-25">k</tspan><tspan x="34.93" y="0">eep it d</tspan><tspan class="cls-26" x="289.09" y="0">i</tspan><tspan class="cls-27" x="308.48" y="0">v</tspan><tspan class="cls-28" x="343.13" y="0">e</tspan><tspan class="cls-29" x="382.4" y="0">r</tspan><tspan x="405.99" y="0">siﬁed!</tspan></text><text class="cls-30" transform="translate(690.41 148.76)"> </text><text class="cls-31" transform="translate(355.46 166.46)">a <tspan class="cls-32" x="57.72" y="0">t</tspan><tspan class="cls-33" x="73.14" y="0">easpoon </tspan><tspan class="cls-34" x="332.63" y="0">o</tspan><tspan x="368.03" y="0">f </tspan><tspan class="cls-35" x="405.35" y="0">h</tspan><tspan x="438.71" y="0">ealt</tspan><tspan class="cls-36" x="539.81" y="0">h</tspan><tspan class="cls-9" x="573.47" y="0">y soil</tspan><tspan x="704.39" y="0"> </tspan></text><text class="cls-31" transform="translate(230.69 243.89)">con<tspan class="cls-37" x="102" y="0">t</tspan><tspan x="117.48" y="0">ai</tspan><tspan class="cls-38" x="169.56" y="0">n</tspan><tspan x="204.18" y="0">s billio</tspan><tspan class="cls-39" x="379.73" y="0">n</tspan><tspan x="414.29" y="0">s </tspan><tspan class="cls-34" x="459.47" y="0">o</tspan><tspan x="494.87" y="0">f mic</tspan><tspan class="cls-37" x="631.37" y="0">r</tspan><tspan x="648.47" y="0">oo</tspan><tspan class="cls-37" x="720.71" y="0">r</tspan><tspan x="737.81" y="0">ganis</tspan><tspan class="cls-40" x="885.58" y="0">m</tspan><tspan x="938.44" y="0">s!</tspan></text><text class="cls-41" transform="translate(315.9 1464.79)">mic<tspan class="cls-42" x="82.65" y="0">r</tspan><tspan x="96.9" y="0">ob</tspan><tspan class="cls-43" x="157.85" y="0">e</tspan><tspan x="185.85" y="0">s a</tspan><tspan class="cls-42" x="254.35" y="0">r</tspan><tspan x="268.59" y="0">e t</tspan><tspan class="cls-44" x="327.94" y="0">h</tspan><tspan x="355.79" y="0">e ﬁl</tspan><tspan class="cls-45" x="437.09" y="0">t</tspan><tspan class="cls-46" x="449.94" y="0">er th</tspan><tspan class="cls-42" x="553.04" y="0">r</tspan><tspan x="567.29" y="0">ough</tspan><tspan class="cls-47" x="685.29" y="0"> </tspan><tspan class="cls-48" x="702.18" y="0">w</tspan><tspan class="cls-49" x="741.78" y="0">hich</tspan><tspan class="cls-50"><tspan x="185.61" y="88.92">rich, dark, </tspan><tspan class="cls-51" x="482.67" y="88.92">s</tspan><tspan class="cls-52" x="509.06" y="88.92">t</tspan><tspan x="528.92" y="88.92">able</tspan></tspan><tspan class="cls-4" x="61.3" y="166.49">s</tspan><tspan x="81.6" y="166.49">oil o</tspan><tspan class="cls-20" x="182.9" y="166.49">r</tspan><tspan class="cls-46" x="197.15" y="166.49">ganic </tspan><tspan class="cls-53" x="343.54" y="166.49">m</tspan><tspan x="386.49" y="166.49">at</tspan><tspan class="cls-20" x="431.19" y="166.49">t</tspan><tspan class="cls-46" x="444.09" y="166.49">er is </tspan><tspan class="cls-45" x="554.99" y="166.49">f</tspan><tspan x="567.84" y="166.49">or</tspan><tspan class="cls-54" x="613.14" y="166.49">m</tspan><tspan x="656.14" y="166.49">ed!</tspan><tspan class="cls-55" x="725.94" y="166.49"> </tspan><tspan x="742.03" y="166.49" xml:space="preserve">  </tspan></text><path class="cls-56" d="M907.72,1059.87c-2.49-2.22-4.16-8.59-4.16-8.59-3-.27-6.66-2.87-6.66-2.88a17.69,17.69,0,0,0-5.8-7.64c.55-9.15-5.27-9.42-5.27-9.42-19.94-37.68-56-19.4-56-19.4s-15.24,7.48-15.79,17.73,9.7,20.78,9.7,20.78a47.5,47.5,0,0,0,6.59,6.79c-.79,1-2.51,2.23-6,1.52,0,0-5,7.12-5.26,12.15,0,0,4.15-8.2,6.92-8.24a9.32,9.32,0,0,0,8,0s.55,5,2.49,6.07c0,0,2.22,10.8,5.27,14.4,0,0,0-11.35-3.88-15.91s-1.39-3.88-1.39-3.88a2.84,2.84,0,0,0,4.09.45,31.09,31.09,0,0,0,5.61,1.89,41.84,41.84,0,0,0,18.46-.41c1,2.47,2.26,6.72.37,9.21a103.08,103.08,0,0,0-6.64,11.15s16-9.43,9.16-21.11a42.14,42.14,0,0,0,5.24-1.86,37.33,37.33,0,0,0,9.75,4.2,22.91,22.91,0,0,0,2.72,8.79,28.18,28.18,0,0,0,3.32,10c1.52-6.49-1.36-15-2.69-18.43a4.71,4.71,0,0,0,4.36-2.63,20.54,20.54,0,0,0,1.11-13.85,8.53,8.53,0,0,0,4,.67c.28.07.62.13,1,.19-.55,7.34-1.09,13.27-1.09,13.27l3-4.71a24.52,24.52,0,0,0-.34-8.36c8.81.78,6.43,20.55,6.43,20.55,2.78-4.44,3.33-12.47,3.33-12.47" transform="translate(0 -169)"/><path class="cls-57" d="M593.44,1014.6s4.61-6.44,14.63-6.6,19.31-7,19.31-7" transform="translate(0 -169)"/><path class="cls-57" d="M502.3,1048.34l-11.66,13.14a6.39,6.39,0,0,0-3.92,2.55,3.61,3.61,0,0,0-3,.64c-1.17,1-4.77,0-4.77,0a7.1,7.1,0,0,0-3.08-.32" transform="translate(0 -169)"/><path class="cls-57" d="M529.86,1099.32s10,0,13.78-25.33" transform="translate(0 -169)"/><path class="cls-58" d="M267,700.37a11.91,11.91,0,0,0-17-10.77c-24.72,7.47-37.12,31.14-37.12,31.14a11.18,11.18,0,0,0,18.57,12.34c12.43-13.12,23.94-19.59,28-21.62A11.91,11.91,0,0,0,267,700.37" transform="translate(0 -169)"/><path class="cls-58" d="M279.92,745a13,13,0,1,0-22.37-13.36s-14.15,23.49-18.28,56.83h.08a14.17,14.17,0,0,0-.08,1.47,13,13,0,1,0,26.09,0s-.51-17.09,14.56-44.94" transform="translate(0 -169)"/><path class="cls-58" d="M334,783.77h0a10,10,0,0,0-1.44-1.15,95.14,95.14,0,0,1-23.68-28.46,10.15,10.15,0,1,0-18.08,9c17.47,32.06,30.64,37.61,30.64,37.61a10.67,10.67,0,0,0,12.56-17" transform="translate(0 -169)"/><path class="cls-59" d="M826.09,824.23a18.62,18.62,0,0,0-11.43-12.94,15.61,15.61,0,0,1-5.11-2.7c-3.91-4.21-10.52-3-10.52-3-1.51-4.81-9.33-5.11-9.33-5.11-6.61-5.72-11.43-3.24-11.43-3.24-4.81-3.23-12.93.53-12.93.53C755.42,795.35,753,802,753,802a5.3,5.3,0,0,0-5.11,2.71c-9,.3-9,14.13-9,14.13a9.18,9.18,0,0,0,.42,2.77s.58,3.45-3.63,5.35-6.82,8.22-6.82,8.22-1.05,3.61,5.24,0c0,0-1.53,5.32.88,6.72s2.7-5.51,2.7-5.51a17,17,0,0,1,5.23-9.44,20.26,20.26,0,0,0,5,3.32s.9-6.11,3.61-9.92,3.3,1.2,3.3,1.2c.31,8.12,4.82,11.23,4.82,11.23a53.55,53.55,0,0,1-2.11-8.52,17.37,17.37,0,0,0,5.12,7.21c-3.31-4.6-3.68-16.54-3.68-16.54l2.47,2.09s1.54,16.57,6.17,14.81c3.56-1.36,1.19-7.19,1.19-7.19a11.21,11.21,0,0,1-1.34-7.62c.9-6.7,4.21-1.49,4.21-1.49,5.71,12.94,3,22.56,3,22.56,3-1.2,3.6-6,3.6-6,7.89-.25,1.51-11.14.22-13.22,2,2.75,6.7,0,6.7,0,.9,4.21,6.92,2.41,6.92,2.41,1.5,4.51,5.41,3.31,5.41,3.31,3.31,4.81,20.45,7.21,20.45,7.21s10.83,2.71,8.12-7.51" transform="translate(0 -169)"/><path class="cls-59" d="M837,786.09a19.76,19.76,0,0,1,7.7-16.6,16.48,16.48,0,0,0,4.37-4.3c2.7-5.47,9.79-6.25,9.79-6.25.07-5.34,7.93-8,7.93-8,5-7.81,10.63-6.75,10.63-6.75,3.91-4.74,13.3-3.38,13.3-3.38,9.36-5.45,13.81.54,13.81.54a5.63,5.63,0,0,1,6,1.2c9.26-2.43,13.45,11.63,13.45,11.63a9.84,9.84,0,0,1,.41,2.94s.46,3.68,5.31,4.34,9.42,6.29,9.42,6.29,2.16,3.35-5.32,1.59c0,0,3.16,4.94,1.14,7.09s-4.42-4.78-4.42-4.78a18.09,18.09,0,0,0-8.17-8,21.66,21.66,0,0,1-4.07,4.89s-2.78-5.94-6.68-9-3,2.22-3,2.22c2.16,8.35-1.49,12.87-1.49,12.87a56.33,56.33,0,0,0-.44-9.29,18.41,18.41,0,0,1-3,8.88c2-5.68-1.27-17.92-1.27-17.92l-1.89,2.87s3.46,17.31-1.78,16.91c-4-.3-3.39-6.94-3.39-6.94s1.18-3.44-.94-8.15c-3-6.53-4.73-.23-4.73-.23-1.89,14.87,3.78,23.83,3.78,23.83-3.42-.31-5.48-5-5.48-5-8.1,2.14-4.91-10.86-4.23-13.36-1.16,3.38-6.82,2-6.82,2,.36,4.55-6.3,4.54-6.3,4.54-.16,5-4.5,5-4.5,5-1.9,5.9-18.6,13.54-18.6,13.54s-10.18,6-10.53-5.19" transform="translate(0 -169)"/><path class="cls-2" d="M1046.24,777.7s8.56-29.77,36.91-27.3c19.8,1.73,33.06,18.84,33.06,18.84s13,15.49,22.3,5c7.3-8.27,2.69-24.42,2.69-24.42s-4-13.35-3-24.45c.91-10.72,9.18-23.19,26.48-22.77,40.67,1,20.37,51.26,20.37,51.26s-10,22.37,7.7,21.53c20.18-1,11.53-22.68,11.53-22.68s-6.54-14-3.46-22.3c2.7-7.25,11.15,4.61,11.15,4.61s27.88,40.94-6.93,54.59c-19.6,7.69-35-3.58-37.29-17.56-1.92-11.85,3.72-23.79,3.72-23.79s10.13-25.54-6-28.23c-18.65-3.11-11.09,24.6-11.09,24.6s11.86,28.84-9.67,43.06-39.6-8.07-39.6-8.07-11.15-13.17-20-13.26c-18.07-.2-25,13.64-25,13.64s-5,6.92-11.53,3.46c-4.2-2.22-2.31-5.76-2.31-5.76" transform="translate(0 -169)"/><path class="cls-60" d="M375.49,1046.16c-3.23-18.61-20.85-23.78-37.48-24.36,1.81-1.86,5-5.42,5.49-7.65a10.49,10.49,0,0,1,1.07-3c3.9-.13,3-4.73,3-4.73,3.17-.47,2.3-2.87,2.3-2.87,2.9-.06,2.81-1.92,2.81-1.92,3.2.23,2.81-1.4,2.81-1.4a2.48,2.48,0,0,0,2.62-.77c4.22.83,4.73-.7,4.73-.7a3.75,3.75,0,0,0,2.62-.07c-4.22-.7-1.41-3.7-1.41-3.7a3.13,3.13,0,0,0-1.72,2.23,5.84,5.84,0,0,0-2.43.88c-.64.62-2.24.4-2.24.4-1.59-1.21-2.55.71-2.55.71-1.85-.9-2.88,1.14-2.88,1.14-2.55-.83-3.13,2-3.13,2-2.94,0-2.36,3.26-2.36,3.26-4.73,1.66-3.24,4.28-3.24,4.28-5.37,3-7.4,9.71-7.92,11.81a130.08,130.08,0,0,0-29.15,3.33s.32-5.24-1.15-6.39c-.86-.67-.32-2.36-.32-2.36,3.7-3.77,2.11-5.88,2.11-5.88,2.55-2.24,1.34-3.9,1.34-3.9a2.84,2.84,0,0,0,1.91-3.32c2.84-1.09,1.54-2.56,1.54-2.56a1.54,1.54,0,0,0,.25-2.49c1-4.09-.25-4.53-.25-4.53a3.67,3.67,0,0,0,0-2.69c-.45,4.47-3.52,1.15-3.52,1.15a3,3,0,0,0,1.79,1.86c-.19,1.46,1.28,3.7,1.28,3.7-1.34.51-.7,2.43-.7,2.43-1.41.19-1.28,2.49-1.28,2.49-2.56.51-2,3.32-2,3.32-2.5.83-1.28,4-1.28,4-3.13,1.28-2.17,6.33-2.17,6.33-4.09,4.15,0,10.09,0,10.09-5.24,1.66-6.2,7.86-6.2,7.86-5.18-4.22-12.33-4.47-12.33-4.47-2.43-5-5.62-5.75-5.62-5.75.32-1.53-1.47-1.83-1.47-1.83-.9-4-5.05-5.2-5.05-5.2.4-3.8-2.24-4.34-2.24-4.34-.57-3.64-2.23-3.13-2.23-3.13-1.15-3-2.69-2-2.69-2-1.08-2-2.62-1.09-2.62-1.09-1.66-1.79-4.4-1.15-4.4-1.15a2,2,0,0,0-1.86-.7c3.65,2-.32,3.38-.32,3.38,1,.26,2.18-.89,2.18-.89.89.77,4.15.25,4.15.25a1.92,1.92,0,0,0,2.43,1.16c-.2,1.46,2,1.78,2,1.78-.64,1.92,2,2.88,2,2.88a1.88,1.88,0,0,0,.39,2.87,9.29,9.29,0,0,1,2.55,2.3c-.7,4.86,4.73,5.5,4.73,5.5a1.18,1.18,0,0,0,1.21,1.08,5.47,5.47,0,0,0,1.73,3.9c-8.82-.45-9.84,8.37-9.84,8.37a9.24,9.24,0,0,0-6.07-.7s.19-1.66-2.94-1.66-3.19,3.38-3.19,3.38l-.77.71s-4.13-13.33-22.62-21.54c-18.27-8.11-23.36-18.14-23.36-18.14s1,9.09,22.45,18.82c18.61,8.44,22.44,21.22,22.44,21.22a2.75,2.75,0,0,0-1.36,1.7c-1.79-4.43-8-3.24-8-3.24s-1.27-.68-1.27.94a1.14,1.14,0,0,0,1.44,1.28,7.19,7.19,0,0,0-2.38,5.19s1.62,0,2-1.18a2.52,2.52,0,0,1,1.54-1.5,1.71,1.71,0,0,0,0,1.49s.51.26,2.13-1.87,2.3-.6,2.3-.6a5.44,5.44,0,0,0,0,9.54s-.69,1.53-2.3-.6-2.13-1.87-2.13-1.87a1.74,1.74,0,0,0,0,1.5,2.56,2.56,0,0,1-1.54-1.51c-.42-1.18-2-1.18-2-1.18a7.19,7.19,0,0,0,2.38,5.19,1.14,1.14,0,0,0-1.44,1.28c0,1.62,1.27.94,1.27.94s6.22,1.19,8-3.24a2.79,2.79,0,0,0,1.36,1.71s-3.83,12.77-22.44,21.21c-21.47,9.73-22.45,18.82-22.45,18.82s5.09-10,23.36-18.14c18.49-8.21,22.62-21.53,22.62-21.53l.77.7s.06,3.39,3.19,3.39,2.94-1.66,2.94-1.66a9.24,9.24,0,0,0,6.07-.7s1,8.81,9.84,8.36a5.47,5.47,0,0,0-1.73,3.9,1.19,1.19,0,0,0-1.21,1.09s-5.43.64-4.73,5.49a9.29,9.29,0,0,1-2.55,2.3,1.89,1.89,0,0,0-.39,2.88s-2.62,1-2,2.87c0,0-2.24.32-2,1.79a1.92,1.92,0,0,0-2.43,1.15s-3.26-.51-4.15.26c0,0-1.15-1.16-2.18-.9,0,0,4,1.34.32,3.39a2,2,0,0,0,1.86-.71s2.74.64,4.4-1.15c0,0,1.54.9,2.62-1.08,0,0,1.54,1,2.69-2,0,0,1.66.51,2.23-3.13,0,0,2.64-.54,2.24-4.35,0,0,4.15-1.19,5.05-5.19,0,0,1.79-.3,1.47-1.84,0,0,3.19-.7,5.62-5.74,0,0,7.15-.26,12.33-4.48,0,0,1,6.2,6.2,7.86,0,0-4.09,5.94,0,10.1,0,0-1,5,2.17,6.32,0,0-1.22,3.13,1.28,4,0,0-.52,2.81,2,3.32,0,0-.13,2.3,1.28,2.49,0,0-.64,1.92.7,2.43,0,0-1.47,2.24-1.28,3.71a3,3,0,0,0-1.79,1.85s3.07-3.32,3.52,1.15a3.64,3.64,0,0,0,0-2.68s1.28-.45.25-4.54a1.54,1.54,0,0,0-.25-2.49s1.3-1.47-1.54-2.56a2.84,2.84,0,0,0-1.91-3.32s1.21-1.66-1.34-3.89c0,0,1.59-2.11-2.11-5.88,0,0-.54-1.7.32-2.37,1.47-1.15,1.15-6.38,1.15-6.38a130.77,130.77,0,0,0,29.15,3.33c.52,2.09,2.55,8.76,7.92,11.81,0,0-1.49,2.62,3.24,4.28,0,0-.58,3.26,2.36,3.26,0,0,.58,2.87,3.13,2,0,0,1,2,2.88,1.15,0,0,1,1.92,2.55.7,0,0,1.6-.21,2.24.4a5.84,5.84,0,0,0,2.43.88,3.16,3.16,0,0,0,1.72,2.24s-2.81-3,1.41-3.71a3.79,3.79,0,0,0-2.62-.06s-.51-1.54-4.73-.71a2.47,2.47,0,0,0-2.62-.76s.39-1.63-2.81-1.41c0,0,.09-1.86-2.81-1.92,0,0,.87-2.4-2.3-2.87,0,0,.9-4.6-3-4.73a10.49,10.49,0,0,1-1.07-3c-.47-2.22-3.68-5.78-5.49-7.65,16.63-.58,34.25-5.75,37.48-24.36" transform="translate(0 -169)"/><text class="cls-61" transform="translate(147.45 1072.87)">alt<tspan class="cls-62" x="44.5" y="0">h</tspan><tspan x="66.63" y="0">ough</tspan></text><text class="cls-63" transform="translate(307.8 1072.87)"><tspan xml:space="preserve"> l</tspan><tspan class="cls-64" x="23.44" y="0">i</tspan><tspan class="cls-62" x="34.96" y="0">v</tspan><tspan x="55.3" y="0">ing mic</tspan><tspan class="cls-62" x="194.23" y="0">r</tspan><tspan class="cls-65" x="207.9" y="0">ob</tspan><tspan class="cls-66" x="255.73" y="0">e</tspan><tspan x="277.23" y="0">s</tspan></text><text class="cls-61" transform="translate(602.76 1072.87)"> <tspan class="cls-64" x="13.71" y="0">m</tspan><tspan x="47.83" y="0">a</tspan><tspan class="cls-67" x="72.35" y="0">k</tspan><tspan x="90.14" y="0">e up on</tspan><tspan class="cls-68" x="233.68" y="0">l</tspan><tspan class="cls-69" x="242.46" y="0">y</tspan><tspan x="261.14" y="0"> </tspan></text><text class="cls-70" transform="translate(877.56 1072.87)">~<tspan class="cls-71" x="20.55" y="0">0</tspan><tspan x="49.53" y="0">.5% </tspan></text><text class="cls-61" transform="translate(1020.79 1068.87)"><tspan class="cls-72">o</tspan><tspan x="23.44" y="0">f t</tspan><tspan class="cls-73" x="59.16" y="0">h</tspan><tspan x="81.28" y="0">e enti</tspan><tspan class="cls-74" x="183.51" y="0">r</tspan><tspan x="194.83" y="0">e </tspan><tspan class="cls-75" x="230.98" y="0">s</tspan><tspan x="247.11" y="0">oil, </tspan></text><text class="cls-63" transform="translate(212.17 1135.29)">dead mic<tspan class="cls-73" x="174.93" y="0">r</tspan><tspan x="188.59" y="0">ob</tspan><tspan class="cls-66" x="236.43" y="0">e</tspan><tspan class="cls-76" x="257.92" y="0">s </tspan></text><text class="cls-61" transform="translate(500.65 1135.29)"><tspan class="cls-64">m</tspan><tspan class="cls-65" x="34.13" y="0">a</tspan><tspan class="cls-77" x="58.64" y="0">k</tspan><tspan x="76.44" y="0">e up </tspan></text><text class="cls-70" transform="translate(674.05 1135.3)">50-80%</text><text class="cls-61" transform="translate(846.98 1135.3)"> <tspan class="cls-72" x="13.71" y="0">o</tspan><tspan x="37.15" y="0">f </tspan><tspan class="cls-75" x="61.86" y="0">s</tspan><tspan x="77.99" y="0">oil o</tspan><tspan class="cls-74" x="158.48" y="0">r</tspan><tspan x="169.8" y="0">ganic </tspan><tspan class="cls-64" x="286.12" y="0">m</tspan><tspan class="cls-65" x="320.25" y="0">at</tspan><tspan class="cls-78" x="355.77" y="0">t</tspan><tspan class="cls-65" x="365.98" y="0">e</tspan><tspan class="cls-79" x="388.43" y="0">r</tspan><tspan class="cls-76" x="399.43" y="0">. </tspan></text><text class="cls-80" transform="translate(218.87 680.45)">ba<tspan class="cls-81" x="34.5" y="0">c</tspan><tspan class="cls-82" x="49.6" y="0">t</tspan><tspan class="cls-83" x="60.3" y="0">e</tspan><tspan class="cls-84" x="76.74" y="0">r</tspan><tspan x="87.57" y="0">ia</tspan></text><text class="cls-85" transform="translate(448.91 551.59)">algae</text><g class="cls-86"><path class="cls-56" d="M542,796.5A47.47,47.47,0,1,1,494.51,749,47.46,47.46,0,0,1,542,796.5" transform="translate(0 -169)"/></g><g class="cls-87"><path class="cls-56" d="M493,791.89a15.6,15.6,0,1,1-15.6-15.59A15.6,15.6,0,0,1,493,791.89" transform="translate(0 -169)"/></g><g class="cls-88"><path class="cls-56" d="M479.21,808.29a14.91,14.91,0,1,1-14.91-14.8,14.85,14.85,0,0,1,14.91,14.8" transform="translate(0 -169)"/></g><g class="cls-89"><path class="cls-56" d="M532.37,772.77a14.91,14.91,0,1,1-14.91-14.91,14.91,14.91,0,0,1,14.91,14.91" transform="translate(0 -169)"/></g><g class="cls-90"><path class="cls-56" d="M522.81,809.65a14.91,14.91,0,1,1-14.91-14.91,14.91,14.91,0,0,1,14.91,14.91" transform="translate(0 -169)"/></g><g class="cls-91"><path class="cls-56" d="M495.49,826.27a14.91,14.91,0,1,1-14.91-14.91,14.91,14.91,0,0,1,14.91,14.91" transform="translate(0 -169)"/></g><g class="cls-92"><path class="cls-56" d="M521,827.41a14.91,14.91,0,1,1-14.91-14.91A14.91,14.91,0,0,1,521,827.41" transform="translate(0 -169)"/></g><g class="cls-93"><path class="cls-56" d="M542,799.63A13.68,13.68,0,1,1,528.29,786,13.67,13.67,0,0,1,542,799.63" transform="translate(0 -169)"/></g><g class="cls-94"><path class="cls-56" d="M518.07,787.68a17,17,0,1,1-17-17,17,17,0,0,1,17,17" transform="translate(0 -169)"/></g><g class="cls-95"><path class="cls-56" d="M625.53,749.1a41.16,41.16,0,1,1-41.16-41.16,41.16,41.16,0,0,1,41.16,41.16" transform="translate(0 -169)"/></g><g class="cls-96"><path class="cls-56" d="M620.94,755.21a14.67,14.67,0,1,1-14.67-14.67,14.67,14.67,0,0,1,14.67,14.67" transform="translate(0 -169)"/></g><g class="cls-97"><path class="cls-56" d="M569.59,755.21a12.93,12.93,0,1,1-12.93-12.83,12.88,12.88,0,0,1,12.93,12.83" transform="translate(0 -169)"/></g><g class="cls-98"><path class="cls-56" d="M595,746.81a11.58,11.58,0,1,1-11.57-11.58A11.57,11.57,0,0,1,595,746.81" transform="translate(0 -169)"/></g><g class="cls-99"><path class="cls-56" d="M579.6,740.27a12,12,0,1,1-12-12,12,12,0,0,1,12,12" transform="translate(0 -169)"/></g><g class="cls-100"><path class="cls-56" d="M584.81,771a14.08,14.08,0,1,1-14.08-14.07A14.08,14.08,0,0,1,584.81,771" transform="translate(0 -169)"/></g><g class="cls-101"><path class="cls-56" d="M607.34,773.61a15.23,15.23,0,1,1-15.23-15.23,15.22,15.22,0,0,1,15.23,15.23" transform="translate(0 -169)"/></g><g class="cls-102"><path class="cls-56" d="M616.71,728.82a11,11,0,1,1-11-11,11,11,0,0,1,11,11" transform="translate(0 -169)"/></g><text class="cls-103" transform="translate(727.85 553.5)">mic<tspan class="cls-104" x="49.76" y="0">r</tspan><tspan x="60.2" y="0">os</tspan><tspan class="cls-82" x="91.22" y="0">c</tspan><tspan x="105.76" y="0">opic</tspan></text><text class="cls-103" transform="translate(727.85 592.88)">inse<tspan class="cls-105" x="55.34" y="0">c</tspan><tspan x="70.47" y="0">ts</tspan></text><text class="cls-106" transform="translate(1054.24 666.32)">ea<tspan class="cls-107" x="32.27" y="0">r</tspan><tspan x="43.79" y="0">t</tspan><tspan class="cls-108" x="54.65" y="0">h</tspan><tspan class="cls-109" x="72.44" y="0">w</tspan><tspan x="96.27" y="0">o</tspan><tspan class="cls-110" x="114.29" y="0">r</tspan><tspan x="125.16" y="0">ms</tspan></text><text class="cls-111" transform="translate(268.43 799.54)">beetles</text><text class="cls-112" transform="translate(528.53 815.65)">a<tspan class="cls-113" x="15.82" y="0">n</tspan><tspan x="33.94" y="0">ts</tspan></text><text class="cls-85" transform="translate(835.12 818.69)">mi<tspan class="cls-114" x="35.06" y="0">t</tspan><tspan x="45.72" y="0">es</tspan></text><text class="cls-80" transform="translate(1081.45 808.42)">fun<tspan class="cls-114" x="45.89" y="0">g</tspan><tspan x="64.04" y="0">i</tspan></text><path class="cls-58" d="M1196.55,964s-31.39,0-33.6,31.83c-.57,8.19,17,7,26.85,5.56.8,13.47,3.45,64.14-1,77.52,0,0-.37,3.52,9.45,3.2s11.77-6.34,11.77-6.34,5.35,5.17-7.37-74.47c9.74,1.42,27.95,2.92,27.52-5.47-1.55-30.73-33.61-31.83-33.61-31.83" transform="translate(0 -169)"/><path class="cls-58" d="M1146.28,1022.8s-19.73,0-21.13,20c-.35,5.15,10.68,4.37,16.88,3.49.51,8.47,2.17,40.33-.63,48.74,0,0-.23,2.21,5.94,2s7.4-4,7.4-4,3.37,3.25-4.63-46.82c6.12.9,17.57,1.84,17.3-3.43-1-19.32-21.13-20-21.13-20" transform="translate(0 -169)"/><path class="cls-58" d="M1097.6,999.59s-22.91,0-24.53,23.23c-.41,6,12.39,5.07,19.6,4.06.58,9.83,2.52,46.8-.74,56.57,0,0-.27,2.57,6.9,2.33s8.59-4.63,8.59-4.63,3.9,3.78-5.38-54.34c7.1,1,20.39,2.13,20.08-4-1.13-22.42-24.52-23.23-24.52-23.23" transform="translate(0 -169)"/><path class="cls-59" d="M1275.07,227.81s-63.57,23.14-74.8,57.29c-12.24,37.25-58.57,33.27-58.57,33.27s-16.57-2.28-19-11.54c-3.18-12,7.12-20.67,7.12-20.67s30.77-31.85,58.06-22.67c0,0,10.26,5.36,14.29-.26a50.12,50.12,0,0,1,16.28-14.68s66.07-40.75,80.76-54.78a89.52,89.52,0,0,0,16.43-15.22c6.82-8.54,13.7-9.45,13.7-9.45S1336,166.94,1338,182c2.4,18.13-12.14,23.55-12.14,23.55Z" transform="translate(0 -169)"/><path class="cls-115" d="M580.18,1027.58c6,4,13.45,1.56,13.45,1.56,2.87-1.75,7.9-.69,7.9-.69a21.9,21.9,0,0,0-3.23-9.65,5.75,5.75,0,0,1,4.87,2.15c3.34,3.58,5.41,2.31,5.41,2.31,23.68-.64,25.28,7.55,25.28,7.55.63-10.81-24.85-8.87-24.85-8.87l-.43-.75s-1.34.13-4.14-1.59a10.43,10.43,0,0,0-6.78-1.73c-2.68-3.63-7.18-6.8-14.78-6.8-8,0-7.84,5.31-7.08,8.42-3.07-.73-8.45-1.21-12.53,2.65-6,5.73-3,8.11-3,8.11a1.63,1.63,0,0,0-1.77,1.27c-7,2.55-6.36,7.16-6.36,7.16l-1.27.16s-8.27-9.54-12.24-9.38c-3.11.12-8.07,5.4-10.08,7.69a29.53,29.53,0,0,0-8-1.49s-6.36-.16-22.49,18.68c0,0-3.34,7.94,20-16.86,0,0,7.63,1.71,11,4.68a20.9,20.9,0,0,0-4.13,4.09c-9.7,12.51-4.3,23.11-4.3,23.11s3.18,6.52,8.75,6.52,13.51-10.49,13.51-10.49c-5.88,18.75-2.86,15.89-2.86,15.89,2.07,1.43,6.36-21.62,6.36-21.62s.16-4.61,4.93-3,4-3,4-3c3.34-.64,3.34-7.15,3.34-7.15,1.43,2.22,6,2.22,6,2.22,1.11,2.86,4.61,2.7,4.61,2.7s2.23.48,5.25-1.9a8.13,8.13,0,0,1,6.2-1.75c5.94,13.32,8.38,16.07,9.37,16.35l5,9.08c1.83-.24,3.1,2.79,3.1,2.79,1.83-.16,2.23,1,2.23,1a2.15,2.15,0,0,0,2,1.19c3.12,0,4.13-1.27,4.13-1.27s.53,1.93.87,1.67,0-2.54,0-2.54c-1.11-.8-2.86.47-2.86.47s-2.07,1.2-2.7,0-2.54-1.27-2.54-1.27c-.16-.87-3-2.46-3-2.46-.56-1.51-5.52-9.46-5.52-9.46h0c.08-4-9.26-16.46-9.26-16.46-.16-1.9-2.38-2.06-2.38-2.06,3.49-2.23,9.22-3.18,9.22-3.18-2.54,4.61-1.91,11.28-1.91,11.28,5.72-12.55,3-14,3-14s-.32-1.59-8,1.27c-14,5.25-13.51,0-13.51,0,6.36-2.39,5.56-6.2,5.56-6.2,4.13-1.75,4.13-8.59,4.13-8.59a15.06,15.06,0,0,0,1.13,1.13m-32.13,15.09s-6.4-4.13-13.64-1.54a7.46,7.46,0,0,0-2.62-2.08l.37,0c2.7-.79,7.31-6.83,7.31-6.83a49.41,49.41,0,0,0,8.58,7.47Z" transform="translate(0 -169)"/></g></g></svg>