<svg xmlns="http://www.w3.org/2000/svg" viewBox="0 0 1450 1787.0044"><defs><style>.cls-1,.cls-2{fill:#5d5152;}.cls-2{font-size:40px;}.cls-2,.cls-30{font-family:Acre-Light, Acre;font-weight:300;}.cls-3{letter-spacing:-0.002em;}.cls-4{letter-spacing:-0.015em;}.cls-5{letter-spacing:-0.012em;}.cls-6{letter-spacing:0em;}.cls-7{letter-spacing:-0.004em;}.cls-8{letter-spacing:-0.024em;}.cls-9{letter-spacing:-0.017em;}.cls-10{letter-spacing:-0.015em;}.cls-11{letter-spacing:0em;}.cls-12{letter-spacing:-0.007em;}.cls-13{letter-spacing:-0.045em;}.cls-14{letter-spacing:-0.009em;}.cls-15{letter-spacing:-0.074em;}.cls-16{letter-spacing:-0.014em;}.cls-17{letter-spacing:-0.025em;}.cls-18{letter-spacing:-0.019em;}.cls-19{letter-spacing:-0.019em;}.cls-20{letter-spacing:-0.016em;}.cls-21{letter-spacing:-0.009em;}.cls-22{letter-spacing:-0.004em;}.cls-23{font-size:70px;font-family:Acre-Semibold, Acre;font-weight:600;}.cls-23,.cls-29,.cls-30,.cls-44{fill:#eb6a7c;}.cls-24{letter-spacing:-0.029em;}.cls-25{letter-spacing:-0.015em;}.cls-26{letter-spacing:-0.029em;}.cls-27{letter-spacing:0em;}.cls-28{letter-spacing:-0.006em;}.cls-29{font-size:52.0266px;font-family:Acre-Regular, Acre;}.cls-30{font-size:60px;}.cls-31{letter-spacing:-0.02em;}.cls-32{letter-spacing:0em;}.cls-33{letter-spacing:-0.012em;}.cls-34{letter-spacing:-0.015em;}.cls-35{letter-spacing:-0.01em;}.cls-36{letter-spacing:-0.019em;}.cls-37{letter-spacing:0.007em;}.cls-38{letter-spacing:0.006em;}.cls-39{letter-spacing:0.007em;}.cls-40{fill:#fff;}.cls-41{fill:#ffce01;}.cls-42{fill:#3caba1;}.cls-43{fill:none;stroke:#f27243;stroke-linecap:round;stroke-linejoin:round;}.cls-45{fill:#2e61a1;}.cls-46{fill:#f27243;}.cls-47,.cls-48{fill:#3daaa1;}.cls-47{opacity:0.65;}.cls-48{opacity:0.5;}</style></defs><g id="Layer_2" data-name="Layer 2"><g id="Layer_12" data-name="Layer 12"><path class="cls-1" d="M1450,1267.7111c-174.6589-1.4988-359.0756,9.9964-359.0756,9.9964s-206.7936,14.8385-515.1729,0c-308.3716-14.84-575.7515,0-575.7515,0v509.2969H1450Z"/><text class="cls-2" transform="translate(185.2966 365.0547)"><tspan class="cls-3">s</tspan><tspan x="16.2397" y="0">oils </tspan><tspan class="cls-4" x="89.5176" y="0">n</tspan><tspan class="cls-5" x="111.7173" y="0">o</tspan><tspan class="cls-6" x="135.3169" y="0">t on</tspan><tspan class="cls-7" x="207.0757" y="0">l</tspan><tspan class="cls-8" x="215.9556" y="0">y</tspan><tspan x="234.7549" y="0" xml:space="preserve"> boa</tspan><tspan class="cls-9" x="321.9932" y="0">s</tspan><tspan x="337.6328" y="0">t ¼ </tspan><tspan class="cls-5" x="396.4307" y="0">o</tspan><tspan class="cls-6" x="420.0303" y="0">f t</tspan><tspan class="cls-10" x="455.9893" y="0">h</tspan><tspan class="cls-11" x="478.2295" y="0">e</tspan><tspan class="cls-12" x="500.8286" y="0"> </tspan><tspan class="cls-10" x="514.3481" y="0">w</tspan><tspan x="545.5879" y="0">orld</tspan><tspan class="cls-13" x="615.5464" y="0">’</tspan><tspan x="620.2661" y="0">s biod</tspan><tspan class="cls-7" x="733.8638" y="0">i</tspan><tspan class="cls-4" x="743.7432" y="0">v</tspan><tspan x="763.2231" y="0">e</tspan><tspan class="cls-14" x="785.8228" y="0">r</tspan><tspan x="797.6221" y="0">sit</tspan><tspan class="cls-15" x="835.061" y="0">y</tspan><tspan x="851.8604" y="0">, t</tspan><tspan class="cls-10" x="883.3789" y="0">h</tspan><tspan class="cls-16" x="905.6191" y="0">e</tspan><tspan class="cls-17" x="927.6587" y="0">y</tspan><tspan x="946.418" y="0"> </tspan><tspan class="cls-10" x="960.2173" y="0">h</tspan><tspan x="982.4575" y="0">old t</tspan><tspan class="cls-4" x="1065.1357" y="0">h</tspan><tspan x="1087.3755" y="0">e </tspan></text><text class="cls-2" transform="translate(202.0583 428.7344)">g<tspan class="cls-18" x="24.6797" y="0">r</tspan><tspan x="36.0791" y="0">ea</tspan><tspan class="cls-19" x="83.3579" y="0">t</tspan><tspan class="cls-7" x="93.6777" y="0">e</tspan><tspan class="cls-20" x="116.1172" y="0">s</tspan><tspan x="131.7969" y="0">t co</tspan><tspan class="cls-16" x="201.8755" y="0">n</tspan><tspan x="224.1152" y="0">cent</tspan><tspan class="cls-19" x="301.7144" y="0">r</tspan><tspan class="cls-11" x="313.1138" y="0">ation </tspan><tspan class="cls-5" x="419.5913" y="0">o</tspan><tspan x="443.1909" y="0">f bio</tspan><tspan class="cls-10" x="526.8687" y="0">m</tspan><tspan x="561.2285" y="0">ass a</tspan><tspan class="cls-21" x="657.0264" y="0">n</tspan><tspan class="cls-6" x="679.4658" y="0">y</tspan><tspan class="cls-22" x="699.2256" y="0">w</tspan><tspan class="cls-10" x="730.9048" y="0">h</tspan><tspan x="753.145" y="0">e</tspan><tspan class="cls-19" x="775.7446" y="0">r</tspan><tspan x="787.144" y="0">e on t</tspan><tspan class="cls-4" x="895.3013" y="0">h</tspan><tspan x="917.541" y="0">e pla</tspan><tspan class="cls-16" x="1012.2993" y="0">n</tspan><tspan class="cls-5" x="1034.5391" y="0">e</tspan><tspan x="1056.6587" y="0">t!</tspan></text><text class="cls-23" transform="translate(443.0916 87.378)"><tspan class="cls-24">k</tspan><tspan x="34.9302" y="0">eep it d</tspan><tspan class="cls-25" x="289.0942" y="0">i</tspan><tspan class="cls-26" x="308.4839" y="0">v</tspan><tspan class="cls-27" x="343.1328" y="0">e</tspan><tspan class="cls-28" x="382.4023" y="0">r</tspan><tspan x="405.9912" y="0">siﬁed!</tspan></text><text class="cls-29" transform="translate(690.4055 148.7603)"> </text><text class="cls-30" transform="translate(355.4619 166.4625)">a <tspan class="cls-31" x="57.7183" y="0">t</tspan><tspan class="cls-32" x="73.1382" y="0">easpoon </tspan><tspan class="cls-33" x="332.6333" y="0">o</tspan><tspan x="368.0327" y="0">f </tspan><tspan class="cls-34" x="405.3516" y="0">h</tspan><tspan x="438.7114" y="0">ealt</tspan><tspan class="cls-35" x="539.8096" y="0">h</tspan><tspan class="cls-8" x="573.4692" y="0">y soil</tspan><tspan x="704.3857" y="0"> </tspan></text><text class="cls-30" transform="translate(230.6858 243.8936)">con<tspan class="cls-36" x="101.999" y="0">t</tspan><tspan x="117.4785" y="0">ai</tspan><tspan class="cls-37" x="169.5571" y="0">n</tspan><tspan x="204.1768" y="0">s billio</tspan><tspan class="cls-38" x="379.7329" y="0">n</tspan><tspan x="414.2925" y="0">s </tspan><tspan class="cls-33" x="459.4707" y="0">o</tspan><tspan x="494.8701" y="0">f mic</tspan><tspan class="cls-36" x="631.3682" y="0">r</tspan><tspan x="648.4673" y="0">oo</tspan><tspan class="cls-36" x="720.7061" y="0">r</tspan><tspan x="737.8052" y="0">ganis</tspan><tspan class="cls-39" x="885.582" y="0">m</tspan><tspan x="938.4419" y="0">s!</tspan></text><path class="cls-40" d="M355.8982,1449.9908l-.05,14.8008h-3.0005v-14.2007c0-5.1006-2.55-8.4009-6.7-8.4009s-6.7007,3.3-6.7007,8.75l-.05,13.8511h-2.95v-14.2007c0-5.1006-2.55-8.4009-6.7-8.4009s-6.7007,3.3-6.7007,8.75v13.8511h-3V1439.79h3v3.75a8.2839,8.2839,0,0,1,7.3506-4.2,8.5263,8.5263,0,0,1,8.15,5.65,8.8408,8.8408,0,0,1,8.25-5.65C351.7981,1439.34,355.8982,1443.09,355.8982,1449.9908Z"/><path class="cls-40" d="M363.7458,1432.69a2.0922,2.0922,0,0,1,2.1-2.15,2.1337,2.1337,0,0,1,2.15,2.15,2.0922,2.0922,0,0,1-2.15,2.1A2.0506,2.0506,0,0,1,363.7458,1432.69Zm.65,7.1006h3v25.0015h-3Z"/><path class="cls-40" d="M374.5452,1452.2906c0-6.95,5-12.9,12.75-12.9a12.5419,12.5419,0,0,1,8.3505,2.95v3.7a10.7313,10.7313,0,0,0-8.25-3.7,9.951,9.951,0,0,0,0,19.9009,10.7313,10.7313,0,0,0,8.25-3.7v3.7a12.5419,12.5419,0,0,1-8.3505,2.95C379.5452,1465.1915,374.5452,1459.2413,374.5452,1452.2906Z"/><path class="cls-40" d="M412.8962,1439.39v3.4c-4.05-.3-7.2006,3.1-7.2006,8.2505v13.751h-3V1439.79h3v4.6C406.9958,1441.79,409.3958,1439.39,412.8962,1439.39Z"/><path class="cls-40" d="M415.1946,1452.2408a12.653,12.653,0,1,1,12.65,12.9009A12.5495,12.5495,0,0,1,415.1946,1452.2408Zm22.3012,0a9.631,9.631,0,1,0-9.6508,9.9507A9.6157,9.6157,0,0,0,437.4958,1452.2408Z"/><path class="cls-40" d="M471.3455,1452.2906c0,7.0508-4.85,12.8511-11.8008,12.8511a10.8717,10.8717,0,0,1-9.5-5.55v5.2h-3v-40.0025h3V1444.99a10.93,10.93,0,0,1,9.5-5.5C466.4954,1439.49,471.3455,1445.24,471.3455,1452.2906Zm-3.05,0c0-5.45-3.7-9.9-9.05-9.9s-9.2007,4.55-9.2007,9.9,3.85,9.9507,9.2007,9.9507S468.2952,1457.691,468.2952,1452.2906Z"/><path class="cls-40" d="M499.845,1453.3409H479.1936c.45,5.1,4.05,8.9507,9.6006,8.9507a12.0887,12.0887,0,0,0,8.5-3.45v3.4a13.5884,13.5884,0,0,1-8.6006,2.9c-7.85,0-12.55-5.9-12.55-12.8511s4.9-12.8008,12.05-12.8008C495.6448,1439.49,499.9949,1445.99,499.845,1453.3409Zm-20.6011-2.65h17.4009c-.65-4.65-3.75-8.3-8.4507-8.3C483.2942,1442.39,479.8938,1445.99,479.2439,1450.6905Z"/><path class="cls-40" d="M503.9426,1461.2413l2.05-2.2a8.1311,8.1311,0,0,0,6.1,3.2505c2.7,0,4.8506-1.55,4.8506-4.0005,0-6.25-12.4512-4.2-12.4009-12.5.05-3.6006,3.1-6.3506,7.3-6.4a10.4407,10.4407,0,0,1,7.55,3.55l-1.85,2.15a7.9114,7.9114,0,0,0-5.65-2.8c-2.5,0-4.3,1.5-4.35,3.5005-.1,5.8,12.4507,3.8,12.4009,12.5508-.05,3.85-3.2,6.85-7.9507,6.85A10.8219,10.8219,0,0,1,503.9426,1461.2413Z"/><path class="cls-40" d="M566.093,1439.79v25.0015h-3v-5.15a10.93,10.93,0,0,1-9.501,5.5c-6.95,0-11.8007-5.75-11.8007-12.8008s4.8505-12.8511,11.8007-12.8511a10.8729,10.8729,0,0,1,9.501,5.5508V1439.79Zm-3,12.5508c0-5.3506-3.8506-9.9507-9.2007-9.9507s-9.0507,4.55-9.0507,9.9507c0,5.45,3.7,9.9,9.0507,9.9S563.093,1457.691,563.093,1452.3409Z"/><path class="cls-40" d="M584.592,1439.39v3.4c-4.05-.3-7.2006,3.1-7.2006,8.2505v13.751h-3V1439.79h3v4.6C578.6917,1441.79,581.0916,1439.39,584.592,1439.39Z"/><path class="cls-40" d="M610.5916,1453.3409H589.94c.45,5.1,4.05,8.9507,9.6006,8.9507a12.0887,12.0887,0,0,0,8.5-3.45v3.4a13.5894,13.5894,0,0,1-8.6006,2.9c-7.85,0-12.5508-5.9-12.5508-12.8511s4.9-12.8008,12.0508-12.8008C606.3914,1439.49,610.7415,1445.99,610.5916,1453.3409Zm-20.6011-2.65h17.4009c-.65-4.65-3.75-8.3-8.4507-8.3C594.0408,1442.39,590.64,1445.99,589.9905,1450.6905Z"/><path class="cls-40" d="M642.99,1442.69h-5.15v22.1016h-3V1442.69h-3.2v-2.9h3.2v-6.7007h3v6.7007h5.15Z"/><path class="cls-40" d="M668.64,1450.6905v14.1011h-2.95v-13.5508c0-6.0005-2.95-9.1006-7.3008-9.1006-4.15,0-7.4,3.1-7.4,9.1006v13.5508h-3v-40.0025h3v19.1514a9.1445,9.1445,0,0,1,8.0508-4.6006C664.1892,1439.34,668.64,1442.99,668.64,1450.6905Z"/><path class="cls-40" d="M697.79,1453.3409H677.1384c.45,5.1,4.05,8.9507,9.6006,8.9507a12.0887,12.0887,0,0,0,8.5-3.45v3.4a13.5894,13.5894,0,0,1-8.6006,2.9c-7.85,0-12.5508-5.9-12.5508-12.8511s4.9-12.8008,12.0508-12.8008C693.59,1439.49,697.94,1445.99,697.79,1453.3409Zm-20.6011-2.65H694.59c-.65-4.65-3.75-8.3-8.4507-8.3C681.239,1442.39,677.8386,1445.99,677.1887,1450.6905Z"/><path class="cls-40" d="M736.988,1464.7916h-3.0005V1442.69h-9v22.1016h-2.95V1442.69h-3.2v-2.9h3.2v-10.3008c0-3.2,2.05-5,4.7006-5a6.2687,6.2687,0,0,1,3.45,1v3.1a5.1871,5.1871,0,0,0-2.9-1.05,2.29,2.29,0,0,0-2.3,2.5005v9.75H736.988Zm-3.65-32.1021a2.0925,2.0925,0,0,1,2.1-2.15,2.1341,2.1341,0,0,1,2.15,2.15,2.0926,2.0926,0,0,1-2.15,2.1A2.0508,2.0508,0,0,1,733.3376,1432.69Z"/><path class="cls-40" d="M745.8367,1424.7891h3v40.0025h-3Z"/><path class="cls-40" d="M765.9875,1442.69h-5.15v22.1016h-3.0005V1442.69h-3.2v-2.9h3.2v-6.7007h3.0005v6.7007h5.15Z"/><path class="cls-40" d="M791.9377,1453.3409H771.2864c.45,5.1,4.05,8.9507,9.6006,8.9507a12.0889,12.0889,0,0,0,8.5005-3.45v3.4a13.5888,13.5888,0,0,1-8.6006,2.9c-7.85,0-12.55-5.9-12.55-12.8511s4.9-12.8008,12.05-12.8008C787.7375,1439.49,792.0876,1445.99,791.9377,1453.3409Zm-20.601-2.65h17.4008c-.65-4.65-3.75-8.3-8.4506-8.3C775.387,1442.39,771.9866,1445.99,771.3367,1450.6905Z"/><path class="cls-40" d="M808.4363,1439.39v3.4c-4.05-.3-7.2007,3.1-7.2007,8.2505v13.751h-3V1439.79h3v4.6C802.5359,1441.79,804.9358,1439.39,808.4363,1439.39Z"/><path class="cls-40" d="M839.5349,1442.69h-5.15v22.1016h-3V1442.69h-3.2v-2.9h3.2v-6.7007h3v6.7007h5.15Z"/><path class="cls-40" d="M865.1848,1450.6905v14.1011h-2.95v-13.5508c0-6.0005-2.95-9.1006-7.3008-9.1006-4.15,0-7.4,3.1-7.4,9.1006v13.5508h-3v-40.0025h3v19.1514a9.1443,9.1443,0,0,1,8.05-4.6006C860.7346,1439.34,865.1848,1442.99,865.1848,1450.6905Z"/><path class="cls-40" d="M883.2849,1439.39v3.4c-4.05-.3-7.2007,3.1-7.2007,8.2505v13.751h-3V1439.79h3v4.6C877.3845,1441.79,879.7844,1439.39,883.2849,1439.39Z"/><path class="cls-40" d="M885.5833,1452.2408a12.653,12.653,0,1,1,12.65,12.9009A12.5494,12.5494,0,0,1,885.5833,1452.2408Zm22.3012,0a9.631,9.631,0,1,0-9.6509,9.9507A9.6158,9.6158,0,0,0,907.8845,1452.2408Z"/><path class="cls-40" d="M937.634,1439.79v25.0015h-3v-4.1a9.0824,9.0824,0,0,1-8,4.55c-5.15,0-9.6006-3.65-9.6006-11.3511V1439.79h2.95v13.5508c0,6.0005,2.95,9.1006,7.3007,9.1006,3.85,0,6.95-2.65,7.35-7.8506V1439.79Z"/><path class="cls-40" d="M968.4836,1463.6915c0,7.8-5.95,11.4507-11.8007,11.4507a17.3775,17.3775,0,0,1-9.3506-2.8l.05-3.25a15.6846,15.6846,0,0,0,8.9507,3.25c5.25,0,9.25-3.2,9.25-9.3506v-3.5a10.96,10.96,0,0,1-9.6006,5.65c-6.95,0-11.8008-5.75-11.8008-12.8008s4.8506-12.8511,11.8008-12.8511a10.8173,10.8173,0,0,1,9.5009,5.6006v-5.3h2.95Zm-3-11.3506c0-5.3506-3.8505-9.9507-9.2006-9.9507s-9.0508,4.55-9.0508,9.9507c0,5.45,3.7,9.9,9.0508,9.9S965.4836,1457.691,965.4836,1452.3409Z"/><path class="cls-40" d="M997.4329,1450.6905v14.1011h-2.95v-13.5508c0-6.0005-2.95-9.1006-7.3008-9.1006-4.15,0-7.4,3.1-7.4,9.1006v13.5508h-3v-40.0025h3v19.1514a9.1443,9.1443,0,0,1,8.05-4.6006C992.9827,1439.34,997.4329,1442.99,997.4329,1450.6905Z"/><path class="cls-40" d="M1057.6829,1439.79l-12.8511,25.3013h-1.65l-5.2505-10.55-5.15,10.55h-1.7l-12.8008-25.3013h3.25l10.5,20.9512,4.4-9.15-5.8-11.8008h3.15l4.2,8.9507,4.2-8.9507h3.15l-5.85,11.8008,4.5,9.15,10.4507-20.9512Z"/><path class="cls-40" d="M1082.4817,1450.6905v14.1011h-2.95v-13.5508c0-6.0005-2.95-9.1006-7.3008-9.1006-4.15,0-7.4,3.1-7.4,9.1006v13.5508h-3v-40.0025h3v19.1514a9.1445,9.1445,0,0,1,8.0508-4.6006C1078.031,1439.34,1082.4817,1442.99,1082.4817,1450.6905Z"/><path class="cls-40" d="M1090.3806,1432.69a2.0922,2.0922,0,0,1,2.1-2.15,2.1337,2.1337,0,0,1,2.15,2.15,2.0922,2.0922,0,0,1-2.15,2.1A2.0505,2.0505,0,0,1,1090.3806,1432.69Zm.65,7.1006h3v25.0015h-3Z"/><path class="cls-40" d="M1101.18,1452.2906c0-6.95,5-12.9,12.75-12.9a12.542,12.542,0,0,1,8.3506,2.95v3.7a10.7313,10.7313,0,0,0-8.25-3.7,9.951,9.951,0,0,0,0,19.9009,10.7313,10.7313,0,0,0,8.25-3.7v3.7a12.542,12.542,0,0,1-8.3506,2.95C1106.18,1465.1915,1101.18,1459.2413,1101.18,1452.2906Z"/><path class="cls-40" d="M1149.9817,1450.6905v14.1011h-2.95v-13.5508c0-6.0005-2.95-9.1006-7.3008-9.1006-4.15,0-7.4,3.1-7.4,9.1006v13.5508h-3v-40.0025h3v19.1514a9.1445,9.1445,0,0,1,8.0508-4.6006C1145.531,1439.34,1149.9817,1442.99,1149.9817,1450.6905Z"/><path class="cls-40" d="M522.2073,1523.0508v9.9595c-3.84-.84-8.34,0-8.34,6.18V1553.71h-8.64v-29.999h8.64v4.5C515.7273,1525.3306,518.6072,1523.0508,522.2073,1523.0508Z"/><path class="cls-40" d="M526.7068,1513.691a5.43,5.43,0,1,1,5.4,5.46A5.3773,5.3773,0,0,1,526.7068,1513.691Zm1.14,10.0195h8.64v29.999h-8.64Z"/><path class="cls-40" d="M543.4465,1538.71a15.1493,15.1493,0,0,1,15.6-15.539,15.6163,15.6163,0,0,1,8.88,2.4v9.2392a14.1316,14.1316,0,0,0-8.28-2.9995c-4.38,0-7.44,3.06-7.44,6.8994s3.06,6.9,7.44,6.9a14.1311,14.1311,0,0,0,8.28-3v9.24a15.617,15.617,0,0,1-8.88,2.4A15.1494,15.1494,0,0,1,543.4465,1538.71Z"/><path class="cls-40" d="M601.7654,1535.53V1553.71h-8.64V1537.51c0-4.08-2.22-6.36-5.16-6.36-3,0-5.1,2.28-5.1,6.36V1553.71h-8.64v-47.998h8.64v21.6592a10.7113,10.7113,0,0,1,8.7-4.26C597.3254,1523.1109,601.7654,1527.4307,601.7654,1535.53Z"/><path class="cls-40" d="M608.4265,1542.73h8.34l-4.38,17.2193h-5.58Z"/><path class="cls-40" d="M670.9436,1505.7115v47.998h-8.64v-3.78a11.3173,11.3173,0,0,1-8.9395,4.2c-8.22,0-13.5-6.84-13.5-15.4795,0-8.58,5.28-15.419,13.5-15.419a11.3175,11.3175,0,0,1,8.9395,4.2v-21.7192Zm-8.64,32.9385a6.8642,6.8642,0,0,0-6.72-7.08c-3.96,0-6.66,3.18-6.66,7.08,0,3.96,2.7,7.08,6.66,7.08A6.8279,6.8279,0,0,0,662.304,1538.65Z"/><path class="cls-40" d="M707.9031,1523.7105v29.999h-8.64v-3.84a11.22,11.22,0,0,1-9,4.26c-8.22,0-13.5-6.84-13.5-15.4795,0-8.58,5.28-15.419,13.5-15.419a11.22,11.22,0,0,1,9,4.26v-3.78Zm-8.7,14.94a6.8642,6.8642,0,0,0-6.72-7.08c-3.96,0-6.66,3.18-6.66,7.08,0,3.96,2.7,7.08,6.66,7.08A6.8279,6.8279,0,0,0,699.2034,1538.65Z"/><path class="cls-40" d="M732.2629,1523.0508v9.9595c-3.84-.84-8.34,0-8.34,6.18V1553.71h-8.64v-29.999h8.64v4.5C725.783,1525.3306,728.6628,1523.0508,732.2629,1523.0508Z"/><path class="cls-40" d="M754.9421,1553.71l-9.5395-13.14v13.14h-8.64v-47.998h8.64V1537.15l9.12-13.44h10.14l-10.74,15.12,11.64,14.8794Z"/><path class="cls-40" d="M769.2224,1542.73h8.34l-4.38,17.2193h-5.58Z"/><path class="cls-40" d="M800.5408,1549.69l4.2-6.18c2.04,1.62,5.04,3.24,7.5595,3.24,1.68,0,2.76-.84,2.76-1.92,0-3.8995-13.5-2.4595-13.5-12.6592,0-4.98,4.08-8.9995,10.68-9.06a15.5276,15.5276,0,0,1,10.3193,4.08l-4.08,6.12c-1.32-.96-3.9594-2.58-6.12-2.58-1.5,0-2.52.72-2.52,1.8,0,3.72,13.74,2.4,13.68,12.66,0,5.16-4.5,9.06-11.2793,9.06A18.4879,18.4879,0,0,1,800.5408,1549.69Z"/><path class="cls-40" d="M844.8792,1531.8106h-6V1553.71h-8.64v-21.8989h-3.78v-8.1h3.78v-8.0395h8.64v8.0395h6Z"/><path class="cls-40" d="M878.0583,1523.7105v29.999h-8.64v-3.84a11.22,11.22,0,0,1-8.9995,4.26c-8.22,0-13.5-6.84-13.5-15.4795,0-8.58,5.28-15.419,13.5-15.419a11.22,11.22,0,0,1,8.9995,4.26v-3.78Zm-8.7,14.94a6.8641,6.8641,0,0,0-6.72-7.08c-3.96,0-6.66,3.18-6.66,7.08,0,3.96,2.7,7.08,6.66,7.08A6.8279,6.8279,0,0,0,869.3586,1538.65Z"/><path class="cls-40" d="M916.5178,1538.71c0,8.58-5.28,15.4195-13.5,15.4195a11.3181,11.3181,0,0,1-8.94-4.2v3.78h-8.64v-47.998h8.64v21.7192a11.3183,11.3183,0,0,1,8.94-4.2C911.2375,1523.231,916.5178,1530.07,916.5178,1538.71Zm-9.06,0c0-3.9594-2.7-7.08-6.66-7.08a7.0892,7.0892,0,0,0,0,14.1592C904.7581,1545.79,907.4578,1542.61,907.4578,1538.71Z"/><path class="cls-40" d="M922.3381,1505.7115h8.64v47.998h-8.64Z"/><path class="cls-40" d="M966.0764,1541.47H945.4973c1.0195,3.24,3.8994,4.98,7.62,4.98a21.7536,21.7536,0,0,0,9.48-2.4l.06,7.74a21.1653,21.1653,0,0,1-10.2,2.4c-9.78,0-15.5991-7.0195-15.5991-15.4795,0-8.3393,5.8794-15.479,14.9389-15.479C961.5764,1523.231,966.9163,1531.57,966.0764,1541.47Zm-20.5791-5.4h12.1792c-.84-3-3.06-4.86-5.88-4.86A6.4336,6.4336,0,0,0,945.4973,1536.07Z"/><path class="cls-40" d="M379.3962,1627.7266l2.05-2.2a8.1311,8.1311,0,0,0,6.1,3.2505c2.7,0,4.85-1.55,4.85-4.0005,0-6.25-12.4507-4.2-12.4-12.5.05-3.6005,3.1-6.3505,7.3-6.4a10.44,10.44,0,0,1,7.55,3.55l-1.85,2.15a7.9113,7.9113,0,0,0-5.65-2.8c-2.5,0-4.3,1.5-4.35,3.5-.1,5.8,12.4507,3.8,12.4009,12.5508-.05,3.85-3.2,6.85-7.9507,6.85A10.8219,10.8219,0,0,1,379.3962,1627.7266Z"/><path class="cls-40" d="M399.8958,1618.7261a12.653,12.653,0,1,1,12.65,12.9009A12.5494,12.5494,0,0,1,399.8958,1618.7261Zm22.3012,0a9.631,9.631,0,1,0-9.6509,9.9507A9.6158,9.6158,0,0,0,422.197,1618.7261Z"/><path class="cls-40" d="M431.7454,1599.1749a2.0922,2.0922,0,0,1,2.1-2.15,2.1337,2.1337,0,0,1,2.15,2.15,2.0922,2.0922,0,0,1-2.15,2.1A2.0505,2.0505,0,0,1,431.7454,1599.1749Zm.65,7.1006h3v25.0014h-3Z"/><path class="cls-40" d="M444.2952,1591.2745h3v40.0024h-3Z"/><path class="cls-40" d="M471.094,1618.7261a12.6531,12.6531,0,1,1,12.65,12.9009A12.5494,12.5494,0,0,1,471.094,1618.7261Zm22.3013,0a9.6311,9.6311,0,1,0-9.6509,9.9507A9.6158,9.6158,0,0,0,493.3953,1618.7261Z"/><path class="cls-40" d="M513.1443,1605.8756v3.4c-4.05-.3-7.2007,3.1-7.2007,8.25v13.751h-3v-25.0014h3v4.6C507.2439,1608.2755,509.6438,1605.8756,513.1443,1605.8756Z"/><path class="cls-40" d="M539.7444,1630.1768c0,7.8-5.95,11.4507-11.8008,11.4507a17.3775,17.3775,0,0,1-9.3506-2.8l.05-3.25a15.6846,15.6846,0,0,0,8.9507,3.25c5.2505,0,9.2505-3.2,9.2505-9.3506v-3.5a10.96,10.96,0,0,1-9.6006,5.65c-6.95,0-11.8008-5.75-11.8008-12.8008s4.8506-12.851,11.8008-12.851a10.8174,10.8174,0,0,1,9.501,5.6005v-5.3h2.95Zm-3-11.3506c0-5.3506-3.8506-9.9506-9.2007-9.9506s-9.0508,4.55-9.0508,9.9506c0,5.45,3.7,9.9,9.0508,9.9S536.7444,1624.1763,536.7444,1618.8262Z"/><path class="cls-40" d="M570.5935,1606.2755v25.0014h-3v-5.15a10.93,10.93,0,0,1-9.501,5.5c-6.95,0-11.8-5.75-11.8-12.8008s4.85-12.851,11.8-12.851a10.8723,10.8723,0,0,1,9.501,5.5507v-5.25Zm-3,12.5507c0-5.3506-3.8506-9.9506-9.2007-9.9506s-9.0508,4.55-9.0508,9.9506c0,5.45,3.7,9.9,9.0508,9.9S567.5935,1624.1763,567.5935,1618.8262Z"/><path class="cls-40" d="M599.4929,1617.1758v14.1011h-2.95v-13.5508c0-6.0005-2.95-9.1005-7.3-9.1005-3.85,0-6.9507,2.65-7.3506,7.8505v14.8008h-3v-25.0014h3v4.1a9.0826,9.0826,0,0,1,8-4.55C595.0427,1605.8253,599.4929,1609.4756,599.4929,1617.1758Z"/><path class="cls-40" d="M607.3914,1599.1749a2.0922,2.0922,0,0,1,2.1-2.15,2.1337,2.1337,0,0,1,2.15,2.15,2.0922,2.0922,0,0,1-2.15,2.1A2.0505,2.0505,0,0,1,607.3914,1599.1749Zm.65,7.1006h3v25.0014h-3Z"/><path class="cls-40" d="M618.1907,1618.7759c0-6.95,5-12.9,12.751-12.9a12.5424,12.5424,0,0,1,8.3505,2.95v3.7a10.7313,10.7313,0,0,0-8.25-3.7,9.951,9.951,0,0,0,0,19.9009,10.7313,10.7313,0,0,0,8.25-3.7v3.7a12.5419,12.5419,0,0,1-8.3505,2.95C623.1912,1631.6768,618.1907,1625.7266,618.1907,1618.7759Z"/><path class="cls-40" d="M699.4426,1616.4761l-.05,14.8008h-3v-14.2007c0-5.1006-2.55-8.4008-6.7-8.4008s-6.7006,3.3-6.7006,8.75l-.05,13.8511h-2.95v-14.2007c0-5.1006-2.55-8.4008-6.7-8.4008s-6.7007,3.3-6.7007,8.75v13.8511h-3v-25.0014h3v3.75a8.2837,8.2837,0,0,1,7.3506-4.2,8.5264,8.5264,0,0,1,8.15,5.65,8.8406,8.8406,0,0,1,8.25-5.65C695.3425,1605.8253,699.4426,1609.5757,699.4426,1616.4761Z"/><path class="cls-40" d="M729.0911,1606.2755v25.0014h-3v-5.15a10.93,10.93,0,0,1-9.501,5.5c-6.95,0-11.8008-5.75-11.8008-12.8008s4.8506-12.851,11.8008-12.851a10.8729,10.8729,0,0,1,9.501,5.5507v-5.25Zm-3,12.5507c0-5.3506-3.8506-9.9506-9.2007-9.9506s-9.0508,4.55-9.0508,9.9506c0,5.45,3.7,9.9,9.0508,9.9S726.0911,1624.1763,726.0911,1618.8262Z"/><path class="cls-40" d="M746.24,1609.1754h-5.15v22.1015h-3v-22.1015h-3.2v-2.9h3.2v-6.7007h3v6.7007h5.15Z"/><path class="cls-40" d="M760.09,1609.1754h-5.15v22.1015h-3v-22.1015h-3.2v-2.9h3.2v-6.7007h3v6.7007h5.15Z"/><path class="cls-40" d="M786.09,1619.8262H765.4387c.45,5.1,4.05,8.9507,9.6006,8.9507a12.0887,12.0887,0,0,0,8.5-3.45v3.4a13.5884,13.5884,0,0,1-8.6006,2.9c-7.85,0-12.55-5.9-12.55-12.8511s4.9-12.8007,12.05-12.8007C781.89,1605.9752,786.24,1612.4756,786.09,1619.8262Zm-20.6011-2.65H782.89c-.65-4.65-3.75-8.3-8.4507-8.3C769.5393,1608.8756,766.1389,1612.4756,765.489,1617.1758Z"/><path class="cls-40" d="M802.5886,1605.8756v3.4c-4.05-.3-7.2007,3.1-7.2007,8.25v13.751h-3v-25.0014h3v4.6C796.6882,1608.2755,799.0881,1605.8756,802.5886,1605.8756Z"/><path class="cls-40" d="M824.8367,1599.1749a2.0922,2.0922,0,0,1,2.1-2.15,2.1337,2.1337,0,0,1,2.15,2.15,2.0922,2.0922,0,0,1-2.15,2.1A2.0505,2.0505,0,0,1,824.8367,1599.1749Zm.65,7.1006h3v25.0014h-3Z"/><path class="cls-40" d="M835.4363,1627.7266l2.05-2.2a8.1311,8.1311,0,0,0,6.1,3.2505c2.7,0,4.85-1.55,4.85-4.0005,0-6.25-12.4507-4.2-12.4-12.5.05-3.6005,3.1-6.3505,7.3-6.4a10.44,10.44,0,0,1,7.55,3.55l-1.85,2.15a7.9113,7.9113,0,0,0-5.65-2.8c-2.5,0-4.3,1.5-4.35,3.5-.1,5.8,12.4507,3.8,12.4009,12.5508-.05,3.85-3.2,6.85-7.9507,6.85A10.8219,10.8219,0,0,1,835.4363,1627.7266Z"/><path class="cls-40" d="M878.6848,1596.525v9.75h5.2007v2.9h-5.2007v22.1015h-2.95v-22.1015h-3.2v-2.9h3.2v-10.3008c0-3.2,2.05-5,4.7007-5a6.269,6.269,0,0,1,3.45,1v3.1a5.1878,5.1878,0,0,0-2.9-1.05A2.29,2.29,0,0,0,878.6848,1596.525Z"/><path class="cls-40" d="M886.134,1618.7261a12.6533,12.6533,0,1,1,12.6509,12.9009A12.55,12.55,0,0,1,886.134,1618.7261Zm22.3018,0a9.6311,9.6311,0,1,0-9.6509,9.9507A9.6158,9.6158,0,0,0,908.4358,1618.7261Z"/><path class="cls-40" d="M928.1848,1605.8756v3.4c-4.05-.3-7.2007,3.1-7.2007,8.25v13.751h-3v-25.0014h3v4.6C922.2844,1608.2755,924.6843,1605.8756,928.1848,1605.8756Z"/><path class="cls-40" d="M969.0354,1616.4761l-.05,14.8008h-3v-14.2007c0-5.1006-2.55-8.4008-6.7-8.4008s-6.7007,3.3-6.7007,8.75l-.05,13.8511h-2.95v-14.2007c0-5.1006-2.55-8.4008-6.7-8.4008s-6.7007,3.3-6.7007,8.75v13.8511h-3v-25.0014h3v3.75a8.2837,8.2837,0,0,1,7.3506-4.2,8.5264,8.5264,0,0,1,8.15,5.65,8.8407,8.8407,0,0,1,8.25-5.65C964.9353,1605.8253,969.0354,1609.5757,969.0354,1616.4761Z"/><path class="cls-40" d="M998.134,1619.8262H977.4827c.45,5.1,4.05,8.9507,9.6006,8.9507a12.0886,12.0886,0,0,0,8.5-3.45v3.4a13.5883,13.5883,0,0,1-8.6005,2.9c-7.85,0-12.55-5.9-12.55-12.8511s4.9-12.8007,12.05-12.8007C993.9338,1605.9752,998.2839,1612.4756,998.134,1619.8262Zm-20.601-2.65h17.4008c-.65-4.65-3.75-8.3-8.4506-8.3C981.5833,1608.8756,978.1829,1612.4756,977.533,1617.1758Z"/><path class="cls-40" d="M1026.9836,1591.2745v40.0024h-3v-5.15a10.93,10.93,0,0,1-9.5009,5.5c-6.95,0-11.8008-5.75-11.8008-12.8008s4.8506-12.851,11.8008-12.851a10.8727,10.8727,0,0,1,9.5009,5.5507v-20.2514Zm-3,27.5517c0-5.3506-3.8505-9.9506-9.2006-9.9506s-9.0508,4.55-9.0508,9.9506c0,5.45,3.7,9.9,9.0508,9.9S1023.9836,1624.1763,1023.9836,1618.8262Z"/><path class="cls-40" d="M1034.4319,1596.275h3.35l-.55,28.4516h-2.25Zm0,33.1518a2.0808,2.0808,0,0,1,2.1-2.1,2.113,2.113,0,0,1,2.1,2.1,2.0808,2.0808,0,0,1-2.1,2.1A2.0505,2.0505,0,0,1,1034.4319,1629.4268Z"/><path class="cls-1" d="M168.6711,1053.0064v19.8672h-2.3837v-4.0928a8.6855,8.6855,0,0,1-7.5494,4.3711c-5.5234,0-9.3774-4.5693-9.3774-10.1719s3.854-10.2119,9.3774-10.2119a8.64,8.64,0,0,1,7.5494,4.4107v-4.1724Zm-2.3837,9.9736c0-4.2519-3.06-7.9072-7.3111-7.9072s-7.1919,3.6157-7.1919,7.9072c0,4.3311,2.94,7.8672,7.1919,7.8672S166.2874,1067.2315,166.2874,1062.98Z"/><path class="cls-1" d="M175.2639,1041.0865h2.3843v31.7871h-2.3843Z"/><path class="cls-1" d="M191.2751,1055.3111h-4.0922v17.5625h-2.3843v-17.5625h-2.543v-2.3047h2.543v-5.3242h2.3843v5.3242h4.0922Z"/><path class="cls-1" d="M211.6575,1061.6685v11.2051h-2.3443v-10.7681c0-4.768-2.3442-7.2314-5.8012-7.2314-3.2979,0-5.88,2.4634-5.88,7.2314v10.7681h-2.3843v-31.7871h2.3843v15.2182a7.2655,7.2655,0,0,1,6.397-3.6557C208.1213,1052.649,211.6575,1055.5494,211.6575,1061.6685Z"/><path class="cls-1" d="M215.9861,1062.9005a10.0547,10.0547,0,1,1,10.0527,10.2514A9.9725,9.9725,0,0,1,215.9861,1062.9005Zm17.7212,0a7.6529,7.6529,0,1,0-7.6685,7.9067A7.6407,7.6407,0,0,0,233.7073,1062.9005Z"/><path class="cls-1" d="M257.3459,1053.0064v19.8672h-2.3842v-3.2583a7.2174,7.2174,0,0,1-6.3575,3.6157c-4.0927,0-7.6289-2.9-7.6289-9.02v-11.2051H243.32v10.7681c0,4.768,2.3442,7.2314,5.8012,7.2314,3.06,0,5.523-2.1059,5.8409-6.2378v-11.7617Z"/><path class="cls-1" d="M281.8586,1072c0,6.1982-4.728,9.0991-9.3769,9.0991a13.8116,13.8116,0,0,1-7.43-2.2251l.04-2.583a12.4623,12.4623,0,0,0,7.1123,2.583c4.1723,0,7.351-2.543,7.351-7.4307v-2.7812a8.7108,8.7108,0,0,1-7.6289,4.49c-5.5234,0-9.3774-4.5693-9.3774-10.1719s3.854-10.2119,9.3774-10.2119a8.5956,8.5956,0,0,1,7.5494,4.45v-4.2119h2.3442Zm-2.3837-9.02c0-4.2519-3.06-7.9072-7.3111-7.9072s-7.1919,3.6157-7.1919,7.9072c0,4.3311,2.94,7.8672,7.1919,7.8672S279.4749,1067.2315,279.4749,1062.98Z"/><path class="cls-1" d="M304.8616,1061.6685v11.2051h-2.3443v-10.7681c0-4.768-2.3442-7.2314-5.8012-7.2314-3.2979,0-5.88,2.4634-5.88,7.2314v10.7681h-2.3843v-31.7871h2.3843v15.2182a7.2655,7.2655,0,0,1,6.397-3.6557C301.3254,1052.649,304.8616,1055.5494,304.8616,1061.6685Z"/><path class="cls-1" d="M323.0588,1041.0865h5.7217v31.7871h-5.7217Z"/><path class="cls-1" d="M333.7058,1046.3712a3.596,3.596,0,1,1,3.5762,3.6157A3.5612,3.5612,0,0,1,333.7058,1046.3712Zm.7549,6.6352h5.7217v19.8672h-5.7217Z"/><path class="cls-1" d="M363.386,1053.0064l-7.47,19.9468h-5.3643l-7.5493-19.9468h6.0395l4.212,12.874,4.2119-12.874Z"/><path class="cls-1" d="M365.5681,1046.3712a3.596,3.596,0,1,1,3.5762,3.6157A3.5612,3.5612,0,0,1,365.5681,1046.3712Zm.7549,6.6352h5.7217v19.8672H366.323Z"/><path class="cls-1" d="M395.8835,1060.834v12.04h-5.7216v-10.728c0-2.7022-1.47-4.2119-3.417-4.2119-1.7881,0-3.1,1.2319-3.3379,3.457v11.4829h-5.7217v-19.8672h5.7217v2.3843a7.1543,7.1543,0,0,1,5.7217-2.7813C392.9431,1052.6094,395.8835,1055.47,395.8835,1060.834Z"/><path class="cls-1" d="M420.0784,1071.8008c0,6.0791-4.6885,9.377-10.0923,9.377a17.1542,17.1542,0,0,1-7.6289-1.8276l.04-5.4038a12.6321,12.6321,0,0,0,6.5957,2.1855c3.1387,0,5.4434-1.5894,5.4434-5.2847v-.5561a7.5415,7.5415,0,0,1-6,2.8608c-5.4434,0-8.94-4.53-8.94-10.2514,0-5.6822,3.4966-10.2115,8.94-10.2115a7.4948,7.4948,0,0,1,5.92,2.7813v-2.4639h5.6821Zm-5.7217-8.9a4.5458,4.5458,0,0,0-4.45-4.6885,4.6972,4.6972,0,0,0,0,9.3769A4.5215,4.5215,0,0,0,414.3567,1062.9005Z"/><path class="cls-1" d="M468.35,1060.9537v11.92h-5.6821v-10.6089c0-2.6621-1.3511-4.331-3.3774-4.331-1.9868,0-3.3775,1.6689-3.3775,4.331v10.6089h-5.6816v-10.6089c0-2.6621-1.3511-4.331-3.3775-4.331-1.9868,0-3.3378,1.6689-3.3378,4.331v10.6089h-5.7217v-19.8672h5.7217v2.543a7.0955,7.0955,0,0,1,5.6821-2.94,6.2136,6.2136,0,0,1,5.7612,3.5757,7.6726,7.6726,0,0,1,6.5957-3.5757C465.6482,1052.6094,468.35,1055.5894,468.35,1060.9537Z"/><path class="cls-1" d="M473.0344,1046.3712a3.596,3.596,0,1,1,3.5762,3.6157A3.5612,3.5612,0,0,1,473.0344,1046.3712Zm.7549,6.6352h5.7217v19.8672h-5.7217Z"/><path class="cls-1" d="M484.1189,1062.94a10.0323,10.0323,0,0,1,10.3306-10.291,10.34,10.34,0,0,1,5.88,1.5893v6.1192a9.358,9.358,0,0,0-5.4829-1.9868,4.5823,4.5823,0,1,0,0,9.1386,9.3578,9.3578,0,0,0,5.4829-1.9863v6.1187a10.34,10.34,0,0,1-5.88,1.5893A10.0323,10.0323,0,0,1,484.1189,1062.94Z"/><path class="cls-1" d="M515.7444,1052.5694v6.5962c-2.543-.5567-5.523,0-5.523,4.0923v9.6157H504.5v-19.8672h5.7216v2.9805A6.729,6.729,0,0,1,515.7444,1052.5694Z"/><path class="cls-1" d="M517.1335,1062.94a10.2712,10.2712,0,1,1,10.251,10.3311A10.1177,10.1177,0,0,1,517.1335,1062.94Zm14.7012-.04a4.4323,4.4323,0,1,0-8.86,0,4.4353,4.4353,0,1,0,8.86,0Z"/><path class="cls-1" d="M562.1482,1062.94c0,5.6821-3.4961,10.2119-8.94,10.2119a7.4957,7.4957,0,0,1-5.9205-2.7817v2.5034h-5.7216v-31.7871h5.7216V1055.47a7.495,7.495,0,0,1,5.9205-2.7813C558.6521,1052.689,562.1482,1057.2183,562.1482,1062.94Zm-6,0a4.4207,4.4207,0,0,0-4.4107-4.6885,4.6949,4.6949,0,0,0,0,9.377A4.443,4.443,0,0,0,556.1487,1062.94Z"/><path class="cls-1" d="M584.3171,1064.7681H570.6882c.6758,2.1455,2.583,3.2979,5.0464,3.2979a14.4052,14.4052,0,0,0,6.2779-1.5894l.04,5.1255a14.0159,14.0159,0,0,1-6.7549,1.5894,9.8638,9.8638,0,0,1-10.331-10.2515c0-5.5229,3.894-10.251,9.894-10.251C581.3372,1052.689,584.8733,1058.212,584.3171,1064.7681Zm-13.6289-3.5761h8.0664a4.0345,4.0345,0,0,0-3.894-3.2188A4.2617,4.2617,0,0,0,570.6882,1061.192Z"/><path class="cls-1" d="M586.3406,1070.2115l2.7817-4.0928a9.1029,9.1029,0,0,0,5.0064,2.1455c1.1123,0,1.8276-.5561,1.8276-1.2715,0-2.5825-8.94-1.6289-8.94-8.3838,0-3.2978,2.7016-5.96,7.0722-5.9995a10.2829,10.2829,0,0,1,6.8345,2.7017l-2.7017,4.0527a8.1775,8.1775,0,0,0-4.0532-1.7085c-.9932,0-1.6684.4771-1.6684,1.1924,0,2.4634,9.0986,1.5894,9.059,8.3838,0,3.417-2.98,5.9995-7.47,5.9995A12.2437,12.2437,0,0,1,586.3406,1070.2115Z"/><path class="cls-1" d="M648.2517,1061.1124l-.0395,11.7612h-2.3843v-11.2842c0-4.0532-2.0264-6.6758-5.3242-6.6758s-5.3243,2.6226-5.3243,6.9536l-.04,11.0064h-2.3442v-11.2842c0-4.0532-2.0264-6.6758-5.3243-6.6758s-5.3242,2.6226-5.3242,6.9536v11.0064h-2.3842v-19.8672h2.3842v2.9805a6.5813,6.5813,0,0,1,5.8408-3.3379,6.7757,6.7757,0,0,1,6.4766,4.49,7.025,7.025,0,0,1,6.5562-4.49C644.9934,1052.649,648.2517,1055.629,648.2517,1061.1124Z"/><path class="cls-1" d="M671.81,1053.0064v19.8672H669.426v-4.0928a8.6852,8.6852,0,0,1-7.5493,4.3711c-5.5234,0-9.3774-4.5693-9.3774-10.1719s3.854-10.2119,9.3774-10.2119a8.6393,8.6393,0,0,1,7.5493,4.4107v-4.1724Zm-2.3838,9.9736c0-4.2519-3.06-7.9072-7.311-7.9072s-7.1919,3.6157-7.1919,7.9072c0,4.3311,2.94,7.8672,7.1919,7.8672S669.426,1067.2315,669.426,1062.98Z"/><path class="cls-1" d="M690.5613,1072.8736l-9.7744-9.1387v9.1387h-2.3843v-31.7871h2.3843v21.3369l9.4565-9.417h3.06l-10.1719,10.0527,10.6089,9.8145Z"/><path class="cls-1" d="M713.6443,1063.7745h-16.41a7.4035,7.4035,0,0,0,7.6289,7.1123,9.6057,9.6057,0,0,0,6.7549-2.7417v2.7021a10.802,10.802,0,0,1-6.8345,2.3047c-6.2382,0-9.9731-4.6889-9.9731-10.2119s3.894-10.1719,9.5757-10.1719C710.3064,1052.7681,713.7634,1057.9337,713.6443,1063.7745Zm-16.3706-2.106h13.8276c-.5166-3.6953-2.98-6.5957-6.7153-6.5957C700.4924,1055.0728,697.79,1057.9337,697.2737,1061.6685Z"/><path class="cls-1" d="M748.4065,1053.0064v19.8672h-2.3843v-3.2583a7.2172,7.2172,0,0,1-6.3574,3.6157c-4.0928,0-7.6289-2.9-7.6289-9.02v-11.2051H734.38v10.7681c0,4.768,2.3443,7.2314,5.8013,7.2314,3.06,0,5.5229-2.1059,5.8408-6.2378v-11.7617Z"/><path class="cls-1" d="M774.27,1062.94c0,5.6025-3.854,10.2119-9.377,10.2119a8.6336,8.6336,0,0,1-7.51-4.331v12h-2.3842v-27.814h2.3842v4.0928a8.6337,8.6337,0,0,1,7.51-4.3311C770.4163,1052.7681,774.27,1057.3375,774.27,1062.94Zm-2.4239,0c0-4.3311-2.94-7.8672-7.1919-7.8672a7.4165,7.4165,0,0,0-7.271,7.0327v1.669a7.4518,7.4518,0,0,0,7.271,7.0727C768.906,1070.8472,771.8464,1067.2315,771.8464,1062.94Z"/><path class="cls-1" d="M791.7878,1062.9005a10.0547,10.0547,0,1,1,10.0528,10.2514A9.9725,9.9725,0,0,1,791.7878,1062.9005Zm17.7212,0a7.6529,7.6529,0,1,0-7.6684,7.9067A7.6406,7.6406,0,0,0,809.509,1062.9005Z"/><path class="cls-1" d="M833.4656,1061.6685v11.2051h-2.3448v-10.7681c0-4.768-2.3442-7.2314-5.8007-7.2314-3.06,0-5.523,2.1059-5.8409,6.2383v11.7612H817.095v-19.8672h2.3842v3.2583a7.2174,7.2174,0,0,1,6.3575-3.6157C829.929,1052.649,833.4656,1055.5494,833.4656,1061.6685Z"/><path class="cls-1" d="M839.7405,1041.0865h2.3843v31.7871h-2.3843Z"/><path class="cls-1" d="M864.5334,1053.0064l-11.84,27.814h-2.3843l3.5762-8.4234-8.3442-19.3906h2.5825l6.9536,16.7681,6.874-16.7681Z"/><path class="cls-1" d="M879.3845,1054.35a7.7573,7.7573,0,0,1,4.8389-1.6133c3.33,0,4.4228,1.7173,7.4927,1.7173a6.7376,6.7376,0,0,0,4.5786-1.7173v6.2959a7.6406,7.6406,0,0,1-4.8389,1.6133c-3.33,0-4.3706-1.7173-7.44-1.7173a7.0333,7.0333,0,0,0-4.6309,1.7173Z"/><path class="cls-1" d="M900.0383,1054.6622c0-10.1983,3.3819-18.7837,12.6441-18.7837,9.2094,0,12.5918,8.5854,12.5918,18.7837,0,10.3022-3.3824,18.7837-12.5918,18.7837C903.42,1073.4459,900.0383,1064.9644,900.0383,1054.6622Zm17.5347,0c0-6.0357-1.1445-10.979-4.9429-10.979-3.8506,0-4.8911,4.9433-4.8911,10.979,0,6.0879,1.04,10.979,4.8911,10.979C916.4285,1065.6412,917.573,1060.75,917.573,1054.6622Z"/><path class="cls-1" d="M928.5486,1068.8672a4.4746,4.4746,0,1,1,4.4746,4.4747A4.4743,4.4743,0,0,1,928.5486,1068.8672Z"/><path class="cls-1" d="M966.0623,1061.1143c0,6.6079-4.8912,12.3316-12.6441,12.3316a12.7081,12.7081,0,0,1-12.644-9.47l6.8164-3.07c.7285,2.7056,2.7578,4.8911,5.6714,4.8911a5.047,5.047,0,0,0,5.1513-5.2036,5.3469,5.3469,0,0,0-5.6714-5.4111,7.5718,7.5718,0,0,0-5.5156,2.3935l-4.8911-1.3007,4.5791-19.8248h16.13v7.337l-10.6148.0517-1.1967,5.0991a14.1271,14.1271,0,0,1,2.1333-.208A12.2836,12.2836,0,0,1,966.0623,1061.1143Z"/><path class="cls-1" d="M969.2327,1043.8394a7.9606,7.9606,0,0,1,7.9609-7.9609,7.8518,7.8518,0,0,1,7.9092,7.9609,7.9391,7.9391,0,0,1-7.9092,7.9092A8.0529,8.0529,0,0,1,969.2327,1043.8394Zm25.7563-7.3887h5.9834l-23.935,36.4229h-5.9317Zm-15.2978,7.337a2.4716,2.4716,0,1,0-2.4976,2.4453A2.4655,2.4655,0,0,0,979.6912,1043.7877Zm7.1806,21.7495a7.9834,7.9834,0,0,1,7.961-7.9092,7.8518,7.8518,0,0,1,7.9609,7.9092,7.9609,7.9609,0,0,1-7.9609,7.9609A8.0983,8.0983,0,0,1,986.8718,1065.5372Zm10.4585,0a2.4461,2.4461,0,1,0-4.8911,0,2.4456,2.4456,0,1,0,4.8911,0Z"/><path class="cls-1" d="M1022.6926,1058.9005a10.0547,10.0547,0,1,1,10.0528,10.2514A9.9725,9.9725,0,0,1,1022.6926,1058.9005Zm17.7212,0a7.6529,7.6529,0,1,0-7.6684,7.9067A7.6406,7.6406,0,0,0,1040.4138,1058.9005Z"/><path class="cls-1" d="M1050.4236,1041.2584v7.748h4.1328v2.3047h-4.1328v17.5625h-2.3443v-17.5625h-2.5429v-2.3047h2.5429v-8.185a3.6337,3.6337,0,0,1,3.7354-3.9732,4.9851,4.9851,0,0,1,2.7417.7944v2.4634a4.1238,4.1238,0,0,0-2.3047-.834A1.8188,1.8188,0,0,0,1050.4236,1041.2584Z"/><path class="cls-1" d="M1079.2673,1051.3111h-4.0927v17.5625H1072.79v-17.5625h-2.543v-2.3047h2.543v-5.3242h2.3843v5.3242h4.0927Z"/><path class="cls-1" d="M1099.6492,1057.6685v11.2051h-2.3443v-10.7681c0-4.768-2.3442-7.2314-5.8012-7.2314-3.2979,0-5.88,2.4634-5.88,7.2314v10.7681h-2.3843v-31.7871h2.3843v15.2182a7.2649,7.2649,0,0,1,6.397-3.6557C1096.113,1048.649,1099.6492,1051.5494,1099.6492,1057.6685Z"/><path class="cls-1" d="M1122.8113,1059.7745h-16.41a7.4035,7.4035,0,0,0,7.6289,7.1123,9.6057,9.6057,0,0,0,6.7549-2.7417v2.7021a10.802,10.802,0,0,1-6.8345,2.3047c-6.2382,0-9.9731-4.6889-9.9731-10.2119s3.894-10.1719,9.5757-10.1719C1119.4734,1048.7681,1122.93,1053.9337,1122.8113,1059.7745Zm-16.3706-2.106h13.8276c-.5166-3.6953-2.98-6.5957-6.7153-6.5957C1109.6594,1051.0728,1106.9573,1053.9337,1106.4407,1057.6685Z"/><path class="cls-1" d="M1158.9641,1059.7745h-16.41a7.4034,7.4034,0,0,0,7.6289,7.1123,9.6047,9.6047,0,0,0,6.7548-2.7417v2.7021a10.8007,10.8007,0,0,1-6.8344,2.3047c-6.2383,0-9.9732-4.6889-9.9732-10.2119s3.8941-10.1719,9.5757-10.1719C1155.6262,1048.7681,1159.0833,1053.9337,1158.9641,1059.7745Zm-16.3706-2.106h13.8276c-.5166-3.6953-2.98-6.5957-6.7153-6.5957C1145.8123,1051.0728,1143.11,1053.9337,1142.5935,1057.6685Z"/><path class="cls-1" d="M1180.3381,1057.6685v11.2051h-2.3442v-10.7681c0-4.768-2.3447-7.2314-5.8013-7.2314-3.06,0-5.5229,2.1059-5.8408,6.2383v11.7612h-2.3843v-19.8672h2.3843v3.2583a7.2168,7.2168,0,0,1,6.3574-3.6157C1176.8015,1048.649,1180.3381,1051.5494,1180.3381,1057.6685Z"/><path class="cls-1" d="M1193.6462,1051.3111h-4.0927v17.5625h-2.3843v-17.5625h-2.543v-2.3047h2.543v-5.3242h2.3843v5.3242h4.0927Z"/><path class="cls-1" d="M1197.6174,1043.3643a1.6629,1.6629,0,0,1,1.669-1.7085,1.6958,1.6958,0,0,1,1.7085,1.7085,1.6629,1.6629,0,0,1-1.7085,1.669A1.63,1.63,0,0,1,1197.6174,1043.3643Zm.5166,5.6421h2.3843v19.8672h-2.3843Z"/><path class="cls-1" d="M1215.6951,1048.689v2.7017c-3.2188-.2383-5.7217,2.4634-5.7217,6.5561v10.9268h-2.3843v-19.8672h2.3843v3.6558A6.5041,6.5041,0,0,1,1215.6951,1048.689Z"/><path class="cls-1" d="M1236.3547,1059.7745h-16.41a7.4034,7.4034,0,0,0,7.6289,7.1123,9.605,9.605,0,0,0,6.7549-2.7417v2.7021a10.801,10.801,0,0,1-6.8345,2.3047c-6.2383,0-9.9731-4.6889-9.9731-10.2119s3.894-10.1719,9.5756-10.1719C1233.0168,1048.7681,1236.4739,1053.9337,1236.3547,1059.7745Zm-16.3706-2.106h13.8277c-.5166-3.6953-2.98-6.5957-6.7154-6.5957C1223.2029,1051.0728,1220.5007,1053.9337,1219.9841,1057.6685Z"/><path class="cls-1" d="M1253.5144,1066.0523l1.6294-1.748a6.4608,6.4608,0,0,0,4.8477,2.5825c2.1455,0,3.854-1.2315,3.854-3.1787,0-4.9668-9.8936-3.3374-9.854-9.9331.0395-2.8614,2.4633-5.0464,5.8012-5.086a8.2954,8.2954,0,0,1,6,2.8208l-1.47,1.7085a6.2864,6.2864,0,0,0-4.49-2.2251c-1.9868,0-3.417,1.1919-3.4566,2.7818-.08,4.6089,9.8936,3.0195,9.8535,9.9731-.04,3.0591-2.5429,5.4434-6.3173,5.4434A8.6,8.6,0,0,1,1253.5144,1066.0523Z"/><path class="cls-1" d="M1269.8035,1058.9005a10.0546,10.0546,0,1,1,10.0527,10.2514A9.9725,9.9725,0,0,1,1269.8035,1058.9005Zm17.7212,0a7.6529,7.6529,0,1,0-7.6685,7.9067A7.6407,7.6407,0,0,0,1287.5247,1058.9005Z"/><path class="cls-1" d="M1295.1106,1043.3643a1.6628,1.6628,0,0,1,1.6689-1.7085,1.6958,1.6958,0,0,1,1.7085,1.7085,1.6629,1.6629,0,0,1-1.7085,1.669A1.63,1.63,0,0,1,1295.1106,1043.3643Zm.5166,5.6421h2.3843v19.8672h-2.3843Z"/><path class="cls-1" d="M1305.0823,1037.0865h2.3843v31.7871h-2.3843Z"/><path class="cls-1" d="M1313.4656,1063.8672h2.4233l-1.9468,9.3375h-1.7085Z"/><path class="cls-1" d="M234.1418,1103.4986v31.7871H228.42v-2.5034a7.4956,7.4956,0,0,1-5.92,2.7817c-5.4434,0-8.94-4.53-8.94-10.2514,0-5.6822,3.4966-10.2115,8.94-10.2115a7.495,7.495,0,0,1,5.92,2.7813v-14.3838Zm-5.7216,21.814a4.5459,4.5459,0,0,0-4.45-4.6885,4.6972,4.6972,0,0,0,0,9.3769A4.5216,4.5216,0,0,0,228.42,1125.3126Z"/><path class="cls-1" d="M257.3831,1127.18H243.7546c.6753,2.1455,2.5826,3.2979,5.0459,3.2979a14.4052,14.4052,0,0,0,6.2779-1.5894l.04,5.1255a14.0173,14.0173,0,0,1-6.7549,1.5894,9.8634,9.8634,0,0,1-10.33-10.2515c0-5.5229,3.8935-10.251,9.8935-10.251C254.4031,1115.1011,257.9392,1120.6241,257.3831,1127.18Zm-13.6285-3.5761h8.066a4.0351,4.0351,0,0,0-3.8941-3.2188A4.2607,4.2607,0,0,0,243.7546,1123.6041Z"/><path class="cls-1" d="M280.7439,1115.4185v19.8672h-5.7217v-2.543a7.4309,7.4309,0,0,1-5.96,2.8213c-5.4439,0-8.94-4.53-8.94-10.2514,0-5.6822,3.4966-10.2115,8.94-10.2115a7.43,7.43,0,0,1,5.96,2.8208v-2.5034Zm-5.7617,9.8941a4.5459,4.5459,0,0,0-4.45-4.6885,4.6972,4.6972,0,0,0,0,9.3769A4.5216,4.5216,0,0,0,274.9822,1125.3126Z"/><path class="cls-1" d="M305.137,1103.4986v31.7871h-5.7217v-2.5034a7.4955,7.4955,0,0,1-5.92,2.7817c-5.4434,0-8.94-4.53-8.94-10.2514,0-5.6822,3.4966-10.2115,8.94-10.2115a7.4948,7.4948,0,0,1,5.92,2.7813v-14.3838Zm-5.7217,21.814a4.5459,4.5459,0,0,0-4.45-4.6885,4.6972,4.6972,0,0,0,0,9.3769A4.5216,4.5216,0,0,0,299.4153,1125.3126Z"/><path class="cls-1" d="M353.4094,1123.3658v11.92h-5.6821v-10.6089c0-2.6621-1.3511-4.331-3.3774-4.331-1.9869,0-3.3775,1.6689-3.3775,4.331v10.6089h-5.6816v-10.6089c0-2.6621-1.3511-4.331-3.3775-4.331-1.9868,0-3.3379,1.6689-3.3379,4.331v10.6089h-5.7216v-19.8672h5.7216v2.543a7.0958,7.0958,0,0,1,5.6822-2.94,6.2141,6.2141,0,0,1,5.7612,3.5757,7.6729,7.6729,0,0,1,6.5962-3.5757C350.7073,1115.0215,353.4094,1118.0015,353.4094,1123.3658Z"/><path class="cls-1" d="M358.0935,1108.7833a3.596,3.596,0,1,1,3.5762,3.6157A3.5612,3.5612,0,0,1,358.0935,1108.7833Zm.7549,6.6352H364.57v19.8672h-5.7217Z"/><path class="cls-1" d="M369.1775,1125.3521a10.0327,10.0327,0,0,1,10.331-10.291,10.3422,10.3422,0,0,1,5.8809,1.5894v6.1191a9.36,9.36,0,0,0-5.4834-1.9868,4.5823,4.5823,0,1,0,0,9.1386,9.3594,9.3594,0,0,0,5.4834-1.9863v6.1187a10.3429,10.3429,0,0,1-5.8809,1.5893A10.0326,10.0326,0,0,1,369.1775,1125.3521Z"/><path class="cls-1" d="M400.8035,1114.9815v6.5962c-2.543-.5566-5.523,0-5.523,4.0923v9.6157h-5.7217v-19.8672h5.7217v2.98A6.729,6.729,0,0,1,400.8035,1114.9815Z"/><path class="cls-1" d="M402.1921,1125.3521a10.2712,10.2712,0,1,1,10.251,10.3311A10.1177,10.1177,0,0,1,402.1921,1125.3521Zm14.7012-.04a4.4323,4.4323,0,1,0-8.86,0,4.4353,4.4353,0,1,0,8.86,0Z"/><path class="cls-1" d="M447.2078,1125.3521c0,5.6821-3.4971,10.2119-8.9405,10.2119a7.4955,7.4955,0,0,1-5.92-2.7817v2.5034h-5.7217v-31.7871h5.7217v14.3838a7.4948,7.4948,0,0,1,5.92-2.7813C443.7107,1115.1011,447.2078,1119.63,447.2078,1125.3521Zm-6,0a4.4207,4.4207,0,0,0-4.4107-4.6885,4.6949,4.6949,0,0,0,0,9.377A4.443,4.443,0,0,0,441.2078,1125.3521Z"/><path class="cls-1" d="M469.3757,1127.18H455.7468c.6758,2.1455,2.583,3.2979,5.0464,3.2979a14.4045,14.4045,0,0,0,6.2778-1.5894l.04,5.1255a14.0162,14.0162,0,0,1-6.7549,1.5894,9.8638,9.8638,0,0,1-10.3311-10.2515c0-5.5229,3.8941-10.251,9.8941-10.251C466.3958,1115.1011,469.9319,1120.6241,469.3757,1127.18Zm-13.6289-3.5761h8.0664a4.0345,4.0345,0,0,0-3.894-3.2188A4.2617,4.2617,0,0,0,455.7468,1123.6041Z"/><path class="cls-1" d="M471.3992,1132.6236l2.7817-4.0928a9.1029,9.1029,0,0,0,5.0064,2.1455c1.1123,0,1.8276-.5561,1.8276-1.2715,0-2.5825-8.94-1.6289-8.94-8.3837,0-3.2979,2.7016-5.96,7.0722-6a10.2831,10.2831,0,0,1,6.8345,2.7017l-2.7017,4.0527a8.1775,8.1775,0,0,0-4.0532-1.7085c-.9932,0-1.6685.4771-1.6685,1.1924,0,2.4634,9.0987,1.5894,9.0591,8.3838,0,3.417-2.98,5.9995-7.47,5.9995A12.2437,12.2437,0,0,1,471.3992,1132.6236Z"/><path class="cls-1" d="M532.4392,1123.5245l-.0395,11.7612h-2.3843v-11.2842c0-4.0532-2.0264-6.6758-5.3242-6.6758s-5.3243,2.6226-5.3243,6.9537l-.04,11.0063h-2.3442v-11.2842c0-4.0532-2.0264-6.6758-5.3243-6.6758s-5.3242,2.6226-5.3242,6.9537v11.0063H503.95v-19.8672h2.3842v2.98a6.5813,6.5813,0,0,1,5.8408-3.3379,6.7757,6.7757,0,0,1,6.4766,4.49,7.025,7.025,0,0,1,6.5562-4.49C529.1809,1115.0611,532.4392,1118.0411,532.4392,1123.5245Z"/><path class="cls-1" d="M555.9973,1115.4185v19.8672h-2.3838v-4.0928a8.6852,8.6852,0,0,1-7.5493,4.3711c-5.5234,0-9.3774-4.5693-9.3774-10.1718s3.854-10.212,9.3774-10.212a8.6393,8.6393,0,0,1,7.5493,4.4107v-4.1724Zm-2.3838,9.9737c0-4.252-3.06-7.9073-7.311-7.9073s-7.1919,3.6157-7.1919,7.9073c0,4.331,2.94,7.8671,7.1919,7.8671S553.6135,1129.6436,553.6135,1125.3922Z"/><path class="cls-1" d="M574.7483,1135.2857l-9.7744-9.1387v9.1387H562.59v-31.7871h2.3843v21.3369l9.4565-9.417h3.06l-10.1719,10.0528,10.6089,9.8144Z"/><path class="cls-1" d="M597.8318,1126.1866h-16.41a7.4035,7.4035,0,0,0,7.6289,7.1123,9.6057,9.6057,0,0,0,6.7549-2.7417v2.7021a10.802,10.802,0,0,1-6.8345,2.3047c-6.2382,0-9.9731-4.6889-9.9731-10.2119s3.894-10.1719,9.5757-10.1719C594.4939,1115.18,597.9509,1120.3458,597.8318,1126.1866Zm-16.3706-2.106h13.8276c-.5166-3.6953-2.98-6.5957-6.7153-6.5957C584.68,1117.4849,581.9778,1120.3458,581.4612,1124.0806Z"/><path class="cls-1" d="M632.594,1115.4185v19.8672H630.21v-3.2583a7.2172,7.2172,0,0,1-6.3574,3.6157c-4.0928,0-7.6289-2.9-7.6289-9.02v-11.2051h2.3442v10.7681c0,4.7681,2.3443,7.2314,5.8013,7.2314,3.06,0,5.5229-2.1059,5.8408-6.2378v-11.7617Z"/><path class="cls-1" d="M658.4578,1125.3521c0,5.6026-3.854,10.2119-9.377,10.2119a8.6336,8.6336,0,0,1-7.51-4.331v12h-2.3842v-27.814h2.3842v4.0928a8.6337,8.6337,0,0,1,7.51-4.3311C654.6038,1115.18,658.4578,1119.75,658.4578,1125.3521Zm-2.4239,0c0-4.331-2.94-7.8672-7.1919-7.8672a7.4165,7.4165,0,0,0-7.271,7.0327v1.669a7.4518,7.4518,0,0,0,7.271,7.0727C653.0935,1133.2593,656.0339,1129.6436,656.0339,1125.3521Z"/><path class="cls-1" d="M701.21,1123.543c0,6.6079-4.8911,12.3316-12.644,12.3316a12.7082,12.7082,0,0,1-12.6441-9.47l6.8164-3.07c.7285,2.7056,2.7578,4.8911,5.6714,4.8911a5.0471,5.0471,0,0,0,5.1514-5.2036,5.3469,5.3469,0,0,0-5.6714-5.4111,7.5717,7.5717,0,0,0-5.5156,2.3935l-4.8911-1.3007,4.5791-19.8247h16.13v7.3369l-10.6147.0517-1.1968,5.0991a14.1348,14.1348,0,0,1,2.1333-.208A12.2835,12.2835,0,0,1,701.21,1123.543Z"/><path class="cls-1" d="M705.0051,1117.0909c0-10.1983,3.3819-18.7837,12.6441-18.7837,9.2094,0,12.5918,8.5854,12.5918,18.7837,0,10.3022-3.3824,18.7837-12.5918,18.7837C708.387,1135.8746,705.0051,1127.3931,705.0051,1117.0909Zm17.5347,0c0-6.0357-1.1445-10.979-4.9429-10.979-3.8506,0-4.8911,4.9433-4.8911,10.979,0,6.0879,1.0405,10.979,4.8911,10.979C721.3953,1128.07,722.54,1123.1788,722.54,1117.0909Z"/><path class="cls-1" d="M733.9836,1116.1544H750.842v6.3481H733.9836Z"/><path class="cls-1" d="M779.8215,1123.855c0,6.7124-4.9951,12.02-12.644,12.02-7.5967,0-12.5918-5.3072-12.5918-12.02a11.12,11.12,0,0,1,4.4228-8.6894,9.5026,9.5026,0,0,1-2.706-6.8159c0-5.2036,4.3711-9.99,10.875-9.99,6.5561,0,10.9267,4.7867,10.9267,9.99a9.5417,9.5417,0,0,1-2.7578,6.8681A10.8471,10.8471,0,0,1,779.8215,1123.855Zm-7.5971-.4682a5.0244,5.0244,0,0,0-10.042,0,5.0216,5.0216,0,0,0,10.042,0Zm-8.585-13.7886a3.5691,3.5691,0,0,0,7.1284,0,3.5667,3.5667,0,0,0-7.1284,0Z"/><path class="cls-1" d="M783.6682,1117.0909c0-10.1983,3.3818-18.7837,12.6441-18.7837,9.2094,0,12.5918,8.5854,12.5918,18.7837,0,10.3022-3.3824,18.7837-12.5918,18.7837C787.05,1135.8746,783.6682,1127.3931,783.6682,1117.0909Zm17.5347,0c0-6.0357-1.1446-10.979-4.9429-10.979-3.8506,0-4.8911,4.9433-4.8911,10.979,0,6.0879,1.04,10.979,4.8911,10.979C800.0583,1128.07,801.2029,1123.1788,801.2029,1117.0909Z"/><path class="cls-1" d="M812.1262,1106.2681a7.9606,7.9606,0,0,1,7.961-7.9609,7.8518,7.8518,0,0,1,7.9091,7.9609,7.939,7.939,0,0,1-7.9091,7.9092A8.053,8.053,0,0,1,812.1262,1106.2681Zm25.7564-7.3886h5.9834l-23.9351,36.4228h-5.9316Zm-15.2979,7.3369a2.4716,2.4716,0,1,0-2.4975,2.4453A2.4654,2.4654,0,0,0,822.5847,1106.2164Zm7.1807,21.7495a7.9834,7.9834,0,0,1,7.9609-7.9092,7.8519,7.8519,0,0,1,7.961,7.9092,7.961,7.961,0,0,1-7.961,7.9609A8.0982,8.0982,0,0,1,829.7654,1127.9659Zm10.4585,0a2.4461,2.4461,0,1,0-4.8911,0,2.4456,2.4456,0,1,0,4.8911,0Z"/><path class="cls-1" d="M862.594,1125.3292a10.0547,10.0547,0,1,1,10.0527,10.2514A9.9725,9.9725,0,0,1,862.594,1125.3292Zm17.7212,0a7.6529,7.6529,0,1,0-7.6685,7.9067A7.6407,7.6407,0,0,0,880.3152,1125.3292Z"/><path class="cls-1" d="M890.325,1107.6871v7.748h4.1328v2.3047H890.325v17.5625h-2.3443V1117.74h-2.543v-2.3047h2.543v-8.185a3.6337,3.6337,0,0,1,3.7354-3.9732,4.9845,4.9845,0,0,1,2.7417.7945v2.4633a4.1251,4.1251,0,0,0-2.3047-.834A1.8188,1.8188,0,0,0,890.325,1107.6871Z"/><path class="cls-1" d="M910.5857,1132.481l1.6294-1.748a6.4608,6.4608,0,0,0,4.8476,2.5825c2.1456,0,3.854-1.2315,3.854-3.1787,0-4.9668-9.8935-3.3374-9.854-9.9331.04-2.8614,2.4634-5.0464,5.8013-5.086a8.2954,8.2954,0,0,1,6,2.8208l-1.47,1.7085a6.2868,6.2868,0,0,0-4.49-2.2251c-1.9869,0-3.417,1.1919-3.4566,2.7818-.08,4.6089,9.8936,3.0195,9.8535,9.9731-.04,3.0591-2.5429,5.4434-6.3173,5.4434A8.6,8.6,0,0,1,910.5857,1132.481Z"/><path class="cls-1" d="M926.8748,1125.3292a10.0546,10.0546,0,1,1,10.0527,10.2514A9.9725,9.9725,0,0,1,926.8748,1125.3292Zm17.7211,0a7.6529,7.6529,0,1,0-7.6684,7.9067A7.6406,7.6406,0,0,0,944.5959,1125.3292Z"/><path class="cls-1" d="M952.1819,1109.793a1.6628,1.6628,0,0,1,1.6689-1.7085,1.6958,1.6958,0,0,1,1.7085,1.7085,1.6629,1.6629,0,0,1-1.7085,1.669A1.63,1.63,0,0,1,952.1819,1109.793Zm.5166,5.6421h2.3843v19.8672h-2.3843Z"/><path class="cls-1" d="M962.1536,1103.5152h2.3842v31.7871h-2.3842Z"/><path class="cls-1" d="M983.448,1125.3292a10.0547,10.0547,0,1,1,10.0527,10.2514A9.9725,9.9725,0,0,1,983.448,1125.3292Zm17.7212,0a7.6529,7.6529,0,1,0-7.6685,7.9067A7.6407,7.6407,0,0,0,1001.1692,1125.3292Z"/><path class="cls-1" d="M1016.8611,1115.1177v2.7017c-3.2188-.2383-5.7217,2.4634-5.7217,6.5562v10.9267h-2.3843v-19.8672h2.3843v3.6558A6.5041,6.5041,0,0,1,1016.8611,1115.1177Z"/><path class="cls-1" d="M1037.9973,1134.4283c0,6.1982-4.728,9.0991-9.3769,9.0991a13.81,13.81,0,0,1-7.43-2.2251l.0395-2.583a12.4628,12.4628,0,0,0,7.1123,2.583c4.1724,0,7.3511-2.543,7.3511-7.4307V1131.09a8.7108,8.7108,0,0,1-7.6289,4.49c-5.5234,0-9.3774-4.5693-9.3774-10.1718s3.854-10.212,9.3774-10.212a8.5953,8.5953,0,0,1,7.5493,4.45v-4.2119h2.3443Zm-2.3838-9.02c0-4.252-3.0595-7.9073-7.311-7.9073s-7.1919,3.6157-7.1919,7.9073c0,4.331,2.94,7.8671,7.1919,7.8671S1035.6135,1129.66,1035.6135,1125.4088Z"/><path class="cls-1" d="M1062.51,1115.4351v19.8672h-2.3838V1131.21a8.6852,8.6852,0,0,1-7.5493,4.3711c-5.5234,0-9.3774-4.5693-9.3774-10.1718s3.854-10.212,9.3774-10.212a8.6393,8.6393,0,0,1,7.5493,4.4107v-4.1724Zm-2.3838,9.9737c0-4.252-3.0595-7.9073-7.311-7.9073s-7.1919,3.6157-7.1919,7.9073c0,4.331,2.94,7.8671,7.1919,7.8671S1060.1262,1129.66,1060.1262,1125.4088Z"/><path class="cls-1" d="M1085.4734,1124.0972v11.2051h-2.3447v-10.7681c0-4.768-2.3443-7.2314-5.8008-7.2314-3.06,0-5.523,2.106-5.8408,6.2383v11.7612h-2.3843v-19.8672h2.3843v3.2583a7.2174,7.2174,0,0,1,6.3574-3.6157C1081.9368,1115.0777,1085.4734,1117.9781,1085.4734,1124.0972Z"/><path class="cls-1" d="M1091.7483,1109.793a1.6628,1.6628,0,0,1,1.6689-1.7085,1.6958,1.6958,0,0,1,1.7085,1.7085,1.6629,1.6629,0,0,1-1.7085,1.669A1.63,1.63,0,0,1,1091.7483,1109.793Zm.5166,5.6421h2.3843v19.8672h-2.3843Z"/><path class="cls-1" d="M1100.3293,1125.3687a10.2448,10.2448,0,0,1,16.7676-7.9067v2.94a8.5283,8.5283,0,0,0-6.5561-2.94,7.9074,7.9074,0,0,0,0,15.8139,8.5267,8.5267,0,0,0,6.5561-2.94v2.94a10.2448,10.2448,0,0,1-16.7676-7.9072Z"/><path class="cls-1" d="M1164.8923,1123.5411l-.04,11.7612h-2.3843v-11.2842c0-4.0532-2.0264-6.6758-5.3242-6.6758s-5.3242,2.6226-5.3242,6.9537l-.04,11.0063h-2.3442v-11.2842c0-4.0532-2.0264-6.6758-5.3242-6.6758s-5.3242,2.6226-5.3242,6.9537v11.0063h-2.3843v-19.8672h2.3843v2.9805a6.581,6.581,0,0,1,5.8408-3.3379,6.7756,6.7756,0,0,1,6.4765,4.49,7.025,7.025,0,0,1,6.5562-4.49C1161.634,1115.0777,1164.8923,1118.0577,1164.8923,1123.5411Z"/><path class="cls-1" d="M1188.45,1115.4351v19.8672h-2.3837V1131.21a8.6855,8.6855,0,0,1-7.5494,4.3711c-5.5234,0-9.3774-4.5693-9.3774-10.1718s3.854-10.212,9.3774-10.212a8.64,8.64,0,0,1,7.5494,4.4107v-4.1724Zm-2.3837,9.9737c0-4.252-3.06-7.9073-7.3111-7.9073s-7.1919,3.6157-7.1919,7.9073c0,4.331,2.9405,7.8671,7.1919,7.8671S1186.0667,1129.66,1186.0667,1125.4088Z"/><path class="cls-1" d="M1202.0759,1117.74h-4.0927v17.5625h-2.3843V1117.74h-2.543v-2.3047h2.543v-5.3242h2.3843v5.3242h4.0927Z"/><path class="cls-1" d="M1213.0808,1117.74h-4.0928v17.5625h-2.3842V1117.74h-2.543v-2.3047h2.543v-5.3242h2.3842v5.3242h4.0928Z"/><path class="cls-1" d="M1233.7014,1126.2032h-16.41a7.4034,7.4034,0,0,0,7.6289,7.1123,9.6046,9.6046,0,0,0,6.7548-2.7417v2.7021a10.8,10.8,0,0,1-6.8344,2.3047c-6.2383,0-9.9732-4.6889-9.9732-10.2119s3.8941-10.1719,9.5757-10.1719C1230.3635,1115.1968,1233.8206,1120.3624,1233.7014,1126.2032Zm-16.3706-2.106h13.8276c-.5166-3.6953-2.98-6.5957-6.7153-6.5957C1220.55,1117.5015,1217.8474,1120.3624,1217.3308,1124.0972Z"/><path class="cls-1" d="M1246.81,1115.1177v2.7017c-3.2187-.2383-5.7217,2.4634-5.7217,6.5562v10.9267h-2.3843v-19.8672h2.3843v3.6558A6.5042,6.5042,0,0,1,1246.81,1115.1177Z"/><path class="cls-1" d="M1247.8811,1133.8321a1.6539,1.6539,0,0,1,1.6689-1.669,1.6791,1.6791,0,0,1,1.6685,1.669,1.6535,1.6535,0,0,1-1.6685,1.6689A1.63,1.63,0,0,1,1247.8811,1133.8321Z"/><path class="cls-41" d="M1275.0666,58.8156s-63.5645,23.1339-74.7956,57.2921c-12.2454,37.2435-58.5724,33.2654-58.5724,33.2654s-16.565-2.274-19.0222-11.5435c-3.1759-11.984,7.1259-20.6637,7.1259-20.6637s30.7688-31.8562,58.0533-22.6748c0,0,10.2649,5.3616,14.2906-.26a50.1633,50.1633,0,0,1,16.2824-14.675s66.0753-40.7533,80.7576-54.7835a89.5783,89.5783,0,0,0,16.4319-15.2168c6.823-8.5374,13.7-9.4478,13.7-9.4478s6.7139-2.16,8.6963,12.8441c2.3962,18.1326-12.1476,23.5547-12.1476,23.5547Z"/><path class="cls-42" d="M932.1651,907.0515c-2.4924-2.218-4.1551-8.59-4.1551-8.59-3.0466-.2771-6.6631-2.8766-6.665-2.8784a17.6909,17.6909,0,0,0-5.8-7.6493c.5524-9.1411-5.2655-9.4178-5.2655-9.4178-19.946-37.6773-55.9619-19.3941-55.9619-19.3941s-15.2366,7.48-15.7908,17.73c-.5525,10.25,9.6958,20.78,9.6958,20.78a47.6949,47.6949,0,0,0,6.5994,6.7865c-.7907.9916-2.5182,2.2272-6.0451,1.5232,0,0-4.9865,7.1153-5.2636,12.1467,0,0,4.155-8.2021,6.9263-8.235a9.3359,9.3359,0,0,0,8.035,0s.5525,4.9533,2.4942,6.0613c0,0,2.2152,10.8049,5.2636,14.4081,0,0,0-11.3554-3.88-15.9115-3.878-4.5579-1.3838-3.8835-1.3838-3.8835a2.8358,2.8358,0,0,0,4.0848.4522,30.8937,30.8937,0,0,0,5.6092,1.8867,41.8628,41.8628,0,0,0,18.4661-.4046c1,2.4679,2.2559,6.719.3723,9.21a103.808,103.808,0,0,0-6.6465,11.1424s16.0237-9.4275,9.1656-21.1066a42.9934,42.9934,0,0,0,5.24-1.8541,37.4142,37.4142,0,0,0,9.7458,4.1972,22.9036,22.9036,0,0,0,2.7214,8.7906,28.2087,28.2087,0,0,0,3.3218,9.9729c1.515-6.4862-1.3588-14.996-2.6936-18.4213a4.7226,4.7226,0,0,0,4.3583-2.6327,20.5274,20.5274,0,0,0,1.1085-13.8523,8.6576,8.6576,0,0,0,3.9611.6756c.2864.068.6208.13,1.0014.19-.5469,7.3379-1.0864,13.2635-1.0864,13.2635l3.0485-4.7113a24.4529,24.4529,0,0,0-.3372-8.3582c8.8063.7852,6.4322,20.5506,6.4322,20.5506,2.7713-4.4346,3.3237-12.4667,3.3237-12.4667"/><path class="cls-43" d="M617.8905,861.7782s4.6105-6.4386,14.6242-6.5975c10.0173-.158,19.316-6.9943,19.316-6.9943"/><path class="cls-43" d="M526.7493,895.5224l-11.6579,13.1415a6.3671,6.3671,0,0,0-3.9219,2.5441,3.622,3.622,0,0,0-2.9671.6383c-1.1672,1.0573-4.7676,0-4.7676,0a7.0821,7.0821,0,0,0-3.0752-.3182"/><path class="cls-43" d="M554.3044,946.5014s9.9633,0,13.7784-25.3292"/><path class="cls-44" d="M291.4676,547.5511A11.9144,11.9144,0,0,0,274.48,536.7762c-24.72,7.4747-37.1216,31.1425-37.1216,31.1425a11.1833,11.1833,0,0,0,18.5641,12.3435c12.4324-13.12,23.9435-19.5914,27.9836-21.6241a11.7211,11.7211,0,0,0,1.5289-.7311,11.9009,11.9009,0,0,0,6.0331-10.3559"/><path class="cls-44" d="M304.3717,592.2046a13.0479,13.0479,0,1,0-22.3792-13.3508c-.0083.014-14.1415,23.4868-18.279,56.8206l.084.0055a13.2036,13.2036,0,0,0-.084,1.4725,13.0473,13.0473,0,0,0,26.0945,0s-.5145-17.0889,14.5637-44.9478"/><path class="cls-44" d="M358.4352,630.9442h0A10.72,10.72,0,0,0,357.001,629.8a95.046,95.046,0,0,1-23.6835-28.4631,10.1477,10.1477,0,1,0-18.0786,9.0385c17.4666,32.059,30.6382,37.6108,30.6382,37.6108a10.6653,10.6653,0,0,0,12.5581-17.0421"/><path class="cls-41" d="M850.5406,671.4042a18.6312,18.6312,0,0,0-11.4289-12.9318A15.5381,15.5381,0,0,1,834,655.7658c-3.9094-4.21-10.5272-3.0083-10.5272-3.0083-1.5021-4.8109-9.3227-5.1116-9.3227-5.1116-6.6179-5.7144-11.4308-3.2341-11.4308-3.2341-4.809-3.2337-12.9308.527-12.9308.527-9.9231-2.4059-12.33,4.211-12.33,4.211a5.3055,5.3055,0,0,0-5.1122,2.7071c-9.0234.3-9.0234,14.1346-9.0234,14.1346a9.2,9.2,0,0,0,.4268,2.7657s.5765,3.45-3.6331,5.3542-6.8175,8.22-6.8175,8.22-1.0522,3.61,5.2392,0c0,0-1.5293,5.3136.8762,6.7172s2.7066-5.5126,2.7066-5.5126a17.0829,17.0829,0,0,1,5.2277-9.44,20.2368,20.2368,0,0,0,4.9975,3.3232s.9016-6.1134,3.61-9.9245c2.7047-3.8082,3.3043,1.2042,3.3043,1.2042.3021,8.12,4.8138,11.2274,4.8138,11.2274a53.294,53.294,0,0,1-2.1044-8.5218,17.4164,17.4164,0,0,0,5.1139,7.22c-3.3107-4.6-3.6765-16.5419-3.6765-16.5419l2.472,2.0887s1.539,16.5714,6.1726,14.8043c3.5529-1.3553,1.188-7.1888,1.188-7.1888a11.1632,11.1632,0,0,1-1.345-7.6155c.9016-6.7011,4.21-1.4883,4.21-1.4883,5.7145,12.9328,3.0078,22.557,3.0078,22.557,3.006-1.2027,3.6063-5.992,3.6063-5.992,7.8928-.2512,1.5058-11.1415.2181-13.2158,1.9639,2.7444,6.701-.04,6.701-.04.9035,4.2114,6.9172,2.4054,6.9172,2.4054,1.5038,4.5122,5.4151,3.309,5.4151,3.309,3.3071,4.811,20.4485,7.2174,20.4485,7.2174s10.8285,2.7071,8.1218-7.5191"/><path class="cls-41" d="M861.41,633.2735a19.76,19.76,0,0,1,7.6949-16.6057,16.4511,16.4511,0,0,0,4.3769-4.3c2.6973-5.4646,9.7863-6.2456,9.7863-6.2456.07-5.3464,7.926-8.0216,7.926-8.0216,4.992-7.8127,10.6353-6.75,10.6353-6.75,3.91-4.7463,13.3013-3.3842,13.3013-3.3842,9.3578-5.4526,13.8085.5432,13.8085.5432a5.6276,5.6276,0,0,1,6.0156,1.2005c9.26-2.4278,13.4538,11.6325,13.4538,11.6325a9.7787,9.7787,0,0,1,.4045,2.9394s.46,3.68,5.3154,4.34c4.8572.6614,9.4215,6.29,9.4215,6.29s2.1588,3.3491-5.3273,1.5888c0,0,3.1648,4.9344,1.1454,7.0908s-4.4211-4.7842-4.4211-4.7842a18.1162,18.1162,0,0,0-8.1735-8.01,21.577,21.577,0,0,1-4.0711,4.8947s-2.77-5.9431-6.6761-8.9934-2.9966,2.2249-2.9966,2.2249c2.1542,8.343-1.4892,12.87-1.4892,12.87a56.3019,56.3019,0,0,0-.4416-9.2982,18.4679,18.4679,0,0,1-3.01,8.8848c1.9714-5.678-1.2748-17.9244-1.2748-17.9244l-1.8826,2.8712s3.4586,17.309-1.7866,16.9169c-4.02-.3012-3.3837-6.9444-3.3837-6.9444s1.18-3.4447-.9432-8.1495c-2.9468-6.5352-4.7278-.2346-4.7278-.2346-1.89,14.874,3.7791,23.8354,3.7791,23.8354-3.4226-.3126-5.4844-4.9961-5.4844-4.9961-8.0941,2.1362-4.9071-10.8677-4.2254-13.3651-1.162,3.3851-6.8229,1.9888-6.8229,1.9888.36,4.5524-6.3,4.5423-6.3,4.5423-.1607,5.0405-4.5,5.0035-4.5,5.0035-1.903,5.8919-18.5955,13.5314-18.5955,13.5314s-10.1836,6.0322-10.5309-5.1814"/><path class="cls-1" d="M1070.6865,624.8751s8.5652-29.7708,36.9073-27.2956c19.7982,1.73,33.06,18.838,33.06,18.838s13.0288,15.4893,22.3,4.9976c7.3052-8.2659,2.6919-24.412,2.6919-24.412s-3.9778-13.3582-3.03-24.4521c.9146-10.724,9.18-23.1944,26.477-22.7713,40.6791.9944,20.3784,51.26,20.3784,51.26s-9.9915,22.37,7.6912,21.5289c20.1807-.9612,11.53-22.6827,11.53-22.6827s-6.5347-14.0311-3.4585-22.297c2.6992-7.251,11.148,4.6138,11.148,4.6138s27.8876,40.94-6.9209,54.5905c-19.6042,7.6876-35.02-3.581-37.2907-17.5626-1.92-11.8478,3.7192-23.7944,3.7192-23.7944s10.1235-25.5357-6.023-28.2276c-18.6454-3.1057-11.0861,24.605-11.0861,24.605s11.8528,28.8322-9.6765,43.0568c-21.5276,14.2251-39.5964-8.0723-39.5964-8.0723s-11.1489-13.17-19.9922-13.2635c-18.0671-.1921-24.9889,13.6477-24.9889,13.6477s-4.9993,6.92-11.5332,3.46c-4.1967-2.2217-2.3066-5.767-2.3066-5.767"/><path class="cls-45" d="M399.9355,893.34c-3.2295-18.6065-20.8495-23.7834-37.481-24.3579,1.8088-1.8661,5.02-5.4239,5.4959-7.6489a10.2813,10.2813,0,0,1,1.0642-3.0022c3.8974-.127,3.0014-4.727,3.0014-4.727,3.1754-.47,2.3016-2.8756,2.3016-2.8756,2.8955-.055,2.81-1.9173,2.81-1.9173,3.1953.2231,2.8111-1.4046,2.8111-1.4046a2.4753,2.4753,0,0,0,2.6193-.7663c4.216.83,4.7278-.7038,4.7278-.7038a3.7819,3.7819,0,0,0,2.6184-.0628c-4.217-.7045-1.4045-3.7062-1.4045-3.7062a3.1329,3.1329,0,0,0-1.7257,2.2355,5.8011,5.8011,0,0,0-2.4272.8762c-.64.6185-2.2363.4019-2.2363.4019-1.5968-1.2135-2.5557.7038-2.5557.7038-1.8521-.8961-2.8748,1.1492-2.8748,1.1492-2.5551-.8314-3.131,2.0439-3.131,2.0439-2.9381,0-2.3631,3.259-2.3631,3.259-4.7278,1.661-3.236,4.28-3.236,4.28-5.3786,3.048-7.4076,9.7157-7.9249,11.81a130.4387,130.4387,0,0,0-29.1523,3.3306s.32-5.2391-1.15-6.3884c-.8559-.6715-.3187-2.3634-.3187-2.3634,3.7043-3.768,2.1085-5.8793,2.1085-5.8793,2.5552-2.235,1.3414-3.8951,1.3414-3.8951a2.8417,2.8417,0,0,0,1.9163-3.3232c2.84-1.0859,1.5325-2.5552,1.5325-2.5552a1.54,1.54,0,0,0,.2564-2.4923c1.0225-4.0877-.2564-4.5357-.2564-4.5357a3.613,3.613,0,0,0,0-2.6826c-.4466,4.471-3.5121,1.1492-3.5121,1.1492a2.978,2.978,0,0,0,1.7888,1.853c-.1921,1.4688,1.2767,3.7048,1.2767,3.7048-1.3414.5113-.7016,2.4277-.7016,2.4277-1.4069.1926-1.2789,2.4927-1.2789,2.4927-2.5552.5109-2.0435,3.3209-2.0435,3.3209-2.4914.8315-1.2789,3.9616-1.2789,3.9616-3.13,1.2781-2.1717,6.3247-2.1717,6.3247-4.0891,4.1527,0,10.094,0,10.094-5.2387,1.6613-6.1967,7.858-6.1967,7.858-5.1745-4.2161-12.3305-4.4716-12.3305-4.4716-2.4272-5.0464-5.6225-5.7495-5.6225-5.7495.3205-1.5329-1.4693-1.8313-1.4693-1.8313-.8937-4.005-5.0474-5.1967-5.0474-5.1967.4046-3.8064-2.2351-4.3421-2.2351-4.3421-.5745-3.6438-2.2364-3.133-2.2364-3.133-1.15-3.0014-2.6836-1.98-2.6836-1.98-1.0849-1.9805-2.6193-1.0859-2.6193-1.0859-1.66-1.7893-4.4083-1.15-4.4083-1.15a1.9969,1.9969,0,0,0-1.853-.7038c3.642,2.0461-.3187,3.3865-.3187,3.3865,1.0217.2564,2.1717-.8942,2.1717-.8942.8952.7662,4.1529.2545,4.1529.2545a1.9126,1.9126,0,0,0,2.4281,1.1515c-.1921,1.4687,2.0443,1.7893,2.0443,1.7893-.6383,1.9169,1.9806,2.8739,1.9806,2.8739a1.8864,1.8864,0,0,0,.3833,2.8748,9.23,9.23,0,0,1,2.5561,2.3c-.703,4.8549,4.7265,5.4955,4.7265,5.4955a1.188,1.188,0,0,0,1.2147,1.0849,5.4708,5.4708,0,0,0,1.7247,3.8979c-8.8164-.4476-9.8381,8.3679-9.8381,8.3679a9.2255,9.2255,0,0,0-6.07-.7016s.1921-1.6613-2.939-1.6613-3.1944,3.3846-3.1944,3.3846l-.7662.7039s-4.1251-13.32-22.6153-21.5307c-18.273-8.1129-23.362-18.1428-23.362-18.1428s.9783,9.0918,22.4461,18.8232c18.6125,8.4349,22.4443,21.2125,22.4443,21.2125a2.77,2.77,0,0,0-1.362,1.7038c-1.7889-4.4285-8.0073-3.2373-8.0073-3.2373s-1.2771-.6808-1.2771.9372a1.1482,1.1482,0,0,0,1.448,1.2785,7.1913,7.1913,0,0,0-2.3856,5.1948s1.6175,0,2.0443-1.1824a2.5221,2.5221,0,0,1,1.5343-1.5054,1.7664,1.7664,0,0,0,0,1.4966s.51.2554,2.1293-1.873c1.6176-2.1306,2.2989-.5967,2.2989-.5967a5.4524,5.4524,0,0,0,0,9.5393s-.6813,1.532-2.2989-.5981c-1.6193-2.1284-2.1293-1.873-2.1293-1.873a1.7662,1.7662,0,0,0,0,1.4965,2.5234,2.5234,0,0,1-1.5343-1.5058c-.4268-1.1824-2.0443-1.1824-2.0443-1.1824a7.1912,7.1912,0,0,0,2.3856,5.1948,1.1474,1.1474,0,0,0-1.448,1.279c0,1.6184,1.2771.9367,1.2771.9367s6.2184,1.1917,8.0073-3.2369a2.7744,2.7744,0,0,0,1.362,1.7034s-3.8318,12.778-22.4443,21.2134c-21.4678,9.731-22.4461,18.8227-22.4461,18.8227s5.089-10.0307,23.362-18.1451c18.49-8.21,22.6153-21.5289,22.6153-21.5289l.7662.7021s.0642,3.387,3.1944,3.387,2.939-1.6614,2.939-1.6614a9.2248,9.2248,0,0,0,6.07-.7016s1.0217,8.8156,9.8381,8.3694a5.4668,5.4668,0,0,0-1.7247,3.8964,1.1856,1.1856,0,0,0-1.2147,1.0854s-5.43.64-4.7265,5.4951a9.2364,9.2364,0,0,1-2.5561,2.3,1.8868,1.8868,0,0,0-.3833,2.8752s-2.6189.9566-1.9806,2.8744c0,0-2.2364.32-2.0443,1.7883a1.913,1.913,0,0,0-2.4281,1.1515s-3.2577-.5113-4.1529.255c0,0-1.15-1.1511-2.1717-.8938,0,0,3.9607,1.34.3187,3.3838a1.9981,1.9981,0,0,0,1.853-.7016s2.7483.6392,4.4083-1.1515c0,0,1.5344.897,2.6193-1.084,0,0,1.5335,1.0216,2.6836-1.9806,0,0,1.6619.51,2.2364-3.132,0,0,2.64-.5349,2.2351-4.3431,0,0,4.1537-1.1936,5.0474-5.1967,0,0,1.79-.2974,1.4693-1.8313,0,0,3.1953-.7021,5.6225-5.75,0,0,7.156-.2567,12.3305-4.4734,0,0,.958,6.1986,6.1967,7.86,0,0-4.0891,5.9394,0,10.0936,0,0-.9585,5.048,2.1717,6.3251,0,0-1.2125,3.13,1.2789,3.9615,0,0-.5117,2.81,2.0435,3.3228,0,0-.128,2.2988,1.2789,2.4891,0,0-.64,1.9164.7016,2.4281,0,0-1.4688,2.2361-1.2767,3.7062a2.9856,2.9856,0,0,0-1.7888,1.853s3.0655-3.3231,3.5121,1.1493a3.6128,3.6128,0,0,0,0-2.6827s1.2789-.4471.2564-4.5375a1.5379,1.5379,0,0,0-.2564-2.49s1.3071-1.4693-1.5325-2.5551a2.8407,2.8407,0,0,0-1.9163-3.3224s1.2138-1.6609-1.3414-3.896c0,0,1.5958-2.11-2.1085-5.8783,0,0-.5372-1.6929.3187-2.3631,1.47-1.152,1.15-6.3892,1.15-6.3892a130.4422,130.4422,0,0,0,29.1523,3.33c.5173,2.0961,2.5463,8.7638,7.9249,11.8118,0,0-1.4918,2.6184,3.236,4.28,0,0-.575,3.259,2.3631,3.259,0,0,.5759,2.8748,3.131,2.0434,0,0,1.0227,2.0434,2.8748,1.1492,0,0,.9589,1.9177,2.5557.7039,0,0,1.5966-.2157,2.2363.4027a5.796,5.796,0,0,0,2.4272.8734,3.1353,3.1353,0,0,0,1.7257,2.2379s-2.8125-3.0036,1.4045-3.7062a3.78,3.78,0,0,0-2.6184-.0632s-.5118-1.5335-4.7278-.7039a2.4739,2.4739,0,0,0-2.6193-.7654s.3842-1.6281-2.8111-1.4073c0,0,.085-1.86-2.81-1.9155,0,0,.8738-2.4055-2.3016-2.8748,0,0,.896-4.6007-3.0014-4.7268a10.2972,10.2972,0,0,1-1.0642-3.0032c-.4757-2.2245-3.6871-5.7847-5.4959-7.6488,16.6315-.5765,34.2515-5.7532,37.481-24.36"/><path class="cls-44" d="M261.989,688.4175c0,4.628-3.1836,8.4356-7.7456,8.4356a7.1363,7.1363,0,0,1-6.2363-3.6436v3.4136h-1.9693V670.3658h1.9693v13.26a7.1746,7.1746,0,0,1,6.2363-3.61C258.8054,680.0152,261.989,683.79,261.989,688.4175Zm-2.0019,0c0-3.5776-2.4288-6.4985-5.94-6.4985a6.5339,6.5339,0,0,0,0,13.03C257.5583,694.9493,259.9871,691.9625,259.9871,688.4175Z"/><path class="cls-44" d="M281.0925,680.2125v16.4106h-1.9692v-3.3809a7.1748,7.1748,0,0,1-6.2363,3.6109c-4.562,0-7.7461-3.7749-7.7461-8.4024s3.1841-8.4355,7.7461-8.4355a7.1367,7.1367,0,0,1,6.2363,3.6436v-3.4463Zm-1.9692,8.2382a6.2447,6.2447,0,0,0-6.04-6.5317c-3.5117,0-5.94,2.9868-5.94,6.5317,0,3.5772,2.4287,6.4986,5.94,6.4986A6.2157,6.2157,0,0,0,279.1233,688.4507Z"/><path class="cls-44" d="M285.3928,688.4175a8.4628,8.4628,0,0,1,13.8511-6.5312v2.4287a7.045,7.045,0,0,0-5.4155-2.4287,6.5318,6.5318,0,0,0,0,13.063,7.045,7.045,0,0,0,5.4155-2.4287v2.4287a8.4628,8.4628,0,0,1-13.8511-6.5318Z"/><path class="cls-44" d="M310.0759,682.1158h-3.3808v14.5073h-1.9693V682.1158h-2.1006v-1.9033h2.1006V675.814h1.9693v4.3985h3.3808Z"/><path class="cls-44" d="M327.6028,689.107H314.0476a6.1158,6.1158,0,0,0,6.3018,5.875,7.9342,7.9342,0,0,0,5.58-2.2647v2.232a8.9213,8.9213,0,0,1-5.6456,1.9038c-5.1528,0-8.2382-3.8731-8.2382-8.4356s3.2168-8.4023,7.91-8.4023C324.8459,680.0152,327.7014,684.2823,327.6028,689.107Zm-13.5225-1.74h11.4219c-.4268-3.0522-2.4614-5.4482-5.5469-5.4482A5.9253,5.9253,0,0,0,314.08,687.3672Z"/><path class="cls-44" d="M338.4348,679.95v2.2319c-2.6587-.1973-4.7265,2.0347-4.7265,5.4155v9.0259H331.739V680.2125h1.9693v3.0195A5.3728,5.3728,0,0,1,338.4348,679.95Z"/><path class="cls-44" d="M341.8157,675.5518a1.3735,1.3735,0,0,1,1.3784-1.4116,1.4009,1.4009,0,0,1,1.4116,1.4116,1.3735,1.3735,0,0,1-1.4116,1.3784A1.346,1.346,0,0,1,341.8157,675.5518Zm.4267,4.6607h1.9693v16.4106h-1.9693Z"/><path class="cls-44" d="M364.8567,680.2125v16.4106h-1.9692v-3.3809a7.1744,7.1744,0,0,1-6.2364,3.6109c-4.562,0-7.7456-3.7749-7.7456-8.4024s3.1836-8.4355,7.7456-8.4355a7.1363,7.1363,0,0,1,6.2364,3.6436v-3.4463Zm-1.9692,8.2382a6.2447,6.2447,0,0,0-6.04-6.5317c-3.5117,0-5.94,2.9868-5.94,6.5317,0,3.5772,2.4287,6.4986,5.94,6.4986A6.2157,6.2157,0,0,0,362.8875,688.4507Z"/><path class="cls-42" d="M490.8787,551.3506v16.4107h-1.9693V564.38a7.1747,7.1747,0,0,1-6.2363,3.6109c-4.562,0-7.7461-3.7749-7.7461-8.4024s3.1841-8.4355,7.7461-8.4355a7.1367,7.1367,0,0,1,6.2363,3.6435v-3.4463Zm-1.9693,8.2383a6.2446,6.2446,0,0,0-6.04-6.5317c-3.5117,0-5.94,2.9868-5.94,6.5317,0,3.5772,2.4288,6.4986,5.94,6.4986A6.2157,6.2157,0,0,0,488.9094,559.5889Z"/><path class="cls-42" d="M496.3279,541.504h1.9692v26.2573h-1.9692Z"/><path class="cls-42" d="M518.5486,567.0391c0,5.12-3.9058,7.5161-7.7461,7.5161a11.4077,11.4077,0,0,1-6.1377-1.8379l.0327-2.1333a10.2963,10.2963,0,0,0,5.8755,2.1333c3.4463,0,6.0718-2.1005,6.0718-6.1376v-2.2974a7.1949,7.1949,0,0,1-6.3018,3.709c-4.562,0-7.7461-3.7749-7.7461-8.4024s3.1841-8.4355,7.7461-8.4355a7.1,7.1,0,0,1,6.2363,3.6763v-3.4791h1.9366Zm-1.9693-7.45a6.2446,6.2446,0,0,0-6.0395-6.5317c-3.5117,0-5.94,2.9868-5.94,6.5317,0,3.5772,2.4287,6.4986,5.94,6.4986A6.2157,6.2157,0,0,0,516.5793,559.5889Z"/><path class="cls-42" d="M538.8005,551.3506v16.4107h-1.9692V564.38a7.1748,7.1748,0,0,1-6.2363,3.6109c-4.562,0-7.7461-3.7749-7.7461-8.4024s3.1841-8.4355,7.7461-8.4355a7.1368,7.1368,0,0,1,6.2363,3.6435v-3.4463Zm-1.9692,8.2383a6.2446,6.2446,0,0,0-6.04-6.5317c-3.5117,0-5.94,2.9868-5.94,6.5317,0,3.5772,2.4287,6.4986,5.94,6.4986A6.2157,6.2157,0,0,0,536.8313,559.5889Z"/><path class="cls-42" d="M558.6584,560.2452H545.1033a6.1158,6.1158,0,0,0,6.3017,5.875,7.9342,7.9342,0,0,0,5.58-2.2647v2.232a8.9237,8.9237,0,0,1-5.6455,1.9038c-5.1528,0-8.2383-3.8731-8.2383-8.4356s3.2168-8.4023,7.91-8.4023C555.9016,551.1534,558.7571,555.4205,558.6584,560.2452Zm-13.5224-1.74h11.4219c-.4268-3.0522-2.4615-5.4482-5.5469-5.4482A5.9253,5.9253,0,0,0,545.136,558.5054Z"/><path class="cls-41" d="M778.554,559.9561l-.0328,9.7153H776.552V560.35c0-3.3477-1.6738-5.5142-4.3984-5.5142s-4.398,2.1665-4.398,5.7437l-.0327,9.0917h-1.9365V560.35c0-3.3477-1.6739-5.5142-4.398-5.5142s-4.3984,2.1665-4.3984,5.7437v9.0917h-1.9692V553.2608H756.99v2.4614a5.4372,5.4372,0,0,1,4.8247-2.7568,5.5963,5.5963,0,0,1,5.35,3.7085,5.8032,5.8032,0,0,1,5.4155-3.7085C775.8625,552.9654,778.554,555.4268,778.554,559.9561Z"/><path class="cls-41" d="M783.7083,548.6a1.3736,1.3736,0,0,1,1.3784-1.4117,1.4009,1.4009,0,0,1,1.4116,1.4117,1.3735,1.3735,0,0,1-1.4116,1.3784A1.346,1.346,0,0,1,783.7083,548.6Zm.4267,4.6606h1.9692v16.4106H784.135Z"/><path class="cls-41" d="M790.7981,561.4659a8.4628,8.4628,0,0,1,13.8511-6.5313v2.4287a7.0452,7.0452,0,0,0-5.4156-2.4287,6.5318,6.5318,0,0,0,0,13.063,7.0452,7.0452,0,0,0,5.4156-2.4287v2.4287a8.4628,8.4628,0,0,1-13.8511-6.5317Z"/><path class="cls-41" d="M815.9734,552.9981V555.23c-2.6587-.1972-4.7266,2.0347-4.7266,5.4156v9.0258h-1.9692V553.2608h1.9692V556.28A5.3729,5.3729,0,0,1,815.9734,552.9981Z"/><path class="cls-41" d="M817.8118,561.4332a8.3053,8.3053,0,1,1,8.3037,8.4682A8.2374,8.2374,0,0,1,817.8118,561.4332Zm14.6382,0a6.3216,6.3216,0,1,0-6.3345,6.5317A6.3117,6.3117,0,0,0,832.45,561.4332Z"/><path class="cls-41" d="M837.44,567.3409l1.3457-1.4439A5.3364,5.3364,0,0,0,842.79,568.03c1.7725,0,3.1841-1.0175,3.1841-2.6255,0-4.103-8.1729-2.7573-8.14-8.2055.0328-2.3633,2.0352-4.1685,4.792-4.2012a6.8527,6.8527,0,0,1,4.9561,2.33l-1.2144,1.4116a5.1925,5.1925,0,0,0-3.709-1.8379c-1.6411,0-2.8222.9844-2.8554,2.2974-.0655,3.8071,8.1728,2.4946,8.14,8.2383-.0332,2.5273-2.1006,4.4965-5.2187,4.4965A7.1024,7.1024,0,0,1,837.44,567.3409Z"/><path class="cls-41" d="M850.9631,561.4659a8.4625,8.4625,0,0,1,13.8506-6.5313v2.4287a7.0449,7.0449,0,0,0-5.4155-2.4287,6.5318,6.5318,0,0,0,0,13.063,7.0449,7.0449,0,0,0,5.4155-2.4287v2.4287a8.4625,8.4625,0,0,1-13.8506-6.5317Z"/><path class="cls-41" d="M868.1292,561.4332a8.3055,8.3055,0,1,1,8.3041,8.4682A8.2378,8.2378,0,0,1,868.1292,561.4332Zm14.6386,0a6.3216,6.3216,0,1,0-6.3345,6.5317A6.3117,6.3117,0,0,0,882.7678,561.4332Z"/><path class="cls-41" d="M904.9563,561.4659c0,4.6279-3.1836,8.4355-7.7456,8.4355a7.1324,7.1324,0,0,1-6.2036-3.5776v9.9121h-1.9693V553.2608h1.9693v3.38a7.1325,7.1325,0,0,1,6.2036-3.5777C901.7727,553.0635,904.9563,556.838,904.9563,561.4659Zm-2.002,0c0-3.5777-2.4287-6.4986-5.9409-6.4986a6.1262,6.1262,0,0,0-6.0063,5.81v1.3784a6.1557,6.1557,0,0,0,6.0063,5.8423C900.5256,567.9976,902.9543,565.0108,902.9543,561.4659Z"/><path class="cls-41" d="M909.2571,548.6a1.3736,1.3736,0,0,1,1.3784-1.4117,1.4009,1.4009,0,0,1,1.4116,1.4117,1.3735,1.3735,0,0,1-1.4116,1.3784A1.346,1.346,0,0,1,909.2571,548.6Zm.4267,4.6606h1.9693v16.4106h-1.9693Z"/><path class="cls-41" d="M916.3469,561.4659a8.4625,8.4625,0,0,1,13.8506-6.5313v2.4287a7.0449,7.0449,0,0,0-5.4155-2.4287,6.5318,6.5318,0,0,0,0,13.063,7.0449,7.0449,0,0,0,5.4155-2.4287v2.4287a8.4625,8.4625,0,0,1-13.8506-6.5317Z"/><path class="cls-41" d="M755.0208,587.9874a1.3736,1.3736,0,0,1,1.3784-1.4117,1.4009,1.4009,0,0,1,1.4116,1.4117,1.3735,1.3735,0,0,1-1.4116,1.3784A1.346,1.346,0,0,1,755.0208,587.9874Zm.4267,4.6606h1.9692v16.4107h-1.9692Z"/><path class="cls-41" d="M776.7815,599.8028v9.2559H774.845v-8.8946c0-3.9389-1.9366-5.9736-4.792-5.9736-2.5269,0-4.562,1.74-4.8247,5.1528v9.7154H763.259V592.648h1.9693v2.6914a5.9614,5.9614,0,0,1,5.2514-2.9868C773.8606,592.3526,776.7815,594.7486,776.7815,599.8028Z"/><path class="cls-41" d="M780.6887,606.7281l1.3457-1.4439a5.3364,5.3364,0,0,0,4.0039,2.1333c1.7725,0,3.1836-1.0175,3.1836-2.6254,0-4.1031-8.1723-2.7574-8.14-8.2056.0327-2.3633,2.0351-4.1685,4.792-4.2012a6.8524,6.8524,0,0,1,4.956,2.33l-1.2143,1.4116a5.1925,5.1925,0,0,0-3.709-1.8379c-1.6411,0-2.8223.9844-2.8555,2.2974-.0654,3.8071,8.1729,2.4941,8.14,8.2383-.0333,2.5273-2.1006,4.4966-5.2188,4.4966A7.1025,7.1025,0,0,1,780.6887,606.7281Z"/><path class="cls-41" d="M809.7688,601.5425H796.2136a6.1158,6.1158,0,0,0,6.3018,5.875,7.9345,7.9345,0,0,0,5.58-2.2646v2.2319a8.9207,8.9207,0,0,1-5.6455,1.9038c-5.1529,0-8.2383-3.873-8.2383-8.4355s3.2168-8.4024,7.91-8.4024C807.012,592.4507,809.8674,596.7178,809.7688,601.5425Zm-13.5225-1.74h11.4219c-.4267-3.0522-2.4614-5.4482-5.5469-5.4482A5.9253,5.9253,0,0,0,796.2463,599.8028Z"/><path class="cls-41" d="M812.7561,600.8531a8.4628,8.4628,0,0,1,13.8511-6.5313v2.4288a7.0448,7.0448,0,0,0-5.4155-2.4288,6.5318,6.5318,0,0,0,0,13.063,7.045,7.045,0,0,0,5.4155-2.4287v2.4287a8.4628,8.4628,0,0,1-13.8511-6.5317Z"/><path class="cls-41" d="M837.4724,594.5513h-3.3808v14.5074h-1.9693V594.5513h-2.1006V592.648h2.1006V588.25h1.9693v4.3984h3.3808Z"/><path class="cls-41" d="M839.4749,606.7281l1.3457-1.4439a5.3362,5.3362,0,0,0,4.0039,2.1333c1.7724,0,3.1836-1.0175,3.1836-2.6254,0-4.1031-8.1724-2.7574-8.14-8.2056.0327-2.3633,2.0352-4.1685,4.792-4.2012a6.8527,6.8527,0,0,1,4.9561,2.33l-1.2144,1.4116a5.1925,5.1925,0,0,0-3.709-1.8379c-1.6411,0-2.8223.9844-2.8555,2.2974-.0654,3.8071,8.1729,2.4941,8.14,8.2383-.0332,2.5273-2.1006,4.4966-5.2188,4.4966A7.1025,7.1025,0,0,1,839.4749,606.7281Z"/><path class="cls-1" d="M1095.821,674.983h-13.5551a6.1158,6.1158,0,0,0,6.3017,5.875,7.9342,7.9342,0,0,0,5.58-2.2647v2.232a8.92,8.92,0,0,1-5.6455,1.9038c-5.1528,0-8.2378-3.8731-8.2378-8.4356s3.2163-8.4023,7.91-8.4023C1093.0642,665.8912,1095.92,670.1583,1095.821,674.983Zm-13.5224-1.74h11.4219c-.4268-3.0522-2.4615-5.4482-5.5469-5.4482A5.9253,5.9253,0,0,0,1082.2986,673.2432Z"/><path class="cls-1" d="M1114.76,666.0884v16.4107h-1.9692v-3.3809a7.1743,7.1743,0,0,1-6.2364,3.6109c-4.562,0-7.7456-3.7749-7.7456-8.4024s3.1836-8.4355,7.7456-8.4355a7.1363,7.1363,0,0,1,6.2364,3.6435v-3.4463Zm-1.9692,8.2383a6.2447,6.2447,0,0,0-6.04-6.5317c-3.5117,0-5.94,2.9868-5.94,6.5317,0,3.5772,2.4287,6.4986,5.94,6.4986A6.2158,6.2158,0,0,0,1112.7908,674.3267Z"/><path class="cls-1" d="M1126.905,665.8257v2.232c-2.6587-.1973-4.7265,2.0346-4.7265,5.4155v9.0259h-1.9693V666.0884h1.9693v3.02A5.3728,5.3728,0,0,1,1126.905,665.8257Z"/><path class="cls-1" d="M1136.7844,667.9918h-3.3808v14.5073h-1.9693V667.9918h-2.1006v-1.9034h2.1006V661.69h1.9693v4.3984h3.3808Z"/><path class="cls-1" d="M1153.6223,673.2432v9.2559h-1.9365v-8.8945c0-3.939-1.9365-5.9737-4.792-5.9737-2.7246,0-4.8579,2.0347-4.8579,5.9737v8.8945h-1.9692V656.2418h1.9692v12.5708a6.0028,6.0028,0,0,1,5.2847-3.02C1150.7009,665.793,1153.6223,668.189,1153.6223,673.2432Z"/><path class="cls-1" d="M1181.6531,666.0884l-8.4351,16.6075h-1.083l-3.4463-6.9253-3.3808,6.9253h-1.1158l-8.4023-16.6075h2.1333l6.8926,13.752,2.8882-6.0064-3.8072-7.7456h2.0679l2.7568,5.875,2.7569-5.875h2.0678l-3.84,7.7456,2.9536,6.0064,6.86-13.752Z"/><path class="cls-1" d="M1183.0325,674.2608a8.3055,8.3055,0,1,1,8.3042,8.4683A8.2379,8.2379,0,0,1,1183.0325,674.2608Zm14.6386,0a6.3216,6.3216,0,1,0-6.3344,6.5317A6.3116,6.3116,0,0,0,1197.6711,674.2608Z"/><path class="cls-1" d="M1210.637,665.8257v2.232c-2.6587-.1973-4.7266,2.0346-4.7266,5.4155v9.0259h-1.9692V666.0884h1.9692v3.02A5.3728,5.3728,0,0,1,1210.637,665.8257Z"/><path class="cls-1" d="M1237.5833,672.7838l-.0328,9.7153h-1.9692v-9.3213c0-3.3477-1.6738-5.5142-4.3984-5.5142s-4.398,2.1665-4.398,5.7437l-.0327,9.0918h-1.9365v-9.3213c0-3.3477-1.6739-5.5142-4.398-5.5142s-4.3984,2.1665-4.3984,5.7437v9.0918H1214.05V666.0884h1.9693V668.55a5.4371,5.4371,0,0,1,4.8247-2.7569,5.5963,5.5963,0,0,1,5.35,3.7085,5.8032,5.8032,0,0,1,5.4155-3.7085C1234.8918,665.793,1237.5833,668.2545,1237.5833,672.7838Z"/><path class="cls-1" d="M1241.4583,680.1685l1.3457-1.4438a5.3365,5.3365,0,0,0,4.0039,2.1333c1.7724,0,3.1836-1.0176,3.1836-2.6255,0-4.103-8.1724-2.7573-8.14-8.2056.0327-2.3633,2.0352-4.1684,4.792-4.2012a6.8527,6.8527,0,0,1,4.9561,2.33l-1.2144,1.4116a5.1924,5.1924,0,0,0-3.709-1.8378c-1.6411,0-2.8223.9843-2.8555,2.2973-.0654,3.8071,8.1729,2.4942,8.14,8.2383-.0332,2.5273-2.1006,4.4966-5.2188,4.4966A7.1021,7.1021,0,0,1,1241.4583,680.1685Z"/><path class="cls-45" d="M311.5564,807.5118c0,4.6279-3.1836,8.4355-7.7456,8.4355a7.1361,7.1361,0,0,1-6.2363-3.6435v3.4135h-1.9693V789.46h1.9693v13.26a7.1747,7.1747,0,0,1,6.2363-3.61C308.3728,799.1094,311.5564,802.8839,311.5564,807.5118Zm-2.002,0c0-3.5777-2.4287-6.4986-5.94-6.4986a6.5339,6.5339,0,0,0,0,13.03C307.1257,814.0435,309.5544,811.0567,309.5544,807.5118Z"/><path class="cls-45" d="M330.2659,808.2012H316.7107a6.1158,6.1158,0,0,0,6.3018,5.875,7.9341,7.9341,0,0,0,5.5795-2.2646v2.2319a8.9232,8.9232,0,0,1-5.6455,1.9038c-5.1528,0-8.2382-3.873-8.2382-8.4355s3.2167-8.4024,7.91-8.4024C327.509,799.1094,330.3645,803.3765,330.2659,808.2012Zm-13.5225-1.74h11.4219c-.4268-3.0523-2.4614-5.4483-5.5469-5.4483A5.9253,5.9253,0,0,0,316.7434,806.4615Z"/><path class="cls-45" d="M348.8108,808.2012H335.2556a6.1158,6.1158,0,0,0,6.3018,5.875,7.9345,7.9345,0,0,0,5.58-2.2646v2.2319a8.9236,8.9236,0,0,1-5.6455,1.9038c-5.1529,0-8.2383-3.873-8.2383-8.4355s3.2168-8.4024,7.91-8.4024C346.054,799.1094,348.9094,803.3765,348.8108,808.2012Zm-13.5225-1.74H346.71c-.4268-3.0523-2.4614-5.4483-5.5469-5.4483A5.9253,5.9253,0,0,0,335.2883,806.4615Z"/><path class="cls-45" d="M358.7566,801.21h-3.3809v14.5073h-1.9692V801.21h-2.1006v-1.9033h2.1006v-4.3984h1.9692v4.3984h3.3809Z"/><path class="cls-45" d="M362.0388,789.46h1.9693v26.2573h-1.9693Z"/><path class="cls-45" d="M383.8655,808.2012H370.31a6.1158,6.1158,0,0,0,6.3018,5.875,7.9345,7.9345,0,0,0,5.58-2.2646v2.2319a8.9237,8.9237,0,0,1-5.6456,1.9038c-5.1528,0-8.2382-3.873-8.2382-8.4355s3.2168-8.4024,7.91-8.4024C381.1086,799.1094,383.9641,803.3765,383.8655,808.2012Zm-13.5225-1.74h11.4219c-.4268-3.0523-2.4614-5.4483-5.5469-5.4483A5.9253,5.9253,0,0,0,370.343,806.4615Z"/><path class="cls-45" d="M386.7219,813.3868l1.3457-1.4439a5.3364,5.3364,0,0,0,4.0039,2.1333c1.7725,0,3.1836-1.0175,3.1836-2.6255,0-4.103-8.1723-2.7573-8.14-8.2055.0327-2.3633,2.0351-4.1685,4.792-4.2012a6.8523,6.8523,0,0,1,4.956,2.33l-1.2143,1.4116a5.1925,5.1925,0,0,0-3.709-1.8379c-1.6411,0-2.8223.9844-2.8555,2.2974-.0654,3.8071,8.1729,2.4946,8.14,8.2383-.0332,2.5273-2.1006,4.4965-5.2188,4.4965A7.1024,7.1024,0,0,1,386.7219,813.3868Z"/><path class="cls-46" d="M570.5012,815.4122v16.4106H568.532V828.442a7.1743,7.1743,0,0,1-6.2363,3.6108c-4.5621,0-7.7457-3.7749-7.7457-8.4023s3.1836-8.4356,7.7457-8.4356a7.1363,7.1363,0,0,1,6.2363,3.6436v-3.4463Zm-1.9692,8.2383a6.2447,6.2447,0,0,0-6.04-6.5318c-3.5117,0-5.94,2.9868-5.94,6.5318,0,3.5771,2.4287,6.4985,5.94,6.4985A6.2157,6.2157,0,0,0,568.532,823.6505Z"/><path class="cls-46" d="M589.4729,822.567v9.2558h-1.9365v-8.8945c0-3.939-1.9365-5.9736-4.792-5.9736-2.5269,0-4.562,1.7392-4.8247,5.1528v9.7153H575.95V815.4122H577.92v2.6914a5.9614,5.9614,0,0,1,5.2514-2.9868C586.552,815.1168,589.4729,817.5128,589.4729,822.567Z"/><path class="cls-46" d="M600.3708,817.3155H596.99v14.5073h-1.9692V817.3155H592.92v-1.9033h2.1006v-4.3985H596.99v4.3985h3.3808Z"/><path class="cls-46" d="M602.3733,829.4922l1.3457-1.4438a5.3364,5.3364,0,0,0,4.0039,2.1333c1.7725,0,3.1836-1.0176,3.1836-2.6255,0-4.103-8.1724-2.7573-8.14-8.2056.0328-2.3632,2.0352-4.1684,4.792-4.2011a6.8523,6.8523,0,0,1,4.9561,2.33l-1.2144,1.4116a5.1919,5.1919,0,0,0-3.7089-1.8379c-1.6412,0-2.8223.9844-2.8555,2.2973-.0654,3.8072,8.1728,2.4947,8.14,8.2383-.0332,2.5274-2.1006,4.4966-5.2187,4.4966A7.1022,7.1022,0,0,1,602.3733,829.4922Z"/><path class="cls-42" d="M885.8245,825.1529l-.0328,9.7153h-1.9692v-9.3213c0-3.3476-1.6738-5.5141-4.3984-5.5141s-4.398,2.1665-4.398,5.7436l-.0327,9.0918h-1.9365v-9.3213c0-3.3476-1.6738-5.5141-4.398-5.5141s-4.3984,2.1665-4.3984,5.7436v9.0918h-1.9692V818.4576h1.9692v2.4614a5.437,5.437,0,0,1,4.8247-2.7568,5.5963,5.5963,0,0,1,5.35,3.7085,5.803,5.803,0,0,1,5.4155-3.7085C883.1331,818.1622,885.8245,820.6236,885.8245,825.1529Z"/><path class="cls-42" d="M890.9788,813.7969a1.3736,1.3736,0,0,1,1.3784-1.4116,1.4009,1.4009,0,0,1,1.4116,1.4116,1.3736,1.3736,0,0,1-1.4116,1.3785A1.3461,1.3461,0,0,1,890.9788,813.7969Zm.4267,4.6607h1.9693v16.4106h-1.9693Z"/><path class="cls-42" d="M905.0271,820.3609h-3.3809v14.5073H899.677V820.3609h-2.1006v-1.9033h2.1006v-4.3985h1.9692v4.3985h3.3809Z"/><path class="cls-42" d="M922.5212,827.3521H908.9661a6.1158,6.1158,0,0,0,6.3017,5.875,7.9342,7.9342,0,0,0,5.58-2.2646v2.2319a8.92,8.92,0,0,1-5.6455,1.9038c-5.1528,0-8.2378-3.873-8.2378-8.4355s3.2163-8.4024,7.91-8.4024C919.7644,818.26,922.62,822.5274,922.5212,827.3521Zm-13.5224-1.74h11.4219c-.4268-3.0523-2.4615-5.4483-5.5469-5.4483A5.9253,5.9253,0,0,0,908.9988,825.6124Z"/><path class="cls-42" d="M925.3777,832.5377l1.3457-1.4439a5.3364,5.3364,0,0,0,4.0039,2.1333c1.7725,0,3.1841-1.0176,3.1841-2.6255,0-4.103-8.1729-2.7573-8.14-8.2055.0328-2.3633,2.0352-4.1685,4.792-4.2012a6.8523,6.8523,0,0,1,4.9561,2.33l-1.2144,1.4116a5.1925,5.1925,0,0,0-3.709-1.8379c-1.6411,0-2.8222.9844-2.8554,2.2974-.0655,3.8071,8.1728,2.4941,8.14,8.2382-.0332,2.5274-2.1006,4.4966-5.2187,4.4966A7.1024,7.1024,0,0,1,925.3777,832.5377Z"/><path class="cls-44" d="M1111.012,801.7852v6.4h3.4135v1.9033h-3.4135v14.5074h-1.9366V810.0889h-2.1005v-1.9033h2.1005v-6.7612a3.0016,3.0016,0,0,1,3.0855-3.2822,4.1182,4.1182,0,0,1,2.2646.6562v2.0352a3.4009,3.4009,0,0,0-1.9038-.69A1.5026,1.5026,0,0,0,1111.012,801.7852Z"/><path class="cls-44" d="M1130.968,808.1856v16.4107h-1.97v-2.6915a5.9613,5.9613,0,0,1-5.2515,2.9869c-3.38,0-6.3017-2.396-6.3017-7.4507v-9.2554h1.9365V817.08c0,3.9385,1.9365,5.9737,4.792,5.9737,2.5273,0,4.5625-1.74,4.8247-5.1533v-9.7149Z"/><path class="cls-44" d="M1149.94,815.34v9.2559h-1.9365v-8.8946c0-3.9389-1.9365-5.9736-4.792-5.9736-2.5269,0-4.562,1.7392-4.8247,5.1528v9.7154h-1.9693V808.1856h1.9693v2.6914a5.9614,5.9614,0,0,1,5.2514-2.9868C1147.0188,807.89,1149.94,810.2862,1149.94,815.34Z"/><path class="cls-44" d="M1169.929,823.8741c0,5.12-3.9058,7.5161-7.7461,7.5161a11.4077,11.4077,0,0,1-6.1377-1.8379l.0332-2.1333a10.2933,10.2933,0,0,0,5.875,2.1333c3.4463,0,6.0717-2.1006,6.0717-6.1377v-2.2974a7.1945,7.1945,0,0,1-6.3017,3.709c-4.562,0-7.7456-3.7749-7.7456-8.4023s3.1836-8.4356,7.7456-8.4356a7.1,7.1,0,0,1,6.2363,3.6763v-3.479h1.9365Zm-1.9693-7.45a6.2446,6.2446,0,0,0-6.04-6.5317c-3.5118,0-5.94,2.9868-5.94,6.5317,0,3.5771,2.4287,6.4985,5.94,6.4985A6.2156,6.2156,0,0,0,1167.96,816.4239Z"/><path class="cls-44" d="M1175.1814,803.525a1.3736,1.3736,0,0,1,1.3784-1.4117,1.4009,1.4009,0,0,1,1.4116,1.4117,1.3735,1.3735,0,0,1-1.4116,1.3784A1.346,1.346,0,0,1,1175.1814,803.525Zm.4268,4.6606h1.9692v16.4107h-1.9692Z"/><path class="cls-44" d="M1221.0007,811.2146s-31.3951,0-33.6066,31.8389c-.5691,8.1869,16.9788,6.9524,26.8493,5.5588.799,13.47,3.45,64.14-1.01,77.5171,0,0-.3621,3.5195,9.45,3.2,9.8123-.3178,11.7707-6.3389,11.7707-6.3389s5.35,5.1685-7.3717-74.4737c9.74,1.4245,27.95,2.9228,27.5246-5.4632-1.5464-30.7337-33.6067-31.8389-33.6067-31.8389"/><path class="cls-44" d="M1170.7311,869.9813s-19.7372,0-21.13,20.0158c-.3547,5.1477,10.6751,4.3694,16.8809,3.4946.5026,8.4705,2.1691,40.3239-.6337,48.7353,0,0-.2272,2.2119,5.9418,2.0129,6.1689-.2024,7.3984-3.9879,7.3984-3.9879s3.3653,3.25-4.6327-46.8222c6.1228.8971,17.57,1.8388,17.304-3.4327-.9736-19.3215-21.1284-20.0158-21.1284-20.0158"/><path class="cls-44" d="M1122.0467,846.7666s-22.9113,0-24.5279,23.2341c-.412,5.9759,12.3915,5.0725,19.595,4.0582.5838,9.8293,2.5182,46.8031-.7372,56.5655,0,0-.2661,2.57,6.8968,2.3353,7.1611-.2305,8.5893-4.6258,8.5893-4.6258s3.9056,3.7727-5.3791-54.3476c7.1065,1.0407,20.3958,2.134,20.0855-3.9856-1.13-22.4263-24.5224-23.2341-24.5224-23.2341"/><path class="cls-46" d="M604.6218,874.7544c6.0179,3.9589,13.4579,1.5626,13.4579,1.5626,2.8623-1.7482,7.8969-.69,7.8969-.69a21.8726,21.8726,0,0,0-3.23-9.6475A5.7565,5.7565,0,0,1,627.62,868.13c3.337,3.5768,5.4031,2.3043,5.4031,2.3043,23.6881-.6365,25.28,7.5514,25.28,7.5514.6346-10.809-24.8425-8.8618-24.8425-8.8618l-.4378-.7565s-1.34.1339-4.1321-1.5893a10.4572,10.4572,0,0,0-6.7869-1.7294c-2.6733-3.63-7.1785-6.8016-14.7811-6.8016-7.9583,0-7.8322,5.3149-7.08,8.4182-3.0669-.7223-8.4483-1.2092-12.5281,2.6559-6.04,5.7241-3.0014,8.107-3.0014,8.107a1.6363,1.6363,0,0,0-1.769,1.273c-6.9934,2.5445-6.3578,7.1545-6.3578,7.1545l-1.2711.1594s-8.2658-9.5379-12.24-9.38c-3.1094.1243-8.0654,5.4027-10.0774,7.695a29.7314,29.7314,0,0,0-8.0478-1.496s-6.3578-.1594-22.4924,18.68c0,0-3.3394,7.949,19.95-16.8505,0,0,7.6326,1.7053,10.973,4.6715a20.8785,20.8785,0,0,0-4.1357,4.0964c-9.6987,12.506-4.2946,23.1053-4.2946,23.1053s3.181,6.5205,8.7462,6.5205,13.5115-10.4931,13.5115-10.4931c-5.8816,18.7585-2.8623,15.8971-2.8623,15.8971,2.0688,1.4295,6.36-21.62,6.36-21.62s.1579-4.6109,4.9283-3.022,3.9749-3.0184,3.9749-3.0184c3.3362-.638,3.3362-7.1551,3.3362-7.1551,1.4342,2.2245,6.0415,2.2245,6.0415,2.2245,1.1154,2.8626,4.6114,2.7038,4.6114,2.7038s2.2263.4772,5.2466-1.9072a8.1589,8.1589,0,0,1,6.2-1.7491c5.9426,13.3189,8.3841,16.0721,9.37,16.347l5.017,9.0876c1.8294-.2383,3.1011,2.7828,3.1011,2.7828,1.8286-.1594,2.2257.9561,2.2257.9561a2.1486,2.1486,0,0,0,1.9852,1.19c3.1275-.0365,4.1339-1.2693,4.1339-1.2693s.53,1.9316.8739,1.6665c.3464-.2642,0-2.5432,0-2.5432-1.1122-.794-2.86.4772-2.86.4772s-2.0687,1.1925-2.7042,0-2.5427-1.2712-2.5427-1.2712c-.1589-.8748-3.02-2.4655-3.02-2.4655-.5561-1.5094-5.5195-9.4571-5.5195-9.4571h-.0028c.0726-4.0049-9.2617-16.4555-9.2617-16.4555-.1589-1.908-2.3847-2.0664-2.3847-2.0664,3.496-2.2255,9.2188-3.18,9.2188-3.18-2.5413,4.6114-1.9057,11.2871-1.9057,11.2871,5.7218-12.5587,3.0184-13.9886,3.0184-13.9886s-.3169-1.59-7.9468,1.271c-14.0094,5.2531-13.5137,0-13.5137,0,6.36-2.3847,5.5638-6.1994,5.5638-6.1994,4.132-1.75,4.132-8.585,4.132-8.585a13.7448,13.7448,0,0,0,1.1265,1.1233m-32.1268,15.0916s-6.4086-4.1246-13.6412-1.5372a7.4848,7.4848,0,0,0-2.6194-2.08l.364-.0383c2.7024-.7944,7.3139-6.8368,7.3139-6.8368a49.22,49.22,0,0,0,8.5827,7.4729Z"/><path class="cls-47" d="M577.8829,657.6031a44.6292,44.6292,0,1,1-44.63-44.6293A44.628,44.628,0,0,1,577.8829,657.6031Z"/><circle class="cls-48" cx="517.1614" cy="653.2743" r="14.6627" transform="translate(-237.4566 1006.5092) rotate(-76.7175)"/><ellipse class="cls-48" cx="504.8539" cy="668.6858" rx="14.0209" ry="13.9142"/><path class="cls-48" d="M568.857,635.2939a14.0208,14.0208,0,1,1-14.0213-14.0223A14.0214,14.0214,0,0,1,568.857,635.2939Z"/><path class="cls-48" d="M559.8664,669.97A14.0212,14.0212,0,1,1,545.8458,655.95,14.02,14.02,0,0,1,559.8664,669.97Z"/><path class="cls-48" d="M534.18,685.5966a14.0207,14.0207,0,1,1-14.02-14.02A14.0208,14.0208,0,0,1,534.18,685.5966Z"/><path class="cls-48" d="M558.1533,686.6666a14.02,14.02,0,1,1-14.0209-14.02A14.02,14.02,0,0,1,558.1533,686.6666Z"/><path class="cls-48" d="M577.8829,660.5517a12.861,12.861,0,1,1-12.8611-12.86A12.8606,12.8606,0,0,1,577.8829,660.5517Z"/><path class="cls-48" d="M555.4064,649.3138a15.9648,15.9648,0,1,1-15.9645-15.9649A15.9649,15.9649,0,0,1,555.4064,649.3138Z"/><path class="cls-47" d="M656.4468,613.0345a38.6983,38.6983,0,1,1-38.6987-38.6975A38.6989,38.6989,0,0,1,656.4468,613.0345Z"/><path class="cls-48" d="M652.1305,618.7842a13.7926,13.7926,0,1,1-13.7927-13.7925A13.7925,13.7925,0,0,1,652.1305,618.7842Z"/><path class="cls-48" d="M603.8466,618.7842a12.1581,12.1581,0,1,1-12.1582-12.064A12.1113,12.1113,0,0,1,603.8466,618.7842Z"/><path class="cls-48" d="M627.77,610.8839a10.884,10.884,0,1,1-10.8838-10.883A10.8834,10.8834,0,0,1,627.77,610.8839Z"/><path class="cls-48" d="M613.2635,604.7347a11.2774,11.2774,0,1,1-11.2764-11.2776A11.2778,11.2778,0,0,1,613.2635,604.7347Z"/><path class="cls-48" d="M618.1589,633.6321a13.2353,13.2353,0,1,1-13.2351-13.2357A13.2345,13.2345,0,0,1,618.1589,633.6321Z"/><path class="cls-48" d="M639.34,636.0808a14.3135,14.3135,0,1,1-14.3138-14.3131A14.3131,14.3131,0,0,1,639.34,636.0808Z"/><path class="cls-48" d="M648.1571,593.9682a10.3326,10.3326,0,1,1-10.3334-10.3342A10.3332,10.3332,0,0,1,648.1571,593.9682Z"/></g></g></svg>