<svg xmlns="http://www.w3.org/2000/svg" viewBox="0 0 1018.66 412.9"><defs><style>.cls-1,.cls-11{fill:#3caba1;}.cls-2{fill:none;stroke:#f27243;stroke-linecap:round;stroke-linejoin:round;}.cls-3,.cls-7{fill:#eb6a7c;}.cls-12,.cls-4{fill:#ffce01;}.cls-16,.cls-5{fill:#5d5152;}.cls-22,.cls-6{fill:#2e61a1;}.cls-11,.cls-12,.cls-16,.cls-22,.cls-23,.cls-7{font-size:32.82px;font-family:Acre-Light, Acre;font-weight:300;}.cls-8{letter-spacing:0.01em;}.cls-9{letter-spacing:0em;}.cls-10{letter-spacing:0em;}.cls-13{letter-spacing:-0.01em;}.cls-14{letter-spacing:-0.01em;}.cls-15{letter-spacing:0.01em;}.cls-17{letter-spacing:0.02em;}.cls-18{letter-spacing:-0.01em;}.cls-19{letter-spacing:-0.01em;}.cls-20{letter-spacing:0em;}.cls-21{letter-spacing:0em;}.cls-23,.cls-26{fill:#f27243;}.cls-24{letter-spacing:0em;}.cls-25{letter-spacing:-0.01em;}.cls-27,.cls-28{fill:#3daaa1;}.cls-27{opacity:0.65;}.cls-28{opacity:0.5;}</style></defs><g id="Layer_2" data-name="Layer 2"><g id="Layer_12" data-name="Layer 12"><path class="cls-1" d="M696.21,371.41c-2.5-2.22-4.16-8.59-4.16-8.59-3-.28-6.66-2.88-6.66-2.88a17.76,17.76,0,0,0-5.8-7.65c.55-9.14-5.27-9.42-5.27-9.42-20-37.67-56-19.39-56-19.39s-15.24,7.48-15.79,17.73S612.26,362,612.26,362a47.89,47.89,0,0,0,6.6,6.79c-.79,1-2.52,2.22-6,1.52,0,0-5,7.12-5.27,12.15,0,0,4.16-8.21,6.93-8.24a9.36,9.36,0,0,0,8,0s.55,5,2.49,6.06c0,0,2.21,10.81,5.26,14.41,0,0,0-11.35-3.88-15.91s-1.38-3.88-1.38-3.88a2.83,2.83,0,0,0,4.08.45,31.35,31.35,0,0,0,5.61,1.89,41.88,41.88,0,0,0,18.47-.41c1,2.47,2.26,6.72.37,9.21a103.3,103.3,0,0,0-6.64,11.14s16-9.42,9.16-21.1a44.26,44.26,0,0,0,5.24-1.86,37.33,37.33,0,0,0,9.75,4.2,22.72,22.72,0,0,0,2.72,8.79,28.18,28.18,0,0,0,3.32,10c1.51-6.48-1.36-15-2.69-18.42a4.71,4.71,0,0,0,4.35-2.63,20.47,20.47,0,0,0,1.11-13.85,8.7,8.7,0,0,0,4,.67c.29.07.62.13,1,.19-.55,7.34-1.09,13.27-1.09,13.27l3-4.72a24.47,24.47,0,0,0-.34-8.35c8.81.78,6.43,20.55,6.43,20.55,2.77-4.44,3.33-12.47,3.33-12.47"/><path class="cls-2" d="M381.93,326.14s4.61-6.44,14.63-6.6,19.31-7,19.31-7"/><path class="cls-2" d="M290.79,359.88,279.13,373a6.39,6.39,0,0,0-3.92,2.55,3.61,3.61,0,0,0-3,.63c-1.16,1.06-4.76,0-4.76,0a7.15,7.15,0,0,0-3.08-.31"/><path class="cls-2" d="M318.35,410.86s10,0,13.77-25.33"/><path class="cls-3" d="M55.51,11.91a11.92,11.92,0,0,0-17-10.78C13.8,8.61,1.4,32.28,1.4,32.28A11.18,11.18,0,0,0,20,44.62C32.4,31.5,43.91,25,48,23a13.43,13.43,0,0,0,1.53-.73,11.91,11.91,0,0,0,6-10.36"/><path class="cls-3" d="M68.41,56.56A13,13,0,1,0,46,43.21S31.89,66.7,27.75,100h.09a11.84,11.84,0,0,0-.09,1.47,13.05,13.05,0,0,0,26.1,0s-.52-17.09,14.56-44.95"/><path class="cls-3" d="M122.48,95.3h0A11.27,11.27,0,0,0,121,94.16,95.14,95.14,0,0,1,97.36,65.7a10.15,10.15,0,1,0-18.08,9c17.47,32.06,30.64,37.61,30.64,37.61a10.67,10.67,0,0,0,12.56-17"/><path class="cls-4" d="M614.58,135.76a18.64,18.64,0,0,0-11.43-12.93,15.53,15.53,0,0,1-5.11-2.71c-3.91-4.21-10.53-3-10.53-3-1.5-4.82-9.32-5.12-9.32-5.12-6.62-5.71-11.43-3.23-11.43-3.23-4.81-3.23-12.93.53-12.93.53-9.92-2.41-12.33,4.21-12.33,4.21a5.3,5.3,0,0,0-5.11,2.71c-9,.3-9,14.13-9,14.13a9.28,9.28,0,0,0,.43,2.77s.58,3.45-3.63,5.35-6.82,8.22-6.82,8.22-1.05,3.61,5.24,0c0,0-1.53,5.31.87,6.72s2.71-5.52,2.71-5.52a17.08,17.08,0,0,1,5.23-9.44,20.28,20.28,0,0,0,5,3.33s.9-6.12,3.61-9.93,3.3,1.21,3.3,1.21c.3,8.12,4.81,11.22,4.81,11.22a54,54,0,0,1-2.1-8.52,17.46,17.46,0,0,0,5.11,7.22c-3.31-4.6-3.67-16.54-3.67-16.54l2.47,2.09s1.54,16.57,6.17,14.8c3.56-1.35,1.19-7.19,1.19-7.19a11.1,11.1,0,0,1-1.34-7.61c.9-6.7,4.21-1.49,4.21-1.49,5.71,12.93,3,22.56,3,22.56,3-1.21,3.61-6,3.61-6,7.89-.26,1.51-11.15.22-13.22,2,2.74,6.7,0,6.7,0,.9,4.21,6.92,2.41,6.92,2.41,1.5,4.51,5.41,3.3,5.41,3.3,3.31,4.81,20.45,7.22,20.45,7.22s10.83,2.71,8.12-7.52"/><path class="cls-4" d="M625.45,97.63a19.73,19.73,0,0,1,7.7-16.6,16.48,16.48,0,0,0,4.37-4.3c2.7-5.47,9.79-6.25,9.79-6.25.07-5.35,7.92-8,7.92-8,5-7.81,10.64-6.75,10.64-6.75,3.91-4.75,13.3-3.39,13.3-3.39,9.36-5.45,13.81.55,13.81.55a5.64,5.64,0,0,1,6,1.2c9.26-2.43,13.45,11.63,13.45,11.63a9.47,9.47,0,0,1,.4,2.94s.46,3.68,5.32,4.34,9.42,6.29,9.42,6.29,2.16,3.35-5.33,1.59c0,0,3.17,4.93,1.15,7.09S719,83.17,719,83.17a18.08,18.08,0,0,0-8.18-8,21.36,21.36,0,0,1-4.07,4.89s-2.77-5.94-6.67-9-3,2.22-3,2.22c2.15,8.34-1.49,12.87-1.49,12.87a56.4,56.4,0,0,0-.44-9.3,18.54,18.54,0,0,1-3,8.89c2-5.68-1.27-17.93-1.27-17.93L689,70.68S692.43,88,687.19,87.6c-4-.3-3.39-6.94-3.39-6.94s1.18-3.45-.94-8.15c-3-6.54-4.73-.24-4.73-.24-1.89,14.88,3.78,23.84,3.78,23.84-3.42-.31-5.48-5-5.48-5-8.1,2.14-4.91-10.87-4.23-13.36-1.16,3.38-6.82,2-6.82,2,.36,4.55-6.3,4.54-6.3,4.54-.16,5-4.5,5-4.5,5-1.91,5.89-18.6,13.53-18.6,13.53s-10.18,6-10.53-5.18"/><path class="cls-5" d="M834.73,89.23s8.56-29.77,36.9-27.29c19.8,1.73,33.06,18.84,33.06,18.84s13,15.48,22.3,5c7.31-8.26,2.7-24.41,2.7-24.41s-4-13.36-3-24.45c.91-10.72,9.18-23.2,26.47-22.77,40.68,1,20.38,51.26,20.38,51.26s-10,22.37,7.69,21.53c20.18-1,11.53-22.69,11.53-22.69s-6.53-14-3.46-22.29c2.7-7.25,11.15,4.61,11.15,4.61s27.89,40.94-6.92,54.59c-19.6,7.69-35-3.58-37.29-17.56-1.92-11.85,3.72-23.8,3.72-23.8s10.12-25.53-6-28.22c-18.65-3.11-11.09,24.6-11.09,24.6S954.67,85,933.14,99.23s-39.59-8.07-39.59-8.07S882.4,78,873.56,77.89c-18.07-.19-25,13.65-25,13.65s-5,6.92-11.54,3.46c-4.19-2.22-2.3-5.77-2.3-5.77"/><path class="cls-6" d="M164,357.7c-3.23-18.61-20.85-23.79-37.48-24.36,1.8-1.87,5-5.42,5.49-7.65a10.13,10.13,0,0,1,1.07-3c3.89-.13,3-4.73,3-4.73,3.17-.47,2.3-2.87,2.3-2.87,2.89-.06,2.81-1.92,2.81-1.92,3.19.22,2.81-1.41,2.81-1.41a2.47,2.47,0,0,0,2.62-.76c4.22.83,4.73-.71,4.73-.71a3.79,3.79,0,0,0,2.62-.06c-4.22-.7-1.41-3.7-1.41-3.7a3.13,3.13,0,0,0-1.72,2.23,5.84,5.84,0,0,0-2.43.88c-.64.62-2.24.4-2.24.4-1.59-1.21-2.55.7-2.55.7-1.86-.89-2.88,1.15-2.88,1.15-2.55-.83-3.13,2.05-3.13,2.05-2.94,0-2.36,3.26-2.36,3.26-4.73,1.66-3.24,4.28-3.24,4.28-5.38,3-7.41,9.71-7.92,11.81a130.23,130.23,0,0,0-29.16,3.33s.32-5.24-1.15-6.39c-.85-.67-.31-2.37-.31-2.37,3.7-3.76,2.1-5.87,2.1-5.87,2.56-2.24,1.35-3.9,1.35-3.9a2.84,2.84,0,0,0,1.91-3.32c2.84-1.09,1.53-2.56,1.53-2.56a1.54,1.54,0,0,0,.26-2.49c1-4.09-.26-4.54-.26-4.54a3.59,3.59,0,0,0,0-2.68c-.44,4.47-3.51,1.15-3.51,1.15a3,3,0,0,0,1.79,1.85c-.19,1.47,1.28,3.71,1.28,3.71-1.34.51-.7,2.43-.7,2.43-1.41.19-1.28,2.49-1.28,2.49-2.56.51-2,3.32-2,3.32-2.49.83-1.28,4-1.28,4-3.13,1.28-2.17,6.33-2.17,6.33-4.09,4.15,0,10.09,0,10.09-5.24,1.66-6.19,7.86-6.19,7.86-5.18-4.22-12.33-4.47-12.33-4.47-2.43-5.05-5.63-5.75-5.63-5.75.32-1.54-1.47-1.83-1.47-1.83-.89-4-5-5.2-5-5.2.4-3.81-2.24-4.34-2.24-4.34C59,320.45,57.29,321,57.29,321c-1.16-3-2.69-2-2.69-2C53.52,317,52,317.9,52,317.9c-1.66-1.79-4.41-1.15-4.41-1.15a2,2,0,0,0-1.85-.71c3.64,2-.32,3.39-.32,3.39,1,.26,2.17-.89,2.17-.89.9.76,4.16.25,4.16.25a1.9,1.9,0,0,0,2.42,1.15c-.19,1.47,2.05,1.79,2.05,1.79-.64,1.92,2,2.88,2,2.88a1.88,1.88,0,0,0,.38,2.87,9.25,9.25,0,0,1,2.56,2.3c-.7,4.86,4.73,5.5,4.73,5.5a1.19,1.19,0,0,0,1.21,1.08,5.47,5.47,0,0,0,1.73,3.9C60,339.81,59,348.63,59,348.63a9.16,9.16,0,0,0-6.07-.7s.19-1.67-2.94-1.67-3.2,3.39-3.2,3.39l-.76.7S41.85,337,23.36,328.82C5.09,320.71,0,310.68,0,310.68s1,9.09,22.45,18.82c18.61,8.44,22.44,21.21,22.44,21.21a2.79,2.79,0,0,0-1.36,1.71c-1.79-4.43-8-3.24-8-3.24s-1.28-.68-1.28.94a1.15,1.15,0,0,0,1.45,1.28,7.19,7.19,0,0,0-2.38,5.19s1.61,0,2-1.18a2.56,2.56,0,0,1,1.54-1.51,1.73,1.73,0,0,0,0,1.5s.51.26,2.12-1.87,2.3-.6,2.3-.6a5.45,5.45,0,0,0,0,9.54s-.68,1.53-2.3-.6S36.89,360,36.89,360a1.73,1.73,0,0,0,0,1.5A2.56,2.56,0,0,1,35.35,360c-.43-1.18-2-1.18-2-1.18A7.19,7.19,0,0,0,35.69,364a1.15,1.15,0,0,0-1.45,1.28c0,1.62,1.28.94,1.28.94s6.22,1.19,8-3.24a2.75,2.75,0,0,0,1.36,1.7s-3.83,12.78-22.44,21.22C1,395.63,0,404.72,0,404.72s5.09-10,23.36-18.14C41.85,378.37,46,365.05,46,365.05l.76.7s.07,3.39,3.2,3.39,2.94-1.67,2.94-1.67a9.16,9.16,0,0,0,6.07-.7s1,8.82,9.84,8.37a5.47,5.47,0,0,0-1.73,3.9,1.18,1.18,0,0,0-1.21,1.08s-5.43.64-4.73,5.5a9.25,9.25,0,0,1-2.56,2.3,1.88,1.88,0,0,0-.38,2.87s-2.62,1-2,2.88c0,0-2.24.32-2.05,1.79a1.9,1.9,0,0,0-2.42,1.15s-3.26-.51-4.16.25c0,0-1.15-1.15-2.17-.89,0,0,4,1.34.32,3.38a2,2,0,0,0,1.85-.7s2.75.64,4.41-1.15c0,0,1.54.9,2.62-1.08,0,0,1.53,1,2.69-2,0,0,1.66.51,2.23-3.13,0,0,2.64-.53,2.24-4.34,0,0,4.15-1.19,5-5.2,0,0,1.79-.29,1.47-1.83,0,0,3.2-.7,5.63-5.75,0,0,7.15-.25,12.33-4.47,0,0,1,6.2,6.19,7.86,0,0-4.09,5.94,0,10.09,0,0-1,5,2.17,6.33,0,0-1.21,3.13,1.28,4,0,0-.51,2.81,2,3.32,0,0-.13,2.3,1.28,2.49,0,0-.64,1.92.7,2.43,0,0-1.47,2.23-1.28,3.71a3,3,0,0,0-1.79,1.85s3.07-3.33,3.51,1.15a3.61,3.61,0,0,0,0-2.69s1.28-.44.26-4.53a1.54,1.54,0,0,0-.26-2.49s1.31-1.47-1.53-2.56a2.84,2.84,0,0,0-1.91-3.32s1.21-1.66-1.35-3.9c0,0,1.6-2.11-2.1-5.88,0,0-.54-1.69.31-2.36,1.47-1.15,1.15-6.39,1.15-6.39a130.23,130.23,0,0,0,29.16,3.33c.51,2.1,2.54,8.77,7.92,11.81,0,0-1.49,2.62,3.24,4.28,0,0-.58,3.26,2.36,3.26,0,0,.58,2.88,3.13,2.05,0,0,1,2,2.88,1.15,0,0,1,1.91,2.55.7,0,0,1.6-.22,2.24.4a5.84,5.84,0,0,0,2.43.88,3.13,3.13,0,0,0,1.72,2.23s-2.81-3,1.41-3.7a3.82,3.82,0,0,0-2.62-.07s-.51-1.53-4.73-.7a2.48,2.48,0,0,0-2.62-.77s.38-1.62-2.81-1.4c0,0,.08-1.86-2.81-1.92,0,0,.87-2.4-2.3-2.87,0,0,.89-4.6-3-4.73a10.13,10.13,0,0,1-1.07-3c-.47-2.23-3.69-5.79-5.49-7.65,16.63-.58,34.25-5.75,37.48-24.36"/><text class="cls-7" transform="translate(7.35 160.98)">ba<tspan class="cls-8" x="40.5" y="0">c</tspan><tspan class="cls-9" x="58.23" y="0">t</tspan><tspan x="67.16" y="0">e</tspan><tspan class="cls-10" x="85.7" y="0">r</tspan><tspan x="95.78" y="0">ia</tspan></text><text class="cls-11" transform="translate(237.39 32.12)">algae</text><text class="cls-12" transform="translate(516.34 34.03)">mic<tspan class="cls-13" x="54.26" y="0">r</tspan><tspan x="63.94" y="0">os</tspan><tspan class="cls-14" x="97.09" y="0">c</tspan><tspan x="114.26" y="0">opic</tspan></text><text class="cls-12" transform="translate(516.34 73.42)">inse<tspan class="cls-15" x="58.88" y="0">c</tspan><tspan x="76.64" y="0">ts</tspan></text><text class="cls-16" transform="translate(842.73 146.86)">ea<tspan class="cls-17" x="38.8" y="0">r</tspan><tspan x="49.56" y="0">t</tspan><tspan class="cls-18" x="58.65" y="0">h</tspan><tspan class="cls-19" x="76.97" y="0">w</tspan><tspan class="cls-20" x="102.77" y="0">o</tspan><tspan class="cls-21" x="122.53" y="0">r</tspan><tspan class="cls-20" x="132.64" y="0">ms</tspan></text><text class="cls-22" transform="translate(56.92 280.08)">beetles</text><text class="cls-23" transform="translate(317.02 296.18)">a<tspan class="cls-24" x="20.25" y="0">n</tspan><tspan x="38.86" y="0">ts</tspan></text><text class="cls-11" transform="translate(623.61 299.23)">mi<tspan class="cls-25" x="36.93" y="0">t</tspan><tspan x="45.82" y="0">es</tspan></text><text class="cls-7" transform="translate(869.93 288.95)">fun<tspan class="cls-25" x="46.51" y="0">g</tspan><tspan x="66.57" y="0">i</tspan></text><path class="cls-3" d="M985,275.57s-31.39,0-33.6,31.84c-.57,8.19,17,6.95,26.84,5.56.8,13.47,3.45,64.14-1,77.52,0,0-.36,3.52,9.45,3.2s11.78-6.34,11.78-6.34,5.35,5.17-7.38-74.48c9.74,1.43,28,2.93,27.53-5.46C1017.1,276.68,985,275.57,985,275.57"/><path class="cls-3" d="M934.77,334.34s-19.73,0-21.13,20c-.35,5.14,10.68,4.36,16.88,3.49.51,8.47,2.17,40.32-.63,48.74,0,0-.23,2.21,5.94,2s7.4-4,7.4-4,3.36,3.25-4.63-46.82c6.12.89,17.57,1.84,17.3-3.43-1-19.33-21.13-20-21.13-20"/><path class="cls-3" d="M886.09,311.12s-22.91,0-24.53,23.24c-.41,6,12.39,5.07,19.59,4.06.59,9.83,2.52,46.8-.73,56.56,0,0-.27,2.57,6.89,2.34s8.59-4.63,8.59-4.63,3.91,3.77-5.38-54.35c7.11,1.05,20.4,2.14,20.09-4-1.13-22.43-24.52-23.24-24.52-23.24"/><path class="cls-26" d="M368.66,339.11c6,4,13.46,1.57,13.46,1.57,2.86-1.75,7.9-.69,7.9-.69a21.9,21.9,0,0,0-3.23-9.65,5.73,5.73,0,0,1,4.87,2.15c3.34,3.58,5.4,2.3,5.4,2.3,23.69-.63,25.28,7.55,25.28,7.55.64-10.81-24.84-8.86-24.84-8.86l-.44-.75s-1.34.13-4.13-1.59a10.4,10.4,0,0,0-6.79-1.73c-2.67-3.63-7.17-6.8-14.78-6.8-7.95,0-7.83,5.31-7.08,8.41-3.06-.72-8.45-1.21-12.52,2.66-6,5.72-3,8.11-3,8.11a1.64,1.64,0,0,0-1.77,1.27c-7,2.54-6.35,7.15-6.35,7.15l-1.27.16s-8.27-9.53-12.24-9.38c-3.11.13-8.07,5.41-10.08,7.7a29.94,29.94,0,0,0-8.05-1.5s-6.36-.16-22.49,18.68c0,0-3.34,7.95,19.95-16.85,0,0,7.63,1.71,11,4.67a21,21,0,0,0-4.14,4.1C303.59,370.3,309,380.9,309,380.9s3.18,6.52,8.75,6.52,13.51-10.5,13.51-10.5c-5.88,18.76-2.86,15.9-2.86,15.9,2.06,1.43,6.36-21.62,6.36-21.62s.15-4.61,4.92-3,4-3,4-3C347,364.52,347,358,347,358c1.44,2.23,6,2.23,6,2.23,1.11,2.86,4.61,2.7,4.61,2.7s2.22.48,5.24-1.91a8.15,8.15,0,0,1,6.2-1.74c5.95,13.31,8.39,16.07,9.37,16.34l5,9.09c1.83-.24,3.1,2.78,3.1,2.78,1.83-.16,2.23,1,2.23,1a2.13,2.13,0,0,0,2,1.19c3.13,0,4.14-1.27,4.14-1.27s.53,1.93.87,1.67,0-2.55,0-2.55c-1.11-.79-2.86.48-2.86.48s-2.07,1.19-2.7,0-2.55-1.27-2.55-1.27c-.15-.88-3-2.47-3-2.47-.55-1.51-5.52-9.45-5.52-9.45h0c.07-4-9.26-16.46-9.26-16.46-.16-1.91-2.38-2.07-2.38-2.07,3.49-2.22,9.21-3.18,9.21-3.18-2.54,4.62-1.9,11.29-1.9,11.29,5.72-12.56,3-14,3-14s-.32-1.59-7.95,1.27c-14,5.26-13.51,0-13.51,0,6.36-2.38,5.56-6.2,5.56-6.2,4.13-1.74,4.13-8.58,4.13-8.58a13.23,13.23,0,0,0,1.13,1.12m-32.13,15.09s-6.41-4.12-13.64-1.53a7.35,7.35,0,0,0-2.62-2.08l.37,0c2.7-.8,7.31-6.84,7.31-6.84a49.32,49.32,0,0,0,8.58,7.48Z"/><path class="cls-27" d="M341.92,122a44.63,44.63,0,1,1-44.63-44.63A44.63,44.63,0,0,1,341.92,122Z"/><circle class="cls-28" cx="281.2" cy="117.63" r="14.66" transform="translate(102.11 364.29) rotate(-76.72)"/><ellipse class="cls-28" cx="268.9" cy="133.04" rx="14.02" ry="13.91"/><path class="cls-28" d="M332.9,99.65a14,14,0,1,1-14-14A14,14,0,0,1,332.9,99.65Z"/><path class="cls-28" d="M323.91,134.33a14,14,0,1,1-14-14A14,14,0,0,1,323.91,134.33Z"/><path class="cls-28" d="M298.22,150a14,14,0,1,1-14-14A14,14,0,0,1,298.22,150Z"/><path class="cls-28" d="M322.19,151a14,14,0,1,1-14-14A14,14,0,0,1,322.19,151Z"/><path class="cls-28" d="M341.92,124.91a12.86,12.86,0,1,1-12.86-12.86A12.86,12.86,0,0,1,341.92,124.91Z"/><path class="cls-28" d="M319.45,113.67a16,16,0,1,1-16-16A16,16,0,0,1,319.45,113.67Z"/><path class="cls-27" d="M420.49,77.39a38.7,38.7,0,1,1-38.7-38.69A38.7,38.7,0,0,1,420.49,77.39Z"/><path class="cls-28" d="M416.17,83.14a13.79,13.79,0,1,1-13.79-13.79A13.79,13.79,0,0,1,416.17,83.14Z"/><path class="cls-28" d="M367.89,83.14a12.16,12.16,0,1,1-12.16-12.06A12.12,12.12,0,0,1,367.89,83.14Z"/><path class="cls-28" d="M391.81,75.24a10.89,10.89,0,1,1-10.88-10.88A10.89,10.89,0,0,1,391.81,75.24Z"/><path class="cls-28" d="M377.3,69.09A11.28,11.28,0,1,1,366,57.82,11.27,11.27,0,0,1,377.3,69.09Z"/><path class="cls-28" d="M382.2,98A13.24,13.24,0,1,1,369,84.75,13.24,13.24,0,0,1,382.2,98Z"/><path class="cls-28" d="M403.38,100.44a14.32,14.32,0,1,1-14.31-14.31A14.31,14.31,0,0,1,403.38,100.44Z"/><path class="cls-28" d="M412.2,58.33A10.34,10.34,0,1,1,401.86,48,10.34,10.34,0,0,1,412.2,58.33Z"/></g></g></svg>