<svg xmlns="http://www.w3.org/2000/svg" viewBox="0 0 750.43 674.75"><defs><style>.cls-1,.cls-2{fill:#2e61a1;}.cls-2,.cls-8{font-size:40px;}.cls-2{font-family:Acre-Semibold, Acre;font-weight:600;}.cls-3{letter-spacing:-0.02em;}.cls-4{letter-spacing:-0.03em;}.cls-5{letter-spacing:-0.02em;}.cls-6{letter-spacing:-0.1em;}.cls-7{fill:#5c5052;}.cls-8{fill:#fff;font-family:Acre-Light, Acre;font-weight:300;}.cls-9{letter-spacing:-0.02em;}.cls-10{letter-spacing:0em;}.cls-11{letter-spacing:-0.01em;}.cls-12{letter-spacing:-0.03em;}.cls-13{letter-spacing:0em;}.cls-14{letter-spacing:0em;}.cls-15{letter-spacing:-0.01em;}.cls-16{letter-spacing:-0.02em;}.cls-17{letter-spacing:-0.03em;}.cls-18{letter-spacing:-0.01em;}.cls-19{letter-spacing:-0.02em;}.cls-20{letter-spacing:-0.02em;}.cls-21{letter-spacing:0em;}.cls-22{letter-spacing:-0.01em;}.cls-23{letter-spacing:-0.01em;}</style></defs><g id="Layer_2" data-name="Layer 2"><g id="Layer_6" data-name="Layer 6"><path class="cls-1" d="M742.16,377a1115.42,1115.42,0,0,0-145.39,18.27s-120.59,28.71-300.44,0C185.61,377.54,84,381.63,22.16,387.39V674.75h720Z"/><text class="cls-2" transform="translate(171.43 34)">filt<tspan class="cls-3" x="47" y="0">r</tspan><tspan x="59.92" y="0">ation: “the kidn</tspan><tspan class="cls-4" x="347.03" y="0">e</tspan><tspan class="cls-5" x="368.27" y="0">y</tspan><tspan x="389.19" y="0">s</tspan><tspan class="cls-6" x="406.95" y="0">”</tspan></text><path class="cls-7" d="M603.27,290.88S580.8,276.57,571,262.63c0,0,11.71-23.11,28.56-27.51s25.27,5.14,25.27,5.14S623.7,285,603.27,290.88Z"/><path class="cls-7" d="M586.05,223.87s28.12-4.89,30.27-11.33a16.2,16.2,0,0,0,0-11.18s-9.49-12.7-37.62-10.17C578.7,191.19,576.54,210.45,586.05,223.87Z"/><path class="cls-7" d="M517.22,233.9s6.93,21.91,15.2,23.44a32.85,32.85,0,0,0,14.26-.28s16-7.75,12.05-29.72C558.73,227.34,534.1,226.12,517.22,233.9Z"/><path class="cls-7" d="M645.33,240.68s43.11-13.42,43.75-32.3S658,194.46,658,194.46,632.5,199,634.55,224.78C636.08,244.05,645.33,240.68,645.33,240.68Z"/><path class="cls-7" d="M377.62,278.25s43.93,11.67,60-2.4-12.17-26.37-12.17-26.37-23.18-9.49-42.92,11.18C367.77,276.12,377.62,278.25,377.62,278.25Z"/><path class="cls-7" d="M495.56,187.32s26.28,30,49.91,26.25,10.4-26.83,10.4-26.83S544.56,168.26,513,175.56C489.31,181,495.56,187.32,495.56,187.32Z"/><path class="cls-7" d="M677.66,289.47s8.51-24.8,38-52.18l-7.61-5.47s-40.58,5.47-50.08,28.83,0,31.8,0,31.8S670.05,294.93,677.66,289.47Z"/><path class="cls-7" d="M471.45,274.33s27.52,9.24,48.71,1c0,0,4.81-3.88-8-12.76a58.17,58.17,0,0,1-14.23-13.65s-19.73-19.88-29.52,6.92C461.91,273.56,471.45,274.33,471.45,274.33Z"/><path class="cls-7" d="M248.5,207.73S273,219.86,284.8,232.8c0,0-8.14,24-24.22,29.95S234.71,260,234.71,260,229.09,215.44,248.5,207.73Z"/><path class="cls-7" d="M158.69,192s-29.08,8-30.35,15a17.68,17.68,0,0,0,1.8,11.88s12.13,12.56,41.62,7.1C171.76,226,171,205.35,158.69,192Z"/><path class="cls-7" d="M342.49,256.37s-10.16-21.11-18.59-21.87a32.56,32.56,0,0,0-14.14,1.59s-14.69,9.17-7.49,30.63C302.27,266.72,326.91,265.66,342.49,256.37Z"/><path class="cls-7" d="M333.58,193.44s-41.18-16.76-59.8-4.77,6.92,27.51,6.92,27.51,21.08,12.14,44.6-6C342.89,196.7,333.58,193.44,333.58,193.44Z"/><path class="cls-7" d="M474.49,199.47s-45.39-7.54-59.26,7.91,16,25.07,16,25.07,24.45,7.29,41-15.06C484.57,200.68,474.49,199.47,474.49,199.47Z"/><path class="cls-7" d="M110.83,205.89s-36.1-9.95-49.33,2,10,22.48,10,22.48,19,8.09,35.28-9.53C118.92,207.7,110.83,205.89,110.83,205.89Z"/><path class="cls-7" d="M31.22,273s37.3,6.43,48.7-6.74-13.18-21.37-13.18-21.37-20.1-6.22-33.66,12.83C22.93,272,31.22,273,31.22,273Z"/><path class="cls-7" d="M193.41,218.94s-5.06,27.19-32,59.2l9,5.06s42.25-9.81,48.61-35.57-5.11-33.8-5.11-33.8S200.62,212.38,193.41,218.94Z"/><path class="cls-7" d="M121,235.4s-17.5,21-10.34,40c0,0,4.34,4.69,18.65-4.29a82.32,82.32,0,0,1,21-9.25s30.37-12.64-3.88-25.65C123.75,227.66,121,235.4,121,235.4Z"/><path class="cls-7" d="M381.88,212s-28.71-6.64-48.52,3.47c0,0-4.19,4.31,9.9,11.94a63.41,63.41,0,0,1,16.18,12.24s22.57,17.92,28.27-9.59C391.48,211.9,381.88,212,381.88,212Z"/><path class="cls-7" d="M130.52,84.22s22.45,14.3,32.29,28.24c0,0-11.7,23.11-28.55,27.51S109,134.83,109,134.83,110.08,90.09,130.52,84.22Z"/><path class="cls-7" d="M147.73,151.23s-28.11,4.88-30.27,11.32a16.2,16.2,0,0,0,0,11.18s9.5,12.7,37.62,10.17C155.08,183.9,157.25,164.64,147.73,151.23Z"/><path class="cls-7" d="M216.56,141.19s-6.93-21.9-15.19-23.43a33,33,0,0,0-14.27.27s-16,7.75-12,29.73C175.05,147.76,199.68,149,216.56,141.19Z"/><path class="cls-7" d="M88.45,134.42s-43.11,13.41-43.74,32.3,31.06,13.91,31.06,13.91,25.51-4.53,23.46-30.31C97.7,131.05,88.45,134.42,88.45,134.42Z"/><path class="cls-7" d="M349,94s-43.93-11.67-60,2.39,12.17,26.37,12.17,26.37,23.18,9.49,42.93-11.18C358.79,96.15,349,94,349,94Z"/><path class="cls-7" d="M238.22,187.77s-26.28-30-49.91-26.25-10.41,26.83-10.41,26.83,11.32,18.48,42.93,11.19C244.47,194.09,238.22,187.77,238.22,187.77Z"/><path class="cls-7" d="M46.34,81.85S36,112.05,0,145.4l9.26,6.66s49.44-6.66,61-35.1,0-38.74,0-38.74S55.6,75.19,46.34,81.85Z"/><path class="cls-7" d="M373,180.59s-11.11-24.16-6.85-59.85l-10.23-1.08s-29.31,22.67-20.07,46.09S359,191.84,359,191.84,370.7,188.48,373,180.59Z"/><path class="cls-7" d="M262.32,100.77s-27.51-9.24-48.7-1c0,0-4.81,3.89,8,12.76a58.26,58.26,0,0,1,14.24,13.66s19.72,19.87,29.51-6.92C271.87,101.54,262.32,100.77,262.32,100.77Z"/><path class="cls-7" d="M478.07,164.54s-24.45-12.13-36.3-25.07c0,0,8.15-24,24.22-29.95s25.88,2.77,25.88,2.77S497.48,156.83,478.07,164.54Z"/><path class="cls-7" d="M567.88,180.25s29.09-8,30.35-15a17.71,17.71,0,0,0-1.8-11.88s-12.13-12.56-41.61-7.1C554.82,146.24,555.62,166.93,567.88,180.25Z"/><path class="cls-7" d="M384.08,115.9s10.16,21.11,18.6,21.87a32.45,32.45,0,0,0,14.13-1.58s14.69-9.18,7.49-30.64C424.3,105.55,399.67,106.61,384.08,115.9Z"/><path class="cls-7" d="M393,178.83s41.18,16.76,59.8,4.77-6.93-27.51-6.93-27.51S424.79,144,401.28,162C383.69,175.57,393,178.83,393,178.83Z"/><path class="cls-7" d="M252.09,172.8s45.38,7.54,59.26-7.91-16-25.07-16-25.07-24.45-7.29-40.95,15.06C242,171.6,252.09,172.8,252.09,172.8Z"/><path class="cls-7" d="M608.54,180.5s36.11,9.94,49.33-2-10-22.49-10-22.49-19.06-8.08-35.28,9.53C600.46,178.68,608.54,180.5,608.54,180.5Z"/><path class="cls-7" d="M685.66,177.16s22.61,7.87,40,.87c0,0,4-3.31-6.61-10.88a48.86,48.86,0,0,1-11.69-11.64s-16.22-16.94-24.26,5.9C677.82,176.5,685.66,177.16,685.66,177.16Z"/><path class="cls-7" d="M688.15,113.35s-37.3-6.43-48.69,6.74,13.17,21.37,13.17,21.37,20.1,6.22,33.66-12.84C696.44,114.37,688.15,113.35,688.15,113.35Z"/><path class="cls-7" d="M533.17,153.33s5.06-27.19,32.05-59.2l-9-5.06S514,98.88,507.65,124.64s5.1,33.8,5.1,33.8S526,159.89,533.17,153.33Z"/><path class="cls-7" d="M605.62,136.87s17.49-21,10.34-40.05c0,0-4.34-4.69-18.65,4.29a82.32,82.32,0,0,1-21,9.25S546,123,580.2,136C602.82,144.61,605.62,136.87,605.62,136.87Z"/><path class="cls-1" d="M58.16,329.06h0s-6.49-10.24-9.45-16.74c-3.21,6.67-9.45,16.74-9.45,16.74h0a2.55,2.55,0,0,0-.14.24,11,11,0,1,0,19-.24Z"/><path class="cls-1" d="M110.91,319.55h0s-6.49-10.24-9.45-16.73C98.26,309.48,92,319.55,92,319.55h0c0,.08-.1.16-.14.24a11,11,0,1,0,19-.24Z"/><path class="cls-1" d="M169.68,339.63h0s-6.5-10.24-9.46-16.73c-3.2,6.66-9.45,16.73-9.45,16.73h0l-.15.24a11,11,0,1,0,19-.24Z"/><path class="cls-1" d="M211.76,316.43h0s-6.49-10.24-9.46-16.73c-3.2,6.66-9.44,16.73-9.44,16.73h0l-.15.24a11,11,0,1,0,19-.24Z"/><path class="cls-1" d="M252.56,329.06h0s-6.49-10.24-9.45-16.74c-3.21,6.67-9.46,16.74-9.46,16.74h0a1.38,1.38,0,0,0-.14.24,10.82,10.82,0,0,0-1.42,5.4,11,11,0,1,0,20.45-5.64Z"/><path class="cls-1" d="M306.37,319.55h0s-6.5-10.24-9.45-16.73c-3.21,6.66-9.46,16.73-9.46,16.73h0l-.15.24a11,11,0,1,0,19-.24Z"/><path class="cls-1" d="M359.8,342.31h0s-6.5-10.25-9.46-16.74c-3.21,6.67-9.45,16.74-9.45,16.74h0a1.88,1.88,0,0,0-.14.24,11,11,0,1,0,19-.24Z"/><path class="cls-1" d="M412.53,325.62h0s-6.5-10.25-9.45-16.74c-3.21,6.67-9.46,16.74-9.46,16.74h0l-.15.23a11,11,0,1,0,19-.23Z"/><path class="cls-1" d="M694.93,343.26h0s6.5-10.25,9.45-16.74c3.22,6.66,9.46,16.74,9.46,16.74h0l.15.23a11,11,0,1,1-19-.23Z"/><path class="cls-1" d="M642.19,333.75h0s6.5-10.24,9.46-16.73c3.21,6.66,9.45,16.73,9.45,16.73h0c0,.08.09.15.14.24a11,11,0,1,1-19-.24Z"/><path class="cls-1" d="M583.42,353.83h0s6.49-10.24,9.45-16.74c3.21,6.67,9.45,16.74,9.45,16.74h0c.05.08.1.15.14.23a11,11,0,1,1-19-.23Z"/><path class="cls-1" d="M541.33,330.63h0s6.5-10.24,9.46-16.74c3.21,6.67,9.45,16.74,9.45,16.74h0l.15.23a11,11,0,1,1-19-.23Z"/><path class="cls-1" d="M485.37,353.83h0s6.49-10.24,9.44-16.74c3.22,6.67,9.46,16.74,9.46,16.74h0c.06.08.1.15.15.23a11,11,0,1,1-19-.23Z"/><path class="cls-1" d="M436,330.63h0s6.5-10.24,9.45-16.74c3.22,6.67,9.46,16.74,9.46,16.74h0l.15.23a11,11,0,1,1-19-.23Z"/><path class="cls-1" d="M340.56,339.82h0s6.5-10.24,9.45-16.74c3.22,6.67,9.46,16.74,9.46,16.74h0c0,.07.1.15.14.23a11,11,0,1,1-19-.23Z"/><text class="cls-8" transform="translate(66.17 452.01)"><tspan class="cls-9">h</tspan><tspan class="cls-10" x="22.24" y="0">ealt</tspan><tspan class="cls-11" x="89.64" y="0">h</tspan><tspan class="cls-12" x="112.08" y="0">y</tspan><tspan class="cls-13" x="130.84" y="0"> </tspan><tspan class="cls-14" x="144.64" y="0">s</tspan><tspan x="160.84" y="0">oils a</tspan><tspan class="cls-3" x="258.8" y="0">r</tspan><tspan x="270.16" y="0">e full </tspan><tspan class="cls-15" x="372.32" y="0">o</tspan><tspan x="395.88" y="0">f carbo</tspan><tspan class="cls-16" x="527.47" y="0">n</tspan><tspan class="cls-17" x="549.4" y="0">-</tspan><tspan x="564.68" y="0">rich </tspan><tspan x="30.62" y="64">o</tspan><tspan class="cls-3" x="54.7" y="64">r</tspan><tspan x="66.06" y="64">ganic </tspan><tspan class="cls-18" x="183.18" y="64">m</tspan><tspan x="217.54" y="64">at</tspan><tspan class="cls-3" x="253.3" y="64">t</tspan><tspan x="263.58" y="64">er t</tspan><tspan class="cls-18" x="323.22" y="64">h</tspan><tspan x="345.46" y="64">at </tspan><tspan class="cls-19" x="395.02" y="64">h</tspan><tspan x="417.26" y="64">olds on </tspan><tspan class="cls-5" x="565.85" y="64">t</tspan><tspan x="576.13" y="64">o </tspan><tspan x="4.8" y="128">con</tspan><tspan class="cls-3" x="72.8" y="128">t</tspan><tspan x="83.08" y="128">ami</tspan><tspan class="cls-18" x="152.76" y="128">n</tspan><tspan x="174.96" y="128">an</tspan><tspan class="cls-11" x="222.44" y="128">t</tspan><tspan class="cls-13" x="233.12" y="128">s, </tspan><tspan class="cls-20" x="269.88" y="128">s</tspan><tspan class="cls-5" x="285.52" y="128">t</tspan><tspan class="cls-21" x="295.8" y="128">oppi</tspan><tspan class="cls-19" x="379.2" y="128">n</tspan><tspan x="401.4" y="128">g t</tspan><tspan class="cls-18" x="450.96" y="128">h</tspan><tspan x="473.2" y="128">em f</tspan><tspan class="cls-3" x="555.63" y="128">r</tspan><tspan x="566.99" y="128">om </tspan><tspan x="-9.64" y="192">leachi</tspan><tspan class="cls-18" x="100.68" y="192">n</tspan><tspan x="122.88" y="192">g d</tspan><tspan class="cls-19" x="186.04" y="192">o</tspan><tspan x="209.52" y="192">wn in</tspan><tspan class="cls-3" x="310.8" y="192">t</tspan><tspan x="321.08" y="192">o t</tspan><tspan class="cls-19" x="370.04" y="192">h</tspan><tspan x="392.28" y="192">e</tspan><tspan class="cls-22" x="414.88" y="192"> </tspan><tspan class="cls-19" x="428.36" y="192">w</tspan><tspan x="459.6" y="192">a</tspan><tspan class="cls-5" x="484.28" y="192">t</tspan><tspan x="494.56" y="192">er </tspan><tspan class="cls-3" x="543.12" y="192">t</tspan><tspan x="553.4" y="192">abl</tspan><tspan class="cls-23" x="611.8" y="192">e</tspan><tspan x="634.2" y="192">.</tspan></text><path class="cls-1" d="M636.4,92.91a42.49,42.49,0,0,1-.44,7.69,29.68,29.68,0,0,1-2.24,7.48,32.2,32.2,0,0,0-2.45,6.32,17.37,17.37,0,0,0,.07,6.42c.21,1.11.45,2.23.76,3.36s.64,2.27,1,3.28a22.36,22.36,0,0,0,3.25,5.82,22,22,0,0,0,2.24,2.49,33.3,33.3,0,0,0,2.62,2.25,30.06,30.06,0,0,1,2.89,2.53c.23.24.46.49.68.74l.58.66c.39.43.79.85,1.2,1.28,3.26,3.38,7,6.45,10.47,10a32.89,32.89,0,0,1,8.24,12.57,23.5,23.5,0,0,1,1.22,7.58,18.76,18.76,0,0,1-1.59,7.57,15.79,15.79,0,0,1-4.85,6.07,35.92,35.92,0,0,1-6.42,3.85c-4.4,2.15-9,3.79-12.75,6.47a33.7,33.7,0,0,0-9.25,10.48,23,23,0,0,0-3,13.49c.45,4.7,2.17,9.24,3.79,13.78s3.25,9.23,3.39,14.18-1.35,9.72-3.16,14.2-4,8.81-5.6,13.35a34,34,0,0,0-1.74,7,21,21,0,0,0,.28,7.2,21.32,21.32,0,0,1-.42-7.21,33.64,33.64,0,0,1,1.61-7.08c1.52-4.6,3.63-9,5.34-13.47s3.07-9.19,2.83-14-1.89-9.32-3.6-13.82-3.56-9.07-4.14-14A24.55,24.55,0,0,1,630.14,207a35.43,35.43,0,0,1,9.57-11.28c4.08-3,8.69-4.73,12.92-6.91s8.28-4.77,9.93-8.91a18.48,18.48,0,0,0,0-13.18,30.14,30.14,0,0,0-7.77-11.28c-3.36-3.31-7.17-6.3-10.69-9.81-.44-.43-.88-.88-1.31-1.34l-.63-.69-.56-.58a28.15,28.15,0,0,0-2.61-2.19c-.95-.73-2-1.52-2.92-2.41a26.4,26.4,0,0,1-6.58-9.56c-.49-1.24-.86-2.39-1.23-3.59s-.68-2.43-.95-3.69a21,21,0,0,1-.3-8,34.93,34.93,0,0,1,2.49-7.27,25,25,0,0,0,1.71-6.42,37.18,37.18,0,0,0,.16-6.77Z"/><path class="cls-1" d="M522.49,95.23a27,27,0,0,0-10.15,6.86,37.72,37.72,0,0,0-6.94,10.58,51.32,51.32,0,0,0-3.64,12.39,100.11,100.11,0,0,0-1.25,13.14c-.18,4.46-.13,8.87-.23,13.47a23.9,23.9,0,0,1-1.17,7.13,19.56,19.56,0,0,1-3.85,6.2c-1.53,1.76-3.15,3.31-4.54,4.95a17.82,17.82,0,0,0-1.87,2.54,20.43,20.43,0,0,0-1.48,2.77,25.13,25.13,0,0,0-1.44,12.56,45.19,45.19,0,0,0,3.56,12.59c.85,2,1.9,4,2.91,6s2,4,3.11,5.94,2.17,3.89,3.37,5.77c.6,1,1.2,1.81,1.87,2.77a8.5,8.5,0,0,1,.86,1.63l.62,1.57c1.67,4.18,3.26,8.4,5,12.5a53.34,53.34,0,0,0,6.52,11.61,106.9,106.9,0,0,0,9.08,9.87,62.67,62.67,0,0,1,8.7,10.32A25,25,0,0,1,535.85,281a24.85,24.85,0,0,0-4.58-12.46,62.73,62.73,0,0,0-8.87-10.05,109.35,109.35,0,0,1-9.39-9.73,54.24,54.24,0,0,1-6.92-11.68c-1.87-4.12-3.54-8.27-5.3-12.39l-.65-1.55a6.67,6.67,0,0,0-.74-1.34c-.64-.86-1.34-1.83-2-2.76-1.27-1.89-2.44-3.83-3.57-5.79s-2.2-3.94-3.27-5.92-2.16-4-3.11-6.05a47.92,47.92,0,0,1-4-13.17,27.75,27.75,0,0,1,1.32-13.95,24.06,24.06,0,0,1,1.61-3.21,20.5,20.5,0,0,1,2.06-2.93c1.48-1.81,3.07-3.42,4.44-5.08a16.15,16.15,0,0,0,3.12-5.24,20.42,20.42,0,0,0,.84-6.15c0-4.38-.16-9-.08-13.47.14-9.05,1-18.42,4.62-27.18a42.39,42.39,0,0,1,7.52-12,31.75,31.75,0,0,1,11.81-8.35Z"/><path class="cls-1" d="M489.59,199.47a17.2,17.2,0,0,1-.21,6.82,21.31,21.31,0,0,1-2.66,6.15,53.35,53.35,0,0,1-3.77,5.21l-2,2.46-.49.61-.53.64c-.35.4-.67.77-.94,1.14a6,6,0,0,0-.33.51c-.05.09-.12.32-.26.67a7.77,7.77,0,0,1-.94,1.56c-.71.9-1.28,1.61-1.91,2.49l-3.75,5.06c-2.48,3.37-5,6.73-7.45,10.11a79.39,79.39,0,0,0-6.6,10.57,47.61,47.61,0,0,0-4,11.76,60.61,60.61,0,0,0-.95,6.18c-.22,2.07-.26,4.16-.48,6.27a12.79,12.79,0,0,1-2,6,6.61,6.61,0,0,1-5.23,3.11,6.53,6.53,0,0,0,5.08-3.21,12.48,12.48,0,0,0,1.72-5.91c.16-2.08.14-4.18.3-6.28a62.76,62.76,0,0,1,.77-6.27,48.06,48.06,0,0,1,3.73-12.1,79,79,0,0,1,6.38-11c2.36-3.48,4.77-6.9,7.16-10.35l3.59-5.16c.56-.84,1.28-1.79,1.84-2.56a6.2,6.2,0,0,0,.66-1.13,7.36,7.36,0,0,1,.29-.8,6.28,6.28,0,0,1,.49-.83,15.16,15.16,0,0,1,1-1.32l.46-.59.47-.63,1.89-2.51a52.63,52.63,0,0,0,3.45-5.06,18.57,18.57,0,0,0,2.16-5.42,14,14,0,0,0,0-5.66Z"/><path class="cls-1" d="M369.05,97.05c5.57,19.69,11.19,39.59,13.75,60.13.65,5.12,1.08,10.28,1.27,15.45a66.82,66.82,0,0,1,0,7.88,19.34,19.34,0,0,1-2.23,8,17.67,17.67,0,0,1-5.65,6.09,28.18,28.18,0,0,1-7.25,3.5,50.23,50.23,0,0,1-7.65,1.88l-7.6,1.16c-5,.81-9.94,1.94-14,4.63a19.77,19.77,0,0,0-5.18,5.1c-1.48,2-2.78,4.2-4.25,6.35a22.61,22.61,0,0,1-5.38,5.85,17.81,17.81,0,0,1-7.45,2.84c-2.58.45-5.16.6-7.69.84a24.65,24.65,0,0,0-7.28,1.52,8.78,8.78,0,0,0-4.87,5c-.83,2.31-.88,4.89-1.39,7.46a11.94,11.94,0,0,1-1.32,3.74,12.22,12.22,0,0,1-2.59,3c-2,1.7-4.19,3-5.81,4.92a7.47,7.47,0,0,0-1.67,3.26,13,13,0,0,0-.08,3.75c.12,1.26.31,2.53.36,3.83a8.26,8.26,0,0,1-.6,3.83,8,8,0,0,1-2.48,3,33.53,33.53,0,0,1-3.2,2.13,17.55,17.55,0,0,0-3.08,2.26,4.84,4.84,0,0,0-1.58,3.37,4.87,4.87,0,0,1,1.53-3.42,17.21,17.21,0,0,1,3-2.34,36.68,36.68,0,0,0,3.15-2.18,7.82,7.82,0,0,0,2.33-2.91,8,8,0,0,0,.5-3.69c-.07-1.27-.29-2.53-.44-3.81a13.42,13.42,0,0,1,0-3.9A7.93,7.93,0,0,1,286,252c1.68-2.05,3.91-3.42,5.77-5.12a9.71,9.71,0,0,0,3.51-6.32c.45-2.45.42-5.08,1.28-7.64a9.62,9.62,0,0,1,2.09-3.46l.72-.73c.26-.21.54-.4.82-.6a9.91,9.91,0,0,1,1.76-1,25.55,25.55,0,0,1,7.64-1.77c2.56-.3,5.1-.5,7.56-1a16.32,16.32,0,0,0,6.72-2.7,21,21,0,0,0,4.84-5.5c1.37-2.11,2.64-4.35,4.15-6.5a21.9,21.9,0,0,1,5.6-5.72,28,28,0,0,1,7.19-3.45,62.54,62.54,0,0,1,7.62-1.84l7.55-1.31a46.89,46.89,0,0,0,7.21-1.91,25.74,25.74,0,0,0,6.47-3.28,14.67,14.67,0,0,0,4.6-5.14,16,16,0,0,0,1.7-6.74,62.59,62.59,0,0,0-.15-7.47q-.43-7.59-1.56-15.12c-2.92-20.1-8.86-39.66-14.83-59.22Z"/><path class="cls-1" d="M383.49,183.57c2.93,5,5.89,10.05,8.53,15.29,1.3,2.62,2.53,5.3,3.62,8a75.2,75.2,0,0,1,2.74,8.42A48.18,48.18,0,0,1,399.65,233a22.33,22.33,0,0,1-2.85,8.52,24.06,24.06,0,0,1-5.83,6.78c-4.66,3.73-10,6.15-15.26,8.65s-10.43,5.1-14.66,9A34.55,34.55,0,0,0,351,297.54a34.91,34.91,0,0,1,9.58-32.16c8.61-8.23,20.72-10.95,29.48-18.26a21.61,21.61,0,0,0,7.79-14.39,46.47,46.47,0,0,0-1.6-16.85,72.76,72.76,0,0,0-2.82-8.07c-1.11-2.63-2.36-5.21-3.7-7.75-2.69-5.08-5.72-10-8.76-14.95Z"/><path class="cls-1" d="M169.14,91.2c.31,5.24,1.34,10.58,2,16.13a61,61,0,0,1,.41,8.48c0,.72,0,1.44-.12,2.16s-.11,1.44-.23,2.16-.2,1.43-.36,2.15-.3,1.42-.47,2.07c-2.56,10.71-5.95,21.08-7.56,31.67A74.07,74.07,0,0,0,162,172l.13,2,.23,2c.14,1.32.35,2.64.52,4.08a15,15,0,0,1-.09,4.57,8.28,8.28,0,0,1-2.35,4.36,13.47,13.47,0,0,1-3.87,2.52,29.51,29.51,0,0,1-4.08,1.42c-2.72.74-5.44,1.23-8.12,1.72s-5.35,1-7.9,1.66a25.73,25.73,0,0,0-3.68,1.27,12.87,12.87,0,0,0-1.65.86,16,16,0,0,0-1.5,1.11c-3.89,3.28-6.72,8.18-6.85,13.27a11.66,11.66,0,0,0,.46,3.72,11.45,11.45,0,0,0,1.56,3.41,18.25,18.25,0,0,0,5.66,5.24,57.42,57.42,0,0,0,7.17,3.65l7.48,3.32,7.48,3.31c2.48,1.13,5,2.13,7.46,3.52a12.41,12.41,0,0,1,5.76,6.13,10.75,10.75,0,0,1,.62,4.23,14.84,14.84,0,0,1-.87,4.13,22.89,22.89,0,0,1-4.31,7.08c-1.76,2.11-3.67,4.06-5.36,6.17a28.11,28.11,0,0,0-2.82,30.62,28.44,28.44,0,0,1,2.32-31c1.68-2.18,3.56-4.18,5.26-6.29a22.2,22.2,0,0,0,4-6.89,13.88,13.88,0,0,0,.74-3.86,9.74,9.74,0,0,0-.63-3.8,11.26,11.26,0,0,0-5.36-5.43c-2.32-1.28-4.89-2.23-7.4-3.32l-7.54-3.17-7.54-3.17a58.47,58.47,0,0,1-7.47-3.64A20.29,20.29,0,0,1,123.1,221a14.21,14.21,0,0,1-2.53-8.3,18.81,18.81,0,0,1,2.12-8.37,22.65,22.65,0,0,1,5.3-6.77,17.63,17.63,0,0,1,1.75-1.36,18.54,18.54,0,0,1,1.95-1.06,28.76,28.76,0,0,1,4-1.47c2.7-.79,5.41-1.32,8.08-1.87s5.32-1.08,7.85-1.82,5-1.72,6.55-3.29a5,5,0,0,0,1.41-2.76,12,12,0,0,0,0-3.58c-.17-1.26-.42-2.63-.59-4l-.28-2.07-.18-2.09a77.67,77.67,0,0,1,.51-16.7c1.47-11.05,4.7-21.58,7-32.13a41.71,41.71,0,0,0,.37-15.49c-.67-5.28-1.82-10.67-2.28-16.33Z"/><path class="cls-1" d="M99.75,91.92a150.13,150.13,0,0,1-3.31,16.31,62.38,62.38,0,0,1-2.75,8,42,42,0,0,1-4.07,7.58,36.08,36.08,0,0,1-5.71,6.58,40.56,40.56,0,0,1-7.07,4.92c-5,2.77-10,4.75-14.8,7.21a125.06,125.06,0,0,0-13.86,8.26c-4.39,3.09-8.86,6.27-12.27,10.16a22.51,22.51,0,0,0-4,6.5A29.63,29.63,0,0,0,30,175c-.15,1.3-.24,2.63-.28,4s.06,2.66.09,4c0,.66,0,1.33.08,2l.25,2a32.76,32.76,0,0,0,.61,3.95c.29,1.31.51,2.63.87,3.92l1.16,3.84a64,64,0,0,0,3.12,7.4,62.62,62.62,0,0,0,8.88,13.4,65.57,65.57,0,0,0,12,10.74,55.87,55.87,0,0,0,14.47,7.13c5.08,1.78,10.62,2.44,15.71,4.72a17.09,17.09,0,0,1,6.67,5,13.82,13.82,0,0,1,2.83,7.77A22.59,22.59,0,0,1,95.36,263,39.7,39.7,0,0,1,92,270.45c-2.67,4.76-5.78,9.32-7.38,14.58,1.5-5.29,4.54-9.93,7.1-14.73a38.2,38.2,0,0,0,3.22-7.47,22.11,22.11,0,0,0,1-8,13.25,13.25,0,0,0-2.82-7.34,16.36,16.36,0,0,0-6.43-4.58,47.23,47.23,0,0,0-7.75-2.35c-2.65-.61-5.34-1.17-8-2a57.23,57.23,0,0,1-14.95-7,67.33,67.33,0,0,1-12.55-10.79A67.05,67.05,0,0,1,30.6,199.46l-1.28-4c-.41-1.33-.66-2.7-1-4.06a35.85,35.85,0,0,1-.72-4.12l-.29-2.07c-.09-.7-.09-1.4-.14-2.09-.05-1.4-.19-2.8-.16-4.2s.08-2.8.22-4.21a32.87,32.87,0,0,1,1.87-8.34A25.33,25.33,0,0,1,33.53,159a46.33,46.33,0,0,1,6.08-5.9c2.15-1.77,4.34-3.44,6.59-5.06a128.07,128.07,0,0,1,14.11-8.76c4.89-2.65,10-4.75,14.51-7.41a36.31,36.31,0,0,0,6.26-4.54A30.94,30.94,0,0,0,86,121.42a37.6,37.6,0,0,0,3.53-6.89A57.17,57.17,0,0,0,91.91,107,142.8,142.8,0,0,0,94.8,91.18Z"/><path class="cls-1" d="M632.17,123.07c-1.81,3.75-3.62,7.47-5.82,11.17-.56.92-1.17,1.86-1.81,2.73l-.89,1.23-.8,1.2a55.81,55.81,0,0,1-3.78,5.2,99.46,99.46,0,0,0-7.4,9.58,26.2,26.2,0,0,0-1.41,2.53c-.44.86-.86,1.81-1.27,2.73l-2.48,5.66a56.7,56.7,0,0,1-6.14,11.15,26.29,26.29,0,0,1-10.06,8.23c-3.86,1.86-7.81,3.08-11.37,4.85s-6.66,4.15-8.39,7.62a25.17,25.17,0,0,0-2.5,11.44,76.93,76.93,0,0,0,1.1,12.13,120.17,120.17,0,0,1,1.47,12.36,43.92,43.92,0,0,1-.17,6.28,53.24,53.24,0,0,1-1,6.17c-.87,4.06-2,8-3,12a54.76,54.76,0,0,0-1.65,12.14c-.15,8.22,1.52,16.37,3.18,24.43-1.86-8-3.74-16.12-3.8-24.43a55.63,55.63,0,0,1,1.37-12.34c.85-4,1.92-8,2.68-12.06a44.49,44.49,0,0,0,.85-12.11,118.09,118.09,0,0,0-1.75-12.15,77.55,77.55,0,0,1-1.43-12.43,27.33,27.33,0,0,1,2.46-12.55,17.41,17.41,0,0,1,3.95-5.3,24.63,24.63,0,0,1,5.37-3.68c3.79-2,7.72-3.31,11.25-5.14a23,23,0,0,0,8.71-7.47,53.37,53.37,0,0,0,5.47-10.61l2.34-5.72c.41-1,.8-1.92,1.27-2.91a29.61,29.61,0,0,1,1.53-2.9,101.36,101.36,0,0,1,7.43-10.17,50.66,50.66,0,0,0,3.37-4.88c.25-.4.58-1,.88-1.4l.88-1.3c.56-.81,1.05-1.61,1.54-2.47,1.92-3.44,3.61-7.19,5.28-10.91Z"/></g></g></svg>