<svg xmlns="http://www.w3.org/2000/svg" viewBox="0 0 391.77 800.99"><defs><style>.cls-1{fill:#5c5052;}.cls-2{fill:#fff;}.cls-3,.cls-4,.cls-5{fill:none;}.cls-3,.cls-4{stroke:#ec6a7c;stroke-linecap:round;stroke-linejoin:round;}.cls-3{stroke-width:0.5px;}.cls-4{stroke-width:1px;}.cls-5{stroke:#5c5052;stroke-miterlimit:10;}.cls-6{fill:#f27243;}.cls-7{fill:#ec6a7c;}.cls-8{fill:#3daaa1;}.cls-9{fill:#2e61a1;}.cls-10{fill:#ffce01;}</style></defs><g id="Layer_2" data-name="Layer 2"><g id="Human_Profile" data-name="Human Profile"><g id="Layer_34" data-name="Layer 34"><path class="cls-1" d="M359,384.69c-24.79-85.19-49.57-102.06-49.57-102.06a211.23,211.23,0,0,0-5.6-53.85s0-37.77-7.19-53.84-49.57-22.5-49.57-22.5-8.8.8-20-7.24-7.2-23.3-7.2-23.3,8.53-6.7,12.8-46.61c6.06-56.75-36.79-57.87-36.79-57.87S153,18.54,159.11,75.29c4.26,39.91,12.79,46.61,12.79,46.61s4,15.27-7.19,23.3-20,7.24-20,7.24-42.38,6.42-49.58,22.5S88,228.78,88,228.78a211.23,211.23,0,0,0-5.6,53.85S57.57,299.5,32.78,384.69c0,0-19.19,8.84-32.78,31.34,0,0,5.6,6.88,19.19-7.81,0,0-7.2,34.87-3.47,45s18.66,0,18.66,0S59.07,432.69,52.5,389c0,0,6.4-11.26,27.19-33.76S107.4,292,107.4,292,117.66,272.52,121,263c3.75-10.73,3.47-43.28,3.47-43.28s3.2,40.19,12.26,62.15c0,0,6.93,31.61-1.6,58.4-6.84,21.5-9.66,45.3-11.74,67.63-2.64,28.4-4.83,57.45-1.43,85.87,2.77,23.22,9.7,45.63,14.43,68.47,4.81,23.27.94,47.19.26,70.71-.74,25.59,4.38,51.32,11.39,75.8q2,7.06,4.29,14c1.1,3.39,5.84,11.7,5.19,15,0,0-4.29,21.88-4,37.19,0,0-8.26,6.23-12.56,13.71C136.58,796.3,165.5,801,165.5,801s10.15,1.59,16-29.47c3.73-19.82-3.2-25.18-3.2-25.18s-4.8-21.86,3.2-63.22c7.47-38.58,0-67.51,0-67.51s-7.46-14.46-1.6-35.89c0,0,12.79-66.44,10.66-142.52,0,0,.54-2.68,5.33-2.68s5.34,2.68,5.34,2.68c-2.13,76.08,10.66,142.52,10.66,142.52,5.86,21.43-1.6,35.89-1.6,35.89s-7.46,28.93,0,67.51c8,41.36,3.19,63.22,3.19,63.22s-6.92,5.36-3.19,25.18c5.85,31.06,16,29.47,16,29.47s28.92-4.68,24.52-12.32c-4.3-7.48-12.56-13.71-12.56-13.71.32-15.31-4-37.19-4-37.19-.45-2.33,2.9-8.17,3.7-10.53,9.27-27.48,16.42-56.37,17.17-85.5.3-11.55-2.59-22.67-3.49-34-1-12.16.88-25.31,1.87-37.44a55.78,55.78,0,0,1,1-7.53c2.16-9.89,2.89-20.17,5.72-29.9,3-10.29,5.91-20.5,7.94-31a257.74,257.74,0,0,0,4.2-68.12c-1.38-17.86-4.6-35.48-7.38-53.15-2.11-13.38-4.19-27.39-8.31-40.35-8.53-26.79-1.6-58.4-1.6-58.4,9.06-22,12.26-62.15,12.26-62.15S267,252.22,270.78,263c3.33,9.57,13.59,29.05,13.59,29.05s6.93,40.72,27.71,63.22S339.27,389,339.27,389c-6.57,43.71,18.12,64.29,18.12,64.29s14.93,10.17,18.66,0-3.47-45-3.47-45c13.59,14.69,19.19,7.81,19.19,7.81C378.18,393.53,359,384.69,359,384.69Z"/></g><g id="Layer_85" data-name="Layer 85"><path class="cls-2" d="M250.63,389.71c2.17,1.18,3.74,4,4.69,6.9,1.39,4.2.4,8.89-.95,13.12-4.77,14.94-5.68,31.17-7,46.85-1.57,18.52-3,37.06-4.39,55.6q-.89,11.51-1.76,23c-.24,3.12-.29,6.27-.49,9.41a9.12,9.12,0,0,0,0,2.09c.33,1.84,1.76,3.15,2.93,4.52s2.21,3.3,1.54,5c-.41,1-1.35,1.73-1.89,2.71-1,1.88-.38,4.27-.35,6.46a1.9,1.9,0,0,1-.14.86,1.5,1.5,0,0,1-.71.63,6.42,6.42,0,0,1-4.6.57,22.67,22.67,0,0,1-3-1.21,14.57,14.57,0,0,0-6.6-1.11c-1.36.1-2.2,1-3.38,1.55a7.34,7.34,0,0,1-4.14.5,4.54,4.54,0,0,1-1.6-.59c-1.34-.87-1.8-2.62-1.83-4.22a26.3,26.3,0,0,0-.07-4.78c-.17-.83-.5-1.61-.74-2.42a19.52,19.52,0,0,1-.49-2.27,7.62,7.62,0,0,1-.18-2.28c.25-2,1.93-3.36,3.23-4.85a24.43,24.43,0,0,0,2.2-3.06,50.78,50.78,0,0,0,4.24-8.59c1.07-2.82,2.35-5.54,3.34-8.4a101.72,101.72,0,0,0,4.3-18.11c1.76-11.51,2.17-23.16,3.1-34.75q2.16-26.86,4.25-53.72l-5.24.11c-3.27-3.78-.74-9.83-.13-15a4.12,4.12,0,0,0-.59-3.18c-.8-.9-2.11-.85-3.26-.79a11,11,0,0,1-6.52-1.18A5.58,5.58,0,0,1,221.9,393a8.22,8.22,0,0,1,1.71-2.64l5.25-6.18c1.35-1.59,2.81-3.25,4.73-3.83,7-2.1,3,8.48,6.29,11.39,3.15,2.75,4.13-1.12,6.67-2.18A4.53,4.53,0,0,1,250.63,389.71Z"/><path class="cls-2" d="M241,577.12a4.87,4.87,0,0,1,.55.06c5.23.85-.89,10.81-2,13-3,6-3.46,13.31-3.81,20.28l-2.13,42.13c-.38,7.41-.41,14.82-.37,22.23,0,3.83-.17,7.66-.22,11.49,0,1.92,0,3.84.05,5.76a13.85,13.85,0,0,0,.77,4.89,27.24,27.24,0,0,0,1.28,2.6c1,1.92,2,3.86,3,5.81a18.7,18.7,0,0,1,.93,2c.6,1.55,1.16,4,.59,5.72a1.74,1.74,0,0,1-1.52,1.22,7.68,7.68,0,0,1-1.72.19c-2.82-.09-4.95-3.48-7.81-3-1.3.21-2.35,1.29-3.41,2.2s-2.46,2.07-3.8,2.11c-1.08,0-1.3-1-1.54-2a18.38,18.38,0,0,1-.47-3.71,12,12,0,0,1,.46-3.73,9.35,9.35,0,0,1,1.73-3c.63-.83,1.27-1.62,1.83-2.52s1.33-1.83,1.88-2.83a9.16,9.16,0,0,0,1.1-4.3c.37-15,1.16-29.93,1.26-45q.15-23.22.3-46.44a25,25,0,0,0-2.54-10.46c-1.46-3.17-3.71-5.89-4.43-9.47a4.12,4.12,0,0,1,.51-3.43A3.39,3.39,0,0,1,223,578c3.06-1.2,6.25-2.4,9.43-1.92,1.56.23,3.06.86,4.62,1.14C238.38,577.45,239.71,577.06,241,577.12Z"/><path class="cls-2" d="M151.65,579.21a3.41,3.41,0,0,0-.55,0c-5.23.85.89,10.81,2,13,3,6,3.46,13.31,3.82,20.28Q158,633.62,159,654.68c.38,7.4.41,14.81.37,22.22,0,3.83.17,7.66.22,11.5,0,1.91,0,3.84,0,5.75a13.85,13.85,0,0,1-.77,4.89,25.06,25.06,0,0,1-1.28,2.6c-1,1.92-2,3.87-3,5.81-.33.64-.66,1.29-.93,2-.6,1.55-1.16,4.05-.59,5.73a1.77,1.77,0,0,0,1.52,1.22,8.3,8.3,0,0,0,1.72.18c2.82-.09,4.95-3.48,7.82-3,1.29.21,2.34,1.29,3.4,2.2s2.46,2.07,3.81,2.11c1.07,0,1.29-1,1.53-2a18.48,18.48,0,0,0,.47-3.72,12,12,0,0,0-.46-3.73,9.35,9.35,0,0,0-1.73-3c-.63-.83-1.26-1.62-1.83-2.51S167.9,701,167.35,700a9.16,9.16,0,0,1-1.1-4.3c-.37-15.05-1.16-29.93-1.25-45-.1-15.48-.23-31-.3-46.44a24.83,24.83,0,0,1,2.53-10.46c1.46-3.17,3.71-5.89,4.43-9.47a4.16,4.16,0,0,0-.5-3.43,3.48,3.48,0,0,0-1.45-.86c-3.06-1.19-6.24-2.4-9.43-1.92-1.56.23-3.06.87-4.62,1.14C154.29,579.53,153,579.14,151.65,579.21Z"/><path class="cls-2" d="M139.09,389.21c-2.17,1.17-3.74,4-4.69,6.89-1.39,4.21-.4,8.89,1,13.12,4.76,14.94,5.67,31.17,7,46.85,1.57,18.52,3,37.06,4.39,55.6q.88,11.51,1.76,23c.24,3.13.29,6.27.49,9.42a9,9,0,0,1,0,2.08c-.33,1.84-1.76,3.15-2.93,4.52s-2.2,3.3-1.53,5c.4,1,1.34,1.74,1.88,2.71,1,1.89.38,4.27.35,6.47a1.93,1.93,0,0,0,.14.86,1.61,1.61,0,0,0,.71.63,6.47,6.47,0,0,0,4.6.56,22.61,22.61,0,0,0,3-1.2,14.44,14.44,0,0,1,6.6-1.12c1.36.1,2.2,1,3.38,1.56a7.34,7.34,0,0,0,4.14.49,4.34,4.34,0,0,0,1.6-.58c1.34-.87,1.8-2.63,1.83-4.22a26.27,26.27,0,0,1,.07-4.78c.17-.83.5-1.62.74-2.43a19.35,19.35,0,0,0,.49-2.26,7.65,7.65,0,0,0,.18-2.28c-.25-2-1.93-3.37-3.23-4.86a23,23,0,0,1-2.2-3.06,51.06,51.06,0,0,1-4.24-8.58c-1.07-2.82-2.35-5.54-3.34-8.41a102.18,102.18,0,0,1-4.3-18.11c-1.76-11.51-2.16-23.16-3.1-34.75q-2.16-26.85-4.25-53.72l5.24.11c3.27-3.77.74-9.82.13-15a4.09,4.09,0,0,1,.59-3.17c.8-.91,2.11-.86,3.26-.8a11,11,0,0,0,6.52-1.18,5.57,5.57,0,0,0,2.53-6.13,8.07,8.07,0,0,0-1.71-2.63l-5.25-6.18c-1.35-1.6-2.81-3.26-4.73-3.84-7-2.09-3,8.49-6.29,11.39-3.15,2.76-4.13-1.11-6.67-2.18A4.53,4.53,0,0,0,139.09,389.21Z"/></g><g id="Layer_35" data-name="Layer 35"><path class="cls-3" d="M379.87,408.89s-17.55-21.57-30.56-24.16c0,0,8.85,16.31,13.77,22.2,8.68,10.39,10.91,33.54,10.91,33.54"/><path class="cls-3" d="M359.31,442.43s.7-16.69-4.41-26.2-5.59-31.5-5.59-31.5,4.57,17.62,12.1,31.12S367,450,367,450"/><path class="cls-4" d="M349.31,384.73s-4.95-18.61-16.46-35-11.56-30.86-11.56-30.86-3.63-22.88-21.44-35-15.3-30.42-15.3-30.42,1.08-7.75-6.53-16.91S271.94,212,271.94,212s-.28-22.09-17.83-28.39a24.83,24.83,0,0,1-15-13.95s-7.73-26.24-42.38-10.81"/><path class="cls-3" d="M349.31,430.92s-6.16-30.35,0-46.19"/><path class="cls-3" d="M299.13,272.31s-4.36-27.14-11.43-38.07c-5.87-9.07-5-13.76-5-13.76s.21-16.91-12.31-16.91"/><path class="cls-3" d="M301,284.68s1.69,15.72,10.22,25.51,10,31.58,10,31.58,4,19.34,12.85,28.51S347,396,347,396"/><path class="cls-3" d="M327.12,359.58s-10.43-9.81-13-23.85a128.72,128.72,0,0,1-2.2-24.61"/><path class="cls-3" d="M10.21,408.5s17.55-21.57,30.56-24.16c0,0-8.85,16.31-13.77,22.2-8.68,10.39-10.92,33.54-10.92,33.54"/><path class="cls-3" d="M30.77,442s-.7-16.69,4.41-26.2,5.59-31.5,5.59-31.5S36.19,402,28.67,415.46s-5.62,34.17-5.62,34.17"/><path class="cls-4" d="M40.77,384.34s4.94-18.61,16.46-35S68.79,318.5,68.79,318.5s3.63-22.88,21.43-35,15.31-30.42,15.31-30.42-1.08-7.75,6.53-16.91,6.08-24.56,6.08-24.56.27-22.09,17.83-28.4a24.8,24.8,0,0,0,15-13.94s7.74-26.24,42.39-10.81"/><path class="cls-3" d="M40.77,430.53s6.16-30.35,0-46.19"/><path class="cls-3" d="M91,271.92s4.36-27.14,11.43-38.07c5.87-9.07,5-13.76,5-13.76s-.21-16.91,12.31-16.91"/><path class="cls-3" d="M89.11,284.29S87.41,300,78.89,309.8s-10,31.58-10,31.58-4,19.34-12.85,28.51-12.92,25.75-12.92,25.75"/><path class="cls-3" d="M63,359.19s10.43-9.81,13-23.85a128.72,128.72,0,0,0,2.2-24.61"/><path class="cls-5" d="M97.77,183.68c-.11.26-.22.51-.32.77-2.72,7.22-.41,20.51-.64,28.34-.11,4-.25,8-1.72,11.66-.85,2.11-2.12,4-2.84,6.18a121.6,121.6,0,0,0-5.57,29.9c-.74,10,1.62,20.74-5.73,28.61-4.61,4.93-10.47,9.46-13.66,15.43-3.28,6.12-6.18,12.67-9.41,18.89S51.66,335.72,48.74,342q-2.18,4.67-4.27,9.38c-1.2,2.72-2.57,5.45-2.95,8.42-.05.42-.09.85-.16,1.27-.4,2.47-1.67,4.58-2.64,6.84a37.18,37.18,0,0,0-2.6,7.45A48.28,48.28,0,0,1,34.58,380a20.29,20.29,0,0,0-.62,2.78,12.64,12.64,0,0,1-.35,2.71c-.48,1.11-2,1.27-3,1.84a13.26,13.26,0,0,0-1.47,1.12c-1.41,1.17-3,2-4.47,3.11-1,.76-2.23,1.29-3.25,2.08-5.31,4.06-9.88,10.06-14.58,14.91-.67.69-1.39,1.7-.88,2.52a13.78,13.78,0,0,0,11.15-3.19c2.7-2.37,4.55-5.86,7.86-7.27a112.43,112.43,0,0,0-6,14c-.78,2.22-.49,4.35-.9,6.68l-.86,4.79-1,5.37c-.18,1-.2,2.11-.35,3.15s-.29,2.34-.4,3.51-.18,2.35-.21,3.52a12,12,0,0,0,.15,2.75c.62,3.13.47,7.92,4.36,8.93,2.89.76,6.18-.38,8.53-2.08A45.47,45.47,0,0,0,42.69,434.8c3.69-7.09,6.72-14.68,7.38-22.73a66.27,66.27,0,0,0,0-14,19.09,19.09,0,0,1,2.63-12.54c1.35-2.18,3.15-4.09,4.26-6.4.42-.87.74-1.78,1.24-2.61a14,14,0,0,1,1.88-2.33c5.15-5.49,10.45-10.93,14.45-17.3,2.15-3.43,4.92-6.43,6.77-9.95q3.18-6,6.16-12.15c4-8.17,7.78-16.43,11.57-24.7,1.82-4,.94-8.44,1.79-12.77A90.48,90.48,0,0,1,105,283.69L111.55,266a72.74,72.74,0,0,0,3.28-10.55c.46-2.25.7-4.54,1.29-6.75s1.42-4,2.11-6.08c2.09-6.14,2.63-12.69,3.92-19.05a82.38,82.38,0,0,1,3.3-11.73c3.14-8.61,8-17,15.24-22.77,1.73-1.38,4-2.24,5.65-3.65s2.65-3.75,3.92-5.48A50.33,50.33,0,0,1,160.88,169c15-11,36.1-10.26,53.17-2.92,13.66,5.88,25.54,15.52,34.94,27a101.69,101.69,0,0,1,9.35,13.4c2.41,4.2,6.92,6.41,9.39,10.71,1.65,2.88,2.36,6.2,3,9.45,4,19,4.61,41.32,15.93,57.85a26.17,26.17,0,0,1,3.29,5.41c1.17,3.22.54,6.76.3,10.18-.79,11,3.11,20.21,8.83,29.38,4.71,7.54,10.46,14.36,15.56,21.65,4,5.7,6.56,12.07,10.52,17.68s9,10,13.35,15.1a16.79,16.79,0,0,1,2.8,4.16,13.2,13.2,0,0,1,1,4.16c.49,5.59-1.08,11.06-1.73,16.57a34.68,34.68,0,0,0,2.1,15.91c2.37,6.87,6.05,13.22,9.93,19.36,2.35,3.71,4.92,7.5,8.71,9.72s9.15,2.37,12.18-.81c3.44-3.62,2.41-8.6,2.17-13.1A125.3,125.3,0,0,0,373.79,424a45.85,45.85,0,0,0-1-4.51,55.36,55.36,0,0,0-2.35-6.21l-3.62-8.53a25.39,25.39,0,0,1,11.55,6.39l5.21,3.06c1.45-6.49-7.7-14.21-11.6-18.27-2.67-2.79-6.6-3.33-9.68-5.84a19.26,19.26,0,0,1-6.45-9.8c-.63-2.33-.81-4.76-1.36-7.11-1-4.12-3.06-7.87-5.15-11.55a34.24,34.24,0,0,1-3.49-7.46c-.46-1.63-.68-3.32-1-5-3-14.87-13.64-27.15-19.54-40.9-1.39-3.23-2.67-6.56-4.78-9.37a54.83,54.83,0,0,0-4.63-5c-5.9-6.1-10.65-13.87-11.9-22.38-.63-4.31.07-8.32-.8-12.6-1-4.83-1.57-9.73-2.16-14.62l-4.86-40c-1-8.09-2-16.36-5.17-23.94-1.56-3.71-3.08-6.87-6.74-8.78a31.43,31.43,0,0,0-10.5-3c-4.86-.64-9.82-.78-14.54-2.08-9.58-2.66-17-9.63-25.42-14.58-9.9-5.83-20.36-5.11-31.56-4.74-16,.53-33.67.19-48.77,5.76-12.3,4.54-25.72,7-36.7,14.11C110.78,171,100.9,176.85,97.77,183.68Z"/></g><g id="Layer_37" data-name="Layer 37"><path class="cls-6" d="M198.94,189.73s-3-22.07,10.34-24.28c7.81-1.29,13,4.28,13,4.28s19.25,18.48,24.73,36.63l3.59,11.92s4.27,7.19,3.6,19.1.07,28.55.07,28.55,1.73,10.84-5.69,12.36c0,0-22.93,5.17-40.68-5.17s-7.64-21.8-7.64-21.8,5.84-8.26-.45-21.58c-3.83-8.09-.68-18.43-.68-18.43s-3.94-7-1.74-12.59S198.94,189.73,198.94,189.73Z"/><path class="cls-6" d="M191.61,189.73s3-22.07-10.34-24.28c-7.81-1.29-13,4.28-13,4.28S149,188.21,143.51,206.36l-3.6,11.92s-4.27,7.19-3.6,19.1-.07,28.55-.07,28.55-1.72,10.84,5.69,12.36c0,0,22.93,5.17,40.69-5.17s7.64-21.8,7.64-21.8-5.85-8.26.45-21.58c3.82-8.09.67-18.43.67-18.43s3.94-7,1.75-12.59S191.61,189.73,191.61,189.73Z"/><path class="cls-2" d="M219.36,206.39s-3-5.14,3.12-4.3c11.39,1.56,13.65,9.61,13.65,9.61-.16-7.42-6.91-9.94-6.91-9.94a14.06,14.06,0,0,0,9.78-3.88c-6.57,3.37-18,2.19-18,2.19-1-6.74,4.21-20.4,4.21-20.4C220.37,185.57,220,194,220,194A21.26,21.26,0,0,0,211,180c5.65,4.47,6.93,14,6.93,14s1.16,10.47-4.24,10.3-11.46-7.41-11.46-7.41c-6.07-7.25-4-28.83-4-28.83h-5.87s2,21.58-4.05,28.83c0,0-6.07,7.24-11.46,7.41s-4.24-10.3-4.24-10.3,1.29-9.5,6.93-14a21.26,21.26,0,0,0-8.93,14s-.42-8.43-5.22-14.33c0,0,5.22,13.66,4.21,20.4,0,0-11.46,1.18-18-2.19a14.08,14.08,0,0,0,9.78,3.88s-6.74,2.52-6.91,9.94c0,0,2.26-8,13.65-9.61,6.15-.84,3.12,4.3,3.12,4.3A45.27,45.27,0,0,1,151.54,220a36,36,0,0,0,16.69-7.42s-3.37,7.76-2.53,12.82c0,0,4.89-20.06,12.14-17.54,0,0-4.55,8.94-4.55,23.1s-17.53,28.15-17.53,28.15a46,46,0,0,0,19.38-21.91s4.55,17.19,1.18,26c0,0,3.29-6.74,2.28-19.56,0,0,3.62,6.92,6.83,8.26,0,0-12.19-13-8.1-29.81C181,207.07,188,202.94,188,202.94s5.63-3.85,7.32-9.32c1.7,5.47,7.32,9.32,7.32,9.32s7,4.13,10.62,19.07c4.09,16.85-8.09,29.81-8.09,29.81,3.2-1.34,6.83-8.26,6.83-8.26-1,12.82,2.27,19.56,2.27,19.56-3.37-8.77,1.18-26,1.18-26a46,46,0,0,0,19.39,21.91s-17.53-14-17.53-28.15-4.56-23.1-4.56-23.1c7.25-2.52,12.14,17.54,12.14,17.54.84-5.06-2.53-12.82-2.53-12.82A36,36,0,0,0,239,220,45.27,45.27,0,0,1,219.36,206.39Z"/></g><g id="Layer_36" data-name="Layer 36"><path class="cls-7" d="M217.42,283.73s16.75-11.83,18.85,12.15c2.28,25.89-28.76,36.11-28.76,36.11s-18.46,7.12-18.74-7.24c-.11-5.71,3.26-6.69,3.26-6.69s3.17-1.67,6.68-3.26,4-5.82,8.16-9.34,3.81-14.38,3.81-14.38S210.27,286.56,217.42,283.73Z"/></g><g id="Layer_38" data-name="Layer 38"><path class="cls-8" d="M171.84,258.5S153.73,257,146,268.45s-5.86,20.71-5.86,20.71-1.31,20.21,6.64,20.21a11.3,11.3,0,0,0,10.56-6.46,20.68,20.68,0,0,1,14.46-5.85,23.4,23.4,0,0,0,15-5.54s4.16-3.48,4.76-12.2c1.2-17.11-4.51-18.77-4.51-18.77A39.12,39.12,0,0,0,171.84,258.5Z"/></g><g id="Layer_39" data-name="Layer 39"><path class="cls-2" d="M211,291.84c-23.08-12.26-19.9-37.36-19.9-37.36,2.68-22.37,2.86-35.15,2.86-35.15l-.18-26.39,4.42,1.31.16,23.5s-.65,24.48-3.1,35.41c0,0-3.51,20.77,16.64,34.28Z"/><path class="cls-9" d="M225.86,287.29a10.33,10.33,0,0,0-.83-.79h0a8.39,8.39,0,0,0-5.34-1.92,8.54,8.54,0,0,0-4.26,15.89h0c5.9,5.75,0,9.9-1.09,10.62l-.18.11h0a6,6,0,0,0-2.92,5c0,3.38,3.09,6.12,6.9,6.12h.08a7.49,7.49,0,0,0,2-.29c3.75-.86,11.29-4.28,12.19-17.8C233,295.49,227.91,289.37,225.86,287.29Z"/><path class="cls-9" d="M180.23,284.45a8.74,8.74,0,0,0-7.72,4.55c-9.9,14.76-3.58,25.71-.37,29.77a7.84,7.84,0,0,0,6.56,3.51,7.63,7.63,0,0,0,7.74-7.5,7.22,7.22,0,0,0-.51-2.68h0a7.12,7.12,0,0,0-.61-1.2c-3-6.4-1.16-9.8.16-11.23a8.41,8.41,0,0,0,1-.82h0a8.91,8.91,0,0,0,1-1.2,8.25,8.25,0,0,0,1.49-4.73A8.58,8.58,0,0,0,180.23,284.45Z"/></g><g id="Layer_41" data-name="Layer 41"><path class="cls-7" d="M208.46,257.57s-10.82.11-14.6,2.57-1.69,8.31-1.69,8.31a24.11,24.11,0,0,1,.65,5.53s-1.43,10,3.78,11.08,5.86-3.18,5.86-3.18.69-2.56,5.34-2.46a6.23,6.23,0,0,0,6.13-6.56c.07-3.39,3.51-4.93,3.51-4.93s7.1-3,6.26-6.56C222.65,257,208.46,257.57,208.46,257.57Z"/></g><g id="Layer_40" data-name="Layer 40"><path class="cls-10" d="M158.8,79.34c-.84-4.18-3.67-17.77-.08-33.11,0,0-1.31-13.88,2.61-18.28,0,0-.58,3.74.65,5.71,1.87,3,0-16.24,0-16.24a11.17,11.17,0,0,1,2.57,2.41s0-4.28-1.59-6.37c0,0,5.63.49,7.59,2.45,0,0-1.72-5.14-3.18-6.49,0,0,3.18.62,4.28,2.08,0,0,1.95-2.56,0-3.91a5.15,5.15,0,0,1,5.14,2.69s1.1-6.62,0-10.28a17.17,17.17,0,0,0,8.08,6.24,87.54,87.54,0,0,1,8.32,3.43s2.08-7.34,3.55-9.67c0,0,1,7.83,5.88,11.75a22.57,22.57,0,0,1,0-8.08,20.56,20.56,0,0,0,5.87,8.08s-.24-1.22,1.84-2.57c0,0-.37,2.08,2,4.41,0,0,6.12-2.82,5.75-5.27,0,0,2.45,2.21,3.67,11.39a11.51,11.51,0,0,1,6.61-6s-3.06,10.77,2,16.64c0,0,3.43.25,3.43-2.08,0,0,2.08,6-.74,18.12a73.62,73.62,0,0,1-.81,29.38s1.7-34-8.74-38.14c-10-4-20.68.8-20.68.8s-5,2.18-12.37-.8S175,35.77,169.81,39.29c-15,10.2-11.19,39.24-11.19,39.24"/></g></g></g></svg>