<svg xmlns="http://www.w3.org/2000/svg" viewBox="0 0 391.77 800.99"><defs><style>.cls-1{fill:#5c5052;}.cls-2{fill:#fff;}.cls-3,.cls-4{fill:none;stroke:#ec6a7c;stroke-linecap:round;stroke-linejoin:round;}.cls-3{stroke-width:0.5px;}.cls-4{stroke-width:1px;}.cls-5{fill:#f27243;}.cls-6{fill:#ec6a7c;}.cls-7{fill:#3daaa1;}.cls-8{fill:#2e61a1;}.cls-9{fill:#ffce01;}</style></defs><g id="Layer_2" data-name="Layer 2"><g id="Human_Profile" data-name="Human Profile"><g id="Layer_34" data-name="Layer 34"><path class="cls-1" d="M359,384.69c-24.79-85.19-49.57-102.06-49.57-102.06a211.23,211.23,0,0,0-5.6-53.85s0-37.77-7.19-53.84-49.57-22.5-49.57-22.5-8.8.8-20-7.24-7.2-23.3-7.2-23.3,8.53-6.7,12.8-46.61c6.06-56.75-36.79-57.87-36.79-57.87S153,18.54,159.11,75.29c4.26,39.91,12.79,46.61,12.79,46.61s4,15.27-7.19,23.3-20,7.24-20,7.24-42.38,6.42-49.58,22.5S88,228.78,88,228.78a211.23,211.23,0,0,0-5.6,53.85S57.57,299.5,32.78,384.69c0,0-19.19,8.84-32.78,31.34,0,0,5.6,6.88,19.19-7.81,0,0-7.2,34.87-3.47,45s18.66,0,18.66,0S59.07,432.69,52.5,389c0,0,6.4-11.26,27.19-33.76S107.4,292,107.4,292,117.66,272.52,121,263c3.75-10.73,3.47-43.28,3.47-43.28s3.2,40.19,12.26,62.15c0,0,6.93,31.61-1.6,58.4,0,0-13.33,48.22-13.33,100.19s14.93,92.68,14.93,92.68,10.13,24.11,7.46,46.62-4.8,31.61-4.8,31.61-13.32,40.18,18.13,126.44c0,0-4.29,21.88-4,37.19,0,0-8.26,6.23-12.56,13.71C136.58,796.3,165.5,801,165.5,801s10.15,1.59,16-29.47c3.73-19.82-3.2-25.18-3.2-25.18s-4.8-21.86,3.2-63.22c7.47-38.58,0-67.51,0-67.51s-7.46-14.46-1.6-35.89c0,0,12.79-66.44,10.66-142.52,0,0,.54-2.68,5.33-2.68s5.34,2.68,5.34,2.68c-2.13,76.08,10.66,142.52,10.66,142.52,5.86,21.43-1.6,35.89-1.6,35.89s-7.46,28.93,0,67.51c8,41.36,3.19,63.22,3.19,63.22s-6.92,5.36-3.19,25.18c5.85,31.06,16,29.47,16,29.47s28.92-4.68,24.52-12.32c-4.3-7.48-12.56-13.71-12.56-13.71.32-15.31-4-37.19-4-37.19,31.45-86.26,18.13-126.44,18.13-126.44s-2.13-9.11-4.8-31.61,7.46-46.62,7.46-46.62S270,492.38,270,440.41s-13.32-100.19-13.32-100.19c-8.53-26.79-1.6-58.4-1.6-58.4,9.06-22,12.26-62.15,12.26-62.15S267,252.22,270.78,263c3.33,9.57,13.59,29.05,13.59,29.05s6.93,40.72,27.71,63.22S339.27,389,339.27,389c-6.57,43.71,18.12,64.29,18.12,64.29s14.93,10.17,18.66,0-3.47-45-3.47-45c13.59,14.69,19.19,7.81,19.19,7.81C378.18,393.53,359,384.69,359,384.69Z"/></g><g id="Layer_35" data-name="Layer 35"><path class="cls-2" d="M317.64,316.74c2.08,2.48,6.16,8.57,12.39,22.87,9.43,21.68,10.37,29.05,10.37,29.05s.25,10.6,4.62,7c0,0,3.65,3,5.55.13,0,0,3.26,2.65,2.7-1.25a23.74,23.74,0,0,0-4.91-9.54c-4-4.78-8-13.71-9.44-18.22-2.45-7.78-14.3-29.73-15.48-31.62-1.84-2.92-4.54-9.13-4.72-11.09-.23-2.5-.18-4.55-3.59-4.33s-4.55,3.24-3,5.84A27.18,27.18,0,0,0,317.64,316.74Z"/><path class="cls-2" d="M312.5,337.18A146.13,146.13,0,0,0,323,356.7c1.58,2.51,4.52,8.94,4.52,8.94s8.09,15.26,11.78,17,2.15-2.38,2.15-2.38,1.64-6.05-3.05-7.77-12.3-20.21-19.56-40.34c0,0-4.49-12.1-6.25-18.88s-4.8-20.79-14.31-14.51-2.18,8.62-2.18,8.62a11.66,11.66,0,0,1,5.41,5.39C303.63,316.87,312.5,337.18,312.5,337.18Z"/><path class="cls-2" d="M72.44,316.35c-2.08,2.48-6.16,8.57-12.39,22.87-9.44,21.68-10.37,29-10.37,29s-.25,10.6-4.62,7c0,0-3.66,2.95-5.55.13,0,0-3.26,2.65-2.7-1.25a23.74,23.74,0,0,1,4.91-9.54c4-4.78,8-13.71,9.44-18.22,2.45-7.78,14.3-29.73,15.48-31.62,1.84-2.92,4.54-9.13,4.72-11.09.23-2.5.18-4.55,3.59-4.33s4.55,3.24,3,5.84A27.18,27.18,0,0,1,72.44,316.35Z"/><path class="cls-2" d="M77.57,336.79A145.27,145.27,0,0,1,67.1,356.31c-1.58,2.51-4.52,8.94-4.52,8.94s-8.09,15.26-11.78,17-2.15-2.38-2.15-2.38S47,373.82,51.7,372.1,64,351.89,71.25,331.76c0,0,4.5-12.1,6.26-18.88s4.8-20.79,14.31-14.51S94,307,94,307a11.67,11.67,0,0,0-5.4,5.39C86.45,316.48,77.57,336.79,77.57,336.79Z"/><path class="cls-3" d="M379.87,408.89s-17.55-21.57-30.56-24.16c0,0,8.85,16.31,13.77,22.2,8.68,10.39,10.91,33.54,10.91,33.54"/><path class="cls-3" d="M359.31,442.43s.7-16.69-4.41-26.2-5.59-31.5-5.59-31.5,4.57,17.62,12.1,31.12S367,450,367,450"/><path class="cls-4" d="M349.31,384.73s-4.95-18.61-16.46-35-11.56-30.86-11.56-30.86-3.63-22.88-21.44-35-15.3-30.42-15.3-30.42,1.08-7.75-6.53-16.91S271.94,212,271.94,212s-.28-22.09-17.83-28.39a24.83,24.83,0,0,1-15-13.95s-7.73-26.24-42.38-10.81"/><path class="cls-3" d="M349.31,430.92s-6.16-30.35,0-46.19"/><path class="cls-3" d="M299.13,272.31s-4.36-27.14-11.43-38.07c-5.87-9.07-5-13.76-5-13.76s.21-16.91-12.31-16.91"/><path class="cls-3" d="M301,284.68s1.69,15.72,10.22,25.51,10,31.58,10,31.58,4,19.34,12.85,28.51S347,396,347,396"/><path class="cls-3" d="M327.12,359.58s-10.43-9.81-13-23.85a128.72,128.72,0,0,1-2.2-24.61"/><path class="cls-3" d="M10.21,408.5s17.55-21.57,30.56-24.16c0,0-8.85,16.31-13.77,22.2-8.68,10.39-10.92,33.54-10.92,33.54"/><path class="cls-3" d="M30.77,442s-.7-16.69,4.41-26.2,5.59-31.5,5.59-31.5S36.19,402,28.67,415.46s-5.62,34.17-5.62,34.17"/><path class="cls-4" d="M40.77,384.34s4.94-18.61,16.46-35S68.79,318.5,68.79,318.5s3.63-22.88,21.43-35,15.31-30.42,15.31-30.42-1.08-7.75,6.53-16.91,6.08-24.56,6.08-24.56.27-22.09,17.83-28.4a24.8,24.8,0,0,0,15-13.94s7.74-26.24,42.39-10.81"/><path class="cls-3" d="M40.77,430.53s6.16-30.35,0-46.19"/><path class="cls-3" d="M91,271.92s4.36-27.14,11.43-38.07c5.87-9.07,5-13.76,5-13.76s-.21-16.91,12.31-16.91"/><path class="cls-3" d="M89.11,284.29S87.41,300,78.89,309.8s-10,31.58-10,31.58-4,19.34-12.85,28.51-12.92,25.75-12.92,25.75"/><path class="cls-3" d="M63,359.19s10.43-9.81,13-23.85a128.72,128.72,0,0,0,2.2-24.61"/></g><g id="Layer_37" data-name="Layer 37"><path class="cls-5" d="M198.94,189.73s-3-22.07,10.34-24.28c7.81-1.29,13,4.28,13,4.28s19.25,18.48,24.73,36.63l3.59,11.92s4.27,7.19,3.6,19.1.07,28.55.07,28.55,1.73,10.84-5.69,12.36c0,0-22.93,5.17-40.68-5.17s-7.64-21.8-7.64-21.8,5.84-8.26-.45-21.58c-3.83-8.09-.68-18.43-.68-18.43s-3.94-7-1.74-12.59S198.94,189.73,198.94,189.73Z"/><path class="cls-5" d="M191.61,189.73s3-22.07-10.34-24.28c-7.81-1.29-13,4.28-13,4.28S149,188.21,143.51,206.36l-3.6,11.92s-4.27,7.19-3.6,19.1-.07,28.55-.07,28.55-1.72,10.84,5.69,12.36c0,0,22.93,5.17,40.69-5.17s7.64-21.8,7.64-21.8-5.85-8.26.45-21.58c3.82-8.09.67-18.43.67-18.43s3.94-7,1.75-12.59S191.61,189.73,191.61,189.73Z"/><path class="cls-2" d="M219.36,206.39s-3-5.14,3.12-4.3c11.39,1.56,13.65,9.61,13.65,9.61-.16-7.42-6.91-9.94-6.91-9.94a14.06,14.06,0,0,0,9.78-3.88c-6.57,3.37-18,2.19-18,2.19-1-6.74,4.21-20.4,4.21-20.4C220.37,185.57,220,194,220,194A21.26,21.26,0,0,0,211,180c5.65,4.47,6.93,14,6.93,14s1.16,10.47-4.24,10.3-11.46-7.41-11.46-7.41c-6.07-7.25-4-28.83-4-28.83h-5.87s2,21.58-4.05,28.83c0,0-6.07,7.24-11.46,7.41s-4.24-10.3-4.24-10.3,1.29-9.5,6.93-14a21.26,21.26,0,0,0-8.93,14s-.42-8.43-5.22-14.33c0,0,5.22,13.66,4.21,20.4,0,0-11.46,1.18-18-2.19a14.08,14.08,0,0,0,9.78,3.88s-6.74,2.52-6.91,9.94c0,0,2.26-8,13.65-9.61,6.15-.84,3.12,4.3,3.12,4.3A45.27,45.27,0,0,1,151.54,220a36,36,0,0,0,16.69-7.42s-3.37,7.76-2.53,12.82c0,0,4.89-20.06,12.14-17.54,0,0-4.55,8.94-4.55,23.1s-17.53,28.15-17.53,28.15a46,46,0,0,0,19.38-21.91s4.55,17.19,1.18,26c0,0,3.29-6.74,2.28-19.56,0,0,3.62,6.92,6.83,8.26,0,0-12.19-13-8.1-29.81C181,207.07,188,202.94,188,202.94s5.63-3.85,7.32-9.32c1.7,5.47,7.32,9.32,7.32,9.32s7,4.13,10.62,19.07c4.09,16.85-8.09,29.81-8.09,29.81,3.2-1.34,6.83-8.26,6.83-8.26-1,12.82,2.27,19.56,2.27,19.56-3.37-8.77,1.18-26,1.18-26a46,46,0,0,0,19.39,21.91s-17.53-14-17.53-28.15-4.56-23.1-4.56-23.1c7.25-2.52,12.14,17.54,12.14,17.54.84-5.06-2.53-12.82-2.53-12.82A36,36,0,0,0,239,220,45.27,45.27,0,0,1,219.36,206.39Z"/></g><g id="Layer_36" data-name="Layer 36"><path class="cls-6" d="M217.42,283.73s16.75-11.83,18.85,12.15c2.28,25.89-28.76,36.11-28.76,36.11s-18.46,7.12-18.74-7.24c-.11-5.71,3.26-6.69,3.26-6.69s3.17-1.67,6.68-3.26,4-5.82,8.16-9.34,3.81-14.38,3.81-14.38S210.27,286.56,217.42,283.73Z"/></g><g id="Layer_38" data-name="Layer 38"><path class="cls-7" d="M171.84,258.5S153.73,257,146,268.45s-5.86,20.71-5.86,20.71-1.31,20.21,6.64,20.21a11.3,11.3,0,0,0,10.56-6.46,20.68,20.68,0,0,1,14.46-5.85,23.4,23.4,0,0,0,15-5.54s4.16-3.48,4.76-12.2c1.2-17.11-4.51-18.77-4.51-18.77A39.12,39.12,0,0,0,171.84,258.5Z"/></g><g id="Layer_39" data-name="Layer 39"><path class="cls-2" d="M211,291.84c-23.08-12.26-19.9-37.36-19.9-37.36,2.68-22.37,2.86-35.15,2.86-35.15l-.18-26.39,4.42,1.31.16,23.5s-.65,24.48-3.1,35.41c0,0-3.51,20.77,16.64,34.28Z"/><path class="cls-8" d="M225.86,287.29a10.33,10.33,0,0,0-.83-.79h0a8.39,8.39,0,0,0-5.34-1.92,8.54,8.54,0,0,0-4.26,15.89h0c5.9,5.75,0,9.9-1.09,10.62l-.18.11h0a6,6,0,0,0-2.92,5c0,3.38,3.09,6.12,6.9,6.12h.08a7.49,7.49,0,0,0,2-.29c3.75-.86,11.29-4.28,12.19-17.8C233,295.49,227.91,289.37,225.86,287.29Z"/><path class="cls-8" d="M180.23,284.45a8.74,8.74,0,0,0-7.72,4.55c-9.9,14.76-3.58,25.71-.37,29.77a7.84,7.84,0,0,0,6.56,3.51,7.63,7.63,0,0,0,7.74-7.5,7.22,7.22,0,0,0-.51-2.68h0a7.12,7.12,0,0,0-.61-1.2c-3-6.4-1.16-9.8.16-11.23a8.41,8.41,0,0,0,1-.82h0a8.91,8.91,0,0,0,1-1.2,8.25,8.25,0,0,0,1.49-4.73A8.58,8.58,0,0,0,180.23,284.45Z"/></g><g id="Layer_41" data-name="Layer 41"><path class="cls-6" d="M208.46,257.57s-10.82.11-14.6,2.57-1.69,8.31-1.69,8.31a24.11,24.11,0,0,1,.65,5.53s-1.43,10,3.78,11.08,5.86-3.18,5.86-3.18.69-2.56,5.34-2.46a6.23,6.23,0,0,0,6.13-6.56c.07-3.39,3.51-4.93,3.51-4.93s7.1-3,6.26-6.56C222.65,257,208.46,257.57,208.46,257.57Z"/></g><g id="Layer_40" data-name="Layer 40"><path class="cls-9" d="M158.8,79.34c-.84-4.18-3.67-17.77-.08-33.11,0,0-1.31-13.88,2.61-18.28,0,0-.58,3.74.65,5.71,1.87,3,0-16.24,0-16.24a11.17,11.17,0,0,1,2.57,2.41s0-4.28-1.59-6.37c0,0,5.63.49,7.59,2.45,0,0-1.72-5.14-3.18-6.49,0,0,3.18.62,4.28,2.08,0,0,1.95-2.56,0-3.91a5.15,5.15,0,0,1,5.14,2.69s1.1-6.62,0-10.28a17.17,17.17,0,0,0,8.08,6.24,87.54,87.54,0,0,1,8.32,3.43s2.08-7.34,3.55-9.67c0,0,1,7.83,5.88,11.75a22.57,22.57,0,0,1,0-8.08,20.56,20.56,0,0,0,5.87,8.08s-.24-1.22,1.84-2.57c0,0-.37,2.08,2,4.41,0,0,6.12-2.82,5.75-5.27,0,0,2.45,2.21,3.67,11.39a11.51,11.51,0,0,1,6.61-6s-3.06,10.77,2,16.64c0,0,3.43.25,3.43-2.08,0,0,2.08,6-.74,18.12a73.62,73.62,0,0,1-.81,29.38s1.7-34-8.74-38.14c-10-4-20.68.8-20.68.8s-5,2.18-12.37-.8S175,35.77,169.81,39.29c-15,10.2-11.19,39.24-11.19,39.24"/></g></g></g></svg>