<svg xmlns="http://www.w3.org/2000/svg" viewBox="0 0 239.31 189.22"><defs><style>.cls-1{fill:#ffce01;}.cls-2,.cls-3{fill:none;stroke-linecap:round;stroke-width:4px;}.cls-2{stroke:#ffce01;stroke-linejoin:round;}.cls-3{stroke:#fff;stroke-miterlimit:10;}</style></defs><g id="Layer_2" data-name="Layer 2"><g id="Layer_14" data-name="Layer 14"><path class="cls-1" d="M118.9,142.8s37.6-6.7,68.21-15.57v-8.84l5.2-12.59,26-6.43,10.56,8.49s6.89,16.21,8.42,40.44l-5.2,11.07-25.41,5.2-13.47-12.35-1.22-5.4L121.3,161.51,115.17,182l-22.65,5.2-13.47-7.34-4-4.59-5.51-21.74,8-21.73,23-5.21,16.23,13.17Z"/><path class="cls-2" d="M118.9,142.8s37.6-6.7,68.21-15.57v-8.84l5.2-12.59,26-6.43,10.56,8.49s6.89,16.21,8.42,40.44l-5.2,11.07-25.41,5.2-13.47-12.35-1.22-5.4L121.3,161.51,115.17,182l-22.65,5.2-13.47-7.34-4-4.59-5.51-21.74,8-21.73,23-5.21,16.23,13.17Z"/><path class="cls-1" d="M113.64,76.52s-35.36-14.44-66-23.3l-4.73,7.47L31.82,68.54,6.39,60.07,2,47.25S4.85,29.87,16.51,8.57L26.82,2l24.26,9.18,4.77,17.64L54,34l67.62,25.38,16.13-14.06,21.93,7.71,7.45,13.41.91,6-7,21.31-18.34,14.12L120.55,100l-6.67-19.8Z"/><path class="cls-2" d="M113.64,76.52s-35.36-14.44-66-23.3l-4.73,7.47L31.82,68.54,6.39,60.07,2,47.25S4.85,29.87,16.51,8.57L26.82,2l24.26,9.18,4.77,17.64L54,34l67.62,25.38,16.13-14.06,21.93,7.71,7.45,13.41.91,6-7,21.31-18.34,14.12L120.55,100l-6.67-19.8Z"/><polyline class="cls-3" points="102.79 133.76 99.12 145.26 106.92 175.55 114.27 180.14"/><polyline class="cls-3" points="222.63 107.36 222.63 119.26 229.75 151.67 232.96 155.57"/><polyline class="cls-3" points="129.89 96.68 139.14 88.92 148.73 59.15 144.98 51.35"/><polyline class="cls-3" points="14.49 54.93 20.86 44.87 32.16 13.68 31.54 8.66"/></g></g></svg>