<svg xmlns="http://www.w3.org/2000/svg" viewBox="0 0 1476.81 648.03"><defs><style>.cls-1{font-size:48.79px;font-family:Acre-Regular, Acre;}.cls-1,.cls-92{fill:#3daaa1;}.cls-2{letter-spacing:-0.01em;}.cls-3{letter-spacing:-0.01em;}.cls-4{letter-spacing:-0.01em;}.cls-101,.cls-102,.cls-103,.cls-104,.cls-105,.cls-106,.cls-107,.cls-21,.cls-22,.cls-25,.cls-26,.cls-30,.cls-31,.cls-35,.cls-37,.cls-40,.cls-42,.cls-5,.cls-71,.cls-90,.cls-91,.cls-93,.cls-95{fill:none;}.cls-105,.cls-22,.cls-30,.cls-31,.cls-5{stroke:#5b5052;}.cls-101,.cls-102,.cls-103,.cls-104,.cls-105,.cls-106,.cls-107,.cls-12,.cls-13,.cls-20,.cls-22,.cls-26,.cls-32,.cls-35,.cls-38,.cls-40,.cls-41,.cls-44,.cls-5,.cls-51,.cls-53,.cls-54,.cls-56,.cls-57,.cls-60,.cls-61,.cls-64,.cls-65,.cls-66,.cls-67,.cls-68,.cls-69,.cls-70,.cls-71,.cls-72,.cls-74,.cls-75,.cls-76,.cls-77,.cls-79,.cls-80,.cls-83,.cls-84,.cls-86,.cls-87,.cls-88,.cls-90,.cls-91,.cls-93,.cls-95{stroke-miterlimit:10;}.cls-5{stroke-width:1.43px;}.cls-6{font-size:30px;font-family:Acre-Light, Acre;font-weight:300;}.cls-12,.cls-28,.cls-6{fill:#5c5052;}.cls-7{letter-spacing:-0.02em;}.cls-8{letter-spacing:-0.02em;}.cls-9{letter-spacing:-0.01em;}.cls-10{letter-spacing:-0.03em;}.cls-11,.cls-13,.cls-84{fill:#2e61a1;}.cls-12,.cls-13,.cls-26,.cls-32,.cls-53,.cls-56,.cls-60,.cls-64,.cls-66,.cls-67,.cls-69,.cls-70,.cls-74,.cls-79,.cls-83,.cls-84,.cls-88{stroke:#fff;}.cls-12,.cls-13{stroke-width:0.91px;}.cls-14{letter-spacing:0.01em;}.cls-15{letter-spacing:0em;}.cls-16{letter-spacing:-0.01em;}.cls-17{fill:#e06a7c;}.cls-18{fill:#336da9;}.cls-19{fill:#3da89f;}.cls-20{fill:#fbcb08;stroke:#efefef;stroke-width:0.06px;}.cls-21{stroke:#fbcb08;stroke-width:0.43px;}.cls-101,.cls-102,.cls-103,.cls-104,.cls-105,.cls-106,.cls-107,.cls-21,.cls-25,.cls-26,.cls-30,.cls-31,.cls-37,.cls-42,.cls-43,.cls-90{stroke-linecap:round;}.cls-21,.cls-25,.cls-30,.cls-31,.cls-37,.cls-42,.cls-43{stroke-linejoin:round;}.cls-22{stroke-width:1.08px;}.cls-23{fill:#5b5052;}.cls-24{fill:#ffce01;}.cls-25{stroke:#ffce01;}.cls-25,.cls-26{stroke-width:1.38px;}.cls-27{letter-spacing:0.01em;}.cls-29{fill:#e76a7c;}.cls-30{stroke-width:1.15px;}.cls-31{stroke-width:1.15px;}.cls-32,.cls-46,.cls-56,.cls-67,.cls-86{fill:#ec6a7c;}.cls-32{stroke-width:1.28px;}.cls-33{font-size:26.75px;}.cls-108,.cls-109,.cls-110,.cls-111,.cls-112,.cls-33,.cls-41,.cls-43,.cls-52,.cls-55,.cls-58,.cls-62,.cls-66,.cls-70,.cls-73,.cls-78,.cls-81,.cls-85,.cls-87{fill:#fff;}.cls-33,.cls-52,.cls-55,.cls-58,.cls-62,.cls-73,.cls-78,.cls-81,.cls-85{font-family:Acre-Bold, Acre;font-weight:700;}.cls-34{letter-spacing:-0.02em;}.cls-35,.cls-51,.cls-61,.cls-86{stroke:#ffcf01;}.cls-36,.cls-53,.cls-64,.cls-80,.cls-88{fill:#ffcf01;}.cls-37,.cls-38,.cls-40,.cls-44{stroke:#2b63a3;}.cls-37,.cls-40{stroke-width:0.91px;}.cls-38,.cls-39,.cls-44{fill:#2b63a3;opacity:0.17;}.cls-38{stroke-width:0.46px;}.cls-41,.cls-42,.cls-43,.cls-90{stroke:#5c5052;}.cls-41,.cls-42,.cls-43{stroke-width:0.34px;}.cls-44{stroke-width:0.59px;}.cls-45{letter-spacing:0em;}.cls-47{fill:#f27243;}.cls-48{fill:#24b13e;}.cls-49{fill:#3caba2;}.cls-50,.cls-54,.cls-65,.cls-74,.cls-76,.cls-79{fill:#6d54a3;}.cls-51,.cls-69{fill:#2e61a2;}.cls-51{stroke-width:0.92px;}.cls-52{font-size:15.55px;}.cls-53{stroke-width:0.27px;}.cls-54,.cls-65,.cls-87{stroke:#ec6a7c;}.cls-54{stroke-width:0.74px;}.cls-55{font-size:10.93px;}.cls-56{stroke-width:0.16px;}.cls-57,.cls-68{fill:#6b6264;}.cls-57,.cls-68,.cls-80{stroke:#2e61a2;}.cls-57{stroke-width:0.53px;}.cls-58{font-size:8.42px;}.cls-59{letter-spacing:-0.01em;}.cls-60,.cls-83{fill:#2e6296;}.cls-60{stroke-width:0.18px;}.cls-61{fill:#f37243;stroke-width:0.66px;}.cls-62{font-size:10.51px;letter-spacing:-0.01em;}.cls-63{letter-spacing:0em;}.cls-64{stroke-width:0.22px;}.cls-65{stroke-width:0.44px;}.cls-66{font-size:8.54px;stroke-width:0.21px;}.cls-108,.cls-109,.cls-110,.cls-111,.cls-112,.cls-66,.cls-70{font-family:Acre-Semibold, Acre;font-weight:600;}.cls-67{stroke-width:0.12px;}.cls-68{stroke-width:0.34px;}.cls-69{stroke-width:0.11px;}.cls-70{font-size:7.72px;stroke-width:0.19px;}.cls-71{stroke:#5e5252;stroke-width:0.6px;}.cls-72,.cls-77{fill:#39944c;}.cls-72,.cls-75,.cls-77{stroke:#6d54a3;}.cls-72{stroke-width:0.62px;}.cls-73{font-size:9.19px;}.cls-74{stroke-width:0.24px;}.cls-75{fill:#408c80;stroke-width:1.11px;}.cls-76{stroke:#ededee;stroke-width:0.36px;}.cls-77{stroke-width:0.61px;}.cls-78{font-size:8.16px;}.cls-79{stroke-width:0.24px;}.cls-80{stroke-width:1.62px;}.cls-81{font-size:15.99px;}.cls-82{letter-spacing:0em;}.cls-83{stroke-width:0.39px;}.cls-84{stroke-width:0.23px;}.cls-85{font-size:14.31px;}.cls-86{stroke-width:0.43px;}.cls-87,.cls-88{stroke-width:0.11px;}.cls-89{fill:#4d3b2f;}.cls-90{stroke-width:0.62px;}.cls-91{stroke:#3daaa1;stroke-width:0.93px;}.cls-93,.cls-95{stroke:#3b81cc;}.cls-93{stroke-width:3.17px;}.cls-94{fill:#3b81cc;}.cls-95{stroke-width:2.11px;}.cls-96{letter-spacing:-0.02em;}.cls-97{letter-spacing:-0.02em;}.cls-98{fill:#42210b;}.cls-99{fill:#603813;}.cls-100{fill:#754c24;}.cls-101,.cls-103,.cls-106{stroke:#c49a6d;}.cls-101,.cls-102{stroke-width:1.37px;}.cls-102,.cls-104,.cls-107{stroke:#a47c52;}.cls-103,.cls-104{stroke-width:1.53px;}.cls-105{stroke-width:1.11px;}.cls-106{stroke-width:1.59px;}.cls-107{stroke-width:1.37px;}.cls-108{font-size:11.43px;}.cls-109{font-size:10.2px;}.cls-110{font-size:11.83px;}.cls-111{font-size:10.2px;}.cls-112{font-size:11.83px;}</style></defs><g id="Layer_2" data-name="Layer 2"><g id="Measuring_Soil_Health" data-name="Measuring Soil Health"><text class="cls-1" transform="translate(0 41.47)">p<tspan class="cls-2" x="30.11" y="0">h</tspan><tspan class="cls-3" x="57.53" y="0">y</tspan><tspan x="81.97" y="0">sical</tspan></text><text class="cls-1" transform="translate(609.82 42.09)">c<tspan class="cls-4" x="25.18" y="0">h</tspan><tspan x="52.65" y="0">emical</tspan></text><text class="cls-1" transform="translate(615.91 364.77)">biological</text><line class="cls-5" x1="543.98" y1="7.94" x2="543.98" y2="600.6"/><g id="Layer_48" data-name="Layer 48"><text class="cls-6" transform="translate(12.11 563.76)"><tspan class="cls-7">w</tspan><tspan x="23.43" y="0">a</tspan><tspan class="cls-8" x="41.94" y="0">t</tspan><tspan x="49.65" y="0">er </tspan><tspan class="cls-9" x="86.07" y="0">h</tspan><tspan x="102.75" y="0">oldi</tspan><tspan class="cls-7" x="153.63" y="0">n</tspan><tspan x="170.28" y="0">g </tspan><tspan x="35.85" y="36">capacit</tspan><tspan class="cls-10" x="138.87" y="36">y</tspan></text><path class="cls-11" d="M62.67,448.29h0s12.65-19.94,18.41-32.58c6.25,13,18.41,32.58,18.41,32.58h0c.09.15.19.3.27.46a21.44,21.44,0,1,1-37-.46Z"/><path class="cls-11" d="M115.56,433.37h0s9.54-15,13.88-24.57c4.71,9.78,13.87,24.57,13.87,24.57h0a3.87,3.87,0,0,1,.21.34,16.16,16.16,0,1,1-30.24,7.93A15.88,15.88,0,0,1,115.56,433.37Z"/><path class="cls-11" d="M102.77,489.32h0s7.73-12.2,11.26-19.94c3.82,7.94,11.26,19.94,11.26,19.94h0l.17.28a13.12,13.12,0,1,1-22.68-.28Z"/></g><g id="Layer_49" data-name="Layer 49"><polygon class="cls-12" points="439.58 495.95 374.87 509.05 374.87 435.02 439.58 426.18 439.58 495.95"/><polygon class="cls-12" points="314.04 493.56 374.19 509.8 374.19 435.77 314.04 419.53 314.04 493.56"/><ellipse class="cls-13" cx="346.07" cy="483.14" rx="7.59" ry="8.31"/><ellipse class="cls-13" cx="403.65" cy="434.95" rx="10.41" ry="11.41" transform="translate(-135.67 187.46) rotate(-22.49)"/><ellipse class="cls-13" cx="344.99" cy="428.97" rx="10.41" ry="11.41" transform="translate(-137.84 164.57) rotate(-22.49)"/><ellipse class="cls-13" cx="332.73" cy="463.64" rx="7.79" ry="8.53"/><ellipse class="cls-13" cx="357.59" cy="464.02" rx="5.43" ry="5.95"/><ellipse class="cls-13" cx="325.05" cy="440" rx="8.39" ry="9.19"/><ellipse class="cls-13" cx="365.14" cy="442.9" rx="7.22" ry="7.91"/><ellipse class="cls-13" cx="325.11" cy="484.51" rx="6.13" ry="6.71"/><ellipse class="cls-13" cx="363.97" cy="494.4" rx="8.86" ry="9.7"/><ellipse class="cls-13" cx="412.25" cy="458.64" rx="6.28" ry="6.87" transform="translate(-144.07 192.55) rotate(-22.49)"/><ellipse class="cls-13" cx="384.29" cy="449.17" rx="6.32" ry="6.92" transform="translate(-142.58 181.14) rotate(-22.49)"/><ellipse class="cls-13" cx="425.48" cy="439.48" rx="8.42" ry="9.22" transform="translate(-135.74 196.15) rotate(-22.49)"/><ellipse class="cls-13" cx="391.6" cy="487.43" rx="8.61" ry="9.43" transform="translate(-156.65 186.84) rotate(-22.49)"/><ellipse class="cls-13" cx="393.67" cy="466.49" rx="6.24" ry="6.83" transform="translate(-148.49 186.04) rotate(-22.49)"/><ellipse class="cls-13" cx="417.33" cy="488.76" rx="7.33" ry="7.96" transform="translate(-155.21 196.78) rotate(-22.49)"/><ellipse class="cls-13" cx="429.59" cy="470.4" rx="9.1" ry="9.96" transform="translate(-147.25 200.07) rotate(-22.49)"/><ellipse class="cls-13" cx="375.8" cy="422.18" rx="10.41" ry="11.41" transform="translate(-132.9 175.83) rotate(-22.49)"/><polygon class="cls-12" points="314.04 420.18 374.19 436.42 440.26 426.18 376.9 408.17 314.04 420.18"/><text class="cls-6" transform="translate(304.87 565.17)">bulk de<tspan class="cls-14" x="102.54" y="0">n</tspan><tspan x="119.85" y="0">sit</tspan><tspan class="cls-10" x="147.93" y="0">y</tspan></text></g><g id="Layer_50" data-name="Layer 50"><text class="cls-6" transform="translate(621.41 596.25)">mic<tspan class="cls-8" x="49.59" y="0">r</tspan><tspan x="58.11" y="0">obial bio</tspan><tspan class="cls-7" x="181.95" y="0">m</tspan><tspan x="207.71" y="0">ass a</tspan><tspan class="cls-7" x="279.56" y="0">n</tspan><tspan x="296.21" y="0">d </tspan><tspan x="103.15" y="36">d</tspan><tspan class="cls-15" x="121.66" y="36">i</tspan><tspan class="cls-7" x="129.04" y="36">v</tspan><tspan x="143.65" y="36">e</tspan><tspan class="cls-16" x="160.6" y="36">r</tspan><tspan x="169.42" y="36">sit</tspan><tspan class="cls-10" x="197.5" y="36">y</tspan></text><path class="cls-17" d="M816.73,474.55a4.26,4.26,0,0,0-6.08-3.85c-8.84,2.67-13.28,11.14-13.28,11.14h0a3.94,3.94,0,0,0-.5,1.94,4,4,0,0,0,7.14,2.48,37.61,37.61,0,0,1,10-7.74,4.49,4.49,0,0,0,.54-.26h0A4.27,4.27,0,0,0,816.73,474.55Z"/><path class="cls-17" d="M821.35,490.53a4.67,4.67,0,1,0-8-4.78,56.77,56.77,0,0,0-6.54,20.33h0a4.67,4.67,0,1,0,9.31.53S816,500.5,821.35,490.53Z"/><path class="cls-18" d="M855.08,435.78s-10.81,0-11.57,10.58c-.2,2.72,5.84,2.31,9.24,1.85.28,4.47,1.19,21.32-.35,25.77,0,0-.12,1.16,3.26,1.06s4.05-2.11,4.05-2.11,1.84,1.72-2.54-24.75c3.36.47,9.63,1,9.48-1.82C866.12,436.14,855.08,435.78,855.08,435.78Z"/><path class="cls-18" d="M874.31,457.7s6.4,2.3,4.6,8.73c-.47,1.65-3.95.12-5.87-.88-1.11,2.59-5.23,12.36-5.27,15.32,0,0-.17.72-2.15-.06s-2-2.11-2-2.11-1.46.63,6.77-14.11c-2.09-.43-5.91-1.47-5.23-3.09C867.7,455.57,874.31,457.7,874.31,457.7Z"/><path class="cls-18" d="M831.61,448.48s8.9-3,12.67,6.07c1,2.34-4.13,3.66-7.07,4.2,1.1,4,5.34,19.05,7.92,22.53,0,0,.45,1-2.36,1.84s-4-.73-4-.73-1,2-5.25-22.44c-2.62,1.34-7.64,3.53-8.35,1C822.63,451.87,831.61,448.48,831.61,448.48Z"/><path class="cls-19" d="M905,462.3a5.92,5.92,0,0,0-1.22-7.33,6.23,6.23,0,0,0-4.15-1.84,4.85,4.85,0,0,0-3.77,1.48,5.39,5.39,0,0,0-.55.71,6,6,0,0,0,1.23,7.33,6.32,6.32,0,0,0,4.14,1.84,4.86,4.86,0,0,0,3.77-1.49A3.69,3.69,0,0,0,905,462.3Z"/><path class="cls-19" d="M905.15,477c2.44-.75,4.06-3.47,3.86-6.47a6.46,6.46,0,0,0-1.84-4.21,4.59,4.59,0,0,0-3.72-1.4,4.25,4.25,0,0,0-.86.18c-2.44.75-4.06,3.47-3.86,6.47a6.51,6.51,0,0,0,1.84,4.21,4.58,4.58,0,0,0,3.72,1.39A4.22,4.22,0,0,0,905.15,477Z"/><path class="cls-19" d="M906.19,490.13c2.37-1,3.75-3.83,3.28-6.78a6.49,6.49,0,0,0-2.21-4,4.62,4.62,0,0,0-3.84-1,4.78,4.78,0,0,0-.84.25c-2.37,1-3.76,3.83-3.28,6.79a6.44,6.44,0,0,0,2.21,4,4.61,4.61,0,0,0,3.84,1A5.05,5.05,0,0,0,906.19,490.13Z"/><path class="cls-19" d="M914.24,500.52a6.07,6.07,0,0,0,.55-7.47,6.29,6.29,0,0,0-3.56-2.81,4.72,4.72,0,0,0-4.68,1.08,6.07,6.07,0,0,0-.55,7.47,6.35,6.35,0,0,0,3.56,2.82,4.65,4.65,0,0,0,4.68-1.09Z"/><path class="cls-19" d="M892.64,447.4l-4.93.1a5.23,5.23,0,0,1,1.28-4,5,5,0,0,1,.48-.44,4.63,4.63,0,0,1,3.87-.84,6.51,6.51,0,0,1,3.84,2.54c1.85,2.46,1.91,5.75.12,7.65a3.27,3.27,0,0,1-.47.44,4.61,4.61,0,0,1-3.87.84,6.25,6.25,0,0,1-2.87-1.49Z"/><path class="cls-20" d="M852.23,509.82l-11.09,10.05c-1.85,1.68-4.51,1.77-5.94.2s-1.1-4.2.75-5.88L847,504.13c1.85-1.68,4.51-1.77,5.94-.2S854.08,508.14,852.23,509.82Z"/><path class="cls-21" d="M817.5,534.73s-2.13-2.33,3.11-7.08a5.36,5.36,0,0,1,5.34-1.1,7,7,0,0,0,7.07-2c4.37-4.19,2.9-6,2.9-6"/><path class="cls-21" d="M820.56,533.22a5.3,5.3,0,0,0,2.81-5.67s-1.43-3.37,4.24-7.56c5.27-3.89,8-2.77,8-2.77"/><path class="cls-21" d="M836.89,519.86a9.49,9.49,0,0,0-6,2.56s-2.85,2.76-1.67,5.22-1.25,4.09-2.06,4.9a10.51,10.51,0,0,1-5,2.26"/><path class="cls-21" d="M837.3,517.53c1.77,4.55-.28,6.9-.28,6.9a5.2,5.2,0,0,1-6.39,1.29c-4.19-1.83-5,.92-5.72,1.79a7.34,7.34,0,0,0-.39,5.78"/><path class="cls-20" d="M865.69,492.17,877,502c1.89,1.64,2.28,4.28.89,5.89s-4,1.58-5.93-.07L860.65,498c-1.89-1.64-2.29-4.28-.9-5.88S863.8,490.53,865.69,492.17Z"/><path class="cls-21" d="M894.48,523.75s-2.06,2.38-7.38-2.27a5.36,5.36,0,0,1-1.73-5.17,7,7,0,0,0-2.76-6.79c-4.68-3.85-6.33-2.18-6.33-2.18"/><path class="cls-21" d="M892.64,520.88a5.32,5.32,0,0,0-6-2.13s-3.19,1.82-8-3.32c-4.48-4.78-3.7-7.67-3.7-7.67"/><path class="cls-21" d="M877.45,506.23a9.5,9.5,0,0,0,3.24,5.63s3.08,2.52,5.39,1.06,4.2.76,5.1,1.47A10.48,10.48,0,0,1,894,519.1"/><path class="cls-21" d="M875.09,506.1c4.32-2.3,6.89-.54,6.89-.54a5.21,5.21,0,0,1,2,6.2c-1.32,4.37,1.51,4.9,2.46,5.48a7.35,7.35,0,0,0,5.78-.29"/><path class="cls-22" d="M715.91,478.45c4.63-12.39,19-21.69,33.53-25.94,16.63-4.88,29.58-.66,43,5.72"/><polygon class="cls-23" points="790.18 459.4 791.81 457.96 791.9 455.79 795.32 459.64 790.18 459.4"/><path class="cls-24" d="M683.07,517.45s13-2.31,23.57-5.38V509l1.8-4.35,9-2.22,3.65,2.94a46.58,46.58,0,0,1,2.91,14l-1.8,3.82-8.78,1.8-4.65-4.27-.42-1.86-24.44,5.07L681.79,531,674,532.8l-4.65-2.54-1.38-1.59-1.9-7.51,2.75-7.5,7.93-1.8,5.61,4.55Z"/><path class="cls-25" d="M683.07,517.45s13-2.31,23.57-5.38V509l1.8-4.35,9-2.22,3.65,2.94a46.58,46.58,0,0,1,2.91,14l-1.8,3.82-8.78,1.8-4.65-4.27-.42-1.86-24.44,5.07L681.79,531,674,532.8l-4.65-2.54-1.38-1.59-1.9-7.51,2.75-7.5,7.93-1.8,5.61,4.55Z"/><path class="cls-24" d="M681.26,494.55s-12.22-5-22.8-8.05l-1.63,2.58L653,491.79l-8.79-2.93-1.52-4.43a46.75,46.75,0,0,1,5-13.36l3.56-2.27,8.38,3.17,1.65,6.1-.64,1.8L684,488.64l5.58-4.86,7.58,2.67,2.57,4.63.32,2.08-2.41,7.36-6.34,4.88-7.66-2.72-2.31-6.85Z"/><path class="cls-25" d="M681.26,494.55s-12.22-5-22.8-8.05l-1.63,2.58L653,491.79l-8.79-2.93-1.52-4.43a46.75,46.75,0,0,1,5-13.36l3.56-2.27,8.38,3.17,1.65,6.1-.64,1.8L684,488.64l5.58-4.86,7.58,2.67,2.57,4.63.32,2.08-2.41,7.36-6.34,4.88-7.66-2.72-2.31-6.85Z"/><polyline class="cls-26" points="677.51 514.33 676.24 518.3 678.94 528.76 681.48 530.35"/><polyline class="cls-26" points="718.92 505.2 718.92 509.32 721.38 520.51 722.49 521.86"/><polyline class="cls-26" points="686.87 501.51 690.07 498.83 693.38 488.55 692.09 485.85"/><polyline class="cls-26" points="647 487.09 649.2 483.61 653.11 472.83 652.89 471.1"/></g><g id="Layer_51" data-name="Layer 51"><text class="cls-6" transform="translate(1018.64 593.25)">eart<tspan class="cls-16" x="52.89" y="0">h</tspan><tspan class="cls-7" x="69.72" y="0">w</tspan><tspan x="93.15" y="0">or</tspan><tspan class="cls-27" x="120.33" y="0">m</tspan><tspan x="146.76" y="0">s/ </tspan><tspan x="-2.03" y="36">i</tspan><tspan class="cls-16" x="5.5" y="36">n</tspan><tspan class="cls-7" x="22.3" y="36">v</tspan><tspan x="36.91" y="36">er</tspan><tspan class="cls-8" x="62.98" y="36">t</tspan><tspan x="70.69" y="36">eb</tspan><tspan class="cls-8" x="106.15" y="36">r</tspan><tspan x="114.67" y="36">a</tspan><tspan class="cls-8" x="133.18" y="36">t</tspan><tspan class="cls-15" x="140.89" y="36">e</tspan><tspan x="157.69" y="36">s</tspan></text><path class="cls-28" d="M1050.17,529.74s5.2-18.06,22.39-16.56c12,1.05,20,11.43,20,11.43s7.91,9.4,13.53,3c4.43-5,1.63-14.81,1.63-14.81s-2.41-8.1-1.83-14.83c.55-6.5,5.56-14.07,16.06-13.81,24.67.6,12.36,31.09,12.36,31.09s-6.06,13.57,4.67,13.06c12.24-.58,7-13.76,7-13.76s-4-8.51-2.1-13.52c1.64-4.4,6.77,2.8,6.77,2.8s16.91,24.83-4.2,33.11c-11.9,4.67-21.25-2.17-22.62-10.65-1.17-7.19,2.25-14.44,2.25-14.44s6.14-15.49-3.65-17.12c-11.31-1.88-6.73,14.93-6.73,14.93s7.19,17.49-5.87,26.12-24-4.9-24-4.9-6.76-8-12.13-8a16.75,16.75,0,0,0-15.15,8.28s-3,4.2-7,2.1C1049,531.89,1050.17,529.74,1050.17,529.74Z"/><path class="cls-11" d="M1091.64,486.15c3.44-6.18-.47-11.84-5.18-15.92a8.59,8.59,0,0,0,3.4-.94,3.92,3.92,0,0,1,1-.62c1.17.88,2-.67,2-.67,1,.61,1.35-.3,1.35-.3.85.67,1.27.11,1.27.11.87.81,1.14.25,1.14.25a1,1,0,0,0,.95.39c1,1.24,1.54.91,1.54.91a1.44,1.44,0,0,0,.78.6c-1.06-1.2.46-1.41.46-1.41a1.19,1.19,0,0,0-1,.24,2.19,2.19,0,0,0-.91-.31c-.33,0-.75-.41-.75-.41-.18-.73-.91-.4-.91-.4-.32-.7-1.1-.34-1.1-.34-.55-.85-1.4-.14-1.4-.14-.85-.7-1.45.39-1.45.39-1.77-.63-2,.48-2,.48a7.24,7.24,0,0,0-5.09,1.58,49.18,49.18,0,0,0-9.28-5.9s1.33-1.45,1.17-2.13c-.09-.39.46-.76.46-.76,2-.23,2-1.22,2-1.22,1.27-.05,1.31-.82,1.31-.82a1.06,1.06,0,0,0,1.34-.51c1.08.35,1-.39,1-.39.77,0,.66-.66.66-.66,1.26-.95,1-1.38,1-1.38a1.38,1.38,0,0,0,.64-.78c-1.19,1.19-1.3-.5-1.3-.5a1.09,1.09,0,0,0,.09,1,2.71,2.71,0,0,0-.5,1.38c-.52-.16-.78.55-.78.55-.46-.28-1,.42-1,.42a1.05,1.05,0,0,0-1.38.49c-.92-.35-1.3.85-1.3.85-1.21-.36-2.12,1.33-2.12,1.33-2.17.25-2.38,2.94-2.38,2.94a3.86,3.86,0,0,0-3.66.83,8.62,8.62,0,0,0-2.53-4.2,3.59,3.59,0,0,0-.29-3c.46-.37,0-.88,0-.88a2.82,2.82,0,0,0-.24-2.7c1-1,.37-1.8.37-1.8.69-1.19.09-1.43.09-1.43.37-1.15-.32-1.21-.32-1.21.15-.84-.51-.94-.51-.94a1.85,1.85,0,0,0-1-1.37.75.75,0,0,0-.37-.64c.57,1.45-.9.91-.9.91.24.32.85.25.85.25.08.44,1.15,1.05,1.15,1.05a.72.72,0,0,0,.43.91c-.4.38.18,1,.18,1-.64.41-.1,1.31-.1,1.31s-.82.17-.57.92a3.62,3.62,0,0,1,.21,1.28c-1.35,1.24.08,2.71.08,2.71a.44.44,0,0,0,.1.6,2.07,2.07,0,0,0-.42,1.54,4.54,4.54,0,0,1-6.44-1.51s.45-.44-.46-1.18a1.25,1.25,0,0,0-1.73.24l-.39,0s1.94-4.85-1.52-11.59-2.53-10.79-2.53-10.79-1.86,2.88,2.11,10.77c3.43,6.84,1.54,11.46,1.54,11.46a1.07,1.07,0,0,0-.8.18c.52-1.71-1.57-2.83-1.57-2.83s-.21-.5-.59,0a.44.44,0,0,0,.12.72,2.66,2.66,0,0,0-1.92.95.84.84,0,0,0,.88.13.94.94,0,0,1,.8-.07.68.68,0,0,0-.36.43s.09.2,1.07,0,.81.37.81.37a2,2,0,0,0-2.25,2.77s-.56.29-.53-.71-.18-1.05-.18-1.05a.66.66,0,0,0-.35.44.93.93,0,0,1-.09-.8c.15-.45-.32-.83-.32-.83a2.72,2.72,0,0,0-.53,2.08.43.43,0,0,0-.72,0c-.38.47.15.57.15.57s1.53,1.81,3.09.95a1,1,0,0,0,0,.81s-4.12,2.82-11.53.9c-8.55-2.22-11,.19-11,.19s3.84-1.72,11.08.22,11.65-.95,11.65-.95l.06.39a1.24,1.24,0,0,0,.13,1.74c.91.73,1.25.21,1.25.21a3.46,3.46,0,0,0,1.93,1.22,3.51,3.51,0,0,0,.9,4.75,2.08,2.08,0,0,0-1.42.73.44.44,0,0,0-.61,0s-1.73-1.09-2.67.49a3.36,3.36,0,0,1-1.29.07c-.79-.09-.79.75-.79.75s-1-.34-1.25.37c0,0-.73-.44-1,0a.7.7,0,0,0-1-.24s-.83-.91-1.27-.9c0,0-.07-.61-.43-.77,0,0,.84,1.32-.7,1.06a.75.75,0,0,0,.7.23,1.87,1.87,0,0,0,1.56.7s.24.62,1,.3c0,0,.2.66,1.25.06,0,0,.36.54,1.39-.39,0,0,.89.47,1.67-.74a2.85,2.85,0,0,0,2.69-.32s.59.33.86-.19a3.59,3.59,0,0,0,3-.35,8.73,8.73,0,0,0,4.65,1.6,3.86,3.86,0,0,0-.05,3.75s-2.59.76-2.37,2.94c0,0-1.47,1.24-.86,2.35,0,0-1.09.63-.56,1.46a1,1,0,0,0-.19,1.45s-.58.63-.21,1c0,0-.64.41-.37.87a2.8,2.8,0,0,0-1.24.78,1.12,1.12,0,0,0-1,.12s1.67-.24.75,1.16a1.29,1.29,0,0,0,.63-.78s.48.17,1.15-1.26a.58.58,0,0,0,.51-.79s.73-.12.15-1.1a1.07,1.07,0,0,0,.23-1.42s.74-.2.52-1.45c0,0,1-.24.77-2.21,0,0,.25-.62.65-.61.7,0,1.84-1.59,1.84-1.59a48.86,48.86,0,0,0,7.71,7.83,7.24,7.24,0,0,0-.47,5.31s-1,.41-.07,2c0,0-.93.81-.08,1.5,0,0-.51,1,.43,1.33,0,0-.18.84.57,1,0,0-.17.78.58.8,0,0,.52.32.56.65a2.14,2.14,0,0,0,.5.82,1.17,1.17,0,0,0,0,1.06s-.11-1.54,1.29-.75a1.43,1.43,0,0,0-.75-.63s.21-.57-1.21-1.32a.94.94,0,0,0-.59-.84s.5-.38-.48-1.07c0,0,.46-.52-.37-1.22,0,0,.82-.5,0-1.38,0,0,1.34-1.13.23-2.09a3.9,3.9,0,0,1,.4-1.12,8.52,8.52,0,0,0,.2-3.52c5,3.75,11.33,6.39,16.65,1.73"/><path class="cls-24" d="M1161.75,473.13c.59-5.23-3.67-8.62-3.67-8.62a10.21,10.21,0,0,1-2.26-2.49c-1.3-2.85-5.18-4-5.18-4,.15-2.52-4.1-4.62-4.1-4.62-2.48-4.2-5.63-4.3-5.63-4.3-2-2.64-7.22-3-7.22-3-5-3.56-7.64-1.21-7.64-1.21a3.34,3.34,0,0,0-3.36-.08c-5-2.12-7.84,4-7.84,4a4,4,0,0,0-.32,1.34s-.38,1.68-3.09,1.48-5.41,1.95-5.41,1.95-1.31,1.34,2.88,1.31c0,0-1.92,2-.88,3.21s2.61-1.77,2.61-1.77a7.87,7.87,0,0,1,4.79-2.9,13.13,13.13,0,0,0,2.07,2.73,11.73,11.73,0,0,1,4-3.52c2.26-1,1.58,1.37,1.58,1.37a6.61,6.61,0,0,0,.37,6.2A21.82,21.82,0,0,1,1124,456a9,9,0,0,0,1.35,4.5c-.89-2.88,1.33-8.29,1.33-8.29l.94,1.55s-2.52,7.76.39,8.14c2.23.28,2.11-2.91,2.11-2.91a4.67,4.67,0,0,1,.81-3.73c1.85-2.76,2.62.39,2.62.39.52,7.2-2.92,10.81-2.92,10.81,1.9.21,3.2-1.77,3.2-1.77,4.39,1.86,3.08-4.59,2.8-5.83.52,1.71,3.69,1.66,3.69,1.66-.35,2.1,3.32,2.8,3.32,2.8a2.81,2.81,0,0,0,2.31,2.83c.84,3,9.79,8.34,9.79,8.34s5.41,3.91,6-1.32"/></g><g id="Layer_52" data-name="Layer 52"><text class="cls-6" transform="translate(1291.16 593.25)"><tspan class="cls-8">r</tspan><tspan class="cls-15" x="8.52" y="0">e</tspan><tspan x="25.32" y="0">spi</tspan><tspan class="cls-8" x="63.57" y="0">r</tspan><tspan x="72.09" y="0">ation</tspan></text><path class="cls-29" d="M1353.69,503.18l-9.33-6.24,9.53-3.75c0-.6,0-1.17.1-1.78a10.33,10.33,0,1,0-20.49-2.34,126.51,126.51,0,0,0,5.34,47.13l.07,0a11,11,0,0,0,.41,1.09,10.33,10.33,0,1,0,18.82-8.54S1354.07,520.33,1353.69,503.18Z"/><polygon class="cls-30" points="1388.61 502.62 1398.03 498.34 1399.01 487.67 1390.57 481.29 1381.15 485.57 1380.17 496.24 1388.61 502.62"/><line class="cls-30" x1="1399.01" y1="487.67" x2="1405.65" y2="484.65"/><line class="cls-30" x1="1403.91" y1="502.95" x2="1398.03" y2="498.34"/><line class="cls-30" x1="1388.61" y1="502.62" x2="1387.86" y2="510.13"/><line class="cls-30" x1="1390.57" y1="481.29" x2="1391.32" y2="473.77"/><line class="cls-30" x1="1373.53" y1="499.25" x2="1380.17" y2="496.24"/><polygon class="cls-30" points="1423.71 489.79 1426.4 479.37 1418.75 471.82 1408.43 474.69 1405.74 485.11 1413.38 492.66 1423.71 489.79"/><line class="cls-30" x1="1418.75" y1="471.82" x2="1420.65" y2="464.47"/><line class="cls-30" x1="1433.71" y1="477.47" x2="1426.4" y2="479.37"/><line class="cls-30" x1="1423.71" y1="489.78" x2="1429.05" y2="495.15"/><line class="cls-30" x1="1408.43" y1="474.69" x2="1403.09" y2="469.32"/><line class="cls-31" x1="1381.03" y1="485.79" x2="1375.37" y2="480.76"/><line class="cls-30" x1="1411.49" y1="500.01" x2="1413.38" y2="492.66"/><polygon class="cls-30" points="1435.31 453.4 1428.72 444.92 1418.11 446.42 1414.09 456.4 1420.69 464.88 1431.3 463.38 1435.31 453.4"/><line class="cls-30" x1="1418.11" y1="446.42" x2="1413.45" y2="440.44"/><line class="cls-30" x1="1431.67" y1="437.93" x2="1428.72" y2="444.92"/><line class="cls-30" x1="1435.31" y1="453.4" x2="1442.81" y2="452.41"/><line class="cls-30" x1="1414.09" y1="456.4" x2="1406.6" y2="457.39"/><line class="cls-30" x1="1435.96" y1="469.36" x2="1431.3" y2="463.38"/><ellipse class="cls-32" cx="1288.38" cy="432.45" rx="30.42" ry="30.55"/><text class="cls-33" transform="translate(1263.58 442.06) scale(1.07 1)"><tspan class="cls-34">C</tspan><tspan x="15.73" y="0">O2</tspan></text><path class="cls-35" d="M1321.17,507.27c-8.19,2.68-17.42-.51-23.89-5.77-7.12-5.77-8.61-13.24-8.93-21.73"/><polygon class="cls-36" points="1290.34 481.08 1288.45 480.39 1286.64 481.26 1288.28 476.79 1290.34 481.08"/></g><g id="Layer_53" data-name="Layer 53"><path class="cls-37" d="M1409.94,105c0,5.1-17.18,9.24-38.37,9.24s-38.36-4.14-38.36-9.24l9.37,68.24c0,3.86,13,7,29,7s29-3.12,29-7Z"/><ellipse class="cls-38" cx="1371.57" cy="105.02" rx="38.37" ry="9.25"/><ellipse class="cls-39" cx="1371.57" cy="173.26" rx="28.99" ry="6.99"/><ellipse class="cls-39" cx="1371.54" cy="132.56" rx="34.84" ry="8.4"/><ellipse class="cls-40" cx="1371.57" cy="105.02" rx="38.37" ry="9.25"/><path class="cls-39" d="M1342.58,173.26c0,3.86,13,7,29,7s29-3.12,29-7l5.81-40.7c0-4.63-15.59-8.39-34.83-8.39s-34.84,3.76-34.84,8.39Z"/><path class="cls-28" d="M1414.47,60.43s34.26-15.94,51.4-18.19c4.82-.63,9.5,1.71,10.68,6.43a8.83,8.83,0,0,1-6.43,10.68c-.25.06-.51.11-.76.15,0,0-43.29-.13-49.66,9.94s-4.07,12.07-15.39,14.89c-15.84,3.94-21.51-5.55-23-11.54s17.42-10.92,17.42-10.92,9.65-2.29,15.74-1.44h0"/><path class="cls-41" d="M1414.76,65.24a.34.34,0,0,0,0-.1,1.43,1.43,0,0,0-.08-.22,17.71,17.71,0,0,0-5.87-8.44c-.34-.28-.7-.56-1-.87l-.45-.13a6.57,6.57,0,0,0-1.88-.06l-3.8.25a7.14,7.14,0,0,0-2.56.48c-1.6.73-2.54,2.55-4.21,3.08-.81.25-1.69.16-2.52.38a19,19,0,0,0-2.8,1.43c-.71.33-1.49.51-2.19.87a4.51,4.51,0,0,0-1.78,1.67,6.27,6.27,0,0,1-.31,1.78c-.24.67-.68,1.26-.92,1.92-.56,1.53-.07,3.23.42,4.78l.11.5c.55,2.23,7.68,2.37,15.92.32,7.49-1.87,13.32-4.9,13.91-7.1l.17,0C1414.86,65.57,1414.81,65.41,1414.76,65.24Z"/><path class="cls-42" d="M1403.06,58.34a6.76,6.76,0,0,1,2.44,1.47c.18.17.35.38.29.61"/><path class="cls-42" d="M1390.05,66.46a1.09,1.09,0,0,0-.69,1,5.18,5.18,0,0,1-.2,1.25,1.85,1.85,0,0,0-.27.73"/><path class="cls-42" d="M1403.15,66a2.24,2.24,0,0,1,1.79.94"/><path class="cls-43" d="M1365.94,89.44c-.43.12-.47.54-.4,1s.1.78.85,1c1.16.06,1.12-1.3.62-1.92a.89.89,0,0,0-1.07,0"/><path class="cls-43" d="M1378.32,80.05c-.17-.36-.67-.78-1-.53s-.68.53-.53.9.93.51,1.47.41c.11-.5.35-.47,0-.78"/><path class="cls-43" d="M1375.12,87.37c-.35,0-.42.64-.32.78.21.3.3.53.67.54a.71.71,0,1,0-.35-1.32"/><path class="cls-43" d="M1372.81,123.85c-.25.37,0,.72.34,1a.9.9,0,0,0,1.29.18c.91-.71,0-1.71-.79-1.85a.9.9,0,0,0-.84.67"/><path class="cls-43" d="M1376,108.65c-.37-.16-1-.16-1.09.24s-.17.85.19,1,1-.23,1.38-.66c-.24-.45,0-.58-.48-.61"/><path class="cls-43" d="M1378.4,116.27c-.27.23.1.76.27.8.36.1.57.21.86,0a.72.72,0,1,0-1.13-.78"/><path class="cls-43" d="M1369.36,133c.4-.19.37-.62.23-1s-.22-.75-1-.83c-1.14.13-.89,1.46-.3,2a.9.9,0,0,0,1.07-.13"/><path class="cls-43" d="M1378.33,125.74c-.37-.16-1-.16-1.09.24s-.17.85.19,1,1-.22,1.38-.66c-.24-.44,0-.58-.48-.61"/><path class="cls-43" d="M1371.66,150.13c.4-.19.37-.61.24-1s-.23-.76-1-.84c-1.14.13-.89,1.47-.29,2a.89.89,0,0,0,1.06-.13"/><path class="cls-43" d="M1375.38,143.33c.4-.18.38-.61.24-1s-.23-.75-1-.83c-1.15.13-.9,1.46-.3,2a.88.88,0,0,0,1.06-.14"/><path class="cls-43" d="M1358.65,144.29c.23.33.79.67,1,.37s.59-.64.38-1-1-.35-1.52-.16c0,.51-.27.51.09.77"/><path class="cls-43" d="M1360.63,136.56c.35-.06.31-.7.19-.83s-.38-.47-.75-.42a.71.71,0,1,0,.56,1.25"/><path class="cls-43" d="M1372.77,160.94c0,.44.38.61.82.68s.77.14,1.19-.52c.41-1.08-.89-1.46-1.64-1.17a.9.9,0,0,0-.37,1"/><path class="cls-43" d="M1367.61,146.28c-.4.06-1,.4-.81.77s.3.82.7.79.76-.73.83-1.28c-.43-.26-.33-.48-.72-.28"/><path class="cls-43" d="M1373.6,151.56c-.11.33.48.59.65.54.35-.1.59-.12.72-.47a.72.72,0,1,0-1.37-.07"/><path class="cls-43" d="M1379.63,102.27a.85.85,0,0,0-.76,1.14.79.79,0,0,0,1.33,0c.25-.49-.06-1.37-.57-1.19"/><path class="cls-43" d="M1371.66,106.67a.84.84,0,0,0-.76,1.14.78.78,0,0,0,1.32,0c.25-.49,0-1.37-.56-1.19"/><path class="cls-44" d="M1409.94,105c0,5.1-17.18,9.24-38.37,9.24s-38.36-4.14-38.36-9.24l9.37,68.24c0,3.86,13,7,29,7s29-3.12,29-7Z"/><text class="cls-6" transform="translate(1327.97 242.64)"><tspan class="cls-45">s</tspan><tspan x="12.15" y="0">alinit</tspan><tspan class="cls-10" x="77.91" y="0">y</tspan></text></g><g id="Layer_54" data-name="Layer 54"><text class="cls-6" transform="translate(1157.61 242.64)">pH</text><rect class="cls-46" x="1116.81" y="27.8" width="24" height="24" transform="translate(1168.61 -1089.01) rotate(90)"/><rect class="cls-47" x="1116.81" y="53.8" width="24" height="24" transform="translate(1194.61 -1063.01) rotate(90)"/><rect class="cls-36" x="1116.81" y="79.8" width="24" height="24" transform="translate(1220.61 -1037.01) rotate(90)"/><rect class="cls-48" x="1116.81" y="105.8" width="24" height="24" transform="translate(1246.61 -1011.01) rotate(90)"/><rect class="cls-49" x="1116.81" y="131.8" width="24" height="24" transform="translate(1272.61 -985.01) rotate(90)"/><rect class="cls-11" x="1116.81" y="157.8" width="24" height="24" transform="translate(1298.61 -959.01) rotate(90)"/><rect class="cls-50" x="1116.81" y="183.8" width="24" height="24" transform="translate(1324.61 -933.01) rotate(90)"/><circle class="cls-51" cx="1186.88" cy="80.36" r="10.83"/><text class="cls-52" transform="matrix(-1, 0, 0, 1, 1192.59, 86.14)">H</text><path class="cls-53" d="M1191.36,70.37h2v-2h1.92v2h1.93v1.88h-1.93v2h-1.92v-2h-2Z"/><circle class="cls-51" cx="1224.44" cy="109.96" r="10.83"/><text class="cls-52" transform="matrix(-1, 0, 0, 1, 1230.14, 115.74)">H</text><path class="cls-53" d="M1228.92,100h2V98h1.92v2h1.93v1.88h-1.93v2h-1.92v-2h-2Z"/><circle class="cls-51" cx="1224.44" cy="84.78" r="10.83"/><text class="cls-52" transform="matrix(-1, 0, 0, 1, 1230.14, 90.56)">H</text><path class="cls-53" d="M1228.92,74.79h2v-2h1.92v2h1.93v1.88h-1.93v2h-1.92v-2h-2Z"/><circle class="cls-51" cx="1189.98" cy="136.03" r="10.83"/><text class="cls-52" transform="matrix(-1, 0, 0, 1, 1195.68, 141.81)">H</text><path class="cls-53" d="M1194.45,126h2v-2h1.91v2h1.93v1.88h-1.93v2h-1.91v-2h-2Z"/><circle class="cls-51" cx="1197.93" cy="104.22" r="10.83"/><text class="cls-52" transform="matrix(-1, 0, 0, 1, 1203.63, 110)">H</text><path class="cls-53" d="M1202.41,94.23h2v-2h1.92v2h1.93v1.88h-1.93v2h-1.92v-2h-2Z"/><circle class="cls-51" cx="1215.6" cy="135.59" r="10.83"/><text class="cls-52" transform="matrix(-1, 0, 0, 1, 1221.31, 141.37)">H</text><path class="cls-53" d="M1220.08,125.6h2v-2H1224v2H1226v1.88H1224v2h-1.92v-2h-2Z"/><circle class="cls-51" cx="1200.58" cy="167.4" r="10.83"/><text class="cls-52" transform="matrix(-1, 0, 0, 1, 1206.28, 173.18)">H</text><path class="cls-53" d="M1205.06,157.41h2v-2H1209v2h1.93v1.88H1209v2h-1.92v-2h-2Z"/><circle class="cls-51" cx="1225.77" cy="161.22" r="10.83"/><text class="cls-52" transform="matrix(-1, 0, 0, 1, 1231.47, 167)">H</text><path class="cls-53" d="M1230.24,151.23h2v-2h1.91v2h1.93v1.88h-1.93v2h-1.91v-2h-2Z"/><circle class="cls-51" cx="1174.07" cy="112.17" r="10.83"/><text class="cls-52" transform="matrix(-1, 0, 0, 1, 1179.77, 117.95)">H</text><path class="cls-53" d="M1178.55,102.18h2v-2h1.92v2h1.93v1.88h-1.93v2h-1.92v-2h-2Z"/><circle class="cls-51" cx="1174.07" cy="161.66" r="10.83"/><text class="cls-52" transform="matrix(-1, 0, 0, 1, 1179.77, 167.44)">H</text><path class="cls-53" d="M1178.55,151.67h2v-2h1.92v2h1.93v1.88h-1.93v2h-1.92v-2h-2Z"/><circle class="cls-51" cx="1246.98" cy="129.85" r="10.83"/><text class="cls-52" transform="matrix(-1, 0, 0, 1, 1252.68, 135.63)">H</text><path class="cls-53" d="M1251.45,119.86h2v-2h1.91v2h1.93v1.88h-1.93v2h-1.91v-2h-2Z"/></g><g id="Layer_55" data-name="Layer 55"><text class="cls-6" transform="translate(887.74 244.26)">nutrient <tspan x="-48.85" y="36">co</tspan><tspan class="cls-7" x="-14.96" y="36">n</tspan><tspan x="1.69" y="36">cent</tspan><tspan class="cls-8" x="59.89" y="36">r</tspan><tspan x="68.41" y="36">atio</tspan><tspan class="cls-27" x="120.82" y="36">n</tspan><tspan x="138.13" y="36">s</tspan></text><circle class="cls-54" cx="959.98" cy="108" r="7.44"/><text class="cls-55" transform="translate(956.72 111.71)">K</text><path class="cls-56" d="M966.64,102.44h-1.31v1.3h-1.25v-1.3h-1.25v-1.22h1.25V99.93h1.25v1.29h1.31Z"/><circle class="cls-57" cx="945.09" cy="67.97" r="7.9"/><text class="cls-58" transform="translate(938.82 70.61)"><tspan class="cls-59">M</tspan><tspan x="7.01" y="0">g</tspan></text><path class="cls-60" d="M948.53,63c.51-.52,1-1.08,1.51-1.58a1.33,1.33,0,0,0,.45-.82.45.45,0,0,0-.45-.45c-.32,0-.52.31-.51.67l-1.18-.32A1.68,1.68,0,0,1,950,58.9a1.59,1.59,0,0,1,1.68,1.52A2.14,2.14,0,0,1,951,62l-.49.56h1.26v1.19h-3.19Z"/><path class="cls-60" d="M954.75,62.07h-.89V63H953v-.88h-.85v-.83H953v-.88h.85v.88h.89Z"/><circle class="cls-61" cx="911.51" cy="97.18" r="8.94"/><text class="cls-62" transform="matrix(0.99, -0.13, 0.13, 0.99, 905.36, 101.2)">C<tspan class="cls-63" x="6.2" y="0">a</tspan></text><path class="cls-64" d="M914.63,90.32c.47-.62,1-1.3,1.41-1.9a1.45,1.45,0,0,0,.37-.94.49.49,0,0,0-.54-.42c-.35,0-.52.4-.47.78l-1.3-.18a1.8,1.8,0,0,1,1.59-2,1.73,1.73,0,0,1,2,1.4,2.31,2.31,0,0,1-.62,1.77c-.14.21-.31.45-.45.67l1.35-.17.16,1.27-3.42.44Z"/><path class="cls-64" d="M921.19,88.48l-1,.12.11,1-.9.12-.12-1-.92.11-.11-.89.91-.11-.12-1,.91-.11.12.94,1-.12Z"/><circle class="cls-65" cx="909.36" cy="191.51" r="8.63"/><text class="cls-66" transform="translate(903.3 193.82)">Mn</text><path class="cls-67" d="M912.94,185.55l1.35-1.56a1.68,1.68,0,0,0,.49-1,.54.54,0,0,0-.55-.53.65.65,0,0,0-.6.72l-.83-.22a1.43,1.43,0,0,1,1.43-1.38,1.36,1.36,0,0,1,1.43,1.32,2,2,0,0,1-.63,1.35c-.19.25-.4.5-.61.74h1.27v.85h-2.75Z"/><path class="cls-67" d="M918.42,184.37h-.82v.83h-.68v-.83h-.8v-.66h.8v-.8h.68v.8h.82Z"/><circle class="cls-68" cx="937.92" cy="141.98" r="7.8"/><path class="cls-69" d="M941.15,136.6l1.22-1.42a1.49,1.49,0,0,0,.44-.86.48.48,0,0,0-.49-.49.6.6,0,0,0-.55.66l-.74-.21a1.28,1.28,0,0,1,1.29-1.24,1.22,1.22,0,0,1,1.29,1.19,1.83,1.83,0,0,1-.57,1.22c-.17.23-.36.45-.55.67h1.15v.77h-2.49Z"/><path class="cls-69" d="M946.1,135.53h-.74v.75h-.61v-.75H944v-.6h.72v-.73h.61v.73h.74Z"/><text class="cls-70" transform="translate(933.67 144.48)">Zn</text><line class="cls-71" x1="1009.14" y1="85.24" x2="1008.05" y2="84.57"/><circle class="cls-72" cx="1001.61" cy="81.46" r="9.67"/><text class="cls-73" transform="matrix(0.95, 0.3, -0.3, 0.95, 993.12, 81.84)">NH4</text><path class="cls-74" d="M1012.86,79.28l-1.54-.49-.49,1.56-1.28-.4.5-1.57-1.51-.48.4-1.23,1.5.47.49-1.51,1.27.4-.48,1.52,1.54.49Z"/><circle class="cls-75" cx="997.09" cy="150.4" r="15.98"/><path class="cls-76" d="M1012.24,141.48a2.65,2.65,0,0,1-3.45,1.6,2.85,2.85,0,0,1-2.08-2.8l1.91-.34a1.23,1.23,0,0,0,.76,1.21.8.8,0,0,0,1-.51.79.79,0,0,0-.55-1,1.28,1.28,0,0,0-.75,0l-.39-1.16,2-1-2.4-.78.61-1.87,4.44,1.45-.57,1.73-1.48.74A2.42,2.42,0,0,1,1012.24,141.48Z"/><path class="cls-76" d="M1013.41,140.07l3.4,1.1-.5,1.55-3.41-1.11Z"/><circle class="cls-77" cx="961.32" cy="185.57" r="9.42"/><text class="cls-78" transform="translate(955.28 190.36) rotate(-15.48)">NO3</text><path class="cls-79" d="M964.32,178.05l5.4-1.49.62,2.22-5.41,1.5Z"/><circle class="cls-80" cx="879.79" cy="144.69" r="17.98"/><text class="cls-81" transform="matrix(0.99, -0.11, 0.11, 0.99, 867.92, 151.85)"><tspan class="cls-82">S</tspan><tspan x="8.68" y="0">O4</tspan></text><path class="cls-83" d="M888.85,132.76c1-1.29,2-2.68,2.95-3.93a3,3,0,0,0,.77-1.93,1,1,0,0,0-1.11-.87,1.28,1.28,0,0,0-1,1.6l-2.7-.39a3.73,3.73,0,0,1,3.33-4,3.56,3.56,0,0,1,4.15,2.93,4.81,4.81,0,0,1-1.31,3.64c-.3.43-.65.93-1,1.38l2.8-.33.31,2.64-7.08.84Z"/><path class="cls-84" d="M896.62,127l5.33-.63.26,2.19-5.34.63Z"/><text class="cls-85" transform="translate(985.08 152.15) rotate(14.1)">PO4</text><circle class="cls-86" cx="856.55" cy="94.49" r="7.6"/><path class="cls-87" d="M853.66,92.26l.08,1.5,1.66-.09.07,1.26-1.66.09.13,2.32-1.34.07L852.25,91l3.68-.2.07,1.29Z"/><path class="cls-87" d="M860.69,95.11l-3.13.17a1.13,1.13,0,0,0,1.2.69,3.37,3.37,0,0,0,1.42-.44l.07,1.17a3.18,3.18,0,0,1-1.53.45,2.35,2.35,0,0,1-.35-4.69C859.85,92.38,860.73,93.6,860.69,95.11Zm-3.17-.65,1.85-.1a.94.94,0,0,0-.94-.69A1,1,0,0,0,857.52,94.46Z"/><path class="cls-88" d="M857.85,88.72c.37-.46.75-1,1.12-1.45a1.5,1.5,0,0,0,.39-.88.47.47,0,0,0-.51-.44.57.57,0,0,0-.5.67l-.75-.16a1.26,1.26,0,0,1,1.2-1.29,1.22,1.22,0,0,1,1.34,1.1,1.81,1.81,0,0,1-.5,1.23l-.5.69,1.13-.06,0,.75-2.45.13Z"/><path class="cls-88" d="M862.65,87.41l-.72,0,0,.74-.6,0,0-.74-.71,0,0-.59.72,0,0-.71.6,0,0,.72.72,0Z"/></g><g id="Layer_56" data-name="Layer 56"><text class="cls-6" transform="translate(613.23 242.64)"><tspan class="cls-45">s</tspan><tspan x="12.15" y="0">oil o</tspan><tspan class="cls-8" x="72.93" y="0">r</tspan><tspan x="81.45" y="0">ganic </tspan><tspan class="cls-7" x="36.28" y="36">m</tspan><tspan x="62.05" y="36">at</tspan><tspan class="cls-8" x="88.87" y="36">t</tspan><tspan x="96.58" y="36">er</tspan></text><path class="cls-89" d="M771.54,161.83a10.16,10.16,0,0,0-2.1-2,12.87,12.87,0,0,0-8.94-2,17.3,17.3,0,0,0,.54-11.63c-2.43-7.76-9.76-12.32-18.35-14.26a30.61,30.61,0,0,0-21.29,3,6.71,6.71,0,0,0-4.17-4.89,8.86,8.86,0,0,0-4.46-.46,6.47,6.47,0,0,0-2.89,1c-2.81-8-10.29-12.91-19.06-13-6.61-.06-19.42,2.18-24.32,15a19.29,19.29,0,0,0-.85,6.45,12.82,12.82,0,0,0-9,.12,10.68,10.68,0,0,0-5.77,5.32,14.07,14.07,0,0,0-4.67-1.91,19.77,19.77,0,0,0-17.46,4.56,14.38,14.38,0,0,0-4,14.39c-6,.52-8.74,7.05-9,12.32a8.17,8.17,0,0,0,5.41,8.23c6.42,2.65,14.76,1.51,21.55,1.69,14.44.39,28.83,1.5,43.27,1.8q9.33.21,18.68.09c6.2-.1,12.4-.33,18.59-.73q5.5-.34,11-.89l2.29-.24c2.68-.3,5.32-.88,8-1,7.45-.4,15.45,2.08,22.48-1.42a11.79,11.79,0,0,0,6.11-7.22C774.26,170.29,774.13,165.1,771.54,161.83Z"/></g><g id="Layer_57" data-name="Layer 57"><text class="cls-6" transform="translate(296.6 261.83)">infilt<tspan class="cls-8" x="54.42" y="0">r</tspan><tspan x="62.94" y="0">ation </tspan><tspan class="cls-8" x="142.8" y="0">r</tspan><tspan x="151.32" y="0">a</tspan><tspan class="cls-8" x="169.83" y="0">t</tspan><tspan x="177.54" y="0">e</tspan></text><circle class="cls-90" cx="396.67" cy="78.94" r="25.14"/><line class="cls-90" x1="396.67" y1="55.82" x2="396.67" y2="60.31"/><line class="cls-90" x1="385.11" y1="58.92" x2="387.36" y2="62.8"/><line class="cls-90" x1="376.65" y1="67.38" x2="380.54" y2="69.62"/><line class="cls-90" x1="373.56" y1="78.94" x2="378.04" y2="78.94"/><line class="cls-90" x1="376.65" y1="90.49" x2="380.54" y2="88.25"/><line class="cls-90" x1="385.11" y1="98.95" x2="387.36" y2="95.07"/><line class="cls-90" x1="396.67" y1="102.05" x2="396.67" y2="97.56"/><line class="cls-90" x1="408.23" y1="98.95" x2="405.99" y2="95.07"/><line class="cls-90" x1="416.69" y1="90.49" x2="412.8" y2="88.25"/><line class="cls-90" x1="419.79" y1="78.94" x2="415.3" y2="78.94"/><line class="cls-90" x1="416.69" y1="67.38" x2="412.8" y2="69.62"/><line class="cls-90" x1="408.23" y1="58.92" x2="405.99" y2="62.8"/><line class="cls-90" x1="396.67" y1="64.85" x2="396.67" y2="78.94"/><polygon class="cls-28" points="394.83 66.25 396.67 65.47 398.52 66.25 396.67 61.88 394.83 66.25"/><line class="cls-90" x1="402.95" y1="85.2" x2="396.7" y2="78.95"/><polygon class="cls-28" points="403.19 83.48 402.62 84.87 401.23 85.43 404.53 86.78 403.19 83.48"/><path class="cls-91" d="M394.54,85.88a7.11,7.11,0,1,1,9.22-6.29"/><polygon class="cls-92" points="402.8 78.64 403.75 79.24 404.85 78.96 403.45 81.23 402.8 78.64"/><path class="cls-93" d="M393.47,114.8c-.52,4.24-1.22,8.4-1.76,12.62-.59,4.71,1.31,7.33,5.29,10.9,3.35,3,4.87,7,3.83,10.75-1.79,6.36-12.93,7.3-15.55,13.39a6.68,6.68,0,0,0,2.28,8.09c2.56,2,6.49,2.89,9.33,4.7,5,3.2,5.64,8.63,4.18,13.27s-4.62,9-5.93,13.61a24.73,24.73,0,0,0-.13,11.54"/><polygon class="cls-94" points="388.34 210.8 394.64 211.74 399.7 207.86 397.5 222.8 388.34 210.8"/><path class="cls-95" d="M377.4,115.38a4.62,4.62,0,0,1-1.11,3.75c-2.34,2.42-7.65,2.25-11.21,3.24-3,.83-5.19,2.48-5.95,4.7s.39,4.28,1.64,6.26c1.67,2.65,2.21,5.28-1.68,7.16-5.66,2.73-13.43,1.54-18.65,4.89-2.09,1.33-3.27,3.16-4.77,4.8-.25.27-.52.54-.79.8"/><polygon class="cls-94" points="335.99 144.81 336.12 149.91 339.88 153.35 327.81 153.69 335.99 144.81"/><path class="cls-95" d="M416.79,115.11a4.4,4.4,0,0,0,.32,3.82c1.81,2.64,7.09,3,10.41,4.35,2.81,1.13,4.61,3,4.89,5.26s-1.28,4.19-2.93,6c-2.21,2.46-3.29,5,.16,7.25,5,3.29,13,2.9,17.42,6.74,1.78,1.54,2.57,3.46,3.71,5.24l.41.6"/><polygon class="cls-94" points="445.92 155.94 450.15 153.09 451.04 148.07 457.81 158.07 445.92 155.94"/><path class="cls-94" d="M379.18,138a4.88,4.88,0,0,0-1.16,2.52c-.17.92-.19,1.86-.31,2.81a8.4,8.4,0,0,1-2.54,5,12.92,12.92,0,0,1-5,2.79,29.39,29.39,0,0,0-5.15,2.1,11.79,11.79,0,0,0-4,3.6,7.71,7.71,0,0,0-1.07,2.38,9.41,9.41,0,0,0-.19,2.63,16.45,16.45,0,0,1-.08,3,8.41,8.41,0,0,1-1.06,2.9,13.61,13.61,0,0,1-4.11,4.36l-1-1.55a11.72,11.72,0,0,0,3.74-3.64,6.86,6.86,0,0,0,1-2.33,15.23,15.23,0,0,0,.17-2.68,11.07,11.07,0,0,1,.35-3,8.89,8.89,0,0,1,1.35-2.7,12.83,12.83,0,0,1,4.48-3.75,30,30,0,0,1,5.38-1.95,12.4,12.4,0,0,0,4.9-2.46,8.08,8.08,0,0,0,2.62-4.76c.16-.92.21-1.87.43-2.79A4.91,4.91,0,0,1,379.18,138Z"/><polygon class="cls-94" points="354.77 166.36 355.11 170.6 358.4 173.29 348.37 174.13 354.77 166.36"/><path class="cls-94" d="M411.56,137.52l.41,5.35a7.36,7.36,0,0,0,2,4.72,11.57,11.57,0,0,0,4.36,2.84,24.61,24.61,0,0,1,4.84,2.48,11,11,0,0,1,3.61,4.25,7.87,7.87,0,0,1,.71,2.8,10.89,10.89,0,0,1-.26,2.83,16.43,16.43,0,0,0-.4,2.54,5.63,5.63,0,0,0,.06,1.17,9.15,9.15,0,0,0,.31,1.17,9.76,9.76,0,0,0,2.78,4L428.77,173a11.29,11.29,0,0,1-3.06-4.85,8.79,8.79,0,0,1-.31-1.44,6.87,6.87,0,0,1,0-1.5,19.81,19.81,0,0,1,.55-2.74,9.45,9.45,0,0,0,.35-2.48,6.65,6.65,0,0,0-.51-2.39,9.81,9.81,0,0,0-3.1-4,23.79,23.79,0,0,0-4.58-2.59,12.08,12.08,0,0,1-4.42-3.18,7.67,7.67,0,0,1-1.92-5Z"/><polygon class="cls-94" points="424.81 173.63 428.45 171.44 429.4 167.3 434.61 175.9 424.81 173.63"/></g><g id="Layer_58" data-name="Layer 58"><text class="cls-6" transform="translate(49.67 264.66)">agg<tspan class="cls-8" x="55.53" y="0">r</tspan><tspan x="64.05" y="0">ega</tspan><tspan class="cls-8" x="118.02" y="0">t</tspan><tspan x="125.73" y="0">e </tspan><tspan class="cls-96" x="21" y="36">s</tspan><tspan class="cls-8" x="32.73" y="36">t</tspan><tspan x="40.44" y="36">abilit</tspan><tspan class="cls-97" x="107.61" y="36">y</tspan></text><polygon class="cls-98" points="106.77 194.2 92.94 193.33 86.78 180.92 94.44 169.38 108.27 170.25 114.43 182.66 106.77 194.2"/><polygon class="cls-99" points="108.72 213.61 94.9 212.74 88.73 200.34 96.4 188.79 110.22 189.66 116.39 202.07 108.72 213.61"/><polygon class="cls-100" points="89.13 199.63 75.3 198.77 69.14 186.36 76.8 174.82 90.63 175.69 96.79 188.09 89.13 199.63"/><path class="cls-101" d="M73.14,194.72c6,3.59,10.07,3.35,12.64,2.56,6.94-2.14,8.48-10.05,16.11-12.66a16.46,16.46,0,0,1,10.66.3"/><path class="cls-102" d="M112.31,206.64A16.44,16.44,0,0,0,106,198c-6.74-4.42-13.93-.79-19.87-5-2.2-1.55-4.9-4.64-5.73-11.55-.34-2.82.32-4.12.62-6.94"/><polygon class="cls-98" points="164.79 147.86 156.34 160.88 140.84 160.07 133.78 146.24 142.23 133.22 157.73 134.03 164.79 147.86"/><polygon class="cls-99" points="184.81 156.62 176.36 169.64 160.86 168.84 153.81 155.01 162.26 141.99 177.76 142.79 184.81 156.62"/><polygon class="cls-100" points="167.82 168.29 159.37 181.31 143.87 180.5 136.81 166.67 145.26 153.65 160.76 154.46 167.82 168.29"/><path class="cls-103" d="M146.81,181c6.78-3.86,8.8-8,9.44-10.94,1.73-7.95-5.14-13.8-3.5-22.67a18.44,18.44,0,0,1,6.17-10.25"/><path class="cls-104" d="M137.9,166.6c7.2,3,11.7,2.06,14.43.76,7.34-3.5,7.75-12.52,15.77-16.66A18.37,18.37,0,0,1,180,149.29"/><path class="cls-105" d="M101.87,228.78a66.11,66.11,0,0,1-17.12-4.44,64.31,64.31,0,0,1-26-19.63"/><polygon class="cls-23" points="99.13 224.31 100.51 228.56 98.41 232.5 108.48 229.26 99.13 224.31"/><path class="cls-105" d="M114.42,87.56a65.65,65.65,0,0,1,17.33,3.54,64.36,64.36,0,0,1,27,18.22"/><polygon class="cls-23" points="117.39 91.89 115.79 87.72 117.68 83.67 107.79 87.43 117.39 91.89"/><polygon class="cls-98" points="105.31 126.04 91.24 126.52 83.79 114.58 90.41 102.15 104.48 101.67 111.93 113.61 105.31 126.04"/><polygon class="cls-99" points="109.2 145.48 95.13 145.96 87.68 134.02 94.29 121.59 108.36 121.11 115.82 133.05 109.2 145.48"/><polygon class="cls-100" points="88.01 133.27 73.94 133.75 66.49 121.81 73.1 109.39 87.17 108.9 94.63 120.84 88.01 133.27"/><path class="cls-106" d="M69.68,126.1a6.21,6.21,0,0,0,5.4,3.2,14.17,14.17,0,0,0,6.34-1.59,41.32,41.32,0,0,0,10.45-6.88,21.27,21.27,0,0,1,2.79-2.33c4.3-2.78,10.67-3.58,15.59-2.41"/><path class="cls-107" d="M113.53,136.14a16.68,16.68,0,0,0-8-7.33c-7.59-3.07-14,2-20.79-1-2.5-1.11-5.8-3.65-8-10.37-.75-2.28-2.52-4.79-3.15-7.1"/><text class="cls-108" transform="matrix(0.99, 0.1, -0.1, 0.99, 166.75, 164.27)">C</text><text class="cls-108" transform="matrix(0.99, 0.1, -0.1, 0.99, 140.99, 148.22)">C</text><text class="cls-109" transform="matrix(0.99, 0.1, -0.1, 0.99, 97.74, 206.78)">C</text><text class="cls-110" transform="translate(97.78 141.07) rotate(0.46)">C</text><text class="cls-110" transform="translate(94.04 114.19) rotate(0.46)">C</text><text class="cls-111" transform="translate(83.52 187.88) rotate(-6.44)">C</text><text class="cls-112" transform="matrix(0.93, 0.37, -0.37, 0.93, 109.8, 107.43)">C</text></g></g></g></svg>