<svg xmlns="http://www.w3.org/2000/svg" viewBox="0 0 586 403.07"><defs><style>.cls-1{font-size:40px;fill:#fecf08;font-family:Acre-Light, Acre;font-weight:300;}.cls-2{letter-spacing:-0.01em;}.cls-3{letter-spacing:-0.02em;}.cls-4{letter-spacing:0.01em;}.cls-5{font-size:19.94px;fill:#5c5052;font-family:Acre-Thin, Acre;font-weight:200;}.cls-6{letter-spacing:-0.02em;}.cls-7{letter-spacing:-0.01em;}.cls-8{letter-spacing:-0.02em;}.cls-20,.cls-29,.cls-31,.cls-34,.cls-9{fill:#6d54a3;}.cls-20,.cls-42,.cls-9{stroke:#ec6a7c;}.cls-11,.cls-12,.cls-15,.cls-16,.cls-19,.cls-20,.cls-21,.cls-22,.cls-23,.cls-24,.cls-25,.cls-26,.cls-27,.cls-29,.cls-30,.cls-31,.cls-32,.cls-34,.cls-35,.cls-38,.cls-39,.cls-41,.cls-42,.cls-43,.cls-9{stroke-miterlimit:10;}.cls-9{stroke-width:0.74px;}.cls-10{font-size:10.93px;}.cls-10,.cls-13,.cls-17,.cls-21,.cls-25,.cls-28,.cls-33,.cls-36,.cls-40,.cls-42{fill:#fff;}.cls-10,.cls-13,.cls-17,.cls-28,.cls-33,.cls-36,.cls-40{font-family:Acre-Bold, Acre;font-weight:700;}.cls-11,.cls-22,.cls-41{fill:#ec6a7c;}.cls-11,.cls-15,.cls-19,.cls-21,.cls-22,.cls-24,.cls-25,.cls-29,.cls-34,.cls-38,.cls-39,.cls-43{stroke:#fff;}.cls-11{stroke-width:0.16px;}.cls-12,.cls-23{fill:#6b6264;}.cls-12,.cls-23,.cls-35{stroke:#2e61a2;}.cls-12{stroke-width:0.53px;}.cls-13{font-size:8.42px;}.cls-14{letter-spacing:-0.01em;}.cls-15,.cls-38{fill:#2e6296;}.cls-15{stroke-width:0.18px;}.cls-16{fill:#f37243;stroke-width:0.66px;}.cls-16,.cls-41{stroke:#ffcf01;}.cls-17{font-size:10.51px;letter-spacing:-0.01em;}.cls-18{letter-spacing:0em;}.cls-19,.cls-35,.cls-43{fill:#ffcf01;}.cls-19{stroke-width:0.22px;}.cls-20{stroke-width:0.44px;}.cls-21{font-size:8.54px;stroke-width:0.21px;}.cls-21,.cls-25{font-family:Acre-Semibold, Acre;font-weight:600;}.cls-22{stroke-width:0.12px;}.cls-23{stroke-width:0.34px;}.cls-24{fill:#2e61a2;stroke-width:0.11px;}.cls-25{font-size:7.72px;stroke-width:0.19px;}.cls-26{fill:none;stroke:#5e5252;stroke-width:0.6px;}.cls-27,.cls-32{fill:#39944c;}.cls-27,.cls-30,.cls-32{stroke:#6d54a3;}.cls-27{stroke-width:0.62px;}.cls-28{font-size:9.19px;}.cls-29{stroke-width:0.24px;}.cls-30{fill:#408c80;stroke-width:1.11px;}.cls-31{stroke:#ededee;stroke-width:0.36px;}.cls-32{stroke-width:0.61px;}.cls-33{font-size:8.16px;}.cls-34{stroke-width:0.24px;}.cls-35{stroke-width:1.62px;}.cls-36{font-size:15.99px;}.cls-37{letter-spacing:0em;}.cls-38{stroke-width:0.39px;}.cls-39{fill:#2e61a1;stroke-width:0.23px;}.cls-40{font-size:14.31px;}.cls-41{stroke-width:0.43px;}.cls-42,.cls-43{stroke-width:0.11px;}</style></defs><g id="Layer_2" data-name="Layer 2"><g id="Layer_9" data-name="Layer 9"><text class="cls-1" transform="translate(85.6 34)">nutrient co<tspan class="cls-2" x="194.36" y="0">n</tspan><tspan x="216.56" y="0">cent</tspan><tspan class="cls-3" x="294.16" y="0">r</tspan><tspan x="305.52" y="0">atio</tspan><tspan class="cls-4" x="375.4" y="0">n</tspan><tspan x="398.48" y="0">s</tspan></text><text class="cls-5" transform="translate(157.53 72.45)">dr<tspan class="cls-6" x="18.09" y="0">y</tspan><tspan x="27.2" y="0"> </tspan><tspan class="cls-7" x="34.18" y="0">w</tspan><tspan x="49.38" y="0">eight </tspan><tspan class="cls-7" x="101.2" y="0">o</tspan><tspan x="113.09" y="0">f soil / unit </tspan><tspan class="cls-7" x="213.31" y="0">v</tspan><tspan x="222.96" y="0">olu</tspan><tspan class="cls-8" x="250.7" y="0">m</tspan><tspan x="267.55" y="0">e</tspan><tspan x="-113.12" y="242.29">in ge</tspan><tspan class="cls-6" x="-66.48" y="242.29">n</tspan><tspan x="-55.53" y="242.29">e</tspan><tspan class="cls-6" x="-44.22" y="242.29">r</tspan><tspan x="-38.84" y="242.29">al, t</tspan><tspan class="cls-8" x="-7.05" y="242.29">h</tspan><tspan x="3.9" y="242.29">e l</tspan><tspan class="cls-7" x="26.49" y="242.29">ow</tspan><tspan x="53.57" y="242.29">er t</tspan><tspan class="cls-6" x="82.83" y="242.29">h</tspan><tspan x="93.77" y="242.29">e numbe</tspan><tspan class="cls-6" x="175.61" y="242.29">r</tspan><tspan x="181" y="242.29">, t</tspan><tspan class="cls-6" x="196.17" y="242.29">h</tspan><tspan x="207.12" y="242.29">e </tspan><tspan class="cls-6" x="225.41" y="242.29">m</tspan><tspan x="242.26" y="242.29">o</tspan><tspan class="cls-8" x="254.34" y="242.29">r</tspan><tspan x="259.73" y="242.29">e space </tspan><tspan class="cls-6" x="339.55" y="242.29">f</tspan><tspan x="344.34" y="242.29">or air </tspan><tspan x="-120.02" y="269.22">a</tspan><tspan class="cls-6" x="-107.71" y="269.22">n</tspan><tspan x="-96.77" y="269.22">d </tspan><tspan class="cls-7" x="-77.48" y="269.22">w</tspan><tspan x="-62.29" y="269.22">a</tspan><tspan class="cls-6" x="-49.98" y="269.22">t</tspan><tspan x="-45.2" y="269.22">er </tspan><tspan class="cls-8" x="-21.13" y="269.22">t</tspan><tspan x="-16.34" y="269.22">o fl</tspan><tspan class="cls-7" x="12.21" y="269.22">o</tspan><tspan x="24.1" y="269.22">w; while t</tspan><tspan class="cls-6" x="108.71" y="269.22">h</tspan><tspan x="119.66" y="269.22">e g</tspan><tspan class="cls-6" x="150.25" y="269.22">r</tspan><tspan x="155.63" y="269.22">ea</tspan><tspan class="cls-6" x="179.24" y="269.22">t</tspan><tspan x="184.03" y="269.22">er t</tspan><tspan class="cls-6" x="213.28" y="269.22">h</tspan><tspan x="224.23" y="269.22">e number t</tspan><tspan class="cls-8" x="324.02" y="269.22">h</tspan><tspan x="334.96" y="269.22">e </tspan><tspan class="cls-6" x="353.25" y="269.22">m</tspan><tspan x="370.1" y="269.22">o</tspan><tspan class="cls-6" x="382.19" y="269.22">r</tspan><tspan x="387.57" y="269.22">e </tspan><tspan x="52.3" y="296.14">compac</tspan><tspan class="cls-6" x="127.8" y="296.14">t</tspan><tspan x="132.58" y="296.14">ed t</tspan><tspan class="cls-6" x="168.36" y="296.14">h</tspan><tspan x="179.3" y="296.14">e soil</tspan></text><circle class="cls-9" cx="317.41" cy="161.99" r="7.44"/><text class="cls-10" transform="translate(314.15 165.7)">K</text><path class="cls-11" d="M324.07,156.43h-1.31v1.3h-1.24v-1.3h-1.26v-1.22h1.26v-1.29h1.24v1.29h1.31Z"/><circle class="cls-12" cx="302.52" cy="121.96" r="7.9"/><text class="cls-13" transform="translate(296.26 124.6)"><tspan class="cls-14">M</tspan><tspan x="7.01" y="0">g</tspan></text><path class="cls-15" d="M306,117l1.51-1.58a1.32,1.32,0,0,0,.44-.82.44.44,0,0,0-.44-.44.58.58,0,0,0-.52.66l-1.18-.32a1.68,1.68,0,0,1,1.69-1.6,1.6,1.6,0,0,1,1.69,1.52,2.13,2.13,0,0,1-.78,1.54l-.49.56h1.26v1.19H306Z"/><path class="cls-15" d="M312.18,116.06h-.89V117h-.85v-.89h-.85v-.83h.85v-.87h.85v.87h.89Z"/><circle class="cls-16" cx="268.94" cy="151.18" r="8.94"/><text class="cls-17" transform="matrix(0.99, -0.13, 0.13, 0.99, 262.79, 155.19)">C<tspan class="cls-18" x="6.2" y="0">a</tspan></text><path class="cls-19" d="M272.06,144.32c.47-.63,1-1.3,1.41-1.91a1.43,1.43,0,0,0,.37-.94.49.49,0,0,0-.54-.42.63.63,0,0,0-.46.78l-1.31-.18a1.81,1.81,0,0,1,1.59-2,1.73,1.73,0,0,1,2,1.41,2.3,2.3,0,0,1-.62,1.76c-.14.21-.31.45-.45.67l1.35-.17.16,1.28-3.42.43Z"/><path class="cls-19" d="M278.62,142.47l-1,.12.12.95-.91.12-.12-.95-.92.11-.11-.89.92-.11-.12-.95.91-.11.12.94,1-.12Z"/><circle class="cls-20" cx="266.79" cy="245.5" r="8.63"/><text class="cls-21" transform="translate(260.73 247.81)">Mn</text><path class="cls-22" d="M270.37,239.54c.45-.5.91-1,1.35-1.56a1.62,1.62,0,0,0,.49-1,.53.53,0,0,0-.54-.53.66.66,0,0,0-.61.72l-.82-.22a1.41,1.41,0,0,1,1.43-1.38,1.36,1.36,0,0,1,1.42,1.32,2,2,0,0,1-.62,1.35l-.61.74h1.26v.85h-2.75Z"/><path class="cls-22" d="M275.85,238.36H275v.83h-.67v-.83h-.81v-.66h.81v-.8H275v.8h.82Z"/><circle class="cls-23" cx="295.35" cy="195.97" r="7.8"/><path class="cls-24" d="M298.59,190.59l1.21-1.42a1.49,1.49,0,0,0,.44-.86.48.48,0,0,0-.49-.48.58.58,0,0,0-.54.65l-.75-.21a1.28,1.28,0,0,1,1.29-1.24,1.23,1.23,0,0,1,1.29,1.2,1.86,1.86,0,0,1-.56,1.22l-.55.67h1.14v.76h-2.48Z"/><path class="cls-24" d="M303.54,189.52h-.74v.75h-.61v-.75h-.73v-.6h.73v-.73h.61v.73h.74Z"/><text class="cls-25" transform="translate(291.1 198.47)">Zn</text><line class="cls-26" x1="366.57" y1="139.23" x2="365.48" y2="138.56"/><circle class="cls-27" cx="359.04" cy="135.45" r="9.67"/><text class="cls-28" transform="matrix(0.95, 0.3, -0.3, 0.95, 350.56, 135.83)">NH4</text><path class="cls-29" d="M370.3,133.27l-1.54-.49-.5,1.56-1.27-.4.49-1.57-1.5-.48.39-1.23,1.51.48.48-1.52,1.27.4-.48,1.52,1.54.49Z"/><circle class="cls-30" cx="354.52" cy="204.39" r="15.98"/><path class="cls-31" d="M369.67,195.47a2.64,2.64,0,0,1-3.45,1.6,2.85,2.85,0,0,1-2.08-2.8l1.91-.34a1.23,1.23,0,0,0,.76,1.21.8.8,0,0,0,1-.51.78.78,0,0,0-.54-1,1.28,1.28,0,0,0-.75,0l-.39-1.16,2-.95-2.41-.79.61-1.86,4.44,1.44-.56,1.73-1.49.74A2.41,2.41,0,0,1,369.67,195.47Z"/><path class="cls-31" d="M370.84,194.06l3.4,1.11-.5,1.54-3.4-1.11Z"/><circle class="cls-32" cx="318.75" cy="239.56" r="9.42"/><text class="cls-33" transform="translate(312.71 244.35) rotate(-15.48)">NO3</text><path class="cls-34" d="M321.75,232.05l5.4-1.5.62,2.22-5.4,1.5Z"/><circle class="cls-35" cx="237.22" cy="198.68" r="17.98"/><text class="cls-36" transform="matrix(0.99, -0.11, 0.11, 0.99, 225.35, 205.84)"><tspan class="cls-37">S</tspan><tspan x="8.68" y="0">O4</tspan></text><path class="cls-38" d="M246.28,186.75c1-1.29,2-2.68,2.95-3.92a3,3,0,0,0,.77-1.94,1,1,0,0,0-1.1-.87,1.29,1.29,0,0,0-1,1.61l-2.7-.4a3.74,3.74,0,0,1,3.33-4,3.55,3.55,0,0,1,4.15,2.93,4.77,4.77,0,0,1-1.31,3.64c-.3.43-.65.93-.94,1.38l2.79-.33.31,2.64-7.08.84Z"/><path class="cls-39" d="M254.05,181l5.33-.63.26,2.19-5.33.64Z"/><text class="cls-40" transform="translate(342.51 206.15) rotate(14.1)">PO4</text><circle class="cls-41" cx="213.99" cy="148.48" r="7.6"/><path class="cls-42" d="M211.09,146.25l.09,1.5,1.65-.09.07,1.26-1.66.09.13,2.32-1.34.08-.35-6.38,3.68-.2.07,1.29Z"/><path class="cls-42" d="M218.12,149.1l-3.12.17a1.12,1.12,0,0,0,1.19.69,3.23,3.23,0,0,0,1.42-.44l.08,1.17a3.18,3.18,0,0,1-1.53.45,2.35,2.35,0,0,1-.36-4.69C217.28,146.37,218.17,147.59,218.12,149.1Zm-3.17-.65,1.85-.1a.93.93,0,0,0-.93-.69A1,1,0,0,0,215,148.45Z"/><path class="cls-43" d="M215.28,142.71c.37-.46.75-1,1.12-1.45a1.5,1.5,0,0,0,.39-.87.48.48,0,0,0-.51-.45.58.58,0,0,0-.5.67l-.74-.16a1.25,1.25,0,0,1,1.2-1.29,1.21,1.21,0,0,1,1.33,1.1,1.8,1.8,0,0,1-.49,1.23l-.51.69,1.13-.06,0,.75-2.44.14Z"/><path class="cls-43" d="M220.09,141.4l-.73,0,0,.73-.6,0,0-.74-.71,0,0-.59.71,0,0-.72.6,0,0,.71.73,0Z"/></g></g></svg>