<svg xmlns="http://www.w3.org/2000/svg" viewBox="0 0 586 404.79"><defs><style>.cls-1{font-size:40px;fill:#fecf08;font-family:Acre-Light, Acre;font-weight:300;}.cls-2{letter-spacing:-0.02em;}.cls-3{letter-spacing:-0.02em;}.cls-4{letter-spacing:-0.02em;}.cls-5{letter-spacing:-0.03em;}.cls-6{font-size:19.94px;font-family:Acre-Thin, Acre;font-weight:200;}.cls-12,.cls-6{fill:#5c5052;}.cls-7{letter-spacing:-0.02em;}.cls-8{letter-spacing:-0.02em;}.cls-9{letter-spacing:-0.01em;}.cls-10{letter-spacing:0.01em;}.cls-11,.cls-16{fill:none;stroke-miterlimit:10;}.cls-11{stroke:#5c5052;stroke-width:1.49px;}.cls-13{fill:#ffc001;}.cls-14{fill:#805d3b;}.cls-15{fill:#336da7;}.cls-16{stroke:#336da7;stroke-width:0.5px;}.cls-17{fill:#e47243;}</style></defs><g id="Layer_2" data-name="Layer 2"><g id="Layer_9" data-name="Layer 9"><text class="cls-1" transform="translate(123.86 34)">agg<tspan class="cls-2" x="74.04" y="0">r</tspan><tspan x="85.4" y="0">ega</tspan><tspan class="cls-3" x="157.36" y="0">t</tspan><tspan x="167.64" y="0">e </tspan><tspan class="cls-4" x="204.04" y="0">s</tspan><tspan class="cls-2" x="219.68" y="0">t</tspan><tspan x="229.96" y="0">abilit</tspan><tspan class="cls-5" x="319.52" y="0">y</tspan></text><text class="cls-6"><tspan class="cls-7" x="62.31" y="293.67">m</tspan><tspan x="79.16" y="293.67">easu</tspan><tspan class="cls-7" x="121.99" y="293.67">r</tspan><tspan x="127.38" y="293.67">es </tspan><tspan class="cls-8" x="153.54" y="293.67">h</tspan><tspan class="cls-9" x="164.49" y="293.67">o</tspan><tspan class="cls-7" x="176.37" y="293.67">w</tspan><tspan x="191.37" y="293.67"> </tspan><tspan class="cls-9" x="198.35" y="293.67">w</tspan><tspan x="213.54" y="293.67">ell agg</tspan><tspan class="cls-7" x="277.36" y="293.67">r</tspan><tspan x="282.74" y="293.67">ega</tspan><tspan class="cls-7" x="318.66" y="293.67">t</tspan><tspan x="323.44" y="293.67">es </tspan><tspan class="cls-7" x="349.61" y="293.67">s</tspan><tspan x="357.08" y="293.67">tick </tspan><tspan class="cls-8" x="393.91" y="293.67">t</tspan><tspan x="398.7" y="293.67">og</tspan><tspan class="cls-9" x="423.09" y="293.67">e</tspan><tspan x="434.2" y="293.67">t</tspan><tspan class="cls-7" x="439.38" y="293.67">h</tspan><tspan x="450.33" y="293.67">er w</tspan><tspan class="cls-7" x="489.79" y="293.67">h</tspan><tspan x="500.74" y="293.67">en </tspan><tspan x="41.73" y="320.59">sub</tspan><tspan class="cls-7" x="73.26" y="320.59">m</tspan><tspan x="90.11" y="320.59">e</tspan><tspan class="cls-7" x="101.41" y="320.59">r</tspan><tspan x="106.8" y="320.59">ged in </tspan><tspan class="cls-9" x="172.72" y="320.59">w</tspan><tspan x="187.92" y="320.59">a</tspan><tspan class="cls-8" x="200.22" y="320.59">t</tspan><tspan x="205.01" y="320.59">e</tspan><tspan class="cls-7" x="216.32" y="320.59">r</tspan><tspan x="221.7" y="320.59">. so</tspan><tspan class="cls-7" x="251.39" y="320.59">m</tspan><tspan x="268.24" y="320.59">e l</tspan><tspan class="cls-9" x="290.84" y="320.59">ev</tspan><tspan x="311.6" y="320.59">el </tspan><tspan class="cls-9" x="334.19" y="320.59">o</tspan><tspan x="346.08" y="320.59">f tur</tspan><tspan class="cls-7" x="380.56" y="320.59">n</tspan><tspan class="cls-9" x="391.5" y="320.59">ov</tspan><tspan x="413.04" y="320.59">er is </tspan><tspan class="cls-7" x="456.67" y="320.59">n</tspan><tspan x="467.62" y="320.59">ecessar</tspan><tspan class="cls-7" x="534.86" y="320.59">y</tspan><tspan x="543.98" y="320.59"> </tspan><tspan x="60.33" y="347.51">a</tspan><tspan class="cls-7" x="72.64" y="347.51">n</tspan><tspan x="83.59" y="347.51">d i</tspan><tspan class="cls-7" x="107.58" y="347.51">n</tspan><tspan x="118.52" y="347.51">dica</tspan><tspan class="cls-8" x="158.62" y="347.51">t</tspan><tspan x="163.41" y="347.51">es </tspan><tspan class="cls-7" x="189.57" y="347.51">h</tspan><tspan x="200.52" y="347.51">ealt</tspan><tspan class="cls-9" x="233.62" y="347.51">h</tspan><tspan class="cls-7" x="244.77" y="347.51">y</tspan><tspan x="253.88" y="347.51" xml:space="preserve"> nutrient c</tspan><tspan class="cls-9" x="344.84" y="347.51">y</tspan><tspan x="354.15" y="347.51">ci</tspan><tspan class="cls-7" x="369.64" y="347.51">n</tspan><tspan x="380.59" y="347.51">g, but </tspan><tspan class="cls-7" x="438.7" y="347.51">t</tspan><tspan x="443.49" y="347.51">oo much </tspan><tspan x="66.57" y="374.43">i</tspan><tspan class="cls-10" x="71.27" y="374.43">n</tspan><tspan class="cls-7" x="82.82" y="374.43">st</tspan><tspan x="95.08" y="374.43">abilit</tspan><tspan class="cls-7" x="138.59" y="374.43">y</tspan><tspan x="147.71" y="374.43" xml:space="preserve"> can lead </tspan><tspan class="cls-8" x="243.31" y="374.43">t</tspan><tspan x="248.09" y="374.43">o e</tspan><tspan class="cls-7" x="278.46" y="374.43">r</tspan><tspan x="283.85" y="374.43">osion a</tspan><tspan class="cls-7" x="351.23" y="374.43">n</tspan><tspan x="362.18" y="374.43">d sur</tspan><tspan class="cls-7" x="406.47" y="374.43">f</tspan><tspan x="411.25" y="374.43">ace seali</tspan><tspan class="cls-7" x="493.13" y="374.43">n</tspan><tspan x="504.08" y="374.43">g.</tspan></text><path class="cls-11" d="M282.28,110.92c-4.32,1.53-10-.54-14.59-.27-7.37.43-11.88,4.09-18.1,7.67-2.78,1.6-5.61,3.43-8.3,5.26s-7.46,3.46-8.82,6.52c-1.47,3.32-.55,6-2.95,9.2-3,4-8.36,6.87-10,11.87-1.14,3.56,0,7.56-1,11.25s-3.2,6.56-3.24,10.61c0,5.17.68,13.81,2.82,18.62,1.1,2.5,3.09,3.59,5,5.52,3.38,3.44,5.94,6,10.22,8.47,5.7,3.26,7.84,9.73,13.77,13.14,5.43,3.11,11,5.29,15.93,9,5.86,4.38,16.3,2.26,23.2,2.26a62.71,62.71,0,0,1,13.5,1.27c6.67,1.41,13.16-.16,19.84-1.21,5.19-.82,12.93,1.32,15.91-3.84,1.07-1.84.73-2.67,2.71-4s5.53-2,7.88-2.82c5.16-1.82,10.68-3.5,15-7.05,6.13-5.07,2.29-13.6,3.95-20.45.79-3.28,1.34-6.43,1.94-9.73.75-4.17,3.47-6.92,4.85-10.78,2.32-6.47-1.7-14.52-4.21-20.48-2.41-5.72-4.93-11.76-10-15.58-6.82-5.18-15.45-12-23.79-14.49-4.5-1.36-5.75-1.46-9.69-4.54-5.63-4.4-14.38-7.41-21.56-7.06-6.25.31-13-.67-18.93.38-.29.59-1,.74-1.35,1.23"/><path class="cls-12" d="M239,92.6c.65,2.22.88,4.09,1.26,5.8a13.2,13.2,0,0,0,1.42,4.18,15.53,15.53,0,0,0,1.42,1.72,20.47,20.47,0,0,0,1.77,1.71,34.7,34.7,0,0,0,4.2,3,24.44,24.44,0,0,0,9.47,3.35c3.48.57,7.19.71,11,1a52.51,52.51,0,0,1,11.67,1.9A97.59,97.59,0,0,1,292,119.48,53.66,53.66,0,0,0,302.28,123c.87.2,1.74.31,2.61.43l2.78.29c1.87.17,3.77.34,5.68.57a40.63,40.63,0,0,1,11.41,2.8c1.83.81,3.48,1.78,5.11,2.62a43.91,43.91,0,0,0,5,2.2,55.92,55.92,0,0,1,5.33,2.23,16.84,16.84,0,0,1,4.92,3.48c1.38,1.47,2.41,3,3.67,4.24a18.33,18.33,0,0,0,4.47,2.94c1.64.84,3.4,1.61,5.07,2.51a17.17,17.17,0,0,0,5.16,1.61c1.83.32,3.72.51,5.61,1a21.49,21.49,0,0,1,5.35,2.12c3.35,1.74,6.6,3.67,10.28,4.43a24.05,24.05,0,0,0,11.16-.14,24.26,24.26,0,0,1-11.24.57c-3.79-.62-7.21-2.48-10.59-4.06a20.43,20.43,0,0,0-5.2-1.84c-1.8-.36-3.67-.47-5.57-.73a18.84,18.84,0,0,1-5.65-1.53c-1.67-.82-3.4-1.5-5.15-2.3a20.31,20.31,0,0,1-5-3.08c-1.52-1.36-2.64-2.93-3.9-4.15-2.47-2.41-6-3.56-9.57-4.77a45.76,45.76,0,0,1-5.41-2.11c-1.74-.82-3.39-1.7-5-2.36a20.29,20.29,0,0,0-2.5-.82c-.87-.24-1.75-.43-2.64-.6a53.5,53.5,0,0,0-5.42-.7c-1.84-.15-3.71-.24-5.6-.35l-2.85-.17c-1-.1-2-.19-3-.38a58,58,0,0,1-11.21-3.35A94.22,94.22,0,0,0,279.93,120a47.66,47.66,0,0,0-10.67-1.29c-3.7-.13-7.54-.11-11.53-.59a30.67,30.67,0,0,1-11.84-3.74,41.27,41.27,0,0,1-5.1-3.38,28.14,28.14,0,0,1-2.38-2.12,19.26,19.26,0,0,1-2.24-2.59,18.91,18.91,0,0,1-2.53-6.34c-.48-2-.8-3.83-1.27-5.22Z"/><path class="cls-12" d="M280.75,116a25.78,25.78,0,0,0,13.79,1.39,61.08,61.08,0,0,0,14-4,59.73,59.73,0,0,1,7-2.6,51.14,51.14,0,0,1,7.33-1.47c4.93-.64,9.87-.74,14.8-1-4.91.5-9.85.87-14.68,1.77a50.17,50.17,0,0,0-7.09,1.83,60,60,0,0,0-6.73,2.92,62.62,62.62,0,0,1-14.2,4.91,28.57,28.57,0,0,1-15.39-.78Z"/><path class="cls-13" d="M241.72,130.24c2.29-3,6.48-4.19,9.86-6.15,2.2-1.27,5.68-2.67,8.45-1.87,6.21,1.78,7.22,12.65,5.45,18-1.5,4.53-4.05,3-8,3.22-3.09.15-6.3,1.36-9.34,1.95-4.73.93-13,.39-10.95-6.78.49-1.67,3.43-8.06,4.51-8.36"/><path class="cls-13" d="M275.85,164.68c-10.06.09-18.74,7.27-15.39,17.75,1.51,4.73,1.1,8.53,6.32,7.67a93.22,93.22,0,0,1,9.69-1c5.53-.33,7.61-.91,9-6.37.6-2.3,2.15-5.65,2-8-.32-4.11-3.37-5.68-6.53-6.76-2-.68-3.28-2.76-5.07-3.22"/><path class="cls-13" d="M351.81,155.67c-1.95-.47-4.88-3-7.64-2.59-2,.28-5.75,3-6.91,4.51-1.32,1.73-.8,3.57-.9,5.66-.06,1.32-.87,3.47-.73,4.66.2,1.62,1,2.13,2.29,3.56,1.1,1.23,3,4.89,4.15,5.52,2,1.12,2.6-1,4.51-1.78,1.67-.67,4.09-.21,6-.55,3.32-.6,5.7-2,6.77-5.49.56-1.86.69-5.95-.08-7.71-.88-2-5-6.41-7.42-5.79"/><path class="cls-13" d="M263.94,210.87c-1.27.9-1.64,1.94-2.57,2.94-1.12,1.2-2.53,1.44-2.59,3.34a18,18,0,0,1,.17,2.21,22.38,22.38,0,0,0-.49,2.3c-.07,1.77.73,1.83,1.93,2.89,1.73,1.51,1.79,1.31,4.18,1.77,1.46.28,2.68,1.14,4.16,1.57a19.45,19.45,0,0,0,4.52,1.16c2.55.22,4.46-1.44,6.92-2.26,0-3.28,1.95-5.87,1.8-9.15-.08-1.72-.28-4.35-1.34-5.81a13.69,13.69,0,0,0-2.73-2.2c-1.68-1.35-2.67-1.35-4.79-.69-1.37.42-1.79,1.31-2.9,1.94-1.95,1.1-4.61-1.21-6.44,0"/><path class="cls-14" d="M299.67,141.18c-4.47-1.93-9.32-1.89-13.26,1s-3.1,3.71-3.56,8.06c-.27,2.66-2,5.08-.49,7.72,1.86,3.21,5.31.69,8.35,3.66a14.71,14.71,0,0,0,9.84,4.79c4.44.56,4.12-3.85,6.81-6.53s5.72-2.76,5.75-7.06c0-4-1.46-4.76-3.7-7.18a13.86,13.86,0,0,1-2.4-4C303.52,142.93,302.56,142.43,299.67,141.18Z"/><path class="cls-14" d="M243.66,179.16c-3.56-4.12-9.77,5.91-9.66,9.41.1,3.19,4.16,4.84,4.8,7.71.21.9-.71,2.28-.62,3.41a7.46,7.46,0,0,0,5.26,5.88c2,.43,2.89-.48,4.58-1.12,2-.74,3.76-.65,5.38-1.13,2.45-.72,2.87-1.29,4.17-3.55,2.24-3.89,1.41-8.18.19-12.5-3.67-1.22-9.49-3.89-11.84-7.1-1.11.39-1.67-.08-2.26-1"/><path class="cls-14" d="M306.75,201.38c-2.93,2.14-11.9,3.87-14,8-1.48,2.89.28,5.08-.11,7.42-.55,3.36-3.16,2.45,1.44,4.76,6.68,3.36,9.89,2.65,17.05,1.11,2.24-.49,3.63.17,5-1.77,1.25-1.73.51-4.2,2.78-6.06,1.48-1.21,3.44-1.43,4.67-3.11,1-1.34.93-3.14,1.51-4.61.66-1.69,1.91-1.32,1.08-3.51-.54-1.41-1.82-1.78-3-2.25A20.89,20.89,0,0,0,315.3,200c-1.57.18-3,.87-4.62,1.06S308.31,200.23,306.75,201.38Z"/><path class="cls-12" d="M227.24,169.19c-5.22.81-5.87,3.75-5.15,8.36.67,4.2,3.33,3.66,7.4,3.87s6.13-2.27,5.16-6.44-4.67-5.17-8.06-5.79"/><path class="cls-12" d="M281.32,193.65a4.94,4.94,0,0,0-5.48,5.47c.42,4.1,5,5.79,8.72,4.75,8.19-2.28,4.11-12.42-2.92-10.22"/><path class="cls-12" d="M257.31,155.1c-.63.62-3.37,1.45-4.18,2.88s-.54,4.8-.31,6.37c.28,1.88-.61,2.6,1.92,3.31,2.28.65,2.45-.93,4.5-1.55,3.4-1,7.66.66,5.56-5.21-1.21-3.36-4.72-4-7.17-6.12"/><path class="cls-12" d="M275.3,121.52c-4.65-3.15-10,9.89-3.22,11,1.15.18,3.87-1.07,4.83-1.63,1.77-1,1.83.24,1.93-2.51s-2.51-4.41-3.54-6.83"/><path class="cls-12" d="M335.63,144.07c-2.85-.16-4.26.89-5.16,3.12-.37.92-.14,2.44-.46,3.5s-1.52,1.93-1.49,3.05c.12,4.43,5.45,4.07,7.19,1.62s4.29-13.5-2.34-11"/><path class="cls-12" d="M308,125.74c-.33,6.29,4.67,5.11,9.62,4.82s4.69-3.34,3.27-7.38C317.75,114.26,308.48,116.78,308,125.74Z"/><path class="cls-12" d="M320.59,175c-.86-3.54-6.51-3.3-7.8-.32a20,20,0,0,0-.27,6.7c.7,1.75,1.43,1.44,2.92,2.06,3.21,1.34,5.6.72,6.78-2.63s-.2-5.49-2.6-7.42"/><path class="cls-12" d="M350.85,206.2c-1.91-.13-5.92.54-6.72,3.62-.35,1.37.09,5.17,1.56,6.06,1.22.74,6.85.48,8.06-.09,5.14-2.45.63-11.13-4.19-9.59"/><path class="cls-15" d="M347.24,118.9a1.25,1.25,0,0,0-1.33.62c-.47.83.26,2.09.26,2.09a1.7,1.7,0,0,0,2.15,0S349.58,119.42,347.24,118.9Z"/><path class="cls-15" d="M333.41,225.05a1.25,1.25,0,0,0-1.33.62c-.47.82.25,2.09.25,2.09a1.7,1.7,0,0,0,2.15,0S335.75,225.56,333.41,225.05Z"/><path class="cls-15" d="M328.27,109.77a5.11,5.11,0,0,1-2.22-.58c-.8-.67,0-.75.35-1.41a2,2,0,0,0,.16-.86,2.26,2.26,0,0,0-.35-1,1.92,1.92,0,0,0-2.41-.41c-2.4.94-.52,2.29.19,3.45.88,1.43.05,3.13,1.46,4.48a2.86,2.86,0,0,0,4.43-.43C330.69,111.44,330.19,110.16,328.27,109.77Z"/><path class="cls-15" d="M367.82,200.09a5,5,0,0,1-2.22-.58c-.79-.66,0-.75.36-1.41a2,2,0,0,0,.16-.85,2.19,2.19,0,0,0-.36-1.06,1.89,1.89,0,0,0-2.4-.4c-2.4.94-.53,2.29.19,3.44.88,1.43.05,3.13,1.45,4.49a2.87,2.87,0,0,0,4.44-.44C370.25,201.77,369.75,200.49,367.82,200.09Z"/><path class="cls-15" d="M373.57,155.89a1.55,1.55,0,0,0-1.34.74,1.22,1.22,0,0,0-.21,1,2.78,2.78,0,0,0,.21.8c.37.68-3.05,1.5-2.46,3.27a4,4,0,0,0,1.87,1.75,1.85,1.85,0,0,0,2.25-.58,1.74,1.74,0,0,0,.26-2.58,1.53,1.53,0,0,1-.32-1.3c.2-.49.9-.71,1.21-1.12C375.71,157,374.74,155.81,373.57,155.89Z"/><path class="cls-15" d="M354.85,135.23a1,1,0,0,0-.83.51.78.78,0,0,0-.1.65,1.52,1.52,0,0,0,.15.5c.25.42-1.9,1-1.47,2.14a2.48,2.48,0,0,0,1.23,1.06,1.17,1.17,0,0,0,1.41-.42,1.11,1.11,0,0,0,.1-1.65,1,1,0,0,1-.24-.82c.12-.32.55-.47.74-.74C356.24,135.88,355.6,135.15,354.85,135.23Z"/><path class="cls-15" d="M355.88,218.75a1,1,0,0,0-.83.5.75.75,0,0,0-.1.65,1.45,1.45,0,0,0,.15.5c.25.43-1.9,1-1.48,2.15a2.53,2.53,0,0,0,1.23,1.06,1.18,1.18,0,0,0,1.42-.43,1.11,1.11,0,0,0,.1-1.65,1,1,0,0,1-.24-.81c.11-.32.55-.47.74-.75C357.27,219.4,356.63,218.67,355.88,218.75Z"/><path class="cls-16" d="M284.24,115.53c2.49,0,5-.42,7.44-.07,2.7.39,5.4,1.52,8.06,2.18,3,.74,4.43,1.19,6.73-1.09a28.59,28.59,0,0,0,3.42-4.35c1.11-1.67,1.19-2.91,3.34-3,1.08,0,2.22,1.24,3.35,1.18s1.52-1.17,2.43-1.44c2.45-.71,1.71,1,3.25,1.77,1.71.89,3.8,0,5-1"/><path class="cls-16" d="M260.34,112.15c-.52,2.83-.23,7.19,3.92,6.6,2.81-.39,4.51-3.31,7.37-3.5,2.12-.14,2.19,1.09,3.62,1.79s5.83,1.56,7.31.5c.91-.65.55-1.83,1.25-2.43s2.11-.51,3-1.24c2.77-2.21,1.37-7.76,5.85-6.51,2.36.66,2.22,3.47,4.65,3.07,1.33-.23,2.36-2.61,3.82-2.58,1.78,0,1.46,1.92,2.85,2.57,3.82,1.78,4-5.29,6.81-6.48"/><path class="cls-16" d="M319.25,107.8c-.16,1.94-.87,3.43.47,5.3.88,1.23,2.89,1.73,3.62,3s-.22,3,.25,4.3c2.12,5.84,7.1-1.18,10.11-.33s3.57,4.39,6.3,3.23c1.4-.6,1.89-1.33,3.63-1.71a18.11,18.11,0,0,0,4.59-1.93"/><path class="cls-16" d="M315.87,111.18c-.08.25,0,.46-.21.67,1.51,2.29,6.37-1.24,8.67-.25,1.11.48,1.54,1.85,2.88,2.24s3,0,4.35,0"/><path class="cls-16" d="M327,109.25c2.23-1.48,3.09-1.54,2.95-3.86-.09-1.55-1.17-3,.19-4.35"/><path class="cls-16" d="M325.77,109.73c2.33,0,4,1.41,6.59,1.15,2.88-.29,4,.76,6.68,1.75"/><path class="cls-16" d="M323.84,126.88c.53,3.05,4.36,2.9,5.49,5.34.45,1-.13,2.4.47,3.35.91,1.44,3.05,1.67,4.49,2.43.92.49,1.77,1.59,2.58,1.93s2.39-.23,3.17.2c1.62.88.59,4,2.87,4.37"/><path class="cls-16" d="M358.6,148.12c5.32,0,8.9,2.28,14.24,1.26,2.94-.56,6.66-.07,9.44-1,1.63-.56,2.65-3.27,4.32-3.13"/><path class="cls-16" d="M361.74,148.6c2.43,2.39,7,.43,9.42,2,1.77,1.12,2.42,4.26,3.38,6a38.78,38.78,0,0,0,3.24,4.83c1.77,2.27,3.15,2.13,5.93,2.89"/><path class="cls-16" d="M352.8,145.46c1.22.71,2.57-.24,3.92-.24,2.19,0,4.23,1.41,6.46,1.21,3-.25,4.29-1.81,5.32-4.05.67-1.48.49-2.37,2.62-2.44a3.28,3.28,0,0,0,.27.7"/><path class="cls-16" d="M350.39,130.26c0,2.71,0,3.82,2.62,5.05s6.63,1.3,7.77,4.54c.86,2.44-1.52,5.51-.45,7.92a12.42,12.42,0,0,0,3,3.06c2.18,1.07,2.88-.64,4.9-1.44,2,2.81,2.37,5.25.48,7.92,1.4,1.25,3.31,1.65,4.83,2.72-1.7,4-2.81,4.05.72,7.16"/><path class="cls-16" d="M328.18,128.57c.78,2.86,1.15,3.22,4.77,3.69,3.18.41,5.08-.52,8-1.94,1.7-.84,4.79-2.45,6.76-1.5.77.37,1.48,2.34,2.29,2.93a7.72,7.72,0,0,0,4.51,1.37c2.56,0,4.81-2.07,7.25,0"/><path class="cls-16" d="M321.66,125.19c2.43,5.68,7.77,1.12,11.84,3.38,1.67.93,5.6,6.18,6.46,8.19s-.52,3.81,1.67,5.33c2.53,1.77,2.84-.35,4.84-1.28,3.08-1.42,6.67,3.41,9,.55"/><path class="cls-16" d="M368.26,181.92c-1.18.67-3.57,1.47-4.2,2.91s.71,3.53.87,4.85a13.49,13.49,0,0,0,.73,3.85c.45,1.21,1.21,1.66.9,3.11-.35,1.7-2.32,2.16-2.71,3.67-.7,2.74,2.76,2,4.85,2.17a3.82,3.82,0,0,1,0,1.17"/><path class="cls-16" d="M363.19,200.75c-.28,2.5,2.45,4.39,2.91,6.92.4,2.24-.22,3.57,2,4.73,1.43.74,3.74-.4,4.27,1.39"/><path class="cls-16" d="M368,196.4c-.88,4-5.94,3-6.51,7.92-.24,2,.46,4,.25,6-.33,3.2-2,3.72-4.2,5.6-2.06,1.73-3,4.39-.88,6.56"/><path class="cls-16" d="M332.77,226.58c3.29-.37,5.37-3.85,9-3.87,2.07,0,4,1.3,6,1.24,2.73-.09,5-2.47,7.53-3.23,2.23-.66,3.9,1.31,5.52.55"/><path class="cls-16" d="M343.87,218.37c3,1.08,6.73.39,9.89.52,1.36,7.12,8.85-3.75,11.88-5.59,2.75-1.66,5.54-4.29,8.9-2.69,2.16,1,1.5,1.58,3.69,1,1.73-.48,3.75-2.29,4-4.08"/><path class="cls-16" d="M326.73,232.37c7.87-.09,6.95-13.86,16.48-10.93,2.5.77,2.11,1,3.51-2.17,1.19-2.66,2.45-3,5.55-3.62s4,.39,6.67,1.21c3.52,1.07,6-.68,8.83-2.59"/><path class="cls-16" d="M364.51,195.94c.12,3-5.74,4.53-4.55,8.92.78,2.88,4.29,2.82,4.64,5.45.53,3.95-2.8,6.86-5.9,8.22-4.21,1.85-3.24,3.05-3,7.49.17,2.71-.76,2.72-3.2,3.73"/><path class="cls-16" d="M240.79,112.63c.92,2.71.83,5.67,1.94,8.46s1.17,4.31-.32,7c-.79,1.44-1.63,2.08-1.62,3.91,0,1.48.86,2.55.06,4-1.21,2.2-4.31.76-5.56,2.53-.81,1.14.44,2,.21,3.09-.3,1.32-2,2.3-2.92,3.13"/><path class="cls-16" d="M239.82,116a13.23,13.23,0,0,1,.19,7.74c-.26,1-.89,1.75-.65,2.91.64,3.07,5.69,3.3,5.81,6.58.08,2.38-3.08,4.37-3,6.69s3.38,4.12,4.91,5.34c1.74,1.38,4.18,5.31,6,6"/><path class="cls-16" d="M245.62,129.77c1.95,2.37.3,5.2,1.71,7.42,1.58,2.49,4.84,1,6.94.33a9.46,9.46,0,0,1,.52,1.67"/><path class="cls-16" d="M231.86,135.57c-.45,2.27-2.73,3.84-3.15,6.08-.46,2.5,1.18,4.59,1.71,6.9.47,2-.88,4.65,0,6.34s4.39,2.78,6.06,2.89"/><path class="cls-16" d="M220,157.54c-.78,2.13-2.34,4.08-2.19,6.92.26,5.14,1.26,8.42-3.71,11.62-4.22,2.71-11.4,1.87-9.31,8.49"/><path class="cls-16" d="M218.82,174.92c-.21,3.14.31,6.08,0,9.23-.39,3.95,1.77,4.54,3.39,7.7a19.07,19.07,0,0,1,1.69,9.74c-.16,3.16.17,5.72,4.09,6.16"/><path class="cls-16" d="M218.82,186.26a40.51,40.51,0,0,0,1,8.15c.46,2.23-.18,7.72,1.4,9.44,1.91,2.08,3.6-1.06,5.7-1.37s2.16.88,3.34,2.43a16.68,16.68,0,0,0,3.85,3.74c2.87,2.1,2.36,2.88,2.07,6.48-.22,2.84-.5,4,2.61,4.64a9.48,9.48,0,0,0,4.21-.19"/><path class="cls-16" d="M218.34,185.78c-1.19,4.36-1.11,10.19,2.17,14.27,2,2.47,2.84,1.17,5.55,1,5.86-.41.84,8.1,4.36,10.84,1.09-.76,5.5-4.69,6.8-4.34,1,.27,1.64,2.06,1.79,2.95.3,1.77-1.11,2.34-1.1,3.5,0,2.13,2,2.42,3.31,4.32,1.58,2.27,2.83,4.1,6.09,4.66"/><path class="cls-16" d="M217.61,186.75c.36,4.67-5.66,6.06-8,8.93-3.88,4.84,4.3,13.69-1.21,18.59"/><path class="cls-16" d="M221.48,157.05c-1.25,2.58-2.8,7.32-5.3,8.75-2.92,1.68-5.53,2.36-7,6"/><path class="cls-16" d="M218.1,193c-.09,2.74-1.28,5.25-.93,8.1.53,4.36,3.32,8.15,3.78,12.5.72,6.65-5.61,12.54-1.89,19"/><path class="cls-16" d="M220.75,204.37c3.11,4.3,4.56,9.25,8.88,12.74,2.13,1.73,4.17,2.59,6.87,2,1.64-.38,5.86-3.84,7.43-3.17,3.2,1.37,2.27,8.43,4.27,11,1.21,1.58,3,1.88,4.51,2.89,1.1.73,1.48,1.79,2.56,2.52"/><path class="cls-16" d="M238.62,120.36c-.3,1.67-1.49,3-2.29,4.48-2.11,3.91-2.78,6.89-1.87,11,.7,3.22.31,4.62-.87,7.68-1,2.58-.62,4.81-.53,7.38.09,2.4-.23,2.41,1.55,3.76,2.28,1.71,2.33.75,2.32,4.12,0,2.1-1.43,9.47,1.44,10.06"/><path class="cls-16" d="M219.3,174.43c.31,1.8.72,4.3,2.27,5.32,1,.67,2.56,0,3.68.86,1.27,1,1.62,3.46,2,4.87.47,1.88.27,4.23,1.52,5.81s3.66,2.32,5.28,3.18"/><path class="cls-16" d="M221.72,157.78c-.06,1.45,1.68,2.29,1.88,3.92.43,3.44-1.85,2.87,2,5.32,1.59,1,3.57,1.78,3.08,4-.16.73-1.51,1.32-1.59,2.51-.11,1.82,1.85,3.2,1.11,5-1,2.55-3.19,1.4-2.81,4.6s2.06,4.78.87,7.94c-.85,2.27-2.73,4.5-1.39,7"/><path class="cls-12" d="M239,91.86a11.82,11.82,0,0,1,1.13,3.64,26.92,26.92,0,0,1,.28,3l.1,2.6c0,.41,0,.78.07,1.13,0,.18,0,.33.06.49l.1.63a44.38,44.38,0,0,1,.62,11.32c0,.49-.1,1-.16,1.46l-.22,1.36c-.14.91-.31,1.82-.5,2.72q-.56,2.7-1.32,5.34c-.51,1.77-1.1,3.5-1.74,5.21a44.88,44.88,0,0,1-2.28,5.12,94.8,94.8,0,0,1-5.74,9.18c-1,1.45-2,2.89-2.84,4.31a25.11,25.11,0,0,0-2.08,4.33,55.71,55.71,0,0,0-2.61,9.75,79.54,79.54,0,0,0-1.2,10.19c-.16,3.41-.06,6.92-.18,10.49s-.9,7.13-.52,10.29a11.69,11.69,0,0,0,.52,2.32c.26.82.52,1.63.82,2.44.57,1.61,1.25,3.21,1.92,4.81,1.38,3.21,2.89,6.41,4.06,9.79a41.63,41.63,0,0,1,1.47,5.16,30.26,30.26,0,0,1,.62,5.36,22,22,0,0,1,0,2.69,14.77,14.77,0,0,1-.34,2.7,13.56,13.56,0,0,1-2.28,4.93,34.61,34.61,0,0,1-3.52,4c-1.22,1.25-2.45,2.5-3.65,3.78s-2.38,2.57-3.48,3.92c-.55.68-1.09,1.37-1.57,2.1a9.93,9.93,0,0,0-.66,1.14,1.9,1.9,0,0,0-.24,1.25,1.91,1.91,0,0,1,.19-1.28,9.3,9.3,0,0,1,.61-1.17c.45-.75,1-1.47,1.48-2.18,1-1.41,2.18-2.76,3.32-4.09s2.32-2.64,3.49-4a34.32,34.32,0,0,0,3.26-4,12.59,12.59,0,0,0,1.91-4.65A13.94,13.94,0,0,0,228,227a24.43,24.43,0,0,0-.08-2.57,29.82,29.82,0,0,0-.82-5.06,40.43,40.43,0,0,0-1.62-4.88c-1.27-3.2-2.9-6.29-4.43-9.47-.76-1.59-1.53-3.2-2.2-4.86-.35-.82-.66-1.67-1-2.52a13.58,13.58,0,0,1-.74-2.77c-.6-3.84.12-7.4,0-10.71s-.29-7-.28-10.55a82.34,82.34,0,0,1,.78-10.76,61.37,61.37,0,0,1,2.36-10.66,29.82,29.82,0,0,1,2.26-5.24c.9-1.6,1.83-3.1,2.75-4.61a89.85,89.85,0,0,0,5-8.88,39.06,39.06,0,0,0,1.8-4.57c.52-1.6,1-3.22,1.38-4.84s.73-3.27,1-4.92c.13-.82.25-1.65.35-2.48l.13-1.24c0-.39.07-.77.08-1.16a37.69,37.69,0,0,0-1-9.61l-.13-.66c-.05-.27-.1-.56-.13-.81-.08-.52-.13-1-.18-1.49L233.17,99c-.08-.81-.17-1.57-.3-2.21a4.29,4.29,0,0,0-.45-1.35Z"/><path class="cls-14" d="M326.87,195.8c.52-.75,1.39-.63,2.52-2.06,2.65-3.36,2.31-6.78,6.47-6.81,2.43,0,3.25-1,5.59-2.13s1.94.59,4.4,1.72c1.73.79,3.31-.26,4.94,1.49a34.32,34.32,0,0,1,3.36,5.08c2.27,4.26.42,3.61-1.69,5.77-1.63,1.68-.78,2.4-2.86,2.25s-3.4-1.88-5.58-1.56c-2.56.39-5-.15-7.24,0-2.78.2-4.08,1-6.78.12-.63-.2-5.79-.57-3.72-3.29.14-.15.44-.64.59-.58"/><path class="cls-17" d="M318.26,158.07c-1.64-.17-2.74,1.92-2.24,3.3s2.58,2.45,3.85,2c1.07-.34,1.48-1.79,1.35-2.83-.17-1.3-1.85-2.36-3.12-2.42"/><path class="cls-17" d="M301.85,184.79c-1.64-.17-2.74,1.91-2.24,3.3.45,1.23,2.58,2.44,3.85,2,1.07-.35,1.48-1.79,1.35-2.84-.17-1.29-1.85-2.36-3.12-2.41"/><path class="cls-17" d="M330.09,214.55c-1.64-.17-2.74,1.92-2.24,3.3s2.58,2.45,3.85,2c1.07-.34,1.48-1.79,1.35-2.83-.17-1.3-1.85-2.36-3.12-2.42"/><path class="cls-17" d="M269.9,150.33c-1.64-.17-2.73,1.92-2.23,3.3s2.57,2.45,3.85,2c1.07-.34,1.48-1.79,1.34-2.83-.17-1.3-1.84-2.37-3.12-2.42"/><path class="cls-12" d="M240.89,102.8a49.74,49.74,0,0,1,.15,5,15.19,15.19,0,0,0,.49,4.07c.77,2.74,2.29,5.51,3.53,8.64a37.57,37.57,0,0,1,2.34,9.76,38.58,38.58,0,0,1-.36,9.91c-.27,1.61-.59,3.21-1,4.78s-.8,3-1.06,4.58a46.16,46.16,0,0,0-.65,9.33,36.9,36.9,0,0,0,5.09,18A37.46,37.46,0,0,1,243,159a47,47,0,0,1,0-9.71c.14-1.61.47-3.28.74-4.79s.46-3.09.6-4.63a35.58,35.58,0,0,0-.3-9.12,33.65,33.65,0,0,0-2.72-8.58c-1.29-2.71-3.07-5.44-4.31-8.76-1.33-3.62-1-7.27-1.5-9.8Z"/></g></g></svg>