<svg xmlns="http://www.w3.org/2000/svg" viewBox="0 0 586 403.0721"><defs><style>.cls-1{font-size:40px;fill:#fecf08;font-family:Acre-Light, Acre;font-weight:300;}.cls-2{letter-spacing:-0.02em;}.cls-3{letter-spacing:-0.005em;}.cls-4{font-size:19.9419px;font-family:Acre-Thin, Acre;font-weight:200;}.cls-22,.cls-4{fill:#5c5052;}.cls-5{letter-spacing:-0.02em;}.cls-6{letter-spacing:-0.01em;}.cls-7{letter-spacing:-0.02em;}.cls-8{letter-spacing:-0.07em;}.cls-9{letter-spacing:-0.01em;}.cls-10{fill:#e86a7c;}.cls-11{fill:#603813;}.cls-12{fill:#754c24;}.cls-13{font-size:13.1975px;font-family:Acre-Semibold, Acre;font-weight:600;}.cls-13,.cls-15{fill:#fff;}.cls-14,.cls-16{fill:#2e61a2;}.cls-14,.cls-16,.cls-17{stroke:#fff;}.cls-14,.cls-16,.cls-17,.cls-18,.cls-20,.cls-21{stroke-miterlimit:10;}.cls-14{stroke-width:0.707px;}.cls-16{stroke-width:0.737px;}.cls-17{fill:#ec6a7c;stroke-width:0.9971px;}.cls-18,.cls-20,.cls-21{fill:none;stroke:#5b5052;}.cls-18{stroke-width:0.6564px;}.cls-19{fill:#5b5052;}.cls-20{stroke-width:0.5683px;}.cls-21{stroke-width:0.6231px;}</style></defs><g id="Layer_2" data-name="Layer 2"><g id="Layer_9" data-name="Layer 9"><text class="cls-1" transform="translate(198.6015 33.9998)"><tspan class="cls-2">r</tspan><tspan class="cls-3" x="11.3594" y="0">e</tspan><tspan x="33.7598" y="0">spi</tspan><tspan class="cls-2" x="84.7588" y="0">r</tspan><tspan x="96.1182" y="0">ation</tspan></text><text class="cls-4" transform="translate(44.6328 72.4519)">a<tspan class="cls-5" x="12.3037" y="0">m</tspan><tspan x="29.1553" y="0">ount </tspan><tspan class="cls-6" x="76.0977" y="0">o</tspan><tspan x="87.9834" y="0" xml:space="preserve">f       </tspan><tspan class="cls-6" x="142.0244" y="0">ev</tspan><tspan x="162.7832" y="0">ol</tspan><tspan class="cls-6" x="179.1758" y="0">v</tspan><tspan x="188.8271" y="0">ed duri</tspan><tspan class="cls-7" x="253.5566" y="0">n</tspan><tspan x="264.5039" y="0">g a 24 or</tspan><tspan class="cls-5" x="347.501" y="0" xml:space="preserve"> 7</tspan><tspan x="362.1191" y="0">2 hr i</tspan><tspan class="cls-5" x="408.2041" y="0">n</tspan><tspan x="419.1523" y="0">cubation </tspan><tspan class="cls-5" x="33.1025" y="215.3726">r</tspan><tspan x="38.4873" y="215.3726">espi</tspan><tspan class="cls-5" x="74.6611" y="215.3726">r</tspan><tspan x="80.0459" y="215.3726">ation can i</tspan><tspan class="cls-7" x="178.7754" y="215.3726">n</tspan><tspan x="189.7227" y="215.3726">dica</tspan><tspan class="cls-5" x="229.8242" y="215.3726">t</tspan><tspan x="234.6104" y="215.3726">e b</tspan><tspan class="cls-6" x="265.2002" y="215.3726">o</tspan><tspan x="277.0859" y="215.3726">th a </tspan><tspan class="cls-5" x="319.8799" y="215.3726">h</tspan><tspan x="330.8281" y="215.3726">ealt</tspan><tspan class="cls-6" x="363.9307" y="215.3726">h</tspan><tspan class="cls-8" x="375.0781" y="215.3726">y</tspan><tspan x="383.1943" y="215.3726">, g</tspan><tspan class="cls-5" x="405.4883" y="215.3726">r</tspan><tspan class="cls-9" x="410.873" y="215.3726">o</tspan><tspan x="422.7578" y="215.3726">wi</tspan><tspan class="cls-5" x="442.8584" y="215.3726">n</tspan><tspan x="453.8066" y="215.3726">g </tspan><tspan x="9.9707" y="242.2939">mic</tspan><tspan class="cls-5" x="42.7148" y="242.2939">r</tspan><tspan x="48.0996" y="242.2939">obial population a</tspan><tspan class="cls-5" x="218.002" y="242.2939">n</tspan><tspan x="228.9502" y="242.2939">d </tspan><tspan class="cls-7" x="248.2334" y="242.2939">s</tspan><tspan x="255.7109" y="242.2939">t</tspan><tspan class="cls-5" x="260.8955" y="242.2939">r</tspan><tspan x="266.2803" y="242.2939">ess a</tspan><tspan class="cls-5" x="312.624" y="242.2939">n</tspan><tspan x="323.5723" y="242.2939">d poor p</tspan><tspan class="cls-6" x="404.3564" y="242.2939">h</tspan><tspan x="415.5039" y="242.2939">ysiolog</tspan><tspan class="cls-8" x="478.3799" y="242.2939">y</tspan><tspan x="486.4961" y="242.2939" xml:space="preserve">.  </tspan><tspan class="cls-5" x="2.792" y="269.2158">r</tspan><tspan x="8.1768" y="269.2158">espi</tspan><tspan class="cls-5" x="44.3506" y="269.2158">r</tspan><tspan x="49.7354" y="269.2158">ation per unit mic</tspan><tspan class="cls-7" x="211.002" y="269.2158">r</tspan><tspan x="216.3857" y="269.2158">obial bio</tspan><tspan class="cls-5" x="298.166" y="269.2158">m</tspan><tspan x="315.0176" y="269.2158">ass is </tspan><tspan class="cls-5" x="369.6172" y="269.2158">m</tspan><tspan x="386.4688" y="269.2158">o</tspan><tspan class="cls-5" x="398.5537" y="269.2158">r</tspan><tspan x="403.9385" y="269.2158">e us</tspan><tspan class="cls-6" x="441.4482" y="269.2158">e</tspan><tspan x="452.5557" y="269.2158">ful in </tspan><tspan x="151.834" y="296.1372">in</tspan><tspan class="cls-5" x="167.8867" y="296.1372">t</tspan><tspan x="172.6729" y="296.1372">erp</tspan><tspan class="cls-6" x="202.0469" y="296.1372">e</tspan><tspan x="213.1543" y="296.1372">ti</tspan><tspan class="cls-5" x="223.0449" y="296.1372">n</tspan><tspan x="233.9932" y="296.1372">g soil </tspan><tspan class="cls-7" x="289.2314" y="296.1372">h</tspan><tspan x="300.1787" y="296.1372">ealth.</tspan></text><path class="cls-10" d="M396.1817,191.3941l10.7645-6.5355-10.5186-4.6406c-.0114-.6687-.0044-1.3016-.0275-1.9864a11.5971,11.5971,0,1,1,23.103-1.6547,140.9834,140.9834,0,0,1-8.2046,52.4082l-.07-.0277c-.1516.4015-.3236.8058-.5184,1.1994a11.5975,11.5975,0,1,1-20.7161-10.4332S394.9511,210.5287,396.1817,191.3941Z"/><path class="cls-10" d="M246.3918,213.6133l-12.0035-3.808,9.1248-6.9938c-.1469-.6525-.3032-1.2658-.4425-1.9367a11.5971,11.5971,0,1,0-22.84,3.8491,140.9842,140.9842,0,0,0,20.3514,48.9873l.062-.0435c.2421.3542.5047.7065.7869,1.043A11.5975,11.5975,0,1,0,259.0964,239.68S252.1073,231.9158,246.3918,213.6133Z"/><polygon class="cls-11" points="391.107 184.72 378.715 198.363 360.704 194.452 355.085 176.899 367.477 163.256 385.488 167.167 391.107 184.72"/><polygon class="cls-12" points="286.247 197.573 281.39 215.352 263.564 220.036 250.596 206.94 255.453 189.16 273.279 184.477 286.247 197.573"/><text class="cls-13" transform="matrix(0.9646, 0.2635, -0.2635, 0.9646, 366.7917, 184.2796)">C</text><text class="cls-13" transform="translate(265.829 209.0115) rotate(-25.6823)">C</text><circle class="cls-14" cx="381.2045" cy="125.3452" r="16.8728"/><path class="cls-15" d="M371.012,125.6377c0-3.6895,2.8828-6.9023,7.4014-6.9023,4.499,0,7.4023,3.2128,7.4023,6.9023,0,3.707-2.9033,6.9-7.4023,6.9C373.8948,132.5381,371.012,129.3447,371.012,125.6377Zm11.7159,0a4.3183,4.3183,0,1,0-4.3145,4.125A4.144,4.144,0,0,0,382.7279,125.6377Z"/><path class="cls-15" d="M387.3021,131.7021l1.9834-2.3769c.3066-.38.5937-.7031.5937-.9688a.3889.3889,0,0,0-.4092-.4c-.3066,0-.4707.248-.5517.5517l-1.82-.665a2.3522,2.3522,0,0,1,2.4131-1.8067,2.1293,2.1293,0,0,1,2.3916,1.9776,3.5511,3.5511,0,0,1-1.2061,2.2822l-.2246.3037h1.4717v1.6924h-4.6416Z"/><circle class="cls-16" cx="178.4756" cy="160.5739" r="17.5895"/><path class="cls-15" d="M167.85,160.8779c0-3.8457,3.003-7.1953,7.711-7.1953,4.6865,0,7.7109,3.35,7.7109,7.1953,0,3.8653-3.0244,7.1953-7.7109,7.1953C170.8529,168.0732,167.85,164.7432,167.85,160.8779Zm12.2051,0a4.4985,4.4985,0,1,0-4.4941,4.3008A4.3178,4.3178,0,0,0,180.055,160.8779Z"/><path class="cls-15" d="M184.8323,167.2l2.0665-2.4775c.3193-.3956.6181-.7334.6181-1.0108a.4044.4044,0,0,0-.4267-.416c-.3194,0-.4893.2578-.5743.5742l-1.8964-.6933a2.45,2.45,0,0,1,2.5136-1.8829,2.2188,2.2188,0,0,1,2.4922,2.0606,3.6979,3.6979,0,0,1-1.2568,2.3789l-.2344.3174h1.5342v1.7646h-4.836Z"/><circle class="cls-17" cx="323.7683" cy="110.0048" r="23.7959"/><path class="cls-15" d="M305.4642,110.1982c0-4.2109,3.2724-7.5449,8.1142-7.5449a8.6843,8.6843,0,0,1,3.5635.709l.0225,3.3555a5.6958,5.6958,0,0,0-3.4961-1.043,4.5325,4.5325,0,1,0,0,9.0469,5.56,5.56,0,0,0,3.4961-1.043l-.0225,3.377a9.0516,9.0516,0,0,1-3.5635.6875C308.7366,117.7432,305.4642,114.4092,305.4642,110.1982Z"/><path class="cls-15" d="M318.6409,110.1982c0-4.0429,3.16-7.5664,8.1143-7.5664,4.9307,0,8.1143,3.5235,8.1143,7.5664,0,4.0645-3.1836,7.5664-8.1143,7.5664C321.8011,117.7646,318.6409,114.2627,318.6409,110.1982Zm12.8438,0a4.7342,4.7342,0,1,0-4.7295,4.5235A4.5424,4.5424,0,0,0,331.4847,110.1982Z"/><path class="cls-15" d="M336.5,116.8477l2.1738-2.6055c.337-.417.65-.7715.65-1.0635a.4254.4254,0,0,0-.4482-.4375c-.3359,0-.5156.2715-.6055.6045l-1.9951-.7295a2.5793,2.5793,0,0,1,2.6455-1.9805,2.3344,2.3344,0,0,1,2.6221,2.168,3.8916,3.8916,0,0,1-1.3223,2.502l-.2461.333h1.6133v1.8545H336.5Z"/><circle class="cls-17" cx="228.7383" cy="122.3202" r="23.7959"/><path class="cls-15" d="M210.8841,126.2354c-.8535-4.1231,1.6748-8.0508,6.417-9.0323a8.661,8.661,0,0,1,3.6338-.0283l.7012,3.2813a5.6926,5.6926,0,0,0-3.6348-.3125,4.5325,4.5325,0,1,0,1.833,8.8593,5.5593,5.5593,0,0,0,3.2119-1.73l.6631,3.3125a9.07,9.07,0,0,1-3.3516,1.3955C215.6175,132.9619,211.7376,130.3584,210.8841,126.2354Z"/><path class="cls-15" d="M223.7874,123.5654c-.8193-3.959,1.5615-8.0488,6.4121-9.0527,4.8291-.999,8.66,1.8047,9.48,5.7656.8233,3.98-1.584,8.0537-6.4131,9.0528C228.4154,130.335,224.6107,127.5459,223.7874,123.5654Zm12.5772-2.6015a4.7341,4.7341,0,1,0-3.7158,5.3867A4.544,4.544,0,0,0,236.3646,120.9639Z"/><path class="cls-15" d="M242.6234,126.458l1.6015-2.9922a2.3068,2.3068,0,0,0,.4219-1.1719.4245.4245,0,0,0-.5273-.3378c-.3291.0683-.45.3691-.4707.7148l-2.1016-.3105a2.577,2.577,0,0,1,2.1894-2.4747,2.3347,2.3347,0,0,1,3.0069,1.5918,3.8886,3.8886,0,0,1-.7881,2.7168l-.1729.375,1.5791-.3261.376,1.8164-4.9824,1.0312Z"/><path class="cls-18" d="M185.5893,187.9215c-1.352,8.4018,1.5527,18.3937,7.46,25.66,4.93,6.0641,11.8227,10.071,18.4868,10.9378"/><polygon class="cls-19" points="209.556 226.733 210.734 224.369 209.851 221.881 215.455 224.656 209.556 226.733"/><path class="cls-18" d="M407.0766,128.6986c8.0933,2.6291,15.66,9.7721,19.4316,18.3434,3.1475,7.1536,3.5689,15.1151,1.3,21.4409"/><polygon class="cls-19" points="426.229 165.78 428.041 167.701 430.682 167.731 426.143 172.032 426.229 165.78"/><path class="cls-20" d="M342.8862,177.3472c-7.0435-1.99-13.4829-7.8462-16.5362-15.0381a24.3418,24.3418,0,0,1-.4545-18.3031"/><polygon class="cls-19" points="327.173 146.395 325.667 144.675 323.383 144.564 327.448 140.988 327.173 146.395"/><path class="cls-21" d="M283.3286,177.0028c2.6128-7.6442,1.497-17.4591-2.8653-25.2047-3.6406-6.4644-9.4472-11.3187-15.5434-13.1983"/><polygon class="cls-19" points="267.127 136.846 265.646 138.868 266.074 141.339 261.275 137.843 267.127 136.846"/><path class="cls-22" d="M147.6751,65.1338a6.9542,6.9542,0,0,1,7.08-7.18,6.8685,6.8685,0,0,1,3.1309.6787V59.45a6.0194,6.0194,0,0,0-3.1309-.7383,6.4235,6.4235,0,0,0,0,12.8438,6.02,6.02,0,0,0,3.1309-.7373v.8173a6.8809,6.8809,0,0,1-3.1309.6778A6.9543,6.9543,0,0,1,147.6751,65.1338Z"/><path class="cls-22" d="M159.4407,65.1338a7.18,7.18,0,1,1,7.18,7.18A7.0374,7.0374,0,0,1,159.4407,65.1338Zm13.5616,0a6.3819,6.3819,0,1,0-6.3819,6.4023A6.3029,6.3029,0,0,0,173.0023,65.1338Z"/><path class="cls-22" d="M175.7923,71.915c.6983-.8974,1.1572-1.4755,2.0147-2.5927a3.3336,3.3336,0,0,0,.957-1.875,1.162,1.162,0,0,0-1.1963-1.2159,1.3944,1.3944,0,0,0-1.3369,1.3555l-.6182-.1992a1.9951,1.9951,0,0,1,1.9551-1.835,1.8293,1.8293,0,0,1,1.874,1.875,3.7976,3.7976,0,0,1-1.1162,2.2735l-1.3164,1.7353h2.4727v.6778h-3.6895Z"/></g></g></svg>