<svg xmlns="http://www.w3.org/2000/svg" viewBox="0 0 586 403.07"><defs><style>.cls-1,.cls-5{fill:#5c5052;}.cls-2{font-size:40px;fill:#fecf08;font-family:Acre-Light, Acre;font-weight:300;}.cls-3{letter-spacing:0em;}.cls-4{letter-spacing:-0.03em;}.cls-5{font-size:19.94px;font-family:Acre-Thin, Acre;font-weight:200;}.cls-6{letter-spacing:-0.02em;}.cls-7{letter-spacing:-0.02em;}.cls-8{letter-spacing:-0.01em;}.cls-9{letter-spacing:-0.07em;}.cls-10{letter-spacing:-0.03em;}.cls-11,.cls-17,.cls-18{fill:#2b63a3;}.cls-12{font-size:19.62px;}.cls-12,.cls-15,.cls-19{fill:#fff;}.cls-12,.cls-15{font-family:Acre-Bold, Acre;font-weight:700;}.cls-13{letter-spacing:-0.01em;}.cls-14{letter-spacing:-0.01em;}.cls-15{font-size:20px;}.cls-16{letter-spacing:-0.01em;}.cls-17,.cls-18{stroke:#fff;}.cls-17,.cls-18,.cls-19{stroke-miterlimit:10;}.cls-17{stroke-width:0.53px;}.cls-18{stroke-width:0.43px;}.cls-19{stroke:#5c5052;stroke-width:0.1px;}</style></defs><g id="Layer_2" data-name="Layer 2"><g id="Layer_9" data-name="Layer 9"><path class="cls-1" d="M76.5,122.24c23.71-4.52,47.86-4,72.33-3,134.72,5.17,259.88-11,393.41,3V278.79H76.5Z"/><text class="cls-2" transform="translate(231.68 34)"><tspan class="cls-3">s</tspan><tspan x="16.2" y="0">alinit</tspan><tspan class="cls-4" x="103.88" y="0">y</tspan></text><text class="cls-5" transform="translate(135.89 72.45)"><tspan class="cls-6">m</tspan><tspan x="16.85" y="0">easu</tspan><tspan class="cls-6" x="59.69" y="0">r</tspan><tspan x="65.07" y="0">es t</tspan><tspan class="cls-7" x="96.42" y="0">h</tspan><tspan x="107.37" y="0">e a</tspan><tspan class="cls-6" x="137.96" y="0">m</tspan><tspan x="154.81" y="0">ount </tspan><tspan class="cls-8" x="201.75" y="0">o</tspan><tspan x="213.63" y="0">f sal</tspan><tspan class="cls-8" x="250.29" y="0">t</tspan><tspan x="255.27" y="0">s in soil</tspan><tspan x="-87.32" y="242.29">i</tspan><tspan class="cls-6" x="-82.62" y="242.29">n</tspan><tspan x="-71.67" y="242.29">dica</tspan><tspan class="cls-6" x="-31.57" y="242.29">t</tspan><tspan x="-26.78" y="242.29">es t</tspan><tspan class="cls-7" x="4.57" y="242.29">h</tspan><tspan x="15.51" y="242.29">e electrical co</tspan><tspan class="cls-6" x="144.43" y="242.29">n</tspan><tspan x="155.38" y="242.29">ductivit</tspan><tspan class="cls-9" x="219.45" y="242.29">y</tspan><tspan x="227.57" y="242.29">, or t</tspan><tspan class="cls-6" x="267.59" y="242.29">h</tspan><tspan x="278.54" y="242.29">e abilit</tspan><tspan class="cls-6" x="340.34" y="242.29">y</tspan><tspan x="349.45" y="242.29"> </tspan><tspan class="cls-8" x="356.43" y="242.29">o</tspan><tspan x="368.32" y="242.29">f soil </tspan><tspan class="cls-8" x="-99.3" y="269.22">w</tspan><tspan x="-84.1" y="269.22">a</tspan><tspan class="cls-6" x="-71.8" y="269.22">t</tspan><tspan x="-67.01" y="269.22">er </tspan><tspan class="cls-6" x="-42.95" y="269.22">t</tspan><tspan x="-38.16" y="269.22">o carr</tspan><tspan class="cls-7" x="15.56" y="269.22">y</tspan><tspan x="24.68" y="269.22" xml:space="preserve"> a cur</tspan><tspan class="cls-6" x="78.86" y="269.22">r</tspan><tspan x="84.24" y="269.22">en</tspan><tspan class="cls-6" x="106.89" y="269.22">t</tspan><tspan x="111.68" y="269.22">. i</tspan><tspan class="cls-6" x="126.12" y="269.22">n</tspan><tspan x="137.07" y="269.22">di</tspan><tspan class="cls-6" x="154.08" y="269.22">r</tspan><tspan x="159.46" y="269.22">ectl</tspan><tspan class="cls-6" x="191.05" y="269.22">y</tspan><tspan x="200.16" y="269.22" xml:space="preserve"> i</tspan><tspan class="cls-7" x="211.85" y="269.22">n</tspan><tspan x="222.79" y="269.22">dica</tspan><tspan class="cls-6" x="262.9" y="269.22">t</tspan><tspan x="267.68" y="269.22">es t</tspan><tspan class="cls-6" x="299.03" y="269.22">h</tspan><tspan x="309.98" y="269.22">e a</tspan><tspan class="cls-6" x="340.57" y="269.22">m</tspan><tspan x="357.42" y="269.22">ount </tspan><tspan class="cls-8" x="404.36" y="269.22">o</tspan><tspan x="416.25" y="269.22">f </tspan><tspan x="-78.84" y="296.14">nutrien</tspan><tspan class="cls-8" x="-17.82" y="296.14">t</tspan><tspan x="-12.83" y="296.14">s a</tspan><tspan class="cls-8" x="14.33" y="296.14">v</tspan><tspan x="23.98" y="296.14">ailable or p</tspan><tspan class="cls-8" x="129.63" y="296.14">o</tspan><tspan class="cls-6" x="141.51" y="296.14">t</tspan><tspan x="146.3" y="296.14">ential issues with e</tspan><tspan class="cls-10" x="315.32" y="296.14">x</tspan><tspan x="324.12" y="296.14">cess sal</tspan><tspan class="cls-6" x="393.43" y="296.14">t</tspan><tspan x="398.22" y="296.14">.</tspan></text><path class="cls-11" d="M519,195.81c-24.7-6.07-49.56-12.16-75.28-14.86-26-2.73-52.43-1.93-78.7-1.79-80.74.43-162.85-5.45-242.47,7.65-13.25,0-12.52,4.32-13.38,16a26.82,26.82,0,0,0,.06,6.58c1,5.58,8.36,12.29,13,15.44a21.28,21.28,0,0,0,5.93,2.5l72.3,22.34c4.59,1.42,9.3,2.86,14.1,2.61,6.68-.33,12.76-3.87,19.31-5.23a42.29,42.29,0,0,1,13-.38l4.87.64c5.21.79,10.44,1.85,15.67,2.21,1.26.09,2.53.13,3.79.14,41.33,4.62,83.06,6.55,123.54-.38,38.82-6.64,74.49-21.14,108.49-36.86C511.46,208.67,520.74,203,519,195.81Z"/><text class="cls-12" transform="translate(271.28 194.03)"><tspan class="cls-13">M</tspan><tspan x="16.33" y="0">g</tspan></text><text class="cls-12" transform="translate(299.68 187.5) scale(0.58)">2+</text><text class="cls-12" transform="translate(376.67 233.16)"><tspan class="cls-13">M</tspan><tspan x="16.33" y="0">g</tspan></text><text class="cls-12" transform="translate(405.06 226.63) scale(0.58)">2+</text><text class="cls-12" transform="translate(293.92 233.16)">K</text><text class="cls-12" transform="translate(306.01 226.63) scale(0.58)">+</text><text class="cls-12" transform="translate(349.88 171.9)">K</text><text class="cls-12" transform="translate(361.97 165.36) scale(0.58)">+</text><text class="cls-12" transform="translate(129.05 194.87)"><tspan class="cls-14">C</tspan><tspan x="11.58" y="0">a</tspan></text><text class="cls-12" transform="translate(152.7 188.33) scale(0.58)">2+</text><text class="cls-15" transform="translate(203.39 196.4)"><tspan class="cls-16">N</tspan><tspan x="14.44" y="0">a</tspan></text><text class="cls-15" transform="translate(230.12 189.74) scale(0.58)">+</text><text class="cls-15" transform="translate(384.93 197.46)">Cl</text><text class="cls-15" transform="translate(402.39 190.8) scale(0.58)">-</text><text class="cls-15" transform="translate(446.43 231.46)">NO3</text><text class="cls-15" transform="translate(482.89 224.8) scale(0.58)">-</text><text class="cls-15" transform="translate(155.93 219.46)">Cl</text><text class="cls-15" transform="translate(173.39 212.8) scale(0.58)">-</text><text class="cls-15" transform="translate(448.36 194.23)"><tspan class="cls-16">N</tspan><tspan x="14.44" y="0">a</tspan></text><text class="cls-15" transform="translate(475.1 187.57) scale(0.58)">+</text><text class="cls-12" transform="translate(203.07 241.16)"><tspan class="cls-14">C</tspan><tspan x="11.58" y="0">a</tspan></text><text class="cls-12" transform="translate(226.72 234.63) scale(0.58)">2+</text><path class="cls-17" d="M438.07,196.85c-5.28-2.41-6.68-12.56-4.37-19.68,2.76-8.51,4.19-15.12,4.64-21.63l7.48,3.84L435.2,136.82l-7.42,23.93,6.82-4.9a86.12,86.12,0,0,1-4.41,20.06c-3.59,11.08.49,21.82,6.4,24.52a1.76,1.76,0,0,0,.74.16,1.86,1.86,0,0,0,1.7-1.17A2,2,0,0,0,438.07,196.85Z"/><path class="cls-18" d="M335.87,173.89c.28-1.51.61-3,.94-4.56l5.28,4.16-4.72-18.67-9.7,16.63,6.17-2.51c-.32,1.45-.64,2.94-.91,4.42-1.14,6.29-1.08,19.65,2,27.36a1.5,1.5,0,0,0,1.39.94,1.35,1.35,0,0,0,.55-.11,1.49,1.49,0,0,0,.84-1.94C334.94,192.69,334.77,180,335.87,173.89Z"/><path class="cls-17" d="M186,155l-7.44-25.23-6.61,25.74,5.53-5c.71,13.31,1.46,28.26-1.91,38.06a2.69,2.69,0,0,0,.62,2.87,1.1,1.1,0,0,0,.66.24,1.49,1.49,0,0,0,1.28-1.17c3.72-10.8,3-26.26,2.23-40.06Z"/><path class="cls-19" d="M499,165.5c-.32-.24-.94-.1-1.28-.07a12.43,12.43,0,0,0-2,.32c-1,.24-2.16.95-1.93,1.93.19.79,1.15,1.08,2,1.23a3.51,3.51,0,0,0,1.58,0c.18-.06.31-.22.49-.27a1.24,1.24,0,0,0,1.1-.88,3.32,3.32,0,0,0,.26-1.16c0-.26.08-.77-.08-1A.52.52,0,0,0,499,165.5Z"/><path class="cls-19" d="M394,170.9c-.32-.24-.93-.1-1.28-.07a12.12,12.12,0,0,0-2,.31c-1,.24-2.17,1-1.93,1.93.18.79,1.15,1.09,2,1.24a3.47,3.47,0,0,0,1.57,0c.18-.05.31-.21.5-.26a1.51,1.51,0,0,0,.46-.13,1.73,1.73,0,0,0,.63-.76,3.21,3.21,0,0,0,.26-1.15,2,2,0,0,0-.07-1A.52.52,0,0,0,394,170.9Z"/><path class="cls-19" d="M482.29,165.64h.3c.81,0,1.61.08,2.42,0a1.93,1.93,0,0,0,1.24-.39,1.37,1.37,0,0,0,0-1.8,3.84,3.84,0,0,0-1.71-1c-1.52-.55-3.7-.71-4.28.78a1.92,1.92,0,0,0,.47,1.95A2,2,0,0,0,482.29,165.64Z"/><path class="cls-19" d="M467,163.8a2.22,2.22,0,0,0-1.17-.23,4.74,4.74,0,0,0-1.68.16,2.43,2.43,0,0,0-1.8,2.06,1.6,1.6,0,0,0,.62,1.26,2.86,2.86,0,0,0,2.28.17,3.59,3.59,0,0,0,1.55-1.65c.18-.38.53-1.18.33-1.6A.43.43,0,0,0,467,163.8Z"/><path class="cls-19" d="M488.3,175.36a3.9,3.9,0,0,0,.38-.33,1.77,1.77,0,0,0,.22-.16,3.58,3.58,0,0,1,.61-.62,4.34,4.34,0,0,0,.73-.63,3.07,3.07,0,0,0,.5-.64,1.18,1.18,0,0,0,.1-.7.58.58,0,0,0,0-.29c-.12-.25-.64-.23-.87-.25a6.68,6.68,0,0,0-1,0,3.31,3.31,0,0,0-1.8.6,2.07,2.07,0,0,0-.66,2.07c.17.72,1,1.49,1.82,1Z"/><path class="cls-19" d="M460.91,172.3a.31.31,0,0,0-.06-.13c-.2-.41-.86-.67-1.27-.85a2.79,2.79,0,0,0-1.51-.23,2.45,2.45,0,0,0-1.27.67,1.16,1.16,0,0,0-.41,1.09.65.65,0,0,0,.27.34,1.29,1.29,0,0,0,.4.16,5,5,0,0,0,.86.14,4.11,4.11,0,0,0,1.7-.24,3.82,3.82,0,0,0,.76-.37c.16-.1.56-.3.55-.49A.29.29,0,0,0,460.91,172.3Z"/><path class="cls-19" d="M412.64,163.56a3.65,3.65,0,0,1-.53.2c-.15,0-1.44.27-1.47,0a3.48,3.48,0,0,1,1.36-3,3.63,3.63,0,0,1,2.48-.84c1.39.4-.8,2.67-1.18,3.12A2.26,2.26,0,0,1,412.64,163.56Z"/><path class="cls-19" d="M402.29,170.33c-1.5-.18-3.64-.92-3.56-2.56a2.12,2.12,0,0,1,1.8-1.78,6.45,6.45,0,0,1,2.72.22,5.79,5.79,0,0,1,2.91,1.4,1.7,1.7,0,0,1,.57,1.3c-.09.48-1,1-1.4,1.34-.66.49-1.73.15-2.49.13C402.67,170.37,402.49,170.36,402.29,170.33Z"/><path class="cls-19" d="M385.55,169a1.4,1.4,0,0,0-.19-.92,1.64,1.64,0,0,0-.66-.49,3.31,3.31,0,0,0-2.75-.14c-1.36.63-1.89,3-.59,4C383,172.55,385.43,170.67,385.55,169Z"/><path class="cls-19" d="M371.82,172.75c-1.52.05-2.33-3.42-1.64-3.82,1.87-1.06,4.66.53,3.16,2.69C372.79,172.42,372.27,172.74,371.82,172.75Z"/><path class="cls-19" d="M421.29,164.67c-1.52,0-2.33-3.42-1.64-3.82,1.87-1.07,4.66.53,3.16,2.68C422.26,164.33,421.74,164.65,421.29,164.67Z"/><path class="cls-19" d="M294.73,167.22c-.33-.24-.94-.1-1.29-.07a12.12,12.12,0,0,0-2,.31c-1,.24-2.16,1-1.93,1.93.19.79,1.15,1.09,2,1.24a3.47,3.47,0,0,0,1.57,0c.19-.05.32-.21.5-.26a1.65,1.65,0,0,0,.47-.13,1.71,1.71,0,0,0,.62-.76,3.07,3.07,0,0,0,.27-1.15,2,2,0,0,0-.08-1A.47.47,0,0,0,294.73,167.22Z"/><path class="cls-19" d="M252.49,172a2.54,2.54,0,0,1-.53.2c-.15,0-1.43.28-1.46,0a3.47,3.47,0,0,1,1.35-3,3.58,3.58,0,0,1,2.48-.84c1.39.39-.8,2.67-1.18,3.11A1.9,1.9,0,0,1,252.49,172Z"/><path class="cls-19" d="M303,166.65c-1.49-.18-3.64-.92-3.56-2.56a2.14,2.14,0,0,1,1.8-1.78,6.5,6.5,0,0,1,2.73.22,5.83,5.83,0,0,1,2.91,1.4,1.73,1.73,0,0,1,.56,1.3c-.09.48-1,1-1.4,1.34-.66.49-1.73.15-2.49.13C303.4,166.69,303.21,166.68,303,166.65Z"/><path class="cls-19" d="M286.28,165.29a1.47,1.47,0,0,0-.2-.92,1.6,1.6,0,0,0-.65-.49,3.34,3.34,0,0,0-2.76-.14c-1.36.63-1.89,3-.59,3.94C283.7,168.87,286.16,167,286.28,165.29Z"/><path class="cls-19" d="M272.55,169.07c-1.53.05-2.34-3.42-1.64-3.82,1.86-1.06,4.66.53,3.16,2.69C273.51,168.74,273,169.06,272.55,169.07Z"/><path class="cls-19" d="M261.15,173.15c-1.53,0-2.33-3.42-1.64-3.81,1.86-1.07,4.66.52,3.16,2.68C262.11,172.82,261.6,173.14,261.15,173.15Z"/><path class="cls-19" d="M451.76,169.18a1.43,1.43,0,0,0-.2-.91,1.54,1.54,0,0,0-.65-.5,3.34,3.34,0,0,0-2.76-.14c-1.36.63-1.89,3-.59,4C449.18,172.76,451.64,170.88,451.76,169.18Z"/><path class="cls-19" d="M491.59,169.69a.82.82,0,0,0-.06-.41,2.66,2.66,0,0,0-1-1.21,6.33,6.33,0,0,0-4.27-1.3,2.56,2.56,0,0,0-1.11.21c-.28.28.09.8.26,1.08l.65,1a2,2,0,0,0,.3.4,1.64,1.64,0,0,0,.46.27c.43.17.89.25,1.33.39a3.47,3.47,0,0,0,1.11.12c.48,0,2.12,0,2.28-.51C491.58,169.74,491.58,169.72,491.59,169.69Z"/><path class="cls-19" d="M320.12,167.67h.3c.81,0,1.61.08,2.42,0a1.91,1.91,0,0,0,1.24-.38,1.36,1.36,0,0,0,0-1.8,3.72,3.72,0,0,0-1.71-1c-1.51-.55-3.7-.71-4.27.78a1.88,1.88,0,0,0,.46,1.95A2,2,0,0,0,320.12,167.67Z"/><path class="cls-19" d="M316.19,171.72a.84.84,0,0,0-.06-.41,2.72,2.72,0,0,0-1-1.21,6.36,6.36,0,0,0-2-1,6.1,6.1,0,0,0-2.25-.25c-.26,0-.92,0-1.11.21s.09.8.26,1.07l.65,1a2.06,2.06,0,0,0,.3.41,1.61,1.61,0,0,0,.46.26c.43.17.89.25,1.33.39a3.48,3.48,0,0,0,1.11.13c.48,0,2.12,0,2.28-.52C316.18,171.78,316.18,171.75,316.19,171.72Z"/><path class="cls-19" d="M503.78,175.6c.91-1,1.36-3.22.62-4.13-1.2-1.49-3.83-.13-4.14,1.33s1.17,3.89,2.8,3.32A1.74,1.74,0,0,0,503.78,175.6Z"/><path class="cls-19" d="M234.49,167.82c-.32-.24-.94-.1-1.28-.07a12.12,12.12,0,0,0-2,.31c-1,.25-2.17,1-1.94,1.94.19.79,1.16,1.08,2,1.23a3.51,3.51,0,0,0,1.58,0c.18-.05.31-.21.5-.26a1.68,1.68,0,0,0,.46-.13,1.73,1.73,0,0,0,.63-.76,3.21,3.21,0,0,0,.26-1.15,1.83,1.83,0,0,0-.08-1A.36.36,0,0,0,234.49,167.82Z"/><path class="cls-19" d="M200.45,167.18a2.34,2.34,0,0,0-1.18-.24,4.71,4.71,0,0,0-1.67.17,2.42,2.42,0,0,0-1.81,2.06,1.66,1.66,0,0,0,.62,1.26,2,2,0,0,0,1.27.32,1.81,1.81,0,0,0,1-.16,3.43,3.43,0,0,0,1.54-1.65c.19-.37.53-1.17.34-1.59A.55.55,0,0,0,200.45,167.18Z"/><path class="cls-19" d="M222.79,175.56c.13-.09.24-.22.37-.32a2.11,2.11,0,0,0,.22-.17,4.4,4.4,0,0,1,.61-.61,4.54,4.54,0,0,0,.74-.64,3.39,3.39,0,0,0,.49-.64,1.18,1.18,0,0,0,.1-.7.7.7,0,0,0,0-.29c-.13-.25-.65-.22-.88-.25a6.65,6.65,0,0,0-1,0,3.25,3.25,0,0,0-1.79.6,2.08,2.08,0,0,0-.67,2.07c.17.72,1.05,1.49,1.82,1Z"/><path class="cls-19" d="M191.81,174.46a.75.75,0,0,0-.06-.13c-.2-.41-.86-.67-1.27-.85a2.79,2.79,0,0,0-1.51-.23,2.45,2.45,0,0,0-1.27.67,1.16,1.16,0,0,0-.41,1.09.6.6,0,0,0,.27.34,1.29,1.29,0,0,0,.4.16,5,5,0,0,0,.86.14,4.12,4.12,0,0,0,2.46-.61c.16-.1.56-.29.55-.49A.29.29,0,0,0,191.81,174.46Z"/><path class="cls-19" d="M211.78,173.07a1,1,0,0,0-.05-.41,2.7,2.7,0,0,0-1-1.21,6.21,6.21,0,0,0-2-1,6,6,0,0,0-2.26-.26c-.26,0-.91,0-1.1.21s.08.8.26,1.08l.64,1a1.72,1.72,0,0,0,.31.4,1.36,1.36,0,0,0,.45.26c.43.18.89.25,1.33.4a3.47,3.47,0,0,0,1.11.12c.48,0,2.12,0,2.28-.51A.31.31,0,0,0,211.78,173.07Z"/><path class="cls-19" d="M242.64,174.33c.92-1.05,1.37-3.23.63-4.14-1.2-1.48-3.83-.12-4.15,1.33s1.18,3.89,2.8,3.32A1.81,1.81,0,0,0,242.64,174.33Z"/><path class="cls-19" d="M159.21,163.47c-.32-.24-.93-.09-1.28-.07a12.14,12.14,0,0,0-2,.32c-1,.24-2.17.95-1.93,1.93.18.79,1.15,1.08,2,1.24a3.47,3.47,0,0,0,1.57,0c.18-.06.31-.21.5-.27a1.27,1.27,0,0,0,.46-.13,1.65,1.65,0,0,0,.63-.75,3.26,3.26,0,0,0,.26-1.15,2,2,0,0,0-.07-1A.57.57,0,0,0,159.21,163.47Z"/><path class="cls-19" d="M143.08,163.61h.31c.8,0,1.6.08,2.41,0a1.91,1.91,0,0,0,1.24-.38,1.36,1.36,0,0,0,0-1.8,3.74,3.74,0,0,0-1.7-1c-1.52-.55-3.71-.71-4.28.78a1.89,1.89,0,0,0,.46,1.95A2,2,0,0,0,143.08,163.61Z"/><path class="cls-19" d="M130,170.83a2.23,2.23,0,0,0-1.17-.24,4.74,4.74,0,0,0-1.68.17,2.42,2.42,0,0,0-1.8,2.05,1.57,1.57,0,0,0,.62,1.26,2.86,2.86,0,0,0,2.28.17,3.59,3.59,0,0,0,1.55-1.65c.18-.38.53-1.18.33-1.6A.4.4,0,0,0,130,170.83Z"/><path class="cls-19" d="M148.57,173.33c.13-.09.24-.22.37-.32l.23-.17a3.84,3.84,0,0,1,.6-.61,4.54,4.54,0,0,0,.74-.64,3.85,3.85,0,0,0,.5-.63,1.31,1.31,0,0,0,.09-.71.64.64,0,0,0,0-.28c-.13-.25-.64-.23-.88-.25a5.55,5.55,0,0,0-1,0,3.25,3.25,0,0,0-1.79.6,2.05,2.05,0,0,0-.66,2.07c.17.73,1,1.5,1.81,1Z"/><path class="cls-19" d="M124.61,166.69l-.06-.14a2.61,2.61,0,0,0-1.27-.84,2.82,2.82,0,0,0-1.51-.23,2.28,2.28,0,0,0-1.27.67,1.14,1.14,0,0,0-.42,1.08.77.77,0,0,0,.27.35,1.38,1.38,0,0,0,.4.15,4.19,4.19,0,0,0,.86.15,4,4,0,0,0,2.47-.62c.15-.1.55-.29.54-.49C124.62,166.74,124.61,166.71,124.61,166.69Z"/><path class="cls-19" d="M138.62,167.66a1,1,0,0,0-.05-.41,2.81,2.81,0,0,0-1-1.21,6.41,6.41,0,0,0-2-1,6.17,6.17,0,0,0-2.26-.25c-.26,0-.91,0-1.1.21s.08.8.25,1.07l.65,1a1.77,1.77,0,0,0,.31.41,1.56,1.56,0,0,0,.45.26c.43.17.89.25,1.33.39a3.48,3.48,0,0,0,1.11.13c.48,0,2.12,0,2.28-.52A.19.19,0,0,0,138.62,167.66Z"/><path class="cls-19" d="M166.67,174.58c.92-1.05,1.37-3.22.63-4.14-1.2-1.48-3.83-.12-4.14,1.34s1.17,3.88,2.8,3.32A1.74,1.74,0,0,0,166.67,174.58Z"/></g></g></svg>