<?xml version="1.0" encoding="UTF-8"?><svg xmlns="http://www.w3.org/2000/svg" viewBox="0 0 568.95 439.43"><defs><style>.d{fill:#408c80;stroke-width:1.11px;}.d,.e,.f,.g,.h,.i,.j,.k,.l,.m,.n,.o,.p,.q,.r,.s,.t,.u,.v,.w,.x,.y,.a`,.aa,.ab{stroke-miterlimit:10;}.d,.f,.aa{stroke:#6d54a3;}.e{stroke-width:.53px;}.e,.n{fill:#6b6264;}.e,.n,.o{stroke:#2e61a2;}.f{stroke-width:.61px;}.f,.aa{fill:#39944c;}.ac,.j,.s,.t{fill:#fff;}.ad{fill:#fecf08;}.ae{fill:#5c5052;}.g{fill:#2e61a2;stroke-width:.11px;}.g,.h,.i,.k,.l,.m,.p,.s,.t,.w,.a`,.ab{stroke:#fff;}.h{stroke-width:.39px;}.h,.w{fill:#2e6296;}.i,.j{stroke-width:.11px;}.i,.o,.p{fill:#ffcf01;}.j,.r,.x{stroke:#ec6a7c;}.k{stroke-width:.24px;}.k,.l,.r,.v,.x{fill:#6d54a3;}.l{stroke-width:.24px;}.m{fill:#2e61a1;stroke-width:.23px;}.n{stroke-width:.34px;}.o{stroke-width:1.62px;}.p{stroke-width:.22px;}.q{stroke-width:.43px;}.q,.y{stroke:#ffcf01;}.q,.a`,.ab{fill:#ec6a7c;}.r{stroke-width:.44px;}.s{stroke-width:.21px;}.t{stroke-width:.19px;}.u{fill:none;stroke:#5e5252;stroke-width:.6px;}.v{stroke:#ededee;stroke-width:.36px;}.w{stroke-width:.18px;}.x{stroke-width:.74px;}.y{fill:#f37243;stroke-width:.66px;}.a`{stroke-width:.16px;}.aa{stroke-width:.62px;}.ab{stroke-width:.12px;}</style></defs><g id="a"/><g id="b"><g id="c"><g><path class="ad" d="M96.88,22.72v11.28h-2.36v-10.84c0-4.8-2.36-7.28-5.84-7.28-3.08,0-5.56,2.12-5.88,6.28v11.84h-2.4V14h2.4v3.28c1.16-2.04,3.44-3.64,6.4-3.64,4.12,0,7.68,2.92,7.68,9.08Z"/><path class="ad" d="M119.36,14v20h-2.4v-3.28c-1.16,2.04-3.44,3.64-6.4,3.64-4.12,0-7.68-2.92-7.68-9.08V14h2.36v10.84c0,4.8,2.36,7.28,5.84,7.28,3.08,0,5.56-2.12,5.88-6.28V14h2.4Z"/><path class="ad" d="M133.08,16.32h-4.12v17.68h-2.4V16.32h-2.56v-2.32h2.56v-5.36h2.4v5.36h4.12v2.32Z"/><path class="ad" d="M145.24,13.68v2.72c-3.24-.24-5.76,2.48-5.76,6.6v11h-2.4V14h2.4v3.68c1.04-2.08,2.96-4,5.76-4Z"/><path class="ad" d="M149.24,8.32c0-.96,.72-1.72,1.68-1.72s1.72,.76,1.72,1.72-.76,1.68-1.72,1.68-1.68-.72-1.68-1.68Zm.52,5.68h2.4v20h-2.4V14Z"/><path class="ad" d="M176.84,24.84h-16.52c.36,4.08,3.24,7.16,7.68,7.16,2.8,0,5.08-1.12,6.8-2.76v2.72c-1.72,1.4-4.12,2.32-6.88,2.32-6.28,0-10.04-4.72-10.04-10.28s3.92-10.24,9.64-10.24,9.44,5.2,9.32,11.08Zm-16.48-2.12h13.92c-.52-3.72-3-6.64-6.76-6.64s-6.64,2.88-7.16,6.64Z"/><path class="ad" d="M198.36,22.72v11.28h-2.36v-10.84c0-4.8-2.36-7.28-5.84-7.28-3.08,0-5.56,2.12-5.88,6.28v11.84h-2.4V14h2.4v3.28c1.16-2.04,3.44-3.64,6.4-3.64,4.12,0,7.68,2.92,7.68,9.08Z"/><path class="ad" d="M211.76,16.32h-4.12v17.68h-2.4V16.32h-2.56v-2.32h2.56v-5.36h2.4v5.36h4.12v2.32Z"/><path class="ad" d="M228.16,24c0-5.56,4-10.32,10.2-10.32,2.76,0,5,.92,6.68,2.36v2.96c-1.4-1.68-3.76-2.96-6.6-2.96-4.72,0-7.88,3.64-7.88,7.96s3.16,7.96,7.88,7.96c2.84,0,5.2-1.28,6.6-2.96v2.96c-1.68,1.44-3.92,2.36-6.68,2.36-6.2,0-10.2-4.76-10.2-10.32Z"/><path class="ad" d="M249.28,23.96c0-5.52,4.12-10.28,10.12-10.28s10.12,4.76,10.12,10.28-4.12,10.32-10.12,10.32-10.12-4.76-10.12-10.32Zm17.84,0c0-4.24-3.12-7.92-7.72-7.92s-7.68,3.68-7.68,7.92,3.12,7.96,7.68,7.96,7.72-3.72,7.72-7.96Z"/><path class="ad" d="M291.24,22.72v11.28h-2.36v-10.84c0-4.8-2.36-7.28-5.84-7.28-3.08,0-5.56,2.12-5.88,6.28v11.84h-2.4V14h2.4v3.28c1.16-2.04,3.44-3.64,6.4-3.64,4.12,0,7.68,2.92,7.68,9.08Z"/><path class="ad" d="M295.56,24c0-5.56,4-10.32,10.2-10.32,2.76,0,5,.92,6.68,2.36v2.96c-1.4-1.68-3.76-2.96-6.6-2.96-4.72,0-7.88,3.64-7.88,7.96s3.16,7.96,7.88,7.96c2.84,0,5.2-1.28,6.6-2.96v2.96c-1.68,1.44-3.92,2.36-6.68,2.36-6.2,0-10.2-4.76-10.2-10.32Z"/><path class="ad" d="M335.64,24.84h-16.52c.36,4.08,3.24,7.16,7.68,7.16,2.8,0,5.08-1.12,6.8-2.76v2.72c-1.72,1.4-4.12,2.32-6.88,2.32-6.28,0-10.04-4.72-10.04-10.28s3.92-10.24,9.64-10.24,9.44,5.2,9.32,11.08Zm-16.48-2.12h13.92c-.52-3.72-3-6.64-6.76-6.64s-6.64,2.88-7.16,6.64Z"/><path class="ad" d="M357.16,22.72v11.28h-2.36v-10.84c0-4.8-2.36-7.28-5.84-7.28-3.08,0-5.56,2.12-5.88,6.28v11.84h-2.4V14h2.4v3.28c1.16-2.04,3.44-3.64,6.4-3.64,4.12,0,7.68,2.92,7.68,9.08Z"/><path class="ad" d="M370.56,16.32h-4.12v17.68h-2.4V16.32h-2.56v-2.32h2.56v-5.36h2.4v5.36h4.12v2.32Z"/><path class="ad" d="M382.72,13.68v2.72c-3.24-.24-5.76,2.48-5.76,6.6v11h-2.4V14h2.4v3.68c1.04-2.08,2.96-4,5.76-4Z"/><path class="ad" d="M403.96,14v20h-2.4v-4.12c-1.56,2.6-4.24,4.4-7.6,4.4-5.56,0-9.44-4.6-9.44-10.24s3.88-10.28,9.44-10.28c3.36,0,6.04,1.8,7.6,4.44v-4.2h2.4Zm-2.4,10.04c0-4.28-3.08-7.96-7.36-7.96s-7.24,3.64-7.24,7.96,2.96,7.92,7.24,7.92,7.36-3.64,7.36-7.92Z"/><path class="ad" d="M417.68,16.32h-4.12v17.68h-2.4V16.32h-2.56v-2.32h2.56v-5.36h2.4v5.36h4.12v2.32Z"/><path class="ad" d="M421.68,8.32c0-.96,.72-1.72,1.68-1.72s1.72,.76,1.72,1.72-.76,1.68-1.72,1.68-1.68-.72-1.68-1.68Zm.52,5.68h2.4v20h-2.4V14Z"/><path class="ad" d="M430.32,23.96c0-5.52,4.12-10.28,10.12-10.28s10.12,4.76,10.12,10.28-4.12,10.32-10.12,10.32-10.12-4.76-10.12-10.32Zm17.84,0c0-4.24-3.12-7.92-7.72-7.92s-7.68,3.68-7.68,7.92,3.12,7.96,7.68,7.96,7.72-3.72,7.72-7.96Z"/><path class="ad" d="M472.28,22.72v11.28h-2.36v-10.84c0-4.8-2.36-7.28-5.84-7.28-3.08,0-5.56,2.12-5.88,6.28v11.84h-2.4V14h2.4v3.28c1.16-2.04,3.44-3.64,6.4-3.64,4.12,0,7.68,2.92,7.68,9.08Z"/><path class="ad" d="M477.32,31.16l1.64-1.76c1.2,1.48,2.96,2.6,4.88,2.6,2.16,0,3.88-1.24,3.88-3.2,0-5-9.96-3.36-9.92-10,.04-2.88,2.48-5.08,5.84-5.12,2.64,0,4.84,1.48,6.04,2.84l-1.48,1.72c-1-1.08-2.56-2.24-4.52-2.24s-3.44,1.2-3.48,2.8c-.08,4.64,9.96,3.04,9.92,10.04-.04,3.08-2.56,5.48-6.36,5.48-2.48,0-5.08-1.4-6.44-3.16Z"/></g><g><path class="ae" d="M65.65,63.26h-2.05v9.19h-.8v-9.19h-1.28v-.78h1.28v-2.67h.8v2.67h2.05v.78Z"/><path class="ae" d="M75.79,66.87v5.58h-.8v-5.38c0-2.63-1.26-3.99-3.17-3.99-1.79,0-3.25,1.36-3.25,3.99v5.38h-.8v-15.96h.8v7.82c.58-1.08,1.78-1.99,3.33-1.99,2.11,0,3.89,1.46,3.89,4.55Z"/><path class="ae" d="M78.78,67.69c.1,2.27,1.68,4.13,4.15,4.13,1.48,0,2.67-.64,3.47-1.54v1.04c-.88,.78-2.07,1.28-3.47,1.28-3.09,0-4.95-2.35-4.95-5.13s1.96-5.11,4.77-5.11,4.61,2.51,4.61,5.33h-8.58Zm7.72-.78c-.26-2.05-1.6-3.77-3.75-3.77s-3.71,1.66-3.93,3.77h7.68Z"/><path class="ae" d="M105.8,62.48v9.97h-.8v-2.39c-.76,1.5-2.19,2.53-4.03,2.53-2.77,0-4.71-2.33-4.71-5.11s1.93-5.13,4.71-5.13c1.84,0,3.27,1.04,4.03,2.53v-2.41h.8Zm-.8,5.01c0-2.35-1.7-4.35-4.01-4.35s-3.93,1.99-3.93,4.35,1.62,4.33,3.93,4.33,4.01-1.97,4.01-4.33Z"/><path class="ae" d="M123.23,66.51l-.02,5.94h-.8v-5.76c0-2.17-1.08-3.59-2.87-3.59s-2.87,1.42-2.87,3.79l-.02,5.56h-.8v-5.76c0-2.17-1.08-3.59-2.87-3.59s-2.87,1.42-2.87,3.79v5.56h-.8v-9.97h.8v1.6c.54-.96,1.5-1.75,2.97-1.75s2.77,.86,3.31,2.41c.42-1.2,1.46-2.41,3.25-2.41,1.96,0,3.59,1.5,3.59,4.19Z"/><path class="ae" d="M125.42,67.45c0-2.73,2.04-5.11,5.03-5.11s5.03,2.37,5.03,5.11-2.03,5.12-5.03,5.12-5.03-2.37-5.03-5.12Zm9.25-.02c0-2.31-1.71-4.31-4.23-4.31s-4.23,2-4.23,4.31,1.74,4.37,4.23,4.37,4.23-2.05,4.23-4.37Z"/><path class="ae" d="M146.08,62.48v9.97h-.8v-1.83c-.58,1.08-1.78,2-3.33,2-2.12,0-3.89-1.46-3.89-4.55v-5.58h.8v5.38c0,2.63,1.26,3.99,3.17,3.99,1.79,0,3.25-1.36,3.25-3.99v-5.38h.8Z"/><path class="ae" d="M157.61,66.87v5.58h-.8v-5.38c0-2.63-1.26-3.99-3.17-3.99-1.79,0-3.25,1.36-3.25,3.99v5.38h-.8v-9.97h.8v1.83c.58-1.08,1.78-1.99,3.33-1.99,2.12,0,3.89,1.46,3.89,4.55Z"/><path class="ae" d="M164.01,63.26h-2.05v9.19h-.8v-9.19h-1.28v-.78h1.28v-2.67h.8v2.67h2.05v.78Z"/><path class="ae" d="M172.36,67.45c0-2.73,2.03-5.11,5.03-5.11s5.03,2.37,5.03,5.11-2.04,5.12-5.03,5.12-5.03-2.37-5.03-5.12Zm9.25-.02c0-2.31-1.71-4.31-4.23-4.31s-4.23,2-4.23,4.31,1.73,4.37,4.23,4.37,4.23-2.05,4.23-4.37Z"/><path class="ae" d="M185.98,58.19v4.29h2.07v.78h-2.07v9.19h-.8v-9.19h-1.26v-.78h1.26v-4.39c0-1.12,.82-1.73,1.7-1.73,.52,0,.88,.18,1.18,.4v.86c-.3-.22-.62-.46-1.12-.46s-.96,.38-.96,1.04Z"/><path class="ae" d="M205.17,66.87v5.58h-.8v-5.38c0-2.63-1.26-3.99-3.17-3.99-1.79,0-3.25,1.36-3.25,3.99v5.38h-.8v-9.97h.8v1.83c.58-1.08,1.78-1.99,3.33-1.99,2.12,0,3.89,1.46,3.89,4.55Z"/><path class="ae" d="M216.33,62.48v9.97h-.8v-1.83c-.58,1.08-1.78,2-3.33,2-2.12,0-3.89-1.46-3.89-4.55v-5.58h.8v5.38c0,2.63,1.26,3.99,3.17,3.99,1.79,0,3.25-1.36,3.25-3.99v-5.38h.8Z"/><path class="ae" d="M222.91,63.26h-2.05v9.19h-.8v-9.19h-1.28v-.78h1.28v-2.67h.8v2.67h2.05v.78Z"/><path class="ae" d="M228.7,62.36v.84c-1.73-.06-2.87,1.66-2.87,3.65v5.6h-.8v-9.97h.8v1.95c.48-1.08,1.42-2.07,2.87-2.07Z"/><path class="ae" d="M230.81,59.81c0-.34,.26-.6,.6-.6s.6,.26,.6,.6c0,.36-.26,.6-.6,.6s-.6-.24-.6-.6Zm.2,2.67h.8v9.97h-.8v-9.97Z"/><path class="ae" d="M235.58,67.69c.1,2.27,1.68,4.13,4.15,4.13,1.48,0,2.67-.64,3.47-1.54v1.04c-.88,.78-2.07,1.28-3.47,1.28-3.09,0-4.95-2.35-4.95-5.13s1.96-5.11,4.77-5.11,4.61,2.51,4.61,5.33h-8.58Zm7.72-.78c-.26-2.05-1.6-3.77-3.75-3.77s-3.71,1.66-3.93,3.77h7.68Z"/><path class="ae" d="M254.84,66.87v5.58h-.8v-5.38c0-2.63-1.26-3.99-3.17-3.99-1.79,0-3.25,1.36-3.25,3.99v5.38h-.8v-9.97h.8v1.83c.58-1.08,1.78-1.99,3.33-1.99,2.12,0,3.89,1.46,3.89,4.55Z"/><path class="ae" d="M261.24,63.26h-2.05v9.19h-.8v-9.19h-1.28v-.78h1.28v-2.67h.8v2.67h2.05v.78Z"/><path class="ae" d="M262.34,71.02l.6-.56c.6,.8,1.48,1.36,2.45,1.36,1.2,0,2.2-.7,2.2-1.85,0-2.83-5.09-1.96-5.05-5.21,.02-1.4,1.2-2.39,2.73-2.41,1.28-.02,2.31,.74,2.91,1.42l-.52,.54c-.54-.6-1.31-1.18-2.37-1.18-1.12,0-1.95,.7-1.97,1.62-.06,2.59,5.07,1.74,5.03,5.23-.02,1.5-1.2,2.63-2.99,2.63-1.22,0-2.41-.72-3.01-1.58Z"/><path class="ae" d="M286.81,62.48v9.97h-.8v-2.39c-.76,1.5-2.19,2.53-4.03,2.53-2.77,0-4.71-2.33-4.71-5.11s1.93-5.13,4.71-5.13c1.83,0,3.27,1.04,4.03,2.53v-2.41h.8Zm-.8,5.01c0-2.35-1.7-4.35-4.01-4.35s-3.93,1.99-3.93,4.35,1.62,4.33,3.93,4.33,4.01-1.97,4.01-4.33Z"/><path class="ae" d="M298.23,62.48l-4.57,10.01h-.36l-4.57-10.01h.86l3.89,8.62,3.89-8.62h.86Z"/><path class="ae" d="M308.76,62.48v9.97h-.8v-2.39c-.76,1.5-2.19,2.53-4.03,2.53-2.77,0-4.71-2.33-4.71-5.11s1.93-5.13,4.71-5.13c1.83,0,3.27,1.04,4.03,2.53v-2.41h.8Zm-.8,5.01c0-2.35-1.7-4.35-4.01-4.35s-3.93,1.99-3.93,4.35,1.62,4.33,3.93,4.33,4.01-1.97,4.01-4.33Z"/><path class="ae" d="M312.27,59.81c0-.34,.26-.6,.6-.6s.6,.26,.6,.6c0,.36-.26,.6-.6,.6s-.6-.24-.6-.6Zm.2,2.67h.8v9.97h-.8v-9.97Z"/><path class="ae" d="M316.98,56.5h.8v15.96h-.8v-15.96Z"/><path class="ae" d="M330.08,62.48v9.97h-.8v-2.39c-.76,1.5-2.19,2.53-4.03,2.53-2.77,0-4.71-2.33-4.71-5.11s1.93-5.13,4.71-5.13c1.84,0,3.27,1.04,4.03,2.53v-2.41h.8Zm-.8,5.01c0-2.35-1.7-4.35-4.01-4.35s-3.93,1.99-3.93,4.35,1.62,4.33,3.93,4.33,4.01-1.97,4.01-4.33Z"/><path class="ae" d="M343.12,67.47c0,2.79-1.94,5.13-4.71,5.13-1.84,0-3.27-1.04-4.03-2.53v2.39h-.8v-15.96h.8v8.4c.76-1.5,2.19-2.53,4.03-2.53,2.77,0,4.71,2.33,4.71,5.11Zm-.8,0c0-2.35-1.62-4.33-3.93-4.33s-4.01,1.97-4.01,4.33,1.7,4.35,4.01,4.35,3.93-1.99,3.93-4.35Z"/><path class="ae" d="M345.89,56.5h.8v15.96h-.8v-15.96Z"/><path class="ae" d="M350.26,67.69c.1,2.27,1.68,4.13,4.15,4.13,1.48,0,2.67-.64,3.47-1.54v1.04c-.88,.78-2.07,1.28-3.47,1.28-3.09,0-4.95-2.35-4.95-5.13s1.96-5.11,4.77-5.11,4.61,2.51,4.61,5.33h-8.58Zm7.72-.78c-.26-2.05-1.6-3.77-3.75-3.77s-3.71,1.66-3.93,3.77h7.68Z"/><path class="ae" d="M369.48,58.19v4.29h2.07v.78h-2.07v9.19h-.8v-9.19h-1.26v-.78h1.26v-4.39c0-1.12,.82-1.73,1.7-1.73,.52,0,.88,.18,1.18,.4v.86c-.3-.22-.62-.46-1.12-.46s-.96,.38-.96,1.04Z"/><path class="ae" d="M372.53,67.45c0-2.73,2.04-5.11,5.03-5.11s5.03,2.37,5.03,5.11-2.03,5.12-5.03,5.12-5.03-2.37-5.03-5.12Zm9.25-.02c0-2.31-1.71-4.31-4.23-4.31s-4.23,2-4.23,4.31,1.74,4.37,4.23,4.37,4.23-2.05,4.23-4.37Z"/><path class="ae" d="M389.03,62.36v.84c-1.73-.06-2.87,1.66-2.87,3.65v5.6h-.8v-9.97h.8v1.95c.48-1.08,1.42-2.07,2.87-2.07Z"/><path class="ae" d="M407.63,67.47c0,2.79-1.93,5.13-4.71,5.13-1.82,0-3.25-1.02-4.01-2.49v6.34h-.8v-13.96h.8v2.37c.76-1.48,2.19-2.49,4.01-2.49,2.77,0,4.71,2.33,4.71,5.11Zm-.8,0c0-2.35-1.62-4.33-3.93-4.33-2.17,0-3.79,1.74-3.99,3.89v.88c.2,2.15,1.81,3.91,3.99,3.91,2.31,0,3.93-1.99,3.93-4.35Z"/><path class="ae" d="M410.4,56.5h.8v15.96h-.8v-15.96Z"/><path class="ae" d="M423.51,62.48v9.97h-.8v-2.39c-.76,1.5-2.19,2.53-4.03,2.53-2.77,0-4.71-2.33-4.71-5.11s1.93-5.13,4.71-5.13c1.83,0,3.27,1.04,4.03,2.53v-2.41h.8Zm-.8,5.01c0-2.35-1.7-4.35-4.01-4.35s-3.93,1.99-3.93,4.35,1.62,4.33,3.93,4.33,4.01-1.97,4.01-4.33Z"/><path class="ae" d="M435.03,66.87v5.58h-.8v-5.38c0-2.63-1.26-3.99-3.17-3.99-1.79,0-3.25,1.36-3.25,3.99v5.38h-.8v-9.97h.8v1.83c.58-1.08,1.78-1.99,3.33-1.99,2.11,0,3.89,1.46,3.89,4.55Z"/><path class="ae" d="M441.43,63.26h-2.05v9.19h-.8v-9.19h-1.28v-.78h1.28v-2.67h.8v2.67h2.05v.78Z"/><path class="ae" d="M458.36,62.48v9.97h-.8v-1.83c-.58,1.08-1.78,2-3.33,2-2.11,0-3.89-1.46-3.89-4.55v-5.58h.8v5.38c0,2.63,1.26,3.99,3.17,3.99,1.79,0,3.25-1.36,3.25-3.99v-5.38h.8Z"/><path class="ae" d="M471.38,67.47c0,2.79-1.94,5.13-4.71,5.13-1.81,0-3.25-1.02-4.01-2.49v6.34h-.8v-13.96h.8v2.37c.76-1.48,2.19-2.49,4.01-2.49,2.77,0,4.71,2.33,4.71,5.11Zm-.8,0c0-2.35-1.62-4.33-3.93-4.33-2.17,0-3.79,1.74-3.99,3.89v.88c.2,2.15,1.81,3.91,3.99,3.91,2.31,0,3.93-1.99,3.93-4.35Z"/><path class="ae" d="M477.03,63.26h-2.05v9.19h-.8v-9.19h-1.28v-.78h1.28v-2.67h.8v2.67h2.05v.78Z"/><path class="ae" d="M487.54,62.48v9.97h-.8v-2.39c-.76,1.5-2.19,2.53-4.03,2.53-2.77,0-4.71-2.33-4.71-5.11s1.93-5.13,4.71-5.13c1.84,0,3.27,1.04,4.03,2.53v-2.41h.8Zm-.8,5.01c0-2.35-1.7-4.35-4.01-4.35s-3.93,1.99-3.93,4.35,1.62,4.33,3.93,4.33,4.01-1.97,4.01-4.33Z"/><path class="ae" d="M497.15,72.45l-5.3-4.59v4.59h-.8v-15.96h.8v10.75l5.15-4.77h1.1l-5.48,5.07,5.68,4.91h-1.14Z"/><path class="ae" d="M499.68,67.69c.1,2.27,1.68,4.13,4.15,4.13,1.48,0,2.67-.64,3.47-1.54v1.04c-.88,.78-2.07,1.28-3.47,1.28-3.09,0-4.95-2.35-4.95-5.13s1.96-5.11,4.77-5.11,4.61,2.51,4.61,5.33h-8.58Zm7.72-.78c-.26-2.05-1.6-3.77-3.75-3.77s-3.71,1.66-3.93,3.77h7.68Z"/><path class="ae" d="M37.79,275.18c0-.34,.26-.6,.6-.6s.6,.26,.6,.6c0,.36-.26,.6-.6,.6s-.6-.24-.6-.6Zm.2,2.67h.8v9.97h-.8v-9.97Z"/><path class="ae" d="M50.51,282.24v5.58h-.8v-5.38c0-2.63-1.26-3.99-3.17-3.99-1.79,0-3.25,1.36-3.25,3.99v5.38h-.8v-9.97h.8v1.84c.58-1.08,1.78-2,3.33-2,2.11,0,3.89,1.46,3.89,4.55Z"/><path class="ae" d="M69.61,287.37c0,3.15-2.35,4.59-4.67,4.59-1.52,0-2.75-.52-3.71-1.16l.02-.92c1.04,.78,2.23,1.32,3.59,1.32,2.23,0,4.01-1.4,3.99-3.97v-1.82c-.76,1.52-2.21,2.55-4.05,2.55-2.77,0-4.71-2.33-4.71-5.11s1.93-5.12,4.71-5.12c1.81,0,3.25,1.02,4.03,2.51l-.02-2.39h.8l.02,9.51Zm-.8-4.51c0-2.35-1.7-4.35-4.01-4.35s-3.93,1.99-3.93,4.35,1.62,4.33,3.93,4.33,4.01-1.97,4.01-4.33Z"/><path class="ae" d="M73.18,283.06c.1,2.27,1.68,4.13,4.15,4.13,1.48,0,2.67-.64,3.47-1.54v1.04c-.88,.78-2.07,1.28-3.47,1.28-3.09,0-4.95-2.35-4.95-5.12s1.96-5.11,4.77-5.11,4.61,2.51,4.61,5.32h-8.58Zm7.72-.78c-.26-2.05-1.6-3.77-3.75-3.77s-3.71,1.66-3.93,3.77h7.68Z"/><path class="ae" d="M92.45,282.24v5.58h-.8v-5.38c0-2.63-1.26-3.99-3.17-3.99-1.79,0-3.25,1.36-3.25,3.99v5.38h-.8v-9.97h.8v1.84c.58-1.08,1.78-2,3.33-2,2.12,0,3.89,1.46,3.89,4.55Z"/><path class="ae" d="M95.44,283.06c.1,2.27,1.68,4.13,4.15,4.13,1.47,0,2.67-.64,3.47-1.54v1.04c-.88,.78-2.07,1.28-3.47,1.28-3.09,0-4.95-2.35-4.95-5.12s1.95-5.11,4.77-5.11,4.61,2.51,4.61,5.32h-8.58Zm7.72-.78c-.26-2.05-1.6-3.77-3.75-3.77s-3.71,1.66-3.93,3.77h7.68Z"/><path class="ae" d="M110.35,277.73v.84c-1.73-.06-2.87,1.66-2.87,3.65v5.6h-.8v-9.97h.8v1.96c.48-1.08,1.42-2.07,2.87-2.07Z"/><path class="ae" d="M120.86,277.85v9.97h-.8v-2.39c-.76,1.5-2.19,2.53-4.03,2.53-2.77,0-4.71-2.33-4.71-5.11s1.93-5.12,4.71-5.12c1.84,0,3.27,1.04,4.03,2.53v-2.41h.8Zm-.8,5.01c0-2.35-1.7-4.35-4.01-4.35s-3.93,1.99-3.93,4.35,1.62,4.33,3.93,4.33,4.01-1.97,4.01-4.33Z"/><path class="ae" d="M124.37,271.87h.8v15.96h-.8v-15.96Z"/><path class="ae" d="M128.34,285.59h.82l-.86,4.43h-.6l.64-4.43Z"/><path class="ae" d="M141.74,278.63h-2.05v9.19h-.8v-9.19h-1.28v-.78h1.28v-2.67h.8v2.67h2.05v.78Z"/><path class="ae" d="M151.87,282.24v5.58h-.8v-5.38c0-2.63-1.26-3.99-3.17-3.99-1.79,0-3.25,1.36-3.25,3.99v5.38h-.8v-15.96h.8v7.82c.58-1.08,1.78-2,3.33-2,2.12,0,3.89,1.46,3.89,4.55Z"/><path class="ae" d="M154.86,283.06c.1,2.27,1.68,4.13,4.15,4.13,1.48,0,2.67-.64,3.47-1.54v1.04c-.88,.78-2.07,1.28-3.47,1.28-3.09,0-4.95-2.35-4.95-5.12s1.96-5.11,4.77-5.11,4.61,2.51,4.61,5.32h-8.58Zm7.72-.78c-.26-2.05-1.6-3.77-3.75-3.77s-3.71,1.66-3.93,3.77h7.68Z"/><path class="ae" d="M181.11,282.24v5.58h-.8v-5.38c0-2.63-1.26-3.99-3.17-3.99-1.79,0-3.25,1.36-3.25,3.99v5.38h-.8v-15.96h.8v7.82c.58-1.08,1.78-2,3.33-2,2.11,0,3.89,1.46,3.89,4.55Z"/><path class="ae" d="M184.44,275.18c0-.34,.26-.6,.6-.6s.6,.26,.6,.6c0,.36-.26,.6-.6,.6s-.6-.24-.6-.6Zm.2,2.67h.8v9.97h-.8v-9.97Z"/><path class="ae" d="M197.94,287.37c0,3.15-2.35,4.59-4.67,4.59-1.52,0-2.75-.52-3.71-1.16l.02-.92c1.04,.78,2.23,1.32,3.59,1.32,2.23,0,4.01-1.4,3.99-3.97v-1.82c-.76,1.52-2.21,2.55-4.05,2.55-2.77,0-4.71-2.33-4.71-5.11s1.93-5.12,4.71-5.12c1.81,0,3.25,1.02,4.03,2.51l-.02-2.39h.8l.02,9.51Zm-.8-4.51c0-2.35-1.7-4.35-4.01-4.35s-3.93,1.99-3.93,4.35,1.62,4.33,3.93,4.33,4.01-1.97,4.01-4.33Z"/><path class="ae" d="M209.46,282.24v5.58h-.8v-5.38c0-2.63-1.26-3.99-3.17-3.99-1.79,0-3.25,1.36-3.25,3.99v5.38h-.8v-15.96h.8v7.82c.58-1.08,1.78-2,3.33-2,2.12,0,3.89,1.46,3.89,4.55Z"/><path class="ae" d="M212.45,283.06c.1,2.27,1.68,4.13,4.15,4.13,1.47,0,2.67-.64,3.47-1.54v1.04c-.88,.78-2.07,1.28-3.47,1.28-3.09,0-4.95-2.35-4.95-5.12s1.95-5.11,4.77-5.11,4.61,2.51,4.61,5.32h-8.58Zm7.72-.78c-.26-2.05-1.6-3.77-3.75-3.77s-3.71,1.66-3.93,3.77h7.68Z"/><path class="ae" d="M227.37,277.73v.84c-1.73-.06-2.87,1.66-2.87,3.65v5.6h-.8v-9.97h.8v1.96c.48-1.08,1.42-2.07,2.87-2.07Z"/><path class="ae" d="M239.53,278.63h-2.05v9.19h-.8v-9.19h-1.28v-.78h1.28v-2.67h.8v2.67h2.05v.78Z"/><path class="ae" d="M249.66,282.24v5.58h-.8v-5.38c0-2.63-1.26-3.99-3.17-3.99-1.79,0-3.25,1.36-3.25,3.99v5.38h-.8v-15.96h.8v7.82c.58-1.08,1.78-2,3.33-2,2.11,0,3.89,1.46,3.89,4.55Z"/><path class="ae" d="M252.65,283.06c.1,2.27,1.68,4.13,4.15,4.13,1.48,0,2.67-.64,3.47-1.54v1.04c-.88,.78-2.07,1.28-3.47,1.28-3.09,0-4.95-2.35-4.95-5.12s1.96-5.11,4.77-5.11,4.61,2.51,4.61,5.32h-8.58Zm7.72-.78c-.26-2.05-1.6-3.77-3.75-3.77s-3.71,1.66-3.93,3.77h7.68Z"/><path class="ae" d="M270.14,282.84c0-2.77,1.97-5.12,5.06-5.12,1.4,0,2.59,.48,3.47,1.28v1.08c-.76-.94-1.99-1.58-3.47-1.58-2.59,0-4.27,1.99-4.27,4.35s1.68,4.35,4.27,4.35c1.48,0,2.71-.64,3.47-1.58v1.08c-.88,.8-2.07,1.28-3.47,1.28-3.09,0-5.06-2.35-5.06-5.12Z"/><path class="ae" d="M280.93,282.82c0-2.73,2.04-5.11,5.03-5.11s5.03,2.37,5.03,5.11-2.03,5.12-5.03,5.12-5.03-2.37-5.03-5.12Zm9.25-.02c0-2.31-1.71-4.31-4.23-4.31s-4.23,1.99-4.23,4.31,1.74,4.37,4.23,4.37,4.23-2.05,4.23-4.37Z"/><path class="ae" d="M301.77,282.24v5.58h-.8v-5.38c0-2.63-1.26-3.99-3.17-3.99-1.79,0-3.25,1.36-3.25,3.99v5.38h-.8v-9.97h.8v1.84c.58-1.08,1.78-2,3.33-2,2.11,0,3.89,1.46,3.89,4.55Z"/><path class="ae" d="M303.96,282.84c0-2.77,1.97-5.12,5.07-5.12,1.39,0,2.59,.48,3.47,1.28v1.08c-.76-.94-1.99-1.58-3.47-1.58-2.59,0-4.27,1.99-4.27,4.35s1.68,4.35,4.27,4.35c1.47,0,2.71-.64,3.47-1.58v1.08c-.88,.8-2.07,1.28-3.47,1.28-3.09,0-5.07-2.35-5.07-5.12Z"/><path class="ae" d="M315.55,283.06c.1,2.27,1.68,4.13,4.15,4.13,1.47,0,2.67-.64,3.47-1.54v1.04c-.88,.78-2.07,1.28-3.47,1.28-3.09,0-4.95-2.35-4.95-5.12s1.95-5.11,4.77-5.11,4.61,2.51,4.61,5.32h-8.58Zm7.72-.78c-.26-2.05-1.6-3.77-3.75-3.77s-3.71,1.66-3.93,3.77h7.68Z"/><path class="ae" d="M334.81,282.24v5.58h-.8v-5.38c0-2.63-1.26-3.99-3.17-3.99-1.79,0-3.25,1.36-3.25,3.99v5.38h-.8v-9.97h.8v1.84c.58-1.08,1.78-2,3.33-2,2.11,0,3.89,1.46,3.89,4.55Z"/><path class="ae" d="M341.21,278.63h-2.05v9.19h-.8v-9.19h-1.28v-.78h1.28v-2.67h.8v2.67h2.05v.78Z"/><path class="ae" d="M347,277.73v.84c-1.73-.06-2.87,1.66-2.87,3.65v5.6h-.8v-9.97h.8v1.96c.48-1.08,1.42-2.07,2.87-2.07Z"/><path class="ae" d="M357.51,277.85v9.97h-.8v-2.39c-.76,1.5-2.19,2.53-4.03,2.53-2.77,0-4.71-2.33-4.71-5.11s1.93-5.12,4.71-5.12c1.84,0,3.27,1.04,4.03,2.53v-2.41h.8Zm-.8,5.01c0-2.35-1.7-4.35-4.01-4.35s-3.93,1.99-3.93,4.35,1.62,4.33,3.93,4.33,4.01-1.97,4.01-4.33Z"/><path class="ae" d="M364.09,278.63h-2.05v9.19h-.8v-9.19h-1.28v-.78h1.28v-2.67h.8v2.67h2.05v.78Z"/><path class="ae" d="M366.2,275.18c0-.34,.26-.6,.6-.6s.6,.26,.6,.6c0,.36-.26,.6-.6,.6s-.6-.24-.6-.6Zm.2,2.67h.8v9.97h-.8v-9.97Z"/><path class="ae" d="M370.17,282.82c0-2.73,2.04-5.11,5.03-5.11s5.03,2.37,5.03,5.11-2.03,5.12-5.03,5.12-5.03-2.37-5.03-5.12Zm9.25-.02c0-2.31-1.71-4.31-4.23-4.31s-4.23,1.99-4.23,4.31,1.74,4.37,4.23,4.37,4.23-2.05,4.23-4.37Z"/><path class="ae" d="M391.01,282.24v5.58h-.8v-5.38c0-2.63-1.26-3.99-3.17-3.99-1.79,0-3.25,1.36-3.25,3.99v5.38h-.8v-9.97h.8v1.84c.58-1.08,1.78-2,3.33-2,2.11,0,3.89,1.46,3.89,4.55Z"/><path class="ae" d="M393.72,286.39l.6-.56c.6,.8,1.48,1.36,2.45,1.36,1.2,0,2.2-.7,2.2-1.85,0-2.83-5.09-1.95-5.05-5.21,.02-1.4,1.2-2.39,2.73-2.41,1.28-.02,2.31,.74,2.91,1.42l-.52,.54c-.54-.6-1.31-1.18-2.37-1.18-1.12,0-1.95,.7-1.97,1.62-.06,2.59,5.07,1.74,5.03,5.23-.02,1.5-1.2,2.63-2.99,2.63-1.22,0-2.41-.72-3.01-1.58Z"/><path class="ae" d="M402.08,285.59h.82l-.86,4.43h-.6l.64-4.43Z"/><path class="ae" d="M415.48,278.63h-2.05v9.19h-.8v-9.19h-1.28v-.78h1.28v-2.67h.8v2.67h2.05v.78Z"/><path class="ae" d="M425.61,282.24v5.58h-.8v-5.38c0-2.63-1.26-3.99-3.17-3.99-1.79,0-3.25,1.36-3.25,3.99v5.38h-.8v-15.96h.8v7.82c.58-1.08,1.78-2,3.33-2,2.11,0,3.89,1.46,3.89,4.55Z"/><path class="ae" d="M428.6,283.06c.1,2.27,1.68,4.13,4.15,4.13,1.48,0,2.67-.64,3.47-1.54v1.04c-.88,.78-2.07,1.28-3.47,1.28-3.09,0-4.95-2.35-4.95-5.12s1.96-5.11,4.77-5.11,4.61,2.51,4.61,5.32h-8.58Zm7.72-.78c-.26-2.05-1.6-3.77-3.75-3.77s-3.71,1.66-3.93,3.77h7.68Z"/><path class="ae" d="M456.36,282.84c0,2.79-1.93,5.12-4.71,5.12-1.83,0-3.27-1.04-4.03-2.53v2.39h-.8v-15.96h.8v8.4c.76-1.5,2.19-2.53,4.03-2.53,2.77,0,4.71,2.33,4.71,5.11Zm-.8,0c0-2.35-1.62-4.33-3.93-4.33s-4.01,1.97-4.01,4.33,1.7,4.35,4.01,4.35,3.93-1.99,3.93-4.35Z"/><path class="ae" d="M459.19,283.06c.1,2.27,1.68,4.13,4.15,4.13,1.48,0,2.67-.64,3.47-1.54v1.04c-.88,.78-2.07,1.28-3.47,1.28-3.09,0-4.95-2.35-4.95-5.12s1.96-5.11,4.77-5.11,4.61,2.51,4.61,5.32h-8.58Zm7.72-.78c-.26-2.05-1.6-3.77-3.75-3.77s-3.71,1.66-3.93,3.77h7.68Z"/><path class="ae" d="M473.31,278.63h-2.05v9.19h-.8v-9.19h-1.28v-.78h1.28v-2.67h.8v2.67h2.05v.78Z"/><path class="ae" d="M478.49,278.63h-2.05v9.19h-.8v-9.19h-1.28v-.78h1.28v-2.67h.8v2.67h2.05v.78Z"/><path class="ae" d="M480.27,283.06c.1,2.27,1.68,4.13,4.15,4.13,1.47,0,2.67-.64,3.47-1.54v1.04c-.88,.78-2.07,1.28-3.47,1.28-3.09,0-4.95-2.35-4.95-5.12s1.95-5.11,4.77-5.11,4.61,2.51,4.61,5.32h-8.58Zm7.72-.78c-.26-2.05-1.6-3.77-3.75-3.77s-3.71,1.66-3.93,3.77h7.68Z"/><path class="ae" d="M495.18,277.73v.84c-1.73-.06-2.87,1.66-2.87,3.65v5.6h-.8v-9.97h.8v1.96c.48-1.08,1.42-2.07,2.87-2.07Z"/><path class="ae" d="M496.56,285.59h.82l-.86,4.43h-.6l.64-4.43Z"/><path class="ae" d="M516.42,282.84c0,2.79-1.93,5.12-4.71,5.12-1.83,0-3.27-1.04-4.03-2.53v2.39h-.8v-15.96h.8v8.4c.76-1.5,2.19-2.53,4.03-2.53,2.77,0,4.71,2.33,4.71,5.11Zm-.8,0c0-2.35-1.62-4.33-3.93-4.33s-4.01,1.97-4.01,4.33,1.7,4.35,4.01,4.35,3.93-1.99,3.93-4.35Z"/><path class="ae" d="M527.03,277.85v9.97h-.8v-1.84c-.58,1.08-1.78,2-3.33,2-2.11,0-3.89-1.46-3.89-4.55v-5.58h.8v5.38c0,2.63,1.26,3.99,3.17,3.99,1.79,0,3.25-1.36,3.25-3.99v-5.38h.8Z"/><path class="ae" d="M533.61,278.63h-2.05v9.19h-.8v-9.19h-1.28v-.78h1.28v-2.67h.8v2.67h2.05v.78Z"/><path class="ae" d="M22.8,309.16v5.58h-.8v-5.38c0-2.63-1.26-3.99-3.17-3.99-1.79,0-3.25,1.36-3.25,3.99v5.38h-.8v-9.97h.8v1.83c.58-1.08,1.78-2,3.33-2,2.12,0,3.89,1.46,3.89,4.55Z"/><path class="ae" d="M33.97,304.77v9.97h-.8v-1.83c-.58,1.08-1.78,1.99-3.33,1.99-2.12,0-3.89-1.46-3.89-4.55v-5.58h.8v5.38c0,2.63,1.26,3.99,3.17,3.99,1.79,0,3.25-1.36,3.25-3.99v-5.38h.8Z"/><path class="ae" d="M40.55,305.55h-2.05v9.19h-.8v-9.19h-1.28v-.78h1.28v-2.67h.8v2.67h2.05v.78Z"/><path class="ae" d="M46.33,304.66v.84c-1.73-.06-2.87,1.66-2.87,3.65v5.6h-.8v-9.97h.8v1.96c.48-1.08,1.42-2.07,2.87-2.07Z"/><path class="ae" d="M48.44,302.1c0-.34,.26-.6,.6-.6s.6,.26,.6,.6c0,.36-.26,.6-.6,.6s-.6-.24-.6-.6Zm.2,2.67h.8v9.97h-.8v-9.97Z"/><path class="ae" d="M53.21,309.98c.1,2.27,1.68,4.13,4.15,4.13,1.48,0,2.67-.64,3.47-1.54v1.04c-.88,.78-2.07,1.28-3.47,1.28-3.09,0-4.95-2.35-4.95-5.12s1.96-5.11,4.77-5.11,4.61,2.51,4.61,5.32h-8.58Zm7.72-.78c-.26-2.05-1.6-3.77-3.75-3.77s-3.71,1.66-3.93,3.77h7.68Z"/><path class="ae" d="M72.47,309.16v5.58h-.8v-5.38c0-2.63-1.26-3.99-3.17-3.99-1.79,0-3.25,1.36-3.25,3.99v5.38h-.8v-9.97h.8v1.83c.58-1.08,1.78-2,3.33-2,2.12,0,3.89,1.46,3.89,4.55Z"/><path class="ae" d="M78.88,305.55h-2.05v9.19h-.8v-9.19h-1.28v-.78h1.28v-2.67h.8v2.67h2.05v.78Z"/><path class="ae" d="M79.97,313.31l.6-.56c.6,.8,1.48,1.36,2.45,1.36,1.2,0,2.2-.7,2.2-1.86,0-2.83-5.09-1.95-5.05-5.21,.02-1.4,1.2-2.39,2.73-2.41,1.28-.02,2.31,.74,2.91,1.42l-.52,.54c-.54-.6-1.31-1.18-2.37-1.18-1.12,0-1.95,.7-1.97,1.62-.06,2.59,5.07,1.73,5.03,5.22-.02,1.5-1.2,2.63-2.99,2.63-1.22,0-2.41-.72-3.01-1.58Z"/><path class="ae" d="M95.64,298.79h.8v15.95h-.8v-15.95Z"/><path class="ae" d="M99.95,302.1c0-.34,.26-.6,.6-.6s.6,.26,.6,.6c0,.36-.26,.6-.6,.6s-.6-.24-.6-.6Zm.2,2.67h.8v9.97h-.8v-9.97Z"/><path class="ae" d="M110.76,314.75l-5.3-4.59v4.59h-.8v-15.95h.8v10.75l5.14-4.77h1.1l-5.48,5.07,5.68,4.91h-1.14Z"/><path class="ae" d="M113.29,309.98c.1,2.27,1.68,4.13,4.15,4.13,1.47,0,2.67-.64,3.47-1.54v1.04c-.88,.78-2.07,1.28-3.47,1.28-3.09,0-4.95-2.35-4.95-5.12s1.95-5.11,4.77-5.11,4.61,2.51,4.61,5.32h-8.58Zm7.72-.78c-.26-2.05-1.6-3.77-3.75-3.77s-3.71,1.66-3.93,3.77h7.68Z"/><path class="ae" d="M139.54,309.16v5.58h-.8v-5.38c0-2.63-1.26-3.99-3.17-3.99-1.79,0-3.25,1.36-3.25,3.99v5.38h-.8v-9.97h.8v1.83c.58-1.08,1.78-2,3.33-2,2.12,0,3.89,1.46,3.89,4.55Z"/><path class="ae" d="M142.87,302.1c0-.34,.26-.6,.6-.6s.6,.26,.6,.6c0,.36-.26,.6-.6,.6s-.6-.24-.6-.6Zm.2,2.67h.8v9.97h-.8v-9.97Z"/><path class="ae" d="M150.64,305.55h-2.05v9.19h-.8v-9.19h-1.28v-.78h1.28v-2.67h.8v2.67h2.05v.78Z"/><path class="ae" d="M156.43,304.66v.84c-1.73-.06-2.87,1.66-2.87,3.65v5.6h-.8v-9.97h.8v1.96c.48-1.08,1.42-2.07,2.87-2.07Z"/><path class="ae" d="M157.4,309.74c0-2.73,2.03-5.11,5.03-5.11s5.03,2.37,5.03,5.11-2.04,5.13-5.03,5.13-5.03-2.37-5.03-5.13Zm9.25-.02c0-2.31-1.71-4.31-4.23-4.31s-4.23,1.99-4.23,4.31,1.73,4.37,4.23,4.37,4.23-2.05,4.23-4.37Z"/><path class="ae" d="M179.02,314.29c0,3.15-2.35,4.59-4.67,4.59-1.52,0-2.75-.52-3.71-1.16l.02-.92c1.04,.78,2.23,1.32,3.59,1.32,2.23,0,4.01-1.4,3.99-3.97v-1.81c-.76,1.52-2.21,2.55-4.05,2.55-2.77,0-4.71-2.33-4.71-5.11s1.93-5.12,4.71-5.12c1.81,0,3.25,1.02,4.03,2.51l-.02-2.39h.8l.02,9.51Zm-.8-4.51c0-2.35-1.7-4.35-4.01-4.35s-3.93,1.99-3.93,4.35,1.62,4.33,3.93,4.33,4.01-1.97,4.01-4.33Z"/><path class="ae" d="M182.59,309.98c.1,2.27,1.68,4.13,4.15,4.13,1.47,0,2.67-.64,3.47-1.54v1.04c-.88,.78-2.07,1.28-3.47,1.28-3.09,0-4.95-2.35-4.95-5.12s1.95-5.11,4.77-5.11,4.61,2.51,4.61,5.32h-8.58Zm7.72-.78c-.26-2.05-1.6-3.77-3.75-3.77s-3.71,1.66-3.93,3.77h7.68Z"/><path class="ae" d="M201.85,309.16v5.58h-.8v-5.38c0-2.63-1.26-3.99-3.17-3.99-1.79,0-3.25,1.36-3.25,3.99v5.38h-.8v-9.97h.8v1.83c.58-1.08,1.78-2,3.33-2,2.11,0,3.89,1.46,3.89,4.55Z"/><path class="ae" d="M220.96,304.77v9.97h-.8v-2.39c-.76,1.5-2.19,2.53-4.03,2.53-2.77,0-4.71-2.33-4.71-5.11s1.93-5.12,4.71-5.12c1.84,0,3.27,1.04,4.03,2.53v-2.41h.8Zm-.8,5.01c0-2.35-1.7-4.35-4.01-4.35s-3.93,1.99-3.93,4.35,1.62,4.33,3.93,4.33,4.01-1.97,4.01-4.33Z"/><path class="ae" d="M232.48,309.16v5.58h-.8v-5.38c0-2.63-1.26-3.99-3.17-3.99-1.79,0-3.25,1.36-3.25,3.99v5.38h-.8v-9.97h.8v1.83c.58-1.08,1.78-2,3.33-2,2.12,0,3.89,1.46,3.89,4.55Z"/><path class="ae" d="M244.21,298.79v15.95h-.8v-2.39c-.76,1.5-2.19,2.53-4.03,2.53-2.77,0-4.71-2.33-4.71-5.11s1.93-5.12,4.71-5.12c1.84,0,3.27,1.04,4.03,2.53v-8.4h.8Zm-.8,10.99c0-2.35-1.7-4.35-4.01-4.35s-3.93,1.99-3.93,4.35,1.62,4.33,3.93,4.33,4.01-1.97,4.01-4.33Z"/><path class="ae" d="M264.21,309.76c0,2.79-1.94,5.12-4.71,5.12-1.81,0-3.25-1.02-4.01-2.49v6.34h-.8v-13.96h.8v2.37c.76-1.48,2.19-2.49,4.01-2.49,2.77,0,4.71,2.33,4.71,5.11Zm-.8,0c0-2.35-1.62-4.33-3.93-4.33-2.17,0-3.79,1.73-3.99,3.89v.88c.2,2.15,1.81,3.91,3.99,3.91,2.31,0,3.93-1.99,3.93-4.35Z"/><path class="ae" d="M275,309.16v5.58h-.8v-5.38c0-2.63-1.26-3.99-3.17-3.99-1.79,0-3.25,1.36-3.25,3.99v5.38h-.8v-15.95h.8v7.82c.58-1.08,1.78-2,3.33-2,2.12,0,3.89,1.46,3.89,4.55Z"/><path class="ae" d="M277.19,309.74c0-2.73,2.03-5.11,5.03-5.11s5.03,2.37,5.03,5.11-2.04,5.13-5.03,5.13-5.03-2.37-5.03-5.13Zm9.25-.02c0-2.31-1.71-4.31-4.23-4.31s-4.23,1.99-4.23,4.31,1.73,4.37,4.23,4.37,4.23-2.05,4.23-4.37Z"/><path class="ae" d="M289.2,313.31l.6-.56c.6,.8,1.48,1.36,2.45,1.36,1.2,0,2.2-.7,2.2-1.86,0-2.83-5.09-1.95-5.05-5.21,.02-1.4,1.2-2.39,2.73-2.41,1.28-.02,2.31,.74,2.91,1.42l-.52,.54c-.54-.6-1.31-1.18-2.37-1.18-1.12,0-1.95,.7-1.97,1.62-.06,2.59,5.07,1.73,5.03,5.22-.02,1.5-1.2,2.63-2.99,2.63-1.22,0-2.41-.72-3.01-1.58Z"/><path class="ae" d="M307.4,309.76c0,2.79-1.93,5.12-4.71,5.12-1.82,0-3.25-1.02-4.01-2.49v6.34h-.8v-13.96h.8v2.37c.76-1.48,2.19-2.49,4.01-2.49,2.77,0,4.71,2.33,4.71,5.11Zm-.8,0c0-2.35-1.62-4.33-3.93-4.33-2.17,0-3.79,1.73-3.99,3.89v.88c.2,2.15,1.81,3.91,3.99,3.91,2.31,0,3.93-1.99,3.93-4.35Z"/><path class="ae" d="M318.19,309.16v5.58h-.8v-5.38c0-2.63-1.26-3.99-3.17-3.99-1.79,0-3.25,1.36-3.25,3.99v5.38h-.8v-15.95h.8v7.82c.58-1.08,1.78-2,3.33-2,2.11,0,3.89,1.46,3.89,4.55Z"/><path class="ae" d="M320.39,309.74c0-2.73,2.04-5.11,5.03-5.11s5.03,2.37,5.03,5.11-2.03,5.13-5.03,5.13-5.03-2.37-5.03-5.13Zm9.25-.02c0-2.31-1.71-4.31-4.23-4.31s-4.23,1.99-4.23,4.31,1.74,4.37,4.23,4.37,4.23-2.05,4.23-4.37Z"/><path class="ae" d="M336.88,304.66v.84c-1.73-.06-2.87,1.66-2.87,3.65v5.6h-.8v-9.97h.8v1.96c.48-1.08,1.42-2.07,2.87-2.07Z"/><path class="ae" d="M346.83,304.77v9.97h-.8v-1.83c-.58,1.08-1.78,1.99-3.33,1.99-2.12,0-3.89-1.46-3.89-4.55v-5.58h.8v5.38c0,2.63,1.26,3.99,3.17,3.99,1.79,0,3.25-1.36,3.25-3.99v-5.38h.8Z"/><path class="ae" d="M349.52,313.31l.6-.56c.6,.8,1.48,1.36,2.45,1.36,1.2,0,2.2-.7,2.2-1.86,0-2.83-5.09-1.95-5.05-5.21,.02-1.4,1.2-2.39,2.73-2.41,1.28-.02,2.31,.74,2.91,1.42l-.52,.54c-.54-.6-1.31-1.18-2.37-1.18-1.12,0-1.95,.7-1.97,1.62-.06,2.59,5.07,1.73,5.03,5.22-.02,1.5-1.2,2.63-2.99,2.63-1.22,0-2.41-.72-3.01-1.58Z"/><path class="ae" d="M379.12,308.8l-.02,5.94h-.8v-5.76c0-2.17-1.08-3.59-2.87-3.59s-2.87,1.42-2.87,3.79l-.02,5.56h-.8v-5.76c0-2.17-1.08-3.59-2.87-3.59s-2.87,1.42-2.87,3.79v5.56h-.8v-9.97h.8v1.6c.54-.96,1.5-1.76,2.97-1.76s2.77,.86,3.31,2.41c.42-1.2,1.46-2.41,3.25-2.41,1.95,0,3.59,1.5,3.59,4.19Z"/><path class="ae" d="M390.28,304.77v9.97h-.8v-1.83c-.58,1.08-1.78,1.99-3.33,1.99-2.12,0-3.89-1.46-3.89-4.55v-5.58h.8v5.38c0,2.63,1.26,3.99,3.17,3.99,1.79,0,3.25-1.36,3.25-3.99v-5.38h.8Z"/><path class="ae" d="M392.97,313.31l.6-.56c.6,.8,1.48,1.36,2.45,1.36,1.2,0,2.2-.7,2.2-1.86,0-2.83-5.09-1.95-5.05-5.21,.02-1.4,1.2-2.39,2.73-2.41,1.28-.02,2.31,.74,2.91,1.42l-.52,.54c-.54-.6-1.31-1.18-2.37-1.18-1.12,0-1.95,.7-1.97,1.62-.06,2.59,5.07,1.73,5.03,5.22-.02,1.5-1.2,2.63-2.99,2.63-1.22,0-2.41-.72-3.01-1.58Z"/><path class="ae" d="M404.34,305.55h-2.05v9.19h-.8v-9.19h-1.28v-.78h1.28v-2.67h.8v2.67h2.05v.78Z"/><path class="ae" d="M422.97,309.76c0,2.79-1.93,5.12-4.71,5.12-1.83,0-3.27-1.04-4.03-2.53v2.39h-.8v-15.95h.8v8.4c.76-1.5,2.19-2.53,4.03-2.53,2.77,0,4.71,2.33,4.71,5.11Zm-.8,0c0-2.35-1.62-4.33-3.93-4.33s-4.01,1.97-4.01,4.33,1.7,4.35,4.01,4.35,3.93-1.99,3.93-4.35Z"/><path class="ae" d="M425.8,309.98c.1,2.27,1.68,4.13,4.15,4.13,1.48,0,2.67-.64,3.47-1.54v1.04c-.88,.78-2.07,1.28-3.47,1.28-3.09,0-4.95-2.35-4.95-5.12s1.96-5.11,4.77-5.11,4.61,2.51,4.61,5.32h-8.58Zm7.72-.78c-.26-2.05-1.6-3.77-3.75-3.77s-3.71,1.66-3.93,3.77h7.68Z"/><path class="ae" d="M457.95,308.8l-.02,5.94h-.8v-5.76c0-2.17-1.08-3.59-2.87-3.59s-2.87,1.42-2.87,3.79l-.02,5.56h-.8v-5.76c0-2.17-1.08-3.59-2.87-3.59s-2.87,1.42-2.87,3.79v5.56h-.8v-9.97h.8v1.6c.54-.96,1.5-1.76,2.97-1.76s2.77,.86,3.31,2.41c.42-1.2,1.46-2.41,3.25-2.41,1.95,0,3.59,1.5,3.59,4.19Z"/><path class="ae" d="M460.14,309.74c0-2.73,2.03-5.11,5.03-5.11s5.03,2.37,5.03,5.11-2.04,5.13-5.03,5.13-5.03-2.37-5.03-5.13Zm9.25-.02c0-2.31-1.71-4.31-4.23-4.31s-4.23,1.99-4.23,4.31,1.73,4.37,4.23,4.37,4.23-2.05,4.23-4.37Z"/><path class="ae" d="M480.98,309.16v5.58h-.8v-5.38c0-2.63-1.26-3.99-3.17-3.99-1.79,0-3.25,1.36-3.25,3.99v5.38h-.8v-9.97h.8v1.83c.58-1.08,1.78-2,3.33-2,2.12,0,3.89,1.46,3.89,4.55Z"/><path class="ae" d="M484.31,302.1c0-.34,.26-.6,.6-.6s.6,.26,.6,.6c0,.36-.26,.6-.6,.6s-.6-.24-.6-.6Zm.2,2.67h.8v9.97h-.8v-9.97Z"/><path class="ae" d="M492.08,305.55h-2.05v9.19h-.8v-9.19h-1.28v-.78h1.28v-2.67h.8v2.67h2.05v.78Z"/><path class="ae" d="M493.06,309.74c0-2.73,2.03-5.11,5.03-5.11s5.03,2.37,5.03,5.11-2.04,5.13-5.03,5.13-5.03-2.37-5.03-5.13Zm9.25-.02c0-2.31-1.71-4.31-4.23-4.31s-4.23,1.99-4.23,4.31,1.73,4.37,4.23,4.37,4.23-2.05,4.23-4.37Z"/><path class="ae" d="M509.55,304.66v.84c-1.74-.06-2.87,1.66-2.87,3.65v5.6h-.8v-9.97h.8v1.96c.48-1.08,1.42-2.07,2.87-2.07Z"/><path class="ae" d="M511.33,309.98c.1,2.27,1.68,4.13,4.15,4.13,1.48,0,2.67-.64,3.47-1.54v1.04c-.88,.78-2.07,1.28-3.47,1.28-3.09,0-4.95-2.35-4.95-5.12s1.96-5.11,4.77-5.11,4.61,2.51,4.61,5.32h-8.58Zm7.72-.78c-.26-2.05-1.6-3.77-3.75-3.77s-3.71,1.66-3.93,3.77h7.68Z"/><path class="ae" d="M531.37,298.79v15.95h-.8v-2.39c-.76,1.5-2.19,2.53-4.03,2.53-2.77,0-4.71-2.33-4.71-5.11s1.93-5.12,4.71-5.12c1.83,0,3.27,1.04,4.03,2.53v-8.4h.8Zm-.8,10.99c0-2.35-1.7-4.35-4.01-4.35s-3.93,1.99-3.93,4.35,1.62,4.33,3.93,4.33,4.01-1.97,4.01-4.33Z"/><path class="ae" d="M544.93,305.55h-2.05v9.19h-.8v-9.19h-1.28v-.78h1.28v-2.67h.8v2.67h2.05v.78Z"/><path class="ae" d="M545.91,309.74c0-2.73,2.03-5.11,5.03-5.11s5.03,2.37,5.03,5.11-2.04,5.13-5.03,5.13-5.03-2.37-5.03-5.13Zm9.25-.02c0-2.31-1.71-4.31-4.23-4.31s-4.23,1.99-4.23,4.31,1.73,4.37,4.23,4.37,4.23-2.05,4.23-4.37Z"/><path class="ae" d="M61.55,331.7v9.97h-.8v-2.39c-.76,1.5-2.19,2.53-4.03,2.53-2.77,0-4.71-2.33-4.71-5.11s1.93-5.12,4.71-5.12c1.83,0,3.27,1.04,4.03,2.53v-2.41h.8Zm-.8,5.01c0-2.35-1.7-4.35-4.01-4.35s-3.93,1.99-3.93,4.35,1.62,4.33,3.93,4.33,4.01-1.97,4.01-4.33Z"/><path class="ae" d="M72.97,331.7l-4.57,10.01h-.36l-4.57-10.01h.86l3.89,8.62,3.89-8.62h.86Z"/><path class="ae" d="M73.97,336.66c0-2.73,2.04-5.11,5.03-5.11s5.03,2.37,5.03,5.11-2.03,5.13-5.03,5.13-5.03-2.37-5.03-5.13Zm9.25-.02c0-2.31-1.71-4.31-4.23-4.31s-4.23,1.99-4.23,4.31,1.74,4.37,4.23,4.37,4.23-2.05,4.23-4.37Z"/><path class="ae" d="M86.79,329.02c0-.34,.26-.6,.6-.6s.6,.26,.6,.6c0,.36-.26,.6-.6,.6s-.6-.24-.6-.6Zm.2,2.67h.8v9.97h-.8v-9.97Z"/><path class="ae" d="M100.29,325.71v15.95h-.8v-2.39c-.76,1.5-2.19,2.53-4.03,2.53-2.77,0-4.71-2.33-4.71-5.11s1.93-5.12,4.71-5.12c1.83,0,3.27,1.04,4.03,2.53v-8.4h.8Zm-.8,10.99c0-2.35-1.7-4.35-4.01-4.35s-3.93,1.99-3.93,4.35,1.62,4.33,3.93,4.33,4.01-1.97,4.01-4.33Z"/><path class="ae" d="M110.04,336.66c0-2.73,2.04-5.11,5.03-5.11s5.03,2.37,5.03,5.11-2.03,5.13-5.03,5.13-5.03-2.37-5.03-5.13Zm9.25-.02c0-2.31-1.71-4.31-4.23-4.31s-4.23,1.99-4.23,4.31,1.74,4.37,4.23,4.37,4.23-2.05,4.23-4.37Z"/><path class="ae" d="M130.58,331.7l-4.57,10.01h-.36l-4.57-10.01h.86l3.89,8.62,3.89-8.62h.86Z"/><path class="ae" d="M132.38,336.9c.1,2.27,1.68,4.13,4.15,4.13,1.48,0,2.67-.64,3.47-1.54v1.04c-.88,.78-2.07,1.28-3.47,1.28-3.09,0-4.95-2.35-4.95-5.12s1.96-5.11,4.77-5.11,4.61,2.51,4.61,5.32h-8.58Zm7.72-.78c-.26-2.05-1.6-3.77-3.75-3.77s-3.71,1.66-3.93,3.77h7.68Z"/><path class="ae" d="M147.29,331.58v.84c-1.74-.06-2.87,1.66-2.87,3.65v5.6h-.8v-9.97h.8v1.96c.48-1.08,1.42-2.07,2.87-2.07Z"/><path class="ae" d="M148.03,335.31h6.46v.76h-6.46v-.76Z"/><path class="ae" d="M165.42,331.7v9.97h-.8v-2.39c-.76,1.5-2.19,2.53-4.03,2.53-2.77,0-4.71-2.33-4.71-5.11s1.93-5.12,4.71-5.12c1.83,0,3.27,1.04,4.03,2.53v-2.41h.8Zm-.8,5.01c0-2.35-1.7-4.35-4.01-4.35s-3.93,1.99-3.93,4.35,1.62,4.33,3.93,4.33,4.01-1.97,4.01-4.33Z"/><path class="ae" d="M178.44,336.68c0,2.79-1.94,5.12-4.71,5.12-1.81,0-3.25-1.02-4.01-2.49v6.34h-.8v-13.96h.8v2.37c.76-1.48,2.19-2.49,4.01-2.49,2.77,0,4.71,2.33,4.71,5.11Zm-.8,0c0-2.35-1.62-4.33-3.93-4.33-2.17,0-3.79,1.73-3.99,3.89v.88c.2,2.15,1.81,3.91,3.99,3.91,2.31,0,3.93-1.99,3.93-4.35Z"/><path class="ae" d="M190.73,336.68c0,2.79-1.93,5.12-4.71,5.12-1.82,0-3.25-1.02-4.01-2.49v6.34h-.8v-13.96h.8v2.37c.76-1.48,2.19-2.49,4.01-2.49,2.77,0,4.71,2.33,4.71,5.11Zm-.8,0c0-2.35-1.62-4.33-3.93-4.33-2.17,0-3.79,1.73-3.99,3.89v.88c.2,2.15,1.81,3.91,3.99,3.91,2.31,0,3.93-1.99,3.93-4.35Z"/><path class="ae" d="M193.5,325.71h.8v15.95h-.8v-15.95Z"/><path class="ae" d="M197.81,329.02c0-.34,.26-.6,.6-.6s.6,.26,.6,.6c0,.36-.26,.6-.6,.6s-.6-.24-.6-.6Zm.2,2.67h.8v9.97h-.8v-9.97Z"/><path class="ae" d="M201.78,336.68c0-2.77,1.97-5.13,5.06-5.13,1.4,0,2.59,.48,3.47,1.28v1.08c-.76-.94-1.99-1.58-3.47-1.58-2.59,0-4.27,1.99-4.27,4.35s1.68,4.35,4.27,4.35c1.48,0,2.71-.64,3.47-1.58v1.08c-.88,.8-2.07,1.28-3.47,1.28-3.09,0-5.06-2.35-5.06-5.12Z"/><path class="ae" d="M222.1,331.7v9.97h-.8v-2.39c-.76,1.5-2.19,2.53-4.03,2.53-2.77,0-4.71-2.33-4.71-5.11s1.93-5.12,4.71-5.12c1.83,0,3.27,1.04,4.03,2.53v-2.41h.8Zm-.8,5.01c0-2.35-1.7-4.35-4.01-4.35s-3.93,1.99-3.93,4.35,1.62,4.33,3.93,4.33,4.01-1.97,4.01-4.33Z"/><path class="ae" d="M228.68,332.47h-2.05v9.19h-.8v-9.19h-1.28v-.78h1.28v-2.67h.8v2.67h2.05v.78Z"/><path class="ae" d="M230.79,329.02c0-.34,.26-.6,.6-.6s.6,.26,.6,.6c0,.36-.26,.6-.6,.6s-.6-.24-.6-.6Zm.2,2.67h.8v9.97h-.8v-9.97Z"/><path class="ae" d="M234.76,336.66c0-2.73,2.03-5.11,5.03-5.11s5.03,2.37,5.03,5.11-2.04,5.13-5.03,5.13-5.03-2.37-5.03-5.13Zm9.25-.02c0-2.31-1.71-4.31-4.23-4.31s-4.23,1.99-4.23,4.31,1.73,4.37,4.23,4.37,4.23-2.05,4.23-4.37Z"/><path class="ae" d="M255.6,336.08v5.58h-.8v-5.38c0-2.63-1.26-3.99-3.17-3.99-1.79,0-3.25,1.36-3.25,3.99v5.38h-.8v-9.97h.8v1.83c.58-1.08,1.78-2,3.33-2,2.12,0,3.89,1.46,3.89,4.55Z"/><path class="ae" d="M274.7,331.7v9.97h-.8v-2.39c-.76,1.5-2.19,2.53-4.03,2.53-2.77,0-4.71-2.33-4.71-5.11s1.93-5.12,4.71-5.12c1.83,0,3.27,1.04,4.03,2.53v-2.41h.8Zm-.8,5.01c0-2.35-1.7-4.35-4.01-4.35s-3.93,1.99-3.93,4.35,1.62,4.33,3.93,4.33,4.01-1.97,4.01-4.33Z"/><path class="ae" d="M286.23,336.08v5.58h-.8v-5.38c0-2.63-1.26-3.99-3.17-3.99-1.79,0-3.25,1.36-3.25,3.99v5.38h-.8v-9.97h.8v1.83c.58-1.08,1.78-2,3.33-2,2.11,0,3.89,1.46,3.89,4.55Z"/><path class="ae" d="M297.95,325.71v15.95h-.8v-2.39c-.76,1.5-2.19,2.53-4.03,2.53-2.77,0-4.71-2.33-4.71-5.11s1.93-5.12,4.71-5.12c1.84,0,3.27,1.04,4.03,2.53v-8.4h.8Zm-.8,10.99c0-2.35-1.7-4.35-4.01-4.35s-3.93,1.99-3.93,4.35,1.62,4.33,3.93,4.33,4.01-1.97,4.01-4.33Z"/><path class="ae" d="M312.11,331.58v.84c-1.73-.06-2.87,1.66-2.87,3.65v5.6h-.8v-9.97h.8v1.96c.48-1.08,1.42-2.07,2.87-2.07Z"/><path class="ae" d="M314.22,329.02c0-.34,.26-.6,.6-.6s.6,.26,.6,.6c0,.36-.26,.6-.6,.6s-.6-.24-.6-.6Zm.2,2.67h.8v9.97h-.8v-9.97Z"/><path class="ae" d="M318.11,340.23l.6-.56c.6,.8,1.48,1.36,2.45,1.36,1.2,0,2.2-.7,2.2-1.86,0-2.83-5.09-1.95-5.05-5.21,.02-1.4,1.2-2.39,2.73-2.41,1.28-.02,2.31,.74,2.91,1.42l-.52,.54c-.54-.6-1.31-1.18-2.37-1.18-1.12,0-1.95,.7-1.97,1.62-.06,2.59,5.07,1.73,5.03,5.22-.02,1.5-1.2,2.63-2.99,2.63-1.22,0-2.41-.72-3.01-1.58Z"/><path class="ae" d="M332.91,341.67l-5.3-4.59v4.59h-.8v-15.95h.8v10.75l5.15-4.77h1.1l-5.48,5.07,5.68,4.91h-1.14Z"/><path class="ae" d="M335.16,340.23l.6-.56c.6,.8,1.48,1.36,2.45,1.36,1.2,0,2.19-.7,2.19-1.86,0-2.83-5.09-1.95-5.04-5.21,.02-1.4,1.2-2.39,2.73-2.41,1.28-.02,2.31,.74,2.91,1.42l-.52,.54c-.54-.6-1.32-1.18-2.37-1.18-1.12,0-1.96,.7-1.97,1.62-.06,2.59,5.07,1.73,5.03,5.22-.02,1.5-1.2,2.63-2.99,2.63-1.22,0-2.41-.72-3.01-1.58Z"/><path class="ae" d="M353.91,332.47h-2.05v9.19h-.8v-9.19h-1.28v-.78h1.28v-2.67h.8v2.67h2.05v.78Z"/><path class="ae" d="M354.88,336.66c0-2.73,2.03-5.11,5.03-5.11s5.03,2.37,5.03,5.11-2.04,5.13-5.03,5.13-5.03-2.37-5.03-5.13Zm9.25-.02c0-2.31-1.71-4.31-4.23-4.31s-4.23,1.99-4.23,4.31,1.73,4.37,4.23,4.37,4.23-2.05,4.23-4.37Z"/><path class="ae" d="M374.69,325.71h.8v15.95h-.8v-15.95Z"/><path class="ae" d="M378.99,329.02c0-.34,.26-.6,.6-.6s.6,.26,.6,.6c0,.36-.26,.6-.6,.6s-.6-.24-.6-.6Zm.2,2.67h.8v9.97h-.8v-9.97Z"/><path class="ae" d="M384.7,327.41v4.29h2.07v.78h-2.07v9.19h-.8v-9.19h-1.26v-.78h1.26v-4.39c0-1.12,.82-1.74,1.7-1.74,.52,0,.88,.18,1.18,.4v.86c-.3-.22-.62-.46-1.12-.46s-.96,.38-.96,1.04Z"/><path class="ae" d="M388.54,336.9c.1,2.27,1.68,4.13,4.15,4.13,1.48,0,2.67-.64,3.47-1.54v1.04c-.88,.78-2.07,1.28-3.47,1.28-3.09,0-4.95-2.35-4.95-5.12s1.96-5.11,4.77-5.11,4.61,2.51,4.61,5.32h-8.58Zm7.72-.78c-.26-2.05-1.6-3.77-3.75-3.77s-3.71,1.66-3.93,3.77h7.68Z"/><path class="ae" d="M415.57,325.71v15.95h-.8v-2.39c-.76,1.5-2.19,2.53-4.03,2.53-2.77,0-4.71-2.33-4.71-5.11s1.93-5.12,4.71-5.12c1.84,0,3.27,1.04,4.03,2.53v-8.4h.8Zm-.8,10.99c0-2.35-1.7-4.35-4.01-4.35s-3.93,1.99-3.93,4.35,1.62,4.33,3.93,4.33,4.01-1.97,4.01-4.33Z"/><path class="ae" d="M418.34,336.66c0-2.73,2.04-5.11,5.03-5.11s5.03,2.37,5.03,5.11-2.03,5.13-5.03,5.13-5.03-2.37-5.03-5.13Zm9.25-.02c0-2.31-1.71-4.31-4.23-4.31s-4.23,1.99-4.23,4.31,1.74,4.37,4.23,4.37,4.23-2.05,4.23-4.37Z"/><path class="ae" d="M444.52,331.7l-5.17,10.13h-.24l-2.23-4.51-2.21,4.51h-.24l-5.14-10.13h.88l4.41,8.74,1.92-3.95-2.33-4.79h.88l1.88,3.97,1.86-3.97h.88l-2.33,4.79,1.94,3.95,4.39-8.74h.9Z"/><path class="ae" d="M454.37,336.08v5.58h-.8v-5.38c0-2.63-1.26-3.99-3.17-3.99-1.79,0-3.25,1.36-3.25,3.99v5.38h-.8v-9.97h.8v1.83c.58-1.08,1.78-2,3.33-2,2.11,0,3.89,1.46,3.89,4.55Z"/><path class="ae" d="M457.08,340.23l.6-.56c.6,.8,1.48,1.36,2.45,1.36,1.2,0,2.2-.7,2.2-1.86,0-2.83-5.09-1.95-5.05-5.21,.02-1.4,1.2-2.39,2.73-2.41,1.28-.02,2.31,.74,2.91,1.42l-.52,.54c-.54-.6-1.31-1.18-2.37-1.18-1.12,0-1.95,.7-1.97,1.62-.06,2.59,5.07,1.73,5.03,5.22-.02,1.5-1.2,2.63-2.99,2.63-1.22,0-2.41-.72-3.01-1.58Z"/><path class="ae" d="M468.45,332.47h-2.05v9.19h-.8v-9.19h-1.28v-.78h1.28v-2.67h.8v2.67h2.05v.78Z"/><path class="ae" d="M474.23,331.58v.84c-1.73-.06-2.87,1.66-2.87,3.65v5.6h-.8v-9.97h.8v1.96c.48-1.08,1.42-2.07,2.87-2.07Z"/><path class="ae" d="M476.01,336.9c.1,2.27,1.68,4.13,4.15,4.13,1.47,0,2.67-.64,3.47-1.54v1.04c-.88,.78-2.07,1.28-3.47,1.28-3.09,0-4.95-2.35-4.95-5.12s1.95-5.11,4.77-5.11,4.61,2.51,4.61,5.32h-8.58Zm7.72-.78c-.26-2.05-1.6-3.77-3.75-3.77s-3.71,1.66-3.93,3.77h7.68Z"/><path class="ae" d="M496.05,331.7v9.97h-.8v-2.39c-.76,1.5-2.19,2.53-4.03,2.53-2.77,0-4.71-2.33-4.71-5.11s1.93-5.12,4.71-5.12c1.84,0,3.27,1.04,4.03,2.53v-2.41h.8Zm-.8,5.01c0-2.35-1.7-4.35-4.01-4.35s-3.93,1.99-3.93,4.35,1.62,4.33,3.93,4.33,4.01-1.97,4.01-4.33Z"/><path class="ae" d="M513.48,335.73l-.02,5.94h-.8v-5.76c0-2.17-1.08-3.59-2.87-3.59s-2.87,1.42-2.87,3.79l-.02,5.56h-.8v-5.76c0-2.17-1.08-3.59-2.87-3.59s-2.87,1.42-2.87,3.79v5.56h-.8v-9.97h.8v1.6c.54-.96,1.5-1.76,2.97-1.76s2.77,.86,3.31,2.41c.42-1.2,1.46-2.41,3.25-2.41,1.96,0,3.59,1.5,3.59,4.19Z"/><path class="ae" d="M516.43,341.15c0-.34,.26-.62,.6-.62s.6,.28,.6,.62-.26,.6-.6,.6-.6-.26-.6-.6Zm.02-13.44h.88l-.16,11.79h-.56l-.16-11.79Z"/><path class="ae" d="M37.28,362.65l-.02,5.94h-.8v-5.76c0-2.17-1.08-3.59-2.87-3.59s-2.87,1.42-2.87,3.79l-.02,5.56h-.8v-5.76c0-2.17-1.08-3.59-2.87-3.59s-2.87,1.42-2.87,3.79v5.56h-.8v-9.97h.8v1.6c.54-.96,1.5-1.76,2.97-1.76s2.77,.86,3.31,2.41c.42-1.2,1.46-2.41,3.25-2.41,1.95,0,3.59,1.5,3.59,4.19Z"/><path class="ae" d="M40.61,355.95c0-.34,.26-.6,.6-.6s.6,.26,.6,.6c0,.36-.26,.6-.6,.6s-.6-.24-.6-.6Zm.2,2.67h.8v9.97h-.8v-9.97Z"/><path class="ae" d="M44.58,363.6c0-2.77,1.97-5.13,5.07-5.13,1.39,0,2.59,.48,3.47,1.28v1.08c-.76-.94-1.99-1.58-3.47-1.58-2.59,0-4.27,1.99-4.27,4.35s1.68,4.35,4.27,4.35c1.47,0,2.71-.64,3.47-1.58v1.08c-.88,.8-2.07,1.28-3.47,1.28-3.09,0-5.07-2.35-5.07-5.13Z"/><path class="ae" d="M59.77,358.5v.84c-1.73-.06-2.87,1.66-2.87,3.65v5.6h-.8v-9.97h.8v1.95c.48-1.08,1.42-2.07,2.87-2.07Z"/><path class="ae" d="M60.75,363.58c0-2.73,2.03-5.11,5.03-5.11s5.03,2.37,5.03,5.11-2.04,5.13-5.03,5.13-5.03-2.37-5.03-5.13Zm9.25-.02c0-2.31-1.71-4.31-4.23-4.31s-4.23,1.99-4.23,4.31,1.73,4.37,4.23,4.37,4.23-2.05,4.23-4.37Z"/><path class="ae" d="M81.59,363v5.58h-.8v-5.38c0-2.63-1.26-3.99-3.17-3.99-1.79,0-3.25,1.36-3.25,3.99v5.38h-.8v-9.97h.8v1.83c.58-1.08,1.78-1.99,3.33-1.99,2.12,0,3.89,1.46,3.89,4.55Z"/><path class="ae" d="M92.76,358.62v9.97h-.8v-1.83c-.58,1.08-1.78,1.99-3.33,1.99-2.12,0-3.89-1.46-3.89-4.55v-5.58h.8v5.38c0,2.63,1.26,3.99,3.17,3.99,1.79,0,3.25-1.36,3.25-3.99v-5.38h.8Z"/><path class="ae" d="M99.34,359.4h-2.05v9.19h-.8v-9.19h-1.28v-.78h1.28v-2.67h.8v2.67h2.05v.78Z"/><path class="ae" d="M105.12,358.5v.84c-1.73-.06-2.87,1.66-2.87,3.65v5.6h-.8v-9.97h.8v1.95c.48-1.08,1.42-2.07,2.87-2.07Z"/><path class="ae" d="M107.23,355.95c0-.34,.26-.6,.6-.6s.6,.26,.6,.6c0,.36-.26,.6-.6,.6s-.6-.24-.6-.6Zm.2,2.67h.8v9.97h-.8v-9.97Z"/><path class="ae" d="M112,363.82c.1,2.27,1.68,4.13,4.15,4.13,1.48,0,2.67-.64,3.47-1.54v1.04c-.88,.78-2.07,1.28-3.47,1.28-3.09,0-4.95-2.35-4.95-5.13s1.96-5.11,4.77-5.11,4.61,2.51,4.61,5.33h-8.58Zm7.72-.78c-.26-2.05-1.6-3.77-3.75-3.77s-3.71,1.65-3.93,3.77h7.68Z"/><path class="ae" d="M131.26,363v5.58h-.8v-5.38c0-2.63-1.26-3.99-3.17-3.99-1.79,0-3.25,1.36-3.25,3.99v5.38h-.8v-9.97h.8v1.83c.58-1.08,1.78-1.99,3.33-1.99,2.12,0,3.89,1.46,3.89,4.55Z"/><path class="ae" d="M137.66,359.4h-2.05v9.19h-.8v-9.19h-1.28v-.78h1.28v-2.67h.8v2.67h2.05v.78Z"/><path class="ae" d="M138.76,367.15l.6-.56c.6,.8,1.48,1.36,2.45,1.36,1.2,0,2.2-.7,2.2-1.85,0-2.83-5.09-1.96-5.05-5.21,.02-1.4,1.2-2.39,2.73-2.41,1.28-.02,2.31,.74,2.91,1.42l-.52,.54c-.54-.6-1.31-1.18-2.37-1.18-1.12,0-1.95,.7-1.97,1.62-.06,2.59,5.07,1.74,5.03,5.23-.02,1.5-1.2,2.63-2.99,2.63-1.22,0-2.41-.72-3.01-1.58Z"/><path class="ae" d="M163.23,358.62v9.97h-.8v-2.39c-.76,1.5-2.19,2.53-4.03,2.53-2.77,0-4.71-2.33-4.71-5.11s1.93-5.13,4.71-5.13c1.84,0,3.27,1.04,4.03,2.53v-2.41h.8Zm-.8,5.01c0-2.35-1.7-4.35-4.01-4.35s-3.93,1.99-3.93,4.35,1.62,4.33,3.93,4.33,4.01-1.97,4.01-4.33Z"/><path class="ae" d="M170.41,358.5v.84c-1.74-.06-2.87,1.66-2.87,3.65v5.6h-.8v-9.97h.8v1.95c.48-1.08,1.42-2.07,2.87-2.07Z"/><path class="ae" d="M172.18,363.82c.1,2.27,1.68,4.13,4.15,4.13,1.48,0,2.67-.64,3.47-1.54v1.04c-.88,.78-2.07,1.28-3.47,1.28-3.09,0-4.95-2.35-4.95-5.13s1.96-5.11,4.77-5.11,4.61,2.51,4.61,5.33h-8.58Zm7.72-.78c-.26-2.05-1.6-3.77-3.75-3.77s-3.71,1.65-3.93,3.77h7.68Z"/><path class="ae" d="M189.67,363.58c0-2.73,2.03-5.11,5.03-5.11s5.03,2.37,5.03,5.11-2.04,5.13-5.03,5.13-5.03-2.37-5.03-5.13Zm9.25-.02c0-2.31-1.71-4.31-4.23-4.31s-4.23,1.99-4.23,4.31,1.73,4.37,4.23,4.37,4.23-2.05,4.23-4.37Z"/><path class="ae" d="M203.29,354.33v4.29h2.07v.78h-2.07v9.19h-.8v-9.19h-1.26v-.78h1.26v-4.39c0-1.12,.82-1.74,1.7-1.74,.52,0,.88,.18,1.18,.4v.86c-.3-.22-.62-.46-1.12-.46s-.96,.38-.96,1.04Z"/><path class="ae" d="M210.55,359.4h-2.05v9.19h-.8v-9.19h-1.28v-.78h1.28v-2.67h.8v2.67h2.05v.78Z"/><path class="ae" d="M212.32,363.82c.1,2.27,1.68,4.13,4.15,4.13,1.47,0,2.67-.64,3.47-1.54v1.04c-.88,.78-2.07,1.28-3.47,1.28-3.09,0-4.95-2.35-4.95-5.13s1.95-5.11,4.77-5.11,4.61,2.51,4.61,5.33h-8.58Zm7.72-.78c-.26-2.05-1.6-3.77-3.75-3.77s-3.71,1.65-3.93,3.77h7.68Z"/><path class="ae" d="M231.59,363v5.58h-.8v-5.38c0-2.63-1.26-3.99-3.17-3.99-1.79,0-3.25,1.36-3.25,3.99v5.38h-.8v-9.97h.8v1.83c.58-1.08,1.78-1.99,3.33-1.99,2.11,0,3.89,1.46,3.89,4.55Z"/><path class="ae" d="M241.16,363.58c0-2.73,2.03-5.11,5.03-5.11s5.03,2.37,5.03,5.11-2.04,5.13-5.03,5.13-5.03-2.37-5.03-5.13Zm9.25-.02c0-2.31-1.71-4.31-4.23-4.31s-4.23,1.99-4.23,4.31,1.73,4.37,4.23,4.37,4.23-2.05,4.23-4.37Z"/><path class="ae" d="M261.7,358.62l-4.57,10.01h-.36l-4.57-10.01h.86l3.89,8.62,3.89-8.62h.86Z"/><path class="ae" d="M263.49,363.82c.1,2.27,1.68,4.13,4.15,4.13,1.47,0,2.67-.64,3.47-1.54v1.04c-.88,.78-2.07,1.28-3.47,1.28-3.09,0-4.95-2.35-4.95-5.13s1.95-5.11,4.77-5.11,4.61,2.51,4.61,5.33h-8.58Zm7.72-.78c-.26-2.05-1.6-3.77-3.75-3.77s-3.71,1.65-3.93,3.77h7.68Z"/><path class="ae" d="M278.41,358.5v.84c-1.73-.06-2.87,1.66-2.87,3.65v5.6h-.8v-9.97h.8v1.95c.48-1.08,1.42-2.07,2.87-2.07Z"/><path class="ae" d="M280.52,352.63h.8v15.95h-.8v-15.95Z"/><path class="ae" d="M284.09,363.58c0-2.73,2.04-5.11,5.03-5.11s5.03,2.37,5.03,5.11-2.03,5.13-5.03,5.13-5.03-2.37-5.03-5.13Zm9.25-.02c0-2.31-1.71-4.31-4.23-4.31s-4.23,1.99-4.23,4.31,1.74,4.37,4.23,4.37,4.23-2.05,4.23-4.37Z"/><path class="ae" d="M296.18,363.58c0-2.73,2.03-5.11,5.03-5.11s5.03,2.37,5.03,5.11-2.04,5.13-5.03,5.13-5.03-2.37-5.03-5.13Zm9.25-.02c0-2.31-1.71-4.31-4.23-4.31s-4.23,1.99-4.23,4.31,1.73,4.37,4.23,4.37,4.23-2.05,4.23-4.37Z"/><path class="ae" d="M315.1,368.59l-5.3-4.59v4.59h-.8v-15.95h.8v10.75l5.15-4.77h1.1l-5.48,5.06,5.68,4.91h-1.14Z"/><path class="ae" d="M317.64,363.82c.1,2.27,1.68,4.13,4.15,4.13,1.47,0,2.67-.64,3.47-1.54v1.04c-.88,.78-2.07,1.28-3.47,1.28-3.09,0-4.95-2.35-4.95-5.13s1.95-5.11,4.77-5.11,4.61,2.51,4.61,5.33h-8.58Zm7.72-.78c-.26-2.05-1.6-3.77-3.75-3.77s-3.71,1.65-3.93,3.77h7.68Z"/><path class="ae" d="M337.68,352.63v15.95h-.8v-2.39c-.76,1.5-2.19,2.53-4.03,2.53-2.77,0-4.71-2.33-4.71-5.11s1.93-5.13,4.71-5.13c1.84,0,3.27,1.04,4.03,2.53v-8.4h.8Zm-.8,10.99c0-2.35-1.7-4.35-4.01-4.35s-3.93,1.99-3.93,4.35,1.62,4.33,3.93,4.33,4.01-1.97,4.01-4.33Z"/><path class="ae" d="M340.85,366.36h.82l-.86,4.43h-.6l.64-4.43Z"/><path class="ae" d="M359.97,358.62v9.97h-.8v-2.39c-.76,1.5-2.19,2.53-4.03,2.53-2.77,0-4.71-2.33-4.71-5.11s1.93-5.13,4.71-5.13c1.83,0,3.27,1.04,4.03,2.53v-2.41h.8Zm-.8,5.01c0-2.35-1.7-4.35-4.01-4.35s-3.93,1.99-3.93,4.35,1.62,4.33,3.93,4.33,4.01-1.97,4.01-4.33Z"/><path class="ae" d="M362.66,367.15l.6-.56c.6,.8,1.48,1.36,2.45,1.36,1.2,0,2.19-.7,2.19-1.85,0-2.83-5.09-1.96-5.04-5.21,.02-1.4,1.2-2.39,2.73-2.41,1.28-.02,2.31,.74,2.91,1.42l-.52,.54c-.54-.6-1.32-1.18-2.37-1.18-1.12,0-1.96,.7-1.97,1.62-.06,2.59,5.07,1.74,5.03,5.23-.02,1.5-1.2,2.63-2.99,2.63-1.22,0-2.41-.72-3.01-1.58Z"/><path class="ae" d="M381.41,359.4h-2.05v9.19h-.8v-9.19h-1.28v-.78h1.28v-2.67h.8v2.67h2.05v.78Z"/><path class="ae" d="M391.54,363v5.58h-.8v-5.38c0-2.63-1.26-3.99-3.17-3.99-1.79,0-3.25,1.36-3.25,3.99v5.38h-.8v-15.95h.8v7.82c.58-1.08,1.78-1.99,3.33-1.99,2.11,0,3.89,1.46,3.89,4.55Z"/><path class="ae" d="M394.53,363.82c.1,2.27,1.68,4.13,4.15,4.13,1.47,0,2.67-.64,3.47-1.54v1.04c-.88,.78-2.07,1.28-3.47,1.28-3.09,0-4.95-2.35-4.95-5.13s1.95-5.11,4.77-5.11,4.61,2.51,4.61,5.33h-8.58Zm7.72-.78c-.26-2.05-1.6-3.77-3.75-3.77s-3.71,1.65-3.93,3.77h7.68Z"/><path class="ae" d="M413.15,358.62l-6,13.96h-.8l1.85-4.31-4.21-9.65h.86l3.73,8.77,3.71-8.77h.86Z"/><path class="ae" d="M430.46,358.62v9.97h-.8v-2.39c-.76,1.5-2.19,2.53-4.03,2.53-2.77,0-4.71-2.33-4.71-5.11s1.93-5.13,4.71-5.13c1.83,0,3.27,1.04,4.03,2.53v-2.41h.8Zm-.8,5.01c0-2.35-1.7-4.35-4.01-4.35s-3.93,1.99-3.93,4.35,1.62,4.33,3.93,4.33,4.01-1.97,4.01-4.33Z"/><path class="ae" d="M437.64,358.5v.84c-1.73-.06-2.87,1.66-2.87,3.65v5.6h-.8v-9.97h.8v1.95c.48-1.08,1.42-2.07,2.87-2.07Z"/><path class="ae" d="M439.42,363.82c.1,2.27,1.68,4.13,4.15,4.13,1.47,0,2.67-.64,3.47-1.54v1.04c-.88,.78-2.07,1.28-3.47,1.28-3.09,0-4.95-2.35-4.95-5.13s1.95-5.11,4.77-5.11,4.61,2.51,4.61,5.33h-8.58Zm7.72-.78c-.26-2.05-1.6-3.77-3.75-3.77s-3.71,1.65-3.93,3.77h7.68Z"/><path class="ae" d="M465.66,363v5.58h-.8v-5.38c0-2.63-1.26-3.99-3.17-3.99-1.79,0-3.25,1.36-3.25,3.99v5.38h-.8v-9.97h.8v1.83c.58-1.08,1.78-1.99,3.33-1.99,2.12,0,3.89,1.46,3.89,4.55Z"/><path class="ae" d="M468.65,363.82c.1,2.27,1.68,4.13,4.15,4.13,1.47,0,2.67-.64,3.47-1.54v1.04c-.88,.78-2.07,1.28-3.47,1.28-3.09,0-4.95-2.35-4.95-5.13s1.95-5.11,4.77-5.11,4.61,2.51,4.61,5.33h-8.58Zm7.72-.78c-.26-2.05-1.6-3.77-3.75-3.77s-3.71,1.65-3.93,3.77h7.68Z"/><path class="ae" d="M479.96,363.82c.1,2.27,1.68,4.13,4.15,4.13,1.47,0,2.67-.64,3.47-1.54v1.04c-.88,.78-2.07,1.28-3.47,1.28-3.09,0-4.95-2.35-4.95-5.13s1.95-5.11,4.77-5.11,4.61,2.51,4.61,5.33h-8.58Zm7.72-.78c-.26-2.05-1.6-3.77-3.75-3.77s-3.71,1.65-3.93,3.77h7.68Z"/><path class="ae" d="M500,352.63v15.95h-.8v-2.39c-.76,1.5-2.19,2.53-4.03,2.53-2.77,0-4.71-2.33-4.71-5.11s1.93-5.13,4.71-5.13c1.84,0,3.27,1.04,4.03,2.53v-8.4h.8Zm-.8,10.99c0-2.35-1.7-4.35-4.01-4.35s-3.93,1.99-3.93,4.35,1.62,4.33,3.93,4.33,4.01-1.97,4.01-4.33Z"/><path class="ae" d="M503.57,363.82c.1,2.27,1.68,4.13,4.15,4.13,1.48,0,2.67-.64,3.47-1.54v1.04c-.88,.78-2.07,1.28-3.47,1.28-3.09,0-4.95-2.35-4.95-5.13s1.96-5.11,4.77-5.11,4.61,2.51,4.61,5.33h-8.58Zm7.72-.78c-.26-2.05-1.6-3.77-3.75-3.77s-3.71,1.65-3.93,3.77h7.68Z"/><path class="ae" d="M523.61,352.63v15.95h-.8v-2.39c-.76,1.5-2.19,2.53-4.03,2.53-2.77,0-4.71-2.33-4.71-5.11s1.93-5.13,4.71-5.13c1.83,0,3.27,1.04,4.03,2.53v-8.4h.8Zm-.8,10.99c0-2.35-1.7-4.35-4.01-4.35s-3.93,1.99-3.93,4.35,1.62,4.33,3.93,4.33,4.01-1.97,4.01-4.33Z"/><path class="ae" d="M534.1,355.95c0-.34,.26-.6,.6-.6s.6,.26,.6,.6c0,.36-.26,.6-.6,.6s-.6-.24-.6-.6Zm.2,2.67h.8v9.97h-.8v-9.97Z"/><path class="ae" d="M546.82,363v5.58h-.8v-5.38c0-2.63-1.26-3.99-3.17-3.99-1.79,0-3.25,1.36-3.25,3.99v5.38h-.8v-9.97h.8v1.83c.58-1.08,1.78-1.99,3.33-1.99,2.11,0,3.89,1.46,3.89,4.55Z"/><path class="ae" d="M75.06,385.54l-4.57,10.01h-.36l-4.57-10.01h.86l3.89,8.62,3.89-8.62h.86Z"/><path class="ae" d="M76.85,390.75c.1,2.27,1.68,4.13,4.15,4.13,1.47,0,2.67-.64,3.47-1.54v1.04c-.88,.78-2.07,1.28-3.47,1.28-3.09,0-4.95-2.35-4.95-5.13s1.95-5.11,4.77-5.11,4.61,2.51,4.61,5.33h-8.58Zm7.72-.78c-.26-2.05-1.6-3.77-3.75-3.77s-3.71,1.65-3.93,3.77h7.68Z"/><path class="ae" d="M91.77,385.42v.84c-1.73-.06-2.87,1.66-2.87,3.65v5.6h-.8v-9.97h.8v1.95c.48-1.08,1.42-2.07,2.87-2.07Z"/><path class="ae" d="M101.46,385.54l-6,13.96h-.8l1.85-4.31-4.21-9.65h.86l3.73,8.77,3.71-8.77h.86Z"/><path class="ae" d="M109.16,394.08l.6-.56c.6,.8,1.48,1.36,2.45,1.36,1.2,0,2.2-.7,2.2-1.85,0-2.83-5.09-1.96-5.05-5.21,.02-1.4,1.2-2.39,2.73-2.41,1.28-.02,2.31,.74,2.91,1.42l-.52,.54c-.54-.6-1.31-1.18-2.37-1.18-1.12,0-1.95,.7-1.97,1.62-.06,2.59,5.07,1.74,5.03,5.23-.02,1.5-1.2,2.63-2.99,2.63-1.22,0-2.41-.72-3.01-1.58Z"/><path class="ae" d="M131.77,389.57l-.02,5.94h-.8v-5.76c0-2.17-1.08-3.59-2.87-3.59s-2.87,1.42-2.87,3.79l-.02,5.56h-.8v-5.76c0-2.17-1.08-3.59-2.87-3.59s-2.87,1.42-2.87,3.79v5.56h-.8v-9.97h.8v1.6c.54-.96,1.5-1.76,2.97-1.76s2.77,.86,3.31,2.41c.42-1.2,1.46-2.41,3.25-2.41,1.96,0,3.59,1.5,3.59,4.19Z"/><path class="ae" d="M143.5,385.54v9.97h-.8v-2.39c-.76,1.5-2.19,2.53-4.03,2.53-2.77,0-4.71-2.33-4.71-5.11s1.93-5.13,4.71-5.13c1.83,0,3.27,1.04,4.03,2.53v-2.41h.8Zm-.8,5.01c0-2.35-1.7-4.35-4.01-4.35s-3.93,1.99-3.93,4.35,1.62,4.33,3.93,4.33,4.01-1.97,4.01-4.33Z"/><path class="ae" d="M147.01,379.56h.8v15.95h-.8v-15.95Z"/><path class="ae" d="M151.31,379.56h.8v15.95h-.8v-15.95Z"/><path class="ae" d="M171.38,385.54v13.96h-.8v-6.34c-.76,1.48-2.19,2.49-4.01,2.49-2.77,0-4.71-2.33-4.71-5.13s1.93-5.11,4.71-5.11c1.81,0,3.25,1.02,4.01,2.49v-2.37h.8Zm-.8,5.42v-.88c-.2-2.15-1.81-3.89-3.99-3.89-2.31,0-3.93,1.97-3.93,4.33s1.62,4.35,3.93,4.35c2.17,0,3.79-1.75,3.99-3.91Z"/><path class="ae" d="M182.72,385.54v9.97h-.8v-1.83c-.58,1.08-1.78,1.99-3.33,1.99-2.12,0-3.89-1.46-3.89-4.55v-5.58h.8v5.38c0,2.63,1.26,3.99,3.17,3.99,1.79,0,3.25-1.36,3.25-3.99v-5.38h.8Z"/><path class="ae" d="M195.03,385.54v9.97h-.8v-2.39c-.76,1.5-2.19,2.53-4.03,2.53-2.77,0-4.71-2.33-4.71-5.11s1.93-5.13,4.71-5.13c1.83,0,3.27,1.04,4.03,2.53v-2.41h.8Zm-.8,5.01c0-2.35-1.7-4.35-4.01-4.35s-3.93,1.99-3.93,4.35,1.62,4.33,3.93,4.33,4.01-1.97,4.01-4.33Z"/><path class="ae" d="M206.55,389.93v5.58h-.8v-5.38c0-2.63-1.26-3.99-3.17-3.99-1.79,0-3.25,1.36-3.25,3.99v5.38h-.8v-9.97h.8v1.83c.58-1.08,1.78-1.99,3.33-1.99,2.11,0,3.89,1.46,3.89,4.55Z"/><path class="ae" d="M212.95,386.32h-2.05v9.19h-.8v-9.19h-1.28v-.78h1.28v-2.67h.8v2.67h2.05v.78Z"/><path class="ae" d="M215.07,382.87c0-.34,.26-.6,.6-.6s.6,.26,.6,.6c0,.36-.26,.6-.6,.6s-.6-.24-.6-.6Zm.2,2.67h.8v9.97h-.8v-9.97Z"/><path class="ae" d="M222.84,386.32h-2.05v9.19h-.8v-9.19h-1.28v-.78h1.28v-2.67h.8v2.67h2.05v.78Z"/><path class="ae" d="M224.96,382.87c0-.34,.26-.6,.6-.6s.6,.26,.6,.6c0,.36-.26,.6-.6,.6s-.6-.24-.6-.6Zm.2,2.67h.8v9.97h-.8v-9.97Z"/><path class="ae" d="M229.72,390.75c.1,2.27,1.68,4.13,4.15,4.13,1.48,0,2.67-.64,3.47-1.54v1.04c-.88,.78-2.07,1.28-3.47,1.28-3.09,0-4.95-2.35-4.95-5.13s1.96-5.11,4.77-5.11,4.61,2.51,4.61,5.33h-8.58Zm7.72-.78c-.26-2.05-1.6-3.77-3.75-3.77s-3.71,1.65-3.93,3.77h7.68Z"/><path class="ae" d="M240.15,394.08l.6-.56c.6,.8,1.48,1.36,2.45,1.36,1.2,0,2.2-.7,2.2-1.85,0-2.83-5.09-1.96-5.05-5.21,.02-1.4,1.2-2.39,2.73-2.41,1.28-.02,2.31,.74,2.91,1.42l-.52,.54c-.54-.6-1.31-1.18-2.37-1.18-1.12,0-1.95,.7-1.97,1.62-.06,2.59,5.07,1.74,5.03,5.23-.02,1.5-1.2,2.63-2.99,2.63-1.22,0-2.41-.72-3.01-1.58Z"/><path class="ae" d="M248.51,393.28h.82l-.86,4.43h-.6l.64-4.43Z"/><path class="ae" d="M268.37,390.53c0,2.79-1.94,5.13-4.71,5.13-1.84,0-3.27-1.04-4.03-2.53v2.39h-.8v-15.95h.8v8.4c.76-1.5,2.19-2.53,4.03-2.53,2.77,0,4.71,2.33,4.71,5.11Zm-.8,0c0-2.35-1.62-4.33-3.93-4.33s-4.01,1.97-4.01,4.33,1.7,4.35,4.01,4.35,3.93-1.99,3.93-4.35Z"/><path class="ae" d="M278.98,385.54v9.97h-.8v-1.83c-.58,1.08-1.78,1.99-3.33,1.99-2.12,0-3.89-1.46-3.89-4.55v-5.58h.8v5.38c0,2.63,1.26,3.99,3.17,3.99,1.79,0,3.25-1.36,3.25-3.99v-5.38h.8Z"/><path class="ae" d="M285.56,386.32h-2.05v9.19h-.8v-9.19h-1.28v-.78h1.28v-2.67h.8v2.67h2.05v.78Z"/><path class="ae" d="M303.45,385.54v9.97h-.8v-2.39c-.76,1.5-2.19,2.53-4.03,2.53-2.77,0-4.71-2.33-4.71-5.11s1.93-5.13,4.71-5.13c1.83,0,3.27,1.04,4.03,2.53v-2.41h.8Zm-.8,5.01c0-2.35-1.7-4.35-4.01-4.35s-3.93,1.99-3.93,4.35,1.62,4.33,3.93,4.33,4.01-1.97,4.01-4.33Z"/><path class="ae" d="M310.62,385.42v.84c-1.73-.06-2.87,1.66-2.87,3.65v5.6h-.8v-9.97h.8v1.95c.48-1.08,1.42-2.07,2.87-2.07Z"/><path class="ae" d="M312.4,390.75c.1,2.27,1.68,4.13,4.15,4.13,1.48,0,2.67-.64,3.47-1.54v1.04c-.88,.78-2.07,1.28-3.47,1.28-3.09,0-4.95-2.35-4.95-5.13s1.96-5.11,4.77-5.11,4.61,2.51,4.61,5.33h-8.58Zm7.72-.78c-.26-2.05-1.6-3.77-3.75-3.77s-3.71,1.65-3.93,3.77h7.68Z"/><path class="ae" d="M330.62,382.91c0-.34,.26-.6,.6-.6s.6,.26,.6,.6c0,.36-.26,.6-.6,.6s-.6-.24-.6-.6Zm.2,2.63h.8v13.96h-.8v-13.96Z"/><path class="ae" d="M343.17,385.54v9.97h-.8v-1.83c-.58,1.08-1.78,1.99-3.33,1.99-2.11,0-3.89-1.46-3.89-4.55v-5.58h.8v5.38c0,2.63,1.26,3.99,3.17,3.99,1.79,0,3.25-1.36,3.25-3.99v-5.38h.8Z"/><path class="ae" d="M345.86,394.08l.6-.56c.6,.8,1.48,1.36,2.45,1.36,1.2,0,2.19-.7,2.19-1.85,0-2.83-5.09-1.96-5.04-5.21,.02-1.4,1.2-2.39,2.73-2.41,1.28-.02,2.31,.74,2.91,1.42l-.52,.54c-.54-.6-1.32-1.18-2.37-1.18-1.12,0-1.96,.7-1.97,1.62-.06,2.59,5.07,1.74,5.03,5.23-.02,1.5-1.2,2.63-2.99,2.63-1.22,0-2.41-.72-3.01-1.58Z"/><path class="ae" d="M357.23,386.32h-2.05v9.19h-.8v-9.19h-1.28v-.78h1.28v-2.67h.8v2.67h2.05v.78Z"/><path class="ae" d="M375.12,385.54v9.97h-.8v-2.39c-.76,1.5-2.19,2.53-4.03,2.53-2.77,0-4.71-2.33-4.71-5.11s1.93-5.13,4.71-5.13c1.84,0,3.27,1.04,4.03,2.53v-2.41h.8Zm-.8,5.01c0-2.35-1.7-4.35-4.01-4.35s-3.93,1.99-3.93,4.35,1.62,4.33,3.93,4.33,4.01-1.97,4.01-4.33Z"/><path class="ae" d="M377.81,394.08l.6-.56c.6,.8,1.48,1.36,2.45,1.36,1.2,0,2.2-.7,2.2-1.85,0-2.83-5.09-1.96-5.05-5.21,.02-1.4,1.2-2.39,2.73-2.41,1.28-.02,2.31,.74,2.91,1.42l-.52,.54c-.54-.6-1.31-1.18-2.37-1.18-1.12,0-1.95,.7-1.97,1.62-.06,2.59,5.07,1.74,5.03,5.23-.02,1.5-1.2,2.63-2.99,2.63-1.22,0-2.41-.72-3.01-1.58Z"/><path class="ae" d="M393.48,382.87c0-.34,.26-.6,.6-.6s.6,.26,.6,.6c0,.36-.26,.6-.6,.6s-.6-.24-.6-.6Zm.2,2.67h.8v9.97h-.8v-9.97Z"/><path class="ae" d="M412.11,389.57l-.02,5.94h-.8v-5.76c0-2.17-1.08-3.59-2.87-3.59s-2.87,1.42-2.87,3.79l-.02,5.56h-.8v-5.76c0-2.17-1.08-3.59-2.87-3.59s-2.87,1.42-2.87,3.79v5.56h-.8v-9.97h.8v1.6c.54-.96,1.5-1.76,2.97-1.76s2.77,.86,3.31,2.41c.42-1.2,1.46-2.41,3.25-2.41,1.96,0,3.59,1.5,3.59,4.19Z"/><path class="ae" d="M424.95,390.53c0,2.79-1.93,5.13-4.71,5.13-1.82,0-3.25-1.02-4.01-2.49v6.34h-.8v-13.96h.8v2.37c.76-1.48,2.19-2.49,4.01-2.49,2.77,0,4.71,2.33,4.71,5.11Zm-.8,0c0-2.35-1.62-4.33-3.93-4.33-2.17,0-3.79,1.73-3.99,3.89v.88c.2,2.15,1.81,3.91,3.99,3.91,2.31,0,3.93-1.99,3.93-4.35Z"/><path class="ae" d="M426.98,390.5c0-2.73,2.03-5.11,5.03-5.11s5.03,2.37,5.03,5.11-2.04,5.13-5.03,5.13-5.03-2.37-5.03-5.13Zm9.25-.02c0-2.31-1.71-4.31-4.23-4.31s-4.23,1.99-4.23,4.31,1.73,4.37,4.23,4.37,4.23-2.05,4.23-4.37Z"/><path class="ae" d="M443.48,385.42v.84c-1.74-.06-2.87,1.66-2.87,3.65v5.6h-.8v-9.97h.8v1.95c.48-1.08,1.42-2.07,2.87-2.07Z"/><path class="ae" d="M448.66,386.32h-2.05v9.19h-.8v-9.19h-1.28v-.78h1.28v-2.67h.8v2.67h2.05v.78Z"/><path class="ae" d="M459.17,385.54v9.97h-.8v-2.39c-.76,1.5-2.19,2.53-4.03,2.53-2.77,0-4.71-2.33-4.71-5.11s1.93-5.13,4.71-5.13c1.84,0,3.27,1.04,4.03,2.53v-2.41h.8Zm-.8,5.01c0-2.35-1.7-4.35-4.01-4.35s-3.93,1.99-3.93,4.35,1.62,4.33,3.93,4.33,4.01-1.97,4.01-4.33Z"/><path class="ae" d="M470.7,389.93v5.58h-.8v-5.38c0-2.63-1.26-3.99-3.17-3.99-1.79,0-3.25,1.36-3.25,3.99v5.38h-.8v-9.97h.8v1.83c.58-1.08,1.78-1.99,3.33-1.99,2.12,0,3.89,1.46,3.89,4.55Z"/><path class="ae" d="M477.1,386.32h-2.05v9.19h-.8v-9.19h-1.28v-.78h1.28v-2.67h.8v2.67h2.05v.78Z"/><path class="ae" d="M494.98,385.54v9.97h-.8v-2.39c-.76,1.5-2.19,2.53-4.03,2.53-2.77,0-4.71-2.33-4.71-5.11s1.93-5.13,4.71-5.13c1.84,0,3.27,1.04,4.03,2.53v-2.41h.8Zm-.8,5.01c0-2.35-1.7-4.35-4.01-4.35s-3.93,1.99-3.93,4.35,1.62,4.33,3.93,4.33,4.01-1.97,4.01-4.33Z"/><path class="ae" d="M497.68,394.08l.6-.56c.6,.8,1.48,1.36,2.45,1.36,1.2,0,2.2-.7,2.2-1.85,0-2.83-5.09-1.96-5.05-5.21,.02-1.4,1.2-2.39,2.73-2.41,1.28-.02,2.31,.74,2.91,1.42l-.52,.54c-.54-.6-1.31-1.18-2.37-1.18-1.12,0-1.95,.7-1.97,1.62-.06,2.59,5.07,1.74,5.03,5.23-.02,1.5-1.2,2.63-2.99,2.63-1.22,0-2.41-.72-3.01-1.58Z"/><path class="ae" d="M98.28,416.49l-.02,5.94h-.8v-5.76c0-2.17-1.08-3.59-2.87-3.59s-2.87,1.42-2.87,3.79l-.02,5.56h-.8v-5.76c0-2.17-1.08-3.59-2.87-3.59s-2.87,1.42-2.87,3.79v5.56h-.8v-9.97h.8v1.6c.54-.96,1.5-1.75,2.97-1.75s2.77,.86,3.31,2.41c.42-1.2,1.46-2.41,3.25-2.41,1.96,0,3.59,1.5,3.59,4.19Z"/><path class="ae" d="M110.01,412.46v9.97h-.8v-2.39c-.76,1.5-2.19,2.53-4.03,2.53-2.77,0-4.71-2.33-4.71-5.11s1.93-5.13,4.71-5.13c1.83,0,3.27,1.04,4.03,2.53v-2.41h.8Zm-.8,5.01c0-2.35-1.7-4.35-4.01-4.35s-3.93,1.99-3.93,4.35,1.62,4.33,3.93,4.33,4.01-1.97,4.01-4.33Z"/><path class="ae" d="M112.78,417.45c0-2.77,1.97-5.12,5.06-5.12,1.4,0,2.59,.48,3.47,1.28v1.08c-.76-.94-1.99-1.58-3.47-1.58-2.59,0-4.27,2-4.27,4.35s1.68,4.35,4.27,4.35c1.48,0,2.71-.64,3.47-1.58v1.08c-.88,.8-2.07,1.28-3.47,1.28-3.09,0-5.06-2.35-5.06-5.13Z"/><path class="ae" d="M127.97,412.34v.84c-1.74-.06-2.87,1.66-2.87,3.65v5.6h-.8v-9.97h.8v1.95c.48-1.08,1.42-2.07,2.87-2.07Z"/><path class="ae" d="M128.95,417.43c0-2.73,2.04-5.11,5.03-5.11s5.03,2.37,5.03,5.11-2.03,5.12-5.03,5.12-5.03-2.37-5.03-5.12Zm9.25-.02c0-2.31-1.71-4.31-4.23-4.31s-4.23,2-4.23,4.31,1.74,4.37,4.23,4.37,4.23-2.05,4.23-4.37Z"/><path class="ae" d="M149.79,416.85v5.58h-.8v-5.38c0-2.63-1.26-3.99-3.17-3.99-1.79,0-3.25,1.36-3.25,3.99v5.38h-.8v-9.97h.8v1.83c.58-1.08,1.78-1.99,3.33-1.99,2.11,0,3.89,1.46,3.89,4.55Z"/><path class="ae" d="M160.96,412.46v9.97h-.8v-1.83c-.58,1.08-1.78,2-3.33,2-2.11,0-3.89-1.46-3.89-4.55v-5.58h.8v5.38c0,2.63,1.26,3.99,3.17,3.99,1.79,0,3.25-1.36,3.25-3.99v-5.38h.8Z"/><path class="ae" d="M167.54,413.24h-2.05v9.19h-.8v-9.19h-1.28v-.78h1.28v-2.67h.8v2.67h2.05v.78Z"/><path class="ae" d="M173.32,412.34v.84c-1.74-.06-2.87,1.66-2.87,3.65v5.6h-.8v-9.97h.8v1.95c.48-1.08,1.42-2.07,2.87-2.07Z"/><path class="ae" d="M175.43,409.79c0-.34,.26-.6,.6-.6s.6,.26,.6,.6c0,.36-.26,.6-.6,.6s-.6-.24-.6-.6Zm.2,2.67h.8v9.97h-.8v-9.97Z"/><path class="ae" d="M180.2,417.67c.1,2.27,1.68,4.13,4.15,4.13,1.47,0,2.67-.64,3.47-1.54v1.04c-.88,.78-2.07,1.28-3.47,1.28-3.09,0-4.95-2.35-4.95-5.13s1.95-5.11,4.77-5.11,4.61,2.51,4.61,5.33h-8.58Zm7.72-.78c-.26-2.05-1.6-3.77-3.75-3.77s-3.71,1.66-3.93,3.77h7.68Z"/><path class="ae" d="M199.46,416.85v5.58h-.8v-5.38c0-2.63-1.26-3.99-3.17-3.99-1.79,0-3.25,1.36-3.25,3.99v5.38h-.8v-9.97h.8v1.83c.58-1.08,1.78-1.99,3.33-1.99,2.11,0,3.89,1.46,3.89,4.55Z"/><path class="ae" d="M205.86,413.24h-2.05v9.19h-.8v-9.19h-1.28v-.78h1.28v-2.67h.8v2.67h2.05v.78Z"/><path class="ae" d="M206.96,421l.6-.56c.6,.8,1.48,1.36,2.45,1.36,1.2,0,2.19-.7,2.19-1.85,0-2.83-5.09-1.96-5.04-5.21,.02-1.4,1.2-2.39,2.73-2.41,1.28-.02,2.31,.74,2.91,1.42l-.52,.54c-.54-.6-1.32-1.18-2.37-1.18-1.12,0-1.96,.7-1.97,1.62-.06,2.59,5.07,1.74,5.03,5.23-.02,1.5-1.2,2.63-2.99,2.63-1.22,0-2.41-.72-3.01-1.58Z"/><path class="ae" d="M222.63,406.48h.8v15.96h-.8v-15.96Z"/><path class="ae" d="M226.94,409.79c0-.34,.26-.6,.6-.6s.6,.26,.6,.6c0,.36-.26,.6-.6,.6s-.6-.24-.6-.6Zm.2,2.67h.8v9.97h-.8v-9.97Z"/><path class="ae" d="M237.75,422.43l-5.3-4.59v4.59h-.8v-15.96h.8v10.75l5.15-4.77h1.1l-5.48,5.07,5.68,4.91h-1.14Z"/><path class="ae" d="M240.28,417.67c.1,2.27,1.68,4.13,4.15,4.13,1.48,0,2.67-.64,3.47-1.54v1.04c-.88,.78-2.07,1.28-3.47,1.28-3.09,0-4.95-2.35-4.95-5.13s1.96-5.11,4.77-5.11,4.61,2.51,4.61,5.33h-8.58Zm7.72-.78c-.26-2.05-1.6-3.77-3.75-3.77s-3.71,1.66-3.93,3.77h7.68Z"/><path class="ae" d="M266.53,416.85v5.58h-.8v-5.38c0-2.63-1.26-3.99-3.17-3.99-1.79,0-3.25,1.36-3.25,3.99v5.38h-.8v-9.97h.8v1.83c.58-1.08,1.78-1.99,3.33-1.99,2.11,0,3.89,1.46,3.89,4.55Z"/><path class="ae" d="M269.86,409.79c0-.34,.26-.6,.6-.6s.6,.26,.6,.6c0,.36-.26,.6-.6,.6s-.6-.24-.6-.6Zm.2,2.67h.8v9.97h-.8v-9.97Z"/><path class="ae" d="M277.63,413.24h-2.05v9.19h-.8v-9.19h-1.28v-.78h1.28v-2.67h.8v2.67h2.05v.78Z"/><path class="ae" d="M283.42,412.34v.84c-1.74-.06-2.87,1.66-2.87,3.65v5.6h-.8v-9.97h.8v1.95c.48-1.08,1.42-2.07,2.87-2.07Z"/><path class="ae" d="M284.39,417.43c0-2.73,2.04-5.11,5.03-5.11s5.03,2.37,5.03,5.11-2.03,5.12-5.03,5.12-5.03-2.37-5.03-5.12Zm9.25-.02c0-2.31-1.71-4.31-4.23-4.31s-4.23,2-4.23,4.31,1.74,4.37,4.23,4.37,4.23-2.05,4.23-4.37Z"/><path class="ae" d="M306.01,421.97c0,3.15-2.35,4.59-4.67,4.59-1.52,0-2.75-.52-3.71-1.16l.02-.92c1.04,.78,2.23,1.32,3.59,1.32,2.23,0,4.01-1.4,3.99-3.97v-1.82c-.76,1.52-2.21,2.55-4.05,2.55-2.77,0-4.71-2.33-4.71-5.11s1.93-5.13,4.71-5.13c1.81,0,3.25,1.02,4.03,2.51l-.02-2.39h.8l.02,9.51Zm-.8-4.51c0-2.35-1.7-4.35-4.01-4.35s-3.93,1.99-3.93,4.35,1.62,4.33,3.93,4.33,4.01-1.97,4.01-4.33Z"/><path class="ae" d="M309.58,417.67c.1,2.27,1.68,4.13,4.15,4.13,1.48,0,2.67-.64,3.47-1.54v1.04c-.88,.78-2.07,1.28-3.47,1.28-3.09,0-4.95-2.35-4.95-5.13s1.96-5.11,4.77-5.11,4.61,2.51,4.61,5.33h-8.58Zm7.72-.78c-.26-2.05-1.6-3.77-3.75-3.77s-3.71,1.66-3.93,3.77h7.68Z"/><path class="ae" d="M328.84,416.85v5.58h-.8v-5.38c0-2.63-1.26-3.99-3.17-3.99-1.79,0-3.25,1.36-3.25,3.99v5.38h-.8v-9.97h.8v1.83c.58-1.08,1.78-1.99,3.33-1.99,2.12,0,3.89,1.46,3.89,4.55Z"/><path class="ae" d="M347.95,412.46v9.97h-.8v-2.39c-.76,1.5-2.19,2.53-4.03,2.53-2.77,0-4.71-2.33-4.71-5.11s1.93-5.13,4.71-5.13c1.83,0,3.27,1.04,4.03,2.53v-2.41h.8Zm-.8,5.01c0-2.35-1.7-4.35-4.01-4.35s-3.93,1.99-3.93,4.35,1.62,4.33,3.93,4.33,4.01-1.97,4.01-4.33Z"/><path class="ae" d="M359.47,416.85v5.58h-.8v-5.38c0-2.63-1.26-3.99-3.17-3.99-1.79,0-3.25,1.36-3.25,3.99v5.38h-.8v-9.97h.8v1.83c.58-1.08,1.78-1.99,3.33-1.99,2.11,0,3.89,1.46,3.89,4.55Z"/><path class="ae" d="M371.2,406.48v15.96h-.8v-2.39c-.76,1.5-2.19,2.53-4.03,2.53-2.77,0-4.71-2.33-4.71-5.11s1.93-5.13,4.71-5.13c1.83,0,3.27,1.04,4.03,2.53v-8.4h.8Zm-.8,10.99c0-2.35-1.7-4.35-4.01-4.35s-3.93,1.99-3.93,4.35,1.62,4.33,3.93,4.33,4.01-1.97,4.01-4.33Z"/><path class="ae" d="M391.2,417.45c0,2.79-1.93,5.13-4.71,5.13-1.82,0-3.25-1.02-4.01-2.49v6.34h-.8v-13.96h.8v2.37c.76-1.48,2.19-2.49,4.01-2.49,2.77,0,4.71,2.33,4.71,5.11Zm-.8,0c0-2.35-1.62-4.33-3.93-4.33-2.17,0-3.79,1.74-3.99,3.89v.88c.2,2.15,1.81,3.91,3.99,3.91,2.31,0,3.93-1.99,3.93-4.35Z"/><path class="ae" d="M401.99,416.85v5.58h-.8v-5.38c0-2.63-1.26-3.99-3.17-3.99-1.79,0-3.25,1.36-3.25,3.99v5.38h-.8v-15.96h.8v7.82c.58-1.08,1.78-1.99,3.33-1.99,2.11,0,3.89,1.46,3.89,4.55Z"/><path class="ae" d="M404.18,417.43c0-2.73,2.03-5.11,5.03-5.11s5.03,2.37,5.03,5.11-2.04,5.12-5.03,5.12-5.03-2.37-5.03-5.12Zm9.25-.02c0-2.31-1.71-4.31-4.23-4.31s-4.23,2-4.23,4.31,1.73,4.37,4.23,4.37,4.23-2.05,4.23-4.37Z"/><path class="ae" d="M416.19,421l.6-.56c.6,.8,1.48,1.36,2.45,1.36,1.2,0,2.2-.7,2.2-1.85,0-2.83-5.09-1.96-5.05-5.21,.02-1.4,1.2-2.39,2.73-2.41,1.28-.02,2.31,.74,2.91,1.42l-.52,.54c-.54-.6-1.31-1.18-2.37-1.18-1.12,0-1.95,.7-1.97,1.62-.06,2.59,5.07,1.74,5.03,5.23-.02,1.5-1.2,2.63-2.99,2.63-1.22,0-2.41-.72-3.01-1.58Z"/><path class="ae" d="M434.39,417.45c0,2.79-1.93,5.13-4.71,5.13-1.82,0-3.25-1.02-4.01-2.49v6.34h-.8v-13.96h.8v2.37c.76-1.48,2.19-2.49,4.01-2.49,2.77,0,4.71,2.33,4.71,5.11Zm-.8,0c0-2.35-1.62-4.33-3.93-4.33-2.17,0-3.79,1.74-3.99,3.89v.88c.2,2.15,1.81,3.91,3.99,3.91,2.31,0,3.93-1.99,3.93-4.35Z"/><path class="ae" d="M445.18,416.85v5.58h-.8v-5.38c0-2.63-1.26-3.99-3.17-3.99-1.79,0-3.25,1.36-3.25,3.99v5.38h-.8v-15.96h.8v7.82c.58-1.08,1.78-1.99,3.33-1.99,2.11,0,3.89,1.46,3.89,4.55Z"/><path class="ae" d="M447.38,417.43c0-2.73,2.04-5.11,5.03-5.11s5.03,2.37,5.03,5.11-2.03,5.12-5.03,5.12-5.03-2.37-5.03-5.12Zm9.25-.02c0-2.31-1.71-4.31-4.23-4.31s-4.23,2-4.23,4.31,1.74,4.37,4.23,4.37,4.23-2.05,4.23-4.37Z"/><path class="ae" d="M463.87,412.34v.84c-1.73-.06-2.87,1.66-2.87,3.65v5.6h-.8v-9.97h.8v1.95c.48-1.08,1.42-2.07,2.87-2.07Z"/><path class="ae" d="M473.82,412.46v9.97h-.8v-1.83c-.58,1.08-1.78,2-3.33,2-2.12,0-3.89-1.46-3.89-4.55v-5.58h.8v5.38c0,2.63,1.26,3.99,3.17,3.99,1.79,0,3.25-1.36,3.25-3.99v-5.38h.8Z"/><path class="ae" d="M476.51,421l.6-.56c.6,.8,1.48,1.36,2.45,1.36,1.2,0,2.2-.7,2.2-1.85,0-2.83-5.09-1.96-5.05-5.21,.02-1.4,1.2-2.39,2.73-2.41,1.28-.02,2.31,.74,2.91,1.42l-.52,.54c-.54-.6-1.31-1.18-2.37-1.18-1.12,0-1.95,.7-1.97,1.62-.06,2.59,5.07,1.74,5.03,5.23-.02,1.5-1.2,2.63-2.99,2.63-1.22,0-2.41-.72-3.01-1.58Z"/><path class="ae" d="M484.83,421.91c0-.34,.26-.62,.6-.62s.6,.28,.6,.62-.26,.6-.6,.6-.6-.26-.6-.6Zm.02-13.44h.88l-.16,11.79h-.56l-.16-11.79Z"/></g><g><circle class="x" cx="300.36" cy="161.99" r="7.44"/><path class="ac" d="M301.82,165.7l-2.36-3.36v3.36h-1.61v-7.65h1.61v3.58l2.33-3.58h1.87l-2.63,3.9,2.72,3.75h-1.92Z"/><path class="a`" d="M307.03,156.43h-1.31v1.3h-1.24v-1.3h-1.25v-1.22h1.25v-1.29h1.24v1.29h1.31v1.22Z"/></g><g><circle class="e" cx="285.48" cy="121.97" r="7.9"/><g><path class="ac" d="M284.9,124.6l-.66-3.1-1.42,3.16h-.2l-1.4-3.12-.6,3.07h-1.3l1.29-5.97h.53l1.57,3.66,1.58-3.66h.54l1.35,5.97h-1.28Z"/><path class="ac" d="M290.88,124.37c0,1.29-.99,1.99-2.14,1.99-.64,0-1.13-.16-1.62-.39v-1.15c.48,.29,.95,.46,1.41,.46,.67,0,1.15-.34,1.15-1.12v-.12c-.29,.36-.72,.61-1.27,.61-1.15,0-1.9-.96-1.9-2.17s.74-2.16,1.9-2.16c.54,0,.96,.24,1.25,.59v-.52h1.21v3.98Zm-1.21-1.89c0-.52-.39-.99-.94-.99s-.94,.45-.94,.99,.38,.99,.94,.99,.94-.46,.94-.99Z"/></g><path class="w" d="M288.92,116.99c.5-.52,1.04-1.08,1.51-1.59,.25-.28,.44-.53,.44-.82,0-.24-.19-.45-.44-.45-.33,0-.52,.31-.52,.66l-1.18-.32c.03-.8,.68-1.6,1.69-1.6s1.69,.73,1.69,1.52c0,.63-.32,1.08-.77,1.55-.15,.18-.34,.38-.49,.56h1.26v1.19h-3.18v-.71Z"/><path class="w" d="M295.14,116.06h-.89v.88h-.85v-.88h-.85v-.83h.85v-.88h.85v.88h.89v.83Z"/></g><g><circle class="y" cx="251.89" cy="151.18" r="8.94"/><g><path class="ac" d="M245.79,151.47c-.27-2.11,1.05-3.97,3.3-4.25,.62-.08,1.21-.03,1.7,.14l.22,1.68c-.4-.26-.98-.41-1.69-.32-1.32,.17-2.11,1.33-1.96,2.55s1.2,2.15,2.53,1.98c.71-.09,1.24-.37,1.56-.73l.2,1.69c-.44,.28-1,.47-1.62,.55-2.25,.28-3.99-1.19-4.25-3.3Z"/><path class="ac" d="M257.02,148.47l.66,5.21-1.5,.19-.08-.67c-.31,.5-.79,.85-1.47,.94-1.43,.18-2.5-.89-2.69-2.39-.19-1.49,.58-2.8,2.01-2.98,.68-.08,1.24,.14,1.66,.54l-.08-.66,1.5-.19Zm-1.18,2.79c-.08-.65-.63-1.17-1.32-1.08-.69,.09-1.09,.7-1,1.38,.09,.69,.62,1.17,1.31,1.08s1.1-.72,1.01-1.38Z"/></g><path class="p" d="M255.02,144.32c.47-.63,.97-1.3,1.41-1.91,.23-.33,.41-.63,.37-.94-.03-.26-.27-.45-.54-.42-.35,.04-.52,.4-.47,.78l-1.31-.18c-.07-.87,.51-1.81,1.6-1.95,1.08-.14,1.91,.55,2.02,1.4,.09,.67-.19,1.2-.62,1.77-.14,.21-.31,.45-.45,.67l1.35-.17,.16,1.28-3.42,.43-.1-.76Z"/><path class="p" d="M261.57,142.47l-.96,.12,.12,.95-.91,.11-.12-.95-.92,.12-.11-.89,.92-.12-.12-.94,.91-.11,.12,.94,.96-.12,.11,.89Z"/></g><g><circle class="r" cx="249.75" cy="245.5" r="8.63"/><g><path class="s" d="M249.58,247.82l-.77-3.41-1.6,3.49h-.12l-1.56-3.43-.7,3.36h-1.02l1.34-6.08h.13l1.87,4.25,1.87-4.25h.13l1.43,6.08h-1Z"/><path class="s" d="M255.08,245.35v2.47h-.98v-2.34c0-.73-.39-1.13-.92-1.13-.49,0-.85,.32-.91,.94v2.53h-.98v-4.27h.98v.51c.25-.36,.67-.61,1.23-.61,.81,0,1.57,.63,1.57,1.9Z"/></g><path class="ab" d="M253.33,239.55c.44-.5,.9-1.05,1.34-1.57,.27-.33,.49-.62,.49-.96,0-.28-.22-.53-.54-.53-.35,0-.6,.32-.6,.72l-.82-.23c.02-.7,.57-1.37,1.43-1.37s1.43,.63,1.43,1.32c0,.53-.26,.93-.63,1.35-.2,.25-.41,.5-.61,.74h1.27v.85h-2.75v-.33Z"/><path class="ab" d="M258.8,238.36h-.82v.83h-.68v-.83h-.8v-.66h.8v-.81h.68v.81h.82v.66Z"/></g><g><circle class="n" cx="278.3" cy="195.97" r="7.8"/><path class="g" d="M281.54,190.59c.4-.45,.82-.95,1.22-1.42,.24-.3,.44-.56,.44-.86,0-.25-.2-.48-.49-.48-.32,0-.55,.29-.55,.65l-.75-.21c.02-.63,.52-1.24,1.29-1.24s1.29,.57,1.29,1.19c0,.48-.24,.84-.57,1.22-.18,.22-.37,.45-.55,.67h1.15v.77h-2.49v-.3Z"/><path class="g" d="M286.49,189.52h-.74v.75h-.61v-.75h-.72v-.59h.72v-.73h.61v.73h.74v.59Z"/><g><path class="t" d="M277.73,193.16l-2.12,4.45h2.03v.87h-3.34v-.11l2.15-4.43h-2.12v-.86h3.4v.09Z"/><path class="t" d="M281.92,196.24v2.23h-.89v-2.12c0-.66-.36-1.02-.83-1.02-.44,0-.76,.29-.82,.85v2.29h-.89v-3.86h.89v.46c.22-.33,.61-.55,1.11-.55,.73,0,1.42,.57,1.42,1.71Z"/></g></g><g><line class="u" x1="349.53" y1="139.23" x2="348.43" y2="138.56"/><circle class="aa" cx="342" cy="135.45" r="9.67"/><g><path class="ac" d="M341.26,131.54l-1.97,6.21-.68-.22-2.06-4.71-1.15,3.61-1.29-.41,1.97-6.19,.68,.22,2.04,4.81,1.18-3.72,1.28,.41Z"/><path class="ac" d="M347.38,133.49l-1.95,6.13-1.29-.41,.78-2.44-2.34-.74-.78,2.44-1.29-.41,1.95-6.13,1.29,.41-.78,2.44,2.34,.74,.78-2.44,1.29,.41Z"/><path class="ac" d="M348.42,140.18l-.26-.08-.11,.35-.78-.25,.11-.35-1.17-.37,.17-.55,1.54-1.62,1.02,.33-.55,1.73,.26,.08-.23,.74Zm-.81-1.07l.24-.76-.56,.66,.31,.1Z"/></g><path class="l" d="M353.25,133.27l-1.54-.49-.5,1.56-1.27-.4,.5-1.56-1.51-.48,.39-1.24,1.51,.48,.48-1.52,1.27,.4-.48,1.52,1.54,.49-.39,1.24Z"/></g><g><circle class="d" cx="337.48" cy="204.39" r="15.98"/><path class="v" d="M352.63,195.47c-.43,1.32-1.87,2.12-3.45,1.61-1.52-.49-2.07-1.7-2.08-2.8l1.91-.34c0,.51,.24,1.04,.76,1.21,.45,.15,.9-.07,1.05-.51,.14-.44-.13-.85-.55-.99-.28-.09-.51-.07-.75-.01l-.39-1.16,2.03-.95-2.4-.78,.61-1.87,4.44,1.44-.56,1.73-1.48,.74c.9,.69,1.18,1.76,.88,2.69Z"/><path class="v" d="M353.79,194.06l3.4,1.11-.5,1.54-3.4-1.11,.5-1.54Z"/></g><g><circle class="f" cx="301.7" cy="239.56" r="9.42"/><g><path class="ac" d="M299.36,237.4l1.54,5.58-.61,.17-3.82-2.51,.9,3.24-1.16,.32-1.54-5.56,.61-.17,3.85,2.59-.93-3.34,1.15-.32Z"/><path class="ac" d="M301.04,239.9c-.42-1.53,.32-3.16,2.06-3.64,1.73-.48,3.22,.54,3.64,2.07,.42,1.53-.33,3.17-2.06,3.64-1.74,.48-3.21-.53-3.64-2.07Zm4.51-1.25c-.25-.9-1.13-1.52-2.13-1.24-1.01,.28-1.44,1.26-1.19,2.16,.25,.9,1.13,1.53,2.13,1.25,1-.28,1.44-1.27,1.19-2.17Z"/><path class="ac" d="M309.63,239.62c.12,.44-.11,.95-.7,1.11-.45,.12-.87-.03-1.11-.4l.59-.46c.07,.11,.2,.17,.32,.14,.13-.04,.19-.15,.16-.26-.03-.12-.14-.18-.27-.15-.05,.01-.08,.04-.12,.08l-.5-.25,.34-.56-.72,.2-.19-.7,1.6-.44,.17,.63-.29,.44c.36,.04,.64,.28,.73,.63Z"/></g><path class="k" d="M304.7,232.05l5.4-1.5,.62,2.22-5.4,1.5-.62-2.22Z"/></g><g><g><circle class="o" cx="220.18" cy="198.68" r="17.98"/><g><path class="ac" d="M208.66,204.16l1.23-1.94c.7,.66,1.75,1.12,2.59,1.03,.79-.09,1.22-.6,1.15-1.19-.22-1.94-4.99-.9-5.37-4.53-.19-1.7,1.08-3.26,3.21-3.5,1.49-.17,2.83,.44,3.68,1.13l-1.14,1.92c-.56-.44-1.45-.85-2.19-.77-.71,.08-1.13,.53-1.07,1.09,.2,1.75,4.99,.9,5.37,4.49,.19,1.8-1.03,3.38-3.37,3.65-1.57,.18-3.14-.43-4.1-1.37Z"/><path class="ac" d="M217.08,199.22c-.35-3.08,1.59-6.02,5.1-6.42,3.5-.4,6.06,2.04,6.41,5.12,.35,3.1-1.6,6.02-5.1,6.42-3.51,.4-6.05-2.02-6.4-5.12Zm9.1-1.03c-.21-1.81-1.72-3.28-3.74-3.05-2.03,.23-3.17,2-2.96,3.81,.21,1.81,1.71,3.3,3.74,3.07,2.02-.23,3.17-2.01,2.96-3.83Z"/><path class="ac" d="M234,202.29l-.48,.05,.07,.64-1.41,.16-.07-.64-2.13,.24-.11-1,1.29-3.67,1.86-.21,.36,3.15,.48-.05,.15,1.34Zm-2.04-1.12l-.16-1.38-.42,1.45,.57-.06Z"/></g></g><path class="h" d="M229.24,186.75c.98-1.29,2.03-2.68,2.95-3.93,.48-.68,.85-1.29,.77-1.93-.06-.54-.55-.94-1.1-.87-.73,.09-1.08,.83-.98,1.61l-2.7-.4c-.14-1.8,1.09-3.74,3.33-4,2.24-.27,3.94,1.18,4.15,2.93,.17,1.4-.42,2.49-1.31,3.64-.3,.43-.65,.93-.94,1.38l2.79-.33,.31,2.64-7.08,.84-.19-1.58Z"/><path class="m" d="M237,180.99l5.34-.63,.26,2.19-5.34,.63-.26-2.19Z"/></g><g><path class="ac" d="M334.43,201.57c-.46,1.83-2.07,2.95-4.21,2.41l-.97-.24-.79,3.16-2.04-.51,2.44-9.72,3,.75c2.15,.54,2.99,2.48,2.57,4.14Zm-2.1-.53c.18-.73-.25-1.46-1.07-1.67l-.86-.22-.66,2.62,.86,.22c.82,.21,1.53-.16,1.73-.95Z"/><path class="ac" d="M334.91,203.35c.68-2.69,3.22-4.55,6.29-3.78,3.05,.77,4.44,3.61,3.76,6.3-.68,2.71-3.24,4.54-6.29,3.78-3.07-.77-4.44-3.59-3.76-6.3Zm7.95,2c.4-1.58-.41-3.29-2.18-3.73-1.78-.45-3.29,.68-3.68,2.26-.4,1.58,.4,3.3,2.17,3.75,1.76,.44,3.29-.69,3.69-2.28Z"/><path class="ac" d="M348.12,211.25l-.42-.1-.14,.55-1.24-.31,.14-.56-1.86-.47,.22-.88,2.24-2.67,1.62,.41-.69,2.75,.42,.1-.29,1.17Zm-1.36-1.58l.3-1.21-.8,1.08,.5,.12Z"/></g><circle class="q" cx="196.94" cy="148.48" r="7.6"/><g><path class="j" d="M194.05,146.25l.08,1.5,1.66-.09,.07,1.26-1.66,.09,.13,2.32-1.34,.07-.35-6.38,3.68-.2,.07,1.29-2.34,.13Z"/><path class="j" d="M201.07,149.1l-3.12,.17c.18,.48,.63,.72,1.2,.69,.51-.03,.98-.2,1.42-.44l.07,1.17c-.38,.24-.91,.42-1.53,.45-1.48,.08-2.43-.94-2.5-2.22s.76-2.4,2.14-2.47c1.48-.08,2.36,1.14,2.32,2.65Zm-3.17-.65l1.85-.1c-.15-.45-.5-.71-.93-.69-.47,.03-.81,.35-.92,.79Z"/><path class="i" d="M198.24,142.72c.37-.47,.75-.97,1.12-1.46,.22-.3,.4-.57,.39-.87-.01-.25-.22-.46-.51-.45-.31,.02-.52,.31-.5,.67l-.74-.16c-.01-.62,.44-1.25,1.2-1.29,.76-.04,1.3,.49,1.33,1.1,.03,.47-.19,.84-.49,1.23-.16,.23-.34,.46-.51,.69l1.13-.06,.04,.75-2.44,.13-.02-.29Z"/><path class="i" d="M203.04,141.4l-.73,.04,.04,.74-.6,.03-.04-.74-.71,.04-.03-.58,.71-.04-.04-.72,.6-.03,.04,.72,.73-.04,.03,.58Z"/></g></g></g></svg>