<svg xmlns="http://www.w3.org/2000/svg" xmlns:xlink="http://www.w3.org/1999/xlink" viewBox="0 0 617.2194 390.6364"><defs><style>.cls-1{fill:#4d3b2f;}.cls-2{font-size:20.0875px;fill:#5c5052;font-family:Acre-Thin, Acre;font-weight:200;}.cls-3{letter-spacing:-0.02em;}.cls-4{letter-spacing:-0.02em;}.cls-5{letter-spacing:-0.01em;}.cls-6{letter-spacing:-0.03em;}.cls-7{letter-spacing:-0.07em;}.cls-8{letter-spacing:-0.01em;}.cls-9{letter-spacing:0.01em;}.cls-10{font-size:35.1531px;fill:#ebbd25;stroke:#ebbd25;stroke-width:0.5022px;font-family:Acre-Light, Acre;font-weight:300;}.cls-10,.cls-15,.cls-16,.cls-17,.cls-18,.cls-20,.cls-21,.cls-22,.cls-23,.cls-24,.cls-25,.cls-26,.cls-27,.cls-28,.cls-30,.cls-31,.cls-32,.cls-33,.cls-34,.cls-35,.cls-36,.cls-37,.cls-38,.cls-39,.cls-42,.cls-45{stroke-miterlimit:10;}.cls-11{letter-spacing:-0.003em;}.cls-12{letter-spacing:-0.02em;}.cls-13{letter-spacing:-0.015em;}.cls-14{letter-spacing:-0.02em;}.cls-15,.cls-16,.cls-18,.cls-28,.cls-43,.cls-44,.cls-45{fill:none;}.cls-15,.cls-16,.cls-17,.cls-18,.cls-45{stroke:#5c5052;}.cls-15{stroke-width:0.8162px;}.cls-16{stroke-width:0.9725px;}.cls-17,.cls-23,.cls-27,.cls-29,.cls-33{fill:#fff;}.cls-17{stroke-width:1.6761px;opacity:0.5;}.cls-18{stroke-width:0.9125px;}.cls-19{clip-path:url(#clip-path);}.cls-20,.cls-24,.cls-34{fill:#ec6a7c;}.cls-20,.cls-21,.cls-22,.cls-23,.cls-24,.cls-25,.cls-26,.cls-27,.cls-30,.cls-31,.cls-32,.cls-33,.cls-34,.cls-35,.cls-36,.cls-37,.cls-38,.cls-39,.cls-44{stroke:#fff;}.cls-20,.cls-32,.cls-35{stroke-width:0.3312px;}.cls-21,.cls-38{fill:#3caba2;}.cls-21,.cls-36{stroke-width:0.1987px;}.cls-22,.cls-31,.cls-32{fill:#6d54a3;}.cls-22{stroke-width:0.5396px;}.cls-23{stroke-width:0.1181px;}.cls-24{stroke-width:0.0737px;}.cls-25{fill:#6b6264;stroke-width:0.4374px;}.cls-26,.cls-35{fill:#f37243;}.cls-26{stroke-width:0.0665px;}.cls-27{stroke-width:0.1095px;}.cls-28{stroke:#5f5353;stroke-width:0.638px;}.cls-30,.cls-36{fill:#ffcf01;}.cls-30{stroke-width:0.488px;}.cls-31{stroke-width:0.2285px;}.cls-33{stroke-width:0.3381px;}.cls-34{stroke-width:0.2105px;}.cls-37,.cls-39{fill:#2e6290;}.cls-37{stroke-width:0.1682px;}.cls-38{stroke-width:0.3221px;}.cls-39{stroke-width:0.2069px;}.cls-40{fill:#e86a7c;}.cls-41{fill:#3da89f;}.cls-42{fill:#fbcb08;stroke:#efefef;stroke-width:0.0469px;}.cls-43{stroke:#fbcb08;stroke-width:0.329px;}.cls-43,.cls-44{stroke-linecap:round;stroke-linejoin:round;}.cls-44{stroke-width:0.8031px;}.cls-45{stroke-width:0.4231px;}</style><clipPath id="clip-path"><circle class="cls-1" cx="136.2854" cy="209.3289" r="97.8984"/></clipPath></defs><g id="Layer_2" data-name="Layer 2"><g id="Layer_9" data-name="Layer 9"><text class="cls-2" transform="translate(314.3369 92.4868)"><tspan class="cls-3">m</tspan><tspan x="16.9736" y="0">easu</tspan><tspan class="cls-3" x="60.1211" y="0">r</tspan><tspan x="65.5449" y="0">ed as eit</tspan><tspan class="cls-3" x="145.0693" y="0">h</tspan><tspan x="156.0977" y="0">er t</tspan><tspan class="cls-4" x="185.5654" y="0">h</tspan><tspan x="196.5928" y="0">e </tspan><tspan class="cls-3" x="215.0127" y="0">m</tspan><tspan x="231.9863" y="0">ass </tspan><tspan x="8.376" y="24.105">lo</tspan><tspan class="cls-3" x="24.8877" y="24.105">s</tspan><tspan x="32.4209" y="24.105">t </tspan><tspan class="cls-5" x="44.6738" y="24.105">b</tspan><tspan class="cls-3" x="56.8662" y="24.105">y</tspan><tspan x="66.0459" y="24.105" xml:space="preserve"> cooki</tspan><tspan class="cls-3" x="122.2695" y="24.105">n</tspan><tspan x="133.2979" y="24.105">g soil </tspan><tspan class="cls-3" x="188.9385" y="24.105">t</tspan><tspan x="193.7598" y="24.105">o </tspan><tspan class="cls-5" x="212.9629" y="24.105">ov</tspan><tspan x="234.6572" y="24.105">er </tspan><tspan x="3.8359" y="48.21">1000 C (</tspan><tspan class="cls-3" x="73.3564" y="48.21">t</tspan><tspan class="cls-5" x="78.1777" y="48.21">o</tspan><tspan class="cls-3" x="90.1494" y="48.21">t</tspan><tspan x="94.9707" y="48.21">al o</tspan><tspan class="cls-3" x="130.9063" y="48.21">r</tspan><tspan x="136.3301" y="48.21">ganic </tspan><tspan class="cls-3" x="195.1846" y="48.21">m</tspan><tspan x="212.1582" y="48.21">at</tspan><tspan class="cls-3" x="229.7744" y="48.21">t</tspan><tspan x="234.5957" y="48.21">er) </tspan><tspan x="16.3301" y="72.3149">or </tspan><tspan class="cls-5" x="41.3584" y="72.3149">b</tspan><tspan class="cls-3" x="53.5508" y="72.3149">y</tspan><tspan x="62.7305" y="72.3149"> </tspan><tspan class="cls-3" x="69.7607" y="72.3149">m</tspan><tspan x="86.7344" y="72.3149">easuri</tspan><tspan class="cls-3" x="140.4473" y="72.3149">n</tspan><tspan x="151.4756" y="72.3149">g t</tspan><tspan class="cls-3" x="176.1221" y="72.3149">h</tspan><tspan x="187.1504" y="72.3149">e </tspan><tspan class="cls-3" x="205.5703" y="72.3149">t</tspan><tspan class="cls-5" x="210.3916" y="72.3149">o</tspan><tspan class="cls-3" x="222.3633" y="72.3149">t</tspan><tspan x="227.1846" y="72.3149">al </tspan><tspan x="0.1006" y="96.4199">a</tspan><tspan class="cls-3" x="12.4941" y="96.4199">m</tspan><tspan x="29.4678" y="96.4199">ount </tspan><tspan class="cls-5" x="76.7529" y="96.4199">o</tspan><tspan x="88.7246" y="96.4199">f carbon in t</tspan><tspan class="cls-3" x="201.5127" y="96.4199">h</tspan><tspan x="212.541" y="96.4199">e soil </tspan><tspan x="15.126" y="120.5249">a</tspan><tspan class="cls-3" x="27.5195" y="120.5249">n</tspan><tspan x="38.5479" y="120.5249">d multiplyi</tspan><tspan class="cls-3" x="132.1123" y="120.5249">n</tspan><tspan x="143.1406" y="120.5249">g </tspan><tspan class="cls-5" x="162.5645" y="120.5249">b</tspan><tspan class="cls-3" x="174.7568" y="120.5249">y</tspan><tspan x="183.9365" y="120.5249" xml:space="preserve"> 1</tspan><tspan class="cls-6" x="196.8721" y="120.5249">.</tspan><tspan class="cls-7" x="199.041" y="120.5249">7</tspan><tspan x="206.1318" y="120.5249">. soil </tspan><tspan x="30.8945" y="144.6299">color is a good visual </tspan><tspan x="51.9551" y="168.7349">i</tspan><tspan class="cls-3" x="56.6953" y="168.7349">n</tspan><tspan x="67.7236" y="168.7349">dica</tspan><tspan class="cls-3" x="108.1182" y="168.7349">t</tspan><tspan x="112.9395" y="168.7349">or </tspan><tspan class="cls-5" x="137.9678" y="168.7349">o</tspan><tspan x="149.9395" y="168.7349">f S</tspan><tspan class="cls-8" x="172.1758" y="168.7349">O</tspan><tspan class="cls-9" x="189.21" y="168.7349">M</tspan><tspan x="205.5205" y="168.7349">.</tspan></text><text class="cls-10" transform="translate(158.8252 30.1309)"><tspan class="cls-11">s</tspan><tspan x="14.2363" y="0">oil o</tspan><tspan class="cls-12" x="85.4551" y="0">r</tspan><tspan x="95.4385" y="0">ganic </tspan><tspan class="cls-13" x="198.3652" y="0">m</tspan><tspan x="228.5615" y="0">at</tspan><tspan class="cls-14" x="259.9883" y="0">t</tspan><tspan x="269.0225" y="0">er</tspan></text><path class="cls-1" d="M402.7376,375.5983a6.3914,6.3914,0,0,0-1.2225-1.38,6.94,6.94,0,0,0-5.3062-1.4815,13.3809,13.3809,0,0,0,.4716-7.9336c-1.3451-5.3344-5.6573-8.561-10.752-10.0131a16.2446,16.2446,0,0,0-12.74,1.6988,4.5036,4.5036,0,0,0-2.4175-3.4016,4.7429,4.7429,0,0,0-2.6593-.3784,3.436,3.436,0,0,0-1.7344.6652,12.0457,12.0457,0,0,0-11.1976-9.16c-3.94-.14-11.612,1.1955-14.7042,9.8537a14.9553,14.9553,0,0,0-.5953,4.3943,6.6489,6.6489,0,0,0-8.8886,3.4856,7.8554,7.8554,0,0,0-2.7572-1.3728A10.4875,10.4875,0,0,0,315.17,373.1844a5.0038,5.0038,0,0,0-4.0556,3.0718c-3.8248,9.4367,9.75,10.1127,15.55,11.0565a256.1886,256.1886,0,0,0,27.7661,2.9751q8.37.4374,16.757.3258a86.995,86.995,0,0,0,17.7058-1.6823c3.9595-.8789,8.1868-1.8307,11.5892-4.1485,1.6217-1.1047,3.2875-2.8622,3.4067-4.88A7.1394,7.1394,0,0,0,402.7376,375.5983Z"/><path class="cls-15" d="M44.6335,176.1053a97.4878,97.4878,0,1,1,58.4289,124.8756A97.4876,97.4876,0,0,1,44.6335,176.1053Z"/><line class="cls-16" x1="318.9473" y1="374.8369" x2="98.1848" y2="299.0657"/><path class="cls-17" d="M310.63,365.9529a15.8718,15.8718,0,1,1,20.4359,9.2842A15.8716,15.8716,0,0,1,310.63,365.9529Z"/><line class="cls-18" x1="340.3501" y1="354.8014" x2="218.8522" y2="157.4875"/><circle class="cls-1" cx="136.2854" cy="209.3289" r="97.8984"/><g class="cls-19"><path class="cls-1" d="M40.1288,268.2646A45.8124,45.8124,0,0,1,64.8764,278.273c-.6938-.5634,4.0494-8.51,4.5816-9.3662a52.5881,52.5881,0,0,1,6.656-8.584c7.6732-8.0236,16.2708-11.9111,27.13-13.8512,7.7892-1.3916,18.011-1.4034,25.2662,2.1021-3.223-28.2629,8.69-57.362,28.09-78.1668a101.1122,101.1122,0,0,1,34.7606-24.0891,114.2637,114.2637,0,0,1,20.4772-6.3862c2.1772-.4643,4.34-1.0007,6.5377-1.365a15.6326,15.6326,0,0,1,3.3486-.3824c.7052.0431,1.178.9194,1.5074,1.4408.4692.7428.835,1.542,1.3051,2.298q1.4691,2.3622,2.7467,4.8368c1.1647,2.2585,2.3019,4.5345,3.5061,6.7714,1.6132,2.9968,2.955,6.1468,4.555,9.14a15.467,15.467,0,0,1,.8474,2.5847q.417,1.3224.821,2.6489c.5332,1.743,1.0569,3.4889,1.5968,5.23q.1116.3594.224.7186a76.8415,76.8415,0,0,1,2.2639,8.3,76.8769,76.8769,0,0,1,.9686,7.8335c.7287,8.1885,1.4344,16.434.88,24.6567-.5231,7.7583-2.966,14.8935-4.7349,22.36-1.6257,6.8618-5.1612,13.5938-8.8147,19.5692-7.7033,12.599-18.1171,23.3207-29.0233,33.1711a75.9947,75.9947,0,0,1-8.9091,7.1891,84.9837,84.9837,0,0,1-11.8227,6.1395l-5.7749,2.6249c-6.7121,3.051-13.4713,6.1185-20.6288,7.8878-8.1894,2.0243-15.6387,1.4886-23.8386.8113-15.4237-1.274-31.2759-2.6633-45.1314-9.5581-4.6228-2.3-9.1164-2.2973-13.616-4.8193a77.2722,77.2722,0,0,1-12.2309-8.4967,74.9631,74.9631,0,0,1-10.5822-11.0149,72.3517,72.3517,0,0,1-4.3846-6.2761C43.0239,273.54,40.65,268.31,40.1288,268.2646Z"/></g><circle class="cls-20" cx="77.3048" cy="173.987" r="11.9546"/><path class="cls-21" d="M79.8374,164.7757c.5106-.7841,1.0371-1.63,1.544-2.44a2.2514,2.2514,0,0,0,.4839-1.4222.7437.7437,0,0,0-.86-.6258.9156.9156,0,0,0-.6892,1.1227l-1.1869-.1471a1.9773,1.9773,0,0,1,1.698-2.1916,1.9014,1.9014,0,0,1,2.2443,1.5381,2.8624,2.8624,0,0,1-.595,1.9963c-.2231.3795-.4618.7691-.6933,1.1492l1.7537-.2569.1721,1.1746-3.8049.5572Z"/><path class="cls-21" d="M87.1763,162.028l-1.1331.1659.1684,1.15-.9349.1369-.1684-1.15-1.1078.1623-.1333-.91,1.1079-.1623-.1635-1.1162.9349-.1369.1635,1.1162,1.1331-.1659Z"/><circle class="cls-22" cx="140.3266" cy="287.9631" r="9.9527"/><path class="cls-23" d="M140.4719,290.6035l-1.4472-3.7637-1.24,4.2471-.1377.02-2.3593-3.66-.2383,3.95-1.1612.17.5147-7.168.1475-.0215,2.8447,4.5342,1.4267-5.16.1465-.0215,2.6455,6.705Z"/><path class="cls-23" d="M146.3362,286.8652l.4121,2.8184-1.1221.1641-.3906-2.6719c-.123-.8379-.6377-1.2217-1.2334-1.1348a1.046,1.046,0,0,0-.875,1.2246l.4219,2.8867-1.1221.1641-.7139-4.8769,1.1221-.1641.0859.5859a1.6738,1.6738,0,0,1,1.3028-.8984C145.1506,284.8271,146.1243,285.4219,146.3362,286.8652Z"/><path class="cls-24" d="M144.0794,280.567c.4209-.6466.8551-1.3443,1.273-2.0117a1.856,1.856,0,0,0,.399-1.1726.6131.6131,0,0,0-.709-.5161.755.755,0,0,0-.5683.9258l-.9787-.1213a1.63,1.63,0,0,1,1.4-1.8071,1.5676,1.5676,0,0,1,1.8505,1.2682,2.36,2.36,0,0,1-.4906,1.6461c-.1839.3128-.3807.6341-.5717.9475l1.4461-.2118.1418.9685-3.1373.4595Z"/><path class="cls-24" d="M150.1306,278.3013l-.9343.1368.1389.9482-.7709.1129-.1388-.9482-.9135.1338-.11-.75.9135-.1338-.1348-.92.7709-.1129.1348.92.9343-.1368Z"/><circle class="cls-25" cx="126.5912" cy="180.7527" r="8.9922"/><path class="cls-26" d="M130.8063,174.5646c.4966-.4892,1.0148-1.0209,1.5127-1.5291a1.6762,1.6762,0,0,0,.579-.9577.5539.5539,0,0,0-.5259-.5925.682.682,0,0,0-.6807.707l-.84-.2964a1.4733,1.4733,0,0,1,1.5853-1.324,1.4166,1.4166,0,0,1,1.3878,1.4774,2.1329,2.1329,0,0,1-.7515,1.3577c-.2228.2406-.4587.486-.6879.7256l1.3172.0929-.0622.8822-2.8577-.2015Z"/><path class="cls-26" d="M136.5851,173.7358l-.8511-.06-.0609.8637-.7021-.0495.0609-.8637-.8321-.0586.0482-.6832.8321.0587.0591-.8384.7021.0495-.0591.8384.851.06Z"/><path class="cls-27" d="M126.1252,177.4492l-2.8007,4.94,2.3339.164-.07.9942-3.8427-.2715.0088-.1231,2.8271-4.92-2.4316-.1719.0693-.9941,3.9131.2764Z"/><path class="cls-27" d="M130.6965,181.33l-.1806,2.5644-1.02-.0722.1718-2.4317c.0537-.7627-.3261-1.1992-.8671-1.2383a.9447.9447,0,0,0-1.01.91l-.1856,2.627-1.0195-.0723.3125-4.4365,1.0195.0713-.0371.5332a1.5094,1.5094,0,0,1,1.3223-.5411A1.7325,1.7325,0,0,1,130.6965,181.33Z"/><line class="cls-28" x1="150.909" y1="223.6603" x2="149.1227" y2="223.5336"/><path class="cls-29" d="M73.1047,171.7871l.36,2.0859,2.3027-.3984.3018,1.7461-2.3018.3975.5576,3.2246-1.8574.3213-1.5312-8.8516,5.1084-.8838.3105,1.7959Z"/><path class="cls-29" d="M83.3879,174.6191l-4.3378.75a1.5774,1.5774,0,0,0,1.7871.7715,4.66,4.66,0,0,0,1.91-.8515l.2959,1.6289a4.5225,4.5225,0,0,1-2.0615.8769,3.3116,3.3116,0,0,1-1.2686-6.5C81.7737,170.9385,83.2034,172.502,83.3879,174.6191Zm-4.5351-.3886,2.5674-.4434a1.3034,1.3034,0,0,0-1.416-.8105A1.3778,1.3778,0,0,0,78.8528,174.2305Z"/><circle class="cls-30" cx="142.0068" cy="224.9694" r="13.502"/><path class="cls-29" d="M139.3762,220.0742v9.1h-1.001l-4.7353-5.4033v5.2871h-1.8857v-9.0732h1.0009l4.7481,5.5449v-5.4551Z"/><path class="cls-29" d="M148.345,220.0742v8.9834h-1.8867v-3.58h-3.4268v3.58h-1.8857v-8.9834h1.8857v3.5811h3.4268v-3.5811Z"/><path class="cls-29" d="M152.5393,228.5449h-.3848v.5127h-1.1416v-.5127h-1.72v-.8086l1.36-2.81h1.5009v2.541h.3848Zm-1.5264-1.0781V226.35l-.4628,1.1172Z"/><path class="cls-31" d="M155.5089,216.1851h-2.0617v2.0923h-1.7009v-2.0923h-2.0157V214.53h2.0157v-2.031h1.7009v2.031h2.0617Z"/><circle class="cls-32" cx="111.7014" cy="143.0205" r="9.4755"/><path class="cls-33" d="M113.509,147.709l-3.0058-4.2871v4.2871h-2.0459v-9.7422h2.0459v4.5644l2.9638-4.5644h2.38l-3.3535,4.9687,3.4649,4.7735Z"/><path class="cls-34" d="M120.1928,135.9411H118.52v1.6553h-1.5847v-1.6553h-1.5978v-1.5533h1.5978v-1.642H118.52v1.642h1.673Z"/><circle class="cls-35" cx="204.3879" cy="207.1475" r="12.0359"/><path class="cls-36" d="M208.409,197.8317c.6172-.8561,1.2746-1.778,1.846-2.6076a1.9152,1.9152,0,0,0,.4671-1.2717.6471.6471,0,0,0-.7338-.5489.8424.8424,0,0,0-.6066,1.0635l-1.7638-.21a2.4352,2.4352,0,0,1,2.096-2.664,2.3219,2.3219,0,0,1,2.7538,1.8345,3.1481,3.1481,0,0,1-.7883,2.3933c-.1864.2857-.4045.6161-.5894.912l1.8125-.2655.251,1.7135-4.5948.6729Z"/><path class="cls-36" d="M217.1824,195.1742l-1.29.1889.1868,1.2759-1.2215.1789-.1869-1.2759-1.2317.18-.1753-1.1974,1.2317-.18-.1854-1.2657,1.2215-.1789.1854,1.2657,1.29-.1889Z"/><path class="cls-37" d="M118.5458,255.58h-1.1314V256.7h-1.0716V255.58h-1.0805v-1.05h1.0805v-1.11h1.0716v1.11h1.1314Z"/><circle class="cls-38" cx="103.9284" cy="265.8272" r="12.3063"/><path class="cls-29" d="M103.0725,269.1367l-.9228-4.3515-1.9981,4.4355h-.2842l-1.9629-4.3887-.84,4.3047h-1.82l1.8086-8.3838h.7451l2.2119,5.1319,2.2109-5.1319h.7569l1.8926,8.3838Z"/><path class="cls-29" d="M111.46,268.8184a2.7688,2.7688,0,0,1-3.0029,2.791,5.0878,5.0878,0,0,1-2.27-.5449l.0117-1.6075a3.7567,3.7567,0,0,0,1.9629.65,1.45,1.45,0,0,0,1.62-1.5732v-.1651a2.2464,2.2464,0,0,1-1.7861.8516,3.0733,3.0733,0,0,1,0-6.0908,2.2337,2.2337,0,0,1,1.7627.8271v-.7324h1.69Zm-1.7021-2.6495a1.353,1.353,0,0,0-1.3252-1.3955,1.3982,1.3982,0,0,0,0,2.7911A1.346,1.346,0,0,0,109.7581,266.1689Z"/><path class="cls-39" d="M109.2928,258.0823c.7848-.8091,1.6222-1.6816,2.3543-2.47a2.0457,2.0457,0,0,0,.6905-1.2715.6913.6913,0,0,0-.6905-.6936c-.5129,0-.8154.4833-.8056,1.03l-1.8315-.4943a2.6009,2.6009,0,0,1,2.6273-2.4908,2.48,2.48,0,0,1,2.6261,2.3647,3.3617,3.3617,0,0,1-1.2035,2.4072c-.2411.273-.5228.5884-.7639.8725h1.9564v1.8495h-4.96Z"/><path class="cls-40" d="M169.311,263.4711l-3.643-1.628,3.1228-1.8756c-.0229-.2107-.05-.4094-.07-.6256a3.6747,3.6747,0,1,0-7.3285.3953,44.67,44.67,0,0,0,4.656,16.15l.0211-.0114c.0636.12.1336.24.21.3565a3.6748,3.6748,0,1,0,6.0991-4.1008S170.4561,269.4377,169.311,263.4711Z"/><path class="cls-41" d="M59.5478,211.9377a3.1088,3.1088,0,0,1-.2812-3.8775,3.2743,3.2743,0,0,1,1.8834-1.4477,2.5292,2.5292,0,0,1,2.1.292,2.462,2.462,0,0,1,.3674.2907,3.1127,3.1127,0,0,1,.28,3.8792,3.2946,3.2946,0,0,1-1.8833,1.445,2.53,2.53,0,0,1-2.1-.2909A2.3915,2.3915,0,0,1,59.5478,211.9377Z"/><path class="cls-41" d="M61.3049,219.42a3.2206,3.2206,0,0,1-2.7615-2.8151,3.4076,3.4076,0,0,1,.4147-2.3683,2.4035,2.4035,0,0,1,1.7208-1.1677,2.2306,2.2306,0,0,1,.4588-.0161,3.2193,3.2193,0,0,1,2.7607,2.8125,3.4114,3.4114,0,0,1-.4143,2.3687,2.4013,2.4013,0,0,1-1.7216,1.1677A2.3179,2.3179,0,0,1,61.3049,219.42Z"/><path class="cls-41" d="M62.3939,226.2338a3.2166,3.2166,0,0,1-2.503-3.0441,3.388,3.388,0,0,1,.6288-2.3135,2.4143,2.4143,0,0,1,1.8262-1.0034,2.5791,2.5791,0,0,1,.4585.0248,3.222,3.222,0,0,1,2.5036,3.0461,3.3792,3.3792,0,0,1-.6291,2.3122,2.4018,2.4018,0,0,1-1.8262,1.0026A2.213,2.213,0,0,1,62.3939,226.2338Z"/><path class="cls-41" d="M59.58,232.5128a3.17,3.17,0,0,1-1.2-3.7306,3.2848,3.2848,0,0,1,1.464-1.87,2.4835,2.4835,0,0,1,2.09-.2223,2.5711,2.5711,0,0,1,.4243.1969,3.1766,3.1766,0,0,1,1.2,3.7314,3.3017,3.3017,0,0,1-1.464,1.87,2.4794,2.4794,0,0,1-2.0919.2211A2.4223,2.4223,0,0,1,59.58,232.5128Z"/><path class="cls-41" d="M64.0211,202.8329l2.5193-.5568a2.7208,2.7208,0,0,0-1.1433-1.8753,2.1562,2.1562,0,0,0-.2959-.1643,2.4113,2.4113,0,0,0-2.0729.0507,3.4117,3.4117,0,0,0-1.6421,1.7625,3.1674,3.1674,0,0,0,.8809,3.9076,2.1648,2.1648,0,0,0,.2957.1635,2.4093,2.4093,0,0,0,2.0713-.05,3.2763,3.2763,0,0,0,1.2752-1.1123Z"/><path class="cls-29" d="M196.8713,207.66a4.5034,4.5034,0,0,1,3.7852-5.3692,4.6828,4.6828,0,0,1,2.085.082l.3652,2.0332a3.1092,3.1092,0,0,0-2.082-.291,2.785,2.785,0,0,0,.9492,5.4883,3.0346,3.0346,0,0,0,1.8633-.9736l.3418,2.05a4.85,4.85,0,0,1-1.9385.7656A4.5031,4.5031,0,0,1,196.8713,207.66Z"/><path class="cls-29" d="M210.3879,203.3682l1.0938,6.3232-1.82.3145-.14-.8106a2.4,2.4,0,0,1-1.7422,1.2266c-1.7324.3008-3.0947-.9492-3.4091-2.77a3.0007,3.0007,0,0,1,2.2832-3.7421,2.3924,2.3924,0,0,1,2.0517.57l-.1377-.7969ZM209.1,206.834a1.4688,1.4688,0,0,0-1.6748-1.2471,1.5172,1.5172,0,0,0,.5166,2.9844A1.4612,1.4612,0,0,0,209.1,206.834Z"/><path class="cls-42" d="M184.21,180.1169l-7.3907,8.6246a2.9609,2.9609,0,1,0,4.4267,3.8173l7.3892-8.6257a2.96,2.96,0,1,0-4.4252-3.8162Z"/><path class="cls-43" d="M166.0636,206.9991s1.8132,1.563,5.2989-2.5149a4.0694,4.0694,0,0,0,.7239-4.0748,5.2737,5.2737,0,0,1,1.3289-5.405c3.0892-3.4007,4.5085-2.3306,4.5085-2.3306"/><path class="cls-43" d="M167.1363,204.6446a4.0334,4.0334,0,0,1,4.2408-2.258s2.5921,1.0174,5.6461-3.3791c2.837-4.0814,1.9315-6.1639,1.9315-6.1639"/><path class="cls-43" d="M176.9226,191.97a7.2042,7.2042,0,0,1-1.8129,4.5861s-2.0348,2.2263-3.9243,1.3861c-1.9327-.86-3.0769,1.0307-3.6716,1.6643a7.9842,7.9842,0,0,0-1.6065,3.85"/><path class="cls-43" d="M178.6822,191.6107c-3.494-1.25-5.23.356-5.23.356a3.9506,3.9506,0,0,0-.8394,4.8746c1.4772,3.1392-.5922,3.847-1.2387,4.3834a5.58,5.58,0,0,1-4.3733.4183"/><polygon class="cls-44" points="141.511 144.736 146.062 150.375 153.441 149.164 156.265 142.318 151.711 136.681 144.334 137.89 141.511 144.736"/><line class="cls-44" x1="153.4408" y1="149.1643" x2="156.6515" y2="153.1413"/><line class="cls-44" x1="143.9852" y1="155.171" x2="146.0622" y2="150.3749"/><line class="cls-44" x1="141.5107" y1="144.7365" x2="136.3013" y2="145.5449"/><line class="cls-44" x1="156.2648" y1="142.3182" x2="161.4732" y2="141.5095"/><line class="cls-44" x1="141.1238" y1="133.9134" x2="144.3339" y2="137.8899"/><polygon class="cls-44" points="157.555 165.97 165.035 165.284 168.18 158.461 163.846 152.328 156.365 153.016 153.22 159.837 157.555 165.97"/><line class="cls-44" x1="168.1803" y1="158.461" x2="173.4568" y2="157.977"/><line class="cls-44" x1="168.0156" y1="169.6627" x2="165.0351" y2="165.284"/><line class="cls-44" x1="157.5548" y1="165.9697" x2="155.2941" y2="170.7612"/><line class="cls-44" x1="163.8459" y1="152.3281" x2="166.1058" y2="147.5371"/><line class="cls-44" x1="147.9439" y1="160.3209" x2="153.2195" y2="159.8372"/><polygon class="cls-44" points="184.202 165.041 188.21 158.687 184.709 152.04 177.205 151.748 173.199 158.103 176.698 164.749 184.202 165.041"/><line class="cls-44" x1="184.7091" y1="152.0396" x2="187.5356" y2="147.5579"/><line class="cls-44" x1="151.7275" y1="136.48" x2="154.1526" y2="131.769"/><line class="cls-44" x1="193.4981" y1="158.9864" x2="188.2097" y2="158.6872"/><line class="cls-44" x1="184.2023" y1="165.0406" x2="186.6291" y2="169.7502"/><line class="cls-44" x1="177.2047" y1="151.7475" x2="174.7779" y2="147.0389"/><line class="cls-44" x1="173.8715" y1="169.2303" x2="176.6977" y2="164.7494"/><polygon class="cls-44" points="79.991 243.276 86.453 239.996 86.802 232.527 80.692 228.342 74.231 231.624 73.881 239.092 79.991 243.276"/><line class="cls-44" x1="86.8018" y1="232.5268" x2="91.3592" y2="230.2126"/><line class="cls-44" x1="90.7124" y1="243.0242" x2="86.4526" y2="239.9959"/><line class="cls-44" x1="79.9915" y1="243.2763" x2="79.6997" y2="248.54"/><line class="cls-44" x1="80.6919" y1="228.3418" x2="80.9833" y2="223.079"/><line class="cls-44" x1="69.3243" y1="241.4056" x2="73.881" y2="239.092"/><polygon class="cls-44" points="104.095 231.995 104.979 224.535 98.959 220.041 92.059 223.006 91.177 230.467 97.196 234.961 104.095 231.995"/><line class="cls-44" x1="98.9586" y1="220.041" x2="99.5816" y2="214.7791"/><line class="cls-44" x1="109.8815" y1="222.5299" x2="104.9789" y2="224.5354"/><line class="cls-44" x1="104.0952" y1="231.9949" x2="108.3124" y2="235.202"/><line class="cls-44" x1="92.0587" y1="223.0063" x2="87.842" y2="219.8001"/><line class="cls-44" x1="96.5725" y1="240.2221" x2="97.1957" y2="234.9612"/><polygon class="cls-44" points="108.724 205.736 103.342 200.496 96.112 202.539 94.267 209.818 99.651 215.058 106.88 213.016 108.724 205.736"/><line class="cls-44" x1="96.1122" y1="202.5386" x2="92.3156" y2="198.8425"/><line class="cls-44" x1="104.7337" y1="195.3851" x2="103.3421" y2="200.4959"/><line class="cls-44" x1="108.724" y1="205.7361" x2="113.8351" y2="204.341"/><line class="cls-44" x1="94.2669" y1="209.8185" x2="89.1568" y2="211.2138"/><line class="cls-44" x1="110.6754" y1="216.712" x2="106.8796" y2="213.0163"/><polygon class="cls-44" points="178.841 252.851 186.034 251.971 188.909 245.069 184.593 239.051 177.4 239.933 174.524 246.834 178.841 252.851"/><line class="cls-44" x1="188.9094" y1="245.0688" x2="193.9828" y2="244.4477"/><line class="cls-44" x1="189.0053" y1="256.2705" x2="186.0337" y2="251.971"/><line class="cls-44" x1="178.8412" y1="252.8511" x2="176.7717" y2="257.6996"/><line class="cls-44" x1="184.5932" y1="239.0509" x2="186.662" y2="234.203"/><line class="cls-44" x1="169.4516" y1="247.4544" x2="174.5242" y2="246.8336"/><polygon class="cls-44" points="205.466 250.526 208.841 243.815 204.714 237.537 197.217 237.971 193.844 244.683 197.969 250.961 205.466 250.526"/><line class="cls-44" x1="204.7143" y1="237.5367" x2="207.0946" y2="232.8028"/><line class="cls-44" x1="214.1335" y1="243.6017" x2="208.8409" y2="243.8149"/><line class="cls-44" x1="205.4661" y1="250.5258" x2="208.3366" y2="254.9789"/><line class="cls-44" x1="197.2168" y1="237.971" x2="194.3464" y2="233.5189"/><line class="cls-44" x1="195.5884" y1="255.6941" x2="197.9685" y2="250.9611"/><line class="cls-44" x1="177.606" y1="239.9575" x2="174.8908" y2="235.4075"/><circle class="cls-45" cx="359.5168" cy="128.3047" r="2.75"/></g></g></svg>