<svg xmlns="http://www.w3.org/2000/svg" viewBox="0 0 586 403.0712"><defs><style>.cls-1{font-size:40px;fill:#fecf08;font-family:Acre-Light, Acre;font-weight:300;}.cls-2{letter-spacing:-0.015em;}.cls-3{letter-spacing:-0.02em;}.cls-4{letter-spacing:0.007em;}.cls-5{font-size:19.9419px;fill:#5c5052;font-family:Acre-Thin, Acre;font-weight:200;}.cls-6{letter-spacing:-0.02em;}.cls-7{letter-spacing:-0.01em;}.cls-8{letter-spacing:-0.02em;}.cls-17,.cls-25,.cls-27,.cls-29,.cls-9{fill:#6d54a3;}.cls-17,.cls-34,.cls-9{stroke:#ec6a7c;}.cls-11,.cls-12,.cls-14,.cls-15,.cls-16,.cls-17,.cls-18,.cls-19,.cls-20,.cls-21,.cls-22,.cls-23,.cls-24,.cls-25,.cls-26,.cls-27,.cls-28,.cls-29,.cls-30,.cls-31,.cls-32,.cls-33,.cls-34,.cls-35,.cls-9{stroke-miterlimit:10;}.cls-9{stroke-width:0.7435px;}.cls-10{font-size:10.931px;font-family:Acre-Bold, Acre;font-weight:700;}.cls-10,.cls-13,.cls-18,.cls-22,.cls-34{fill:#fff;}.cls-11,.cls-19,.cls-33{fill:#ec6a7c;}.cls-11,.cls-14,.cls-16,.cls-18,.cls-19,.cls-21,.cls-22,.cls-25,.cls-29,.cls-31,.cls-32,.cls-35{stroke:#fff;}.cls-11{stroke-width:0.1605px;}.cls-12,.cls-20{fill:#6b6264;}.cls-12,.cls-20,.cls-30{stroke:#2e61a2;}.cls-12{stroke-width:0.5263px;}.cls-14,.cls-31{fill:#2e6296;}.cls-14{stroke-width:0.1754px;}.cls-15{fill:#f37243;stroke-width:0.657px;}.cls-15,.cls-33{stroke:#ffcf01;}.cls-16,.cls-30,.cls-35{fill:#ffcf01;}.cls-16{stroke-width:0.219px;}.cls-17{stroke-width:0.4379px;}.cls-18{stroke-width:0.2135px;}.cls-19{stroke-width:0.1198px;}.cls-20{stroke-width:0.3401px;}.cls-21{fill:#2e61a2;stroke-width:0.1083px;}.cls-22{stroke-width:0.193px;}.cls-23{fill:none;stroke:#5e5252;stroke-width:0.6036px;}.cls-24,.cls-28{fill:#39944c;}.cls-24,.cls-26,.cls-28{stroke:#6d54a3;}.cls-24{stroke-width:0.6153px;}.cls-25{stroke-width:0.2367px;}.cls-26{fill:#408c80;stroke-width:1.114px;}.cls-27{stroke:#ededee;stroke-width:0.3582px;}.cls-28{stroke-width:0.6068px;}.cls-29{stroke-width:0.2361px;}.cls-30{stroke-width:1.6214px;}.cls-31{stroke-width:0.3931px;}.cls-32{fill:#2e61a1;stroke-width:0.2262px;}.cls-33{stroke-width:0.4264px;}.cls-34,.cls-35{stroke-width:0.1066px;}</style></defs><g id="Layer_2" data-name="Layer 2"><g id="Layer_9" data-name="Layer 9"><text class="cls-1" transform="translate(85.6043 33.999)">nutrient co<tspan class="cls-2" x="194.3584" y="0">n</tspan><tspan x="216.5586" y="0">cent</tspan><tspan class="cls-3" x="294.1582" y="0">r</tspan><tspan x="305.5176" y="0">atio</tspan><tspan class="cls-4" x="375.3965" y="0">n</tspan><tspan x="398.4756" y="0">s</tspan></text><text class="cls-5" transform="translate(157.5272 72.4517)">dr<tspan class="cls-6" x="18.0869" y="0">y</tspan><tspan x="27.2002" y="0"> </tspan><tspan class="cls-7" x="34.1797" y="0">w</tspan><tspan x="49.375" y="0">eight </tspan><tspan class="cls-7" x="101.2021" y="0">o</tspan><tspan x="113.0879" y="0">f soil / unit </tspan><tspan class="cls-7" x="213.3135" y="0">v</tspan><tspan x="222.9648" y="0">olu</tspan><tspan class="cls-8" x="250.7041" y="0">m</tspan><tspan x="267.5547" y="0">e</tspan><tspan x="-113.1182" y="242.2939">in ge</tspan><tspan class="cls-6" x="-66.4756" y="242.2939">n</tspan><tspan x="-55.5273" y="242.2939">e</tspan><tspan class="cls-6" x="-44.2207" y="242.2939">r</tspan><tspan x="-38.8359" y="242.2939">al, t</tspan><tspan class="cls-8" x="-7.0498" y="242.2939">h</tspan><tspan x="3.8975" y="242.2939">e l</tspan><tspan class="cls-7" x="26.4912" y="242.2939">ow</tspan><tspan x="53.5723" y="242.2939">er t</tspan><tspan class="cls-6" x="82.8262" y="242.2939">h</tspan><tspan x="93.7744" y="242.2939">e numbe</tspan><tspan class="cls-6" x="175.6143" y="242.2939">r</tspan><tspan x="180.999" y="242.2939">, t</tspan><tspan class="cls-6" x="196.1738" y="242.2939">h</tspan><tspan x="207.1221" y="242.2939">e </tspan><tspan class="cls-6" x="225.4082" y="242.2939">m</tspan><tspan x="242.2598" y="242.2939">o</tspan><tspan class="cls-8" x="254.3447" y="242.2939">r</tspan><tspan x="259.7285" y="242.2939">e space </tspan><tspan class="cls-6" x="339.5537" y="242.2939">f</tspan><tspan x="344.3398" y="242.2939">or air </tspan><tspan x="-120.0186" y="269.2158">a</tspan><tspan class="cls-6" x="-107.7148" y="269.2158">n</tspan><tspan x="-96.7666" y="269.2158">d </tspan><tspan class="cls-7" x="-77.4834" y="269.2158">w</tspan><tspan x="-62.2881" y="269.2158">a</tspan><tspan class="cls-6" x="-49.9844" y="269.2158">t</tspan><tspan x="-45.1982" y="269.2158">er </tspan><tspan class="cls-8" x="-21.1289" y="269.2158">t</tspan><tspan x="-16.3438" y="269.2158">o fl</tspan><tspan class="cls-7" x="12.2129" y="269.2158">o</tspan><tspan x="24.0986" y="269.2158">w; while t</tspan><tspan class="cls-6" x="108.709" y="269.2158">h</tspan><tspan x="119.6572" y="269.2158">e g</tspan><tspan class="cls-6" x="150.2471" y="269.2158">r</tspan><tspan x="155.6318" y="269.2158">ea</tspan><tspan class="cls-6" x="179.2422" y="269.2158">t</tspan><tspan x="184.0283" y="269.2158">er t</tspan><tspan class="cls-6" x="213.2822" y="269.2158">h</tspan><tspan x="224.2305" y="269.2158">e number t</tspan><tspan class="cls-8" x="324.0176" y="269.2158">h</tspan><tspan x="334.9648" y="269.2158">e </tspan><tspan class="cls-6" x="353.251" y="269.2158">m</tspan><tspan x="370.1025" y="269.2158">o</tspan><tspan class="cls-6" x="382.1875" y="269.2158">r</tspan><tspan x="387.5723" y="269.2158">e </tspan><tspan x="52.2969" y="296.1372">compac</tspan><tspan class="cls-6" x="127.7959" y="296.1372">t</tspan><tspan x="132.582" y="296.1372">ed t</tspan><tspan class="cls-6" x="168.3564" y="296.1372">h</tspan><tspan x="179.3047" y="296.1372">e soil</tspan></text><circle class="cls-9" cx="317.408" cy="161.9899" r="7.4395"/><text class="cls-10" transform="translate(314.1497 165.6982)">K</text><path class="cls-11" d="M324.0749,156.4316h-1.3135v1.3h-1.2442v-1.3h-1.2546v-1.22h1.2546v-1.2891h1.2442v1.2891h1.3135Z"/><circle class="cls-12" cx="302.5229" cy="121.9647" r="7.8997"/><path class="cls-13" d="M301.9505,124.6l-.6562-3.1-1.4239,3.1582h-.2031l-1.3984-3.125-.5977,3.0664h-1.2969l1.2891-5.9726h.5313l1.5742,3.6562,1.5761-3.6562h.5391l1.3477,5.9726Z"/><path class="cls-13" d="M307.9212,124.3711a1.9723,1.9723,0,0,1-2.1387,1.9883,3.6449,3.6449,0,0,1-1.6171-.3867l.0078-1.1465a2.68,2.68,0,0,0,1.3984.4638,1.0324,1.0324,0,0,0,1.1543-1.12v-.1181a1.5986,1.5986,0,0,1-1.2715.6064,2.1885,2.1885,0,0,1,0-4.3379,1.5874,1.5874,0,0,1,1.2539.59v-.5225h1.2051Zm-1.2129-1.8867a.963.963,0,0,0-.9433-.9932.9955.9955,0,0,0,0,1.9873A.9579.9579,0,0,0,306.7083,122.4844Z"/><path class="cls-14" d="M305.9664,116.9931c.5038-.5194,1.0413-1.0795,1.5113-1.5855a1.3127,1.3127,0,0,0,.4432-.8162.4436.4436,0,0,0-.4432-.4452c-.3293,0-.5235.31-.5171.6611l-1.1757-.3173a1.67,1.67,0,0,1,1.6865-1.5989,1.5918,1.5918,0,0,1,1.6857,1.518,2.1581,2.1581,0,0,1-.7725,1.5452c-.1548.1752-.3356.3777-.49.56H309.15v1.1873h-3.1837Z"/><path class="cls-14" d="M312.1818,116.062h-.8936v.8841h-.8464v-.8841h-.8534v-.83h.8534v-.877h.8464v.877h.8936Z"/><circle class="cls-15" cx="268.9395" cy="151.1757" r="8.9404"/><path class="cls-13" d="M262.8411,151.4727a3.6891,3.6891,0,0,1,3.3-4.252,3.831,3.831,0,0,1,1.7032.1445l.2226,1.6778a2.5513,2.5513,0,0,0-1.6933-.3164,2.2817,2.2817,0,0,0,.5713,4.5273,2.4833,2.4833,0,0,0,1.5615-.7266l.2031,1.6915a4.013,4.013,0,0,1-1.6152.5527A3.69,3.69,0,0,1,262.8411,151.4727Z"/><path class="cls-13" d="M274.0648,148.4668l.6572,5.2148-1.502.19-.0839-.667a1.9664,1.9664,0,0,1-1.4707.9385,2.7326,2.7326,0,0,1-.6778-5.3731,1.9646,1.9646,0,0,1,1.6572.544l-.082-.6573Zm-1.1856,2.7891a1.2006,1.2006,0,0,0-1.3232-1.084,1.2425,1.2425,0,0,0,.31,2.4609A1.1954,1.1954,0,0,0,272.8792,151.2559Z"/><path class="cls-16" d="M272.0635,144.3167c.4711-.6267.9729-1.3017,1.41-1.9093a1.4228,1.4228,0,0,0,.3657-.9376.4806.4806,0,0,0-.5368-.4184.6256.6256,0,0,0-.4662.7808l-1.3069-.1816a1.809,1.809,0,0,1,1.596-1.9476,1.7248,1.7248,0,0,1,2.018,1.4031,2.3376,2.3376,0,0,1-.6208,1.7658c-.1426.2094-.31.4516-.4512.6686l1.35-.17.161,1.2763-3.4223.4318Z"/><path class="cls-16" d="M278.6184,142.4727l-.9605.1212.12.95-.91.1148-.12-.95-.9174.1158-.1126-.8919.9174-.1157-.1189-.9428.91-.1148.119.9428.9605-.1212Z"/><circle class="cls-17" cx="266.7945" cy="245.4999" r="8.6275"/><path class="cls-18" d="M266.6234,247.8145l-.7686-3.41-1.5976,3.4863h-.12l-1.5634-3.4336-.7,3.3575h-1.0176l1.3418-6.084h.1279l1.8721,4.2461,1.8711-4.2461h.1279l1.4268,6.084Z"/><path class="cls-18" d="M272.1224,245.3457v2.4688H271.14v-2.3418c0-.7344-.3936-1.127-.9151-1.127a.9065.9065,0,0,0-.9052.94v2.5293h-.9825V243.542h.9825v.5127a1.45,1.45,0,0,1,1.23-.6074C271.3616,243.4473,272.1224,244.08,272.1224,245.3457Z"/><path class="cls-19" d="M270.3743,239.5445c.4422-.5017.9023-1.0456,1.3445-1.5655a1.6089,1.6089,0,0,0,.49-.9557.5315.5315,0,0,0-.5434-.5316.6544.6544,0,0,0-.6037.7226l-.8242-.227a1.4135,1.4135,0,0,1,1.4279-1.3741,1.359,1.359,0,0,1,1.4279,1.32,2.0464,2.0464,0,0,1-.6276,1.35c-.197.2452-.4062.496-.6093.7408h1.2669v.8485h-2.7486Z"/><path class="cls-19" d="M275.849,238.3613H275.03v.8308h-.6753v-.8308h-.8v-.657h.8v-.8064h.6753v.8064h.8186Z"/><circle class="cls-20" cx="295.3491" cy="195.9719" r="7.8013"/><path class="cls-21" d="M298.5861,190.5867c.4-.4536.8159-.9454,1.2158-1.4155a1.4546,1.4546,0,0,0,.4427-.8642.4805.4805,0,0,0-.4913-.4807.5917.5917,0,0,0-.5459.6534l-.7453-.2053a1.2781,1.2781,0,0,1,1.2912-1.2425,1.2289,1.2289,0,0,1,1.2911,1.1939,1.85,1.85,0,0,1-.5675,1.2209c-.1781.2217-.3673.4485-.551.67h1.1456v.7672h-2.4854Z"/><path class="cls-21" d="M303.5366,189.5169h-.74v.7512h-.6106v-.7512h-.7237v-.5941h.7237v-.7292h.6106v.7292h.74Z"/><path class="cls-22" d="M294.7777,193.1562l-2.1231,4.4473h2.0313v.8653h-3.3438v-.1075l2.1465-4.4326h-2.1152v-.8642h3.4043Z"/><path class="cls-22" d="M298.971,196.2373v2.2315h-.8877v-2.1153c0-.664-.3554-1.0195-.8261-1.0195a.819.819,0,0,0-.8184.85v2.2852h-.8877v-3.86h.8877v.4639a1.3078,1.3078,0,0,1,1.1113-.5489C298.2835,194.5234,298.971,195.0947,298.971,196.2373Z"/><line class="cls-23" x1="366.5747" y1="139.2289" x2="365.4809" y2="138.559"/><circle class="cls-24" cx="359.0431" cy="135.4484" r="9.6707"/><path class="cls-13" d="M358.3079,131.543l-1.9716,6.207-.6827-.2168-2.0595-4.7129-1.1455,3.6074-1.2872-.4082,1.9659-6.1894.6836.2168,2.0371,4.8105,1.1816-3.7207Z"/><path class="cls-13" d="M364.43,133.4863l-1.9463,6.1289-1.2871-.4082.7764-2.4433-2.3379-.7422-.7754,2.4433-1.2871-.41,1.9463-6.127,1.2871.4082-.7754,2.4424,2.3369.7432.7754-2.4434Z"/><path class="cls-13" d="M365.4613,140.1758l-.2627-.084-.1114.35-.78-.2461.1113-.3515-1.1729-.3711.1748-.5528,1.5381-1.623,1.0244.3261-.5507,1.7334.2627.0831Zm-.81-1.0664.2422-.7617-.5567.6611Z"/><path class="cls-25" d="M370.297,133.2671l-1.5416-.49-.4969,1.5645-1.2719-.404.497-1.5645-1.5072-.4787.393-1.2375,1.5072.4787.4824-1.5186,1.2719.404-.4824,1.5186,1.5416.49Z"/><circle class="cls-26" cx="354.523" cy="204.3899" r="15.9793"/><path class="cls-27" d="M369.673,195.4675a2.6455,2.6455,0,0,1-3.4483,1.6063,2.8568,2.8568,0,0,1-2.0833-2.8014l1.9106-.3417a1.22,1.22,0,0,0,.7561,1.2088.8044.8044,0,0,0,1.0464-.5072.7872.7872,0,0,0-.5483-.9906,1.258,1.258,0,0,0-.75-.0121l-.3889-1.1594,2.0281-.9539-2.4046-.782.6075-1.8683,4.4406,1.444-.5633,1.7322-1.4815.737A2.4174,2.4174,0,0,1,369.673,195.4675Z"/><path class="cls-27" d="M370.8394,194.0593l3.4013,1.106-.5018,1.543-3.4012-1.106Z"/><circle class="cls-28" cx="318.7482" cy="239.5578" r="9.4189"/><path class="cls-13" d="M316.4036,237.4023l1.545,5.5782-.6133.17-3.8213-2.5078.8984,3.2412-1.1562.32-1.541-5.5625.6132-.17,3.8526,2.5928-.9258-3.3438Z"/><path class="cls-13" d="M318.09,239.9a2.9553,2.9553,0,1,1,3.64,2.0674A2.8847,2.8847,0,0,1,318.09,239.9Zm4.5087-1.2481a1.7237,1.7237,0,1,0-1.1875,2.1661A1.7172,1.7172,0,0,0,322.5989,238.6523Z"/><path class="cls-13" d="M326.681,239.6221a.9015.9015,0,0,1-.7012,1.1084.9636.9636,0,0,1-1.1113-.4024l.5928-.4609a.2942.2942,0,0,0,.3183.1406.2117.2117,0,0,0,.1582-.2558.2082.2082,0,0,0-.2695-.1456.2975.2975,0,0,0-.1231.0762l-.5009-.251.3359-.5586-.7236.2-.1944-.7,1.5967-.4423.1748.6289-.2861.4355A.8473.8473,0,0,1,326.681,239.6221Z"/><path class="cls-29" d="M321.75,232.0452l5.4043-1.4967.6152,2.2216-5.4042,1.4967Z"/><circle class="cls-30" cx="237.2247" cy="198.68" r="17.9837"/><path class="cls-13" d="M225.7073,204.16l1.23-1.9414a3.5767,3.5767,0,0,0,2.5948,1.0253c.7939-.09,1.2187-.6035,1.1523-1.1914-.2187-1.9394-4.9941-.9-5.3721-4.5273a3.2808,3.2808,0,0,1,3.209-3.5,5.0552,5.0552,0,0,1,3.6846,1.1279l-1.1357,1.9151a3.375,3.375,0,0,0-2.1944-.7657c-.7148.08-1.1308.5293-1.0683,1.086.1972,1.748,4.9941.9,5.3681,4.4941.1875,1.7988-1.0332,3.3848-3.3691,3.6484A5.1986,5.1986,0,0,1,225.7073,204.16Z"/><path class="cls-13" d="M234.1282,199.2168a5.7887,5.7887,0,1,1,6.4034,5.1172A5.65,5.65,0,0,1,234.1282,199.2168Zm9.1045-1.0293a3.3756,3.3756,0,1,0-2.9638,3.8262A3.361,3.361,0,0,0,243.2327,198.1875Z"/><path class="cls-13" d="M251.0482,202.293l-.4766.0527.0723.6367-1.4141.16-.0723-.6367-2.13.2412-.1123-1.001,1.29-3.67,1.8594-.211.3554,3.1465.4766-.0547Zm-2.042-1.1211-.1563-1.3828-.416,1.4472Z"/><path class="cls-31" d="M246.2836,186.751c.9844-1.2884,2.0333-2.676,2.9461-3.9257a2.9426,2.9426,0,0,0,.7716-1.9329.9943.9943,0,0,0-1.1034-.8742,1.294,1.294,0,0,0-.9769,1.6072l-2.7-.3968a3.7411,3.7411,0,0,1,3.3323-4.0017,3.567,3.567,0,0,1,4.1506,2.9346,4.8353,4.8353,0,0,1-1.3126,3.6417c-.2984.4307-.6475.9289-.944,1.3753l2.7947-.33.3123,2.642-7.0846.8374Z"/><path class="cls-32" d="M254.0479,180.9922l5.3357-.6307.2593,2.1935-5.3358.6307Z"/><path class="cls-13" d="M351.48,201.5664a3.25,3.25,0,0,1-4.206,2.4111l-.9717-.2431-.7949,3.164-2.0411-.5117,2.4405-9.7168,2.999.752A3.3711,3.3711,0,0,1,351.48,201.5664Zm-2.0957-.5273a1.3713,1.3713,0,0,0-1.0713-1.67l-.86-.2168-.6592,2.6241.86.2158A1.329,1.329,0,0,0,349.3841,201.0391Z"/><path class="cls-13" d="M351.9573,203.3535a5.181,5.181,0,1,1,3.76,6.3008A5.056,5.056,0,0,1,351.9573,203.3535Zm7.9541,1.9971a3.0213,3.0213,0,1,0-3.6855,2.2764A3.0075,3.0075,0,0,0,359.9114,205.3506Z"/><path class="cls-13" d="M365.1683,211.2461l-.4151-.1055-.14.5557-1.2363-.31.14-.5566-1.86-.4668.22-.875,2.2353-2.67,1.625.4082-.69,2.748.4151.1055Zm-1.3584-1.582.3027-1.2071-.8017,1.0821Z"/><circle class="cls-33" cx="213.9857" cy="148.4786" r="7.6027"/><path class="cls-34" d="M211.0934,146.25l.0823,1.503,1.6577-.0908.0689,1.257-1.6578.0908.1272,2.3226-1.3388.0733-.3492-6.3757,3.68-.2015.0708,1.2931Z"/><path class="cls-34" d="M218.12,149.0994l-3.1242.1711a1.1205,1.1205,0,0,0,1.1981.6925,3.3044,3.3044,0,0,0,1.4191-.443l.0735,1.1745a3.2152,3.2152,0,0,1-1.5284.449,2.3541,2.3541,0,0,1-.3576-4.6941C217.2849,146.3681,218.165,147.59,218.12,149.0994Zm-3.1691-.6484,1.849-.1013a.926.926,0,0,0-.9331-.6891A.9783.9783,0,0,0,214.9505,148.451Z"/><path class="cls-35" d="M215.2814,142.7143c.3686-.4673.7508-.9728,1.1184-1.4563a1.4319,1.4319,0,0,0,.3885-.8728.473.473,0,0,0-.5086-.4459.5822.5822,0,0,0-.5012.6713l-.7433-.1615a1.2576,1.2576,0,0,1,1.2017-1.29,1.2092,1.2092,0,0,1,1.3328,1.1035,1.8205,1.8205,0,0,1-.4919,1.23c-.1631.2274-.3367.46-.5053.6878l1.1256-.0616.0413.7538-2.442.1337Z"/><path class="cls-35" d="M220.0878,141.3968l-.7272.04.04.738-.6.0329-.04-.738-.711.0389-.032-.5838.711-.0389-.0392-.7164.6-.0329.0392.7164.7272-.04Z"/></g></g></svg>