<svg xmlns="http://www.w3.org/2000/svg" viewBox="0 0 586 403.0721"><defs><style>.cls-1,.cls-5{fill:#5c5052;}.cls-2{font-size:40px;fill:#fecf08;font-family:Acre-Light, Acre;font-weight:300;}.cls-3{letter-spacing:-0.003em;}.cls-4{letter-spacing:-0.025em;}.cls-5{font-size:19.9419px;font-family:Acre-Thin, Acre;font-weight:200;}.cls-6{letter-spacing:-0.02em;}.cls-7{letter-spacing:-0.02em;}.cls-8{letter-spacing:-0.01em;}.cls-9{letter-spacing:-0.07em;}.cls-10{letter-spacing:-0.03em;}.cls-11,.cls-14,.cls-15{fill:#2b63a3;}.cls-12,.cls-13,.cls-16{fill:#fff;}.cls-13{font-size:20px;font-family:Acre-Bold, Acre;font-weight:700;}.cls-14,.cls-15{stroke:#fff;}.cls-14,.cls-15,.cls-16{stroke-miterlimit:10;}.cls-14{stroke-width:0.5293px;}.cls-15{stroke-width:0.4266px;}.cls-16{stroke:#5c5052;stroke-width:0.1045px;}</style></defs><g id="Layer_2" data-name="Layer 2"><g id="Layer_9" data-name="Layer 9"><path class="cls-1" d="M76.495,122.2378c23.7119-4.5194,47.8653-3.9644,72.3357-3.0258,134.7233,5.1676,259.8788-11.0341,393.41,3.0258V278.7915H76.495Z"/><text class="cls-2" transform="translate(231.6805 33.9998)"><tspan class="cls-3">s</tspan><tspan x="16.2002" y="0">alinit</tspan><tspan class="cls-4" x="103.8799" y="0">y</tspan></text><text class="cls-5" transform="translate(135.8914 72.4524)"><tspan class="cls-6">m</tspan><tspan x="16.8516" y="0">easu</tspan><tspan class="cls-6" x="59.6855" y="0">r</tspan><tspan x="65.0703" y="0">es t</tspan><tspan class="cls-7" x="96.418" y="0">h</tspan><tspan x="107.3652" y="0">e a</tspan><tspan class="cls-6" x="137.9551" y="0">m</tspan><tspan x="154.8066" y="0">ount </tspan><tspan class="cls-8" x="201.749" y="0">o</tspan><tspan x="213.6348" y="0">f sal</tspan><tspan class="cls-8" x="250.2871" y="0">t</tspan><tspan x="255.2725" y="0">s in soil</tspan><tspan x="-87.3232" y="242.2939">i</tspan><tspan class="cls-6" x="-82.6172" y="242.2939">n</tspan><tspan x="-71.6689" y="242.2939">dica</tspan><tspan class="cls-6" x="-31.5674" y="242.2939">t</tspan><tspan x="-26.7813" y="242.2939">es t</tspan><tspan class="cls-7" x="4.5664" y="242.2939">h</tspan><tspan x="15.5137" y="242.2939">e electrical co</tspan><tspan class="cls-6" x="144.4346" y="242.2939">n</tspan><tspan x="155.3828" y="242.2939">ductivit</tspan><tspan class="cls-9" x="219.4531" y="242.2939">y</tspan><tspan x="227.5693" y="242.2939">, or t</tspan><tspan class="cls-6" x="267.5918" y="242.2939">h</tspan><tspan x="278.54" y="242.2939">e abilit</tspan><tspan class="cls-6" x="340.3379" y="242.2939">y</tspan><tspan x="349.4512" y="242.2939"> </tspan><tspan class="cls-8" x="356.4307" y="242.2939">o</tspan><tspan x="368.3164" y="242.2939">f soil </tspan><tspan class="cls-8" x="-99.2998" y="269.2158">w</tspan><tspan x="-84.1045" y="269.2158">a</tspan><tspan class="cls-6" x="-71.8008" y="269.2158">t</tspan><tspan x="-67.0146" y="269.2158">er </tspan><tspan class="cls-6" x="-42.9453" y="269.2158">t</tspan><tspan x="-38.1592" y="269.2158">o carr</tspan><tspan class="cls-7" x="15.5635" y="269.2158">y</tspan><tspan x="24.6758" y="269.2158" xml:space="preserve"> a cur</tspan><tspan class="cls-6" x="78.8564" y="269.2158">r</tspan><tspan x="84.2412" y="269.2158">en</tspan><tspan class="cls-6" x="106.8945" y="269.2158">t</tspan><tspan x="111.6807" y="269.2158">. i</tspan><tspan class="cls-6" x="126.1182" y="269.2158">n</tspan><tspan x="137.0664" y="269.2158">di</tspan><tspan class="cls-6" x="154.0762" y="269.2158">r</tspan><tspan x="159.4609" y="269.2158">ectl</tspan><tspan class="cls-6" x="191.0479" y="269.2158">y</tspan><tspan x="200.1611" y="269.2158" xml:space="preserve"> i</tspan><tspan class="cls-7" x="211.8467" y="269.2158">n</tspan><tspan x="222.7939" y="269.2158">dica</tspan><tspan class="cls-6" x="262.8955" y="269.2158">t</tspan><tspan x="267.6816" y="269.2158">es t</tspan><tspan class="cls-6" x="299.0293" y="269.2158">h</tspan><tspan x="309.9775" y="269.2158">e a</tspan><tspan class="cls-6" x="340.5674" y="269.2158">m</tspan><tspan x="357.4189" y="269.2158">ount </tspan><tspan class="cls-8" x="404.3613" y="269.2158">o</tspan><tspan x="416.2471" y="269.2158">f </tspan><tspan x="-78.8389" y="296.1372">nutrien</tspan><tspan class="cls-8" x="-17.8184" y="296.1372">t</tspan><tspan x="-12.833" y="296.1372">s a</tspan><tspan class="cls-8" x="14.3271" y="296.1372">v</tspan><tspan x="23.9785" y="296.1372">ailable or p</tspan><tspan class="cls-8" x="129.6289" y="296.1372">o</tspan><tspan class="cls-6" x="141.5146" y="296.1372">t</tspan><tspan x="146.3008" y="296.1372">ential issues with e</tspan><tspan class="cls-10" x="315.3232" y="296.1372">x</tspan><tspan x="324.1172" y="296.1372">cess sal</tspan><tspan class="cls-6" x="393.4336" y="296.1372">t</tspan><tspan x="398.2197" y="296.1372">.</tspan></text><path class="cls-11" d="M519.0416,195.8067c-24.7036-6.0651-49.5623-12.1578-75.2777-14.8552-26.0265-2.73-52.4334-1.9314-78.7056-1.7917-80.74.4291-162.8433-5.4517-242.4677,7.6547-13.2522,0-12.5254,4.319-13.3812,16.0242a26.5629,26.5629,0,0,0,.0655,6.5817c.992,5.5795,8.3592,12.2854,12.9827,15.4412a21.6463,21.6463,0,0,0,5.9312,2.5033l72.2994,22.3388c4.5941,1.4195,9.3042,2.8544,14.1051,2.611,6.6768-.3386,12.761-3.87,19.307-5.2324a42.05,42.05,0,0,1,12.9987-.3815q2.4319.3219,4.867.6366c5.2115.7946,10.4436,1.85,15.67,2.2129,1.2656.0879,2.5307.1282,3.7954.1419,41.327,4.6194,83.0585,6.5492,123.5417-.3818,38.8137-6.6453,74.4842-21.1438,108.4857-36.8555C511.46,208.6651,520.7369,202.9906,519.0416,195.8067Z"/><path class="cls-12" d="M284.5433,194.03l-1.53-7.2207-3.3164,7.3584h-.4707l-3.2578-7.28-1.3926,7.1426h-3.0224l3.0029-13.9121h1.2363l3.669,8.5156,3.67-8.5156h1.2558l3.14,13.9121Z"/><path class="cls-12" d="M298.4573,193.5c0,3.0029-2.3154,4.6318-4.9843,4.6318a8.4631,8.4631,0,0,1-3.7676-.9033l.0195-2.668a6.2413,6.2413,0,0,0,3.2578,1.0791,2.4058,2.4058,0,0,0,2.6885-2.61v-.2744a3.7278,3.7278,0,0,1-2.9639,1.4131c-2.6875,0-4.415-2.2373-4.415-5.0635,0-2.8057,1.7275-5.043,4.415-5.043a3.7015,3.7015,0,0,1,2.9239,1.374v-1.2167h2.8066Zm-2.8261-4.3955a2.2452,2.2452,0,0,0-2.1973-2.3154,2.32,2.32,0,0,0,0,4.6318A2.2337,2.2337,0,0,0,295.6312,189.1045Z"/><path class="cls-12" d="M300.3392,186.8652c.8467-.9609,1.7275-2.0019,2.5742-2.998a3.0762,3.0762,0,0,0,.9385-1.8311,1.018,1.018,0,0,0-1.041-1.0185,1.254,1.254,0,0,0-1.1563,1.3847l-1.5791-.4345a2.7074,2.7074,0,0,1,2.7354-2.6319,2.6034,2.6034,0,0,1,2.7353,2.5284,3.9218,3.9218,0,0,1-1.2021,2.5869c-.377.4687-.7784.9492-1.167,1.4189h2.4258v1.625h-5.2637Z"/><path class="cls-12" d="M310.82,184.6h-1.5674V186.19h-1.294V184.6h-1.5332v-1.2588h1.5332v-1.5449h1.294v1.5449H310.82Z"/><path class="cls-12" d="M389.93,233.1631l-1.53-7.2207-3.3164,7.3584h-.4707l-3.2578-7.28-1.3926,7.1426H376.94l3.0029-13.9121h1.2363l3.669,8.5156,3.67-8.5156h1.2559l3.14,13.9121Z"/><path class="cls-12" d="M403.8441,232.6328c0,3.0029-2.3155,4.6318-4.9844,4.6318a8.4631,8.4631,0,0,1-3.7676-.9033l.0195-2.6679a6.2423,6.2423,0,0,0,3.2579,1.0791,2.4058,2.4058,0,0,0,2.6884-2.61v-.2744a3.7276,3.7276,0,0,1-2.9638,1.4131c-2.6875,0-4.4151-2.2373-4.4151-5.0635,0-2.8057,1.7276-5.043,4.4151-5.043a3.7012,3.7012,0,0,1,2.9238,1.3741v-1.2168h2.8066Zm-2.8262-4.3955a2.2451,2.2451,0,0,0-2.1973-2.3154,2.32,2.32,0,0,0,0,4.6318A2.2336,2.2336,0,0,0,401.0179,228.2373Z"/><path class="cls-12" d="M405.7259,225.998c.8467-.9609,1.7275-2.0019,2.5742-2.998a3.0762,3.0762,0,0,0,.9385-1.8311,1.018,1.018,0,0,0-1.041-1.0185,1.2541,1.2541,0,0,0-1.1563,1.3848l-1.5791-.4346a2.7074,2.7074,0,0,1,2.7354-2.6318,2.6034,2.6034,0,0,1,2.7353,2.5283,3.9218,3.9218,0,0,1-1.2021,2.5869c-.377.4687-.7783.9492-1.167,1.4189H410.99v1.625h-5.2637Z"/><path class="cls-12" d="M416.2064,223.7324H414.639v1.5908h-1.294v-1.5908h-1.5332v-1.2588h1.5332v-1.5449h1.294v1.5449h1.5674Z"/><path class="cls-12" d="M302.3978,233.1631l-4.2393-6.044v6.044h-2.8847V219.4268h2.8847v6.4365l4.18-6.4365h3.3555l-4.7285,7.0058,4.8857,6.73Z"/><path class="cls-12" d="M310.804,223.7324h-1.5674v1.5908h-1.2939v-1.5908H306.41v-1.2588h1.5332v-1.5449h1.2939v1.5449h1.5674Z"/><path class="cls-12" d="M358.3548,171.8975l-4.2383-6.044v6.044h-2.8847V158.1611h2.8847v6.4366l4.18-6.4366h3.3555l-4.7285,7.0059,4.8857,6.7305Z"/><path class="cls-12" d="M366.762,162.4668h-1.5673v1.5908h-1.294v-1.5908h-1.5332V161.208h1.5332v-1.5449h1.294v1.5449h1.5673Z"/><path class="cls-12" d="M130.01,188.001a6.8862,6.8862,0,0,1,7.1035-7.1035,7.15,7.15,0,0,1,3.1191.667l.02,3.16a4.7511,4.7511,0,0,0-3.0615-.9814,4.2585,4.2585,0,0,0,0,8.5166,4.6425,4.6425,0,0,0,3.0615-.9815l-.02,3.1787a7.4378,7.4378,0,0,1-3.1191.6475A6.8862,6.8862,0,0,1,130.01,188.001Z"/><path class="cls-12" d="M151.4984,185.0576v9.8115h-2.8262v-1.2558a3.67,3.67,0,0,1-2.9434,1.3935c-2.6875,0-4.415-2.2373-4.415-5.0634,0-2.8057,1.7275-5.043,4.415-5.043a3.67,3.67,0,0,1,2.9434,1.3935v-1.2363Zm-2.8457,4.8858a2.2452,2.2452,0,0,0-2.1973-2.3155,2.32,2.32,0,0,0,0,4.6319A2.2337,2.2337,0,0,0,148.6527,189.9434Z"/><path class="cls-12" d="M153.3607,187.7041c.8466-.9609,1.7275-2.002,2.5742-2.998a3.0767,3.0767,0,0,0,.9385-1.8311,1.0181,1.0181,0,0,0-1.0411-1.0186,1.2541,1.2541,0,0,0-1.1562,1.3848l-1.5791-.4346a2.7073,2.7073,0,0,1,2.7353-2.6318,2.6035,2.6035,0,0,1,2.7354,2.5283,3.9218,3.9218,0,0,1-1.2021,2.5869c-.377.4688-.7784.9493-1.167,1.419h2.4257v1.625h-5.2636Z"/><path class="cls-12" d="M163.8411,185.4385h-1.5673v1.5908H160.98v-1.5908h-1.5332V184.18H160.98v-1.5449h1.294V184.18h1.5673Z"/><path class="cls-12" d="M216.6478,182.3945v14.1826h-1.5606l-7.3808-8.4218v8.2422H204.765V182.2549h1.5605l7.4014,8.6416v-8.502Z"/><path class="cls-12" d="M228.9066,186.3955v10.002h-2.88v-1.28a3.7419,3.7419,0,0,1-3.001,1.42c-2.74,0-4.501-2.28-4.501-5.1611,0-2.86,1.7608-5.1406,4.501-5.1406a3.7445,3.7445,0,0,1,3.001,1.42v-1.26Zm-2.9,4.9805a2.2883,2.2883,0,0,0-2.24-2.36,2.3653,2.3653,0,0,0,0,4.7217A2.2768,2.2768,0,0,0,226.0062,191.376Z"/><path class="cls-12" d="M235.0091,186.7881h-1.5977v1.62h-1.3173v-1.62h-1.5616v-1.2822h1.5616v-1.5743h1.3173v1.5743h1.5977Z"/><path class="cls-12" d="M385.9085,190.4629a7.02,7.02,0,0,1,7.2412-7.2412,7.287,7.287,0,0,1,3.1807.6806l.0205,3.2207a4.8436,4.8436,0,0,0-3.1211-1.0009,4.3415,4.3415,0,0,0,0,8.6826,4.73,4.73,0,0,0,3.1211-1.001l-.0205,3.2412a7.5883,7.5883,0,0,1-3.1807.66A7.02,7.02,0,0,1,385.9085,190.4629Z"/><path class="cls-12" d="M398.2679,181.4619h2.8809v16.0029h-2.8809Z"/><path class="cls-12" d="M402.7952,186.5146h3.7774v1.4219h-3.7774Z"/><path class="cls-12" d="M459.6907,217.4619v14.1826h-1.56l-7.3809-8.4218v8.2421h-2.9414V217.3223h1.5606l7.4013,8.6416v-8.502Z"/><path class="cls-12" d="M462.0482,224.4629a7.2412,7.2412,0,1,1,7.2412,7.2617A7.0688,7.0688,0,0,1,462.0482,224.4629Zm11.4619,0a4.2224,4.2224,0,1,0-4.2207,4.3418A4.2036,4.2036,0,0,0,473.51,224.4629Z"/><path class="cls-12" d="M482.5286,229.4248a2.21,2.21,0,0,1-2.3808,2.16,2.3638,2.3638,0,0,1-2.36-1.6807l1.7-.7a.7175.7175,0,0,0,.66.54.5179.5179,0,0,0,.541-.5.51.51,0,0,0-.541-.5195.7444.7444,0,0,0-.34.1l-1.0205-.92,1.1612-1.1006h-1.8409v-1.78h4.0606v1.6006l-.96.84A2.08,2.08,0,0,1,482.5286,229.4248Z"/><path class="cls-12" d="M483.2952,220.5146h3.7774v1.4219h-3.7774Z"/><text class="cls-13" transform="translate(155.9281 219.4648)">Cl</text><text class="cls-13" transform="translate(173.387 212.8047) scale(0.583)">-</text><path class="cls-12" d="M461.62,180.23v14.1826h-1.5606l-7.3808-8.4219v8.2422h-2.9415V180.09h1.5606l7.4014,8.6416V180.23Z"/><path class="cls-12" d="M473.8782,184.2305v10.0019h-2.88v-1.28a3.7417,3.7417,0,0,1-3.001,1.42c-2.74,0-4.501-2.28-4.501-5.1612,0-2.86,1.7608-5.1406,4.501-5.1406a3.7419,3.7419,0,0,1,3.001,1.42v-1.26Zm-2.9,4.98a2.2884,2.2884,0,0,0-2.24-2.36,2.3653,2.3653,0,0,0,0,4.7217A2.2769,2.2769,0,0,0,470.9779,189.2109Z"/><path class="cls-12" d="M479.9808,184.623h-1.5977v1.62h-1.3174v-1.62h-1.5615v-1.2822h1.5615v-1.5742h1.3174v1.5742h1.5977Z"/><path class="cls-12" d="M204.0355,234.2949a6.8862,6.8862,0,0,1,7.1035-7.1035,7.1511,7.1511,0,0,1,3.1191.667l.02,3.16a4.7506,4.7506,0,0,0-3.0615-.9815,4.2585,4.2585,0,0,0,0,8.5166,4.643,4.643,0,0,0,3.0615-.9814l-.02,3.1787a7.4378,7.4378,0,0,1-3.1191.6474A6.8862,6.8862,0,0,1,204.0355,234.2949Z"/><path class="cls-12" d="M225.5238,231.3516v9.8115h-2.8262v-1.2559a3.67,3.67,0,0,1-2.9434,1.3936c-2.6875,0-4.415-2.2373-4.415-5.0635,0-2.8057,1.7275-5.043,4.415-5.043a3.67,3.67,0,0,1,2.9434,1.3936v-1.2363Zm-2.8457,4.8857a2.2452,2.2452,0,0,0-2.1973-2.3154,2.32,2.32,0,0,0,0,4.6318A2.2337,2.2337,0,0,0,222.6781,236.2373Z"/><path class="cls-12" d="M227.3861,233.998c.8466-.9609,1.7275-2.0019,2.5742-2.998a3.0762,3.0762,0,0,0,.9385-1.8311,1.0181,1.0181,0,0,0-1.0411-1.0185,1.254,1.254,0,0,0-1.1562,1.3848l-1.5791-.4346a2.7073,2.7073,0,0,1,2.7353-2.6318,2.6034,2.6034,0,0,1,2.7354,2.5283,3.9215,3.9215,0,0,1-1.2022,2.5869c-.3769.4687-.7783.9492-1.167,1.4189H232.65v1.625h-5.2636Z"/><path class="cls-12" d="M237.8665,231.7324h-1.5674v1.5908h-1.2939v-1.5908H233.472v-1.2588h1.5332v-1.5449h1.2939v1.5449h1.5674Z"/><path class="cls-14" d="M438.0674,196.85c-5.2728-2.41-6.6768-12.558-4.3655-19.68,2.76-8.5067,4.1856-15.1221,4.64-21.6322l7.4734,3.8387-10.6185-22.5573-7.4217,23.9316,6.8267-4.901a86.0988,86.0988,0,0,1-4.4093,20.0577c-3.5967,11.0847.4853,21.8208,6.3985,24.5239a1.7761,1.7761,0,0,0,.7372.1617,1.8539,1.8539,0,0,0,1.7019-1.1753A1.9932,1.9932,0,0,0,438.0674,196.85Z"/><path class="cls-15" d="M335.8717,173.89c.2741-1.5144.606-3.051.9379-4.5564l5.28,4.1537-4.7169-18.6714-9.7068,16.6319,6.1721-2.5064c-.3194,1.4528-.6366,2.9354-.9051,4.4161-1.1394,6.2893-1.0832,19.6529,2,27.365a1.4933,1.4933,0,0,0,2.773-1.1091C334.9363,192.687,334.7709,179.9634,335.8717,173.89Z"/><path class="cls-14" d="M185.9582,154.9542l-7.4375-25.237-6.6086,25.7382,5.5255-5.0263c.7144,13.3073,1.4622,28.2574-1.911,38.0593a2.7007,2.7007,0,0,0,.628,2.8725,1.0742,1.0742,0,0,0,.6534.2342,1.4935,1.4935,0,0,0,1.2839-1.1655c3.716-10.7963,2.9719-26.26,2.2317-40.062Z"/><path class="cls-16" d="M498.9484,165.5006c-.3215-.24-.9369-.0968-1.2814-.0708a12.3626,12.3626,0,0,0-1.9938.3152c-.993.2417-2.1634.9533-1.9316,1.9326.1867.7889,1.1522,1.0819,1.9614,1.235a3.474,3.474,0,0,0,1.574-.0069c.1824-.0578.3132-.2135.4977-.2661a1.5193,1.5193,0,0,0,.464-.1294,1.6668,1.6668,0,0,0,.6271-.7541,3.189,3.189,0,0,0,.2648-1.1537,1.931,1.931,0,0,0-.0779-.9947A.474.474,0,0,0,498.9484,165.5006Z"/><path class="cls-16" d="M394.0024,170.8978c-.3215-.24-.9369-.0968-1.2814-.0708a12.35,12.35,0,0,0-1.9937.3153c-.9931.2417-2.1634.9532-1.9317,1.9326.1867.7888,1.1522,1.0818,1.9614,1.2349a3.474,3.474,0,0,0,1.574-.0069c.1824-.0577.3132-.2135.4977-.2661a1.5165,1.5165,0,0,0,.464-.1294,1.6663,1.6663,0,0,0,.6271-.7541A3.1864,3.1864,0,0,0,394.1846,172a1.93,1.93,0,0,0-.0779-.9946A.47.47,0,0,0,394.0024,170.8978Z"/><path class="cls-16" d="M482.2907,165.6387c.1015-.0034.2024-.0084.3014-.0132.8036-.0385,1.6046.0854,2.4143.0443a1.9249,1.9249,0,0,0,1.239-.3848,1.3617,1.3617,0,0,0-.0282-1.8029,3.7844,3.7844,0,0,0-1.705-1.0119c-1.5174-.55-3.7062-.7114-4.279.7753a1.9088,1.9088,0,0,0,.4654,1.951A2.0165,2.0165,0,0,0,482.2907,165.6387Z"/><path class="cls-16" d="M467.0208,163.8037a2.2694,2.2694,0,0,0-1.1749-.2375,4.7209,4.7209,0,0,0-1.6714.1678,2.4243,2.4243,0,0,0-1.8053,2.0542,1.6091,1.6091,0,0,0,.6205,1.2611,1.96,1.96,0,0,0,1.2663.3277,1.8907,1.8907,0,0,0,1.0171-.1609,3.5507,3.5507,0,0,0,1.547-1.6494c.1835-.3761.5261-1.1785.3329-1.5971A.46.46,0,0,0,467.0208,163.8037Z"/><path class="cls-16" d="M488.3025,175.3608c.1365-.0953.2451-.2254.3778-.3264a2.0777,2.0777,0,0,0,.2209-.1691,4.1673,4.1673,0,0,1,.6042-.6116,4.3241,4.3241,0,0,0,.7383-.636,3.3615,3.3615,0,0,0,.4975-.6349,1.2412,1.2412,0,0,0,.0973-.7074.64.64,0,0,0-.0453-.2832c-.1236-.249-.6422-.228-.8758-.25a6.3238,6.3238,0,0,0-.998-.0244,3.283,3.283,0,0,0-1.7956.6035,2.0551,2.0551,0,0,0-.6622,2.0683c.17.7239,1.0429,1.4942,1.8187.9867Z"/><path class="cls-16" d="M460.9123,172.3009a.9153.9153,0,0,0-.0587-.1351c-.2027-.4049-.8587-.67-1.27-.8429a2.8076,2.8076,0,0,0-1.5117-.2306,2.3524,2.3524,0,0,0-1.2676.6713,1.1492,1.1492,0,0,0-.4152,1.082.6789.6789,0,0,0,.2676.3464,1.32,1.32,0,0,0,.4016.1543,4.17,4.17,0,0,0,.8574.1443,4.2447,4.2447,0,0,0,1.7062-.24,3.85,3.85,0,0,0,.7621-.3742c.1532-.0979.5545-.2918.5439-.4911A.3442.3442,0,0,0,460.9123,172.3009Z"/><path class="cls-16" d="M412.6369,163.5572a3.1781,3.1781,0,0,1-.5284.1994c-.1527.0447-1.4354.2759-1.4658-.0053a3.48,3.48,0,0,1,1.3556-2.9907,3.6281,3.6281,0,0,1,2.4806-.8377c1.3862.3926-.801,2.6671-1.1812,3.1133A2.0305,2.0305,0,0,1,412.6369,163.5572Z"/><path class="cls-16" d="M402.29,170.3311c-1.4965-.1848-3.6409-.9234-3.56-2.5575a2.1412,2.1412,0,0,1,1.8021-1.7867,6.4264,6.4264,0,0,1,2.7219.2276,5.8118,5.8118,0,0,1,2.9088,1.3946,1.7317,1.7317,0,0,1,.5681,1.3031c-.0918.4761-.98,1.022-1.3989,1.3333-.6648.494-1.7328.1573-2.4913.1305C402.6722,170.37,402.4866,170.3554,402.29,170.3311Z"/><path class="cls-16" d="M385.5542,168.9653a1.4263,1.4263,0,0,0-.1938-.912,1.6,1.6,0,0,0-.6572-.4977,3.3143,3.3143,0,0,0-2.7546-.1339c-1.36.625-1.8917,2.986-.5895,3.9434C382.9724,172.5511,385.4341,170.6692,385.5542,168.9653Z"/><path class="cls-16" d="M371.8241,172.7509c-1.5243.0482-2.3324-3.42-1.64-3.8164,1.8639-1.0672,4.6581.5274,3.1575,2.6838C372.7869,172.4157,372.2743,172.7366,371.8241,172.7509Z"/><path class="cls-16" d="M421.2942,164.6661c-1.5242.0482-2.3324-3.42-1.64-3.8164,1.8639-1.0672,4.658.5274,3.1575,2.6838C422.2571,164.3309,421.7444,164.6518,421.2942,164.6661Z"/><path class="cls-16" d="M294.7257,167.2177c-.3215-.24-.9369-.0968-1.2815-.0708a12.35,12.35,0,0,0-1.9937.3153c-.993.2417-2.1634.9532-1.9316,1.9326.1867.7888,1.1521,1.0818,1.9614,1.2349a3.474,3.474,0,0,0,1.574-.0069c.1823-.0577.3132-.2135.4977-.2661a1.5165,1.5165,0,0,0,.464-.1294,1.6661,1.6661,0,0,0,.627-.7541,3.1865,3.1865,0,0,0,.2649-1.1537,1.93,1.93,0,0,0-.078-.9946A.472.472,0,0,0,294.7257,167.2177Z"/><path class="cls-16" d="M252.4911,172.0428a3.187,3.187,0,0,1-.5284.1993c-.1527.0447-1.4354.2759-1.4658-.0053a3.48,3.48,0,0,1,1.3556-2.9907,3.6281,3.6281,0,0,1,2.4806-.8377c1.3862.3926-.801,2.6671-1.1812,3.1133A2.0322,2.0322,0,0,1,252.4911,172.0428Z"/><path class="cls-16" d="M303.013,166.651c-1.4964-.1848-3.6409-.9234-3.56-2.5575a2.1411,2.1411,0,0,1,1.8021-1.7867,6.426,6.426,0,0,1,2.7218.2276,5.8114,5.8114,0,0,1,2.9088,1.3946,1.7314,1.7314,0,0,1,.5681,1.3031c-.0917.4761-.98,1.022-1.3989,1.3333-.6647.494-1.7327.1573-2.4912.13C303.3955,166.69,303.21,166.6753,303.013,166.651Z"/><path class="cls-16" d="M286.2774,165.2852a1.4257,1.4257,0,0,0-.1938-.912,1.6,1.6,0,0,0-.6572-.4977,3.3143,3.3143,0,0,0-2.7546-.1339c-1.36.625-1.8916,2.9861-.5894,3.9434C283.6956,168.871,286.1574,166.9891,286.2774,165.2852Z"/><path class="cls-16" d="M272.5473,169.0708c-1.5242.0482-2.3324-3.42-1.64-3.8164,1.8639-1.0672,4.658.5274,3.1574,2.6838C273.51,168.7356,272.9975,169.0565,272.5473,169.0708Z"/><path class="cls-16" d="M261.1484,173.1516c-1.5242.0482-2.3324-3.42-1.64-3.8164,1.8639-1.0672,4.658.5274,3.1575,2.6838C262.1113,172.8164,261.5986,173.1373,261.1484,173.1516Z"/><path class="cls-16" d="M451.7572,169.1776a1.4259,1.4259,0,0,0-.1938-.9119,1.6,1.6,0,0,0-.6572-.4978,3.3143,3.3143,0,0,0-2.7546-.1339c-1.36.625-1.8917,2.9861-.5895,3.9434C449.1754,172.7634,451.6371,170.8815,451.7572,169.1776Z"/><path class="cls-16" d="M491.5879,169.6883a.9073.9073,0,0,0-.054-.41,2.7435,2.7435,0,0,0-.9742-1.2092,6.2716,6.2716,0,0,0-2.0156-1.0417,6.0948,6.0948,0,0,0-2.2567-.2545c-.255.02-.9122.0223-1.1029.2094-.2868.2813.0867.7992.2587,1.0771l.6434,1.0392a1.8138,1.8138,0,0,0,.3069.405,1.5072,1.5072,0,0,0,.4563.2619c.4292.1726.8907.2509,1.33.3924a3.4067,3.4067,0,0,0,1.11.1235c.4818-.0093,2.118.0382,2.28-.5127A.5515.5515,0,0,0,491.5879,169.6883Z"/><path class="cls-16" d="M320.1227,167.6728c.1016-.0034.2024-.0085.3014-.0132.8036-.0385,1.6047.0853,2.4143.0443a1.925,1.925,0,0,0,1.239-.3849,1.3617,1.3617,0,0,0-.0282-1.8029,3.7833,3.7833,0,0,0-1.705-1.0119c-1.5173-.55-3.7062-.7114-4.2789.7753a1.9087,1.9087,0,0,0,.4654,1.9511A2.0165,2.0165,0,0,0,320.1227,167.6728Z"/><path class="cls-16" d="M316.1876,171.7223a.9081.9081,0,0,0-.0539-.4095,2.745,2.745,0,0,0-.9742-1.2093,6.2729,6.2729,0,0,0-2.0157-1.0416,6.09,6.09,0,0,0-2.2566-.2545c-.255.02-.9122.0222-1.1029.2093-.2869.2813.0866.7993.2587,1.0772l.6433,1.0391a1.8141,1.8141,0,0,0,.307.4051,1.5109,1.5109,0,0,0,.4562.2619c.4292.1726.8908.2508,1.3306.3923a3.4034,3.4034,0,0,0,1.11.1235c.4818-.0093,2.118.0383,2.28-.5126A.5688.5688,0,0,0,316.1876,171.7223Z"/><path class="cls-16" d="M503.7752,175.602c.9193-1.0462,1.37-3.2244.63-4.1357-1.2047-1.4839-3.83-.122-4.1467,1.3344-.2942,1.3533,1.1731,3.8864,2.8014,3.32A1.7494,1.7494,0,0,0,503.7752,175.602Z"/><path class="cls-16" d="M234.49,167.8192c-.3215-.24-.9369-.0968-1.2815-.0708a12.35,12.35,0,0,0-1.9937.3153c-.993.2417-2.1634.9532-1.9316,1.9326.1867.7888,1.1521,1.0818,1.9614,1.2349a3.474,3.474,0,0,0,1.574-.0069c.1823-.0577.3132-.2135.4977-.2661a1.5152,1.5152,0,0,0,.4639-.1294,1.6657,1.6657,0,0,0,.6271-.7541,3.1865,3.1865,0,0,0,.2649-1.1537,1.93,1.93,0,0,0-.078-.9946A.472.472,0,0,0,234.49,167.8192Z"/><path class="cls-16" d="M200.4454,167.1809a2.2692,2.2692,0,0,0-1.1749-.2375,4.7209,4.7209,0,0,0-1.6714.1678,2.4244,2.4244,0,0,0-1.8053,2.0542,1.609,1.609,0,0,0,.62,1.2611,1.9607,1.9607,0,0,0,1.2663.3278,1.8907,1.8907,0,0,0,1.0171-.161,3.5507,3.5507,0,0,0,1.547-1.6494c.1835-.3761.5261-1.1785.3329-1.5971A.46.46,0,0,0,200.4454,167.1809Z"/><path class="cls-16" d="M222.7856,175.5622c.1366-.0953.2452-.2254.3778-.3263a2.07,2.07,0,0,0,.221-.1692,4.1666,4.1666,0,0,1,.6042-.6115,4.3279,4.3279,0,0,0,.7383-.636,3.359,3.359,0,0,0,.4975-.635,1.241,1.241,0,0,0,.0973-.7074.6413.6413,0,0,0-.0453-.2832c-.1236-.2489-.6422-.228-.8758-.25a6.3238,6.3238,0,0,0-.998-.0245,3.2842,3.2842,0,0,0-1.7957.6036,2.055,2.055,0,0,0-.6621,2.0682c.17.724,1.0429,1.4943,1.8187.9867Z"/><path class="cls-16" d="M191.8115,174.4616a.9208.9208,0,0,0-.0586-.1351c-.2028-.405-.8587-.67-1.27-.843a2.8076,2.8076,0,0,0-1.5117-.2306,2.3532,2.3532,0,0,0-1.2676.6714,1.1488,1.1488,0,0,0-.4152,1.0819.6793.6793,0,0,0,.2675.3465,1.3182,1.3182,0,0,0,.4016.1542,4.1706,4.1706,0,0,0,.8575.1443,4.2449,4.2449,0,0,0,1.7062-.24,3.85,3.85,0,0,0,.7621-.3742c.1532-.0979.5545-.2917.5438-.4911A.34.34,0,0,0,191.8115,174.4616Z"/><path class="cls-16" d="M211.78,173.0655a.9073.9073,0,0,0-.054-.41,2.7441,2.7441,0,0,0-.9742-1.2092,6.2736,6.2736,0,0,0-2.0156-1.0417,6.0948,6.0948,0,0,0-2.2567-.2545c-.255.02-.9122.0223-1.1029.2094-.2868.2813.0867.7992.2587,1.0771l.6434,1.0392a1.8138,1.8138,0,0,0,.3069.405,1.5072,1.5072,0,0,0,.4563.2619c.4292.1726.8907.2509,1.3305.3924a3.4067,3.4067,0,0,0,1.11.1235c.4818-.0093,2.118.0383,2.28-.5127A.5515.5515,0,0,0,211.78,173.0655Z"/><path class="cls-16" d="M242.6405,174.3256c.9193-1.0461,1.37-3.2243.63-4.1356-1.2048-1.4839-3.83-.1221-4.1467,1.3343-.2943,1.3534,1.1731,3.8865,2.8014,3.32A1.7485,1.7485,0,0,0,242.6405,174.3256Z"/><path class="cls-16" d="M159.2123,163.474c-.3214-.24-.9368-.0968-1.2814-.0708a12.35,12.35,0,0,0-1.9937.3153c-.993.2417-2.1634.9532-1.9316,1.9326.1867.7888,1.1521,1.0818,1.9614,1.2349a3.474,3.474,0,0,0,1.574-.0069c.1823-.0577.3131-.2135.4977-.2661a1.5167,1.5167,0,0,0,.4639-.1294,1.6657,1.6657,0,0,0,.6271-.7541,3.1865,3.1865,0,0,0,.2649-1.1537,1.93,1.93,0,0,0-.078-.9946A.47.47,0,0,0,159.2123,163.474Z"/><path class="cls-16" d="M143.0839,163.6121c.1016-.0034.2024-.0084.3014-.0132.8036-.0384,1.6047.0854,2.4143.0443a1.9248,1.9248,0,0,0,1.2391-.3848,1.3618,1.3618,0,0,0-.0283-1.8029,3.7835,3.7835,0,0,0-1.7049-1.0119c-1.5174-.55-3.7063-.7114-4.279.7753a1.9085,1.9085,0,0,0,.4654,1.951A2.0162,2.0162,0,0,0,143.0839,163.6121Z"/><path class="cls-16" d="M129.9811,170.8252a2.27,2.27,0,0,0-1.175-.2375,4.7206,4.7206,0,0,0-1.6713.1678A2.4243,2.4243,0,0,0,125.33,172.81a1.6091,1.6091,0,0,0,.6205,1.2611,1.96,1.96,0,0,0,1.2663.3277,1.8907,1.8907,0,0,0,1.0171-.1609,3.5507,3.5507,0,0,0,1.547-1.6494c.1835-.3761.5261-1.1785.3329-1.5971A.46.46,0,0,0,129.9811,170.8252Z"/><path class="cls-16" d="M148.5664,173.3342c.1365-.0953.2452-.2254.3778-.3264a2.0689,2.0689,0,0,0,.221-.1691,4.166,4.166,0,0,1,.6041-.6115,4.3254,4.3254,0,0,0,.7384-.6361,3.37,3.37,0,0,0,.4975-.6349,1.2411,1.2411,0,0,0,.0972-.7074.64.64,0,0,0-.0452-.2832c-.1236-.249-.6422-.228-.8758-.25a6.3241,6.3241,0,0,0-.998-.0244,3.283,3.283,0,0,0-1.7957.6035,2.0551,2.0551,0,0,0-.6621,2.0683c.17.724,1.0429,1.4942,1.8186.9867Z"/><path class="cls-16" d="M124.6052,166.6871a.9.9,0,0,0-.0586-.1351c-.2028-.405-.8587-.67-1.27-.843a2.8076,2.8076,0,0,0-1.5117-.2306,2.3532,2.3532,0,0,0-1.2676.6714,1.1488,1.1488,0,0,0-.4152,1.082.68.68,0,0,0,.2675.3464,1.321,1.321,0,0,0,.4016.1543,4.1842,4.1842,0,0,0,.8575.1443,4.2465,4.2465,0,0,0,1.7062-.24,3.85,3.85,0,0,0,.7621-.3742c.1532-.0978.5545-.2917.5439-.4911A.3445.3445,0,0,0,124.6052,166.6871Z"/><path class="cls-16" d="M138.62,167.6617a.9086.9086,0,0,0-.0539-.41,2.7441,2.7441,0,0,0-.9742-1.2092,6.2751,6.2751,0,0,0-2.0157-1.0417,6.094,6.094,0,0,0-2.2566-.2545c-.255.02-.9122.0223-1.1029.2094-.2868.2813.0866.7992.2587,1.0771l.6434,1.0392a1.8108,1.8108,0,0,0,.3069.405,1.5072,1.5072,0,0,0,.4563.2619c.4291.1727.8907.2509,1.3305.3924a3.4061,3.4061,0,0,0,1.11.1235c.4819-.0093,2.118.0383,2.28-.5127A.5645.5645,0,0,0,138.62,167.6617Z"/><path class="cls-16" d="M166.6731,174.5794c.9193-1.0462,1.37-3.2244.63-4.1357-1.2048-1.4839-3.83-.122-4.1467,1.3344-.2943,1.3533,1.1731,3.8864,2.8014,3.32A1.7494,1.7494,0,0,0,166.6731,174.5794Z"/></g></g></svg>