<?xml version="1.0" encoding="UTF-8"?><svg xmlns="http://www.w3.org/2000/svg" viewBox="0 0 543.56 372.73"><defs><style>.d{fill:#df6a7c;}.e,.f{fill:#5c5052;}.g{fill:#ebbd25;stroke:#ebbd25;stroke-width:.49px;}.g,.f,.h{stroke-miterlimit:10;}.f,.h{stroke:#fff;stroke-width:.42px;}.h{fill:#2e61a1;}</style></defs><g id="a"/><g id="b"><g id="c"><g><rect class="d" x="126.36" y="158.12" width="87.95" height="3.19" transform="translate(-54.98 220.97) rotate(-58.37)"/><rect class="d" x="214.12" y="116.12" width="3.19" height="87.18" transform="translate(-51.36 133) rotate(-30.8)"/><path class="d" d="M143.33,194.69h100.13s0,23.52-50.07,23.52-50.06-23.52-50.06-23.52Z"/><rect class="d" x="271.9" y="200.6" width="87.95" height="3.19" transform="translate(-21.95 365.09) rotate(-58.37)"/><rect class="d" x="359.66" y="158.6" width="3.19" height="87.18" transform="translate(-52.58 213.53) rotate(-30.8)"/><path class="d" d="M288.87,237.17h100.13s0,23.2-50.07,23.2-50.06-23.2-50.06-23.2Z"/><g><polyline class="d" points="265.98 128.47 256.45 259.44 275.52 259.44 265.98 128.47"/><path class="d" d="M275.52,261.27h-19.08c-.51,0-.99-.21-1.34-.58-.35-.37-.52-.87-.48-1.38l9.54-130.97c.07-.96,.87-1.7,1.82-1.7s1.75,.74,1.82,1.7l9.54,130.97c.04,.51-.14,1.01-.48,1.38-.35,.37-.83,.58-1.34,.58Zm-17.11-3.66h15.14l-7.57-103.96-7.57,103.96Z"/></g><path class="d" d="M339.35,167.79c-.38,0-.76-.05-1.14-.16l-145.95-42.26c-2.17-.63-3.42-2.9-2.79-5.07,.63-2.17,2.9-3.42,5.07-2.79l145.95,42.26c2.17,.63,3.42,2.9,2.79,5.07-.52,1.79-2.15,2.96-3.93,2.96Z"/></g><g><polygon class="f" points="368.82 234.31 339.18 240.3 339.18 206.4 368.82 202.35 368.82 234.31"/><polygon class="f" points="311.32 233.21 338.87 240.65 338.87 206.74 311.32 199.31 311.32 233.21"/><ellipse class="h" cx="333.52" cy="222.07" rx="5.58" ry="6.11"/><ellipse class="h" cx="352.36" cy="206.37" rx="4.77" ry="5.22" transform="translate(-52.14 150.46) rotate(-22.49)"/><ellipse class="h" cx="326.85" cy="203.18" rx="4.77" ry="5.22" transform="translate(-52.86 140.46) rotate(-22.49)"/><ellipse class="h" cx="317.57" cy="218.88" rx="5.58" ry="6.11"/><ellipse class="h" cx="325.01" cy="218.35" rx="5.58" ry="6.11"/><ellipse class="h" cx="318.1" cy="208.78" rx="5.58" ry="6.11"/><ellipse class="h" cx="332.45" cy="212.5" rx="5.58" ry="6.11"/><ellipse class="h" cx="319.17" cy="227.38" rx="5.58" ry="6.11"/><ellipse class="h" cx="330.86" cy="230.57" rx="5.58" ry="6.11"/><ellipse class="h" cx="356.31" cy="217.51" rx="5.58" ry="6.11" transform="translate(-56.1 152.82) rotate(-22.49)"/><ellipse class="h" cx="344.68" cy="213.44" rx="5.58" ry="6.11" transform="translate(-55.43 148.06) rotate(-22.49)"/><ellipse class="h" cx="361.48" cy="210.85" rx="5.58" ry="6.11" transform="translate(-53.16 154.29) rotate(-22.49)"/><ellipse class="h" cx="345.86" cy="231.28" rx="5.58" ry="6.11" transform="translate(-62.16 149.87) rotate(-22.49)"/><ellipse class="h" cx="348.52" cy="222.8" rx="5.58" ry="6.11" transform="translate(-58.72 150.24) rotate(-22.49)"/><ellipse class="h" cx="357.02" cy="229.69" rx="5.58" ry="6.11" transform="translate(-60.7 154.02) rotate(-22.49)"/><ellipse class="h" cx="362.34" cy="221.71" rx="5.58" ry="6.11" transform="translate(-57.25 155.44) rotate(-22.49)"/><ellipse class="h" cx="339.61" cy="200.52" rx="4.77" ry="5.22" transform="translate(-50.87 145.14) rotate(-22.49)"/><polygon class="f" points="311.32 199.61 338.87 207.04 369.13 202.35 340.11 194.11 311.32 199.61"/></g><g><polygon class="f" points="221.76 194.16 192.13 200.16 192.13 166.26 221.76 162.21 221.76 194.16"/><polygon class="f" points="164.27 193.07 191.82 200.5 191.82 166.6 164.27 159.17 164.27 193.07"/><ellipse class="h" cx="178.94" cy="188.29" rx="3.47" ry="3.8"/><ellipse class="h" cx="205.31" cy="166.22" rx="4.77" ry="5.22" transform="translate(-47.97 91.16) rotate(-22.49)"/><ellipse class="h" cx="178.44" cy="163.49" rx="4.77" ry="5.22" transform="translate(-48.96 80.68) rotate(-22.49)"/><ellipse class="h" cx="172.83" cy="179.36" rx="3.57" ry="3.91"/><ellipse class="h" cx="184.21" cy="179.54" rx="2.49" ry="2.72"/><ellipse class="h" cx="169.31" cy="168.54" rx="3.84" ry="4.21"/><ellipse class="h" cx="187.67" cy="169.87" rx="3.31" ry="3.62"/><ellipse class="h" cx="169.34" cy="188.92" rx="2.81" ry="3.08"/><ellipse class="h" cx="187.14" cy="193.45" rx="4.06" ry="4.44"/><ellipse class="h" cx="209.25" cy="177.07" rx="2.87" ry="3.15" transform="translate(-51.82 93.5) rotate(-22.49)"/><ellipse class="h" cx="196.44" cy="172.74" rx="2.89" ry="3.17" transform="translate(-51.13 88.27) rotate(-22.49)"/><ellipse class="h" cx="215.3" cy="168.3" rx="3.85" ry="4.22" transform="translate(-48 95.14) rotate(-22.49)"/><ellipse class="h" cx="199.79" cy="190.26" rx="3.94" ry="4.32" transform="translate(-57.58 90.88) rotate(-22.49)"/><ellipse class="h" cx="200.73" cy="180.67" rx="2.86" ry="3.13" transform="translate(-53.84 90.51) rotate(-22.49)"/><ellipse class="h" cx="211.57" cy="190.87" rx="3.36" ry="3.64" transform="translate(-56.91 95.43) rotate(-22.49)"/><ellipse class="h" cx="217.19" cy="182.46" rx="4.17" ry="4.56" transform="translate(-53.27 96.94) rotate(-22.49)"/><ellipse class="h" cx="192.55" cy="160.38" rx="4.77" ry="5.22" transform="translate(-46.7 85.84) rotate(-22.49)"/><polygon class="f" points="164.27 159.46 191.82 166.9 222.07 162.21 193.06 153.96 164.27 159.46"/></g><g><path class="g" d="M186.48,20.64c0,4.79-3.3,8.73-8.02,8.73-2.86,0-5.13-1.53-6.46-3.77v3.53h-2.04V1.95h2.04V15.67c1.33-2.21,3.6-3.74,6.46-3.74,4.72,0,8.02,3.91,8.02,8.7Zm-2.07,0c0-3.7-2.52-6.73-6.15-6.73s-6.25,3.09-6.25,6.73,2.62,6.76,6.25,6.76,6.15-3.09,6.15-6.76Z"/><path class="g" d="M204.66,12.14V29.13h-2.04v-2.79c-.98,1.73-2.92,3.09-5.44,3.09-3.5,0-6.53-2.48-6.53-7.71V12.14h2.01v9.21c0,4.08,2,6.18,4.96,6.18,2.62,0,4.72-1.8,4.99-5.33V12.14h2.04Z"/><path class="g" d="M210.3,1.95h2.04V29.13h-2.04V1.95Z"/><path class="g" d="M228.38,29.13l-8.36-7.82v7.82h-2.04V1.95h2.04V20.19l8.09-8.05h2.62l-8.7,8.6,9.07,8.39h-2.72Z"/><path class="g" d="M261.28,1.95V29.13h-2.04v-3.5c-1.32,2.21-3.6,3.74-6.46,3.74-4.72,0-8.02-3.91-8.02-8.7s3.3-8.73,8.02-8.73c2.86,0,5.13,1.53,6.46,3.77V1.95h2.04Zm-2.04,18.72c0-3.64-2.62-6.76-6.25-6.76s-6.15,3.09-6.15,6.76,2.51,6.73,6.15,6.73,6.25-3.09,6.25-6.73Z"/><path class="g" d="M281.84,21.35h-14.03c.3,3.47,2.75,6.08,6.52,6.08,2.38,0,4.32-.95,5.78-2.34v2.31c-1.46,1.19-3.5,1.97-5.85,1.97-5.33,0-8.53-4.01-8.53-8.73s3.33-8.7,8.19-8.7,8.02,4.42,7.92,9.41Zm-14-1.8h11.83c-.44-3.16-2.55-5.64-5.74-5.64s-5.64,2.45-6.08,5.64Z"/><path class="g" d="M300.13,19.55v9.58h-2.01v-9.21c0-4.08-2-6.18-4.96-6.18-2.62,0-4.72,1.8-4.99,5.33v10.06h-2.04V12.14h2.04v2.79c.98-1.73,2.92-3.09,5.44-3.09,3.5,0,6.53,2.48,6.53,7.71Z"/><path class="g" d="M304.41,26.72l1.39-1.5c1.02,1.26,2.52,2.21,4.15,2.21,1.83,0,3.29-1.05,3.29-2.72,0-4.25-8.46-2.85-8.43-8.5,.03-2.45,2.11-4.32,4.96-4.35,2.24,0,4.11,1.26,5.13,2.41l-1.26,1.46c-.85-.92-2.17-1.9-3.84-1.9s-2.92,1.02-2.96,2.38c-.07,3.94,8.46,2.58,8.43,8.53-.03,2.62-2.17,4.66-5.4,4.66-2.11,0-4.32-1.19-5.47-2.68Z"/><path class="g" d="M319.6,7.31c0-.81,.61-1.46,1.43-1.46s1.46,.65,1.46,1.46-.65,1.43-1.46,1.43-1.43-.61-1.43-1.43Zm.44,4.83h2.04V29.13h-2.04V12.14Z"/><path class="g" d="M334.15,14.11h-3.5v15.02h-2.04V14.11h-2.18v-1.97h2.18V7.59h2.04v4.55h3.5v1.97Z"/><path class="g" d="M351.24,12.14l-10.12,23.79h-2.04l3.06-7.21-7.14-16.58h2.21l5.95,14.34,5.88-14.34h2.21Z"/></g><g><path class="e" d="M139.61,56.45v15.96h-.8v-2.39c-.76,1.5-2.19,2.53-4.03,2.53-2.77,0-4.71-2.33-4.71-5.11s1.93-5.13,4.71-5.13c1.83,0,3.27,1.04,4.03,2.53v-8.4h.8Zm-.8,10.99c0-2.35-1.7-4.35-4.01-4.35s-3.93,1.99-3.93,4.35,1.62,4.33,3.93,4.33,4.01-1.97,4.01-4.33Z"/><path class="e" d="M146.79,62.31v.84c-1.73-.06-2.87,1.66-2.87,3.65v5.6h-.8v-9.97h.8v1.95c.48-1.08,1.42-2.07,2.87-2.07Z"/><path class="e" d="M156.48,62.43l-6,13.96h-.8l1.85-4.31-4.21-9.65h.86l3.73,8.77,3.71-8.77h.86Z"/><path class="e" d="M178.56,62.43l-5.16,10.13h-.24l-2.23-4.51-2.21,4.51h-.24l-5.15-10.13h.88l4.41,8.74,1.91-3.95-2.33-4.79h.88l1.88,3.97,1.85-3.97h.88l-2.33,4.79,1.93,3.95,4.39-8.74h.9Z"/><path class="e" d="M180.25,67.63c.1,2.27,1.68,4.13,4.15,4.13,1.48,0,2.67-.64,3.47-1.54v1.04c-.88,.78-2.07,1.28-3.47,1.28-3.09,0-4.95-2.35-4.95-5.13s1.96-5.11,4.77-5.11,4.61,2.51,4.61,5.33h-8.58Zm7.72-.78c-.26-2.05-1.6-3.77-3.75-3.77s-3.71,1.66-3.93,3.77h7.68Z"/><path class="e" d="M191.5,59.76c0-.34,.26-.6,.6-.6s.6,.26,.6,.6c0,.36-.26,.6-.6,.6s-.6-.24-.6-.6Zm.2,2.67h.8v9.97h-.8v-9.97Z"/><path class="e" d="M205,71.94c0,3.15-2.35,4.59-4.67,4.59-1.52,0-2.75-.52-3.71-1.16l.02-.92c1.04,.78,2.23,1.32,3.59,1.32,2.23,0,4.01-1.4,3.99-3.97v-1.82c-.76,1.52-2.21,2.55-4.05,2.55-2.77,0-4.71-2.33-4.71-5.11s1.93-5.13,4.71-5.13c1.81,0,3.25,1.02,4.03,2.51l-.02-2.39h.8l.02,9.51Zm-.8-4.51c0-2.35-1.7-4.35-4.01-4.35s-3.93,1.99-3.93,4.35,1.62,4.33,3.93,4.33,4.01-1.97,4.01-4.33Z"/><path class="e" d="M216.53,66.82v5.58h-.8v-5.38c0-2.63-1.26-3.99-3.17-3.99-1.79,0-3.25,1.36-3.25,3.99v5.38h-.8v-15.96h.8v7.82c.58-1.08,1.78-1.99,3.33-1.99,2.12,0,3.89,1.46,3.89,4.55Z"/><path class="e" d="M222.93,63.21h-2.05v9.19h-.8v-9.19h-1.28v-.78h1.28v-2.67h.8v2.67h2.05v.78Z"/><path class="e" d="M231.28,67.39c0-2.73,2.03-5.11,5.03-5.11s5.03,2.37,5.03,5.11-2.04,5.12-5.03,5.12-5.03-2.37-5.03-5.12Zm9.25-.02c0-2.31-1.71-4.31-4.23-4.31s-4.23,2-4.23,4.31,1.73,4.37,4.23,4.37,4.23-2.05,4.23-4.37Z"/><path class="e" d="M244.9,58.14v4.29h2.07v.78h-2.07v9.19h-.8v-9.19h-1.26v-.78h1.26v-4.39c0-1.12,.82-1.73,1.7-1.73,.52,0,.88,.18,1.18,.4v.86c-.3-.22-.62-.46-1.12-.46s-.96,.38-.96,1.04Z"/><path class="e" d="M255.25,70.96l.6-.56c.6,.8,1.48,1.36,2.45,1.36,1.2,0,2.2-.7,2.2-1.85,0-2.83-5.09-1.96-5.05-5.21,.02-1.4,1.2-2.39,2.73-2.41,1.28-.02,2.31,.74,2.91,1.42l-.52,.54c-.54-.6-1.31-1.18-2.37-1.18-1.12,0-1.95,.7-1.97,1.62-.06,2.59,5.07,1.74,5.03,5.23-.02,1.5-1.2,2.63-2.99,2.63-1.22,0-2.41-.72-3.01-1.58Z"/><path class="e" d="M263.21,67.39c0-2.73,2.04-5.11,5.03-5.11s5.03,2.37,5.03,5.11-2.03,5.12-5.03,5.12-5.03-2.37-5.03-5.12Zm9.25-.02c0-2.31-1.71-4.31-4.23-4.31s-4.23,2-4.23,4.31,1.74,4.37,4.23,4.37,4.23-2.05,4.23-4.37Z"/><path class="e" d="M276.03,59.76c0-.34,.26-.6,.6-.6s.6,.26,.6,.6c0,.36-.26,.6-.6,.6s-.6-.24-.6-.6Zm.2,2.67h.8v9.97h-.8v-9.97Z"/><path class="e" d="M280.74,56.45h.8v15.96h-.8v-15.96Z"/><path class="e" d="M290.27,74.79l4.79-18.35h.78l-4.79,18.35h-.78Z"/><path class="e" d="M312.41,62.43v9.97h-.8v-1.83c-.58,1.08-1.78,2-3.33,2-2.11,0-3.89-1.46-3.89-4.55v-5.58h.8v5.38c0,2.63,1.26,3.99,3.17,3.99,1.79,0,3.25-1.36,3.25-3.99v-5.38h.8Z"/><path class="e" d="M323.93,66.82v5.58h-.8v-5.38c0-2.63-1.26-3.99-3.17-3.99-1.79,0-3.25,1.36-3.25,3.99v5.38h-.8v-9.97h.8v1.83c.58-1.08,1.78-1.99,3.33-1.99,2.11,0,3.89,1.46,3.89,4.55Z"/><path class="e" d="M327.26,59.76c0-.34,.26-.6,.6-.6s.6,.26,.6,.6c0,.36-.26,.6-.6,.6s-.6-.24-.6-.6Zm.2,2.67h.8v9.97h-.8v-9.97Z"/><path class="e" d="M335.04,63.21h-2.05v9.19h-.8v-9.19h-1.28v-.78h1.28v-2.67h.8v2.67h2.05v.78Z"/><path class="e" d="M352.05,62.43l-4.57,10.01h-.36l-4.57-10.01h.86l3.89,8.62,3.89-8.62h.86Z"/><path class="e" d="M353.05,67.39c0-2.73,2.04-5.11,5.03-5.11s5.03,2.37,5.03,5.11-2.03,5.12-5.03,5.12-5.03-2.37-5.03-5.12Zm9.25-.02c0-2.31-1.71-4.31-4.23-4.31s-4.23,2-4.23,4.31,1.74,4.37,4.23,4.37,4.23-2.05,4.23-4.37Z"/><path class="e" d="M365.87,56.45h.8v15.96h-.8v-15.96Z"/><path class="e" d="M378.01,62.43v9.97h-.8v-1.83c-.58,1.08-1.78,2-3.33,2-2.11,0-3.89-1.46-3.89-4.55v-5.58h.8v5.38c0,2.63,1.26,3.99,3.17,3.99,1.79,0,3.25-1.36,3.25-3.99v-5.38h.8Z"/><path class="e" d="M395.44,66.46l-.02,5.94h-.8v-5.76c0-2.17-1.08-3.59-2.87-3.59s-2.87,1.42-2.87,3.79l-.02,5.56h-.8v-5.76c0-2.17-1.08-3.59-2.87-3.59s-2.87,1.42-2.87,3.79v5.56h-.8v-9.97h.8v1.6c.54-.96,1.5-1.75,2.97-1.75s2.77,.86,3.31,2.41c.42-1.2,1.46-2.41,3.25-2.41,1.95,0,3.59,1.5,3.59,4.19Z"/><path class="e" d="M398.43,67.63c.1,2.27,1.68,4.13,4.15,4.13,1.48,0,2.67-.64,3.47-1.54v1.04c-.88,.78-2.07,1.28-3.47,1.28-3.09,0-4.95-2.35-4.95-5.13s1.96-5.11,4.77-5.11,4.61,2.51,4.61,5.33h-8.58Zm7.72-.78c-.26-2.05-1.6-3.77-3.75-3.77s-3.71,1.66-3.93,3.77h7.68Z"/><path class="e" d="M2.17,302.05c0-.34,.26-.6,.6-.6s.6,.26,.6,.6c0,.36-.26,.6-.6,.6s-.6-.24-.6-.6Zm.2,2.67h.8v9.97h-.8v-9.97Z"/><path class="e" d="M14.89,309.11v5.58h-.8v-5.38c0-2.63-1.26-3.99-3.17-3.99-1.79,0-3.25,1.36-3.25,3.99v5.38h-.8v-9.97h.8v1.83c.58-1.08,1.78-2,3.33-2,2.11,0,3.89,1.46,3.89,4.55Z"/><path class="e" d="M33.99,314.24c0,3.15-2.35,4.59-4.67,4.59-1.52,0-2.75-.52-3.71-1.16l.02-.92c1.04,.78,2.23,1.32,3.59,1.32,2.23,0,4.01-1.4,3.99-3.97v-1.81c-.76,1.52-2.21,2.55-4.05,2.55-2.77,0-4.71-2.33-4.71-5.11s1.93-5.12,4.71-5.12c1.81,0,3.25,1.02,4.03,2.51l-.02-2.39h.8l.02,9.51Zm-.8-4.51c0-2.35-1.7-4.35-4.01-4.35s-3.93,1.99-3.93,4.35,1.62,4.33,3.93,4.33,4.01-1.97,4.01-4.33Z"/><path class="e" d="M37.56,309.93c.1,2.27,1.68,4.13,4.15,4.13,1.48,0,2.67-.64,3.47-1.54v1.04c-.88,.78-2.07,1.28-3.47,1.28-3.09,0-4.95-2.35-4.95-5.12s1.96-5.11,4.77-5.11,4.61,2.51,4.61,5.32h-8.58Zm7.72-.78c-.26-2.05-1.6-3.77-3.75-3.77s-3.71,1.66-3.93,3.77h7.68Z"/><path class="e" d="M56.83,309.11v5.58h-.8v-5.38c0-2.63-1.26-3.99-3.17-3.99-1.79,0-3.25,1.36-3.25,3.99v5.38h-.8v-9.97h.8v1.83c.58-1.08,1.78-2,3.33-2,2.12,0,3.89,1.46,3.89,4.55Z"/><path class="e" d="M59.82,309.93c.1,2.27,1.68,4.13,4.15,4.13,1.47,0,2.67-.64,3.47-1.54v1.04c-.88,.78-2.07,1.28-3.47,1.28-3.09,0-4.95-2.35-4.95-5.12s1.95-5.11,4.77-5.11,4.61,2.51,4.61,5.32h-8.58Zm7.72-.78c-.26-2.05-1.6-3.77-3.75-3.77s-3.71,1.66-3.93,3.77h7.68Z"/><path class="e" d="M74.73,304.6v.84c-1.73-.06-2.87,1.66-2.87,3.65v5.6h-.8v-9.97h.8v1.96c.48-1.08,1.42-2.07,2.87-2.07Z"/><path class="e" d="M85.24,304.72v9.97h-.8v-2.39c-.76,1.5-2.19,2.53-4.03,2.53-2.77,0-4.71-2.33-4.71-5.11s1.93-5.12,4.71-5.12c1.84,0,3.27,1.04,4.03,2.53v-2.41h.8Zm-.8,5.01c0-2.35-1.7-4.35-4.01-4.35s-3.93,1.99-3.93,4.35,1.62,4.33,3.93,4.33,4.01-1.97,4.01-4.33Z"/><path class="e" d="M88.75,298.74h.8v15.95h-.8v-15.95Z"/><path class="e" d="M92.72,312.46h.82l-.86,4.43h-.6l.64-4.43Z"/><path class="e" d="M106.12,305.5h-2.05v9.19h-.8v-9.19h-1.28v-.78h1.28v-2.67h.8v2.67h2.05v.78Z"/><path class="e" d="M116.25,309.11v5.58h-.8v-5.38c0-2.63-1.26-3.99-3.17-3.99-1.79,0-3.25,1.36-3.25,3.99v5.38h-.8v-15.95h.8v7.82c.58-1.08,1.78-2,3.33-2,2.12,0,3.89,1.46,3.89,4.55Z"/><path class="e" d="M119.24,309.93c.1,2.27,1.68,4.13,4.15,4.13,1.48,0,2.67-.64,3.47-1.54v1.04c-.88,.78-2.07,1.28-3.47,1.28-3.09,0-4.95-2.35-4.95-5.12s1.96-5.11,4.77-5.11,4.61,2.51,4.61,5.32h-8.58Zm7.72-.78c-.26-2.05-1.6-3.77-3.75-3.77s-3.71,1.66-3.93,3.77h7.68Z"/><path class="e" d="M137.47,298.74h.8v15.95h-.8v-15.95Z"/><path class="e" d="M141.04,309.69c0-2.73,2.04-5.11,5.03-5.11s5.03,2.37,5.03,5.11-2.03,5.13-5.03,5.13-5.03-2.37-5.03-5.13Zm9.25-.02c0-2.31-1.71-4.31-4.23-4.31s-4.23,1.99-4.23,4.31,1.74,4.37,4.23,4.37,4.23-2.05,4.23-4.37Z"/><path class="e" d="M167.22,304.72l-5.17,10.13h-.24l-2.23-4.51-2.21,4.51h-.24l-5.14-10.13h.88l4.41,8.74,1.92-3.95-2.33-4.79h.88l1.88,3.97,1.86-3.97h.88l-2.33,4.79,1.94,3.95,4.39-8.74h.9Z"/><path class="e" d="M168.92,309.93c.1,2.27,1.68,4.13,4.15,4.13,1.47,0,2.67-.64,3.47-1.54v1.04c-.88,.78-2.07,1.28-3.47,1.28-3.09,0-4.95-2.35-4.95-5.12s1.95-5.11,4.77-5.11,4.61,2.51,4.61,5.32h-8.58Zm7.72-.78c-.26-2.05-1.6-3.77-3.75-3.77s-3.71,1.66-3.93,3.77h7.68Z"/><path class="e" d="M183.83,304.6v.84c-1.73-.06-2.87,1.66-2.87,3.65v5.6h-.8v-9.97h.8v1.96c.48-1.08,1.42-2.07,2.87-2.07Z"/><path class="e" d="M196,305.5h-2.05v9.19h-.8v-9.19h-1.28v-.78h1.28v-2.67h.8v2.67h2.05v.78Z"/><path class="e" d="M206.13,309.11v5.58h-.8v-5.38c0-2.63-1.26-3.99-3.17-3.99-1.79,0-3.25,1.36-3.25,3.99v5.38h-.8v-15.95h.8v7.82c.58-1.08,1.78-2,3.33-2,2.11,0,3.89,1.46,3.89,4.55Z"/><path class="e" d="M209.12,309.93c.1,2.27,1.68,4.13,4.15,4.13,1.48,0,2.67-.64,3.47-1.54v1.04c-.88,.78-2.07,1.28-3.47,1.28-3.09,0-4.95-2.35-4.95-5.12s1.96-5.11,4.77-5.11,4.61,2.51,4.61,5.32h-8.58Zm7.72-.78c-.26-2.05-1.6-3.77-3.75-3.77s-3.71,1.66-3.93,3.77h7.68Z"/><path class="e" d="M235.36,309.11v5.58h-.8v-5.38c0-2.63-1.26-3.99-3.17-3.99-1.79,0-3.25,1.36-3.25,3.99v5.38h-.8v-9.97h.8v1.83c.58-1.08,1.78-2,3.33-2,2.11,0,3.89,1.46,3.89,4.55Z"/><path class="e" d="M246.53,304.72v9.97h-.8v-1.83c-.58,1.08-1.78,1.99-3.33,1.99-2.11,0-3.89-1.46-3.89-4.55v-5.58h.8v5.38c0,2.63,1.26,3.99,3.17,3.99,1.79,0,3.25-1.36,3.25-3.99v-5.38h.8Z"/><path class="e" d="M263.96,308.75l-.02,5.94h-.8v-5.76c0-2.17-1.08-3.59-2.87-3.59s-2.87,1.42-2.87,3.79l-.02,5.56h-.8v-5.76c0-2.17-1.08-3.59-2.87-3.59s-2.87,1.42-2.87,3.79v5.56h-.8v-9.97h.8v1.6c.54-.96,1.5-1.76,2.97-1.76s2.77,.86,3.31,2.41c.42-1.2,1.46-2.41,3.25-2.41,1.95,0,3.59,1.5,3.59,4.19Z"/><path class="e" d="M276.82,309.71c0,2.79-1.93,5.12-4.71,5.12-1.83,0-3.27-1.04-4.03-2.53v2.39h-.8v-15.95h.8v8.4c.76-1.5,2.19-2.53,4.03-2.53,2.77,0,4.71,2.33,4.71,5.11Zm-.8,0c0-2.35-1.62-4.33-3.93-4.33s-4.01,1.97-4.01,4.33,1.7,4.35,4.01,4.35,3.93-1.99,3.93-4.35Z"/><path class="e" d="M279.65,309.93c.1,2.27,1.68,4.13,4.15,4.13,1.48,0,2.67-.64,3.47-1.54v1.04c-.88,.78-2.07,1.28-3.47,1.28-3.09,0-4.95-2.35-4.95-5.12s1.96-5.11,4.77-5.11,4.61,2.51,4.61,5.32h-8.58Zm7.72-.78c-.26-2.05-1.6-3.77-3.75-3.77s-3.71,1.66-3.93,3.77h7.68Z"/><path class="e" d="M294.57,304.6v.84c-1.74-.06-2.87,1.66-2.87,3.65v5.6h-.8v-9.97h.8v1.96c.48-1.08,1.42-2.07,2.87-2.07Z"/><path class="e" d="M295.94,312.46h.82l-.86,4.43h-.6l.64-4.43Z"/><path class="e" d="M309.34,305.5h-2.05v9.19h-.8v-9.19h-1.28v-.78h1.28v-2.67h.8v2.67h2.05v.78Z"/><path class="e" d="M319.48,309.11v5.58h-.8v-5.38c0-2.63-1.26-3.99-3.17-3.99-1.79,0-3.25,1.36-3.25,3.99v5.38h-.8v-15.95h.8v7.82c.58-1.08,1.78-2,3.33-2,2.11,0,3.89,1.46,3.89,4.55Z"/><path class="e" d="M322.47,309.93c.1,2.27,1.68,4.13,4.15,4.13,1.48,0,2.67-.64,3.47-1.54v1.04c-.88,.78-2.07,1.28-3.47,1.28-3.09,0-4.95-2.35-4.95-5.12s1.96-5.11,4.77-5.11,4.61,2.51,4.61,5.32h-8.58Zm7.72-.78c-.26-2.05-1.6-3.77-3.75-3.77s-3.71,1.66-3.93,3.77h7.68Z"/><path class="e" d="M354.61,308.75l-.02,5.94h-.8v-5.76c0-2.17-1.08-3.59-2.87-3.59s-2.87,1.42-2.87,3.79l-.02,5.56h-.8v-5.76c0-2.17-1.08-3.59-2.87-3.59s-2.87,1.42-2.87,3.79v5.56h-.8v-9.97h.8v1.6c.54-.96,1.5-1.76,2.97-1.76s2.77,.86,3.31,2.41c.42-1.2,1.46-2.41,3.25-2.41,1.95,0,3.59,1.5,3.59,4.19Z"/><path class="e" d="M356.81,309.69c0-2.73,2.03-5.11,5.03-5.11s5.03,2.37,5.03,5.11-2.04,5.13-5.03,5.13-5.03-2.37-5.03-5.13Zm9.25-.02c0-2.31-1.71-4.31-4.23-4.31s-4.23,1.99-4.23,4.31,1.73,4.37,4.23,4.37,4.23-2.05,4.23-4.37Z"/><path class="e" d="M373.3,304.6v.84c-1.74-.06-2.87,1.66-2.87,3.65v5.6h-.8v-9.97h.8v1.96c.48-1.08,1.42-2.07,2.87-2.07Z"/><path class="e" d="M375.07,309.93c.1,2.27,1.68,4.13,4.15,4.13,1.47,0,2.67-.64,3.47-1.54v1.04c-.88,.78-2.07,1.28-3.47,1.28-3.09,0-4.95-2.35-4.95-5.12s1.95-5.11,4.77-5.11,4.61,2.51,4.61,5.32h-8.58Zm7.72-.78c-.26-2.05-1.6-3.77-3.75-3.77s-3.71,1.66-3.93,3.77h7.68Z"/><path class="e" d="M392.48,313.26l.6-.56c.6,.8,1.48,1.36,2.45,1.36,1.2,0,2.2-.7,2.2-1.86,0-2.83-5.09-1.95-5.05-5.21,.02-1.4,1.2-2.39,2.73-2.41,1.28-.02,2.31,.74,2.91,1.42l-.52,.54c-.54-.6-1.31-1.18-2.37-1.18-1.12,0-1.95,.7-1.97,1.62-.06,2.59,5.07,1.73,5.03,5.22-.02,1.5-1.2,2.63-2.99,2.63-1.22,0-2.41-.72-3.01-1.58Z"/><path class="e" d="M410.69,309.71c0,2.79-1.93,5.12-4.71,5.12-1.82,0-3.25-1.02-4.01-2.49v6.34h-.8v-13.96h.8v2.37c.76-1.48,2.19-2.49,4.01-2.49,2.77,0,4.71,2.33,4.71,5.11Zm-.8,0c0-2.35-1.62-4.33-3.93-4.33-2.17,0-3.79,1.73-3.99,3.89v.88c.2,2.15,1.81,3.91,3.99,3.91,2.31,0,3.93-1.99,3.93-4.35Z"/><path class="e" d="M422.25,304.72v9.97h-.8v-2.39c-.76,1.5-2.19,2.53-4.03,2.53-2.77,0-4.71-2.33-4.71-5.11s1.93-5.12,4.71-5.12c1.84,0,3.27,1.04,4.03,2.53v-2.41h.8Zm-.8,5.01c0-2.35-1.7-4.35-4.01-4.35s-3.93,1.99-3.93,4.35,1.62,4.33,3.93,4.33,4.01-1.97,4.01-4.33Z"/><path class="e" d="M425.03,309.71c0-2.77,1.97-5.13,5.07-5.13,1.39,0,2.59,.48,3.47,1.28v1.08c-.76-.94-1.99-1.58-3.47-1.58-2.59,0-4.27,1.99-4.27,4.35s1.68,4.35,4.27,4.35c1.47,0,2.71-.64,3.47-1.58v1.08c-.88,.8-2.07,1.28-3.47,1.28-3.09,0-5.07-2.35-5.07-5.12Z"/><path class="e" d="M436.61,309.93c.1,2.27,1.68,4.13,4.15,4.13,1.47,0,2.67-.64,3.47-1.54v1.04c-.88,.78-2.07,1.28-3.47,1.28-3.09,0-4.95-2.35-4.95-5.12s1.95-5.11,4.77-5.11,4.61,2.51,4.61,5.32h-8.58Zm7.72-.78c-.26-2.05-1.6-3.77-3.75-3.77s-3.71,1.66-3.93,3.77h7.68Z"/><path class="e" d="M463.63,304.72v9.97h-.8v-2.39c-.76,1.5-2.19,2.53-4.03,2.53-2.77,0-4.71-2.33-4.71-5.11s1.93-5.12,4.71-5.12c1.83,0,3.27,1.04,4.03,2.53v-2.41h.8Zm-.8,5.01c0-2.35-1.7-4.35-4.01-4.35s-3.93,1.99-3.93,4.35,1.62,4.33,3.93,4.33,4.01-1.97,4.01-4.33Z"/><path class="e" d="M475.06,304.72l-4.57,10.01h-.36l-4.57-10.01h.86l3.89,8.62,3.89-8.62h.86Z"/><path class="e" d="M485.59,304.72v9.97h-.8v-2.39c-.76,1.5-2.19,2.53-4.03,2.53-2.77,0-4.71-2.33-4.71-5.11s1.93-5.12,4.71-5.12c1.83,0,3.27,1.04,4.03,2.53v-2.41h.8Zm-.8,5.01c0-2.35-1.7-4.35-4.01-4.35s-3.93,1.99-3.93,4.35,1.62,4.33,3.93,4.33,4.01-1.97,4.01-4.33Z"/><path class="e" d="M489.1,302.05c0-.34,.26-.6,.6-.6s.6,.26,.6,.6c0,.36-.26,.6-.6,.6s-.6-.24-.6-.6Zm.2,2.67h.8v9.97h-.8v-9.97Z"/><path class="e" d="M493.8,298.74h.8v15.95h-.8v-15.95Z"/><path class="e" d="M506.9,304.72v9.97h-.8v-2.39c-.76,1.5-2.19,2.53-4.03,2.53-2.77,0-4.71-2.33-4.71-5.11s1.93-5.12,4.71-5.12c1.84,0,3.27,1.04,4.03,2.53v-2.41h.8Zm-.8,5.01c0-2.35-1.7-4.35-4.01-4.35s-3.93,1.99-3.93,4.35,1.62,4.33,3.93,4.33,4.01-1.97,4.01-4.33Z"/><path class="e" d="M519.95,309.71c0,2.79-1.94,5.12-4.71,5.12-1.84,0-3.27-1.04-4.03-2.53v2.39h-.8v-15.95h.8v8.4c.76-1.5,2.19-2.53,4.03-2.53,2.77,0,4.71,2.33,4.71,5.11Zm-.8,0c0-2.35-1.62-4.33-3.93-4.33s-4.01,1.97-4.01,4.33,1.7,4.35,4.01,4.35,3.93-1.99,3.93-4.35Z"/><path class="e" d="M522.72,298.74h.8v15.95h-.8v-15.95Z"/><path class="e" d="M527.08,309.93c.1,2.27,1.68,4.13,4.15,4.13,1.48,0,2.67-.64,3.47-1.54v1.04c-.88,.78-2.07,1.28-3.47,1.28-3.09,0-4.95-2.35-4.95-5.12s1.96-5.11,4.77-5.11,4.61,2.51,4.61,5.32h-8.58Zm7.72-.78c-.26-2.05-1.6-3.77-3.75-3.77s-3.71,1.66-3.93,3.77h7.68Z"/><path class="e" d="M11.79,327.36v4.29h2.07v.78h-2.07v9.19h-.8v-9.19h-1.26v-.78h1.26v-4.39c0-1.12,.82-1.74,1.7-1.74,.52,0,.88,.18,1.18,.4v.86c-.3-.22-.62-.46-1.12-.46s-.96,.38-.96,1.04Z"/><path class="e" d="M14.84,336.61c0-2.73,2.04-5.11,5.03-5.11s5.03,2.37,5.03,5.11-2.03,5.13-5.03,5.13-5.03-2.37-5.03-5.13Zm9.25-.02c0-2.31-1.71-4.31-4.23-4.31s-4.23,1.99-4.23,4.31,1.74,4.37,4.23,4.37,4.23-2.05,4.23-4.37Z"/><path class="e" d="M31.33,331.53v.84c-1.73-.06-2.87,1.66-2.87,3.65v5.6h-.8v-9.97h.8v1.96c.48-1.08,1.42-2.07,2.87-2.07Z"/><path class="e" d="M49.22,331.64v9.97h-.8v-2.39c-.76,1.5-2.19,2.53-4.03,2.53-2.77,0-4.71-2.33-4.71-5.11s1.93-5.12,4.71-5.12c1.83,0,3.27,1.04,4.03,2.53v-2.41h.8Zm-.8,5.01c0-2.35-1.7-4.35-4.01-4.35s-3.93,1.99-3.93,4.35,1.62,4.33,3.93,4.33,4.01-1.97,4.01-4.33Z"/><path class="e" d="M52.73,328.97c0-.34,.26-.6,.6-.6s.6,.26,.6,.6c0,.36-.26,.6-.6,.6s-.6-.24-.6-.6Zm.2,2.67h.8v9.97h-.8v-9.97Z"/><path class="e" d="M61.1,331.53v.84c-1.74-.06-2.87,1.66-2.87,3.65v5.6h-.8v-9.97h.8v1.96c.48-1.08,1.42-2.07,2.87-2.07Z"/><path class="e" d="M78.99,331.64v9.97h-.8v-2.39c-.76,1.5-2.19,2.53-4.03,2.53-2.77,0-4.71-2.33-4.71-5.11s1.93-5.12,4.71-5.12c1.84,0,3.27,1.04,4.03,2.53v-2.41h.8Zm-.8,5.01c0-2.35-1.7-4.35-4.01-4.35s-3.93,1.99-3.93,4.35,1.62,4.33,3.93,4.33,4.01-1.97,4.01-4.33Z"/><path class="e" d="M90.52,336.03v5.58h-.8v-5.38c0-2.63-1.26-3.99-3.17-3.99-1.79,0-3.25,1.36-3.25,3.99v5.38h-.8v-9.97h.8v1.83c.58-1.08,1.78-2,3.33-2,2.12,0,3.89,1.46,3.89,4.55Z"/><path class="e" d="M102.24,325.66v15.95h-.8v-2.39c-.76,1.5-2.19,2.53-4.03,2.53-2.77,0-4.71-2.33-4.71-5.11s1.93-5.12,4.71-5.12c1.84,0,3.27,1.04,4.03,2.53v-8.4h.8Zm-.8,10.99c0-2.35-1.7-4.35-4.01-4.35s-3.93,1.99-3.93,4.35,1.62,4.33,3.93,4.33,4.01-1.97,4.01-4.33Z"/><path class="e" d="M126.29,331.64l-5.17,10.13h-.24l-2.23-4.51-2.21,4.51h-.24l-5.14-10.13h.88l4.41,8.74,1.92-3.95-2.33-4.79h.88l1.88,3.97,1.86-3.97h.88l-2.33,4.79,1.94,3.95,4.39-8.74h.9Z"/><path class="e" d="M136.72,331.64v9.97h-.8v-2.39c-.76,1.5-2.19,2.53-4.03,2.53-2.77,0-4.71-2.33-4.71-5.11s1.93-5.12,4.71-5.12c1.84,0,3.27,1.04,4.03,2.53v-2.41h.8Zm-.8,5.01c0-2.35-1.7-4.35-4.01-4.35s-3.93,1.99-3.93,4.35,1.62,4.33,3.93,4.33,4.01-1.97,4.01-4.33Z"/><path class="e" d="M143.3,332.42h-2.05v9.19h-.8v-9.19h-1.28v-.78h1.28v-2.67h.8v2.67h2.05v.78Z"/><path class="e" d="M145.07,336.85c.1,2.27,1.68,4.13,4.15,4.13,1.48,0,2.67-.64,3.47-1.54v1.04c-.88,.78-2.07,1.28-3.47,1.28-3.09,0-4.95-2.35-4.95-5.12s1.96-5.11,4.77-5.11,4.61,2.51,4.61,5.32h-8.58Zm7.72-.78c-.26-2.05-1.6-3.77-3.75-3.77s-3.71,1.66-3.93,3.77h7.68Z"/><path class="e" d="M159.99,331.53v.84c-1.74-.06-2.87,1.66-2.87,3.65v5.6h-.8v-9.97h.8v1.96c.48-1.08,1.42-2.07,2.87-2.07Z"/><path class="e" d="M172.16,332.42h-2.05v9.19h-.8v-9.19h-1.28v-.78h1.28v-2.67h.8v2.67h2.05v.78Z"/><path class="e" d="M173.13,336.61c0-2.73,2.04-5.11,5.03-5.11s5.03,2.37,5.03,5.11-2.03,5.13-5.03,5.13-5.03-2.37-5.03-5.13Zm9.25-.02c0-2.31-1.71-4.31-4.23-4.31s-4.23,1.99-4.23,4.31,1.74,4.37,4.23,4.37,4.23-2.05,4.23-4.37Z"/><path class="e" d="M194.83,325.52c.52,0,.88,.18,1.18,.4v.86c-.3-.22-.62-.46-1.12-.46s-.96,.38-.96,1.04v4.29h2.07v.78h-2.07v9.19h-.8v-9.19h-1.26v-.78h1.26v-4.39c0-1.12,.82-1.74,1.7-1.74Zm4.09,.14v15.95h-.8v-15.95h.8Z"/><path class="e" d="M201.69,336.61c0-2.73,2.04-5.11,5.03-5.11s5.03,2.37,5.03,5.11-2.03,5.13-5.03,5.13-5.03-2.37-5.03-5.13Zm9.25-.02c0-2.31-1.71-4.31-4.23-4.31s-4.23,1.99-4.23,4.31,1.74,4.37,4.23,4.37,4.23-2.05,4.23-4.37Z"/><path class="e" d="M227.88,331.64l-5.17,10.13h-.24l-2.23-4.51-2.21,4.51h-.24l-5.14-10.13h.88l4.41,8.74,1.92-3.95-2.33-4.79h.88l1.88,3.97,1.86-3.97h.88l-2.33,4.79,1.94,3.95,4.39-8.74h.9Z"/><path class="e" d="M228.73,332.16c0-.34,.26-.62,.6-.62s.6,.28,.6,.62-.26,.6-.6,.6-.6-.26-.6-.6Zm.64,7.22h.82l-.86,4.43h-.6l.64-4.43Z"/><path class="e" d="M253.26,331.64l-5.17,10.13h-.24l-2.23-4.51-2.21,4.51h-.24l-5.14-10.13h.88l4.41,8.74,1.92-3.95-2.33-4.79h.88l1.88,3.97,1.86-3.97h.88l-2.33,4.79,1.94,3.95,4.39-8.74h.9Z"/><path class="e" d="M263.11,336.03v5.58h-.8v-5.38c0-2.63-1.26-3.99-3.17-3.99-1.79,0-3.25,1.36-3.25,3.99v5.38h-.8v-15.95h.8v7.82c.58-1.08,1.78-2,3.33-2,2.11,0,3.89,1.46,3.89,4.55Z"/><path class="e" d="M266.44,328.97c0-.34,.26-.6,.6-.6s.6,.26,.6,.6c0,.36-.26,.6-.6,.6s-.6-.24-.6-.6Zm.2,2.67h.8v9.97h-.8v-9.97Z"/><path class="e" d="M271.15,325.66h.8v15.95h-.8v-15.95Z"/><path class="e" d="M275.51,336.85c.1,2.27,1.68,4.13,4.15,4.13,1.48,0,2.67-.64,3.47-1.54v1.04c-.88,.78-2.07,1.28-3.47,1.28-3.09,0-4.95-2.35-4.95-5.12s1.96-5.11,4.77-5.11,4.61,2.51,4.61,5.32h-8.58Zm7.72-.78c-.26-2.05-1.6-3.77-3.75-3.77s-3.71,1.66-3.93,3.77h7.68Z"/><path class="e" d="M296.81,332.42h-2.05v9.19h-.8v-9.19h-1.28v-.78h1.28v-2.67h.8v2.67h2.05v.78Z"/><path class="e" d="M306.94,336.03v5.58h-.8v-5.38c0-2.63-1.26-3.99-3.17-3.99-1.79,0-3.25,1.36-3.25,3.99v5.38h-.8v-15.95h.8v7.82c.58-1.08,1.78-2,3.33-2,2.12,0,3.89,1.46,3.89,4.55Z"/><path class="e" d="M309.93,336.85c.1,2.27,1.68,4.13,4.15,4.13,1.47,0,2.67-.64,3.47-1.54v1.04c-.88,.78-2.07,1.28-3.47,1.28-3.09,0-4.95-2.35-4.95-5.12s1.95-5.11,4.77-5.11,4.61,2.51,4.61,5.32h-8.58Zm7.72-.78c-.26-2.05-1.6-3.77-3.75-3.77s-3.71,1.66-3.93,3.77h7.68Z"/><path class="e" d="M336.18,336.03v5.58h-.8v-5.38c0-2.63-1.26-3.99-3.17-3.99-1.79,0-3.25,1.36-3.25,3.99v5.38h-.8v-15.95h.8v7.82c.58-1.08,1.78-2,3.33-2,2.12,0,3.89,1.46,3.89,4.55Z"/><path class="e" d="M339.5,328.97c0-.34,.26-.6,.6-.6s.6,.26,.6,.6c0,.36-.26,.6-.6,.6s-.6-.24-.6-.6Zm.2,2.67h.8v9.97h-.8v-9.97Z"/><path class="e" d="M353.01,341.16c0,3.15-2.35,4.59-4.67,4.59-1.52,0-2.75-.52-3.71-1.16l.02-.92c1.04,.78,2.23,1.32,3.59,1.32,2.23,0,4.01-1.4,3.99-3.97v-1.81c-.76,1.52-2.21,2.55-4.05,2.55-2.77,0-4.71-2.33-4.71-5.11s1.93-5.12,4.71-5.12c1.81,0,3.25,1.02,4.03,2.51l-.02-2.39h.8l.02,9.51Zm-.8-4.51c0-2.35-1.7-4.35-4.01-4.35s-3.93,1.99-3.93,4.35,1.62,4.33,3.93,4.33,4.01-1.97,4.01-4.33Z"/><path class="e" d="M364.53,336.03v5.58h-.8v-5.38c0-2.63-1.26-3.99-3.17-3.99-1.79,0-3.25,1.36-3.25,3.99v5.38h-.8v-15.95h.8v7.82c.58-1.08,1.78-2,3.33-2,2.11,0,3.89,1.46,3.89,4.55Z"/><path class="e" d="M367.52,336.85c.1,2.27,1.68,4.13,4.15,4.13,1.48,0,2.67-.64,3.47-1.54v1.04c-.88,.78-2.07,1.28-3.47,1.28-3.09,0-4.95-2.35-4.95-5.12s1.96-5.11,4.77-5.11,4.61,2.51,4.61,5.32h-8.58Zm7.72-.78c-.26-2.05-1.6-3.77-3.75-3.77s-3.71,1.66-3.93,3.77h7.68Z"/><path class="e" d="M382.44,331.53v.84c-1.74-.06-2.87,1.66-2.87,3.65v5.6h-.8v-9.97h.8v1.96c.48-1.08,1.42-2.07,2.87-2.07Z"/><path class="e" d="M394.6,332.42h-2.05v9.19h-.8v-9.19h-1.28v-.78h1.28v-2.67h.8v2.67h2.05v.78Z"/><path class="e" d="M404.74,336.03v5.58h-.8v-5.38c0-2.63-1.26-3.99-3.17-3.99-1.79,0-3.25,1.36-3.25,3.99v5.38h-.8v-15.95h.8v7.82c.58-1.08,1.78-2,3.33-2,2.12,0,3.89,1.46,3.89,4.55Z"/><path class="e" d="M407.73,336.85c.1,2.27,1.68,4.13,4.15,4.13,1.47,0,2.67-.64,3.47-1.54v1.04c-.88,.78-2.07,1.28-3.47,1.28-3.09,0-4.95-2.35-4.95-5.12s1.95-5.11,4.77-5.11,4.61,2.51,4.61,5.32h-8.58Zm7.72-.78c-.26-2.05-1.6-3.77-3.75-3.77s-3.71,1.66-3.93,3.77h7.68Z"/><path class="e" d="M433.97,336.03v5.58h-.8v-5.38c0-2.63-1.26-3.99-3.17-3.99-1.79,0-3.25,1.36-3.25,3.99v5.38h-.8v-9.97h.8v1.83c.58-1.08,1.78-2,3.33-2,2.12,0,3.89,1.46,3.89,4.55Z"/><path class="e" d="M445.14,331.64v9.97h-.8v-1.83c-.58,1.08-1.78,1.99-3.33,1.99-2.12,0-3.89-1.46-3.89-4.55v-5.58h.8v5.38c0,2.63,1.26,3.99,3.17,3.99,1.79,0,3.25-1.36,3.25-3.99v-5.38h.8Z"/><path class="e" d="M462.57,335.67l-.02,5.94h-.8v-5.76c0-2.17-1.08-3.59-2.87-3.59s-2.87,1.42-2.87,3.79l-.02,5.56h-.8v-5.76c0-2.17-1.08-3.59-2.87-3.59s-2.87,1.42-2.87,3.79v5.56h-.8v-9.97h.8v1.6c.54-.96,1.5-1.76,2.97-1.76s2.77,.86,3.31,2.41c.42-1.2,1.46-2.41,3.25-2.41,1.96,0,3.59,1.5,3.59,4.19Z"/><path class="e" d="M475.43,336.63c0,2.79-1.94,5.12-4.71,5.12-1.84,0-3.27-1.04-4.03-2.53v2.39h-.8v-15.95h.8v8.4c.76-1.5,2.19-2.53,4.03-2.53,2.77,0,4.71,2.33,4.71,5.11Zm-.8,0c0-2.35-1.62-4.33-3.93-4.33s-4.01,1.97-4.01,4.33,1.7,4.35,4.01,4.35,3.93-1.99,3.93-4.35Z"/><path class="e" d="M478.26,336.85c.1,2.27,1.68,4.13,4.15,4.13,1.47,0,2.67-.64,3.47-1.54v1.04c-.88,.78-2.07,1.28-3.47,1.28-3.09,0-4.95-2.35-4.95-5.12s1.95-5.11,4.77-5.11,4.61,2.51,4.61,5.32h-8.58Zm7.72-.78c-.26-2.05-1.6-3.77-3.75-3.77s-3.71,1.66-3.93,3.77h7.68Z"/><path class="e" d="M493.17,331.53v.84c-1.73-.06-2.87,1.66-2.87,3.65v5.6h-.8v-9.97h.8v1.96c.48-1.08,1.42-2.07,2.87-2.07Z"/><path class="e" d="M505.34,332.42h-2.05v9.19h-.8v-9.19h-1.28v-.78h1.28v-2.67h.8v2.67h2.05v.78Z"/><path class="e" d="M515.47,336.03v5.58h-.8v-5.38c0-2.63-1.26-3.99-3.17-3.99-1.79,0-3.25,1.36-3.25,3.99v5.38h-.8v-15.95h.8v7.82c.58-1.08,1.78-2,3.33-2,2.11,0,3.89,1.46,3.89,4.55Z"/><path class="e" d="M518.46,336.85c.1,2.27,1.68,4.13,4.15,4.13,1.47,0,2.67-.64,3.47-1.54v1.04c-.88,.78-2.07,1.28-3.47,1.28-3.09,0-4.95-2.35-4.95-5.12s1.95-5.11,4.77-5.11,4.61,2.51,4.61,5.32h-8.58Zm7.72-.78c-.26-2.05-1.6-3.77-3.75-3.77s-3.71,1.66-3.93,3.77h7.68Z"/><path class="e" d="M66.88,362.59l-.02,5.94h-.8v-5.76c0-2.17-1.08-3.59-2.87-3.59s-2.87,1.42-2.87,3.79l-.02,5.56h-.8v-5.76c0-2.17-1.08-3.59-2.87-3.59s-2.87,1.42-2.87,3.79v5.56h-.8v-9.97h.8v1.6c.54-.96,1.5-1.76,2.97-1.76s2.77,.86,3.31,2.41c.42-1.2,1.46-2.41,3.25-2.41,1.95,0,3.59,1.5,3.59,4.19Z"/><path class="e" d="M69.07,363.53c0-2.73,2.03-5.11,5.03-5.11s5.03,2.37,5.03,5.11-2.04,5.13-5.03,5.13-5.03-2.37-5.03-5.13Zm9.25-.02c0-2.31-1.71-4.31-4.23-4.31s-4.23,1.99-4.23,4.31,1.73,4.37,4.23,4.37,4.23-2.05,4.23-4.37Z"/><path class="e" d="M85.56,358.45v.84c-1.74-.06-2.87,1.66-2.87,3.65v5.6h-.8v-9.97h.8v1.95c.48-1.08,1.42-2.07,2.87-2.07Z"/><path class="e" d="M87.34,363.77c.1,2.27,1.68,4.13,4.15,4.13,1.48,0,2.67-.64,3.47-1.54v1.04c-.88,.78-2.07,1.28-3.47,1.28-3.09,0-4.95-2.35-4.95-5.13s1.96-5.11,4.77-5.11,4.61,2.51,4.61,5.33h-8.58Zm7.72-.78c-.26-2.05-1.6-3.77-3.75-3.77s-3.71,1.65-3.93,3.77h7.68Z"/><path class="e" d="M104.83,363.55c0-2.77,1.97-5.13,5.06-5.13,1.4,0,2.59,.48,3.47,1.28v1.08c-.76-.94-1.99-1.58-3.47-1.58-2.59,0-4.27,1.99-4.27,4.35s1.68,4.35,4.27,4.35c1.48,0,2.71-.64,3.47-1.58v1.08c-.88,.8-2.07,1.28-3.47,1.28-3.09,0-5.06-2.35-5.06-5.13Z"/><path class="e" d="M115.61,363.53c0-2.73,2.04-5.11,5.03-5.11s5.03,2.37,5.03,5.11-2.03,5.13-5.03,5.13-5.03-2.37-5.03-5.13Zm9.25-.02c0-2.31-1.71-4.31-4.23-4.31s-4.23,1.99-4.23,4.31,1.74,4.37,4.23,4.37,4.23-2.05,4.23-4.37Z"/><path class="e" d="M142.36,362.59l-.02,5.94h-.8v-5.76c0-2.17-1.08-3.59-2.87-3.59s-2.87,1.42-2.87,3.79l-.02,5.56h-.8v-5.76c0-2.17-1.08-3.59-2.87-3.59s-2.87,1.42-2.87,3.79v5.56h-.8v-9.97h.8v1.6c.54-.96,1.5-1.76,2.97-1.76s2.77,.86,3.31,2.41c.42-1.2,1.46-2.41,3.25-2.41,1.95,0,3.59,1.5,3.59,4.19Z"/><path class="e" d="M155.2,363.55c0,2.79-1.94,5.13-4.71,5.13-1.81,0-3.25-1.02-4.01-2.49v6.34h-.8v-13.96h.8v2.37c.76-1.48,2.19-2.49,4.01-2.49,2.77,0,4.71,2.33,4.71,5.11Zm-.8,0c0-2.35-1.62-4.33-3.93-4.33-2.17,0-3.79,1.73-3.99,3.89v.88c.2,2.15,1.81,3.91,3.99,3.91,2.31,0,3.93-1.99,3.93-4.35Z"/><path class="e" d="M166.77,358.57v9.97h-.8v-2.39c-.76,1.5-2.19,2.53-4.03,2.53-2.77,0-4.71-2.33-4.71-5.11s1.93-5.13,4.71-5.13c1.83,0,3.27,1.04,4.03,2.53v-2.41h.8Zm-.8,5.01c0-2.35-1.7-4.35-4.01-4.35s-3.93,1.99-3.93,4.35,1.62,4.33,3.93,4.33,4.01-1.97,4.01-4.33Z"/><path class="e" d="M169.54,363.55c0-2.77,1.97-5.13,5.06-5.13,1.4,0,2.59,.48,3.47,1.28v1.08c-.76-.94-1.99-1.58-3.47-1.58-2.59,0-4.27,1.99-4.27,4.35s1.68,4.35,4.27,4.35c1.48,0,2.71-.64,3.47-1.58v1.08c-.88,.8-2.07,1.28-3.47,1.28-3.09,0-5.06-2.35-5.06-5.13Z"/><path class="e" d="M184.13,359.34h-2.05v9.19h-.8v-9.19h-1.28v-.78h1.28v-2.67h.8v2.67h2.05v.78Z"/><path class="e" d="M185.91,363.77c.1,2.27,1.68,4.13,4.15,4.13,1.48,0,2.67-.64,3.47-1.54v1.04c-.88,.78-2.07,1.28-3.47,1.28-3.09,0-4.95-2.35-4.95-5.13s1.96-5.11,4.77-5.11,4.61,2.51,4.61,5.33h-8.58Zm7.72-.78c-.26-2.05-1.6-3.77-3.75-3.77s-3.71,1.65-3.93,3.77h7.68Z"/><path class="e" d="M205.95,352.58v15.95h-.8v-2.39c-.76,1.5-2.19,2.53-4.03,2.53-2.77,0-4.71-2.33-4.71-5.11s1.93-5.13,4.71-5.13c1.83,0,3.27,1.04,4.03,2.53v-8.4h.8Zm-.8,10.99c0-2.35-1.7-4.35-4.01-4.35s-3.93,1.99-3.93,4.35,1.62,4.33,3.93,4.33,4.01-1.97,4.01-4.33Z"/><path class="e" d="M219.51,359.34h-2.05v9.19h-.8v-9.19h-1.28v-.78h1.28v-2.67h.8v2.67h2.05v.78Z"/><path class="e" d="M229.64,362.95v5.58h-.8v-5.38c0-2.63-1.26-3.99-3.17-3.99-1.79,0-3.25,1.36-3.25,3.99v5.38h-.8v-15.95h.8v7.82c.58-1.08,1.78-1.99,3.33-1.99,2.11,0,3.89,1.46,3.89,4.55Z"/><path class="e" d="M232.63,363.77c.1,2.27,1.68,4.13,4.15,4.13,1.48,0,2.67-.64,3.47-1.54v1.04c-.88,.78-2.07,1.28-3.47,1.28-3.09,0-4.95-2.35-4.95-5.13s1.96-5.11,4.77-5.11,4.61,2.51,4.61,5.33h-8.58Zm7.72-.78c-.26-2.05-1.6-3.77-3.75-3.77s-3.71,1.65-3.93,3.77h7.68Z"/><path class="e" d="M250.04,367.1l.6-.56c.6,.8,1.48,1.36,2.45,1.36,1.2,0,2.19-.7,2.19-1.85,0-2.83-5.09-1.96-5.04-5.21,.02-1.4,1.2-2.39,2.73-2.41,1.28-.02,2.31,.74,2.91,1.42l-.52,.54c-.54-.6-1.32-1.18-2.37-1.18-1.12,0-1.96,.7-1.97,1.62-.06,2.59,5.07,1.74,5.03,5.23-.02,1.5-1.2,2.63-2.99,2.63-1.22,0-2.41-.72-3.01-1.58Z"/><path class="e" d="M258,363.53c0-2.73,2.03-5.11,5.03-5.11s5.03,2.37,5.03,5.11-2.04,5.13-5.03,5.13-5.03-2.37-5.03-5.13Zm9.25-.02c0-2.31-1.71-4.31-4.23-4.31s-4.23,1.99-4.23,4.31,1.73,4.37,4.23,4.37,4.23-2.05,4.23-4.37Z"/><path class="e" d="M270.82,355.89c0-.34,.26-.6,.6-.6s.6,.26,.6,.6c0,.36-.26,.6-.6,.6s-.6-.24-.6-.6Zm.2,2.67h.8v9.97h-.8v-9.97Z"/><path class="e" d="M275.52,352.58h.8v15.95h-.8v-15.95Z"/><path class="e" d="M279.49,366.3h.82l-.86,4.43h-.6l.64-4.43Z"/><path class="e" d="M293.49,358.45v.84c-1.74-.06-2.87,1.66-2.87,3.65v5.6h-.8v-9.97h.8v1.95c.48-1.08,1.42-2.07,2.87-2.07Z"/><path class="e" d="M295.27,363.77c.1,2.27,1.68,4.13,4.15,4.13,1.48,0,2.67-.64,3.47-1.54v1.04c-.88,.78-2.07,1.28-3.47,1.28-3.09,0-4.95-2.35-4.95-5.13s1.96-5.11,4.77-5.11,4.61,2.51,4.61,5.33h-8.58Zm7.72-.78c-.26-2.05-1.6-3.77-3.75-3.77s-3.71,1.65-3.93,3.77h7.68Z"/><path class="e" d="M305.7,367.1l.6-.56c.6,.8,1.48,1.36,2.45,1.36,1.2,0,2.2-.7,2.2-1.85,0-2.83-5.09-1.96-5.05-5.21,.02-1.4,1.2-2.39,2.73-2.41,1.28-.02,2.31,.74,2.91,1.42l-.52,.54c-.54-.6-1.31-1.18-2.37-1.18-1.12,0-1.95,.7-1.97,1.62-.06,2.59,5.07,1.74,5.03,5.23-.02,1.5-1.2,2.63-2.99,2.63-1.22,0-2.41-.72-3.01-1.58Z"/><path class="e" d="M317.06,359.34h-2.05v9.19h-.8v-9.19h-1.28v-.78h1.28v-2.67h.8v2.67h2.05v.78Z"/><path class="e" d="M322.85,358.45v.84c-1.73-.06-2.87,1.66-2.87,3.65v5.6h-.8v-9.97h.8v1.95c.48-1.08,1.42-2.07,2.87-2.07Z"/><path class="e" d="M324.96,355.89c0-.34,.26-.6,.6-.6s.6,.26,.6,.6c0,.36-.26,.6-.6,.6s-.6-.24-.6-.6Zm.2,2.67h.8v9.97h-.8v-9.97Z"/><path class="e" d="M328.93,363.55c0-2.77,1.97-5.13,5.07-5.13,1.39,0,2.59,.48,3.47,1.28v1.08c-.76-.94-1.99-1.58-3.47-1.58-2.59,0-4.27,1.99-4.27,4.35s1.68,4.35,4.27,4.35c1.47,0,2.71-.64,3.47-1.58v1.08c-.88,.8-2.07,1.28-3.47,1.28-3.09,0-5.07-2.35-5.07-5.13Z"/><path class="e" d="M343.53,359.34h-2.05v9.19h-.8v-9.19h-1.28v-.78h1.28v-2.67h.8v2.67h2.05v.78Z"/><path class="e" d="M345.64,355.89c0-.34,.26-.6,.6-.6s.6,.26,.6,.6c0,.36-.26,.6-.6,.6s-.6-.24-.6-.6Zm.2,2.67h.8v9.97h-.8v-9.97Z"/><path class="e" d="M358.36,362.95v5.58h-.8v-5.38c0-2.63-1.26-3.99-3.17-3.99-1.79,0-3.25,1.36-3.25,3.99v5.38h-.8v-9.97h.8v1.83c.58-1.08,1.78-1.99,3.33-1.99,2.11,0,3.89,1.46,3.89,4.55Z"/><path class="e" d="M370.09,368.08c0,3.15-2.35,4.59-4.67,4.59-1.52,0-2.75-.52-3.71-1.16l.02-.92c1.04,.78,2.23,1.32,3.59,1.32,2.23,0,4.01-1.4,3.99-3.97v-1.81c-.76,1.52-2.21,2.55-4.05,2.55-2.77,0-4.71-2.33-4.71-5.11s1.93-5.13,4.71-5.13c1.81,0,3.25,1.02,4.03,2.51l-.02-2.39h.8l.02,9.51Zm-.8-4.51c0-2.35-1.7-4.35-4.01-4.35s-3.93,1.99-3.93,4.35,1.62,4.33,3.93,4.33,4.01-1.97,4.01-4.33Z"/><path class="e" d="M384.25,358.45v.84c-1.74-.06-2.87,1.66-2.87,3.65v5.6h-.8v-9.97h.8v1.95c.48-1.08,1.42-2.07,2.87-2.07Z"/><path class="e" d="M385.22,363.53c0-2.73,2.04-5.11,5.03-5.11s5.03,2.37,5.03,5.11-2.03,5.13-5.03,5.13-5.03-2.37-5.03-5.13Zm9.25-.02c0-2.31-1.71-4.31-4.23-4.31s-4.23,1.99-4.23,4.31,1.74,4.37,4.23,4.37,4.23-2.05,4.23-4.37Z"/><path class="e" d="M397.31,363.53c0-2.73,2.03-5.11,5.03-5.11s5.03,2.37,5.03,5.11-2.04,5.13-5.03,5.13-5.03-2.37-5.03-5.13Zm9.25-.02c0-2.31-1.71-4.31-4.23-4.31s-4.23,1.99-4.23,4.31,1.73,4.37,4.23,4.37,4.23-2.05,4.23-4.37Z"/><path class="e" d="M413,359.34h-2.05v9.19h-.8v-9.19h-1.28v-.78h1.28v-2.67h.8v2.67h2.05v.78Z"/><path class="e" d="M430.89,368.08c0,3.15-2.35,4.59-4.67,4.59-1.52,0-2.75-.52-3.71-1.16l.02-.92c1.04,.78,2.23,1.32,3.59,1.32,2.23,0,4.01-1.4,3.99-3.97v-1.81c-.76,1.52-2.21,2.55-4.05,2.55-2.77,0-4.71-2.33-4.71-5.11s1.93-5.13,4.71-5.13c1.81,0,3.25,1.02,4.03,2.51l-.02-2.39h.8l.02,9.51Zm-.8-4.51c0-2.35-1.7-4.35-4.01-4.35s-3.93,1.99-3.93,4.35,1.62,4.33,3.93,4.33,4.01-1.97,4.01-4.33Z"/><path class="e" d="M438.07,358.45v.84c-1.73-.06-2.87,1.66-2.87,3.65v5.6h-.8v-9.97h.8v1.95c.48-1.08,1.42-2.07,2.87-2.07Z"/><path class="e" d="M439.05,363.53c0-2.73,2.04-5.11,5.03-5.11s5.03,2.37,5.03,5.11-2.03,5.13-5.03,5.13-5.03-2.37-5.03-5.13Zm9.25-.02c0-2.31-1.71-4.31-4.23-4.31s-4.23,1.99-4.23,4.31,1.74,4.37,4.23,4.37,4.23-2.05,4.23-4.37Z"/><path class="e" d="M465.23,358.57l-5.17,10.13h-.24l-2.23-4.51-2.21,4.51h-.24l-5.14-10.13h.88l4.41,8.73,1.92-3.95-2.33-4.79h.88l1.88,3.97,1.86-3.97h.88l-2.33,4.79,1.94,3.95,4.39-8.73h.9Z"/><path class="e" d="M470.14,359.34h-2.05v9.19h-.8v-9.19h-1.28v-.78h1.28v-2.67h.8v2.67h2.05v.78Z"/><path class="e" d="M480.27,362.95v5.58h-.8v-5.38c0-2.63-1.26-3.99-3.17-3.99-1.79,0-3.25,1.36-3.25,3.99v5.38h-.8v-15.95h.8v7.82c.58-1.08,1.78-1.99,3.33-1.99,2.12,0,3.89,1.46,3.89,4.55Z"/><path class="e" d="M483.22,368.02c0-.34,.26-.62,.6-.62s.6,.28,.6,.62-.26,.6-.6,.6-.6-.26-.6-.6Zm.02-13.44h.88l-.16,11.79h-.56l-.16-11.79Z"/></g></g></g></svg>