<svg xmlns="http://www.w3.org/2000/svg" xmlns:xlink="http://www.w3.org/1999/xlink" viewBox="0 0 617.22 390.64"><defs><style>.cls-1{fill:#4d3b2f;}.cls-2{font-size:20.09px;fill:#5c5052;font-family:Acre-Thin, Acre;font-weight:200;}.cls-3{letter-spacing:-0.02em;}.cls-4{letter-spacing:-0.02em;}.cls-5{letter-spacing:-0.01em;}.cls-6{letter-spacing:-0.03em;}.cls-7{letter-spacing:-0.01em;}.cls-8{letter-spacing:0.01em;}.cls-9{font-size:35.15px;fill:#ebbd25;stroke:#ebbd25;stroke-width:0.5px;font-family:Acre-Light, Acre;font-weight:300;}.cls-14,.cls-15,.cls-16,.cls-17,.cls-19,.cls-20,.cls-21,.cls-22,.cls-23,.cls-24,.cls-25,.cls-26,.cls-27,.cls-30,.cls-32,.cls-33,.cls-34,.cls-35,.cls-36,.cls-37,.cls-38,.cls-39,.cls-42,.cls-46,.cls-9{stroke-miterlimit:10;}.cls-10{letter-spacing:0em;}.cls-11{letter-spacing:-0.02em;}.cls-12{letter-spacing:-0.02em;}.cls-13{letter-spacing:-0.02em;}.cls-14,.cls-15,.cls-17,.cls-27,.cls-47,.cls-48{fill:none;}.cls-14,.cls-15,.cls-16,.cls-17{stroke:#5c5052;}.cls-14{stroke-width:0.82px;}.cls-15{stroke-width:0.97px;}.cls-16,.cls-22,.cls-26,.cls-28,.cls-31,.cls-34,.cls-40{fill:#fff;}.cls-16{stroke-width:1.68px;opacity:0.5;}.cls-17{stroke-width:0.91px;}.cls-18{clip-path:url(#clip-path);}.cls-19,.cls-23,.cls-35{fill:#ec6a7c;}.cls-19,.cls-20,.cls-21,.cls-22,.cls-23,.cls-24,.cls-25,.cls-26,.cls-30,.cls-32,.cls-33,.cls-34,.cls-35,.cls-36,.cls-37,.cls-38,.cls-39,.cls-42,.cls-48{stroke:#fff;}.cls-19,.cls-33,.cls-36{stroke-width:0.33px;}.cls-20,.cls-39{fill:#3caba2;}.cls-20,.cls-37{stroke-width:0.2px;}.cls-21,.cls-32,.cls-33{fill:#6d54a3;}.cls-21{stroke-width:0.54px;}.cls-22{font-size:9.85px;stroke-width:0.12px;}.cls-22,.cls-26{font-family:Acre-Semibold, Acre;font-weight:600;}.cls-23{stroke-width:0.07px;}.cls-24{fill:#6b6264;stroke-width:0.44px;}.cls-25,.cls-36{fill:#f37243;}.cls-25{stroke-width:0.07px;}.cls-26{font-size:8.9px;stroke-width:0.11px;}.cls-27{stroke:#5f5353;stroke-width:0.64px;}.cls-28{font-size:12.83px;}.cls-28,.cls-31,.cls-34,.cls-40{font-family:Acre-Bold, Acre;font-weight:700;}.cls-29{letter-spacing:-0.04em;}.cls-30,.cls-37{fill:#ffcf01;}.cls-30{stroke-width:0.49px;}.cls-31{font-size:12.83px;}.cls-32{stroke-width:0.23px;}.cls-34{font-size:13.92px;stroke-width:0.34px;}.cls-35{stroke-width:0.21px;}.cls-38,.cls-42{fill:#2e6290;}.cls-38{stroke-width:0.17px;}.cls-39{stroke-width:0.32px;}.cls-40{font-size:11.83px;}.cls-41{letter-spacing:-0.01em;}.cls-42{stroke-width:0.21px;}.cls-43{fill:#e86a7c;}.cls-44{fill:#3da89f;}.cls-45{letter-spacing:-0.01em;}.cls-46{fill:#fbcb08;stroke:#efefef;stroke-width:0.05px;}.cls-47{stroke:#fbcb08;stroke-width:0.33px;}.cls-47,.cls-48{stroke-linecap:round;stroke-linejoin:round;}.cls-48{stroke-width:0.8px;}</style><clipPath id="clip-path"><circle class="cls-1" cx="136.29" cy="209.33" r="97.9"/></clipPath></defs><g id="Layer_2" data-name="Layer 2"><g id="Layer_9" data-name="Layer 9"><text class="cls-2" transform="translate(314.34 92.49)"><tspan class="cls-3">m</tspan><tspan x="16.97" y="0">easu</tspan><tspan class="cls-3" x="60.12" y="0">r</tspan><tspan x="65.54" y="0">ed as eit</tspan><tspan class="cls-3" x="145.07" y="0">h</tspan><tspan x="156.1" y="0">er t</tspan><tspan class="cls-4" x="185.57" y="0">h</tspan><tspan x="196.59" y="0">e </tspan><tspan class="cls-3" x="215.01" y="0">m</tspan><tspan x="231.99" y="0">ass </tspan><tspan x="8.38" y="24.1">lo</tspan><tspan class="cls-3" x="24.89" y="24.1">s</tspan><tspan x="32.42" y="24.1">t </tspan><tspan class="cls-5" x="44.67" y="24.1">b</tspan><tspan class="cls-3" x="56.87" y="24.1">y</tspan><tspan x="66.05" y="24.1" xml:space="preserve"> cooki</tspan><tspan class="cls-3" x="122.27" y="24.1">n</tspan><tspan x="133.3" y="24.1">g soil </tspan><tspan class="cls-3" x="188.94" y="24.1">t</tspan><tspan x="193.76" y="24.1">o </tspan><tspan class="cls-5" x="212.96" y="24.1">ov</tspan><tspan x="234.66" y="24.1">er </tspan><tspan x="-5.16" y="48.21">1000C (</tspan><tspan class="cls-3" x="57.33" y="48.21">t</tspan><tspan class="cls-5" x="62.15" y="48.21">o</tspan><tspan class="cls-3" x="74.12" y="48.21">t</tspan><tspan x="78.94" y="48.21">al o</tspan><tspan class="cls-3" x="114.88" y="48.21">r</tspan><tspan x="120.3" y="48.21">ganic </tspan><tspan class="cls-3" x="179.16" y="48.21">m</tspan><tspan x="196.13" y="48.21">at</tspan><tspan class="cls-3" x="213.75" y="48.21">t</tspan><tspan x="218.57" y="48.21">er) or </tspan><tspan class="cls-5" x="28.84" y="72.31">b</tspan><tspan class="cls-3" x="41.04" y="72.31">y</tspan><tspan x="50.22" y="72.31"> </tspan><tspan class="cls-3" x="57.25" y="72.31">m</tspan><tspan x="74.22" y="72.31">easuri</tspan><tspan class="cls-3" x="127.93" y="72.31">n</tspan><tspan x="138.96" y="72.31">g t</tspan><tspan class="cls-3" x="163.61" y="72.31">h</tspan><tspan x="174.64" y="72.31">e </tspan><tspan class="cls-3" x="193.06" y="72.31">t</tspan><tspan class="cls-5" x="197.88" y="72.31">o</tspan><tspan class="cls-3" x="209.85" y="72.31">t</tspan><tspan x="214.67" y="72.31">al </tspan><tspan x="0.1" y="96.42">a</tspan><tspan class="cls-3" x="12.49" y="96.42">m</tspan><tspan x="29.47" y="96.42">ount </tspan><tspan class="cls-5" x="76.75" y="96.42">o</tspan><tspan x="88.72" y="96.42">f carbon in t</tspan><tspan class="cls-3" x="201.51" y="96.42">h</tspan><tspan x="212.54" y="96.42">e soil </tspan><tspan x="9.44" y="120.52">a</tspan><tspan class="cls-3" x="21.83" y="120.52">n</tspan><tspan x="32.86" y="120.52">d multiplyi</tspan><tspan class="cls-3" x="126.43" y="120.52">n</tspan><tspan x="137.46" y="120.52">g </tspan><tspan class="cls-5" x="156.88" y="120.52">b</tspan><tspan class="cls-3" x="169.07" y="120.52">y</tspan><tspan x="178.25" y="120.52" xml:space="preserve"> 1</tspan><tspan class="cls-6" x="191.19" y="120.52">.</tspan><tspan class="cls-3" x="193.36" y="120.52">7</tspan><tspan x="201.45" y="120.52">2. soil </tspan><tspan x="-0.84" y="144.63">color p</tspan><tspan class="cls-3" x="63.94" y="144.63">r</tspan><tspan class="cls-5" x="69.36" y="144.63">o</tspan><tspan x="81.33" y="144.63">vides a good visual </tspan><tspan x="51.96" y="168.73">i</tspan><tspan class="cls-3" x="56.7" y="168.73">n</tspan><tspan x="67.72" y="168.73">dica</tspan><tspan class="cls-3" x="108.12" y="168.73">t</tspan><tspan x="112.94" y="168.73">or </tspan><tspan class="cls-5" x="137.97" y="168.73">o</tspan><tspan x="149.94" y="168.73">f S</tspan><tspan class="cls-7" x="172.18" y="168.73">O</tspan><tspan class="cls-8" x="189.21" y="168.73">M</tspan><tspan x="205.52" y="168.73">.</tspan></text><text class="cls-9" transform="translate(158.83 30.13)"><tspan class="cls-10">s</tspan><tspan x="14.24" y="0">oil o</tspan><tspan class="cls-11" x="85.46" y="0">r</tspan><tspan x="95.44" y="0">ganic </tspan><tspan class="cls-12" x="198.37" y="0">m</tspan><tspan x="228.56" y="0">at</tspan><tspan class="cls-13" x="259.99" y="0">t</tspan><tspan x="269.02" y="0">er</tspan></text><path class="cls-1" d="M402.74,375.6a6.43,6.43,0,0,0-1.22-1.38,7,7,0,0,0-5.31-1.48,13.38,13.38,0,0,0,.47-7.94c-1.34-5.33-5.66-8.56-10.75-10a16.21,16.21,0,0,0-12.74,1.7,4.5,4.5,0,0,0-2.42-3.4,4.73,4.73,0,0,0-2.66-.38,3.39,3.39,0,0,0-1.73.66,12.06,12.06,0,0,0-11.2-9.16c-3.94-.14-11.61,1.2-14.7,9.86a14.78,14.78,0,0,0-.6,4.39A6.64,6.64,0,0,0,331,362a7.77,7.77,0,0,0-2.76-1.37,10.48,10.48,0,0,0-13.06,12.6,5,5,0,0,0-4.06,3.08c-3.82,9.43,9.75,10.11,15.55,11.05a256.39,256.39,0,0,0,27.77,3q8.37.43,16.76.32a86.82,86.82,0,0,0,17.7-1.68c4-.88,8.19-1.83,11.59-4.15,1.62-1.1,3.29-2.86,3.41-4.88A7.12,7.12,0,0,0,402.74,375.6Z"/><path class="cls-14" d="M44.63,176.11A97.49,97.49,0,1,1,103.06,301,97.49,97.49,0,0,1,44.63,176.11Z"/><line class="cls-15" x1="318.95" y1="374.84" x2="98.18" y2="299.07"/><path class="cls-16" d="M310.63,366a15.87,15.87,0,1,1,20.44,9.29A15.87,15.87,0,0,1,310.63,366Z"/><line class="cls-17" x1="340.35" y1="354.8" x2="218.85" y2="157.49"/><circle class="cls-1" cx="136.29" cy="209.33" r="97.9"/><g class="cls-18"><path class="cls-1" d="M40.13,268.26a45.84,45.84,0,0,1,24.75,10c-.7-.56,4.05-8.51,4.58-9.36a52.72,52.72,0,0,1,6.65-8.59c7.68-8,16.27-11.91,27.13-13.85,7.79-1.39,18-1.4,25.27,2.1-3.22-28.26,8.69-57.36,28.09-78.16a101,101,0,0,1,34.76-24.09,113.85,113.85,0,0,1,20.48-6.39c2.18-.46,4.34-1,6.54-1.36a15.7,15.7,0,0,1,3.34-.39c.71,0,1.18.92,1.51,1.45.47.74.84,1.54,1.31,2.29q1.47,2.37,2.74,4.84c1.17,2.26,2.31,4.53,3.51,6.77,1.61,3,3,6.15,4.55,9.14a15.39,15.39,0,0,1,.85,2.59c.28.88.55,1.76.82,2.64.54,1.75,1.06,3.49,1.6,5.23.07.24.15.48.22.72a77.8,77.8,0,0,1,2.27,8.3c.5,2.59.73,5.21,1,7.84.72,8.19,1.43,16.43.88,24.65-.53,7.76-3,14.9-4.74,22.36-1.62,6.87-5.16,13.6-8.81,19.57-7.71,12.6-18.12,23.32-29,33.17a74.92,74.92,0,0,1-8.91,7.19,84.85,84.85,0,0,1-11.82,6.14l-5.77,2.63c-6.72,3.05-13.47,6.12-20.63,7.88-8.19,2-15.64,1.49-23.84.82-15.42-1.28-31.28-2.67-45.13-9.56-4.63-2.3-9.12-2.3-13.62-4.82a77,77,0,0,1-12.23-8.5,75,75,0,0,1-10.58-11,73.55,73.55,0,0,1-4.39-6.28C43,273.54,40.65,268.31,40.13,268.26Z"/></g><circle class="cls-19" cx="77.3" cy="173.99" r="11.95"/><path class="cls-20" d="M79.84,164.78c.51-.79,1-1.63,1.54-2.44a2.31,2.31,0,0,0,.49-1.43.75.75,0,0,0-.86-.62.91.91,0,0,0-.69,1.12l-1.19-.15a2,2,0,0,1,1.7-2.19,1.9,1.9,0,0,1,2.24,1.54,2.84,2.84,0,0,1-.59,2l-.7,1.15,1.76-.26.17,1.17-3.81.56Z"/><path class="cls-20" d="M87.18,162l-1.14.16.17,1.15-.93.14-.17-1.15-1.11.16-.13-.91,1.11-.16-.17-1.12.94-.13.16,1.11,1.13-.16Z"/><circle class="cls-21" cx="140.33" cy="287.96" r="9.95"/><text class="cls-22" transform="translate(133.74 291.59) rotate(-8.33)">Mn</text><path class="cls-23" d="M144.08,280.57c.42-.65.85-1.35,1.27-2a1.87,1.87,0,0,0,.4-1.18.61.61,0,0,0-.71-.51.76.76,0,0,0-.57.92l-1-.12a1.63,1.63,0,0,1,1.4-1.81,1.58,1.58,0,0,1,1.85,1.27,2.45,2.45,0,0,1-.49,1.65l-.58,1,1.45-.22.14,1-3.14.46Z"/><path class="cls-23" d="M150.13,278.3l-.93.14.14.95-.78.11-.13-.95-.92.13-.11-.75.92-.13-.14-.92.77-.11.14.92.93-.14Z"/><circle class="cls-24" cx="126.59" cy="180.75" r="8.99"/><path class="cls-25" d="M130.81,174.56c.49-.48,1-1,1.51-1.52a1.77,1.77,0,0,0,.58-1,.55.55,0,0,0-.53-.59.68.68,0,0,0-.68.7l-.84-.29a1.48,1.48,0,0,1,1.59-1.33,1.42,1.42,0,0,1,1.38,1.48,2.1,2.1,0,0,1-.75,1.36c-.22.24-.46.48-.69.72l1.32.1-.06.88-2.86-.2Z"/><path class="cls-25" d="M136.59,173.74l-.86-.06-.06.86-.7,0,.06-.86-.83-.06.05-.69.83.06.06-.84.7.05-.06.84.85.06Z"/><text class="cls-26" transform="translate(121.47 183.26) rotate(4.03)">Zn</text><line class="cls-27" x1="150.91" y1="223.66" x2="149.12" y2="223.53"/><text class="cls-28" transform="translate(71.59 179.31) rotate(-9.81)"><tspan class="cls-29">F</tspan><tspan x="5.71" y="0">e</tspan></text><circle class="cls-30" cx="142.01" cy="224.97" r="13.5"/><text class="cls-31" transform="translate(130.87 229.06)">NH4</text><path class="cls-32" d="M155.51,216.19h-2.06v2.09h-1.7v-2.09h-2v-1.66h2v-2h1.7v2h2.06Z"/><circle class="cls-33" cx="111.7" cy="143.02" r="9.48"/><text class="cls-34" transform="translate(107.5 147.71)">K</text><path class="cls-35" d="M120.19,135.94h-1.67v1.66h-1.58v-1.66h-1.6v-1.55h1.6v-1.64h1.58v1.64h1.67Z"/><circle class="cls-36" cx="204.39" cy="207.15" r="12.04"/><path class="cls-37" d="M208.41,197.83c.62-.85,1.27-1.78,1.84-2.61a1.92,1.92,0,0,0,.47-1.27.65.65,0,0,0-.73-.55c-.48.07-.69.56-.61,1.07l-1.76-.21a2.44,2.44,0,0,1,2.09-2.67,2.33,2.33,0,0,1,2.76,1.84,3.16,3.16,0,0,1-.79,2.39c-.19.29-.41.62-.59.91l1.81-.26.25,1.71-4.59.67Z"/><path class="cls-37" d="M217.18,195.17l-1.29.19.19,1.28-1.22.18-.19-1.28-1.23.18-.18-1.2,1.24-.18-.19-1.26,1.22-.18.19,1.27L217,194Z"/><path class="cls-38" d="M118.55,255.58h-1.14v1.12h-1.07v-1.12h-1.08v-1.05h1.08v-1.11h1.07v1.11h1.14Z"/><circle class="cls-39" cx="103.93" cy="265.83" r="12.31"/><text class="cls-40" transform="translate(95.08 269.14)"><tspan class="cls-41">M</tspan><tspan x="9.84" y="0">g</tspan></text><path class="cls-42" d="M109.29,258.08c.79-.81,1.62-1.68,2.36-2.47a2.08,2.08,0,0,0,.69-1.27.69.69,0,0,0-.69-.69c-.52,0-.82.48-.81,1l-1.83-.5a2.6,2.6,0,0,1,2.63-2.49,2.48,2.48,0,0,1,2.62,2.37,3.35,3.35,0,0,1-1.2,2.4c-.24.28-.52.59-.76.88h2v1.85h-5Z"/><path class="cls-43" d="M169.31,263.47l-3.64-1.63,3.12-1.87c0-.21,0-.41-.07-.63a3.58,3.58,0,0,0-.63-2,3.67,3.67,0,0,0-6.7,2.44,44.71,44.71,0,0,0,4.66,16.15h0a2.5,2.5,0,0,0,.21.35,3.67,3.67,0,1,0,6.1-4.1S170.46,269.44,169.31,263.47Z"/><path class="cls-44" d="M59.55,211.94a3.11,3.11,0,0,1-.28-3.88,3.32,3.32,0,0,1,1.88-1.45,2.56,2.56,0,0,1,2.1.29,2.69,2.69,0,0,1,.37.3,3.11,3.11,0,0,1,.28,3.87A3.27,3.27,0,0,1,62,212.52a2.45,2.45,0,0,1-2.46-.58Z"/><path class="cls-44" d="M61.3,219.42a3.23,3.23,0,0,1-2.76-2.82,3.39,3.39,0,0,1,.42-2.36,2.38,2.38,0,0,1,1.72-1.17,2.33,2.33,0,0,1,.46,0,3.23,3.23,0,0,1,2.76,2.81,3.41,3.41,0,0,1-.42,2.37,2.38,2.38,0,0,1-1.72,1.17A2.33,2.33,0,0,1,61.3,219.42Z"/><path class="cls-44" d="M62.39,226.23a3.21,3.21,0,0,1-2.5-3,3.38,3.38,0,0,1,.63-2.31,2.42,2.42,0,0,1,1.83-1,3.4,3.4,0,0,1,.45,0,3.22,3.22,0,0,1,2.51,3,3.41,3.41,0,0,1-.63,2.32,2.41,2.41,0,0,1-1.83,1A1.81,1.81,0,0,1,62.39,226.23Z"/><path class="cls-44" d="M59.58,232.51a3.17,3.17,0,0,1-1.2-3.73,3.29,3.29,0,0,1,1.46-1.87,2.52,2.52,0,0,1,2.1-.22,2.3,2.3,0,0,1,.42.2,3.18,3.18,0,0,1,1.2,3.73,3.32,3.32,0,0,1-1.46,1.87,2.52,2.52,0,0,1-2.1.22A2.3,2.3,0,0,1,59.58,232.51Z"/><path class="cls-44" d="M64,202.83l2.52-.55a2.75,2.75,0,0,0-1.14-1.88,2.19,2.19,0,0,0-.3-.16,2.39,2.39,0,0,0-2.07,0,3.37,3.37,0,0,0-1.64,1.76,3.17,3.17,0,0,0,.88,3.91,2.69,2.69,0,0,0,.29.16,2.39,2.39,0,0,0,2.07-.05A3.32,3.32,0,0,0,65.91,205Z"/><text class="cls-28" transform="translate(197.02 212.19) rotate(-9.81)"><tspan class="cls-45">C</tspan><tspan x="7.57" y="0">a</tspan></text><path class="cls-46" d="M184.21,180.12l-7.39,8.62a3,3,0,1,0,4.43,3.82l7.38-8.63a3,3,0,1,0-4.42-3.81Z"/><path class="cls-47" d="M166.06,207s1.82,1.56,5.3-2.52a4.06,4.06,0,0,0,.73-4.07,5.26,5.26,0,0,1,1.33-5.41c3.08-3.4,4.5-2.33,4.5-2.33"/><path class="cls-47" d="M167.14,204.64a4,4,0,0,1,4.24-2.25s2.59,1,5.64-3.38c2.84-4.08,1.93-6.17,1.93-6.17"/><path class="cls-47" d="M176.92,192a7.25,7.25,0,0,1-1.81,4.59s-2,2.22-3.92,1.38-3.08,1-3.68,1.67a8,8,0,0,0-1.6,3.85"/><path class="cls-47" d="M178.68,191.61c-3.49-1.25-5.23.36-5.23.36a4,4,0,0,0-.84,4.87c1.48,3.14-.59,3.85-1.24,4.38a5.57,5.57,0,0,1-4.37.42"/><polygon class="cls-48" points="141.51 144.74 146.06 150.38 153.44 149.16 156.26 142.32 151.71 136.68 144.33 137.89 141.51 144.74"/><line class="cls-48" x1="153.44" y1="149.16" x2="156.65" y2="153.14"/><line class="cls-48" x1="143.99" y1="155.17" x2="146.06" y2="150.37"/><line class="cls-48" x1="141.51" y1="144.74" x2="136.3" y2="145.54"/><line class="cls-48" x1="156.26" y1="142.32" x2="161.47" y2="141.51"/><line class="cls-48" x1="141.12" y1="133.91" x2="144.33" y2="137.89"/><polygon class="cls-48" points="157.56 165.97 165.03 165.28 168.18 158.46 163.85 152.33 156.37 153.02 153.22 159.84 157.56 165.97"/><line class="cls-48" x1="168.18" y1="158.46" x2="173.46" y2="157.98"/><line class="cls-48" x1="168.02" y1="169.66" x2="165.04" y2="165.28"/><line class="cls-48" x1="157.55" y1="165.97" x2="155.29" y2="170.76"/><line class="cls-48" x1="163.85" y1="152.33" x2="166.11" y2="147.54"/><line class="cls-48" x1="147.94" y1="160.32" x2="153.22" y2="159.84"/><polygon class="cls-48" points="184.2 165.04 188.21 158.69 184.71 152.04 177.21 151.75 173.2 158.1 176.7 164.75 184.2 165.04"/><line class="cls-48" x1="184.71" y1="152.04" x2="187.54" y2="147.56"/><line class="cls-48" x1="151.73" y1="136.48" x2="154.15" y2="131.77"/><line class="cls-48" x1="193.5" y1="158.99" x2="188.21" y2="158.69"/><line class="cls-48" x1="184.2" y1="165.04" x2="186.63" y2="169.75"/><line class="cls-48" x1="177.2" y1="151.75" x2="174.78" y2="147.04"/><line class="cls-48" x1="173.87" y1="169.23" x2="176.7" y2="164.75"/><polygon class="cls-48" points="79.99 243.28 86.45 240 86.8 232.53 80.69 228.34 74.23 231.62 73.88 239.09 79.99 243.28"/><line class="cls-48" x1="86.8" y1="232.53" x2="91.36" y2="230.21"/><line class="cls-48" x1="90.71" y1="243.02" x2="86.45" y2="240"/><line class="cls-48" x1="79.99" y1="243.28" x2="79.7" y2="248.54"/><line class="cls-48" x1="80.69" y1="228.34" x2="80.98" y2="223.08"/><line class="cls-48" x1="69.32" y1="241.41" x2="73.88" y2="239.09"/><polygon class="cls-48" points="104.09 232 104.98 224.53 98.96 220.04 92.06 223.01 91.18 230.47 97.2 234.96 104.09 232"/><line class="cls-48" x1="98.96" y1="220.04" x2="99.58" y2="214.78"/><line class="cls-48" x1="109.88" y1="222.53" x2="104.98" y2="224.54"/><line class="cls-48" x1="104.1" y1="231.99" x2="108.31" y2="235.2"/><line class="cls-48" x1="92.06" y1="223.01" x2="87.84" y2="219.8"/><line class="cls-48" x1="96.57" y1="240.22" x2="97.2" y2="234.96"/><polygon class="cls-48" points="108.72 205.74 103.34 200.5 96.11 202.54 94.27 209.82 99.65 215.06 106.88 213.02 108.72 205.74"/><line class="cls-48" x1="96.11" y1="202.54" x2="92.32" y2="198.84"/><line class="cls-48" x1="104.73" y1="195.39" x2="103.34" y2="200.5"/><line class="cls-48" x1="108.72" y1="205.74" x2="113.84" y2="204.34"/><line class="cls-48" x1="94.27" y1="209.82" x2="89.16" y2="211.21"/><line class="cls-48" x1="110.68" y1="216.71" x2="106.88" y2="213.02"/><polygon class="cls-48" points="178.84 252.85 186.03 251.97 188.91 245.07 184.59 239.05 177.4 239.93 174.52 246.83 178.84 252.85"/><line class="cls-48" x1="188.91" y1="245.07" x2="193.98" y2="244.45"/><line class="cls-48" x1="189.01" y1="256.27" x2="186.03" y2="251.97"/><line class="cls-48" x1="178.84" y1="252.85" x2="176.77" y2="257.7"/><line class="cls-48" x1="184.59" y1="239.05" x2="186.66" y2="234.2"/><line class="cls-48" x1="169.45" y1="247.45" x2="174.52" y2="246.83"/><polygon class="cls-48" points="205.47 250.53 208.84 243.81 204.71 237.54 197.22 237.97 193.84 244.68 197.97 250.96 205.47 250.53"/><line class="cls-48" x1="204.71" y1="237.54" x2="207.09" y2="232.8"/><line class="cls-48" x1="214.13" y1="243.6" x2="208.84" y2="243.81"/><line class="cls-48" x1="205.47" y1="250.53" x2="208.34" y2="254.98"/><line class="cls-48" x1="197.22" y1="237.97" x2="194.35" y2="233.52"/><line class="cls-48" x1="195.59" y1="255.69" x2="197.97" y2="250.96"/><line class="cls-48" x1="177.61" y1="239.96" x2="174.89" y2="235.41"/></g></g></svg>