<svg xmlns="http://www.w3.org/2000/svg" viewBox="0 0 588 421.41"><defs><style>.cls-1{font-size:20.09px;fill:#5c5052;font-family:Acre-Thin, Acre;font-weight:200;}.cls-2{letter-spacing:-0.02em;}.cls-3{letter-spacing:-0.01em;}.cls-4{letter-spacing:-0.02em;}.cls-5{letter-spacing:-0.03em;}.cls-6{font-size:40px;fill:#fecf08;font-family:Acre-Light, Acre;font-weight:300;}.cls-7{letter-spacing:-0.02em;}.cls-8{letter-spacing:0em;}.cls-9{letter-spacing:-0.02em;}.cls-10{letter-spacing:-0.01em;}.cls-11{letter-spacing:-0.03em;}.cls-12{fill:#f17243;stroke-width:0.25px;}.cls-12,.cls-13{stroke:#f0f0f1;}.cls-12,.cls-13,.cls-17,.cls-19{stroke-miterlimit:10;}.cls-13{fill:#336db4;stroke-width:0.28px;}.cls-14{fill:#e06a7c;}.cls-15{fill:#336da9;}.cls-16{fill:#3da89f;}.cls-17,.cls-19{fill:#fbcb08;stroke:#efefef;}.cls-17{stroke-width:0.08px;}.cls-18,.cls-20{fill:none;stroke:#fbcb08;stroke-linecap:round;stroke-linejoin:round;}.cls-18{stroke-width:0.57px;}.cls-19{stroke-width:0.09px;}.cls-20{stroke-width:0.66px;}.cls-21{letter-spacing:-0.01em;}</style></defs><g id="Layer_2" data-name="Layer 2"><g id="Layer_9" data-name="Layer 9"><text class="cls-1" transform="translate(37.78 296.83)"><tspan xml:space="preserve">  bio</tspan><tspan class="cls-2" x="43.37" y="0">m</tspan><tspan x="60.34" y="0">ass can be </tspan><tspan class="cls-2" x="168.17" y="0">m</tspan><tspan x="185.14" y="0">easu</tspan><tspan class="cls-2" x="228.29" y="0">r</tspan><tspan x="233.71" y="0">ed </tspan><tspan class="cls-3" x="264.53" y="0">b</tspan><tspan class="cls-2" x="276.72" y="0">y</tspan><tspan x="285.9" y="0" xml:space="preserve"> fumigati</tspan><tspan class="cls-2" x="366.45" y="0">n</tspan><tspan x="377.47" y="0">g t</tspan><tspan class="cls-4" x="402.12" y="0">h</tspan><tspan x="413.15" y="0">e soil a</tspan><tspan class="cls-2" x="480.18" y="0">n</tspan><tspan x="491.21" y="0">d </tspan><tspan class="cls-2" x="84.9" y="24.1">m</tspan><tspan x="101.87" y="24.1">easuri</tspan><tspan class="cls-2" x="155.58" y="24.1">n</tspan><tspan x="166.61" y="24.1">g t</tspan><tspan class="cls-2" x="191.26" y="24.1">h</tspan><tspan x="202.29" y="24.1">e c</tspan><tspan class="cls-4" x="231.57" y="24.1">h</tspan><tspan x="242.6" y="24.1">a</tspan><tspan class="cls-2" x="255" y="24.1">n</tspan><tspan x="266.02" y="24.1">ge in </tspan><tspan class="cls-2" x="320.04" y="24.1">m</tspan><tspan x="337.01" y="24.1">ass or </tspan><tspan class="cls-3" x="397.33" y="24.1">b</tspan><tspan class="cls-2" x="409.52" y="24.1">y</tspan><tspan x="418.7" y="24.1"> </tspan><tspan x="14.35" y="48.21">ext</tspan><tspan class="cls-2" x="40.42" y="48.21">r</tspan><tspan x="45.85" y="48.21">acti</tspan><tspan class="cls-2" x="79.07" y="48.21">n</tspan><tspan x="90.1" y="48.21">g t</tspan><tspan class="cls-2" x="114.75" y="48.21">h</tspan><tspan x="125.78" y="48.21">e p</tspan><tspan class="cls-4" x="156.57" y="48.21">h</tspan><tspan x="167.6" y="48.21">osp</tspan><tspan class="cls-2" x="200.08" y="48.21">h</tspan><tspan x="211.11" y="48.21">olipid </tspan><tspan class="cls-2" x="268.9" y="48.21">f</tspan><tspan x="273.72" y="48.21">att</tspan><tspan class="cls-2" x="296.56" y="48.21">y</tspan><tspan x="305.74" y="48.21" xml:space="preserve"> acids t</tspan><tspan class="cls-2" x="373.35" y="48.21">h</tspan><tspan x="384.38" y="48.21">at </tspan><tspan class="cls-2" x="409.02" y="48.21">m</tspan><tspan x="426" y="48.21">a</tspan><tspan class="cls-5" x="438.39" y="48.21">k</tspan><tspan x="447.03" y="48.21">e up </tspan><tspan x="133.93" y="72.31">mic</tspan><tspan class="cls-2" x="166.91" y="72.31">r</tspan><tspan x="172.34" y="72.31">obial cell </tspan><tspan class="cls-2" x="263.37" y="72.31">m</tspan><tspan x="280.34" y="72.31">emb</tspan><tspan class="cls-2" x="321.5" y="72.31">r</tspan><tspan x="326.93" y="72.31">a</tspan><tspan class="cls-4" x="339.32" y="72.31">n</tspan><tspan x="350.35" y="72.31">es</tspan></text><text class="cls-6" transform="translate(129.82 34)">mic<tspan class="cls-7" x="66.12" y="0">r</tspan><tspan x="77.48" y="0">obial d</tspan><tspan class="cls-8" x="208.48" y="0">i</tspan><tspan class="cls-9" x="218.32" y="0">v</tspan><tspan x="237.8" y="0">e</tspan><tspan class="cls-10" x="260.4" y="0">r</tspan><tspan x="272.16" y="0">sit</tspan><tspan class="cls-11" x="309.6" y="0">y</tspan></text><path class="cls-12" d="M392,159.13s-11.95,13.4-3.51,32.85S413.23,204,413.23,204s15-6.22,8.25-23.31-17.73-14.12-20.18-13.5c0,0-11.44,3.31-6.95,19.41,0,0,5.1,14.63,16.4,10.73,0,0,9.64-3.5,5.12-14.2,0,0-1.67-4.56-5.22-5.28,0,0-2.16-.21-.39,1.74,0,0,5.64,4.74,1.6,10.64,0,0-5.21,6.74-11.1-2.14,0,0-5.8-8.83.9-13.89,0,0,6-4.62,12.23,2.93,7.81,9.45,1.21,17.64,1.21,17.64s-4.59,7.86-15.08,2.31c0,0-11-6-9.54-21.05,0,0,.09-7.45,1.95-12.34C392.43,163.72,393.88,158.18,392,159.13Z"/><path class="cls-13" d="M181.9,234.52s.49,8.55,3.75,9.86c4.47,1.79,7.46-4.08,7.46-4.08s2-6.63,8.82-.84c5.67,4.85,8.11.17,8.11.17s2.3-2.18-.07-5.34c-4.73-6.35,1.18-8.89,1.18-8.89,5.58-2.75,4.64-7.3,4.64-7.3-2.33-7.94-12.06-5.08-12.06-5.08-6,1.12-4.76-3.39-4.76-3.39s1.09-4.83-6-6.76-5.55,7-5.55,7c-.22,9.64-9.74,10.5-9.74,10.5s-10.95.51-11,5.41c0,6.45,9.94,5.75,9.94,5.75C182.33,230.54,181.9,234.52,181.9,234.52Zm7.5-9.2c.44-2.77,2.57-4.73,4.75-4.37s3.58,2.87,3.13,5.64-2.58,4.71-4.75,4.36S189,228.08,189.4,225.32Z"/><path class="cls-14" d="M244,179a5.61,5.61,0,0,0-5.61-5.6,5.51,5.51,0,0,0-2.39.54c-11.63,3.51-17.46,14.65-17.46,14.65h0a5.19,5.19,0,0,0-.66,2.54,5.26,5.26,0,0,0,9.39,3.26,50,50,0,0,1,13.17-10.17,5.93,5.93,0,0,0,.72-.34h0A5.63,5.63,0,0,0,244,179Z"/><path class="cls-14" d="M250,200a6.14,6.14,0,1,0-10.53-6.28,74.29,74.29,0,0,0-8.6,26.73h0a5.12,5.12,0,0,0,0,.69,6.14,6.14,0,1,0,12.27,0S242.94,213.08,250,200Z"/><path class="cls-15" d="M294.38,128s-14.21,0-15.21,13.92c-.26,3.58,7.68,3,12.15,2.43.37,5.89,1.56,28-.45,33.88,0,0-.17,1.54,4.27,1.4s5.33-2.77,5.33-2.77,2.43,2.25-3.33-32.55c4.41.62,12.65,1.27,12.46-2.39C308.9,128.47,294.38,128,294.38,128Z"/><path class="cls-15" d="M319.67,156.81s8.41,3,6,11.47c-.61,2.17-5.19.17-7.71-1.15-1.46,3.41-6.88,16.26-6.93,20.15,0,0-.23.94-2.83-.09s-2.56-2.77-2.56-2.77-1.92.82,8.89-18.55c-2.74-.57-7.75-1.93-6.86-4.06C311,154,319.67,156.81,319.67,156.81Z"/><path class="cls-15" d="M263.52,144.68s11.71-4,16.66,8c1.27,3.07-5.43,4.81-9.29,5.51,1.44,5.27,7,25.06,10.42,29.63,0,0,.59,1.31-3.11,2.42s-5.21-.95-5.21-.95-1.33,2.65-6.9-29.52c-3.45,1.77-10,4.64-11,1.37C251.71,149.14,263.52,144.68,263.52,144.68Z"/><path class="cls-16" d="M360.08,162.85c1.83-2.88,1.16-6.94-1.61-9.63A8.17,8.17,0,0,0,353,150.8a6.34,6.34,0,0,0-5,1.95,5.92,5.92,0,0,0-.72.93c-1.84,2.88-1.16,6.93,1.61,9.64a8.28,8.28,0,0,0,5.45,2.41,6.36,6.36,0,0,0,5-1.95A6.59,6.59,0,0,0,360.08,162.85Z"/><path class="cls-16" d="M360.21,182.16c3.22-1,5.35-4.57,5.08-8.51a8.59,8.59,0,0,0-2.41-5.54,6,6,0,0,0-4.89-1.83,6,6,0,0,0-1.13.23c-3.21,1-5.35,4.56-5.08,8.5a8.54,8.54,0,0,0,2.41,5.54,6,6,0,0,0,4.89,1.83A5.26,5.26,0,0,0,360.21,182.16Z"/><path class="cls-16" d="M361.58,199.44c3.12-1.27,4.94-5,4.32-8.91a8.55,8.55,0,0,0-2.91-5.28,6.09,6.09,0,0,0-5.05-1.37,7.08,7.08,0,0,0-1.11.33c-3.11,1.28-4.93,5-4.31,8.92a8.5,8.5,0,0,0,2.91,5.27,6,6,0,0,0,5.05,1.37A5.35,5.35,0,0,0,361.58,199.44Z"/><path class="cls-16" d="M372.17,213.11c2.45-2.37,2.75-6.5.72-9.82a8.29,8.29,0,0,0-4.68-3.7,6.25,6.25,0,0,0-5.24.69,7.17,7.17,0,0,0-.91.74c-2.45,2.37-2.75,6.5-.73,9.82a8.32,8.32,0,0,0,4.68,3.7,6.22,6.22,0,0,0,5.24-.7A5.9,5.9,0,0,0,372.17,213.11Z"/><path class="cls-16" d="M343.77,143.27l-6.48.13a6.35,6.35,0,0,1,2.31-5.84,6.08,6.08,0,0,1,5.09-1.1,8.61,8.61,0,0,1,5.05,3.33c2.44,3.24,2.5,7.57.16,10.07a5.59,5.59,0,0,1-.62.57,6,6,0,0,1-5.09,1.1,8.07,8.07,0,0,1-3.77-2Z"/><path class="cls-17" d="M290.64,225.33l-14.58,13.23c-2.43,2.21-5.93,2.32-7.82.26s-1.44-5.53,1-7.74l14.58-13.22c2.43-2.21,5.93-2.33,7.82-.26S293.07,223.13,290.64,225.33Z"/><path class="cls-18" d="M245,258.08s-2.8-3.06,4.1-9.3a7,7,0,0,1,7-1.45s4.72,1.83,9.29-2.57c5.74-5.52,3.82-7.92,3.82-7.92"/><path class="cls-18" d="M249,256.11c4.71-2.33,3.7-7.46,3.7-7.46s-1.89-4.44,5.57-9.94c6.93-5.12,10.58-3.65,10.58-3.65"/><path class="cls-18" d="M270.46,238.54a12.47,12.47,0,0,0-7.85,3.36s-3.75,3.64-2.21,6.87-1.63,5.38-2.7,6.44a13.84,13.84,0,0,1-6.59,3"/><path class="cls-18" d="M271,235.47c2.34,6-.36,9.08-.36,9.08s-3,4-8.4,1.69-6.63,1.22-7.53,2.36a9.67,9.67,0,0,0-.51,7.6"/><path class="cls-19" d="M223.37,150.85l-18.23,13.68c-3,2.28-7.09,2-9-.55s-1.06-6.53,2-8.81l18.23-13.67c3.05-2.29,7.1-2,9.05.54S226.42,148.57,223.37,150.85Z"/><path class="cls-20" d="M167.18,183.68s-2.89-3.83,5.73-10.28a8.16,8.16,0,0,1,8.25-.92s5.25,2.62,11-1.95c7.21-5.75,5.25-8.73,5.25-8.73"/><path class="cls-20" d="M172,181.84c5.69-2.17,5.07-8.2,5.07-8.2s-1.7-5.32,7.5-10.86c8.55-5.15,12.6-3.06,12.6-3.06"/><path class="cls-20" d="M198.69,163.9a14.42,14.42,0,0,0-9.42,3s-4.72,3.78-3.28,7.68-2.47,6-3.82,7.13a16,16,0,0,1-7.91,2.72"/><path class="cls-20" d="M199.64,160.42c2.05,7.16-1.39,10.43-1.39,10.43s-3.91,4.34-9.87,1-7.78.69-8.94,1.91a11.2,11.2,0,0,0-1.41,8.7"/><path class="cls-17" d="M308.33,202.13l14.84,12.93c2.47,2.16,3,5.62,1.17,7.74s-5.32,2.07-7.8-.09L301.7,209.78c-2.48-2.16-3-5.62-1.17-7.73S305.85,200,308.33,202.13Z"/><path class="cls-18" d="M346.19,243.65s-2.71,3.14-9.71-3a7.05,7.05,0,0,1-2.27-6.8s1.27-4.91-3.63-8.93c-6.15-5.06-8.32-2.86-8.32-2.86"/><path class="cls-18" d="M343.76,239.89c-2.86-4.42-7.83-2.81-7.83-2.81s-4.19,2.4-10.53-4.37c-5.89-6.29-4.86-10.08-4.86-10.08"/><path class="cls-18" d="M323.8,220.62a12.43,12.43,0,0,0,4.26,7.4s4.05,3.31,7.08,1.39,5.53,1,6.71,1.93a13.81,13.81,0,0,1,3.72,6.2"/><path class="cls-18" d="M320.69,220.44c5.68-3,9.06-.7,9.06-.7a6.84,6.84,0,0,1,2.66,8.14c-1.74,5.76,2,6.45,3.23,7.21a9.68,9.68,0,0,0,7.6-.38"/><text class="cls-1" transform="translate(29.99 74.34)"><tspan class="cls-2">t</tspan><tspan class="cls-3" x="4.82" y="0">o</tspan><tspan class="cls-2" x="16.79" y="0">t</tspan><tspan x="21.61" y="0">al </tspan><tspan class="cls-2" x="45.38" y="0">m</tspan><tspan x="62.35" y="0">ass </tspan><tspan class="cls-3" x="97.64" y="0">o</tspan><tspan x="109.62" y="0">f bac</tspan><tspan class="cls-2" x="157.52" y="0">t</tspan><tspan x="162.34" y="0">eria, fu</tspan><tspan class="cls-2" x="223.41" y="0">n</tspan><tspan x="234.44" y="0">gi, a</tspan><tspan class="cls-2" x="274.03" y="0">r</tspan><tspan x="279.45" y="0">c</tspan><tspan class="cls-2" x="290.32" y="0">h</tspan><tspan x="301.35" y="0">aea a</tspan><tspan class="cls-2" x="356.95" y="0">n</tspan><tspan x="367.98" y="0">d p</tspan><tspan class="cls-4" x="399.77" y="0">r</tspan><tspan class="cls-21" x="405.2" y="0">o</tspan><tspan class="cls-2" x="417.17" y="0">t</tspan><tspan x="421.99" y="0">o</tspan><tspan class="cls-5" x="434.16" y="0">z</tspan><tspan x="442.36" y="0">oa in t</tspan><tspan class="cls-4" x="502.38" y="0">h</tspan><tspan x="513.41" y="0">e </tspan><tspan x="28.82" y="24.1">soil, as </tspan><tspan class="cls-3" x="95.42" y="24.1">w</tspan><tspan x="110.73" y="24.1">ell as t</tspan><tspan class="cls-2" x="170.41" y="24.1">h</tspan><tspan x="181.44" y="24.1">e di</tspan><tspan class="cls-21" x="216.99" y="24.1">v</tspan><tspan x="226.71" y="24.1">e</tspan><tspan class="cls-3" x="238.1" y="24.1">r</tspan><tspan x="243.73" y="24.1">sit</tspan><tspan class="cls-2" x="261.63" y="24.1">y</tspan><tspan x="270.8" y="24.1"> </tspan><tspan class="cls-3" x="277.83" y="24.1">o</tspan><tspan x="289.81" y="24.1">f unique species (</tspan><tspan class="cls-2" x="450.14" y="24.1">t</tspan><tspan x="454.96" y="24.1">a</tspan><tspan class="cls-5" x="467.36" y="24.1">x</tspan><tspan x="476.22" y="24.1">a).</tspan></text></g></g></svg>