<svg xmlns="http://www.w3.org/2000/svg" viewBox="0 0 1476.8078 648.0301"><defs><style>.cls-1{font-size:48.7945px;font-family:Acre-Regular, Acre;}.cls-1,.cls-82{fill:#3daaa1;}.cls-2{letter-spacing:-0.01em;}.cls-3{letter-spacing:-0.011em;}.cls-4{letter-spacing:-0.009em;}.cls-21,.cls-22,.cls-25,.cls-26,.cls-30,.cls-31,.cls-34,.cls-36,.cls-39,.cls-41,.cls-5,.cls-66,.cls-80,.cls-81,.cls-83,.cls-85,.cls-91,.cls-92,.cls-93,.cls-94,.cls-95,.cls-96,.cls-97{fill:none;}.cls-22,.cls-30,.cls-31,.cls-5,.cls-95{stroke:#5b5052;}.cls-12,.cls-13,.cls-20,.cls-22,.cls-26,.cls-32,.cls-34,.cls-37,.cls-39,.cls-40,.cls-43,.cls-5,.cls-50,.cls-52,.cls-53,.cls-55,.cls-56,.cls-57,.cls-58,.cls-59,.cls-60,.cls-61,.cls-62,.cls-63,.cls-64,.cls-65,.cls-66,.cls-67,.cls-68,.cls-69,.cls-70,.cls-71,.cls-72,.cls-73,.cls-74,.cls-75,.cls-76,.cls-77,.cls-78,.cls-80,.cls-81,.cls-83,.cls-85,.cls-91,.cls-92,.cls-93,.cls-94,.cls-95,.cls-96,.cls-97{stroke-miterlimit:10;}.cls-5{stroke-width:1.4347px;}.cls-6{font-size:30px;font-family:Acre-Light, Acre;font-weight:300;}.cls-12,.cls-28,.cls-6{fill:#5c5052;}.cls-7{letter-spacing:-0.015em;}.cls-8{letter-spacing:-0.02em;}.cls-9{letter-spacing:-0.015em;}.cls-10{letter-spacing:-0.025em;}.cls-11,.cls-13,.cls-75{fill:#2e61a1;}.cls-12,.cls-13,.cls-26,.cls-32,.cls-52,.cls-55,.cls-57,.cls-59,.cls-61,.cls-62,.cls-64,.cls-65,.cls-68,.cls-72,.cls-74,.cls-75,.cls-78{stroke:#fff;}.cls-12,.cls-13{stroke-width:0.914px;}.cls-14{letter-spacing:0.007em;}.cls-15{letter-spacing:-0.005em;}.cls-16{letter-spacing:-0.01em;}.cls-17{fill:#e06a7c;}.cls-18{fill:#336da9;}.cls-19{fill:#3da89f;}.cls-20{fill:#fbcb08;stroke:#efefef;stroke-width:0.0619px;}.cls-21{stroke:#fbcb08;stroke-width:0.4335px;}.cls-21,.cls-25,.cls-26,.cls-30,.cls-31,.cls-36,.cls-41,.cls-42,.cls-80,.cls-91,.cls-92,.cls-93,.cls-94,.cls-95,.cls-96,.cls-97{stroke-linecap:round;}.cls-21,.cls-25,.cls-30,.cls-31,.cls-36,.cls-41,.cls-42{stroke-linejoin:round;}.cls-22{stroke-width:1.0794px;}.cls-23{fill:#5b5052;}.cls-24{fill:#ffce01;}.cls-25{stroke:#ffce01;}.cls-25,.cls-26{stroke-width:1.3821px;}.cls-27{letter-spacing:0.007em;}.cls-29{fill:#e76a7c;}.cls-30{stroke-width:1.1481px;}.cls-31{stroke-width:1.1481px;}.cls-32,.cls-45,.cls-55,.cls-62,.cls-76{fill:#ec6a7c;}.cls-32{stroke-width:1.2773px;}.cls-100,.cls-101,.cls-102,.cls-33,.cls-40,.cls-42,.cls-51,.cls-54,.cls-61,.cls-65,.cls-77,.cls-98,.cls-99{fill:#fff;}.cls-34,.cls-50,.cls-58,.cls-76{stroke:#ffcf01;}.cls-35,.cls-52,.cls-59,.cls-73,.cls-78{fill:#ffcf01;}.cls-36,.cls-37,.cls-39,.cls-43{stroke:#2b63a3;}.cls-36,.cls-39{stroke-width:0.9139px;}.cls-37,.cls-38,.cls-43{fill:#2b63a3;opacity:0.17;}.cls-37{stroke-width:0.457px;}.cls-40,.cls-41,.cls-42,.cls-80{stroke:#5c5052;}.cls-40,.cls-41,.cls-42{stroke-width:0.3356px;}.cls-43{stroke-width:0.5896px;}.cls-44{letter-spacing:-0.003em;}.cls-46{fill:#f27243;}.cls-47{fill:#24b13e;}.cls-48{fill:#3caba2;}.cls-49,.cls-53,.cls-60,.cls-68,.cls-70,.cls-72{fill:#6d54a3;}.cls-50,.cls-64{fill:#2e61a2;}.cls-50{stroke-width:0.9151px;}.cls-51{font-size:15.5451px;}.cls-51,.cls-54{font-family:Acre-Bold, Acre;font-weight:700;}.cls-52{stroke-width:0.2745px;}.cls-53,.cls-60,.cls-77{stroke:#ec6a7c;}.cls-53{stroke-width:0.7435px;}.cls-54{font-size:10.931px;}.cls-55{stroke-width:0.1605px;}.cls-56,.cls-63{fill:#6b6264;}.cls-56,.cls-63,.cls-73{stroke:#2e61a2;}.cls-56{stroke-width:0.5263px;}.cls-57,.cls-74{fill:#2e6296;}.cls-57{stroke-width:0.1754px;}.cls-58{fill:#f37243;stroke-width:0.657px;}.cls-59{stroke-width:0.219px;}.cls-60{stroke-width:0.4379px;}.cls-61{font-size:8.5402px;stroke-width:0.2135px;}.cls-100,.cls-101,.cls-102,.cls-61,.cls-65,.cls-98,.cls-99{font-family:Acre-Semibold, Acre;font-weight:600;}.cls-62{stroke-width:0.1198px;}.cls-63{stroke-width:0.3401px;}.cls-64{stroke-width:0.1083px;}.cls-65{font-size:7.7225px;stroke-width:0.193px;}.cls-66{stroke:#5e5252;stroke-width:0.6036px;}.cls-67,.cls-71{fill:#39944c;}.cls-67,.cls-69,.cls-71{stroke:#6d54a3;}.cls-67{stroke-width:0.6153px;}.cls-68{stroke-width:0.2367px;}.cls-69{fill:#408c80;stroke-width:1.114px;}.cls-70{stroke:#ededee;stroke-width:0.3582px;}.cls-71{stroke-width:0.6068px;}.cls-72{stroke-width:0.2361px;}.cls-73{stroke-width:1.6214px;}.cls-74{stroke-width:0.3931px;}.cls-75{stroke-width:0.2262px;}.cls-76{stroke-width:0.4264px;}.cls-77,.cls-78{stroke-width:0.1066px;}.cls-79{fill:#4d3b2f;}.cls-80{stroke-width:0.6226px;}.cls-81{stroke:#3daaa1;stroke-width:0.9339px;}.cls-83,.cls-85{stroke:#3b81cc;}.cls-83{stroke-width:3.1692px;}.cls-84{fill:#3b81cc;}.cls-85{stroke-width:2.1128px;}.cls-86{letter-spacing:-0.017em;}.cls-87{letter-spacing:-0.025em;}.cls-88{fill:#42210b;}.cls-89{fill:#603813;}.cls-90{fill:#754c24;}.cls-91,.cls-93,.cls-96{stroke:#c49a6d;}.cls-91,.cls-92{stroke-width:1.3697px;}.cls-92,.cls-94,.cls-97{stroke:#a47c52;}.cls-93,.cls-94{stroke-width:1.5345px;}.cls-95{stroke-width:1.1108px;}.cls-96{stroke-width:1.5875px;}.cls-97{stroke-width:1.3726px;}.cls-98{font-size:11.4318px;}.cls-99{font-size:10.2039px;}.cls-100{font-size:11.827px;}.cls-101{font-size:10.2039px;}.cls-102{font-size:11.8271px;}</style></defs><g id="Layer_2" data-name="Layer 2"><g id="Measuring_Soil_Health" data-name="Measuring Soil Health"><text class="cls-1" transform="translate(0.0005 41.4746)">p<tspan class="cls-2" x="30.1055" y="0">h</tspan><tspan class="cls-3" x="57.5278" y="0">y</tspan><tspan x="81.9741" y="0">sical</tspan></text><text class="cls-1" transform="translate(609.8155 42.0928)">c<tspan class="cls-4" x="25.1777" y="0">h</tspan><tspan x="52.6494" y="0">emical</tspan></text><text class="cls-1" transform="translate(615.9141 364.7676)">biological</text><line class="cls-5" x1="543.9821" y1="7.9385" x2="543.9821" y2="600.5992"/><g id="Layer_48" data-name="Layer 48"><text class="cls-6" transform="translate(12.1065 563.7612)"><tspan class="cls-7">w</tspan><tspan x="23.4297" y="0">a</tspan><tspan class="cls-8" x="41.9395" y="0">t</tspan><tspan x="49.6494" y="0">er </tspan><tspan class="cls-9" x="86.0684" y="0">h</tspan><tspan x="102.7485" y="0">oldi</tspan><tspan class="cls-7" x="153.6274" y="0">n</tspan><tspan x="170.2769" y="0">g </tspan><tspan x="35.8491" y="36">capacit</tspan><tspan class="cls-10" x="138.8677" y="36">y</tspan></text><path class="cls-11" d="M62.67,448.2894h-.03s12.65-19.94,18.41-32.5793c6.2475,12.9718,18.41,32.5793,18.41,32.5793h-.01c.0883.1556.1857.3039.2739.4595a21.4437,21.4437,0,1,1-37.053-.4595Z"/><path class="cls-11" d="M115.5556,433.3678h-.0195s9.54-15.039,13.8868-24.569c4.7082,9.7844,13.8692,24.569,13.8692,24.569h-.0054c.0723.1165.1519.2225.2138.3391a16.1689,16.1689,0,1,1-27.9449-.3391Z"/><path class="cls-11" d="M102.7738,489.3238h-.0087s7.7386-12.2015,11.2651-19.94c3.8213,7.94,11.2559,19.94,11.2559,19.94h-.0087c.0637.0915.122.1871.1748.279a13.1183,13.1183,0,1,1-22.6784-.279Z"/></g><g id="Layer_49" data-name="Layer 49"><polygon class="cls-12" points="439.582 495.952 374.874 509.049 374.874 435.018 439.582 426.176 439.582 495.952"/><polygon class="cls-12" points="314.039 493.564 374.193 509.799 374.193 435.768 314.039 419.533 314.039 493.564"/><ellipse class="cls-13" cx="346.0667" cy="483.142" rx="7.5854" ry="8.3078"/><ellipse class="cls-13" cx="403.6544" cy="434.9476" rx="10.4133" ry="11.4051" transform="translate(-135.6652 187.4589) rotate(-22.4871)"/><ellipse class="cls-13" cx="344.9858" cy="428.97" rx="10.4133" ry="11.4051" transform="translate(-137.8397 164.5651) rotate(-22.4871)"/><ellipse class="cls-13" cx="332.7274" cy="463.6405" rx="7.7872" ry="8.5289"/><ellipse class="cls-13" cx="357.5912" cy="464.0169" rx="5.4298" ry="5.9469"/><ellipse class="cls-13" cx="325.0502" cy="440.0019" rx="8.3936" ry="9.193"/><ellipse class="cls-13" cx="365.1444" cy="442.8992" rx="7.2225" ry="7.9103"/><ellipse class="cls-13" cx="325.109" cy="484.5076" rx="6.1311" ry="6.715"/><ellipse class="cls-13" cx="363.9695" cy="494.3993" rx="8.86" ry="9.7038"/><ellipse class="cls-13" cx="412.2547" cy="458.6355" rx="6.2758" ry="6.8735" transform="translate(-144.0713 192.5494) rotate(-22.4871)"/><ellipse class="cls-13" cx="384.2941" cy="449.1722" rx="6.3195" ry="6.9214" transform="translate(-142.5778 181.1356) rotate(-22.4871)"/><ellipse class="cls-13" cx="425.4766" cy="439.4826" rx="8.4168" ry="9.2184" transform="translate(-135.7405 196.1502) rotate(-22.4871)"/><ellipse class="cls-13" cx="391.6005" cy="487.4286" rx="8.6111" ry="9.4312" transform="translate(-156.6544 186.8389) rotate(-22.4871)"/><ellipse class="cls-13" cx="393.6659" cy="466.489" rx="6.2394" ry="6.8336" transform="translate(-148.4885 186.0368) rotate(-22.4871)"/><ellipse class="cls-13" cx="417.3286" cy="488.7555" rx="7.3329" ry="7.9577" transform="translate(-155.2057 196.7802) rotate(-22.4871)"/><ellipse class="cls-13" cx="429.59" cy="470.3991" rx="9.0973" ry="9.9637" transform="translate(-147.2525 200.0741) rotate(-22.4871)"/><ellipse class="cls-13" cx="375.7993" cy="422.1807" rx="10.4133" ry="11.4051" transform="translate(-132.9001 175.8343) rotate(-22.4871)"/><polygon class="cls-12" points="314.039 420.183 374.193 436.417 440.264 426.176 376.898 408.17 314.039 420.183"/><text class="cls-6" transform="translate(304.8697 565.1743)">bulk de<tspan class="cls-14" x="102.5381" y="0">n</tspan><tspan x="119.8472" y="0">sit</tspan><tspan class="cls-10" x="147.9263" y="0">y</tspan></text></g><g id="Layer_50" data-name="Layer 50"><text class="cls-6" transform="translate(621.4063 596.2456)">mic<tspan class="cls-8" x="49.5889" y="0">r</tspan><tspan x="58.1084" y="0">obial bio</tspan><tspan class="cls-7" x="181.9453" y="0">m</tspan><tspan x="207.7148" y="0">ass a</tspan><tspan class="cls-7" x="279.5625" y="0">n</tspan><tspan x="296.2119" y="0">d </tspan><tspan x="103.1533" y="36">d</tspan><tspan class="cls-15" x="121.6631" y="36">i</tspan><tspan class="cls-7" x="129.043" y="36">v</tspan><tspan x="143.6523" y="36">e</tspan><tspan class="cls-16" x="160.6016" y="36">r</tspan><tspan x="169.4209" y="36">sit</tspan><tspan class="cls-10" x="197.499" y="36">y</tspan></text><path class="cls-17" d="M816.733,474.5505a4.2612,4.2612,0,0,0-6.0786-3.855c-8.8454,2.6734-13.2831,11.1427-13.2831,11.1427h0a4.0019,4.0019,0,0,0,6.6428,4.4174,37.9546,37.9546,0,0,1,10.0127-7.7382,4.2325,4.2325,0,0,0,.5477-.2613h0A4.259,4.259,0,0,0,816.733,474.5505Z"/><path class="cls-17" d="M821.35,490.5286a4.669,4.669,0,1,0-8.0076-4.7781,56.6918,56.6918,0,0,0-6.5408,20.3317l.0307.002a4.6683,4.6683,0,1,0,9.3069.5265S815.9548,500.4975,821.35,490.5286Z"/><path class="cls-18" d="M855.0785,435.776s-10.8114,0-11.5732,10.5835c-.1956,2.7214,5.8471,2.3111,9.2463,1.8479.2755,4.4775,1.1879,21.321-.3469,25.7681,0,0-.1261,1.1694,3.2526,1.0637s4.0537-2.1076,4.0537-2.1076,1.8433,1.7178-2.5384-24.7559c3.3543.4731,9.6255.9712,9.4788-1.8162C866.1189,436.1426,855.0785,435.776,855.0785,435.776Z"/><path class="cls-18" d="M874.3114,457.7041s6.3961,2.2986,4.5971,8.7224c-.4638,1.6517-3.9509.1236-5.8636-.8734-1.1159,2.5912-5.2373,12.3614-5.2749,15.3193,0,0-.1744.7182-2.1512-.0628s-1.95-2.1089-1.95-2.1089-1.4562.625,6.7667-14.1069c-2.0857-.4335-5.9012-1.472-5.222-3.0894C867.7013,455.5734,874.3114,457.7041,874.3114,457.7041Z"/><path class="cls-18" d="M831.607,448.475s8.9034-3.0055,12.6693,6.0777c.9673,2.3361-4.1306,3.6542-7.0673,4.1933,1.1007,4.0084,5.34,19.0549,7.9249,22.5327,0,0,.45.9937-2.3653,1.8394s-3.9621-.7248-3.9621-.7248-1.0082,2.0217-5.2485-22.4468c-2.6209,1.3478-7.6375,3.5287-8.3438,1.04C822.625,451.8656,831.607,448.475,831.607,448.475Z"/><path class="cls-19" d="M905.0443,462.296a5.94,5.94,0,0,0-1.2226-7.3279,6.2548,6.2548,0,0,0-4.1485-1.84,4.83,4.83,0,0,0-3.7692,1.4858,4.7314,4.7314,0,0,0-.55.7042,5.9484,5.9484,0,0,0,1.2236,7.3312,6.2885,6.2885,0,0,0,4.147,1.8371,4.8391,4.8391,0,0,0,3.77-1.4857A4.55,4.55,0,0,0,905.0443,462.296Z"/><path class="cls-19" d="M905.1466,476.9807c2.4449-.7547,4.0669-3.4727,3.8626-6.4691a6.5085,6.5085,0,0,0-1.8361-4.2128,4.5867,4.5867,0,0,0-3.72-1.3942,4.2592,4.2592,0,0,0-.8591.1756c-2.4416.7471-4.0652,3.47-3.8617,6.4651a6.5163,6.5163,0,0,0,1.8345,4.2133,4.5885,4.5885,0,0,0,3.7221,1.3934A4.4865,4.4865,0,0,0,905.1466,476.9807Z"/><path class="cls-19" d="M906.19,490.1255c2.3719-.9711,3.7516-3.8248,3.28-6.78a6.4772,6.4772,0,0,0-2.21-4.0138,4.6181,4.6181,0,0,0-3.8419-1.0412,4.86,4.86,0,0,0-.8413.2527c-2.3712.9733-3.7523,3.8268-3.2777,6.7825a6.4438,6.4438,0,0,0,2.2071,4.01,4.59,4.59,0,0,0,3.8415,1.0419A4.2178,4.2178,0,0,0,906.19,490.1255Z"/><path class="cls-19" d="M914.2394,500.52a6.0563,6.0563,0,0,0,.55-7.4674,6.2856,6.2856,0,0,0-3.5606-2.8153,4.7435,4.7435,0,0,0-3.9821.5287,4.8635,4.8635,0,0,0-.6982.5571,6.0654,6.0654,0,0,0-.55,7.4681,6.3076,6.3076,0,0,0,3.5611,2.8151,4.7364,4.7364,0,0,0,3.9839-.5312A4.5467,4.5467,0,0,0,914.2394,500.52Z"/><path class="cls-19" d="M892.6419,447.4l-4.93.0984a5.2,5.2,0,0,1,1.28-3.9966,4.298,4.298,0,0,1,.4752-.439,4.6141,4.6141,0,0,1,3.8728-.8376,6.5292,6.5292,0,0,1,3.8434,2.5339c1.851,2.46,1.9029,5.7511.1214,7.6547a4.473,4.473,0,0,1-.4763.4369,4.6063,4.6063,0,0,1-3.87.8371,6.2461,6.2461,0,0,1-2.8676-1.49Z"/><path class="cls-20" d="M852.2284,509.8169,841.1446,519.875c-1.8518,1.6794-4.5149,1.768-5.9495.1987-1.4344-1.5711-1.095-4.2049.7555-5.8868l11.0854-10.0561c1.8535-1.68,4.5149-1.768,5.949-.1989S854.0812,508.1379,852.2284,509.8169Z"/><path class="cls-21" d="M817.4977,534.7255s-2.1266-2.33,3.1144-7.0739a5.3627,5.3627,0,0,1,5.34-1.1062,6.95,6.95,0,0,0,7.07-1.9527c4.3639-4.1964,2.9012-6.0259,2.9012-6.0259"/><path class="cls-21" d="M820.5591,533.2245a5.3148,5.3148,0,0,0,2.8154-5.6706s-1.4371-3.3763,4.24-7.5638c5.27-3.89,8.047-2.775,8.047-2.775"/><path class="cls-21" d="M836.8878,519.8592a9.4927,9.4927,0,0,0-5.9731,2.56s-2.8564,2.7636-1.679,5.221c1.2049,2.5136-1.2424,4.0916-2.0548,4.8987a10.5221,10.5221,0,0,1-5.0116,2.26"/><path class="cls-21" d="M837.2954,517.5279c1.7771,4.5556-.2732,6.9025-.2732,6.9025a5.2059,5.2059,0,0,1-6.3895,1.2881c-4.19-1.8283-5.0451.9241-5.7275,1.7957a7.3539,7.3539,0,0,0-.3872,5.7764"/><path class="cls-20" d="M865.6861,492.1694l11.285,9.8318c1.8845,1.6427,2.2838,4.2772.893,5.8855-1.3926,1.6082-4.048,1.579-5.9347-.062l-11.2833-9.8336c-1.885-1.6444-2.2838-4.2772-.8931-5.8849S863.802,490.5257,865.6861,492.1694Z"/><path class="cls-21" d="M894.4847,523.75s-2.0653,2.3844-7.39-2.266a5.3626,5.3626,0,0,1-1.723-5.1743,6.9494,6.9494,0,0,0-2.766-6.793c-4.6778-3.8433-6.3237-2.1767-6.3237-2.1767"/><path class="cls-21" d="M892.636,520.8846a5.3149,5.3149,0,0,0-5.9609-2.1331s-3.1851,1.822-8.0076-3.3262c-4.4792-4.779-3.6969-7.6674-3.6969-7.6674"/><path class="cls-21" d="M877.4531,506.2306a9.493,9.493,0,0,0,3.2406,5.6329s3.0786,2.5136,5.3815,1.057c2.3555-1.4906,4.2088.7554,5.1054,1.4679a10.5224,10.5224,0,0,1,2.8307,4.713"/><path class="cls-21" d="M875.09,506.0984c4.3165-2.2976,6.887-.5357,6.887-.5357a5.2059,5.2059,0,0,1,2.0265,6.195c-1.3259,4.3754,1.5076,4.9025,2.453,5.4783a7.3543,7.3543,0,0,0,5.7821-.2908"/><path class="cls-22" d="M715.91,478.4481c4.6262-12.3833,18.999-21.6833,33.5261-25.9414,16.6335-4.8754,29.58-.66,42.9875,5.7227"/><polygon class="cls-23" points="790.185 459.403 791.812 457.964 791.905 455.794 795.322 459.636 790.185 459.403"/><path class="cls-24" d="M683.075,517.4493s12.9926-2.3141,23.5692-5.3812v-3.054l1.798-4.35,8.99-2.2209,3.65,2.9318A46.6124,46.6124,0,0,1,723.99,519.35l-1.798,3.8245-8.7789,1.7983-4.6538-4.2691-.4226-1.866-24.4327,5.077-2.1156,7.0866-7.8268,1.798L669.308,530.26l-1.375-1.5857-1.904-7.51,2.75-7.5093,7.9328-1.7983,5.6056,4.5485Z"/><path class="cls-25" d="M683.075,517.4493s12.9926-2.3141,23.5692-5.3812v-3.054l1.798-4.35,8.99-2.2209,3.65,2.9318A46.6124,46.6124,0,0,1,723.99,519.35l-1.798,3.8245-8.7789,1.7983-4.6538-4.2691-.4226-1.866-24.4327,5.077-2.1156,7.0866-7.8268,1.798L669.308,530.26l-1.375-1.5857-1.904-7.51,2.75-7.5093,7.9328-1.7983,5.6056,4.5485Z"/><path class="cls-24" d="M681.2591,494.5472s-12.217-4.99-22.7959-8.0519l-1.6326,2.5816-3.8443,2.7144-8.7857-2.9289-1.5171-4.4278a46.6108,46.6108,0,0,1,5.0125-13.365l3.5641-2.2708,8.3806,3.1728,1.6509,6.0955-.64,1.8031,23.3625,8.77,5.5758-4.8581,7.5763,2.6643,2.5756,4.6327.3144,2.0763-2.4061,7.364-6.3378,4.8766-7.6653-2.7205-2.3062-6.8408Z"/><path class="cls-25" d="M681.2591,494.5472s-12.217-4.99-22.7959-8.0519l-1.6326,2.5816-3.8443,2.7144-8.7857-2.9289-1.5171-4.4278a46.6108,46.6108,0,0,1,5.0125-13.365l3.5641-2.2708,8.3806,3.1728,1.6509,6.0955-.64,1.8031,23.3625,8.77,5.5758-4.8581,7.5763,2.6643,2.5756,4.6327.3144,2.0763-2.4061,7.364-6.3378,4.8766-7.6653-2.7205-2.3062-6.8408Z"/><polyline class="cls-26" points="677.51 514.327 676.241 518.298 678.938 528.764 681.476 530.351"/><polyline class="cls-26" points="718.918 505.204 718.918 509.316 721.377 520.514 722.488 521.863"/><polyline class="cls-26" points="686.872 501.512 690.068 498.834 693.383 488.547 692.086 485.849"/><polyline class="cls-26" points="647.001 487.087 649.199 483.612 653.107 472.833 652.889 471.1"/></g><g id="Layer_51" data-name="Layer 51"><text class="cls-6" transform="translate(1018.6436 593.2456)">eart<tspan class="cls-16" x="52.8877" y="0">h</tspan><tspan class="cls-7" x="69.7178" y="0">w</tspan><tspan x="93.1475" y="0">or</tspan><tspan class="cls-27" x="120.3262" y="0">m</tspan><tspan x="146.7559" y="0">s/ </tspan><tspan x="-2.0254" y="36">i</tspan><tspan class="cls-16" x="5.5039" y="36">n</tspan><tspan class="cls-7" x="22.3037" y="36">v</tspan><tspan x="36.9131" y="36">er</tspan><tspan class="cls-8" x="62.9814" y="36">t</tspan><tspan x="70.6914" y="36">eb</tspan><tspan class="cls-8" x="106.1504" y="36">r</tspan><tspan x="114.6699" y="36">a</tspan><tspan class="cls-8" x="133.1797" y="36">t</tspan><tspan class="cls-15" x="140.8896" y="36">e</tspan><tspan x="157.6895" y="36">s</tspan></text><path class="cls-28" d="M1050.17,529.7421s5.1968-18.0594,22.3883-16.5586c12.01,1.05,20.0557,11.428,20.0557,11.428s7.9024,9.396,13.527,3.0329c4.4317-5.0147,1.6337-14.8105,1.6337-14.8105s-2.4136-8.1022-1.8377-14.8338c.5548-6.5045,5.5676-14.069,16.06-13.8129,24.6778.6035,12.3636,31.0962,12.3636,31.0962s-6.0625,13.57,4.6651,13.0614c12.2422-.5834,6.9955-13.7617,6.9955-13.7617s-3.9654-8.5109-2.0987-13.5256c1.6372-4.3991,6.7631,2.7979,6.7631,2.7979s16.9184,24.8357-4.1984,33.1171c-11.8926,4.6641-21.2451-2.1745-22.6216-10.6541-1.1663-7.1881,2.2549-14.4353,2.2549-14.4353s6.141-15.4908-3.6527-17.123c-11.3109-1.885-6.7259,14.9263-6.7259,14.9263s7.191,17.49-5.87,26.1193c-13.0591,8.63-24.0205-4.8967-24.0205-4.8967s-6.7623-7.9887-12.1269-8.0455a16.7562,16.7562,0,0,0-15.159,8.2792s-3.0329,4.1965-6.9964,2.0977A2.5408,2.5408,0,0,1,1050.17,529.7421Z"/><path class="cls-11" d="M1091.6444,486.1464c3.44-6.18-.4734-11.8369-5.1827-15.92a8.6506,8.6506,0,0,0,3.4018-.9341,3.85,3.85,0,0,1,1.0169-.6239c1.1652.8806,1.9872-.67,1.9872-.67,1.0357.6107,1.3475-.2957,1.3475-.2957.8564.6657,1.27.1032,1.27.1032.8782.8174,1.1495.2528,1.1495.2528a.9272.9272,0,0,0,.9434.3935c1.0327,1.2344,1.5429.9081,1.5429.9081a1.4165,1.4165,0,0,0,.7776.5982c-1.0626-1.1981.4635-1.41.4635-1.41a1.1733,1.1733,0,0,0-1.0291.2448,2.1718,2.1718,0,0,0-.9133-.3162c-.332.0295-.7461-.41-.7461-.41-.1794-.7294-.91-.3967-.91-.3967-.3286-.6971-1.108-.3422-1.108-.3422-.5485-.8437-1.3933-.1418-1.3933-.1418-.8558-.6918-1.4557.3929-1.4557.3929-1.7682-.6293-1.95.4849-1.95.4849a7.2223,7.2223,0,0,0-5.0893,1.5744,48.8539,48.8539,0,0,0-9.276-5.8938s1.3268-1.4508,1.1691-2.1317c-.0912-.3971.4637-.7635.4637-.7635,1.9662-.2254,1.9984-1.2161,1.9984-1.2161,1.2706-.05,1.3079-.8188,1.3079-.8188a1.0644,1.0644,0,0,0,1.3407-.5169c1.0828.3523,1.048-.3834,1.048-.3834.7668.0038.6615-.6656.6615-.6656,1.26-.95.9933-1.3816.9933-1.3816a1.3532,1.3532,0,0,0,.6316-.7815c-1.1828,1.1973-1.2937-.4921-1.2937-.4921a1.1155,1.1155,0,0,0,.0848.9609,2.77,2.77,0,0,0-.5,1.38c-.5111-.1669-.776.542-.776.542-.4552-.2752-.9594.425-.9594.425a1.043,1.043,0,0,0-1.3772.4862c-.9215-.3444-1.3053.8528-1.3053.8528-1.2127-.3647-2.1218,1.331-2.1218,1.331-2.1689.2469-2.3766,2.94-2.3766,2.94a3.8524,3.8524,0,0,0-3.6553.83,8.6971,8.6971,0,0,0-2.5389-4.2058,3.6043,3.6043,0,0,0-.2841-2.9986c.4543-.3711.0032-.8794.0032-.8794a2.8429,2.8429,0,0,0-.2467-2.7022c1.0141-1.0135.3713-1.7911.3713-1.7911.6906-1.1967.0863-1.4392.0863-1.4392.3716-1.145-.3155-1.2086-.3155-1.2086.15-.8324-.5074-.933-.5074-.933a1.8624,1.8624,0,0,0-1.0134-1.3729.748.748,0,0,0-.374-.6413c.5791,1.4535-.89.9114-.89.9114.2372.3153.8431.2509.8431.2509.08.434,1.15,1.0519,1.15,1.0519a.7165.7165,0,0,0,.4362.9072c-.4018.3826.1742,1.0025.1742,1.0025-.6373.4081-.1,1.3035-.1,1.3035a.7066.7066,0,0,0-.5653.9276,3.4575,3.4575,0,0,1,.203,1.2719c-1.3478,1.2486.0829,2.7137.0829,2.7137a.445.445,0,0,0,.0984.602,2.0493,2.0493,0,0,0-.4154,1.5415,3.5049,3.5049,0,0,0-4.836.1211,3.4557,3.4557,0,0,0-1.603-1.6336s.4471-.4387-.4649-1.1759a1.2427,1.2427,0,0,0-1.7275.2338l-.3889.0246s1.9347-4.8514-1.5182-11.5966c-3.4126-6.6656-2.5334-10.7855-2.5334-10.7855s-1.8557,2.8787,2.1064,10.7681c3.4357,6.8394,1.5433,11.4636,1.5433,11.4636a1.0375,1.0375,0,0,0-.7979.1756c.5216-1.7112-1.57-2.8283-1.57-2.8283s-.2117-.4991-.5927-.0277a.43.43,0,0,0,.1208.7133,2.6939,2.6939,0,0,0-1.9181.9515s.4712.3809.8739.137a.9446.9446,0,0,1,.8014-.0773.6617.6617,0,0,0-.3524.4359s.0885.1945,1.0613-.0442.81.3674.81.3674a2.0423,2.0423,0,0,0-2.246,2.7788s-.5592.2858-.5288-.7155-.1793-1.0469-.1793-1.0469a.6612.6612,0,0,0-.3523.4359.9452.9452,0,0,1-.0924-.8c.154-.4449-.3171-.8258-.3171-.8258a2.6933,2.6933,0,0,0-.5282,2.0749.43.43,0,0,0-.723.0317c-.381.4714.1515.5735.1515.5735s1.5308,1.8113,3.0946.9424a1.0389,1.0389,0,0,0-.0043.8169s-4.1248,2.82-11.5327.8948c-8.5446-2.22-10.97.1979-10.97.1979s3.8442-1.7237,11.0775.2151c7.3191,1.9621,11.6567-.9464,11.6567-.9464l.0579.3849a1.2433,1.2433,0,0,0,.133,1.7388c.9121.7372,1.2473.208,1.2473.208a3.4552,3.4552,0,0,0,1.9334,1.2249,3.5054,3.5054,0,0,0,.8951,4.7543,2.0479,2.0479,0,0,0-1.42.7289.4442.4442,0,0,0-.6094.03s-1.7322-1.092-2.6706.4878a3.4572,3.4572,0,0,1-1.286.068c-.7917-.0864-.7887.7473-.7887.7473s-.9881-.338-1.2537.371c0,0-.7267-.4335-1.0165.04a.7167.7167,0,0,0-.9785-.2363s-.8285-.916-1.27-.9035c0,0-.064-.6061-.4222-.7717,0,0,.8382,1.323-.7038,1.0607a.7482.7482,0,0,0,.7049.2319,1.8621,1.8621,0,0,0,1.5553.7025s.2357.6226,1.0182.301c0,0,.2061.6586,1.248.0549,0,0,.3641.54,1.3889-.3857,0,0,.8949.4657,1.6737-.7389a2.8448,2.8448,0,0,0,2.6938-.3253s.5914.3348.8592-.1875a3.6032,3.6032,0,0,0,2.9915-.351,8.7,8.7,0,0,0,4.6451,1.6,3.8528,3.8528,0,0,0-.0456,3.7485s-2.59.7673-2.3765,2.94c0,0-1.4678,1.2448-.8567,2.3538,0,0-1.09.6263-.56,1.4551a1.0439,1.0439,0,0,0-.1871,1.449s-.5786.6395-.2136,1.0262c0,0-.6375.4076-.3673.8725a2.77,2.77,0,0,0-1.2445.779,1.1182,1.1182,0,0,0-.9574.1186s1.6754-.2463.7525,1.1617a1.3531,1.3531,0,0,0,.6316-.7815s.4778.1709,1.1431-1.2613a.576.576,0,0,0,.5117-.7858s.7267-.12.1552-1.1052a1.064,1.064,0,0,0,.224-1.419s.7447-.198.5266-1.4507c0,0,.9618-.239.77-2.2087,0,0,.2421-.62.6492-.6134.6995.0106,1.8394-1.59,1.8394-1.59a48.854,48.854,0,0,0,7.7079,7.8339,7.2214,7.2214,0,0,0-.4727,5.3067s-1.051.4114-.065,2.0085c0,0-.9349.814-.0791,1.5058,0,0-.5091.973.431,1.3324,0,0-.1832.836.5668,1.0116,0,0-.1722.7844.5787.8068,0,0,.5159.3131.5566.6439a2.1709,2.1709,0,0,0,.5014.8259,1.1743,1.1743,0,0,0-.0242,1.0582s-.1121-1.5372,1.2817-.7489a1.4157,1.4157,0,0,0-.7478-.635s.212-.5671-1.2115-1.3182a.9265.9265,0,0,0-.5827-.84s.4952-.3838-.4875-1.0719c0,0,.4626-.5216-.3677-1.22,0,0,.8209-.4949.0064-1.3793,0,0,1.3443-1.1292.2387-2.0836a3.8581,3.8581,0,0,1,.3971-1.1253,8.646,8.646,0,0,0,.2-3.5221c4.98,3.748,11.3318,6.3887,16.6535,1.729"/><path class="cls-24" d="M1161.753,473.1294c.5821-5.2333-3.668-8.6222-3.668-8.6222a10.1727,10.1727,0,0,1-2.2646-2.4857c-1.2979-2.8543-5.1833-3.9759-5.1833-3.9759.1486-2.5192-4.0941-4.6112-4.0941-4.6112-2.4835-4.2026-5.6347-4.3027-5.6347-4.3027-1.9909-2.6445-7.2225-3.0028-7.2225-3.0028-4.9729-3.5562-7.6387-1.2114-7.6387-1.2114a3.3407,3.3407,0,0,0-3.3619-.074c-5.0263-2.1255-7.83,4.0373-7.83,4.0373a3.723,3.723,0,0,0-.3257,1.3389s-.3821,1.6813-3.0845,1.4754-5.4176,1.9549-5.4176,1.9549-1.3107,1.3447,2.883,1.3118c0,0-1.9185,1.9841-.8793,3.2116s2.6068-1.778,2.6068-1.778a7.9109,7.9109,0,0,1,4.79-2.8965,12.9019,12.9019,0,0,0,2.0765,2.7316,11.6862,11.6862,0,0,1,3.9982-3.5171c2.26-1.0192,1.5742,1.3637,1.5742,1.3637a6.6164,6.6164,0,0,0,.3733,6.2067,22.03,22.03,0,0,1,.5693-4.323,8.9758,8.9758,0,0,0,1.3508,4.4966c-.8895-2.8783,1.33-8.2894,1.33-8.2894l.937,1.5493s-2.5119,7.7674.3961,8.14c2.23.2859,2.1108-2.9049,2.1108-2.9049a4.6637,4.6637,0,0,1,.8034-3.7292c1.8543-2.7594,2.6186.3912,2.6186.3912.5233,7.1919-2.9168,10.8015-2.9168,10.8015,1.8979.2169,3.199-1.7663,3.199-1.7663,4.3942,1.8642,3.0868-4.5862,2.7986-5.8326.5245,1.7143,3.6957,1.66,3.6957,1.66-.3565,2.1022,3.3188,2.8034,3.3188,2.8034a2.8152,2.8152,0,0,0,2.3092,2.83c.8448,2.9712,9.79,8.335,9.79,8.335s5.41,3.9171,5.9932-1.316"/></g><g id="Layer_52" data-name="Layer 52"><text class="cls-6" transform="translate(1291.1573 593.2461)"><tspan class="cls-8">r</tspan><tspan class="cls-15" x="8.5195" y="0">e</tspan><tspan x="25.3193" y="0">spi</tspan><tspan class="cls-8" x="63.5674" y="0">r</tspan><tspan x="72.0869" y="0">ation</tspan></text><path class="cls-29" d="M1353.6939,503.1815l-9.3323-6.2433,9.5307-3.7522c.0351-.5972.0525-1.1629.0987-1.7739a10.3291,10.3291,0,1,0-20.4911-2.3447,126.6166,126.6166,0,0,0,5.3427,47.1364l.0637-.0221c.12.3644.2578.7321.4164,1.0911a10.3342,10.3342,0,1,0,18.8189-8.5458S1354.0745,520.3251,1353.6939,503.1815Z"/><polygon class="cls-30" points="1388.611 502.619 1398.029 498.34 1399.006 487.671 1390.567 481.287 1381.15 485.57 1380.172 496.236 1388.611 502.619"/><line class="cls-30" x1="1399.006" y1="487.6712" x2="1405.6492" y2="484.6523"/><line class="cls-30" x1="1403.9058" y1="502.9488" x2="1398.0293" y2="498.3398"/><line class="cls-30" x1="1388.6112" y1="502.6191" x2="1387.8578" y2="510.1346"/><line class="cls-30" x1="1390.5673" y1="481.2873" x2="1391.32" y2="473.7729"/><line class="cls-30" x1="1373.5294" y1="499.2542" x2="1380.1717" y2="496.2361"/><polygon class="cls-30" points="1423.708 489.785 1426.396 479.366 1418.753 471.819 1408.428 474.692 1405.744 485.113 1413.384 492.659 1423.708 489.785"/><line class="cls-30" x1="1418.7529" y1="471.8192" x2="1420.6483" y2="464.4697"/><line class="cls-30" x1="1433.7117" y1="477.4685" x2="1426.3955" y2="479.366"/><line class="cls-30" x1="1423.7079" y1="489.7848" x2="1429.0501" y2="495.1548"/><line class="cls-30" x1="1408.4285" y1="474.6925" x2="1403.0867" y2="469.3239"/><line class="cls-31" x1="1381.0276" y1="485.7864" x2="1375.3674" y2="480.7578"/><line class="cls-30" x1="1411.4883" y1="500.0076" x2="1413.3837" y2="492.6595"/><polygon class="cls-30" points="1435.314 453.403 1428.718 444.921 1418.105 446.42 1414.093 456.398 1420.692 464.879 1431.304 463.381 1435.314 453.403"/><line class="cls-30" x1="1418.105" y1="446.4202" x2="1413.4517" y2="440.4374"/><line class="cls-30" x1="1431.6707" y1="437.9345" x2="1428.7181" y2="444.9206"/><line class="cls-30" x1="1435.3145" y1="453.4025" x2="1442.8078" y2="452.412"/><line class="cls-30" x1="1414.093" y1="456.3978" x2="1406.601" y2="457.3888"/><line class="cls-30" x1="1435.9559" y1="469.3627" x2="1431.3036" y2="463.3807"/><ellipse class="cls-32" cx="1288.3822" cy="432.4464" rx="30.4173" ry="30.5514"/><path class="cls-33" d="M1264.9846,432.6992c0-5.4033,4.1816-9.6826,10.3681-9.6826a11.0757,11.0757,0,0,1,4.5537.9092l.0283,4.3066a7.2584,7.2584,0,0,0-4.4677-1.3369,5.8143,5.8143,0,1,0,0,11.6084,7.0931,7.0931,0,0,0,4.4677-1.3369l-.0283,4.333a11.5236,11.5236,0,0,1-4.5537.8828C1269.1662,442.3828,1264.9846,438.1025,1264.9846,432.6992Z"/><path class="cls-33" d="M1281.8273,432.6992c0-5.1894,4.0381-9.71,10.3682-9.71,6.3008,0,10.3682,4.52,10.3682,9.71,0,5.2158-4.0674,9.71-10.3682,9.71C1285.8654,442.4092,1281.8273,437.915,1281.8273,432.6992Zm16.4112,0a6.0479,6.0479,0,1,0-6.043,5.8047A5.8157,5.8157,0,0,0,1298.2385,432.6992Z"/><path class="cls-33" d="M1304.6574,441.2324l2.7783-3.3437c.43-.5352.8311-.9893.8311-1.3643a.5446.5446,0,0,0-.5733-.5615c-.43,0-.6591.3476-.7734.7754l-2.5488-.9356a3.2974,3.2974,0,0,1,3.38-2.542c2.0332,0,3.3505,1.2305,3.3505,2.7823a5.0012,5.0012,0,0,1-1.6894,3.21l-.3154.4278h2.0625v2.3808h-6.502Z"/><path class="cls-34" d="M1321.17,507.2657c-8.19,2.681-17.4195-.5079-23.89-5.7609-7.1176-5.7782-8.6109-13.2447-8.93-21.7314"/><polygon class="cls-35" points="1290.339 481.082 1288.452 480.386 1286.64 481.26 1288.279 476.787 1290.339 481.082"/></g><g id="Layer_53" data-name="Layer 53"><path class="cls-36" d="M1409.9387,105.0176c0,5.1066-17.1769,9.2464-38.3655,9.2464s-38.3655-4.14-38.3655-9.2464l9.374,68.24c0,3.8589,12.98,6.9872,28.9915,6.9872s28.9914-3.1283,28.9914-6.9872Z"/><ellipse class="cls-37" cx="1371.5732" cy="105.0176" rx="38.3655" ry="9.2464"/><ellipse class="cls-38" cx="1371.5732" cy="173.2574" rx="28.9914" ry="6.9872"/><ellipse class="cls-38" cx="1371.5396" cy="132.5624" rx="34.8353" ry="8.3956"/><ellipse class="cls-39" cx="1371.5732" cy="105.0176" rx="38.3655" ry="9.2464"/><path class="cls-38" d="M1342.5817,173.2574c0,3.8589,12.98,6.9872,28.9915,6.9872s28.9914-3.1283,28.9914-6.9872l5.81-40.695c0-4.6367-15.5963-8.3955-34.8354-8.3955s-34.8353,3.7588-34.8353,8.3955Z"/><path class="cls-28" d="M1414.4677,60.4277s34.2625-15.9338,51.3973-18.1831c4.8259-.6335,9.5049,1.7012,10.68,6.4244a8.813,8.813,0,0,1-6.4244,10.68c-.2544.0633-.5088.1125-.763.1526,0,0-43.2916-.1293-49.6594,9.9349s-4.0648,12.0766-15.3837,14.8927c-15.84,3.941-21.5169-5.5446-23.0094-11.5433S1398.7268,61.87,1398.7268,61.87s9.6511-2.2932,15.7409-1.4426h0"/><path class="cls-40" d="M1414.7638,65.243c-.0054-.036-.0075-.0726-.0163-.108a1.1547,1.1547,0,0,0-.0777-.2141,17.703,17.703,0,0,0-5.865-8.441,13.3356,13.3356,0,0,1-1.0172-.8707c-.1494-.0468-.299-.0934-.4512-.1288a6.4375,6.4375,0,0,0-1.8744-.061l-3.803.2479a7.2224,7.2224,0,0,0-2.5626.4834c-1.5916.7292-2.5374,2.5522-4.2083,3.075-.81.2535-1.693.1628-2.5131.3819a18.2255,18.2255,0,0,0-2.8,1.4335c-.7144.332-1.4954.5078-2.1978.8646a4.5994,4.5994,0,0,0-1.7779,1.6761,6.2877,6.2877,0,0,1-.3089,1.7758c-.2446.67-.6789,1.2577-.9245,1.9273-.5607,1.5289-.0685,3.2208.4245,4.7729l.1057.5042c.5535,2.2243,7.6846,2.3649,15.9278.3141,7.4881-1.8631,13.3169-4.8934,13.9074-7.1l.1669-.035C1414.8572,65.5736,1414.81,65.4084,1414.7638,65.243Z"/><path class="cls-41" d="M1403.0577,58.3354a6.8252,6.8252,0,0,1,2.4471,1.4794c.17.16.346.3769.2849.6028"/><path class="cls-41" d="M1390.0522,66.4569a1.1035,1.1035,0,0,0-.6964.9746,5.1342,5.1342,0,0,1-.1956,1.2524,1.86,1.86,0,0,0-.27.7242"/><path class="cls-41" d="M1403.1536,66.0094a2.2109,2.2109,0,0,1,1.7867.9456"/><path class="cls-42" d="M1365.9374,89.4378c-.4275.1181-.4672.5431-.3981.9812.0835.53.1015.7828.8547.9812,1.1513.0592,1.12-1.299.6159-1.9242a.8966.8966,0,0,0-1.0725-.0382"/><path class="cls-42" d="M1378.3208,80.0527c-.1738-.36-.6693-.7875-.9783-.5337-.259.2128-.6842.5339-.535.9049.2067.5139.9275.5049,1.4725.4063.1135-.4961.349-.4662.0408-.7775"/><path class="cls-42" d="M1375.1234,87.3675c-.3539-.0021-.4185.642-.3223.7824.208.3033.3013.5272.6688.5412a.7147.7147,0,1,0-.3465-1.3236"/><path class="cls-42" d="M1372.8107,123.8488c-.2458.3691.0023.7164.3413,1.0024a.91.91,0,0,0,1.2883.1826c.9092-.7089-.0033-1.7153-.7936-1.858a.8967.8967,0,0,0-.836.673"/><path class="cls-42" d="M1376.031,108.6483c-.3671-.1585-1.0215-.1574-1.089.2367-.0565.33-.1678.8515.1878,1.0343.4926.2533,1.0317-.2253,1.3792-.6566-.2388-.4493-.0413-.5808-.478-.6144"/><path class="cls-42" d="M1378.401,116.2714c-.2689.23.1038.7593.2684.8025.3558.0932.5729.2014.86-.0286a.7147.7147,0,1,0-1.1282-.7739"/><path class="cls-42" d="M1369.36,133.036c.4028-.1854.3736-.6113.2349-1.0325-.1676-.5093-.2261-.7563-1.0014-.8309-1.1458.1269-.8964,1.4623-.2982,1.9983a.8967.8967,0,0,0,1.0647-.1349"/><path class="cls-42" d="M1378.3318,125.74c-.3671-.1586-1.0215-.1574-1.089.2367-.0565.33-.1678.8515.1878,1.0343.4926.2533,1.0317-.2253,1.3792-.6566-.2388-.4493-.0413-.5808-.478-.6144"/><path class="cls-42" d="M1371.66,150.1278c.4028-.1854.3736-.6113.2349-1.0326-.1676-.5093-.2261-.7562-1.0014-.8308-1.1458.1269-.8964,1.4623-.2982,1.9983a.8968.8968,0,0,0,1.0647-.1349"/><path class="cls-42" d="M1375.3817,143.3343c.4028-.1854.3736-.6112.2349-1.0325-.1676-.5093-.2261-.7562-1.0014-.8309-1.1459.127-.8965,1.4624-.2983,1.9983a.8967.8967,0,0,0,1.0648-.1349"/><path class="cls-42" d="M1358.6482,144.2917c.2294.3275.7873.67,1.0514.3693.2213-.2516.5893-.637.3824-.9791-.2867-.4739-.9968-.3491-1.5188-.164-.0321.5078-.2693.5163.085.7738"/><path class="cls-42" d="M1360.6266,136.5577c.35-.0549.31-.701.1921-.824-.254-.2659-.3822-.4719-.7471-.4265a.7147.7147,0,1,0,.555,1.2505"/><path class="cls-42" d="M1372.773,160.9373c-.0177.4431.3751.61.8134.6781.53.0818.7764.1418,1.1949-.5151.4071-1.0786-.896-1.4626-1.6451-1.1729a.8967.8967,0,0,0-.3632,1.01"/><path class="cls-42" d="M1367.6065,146.2835c-.396.0558-.954.3976-.8064.7692.1237.3115.3.8143.6989.7852.5524-.04.7635-.73.8356-1.2788-.4379-.2592-.3378-.4743-.7281-.2756"/><path class="cls-42" d="M1373.6,151.5573c-.11.3364.484.5941.647.5452.3522-.1056.5939-.1263.7191-.4721a.7147.7147,0,1,0-1.3661-.0731"/><path class="cls-42" d="M1379.6306,102.2717a.8482.8482,0,0,0-.7563,1.1415.78.78,0,0,0,1.321.0443c.2519-.4839-.052-1.3721-.5647-1.1858"/><path class="cls-42" d="M1371.6562,106.6721a.8482.8482,0,0,0-.7564,1.1415.78.78,0,0,0,1.321.0443c.2519-.4839-.052-1.3721-.5646-1.1858"/><path class="cls-43" d="M1409.9387,105.0176c0,5.1066-17.1769,9.2464-38.3655,9.2464s-38.3655-4.14-38.3655-9.2464l9.374,68.24c0,3.8589,12.98,6.9872,28.9915,6.9872s28.9914-3.1283,28.9914-6.9872Z"/><text class="cls-6" transform="translate(1327.9669 242.6411)"><tspan class="cls-44">s</tspan><tspan x="12.1494" y="0">alinit</tspan><tspan class="cls-10" x="77.9072" y="0">y</tspan></text></g><g id="Layer_54" data-name="Layer 54"><text class="cls-6" transform="translate(1157.6114 242.6411)">pH</text><rect class="cls-45" x="1116.8078" y="27.7988" width="24" height="24" transform="translate(1168.6066 -1089.009) rotate(90)"/><rect class="cls-46" x="1116.8078" y="53.7988" width="24" height="24" transform="translate(1194.6066 -1063.009) rotate(90)"/><rect class="cls-35" x="1116.8078" y="79.7988" width="24" height="24" transform="translate(1220.6066 -1037.009) rotate(90)"/><rect class="cls-47" x="1116.8078" y="105.7988" width="24" height="24" transform="translate(1246.6066 -1011.009) rotate(90)"/><rect class="cls-48" x="1116.8078" y="131.7988" width="24" height="24" transform="translate(1272.6066 -985.009) rotate(90)"/><rect class="cls-11" x="1116.8078" y="157.7988" width="24" height="24" transform="translate(1298.6066 -959.009) rotate(90)"/><rect class="cls-49" x="1116.8078" y="183.7988" width="24" height="24" transform="translate(1324.6066 -933.009) rotate(90)"/><circle class="cls-50" cx="1186.8836" cy="80.36" r="10.8323"/><text class="cls-51" transform="matrix(-1, 0, 0, 1, 1192.5861, 86.1387)">H</text><path class="cls-52" d="M1191.3608,70.37h2.0228V68.3844h1.916V70.37h1.932v1.8782H1195.3v2.0013h-1.916V72.2479h-2.0228Z"/><circle class="cls-50" cx="1224.441" cy="109.964" r="10.8323"/><text class="cls-51" transform="matrix(-1, 0, 0, 1, 1230.1437, 115.7427)">H</text><path class="cls-52" d="M1228.9182,99.9738h2.0228V97.9884h1.916v1.9854h1.932v1.8782h-1.932v2.0013h-1.916V101.852h-2.0228Z"/><circle class="cls-50" cx="1224.441" cy="84.7785" r="10.8323"/><text class="cls-51" transform="matrix(-1, 0, 0, 1, 1230.1437, 90.5571)">H</text><path class="cls-52" d="M1228.9182,74.7883h2.0228V72.8029h1.916v1.9854h1.932v1.8781h-1.932v2.0014h-1.916V76.6664h-2.0228Z"/><circle class="cls-50" cx="1189.9766" cy="136.0333" r="10.8323"/><text class="cls-51" transform="matrix(-1, 0, 0, 1, 1195.6789, 141.812)">H</text><path class="cls-52" d="M1194.4538,126.043h2.0227v-1.9853h1.9161v1.9853h1.932v1.8782h-1.932v2.0014h-1.9161v-2.0014h-2.0227Z"/><circle class="cls-50" cx="1197.9299" cy="104.22" r="10.8323"/><text class="cls-51" transform="matrix(-1, 0, 0, 1, 1203.632, 109.9985)">H</text><path class="cls-52" d="M1202.4071,94.23h2.0228V92.2444h1.916V94.23h1.932v1.8782h-1.932v2.0013h-1.916V96.1079h-2.0228Z"/><circle class="cls-50" cx="1215.604" cy="135.5914" r="10.8323"/><text class="cls-51" transform="matrix(-1, 0, 0, 1, 1221.3068, 141.3701)">H</text><path class="cls-52" d="M1220.0812,125.6012h2.0227v-1.9854h1.9161v1.9854h1.932v1.8782h-1.932v2.0013h-1.9161v-2.0013h-2.0227Z"/><circle class="cls-50" cx="1200.581" cy="167.4048" r="10.8323"/><text class="cls-51" transform="matrix(-1, 0, 0, 1, 1206.2834, 173.1836)">H</text><path class="cls-52" d="M1205.0582,157.4145h2.0228v-1.9853h1.916v1.9853h1.932v1.8782h-1.932v2.0013h-1.916v-2.0013h-2.0228Z"/><circle class="cls-50" cx="1225.7666" cy="161.2188" r="10.8323"/><text class="cls-51" transform="matrix(-1, 0, 0, 1, 1231.4689, 166.9971)">H</text><path class="cls-52" d="M1230.2438,151.2286h2.0227v-1.9854h1.9161v1.9854h1.932v1.8782h-1.932v2.0013h-1.9161v-2.0013h-2.0227Z"/><circle class="cls-50" cx="1174.0699" cy="112.1733" r="10.8323"/><text class="cls-51" transform="matrix(-1, 0, 0, 1, 1179.7726, 117.9521)">H</text><path class="cls-52" d="M1178.5471,102.1831h2.0228v-1.9854h1.916v1.9854h1.932v1.8781h-1.932v2.0014h-1.916v-2.0014h-2.0228Z"/><circle class="cls-50" cx="1174.0699" cy="161.6607" r="10.8323"/><text class="cls-51" transform="matrix(-1, 0, 0, 1, 1179.7726, 167.4395)">H</text><path class="cls-52" d="M1178.5471,151.67h2.0228v-1.9853h1.916V151.67h1.932v1.8782h-1.932V155.55h-1.916v-2.0014h-2.0228Z"/><circle class="cls-50" cx="1246.9755" cy="129.8474" r="10.8323"/><text class="cls-51" transform="matrix(-1, 0, 0, 1, 1252.6779, 135.626)">H</text><path class="cls-52" d="M1251.4526,119.8571h2.0228v-1.9853h1.9161v1.9853h1.9319v1.8782h-1.9319v2.0013h-1.9161v-2.0013h-2.0228Z"/></g><g id="Layer_55" data-name="Layer 55"><text class="cls-6" transform="translate(887.7413 244.2627)">nutrient <tspan x="-48.8545" y="36">co</tspan><tspan class="cls-7" x="-14.9551" y="36">n</tspan><tspan x="1.6943" y="36">cent</tspan><tspan class="cls-8" x="59.8926" y="36">r</tspan><tspan x="68.4121" y="36">atio</tspan><tspan class="cls-27" x="120.8203" y="36">n</tspan><tspan x="138.1299" y="36">s</tspan></text><circle class="cls-53" cx="959.9751" cy="107.9981" r="7.4395"/><text class="cls-54" transform="translate(956.717 111.7065)">K</text><path class="cls-55" d="M966.642,102.44h-1.3135v1.3h-1.2442v-1.3H962.83v-1.22h1.2545V99.9311h1.2442V101.22h1.3135Z"/><circle class="cls-56" cx="945.09" cy="67.9729" r="7.8997"/><path class="cls-33" d="M944.5168,70.6074l-.6563-3.1-1.4238,3.1582h-.2021l-1.3985-3.125-.5976,3.0664h-1.2969l1.2881-5.9726h.5312l1.5752,3.6562,1.5752-3.6562h.5391l1.3476,5.9726Z"/><path class="cls-33" d="M950.4885,70.3789a1.9727,1.9727,0,0,1-2.14,1.9883,3.6456,3.6456,0,0,1-1.6172-.3867l.0078-1.1465a2.6812,2.6812,0,0,0,1.3985.4639,1.0325,1.0325,0,0,0,1.1543-1.12V70.06a1.5987,1.5987,0,0,1-1.2715.6064,2.1887,2.1887,0,0,1,0-4.3379,1.59,1.59,0,0,1,1.2549.59v-.5225H950.48Zm-1.2129-1.8867a.9637.9637,0,0,0-.9434-.9932.9955.9955,0,0,0,0,1.9873A.9586.9586,0,0,0,949.2756,68.4922Z"/><path class="cls-57" d="M948.5335,63.0014c.5038-.5194,1.0413-1.0795,1.5113-1.5855a1.3131,1.3131,0,0,0,.4433-.8162.4437.4437,0,0,0-.4433-.4452c-.3293,0-.5234.31-.5171.6611l-1.1757-.3173a1.67,1.67,0,0,1,1.6865-1.5989,1.5918,1.5918,0,0,1,1.6857,1.5179,2.1579,2.1579,0,0,1-.7725,1.5452c-.1548.1753-.3356.3778-.49.56h1.2559V63.71h-3.1837Z"/><path class="cls-57" d="M954.7489,62.07h-.8935v.8841h-.8464V62.07h-.8535v-.83h.8535v-.877h.8464v.877h.8935Z"/><circle class="cls-58" cx="911.5066" cy="97.184" r="8.9404"/><path class="cls-33" d="M905.4084,97.4805a3.69,3.69,0,0,1,3.3-4.252,3.8157,3.8157,0,0,1,1.7031.1455l.2227,1.6778a2.5457,2.5457,0,0,0-1.6934-.3164,2.2817,2.2817,0,0,0,.5713,4.5273,2.484,2.484,0,0,0,1.5615-.7275l.2031,1.6914a3.984,3.984,0,0,1-1.6152.5527A3.6888,3.6888,0,0,1,905.4084,97.4805Z"/><path class="cls-33" d="M916.632,94.4746,917.29,99.69l-1.5019.19-.084-.667a1.9679,1.9679,0,0,1-1.4717.9375,2.7322,2.7322,0,0,1-.6777-5.3721,1.9655,1.9655,0,0,1,1.6582.544l-.083-.6582Zm-1.1846,2.7891a1.2026,1.2026,0,0,0-1.3232-1.084,1.2425,1.2425,0,0,0,.3105,2.4609A1.1948,1.1948,0,0,0,915.4474,97.2637Z"/><path class="cls-59" d="M914.6306,90.3249c.4711-.6267.9729-1.3016,1.41-1.9093a1.4229,1.4229,0,0,0,.3658-.9375.4808.4808,0,0,0-.5369-.4185.6257.6257,0,0,0-.4662.7808l-1.3068-.1816a1.8089,1.8089,0,0,1,1.5959-1.9475,1.7248,1.7248,0,0,1,2.0181,1.4031,2.3382,2.3382,0,0,1-.6209,1.7658c-.1426.2094-.31.4516-.4511.6686l1.35-.17.161,1.2762-3.4223.4319Z"/><path class="cls-59" d="M921.1856,88.481l-.9605.1212.12.95-.91.1148-.12-.95-.9174.1158-.1125-.8919.9174-.1158-.119-.9427.91-.1148.119.9427.9605-.1212Z"/><circle class="cls-60" cx="909.3616" cy="191.5082" r="8.6275"/><text class="cls-61" transform="translate(903.2951 193.8228)">Mn</text><path class="cls-62" d="M912.9414,185.5527c.4423-.5017.9023-1.0455,1.3446-1.5654a1.61,1.61,0,0,0,.49-.9557.5315.5315,0,0,0-.5433-.5317.6544.6544,0,0,0-.6038.7226l-.8241-.2269a1.4133,1.4133,0,0,1,1.4279-1.3741,1.359,1.359,0,0,1,1.4278,1.32,2.046,2.046,0,0,1-.6276,1.35c-.197.2453-.4062.4961-.6093.7409H915.69v.8485h-2.7486Z"/><path class="cls-62" d="M918.4161,184.37h-.8185V185.2h-.6754V184.37h-.8v-.6571h.8v-.8063h.6754v.8063h.8185Z"/><circle class="cls-63" cx="937.9163" cy="141.9802" r="7.8013"/><path class="cls-64" d="M941.1533,136.595c.4-.4537.8159-.9454,1.2158-1.4156a1.4548,1.4548,0,0,0,.4426-.8641.4806.4806,0,0,0-.4913-.4808.5917.5917,0,0,0-.5459.6534l-.7452-.2052A1.278,1.278,0,0,1,942.32,133.04a1.2289,1.2289,0,0,1,1.2912,1.1938,1.85,1.85,0,0,1-.5675,1.2209c-.1782.2218-.3674.4486-.551.67h1.1455v.7673h-2.4853Z"/><path class="cls-64" d="M946.1037,135.5252h-.74v.7511h-.6107v-.7511h-.7237v-.5942h.7237v-.7291h.6107v.7291h.74Z"/><text class="cls-65" transform="translate(933.6701 144.4771)">Zn</text><line class="cls-66" x1="1009.1418" y1="85.2372" x2="1008.0481" y2="84.5672"/><circle class="cls-67" cx="1001.6103" cy="81.4567" r="9.6707"/><path class="cls-33" d="M1000.8752,77.5508l-1.9717,6.207-.6826-.2168-2.06-4.7119-1.1455,3.6074-1.2871-.4092,1.9658-6.1894.6836.2168,2.0371,4.8105,1.1817-3.7207Z"/><path class="cls-33" d="M1006.9972,79.4951l-1.9462,6.1279-1.2871-.4082.7763-2.4423-2.3379-.7422-.7754,2.4424-1.2871-.4092,1.9463-6.128,1.2871.4083-.7754,2.4433,2.3369.7422.7754-2.4434Z"/><path class="cls-33" d="M1008.0285,86.1836l-.2627-.083-.1113.35-.78-.2471.1113-.3506-1.1728-.372.1748-.5518,1.5381-1.623,1.0244.3252-.5508,1.7343.2627.083Zm-.81-1.0664.2422-.7617-.5566.6621Z"/><path class="cls-68" d="M1012.8641,79.2753l-1.5415-.49-.497,1.5645-1.2718-.404.4969-1.5645-1.5072-.4787.3931-1.2375,1.5072.4787.4823-1.5187,1.2719.404-.4824,1.5187,1.5416.49Z"/><circle class="cls-69" cx="997.0901" cy="150.3982" r="15.9793"/><path class="cls-70" d="M1012.24,141.4758a2.6456,2.6456,0,0,1-3.4482,1.6063,2.8568,2.8568,0,0,1-2.0834-2.8014l1.9107-.3418a1.22,1.22,0,0,0,.756,1.2089.8044.8044,0,0,0,1.0464-.5073.7871.7871,0,0,0-.5483-.99,1.2581,1.2581,0,0,0-.75-.0122l-.3889-1.1593,2.0281-.954-2.4046-.7819.6075-1.8683,4.4406,1.4439-.5633,1.7323-1.4815.7369A2.4173,2.4173,0,0,1,1012.24,141.4758Z"/><path class="cls-70" d="M1013.4065,140.0676l3.4013,1.106-.5017,1.543-3.4013-1.106Z"/><circle class="cls-71" cx="961.3153" cy="185.5661" r="9.4189"/><path class="cls-33" d="M958.9709,183.41l1.5449,5.5781-.6133.17-3.8213-2.5078.8985,3.2412-1.1563.32-1.541-5.5625.6133-.17,3.8525,2.5928-.9258-3.3438Z"/><path class="cls-33" d="M960.6574,185.9082a2.9553,2.9553,0,1,1,3.64,2.0674A2.8849,2.8849,0,0,1,960.6574,185.9082Zm4.5088-1.248a1.7237,1.7237,0,1,0-1.1875,2.166A1.7174,1.7174,0,0,0,965.1662,184.66Z"/><path class="cls-33" d="M969.2482,185.63a.9015.9015,0,0,1-.7011,1.1084.9637.9637,0,0,1-1.1114-.4024l.5928-.4609a.294.294,0,0,0,.3184.1406.2118.2118,0,0,0,.1582-.2558.2082.2082,0,0,0-.27-.1455.297.297,0,0,0-.123.0761l-.501-.2509.3359-.5586-.7236.2-.1943-.7,1.5967-.4424.1748.6289-.2862.4355A.8472.8472,0,0,1,969.2482,185.63Z"/><path class="cls-72" d="M964.3172,178.0534l5.4042-1.4966.6153,2.2216-5.4043,1.4966Z"/><circle class="cls-73" cx="879.7918" cy="144.6882" r="17.9837"/><path class="cls-33" d="M868.2746,150.168l1.23-1.9414a3.577,3.577,0,0,0,2.5947,1.0263c.794-.09,1.2188-.6045,1.1524-1.1924-.2188-1.9384-4.9942-.8994-5.3721-4.5263a3.2811,3.2811,0,0,1,3.209-3.501,5.0557,5.0557,0,0,1,3.6845,1.1289l-1.1357,1.9141a3.38,3.38,0,0,0-2.1943-.7657c-.7149.0811-1.1309.53-1.0684,1.086.1973,1.748,4.9941.9,5.3682,4.4951.1875,1.7979-1.0332,3.3838-3.3692,3.6475A5.1989,5.1989,0,0,1,868.2746,150.168Z"/><path class="cls-33" d="M876.6955,145.2246a5.7886,5.7886,0,1,1,6.4033,5.1182A5.65,5.65,0,0,1,876.6955,145.2246Zm9.1045-1.0293a3.3758,3.3758,0,1,0-2.9639,3.8272A3.3618,3.3618,0,0,0,885.8,144.1953Z"/><path class="cls-33" d="M893.6154,148.3008l-.4765.0537.0722.6357-1.414.16-.0723-.6358-2.13.2413-.1123-1.002,1.29-3.67,1.8594-.211.3555,3.1465.4765-.0537Zm-2.042-1.1211-.1562-1.3818-.416,1.4462Z"/><path class="cls-74" d="M888.8508,132.7593c.9844-1.2884,2.0332-2.6761,2.946-3.9257a2.9427,2.9427,0,0,0,.7717-1.9329.9944.9944,0,0,0-1.1035-.8742,1.2941,1.2941,0,0,0-.9769,1.6072l-2.7-.3969a3.7411,3.7411,0,0,1,3.3324-4.0016,3.5671,3.5671,0,0,1,4.1506,2.9346,4.8361,4.8361,0,0,1-1.3127,3.6417c-.2983.4307-.6475.9288-.9439,1.3753l2.7947-.33.3122,2.642-7.0846.8374Z"/><path class="cls-75" d="M896.615,127.0005l5.3357-.6307.2593,2.1934-5.3357.6307Z"/><path class="cls-33" d="M994.0471,147.5742a3.2509,3.2509,0,0,1-4.2061,2.4121l-.9717-.2441-.7949,3.165-2.041-.5127,2.44-9.7168,2.999.753A3.37,3.37,0,0,1,994.0471,147.5742Zm-2.0957-.5263a1.3723,1.3723,0,0,0-1.0713-1.6709l-.86-.2159-.6592,2.6241.86.2148A1.3279,1.3279,0,0,0,991.9514,147.0479Z"/><path class="cls-33" d="M994.5246,149.3613a5.1809,5.1809,0,1,1,3.76,6.3008A5.0567,5.0567,0,0,1,994.5246,149.3613Zm7.9541,1.9981a3.0214,3.0214,0,1,0-3.6856,2.2763A3.009,3.009,0,0,0,1002.4787,151.3594Z"/><path class="cls-33" d="M1007.7346,157.2539l-.4151-.1045-.14.5547-1.2364-.31.14-.5556-1.86-.4678.22-.874,2.2353-2.6709,1.625.4082-.69,2.749.415.1045Zm-1.3584-1.581.3027-1.2081-.8018,1.0821Z"/><circle class="cls-76" cx="856.5528" cy="94.4868" r="7.6027"/><path class="cls-77" d="M853.6605,92.2583l.0823,1.5031,1.6578-.0908.0688,1.2569-1.6578.0908.1272,2.3226-1.3388.0733-.3491-6.3757,3.68-.2015.0708,1.2931Z"/><path class="cls-77" d="M860.6868,95.1077l-3.1243.171a1.1208,1.1208,0,0,0,1.1982.6926,3.3053,3.3053,0,0,0,1.4191-.443l.0734,1.1745a3.216,3.216,0,0,1-1.5284.449,2.3541,2.3541,0,0,1-.3576-4.6942C859.852,92.3763,860.7321,93.598,860.6868,95.1077Zm-3.1691-.6485,1.849-.1012a.9263.9263,0,0,0-.9331-.6892A.9783.9783,0,0,0,857.5177,94.4592Z"/><path class="cls-78" d="M857.8486,88.7225c.3685-.4672.7507-.9728,1.1184-1.4562a1.4326,1.4326,0,0,0,.3884-.8729.473.473,0,0,0-.5086-.4459.5823.5823,0,0,0-.5012.6714l-.7433-.1616a1.2576,1.2576,0,0,1,1.2018-1.29,1.2092,1.2092,0,0,1,1.3328,1.1035,1.8212,1.8212,0,0,1-.4919,1.23c-.1631.2274-.3368.4605-.5053.6878l1.1255-.0616.0413.7538-2.4419.1337Z"/><path class="cls-78" d="M862.6549,87.4051l-.7272.04.04.738-.6.0329-.04-.7381-.711.039-.032-.5838.711-.0389-.0392-.7164.6-.0329.0392.7164.7272-.04Z"/></g><g id="Layer_56" data-name="Layer 56"><text class="cls-6" transform="translate(613.2295 242.6411)"><tspan class="cls-44">s</tspan><tspan x="12.1494" y="0">oil o</tspan><tspan class="cls-8" x="72.9277" y="0">r</tspan><tspan x="81.4473" y="0">ganic </tspan><tspan class="cls-7" x="36.2842" y="36">m</tspan><tspan x="62.0537" y="36">at</tspan><tspan class="cls-8" x="88.873" y="36">t</tspan><tspan x="96.583" y="36">er</tspan></text><path class="cls-79" d="M771.5381,161.8271a9.905,9.905,0,0,0-2.0936-1.9743,12.8594,12.8594,0,0,0-8.94-1.97,17.2684,17.2684,0,0,0,.5306-11.6332c-2.4285-7.76-9.76-12.3221-18.3446-14.2574a30.6771,30.6771,0,0,0-21.2933,2.9643,6.7076,6.7076,0,0,0-4.1623-4.89,8.9849,8.9849,0,0,0-4.4684-.4543,6.2973,6.2973,0,0,0-2.8846,1.0388c-2.81-7.998-10.2956-12.9152-19.0633-12.9921-6.6074-.0579-19.419,2.1852-24.3171,14.9775a19.3519,19.3519,0,0,0-.8539,6.4558,12.8061,12.8061,0,0,0-9.0118.1156,10.6905,10.6905,0,0,0-5.7685,5.3206,13.9964,13.9964,0,0,0-4.6652-1.9067,19.77,19.77,0,0,0-17.4587,4.5563,14.3873,14.3873,0,0,0-4.02,14.3943c-6.0313.513-8.7445,7.0446-8.9894,12.3156a8.1633,8.1633,0,0,0,5.4062,8.2275c6.4195,2.6589,14.7583,1.5178,21.5542,1.6982,14.433.3832,28.8306,1.4988,43.2662,1.7995,6.2242.14,12.4511.1794,18.6764.0841,6.2028-.0951,12.4042-.3239,18.5951-.7227q5.5011-.3545,10.9882-.8956,1.1439-.1137,2.2863-.2412c2.683-.3,5.3271-.8778,8.0385-1.0258,7.4464-.4066,15.4455,2.0734,22.4739-1.4171a11.7889,11.7889,0,0,0,6.1154-7.2227C774.2622,170.2913,774.1279,165.1042,771.5381,161.8271Z"/></g><g id="Layer_57" data-name="Layer 57"><text class="cls-6" transform="translate(296.5987 261.8286)">infilt<tspan class="cls-8" x="54.4185" y="0">r</tspan><tspan x="62.9385" y="0">ation </tspan><tspan class="cls-8" x="142.7959" y="0">r</tspan><tspan x="151.3154" y="0">a</tspan><tspan class="cls-8" x="169.8252" y="0">t</tspan><tspan x="177.5352" y="0">e</tspan></text><circle class="cls-80" cx="396.6715" cy="78.9351" r="25.1363"/><line class="cls-80" x1="396.6715" y1="55.8187" x2="396.6715" y2="60.3073"/><line class="cls-80" x1="385.1133" y1="58.9157" x2="387.3576" y2="62.803"/><line class="cls-80" x1="376.6521" y1="67.3769" x2="380.5393" y2="69.6212"/><line class="cls-80" x1="373.555" y1="78.9351" x2="378.0437" y2="78.9351"/><line class="cls-80" x1="376.6521" y1="90.4934" x2="380.5393" y2="88.249"/><line class="cls-80" x1="385.1133" y1="98.9546" x2="387.3576" y2="95.0673"/><line class="cls-80" x1="396.6715" y1="102.0516" x2="396.6715" y2="97.563"/><line class="cls-80" x1="408.2297" y1="98.9546" x2="405.9854" y2="95.0673"/><line class="cls-80" x1="416.6909" y1="90.4934" x2="412.8036" y2="88.249"/><line class="cls-80" x1="419.7879" y1="78.9351" x2="415.2993" y2="78.9351"/><line class="cls-80" x1="416.6909" y1="67.3769" x2="412.8036" y2="69.6212"/><line class="cls-80" x1="408.2297" y1="58.9157" x2="405.9854" y2="62.803"/><line class="cls-80" x1="396.6714" y1="64.8517" x2="396.6714" y2="78.9351"/><polygon class="cls-28" points="394.827 66.251 396.671 65.467 398.516 66.251 396.671 61.878 394.827 66.251"/><line class="cls-80" x1="402.9498" y1="85.1979" x2="396.7006" y2="78.9488"/><polygon class="cls-28" points="403.186 83.478 402.623 84.872 401.23 85.434 404.527 86.775 403.186 83.478"/><path class="cls-81" d="M394.54,85.8762a7.1037,7.1037,0,1,1,9.22-6.2907"/><polygon class="cls-82" points="402.797 78.642 403.755 79.236 404.848 78.958 403.448 81.231 402.797 78.642"/><path class="cls-83" d="M393.473,114.7988c-.524,4.24-1.2261,8.4033-1.7587,12.6253-.594,4.7084,1.309,7.326,5.2894,10.8982,3.3507,3.007,4.8712,7.016,3.8236,10.7524-1.7829,6.3583-12.9254,7.2992-15.5492,13.39a6.69,6.69,0,0,0,2.2786,8.0865c2.5666,1.9994,6.4938,2.8856,9.334,4.6967,5.025,3.2042,5.6387,8.6367,4.1748,13.2717s-4.6106,8.9576-5.9214,13.6149a24.7041,24.7041,0,0,0-.1323,11.5329"/><polygon class="cls-84" points="388.338 210.798 394.643 211.744 399.701 207.863 397.498 222.799 388.338 210.798"/><path class="cls-85" d="M377.4041,115.3849a4.6344,4.6344,0,0,1-1.1133,3.7413c-2.34,2.4264-7.6465,2.2571-11.212,3.2418-3.0156.8328-5.1871,2.4788-5.947,4.7036-.7465,2.1859.39,4.2766,1.6368,6.2553,1.6749,2.6573,2.2064,5.2861-1.6766,7.1605-5.6642,2.7342-13.4346,1.5412-18.6545,4.8909-2.0828,1.3365-3.2694,3.1586-4.7712,4.7971-.25.273-.5119.5434-.7874.8068"/><polygon class="cls-84" points="335.99 144.81 336.12 149.909 339.881 153.355 327.808 153.695 335.99 144.81"/><path class="cls-85" d="M416.7945,115.1146a4.3886,4.3886,0,0,0,.3153,3.8145c1.8055,2.639,7.09,3.0127,10.41,4.35,2.8081,1.1314,4.61,2.9811,4.8946,5.2594.2793,2.2385-1.2839,4.1908-2.9333,6.021-2.2153,2.4579-3.2934,5.0041.154,7.2543,5.0288,3.2824,12.9662,2.8947,17.426,6.7406,1.78,1.5346,2.5706,3.458,3.7121,5.2321q.1961.3048.41.6064"/><polygon class="cls-84" points="445.919 155.941 450.15 153.092 451.036 148.069 457.808 158.07 445.919 155.941"/><path class="cls-84" d="M379.1806,138.0139a4.9128,4.9128,0,0,0-1.1617,2.5177c-.1725.9209-.191,1.8632-.3049,2.8057a8.47,8.47,0,0,1-2.539,5.0556,12.9427,12.9427,0,0,1-4.9971,2.7884,29.65,29.65,0,0,0-5.1528,2.1012,11.8068,11.8068,0,0,0-3.9737,3.5982,7.41,7.41,0,0,0-1.0673,2.375,9.36,9.36,0,0,0-.1938,2.6319,16.4254,16.4254,0,0,1-.0766,2.95,8.4992,8.4992,0,0,1-1.0663,2.9026,13.47,13.47,0,0,1-4.11,4.3565L353.51,170.554a11.7439,11.7439,0,0,0,3.7417-3.64,6.9656,6.9656,0,0,0,.9775-2.3312,15.2058,15.2058,0,0,0,.1708-2.6873,10.628,10.628,0,0,1,.3538-2.9723,8.6269,8.6269,0,0,1,1.3454-2.7023,12.84,12.84,0,0,1,4.48-3.7507,30.2933,30.2933,0,0,1,5.3784-1.9479,12.3831,12.3831,0,0,0,4.9-2.467,8.1246,8.1246,0,0,0,2.6268-4.7505c.15-.9219.2079-1.8706.4207-2.7964A4.9706,4.9706,0,0,1,379.1806,138.0139Z"/><polygon class="cls-84" points="354.767 166.362 355.112 170.599 358.401 173.291 348.372 174.134 354.767 166.362"/><path class="cls-84" d="M411.5641,137.5161l.4095,5.3508a7.2935,7.2935,0,0,0,2.04,4.7187,11.4755,11.4755,0,0,0,4.3544,2.8445,24.5331,24.5331,0,0,1,4.8442,2.4834,10.9623,10.9623,0,0,1,3.6092,4.2474,7.9856,7.9856,0,0,1,.7108,2.7966,10.7018,10.7018,0,0,1-.2673,2.83,18.2592,18.2592,0,0,0-.4,2.5449,5.3,5.3,0,0,0,.0693,1.1661,7.427,7.427,0,0,0,.308,1.1751,9.6961,9.6961,0,0,0,2.7821,4.0039l-1.2551,1.347a11.4126,11.4126,0,0,1-3.0606-4.8575,9.0031,9.0031,0,0,1-.31-1.4323,6.8493,6.8493,0,0,1-.0262-1.5086,19.3694,19.3694,0,0,1,.5427-2.7317,9.4587,9.4587,0,0,0,.3522-2.4814,6.7761,6.7761,0,0,0-.5034-2.398,9.9358,9.9358,0,0,0-3.1063-3.9666,23.8491,23.8491,0,0,0-4.5813-2.5927,12.04,12.04,0,0,1-4.4136-3.1717,7.6439,7.6439,0,0,1-1.92-5.0046Z"/><polygon class="cls-84" points="424.808 173.634 428.448 171.44 429.396 167.297 434.614 175.903 424.808 173.634"/></g><g id="Layer_58" data-name="Layer 58"><text class="cls-6" transform="translate(49.6651 264.6577)">agg<tspan class="cls-8" x="55.5293" y="0">r</tspan><tspan x="64.0493" y="0">ega</tspan><tspan class="cls-8" x="118.0186" y="0">t</tspan><tspan x="125.7285" y="0">e </tspan><tspan class="cls-86" x="20.9995" y="36">s</tspan><tspan class="cls-8" x="32.7295" y="36">t</tspan><tspan x="40.4395" y="36">abilit</tspan><tspan class="cls-87" x="107.6074" y="36">y</tspan></text><polygon class="cls-88" points="106.767 194.198 92.94 193.332 86.777 180.924 94.44 169.382 108.268 170.248 114.431 182.656 106.767 194.198"/><polygon class="cls-89" points="108.724 213.609 94.896 212.743 88.733 200.335 96.397 188.793 110.224 189.659 116.387 202.067 108.724 213.609"/><polygon class="cls-90" points="89.13 199.635 75.303 198.769 69.139 186.361 76.803 174.82 90.63 175.686 96.794 188.094 89.13 199.635"/><path class="cls-91" d="M73.1426,194.725c5.9745,3.5812,10.0707,3.342,12.6422,2.551,6.94-2.1347,8.4772-10.0417,16.1012-12.655a16.42,16.42,0,0,1,10.6664.3037"/><path class="cls-92" d="M112.306,206.6366a16.4194,16.4194,0,0,0-6.2962-8.6152c-6.737-4.4236-13.9274-.793-19.8671-4.9693-2.2009-1.5475-4.9-4.6379-5.731-11.5538-.3381-2.8138.32-4.1186.6165-6.937"/><polygon class="cls-88" points="164.786 147.858 156.336 160.878 140.836 160.071 133.784 146.244 142.234 133.223 157.734 134.031 164.786 147.858"/><polygon class="cls-89" points="184.808 156.623 176.358 169.643 160.858 168.836 153.807 155.008 162.256 141.988 177.757 142.795 184.808 156.623"/><polygon class="cls-90" points="167.816 168.286 159.367 181.306 143.866 180.499 136.815 166.672 145.264 153.652 160.765 154.459 167.816 168.286"/><path class="cls-93" d="M146.8089,180.9684c6.7811-3.8622,8.8-7.992,9.4423-10.937,1.7328-7.9481-5.14-13.7965-3.498-22.6754a18.3958,18.3958,0,0,1,6.162-10.2443"/><path class="cls-94" d="M137.896,166.6c7.2075,2.9921,11.7083,2.057,14.4291.76,7.3428-3.501,7.7532-12.5159,15.7758-16.6592a18.3958,18.3958,0,0,1,11.8715-1.408"/><path class="cls-95" d="M101.874,228.7782a65.8722,65.8722,0,0,1-17.1263-4.4426,64.3133,64.3133,0,0,1-25.9555-19.6223"/><polygon class="cls-23" points="99.133 224.305 100.513 228.556 98.411 232.5 108.485 229.258 99.133 224.305"/><path class="cls-95" d="M114.4172,87.5646a65.8664,65.8664,0,0,1,17.3367,3.5335,64.3137,64.3137,0,0,1,26.9539,18.2269"/><polygon class="cls-23" points="117.39 91.887 115.788 87.715 117.679 83.665 107.79 87.434 117.39 91.887"/><polygon class="cls-88" points="105.313 126.039 91.244 126.521 83.791 114.578 90.407 102.153 104.477 101.67 111.93 113.613 105.313 126.039"/><polygon class="cls-89" points="109.199 145.477 95.13 145.96 87.677 134.017 94.294 121.591 108.363 121.108 115.816 133.051 109.199 145.477"/><polygon class="cls-90" points="88.01 133.271 73.941 133.754 66.488 121.811 73.104 109.385 87.174 108.902 94.626 120.845 88.01 133.271"/><path class="cls-96" d="M69.6826,126.1013a6.1837,6.1837,0,0,0,5.3993,3.195,14.0869,14.0869,0,0,0,6.3389-1.59A41.1147,41.1147,0,0,0,91.866,120.83a22.3993,22.3993,0,0,1,2.7954-2.334c4.3031-2.7716,10.6688-3.5721,15.5911-2.4047"/><path class="cls-97" d="M113.5257,136.1444a16.6835,16.6835,0,0,0-7.9867-7.3331c-7.5928-3.0686-14.0359,1.9787-20.785-1.002-2.5008-1.1045-5.8048-3.6475-8.0078-10.3738-.7445-2.2733-2.5128-4.7891-3.1448-7.0963"/><text class="cls-98" transform="matrix(0.9945, 0.1047, -0.1047, 0.9945, 166.7513, 164.2719)">C</text><text class="cls-98" transform="matrix(0.9945, 0.1047, -0.1047, 0.9945, 140.9898, 148.2208)">C</text><text class="cls-99" transform="matrix(0.9945, 0.1047, -0.1047, 0.9945, 97.7445, 206.7816)">C</text><text class="cls-100" transform="translate(97.7789 141.0686) rotate(0.4607)">C</text><text class="cls-100" transform="translate(94.0398 114.1934) rotate(0.4607)">C</text><text class="cls-101" transform="translate(83.5177 187.8775) rotate(-6.4445)">C</text><text class="cls-102" transform="matrix(0.9278, 0.3731, -0.3731, 0.9278, 109.8015, 107.4252)">C</text></g></g></g></svg>