<svg xmlns="http://www.w3.org/2000/svg" viewBox="0 0 586 413.82"><defs><style>.cls-1{font-size:40px;fill:#fecf08;font-family:Acre-Light, Acre;font-weight:300;}.cls-2{letter-spacing:-0.02em;}.cls-3{letter-spacing:-0.02em;}.cls-4{font-size:19.94px;font-family:Acre-Thin, Acre;font-weight:200;}.cls-13,.cls-4{fill:#5c5052;}.cls-5{letter-spacing:-0.02em;}.cls-6{letter-spacing:-0.01em;}.cls-7{letter-spacing:-0.01em;}.cls-8{letter-spacing:0em;}.cls-9{letter-spacing:-0.02em;}.cls-10{font-size:13.96px;}.cls-11{letter-spacing:-0.03em;}.cls-12{fill:#ffce01;}.cls-14{fill:#f27243;}.cls-15{fill:#336db5;}.cls-16{fill:#2b63a3;}.cls-17,.cls-18{fill:none;stroke-miterlimit:10;}.cls-17{stroke:#5c5052;stroke-linecap:round;stroke-width:0.89px;}.cls-18{stroke:#3daaa1;stroke-width:1.33px;}.cls-19{fill:#3daaa1;}</style></defs><g id="Layer_2" data-name="Layer 2"><g id="Layer_9" data-name="Layer 9"><text class="cls-1" transform="translate(163.34 42.75)">infilt<tspan class="cls-2" x="72.56" y="0">r</tspan><tspan x="83.92" y="0">ation </tspan><tspan class="cls-3" x="190.4" y="0">r</tspan><tspan x="201.76" y="0">a</tspan><tspan class="cls-2" x="226.44" y="0">t</tspan><tspan x="236.72" y="0">e</tspan></text><text class="cls-4" transform="translate(138.02 75.2)">i<tspan class="cls-5" x="4.71" y="0">n</tspan><tspan x="15.65" y="0">c</tspan><tspan class="cls-5" x="26.44" y="0">h</tspan><tspan x="37.39" y="0">es </tspan><tspan class="cls-6" x="63.55" y="0">o</tspan><tspan x="75.44" y="0">f </tspan><tspan class="cls-7" x="87.6" y="0">w</tspan><tspan class="cls-8" x="102.8" y="0">a</tspan><tspan class="cls-9" x="115.1" y="0">t</tspan><tspan x="119.89" y="0">er infilt</tspan><tspan class="cls-5" x="178.52" y="0">r</tspan><tspan x="183.9" y="0">a</tspan><tspan class="cls-5" x="196.2" y="0">t</tspan><tspan x="200.99" y="0">ed / seco</tspan><tspan class="cls-5" x="286.18" y="0">n</tspan><tspan x="297.13" y="0">d</tspan><tspan class="cls-10"><tspan x="154.72" y="26.92"></tspan></tspan><tspan x="-97.86" y="242.29">t</tspan><tspan class="cls-5" x="-92.68" y="242.29">h</tspan><tspan x="-81.73" y="242.29">e </tspan><tspan class="cls-5" x="-63.44" y="242.29">f</tspan><tspan x="-58.66" y="242.29">a</tspan><tspan class="cls-9" x="-46.35" y="242.29">st</tspan><tspan x="-34.09" y="242.29">er </tspan><tspan class="cls-6" x="-10.02" y="242.29">w</tspan><tspan x="5.17" y="242.29">a</tspan><tspan class="cls-5" x="17.48" y="242.29">t</tspan><tspan x="22.26" y="242.29">er infilt</tspan><tspan class="cls-5" x="80.89" y="242.29">r</tspan><tspan x="86.28" y="242.29">a</tspan><tspan class="cls-5" x="98.58" y="242.29">t</tspan><tspan x="103.37" y="242.29">es t</tspan><tspan class="cls-5" x="134.71" y="242.29">h</tspan><tspan x="145.66" y="242.29">e b</tspan><tspan class="cls-7" x="176.25" y="242.29">e</tspan><tspan x="187.36" y="242.29">t</tspan><tspan class="cls-5" x="192.54" y="242.29">t</tspan><tspan x="197.33" y="242.29">e</tspan><tspan class="cls-5" x="208.64" y="242.29">r</tspan><tspan x="214.02" y="242.29">, as it </tspan><tspan class="cls-5" x="268.04" y="242.29">r</tspan><tspan x="273.43" y="242.29">educes t</tspan><tspan class="cls-5" x="350.52" y="242.29">h</tspan><tspan x="361.47" y="242.29">e risk </tspan><tspan class="cls-6" x="-90.09" y="269.22">o</tspan><tspan x="-78.2" y="269.22">f floodi</tspan><tspan class="cls-5" x="-15.36" y="269.22">n</tspan><tspan x="-4.42" y="269.22">g a</tspan><tspan class="cls-5" x="27.17" y="269.22">n</tspan><tspan x="38.12" y="269.22">d e</tspan><tspan class="cls-9" x="68.71" y="269.22">r</tspan><tspan x="74.09" y="269.22">osion. this </tspan><tspan class="cls-5" x="168.02" y="269.22">t</tspan><tspan x="172.8" y="269.22">e</tspan><tspan class="cls-5" x="184.11" y="269.22">s</tspan><tspan x="191.59" y="269.22">t is do</tspan><tspan class="cls-5" x="247.7" y="269.22">n</tspan><tspan x="258.65" y="269.22">e in t</tspan><tspan class="cls-5" x="305.16" y="269.22">h</tspan><tspan x="316.1" y="269.22">e field </tspan><tspan class="cls-6" x="378.3" y="269.22">b</tspan><tspan class="cls-9" x="390.41" y="269.22">y</tspan><tspan x="399.52" y="269.22"> </tspan><tspan x="-87.42" y="296.14">pou</tspan><tspan class="cls-5" x="-51.7" y="296.14">n</tspan><tspan x="-40.75" y="296.14">di</tspan><tspan class="cls-5" x="-23.74" y="296.14">n</tspan><tspan x="-12.79" y="296.14">g a </tspan><tspan class="cls-9" x="25.77" y="296.14">m</tspan><tspan class="cls-6" x="42.62" y="296.14">e</tspan><tspan class="cls-5" x="53.73" y="296.14">t</tspan><tspan x="58.52" y="296.14">al or </tspan><tspan class="cls-6" x="106.96" y="296.14">P</tspan><tspan class="cls-11" x="116.55" y="296.14">V</tspan><tspan x="127.8" y="296.14">C ri</tspan><tspan class="cls-9" x="157.83" y="296.14">n</tspan><tspan x="168.78" y="296.14">g in</tspan><tspan class="cls-5" x="204.11" y="296.14">t</tspan><tspan x="208.9" y="296.14">o t</tspan><tspan class="cls-5" x="233.15" y="296.14">h</tspan><tspan x="244.09" y="296.14">e soil, addi</tspan><tspan class="cls-5" x="342.96" y="296.14">n</tspan><tspan x="353.91" y="296.14">g an </tspan><tspan x="-65.83" y="323.06">i</tspan><tspan class="cls-5" x="-61.12" y="323.06">n</tspan><tspan x="-50.17" y="323.06">ch </tspan><tspan class="cls-6" x="-21.06" y="323.06">o</tspan><tspan x="-9.17" y="323.06">f </tspan><tspan class="cls-6" x="2.99" y="323.06">w</tspan><tspan x="18.19" y="323.06">a</tspan><tspan class="cls-9" x="30.49" y="323.06">t</tspan><tspan x="35.27" y="323.06">e</tspan><tspan class="cls-5" x="46.58" y="323.06">r</tspan><tspan x="51.97" y="323.06">, a</tspan><tspan class="cls-5" x="74.26" y="323.06">n</tspan><tspan x="85.21" y="323.06">d timi</tspan><tspan class="cls-5" x="136.34" y="323.06">n</tspan><tspan x="147.29" y="323.06">g until </tspan><tspan class="cls-6" x="210.44" y="323.06">y</tspan><tspan x="219.75" y="323.06">ou </tspan><tspan class="cls-5" x="250.16" y="323.06">h</tspan><tspan x="261.11" y="323.06">ear it gu</tspan><tspan class="cls-5" x="338.01" y="323.06">r</tspan><tspan x="343.39" y="323.06">gle!</tspan></text><path class="cls-12" d="M280.75,177.14c5.35,2.8,11.57,1.79,11.53-6.24,0-7.56-9.73-7.44-15.11-7.49-6,0-11.27,3-4.74,8.8,2.07,1.85,5.91,3.52,8.32,4.93"/><path class="cls-12" d="M280.12,132.26c-2.45-1.13-8.2.91-11,3.38-2.64,2.33-5.8,6.79-4.64,10.52,1.57,3.18,6.57,3.3,11.34,3.5,5.9.26,12.23-1.9,18-.85s12.46,4.46,18.54,1.32c10-5.17.58-12.15-5.83-13.92-8.24-2.27-19.43.52-26.38-4"/><path class="cls-12" d="M390,201.18c8-3.26,13.22-3.08,14.36-12.43.86-7,3-12.26-4.11-17.41-5.87-4.24-18.61-3.42-24.84-.93s-8.34,6.79-8.08,13.3c.3,7.7,6,13.58,12.05,16.3,2.58,1.16,6.7,3.37,10.62,1.17"/><path class="cls-12" d="M312.82,178.82c-5,.53-7.91,10.28-1.47,15.42,4.21,3.38,12.55,3,15-2.39,4-8.82-6.95-14.15-13.5-13"/><path class="cls-12" d="M345.62,153c-5.34-2.79-11.56-1.78-11.52,6.25,0,7.55,9.73,7.43,15.11,7.48,6,.06,11.27-3,4.74-8.79-2.08-1.85-5.92-3.53-8.33-4.94"/><path class="cls-12" d="M276.35,193.05c-16.72,23.43,38.84,15.42,30.42-1-3-5.78-9.68-4.58-16-5.78-4.54-.87-11.58-.42-12.87,2.6-.61,1.29-.59,2.72-1.54,4.15"/><path class="cls-12" d="M190.5,133.53c5.52.21,10.83-1.55,14.12,4,2.19,3.68,4.68,9.69,4.69,13.9,0,9.93-9.15,11.69-16,9.52-4.34-1.36-7.22-3.49-10.56-6.16-3.54-2.83-10.42-5.14-12.86-9.25-6.39-10.78,8.36-11,14.26-11.33,2.21-.11,4-.71,6.35-.65"/><path class="cls-12" d="M378.91,154.19c4.87-4.7,17.72-17.71,7.65-23.69-2.81-1.66-12.69-1.76-15.75.4-2.71,1.91-3,5.44-2.51,8.71s2.74,5.49,3.39,8.76-1.52,5.57,1.07,7c2.84,1.59,7.27-1,7.6-3.61"/><path class="cls-12" d="M347.31,185.56a12.46,12.46,0,0,0-5.22-.51,6.35,6.35,0,0,0-2.88,1.45,9.75,9.75,0,0,0-3.66,5.95c-1,3.77.94,9.77,5,11.54,2.15.94,10.17,1.53,10.13-1.87a8.13,8.13,0,0,0-.82-3.17,8.35,8.35,0,0,1-.89-3.29,70.47,70.47,0,0,1,0-7.12c.16-1.85-.11-2.33-1.66-3"/><path class="cls-12" d="M233.76,128.93c-8,3.26-13.22,3.09-14.36,12.43-.86,7-3,12.27,4.12,17.42,5.86,4.24,18.6,3.42,24.83.93s8.34-6.79,8.09-13.3c-.31-7.7-6-13.58-12.06-16.3-2.58-1.16-6.7-3.38-10.62-1.18"/><path class="cls-12" d="M255.69,181.27C250.82,186,238,199,248.05,205c2.81,1.66,12.68,1.76,15.75-.4,2.7-1.91,3-5.44,2.5-8.71s-2.73-5.49-3.39-8.76,1.52-5.57-1.07-7c-2.84-1.6-7.27,1-7.6,3.61"/><path class="cls-12" d="M208.24,174.21c-9,5.31-6.22,19.91,4.8,20,7.22,0,17.63-6.42,14.76-14.34-1.78-4.93-9-9.74-14-9.9-4.22-.14-4.59,3.34-7.23,5.1"/><path class="cls-12" d="M352.11,130.81c16.72-23.42-38.84-15.41-30.42,1,3,5.78,9.68,4.57,16,5.78,4.54.86,11.58.41,12.87-2.6.61-1.3.59-2.72,1.54-4.16"/><path class="cls-13" d="M195.61,177.72c.85-6.7-7.72-11.08-12.12-5.46-2.89,3.68-3.7,11.57,1.48,13.24,3.24,1.05,8.56-.75,10.61-3.22,1.75-2.1.11-3.67.26-5.71"/><path class="cls-13" d="M274,166.75c-2.65-2-6.09-2-6.76,2.38-.63,4.08,4.61,4.85,7.51,5.34,3.25.55,6.34-.62,3.31-4.33a30.91,30.91,0,0,0-4.06-3.39"/><path class="cls-13" d="M272.31,129.38C258,136,286.55,147.24,287,137.18c.16-3.55-3.35-4.8-6-7.09-1.92-1.65-5.38-3.34-6.82-2.26-.64.45-1,1.13-1.85,1.55"/><path class="cls-13" d="M314,134.8c-4.52-15.07-19.67,11.62-9.76,13.47,3.49.65,5.21-2.65,7.85-5,1.9-1.68,4.06-4.87,3.19-6.44a13.13,13.13,0,0,1-1.28-2"/><path class="cls-13" d="M307.19,188c-1.44,2.34,1.79,6.86,6.17,5.8,2.87-.69,5.5-4.42,4-7.27-2.48-4.67-8.44-1.73-10.15,1.47"/><path class="cls-13" d="M339.92,166.53c14.29-6.58-14.25-17.86-14.7-7.8-.16,3.55,3.35,4.8,6,7.09,1.92,1.64,5.38,3.34,6.81,2.26.64-.45,1-1.13,1.86-1.55"/><path class="cls-13" d="M286.71,192.11c-4.7-.63-7.11-2.12-10.19,2-2.31,3.09-4.76,5-2.77,9.38,1.63,3.61,7.89,6.68,11.53,7.19s5.8-1,7.45-4.12c1.94-3.74.83-8.08-1.3-11-.91-1.25-2.26-3.42-4.72-3.44"/><path class="cls-13" d="M303.24,173.29c3.59-.91,13.21-3.59,10.06-9.16-.88-1.56-5.54-4.28-7.59-4.09-1.8.17-2.92,1.76-3.55,3.45s-.19,3.35-.77,5.08-2.23,2.23-1.4,3.62a3.14,3.14,0,0,0,4.59.35"/><path class="cls-14" d="M305.61,168.12c-.59-.9-1.66-1.29-2.35,0s.87,2,1.7,2.5,2,.52,1.52-1a10.91,10.91,0,0,0-.87-1.51"/><path class="cls-13" d="M203.08,146.74c-2.51-1.11-6.54,2.72-4.88,6.91,1.08,2.75,5.14,4.83,7.76,2.93,4.27-3.11.54-8.6-2.88-9.84"/><path class="cls-13" d="M181.51,163.14c-3,.18-5.82,1.42-7.9-1.41-1.39-1.88-3.07-5-3.29-7.31-.54-5.41,4.35-6.85,8.2-6a17.11,17.11,0,0,1,6.07,2.79c2.07,1.36,5.95,2.25,7.49,4.35,4,5.53-4,6.46-7.15,6.93-1.2.18-2.15.6-3.42.69"/><path class="cls-13" d="M202,144.13c-1.45,2.33,1.79,6.86,6.17,5.8,2.87-.69,5.5-4.42,4-7.27-2.48-4.67-8.44-1.74-10.15,1.47"/><path class="cls-13" d="M363.24,141.78c-1.37,2.21,1.69,6.49,5.84,5.49,2.71-.65,5.2-4.18,3.76-6.88-2.34-4.42-8-1.64-9.6,1.39"/><path class="cls-13" d="M338,187.88c-2.14-.55-4.83,3-3,6.14,1.23,2,4.73,3.15,6.55,1.3,3-3-.71-6.91-3.59-7.44"/><path class="cls-13" d="M343.82,195.45c.4,3.68,1.73,13.59,7.68,11.24,1.66-.66,5-4.89,5.1-6.94.08-1.81-1.33-3.14-2.92-4s-3.29-.66-4.92-1.47-1.9-2.52-3.39-1.89c-1.65.69-2,3.48-1,4.49"/><path class="cls-13" d="M247.57,127.43c2.56,1.59,5.56,2.2,5.62,5.71,0,2.34-.41,5.87-1.55,7.87-2.69,4.72-7.51,3.06-10.18.18a16.89,16.89,0,0,1-3.33-5.79c-.91-2.31-3.55-5.28-3.6-7.89-.1-6.85,7-3,9.85-1.5,1.08.55,2.09.75,3.19,1.42"/><path class="cls-13" d="M242,158.06c-.4-3.68-1.72-13.58-7.67-11.23-1.66.66-5,4.89-5.1,6.94-.09,1.81,1.33,3.14,2.92,4s3.29.65,4.92,1.47,1.9,2.52,3.39,1.89a3.16,3.16,0,0,0,1-4.5"/><path class="cls-13" d="M218.57,144c-3,1.29-4.77,4.26-1.37,7,3.2,2.61,6.52-1.52,8.41-3.78,2.12-2.53,2.67-5.78-2.06-5.05a31.18,31.18,0,0,0-5,1.79"/><path class="cls-13" d="M215.12,172.11c-3.59.91-13.22,3.6-10.06,9.17.88,1.55,5.54,4.28,7.58,4.08,1.8-.17,2.92-1.75,3.56-3.45s.19-3.34.77-5.08,2.23-2.23,1.4-3.62a3.15,3.15,0,0,0-4.59-.35"/><path class="cls-13" d="M243.85,190.59c-6.75,0-10,9.11-3.81,12.73,4,2.38,12,2.15,12.93-3.21.61-3.34-1.88-8.39-4.59-10.09-2.31-1.45-3.66.37-5.7.5"/><path class="cls-13" d="M268.28,198.11c1.45-2.33-1.79-6.86-6.17-5.8-2.87.69-5.5,4.42-4,7.28,2.48,4.67,8.45,1.73,10.15-1.48"/><path class="cls-13" d="M350.8,126.23c4.53,15.07,19.67-11.62,9.77-13.47-3.5-.66-5.22,2.65-7.86,5-1.9,1.67-4.06,4.87-3.19,6.43a13,13,0,0,1,1.28,2.06"/><path class="cls-13" d="M327.74,119.21c-.86-1.2-4.14-1.79-6.14-1.38s-4.59,1.64-5.05,3.73c-.12,1.94,2.22,3.35,4.43,4.74,2.72,1.72,6.32,2.42,8.75,4.48s4.71,5.5,8.44,5.66c6.15.26,3.58-5.61,1-8.19-3.29-3.31-9.36-5-11.44-9"/><path class="cls-13" d="M402.06,181.34c3.11,1.11,6.4.09,5.76-4.26-.59-4.08-5.83-3.28-8.74-2.9-3.28.43-5.88,2.46-1.9,5.12a30.44,30.44,0,0,0,4.88,2"/><path class="cls-13" d="M372.39,196.48c4.71.63,7.12,2.13,10.2-2,2.3-3.09,4.75-5,2.77-9.38-1.63-3.61-7.9-6.68-11.53-7.18s-5.8,1-7.45,4.11c-1.94,3.74-.83,8.08,1.3,11,.9,1.25,2.26,3.42,4.71,3.44"/><path class="cls-13" d="M386.2,173.6c2.65,2,6.1,2,6.76-2.37.63-4.08-4.6-4.86-7.5-5.35-3.26-.55-6.34.63-3.32,4.34a31.51,31.51,0,0,0,4.06,3.38"/><path class="cls-13" d="M392.15,203.3c6.76-.09,9.89-9.19,3.72-12.76-4.05-2.35-12-2.06-12.91,3.31-.58,3.35,1.94,8.37,4.67,10.06,2.32,1.43,3.65-.41,5.7-.55"/><path class="cls-14" d="M188.38,174.71c.77-.47.49-2.27-1-2.61a1.85,1.85,0,0,0-2.24,1.55c0,1.73,2.22,1.75,3.2,1.06"/><path class="cls-14" d="M188.42,182.69c1.13.44,4.21,1.58,4.45-.51a4.06,4.06,0,0,0-1.24-2.55,1.53,1.53,0,0,0-1.61.24c-.5.33-.69.85-1.18,1.2s-1,.17-1.07.7a1,1,0,0,0,1.16,1"/><path class="cls-14" d="M285.41,171.58c1.14,1.07,1.49,1.93,3.1,1.43,1.21-.38,2.23-.42,2.55-2,.26-1.27-.82-3.29-1.69-4.13a2.17,2.17,0,0,0-2.78-.34,3.53,3.53,0,0,0-1.77,3.19,2.09,2.09,0,0,0,.59,1.82"/><path class="cls-14" d="M269.65,175.21a2.27,2.27,0,0,0,3.45-2.69c-.63-1.4-2.8-2.85-4.08-1.6a3.88,3.88,0,0,0-.69,3.58c.34.83,1.05.59,1.62.95"/><path class="cls-14" d="M275.34,167c-.71.56-.2,2.32,1.27,2.47,1,.1,2.19-.77,2-1.82-.26-1.72-2.43-1.46-3.3-.65"/><path class="cls-14" d="M281.55,172.6a2.27,2.27,0,0,0,3.16,3c1.29-.82,2.41-3.18,1-4.26a3.86,3.86,0,0,0-3.64-.17c-.77.46-.44,1.13-.71,1.75"/><path class="cls-14" d="M279.54,136.31c.77-.47.49-2.28-1-2.61-.94-.22-2.26.48-2.24,1.54,0,1.74,2.22,1.76,3.2,1.07"/><path class="cls-14" d="M269.4,145.06c1.13.45,4.21,1.59,4.45-.5a4,4,0,0,0-1.24-2.55,1.53,1.53,0,0,0-1.61.24c-.5.33-.69.85-1.18,1.2s-1,.16-1.07.69a1,1,0,0,0,1.16,1"/><path class="cls-14" d="M280.29,143.59a2.47,2.47,0,0,0-1.13,1.73,2.11,2.11,0,0,0,.57,2c.58.26,1.29-.3,2-.83.84-.64,1.47-1.67,2.38-2.18s2.23-.82,2.7-2c.79-1.86-1.31-1.74-2.4-1.24-1.4.63-2.62,2.31-4.09,2.49"/><path class="cls-14" d="M295.47,143.12c-.38-.92-1.06-1.66-.4-2.61a5.85,5.85,0,0,1,1.92-1.79c1.63-.74,2.6.62,2.75,1.91a5.47,5.47,0,0,1-.23,2.18c-.2.79-.07,2.09-.56,2.79-1.29,1.85-2.42-.55-2.91-1.49-.18-.35-.41-.6-.57-1"/><path class="cls-14" d="M308.51,144.77c-.43,1.14-1.5,4.25.59,4.44a4,4,0,0,0,2.52-1.29,1.51,1.51,0,0,0-.27-1.6c-.34-.5-.86-.68-1.22-1.16s-.19-1-.72-1.06a1,1,0,0,0-1,1.18"/><path class="cls-14" d="M289.78,136.77c-1.13-1.07-1.49-1.93-3.1-1.43-1.21.38-2.23.42-2.54,2-.26,1.27.81,3.3,1.68,4.13a2.17,2.17,0,0,0,2.78.34,3.5,3.5,0,0,0,1.77-3.18,2.07,2.07,0,0,0-.59-1.83"/><path class="cls-14" d="M386.67,184.53c.13,1.21.55,4.46,2.51,3.69a4,4,0,0,0,1.68-2.27,1.52,1.52,0,0,0-.95-1.32c-.53-.29-1.08-.22-1.62-.49s-.62-.82-1.11-.62a1,1,0,0,0-.33,1.48"/><path class="cls-14" d="M395.71,175.83c-1,1.15-1.9,1.52-1.36,3.12.4,1.2.46,2.22,2,2.51,1.28.23,3.28-.89,4.1-1.77a2.17,2.17,0,0,0,.28-2.79,3.49,3.49,0,0,0-3.21-1.7,2.08,2.08,0,0,0-1.82.63"/><path class="cls-14" d="M380.37,185c-.84.68-1.11,1.78.22,2.34s1.91-1.08,2.3-2,.31-2.07-1.12-1.4a9.88,9.88,0,0,0-1.4,1"/><path class="cls-14" d="M391,197.87c.48,1,1.48,1.49,2.33.33s-.61-2.11-1.38-2.7-1.94-.77-1.62.77a10.05,10.05,0,0,0,.67,1.6"/><path class="cls-14" d="M400.61,189.92c.48,1,1.48,1.5,2.34.33s-.61-2.11-1.38-2.69-1.95-.78-1.63.76a10.62,10.62,0,0,0,.67,1.6"/><path class="cls-14" d="M364.06,185.79c-.42,1.14-1.5,4.24.6,4.43a4,4,0,0,0,2.52-1.29,1.52,1.52,0,0,0-.27-1.6c-.34-.5-.86-.68-1.22-1.16s-.19-1-.72-1.06a1,1,0,0,0-1,1.18"/><path class="cls-14" d="M372.25,178.27c-.89,5.09,7.49-.51,4.86-2.51-.93-.71-1.92,0-3,.3-.81.21-1.91.83-1.89,1.42a3.81,3.81,0,0,1,.07.79"/><path class="cls-14" d="M372.72,189.18a2.27,2.27,0,0,0,2.75,3.39c1.39-.65,2.79-2.85,1.52-4.1a3.86,3.86,0,0,0-3.59-.63c-.82.36-.58,1.07-.92,1.65"/><path class="cls-14" d="M388.1,171.08c-.45-.78-2.26-.53-2.63.9-.24.94.44,2.28,1.5,2.28,1.74,0,1.8-2.19,1.13-3.18"/><path class="cls-14" d="M318.57,181.7a2.47,2.47,0,0,0-1.13,1.74,2.1,2.1,0,0,0,.57,2c.59.26,1.29-.3,2-.82a24.4,24.4,0,0,1,2.38-2.19c.92-.52,2.23-.82,2.71-1.95.78-1.87-1.32-1.75-2.41-1.25-1.4.64-2.62,2.31-4.09,2.49"/><path class="cls-14" d="M322.24,188.33c-1.13-1.07-1.48-1.93-3.1-1.43-1.2.38-2.23.42-2.54,2-.26,1.27.82,3.29,1.69,4.13a2.16,2.16,0,0,0,2.77.34,3.51,3.51,0,0,0,1.78-3.18,2.08,2.08,0,0,0-.6-1.83"/><path class="cls-14" d="M313.46,178.34c-.46-.78-2.27-.54-2.64.9-.24.94.44,2.28,1.51,2.27,1.73,0,1.8-2.18,1.13-3.17"/><path class="cls-14" d="M351.9,160.62c-.48,0-1.26.79-1.52,1.4a2.09,2.09,0,0,0,.06,2.07c.5.39,1.32,0,2.11-.31a23.86,23.86,0,0,1,2.85-1.53c1-.28,2.36-.24,3.11-1.22,1.22-1.61-.85-2-2-1.81-1.51.27-3.11,1.59-4.58,1.4"/><path class="cls-14" d="M333.2,160.82c-1,.46-1.53,1.45-.38,2.33s2.13-.57,2.72-1.33.82-1.93-.73-1.64a10.58,10.58,0,0,0-1.61.64"/><path class="cls-14" d="M350.39,152.56a2.27,2.27,0,0,0-3.45,2.68c.63,1.4,2.79,2.85,4.08,1.6a3.87,3.87,0,0,0,.69-3.58c-.34-.82-1-.59-1.62-.95"/><path class="cls-14" d="M344.08,157.1c.38.92,1.06,1.66.4,2.61a6,6,0,0,1-1.92,1.8c-1.63.74-2.6-.63-2.75-1.91a5.5,5.5,0,0,1,.23-2.19c.2-.79.07-2.09.56-2.79,1.29-1.84,2.42.55,2.91,1.49.18.36.41.61.57,1"/><path class="cls-14" d="M284.66,194.3c0-1.09-.65-2-1.93-1.35s-.41,2.17,0,3,1.39,1.57,1.79.05a9.93,9.93,0,0,0,.12-1.73"/><path class="cls-14" d="M273.89,207c0,.49.76,1.28,1.37,1.55a2.07,2.07,0,0,0,2.06,0c.41-.49.06-1.32-.26-2.11a23,23,0,0,1-1.47-2.88c-.26-1-.2-2.37-1.16-3.13-1.59-1.25-2,.81-1.85,2,.24,1.51,1.53,3.14,1.31,4.6"/><path class="cls-14" d="M293.08,192.21c.85-.51,1.48-1.29,2.52-.78a6,6,0,0,1,2.06,1.65c1,1.5-.25,2.65-1.49,3a5.47,5.47,0,0,1-2.2.1c-.81-.09-2.07.24-2.84-.15-2-1,.19-2.48,1.05-3.09a10.91,10.91,0,0,1,.9-.72"/><path class="cls-14" d="M297.22,199.48c-.45-.78-2.26-.53-2.63.9-.24.94.44,2.28,1.5,2.28,1.74,0,1.8-2.19,1.13-3.18"/><path class="cls-14" d="M289,184.76a2.27,2.27,0,0,0-3.45,2.68c.63,1.41,2.79,2.85,4.07,1.6a3.86,3.86,0,0,0,.7-3.57c-.35-.83-1.05-.6-1.63-.95"/><path class="cls-14" d="M293,205.16c-1.13-1.08-1.48-1.94-3.1-1.43-1.21.37-2.23.41-2.54,2-.26,1.27.82,3.3,1.69,4.13a2.15,2.15,0,0,0,2.77.34,3.51,3.51,0,0,0,1.78-3.18,2.05,2.05,0,0,0-.6-1.82"/><path class="cls-14" d="M305.47,164.93c.45.78,2.26.54,2.63-.9a1.84,1.84,0,0,0-1.5-2.27c-1.74,0-1.8,2.19-1.13,3.17"/><path class="cls-14" d="M313.22,164.51c1-.46,1.52-1.45.37-2.33s-2.12.57-2.72,1.33-.82,1.93.73,1.64a10.1,10.1,0,0,0,1.62-.64"/><path class="cls-14" d="M199.2,155.84c.77-.47.49-2.28-1-2.61-.94-.22-2.26.48-2.24,1.54,0,1.74,2.23,1.76,3.2,1.07"/><path class="cls-14" d="M198.83,143.68c.84-.69,1.11-1.79-.22-2.34s-1.92,1.08-2.3,2-.31,2.08,1.11,1.41a10.82,10.82,0,0,0,1.41-1"/><path class="cls-14" d="M189.67,154.47a2.27,2.27,0,0,0-2.75-3.4c-1.39.66-2.8,2.85-1.52,4.11a3.87,3.87,0,0,0,3.59.62c.82-.36.57-1.06.92-1.64"/><path class="cls-14" d="M178.38,149.05a2.27,2.27,0,0,0-2.75-3.39c-1.39.65-2.79,2.85-1.52,4.1a3.83,3.83,0,0,0,3.59.62c.82-.35.58-1.06.92-1.64"/><path class="cls-14" d="M186.45,146c-.91.39-1.64,1.09-2.6.45a5.79,5.79,0,0,1-1.83-1.89c-.77-1.61.57-2.61,1.85-2.79a5.53,5.53,0,0,1,2.19.19c.79.18,2.09,0,2.8.5,1.87,1.25-.5,2.44-1.43,2.94-.35.19-.6.43-1,.6"/><path class="cls-14" d="M194.39,162.82c1.13.44,4.21,1.58,4.44-.51a4,4,0,0,0-1.23-2.55A1.53,1.53,0,0,0,196,160c-.5.33-.7.85-1.18,1.2s-1,.17-1.07.7a1,1,0,0,0,1.15,1"/><path class="cls-14" d="M187.69,140c-.9,1.28-1.7,1.76-1,3.28.55,1.14.74,2.14,2.32,2.23,1.29.07,3.14-1.3,3.84-2.28a2.17,2.17,0,0,0-.08-2.8,3.49,3.49,0,0,0-3.4-1.28,2.05,2.05,0,0,0-1.72.85"/><path class="cls-14" d="M178,141.21c.6.91,1.66,1.3,2.36,0s-.87-2-1.71-2.5-2-.53-1.52,1a10.25,10.25,0,0,0,.87,1.5"/><path class="cls-14" d="M194.82,135.89c-1-.1-2,.16-2.49-.87a5.92,5.92,0,0,1-.69-2.54c.11-1.78,1.78-2,3-1.53a5.52,5.52,0,0,1,1.82,1.23c.61.54,1.81,1,2.2,1.8,1,2-1.62,1.88-2.68,1.87a10.76,10.76,0,0,1-1.14,0"/><path class="cls-14" d="M207.89,140.69a2.27,2.27,0,0,0-3.16-3c-1.29.83-2.41,3.18-1,4.27a3.86,3.86,0,0,0,3.64.16c.77-.46.44-1.13.71-1.74"/><path class="cls-14" d="M385.07,140.66c-.84.69-1.11,1.79.22,2.34s1.91-1.08,2.3-2,.31-2.07-1.12-1.41a10.72,10.72,0,0,0-1.4,1"/><path class="cls-14" d="M368.22,139.9c-.46-.78-2.27-.54-2.64.9a1.85,1.85,0,0,0,1.51,2.27c1.73,0,1.8-2.18,1.13-3.17"/><path class="cls-14" d="M373.32,149c-.45-.78-2.26-.54-2.63.9-.24.94.44,2.28,1.5,2.27,1.74,0,1.8-2.18,1.13-3.17"/><path class="cls-14" d="M377.69,139.13c0-.48-.76-1.27-1.37-1.54a2.12,2.12,0,0,0-2.07,0c-.4.5-.05,1.33.27,2.12A23,23,0,0,1,376,142.6c.26,1,.2,2.37,1.16,3.13,1.59,1.25,2-.81,1.85-2-.24-1.51-1.53-3.14-1.31-4.61"/><path class="cls-14" d="M378.62,135.32c-.86.51-1.49,1.29-2.52.77a5.73,5.73,0,0,1-2.06-1.64c-1-1.5.24-2.65,1.49-3a5.42,5.42,0,0,1,2.19-.1c.81.08,2.08-.24,2.84.15,2,1-.18,2.48-1,3.09-.33.24-.54.5-.9.72"/><path class="cls-14" d="M342.2,198.61A2.27,2.27,0,0,0,345,202c1.39-.66,2.8-2.85,1.52-4.11a3.87,3.87,0,0,0-3.59-.62c-.82.36-.57,1.06-.91,1.64"/><path class="cls-14" d="M349.62,182.4c-1.13-1.08-1.49-1.94-3.1-1.44-1.21.38-2.23.42-2.55,2-.26,1.27.82,3.3,1.69,4.13a2.16,2.16,0,0,0,2.78.34,3.52,3.52,0,0,0,1.77-3.18,2,2,0,0,0-.59-1.82"/><path class="cls-14" d="M244,151.68c1-1.15,1.9-1.52,1.36-3.13-.4-1.2-.46-2.22-2-2.5-1.28-.23-3.28.88-4.1,1.77a2.16,2.16,0,0,0-.28,2.78,3.49,3.49,0,0,0,3.22,1.71,2.07,2.07,0,0,0,1.81-.63"/><path class="cls-14" d="M246.82,158c.77-.47.48-2.27-1-2.61a1.85,1.85,0,0,0-2.24,1.55c0,1.74,2.22,1.75,3.2,1.06"/><path class="cls-14" d="M248.25,136.09c.77-.47.48-2.27-1-2.61a1.84,1.84,0,0,0-2.24,1.55c0,1.73,2.22,1.75,3.2,1.06"/><path class="cls-14" d="M226.87,150.29c-.47-1-1.48-1.5-2.33-.33s.61,2.11,1.38,2.69,2,.78,1.62-.76a9.68,9.68,0,0,0-.67-1.6"/><path class="cls-14" d="M241.81,132.35c.42-1.14,1.5-4.24-.6-4.43a4,4,0,0,0-2.52,1.28,1.53,1.53,0,0,0,.27,1.61c.34.49.87.68,1.23,1.16s.18,1,.71,1.05a1,1,0,0,0,1-1.17"/><path class="cls-14" d="M256,149.86c.9-5.09-7.49.51-4.85,2.52.93.7,1.92,0,3-.31.8-.21,1.91-.83,1.89-1.41a3.94,3.94,0,0,1-.08-.8"/><path class="cls-14" d="M228.69,143.54c5.07,1-.36-7.5-2.42-4.9-.72.91,0,1.92.24,3.05.2.8.79,1.92,1.38,1.91a4,4,0,0,1,.8-.06"/><path class="cls-14" d="M231.23,136.39c-.7.56-.19,2.32,1.28,2.47,1,.1,2.19-.77,2-1.82-.26-1.72-2.42-1.46-3.31-.65"/><path class="cls-14" d="M220.93,145.26c-.86-.26-2,1.16-1.31,2.46a1.85,1.85,0,0,0,2.65.64c1.27-1.19-.17-2.83-1.34-3.1"/><path class="cls-14" d="M235.31,147.8c-.91.39-1.64,1.09-2.6.45a5.79,5.79,0,0,1-1.83-1.89c-.78-1.61.57-2.61,1.85-2.79a5.53,5.53,0,0,1,2.19.19c.79.18,2.09,0,2.8.5,1.87,1.25-.5,2.44-1.43,2.94-.35.19-.6.43-1,.6"/><path class="cls-14" d="M218.31,192.44c.55-.34.35-1.65-.69-1.89-.68-.16-1.64.35-1.62,1.12,0,1.25,1.6,1.26,2.31.77"/><path class="cls-14" d="M209.46,191.32c.77-.47.49-2.28-1-2.62-.95-.22-2.27.49-2.25,1.55,0,1.74,2.23,1.76,3.2,1.07"/><path class="cls-14" d="M224.48,182.78c0-1.08-.66-2-1.94-1.34s-.4,2.16,0,3,1.39,1.57,1.8.05a11.14,11.14,0,0,0,.12-1.74"/><path class="cls-14" d="M219.42,180.3c-.91.39-1.64,1.09-2.6.45a5.79,5.79,0,0,1-1.83-1.89c-.77-1.61.58-2.61,1.85-2.79a5.51,5.51,0,0,1,2.19.19c.8.18,2.09,0,2.8.5,1.87,1.25-.5,2.44-1.43,2.94-.35.19-.59.43-1,.6"/><path class="cls-14" d="M248.55,190.65c-1-.28-2-.19-2.3-1.3a5.86,5.86,0,0,1-.22-2.62c.42-1.74,2.09-1.65,3.19-1a5.5,5.5,0,0,1,1.58,1.53c.5.65,1.6,1.34,1.85,2.16.66,2.16-1.93,1.58-3,1.37a11.3,11.3,0,0,1-1.13-.15"/><path class="cls-14" d="M253.48,183.92c1.13.45,4.21,1.59,4.44-.5a4,4,0,0,0-1.23-2.55,1.54,1.54,0,0,0-1.61.23c-.51.34-.7.86-1.19,1.21s-1,.16-1.07.69a1,1,0,0,0,1.16,1"/><path class="cls-14" d="M211.83,188.68c5.07,1-.36-7.5-2.41-4.91-.73.92,0,1.93.24,3,.19.81.79,1.93,1.38,1.91a4.77,4.77,0,0,1,.79,0"/><path class="cls-14" d="M223.62,189.11c.59.91,1.66,1.3,2.36,0s-.88-2-1.71-2.5-2-.52-1.52,1a9.85,9.85,0,0,0,.87,1.51"/><path class="cls-14" d="M264,203.23c.48,0,1.26-.78,1.52-1.4a2.12,2.12,0,0,0-.06-2.07c-.5-.39-1.32,0-2.11.31a23.86,23.86,0,0,1-2.85,1.53c-1,.28-2.36.25-3.11,1.23-1.22,1.61.85,2,2,1.8,1.51-.27,3.11-1.59,4.58-1.4"/><path class="cls-14" d="M245.29,199.27c-.21.13-.22.69-.06,1a1.62,1.62,0,0,0,.94.91c.4,0,.6-.35.8-.71s.27-1.05.59-1.44.95-.75.84-1.38c-.17-1.05-1.26-.68-1.69-.27s-.68,1.55-1.42,1.86"/><path class="cls-14" d="M331.91,122.58c-.77.47-.48,2.28,1,2.62a1.85,1.85,0,0,0,2.24-1.55c0-1.74-2.22-1.76-3.2-1.07"/><path class="cls-14" d="M350.44,121.77c-1.13-.45-4.21-1.58-4.44.51a4,4,0,0,0,1.23,2.54,1.5,1.5,0,0,0,1.61-.23c.5-.33.7-.85,1.19-1.2s1-.17,1.06-.7a1,1,0,0,0-1.15-1"/><path class="cls-14" d="M348.35,133.76c.7-.56.19-2.32-1.28-2.47-1-.1-2.19.77-2,1.82.26,1.72,2.43,1.46,3.31.65"/><path class="cls-14" d="M342.78,124.49a2.27,2.27,0,0,0-3.16-3c-1.29.82-2.41,3.18-1,4.26a3.84,3.84,0,0,0,3.63.16c.78-.46.44-1.12.71-1.74"/><path class="cls-14" d="M344.11,133.43c-.85.51-1.48,1.29-2.52.78a5.86,5.86,0,0,1-2.06-1.65c-1-1.49.25-2.65,1.49-3a5.47,5.47,0,0,1,2.2-.1c.81.09,2.07-.23,2.84.15,2,1-.19,2.48-1.05,3.1-.33.23-.54.5-.9.71"/><path class="cls-14" d="M328.92,132.62c.27-1.18.95-4.4-1.16-4.32a4.07,4.07,0,0,0-2.34,1.59,1.55,1.55,0,0,0,.47,1.56c.41.45.95.56,1.37,1s.31,1,.84,1a1,1,0,0,0,.8-1.28"/><path class="cls-14" d="M320.16,119.9c-.27,1.18-1,4.39,1.15,4.32a4,4,0,0,0,2.34-1.6,1.5,1.5,0,0,0-.47-1.55c-.4-.45-.94-.57-1.36-1s-.31-1-.84-.95a1,1,0,0,0-.8,1.28"/><path class="cls-15" d="M263.27,148.72a10.8,10.8,0,0,0,.68,3.85,23.87,23.87,0,0,1,.62,2.55,11.46,11.46,0,0,1,.13,2.86,14.15,14.15,0,0,1-1.48,5.26,26,26,0,0,1-2.71,4.31,35,35,0,0,1-7.11,6.92c-2.6,2-5.35,3.61-8.05,5.26s-5.37,3.29-7.86,5.15a26.83,26.83,0,0,0-6.47,6.55,17.2,17.2,0,0,0-2.88,8.68,6.54,6.54,0,0,0,0,1.17l0,1.17a13.09,13.09,0,0,0,.25,2.34,8.2,8.2,0,0,0,2,4.19,8.32,8.32,0,0,1-2.28-4.13,13.39,13.39,0,0,1-.41-2.36l-.11-1.19a8,8,0,0,1,0-1.2,18.1,18.1,0,0,1,2.47-9.28,28.21,28.21,0,0,1,6.37-7.3c2.46-2.1,5.09-3.93,7.68-5.75,5.19-3.58,10.31-7.25,13.58-12.25,1.66-2.51,3-5.17,3-7.73a7.55,7.55,0,0,0-.21-1.85,19.94,19.94,0,0,0-.63-2,14.78,14.78,0,0,1-1.18-5.4Z"/><path class="cls-15" d="M263.84,151.79a10.46,10.46,0,0,1,.64,4.63,13.45,13.45,0,0,1-1.09,4.23,17.05,17.05,0,0,1-2.15,3.61,14.47,14.47,0,0,1-1.46,1.6,10.06,10.06,0,0,1-.91.74c-.17.12-.36.24-.56.36l-.32.17-.23.1A43,43,0,0,1,243,171.1a39.13,39.13,0,0,1-15.12-1.63c-4.87-1.6-9-4.28-13.6-4.89a13.57,13.57,0,0,0-3.37,0,13.39,13.39,0,0,0-3.25.93,14.58,14.58,0,0,0-5.41,4.18,17.13,17.13,0,0,0-3.2,6.2A67.45,67.45,0,0,0,197.8,183c-.64,4.85-1.78,9.84-4.5,14A21.58,21.58,0,0,1,191,200c-.84.9-1.74,1.73-2.61,2.58-1.73,1.71-3.57,3.43-4.5,5.72.84-2.33,2.63-4.15,4.3-5.92.84-.88,1.7-1.75,2.5-2.67a21.09,21.09,0,0,0,2.12-2.94,25.51,25.51,0,0,0,2.7-6.7,47.42,47.42,0,0,0,1.16-7.17,67.92,67.92,0,0,1,1-7.36,18.71,18.71,0,0,1,3.23-6.89,16.42,16.42,0,0,1,5.92-4.94,15.25,15.25,0,0,1,3.75-1.22,14.56,14.56,0,0,1,4-.14c5.28.53,9.7,3.19,14.18,4.43a36,36,0,0,0,14,.95,39.52,39.52,0,0,0,13.36-4,6.06,6.06,0,0,0,1.92-1.91,12.38,12.38,0,0,0,1.46-2.76,7.22,7.22,0,0,0,.12-5.45Z"/><path class="cls-15" d="M401,128.58a24.81,24.81,0,0,1,1.53,8.56,17.16,17.16,0,0,1-.51,4.51,14.41,14.41,0,0,1-2,4.14,30.4,30.4,0,0,1-5.84,6.07c-1.06.86-2.16,1.68-3.28,2.45s-2.32,1.51-3.38,2.17c-4.35,2.74-8.53,6-13.1,8.81-4.78,2.93-10,4-13.63,7.41a24.06,24.06,0,0,0-4.73,5.84,21.51,21.51,0,0,0-1.58,3.41,16.74,16.74,0,0,0-.82,3.63,16.26,16.26,0,0,0-.08,1.85,12.64,12.64,0,0,0,.21,1.84,12,12,0,0,0,1.15,3.54c1.1,2.27,2.8,4.42,3.58,7.12a10.45,10.45,0,0,1,.32,4.12,18.58,18.58,0,0,1-.37,2c-.2.65-.37,1.3-.62,1.93a41,41,0,0,1-3.68,7.05c-2.77,4.45-5.95,8.75-7.33,13.87,1.19-5.17,4.24-9.65,6.83-14.17a40.44,40.44,0,0,0,3.35-7,11.63,11.63,0,0,0,.38-7.42c-.77-2.38-2.47-4.39-3.76-6.8a13.45,13.45,0,0,1-1.43-3.89,14.22,14.22,0,0,1-.31-2.06,18.2,18.2,0,0,1,0-2.09,18.83,18.83,0,0,1,.76-4.08,23,23,0,0,1,1.6-3.8,26,26,0,0,1,4.92-6.56,19.66,19.66,0,0,1,3.27-2.6,38.18,38.18,0,0,1,3.58-2,59.5,59.5,0,0,0,6.8-3.59c4.29-2.87,8.32-6.24,12.75-9.29,1.15-.77,2.16-1.44,3.19-2.21s2-1.55,2.95-2.38a27,27,0,0,0,4.88-5.43,10.41,10.41,0,0,0,1.34-3,13.11,13.11,0,0,0,.23-3.33,20.8,20.8,0,0,0-1.45-6.84Z"/><path class="cls-15" d="M398.75,125c-4.4,1.18-9.67,2.18-14.05.86s-10.46-4-13.19-8c-4.13-6.06-6.21-9.43-13.44-9.8-6.9-.35-13.34,3.41-20.81,3-1.53-.07-3.09-.23-4.68-.38a17.46,17.46,0,0,1-3,.25,69,69,0,0,0-8.61,1.93,30.31,30.31,0,0,0-12.28,7.44c-3.23,3.33-6.6,5.53-11.4,5.59-5.23.07-10.5-1.1-15.59-2.17a30.53,30.53,0,0,0-8.56-1c-2.53.2-5,.71-7.55,1-5.15.64-9.31-.57-14.15-2.15-1.69-.56-3.37-1-5-1.39a4.77,4.77,0,0,1-1.66-.18,1.61,1.61,0,0,1-.33-.06c-1.35-.06-2.77-.4-4-.37a15.74,15.74,0,0,0-7.13,1.5c-2.56,2.2-5,4.37-8.26,5.52a39,39,0,0,1-21.68,1.11c-1.09-.27-2.16-.53-3.22-.77l-1.25-.08a47.13,47.13,0,0,0-8.89.12,14.2,14.2,0,0,1-1.82.27c-1.4.12-2.78.29-4.17.36a6.59,6.59,0,0,1-1.77.15c-.58.12-1.18.22-1.81.3a56.34,56.34,0,0,0-9.82,2.42,3.87,3.87,0,0,0-2.8,2.88,4.08,4.08,0,0,0,1.57,1.63c5.92-2,11.31-2.51,17.34-3.78s8.24-2.84,14.13.08c4.57,2.26,9,4,14.33,2.69,2.41-.6,4.3-2.2,6.56-3.13s4.87-1.18,7.06-2.33c3.81-2,6.66-6.42,11.35-6.35,4.53.07,10.28,3.05,14.23,5.29,5.41,3.08,10.26,1.77,16,.61,2.57-.52,5.33-2,8-1.47,2.28.44,4.85,2,7,2.77,4.89,1.81,10.11,4.17,15.45,2.44,4.17-1.35,8.82-4.09,11.27-7.47,3.23-4.46,5.45-8,11.36-8.06,2.93,0,5.7.54,8.68.34s4.87-1.28,7.55-1.81c5.2-1,10.69-.18,15.67-2.1,5.87-2.26,8.08.19,9.72,5.67.81,2.7.93,5.39,3.83,7,2.7,1.51,5.33.52,8.33,1,5,.71,10,2.68,14.92,3.91a14.1,14.1,0,0,0,9.58-.65A22.31,22.31,0,0,0,398.75,125Z"/><path class="cls-15" d="M310.05,122.18a12.77,12.77,0,0,0,2.08,2.3c.82.74,1.79,1.47,2.78,2.33a23,23,0,0,1,2.81,2.85c.87,1.09,1.51,2,2.26,3a34.84,34.84,0,0,1,3.93,6.62,12.74,12.74,0,0,1,.9,8.24,27.83,27.83,0,0,1-3.41,6.91,11.24,11.24,0,0,0-1.92,6.1,7.05,7.05,0,0,0,2.35,5.52c1.6,1.45,3.84,2.43,6,3.83a13.74,13.74,0,0,1,3,2.58,10.16,10.16,0,0,1,1.13,1.69,6.17,6.17,0,0,1,.65,2.07,9.07,9.07,0,0,1-.54,4c-.4,1.22-.93,2.34-1.4,3.45-2.17,4.16-.67,9.27-2.21,14.2a20.39,20.39,0,0,1-3.87,6.34,26.73,26.73,0,0,0-4,5.95c-.51,1.1-1,2.21-1.44,3.34a15.56,15.56,0,0,0-1,3.46c-.34,2.38-.1,4.84-.27,7.26.08-2.43-.26-4.85,0-7.3a15.54,15.54,0,0,1,.88-3.57c.4-1.15.84-2.29,1.31-3.41,1.81-4.66,6.07-7.86,7.33-12.41a26.13,26.13,0,0,0,.54-7.07,31.59,31.59,0,0,1,.17-3.74,15,15,0,0,1,1-3.69c.43-1.15.9-2.25,1.22-3.35a7.4,7.4,0,0,0,.33-3.18,4.31,4.31,0,0,0-.49-1.37,8.51,8.51,0,0,0-.94-1.29,11.81,11.81,0,0,0-2.6-2.06c-2-1.2-4.3-2.08-6.42-3.81a9.26,9.26,0,0,1-2.58-3.3,11.2,11.2,0,0,1-.93-4,12.5,12.5,0,0,1,.47-4.08,19,19,0,0,1,1.55-3.64,25.21,25.21,0,0,0,2.84-6.2,9.21,9.21,0,0,0-1-5.95,31,31,0,0,0-3.74-5.74c-.72-.91-1.52-2-2.21-2.73a20.42,20.42,0,0,0-2.42-2.21c-.89-.69-1.9-1.37-2.94-2.19a17.57,17.57,0,0,1-3-3Z"/><path class="cls-15" d="M372.8,121.07l-.33.76-.26.74a5.42,5.42,0,0,0-.24,1.33c0,.22,0,.52,0,1a5.6,5.6,0,0,1-.23,1.55,7.58,7.58,0,0,1-1.26,2.34,19.37,19.37,0,0,1-1.39,1.63,18.88,18.88,0,0,1-1.55,1.55,34.79,34.79,0,0,1-3.3,2.46,59,59,0,0,0-6.12,4.37c-1.77,1.57-3,3.38-2.91,5.32a5.79,5.79,0,0,0,.27,1.5,10.29,10.29,0,0,0,.63,1.57,17.3,17.3,0,0,0,1.95,3,48,48,0,0,1,4.83,6.35,13,13,0,0,1,1.45,4.05,13.59,13.59,0,0,1,0,4.27A10.64,10.64,0,0,1,360,172a18.06,18.06,0,0,1-7.6,3c-2.62.46-5.21.64-7.77.94a41.25,41.25,0,0,0-7.49,1.38,12,12,0,0,0-6.15,3.88c-1.44,1.95-1.87,4.57-2.14,7.09s-.34,5.16-.61,7.74c-.49,5.17-1.3,10.29-2.09,15.4.61-5.14,1.24-10.28,1.55-15.44.18-2.58.19-5.15.34-7.76s.49-5.32,2.07-7.67a13.16,13.16,0,0,1,6.61-4.52,43.34,43.34,0,0,1,7.7-1.71c2.58-.39,5.15-.67,7.62-1.18a16.32,16.32,0,0,0,6.66-2.83,8.46,8.46,0,0,0,3.25-5.83,10.22,10.22,0,0,0-1.42-6.65,46.36,46.36,0,0,0-4.78-5.81,20,20,0,0,1-2.41-3.43,15,15,0,0,1-.89-2,9.14,9.14,0,0,1-.49-2.3,8.33,8.33,0,0,1,1-4.64,13.73,13.73,0,0,1,2.74-3.46,60.67,60.67,0,0,1,6.33-4.9,31,31,0,0,0,2.84-2.26,9.32,9.32,0,0,0,1.14-1.26,14.83,14.83,0,0,0,1-1.4,3.51,3.51,0,0,0,.53-1.08,1.38,1.38,0,0,0,0-.36c0-.22-.06-.56-.07-1a9.91,9.91,0,0,1,.26-2.51c.09-.38.2-.75.31-1.11l.36-1Z"/><path class="cls-15" d="M370.16,118a10.2,10.2,0,0,1,1.17,4.86,11.23,11.23,0,0,1-1.14,4.71,24.11,24.11,0,0,1-5.26,6.79c-2,1.89-4.11,3.55-6,5.17a10.35,10.35,0,0,0-1.1,1.08s-.17.28-.28.5a5.3,5.3,0,0,0-.28.65,4,4,0,0,0-.07,2.59c.55,1.85,2.25,3.78,3.95,5.74.85,1,1.74,2,2.56,3.17a18.32,18.32,0,0,1,2,3.8,23.23,23.23,0,0,1,1.55,8.22,16.17,16.17,0,0,1-2,8.22c-1.51,2.5-3.61,4.23-5.27,6.08a14.23,14.23,0,0,0-2.12,2.93,7.6,7.6,0,0,0-.89,3.29c-.08,2.28,1.27,4.46,2.75,6.56.74,1.07,1.51,2.15,2.18,3.32a21.39,21.39,0,0,1,1.64,3.7,23.48,23.48,0,0,1,1.07,7.91,46.3,46.3,0,0,1-1,7.82c-1,5.13-2.45,10.15-2.85,15.37.18-5.23,1.43-10.35,2.2-15.48s1.09-10.42-.71-15.18a19.53,19.53,0,0,0-1.66-3.37c-.67-1.07-1.45-2.08-2.25-3.12a25,25,0,0,1-2.25-3.37,9.38,9.38,0,0,1-1.14-4.15c-.07-3,1.5-5.7,3.24-7.74s3.63-3.83,4.73-5.88a13.4,13.4,0,0,0,1.35-6.85,19.73,19.73,0,0,0-1.63-7,14.34,14.34,0,0,0-1.77-3c-.73-.94-1.58-1.86-2.47-2.8s-1.81-1.92-2.7-3a13.46,13.46,0,0,1-2.31-3.93,8.05,8.05,0,0,1-.09-5.09,9.05,9.05,0,0,1,.43-1.17,8,8,0,0,1,.68-1.2,12,12,0,0,1,1.62-1.72c2-1.85,4-3.42,5.75-5.19a19.77,19.77,0,0,0,4.2-5.54,5.83,5.83,0,0,0-.05-5.48Z"/><path class="cls-15" d="M264.66,127.45c-.11,4.77-.59,9.36-.88,13.84-.08,1.13-.14,2.24-.18,3.35s-.07,2.31,0,3a9,9,0,0,0,.19,1.19,6.68,6.68,0,0,0,.41,1.08,6,6,0,0,0,1.42,1.89,13.09,13.09,0,0,0,5,2.61,28.7,28.7,0,0,0,3,.73c.52.1,1.05.19,1.58.26.29.05.52.07.73.09l.72.05c2,0,4.37-.12,6.69-.19a51,51,0,0,1,7.18.13,19.58,19.58,0,0,1,3.79.76,9.55,9.55,0,0,1,3.78,2.13,7.23,7.23,0,0,1,2.15,4.11,12.82,12.82,0,0,1,.11,2.11,11.39,11.39,0,0,1-.28,2c-.6,2.67-2.22,4.83-2.18,6.1a3.2,3.2,0,0,0,.85,2.09,8.85,8.85,0,0,0,1,1.11l.63.67a7.73,7.73,0,0,1,.64.74,9.06,9.06,0,0,1,1.87,3.67,5,5,0,0,1-.05,2.45,3.76,3.76,0,0,1-1.73,2.16,5,5,0,0,1-2.33.57,8.83,8.83,0,0,1-2-.25,15.26,15.26,0,0,1-3.5-1.36,18.33,18.33,0,0,0-2.9-1.38,9.09,9.09,0,0,0-3-.37c-2.14,0-4.41.54-6.86.54l.37-.07a37.13,37.13,0,0,0-5.24,2.21,8.72,8.72,0,0,0-2.12,1.59,3.4,3.4,0,0,0-1,2c0,.37.06.88.06,1.43a6.54,6.54,0,0,1-.18,1.6,15,15,0,0,1-1.07,2.85,50.46,50.46,0,0,0-2.07,5.37,14.75,14.75,0,0,0-.8,5.56,8.48,8.48,0,0,0,.7,2.7,16.53,16.53,0,0,0,1.45,2.46c1.1,1.58,2.39,3,3.51,4.64a16.82,16.82,0,0,1,1.5,2.51,7.73,7.73,0,0,1,.68,2.83,7.49,7.49,0,0,0-.8-2.77,15.48,15.48,0,0,0-1.58-2.42c-1.18-1.53-2.53-2.93-3.72-4.5a17.22,17.22,0,0,1-1.6-2.48,9.1,9.1,0,0,1-.89-2.88,15.55,15.55,0,0,1,.58-5.93q.39-1.43.87-2.82c.3-.91.63-1.87,1-2.77a13.49,13.49,0,0,0,.87-2.63,5.66,5.66,0,0,0,.1-1.29c0-.42-.12-.87-.13-1.47a3.8,3.8,0,0,1,.42-1.75,6.77,6.77,0,0,1,.92-1.38,10.45,10.45,0,0,1,2.44-2,38.14,38.14,0,0,1,5.38-2.57l.15-.07h.21c2.14-.09,4.35-.67,6.79-.84a16.66,16.66,0,0,1,1.87,0,9.85,9.85,0,0,1,1.93.32,21.11,21.11,0,0,1,3.36,1.4,12.29,12.29,0,0,0,2.93,1,3.66,3.66,0,0,0,2.32-.14.82.82,0,0,0,.33-.47,2.28,2.28,0,0,0-.07-.94,5.9,5.9,0,0,0-1.35-2.31,5.18,5.18,0,0,0-.51-.54l-.57-.55a12.12,12.12,0,0,1-1.34-1.42,8,8,0,0,1-1.16-1.79,8.12,8.12,0,0,1-.4-1.11,6.36,6.36,0,0,1-.15-1.22,9.94,9.94,0,0,1,1-4,14.07,14.07,0,0,0,.95-2.89,7.74,7.74,0,0,0,.13-1.36,7.47,7.47,0,0,0-.12-1.3,3.09,3.09,0,0,0-1.05-1.81c-1.07-1-3.13-1.39-5.18-1.52a44.92,44.92,0,0,0-6.52.17c-2.26.17-4.5.45-7,.49-.33,0-.65,0-1,0s-.7,0-1-.08c-.6-.05-1.21-.12-1.81-.21a34.27,34.27,0,0,1-3.66-.72A18.41,18.41,0,0,1,262,156a11.83,11.83,0,0,1-4.2-7.68,33.55,33.55,0,0,1-.17-3.82q0-1.77,0-3.51c.11-4.66.38-9.19.28-13.58Z"/><path class="cls-15" d="M216,132.56a11.6,11.6,0,0,1,.48,2.91c.06.92,0,1.82,0,2.72a30.34,30.34,0,0,1-.67,5.35,21.38,21.38,0,0,1-.77,2.64c-.36.91-.75,1.62-1.09,2.39a11.28,11.28,0,0,0-1.17,4.63,6.37,6.37,0,0,0,.15,1.16,7.35,7.35,0,0,1,.17,1.41,6,6,0,0,1-.58,2.82,7.55,7.55,0,0,1-4.2,3.45c-1.66.65-3.35,1-4.76,1.93a8,8,0,0,0-1.86,1.73l-1.66,2,1.5-2.12a8.39,8.39,0,0,1,1.79-1.93c1.41-1.12,3.17-1.6,4.67-2.33a6.59,6.59,0,0,0,3.44-3.22,4.65,4.65,0,0,0,.3-2.25,7.8,7.8,0,0,0-.23-1.15l-.18-.67c0-.24-.09-.48-.11-.72a12.81,12.81,0,0,1,.92-5.45c.29-.85.65-1.69.91-2.4a18.09,18.09,0,0,0,.59-2.36,28.32,28.32,0,0,0,.44-5c0-.83,0-1.66-.11-2.47a10.14,10.14,0,0,0-.42-2.19Z"/><path class="cls-16" d="M191.09,252.12s0-.09,0-.13a2.11,2.11,0,0,0,0-.25v0c0-.1,0-.2,0-.3,0-6.07-5.95-12.64-5.95-12.64s-6,6.57-6,12.64c0,.1,0,.2,0,.3v0a2.11,2.11,0,0,0,0,.25s0,.09,0,.13a.28.28,0,0,1,0,.09,6,6,0,0,0,11.8,0A.28.28,0,0,1,191.09,252.12Z"/><path class="cls-16" d="M289.07,252.12s0-.09,0-.13,0-.17,0-.25v0c0-.1,0-.2,0-.3,0-6.07-6-12.64-6-12.64s-6,6.57-6,12.64c0,.1,0,.2,0,.3v0c0,.08,0,.17,0,.25s0,.09,0,.13a.28.28,0,0,0,0,.09,5.95,5.95,0,0,0,11.79,0A.28.28,0,0,0,289.07,252.12Z"/><path class="cls-16" d="M255.88,237s0-.08,0-.13a2.29,2.29,0,0,1,0-.25v-.33c0-6.07-5.95-12.63-5.95-12.63S244,230.18,244,236.25c0,.1,0,.2,0,.3v0c0,.09,0,.17,0,.25s0,.09,0,.13,0,.06,0,.09a5.95,5.95,0,0,0,11.79,0S255.88,237,255.88,237Z"/><path class="cls-16" d="M387.3,237s0-.08,0-.13a2,2,0,0,0,0-.25v0c0-.1,0-.2,0-.3,0-6.07-5.95-12.63-5.95-12.63s-5.95,6.56-5.95,12.63c0,.1,0,.2,0,.3v0a2,2,0,0,0,0,.25s0,.09,0,.13a.28.28,0,0,1,0,.09,6,6,0,0,0,11.8,0A.28.28,0,0,1,387.3,237Z"/><path class="cls-16" d="M410.79,256.78s0-.08,0-.13a2.29,2.29,0,0,1,0-.25v0c0-.1,0-.2,0-.3,0-6.07-6-12.63-6-12.63s-5.95,6.56-5.95,12.63c0,.1,0,.2,0,.3v0c0,.09,0,.17,0,.25a.51.51,0,0,0,0,.13.28.28,0,0,0,0,.09,5.95,5.95,0,0,0,11.79,0S410.79,256.81,410.79,256.78Z"/><path class="cls-16" d="M307.94,243.18s0-.08,0-.13a2.11,2.11,0,0,1,0-.25v0c0-.1,0-.2,0-.3,0-6.07,6-12.63,6-12.63s5.95,6.56,5.95,12.63v.33a2.11,2.11,0,0,1,0,.25s0,.09,0,.13,0,.06,0,.09a6,6,0,0,1-11.8,0A.28.28,0,0,0,307.94,243.18Z"/><path class="cls-16" d="M337,259.3c0-.05,0-.09,0-.13a2.11,2.11,0,0,1,0-.26v-.32c0-6.08,5.95-12.64,5.95-12.64s5.95,6.56,5.95,12.64c0,.1,0,.2,0,.3v0a2.11,2.11,0,0,1,0,.26s0,.08,0,.13a.28.28,0,0,0,0,.09,6,6,0,0,1-11.8,0S337,259.33,337,259.3Z"/><path class="cls-16" d="M220.93,265.58s0-.08,0-.12,0-.17,0-.26v0a2.81,2.81,0,0,1,0-.3c0-6.07,6-12.63,6-12.63s5.95,6.56,5.95,12.63v.33a2.28,2.28,0,0,0,0,.26s0,.08,0,.12,0,.07,0,.1a6,6,0,0,1-11.79,0S220.94,265.61,220.93,265.58Z"/><path class="cls-16" d="M203.4,234.55s0-.09,0-.13a2.11,2.11,0,0,1,0-.25v0c0-.1,0-.2,0-.3,0-6.07,5.95-12.64,5.95-12.64s5.95,6.57,5.95,12.64c0,.1,0,.2,0,.3v0a2.11,2.11,0,0,1,0,.25s0,.09,0,.13a.28.28,0,0,0,0,.09,6,6,0,0,1-11.8,0A.28.28,0,0,0,203.4,234.55Z"/><path class="cls-16" d="M366.27,269.3s0-.08,0-.13a2.11,2.11,0,0,1,0-.25v0c0-.1,0-.2,0-.3,0-6.07,5.95-12.63,5.95-12.63s5.95,6.56,5.95,12.63v.33a2.11,2.11,0,0,1,0,.25c0,.05,0,.09,0,.13s0,.06,0,.09a6,6,0,0,1-11.8,0A.28.28,0,0,0,366.27,269.3Z"/><circle class="cls-17" cx="520.97" cy="36.17" r="35.73"/><line class="cls-17" x1="520.97" y1="3.31" x2="520.97" y2="9.69"/><line class="cls-17" x1="504.54" y1="7.72" x2="507.73" y2="13.24"/><line class="cls-17" x1="492.51" y1="19.74" x2="498.04" y2="22.93"/><line class="cls-17" x1="488.11" y1="36.17" x2="494.49" y2="36.17"/><line class="cls-17" x1="492.51" y1="52.6" x2="498.04" y2="49.41"/><line class="cls-17" x1="504.54" y1="64.63" x2="507.73" y2="59.11"/><line class="cls-17" x1="520.97" y1="69.04" x2="520.97" y2="62.65"/><line class="cls-17" x1="537.4" y1="64.63" x2="534.21" y2="59.11"/><line class="cls-17" x1="549.43" y1="52.6" x2="543.91" y2="49.41"/><line class="cls-17" x1="553.83" y1="36.17" x2="547.45" y2="36.17"/><line class="cls-17" x1="549.43" y1="19.74" x2="543.91" y2="22.93"/><line class="cls-17" x1="537.4" y1="7.72" x2="534.21" y2="13.24"/><line class="cls-17" x1="520.97" y1="16.15" x2="520.97" y2="36.17"/><polygon class="cls-13" points="518.35 18.14 520.97 17.03 523.6 18.14 520.97 11.93 518.35 18.14"/><line class="cls-17" x1="529.9" y1="45.08" x2="521.01" y2="36.19"/><polygon class="cls-13" points="530.23 42.63 529.43 44.61 527.45 45.41 532.14 47.32 530.23 42.63"/><path class="cls-18" d="M517.94,46a10.1,10.1,0,1,1,13.11-8.94"/><polygon class="cls-19" points="529.73 35.75 531.08 36.61 532.64 36.23 530.61 39.44 529.73 35.75"/></g></g></svg>