<svg xmlns="http://www.w3.org/2000/svg" viewBox="0 0 709.81 499.01"><defs><style>.cls-1{fill:#df6a7c;}.cls-2,.cls-7{fill:#5c5052;}.cls-2,.cls-3{stroke:#fff;stroke-width:0.42px;}.cls-2,.cls-3,.cls-4{stroke-miterlimit:10;}.cls-3{fill:#2e61a1;}.cls-4{font-size:33.99px;fill:#ebbd25;stroke:#ebbd25;stroke-width:0.49px;font-family:Acre-Light, Acre;font-weight:300;}.cls-5{letter-spacing:0.01em;}.cls-6{letter-spacing:-0.02em;}.cls-7{font-size:19.94px;font-family:Acre-Thin, Acre;font-weight:200;}.cls-8{letter-spacing:-0.02em;}.cls-9{letter-spacing:-0.01em;}.cls-10{letter-spacing:-0.02em;}</style></defs><g id="Layer_2" data-name="Layer 2"><g id="Layer_9" data-name="Layer 9"><rect class="cls-1" x="222.36" y="158.12" width="87.95" height="3.19" transform="translate(-9.33 302.72) rotate(-58.37)"/><rect class="cls-1" x="310.13" y="116.12" width="3.19" height="87.18" transform="translate(-37.81 182.17) rotate(-30.8)"/><path class="cls-1" d="M239.34,194.69H339.46s0,23.52-50.06,23.52S239.34,194.69,239.34,194.69Z"/><rect class="cls-1" x="367.9" y="200.6" width="87.95" height="3.19" transform="translate(23.71 446.83) rotate(-58.37)"/><rect class="cls-1" x="455.67" y="158.6" width="3.19" height="87.18" transform="translate(-39.03 262.7) rotate(-30.8)"/><path class="cls-1" d="M384.87,237.17H485s0,23.2-50.06,23.2S384.87,237.17,384.87,237.17Z"/><polyline class="cls-1" points="361.99 128.47 352.45 259.44 371.53 259.44 361.99 128.47"/><path class="cls-1" d="M371.53,261.27H352.45a1.82,1.82,0,0,1-1.82-2l9.53-131a1.83,1.83,0,0,1,3.65,0l9.54,131a1.82,1.82,0,0,1-1.82,2Zm-17.11-3.66h15.14l-7.57-104Z"/><path class="cls-1" d="M435.35,167.79a4.13,4.13,0,0,1-1.14-.16L288.26,125.37a4.1,4.1,0,0,1,2.28-7.87l146,42.27a4.09,4.09,0,0,1-1.14,8Z"/><polygon class="cls-2" points="464.82 234.31 435.19 240.3 435.19 206.4 464.82 202.35 464.82 234.31"/><polygon class="cls-2" points="407.33 233.21 434.88 240.65 434.88 206.74 407.33 199.31 407.33 233.21"/><ellipse class="cls-3" cx="429.52" cy="222.07" rx="5.58" ry="6.11"/><ellipse class="cls-3" cx="448.37" cy="206.37" rx="4.77" ry="5.22" transform="translate(-44.84 187.18) rotate(-22.49)"/><ellipse class="cls-3" cx="422.86" cy="203.18" rx="4.77" ry="5.22" transform="translate(-45.56 177.18) rotate(-22.49)"/><ellipse class="cls-3" cx="413.58" cy="218.88" rx="5.58" ry="6.11"/><ellipse class="cls-3" cx="421.02" cy="218.35" rx="5.58" ry="6.11"/><ellipse class="cls-3" cx="414.11" cy="208.78" rx="5.58" ry="6.11"/><ellipse class="cls-3" cx="428.46" cy="212.5" rx="5.58" ry="6.11"/><ellipse class="cls-3" cx="415.17" cy="227.38" rx="5.58" ry="6.11"/><ellipse class="cls-3" cx="426.86" cy="230.57" rx="5.58" ry="6.11"/><ellipse class="cls-3" cx="452.32" cy="217.51" rx="5.58" ry="6.11" transform="translate(-48.8 189.54) rotate(-22.49)"/><ellipse class="cls-3" cx="440.68" cy="213.44" rx="5.58" ry="6.11" transform="translate(-48.13 184.78) rotate(-22.49)"/><ellipse class="cls-3" cx="457.49" cy="210.85" rx="5.58" ry="6.11" transform="translate(-45.86 191.01) rotate(-22.49)"/><ellipse class="cls-3" cx="441.87" cy="231.28" rx="5.58" ry="6.11" transform="translate(-54.86 186.59) rotate(-22.49)"/><ellipse class="cls-3" cx="444.53" cy="222.8" rx="5.58" ry="6.11" transform="translate(-51.42 186.96) rotate(-22.49)"/><ellipse class="cls-3" cx="453.03" cy="229.69" rx="5.58" ry="6.11" transform="translate(-53.4 190.74) rotate(-22.49)"/><ellipse class="cls-3" cx="458.34" cy="221.71" rx="5.58" ry="6.11" transform="translate(-49.95 192.16) rotate(-22.49)"/><ellipse class="cls-3" cx="435.61" cy="200.52" rx="4.77" ry="5.22" transform="translate(-43.57 181.86) rotate(-22.49)"/><polygon class="cls-2" points="407.33 199.61 434.88 207.04 465.13 202.35 436.11 194.11 407.33 199.61"/><polygon class="cls-2" points="317.77 194.16 288.13 200.16 288.13 166.26 317.77 162.21 317.77 194.16"/><polygon class="cls-2" points="260.27 193.07 287.82 200.5 287.82 166.6 260.27 159.16 260.27 193.07"/><ellipse class="cls-3" cx="274.94" cy="188.29" rx="3.47" ry="3.8"/><ellipse class="cls-3" cx="301.31" cy="166.22" rx="4.77" ry="5.22" transform="translate(-40.67 127.88) rotate(-22.49)"/><ellipse class="cls-3" cx="274.45" cy="163.49" rx="4.77" ry="5.22" transform="translate(-41.66 117.4) rotate(-22.49)"/><ellipse class="cls-3" cx="268.83" cy="179.36" rx="3.57" ry="3.91"/><ellipse class="cls-3" cx="280.22" cy="179.54" rx="2.49" ry="2.72"/><ellipse class="cls-3" cx="265.32" cy="168.54" rx="3.84" ry="4.21"/><ellipse class="cls-3" cx="283.68" cy="169.87" rx="3.31" ry="3.62"/><ellipse class="cls-3" cx="265.34" cy="188.92" rx="2.81" ry="3.08"/><ellipse class="cls-3" cx="283.14" cy="193.45" rx="4.06" ry="4.44"/><ellipse class="cls-3" cx="305.25" cy="177.07" rx="2.87" ry="3.15" transform="translate(-44.52 130.22) rotate(-22.49)"/><ellipse class="cls-3" cx="292.45" cy="172.74" rx="2.89" ry="3.17" transform="translate(-43.83 124.99) rotate(-22.49)"/><ellipse class="cls-3" cx="311.31" cy="168.3" rx="3.85" ry="4.22" transform="translate(-40.7 131.86) rotate(-22.49)"/><ellipse class="cls-3" cx="295.79" cy="190.26" rx="3.94" ry="4.32" transform="matrix(0.92, -0.38, 0.38, 0.92, -50.28, 127.6)"/><ellipse class="cls-3" cx="296.74" cy="180.67" rx="2.86" ry="3.13" transform="translate(-46.54 127.23) rotate(-22.49)"/><ellipse class="cls-3" cx="307.58" cy="190.87" rx="3.36" ry="3.64" transform="translate(-49.61 132.15) rotate(-22.49)"/><ellipse class="cls-3" cx="313.19" cy="182.46" rx="4.17" ry="4.56" transform="translate(-45.97 133.66) rotate(-22.49)"/><ellipse class="cls-3" cx="288.56" cy="160.38" rx="4.77" ry="5.22" transform="matrix(0.92, -0.38, 0.38, 0.92, -39.4, 122.56)"/><polygon class="cls-2" points="260.27 159.46 287.82 166.9 318.08 162.21 289.06 153.96 260.27 159.46"/><text class="cls-4" transform="translate(263.15 29.13)">bulk de<tspan class="cls-5" x="116.16" y="0">n</tspan><tspan x="135.77" y="0">sit</tspan><tspan class="cls-6" x="167.58" y="0">y</tspan></text><text class="cls-7" transform="translate(225.07 72.4)">dr<tspan class="cls-8" x="18.09" y="0">y</tspan><tspan x="27.2" y="0"> </tspan><tspan class="cls-9" x="34.18" y="0">w</tspan><tspan x="49.38" y="0">eight </tspan><tspan class="cls-9" x="101.2" y="0">o</tspan><tspan x="113.09" y="0">f soil / unit </tspan><tspan class="cls-9" x="213.31" y="0">v</tspan><tspan x="222.96" y="0">olu</tspan><tspan class="cls-10" x="250.7" y="0">m</tspan><tspan x="267.55" y="0">e</tspan><tspan x="-113.12" y="242.29">in ge</tspan><tspan class="cls-8" x="-66.48" y="242.29">n</tspan><tspan x="-55.53" y="242.29">e</tspan><tspan class="cls-8" x="-44.22" y="242.29">r</tspan><tspan x="-38.84" y="242.29">al, t</tspan><tspan class="cls-10" x="-7.05" y="242.29">h</tspan><tspan x="3.9" y="242.29">e l</tspan><tspan class="cls-9" x="26.49" y="242.29">ow</tspan><tspan x="53.57" y="242.29">er t</tspan><tspan class="cls-8" x="82.83" y="242.29">h</tspan><tspan x="93.77" y="242.29">e numbe</tspan><tspan class="cls-8" x="175.61" y="242.29">r</tspan><tspan x="181" y="242.29">, t</tspan><tspan class="cls-8" x="196.17" y="242.29">h</tspan><tspan x="207.12" y="242.29">e </tspan><tspan class="cls-8" x="225.41" y="242.29">m</tspan><tspan x="242.26" y="242.29">o</tspan><tspan class="cls-10" x="254.34" y="242.29">r</tspan><tspan x="259.73" y="242.29">e space </tspan><tspan class="cls-8" x="339.55" y="242.29">f</tspan><tspan x="344.34" y="242.29">or air </tspan><tspan x="-120.02" y="269.22">a</tspan><tspan class="cls-8" x="-107.71" y="269.22">n</tspan><tspan x="-96.77" y="269.22">d </tspan><tspan class="cls-9" x="-77.48" y="269.22">w</tspan><tspan x="-62.29" y="269.22">a</tspan><tspan class="cls-8" x="-49.98" y="269.22">t</tspan><tspan x="-45.2" y="269.22">er </tspan><tspan class="cls-10" x="-21.13" y="269.22">t</tspan><tspan x="-16.34" y="269.22">o fl</tspan><tspan class="cls-9" x="12.21" y="269.22">o</tspan><tspan x="24.1" y="269.22">w; while t</tspan><tspan class="cls-8" x="108.71" y="269.22">h</tspan><tspan x="119.66" y="269.22">e g</tspan><tspan class="cls-8" x="150.25" y="269.22">r</tspan><tspan x="155.63" y="269.22">ea</tspan><tspan class="cls-8" x="179.24" y="269.22">t</tspan><tspan x="184.03" y="269.22">er t</tspan><tspan class="cls-8" x="213.28" y="269.22">h</tspan><tspan x="224.23" y="269.22">e number t</tspan><tspan class="cls-10" x="324.02" y="269.22">h</tspan><tspan x="334.96" y="269.22">e </tspan><tspan class="cls-8" x="353.25" y="269.22">m</tspan><tspan x="370.1" y="269.22">o</tspan><tspan class="cls-8" x="382.19" y="269.22">r</tspan><tspan x="387.57" y="269.22">e </tspan><tspan x="52.3" y="296.14">compac</tspan><tspan class="cls-8" x="127.79" y="296.14">t</tspan><tspan x="132.58" y="296.14">ed t</tspan><tspan class="cls-8" x="168.36" y="296.14">h</tspan><tspan x="179.3" y="296.14">e soil</tspan></text></g></g></svg>