<svg xmlns="http://www.w3.org/2000/svg" viewBox="0 0 718.78 655.09"><defs><style>.cls-1,.cls-17{font-size:40px;}.cls-1,.cls-17,.cls-22{fill:#5c5052;}.cls-1{font-family:Acre-Light, Acre;font-weight:300;}.cls-2{letter-spacing:-0.02em;}.cls-3{letter-spacing:0em;}.cls-4{letter-spacing:0em;}.cls-5{letter-spacing:-0.02em;}.cls-6{letter-spacing:-0.02em;}.cls-7{letter-spacing:-0.02em;}.cls-8{letter-spacing:-0.02em;}.cls-9{letter-spacing:-0.01em;}.cls-10{letter-spacing:-0.01em;}.cls-11{letter-spacing:-0.01em;}.cls-12{letter-spacing:0em;}.cls-13{letter-spacing:0em;}.cls-14{letter-spacing:-0.02em;}.cls-15{letter-spacing:0em;}.cls-16{letter-spacing:0.01em;}.cls-17{font-family:Acre-Semibold, Acre;font-weight:600;}.cls-18{letter-spacing:-0.01em;}.cls-19{letter-spacing:-0.01em;}.cls-20{letter-spacing:-0.1em;}.cls-21{fill:#ffce01;}.cls-23{fill:#f27243;}</style></defs><g id="Layer_2" data-name="Layer 2"><g id="Layer_6" data-name="Layer 6"><text class="cls-1" transform="translate(15.31 440.84)">mic<tspan class="cls-2" x="66.12" y="0">r</tspan><tspan class="cls-3" x="77.48" y="0">ob</tspan><tspan class="cls-4" x="126.24" y="0">e</tspan><tspan x="148.64" y="0">s clump mi</tspan><tspan class="cls-5" x="350.12" y="0">n</tspan><tspan x="372.32" y="0">e</tspan><tspan class="cls-6" x="394.92" y="0">r</tspan><tspan x="406.28" y="0">al a</tspan><tspan class="cls-5" x="478.48" y="0">n</tspan><tspan x="500.67" y="0">d o</tspan><tspan class="cls-6" x="563.23" y="0">r</tspan><tspan x="574.59" y="0">ganic </tspan><tspan class="cls-7" x="-9.74" y="64">m</tspan><tspan x="24.62" y="64">a</tspan><tspan class="cls-8" x="49.3" y="64">t</tspan><tspan x="59.58" y="64">erials </tspan><tspan class="cls-2" x="168.22" y="64">t</tspan><tspan x="178.5" y="64">og</tspan><tspan class="cls-9" x="227.26" y="64">e</tspan><tspan x="249.34" y="64">t</tspan><tspan class="cls-10" x="260.42" y="64">h</tspan><tspan x="282.66" y="64">er </tspan><tspan class="cls-2" x="331.22" y="64">t</tspan><tspan x="341.5" y="64">o </tspan><tspan class="cls-2" x="379.38" y="64">f</tspan><tspan x="389.66" y="64">orm agg</tspan><tspan class="cls-6" x="548.69" y="64">r</tspan><tspan x="560.05" y="64">ega</tspan><tspan class="cls-2" x="632.01" y="64">t</tspan><tspan class="cls-11" x="642.29" y="64">e</tspan><tspan class="cls-12" x="664.69" y="64">s, </tspan><tspan x="48.24" y="128">p</tspan><tspan class="cls-2" x="72.88" y="128">r</tspan><tspan class="cls-10" x="84.24" y="128">o</tspan><tspan class="cls-4" x="107.72" y="128">v</tspan><tspan class="cls-13" x="127.6" y="128">idi</tspan><tspan class="cls-5" x="172.36" y="128">n</tspan><tspan x="194.56" y="128">g </tspan><tspan class="cls-14" x="233.04" y="128">s</tspan><tspan x="248.68" y="128">tructu</tspan><tspan class="cls-2" x="349.72" y="128">r</tspan><tspan x="361.08" y="128">al support a</tspan><tspan class="cls-10" x="582.79" y="128">n</tspan><tspan x="604.99" y="128">d </tspan><tspan class="cls-10" x="105.58" y="192">h</tspan><tspan x="127.82" y="192">abi</tspan><tspan class="cls-2" x="187.22" y="192">t</tspan><tspan x="197.5" y="192">at </tspan><tspan class="cls-2" x="247.06" y="192">f</tspan><tspan x="257.34" y="192">or </tspan><tspan class="cls-15" x="307.38" y="192">s</tspan><tspan x="323.58" y="192">oil o</tspan><tspan class="cls-2" x="404.62" y="192">r</tspan><tspan x="415.97" y="192">ganis</tspan><tspan class="cls-16" x="514.49" y="192">m</tspan><tspan x="549.73" y="192">s.</tspan></text><text class="cls-17" transform="translate(76.48 34)">p<tspan class="cls-18" x="24.68" y="0">h</tspan><tspan class="cls-2" x="47.28" y="0">y</tspan><tspan x="68.2" y="0">sical </tspan><tspan class="cls-19" x="165.36" y="0">s</tspan><tspan class="cls-12" x="182.72" y="0">tructu</tspan><tspan class="cls-6" x="288" y="0">r</tspan><tspan x="300.92" y="0">e: “the bon</tspan><tspan class="cls-2" x="505.43" y="0">e</tspan><tspan x="527.07" y="0">s</tspan><tspan class="cls-20" x="544.83" y="0">”</tspan></text><path class="cls-21" d="M283.56,259.06c13.2,6.89,28.56,4.4,28.45-15.43-.1-18.65-24-18.35-37.3-18.47-14.92-.14-27.83,7.32-11.7,21.71,5.12,4.56,14.6,8.71,20.55,12.19"/><path class="cls-21" d="M282,148.23c-6.06-2.78-20.25,2.26-27.16,8.36-6.53,5.75-14.33,16.75-11.45,26,3.87,7.84,16.22,8.14,28,8.64,14.55.62,30.21-4.69,44.35-2.1,14.31,2.62,30.78,11,45.79,3.24,24.67-12.76,1.44-30-14.4-34.36-20.33-5.6-48,1.29-65.12-9.76"/><path class="cls-21" d="M553.32,318.42c19.85-8.06,32.65-7.62,35.47-30.7,2.12-17.29,7.43-30.28-10.17-43-14.48-10.47-45.93-8.45-61.32-2.29-15.24,6.09-20.59,16.76-20,32.84.76,19,14.87,33.53,29.78,40.24,6.36,2.86,16.52,8.34,26.2,2.91"/><path class="cls-21" d="M362.73,263.21c-12.33,1.28-19.53,25.36-3.63,38.07,10.41,8.32,31,7.39,37-5.92,9.81-21.77-17.18-34.93-33.35-32.15"/><path class="cls-21" d="M443.73,199.38c-13.2-6.9-28.56-4.4-28.45,15.42.1,18.65,24,18.35,37.3,18.48,14.91.13,27.83-7.32,11.7-21.71-5.12-4.57-14.6-8.71-20.55-12.19"/><path class="cls-21" d="M272.67,298.34c-41.26,57.84,95.92,38.05,75.13-2.41-7.34-14.28-23.91-11.29-39.55-14.27-11.21-2.13-28.58-1-31.77,6.42-1.5,3.2-1.46,6.72-3.81,10.26"/><path class="cls-21" d="M60.71,151.38c13.63.52,26.74-3.84,34.86,9.8,5.41,9.08,11.57,23.92,11.58,34.3,0,24.53-22.58,28.87-39.5,23.53-10.71-3.38-17.83-8.62-26.06-15.22-8.74-7-25.75-12.69-31.77-22.84C-6,154.34,30.47,153.69,45,153c5.47-.27,9.9-1.75,15.69-1.59"/><path class="cls-21" d="M525.93,202.38c12-11.61,43.73-43.74,18.87-58.48-6.94-4.12-31.32-4.36-38.89,1-6.67,4.71-7.51,13.43-6.19,21.5s6.76,13.55,8.37,21.64-3.74,13.75,2.64,17.33c7,3.93,17.95-2.5,18.77-8.93"/><path class="cls-21" d="M660.78,189.91c26.28-15.5,18.19-58.19-14-58.36-21.11-.11-51.53,18.79-43.16,41.93,5.23,14.44,26.38,28.47,40.85,29,12.32.41,13.41-9.77,21.11-14.91"/><path class="cls-21" d="M447.89,279.85A31,31,0,0,0,435,278.57c-2.75.34-4.76,1.94-7.12,3.6-4.73,3.33-7.41,8.28-9.05,14.67-2.38,9.31,2.34,24.14,12.32,28.51,5.29,2.31,25.1,3.76,25-4.63a19.78,19.78,0,0,0-2-7.81,20.61,20.61,0,0,1-2.19-8.12c-.5-5.74,0-11.82.05-17.58.39-4.59-.27-5.77-4.1-7.36"/><path class="cls-21" d="M664,307.05c-13.64-.52-26.75,3.84-34.87-9.79-5.4-9.09-11.57-23.92-11.58-34.31,0-24.53,22.58-28.87,39.51-23.53,10.71,3.38,17.83,8.63,26.06,15.22,8.74,7,25.75,12.7,31.76,22.84,15.78,26.61-20.65,27.26-35.2,28-5.47.27-9.9,1.75-15.68,1.59"/><path class="cls-21" d="M167.54,140c-19.85,8-32.65,7.62-35.48,30.69-2.11,17.29-7.43,30.28,10.18,43,14.48,10.47,45.92,8.45,61.31,2.3,15.24-6.1,20.6-16.77,20-32.84-.75-19-14.86-33.53-29.77-40.24-6.36-2.87-16.53-8.34-26.2-2.91"/><path class="cls-21" d="M221.67,269.25c-12,11.61-43.74,43.73-18.87,58.48,6.94,4.12,31.31,4.36,38.89-1,6.67-4.71,7.5-13.44,6.18-21.5s-6.75-13.55-8.36-21.65,3.74-13.74-2.65-17.32c-7-3.93-17.94,2.5-18.76,8.93"/><path class="cls-21" d="M104.52,251.82c-22.2,13.1-15.36,49.15,11.85,49.29,17.83.09,43.52-15.87,36.45-35.41-4.41-12.19-22.27-24-34.49-24.46-10.41-.34-11.33,8.26-17.83,12.6"/><path class="cls-21" d="M459.76,144.67c41.26-57.84-95.92-38.06-75.12,2.41,7.33,14.27,23.9,11.28,39.54,14.26,11.21,2.13,28.58,1,31.77-6.42,1.5-3.19,1.46-6.71,3.81-10.25"/><path class="cls-22" d="M73.32,260.48c2.1-16.55-19.06-27.35-29.92-13.48-7.12,9.09-9.14,28.56,3.66,32.7,8,2.57,21.14-1.86,26.2-7.95,4.3-5.19.27-9.07.63-14.12"/><path class="cls-22" d="M266.76,233.4c-6.54-4.86-15-4.84-16.7,5.87-1.56,10.08,11.39,12,18.54,13.19,8,1.36,15.66-1.54,8.2-10.7-2.38-2.91-7.14-6-10-8.36"/><path class="cls-22" d="M262.7,141.12c-35.28,16.24,35.18,44.1,36.3,19.25.4-8.76-8.28-11.84-14.89-17.5-4.74-4.06-13.28-8.25-16.82-5.58-1.58,1.11-2.51,2.79-4.59,3.83"/><path class="cls-22" d="M365.55,154.5c-11.17-37.2-48.56,28.7-24.11,33.27,8.62,1.61,12.88-6.55,19.4-12.31,4.68-4.13,10-12,7.87-15.88-.88-1.72-2.41-2.88-3.16-5.08"/><path class="cls-22" d="M348.83,285.82c-3.57,5.77,4.43,16.94,15.24,14.33,7.09-1.72,13.57-10.92,9.83-18-6.13-11.53-20.85-4.27-25.07,3.64"/><path class="cls-22" d="M429.65,232.85c35.28-16.25-35.18-44.1-36.3-19.25-.4,8.76,8.28,11.84,14.89,17.5,4.73,4.06,13.28,8.25,16.82,5.58,1.58-1.11,2.51-2.79,4.59-3.83"/><path class="cls-22" d="M298.27,296c-11.61-1.57-17.56-5.25-25.16,4.93-5.7,7.63-11.75,12.35-6.85,23.17,4,8.9,19.5,16.48,28.47,17.74s14.33-2.36,18.39-10.17c4.8-9.22,2.05-19.94-3.2-27.18-2.24-3.08-5.58-8.44-11.65-8.49"/><path class="cls-22" d="M339.07,249.55c8.87-2.25,32.63-8.88,24.84-22.63-2.18-3.84-13.68-10.57-18.72-10.09-4.45.42-7.21,4.34-8.77,8.52s-.48,8.27-1.91,12.54-5.51,5.51-3.45,8.94c2.26,3.78,9.19,3.69,11.33.86"/><path class="cls-23" d="M344.93,236.79c-1.47-2.24-4.09-3.2-5.81-.09-1.62,2.94,2.15,5,4.22,6.18,2.32,1.33,5,1.29,3.74-2.38a25.15,25.15,0,0,0-2.15-3.71"/><path class="cls-22" d="M91.78,184c-6.2-2.74-16.15,6.73-12.06,17.08,2.68,6.77,12.69,11.92,19.15,7.23,10.57-7.67,1.34-21.24-7.09-24.31"/><path class="cls-22" d="M38.5,224.47C31.05,224.92,24.15,228,19,221c-3.43-4.65-7.57-12.4-8.13-18.05C9.56,189.6,21.63,186,31.12,188.05c6,1.27,10.17,3.74,15,6.89,5.12,3.34,14.68,5.54,18.49,10.74,10,13.64-9.78,15.93-17.66,17.09-3,.45-5.29,1.49-8.45,1.7"/><path class="cls-22" d="M89,177.54c-3.57,5.76,4.42,16.94,15.24,14.33,7.08-1.71,13.57-10.92,9.83-18-6.13-11.54-20.85-4.28-25.07,3.63"/><path class="cls-22" d="M487.22,171.74c-3.38,5.46,4.19,16,14.42,13.56,6.71-1.62,12.85-10.33,9.3-17-5.79-10.91-19.73-4.05-23.72,3.44"/><path class="cls-22" d="M424.81,285.56c-5.29-1.34-11.93,7.5-7.31,15.17,3,5,11.67,7.78,16.17,3.2,7.37-7.5-1.76-17.05-8.86-18.37"/><path class="cls-22" d="M439.29,304.26c1,9.09,4.25,33.55,18.95,27.74,4.1-1.62,12.37-12.07,12.59-17.13.21-4.47-3.28-7.75-7.21-9.88s-8.12-1.62-12.15-3.63-4.69-6.22-8.38-4.66c-4,1.72-4.93,8.59-2.43,11.1"/><path class="cls-22" d="M201.61,136.3c6.34,3.95,13.74,5.44,13.89,14.11.1,5.78-1,14.49-3.82,19.43-6.65,11.65-18.55,7.57-25.14.43-4.16-4.51-6.11-8.93-8.23-14.29-2.25-5.7-8.77-13-8.87-19.47-.26-16.91,17.2-7.32,24.3-3.72,2.67,1.36,5.17,1.86,7.87,3.51"/><path class="cls-22" d="M187.91,212c-1-9.09-4.26-33.55-19-27.74-4.1,1.62-12.37,12.07-12.6,17.14-.2,4.45,3.3,7.74,7.22,9.87s8.12,1.62,12.16,3.63,4.68,6.22,8.37,4.66c4.05-1.72,4.93-8.59,2.43-11.1"/><path class="cls-22" d="M130,177.25c-7.5,3.18-11.79,10.53-3.38,17.37,7.9,6.44,16.09-3.76,20.76-9.32,5.24-6.25,6.58-14.28-5.1-12.48-3.7.57-8.75,3.13-12.28,4.43"/><path class="cls-22" d="M121.5,246.64c-8.86,2.24-32.63,8.87-24.84,22.62,2.18,3.84,13.68,10.57,18.72,10.09,4.45-.42,7.21-4.33,8.78-8.52s.47-8.26,1.9-12.54,5.51-5.51,3.45-8.94c-2.26-3.77-9.19-3.69-11.33-.86"/><path class="cls-22" d="M192.45,292.27c-16.68.09-24.6,22.49-9.42,31.43,9.94,5.86,29.51,5.3,31.92-7.94,1.51-8.25-4.62-20.7-11.33-24.91-5.7-3.59-9,.92-14.07,1.23"/><path class="cls-22" d="M252.77,310.83c3.56-5.76-4.43-16.93-15.24-14.32-7.09,1.71-13.57,10.92-9.83,18,6.13,11.53,20.85,4.28,25.07-3.64"/><path class="cls-22" d="M456.51,133.35c11.18,37.2,48.57-28.71,24.11-33.27-8.62-1.61-12.88,6.55-19.4,12.31-4.68,4.13-10,12-7.87,15.88.88,1.72,2.42,2.88,3.16,5.08"/><path class="cls-22" d="M399.58,116c-2.12-3-10.22-4.42-15.16-3.4-4.66,1-11.35,4-12.49,9.22-.29,4.77,5.49,8.26,10.94,11.7,6.74,4.24,15.61,6,21.62,11s11.61,13.58,20.84,14c15.17.65,8.83-13.84,2.5-20.21-8.13-8.17-23.12-12.42-28.25-22.32"/><path class="cls-22" d="M583.08,269.42c7.67,2.73,15.8.21,14.23-10.51-1.47-10.09-14.4-8.11-21.6-7.16-8.08,1.06-14.51,6.08-4.68,12.64,3.12,2.08,8.57,3.6,12.05,5"/><path class="cls-22" d="M509.83,306.8c11.61,1.57,17.56,5.25,25.17-4.93,5.69-7.63,11.74-12.35,6.84-23.17-4-8.9-19.5-16.48-28.47-17.74S499,263.32,495,271.13c-4.8,9.22-2.05,19.94,3.2,27.18,2.24,3.08,5.58,8.44,11.65,8.49"/><path class="cls-22" d="M543.93,250.32c6.53,4.86,15,4.84,16.69-5.87,1.56-10.08-11.38-12-18.54-13.2-8-1.35-15.65,1.55-8.19,10.71,2.37,2.91,7.13,6,10,8.36"/><path class="cls-22" d="M558.6,323.63c16.69-.22,24.44-22.68,9.19-31.5-10-5.79-29.55-5.08-31.86,8.17-1.45,8.27,4.78,20.68,11.52,24.84,5.73,3.54,9-1,14.06-1.34"/><path class="cls-22" d="M647.05,186.45C645,203,666.11,213.8,677,199.93c7.11-9.09,9.13-28.56-3.67-32.7-8-2.58-21.14,1.87-26.19,8-4.31,5.18-.27,9.07-.63,14.11"/><path class="cls-22" d="M597.92,148c2.05-7.18,1.45-14.71,9.75-17.24,5.52-1.68,14.2-3,19.72-1.67,13,3.18,12.38,15.75,7.34,24-3.19,5.25-6.91,8.34-11.48,11.85-4.85,3.73-10.1,12-16.27,13.89-16.19,4.91-11.78-14.52-10.26-22.34.56-2.94.36-5.49,1.2-8.53"/><path class="cls-22" d="M684.9,310.14c6.2,2.74,16.15-6.74,12.06-17.08-2.68-6.78-12.7-11.92-19.16-7.23-10.56,7.67-1.33,21.24,7.1,24.31"/><path class="cls-22" d="M658,318.45c-6.33-3.94-13.74-5.44-13.89-14.11-.1-5.78,1-14.49,3.82-19.43,6.65-11.65,18.56-7.57,25.14-.43,4.16,4.51,6.12,8.93,8.23,14.3,2.25,5.69,8.77,13,8.87,19.46.26,16.91-17.2,7.33-24.3,3.72-2.67-1.36-5.17-1.86-7.87-3.51"/><path class="cls-22" d="M681.76,232.18c-2.12-3-10.23-4.42-15.16-3.4-4.66,1-11.35,4.05-12.49,9.22-.29,4.77,5.49,8.26,10.94,11.7,6.74,4.24,15.6,6,21.61,11s11.62,13.58,20.85,14c15.17.64,8.83-13.85,2.5-20.22-8.13-8.17-23.12-12.42-28.25-22.32"/><path class="cls-23" d="M55.47,253.05c1.9-1.16,1.2-5.62-2.35-6.45-2.34-.54-5.6,1.2-5.54,3.83.09,4.28,5.49,4.33,7.89,2.62"/><path class="cls-23" d="M55.58,272.74c2.8,1.11,10.4,3.92,11-1.24.16-1.45-1.61-5.45-3-6.29-1.27-.75-2.75-.24-4,.57s-1.71,2.11-2.92,3-2.53.41-2.64,1.72a2.56,2.56,0,0,0,2.85,2.41"/><path class="cls-23" d="M295.07,245.32c2.79,2.65,3.66,4.78,7.65,3.53,3-.93,5.51-1,6.28-4.85.64-3.15-2-8.15-4.17-10.21s-4.26-2.13-6.85-.83c-3.05,1.53-4.38,4.92-4.38,7.85,0,1.26-.14,3.33,1.47,4.51"/><path class="cls-23" d="M256.14,254.27c4.49,3.16,10.87-1.33,8.51-6.62-1.55-3.46-6.89-7-10.06-4-2,1.92-2.7,6.42-1.71,8.83.84,2,2.59,1.47,4,2.35"/><path class="cls-23" d="M270.18,233.91c-1.73,1.39-.48,5.73,3.16,6.11,2.38.24,5.39-1.9,5-4.5-.64-4.24-6-3.6-8.17-1.61"/><path class="cls-23" d="M285.52,247.83c-2.46,4.9,2.92,10.56,7.8,7.44,3.2-2,6-7.84,2.44-10.53-2.19-1.67-6.75-1.73-9-.4-1.9,1.14-1.07,2.78-1.73,4.31"/><path class="cls-23" d="M280.56,158.24c1.9-1.17,1.2-5.63-2.36-6.46-2.33-.54-5.59,1.2-5.54,3.82.1,4.3,5.5,4.34,7.9,2.64"/><path class="cls-23" d="M255.54,179.85c2.79,1.1,10.39,3.91,11-1.25.16-1.44-1.6-5.45-3-6.29-1.26-.74-2.75-.23-4,.58s-1.71,2.11-2.92,3-2.52.41-2.64,1.72a2.56,2.56,0,0,0,2.85,2.41"/><path class="cls-23" d="M282.41,176.21c-1.16.31-2.54,2.64-2.79,4.28s0,4,1.42,4.9c1.44.64,3.17-.74,4.85-2,2.08-1.59,3.63-4.13,5.88-5.4s5.51-2,6.68-4.82c1.93-4.6-3.26-4.31-5.94-3.08-3.45,1.57-6.47,5.7-10.1,6.15"/><path class="cls-23" d="M319.88,175c-.92-2.27-2.61-4.09-1-6.43a14.5,14.5,0,0,1,4.76-4.44c4-1.82,6.4,1.56,6.78,4.72a13.71,13.71,0,0,1-.56,5.4c-.5,2-.17,5.15-1.39,6.89-3.18,4.55-6-1.36-7.18-3.69-.45-.87-1-1.49-1.43-2.45"/><path class="cls-23" d="M352.08,179.13c-1.05,2.82-3.7,10.48,1.47,11,1.44.12,5.41-1.73,6.23-3.18.72-1.28.17-2.75-.66-4s-2.15-1.67-3-2.86-.46-2.52-1.77-2.61a2.57,2.57,0,0,0-2.36,2.91"/><path class="cls-23" d="M305.84,159.38c-2.79-2.65-3.66-4.78-7.65-3.53-3,.94-5.51,1-6.28,4.85-.64,3.15,2,8.14,4.17,10.21s4.26,2.12,6.85.83c3.05-1.53,4.38-4.92,4.38-7.86,0-1.25.14-3.32-1.47-4.5"/><path class="cls-23" d="M545.07,277.29c.32,3,1.37,11,6.21,9.13,1.35-.53,4.07-4,4.15-5.62.07-1.47-1.07-2.55-2.36-3.25s-2.67-.54-4-1.21-1.54-2-2.75-1.53a2.55,2.55,0,0,0-.81,3.64"/><path class="cls-23" d="M567.41,255.8c-2.59,2.85-4.7,3.77-3.37,7.73,1,3,1.13,5.48,5,6.18,3.16.58,8.1-2.19,10.12-4.37s2-4.32.7-6.87c-1.6-3-5-4.29-8-4.22-1.25,0-3.32-.07-4.47,1.55"/><path class="cls-23" d="M529.53,278.35c-2.08,1.69-2.75,4.41.54,5.78,3.09,1.3,4.72-2.67,5.68-4.85,1.07-2.46.76-5.12-2.76-3.47a25,25,0,0,0-3.46,2.54"/><path class="cls-23" d="M555.87,310.23c1.17,2.41,3.66,3.69,5.76.82,2-2.7-1.51-5.22-3.41-6.66-2.14-1.61-4.8-1.92-4,1.88a25.74,25.74,0,0,0,1.66,4"/><path class="cls-23" d="M579.51,290.61c1.17,2.41,3.65,3.69,5.75.82,2-2.7-1.5-5.22-3.4-6.66-2.14-1.61-4.8-1.92-4,1.88a23.9,23.9,0,0,0,1.66,4"/><path class="cls-23" d="M489.26,280.4c-1.05,2.81-3.7,10.47,1.47,10.94,1.44.13,5.41-1.72,6.23-3.17.72-1.28.18-2.76-.66-4s-2.14-1.68-3-2.86-.46-2.52-1.77-2.61a2.55,2.55,0,0,0-2.36,2.9"/><path class="cls-23" d="M509.48,261.84c-2.21,12.57,18.5-1.25,12-6.2-2.29-1.75-4.74,0-7.51.74-2,.52-4.71,2.05-4.65,3.5a10.76,10.76,0,0,1,.17,2"/><path class="cls-23" d="M510.62,288.78c-3.06,4.55,1.56,10.84,6.8,8.37,3.43-1.61,6.9-7,3.75-10.13-2-1.94-6.48-2.58-8.86-1.54-2,.89-1.42,2.62-2.27,4.06"/><path class="cls-23" d="M548.62,244.09c-1.13-1.92-5.6-1.32-6.5,2.23-.59,2.32,1.09,5.62,3.71,5.61,4.29,0,4.44-5.4,2.79-7.84"/><path class="cls-23" d="M376.93,270.31c-1.16.32-2.53,2.65-2.78,4.29s0,4,1.41,4.9c1.44.63,3.18-.75,4.86-2,2.07-1.59,3.62-4.12,5.87-5.39s5.51-2,6.68-4.83c1.94-4.6-3.25-4.3-5.94-3.08-3.45,1.57-6.46,5.7-10.1,6.15"/><path class="cls-23" d="M386,286.69c-2.79-2.66-3.67-4.78-7.65-3.54-3,.94-5.5,1-6.28,4.86-.64,3.14,2,8.14,4.17,10.2s4.26,2.13,6.85.83c3.05-1.53,4.38-4.91,4.38-7.85,0-1.26.13-3.32-1.47-4.5"/><path class="cls-23" d="M364.31,262c-1.13-1.93-5.6-1.32-6.5,2.23-.6,2.31,1.08,5.61,3.7,5.61,4.3,0,4.45-5.4,2.8-7.84"/><path class="cls-23" d="M459.23,218.27c-1.2,0-3.11,1.93-3.75,3.45s-1,3.83.15,5.1c1.23,1,3.26.07,5.21-.76,2.4-1,4.53-3.1,7-3.78s5.84-.59,7.67-3c3-4-2.09-5-5-4.46-3.72.67-7.67,3.92-11.31,3.46"/><path class="cls-23" d="M413.05,218.76c-2.43,1.12-3.76,3.58-.93,5.74,2.66,2,5.24-1.4,6.72-3.27,1.66-2.11,2-4.76-1.8-4a26.06,26.06,0,0,0-4,1.58"/><path class="cls-23" d="M455.49,198.35C451,195.2,444.62,199.69,447,205c1.55,3.47,6.9,7,10.06,4,2-1.93,2.71-6.43,1.72-8.83-.85-2-2.6-1.47-4-2.35"/><path class="cls-23" d="M439.93,209.58c.93,2.27,2.61,4.09,1,6.43a14.37,14.37,0,0,1-4.75,4.44c-4,1.82-6.4-1.56-6.78-4.72a13.66,13.66,0,0,1,.56-5.39c.49-2,.16-5.16,1.38-6.89,3.18-4.56,6,1.35,7.19,3.68.45.88,1,1.49,1.42,2.45"/><path class="cls-23" d="M293.21,301.41c0-2.68-1.61-4.94-4.78-3.31-3,1.53-1,5.33.06,7.47,1.18,2.4,3.43,3.87,4.43.12a26.39,26.39,0,0,0,.29-4.28"/><path class="cls-23" d="M266.61,332.86c0,1.2,1.87,3.15,3.38,3.83s3.8,1.1,5.1-.05c1-1.22.13-3.26-.66-5.22-1-2.43-3-4.6-3.63-7.11s-.48-5.85-2.86-7.73c-3.92-3.09-5,2-4.56,4.9.59,3.75,3.77,7.76,3.23,11.38"/><path class="cls-23" d="M314,296.26c2.11-1.25,3.66-3.18,6.22-1.91a14.24,14.24,0,0,1,5.08,4c2.39,3.7-.6,6.56-3.67,7.4a13.83,13.83,0,0,1-5.42.24c-2-.21-5.13.58-7-.37-5-2.48.47-6.12,2.59-7.65.8-.57,1.33-1.22,2.22-1.76"/><path class="cls-23" d="M324.23,314.22c-1.13-1.93-5.6-1.32-6.5,2.22-.6,2.32,1.08,5.62,3.7,5.61,4.3,0,4.45-5.4,2.8-7.83"/><path class="cls-23" d="M304,277.87c-4.49-3.15-10.87,1.33-8.51,6.62,1.54,3.46,6.89,7,10.06,3.95,2-1.92,2.7-6.42,1.71-8.83-.85-2-2.59-1.47-4-2.35"/><path class="cls-23" d="M313.7,328.22c-2.79-2.65-3.66-4.77-7.65-3.53-3,.94-5.5,1-6.28,4.85-.64,3.15,2,8.15,4.17,10.21s4.27,2.13,6.85.83c3.06-1.53,4.39-4.92,4.38-7.85,0-1.26.14-3.33-1.47-4.51"/><path class="cls-23" d="M344.58,228.91c1.12,1.92,5.6,1.32,6.5-2.23.59-2.32-1.09-5.62-3.71-5.61-4.29,0-4.44,5.4-2.79,7.84"/><path class="cls-23" d="M363.71,227.86c2.43-1.12,3.76-3.58.93-5.74-2.66-2-5.24,1.4-6.72,3.27-1.66,2.11-2,4.76,1.8,4.05a25.08,25.08,0,0,0,4-1.58"/><path class="cls-23" d="M82.19,206.46c1.9-1.17,1.21-5.63-2.35-6.45-2.34-.55-5.6,1.19-5.54,3.81.09,4.29,5.49,4.34,7.89,2.64"/><path class="cls-23" d="M81.27,176.43c2.07-1.69,2.75-4.4-.54-5.78-3.09-1.3-4.72,2.67-5.68,4.85C74,178,74.3,180.62,77.81,179a24.77,24.77,0,0,0,3.46-2.54"/><path class="cls-23" d="M58.66,203.06c3.06-4.55-1.56-10.84-6.79-8.37-3.43,1.61-6.9,7-3.75,10.14,2,1.93,6.48,2.57,8.86,1.53,2-.89,1.42-2.62,2.27-4.05"/><path class="cls-23" d="M30.79,189.69c3.06-4.55-1.55-10.84-6.79-8.38-3.43,1.62-6.9,7-3.75,10.14,2,1.94,6.48,2.58,8.86,1.53,2-.88,1.42-2.62,2.27-4"/><path class="cls-23" d="M50.71,182.13c-2.25,1-4,2.69-6.41,1.11a14.45,14.45,0,0,1-4.54-4.67c-1.9-4,1.43-6.43,4.59-6.87a13.73,13.73,0,0,1,5.4.45c2,.46,5.16.07,6.92,1.24,4.62,3.1-1.24,6-3.54,7.26-.87.47-1.47,1.06-2.42,1.48"/><path class="cls-23" d="M70.32,223.68c2.79,1.11,10.39,3.92,11-1.25.15-1.44-1.61-5.44-3.05-6.29-1.26-.74-2.75-.23-4,.58s-1.72,2.11-2.93,3-2.52.4-2.64,1.71a2.55,2.55,0,0,0,2.86,2.41"/><path class="cls-23" d="M53.77,167.3c-2.21,3.15-4.19,4.33-2.37,8.09,1.36,2.82,1.83,5.29,5.72,5.5,3.21.17,7.76-3.19,9.48-5.62s1.48-4.53-.18-6.9c-2-2.79-5.5-3.61-8.41-3.18-1.24.19-3.3.35-4.24,2.11"/><path class="cls-23" d="M29.91,170.34c1.46,2.24,4.08,3.2,5.81.08,1.62-2.93-2.15-5-4.22-6.16-2.33-1.33-5-1.3-3.74,2.37a25.15,25.15,0,0,0,2.15,3.71"/><path class="cls-23" d="M71.36,157.21c-2.43-.25-4.83.38-6.13-2.15a14.28,14.28,0,0,1-1.69-6.28c.27-4.4,4.37-4.93,7.34-3.78a13.72,13.72,0,0,1,4.51,3c1.48,1.35,4.47,2.57,5.43,4.45,2.53,5-4,4.66-6.63,4.62-1,0-1.79.2-2.83.11"/><path class="cls-23" d="M103.65,169.05c2.46-4.9-2.92-10.56-7.8-7.45-3.2,2-5.95,7.85-2.44,10.53,2.2,1.67,6.75,1.74,9,.4,1.9-1.13,1.07-2.78,1.74-4.31"/><path class="cls-23" d="M614,153.9c-1.9,1.16-1.21,5.62,2.35,6.45,2.33.54,5.6-1.2,5.54-3.82-.1-4.29-5.49-4.33-7.89-2.63"/><path class="cls-23" d="M618.86,189.82c-1.9,1.16-1.2,5.62,2.36,6.46,2.33.54,5.6-1.2,5.54-3.83-.1-4.28-5.49-4.33-7.9-2.63"/><path class="cls-23" d="M669.57,186.54c-1.9,1.16-1.2,5.62,2.36,6.45,2.33.54,5.6-1.2,5.54-3.82-.1-4.29-5.49-4.33-7.9-2.63"/><path class="cls-23" d="M541.13,169c-2.07,1.69-2.75,4.41.54,5.78,3.09,1.3,4.73-2.67,5.68-4.85,1.08-2.46.76-5.12-2.76-3.47a25.6,25.6,0,0,0-3.46,2.54"/><path class="cls-23" d="M641.42,182.65c-2.24,1.45-3.21,4.07-.11,5.81,2.92,1.64,5-2.12,6.2-4.19,1.34-2.31,1.32-5-2.36-3.75a25.73,25.73,0,0,0-3.73,2.13"/><path class="cls-23" d="M499.51,167.09c-1.12-1.92-5.59-1.31-6.5,2.23-.59,2.32,1.09,5.62,3.71,5.61,4.29,0,4.45-5.4,2.79-7.84"/><path class="cls-23" d="M512.13,189.61c-1.13-1.92-5.6-1.31-6.5,2.23-.59,2.32,1.08,5.62,3.71,5.62,4.29,0,4.44-5.41,2.79-7.85"/><path class="cls-23" d="M668.55,149.75c-2.79-1.11-10.4-3.92-11,1.25-.16,1.44,1.61,5.44,3,6.29,1.27.74,2.76.23,4-.58s1.72-2.11,2.93-3,2.52-.4,2.63-1.71a2.54,2.54,0,0,0-2.85-2.41"/><path class="cls-23" d="M522.9,165.21c0-1.2-1.87-3.15-3.38-3.83s-3.8-1.1-5.1.05c-1,1.22-.13,3.26.66,5.23,1,2.42,3,4.59,3.63,7.1s.48,5.85,2.86,7.73c3.92,3.09,5-2,4.56-4.9-.59-3.74-3.77-7.76-3.23-11.38"/><path class="cls-23" d="M642.17,150.49c.92,2.27,2.61,4.1,1,6.44a14.47,14.47,0,0,1-4.76,4.43c-4,1.83-6.39-1.55-6.77-4.72a13.66,13.66,0,0,1,.55-5.39c.5-1.95.17-5.15,1.39-6.89,3.18-4.56,6,1.36,7.19,3.69.45.87,1,1.49,1.42,2.44"/><path class="cls-23" d="M525.2,155.79c-2.11,1.25-3.67,3.18-6.22,1.91a14.37,14.37,0,0,1-5.09-4c-2.39-3.7.61-6.56,3.68-7.4A13.82,13.82,0,0,1,523,146c2,.21,5.12-.58,7,.36,5,2.49-.46,6.13-2.59,7.65-.8.58-1.32,1.23-2.21,1.77"/><path class="cls-23" d="M435.29,312.05c-3.06,4.55,1.55,10.84,6.79,8.38,3.43-1.62,6.9-7,3.75-10.14-2-1.94-6.48-2.57-8.86-1.53-2,.88-1.42,2.62-2.27,4.05"/><path class="cls-23" d="M453.59,272c-2.79-2.66-3.67-4.78-7.66-3.53-3,.93-5.5,1-6.28,4.85-.64,3.14,2,8.14,4.17,10.2s4.27,2.13,6.85.84c3.06-1.54,4.39-4.92,4.38-7.86,0-1.26.14-3.32-1.46-4.5"/><path class="cls-23" d="M644.07,284c2.25-1,4-2.7,6.41-1.11a14.29,14.29,0,0,1,4.53,4.66c1.9,4-1.42,6.43-4.58,6.87a13.78,13.78,0,0,1-5.41-.45c-1.95-.45-5.15-.06-6.91-1.24-4.62-3.09,1.24-6,3.54-7.26.86-.47,1.47-1.05,2.42-1.47"/><path class="cls-23" d="M689.4,282.73c-12.53-2.46.88,18.52,6,12.12,1.79-2.26.07-4.75-.6-7.53-.48-2-2-4.75-3.4-4.72a11,11,0,0,1-2,.13"/><path class="cls-23" d="M661,271.08c2.22-3.15,4.19-4.33,2.37-8.09-1.36-2.81-1.82-5.29-5.72-5.5-3.2-.17-7.76,3.19-9.48,5.62s-1.48,4.53.18,6.9c2,2.79,5.51,3.62,8.41,3.18,1.24-.19,3.31-.35,4.24-2.11"/><path class="cls-23" d="M684.11,270.41c-1.46-2.24-4.09-3.2-5.81-.08-1.63,2.93,2.15,5,4.22,6.17,2.32,1.33,5,1.3,3.74-2.37a24.74,24.74,0,0,0-2.15-3.72"/><path class="cls-23" d="M634.59,264.45c2.11-1.64,2.85-4.34-.4-5.8-3.06-1.37-4.79,2.57-5.8,4.73-1.13,2.43-.87,5.09,2.68,3.53a24.73,24.73,0,0,0,3.52-2.46"/><path class="cls-23" d="M678.49,249.24c1.83-1.63,3-3.82,5.74-3.06a14.43,14.43,0,0,1,5.77,3c3,3.18.66,6.56-2.2,8a13.81,13.81,0,0,1-5.28,1.27c-2,.18-4.91,1.55-6.95,1-5.36-1.49-.72-6.1,1.08-8,.68-.72,1.07-1.46,1.84-2.16"/><path class="cls-23" d="M192.7,196.19c2.6-2.85,4.71-3.76,3.38-7.72-1-3-1.14-5.49-5-6.19-3.16-.57-8.1,2.19-10.12,4.38s-2,4.31-.69,6.86c1.59,3,5,4.29,7.94,4.22,1.26,0,3.32.08,4.47-1.55"/><path class="cls-23" d="M199.76,211.75c1.9-1.16,1.21-5.62-2.35-6.45-2.34-.54-5.6,1.2-5.54,3.82.09,4.29,5.49,4.33,7.89,2.63"/><path class="cls-23" d="M203.3,157.7c1.9-1.16,1.2-5.62-2.36-6.45-2.33-.55-5.6,1.2-5.54,3.82.1,4.29,5.49,4.33,7.9,2.63"/><path class="cls-23" d="M150.52,192.75c-1.17-2.4-3.65-3.69-5.76-.81-2,2.7,1.51,5.21,3.41,6.65,2.14,1.62,4.8,1.92,4-1.88a25.74,25.74,0,0,0-1.66-4"/><path class="cls-23" d="M187.4,148.46c1-2.82,3.7-10.48-1.47-11-1.45-.12-5.42,1.72-6.23,3.18-.72,1.28-.18,2.75.66,4s2.14,1.67,3,2.86.46,2.52,1.77,2.6a2.54,2.54,0,0,0,2.35-2.9"/><path class="cls-23" d="M222.45,191.7c2.21-12.57-18.5,1.25-12,6.2,2.29,1.75,4.75,0,7.51-.74,2-.52,4.71-2,4.65-3.5a10.76,10.76,0,0,1-.17-2"/><path class="cls-23" d="M155,176.1c12.52,2.46-.88-18.52-6-12.12-1.79,2.26-.07,4.75.6,7.53.48,2,2,4.75,3.4,4.72a10.13,10.13,0,0,1,2-.13"/><path class="cls-23" d="M161.29,158.42c-1.73,1.4-.48,5.73,3.16,6.11,2.38.24,5.4-1.9,5-4.49-.64-4.25-6-3.61-8.17-1.62"/><path class="cls-23" d="M135.85,180.34c-2.13-.64-5,2.85-3.24,6.06,1.15,2.1,4.63,3.37,6.54,1.59,3.14-2.93-.42-7-3.3-7.65"/><path class="cls-23" d="M171.35,186.6c-2.26,1-4,2.69-6.41,1.11A14.35,14.35,0,0,1,160.4,183c-1.9-4,1.43-6.43,4.58-6.87a13.78,13.78,0,0,1,5.41.45c2,.46,5.15.06,6.91,1.24,4.62,3.1-1.23,6-3.54,7.26-.86.47-1.47,1.06-2.41,1.48"/><path class="cls-23" d="M129.37,296.82c1.37-.84.87-4.06-1.7-4.66-1.68-.39-4,.87-4,2.76.07,3.1,4,3.13,5.7,1.9"/><path class="cls-23" d="M107.53,294.06c1.9-1.16,1.2-5.62-2.36-6.46-2.33-.54-5.59,1.2-5.54,3.83.1,4.29,5.49,4.33,7.9,2.63"/><path class="cls-23" d="M144.6,273c0-2.67-1.61-4.93-4.78-3.31-3,1.53-1,5.34.06,7.48,1.19,2.4,3.43,3.87,4.43.11a24.31,24.31,0,0,0,.29-4.28"/><path class="cls-23" d="M132.12,266.84c-2.25,1-4,2.7-6.41,1.12a14.41,14.41,0,0,1-4.53-4.67c-1.91-4,1.42-6.43,4.58-6.87a13.71,13.71,0,0,1,5.4.45c2,.46,5.16.07,6.92,1.24,4.62,3.1-1.24,6-3.54,7.26-.87.47-1.47,1.06-2.42,1.47"/><path class="cls-23" d="M204,292.4c-2.36-.67-4.83-.47-5.67-3.2a14.34,14.34,0,0,1-.56-6.48c1-4.28,5.17-4.08,7.9-2.42a13.76,13.76,0,0,1,3.9,3.77c1.22,1.59,3.95,3.31,4.57,5.33,1.62,5.32-4.77,3.88-7.34,3.39-1-.19-1.8-.12-2.8-.39"/><path class="cls-23" d="M216.21,275.8c2.79,1.1,10.4,3.91,11-1.25.16-1.44-1.61-5.45-3-6.29-1.27-.75-2.76-.23-4,.58s-1.72,2.11-2.92,3-2.53.41-2.64,1.72a2.55,2.55,0,0,0,2.85,2.41"/><path class="cls-23" d="M113.38,287.54c12.52,2.46-.88-18.52-6-12.12-1.8,2.26-.08,4.75.59,7.53.48,2,1.95,4.75,3.41,4.73a9.27,9.27,0,0,1,2-.14"/><path class="cls-23" d="M142.49,288.6c1.47,2.24,4.09,3.2,5.82.09,1.62-2.94-2.15-5-4.23-6.18-2.32-1.33-5-1.29-3.74,2.38a26.07,26.07,0,0,0,2.15,3.71"/><path class="cls-23" d="M242.26,323.47c1.2,0,3.11-1.94,3.76-3.46s1-3.82-.16-5.1c-1.23-1-3.26-.06-5.21.77-2.4,1-4.53,3.1-7,3.77s-5.84.6-7.68,3c-3,4,2.09,5,5,4.46,3.73-.67,7.68-3.93,11.31-3.46"/><path class="cls-23" d="M196,313.69c-.53.33-.53,1.7-.14,2.55a4,4,0,0,0,2.32,2.23c1,.1,1.48-.84,2-1.74.62-1.1.64-2.6,1.46-3.57s2.33-1.83,2.07-3.4c-.42-2.59-3.13-1.66-4.19-.65-1.36,1.3-1.68,3.81-3.5,4.58"/><path class="cls-23" d="M409.88,124.34c-1.9,1.17-1.21,5.63,2.36,6.46,2.33.54,5.59-1.2,5.53-3.83-.09-4.28-5.49-4.33-7.89-2.63"/><path class="cls-23" d="M455.63,122.34c-2.8-1.11-10.4-3.92-11,1.25-.16,1.43,1.6,5.44,3,6.29,1.27.74,2.75.23,4-.58s1.71-2.11,2.92-3,2.52-.4,2.64-1.71a2.57,2.57,0,0,0-2.85-2.42"/><path class="cls-23" d="M450.45,151.94c1.74-1.39.48-5.73-3.16-6.1-2.38-.25-5.39,1.89-5,4.49.63,4.24,6,3.6,8.16,1.61"/><path class="cls-23" d="M436.71,129.05c2.46-4.89-2.91-10.55-7.8-7.44-3.19,2-6,7.85-2.43,10.53,2.19,1.67,6.75,1.73,9,.4,1.9-1.14,1.08-2.78,1.74-4.31"/><path class="cls-23" d="M440,151.13c-2.11,1.25-3.67,3.18-6.22,1.91a14.39,14.39,0,0,1-5.09-4c-2.39-3.7.6-6.56,3.68-7.4a13.77,13.77,0,0,1,5.41-.24c2,.21,5.13-.58,7,.36,5,2.49-.47,6.13-2.59,7.65-.8.58-1.33,1.23-2.21,1.77"/><path class="cls-23" d="M402.47,149.13c.69-2.93,2.36-10.86-2.84-10.67-1.45,0-5.15,2.39-5.77,3.93-.55,1.36.17,2.76,1.15,3.85s2.34,1.39,3.37,2.45.78,2.44,2.09,2.36a2.54,2.54,0,0,0,2-3.17"/><path class="cls-23" d="M380.86,117.71c-.68,2.92-2.35,10.85,2.85,10.67,1.44-.06,5.15-2.4,5.77-3.94.55-1.36-.17-2.76-1.15-3.85s-2.34-1.38-3.37-2.45-.78-2.44-2.09-2.36a2.54,2.54,0,0,0-2,3.17"/></g></g></svg>