<svg xmlns="http://www.w3.org/2000/svg" xmlns:xlink="http://www.w3.org/1999/xlink" viewBox="0 0 795.08 664.37"><defs><style>.cls-1,.cls-16,.cls-17{fill:none;}.cls-2{clip-path:url(#clip-path);}.cls-3{font-size:40px;fill:#ffce01;font-family:Acre-Semibold, Acre;font-weight:600;}.cls-4{letter-spacing:-0.02em;}.cls-15,.cls-5{fill:#5c5052;}.cls-5{font-family:Acre-Light, Acre;font-weight:300;}.cls-6{letter-spacing:-0.01em;}.cls-7{letter-spacing:-0.01em;}.cls-8{letter-spacing:-0.01em;}.cls-9{letter-spacing:-0.01em;}.cls-10{letter-spacing:-0.02em;}.cls-11{letter-spacing:0em;}.cls-12{letter-spacing:-0.02em;}.cls-13{letter-spacing:-0.03em;}.cls-14{letter-spacing:-0.07em;}.cls-16,.cls-17{stroke:#fff;stroke-width:1.83px;}.cls-16{stroke-linecap:round;stroke-linejoin:round;}.cls-17{stroke-miterlimit:10;}.cls-18{fill:#3daaa1;}</style><clipPath id="clip-path" transform="translate(26.52 -17.21)"><rect class="cls-1" width="720" height="681"/></clipPath></defs><g id="Layer_2" data-name="Layer 2"><g id="Layer_6" data-name="Layer 6"><g class="cls-2"><text class="cls-3" transform="translate(107.79 34)">p<tspan class="cls-4" x="24.68" y="0">rot</tspan><tspan x="72.64" y="0">ection: &quot;the skin and hair&quot;</tspan><tspan class="cls-5"><tspan x="-15.56" y="64">plan</tspan><tspan class="cls-6" x="65.6" y="64">t</tspan><tspan x="76.28" y="64">s p</tspan><tspan class="cls-4" x="131.04" y="64">r</tspan><tspan class="cls-7" x="142.4" y="64">o</tspan><tspan class="cls-8" x="165.88" y="64">v</tspan><tspan x="185.76" y="64">ide p</tspan><tspan class="cls-4" x="281.52" y="64">r</tspan><tspan class="cls-9" x="292.88" y="64">o</tspan><tspan class="cls-10" x="316.44" y="64">t</tspan><tspan x="326.72" y="64">ection </tspan><tspan class="cls-4" x="452.24" y="64">f</tspan><tspan x="462.52" y="64">or t</tspan><tspan class="cls-7" x="523.64" y="64">h</tspan><tspan x="545.88" y="64">e </tspan><tspan class="cls-11" x="26.68" y="128">s</tspan><tspan x="42.88" y="128">oil, </tspan><tspan class="cls-12" x="106.48" y="128">h</tspan><tspan x="128.72" y="128">oldi</tspan><tspan class="cls-7" x="196.56" y="128">n</tspan><tspan x="218.76" y="128">g it in place a</tspan><tspan class="cls-12" x="479.36" y="128">n</tspan><tspan x="501.56" y="128">d </tspan><tspan class="cls-13" x="0.52" y="192">k</tspan><tspan x="18.44" y="192">eepi</tspan><tspan class="cls-7" x="98.32" y="192">n</tspan><tspan x="120.52" y="192">g it f</tspan><tspan class="cls-4" x="205" y="192">r</tspan><tspan x="216.36" y="192">om bl</tspan><tspan class="cls-7" x="322.92" y="192">o</tspan><tspan class="cls-8" x="346.4" y="192">w</tspan><tspan x="378.03" y="192">i</tspan><tspan class="cls-7" x="388.07" y="192">n</tspan><tspan x="410.27" y="192">g a</tspan><tspan class="cls-7" x="473.43" y="192">w</tspan><tspan x="504.67" y="192">a</tspan><tspan class="cls-14" x="529.35" y="192">y</tspan><tspan x="546.11" y="192">.</tspan></tspan></text><rect class="cls-15" x="26.47" y="431.91" width="719.97" height="231.55"/><path class="cls-16" d="M141.32,447.48s-9.25,15.71-4,42,1.16,42.6,1.16,42.6-2.49,11.36,2.8,16.33,25.08,14.2,25.08,14.2,23.43,13.84,27.39,47.21,12.87,32,12.87,32" transform="translate(26.52 -17.21)"/><path class="cls-16" d="M93.79,652.74c4.62-8.87,21.79-16,21.79-16s6.6-4.26,9.89-34.43a167.47,167.47,0,0,1,15.85-54s.66,24.85,19.58,40.47S181.58,617,181.58,617" transform="translate(26.52 -17.21)"/><path class="cls-16" d="M105.23,662s7.26-18.22,13.42-29.71c0,0,7,7.34,3.08,17.11s-.43,31.3-.43,31.3" transform="translate(26.52 -17.21)"/><path class="cls-16" d="M152.53,654.87s-3.11-16.82-21.78-26.5c-9.57-5-6.66-15.83-6.66-15.83" transform="translate(26.52 -17.21)"/><path class="cls-16" d="M138.35,454.87S113.59,465,102.6,482.59c-6.12,9.76-11,8.52-11,8.52s-19.14.71-52.14,57.27c0,0-7,9.35-13.64,13.84C1.06,578.9-4.55,663-4.55,663" transform="translate(26.52 -17.21)"/><path class="cls-16" d="M139.66,505.84s-22.44,6-25.57,28-23.6,17-23.6,17S82.9,547.67,71,568.26" transform="translate(26.52 -17.21)"/><path class="cls-16" d="M140,513.6S165,539.42,160.9,571.77s20.68,71.74,20.68,71.74" transform="translate(26.52 -17.21)"/><path class="cls-16" d="M136.82,486.53s50.06,24.85,72.15,66.82c21.78,41.4,16.17,78.91,16.17,78.91" transform="translate(26.52 -17.21)"/><path class="cls-16" d="M150.23,447.48s26.72,5.77,33.32,17.13,23.11,21.92,23.11,21.92,11.69,10.73,12.54,24.94a19.4,19.4,0,0,0,9.9,15.61s33,23.08,0,100.46" transform="translate(26.52 -17.21)"/><path class="cls-16" d="M222.23,520.64s-2.58,7.15,0,13.54,5.54,19.17,5.54,19.17-1.31,9.23,11.89,14.91" transform="translate(26.52 -17.21)"/><path class="cls-16" d="M206.66,447.48a32.77,32.77,0,0,0,14.42,28.84c31.77,21.61,20.41,72.06,20.41,72.06" transform="translate(26.52 -17.21)"/><path class="cls-16" d="M233.06,447.57s2.84,11.35,20.45,23.43c50.83,34.84,49.84,100.77,49.84,100.77s-1.32,17.79,10.88,28.79" transform="translate(26.52 -17.21)"/><path class="cls-16" d="M229.1,447.48a32.79,32.79,0,0,0,4,23.16c6.92,11.36,8.37,37.68,8.37,37.68" transform="translate(26.52 -17.21)"/><path class="cls-16" d="M134.57,564.22s-11.08,2.26-18.34,10.78a31.4,31.4,0,0,1-15.84,10.3S81.58,596.3,77.62,607s-18.15,11-18.15,11" transform="translate(26.52 -17.21)"/><path class="cls-16" d="M133.15,568.26s-4.71,21.65,23.68,25.91" transform="translate(26.52 -17.21)"/><path class="cls-16" d="M136.05,480.58s-12.56.54-16.19,5.95a10.61,10.61,0,0,1-8.91,5.06s-12.87,3.31-15.84,14.25" transform="translate(26.52 -17.21)"/><path class="cls-16" d="M79.6,447.48s-22.44,14.29-22.44,28.84-8.58,32-8.58,32-4.62,8.47,4,23.73c0,0,3.29,4.62-3.31,23.43s.33,37.63.33,38.69,4,7.28,1,18.37" transform="translate(26.52 -17.21)"/><path class="cls-16" d="M39.34,447.48s-11,59.2,7,100.9C59.47,578.56,36,596.66,36,596.66" transform="translate(26.52 -17.21)"/><path class="cls-16" d="M51.55,447.48s-5.88,27.94,2.11,47.93" transform="translate(26.52 -17.21)"/><path class="cls-16" d="M138.52,532.05s.15,6.74,11.71,7.46a37.28,37.28,0,0,1,19.46,7.09s12.87,8.17,22.45,8.52" transform="translate(26.52 -17.21)"/><path class="cls-16" d="M242.2,544.45s1.42,8.19,5,10.67,6.27,18.11,6.27,18.11,1,12.78,10.9,27.33,13.2,35.85,13.2,35.85" transform="translate(26.52 -17.21)"/><path class="cls-16" d="M301.7,447.57s4.62,50.67-17.82,73.07-25.42,43.58-25.42,43.58-6.35,12.07-10.55,18.95c-8.25,13.49,5.93,37.62,5.93,37.62" transform="translate(26.52 -17.21)"/><path class="cls-16" d="M354.88,445s9.41,15.71,4,42-1.18,42.61-1.18,42.61,2.53,11.35-2.85,16.32-25.53,14.2-25.53,14.2-23.84,13.84-27.88,47.21-13.1,32-13.1,32" transform="translate(26.52 -17.21)"/><path class="cls-16" d="M403.26,650.26c-4.71-8.87-22.18-16-22.18-16S374.36,630,371,599.86a165.56,165.56,0,0,0-16.13-54s-.68,24.85-19.93,40.47-21.05,28.16-21.05,28.16" transform="translate(26.52 -17.21)"/><path class="cls-16" d="M391.61,659.49s-7.39-18.22-13.65-29.7c0,0-7.17,7.34-3.14,17.1s.44,31.29.44,31.29" transform="translate(26.52 -17.21)"/><path class="cls-16" d="M343.46,652.39s3.17-16.82,22.17-26.5c9.75-5,6.79-15.83,6.79-15.83" transform="translate(26.52 -17.21)"/><path class="cls-16" d="M357.91,452.39s25.19,10.17,36.39,27.72c6.22,9.76,11.2,8.52,11.2,8.52s19.48.71,53.07,57.27c0,0,7.1,9.35,13.88,13.85,25.2,16.68,30.91,100.81,30.91,100.81" transform="translate(26.52 -17.21)"/><path class="cls-16" d="M356.57,503.36s22.84,6,26,28,24,17,24,17,7.72-3.2,19.81,17.39" transform="translate(26.52 -17.21)"/><path class="cls-16" d="M356.19,511.12S330.8,536.94,335,569.29,313.9,641,313.9,641" transform="translate(26.52 -17.21)"/><path class="cls-16" d="M361.75,561.74S373,564,380.41,572.52a32,32,0,0,0,16.13,10.3s19.15,11,23.18,21.65,18.47,11,18.47,11" transform="translate(26.52 -17.21)"/><path class="cls-16" d="M363.19,565.78s4.79,21.65-24.09,25.91" transform="translate(26.52 -17.21)"/><path class="cls-16" d="M360.24,478.1s12.79.54,16.48,5.95a10.86,10.86,0,0,0,9.07,5.06s13.1,3.31,16.13,14.25" transform="translate(26.52 -17.21)"/><path class="cls-16" d="M417.7,445s22.84,14.29,22.84,28.84,8.74,32,8.74,32,4.7,8.47-4,23.74c0,0-3.35,4.61,3.37,23.42s-.34,37.63-.34,38.69-4,7.28-1,18.37" transform="translate(26.52 -17.21)"/><path class="cls-16" d="M458.68,445s11.22,59.21-7.17,100.9C438.19,576.08,462,594.18,462,594.18" transform="translate(26.52 -17.21)"/><path class="cls-16" d="M482.87,445.09s3.36,17.39-4.7,33-4.37,25.26-4.37,25.26,3.7,14.32,1.35,24.17,14.77,22.27,14.77,22.27" transform="translate(26.52 -17.21)"/><path class="cls-17" d="M445.53,445s6.07,28.29-2.17,48.54" transform="translate(26.52 -17.21)"/><path class="cls-16" d="M357.73,529.58s-.16,6.74-11.91,7.45a38.4,38.4,0,0,0-19.83,7.1s-13.1,8.16-22.84,8.51" transform="translate(26.52 -17.21)"/><path class="cls-16" d="M570.06,447.48s-9.24,15.71-4,42,1.17,42.6,1.17,42.6-2.49,11.36,2.79,16.33,25.08,14.2,25.08,14.2,23.43,13.84,27.39,47.21,12.87,32,12.87,32" transform="translate(26.52 -17.21)"/><path class="cls-16" d="M522.54,652.74c4.62-8.87,21.78-16,21.78-16s6.6-4.26,9.9-34.43a167.6,167.6,0,0,1,15.84-54s.67,24.85,19.59,40.47S610.32,617,610.32,617" transform="translate(26.52 -17.21)"/><path class="cls-16" d="M534,662s7.26-18.22,13.42-29.71c0,0,7,7.34,3.08,17.11s-.43,31.3-.43,31.3" transform="translate(26.52 -17.21)"/><path class="cls-16" d="M581.28,654.87s-3.11-16.82-21.78-26.5c-9.57-5-6.66-15.83-6.66-15.83" transform="translate(26.52 -17.21)"/><path class="cls-16" d="M567.09,454.87S542.34,465,531.34,482.59c-6.11,9.76-11,8.52-11,8.52s-19.14.71-52.14,57.27c0,0-7,9.35-13.64,13.84C429.81,578.9,424.2,663,424.2,663" transform="translate(26.52 -17.21)"/><path class="cls-16" d="M568.41,505.84s-22.44,6-25.58,28-23.59,17-23.59,17-7.59-3.2-19.47,17.39" transform="translate(26.52 -17.21)"/><path class="cls-16" d="M568.78,513.6s24.94,25.82,20.87,58.17,20.67,71.74,20.67,71.74" transform="translate(26.52 -17.21)"/><path class="cls-16" d="M565.57,486.53s50.06,24.85,72.14,66.82c21.79,41.4,16.17,78.91,16.17,78.91" transform="translate(26.52 -17.21)"/><path class="cls-16" d="M579,447.48s26.72,5.77,33.32,17.13,23.1,21.92,23.1,21.92,11.69,10.73,12.54,24.94a19.42,19.42,0,0,0,9.9,15.61s33,23.08,0,100.46" transform="translate(26.52 -17.21)"/><path class="cls-16" d="M651,520.64s-2.58,7.15,0,13.54,5.54,19.17,5.54,19.17-1.32,9.23,11.88,14.91" transform="translate(26.52 -17.21)"/><path class="cls-16" d="M635.4,447.48a32.76,32.76,0,0,0,14.43,28.84c31.77,21.61,20.41,72.06,20.41,72.06" transform="translate(26.52 -17.21)"/><path class="cls-16" d="M657.84,447.48a32.82,32.82,0,0,0,4,23.16c6.92,11.36,8.37,37.68,8.37,37.68" transform="translate(26.52 -17.21)"/><path class="cls-16" d="M563.32,564.22S552.24,566.48,545,575a31.44,31.44,0,0,1-15.84,10.3s-18.81,11-22.77,21.65-18.15,11-18.15,11" transform="translate(26.52 -17.21)"/><path class="cls-16" d="M561.9,568.26s-4.71,21.65,23.67,25.91" transform="translate(26.52 -17.21)"/><path class="cls-16" d="M564.8,480.58s-12.56.54-16.19,5.95a10.61,10.61,0,0,1-8.91,5.06s-12.87,3.31-15.84,14.25" transform="translate(26.52 -17.21)"/><path class="cls-16" d="M480.3,447.48s-5.88,27.94,2.11,47.93" transform="translate(26.52 -17.21)"/><path class="cls-16" d="M567.27,532.05s.15,6.74,11.71,7.46a37.28,37.28,0,0,1,19.46,7.09s12.87,8.17,22.44,8.52" transform="translate(26.52 -17.21)"/><path class="cls-16" d="M671,544.45s1.41,8.19,5,10.67,6.27,18.11,6.27,18.11,1,12.78,10.89,27.33,13.21,35.85,13.21,35.85" transform="translate(26.52 -17.21)"/><path class="cls-18" d="M198.24,397.71c12.66-28.74-5.19-116.63-5.19-116.63,25.63,53.74,23.21,113.56,23.21,113.56,1.1-59.46,25.11-92.95,25.11-92.95-19.48,45.07-9.9,112.79-9.9,112.79,18.55-16.82,11.15-86.08,11.15-86.08,15.37,41.42,9.23,77.37,9.23,77.37,9.35-56.67,36-84.63,36-84.63-18.27,62.71-14.14,96.95-14.14,96.95a196.6,196.6,0,0,0,16.52-69.95c14,22.31-3.06,77.35-3.06,77.35C316.17,401.93,314.1,300,314.1,300,326.51,360.13,318,425.34,318,425.34c8.57-51.31,42.5-85.76,42.5-85.76-26.32,48.19-15.12,74.66-15.12,74.66-.5-34.87,16.49-59.72,16.49-59.72-17.64,41.36-2.41,76.49-2.41,76.49-13.5-52.06,32.65-111.19,32.65-111.19-30.51,56.86-16,129.15-16,129.15H-9s6.73-83.4-17.51-127.16c0,0,14.81,11.45,26.26,76.75,0,0,24.91-50.49,12.79-113.1,0,0,23.48,68.67,3.32,115.8,0,0,18.22-30.3,12.84-74.74,0,0,8.05,28.28,1,62,0,0,13.53-22.9,2.9-76.08,0,0,19,41.74,15.63,93.58,0,0,6.06-65.31,26.93-120.51,0,0-18.85,83.48-14.14,130.61,0,0,8.08-59.92,22.89-78.1,0,0-15.74,38.5,1.76,73.51,0,0,17.77-31.77-3.1-100.44,0,0,23.09,35,19.29,92.24,0,0,2.25-36.36,21.78-72.72,0,0-18.85,65.31-8.08,86.18,0,0,20.2-63.29,14.14-111.76,0,0,11.69,38.38,1.13,96.28,0,0,9.64-58.58,39.26-104.36,0,0-30.29,80.79-26.26,111.76,0,0,8.08-53.86,26.26-72.71,0,0-20.87,45.11-4.71,69.35,0,0,16.16-45.13,14.14-58.58,0,0,11.12,28.95.17,58.58,0,0,26.76-31.65,1.85-103,0,0,28.28,40.39,16.83,95.6" transform="translate(26.52 -17.21)"/><path class="cls-18" d="M574.71,397.71c12.65-28.74-5.19-116.63-5.19-116.63,25.63,53.74,23.21,113.56,23.21,113.56,1.1-59.46,25.11-92.95,25.11-92.95-19.48,45.07-9.9,112.79-9.9,112.79,18.55-16.82,11.15-86.08,11.15-86.08,15.37,41.42,9.23,77.37,9.23,77.37,9.35-56.67,36-84.63,36-84.63-18.26,62.71-14.13,96.95-14.13,96.95a196.6,196.6,0,0,0,16.52-69.95c14,22.31-3.06,77.35-3.06,77.35C692.64,401.93,690.57,300,690.57,300c12.41,60.11,3.88,125.32,3.88,125.32C703,374,737,339.58,737,339.58c-26.32,48.19-15.12,74.66-15.12,74.66-.5-34.87,16.49-59.72,16.49-59.72-17.64,41.36-2.41,76.49-2.41,76.49C722.4,379,768.56,319.82,768.56,319.82c-30.51,56.86-16,129.15-16,129.15H367.46s6.73-83.4-17.51-127.16c0,0,14.81,11.45,26.26,76.75,0,0,24.91-50.49,12.79-113.1,0,0,23.48,68.67,3.32,115.8,0,0,18.22-30.3,12.84-74.74,0,0,8,28.28,1,62,0,0,13.53-22.9,2.9-76.08,0,0,19,41.74,15.63,93.58,0,0,6.06-65.31,26.93-120.51,0,0-18.85,83.48-14.14,130.61,0,0,8.08-59.92,22.89-78.1,0,0-15.74,38.5,1.76,73.51,0,0,17.77-31.77-3.1-100.44,0,0,23.09,35,19.29,92.24,0,0,2.25-36.36,21.78-72.72,0,0-18.86,65.31-8.08,86.18,0,0,20.2-63.29,14.14-111.76,0,0,11.69,38.38,1.13,96.28,0,0,9.64-58.58,39.26-104.36,0,0-30.29,80.79-26.26,111.76,0,0,8.08-53.86,26.26-72.71,0,0-20.87,45.11-4.71,69.35,0,0,16.16-45.13,14.14-58.58,0,0,11.12,28.95.17,58.58,0,0,26.76-31.65,1.85-103,0,0,28.28,40.39,16.83,95.6" transform="translate(26.52 -17.21)"/></g></g></g></svg>