<svg xmlns="http://www.w3.org/2000/svg" viewBox="0 0 586 403.07"><defs><style>.cls-1{font-size:40px;fill:#fecf08;font-family:Acre-Light, Acre;font-weight:300;}.cls-2{letter-spacing:-0.02em;}.cls-3{letter-spacing:0em;}.cls-4{font-size:19.94px;fill:#5c5052;font-family:Acre-Thin, Acre;font-weight:200;}.cls-5{letter-spacing:-0.02em;}.cls-6{letter-spacing:-0.01em;}.cls-7{letter-spacing:-0.04em;}.cls-8{letter-spacing:-0.02em;}.cls-9{letter-spacing:-0.07em;}.cls-10{letter-spacing:-0.01em;}.cls-11{fill:#e86a7c;}.cls-12{fill:#603813;}.cls-13{fill:#754c24;}.cls-14{font-size:13.2px;font-family:Acre-Semibold, Acre;font-weight:600;}.cls-14,.cls-16,.cls-18,.cls-20,.cls-22{fill:#fff;}.cls-15,.cls-17{fill:#2e61a2;}.cls-15,.cls-17,.cls-19{stroke:#fff;}.cls-15,.cls-17,.cls-19,.cls-24,.cls-26,.cls-27{stroke-miterlimit:10;}.cls-15{stroke-width:0.71px;}.cls-16{font-size:19.01px;}.cls-16,.cls-18,.cls-20,.cls-22{font-family:Acre-Bold, Acre;font-weight:700;}.cls-17{stroke-width:0.74px;}.cls-18{font-size:19.81px;}.cls-19{fill:#ec6a7c;stroke-width:1px;}.cls-20{font-size:20.84px;}.cls-21{letter-spacing:-0.02em;}.cls-22{font-size:20.84px;}.cls-23{letter-spacing:-0.02em;}.cls-24,.cls-26,.cls-27{fill:none;stroke:#5b5052;}.cls-24{stroke-width:0.66px;}.cls-25{fill:#5b5052;}.cls-26{stroke-width:0.57px;}.cls-27{stroke-width:0.62px;}</style></defs><g id="Layer_2" data-name="Layer 2"><g id="Layer_9" data-name="Layer 9"><text class="cls-1" transform="translate(198.6 34)"><tspan class="cls-2">r</tspan><tspan class="cls-3" x="11.36" y="0">e</tspan><tspan x="33.76" y="0">spi</tspan><tspan class="cls-2" x="84.76" y="0">r</tspan><tspan x="96.12" y="0">ation</tspan></text><text class="cls-4" transform="translate(45.22 72.45)">a<tspan class="cls-5" x="12.3" y="0">m</tspan><tspan x="29.16" y="0">ount </tspan><tspan class="cls-6" x="76.1" y="0">o</tspan><tspan x="87.98" y="0">f </tspan><tspan class="cls-7" x="100.15" y="0">C</tspan><tspan x="111.91" y="0">O2 </tspan><tspan class="cls-6" x="140.85" y="0">ev</tspan><tspan x="161.61" y="0">ol</tspan><tspan class="cls-6" x="178" y="0">v</tspan><tspan x="187.65" y="0">ed duri</tspan><tspan class="cls-5" x="252.38" y="0">n</tspan><tspan x="263.33" y="0">g a 24 or</tspan><tspan class="cls-5" x="346.33" y="0" xml:space="preserve"> 7</tspan><tspan x="360.94" y="0">2 hr i</tspan><tspan class="cls-5" x="407.03" y="0">n</tspan><tspan x="417.98" y="0">cubation </tspan><tspan class="cls-5" x="32.51" y="215.37">r</tspan><tspan x="37.9" y="215.37">espi</tspan><tspan class="cls-5" x="74.07" y="215.37">r</tspan><tspan x="79.46" y="215.37">ation can i</tspan><tspan class="cls-8" x="178.19" y="215.37">n</tspan><tspan x="189.13" y="215.37">dica</tspan><tspan class="cls-5" x="229.24" y="215.37">t</tspan><tspan x="234.02" y="215.37">e b</tspan><tspan class="cls-6" x="264.61" y="215.37">o</tspan><tspan x="276.5" y="215.37">th a </tspan><tspan class="cls-5" x="319.29" y="215.37">h</tspan><tspan x="330.24" y="215.37">ealt</tspan><tspan class="cls-6" x="363.34" y="215.37">h</tspan><tspan class="cls-9" x="374.49" y="215.37">y</tspan><tspan x="382.61" y="215.37">, g</tspan><tspan class="cls-5" x="404.9" y="215.37">r</tspan><tspan class="cls-10" x="410.29" y="215.37">o</tspan><tspan x="422.17" y="215.37">wi</tspan><tspan class="cls-5" x="442.27" y="215.37">n</tspan><tspan x="453.22" y="215.37">g </tspan><tspan x="9.38" y="242.29">mic</tspan><tspan class="cls-5" x="42.13" y="242.29">r</tspan><tspan x="47.51" y="242.29">obial population a</tspan><tspan class="cls-5" x="217.41" y="242.29">n</tspan><tspan x="228.36" y="242.29">d </tspan><tspan class="cls-8" x="247.65" y="242.29">s</tspan><tspan x="255.12" y="242.29">t</tspan><tspan class="cls-5" x="260.31" y="242.29">r</tspan><tspan x="265.69" y="242.29">ess a</tspan><tspan class="cls-5" x="312.04" y="242.29">n</tspan><tspan x="322.98" y="242.29">d poor p</tspan><tspan class="cls-6" x="403.77" y="242.29">h</tspan><tspan x="414.92" y="242.29">ysiolog</tspan><tspan class="cls-9" x="477.79" y="242.29">y</tspan><tspan x="485.91" y="242.29" xml:space="preserve">.  </tspan><tspan class="cls-5" x="2.2" y="269.22">r</tspan><tspan x="7.59" y="269.22">espi</tspan><tspan class="cls-5" x="43.76" y="269.22">r</tspan><tspan x="49.15" y="269.22">ation per unit mic</tspan><tspan class="cls-8" x="210.41" y="269.22">r</tspan><tspan x="215.8" y="269.22">obial bio</tspan><tspan class="cls-5" x="297.58" y="269.22">m</tspan><tspan x="314.43" y="269.22">ass is </tspan><tspan class="cls-5" x="369.03" y="269.22">m</tspan><tspan x="385.88" y="269.22">o</tspan><tspan class="cls-5" x="397.97" y="269.22">r</tspan><tspan x="403.35" y="269.22">e us</tspan><tspan class="cls-6" x="440.86" y="269.22">e</tspan><tspan x="451.97" y="269.22">ful in </tspan><tspan x="151.25" y="296.14">in</tspan><tspan class="cls-5" x="167.3" y="296.14">t</tspan><tspan x="172.08" y="296.14">erp</tspan><tspan class="cls-6" x="201.46" y="296.14">e</tspan><tspan x="212.57" y="296.14">ti</tspan><tspan class="cls-5" x="222.46" y="296.14">n</tspan><tspan x="233.41" y="296.14">g soil </tspan><tspan class="cls-8" x="288.64" y="296.14">h</tspan><tspan x="299.59" y="296.14">ealth.</tspan></text><path class="cls-11" d="M396.18,207.39,407,200.86l-10.52-4.64c0-.67,0-1.3,0-2a11.6,11.6,0,1,1,23.1-1.65A140.79,140.79,0,0,1,411.3,245l-.07,0c-.15.4-.33.8-.52,1.2A11.6,11.6,0,1,1,390,235.72S395,226.53,396.18,207.39Z"/><path class="cls-11" d="M246.39,229.61l-12-3.8,9.12-7c-.14-.65-.3-1.26-.44-1.94a11.6,11.6,0,1,0-22.84,3.85,141.06,141.06,0,0,0,20.35,49l.06,0c.25.35.51.7.79,1a11.6,11.6,0,1,0,17.67-15S252.11,247.92,246.39,229.61Z"/><polygon class="cls-12" points="391.11 200.72 378.71 214.36 360.7 210.45 355.08 192.9 367.48 179.26 385.49 183.17 391.11 200.72"/><polygon class="cls-13" points="286.25 213.57 281.39 231.35 263.56 236.04 250.6 222.94 255.45 205.16 273.28 200.48 286.25 213.57"/><text class="cls-14" transform="matrix(0.96, 0.26, -0.26, 0.96, 366.79, 200.28)">C</text><text class="cls-14" transform="translate(265.83 225.01) rotate(-25.68)">C</text><circle class="cls-15" cx="381.2" cy="141.35" r="16.87"/><text class="cls-16" transform="translate(370.01 148.29) scale(1.08 1)">O2</text><circle class="cls-17" cx="178.48" cy="176.57" r="17.59"/><text class="cls-18" transform="translate(166.81 183.82) scale(1.08 1)">O2</text><circle class="cls-19" cx="323.77" cy="126" r="23.8"/><text class="cls-20" transform="translate(304.37 133.49) scale(1.08 1)"><tspan class="cls-21">C</tspan><tspan x="12.25" y="0">O2</tspan></text><circle class="cls-19" cx="228.74" cy="138.32" r="23.8"/><text class="cls-22" transform="matrix(1.05, -0.22, 0.2, 0.98, 211.29, 149.6)"><tspan class="cls-23">C</tspan><tspan x="12.25" y="0">O2</tspan></text><path class="cls-24" d="M185.59,203.92c-1.35,8.4,1.55,18.4,7.46,25.66,4.93,6.07,11.82,10.07,18.49,10.94"/><polygon class="cls-25" points="209.56 242.73 210.73 240.37 209.85 237.88 215.46 240.66 209.56 242.73"/><path class="cls-24" d="M407.08,144.7c8.09,2.63,15.66,9.77,19.43,18.34,3.15,7.16,3.57,15.12,1.3,21.44"/><polygon class="cls-25" points="426.23 181.78 428.04 183.7 430.68 183.73 426.14 188.03 426.23 181.78"/><path class="cls-26" d="M342.89,193.35c-7.05-2-13.49-7.85-16.54-15a24.32,24.32,0,0,1-.45-18.3"/><polygon class="cls-25" points="327.17 162.4 325.67 160.68 323.38 160.56 327.45 156.99 327.17 162.4"/><path class="cls-27" d="M283.33,193c2.61-7.64,1.5-17.46-2.87-25.2-3.64-6.47-9.44-11.32-15.54-13.2"/><polygon class="cls-25" points="267.13 152.85 265.65 154.87 266.07 157.34 261.27 153.84 267.13 152.85"/></g></g></svg>