<svg xmlns="http://www.w3.org/2000/svg" viewBox="0 0 912.02 873.41"><defs><style>.cls-1{fill:#3daaa1;}.cls-2{font-size:47.57px;fill:#fff;font-family:Acre-Light, Acre;font-weight:300;}.cls-3{letter-spacing:-0.03em;}.cls-4{letter-spacing:0em;}.cls-5{letter-spacing:-0.01em;}.cls-6{letter-spacing:-0.02em;}.cls-7{letter-spacing:-0.02em;}.cls-8{letter-spacing:-0.02em;}.cls-9{letter-spacing:0em;}</style></defs><g id="Layer_2" data-name="Layer 2"><g id="Soils_at_Risk" data-name="Soils at Risk"><g id="Layer_60" data-name="Layer 60"><rect class="cls-1" x="64.79" y="717.52" width="787.78" height="116.94"/><text class="cls-2" transform="translate(325.8 790.09)">urbani<tspan class="cls-3" x="139.33" y="0">z</tspan><tspan x="159.12" y="0">ation</tspan></text></g><g id="Layer_61" data-name="Layer 61"><rect class="cls-1" x="63.92" y="575.8" width="787.78" height="116.94"/><text class="cls-2" transform="translate(290.94 648.37)">l<tspan class="cls-4" x="10.75" y="0">o</tspan><tspan x="39.15" y="0">ss </tspan><tspan class="cls-5" x="94.38" y="0">o</tspan><tspan x="122.4" y="0">f </tspan><tspan class="cls-6" x="151.98" y="0">s</tspan><tspan x="170.58" y="0">tructu</tspan><tspan class="cls-7" x="290.74" y="0">r</tspan><tspan x="304.25" y="0">e</tspan></text></g><g id="Layer_62" data-name="Layer 62"><rect class="cls-1" x="62.18" y="428.13" width="787.78" height="116.94"/><text class="cls-2" transform="translate(324.33 500.7)">acidification</text></g><g id="Layer_63" data-name="Layer 63"><rect class="cls-1" x="61.31" y="286.41" width="787.78" height="116.94"/><text class="cls-2" transform="translate(375.59 358.98)">e<tspan class="cls-8" x="26.88" y="0">r</tspan><tspan class="cls-4" x="40.39" y="0">o</tspan><tspan x="68.79" y="0">sion</tspan></text></g><g id="Layer_64" data-name="Layer 64"><rect class="cls-1" x="62.18" y="141.72" width="787.78" height="116.94"/><text class="cls-2" transform="translate(335.33 214.29)"><tspan class="cls-9">s</tspan><tspan x="19.27" y="0">alini</tspan><tspan class="cls-3" x="110.36" y="0">z</tspan><tspan x="130.15" y="0">ation</tspan></text></g><g id="Layer_65" data-name="Layer 65"><rect class="cls-1" x="59.58" width="787.78" height="116.94"/><text class="cls-2" transform="translate(301.38 72.57)">d<tspan class="cls-4" x="29.35" y="0">e</tspan><tspan class="cls-9" x="55.99" y="0">s</tspan><tspan x="75.26" y="0">ertification</tspan></text></g></g></g></svg>