<svg xmlns="http://www.w3.org/2000/svg" viewBox="0 0 291.33 802.84"><defs><style>.cls-1{fill:#5c5052;}.cls-2{fill:#2e61a1;}.cls-3{fill:#ffce01;}.cls-10,.cls-11,.cls-12,.cls-13,.cls-14,.cls-4,.cls-5,.cls-7{fill:none;}.cls-4,.cls-5{stroke:#f27243;}.cls-10,.cls-11,.cls-12,.cls-14,.cls-4,.cls-5,.cls-7{stroke-miterlimit:10;}.cls-4{stroke-width:0.25px;}.cls-11,.cls-13,.cls-14,.cls-5{stroke-width:0.5px;}.cls-6{fill:#2b63a3;}.cls-11,.cls-12,.cls-7{stroke:#5c5052;}.cls-8{fill:#ec6a7c;}.cls-9{fill:#3daaa1;}.cls-10{stroke:#2e61a1;}.cls-10,.cls-12{stroke-width:1.5px;}.cls-13,.cls-14{stroke:#fff;}.cls-13{stroke-linecap:round;stroke-linejoin:round;}</style></defs><g id="Layer_2" data-name="Layer 2"><g id="Soil_Profile" data-name="Soil Profile"><g id="Layer_24" data-name="Layer 24"><path class="cls-1" d="M228.7,698.8s-8.42-5.36-12.1-10.58c0,0,4.38-8.65,10.7-10.3s9.46,1.92,9.46,1.92S236.35,696.6,228.7,698.8Z"/><path class="cls-1" d="M222.25,673.71s10.53-1.84,11.33-4.25a6,6,0,0,0,0-4.18s-3.55-4.76-14.08-3.81C219.5,661.47,218.69,668.68,222.25,673.71Z"/><path class="cls-1" d="M196.47,677.46s2.6,8.2,5.69,8.78a12.42,12.42,0,0,0,5.35-.11s6-2.9,4.51-11.13C212,675,202.79,674.55,196.47,677.46Z"/><path class="cls-1" d="M244.45,680s16.14-5,16.38-12.1-11.64-5.21-11.64-5.21-9.55,1.7-8.78,11.35C241,681.26,244.45,680,244.45,680Z"/><path class="cls-1" d="M144.2,694.07s16.45,4.37,22.47-.9-4.55-9.88-4.55-9.88A15,15,0,0,0,146,687.48C140.51,693.27,144.2,694.07,144.2,694.07Z"/><path class="cls-1" d="M188.36,660s9.84,11.22,18.69,9.83S211,659.8,211,659.8s-4.24-6.92-16.08-4.19C186,657.65,188.36,660,188.36,660Z"/><path class="cls-1" d="M256.55,698.27s3.19-9.29,14.25-19.54L268,676.68s-15.2,2.05-18.76,10.8,0,11.91,0,11.91S253.7,700.31,256.55,698.27Z"/><path class="cls-1" d="M179.33,692.6s10.31,3.46,18.25.38c0,0,1.8-1.45-3-4.78a21.68,21.68,0,0,1-5.33-5.11s-7.38-7.44-11,2.6C175.76,692.31,179.33,692.6,179.33,692.6Z"/><path class="cls-1" d="M95.85,667.66s9.15,4.54,13.59,9.39c0,0-3,9-9.07,11.21s-9.69-1-9.69-1S88.58,670.55,95.85,667.66Z"/><path class="cls-1" d="M62.22,661.78s-10.9,3-11.37,5.62a6.71,6.71,0,0,0,.67,4.46s4.55,4.7,15.59,2.65C67.11,674.51,66.81,666.77,62.22,661.78Z"/><path class="cls-1" d="M131,685.88s-3.8-7.91-7-8.2a12.21,12.21,0,0,0-5.29.6s-5.5,3.44-2.81,11.47C116,689.75,125.21,689.35,131,685.88Z"/><path class="cls-1" d="M127.7,662.31s-15.41-6.28-22.39-1.79,2.59,10.31,2.59,10.31,7.9,4.54,16.71-2.23C131.19,663.53,127.7,662.31,127.7,662.31Z"/><path class="cls-1" d="M180.47,664.57s-17-2.83-22.19,3,6,9.39,6,9.39a14.51,14.51,0,0,0,15.33-5.64C184.25,665,180.47,664.57,180.47,664.57Z"/><path class="cls-1" d="M44.29,667s-13.52-3.72-18.47.77,3.74,8.42,3.74,8.42a12.05,12.05,0,0,0,13.22-3.58C47.32,667.65,44.29,667,44.29,667Z"/><path class="cls-1" d="M14.48,692.12s14,2.41,18.24-2.53-4.94-8-4.94-8a11.66,11.66,0,0,0-12.6,4.81C11.38,691.73,14.48,692.12,14.48,692.12Z"/><path class="cls-1" d="M75.22,671.86S73.32,682,63.21,694l3.36,1.89s15.82-3.67,18.2-13.32S82.86,670,82.86,670,77.92,669.4,75.22,671.86Z"/><path class="cls-1" d="M48.09,678s-6.56,7.88-3.88,15c0,0,1.63,1.76,7-1.6A30.64,30.64,0,0,1,59.05,688s11.38-4.73-1.45-9.61C49.13,675.13,48.09,678,48.09,678Z"/><path class="cls-1" d="M145.79,669.26s-10.75-2.48-18.17,1.3c0,0-1.57,1.62,3.71,4.47a23.93,23.93,0,0,1,6.06,4.59s8.45,6.71,10.59-3.59C149.39,669.22,145.79,669.26,145.79,669.26Z"/><path class="cls-1" d="M51.66,621.41s8.41,5.36,12.1,10.58c0,0-4.38,8.65-10.7,10.3s-9.46-1.93-9.46-1.93S44,623.61,51.66,621.41Z"/><path class="cls-1" d="M58.11,646.5s-10.53,1.83-11.34,4.24a6.09,6.09,0,0,0,0,4.19s3.56,4.76,14.09,3.81C60.86,658.74,61.67,651.52,58.11,646.5Z"/><path class="cls-1" d="M83.88,642.74s-2.59-8.2-5.68-8.77a12.33,12.33,0,0,0-5.35.1s-6,2.91-4.51,11.13C68.34,645.2,77.57,645.66,83.88,642.74Z"/><path class="cls-1" d="M35.91,645.21s-16.14,5-16.38,12.09,11.63,5.21,11.63,5.21,9.56-1.69,8.79-11.35C39.38,644,35.91,645.21,35.91,645.21Z"/><path class="cls-1" d="M133.47,625.08S117,620.71,111,626s4.55,9.87,4.55,9.87a15,15,0,0,0,16.08-4.18C137.15,625.88,133.47,625.08,133.47,625.08Z"/><path class="cls-1" d="M92,660.19S82.16,649,73.31,650.36s-3.9,10-3.9,10,4.24,6.92,16.07,4.19C94.34,662.55,92,660.19,92,660.19Z"/><path class="cls-1" d="M16,650.39s6.93-9.75,23.39-17.91l-2.62-3.37s-18.46-2.86-25.64,6.13S7,649.15,7,649.15,11.94,651.8,16,650.39Z"/><path class="cls-1" d="M142.45,657.5s-4.16-9-2.56-22.41l-3.83-.41s-11,8.49-7.52,17.26,8.69,9.77,8.69,9.77S141.61,660.45,142.45,657.5Z"/><path class="cls-1" d="M101,627.61s-10.3-3.46-18.24-.39c0,0-1.8,1.46,3,4.78a22.06,22.06,0,0,1,5.34,5.11s7.38,7.45,11.05-2.59C104.6,627.9,101,627.61,101,627.61Z"/><path class="cls-1" d="M181.81,651.49s-9.15-4.54-13.59-9.39c0,0,3.05-9,9.07-11.22s9.69,1,9.69,1S189.08,648.6,181.81,651.49Z"/><path class="cls-1" d="M215.45,657.37s10.89-3,11.36-5.63a6.69,6.69,0,0,0-.67-4.45s-4.55-4.7-15.59-2.65C210.55,644.64,210.85,652.38,215.45,657.37Z"/><path class="cls-1" d="M146.62,633.27s3.8,7.91,7,8.19a12.13,12.13,0,0,0,5.29-.59s5.5-3.44,2.81-11.47C161.68,629.4,152.45,629.8,146.62,633.27Z"/><path class="cls-1" d="M150,656.84s15.42,6.27,22.39,1.79-2.59-10.31-2.59-10.31-7.9-4.54-16.7,2.23C146.47,655.62,150,656.84,150,656.84Z"/><path class="cls-1" d="M97.19,654.58s17,2.82,22.19-3-6-9.39-6-9.39A14.51,14.51,0,0,0,98,647.87C93.41,654.13,97.19,654.58,97.19,654.58Z"/><path class="cls-1" d="M230.67,657.46s13.52,3.73,18.47-.76-3.74-8.42-3.74-8.42a12,12,0,0,0-13.21,3.57C227.64,656.78,230.67,657.46,230.67,657.46Z"/><path class="cls-1" d="M259.55,656.21s8.47,2.95,15,.33c0,0,1.48-1.24-2.48-4.07a18.56,18.56,0,0,1-4.38-4.36s-6.07-6.35-9.08,2.21C256.61,656,259.55,656.21,259.55,656.21Z"/><path class="cls-1" d="M260.48,632.32s-14-2.41-18.23,2.52,4.93,8,4.93,8a11.68,11.68,0,0,0,12.61-4.8C263.59,632.7,260.48,632.32,260.48,632.32Z"/><path class="cls-1" d="M202.44,647.29s1.9-10.18,12-22.17l-3.36-1.89s-15.82,3.67-18.2,13.32,1.91,12.65,1.91,12.65S199.75,649.75,202.44,647.29Z"/><path class="cls-1" d="M229.57,641.13s6.56-7.88,3.88-15c0,0-1.63-1.76-7,1.61a30.81,30.81,0,0,1-7.85,3.46s-11.38,4.73,1.45,9.61C228.53,644,229.57,641.13,229.57,641.13Z"/><path class="cls-2" d="M279.54,734.91c-2.21-1.34-13.34-7.13-29.84-.22-20.11,8.43-50.83,3.45-50.83,3.45s-12.44-2.3-27-6c-20-5-48.51,3.09-48.51,3.09s-21.09,6.94-52.53,0a140.59,140.59,0,0,0-58.7,0v67.57H280V734.91Z"/><path class="cls-2" d="M24.57,713.1h0A68.26,68.26,0,0,1,21,706.83c-1.21,2.49-3.55,6.27-3.55,6.27h0l-.06.08a4.2,4.2,0,0,0-.53,2,4.13,4.13,0,0,0,8.25,0A4.05,4.05,0,0,0,24.57,713.1Z"/><path class="cls-2" d="M44.32,709.54h0a67.44,67.44,0,0,1-3.54-6.27c-1.2,2.49-3.54,6.27-3.54,6.27h0a.35.35,0,0,0,0,.08,4.12,4.12,0,1,0,7.71,2A4.05,4.05,0,0,0,44.32,709.54Z"/><path class="cls-2" d="M66.33,717.05h0a69.25,69.25,0,0,1-3.54-6.26c-1.2,2.49-3.54,6.26-3.54,6.26h0l-.06.09a4.13,4.13,0,1,0,7.13-.09Z"/><path class="cls-2" d="M82.09,708.37h0a70,70,0,0,1-3.54-6.27c-1.2,2.49-3.54,6.27-3.54,6.27h0a.35.35,0,0,1-.05.08,4.12,4.12,0,1,0,7.71,2A4,4,0,0,0,82.09,708.37Z"/><path class="cls-2" d="M97.37,713.1h0a70,70,0,0,1-3.54-6.27c-1.2,2.49-3.54,6.27-3.54,6.27h0a.56.56,0,0,0-.05.08,4.12,4.12,0,1,0,7.71,2A4,4,0,0,0,97.37,713.1Z"/><path class="cls-2" d="M117.52,709.54h0a70,70,0,0,1-3.54-6.27c-1.2,2.49-3.54,6.27-3.54,6.27h0a.35.35,0,0,0,0,.08,4.12,4.12,0,1,0,7.71,2A4,4,0,0,0,117.52,709.54Z"/><path class="cls-2" d="M137.52,718.06h0a70,70,0,0,1-3.54-6.27c-1.2,2.5-3.54,6.27-3.54,6.27h0a.26.26,0,0,0,0,.09,4,4,0,0,0-.53,2,4.12,4.12,0,1,0,8.24,0A4,4,0,0,0,137.52,718.06Z"/><path class="cls-2" d="M157.27,711.81h0a70,70,0,0,1-3.54-6.27c-1.2,2.5-3.54,6.27-3.54,6.27h0l-.06.08a4.12,4.12,0,1,0,7.71,2A4,4,0,0,0,157.27,711.81Z"/><path class="cls-2" d="M263,718.41h0a68.47,68.47,0,0,0,3.54-6.27c1.2,2.5,3.54,6.27,3.54,6.27h0a.41.41,0,0,0,0,.09,4.13,4.13,0,1,1-7.13-.09Z"/><path class="cls-2" d="M243.27,714.85h0a66.75,66.75,0,0,0,3.54-6.26c1.21,2.49,3.55,6.26,3.55,6.26h0l.06.09a4.19,4.19,0,0,1,.53,2,4.13,4.13,0,1,1-7.66-2.11Z"/><path class="cls-2" d="M221.26,722.37h0a68.47,68.47,0,0,0,3.54-6.27c1.2,2.5,3.54,6.27,3.54,6.27h0a.41.41,0,0,0,0,.09,4.06,4.06,0,0,1,.53,2,4.12,4.12,0,1,1-7.66-2.11Z"/><path class="cls-2" d="M205.5,713.68h0a69.25,69.25,0,0,0,3.54-6.26c1.2,2.49,3.54,6.26,3.54,6.26h0l0,.09a4.12,4.12,0,1,1-7.13-.09Z"/><path class="cls-2" d="M184.55,722.37h0a66,66,0,0,0,3.54-6.27c1.21,2.5,3.54,6.27,3.54,6.27h0l.06.09a4.19,4.19,0,0,1,.52,2,4.12,4.12,0,1,1-7.65-2.11Z"/><path class="cls-2" d="M166.07,713.68h0a69.25,69.25,0,0,0,3.54-6.26c1.2,2.49,3.54,6.26,3.54,6.26h0a.41.41,0,0,0,0,.09,4.12,4.12,0,1,1-7.13-.09Z"/><path class="cls-2" d="M130.32,717.12h0a69.25,69.25,0,0,0,3.54-6.26c1.2,2.49,3.54,6.26,3.54,6.26h0l.06.09a4.12,4.12,0,1,1-7.13-.09Z"/></g><g id="Layer_25" data-name="Layer 25"><path class="cls-3" d="M39.31,589.43a10.11,10.11,0,0,0-1.39-2.4,14,14,0,0,1-.83-1.23,8.56,8.56,0,0,1-.61-1.4,11.57,11.57,0,0,1-.51-2,8.61,8.61,0,0,1-.11-1.16l-5.07-.75,3.57-3.79a5.21,5.21,0,0,0-1.47-1.06,5,5,0,0,0-6.82,6.16l0,0a4.81,4.81,0,0,0,.44.95c.3.5.6,1,.9,1.41a13.37,13.37,0,0,1,1.6,2.91c0,.13.09.27.12.41a9.48,9.48,0,0,1,.27,2.24,12.7,12.7,0,0,0,.27,2.4,4.1,4.1,0,0,0,.14.5,5,5,0,0,0,9.72-1.21A4.71,4.71,0,0,0,39.31,589.43Z"/><path class="cls-4" d="M33.57,577.63a3.79,3.79,0,0,0-1.17-.88,3.75,3.75,0,0,0-2.9-.17A3.7,3.7,0,0,0,27,579.66a3.82,3.82,0,0,0,.18,1.76h0a3.85,3.85,0,0,0,.36.77c.28.47.58.92.86,1.35a12.58,12.58,0,0,1,1.89,3.66,11.5,11.5,0,0,1,.31,2.52,12.2,12.2,0,0,0,.23,2.17,3.83,3.83,0,0,0,5,2.7,3.86,3.86,0,0,0,2.54-3.24c.14-1.44-.62-2.5-1.42-3.61a13.33,13.33,0,0,1-.9-1.36,12,12,0,0,1-1.26-3.77,11,11,0,0,1-.14-1.51"/><path class="cls-3" d="M247.32,605.48l5.77,2.13a6.65,6.65,0,0,0,.55-1.57,6.9,6.9,0,0,0-10.56-7.18l-.05,0a7.78,7.78,0,0,0-1.14.92c-.58.56-1.1,1.12-1.6,1.67a18.44,18.44,0,0,1-3.4,3.11l-.51.31a13.87,13.87,0,0,1-2.94,1.1,17.38,17.38,0,0,0-3.15,1.15,6.44,6.44,0,0,0-.63.36,7,7,0,0,0,4.83,12.73,6.61,6.61,0,0,0,2.66-1,13.09,13.09,0,0,0,2.78-2.67,18.77,18.77,0,0,1,1.4-1.51,12,12,0,0,1,1.68-1.3,17.06,17.06,0,0,1,2.52-1.34,16.49,16.49,0,0,1,1.8-.61c.52-.16,1-.32,1.58-.52Z"/><path class="cls-4" d="M251.53,607a5.15,5.15,0,0,0,.46-1.3,5.22,5.22,0,0,0-.72-4,5.16,5.16,0,0,0-5-2.32,5.47,5.47,0,0,0-2.32.83h0a5.9,5.9,0,0,0-.92.73c-.54.53-1.05,1.09-1.54,1.62a17.76,17.76,0,0,1-4.32,3.74,14.71,14.71,0,0,1-3.3,1.25,16.77,16.77,0,0,0-2.85,1,5.22,5.22,0,0,0-2.67,3.32,5.28,5.28,0,0,0,5.87,6.62c2-.28,3.17-1.66,4.41-3.11a19.8,19.8,0,0,1,1.53-1.65,16.68,16.68,0,0,1,4.67-3,18.69,18.69,0,0,1,2-.68c.54-.16,1.09-.33,1.62-.53"/><path class="cls-3" d="M53.35,556l6.07,1.55a6.68,6.68,0,0,0-7.74-9.23,6.25,6.25,0,0,0-2.46,1.22,12.8,12.8,0,0,0-2.41,2.82,16.09,16.09,0,0,1-1.2,1.59,11.11,11.11,0,0,1-1.48,1.41,16.7,16.7,0,0,1-2.3,1.53,13.56,13.56,0,0,1-1.67.76,12.2,12.2,0,0,0-3.08,1.66,6.57,6.57,0,0,0-2.42,4.49,6.65,6.65,0,0,0,10.83,5.87l0,0a6.68,6.68,0,0,0,1-1c.5-.59,1-1.18,1.38-1.76a17.77,17.77,0,0,1,3-3.31c.15-.12.3-.24.46-.35a13.16,13.16,0,0,1,2.71-1.34c.38-.15.77-.31,1.15-.48Z"/><path class="cls-5" d="M57.86,557.13a5.35,5.35,0,0,0,.48-1.48,5.09,5.09,0,0,0-1-4,5.17,5.17,0,0,0-5.24-1.76c-1.88.46-2.88,1.89-3.93,3.4A20.13,20.13,0,0,1,46.83,555a15.78,15.78,0,0,1-4.21,3.28,15.22,15.22,0,0,1-1.84.85,10.93,10.93,0,0,0-2.68,1.42,4.9,4.9,0,0,0-1.82,3.36,5.06,5.06,0,0,0,1.07,3.74,5,5,0,0,0,5,1.75,5.19,5.19,0,0,0,2.15-1h0a5.51,5.51,0,0,0,.81-.79c.47-.57.91-1.14,1.33-1.7a17.06,17.06,0,0,1,3.78-4,14.71,14.71,0,0,1,3.05-1.52c.4-.16.82-.33,1.22-.51"/><path class="cls-6" d="M60.81,565.81a5.74,5.74,0,0,1,7.26-4.18,5.85,5.85,0,0,1,2.37,1.21l-.67,2.55a4,4,0,0,0-2.25-1.46,3.56,3.56,0,0,0-1.85,6.87,3.84,3.84,0,0,0,2.68-.13l-.7,2.56a6.27,6.27,0,0,1-2.66-.16A5.74,5.74,0,0,1,60.81,565.81Z"/><path class="cls-6" d="M81.05,565.31l-3,11.07-2.32-.62,1.18-4.41-4.22-1.14-1.19,4.41L69.2,574l3-11.07,2.33.62L73.31,568l4.22,1.13,1.19-4.41Z"/><path class="cls-6" d="M83.21,581.17a2.28,2.28,0,0,1-2.87,1.57,2.36,2.36,0,0,1-1.84-2.3l1.36-.27a1.2,1.2,0,0,0,.82,1.22.95.95,0,1,0,.5-1.83,1.47,1.47,0,0,0-.86,0l-.37-.83,0,0,2-1.17L79.81,577l.36-1.33,3.78,1-.3,1.14-1.51.91A2.11,2.11,0,0,1,83.21,581.17Z"/><path class="cls-6" d="M97.33,569.69l-3,11.07L92,580.13l1.18-4.41L89,574.58,87.81,579l-2.33-.63,3-11.07,2.32.63-1.18,4.41,4.22,1.14L95,569.06Z"/><path class="cls-6" d="M104.14,582.93c-.65,2.42-2.87,3.23-5,2.65A7.06,7.06,0,0,1,96.28,584l.59-2.15a5.27,5.27,0,0,0,2.39,1.58A2,2,0,0,0,102,582l.06-.23a3.08,3.08,0,0,1-2.7.5c-2.16-.58-3.07-2.76-2.46-5s2.48-3.7,4.65-3.11a3.08,3.08,0,0,1,2.06,1.74l.26-1,2.26.6Zm-1.33-4.16a1.86,1.86,0,0,0-1.27-2.34,1.93,1.93,0,0,0-1,3.73A1.85,1.85,0,0,0,102.81,578.77Z"/><path class="cls-6" d="M110.9,577.06l-1.26-.34L109.3,578l-1-.28.35-1.28-1.24-.33.28-1,1.23.32.33-1.24,1,.28-.34,1.25,1.27.34Z"/><path class="cls-6" d="M121.92,582.18l-.3,1.12-6.51,1.91.58-2.18,3.72-.9-2.77-2.63.6-2.23Z"/><path class="cls-6" d="M139,580.88,136,592l-2.33-.62,1.19-4.41-4.23-1.14-1.18,4.41-2.32-.62,3-11.07,2.32.62-1.18,4.42,4.22,1.13,1.19-4.41Z"/><path class="cls-6" d="M145.81,594.12c-.65,2.42-2.86,3.23-5,2.66a7.14,7.14,0,0,1-2.84-1.55l.6-2.14a5.14,5.14,0,0,0,2.39,1.57,2,2,0,0,0,2.73-1.52l.06-.22a3.13,3.13,0,0,1-2.69.5c-2.17-.59-3.08-2.76-2.47-5s2.49-3.69,4.65-3.11a3.06,3.06,0,0,1,2.06,1.74l.27-1,2.26.61ZM144.49,590a1.88,1.88,0,0,0-1.27-2.34,1.93,1.93,0,0,0-1,3.73A1.87,1.87,0,0,0,144.49,590Z"/><path class="cls-6" d="M149.3,586.41c.48-1.8,1.49-3.16,3.13-2.72s1.82,2.12,1.34,3.92-1.5,3.17-3.13,2.73S148.81,588.24,149.3,586.41Zm3.1.84c.29-1.07.32-2-.35-2.18s-1.1.64-1.39,1.71-.34,2,.34,2.18S152.11,588.33,152.4,587.25Z"/><path class="cls-1" d="M88.75,604.58s.7-1.93-.2-2.65-2.27,1.65-2.27,1.65l-4.93.75c2.77-1.19,2.51-4.49,2.51-4.49a6.83,6.83,0,0,0,3.47-4.54c2.19-7.88-7.42-10-7.42-10s-9.33-3.15-11.52,4.73a6.86,6.86,0,0,0,.62,5.68s-1.92,2.69-.17,5.14L65,597.66s.06-2.73-1.09-2.58-1.54,2.17-1.54,2.17-1.64-.07-1.71,1.33,2.8,1.25,2.8,1.25l5.26,4.53-.24.87-3.76,1.08-2.12-.59c-1-.28-1.64-.3-2,.15s1,1.78,1,1.78-1.22,2.41.09,2.77a1.34,1.34,0,0,0,1.68-.95,3.79,3.79,0,0,1,1.56-.82l3.7-.86s.27,2.28,4.08,3.34,5.22-.75,5.22-.75L80.67,613a3.84,3.84,0,0,1,.91,1.51,1.34,1.34,0,0,0,1,1.68c1.31.36,1.51-2.33,1.51-2.33s1.85-.43,1.77-1-.62-.88-1.64-1.17l-2.11-.59-2.67-2.86.25-.88,6.85-1.16s2.38,1.61,3,.38S88.75,604.58,88.75,604.58ZM71.9,600.13c-2.54-1-1.44-3.78-1.44-3.78s.23-.9,2.42-.66,2.49,1,2.49,1a1.13,1.13,0,0,1,.1.9S74.44,601.11,71.9,600.13Zm2.88,3.75s-.6,1.34-1.15,0,2.06-3.22,1.87-2.56Zm1.41.66c-1.18.91-1-.55-1-.55l.73-2.6C76.1,600.72,77.38,603.62,76.19,604.54Zm3.43-2.26c-2.68-.47-1.72-4.06-1.72-4.06a1.1,1.1,0,0,1,.55-.71s.59-.49,2.62.46,1.74,1.82,1.74,1.82S82.3,602.75,79.62,602.28Z"/><path class="cls-3" d="M142.59,609a12.32,12.32,0,1,1-10.09-14.21A12.33,12.33,0,0,1,142.59,609Z"/><path class="cls-1" d="M129.37,603.49c-.27,1.57-1.08,2.75-1.82,2.63s-1.12-1.51-.85-3.09,1.08-2.75,1.82-2.63S129.63,601.91,129.37,603.49Z"/><path class="cls-1" d="M135.24,604.48c-.26,1.58-1.08,2.76-1.81,2.63s-1.12-1.5-.85-3.08,1.08-2.76,1.81-2.63S135.51,602.9,135.24,604.48Z"/><path class="cls-7" d="M137.65,609.92c-.61,3.62-4.47,6-8.62,5.29s-7-4.21-6.4-7.84"/><path class="cls-6" d="M121.92,536.69a7,7,0,0,1,4.65-9.05,7.25,7.25,0,0,1,3.21-.33l1,3a4.8,4.8,0,0,0-3.25,0,4.31,4.31,0,0,0,2.64,8.21,4.64,4.64,0,0,0,2.65-1.9l1,3.08a7.6,7.6,0,0,1-2.81,1.59A7,7,0,0,1,121.92,536.69Z"/><path class="cls-6" d="M138,528.16l1,3.14c-1.3.13-2.63.85-2,2.8l1.47,4.58-2.73.87-3-9.46,2.72-.88.46,1.42A3.37,3.37,0,0,1,138,528.16Z"/><path class="cls-6" d="M143,527.18l-1.51.48.49,1.53-1.25.41-.49-1.54-1.48.48-.39-1.22,1.48-.47-.48-1.49,1.25-.4.48,1.49,1.51-.49Z"/><path class="cls-6" d="M149.3,525.44a2.84,2.84,0,0,1-5.41,1.72v0a6.8,6.8,0,0,1,.08-3.09c.13-.91.28-1.76.43-2.75l1.76-.57-.51,3,.09,0A2.73,2.73,0,0,1,149.3,525.44Zm-1.62.46a1.16,1.16,0,1,0-.75,1.46A1.15,1.15,0,0,0,147.68,525.9Z"/><path class="cls-6" d="M163.84,523.14l.43,1.34-5.38,6.25-.84-2.61,3.19-3.37-4.55-.86-.86-2.67Z"/><path class="cls-6" d="M171.53,520.72a7,7,0,0,1,4.65-9.05,7.28,7.28,0,0,1,3.22-.33l1,3a4.83,4.83,0,0,0-3.26,0,4.31,4.31,0,0,0,2.64,8.21,4.68,4.68,0,0,0,2.65-1.89l1,3.07a7.6,7.6,0,0,1-2.81,1.59A7,7,0,0,1,171.53,520.72Z"/><path class="cls-6" d="M187.6,512.19l1,3.14c-1.3.13-2.63.85-2,2.8l1.47,4.58-2.73.87-3-9.46,2.72-.87.46,1.41A3.39,3.39,0,0,1,187.6,512.19Z"/><path class="cls-6" d="M192.65,511.21l-1.51.48.49,1.54-1.25.4-.49-1.54-1.48.48-.39-1.21,1.48-.48-.48-1.49,1.25-.4.48,1.49,1.51-.49Z"/><path class="cls-6" d="M199,509.49a2.76,2.76,0,0,1-1.89,3.49,2.89,2.89,0,0,1-3.39-1.13l1.21-1.17a1.46,1.46,0,0,0,1.64.7,1.15,1.15,0,0,0,.77-1.48,1.14,1.14,0,0,0-1.47-.71,1.83,1.83,0,0,0-.85.6l-.93-.59,0-.05,1.23-2.5-2.56.82-.52-1.58,4.54-1.46.44,1.36-.94,1.92A2.57,2.57,0,0,1,199,509.49Z"/><path class="cls-1" d="M157.79,550.45s-.54-1.9-1.65-2-.85,2.57-.85,2.57l-3.44,3.36c1.5-2.5-.56-4.93-.56-4.93a6.62,6.62,0,0,0,.17-5.51c-2.71-7.41-11.44-3.68-11.44-3.68s-9.07,2.78-6.36,10.18a6.6,6.6,0,0,0,3.67,4.11s0,3.18,2.75,4.12l-4.79-.35s-1.49-2.17-2.3-1.41,0,2.57,0,2.57-1.32.87-.59,2,2.89-.59,2.89-.59l6.68.59.3.83-2.35,2.95-2,.73c-1,.35-1.45.69-1.48,1.24s1.78.83,1.78.83.39,2.58,1.63,2.12a1.28,1.28,0,0,0,.78-1.68,3.72,3.72,0,0,1,.77-1.52l2.41-2.75s1.49,1.63,5.08.32,3.67-3.52,3.67-3.52l3.62.55a3.7,3.7,0,0,1,1.57.67,1.28,1.28,0,0,0,1.68.78c1.24-.45-.12-2.68-.12-2.68s1.21-1.37.83-1.78-1-.34-2,0l-2,.73-3.7-.75-.3-.82,4.72-4.76s2.77-.08,2.59-1.41S157.79,550.45,157.79,550.45Zm-15.71,6c-2.54.66-3.26-2.15-3.26-2.15s-.32-.84,1.53-1.88,2.49-.64,2.49-.64c.41.11.58.64.58.64S144.62,555.77,142.08,556.43Zm4.35,1.32s.29,1.39-.92.6-.2-3.67,0-3.05Zm1.48-.28c-.41,1.38-1.09.14-1.09.14l-.9-2.45C145.69,554.54,148.33,556.09,147.91,557.47Zm1.42-3.69c-2.36,1.13-3.62-2.22-3.62-2.22a1,1,0,0,1,0-.86s.19-.72,2.31-1.12,2.38.45,2.38.45S151.7,552.64,149.33,553.78Z"/><path class="cls-3" d="M205.06,530.67a11.89,11.89,0,1,1-15.62-6.19A11.88,11.88,0,0,1,205.06,530.67Z"/><path class="cls-1" d="M191.49,533.18c.61,1.42.57,2.79-.09,3.08s-1.7-.63-2.31-2-.57-2.8.09-3.08S190.87,531.76,191.49,533.18Z"/><path class="cls-1" d="M196.76,530.9c.62,1.42.58,2.8-.08,3.08s-1.7-.63-2.31-2.05-.57-2.8.09-3.08S196.15,529.48,196.76,530.9Z"/><path class="cls-7" d="M201.57,534c1.41,3.26-.47,7.2-4.2,8.81s-7.88.27-9.29-3"/><path class="cls-8" d="M103.36,531.74l7.22.86a3.62,3.62,0,0,0,.26-.38,7,7,0,0,0-12.09-7.08s-4.4,8.05-19,16.86a7,7,0,0,0-.49,12.36,7,7,0,0,0,7.23-.1,83.21,83.21,0,0,0,19.85-16.47Z"/><path class="cls-8" d="M172.51,603.21l1.91-3.73c-.72-1-1.22-1.56-1.22-1.56a4.58,4.58,0,0,0-1.91-1.33,4.66,4.66,0,0,0-5.6,6.79,44.24,44.24,0,0,1,4.39,14,5.51,5.51,0,0,0,.06.71,5,5,0,0,0,9.54.93,4.86,4.86,0,0,0,.29-2.15,25.54,25.54,0,0,0-2.69-12.62Z"/><path class="cls-9" d="M47.26,533.05c-2.48.8-5.34-.55-6.81-3.2a6.63,6.63,0,0,1-.76-4.63,4.84,4.84,0,0,1,2.37-3.35,4.26,4.26,0,0,1,.82-.36c2.47-.79,5.34.56,6.81,3.21a6.73,6.73,0,0,1,.76,4.63,4.86,4.86,0,0,1-2.37,3.35A4.22,4.22,0,0,1,47.26,533.05Z"/><path class="cls-9" d="M61.48,537.14c-1.33,2.23-4.38,3.11-7.23,2.1a6.74,6.74,0,0,1-3.63-3,4.92,4.92,0,0,1-.44-4.09,5,5,0,0,1,.38-.81c1.33-2.23,4.38-3.11,7.23-2.09a6.65,6.65,0,0,1,3.63,3,4.89,4.89,0,0,1,.44,4.08A4.3,4.3,0,0,1,61.48,537.14Z"/><path class="cls-9" d="M40.38,514.16c-1.93-2.51-5.11-3.45-7.39-2.2a5.07,5.07,0,0,0-.54.36A4.7,4.7,0,0,0,30.68,516a6.23,6.23,0,0,0,.1,1.36H35l-1.6,4.33a5.6,5.6,0,0,0,6.23,1,3.84,3.84,0,0,0,.54-.35,4.7,4.7,0,0,0,1.77-3.63A7,7,0,0,0,40.38,514.16Z"/><path class="cls-8" d="M229.4,541.81a5,5,0,0,0-10.07-.19l4.16,3-4.67,1.14a49.15,49.15,0,0,1-5.15,13.42,5,5,0,1,0,8.66,5.17,61.45,61.45,0,0,0,7.07-22h0A5.3,5.3,0,0,0,229.4,541.81Z"/><path class="cls-8" d="M195.41,562.48a3.38,3.38,0,0,0-1.75.55l.34,2.86-2.21-.81a29.86,29.86,0,0,1-8.06,6.74,3.23,3.23,0,1,0,3,5.69c10.07-5.81,11.74-10,11.74-10a3.41,3.41,0,0,0-3.08-5Z"/><path class="cls-9" d="M219.91,594.46c-.82,3.16-4.17,5.28-8,5.06a8.41,8.41,0,0,1-5.42-2.3,6.11,6.11,0,0,1-2-4.76,5.83,5.83,0,0,1,.17-1.11c.82-3.15,4.17-5.28,8-5.06a8.4,8.4,0,0,1,5.41,2.3,6.12,6.12,0,0,1,2,4.77A5.85,5.85,0,0,1,219.91,594.46Z"/><path class="cls-9" d="M233.78,582.15c1.46,2.9.35,6.71-2.64,9.06a8.41,8.41,0,0,1-5.58,1.85,6.17,6.17,0,0,1-4.62-2.28,6.32,6.32,0,0,1-.6-.95c-1.47-2.91-.36-6.71,2.63-9.06a8.44,8.44,0,0,1,5.59-1.85,6.13,6.13,0,0,1,4.61,2.28A5.91,5.91,0,0,1,233.78,582.15Z"/><path class="cls-9" d="M247,572c1.2,3-.25,6.72-3.44,8.78a8.38,8.38,0,0,1-5.73,1.34,6.12,6.12,0,0,1-4.39-2.69,5.88,5.88,0,0,1-.51-1c-1.2-3,.25-6.72,3.44-8.78a8.45,8.45,0,0,1,5.73-1.34,6.11,6.11,0,0,1,4.39,2.7A4.89,4.89,0,0,1,247,572Z"/><path class="cls-9" d="M264,570.7c0,3.26-2.78,6.13-6.52,6.82a8.38,8.38,0,0,1-5.81-.93,6.13,6.13,0,0,1-3-4.15,5.25,5.25,0,0,1-.1-1.12c0-3.25,2.78-6.12,6.51-6.82a8.42,8.42,0,0,1,5.81.93,6.14,6.14,0,0,1,3.05,4.16A5.88,5.88,0,0,1,264,570.7Z"/><path class="cls-9" d="M203.74,594.81a5.89,5.89,0,0,0-2.66-4.31,8.73,8.73,0,0,0-5.79-1.43,8.41,8.41,0,0,0-6.35,3.58l4.6,2.87-4.93,2.71a6.38,6.38,0,0,0,2.06,2.32,8.79,8.79,0,0,0,5.79,1.43c4-.36,7.09-3.1,7.29-6.36A4.38,4.38,0,0,0,203.74,594.81Z"/><path class="cls-8" d="M33.91,616l.64-4.06A59.72,59.72,0,0,0,18.8,601.42l0,0a2.72,2.72,0,0,0-.5-.19,4.72,4.72,0,1,0-2.8,9s6,1.66,14,9.87a4.72,4.72,0,0,0,8.19-1.56,4.66,4.66,0,0,0-.34-3.6Z"/></g><g id="Layer_26" data-name="Layer 26"><path class="cls-1" d="M59,351.05s8.41,5.36,12.09,10.57c0,0-4.38,8.66-10.69,10.31S50.92,370,50.92,370,51.33,353.25,59,351.05Z"/><path class="cls-1" d="M65.43,376.14S54.9,378,54.09,380.38a6.1,6.1,0,0,0,0,4.19s3.56,4.76,14.09,3.81C68.18,388.38,69,381.16,65.43,376.14Z"/><path class="cls-1" d="M91.2,372.38s-2.59-8.2-5.69-8.77a12.3,12.3,0,0,0-5.34.1s-6,2.9-4.51,11.13C75.66,374.84,84.88,375.3,91.2,372.38Z"/><path class="cls-1" d="M43.23,369.85s-16.15,5-16.38,12.09,11.63,5.21,11.63,5.21,9.55-1.7,8.79-11.35C46.7,368.58,43.23,369.85,43.23,369.85Z"/><path class="cls-1" d="M143.48,355.78s-16.45-4.37-22.48.89,4.56,9.88,4.56,9.88a15,15,0,0,0,16.07-4.19C147.16,356.57,143.48,355.78,143.48,355.78Z"/><path class="cls-1" d="M99.31,389.83S89.47,378.61,80.62,380,76.73,390,76.73,390,81,397,92.8,394.23C101.65,392.19,99.31,389.83,99.31,389.83Z"/><path class="cls-1" d="M31.12,351.58s-3.18,9.28-14.24,19.54l2.85,2s15.19-2,18.75-10.79,0-11.91,0-11.91S34,349.53,31.12,351.58Z"/><path class="cls-1" d="M108.34,357.25s-10.3-3.46-18.24-.39c0,0-1.8,1.46,3,4.78a21.68,21.68,0,0,1,5.33,5.11s7.39,7.45,11-2.59C111.91,357.53,108.34,357.25,108.34,357.25Z"/><path class="cls-1" d="M191.83,382.18s-9.16-4.54-13.6-9.38c0,0,3.06-9,9.07-11.22s9.69,1,9.69,1S199.1,379.3,191.83,382.18Z"/><path class="cls-1" d="M225.46,388.06s10.89-3,11.37-5.62a6.65,6.65,0,0,0-.68-4.45s-4.54-4.7-15.58-2.66C220.57,375.33,220.86,383.08,225.46,388.06Z"/><path class="cls-1" d="M156.63,364s3.81,7.9,7,8.19a12.31,12.31,0,0,0,5.29-.59s5.5-3.44,2.8-11.47C171.69,360.1,162.47,360.49,156.63,364Z"/><path class="cls-1" d="M160,387.54s15.42,6.27,22.39,1.78-2.59-10.3-2.59-10.3-7.89-4.55-16.7,2.23C156.48,386.31,160,387.54,160,387.54Z"/><path class="cls-1" d="M107.2,385.28s17,2.82,22.19-3-6-9.39-6-9.39a14.53,14.53,0,0,0-15.34,5.64C103.43,384.83,107.2,385.28,107.2,385.28Z"/><path class="cls-1" d="M243.38,382.87s13.52,3.73,18.48-.76-3.75-8.42-3.75-8.42a12,12,0,0,0-13.21,3.57C240.36,382.19,243.38,382.87,243.38,382.87Z"/><path class="cls-1" d="M273.19,357.73s-14-2.41-18.23,2.52,4.93,8,4.93,8a11.68,11.68,0,0,0,12.61-4.8C276.3,358.11,273.19,357.73,273.19,357.73Z"/><path class="cls-1" d="M212.46,378s1.9-10.19,12-22.17l-3.36-1.9s-15.82,3.68-18.2,13.32,1.91,12.66,1.91,12.66S209.76,380.44,212.46,378Z"/><path class="cls-1" d="M239.59,371.82s6.55-7.87,3.87-15c0,0-1.62-1.75-7,1.61a30.79,30.79,0,0,1-7.86,3.46s-11.37,4.74,1.45,9.61C238.54,374.72,239.59,371.82,239.59,371.82Z"/><path class="cls-1" d="M141.88,380.58s10.75,2.49,18.17-1.3c0,0,1.57-1.61-3.7-4.47a23.72,23.72,0,0,1-6.07-4.58s-8.45-6.71-10.58,3.59C138.29,380.62,141.88,380.58,141.88,380.58Z"/><path class="cls-1" d="M230.61,356.47s-8.41-5.36-12.09-10.57c0,0,4.38-8.66,10.69-10.31s9.46,1.93,9.46,1.93S238.26,354.27,230.61,356.47Z"/><path class="cls-1" d="M224.16,331.38s10.53-1.83,11.34-4.24a6.1,6.1,0,0,0,0-4.19s-3.56-4.75-14.09-3.81C221.41,319.14,220.6,326.36,224.16,331.38Z"/><path class="cls-1" d="M198.39,335.14s2.59,8.2,5.69,8.77a12.3,12.3,0,0,0,5.34-.1s6-2.9,4.51-11.13C213.93,332.68,204.71,332.22,198.39,335.14Z"/><path class="cls-1" d="M246.36,337.67s16.14-5,16.38-12.09-11.63-5.21-11.63-5.21-9.56,1.7-8.79,11.35C242.89,338.94,246.36,337.67,246.36,337.67Z"/><path class="cls-1" d="M146.11,351.74s16.45,4.37,22.48-.89S164,341,164,341A15,15,0,0,0,148,345.16C142.42,351,146.11,351.74,146.11,351.74Z"/><path class="cls-1" d="M258.47,355.94s3.18-9.28,14.24-19.53l-2.85-2.05s-15.19,2.05-18.76,10.79,0,11.91,0,11.91S255.62,358,258.47,355.94Z"/><path class="cls-1" d="M181.25,350.27s10.3,3.47,18.24.39c0,0,1.8-1.46-3-4.78a21.68,21.68,0,0,1-5.33-5.11s-7.39-7.45-11.05,2.59C177.67,350,181.25,350.27,181.25,350.27Z"/><path class="cls-1" d="M97.76,325.34s9.16,4.54,13.59,9.39c0,0-3,9-9.07,11.21s-9.68-1-9.68-1S90.49,328.23,97.76,325.34Z"/><path class="cls-1" d="M64.13,319.46s-10.89,3-11.37,5.62a6.65,6.65,0,0,0,.68,4.45S58,334.24,69,332.19C69,332.19,68.72,324.44,64.13,319.46Z"/><path class="cls-1" d="M133,343.55s-3.81-7.9-7-8.19a12.21,12.21,0,0,0-5.29.6s-5.5,3.43-2.81,11.47C117.89,347.43,127.12,347,133,343.55Z"/><path class="cls-1" d="M129.62,320s-15.42-6.27-22.39-1.78,2.59,10.3,2.59,10.3,7.89,4.55,16.7-2.23C133.1,321.21,129.62,320,129.62,320Z"/><path class="cls-1" d="M182.38,322.24s-17-2.82-22.19,3,6,9.38,6,9.38A14.53,14.53,0,0,0,181.54,329C186.16,322.69,182.38,322.24,182.38,322.24Z"/><path class="cls-1" d="M46.21,324.65s-13.52-3.73-18.48.76,3.75,8.42,3.75,8.42a12,12,0,0,0,13.21-3.57C49.23,325.33,46.21,324.65,46.21,324.65Z"/><path class="cls-1" d="M16.4,349.79s14,2.41,18.23-2.52-4.93-8-4.93-8a11.68,11.68,0,0,0-12.61,4.8C13.29,349.41,16.4,349.79,16.4,349.79Z"/><path class="cls-1" d="M77.13,329.54s-1.9,10.18-12,22.16l3.35,1.9s15.82-3.68,18.2-13.32-1.91-12.66-1.91-12.66S79.83,327.08,77.13,329.54Z"/><path class="cls-1" d="M50,335.7s-6.55,7.88-3.87,15c0,0,1.62,1.76,7-1.61A30.79,30.79,0,0,1,61,345.63s11.37-4.73-1.46-9.61C51.05,332.8,50,335.7,50,335.7Z"/><path class="cls-1" d="M147.71,326.94s-10.76-2.49-18.17,1.3c0,0-1.58,1.61,3.7,4.47a23.54,23.54,0,0,1,6.06,4.58s8.46,6.72,10.59-3.59C151.3,326.9,147.71,326.94,147.71,326.94Z"/><path class="cls-1" d="M236,428.43s-8.41-5.35-12.09-10.57c0,0,4.38-8.66,10.69-10.3s9.47,1.92,9.47,1.92S243.66,426.24,236,428.43Z"/><path class="cls-1" d="M229.57,403.34s10.52-1.83,11.33-4.24a6.1,6.1,0,0,0,0-4.19s-3.56-4.75-14.09-3.8C226.81,391.11,226,398.32,229.57,403.34Z"/><path class="cls-1" d="M203.69,407.34s2.84,8.12,5.95,8.6a12.45,12.45,0,0,0,5.34-.26s5.89-3.08,4.18-11.26C219.16,404.42,209.93,404.24,203.69,407.34Z"/><path class="cls-1" d="M251.76,409.64s16.15-5,16.38-12.1-11.63-5.21-11.63-5.21-9.55,1.7-8.78,11.35C248.3,410.9,251.76,409.64,251.76,409.64Z"/><path class="cls-1" d="M154.21,424.76s16.45,4.37,22.48-.89-4.56-9.88-4.56-9.88a15,15,0,0,0-16.07,4.19C150.53,424,154.21,424.76,154.21,424.76Z"/><path class="cls-1" d="M195.68,389.66s9.84,11.22,18.69,9.83,3.9-10.05,3.9-10.05-4.24-6.92-16.08-4.19C193.34,387.29,195.68,389.66,195.68,389.66Z"/><path class="cls-1" d="M260.56,429s3.19-9.29,14.25-19.54L272,407.42s-15.2,2.05-18.76,10.8,0,11.91,0,11.91S257.71,431.06,260.56,429Z"/><path class="cls-1" d="M244.86,430.76s6.76,7.34,9,13.32c0,0-6.45,7.25-13,7.23s-8.65-4.28-8.65-4.28S236.9,430.93,244.86,430.76Z"/><path class="cls-1" d="M223,439.38s-10.64-.93-12,1.2a6.06,6.06,0,0,0-1.07,4s2.22,5.51,12.65,7.29C222.57,451.91,225.19,445.15,223,439.38Z"/><path class="cls-1" d="M206.85,435.27s9.72-1.37,23.87,3.84l.54-3.47s-8.72-12.62-18.13-11.82-10.61,5.4-10.61,5.4S203.74,433.66,206.85,435.27Z"/><path class="cls-1" d="M145.22,392.35s4.16,9,2.57,22.41l3.83.4s11-8.48,7.52-17.25-8.69-9.78-8.69-9.78S146.07,389.39,145.22,392.35Z"/><path class="cls-1" d="M186.65,422.24s10.31,3.46,18.24.38c0,0,1.8-1.45-3-4.78a21.68,21.68,0,0,1-5.33-5.11s-7.39-7.44-11.05,2.59C183.08,422,186.65,422.24,186.65,422.24Z"/><path class="cls-1" d="M105.86,398.36s9.16,4.54,13.6,9.38c0,0-3.06,9-9.07,11.22s-9.69-1-9.69-1S98.59,401.25,105.86,398.36Z"/><path class="cls-1" d="M72.23,392.48s-10.89,3-11.36,5.62a6.62,6.62,0,0,0,.67,4.45s4.54,4.71,15.58,2.66C77.12,405.21,76.83,397.46,72.23,392.48Z"/><path class="cls-1" d="M141.06,416.57s-3.81-7.9-7-8.19a12,12,0,0,0-5.29.6s-5.5,3.43-2.8,11.47C126,420.45,135.22,420.05,141.06,416.57Z"/><path class="cls-1" d="M137.72,393s-15.42-6.27-22.39-1.78,2.59,10.3,2.59,10.3,7.89,4.55,16.7-2.23C141.21,394.23,137.72,393,137.72,393Z"/><path class="cls-1" d="M94.05,484.39s17-1.13,21-8.05-7.48-7.9-7.48-7.9a15,15,0,0,0-13.88,9.12C90.3,484.81,94.05,484.39,94.05,484.39Z"/><path class="cls-1" d="M175,473.05s9.76,11.29,18.62,10,4-10,4-10-4.19-6.95-16.05-4.3C172.67,470.67,175,473.05,175,473.05Z"/><path class="cls-1" d="M124.17,463.51s.67-10.85-4.36-17.72c0,0-1.87-1.36-3.84,4.15a21.74,21.74,0,0,1-3.55,6.47s-5.27,9.07,5.37,10C124.82,467,124.17,463.51,124.17,463.51Z"/><path class="cls-1" d="M130.9,450.79s-2.58,16.45,3.38,22.21,9.44-4.88,9.44-4.88,2.62-8.72-6-15.75C131.29,447.12,130.9,450.79,130.9,450.79Z"/><path class="cls-1" d="M190.48,395.26s-17-2.82-22.19,3,6,9.38,6,9.38A14.53,14.53,0,0,0,189.64,402C194.26,395.71,190.48,395.26,190.48,395.26Z"/><path class="cls-1" d="M219.71,459.15s-5.74,8.46-11.14,12.2c0,0-8.5-4.23-9.89-10.5s2.33-9.46,2.33-9.46S217.82,451.55,219.71,459.15Z"/><path class="cls-1" d="M223.8,486.19s8.29-14.44,4.78-21.95S218,465.42,218,465.42s-5.56,7.21,0,16.85C222.11,489.48,223.8,486.19,223.8,486.19Z"/><path class="cls-1" d="M235.56,457s-5.08,16.46-.05,22.39,10.11-4.69,10.11-4.69a14.51,14.51,0,0,0-3.52-15.95C236.52,453.31,235.56,457,235.56,457Z"/><path class="cls-1" d="M57,392.38s-13.53-3.72-18.48.77,3.75,8.41,3.75,8.41A12,12,0,0,0,55.49,398C60,393.06,57,392.38,57,392.38Z"/><path class="cls-1" d="M28.13,393.63s-8.47-2.95-15-.32c0,0-1.48,1.24,2.47,4.07A18.12,18.12,0,0,1,20,401.74s6.07,6.34,9.09-2.21C31.06,393.88,28.13,393.63,28.13,393.63Z"/><path class="cls-1" d="M27.19,417.53s14,2.4,18.24-2.53-4.94-8-4.94-8a11.66,11.66,0,0,0-12.6,4.81C24.09,417.14,27.19,417.53,27.19,417.53Z"/><path class="cls-1" d="M85.23,402.55s-1.89,10.19-12,22.17l3.36,1.9s15.82-3.68,18.2-13.32-1.92-12.66-1.92-12.66S87.93,400.1,85.23,402.55Z"/><path class="cls-1" d="M50.26,462s7.8-3.63,8-6.77a12.31,12.31,0,0,0-.78-5.29s-3.65-5.56-11.62-3.05C45.83,446.92,46.56,456.13,50.26,462Z"/><path class="cls-1" d="M98.18,431.19s-16.45-4.37-22.48.89S80.26,442,80.26,442a15,15,0,0,0,16.07-4.19C101.86,432,98.18,431.19,98.18,431.19Z"/><path class="cls-1" d="M125.54,438.09s-6.36-13.5-15.25-14.6-6.52,8.58-6.52,8.58,2.16,7.82,14.29,8.46C127.14,441,125.54,438.09,125.54,438.09Z"/><path class="cls-1" d="M63,432.65s-10.3-3.46-18.24-.38c0,0-1.8,1.46,3,4.78a21.68,21.68,0,0,1,5.33,5.11s7.39,7.44,11-2.59C66.62,432.94,63,432.65,63,432.65Z"/><path class="cls-1" d="M52,472.47s7.88,7.49,16.37,8c0,0,2.25-.56-.71-5.61A21.78,21.78,0,0,1,65,468s-3.55-9.87-11.11-2.31C48.91,470.7,52,472.47,52,472.47Z"/><path class="cls-1" d="M61.91,460.69s17,2.82,22.18-3-6-9.38-6-9.38A14.53,14.53,0,0,0,62.75,454C58.13,460.24,61.91,460.69,61.91,460.69Z"/><path class="cls-1" d="M102.31,447.46s-8.68-1.24-10.68,1.23a12.17,12.17,0,0,0-2.46,4.72s-.21,6.48,8,8.72C97.14,462.13,102,454.25,102.31,447.46Z"/><path class="cls-1" d="M96.26,468.41s-15.42-6.27-22.39-1.78,2.59,10.3,2.59,10.3,7.89,4.55,16.7-2.23C99.75,469.64,96.26,468.41,96.26,468.41Z"/><path class="cls-1" d="M58.1,408.72s-6.55,7.88-3.87,15c0,0,1.62,1.75,7-1.61a30.79,30.79,0,0,1,7.86-3.46s11.37-4.74-1.45-9.61C59.15,405.82,58.1,408.72,58.1,408.72Z"/><path class="cls-1" d="M149.79,460.53s7.44,12.94,16.39,13.32,5.8-9.09,5.8-9.09-2.8-7.62-14.94-7.27C148,457.76,149.79,460.53,149.79,460.53Z"/><path class="cls-1" d="M147,450.88s-8.09-6.25-11.49-11.88c0,0,4.77-8.22,11.1-9.21s9.3,2.92,9.3,2.92S154.66,449.48,147,450.88Z"/><path class="cls-1" d="M259.2,468.11s-8.08-6.26-11.48-11.88c0,0,4.76-8.22,11.1-9.21s9.29,2.92,9.29,2.92S266.9,466.71,259.2,468.11Z"/><path class="cls-1" d="M42.63,440.13s-8.42-5-16.17-18l-2.59,2.36s-1.14,15.29,6.68,20.59,11.65,2.45,11.65,2.45S44.05,443.34,42.63,440.13Z"/><path class="cls-1" d="M33.28,453s6.76,7.33,9,13.32c0,0-6.45,7.24-13,7.22s-8.66-4.28-8.66-4.28S25.32,453.16,33.28,453Z"/><path class="cls-1" d="M42.07,493.75S34,487.49,30.59,481.87c0,0,4.76-8.22,11.1-9.21S51,475.58,51,475.58,49.77,492.34,42.07,493.75Z"/><path class="cls-1" d="M176.86,463.26s11.27-.78,12.25-3.28a6.64,6.64,0,0,0,.22-4.5s-3.53-5.5-14.76-5.67C174.57,449.81,173.34,457.47,176.86,463.26Z"/><path class="cls-1" d="M126.79,436.35s11.27-.78,12.25-3.28a6.61,6.61,0,0,0,.22-4.49s-3.53-5.51-14.76-5.67C124.5,422.91,123.27,430.56,126.79,436.35Z"/><path class="cls-1" d="M168,450.82s3.86-9.61,16.13-19.37l-2.92-2.52s-16.24.49-20.47,9.48-.61,12.79-.61,12.79S164.89,452.7,168,450.82Z"/><path class="cls-1" d="M194.87,450.11s8-6.43,6.75-13.94c0,0-1.25-2-7.17.2a30.65,30.65,0,0,1-8.38,1.85s-12.08,2.41-.47,9.71C193.28,452.75,194.87,450.11,194.87,450.11Z"/><path class="cls-2" d="M250.27,495.5h0a63.06,63.06,0,0,0,3.27-5.8c1.11,2.31,3.27,5.8,3.27,5.8h0a.22.22,0,0,1,.05.08,3.81,3.81,0,1,1-7.13,1.87A3.67,3.67,0,0,1,250.27,495.5Z"/><path class="cls-2" d="M72.35,494.08h0a70,70,0,0,0,3.54-6.27c1.2,2.5,3.54,6.27,3.54,6.27h0a.41.41,0,0,0,0,.09,4,4,0,0,1,.53,2,4.12,4.12,0,1,1-7.66-2.11Z"/><path class="cls-2" d="M121.57,486.71h0a52.48,52.48,0,0,0,2.67-4.73c.91,1.89,2.67,4.73,2.67,4.73h0l0,.06a3.17,3.17,0,0,1,.4,1.53,3.11,3.11,0,1,1-6.22,0A3.06,3.06,0,0,1,121.57,486.71Z"/><path class="cls-2" d="M102,498.32h0a40.8,40.8,0,0,0,2.16-3.84c.74,1.53,2.17,3.84,2.17,3.84h0l0,.05a2.5,2.5,0,0,1,.33,1.24,2.53,2.53,0,0,1-5.05,0A2.45,2.45,0,0,1,102,498.32Z"/><path class="cls-2" d="M49.88,501.26h0A40.13,40.13,0,0,0,52,497.43c.74,1.53,2.17,3.83,2.17,3.83h0l0,.06a2.42,2.42,0,0,1,.32,1.23,2.52,2.52,0,1,1-5,0A2.48,2.48,0,0,1,49.88,501.26Z"/><path class="cls-2" d="M157.66,487h0a69.25,69.25,0,0,0,3.54-6.26c1.2,2.49,3.54,6.26,3.54,6.26h0a.41.41,0,0,1,.05.09,4.12,4.12,0,1,1-7.12-.09Z"/><path class="cls-2" d="M176.59,495.12h0a45.64,45.64,0,0,0,2.4-4.24c.81,1.69,2.39,4.24,2.39,4.24h0l0,.06a2.84,2.84,0,0,1,.35,1.37,2.79,2.79,0,1,1-5.57,0A2.89,2.89,0,0,1,176.59,495.12Z"/><path class="cls-2" d="M210.93,487.58h0a48,48,0,0,0,2.39-4.24c.82,1.69,2.4,4.24,2.4,4.24h0l0,.06a2.74,2.74,0,0,1,.36,1.37,2.79,2.79,0,0,1-5.58,0A2.74,2.74,0,0,1,210.93,487.58Z"/><path class="cls-2" d="M98.21,314.39a25,25,0,0,0-6.83,14.74,55.55,55.55,0,0,0-.27,8.27c0,2.77,0,5.56.86,8a8.62,8.62,0,0,0,5.23,5.24c2.46.9,5.28.92,8.1,1.72a10.66,10.66,0,0,1,3.93,2.05,16.13,16.13,0,0,1,2.93,3.21c1.65,2.31,3,4.69,5.11,6.27s4.75,2.34,7.36,3.37a18.71,18.71,0,0,1,3.86,2,9,9,0,0,1,3,3.37l.46,1,.22.5.16.54.3,1.08.14,1.13a8.15,8.15,0,0,1-1,4.43,11.19,11.19,0,0,1-2.95,3.31,19,19,0,0,1-3.7,2.24,31.49,31.49,0,0,1-4,1.57c-1.42.43-2.81.61-4.15.89a11.94,11.94,0,0,0-3.7,1.22,11.81,11.81,0,0,0-2.83,2.56,1.4,1.4,0,0,0-.31,1.29,3.73,3.73,0,0,0,1.07,1.26c1,.82,2.22,1.56,3.36,2.39a18.47,18.47,0,0,1,5.76,6.4l.26.49.2.51c.13.35.27.69.39,1a10.79,10.79,0,0,1,.43,2.18,10.49,10.49,0,0,1,0,2.24c0,.38-.14.74-.2,1.11l-.12.55-.19.53a11.7,11.7,0,0,1-2.2,3.83,16.53,16.53,0,0,1-3.29,2.86c-4.84,3.17-10.48,4.52-16,5.33S88.54,426.16,83,426.74c-1.37.15-2.74.31-4.11.51a19.35,19.35,0,0,0-3.89.89,6.55,6.55,0,0,0-3,2.13,9,9,0,0,0-1.47,3.53,58.53,58.53,0,0,1-2,8.21,13.44,13.44,0,0,1-2.35,3.69A16.91,16.91,0,0,0,64,449c-1.21,2.32-1.5,5.2-3.11,7.79s-4.38,4-6.71,5.37a10,10,0,0,0-3,2.39,4.55,4.55,0,0,0-.8,3.51,13.15,13.15,0,0,0,1.19,3.77A14.91,14.91,0,0,0,54,475a23.71,23.71,0,0,1,2.72,3.23,8.81,8.81,0,0,1,1.37,4,10.26,10.26,0,0,1-.6,4.16c-.44,1.33-1,2.59-1.49,3.9.39-1.33.92-2.63,1.28-4a9.8,9.8,0,0,0,.39-4.05,8.49,8.49,0,0,0-1.45-3.74,23.12,23.12,0,0,0-2.78-3,15.65,15.65,0,0,1-2.75-3.28,14,14,0,0,1-1.48-4.08,5.79,5.79,0,0,1,.85-4.44,11.39,11.39,0,0,1,3.33-2.9c1.2-.75,2.4-1.42,3.49-2.18a14.23,14.23,0,0,0,1.52-1.25A7.07,7.07,0,0,0,59.6,456c1.38-2.16,1.7-5,3-7.67a18.39,18.39,0,0,1,2.43-3.57,11.94,11.94,0,0,0,2.12-3.3,59.46,59.46,0,0,0,1.91-8,10.58,10.58,0,0,1,1.73-4.1,8,8,0,0,1,3.69-2.62,20.65,20.65,0,0,1,4.21-1c1.38-.21,2.77-.37,4.16-.52,5.56-.58,11.11-.87,16.56-1.66s10.88-2.12,15.38-5.08a15.18,15.18,0,0,0,3-2.59,10.31,10.31,0,0,0,1.92-3.35l.17-.45.09-.47c.06-.31.15-.62.18-.94a8.8,8.8,0,0,0,0-1.92,11.39,11.39,0,0,0-.37-1.9l-.35-.91-.17-.45-.24-.43a17,17,0,0,0-5.29-5.87c-1.11-.81-2.28-1.53-3.44-2.45a4.79,4.79,0,0,1-1.53-1.92,2.36,2.36,0,0,1-.07-1.44,2.11,2.11,0,0,1,.23-.64,2.18,2.18,0,0,1,.31-.54,8.92,8.92,0,0,1,1.55-1.67,14.52,14.52,0,0,1,1.76-1.34,13.19,13.19,0,0,1,4.17-1.41c1.39-.28,2.76-.47,4-.85a32.24,32.24,0,0,0,3.78-1.49,13.32,13.32,0,0,0,6-4.93,6.64,6.64,0,0,0,.77-3.6l-.11-.94-.26-.92-.14-.47-.2-.45-.4-.89c-1.11-2.32-3.52-3.64-6-4.61s-5.32-1.77-7.73-3.58-3.83-4.4-5.4-6.58a11.07,11.07,0,0,0-6.07-4.7c-2.53-.74-5.39-.75-8.19-1.74a10,10,0,0,1-6.14-6.17c-.91-2.87-.67-5.76-.6-8.52a56.14,56.14,0,0,1,.64-8.36,24.58,24.58,0,0,1,7.62-14.63Z"/><path class="cls-2" d="M197.38,321.43A16.52,16.52,0,0,0,195,327.1a12.22,12.22,0,0,0,.4,6c1.21,3.9,3.56,7.41,5.13,11.36.21.49.37,1,.54,1.5a15.6,15.6,0,0,1,.45,1.56,13.35,13.35,0,0,1,.39,3.29,19,19,0,0,1-1.56,6.28c-.37,1-.7,1.93-1,2.9a11.24,11.24,0,0,0-.38,2.89,25.22,25.22,0,0,0,1,6,17.52,17.52,0,0,1,.61,6.45,13.44,13.44,0,0,1-2.53,6c-1.23,1.76-2.65,3.3-3.77,5a8.1,8.1,0,0,0-1.64,5.39,25.19,25.19,0,0,0,1.7,5.77c.73,1.94,1.5,3.85,2.36,5.73a50.35,50.35,0,0,0,2.86,5.45,25.66,25.66,0,0,0,3.67,4.82,10.08,10.08,0,0,0,5,2.89,43.57,43.57,0,0,0,6.11.62,18.06,18.06,0,0,1,3.21.53,12.63,12.63,0,0,1,3.05,1.28,22.43,22.43,0,0,1,5,4,34.07,34.07,0,0,1,4,5,16,16,0,0,1,2.55,6,4,4,0,0,1,.08.85v.86a10.49,10.49,0,0,1-.31,1.69,13.89,13.89,0,0,1-1.33,3,25.48,25.48,0,0,0-2.68,5.45,14.48,14.48,0,0,0-.51,2.89,5,5,0,0,0,.61,2.63c.88,1.66,2.47,3.23,3.41,5.25a12,12,0,0,1,1.09,6.48c-.22,2.17-.75,4.2-1,6.19a12.17,12.17,0,0,0-.13,2.94,8.05,8.05,0,0,0,.8,2.79,15,15,0,0,0,3.92,4.55,35.08,35.08,0,0,1,4.59,4.3,7.81,7.81,0,0,1,1.43,2.83,7,7,0,0,1,.06,3.12,6.87,6.87,0,0,0-.26-3.06,7.51,7.51,0,0,0-1.56-2.62,33.35,33.35,0,0,0-4.76-4,15.94,15.94,0,0,1-4.43-4.63,9.4,9.4,0,0,1-1.1-3.14A13.45,13.45,0,0,1,230,469c.23-2.16.84-4.17,1-6.15a10.5,10.5,0,0,0-.94-5.7,15.84,15.84,0,0,0-1.58-2.53,20.21,20.21,0,0,1-1.81-2.68,6.58,6.58,0,0,1-.78-3.38,16.12,16.12,0,0,1,.57-3.26c1.18-4.27,4.91-7.35,4.18-11.22a14.59,14.59,0,0,0-2.32-5.4,33,33,0,0,0-3.78-4.79,21.11,21.11,0,0,0-4.68-3.78,12.72,12.72,0,0,0-5.65-1.62,45.74,45.74,0,0,1-6.32-.64,12.74,12.74,0,0,1-1.59-.5c-.52-.23-1-.49-1.52-.75s-.92-.62-1.36-1l-1.22-1.1a27,27,0,0,1-3.9-5.1,54.5,54.5,0,0,1-2.95-5.61c-.87-1.91-1.66-3.86-2.39-5.83-.37-1-.72-2-1.07-3a15.16,15.16,0,0,1-.46-1.56c-.06-.27-.14-.54-.2-.81l-.07-.85a9.65,9.65,0,0,1,1.89-6.33c1.22-1.8,2.64-3.33,3.79-5a11.87,11.87,0,0,0,2.27-5.37,16,16,0,0,0-.58-5.91,25.79,25.79,0,0,1-1.08-6.32,13,13,0,0,1,.43-3.29c.29-1,.64-2,1-3a17.47,17.47,0,0,0,1.47-5.78,10.63,10.63,0,0,0-.36-2.9c-.12-.47-.28-1-.44-1.44s-.31-1-.5-1.44c-1.29-3.88-3.44-7.55-4.48-11.7a12.8,12.8,0,0,1-.06-6.33A16.72,16.72,0,0,1,197.38,321.43Z"/><path class="cls-2" d="M194.19,325.91a10.73,10.73,0,0,1-2.07,3.56,18.07,18.07,0,0,1-3.11,2.75c-2.25,1.61-4.65,2.95-6.71,4.61a14.21,14.21,0,0,0-4.83,6,24.11,24.11,0,0,0-1.73,7.7,66.16,66.16,0,0,0,0,8.09,46.26,46.26,0,0,1-.12,8.31,13.59,13.59,0,0,1-1.21,4.13,11.86,11.86,0,0,1-2.58,3.48,32.77,32.77,0,0,1-6.93,4.66c-2.38,1.34-4.79,2.67-7.3,3.82a38.07,38.07,0,0,1-3.87,1.55c-.66.23-1.34.43-2,.61a6.73,6.73,0,0,1-2.3,0,6.46,6.46,0,0,0-1.81,0,1.69,1.69,0,0,0-1.17.78c-.59,1.07-1.24,2.37-1.82,3.55a32.5,32.5,0,0,0-2.71,7.51,19.13,19.13,0,0,0,0,7.83,65,65,0,0,1,1.2,8.18,41.2,41.2,0,0,1-.1,4.16c-.06.7-.11,1.35-.23,2.09a14.48,14.48,0,0,1-.58,2,7.39,7.39,0,0,0-.35,1.92,3.19,3.19,0,0,0,.44,1.83,4.58,4.58,0,0,1,.71,2,3.42,3.42,0,0,1-.64,1.95,3.32,3.32,0,0,0,.43-1.93,4.42,4.42,0,0,0-.86-1.77,3.73,3.73,0,0,1-.69-2.05,8.36,8.36,0,0,1,.21-2.11,15.18,15.18,0,0,0,.38-1.95c0-.62,0-1.34,0-2,0-1.35-.1-2.69-.25-4a66.37,66.37,0,0,0-1.18-8,20.77,20.77,0,0,1,0-8.42,33.79,33.79,0,0,1,2.83-7.86l.92-1.85.47-.91.24-.46c.08-.15.16-.3.28-.5a3.27,3.27,0,0,1,2.14-1.43,7.45,7.45,0,0,1,2.26,0,5.69,5.69,0,0,0,1.77,0c.64-.17,1.28-.35,1.91-.57a37,37,0,0,0,3.72-1.49c2.45-1.12,4.82-2.43,7.19-3.77a31.18,31.18,0,0,0,6.63-4.43,10.83,10.83,0,0,0,3.34-6.74,45.68,45.68,0,0,0,.11-8,67.12,67.12,0,0,1,0-8.27,25.45,25.45,0,0,1,1.86-8.19,15.8,15.8,0,0,1,5.3-6.61c2.34-1.58,4.85-2.68,7.17-4.06A13.24,13.24,0,0,0,194.19,325.91Z"/><path class="cls-2" d="M193.55,397.57a8.16,8.16,0,0,1,1.64,2.54,3.87,3.87,0,0,1-.18,3.07,7.26,7.26,0,0,1-2,2.36,21.33,21.33,0,0,1-2.55,1.7c-1.76,1-3.63,1.77-5.21,2.86a6.54,6.54,0,0,0-1,.9,11.73,11.73,0,0,0-.86,1.14,7.37,7.37,0,0,0-1.07,2.58,9.43,9.43,0,0,0,.95,5.54c.77,1.8,1.78,3.56,2.45,5.52a9.73,9.73,0,0,1,.58,3.09,7.32,7.32,0,0,1-.64,3.13,9.81,9.81,0,0,1-.76,1.39c-.29.42-.56.84-.86,1.25-.58.82-1.19,1.63-1.8,2.43-2.47,3.17-5.08,6.2-7.22,9.55a16.9,16.9,0,0,0-2.54,5.19c-.39,1.83.19,3.76.64,5.71a19.1,19.1,0,0,1,.67,6.09,48.87,48.87,0,0,1-1.09,6,19.46,19.46,0,0,0-.51,2.89,18.17,18.17,0,0,0,.09,2.94c.09,1,.2,2,.19,3a8.27,8.27,0,0,1-.6,3c.63-1.95.24-3.95-.11-5.91a19,19,0,0,1-.33-3,20.59,20.59,0,0,1,.29-3.05,48.16,48.16,0,0,0,1.07-5.85,17.64,17.64,0,0,0-.65-5.79c-.22-1-.47-1.95-.64-3a8.4,8.4,0,0,1,0-3.16,18,18,0,0,1,2.68-5.55c2.19-3.41,4.82-6.47,7.26-9.61.61-.79,1.21-1.59,1.78-2.4a14.44,14.44,0,0,0,1.53-2.46,7.22,7.22,0,0,0,0-5.5c-.62-1.83-1.61-3.58-2.42-5.45a10.48,10.48,0,0,1-1-6.12,8.44,8.44,0,0,1,1.22-2.93,14.73,14.73,0,0,1,.94-1.26,7.6,7.6,0,0,1,1.23-1.06,58,58,0,0,1,5.31-2.92c1.73-.89,3.58-1.82,4.59-3.43a3.49,3.49,0,0,0,.37-2.74A8,8,0,0,0,193.55,397.57Z"/><path class="cls-2" d="M49.59,318.23c-.62,2.79.46,5.49.28,8.41a10.29,10.29,0,0,1-1.16,4.22,20.52,20.52,0,0,1-2.53,3.52c-4.14,3.78-5,9.6-3.71,14.87s4,10.3,5.38,15.91a84.5,84.5,0,0,1,1,8.42c.31,2.72.92,5.41,2.58,7.45s4,3.65,5.93,5.92a12,12,0,0,1,1.26,1.82,12.52,12.52,0,0,1,1,2,9.17,9.17,0,0,1,.78,4.43,10.4,10.4,0,0,1-1.31,4.28,32.52,32.52,0,0,1-2.36,3.61c-.84,1.13-1.68,2.24-2.45,3.38-.37.57-.76,1.14-1.08,1.73l-.5.89c-.13.3-.25.57-.36.87a16.07,16.07,0,0,0-.65,3.94c-.08,1.37-.11,2.77-.15,4.18s-.11,2.83-.29,4.26A12,12,0,0,1,50,426.59c-1.65,2.72-4.5,3.82-6.25,5.8a4,4,0,0,0-1,3.64,12.33,12.33,0,0,0,1.72,3.77,12.5,12.5,0,0,1-2.13-3.66c-.07-.36-.14-.72-.2-1.09a6.9,6.9,0,0,1,.07-1.11,3.86,3.86,0,0,1,.36-1.07,4.49,4.49,0,0,1,.57-1,22.18,22.18,0,0,1,3-3,10.11,10.11,0,0,0,2.5-3,11.39,11.39,0,0,0,1.06-3.75c.17-1.35.24-2.73.28-4.12s.07-2.8.16-4.23a17,17,0,0,1,.72-4.33,34.7,34.7,0,0,1,4.6-7.27c1.61-2.22,3.24-4.54,3.39-7.1a7.81,7.81,0,0,0-.68-3.76,10.47,10.47,0,0,0-.89-1.77,10.23,10.23,0,0,0-1.12-1.63c-1.7-2.05-4.12-3.6-6-6a12,12,0,0,1-2-3.95,22.67,22.67,0,0,1-.84-4.25,81.55,81.55,0,0,0-1-8.26c-1.26-5.33-4.06-10.3-5.37-15.92a18.9,18.9,0,0,1-.2-8.66,15,15,0,0,1,.64-2.1l.4-1a9.48,9.48,0,0,1,.52-1,21.44,21.44,0,0,1,2.68-3.42,20.35,20.35,0,0,0,2.65-3.08,9.29,9.29,0,0,0,1.37-3.73,21.94,21.94,0,0,0,.06-4.14A12.09,12.09,0,0,1,49.59,318.23Z"/><path class="cls-10" d="M90.54,341.37c0,3.6-5.78,11.15-5.76,14,0,6.1,8.28,10.06,9.61,16,.76,3.41-.83,5.43.14,8.16.7,1.93,3.91,4.72,5.12,6.39s3.13,5.73,4.13,6.73c2.45,2.46,4.77,1.64,7.23,4"/><path class="cls-2" d="M43.43,353.41c.09,1.88.17,3.77.12,5.66a14.09,14.09,0,0,1-1.06,5.66,11.28,11.28,0,0,1-4,4.16c-1.56,1.08-3.17,2-4.76,3-3.16,2-6.34,4.06-8.73,6.95a15.37,15.37,0,0,0-2.7,4.86,18.78,18.78,0,0,0-.92,5.52,18.75,18.75,0,0,1,.8-5.56,15.63,15.63,0,0,1,2.63-5c2.36-3,5.53-5.15,8.66-7.21,1.57-1,3.16-2,4.66-3.12a10.58,10.58,0,0,0,3.64-4,13.29,13.29,0,0,0,.86-5.35c0-1.85-.12-3.72-.25-5.59Z"/><path class="cls-2" d="M240.25,318.87a21.23,21.23,0,0,0-1.34,8.12,31.64,31.64,0,0,0,1.53,8.06c1.41,5.31,3.7,10.43,5.18,15.89a31.22,31.22,0,0,1,1.21,8.46,19.73,19.73,0,0,1-1.91,8.4l-.47,1-.55.93c-.36.63-.76,1.23-1.16,1.8a24.94,24.94,0,0,0-2.14,3.44,9.83,9.83,0,0,0-.29,7.57c.87,2.5,2.56,4.77,3.66,7.48a12.41,12.41,0,0,1,.65,2.12c.16.73.25,1.41.35,2.12.18,1.4.29,2.81.38,4.21s.18,2.77.32,4.14.38,2.65.64,4.08a34.34,34.34,0,0,1,.29,8.53,30.55,30.55,0,0,1-1.87,8.36,9.6,9.6,0,0,1-2.54,3.67c-1.13,1-2.23,1.77-3.3,2.62-4.41,3.2-7.1,8.35-10.79,12.52,1.6-2.29,3-4.7,4.48-7.07a29.35,29.35,0,0,1,5.35-6.6c1.07-.95,2.29-1.7,3.25-2.58a8,8,0,0,0,2.17-3.14,28.92,28.92,0,0,0,1.75-7.91,32.68,32.68,0,0,0-.27-8.15c-.24-1.31-.51-2.78-.65-4.17s-.23-2.82-.33-4.2-.19-2.76-.37-4.12c-.09-.67-.18-1.37-.32-2a11.23,11.23,0,0,0-.58-1.87c-1-2.47-2.7-4.76-3.68-7.54a11.39,11.39,0,0,1,.34-8.71,26.83,26.83,0,0,1,2.27-3.65c.4-.57.77-1.14,1.1-1.72l.52-.87.43-.9a18.19,18.19,0,0,0,1.77-7.78,29.56,29.56,0,0,0-1.16-8.05c-1.44-5.31-3.71-10.43-5.19-15.89a32.46,32.46,0,0,1-.87-8.45A20.11,20.11,0,0,1,240.25,318.87Z"/><path class="cls-2" d="M246.32,415a9.61,9.61,0,0,1,.18,3.71,21.2,21.2,0,0,0-.05,3.47,13.77,13.77,0,0,0,2.28,6.43,49.53,49.53,0,0,0,4.46,5.44,13.18,13.18,0,0,1,3.29,6.26l-.06-.08c1.34.81,2.8,1.41,4.22,2.09a13.35,13.35,0,0,1,3.93,2.61,13.41,13.41,0,0,0-4-2.49,46.42,46.42,0,0,1-4.3-2l-.05,0v-.05a13,13,0,0,0-3.38-6,50.13,50.13,0,0,1-4.66-5.37,14.62,14.62,0,0,1-2.56-6.71,22.94,22.94,0,0,1,0-3.61,8.69,8.69,0,0,0-.21-3.3Z"/><path class="cls-2" d="M207.08,416.83a5.48,5.48,0,0,1,1.14,1.42,3,3,0,0,1,.46,1.85,5.78,5.78,0,0,1-1.59,3.4,17.4,17.4,0,0,1-6,3.91c-.55.23-1.1.44-1.67.63s-1.19.35-1.64.52a5.39,5.39,0,0,0-2.41,2.05c-.34.44-.59,1-.95,1.42s-.72.94-1.12,1.39a5.24,5.24,0,0,1-3,1.9,5.34,5.34,0,0,0,2.45-2.29c.29-.48.56-1,.82-1.51a12.67,12.67,0,0,1,1-1.5,6.43,6.43,0,0,1,2.85-2.39c.64-.24,1.14-.33,1.69-.53s1.07-.39,1.6-.61a16.27,16.27,0,0,0,5.63-3.66A5.11,5.11,0,0,0,207.08,416.83Z"/><path class="cls-2" d="M154.36,315a23.89,23.89,0,0,0,.33,11.7,19.65,19.65,0,0,0,6.23,9.73c3,2.51,6.58,4.27,9.69,6.82a12.48,12.48,0,0,1,3.66,4.83,16.76,16.76,0,0,1,1.09,6h-1a15.53,15.53,0,0,0-.91-5.64,11.43,11.43,0,0,0-3.33-4.59c-3-2.53-6.51-4.39-9.52-7a19.91,19.91,0,0,1-6.15-10A24,24,0,0,1,154.36,315Z"/><path class="cls-2" d="M104.93,422.52a14.19,14.19,0,0,0-2.43,2,5.61,5.61,0,0,0-1.46,2.56,6.51,6.51,0,0,0,0,2.88,13.23,13.23,0,0,0,1.07,2.84c.92,1.86,2.06,3.64,3.07,5.51a16.43,16.43,0,0,1,2.15,6.13,19.34,19.34,0,0,1-.87,6.41A41.1,41.1,0,0,0,105,456.9a9,9,0,0,0,.07,3,9.73,9.73,0,0,0,.57,1.39,4.33,4.33,0,0,1,.46,1.71,4.88,4.88,0,0,1-.32,1.73,2,2,0,0,1-.66.82,7.32,7.32,0,0,1-.69.49c-.45.29-.9.55-1.31.85a4.52,4.52,0,0,0-1.05.86l-.14.2-.14,0a3,3,0,0,0-1.33.57,3.05,3.05,0,0,1-1.64.49l.1,0a2.28,2.28,0,0,0-.45.91,10.29,10.29,0,0,1-.4,1,3.18,3.18,0,0,1-1.54,1.59,3.07,3.07,0,0,0,1.36-1.67,9.08,9.08,0,0,0,.31-1.05,2.76,2.76,0,0,1,.47-1.1l0,0,.08,0a2.63,2.63,0,0,0,1.32-.63,3.81,3.81,0,0,1,1.48-.92l-.28.21c.69-1.18,1.75-1.53,2.59-2.13a2.92,2.92,0,0,0,1-.81,3.94,3.94,0,0,0,.26-1.36c0-.87-.67-1.71-1-2.86a5.88,5.88,0,0,1-.19-1.7,11.14,11.14,0,0,1,.09-1.63,40.7,40.7,0,0,1,1.48-6.23,18.63,18.63,0,0,0,.83-6.06,15.4,15.4,0,0,0-2-5.73c-1-1.84-2.13-3.62-3.09-5.55a13.67,13.67,0,0,1-1.14-3.06,5.62,5.62,0,0,1,.11-3.37,6.33,6.33,0,0,1,2-2.65A12.41,12.41,0,0,1,104.93,422.52Z"/><path class="cls-2" d="M237.69,324c-.37,1.26-.43,2.58-.84,3.83a6.75,6.75,0,0,1-2.41,3.05,33.36,33.36,0,0,1-6.95,3.64,30.78,30.78,0,0,0-3.51,1.71,14.39,14.39,0,0,0-3,2.43c-.91.92-1.68,2-2.57,3s-1.76,1.94-2.54,3a12.36,12.36,0,0,0-1.86,3.35c-.22.6-.38,1.22-.57,1.86s-.41,1.26-.67,1.87a15.44,15.44,0,0,1-4.67,6.4c-2.11,1.61-4.54,2.75-6.21,4.62s-2,4.53-1.95,7.06h-1a18.08,18.08,0,0,1,.43-4,8.22,8.22,0,0,1,1.89-3.64c1.89-2,4.37-3.08,6.41-4.61a14.63,14.63,0,0,0,4.56-6.07c.26-.59.48-1.2.68-1.81s.37-1.25.61-1.88a13,13,0,0,1,2-3.45c.82-1,1.74-2,2.61-2.95s1.68-2,2.62-2.93a15,15,0,0,1,3.11-2.43,31.14,31.14,0,0,1,3.56-1.68,33.32,33.32,0,0,0,7-3.51,6.59,6.59,0,0,0,2.42-3C237.22,326.57,237.3,325.24,237.69,324Z"/></g><g id="Layer_27" data-name="Layer 27"><path class="cls-3" d="M45.48,258.73l7.78-3a10.18,10.18,0,0,0-3.36-4.2l-.07-.06A11.37,11.37,0,0,0,48,250.43c-1-.47-2.08-.88-3.07-1.28a26.66,26.66,0,0,1-5.95-3l-.68-.53a19.72,19.72,0,0,1-3-3.38,24.65,24.65,0,0,0-3.16-3.64,10.29,10.29,0,0,0-.82-.66,10,10,0,0,0-14.61,13.07,9.29,9.29,0,0,0,2.73,3.06,19,19,0,0,0,5,2.36,26.44,26.44,0,0,1,2.76,1.1,18.72,18.72,0,0,1,2.61,1.58A24.6,24.6,0,0,1,33,261.86a21,21,0,0,1,1.76,2.1,18,18,0,0,0,3.6,3.78h0a9.85,9.85,0,0,0,7.41,1.72,10,10,0,0,0,6.45-3.95Z"/><path class="cls-5" d="M51,256.62c-.07-.15-.14-.3-.22-.44a7.8,7.8,0,0,0-2.32-2.69h0a8.48,8.48,0,0,0-1.46-.86c-1-.45-2-.85-3-1.24a25.5,25.5,0,0,1-7.27-3.86,21.88,21.88,0,0,1-3.39-3.78,23.66,23.66,0,0,0-2.86-3.32,7.67,7.67,0,0,0-11.23,1.22,7.7,7.7,0,0,0-.47,8.23c1.41,2.53,3.86,3.4,6.45,4.32a25.16,25.16,0,0,1,3,1.2,23.89,23.89,0,0,1,8.33,7.08,16.16,16.16,0,0,0,3.1,3.3,7.35,7.35,0,0,0,5.55,1.3,7.51,7.51,0,0,0,5-3c.07-.1.14-.2.2-.3"/><path class="cls-3" d="M266.51,290.29l-.5-7.47a9.21,9.21,0,0,0-4.5,1.77l-.07.05a9.91,9.91,0,0,0-1.39,1.28c-.68.78-1.31,1.56-1.92,2.31a23.78,23.78,0,0,1-4.11,4.32l-.63.45a17.6,17.6,0,0,1-3.7,1.68,23,23,0,0,0-4,1.76,8.23,8.23,0,0,0-.78.53,9,9,0,0,0,7.37,16,8.43,8.43,0,0,0,3.35-1.53,17.23,17.23,0,0,0,3.36-3.7,24.46,24.46,0,0,1,1.67-2.08,16,16,0,0,1,2.05-1.82,22.25,22.25,0,0,1,3.15-2,21.82,21.82,0,0,1,2.27-1,15.83,15.83,0,0,0,4.2-2.09h0a8.78,8.78,0,0,0,3.43-5.91,8.91,8.91,0,0,0-1.68-6.59Z"/><path class="cls-5" d="M266.16,285c-.15,0-.29,0-.43.06a7.29,7.29,0,0,0-2.93,1.29h0a7.28,7.28,0,0,0-1.12,1c-.66.73-1.26,1.49-1.85,2.22a23,23,0,0,1-5.25,5.22,19.14,19.14,0,0,1-4.15,1.91,21.67,21.67,0,0,0-3.6,1.59,6.88,6.88,0,0,0-1.92,10,7,7,0,0,0,7,2.58c2.54-.54,3.94-2.42,5.41-4.4a25,25,0,0,1,1.84-2.27,21.09,21.09,0,0,1,5.77-4.23,22.7,22.7,0,0,1,2.51-1.06,14.13,14.13,0,0,0,3.66-1.79,6.61,6.61,0,0,0,2.58-4.43,6.74,6.74,0,0,0-1.28-5.06,2.56,2.56,0,0,0-.2-.26"/><path class="cls-2" d="M74.89,229.91a7.9,7.9,0,0,1,4.7-10.63,8.55,8.55,0,0,1,3.36-.63l1.62,4.09a5.34,5.34,0,0,0-3.3.31,4,4,0,1,0,3,7.46,5.21,5.21,0,0,0,2.62-2l1.62,4.1a8.68,8.68,0,0,1-2.89,1.83A7.89,7.89,0,0,1,74.89,229.91Z"/><path class="cls-2" d="M86.92,225.13a8.23,8.23,0,1,1,10.66,4.59A8,8,0,0,1,86.92,225.13Zm11.32-4.47a3.94,3.94,0,1,0-2.19,5.2A3.93,3.93,0,0,0,98.24,220.66Z"/><path class="cls-2" d="M108.94,231.5c.55-1.3,1.12-2.7,1.62-4a2.6,2.6,0,0,0,.22-1.79.87.87,0,0,0-1.13-.49,1.12,1.12,0,0,0-.46,1.57l-2.37.27a3.27,3.27,0,0,1,1.92-4.11,3.11,3.11,0,0,1,4.15,1.54,4.21,4.21,0,0,1-.29,3.35l-.5,1.37,2.29-.91.85,2.15-5.79,2.29Z"/><path class="cls-2" d="M147.06,279a7.59,7.59,0,0,1,10.56-3.6,8.32,8.32,0,0,1,2.63,2l-1.83,3.8a5.13,5.13,0,0,0-2.37-2.13A3.86,3.86,0,1,0,152.7,286a5.06,5.06,0,0,0,3.14.53L154,290.35a8.42,8.42,0,0,1-3.17-.86A7.56,7.56,0,0,1,147.06,279Z"/><path class="cls-2" d="M158.25,284.4a7.9,7.9,0,1,1,3.7,10.51A7.66,7.66,0,0,1,158.25,284.4Zm10.52,5.08a3.78,3.78,0,1,0-5.09,1.84A3.75,3.75,0,0,0,168.77,289.48Z"/><path class="cls-2" d="M168.08,304.09c1.28-.46,2.64-1,3.85-1.43a2.45,2.45,0,0,0,1.41-1,.83.83,0,0,0-.39-1.11,1.08,1.08,0,0,0-1.41.69l-1.73-1.49a3.13,3.13,0,0,1,4.15-1.32,3,3,0,0,1,1.62,3.93,4,4,0,0,1-2.56,2l-1.29.54,2.13,1-1,2-5.38-2.59Z"/><path class="cls-2" d="M187.39,234.4a5.73,5.73,0,0,1,3.09-7.84,6.13,6.13,0,0,1,2.42-.55l1.29,2.91a3.86,3.86,0,0,0-2.38.32,2.91,2.91,0,1,0,2.36,5.32A3.8,3.8,0,0,0,196,233l1.3,2.93a6.48,6.48,0,0,1-2,1.41A5.72,5.72,0,0,1,187.39,234.4Z"/><path class="cls-2" d="M196,230.58a6,6,0,1,1,7.87,3A5.78,5.78,0,0,1,196,230.58ZM204,227a2.85,2.85,0,1,0-1.43,3.84A2.83,2.83,0,0,0,204,227Z"/><path class="cls-2" d="M212.11,234.53c.36-1,.73-2,1-2.91a1.8,1.8,0,0,0,.11-1.31.64.64,0,0,0-.83-.32.81.81,0,0,0-.29,1.15l-1.7.27a2.35,2.35,0,0,1,1.26-3,2.27,2.27,0,0,1,3.06,1,3,3,0,0,1-.12,2.44c-.1.32-.22.68-.31,1l1.62-.73.68,1.54-4.12,1.83Z"/><polygon class="cls-11" points="63.65 270.72 60.93 261.96 67.15 255.22 76.11 257.24 78.83 266 72.61 272.74 63.65 270.72"/><line class="cls-11" x1="78.83" y1="266" x2="85.33" y2="267.47"/><line class="cls-11" x1="72.61" y1="272.77" x2="74.76" y2="279.07"/><line class="cls-11" x1="63.17" y1="262.93" x2="65.1" y2="269.3"/><line class="cls-11" x1="71.75" y1="270.8" x2="76.24" y2="265.88"/><line class="cls-11" x1="54.43" y1="260.49" x2="60.93" y2="261.96"/><line class="cls-11" x1="68.04" y1="256.98" x2="74.54" y2="258.45"/><polygon class="cls-11" points="223.19 254.44 216.11 253.15 213.68 246.38 218.34 240.89 225.42 242.18 227.84 248.95 223.19 254.44"/><line class="cls-11" x1="217.6" y1="251.95" x2="222.73" y2="252.92"/><line class="cls-11" x1="226.19" y1="248.84" x2="224.39" y2="243.94"/><line class="cls-11" x1="215.23" y1="246.4" x2="218.61" y2="242.42"/><polygon class="cls-11" points="234.92 250.23 227.84 248.95 225.42 242.18 230.07 236.69 237.15 237.97 239.57 244.75 234.92 250.23"/><line class="cls-11" x1="239.58" y1="244.75" x2="244.74" y2="245.54"/><line class="cls-11" x1="230.07" y1="236.69" x2="228.7" y2="232.88"/><line class="cls-11" x1="235.92" y1="254.02" x2="234.55" y2="250.21"/><line class="cls-11" x1="236.56" y1="253.79" x2="235.2" y2="249.98"/><path class="cls-8" d="M125.82,243.19a6,6,0,0,0-2.16.4v5.94l-5.18-3.83a37,37,0,0,0-14.34,14.07,5.67,5.67,0,0,0-.72,2.78,5.74,5.74,0,0,0,10.25,3.56A54.58,54.58,0,0,1,128.05,255a8.08,8.08,0,0,0,.79-.37,6.12,6.12,0,0,0-3-11.44Z"/><line class="cls-12" x1="121.09" y1="244.35" x2="114.37" y2="236.65"/><polygon class="cls-1" points="117.15 236.46 114.85 237.21 113.8 239.38 112.01 233.95 117.15 236.46"/><line class="cls-12" x1="128.47" y1="284.8" x2="138.65" y2="285.72"/><polygon class="cls-1" points="136.77 287.78 137.91 285.66 137.17 283.36 142.22 286.05 136.77 287.78"/><line class="cls-12" x1="172.08" y1="230.28" x2="181.76" y2="233.54"/><polygon class="cls-1" points="179.45 235.11 181.06 233.31 180.87 230.9 185.15 234.69 179.45 235.11"/><path class="cls-8" d="M130.78,296.86a3.8,3.8,0,0,0-.42-.57,38.18,38.18,0,0,1-5.34-10.6l-3.67-.27,2.93-2.56a3.93,3.93,0,1,0-7.61,2C120,298.58,124.36,302,124.36,302a4.14,4.14,0,0,0,6.42-5.12Z"/><path class="cls-9" d="M222.68,277.87c-3,1-6.5-.68-8.29-3.91a8.19,8.19,0,0,1-.93-5.64,6,6,0,0,1,2.9-4.08,5.11,5.11,0,0,1,1-.43c3-1,6.5.67,8.3,3.9a8.24,8.24,0,0,1,.92,5.64,5.94,5.94,0,0,1-2.89,4.08A5.53,5.53,0,0,1,222.68,277.87Z"/><path class="cls-9" d="M240,282.84c-1.62,2.72-5.33,3.79-8.81,2.55a8.15,8.15,0,0,1-4.42-3.62,5.71,5.71,0,0,1-.06-6c1.62-2.71,5.32-3.78,8.8-2.54a8.18,8.18,0,0,1,4.42,3.61,6,6,0,0,1,.53,5A5.84,5.84,0,0,1,240,282.84Z"/><path class="cls-9" d="M209.32,257.38l2.39-4.82a6.49,6.49,0,0,0-6.4-.38,4.21,4.21,0,0,0-.66.44,5.72,5.72,0,0,0-2.16,4.41,8.48,8.48,0,0,0,1.84,5.5c2.35,3.06,6.22,4.21,9,2.68a5.47,5.47,0,0,0,2.82-4.85,8.21,8.21,0,0,0-1-4.2Z"/><path class="cls-8" d="M261,230.54a4.06,4.06,0,0,0-1.59,2.39l3.29,3.55-3.77.75a36.1,36.1,0,0,1-3.28,10.71,3.93,3.93,0,0,0,5.58,5.34,4,4,0,0,0,1.35-1.68c6.16-12.74,4.94-18.15,4.94-18.15a4.09,4.09,0,0,0-.75-2A4.14,4.14,0,0,0,261,230.54Z"/><path class="cls-8" d="M171.57,233.4,168,227.74l6.08.31c.17-.31.32-.62.49-.94a6.06,6.06,0,0,0,1-3.42,6.14,6.14,0,0,0-11.58-2.87,74.4,74.4,0,0,0-8.61,26.77h0q0,.33,0,.69a6.15,6.15,0,1,0,12.29,0S167.59,242.75,171.57,233.4Z"/><path class="cls-8" d="M145,226.77c-6.77-12.43-11.88-14.58-11.88-14.58a4,4,0,0,0-2-.53,4.13,4.13,0,0,0-2.85,7.13.94.94,0,0,0,.12.09l4-1.18-.66,4.15a35.6,35.6,0,0,1,6.31,8.42,3.94,3.94,0,0,0,7.6-1.43A3.85,3.85,0,0,0,145,226.77Z"/><path class="cls-8" d="M200,297.35,197,294.23l4.17-.22c.2-.51.34-.8.34-.8a3.94,3.94,0,1,0-7.14-3.25c-5.4,13.08-3.86,18.41-3.86,18.41a4,4,0,0,0,.86,1.9,4.14,4.14,0,0,0,7.34-2.27,5.77,5.77,0,0,0,0-.72A38.43,38.43,0,0,1,200,297.35Z"/><path class="cls-9" d="M63,290.31c.67-2.59,3.42-4.33,6.54-4.15A6.87,6.87,0,0,1,74,288.05,5,5,0,0,1,75.56,292a5.73,5.73,0,0,1-.14.91c-.68,2.58-3.43,4.33-6.54,4.15a6.92,6.92,0,0,1-4.45-1.89,5,5,0,0,1-1.6-3.91A3.93,3.93,0,0,1,63,290.31Z"/><path class="cls-9" d="M51.58,300.42c-1.2-2.39-.29-5.51,2.17-7.43a6.86,6.86,0,0,1,4.58-1.53,5,5,0,0,1,3.79,1.88,4.17,4.17,0,0,1,.49.77c1.21,2.39.3,5.52-2.16,7.44a6.9,6.9,0,0,1-4.58,1.52,5,5,0,0,1-3.79-1.87A4.92,4.92,0,0,1,51.58,300.42Z"/><path class="cls-9" d="M40.7,308.75c-1-2.49.2-5.52,2.83-7.21a7,7,0,0,1,4.7-1.1,5.09,5.09,0,0,1,3.61,2.21,6.34,6.34,0,0,1,.42.82c1,2.48-.21,5.52-2.83,7.21a7,7,0,0,1-4.71,1.1,5.05,5.05,0,0,1-3.6-2.21A4.23,4.23,0,0,1,40.7,308.75Z"/><path class="cls-9" d="M26.82,309.82c0-2.68,2.28-5,5.35-5.6a6.87,6.87,0,0,1,4.76.76,5,5,0,0,1,2.5,3.41,4,4,0,0,1,.08.92c0,2.67-2.28,5-5.34,5.6a6.89,6.89,0,0,1-4.77-.77,5,5,0,0,1-2.5-3.41A4,4,0,0,1,26.82,309.82Z"/><path class="cls-9" d="M83.5,289.44,87,293.27a5.22,5.22,0,0,0,2.14-3.75,3.76,3.76,0,0,0,0-.67A4.82,4.82,0,0,0,87,285.32a7.16,7.16,0,0,0-4.75-1.18c-3.25.3-5.82,2.54-6,5.22a5,5,0,0,0,0,.67,4.85,4.85,0,0,0,2.18,3.53,7,7,0,0,0,3.24,1.16Z"/></g><g id="Layer_28" data-name="Layer 28"><rect class="cls-1" x="11.43" y="116.37" width="268.24" height="89.8"/><path class="cls-13" d="M64.1,115.74s-3.44,6.09-1.47,16.28.43,16.52.43,16.52-.93,4.4,1,6.33,9.35,5.51,9.35,5.51,8.73,5.37,10.2,18.31,4.8,12.39,4.8,12.39"/><path class="cls-13" d="M46.4,195.34c1.72-3.44,8.11-6.19,8.11-6.19S57,187.5,58.2,175.8a66.93,66.93,0,0,1,5.9-20.93s.25,9.64,7.3,15.69,7.7,10.93,7.7,10.93"/><path class="cls-13" d="M50.66,198.92s2.7-7.06,5-11.52A6.66,6.66,0,0,1,56.81,194c-1.48,3.78-.17,12.13-.17,12.13"/><path class="cls-13" d="M68.28,196.17a15.94,15.94,0,0,0-8.11-10.28c-3.57-1.93-2.49-6.14-2.49-6.14"/><path class="cls-13" d="M63,118.6s-9.23,4-13.32,10.76c-2.28,3.78-4.1,3.3-4.1,3.3s-7.13.28-19.43,22.21a27.47,27.47,0,0,1-5.08,5.37c-9.22,6.47-11.31,39.1-11.31,39.1"/><path class="cls-13" d="M63.48,138.37s-8.36,2.32-9.52,10.86-8.79,6.6-8.79,6.6-2.83-1.23-7.26,6.75"/><path class="cls-13" d="M63.62,141.38s9.3,10,7.78,22.56,7.7,27.82,7.7,27.82"/><path class="cls-13" d="M62.43,130.88s18.65,9.64,26.88,25.92a56.44,56.44,0,0,1,6,30.6"/><path class="cls-13" d="M67.42,115.74s10,2.24,12.42,6.64,8.61,8.5,8.61,8.5,4.35,4.16,4.67,9.67a7.51,7.51,0,0,0,3.69,6.06s12.29,8.95,0,39"/><path class="cls-13" d="M94.25,144.11a8.61,8.61,0,0,0,0,5.25,70.49,70.49,0,0,1,2.06,7.44s-.49,3.58,4.43,5.78"/><path class="cls-13" d="M88.45,115.74a12.94,12.94,0,0,0,5.37,11.18c11.84,8.38,7.6,28,7.6,28"/><path class="cls-13" d="M98.28,115.77s1.06,4.41,7.62,9.09c18.94,13.51,18.57,39.08,18.57,39.08s-.49,6.9,4.05,11.17"/><path class="cls-13" d="M96.81,115.74a13.19,13.19,0,0,0,1.47,9c2.58,4.41,3.12,14.62,3.12,14.62"/><path class="cls-13" d="M61.59,161a13.4,13.4,0,0,0-6.83,4.18,11.64,11.64,0,0,1-5.91,4s-7,4.26-8.48,8.4-6.76,4.26-6.76,4.26"/><path class="cls-13" d="M61.06,162.58s-1.76,8.4,8.82,10"/><path class="cls-13" d="M62.14,128.58s-4.68.2-6,2.3a3.89,3.89,0,0,1-3.32,2s-4.8,1.29-5.9,5.53"/><path class="cls-13" d="M41.11,115.74s-8.36,5.54-8.36,11.18-3.2,12.42-3.2,12.42-1.72,3.28,1.48,9.2c0,0,1.23,1.79-1.23,9.08s.12,14.6.12,15a11.17,11.17,0,0,1,.37,7.12"/><path class="cls-13" d="M26.11,115.74s-4.11,23,2.63,39.13c4.87,11.7-3.86,18.72-3.86,18.72"/><path class="cls-13" d="M30.66,115.74s-2.19,10.83.79,18.59"/><path class="cls-13" d="M63.06,148.54s.06,2.61,4.36,2.89a13.58,13.58,0,0,1,7.25,2.75s4.8,3.17,8.37,3.31"/><path class="cls-13" d="M101.69,153.35s.52,3.17,1.88,4.14,2.33,7,2.33,7a24.81,24.81,0,0,0,4.06,10.6c3.69,5.64,4.92,13.9,4.92,13.9"/><path class="cls-13" d="M123.85,115.77s1.72,19.65-6.64,28.34-9.46,16.9-9.46,16.9-2.37,4.68-3.94,7.35C100.74,173.59,106,183,106,183"/><path class="cls-13" d="M143.67,114.78s3.5,6.09,1.5,16.28-.44,16.52-.44,16.52.94,4.4-1.06,6.33-9.51,5.5-9.51,5.5-8.89,5.37-10.39,18.31-4.88,12.39-4.88,12.39"/><path class="cls-13" d="M161.69,194.38c-1.75-3.44-8.26-6.19-8.26-6.19s-2.5-1.65-3.75-13.36a66.24,66.24,0,0,0-6-20.92s-.25,9.64-7.43,15.69-7.84,10.92-7.84,10.92"/><path class="cls-13" d="M157.35,198s-2.75-7.06-5.08-11.52a6.53,6.53,0,0,0-1.17,6.63c1.5,3.79.16,12.14.16,12.14"/><path class="cls-13" d="M139.41,195.21a15.94,15.94,0,0,1,8.26-10.28c3.63-1.93,2.53-6.14,2.53-6.14"/><path class="cls-13" d="M144.8,117.64s9.38,4,13.55,10.75c2.32,3.79,4.18,3.31,4.18,3.31s7.25.27,19.77,22.21a27.76,27.76,0,0,0,5.17,5.37c9.39,6.47,11.52,39.09,11.52,39.09"/><path class="cls-13" d="M144.3,137.41s8.51,2.32,9.7,10.86,8.94,6.6,8.94,6.6,2.88-1.24,7.39,6.75"/><path class="cls-13" d="M144.16,140.42s-9.46,10-7.92,22.56-7.84,27.82-7.84,27.82"/><path class="cls-13" d="M146.23,160.05a13.7,13.7,0,0,1,7,4.18,11.85,11.85,0,0,0,6,4s7.13,4.26,8.63,8.39,6.89,4.27,6.89,4.27"/><path class="cls-13" d="M146.76,161.62s1.79,8.4-9,10"/><path class="cls-13" d="M145.66,127.61s4.77.21,6.14,2.31a4,4,0,0,0,3.38,2s4.88,1.29,6,5.53"/><path class="cls-13" d="M167.07,114.78s8.51,5.54,8.51,11.18,3.26,12.41,3.26,12.41,1.75,3.29-1.51,9.21c0,0-1.25,1.79,1.26,9.08s-.13,14.6-.13,15a11,11,0,0,0-.37,7.12"/><path class="cls-13" d="M182.34,114.78s4.18,23-2.67,39.13c-5,11.7,3.92,18.72,3.92,18.72"/><path class="cls-13" d="M191.35,114.81a22.8,22.8,0,0,1-1.75,12.8c-3,6.06-1.63,9.8-1.63,9.8s1.38,5.55.5,9.37,5.51,8.64,5.51,8.64"/><path class="cls-14" d="M177.44,114.78s2.26,11-.81,18.82"/><path class="cls-13" d="M144.73,147.58s-.06,2.61-4.44,2.89a13.94,13.94,0,0,0-7.38,2.75s-4.89,3.17-8.51,3.3"/><path class="cls-13" d="M223.84,115.74s-3.45,6.09-1.48,16.28.43,16.52.43,16.52-.92,4.4,1.05,6.33,9.34,5.51,9.34,5.51,8.73,5.37,10.21,18.31,4.79,12.39,4.79,12.39"/><path class="cls-13" d="M206.13,195.34c1.72-3.44,8.12-6.19,8.12-6.19s2.46-1.65,3.68-13.35a66.78,66.78,0,0,1,5.91-20.93s.24,9.64,7.29,15.69,7.71,10.93,7.71,10.93"/><path class="cls-13" d="M210.39,198.92s2.71-7.06,5-11.52a6.64,6.64,0,0,1,1.15,6.64c-1.47,3.78-.16,12.13-.16,12.13"/><path class="cls-13" d="M228,196.17a15.93,15.93,0,0,0-8.12-10.28c-3.56-1.93-2.48-6.14-2.48-6.14"/><path class="cls-13" d="M222.73,118.6s-9.22,4-13.32,10.76c-2.28,3.78-4.1,3.3-4.1,3.3s-7.13.28-19.42,22.21a27.32,27.32,0,0,1-5.09,5.37c-9.22,6.47-11.31,39.1-11.31,39.1"/><path class="cls-13" d="M223.22,138.37s-8.36,2.32-9.53,10.86-8.79,6.6-8.79,6.6-2.83-1.23-7.25,6.75"/><path class="cls-13" d="M223.36,141.38s9.29,10,7.77,22.56,7.71,27.82,7.71,27.82"/><path class="cls-13" d="M222.16,130.88s18.65,9.64,26.88,25.92a56.39,56.39,0,0,1,6,30.6"/><path class="cls-13" d="M227.16,115.74s10,2.24,12.41,6.64,8.61,8.5,8.61,8.5,4.36,4.16,4.67,9.67a7.54,7.54,0,0,0,3.69,6.06s12.3,8.95,0,39"/><path class="cls-13" d="M254,144.11a8.61,8.61,0,0,0,0,5.25,71.43,71.43,0,0,1,2.07,7.44s-.49,3.58,4.43,5.78"/><path class="cls-13" d="M248.18,115.74a12.93,12.93,0,0,0,5.38,11.18c11.83,8.38,7.6,28,7.6,28"/><path class="cls-13" d="M256.54,115.74a13.16,13.16,0,0,0,1.48,9c2.58,4.41,3.12,14.62,3.12,14.62"/><path class="cls-13" d="M221.32,161a13.43,13.43,0,0,0-6.83,4.18,11.6,11.6,0,0,1-5.9,4s-7,4.26-8.48,8.4-6.77,4.26-6.77,4.26"/><path class="cls-13" d="M220.8,162.58s-1.76,8.4,8.82,10"/><path class="cls-13" d="M221.88,128.58s-4.68.2-6,2.3a3.89,3.89,0,0,1-3.32,2s-4.79,1.29-5.9,5.53"/><path class="cls-13" d="M190.39,115.74s-2.19,10.83.79,18.59"/><path class="cls-13" d="M222.79,148.54s.06,2.61,4.37,2.89a13.58,13.58,0,0,1,7.25,2.75s4.79,3.17,8.36,3.31"/><path class="cls-13" d="M261.42,153.35s.53,3.17,1.88,4.14,2.34,7,2.34,7a24.81,24.81,0,0,0,4.06,10.6c3.68,5.64,4.91,13.9,4.91,13.9"/><path class="cls-9" d="M156.42,81.17c8.81-20-3.61-81.17-3.61-81.17C170.65,37.4,169,79,169,79c.77-41.39,17.48-64.7,17.48-64.7-13.56,31.37-6.89,78.5-6.89,78.5,12.91-11.71,7.76-59.91,7.76-59.91,10.7,28.83,6.42,53.85,6.42,53.85,6.51-39.44,25.09-58.9,25.09-58.9C206.1,71.52,209,95.35,209,95.35a136.88,136.88,0,0,0,11.5-48.68c9.72,15.53-2.13,53.84-2.13,53.84,20.15-16.4,18.71-87.33,18.71-87.33,8.63,41.83,2.7,87.22,2.7,87.22,6-35.71,29.58-59.69,29.58-59.69-18.32,33.54-10.53,52-10.53,52a78.07,78.07,0,0,1,11.48-41.56c-12.28,28.79-1.68,53.23-1.68,53.23C259.21,68.11,291.33,27,291.33,27c-21.23,39.57-11.13,89.89-11.13,89.89h-268S16.87,58.8,0,28.35c0,0,10.31,8,18.27,53.41,0,0,17.34-35.14,8.91-78.71,0,0,16.34,47.79,2.31,80.59,0,0,12.68-21.09,8.93-52a99.11,99.11,0,0,1,.69,43.11s9.42-15.94,2-52.95A150.09,150.09,0,0,1,52,86.92S56.23,41.47,70.75,3.05c0,0-13.12,58.1-9.84,90.9,0,0,5.63-41.71,15.93-54.36,0,0-11,26.8,1.23,51.16,0,0,12.36-22.11-2.16-69.9,0,0,16.07,24.37,13.42,64.19a137.25,137.25,0,0,1,15.16-50.6s-13.12,45.45-5.62,60c0,0,14-44.05,9.84-77.79,0,0,8.14,26.71.79,67,0,0,6.7-40.77,27.32-72.63,0,0-21.08,56.23-18.27,77.78,0,0,5.62-37.48,18.27-50.6,0,0-14.53,31.39-3.28,48.26,0,0,11.25-31.4,9.84-40.77,0,0,7.74,20.15.12,40.77,0,0,18.62-22,1.29-71.69,0,0,19.68,28.11,11.71,66.54"/></g></g></g></svg>