<svg xmlns="http://www.w3.org/2000/svg" viewBox="0 0 1483.5 806.39"><defs><style>.cls-1{font-size:32px;font-family:Acre-Light, Acre;font-weight:300;}.cls-1,.cls-28{fill:#5c5052;}.cls-2{letter-spacing:-0.02em;}.cls-3{letter-spacing:-0.03em;}.cls-4{letter-spacing:-0.01em;}.cls-5{letter-spacing:-0.01em;}.cls-6{letter-spacing:0em;}.cls-7,.cls-8{font-family:Acre-Semibold, Acre;font-weight:600;}.cls-8,.cls-9{letter-spacing:-0.02em;}.cls-10{letter-spacing:-0.01em;}.cls-11{letter-spacing:0em;}.cls-12{letter-spacing:-0.02em;}.cls-13{letter-spacing:-0.01em;}.cls-14{letter-spacing:0em;}.cls-15{letter-spacing:-0.03em;}.cls-16{letter-spacing:-0.02em;}.cls-17{letter-spacing:0em;}.cls-18{letter-spacing:-0.04em;}.cls-19{letter-spacing:-0.01em;}.cls-20{letter-spacing:-0.02em;}.cls-21{letter-spacing:-0.01em;}.cls-22{letter-spacing:-0.04em;}.cls-23{letter-spacing:-0.01em;}.cls-24{letter-spacing:-0.01em;}.cls-25{letter-spacing:0em;}.cls-26{letter-spacing:0em;}.cls-27{letter-spacing:-0.03em;}.cls-29{fill:#fff;}.cls-30,.cls-31,.cls-37,.cls-38,.cls-40,.cls-41,.cls-42,.cls-43,.cls-44,.cls-45{fill:none;}.cls-30,.cls-31{stroke:#ec6a7c;}.cls-30,.cls-31,.cls-44{stroke-linecap:round;stroke-linejoin:round;}.cls-30{stroke-width:0.5px;}.cls-31{stroke-width:1px;}.cls-32{fill:#f27243;}.cls-33{fill:#ec6a7c;}.cls-34{fill:#3daaa1;}.cls-35{fill:#2e61a1;}.cls-36{fill:#ffce01;}.cls-37,.cls-38{stroke:#f27243;}.cls-37,.cls-38,.cls-40,.cls-41,.cls-42,.cls-43,.cls-45{stroke-miterlimit:10;}.cls-37{stroke-width:0.25px;}.cls-38,.cls-42,.cls-44,.cls-45{stroke-width:0.5px;}.cls-39{fill:#2b63a3;}.cls-40,.cls-42,.cls-43{stroke:#5c5052;}.cls-41{stroke:#2e61a1;}.cls-41,.cls-43{stroke-width:1.5px;}.cls-44,.cls-45{stroke:#fff;}</style></defs><g id="Layer_2" data-name="Layer 2"><g id="Layer_6" data-name="Layer 6"><text class="cls-1" transform="translate(484.24 196.7)">ju<tspan class="cls-2" x="26.27" y="0">s</tspan><tspan x="38.78" y="0">t li</tspan><tspan class="cls-3" x="73.95" y="0">k</tspan><tspan x="88.29" y="0">e</tspan><tspan class="cls-4" x="106.37" y="0"> </tspan><tspan class="cls-5" x="117.15" y="0">w</tspan><tspan class="cls-6" x="142.14" y="0">e in</tspan><tspan class="cls-5" x="197.53" y="0">h</tspan><tspan x="215.32" y="0">erit </tspan><tspan class="cls-7" x="271.06" y="0">gen</tspan><tspan class="cls-8" x="327.09" y="0">e</tspan><tspan class="cls-7" x="344.41" y="0">tic ma</tspan><tspan class="cls-8" x="439" y="0">t</tspan><tspan class="cls-7" x="448.72" y="0">erial</tspan><tspan x="514.83" y="0" xml:space="preserve"> f</tspan><tspan class="cls-9" x="534.74" y="0">r</tspan><tspan x="543.82" y="0">om </tspan><tspan x="-7.42" y="64">our pa</tspan><tspan class="cls-9" x="90.3" y="64">r</tspan><tspan x="99.39" y="64">en</tspan><tspan class="cls-10" x="135.71" y="64">t</tspan><tspan class="cls-6" x="144.25" y="64">s, </tspan><tspan class="cls-11" x="173.66" y="64">s</tspan><tspan x="186.62" y="64">oils in</tspan><tspan class="cls-12" x="271.51" y="64">h</tspan><tspan x="289.31" y="64">erit cer</tspan><tspan class="cls-9" x="389.75" y="64">t</tspan><tspan x="397.98" y="64">ain p</tspan><tspan class="cls-9" x="474.74" y="64">r</tspan><tspan x="483.83" y="64">operti</tspan><tspan class="cls-13" x="567.51" y="64">e</tspan><tspan class="cls-14" x="585.43" y="64">s </tspan><tspan x="-13.36" y="128">f</tspan><tspan class="cls-9" x="-4.5" y="128">r</tspan><tspan x="4.59" y="128">om t</tspan><tspan class="cls-5" x="71.72" y="128">h</tspan><tspan x="89.52" y="128">eir </tspan><tspan class="cls-7" x="136.4" y="128">pa</tspan><tspan class="cls-8" x="175.88" y="128">r</tspan><tspan class="cls-7" x="186.22" y="128">ent ma</tspan><tspan class="cls-8" x="292.01" y="128">t</tspan><tspan class="cls-7" x="301.74" y="128">erial</tspan><tspan x="367.85" y="128" xml:space="preserve"> t</tspan><tspan class="cls-12" x="387.75" y="128">h</tspan><tspan x="405.54" y="128">at ca</tspan><tspan class="cls-15" x="481.83" y="128">n</tspan><tspan class="cls-16" x="499.11" y="128">’</tspan><tspan class="cls-6" x="503.52" y="128">t easi</tspan><tspan class="cls-17" x="582.34" y="128">l</tspan><tspan class="cls-16" x="589.41" y="128">y</tspan><tspan x="604.42" y="128"> </tspan><tspan x="-0.78" y="192">be c</tspan><tspan class="cls-12" x="64.98" y="192">h</tspan><tspan x="82.77" y="192">a</tspan><tspan class="cls-5" x="102.51" y="192">n</tspan><tspan x="120.27" y="192">ged (i</tspan><tspan class="cls-17" x="204.62" y="192">.e</tspan><tspan x="227.41" y="192">. </tspan><tspan class="cls-9" x="243.47" y="192">t</tspan><tspan class="cls-17" x="251.69" y="192">e</tspan><tspan x="269.61" y="192">xtu</tspan><tspan class="cls-9" x="312.3" y="192">r</tspan><tspan class="cls-18" x="321.39" y="192">e</tspan><tspan x="338.19" y="192">), but ju</tspan><tspan class="cls-2" x="446.41" y="192">s</tspan><tspan x="458.92" y="192">t li</tspan><tspan class="cls-3" x="494.09" y="192">k</tspan><tspan x="508.42" y="192">e di</tspan><tspan class="cls-19" x="565.32" y="192">e</tspan><tspan x="582.98" y="192">t </tspan><tspan x="-13.78" y="256">a</tspan><tspan class="cls-12" x="5.97" y="256">n</tspan><tspan x="23.73" y="256">d li</tspan><tspan class="cls-20" x="69.77" y="256">f</tspan><tspan class="cls-13" x="78" y="256">e</tspan><tspan class="cls-2" x="95.92" y="256">s</tspan><tspan x="108.43" y="256">t</tspan><tspan class="cls-13" x="117.29" y="256">y</tspan><tspan class="cls-14" x="132.94" y="256">le </tspan><tspan class="cls-12" x="169.29" y="256">h</tspan><tspan x="187.08" y="256">a</tspan><tspan class="cls-12" x="206.83" y="256">v</tspan><tspan x="222.41" y="256">e t</tspan><tspan class="cls-5" x="260.4" y="256">h</tspan><tspan x="278.19" y="256">e p</tspan><tspan class="cls-12" x="327.02" y="256">ow</tspan><tspan x="370.79" y="256">er </tspan><tspan class="cls-9" x="409.64" y="256">t</tspan><tspan x="417.87" y="256">o </tspan><tspan class="cls-12" x="448.17" y="256">m</tspan><tspan x="475.66" y="256">odif</tspan><tspan class="cls-16" x="531.56" y="256">y</tspan><tspan class="cls-6" x="546.57" y="256" xml:space="preserve"> our </tspan><tspan x="14.05" y="320">D</tspan><tspan class="cls-21" x="35.68" y="320">N</tspan><tspan x="59" y="320">A </tspan><tspan class="cls-22" x="90.14" y="320">(</tspan><tspan x="96.57" y="320">epige</tspan><tspan class="cls-12" x="180.22" y="320">n</tspan><tspan class="cls-23" x="197.98" y="320">e</tspan><tspan x="215.64" y="320">tics) a</tspan><tspan class="cls-5" x="300.99" y="320">n</tspan><tspan x="318.75" y="320">d p</tspan><tspan class="cls-9" x="369.24" y="320">r</tspan><tspan x="378.33" y="320">o</tspan><tspan class="cls-5" x="397.59" y="320">m</tspan><tspan class="cls-19" x="425.08" y="320">o</tspan><tspan class="cls-9" x="443.93" y="320">t</tspan><tspan x="452.15" y="320">e </tspan><tspan class="cls-5" x="481.27" y="320">ov</tspan><tspan x="515.64" y="320">e</tspan><tspan class="cls-9" x="533.72" y="320">r</tspan><tspan class="cls-6" x="542.81" y="320">all </tspan><tspan class="cls-12" x="15.54" y="384">h</tspan><tspan x="33.33" y="384">ealth, t</tspan><tspan class="cls-5" x="130.73" y="384">h</tspan><tspan x="148.53" y="384">e</tspan><tspan class="cls-4" x="166.61" y="384"> </tspan><tspan class="cls-12" x="177.39" y="384">w</tspan><tspan class="cls-14" x="202.38" y="384">a</tspan><tspan class="cls-16" x="222.12" y="384">y</tspan><tspan class="cls-24" x="237.13" y="384"> </tspan><tspan class="cls-5" x="247.92" y="384">w</tspan><tspan x="272.91" y="384">e </tspan><tspan class="cls-12" x="302.03" y="384">m</tspan><tspan class="cls-14" x="329.51" y="384">a</tspan><tspan class="cls-12" x="349.26" y="384">n</tspan><tspan x="367.02" y="384">age </tspan><tspan class="cls-25" x="435.62" y="384">s</tspan><tspan x="448.58" y="384">oil </tspan><tspan class="cls-12" x="494.15" y="384">h</tspan><tspan x="511.94" y="384">as a </tspan><tspan class="cls-12" x="-0.34" y="448">m</tspan><tspan x="27.15" y="448">ajor impact on </tspan><tspan class="cls-26" x="255.75" y="448">s</tspan><tspan x="268.72" y="448">oil o</tspan><tspan class="cls-9" x="333.55" y="448">r</tspan><tspan class="cls-14" x="342.63" y="448">ganic </tspan><tspan class="cls-12" x="436.33" y="448">m</tspan><tspan x="463.82" y="448">at</tspan><tspan class="cls-9" x="492.42" y="448">t</tspan><tspan x="500.65" y="448">e</tspan><tspan class="cls-27" x="518.73" y="448">r</tspan><tspan class="cls-14" x="527.56" y="448">, </tspan><tspan class="cls-11" x="543.91" y="448">s</tspan><tspan x="556.87" y="448">oil </tspan><tspan class="cls-2" x="61.97" y="512">s</tspan><tspan x="74.48" y="512">tructu</tspan><tspan class="cls-9" x="155.31" y="512">r</tspan><tspan class="cls-13" x="164.4" y="512">e</tspan><tspan class="cls-14" x="182.32" y="512">, a</tspan><tspan class="cls-5" x="218.41" y="512">n</tspan><tspan x="236.17" y="512">d </tspan><tspan class="cls-5" x="266.96" y="512">ov</tspan><tspan x="301.32" y="512">e</tspan><tspan class="cls-9" x="319.4" y="512">r</tspan><tspan x="328.49" y="512">all </tspan><tspan class="cls-25" x="373.74" y="512">s</tspan><tspan x="386.7" y="512">oil </tspan><tspan class="cls-5" x="432.27" y="512">h</tspan><tspan x="450.06" y="512">ealth! </tspan></text></g><g id="Human_Profile" data-name="Human Profile"><g id="Layer_34" data-name="Layer 34"><path class="cls-28" d="M359,390.09C334.2,304.9,309.42,288,309.42,288a211.23,211.23,0,0,0-5.6-53.85s0-37.77-7.19-53.84-49.57-22.5-49.57-22.5-8.8.8-20-7.24-7.2-23.3-7.2-23.3,8.53-6.7,12.8-46.61c6.06-56.75-36.79-57.87-36.79-57.87S153,23.94,159.11,80.69c4.26,39.91,12.79,46.61,12.79,46.61s4,15.27-7.19,23.3-20,7.24-20,7.24-42.38,6.43-49.58,22.5S88,234.18,88,234.18A211.23,211.23,0,0,0,82.35,288S57.57,304.9,32.78,390.09c0,0-19.19,8.84-32.78,31.34,0,0,5.6,6.88,19.19-7.81,0,0-7.2,34.87-3.47,45.05s18.66,0,18.66,0,24.69-20.58,18.12-64.29c0,0,6.4-11.26,27.19-33.76S107.4,297.4,107.4,297.4s10.26-19.48,13.59-29c3.75-10.73,3.47-43.28,3.47-43.28s3.2,40.19,12.26,62.15c0,0,6.93,31.61-1.6,58.4,0,0-13.33,48.22-13.33,100.19s14.93,92.68,14.93,92.68,10.13,24.11,7.46,46.62-4.8,31.61-4.8,31.61-13.32,40.18,18.13,126.44c0,0-4.29,21.88-4,37.19,0,0-8.26,6.24-12.56,13.71-4.4,7.64,24.52,12.32,24.52,12.32s10.15,1.59,16-29.47c3.73-19.82-3.2-25.18-3.2-25.18s-4.8-21.86,3.2-63.22c7.47-38.58,0-67.51,0-67.51s-7.46-14.46-1.6-35.89c0,0,12.79-66.44,10.66-142.52,0,0,.54-2.68,5.33-2.68s5.34,2.68,5.34,2.68c-2.13,76.08,10.66,142.52,10.66,142.52,5.86,21.43-1.6,35.89-1.6,35.89s-7.46,28.93,0,67.51c8,41.36,3.19,63.22,3.19,63.22s-6.92,5.36-3.19,25.18c5.85,31.06,16,29.47,16,29.47s28.92-4.68,24.52-12.32c-4.3-7.47-12.56-13.71-12.56-13.71.32-15.31-4-37.19-4-37.19,31.45-86.26,18.13-126.44,18.13-126.44s-2.13-9.11-4.8-31.61,7.46-46.62,7.46-46.62S270,497.78,270,445.81s-13.32-100.19-13.32-100.19c-8.53-26.79-1.6-58.4-1.6-58.4,9.06-22,12.26-62.15,12.26-62.15s-.27,32.55,3.47,43.28c3.33,9.57,13.59,29,13.59,29s6.93,40.72,27.71,63.22,27.19,33.76,27.19,33.76c-6.57,43.71,18.12,64.29,18.12,64.29s14.93,10.18,18.66,0-3.47-45.05-3.47-45.05c13.59,14.69,19.19,7.81,19.19,7.81C378.18,398.93,359,390.09,359,390.09Z"/></g><g id="Layer_35" data-name="Layer 35"><path class="cls-29" d="M317.64,322.15c2.08,2.47,6.16,8.56,12.39,22.86,9.43,21.68,10.37,29.05,10.37,29.05s.25,10.6,4.62,7c0,0,3.65,2.95,5.55.13,0,0,3.26,2.65,2.7-1.25a23.74,23.74,0,0,0-4.91-9.54c-4-4.77-8-13.7-9.44-18.22-2.45-7.78-14.3-29.73-15.48-31.62-1.84-2.92-4.54-9.13-4.72-11.08-.23-2.51-.18-4.56-3.59-4.34s-4.55,3.24-3,5.84A27.18,27.18,0,0,0,317.64,322.15Z"/><path class="cls-29" d="M312.5,342.58A146.56,146.56,0,0,0,323,362.11c1.58,2.5,4.52,8.93,4.52,8.93s8.09,15.26,11.78,17,2.15-2.37,2.15-2.37,1.64-6.06-3.05-7.78-12.3-20.21-19.56-40.34c0,0-4.49-12.1-6.25-18.88s-4.8-20.79-14.31-14.51-2.18,8.62-2.18,8.62a11.66,11.66,0,0,1,5.41,5.39C303.63,322.27,312.5,342.58,312.5,342.58Z"/><path class="cls-29" d="M72.44,321.76c-2.08,2.47-6.16,8.56-12.39,22.86-9.44,21.68-10.37,29.05-10.37,29.05s-.25,10.6-4.62,7c0,0-3.66,2.95-5.55.13,0,0-3.26,2.65-2.7-1.25A23.74,23.74,0,0,1,41.72,370c4-4.77,8-13.7,9.44-18.22,2.45-7.78,14.3-29.73,15.48-31.62,1.84-2.92,4.54-9.13,4.72-11.09.23-2.5.18-4.55,3.59-4.33s4.55,3.24,3,5.84A27.24,27.24,0,0,1,72.44,321.76Z"/><path class="cls-29" d="M77.57,342.19A145.27,145.27,0,0,1,67.1,361.71c-1.58,2.51-4.52,8.94-4.52,8.94s-8.09,15.26-11.78,17-2.15-2.37-2.15-2.37S47,379.22,51.7,377.5,64,357.29,71.25,337.16c0,0,4.5-12.1,6.26-18.88s4.8-20.79,14.31-14.51S94,312.39,94,312.39a11.67,11.67,0,0,0-5.4,5.39C86.45,321.88,77.57,342.19,77.57,342.19Z"/><path class="cls-30" d="M379.87,414.29s-17.55-21.57-30.56-24.16c0,0,8.85,16.31,13.77,22.2,8.68,10.39,10.91,33.54,10.91,33.54"/><path class="cls-30" d="M359.31,447.83s.7-16.69-4.41-26.2-5.59-31.5-5.59-31.5,4.57,17.62,12.1,31.13S367,455.42,367,455.42"/><path class="cls-31" d="M349.31,390.13s-4.95-18.61-16.46-35-11.56-30.86-11.56-30.86-3.63-22.88-21.44-35-15.3-30.42-15.3-30.42,1.08-7.75-6.53-16.9-6.08-24.57-6.08-24.57-.28-22.09-17.83-28.39a24.83,24.83,0,0,1-15-13.95s-7.73-26.24-42.38-10.8"/><path class="cls-30" d="M349.31,436.32s-6.16-30.35,0-46.19"/><path class="cls-30" d="M299.13,277.71s-4.36-27.14-11.43-38.07c-5.87-9.07-5-13.76-5-13.76S282.87,209,270.35,209"/><path class="cls-30" d="M301,290.08s1.69,15.73,10.22,25.52,10,31.57,10,31.57,4,19.34,12.85,28.51S347,401.43,347,401.43"/><path class="cls-30" d="M327.12,365s-10.43-9.81-13-23.85a128.72,128.72,0,0,1-2.2-24.61"/><path class="cls-30" d="M10.21,413.9s17.55-21.57,30.56-24.16c0,0-8.85,16.31-13.77,22.2-8.68,10.39-10.92,33.54-10.92,33.54"/><path class="cls-30" d="M30.77,447.44s-.7-16.69,4.41-26.2,5.59-31.5,5.59-31.5-4.58,17.62-12.1,31.13S23.05,455,23.05,455"/><path class="cls-31" d="M40.77,389.74s4.94-18.61,16.46-35S68.79,323.9,68.79,323.9s3.63-22.88,21.43-35,15.31-30.42,15.31-30.42-1.08-7.75,6.53-16.91S118.14,217,118.14,217s.27-22.09,17.83-28.39a24.83,24.83,0,0,0,15-14s7.74-26.24,42.39-10.8"/><path class="cls-30" d="M40.77,435.93s6.16-30.35,0-46.19"/><path class="cls-30" d="M91,277.32s4.36-27.14,11.43-38.07c5.87-9.07,5-13.76,5-13.76s-.21-16.91,12.31-16.91"/><path class="cls-30" d="M89.11,289.69s-1.7,15.73-10.22,25.52-10,31.57-10,31.57-4,19.34-12.85,28.51S43.12,401,43.12,401"/><path class="cls-30" d="M63,364.59s10.43-9.81,13-23.85a128.72,128.72,0,0,0,2.2-24.61"/></g><g id="Layer_37" data-name="Layer 37"><path class="cls-32" d="M198.94,195.13s-3-22.07,10.34-24.28c7.81-1.29,13,4.28,13,4.28s19.25,18.48,24.73,36.63l3.59,11.92s4.27,7.19,3.6,19.1.07,28.55.07,28.55,1.73,10.84-5.69,12.36c0,0-22.93,5.17-40.68-5.17s-7.64-21.8-7.64-21.8,5.84-8.26-.45-21.58c-3.83-8.09-.68-18.43-.68-18.43s-3.94-7-1.74-12.59S198.94,195.13,198.94,195.13Z"/><path class="cls-32" d="M191.61,195.13s3-22.07-10.34-24.28c-7.81-1.29-13,4.28-13,4.28S149,193.61,143.51,211.76l-3.6,11.92s-4.27,7.19-3.6,19.1-.07,28.55-.07,28.55-1.72,10.84,5.69,12.36c0,0,22.93,5.17,40.69-5.17s7.64-21.8,7.64-21.8-5.85-8.26.45-21.58c3.82-8.09.67-18.43.67-18.43s3.94-7,1.75-12.59S191.61,195.13,191.61,195.13Z"/><path class="cls-29" d="M219.36,211.79s-3-5.14,3.12-4.3c11.39,1.56,13.65,9.61,13.65,9.61-.16-7.42-6.91-9.94-6.91-9.94a14.06,14.06,0,0,0,9.78-3.88c-6.57,3.37-18,2.19-18,2.19-1-6.74,4.21-20.4,4.21-20.4C220.37,191,220,199.4,220,199.4a21.26,21.26,0,0,0-8.93-14c5.65,4.47,6.93,14,6.93,14s1.16,10.47-4.24,10.3-11.46-7.41-11.46-7.41c-6.07-7.25-4-28.83-4-28.83h-5.87s2,21.58-4.05,28.83c0,0-6.07,7.25-11.46,7.41s-4.24-10.3-4.24-10.3,1.29-9.5,6.93-14a21.26,21.26,0,0,0-8.93,14s-.42-8.43-5.22-14.33c0,0,5.22,13.66,4.21,20.4,0,0-11.46,1.18-18-2.19a14.08,14.08,0,0,0,9.78,3.88s-6.74,2.52-6.91,9.94c0,0,2.26-8,13.65-9.61,6.15-.84,3.12,4.3,3.12,4.3a45.27,45.27,0,0,1-19.64,13.57,36,36,0,0,0,16.69-7.42s-3.37,7.76-2.53,12.82c0,0,4.89-20.06,12.14-17.53,0,0-4.55,8.93-4.55,23.09s-17.53,28.15-17.53,28.15a46,46,0,0,0,19.38-21.91s4.55,17.19,1.18,26c0,0,3.29-6.74,2.28-19.56,0,0,3.62,6.92,6.83,8.26,0,0-12.19-13-8.1-29.81C181,212.47,188,208.34,188,208.34s5.63-3.85,7.32-9.32c1.7,5.47,7.32,9.32,7.32,9.32s7,4.13,10.62,19.07c4.09,16.86-8.09,29.81-8.09,29.81,3.2-1.34,6.83-8.26,6.83-8.26-1,12.82,2.27,19.56,2.27,19.56-3.37-8.77,1.18-26,1.18-26a46,46,0,0,0,19.39,21.91s-17.53-14-17.53-28.15-4.56-23.09-4.56-23.09c7.25-2.53,12.14,17.53,12.14,17.53.84-5.06-2.53-12.82-2.53-12.82A36,36,0,0,0,239,225.36,45.27,45.27,0,0,1,219.36,211.79Z"/></g><g id="Layer_36" data-name="Layer 36"><path class="cls-33" d="M217.42,289.13s16.75-11.83,18.85,12.15c2.28,25.89-28.76,36.11-28.76,36.11s-18.46,7.12-18.74-7.24c-.11-5.71,3.26-6.69,3.26-6.69s3.17-1.66,6.68-3.26,4-5.82,8.16-9.34,3.81-14.38,3.81-14.38S210.27,292,217.42,289.13Z"/></g><g id="Layer_38" data-name="Layer 38"><path class="cls-34" d="M171.84,263.9s-18.11-1.54-25.8,10-5.86,20.72-5.86,20.72-1.31,20.2,6.64,20.2a11.3,11.3,0,0,0,10.56-6.46,20.68,20.68,0,0,1,14.46-5.85,23.42,23.42,0,0,0,15-5.53s4.16-3.49,4.76-12.21c1.2-17.11-4.51-18.77-4.51-18.77A39.12,39.12,0,0,0,171.84,263.9Z"/></g><g id="Layer_39" data-name="Layer 39"><path class="cls-29" d="M211,297.24c-23.08-12.26-19.9-37.36-19.9-37.36,2.68-22.37,2.86-35.15,2.86-35.15l-.18-26.39,4.42,1.31.16,23.5s-.65,24.48-3.1,35.41c0,0-3.51,20.77,16.64,34.28Z"/><path class="cls-35" d="M225.86,292.69a10.33,10.33,0,0,0-.83-.79h0a8.39,8.39,0,0,0-5.34-1.92,8.54,8.54,0,0,0-4.26,15.89h0c5.9,5.75,0,9.9-1.09,10.62l-.18.11h0a6,6,0,0,0-2.92,5c0,3.38,3.09,6.12,6.9,6.12h.08a7.9,7.9,0,0,0,2-.29c3.75-.87,11.29-4.29,12.19-17.81C233,300.89,227.91,294.77,225.86,292.69Z"/><path class="cls-35" d="M180.23,289.85a8.72,8.72,0,0,0-7.72,4.56c-9.9,14.76-3.58,25.7-.37,29.76a7.84,7.84,0,0,0,6.56,3.51,7.63,7.63,0,0,0,7.74-7.5,7.26,7.26,0,0,0-.51-2.68h0a7.12,7.12,0,0,0-.61-1.2c-3-6.4-1.16-9.8.16-11.23a8.41,8.41,0,0,0,1-.82h0a8.91,8.91,0,0,0,1-1.2,8.25,8.25,0,0,0,1.49-4.73A8.58,8.58,0,0,0,180.23,289.85Z"/></g><g id="Layer_41" data-name="Layer 41"><path class="cls-33" d="M208.46,263s-10.82.11-14.6,2.57-1.69,8.31-1.69,8.31a24.14,24.14,0,0,1,.65,5.54s-1.43,9.95,3.78,11.07,5.86-3.18,5.86-3.18.69-2.56,5.34-2.46a6.23,6.23,0,0,0,6.13-6.56c.07-3.39,3.51-4.93,3.51-4.93s7.1-3,6.26-6.56C222.65,262.36,208.46,263,208.46,263Z"/></g><g id="Layer_40" data-name="Layer 40"><path class="cls-36" d="M158.8,84.74c-.84-4.18-3.67-17.77-.08-33.11,0,0-1.31-13.87,2.61-18.28,0,0-.58,3.74.65,5.71,1.87,3,0-16.24,0-16.24a11.17,11.17,0,0,1,2.57,2.41s0-4.28-1.59-6.36c0,0,5.63.48,7.59,2.44,0,0-1.72-5.14-3.18-6.48,0,0,3.18.61,4.28,2.08,0,0,1.95-2.57,0-3.92a5.15,5.15,0,0,1,5.14,2.69s1.1-6.62,0-10.28a17.17,17.17,0,0,0,8.08,6.24,87.54,87.54,0,0,1,8.32,3.43s2.08-7.34,3.55-9.67c0,0,1,7.83,5.88,11.75a22.57,22.57,0,0,1,0-8.08,20.56,20.56,0,0,0,5.87,8.08s-.24-1.22,1.84-2.57c0,0-.37,2.08,2,4.41,0,0,6.12-2.82,5.75-5.27,0,0,2.45,2.21,3.67,11.39a11.51,11.51,0,0,1,6.61-6s-3.06,10.77,2,16.65c0,0,3.43.24,3.43-2.08,0,0,2.08,6-.74,18.11a73.62,73.62,0,0,1-.81,29.38s1.7-34-8.74-38.14c-10-4-20.68.8-20.68.8s-5,2.18-12.37-.8S175,41.17,169.81,44.69c-15,10.2-11.19,39.24-11.19,39.24"/></g></g><g id="Soil_Profile" data-name="Soil Profile"><g id="Layer_24" data-name="Layer 24"><path class="cls-28" d="M1420.86,698.8s-8.41-5.36-12.09-10.58c0,0,4.38-8.65,10.69-10.3s9.46,1.92,9.46,1.92S1428.51,696.6,1420.86,698.8Z"/><path class="cls-28" d="M1414.41,673.71s10.53-1.84,11.34-4.25a6.07,6.07,0,0,0,0-4.18s-3.56-4.76-14.09-3.81C1411.66,661.47,1410.85,668.68,1414.41,673.71Z"/><path class="cls-28" d="M1388.64,677.46s2.59,8.2,5.69,8.78a12.38,12.38,0,0,0,5.34-.11s6-2.9,4.51-11.13C1404.18,675,1395,674.55,1388.64,677.46Z"/><path class="cls-28" d="M1436.61,680s16.14-5,16.38-12.1-11.63-5.21-11.63-5.21-9.55,1.7-8.79,11.35C1433.15,681.26,1436.61,680,1436.61,680Z"/><path class="cls-28" d="M1336.36,694.07s16.45,4.37,22.48-.9-4.56-9.88-4.56-9.88a15,15,0,0,0-16.07,4.19C1332.67,693.27,1336.36,694.07,1336.36,694.07Z"/><path class="cls-28" d="M1380.53,660s9.84,11.22,18.69,9.83,3.89-10.05,3.89-10.05-4.23-6.92-16.07-4.19C1378.18,657.65,1380.53,660,1380.53,660Z"/><path class="cls-28" d="M1448.72,698.27s3.18-9.29,14.24-19.54l-2.85-2.05s-15.19,2.05-18.75,10.8,0,11.91,0,11.91S1445.87,700.31,1448.72,698.27Z"/><path class="cls-28" d="M1371.5,692.6s10.3,3.46,18.24.38c0,0,1.8-1.45-3-4.78a21.68,21.68,0,0,1-5.33-5.11s-7.39-7.44-11.05,2.6C1367.92,692.31,1371.5,692.6,1371.5,692.6Z"/><path class="cls-28" d="M1288,667.66s9.16,4.54,13.6,9.39c0,0-3.06,9-9.08,11.21s-9.68-1-9.68-1S1280.74,670.55,1288,667.66Z"/><path class="cls-28" d="M1254.38,661.78s-10.89,3-11.36,5.62a6.64,6.64,0,0,0,.67,4.46s4.54,4.7,15.58,2.65C1259.27,674.51,1259,666.77,1254.38,661.78Z"/><path class="cls-28" d="M1323.21,685.88s-3.81-7.91-7-8.2a12.21,12.21,0,0,0-5.29.6s-5.5,3.44-2.8,11.47C1308.15,689.75,1317.37,689.35,1323.21,685.88Z"/><path class="cls-28" d="M1319.87,662.31s-15.42-6.28-22.39-1.79,2.59,10.31,2.59,10.31,7.89,4.54,16.7-2.23C1323.35,663.53,1319.87,662.31,1319.87,662.31Z"/><path class="cls-28" d="M1372.63,664.57s-17-2.83-22.19,3,6,9.39,6,9.39a14.53,14.53,0,0,0,15.34-5.64C1376.41,665,1372.63,664.57,1372.63,664.57Z"/><path class="cls-28" d="M1236.46,667s-13.52-3.72-18.48.77,3.75,8.42,3.75,8.42a12,12,0,0,0,13.21-3.58C1239.49,667.65,1236.46,667,1236.46,667Z"/><path class="cls-28" d="M1206.65,692.12s14,2.41,18.23-2.53-4.93-8-4.93-8a11.68,11.68,0,0,0-12.61,4.81C1203.54,691.73,1206.65,692.12,1206.65,692.12Z"/><path class="cls-28" d="M1267.38,671.86s-1.9,10.18-12,22.17l3.36,1.89s15.81-3.67,18.2-13.32S1275,670,1275,670,1270.08,669.4,1267.38,671.86Z"/><path class="cls-28" d="M1240.25,678s-6.55,7.88-3.87,15c0,0,1.62,1.76,7-1.6a30.62,30.62,0,0,1,7.86-3.47s11.37-4.73-1.45-9.61C1241.3,675.13,1240.25,678,1240.25,678Z"/><path class="cls-28" d="M1338,669.26s-10.76-2.48-18.17,1.3c0,0-1.57,1.62,3.7,4.47a23.69,23.69,0,0,1,6.06,4.59s8.46,6.71,10.59-3.59C1341.55,669.22,1338,669.26,1338,669.26Z"/><path class="cls-28" d="M1243.83,621.41s8.41,5.36,12.09,10.58c0,0-4.38,8.65-10.69,10.3s-9.47-1.93-9.47-1.93S1236.18,623.61,1243.83,621.41Z"/><path class="cls-28" d="M1250.28,646.5s-10.53,1.83-11.34,4.24a6.09,6.09,0,0,0,0,4.19s3.56,4.76,14.09,3.81C1253,658.74,1253.84,651.52,1250.28,646.5Z"/><path class="cls-28" d="M1276.05,642.74s-2.59-8.2-5.69-8.77a12.28,12.28,0,0,0-5.34.1s-6,2.91-4.51,11.13C1260.51,645.2,1269.73,645.66,1276.05,642.74Z"/><path class="cls-28" d="M1228.08,645.21s-16.15,5-16.38,12.09,11.63,5.21,11.63,5.21,9.55-1.69,8.79-11.35C1231.54,644,1228.08,645.21,1228.08,645.21Z"/><path class="cls-28" d="M1325.63,625.08s-16.45-4.37-22.48.9,4.56,9.87,4.56,9.87a15,15,0,0,0,16.07-4.18C1329.31,625.88,1325.63,625.08,1325.63,625.08Z"/><path class="cls-28" d="M1284.16,660.19s-9.84-11.22-18.69-9.83-3.9,10-3.9,10,4.24,6.92,16.08,4.19C1286.5,662.55,1284.16,660.19,1284.16,660.19Z"/><path class="cls-28" d="M1208.14,650.39s6.93-9.75,23.38-17.91l-2.62-3.37s-18.46-2.86-25.64,6.13-4.1,13.91-4.1,13.91S1204.11,651.8,1208.14,650.39Z"/><path class="cls-28" d="M1334.61,657.5s-4.15-9-2.56-22.41l-3.83-.41s-11,8.49-7.52,17.26,8.69,9.77,8.69,9.77S1333.77,660.45,1334.61,657.5Z"/><path class="cls-28" d="M1293.19,627.61s-10.31-3.46-18.24-.39c0,0-1.8,1.46,3,4.78a21.89,21.89,0,0,1,5.33,5.11s7.39,7.45,11-2.59C1296.76,627.9,1293.19,627.61,1293.19,627.61Z"/><path class="cls-28" d="M1374,651.49s-9.16-4.54-13.6-9.39c0,0,3.06-9,9.07-11.22s9.69,1,9.69,1S1381.25,648.6,1374,651.49Z"/><path class="cls-28" d="M1407.61,657.37s10.89-3,11.36-5.63a6.62,6.62,0,0,0-.67-4.45s-4.54-4.7-15.58-2.65C1402.72,644.64,1403,652.38,1407.61,657.37Z"/><path class="cls-28" d="M1338.78,633.27s3.8,7.91,7,8.19a12.13,12.13,0,0,0,5.29-.59s5.5-3.44,2.8-11.47C1353.84,629.4,1344.62,629.8,1338.78,633.27Z"/><path class="cls-28" d="M1342.12,656.84s15.42,6.27,22.39,1.79-2.59-10.31-2.59-10.31-7.89-4.54-16.7,2.23C1338.63,655.62,1342.12,656.84,1342.12,656.84Z"/><path class="cls-28" d="M1289.36,654.58s17,2.82,22.19-3-6-9.39-6-9.39a14.53,14.53,0,0,0-15.34,5.64C1285.58,654.13,1289.36,654.58,1289.36,654.58Z"/><path class="cls-28" d="M1422.83,657.46s13.53,3.73,18.48-.76-3.74-8.42-3.74-8.42a12,12,0,0,0-13.22,3.57C1419.81,656.78,1422.83,657.46,1422.83,657.46Z"/><path class="cls-28" d="M1451.71,656.21s8.47,2.95,15,.33c0,0,1.48-1.24-2.47-4.07a18.32,18.32,0,0,1-4.38-4.36s-6.07-6.35-9.08,2.21C1448.78,656,1451.71,656.21,1451.71,656.21Z"/><path class="cls-28" d="M1452.65,632.32s-14-2.41-18.24,2.52,4.94,8,4.94,8A11.67,11.67,0,0,0,1452,638C1455.75,632.7,1452.65,632.32,1452.65,632.32Z"/><path class="cls-28" d="M1394.61,647.29s1.9-10.18,12-22.17l-3.35-1.89s-15.83,3.67-18.21,13.32S1387,649.2,1387,649.2,1391.91,649.75,1394.61,647.29Z"/><path class="cls-28" d="M1421.74,641.13s6.55-7.88,3.87-15c0,0-1.62-1.76-7,1.61a30.79,30.79,0,0,1-7.86,3.46s-11.37,4.73,1.45,9.61C1420.69,644,1421.74,641.13,1421.74,641.13Z"/><path class="cls-35" d="M1471.71,734.91c-2.22-1.34-13.34-7.13-29.85-.22-20.11,8.43-50.83,3.45-50.83,3.45s-12.43-2.3-27-6c-20-5-48.51,3.09-48.51,3.09s-21.08,6.94-52.52,0a140.59,140.59,0,0,0-58.7,0v67.57h267.77V734.91Z"/><path class="cls-35" d="M1216.74,713.1h0a70,70,0,0,1-3.54-6.27c-1.2,2.49-3.54,6.27-3.54,6.27h0a.22.22,0,0,0-.05.08,4.12,4.12,0,1,0,7.71,2A4.14,4.14,0,0,0,1216.74,713.1Z"/><path class="cls-35" d="M1236.49,709.54h0a70,70,0,0,1-3.54-6.27c-1.2,2.49-3.54,6.27-3.54,6.27h0a.35.35,0,0,1-.05.08,4.12,4.12,0,1,0,7.71,2A4,4,0,0,0,1236.49,709.54Z"/><path class="cls-35" d="M1258.49,717.05h0a69.25,69.25,0,0,1-3.54-6.26c-1.2,2.49-3.54,6.26-3.54,6.26h0a.41.41,0,0,0-.05.09,4.12,4.12,0,1,0,7.12-.09Z"/><path class="cls-35" d="M1274.25,708.37h0a67.44,67.44,0,0,1-3.54-6.27c-1.21,2.49-3.54,6.27-3.54,6.27h0l-.06.08a4.2,4.2,0,0,0-.52,2,4.12,4.12,0,1,0,8.24,0A4.05,4.05,0,0,0,1274.25,708.37Z"/><path class="cls-35" d="M1289.53,713.1h0a69.12,69.12,0,0,1-3.55-6.27c-1.2,2.49-3.54,6.27-3.54,6.27h0l-.06.08a4.2,4.2,0,0,0-.53,2,4.13,4.13,0,0,0,8.25,0A4.05,4.05,0,0,0,1289.53,713.1Z"/><path class="cls-35" d="M1309.68,709.54h0a68.26,68.26,0,0,1-3.53-6.27c-1.21,2.49-3.55,6.27-3.55,6.27h0l-.06.08a4.13,4.13,0,1,0,7.72,2A4.05,4.05,0,0,0,1309.68,709.54Z"/><path class="cls-35" d="M1329.69,718.06h0a68.26,68.26,0,0,1-3.53-6.27c-1.21,2.5-3.55,6.27-3.55,6.27h0l-.06.09a4,4,0,0,0-.53,2,4.13,4.13,0,0,0,8.25,0A4.05,4.05,0,0,0,1329.69,718.06Z"/><path class="cls-35" d="M1349.43,711.81h0a67.44,67.44,0,0,1-3.54-6.27c-1.2,2.5-3.54,6.27-3.54,6.27h0a.35.35,0,0,0,0,.08,4.12,4.12,0,1,0,7.71,2A4.05,4.05,0,0,0,1349.43,711.81Z"/><path class="cls-35" d="M1455.19,718.41h0a68.47,68.47,0,0,0,3.54-6.27c1.2,2.5,3.54,6.27,3.54,6.27h0a.41.41,0,0,1,0,.09,4.12,4.12,0,1,1-7.12-.09Z"/><path class="cls-35" d="M1435.43,714.85h0a69.25,69.25,0,0,0,3.54-6.26c1.2,2.49,3.54,6.26,3.54,6.26h0l0,.09a4.12,4.12,0,1,1-7.71,2A4.2,4.2,0,0,1,1435.43,714.85Z"/><path class="cls-35" d="M1413.43,722.37h0a66,66,0,0,0,3.54-6.27c1.2,2.5,3.54,6.27,3.54,6.27h0a.41.41,0,0,1,0,.09,4.06,4.06,0,0,1,.53,2,4.12,4.12,0,1,1-7.65-2.11Z"/><path class="cls-35" d="M1397.67,713.68h0a66.75,66.75,0,0,0,3.54-6.26c1.21,2.49,3.54,6.26,3.54,6.26h0l.06.09a4.19,4.19,0,0,1,.52,2,4.12,4.12,0,1,1-7.65-2.11Z"/><path class="cls-35" d="M1376.71,722.37h0a68.47,68.47,0,0,0,3.54-6.27c1.2,2.5,3.54,6.27,3.54,6.27h0a.41.41,0,0,0,0,.09,4.12,4.12,0,1,1-7.13-.09Z"/><path class="cls-35" d="M1358.24,713.68h0a69.25,69.25,0,0,0,3.54-6.26c1.2,2.49,3.54,6.26,3.54,6.26h0a.41.41,0,0,1,0,.09,4.12,4.12,0,1,1-7.12-.09Z"/><path class="cls-35" d="M1322.49,717.12h0a69.25,69.25,0,0,0,3.54-6.26c1.2,2.49,3.54,6.26,3.54,6.26h0a.41.41,0,0,1,0,.09,4.12,4.12,0,1,1-7.12-.09Z"/></g><g id="Layer_25" data-name="Layer 25"><path class="cls-36" d="M1231.47,589.43a9.48,9.48,0,0,0-1.39-2.4,13.83,13.83,0,0,1-.82-1.23,9.52,9.52,0,0,1-.62-1.4,12.57,12.57,0,0,1-.51-2,10.62,10.62,0,0,1-.11-1.16l-5.06-.75,3.56-3.79a5,5,0,0,0-8.28,5.1v0a6.31,6.31,0,0,0,.44.95c.3.5.61,1,.9,1.41a13.37,13.37,0,0,1,1.6,2.91c0,.13.09.27.13.41a10,10,0,0,1,.27,2.24,12.66,12.66,0,0,0,.26,2.4,4.13,4.13,0,0,0,.15.5,5,5,0,0,0,9.72-1.21A4.57,4.57,0,0,0,1231.47,589.43Z"/><path class="cls-37" d="M1225.74,577.63a3.84,3.84,0,0,0-1.18-.88,3.75,3.75,0,0,0-5.37,2.91,4,4,0,0,0,.19,1.76h0a4.44,4.44,0,0,0,.35.77c.28.47.58.92.87,1.35a12.8,12.8,0,0,1,1.88,3.66,10.41,10.41,0,0,1,.31,2.52,11.35,11.35,0,0,0,.24,2.17,3.82,3.82,0,0,0,5,2.7,3.83,3.83,0,0,0,2.54-3.24c.14-1.44-.62-2.5-1.42-3.61a15.12,15.12,0,0,1-.89-1.36,11.78,11.78,0,0,1-1.27-3.77c-.08-.5-.11-1-.14-1.51"/><path class="cls-36" d="M1439.49,605.48l5.77,2.13a7.11,7.11,0,0,0,.54-1.57,6.9,6.9,0,0,0-10.56-7.18l0,0a8.35,8.35,0,0,0-1.14.92c-.57.56-1.09,1.12-1.6,1.67a18.13,18.13,0,0,1-3.4,3.11l-.51.31a13.87,13.87,0,0,1-2.94,1.1,18,18,0,0,0-3.15,1.15c-.22.11-.42.23-.63.36a7,7,0,0,0,4.83,12.73,6.5,6.5,0,0,0,2.66-1,13.09,13.09,0,0,0,2.78-2.67c.48-.55.93-1.06,1.4-1.51a12.64,12.64,0,0,1,1.68-1.3,16.7,16.7,0,0,1,2.53-1.34,15.8,15.8,0,0,1,1.8-.61c.52-.16,1-.32,1.57-.52Z"/><path class="cls-37" d="M1443.7,607a5.13,5.13,0,0,0,.45-1.3,5.21,5.21,0,0,0-.71-4,5.16,5.16,0,0,0-5-2.32,5.38,5.38,0,0,0-2.32.83h0a5.9,5.9,0,0,0-.92.73c-.54.53-1,1.09-1.55,1.62a17.71,17.71,0,0,1-4.31,3.74,15.09,15.09,0,0,1-3.3,1.25,16.57,16.57,0,0,0-2.86,1,5.24,5.24,0,0,0-2.66,3.32,5.3,5.3,0,0,0,.65,4.26,5.37,5.37,0,0,0,5.22,2.36c2-.28,3.16-1.66,4.4-3.11.49-.56,1-1.14,1.53-1.65a16.6,16.6,0,0,1,4.68-3,18.53,18.53,0,0,1,2-.68c.54-.16,1.09-.33,1.62-.53"/><path class="cls-36" d="M1245.52,556l6.06,1.55a6.67,6.67,0,0,0-7.73-9.23,6.18,6.18,0,0,0-2.46,1.22,12.85,12.85,0,0,0-2.42,2.82,17.78,17.78,0,0,1-1.19,1.59,11.86,11.86,0,0,1-1.49,1.41,16,16,0,0,1-2.29,1.53,14.28,14.28,0,0,1-1.67.76,12.26,12.26,0,0,0-3.09,1.66,6.73,6.73,0,0,0-1,9.37,6.66,6.66,0,0,0,9.41,1l0,0a6.3,6.3,0,0,0,1-1c.5-.59.94-1.18,1.38-1.76a17.73,17.73,0,0,1,3-3.31c.15-.12.3-.24.46-.35a13,13,0,0,1,2.72-1.34l1.15-.48Z"/><path class="cls-38" d="M1250,557.13a4.76,4.76,0,0,0,.48-1.48,5.09,5.09,0,0,0-1-4,5.17,5.17,0,0,0-5.24-1.76c-1.88.46-2.87,1.89-3.93,3.4A18.27,18.27,0,0,1,1239,555a15.72,15.72,0,0,1-4.2,3.28,15.35,15.35,0,0,1-1.85.85,11.12,11.12,0,0,0-2.68,1.42,5,5,0,0,0-1.82,3.36,5.06,5.06,0,0,0,1.07,3.74,5,5,0,0,0,5,1.75,5.31,5.31,0,0,0,2.15-1h0a6.71,6.71,0,0,0,.81-.79c.47-.57.9-1.14,1.32-1.7a17.32,17.32,0,0,1,3.79-4,14.4,14.4,0,0,1,3-1.52q.62-.24,1.23-.51"/><path class="cls-39" d="M1253,565.81a6,6,0,0,1,9.63-3l-.66,2.55a4,4,0,0,0-2.26-1.46,3.56,3.56,0,0,0-1.84,6.87,3.84,3.84,0,0,0,2.68-.13l-.71,2.56a6.22,6.22,0,0,1-2.65-.16A5.74,5.74,0,0,1,1253,565.81Z"/><path class="cls-39" d="M1273.21,565.31l-3,11.07-2.33-.62,1.19-4.41-4.23-1.14-1.18,4.41-2.33-.62,3-11.07,2.32.62-1.18,4.42,4.22,1.13,1.19-4.41Z"/><path class="cls-39" d="M1275.37,581.17a2.27,2.27,0,0,1-2.86,1.57,2.38,2.38,0,0,1-1.85-2.3l1.36-.27a1.22,1.22,0,0,0,.83,1.22.95.95,0,1,0,.49-1.83,1.47,1.47,0,0,0-.86,0l-.37-.83,0,0,2-1.17L1272,577l.36-1.33,3.79,1-.31,1.14-1.51.91A2.1,2.1,0,0,1,1275.37,581.17Z"/><path class="cls-39" d="M1289.49,569.69l-3,11.07-2.33-.63,1.19-4.41-4.22-1.14L1280,579l-2.33-.63,3-11.07,2.32.63-1.18,4.41,4.22,1.14,1.19-4.42Z"/><path class="cls-39" d="M1296.3,582.93c-.64,2.42-2.86,3.23-5,2.65a7.13,7.13,0,0,1-2.84-1.54l.6-2.15a5.22,5.22,0,0,0,2.39,1.58,2,2,0,0,0,2.73-1.52l.06-.23a3.07,3.07,0,0,1-2.69.5c-2.17-.58-3.08-2.76-2.47-5s2.49-3.7,4.66-3.11a3,3,0,0,1,2,1.74l.27-1,2.26.6Zm-1.32-4.16a1.88,1.88,0,0,0-1.27-2.34,1.84,1.84,0,0,0-2.26,1.4,1.81,1.81,0,0,0,1.26,2.33A1.86,1.86,0,0,0,1295,578.77Z"/><path class="cls-39" d="M1303.07,577.06l-1.27-.34-.34,1.28-1-.28.34-1.28-1.23-.33.27-1,1.23.32.34-1.24,1,.28-.33,1.25,1.26.34Z"/><path class="cls-39" d="M1314.09,582.18l-.3,1.12-6.52,1.91.59-2.18,3.72-.9-2.77-2.63.59-2.23Z"/><path class="cls-39" d="M1331.17,580.88l-3,11.07-2.32-.62,1.18-4.41-4.22-1.14-1.19,4.41-2.32-.62,3-11.07,2.33.62-1.19,4.42,4.23,1.13,1.18-4.41Z"/><path class="cls-39" d="M1338,594.12c-.65,2.42-2.87,3.23-5,2.66a7.08,7.08,0,0,1-2.84-1.55l.59-2.14a5.24,5.24,0,0,0,2.39,1.57,2,2,0,0,0,2.74-1.52l.05-.22a3.12,3.12,0,0,1-2.69.5c-2.17-.59-3.07-2.76-2.46-5s2.48-3.69,4.65-3.11a3.11,3.11,0,0,1,2.06,1.74l.26-1,2.26.61Zm-1.33-4.15a1.86,1.86,0,0,0-1.27-2.34,1.93,1.93,0,0,0-1,3.73A1.86,1.86,0,0,0,1336.65,590Z"/><path class="cls-39" d="M1341.46,586.41c.49-1.8,1.49-3.16,3.13-2.72s1.83,2.12,1.34,3.92-1.49,3.17-3.12,2.73S1341,588.24,1341.46,586.41Zm3.11.84c.28-1.07.32-2-.36-2.18s-1.1.64-1.39,1.71-.33,2,.35,2.18S1344.28,588.33,1344.57,587.25Z"/><path class="cls-28" d="M1280.92,604.58s.69-1.93-.21-2.65-2.26,1.65-2.26,1.65l-4.93.75c2.77-1.19,2.51-4.49,2.51-4.49a6.8,6.8,0,0,0,3.46-4.54c2.19-7.88-7.42-10-7.42-10s-9.32-3.15-11.51,4.73a6.82,6.82,0,0,0,.62,5.68s-1.93,2.69-.17,5.14l-3.83-3.19s0-2.73-1.09-2.58-1.55,2.17-1.55,2.17-1.63-.07-1.71,1.33,2.8,1.25,2.8,1.25l5.27,4.53-.25.87-3.76,1.08-2.11-.59c-1-.28-1.65-.3-2,.15s1,1.78,1,1.78-1.22,2.41.09,2.77a1.33,1.33,0,0,0,1.68-.95,3.86,3.86,0,0,1,1.57-.82l3.7-.86s.26,2.28,4.08,3.34,5.22-.75,5.22-.75l2.72,2.65a3.79,3.79,0,0,1,.92,1.51,1.33,1.33,0,0,0,.94,1.68c1.32.36,1.52-2.33,1.52-2.33s1.85-.43,1.77-1-.62-.88-1.64-1.17l-2.12-.59-2.66-2.86.24-.88,6.85-1.16s2.38,1.61,3,.38S1280.92,604.58,1280.92,604.58Zm-16.86-4.45c-2.53-1-1.44-3.78-1.44-3.78s.24-.9,2.43-.66,2.48,1,2.48,1a1.08,1.08,0,0,1,.1.9S1266.6,601.11,1264.06,600.13Zm2.88,3.75s-.6,1.34-1.14,0,2-3.22,1.87-2.56Zm1.42.66c-1.19.91-1-.55-1-.55l.72-2.6C1268.26,600.72,1269.54,603.62,1268.36,604.54Zm3.42-2.26c-2.68-.47-1.72-4.06-1.72-4.06a1.1,1.1,0,0,1,.55-.71s.6-.49,2.63.46,1.73,1.82,1.73,1.82S1274.46,602.75,1271.78,602.28Z"/><path class="cls-36" d="M1334.75,609a12.32,12.32,0,1,1-10.09-14.21A12.33,12.33,0,0,1,1334.75,609Z"/><path class="cls-28" d="M1321.53,603.49c-.27,1.57-1.08,2.75-1.82,2.63s-1.11-1.51-.85-3.09,1.09-2.75,1.82-2.63S1321.8,601.91,1321.53,603.49Z"/><path class="cls-28" d="M1327.41,604.48c-.27,1.58-1.08,2.76-1.82,2.63s-1.12-1.5-.85-3.08,1.08-2.76,1.82-2.63S1327.68,602.9,1327.41,604.48Z"/><path class="cls-40" d="M1329.82,609.92c-.62,3.62-4.48,6-8.63,5.29s-7-4.21-6.39-7.84"/><path class="cls-39" d="M1314.09,536.69a7,7,0,0,1,4.64-9.05,7.29,7.29,0,0,1,3.22-.33l1,3a4.82,4.82,0,0,0-3.26,0,4.31,4.31,0,0,0,2.65,8.21,4.65,4.65,0,0,0,2.64-1.9l1,3.08a7.52,7.52,0,0,1-2.81,1.59A7,7,0,0,1,1314.09,536.69Z"/><path class="cls-39" d="M1330.15,528.16l1,3.14c-1.29.13-2.63.85-2,2.8l1.47,4.58-2.72.87-3.05-9.46,2.73-.88.45,1.42A3.39,3.39,0,0,1,1330.15,528.16Z"/><path class="cls-39" d="M1335.2,527.18l-1.51.48.49,1.53-1.24.41-.49-1.54-1.48.48-.39-1.22,1.47-.47-.47-1.49,1.24-.4.48,1.49,1.51-.49Z"/><path class="cls-39" d="M1341.46,525.44a2.83,2.83,0,0,1-5.4,1.72v0a7,7,0,0,1,.07-3.09c.14-.91.29-1.76.43-2.75l1.76-.57-.51,3,.1,0A2.72,2.72,0,0,1,1341.46,525.44Zm-1.62.46a1.15,1.15,0,1,0-.75,1.46A1.14,1.14,0,0,0,1339.84,525.9Z"/><path class="cls-39" d="M1356,523.14l.43,1.34-5.38,6.25-.84-2.61,3.2-3.37-4.56-.86-.86-2.67Z"/><path class="cls-39" d="M1363.7,520.72a7,7,0,0,1,4.64-9.05,7.29,7.29,0,0,1,3.22-.33l1,3a4.82,4.82,0,0,0-3.26,0,4.31,4.31,0,0,0,2.65,8.21,4.68,4.68,0,0,0,2.64-1.89l1,3.07a7.52,7.52,0,0,1-2.81,1.59A7,7,0,0,1,1363.7,520.72Z"/><path class="cls-39" d="M1379.76,512.19l1,3.14c-1.29.13-2.63.85-2,2.8l1.47,4.58-2.72.87-3-9.46,2.73-.87.46,1.41A3.37,3.37,0,0,1,1379.76,512.19Z"/><path class="cls-39" d="M1384.81,511.21l-1.51.48.5,1.54-1.25.4-.5-1.54-1.47.48-.39-1.21,1.47-.48-.47-1.49,1.24-.4.48,1.49,1.51-.49Z"/><path class="cls-39" d="M1391.16,509.49a2.76,2.76,0,0,1-1.88,3.49,2.9,2.9,0,0,1-3.4-1.13l1.21-1.17a1.47,1.47,0,0,0,1.65.7,1.16,1.16,0,0,0,.77-1.48,1.15,1.15,0,0,0-1.48-.71,1.88,1.88,0,0,0-.85.6l-.92-.59,0-.05,1.24-2.5-2.57.82-.51-1.58,4.53-1.46.44,1.36-.94,1.92A2.56,2.56,0,0,1,1391.16,509.49Z"/><path class="cls-28" d="M1350,550.45s-.54-1.9-1.65-2-.85,2.57-.85,2.57l-3.44,3.36c1.5-2.5-.56-4.93-.56-4.93a6.62,6.62,0,0,0,.17-5.51c-2.71-7.41-11.43-3.68-11.43-3.68s-9.08,2.78-6.37,10.18a6.6,6.6,0,0,0,3.68,4.11s0,3.18,2.75,4.12l-4.79-.35s-1.5-2.17-2.31-1.41,0,2.57,0,2.57-1.31.87-.59,2,2.9-.59,2.9-.59l6.67.59.3.83-2.34,2.95-2,.73c-1,.35-1.46.69-1.49,1.24s1.78.83,1.78.83.4,2.58,1.63,2.12a1.27,1.27,0,0,0,.78-1.68,3.72,3.72,0,0,1,.77-1.52l2.42-2.75s1.48,1.63,5.07.32,3.67-3.52,3.67-3.52l3.62.55a3.7,3.7,0,0,1,1.57.67,1.29,1.29,0,0,0,1.69.78c1.23-.45-.13-2.68-.13-2.68s1.21-1.37.83-1.78-1-.34-1.94,0l-2,.73-3.7-.75-.3-.82,4.72-4.76s2.77-.08,2.59-1.41S1350,550.45,1350,550.45Zm-15.71,6c-2.54.66-3.26-2.15-3.26-2.15s-.31-.84,1.53-1.88,2.49-.64,2.49-.64c.41.11.59.64.59.64S1336.78,555.77,1334.24,556.43Zm4.36,1.32s.28,1.39-.93.6-.19-3.67,0-3.05Zm1.48-.28c-.42,1.38-1.1.14-1.1.14l-.89-2.45C1337.86,554.54,1340.49,556.09,1340.08,557.47Zm1.42-3.69c-2.37,1.13-3.63-2.22-3.63-2.22a1,1,0,0,1,0-.86s.19-.72,2.32-1.12,2.38.45,2.38.45S1343.86,552.64,1341.5,553.78Z"/><path class="cls-36" d="M1397.22,530.67a11.88,11.88,0,1,1-15.62-6.19A11.88,11.88,0,0,1,1397.22,530.67Z"/><path class="cls-28" d="M1383.65,533.18c.61,1.42.57,2.79-.09,3.08s-1.69-.63-2.3-2-.58-2.8.09-3.08S1383,531.76,1383.65,533.18Z"/><path class="cls-28" d="M1388.93,530.9c.61,1.42.57,2.8-.09,3.08s-1.69-.63-2.31-2.05-.57-2.8.09-3.08S1388.32,529.48,1388.93,530.9Z"/><path class="cls-40" d="M1393.73,534c1.41,3.26-.47,7.2-4.2,8.81s-7.88.27-9.29-3"/><path class="cls-33" d="M1295.52,531.74l7.23.86c.08-.12.17-.24.25-.38a7,7,0,0,0-12.09-7.08s-4.4,8.05-19,16.86a7,7,0,1,0,6.75,12.26,83.5,83.5,0,0,0,19.84-16.47Z"/><path class="cls-33" d="M1364.68,603.21l1.91-3.73c-.73-1-1.23-1.56-1.23-1.56a4.52,4.52,0,0,0-1.91-1.33,4.66,4.66,0,0,0-5.59,6.79,44.12,44.12,0,0,1,4.38,14,5.51,5.51,0,0,0,.07.71,5,5,0,0,0,9.54.93,5,5,0,0,0,.29-2.15,25.53,25.53,0,0,0-2.7-12.62Z"/><path class="cls-34" d="M1239.42,533.05c-2.47.8-5.33-.55-6.81-3.2a6.74,6.74,0,0,1-.76-4.63,4.85,4.85,0,0,1,2.38-3.35,4,4,0,0,1,.82-.36c2.47-.79,5.33.56,6.8,3.21a6.62,6.62,0,0,1,.76,4.63,4.86,4.86,0,0,1-2.37,3.35A4.22,4.22,0,0,1,1239.42,533.05Z"/><path class="cls-34" d="M1253.64,537.14c-1.33,2.23-4.37,3.11-7.23,2.1a6.74,6.74,0,0,1-3.63-3,4.88,4.88,0,0,1-.43-4.09,4.26,4.26,0,0,1,.38-.81c1.33-2.23,4.37-3.11,7.23-2.09a6.72,6.72,0,0,1,3.63,3,4.89,4.89,0,0,1,.43,4.08A4.3,4.3,0,0,1,1253.64,537.14Z"/><path class="cls-34" d="M1232.55,514.16c-1.93-2.51-5.11-3.45-7.4-2.2a5.07,5.07,0,0,0-.54.36,4.73,4.73,0,0,0-1.77,3.63,6.24,6.24,0,0,0,.11,1.36h4.17l-1.61,4.33a5.6,5.6,0,0,0,6.23,1,4.62,4.62,0,0,0,.55-.35,4.76,4.76,0,0,0,1.77-3.63A7,7,0,0,0,1232.55,514.16Z"/><path class="cls-33" d="M1421.56,541.81a5,5,0,0,0-10.07-.19l4.17,3-4.68,1.14a48.81,48.81,0,0,1-5.15,13.42,5,5,0,1,0,8.66,5.17,61.22,61.22,0,0,0,7.07-22h0A5.3,5.3,0,0,0,1421.56,541.81Z"/><path class="cls-33" d="M1387.57,562.48a3.32,3.32,0,0,0-1.74.55l.33,2.86-2.21-.81a29.91,29.91,0,0,1-8,6.74,3.23,3.23,0,1,0,3,5.69c10.07-5.81,11.74-10,11.74-10a3.39,3.39,0,0,0-3.08-5Z"/><path class="cls-34" d="M1412.07,594.46c-.82,3.16-4.17,5.28-8,5.06a8.43,8.43,0,0,1-5.42-2.3,6.1,6.1,0,0,1-2-4.76,5.83,5.83,0,0,1,.17-1.11c.82-3.15,4.17-5.28,8-5.06a8.43,8.43,0,0,1,5.42,2.3,6.15,6.15,0,0,1,2,4.77A5.87,5.87,0,0,1,1412.07,594.46Z"/><path class="cls-34" d="M1425.94,582.15c1.47,2.9.36,6.71-2.64,9.06a8.41,8.41,0,0,1-5.58,1.85,6.17,6.17,0,0,1-4.62-2.28,6.32,6.32,0,0,1-.6-.95c-1.47-2.91-.35-6.71,2.64-9.06a8.41,8.41,0,0,1,5.58-1.85,6.17,6.17,0,0,1,4.62,2.28A5.85,5.85,0,0,1,1425.94,582.15Z"/><path class="cls-34" d="M1439.2,572c1.2,3-.25,6.72-3.45,8.78a8.37,8.37,0,0,1-5.73,1.34,6.14,6.14,0,0,1-4.39-2.69,5.88,5.88,0,0,1-.51-1c-1.19-3,.25-6.72,3.45-8.78a8.41,8.41,0,0,1,5.72-1.34,5.93,5.93,0,0,1,4.91,3.69Z"/><path class="cls-34" d="M1456.11,570.7c0,3.26-2.78,6.13-6.52,6.82a8.38,8.38,0,0,1-5.81-.93,6.13,6.13,0,0,1-3-4.15,6,6,0,0,1-.1-1.12c0-3.25,2.78-6.12,6.52-6.82a8.44,8.44,0,0,1,5.81.93,6.13,6.13,0,0,1,3,4.16A5.88,5.88,0,0,1,1456.11,570.7Z"/><path class="cls-34" d="M1395.9,594.81a5.87,5.87,0,0,0-2.65-4.31,8.78,8.78,0,0,0-5.8-1.43,8.45,8.45,0,0,0-6.35,3.58l4.61,2.87-4.94,2.71a6.48,6.48,0,0,0,2.06,2.32,8.83,8.83,0,0,0,5.8,1.43c3.95-.36,7.09-3.1,7.29-6.36A5.48,5.48,0,0,0,1395.9,594.81Z"/><path class="cls-33" d="M1226.07,616l.64-4.06A59.72,59.72,0,0,0,1211,601.42v0a3,3,0,0,0-.5-.19,4.72,4.72,0,1,0-2.81,9s6,1.66,14,9.87a4.72,4.72,0,0,0,7.85-5.16Z"/></g><g id="Layer_26" data-name="Layer 26"><path class="cls-28" d="M1251.14,351.05s8.42,5.36,12.1,10.57c0,0-4.38,8.66-10.69,10.31s-9.47-1.93-9.47-1.93S1243.49,353.25,1251.14,351.05Z"/><path class="cls-28" d="M1257.59,376.14s-10.53,1.83-11.33,4.24a6,6,0,0,0,0,4.19s3.55,4.76,14.08,3.81C1260.34,388.38,1261.15,381.16,1257.59,376.14Z"/><path class="cls-28" d="M1283.37,372.38s-2.6-8.2-5.69-8.77a12.33,12.33,0,0,0-5.35.1s-6,2.9-4.51,11.13C1267.82,374.84,1277.05,375.3,1283.37,372.38Z"/><path class="cls-28" d="M1235.4,369.85s-16.15,5-16.39,12.09,11.64,5.21,11.64,5.21,9.55-1.7,8.78-11.35C1238.86,368.58,1235.4,369.85,1235.4,369.85Z"/><path class="cls-28" d="M1335.64,355.78s-16.45-4.37-22.47.89,4.55,9.88,4.55,9.88a15,15,0,0,0,16.08-4.19C1339.33,356.57,1335.64,355.78,1335.64,355.78Z"/><path class="cls-28" d="M1291.48,389.83s-9.84-11.22-18.69-9.84-3.9,10.05-3.9,10.05,4.24,6.92,16.07,4.19C1293.82,392.19,1291.48,389.83,1291.48,389.83Z"/><path class="cls-28" d="M1223.29,351.58s-3.19,9.28-14.25,19.54l2.85,2s15.2-2,18.76-10.79,0-11.91,0-11.91S1226.14,349.53,1223.29,351.58Z"/><path class="cls-28" d="M1300.5,357.25s-10.3-3.46-18.24-.39c0,0-1.8,1.46,3,4.78a21.68,21.68,0,0,1,5.33,5.11s7.38,7.45,11.05-2.59C1304.08,357.53,1300.5,357.25,1300.5,357.25Z"/><path class="cls-28" d="M1384,382.18s-9.15-4.54-13.59-9.38c0,0,3-9,9.07-11.22s9.69,1,9.69,1S1391.26,379.3,1384,382.18Z"/><path class="cls-28" d="M1417.62,388.06s10.9-3,11.37-5.62a6.69,6.69,0,0,0-.67-4.45s-4.55-4.7-15.59-2.66C1412.73,375.33,1413,383.08,1417.62,388.06Z"/><path class="cls-28" d="M1348.79,364s3.81,7.9,7,8.19a12.31,12.31,0,0,0,5.29-.59s5.5-3.44,2.81-11.47C1363.86,360.1,1354.63,360.49,1348.79,364Z"/><path class="cls-28" d="M1352.14,387.54s15.41,6.27,22.39,1.78-2.6-10.3-2.6-10.3-7.89-4.55-16.7,2.23C1348.65,386.31,1352.14,387.54,1352.14,387.54Z"/><path class="cls-28" d="M1299.37,385.28s17,2.82,22.19-3-6-9.39-6-9.39a14.51,14.51,0,0,0-15.33,5.64C1295.59,384.83,1299.37,385.28,1299.37,385.28Z"/><path class="cls-28" d="M1435.55,382.87s13.52,3.73,18.47-.76-3.74-8.42-3.74-8.42a12,12,0,0,0-13.22,3.57C1432.52,382.19,1435.55,382.87,1435.55,382.87Z"/><path class="cls-28" d="M1465.36,357.73s-14-2.41-18.24,2.52,4.94,8,4.94,8a11.67,11.67,0,0,0,12.6-4.8C1468.46,358.11,1465.36,357.73,1465.36,357.73Z"/><path class="cls-28" d="M1404.62,378s1.9-10.19,12-22.17l-3.36-1.9s-15.82,3.68-18.2,13.32S1397,379.9,1397,379.9,1401.92,380.44,1404.62,378Z"/><path class="cls-28" d="M1431.75,371.82s6.56-7.87,3.88-15c0,0-1.63-1.75-7,1.61a30.81,30.81,0,0,1-7.85,3.46s-11.38,4.74,1.45,9.61C1430.71,374.72,1431.75,371.82,1431.75,371.82Z"/><path class="cls-28" d="M1334.05,380.58s10.75,2.49,18.17-1.3c0,0,1.57-1.61-3.71-4.47a23.77,23.77,0,0,1-6.06-4.58s-8.45-6.71-10.59,3.59C1330.45,380.62,1334.05,380.58,1334.05,380.58Z"/><path class="cls-28" d="M1422.77,356.47s-8.41-5.36-12.09-10.57c0,0,4.38-8.66,10.69-10.31s9.47,1.93,9.47,1.93S1430.42,354.27,1422.77,356.47Z"/><path class="cls-28" d="M1416.33,331.38s10.52-1.83,11.33-4.24a6.1,6.1,0,0,0,0-4.19s-3.56-4.75-14.09-3.81C1413.57,319.14,1412.76,326.36,1416.33,331.38Z"/><path class="cls-28" d="M1390.55,335.14s2.6,8.2,5.69,8.77a12.28,12.28,0,0,0,5.34-.1s6-2.9,4.51-11.13C1406.09,332.68,1396.87,332.22,1390.55,335.14Z"/><path class="cls-28" d="M1438.52,337.67s16.15-5,16.39-12.09-11.64-5.21-11.64-5.21-9.55,1.7-8.78,11.35C1435.06,338.94,1438.52,337.67,1438.52,337.67Z"/><path class="cls-28" d="M1338.27,351.74s16.46,4.37,22.48-.89-4.55-9.88-4.55-9.88a15,15,0,0,0-16.08,4.19C1334.59,351,1338.27,351.74,1338.27,351.74Z"/><path class="cls-28" d="M1450.63,355.94s3.19-9.28,14.25-19.53l-2.85-2.05s-15.2,2.05-18.76,10.79,0,11.91,0,11.91S1447.78,358,1450.63,355.94Z"/><path class="cls-28" d="M1373.41,350.27s10.31,3.47,18.24.39c0,0,1.81-1.46-3-4.78a21.68,21.68,0,0,1-5.33-5.11s-7.39-7.45-11,2.59C1369.84,350,1373.41,350.27,1373.41,350.27Z"/><path class="cls-28" d="M1289.92,325.34s9.16,4.54,13.6,9.39c0,0-3,9-9.07,11.21s-9.69-1-9.69-1S1282.66,328.23,1289.92,325.34Z"/><path class="cls-28" d="M1256.29,319.46s-10.89,3-11.36,5.62a6.62,6.62,0,0,0,.67,4.45s4.55,4.71,15.59,2.66C1261.19,332.19,1260.89,324.44,1256.29,319.46Z"/><path class="cls-28" d="M1325.12,343.55s-3.8-7.9-7-8.19a12.17,12.17,0,0,0-5.29.6s-5.51,3.43-2.81,11.47C1310.06,347.43,1319.28,347,1325.12,343.55Z"/><path class="cls-28" d="M1321.78,320s-15.42-6.27-22.39-1.78,2.59,10.3,2.59,10.3,7.9,4.55,16.7-2.23C1325.27,321.21,1321.78,320,1321.78,320Z"/><path class="cls-28" d="M1374.55,322.24s-17-2.82-22.19,3,6,9.38,6,9.38A14.53,14.53,0,0,0,1373.7,329C1378.32,322.69,1374.55,322.24,1374.55,322.24Z"/><path class="cls-28" d="M1238.37,324.65s-13.52-3.73-18.47.76,3.74,8.42,3.74,8.42a12,12,0,0,0,13.21-3.57C1241.4,325.33,1238.37,324.65,1238.37,324.65Z"/><path class="cls-28" d="M1208.56,349.79s14,2.41,18.24-2.52-4.94-8-4.94-8a11.68,11.68,0,0,0-12.61,4.8C1205.46,349.41,1208.56,349.79,1208.56,349.79Z"/><path class="cls-28" d="M1269.3,329.54s-1.9,10.18-12,22.16l3.36,1.9s15.82-3.68,18.2-13.32-1.91-12.66-1.91-12.66S1272,327.08,1269.3,329.54Z"/><path class="cls-28" d="M1242.16,335.7s-6.55,7.88-3.87,15c0,0,1.63,1.76,7-1.61a30.65,30.65,0,0,1,7.85-3.46s11.37-4.73-1.45-9.61C1243.21,332.8,1242.16,335.7,1242.16,335.7Z"/><path class="cls-28" d="M1339.87,326.94s-10.75-2.49-18.17,1.3c0,0-1.57,1.61,3.71,4.47a23.77,23.77,0,0,1,6.06,4.58s8.45,6.72,10.58-3.59C1343.46,326.9,1339.87,326.94,1339.87,326.94Z"/><path class="cls-28" d="M1428.18,428.43s-8.42-5.35-12.1-10.57c0,0,4.38-8.66,10.69-10.3s9.47,1.92,9.47,1.92S1435.83,426.24,1428.18,428.43Z"/><path class="cls-28" d="M1421.73,403.34s10.53-1.83,11.33-4.24a6.1,6.1,0,0,0,0-4.19s-3.55-4.75-14.08-3.8C1419,391.11,1418.17,398.32,1421.73,403.34Z"/><path class="cls-28" d="M1395.86,407.34s2.83,8.12,6,8.6a12.39,12.39,0,0,0,5.33-.26s5.89-3.08,4.18-11.26C1411.32,404.42,1402.09,404.24,1395.86,407.34Z"/><path class="cls-28" d="M1443.93,409.64s16.14-5,16.38-12.1-11.63-5.21-11.63-5.21-9.56,1.7-8.79,11.35C1440.46,410.9,1443.93,409.64,1443.93,409.64Z"/><path class="cls-28" d="M1346.37,424.76s16.46,4.37,22.48-.89-4.55-9.88-4.55-9.88a15,15,0,0,0-16.08,4.19C1342.69,424,1346.37,424.76,1346.37,424.76Z"/><path class="cls-28" d="M1387.84,389.66s9.84,11.22,18.69,9.83,3.9-10.05,3.9-10.05-4.24-6.92-16.07-4.19C1385.5,387.29,1387.84,389.66,1387.84,389.66Z"/><path class="cls-28" d="M1452.73,429s3.18-9.29,14.24-19.54l-2.85-2.05s-15.19,2.05-18.75,10.8,0,11.91,0,11.91S1449.88,431.06,1452.73,429Z"/><path class="cls-28" d="M1437,430.76s6.76,7.34,9,13.32c0,0-6.45,7.25-13,7.23s-8.66-4.28-8.66-4.28S1429.07,430.93,1437,430.76Z"/><path class="cls-28" d="M1415.2,439.38s-10.65-.93-12,1.2a6.11,6.11,0,0,0-1.08,4s2.23,5.51,12.65,7.29C1414.73,451.91,1417.36,445.15,1415.2,439.38Z"/><path class="cls-28" d="M1399,435.27s9.71-1.37,23.87,3.84l.53-3.47s-8.71-12.62-18.12-11.82-10.62,5.4-10.62,5.4S1395.9,433.66,1399,435.27Z"/><path class="cls-28" d="M1337.39,392.35s4.15,9,2.56,22.41l3.83.4s11-8.48,7.52-17.25-8.69-9.78-8.69-9.78S1338.23,389.39,1337.39,392.35Z"/><path class="cls-28" d="M1378.82,422.24s10.3,3.46,18.24.38c0,0,1.8-1.45-3-4.78a21.91,21.91,0,0,1-5.33-5.11s-7.38-7.44-11,2.59C1375.24,422,1378.82,422.24,1378.82,422.24Z"/><path class="cls-28" d="M1298,398.36s9.16,4.54,13.6,9.38c0,0-3,9-9.07,11.22s-9.69-1-9.69-1S1290.76,401.25,1298,398.36Z"/><path class="cls-28" d="M1264.4,392.48s-10.9,3-11.37,5.62a6.69,6.69,0,0,0,.67,4.45s4.55,4.71,15.59,2.66C1269.29,405.21,1269,397.46,1264.4,392.48Z"/><path class="cls-28" d="M1333.22,416.57s-3.8-7.9-7-8.19a12.1,12.1,0,0,0-5.3.6s-5.49,3.43-2.8,11.47C1318.16,420.45,1327.39,420.05,1333.22,416.57Z"/><path class="cls-28" d="M1329.88,393s-15.42-6.27-22.39-1.78,2.59,10.3,2.59,10.3,7.9,4.55,16.7-2.23C1333.37,394.23,1329.88,393,1329.88,393Z"/><path class="cls-28" d="M1286.21,484.39s17-1.13,21-8.05-7.48-7.9-7.48-7.9a15,15,0,0,0-13.89,9.12C1282.47,484.81,1286.21,484.39,1286.21,484.39Z"/><path class="cls-28" d="M1367.17,473.05s9.75,11.29,18.61,10,4-10,4-10-4.19-6.95-16-4.3C1364.84,470.67,1367.17,473.05,1367.17,473.05Z"/><path class="cls-28" d="M1316.33,463.51s.67-10.85-4.36-17.72c0,0-1.87-1.36-3.83,4.15a21.62,21.62,0,0,1-3.56,6.47s-5.27,9.07,5.38,10C1317,467,1316.33,463.51,1316.33,463.51Z"/><path class="cls-28" d="M1323.06,450.79s-2.58,16.45,3.38,22.21,9.44-4.88,9.44-4.88,2.62-8.72-6-15.75C1323.46,447.12,1323.06,450.79,1323.06,450.79Z"/><path class="cls-28" d="M1382.65,395.26s-17-2.82-22.19,3,6,9.38,6,9.38A14.51,14.51,0,0,0,1381.8,402C1386.42,395.71,1382.65,395.26,1382.65,395.26Z"/><path class="cls-28" d="M1411.87,459.15s-5.74,8.46-11.13,12.2c0,0-8.5-4.23-9.89-10.5s2.33-9.46,2.33-9.46S1410,451.55,1411.87,459.15Z"/><path class="cls-28" d="M1416,486.19s8.29-14.44,4.79-21.95-10.56,1.18-10.56,1.18-5.57,7.21,0,16.85C1414.28,489.48,1416,486.19,1416,486.19Z"/><path class="cls-28" d="M1427.73,457s-5.09,16.46-.06,22.39,10.11-4.69,10.11-4.69a14.51,14.51,0,0,0-3.52-15.95C1428.68,453.31,1427.73,457,1427.73,457Z"/><path class="cls-28" d="M1249.17,392.38s-13.52-3.72-18.47.77,3.74,8.41,3.74,8.41a12,12,0,0,0,13.21-3.56C1252.2,393.06,1249.17,392.38,1249.17,392.38Z"/><path class="cls-28" d="M1220.29,393.63s-8.47-2.95-15-.32c0,0-1.48,1.24,2.48,4.07a18.35,18.35,0,0,1,4.38,4.36s6.07,6.34,9.08-2.21C1223.23,393.88,1220.29,393.63,1220.29,393.63Z"/><path class="cls-28" d="M1219.36,417.53s14,2.4,18.23-2.53-4.93-8-4.93-8a11.68,11.68,0,0,0-12.61,4.81C1216.26,417.14,1219.36,417.53,1219.36,417.53Z"/><path class="cls-28" d="M1277.4,402.55s-1.9,10.19-12,22.17l3.36,1.9s15.82-3.68,18.2-13.32-1.91-12.66-1.91-12.66S1280.09,400.1,1277.4,402.55Z"/><path class="cls-28" d="M1242.42,462s7.8-3.63,8-6.77a12.4,12.4,0,0,0-.79-5.29s-3.64-5.56-11.62-3.05C1238,446.92,1238.72,456.13,1242.42,462Z"/><path class="cls-28" d="M1290.35,431.19s-16.46-4.37-22.48.89,4.55,9.88,4.55,9.88a15,15,0,0,0,16.08-4.19C1294,432,1290.35,431.19,1290.35,431.19Z"/><path class="cls-28" d="M1317.7,438.09s-6.36-13.5-15.25-14.6-6.52,8.58-6.52,8.58,2.16,7.82,14.3,8.46C1319.3,441,1317.7,438.09,1317.7,438.09Z"/><path class="cls-28" d="M1255.2,432.65s-10.3-3.46-18.23-.38c0,0-1.81,1.46,3,4.78a21.68,21.68,0,0,1,5.33,5.11s7.38,7.44,11-2.59C1258.78,432.94,1255.2,432.65,1255.2,432.65Z"/><path class="cls-28" d="M1244.19,472.47s7.88,7.49,16.37,8c0,0,2.25-.56-.71-5.61a21.59,21.59,0,0,1-2.67-6.88s-3.56-9.87-11.12-2.31C1241.07,470.7,1244.19,472.47,1244.19,472.47Z"/><path class="cls-28" d="M1254.07,460.69s17,2.82,22.19-3-6-9.38-6-9.38a14.51,14.51,0,0,0-15.33,5.64C1250.29,460.24,1254.07,460.69,1254.07,460.69Z"/><path class="cls-28" d="M1294.48,447.46s-8.69-1.24-10.69,1.23a12.22,12.22,0,0,0-2.45,4.72s-.21,6.48,8,8.72C1289.3,462.13,1294.11,454.25,1294.48,447.46Z"/><path class="cls-28" d="M1288.43,468.41s-15.42-6.27-22.4-1.78,2.6,10.3,2.6,10.3,7.89,4.55,16.7-2.23C1291.91,469.64,1288.43,468.41,1288.43,468.41Z"/><path class="cls-28" d="M1250.27,408.72s-6.56,7.88-3.88,15c0,0,1.63,1.75,7-1.61a30.81,30.81,0,0,1,7.85-3.46s11.38-4.74-1.45-9.61C1251.31,405.82,1250.27,408.72,1250.27,408.72Z"/><path class="cls-28" d="M1342,460.53s7.43,12.94,16.38,13.32,5.8-9.09,5.8-9.09-2.79-7.62-14.94-7.27C1340.12,457.76,1342,460.53,1342,460.53Z"/><path class="cls-28" d="M1339.13,450.88s-8.08-6.25-11.48-11.88c0,0,4.76-8.22,11.1-9.21s9.29,2.92,9.29,2.92S1346.83,449.48,1339.13,450.88Z"/><path class="cls-28" d="M1451.37,468.11s-8.09-6.26-11.49-11.88c0,0,4.77-8.22,11.1-9.21s9.3,2.92,9.3,2.92S1459.06,466.71,1451.37,468.11Z"/><path class="cls-28" d="M1234.8,440.13s-8.43-5-16.18-18l-2.59,2.36s-1.13,15.29,6.69,20.59,11.65,2.45,11.65,2.45S1236.21,443.34,1234.8,440.13Z"/><path class="cls-28" d="M1225.44,453s6.76,7.33,9,13.32c0,0-6.45,7.24-13,7.22s-8.65-4.28-8.65-4.28S1217.48,453.16,1225.44,453Z"/><path class="cls-28" d="M1234.24,493.75s-8.09-6.26-11.49-11.88c0,0,4.77-8.22,11.1-9.21s9.3,2.92,9.3,2.92S1241.93,492.34,1234.24,493.75Z"/><path class="cls-28" d="M1369,463.26s11.26-.78,12.25-3.28a6.67,6.67,0,0,0,.21-4.5s-3.53-5.5-14.76-5.67C1366.73,449.81,1365.5,457.47,1369,463.26Z"/><path class="cls-28" d="M1319,436.35s11.27-.78,12.25-3.28a6.64,6.64,0,0,0,.21-4.49s-3.53-5.51-14.76-5.67C1316.66,422.91,1315.43,430.56,1319,436.35Z"/><path class="cls-28" d="M1360.18,450.82s3.86-9.61,16.13-19.37l-2.92-2.52s-16.23.49-20.46,9.48-.62,12.79-.62,12.79S1357.05,452.7,1360.18,450.82Z"/><path class="cls-28" d="M1387,450.11s8-6.43,6.74-13.94c0,0-1.25-2-7.16.2a30.76,30.76,0,0,1-8.39,1.85s-12.08,2.41-.46,9.71C1385.44,452.75,1387,450.11,1387,450.11Z"/><path class="cls-35" d="M1442.43,495.5h0a65.68,65.68,0,0,0,3.27-5.8c1.11,2.31,3.27,5.8,3.27,5.8h0l0,.08a3.81,3.81,0,1,1-7.13,1.87A3.75,3.75,0,0,1,1442.43,495.5Z"/><path class="cls-35" d="M1264.52,494.08h0a70,70,0,0,0,3.54-6.27c1.2,2.5,3.54,6.27,3.54,6.27h0a.41.41,0,0,1,.05.09,4,4,0,0,1,.53,2,4.12,4.12,0,1,1-7.65-2.11Z"/><path class="cls-35" d="M1313.74,486.71h0a51.63,51.63,0,0,0,2.68-4.73c.9,1.89,2.66,4.73,2.66,4.73h0l0,.06a3.06,3.06,0,0,1,.4,1.53,3.11,3.11,0,1,1-6.21,0A3.06,3.06,0,0,1,1313.74,486.71Z"/><path class="cls-35" d="M1294.15,498.32h0a42.47,42.47,0,0,0,2.17-3.84c.73,1.53,2.16,3.84,2.16,3.84h0l0,.05a2.6,2.6,0,0,1,.32,1.24,2.52,2.52,0,1,1-4.69-1.29Z"/><path class="cls-35" d="M1242,501.26h0a41.75,41.75,0,0,0,2.17-3.83c.73,1.53,2.16,3.83,2.16,3.83h0l0,.06a2.52,2.52,0,1,1-4.72,1.23A2.57,2.57,0,0,1,1242,501.26Z"/><path class="cls-35" d="M1349.82,487h0a69.25,69.25,0,0,0,3.54-6.26c1.2,2.49,3.54,6.26,3.54,6.26h0l.06.09a4.08,4.08,0,0,1,.53,2,4.13,4.13,0,1,1-7.66-2.11Z"/><path class="cls-35" d="M1368.76,495.12h0a46.48,46.48,0,0,0,2.39-4.24c.81,1.69,2.4,4.24,2.4,4.24h0l0,.06a2.74,2.74,0,0,1,.36,1.37,2.79,2.79,0,1,1-5.18-1.43Z"/><path class="cls-35" d="M1403.1,487.58h0a47.13,47.13,0,0,0,2.4-4.24c.81,1.69,2.39,4.24,2.39,4.24h0l0,.06a2.74,2.74,0,0,1,.35,1.37,2.79,2.79,0,0,1-5.57,0A2.65,2.65,0,0,1,1403.1,487.58Z"/><path class="cls-35" d="M1290.38,314.39a24.93,24.93,0,0,0-6.84,14.74,56.93,56.93,0,0,0-.27,8.27c0,2.77,0,5.56.87,8a8.6,8.6,0,0,0,5.22,5.24c2.47.9,5.29.92,8.1,1.72a10.62,10.62,0,0,1,3.94,2.05,16.08,16.08,0,0,1,2.92,3.21c1.66,2.31,3,4.69,5.11,6.27s4.75,2.34,7.36,3.37a18.78,18.78,0,0,1,3.87,2,9,9,0,0,1,3,3.37l.45,1,.23.5.15.54.31,1.08.13,1.13a8.15,8.15,0,0,1-1,4.43,11.22,11.22,0,0,1-3,3.31,18.93,18.93,0,0,1-3.69,2.24,31.63,31.63,0,0,1-4,1.57c-1.42.43-2.81.61-4.15.89a11.87,11.87,0,0,0-3.69,1.22,11.63,11.63,0,0,0-2.83,2.56,1.37,1.37,0,0,0-.31,1.29,3.51,3.51,0,0,0,1.07,1.26c1,.82,2.21,1.56,3.36,2.39a18.54,18.54,0,0,1,5.75,6.4l.26.49.2.51c.14.35.28.69.4,1a12.37,12.37,0,0,1,.43,2.18,11.18,11.18,0,0,1,0,2.24,10.31,10.31,0,0,1-.2,1.11l-.11.55-.19.53a11.88,11.88,0,0,1-2.2,3.83,16.82,16.82,0,0,1-3.29,2.86c-4.84,3.17-10.49,4.52-16,5.33s-11.12,1.08-16.61,1.66c-1.38.15-2.75.31-4.11.51a19.45,19.45,0,0,0-3.9.89,6.55,6.55,0,0,0-3,2.13,9.17,9.17,0,0,0-1.47,3.53,58.46,58.46,0,0,1-2,8.21,13.67,13.67,0,0,1-2.35,3.69,17,17,0,0,0-2.26,3.3c-1.2,2.32-1.5,5.2-3.1,7.79s-4.39,4-6.71,5.37a10,10,0,0,0-3,2.39,4.5,4.5,0,0,0-.79,3.51,13.13,13.13,0,0,0,1.18,3.77,15.58,15.58,0,0,0,2.47,3.2,23,23,0,0,1,2.72,3.23,8.94,8.94,0,0,1,1.38,4,10.27,10.27,0,0,1-.61,4.16c-.43,1.33-1,2.59-1.48,3.9.38-1.33.92-2.63,1.28-4a9.79,9.79,0,0,0,.38-4.05,8.26,8.26,0,0,0-1.45-3.74,22.45,22.45,0,0,0-2.78-3,16.28,16.28,0,0,1-2.75-3.28,13.93,13.93,0,0,1-1.47-4.08,5.79,5.79,0,0,1,.85-4.44,11.48,11.48,0,0,1,3.32-2.9c1.2-.75,2.4-1.42,3.49-2.18a13.42,13.42,0,0,0,1.53-1.25,6.72,6.72,0,0,0,1.21-1.46c1.38-2.16,1.71-5,3-7.67a18.85,18.85,0,0,1,2.43-3.57,12.22,12.22,0,0,0,2.13-3.3,59.47,59.47,0,0,0,1.9-8,10.73,10.73,0,0,1,1.73-4.1,8,8,0,0,1,3.69-2.62,20.65,20.65,0,0,1,4.21-1c1.39-.21,2.78-.37,4.17-.52,5.55-.58,11.1-.87,16.56-1.66s10.87-2.12,15.38-5.08a15.77,15.77,0,0,0,3-2.59,10.5,10.5,0,0,0,1.92-3.35l.16-.45.1-.47c0-.31.14-.62.17-.94a9.48,9.48,0,0,0,0-1.92,11.39,11.39,0,0,0-.37-1.9l-.35-.91-.18-.45-.23-.43a17.1,17.1,0,0,0-5.3-5.87c-1.11-.81-2.28-1.53-3.43-2.45a4.73,4.73,0,0,1-1.54-1.92,2.72,2.72,0,0,1,.16-2.08,2.57,2.57,0,0,1,.32-.54,8.3,8.3,0,0,1,1.55-1.67,13.77,13.77,0,0,1,1.76-1.34,13.11,13.11,0,0,1,4.17-1.41c1.38-.28,2.76-.47,4-.85a31.42,31.42,0,0,0,3.77-1.49,13.22,13.22,0,0,0,6-4.93,6.55,6.55,0,0,0,.77-3.6l-.1-.94-.27-.92-.13-.47-.2-.45-.41-.89c-1.11-2.32-3.52-3.64-6-4.61s-5.31-1.77-7.72-3.58-3.83-4.4-5.41-6.58a11.07,11.07,0,0,0-6.07-4.7c-2.53-.74-5.39-.75-8.19-1.74a10,10,0,0,1-6.14-6.17c-.91-2.87-.67-5.76-.6-8.52a57.5,57.5,0,0,1,.64-8.36,24.67,24.67,0,0,1,7.63-14.63Z"/><path class="cls-35" d="M1389.55,321.43a16.35,16.35,0,0,0-2.43,5.67,12.22,12.22,0,0,0,.4,6c1.22,3.9,3.56,7.41,5.13,11.36.21.49.38,1,.54,1.5a15.63,15.63,0,0,1,.46,1.56,12.88,12.88,0,0,1,.38,3.29,18.53,18.53,0,0,1-1.56,6.28c-.36,1-.7,1.93-1,2.9a11.25,11.25,0,0,0-.39,2.89,25.22,25.22,0,0,0,1,6,17.31,17.31,0,0,1,.61,6.45,13.53,13.53,0,0,1-2.52,6c-1.23,1.76-2.66,3.3-3.78,5a8.1,8.1,0,0,0-1.64,5.39,25.23,25.23,0,0,0,1.71,5.77q1.08,2.91,2.35,5.73a50.42,50.42,0,0,0,2.87,5.45,25.66,25.66,0,0,0,3.67,4.82,10,10,0,0,0,5,2.89,43.27,43.27,0,0,0,6.1.62,18,18,0,0,1,3.22.53,12.63,12.63,0,0,1,3,1.28,22.89,22.89,0,0,1,5,4,34.68,34.68,0,0,1,4,5,16,16,0,0,1,2.55,6,3.45,3.45,0,0,1,.08.85v.86a8.68,8.68,0,0,1-.31,1.69,13.42,13.42,0,0,1-1.33,3,25.48,25.48,0,0,0-2.68,5.45,13.78,13.78,0,0,0-.5,2.89,5,5,0,0,0,.6,2.63c.89,1.66,2.48,3.23,3.41,5.25a12,12,0,0,1,1.09,6.48c-.21,2.17-.74,4.2-1,6.19a11.7,11.7,0,0,0-.14,2.94,8.27,8.27,0,0,0,.8,2.79,15.09,15.09,0,0,0,3.92,4.55,34.53,34.53,0,0,1,4.6,4.3,8,8,0,0,1,1.43,2.83,7.15,7.15,0,0,1,.06,3.12,7,7,0,0,0-.27-3.06,7.64,7.64,0,0,0-1.55-2.62,34.49,34.49,0,0,0-4.76-4,15.84,15.84,0,0,1-4.44-4.63,9.4,9.4,0,0,1-1.1-3.14,13.44,13.44,0,0,1,0-3.29c.22-2.16.83-4.17,1-6.15a10.51,10.51,0,0,0-1-5.7,15.84,15.84,0,0,0-1.58-2.53,21.23,21.23,0,0,1-1.81-2.68,6.47,6.47,0,0,1-.77-3.38,14.84,14.84,0,0,1,.57-3.26c1.18-4.27,4.91-7.35,4.17-11.22a14.43,14.43,0,0,0-2.32-5.4,33,33,0,0,0-3.78-4.79,21.11,21.11,0,0,0-4.68-3.78,12.68,12.68,0,0,0-5.64-1.62,45.58,45.58,0,0,1-6.32-.64,12.88,12.88,0,0,1-1.6-.5c-.51-.23-1-.49-1.51-.75s-.92-.62-1.36-1l-1.23-1.1a26.49,26.49,0,0,1-3.89-5.1,50.85,50.85,0,0,1-3-5.61c-.88-1.91-1.67-3.86-2.4-5.83-.37-1-.72-2-1.06-3a15.16,15.16,0,0,1-.46-1.56c-.07-.27-.15-.54-.2-.81l-.08-.85a9.65,9.65,0,0,1,1.89-6.33c1.22-1.8,2.64-3.33,3.8-5a11.85,11.85,0,0,0,2.26-5.37,16.23,16.23,0,0,0-.57-5.91,26.27,26.27,0,0,1-1.09-6.32,12.6,12.6,0,0,1,.44-3.29c.28-1,.64-2,1-3a17.23,17.23,0,0,0,1.47-5.78,10.63,10.63,0,0,0-.36-2.9,14.67,14.67,0,0,0-.44-1.44c-.17-.48-.31-1-.49-1.44-1.29-3.88-3.45-7.55-4.49-11.7a12.92,12.92,0,0,1-.06-6.33A16.93,16.93,0,0,1,1389.55,321.43Z"/><path class="cls-35" d="M1386.35,325.91a10.87,10.87,0,0,1-2.06,3.56,18.52,18.52,0,0,1-3.12,2.75c-2.24,1.61-4.65,2.95-6.71,4.61a14.19,14.19,0,0,0-4.82,6,23.85,23.85,0,0,0-1.73,7.7,64.21,64.21,0,0,0,0,8.09,46.26,46.26,0,0,1-.12,8.31,13.59,13.59,0,0,1-1.21,4.13,11.86,11.86,0,0,1-2.58,3.48,32.46,32.46,0,0,1-6.92,4.66c-2.38,1.34-4.79,2.67-7.31,3.82a37.17,37.17,0,0,1-3.87,1.55c-.66.23-1.33.43-2,.61a6.73,6.73,0,0,1-2.3,0,6.46,6.46,0,0,0-1.81,0,1.71,1.71,0,0,0-1.18.78c-.58,1.07-1.24,2.37-1.82,3.55a32.93,32.93,0,0,0-2.7,7.51,19.13,19.13,0,0,0,0,7.83,63.23,63.23,0,0,1,1.21,8.18,38.46,38.46,0,0,1-.11,4.16c-.06.7-.1,1.35-.22,2.09a14.48,14.48,0,0,1-.58,2,7.84,7.84,0,0,0-.36,1.92,3.2,3.2,0,0,0,.45,1.83,4.7,4.7,0,0,1,.7,2,3.28,3.28,0,0,1-.64,1.95A3.25,3.25,0,0,0,1335,427a4.29,4.29,0,0,0-.86-1.77,3.72,3.72,0,0,1-.68-2.05,8.35,8.35,0,0,1,.2-2.11,13.72,13.72,0,0,0,.39-1.95c0-.62,0-1.34,0-2a35.85,35.85,0,0,0-.25-4,64.43,64.43,0,0,0-1.18-8,20.59,20.59,0,0,1,0-8.42,34.23,34.23,0,0,1,2.82-7.86l.92-1.85.48-.91.24-.46a3.89,3.89,0,0,1,.28-.5,3.25,3.25,0,0,1,2.13-1.43,7.52,7.52,0,0,1,2.27,0,5.69,5.69,0,0,0,1.77,0c.64-.17,1.27-.35,1.9-.57a38.13,38.13,0,0,0,3.73-1.49c2.44-1.12,4.82-2.43,7.19-3.77a31.11,31.11,0,0,0,6.62-4.43,10.78,10.78,0,0,0,3.34-6.74,44.73,44.73,0,0,0,.12-8,65.21,65.21,0,0,1,0-8.27,25.43,25.43,0,0,1,1.85-8.19,15.82,15.82,0,0,1,5.31-6.61c2.34-1.58,4.85-2.68,7.16-4.06A13.24,13.24,0,0,0,1386.35,325.91Z"/><path class="cls-35" d="M1385.71,397.57a8,8,0,0,1,1.64,2.54,3.87,3.87,0,0,1-.17,3.07,7.38,7.38,0,0,1-2,2.36,22.16,22.16,0,0,1-2.55,1.7c-1.77,1-3.63,1.77-5.22,2.86a6.54,6.54,0,0,0-1,.9,11.63,11.63,0,0,0-.85,1.14,7.21,7.21,0,0,0-1.08,2.58,9.44,9.44,0,0,0,1,5.54c.77,1.8,1.77,3.56,2.45,5.52a10,10,0,0,1,.58,3.09,7.47,7.47,0,0,1-.64,3.13,9.86,9.86,0,0,1-.77,1.39c-.28.42-.56.84-.86,1.25-.58.82-1.19,1.63-1.8,2.43-2.47,3.17-5.07,6.2-7.21,9.55a17.16,17.16,0,0,0-2.55,5.19c-.39,1.83.2,3.76.64,5.71a18.82,18.82,0,0,1,.67,6.09,45.33,45.33,0,0,1-1.09,6,20.81,20.81,0,0,0-.5,2.89,18.15,18.15,0,0,0,.08,2.94,25.37,25.37,0,0,1,.19,3,8.26,8.26,0,0,1-.59,3c.62-1.95.24-3.95-.11-5.91a16.94,16.94,0,0,1-.33-3,20.58,20.58,0,0,1,.28-3.05,50.24,50.24,0,0,0,1.08-5.85,18.19,18.19,0,0,0-.65-5.79c-.23-1-.48-1.95-.65-3a8.83,8.83,0,0,1,0-3.16,18,18,0,0,1,2.69-5.55c2.18-3.41,4.82-6.47,7.26-9.61.61-.79,1.21-1.59,1.78-2.4a14.37,14.37,0,0,0,1.52-2.46,7.27,7.27,0,0,0,0-5.5c-.63-1.83-1.62-3.58-2.42-5.45a10.4,10.4,0,0,1-1-6.12,8.07,8.07,0,0,1,1.22-2.93,11.45,11.45,0,0,1,.94-1.26,7.14,7.14,0,0,1,1.22-1.06,59.35,59.35,0,0,1,5.31-2.92c1.74-.89,3.58-1.82,4.6-3.43a3.49,3.49,0,0,0,.37-2.74A8.22,8.22,0,0,0,1385.71,397.57Z"/><path class="cls-35" d="M1241.75,318.23c-.62,2.79.47,5.49.28,8.41a10.27,10.27,0,0,1-1.15,4.22,20.56,20.56,0,0,1-2.54,3.52c-4.14,3.78-5,9.6-3.7,14.87s4,10.3,5.37,15.91a81.64,81.64,0,0,1,1,8.42c.32,2.72.93,5.41,2.58,7.45s4,3.65,5.93,5.92a11.41,11.41,0,0,1,1.27,1.82,13.44,13.44,0,0,1,1,2,9.41,9.41,0,0,1,.78,4.43,10.41,10.41,0,0,1-1.32,4.28,31.15,31.15,0,0,1-2.36,3.61c-.83,1.13-1.68,2.24-2.45,3.38-.37.57-.75,1.14-1.08,1.73l-.49.89c-.14.3-.25.57-.37.87a15.61,15.61,0,0,0-.64,3.94c-.09,1.37-.12,2.77-.16,4.18a41.19,41.19,0,0,1-.29,4.26,11.81,11.81,0,0,1-1.23,4.28c-1.65,2.72-4.49,3.82-6.25,5.8a4,4,0,0,0-1,3.64,12.3,12.3,0,0,0,1.71,3.77,12.48,12.48,0,0,1-2.12-3.66c-.08-.36-.15-.72-.2-1.09a5.18,5.18,0,0,1,.07-1.11,3.84,3.84,0,0,1,.35-1.07,5,5,0,0,1,.58-1,21.12,21.12,0,0,1,3-3,10.26,10.26,0,0,0,2.5-3,11.63,11.63,0,0,0,1.05-3.75,40,40,0,0,0,.28-4.12c0-1.4.07-2.8.16-4.23a17.5,17.5,0,0,1,.72-4.33,35.11,35.11,0,0,1,4.6-7.27c1.62-2.22,3.24-4.54,3.39-7.1a7.81,7.81,0,0,0-.67-3.76,11.28,11.28,0,0,0-.89-1.77,10.29,10.29,0,0,0-1.13-1.63c-1.7-2.05-4.11-3.6-6-6a11.8,11.8,0,0,1-2-3.95,22.69,22.69,0,0,1-.85-4.25c-.34-2.83-.38-5.64-1-8.26-1.26-5.33-4.07-10.3-5.38-15.92a18.76,18.76,0,0,1-.19-8.66,12.73,12.73,0,0,1,.64-2.1l.39-1a9.56,9.56,0,0,1,.53-1,21.44,21.44,0,0,1,2.68-3.42,21.55,21.55,0,0,0,2.65-3.08,9.44,9.44,0,0,0,1.37-3.73,22.81,22.81,0,0,0,.06-4.14A12.33,12.33,0,0,1,1241.75,318.23Z"/><path class="cls-41" d="M1282.71,341.37c0,3.6-5.78,11.15-5.77,14,0,6.1,8.28,10.06,9.61,16,.77,3.41-.83,5.43.15,8.16.69,1.93,3.91,4.72,5.11,6.39s3.13,5.73,4.14,6.73c2.44,2.46,4.76,1.64,7.22,4"/><path class="cls-35" d="M1235.6,353.41c.08,1.88.16,3.77.12,5.66a14.09,14.09,0,0,1-1.06,5.66,11.23,11.23,0,0,1-4,4.16c-1.55,1.08-3.17,2-4.76,3-3.16,2-6.34,4.06-8.72,6.95a15.39,15.39,0,0,0-2.71,4.86,18.45,18.45,0,0,0-.91,5.52,18.74,18.74,0,0,1,.79-5.56,15.45,15.45,0,0,1,2.64-5c2.35-3,5.53-5.15,8.65-7.21,1.57-1,3.16-2,4.66-3.12a10.52,10.52,0,0,0,3.65-4,13.46,13.46,0,0,0,.86-5.35c0-1.85-.12-3.72-.25-5.59Z"/><path class="cls-35" d="M1432.42,318.87a21,21,0,0,0-1.34,8.12,31.64,31.64,0,0,0,1.53,8.06c1.41,5.31,3.7,10.43,5.17,15.89a31.22,31.22,0,0,1,1.21,8.46,19.57,19.57,0,0,1-1.9,8.4l-.48,1-.55.93c-.36.63-.75,1.23-1.15,1.8a24,24,0,0,0-2.14,3.44,9.83,9.83,0,0,0-.29,7.57c.87,2.5,2.55,4.77,3.65,7.48a12.44,12.44,0,0,1,.66,2.12c.16.73.24,1.41.34,2.12.18,1.4.29,2.81.39,4.21s.17,2.77.32,4.14.38,2.65.64,4.08a34.33,34.33,0,0,1,.28,8.53,30.53,30.53,0,0,1-1.86,8.36,9.51,9.51,0,0,1-2.55,3.67c-1.12,1-2.23,1.77-3.29,2.62-4.42,3.2-7.1,8.35-10.8,12.52,1.6-2.29,3-4.7,4.48-7.07a29.12,29.12,0,0,1,5.36-6.6c1.06-.95,2.29-1.7,3.25-2.58a8.11,8.11,0,0,0,2.16-3.14,29.3,29.3,0,0,0,1.76-7.91,32.68,32.68,0,0,0-.27-8.15c-.24-1.31-.52-2.78-.65-4.17s-.24-2.82-.33-4.2-.2-2.76-.37-4.12c-.1-.67-.19-1.37-.33-2a10.37,10.37,0,0,0-.58-1.87c-1-2.47-2.69-4.76-3.68-7.54a11.35,11.35,0,0,1,.35-8.71,25.84,25.84,0,0,1,2.26-3.65c.4-.57.77-1.14,1.11-1.72l.51-.87.44-.9a18,18,0,0,0,1.76-7.78,29.56,29.56,0,0,0-1.16-8.05c-1.43-5.31-3.7-10.43-5.19-15.89a32.45,32.45,0,0,1-.86-8.45A20,20,0,0,1,1432.42,318.87Z"/><path class="cls-35" d="M1438.48,415a9.42,9.42,0,0,1,.18,3.71,21.2,21.2,0,0,0-.05,3.47,13.77,13.77,0,0,0,2.28,6.43,51.93,51.93,0,0,0,4.46,5.44,13.2,13.2,0,0,1,3.3,6.26l-.06-.08c1.33.81,2.8,1.41,4.22,2.09a13.43,13.43,0,0,1,3.92,2.61,13.28,13.28,0,0,0-4-2.49c-1.43-.64-2.91-1.2-4.29-2l0,0v-.05a13,13,0,0,0-3.38-6,49,49,0,0,1-4.66-5.37,14.51,14.51,0,0,1-2.56-6.71,21.81,21.81,0,0,1,0-3.61,8.69,8.69,0,0,0-.21-3.3Z"/><path class="cls-35" d="M1399.24,416.83a5.48,5.48,0,0,1,1.14,1.42,2.92,2.92,0,0,1,.46,1.85,5.67,5.67,0,0,1-1.59,3.4,17.3,17.3,0,0,1-6,3.91c-.54.23-1.1.44-1.66.63s-1.2.35-1.65.52a5.37,5.37,0,0,0-2.4,2.05c-.35.44-.59,1-1,1.42s-.71.94-1.11,1.39a5.3,5.3,0,0,1-3,1.9A5.29,5.29,0,0,0,1385,433c.3-.48.56-1,.83-1.51a11.51,11.51,0,0,1,1-1.5,6.32,6.32,0,0,1,2.85-2.39c.64-.24,1.14-.33,1.68-.53s1.08-.39,1.6-.61a16.41,16.41,0,0,0,5.64-3.66A5.12,5.12,0,0,0,1399.24,416.83Z"/><path class="cls-35" d="M1346.52,315a24,24,0,0,0,.33,11.7,19.67,19.67,0,0,0,6.24,9.73c3,2.51,6.57,4.27,9.69,6.82a12.45,12.45,0,0,1,3.65,4.83,16.33,16.33,0,0,1,1.09,6h-1a15.52,15.52,0,0,0-.9-5.64,11.62,11.62,0,0,0-3.33-4.59c-3-2.53-6.52-4.39-9.53-7a20.05,20.05,0,0,1-6.15-10A24.13,24.13,0,0,1,1346.52,315Z"/><path class="cls-35" d="M1297.09,422.52a13.75,13.75,0,0,0-2.42,2,5.63,5.63,0,0,0-1.47,2.56,6.37,6.37,0,0,0,0,2.88,12.72,12.72,0,0,0,1.07,2.84c.91,1.86,2,3.64,3.06,5.51a16.26,16.26,0,0,1,2.15,6.13,19.33,19.33,0,0,1-.86,6.41,39.87,39.87,0,0,0-1.45,6.07,8.53,8.53,0,0,0,.07,3,8.69,8.69,0,0,0,.57,1.39,4.33,4.33,0,0,1,.45,1.71,4.67,4.67,0,0,1-.32,1.73,1.94,1.94,0,0,1-.65.82,7.32,7.32,0,0,1-.69.49c-.46.29-.91.55-1.32.85a4.52,4.52,0,0,0-1,.86l-.13.2-.14,0a3.06,3.06,0,0,0-1.34.57,3,3,0,0,1-1.64.49l.11,0a2.28,2.28,0,0,0-.45.91,10.36,10.36,0,0,1-.41,1,3.2,3.2,0,0,1-1.53,1.59,3.07,3.07,0,0,0,1.36-1.67c.13-.34.21-.69.31-1.05a2.5,2.5,0,0,1,.47-1.1l0,0,.07,0a2.59,2.59,0,0,0,1.32-.63,3.92,3.92,0,0,1,1.49-.92l-.28.21c.68-1.18,1.74-1.53,2.59-2.13a3,3,0,0,0,.94-.81,3.72,3.72,0,0,0,.26-1.36c0-.87-.67-1.71-1-2.86a6.25,6.25,0,0,1-.19-1.7,12.72,12.72,0,0,1,.09-1.63,40.7,40.7,0,0,1,1.48-6.23,18.11,18.11,0,0,0,.83-6.06,15.23,15.23,0,0,0-2-5.73c-1-1.84-2.13-3.62-3.08-5.55a14.2,14.2,0,0,1-1.15-3.06,5.7,5.7,0,0,1,.11-3.37,6.44,6.44,0,0,1,2-2.65A12.34,12.34,0,0,1,1297.09,422.52Z"/><path class="cls-35" d="M1429.86,324c-.38,1.26-.44,2.58-.85,3.83a6.69,6.69,0,0,1-2.41,3.05,33.36,33.36,0,0,1-6.95,3.64,30.63,30.63,0,0,0-3.5,1.71,14.71,14.71,0,0,0-3,2.43c-.9.92-1.68,2-2.56,3s-1.76,1.94-2.54,3a12.1,12.1,0,0,0-1.86,3.35c-.23.6-.38,1.22-.58,1.86s-.41,1.26-.67,1.87a15.41,15.41,0,0,1-4.66,6.4c-2.12,1.61-4.54,2.75-6.22,4.62s-2,4.53-1.94,7.06h-1a17,17,0,0,1,.43-4,8.1,8.1,0,0,1,1.88-3.64c1.9-2,4.38-3.08,6.42-4.61a14.72,14.72,0,0,0,4.56-6.07c.26-.59.47-1.2.68-1.81s.36-1.25.61-1.88a12.73,12.73,0,0,1,2-3.45c.81-1,1.73-2,2.6-2.95s1.68-2,2.62-2.93A15.3,15.3,0,0,1,1416,336a29.62,29.62,0,0,1,3.56-1.68,33,33,0,0,0,7-3.51,6.68,6.68,0,0,0,2.43-3C1429.38,326.57,1429.47,325.24,1429.86,324Z"/></g><g id="Layer_27" data-name="Layer 27"><path class="cls-36" d="M1237.65,258.73l7.78-3a10.26,10.26,0,0,0-3.36-4.2l-.07-.06a11.37,11.37,0,0,0-1.82-1.06c-1-.47-2.08-.88-3.08-1.28a26.37,26.37,0,0,1-5.94-3l-.68-.53a19.72,19.72,0,0,1-3-3.38,25.34,25.34,0,0,0-3.17-3.64,10,10,0,0,0-15.43,12.41,9.32,9.32,0,0,0,2.74,3.06,18.81,18.81,0,0,0,5,2.36,27.15,27.15,0,0,1,2.75,1.1,17.63,17.63,0,0,1,2.61,1.58,24.66,24.66,0,0,1,3.12,2.71,22.41,22.41,0,0,1,1.76,2.1,17.93,17.93,0,0,0,3.59,3.78h0a9.85,9.85,0,0,0,7.41,1.72,10,10,0,0,0,6.45-3.95Z"/><path class="cls-38" d="M1243.17,256.62c-.06-.15-.14-.3-.21-.44a7.94,7.94,0,0,0-2.33-2.69h0a8.48,8.48,0,0,0-1.46-.86c-1-.45-2-.85-3-1.24a25.63,25.63,0,0,1-7.27-3.86,21.81,21.81,0,0,1-3.38-3.78,24.41,24.41,0,0,0-2.87-3.32,7.52,7.52,0,0,0-5.84-1.86,7.59,7.59,0,0,0-5.85,11.31c1.4,2.53,3.85,3.4,6.44,4.32a26,26,0,0,1,3,1.2,23.75,23.75,0,0,1,6.38,4.76,25,25,0,0,1,2,2.32,16.11,16.11,0,0,0,3.09,3.3,7.37,7.37,0,0,0,5.56,1.3,7.49,7.49,0,0,0,5-3l.21-.3"/><path class="cls-36" d="M1458.68,290.29l-.51-7.47a9.29,9.29,0,0,0-4.5,1.77l-.06.05a9.91,9.91,0,0,0-1.39,1.28c-.69.78-1.31,1.56-1.92,2.31a23.83,23.83,0,0,1-4.12,4.32c-.2.16-.42.31-.63.45a17.37,17.37,0,0,1-3.7,1.68,23,23,0,0,0-4,1.76,8.23,8.23,0,0,0-.78.53,9,9,0,0,0,7.37,16,8.37,8.37,0,0,0,3.35-1.53,17.23,17.23,0,0,0,3.36-3.7,26.59,26.59,0,0,1,1.67-2.08,17.46,17.46,0,0,1,2.05-1.82,22.25,22.25,0,0,1,3.15-2,22.78,22.78,0,0,1,2.27-1,15.89,15.89,0,0,0,4.21-2.09h0a8.82,8.82,0,0,0,3.43-5.91,8.92,8.92,0,0,0-1.69-6.59Z"/><path class="cls-38" d="M1458.32,285l-.43.06a7.19,7.19,0,0,0-2.92,1.29h0a7.35,7.35,0,0,0-1.13,1c-.65.73-1.26,1.49-1.85,2.22a23,23,0,0,1-5.24,5.22,19.36,19.36,0,0,1-4.15,1.91,21,21,0,0,0-3.6,1.59,6.75,6.75,0,0,0-3.15,4.53,6.82,6.82,0,0,0,1.22,5.44,7,7,0,0,0,7,2.58c2.54-.54,3.94-2.42,5.42-4.4a24.88,24.88,0,0,1,1.83-2.27,21.3,21.3,0,0,1,5.78-4.23,22.55,22.55,0,0,1,2.5-1.06,14.13,14.13,0,0,0,3.66-1.79,6.62,6.62,0,0,0,2.59-4.43,6.78,6.78,0,0,0-1.28-5.06l-.21-.26"/><path class="cls-35" d="M1267.05,229.91a7.9,7.9,0,0,1,4.7-10.63,8.61,8.61,0,0,1,3.36-.63l1.62,4.09a5.34,5.34,0,0,0-3.3.31,4,4,0,1,0,3,7.46,5.16,5.16,0,0,0,2.62-2l1.63,4.1a8.73,8.73,0,0,1-2.9,1.83A7.89,7.89,0,0,1,1267.05,229.91Z"/><path class="cls-35" d="M1279.08,225.13a8.23,8.23,0,1,1,10.66,4.59A8,8,0,0,1,1279.08,225.13Zm11.32-4.47a3.94,3.94,0,1,0-2.18,5.2A3.92,3.92,0,0,0,1290.4,220.66Z"/><path class="cls-35" d="M1301.11,231.5c.54-1.3,1.12-2.7,1.61-4a2.54,2.54,0,0,0,.22-1.79.86.86,0,0,0-1.12-.49,1.13,1.13,0,0,0-.47,1.57l-2.36.27a3.26,3.26,0,0,1,1.92-4.11,3.11,3.11,0,0,1,4.15,1.54,4.17,4.17,0,0,1-.3,3.35c-.16.43-.34.93-.49,1.37l2.28-.91.85,2.15-5.79,2.29Z"/><path class="cls-35" d="M1339.23,279a7.58,7.58,0,0,1,10.55-3.6,8.21,8.21,0,0,1,2.63,2l-1.83,3.8a5.15,5.15,0,0,0-2.36-2.13,3.86,3.86,0,1,0-3.35,6.94,5,5,0,0,0,3.13.53l-1.84,3.82a8.38,8.38,0,0,1-3.17-.86A7.56,7.56,0,0,1,1339.23,279Z"/><path class="cls-35" d="M1350.42,284.4a7.9,7.9,0,1,1,3.69,10.51A7.66,7.66,0,0,1,1350.42,284.4Zm10.52,5.08a3.78,3.78,0,1,0-5.09,1.84A3.76,3.76,0,0,0,1360.94,289.48Z"/><path class="cls-35" d="M1360.25,304.09c1.27-.46,2.64-1,3.84-1.43a2.44,2.44,0,0,0,1.42-1,.84.84,0,0,0-.39-1.11,1.07,1.07,0,0,0-1.41.69l-1.73-1.49a3.11,3.11,0,0,1,4.14-1.32,3,3,0,0,1,1.62,3.93,4,4,0,0,1-2.56,2l-1.28.54,2.12,1-1,2-5.37-2.59Z"/><path class="cls-35" d="M1379.56,234.4a5.72,5.72,0,0,1,3.08-7.84,6.21,6.21,0,0,1,2.42-.55l1.29,2.91a3.83,3.83,0,0,0-2.37.32,2.91,2.91,0,1,0,2.36,5.32,3.77,3.77,0,0,0,1.83-1.55l1.3,2.93a6.26,6.26,0,0,1-2,1.41A5.71,5.71,0,0,1,1379.56,234.4Z"/><path class="cls-35" d="M1388.13,230.58a6,6,0,1,1,7.86,3A5.78,5.78,0,0,1,1388.13,230.58Zm8.06-3.58a2.85,2.85,0,1,0-1.42,3.84A2.83,2.83,0,0,0,1396.19,227Z"/><path class="cls-35" d="M1404.28,234.53c.35-1,.73-2,1-2.91a1.85,1.85,0,0,0,.1-1.31.63.63,0,0,0-.83-.32.82.82,0,0,0-.29,1.15l-1.7.27a2.35,2.35,0,0,1,1.27-3,2.25,2.25,0,0,1,3,1,3,3,0,0,1-.12,2.44c-.09.32-.21.68-.31,1l1.63-.73.68,1.54-4.13,1.83Z"/><polygon class="cls-42" points="1255.82 270.72 1253.09 261.96 1259.32 255.22 1268.27 257.24 1271 266 1264.77 272.74 1255.82 270.72"/><line class="cls-42" x1="1271" y1="266" x2="1277.5" y2="267.47"/><line class="cls-42" x1="1264.77" y1="272.77" x2="1266.93" y2="279.07"/><line class="cls-42" x1="1255.33" y1="262.93" x2="1257.26" y2="269.3"/><line class="cls-42" x1="1263.92" y1="270.8" x2="1268.4" y2="265.88"/><line class="cls-42" x1="1246.59" y1="260.49" x2="1253.09" y2="261.96"/><line class="cls-42" x1="1260.21" y1="256.98" x2="1266.71" y2="258.45"/><polygon class="cls-42" points="1415.36 254.44 1408.28 253.15 1405.85 246.38 1410.5 240.89 1417.58 242.18 1420.01 248.95 1415.36 254.44"/><line class="cls-42" x1="1409.76" y1="251.95" x2="1414.89" y2="252.92"/><line class="cls-42" x1="1418.35" y1="248.84" x2="1416.55" y2="243.94"/><line class="cls-42" x1="1407.4" y1="246.4" x2="1410.78" y2="242.42"/><polygon class="cls-42" points="1427.09 250.23 1420.01 248.95 1417.58 242.18 1422.23 236.69 1429.31 237.97 1431.74 244.75 1427.09 250.23"/><line class="cls-42" x1="1431.74" y1="244.75" x2="1436.9" y2="245.54"/><line class="cls-42" x1="1422.23" y1="236.69" x2="1420.87" y2="232.88"/><line class="cls-42" x1="1428.08" y1="254.02" x2="1426.72" y2="250.21"/><line class="cls-42" x1="1428.73" y1="253.79" x2="1427.36" y2="249.98"/><path class="cls-33" d="M1318,243.19a5.91,5.91,0,0,0-2.15.4v5.94l-5.19-3.83a37.09,37.09,0,0,0-14.34,14.07,5.75,5.75,0,0,0,9.54,6.34A54.76,54.76,0,0,1,1320.21,255a6.37,6.37,0,0,0,.79-.37,6.12,6.12,0,0,0-3-11.44Z"/><line class="cls-43" x1="1313.25" y1="244.35" x2="1306.53" y2="236.65"/><polygon class="cls-28" points="1309.31 236.46 1307.02 237.21 1305.96 239.38 1304.17 233.95 1309.31 236.46"/><line class="cls-43" x1="1320.64" y1="284.8" x2="1330.81" y2="285.72"/><polygon class="cls-28" points="1328.93 287.78 1330.07 285.66 1329.33 283.36 1334.38 286.05 1328.93 287.78"/><line class="cls-43" x1="1364.24" y1="230.28" x2="1373.92" y2="233.54"/><polygon class="cls-28" points="1371.62 235.11 1373.22 233.31 1373.04 230.9 1377.32 234.69 1371.62 235.11"/><path class="cls-33" d="M1322.94,296.86a3.8,3.8,0,0,0-.42-.57,38.18,38.18,0,0,1-5.34-10.6l-3.66-.27,2.92-2.56a3.93,3.93,0,0,0-7.63-.2,3.86,3.86,0,0,0,0,2.16c3.31,13.76,7.69,17.16,7.69,17.16a4.13,4.13,0,0,0,6.41-5.12Z"/><path class="cls-34" d="M1414.85,277.87c-3,1-6.5-.68-8.3-3.91a8.18,8.18,0,0,1-.92-5.64,5.94,5.94,0,0,1,2.89-4.08,5.2,5.2,0,0,1,1-.43c3-1,6.5.67,8.29,3.9a8.19,8.19,0,0,1,.93,5.64,5.92,5.92,0,0,1-2.9,4.08A5.15,5.15,0,0,1,1414.85,277.87Z"/><path class="cls-34" d="M1432.16,282.84c-1.62,2.72-5.32,3.79-8.8,2.55a8.15,8.15,0,0,1-4.42-3.62,5.78,5.78,0,0,1-.07-6c1.62-2.71,5.33-3.78,8.8-2.54a8.2,8.2,0,0,1,4.43,3.61,6,6,0,0,1,.53,5A5.88,5.88,0,0,1,1432.16,282.84Z"/><path class="cls-34" d="M1401.48,257.38l2.4-4.82a6.51,6.51,0,0,0-6.41-.38,4.73,4.73,0,0,0-.66.44,5.76,5.76,0,0,0-2.16,4.41,8.48,8.48,0,0,0,1.84,5.5c2.35,3.06,6.23,4.21,9,2.68a5.45,5.45,0,0,0,2.81-4.85,8.21,8.21,0,0,0-1-4.2Z"/><path class="cls-33" d="M1453.21,230.54a4.12,4.12,0,0,0-1.6,2.39l3.29,3.55-3.76.75a35.92,35.92,0,0,1-3.29,10.71,3.93,3.93,0,0,0,5.59,5.34,3.88,3.88,0,0,0,1.34-1.68c6.16-12.74,5-18.15,5-18.15a4.2,4.2,0,0,0-.75-2A4.14,4.14,0,0,0,1453.21,230.54Z"/><path class="cls-33" d="M1363.73,233.4l-3.54-5.66,6.09.31c.16-.31.31-.62.48-.94a6.07,6.07,0,0,0,1-3.42,6.15,6.15,0,0,0-11.59-2.87,74.85,74.85,0,0,0-8.61,26.77h0a5.12,5.12,0,0,0,0,.69,6.15,6.15,0,0,0,12.3,0S1359.75,242.75,1363.73,233.4Z"/><path class="cls-33" d="M1337.17,226.77c-6.78-12.43-11.88-14.58-11.88-14.58a4.13,4.13,0,0,0-4.87,6.6s.08.06.11.09l4-1.18-.65,4.15a36,36,0,0,1,6.31,8.42,3.93,3.93,0,1,0,7-3.5Z"/><path class="cls-33" d="M1392.19,297.35l-3.07-3.12,4.17-.22c.2-.51.33-.8.33-.8a3.93,3.93,0,0,0-5.89-5,3.9,3.9,0,0,0-1.24,1.76c-5.41,13.08-3.87,18.41-3.87,18.41a4.09,4.09,0,0,0,.86,1.9,4.13,4.13,0,0,0,7.34-2.27,3.47,3.47,0,0,0,0-.72A38.39,38.39,0,0,1,1392.19,297.35Z"/><path class="cls-34" d="M1255.13,290.31c.68-2.59,3.43-4.33,6.54-4.15a6.92,6.92,0,0,1,4.45,1.89,5,5,0,0,1,1.6,3.91,4.1,4.1,0,0,1-.14.91c-.67,2.58-3.42,4.33-6.54,4.15a6.87,6.87,0,0,1-4.44-1.89,5,5,0,0,1-1.61-3.91A5.4,5.4,0,0,1,1255.13,290.31Z"/><path class="cls-34" d="M1243.75,300.42c-1.21-2.39-.3-5.51,2.16-7.43a6.89,6.89,0,0,1,4.59-1.53,5,5,0,0,1,3.79,1.88,5.58,5.58,0,0,1,.49.77c1.2,2.39.29,5.52-2.16,7.44a7,7,0,0,1-4.59,1.52,5,5,0,0,1-3.79-1.87A4.86,4.86,0,0,1,1243.75,300.42Z"/><path class="cls-34" d="M1232.86,308.75c-1-2.49.21-5.52,2.83-7.21a7,7,0,0,1,4.71-1.1,5.09,5.09,0,0,1,3.6,2.21,4.54,4.54,0,0,1,.42.82c1,2.48-.21,5.52-2.83,7.21a7,7,0,0,1-4.7,1.1,5.05,5.05,0,0,1-3.61-2.21A4.87,4.87,0,0,1,1232.86,308.75Z"/><path class="cls-34" d="M1219,309.82c0-2.68,2.28-5,5.35-5.6a6.89,6.89,0,0,1,4.77.76,5,5,0,0,1,2.5,3.41,5.62,5.62,0,0,1,.08.92c0,2.67-2.28,5-5.35,5.6a6.9,6.9,0,0,1-4.77-.77,5,5,0,0,1-2.5-3.41A4.67,4.67,0,0,1,1219,309.82Z"/><path class="cls-34" d="M1275.66,289.44l3.52,3.83a5.2,5.2,0,0,0,2.15-3.75,5,5,0,0,0,0-.67,4.85,4.85,0,0,0-2.18-3.53,7.17,7.17,0,0,0-4.76-1.18c-3.25.3-5.82,2.54-6,5.22a3.76,3.76,0,0,0,0,.67,4.82,4.82,0,0,0,2.18,3.53,7,7,0,0,0,3.24,1.16Z"/></g><g id="Layer_28" data-name="Layer 28"><rect class="cls-28" x="1203.6" y="116.37" width="268.24" height="89.8"/><path class="cls-44" d="M1256.27,115.74s-3.45,6.09-1.48,16.28.43,16.52.43,16.52-.92,4.4,1,6.33,9.34,5.51,9.34,5.51,8.73,5.37,10.2,18.31,4.8,12.39,4.8,12.39"/><path class="cls-44" d="M1238.56,195.34c1.72-3.44,8.12-6.19,8.12-6.19s2.46-1.65,3.68-13.35a66.78,66.78,0,0,1,5.91-20.93s.24,9.64,7.29,15.69,7.71,10.93,7.71,10.93"/><path class="cls-44" d="M1242.82,198.92s2.71-7.06,5-11.52A6.64,6.64,0,0,1,1249,194c-1.47,3.78-.16,12.13-.16,12.13"/><path class="cls-44" d="M1260.45,196.17a15.93,15.93,0,0,0-8.12-10.28c-3.57-1.93-2.48-6.14-2.48-6.14"/><path class="cls-44" d="M1255.16,118.6s-9.22,4-13.32,10.76c-2.28,3.78-4.1,3.3-4.1,3.3s-7.13.28-19.42,22.21a27.32,27.32,0,0,1-5.09,5.37c-9.22,6.47-11.31,39.1-11.31,39.1"/><path class="cls-44" d="M1255.65,138.37s-8.36,2.32-9.53,10.86-8.79,6.6-8.79,6.6-2.83-1.23-7.25,6.75"/><path class="cls-44" d="M1255.79,141.38s9.29,10,7.77,22.56,7.71,27.82,7.71,27.82"/><path class="cls-44" d="M1254.59,130.88s18.65,9.64,26.88,25.92a56.44,56.44,0,0,1,6,30.6"/><path class="cls-44" d="M1259.59,115.74s10,2.24,12.41,6.64,8.61,8.5,8.61,8.5,4.35,4.16,4.67,9.67a7.54,7.54,0,0,0,3.69,6.06s12.29,8.95,0,39"/><path class="cls-44" d="M1286.41,144.11a8.61,8.61,0,0,0,0,5.25,71.43,71.43,0,0,1,2.07,7.44s-.49,3.58,4.42,5.78"/><path class="cls-44" d="M1280.61,115.74a12.94,12.94,0,0,0,5.37,11.18c11.84,8.38,7.61,28,7.61,28"/><path class="cls-44" d="M1290.44,115.77s1.07,4.41,7.63,9.09c18.93,13.51,18.56,39.08,18.56,39.08s-.49,6.9,4.06,11.17"/><path class="cls-44" d="M1289,115.74a13.19,13.19,0,0,0,1.47,9c2.59,4.41,3.13,14.62,3.13,14.62"/><path class="cls-44" d="M1253.75,161a13.43,13.43,0,0,0-6.83,4.18,11.6,11.6,0,0,1-5.9,4s-7,4.26-8.48,8.4-6.77,4.26-6.77,4.26"/><path class="cls-44" d="M1253.23,162.58s-1.76,8.4,8.81,10"/><path class="cls-44" d="M1254.31,128.58s-4.68.2-6,2.3a3.89,3.89,0,0,1-3.32,2s-4.79,1.29-5.9,5.53"/><path class="cls-44" d="M1233.27,115.74s-8.36,5.54-8.36,11.18-3.19,12.42-3.19,12.42-1.73,3.28,1.47,9.2c0,0,1.23,1.79-1.23,9.08s.12,14.6.12,15a11.17,11.17,0,0,1,.37,7.12"/><path class="cls-44" d="M1218.27,115.74s-4.1,23,2.63,39.13c4.87,11.7-3.86,18.72-3.86,18.72"/><path class="cls-44" d="M1222.82,115.74s-2.19,10.83.79,18.59"/><path class="cls-44" d="M1255.22,148.54s.06,2.61,4.37,2.89a13.58,13.58,0,0,1,7.25,2.75s4.79,3.17,8.36,3.31"/><path class="cls-44" d="M1293.85,153.35s.53,3.17,1.88,4.14,2.34,7,2.34,7a24.86,24.86,0,0,0,4,10.6c3.69,5.64,4.92,13.9,4.92,13.9"/><path class="cls-44" d="M1316,115.77s1.72,19.65-6.64,28.34-9.47,16.9-9.47,16.9-2.37,4.68-3.93,7.35c-3.08,5.23,2.21,14.59,2.21,14.59"/><path class="cls-44" d="M1335.83,114.78s3.51,6.09,1.5,16.28-.44,16.52-.44,16.52.95,4.4-1.06,6.33-9.51,5.5-9.51,5.5-8.88,5.37-10.39,18.31-4.88,12.39-4.88,12.39"/><path class="cls-44" d="M1353.86,194.38c-1.76-3.44-8.26-6.19-8.26-6.19s-2.51-1.65-3.76-13.36a65.94,65.94,0,0,0-6-20.92s-.25,9.64-7.42,15.69-7.84,10.92-7.84,10.92"/><path class="cls-44" d="M1349.52,198s-2.76-7.06-5.09-11.52a6.56,6.56,0,0,0-1.17,6.63c1.5,3.79.16,12.14.16,12.14"/><path class="cls-44" d="M1331.58,195.21a15.94,15.94,0,0,1,8.26-10.28c3.63-1.93,2.53-6.14,2.53-6.14"/><path class="cls-44" d="M1337,117.64s9.39,4,13.56,10.75c2.32,3.79,4.17,3.31,4.17,3.31s7.26.27,19.77,22.21a28,28,0,0,0,5.18,5.37c9.38,6.47,11.51,39.09,11.51,39.09"/><path class="cls-44" d="M1336.46,137.41s8.51,2.32,9.7,10.86,8.95,6.6,8.95,6.6,2.88-1.24,7.38,6.75"/><path class="cls-44" d="M1336.32,140.42s-9.46,10-7.91,22.56-7.84,27.82-7.84,27.82"/><path class="cls-44" d="M1338.39,160.05a13.7,13.7,0,0,1,6.95,4.18,11.89,11.89,0,0,0,6,4s7.14,4.26,8.64,8.39,6.88,4.27,6.88,4.27"/><path class="cls-44" d="M1338.93,161.62s1.78,8.4-9,10"/><path class="cls-44" d="M1337.83,127.61s4.76.21,6.14,2.31a4,4,0,0,0,3.38,2s4.88,1.29,6,5.53"/><path class="cls-44" d="M1359.24,114.78s8.51,5.54,8.51,11.18,3.25,12.41,3.25,12.41,1.75,3.29-1.5,9.21c0,0-1.25,1.79,1.25,9.08s-.12,14.6-.12,15a11,11,0,0,0-.38,7.12"/><path class="cls-44" d="M1374.51,114.78s4.18,23-2.68,39.13c-5,11.7,3.93,18.72,3.93,18.72"/><path class="cls-44" d="M1383.52,114.81a22.76,22.76,0,0,1-1.76,12.8c-3,6.06-1.62,9.8-1.62,9.8s1.37,5.55.5,9.37,5.5,8.64,5.5,8.64"/><path class="cls-45" d="M1369.61,114.78s2.25,11-.81,18.82"/><path class="cls-44" d="M1336.89,147.58s-.06,2.61-4.43,2.89a14,14,0,0,0-7.39,2.75s-4.88,3.17-8.51,3.3"/><path class="cls-44" d="M1416,115.74s-3.44,6.09-1.47,16.28.43,16.52.43,16.52-.93,4.4,1,6.33,9.35,5.51,9.35,5.51,8.73,5.37,10.2,18.31,4.8,12.39,4.8,12.39"/><path class="cls-44" d="M1398.3,195.34c1.72-3.44,8.11-6.19,8.11-6.19s2.46-1.65,3.69-13.35a66.93,66.93,0,0,1,5.9-20.93s.25,9.64,7.3,15.69,7.7,10.93,7.7,10.93"/><path class="cls-44" d="M1402.56,198.92s2.7-7.06,5-11.52a6.66,6.66,0,0,1,1.15,6.64c-1.48,3.78-.17,12.13-.17,12.13"/><path class="cls-44" d="M1420.18,196.17a15.94,15.94,0,0,0-8.11-10.28c-3.57-1.93-2.49-6.14-2.49-6.14"/><path class="cls-44" d="M1414.9,118.6s-9.23,4-13.32,10.76c-2.28,3.78-4.1,3.3-4.1,3.3s-7.13.28-19.43,22.21a27.47,27.47,0,0,1-5.08,5.37c-9.22,6.47-11.31,39.1-11.31,39.1"/><path class="cls-44" d="M1415.38,138.37s-8.36,2.32-9.52,10.86-8.79,6.6-8.79,6.6-2.83-1.23-7.26,6.75"/><path class="cls-44" d="M1415.52,141.38s9.3,10,7.78,22.56,7.7,27.82,7.7,27.82"/><path class="cls-44" d="M1414.33,130.88s18.65,9.64,26.88,25.92a56.44,56.44,0,0,1,6,30.6"/><path class="cls-44" d="M1419.32,115.74s10,2.24,12.42,6.64,8.61,8.5,8.61,8.5,4.35,4.16,4.67,9.67a7.51,7.51,0,0,0,3.69,6.06s12.29,8.95,0,39"/><path class="cls-44" d="M1446.15,144.11a8.61,8.61,0,0,0,0,5.25,70.49,70.49,0,0,1,2.06,7.44s-.49,3.58,4.43,5.78"/><path class="cls-44" d="M1440.35,115.74a12.94,12.94,0,0,0,5.37,11.18c11.84,8.38,7.6,28,7.6,28"/><path class="cls-44" d="M1448.71,115.74a13.19,13.19,0,0,0,1.47,9c2.58,4.41,3.12,14.62,3.12,14.62"/><path class="cls-44" d="M1413.49,161a13.4,13.4,0,0,0-6.83,4.18,11.64,11.64,0,0,1-5.91,4s-7,4.26-8.48,8.4-6.76,4.26-6.76,4.26"/><path class="cls-44" d="M1413,162.58s-1.76,8.4,8.82,10"/><path class="cls-44" d="M1414,128.58s-4.68.2-6,2.3a3.89,3.89,0,0,1-3.32,2s-4.8,1.29-5.9,5.53"/><path class="cls-44" d="M1382.56,115.74s-2.19,10.83.79,18.59"/><path class="cls-44" d="M1415,148.54s.06,2.61,4.36,2.89a13.58,13.58,0,0,1,7.25,2.75s4.8,3.17,8.37,3.31"/><path class="cls-44" d="M1453.59,153.35s.53,3.17,1.88,4.14,2.33,7,2.33,7a24.81,24.81,0,0,0,4.06,10.6c3.69,5.64,4.92,13.9,4.92,13.9"/><path class="cls-34" d="M1348.59,81.17C1357.4,61.17,1345,0,1345,0c17.84,37.4,16.16,79,16.16,79,.77-41.39,17.48-64.7,17.48-64.7-13.56,31.37-6.9,78.5-6.9,78.5,12.92-11.71,7.77-59.91,7.77-59.91,10.69,28.83,6.42,53.85,6.42,53.85,6.51-39.44,25.08-58.9,25.08-58.9-12.71,43.64-9.84,67.47-9.84,67.47a136.62,136.62,0,0,0,11.5-48.68c9.72,15.53-2.12,53.84-2.12,53.84,20.14-16.4,18.7-87.33,18.7-87.33,8.64,41.83,2.7,87.22,2.7,87.22,6-35.71,29.58-59.69,29.58-59.69-18.32,33.54-10.52,52-10.52,52a78,78,0,0,1,11.47-41.56c-12.28,28.79-1.67,53.23-1.67,53.23C1451.38,68.11,1483.5,27,1483.5,27c-21.23,39.57-11.13,89.89-11.13,89.89h-268s4.68-58-12.19-88.5c0,0,10.31,8,18.28,53.41,0,0,17.34-35.14,8.9-78.71,0,0,16.34,47.79,2.32,80.59,0,0,12.68-21.09,8.93-52a99.3,99.3,0,0,1,.69,43.11s9.41-15.94,2-52.95a150.09,150.09,0,0,1,10.88,65.13s4.21-45.45,18.74-83.87c0,0-13.12,58.1-9.84,90.9,0,0,5.62-41.71,15.93-54.36,0,0-11,26.8,1.22,51.16,0,0,12.37-22.11-2.16-69.9,0,0,16.07,24.37,13.43,64.19a137.35,137.35,0,0,1,15.15-50.6s-13.12,45.45-5.62,60c0,0,14.06-44.05,9.84-77.79,0,0,8.14,26.71.79,67,0,0,6.71-40.77,27.32-72.63,0,0-21.08,56.23-18.27,77.78,0,0,5.62-37.48,18.27-50.6,0,0-14.52,31.39-3.27,48.26,0,0,11.24-31.4,9.83-40.77,0,0,7.74,20.15.13,40.77,0,0,18.62-22,1.28-71.69,0,0,19.68,28.11,11.71,66.54"/></g></g></g></svg>