<svg xmlns="http://www.w3.org/2000/svg" xmlns:xlink="http://www.w3.org/1999/xlink" viewBox="0 0 1920 1081"><defs><style>.cls-1,.cls-14,.cls-19,.cls-21,.cls-23,.cls-24,.cls-25,.cls-26,.cls-3,.cls-30,.cls-31,.cls-32,.cls-33,.cls-35,.cls-36,.cls-46,.cls-48,.cls-49,.cls-5,.cls-50,.cls-54,.cls-57{fill:none;}.cls-2{clip-path:url(#clip-path);}.cls-23,.cls-24,.cls-25,.cls-27,.cls-3,.cls-35,.cls-36,.cls-54,.cls-58,.cls-60,.cls-63,.cls-66{stroke:#fff;}.cls-18,.cls-20,.cls-23,.cls-24,.cls-25,.cls-26,.cls-27,.cls-3,.cls-30,.cls-31,.cls-32,.cls-33,.cls-35,.cls-36,.cls-46,.cls-48,.cls-49,.cls-5,.cls-50,.cls-54,.cls-57,.cls-58,.cls-60,.cls-63,.cls-66{stroke-miterlimit:10;}.cls-3{stroke-width:1.01px;}.cls-28,.cls-4,.cls-51,.cls-59,.cls-61,.cls-64,.cls-67{fill:#fff;}.cls-26,.cls-30,.cls-31,.cls-32,.cls-5{stroke:#5b5052;}.cls-33,.cls-36,.cls-5{stroke-width:0.5px;}.cls-41,.cls-6{fill:#5b5052;}.cls-7{clip-path:url(#clip-path-2);}.cls-8{fill:#3ca9a0;}.cls-9{fill:#3daaa1;}.cls-10{fill:#825044;}.cls-11{fill:#9f5b39;}.cls-12{fill:#daae61;}.cls-13{fill:#754f35;}.cls-14{stroke:#3daaa1;stroke-width:8.55px;}.cls-14,.cls-19,.cls-21{stroke-linejoin:round;}.cls-15{fill:#ad4053;}.cls-16{fill:#399f4c;}.cls-17{fill:#3da89f;}.cls-18,.cls-20{fill:#fbcb08;stroke:#efefef;}.cls-18{stroke-width:0.07px;}.cls-19,.cls-21{stroke:#fbcb08;stroke-linecap:round;}.cls-19{stroke-width:0.51px;}.cls-20{stroke-width:0.08px;}.cls-21{stroke-width:0.58px;}.cls-22{fill:#e86a7c;}.cls-23{stroke-width:0.59px;}.cls-24{stroke-width:0.67px;}.cls-25{stroke-width:0.42px;}.cls-26{stroke-width:0.81px;}.cls-27,.cls-55,.cls-60,.cls-63,.cls-66{fill:#ec6a7c;}.cls-27{stroke-width:0.45px;}.cls-28{font-size:9.45px;}.cls-28,.cls-61,.cls-64,.cls-67{font-family:Acre-Bold, Acre;font-weight:700;}.cls-29{letter-spacing:-0.02em;}.cls-30{stroke-width:0.94px;}.cls-31{stroke-width:12.64px;}.cls-32{stroke-width:3.16px;}.cls-33{stroke:#5d5153;}.cls-34{fill:#5d5153;}.cls-35{stroke-width:0.33px;}.cls-37{fill:#4d3b2f;}.cls-38{fill:#bd7b46;}.cls-39{fill:#a16339;}.cls-40{fill:#daab7e;}.cls-41{font-size:12.22px;font-family:Acre-Light, Acre;font-weight:300;}.cls-42{letter-spacing:-0.02em;}.cls-43{letter-spacing:0em;}.cls-44{letter-spacing:-0.02em;}.cls-45{fill:#fccc0a;}.cls-46,.cls-48,.cls-49{stroke:#ffcf01;}.cls-46{stroke-width:0.86px;}.cls-47{fill:#ffcf01;}.cls-48{stroke-width:0.95px;}.cls-49{stroke-width:0.82px;}.cls-50{stroke:#5c5052;}.cls-51{font-size:22.39px;}.cls-51,.cls-55,.cls-59{font-family:Acre-Semibold, Acre;font-weight:600;}.cls-52{letter-spacing:-0.02em;}.cls-53{letter-spacing:-0.01em;}.cls-54{stroke-width:0.38px;}.cls-55{font-size:27.75px;}.cls-56{letter-spacing:-0.02em;}.cls-57{stroke:#5d5152;stroke-width:0.43px;}.cls-58{fill:#8a6239;stroke-width:0.71px;}.cls-59{font-size:14.37px;}.cls-60{stroke-width:0.63px;}.cls-61{font-size:13.25px;}.cls-62{letter-spacing:-0.02em;}.cls-63{stroke-width:0.63px;}.cls-64{font-size:13.21px;}.cls-65{letter-spacing:-0.02em;}.cls-66{stroke-width:0.48px;}.cls-67{font-size:10.1px;}.cls-68{letter-spacing:-0.02em;}</style><clipPath id="clip-path"><rect class="cls-1" x="521.5" y="219.27" width="1139" height="646.13"/></clipPath><clipPath id="clip-path-2"><rect class="cls-1" x="367.67" y="265.86" width="1539.39" height="664.02"/></clipPath></defs><g id="Layer_2" data-name="Layer 2"><g id="Carbon_San_Diego" data-name="Carbon San Diego"><g class="cls-2"><path class="cls-3" d="M1059.66,519.14c5.59-.46,11.09,2.58,14.35,7,3.63,5,3.9,11.48,4.06,17.37s.31,11.83.33,17.76"/><polygon class="cls-4" points="1075.69 559.36 1078.31 560.43 1080.9 559.28 1078.38 565.5 1075.69 559.36"/><path class="cls-5" d="M1078.71,590.46c-.26,9.73.06,10.46-1.51,15.4a20.3,20.3,0,0,1-10.11,12.35,20.07,20.07,0,0,1-7.42,2.16"/><polygon class="cls-6" points="1060.68 618.5 1060.22 620.26 1061.16 621.82 1056.99 620.72 1060.68 618.5"/><path class="cls-5" d="M1078.45,600.19c.11,4.58.36,10.43,1,15,.68,5.08,1.86,10.18,1.08,15.38a33.83,33.83,0,0,1-4.08,12"/><polygon class="cls-6" points="1075.73 640.78 1076.64 642.11 1078.24 642.38 1075.09 644.56 1075.73 640.78"/><g class="cls-7"><path class="cls-8" d="M706.57,610.63l72.83-.23V589.66a44.81,44.81,0,0,0-3.35,11.24,36.24,36.24,0,0,0-2-17s1.62,15.22-2.45,18.92c0,0-2.1-14.89,2.17-24.8,0,0-5.22,7.32-5.5,20.3,0-1.4.2-13.7-5.09-24.83,0,0,3.85,19,1.2,25.48a29,29,0,0,0-3.72-20.81c5.46,15.68-.41,22.64-.41,22.64a20.17,20.17,0,0,0,0-12.88c.45,3-3.09,12.88-3.09,12.88-3.55-5.33,1-15.24,1-15.24-4,4.14-5.76,16-5.76,16-.88-6.81,5.76-24.57,5.76-24.57-6.13,9.5-8.36,21.51-8.59,22.82,2.28-12.66-.26-21-.26-21,1.32,10.65-3.1,24.56-3.1,24.56-2.36-4.58,1.77-18.94,1.77-18.94a43.51,43.51,0,0,0-4.78,16,40.54,40.54,0,0,0-.3-8.41,35.15,35.15,0,0,1,3.44-10.07,44.45,44.45,0,0,0-4.08,6.67,28.76,28.76,0,0,0-3.28-8.46A50,50,0,0,1,741.08,591a30.37,30.37,0,0,0-2.37,8.87,18,18,0,0,1-.77-3.63,23,23,0,0,1,1.74-6.77,20.4,20.4,0,0,0-1.85,3.69,25,25,0,0,1,1-5.85c.19-.37.38-.74.59-1.12l-.36.38c.13-.39.22-.6.22-.6a8.44,8.44,0,0,0-.89,1.38,40.41,40.41,0,0,0-4,5.81,164.79,164.79,0,0,1,3-18.73c-3.59,9.54-5.18,20.46-5.7,24.68l-.13.4a47.09,47.09,0,0,0-.9-10.49,74.74,74.74,0,0,0-1.37-11.53s0,2.41-.11,5.83c-.62-1.89-1.11-3-1.11-3a45.72,45.72,0,0,1,.86,6.86,66.36,66.36,0,0,1-1.39,9.32,31.48,31.48,0,0,0-.33-13.08,28.53,28.53,0,0,1-2.46,15.78c0-.14,0-.28.07-.42,3.65-10.3-1.15-24.38-1.15-24.38a42.93,42.93,0,0,1-2.8,24.86c-.11-.63-.22-1.23-.34-1.82a80.28,80.28,0,0,1,3-15.34,29.4,29.4,0,0,0-4.79,7.91c-1.91-6.28-3.64-7.62-3.64-7.62a30.7,30.7,0,0,1,3,9.2,46.1,46.1,0,0,0-2.46,9.11,36.24,36.24,0,0,0-2-17s1.62,15.22-2.44,18.92c0,0-2.1-14.89,2.17-24.79,0,0-9.37,8.92-7,32.5"/><path class="cls-9" d="M1601.74,651c.21-1.92.79-3.78,1-5.7.27-2.9-.4-5.8-.51-8.71-.19-4.73,1.06-9.54.07-14.17a108.13,108.13,0,0,1,3,22.8,40.46,40.46,0,0,0,.28,4.92c.45,3.08,1.73,6.2.92,9.2-.2.7-3.94-1.47-4.3-2C1601.26,655.78,1601.57,652.55,1601.74,651Z"/><path class="cls-9" d="M1614,651c.21-1.92.79-3.78,1-5.7.27-2.9-.39-5.8-.51-8.71-.19-4.73,1.06-9.54.08-14.17a108.78,108.78,0,0,1,3,22.8,40.46,40.46,0,0,0,.28,4.92c.45,3.08,1.74,6.2.92,9.2-.19.7-3.94-1.47-4.3-2C1613.55,655.78,1613.86,652.55,1614,651Z"/><path class="cls-9" d="M1598,643c.19-2.47.18-5,.54-7.41.26-1.76.72-3.5.83-5.28a27.11,27.11,0,0,0-.74-6.82,17.69,17.69,0,0,1,3.46,11.14,75.44,75.44,0,0,1-1.12,7.61c-.78,5.43-.19,11-1,16.41-.78,5.09-2.68-2.63-2.78-4C1596.82,650.78,1597.65,646.88,1598,643Z"/><path class="cls-9" d="M1657,641.22c.2-2.47.18-5,.55-7.4.26-1.77.72-3.51.83-5.29a27.11,27.11,0,0,0-.74-6.82,17.7,17.7,0,0,1,3.46,11.15,75.86,75.86,0,0,1-1.12,7.61c-.78,5.43-.19,11-1,16.4-.78,5.09-2.68-2.63-2.78-4C1655.82,649,1656.65,645.1,1657,641.22Z"/><path class="cls-9" d="M1679.46,642.25c.19-2.47.18-5,.55-7.41.26-1.76.72-3.5.83-5.28a27.58,27.58,0,0,0-.74-6.82,17.69,17.69,0,0,1,3.46,11.14,72.91,72.91,0,0,1-1.13,7.62c-.77,5.42-.19,11-1,16.4-.78,5.09-2.69-2.63-2.79-4C1678.33,650,1679.16,646.13,1679.46,642.25Z"/><path class="cls-9" d="M1669.25,641.22c.19-2.47.18-5,.54-7.4.26-1.77.72-3.51.83-5.29a27.11,27.11,0,0,0-.74-6.82,17.7,17.7,0,0,1,3.46,11.15,75.86,75.86,0,0,1-1.12,7.61c-.78,5.43-.19,11-1,16.4-.78,5.09-2.68-2.63-2.78-4C1668.11,649,1668.94,645.1,1669.25,641.22Z"/><path class="cls-9" d="M1691.75,642.25c.2-2.47.18-5,.55-7.41.26-1.76.72-3.5.83-5.28a27.11,27.11,0,0,0-.74-6.82,17.69,17.69,0,0,1,3.46,11.14,72.91,72.91,0,0,1-1.13,7.62c-.77,5.42-.18,11-1,16.4-.78,5.09-2.68-2.63-2.79-4C1690.62,650,1691.45,646.13,1691.75,642.25Z"/><path class="cls-9" d="M1698.42,643.07c.19-2.47.18-5,.55-7.4.26-1.77.72-3.51.82-5.29a27.57,27.57,0,0,0-.73-6.82,17.7,17.7,0,0,1,3.46,11.15,75.9,75.9,0,0,1-1.13,7.61c-.77,5.43-.19,11-1,16.4-.79,5.09-2.69-2.62-2.79-4C1697.29,650.86,1698.12,647,1698.42,643.07Z"/><path class="cls-9" d="M1593.57,644.47c.2-2.47.18-5,.55-7.4.26-1.77.72-3.51.83-5.29a27.11,27.11,0,0,0-.74-6.82,17.7,17.7,0,0,1,3.46,11.15,73.12,73.12,0,0,1-1.13,7.61c-.77,5.42-.18,11-1,16.4-.78,5.09-2.68-2.63-2.78-4C1592.44,652.26,1593.27,648.35,1593.57,644.47Z"/><path class="cls-9" d="M1671.25,640.33c.19-2.47.18-5,.54-7.4.26-1.77.72-3.51.83-5.29a27.11,27.11,0,0,0-.74-6.82,17.7,17.7,0,0,1,3.46,11.15,75.86,75.86,0,0,1-1.12,7.61c-.78,5.43-.19,11-1,16.4-.78,5.09-2.68-2.62-2.78-4C1670.11,648.12,1670.94,644.21,1671.25,640.33Z"/><path class="cls-10" d="M1743.84,781.84c-11.31-5.27-24.12-7.69-36.63-9.21-66.72-8.09-134,4.36-201.17,7.26-59.45,2.58-118.92-2.34-178.35-5.35C1067,761.36,805.74,785,544.89,776.61c-13.06-.42-26.6-.82-39.24,1.88v22.84c0,7.14,1.06,15.24-.15,22.27-2.42,14-4.67,28.2-6.75,42.35a5.48,5.48,0,0,0,.29,3.61c1,1.69,3.36,1.8,5.32,1.71l32.71-1.52c10.78-.5,23.16-2.8,33.73-.57C673.08,890.72,777.32,901,881.47,908.3q257.8,18,516.55,11.39c41.85-1.07,83.5-3,124.2-13.05,4.2-1,8.87.63,13.07,1.2,5,.67,10,1.1,15,1.31,20.19.86,40.34-1.82,60.11-5.66,19.92-3.87,39.56-9,59.37-13.34,9.17-2,18.67-5,28.09-4.61,8,.3,14.91,1.8,22.72,3.45s17.71,1,21.94-5.88c2.56-4.19,2.25-9.45,1.86-14.34-2.18-27.19-.5-55.23-.5-82.65Z"/><path class="cls-11" d="M1685,721.16c-148.86,28.48-302.15,12.08-453-2.32C1009.76,697.64,786.65,681,563.53,687c-19.42.53-39.82,1.57-57.88,7.87v88.77c19.61.48,41.66-3.15,55.63-3.09,76,.31,152,3.66,228,7,40.72,1.79,81.66,3.6,121.54,12,20.17,4.26,41.31,10.18,61,3.94,8.28-2.64,15.91-7.36,24.46-8.84,18.19-3.14,35.16,8.73,52.84,14,43.93,13.18,89.76-14.75,135.61-13.53,18,.48,35.6,5.49,53.5,7.7,60,7.42,120.34-16.65,180.46-10.49,52.08,5.34,104.45,33.06,154.31,17.09,15.23-4.88,29.74-13.8,45.73-13.45,17.35.38,34.35,11.76,51,7,8.77-2.52,16.42-9.38,25.55-9.21,6.08.12,11.58,3.38,17.33,5.34,10.19,3.49,21.54,2.35,31.26-2.22v-75.3C1726.11,713.19,1704.59,717.41,1685,721.16Z"/><path class="cls-12" d="M1683.41,658.22c-61,7.23-122.63,10-184,7.25-64-2.92-127.62-11.92-191.64-14.49-55.48-2.22-111,.38-166.56.06C942.89,649.89,745.49,611.46,547.42,621c-13.95.67-28,1.59-41.77,3.65v90.31c18.58,1.17,39.12-1.66,55.4-1.22,27.84.75,55.66,2.19,83.47,3.63l135.45,7c8.82.46,17.72.93,26.25,3.24,9.29,2.53,17.89,7.19,27.17,9.76,28.54,7.9,59.07-4.77,88.38-.53,15.08,2.17,30.4,8.78,45,4.45,7.57-2.25,14.16-7.3,21.89-8.94,10.11-2.14,20.38,1.85,30.21,5.07,63.31,20.69,131.88,10.43,198.38,6.56,49.07-2.87,98.26-2.12,147.41-1.37,44.17.67,88.64,1.37,131.94,10.14,17.56,3.55,35.31,8.45,53.1,6.34,13.85-1.64,26.86-7.46,40.52-10.26,25-5.14,50.82,0,76.14,3.38s52.43,4.59,75-7.38c.84-.44,1.66-.91,2.48-1.41v-82C1726.11,654.67,1703.12,655.89,1683.41,658.22Z"/><path class="cls-13" d="M1742.94,619.92c-10.68,1.32-21.64,3.78-32,1-9.58-2.56-17.83-9.41-27.68-10.58-8.4-1-16.64,2.27-24.62,5.07-67.71,23.7-141.87,15.71-213.13,7.43l-163.9-19.05c-28-3.25-56.14-6.51-84.33-5.89-32.67.73-65,6.38-97.74,6.39-15.33,0-30.18-3.87-45.16-4.37-16.8-.56-33.69-.24-50.5-.36s-34.76-2.13-51.41.59c-29.76,4.86-70.72-8.33-99.34-14.49-67-14.41-136.47-7-205-6.15-44.53.55-90-1.88-131.6-17.8a29.91,29.91,0,0,1-10.83-1.21v97.25l48.84-9a104.24,104.24,0,0,1,14.58-2c9-.37,17.94,1.58,26.77,3.4a992.45,992.45,0,0,0,150,19.13c44.71,2.25,89.51,1.47,134.24,3.1,45.19,1.65,90.26,5.75,135.3,9.85l115.45,10.5c59.12,5.38,124.74-6.68,184.1-6,23.2.25,46.42-.32,69.56-2,14.28-1,28.63-2.49,42.9-1.27,12.72,1.09,25.15,4.29,37.67,6.76,52,10.27,105.58,8,158.55,5.72l52.19-2.26c22.79-1,48.06-3.9,68-13.72V619.81Z"/><path class="cls-14" d="M1743.84,618.81l-.9.1c-10.68,1.32-21.64,3.78-32,1-9.58-2.56-17.83-9.4-27.68-10.58-8.4-1-16.64,2.28-24.62,5.07-67.71,23.71-141.87,15.72-213.13,7.44l-163.9-19.05c-28-3.26-56.14-6.52-84.33-5.89-10,.22-20,.91-30,1.75-26.25,2.2-52.56,5.59-79,4.4-12.32-.55-24.07-3.62-36.26-4q-20.67-.71-41.34-.73t-41.43.66c-13,.43-26.21,1.95-39.21,1.16-26.35-1.6-51.44-10-76.95-15.44-67-14.42-136.47-7-205-6.15-44.53.55-90-1.89-131.6-17.8-4.24-2.34-7.29-1.22-10.83-1.22"/><path class="cls-1" d="M1692,649.93l.13,2.78a2.82,2.82,0,1,0-1-1.8"/><path class="cls-4" d="M1077.89,591.51a44,44,0,0,0,2.42,10.48c.16.4.3.83.49,1.22l.6,1.16a18.55,18.55,0,0,0,1.34,2.23,21.93,21.93,0,0,0,3.55,3.86,101.48,101.48,0,0,0,9,6.44,97.37,97.37,0,0,1,9,6.93,102.35,102.35,0,0,1,8.22,7.79q2,2.07,3.73,4.29c1.19,1.47,2.29,3.07,3.37,4.51,2.2,2.94,4.73,5.71,7,8.76a38.46,38.46,0,0,1,3.09,4.83,33.26,33.26,0,0,1,2.21,5.29,24.42,24.42,0,0,0,2.1,5,15.55,15.55,0,0,0,3.54,4,38.81,38.81,0,0,0,9.62,5.27,46.88,46.88,0,0,1,10,5.19,18.79,18.79,0,0,1,4.05,4.06,14.11,14.11,0,0,1,1.44,2.5,24.06,24.06,0,0,1,.94,2.7c1.1,3.56,2.08,7.18,4,10.3s5.22,5.16,8.39,7.07l19.21,11.53-19.42-11.17c-3.21-1.86-6.56-3.86-8.71-7.09s-3.16-6.87-4.32-10.39a20.76,20.76,0,0,0-1-2.58,13.32,13.32,0,0,0-1.39-2.32,17.9,17.9,0,0,0-3.9-3.77,46.84,46.84,0,0,0-9.91-4.88,39.65,39.65,0,0,1-10-5.28,17.2,17.2,0,0,1-4-4.28,26.09,26.09,0,0,1-2.35-5.26,30.17,30.17,0,0,0-2.19-5,36.7,36.7,0,0,0-3-4.55c-2.24-2.91-4.81-5.62-7.15-8.61-1.18-1.53-2.22-3-3.41-4.4s-2.41-2.78-3.69-4.1a101.49,101.49,0,0,0-8.17-7.46,98.16,98.16,0,0,0-8.88-6.6,100.9,100.9,0,0,1-9.33-6.47,25,25,0,0,1-4.1-4.3,23.78,23.78,0,0,1-1.6-2.52l-.7-1.32c-.22-.44-.39-.91-.58-1.36a47.17,47.17,0,0,1-2.83-11.24,1.67,1.67,0,0,1,3.3-.49v.07Z"/><path class="cls-4" d="M1076.13,594.9a32.33,32.33,0,0,1,1,10,25.05,25.05,0,0,1-.86,5.05,16.68,16.68,0,0,1-2.27,4.74,12.75,12.75,0,0,1-4,3.59,16.91,16.91,0,0,1-4.85,1.8c-1.63.37-3.25.59-4.83.8s-3.11.46-4.66.74a73.77,73.77,0,0,0-9.11,2.34,85.6,85.6,0,0,0-8.78,3.47c-5.74,2.62-11.25,5.82-16.87,8.86a111.48,111.48,0,0,1-17.5,8,40,40,0,0,1-9.48,2,29.54,29.54,0,0,1-14.23-2.35,46.78,46.78,0,0,1-4.27-2.24,70,70,0,0,0-8.34-4.6,17.51,17.51,0,0,0-4.55-1.28,18.6,18.6,0,0,0-2.36-.17c-.79.06-1.58.06-2.37.18a22.36,22.36,0,0,1-4.76.42A5.19,5.19,0,0,1,949,634a5.11,5.11,0,0,0,4.08,2.1,21.62,21.62,0,0,0,4.73-.52,17.54,17.54,0,0,1,9.47,1.09,70.57,70.57,0,0,1,8.49,4.45,44.09,44.09,0,0,0,4.25,2.1,29.31,29.31,0,0,0,4.49,1.43,29.72,29.72,0,0,0,9.36.56,38.54,38.54,0,0,0,9.16-2.1,108.9,108.9,0,0,0,17.1-8.25c5.53-3.14,11-6.48,16.79-9.29a88.69,88.69,0,0,1,8.93-3.76,76,76,0,0,1,9.36-2.61c1.58-.33,3.19-.62,4.77-.87s3.11-.49,4.58-.86a14.27,14.27,0,0,0,4.06-1.59,9.91,9.91,0,0,0,3-2.84,13.84,13.84,0,0,0,1.75-3.89,21.83,21.83,0,0,0,.64-4.38,29.05,29.05,0,0,0-1.13-8.93v0a1.67,1.67,0,0,1,3.21-.92Z"/><path class="cls-4" d="M1083,629.6a28.43,28.43,0,0,1-1.56,8.56,58.28,58.28,0,0,1-3.33,7.76c-2.48,5-5.4,9.64-7.47,14.54a26,26,0,0,0-1.26,3.7,16.46,16.46,0,0,0-.5,3.78,19,19,0,0,0,1.34,7.57c1.93,4.87,5.74,8.85,9.42,12.9a76,76,0,0,1,10,13.26,42.78,42.78,0,0,1,5.24,15.72,63.35,63.35,0,0,1,.52,8.25,68.5,68.5,0,0,1-.45,8.24c-.28,2.73-.61,5.45-.69,8.19a29,29,0,0,0,.82,8.14,29.09,29.09,0,0,1-1-8.15c0-2.75.26-5.49.46-8.22a67.83,67.83,0,0,0,.22-8.19,59.77,59.77,0,0,0-.74-8.13,41.45,41.45,0,0,0-5.52-15.15,75.23,75.23,0,0,0-10.12-12.71c-1.89-2-3.83-3.94-5.62-6.09a29.86,29.86,0,0,1-4.58-7.18,21.61,21.61,0,0,1-1.74-8.47,18.52,18.52,0,0,1,.48-4.37,28,28,0,0,1,1.3-4.1c2.11-5.26,4.95-10,7.27-14.86s4.28-9.92,4.25-15v0a1.67,1.67,0,0,1,3.34,0Z"/><path class="cls-4" d="M1080.9,606.84a151.37,151.37,0,0,1,17,11.85c5.41,4.23,10.68,8.6,15.94,12.95,2.63,2.18,5.27,4.35,7.93,6.46,1.33,1.06,2.67,2.1,4,3.09.68.49,1.36,1,2,1.41a10.38,10.38,0,0,0,2,1.06l.2.07.28,0a5.22,5.22,0,0,0,.57.07,11.09,11.09,0,0,0,1.16,0,16.38,16.38,0,0,0,2.39-.28,41.64,41.64,0,0,0,4.84-1.27,68.17,68.17,0,0,1,10-2.73,12.67,12.67,0,0,1,5.43.28,7.13,7.13,0,0,1,2.49,1.29,6.13,6.13,0,0,1,1,.91,9.62,9.62,0,0,1,.9,1,21.27,21.27,0,0,1,2.6,4.61c.7,1.59,1.26,3.21,1.84,4.83a73.44,73.44,0,0,0,3.68,9.47,16.63,16.63,0,0,0,6.83,7.07,23.29,23.29,0,0,0,4.61,2c.81.25,1.63.49,2.44.66s1.66.27,2.51.36c1.68.18,3.4.28,5.1.53a13.37,13.37,0,0,1,4.94,1.58,11.88,11.88,0,0,1,3.63,3.67c1,1.44,1.67,3,2.56,4.45a10.33,10.33,0,0,0,3.42,3.68,10.5,10.5,0,0,0,4.88,1.34,9.34,9.34,0,0,1-8.48-4.91c-.92-1.45-1.68-3-2.64-4.38a11.39,11.39,0,0,0-3.59-3.49,12.55,12.55,0,0,0-4.79-1.42c-1.68-.22-3.38-.28-5.09-.42-.86-.08-1.72-.18-2.58-.33s-1.69-.38-2.52-.62a24.2,24.2,0,0,1-4.81-2,18.24,18.24,0,0,1-6-5.08,22.31,22.31,0,0,1-1.38-2.23,74,74,0,0,1-3.94-9.54c-1.21-3.16-2.39-6.41-4.4-9a7.55,7.55,0,0,0-.81-.88,4.49,4.49,0,0,0-.89-.75,5.78,5.78,0,0,0-2-1,11,11,0,0,0-4.73-.13,66.08,66.08,0,0,0-9.68,2.87,45.06,45.06,0,0,1-5,1.43,12.93,12.93,0,0,1-5.56.13,11.65,11.65,0,0,1-2.55-1.25c-.76-.46-1.49-.95-2.2-1.45-1.42-1-2.8-2-4.17-3.05-2.73-2.09-5.41-4.21-8.09-6.33-5.36-4.25-10.7-8.5-16.14-12.58a150,150,0,0,0-16.84-11.25h0a1.67,1.67,0,0,1,1.61-2.93Z"/><path class="cls-4" d="M1069.45,673.24a36.5,36.5,0,0,0,4,9.83c1.72,3.2,3.57,6.39,5.16,9.74a44.34,44.34,0,0,1,3.6,10.56,32.74,32.74,0,0,1,.22,11.17,40.94,40.94,0,0,1-3.14,10.65c-1.46,3.42-3.4,6.53-5,9.81a52,52,0,0,0-3.84,10.19c-.84,3.51-1.15,7.31.18,10.76-1.46-3.4-1.3-7.27-.58-10.84a52.64,52.64,0,0,1,3.51-10.45c1.45-3.38,3.29-6.57,4.64-9.91a39.92,39.92,0,0,0,2.83-10.4,33,33,0,0,0,.23-5.35,32.69,32.69,0,0,0-.68-5.31,42.13,42.13,0,0,0-3.68-10.07c-1.62-3.23-3.51-6.33-5.33-9.54a38.8,38.8,0,0,1-4.4-10.37,1.17,1.17,0,1,1,2.28-.51v0Z"/><path class="cls-4" d="M1077.16,646.74a13.19,13.19,0,0,1-2.69,4.58,35.41,35.41,0,0,1-3.43,3.49,94,94,0,0,1-7.44,5.91c-5.07,3.69-10.35,7-15.35,10.63a42.13,42.13,0,0,0-3.56,2.78,7.28,7.28,0,0,0-1.27,1.38c-.35.62-.7,1.27-1,1.93a27,27,0,0,0-2.13,8.59c-.56,6,.22,12.2.89,18.38.33,3.1.65,6.22.73,9.38s0,6.28-.23,9.41a56.22,56.22,0,0,1-4.14,18.33,45.41,45.41,0,0,1-4.68,8.16c-1.8,2.56-3.75,5-5.49,7.55a29.24,29.24,0,0,0-4.14,8.26,23.87,23.87,0,0,0-.77,9.22,23.87,23.87,0,0,1,.53-9.29,29.9,29.9,0,0,1,4-8.47c1.69-2.63,3.58-5.12,5.29-7.7a43.93,43.93,0,0,0,4.37-8.13,54.8,54.8,0,0,0,3.56-18c.14-3.08.12-6.17,0-9.25s-.56-6.13-1-9.21c-.83-6.14-1.82-12.39-1.41-18.82a29.76,29.76,0,0,1,2.1-9.5c.33-.77.68-1.5,1.09-2.25a9.9,9.9,0,0,1,1.81-2.09,46.74,46.74,0,0,1,3.76-3c5.09-3.72,10.28-7.1,15.23-10.79a89.56,89.56,0,0,0,7.12-5.77,33,33,0,0,0,3.08-3.2,10.23,10.23,0,0,0,2-3.4l0,0a1.66,1.66,0,0,1,3.2.92Z"/><path class="cls-4" d="M1075.19,595.08c.7,4.37,1.85,8.73,2.69,13.29a46.13,46.13,0,0,1,.74,7,25.45,25.45,0,0,1-.92,7.14,23.94,23.94,0,0,1-3,6.55,35.35,35.35,0,0,1-4.44,5.51,40.74,40.74,0,0,1-5.41,4.5,49.94,49.94,0,0,1-6,3.51c-8.37,4.06-17.36,6-26.08,8.32-4.37,1.15-8.71,2.36-12.91,3.92a51.07,51.07,0,0,0-11.84,6.11,53.07,53.07,0,0,0-9.63,9.26c-2.87,3.46-5.44,7.17-8,10.9A110.7,110.7,0,0,1,982.09,692a32.13,32.13,0,0,1-10.87,8.32,25.82,25.82,0,0,1-6.61,1.91,32.7,32.7,0,0,1-6.85.22c-4.54-.31-9-1.11-13.53-1.27a17.48,17.48,0,0,0-6.63.88,10.05,10.05,0,0,0-5,4.25,21.17,21.17,0,0,0-2.48,6.27,54.11,54.11,0,0,0-1.11,6.7,52.37,52.37,0,0,1,1-6.72,21.29,21.29,0,0,1,2.4-6.36,10.27,10.27,0,0,1,5.1-4.43,17.61,17.61,0,0,1,6.75-1c4.56.09,9,.82,13.56,1.06a32.63,32.63,0,0,0,6.7-.32,25,25,0,0,0,6.38-2,31.11,31.11,0,0,0,10.43-8.24,111,111,0,0,0,8-10.89c2.52-3.76,5.06-7.54,7.92-11.11a54.71,54.71,0,0,1,9.79-9.68,52.16,52.16,0,0,1,12.15-6.52,136.06,136.06,0,0,1,13-4.18c8.74-2.44,17.59-4.54,25.52-8.55a48.2,48.2,0,0,0,5.66-3.4,39.64,39.64,0,0,0,5-4.26,25.78,25.78,0,0,0,6.54-10.94,22.19,22.19,0,0,0,.7-6.31,42.55,42.55,0,0,0-.78-6.49c-.87-4.35-2.11-8.74-2.91-13.32a1.67,1.67,0,0,1,3.29-.58v0Z"/><path class="cls-4" d="M978.18,662.14a16.88,16.88,0,0,0,6.81-2.22,20.33,20.33,0,0,0,5.28-4.81c.78-.91,1.39-2,2.27-2.85a26.27,26.27,0,0,1,2.77-2.41c1.93-1.48,4-2.83,6-4.13,8.19-5.18,16.75-9.71,25.15-14.44a129.82,129.82,0,0,1,13.21-6.2c2.25-.93,4.4-1.9,6.71-2.83a61.8,61.8,0,0,1,7-2.25c2.39-.61,4.8-1.09,7.2-1.5,1.22-.21,2.41-.36,3.48-.62a11.28,11.28,0,0,0,3-1.17c3.74-2.14,6.15-6.39,6.82-10.68v0a1.67,1.67,0,0,1,3.3.51v.06a19.73,19.73,0,0,1-2.91,7.28,16.06,16.06,0,0,1-5.78,5.41,13.72,13.72,0,0,1-3.78,1.37c-1.28.27-2.5.39-3.67.56-2.36.33-4.71.73-7,1.26a57.74,57.74,0,0,0-6.82,2c-2.2.81-4.48,1.76-6.72,2.61a128.14,128.14,0,0,0-13.19,5.74c-8.56,4.51-17.21,8.79-25.5,13.71-2.07,1.24-4.11,2.52-6,3.92a24.32,24.32,0,0,0-2.76,2.27c-.84.8-1.51,1.84-2.32,2.74a20.68,20.68,0,0,1-5.54,4.71A17,17,0,0,1,978.18,662.14Z"/><path class="cls-4" d="M970,757.62a51.06,51.06,0,0,0,3.1-15.32c.4-5.22.43-10.47,1.16-15.67a46.06,46.06,0,0,1,1.67-7.71,31.45,31.45,0,0,1,3.37-7.16,21.47,21.47,0,0,1,5.27-5.93c2.09-1.67,4.51-2.8,6.54-4.34a13.57,13.57,0,0,0,2.7-2.65,16.31,16.31,0,0,0,1.87-3.31,76.51,76.51,0,0,0,2.35-7.42,130.05,130.05,0,0,1,5.32-14.85,51.25,51.25,0,0,1,8.27-13.57l1.43-1.43c.49-.47,1.05-.87,1.57-1.31,1-.84,2.11-1.57,3.23-2.33a24.87,24.87,0,0,1,3.52-2c.6-.29,1.22-.56,1.83-.82l.91-.38a6.54,6.54,0,0,1,1.18-.32.9.9,0,0,1,1.08.68.91.91,0,0,1-.61,1.06l-.26.08a4.74,4.74,0,0,0-.71.19l-.9.36c-.6.24-1.19.49-1.77.76a24.39,24.39,0,0,0-3.33,1.82c-1.06.7-2.17,1.44-3.17,2.22-.49.4-1,.75-1.46,1.19l-1.37,1.32a50,50,0,0,0-8.19,13,131,131,0,0,0-5.47,14.63,78.57,78.57,0,0,1-2.51,7.5,16.7,16.7,0,0,1-2,3.48,14.34,14.34,0,0,1-2.92,2.8c-2.17,1.58-4.57,2.66-6.6,4.24a20.48,20.48,0,0,0-5.18,5.67,30.56,30.56,0,0,0-3.4,7,45.48,45.48,0,0,0-1.77,7.59c-.8,5.16-.91,10.41-1.38,15.63A51.35,51.35,0,0,1,970,757.62Z"/><path class="cls-4" d="M1076.72,593.59a90.28,90.28,0,0,1,3.19,10.86c.83,3.66,1.48,7.34,2.08,11l1.71,11c.57,3.64,1.22,7.25,2.13,10.76.2.89.48,1.74.75,2.6a24.38,24.38,0,0,0,.91,2.52A25.79,25.79,0,0,0,1090,647c2,3,4.37,5.82,6.64,8.79a38.2,38.2,0,0,1,5.73,9.8,36.48,36.48,0,0,1,2,11.15c.22,3.69.34,7.38,1.56,10.71a13.06,13.06,0,0,0,2.82,4.39,15.41,15.41,0,0,0,4.4,2.94c3.22,1.62,6.93,2,10.55,3a19.9,19.9,0,0,1,5.3,2,10.29,10.29,0,0,1,4,4.07c1.78,3.43,2.08,7.21,3,10.76a18.19,18.19,0,0,0,2,5.08,8.65,8.65,0,0,0,4,3.5c.84.35,1.74.6,2.59,1a4.16,4.16,0,0,1,2,2,14,14,0,0,1,.91,5.5,21.45,21.45,0,0,0,.52,5.49,6.5,6.5,0,0,0,3.21,4.3,6.52,6.52,0,0,1-3.31-4.27,21.83,21.83,0,0,1-.63-5.51,13.66,13.66,0,0,0-1-5.37,3.83,3.83,0,0,0-1.9-1.78c-.82-.39-1.71-.63-2.59-1a9.17,9.17,0,0,1-4.27-3.61,18.46,18.46,0,0,1-2.11-5.2c-1-3.58-1.39-7.35-3.12-10.52a9.41,9.41,0,0,0-3.75-3.65,18.91,18.91,0,0,0-5.09-1.8c-1.78-.41-3.6-.71-5.43-1.11a23.38,23.38,0,0,1-5.4-1.71,16.93,16.93,0,0,1-4.82-3.11,14.44,14.44,0,0,1-3.23-4.83c-1.41-3.64-1.57-7.47-1.86-11.13a34.81,34.81,0,0,0-2.05-10.59,36,36,0,0,0-5.62-9.19c-2.27-2.87-4.76-5.65-6.9-8.79a28.78,28.78,0,0,1-2.79-5c-.36-.89-.74-1.77-1-2.68s-.61-1.8-.83-2.71c-1-3.64-1.75-7.31-2.4-11L1079.11,616c-.66-3.62-1.37-7.23-2.24-10.77a88,88,0,0,0-3.26-10.37v0a1.67,1.67,0,1,1,3.11-1.21Z"/><path class="cls-4" d="M1079.18,606.62a53.48,53.48,0,0,1,2.46,19.7,38.65,38.65,0,0,1-6.64,18.73A58.82,58.82,0,0,1,1061.08,659c-5.25,3.91-10.86,7.21-16.37,10.55-2.74,1.69-5.48,3.38-8,5.29a58.13,58.13,0,0,0-7.06,6.45c-4.4,4.67-8.34,9.8-12.3,14.9s-7.92,10.24-12.35,15-9.38,9.14-15.43,11.54c6-2.54,10.8-7.08,15.1-11.84s8.11-10,12-15.21,7.68-10.43,12-15.27a59.75,59.75,0,0,1,7.08-6.78c2.59-2,5.33-3.79,8-5.54,5.46-3.47,11-6.85,16-10.77a56.84,56.84,0,0,0,13.1-13.63,35.79,35.79,0,0,0,5.82-17.53,50.18,50.18,0,0,0-2.71-18.49h0a1.67,1.67,0,0,1,3.18-1Z"/><path class="cls-9" d="M1117.86,440.62A13.15,13.15,0,0,1,1131,439a28.12,28.12,0,0,1-1.43,3.49,8.9,8.9,0,0,1-1.21,1.72c-.24.26-.49.51-.74.75a3.81,3.81,0,0,1-.61.52c-.28.17-.46.05-.75,0s-.32-.05-.48-.1a4.27,4.27,0,0,1-1-.53c-1.07-.73-2.16-1.25-3.28-1.89C1121.13,442.69,1118,440.53,1117.86,440.62Z"/><path class="cls-9" d="M1038.75,528.76a26.76,26.76,0,0,0-.54,11,12.31,12.31,0,0,1,2.53-3c2.27,1.85,2.56,5.14,3.84,7.77a1.09,1.09,0,0,0,.45.54c.54.24,1-.43,1.23-1a22.93,22.93,0,0,0,1.18-10,7.37,7.37,0,0,0,2.23.4,12.38,12.38,0,0,0-6.34-9.42,2.6,2.6,0,0,0-1.46-.42,2.35,2.35,0,0,0-1.15.48C1039.22,526.15,1038.39,528.08,1038.75,528.76Z"/><path class="cls-9" d="M1052.94,521.54a14.53,14.53,0,0,0,1.18,12.63l1.9-2.73a11.14,11.14,0,0,0,3.49,2.1l3.71,1.65-1.56-8.74a22.07,22.07,0,0,1,2.47.1,8.22,8.22,0,0,0-6.06-7.15,5,5,0,0,0-3.68.33C1053.3,520.37,1052.59,521.75,1052.94,521.54Z"/><path class="cls-9" d="M1031.39,529.27a13.88,13.88,0,0,0-17.86,5.61l7-2a16.38,16.38,0,0,0,1.19,24.48,42.63,42.63,0,0,1,3.66,2.89,5.22,5.22,0,0,1,1.72,4.16c.39-3.49-.89-7.28.72-10.4.49-.94,1.21-1.74,1.76-2.65,2-3.28,1.46-7.42.88-11.21l2.91,5.72c-.93-5.58,3-11.34,1.3-16.76C1033.51,529.18,1032.33,529.2,1031.39,529.27Z"/><path class="cls-9" d="M1041.31,489.23a9.81,9.81,0,0,1-7.82-1.33,7.64,7.64,0,0,1,3.36-1.83,3.36,3.36,0,0,1-2.2-2.16c-.41-1-.54-2.07-.87-3.09a8.5,8.5,0,0,0-3.73-4.66c1.58.64,3.36.08,5.06.08,3.9,0,7.24,2.88,9.36,6.15l.22-3.68a5,5,0,0,1,4.46,4.3,6.25,6.25,0,0,1-2.7,5.78C1044.62,490.07,1042.22,490.4,1041.31,489.23Z"/><path class="cls-9" d="M1053.71,489.59a12.71,12.71,0,0,0,1.09,10.07c.51-.71,1-1.42,1.52-2a40,40,0,0,0,4.27,6.7c1.16,1.47,2.57,2.93,4.44,3.18a22.2,22.2,0,0,0-.31-9.25,16.06,16.06,0,0,1,2,3.46,19.51,19.51,0,0,0,1.36-4.57,6.6,6.6,0,0,0-.92-4.59c-1-1.53-2.85-2.33-4.56-3.06a14.3,14.3,0,0,0-2.91-1,14.75,14.75,0,0,0-3.39-.11,5.86,5.86,0,0,0-2.16.39C1053.51,489.12,1053,489.78,1053.71,489.59Z"/><path class="cls-9" d="M1034.46,492.43A19.09,19.09,0,0,0,1021.7,494c-1.13.58-2.35,1.55-2.17,2.81a11.85,11.85,0,0,1,4.56.08c-.74.78-.71,2-1.07,3a6.35,6.35,0,0,1-3,3.13,30,30,0,0,0-3.81,2.21,8,8,0,0,0-2.92,7.29,3.91,3.91,0,0,1,3.47-2.28,13.35,13.35,0,0,1,4.32.67,8.75,8.75,0,0,0,4.33.27,9.24,9.24,0,0,0,4.09-2.95c1.85-2,3.72-4.23,4-7a5.17,5.17,0,0,1,2.5,3.31,8.71,8.71,0,0,0,2.38-7.12C1038.05,495.12,1036.24,492.83,1034.46,492.43Z"/><path class="cls-9" d="M1072.89,436.22c5.7,19.22,5.87,39.64,4.57,59.64s-4,39.94-4,60c0,14.78,1.54,29.85-2.36,44.11-.32,1.17-.66,2.47,0,3.52a4.5,4.5,0,0,0,2.84,1.69c3.67,1.06,8.63,1.61,10.36-1.8a8.15,8.15,0,0,0,.63-3.61c.53-27.89-3.37-55.72-3-83.62.1-7.17.48-14.34.71-21.52q.75-23.25-.68-46.51c-.44-7.26-1.56-15.46-7.47-19.69C1072.14,431.25,1071.55,435.38,1072.89,436.22Z"/><path class="cls-9" d="M1080,530.6c.34-4.22,4.06-7.31,7.64-9.58a80.65,80.65,0,0,1,43.44-12.48c8.76.06,18.56,2.21,23.3,9.58.91,1.4,1.27,3.78-.32,4.29-1,.31-1.93-.38-2.72-1-10-7.84-23.73-10.28-36.15-7.56s-23.52,10.26-31.63,20a7.26,7.26,0,0,1-3,2.57c-1.29.41-3-.29-3.11-1.64a3.29,3.29,0,0,1,.41-1.55C1078.58,531.49,1079.39,529.7,1080,530.6Z"/><path class="cls-9" d="M1080.06,494.16c3.24-5.11,8.58-8.49,13.94-11.29a121,121,0,0,1,21.36-8.67c5.82-1.74,12-3.05,18-1.81S1144.92,478,1146,484c-3.74-.61-6.41-3.85-9.71-5.72-5-2.86-11.3-2.38-17-1.14a74,74,0,0,0-39.48,23.28C1078.36,498.44,1078.89,496,1080.06,494.16Z"/><path class="cls-9" d="M1127.72,509.54c-.46-2.61.91-5.27,2.88-7a23.68,23.68,0,0,1,6.9-3.84,12.23,12.23,0,0,1-.09,8.49c3.53-2.16,8.22-1.73,11.83.28s6.28,5.38,8.35,8.95a26,26,0,0,1,3.93,12,30.12,30.12,0,0,1-10.82,4.89,16.76,16.76,0,0,1-7,.34c-3.74-.73-6.93-3.27-9.23-6.3a38.33,38.33,0,0,1-5.17-10.38,18.68,18.68,0,0,0-.78,8.23,7.88,7.88,0,0,1-5.87-6.69C1122.29,515.29,1124.15,512,1127.72,509.54Z"/><path class="cls-9" d="M1108.73,513.83a21.55,21.55,0,0,0-4.61,16.06l3.67-3.27c2.19,5.86,5.12,12.45,11,14.31l1.08-12.16a7.8,7.8,0,0,1,3.33,5.1,13,13,0,0,0,.46-10.63,20.64,20.64,0,0,0-6.57-8.63c-1.68-1.35-3.64-2.57-5.8-2.59S1106.86,513.61,1108.73,513.83Z"/><path class="cls-9" d="M1095.09,516.77a9.39,9.39,0,0,1-6.09-10.52.93.93,0,0,1,1.6-.65,14.84,14.84,0,0,1,3.57,2.82,15,15,0,0,1,2.49-13.25,15.2,15.2,0,0,1,4.74,11.12,8.1,8.1,0,0,1,2.61-6.52C1106.08,505.12,1104.88,511.59,1095.09,516.77Z"/><path class="cls-9" d="M1104.12,500.07a21,21,0,0,1,.12,10.79,8.27,8.27,0,0,1-2,3.93,10.57,10.57,0,0,1-5.77,2.51,3.84,3.84,0,0,1-3.42-1.77"/><path class="cls-9" d="M1079.72,479.53c0-4,2.35-7.5,4.72-10.66a125.46,125.46,0,0,1,17.44-18.9c5.42-4.79,11.68-9.27,18.88-9.84.71,1.53-.79,3.11-2.12,4.13-11.83,9-23.83,18.36-32.13,30.71a55,55,0,0,1-5.51,7.65c-.33.35-.78.73-1.25.59s-.64-.63-.73-1.08C1078.78,481,1078.78,479.85,1079.72,479.53Z"/><path class="cls-9" d="M1080,453.28c6.31-5.66,10.23-13.49,13.38-21.35s5.7-16,9.93-23.38c.36-.63.85-1.32,1.57-1.35,1.34-.06,1.55,1.92,1.22,3.22a119.24,119.24,0,0,1-22.17,45.28c-1.06,1.34-3,2.76-4.25,1.61S1079.06,454.07,1080,453.28Z"/><path class="cls-9" d="M1079.87,469.85a44.87,44.87,0,0,0-44.13-16.24c-3.81.82-7.72,2.31-10.08,5.4a3.54,3.54,0,0,0-.91,2.46,1.59,1.59,0,0,0,1.86,1.43c3.79-3.74,9.48-4.58,14.77-5.22,4.93-.6,10-1.2,14.82.1,6.17,1.65,11.09,6.19,15.75,10.57l8.78,8.28C1082.76,474.46,1082,470.37,1079.87,469.85Z"/><path class="cls-9" d="M1080.3,503.64a21.48,21.48,0,0,0-9.76-12.71,34.22,34.22,0,0,0-15.61-4.6c-5.74-.39-11.67.28-16.82,2.83s-9.47,7.14-10.83,12.73c2.7-.26,4.82-2.3,7-4a29.86,29.86,0,0,1,24.24-6c8.4,1.8,15.87,8,18.69,16.09.48,1.36,1.88,3.12,2.93,2.12a2,2,0,0,0,.46-1.41A19.19,19.19,0,0,0,1080.3,503.64Z"/><path class="cls-9" d="M1078.38,528.4a23.55,23.55,0,0,0-22.21-12.95c-6.5.43-12.51,3.6-18,7.15-8.92,5.8-17.59,13.8-19.11,24.33a2.87,2.87,0,0,0,.17,1.88,2.16,2.16,0,0,0,2.88.48,6.76,6.76,0,0,0,2.08-2.44,61.49,61.49,0,0,1,19.32-19.53c4.07-2.57,8.54-4.69,13.33-5.15s9.93,1,13.14,4.52c2.25,2.49,3.38,5.76,4.83,8.79.6,1.27,1.77,2.73,3.1,2.26a2.65,2.65,0,0,0,1.39-2.41A14.57,14.57,0,0,0,1078.38,528.4Z"/><path class="cls-9" d="M1109.63,511.83a13.26,13.26,0,0,1-1.23-13.59,20.83,20.83,0,0,1,2.21,4.27,16.14,16.14,0,0,1,8.17-10.45,14.34,14.34,0,0,1,1.45,11,40.54,40.54,0,0,0,3.25-4.45c1.22,4.13,0,9.16-3.62,11.48a16,16,0,0,1-3.79,1.59l-2.42.79C1112.14,512.92,1110.53,513,1109.63,511.83Z"/><path class="cls-9" d="M1096.47,423.6a10.4,10.4,0,0,1-1.79-10.74,9.54,9.54,0,0,1,2.42,4.07c.67-2.6,1.37-5.28,3-7.44,1.8-2.41,4.52-3.91,7-5.34a14.38,14.38,0,0,1-.61,15.16l4.62-3.67c1,2.17-.27,4.72-1.81,6.55a23.5,23.5,0,0,1-12.1,7.6C1095.64,426.58,1094.72,423.09,1096.47,423.6Z"/><path class="cls-9" d="M1091.59,437.86a8.63,8.63,0,0,1-8.21-5.21,6.5,6.5,0,0,1,3.25,0,11.18,11.18,0,0,1-1.39-13,2.11,2.11,0,0,0,1.2,1.75c.64.37,1.38.56,2,.93,2.29,1.29,2.87,4.28,3.2,6.89,0-1.44,0-2.89,0-4.35a7.92,7.92,0,0,1,3.4,6.9C1095,434.4,1093.52,437.76,1091.59,437.86Z"/><path class="cls-9" d="M1071,435.5a9.31,9.31,0,0,1,5.25,3.41c.25.33.54,1.16.86,1.38s.85-.05,1.21-.26a3.16,3.16,0,0,0,1.56-2.3,6.53,6.53,0,0,0-.07-1.46c-.7-5.2-1.83-10.48-4.59-15-.37-.61-.76-1.2-1.18-1.77s-.74-1.21-1.16-1.67c-.62-.66-1.25-1.31-1.9-1.93-.13.45-.13,1.06-.24,1.56s-.26,1.08-.39,1.62c-.17.7-.21,1.45-.36,2.14a23,23,0,0,0-1.55-4c-2.41-4.1-7.9-4.78-12.17-5.42a5,5,0,0,0-2.91.21c2.59,1.66,4.07,4.49,5.16,7.27a51.32,51.32,0,0,0,2.5,5.86,13.29,13.29,0,0,0,1.86,2.71c.43.48,1.67,1.85,2.38,1.81-.62,0-1.24.06-1.87.08a12.17,12.17,0,0,0-2.41.18s.49.77.62.93a9.76,9.76,0,0,0,3.91,2.59A36.88,36.88,0,0,0,1071,435.5Z"/><path class="cls-9" d="M1063.43,457.61a15.51,15.51,0,0,1-1.2-11.53,8.19,8.19,0,0,1,2.87,4.35,36.47,36.47,0,0,0,4-8.74,15.45,15.45,0,0,1,3.15,13.1,9.17,9.17,0,0,0,2.32-2.89,7.5,7.5,0,0,1-2.44,9.78,2.77,2.77,0,0,1-1.61.51,3.39,3.39,0,0,1-1-.26l-1.93-.74a9.4,9.4,0,0,1-2.75-1.4A3.68,3.68,0,0,1,1063.43,457.61Z"/><path class="cls-9" d="M1065.47,462.11a17.51,17.51,0,0,0-8.44,11.42l3.31-1.74a30.48,30.48,0,0,1,2.29,8.9.9.9,0,0,0,.28.68.77.77,0,0,0,.52.07,4.56,4.56,0,0,0,2.82-2.31,26.57,26.57,0,0,0,3.25-6.95,10.05,10.05,0,0,1,1.86,2.44,20.81,20.81,0,0,0-.7-9.91,4.26,4.26,0,0,0-1.78-2.6C1067.44,461.37,1065.72,462.28,1065.47,462.11Z"/><path class="cls-9" d="M1051.41,453.62a8.1,8.1,0,0,1-3.88-8l3.75,3.12a13.74,13.74,0,0,0-.68-8,12.6,12.6,0,0,1,6.05,9.58q1-1.6,1.95-3.3a16.62,16.62,0,0,1,2,4.29c.38,1.31.53,2.92-.45,3.88a3.56,3.56,0,0,1-2,.85C1055.41,456.43,1052.61,455.62,1051.41,453.62Z"/><path class="cls-9" d="M1040.75,449.55c-4.08-2.28-9.22-2-13.56-.31a31,31,0,0,0-11.12,8.23c2.08,0,3.62,1.82,5.2,3.19a13.76,13.76,0,0,0,20.57-2.88l-2.39,6.44a21.82,21.82,0,0,0,12.6-7.93,1.59,1.59,0,0,1-.07-.65c-.37-1.08-1.56-1.6-2.47-2.29a11.62,11.62,0,0,1-3-4.11l-3.27-6.36A23.3,23.3,0,0,0,1040.75,449.55Z"/><path class="cls-9" d="M1058,457.51a25.65,25.65,0,0,0-11.89,6.37,3.93,3.93,0,0,0-1.39,2.19,7.81,7.81,0,0,0,5.49-.66c-.31,3.17-4.68,4.65-5.18,7.8a6.74,6.74,0,0,0,5.73-1.25,20.16,20.16,0,0,0,4.08-4.46l-.24,3.08c0,.3,0,.7.31.76a.62.62,0,0,0,.53-.27,18.92,18.92,0,0,0,4.91-10.67,3.18,3.18,0,0,0-.28-2.09A2.13,2.13,0,0,0,1058,457.51Z"/><path class="cls-9" d="M1098.86,483.86a35,35,0,0,0-1.54,7.28l2-1.55a13.5,13.5,0,0,0,3.67,8.79.7.7,0,0,0,.31.23c.38.11.65-.36.76-.73a30.87,30.87,0,0,0,1.21-7.86,21.25,21.25,0,0,1,2.5,2.34,13.81,13.81,0,0,0-3.08-9,4.74,4.74,0,0,0-3-2C1100,481.2,1098.34,483,1098.86,483.86Z"/><path class="cls-9" d="M1108.2,479.33a10.4,10.4,0,0,0,.54,8.14l1.68-2.85a10.31,10.31,0,0,0,9.5,5.6q-1.17-2.87-2.43-5.68a3.8,3.8,0,0,1,2.46,1.1,7.17,7.17,0,0,0-1-3,10.4,10.4,0,0,0-4.49-4.71,5.28,5.28,0,0,0-6.08,1C1107.94,479.45,1107.62,480.19,1108.2,479.33Z"/><path class="cls-9" d="M1112.1,475.12a2.58,2.58,0,0,1-.09-2.58,15.12,15.12,0,0,1,1.49-2.25,9.93,9.93,0,0,0,1.68-4.75l.9,3.33,1.32-3.62a16.45,16.45,0,0,1,2.31-4.72,5.55,5.55,0,0,1,4.52-2.3,11.7,11.7,0,0,0-.53,3.38c0,2.27.57,4.84-.86,6.61a5.7,5.7,0,0,0,2-2.66c1.46,3,.59,7.29-2.44,8.77a10.59,10.59,0,0,1-2.44.73l-5.64,1.2a3.37,3.37,0,0,1-1.78.06C1112,476.12,1111.55,475.47,1112.1,475.12Z"/><path class="cls-9" d="M1128.47,473.11a16,16,0,0,1,11.46-7.19,6.23,6.23,0,0,1-2.88,4.32c3.65-.59,7.82-.62,10.54,1.89a30.24,30.24,0,0,1,2.9,3.73,13,13,0,0,0,5.16,3.93c-3,1.63-5.55,4.83-9,4.64a10,10,0,0,1-4.34-1.68c-2.22-1.3-4.45-2.6-6.49-4.05a6.3,6.3,0,0,0,1.93,4.95c-.93.61-2.17.15-3.15-.38a23.15,23.15,0,0,1-4.63-3.35,8.38,8.38,0,0,1-2.39-3.37C1127.17,475.22,1127.38,473.61,1128.47,473.11Z"/><path class="cls-9" d="M1105.06,447.92a9,9,0,0,1-2.62-8.8l1.88,1.65a9.46,9.46,0,0,1,3.89-9.33,6.86,6.86,0,0,1,3.25,7.65l2-3.88a10.93,10.93,0,0,1-2.39,11,5.53,5.53,0,0,1-1.69,1.27,7.33,7.33,0,0,1-1.78.48C1106.45,448.2,1105.46,448.28,1105.06,447.92Z"/><path class="cls-9" d="M1114.18,442.73a6.12,6.12,0,0,1,3.31-4.5,6.39,6.39,0,0,1-.1,3.65,8.33,8.33,0,0,1,5.72-3.18,24.84,24.84,0,0,1,6.72.24c-1.5.84-1.1,3.07-1.65,4.69-.8,2.38-3.61,3.3-6,3.89a15.52,15.52,0,0,1,5,.66,6,6,0,0,1-5.11,2,27.69,27.69,0,0,1-5.58-1.22,10.23,10.23,0,0,0-5.64-.19C1111,446.24,1113.9,444.49,1114.18,442.73Z"/><path class="cls-15" d="M1091.29,451.12c-2.57.28-4.55,2.44-5.79,4.72-1.81,3.33-2.47,7.72-.22,10.77,6.19,8.38,24.63,4.86,26.48-5.71.59-3.37-1.26-6.86-4-8.83a15.29,15.29,0,0,0-9.79-2.34C1094.51,450,1091.21,451,1091.29,451.12Z"/><path class="cls-15" d="M1090.48,486.59c-2.91,1.06-4.67,4.07-5.45,7.06a11.9,11.9,0,0,0,.53,8.42c2.17,4.18,7.23,5.82,11.84,6.76,3,.62,6.31,1.1,9.18-.09a15.08,15.08,0,0,0,5.28-4.22c2.22-2.49,4.36-5.49,4.12-8.81a9.67,9.67,0,0,0-1.34-4,17.17,17.17,0,0,0-13.11-8.59C1096.13,482.57,1090.52,484.85,1090.48,486.59Z"/><path class="cls-15" d="M1098.28,524c-4.83.79-10.14,1.86-13.09,5.77a11.29,11.29,0,0,0-1.91,4.11c-1.71,6.82,2.46,14.35,8.79,17.41s14.2,2,20.13-1.79a16.5,16.5,0,0,0,7-8.2,13.3,13.3,0,0,0-1.46-11.24,15.81,15.81,0,0,0-9.31-6.66C1103,522,1097.23,523.24,1098.28,524Z"/><path class="cls-15" d="M1110.72,523.81c3.56-2.46,8-3,12.35-3.48,5-.57,9.6.51,12.55,5a15.28,15.28,0,0,1,2.32,7.17,11.24,11.24,0,0,1-.51,4.68c-1.57,4.34-5.82,6.46-10,7.59-8.45,2.3-22.65-.56-22.32-11.93C1105.27,528.59,1108.47,525.35,1110.72,523.81Z"/><path class="cls-15" d="M1030.49,498.78a14.24,14.24,0,0,0-9.58,24.17c3.68,3.76,9.23,5.21,14.49,5a23,23,0,0,0,13.24-4.51,16.46,16.46,0,0,0,6.49-12.13,12.91,12.91,0,0,0-6.58-11.76c-2.67-1.37-5.76-1.64-8.76-1.77C1035.65,497.63,1031.43,497.67,1030.49,498.78Z"/><path class="cls-15" d="M1059,475.75c-3.62.42-7.7,1.12-9.71,4.15a9.43,9.43,0,0,0-1.37,4.6,10.88,10.88,0,0,0,1.46,6.93c2.16,3.19,6.38,4.21,10.23,4.33,4.18.13,8.58-.61,11.9-3.15s5.23-7.24,3.61-11.1a9.73,9.73,0,0,0-5.61-5.08,19,19,0,0,0-7.65-1,26.34,26.34,0,0,0-6.9,1.13.7.7,0,0,0-.51.36C1054.34,477.14,1054.63,477.38,1059,475.75Z"/><path class="cls-15" d="M1063.78,441.91c-2.47.36-5.13.8-6.88,2.58a11.22,11.22,0,0,0-1.8,2.71c-1.14,2.15-2.26,4.45-2.18,6.88.13,4.16,3.79,7.42,7.65,9a18.51,18.51,0,0,0,13.44.38,14.44,14.44,0,0,0,8.9-9.78c1.06-4.39-2.36-9.14-6.32-10.88-3.58-1.58-7.87-1.7-11.71-1.24C1062.69,441.83,1060.19,442.27,1063.78,441.91Z"/><path class="cls-16" d="M1065.61,442.31a18.27,18.27,0,0,0-6.3-3.58,6.67,6.67,0,0,1,8,3.66,13.11,13.11,0,0,1-.08-4.19,4.47,4.47,0,0,1,2.34-3.31,22.83,22.83,0,0,1-1.66,7.47,7.5,7.5,0,0,1,6-5.6l-3.9,5.23a3.71,3.71,0,0,1-2.09,1.69A1.91,1.91,0,0,1,1065.61,442.31Z"/><path class="cls-16" d="M1094.92,450.05a18.11,18.11,0,0,0-6.3-3.58,6.68,6.68,0,0,1,8,3.66,13.12,13.12,0,0,1-.09-4.19,4.48,4.48,0,0,1,2.34-3.31,22.81,22.81,0,0,1-1.65,7.47,7.48,7.48,0,0,1,5.94-5.6l-3.89,5.23a3.7,3.7,0,0,1-2.1,1.69A1.92,1.92,0,0,1,1094.92,450.05Z"/><path class="cls-16" d="M1097,483.42a18.18,18.18,0,0,0-6.3-3.58,6.68,6.68,0,0,1,8,3.66,13.1,13.1,0,0,1-.09-4.19,4.48,4.48,0,0,1,2.35-3.31,22.83,22.83,0,0,1-1.66,7.47,7.49,7.49,0,0,1,5.94-5.6l-3.89,5.23a3.76,3.76,0,0,1-2.1,1.7A1.93,1.93,0,0,1,1097,483.42Z"/><path class="cls-16" d="M1059.36,475.1a18.11,18.11,0,0,0-6.3-3.58,6.68,6.68,0,0,1,8,3.66,13.17,13.17,0,0,1-.09-4.2,4.48,4.48,0,0,1,2.34-3.3,22.81,22.81,0,0,1-1.65,7.47,7.48,7.48,0,0,1,5.94-5.6l-3.89,5.23a3.74,3.74,0,0,1-2.1,1.69A1.92,1.92,0,0,1,1059.36,475.1Z"/><path class="cls-16" d="M1030.35,497.88a30.19,30.19,0,0,0-10.44-5.93,11.05,11.05,0,0,1,13.17,6.06,22.22,22.22,0,0,1-.14-6.95,7.43,7.43,0,0,1,3.88-5.47,38,38,0,0,1-2.74,12.38,12.4,12.4,0,0,1,9.85-9.28l-6.45,8.65c-.92,1.23-2,2.55-3.48,2.81A3.16,3.16,0,0,1,1030.35,497.88Z"/><path class="cls-16" d="M1094.61,524.66a29.93,29.93,0,0,0-10.43-5.94,11.05,11.05,0,0,1,13.17,6.06,22.16,22.16,0,0,1-.14-6.94,7.47,7.47,0,0,1,3.88-5.48,37.9,37.9,0,0,1-2.74,12.38,12.39,12.39,0,0,1,9.85-9.28l-6.45,8.66c-.92,1.22-2,2.54-3.48,2.81A3.2,3.2,0,0,1,1094.61,524.66Z"/><path class="cls-16" d="M1119.19,521.7a30.06,30.06,0,0,0-10.43-5.93,11,11,0,0,1,13.17,6.06,22.22,22.22,0,0,1-.14-7,7.43,7.43,0,0,1,3.88-5.47,37.84,37.84,0,0,1-2.74,12.37,12.4,12.4,0,0,1,9.85-9.28l-6.45,8.66c-.92,1.23-2,2.54-3.48,2.81A3.2,3.2,0,0,1,1119.19,521.7Z"/><path class="cls-17" d="M1167.71,753.15a4.37,4.37,0,0,0,.25-5.45,4.59,4.59,0,0,0-2.7-2,3.5,3.5,0,0,0-2.93.49,2.92,2.92,0,0,0-.51.42,4.37,4.37,0,0,0-.25,5.45,4.63,4.63,0,0,0,2.7,2,3.53,3.53,0,0,0,2.93-.49A2.92,2.92,0,0,0,1167.71,753.15Z"/><path class="cls-17" d="M1165.52,763.71a4.5,4.5,0,0,0,3.77-4.05,4.8,4.8,0,0,0-.67-3.31,3.37,3.37,0,0,0-2.46-1.57,3.42,3.42,0,0,0-.64,0,4.51,4.51,0,0,0-3.77,4.05,4.79,4.79,0,0,0,.67,3.31,3.37,3.37,0,0,0,2.46,1.57A2.74,2.74,0,0,0,1165.52,763.71Z"/><path class="cls-17" d="M1164.25,773.32a4.54,4.54,0,0,0,3.4-4.37,4.81,4.81,0,0,0-1-3.22,3.39,3.39,0,0,0-2.6-1.34,3.56,3.56,0,0,0-.65.05,4.51,4.51,0,0,0-3.39,4.37,4.76,4.76,0,0,0,1,3.22,3.42,3.42,0,0,0,2.6,1.34A3.56,3.56,0,0,0,1164.25,773.32Z"/><path class="cls-17" d="M1168.43,782a4.46,4.46,0,0,0,1.54-5.28,4.62,4.62,0,0,0-2.12-2.57,3.51,3.51,0,0,0-2.94-.23,3.59,3.59,0,0,0-.59.29,4.47,4.47,0,0,0-1.55,5.28,4.67,4.67,0,0,0,2.13,2.57,3.47,3.47,0,0,0,2.94.23A3.23,3.23,0,0,0,1168.43,782Z"/><path class="cls-17" d="M1161.09,740.54l-3.55-.69a3.81,3.81,0,0,1,1.53-2.67,3.31,3.31,0,0,1,3.32-.25,4.8,4.8,0,0,1,2.37,2.41,4.45,4.45,0,0,1-1.09,5.52,3.31,3.31,0,0,1-3.32.25,4.61,4.61,0,0,1-1.83-1.52Z"/><path class="cls-18" d="M1068.78,764.71,1058.7,779c-1.68,2.38-1.4,5.48.62,6.92s5,.67,6.72-1.71l10.07-14.29c1.68-2.38,1.41-5.48-.62-6.92S1070.46,762.32,1068.78,764.71Z"/><path class="cls-19" d="M1044.87,808.51s3,2.13,7.75-4.62a6.24,6.24,0,0,0,.52-6.34s-2.12-4,1.26-8.48c4.24-5.65,6.57-4.22,6.57-4.22"/><path class="cls-19" d="M1046.17,804.75a6.2,6.2,0,0,1,6.17-4.07s4.12,1.18,8.16-6c3.76-6.66,2.07-9.72,2.07-9.72"/><path class="cls-19" d="M1059.33,783.92a11.09,11.09,0,0,1-2.11,7.29s-2.8,3.7-5.82,2.69-4.56,2-5.38,3.08a12.21,12.21,0,0,0-1.9,6.13"/><path class="cls-19" d="M1062,783.11c-5.53-1.41-8,1.3-8,1.3a6.08,6.08,0,0,0-.58,7.59c2.72,4.6-.35,6-1.26,6.9a8.6,8.6,0,0,1-6.64,1.27"/><path class="cls-20" d="M1239.17,746.92,1253,761.13c2.32,2.37,5.7,2.51,7.56.32s1.48-5.9-.83-8.28L1245.9,739c-2.32-2.37-5.7-2.51-7.56-.32S1236.86,744.54,1239.17,746.92Z"/><path class="cls-21" d="M1282.75,782.16s2.75-3.26-3.8-10a6.26,6.26,0,0,0-6.76-1.59s-4.6,1.93-8.94-2.8c-5.45-5.92-3.55-8.48-3.55-8.48"/><path class="cls-21" d="M1278.89,780c-4.52-2.51-3.45-8-3.45-8s1.9-4.73-5.22-10.66c-6.61-5.5-10.16-4-10.16-4"/><path class="cls-21" d="M1258.44,761.14a11.48,11.48,0,0,1,7.53,3.63s3.57,3.91,2,7.35,1.49,5.76,2.51,6.9a12.66,12.66,0,0,0,6.31,3.21"/><path class="cls-21" d="M1258,757.86c-2.36,6.39.19,9.7.19,9.7a6.21,6.21,0,0,0,8.09,1.85c5.36-2.54,6.39,1.34,7.24,2.57a11.23,11.23,0,0,1,.36,8.12"/><path class="cls-22" d="M902.24,647.7l-3.37-4.27,5-.29c.11-.27.2-.53.31-.8a5,5,0,1,0-9.09-4.15,60.92,60.92,0,0,0-4.57,22.43h0a5.44,5.44,0,0,0,0,.57,5,5,0,0,0,10-1.11S899.86,655.62,902.24,647.7Z"/><path class="cls-22" d="M930.56,792.63,926.5,789l4.82-1.15.17-.84a4.92,4.92,0,0,0,0-2.92,5,5,0,0,0-9.7.42,60.94,60.94,0,0,0-.58,22.89h0a3.65,3.65,0,0,0,.13.55,5,5,0,0,0,9.6-2.82S929.6,800.85,930.56,792.63Z"/><path class="cls-22" d="M1251,702.9l3.67-4-4.92-.65c-.08-.27-.16-.54-.25-.82a5,5,0,1,1,9.37-3.47,60.64,60.64,0,0,1,2.93,22.7h0c0,.18,0,.37-.07.56a5,5,0,1,1-9.84-1.82S1252.82,711,1251,702.9Z"/><path class="cls-17" d="M1187.77,630.24a4.25,4.25,0,0,1,.73-5.26,4.47,4.47,0,0,1,2.93-1.39,3.44,3.44,0,0,1,2.73,1,3.72,3.72,0,0,1,.4.49,4.24,4.24,0,0,1-.74,5.26,4.47,4.47,0,0,1-2.93,1.39,3.43,3.43,0,0,1-2.72-1A2.68,2.68,0,0,1,1187.77,630.24Z"/><path class="cls-17" d="M1188,640.74a4.39,4.39,0,0,1-2.88-4.56,4.58,4.58,0,0,1,1.23-3,3.29,3.29,0,0,1,2.63-1.07,4.23,4.23,0,0,1,.62.11,4.4,4.4,0,0,1,2.88,4.55,4.69,4.69,0,0,1-1.23,3,3.27,3.27,0,0,1-3.25,1Z"/><path class="cls-17" d="M1187.47,650.15a4.37,4.37,0,0,1-2.47-4.78,4.6,4.6,0,0,1,1.5-2.91,3.3,3.3,0,0,1,2.73-.82,3.15,3.15,0,0,1,.6.17,4.4,4.4,0,0,1,2.47,4.78,4.58,4.58,0,0,1-1.5,2.91,3.3,3.3,0,0,1-2.73.82A3.15,3.15,0,0,1,1187.47,650.15Z"/><path class="cls-17" d="M1181.91,657.73a4.33,4.33,0,0,1-.54-5.33,4.48,4.48,0,0,1,2.5-2.07,3.37,3.37,0,0,1,2.85.3,3.22,3.22,0,0,1,.51.38,4.34,4.34,0,0,1,.53,5.33,4.51,4.51,0,0,1-2.49,2.08,3.39,3.39,0,0,1-2.86-.3A3.19,3.19,0,0,1,1181.91,657.73Z"/><path class="cls-17" d="M1196.35,619.36l3.53,0a3.74,3.74,0,0,0-1-2.83,2.59,2.59,0,0,0-.35-.31,3.29,3.29,0,0,0-2.78-.52,4.63,4.63,0,0,0-2.7,1.88,4.33,4.33,0,0,0,0,5.47,3.26,3.26,0,0,0,3.13.83,4.45,4.45,0,0,0,2-1.12Z"/><path class="cls-17" d="M877,726.4a4.25,4.25,0,0,1,.74-5.26,4.47,4.47,0,0,1,2.93-1.39,3.42,3.42,0,0,1,2.72,1,3.8,3.8,0,0,1,.41.49,4.26,4.26,0,0,1-.74,5.27,4.57,4.57,0,0,1-2.93,1.39,3.48,3.48,0,0,1-2.72-1A3.23,3.23,0,0,1,877,726.4Z"/><path class="cls-17" d="M877.17,736.9a4.41,4.41,0,0,1-2.88-4.55,4.69,4.69,0,0,1,1.23-3.05,3.27,3.27,0,0,1,2.64-1.06,2.69,2.69,0,0,1,.62.11,4.39,4.39,0,0,1,2.88,4.54,4.65,4.65,0,0,1-1.24,3.05,3.29,3.29,0,0,1-2.63,1.07A4.23,4.23,0,0,1,877.17,736.9Z"/><path class="cls-17" d="M876.67,746.31a4.4,4.4,0,0,1-2.47-4.78,4.61,4.61,0,0,1,1.51-2.91,3.28,3.28,0,0,1,2.72-.82,4.24,4.24,0,0,1,.61.17,4.41,4.41,0,0,1,2.47,4.79,4.59,4.59,0,0,1-1.51,2.9,3.17,3.17,0,0,1-3.33.65Z"/><path class="cls-17" d="M871.11,753.89a4.32,4.32,0,0,1-.53-5.32,4.51,4.51,0,0,1,2.49-2.08,3.39,3.39,0,0,1,2.86.3,3.14,3.14,0,0,1,.51.39,4.33,4.33,0,0,1,.53,5.32,4.51,4.51,0,0,1-2.49,2.08,3.39,3.39,0,0,1-2.86-.3A3.14,3.14,0,0,1,871.11,753.89Z"/><path class="cls-17" d="M885.56,715.52l3.53,0a3.74,3.74,0,0,0-1-2.83c-.11-.11-.23-.21-.35-.31a3.3,3.3,0,0,0-2.79-.52,4.58,4.58,0,0,0-2.69,1.88,4.32,4.32,0,0,0,.05,5.47,3.52,3.52,0,0,0,.35.31,3.29,3.29,0,0,0,2.78.52,4.46,4.46,0,0,0,2-1.12Z"/><path class="cls-5" d="M986.07,685.49c-4.54,7.42-11.41,14.28-20.18,15.81"/><polygon class="cls-6" points="967.07 699.25 966.5 701.19 967.5 702.95 962.9 701.61 967.07 699.25"/><path class="cls-23" d="M757.83,591.12c2.22,16.16,10.58,22.69,18.35,24"/><polygon class="cls-4" points="774.36 617.03 775.46 614.94 774.73 612.7 779.67 615.3 774.36 617.03"/><path class="cls-24" d="M823.43,706.93c11.87,16.2,25.77,17.45,35.76,13.41"/><polygon class="cls-4" points="858.53 723.35 858.42 720.65 856.39 718.86 862.79 718.57 858.53 723.35"/><path class="cls-25" d="M1200.67,637c10.15,1,15.91-7,18.28-15.19"/><polygon class="cls-4" points="1220.11 623.36 1218.78 622.32 1217.11 622.56 1219.55 619.41 1220.11 623.36"/><path class="cls-5" d="M973.88,736.7c-.65,4.59-.75,9.33-1.88,13.84a40.44,40.44,0,0,1-1.51,4.76"/><polygon class="cls-6" points="969.28 753.26 970.7 754.71 972.72 754.7 969.3 758.05 969.28 753.26"/><path class="cls-5" d="M992,653.36a20,20,0,0,1-10.82,7.95"/><polygon class="cls-6" points="982.02 659.11 981.73 661.11 982.97 662.71 978.23 662.03 982.02 659.11"/><path class="cls-5" d="M970.39,638.6c-2.91-2.66-6.68-3-10.44-2.94-2.7,0-5.83.9-8.48.06"/><polygon class="cls-6" points="953.44 634.75 952.01 635.89 951.85 637.7 949.14 634.34 953.44 634.75"/><path class="cls-5" d="M1071.07,742.36c-1.11,3.2-2.12,7.51-1.37,11.14"/><polygon class="cls-6" points="1067.54 752.76 1069.56 752.89 1071.06 751.53 1070.75 756.32 1067.54 752.76"/><path class="cls-26" d="M1221.07,477.08a37.84,37.84,0,0,1-1.87,9.92c-1.51,4.15-3.92,6.92-6.09,10a23.53,23.53,0,0,0-4.63,11.75c-.31,4.63,1.29,8.4,1.54,12.87.27,4.82-1.2,10.34-3.6,13.45-1.66,2.15-3.6,3.12-5.39,4.76-3.54,3.25-6.47,9.31-7.75,16-1,5.52-1,11.46-2.72,16.61"/><polygon class="cls-6" points="1217.85 479.12 1220.92 478.07 1223.82 479.56 1221.35 472.26 1217.85 479.12"/><circle class="cls-27" cx="978.42" cy="477.43" r="10.8"/><text class="cls-28" transform="translate(969.62 480.83) scale(1.08 1)"><tspan class="cls-29">C</tspan><tspan x="5.56" y="0">O2</tspan></text><circle class="cls-27" cx="1004.98" cy="417.05" r="10.8"/><text class="cls-28" transform="translate(996.18 420.44) scale(1.08 1)"><tspan class="cls-29">C</tspan><tspan x="5.56" y="0">O2</tspan></text><path class="cls-30" d="M1248.86,584a10.39,10.39,0,0,1,5.9-12.2c5.71-2.28,13.82.32,17.22-4.8a9.76,9.76,0,0,0,1.1-6.5c-.72-6.62-4-13.87-.43-19.48,2-3.07,5.59-4.69,8-7.4a18.84,18.84,0,0,0,3.9-8"/><polygon class="cls-6" points="1286.76 528.3 1284.32 526.49 1281.33 526.99 1285.59 521.21 1286.76 528.3"/><path class="cls-31" d="M874.47,489.25c-19.51,13.83-27.92,39.69-28.39,64.12a107.57,107.57,0,0,0,5.58,36.93c2.22,6.46,4.84,13.42,7.88,20.18"/><polygon class="cls-6" points="842.43 607.51 857.64 606.18 867.24 594.32 870.47 630.31 842.43 607.51"/><path class="cls-32" d="M1363.6,615c11.1-13.42,13.69-32.38,10.38-49.48-2.35-12.17-7.36-23.58-13.39-34.47"/><polygon class="cls-6" points="1372.17 532.44 1362.09 533.74 1356.02 541.91 1352.87 518.03 1372.17 532.44"/><path class="cls-5" d="M979.11,492.83c.35,5.26,3.95,9.87,8.13,12.81,4,2.84,8.85,3.95,13.65,4.74"/><polygon class="cls-6" points="999.2 511.98 1000.28 510.26 999.79 508.3 1003.85 510.83 999.2 511.98"/><path class="cls-5" d="M997.93,431.38c-2.46,8.17,1.16,20.23,10,22.53"/><polygon class="cls-6" points="1006.23 455.45 1007.3 453.74 1006.81 451.78 1010.88 454.3 1006.23 455.45"/><path class="cls-33" d="M1040.48,679.54c-2.22,9.07-1.76,17.63-.1,26.18"/><polygon class="cls-34" points="1038.35 704.65 1040.33 705.09 1042.02 703.98 1040.99 708.65 1038.35 704.65"/><path class="cls-35" d="M1240.64,700.08c-9.78-1.72-13.39-7.53-13.8-12.76"/><polygon class="cls-4" points="1228.1 688.23 1226.87 687.73 1225.66 688.27 1226.84 685.35 1228.1 688.23"/><path class="cls-25" d="M1267,746.16c9.8,2.85,16.93-4,20.73-11.61"/><polygon class="cls-4" points="1288.54 736.26 1287.43 735 1285.74 734.94 1288.71 732.28 1288.54 736.26"/><path class="cls-36" d="M923,644.62a20.06,20.06,0,0,1-11.73,6.54"/><polygon class="cls-4" points="912.45 649.08 911.91 651.03 912.94 652.77 908.32 651.51 912.45 649.08"/><path class="cls-36" d="M952,782a20.07,20.07,0,0,1-11.72,6.54"/><polygon class="cls-4" points="941.41 786.45 940.87 788.4 941.9 790.14 937.28 788.88 941.41 786.45"/></g><path class="cls-37" d="M773.14,512.13a3.6,3.6,0,0,0-.66-.74,3.74,3.74,0,0,0-2.85-.8,7.12,7.12,0,0,0,.25-4.26c-.72-2.86-3-4.59-5.77-5.37a8.72,8.72,0,0,0-6.84.91A2.44,2.44,0,0,0,756,500a2.53,2.53,0,0,0-1.43-.2,1.8,1.8,0,0,0-.93.36,6.46,6.46,0,0,0-6-4.92,7.8,7.8,0,0,0-7.9,5.29,8.14,8.14,0,0,0-.32,2.36,3.57,3.57,0,0,0-4.77,1.87,4.47,4.47,0,0,0-1.48-.74,5.63,5.63,0,0,0-7,6.77,2.72,2.72,0,0,0-2.18,1.65c-2,5.07,5.24,5.43,8.35,5.94a138.33,138.33,0,0,0,14.91,1.6c3,.16,6,.21,9,.17a46.59,46.59,0,0,0,9.51-.9,17.63,17.63,0,0,0,6.23-2.23,3.75,3.75,0,0,0,1.82-2.62A3.87,3.87,0,0,0,773.14,512.13Z"/><path class="cls-38" d="M771.82,574.89c-1.68-.11-3.45-.51-4.71-.52a27.6,27.6,0,0,0-4,.64c-3.13.51-6.25,1.18-9.42,1.39A73.16,73.16,0,0,1,736,575.12a38.46,38.46,0,0,0-6.6-.76c-2.12,0-5.93,1.65-7.42-.22a3.11,3.11,0,0,1-.38-2.83c.32-1.06,1.1-1.82,1.37-2.9a25.33,25.33,0,0,0,.52-4,74.46,74.46,0,0,0-.22-9.68,97.42,97.42,0,0,1,.67-17.41,64.87,64.87,0,0,0,.87-9.33,14,14,0,0,0-.7-4.59c-.35-.91-1.12-2.12.21-2.77a5.28,5.28,0,0,1,1.73,0h46.49c.62,0,1.56,10.92,1.66,12a146.66,146.66,0,0,1-.56,28.34,10,10,0,0,0,.85,5.87c.84,1.53,2.85,5.86,1.17,7.26A5.38,5.38,0,0,1,771.82,574.89Z"/><path class="cls-39" d="M775.64,574.09c1.68-1.4-.33-5.73-1.17-7.26a10,10,0,0,1-.85-5.87c.14-1.37.27-2.76.39-4.14-.15.76-.3,1.52-.49,2.27-.52,2-2.83,3.21-3.2,5.21-.46,2.5,5.6,5.93,2.93,8.15-1.42,1.18-3.93-.8-5.45-1.2a4.73,4.73,0,0,0-4.94,1.09c-1.7,1.48-4.09,1.81-6.33,2.08a73.63,73.63,0,0,1-12.22.77,27.18,27.18,0,0,1-8.32-1.62c-2.1-.79-4.52-2.59-7-2-1.51.36-4.33,3.39-5.27.57s4.83-4.92,4.33-8.36-4.57-4.82-4.76-8.28a64.8,64.8,0,0,1,.18,8.92,25.33,25.33,0,0,1-.52,4c-.27,1.08-1.05,1.84-1.37,2.9a3.46,3.46,0,0,0-.16.84,3.17,3.17,0,0,0,.35,1.72l.08.12v0a1.13,1.13,0,0,0,.1.13c1.49,1.87,5.3.21,7.42.22.7,0,1.39,0,2.08.1s1.1.12,1.65.19l1.64.25,1.23.22,1.1.19.55.1,1.65.26c1.28.19,2.57.35,3.86.48l1.11.11c.56,0,1.11.09,1.67.12s1.11.07,1.66.09l1.11,0,1.12,0h1.67c.74,0,1.48,0,2.22-.1,1-.07,2-.18,3-.31l1.77-.27,1.76-.3,1.17-.21.59-.1,1.17-.2a4,4,0,0,0,.48-.09l1.77-.35a4.54,4.54,0,0,1,.51-.09,7.59,7.59,0,0,1,1.23-.11,14.27,14.27,0,0,1,1.6.14l1.21.17.32,0,.63.08.32,0,.63,0A5.38,5.38,0,0,0,775.64,574.09Z"/><path class="cls-39" d="M723.89,520.91h0a.86.86,0,0,0-.13.14l0,.05,0,0v0l0,.06s0,.09,0,.13v0a1.09,1.09,0,0,0,0,.26h0v.09h0v.1a2.62,2.62,0,0,0,.1.45v0l.09.24c.11.3.25.59.35.86l.09.27a8.5,8.5,0,0,1,.29,1.07.36.36,0,0,1,0,.11l0,.06a18.76,18.76,0,0,1,.28,3.08,64.87,64.87,0,0,1-.87,9.33c0,.36-.09.73-.14,1.09a8.14,8.14,0,0,1,2.24-1.79c4.41-2.43,10.11-.11,14.72.61a60.13,60.13,0,0,0,19.39-.58,61.86,61.86,0,0,1,7-1c2-.11,3.75-.64,5.56.49a5.29,5.29,0,0,1,1.85,2c-.08-1.86-.2-3.72-.37-5.57-.09-1-.86-9.88-1.47-11.67a13.48,13.48,0,0,0-3.36-.31H726a5.28,5.28,0,0,0-1.73,0,2,2,0,0,0-.29.17Z"/><path class="cls-40" d="M750,571.94c3,.1,6.53-.4,9.07-2.13.16-.11.34-.26.31-.45a.37.37,0,0,0-.38-.27,1.14,1.14,0,0,0-.47.16,15.5,15.5,0,0,1-3.65,1.15,28.52,28.52,0,0,1-6.31.58,19.77,19.77,0,0,1-2.18-.12,15,15,0,0,1-2-.46c-.39-.09-1.13-.43-1.52-.33s-.12.4.13.55a6.27,6.27,0,0,0,1.27.48A20.62,20.62,0,0,0,750,571.94Z"/><path class="cls-38" d="M775.41,531.15a6.25,6.25,0,0,1-1.8,1c-4.11,1.58-8.78,2-13.14,2.41a167.61,167.61,0,0,1-29.71-.6c-2.14-.3-5.85-.75-7.79-1.78-2.13-1.13-1.52-2.5-.83-4.24a8.62,8.62,0,0,0,0-5c-.68-3.16-1.24-7.6,2.88-8.58a13,13,0,0,1,5.73.44,92.26,92.26,0,0,0,37.52.36c2.54-.51,5.77-1.58,7.62.95,1.19,1.63.7,3.75.39,5.57-.16,1-.58,1.78-.76,2.73a6.11,6.11,0,0,0,0,2.82,6.84,6.84,0,0,1,.74,2.06A2.31,2.31,0,0,1,775.41,531.15Z"/><path class="cls-40" d="M771.39,516.33a.5.5,0,0,0-.27,0l-1.25.28c-.53.1-1,.23-1.58.33a92.09,92.09,0,0,1-37.52-.36l-1.51-.32h0l-.55-.11-.52-.1a.76.76,0,0,0-.3,0,.19.19,0,0,0-.14.05.12.12,0,0,0,0,.13.41.41,0,0,0,.16.16l.26.13a7.87,7.87,0,0,0,1.08.39c.54.15,1.08.27,1.63.4l.52.12.46.1.9.18q1.82.34,3.63.63c1.22.19,2.43.35,3.65.49s2.45.25,3.67.34,2.46.15,3.69.19,2.45,0,3.68,0,2.46,0,3.69-.1,2.45-.14,3.67-.25,2.45-.24,3.67-.39,2.43-.34,3.64-.55c.85-.14,1.69-.29,2.52-.46a12.89,12.89,0,0,0,3-1C771.36,516.62,771.66,516.4,771.39,516.33Z"/><path class="cls-39" d="M739.26,528.61a.21.21,0,0,1,.16-.33.82.82,0,0,1,.27,0c.39,0,.79,0,1.19,0l1.27,0c1.48,0,3,.12,4.47.09.88,0,1.77,0,2.66,0,2.41-.05,4.81-.14,7.21-.29,1.25-.08,2.51-.15,3.74-.33l1.31-.16a.54.54,0,0,1,.22,0,.18.18,0,0,1,.11.28.72.72,0,0,1-.25.21,2.69,2.69,0,0,1-.6.27,27.07,27.07,0,0,1-5.88.83c-1.5.11-3,.19-4.52.22-1.26,0-2.53,0-3.79,0s-2.54-.1-3.81-.19a21.23,21.23,0,0,1-2.76-.34,6.21,6.21,0,0,1-.62-.14C739.51,528.77,739.33,528.74,739.26,528.61Z"/><path class="cls-39" d="M727.77,526.89l0,0a6.29,6.29,0,0,0-1.25-.54,12.72,12.72,0,0,1-2.2-1,4.6,4.6,0,0,1-1.83-1.64c-.08-.14-.15-.29-.22-.43a8.22,8.22,0,0,1-.08,4.69c-.16.4-.31.78-.43,1.14a3,3,0,0,1,.9-1.15,3,3,0,0,1,2-.26,8.63,8.63,0,0,0,3,0,1.11,1.11,0,0,0,.31-.15.34.34,0,0,0,.12-.31C728.05,527.05,727.9,527,727.77,526.89Z"/><path class="cls-39" d="M776.3,521.72c0-.12.05-.24.07-.36a7.37,7.37,0,0,1-4,3.92c-.44.14-2.09.46-1.9,1.2v0a.54.54,0,0,0,.46.34,1.8,1.8,0,0,0,.61-.05,5.83,5.83,0,0,1,3.13.05,3.1,3.1,0,0,1,1.17,1c-.08-.18-.16-.35-.23-.55a6.11,6.11,0,0,1,0-2.82C775.72,523.5,776.14,522.68,776.3,521.72Z"/><text class="cls-41" transform="translate(724.01 555.41)"><tspan class="cls-42">C</tspan><tspan x="7.42" y="0">omp</tspan><tspan class="cls-43" x="32.98" y="0">o</tspan><tspan class="cls-44" x="40.27" y="0">s</tspan><tspan x="45.05" y="0">t</tspan></text><path class="cls-37" d="M753.67,577a1.24,1.24,0,0,0-.33,0,1.52,1.52,0,0,0-.72.51c-.11.14-.3.35-.25.54a.4.4,0,0,0,.21.25,1.17,1.17,0,0,0,.61.09,2.17,2.17,0,0,0,.67-.09,1.18,1.18,0,0,0,.64-.43.51.51,0,0,0-.17-.65A1.35,1.35,0,0,0,753.67,577Z"/><path class="cls-37" d="M774.77,577.33a.85.85,0,0,0-.32,0,1.56,1.56,0,0,0-.72.52c-.12.13-.31.34-.26.54a.51.51,0,0,0,.21.25,1.28,1.28,0,0,0,.61.09,3.09,3.09,0,0,0,.68-.09,1.14,1.14,0,0,0,.63-.44.51.51,0,0,0-.16-.64A1.39,1.39,0,0,0,774.77,577.33Z"/><path class="cls-37" d="M772.2,576.34a1.4,1.4,0,0,1-.29,0,1.24,1.24,0,0,0-.47,0,.4.4,0,0,0-.34.38c0,.22.2.29.4.31a1.71,1.71,0,0,0,.55,0c.17-.05.45-.13.5-.33a.2.2,0,0,0-.16-.27A.41.41,0,0,0,772.2,576.34Z"/><path class="cls-37" d="M781,574.5a.48.48,0,0,0-.63.15.27.27,0,0,0,.24.39,1.06,1.06,0,0,0,.5,0l0,0C781.41,574.85,781.19,574.61,781,574.5Z"/><path class="cls-37" d="M784.67,577.89a.49.49,0,0,0-.64.16.28.28,0,0,0,.25.39,1.2,1.2,0,0,0,.5,0h0C785.09,578.24,784.86,578,784.67,577.89Z"/><path class="cls-37" d="M716.33,573.5c-.22,0-.49,0-.52.23s.62.34.76.14S716.54,573.54,716.33,573.5Z"/><path class="cls-37" d="M756.38,577.84a.79.79,0,0,0-.35-.13.49.49,0,0,0-.4.14c-.1.09-.22.19-.2.33a.42.42,0,0,0,.25.29,1.12,1.12,0,0,0,.51.08.62.62,0,0,0,.45-.17.29.29,0,0,0,0-.26.49.49,0,0,0-.23-.24Z"/><path class="cls-37" d="M784.12,574.22a1,1,0,0,0,.48-.08c.14-.07.28-.22.24-.37a.41.41,0,0,0-.2-.21,1.68,1.68,0,0,0-1.35-.08.29.29,0,0,0,0,.48,1.92,1.92,0,0,0,.66.23A.63.63,0,0,0,784.12,574.22Z"/><path class="cls-37" d="M746.32,577.27a.27.27,0,0,0-.08-.07,1,1,0,0,0-.62-.13,2.25,2.25,0,0,0-.62.2l-.48.23c-.11,0-.27.1-.33.22a.29.29,0,0,0,.12.33.94.94,0,0,0,.36.11,6.94,6.94,0,0,0,.91.05c.36,0,.91,0,.95-.46A.6.6,0,0,0,746.32,577.27Z"/><path class="cls-37" d="M778.93,576.29a.27.27,0,0,0-.08-.07,1,1,0,0,0-.62-.13,2.25,2.25,0,0,0-.62.2l-.48.23c-.11.05-.27.09-.33.21a.31.31,0,0,0,.12.34.75.75,0,0,0,.36.1,7,7,0,0,0,.91.06c.36,0,.91,0,.95-.46A.6.6,0,0,0,778.93,576.29Z"/><path class="cls-37" d="M782.58,578.41l-.1,0a.94.94,0,0,0-.64,0,2.06,2.06,0,0,0-.55.33l-.42.33c-.09.08-.24.15-.27.29a.27.27,0,0,0,.19.29.81.81,0,0,0,.38,0,6.61,6.61,0,0,0,.89-.15c.35-.09.89-.18.82-.66A.61.61,0,0,0,782.58,578.41Z"/><path class="cls-37" d="M737.59,577.71a2.79,2.79,0,0,1-.44-.29c-.09-.09-.16-.21-.28-.25a.31.31,0,0,0-.32.11.48.48,0,0,0-.07.35.87.87,0,0,0,.56.76.67.67,0,0,0,.64-.09C737.91,578.11,737.81,577.86,737.59,577.71Z"/><path class="cls-37" d="M720.79,573.33a.31.31,0,0,0,0-.44.89.89,0,0,0-.41-.18l-.4-.05a2,2,0,0,0-.54,0c-.23.05-.51.24-.51.5s.34.35.53.36a1.84,1.84,0,0,0,.52,0,2.14,2.14,0,0,1,.43-.07A.62.62,0,0,0,720.79,573.33Z"/><path class="cls-37" d="M721.27,576.2c-.39,0-1,.28-1.07.69a.29.29,0,0,0,.15.32,1,1,0,0,0,.29.09,3.88,3.88,0,0,0,.48,0h.22a.78.78,0,0,0,.46-.14.5.5,0,0,0,.14-.48A.67.67,0,0,0,721.27,576.2Z"/><path class="cls-37" d="M762.62,577a1.2,1.2,0,0,0-1.07.68.3.3,0,0,0,.15.32.75.75,0,0,0,.3.09,2.42,2.42,0,0,0,.47,0h.23a.71.71,0,0,0,.45-.14.48.48,0,0,0,.14-.48A.65.65,0,0,0,762.62,577Z"/><path class="cls-37" d="M729.56,576.33a.62.62,0,0,0-.18,0,1.34,1.34,0,0,0-.48.11.92.92,0,0,0-.3.18.29.29,0,0,0-.06.28.34.34,0,0,0,.28.19,1.4,1.4,0,0,0,.5,0,.62.62,0,0,0,.42-.11.38.38,0,0,0,.1-.46A.5.5,0,0,0,729.56,576.33Z"/><path class="cls-37" d="M735.21,576.88a1.32,1.32,0,0,0-.26-.18,4.14,4.14,0,0,0-2.38-.59,2.44,2.44,0,0,0-1.81.85.87.87,0,0,0-.18.77c.12.35.57.48.89.54a4.35,4.35,0,0,0,1.44,0,13.24,13.24,0,0,1,1.42-.3,1.8,1.8,0,0,0,.8-.09.65.65,0,0,0,.3-.66A.64.64,0,0,0,735.21,576.88Z"/><path class="cls-37" d="M732.76,576.53a1.66,1.66,0,0,0-1.7.6.25.25,0,0,0,.05.35.25.25,0,0,0,.15,0,.28.28,0,0,0,.2-.1,1.14,1.14,0,0,1,1.18-.42.25.25,0,0,0,.3-.18A.24.24,0,0,0,732.76,576.53Z"/><path class="cls-37" d="M719.62,574.6c-.24-.06-.5-.1-.73-.15a2.32,2.32,0,0,0-.83-.07,1.36,1.36,0,0,0-.94.56.92.92,0,0,0,0,1,1.33,1.33,0,0,0,1.24.34,4.74,4.74,0,0,0,.91-.26c.36-.14,1-.34,1-.82S719.91,574.69,719.62,574.6Z"/><path class="cls-37" d="M718.05,574.72a.83.83,0,0,0-.69.74.26.26,0,0,0,.23.27h0a.25.25,0,0,0,.25-.23.33.33,0,0,1,.27-.29.25.25,0,0,0,.21-.28A.25.25,0,0,0,718.05,574.72Z"/><path class="cls-37" d="M768.58,576h0a2.38,2.38,0,0,0-1.78,0,4.38,4.38,0,0,0-1.37,1.17c-.22.25-.44.61-.26.94a.74.74,0,0,0,.59.35,2.91,2.91,0,0,0,.72,0,4.61,4.61,0,0,1,1.17.12,3.24,3.24,0,0,0,1.28-.1,1.35,1.35,0,0,0,.84-.55,1.12,1.12,0,0,0-.12-1.21A2.08,2.08,0,0,0,768.58,576Z"/><path class="cls-37" d="M768.61,576.32a2.62,2.62,0,0,0-1-.13.25.25,0,0,0,0,.5h0a2.19,2.19,0,0,1,.82.1.87.87,0,0,1,.52.45.26.26,0,0,0,.23.15.16.16,0,0,0,.1,0,.24.24,0,0,0,.13-.33A1.41,1.41,0,0,0,768.61,576.32Z"/><path class="cls-37" d="M725.14,577.24h0a2.43,2.43,0,0,0-1.78,0,4.42,4.42,0,0,0-1.38,1.17.86.86,0,0,0-.25.95.75.75,0,0,0,.59.35,3.5,3.5,0,0,0,.72-.06,4.54,4.54,0,0,1,1.16.13,3.31,3.31,0,0,0,1.29-.1,1.38,1.38,0,0,0,.83-.55,1.13,1.13,0,0,0-.11-1.22A2.22,2.22,0,0,0,725.14,577.24Z"/><path class="cls-37" d="M725.17,577.56a2.81,2.81,0,0,0-1-.14.25.25,0,0,0,0,.5h0a2.64,2.64,0,0,1,.81.1.91.91,0,0,1,.53.46.25.25,0,0,0,.23.15l.1,0a.26.26,0,0,0,.13-.33A1.4,1.4,0,0,0,725.17,577.56Z"/><path class="cls-37" d="M750.71,576.65a2.12,2.12,0,0,0-1.37.18,5,5,0,0,0-.54.35,2.42,2.42,0,0,1-.72.4c-.2,0-.46.11-.55.32s.1.54.36.67a3.22,3.22,0,0,0,1.31.2,3.81,3.81,0,0,0,1.38-.23,1.54,1.54,0,0,0,.83-.61.91.91,0,0,0,0-.82A1.1,1.1,0,0,0,750.71,576.65Z"/><path class="cls-37" d="M750.93,577a1.9,1.9,0,0,0-1.86.33.25.25,0,0,0,0,.35.25.25,0,0,0,.19.09.27.27,0,0,0,.17-.06,1.39,1.39,0,0,1,1.36-.24.26.26,0,0,0,.32-.15A.25.25,0,0,0,750.93,577Z"/><path class="cls-37" d="M778.93,573.22a1.34,1.34,0,0,0-.36-.22,1.93,1.93,0,0,0-1.56,0,.81.81,0,0,0-.34,1,1.29,1.29,0,0,0,1,.54c.41,0,1.73,0,1.65-.65A1,1,0,0,0,778.93,573.22Z"/><path class="cls-37" d="M778.91,573.55a1,1,0,0,0-.65-.46,2.22,2.22,0,0,0-.67,0,.25.25,0,0,0-.24.26.24.24,0,0,0,.26.24,1.94,1.94,0,0,1,.54,0,.49.49,0,0,1,.33.21.25.25,0,0,0,.22.13l.12,0A.25.25,0,0,0,778.91,573.55Z"/><path class="cls-37" d="M798.8,575.79a.58.58,0,0,0-.23,0,1.22,1.22,0,0,0-.53.37c-.08.1-.22.25-.18.39a.3.3,0,0,0,.15.18,1,1,0,0,0,.44.07,2,2,0,0,0,.49-.07.81.81,0,0,0,.46-.31.38.38,0,0,0-.12-.47A.94.94,0,0,0,798.8,575.79Z"/><path class="cls-37" d="M809.42,580.92a.74.74,0,0,1-.21,0,.79.79,0,0,0-.34,0,.28.28,0,0,0-.25.27c0,.16.14.22.29.23a1.09,1.09,0,0,0,.4,0c.12,0,.33-.09.36-.24a.15.15,0,0,0-.12-.19A.3.3,0,0,0,809.42,580.92Z"/><path class="cls-37" d="M781.82,576.17c-.16,0-.35,0-.37.17s.44.24.55.1S782,576.2,781.82,576.17Z"/><path class="cls-37" d="M797.32,574.27a.59.59,0,0,0-.26-.1.4.4,0,0,0-.29.1c-.06.07-.15.14-.13.24a.27.27,0,0,0,.18.21.74.74,0,0,0,.36.06c.1,0,.26,0,.32-.12a.22.22,0,0,0,0-.19.46.46,0,0,0-.16-.18Z"/><path class="cls-37" d="M810.56,579.51a.82.82,0,0,0,.34-.06c.1-.05.2-.16.17-.27s-.07-.11-.13-.15a1.2,1.2,0,0,0-1,0,.21.21,0,0,0,0,.34,1.62,1.62,0,0,0,.48.17Z"/><path class="cls-37" d="M818.35,580.55a.76.76,0,0,0,.34-.06c.11,0,.21-.16.18-.27a.29.29,0,0,0-.14-.15,1.24,1.24,0,0,0-1-.06.22.22,0,0,0,0,.35,1.58,1.58,0,0,0,.49.17Z"/><path class="cls-37" d="M795.38,575.33l-.06-.05a.71.71,0,0,0-.45-.09,1.39,1.39,0,0,0-.45.14l-.34.17c-.09,0-.2.06-.24.15a.2.2,0,0,0,.08.24.5.5,0,0,0,.27.08,4.63,4.63,0,0,0,.65,0c.26,0,.65,0,.68-.33A.46.46,0,0,0,795.38,575.33Z"/><path class="cls-37" d="M813.75,579.15l-.06,0a.69.69,0,0,0-.45-.09,1.41,1.41,0,0,0-.44.14l-.35.17c-.08,0-.2.06-.24.15a.2.2,0,0,0,.09.24.47.47,0,0,0,.26.08,4.87,4.87,0,0,0,.66,0c.25,0,.65,0,.68-.33A.44.44,0,0,0,813.75,579.15Z"/><path class="cls-37" d="M801.56,577.75a.16.16,0,0,0,0-.07.65.65,0,0,0-.39-.23,1.23,1.23,0,0,0-.47,0l-.38,0c-.09,0-.21,0-.27.07a.18.18,0,0,0,0,.25.5.5,0,0,0,.22.16,4.66,4.66,0,0,0,.61.26c.24.08.61.23.75-.1A.4.4,0,0,0,801.56,577.75Z"/><path class="cls-37" d="M799.45,579.3a3.53,3.53,0,0,1-.32-.21c-.06-.07-.11-.16-.19-.18a.2.2,0,0,0-.23.08.32.32,0,0,0-.06.25.62.62,0,0,0,.41.55.45.45,0,0,0,.46-.07C799.69,579.59,799.61,579.4,799.45,579.3Z"/><path class="cls-37" d="M800.28,574.28a2.2,2.2,0,0,1-.32-.21c-.06-.06-.11-.15-.19-.18a.2.2,0,0,0-.23.08.35.35,0,0,0-.06.26.64.64,0,0,0,.41.55.51.51,0,0,0,.46-.07C800.52,574.57,800.44,574.39,800.28,574.28Z"/><path class="cls-37" d="M791.33,577a.22.22,0,0,0,0-.32.62.62,0,0,0-.29-.12l-.29-.05a1.7,1.7,0,0,0-.39,0c-.17,0-.37.17-.37.36s.25.25.38.26a1.2,1.2,0,0,0,.38,0,1.1,1.1,0,0,1,.31,0A.45.45,0,0,0,791.33,577Z"/><path class="cls-37" d="M788,576.45a.87.87,0,0,0-.78.5.22.22,0,0,0,.11.23.55.55,0,0,0,.22.06,1.87,1.87,0,0,0,.34,0H788a.54.54,0,0,0,.33-.1.34.34,0,0,0,.1-.35A.48.48,0,0,0,788,576.45Z"/><path class="cls-37" d="M788.11,573.86a.9.9,0,0,0-.78.5.24.24,0,0,0,.11.23.57.57,0,0,0,.22.07,1.87,1.87,0,0,0,.34,0h.16a.48.48,0,0,0,.33-.1.33.33,0,0,0,.1-.34A.49.49,0,0,0,788.11,573.86Z"/><path class="cls-37" d="M793.27,579.2a.88.88,0,0,0-.78.5.24.24,0,0,0,.11.23.55.55,0,0,0,.22.06,1.87,1.87,0,0,0,.34,0h.16a.52.52,0,0,0,.33-.1.37.37,0,0,0,.11-.35A.49.49,0,0,0,793.27,579.2Z"/><path class="cls-37" d="M802,579.63a.88.88,0,0,0-.78.5.24.24,0,0,0,.11.23.81.81,0,0,0,.22.07l.34,0H802a.48.48,0,0,0,.33-.1.34.34,0,0,0,.1-.35A.47.47,0,0,0,802,579.63Z"/><path class="cls-37" d="M793.24,577.39a.32.32,0,0,0-.13,0,.72.72,0,0,0-.35.08.46.46,0,0,0-.21.13.19.19,0,0,0,0,.2.27.27,0,0,0,.2.14.88.88,0,0,0,.36,0,.55.55,0,0,0,.31-.07.29.29,0,0,0,.07-.34A.33.33,0,0,0,793.24,577.39Z"/><path class="cls-37" d="M796.52,579.82l-.11-.06a.87.87,0,0,0-.36,0,.64.64,0,0,0-.24,0,.18.18,0,0,0-.11.18.25.25,0,0,0,.14.19,1,1,0,0,0,.33.15.59.59,0,0,0,.32,0,.3.3,0,0,0,.17-.3A.3.3,0,0,0,796.52,579.82Z"/><path class="cls-37" d="M797.32,577.78l-.19-.13a3,3,0,0,0-1.72-.42,1.77,1.77,0,0,0-1.31.61.67.67,0,0,0-.13.56c.09.25.41.34.65.39a3,3,0,0,0,1,0c.35-.06.68-.19,1-.22a1.14,1.14,0,0,0,.58-.07.44.44,0,0,0,.22-.47A.53.53,0,0,0,797.32,577.78Z"/><path class="cls-37" d="M795.55,577.53a1.19,1.19,0,0,0-1.23.43.18.18,0,0,0,.14.29.18.18,0,0,0,.15-.07.82.82,0,0,1,.85-.3.19.19,0,0,0,.22-.13A.17.17,0,0,0,795.55,577.53Z"/><path class="cls-37" d="M785.33,575.4c-.18,0-.36-.07-.53-.11a1.67,1.67,0,0,0-.59,0,1,1,0,0,0-.68.4.66.66,0,0,0,0,.76,1,1,0,0,0,.89.25,3.1,3.1,0,0,0,.66-.19c.26-.1.73-.25.73-.6S785.54,575.46,785.33,575.4Z"/><path class="cls-37" d="M784.2,575.48a.6.6,0,0,0-.5.54.19.19,0,0,0,.17.2h0a.19.19,0,0,0,.18-.17.24.24,0,0,1,.19-.21.17.17,0,0,0,.15-.2A.18.18,0,0,0,784.2,575.48Z"/><path class="cls-37" d="M806.27,579h0a1.72,1.72,0,0,0-1.28,0,3.23,3.23,0,0,0-1,.84.62.62,0,0,0-.18.69.55.55,0,0,0,.43.25,2.19,2.19,0,0,0,.51,0,3.46,3.46,0,0,1,.85.09,2.43,2.43,0,0,0,.93-.07,1,1,0,0,0,.6-.4.81.81,0,0,0-.09-.88A1.56,1.56,0,0,0,806.27,579Z"/><path class="cls-37" d="M806.29,579.18a1.69,1.69,0,0,0-.71-.1.18.18,0,0,0,0,.36h0a1.79,1.79,0,0,1,.59.07.66.66,0,0,1,.38.33.18.18,0,0,0,.17.11l.07,0a.17.17,0,0,0,.09-.23A1,1,0,0,0,806.29,579.18Z"/><path class="cls-37" d="M789.4,578.2h0a1.74,1.74,0,0,0-1.29,0,3.22,3.22,0,0,0-1,.85c-.16.18-.32.44-.19.68a.55.55,0,0,0,.43.25,1.86,1.86,0,0,0,.52,0,4,4,0,0,1,.84.09,2.25,2.25,0,0,0,.93-.07,1,1,0,0,0,.6-.39.85.85,0,0,0-.08-.89A1.64,1.64,0,0,0,789.4,578.2Z"/><path class="cls-37" d="M789.42,578.43a2.09,2.09,0,0,0-.71-.1.18.18,0,0,0,0,.36h0a1.58,1.58,0,0,1,.59.08.62.62,0,0,1,.38.32.18.18,0,0,0,.17.11h.07A.18.18,0,0,0,790,579,1,1,0,0,0,789.42,578.43Z"/><path class="cls-37" d="M807,575.79a1.54,1.54,0,0,0-1,.13,3.11,3.11,0,0,0-.38.25,1.65,1.65,0,0,1-.52.28c-.15,0-.34.08-.41.24s.08.39.26.48a2.42,2.42,0,0,0,1,.15,2.83,2.83,0,0,0,1-.17,1.1,1.1,0,0,0,.6-.44.62.62,0,0,0,0-.59A.73.73,0,0,0,807,575.79Z"/><path class="cls-37" d="M807.18,576a1.36,1.36,0,0,0-1.34.24.19.19,0,0,0,0,.25.21.21,0,0,0,.14.07.16.16,0,0,0,.11-.05,1,1,0,0,1,1-.17.18.18,0,0,0,.23-.11A.18.18,0,0,0,807.18,576Z"/><path class="cls-37" d="M792.32,574.78a1,1,0,0,0-.26-.16,1.43,1.43,0,0,0-1.13,0,.58.58,0,0,0-.25.69.94.94,0,0,0,.72.39c.3,0,1.25,0,1.19-.47A.71.71,0,0,0,792.32,574.78Z"/><path class="cls-37" d="M792.31,575a.72.72,0,0,0-.47-.33,1.66,1.66,0,0,0-.49,0,.18.18,0,1,0,0,.36,1.26,1.26,0,0,1,.39,0,.35.35,0,0,1,.24.15.18.18,0,0,0,.16.1l.09,0A.19.19,0,0,0,792.31,575Z"/><path class="cls-37" d="M803.41,575a.58.58,0,0,0-.23,0,1.14,1.14,0,0,0-.52.37c-.09.1-.23.25-.19.39a.3.3,0,0,0,.15.18,1,1,0,0,0,.44.07,2,2,0,0,0,.49-.07.86.86,0,0,0,.46-.31.38.38,0,0,0-.12-.47A.94.94,0,0,0,803.41,575Z"/><path class="cls-37" d="M809.81,577.66a.23.23,0,0,0,0-.32.62.62,0,0,0-.29-.12,1.54,1.54,0,0,0-.3,0,1.6,1.6,0,0,0-.38,0c-.17,0-.37.17-.37.36s.25.25.38.27a1.24,1.24,0,0,0,.38-.05,1.55,1.55,0,0,1,.31,0A.41.41,0,0,0,809.81,577.66Z"/><path class="cls-37" d="M812.23,575.55a.87.87,0,0,0-.77.5.21.21,0,0,0,.11.23.65.65,0,0,0,.21.07l.34,0h.17a.46.46,0,0,0,.32-.1.36.36,0,0,0,.11-.34A.49.49,0,0,0,812.23,575.55Z"/><path class="cls-37" d="M822.86,581.71a.83.83,0,0,0-.18-.13,3,3,0,0,0-1.73-.43,1.71,1.71,0,0,0-1.3.62.58.58,0,0,0-.13.55c.09.25.41.34.64.39a3,3,0,0,0,1,0c.34-.05.67-.19,1-.22a1.3,1.3,0,0,0,.59-.06A.47.47,0,0,0,823,582,.41.41,0,0,0,822.86,581.71Z"/><path class="cls-37" d="M821.09,581.45a1.21,1.21,0,0,0-1.23.43.18.18,0,0,0,0,.25.15.15,0,0,0,.11,0,.17.17,0,0,0,.14-.07.83.83,0,0,1,.86-.3.2.2,0,0,0,.22-.13A.18.18,0,0,0,821.09,581.45Z"/><path class="cls-37" d="M816.29,576.08h0a1.72,1.72,0,0,0-1.28,0,3.12,3.12,0,0,0-1,.84.61.61,0,0,0-.18.68.52.52,0,0,0,.43.26,2.92,2.92,0,0,0,.51,0,3,3,0,0,1,.85.09,2.38,2.38,0,0,0,.92-.07,1,1,0,0,0,.61-.4.81.81,0,0,0-.09-.88A1.58,1.58,0,0,0,816.29,576.08Z"/><path class="cls-37" d="M816.31,576.31a1.9,1.9,0,0,0-.72-.09.17.17,0,0,0-.17.18.18.18,0,0,0,.18.18h0a1.56,1.56,0,0,1,.59.07.66.66,0,0,1,.38.33.2.2,0,0,0,.16.11l.08,0a.18.18,0,0,0,.09-.24A1,1,0,0,0,816.31,576.31Z"/><path class="cls-37" d="M816,580.66a1.54,1.54,0,0,0-1,.13c-.14.07-.25.17-.38.25a1.91,1.91,0,0,1-.52.29c-.15,0-.34.08-.41.23s.08.39.26.48a2.42,2.42,0,0,0,1,.15,2.81,2.81,0,0,0,1-.16,1.12,1.12,0,0,0,.6-.45.62.62,0,0,0,0-.59A.77.77,0,0,0,816,580.66Z"/><path class="cls-37" d="M816.13,580.9a1.39,1.39,0,0,0-1.34.24.19.19,0,0,0,0,.26.2.2,0,0,0,.14.06.15.15,0,0,0,.11,0,1,1,0,0,1,1-.18.17.17,0,0,0,.23-.11A.18.18,0,0,0,816.13,580.9Z"/></g><path class="cls-45" d="M506.86,327.37a34.3,34.3,0,1,1,34.29-34.3A34.3,34.3,0,0,1,506.86,327.37Z"/><polygon class="cls-45" points="502.01 252.84 507.87 242.7 513.73 252.84 502.01 252.84"/><polygon class="cls-45" points="479.29 263.37 478.07 251.72 488.77 256.49 479.29 263.37"/><polygon class="cls-45" points="467.1 285.25 459.27 276.54 470.72 274.11 467.1 285.25"/><polygon class="cls-45" points="470.1 310.11 458.64 307.68 466.48 298.97 470.1 310.11"/><polygon class="cls-45" points="487.13 328.46 476.43 333.23 477.66 321.58 487.13 328.46"/><polygon class="cls-45" points="511.7 333.3 505.85 343.44 499.99 333.3 511.7 333.3"/><polygon class="cls-45" points="534.42 322.77 535.65 334.42 524.95 329.65 534.42 322.77"/><polygon class="cls-45" points="546.62 300.89 554.45 309.6 543 312.03 546.62 300.89"/><polygon class="cls-45" points="543.62 276.03 555.08 278.47 547.24 287.17 543.62 276.03"/><polygon class="cls-45" points="526.58 257.68 537.29 252.91 536.06 264.56 526.58 257.68"/><path class="cls-46" d="M553.16,330.26a26.83,26.83,0,0,0,14.19,16.5c10.84,5,25.66,3.08,32.57,12.95,3.89,5.55,3.63,13,5.62,19.47a28.4,28.4,0,0,0,16.72,18c5.55,2.12,11.73,2.4,17,5.12,5.68,2.91,10.39,8.56,16.05,10.74"/><polygon class="cls-47" points="652.36 415.52 654.33 412.67 653.65 409.27 660.41 413.91 652.36 415.52"/><path class="cls-48" d="M563.74,296c15.15,5.59,31.2.57,46.51-1.43,17.87-2.35,22,1.05,34.39,13.12A40.77,40.77,0,0,0,674.48,319"/><polygon class="cls-47" points="672.17 322.66 673.3 318.99 671.45 315.63 680.14 318.29 672.17 322.66"/><path class="cls-49" d="M528,348.27c5.88,12.56,2.73,26.65,2.11,39.89-.73,15.47,2.48,18.77,13.7,28.5a35,35,0,0,1,11.79,24.73"/><polygon class="cls-47" points="552.58 439.03 555.59 440.38 558.65 439.15 555.48 446.28 552.58 439.03"/><rect class="cls-50" x="0.5" y="0.5" width="1919" height="1080"/><g id="Layer_42" data-name="Layer 42"><text class="cls-51" transform="translate(1260.72 652.84)"><tspan class="cls-52">C</tspan><tspan x="13.43" y="0">arbon </tspan><tspan class="cls-53" x="82.23" y="0">O</tspan><tspan x="100.52" y="0">ut</tspan></text><rect class="cls-54" x="1254.03" y="630.72" width="137.91" height="28.99"/></g><g id="Layer_43" data-name="Layer 43"><text class="cls-55" transform="translate(808.38 459.91)"><tspan class="cls-56">C</tspan><tspan x="16.65" y="0">arbon In</tspan></text><rect class="cls-57" x="799.66" y="432.35" width="147.1" height="35.92"/></g><g id="Layer_45" data-name="Layer 45"><circle class="cls-58" cx="1076.54" cy="732.38" r="9.7"/><text class="cls-59" transform="translate(1071.28 737.88)">C</text><circle class="cls-58" cx="1046.39" cy="668.96" r="9.7"/><text class="cls-59" transform="translate(1041.13 674.46)">C</text><circle class="cls-58" cx="914.28" cy="721.84" r="9.7"/><text class="cls-59" transform="translate(909.02 727.35)">C</text><circle class="cls-58" cx="963.91" cy="774.22" r="9.7"/><text class="cls-59" transform="translate(958.65 779.72)">C</text><circle class="cls-58" cx="1141.39" cy="720.02" r="9.7"/><text class="cls-59" transform="translate(1136.12 725.52)">C</text><circle class="cls-58" cx="933.49" cy="634.24" r="9.7"/><text class="cls-59" transform="translate(928.23 639.74)">C</text><circle class="cls-58" cx="765.15" cy="651.14" r="9.7"/><text class="cls-59" transform="translate(759.89 656.65)">C</text><circle class="cls-58" cx="804.7" cy="691.9" r="9.7"/><text class="cls-59" transform="translate(799.43 697.41)">C</text><circle class="cls-58" cx="800.48" cy="624.59" r="9.7"/><text class="cls-59" transform="translate(795.21 630.09)">C</text><circle class="cls-58" cx="959.9" cy="666.05" r="9.7"/><text class="cls-59" transform="translate(954.64 671.55)">C</text></g><g id="Layer_46" data-name="Layer 46"><circle class="cls-60" cx="1223.72" cy="444.6" r="15.13"/><text class="cls-61" transform="translate(1211.38 449.36) scale(1.08 1)"><tspan class="cls-62">C</tspan><tspan x="7.79" y="0">O2</tspan></text><circle class="cls-63" cx="1302.78" cy="498.07" r="15.09"/><text class="cls-64" transform="translate(1290.48 502.82) scale(1.08 1)"><tspan class="cls-65">C</tspan><tspan x="7.77" y="0">O2</tspan></text><circle class="cls-66" cx="1223.24" cy="599.19" r="11.53"/><text class="cls-67" transform="translate(1213.84 602.82) scale(1.08 1)"><tspan class="cls-68">C</tspan><tspan x="5.94" y="0">O2</tspan></text><circle class="cls-66" cx="1224.02" cy="667.63" r="11.53"/><text class="cls-67" transform="translate(1214.61 671.26) scale(1.08 1)"><tspan class="cls-68">C</tspan><tspan x="5.94" y="0">O2</tspan></text><circle class="cls-66" cx="1305.56" cy="712.26" r="11.53"/><text class="cls-67" transform="translate(1296.16 715.89) scale(1.08 1)"><tspan class="cls-68">C</tspan><tspan x="5.94" y="0">O2</tspan></text></g></g></g></svg>