<svg xmlns="http://www.w3.org/2000/svg" xmlns:xlink="http://www.w3.org/1999/xlink" viewBox="0 0 1218.3936 1068.5351"><defs><style>.cls-1{fill:none;}.cls-2{font-size:53.5557px;}.cls-2,.cls-7{fill:#5e5153;font-family:Acre-Light, Acre;font-weight:300;}.cls-3{letter-spacing:-0.005em;}.cls-4{letter-spacing:-0.025em;}.cls-5{letter-spacing:-0.003em;}.cls-6{letter-spacing:-0.02em;}.cls-7{font-size:40px;}.cls-8{letter-spacing:-0.02em;}.cls-9{letter-spacing:-0.015em;}.cls-10{letter-spacing:-0.02em;}.cls-11{letter-spacing:-0.005em;}.cls-12{letter-spacing:-0.015em;}.cls-13{letter-spacing:-0.013em;}.cls-14{letter-spacing:0em;}.cls-15{letter-spacing:-0.01em;}.cls-16{letter-spacing:-0.025em;}.cls-17{letter-spacing:-0.028em;}.cls-18{letter-spacing:-0.017em;}.cls-19{letter-spacing:-0.03em;}.cls-20{letter-spacing:-0.013em;}.cls-21{letter-spacing:0em;}.cls-22{letter-spacing:-0.008em;}.cls-23{letter-spacing:-0.003em;}.cls-24{clip-path:url(#clip-path);}.cls-25,.cls-28{fill:#3ca9a0;}.cls-26{fill:#fdce09;}.cls-27{fill:#fff;}.cls-28{fill-rule:evenodd;}.cls-29{fill:#ffce01;}</style><clipPath id="clip-path" transform="translate(8.6288)"><rect class="cls-1" x="5.4378" y="424.8906" width="1159.5" height="417"/></clipPath></defs><g id="Layer_2" data-name="Layer 2"><g id="Layer_7" data-name="Layer 7"><text class="cls-2" transform="matrix(1, 0.0006, -0.0006, 1, 61.1249, 949.9089)">ear<tspan class="cls-3" x="79.582" y="0">l</tspan><tspan class="cls-4" x="91.4185" y="0">y</tspan><tspan x="116.5356" y="0"> </tspan><tspan class="cls-5" x="135.0117" y="0">s</tspan><tspan x="156.7017" y="0">ea</tspan><tspan class="cls-5" x="220.0034" y="0">s</tspan><tspan x="241.6934" y="0">on</tspan></text><text class="cls-2" transform="matrix(1, 0.0006, -0.0006, 1, 464.8299, 950.1511)">mid-<tspan class="cls-5" x="115.625" y="0">s</tspan><tspan x="137.3154" y="0">ea</tspan><tspan class="cls-5" x="200.6162" y="0">s</tspan><tspan x="222.3066" y="0">on</tspan></text><text class="cls-2" transform="matrix(1, 0.0006, -0.0006, 1, 836.0556, 950.3739)">la<tspan class="cls-6" x="45.1465" y="0">t</tspan><tspan x="58.9111" y="0">e </tspan><tspan class="cls-5" x="107.6445" y="0">s</tspan><tspan x="129.335" y="0">ea</tspan><tspan class="cls-5" x="192.6357" y="0">s</tspan><tspan x="214.3262" y="0">on</tspan></text><text class="cls-7" transform="matrix(1, 0.0006, -0.0006, 1, 59.3315, 253.4656)">g<tspan class="cls-8" x="24.6797" y="0">r</tspan><tspan x="36.0391" y="0">azi</tspan><tspan class="cls-9" x="88.5986" y="0">n</tspan><tspan x="110.7983" y="0">g s</tspan><tspan class="cls-9" x="165.5967" y="0">h</tspan><tspan x="187.8364" y="0">ould be plan</tspan><tspan class="cls-9" x="424.4731" y="0">n</tspan><tspan x="446.6729" y="0">ed a</tspan><tspan class="cls-10" x="532.4312" y="0">r</tspan><tspan x="543.7915" y="0">ou</tspan><tspan class="cls-9" x="590.6709" y="0">n</tspan><tspan x="612.8706" y="0">d plant li</tspan><tspan class="cls-8" x="776.4673" y="0">f</tspan><tspan x="786.7471" y="0">e c</tspan><tspan class="cls-9" x="844.2666" y="0">y</tspan><tspan x="863.4258" y="0">cl</tspan><tspan class="cls-11" x="893.5859" y="0">e</tspan><tspan x="915.9858" y="0">s, lea</tspan><tspan class="cls-11" x="1009.0635" y="0">v</tspan><tspan x="1028.9438" y="0">i</tspan><tspan class="cls-12" x="1038.9834" y="0">n</tspan><tspan x="1061.1836" y="0">g </tspan><tspan x="-25.1987" y="48">sufficient ti</tspan><tspan class="cls-9" x="167.1572" y="48">m</tspan><tspan x="201.5171" y="48">e b</tspan><tspan class="cls-13" x="262.5957" y="48">e</tspan><tspan class="cls-14" x="284.6758" y="48">t</tspan><tspan class="cls-9" x="295.7559" y="48">w</tspan><tspan x="326.9956" y="48">een g</tspan><tspan class="cls-8" x="433.4736" y="48">r</tspan><tspan x="444.8335" y="48">azi</tspan><tspan class="cls-12" x="497.3926" y="48">n</tspan><tspan x="519.5928" y="48">g </tspan><tspan class="cls-12" x="558.0713" y="48">ev</tspan><tspan x="599.5513" y="48">en</tspan><tspan class="cls-15" x="644.9507" y="48">t</tspan><tspan x="655.6304" y="48">s </tspan><tspan class="cls-10" x="685.7495" y="48">f</tspan><tspan x="696.0298" y="48">or g</tspan><tspan class="cls-8" x="770.748" y="48">r</tspan><tspan x="782.1079" y="48">ass </tspan><tspan class="cls-10" x="853.2256" y="48">t</tspan><tspan x="863.5059" y="48">o </tspan><tspan class="cls-8" x="901.3848" y="48">r</tspan><tspan x="912.7441" y="48">eg</tspan><tspan class="cls-10" x="960.0234" y="48">r</tspan><tspan class="cls-9" x="971.3833" y="48">o</tspan><tspan class="cls-16" x="994.8628" y="48">w</tspan><tspan class="cls-14" x="1025.7021" y="48" xml:space="preserve"> a</tspan><tspan class="cls-9" x="1064.1816" y="48">n</tspan><tspan x="1086.3813" y="48">d </tspan><tspan x="-9.0186" y="96">pa</tspan><tspan class="cls-8" x="40.3008" y="96">r</tspan><tspan x="51.6602" y="96">asi</tspan><tspan class="cls-8" x="102.6992" y="96">t</tspan><tspan class="cls-11" x="112.979" y="96">e</tspan><tspan x="135.3789" y="96">s </tspan><tspan class="cls-10" x="165.4976" y="96">t</tspan><tspan x="175.7778" y="96">o die ou</tspan><tspan class="cls-17" x="331.6543" y="96">t</tspan><tspan x="341.6138" y="96">. ca</tspan><tspan class="cls-10" x="407.4927" y="96">r</tspan><tspan x="418.8525" y="96">e mu</tspan><tspan class="cls-18" x="513.0107" y="96">s</tspan><tspan x="528.6499" y="96">t be </tspan><tspan class="cls-10" x="614.6074" y="96">t</tspan><tspan x="624.8877" y="96">a</tspan><tspan class="cls-19" x="649.5674" y="96">k</tspan><tspan x="667.4873" y="96">en </tspan><tspan class="cls-9" x="726.686" y="96">n</tspan><tspan class="cls-20" x="748.8857" y="96">o</tspan><tspan class="cls-21" x="772.4463" y="96">t </tspan><tspan class="cls-8" x="797.3252" y="96">t</tspan><tspan x="807.605" y="96">o</tspan><tspan class="cls-22" x="831.6846" y="96"> </tspan><tspan class="cls-9" x="845.1641" y="96">w</tspan><tspan x="876.4033" y="96">ait </tspan><tspan class="cls-10" x="936.0015" y="96">t</tspan><tspan x="946.2817" y="96">oo lo</tspan><tspan class="cls-9" x="1041.3599" y="96">n</tspan><tspan x="1063.5596" y="96">g, </tspan><tspan x="291.6348" y="144">all</tspan><tspan class="cls-9" x="334.3945" y="144">o</tspan><tspan class="cls-11" x="357.874" y="144">w</tspan><tspan class="cls-14" x="389.5137" y="144">i</tspan><tspan class="cls-9" x="399.5537" y="144">n</tspan><tspan x="421.7534" y="144">g</tspan><tspan class="cls-22" x="446.4331" y="144"> </tspan><tspan class="cls-9" x="459.9126" y="144">w</tspan><tspan x="491.1523" y="144">eeds go </tspan><tspan class="cls-8" x="653.7085" y="144">t</tspan><tspan class="cls-14" x="663.9883" y="144">o </tspan><tspan class="cls-23" x="701.8672" y="144">s</tspan><tspan x="718.0674" y="144">eed.</tspan></text><g class="cls-24"><rect class="cls-25" x="3.0729" y="826.5288" width="1170.5748" height="15.3016"/><path class="cls-25" d="M426.4407,832.6308c-8.6873-21.7562-.7053-70.9141-.7053-70.9141A118.7372,118.7372,0,0,0,412.5986,805.48a105.1568,105.1568,0,0,0-6.1074-44.0314c.9109-2.0948,1.9045-4.1694,3.0007-6.2091,0,0-1.4078,1.8057-3.4906,4.9429a61.1742,61.1742,0,0,0-4.98-10.2343c1.3765,4.5393,2.4585,8.7947,3.3194,12.8021-1.0112,1.6073-2.1126,3.437-3.25,5.4553.43-1.308.73-2.0443.73-2.0443-2.48,3.04-4.6473,8.024-6.4855,13.6333-3.9764,9.2366-7.18,20.17-6.9988,31.1632-.2135,1.3961-.3242,2.2093-.3242,2.2093-.8493-8.5494-.4053-19.0857.6238-29.6348a64.2543,64.2543,0,0,1,2.6417-7.4186,42.6653,42.6653,0,0,0-2.2844,3.958c2.54-23.2586,7.5783-45.5276,7.5783-45.5276a260.4847,260.4847,0,0,0-10.7708,38.0233,109.6531,109.6531,0,0,0-6.5146,9.2675,124.9692,124.9692,0,0,0-8.3472-31.0936c6.3771,32.0212-1.7721,45.7967-1.7721,45.7967a85.8456,85.8456,0,0,0-.5761-37.288,80.7407,80.7407,0,0,1-2.02,30.1953c.1016-13.5454-.7238-30.1476-4.0169-46.1561,0,0,.0356,1.9268.0025,5.1319a136.4131,136.4131,0,0,0-3.6767-13.9c7.2719,37.6971-7.7428,68.0857-7.7428,68.0857-.1877-1.0751-.3777-2.1157-.5682-3.143,1.3824-9.7062,1.67-20.7416-2.3768-27.211a93.3624,93.3624,0,0,1-1.097,11.352,134.2632,134.2632,0,0,0-4.0949-13.2334c1.0375-4.4761,2.2753-9.2639,3.7685-14.3773a58.3236,58.3236,0,0,0-6.2427,8.4544c-3.009-6.3761-5.1681-8.0557-5.1681-8.0557a62.0087,62.0087,0,0,1,4.2035,9.6247c-5.0311,8.3587-11.3849,21.9621-14.5232,40.908,0,0,3.71-21.639-5.5254-46.5746,0,0,4.43,41.6951-6.7455,51.8152,0,0-5.7411-40.7747,6.0028-67.8968,0,0-14.3615,20.0166-15.14,55.5762.1034-3.8363.5638-37.53-13.9438-68.0008,0,0,10.53,52.0469,3.2527,69.7669,6.6061-32.9449-10.2017-57.0041-10.2017-57.0041,14.9707,42.9708-1.1477,62.01-1.1477,62.01,6.6-17.8283-.0842-35.2654-.0842-35.2654,1.2109,8.1023-8.5321,35.26-8.5321,35.26-9.72-14.5971,2.8611-41.7425,2.8611-41.7425C264.8839,776.2094,260,808.631,260,808.631c-2.4195-18.6443,15.8473-67.2682,15.8473-67.2682-16.8526,26.01-22.9825,58.8772-23.6144,62.4667,6.27-34.6611-.7062-57.619-.7062-57.619,3.63,29.1823-8.5514,67.2744-8.5514,67.2744C236.4977,800.9168,247.87,761.61,247.87,761.61a118.7362,118.7362,0,0,0-13.1369,43.7635,111.1047,111.1047,0,0,0-.8116-23.0359,96.067,96.067,0,0,1,9.4511-27.5729,121.11,121.11,0,0,0-11.2087,18.2445c-3.5012-14.7982-9.0081-23.1677-9.0081-23.1677a136.894,136.894,0,0,1,5.8378,30.0062,83.1868,83.1868,0,0,0-6.5292,24.28,49.3562,49.3562,0,0,1-2.11-9.9473,63.4947,63.4947,0,0,1,4.8036-18.542,56.1951,56.1951,0,0,0-5.0814,10.1007,66.7987,66.7987,0,0,1,2.6418-16.01c.5148-1.0119,1.0492-2.0358,1.6215-3.0818,0,0-.36.3666-.9839,1.0573.3595-1.0638.5991-1.65.5991-1.65a23.8449,23.8449,0,0,0-2.4563,3.7932,109.0686,109.0686,0,0,0-10.9472,15.8832,449.228,449.228,0,0,1,8.1544-51.2936c-9.8992,26.1368-14.2813,56.0264-15.7016,67.5974-.1288.3566-.25.7238-.3753,1.0848a127.849,127.849,0,0,0-2.4531-28.7235,204.9685,204.9685,0,0,0-3.7424-31.5822s.1261,6.6153-.314,15.9821c-1.6921-5.1811-3.0462-8.1614-3.0462-8.1614a122.688,122.688,0,0,1,2.3492,18.7949,179.2762,179.2762,0,0,1-3.83,25.5269,85.853,85.853,0,0,0-.8675-35.8131,77.9286,77.9286,0,0,1-6.8031,43.2077q.0978-.5706.19-1.1517c10.0663-28.1927-3.0989-66.7846-3.0989-66.7846C188.2849,772.1115,173.27,802.5,173.27,802.5c-.3017-1.728-.6086-3.3714-.9172-4.9763a217.2965,217.2965,0,0,1,8.2947-42.0049s-6.86,7.18-13.1929,21.6637c-5.2269-17.2155-9.9639-20.8965-9.9639-20.8965,3.95,7.1426,6.5222,16.04,8.1841,25.2119a125.3154,125.3154,0,0,0-6.7578,24.9523s3.71-21.6388-5.5254-46.5746c0,0,4.43,41.6954-6.7453,51.8155,0,0-5.7411-40.775,6.0028-67.8969,0,0-14.3614,20.0164-15.14,55.576.1034-3.8361.5638-37.53-13.9442-68.0009,0,0,10.53,52.0472,3.253,69.7669,6.6061-32.9446-10.2017-57.004-10.2017-57.004,14.97,42.971-1.1479,62.01-1.1479,62.01,6.6-17.8283-.0842-35.2652-.0842-35.2652,1.2112,8.1024-8.5319,35.26-8.5319,35.26-9.72-14.5969,2.8609-41.7425,2.8609-41.7425C98.7639,775.7338,93.88,808.1556,93.88,808.1556c-2.4194-18.6445,15.8474-67.2682,15.8474-67.2682-16.8524,26.01-22.9823,58.877-23.6144,62.4664,6.2708-34.6608-.706-57.6187-.706-57.6187,3.63,29.1823-8.5514,67.2744-8.5514,67.2744-6.4781-12.5683,4.8939-51.8753,4.8939-51.8753a118.7372,118.7372,0,0,0-13.1371,43.7632c2.31-34.4483-11.5771-55.5316-11.5771-55.5316,12.5375,41.3467,1.8313,60.4647,1.8313,60.4647-10.5263-21.0814-1.0322-44.2519-1.0322-44.2519-8.9228,10.936-13.8086,47.0061-13.8086,47.0061-2.8186-28.373,8.56-78.6232,8.56-78.6232C40.0013,767.1875,36.33,806.4994,36.33,806.4994a129.7742,129.7742,0,0,0-9.3767-56.3405C33.33,782.18,25.181,795.9556,25.181,795.9556a85.85,85.85,0,0,0-.5761-37.2879c3.2268,26.7518-7.7532,44.983-7.7532,44.983,12.1522-28.364-1.9584-69.7119-1.9584-69.7119,7.2716,37.6971-7.743,68.0857-7.743,68.0857C.2849,762.707-8.6288,755.81-8.6288,755.81,5.9464,782.1633,1.8644,832.3662,1.8644,832.3662l166.1479.1c-.0166.225-.0282.3756-.0282.3756l177.866.1071,53.9656.0325,42.796.0258m-104.39-18.6542s-1.6618-13.9036,3.8393-39.7646a144.7521,144.7521,0,0,1,3.15,18.8552A114.8266,114.8266,0,0,1,338.2218,814.353Zm8.1461,4.422c-.0147.0123-.0282.028-.0432.04l.0443-.1454Zm33.9475-11.6929a117.3864,117.3864,0,0,0,.1532-12.1085,70.514,70.514,0,0,1,3.7-14.143C381.3428,796.0941,380.3154,807.0821,380.3154,807.0821Zm22.5371,3.3311a47.1168,47.1168,0,0,1-4.5262-15.2407,112.6934,112.6934,0,0,1,6.5593-29.7759C410.8651,796.0714,402.8525,810.4132,402.8525,810.4132Z" transform="translate(8.6288)"/><path class="cls-25" d="M415.2391,834.0805l404.2389-1.1771.0772-128.19A300.0645,300.0645,0,0,0,800.92,774.19s7.5008-48.8371-11.1584-105.1132c0,0,8.9465,94.1009-13.638,116.9426,0,0-11.5951-92.0234,12.14-153.2367,0,0-29.0231,45.1772-30.6013,125.4314.2094-8.6578,1.1445-84.7-28.1669-153.4684,0,0,21.27,117.4631,6.5631,157.4555,13.3534-74.3533-20.6063-128.65-20.6063-128.65C745.6967,730.5289,713.1238,773.5,713.1238,773.5c13.3394-40.2371-.1652-79.59-.1652-79.59,2.4462,18.2858-17.2456,79.5794-17.2456,79.5794C676.0746,740.547,701.5,679.2807,701.5,679.2807c-22.1274,25.5935-32,98.7663-32,98.7663-4.8863-42.0778,32.0324-151.8193,32.0324-151.8193-34.0577,58.7052-46.4489,132.8826-47.7265,140.984,12.676-78.227-1.4187-130.04-1.4187-130.04,7.3319,65.8607-17.2893,151.8322-17.2893,151.8322-13.0882-28.3637,9.8966-117.0777,9.8966-117.0777-23.78,49.38-26.5523,98.7715-26.5523,98.7715a279.7621,279.7621,0,0,0-1.6366-51.9892c3.5336-20.7724,9.4655-42.2051,19.1015-62.2307a279.7663,279.7663,0,0,0-22.6515,41.1778c-7.073-33.3977-18.1995-52.2858-18.1995-52.2858,7.22,26.6006,10.6157,49.11,11.7923,67.72-6.2849,16.5379-11.5514,35.3968-13.1974,54.7984a122.7369,122.7369,0,0,1-4.262-22.4494,156.9686,156.9686,0,0,1,9.7094-41.8479,132.6593,132.6593,0,0,0-10.2693,22.7968,166.845,166.845,0,0,1,5.34-36.1338c1.04-2.2837,2.1209-4.5951,3.2773-6.956,0,0-.7272.8273-1.9886,2.3865.7266-2.4007,1.2107-3.723,1.2107-3.723a54.8683,54.8683,0,0,0-4.9639,8.5612A248.6455,248.6455,0,0,0,569.5816,726.37c4.5431-56.87,16.4845-115.7649,16.4845-115.7649C566.0593,669.5943,557.2,737.0531,554.3283,763.167c-.26.8051-.5046,1.6341-.7585,2.4491a321.3022,321.3022,0,0,0-4.9531-64.8257,514.3814,514.3814,0,0,0-7.5573-71.2771s.2538,14.93-.6368,36.07c-3.4187-11.6926-6.1547-18.4186-6.1547-18.4186a307.7513,307.7513,0,0,1,4.7446,42.4175c-1.42,18.6031-3.7951,39.06-7.7431,57.6119,7.5432-44.2514-1.7473-80.8258-1.7473-80.8258,5.325,49.3356-8.5128,85.818-13.7536,97.5158q.198-1.2876.3855-2.5993c20.3447-63.6293-6.2529-150.7249-6.2529-150.7249,14.6887,85.077-15.6555,153.663-15.6555,153.663-.61-3.9-1.2292-7.6092-1.8528-11.2313,1.7073-22.1937,6.1154-54.0629,16.7675-94.8016,0,0-13.8627,16.207-26.6624,48.8946-10.56-38.853-20.1308-47.16-20.1308-47.16,7.9816,16.12,13.177,36.1992,16.5341,56.9A309.27,309.27,0,0,0,465.2421,773.14s7.5009-48.8368-11.1584-105.1132c0,0,8.9466,94.1011-13.6379,116.9425,0,0-11.5952-92.0233,12.14-153.2363,0,0-52.0322,55.1182-39.07,200.8859" transform="translate(8.6288)"/><path class="cls-26" d="M520.9551,789.3159c.002-3.255-2.92-6.0449-7.1015-7.3006,1.7873-3.4717,1.9058-7.0619-.1057-9.2829-2.0972-2.3156-5.9026-2.4808-9.69-.8325-1.3181-3.9144-3.9936-6.6257-7.1176-6.6275-2.9966-.0018-5.5794,2.4944-6.9551,6.1489-3.7361-2.2586-7.7657-2.5542-10.1781-.3692-2.5987,2.3535-2.501,6.8525-.1472,11.0683-3.9893,1.3006-6.7612,4.0056-6.7631,7.1665-.0018,2.9976,2.4957,5.581,6.152,6.9563-.7784,2.6792-.5047,5.2331,1.0568,6.9573,2.0972,2.3156,5.9026,2.4808,9.69.8325,1.3181,3.9144,3.9935,6.6256,7.1176,6.6275,2.3262.0014,4.4037-1.5088,5.8684-3.8835,3.4727,1.789,7.0642,1.9081,9.2859-.104,2.3428-2.1218,2.49-5.9923.778-9.8231C517.5512,795.7671,520.953,792.8217,520.9551,789.3159Z" transform="translate(8.6288)"/><circle class="cls-27" cx="505.5557" cy="787.9664" r="9.0109"/><path class="cls-26" d="M765.1305,748.9586c.0015-2.4319-2.1818-4.5165-5.3059-5.4546,1.3354-2.5939,1.4239-5.2764-.079-6.9358-1.5669-1.73-4.41-1.8536-7.24-.622-.9848-2.9247-2.9838-4.95-5.3179-4.9518-2.239-.0014-4.1687,1.8637-5.1966,4.5942-2.7914-1.6875-5.8021-1.9084-7.6046-.2759-1.9416,1.7584-1.8686,5.12-.11,8.27-2.9807.9718-5.0517,2.9929-5.0531,5.3545-.0014,2.24,1.8647,4.17,4.5965,5.1975a5.3463,5.3463,0,0,0,.79,5.1981c1.5669,1.73,4.41,1.8536,7.24.622.9848,2.9247,2.9838,4.95,5.3179,4.9518a5.3464,5.3464,0,0,0,4.3847-2.9015c2.5946,1.3366,5.278,1.4256,6.938-.0778,1.75-1.5853,1.86-4.4771.5812-7.3394C762.5872,753.7786,765.1289,751.578,765.1305,748.9586Z" transform="translate(8.6288)"/><circle class="cls-27" cx="755.8065" cy="747.9503" r="6.7325"/><path class="cls-26" d="M647.4542,730.2107c.0022-3.5292-3.1662-6.5543-7.7-7.9158,1.9379-3.7643,2.0664-7.6571-.1146-10.0653-2.2739-2.5108-6.4-2.69-10.5065-.9027-1.4291-4.2443-4.33-7.1841-7.7174-7.1861-3.2492-.002-6.05,2.7047-7.5413,6.6671-4.051-2.4489-8.42-2.7694-11.036-.4-2.8176,2.5519-2.7117,7.43-.1595,12.0012-4.3255,1.41-7.3311,4.3432-7.3331,7.77-.002,3.25,2.7061,6.0514,6.67,7.5426-.8441,2.905-.5473,5.6741,1.1459,7.5437,2.2739,2.5107,6.4,2.69,10.5064.9026,1.4292,4.2443,4.33,7.1841,7.7175,7.1861,2.5222.0016,4.7748-1.6359,6.363-4.2107,3.7654,1.94,7.66,2.0689,10.0685-.1129,2.54-2.3006,2.7-6.4973.8436-10.651C643.7634,737.2057,647.452,734.0121,647.4542,730.2107Z" transform="translate(8.6288)"/><circle class="cls-27" cx="630.0296" cy="728.7476" r="9.7703"/><path class="cls-25" d="M805.4306,834.3155l404.2389-1.1771.0954-158.2877c-7.29,22.0469-14.4111,50.5919-18.645,85.7912,0,0,7.5077-60.3044-11.1436-129.7908,0,0,8.9333,116.1932-13.6544,144.401,0,0-11.5822-113.6275,12.1614-189.2162,0,0-29.03,55.7883-30.619,154.8852.2106-10.6905,1.1564-104.587-28.1453-189.4966,0,0,21.2539,145.0388,6.5409,194.423,13.364-91.8123-20.5881-158.8523-20.5881-158.8523,30.2309,119.743-2.348,172.8076-2.348,172.8076,13.345-49.6861-.1541-98.2766-.1541-98.2766,2.4436,22.5788-17.2568,98.2661-17.2568,98.2661-19.6337-40.6741,5.8-116.3285,5.8-116.3285-22.131,31.6057-32.0144,121.96-32.0144,121.96-4.88-51.9564,32.0539-187.4689,32.0539-187.4689-34.066,72.4932-46.4677,164.0882-47.7465,174.0919,12.6871-96.5954-1.4-160.5713-1.4-160.5713,7.3226,81.3229-17.3108,187.4829-17.3108,187.4829-13.0842-35.0213,9.9132-144.5673,9.9132-144.5673-23.7873,60.9764-26.5663,121.9654-26.5663,121.9654a425.9793,425.9793,0,0,0-1.6293-64.1954c3.5366-25.65,9.4715-52.1156,19.11-76.8443,0,0-11.5529,20.422-22.6573,50.849-7.0683-41.2379-18.192-64.5592-18.192-64.5592,7.2166,32.845,10.6087,60.6385,11.7827,83.6178-6.2873,20.4217-11.5564,43.7091-13.2052,67.6662a183.6569,183.6569,0,0,1-4.2589-27.72,232.844,232.844,0,0,1,9.7154-51.6746s-5.1719,10.4212-10.2726,28.1506a251.1536,251.1536,0,0,1,5.3453-44.6183c1.0407-2.82,2.1216-5.6742,3.2783-8.59,0,0-.7272,1.0216-1.9889,2.947.727-2.9644,1.2113-4.5972,1.2113-4.5972a72.9554,72.9554,0,0,0-4.9652,10.5719,325.6173,325.6173,0,0,0-22.1278,44.2675C964.3393,631.405,976.289,558.681,976.289,558.681c-20.0151,72.8413-28.8843,156.14-31.7593,188.3853-.2606.9942-.5049,2.0179-.7589,3.0243a487.89,487.89,0,0,0-4.9439-80.0453,779.446,779.446,0,0,0-7.5472-88.0109s.2516,18.4353-.6419,44.5386c-3.417-14.4374-6.1521-22.7421-6.1521-22.7421a466.1366,466.1366,0,0,1,4.7386,52.3759c-1.4225,22.9709-3.8007,48.2315-7.7512,71.1394,7.5494-54.6421-1.736-99.8024-1.736-99.8024,5.3181,60.9182-8.5249,105.9681-13.7673,120.4131q.1982-1.59.3858-3.21c20.3537-78.5715-6.2316-186.1123-6.2316-186.1123,14.6767,105.05-15.6772,189.7433-15.6772,189.7433-.609-4.8155-1.2281-9.3956-1.8513-13.8681,1.7105-27.4046,6.1231-66.7569,16.7809-117.0621,0,0-13.8648,20.0143-26.6692,60.3782-10.554-47.9736-20.1241-58.23-20.1241-58.23,7.9792,19.9032,13.1719,44.6964,16.526,70.2565a457.5582,457.5582,0,0,0-13.667,69.54s7.5077-60.3041-11.1436-129.7908c0,0,8.9333,116.1935-13.6545,144.401,0,0-11.5821-113.6275,12.1615-189.2159,0,0-52.04,68.0666-39.0979,248.0567" transform="translate(8.6288)"/><path class="cls-26" d="M911.1467,789.5508c.0019-3.2549-2.92-6.0448-7.1016-7.3,1.7873-3.4717,1.9059-7.0619-.1057-9.2829-2.0971-2.3156-5.9026-2.4809-9.69-.8325-1.3181-3.9144-3.9935-6.6257-7.1176-6.6276-2.9966-.0018-5.5794,2.4945-6.9551,6.1489-3.7361-2.2585-7.7657-2.5541-10.1781-.3692-2.5986,2.3535-2.501,6.8525-.1471,11.0683-3.9894,1.3007-6.7613,4.0057-6.7632,7.1666-.0018,2.9976,2.4958,5.581,6.152,6.9563-.7784,2.6792-.5047,5.233,1.0569,6.9572,2.0971,2.3156,5.9026,2.4809,9.69.8326,1.3181,3.9143,3.9935,6.6256,7.1176,6.6275,2.3262.0014,4.4037-1.5088,5.8685-3.8835,3.4726,1.7889,7.0641,1.9081,9.2858-.1041,2.3428-2.1217,2.49-5.9922.778-9.8231C907.7427,796.002,911.1446,793.0567,911.1467,789.5508Z" transform="translate(8.6288)"/><circle class="cls-27" cx="895.7472" cy="788.2014" r="9.0109"/><path class="cls-26" d="M903.5811,648.0062c.002-3.255-2.92-6.0449-7.1015-7.3006,1.7873-3.4717,1.9058-7.0619-.1057-9.2829-2.0972-2.3156-5.9027-2.4808-9.69-.8325-1.3181-3.9144-3.9935-6.6257-7.1176-6.6275-2.9966-.0018-5.5793,2.4944-6.9551,6.1489-3.7361-2.2586-7.7657-2.5542-10.1781-.3692-2.5986,2.3535-2.501,6.8525-.1471,11.0683-3.9894,1.3006-6.7613,4.0056-6.7632,7.1665-.0018,2.9976,2.4958,5.581,6.152,6.9563-.7784,2.6792-.5047,5.2331,1.0569,6.9573,2.0971,2.3156,5.9026,2.4808,9.69.8325,1.3181,3.9144,3.9935,6.6256,7.1176,6.6275,2.3262.0014,4.4037-1.5088,5.8685-3.8835,3.4727,1.789,7.0642,1.9081,9.2858-.104,2.3428-2.1218,2.49-5.9923.778-9.8231C900.1771,654.4574,903.579,651.512,903.5811,648.0062Z" transform="translate(8.6288)"/><circle class="cls-27" cx="888.1816" cy="646.6567" r="9.0109"/><path class="cls-26" d="M1155.322,749.1935c.0015-2.4319-2.1818-4.5164-5.3059-5.4546,1.3354-2.5939,1.4239-5.2763-.079-6.9358-1.5669-1.73-4.41-1.8535-7.24-.622-.9848-2.9246-2.9838-4.95-5.3179-4.9517-2.239-.0014-4.1687,1.8637-5.1966,4.5941-2.7914-1.6875-5.8021-1.9083-7.6046-.2758-1.9416,1.7584-1.8686,5.12-.11,8.27-2.9807.9718-5.0517,2.9929-5.0531,5.3545-.0014,2.24,1.8647,4.17,4.5965,5.1974a5.3468,5.3468,0,0,0,.79,5.1982c1.5669,1.73,4.41,1.8536,7.24.622.9848,2.9247,2.9838,4.95,5.318,4.9518a5.3465,5.3465,0,0,0,4.3846-2.9016c2.5946,1.3366,5.278,1.4257,6.938-.0777,1.75-1.5853,1.86-4.4772.5813-7.3394C1152.7787,754.0136,1155.3205,751.813,1155.322,749.1935Z" transform="translate(8.6288)"/><circle class="cls-27" cx="1145.998" cy="748.1853" r="6.7325"/><path class="cls-26" d="M1086.4348,798.8824c.0014-2.4319-2.1818-4.5165-5.306-5.4546,1.3354-2.5939,1.424-5.2764-.0789-6.9358-1.567-1.73-4.41-1.8536-7.24-.622-.9848-2.9247-2.9838-4.95-5.3179-4.9518-2.2389-.0014-4.1686,1.8637-5.1966,4.5942-2.7914-1.6875-5.8021-1.9084-7.6046-.2759-1.9415,1.7584-1.8686,5.12-.11,8.27-2.9806.9718-5.0517,2.9929-5.0531,5.3545-.0013,2.24,1.8647,4.17,4.5965,5.1975a5.3466,5.3466,0,0,0,.79,5.1981c1.5669,1.73,4.41,1.8536,7.24.622.9848,2.9247,2.9837,4.95,5.3179,4.9518a5.3464,5.3464,0,0,0,4.3846-2.9015c2.5947,1.3366,5.2781,1.4256,6.938-.0778,1.75-1.5853,1.86-4.4771.5813-7.3394C1083.8915,803.7024,1086.4332,801.5018,1086.4348,798.8824Z" transform="translate(8.6288)"/><circle class="cls-27" cx="1077.1107" cy="797.8741" r="6.7325"/><path class="cls-26" d="M1105.6678,622.9252c.0014-2.432-2.1818-4.5165-5.306-5.4547,1.3354-2.5939,1.424-5.2763-.0789-6.9357-1.5669-1.73-4.41-1.8536-7.24-.6221-.9848-2.9246-2.9838-4.95-5.3179-4.9517-2.2389-.0014-4.1686,1.8637-5.1966,4.5942-2.7914-1.6875-5.8021-1.9084-7.6046-.2759-1.9415,1.7584-1.8686,5.12-.11,8.27-2.9806.9718-5.0517,2.9929-5.0531,5.3545-.0013,2.24,1.8647,4.17,4.5965,5.1974a5.3467,5.3467,0,0,0,.79,5.1982c1.5669,1.73,4.41,1.8536,7.24.622.9848,2.9247,2.9837,4.95,5.3179,4.9518a5.3463,5.3463,0,0,0,4.3846-2.9016c2.5947,1.3366,5.2781,1.4257,6.938-.0777,1.75-1.5853,1.86-4.4771.5813-7.3394C1103.1245,627.7452,1105.6662,625.5446,1105.6678,622.9252Z" transform="translate(8.6288)"/><circle class="cls-27" cx="1096.3438" cy="621.9169" r="6.7325"/><path class="cls-26" d="M1037.6458,730.4457c.0021-3.5293-3.1663-6.5544-7.7-7.9158,1.9379-3.7644,2.0664-7.6572-.1146-10.0654-2.2739-2.5107-6.4-2.69-10.5064-.9026-1.4292-4.2443-4.33-7.1841-7.7175-7.1861-3.2492-.002-6.05,2.7046-7.5413,6.6671-4.051-2.4489-8.42-2.7694-11.0359-.4-2.8177,2.5518-2.7118,7.43-.16,12.0012-4.3255,1.41-7.3311,4.3432-7.3331,7.77-.002,3.25,2.7061,6.0514,6.6705,7.5426-.844,2.905-.5473,5.6741,1.1459,7.5436,2.2739,2.5108,6.4,2.69,10.5064.9027,1.4292,4.2443,4.33,7.1841,7.7175,7.1861,2.5222.0015,4.7748-1.6359,6.3631-4.2108,3.7653,1.94,7.66,2.0689,10.0685-.1128,2.54-2.3006,2.6995-6.4973.8435-10.651C1033.9549,737.4406,1037.6435,734.247,1037.6458,730.4457Z" transform="translate(8.6288)"/><circle class="cls-27" cx="1020.2212" cy="728.9825" r="9.7703"/><path class="cls-26" d="M972.5632,814.5655c.0021-3.5293-3.1663-6.5544-7.7-7.9159,1.9379-3.7643,2.0664-7.6571-.1146-10.0653-2.2739-2.5107-6.4-2.69-10.5064-.9026-1.4292-4.2443-4.33-7.1841-7.7175-7.1862-3.2492-.0019-6.05,2.7047-7.5413,6.6672-4.051-2.4489-8.42-2.7694-11.0359-.4-2.8177,2.5518-2.7118,7.43-.16,12.0011-4.3255,1.41-7.3311,4.3433-7.3331,7.7706-.002,3.25,2.7061,6.0514,6.67,7.5426-.844,2.905-.5473,5.6741,1.1459,7.5436,2.2739,2.5108,6.4,2.69,10.5064.9027,1.4292,4.2443,4.33,7.1841,7.7175,7.1861,2.5223.0015,4.7748-1.6359,6.3631-4.2108,3.7653,1.94,7.6595,2.0689,10.0685-.1128,2.54-2.3006,2.6995-6.4973.8435-10.651C968.8723,821.56,972.5609,818.3668,972.5632,814.5655Z" transform="translate(8.6288)"/><circle class="cls-27" cx="955.1386" cy="813.1023" r="9.7703"/><path class="cls-28" d="M877.7,736.665c-2.1755-.9607-4.17-1.8355-6.1559-2.7232-.8558-.3849-2.02-.684-2.4417-1.2243-.4046-.5222-.0247-1.3058.01-1.9748a236.7337,236.7337,0,0,1,2.71-24.3347c.7805-5.003,1.7644-9.9833,2.73-14.965.8161-4.22,1.6783-8.4306,2.6207-12.6282.9475-4.2183,2.0044-8.4183,3.0426-12.62.9143-3.7137,1.843-7.4226,2.8236-11.1261.9853-3.72,2.033-7.4305,3.07-11.14.9635-3.4475,1.9328-6.8919,2.9347-10.3317.9444-3.2362,1.9241-6.4671,2.9089-9.6939q1.5252-4.9927,3.0953-9.9777c1.0171-3.2423,2.0377-6.485,3.0848-9.7213,1.1777-3.6378,2.3818-7.2693,3.58-10.9038.2451-.7416.5042-1.48.7588-2.2352,1.9041.736,3.7576,1.4527,5.7063,2.21-.43,1.3625-.8635,2.7485-1.3064,4.1335-1.0323,3.2366-2.0763,6.4755-3.102,9.7141q-1.5525,4.8938-3.0766,9.7874-1.58,5.0482-3.1467,10.0969c-.9861,3.206-1.97,6.4134-2.9151,9.6277-.9171,3.114-1.79,6.237-2.6692,9.3568-.8391,2.98-1.6951,5.9559-2.4836,8.9467-.8887,3.377-1.7223,6.7617-2.5555,10.15-.7183,2.9181-1.4245,5.8375-2.0905,8.7645-.5409,2.3738-1.0535,4.7538-1.5121,7.1406q-1.1558,6.0221-2.2223,12.0563c-.4661,2.664-.946,5.3284-1.2451,8.009-.6822,6.1163-1.3884,12.2316-1.8285,18.3721-.3395,4.7549-.2974,9.5436-.406,14.32C877.5985,734.67,877.668,735.5948,877.7,736.665Z" transform="translate(8.6288)"/><path class="cls-28" d="M876.29,602.3651c2.068-.17,4.0907-.3351,6.1886-.5074-.0517,1.3453-.0858,2.6767-.1621,4.0072-.4758,8.3-.8366,16.6105-1.4716,24.8963-.8343,10.8565-1.8774,21.6925-2.846,32.537-.2223,2.4592-.4174,4.924-.8012,7.366-.3892,2.4776-.9876,4.9293-1.5142,7.3924-.5167,2.418-1.0806,4.8329-1.5831,7.2557-.7112,3.43-1.4168,6.8615-2.0729,10.3013-.5343,2.8209-.9895,5.6524-1.4806,8.4834-1.3421,7.7259-2.1184,15.5141-2.9593,23.3a39.6457,39.6457,0,0,1-1.5566,6.2345c-.7815,2.8193-1.6124,5.63-2.4415,8.4411-.3062,1.0315-.6565,2.0524-1.0238,3.0695a.7134.7134,0,0,1-.4773.4209c-3.0168.4054-6.0485.7839-9.2448,1.1923.399-1.0133.7838-1.9286,1.1179-2.855,1.43-3.946,2.914-7.8842,4.2466-11.8508,1.1648-3.4694,2.2232-6.9649,3.1985-10.4724.9518-3.4287,1.7894-6.8782,2.5754-10.3376.9548-4.176,1.8612-8.36,2.6732-12.5576.7424-3.8519,1.3519-7.72,1.9817-11.586,1.8483-11.3356,3.1634-22.7325,4.1322-34.1659.8315-9.8028,1.4709-19.6261,2.1514-29.4426.4728-6.8093.8715-13.6251,1.3016-20.4388C876.2368,602.8224,876.2677,602.5924,876.29,602.3651Z" transform="translate(8.6288)"/><path class="cls-28" d="M855.0913,585.6359c1.4744-.2881,2.7792-.54,4.2015-.8187.0875.8465.1636,1.6557.2573,2.4658a16.1985,16.1985,0,0,0,1.6621,6.041,10.4993,10.4993,0,0,0,1.661,2.3792,4.4065,4.4065,0,0,1,1.005,2.6827c1.5253,7.9369,3.0783,15.8744,4.4932,23.817,1.2616,7.0645,2.3586,14.134,3.5261,21.2024a1.7461,1.7461,0,0,1,.0035.4364q-1.1974,12.4429-2.4008,24.8829a2.8985,2.8985,0,0,1-.2532.9533C866.2142,641.61,860.5223,613.6255,855.0913,585.6359Z" transform="translate(8.6288)"/><path class="cls-28" d="M896.6424,561.7662c7.6381,4.3713,12.8917,10.27,14.166,19.1206a44.9422,44.9422,0,0,1-.2145,13.0443c-.7611-.2906-1.46-.5264-2.1336-.8211a26.32,26.32,0,0,1-8.6253-5.542,14.7656,14.7656,0,0,1-4.0638-9.5433C895.3643,572.6168,896.2694,567.2837,896.6424,561.7662Z" transform="translate(8.6288)"/><path class="cls-28" d="M873.2406,607.716c.6064-2.336,1.1047-4.5437,1.75-6.7061a29.68,29.68,0,0,1,5.5851-10.7834c3.5678-4.2456,8.2533-6.6182,13.4935-8.06.2029-.0568.4075-.0993.66-.1561.6551,1.6187,1.2812,3.0967.73,4.9991-1.0229,3.5338-1.6634,7.1745-3.1418,10.579a15.1677,15.1677,0,0,1-10.3272,8.9186A33.4079,33.4079,0,0,1,873.2406,607.716Z" transform="translate(8.6288)"/><path class="cls-28" d="M912.5426,592.7482c.0889-1.9907.2788-3.98.2431-5.9612-.04-2.2565-.305-4.5049-.414-6.7622a2.1893,2.1893,0,0,1,.3743-1.3657,22.2917,22.2917,0,0,1,11.519-7.6462c2.4455-.6974,4.9771-1.0941,7.7388-1.6846-.7161,1.9782-1.312,3.634-1.9151,5.2926a64.3345,64.3345,0,0,1-4.3414,10.3234c-2.8492,4.939-7.2259,7.3578-12.7831,7.8847a1.0157,1.0157,0,0,1-.2707-.0092A.5675.5675,0,0,1,912.5426,592.7482Z" transform="translate(8.6288)"/><path class="cls-28" d="M860.7765,577.9052a35.9891,35.9891,0,0,1,7.0945,3.9541,23.3218,23.3218,0,0,1,8.2542,10.5876,1.772,1.772,0,0,1-.0736,1.6257,42.0682,42.0682,0,0,0-3.947,11.5274,3.8,3.8,0,0,1-.1665.485,16.7285,16.7285,0,0,1-4.6507-2.6189c-3.692-2.805-5.3876-6.7247-5.8139-11.1734-.3869-4.0263-.4456-8.0819-.6442-12.1242C860.7966,579.48,860.7965,578.7885,860.7765,577.9052Z" transform="translate(8.6288)"/><path class="cls-28" d="M850.9365,583.6685a17.9919,17.9919,0,0,1-6.9233-2.9278,15.0487,15.0487,0,0,1-5.7584-8.5717c-1.2833-4.6774-2.3078-9.4281-3.5164-14.4375,1.8249.5731,3.3815,1.0147,4.9034,1.551a23.9775,23.9775,0,0,1,12.84,9.9867,2.0476,2.0476,0,0,1,.3268,1.9142A43.9611,43.9611,0,0,0,850.9365,583.6685Z" transform="translate(8.6288)"/><path class="cls-28" d="M901.9127,544.5583c6.26,4.6772,10.7708,10.3247,11.6356,18.2619.5961,5.4854-.3335,12.9123-1.752,14.2862a2.6832,2.6832,0,0,1-.2368-.4386c-1.93-6.46-6.0983-11.1653-11.6256-14.79a1.3958,1.3958,0,0,1-.7966-1.519c.3755-2.57.6409-5.1548,1.0678-7.7163.4024-2.4139.9556-4.8009,1.4488-7.2C901.7078,545.18,901.8047,544.9234,901.9127,544.5583Z" transform="translate(8.6288)"/><path class="cls-28" d="M915.0631,561.5469a26.2382,26.2382,0,0,0-2.7226-7.9855,30.0015,30.0015,0,0,0-7.5015-8.7647,1.61,1.61,0,0,1-.67-1.8244c1.0075-5.0241,3.0209-9.7264,4.5771-14.5743.0158-.0485.0883-.0812.2646-.2324,1.15,1.2979,2.357,2.5529,3.4449,3.9071a24.0431,24.0431,0,0,1,5.4111,12.0844,24.5849,24.5849,0,0,1-.34,8.829c-.6039,2.58-1.3825,5.12-2.0927,7.6755A8.9376,8.9376,0,0,1,915.0631,561.5469Z" transform="translate(8.6288)"/><path class="cls-28" d="M879.2458,575.5767a39.156,39.156,0,0,1,1.7177-14.7686,23.9993,23.9993,0,0,1,10.3826-12.6343c1.077-.6751,2.1918-1.2835,3.2982-1.9087.3013-.1732.6343-.2928,1.0628-.4863.0149,4.2172.1955,8.3045-.053,12.3614a40.8071,40.8071,0,0,1-.72,4.156c-.0373.2215-.4441.4374-.7264.55a33.4351,33.4351,0,0,0-8.0589,4.4758,24.0711,24.0711,0,0,0-6.3086,7.2892C879.6961,574.8661,879.5345,575.11,879.2458,575.5767Z" transform="translate(8.6288)"/><path class="cls-28" d="M846.3227,519.9045c-1.5746-1.2141-3.1921-2.5787-4.9271-3.7662a27.5377,27.5377,0,0,0-7.9075-3.5336,1.63,1.63,0,0,1-1.359-1.3155c-1.0325-4.5552-2.1275-9.0944-3.2351-13.791a37.9057,37.9057,0,0,1,8.0318,2.7859,23.8075,23.8075,0,0,1,11.7782,12.7778,1.063,1.063,0,0,1,.12.6687C847.9933,515.8305,847.1319,517.9152,846.3227,519.9045Z" transform="translate(8.6288)"/><path class="cls-28" d="M946.3408,510.7211c-1.7895,4.5495-3.5124,8.96-5.2775,13.3559a1.3608,1.3608,0,0,1-.8565.7547,28.7481,28.7481,0,0,0-14.3885,5.8812c-.0975-.7867-.1251-1.4691-.2732-2.1228-.3254-1.4382-.7443-2.8589-1.05-4.3028a1.8533,1.8533,0,0,1,.2052-1.217A24.2513,24.2513,0,0,1,942.1878,511.2c1.1881-.2118,2.3876-.3616,3.5812-.531A3.1072,3.1072,0,0,1,946.3408,510.7211Z" transform="translate(8.6288)"/><path class="cls-28" d="M865.6646,517.4765c6.9755,3.0375,12.56,7.3387,15.33,14.5831.5052,1.3214.8625,2.6991,1.2438,4.0615a1.2707,1.2707,0,0,1-.0832.9128c-1.152,1.9009-2.3476,3.78-3.4753,5.5845-1.0419-1.218-2.145-2.6541-3.4-3.9461a28.6653,28.6653,0,0,0-8.0465-5.6443,1.4392,1.4392,0,0,1-.9467-1.355c-.1874-4.04-.396-8.0818-.59-12.1218C865.6658,518.8958,865.6751,518.24,865.6646,517.4765Z" transform="translate(8.6288)"/><path class="cls-28" d="M877.4023,591.3747a4.0755,4.0755,0,0,1-.2526-1.1909c.5863-6.2811,1.9839-12.2991,5.8983-17.4478,3.0006-3.9453,7.03-6.4566,11.89-8.3876-.2862,2.8333-.6574,5.4327-.7833,8.0458-.1313,2.612-.0154,5.2373-.006,8.0367C887.5774,582.1122,881.6651,585.3294,877.4023,591.3747Z" transform="translate(8.6288)"/><path class="cls-28" d="M852.7,552.044c-3.2221-13.5207-.6254-23.8561,11.0456-32.0272.1724,2.0466.3538,3.9419.4849,5.8379.1285,1.8973.2075,3.7944.3149,5.8188-.6938-.2714-1.3953-.5455-2.2318-.8719.0328,1.3553.0613,2.611.097,3.868.0329,1.1781.1272,2.3561.0815,3.531a1.7624,1.7624,0,0,1-.581,1.1863,25.98,25.98,0,0,0-7.0277,7.9739C854.0705,548.8559,853.4356,550.4491,852.7,552.044Z" transform="translate(8.6288)"/><path class="cls-28" d="M861.4128,562.1348c1.8216.9808,3.4967,1.8041,5.091,2.7611a23.6409,23.6409,0,0,1,10.6744,13.0474,4.429,4.429,0,0,1,.0723,2.797c-.6389,2.2571-1.0973,4.57-1.6339,6.8742-.6513-.86-1.3159-1.8057-2.05-2.6956a30.6126,30.6126,0,0,0-10.7163-7.8927,1.2434,1.2434,0,0,1-.87-1.1926c-.1483-3.6807-.3348-7.359-.5032-11.0393C861.44,564.0119,861.4385,563.2312,861.4128,562.1348Z" transform="translate(8.6288)"/><path class="cls-28" d="M914.6055,574.136c.2708-2.672.5207-5.3491.8349-8.0176a2.9922,2.9922,0,0,1,.6129-1.2651c4.3785-6.13,10.5638-9.079,17.8436-10.0834.5359-.0757,1.0742-.1462,1.6152-.2078.1742-.019.3523,0,.6809.0011-.4644,1.2717-.88,2.4814-1.3345,3.6722-1.1375,2.9867-2.3105,5.96-3.4225,8.9535a1.3041,1.3041,0,0,1-1.2672.9014,30.849,30.849,0,0,0-10.5669,3.0043C917.8989,571.98,916.3128,573.0886,914.6055,574.136Z" transform="translate(8.6288)"/><path class="cls-28" d="M851.22,564.8526a22.9459,22.9459,0,0,0-7.5081-5.5874c-2.28-1.0162-4.6556-1.82-7.02-2.6365a1.197,1.197,0,0,1-.9309-.94q-1.2752-5.6474-2.555-11.295c-.1393-.6134-.2572-1.2327-.4231-2.0414,1.067.295,2.015.524,2.9445.811,5.0959,1.575,9.6425,4.0457,12.9758,8.3367a48.5887,48.5887,0,0,1,2.8029,4.34,1.7041,1.7041,0,0,1,.2191.9424C851.5759,559.4636,851.3931,562.1436,851.22,564.8526Z" transform="translate(8.6288)"/><path class="cls-28" d="M917.9507,515.802c7.9861,10.503,7.9115,20.5913,1.9484,31.3076-.29-1.87-.4706-3.8686-.9221-5.8a26.5753,26.5753,0,0,0-6.7192-11.97,1.675,1.675,0,0,1-.34-2.2542C913.9269,523.37,915.9054,519.6379,917.9507,515.802Z" transform="translate(8.6288)"/><path class="cls-28" d="M890.8171,531.1825c.341,1.8594.6745,3.6.9768,5.3493.4373,2.5261.8311,5.0571,1.2854,7.5786a1.3547,1.3547,0,0,1-.8449,1.6279c-4.9911,2.7857-9.0958,6.4741-11.64,11.7031-.236.4872-.4342.9932-.65,1.4919a11.1869,11.1869,0,0,1-.7028,1.451c-1-5.56-1.15-11.069.9009-16.45C882.2161,538.501,886.142,534.6109,890.8171,531.1825Z" transform="translate(8.6288)"/><path class="cls-28" d="M856.2972,506.5072c1.5592,4.3859,3.0356,8.5681,4.5429,12.74.2122.5825-.01.8673-.4263,1.208a29.9294,29.9294,0,0,0-7.703,9.0615,24.3569,24.3569,0,0,0-2.5751,7.8867c-1.707-1.84-3.0054-11.1487-2.1256-16.3432C848.98,515.3257,852.2086,510.8077,856.2972,506.5072Z" transform="translate(8.6288)"/><path class="cls-28" d="M917.2415,560.6116c.3057-1,.6679-2.0068.9159-3.0423.4652-1.938.7384-3.9295,1.3384-5.8188a8.2634,8.2634,0,0,1,1.7645-2.6631c4.1041-4.7729,9.49-7.1207,15.5763-8.0942.7461-.1171,1.4912-.2182,2.2392-.317.2343-.03.4738-.0214.8456-.0371-.5864,1.6008-1.1445,3.1415-1.7185,4.6794-.84,2.2624-1.6988,4.5148-2.52,6.7806a1.2241,1.2241,0,0,1-1.1409.9317,29.7463,29.7463,0,0,0-12.6292,4.1225C920.2967,558.19,918.8174,559.4354,917.2415,560.6116Z" transform="translate(8.6288)"/><path class="cls-28" d="M850.6229,551.2387c-3.92-5.297-9.3587-8.2927-15.62-9.98a1.6808,1.6808,0,0,1-1.43-1.4455c-.7566-3.7228-1.6005-7.43-2.4064-11.1424a4.8087,4.8087,0,0,1-.0529-.57c7.93,1.8565,14.53,5.52,18.3972,13.0033a7.096,7.096,0,0,1,.2915,2.3824C850.0749,546.06,850.3459,548.6347,850.6229,551.2387Z" transform="translate(8.6288)"/><path class="cls-28" d="M877.5344,574.049c-3.0823-5.8434-7.8762-9.6763-13.6291-12.45a1.7779,1.7779,0,0,1-1.2675-1.7816c-.0657-3.808-.2614-7.6129-.4042-11.42a5.9093,5.9093,0,0,1,.0574-.5943c1.7663.9528,3.4593,1.7806,5.0677,2.7488a23.39,23.39,0,0,1,10.6948,13.2526,3.6019,3.6019,0,0,1,.0845,1.3074c-.1841,2.6242-.3959,5.2475-.59,7.8717C877.5221,573.3374,877.538,573.6945,877.5344,574.049Z" transform="translate(8.6288)"/><path class="cls-28" d="M830.1484,513.3912c6.0989,1.4824,11.424,3.7977,15.4393,8.47a1.8423,1.8423,0,0,1,.3956,1.1983,34.1648,34.1648,0,0,0,1.2239,11.2032c.038.1463.0848.29.1126.4364.0075.0506-.0321.11-.0122.0482-1.5947-1.2569-3.1649-2.6165-4.8614-3.7963a31.198,31.198,0,0,0-8.5547-3.8567,1.167,1.167,0,0,1-.7136-.6463C832.1584,522.1727,831.1816,517.884,830.1484,513.3912Z" transform="translate(8.6288)"/><path class="cls-28" d="M877.0648,557.6879a28.0935,28.0935,0,0,0-11.6786-10.1094,1.2787,1.2787,0,0,1-.8493-1.227c-.1134-3.166-.2754-6.3332-.4063-9.5-.0485-1.1114-.0575-2.2224-.09-3.4539.3275.1093.5464.1644.7472.2564a29.6114,29.6114,0,0,1,10.6749,7.6227c.6038.717,1.0783,1.5434,1.7157,2.2247,1.1106,1.192.6087,2.4569.3155,3.734a31.0724,31.0724,0,0,0-.4467,9.5609C877.0621,557.0055,877.0539,557.2156,877.0648,557.6879Z" transform="translate(8.6288)"/><path class="cls-28" d="M942.819,526.1385c-1.0059,2.7712-1.9208,5.3243-2.8626,7.8675-.534,1.4409-1.136,2.8571-1.6662,4.2993a1.5014,1.5014,0,0,1-1.3878,1.0411,28.6522,28.6522,0,0,0-11.1459,3.807c-.9524.5817-1.8517,1.2475-2.9095,1.9646.3749-1.0061.6984-1.8864,1.0359-2.7571a31.7512,31.7512,0,0,0,1.97-8.8165,1.8783,1.8783,0,0,1,.5713-1.1248,24.6365,24.6365,0,0,1,12.3576-5.6647C940.0482,526.518,941.3315,526.3645,942.819,526.1385Z" transform="translate(8.6288)"/><path class="cls-28" d="M862.5734,541.1159c.0877,1.7255.1728,3.3926.2653,5.2029-.8226-.3416-1.5308-.6344-2.323-.9665.04,1.626.0721,3.1907.12,4.7518.0874,2.8092.1948,5.6161.2609,8.4231a1.0946,1.0946,0,0,1-.3713.7461A24.4375,24.4375,0,0,0,854.122,567.7c-.0741.154-.1762.2954-.4091.6841a7.6772,7.6772,0,0,1-.5495-1.6514c-.3964-5.4126-.189-10.757,1.858-15.8841a23.25,23.25,0,0,1,7.2252-9.5893A1.8083,1.8083,0,0,1,862.5734,541.1159Z" transform="translate(8.6288)"/><path class="cls-28" d="M860.2162,575.7916c-.3809-.1274-.7152-.24-1.17-.3939.05,1.8627.0574,3.6373.1519,5.408.12,2.2442.1549,2.2578-2.0129,2.9433-1.321.4163-2.6634.7707-3.9963,1.1442a4.2317,4.2317,0,0,1-.6122.0575c.1219-8.2052,1.2163-16.0308,7.1591-22.4223C859.894,566.9218,860.053,571.316,860.2162,575.7916Z" transform="translate(8.6288)"/><path class="cls-28" d="M855.93,733.6134c-.9473-.5943-1.9043-1.15-2.7708-1.7685-.2027-.1431-.1918-.5149-.117-.7461.6039-1.87,1.17-3.75,1.8928-5.59,2.38-6.0607,4.8126-12.1059,7.246-18.15.5109-1.2576,1.1217-2.4913,1.74-3.8549C864.0776,705.703,857.4818,730.4514,855.93,733.6134Z" transform="translate(8.6288)"/><path class="cls-28" d="M947.2352,500.8629c-.932,2.6072-1.8488,5.22-2.8143,7.8137a1.2049,1.2049,0,0,1-.7662.6072c-1.8707.4477-3.7929.7267-5.63,1.2826-1.8023.5458-3.5277,1.3519-5.2662,2.0366-.5111-1.728-1.0785-3.5363-1.5452-5.3711-.0675-.2577.2978-.7288.5786-.9566a20.6049,20.6049,0,0,1,7.3183-3.8776c2.6209-.7467,5.3128-1.2462,7.9736-1.8533C947.1333,500.6519,947.1834,500.7584,947.2352,500.8629Z" transform="translate(8.6288)"/><path class="cls-28" d="M883.1491,519.1511c1.7379,3.7187,3.48,7.436,5.192,11.1667a.833.833,0,0,1-.1363.7544c-1.4755,1.34-2.9825,2.6423-4.4668,3.9434a36.9329,36.9329,0,0,0-1.4494-4.1107c-.873-1.8171-1.9728-3.5252-2.9351-5.3014a1.232,1.232,0,0,1-.09-1.0106c1.16-1.87,2.3842-3.6975,3.5868-5.5379C882.95,519.0873,883.0511,519.1186,883.1491,519.1511Z" transform="translate(8.6288)"/><path class="cls-28" d="M846.33,495.862c1.6073,2.2152,3.0516,4.1886,4.4755,6.1771.9359,1.3066,1.8569,2.6194,2.7369,3.96a1.0382,1.0382,0,0,1,.0875.9227c-1.194,1.5906-2.4516,3.1368-3.63,4.6231-1.0075-1.6355-1.9824-3.4022-3.1391-5.0352-.8679-1.2287-1.9805-2.28-2.9571-3.4291-.1654-.1958-.363-.5533-.29-.7346C844.4649,500.238,845.3614,498.1485,846.33,495.862Z" transform="translate(8.6288)"/><path class="cls-28" d="M920.2958,515.9954c2.912-3.0548,5.8535-6.1341,9.0262-9.4577.6512,2.4514,1.25,4.6673,1.8118,6.8927.04.1526-.1664.4438-.3325.562a26.1747,26.1747,0,0,0-7.0481,7.4743,1.2947,1.2947,0,0,1-.2244.2235C922.4741,519.8313,921.4311,517.9951,920.2958,515.9954Z" transform="translate(8.6288)"/><path class="cls-28" d="M1054.135,746.4809c-1.3265-.5858-14.0907.532-15.3016-.0093-.5218-.2347,7.9376-53.2216,7.6808-53.5511-.2467-.3183,3.8118-3.23,3.8329-3.6375A144.3139,144.3139,0,0,1,1052,674.4452c.4758-3.0505,1.0757-6.0871,1.6643-9.1247.4977-2.5729,1.0234-5.14,1.598-7.7.5777-2.5721,1.2221-5.133,1.8552-7.6948.5574-2.2644,1.1237-4.5258,1.7216-6.784.6008-2.268,1.24-4.5307,1.8718-6.7925.5874-2.1021,1.1785-4.2023,1.7894-6.3.5758-1.9732,1.1732-3.9432,1.7736-5.9107q.93-3.0444,1.8874-6.0838c.62-1.9769,1.2424-3.9541,1.8809-5.9274.7181-2.2182,1.4522-4.4324,2.1828-6.6485.1494-.4522.3074-.9023.4627-1.3629,1.161.4488,2.2911.8858,3.4793,1.3473-.2621.8308-.5265,1.6758-.7966,2.52-.6294,1.9735-1.266,3.9484-1.8914,5.9231q-.9466,2.9839-1.8759,5.9678-.9632,3.078-1.9186,6.1564c-.6013,1.9548-1.2013,3.91-1.7775,5.87-.5592,1.8987-1.0916,3.8029-1.6275,5.7052-.5116,1.8169-1.0336,3.6315-1.5143,5.4551-.5419,2.0591-1.05,4.1229-1.5582,6.1889-.438,1.7792-.8686,3.5593-1.2747,5.344-.33,1.4474-.6424,2.8986-.922,4.3539q-.7047,3.6719-1.355,7.3512c-.2842,1.6243-.5768,3.2489-.7592,4.8834-.416,3.7293-.8466,7.458-1.1149,11.2021-.207,2.8993-.1813,5.8191-.2475,8.7316C1055.5214,691.6778,1054.1155,745.8283,1054.135,746.4809Z" transform="translate(8.6288)"/><path class="cls-28" d="M1054.7235,611.0064c1.261-.1036,2.4943-.2044,3.7735-.3094-.0315.82-.0523,1.632-.0989,2.4433-.29,5.0606-.51,10.1281-.8973,15.18-.5087,6.62-1.1447,13.2268-1.7353,19.839-.1355,1.5-.2545,3.0024-.4885,4.4914-.2373,1.5107-.6022,3.0056-.9232,4.5074-.3151,1.4744-.659,2.9468-.9653,4.4241-.4337,2.0916-.8639,4.1837-1.264,6.2811-.3257,1.72-.6033,3.4465-.9027,5.1726-.8184,4.7108-1.2917,9.46-1.8044,14.2071a24.1637,24.1637,0,0,1-.9492,3.8013c-.4765,1.7191-.9831,3.433-1.4886,5.1469-.1867.629-.4,1.2514-.6243,1.8716a.4349.4349,0,0,1-.291.2566c-1.84.2472-3.688.478-5.6369.727.2433-.6178.4779-1.1759.6816-1.7408.8722-2.406,1.7768-4.8073,2.5894-7.2259.71-2.1154,1.3555-4.2467,1.95-6.3854.58-2.0906,1.0911-4.1939,1.57-6.3032.5822-2.5462,1.1348-5.0971,1.63-7.6568.4526-2.3487.8243-4.707,1.2083-7.0644,1.127-6.9118,1.9288-13.8609,2.52-20.8323.507-5.9771.8969-11.9668,1.3118-17.9523.2883-4.1518.5314-8.3077.7937-12.4623C1054.6912,611.2852,1054.71,611.1449,1054.7235,611.0064Z" transform="translate(8.6288)"/><path class="cls-28" d="M1041.798,600.8059c.899-.1756,1.6946-.3293,2.5618-.4992.0533.5162.1,1.01.1568,1.5035a9.881,9.881,0,0,0,1.0135,3.6835,6.4033,6.4033,0,0,0,1.0128,1.4506,2.6877,2.6877,0,0,1,.6128,1.6358c.93,4.8394,1.8769,9.6792,2.74,14.5221.7692,4.3075,1.4381,8.6181,2.15,12.9279a1.0674,1.0674,0,0,1,.002.2661q-.73,7.587-1.4638,15.172a1.7642,1.7642,0,0,1-.1544.5813C1048.58,634.9353,1045.1094,617.8723,1041.798,600.8059Z" transform="translate(8.6288)"/><path class="cls-28" d="M1067.1333,586.2517c4.6572,2.6653,7.8605,6.262,8.6375,11.6585a27.4078,27.4078,0,0,1-.1308,7.9536c-.4641-.1772-.89-.321-1.301-.5006a16.0478,16.0478,0,0,1-5.2591-3.3792,9.0032,9.0032,0,0,1-2.4779-5.8189C1066.3539,592.8677,1066.9058,589.6159,1067.1333,586.2517Z" transform="translate(8.6288)"/><path class="cls-28" d="M1052.8643,614.269c.37-1.4244.6736-2.77,1.0672-4.0889a18.0959,18.0959,0,0,1,3.4054-6.5751,15.754,15.754,0,0,1,8.2275-4.9147c.1237-.0346.2485-.06.4025-.0952a4.3433,4.3433,0,0,1,.4453,3.0482,52.337,52.337,0,0,1-1.9157,6.45,9.2482,9.2482,0,0,1-6.2969,5.438A20.372,20.372,0,0,1,1052.8643,614.269Z" transform="translate(8.6288)"/><path class="cls-28" d="M1076.8282,605.1426c.0542-1.2138.17-2.4265.1482-3.6348-.0244-1.3759-.186-2.7468-.2524-4.1232a1.3347,1.3347,0,0,1,.2282-.8327,13.5922,13.5922,0,0,1,7.0236-4.6622c1.4911-.4252,3.0347-.6671,4.7186-1.0271-.4366,1.2062-.8,2.2158-1.1677,3.2271a39.23,39.23,0,0,1-2.6471,6.2945,9.4476,9.4476,0,0,1-7.7943,4.8076.6154.6154,0,0,1-.1651-.0056A.3483.3483,0,0,1,1076.8282,605.1426Z" transform="translate(8.6288)"/><path class="cls-28" d="M1045.2645,596.0922a21.9509,21.9509,0,0,1,4.3258,2.411,14.22,14.22,0,0,1,5.0328,6.4556,1.08,1.08,0,0,1-.0448.9913,25.6514,25.6514,0,0,0-2.4067,7.0287,2.3056,2.3056,0,0,1-.1015.2957,10.2,10.2,0,0,1-2.8357-1.5968,9.238,9.238,0,0,1-3.5449-6.8129c-.2359-2.4549-.2717-4.9278-.3929-7.3925C1045.2767,597.0526,1045.2767,596.6308,1045.2645,596.0922Z" transform="translate(8.6288)"/><path class="cls-28" d="M1039.2646,599.6063a10.97,10.97,0,0,1-4.2214-1.7851,9.1762,9.1762,0,0,1-3.5111-5.2265c-.7825-2.852-1.4072-5.7487-2.144-8.8031,1.1127.3494,2.0618.6186,2.99.9457a14.6193,14.6193,0,0,1,7.8289,6.0892,1.2485,1.2485,0,0,1,.1992,1.1672A26.807,26.807,0,0,0,1039.2646,599.6063Z" transform="translate(8.6288)"/><path class="cls-28" d="M1070.3468,575.7594c3.8171,2.8518,6.5673,6.2953,7.0946,11.135.3635,3.3446-.2034,7.8731-1.0683,8.7108a1.6411,1.6411,0,0,1-.1444-.2675,16.2274,16.2274,0,0,0-7.0885-9.018.8511.8511,0,0,1-.4858-.9262c.229-1.5668.3909-3.143.6511-4.7049.2454-1.4718.5827-2.9273.8834-4.39C1070.2218,576.1383,1070.2809,575.982,1070.3468,575.7594Z" transform="translate(8.6288)"/><path class="cls-28" d="M1078.365,586.118a15.9972,15.9972,0,0,0-1.66-4.8691,18.2932,18.2932,0,0,0-4.574-5.3441.9816.9816,0,0,1-.4086-1.1125,82.3691,82.3691,0,0,1,2.7908-8.8865c.01-.03.0539-.0495.1613-.1417.701.7914,1.4372,1.5566,2.1005,2.3824a14.66,14.66,0,0,1,3.2994,7.3682,14.9918,14.9918,0,0,1-.2074,5.3834c-.3682,1.573-.8429,3.1218-1.276,4.68A5.443,5.443,0,0,1,1078.365,586.118Z" transform="translate(8.6288)"/><path class="cls-28" d="M1056.5259,594.6725a23.8741,23.8741,0,0,1,1.0473-9.005,14.6333,14.6333,0,0,1,6.3307-7.7036c.6567-.4116,1.3364-.7826,2.011-1.1638.1838-.1056.3868-.1786.6481-.2966.0091,2.5714.1191,5.0636-.0324,7.5373a24.9,24.9,0,0,1-.4392,2.5341c-.0228.135-.2708.2666-.4429.3352a20.3893,20.3893,0,0,0-4.9139,2.729,14.6787,14.6787,0,0,0-3.8466,4.4445C1056.8,594.2392,1056.7019,594.3881,1056.5259,594.6725Z" transform="translate(8.6288)"/><path class="cls-28" d="M1036.4514,560.727c-.96-.74-1.9463-1.5723-3.0042-2.2964a16.7924,16.7924,0,0,0-4.8215-2.1545.994.994,0,0,1-.8286-.8022c-.63-2.7774-1.2972-5.5451-1.9726-8.4089a23.1177,23.1177,0,0,1,4.8973,1.6987,14.5169,14.5169,0,0,1,7.1816,7.7911.6481.6481,0,0,1,.0729.4077C1037.47,558.243,1036.9448,559.5141,1036.4514,560.727Z" transform="translate(8.6288)"/><path class="cls-28" d="M1097.4362,555.1275c-1.0911,2.774-2.1416,5.4636-3.2179,8.1437a.83.83,0,0,1-.5222.46,17.5292,17.5292,0,0,0-8.7732,3.586c-.06-.48-.0763-.8958-.1666-1.2944-.1984-.8769-.4538-1.7431-.64-2.6235a1.13,1.13,0,0,1,.1252-.742,14.7868,14.7868,0,0,1,10.6628-7.2381c.7244-.1291,1.4558-.2205,2.1836-.3238A1.9067,1.9067,0,0,1,1097.4362,555.1275Z" transform="translate(8.6288)"/><path class="cls-28" d="M1048.2449,559.2466c4.2532,1.8521,7.6582,4.4747,9.3474,8.8918.3081.8057.526,1.6458.7585,2.4765a.7746.7746,0,0,1-.0508.5566c-.7024,1.159-1.4314,2.3047-2.119,3.4051-.6353-.7427-1.3079-1.6184-2.0733-2.4061a17.4785,17.4785,0,0,0-4.9063-3.4416.8774.8774,0,0,1-.5772-.8262c-.1143-2.4632-.2415-4.9277-.36-7.3911C1048.2457,560.112,1048.2513,559.7119,1048.2449,559.2466Z" transform="translate(8.6288)"/><path class="cls-28" d="M1055.4018,604.3051a2.4841,2.4841,0,0,1-.154-.7262c.3575-3.83,1.21-7.4992,3.5964-10.6385a16.1385,16.1385,0,0,1,7.25-5.1143c-.1745,1.7276-.4009,3.3126-.4776,4.9059-.08,1.5926-.0094,3.1934-.0037,4.9A17.1042,17.1042,0,0,0,1055.4018,604.3051Z" transform="translate(8.6288)"/><path class="cls-28" d="M1040.34,580.3237c-1.9646-8.2441-.3813-14.546,6.7349-19.5282.1051,1.2479.2158,2.4035.2957,3.56.0784,1.1568.1265,2.3136.192,3.5479-.423-.1655-.8507-.3326-1.3608-.5316.02.8264.0373,1.592.0592,2.3584.02.7184.0775,1.4367.05,2.153a1.0749,1.0749,0,0,1-.3543.7234,15.8414,15.8414,0,0,0-4.2851,4.862C1041.1756,578.38,1040.7884,579.3512,1040.34,580.3237Z" transform="translate(8.6288)"/><path class="cls-28" d="M1045.6524,586.4764c1.1107.5981,2.1321,1.1,3.1042,1.6836a14.4144,14.4144,0,0,1,6.5086,7.9555,2.701,2.701,0,0,1,.0441,1.7054c-.39,1.3762-.6691,2.7863-.9963,4.1914-.3971-.5241-.8023-1.1009-1.25-1.6435a18.6641,18.6641,0,0,0-6.5341-4.8125.7582.7582,0,0,1-.5306-.7272c-.09-2.2443-.2042-4.4871-.3068-6.7311C1045.669,587.621,1045.6681,587.145,1045.6524,586.4764Z" transform="translate(8.6288)"/><path class="cls-28" d="M1078.086,593.794c.1651-1.6292.3175-3.2615.5091-4.8886a1.8239,1.8239,0,0,1,.3737-.7714c2.67-3.7374,6.4412-5.5358,10.88-6.1482.3268-.0462.655-.0892.9848-.1267.1063-.0116.2149,0,.4152.0006-.2831.7755-.5368,1.5131-.8137,2.2391-.6935,1.8211-1.4087,3.6338-2.0868,5.4593a.7949.7949,0,0,1-.7726.55,18.8114,18.8114,0,0,0-6.4431,1.8319C1080.0941,592.48,1079.127,593.1554,1078.086,593.794Z" transform="translate(8.6288)"/><path class="cls-28" d="M1039.4375,588.1336a13.99,13.99,0,0,0-4.5779-3.4069c-1.39-.62-2.8387-1.11-4.28-1.6075a.73.73,0,0,1-.5676-.5732q-.7774-3.4434-1.5579-6.887c-.0849-.374-.1568-.7516-.258-1.2447.6507.18,1.2287.3195,1.7954.4945a15.3021,15.3021,0,0,1,7.9119,5.0832,29.6294,29.6294,0,0,1,1.709,2.6459,1.04,1.04,0,0,1,.1336.5747C1039.6545,584.8477,1039.5431,586.4818,1039.4375,588.1336Z" transform="translate(8.6288)"/><path class="cls-28" d="M1080.1257,558.2256c4.8694,6.404,4.824,12.5553,1.188,19.0894-.1766-1.14-.2869-2.3588-.5622-3.5367a16.2051,16.2051,0,0,0-4.0969-7.2988,1.0213,1.0213,0,0,1-.2072-1.3744C1077.6723,562.84,1078.8786,560.5645,1080.1257,558.2256Z" transform="translate(8.6288)"/><path class="cls-28" d="M1063.5814,567.6036c.2079,1.1338.4112,2.1953.5955,3.2617.2667,1.54.5068,3.0835.7838,4.6209a.8259.8259,0,0,1-.5152.9926,16.4086,16.4086,0,0,0-7.0973,7.1359c-.1439.297-.2647.6056-.3961.91a6.8125,6.8125,0,0,1-.4286.8847,18.4042,18.4042,0,0,1,.5494-10.03C1058.337,572.066,1060.7307,569.6941,1063.5814,567.6036Z" transform="translate(8.6288)"/><path class="cls-28" d="M1042.5333,552.5582c.9507,2.6743,1.8509,5.2243,2.77,7.7682.1294.3552-.0062.5289-.26.7366a18.2477,18.2477,0,0,0-4.6968,5.5251,14.8493,14.8493,0,0,0-1.57,4.8089c-1.0409-1.122-1.8326-6.7978-1.2961-9.9651C1038.0715,557.9351,1040.04,555.18,1042.5333,552.5582Z" transform="translate(8.6288)"/><path class="cls-28" d="M1079.6933,585.5477c.1864-.61.4072-1.2236.5584-1.855.2837-1.1817.45-2.396.8161-3.548a5.0394,5.0394,0,0,1,1.0759-1.6237,15.1036,15.1036,0,0,1,9.4975-4.9354c.4549-.0714.9092-.133,1.3653-.1933.1429-.0184.2889-.013.5156-.0226-.3576.976-.6979,1.9155-1.0479,2.8532-.5122,1.38-1.0358,2.7528-1.5367,4.1344a.7465.7465,0,0,1-.6956.5681,18.1365,18.1365,0,0,0-7.7,2.5136C1081.5561,584.071,1080.6542,584.8305,1079.6933,585.5477Z" transform="translate(8.6288)"/><path class="cls-28" d="M1039.0734,579.8327a16.7242,16.7242,0,0,0-9.5242-6.0854,1.0248,1.0248,0,0,1-.8719-.8814c-.4613-2.27-.9759-4.53-1.4673-6.7939a2.8993,2.8993,0,0,1-.0322-.3478c4.835,1.132,8.86,3.3655,11.2174,7.9286a4.3268,4.3268,0,0,1,.1777,1.4526C1038.7393,576.675,1038.9045,578.2449,1039.0734,579.8327Z" transform="translate(8.6288)"/><path class="cls-28" d="M1055.4824,593.741a17.49,17.49,0,0,0-8.31-7.5911,1.084,1.084,0,0,1-.7728-1.0863c-.04-2.3219-.1594-4.6419-.2465-6.9631a3.6066,3.6066,0,0,1,.035-.3624c1.0769.581,2.1093,1.0857,3.09,1.676a14.2619,14.2619,0,0,1,6.5211,8.0807,2.1985,2.1985,0,0,1,.0515.7971c-.1123,1.6-.2414,3.2-.36,4.8C1055.4749,593.3071,1055.4845,593.5248,1055.4824,593.741Z" transform="translate(8.6288)"/><path class="cls-28" d="M1026.5893,556.7556c3.7188.9039,6.9657,2.3156,9.414,5.1643a1.1238,1.1238,0,0,1,.2412.7307,20.8337,20.8337,0,0,0,.7462,6.831c.0232.0892.0517.1767.0687.2661.0045.0308-.02.067-.0074.0294-.9724-.7664-1.93-1.5954-2.9642-2.3148a19.0216,19.0216,0,0,0-5.2161-2.3516.7114.7114,0,0,1-.4352-.3941C1027.8149,562.11,1027.2193,559.495,1026.5893,556.7556Z" transform="translate(8.6288)"/><path class="cls-28" d="M1055.196,583.765a17.1292,17.1292,0,0,0-7.1209-6.1641.78.78,0,0,1-.5178-.7481c-.0691-1.9305-.1679-3.8616-.2477-5.7926-.03-.6777-.0351-1.3551-.0552-2.106.2.0667.3331.1.4556.1563a18.0557,18.0557,0,0,1,6.5089,4.6479c.3681.4372.6574.9411,1.0461,1.3565.6772.7268.3712,1.4981.1924,2.2767a18.9457,18.9457,0,0,0-.2724,5.83C1055.1944,583.3489,1055.1894,583.477,1055.196,583.765Z" transform="translate(8.6288)"/><path class="cls-28" d="M1095.2888,564.5281c-.6133,1.69-1.1712,3.2465-1.7454,4.7972-.3256.8785-.6926,1.742-1.0159,2.6214a.9156.9156,0,0,1-.8463.6348,17.4717,17.4717,0,0,0-6.796,2.3212c-.5807.3547-1.1291.7607-1.774,1.198.2286-.6135.4258-1.15.6316-1.6812a19.3579,19.3579,0,0,0,1.2012-5.3757,1.1456,1.1456,0,0,1,.3484-.6858,15.0207,15.0207,0,0,1,7.5349-3.454C1093.5994,564.76,1094.3819,564.6659,1095.2888,564.5281Z" transform="translate(8.6288)"/><path class="cls-28" d="M1046.36,573.66c.0535,1.0521.1054,2.0686.1617,3.1724-.5015-.2083-.9333-.3868-1.4164-.5893.0246.9915.044,1.9455.0731,2.8973.0533,1.7129.1187,3.4244.159,5.136a.6671.6671,0,0,1-.2264.4549,14.9,14.9,0,0,0-3.9041,5.1377c-.0452.0939-.1075.18-.25.4172a4.6767,4.6767,0,0,1-.335-1.007,21.4108,21.4108,0,0,1,1.1328-9.6851,14.1776,14.1776,0,0,1,4.4055-5.8469A1.0989,1.0989,0,0,1,1046.36,573.66Z" transform="translate(8.6288)"/><path class="cls-28" d="M1044.9228,594.8035c-.2323-.0777-.4361-.1467-.7132-.24.0307,1.1357.035,2.2178.0926,3.2975.0729,1.3684.0945,1.3767-1.2273,1.7946-.8055.2539-1.624.47-2.4367.6977a2.5867,2.5867,0,0,1-.3733.035c.0743-5.003.7416-9.7745,4.3652-13.6717C1044.7264,589.3953,1044.8233,592.0746,1044.9228,594.8035Z" transform="translate(8.6288)"/><path class="cls-28" d="M1042.31,691.0334c-.5776-.3624-1.1611-.7011-1.6894-1.0783-.1236-.0873-.117-.314-.0714-.455.3683-1.14.7134-2.2863,1.1542-3.4085,1.4513-3.6954,2.9344-7.3814,4.4181-11.067.3115-.7668.684-1.519,1.0606-2.3505C1047.2772,674.0153,1043.2555,689.1054,1042.31,691.0334Z" transform="translate(8.6288)"/><path class="cls-28" d="M1097.9816,549.1166c-.5683,1.59-1.1273,3.1829-1.716,4.7643a.7345.7345,0,0,1-.4672.37c-1.1407.2729-2.3127.4431-3.4327.782-1.099.3328-2.151.8243-3.211,1.2418-.3117-1.0536-.6577-2.1562-.9422-3.2749-.0412-.1572.1816-.4444.3528-.5833a12.562,12.562,0,0,1,4.4622-2.3643c1.5981-.4554,3.2394-.76,4.8618-1.13C1097.9194,548.988,1097.95,549.0529,1097.9816,549.1166Z" transform="translate(8.6288)"/><path class="cls-28" d="M1058.9058,560.2676c1.06,2.2675,2.1221,4.534,3.1658,6.8088a.5079.5079,0,0,1-.0831.46c-.9.8168-1.8185,1.6111-2.7236,2.4045a22.4994,22.4994,0,0,0-.8837-2.5065c-.5323-1.108-1.2029-2.1494-1.79-3.2325a.7515.7515,0,0,1-.0547-.6162c.7072-1.14,1.4537-2.2545,2.187-3.3766C1058.7847,560.2287,1058.8461,560.2478,1058.9058,560.2676Z" transform="translate(8.6288)"/><path class="cls-28" d="M1036.456,546.0674c.98,1.3507,1.8607,2.554,2.7289,3.7664.5707.7967,1.1322,1.5971,1.6688,2.4149a.6331.6331,0,0,1,.0533.5626c-.728.97-1.4948,1.9126-2.213,2.8188-.6143-.9972-1.2088-2.0744-1.9141-3.07-.5291-.7492-1.2075-1.39-1.803-2.0908-.1009-.12-.2214-.3374-.1769-.448C1035.3186,548.7356,1035.8653,547.4615,1036.456,546.0674Z" transform="translate(8.6288)"/><path class="cls-28" d="M1081.5556,558.3435c1.7756-1.8626,3.5691-3.74,5.5036-5.7667.3971,1.4947.7623,2.8458,1.1047,4.2027.0241.0931-.1014.2706-.2027.3427a15.96,15.96,0,0,0-4.2975,4.5574.7872.7872,0,0,1-.1368.1362C1082.8838,560.6824,1082.2478,559.5628,1081.5556,558.3435Z" transform="translate(8.6288)"/></g><path class="cls-29" d="M90.129,132.0452A53.4857,53.4857,0,1,1,143.6464,78.59,53.4871,53.4871,0,0,1,90.129,132.0452" transform="translate(8.6288)"/><polygon class="cls-29" points="91.27 15.815 100.414 0 109.538 15.826 91.27 15.815"/><polygon class="cls-29" points="55.825 32.217 53.928 14.049 70.609 21.487 55.825 32.217"/><polygon class="cls-29" points="36.79 66.321 24.576 52.738 42.446 48.952 36.79 66.321"/><polygon class="cls-29" points="41.437 105.1 23.572 101.289 35.802 87.724 41.437 105.1"/><polygon class="cls-29" points="67.992 133.741 51.296 141.161 53.218 122.995 67.992 133.741"/><polygon class="cls-29" points="106.308 141.305 97.163 157.12 88.04 141.296 106.308 141.305"/><polygon class="cls-29" points="141.753 124.902 143.65 143.071 126.967 135.632 141.753 124.902"/><polygon class="cls-29" points="160.788 90.797 173 104.382 155.132 108.168 160.788 90.797"/><polygon class="cls-29" points="156.14 52.018 174.006 55.831 161.775 69.395 156.14 52.018"/><polygon class="cls-29" points="129.586 23.376 146.282 15.959 144.36 34.125 129.586 23.376"/></g></g></svg>