<svg xmlns="http://www.w3.org/2000/svg" viewBox="0 0 645.08 121.36"><defs><style>.cls-1{fill:#ffce01;}.cls-2{fill:none;stroke:#f27243;}.cls-2,.cls-5{stroke-miterlimit:10;}.cls-3{fill:#eb6a7c;}.cls-4,.cls-5{fill:#3caba1;}.cls-5{stroke:#5d5153;}</style></defs><g id="Layer_2" data-name="Layer 2"><g id="Layer_7" data-name="Layer 7"><path class="cls-1" d="M75.31,79.53l18.85-8.14a25.42,25.42,0,0,0-8.7-10l-.19-.12a27.56,27.56,0,0,0-4.59-2.43c-2.63-1-5.21-2-7.7-2.84-5.34-1.87-10.37-3.65-15-6.67-.58-.4-1.17-.82-1.73-1.24a48.46,48.46,0,0,1-7.74-8,62.77,62.77,0,0,0-8.17-8.64,20.59,20.59,0,0,0-2.08-1.53A24.74,24.74,0,0,0,3.67,63.59a22.93,22.93,0,0,0,7,7.24c4,2.64,8.37,4,12.61,5.3a66.17,66.17,0,0,1,6.91,2.42,45,45,0,0,1,6.59,3.63,61.23,61.23,0,0,1,7.94,6.34,55.81,55.81,0,0,1,4.56,5c2.64,3.14,5.37,6.38,9.25,8.95h0A24.19,24.19,0,0,0,77,105.92,24.45,24.45,0,0,0,92.47,95.54Z"/><path class="cls-2" d="M88.7,73.76c-.18-.36-.38-.71-.58-1.06a19.91,19.91,0,0,0-9.68-8.34c-2.5-1-5-1.9-7.43-2.75-6.43-2.26-12.5-4.4-18.29-8.77a53.61,53.61,0,0,1-8.74-9A59,59,0,0,0,36.59,36,18.64,18.64,0,0,0,22,32a18.89,18.89,0,0,0-13,8.14,19,19,0,0,0-.29,20.33c3.72,6.07,9.84,8,16.32,10a70.45,70.45,0,0,1,7.55,2.66,58.79,58.79,0,0,1,16.2,11.07,60.45,60.45,0,0,1,5,5.5c2.37,2.82,4.83,5.73,8,7.82a18.27,18.27,0,0,0,13.82,2.63,18.51,18.51,0,0,0,11.91-8c.17-.25.33-.5.48-.76"/><path class="cls-1" d="M588.74,47.73l-18.42,1.2A22.81,22.81,0,0,0,574.67,60l.12.16a24.32,24.32,0,0,0,3.15,3.43c1.92,1.7,3.83,3.24,5.67,4.74,3.95,3.2,7.68,6.22,10.64,10.17.38.51.75,1,1.1,1.57a44.17,44.17,0,0,1,4.13,9.12A55.35,55.35,0,0,0,603.79,99a21.6,21.6,0,0,0,1.29,1.93A22.25,22.25,0,0,0,644.6,82.87a20.4,20.4,0,0,0-3.77-8.26c-2.58-3.44-5.88-5.91-9.08-8.3a60.9,60.9,0,0,1-5.12-4.13,40,40,0,0,1-4.48-5.07,55.3,55.3,0,0,1-4.82-7.77A50.33,50.33,0,0,1,615,43.73a39.54,39.54,0,0,0-5.13-10.37h0a21.78,21.78,0,0,0-14.56-8.5A22.09,22.09,0,0,0,579.05,29Z"/><path class="cls-2" d="M575.67,48.58c0,.35.09.71.16,1.06A17.57,17.57,0,0,0,579,56.86a17.89,17.89,0,0,0,2.52,2.78c1.81,1.61,3.67,3.11,5.46,4.57,4.77,3.86,9.27,7.5,12.85,13a48.52,48.52,0,0,1,4.69,10.24,53.33,53.33,0,0,0,3.88,8.89,17,17,0,0,0,24.58,4.8A17.11,17.11,0,0,0,639.36,84c-1.32-6.27-5.93-9.72-10.81-13.37a62.27,62.27,0,0,1-5.6-4.53A52.85,52.85,0,0,1,612.57,51.8a55.26,55.26,0,0,1-2.6-6.19,35.38,35.38,0,0,0-4.39-9,16.35,16.35,0,0,0-10.9-6.4,16.66,16.66,0,0,0-12.49,3.13l-.64.5"/><path class="cls-3" d="M507,35.23a15.08,15.08,0,0,0-5.31,1V50.87l-12.78-9.45C465.32,53.58,453.51,76.1,453.51,76.1A14.16,14.16,0,0,0,477,91.73c15.74-16.61,30.32-24.81,35.43-27.38a13.82,13.82,0,0,0,1.94-.93A15.08,15.08,0,0,0,507,35.23"/><path class="cls-3" d="M309.71,86.52a9.06,9.06,0,0,0-1-1.41A94.85,94.85,0,0,1,295.5,59l-9-.66L293.68,52a9.69,9.69,0,1,0-18.75,4.83c8.18,33.92,19,42.32,19,42.32a10.2,10.2,0,0,0,15.82-12.62"/><path class="cls-3" d="M399.7,69.5l-8.72-14,15,.77c.41-.78.77-1.52,1.2-2.3a15.15,15.15,0,1,0-26-15.51s-16.42,27.27-21.23,66h.1a16.18,16.18,0,0,0-.1,1.71,15.16,15.16,0,0,0,30.31,0s-.38-13.65,9.43-36.71"/><path class="cls-4" d="M198.5,31.33c-.41-6.57,4.68-12.79,12.12-14.75a17,17,0,0,1,11.86,1,12.33,12.33,0,0,1,6.77,7.92,11.39,11.39,0,0,1,.37,2.24c.42,6.57-4.68,12.77-12.12,14.76a17.06,17.06,0,0,1-11.86-1,12.34,12.34,0,0,1-6.77-7.91,11.39,11.39,0,0,1-.37-2.24"/><path class="cls-4" d="M179.62,63.78c-4.66-4.67-4.93-12.69-.66-19.09a17,17,0,0,1,9.57-7.09,12.41,12.41,0,0,1,10.32,1.47,11.45,11.45,0,0,1,1.75,1.44c4.66,4.65,4.93,12.68.66,19.07a17,17,0,0,1-9.57,7.1,12.39,12.39,0,0,1-10.31-1.47,11.58,11.58,0,0,1-1.76-1.43"/><path class="cls-4" d="M160.54,91.65c-4.22-5.06-3.77-13.08,1.07-19.06a17.06,17.06,0,0,1,10.17-6.19,12.44,12.44,0,0,1,10.15,2.4,12.73,12.73,0,0,1,1.61,1.59c4.21,5.07,3.76,13.09-1.08,19.06a17,17,0,0,1-10.16,6.19,12.37,12.37,0,0,1-10.15-2.4,10.52,10.52,0,0,1-1.61-1.59"/><path class="cls-4" d="M128.85,104.84c-2-6.29,1.47-13.53,8.22-17.24a17,17,0,0,1,11.75-1.88,12.42,12.42,0,0,1,8.47,6.06,11.66,11.66,0,0,1,.9,2.09c2,6.28-1.48,13.53-8.22,17.23A17,17,0,0,1,138.22,113a12.38,12.38,0,0,1-8.48-6.06,11.84,11.84,0,0,1-.89-2.08"/><path class="cls-5" d="M245.91,13.5l11.19,6.26a12.82,12.82,0,0,0,2.14-10.43,10.26,10.26,0,0,0-.54-1.56,12,12,0,0,0-7.83-6.6,17.7,17.7,0,0,0-12,.9c-7.38,3.19-11.68,10.43-10,16.83a11.53,11.53,0,0,0,.54,1.56,12,12,0,0,0,7.82,6.6,17.1,17.1,0,0,0,8.48.21Z"/></g></g></svg>