<svg xmlns="http://www.w3.org/2000/svg" viewBox="0 0 1455 309.9"><defs><style>.cls-1{fill:#5d5152;}.cls-2{fill:none;stroke:#fff;stroke-linecap:round;stroke-linejoin:round;}</style></defs><g id="Layer_2" data-name="Layer 2"><g id="Layer_7" data-name="Layer 7"><path class="cls-1" d="M1455,1.86C1279.74.1,1094.69,13.6,1094.69,13.6S887.18,31,577.74,13.6,0,13.6,0,13.6V309.9H1455Z"/><path class="cls-2" d="M154.76.5s13.71,18.67,5.87,49.91-1.72,50.64-1.72,50.64,3.69,13.51-4.15,19.42-37.2,16.88-37.2,16.88S82.8,153.81,76.93,193.48s-19.09,38-19.09,38"/><path class="cls-2" d="M225.25,244.54c-6.85-10.55-32.31-19-32.31-19s-9.79-5.07-14.68-40.93-23.5-64.15-23.5-64.15-1,29.54-29,48.11S95,202.06,95,202.06"/><path class="cls-2" d="M208.29,255.51s-10.77-21.66-19.91-35.31c0,0-10.44,8.72-4.57,20.33s.65,37.21.65,37.21"/><path class="cls-2" d="M138.12,247.07s4.62-20,32.31-31.51c14.2-5.9,9.89-18.81,9.89-18.81"/><path class="cls-2" d="M157.22,69.89S190.5,77,195.15,103.17s35,20.25,35,20.25,11.26-3.8,28.88,20.68"/><path class="cls-2" d="M156.67,79.12s-37,30.69-31,69.15S95,233.57,95,233.57"/><path class="cls-2" d="M164.77,139.29S181.2,142,192,152.12a50,50,0,0,0,23.5,12.24s27.89,13.08,33.77,25.74,26.93,13.08,26.93,13.08"/><path class="cls-2" d="M166.87,144.1s7,25.75-35.12,30.81"/><path class="cls-2" d="M162.57,39.86s18.63.63,24,7.07a17.33,17.33,0,0,0,13.21,6s19.09,3.94,23.5,17"/><path class="cls-2" d="M158.91,101.05s-.23,8-17.37,8.87a63.53,63.53,0,0,0-28.87,8.43s-19.09,9.71-33.29,10.13"/></g></g></svg>