<svg xmlns="http://www.w3.org/2000/svg" viewBox="0 0 1582.43 711.99"><defs><style>.cls-1{fill:#ffce01;}.cls-2,.cls-3{fill:none;stroke-miterlimit:10;}.cls-2{stroke:#5d5153;stroke-width:0.52px;}.cls-3{stroke:#3caba1;stroke-width:5px;}.cls-4{fill:#3caba1;}</style></defs><g id="Layer_2" data-name="Layer 2"><g id="Layer_7" data-name="Layer 7"><polygon class="cls-1" points="810.36 160.27 812.56 159.01 812.56 161.54 810.36 160.27"/><polygon class="cls-1" points="595.05 271.23 596.14 270.59 596.14 271.86 595.05 271.23"/><polygon class="cls-1" points="965.05 258.23 966.14 257.59 966.14 258.86 965.05 258.23"/><path class="cls-1" d="M1185.05,132.05a53.49,53.49,0,1,1,53.49-53.49,53.49,53.49,0,0,1-53.49,53.49"/><polygon class="cls-1" points="1177.49 15.82 1186.63 0 1195.76 15.82 1177.49 15.82"/><polygon class="cls-1" points="1142.06 32.24 1140.15 14.08 1156.84 21.5 1142.06 32.24"/><polygon class="cls-1" points="1123.04 66.36 1110.82 52.78 1128.69 48.99 1123.04 66.36"/><polygon class="cls-1" points="1127.71 105.14 1109.85 101.34 1122.07 87.76 1127.71 105.14"/><polygon class="cls-1" points="1154.29 133.76 1137.59 141.19 1139.51 123.02 1154.29 133.76"/><polygon class="cls-1" points="1192.61 141.3 1183.47 157.12 1174.34 141.3 1192.61 141.3"/><polygon class="cls-1" points="1228.04 124.88 1229.95 143.04 1213.26 135.62 1228.04 124.88"/><polygon class="cls-1" points="1247.06 90.76 1259.28 104.34 1241.41 108.14 1247.06 90.76"/><polygon class="cls-1" points="1242.38 51.98 1260.25 55.79 1248.03 69.36 1242.38 51.98"/><polygon class="cls-1" points="1215.81 23.36 1232.5 15.93 1230.59 34.1 1215.81 23.36"/></g><g id="Layer_10" data-name="Layer 10"><path class="cls-2" d="M553.73,375.9c.18,2.63-1.29,5.08-2.86,7.2-7,9.45-20.37,11.7-31.72,11.38-12.2-.35-24.22-4.73-36.37-3.55a79.91,79.91,0,0,0-12.5,2.57l-18.8,4.91c-5.52,1.44-10.3,1.13-16,.95-12.41-.41-24.79-1.27-37.19-1.91-24.24-1.25-48.76-1.61-72.61,3.6-31.76,6.94-57,25.53-85.34,39.2-17.43,8.42-36.34,21.07-56.06,25.25-15.94,3.37-27-3-42.4-5.16-15.53-2.21-35.79-3-49.7,5.05-16,9.21-18.27,27.66-36.58,36.09"/><path class="cls-2" d="M555.05,377.07c-2.11,4.07-5.77,7.1-9.55,9.7-11.71,8.07-25.68,12.29-39.23,16-14.87,4.05-30.22,7.05-45.69,7-12.71-.05-25.93-.11-38-4.33-11.11-3.87-21.22-10.07-32.11-14.45-28.69-11.53-59-9.91-89.22-11.49-34.89-1.82-63.37,5.18-91.71,22.78-23.69,14.71-42,28.44-52,53.05-11.39,28-20.19,52.44-36.23,79.12C107,558.17,96.18,582.41,84.19,607c-9.51,19.52-17.08,49.85-34,65.33"/><path class="cls-2" d="M554,378.44a32.51,32.51,0,0,1-7.67,8.93c-2.91,2.42-6.3,4.18-9.19,6.56-6.48,5.33-15,8.8-22.91,11.45a133.31,133.31,0,0,1-29.11,6.08,143.36,143.36,0,0,1-28.55.08c-48.9-5-104.78-58.69-147.11-21.37-30,26.47-76.51,71.89-82.2,109.75-1.9,12.7,7.12,24.41,4.06,38.17-4.23,19-17.24,37.7-30.89,52.75"/><path class="cls-2" d="M297.79,379.32c-16.26-.57-55.23,26.57-65.69,37.86-10.3,11.11-23.34,29.28-29.16,42.57-7.71,17.62,1.2,20.7,13.37,35.27,57.39,68.69-79.53,76.36-69.52,138.14"/><path class="cls-2" d="M267.46,425.8c-12.36,6.73-31.94,24.55-42.39,35.66-11.28,12-27,27.52-35,40.71-7.29,12-6.63,27.26-18.64,36.95-30,24.16-51-16.5-81.47-11.33-23.77,4-27.45,23.19-34.38,36.4"/><path class="cls-2" d="M554.6,375.5a31,31,0,0,1-7.4,14.28,68.08,68.08,0,0,1-12.33,10.56,90.32,90.32,0,0,1-19.61,10.9c-3.9,1.48-7.94,2.56-11.87,4-5.36,1.94-10.41,4.43-16,5.72a115.59,115.59,0,0,1-18,3.11,104.48,104.48,0,0,1-21-1c-6.71-.86-13.43-1.16-20.15-1.9-13.56-1.49-26.95-4.17-40.35-6.69-6.56-1.24-13.14-2.43-19.75-3.44-23.19-3.53-47.39-4.3-69.14,5.85-17.86,8.32-30.06,17.3-50.14,23.24-25.55,7.56-42.82,8.41-59.21,25-10.18,10.29-29.2,32.47-28.57,44.64.92,17.69,20.39,33.21,20.5,52.94"/><path class="cls-2" d="M553.46,375.62l-1.31,4.54a9.6,9.6,0,0,0-.34,1.48,8.87,8.87,0,0,0,.07,2.06,18.93,18.93,0,0,0,.59,3.51c.87,3,1.3,6,2.46,8.93a27.36,27.36,0,0,0,3.89,6.86c4,5,9.8,7.83,15.94,9.19,9.57,2.13,19.71,1.43,29.35.28,13.92-1.68,28.49,1.87,42.1,4.39,15.4,2.85,31.2,6.18,46.95,5.44,12.84-.61,25.7-5,31.45-17.41,1.88-4.07,2.12-7.36,2.19-11.75.11-6.25-.19-12.77-3-18.48"/><path class="cls-2" d="M553.23,379.67a.26.26,0,0,0-.37,0,25.86,25.86,0,0,0-1.67,6.79,6.32,6.32,0,0,0,.84,3.94,7.39,7.39,0,0,0,1.55,1.56c3.73,3,8.19,4.64,12.59,6.37a126.05,126.05,0,0,0,12.47,4.07,243.5,243.5,0,0,0,30.05,6q11.17,1.61,22.43,2.52c18.41,1.54,34.67-6.76,52.12-5.43,9.8.74,22,3.84,29.48-4.79,2.81-3.25,3.56-7.61,5.06-11.51a104.06,104.06,0,0,1,6.56-13.05"/><path class="cls-2" d="M725.4,374.54a73.12,73.12,0,0,0-6.14,13.72c-2.14,5.84-.28,14.28,3.6,19.1,9.87,12.26,30.72,12.06,44.88,11.11,7.45-.5,15.17-.9,22.28-3.38,5.6-1.95,9.05-6,13.79-9.35s8.09-7.51,11.91-11.64"/><path class="cls-2" d="M922.64,346.09c-6.51,35.17,68.8,38.55,95.54,39.42,37.58,1.22,69.16-11.19,105.19-16.88,36.21-5.73,72.1-3.48,108.52-.4,34.86,2.95,41.27,10,68.42,26.29,30.24,18.16,60.09,26.41,82.16,53.34,39,47.53,101,99.08,173.52,97.52"/><path class="cls-2" d="M1259.75,372.93c49.78-2.38,106.79,33,149.42,53.23a388,388,0,0,0,58.09,21.64c30.65,8.92,59.93,8.79,91.71,7.62"/><path class="cls-2" d="M921.13,336.87c2.53,35.25-12.39,74.31,41.18,80.34,74,8.33,150-15.45,223.87-13,25.46.84,51.12-.83,76.65-1.5,12.58-.32,25.56-.59,37.27,4,18.27,7.17,30.2,24.73,46.6,35.5,24.57,16.15,56.12,15.49,85.49,14.26"/><path class="cls-2" d="M945.64,375.09c2.16,42.85,50.26,45.69,94.91,40.55,18.16-2.08,35.18-7.89,52.66-2.38,15.56,4.91,29.36,12.11,45.39,15.71,18.37,4.12,37.76,1.22,55.7-3.62,31.49-8.48,60.35-21.41,93.5-21.63"/><path class="cls-2" d="M1082.62,369.58c25.63,6,55,13,71.39,31.57,20.71,23.4,41.77,35.41,73.67,34.6,40.61-1,81.93-3.2,122.38,1.74,31,3.79,66.78,6.75,90.37,29.82,16.52,16.17,23.78,39.48,37.48,58.09,16.48,22.39,40.2,31.72,64.23,43.61"/><path class="cls-2" d="M1372.77,407.92c29.28,14,47.76,60.66,43.37,89.77-4.79,31.88-56.38,65.41-35.41,99.42"/><path class="cls-2" d="M1423.93,432.53c28.69,17.26,31,44.06,29.73,73-1.74,38.14,31.74,84.93,79.08,90"/><path class="cls-2" d="M922.88,364.79a8.37,8.37,0,0,1-2.39,4.23,35.8,35.8,0,0,1-6.69,5.09c-15.39,10-28.57,21.4-47.42,24.17a69.06,69.06,0,0,1-20.3.05c-6.6-1-12.87-3.94-19.55-4.3-5.23-.28-10.47,0-15.64-1s-10.3-2.47-15.41-3.79c-11.73-3-24-5.29-35.69-1-8.6,3.15-41.43,27-38.95,3.47"/><path class="cls-2" d="M562.09,396.56c1.6,2.3,2.61,4.86,4.42,7.07a47.82,47.82,0,0,0,6,6,60.5,60.5,0,0,0,8.33,6.27c5.94,3.52,12.71,5.95,19.14,8.44,3,1.16,6.52,1.12,9.7.86,6.26-.5,12.29-2.36,18.38-3.77,21.69-5,40.71-8.44,62.46-9.29,15.9-.62,29.91-5.7,32.1-20.38"/><path class="cls-2" d="M724.92,376.41c.09,5.27-1.38,10.62-2.44,15.75-.56,2.71.51,4.56,2.07,6.77a31.16,31.16,0,0,0,9.77,8.61c12.22,7.19,27.29,9.33,41.17,10.57,16.48,1.47,33.09,1.22,49.59.33,12.85-.69,25.67-1.88,38.48-3.19,40.05-4.1,62.85-37.92,59.36-72.1"/><path class="cls-2" d="M920.64,342.09c7,23,2.63,36.83,20.38,49.69,21.33,15.45,48.74,7.31,65.87-4.62,18.34-12.77,44.11-23.61,68-19.4,13.08,2.3,44.44,17.31,53.64.1"/><path class="cls-2" d="M923.64,366.09c-.88,22.86,7.38,30.24,29.51,38.43,25.31,9.37,43.65,17.52,71.58,11.15,26.85-6.12,51.42-16.93,78.67-21.89,17.55-3.19,28.19-5.95,43,1.49,11.44,5.76,17.74,13.6,31.71,16.93,45.41,10.81,68.4-20.37,89.68-36.36"/><path class="cls-2" d="M1115,408.18c34.36-1.33,34.71-46.17,69.93-42.9"/><path class="cls-2" d="M1124.82,372.4c-6.83,10.61-31.37,15-42.43,25.17-7.27,6.66-10,17.84-21.77,17"/><path class="cls-2" d="M1026.56,385.56c10.21,3.82,23.42,2.6,34.06,7.76,11.64,5.64,15.62,11.87,29.52,14.17,25.81,4.28,55-4.34,79.21-11,23.28-6.45,38.94-15.42,64.74-12.19,22.61,2.83,42.4,17.75,65.82,17.75,17.57,0,40.2-3,56.93,2.9,13.66,4.78,25.44,16.41,38.27,23.34,14.16,7.64,28.5,15.13,38,28.61,15.24,21.51,15.13,50.13,12.1,76.31s-8.34,53.08-1.5,78.54c8.86,33,36.92,58.62,43.67,92.08"/><path class="cls-2" d="M1582.39,500.72c-11.79-1.51-23.47,1.5-35.8-.55A157.71,157.71,0,0,1,1504.67,487c-14.84-7.08-28.48-16.38-43.26-23.57-13.21-6.43-25.93-8.3-39.94-11.48-34.5-7.85-66.54-20.75-102.24-23.91-21.09-1.87-59.16,8.3-73.1-13.52-10.67-16.72,16.71-43.22-22.64-47"/><path class="cls-2" d="M1381.51,413.38c.76,27.64,10.92,33.1,32.82,47.9,21.65,14.62,35.28,43.18,26.52,67.79-3.26,9.17-9.21,17.07-14.28,25.37A148.19,148.19,0,0,0,1405,632.81c.11,10.46,1.38,21.05,5.37,30.72,9,21.73,30,35.65,49.83,48.24"/><path class="cls-2" d="M1427.23,433.86c21,10.08,33.12,35.8,51.87,50,25.48,19.33,40.22,48.62,31.87,79.68-6,22.45-20.28,30-8.63,54,10.86,22.36,28.27,51.68,48.29,68.89"/><path class="cls-2" d="M1468.66,448.21c11.48,19.08,30.24,34.76,28.44,58.76-2.68,35.51-40.7,64.7-68,82.14-5.6,3.58-11.23,7.19-16.11,11.7-11.89,11-18.56,26.67-21.47,42.58s-2.38,32.22-1.84,48.39"/><path class="cls-2" d="M544.34,393A59.14,59.14,0,0,1,536,405.63a100,100,0,0,1-10.63,10.85,25.39,25.39,0,0,1-8.28,4.73c-23.63,7.83-52.15-9.6-71.25-18.88C428.7,394,401.8,383,383,385.93"/><path class="cls-2" d="M366.08,380.31c12.78,2.66,30.52,20.51,40.05,29.89,16.2,16,29,17.16,53.53,19.12,27.52,2.2,47-.45,72-10.5,16.56-6.66,34.81-16.4,53.71-16.1,24.85.4,48.19,12.4,74.76,12.54,18.7.1,40.93-2,56.43-13.54a25.79,25.79,0,0,0,7.64-8.41c2.14-4.09,1.67-8.12,2-12.55.14-1.7.25-3.62-.88-4.89"/><path class="cls-2" d="M724.26,375.63c5.64,13.87,7.71,27.12,24.5,34.14,18.72,7.83,48.75,8.49,68.94,6.27,26.45-2.91,62.22-35.82,87.18-26.76,12.22,4.44,13.85,17.34,24.64,23.67,9.34,5.48,21.83,5.9,32.73,3.83a71.62,71.62,0,0,0,26.62-10.64,60.89,60.89,0,0,0,10.31-8.72c3.62-3.83,7.65-6.45,12-9.47a34.28,34.28,0,0,1,6.18-3.63,11.3,11.3,0,0,1,7-.75"/><path class="cls-2" d="M923.35,361.48a51.89,51.89,0,0,1-12.9,18.79c-3.81,3.53-8.14,6.46-12,9.94-.77.69-1.52,1.41-2.23,2.15-5.38,5.59-6.28,12.75-10.54,18.92a22.74,22.74,0,0,1-11.91,8.8c-12.07,3.91-26,2-38.48,3-27.1,2.12-57.48,15.88-84.42,14.17-11.67-.74-32.33-8.48-37.31-18.84-2.84-5.9-1.27-10.83,2.13-16,4.11-6.26,5.94-12.41,7.82-19.65.59-2.28,1.19-4.68.62-7"/><path class="cls-2" d="M553.59,372l-.45,6.71a16.85,16.85,0,0,0,0,3.55c.46,3.26,2.73,5.93,5,8.3a107.09,107.09,0,0,0,11.14,10c3.27,2.55,6.78,5.58,10.72,6.95,9.44,3.28,20.12,1.34,29.57-.82,9.68-2.23,19.16-5.61,29-7.16,14.75-2.33,26.61-4.21,39.43-3.06,8.91.8,17.53,3.91,26.55,3.61,4-.13,8.76-1,11.87-3.74,1.82-1.61,2.71-4.52,3.79-6.69l4.28-8.55a8.35,8.35,0,0,0,1.23-4.32"/><path class="cls-2" d="M552.66,382.14a7.12,7.12,0,0,0,4.05,4.34,21.16,21.16,0,0,0,5.94,1.44c7.42,1.05,14.67,1.79,22.1.36,6.44-1.24,12.43-3.32,19.07-2.36,13.35,1.91,26.94,1.24,40.23,3.5a54.94,54.94,0,0,1,16.07,5.07c14.29,7.41,20.71,20.44,38.86,24.33,6.15,1.32,13.36,2,18.95-1.51A23.46,23.46,0,0,0,725,410a18.24,18.24,0,0,0,.88-1.84c.86-2,1.74-4,1.56-6.16"/><path class="cls-2" d="M923.15,363c-2.43,3.85-6.71,6.2-11.12,7.35s-9,1.26-13.54,1.58c-16.32,1.18-32.18,5.63-44.71,16.42-11.2,9.64-25,18.93-40,20.77-16.09,2-33.58-7.39-48.74-3.61-11.64,2.9-17.24,12.39-28.56,18.43-30.58,16.3-79.64,2.09-115.7,3.91-15.77.8-39,12.6-53.56,7.69-9.57-3.23-15-8.47-17.51-18.12-3.17-12.28-3.69-26.34,1.71-38.07a6.47,6.47,0,0,1,1.19-1.91c.73-.73,1.88-1.62,1.34-2.5"/><path class="cls-2" d="M253.06,383.54c-3.7,4.08-22.59,7.77-31.12,14.36-16.32,12.6-28.84,27.37-51.33,31.11-45.06,7.49-104-32.45-145.43-12.18"/><path class="cls-2" d="M262.63,393.89c-17.55-.67-58.19,7.68-74.53,15.05-25,11.28-47.48,40.19-65.51,59.31C93.12,499.49,42,530.74.14,503.05"/><path class="cls-2" d="M1369.13,406.09c14.36,5.85,3.22,50.15,2.66,62.27-2.15,46.33,43.28,57.29,81.82,75.8,9.78,4.69,28.56,15,32.46,24.81,3.37,8.51-5.31,17.28-3.48,24.93,6.51,27.19,47.08,10.17,62.67,22"/><path class="cls-3" d="M921.32,372.67s5.15-16-1.26-37c-6.16-20.17,12.56-24,12.56-24"/><path class="cls-3" d="M917.74,300.31s2-12.12-14.52-17.91"/><path class="cls-4" d="M909.43,310.65s-10.48-8.42-20.75-12a99.09,99.09,0,0,1-10.92-4.76c2.56.39,5.24,1.41,12.38,4.12,7.33,2.54,15.17,7.94,19.5,11.82.57-1.12,2-3.5,1.86-5.45-1.47-26.78-41-28.79-41-28.79-21.6-.29-26.46,10.07-26.46,10.07,7.77.58,19.42,20.44,19.42,20.44S880.67,332,905.67,320.8c7-3.15,2.67-9.22,2.67-9.22s.25.29,1.09-.93"/><path class="cls-4" d="M951.85,271.81s-27.78,10.51-24.42,34.41a10.09,10.09,0,0,0,1,3.26c31.53-18.16,48.7-17.75,48.7-17.75-20.83,1.77-48.54,19.91-48.55,19.92.76.72,2.65.34,4.09,0,0,0-4.56,4.71,1.69,9.05,0,0,27.2,13.75,60-18.47C1010.8,286,1014.14,291,1014.14,291s-17.71-34.41-62.29-19.2"/><path class="cls-3" d="M723.19,386.83c.88-6.54,3.21-12.77,4.09-19.31a140.84,140.84,0,0,0-4.2-58.92c-.29-1-.59-2-.9-3.06-12.35-40.42,25.17-48.18,25.17-48.18"/><path class="cls-3" d="M717.53,234.64s4-24.3-29.1-35.91"/><path class="cls-4" d="M700.87,255.36s-21-16.88-41.57-24a200.66,200.66,0,0,1-21.91-9.53c5.13.77,10.51,2.81,24.81,8.26,14.71,5.07,30.42,15.91,39.1,23.68,1.14-2.24,3.94-7,3.72-10.93-2.94-53.67-82.23-57.71-82.23-57.71-43.31-.58-53,20.2-53,20.2,15.57,1.15,38.93,41,38.93,41s34.54,51.94,84.66,29.43c14.06-6.31,5.36-18.46,5.36-18.46s.49.56,2.17-1.87"/><path class="cls-4" d="M785.91,177.51s-55.69,21.05-49,69a20.68,20.68,0,0,0,1.91,6.53c63.2-36.38,97.63-35.57,97.63-35.57-41.77,3.54-97.31,39.92-97.32,39.93,1.52,1.45,5.3.68,8.18,0,0,0-9.13,9.43,3.4,18.15,0,0,54.53,27.56,120.24-37C904.06,206,910.77,216,910.77,216s-35.5-69-124.86-38.47"/><path class="cls-3" d="M552.32,382.67s5.15-16-1.26-37c-6.16-20.17,12.56-24,12.56-24"/><path class="cls-3" d="M548.74,310.31s2-12.12-14.52-17.91"/><path class="cls-4" d="M540.43,320.65s-10.48-8.42-20.75-12a99.09,99.09,0,0,1-10.92-4.76c2.56.39,5.24,1.41,12.38,4.12,7.33,2.54,15.17,7.94,19.5,11.82.57-1.12,2-3.5,1.86-5.45-1.47-26.78-41-28.79-41-28.79-21.6-.29-26.46,10.07-26.46,10.07,7.77.58,19.42,20.44,19.42,20.44S511.67,342,536.67,330.8c7-3.15,2.67-9.22,2.67-9.22s.25.29,1.09-.93"/><path class="cls-4" d="M582.85,281.81s-27.78,10.51-24.42,34.41a10.09,10.09,0,0,0,1,3.26c31.53-18.16,48.7-17.75,48.7-17.75-20.83,1.77-48.54,19.91-48.55,19.92.76.72,2.65.34,4.09,0,0,0-4.56,4.71,1.69,9.05,0,0,27.2,13.75,60-18.47C641.8,296,645.14,301,645.14,301s-17.71-34.41-62.29-19.2"/></g></g></svg>