<svg xmlns="http://www.w3.org/2000/svg" viewBox="0 0 1582.4265 1331.6366"><defs><style>.cls-1{fill:#ffce01;}.cls-2,.cls-26,.cls-27,.cls-7{fill:none;}.cls-2{stroke:#f27243;}.cls-2,.cls-26,.cls-27,.cls-5{stroke-miterlimit:10;}.cls-3{fill:#eb6a7c;}.cls-4,.cls-5{fill:#3caba1;}.cls-26,.cls-5{stroke:#5d5153;}.cls-6{fill:#5d5152;}.cls-7{stroke:#fff;stroke-linecap:round;stroke-linejoin:round;}.cls-8{font-size:45.405px;fill:#fff;font-family:Acre-Light, Acre;font-weight:300;}.cls-9{letter-spacing:-0.019em;}.cls-10{letter-spacing:-0.012em;}.cls-11{letter-spacing:0em;}.cls-12{letter-spacing:-0.009em;}.cls-13{letter-spacing:0em;}.cls-14{letter-spacing:-0.016em;}.cls-15{letter-spacing:-0.01em;}.cls-16{letter-spacing:-0.014em;}.cls-17{letter-spacing:-0.014em;}.cls-18{letter-spacing:-0.015em;}.cls-19{letter-spacing:-0.019em;}.cls-20{letter-spacing:-0.005em;}.cls-21{letter-spacing:-0.004em;}.cls-22{letter-spacing:-0.02em;}.cls-23{letter-spacing:-0.002em;}.cls-24{letter-spacing:-0.015em;}.cls-25{letter-spacing:-0.027em;}.cls-26{stroke-width:0.5226px;}.cls-27{stroke:#3caba1;stroke-width:5px;}</style></defs><g id="Layer_2" data-name="Layer 2"><g id="Layer_10" data-name="Layer 10"><polygon class="cls-1" points="810.36 160.274 812.558 159.006 812.558 161.544 810.36 160.274"/><polygon class="cls-1" points="595.047 271.226 596.144 270.593 596.144 271.86 595.047 271.226"/><polygon class="cls-1" points="965.047 258.226 966.144 257.593 966.144 258.86 965.047 258.226"/><path class="cls-1" d="M1185.05,132.0462a53.4858,53.4858,0,1,1,53.4853-53.4872,53.4872,53.4872,0,0,1-53.4853,53.4872"/><polygon class="cls-1" points="1177.493 15.82 1186.627 0 1195.761 15.82 1177.493 15.82"/><polygon class="cls-1" points="1142.057 32.244 1140.15 14.077 1156.835 21.505 1142.057 32.244"/><polygon class="cls-1" points="1123.043 66.359 1110.821 52.783 1128.688 48.986 1123.043 66.359"/><polygon class="cls-1" points="1127.714 105.136 1109.846 101.336 1122.068 87.763 1127.714 105.136"/><polygon class="cls-1" points="1154.285 133.761 1137.594 141.191 1139.505 123.024 1154.285 133.761"/><polygon class="cls-1" points="1192.606 141.301 1183.471 157.122 1174.338 141.303 1192.606 141.301"/><polygon class="cls-1" points="1228.042 124.877 1229.949 143.044 1213.262 135.616 1228.042 124.877"/><polygon class="cls-1" points="1247.055 90.76 1259.276 104.339 1241.41 108.135 1247.055 90.76"/><polygon class="cls-1" points="1242.384 51.984 1260.252 55.786 1248.03 69.358 1242.384 51.984"/><polygon class="cls-1" points="1215.813 23.358 1232.504 15.931 1230.594 34.098 1215.813 23.358"/><path class="cls-1" d="M522.239,715.2079l18.8494-8.1384a25.4021,25.4021,0,0,0-8.7033-10.0091l-.1875-.1209a26.9629,26.9629,0,0,0-4.5856-2.4268c-2.6364-1.0568-5.2114-1.9593-7.7047-2.8443-5.3342-1.8669-10.3683-3.6452-14.9479-6.6724-.5843-.3962-1.1718-.812-1.7312-1.2322a48.6722,48.6722,0,0,1-7.7347-8.02,62.4379,62.4379,0,0,0-8.1776-8.6427,23.832,23.832,0,0,0-2.0734-1.5363,24.7425,24.7425,0,0,0-34.6385,33.7009,22.9166,22.9166,0,0,0,7.0386,7.2451c3.98,2.6411,8.3652,3.9916,12.61,5.3034a66.3111,66.3111,0,0,1,6.9085,2.4119,44.48,44.48,0,0,1,6.5855,3.6369,60.5416,60.5416,0,0,1,7.9467,6.3361,55.5105,55.5105,0,0,1,4.551,4.9939c2.642,3.1371,5.3758,6.3749,9.2511,8.95v.0056a24.18,24.18,0,0,0,18.42,3.4548A24.5087,24.5087,0,0,0,539.4,731.2223Z"/><path class="cls-2" d="M535.6244,709.4362c-.1788-.3593-.3709-.7113-.5723-1.0577a19.41,19.41,0,0,0-6.0022-6.3759,19.635,19.635,0,0,0-3.6831-1.9667c-2.4965-1.0133-5.004-1.8983-7.4257-2.751-6.4345-2.2586-12.5037-4.3907-18.2915-8.77a53.343,53.343,0,0,1-8.7379-8.967,59.1664,59.1664,0,0,0-7.3953-7.8622,18.6218,18.6218,0,0,0-14.58-3.9926,18.8116,18.8116,0,0,0-12.9526,8.1413,19.0146,19.0146,0,0,0-.2979,20.3256c3.7191,6.0728,9.8423,7.9629,16.3193,9.961a70.7579,70.7579,0,0,1,7.5541,2.6586,58.77,58.77,0,0,1,16.1992,11.0649,60.8871,60.8871,0,0,1,5.0382,5.5084c2.374,2.8157,4.8308,5.7293,7.9629,7.8133a18.23,18.23,0,0,0,13.8172,2.6308,18.5313,18.5313,0,0,0,11.912-7.9444c.1677-.2522.3275-.508.4836-.7658"/><path class="cls-1" d="M1035.6737,683.409l-18.42,1.2a22.8,22.8,0,0,0,4.3454,11.1092l.12.156a23.9694,23.9694,0,0,0,3.1528,3.4383c1.9122,1.6951,3.8226,3.236,5.6682,4.7371,3.952,3.1953,7.6775,6.2225,10.6418,10.1661.377.5135.7455,1.0429,1.0966,1.57a43.878,43.878,0,0,1,4.1274,9.1241,56.27,56.27,0,0,0,4.3112,9.7939,22.2052,22.2052,0,0,0,32.392,6.3564,22.451,22.451,0,0,0,8.4237-22.51,20.53,20.53,0,0,0-3.7745-8.2631c-2.5754-3.4336-5.8779-5.9084-9.08-8.3a59.2282,59.2282,0,0,1-5.12-4.1283,39.8,39.8,0,0,1-4.48-5.0714,54.2412,54.2412,0,0,1-4.8156-7.7681,49.3387,49.3387,0,0,1-2.3491-5.6053,39.6417,39.6417,0,0,0-5.1325-10.3731l.0037-.0037a21.7541,21.7541,0,0,0-14.5576-8.494,22.0512,22.0512,0,0,0-16.2519,4.12Z"/><path class="cls-2" d="M1022.5959,684.2543c.04.3593.0951.7169.1634,1.07a18.0045,18.0045,0,0,0,5.6831,9.9924c1.8088,1.6129,3.6673,3.1177,5.4613,4.568,4.7648,3.86,9.2617,7.502,12.8441,12.9559a48.3032,48.3032,0,0,1,4.6909,10.239,52.8155,52.8155,0,0,0,3.8835,8.8885,16.7271,16.7271,0,0,0,11.1462,7.7893,16.9069,16.9069,0,0,0,13.43-2.983,17.1022,17.1022,0,0,0,6.3888-17.1275c-1.3127-6.2631-5.9306-9.7162-10.8117-13.3706a62.06,62.06,0,0,1-5.5944-4.5283,52.79,52.79,0,0,1-10.3776-14.2649,54.0559,54.0559,0,0,1-2.6014-6.19,35.5279,35.5279,0,0,0-4.3879-9.0215A16.375,16.375,0,0,0,1041.61,665.87a16.681,16.681,0,0,0-12.4922,3.1278c-.2179.1673-.4295.33-.64.5035"/><path class="cls-3" d="M953.8758,670.9123a14.96,14.96,0,0,0-5.3088.9792v14.66l-12.7786-9.4483c-23.5356,12.1559-35.3507,34.6782-35.3507,34.6782a14.159,14.159,0,0,0,23.5081,15.6228c15.7419-16.6085,30.32-24.805,35.4329-27.3777a14.6517,14.6517,0,0,0,1.9409-.9238,15.0789,15.0789,0,0,0-7.4438-28.1906"/><path class="cls-3" d="M756.6349,722.1953a9.5462,9.5462,0,0,0-1.0426-1.4079,94.6977,94.6977,0,0,1-13.1646-26.1315l-9.0353-.66,7.2165-6.3213a9.6862,9.6862,0,1,0-18.7447,4.8285c8.1716,33.9208,18.9539,42.3178,18.9539,42.3178a10.1964,10.1964,0,0,0,15.8168-12.6251"/><path class="cls-3" d="M846.6292,705.1823l-8.7241-13.9545,15.0067.7676c.4027-.7731.7686-1.5168,1.1935-2.3011a15.153,15.153,0,1,0-25.9875-15.5082c-.0083.02-16.4209,27.2762-21.2263,65.9885l.096.0045a15.6947,15.6947,0,0,0-.096,1.7118,15.154,15.154,0,0,0,30.3079,0s-.38-13.6468,9.43-36.7086"/><path class="cls-4" d="M645.4317,667.0112c-.4143-6.5753,4.68-12.7886,12.1128-14.7544a16.9528,16.9528,0,0,1,11.8659,1.0051,12.3448,12.3448,0,0,1,6.77,7.9149,11.532,11.532,0,0,1,.37,2.2392c.4153,6.5753-4.6821,12.7766-12.1184,14.76a17.053,17.053,0,0,1-11.8593-1.0124,12.3656,12.3656,0,0,1-6.7717-7.9158,11.103,11.103,0,0,1-.369-2.2365"/><path class="cls-4" d="M626.55,699.4549c-4.6566-4.6706-4.9319-12.6889-.6563-19.0832a17.04,17.04,0,0,1,9.5652-7.0937,12.4219,12.4219,0,0,1,10.3175,1.47,11.2875,11.2875,0,0,1,1.7488,1.443c4.6608,4.65,4.9324,12.6806.6632,19.0712a17.0333,17.0333,0,0,1-9.5642,7.0983,12.409,12.409,0,0,1-10.32-1.4726,11.7865,11.7865,0,0,1-1.7547-1.4327"/><path class="cls-4" d="M607.4657,727.3305c-4.217-5.0641-3.7639-13.0815,1.0735-19.0582a17.0687,17.0687,0,0,1,10.1716-6.192,12.43,12.43,0,0,1,10.1471,2.4,12.606,12.606,0,0,1,1.612,1.5907c4.2114,5.066,3.761,13.087-1.0813,19.061a17.0285,17.0285,0,0,1-10.1629,6.19,12.3788,12.3788,0,0,1-10.148-2.4009,10.8392,10.8392,0,0,1-1.612-1.5907"/><path class="cls-4" d="M575.7768,740.5154c-1.9875-6.2835,1.47-13.5276,8.2183-17.2347a17.007,17.007,0,0,1,11.7531-1.8817,12.4233,12.4233,0,0,1,8.4756,6.0572,11.9092,11.9092,0,0,1,.8969,2.09c1.9751,6.2825-1.4775,13.535-8.2183,17.2385a17.0628,17.0628,0,0,1-11.7544,1.8779,12.3946,12.3946,0,0,1-8.4766-6.0627,11.34,11.34,0,0,1-.8946-2.084"/><path class="cls-5" d="M692.8357,649.1779l11.1979,6.2613a12.8164,12.8164,0,0,0,2.1349-10.4331,10.7635,10.7635,0,0,0-.5353-1.5565,11.98,11.98,0,0,0-7.8322-6.604,17.6881,17.6881,0,0,0-12.0445.908c-7.3778,3.19-11.6742,10.4211-9.998,16.8265a10.6474,10.6474,0,0,0,.54,1.5547,11.957,11.957,0,0,0,7.8248,6.6,16.97,16.97,0,0,0,8.4793.2116Z"/><path class="cls-6" d="M1504.1441,1023.5905c-175.2611-1.7607-360.3138,11.7457-360.3138,11.7457s-207.5067,17.4338-516.9494,0c-309.4349-17.4366-577.7368,0-577.7368,0v296.3h1455Z"/><path class="cls-7" d="M203.9062,1022.2331s13.7088,18.6749,5.8724,49.9084c-7.8256,31.2307-1.7214,50.6423-1.7214,50.6423s3.6854,13.51-4.151,19.4176c-7.8293,5.907-37.2047,16.8827-37.2047,16.8827s-34.7577,16.4565-40.631,56.1245c-5.8692,39.6745-19.0878,37.9853-19.0878,37.9853"/><path class="cls-7" d="M274.3971,1266.2763c-6.8515-10.549-32.31-18.99-32.31-18.99s-9.791-5.0687-14.6819-40.9372c-4.8923-35.8755-23.5-64.1483-23.5-64.1483s-.9848,29.5421-29.0488,48.1089c-28.0595,18.5723-30.671,33.4851-30.671,33.4851"/><path class="cls-7" d="M257.4317,1277.2466s-10.7674-21.6638-19.9035-35.3161c0,0-10.4479,8.7268-4.5755,20.3367,5.8752,11.6071.6527,37.207.6527,37.207"/><path class="cls-7" d="M187.2641,1268.8043s4.6207-19.99,32.3056-31.5066c14.2033-5.9065,9.8908-18.8138,9.8908-18.8138"/><path class="cls-7" d="M206.3635,1091.6269s33.2838,7.1029,37.934,33.2719c4.6494,26.1625,34.9951,20.2555,34.9951,20.2555s11.2612-3.7991,28.883,20.6757"/><path class="cls-7" d="M205.817,1100.8508s-37.0033,30.6907-30.96,69.1518c6.04,38.4537-30.6718,85.2989-30.6718,85.2989"/><path class="cls-7" d="M213.9162,1161.0255s16.425,2.696,27.1929,12.8269a50,50,0,0,0,23.5057,12.2395s27.8937,13.08,33.768,25.7432c5.882,12.6611,26.9278,13.0791,26.9278,13.0791"/><path class="cls-7" d="M216.01,1165.83s6.9944,25.75-35.1133,30.8127"/><path class="cls-7" d="M211.7125,1061.5892s18.6292.6388,24.0194,7.0761a17.3331,17.3331,0,0,0,13.2145,6.01s19.091,3.9367,23.4932,16.952"/><path class="cls-7" d="M208.0567,1122.7838s-.2318,8.0156-17.3691,8.8668a63.4884,63.4884,0,0,0-28.8761,8.4353s-19.0878,9.7107-33.29,10.13"/><path class="cls-6" d="M214.5457,464.378a1.6629,1.6629,0,0,1,1.669-1.7085,1.6958,1.6958,0,0,1,1.7085,1.7085,1.6629,1.6629,0,0,1-1.7085,1.669A1.63,1.63,0,0,1,214.5457,464.378Zm.5166,5.6421h2.3843v19.8672h-2.3843Z"/><path class="cls-6" d="M240.888,478.6822v11.2051h-2.3447V479.12c0-4.7685-2.3443-7.2319-5.8008-7.2319-3.06,0-5.523,2.1059-5.8408,6.2383v11.7612h-2.3843V470.02h2.3843v3.2583a7.2172,7.2172,0,0,1,6.3574-3.6157C237.3514,469.6627,240.888,472.5631,240.888,478.6822Z"/><path class="cls-6" d="M245.8919,487.066l1.6289-1.748a6.4608,6.4608,0,0,0,4.8477,2.5825c2.1455,0,3.854-1.2319,3.854-3.1787,0-4.9663-9.8936-3.3374-9.854-9.9331.0395-2.8614,2.4633-5.0464,5.8012-5.086a8.2942,8.2942,0,0,1,5.9995,2.8208l-1.47,1.7085a6.2875,6.2875,0,0,0-4.49-2.2251c-1.9868,0-3.417,1.1919-3.457,2.7818-.0791,4.6089,9.894,3.0195,9.8544,9.9726-.04,3.06-2.5429,5.4439-6.3178,5.4439A8.5984,8.5984,0,0,1,245.8919,487.066Z"/><path class="cls-6" d="M270.0472,472.3248h-4.0923v17.5625h-2.3843V472.3248h-2.543V470.02h2.543v-5.3242h2.3843V470.02h4.0923Z"/><path class="cls-6" d="M290.7078,480.7882h-16.41a7.4031,7.4031,0,0,0,7.6289,7.1123,9.605,9.605,0,0,0,6.7549-2.7417v2.7021a10.801,10.801,0,0,1-6.8345,2.3047c-6.2383,0-9.9732-4.6885-9.9732-10.2119s3.8941-10.1719,9.5757-10.1719C287.37,469.7818,290.827,474.9474,290.7078,480.7882Zm-16.3706-2.106h13.8277c-.5166-3.6953-2.98-6.5957-6.7154-6.5957C277.556,472.0865,274.8538,474.9474,274.3372,478.6822Z"/><path class="cls-6" d="M313.6312,470.02v19.8672h-2.3838v-4.0928a8.6854,8.6854,0,0,1-7.55,4.3711c-5.523,0-9.377-4.5693-9.377-10.1719s3.854-10.2119,9.377-10.2119a8.64,8.64,0,0,1,7.55,4.4107V470.02Zm-2.3838,9.9736c0-4.2519-3.06-7.9072-7.3111-7.9072s-7.1919,3.6157-7.1919,7.9072c0,4.3311,2.9405,7.8672,7.1919,7.8672S311.2474,484.2452,311.2474,479.9937Z"/><path class="cls-6" d="M338.1434,458.1v31.7871H335.76v-4.0928a8.6852,8.6852,0,0,1-7.5493,4.3711c-5.5235,0-9.3775-4.5693-9.3775-10.1719s3.854-10.2119,9.3775-10.2119a8.6393,8.6393,0,0,1,7.5493,4.4107V458.1ZM335.76,479.9937c0-4.2519-3.06-7.9072-7.3111-7.9072s-7.1919,3.6157-7.1919,7.9072c0,4.3311,2.94,7.8672,7.1919,7.8672S335.76,484.2452,335.76,479.9937Z"/><path class="cls-6" d="M357.0516,479.9142a10.0546,10.0546,0,1,1,10.0527,10.2514A9.9725,9.9725,0,0,1,357.0516,479.9142Zm17.7212,0a7.6529,7.6529,0,1,0-7.6685,7.9067A7.6411,7.6411,0,0,0,374.7728,479.9142Z"/><path class="cls-6" d="M384.7825,462.2721v7.748h4.1328v2.3047h-4.1328v17.5625h-2.3442V472.3248h-2.543V470.02h2.543v-8.185a3.6337,3.6337,0,0,1,3.7353-3.9732,4.9848,4.9848,0,0,1,2.7417.7944V461.12a4.1237,4.1237,0,0,0-2.3046-.834A1.8189,1.8189,0,0,0,384.7825,462.2721Z"/><path class="cls-6" d="M406.5931,458.1h2.3843v31.7871h-2.3843Z"/><path class="cls-6" d="M433.0154,480.7882h-16.41a7.4031,7.4031,0,0,0,7.6289,7.1123,9.605,9.605,0,0,0,6.7549-2.7417v2.7021a10.801,10.801,0,0,1-6.8345,2.3047c-6.2383,0-9.9731-4.6885-9.9731-10.2119s3.894-10.1719,9.5756-10.1719C429.6775,469.7818,433.1346,474.9474,433.0154,480.7882Zm-16.3706-2.106h13.8277c-.5166-3.6953-2.98-6.5957-6.7154-6.5957C419.8636,472.0865,417.1614,474.9474,416.6448,478.6822Z"/><path class="cls-6" d="M455.9383,470.02v19.8672h-2.3838v-4.0928a8.6852,8.6852,0,0,1-7.5493,4.3711c-5.5235,0-9.3775-4.5693-9.3775-10.1719s3.854-10.2119,9.3775-10.2119a8.6393,8.6393,0,0,1,7.5493,4.4107V470.02Zm-2.3838,9.9736c0-4.2519-3.06-7.9072-7.311-7.9072s-7.1919,3.6157-7.1919,7.9072c0,4.3311,2.94,7.8672,7.1919,7.8672S453.5545,484.2452,453.5545,479.9937Z"/><path class="cls-6" d="M478.8221,470.02l-8.94,19.9468h-1.3115L459.5511,470.02h2.5825l7.0728,16.1719,7.0727-16.1719Z"/><path class="cls-6" d="M482.2767,464.378a1.6628,1.6628,0,0,1,1.6689-1.7085,1.6958,1.6958,0,0,1,1.7085,1.7085,1.6629,1.6629,0,0,1-1.7085,1.669A1.63,1.63,0,0,1,482.2767,464.378Zm.5166,5.6421h2.3838v19.8672h-2.3838Z"/><path class="cls-6" d="M508.619,478.6822v11.2051h-2.3443V479.12c0-4.7685-2.3447-7.2319-5.8013-7.2319-3.06,0-5.5229,2.1059-5.8408,6.2383v11.7612h-2.3843V470.02h2.3843v3.2583a7.2168,7.2168,0,0,1,6.3574-3.6157C505.0823,469.6627,508.619,472.5631,508.619,478.6822Z"/><path class="cls-6" d="M532.2576,489.0133c0,6.1982-4.728,9.0986-9.3769,9.0986a13.8115,13.8115,0,0,1-7.43-2.2246l.0395-2.583a12.4628,12.4628,0,0,0,7.1124,2.583c4.1723,0,7.351-2.543,7.351-7.4307v-2.7812a8.7108,8.7108,0,0,1-7.6289,4.49c-5.5234,0-9.3774-4.5693-9.3774-10.1719s3.854-10.2119,9.3774-10.2119a8.5953,8.5953,0,0,1,7.5493,4.45V470.02h2.3443Zm-2.3838-9.02c0-4.2519-3.0595-7.9072-7.311-7.9072s-7.1919,3.6157-7.1919,7.9072c0,4.3311,2.94,7.8672,7.1919,7.8672S529.8738,484.2452,529.8738,479.9937Z"/><path class="cls-6" d="M564.9935,489.8873h-2.3843V472.3248h-7.1519v17.5625h-2.3447V472.3248H550.57V470.02h2.543v-8.185a3.6337,3.6337,0,0,1,3.7354-3.9732,4.9809,4.9809,0,0,1,2.7412.7944V461.12a4.1227,4.1227,0,0,0-2.3042-.834,1.8185,1.8185,0,0,0-1.8277,1.9864v7.748h9.5362Zm-2.9009-25.5093a1.6628,1.6628,0,0,1,1.6689-1.7085,1.6958,1.6958,0,0,1,1.7085,1.7085,1.6629,1.6629,0,0,1-1.7085,1.669A1.63,1.63,0,0,1,562.0926,464.378Z"/><path class="cls-6" d="M589.4666,480.7882h-16.41a7.4031,7.4031,0,0,0,7.6289,7.1123,9.6047,9.6047,0,0,0,6.7548-2.7417v2.7021a10.8007,10.8007,0,0,1-6.8344,2.3047c-6.2383,0-9.9732-4.6885-9.9732-10.2119s3.8941-10.1719,9.5757-10.1719C586.1287,469.7818,589.5858,474.9474,589.4666,480.7882Zm-16.3706-2.106h13.8276c-.5166-3.6953-2.98-6.5957-6.7153-6.5957C576.3148,472.0865,573.6126,474.9474,573.096,478.6822Z"/><path class="cls-6" d="M594.47,458.1h2.3843v31.7871H594.47Z"/><path class="cls-6" d="M621.3685,458.1v31.7871h-2.3838v-4.0928a8.6854,8.6854,0,0,1-7.55,4.3711c-5.523,0-9.377-4.5693-9.377-10.1719s3.854-10.2119,9.377-10.2119a8.64,8.64,0,0,1,7.55,4.4107V458.1Zm-2.3838,21.8935c0-4.2519-3.06-7.9072-7.3111-7.9072s-7.1919,3.6157-7.1919,7.9072c0,4.3311,2.94,7.8672,7.1919,7.8672S618.9847,484.2452,618.9847,479.9937Z"/><path class="cls-6" d="M626.4114,487.066l1.6294-1.748a6.461,6.461,0,0,0,4.8477,2.5825c2.1455,0,3.854-1.2319,3.854-3.1787,0-4.9663-9.8936-3.3374-9.854-9.9331.0395-2.8614,2.4634-5.0464,5.8013-5.086a8.2956,8.2956,0,0,1,6,2.8208l-1.47,1.7085a6.2868,6.2868,0,0,0-4.49-2.2251c-1.9868,0-3.417,1.1919-3.4565,2.7818-.08,4.6089,9.8935,3.0195,9.8535,9.9726-.04,3.06-2.543,5.4439-6.3174,5.4439A8.6,8.6,0,0,1,626.4114,487.066Z"/><path class="cls-6" d="M664.91,472.3248h-4.0928v17.5625h-2.3843V472.3248H655.89V470.02h2.5429v-5.3242h2.3843V470.02H664.91Z"/><path class="cls-6" d="M666.6961,479.9142a10.0547,10.0547,0,1,1,10.0527,10.2514A9.9725,9.9725,0,0,1,666.6961,479.9142Zm17.7212,0a7.6529,7.6529,0,1,0-7.6685,7.9067A7.6411,7.6411,0,0,0,684.4173,479.9142Z"/><path class="cls-6" d="M713.8152,469.7027v2.7017c-3.2187-.2383-5.7216,2.4634-5.7216,6.5561v10.9268h-2.3843V470.02h2.3843v3.6558A6.5041,6.5041,0,0,1,713.8152,469.7027Z"/><path class="cls-6" d="M734.4354,480.7882h-16.41a7.4031,7.4031,0,0,0,7.6289,7.1123,9.6048,9.6048,0,0,0,6.7549-2.7417v2.7021a10.801,10.801,0,0,1-6.8345,2.3047c-6.2383,0-9.9731-4.6885-9.9731-10.2119s3.894-10.1719,9.5757-10.1719C731.0975,469.7818,734.5545,474.9474,734.4354,480.7882Zm-16.3706-2.106h13.8276c-.5166-3.6953-2.98-6.5957-6.7153-6.5957C721.2835,472.0865,718.5814,474.9474,718.0648,478.6822Z"/><path class="cls-6" d="M737.73,487.066l1.6294-1.748a6.4608,6.4608,0,0,0,4.8476,2.5825c2.1456,0,3.854-1.2319,3.854-3.1787,0-4.9663-9.8935-3.3374-9.854-9.9331.04-2.8614,2.4634-5.0464,5.8013-5.086a8.2954,8.2954,0,0,1,6,2.8208l-1.47,1.7085a6.2868,6.2868,0,0,0-4.49-2.2251c-1.9869,0-3.417,1.1919-3.4566,2.7818-.08,4.6089,9.8936,3.0195,9.8535,9.9726-.04,3.06-2.5429,5.4439-6.3173,5.4439A8.6,8.6,0,0,1,737.73,487.066Z"/><path class="cls-6" d="M761.886,472.3248h-4.0922v17.5625H755.41V472.3248h-2.543V470.02h2.543v-5.3242h2.3843V470.02h4.0922Z"/><path class="cls-6" d="M778.1732,479.9142a10.0546,10.0546,0,1,1,10.0527,10.2514A9.9725,9.9725,0,0,1,778.1732,479.9142Zm17.7211,0a7.6529,7.6529,0,1,0-7.6684,7.9067A7.6411,7.6411,0,0,0,795.8943,479.9142Z"/><path class="cls-6" d="M811.5867,469.7027v2.7017c-3.2187-.2383-5.7217,2.4634-5.7217,6.5561v10.9268h-2.3842V470.02h2.3842v3.6558A6.5043,6.5043,0,0,1,811.5867,469.7027Z"/><path class="cls-6" d="M829.264,458.1h2.3843v31.7871H829.264Z"/><path class="cls-6" d="M856.1624,470.02v19.8672h-2.3838v-4.0928a8.6854,8.6854,0,0,1-7.55,4.3711c-5.5229,0-9.3769-4.5693-9.3769-10.1719s3.854-10.2119,9.3769-10.2119a8.64,8.64,0,0,1,7.55,4.4107V470.02Zm-2.3838,9.9736c0-4.2519-3.0595-7.9072-7.311-7.9072s-7.1919,3.6157-7.1919,7.9072c0,4.3311,2.94,7.8672,7.1919,7.8672S853.7786,484.2452,853.7786,479.9937Z"/><path class="cls-6" d="M878.7679,470.02l-11.8408,27.814h-2.3838l3.5761-8.4234L859.7752,470.02h2.5825l6.9536,16.7681,6.8741-16.7681Z"/><path class="cls-6" d="M893.306,462.0738H895.73l-.3975,10.1319h-1.6689Zm4.41,0H900.14l-.3969,10.1319h-1.669Z"/><path class="cls-6" d="M907.8069,462.2721v7.748H911.94v2.3047h-4.1329v17.5625h-2.3442V472.3248H902.92V470.02h2.543v-8.185a3.6337,3.6337,0,0,1,3.7354-3.9732,4.9853,4.9853,0,0,1,2.7417.7944V461.12a4.1243,4.1243,0,0,0-2.3047-.834A1.8189,1.8189,0,0,0,907.8069,462.2721Z"/><path class="cls-6" d="M933.0765,470.02v19.8672h-2.3838v-4.0928a8.6854,8.6854,0,0,1-7.55,4.3711c-5.523,0-9.377-4.5693-9.377-10.1719s3.854-10.2119,9.377-10.2119a8.64,8.64,0,0,1,7.55,4.4107V470.02Zm-2.3838,9.9736c0-4.2519-3.06-7.9072-7.3111-7.9072s-7.1918,3.6157-7.1918,7.9072c0,4.3311,2.94,7.8672,7.1918,7.8672S930.6927,484.2452,930.6927,479.9937Z"/><path class="cls-6" d="M939.6692,458.1h2.3843v31.7871h-2.3843Z"/><path class="cls-6" d="M948.6478,458.1h2.3842v31.7871h-2.3842Z"/><path class="cls-6" d="M956.2361,479.9142a10.0547,10.0547,0,1,1,10.0528,10.2514A9.9725,9.9725,0,0,1,956.2361,479.9142Zm17.7212,0a7.6529,7.6529,0,1,0-7.6684,7.9067A7.6411,7.6411,0,0,0,973.9573,479.9142Z"/><path class="cls-6" d="M1009.1585,470.02l-10.2114,20.1055h-1.3115l-4.1719-8.3838-4.0928,8.3838H988.02L977.848,470.02h2.583l8.3442,16.6485,3.4966-7.271-4.6094-9.3775h2.5034l3.3374,7.1123,3.3379-7.1123h2.503l-4.6485,9.3775,3.5757,7.271,8.3047-16.6485Z"/><path class="cls-6" d="M1009.0755,484.881h2.4233l-1.9467,9.3374h-1.7085Z"/><path class="cls-6" d="M1013.763,462.0738h2.4238l-.3974,10.1319h-1.669Zm4.41,0h2.4238l-.397,10.1319h-1.6689Z"/><path class="cls-6" d="M1051.2283,489.8873l-9.7744-9.1387v9.1387H1039.07V458.1h2.3843v21.3369l9.4566-9.417h3.06l-10.1718,10.0527,10.6088,9.8145Z"/><path class="cls-6" d="M1074.3514,480.7882h-16.41a7.4031,7.4031,0,0,0,7.6289,7.1123,9.6048,9.6048,0,0,0,6.7549-2.7417v2.7021a10.801,10.801,0,0,1-6.8345,2.3047c-6.2382,0-9.9731-4.6885-9.9731-10.2119s3.894-10.1719,9.5757-10.1719C1071.0135,469.7818,1074.4705,474.9474,1074.3514,480.7882Zm-16.3706-2.106h13.8276c-.5166-3.6953-2.98-6.5957-6.7153-6.5957C1061.2,472.0865,1058.4974,474.9474,1057.9808,478.6822Z"/><path class="cls-6" d="M1096.7977,480.7882h-16.41a7.4031,7.4031,0,0,0,7.6289,7.1123,9.6048,9.6048,0,0,0,6.7549-2.7417v2.7021a10.801,10.801,0,0,1-6.8345,2.3047c-6.2383,0-9.9731-4.6885-9.9731-10.2119s3.894-10.1719,9.5757-10.1719C1093.46,469.7818,1096.9168,474.9474,1096.7977,480.7882Zm-16.3706-2.106h13.8276c-.5166-3.6953-2.98-6.5957-6.7153-6.5957C1083.6458,472.0865,1080.9437,474.9474,1080.4271,478.6822Z"/><path class="cls-6" d="M1121.0721,479.9537c0,5.6025-3.854,10.2119-9.3775,10.2119a8.6331,8.6331,0,0,1-7.5092-4.331v11.9995h-2.3843V470.02h2.3843v4.0928a8.6332,8.6332,0,0,1,7.5092-4.3311C1117.2181,469.7818,1121.0721,474.3512,1121.0721,479.9537Zm-2.4238,0c0-4.331-2.9405-7.8672-7.1919-7.8672a7.4161,7.4161,0,0,0-7.271,7.0332v1.6685a7.4516,7.4516,0,0,0,7.271,7.0727C1115.7078,487.8609,1118.6483,484.2452,1118.6483,479.9537Z"/><path class="cls-6" d="M1159.2513,479.9537c0,5.6025-3.854,10.2119-9.377,10.2119a8.6333,8.6333,0,0,1-7.51-4.331v11.9995H1139.98V470.02h2.3843v4.0928a8.6334,8.6334,0,0,1,7.51-4.3311C1155.3973,469.7818,1159.2513,474.3512,1159.2513,479.9537Zm-2.4239,0c0-4.331-2.94-7.8672-7.1918-7.8672a7.4161,7.4161,0,0,0-7.271,7.0332v1.6685a7.4516,7.4516,0,0,0,7.271,7.0727C1153.887,487.8609,1156.8274,484.2452,1156.8274,479.9537Z"/><path class="cls-6" d="M1164.4534,458.1h2.3843v31.7871h-2.3843Z"/><path class="cls-6" d="M1191.3524,470.02v19.8672h-2.3838v-4.0928a8.6854,8.6854,0,0,1-7.5494,4.3711c-5.5234,0-9.3774-4.5693-9.3774-10.1719s3.854-10.2119,9.3774-10.2119a8.64,8.64,0,0,1,7.5494,4.4107V470.02Zm-2.3838,9.9736c0-4.2519-3.06-7.9072-7.3111-7.9072s-7.1919,3.6157-7.1919,7.9072c0,4.3311,2.94,7.8672,7.1919,7.8672S1188.9686,484.2452,1188.9686,479.9937Z"/><path class="cls-6" d="M1214.3152,478.6822v11.2051h-2.3442V479.12c0-4.7685-2.3447-7.2319-5.8013-7.2319-3.0595,0-5.5229,2.1059-5.8408,6.2383v11.7612h-2.3843V470.02h2.3843v3.2583a7.2168,7.2168,0,0,1,6.3574-3.6157C1210.7786,469.6627,1214.3152,472.5631,1214.3152,478.6822Z"/><path class="cls-6" d="M1227.6233,472.3248h-4.0927v17.5625h-2.3843V472.3248h-2.543V470.02h2.543v-5.3242h2.3843V470.02h4.0927Z"/><path class="cls-6" d="M1229.6878,487.066l1.6294-1.748a6.4608,6.4608,0,0,0,4.8477,2.5825c2.1455,0,3.854-1.2319,3.854-3.1787,0-4.9663-9.8936-3.3374-9.854-9.9331.04-2.8614,2.4633-5.0464,5.8012-5.086a8.2954,8.2954,0,0,1,5.9995,2.8208l-1.47,1.7085a6.2866,6.2866,0,0,0-4.49-2.2251c-1.9868,0-3.417,1.1919-3.4566,2.7818-.08,4.6089,9.8936,3.0195,9.8535,9.9726-.0395,3.06-2.5429,5.4439-6.3173,5.4439A8.6,8.6,0,0,1,1229.6878,487.066Z"/><path class="cls-6" d="M1261.1526,464.378a1.6629,1.6629,0,0,1,1.669-1.7085,1.6958,1.6958,0,0,1,1.7085,1.7085,1.6629,1.6629,0,0,1-1.7085,1.669A1.63,1.63,0,0,1,1261.1526,464.378Zm.5166,5.6421h2.3838v19.8672h-2.3838Z"/><path class="cls-6" d="M1287.4954,478.6822v11.2051h-2.3447V479.12c0-4.7685-2.3442-7.2319-5.8008-7.2319-3.06,0-5.5229,2.1059-5.8408,6.2383v11.7612h-2.3843V470.02h2.3843v3.2583a7.2172,7.2172,0,0,1,6.3574-3.6157C1283.9588,469.6627,1287.4954,472.5631,1287.4954,478.6822Z"/><path class="cls-6" d="M1314.5091,472.3248h-4.0928v17.5625h-2.3843V472.3248h-2.5429V470.02h2.5429v-5.3242h2.3843V470.02h4.0928Z"/><path class="cls-6" d="M1334.8909,478.6822v11.2051h-2.3442V479.12c0-4.7685-2.3443-7.2319-5.8013-7.2319-3.2978,0-5.88,2.4634-5.88,7.2319v10.7676h-2.3842V458.1h2.3842V473.318a7.2655,7.2655,0,0,1,6.397-3.6553C1331.3548,469.6627,1334.8909,472.5631,1334.8909,478.6822Z"/><path class="cls-6" d="M1358.0535,480.7882h-16.41a7.4031,7.4031,0,0,0,7.6289,7.1123,9.605,9.605,0,0,0,6.7549-2.7417v2.7021a10.801,10.801,0,0,1-6.8345,2.3047c-6.2383,0-9.9732-4.6885-9.9732-10.2119s3.8941-10.1719,9.5757-10.1719C1354.7156,469.7818,1358.1727,474.9474,1358.0535,480.7882Zm-16.3706-2.106h13.8277c-.5166-3.6953-2.98-6.5957-6.7154-6.5957C1344.9017,472.0865,1342.2,474.9474,1341.6829,478.6822Z"/><path class="cls-6" d="M236.4915,556.6871c0,6.1982-4.728,9.0986-9.3769,9.0986a13.81,13.81,0,0,1-7.43-2.2246l.0395-2.583a12.4628,12.4628,0,0,0,7.1123,2.583c4.1719,0,7.3506-2.5429,7.3506-7.4306v-2.7813a8.71,8.71,0,0,1-7.6289,4.49c-5.5229,0-9.3769-4.5693-9.3769-10.1718s3.854-10.2119,9.3769-10.2119a8.5953,8.5953,0,0,1,7.55,4.45v-4.212h2.3443Zm-2.3838-9.0195c0-4.252-3.0595-7.9073-7.311-7.9073s-7.1919,3.6158-7.1919,7.9073c0,4.331,2.94,7.8672,7.1919,7.8672S234.1077,551.919,234.1077,547.6676Z"/><path class="cls-6" d="M251.19,537.3766v2.7016c-3.2187-.2383-5.7216,2.4634-5.7216,6.5562v10.9267h-2.3843V537.6939h2.3843V541.35A6.504,6.504,0,0,1,251.19,537.3766Z"/><path class="cls-6" d="M253.0159,547.588a10.0547,10.0547,0,1,1,10.0528,10.2514A9.9725,9.9725,0,0,1,253.0159,547.588Zm17.7212,0a7.6529,7.6529,0,1,0-7.6684,7.9067A7.6411,7.6411,0,0,0,270.7371,547.588Z"/><path class="cls-6" d="M294.3758,537.6939v19.8672h-2.3843v-3.2583a7.2163,7.2163,0,0,1-6.3574,3.6158c-4.0928,0-7.6289-2.9-7.6289-9.02V537.6939h2.3442V548.462c0,4.7681,2.3443,7.2319,5.8013,7.2319,3.06,0,5.5229-2.1064,5.8408-6.2382V537.6939Z"/><path class="cls-6" d="M317.3392,546.3561v11.205h-2.3448V546.7936c0-4.7686-2.3442-7.232-5.8007-7.232-3.06,0-5.523,2.106-5.8409,6.2383v11.7612h-2.3842V537.6939h2.3842v3.2583a7.2176,7.2176,0,0,1,6.3575-3.6157C313.8025,537.3365,317.3392,540.2369,317.3392,546.3561Z"/><path class="cls-6" d="M340.9778,525.774v31.7871h-2.3837v-4.0927a8.6856,8.6856,0,0,1-7.55,4.371c-5.5229,0-9.3769-4.5693-9.3769-10.1718s3.854-10.2119,9.3769-10.2119a8.64,8.64,0,0,1,7.55,4.4106V525.774Zm-2.3837,21.8936c0-4.252-3.06-7.9073-7.3111-7.9073s-7.1919,3.6158-7.1919,7.9073c0,4.331,2.9405,7.8672,7.1919,7.8672S338.5941,551.919,338.5941,547.6676Z"/><path class="cls-6" d="M377.011,537.6939,365.17,565.5079h-2.3838l3.5762-8.4233-8.3442-19.3907h2.5825l6.9536,16.7681,6.874-16.7681Z"/><path class="cls-6" d="M397.5115,548.462h-16.41a7.4031,7.4031,0,0,0,7.6289,7.1123,9.605,9.605,0,0,0,6.7549-2.7417v2.7022a10.8015,10.8015,0,0,1-6.8345,2.3046c-6.2383,0-9.9732-4.6884-9.9732-10.2119s3.8941-10.1718,9.5757-10.1718C394.1736,537.4557,397.6307,542.6212,397.5115,548.462Zm-16.3706-2.1059h13.8277c-.5166-3.6954-2.98-6.5958-6.7154-6.5958C384.36,539.76,381.6575,542.6212,381.1409,546.3561Z"/><path class="cls-6" d="M420.4349,537.6939v19.8672h-2.3838v-4.0927a8.6853,8.6853,0,0,1-7.55,4.371c-5.523,0-9.377-4.5693-9.377-10.1718s3.854-10.2119,9.377-10.2119a8.6394,8.6394,0,0,1,7.55,4.4106v-4.1724Zm-2.3838,9.9737c0-4.252-3.06-7.9073-7.3111-7.9073s-7.1918,3.6158-7.1918,7.9073c0,4.331,2.94,7.8672,7.1918,7.8672S418.0511,551.919,418.0511,547.6676Z"/><path class="cls-6" d="M435.1331,537.3766v2.7016c-3.2187-.2383-5.7217,2.4634-5.7217,6.5562v10.9267h-2.3842V537.6939h2.3842V541.35A6.5041,6.5041,0,0,1,435.1331,537.3766Z"/><path class="cls-6" d="M460.9163,537.3766v2.7016c-3.2187-.2383-5.7217,2.4634-5.7217,6.5562v10.9267H452.81V537.6939h2.3842V541.35A6.5042,6.5042,0,0,1,460.9163,537.3766Z"/><path class="cls-6" d="M462.742,547.588a10.0547,10.0547,0,1,1,10.0527,10.2514A9.9724,9.9724,0,0,1,462.742,547.588Zm17.7212,0a7.6529,7.6529,0,1,0-7.6685,7.9067A7.6411,7.6411,0,0,0,480.4632,547.588Z"/><path class="cls-6" d="M504.1024,537.6939v19.8672h-2.3843v-3.2583a7.2164,7.2164,0,0,1-6.3574,3.6158c-4.0928,0-7.629-2.9-7.629-9.02V537.6939h2.3443V548.462c0,4.7681,2.3442,7.2319,5.8013,7.2319,3.06,0,5.5229-2.1064,5.8408-6.2382V537.6939Z"/><path class="cls-6" d="M527.0657,546.3561v11.205H524.721V546.7936c0-4.7686-2.3442-7.232-5.8008-7.232-3.06,0-5.5229,2.106-5.8408,6.2383v11.7612h-2.3843V537.6939h2.3843v3.2583a7.2174,7.2174,0,0,1,6.3574-3.6157C523.5291,537.3365,527.0657,540.2369,527.0657,546.3561Z"/><path class="cls-6" d="M550.6644,525.774v31.7871h-2.3838v-4.0927a8.6853,8.6853,0,0,1-7.55,4.371c-5.523,0-9.377-4.5693-9.377-10.1718s3.854-10.2119,9.377-10.2119a8.6394,8.6394,0,0,1,7.55,4.4106V525.774Zm-2.3838,21.8936c0-4.252-3.06-7.9073-7.3111-7.9073s-7.1919,3.6158-7.1919,7.9073c0,4.331,2.9405,7.8672,7.1919,7.8672S548.2806,551.919,548.2806,547.6676Z"/><path class="cls-6" d="M588.8831,537.6939v19.8672h-2.3838v-4.0927a8.6853,8.6853,0,0,1-7.55,4.371c-5.5229,0-9.3769-4.5693-9.3769-10.1718s3.854-10.2119,9.3769-10.2119a8.6394,8.6394,0,0,1,7.55,4.4106v-4.1724Zm-2.3838,9.9737c0-4.252-3.0595-7.9073-7.311-7.9073s-7.1919,3.6158-7.1919,7.9073c0,4.331,2.94,7.8672,7.1919,7.8672S586.4993,551.919,586.4993,547.6676Z"/><path class="cls-6" d="M611.8465,546.3561v11.205h-2.3442V546.7936c0-4.7686-2.3448-7.232-5.8013-7.232-3.06,0-5.523,2.106-5.8408,6.2383v11.7612h-2.3843V537.6939H597.86v3.2583a7.2168,7.2168,0,0,1,6.3574-3.6157C608.31,537.3365,611.8465,540.2369,611.8465,546.3561Z"/><path class="cls-6" d="M635.4852,525.774v31.7871h-2.3838v-4.0927a8.6851,8.6851,0,0,1-7.5493,4.371c-5.5235,0-9.3775-4.5693-9.3775-10.1718s3.854-10.2119,9.3775-10.2119a8.6392,8.6392,0,0,1,7.5493,4.4106V525.774Zm-2.3838,21.8936c0-4.252-3.06-7.9073-7.3111-7.9073s-7.1919,3.6158-7.1919,7.9073c0,4.331,2.9405,7.8672,7.1919,7.8672S633.1014,551.919,633.1014,547.6676Z"/><path class="cls-6" d="M654.3929,547.6275a10.2453,10.2453,0,0,1,16.7676-7.9072v2.94a8.5274,8.5274,0,0,0-6.5562-2.94,7.9077,7.9077,0,0,0,0,15.8145,8.5271,8.5271,0,0,0,6.5562-2.9405v2.9405a10.2448,10.2448,0,0,1-16.7676-7.9073Z"/><path class="cls-6" d="M694.681,537.6939v19.8672h-2.3838v-4.0927a8.6853,8.6853,0,0,1-7.55,4.371c-5.523,0-9.377-4.5693-9.377-10.1718s3.854-10.2119,9.377-10.2119a8.6394,8.6394,0,0,1,7.55,4.4106v-4.1724Zm-2.3838,9.9737c0-4.252-3.06-7.9073-7.3111-7.9073s-7.1919,3.6158-7.1919,7.9073c0,4.331,2.94,7.8672,7.1919,7.8672S692.2972,551.919,692.2972,547.6676Z"/><path class="cls-6" d="M720.5442,547.6275c0,5.6026-3.854,10.2119-9.3769,10.2119a8.6335,8.6335,0,0,1-7.51-4.331v11.9995h-2.3842v-27.814h2.3842v4.0928a8.6335,8.6335,0,0,1,7.51-4.331C716.69,537.4557,720.5442,542.025,720.5442,547.6275Zm-2.4238,0c0-4.331-2.94-7.8672-7.1919-7.8672a7.4162,7.4162,0,0,0-7.271,7.0333v1.6684a7.4517,7.4517,0,0,0,7.271,7.0728C715.18,555.5348,718.12,551.919,718.12,547.6275Z"/><path class="cls-6" d="M725.7464,532.0519a1.6628,1.6628,0,0,1,1.6689-1.7085,1.6957,1.6957,0,0,1,1.7085,1.7085,1.6628,1.6628,0,0,1-1.7085,1.6689A1.63,1.63,0,0,1,725.7464,532.0519Zm.5166,5.642h2.3838v19.8672H726.263Z"/><path class="cls-6" d="M742.7513,539.9986H738.659v17.5625h-2.3843V539.9986h-2.543v-2.3047h2.543V532.37h2.3843v5.3242h4.0923Z"/><path class="cls-6" d="M763.8484,537.6939v19.8672h-2.3837v-4.0927a8.6853,8.6853,0,0,1-7.5494,4.371c-5.5234,0-9.3774-4.5693-9.3774-10.1718s3.854-10.2119,9.3774-10.2119a8.6394,8.6394,0,0,1,7.5494,4.4106v-4.1724Zm-2.3837,9.9737c0-4.252-3.06-7.9073-7.3111-7.9073s-7.1919,3.6158-7.1919,7.9073c0,4.331,2.9405,7.8672,7.1919,7.8672S761.4647,551.919,761.4647,547.6676Z"/><path class="cls-6" d="M770.4412,525.774h2.3843v31.7871h-2.3843Z"/><path class="cls-6" d="M779.42,532.0519a1.6629,1.6629,0,0,1,1.669-1.7085,1.6958,1.6958,0,0,1,1.7085,1.7085,1.6628,1.6628,0,0,1-1.7085,1.6689A1.63,1.63,0,0,1,779.42,532.0519Zm.5166,5.642h2.3843v19.8672h-2.3843Z"/><path class="cls-6" d="M802.8221,538.171,791.1,555.2564h11.5229v2.3047H787.1668v-.5561l11.7217-17.0459H787.0872v-2.2652h15.7349Z"/><path class="cls-6" d="M823.3626,548.462h-16.41a7.4032,7.4032,0,0,0,7.629,7.1123,9.6055,9.6055,0,0,0,6.7548-2.7417v2.7022a10.8021,10.8021,0,0,1-6.8344,2.3046c-6.2383,0-9.9732-4.6884-9.9732-10.2119s3.8941-10.1718,9.5757-10.1718C820.0247,537.4557,823.4817,542.6212,823.3626,548.462Zm-16.3706-2.1059H820.82c-.5166-3.6954-2.98-6.5958-6.7153-6.5958C810.2108,539.76,807.5086,542.6212,806.992,546.3561Z"/><path class="cls-6" d="M840.681,547.588a10.0546,10.0546,0,1,1,10.0527,10.2514A9.9724,9.9724,0,0,1,840.681,547.588Zm17.7212,0a7.6529,7.6529,0,1,0-7.6685,7.9067A7.6412,7.6412,0,0,0,858.4022,547.588Z"/><path class="cls-6" d="M868.4124,529.9459v7.748h4.1318v2.3047h-4.1318v17.5625h-2.3447V539.9986h-2.543v-2.3047h2.543v-8.185a3.6337,3.6337,0,0,1,3.7353-3.9732,4.98,4.98,0,0,1,2.7412.7945v2.4634a4.1221,4.1221,0,0,0-2.3042-.834A1.8184,1.8184,0,0,0,868.4124,529.9459Z"/><path class="cls-6" d="M879.4173,529.9459v7.748h4.1318v2.3047h-4.1318v17.5625h-2.3447V539.9986H874.53v-2.3047h2.543v-8.185a3.6337,3.6337,0,0,1,3.7353-3.9732,4.9807,4.9807,0,0,1,2.7412.7945v2.4634a4.1221,4.1221,0,0,0-2.3042-.834A1.8184,1.8184,0,0,0,879.4173,529.9459Z"/><path class="cls-6" d="M919.1473,537.6939v19.8672h-2.3838v-4.0927a8.6851,8.6851,0,0,1-7.5493,4.371c-5.5235,0-9.3775-4.5693-9.3775-10.1718s3.854-10.2119,9.3775-10.2119a8.6392,8.6392,0,0,1,7.5493,4.4106v-4.1724Zm-2.3838,9.9737c0-4.252-3.06-7.9073-7.3111-7.9073s-7.1918,3.6158-7.1918,7.9073c0,4.331,2.94,7.8672,7.1918,7.8672S916.7635,551.919,916.7635,547.6676Z"/><path class="cls-6" d="M925.74,525.774h2.3843v31.7871H925.74Z"/><path class="cls-6" d="M934.7186,525.774h2.3842v31.7871h-2.3842Z"/><path class="cls-6" d="M964.4368,539.9986h-4.0927v17.5625H957.96V539.9986h-2.543v-2.3047h2.543V532.37h2.3843v5.3242h4.0927Z"/><path class="cls-6" d="M984.8187,546.3561v11.205h-2.3443V546.7936c0-4.7686-2.3442-7.232-5.8012-7.232-3.2979,0-5.88,2.4634-5.88,7.232v10.7675h-2.3843V525.774h2.3843v15.2178a7.2653,7.2653,0,0,1,6.397-3.6553C981.2825,537.3365,984.8187,540.2369,984.8187,546.3561Z"/><path class="cls-6" d="M1008.4573,537.6939v19.8672h-2.3838v-4.0927a8.6853,8.6853,0,0,1-7.55,4.371c-5.5229,0-9.3769-4.5693-9.3769-10.1718s3.854-10.2119,9.3769-10.2119a8.6394,8.6394,0,0,1,7.55,4.4106v-4.1724Zm-2.3838,9.9737c0-4.252-3.0595-7.9073-7.311-7.9073s-7.1919,3.6158-7.1919,7.9073c0,4.331,2.94,7.8672,7.1919,7.8672S1006.0735,551.919,1006.0735,547.6676Z"/><path class="cls-6" d="M1022.0833,539.9986h-4.0928v17.5625h-2.3842V539.9986h-2.543v-2.3047h2.543V532.37h2.3842v5.3242h4.0928Z"/><path class="cls-6" d="M1042.6614,529.9459v7.748h4.1328v2.3047h-4.1328v17.5625h-2.3442V539.9986h-2.543v-2.3047h2.543v-8.185a3.6337,3.6337,0,0,1,3.7353-3.9732,4.9848,4.9848,0,0,1,2.7417.7945v2.4634a4.1237,4.1237,0,0,0-2.3046-.834A1.8188,1.8188,0,0,0,1042.6614,529.9459Z"/><path class="cls-6" d="M1058.8714,537.3766v2.7016c-3.2188-.2383-5.7217,2.4634-5.7217,6.5562v10.9267h-2.3843V537.6939h2.3843V541.35A6.5041,6.5041,0,0,1,1058.8714,537.3766Z"/><path class="cls-6" d="M1079.5311,548.462h-16.41a7.4031,7.4031,0,0,0,7.6289,7.1123,9.6048,9.6048,0,0,0,6.7549-2.7417v2.7022a10.8015,10.8015,0,0,1-6.8345,2.3046c-6.2383,0-9.9731-4.6884-9.9731-10.2119s3.894-10.1718,9.5757-10.1718C1076.1932,537.4557,1079.65,542.6212,1079.5311,548.462Zm-16.3706-2.1059h13.8276c-.5166-3.6954-2.98-6.5958-6.7153-6.5958C1066.3792,539.76,1063.6771,542.6212,1063.1605,546.3561Z"/><path class="cls-6" d="M1101.9778,548.462h-16.41a7.4031,7.4031,0,0,0,7.6289,7.1123,9.6059,9.6059,0,0,0,6.7549-2.7417v2.7022a10.8026,10.8026,0,0,1-6.8345,2.3046c-6.2383,0-9.9731-4.6884-9.9731-10.2119s3.894-10.1718,9.5756-10.1718C1098.64,537.4557,1102.097,542.6212,1101.9778,548.462Zm-16.3706-2.1059h13.8277c-.5166-3.6954-2.98-6.5958-6.7154-6.5958C1088.826,539.76,1086.1238,542.6212,1085.6072,546.3561Z"/><path class="cls-6" d="M1119.138,554.74l1.6289-1.748a6.4608,6.4608,0,0,0,4.8477,2.5825c2.1455,0,3.854-1.2319,3.854-3.1787,0-4.9663-9.8936-3.3374-9.854-9.9331.0395-2.8613,2.4633-5.0464,5.8012-5.0859a8.2941,8.2941,0,0,1,5.9995,2.8208l-1.47,1.7085a6.2874,6.2874,0,0,0-4.49-2.2251c-1.9868,0-3.417,1.1919-3.4571,2.7817-.0791,4.6089,9.8941,3.0195,9.8545,9.9727-.04,3.0595-2.5429,5.4438-6.3178,5.4438A8.5981,8.5981,0,0,1,1119.138,554.74Z"/><path class="cls-6" d="M1135.4261,547.588a10.0547,10.0547,0,1,1,10.0527,10.2514A9.9724,9.9724,0,0,1,1135.4261,547.588Zm17.7212,0a7.6529,7.6529,0,1,0-7.6685,7.9067A7.6411,7.6411,0,0,0,1153.1473,547.588Z"/><path class="cls-6" d="M1160.7337,525.774h2.3843v31.7871h-2.3843Z"/><path class="cls-6" d="M1187.6321,537.6939v19.8672h-2.3838v-4.0927a8.6853,8.6853,0,0,1-7.55,4.371c-5.5229,0-9.3769-4.5693-9.3769-10.1718s3.854-10.2119,9.3769-10.2119a8.6394,8.6394,0,0,1,7.55,4.4106v-4.1724Zm-2.3838,9.9737c0-4.252-3.06-7.9073-7.311-7.9073s-7.1919,3.6158-7.1919,7.9073c0,4.331,2.94,7.8672,7.1919,7.8672S1185.2483,551.919,1185.2483,547.6676Z"/><path class="cls-6" d="M1202.3309,537.3766v2.7016c-3.2188-.2383-5.7217,2.4634-5.7217,6.5562v10.9267h-2.3843V537.6939h2.3843V541.35A6.504,6.504,0,0,1,1202.3309,537.3766Z"/><path class="cls-6" d="M1237.4515,548.462h-16.41a7.4031,7.4031,0,0,0,7.6289,7.1123,9.6057,9.6057,0,0,0,6.7549-2.7417v2.7022a10.8026,10.8026,0,0,1-6.8345,2.3046c-6.2382,0-9.9731-4.6884-9.9731-10.2119s3.894-10.1718,9.5757-10.1718C1234.1136,537.4557,1237.5706,542.6212,1237.4515,548.462Zm-16.3706-2.1059h13.8276c-.5166-3.6954-2.98-6.5958-6.7153-6.5958C1224.3,539.76,1221.5975,542.6212,1221.0809,546.3561Z"/><path class="cls-6" d="M1258.8255,546.3561v11.205h-2.3447V546.7936c0-4.7686-2.3443-7.232-5.8008-7.232-3.06,0-5.523,2.106-5.8408,6.2383v11.7612h-2.3843V537.6939h2.3843v3.2583a7.2174,7.2174,0,0,1,6.3574-3.6157C1255.2889,537.3365,1258.8255,540.2369,1258.8255,546.3561Z"/><path class="cls-6" d="M1281.9876,548.462h-16.41a7.4032,7.4032,0,0,0,7.629,7.1123,9.6055,9.6055,0,0,0,6.7548-2.7417v2.7022a10.8021,10.8021,0,0,1-6.8344,2.3046c-6.2383,0-9.9732-4.6884-9.9732-10.2119s3.8941-10.1718,9.5757-10.1718C1278.65,537.4557,1282.1067,542.6212,1281.9876,548.462Zm-16.3706-2.1059h13.8276c-.5166-3.6954-2.98-6.5958-6.7153-6.5958C1268.8358,539.76,1266.1336,542.6212,1265.617,546.3561Z"/><path class="cls-6" d="M1295.0965,537.3766v2.7016c-3.2188-.2383-5.7217,2.4634-5.7217,6.5562v10.9267h-2.3843V537.6939h2.3843V541.35A6.5041,6.5041,0,0,1,1295.0965,537.3766Z"/><path class="cls-6" d="M1316.2327,556.6871c0,6.1982-4.728,9.0986-9.3769,9.0986a13.8106,13.8106,0,0,1-7.43-2.2246l.0395-2.583a12.4628,12.4628,0,0,0,7.1123,2.583c4.1719,0,7.3506-2.5429,7.3506-7.4306v-2.7813a8.71,8.71,0,0,1-7.6289,4.49c-5.5229,0-9.3769-4.5693-9.3769-10.1718s3.854-10.2119,9.3769-10.2119a8.5953,8.5953,0,0,1,7.55,4.45v-4.212h2.3443Zm-2.3838-9.0195c0-4.252-3.06-7.9073-7.311-7.9073s-7.1919,3.6158-7.1919,7.9073c0,4.331,2.94,7.8672,7.1919,7.8672S1313.8489,551.919,1313.8489,547.6676Z"/><path class="cls-6" d="M1338.8382,537.6939l-11.8408,27.814h-2.3838l3.5762-8.4233-8.3443-19.3907h2.5825l6.9536,16.7681,6.8741-16.7681Z"/><path class="cls-6" d="M1341.7762,529.7477h2.6621l-.437,22.6084h-1.7881Zm0,26.3432a1.6533,1.6533,0,0,1,1.6684-1.6684,1.6787,1.6787,0,0,1,1.669,1.6684,1.6537,1.6537,0,0,1-1.669,1.669A1.63,1.63,0,0,1,1341.7762,556.0909Z"/><path class="cls-6" d="M278.6644,856.3507h-4.0923v17.562h-2.3843v-17.562h-2.543V854.046h2.543v-5.3242h2.3843v5.3242h4.0923Z"/><path class="cls-6" d="M299.0467,862.7081v11.2046h-2.3443V863.1451c0-4.7681-2.3442-7.2314-5.8012-7.2314-3.2979,0-5.88,2.4633-5.88,7.2314v10.7676h-2.3843V842.1256h2.3843v15.2182a7.2666,7.2666,0,0,1,6.397-3.6557C295.5106,853.6881,299.0467,856.589,299.0467,862.7081Z"/><path class="cls-6" d="M305.3221,848.4039a1.6633,1.6633,0,0,1,1.6689-1.709,1.6963,1.6963,0,0,1,1.7085,1.709,1.6628,1.6628,0,0,1-1.7085,1.6689A1.63,1.63,0,0,1,305.3221,848.4039Zm.5166,5.6421h2.3843v19.8667h-2.3843Z"/><path class="cls-6" d="M313.7444,871.0919l1.6289-1.7485a6.4615,6.4615,0,0,0,4.8477,2.583c2.1455,0,3.854-1.232,3.854-3.1787,0-4.9668-9.8935-3.3379-9.854-9.9336.04-2.8609,2.4634-5.0459,5.8013-5.086a8.2946,8.2946,0,0,1,6,2.8213l-1.47,1.7085a6.288,6.288,0,0,0-4.49-2.2251c-1.9868,0-3.417,1.1919-3.457,2.7813-.0791,4.6093,9.894,3.0195,9.8545,9.9731-.04,3.06-2.543,5.4439-6.3179,5.4439A8.5984,8.5984,0,0,1,313.7444,871.0919Z"/><path class="cls-6" d="M364.48,863.98c0,5.602-3.854,10.2114-9.377,10.2114a8.6323,8.6323,0,0,1-7.51-4.331v12h-2.3843V854.046h2.3843v4.0923a8.633,8.633,0,0,1,7.51-4.3306C360.6258,853.8077,364.48,858.377,364.48,863.98Zm-2.4238,0c0-4.3311-2.94-7.8677-7.1919-7.8677a7.4164,7.4164,0,0,0-7.271,7.0332v1.669a7.4516,7.4516,0,0,0,7.271,7.0722C359.1155,871.8863,362.056,868.2706,362.056,863.98Z"/><path class="cls-6" d="M377.7879,853.7281V856.43c-3.2188-.2388-5.7217,2.4633-5.7217,6.5556v10.9268h-2.3843V854.046h2.3843v3.6558A6.5037,6.5037,0,0,1,377.7879,853.7281Z"/><path class="cls-6" d="M379.6136,863.94a10.0547,10.0547,0,1,1,10.0527,10.251A9.9728,9.9728,0,0,1,379.6136,863.94Zm17.7212,0a7.6529,7.6529,0,1,0-7.6685,7.9068A7.6411,7.6411,0,0,0,397.3348,863.94Z"/><path class="cls-6" d="M420.6556,854.046l-8.94,19.9463h-1.311l-9.02-19.9463h2.5825l7.0728,16.1714,7.0727-16.1714Z"/><path class="cls-6" d="M424.15,848.4039a1.6633,1.6633,0,0,1,1.669-1.709,1.6963,1.6963,0,0,1,1.7085,1.709,1.6628,1.6628,0,0,1-1.7085,1.6689A1.63,1.63,0,0,1,424.15,848.4039Zm.5166,5.6421H427.05v19.8667h-2.3838Z"/><path class="cls-6" d="M452.0413,842.1256v31.7871h-2.3838V869.82a8.686,8.686,0,0,1-7.55,4.3706c-5.5229,0-9.3769-4.5693-9.3769-10.1719s3.854-10.2114,9.3769-10.2114a8.6385,8.6385,0,0,1,7.55,4.4107V842.1256Zm-2.3838,21.8935c0-4.2514-3.06-7.9072-7.311-7.9072s-7.1919,3.6162-7.1919,7.9072c0,4.3311,2.94,7.8672,7.1919,7.8672S449.6575,868.2706,449.6575,864.0191Z"/><path class="cls-6" d="M476.0774,864.8141h-16.41a7.4035,7.4035,0,0,0,7.6289,7.1123,9.608,9.608,0,0,0,6.7549-2.7417v2.7016a10.8026,10.8026,0,0,1-6.8345,2.3047c-6.2383,0-9.9731-4.6885-9.9731-10.2114s3.894-10.1719,9.5756-10.1719C472.74,853.8077,476.1966,858.9732,476.0774,864.8141Zm-16.3706-2.106h13.8277c-.5166-3.6953-2.98-6.5962-6.7154-6.5962C462.9256,856.1119,460.2234,858.9732,459.7068,862.7081Z"/><path class="cls-6" d="M479.3724,871.0919l1.6294-1.7485a6.4613,6.4613,0,0,0,4.8476,2.583c2.1455,0,3.854-1.232,3.854-3.1787,0-4.9668-9.8935-3.3379-9.854-9.9336.04-2.8609,2.4634-5.0459,5.8013-5.086a8.2953,8.2953,0,0,1,6,2.8213l-1.47,1.7085a6.2868,6.2868,0,0,0-4.49-2.2251c-1.9868,0-3.4169,1.1919-3.4565,2.7813-.08,4.6093,9.8936,3.0195,9.8535,9.9731-.0395,3.06-2.543,5.4439-6.3174,5.4439A8.6,8.6,0,0,1,479.3724,871.0919Z"/><path class="cls-6" d="M528.7571,854.046v19.8667h-2.3838V869.82a8.686,8.686,0,0,1-7.55,4.3706c-5.5229,0-9.3769-4.5693-9.3769-10.1719s3.854-10.2114,9.3769-10.2114a8.6385,8.6385,0,0,1,7.55,4.4107V854.046Zm-2.3838,9.9731c0-4.2514-3.0595-7.9072-7.311-7.9072s-7.1919,3.6162-7.1919,7.9072c0,4.3311,2.94,7.8672,7.1919,7.8672S526.3733,868.2706,526.3733,864.0191Z"/><path class="cls-6" d="M547.5062,871.0919l1.6294-1.7485a6.4612,6.4612,0,0,0,4.8476,2.583c2.1455,0,3.854-1.232,3.854-3.1787,0-4.9668-9.8935-3.3379-9.854-9.9336.04-2.8609,2.4634-5.0459,5.8013-5.086a8.2953,8.2953,0,0,1,6,2.8213l-1.47,1.7085a6.2868,6.2868,0,0,0-4.49-2.2251c-1.9868,0-3.417,1.1919-3.4565,2.7813-.08,4.6093,9.8935,3.0195,9.8535,9.9731-.0395,3.06-2.543,5.4439-6.3174,5.4439A8.6,8.6,0,0,1,547.5062,871.0919Z"/><path class="cls-6" d="M571.6624,856.3507H567.57v17.562h-2.3842v-17.562h-2.543V854.046h2.543v-5.3242H567.57v5.3242h4.0928Z"/><path class="cls-6" d="M592.283,864.8141h-16.41a7.4034,7.4034,0,0,0,7.6289,7.1123,9.6067,9.6067,0,0,0,6.7548-2.7417v2.7016a10.8011,10.8011,0,0,1-6.8344,2.3047c-6.2383,0-9.9732-4.6885-9.9732-10.2114s3.8941-10.1719,9.5757-10.1719C588.9451,853.8077,592.4022,858.9732,592.283,864.8141Zm-16.3706-2.106H589.74c-.5166-3.6953-2.98-6.5962-6.7153-6.5962C579.1312,856.1119,576.429,858.9732,575.9124,862.7081Z"/><path class="cls-6" d="M615.2064,854.046v19.8667h-2.3838V869.82a8.686,8.686,0,0,1-7.55,4.3706c-5.523,0-9.377-4.5693-9.377-10.1719s3.854-10.2114,9.377-10.2114a8.6385,8.6385,0,0,1,7.55,4.4107V854.046Zm-2.3838,9.9731c0-4.2514-3.06-7.9072-7.3111-7.9072s-7.1919,3.6162-7.1919,7.9072c0,4.3311,2.94,7.8672,7.1919,7.8672S612.8226,868.2706,612.8226,864.0191Z"/><path class="cls-6" d="M639.7191,842.1256v31.7871h-2.3838V869.82a8.6861,8.6861,0,0,1-7.55,4.3706c-5.523,0-9.377-4.5693-9.377-10.1719s3.854-10.2114,9.377-10.2114a8.6386,8.6386,0,0,1,7.55,4.4107V842.1256Zm-2.3838,21.8935c0-4.2514-3.06-7.9072-7.3111-7.9072s-7.1919,3.6162-7.1919,7.9072c0,4.3311,2.94,7.8672,7.1919,7.8672S637.3353,868.2706,637.3353,864.0191Z"/><path class="cls-6" d="M662.1258,854.046l-11.84,27.814h-2.3843l3.5762-8.4239-8.3443-19.39h2.5825l6.9536,16.7676,6.8741-16.7676Z"/><path class="cls-6" d="M676.9417,871.0919l1.6294-1.7485a6.4614,6.4614,0,0,0,4.8477,2.583c2.1455,0,3.854-1.232,3.854-3.1787,0-4.9668-9.8936-3.3379-9.854-9.9336.0395-2.8609,2.4633-5.0459,5.8012-5.086a8.2953,8.2953,0,0,1,6,2.8213l-1.47,1.7085a6.2864,6.2864,0,0,0-4.49-2.2251c-1.9868,0-3.417,1.1919-3.4566,2.7813-.08,4.6093,9.8936,3.0195,9.8536,9.9731-.04,3.06-2.543,5.4439-6.3174,5.4439A8.6,8.6,0,0,1,676.9417,871.0919Z"/><path class="cls-6" d="M701.098,856.3507h-4.0928v17.562h-2.3843v-17.562h-2.543V854.046h2.543v-5.3242h2.3843v5.3242h4.0928Z"/><path class="cls-6" d="M713.1756,853.7281V856.43c-3.2188-.2388-5.7217,2.4633-5.7217,6.5556v10.9268H705.07V854.046h2.3843v3.6558A6.5037,6.5037,0,0,1,713.1756,853.7281Z"/><path class="cls-6" d="M733.8353,864.8141h-16.41a7.4035,7.4035,0,0,0,7.6289,7.1123,9.6079,9.6079,0,0,0,6.7549-2.7417v2.7016a10.8026,10.8026,0,0,1-6.8345,2.3047c-6.2383,0-9.9731-4.6885-9.9731-10.2114s3.894-10.1719,9.5757-10.1719C730.4974,853.8077,733.9544,858.9732,733.8353,864.8141Zm-16.3706-2.106h13.8276c-.5166-3.6953-2.98-6.5962-6.7153-6.5962C720.6834,856.1119,717.9813,858.9732,717.4647,862.7081Z"/><path class="cls-6" d="M756.7586,854.046v19.8667h-2.3838V869.82a8.6858,8.6858,0,0,1-7.5493,4.3706c-5.5234,0-9.3774-4.5693-9.3774-10.1719s3.854-10.2114,9.3774-10.2114a8.6383,8.6383,0,0,1,7.5493,4.4107V854.046Zm-2.3838,9.9731c0-4.2514-3.06-7.9072-7.311-7.9072s-7.1919,3.6162-7.1919,7.9072c0,4.3311,2.94,7.8672,7.1919,7.8672S754.3748,868.2706,754.3748,864.0191Z"/><path class="cls-6" d="M791.8406,862.1519l-.0395,11.7608h-2.3843V862.6285c0-4.0527-2.0264-6.6753-5.3242-6.6753s-5.3242,2.6226-5.3242,6.9536l-.04,11.0059h-2.3442V862.6285c0-4.0527-2.0264-6.6753-5.3242-6.6753s-5.3242,2.6226-5.3242,6.9536v11.0059h-2.3843V854.046h2.3843v2.98a6.5818,6.5818,0,0,1,5.8408-3.3379,6.7756,6.7756,0,0,1,6.4765,4.49,7.0245,7.0245,0,0,1,6.5562-4.49C788.5823,853.6881,791.8406,856.6686,791.8406,862.1519Z"/><path class="cls-6" d="M810.39,863.94a10.0547,10.0547,0,1,1,10.0528,10.251A9.9729,9.9729,0,0,1,810.39,863.94Zm17.7212,0a7.6529,7.6529,0,1,0-7.6684,7.9068A7.641,7.641,0,0,0,828.1111,863.94Z"/><path class="cls-6" d="M838.1214,846.2979v7.7481h4.1318v2.3047h-4.1318v17.562h-2.3447v-17.562h-2.543V854.046h2.543v-8.1851a3.6341,3.6341,0,0,1,3.7353-3.9736,4.9766,4.9766,0,0,1,2.7412.7949v2.4634a4.1187,4.1187,0,0,0-2.3042-.8345A1.8189,1.8189,0,0,0,838.1214,846.2979Z"/><path class="cls-6" d="M862.8323,846.2979v7.7481h4.1319v2.3047h-4.1319v17.562h-2.3447v-17.562h-2.543V854.046h2.543v-8.1851a3.6341,3.6341,0,0,1,3.7354-3.9736,4.9768,4.9768,0,0,1,2.7412.7949v2.4634a4.1192,4.1192,0,0,0-2.3042-.8345A1.8189,1.8189,0,0,0,862.8323,846.2979Z"/><path class="cls-6" d="M886.9891,854.046v19.8667h-2.3843v-3.2578a7.2176,7.2176,0,0,1-6.3574,3.6157c-4.0928,0-7.6289-2.9009-7.6289-9.0195V854.046h2.3442v10.7681c0,4.7675,2.3442,7.2314,5.8013,7.2314,3.0595,0,5.5229-2.106,5.8408-6.2383V854.046Z"/><path class="cls-6" d="M911.0252,864.8141h-16.41a7.4036,7.4036,0,0,0,7.629,7.1123,9.6069,9.6069,0,0,0,6.7548-2.7417v2.7016a10.8013,10.8013,0,0,1-6.8344,2.3047c-6.2383,0-9.9732-4.6885-9.9732-10.2114s3.8941-10.1719,9.5757-10.1719C907.6873,853.8077,911.1443,858.9732,911.0252,864.8141Zm-16.3706-2.106h13.8276c-.5166-3.6953-2.98-6.5962-6.7153-6.5962C897.8733,856.1119,895.1712,858.9732,894.6546,862.7081Z"/><path class="cls-6" d="M916.0286,842.1256h2.3843v31.7871h-2.3843Z"/><path class="cls-6" d="M945.7464,856.3507h-4.0923v17.562H939.27v-17.562h-2.5429V854.046H939.27v-5.3242h2.3843v5.3242h4.0923Z"/><path class="cls-6" d="M947.5335,863.94a10.0547,10.0547,0,1,1,10.0527,10.251A9.9728,9.9728,0,0,1,947.5335,863.94Zm17.7212,0a7.6529,7.6529,0,1,0-7.6685,7.9068A7.6411,7.6411,0,0,0,965.2547,863.94Z"/><path class="cls-6" d="M1005.8177,863.98c0,5.602-3.854,10.2114-9.377,10.2114a8.6323,8.6323,0,0,1-7.51-4.331v12h-2.3843V854.046h2.3843v4.0923a8.633,8.633,0,0,1,7.51-4.3306C1001.9637,853.8077,1005.8177,858.377,1005.8177,863.98Zm-2.4238,0c0-4.3311-2.9405-7.8677-7.1919-7.8677a7.4164,7.4164,0,0,0-7.271,7.0332v1.669a7.4516,7.4516,0,0,0,7.271,7.0722C1000.4534,871.8863,1003.3939,868.2706,1003.3939,863.98Z"/><path class="cls-6" d="M1009.6292,863.94a10.0547,10.0547,0,1,1,10.0527,10.251A9.9728,9.9728,0,0,1,1009.6292,863.94Zm17.7212,0a7.6529,7.6529,0,1,0-7.6685,7.9068A7.6411,7.6411,0,0,0,1027.35,863.94Z"/><path class="cls-6" d="M1062.5115,854.046,1052.3,874.1515h-1.3115l-4.1719-8.3843-4.0928,8.3843h-1.3506l-10.1718-20.1055h2.5825l8.3442,16.6484,3.4966-7.271-4.6094-9.3774h2.5035l3.3374,7.1123,3.3378-7.1123h2.503l-4.6489,9.3774,3.5761,7.271,8.3047-16.6484Z"/><path class="cls-6" d="M1082.8514,864.8141h-16.41a7.4035,7.4035,0,0,0,7.6289,7.1123,9.6069,9.6069,0,0,0,6.7549-2.7417v2.7016a10.8016,10.8016,0,0,1-6.8345,2.3047c-6.2382,0-9.9731-4.6885-9.9731-10.2114s3.894-10.1719,9.5757-10.1719C1079.5135,853.8077,1082.9705,858.9732,1082.8514,864.8141Zm-16.3706-2.106h13.8276c-.5166-3.6953-2.98-6.5962-6.7153-6.5962C1069.7,856.1119,1066.9974,858.9732,1066.4808,862.7081Z"/><path class="cls-6" d="M1095.9608,853.7281V856.43c-3.2188-.2388-5.7217,2.4633-5.7217,6.5556v10.9268h-2.3843V854.046h2.3843v3.6558A6.5035,6.5035,0,0,1,1095.9608,853.7281Z"/><path class="cls-6" d="M1129.6907,854.046v19.8667h-2.3842v-3.2578a7.2176,7.2176,0,0,1-6.3575,3.6157c-4.0923,0-7.6289-2.9009-7.6289-9.0195V854.046h2.3443v10.7681c0,4.7675,2.3442,7.2314,5.8012,7.2314,3.06,0,5.523-2.106,5.8409-6.2383V854.046Z"/><path class="cls-6" d="M1155.5545,863.98c0,5.602-3.854,10.2114-9.3774,10.2114a8.6321,8.6321,0,0,1-7.5093-4.331v12h-2.3843V854.046h2.3843v4.0923a8.6328,8.6328,0,0,1,7.5093-4.3306C1151.7005,853.8077,1155.5545,858.377,1155.5545,863.98Zm-2.4238,0c0-4.3311-2.94-7.8677-7.1919-7.8677a7.4164,7.4164,0,0,0-7.271,7.0332v1.669a7.4516,7.4516,0,0,0,7.271,7.0722C1150.19,871.8863,1153.1307,868.2706,1153.1307,863.98Z"/><path class="cls-6" d="M1190.1976,854.046l-11.8409,27.814h-2.3837l3.5761-8.4239-8.3442-19.39h2.5825l6.9536,16.7676,6.874-16.7676Z"/><path class="cls-6" d="M1191.824,863.94a10.0547,10.0547,0,1,1,10.0528,10.251A9.9729,9.9729,0,0,1,1191.824,863.94Zm17.7212,0a7.6529,7.6529,0,1,0-7.6684,7.9068A7.641,7.641,0,0,0,1209.5452,863.94Z"/><path class="cls-6" d="M1233.1839,854.046v19.8667H1230.8v-3.2578a7.2174,7.2174,0,0,1-6.3574,3.6157c-4.0923,0-7.6289-2.9009-7.6289-9.0195V854.046h2.3442v10.7681c0,4.7675,2.3443,7.2314,5.8013,7.2314,3.06,0,5.5229-2.106,5.8408-6.2383V854.046Z"/><path class="cls-6" d="M1247.8826,853.7281V856.43c-3.2187-.2388-5.7217,2.4633-5.7217,6.5556v10.9268h-2.3842V854.046h2.3842v3.6558A6.5038,6.5038,0,0,1,1247.8826,853.7281Z"/><path class="cls-6" d="M326.02,922.4068v2.7022c-3.2187-.2388-5.7217,2.4634-5.7217,6.5556v10.9268h-2.3842V922.7247h2.3842v3.6558A6.504,6.504,0,0,1,326.02,922.4068Z"/><path class="cls-6" d="M346.68,933.4928H330.27a7.4035,7.4035,0,0,0,7.6289,7.1123,9.6079,9.6079,0,0,0,6.7549-2.7417v2.7016a10.802,10.802,0,0,1-6.8345,2.3047c-6.2382,0-9.9731-4.6885-9.9731-10.2114s3.894-10.1719,9.5757-10.1719C343.3421,922.4864,346.7991,927.6519,346.68,933.4928Zm-16.3706-2.106H344.137c-.5166-3.6953-2.98-6.5962-6.7153-6.5962C333.5281,924.7906,330.826,927.6519,330.3094,931.3868Z"/><path class="cls-6" d="M349.9749,939.7706l1.6294-1.7485a6.4614,6.4614,0,0,0,4.8477,2.583c2.1455,0,3.854-1.232,3.854-3.1787,0-4.9668-9.8936-3.3379-9.854-9.9336.0395-2.8609,2.4633-5.0459,5.8012-5.086a8.2953,8.2953,0,0,1,6,2.8213l-1.47,1.7085a6.2864,6.2864,0,0,0-4.49-2.2251c-1.9868,0-3.417,1.1919-3.4566,2.7813-.08,4.6093,9.8936,3.0195,9.8536,9.9731-.04,3.06-2.543,5.4439-6.3174,5.4439A8.6,8.6,0,0,1,349.9749,939.7706Z"/><path class="cls-6" d="M367.7337,917.0826a1.6633,1.6633,0,0,1,1.6689-1.709,1.6962,1.6962,0,0,1,1.7085,1.709,1.6629,1.6629,0,0,1-1.7085,1.669A1.63,1.63,0,0,1,367.7337,917.0826Zm.5166,5.6421h2.3838v19.8667H368.25Z"/><path class="cls-6" d="M395.6253,910.8043v31.7871h-2.3838v-4.0923a8.686,8.686,0,0,1-7.55,4.3706c-5.5229,0-9.3769-4.5693-9.3769-10.1719s3.854-10.2114,9.3769-10.2114a8.6385,8.6385,0,0,1,7.55,4.4107V910.8043Zm-2.3838,21.8935c0-4.2514-3.06-7.9072-7.311-7.9072s-7.1919,3.6162-7.1919,7.9072c0,4.3311,2.94,7.8672,7.1919,7.8672S393.2415,936.9493,393.2415,932.6978Z"/><path class="cls-6" d="M419.6614,933.4928h-16.41a7.4034,7.4034,0,0,0,7.6289,7.1123,9.608,9.608,0,0,0,6.7549-2.7417v2.7016a10.802,10.802,0,0,1-6.8345,2.3047c-6.2383,0-9.9732-4.6885-9.9732-10.2114s3.8941-10.1719,9.5757-10.1719C416.3235,922.4864,419.7806,927.6519,419.6614,933.4928Zm-16.3706-2.106h13.8277c-.5166-3.6953-2.98-6.5962-6.7154-6.5962C406.51,924.7906,403.8074,927.6519,403.2908,931.3868Z"/><path class="cls-6" d="M441.0355,931.3868v11.2046h-2.3448V931.8238c0-4.768-2.3442-7.2314-5.8008-7.2314-3.06,0-5.5229,2.1054-5.8408,6.2383v11.7607h-2.3842V922.7247h2.3842v3.2583a7.2178,7.2178,0,0,1,6.3575-3.6162C437.4988,922.3668,441.0355,925.2677,441.0355,931.3868Z"/><path class="cls-6" d="M454.3431,925.0294h-4.0923v17.562h-2.3843v-17.562h-2.543v-2.3047h2.543v-5.3242h2.3843v5.3242h4.0923Z"/><path class="cls-6" d="M500.5106,930.8307l-.04,11.7607h-2.3843V931.3072c0-4.0527-2.0263-6.6753-5.3242-6.6753s-5.3242,2.6226-5.3242,6.9536l-.04,11.0059H485.054V931.3072c0-4.0527-2.0264-6.6753-5.3242-6.6753s-5.3242,2.6226-5.3242,6.9536v11.0059h-2.3843V922.7247h2.3843v2.98a6.5818,6.5818,0,0,1,5.8408-3.3379,6.7758,6.7758,0,0,1,6.4766,4.49,7.0243,7.0243,0,0,1,6.5561-4.49C497.2523,922.3668,500.5106,925.3473,500.5106,930.8307Z"/><path class="cls-6" d="M506.7444,917.0826a1.6633,1.6633,0,0,1,1.669-1.709,1.6963,1.6963,0,0,1,1.7085,1.709,1.6629,1.6629,0,0,1-1.7085,1.669A1.63,1.63,0,0,1,506.7444,917.0826Zm.5166,5.6421h2.3838v19.8667H507.261Z"/><path class="cls-6" d="M515.3255,932.6583a10.2448,10.2448,0,0,1,16.7676-7.9072v2.94a8.5274,8.5274,0,0,0-6.5562-2.94,7.9074,7.9074,0,0,0,0,15.8139,8.527,8.527,0,0,0,6.5562-2.94v2.94a10.2443,10.2443,0,0,1-16.7676-7.9067Z"/><path class="cls-6" d="M545.7991,922.4068v2.7022c-3.2187-.2388-5.7217,2.4634-5.7217,6.5556v10.9268h-2.3842V922.7247h2.3842v3.6558A6.504,6.504,0,0,1,545.7991,922.4068Z"/><path class="cls-6" d="M547.6248,932.6187a10.0547,10.0547,0,1,1,10.0527,10.251A9.9728,9.9728,0,0,1,547.6248,932.6187Zm17.7212,0a7.6529,7.6529,0,1,0-7.6685,7.9068A7.6411,7.6411,0,0,0,565.346,932.6187Z"/><path class="cls-6" d="M592.2425,932.6583c0,5.602-3.854,10.2114-9.377,10.2114a8.6388,8.6388,0,0,1-7.5493-4.41v4.1318h-2.3843V910.8043h2.3843V926.857a8.6836,8.6836,0,0,1,7.5493-4.3706C588.3885,922.4864,592.2425,927.0558,592.2425,932.6583Zm-2.4238,0c0-4.3311-2.94-7.8677-7.1914-7.8677s-7.3111,3.6162-7.3111,7.8677,3.0591,7.9067,7.3111,7.9067S589.8187,936.9493,589.8187,932.6583Z"/><path class="cls-6" d="M614.888,933.4928h-16.41a7.4035,7.4035,0,0,0,7.6289,7.1123,9.6079,9.6079,0,0,0,6.7549-2.7417v2.7016a10.8017,10.8017,0,0,1-6.8344,2.3047c-6.2383,0-9.9732-4.6885-9.9732-10.2114s3.8941-10.1719,9.5757-10.1719C611.55,922.4864,615.0071,927.6519,614.888,933.4928Zm-16.3706-2.106H612.345c-.5166-3.6953-2.98-6.5962-6.7153-6.5962C601.7361,924.7906,599.034,927.6519,598.5174,931.3868Z"/><path class="cls-6" d="M618.1829,939.7706l1.6289-1.7485a6.4615,6.4615,0,0,0,4.8477,2.583c2.1455,0,3.854-1.232,3.854-3.1787,0-4.9668-9.8936-3.3379-9.854-9.9336.0395-2.8609,2.4634-5.0459,5.8013-5.086a8.2946,8.2946,0,0,1,6,2.8213l-1.47,1.7085a6.2875,6.2875,0,0,0-4.49-2.2251c-1.9868,0-3.417,1.1919-3.457,2.7813-.0791,4.6093,9.894,3.0195,9.8545,9.9731-.04,3.06-2.543,5.4439-6.3179,5.4439A8.5984,8.5984,0,0,1,618.1829,939.7706Z"/><path class="cls-6" d="M635.345,937.5851h2.4239l-1.9468,9.3374h-1.7085Z"/><path class="cls-6" d="M668.4007,942.5914l-9.7744-9.1387v9.1387H656.242V910.8043h2.3843v21.3374l9.4565-9.417h3.06l-10.1719,10.0527,10.6089,9.814Z"/><path class="cls-6" d="M691.5242,933.4928h-16.41a7.4034,7.4034,0,0,0,7.6289,7.1123,9.6071,9.6071,0,0,0,6.7549-2.7417v2.7016a10.801,10.801,0,0,1-6.8345,2.3047c-6.2383,0-9.9732-4.6885-9.9732-10.2114s3.8941-10.1719,9.5757-10.1719C688.1863,922.4864,691.6434,927.6519,691.5242,933.4928Zm-16.3706-2.106h13.8277c-.5166-3.6953-2.98-6.5962-6.7154-6.5962C678.3724,924.7906,675.67,927.6519,675.1536,931.3868Z"/><path class="cls-6" d="M713.971,933.4928h-16.41a7.4036,7.4036,0,0,0,7.629,7.1123,9.6076,9.6076,0,0,0,6.7548-2.7417v2.7016A10.8015,10.8015,0,0,1,705.11,942.87c-6.2383,0-9.9732-4.6885-9.9732-10.2114s3.8941-10.1719,9.5757-10.1719C710.6331,922.4864,714.09,927.6519,713.971,933.4928ZM697.6,931.3868H711.428c-.5166-3.6953-2.98-6.5962-6.7153-6.5962C700.8191,924.7906,698.117,927.6519,697.6,931.3868Z"/><path class="cls-6" d="M738.2454,932.6583c0,5.602-3.854,10.2114-9.3769,10.2114a8.6323,8.6323,0,0,1-7.51-4.331v12h-2.3843v-27.814h2.3843v4.0923a8.633,8.633,0,0,1,7.51-4.3306C734.3914,922.4864,738.2454,927.0558,738.2454,932.6583Zm-2.4238,0c0-4.3311-2.94-7.8677-7.1919-7.8677a7.4165,7.4165,0,0,0-7.271,7.0332v1.669a7.4516,7.4516,0,0,0,7.271,7.0722C732.8812,940.565,735.8216,936.9493,735.8216,932.6583Z"/><path class="cls-6" d="M743.4476,917.0826a1.6633,1.6633,0,0,1,1.6689-1.709,1.6963,1.6963,0,0,1,1.7085,1.709,1.6629,1.6629,0,0,1-1.7085,1.669A1.63,1.63,0,0,1,743.4476,917.0826Zm.5166,5.6421h2.3838v19.8667h-2.3838Z"/><path class="cls-6" d="M769.79,931.3868v11.2046h-2.3443V931.8238c0-4.768-2.3447-7.2314-5.8013-7.2314-3.06,0-5.5229,2.1054-5.8408,6.2383v11.7607h-2.3843V922.7247h2.3843v3.2583a7.2171,7.2171,0,0,1,6.3574-3.6162C766.2532,922.3668,769.79,925.2677,769.79,931.3868Z"/><path class="cls-6" d="M793.428,941.7174c0,6.1987-4.728,9.0991-9.3769,9.0991a13.8073,13.8073,0,0,1-7.43-2.2251l.04-2.5825a12.4624,12.4624,0,0,0,7.1123,2.5825c4.1718,0,7.3505-2.543,7.3505-7.43V938.38a8.7092,8.7092,0,0,1-7.6289,4.49c-5.5229,0-9.3769-4.5693-9.3769-10.1719s3.854-10.2114,9.3769-10.2114a8.5945,8.5945,0,0,1,7.55,4.45v-4.2119h2.3443Zm-2.3838-9.02c0-4.2514-3.06-7.9072-7.311-7.9072s-7.1919,3.6162-7.1919,7.9072c0,4.3311,2.94,7.8672,7.1919,7.8672S791.0442,936.9493,791.0442,932.6978Z"/><path class="cls-6" d="M820.76,925.0294h-4.0928v17.562H814.283v-17.562H811.74v-2.3047h2.543v-5.3242h2.3843v5.3242H820.76Z"/><path class="cls-6" d="M841.1419,931.3868v11.2046h-2.3442V931.8238c0-4.768-2.3443-7.2314-5.8013-7.2314-3.2979,0-5.88,2.4634-5.88,7.2314v10.7676h-2.3843V910.8043h2.3843v15.2183a7.2659,7.2659,0,0,1,6.397-3.6558C837.6058,922.3668,841.1419,925.2677,841.1419,931.3868Z"/><path class="cls-6" d="M864.2649,933.4928h-16.41a7.4035,7.4035,0,0,0,7.6289,7.1123,9.608,9.608,0,0,0,6.7549-2.7417v2.7016a10.802,10.802,0,0,1-6.8345,2.3047c-6.2383,0-9.9731-4.6885-9.9731-10.2114s3.894-10.1719,9.5756-10.1719C860.9271,922.4864,864.3841,927.6519,864.2649,933.4928Zm-16.3706-2.106H861.722c-.5166-3.6953-2.98-6.5962-6.7154-6.5962C851.1131,924.7906,848.4109,927.6519,847.8943,931.3868Z"/><path class="cls-6" d="M897.7576,930.8307l-.0395,11.7607h-2.3843V931.3072c0-4.0527-2.0264-6.6753-5.3242-6.6753s-5.3242,2.6226-5.3242,6.9536l-.04,11.0059h-2.3442V931.3072c0-4.0527-2.0264-6.6753-5.3242-6.6753s-5.3243,2.6226-5.3243,6.9536v11.0059h-2.3842V922.7247h2.3842v2.98a6.5821,6.5821,0,0,1,5.8409-3.3379,6.7756,6.7756,0,0,1,6.4765,4.49,7.0245,7.0245,0,0,1,6.5562-4.49C894.4993,922.3668,897.7576,925.3473,897.7576,930.8307Z"/><path class="cls-6" d="M935.6175,922.7247v19.8667h-2.3838v-4.0923a8.686,8.686,0,0,1-7.55,4.3706c-5.523,0-9.377-4.5693-9.377-10.1719s3.854-10.2114,9.377-10.2114a8.6385,8.6385,0,0,1,7.55,4.4107v-4.1724Zm-2.3838,9.9731c0-4.2514-3.06-7.9072-7.311-7.9072s-7.1919,3.6162-7.1919,7.9072c0,4.3311,2.94,7.8672,7.1919,7.8672S933.2337,936.9493,933.2337,932.6978Z"/><path class="cls-6" d="M940.82,932.6583a10.2448,10.2448,0,0,1,16.7676-7.9072v2.94a8.527,8.527,0,0,0-6.5561-2.94,7.9074,7.9074,0,0,0,0,15.8139,8.5267,8.5267,0,0,0,6.5561-2.94v2.94a10.2443,10.2443,0,0,1-16.7676-7.9067Z"/><path class="cls-6" d="M970.22,925.0294h-4.0923v17.562h-2.3842v-17.562h-2.543v-2.3047h2.543v-5.3242h2.3842v5.3242H970.22Z"/><path class="cls-6" d="M974.1922,917.0826a1.6633,1.6633,0,0,1,1.6689-1.709,1.6962,1.6962,0,0,1,1.7085,1.709,1.6629,1.6629,0,0,1-1.7085,1.669A1.63,1.63,0,0,1,974.1922,917.0826Zm.5166,5.6421h2.3843v19.8667h-2.3843Z"/><path class="cls-6" d="M1000.2957,922.7247l-8.94,19.9463h-1.3116l-9.0195-19.9463h2.5825l7.0728,16.1714,7.0727-16.1714Z"/><path class="cls-6" d="M1020.7967,933.4928h-16.41a7.4035,7.4035,0,0,0,7.6289,7.1123,9.6069,9.6069,0,0,0,6.7549-2.7417v2.7016a10.801,10.801,0,0,1-6.8345,2.3047c-6.2382,0-9.9731-4.6885-9.9731-10.2114s3.894-10.1719,9.5757-10.1719C1017.4588,922.4864,1020.9158,927.6519,1020.7967,933.4928Zm-16.3706-2.106h13.8276c-.5166-3.6953-2.98-6.5962-6.7153-6.5962C1007.6448,924.7906,1004.9427,927.6519,1004.4261,931.3868Z"/><path class="cls-6" d="M1057.3865,942.5914c-.9536-1.0723-1.8676-2.1455-2.8213-3.1787a9.2483,9.2483,0,0,1-7.51,3.6162c-4.45,0-8.6221-2.6621-8.6221-7.51,0-3.894,2.7017-5.96,5.6421-7.7085-1.9072-2.0263-4.0132-4.53-4.0132-7.1518a6.7033,6.7033,0,0,1,13.3906-.04c0,3.7354-2.94,5.7217-6,7.55,1.47,1.6684,3.9737,4.49,6.7154,7.6289a18.2821,18.2821,0,0,0,1.2314-7.0332h2.2251a17.863,17.863,0,0,1-1.8677,8.7812c1.47,1.7085,3.02,3.417,4.45,5.0459Zm-4.2915-4.8472c-2.5029-2.8213-4.9668-5.563-7.311-8.1059l-.2778-.3179c-2.543,1.5894-4.6885,3.2583-4.6885,6.08,0,3.4565,3.1787,5.3638,6.2378,5.3638A7.2067,7.2067,0,0,0,1053.095,937.7442Zm-7.0722-11.0859c2.7412-1.5493,5.1255-3.1392,5.1255-6a4.0508,4.0508,0,0,0-4.3707-4.1328,4.1506,4.1506,0,0,0-4.2915,4.1723C1042.4861,922.8834,1044.3138,924.87,1046.0228,926.6583Z"/><path class="cls-6" d="M1093.9764,931.3868v11.2046h-2.3443V931.8238c0-4.768-2.3442-7.2314-5.8012-7.2314-3.2979,0-5.88,2.4634-5.88,7.2314v10.7676h-2.3843V910.8043h2.3843v15.2183a7.2663,7.2663,0,0,1,6.397-3.6558C1090.44,922.3668,1093.9764,925.2677,1093.9764,931.3868Z"/><path class="cls-6" d="M1117.576,922.7247v19.8667h-2.3838v-4.0923a8.6858,8.6858,0,0,1-7.5493,4.3706c-5.5235,0-9.3775-4.5693-9.3775-10.1719s3.854-10.2114,9.3775-10.2114a8.6383,8.6383,0,0,1,7.5493,4.4107v-4.1724Zm-2.3838,9.9731c0-4.2514-3.06-7.9072-7.311-7.9072s-7.1919,3.6162-7.1919,7.9072c0,4.3311,2.94,7.8672,7.1919,7.8672S1115.1922,936.9493,1115.1922,932.6978Z"/><path class="cls-6" d="M1143.44,932.6583c0,5.602-3.854,10.2114-9.377,10.2114a8.6326,8.6326,0,0,1-7.51-4.331v12h-2.3842v-27.814h2.3842v4.0923a8.6332,8.6332,0,0,1,7.51-4.3306C1139.5858,922.4864,1143.44,927.0558,1143.44,932.6583Zm-2.4239,0c0-4.3311-2.94-7.8677-7.1919-7.8677a7.4166,7.4166,0,0,0-7.271,7.0332v1.669a7.4517,7.4517,0,0,0,7.271,7.0722C1138.0755,940.565,1141.0159,936.9493,1141.0159,932.6583Z"/><path class="cls-6" d="M1167.9129,932.6583c0,5.602-3.854,10.2114-9.3774,10.2114a8.6321,8.6321,0,0,1-7.5093-4.331v12h-2.3843v-27.814h2.3843v4.0923a8.6328,8.6328,0,0,1,7.5093-4.3306C1164.0589,922.4864,1167.9129,927.0558,1167.9129,932.6583Zm-2.4238,0c0-4.3311-2.94-7.8677-7.1919-7.8677a7.4164,7.4164,0,0,0-7.271,7.0332v1.669a7.4516,7.4516,0,0,0,7.271,7.0722C1162.5486,940.565,1165.4891,936.9493,1165.4891,932.6583Z"/><path class="cls-6" d="M1188.5711,922.7247l-11.84,27.814h-2.3843l3.5762-8.4239-8.3443-19.39h2.5825l6.9537,16.7676,6.874-16.7676Z"/><path class="cls-6" d="M1187.4168,941.1217a1.6536,1.6536,0,0,1,1.669-1.669,1.6788,1.6788,0,0,1,1.6684,1.669,1.6538,1.6538,0,0,1-1.6684,1.6689A1.63,1.63,0,0,1,1187.4168,941.1217Z"/><text class="cls-8" transform="translate(438.3323 1135.338)">carbon f<tspan class="cls-9" x="175.2598" y="0">r</tspan><tspan x="188.1997" y="0">om </tspan><tspan class="cls-9" x="270.8809" y="0">r</tspan><tspan x="283.8208" y="0">o</tspan><tspan class="cls-10" x="311.1543" y="0">o</tspan><tspan class="cls-11" x="337.9424" y="0">t inpu</tspan><tspan class="cls-12" x="457.3101" y="0">t</tspan><tspan class="cls-13" x="469.4785" y="0">s </tspan><tspan class="cls-14" x="503.667" y="0">s</tspan><tspan class="cls-11" x="521.4653" y="0">tic</tspan><tspan class="cls-15" x="569.4126" y="0">k</tspan><tspan class="cls-13" x="590.6621" y="0">s a</tspan><tspan class="cls-9" x="652.8652" y="0">r</tspan><tspan class="cls-13" x="665.8052" y="0">ou</tspan><tspan class="cls-16" x="719.019" y="0">n</tspan><tspan x="744.2637" y="0">d</tspan></text><text class="cls-8" transform="translate(349.659 1200.8248)">much lo<tspan class="cls-17" x="168.7231" y="0">n</tspan><tspan class="cls-13" x="193.9683" y="0">ger t</tspan><tspan class="cls-18" x="289.6792" y="0">h</tspan><tspan x="314.9243" y="0">an carbon f</tspan><tspan class="cls-9" x="559.7432" y="0">r</tspan><tspan x="572.6831" y="0">om plant </tspan><tspan class="cls-19" x="775.731" y="0">r</tspan><tspan class="cls-20" x="788.6704" y="0">e</tspan><tspan x="814.0967" y="0">sidu</tspan><tspan class="cls-21" x="897.9126" y="0">e</tspan><tspan x="923.3843" y="0">s, </tspan></text><text class="cls-8" transform="translate(422.4432 1270.3082)"><tspan class="cls-18">h</tspan><tspan x="25.2451" y="0">elpi</tspan><tspan class="cls-17" x="100.5254" y="0">n</tspan><tspan class="cls-13" x="125.7705" y="0">g </tspan><tspan class="cls-22" x="169.4487" y="0">t</tspan><tspan x="181.1177" y="0">o i</tspan><tspan class="cls-17" x="235.5112" y="0">n</tspan><tspan x="260.7563" y="0">c</tspan><tspan class="cls-9" x="284.73" y="0">r</tspan><tspan x="297.6699" y="0">ea</tspan><tspan class="cls-23" x="351.3374" y="0">s</tspan><tspan x="369.7715" y="0">e </tspan><tspan class="cls-23" x="411.0889" y="0">s</tspan><tspan class="cls-13" x="429.5229" y="0">oil o</tspan><tspan class="cls-9" x="521.5112" y="0">r</tspan><tspan class="cls-13" x="534.4512" y="0">ganic </tspan><tspan class="cls-24" x="667.3945" y="0">m</tspan><tspan class="cls-13" x="706.3975" y="0">at</tspan><tspan class="cls-19" x="746.9888" y="0">t</tspan><tspan x="758.7026" y="0">e</tspan><tspan class="cls-25" x="784.356" y="0">r</tspan><tspan x="796.9326" y="0">.</tspan></text><path class="cls-26" d="M553.732,375.9038c.1751,2.6311-1.2881,5.0765-2.8592,7.1943-7.01,9.45-20.3691,11.7025-31.7229,11.3809-12.2041-.3457-24.2151-4.7247-36.3674-3.5495A80.3492,80.3492,0,0,0,470.28,393.497q-9.3975,2.4553-18.795,4.9109c-5.5205,1.4449-10.3035,1.1351-16.02.9488-12.41-.4046-24.799-1.2634-37.1979-1.9031-24.24-1.2507-48.7574-1.6185-72.6032,3.5945-31.7671,6.9446-57.018,25.53-85.3457,39.2061-17.4243,8.4123-36.3425,21.07-56.0622,25.2453-15.931,3.3733-27.0143-2.98-42.3946-5.1637-15.5311-2.2056-35.7917-2.98-49.7043,5.0493-15.9752,9.22-18.27,27.6643-36.5747,36.0952"/><path class="cls-26" d="M555.0485,377.0668c-2.1134,4.0684-5.7677,7.1078-9.5442,9.7071-11.7121,8.0614-25.6838,12.2908-39.2348,15.9767-14.8722,4.0453-30.2214,7.0452-45.6893,6.9868-12.7054-.048-25.9343-.1111-38.018-4.3247-11.1109-3.8745-21.2191-10.0682-32.1164-14.4512-28.6826-11.5362-59.0167-9.9142-89.2111-11.4925-34.8934-1.8229-63.3742,5.1789-91.7129,22.7794-23.6948,14.715-41.99,28.4369-51.9952,53.0545-11.3895,28.0236-1.8392,62.1162-17.8825,88.79-14.2876,23.7551-37.0085,18.3721-49,43-9.5051,19.5218-6,65-40,70"/><path class="cls-26" d="M554.0091,378.4415a32.5143,32.5143,0,0,1-7.6709,8.93c-2.9091,2.4205-6.2978,4.1783-9.1837,6.5545-6.481,5.3365-15.034,8.809-22.91,11.4538a133.0693,133.0693,0,0,1-29.1195,6.079,142.7406,142.7406,0,0,1-28.5466.0781C407.6765,406.577,351.8,352.8539,309.4735,390.1748c-30.0147,26.465-113.1341,31.093-132.8294,63.9186-12,20,6.0635,60.2382,3,74"/><path class="cls-26" d="M297.7883,379.3179c-16.2535-.5654-55.232,26.5753-65.6871,37.8619-10.2963,11.1151-28.0653,28.102-29.16,42.5672-2.2969,30.3464,5.1475,43.37,4.7031,62.3464-1.6646,71.074-79.0051,44.212-69,106"/><path class="cls-26" d="M267.4637,425.8c-12.3663,6.7324-36.0123,18.6325-47.82,28.293-11,9-18.96,19.8068-27,33-7.2911,11.9643-9.2028,42.339-21.2182,52.03C141.4745,563.2819,120.4,522.62,89.9585,527.7871c-23.764,4.0326-27.4463,23.19-34.3764,36.4"/><path class="cls-26" d="M554.5992,375.4971a30.9321,30.9321,0,0,1-7.4,14.2809,67.954,67.954,0,0,1-12.33,10.5611,90.22,90.22,0,0,1-19.61,10.9019c-3.9,1.4806-7.942,2.5585-11.8667,3.9729-5.3611,1.9321-10.415,4.4214-15.9665,5.715a116.2753,116.2753,0,0,1-17.9749,3.1148,105.5266,105.5266,0,0,1-20.9829-1.0295c-6.7051-.86-13.4288-1.1637-20.1492-1.9034-13.5612-1.4926-26.95-4.1721-40.3473-6.6912-6.5665-1.2347-13.1409-2.4345-19.747-3.44-23.1948-3.5311-47.3951-4.2944-69.1432,5.8463-17.862,8.3286-30.061,17.3085-50.1452,23.2477-25.5417,7.552-42.821,8.4053-59.2083,24.9647-10.1811,10.2884-23.9065,30.8746-24.0838,43.0553-.5154,35.4181,16.8875,42.2683,17,62"/><path class="cls-26" d="M553.4583,375.6163l-1.3122,4.5471a6.9132,6.9132,0,0,0-.27,3.541,20.3,20.3,0,0,0,.5918,3.508c.8706,2.9793,1.3008,6.01,2.4647,8.9294a27.2867,27.2867,0,0,0,3.8875,6.86c3.9677,5.0121,9.7983,7.8271,15.94,9.192,9.5668,2.1261,19.7057,1.4292,29.3494.2711,13.9182-1.6714,28.4945,1.8732,42.1018,4.3937,15.4,2.8525,31.1968,6.1821,46.9451,5.4367,12.8424-.6078,25.706-4.9772,31.4508-17.4044,1.884-4.0756,2.1222-7.3654,2.1978-11.7535.1077-6.2515-.19-12.7646-3.0068-18.4749"/><path class="cls-26" d="M553.2335,379.674a.2548.2548,0,0,0-.37-.0144,25.9533,25.9533,0,0,0-1.6741,6.7879,6.3361,6.3361,0,0,0,.8369,3.9422,7.3112,7.3112,0,0,0,1.5565,1.5635c3.7274,2.98,8.1832,4.6418,12.5887,6.3668a124.4234,124.4234,0,0,0,12.4689,4.07,244.0034,244.0034,0,0,0,30.0451,5.9941q11.1754,1.597,22.4343,2.5192c18.4127,1.5331,34.6691-6.7638,52.1248-5.4371,9.7987.7448,22.0146,3.846,29.4725-4.7867,2.8092-3.2517,3.5681-7.6112,5.0629-11.5132a105.1564,105.1564,0,0,1,6.5581-13.0426"/><path class="cls-26" d="M725.3957,374.54c-2.6592,4.2566-4.4053,9.0077-6.1327,13.72-2.14,5.8374-.2841,14.281,3.5951,19.1,9.8717,12.2625,30.72,12.0644,44.8773,11.1139,7.4521-.5,15.1717-.9019,22.2834-3.3837,5.6009-1.9547,9.0538-6.0518,13.7945-9.3476,4.6226-3.2137,8.0911-7.5114,11.9033-11.6382"/><path class="cls-26" d="M922.6441,346.0934c-6.5145,35.1693,68.7928,38.5473,95.54,39.4159,37.5766,1.22,69.16-11.1876,105.1861-16.883,36.2073-5.7238,72.0956-3.4794,108.516-.399,34.8637,2.9487,41.27,9.99,68.421,26.2935,30.246,18.1619,60.096,26.41,82.1637,53.3374,38.954,47.5276,100.9909,99.0818,173.52,97.5171"/><path class="cls-26" d="M1259.75,372.9285c49.78-2.38,106.7894,32.98,149.4239,53.2317a389.0341,389.0341,0,0,0,58.0824,21.6429c30.6568,8.9137,59.936,8.7853,91.7159,7.6154"/><path class="cls-26" d="M921.1332,336.8743c2.5265,35.2469-12.3921,74.3039,41.1791,80.3361,73.9853,8.3317,149.9477-15.45,223.87-13.0013,25.4528.8431,51.1131-.8324,76.6439-1.4964,12.5826-.3273,25.5607-.5889,37.2777,4.0088,18.2649,7.167,30.2,24.7266,46.5969,35.5025,24.5655,16.1443,56.1229,15.4876,85.4929,14.2608"/><path class="cls-26" d="M945.6441,375.0934c2.1586,42.8508,50.2546,45.6823,94.9091,40.5492,18.1562-2.0862,35.1761-7.8935,52.657-2.3826,15.56,4.9053,29.3582,12.111,45.3888,15.7073,18.3722,4.1216,37.7648,1.2194,55.6989-3.6127,31.4941-8.4855,60.3535-21.41,93.5017-21.6364"/><path class="cls-26" d="M1082.6242,369.5787c25.6293,6.026,54.9484,12.986,71.39,31.57,20.7026,23.4007,41.7648,35.4128,73.6659,34.6051,40.6094-1.0283,81.9327-3.2057,122.38,1.733,31.0388,3.79,66.78,6.75,90.3678,29.826,16.5244,16.166,23.7817,39.4736,37.4859,58.0906,16.4812,22.3893,40.2,31.7122,64.2246,43.611"/><path class="cls-26" d="M1372.766,407.9182c29.2865,13.9954,47.761,60.6607,43.3785,89.7763-4.7983,31.8787-56.3806,65.4037-35.41,99.4136"/><path class="cls-26" d="M1423.9315,432.5328c28.6846,17.2534,31.047,44.0573,29.7256,72.9892-1.7407,38.1345,31.74,84.9283,79.0851,90.0183"/><path class="cls-26" d="M922.879,364.79a8.3965,8.3965,0,0,1-2.3867,4.2338,36.1581,36.1581,0,0,1-6.6919,5.09c-15.3873,10.0387-28.57,21.3913-47.4154,24.1643a69.1807,69.1807,0,0,1-20.3046.053c-6.5961-.99-12.8752-3.9369-19.5515-4.2967-5.2268-.2817-10.4647-.0459-15.6387-.9864-5.1982-.945-10.2954-2.4726-15.4069-3.7887-11.7355-3.0217-23.9581-5.286-35.6979-.9875-8.5962,3.1477-41.4259,27.0223-38.9446,3.47"/><path class="cls-26" d="M562.0907,396.5641c1.6026,2.2957,2.6068,4.8558,4.418,7.064a48.6988,48.6988,0,0,0,6.01,5.9821,60.1013,60.1013,0,0,0,8.3292,6.2684c5.942,3.5263,12.7113,5.9554,19.1421,8.44,3.0053,1.1612,6.5245,1.12,9.6986.8635,6.2622-.505,12.2923-2.3645,18.3848-3.7738,21.6869-5.0166,40.7052-8.4368,62.4572-9.286,15.899-.6206,29.9071-5.6995,32.0984-20.38"/><path class="cls-26" d="M724.9168,376.4144c.091,5.261-1.3755,10.62-2.437,15.7411-.562,2.7121.5142,4.5632,2.0747,6.7769a30.9982,30.9982,0,0,0,9.77,8.6046c12.2166,7.1953,27.2825,9.3375,41.17,10.5761,16.4726,1.4692,33.0856,1.2192,49.5835.3282,12.856-.6942,25.6731-1.8776,38.4787-3.1885,40.0509-4.1,62.8566-37.9252,59.3648-72.1075"/><path class="cls-26" d="M920.6441,342.0934c7,23,2.6291,36.8244,20.3794,49.6849,21.326,15.452,48.7391,7.3131,65.8641-4.6134,18.3441-12.7748,44.1144-23.61,68.0426-19.4041,13.0848,2.3006,44.4416,17.3127,53.6433.0981"/><path class="cls-26" d="M923.6441,366.0934c-.8815,22.8548,7.3789,30.2361,29.5013,38.4229,25.3162,9.3688,43.65,17.5239,71.581,11.1569,26.8519-6.12,51.42-16.9309,78.673-21.8913,17.5512-3.1947,28.1933-5.9485,42.9722,1.4871,11.4418,5.7566,17.74,13.6014,31.7083,16.9288,45.4148,10.8171,68.3965-20.3715,89.6806-36.3614"/><path class="cls-26" d="M1115.0054,408.1825c34.3655-1.3339,34.7171-46.17,69.9382-42.9029"/><path class="cls-26" d="M1124.82,372.4039c-6.8336,10.6089-31.3742,15.0365-42.4319,25.1688-7.269,6.6609-10.0179,17.8393-21.765,16.9717"/><path class="cls-26" d="M1026.5649,385.56c10.2042,3.82,23.4148,2.5976,34.0579,7.755,11.6376,5.64,15.6138,11.8776,29.5136,14.1792,25.8157,4.2746,55-4.342,79.2121-11.0488,23.28-6.45,38.9412-15.4142,64.7429-12.1868,22.613,2.8292,42.4,17.75,65.8141,17.7525,17.5721.0022,40.2053-2.9643,56.9378,2.8966,13.6519,4.7819,25.4329,16.4093,38.2665,23.3385,14.1615,7.6462,28.4967,15.1377,38.0415,28.6109,15.2391,21.5109,15.13,50.1286,12.0958,76.3153-1.67,14.417-4.0125,28.7852-4.6612,43.3019-.5737,12.8386-1.0452,28.2756,4.2287,40.25,5.554,12.61,17.6608,20.8744,29.2759,28.2872"/><path class="cls-26" d="M1582.3933,500.7211c-11.7883-1.5108-23.4754,1.5017-35.8072-.5557a157.8291,157.8291,0,0,1-41.9206-13.1837c-14.8361-7.0772-28.4766-16.3806-43.2522-23.5678-13.2174-6.4292-25.9351-8.3028-39.9436-11.4882-34.4992-7.8446-66.5447-20.7449-102.2406-23.9085-21.0845-1.8686-59.1592,8.3-73.0949-13.52-10.6751-16.714,16.7094-43.2169-22.6395-46.9622"/><path class="cls-26" d="M1381.5125,413.3829c.7611,27.6361,10.919,33.0926,32.8187,47.8935,21.6442,14.6282,35.2757,43.1846,26.517,67.7964-3.2606,9.1623-9.2086,17.0692-14.2787,25.3682a148.1472,148.1472,0,0,0-21.5808,78.3716c.1152,10.4567,1.3859,21.047,5.3716,30.715"/><path class="cls-26" d="M1427.2313,433.8626c21.0313,10.0771,33.1207,35.8011,51.8664,50.0242,25.4862,19.3367,40.2174,48.6239,31.8726,79.684-6.0312,22.4487-2.9742,41.525,8.6738,65.5226"/><path class="cls-26" d="M1468.656,448.2072c11.4873,19.0876,30.2482,34.7651,28.44,58.7654-2.6752,35.5061-40.6965,64.6961-67.9514,82.1339-5.6,3.5831-11.2334,7.1913-16.1175,11.702-11.8833,10.9746-18.5584,26.6682-21.47,42.58"/><path class="cls-26" d="M544.3406,392.9881a58.9785,58.9785,0,0,1-8.3373,12.6427A99.3584,99.3584,0,0,1,525.3655,416.48a25.5878,25.5878,0,0,1-8.2736,4.734c-23.63,7.8265-52.1511-9.6015-71.25-18.8814-17.1431-8.33-44.037-19.3214-62.8055-16.4"/><path class="cls-26" d="M366.0771,380.31c12.7787,2.6558,30.5265,20.5064,40.0526,29.89,16.2052,15.9624,28.9582,17.1637,53.532,19.1243,27.5214,2.1965,46.98-.4572,71.9629-10.5068,16.5534-6.66,34.8067-16.3971,53.7015-16.096,24.8574.3971,48.1895,12.3941,74.7619,12.536,18.6988.1,40.9315-1.9886,56.4325-13.5378a25.8774,25.8774,0,0,0,7.6414-8.4081c2.1356-4.092,1.6687-8.1206,2.0127-12.5475.1323-1.7026.246-3.62-.8887-4.8963"/><path class="cls-26" d="M724.2639,375.6338c5.6319,13.871,7.7068,27.1193,24.4987,34.14,18.718,7.8245,48.75,8.49,68.94,6.2659,26.4432-2.913,62.215-35.82,87.1819-26.757,12.2162,4.4349,13.8486,17.3362,24.6326,23.6633,9.34,5.48,21.83,5.9088,32.7283,3.8326a71.6409,71.6409,0,0,0,26.62-10.6336,61.2122,61.2122,0,0,0,10.315-8.72c3.6228-3.8311,7.6469-6.4591,12.0244-9.4711a33.7943,33.7943,0,0,1,6.1725-3.6316,11.3445,11.3445,0,0,1,7.014-.7517"/><path class="cls-26" d="M923.3528,361.4816A51.93,51.93,0,0,1,910.4474,380.27c-3.8121,3.5282-8.1359,6.4645-11.9941,9.9422-.7688.6929-1.5192,1.4078-2.2374,2.1533-5.3771,5.5816-6.2727,12.7438-10.54,18.9114a22.7517,22.7517,0,0,1-11.91,8.8085c-12.0655,3.9077-25.99,1.998-38.4728,2.975-27.1,2.1211-57.483,15.8816-84.4208,14.171-11.676-.7421-32.3313-8.4858-37.3135-18.8426-2.8352-5.8939-1.27-10.8323,2.1264-16,4.1157-6.2618,5.9445-12.405,7.8237-19.6474.5922-2.2823,1.1864-4.68.62-6.9689"/><path class="cls-26" d="M553.5949,371.9737l-.456,6.7053a17.0506,17.0506,0,0,0,.0062,3.55c.4622,3.2556,2.7319,5.9326,5.0137,8.3a106.2354,106.2354,0,0,0,11.1431,10.0359c3.2683,2.55,6.78,5.582,10.7224,6.9523,9.4317,3.2782,20.1154,1.3463,29.5675-.8222,9.6815-2.2211,19.1591-5.6031,28.9851-7.1564,14.7579-2.3322,26.611-4.2072,39.4361-3.058,8.9063.7981,17.5225,3.9046,26.5467,3.6076,3.9869-.1312,8.7616-1.003,11.87-3.7437,1.8169-1.6022,2.7118-4.5145,3.7955-6.6846l4.2713-8.5531a8.2445,8.2445,0,0,0,1.2326-4.3216"/><path class="cls-26" d="M552.6574,382.1423a7.1323,7.1323,0,0,0,4.0566,4.3389,21.1287,21.1287,0,0,0,5.94,1.4374c7.418,1.0491,14.6658,1.7892,22.0982.3609,6.4415-1.2379,12.4322-3.318,19.07-2.3643,13.3442,1.9172,26.9393,1.2464,40.2292,3.5091A54.6689,54.6689,0,0,1,660.123,394.49c14.291,7.4131,20.71,20.4349,38.86,24.3329,6.15,1.3207,13.3567,1.9866,18.9465-1.516a23.335,23.335,0,0,0,7.0964-7.2695,18.7739,18.7739,0,0,0,.8878-1.841c.8584-1.9589,1.7352-4.0208,1.5575-6.1522"/><path class="cls-26" d="M923.1515,362.9465c-2.4277,3.8492-6.7163,6.2-11.1189,7.3524s-8.9985,1.2583-13.5376,1.5848c-16.3217,1.1742-32.1814,5.6252-44.7149,16.4119-11.2039,9.6425-25.0323,18.9387-39.9882,20.7719-16.0875,1.9719-33.5864-7.3826-48.739-3.6061-11.6434,2.9008-17.2439,12.393-28.56,18.4273-30.58,16.3042-79.6394,2.0872-115.707,3.9153-15.7662.8-39.0144,12.595-53.5512,7.6887-9.5709-3.23-15.0251-8.4692-17.5164-18.1227-3.17-12.2814-3.6857-26.3441,1.7151-38.0747A6.5029,6.5029,0,0,1,552.62,377.39c.7253-.7337,1.8836-1.6229,1.3354-2.4968"/><path class="cls-26" d="M253.0632,383.5415c-3.702,4.0827-22.5951,7.7643-31.1255,14.3547-16.3141,12.6043-28.8418,27.3775-51.33,31.1162C125.5505,436.5031,66.6648,396.555,25.18,416.8256"/><path class="cls-26" d="M262.6336,393.889c-17.5553-.6715-58.19,7.68-74.5373,15.0529C163.09,420.22,140.6194,449.135,122.5872,468.2491,93.1156,499.4889,42.0339,530.7419.1441,503.048"/><path class="cls-26" d="M1369.1251,406.09c14.3656,5.8536,3.23,50.1538,2.6675,62.2651-2.15,46.3355,43.276,57.2924,81.82,75.8013,9.7782,4.6951,28.5578,14.9834,32.4547,24.8146,3.372,8.5042-5.31,17.2738-3.4789,24.9258,6.5109,27.1953,47.0845,10.1731,62.6714,22.0226"/><path class="cls-27" d="M921.32,372.67s5.1515-15.99-1.2609-36.9827c-6.161-20.1658,12.5582-24.0379,12.5582-24.0379"/><path class="cls-27" d="M917.7391,300.3146s1.9716-12.122-14.5182-17.9155"/><path class="cls-4" d="M909.4279,310.6529c-.0066-.0032-10.4753-8.42-20.7432-11.9957a99.2819,99.2819,0,0,1-10.9263-4.7523c2.5578.382,5.24,1.4033,12.3771,4.1186,7.335,2.5339,15.1758,7.9375,19.5033,11.8147.5682-1.1153,1.966-3.4984,1.858-5.4511-1.47-26.7746-41.0253-28.7908-41.0253-28.7908-21.6056-.2885-26.4607,10.0771-26.4607,10.0771,7.7687.5756,19.4215,20.441,19.4215,20.441s17.2348,25.9114,42.2387,14.683c7.0127-3.1486,2.67-9.2126,2.67-9.2126s.244.2812,1.0864-.9319"/><path class="cls-4" d="M951.8538,271.8136s-27.7852,10.5029-24.4272,34.4031a10.2984,10.2984,0,0,0,.9506,3.26c31.5306-18.1519,48.7063-17.7454,48.7063-17.7454-20.8373,1.766-48.5425,19.9137-48.551,19.9179.7606.7235,2.6437.3424,4.0843,0,0,0-4.5563,4.7077,1.6918,9.054,0,0,27.2043,13.7521,59.9885-18.47,16.4984-16.2144,19.847-11.2252,19.847-11.2252s-17.71-34.4032-62.29-19.1938"/><path class="cls-27" d="M723.1924,386.8278c.8792-6.5336,3.2124-12.7638,4.0839-19.3036a140.5863,140.5863,0,0,0-4.1956-58.9288q-.433-1.5324-.8984-3.0555c-12.3494-40.4213,25.1722-48.1828,25.1722-48.1828"/><path class="cls-27" d="M717.533,234.6382s3.9519-24.298-29.101-35.9106"/><path class="cls-4" d="M700.8738,255.3608c-.0134-.0064-20.9972-16.8781-41.5787-24.0447a199.0245,199.0245,0,0,1-21.9013-9.5259c5.127.7658,10.5037,2.8128,24.8093,8.2557,14.7027,5.0789,30.4192,15.91,39.0933,23.6817,1.139-2.2355,3.9408-7.0123,3.7242-10.9263-2.9454-53.6682-82.2329-57.71-82.2329-57.71-43.3071-.5783-53.039,20.1991-53.039,20.1991,15.5719,1.1537,38.9294,40.9728,38.9294,40.9728s34.5461,51.9379,84.6651,29.4312c14.0566-6.3111,5.3528-18.4662,5.3528-18.4662s.4892.5636,2.1778-1.8678"/><path class="cls-4" d="M785.914,177.5094S730.22,198.562,736.9511,246.4686a20.6431,20.6431,0,0,0,1.9053,6.5339c63.2013-36.3845,97.6292-35.57,97.6292-35.57-41.7672,3.54-97.3009,39.9161-97.3179,39.9244,1.5247,1.45,5.2992.6864,8.1868,0,0,0-9.1327,9.4363,3.3912,18.1483,0,0,54.53,27.5653,120.2436-37.0227,33.07-32.5009,39.7821-22.5,39.7821-22.5s-35.5-68.9592-124.8574-38.473"/><path class="cls-27" d="M552.32,382.67s5.1515-15.99-1.2609-36.9827c-6.161-20.1658,12.5582-24.0379,12.5582-24.0379"/><path class="cls-27" d="M548.7391,310.3146s1.9716-12.122-14.5182-17.9155"/><path class="cls-4" d="M540.4279,320.6529c-.0066-.0032-10.4753-8.42-20.7432-11.9957a99.2819,99.2819,0,0,1-10.9263-4.7523c2.5578.382,5.24,1.4033,12.3771,4.1186,7.335,2.5339,15.1758,7.9375,19.5033,11.8147.5682-1.1153,1.966-3.4984,1.858-5.4511-1.47-26.7746-41.0253-28.7908-41.0253-28.7908-21.6056-.2885-26.4607,10.0771-26.4607,10.0771,7.7687.5756,19.4215,20.441,19.4215,20.441s17.2348,25.9114,42.2387,14.683c7.0127-3.1486,2.67-9.2126,2.67-9.2126s.244.2812,1.0864-.9319"/><path class="cls-4" d="M582.8538,281.8136s-27.7852,10.5029-24.4272,34.4031a10.2984,10.2984,0,0,0,.9506,3.26c31.5306-18.1519,48.7063-17.7454,48.7063-17.7454-20.8373,1.766-48.5425,19.9137-48.551,19.9179.7606.7235,2.6437.3424,4.0843,0,0,0-4.5563,4.7077,1.6918,9.054,0,0,27.2043,13.7521,59.9885-18.47,16.4984-16.2144,19.847-11.2252,19.847-11.2252s-17.71-34.4032-62.29-19.1938"/></g></g></svg>