<svg xmlns="http://www.w3.org/2000/svg" viewBox="0 0 1009.01 575.15"><defs><style>.cls-1{font-size:32px;fill:#5d5152;letter-spacing:-0.02em;}.cls-1,.cls-6{font-family:Acre-Light, Acre;font-weight:300;}.cls-2{fill:none;stroke:#ec6b7c;stroke-width:1.48px;}.cls-11,.cls-2,.cls-4,.cls-5,.cls-9{stroke-miterlimit:10;}.cls-3{fill:#ec6b7c;}.cls-4,.cls-6{fill:#fff;}.cls-4{stroke:#5c5052;stroke-width:3.91px;}.cls-5{fill:#ffce01;}.cls-11,.cls-5,.cls-9{stroke:#fff;}.cls-5,.cls-9{stroke-width:2.93px;}.cls-6{font-size:39.13px;}.cls-7{letter-spacing:-0.01em;}.cls-8{letter-spacing:0em;}.cls-9{fill:#ec6a7c;}.cls-10{letter-spacing:-0.01em;}.cls-11{fill:#3baaa1;stroke-width:1.96px;}</style></defs><g id="Layer_2" data-name="Layer 2"><g id="Layer_10" data-name="Layer 10"><text class="cls-1" transform="translate(10.98 118.39)">soil health lies at the <tspan x="19.6" y="50">intersection of the </tspan><tspan x="0.62" y="100">biological, chemical, </tspan><tspan x="-2.56" y="150">and physical state of </tspan><tspan x="94.73" y="200">the soil</tspan></text><path class="cls-2" d="M312.32,141.1c25.28-11.31,56.38-11.92,82.86-4.5,23.19,6.5,39.37,24.85,51.57,44.84"/><polygon class="cls-3" points="439.89 180.65 445.79 179.89 449.34 175.1 451.19 189.08 439.89 180.65"/></g><g id="Soil_health" data-name="Soil health"><g id="Layer_33" data-name="Layer 33"><path class="cls-4" d="M859.38,213.87A168.27,168.27,0,0,0,863.22,178C863.22,80.78,780.43,2,678.3,2S493.37,80.78,493.37,178A167.91,167.91,0,0,0,500,224.9c-83.62,16.89-146.37,87.58-146.37,172.22,0,97.24,82.8,176.07,184.93,176.07,59.64,0,112.68-26.89,146.49-68.62,33.84,35.54,82.71,57.86,137.06,57.86,102.13,0,184.92-78.83,184.92-176.06C1007.05,301.28,943.66,230.29,859.38,213.87Z"/></g><g id="Layer_30" data-name="Layer 30"><ellipse class="cls-5" cx="680.41" cy="179.98" rx="168.49" ry="160.41"/><text class="cls-6" transform="translate(599.03 188.91) scale(1.05 1)">p<tspan class="cls-7" x="24.1" y="0">h</tspan><tspan class="cls-8" x="46.05" y="0">y</tspan><tspan x="65.18" y="0">sical</tspan></text></g><g id="Layer_31" data-name="Layer 31"><ellipse class="cls-9" cx="823.16" cy="387.34" rx="168.49" ry="160.41"/><text class="cls-6" transform="translate(751.02 406.06) scale(1.05 1)">c<tspan class="cls-10" x="20.66" y="0">h</tspan><tspan x="42.41" y="0">emical</tspan></text></g><g id="Layer_32" data-name="Layer 32"><ellipse class="cls-11" cx="537.45" cy="400.06" rx="168.49" ry="160.41"/><text class="cls-6" transform="translate(441.64 401.17) scale(1.05 1)">biological</text></g></g></g></svg>