<svg xmlns="http://www.w3.org/2000/svg" viewBox="0 0 696.995 575.1461"><defs><style>.cls-1,.cls-3{fill:#fff;}.cls-1{stroke:#5c5052;stroke-width:3.9126px;}.cls-1,.cls-2,.cls-6,.cls-8,.cls-9{stroke-miterlimit:10;}.cls-2{fill:#ffce01;}.cls-2,.cls-6,.cls-8{stroke:#fff;}.cls-2,.cls-6{stroke-width:2.9344px;}.cls-3{font-size:39.1256px;font-family:Acre-Light, Acre;font-weight:300;}.cls-4{letter-spacing:-0.01em;}.cls-5{letter-spacing:-0.005em;}.cls-6{fill:#ec6a7c;}.cls-7{letter-spacing:-0.015em;}.cls-8{fill:#3baaa1;stroke-width:1.9563px;}.cls-9{fill:none;stroke:#ec6b7c;stroke-width:1.4798px;}.cls-10{fill:#ec6b7c;}</style></defs><g id="Layer_2" data-name="Layer 2"><g id="Soil_health" data-name="Soil health"><g id="Layer_33" data-name="Layer 33"><path class="cls-1" d="M547.3676,213.874a168.6649,168.6649,0,0,0,3.8415-35.8526c0-97.238-82.7932-176.0651-184.9237-176.0651S181.3616,80.7834,181.3616,178.0214a168.3246,168.3246,0,0,0,6.6409,46.8834c-83.6185,16.89-146.3611,87.5741-146.3611,172.22,0,97.238,82.7932,176.0652,184.9238,176.0652,59.6428,0,112.6811-26.8908,146.4963-68.6246,33.8342,35.5407,82.7048,57.865,137.0534,57.865,102.1306,0,184.9238-78.8271,184.9238-176.0651C695.0387,301.2766,631.6422,230.286,547.3676,213.874Z"/></g><g id="Layer_30" data-name="Layer 30"><ellipse class="cls-2" cx="368.3954" cy="179.9777" rx="168.4861" ry="160.4149"/><text class="cls-3" transform="translate(287.0162 188.9096) scale(1.0503 1)">p<tspan class="cls-4" x="24.1013" y="0">h</tspan><tspan class="cls-5" x="46.0509" y="0">y</tspan><tspan x="65.1833" y="0">sical</tspan></text></g><g id="Layer_31" data-name="Layer 31"><ellipse class="cls-6" cx="511.1423" cy="387.3433" rx="168.4861" ry="160.4149"/><text class="cls-3" transform="translate(439.0091 406.0568) scale(1.0503 1)">c<tspan class="cls-7" x="20.6583" y="0">h</tspan><tspan x="42.4121" y="0">emical</tspan></text></g><g id="Layer_32" data-name="Layer 32"><ellipse class="cls-8" cx="225.4332" cy="400.0591" rx="168.4861" ry="160.4149"/><text class="cls-3" transform="translate(129.6217 401.1662) scale(1.0503 1)">biological</text></g><path class="cls-9" d="M.3021,141.101c25.28-11.3066,56.3857-11.9233,82.8667-4.502,23.187,6.4981,39.3657,24.8555,51.5684,44.8448"/><polygon class="cls-10" points="127.875 180.654 133.779 179.886 137.326 175.103 139.179 189.08 127.875 180.654"/></g></g></svg>