<svg xmlns="http://www.w3.org/2000/svg" viewBox="0 0 1499.07 1275.16"><defs><style>.cls-1,.cls-2,.cls-21,.cls-25,.cls-27,.cls-33{fill:#fff;}.cls-1{stroke:#5b5052;stroke-width:1.07px;}.cls-1,.cls-21,.cls-24,.cls-26,.cls-29,.cls-31,.cls-56,.cls-57{stroke-miterlimit:10;}.cls-2{font-size:42.47px;}.cls-2,.cls-37,.cls-53,.cls-55{font-family:Acre-Light, Acre;font-weight:300;}.cls-3{letter-spacing:-0.02em;}.cls-4{letter-spacing:0em;}.cls-5{letter-spacing:-0.07em;}.cls-6{letter-spacing:-0.01em;}.cls-7{letter-spacing:-0.02em;}.cls-8{letter-spacing:-0.01em;}.cls-9{letter-spacing:-0.02em;}.cls-10{letter-spacing:0em;}.cls-11{letter-spacing:0.01em;}.cls-12{letter-spacing:-0.01em;}.cls-13{letter-spacing:-0.01em;}.cls-14{letter-spacing:0em;}.cls-15{letter-spacing:-0.03em;}.cls-16{letter-spacing:0em;}.cls-17{letter-spacing:0em;}.cls-18{letter-spacing:0em;}.cls-19{letter-spacing:-0.02em;}.cls-20{fill:#3ca9a0;}.cls-21,.cls-25,.cls-29,.cls-31{stroke:#5e5153;}.cls-21,.cls-25,.cls-31{stroke-width:1.87px;}.cls-22,.cls-26,.cls-53,.cls-55{fill:#5e5153;}.cls-23{fill:#3d3436;}.cls-24,.cls-31,.cls-56{fill:none;}.cls-24{stroke:#fff;}.cls-24,.cls-26,.cls-29{stroke-width:0.94px;}.cls-25{stroke-linecap:round;stroke-linejoin:round;}.cls-26{stroke:#3d3436;}.cls-28{fill:#3faba1;}.cls-29{fill:#ec8297;}.cls-30{fill:#9c4553;}.cls-32{fill:#fdce09;}.cls-33{font-size:38.08px;font-family:Acre-Semibold, Acre;font-weight:600;}.cls-34{letter-spacing:-0.01em;}.cls-35{letter-spacing:-0.03em;}.cls-36{letter-spacing:-0.02em;}.cls-37{font-size:40px;fill:#5c5052;}.cls-38{letter-spacing:-0.02em;}.cls-39{letter-spacing:-0.02em;}.cls-40{letter-spacing:-0.02em;}.cls-41{letter-spacing:-0.01em;}.cls-42{letter-spacing:-0.01em;}.cls-43{letter-spacing:0em;}.cls-44{letter-spacing:0em;}.cls-45{letter-spacing:-0.01em;}.cls-46{letter-spacing:-0.03em;}.cls-47{letter-spacing:-0.03em;}.cls-48{letter-spacing:0em;}.cls-49{letter-spacing:0em;}.cls-50{letter-spacing:0em;}.cls-51{letter-spacing:0.01em;}.cls-52{letter-spacing:-0.01em;}.cls-53{font-size:32.29px;}.cls-54{fill:#ea6b7c;}.cls-55{font-size:34.51px;}.cls-56,.cls-57{stroke:#ec6a7c;}.cls-56{stroke-width:2px;}.cls-57{fill:#32598f;stroke-width:1.27px;}</style></defs><g id="Layer_2" data-name="Layer 2"><g id="Layer_15" data-name="Layer 15"><rect class="cls-1" x="0.53" y="0.53" width="1498" height="1187"/><text class="cls-2" transform="translate(199.41 360.99)">cur<tspan class="cls-3" x="59.54" y="0">r</tspan><tspan x="71.64" y="0">ent</tspan><tspan class="cls-4" x="131.6" y="0">l</tspan><tspan class="cls-5" x="140.99" y="0">y</tspan><tspan x="158.82" y="0">, on</tspan><tspan class="cls-6" x="230.29" y="0">l</tspan><tspan class="cls-7" x="239.68" y="0">y</tspan><tspan x="259.64" y="0" xml:space="preserve"> ~5% </tspan><tspan class="cls-8" x="357.05" y="0">o</tspan><tspan x="382.11" y="0">f </tspan><tspan class="cls-9" x="408.52" y="0">f</tspan><tspan class="cls-10" x="419.44" y="0">ar</tspan><tspan class="cls-11" x="458.55" y="0">m</tspan><tspan x="495.96" y="0">s a</tspan><tspan class="cls-12" x="554.14" y="0">n</tspan><tspan x="577.75" y="0">d 1% </tspan><tspan class="cls-13" x="673.68" y="0">o</tspan><tspan class="cls-14" x="698.74" y="0">f </tspan><tspan class="cls-3" x="725.15" y="0">t</tspan><tspan class="cls-13" x="736.11" y="0">o</tspan><tspan class="cls-9" x="761.16" y="0">t</tspan><tspan class="cls-10" x="772.07" y="0">al c</tspan><tspan class="cls-3" x="844.95" y="0">r</tspan><tspan x="857.05" y="0">opla</tspan><tspan class="cls-12" x="944.57" y="0">n</tspan><tspan x="968.18" y="0">d </tspan></text><text class="cls-2" transform="translate(215.92 411.94)">utili<tspan class="cls-15" x="66.88" y="0">z</tspan><tspan class="cls-16" x="84.55" y="0">e</tspan><tspan x="108.37" y="0">s c</tspan><tspan class="cls-12" x="162.77" y="0">ov</tspan><tspan x="208.47" y="0">er c</tspan><tspan class="cls-3" x="282.44" y="0">r</tspan><tspan class="cls-14" x="294.54" y="0">o</tspan><tspan class="cls-4" x="320.11" y="0">p</tspan><tspan x="346.06" y="0">s, </tspan><tspan class="cls-17" x="385.08" y="0">s</tspan><tspan x="402.32" y="0">o t</tspan><tspan class="cls-12" x="454.3" y="0">h</tspan><tspan x="477.96" y="0">e</tspan><tspan class="cls-3" x="501.95" y="0">r</tspan><tspan class="cls-14" x="514.05" y="0">e is on</tspan><tspan class="cls-18" x="645.1" y="0">l</tspan><tspan class="cls-7" x="654.53" y="0">y</tspan><tspan class="cls-14" x="674.49" y="0"> </tspan><tspan class="cls-19" x="689.14" y="0">r</tspan><tspan class="cls-14" x="701.24" y="0">oom </tspan><tspan class="cls-3" x="804.14" y="0">t</tspan><tspan x="815.09" y="0">o g</tspan><tspan class="cls-3" x="881.51" y="0">r</tspan><tspan class="cls-12" x="893.61" y="0">o</tspan><tspan x="918.58" y="0">w!</tspan></text><path class="cls-20" d="M1289,470.46c-3.88,8.59-8.55,15.65-14.2,20.25,0,0,20.78-67.21,3.73-94.44,0,0-.53,41.65-20.17,85.4,0,0-5.05-41.8,17.26-118.38,0,0-32.6,34.14-44,103.34,0,0,7.5-43.9-11.26-94.46,0,0,9,84.56-13.62,105.1,0,0-11.69-82.7,12.1-137.72,0,0-29.11,40.61-30.65,112.74.21-7.78,1.1-76.12-28.36-137.91,0,0,21.42,105.56,6.68,141.51,13.36-66.83-20.76-115.61-20.76-115.61,30.42,87.14-2.25,125.77-2.25,125.77,13.36-36.17-.22-71.52-.22-71.52,2.47,16.43-17.26,71.52-17.26,71.52-19.73-29.59,5.75-84.67,5.75-84.67-22.19,23-32.06,88.78-32.06,88.78-4.93-37.81,32.06-136.46,32.06-136.46-34.15,52.78-46.54,119.45-47.82,126.73,12.68-70.31-1.5-116.86-1.5-116.86,7.4,59.18-17.26,136.46-17.26,136.46-13.16-25.48,9.86-105.22,9.86-105.22-23.84,44.39-26.59,88.78-26.59,88.78,2.61-39.25-5.15-69.94-12.44-89.31q2.76-6.37,6.08-12.59s-2.86,3.66-7.08,10c-5.31-13.46-10.11-20.75-10.11-20.75,2.8,9.2,5,17.83,6.75,26-2.05,3.26-4.28,7-6.59,11.07.87-2.66,1.48-4.15,1.48-4.15-5,6.17-9.42,16.28-13.14,27.66-8,18.74-14.54,40.92-14.16,63.22-.43,2.83-.65,4.48-.65,4.48-1.73-17.34-.85-38.71,1.23-60.11a130.41,130.41,0,0,1,5.35-15.05,87.33,87.33,0,0,0-4.63,8c5.12-47.18,15.31-92.35,15.31-92.35-9.68,25.62-16.75,53-21.8,77.13a225.71,225.71,0,0,0-13.2,18.81c-5.32-37.45-17-63.06-17-63.06,13,64.94-3.54,92.89-3.54,92.89,8.62-41.1-1.21-75.63-1.21-75.63a163.81,163.81,0,0,1-4.06,61.25c.19-27.47-1.51-61.15-8.2-93.61,0,0,.07,3.9,0,10.41a277.17,277.17,0,0,0-7.48-28.19c14.8,76.45-15.62,138.1-15.62,138.1-.38-2.18-.77-4.29-1.16-6.37,2.8-19.69,3.37-42.07-4.85-55.19a190.41,190.41,0,0,1-2.21,23,274.36,274.36,0,0,0-8.32-26.84c2.1-9.08,4.6-18.79,7.62-29.17,0,0-5.44,5.71-12.65,17.16-6.11-12.93-10.49-16.33-10.49-16.33a126.38,126.38,0,0,1,8.54,19.51c-10.2,17-23.07,44.56-29.41,83,0,0,7.5-43.9-11.26-94.46,0,0,9,84.56-13.62,105.1,0,0-11.7-82.7,12.09-137.72,0,0-29.11,40.61-30.64,112.74.2-7.78,1.1-76.12-28.37-137.91,0,0,21.43,105.56,6.69,141.51C819.12,389.06,785,340.28,785,340.28c30.41,87.14-2.26,125.77-2.26,125.77,13.37-36.17-.21-71.52-.21-71.52,2.47,16.43-17.26,71.52-17.26,71.52-19.74-29.59,5.75-84.67,5.75-84.67-22.2,23-32.06,88.78-32.06,88.78C734,432.35,771,333.7,771,333.7c-34.15,52.78-46.54,119.45-47.82,126.73,12.67-70.31-1.51-116.86-1.51-116.86C729.09,402.75,704.43,480,704.43,480c-13.15-25.48,9.87-105.22,9.87-105.22-23.84,44.39-26.6,88.78-26.6,88.78A225.84,225.84,0,0,0,686,416.86c3.53-18.67,9.47-37.93,19.13-55.93a245.41,245.41,0,0,0-22.71,37c-7.12-30-18.3-47-18.3-47,7.27,23.9,10.69,44.12,11.88,60.85-6.3,14.87-11.57,31.82-13.21,49.26a99.79,99.79,0,0,1-4.29-20.18,128.55,128.55,0,0,1,9.72-37.61A113.48,113.48,0,0,0,658,423.78a135.6,135.6,0,0,1,5.34-32.48c1-2.05,2.13-4.13,3.29-6.25,0,0-.73.74-2,2.15.73-2.16,1.21-3.35,1.21-3.35a48.58,48.58,0,0,0-5,7.7,220.77,220.77,0,0,0-22.19,32.23c4.53-51.12,16.48-104,16.48-104-20.05,53-28.9,113.65-31.77,137.12-.26.73-.5,1.47-.76,2.2a259.17,259.17,0,0,0-5-58.25,415.2,415.2,0,0,0-7.63-64.06s.27,13.42-.61,32.42a176.69,176.69,0,0,0-6.19-16.55,249.69,249.69,0,0,1,4.79,38.12c-1.42,16.72-3.79,35.11-7.74,51.78,7.54-39.77-1.8-72.64-1.8-72.64,5.37,44.34-8.5,77.13-13.75,87.65.13-.77.26-1.55.38-2.34,20.39-57.19-6.36-135.45-6.36-135.45C593.45,396.18,563,457.83,563,457.83c-.62-3.5-1.24-6.83-1.87-10.09,1.7-19.95,6.1-48.59,16.77-85.21,0,0-13.9,14.58-26.73,44C540.59,371.58,531,364.12,531,364.12c8,14.48,13.25,32.52,16.63,51.13a254.41,254.41,0,0,0-13.67,50.61s7.5-43.89-11.27-94.46c0,0,9,84.57-13.61,105.11,0,0-11.7-82.7,12.09-137.72,0,0-29.11,40.61-30.64,112.74.2-7.78,1.1-76.12-28.37-137.91,0,0,21.42,105.56,6.69,141.5,13.35-66.82-20.77-115.6-20.77-115.6,30.42,87.14-2.25,125.77-2.25,125.77,13.37-36.17-.21-71.53-.21-71.53,2.46,16.44-17.26,71.53-17.26,71.53-19.74-29.59,5.75-84.67,5.75-84.67-22.2,23-32.06,88.78-32.06,88.78-4.93-37.81,32.06-136.46,32.06-136.46-34.15,52.78-46.55,119.45-47.82,126.73,12.67-70.31-1.51-116.87-1.51-116.87,7.4,59.19-17.26,136.47-17.26,136.47C354.34,453.78,377.35,374,377.35,374c-23.84,44.39-26.59,88.78-26.59,88.78C355.41,393,327.21,350.2,327.21,350.2,352.69,434.05,331,472.84,331,472.84c-21.38-42.74-2.15-89.75-2.15-89.75-18.08,22.19-28,95.36-28,95.36C295.15,420.9,318.17,319,318.17,319c-25.49,67.4-32.89,147.14-32.89,147.14,4.11-63.3-19.08-114.26-19.08-114.26,13,64.94-3.54,92.89-3.54,92.89,8.61-41.1-1.22-75.63-1.22-75.63,6.58,54.26-15.67,91.25-15.67,91.25C270.39,402.81,241.72,319,241.72,319c14.79,76.45-15.63,138.1-15.63,138.1-14-79.74-32.06-93.71-32.06-93.71,29.6,53.43,21.38,155.26,21.38,155.26h337c0,.46-.06.76-.06.76H1289ZM897.62,481.67s-3.39-28.19,7.74-80.66a292.73,292.73,0,0,1,6.41,38.25A232.79,232.79,0,0,1,897.62,481.67Zm16.53,9-.09.08s0-.11.09-.29ZM983,466.88a238.54,238.54,0,0,0,.3-24.56,143.06,143.06,0,0,1,7.48-28.7C985.06,444.59,983,466.88,983,466.88Zm45.72,6.72a95.37,95.37,0,0,1-9.2-30.9c1.71-19.22,5.59-40.15,13.26-60.41C1044.94,444.5,1028.71,473.6,1028.71,473.6Z"/><circle class="cls-21" cx="401.11" cy="276.21" r="148.05"/><path class="cls-22" d="M274.79,345.27a22,22,0,0,0,3.46,13.35,6.13,6.13,0,0,0,2.81,2.62,7.14,7.14,0,0,0,3.35.11,726.93,726.93,0,0,1,80.76-5.71c-1.17,0-5.54-5.89-7-6.65-2.74-1.4-6.43-1.48-9.46-1.94q-12.21-1.86-24.55-2.67A292.35,292.35,0,0,0,274.79,345.27Z"/><path class="cls-22" d="M273.48,360.75l18.62,9.68,79.38-24.72c2.17-.68,4.68-1.71,4.6-3.29-7.11-2.37-14.2-5.56-22.3-4.59-9.24,1.11-18.8,3.94-27.54,6.15q-14,3.54-27.52,7.85C296.08,352.68,274.48,361.27,273.48,360.75Z"/><path class="cls-22" d="M526.78,323.38l1.07,21.82c0-.39-69.22-.41-75.4,2.77-2.45,1.27-4.88,4.07-3.58,6.51.79,1.48,2.6,2,4.23,2.43A583.06,583.06,0,0,0,520,369.44l1.6-12.66a212.82,212.82,0,0,1-27.81-3.13c-6.58-1.18-21.75-2.08-26.75-6.68C457.4,338.08,485,334.52,490,333.19Z"/><path class="cls-22" d="M392.29,405.46s-1.68-36.23-41.81-36.23-40.14,35.67-40.14,35.67-4.46,17.84,40.14,17.84S392.29,405.46,392.29,405.46Z"/><path class="cls-23" d="M346,422.74c-4.46-8.92,0-37.91,0-37.91s-11.43,18.43-10.5,37.09Z"/><path class="cls-24" d="M392.4,405.46s-1.67-36.23-41.81-36.23-40.13,35.67-40.13,35.67-4.46,17.84,40.13,17.84S392.4,405.46,392.4,405.46Z"/><path class="cls-22" d="M412.82,405.46s1.68-36.23,41.81-36.23,40.14,35.67,40.14,35.67,4.46,17.84-40.14,17.84S412.82,405.46,412.82,405.46Z"/><path class="cls-23" d="M458.11,422.74c4.46-8.92,0-37.91,0-37.91s11.42,18.43,10.49,37.09Z"/><path class="cls-24" d="M412.82,405.46s1.68-36.23,41.81-36.23,40.14,35.67,40.14,35.67,4.46,17.84-40.14,17.84S412.82,405.46,412.82,405.46Z"/><path class="cls-25" d="M360.27,339.36s20.42,20.42,17,44.24c0,0,13.61-10.21,13.61-20.42,0,0,0,44.25,6.81,54.46,0,0,3.4-30.64,10.21-34,0,0,6.81,20.42,17,23.83,0,0-10.21-27.23-3.41-40.85a36.67,36.67,0,0,0,13.62,17s-10.21-23.82,17-51.05Z"/><path class="cls-26" d="M320.84,208.61s24.53-35.67,82.51-35.67,82.5,37.9,82.5,37.9,31.22-6.69,53.51,29c0,0-26.75,13.38-37.9,0,0,0,24.53,75.82-49.06,120.41,0,0-31.22,17.84-49,17.84s-46.83-17.84-46.83-17.84-73.58-42.36-49.06-120.41c0,0-13.37,15.61-42.36,0C265.1,239.83,285.17,210.84,320.84,208.61Z"/><ellipse class="cls-23" cx="389.97" cy="336.83" rx="6.69" ry="10.03" transform="translate(-103.82 189.5) rotate(-24.2)"/><circle class="cls-23" cx="368.46" cy="260.69" r="37.76"/><circle class="cls-23" cx="436.53" cy="260.69" r="37.76"/><ellipse class="cls-23" cx="416.73" cy="336.83" rx="10.03" ry="6.69" transform="translate(-61.35 578.82) rotate(-65.8)"/><circle class="cls-27" cx="435.36" cy="261.01" r="25.32"/><circle class="cls-27" cx="370.69" cy="261.01" r="25.32"/><circle class="cls-23" cx="380.17" cy="266.47" r="10.03"/><circle class="cls-23" cx="445.83" cy="266.47" r="10.03"/><path class="cls-21" d="M554.27,182.62s3.72-51-51-54.46c-54.46-3.4-71.47,47.65-71.47,47.65S421.53,196.23,445.36,203,472.59,196,472.59,196s3.4-33.75,30.63-44S554.27,182.62,554.27,182.62Z"/><path class="cls-21" d="M249.24,182.62s-3.72-51,51.05-54.46c54.46-3.4,71.47,47.65,71.47,47.65S382,196.23,358.15,203,330.92,196,330.92,196s-3.4-33.75-30.63-44S249.24,182.62,249.24,182.62Z"/><circle class="cls-21" cx="1097.89" cy="283.16" r="140.24"/><path class="cls-22" d="M1039,320.51c.55,2.39,2.66,4.06,4.72,5.37,9.53,6.09,21.25,9.26,28.64,17.81,5.69,6.6,7.94,15.43,12.25,23,3.49,6.12,8.54,11.55,15,14.32s14.45,2.51,20.1-1.69,8.13-12.61,4.71-18.76-11.78-9.16-13.93-16c-1.38-4.41.27-9.13,1.91-13.45-10.65,2.19-21.56-1.87-31.32-6.67C1076.9,322.4,1034.41,300.6,1039,320.51Z"/><path class="cls-27" d="M1013.09,152.41s25.91-37.69,87.16-37.69,87.17,40.05,87.17,40.05,33-7.07,56.54,30.62c0,0-28.27,14.14-40,0,0,0,25.91,80.1-51.83,127.22,0,0-33,18.85-51.83,18.85s-49.47-18.85-49.47-18.85S973,267.85,999,185.39c0,0-14.13,16.5-44.76,0C954.19,185.39,975.39,154.77,1013.09,152.41Z"/><path class="cls-22" d="M1088.57,404.48s-1.77-38.28-44.17-38.28S1002,403.89,1002,403.89s-4.71,18.85,42.41,18.85S1088.57,404.48,1088.57,404.48Z"/><path class="cls-23" d="M1039.68,422.74c-4.71-9.42,0-40.05,0-40.05s-12.07,19.47-11.09,39.19Z"/><path class="cls-24" d="M1088.69,404.48s-1.77-38.28-44.17-38.28-42.41,37.69-42.41,37.69-4.71,18.85,42.41,18.85S1088.69,404.48,1088.69,404.48Z"/><path class="cls-22" d="M1110.26,404.48s1.77-38.28,44.18-38.28,42.4,37.69,42.4,37.69,4.71,18.85-42.4,18.85S1110.26,404.48,1110.26,404.48Z"/><path class="cls-23" d="M1158.11,422.74c4.71-9.42,0-40.05,0-40.05s12.07,19.47,11.09,39.19Z"/><path class="cls-24" d="M1110.26,404.48s1.77-38.28,44.18-38.28,42.4,37.69,42.4,37.69,4.71,18.85-42.4,18.85S1110.26,404.48,1110.26,404.48Z"/><path class="cls-22" d="M981.86,264.08c3.2,10.32,1.38,22.83,8.76,30.73,3.14,3.36,7.68,5.45,10,9.42,1.59,2.68,2,5.9,2.14,9,.36,6.34-.85,14.11-6.75,16.43-4.69,1.85-10-1-13.34-4.76s-5.31-8.57-8.47-12.5a27.2,27.2,0,0,0-14.08-9.15c-4.42-1.18.31-42.78,1-47.48,1.08-7.69,1.45-13.54,9.53-7.56A31.55,31.55,0,0,1,981.86,264.08Z"/><path class="cls-22" d="M1219.89,296.9c-5.77,5-14.26,4.79-21.91,4.86s-16.47,1.41-20.45,7.95c-3.34,5.47-1.9,12.63.84,18.42s6.7,11.07,8.44,17.24c3.21,11.43-1.72,23.85.92,35.43.45,2,1.58,4.24,3.6,4.27a5,5,0,0,0,3.19-1.7c17.86-16.49,31.83-37.61,38.94-60.94,3.16-10.39,7.12-25,5-36C1235.35,270.87,1224.21,293.13,1219.89,296.9Z"/><path class="cls-22" d="M1212.82,235.53c-.44,2.84-.71,6.06,1.11,8.29a10.08,10.08,0,0,0,3.73,2.51,82,82,0,0,0,14.38,5c.59.15,1.35.24,1.71-.26a1.47,1.47,0,0,0,.23-.75,19.3,19.3,0,0,0-1.4-9.76c-2.21-5.2-6.7-9.43-7.73-15C1221.81,209.23,1213.94,228.34,1212.82,235.53Z"/><path class="cls-28" d="M983,330.43s93.12-39.91,226.16-5.32c0,0-26.61-2.67-39.91,2.66,0,0,18.62,13.3,13.3,29.26,0,0-24-45.23-93.12-31.92s-85.15,66.51-85.15,66.51,0-34.59,18.63-53.21c0,0-21.29,10.64-29.27,21.28,0,0-2.66-16,16-29.26C1009.63,330.43,993.66,327.77,983,330.43Z"/><path class="cls-29" d="M1056.54,315.52s-16.18-48.54,45-48.54,45,48.54,45,48.54-34.16,16.18-45,16.18S1056.54,315.52,1056.54,315.52Z"/><ellipse class="cls-22" cx="1069.13" cy="205.85" rx="12.59" ry="19.78"/><ellipse class="cls-22" cx="1121.27" cy="207.65" rx="12.59" ry="19.78"/><ellipse class="cls-30" cx="1083.51" cy="292.15" rx="7.19" ry="10.79" transform="translate(-0.91 580.9) rotate(-30)"/><ellipse class="cls-30" cx="1115.87" cy="292.15" rx="10.79" ry="7.19" transform="matrix(0.5, -0.87, 0.87, 0.5, 304.93, 1112.45)"/><path class="cls-31" d="M1013.09,152.41s25.91-37.69,87.16-37.69,87.17,40.05,87.17,40.05,33-7.07,56.54,30.62c0,0-28.27,14.14-40,0,0,0,25.91,80.1-51.83,127.22,0,0-33,18.85-51.83,18.85s-49.47-18.85-49.47-18.85S973,267.85,999,185.39c0,0-14.13,16.5-44.76,0C954.19,185.39,975.39,154.77,1013.09,152.41Z"/><path class="cls-22" d="M999,97.23c-4.25,3.4,3.56,22.51,15.69,32.72,10.61,8.93,19.54-1.68,19.54-1.68s8.93-10.62-1.68-19.54S1003.28,93.84,999,97.23Z"/><path class="cls-21" d="M1198.41,97.23c4.25,3.4-3.55,22.51-15.69,32.72-10.61,8.93-19.54-1.68-19.54-1.68s-8.93-10.62,1.69-19.54S1194.16,93.84,1198.41,97.23Z"/><path class="cls-22" d="M1156.26,111.36a22,22,0,0,0-2-2.16l-31.4-9.43a27.4,27.4,0,0,1-6.08-2.61,4.45,4.45,0,0,0-.24,1.1c-.11,2.06,2.94,4.95,2.88,7.7a11.9,11.9,0,0,1-2.93,7.18c-2.87,3.75-7.59,6-11.2,8.92-6.45,5.22-10.62,14.31-7.43,22,2.41,5.78,8.26,9.3,14,11.85a94.61,94.61,0,0,0,18.76,6.12c10.39,2.23,22.77,2.06,29.74-5.95,7.35-8.44,5.22-21.33,1.9-32C1160.79,119.55,1159.2,115,1156.26,111.36Z"/><path class="cls-21" d="M766.14,126.29s20.07-20.07,44.6-8.92,20.07,29,20.07,29a34.61,34.61,0,0,1,35.67,11.14C882.09,175.34,875.4,191,875.4,191s20.07-8.92,29,8.92-4.46,31.22-4.46,31.22,15.61,6.69,15.61,33.45-13.38,40.13-13.38,40.13,11.15,15.61,2.23,37.91-29,20.07-29,20.07,8.92,17.84-4.46,33.44-35.67,4.46-35.67,4.46l-58,20.07s-22.3,8.92-51.29,0-44.59-20.07-44.59-20.07-20.07,17.84-40.14,0-8.92-42.36-8.92-42.36-22.3,4.46-35.67-20.07S612.28,298,612.28,298s-29-8.92-26.75-35.67,31.21-33.45,31.21-33.45-20.06-4.46-20.06-24.53,35.67-15.61,35.67-15.61-20.07-29,4.46-44.59,35.68,0,35.68,0,0-24.53,20.07-26.76,29,8.92,29,8.92,6.68-20.07,24.52-20.07S766.14,126.29,766.14,126.29Z"/><path class="cls-22" d="M745.05,405.46s-1.67-36.23-41.81-36.23S663.1,404.9,663.1,404.9s-4.46,17.84,40.14,17.84S745.05,405.46,745.05,405.46Z"/><path class="cls-23" d="M698.78,422.74c-4.46-8.92,0-37.91,0-37.91s-11.43,18.43-10.5,37.09Z"/><path class="cls-24" d="M745.16,405.46s-1.67-36.23-41.81-36.23-40.13,35.67-40.13,35.67-4.46,17.84,40.13,17.84S745.16,405.46,745.16,405.46Z"/><path class="cls-22" d="M765.58,405.46s1.68-36.23,41.81-36.23,40.14,35.67,40.14,35.67,4.46,17.84-40.14,17.84S765.58,405.46,765.58,405.46Z"/><path class="cls-23" d="M810.87,422.74c4.46-8.92,0-37.91,0-37.91s11.43,18.43,10.49,37.09Z"/><path class="cls-24" d="M765.58,405.46s1.68-36.23,41.81-36.23,40.14,35.67,40.14,35.67,4.46,17.84-40.14,17.84S765.58,405.46,765.58,405.46Z"/><path class="cls-28" d="M857.5,356.87s-88.14-37.78-214.06-5c0,0,25.19-2.52,37.78,2.52,0,0-17.63,12.59-12.59,27.7,0,0,22.66-42.81,88.14-30.22s80.59,63,80.59,63,0-32.74-17.63-50.37c0,0,20.15,10.08,27.7,20.15,0,0,2.52-15.11-15.11-27.7C832.32,356.87,847.43,354.35,857.5,356.87Z"/><path class="cls-22" d="M673.6,218.82s24.53-35.67,82.51-35.67,82.5,37.9,82.5,37.9,31.22-6.68,53.52,29c0,0-26.76,13.38-37.91,0,0,0,24.53,75.82-49.06,120.41,0,0-31.21,17.84-49,17.84s-46.83-17.84-46.83-17.84-73.58-42.36-49-120.41c0,0-13.38,15.61-42.37,0C617.86,250,637.93,221.05,673.6,218.82Z"/><ellipse class="cls-23" cx="742.73" cy="347.04" rx="6.69" ry="10.03" transform="translate(-76.99 335.03) rotate(-24.2)"/><ellipse class="cls-23" cx="769.49" cy="347.04" rx="10.03" ry="6.69" transform="translate(137.47 906.59) rotate(-65.8)"/><circle class="cls-27" cx="721.55" cy="271.23" r="27.87"/><circle class="cls-27" cx="790.67" cy="271.23" r="27.87"/><circle class="cls-23" cx="712.16" cy="276.68" r="10.03"/><circle class="cls-23" cx="781.28" cy="276.68" r="10.03"/><path class="cls-32" d="M868.79,369.4c0-2.94-2.64-5.47-6.42-6.6,1.61-3.14,1.72-6.38-.1-8.39s-5.34-2.24-8.76-.75c-1.2-3.53-3.62-6-6.44-6s-5,2.25-6.28,5.56c-3.38-2-7-2.31-9.21-.33-2.34,2.13-2.25,6.2-.12,10-3.61,1.17-6.11,3.62-6.11,6.48s2.26,5,5.56,6.28c-.7,2.43-.45,4.73,1,6.29,1.9,2.09,5.34,2.24,8.76.75,1.2,3.54,3.62,6,6.44,6,2.1,0,4-1.37,5.3-3.52,3.14,1.62,6.39,1.72,8.4-.1s2.24-5.42.69-8.88C865.72,375.23,868.79,372.57,868.79,369.4Z"/><circle class="cls-27" cx="847.07" cy="368.19" r="8.15"/><text class="cls-33" transform="translate(357.11 500.45)">goa<tspan class="cls-34" x="69.49" y="0">t</tspan><tspan x="81.45" y="0">s</tspan></text><text class="cls-33" transform="translate(710.34 500.45)">sheep</text><text class="cls-33" transform="translate(1054.01 500.45)">c<tspan class="cls-35" x="18.77" y="0">o</tspan><tspan class="cls-36" x="40.17" y="0">w</tspan><tspan x="72.35" y="0">s</tspan></text><text class="cls-37" transform="translate(183.18 1016.86)">dif<tspan class="cls-38" x="45.8" y="0">f</tspan><tspan x="56.08" y="0">e</tspan><tspan class="cls-39" x="78.68" y="0">r</tspan><tspan x="90.04" y="0">ent ani</tspan><tspan class="cls-40" x="217.84" y="0">m</tspan><tspan x="252.2" y="0">als </tspan><tspan class="cls-40" x="316.03" y="0">h</tspan><tspan x="338.27" y="0">a</tspan><tspan class="cls-41" x="362.95" y="0">v</tspan><tspan x="382.43" y="0">e dif</tspan><tspan class="cls-39" x="464.63" y="0">f</tspan><tspan x="474.91" y="0">e</tspan><tspan class="cls-38" x="497.51" y="0">r</tspan><tspan x="508.87" y="0">ent p</tspan><tspan class="cls-39" x="603.79" y="0">r</tspan><tspan class="cls-42" x="615.15" y="0">e</tspan><tspan class="cls-38" x="637.23" y="0">f</tspan><tspan x="647.51" y="0">e</tspan><tspan class="cls-38" x="670.11" y="0">r</tspan><tspan x="681.47" y="0">e</tspan><tspan class="cls-40" x="704.07" y="0">n</tspan><tspan x="726.27" y="0">c</tspan><tspan class="cls-43" x="747.39" y="0">e</tspan><tspan x="769.79" y="0">s as </tspan><tspan class="cls-39" x="854.71" y="0">t</tspan><tspan class="cls-44" x="864.99" y="0">o</tspan><tspan class="cls-45" x="889.07" y="0"> </tspan><tspan class="cls-43" x="902.54" y="0">w</tspan><tspan class="cls-40" x="934.19" y="0">h</tspan><tspan x="956.42" y="0">at t</tspan><tspan class="cls-40" x="1017.06" y="0">he</tspan><tspan class="cls-46" x="1061.3" y="0">y</tspan><tspan x="1080.06" y="0" xml:space="preserve"> eat </tspan><tspan x="-33.7" y="50">a</tspan><tspan class="cls-40" x="-9.02" y="50">n</tspan><tspan x="13.18" y="50">d </tspan><tspan class="cls-41" x="51.66" y="50">ho</tspan><tspan class="cls-46" x="97.38" y="50">w</tspan><tspan x="128.22" y="50" xml:space="preserve"> t</tspan><tspan class="cls-41" x="153.1" y="50">he</tspan><tspan class="cls-46" x="197.34" y="50">y</tspan><tspan x="216.1" y="50" xml:space="preserve"> eat i</tspan><tspan class="cls-47" x="312.09" y="50">t</tspan><tspan class="cls-44" x="322.05" y="50">. multi-speci</tspan><tspan class="cls-48" x="541.45" y="50">e</tspan><tspan x="563.85" y="50">s g</tspan><tspan class="cls-39" x="618.65" y="50">r</tspan><tspan x="630.01" y="50">azi</tspan><tspan class="cls-41" x="682.57" y="50">n</tspan><tspan x="704.77" y="50">g u</tspan><tspan class="cls-49" x="766.05" y="50">s</tspan><tspan class="cls-43" x="782.25" y="50">e</tspan><tspan x="804.65" y="50">s t</tspan><tspan class="cls-40" x="845.84" y="50">h</tspan><tspan class="cls-43" x="868.08" y="50">e</tspan><tspan class="cls-50" x="890.48" y="50">s</tspan><tspan x="906.68" y="50">e dif</tspan><tspan class="cls-38" x="988.88" y="50">f</tspan><tspan x="999.16" y="50">e</tspan><tspan class="cls-39" x="1021.76" y="50">r</tspan><tspan x="1033.12" y="50">e</tspan><tspan class="cls-40" x="1055.72" y="50">n</tspan><tspan x="1077.92" y="50">c</tspan><tspan class="cls-48" x="1099.04" y="50">e</tspan><tspan x="1121.44" y="50">s </tspan><tspan class="cls-39" x="1151.56" y="50">t</tspan><tspan x="1161.84" y="50">o </tspan><tspan x="128.5" y="100">e</tspan><tspan class="cls-40" x="151.1" y="100">n</tspan><tspan x="173.3" y="100">cou</tspan><tspan class="cls-38" x="241.3" y="100">r</tspan><tspan x="252.66" y="100">age uni</tspan><tspan class="cls-39" x="394.05" y="100">f</tspan><tspan x="404.33" y="100">orm co</tspan><tspan class="cls-51" x="534.53" y="100">n</tspan><tspan x="557.61" y="100">sum</tspan><tspan class="cls-42" x="631.69" y="100">p</tspan><tspan x="655.81" y="100">tion in d</tspan><tspan class="cls-43" x="808.93" y="100">i</tspan><tspan class="cls-40" x="818.77" y="100">v</tspan><tspan x="838.25" y="100">e</tspan><tspan class="cls-52" x="860.85" y="100">r</tspan><tspan class="cls-50" x="872.61" y="100">s</tspan><tspan x="888.81" y="100">e fields.</tspan></text><text class="cls-53" transform="translate(411.4 636.36) rotate(24.22)">w</text><text class="cls-53" transform="translate(433.54 646.48) rotate(33.63)">o</text><text class="cls-53" transform="matrix(0.74, 0.67, -0.67, 0.74, 449.15, 656.8)">o</text><text class="cls-53" transform="matrix(0.64, 0.77, -0.77, 0.64, 463.1, 669.22)">d</text><text class="cls-53" transform="translate(475.26 683.94) rotate(57.77)">y</text><text class="cls-53" transform="matrix(0.45, 0.89, -0.89, 0.45, 483.02, 696.34)"> </text><text class="cls-53" transform="matrix(0.34, 0.94, -0.94, 0.34, 488.03, 705.62)">p</text><text class="cls-53" transform="matrix(0.25, 0.97, -0.97, 0.25, 494.42, 723.85)">l</text><text class="cls-53" transform="translate(496.44 730.35) rotate(81.49)">a</text><text class="cls-53" transform="translate(499.19 749.28) rotate(89.07)">n</text><text class="cls-53" transform="matrix(-0.09, 1, -1, -0.09, 499.19, 767.2)">t</text><text class="cls-53" transform="translate(498.54 775.35) rotate(99.9)">s</text><path class="cls-28" d="M373,759.47,262.08,723.42c15.93-49,59.4-80.6,110.94-80.6Z"/><path class="cls-32" d="M373,759.47V876.12A116.65,116.65,0,0,1,256.37,759.47a111,111,0,0,1,5.71-36.05Z"/><path class="cls-54" d="M373,759.47V642.82a116.65,116.65,0,1,1,0,233.3h0Z"/><path class="cls-28" d="M759.51,756l-68.25,93.94a116.12,116.12,0,0,1-25.69-162.19c22.62-31.13,55.47-47.87,93.94-47.87Z"/><path class="cls-32" d="M759.5,756l110.42-35.93a116.12,116.12,0,0,1-74.5,146.35c-36.59,11.91-73,6.15-104.14-16.45Z"/><path class="cls-54" d="M759.51,756V639.87c51.31,0,94.59,31.44,110.44,80.24Z"/><path class="cls-28" d="M1114,747.86l68.81,94.7a117.06,117.06,0,1,1-137.61-189.41c20.92-15.2,42.94-22.35,68.8-22.35Z"/><path class="cls-32" d="M1114,747.86l111.34-36.18c16,49.19-.68,100.48-42.53,130.88Z"/><path class="cls-54" d="M1114,747.86V630.8c51.73,0,95.35,31.69,111.34,80.88Z"/><text class="cls-53" transform="translate(260.35 690.79) rotate(-53.53)">g</text><text class="cls-53" transform="matrix(0.68, -0.73, 0.73, 0.68, 272.05, 675.38)">r</text><text class="cls-53" transform="matrix(0.75, -0.66, 0.66, 0.75, 277.66, 668.84)">a</text><text class="cls-53" transform="matrix(0.83, -0.56, 0.56, 0.83, 292.26, 656.27)">s</text><text class="cls-53" transform="matrix(0.88, -0.48, 0.48, 0.88, 302.72, 649.13)">s</text><text class="cls-53" transform="translate(313.6 642.99) rotate(-21.89)">e</text><text class="cls-53" transform="translate(329.83 636.58) rotate(-15.23)">s</text><text class="cls-55" transform="matrix(0.71, 0.71, -0.71, 0.71, 260.04, 862.31)">f</text><text class="cls-55" transform="translate(267.36 870.05) rotate(38.46)">o</text><text class="cls-55" transform="matrix(0.86, 0.52, -0.52, 0.86, 285.35, 883.78)">r</text><text class="cls-55" transform="translate(295.85 890.41) rotate(23.84)">b</text><text class="cls-55" transform="matrix(0.96, 0.27, -0.27, 0.96, 317.28, 899.44)">s</text><line class="cls-56" x1="1465.93" y1="587.5" x2="1441.7" y2="545.9"/><line class="cls-56" x1="1465.93" y1="586.72" x2="1442.03" y2="628.51"/><line class="cls-57" x1="40.93" y1="592.05" x2="65.17" y2="550.46"/><line class="cls-57" x1="40.94" y1="591.27" x2="64.84" y2="633.06"/></g></g></svg>