<svg xmlns="http://www.w3.org/2000/svg" viewBox="0 0 1240.1077 1179.8316"><defs><style>.cls-1{font-size:40px;fill:#5c5052;}.cls-1,.cls-17,.cls-52,.cls-54{font-family:Acre-Light, Acre;font-weight:300;}.cls-2{letter-spacing:-0.02em;}.cls-3{letter-spacing:-0.02em;}.cls-4{letter-spacing:-0.015em;}.cls-5{letter-spacing:-0.015em;}.cls-6{letter-spacing:-0.013em;}.cls-7{letter-spacing:-0.005em;}.cls-8{letter-spacing:0em;}.cls-9{letter-spacing:-0.008em;}.cls-10{letter-spacing:-0.025em;}.cls-11{letter-spacing:-0.028em;}.cls-12{letter-spacing:-0.005em;}.cls-13{letter-spacing:-0.003em;}.cls-14{letter-spacing:-0.003em;}.cls-15{letter-spacing:0.007em;}.cls-16{letter-spacing:-0.01em;}.cls-17{font-size:42.467px;}.cls-17,.cls-36,.cls-40,.cls-42,.cls-48{fill:#fff;}.cls-18{letter-spacing:-0.019em;}.cls-19{letter-spacing:-0.005em;}.cls-20{letter-spacing:-0.074em;}.cls-21{letter-spacing:-0.005em;}.cls-22{letter-spacing:-0.024em;}.cls-23{letter-spacing:-0.012em;}.cls-24{letter-spacing:-0.02em;}.cls-25{letter-spacing:0em;}.cls-26{letter-spacing:0.007em;}.cls-27{letter-spacing:-0.014em;}.cls-28{letter-spacing:-0.012em;}.cls-29{letter-spacing:0em;}.cls-30{letter-spacing:-0.03em;}.cls-31{letter-spacing:-0.004em;}.cls-32{letter-spacing:-0.002em;}.cls-33{letter-spacing:-0.004em;}.cls-34{letter-spacing:-0.019em;}.cls-35{fill:#3ca9a0;}.cls-36,.cls-40,.cls-44,.cls-46{stroke:#5e5153;}.cls-36,.cls-39,.cls-41,.cls-44,.cls-46{stroke-miterlimit:10;}.cls-36,.cls-40,.cls-46{stroke-width:1.8706px;}.cls-37,.cls-41,.cls-52,.cls-54{fill:#5e5153;}.cls-38{fill:#3d3436;}.cls-39,.cls-46{fill:none;}.cls-39{stroke:#fff;}.cls-39,.cls-41,.cls-44{stroke-width:0.9353px;}.cls-40{stroke-linecap:round;stroke-linejoin:round;}.cls-41{stroke:#3d3436;}.cls-43{fill:#3faba1;}.cls-44{fill:#ec8297;}.cls-45{fill:#9c4553;}.cls-47{fill:#fdce09;}.cls-48{font-size:38.0793px;font-family:Acre-Semibold, Acre;font-weight:600;}.cls-49{letter-spacing:-0.01em;}.cls-50{letter-spacing:-0.03em;}.cls-51{letter-spacing:-0.02em;}.cls-52{font-size:32.2861px;}.cls-53{fill:#ea6b7c;}.cls-54{font-size:34.5103px;}</style></defs><g id="Layer_2" data-name="Layer 2"><g id="Layer_15" data-name="Layer 15"><text class="cls-1" transform="translate(40.3897 921.5318)">dif<tspan class="cls-2" x="45.7988" y="0">f</tspan><tspan x="56.0791" y="0">e</tspan><tspan class="cls-3" x="78.6787" y="0">r</tspan><tspan x="90.0386" y="0">ent ani</tspan><tspan class="cls-4" x="217.8359" y="0">m</tspan><tspan x="252.1953" y="0">als </tspan><tspan class="cls-4" x="316.0337" y="0">h</tspan><tspan x="338.2734" y="0">a</tspan><tspan class="cls-5" x="362.9531" y="0">v</tspan><tspan x="382.4336" y="0">e dif</tspan><tspan class="cls-3" x="464.6313" y="0">f</tspan><tspan x="474.9111" y="0">e</tspan><tspan class="cls-2" x="497.5107" y="0">r</tspan><tspan x="508.8711" y="0">ent p</tspan><tspan class="cls-3" x="603.7891" y="0">r</tspan><tspan class="cls-6" x="615.1484" y="0">e</tspan><tspan class="cls-2" x="637.2285" y="0">f</tspan><tspan x="647.5088" y="0">e</tspan><tspan class="cls-2" x="670.1084" y="0">r</tspan><tspan x="681.4688" y="0">e</tspan><tspan class="cls-4" x="704.0684" y="0">n</tspan><tspan x="726.2681" y="0">c</tspan><tspan class="cls-7" x="747.3882" y="0">e</tspan><tspan x="769.7881" y="0">s as </tspan><tspan class="cls-3" x="854.7056" y="0">t</tspan><tspan class="cls-8" x="864.9854" y="0">o</tspan><tspan class="cls-9" x="889.0654" y="0"> </tspan><tspan class="cls-7" x="902.5449" y="0">w</tspan><tspan class="cls-4" x="934.1851" y="0">h</tspan><tspan x="956.4248" y="0">at t</tspan><tspan class="cls-4" x="1017.063" y="0">he</tspan><tspan class="cls-10" x="1061.3027" y="0">y</tspan><tspan x="1080.062" y="0" xml:space="preserve"> eat </tspan><tspan x="-33.6992" y="50">a</tspan><tspan class="cls-4" x="-9.0195" y="50">n</tspan><tspan x="13.1802" y="50">d </tspan><tspan class="cls-5" x="51.6592" y="50">ho</tspan><tspan class="cls-10" x="97.3789" y="50">w</tspan><tspan x="128.2188" y="50" xml:space="preserve"> t</tspan><tspan class="cls-5" x="153.0977" y="50">he</tspan><tspan class="cls-10" x="197.3374" y="50">y</tspan><tspan x="216.0972" y="50" xml:space="preserve"> eat i</tspan><tspan class="cls-11" x="312.0942" y="50">t</tspan><tspan class="cls-8" x="322.0537" y="50">. multi-speci</tspan><tspan class="cls-12" x="541.4492" y="50">e</tspan><tspan x="563.8496" y="50">s g</tspan><tspan class="cls-3" x="618.6484" y="50">r</tspan><tspan x="630.0083" y="50">azi</tspan><tspan class="cls-5" x="682.5674" y="50">n</tspan><tspan x="704.7676" y="50">g u</tspan><tspan class="cls-13" x="766.0459" y="50">s</tspan><tspan class="cls-7" x="782.2461" y="50">e</tspan><tspan x="804.646" y="50">s t</tspan><tspan class="cls-4" x="845.8442" y="50">h</tspan><tspan class="cls-7" x="868.084" y="50">e</tspan><tspan class="cls-14" x="890.4839" y="50">s</tspan><tspan x="906.6836" y="50">e dif</tspan><tspan class="cls-2" x="988.8813" y="50">f</tspan><tspan x="999.1616" y="50">e</tspan><tspan class="cls-3" x="1021.7612" y="50">r</tspan><tspan x="1033.1206" y="50">e</tspan><tspan class="cls-4" x="1055.7202" y="50">n</tspan><tspan x="1077.9199" y="50">c</tspan><tspan class="cls-12" x="1099.04" y="50">e</tspan><tspan x="1121.4404" y="50">s </tspan><tspan class="cls-3" x="1151.5591" y="50">t</tspan><tspan x="1161.8389" y="50">o </tspan><tspan x="128.4976" y="100">e</tspan><tspan class="cls-4" x="151.0972" y="100">n</tspan><tspan x="173.2969" y="100">cou</tspan><tspan class="cls-2" x="241.2964" y="100">r</tspan><tspan x="252.6563" y="100">age uni</tspan><tspan class="cls-3" x="394.0537" y="100">f</tspan><tspan x="404.3335" y="100">orm co</tspan><tspan class="cls-15" x="534.5313" y="100">n</tspan><tspan x="557.6108" y="100">sum</tspan><tspan class="cls-6" x="631.6899" y="100">p</tspan><tspan x="655.8101" y="100">tion in d</tspan><tspan class="cls-7" x="808.9263" y="100">i</tspan><tspan class="cls-4" x="818.7661" y="100">v</tspan><tspan x="838.2461" y="100">e</tspan><tspan class="cls-16" x="860.8457" y="100">r</tspan><tspan class="cls-14" x="872.606" y="100">s</tspan><tspan x="888.8057" y="100">e fields.</tspan></text><text class="cls-17" transform="translate(56.6209 265.6563)">cur<tspan class="cls-18" x="59.5376" y="0">r</tspan><tspan x="71.6401" y="0">ent</tspan><tspan class="cls-19" x="131.6021" y="0">l</tspan><tspan class="cls-20" x="140.9878" y="0">y</tspan><tspan x="158.8237" y="0">, on</tspan><tspan class="cls-21" x="230.2935" y="0">l</tspan><tspan class="cls-22" x="239.6782" y="0">y</tspan><tspan x="259.6372" y="0" xml:space="preserve"> ~5% </tspan><tspan class="cls-23" x="357.0542" y="0">o</tspan><tspan x="382.1099" y="0">f </tspan><tspan class="cls-24" x="408.5229" y="0">f</tspan><tspan class="cls-25" x="419.437" y="0">ar</tspan><tspan class="cls-26" x="458.5474" y="0">m</tspan><tspan x="495.9614" y="0">s a</tspan><tspan class="cls-27" x="554.1392" y="0">n</tspan><tspan x="577.7505" y="0">d 1% </tspan><tspan class="cls-28" x="673.6812" y="0">o</tspan><tspan class="cls-29" x="698.7358" y="0">f </tspan><tspan class="cls-18" x="725.1499" y="0">t</tspan><tspan class="cls-28" x="736.106" y="0">o</tspan><tspan class="cls-24" x="761.1606" y="0">t</tspan><tspan class="cls-25" x="772.0747" y="0">al c</tspan><tspan class="cls-18" x="844.9468" y="0">r</tspan><tspan x="857.0493" y="0">opla</tspan><tspan class="cls-27" x="944.5728" y="0">n</tspan><tspan x="968.1841" y="0">d </tspan></text><text class="cls-17" transform="translate(73.1341 316.6148)">utili<tspan class="cls-30" x="66.8838" y="0">z</tspan><tspan class="cls-31" x="84.5508" y="0">e</tspan><tspan x="108.374" y="0">s c</tspan><tspan class="cls-27" x="162.7734" y="0">ov</tspan><tspan x="208.4668" y="0">er c</tspan><tspan class="cls-18" x="282.4424" y="0">r</tspan><tspan class="cls-29" x="294.5449" y="0">o</tspan><tspan class="cls-19" x="320.1104" y="0">p</tspan><tspan x="346.0576" y="0">s, </tspan><tspan class="cls-32" x="385.083" y="0">s</tspan><tspan x="402.3242" y="0">o t</tspan><tspan class="cls-27" x="454.3018" y="0">h</tspan><tspan x="477.9561" y="0">e</tspan><tspan class="cls-18" x="501.9492" y="0">r</tspan><tspan class="cls-29" x="514.0518" y="0">e is on</tspan><tspan class="cls-33" x="645.1025" y="0">l</tspan><tspan class="cls-22" x="654.5293" y="0">y</tspan><tspan class="cls-29" x="674.4883" y="0"> </tspan><tspan class="cls-34" x="689.1396" y="0">r</tspan><tspan class="cls-29" x="701.2412" y="0">oom </tspan><tspan class="cls-18" x="804.1377" y="0">t</tspan><tspan x="815.0938" y="0">o g</tspan><tspan class="cls-18" x="881.5107" y="0">r</tspan><tspan class="cls-27" x="893.6133" y="0">o</tspan><tspan x="918.583" y="0">w!</tspan></text><path class="cls-35" d="M1146.2425,375.1308c-3.88,8.5914-8.5549,15.6548-14.2066,20.255,0,0,20.7878-67.211,3.7292-94.4442,0,0-.53,41.6446-20.17,85.4033,0,0-5.045-41.8055,17.2623-118.3791,0,0-32.5943,34.1373-44.0138,103.3309,0,0,7.4995-43.8945-11.2638-94.4606,0,0,9.037,84.5649-13.6186,105.1052,0,0-11.6944-82.6963,12.0927-137.7224,0,0-29.1048,40.6171-30.64,112.7436.205-7.7811,1.0977-76.1222-28.3655-137.9089,0,0,21.4215,105.5538,6.6829,141.5038,13.3589-66.83-20.7616-115.6085-20.7616-115.6085,30.4171,87.1394-2.2524,125.7757-2.2524,125.7757,13.3651-36.169-.214-71.5286-.214-71.5286,2.4664,16.4323-17.2623,71.5286-17.2623,71.5286-19.732-29.5954,5.7519-84.67,5.7519-84.67-22.1952,23.0133-32.0611,88.78-32.0611,88.78-4.93-37.8135,32.0611-136.46,32.0611-136.46-34.15,52.7775-46.5433,119.4486-47.8207,126.73,12.6762-70.31-1.5027-116.8677-1.5027-116.8677,7.3993,59.1859-17.2627,136.4633-17.2627,136.4633C909.2523,359.2167,932.27,279.476,932.27,279.476c-23.84,44.3907-26.5923,88.7816-26.5923,88.7816,2.6085-39.2513-5.1443-69.94-12.4413-89.3018,1.8454-4.25,3.8581-8.4587,6.0787-12.5975,0,0-2.8532,3.6642-7.0737,10.03-5.3124-13.4578-10.1137-20.7521-10.1137-20.7521,2.7974,9.2052,4.9971,17.8349,6.7485,25.9623-2.0493,3.261-4.2809,6.9738-6.5852,11.0694.8711-2.6538,1.4775-4.1476,1.4775-4.1476-5.027,6.1686-9.4163,16.2806-13.1377,27.66-8.0541,18.7394-14.5388,40.9194-14.1574,63.2172-.4314,2.8314-.6552,4.4812-.6552,4.4812-1.7332-17.34-.8452-38.7111,1.2291-60.1089a130.44,130.44,0,0,1,5.349-15.05,86.5678,86.5678,0,0,0-4.6283,8.0307c5.1229-47.1783,15.3154-92.3526,15.3154-92.3526-9.6852,25.6185-16.7526,53.0089-21.8,77.1358a222.5175,222.5175,0,0,0-13.2022,18.8051c-5.3249-37.4444-16.9683-63.0568-16.9683-63.0568,12.9739,64.9406-3.5385,92.8916-3.5385,92.8916,8.6164-41.1056-1.2138-75.63-1.2138-75.63a163.7619,163.7619,0,0,1-4.0619,61.2471c.19-27.4739-1.5045-61.1476-8.2037-93.6135,0,0,.0748,3.9084.0115,10.4095a276.5639,276.5639,0,0,0-7.4742-28.1884C811.4271,300.85,781.01,362.5052,781.01,362.5052c-.382-2.18-.7683-4.291-1.1562-6.3743,2.792-19.6888,3.3623-42.0722-4.8539-55.1893a189.43,189.43,0,0,1-2.2116,23.0267,272.3677,272.3677,0,0,0-8.3214-26.8362c2.0988-9.08,4.6036-18.7924,7.6257-29.1663,0,0-5.44,5.7021-12.6518,17.1556-6.1109-12.9287-10.492-16.333-10.492-16.333a125.7883,125.7883,0,0,1,8.5378,19.5171c-10.1943,16.96-23.0649,44.5593-29.4078,82.9912,0,0,7.5-43.8945-11.264-94.4606,0,0,9.0372,84.5649-13.6184,105.1052,0,0-11.6944-82.6963,12.0927-137.7224,0,0-29.1048,40.6171-30.64,112.7436.205-7.7811,1.0977-76.1222-28.3655-137.9089,0,0,21.4215,105.5538,6.6829,141.5038,13.3589-66.83-20.7617-115.6085-20.7617-115.6085,30.4172,87.1394-2.2523,125.7757-2.2523,125.7757,13.3651-36.169-.214-71.5286-.214-71.5286,2.4663,16.4323-17.2623,71.5286-17.2623,71.5286-19.732-29.5954,5.7519-84.67,5.7519-84.67-22.1952,23.0133-32.0612,88.78-32.0612,88.78-4.93-37.8135,32.0612-136.46,32.0612-136.46-34.15,52.7775-46.5433,119.4486-47.8207,126.73,12.6762-70.31-1.5027-116.8677-1.5027-116.8677,7.3993,59.1859-17.2627,136.4633-17.2627,136.4633-13.1544-25.484,9.8631-105.2247,9.8631-105.2247-23.84,44.3907-26.5923,88.7816-26.5923,88.7816a225.3393,225.3393,0,0,0-1.6743-46.7227c3.5342-18.67,9.4755-37.9354,19.1358-55.938a245.6866,245.6866,0,0,0-22.7119,37.0194c-7.12-30.011-18.3-46.98-18.3-46.98,7.2637,23.9022,10.6855,44.13,11.8776,60.8541-6.2985,14.8665-11.5733,31.8179-13.2137,49.2556a100.0853,100.0853,0,0,1-4.2917-20.1734,128.785,128.785,0,0,1,9.72-37.6147,113.9688,113.9688,0,0,0-10.294,20.4933,135.4853,135.4853,0,0,1,5.3382-32.4767c1.0432-2.0531,2.1262-4.1307,3.2856-6.2531,0,0-.7294.7437-1.9944,2.1456.7279-2.1579,1.2128-3.3466,1.2128-3.3466a48.3828,48.3828,0,0,0-4.9773,7.6968,221.2182,221.2182,0,0,0-22.1845,32.2289c4.526-51.1126,16.4767-104.0484,16.4767-104.0484-20.0466,53.025-28.8986,113.6559-31.7651,137.1265-.2609.7235-.5054,1.4689-.76,2.2012a259.2928,259.2928,0,0,0-5.0109-58.2569,415.7675,415.7675,0,0,0-7.6288-64.0536s.2637,13.4176-.6174,32.4165c-3.4385-10.5063-6.1888-16.55-6.1888-16.55A248.8463,248.8463,0,0,1,465.135,295.4c-1.414,16.72-3.7859,35.106-7.7372,51.7809,7.5447-39.7734-1.803-72.6383-1.803-72.6383,5.375,44.3356-8.4927,77.13-13.7462,87.6461q.1979-1.1574.3852-2.3362c20.383-57.1954-6.3672-135.4552-6.3672-135.4552,14.7953,76.452-15.6218,138.1075-15.6218,138.1075-.614-3.5046-1.2382-6.8375-1.8663-10.0924,1.7-19.9469,6.1054-48.5907,16.7731-85.2087,0,0-13.9049,14.5728-26.7331,43.9565-10.6227-34.9118-20.2349-42.3722-20.2349-42.3722,8.0212,14.4825,13.2485,32.5255,16.6306,51.1276a254.1733,254.1733,0,0,0-13.6765,50.619s7.4994-43.8945-11.2638-94.4608c0,0,9.037,84.5654-13.6187,105.1056,0,0-11.6944-82.6967,12.0927-137.7224,0,0-29.1048,40.6169-30.64,112.7434.2049-7.7811,1.0976-76.122-28.3655-137.9089,0,0,21.4215,105.5541,6.6828,141.504,13.359-66.83-20.7616-115.6087-20.7616-115.6087,30.4171,87.1394-2.2523,125.7757-2.2523,125.7757,13.365-36.1693-.2141-71.5288-.2141-71.5288,2.4664,16.4327-17.2623,71.5288-17.2623,71.5288-19.732-29.5954,5.7522-84.67,5.7522-84.67-22.1955,23.0133-32.0614,88.78-32.0614,88.78-4.93-37.8135,32.0614-136.46,32.0614-136.46-34.15,52.7773-46.5433,119.4486-47.821,126.73,12.6763-70.31-1.5027-116.8675-1.5027-116.8675,7.3993,59.186-17.2623,136.4631-17.2623,136.4631-13.1548-25.484,9.8628-105.2247,9.8628-105.2247-23.84,44.3907-26.5924,88.7816-26.5924,88.7816,4.6439-69.8749-23.55-112.6213-23.55-112.6213,25.4806,83.8486,3.7884,122.6385,3.7884,122.6385-21.3763-42.7465-2.1475-89.7544-2.1475-89.7544-18.0849,22.1919-27.9506,95.3588-27.9506,95.3588C152.36,325.5722,175.3769,223.636,175.3769,223.636c-25.484,67.4078-32.8835,147.1484-32.8835,147.1484,4.1108-63.3-19.0874-114.2641-19.0874-114.2641,12.974,64.94-3.5382,92.8916-3.5382,92.8916,8.6161-41.1058-1.2141-75.6306-1.2141-75.6306,6.5778,54.2568-15.67,91.2486-15.67,91.2486,24.613-57.5453-4.0578-141.3939-4.0578-141.3939,14.7952,76.452-15.6217,138.1075-15.6217,138.1075-13.9731-79.7392-32.0613-93.7166-32.0613-93.7166,29.595,53.4338,21.3769,155.265,21.3769,155.265H409.6167c-.0329.4564-.0564.7617-.0564.7617h736.6822ZM754.83,386.3449s-3.3876-28.1983,7.7388-80.6594A293.5624,293.5624,0,0,1,768.98,343.926,232.8632,232.8632,0,0,1,754.83,386.3449Zm16.5282,8.9595c-.03.0247-.0574.0566-.0879.0814,0,0,.0362-.1181.09-.2952C771.36,395.1631,771.359,395.2322,771.3585,395.3044ZM840.2,371.5461a238.2243,238.2243,0,0,0,.2958-24.56,143.0545,143.0545,0,0,1,7.4878-28.6907C842.27,349.2579,840.2,371.5461,840.2,371.5461Zm45.7161,6.7289a95.5507,95.5507,0,0,1-9.1991-30.9073c1.7095-19.22,5.5972-40.1425,13.2674-60.4026C902.15,349.1757,885.9159,378.275,885.9159,378.275Z"/><circle class="cls-36" cx="258.3234" cy="180.8815" r="148.0499"/><path class="cls-37" d="M131.9949,249.9409a22.0193,22.0193,0,0,0,3.4626,13.3451,6.1343,6.1343,0,0,0,2.8159,2.6293,7.1347,7.1347,0,0,0,3.3412.1049,726.8382,726.8382,0,0,1,80.7612-5.7083c-1.1705.0174-5.54-5.8924-7.0383-6.6538-2.7424-1.3942-6.428-1.4788-9.4566-1.9382q-12.2112-1.8523-24.5493-2.6721A292.5335,292.5335,0,0,0,131.9949,249.9409Z"/><path class="cls-37" d="M130.6942,265.4212l18.62,9.6774,79.37-24.7223c2.1722-.6766,4.6878-1.7034,4.6-3.2889-7.11-2.3623-14.1951-5.5536-22.2958-4.5834-9.24,1.1066-18.8,3.9376-27.5443,6.1465q-14.0039,3.5377-27.5185,7.854C153.29,257.3467,131.6892,265.9384,130.6942,265.4212Z"/><path class="cls-37" d="M383.9917,228.0552l1.0634,21.8149c-.0189-.3883-69.2125-.4079-75.3918,2.7728-2.4582,1.2652-4.8876,4.0633-3.5873,6.5031.791,1.484,2.6055,2.0344,4.2377,2.44A584.2892,584.2892,0,0,0,377.2455,274.11l1.6031-12.6626a213.4,213.4,0,0,1-27.8138-3.1242c-6.5735-1.1786-21.7415-2.0846-26.75-6.683-9.6774-8.885,17.949-12.4527,22.9157-13.7767Z"/><path class="cls-37" d="M249.496,310.1306s-1.6723-36.2344-41.8089-36.2344-40.1366,35.6769-40.1366,35.6769-4.46,17.8385,40.1366,17.8385S249.496,310.1306,249.496,310.1306Z"/><path class="cls-38" d="M203.2275,327.4116c-4.46-8.9192,0-37.9068,0-37.9068s-11.4286,18.4309-10.4974,37.0881Z"/><path class="cls-39" d="M249.6118,310.1306s-1.6723-36.2344-41.8089-36.2344-40.1366,35.6769-40.1366,35.6769-4.46,17.8385,40.1366,17.8385S249.6118,310.1306,249.6118,310.1306Z"/><path class="cls-37" d="M270.0323,310.1306s1.6724-36.2344,41.809-36.2344,40.1365,35.6769,40.1365,35.6769,4.46,17.8385-40.1365,17.8385S270.0323,310.1306,270.0323,310.1306Z"/><path class="cls-38" d="M315.3157,327.4116c4.46-8.9192,0-37.9068,0-37.9068s11.4286,18.4309,10.4974,37.0881Z"/><path class="cls-39" d="M270.0323,310.1306s1.6724-36.2344,41.809-36.2344,40.1365,35.6769,40.1365,35.6769,4.46,17.8385-40.1365,17.8385S270.0323,310.1306,270.0323,310.1306Z"/><path class="cls-40" d="M217.482,244.0272s20.4207,20.4207,17.0172,44.2448c0,0,13.6138-10.21,13.6138-20.4207,0,0,0,44.2448,6.8069,54.4551,0,0,3.4035-30.631,10.21-34.0344,0,0,6.8068,20.4207,17.0172,23.8241,0,0-10.21-27.2276-3.4035-40.8414a36.6183,36.6183,0,0,0,13.6138,17.0173s-10.21-23.8241,17.0173-51.0517Z"/><path class="cls-41" d="M178.0527,113.2854s24.5279-35.677,82.5029-35.677,82.503,37.9068,82.503,37.9068,31.2173-6.6895,53.5154,28.9875c0,0-26.7577,13.3789-37.9067,0,0,0,24.5279,75.8135-49.0559,120.41,0,0-31.2173,17.8385-49.0558,17.8385s-46.826-17.8385-46.826-17.8385-73.5837-42.3664-49.0558-120.41c0,0-13.3789,15.6087-42.3664,0C122.3074,144.5027,142.3757,115.5152,178.0527,113.2854Z"/><ellipse class="cls-38" cx="247.1768" cy="241.4994" rx="6.6894" ry="10.0341" transform="translate(-77.2845 122.5742) rotate(-24.2049)"/><circle class="cls-38" cx="225.6696" cy="165.3619" r="37.759"/><circle class="cls-38" cx="293.7385" cy="165.3619" r="37.759"/><ellipse class="cls-38" cx="273.9345" cy="241.4994" rx="10.0341" ry="6.6894" transform="translate(-58.647 392.3359) rotate(-65.7951)"/><circle class="cls-42" cx="292.5644" cy="165.6859" r="25.3193"/><circle class="cls-42" cx="227.8989" cy="165.6859" r="25.3193"/><circle class="cls-38" cx="237.3767" cy="171.1434" r="10.0341"/><circle class="cls-38" cx="303.039" cy="171.1434" r="10.0341"/><path class="cls-36" d="M411.4784,87.2867s3.72-51.0318-51.0517-54.4551C305.9716,29.4282,288.9544,80.48,288.9544,80.48s-10.21,20.4207,13.6138,27.2276,27.2275-7.0905,27.2275-7.0905,3.4035-33.7508,30.631-43.9612S411.4784,87.2867,411.4784,87.2867Z"/><path class="cls-36" d="M106.45,87.2867s-3.72-51.0318,51.0517-54.4551C211.9568,29.4282,228.974,80.48,228.974,80.48s10.21,20.4207-13.6137,27.2276-27.2276-7.0905-27.2276-7.0905-3.4035-33.7508-30.631-43.9612S106.45,87.2867,106.45,87.2867Z"/><circle class="cls-36" cx="955.1028" cy="187.8305" r="140.2354"/><path class="cls-37" d="M896.2094,225.1807c.55,2.3862,2.6615,4.0555,4.7249,5.3743,9.527,6.0891,21.24,9.2533,28.6321,17.8092,5.6971,6.5942,7.94,15.4285,12.2538,23,3.4842,6.1155,8.5411,11.5487,15.0124,14.3164s14.4486,2.5053,20.0963-1.6949,8.1317-12.6034,4.7136-18.756c-3.4708-6.2475-11.7853-9.1613-13.9306-15.9785-1.3867-4.4069.2709-9.133,1.91-13.4523-10.6551,2.1877-21.56-1.8666-31.32-6.6687C934.109,227.0676,891.6181,205.2688,896.2094,225.1807Z"/><path class="cls-42" d="M870.2959,57.0841S896.21,19.391,957.4612,19.391,1044.6265,59.44,1044.6265,59.44s32.9815-7.0674,56.54,30.6257c0,0-28.27,14.1349-40.0489,0,0,0,25.914,80.0978-51.828,127.2142,0,0-32.9815,18.8466-51.8281,18.8466S907.989,217.28,907.989,217.28s-77.742-44.7606-51.828-127.2142c0,0-14.1349,16.4907-44.7606,0C811.4,90.0656,832.6028,59.44,870.2959,57.0841Z"/><path class="cls-37" d="M945.7767,309.154s-1.7669-38.2821-44.1716-38.2821S859.2,308.565,859.2,308.565s-4.7116,18.8466,42.4048,18.8466S945.7767,309.154,945.7767,309.154Z"/><path class="cls-38" d="M896.8934,327.4116c-4.7116-9.4233,0-40.0489,0-40.0489s-12.0744,19.4724-11.0906,39.1839Z"/><path class="cls-39" d="M945.899,309.154s-1.7668-38.2821-44.1716-38.2821-42.4047,37.6931-42.4047,37.6931-4.7117,18.8466,42.4047,18.8466S945.899,309.154,945.899,309.154Z"/><path class="cls-37" d="M967.4735,309.154s1.7668-38.2821,44.1716-38.2821S1054.05,308.565,1054.05,308.565s4.7117,18.8466-42.4047,18.8466S967.4735,309.154,967.4735,309.154Z"/><path class="cls-38" d="M1015.3158,327.4116c4.7117-9.4233,0-40.0489,0-40.0489s12.0745,19.4724,11.0907,39.1839Z"/><path class="cls-39" d="M967.4735,309.154s1.7668-38.2821,44.1716-38.2821S1054.05,308.565,1054.05,308.565s4.7117,18.8466-42.4047,18.8466S967.4735,309.154,967.4735,309.154Z"/><path class="cls-37" d="M839.0717,168.7489c3.1953,10.3238,1.38,22.8305,8.7559,30.7288,3.1457,3.3683,7.68,5.4544,10.024,9.4226,1.5862,2.6852,1.9557,5.9016,2.1341,9.0153.3629,6.3336-.8417,14.1056-6.7456,16.4274-4.6882,1.8436-10.0373-.9595-13.3361-4.7669s-5.3182-8.5682-8.4755-12.4937a27.1609,27.1609,0,0,0-14.0767-9.1533c-4.4262-1.1759.3029-42.7783.9615-47.4794,1.0773-7.69,1.4445-13.5415,9.5272-7.555A31.623,31.623,0,0,1,839.0717,168.7489Z"/><path class="cls-37" d="M1077.0969,201.57c-5.7713,5.0266-14.253,4.79-21.9061,4.8634s-16.4724,1.4128-20.4556,7.9479c-3.3369,5.4746-1.9,12.6287.8476,18.4216s6.7009,11.0683,8.4337,17.2411c3.2086,11.43-1.7206,23.8507.9263,35.4241.4487,1.962,1.58,4.2432,3.5922,4.2759a4.9464,4.9464,0,0,0,3.1935-1.6994c17.862-16.4951,31.8311-37.6169,38.9366-60.94,3.1678-10.3978,7.128-25.0267,4.9655-35.9925C1092.5589,175.5363,1081.4223,197.8022,1077.0969,201.57Z"/><path class="cls-37" d="M1070.0322,140.1968c-.4409,2.8445-.7125,6.0676,1.1095,8.2959a10.0225,10.0225,0,0,0,3.73,2.5041,81.8944,81.8944,0,0,0,14.3744,5.0431c.5973.1488,1.35.24,1.717-.2547a1.5333,1.5333,0,0,0,.2292-.7508,19.3748,19.3748,0,0,0-1.4054-9.76c-2.21-5.203-6.6963-9.4364-7.7292-14.9966C1079.0185,113.9051,1071.1456,133.0145,1070.0322,140.1968Z"/><path class="cls-43" d="M840.2282,235.0974s93.1242-39.91,226.1586-5.3214c0,0-26.6069-2.6607-39.91,2.6607,0,0,18.6248,13.3034,13.3034,29.2676,0,0-23.9462-45.2318-93.1241-31.9283s-85.1421,66.5172-85.1421,66.5172,0-34.5889,18.6249-53.2138c0,0-21.2856,10.6428-29.2676,21.2856,0,0-2.6607-15.9642,15.9641-29.2676C866.8351,235.0974,850.871,232.4367,840.2282,235.0974Z"/><path class="cls-44" d="M913.7514,220.1925S897.57,171.65,958.6986,171.65s44.9472,48.543,44.9472,48.543-34.16,16.181-44.9472,16.181S913.7514,220.1925,913.7514,220.1925Z"/><ellipse class="cls-37" cx="926.3366" cy="110.5213" rx="12.5852" ry="19.7768"/><ellipse class="cls-37" cx="978.4754" cy="112.3192" rx="12.5852" ry="19.7768"/><ellipse class="cls-45" cx="940.7197" cy="196.82" rx="7.1916" ry="10.7873" transform="translate(27.6226 496.7287) rotate(-30)"/><ellipse class="cls-45" cx="973.0817" cy="196.82" rx="10.7873" ry="7.1916" transform="matrix(0.5, -0.866, 0.866, 0.5, 316.0898, 941.1235)"/><path class="cls-46" d="M870.2959,57.0841S896.21,19.391,957.4612,19.391,1044.6265,59.44,1044.6265,59.44s32.9815-7.0674,56.54,30.6257c0,0-28.27,14.1349-40.0489,0,0,0,25.914,80.0978-51.828,127.2142,0,0-32.9815,18.8466-51.8281,18.8466S907.989,217.28,907.989,217.28s-77.742-44.7606-51.828-127.2142c0,0-14.1349,16.4907-44.7606,0C811.4,90.0656,832.6028,59.44,870.2959,57.0841Z"/><path class="cls-37" d="M856.24,1.9013c-4.25,3.3948,3.555,22.51,15.6906,32.72,10.6122,8.9287,19.5408-1.6835,19.5408-1.6835s8.9287-10.6122-1.6835-19.5409S860.49-1.4935,856.24,1.9013Z"/><path class="cls-36" d="M1055.6236,1.9013c4.25,3.3948-3.555,22.51-15.69,32.72-10.6122,8.9287-19.5409-1.6835-19.5409-1.6835s-8.9286-10.6122,1.6836-19.5409S1051.3732-1.4935,1055.6236,1.9013Z"/><path class="cls-37" d="M1013.4677,16.0291a22.16,22.16,0,0,0-2.036-2.162Q995.733,9.1542,980.0338,4.4442a27.4369,27.4369,0,0,1-6.0832-2.6132,4.5312,4.5312,0,0,0-.2412,1.0954c-.1093,2.06,2.9352,4.9593,2.8753,7.708A11.8728,11.8728,0,0,1,973.664,17.81c-2.8775,3.75-7.5947,5.9858-11.2092,8.9164-6.4412,5.2229-10.6117,14.3155-7.4226,21.97,2.408,5.7806,8.2527,9.3079,13.9718,11.8582A94.975,94.975,0,0,0,987.76,66.6729c10.3842,2.2258,22.7664,2.0549,29.74-5.9546,7.3476-8.4386,5.2207-21.3307,1.894-32.0137C1017.9991,24.2237,1016.4126,19.6833,1013.4677,16.0291Z"/><path class="cls-36" d="M623.3507,30.9586s20.0682-20.0683,44.5962-8.9193,20.0682,28.9876,20.0682,28.9876a34.61,34.61,0,0,1,35.677,11.149c15.6087,17.8385,8.9192,33.4472,8.9192,33.4472s20.0683-8.9193,28.9876,8.9192-4.46,31.2173-4.46,31.2173,15.6086,6.6895,15.6086,33.4472-13.3788,40.1366-13.3788,40.1366,11.149,15.6086,2.23,37.9067-28.9876,20.0683-28.9876,20.0683,8.9193,17.8385-4.46,33.4472-35.6769,4.46-35.6769,4.46L634.5,325.2935s-22.2981,8.9192-51.2856,0-44.5962-20.0683-44.5962-20.0683-20.0683,17.8385-40.1366,0-8.9192-42.3664-8.9192-42.3664-22.2981,4.46-35.677-20.0683,15.6087-40.1366,15.6087-40.1366-28.9876-8.9192-26.7578-35.6769S473.9534,133.53,473.9534,133.53s-20.0683-4.46-20.0683-24.5279,35.677-15.6086,35.677-15.6086-20.0683-28.9876,4.46-44.5962,35.6769,0,35.6769,0,0-24.528,20.0683-26.7578,28.9876,8.9193,28.9876,8.9193S585.4439,10.89,603.2824,10.89,623.3507,30.9586,623.3507,30.9586Z"/><path class="cls-37" d="M602.2569,310.1306s-1.6723-36.2344-41.8089-36.2344-40.1366,35.6769-40.1366,35.6769-4.46,17.8385,40.1366,17.8385S602.2569,310.1306,602.2569,310.1306Z"/><path class="cls-38" d="M555.9884,327.4116c-4.46-8.9192,0-37.9068,0-37.9068S544.56,307.9357,545.491,326.5929Z"/><path class="cls-39" d="M602.3727,310.1306s-1.6723-36.2344-41.8089-36.2344-40.1366,35.6769-40.1366,35.6769-4.46,17.8385,40.1366,17.8385S602.3727,310.1306,602.3727,310.1306Z"/><path class="cls-37" d="M622.7932,310.1306s1.6724-36.2344,41.8089-36.2344,40.1366,35.6769,40.1366,35.6769,4.46,17.8385-40.1366,17.8385S622.7932,310.1306,622.7932,310.1306Z"/><path class="cls-38" d="M668.0766,327.4116c4.46-8.9192,0-37.9068,0-37.9068s11.4286,18.4309,10.4974,37.0881Z"/><path class="cls-39" d="M622.7932,310.1306s1.6724-36.2344,41.8089-36.2344,40.1366,35.6769,40.1366,35.6769,4.46,17.8385-40.1366,17.8385S622.7932,310.1306,622.7932,310.1306Z"/><path class="cls-43" d="M714.7141,261.5382s-88.143-37.7756-214.0617-5.0367c0,0,25.1837-2.5184,37.7756,2.5184,0,0-17.6286,12.5918-12.5919,27.7021,0,0,22.6654-42.8124,88.1431-30.22s80.5879,62.9593,80.5879,62.9593,0-32.7388-17.6286-50.3674c0,0,20.147,10.0735,27.7021,20.147,0,0,2.5184-15.11-15.11-27.7022C689.53,261.5382,704.6406,259.02,714.7141,261.5382Z"/><path class="cls-37" d="M530.8135,123.4957s24.528-35.677,82.503-35.677,82.503,37.9068,82.503,37.9068,31.2173-6.6894,53.5154,28.9875c0,0-26.7577,13.3789-37.9068,0,0,0,24.528,75.8136-49.0558,120.41,0,0-31.2173,17.8384-49.0558,17.8384s-46.826-17.8384-46.826-17.8384-73.5837-42.3664-49.0558-120.41c0,0-13.3789,15.6087-42.3664,0C475.0683,154.713,495.1366,125.7255,530.8135,123.4957Z"/><ellipse class="cls-38" cx="599.9376" cy="251.7098" rx="6.6894" ry="10.0341" transform="translate(-50.4578 268.1043) rotate(-24.2049)"/><ellipse class="cls-38" cx="626.6954" cy="251.7098" rx="10.0341" ry="6.6894" transform="translate(140.1688 720.1078) rotate(-65.7951)"/><circle class="cls-42" cx="578.7545" cy="175.8962" r="27.8726"/><circle class="cls-42" cx="647.8786" cy="175.8962" r="27.8726"/><circle class="cls-38" cx="569.3671" cy="181.3537" r="10.0341"/><circle class="cls-38" cx="638.4912" cy="181.3537" r="10.0341"/><path class="cls-47" d="M726.0006,274.0687c0-2.9424-2.6431-5.4629-6.4237-6.5957,1.6138-3.1394,1.719-6.385-.1006-8.3916-1.8971-2.0922-5.3372-2.2395-8.76-.7473-1.1936-3.5379-3.6137-5.9874-6.4378-5.9874-2.7089,0-5.0423,2.258-6.284,5.5624-3.3786-2.04-7.0215-2.3047-9.2011-.3283-2.3479,2.129-2.2571,6.196-.127,10.0058-3.6056,1.1779-6.11,3.6247-6.11,6.4821,0,2.71,2.2592,5.0438,5.5652,6.2851-.7023,2.4224-.4535,4.7309.9591,6.2887,1.8971,2.0921,5.3373,2.2394,8.76.7473,1.1937,3.5378,3.6137,5.9873,6.4378,5.9873,2.1029,0,3.98-1.3663,5.3029-3.5138,3.14,1.6153,6.387,1.7211,8.3943-.0991,2.1167-1.9193,2.2474-5.4183.698-8.88C722.9269,279.9024,726.0006,277.238,726.0006,274.0687Z"/><circle class="cls-42" cx="704.2786" cy="272.8619" r="8.1457"/><text class="cls-48" transform="translate(214.3167 405.1167)">goa<tspan class="cls-49" x="69.4941" y="0">t</tspan><tspan x="81.4502" y="0">s</tspan></text><text class="cls-48" transform="translate(567.5452 405.1167)">sheep</text><text class="cls-48" transform="translate(911.2171 405.1167)">c<tspan class="cls-50" x="18.7725" y="0">o</tspan><tspan class="cls-51" x="40.1729" y="0">w</tspan><tspan x="72.3506" y="0">s</tspan></text><text class="cls-52" transform="translate(268.6097 541.0318) rotate(24.2202)">w</text><text class="cls-52" transform="translate(290.7518 551.1548) rotate(33.6335)">o</text><text class="cls-52" transform="matrix(0.7445, 0.6676, -0.6676, 0.7445, 306.3553, 561.4742)">o</text><text class="cls-52" transform="matrix(0.64, 0.7684, -0.7684, 0.64, 320.3133, 573.8912)">d</text><text class="cls-52" transform="translate(332.4715 588.608) rotate(57.7665)">y</text><text class="cls-52" transform="matrix(0.451, 0.8925, -0.8925, 0.451, 340.2298, 601.0083)"> </text><text class="cls-52" transform="matrix(0.3447, 0.9387, -0.9387, 0.3447, 345.2415, 610.2867)">p</text><text class="cls-52" transform="matrix(0.2477, 0.9688, -0.9688, 0.2477, 351.6292, 628.523)">l</text><text class="cls-52" transform="translate(353.6478 635.024) rotate(81.493)">a</text><text class="cls-52" transform="translate(356.3953 653.9488) rotate(89.0712)">n</text><text class="cls-52" transform="matrix(-0.0932, 0.9956, -0.9956, -0.0932, 356.3978, 671.8736)">t</text><text class="cls-52" transform="translate(355.7522 680.0162) rotate(99.9031)">s</text><path class="cls-43" d="M230.2321,664.1407,119.2873,628.0925c15.9271-49.0184,59.4037-80.6061,110.9448-80.6061Z"/><path class="cls-47" d="M230.2321,664.1407V780.7949A116.6542,116.6542,0,0,1,113.5779,664.1407a110.8991,110.8991,0,0,1,5.7094-36.0482Z"/><path class="cls-53" d="M230.2321,664.1407V547.4864a116.6543,116.6543,0,1,1,0,233.3085h0Z"/><path class="cls-43" d="M616.723,660.66,548.47,754.6024A116.1193,116.1193,0,0,1,522.78,592.4067c22.6171-31.13,55.4639-47.8661,93.9425-47.8661Z"/><path class="cls-47" d="M616.7074,660.6692,727.13,624.7436A116.1192,116.1192,0,0,1,652.633,771.0913c-36.5907,11.9047-73.0039,6.1519-104.1425-16.4532Z"/><path class="cls-53" d="M616.723,660.66V544.5406c51.3047,0,94.582,31.4428,110.436,80.2365Z"/><path class="cls-43" d="M971.1634,652.53l68.8076,94.7056A117.0625,117.0625,0,1,1,902.3558,557.8245c20.9217-15.2006,42.9468-22.357,68.8076-22.357Z"/><path class="cls-47" d="M971.1634,652.53l111.333-36.1743c15.9829,49.19-.6819,100.4788-42.5254,130.88Z"/><path class="cls-53" d="M971.1634,652.53V535.4675c51.7214,0,95.35,31.6982,111.333,80.8882Z"/><text class="cls-52" transform="translate(117.5618 595.4654) rotate(-53.5307)">g</text><text class="cls-52" transform="matrix(0.6792, -0.734, 0.734, 0.6792, 129.2615, 580.0513)">r</text><text class="cls-52" transform="matrix(0.7523, -0.6588, 0.6588, 0.7523, 134.866, 573.5113)">a</text><text class="cls-52" transform="matrix(0.8272, -0.562, 0.562, 0.8272, 149.4686, 560.9429)">s</text><text class="cls-52" transform="matrix(0.8782, -0.4783, 0.4783, 0.8782, 159.9339, 553.8042)">s</text><text class="cls-52" transform="translate(170.8099 547.6636) rotate(-21.8942)">e</text><text class="cls-52" transform="translate(187.0379 541.2515) rotate(-15.2312)">s</text><text class="cls-54" transform="matrix(0.7051, 0.7091, -0.7091, 0.7051, 117.2488, 766.9848)">f</text><text class="cls-54" transform="translate(124.573 774.7248) rotate(38.4642)">o</text><text class="cls-54" transform="matrix(0.855, 0.5185, -0.5185, 0.855, 142.5545, 788.4475)">r</text><text class="cls-54" transform="translate(153.0567 795.0803) rotate(23.8423)">b</text><text class="cls-54" transform="matrix(0.963, 0.2695, -0.2695, 0.963, 174.4917, 804.1154)">s</text></g></g></svg>