<svg xmlns="http://www.w3.org/2000/svg" xmlns:xlink="http://www.w3.org/1999/xlink" viewBox="0 0 522.23 572.88"><defs><style>.cls-1,.cls-12,.cls-13,.cls-14,.cls-16,.cls-3,.cls-5,.cls-7,.cls-8,.cls-9{fill:none;}.cls-2{fill:#d9727e;}.cls-12,.cls-13,.cls-14,.cls-3,.cls-5,.cls-9{stroke:#5b5153;}.cls-12,.cls-13,.cls-14,.cls-16,.cls-3,.cls-5,.cls-9{stroke-miterlimit:10;}.cls-3{stroke-width:2.39px;}.cls-4{fill:#5b5153;}.cls-5{stroke-width:2.31px;}.cls-6{fill:#60a8a1;}.cls-7{stroke:#60a8a1;}.cls-7,.cls-8{stroke-linecap:round;stroke-linejoin:round;}.cls-12,.cls-16,.cls-7,.cls-8{stroke-width:2.49px;}.cls-8{stroke:#fff;}.cls-9{stroke-width:2.23px;}.cls-10{fill:#f6cf48;}.cls-11{fill:#fff;}.cls-13{stroke-width:2.57px;}.cls-14{stroke-width:2.65px;}.cls-15{clip-path:url(#clip-path);}.cls-16{stroke:#f6cf48;}</style><clipPath id="clip-path" transform="translate(6.28)"><path class="cls-1" d="M64.42,154.37a31.59,31.59,0,1,1-31.59-31.59A31.59,31.59,0,0,1,64.42,154.37Z"/></clipPath></defs><g id="Layer_2" data-name="Layer 2"><g id="Layer_3" data-name="Layer 3"><path class="cls-2" d="M269.4,36.43l15.12-12.11,2.24-1.87-1.49-2.25,3.26-5.82,6.26,7.46-6.3,2.25L286,26.18a62.83,62.83,0,0,1,7.73,13C260.56,72.06,243,59.4,243,59.4c-7.51-23.37,28.4-46.83,28.4-46.83a53.48,53.48,0,0,1,11.34,9.71C280.82,23.72,272.69,29.94,269.4,36.43Z" transform="translate(6.28)"/><path class="cls-2" d="M297.21,19.85l-6.34-7.59L303.69,1.48s4.8-3.51,7.44.29S310.25,9,310.25,9Z" transform="translate(6.28)"/><path class="cls-3" d="M332.62,37A217.47,217.47,0,0,1,442.5,98.06c1.43,1.46,2.83,2.94,4.22,4.44" transform="translate(6.28)"/><path class="cls-4" d="M445.24,101l1.46-4.83.17.05,2.61,7.08,3.69,6.55-6.09-4.39-6.76-3.37-.05-.16Z" transform="translate(6.28)"/><path class="cls-5" d="M95.36,107.14q7.1-8.08,15-15.5A226.41,226.41,0,0,1,212.52,37.31" transform="translate(6.28)"/><path class="cls-4" d="M210.52,37.82l-3.38-3.51.12-.12,7.21,1.15,7.26,0-6.58,3.06-6,4.11-.15,0Z" transform="translate(6.28)"/><path class="cls-6" d="M496.05,179.8s-5.8-10.35,7.57-16.4c9.89-4.47,9.55-7.67,9.55-7.67s6.42,14.36-.23,22.84-14,4.94-14,4.94" transform="translate(6.28)"/><path class="cls-6" d="M483.66,166.59s9.74-16.44-11.69-26.93c-15.84-7.76-15.17-12.93-15.17-12.93s-10.9,22.9-.45,37,22.46,8.75,22.46,8.75" transform="translate(6.28)"/><path class="cls-7" d="M466.5,156.35s3.89,10.73,19.66,19.79c20.9,12,7.4,41.22,7.4,41.22" transform="translate(6.28)"/><path class="cls-8" d="M466.1,156.67s2.92,6.61,11.06,12.82" transform="translate(6.28)"/><path class="cls-9" d="M508.08,214.91a236.19,236.19,0,0,1-3.88,113.77" transform="translate(6.28)"/><path class="cls-4" d="M504.66,326.73l4.53-1.21.05.16-4.34,5.54c-1.12,2-2.25,4.09-3.37,6.13q.24-3.48.49-7l-.65-7,.11-.11Z" transform="translate(6.28)"/><path class="cls-10" d="M506.21,362.76a10,10,0,1,1-10-10A10,10,0,0,1,506.21,362.76Z" transform="translate(6.28)"/><rect class="cls-10" x="485.82" y="374.9" width="32.38" height="39.12" rx="8.32"/><rect class="cls-10" x="492.43" y="402.54" width="20.06" height="39.12" rx="8.32"/><rect class="cls-11" x="462.84" y="360.43" width="0.58" height="19.9"/><rect class="cls-11" x="512.49" y="395.94" width="0.59" height="20.71"/><rect class="cls-11" x="502.17" y="414.02" width="0.58" height="29.84"/><rect class="cls-2" x="303.12" y="538.42" width="14.33" height="32.91" rx="4.79"/><rect class="cls-2" x="298.52" y="524.11" width="22.9" height="27.67" rx="6.58"/><path class="cls-12" d="M454.47,423.66q-6.8,8.14-14.29,15.65a232.3,232.3,0,0,1-77,51.05" transform="translate(6.28)"/><path class="cls-4" d="M365.26,489.49l4.17,3.2-.11.15-7.88-.07L353.7,494l6.53-4.33,5.78-5.35h.17Z" transform="translate(6.28)"/><path class="cls-2" d="M311.11,515.52a7.1,7.1,0,1,1-7.1-7.09A7.1,7.1,0,0,1,311.11,515.52Z" transform="translate(6.28)"/><rect class="cls-11" x="302.71" y="538.42" width="0.41" height="14.07"/><rect class="cls-11" x="317.46" y="538.42" width="0.41" height="14.65"/><rect class="cls-11" x="310.08" y="551.78" width="0.41" height="21.1"/><rect class="cls-2" x="237.68" y="538.42" width="14.33" height="32.91" rx="4.79"/><rect class="cls-2" x="233.08" y="524.11" width="22.9" height="27.67" rx="6.58"/><path class="cls-2" d="M245.67,515.52a7.1,7.1,0,1,1-7.1-7.09A7.1,7.1,0,0,1,245.67,515.52Z" transform="translate(6.28)"/><rect class="cls-11" x="237.27" y="538.42" width="0.41" height="14.07"/><rect class="cls-11" x="252.02" y="538.42" width="0.41" height="14.65"/><rect class="cls-11" x="244.64" y="551.78" width="0.41" height="21.1"/><rect class="cls-2" x="271.38" y="529.01" width="14.33" height="32.91" rx="4.79"/><rect class="cls-2" x="266.78" y="514.7" width="22.9" height="27.67" rx="6.58"/><path class="cls-2" d="M279.37,506.12a7.1,7.1,0,1,1-7.1-7.1A7.1,7.1,0,0,1,279.37,506.12Z" transform="translate(6.28)"/><rect class="cls-11" x="270.97" y="529.01" width="0.41" height="14.07"/><rect class="cls-11" x="285.72" y="529.01" width="0.41" height="14.65"/><rect class="cls-11" x="278.34" y="542.37" width="0.41" height="21.1"/><path class="cls-13" d="M189.46,493.63a239,239,0,0,1-85.05-53.85Q102,437.42,99.66,435" transform="translate(6.28)"/><path class="cls-4" d="M101.29,436.62l-1.46,5.22-.19,0-3-7.57c-1.38-2.31-2.75-4.63-4.12-6.94l6.65,4.57,7.35,3.47,0,.17Z" transform="translate(6.28)"/><path class="cls-6" d="M16.62,379.21s9.54-5.69,33.33,0c16.09,3.85,31.63-3.73,31.63-3.73v30.78S70.18,416.42,49.1,410a49.94,49.94,0,0,0-32.48,1.07Z" transform="translate(6.28)"/><path class="cls-11" d="M60.44,395.71c-.78,7-5.62,12.12-10.82,11.53s-8.78-6.69-8-13.65,5.62-12.11,10.82-11.53S61.22,388.75,60.44,395.71Z" transform="translate(6.28)"/><path class="cls-6" d="M54.58,397.84a3.49,3.49,0,0,1-3.66,3.08l-.11,1-1.55-.18.11-1a5.66,5.66,0,0,1-3.23-2.3l1.77-1.75a3.87,3.87,0,0,0,2.49,1.7,1.22,1.22,0,0,0,1.51-1c.23-2.1-5.06-2.15-4.59-6.07a3.42,3.42,0,0,1,3.44-2.94l.12-1.09,1.55.18-.12,1.06a5.55,5.55,0,0,1,2.86,1.94l-1.65,1.75a3.71,3.71,0,0,0-2.14-1.33c-.77-.09-1.32.28-1.39.89C49.78,393.7,55.05,394,54.58,397.84Z" transform="translate(6.28)"/><path class="cls-14" d="M44.61,342.33a262.86,262.86,0,0,1-7.83-116.5" transform="translate(6.28)"/><path class="cls-4" d="M36.47,228.19l-5.19,2.06-.08-.18,4.36-7.14,3.13-7.71.39,8.31,1.73,8.19-.1.14Z" transform="translate(6.28)"/><circle class="cls-10" cx="32.98" cy="154.37" r="31.59" transform="translate(-101.37 82.67) rotate(-50.93)"/><g class="cls-15"><path class="cls-11" d="M26.76,154.94a6.16,6.16,0,0,0,1.69,5.6c1.68,1.19,4.93.67,5.12,3,0,2.41-4.7,3.5-3.79,6,.33,1.2,3.56,1.42,3.93,2.79s-.83,1.89-1.14,3.27c-.77,3,.82,5.48,4.1,5.87,2.38.46,4.93-1,7.34-1.27.42-.11,1.83.05,2,0-.21.05,2.73-.75,2.27-.81,1.19.23,2.17-1.15,2.31,1,.26,1.77-2.92,3.37-3.34,5.15-.28.63.52,1.88.4,2.28-.44.86-1.71,1.21-2,1.83-1.33,2.58-1,4.52-1,7.27,0,.74-.19,2.62.16,3.08,1.29,2.23,1.38.91,3.56-.24,7.06-3.95,7.83-8.58,9.58-14.59,2.5-8.23,2.89-12.58-1.53-19.66-3-4.33-4.73-10.67-10.4-13.18-2.83-1.25-18.55-2.47-19.36,2" transform="translate(6.28)"/><path class="cls-11" d="M19.84,123.88c.43,1.09,2.62,2.18,2.62,3.27-.22.87-2.4,1.53-2.84,2.4-.87,2-.44,3.27.87,4.8,2.18,2.84,6.11,2.4,7.42,6.11.66,2.18-.22,4.15-.87,6.11-.88,2.18.87,2-1.53,3.06-2.4.87-5.45-1.75-7.64-.88-2.4.88-1.52,2-1.09,4.15.88,3.93,1.75,2.62-1.09,5.89-1.31,1.53-2.18,3.93-3.93,4.58-2.18.88-2.4-.87-4.14-.87-3.93.22-5.89,5.46-10,2.18-6.77-5.45-3.27-23.34.22-29.67,3.27-5.68,11.78-8.95,17.67-10.92,1.53-.43,5.24-2.18,4.8.66" transform="translate(6.28)"/></g><path class="cls-11" d="M45,144.35c3.92,2.78,12.27.16,15.05-3.77,3.28-4.58-7-7-9.49-9.32S46,128,45,132.57c-.33,1.3.49,3.76-.17,4.91-.82,1.47-2.29.81-3.6,1.79-3.27,2.46,1,4.92,3.6,5.24" transform="translate(6.28)"/><path class="cls-16" d="M64.42,154.37a31.59,31.59,0,1,1-31.59-31.59A31.59,31.59,0,0,1,64.42,154.37Z" transform="translate(6.28)"/></g></g></svg>