<svg xmlns="http://www.w3.org/2000/svg" xmlns:xlink="http://www.w3.org/1999/xlink" viewBox="0 0 714.91 600.28"><defs><style>.cls-1,.cls-4{fill:#3c8d84;}.cls-2{fill:#5e5153;}.cls-3{fill:#4f371d;}.cls-10,.cls-11,.cls-18,.cls-19,.cls-24,.cls-28,.cls-3,.cls-9{stroke:#ec6a7c;}.cls-10,.cls-11,.cls-18,.cls-19,.cls-23,.cls-24,.cls-27,.cls-28,.cls-3,.cls-31,.cls-32,.cls-4,.cls-5,.cls-6,.cls-7,.cls-9{stroke-miterlimit:10;}.cls-28,.cls-3{stroke-width:2.41px;}.cls-31,.cls-32,.cls-4,.cls-5,.cls-6,.cls-7{stroke:#fff;}.cls-4{stroke-width:0.18px;}.cls-5{fill:#d67243;stroke-width:0.2px;}.cls-6{fill:#2e6285;stroke-width:0.2px;}.cls-7{fill:#ce6a7c;stroke-width:0.16px;}.cls-8{opacity:0.3;}.cls-10,.cls-11,.cls-18,.cls-23,.cls-27,.cls-32,.cls-9{fill:none;}.cls-10,.cls-11,.cls-32,.cls-9{stroke-width:0.3px;}.cls-10{stroke-dasharray:12 6.67 12 6.67;}.cls-11{stroke-dasharray:12 6.67 12 6.67 12 6.67;}.cls-12,.cls-29{font-size:36.13px;font-family:Acre-Bold, Acre;font-weight:700;}.cls-12,.cls-17,.cls-31{fill:#fff;}.cls-13{letter-spacing:-0.02em;}.cls-14{letter-spacing:-0.01em;}.cls-15{font-size:30.11px;}.cls-15,.cls-20{font-family:Acre-Thin, Acre;font-weight:200;}.cls-16{letter-spacing:-0.02em;}.cls-17{font-size:23.98px;font-family:Acre-Light, Acre;font-weight:300;}.cls-18{stroke-width:0.44px;}.cls-19,.cls-29{fill:#5b5052;}.cls-19{stroke-width:2.34px;}.cls-21{letter-spacing:-0.02em;}.cls-22{letter-spacing:-0.02em;}.cls-23,.cls-27{stroke:#d5d5d6;}.cls-23{stroke-linecap:round;stroke-width:0.65px;}.cls-24{fill:#2e61a2;stroke-width:2.4px;}.cls-25{letter-spacing:-0.01em;}.cls-26{letter-spacing:-0.01em;}.cls-27{stroke-width:0.6px;}.cls-28{fill:url(#linear-gradient);}.cls-30{letter-spacing:-0.01em;}.cls-31{stroke-width:0.15px;}</style><linearGradient id="linear-gradient" x1="180.71" y1="239.14" x2="400.61" y2="28.1" gradientTransform="translate(368.44 471.56) rotate(-180)" gradientUnits="userSpaceOnUse"><stop offset="0.04" stop-color="#fff"/><stop offset="0.52" stop-color="#8eaec6"/><stop offset="0.92" stop-color="#336d99"/></linearGradient></defs><g id="Layer_2" data-name="Layer 2"><g id="Layer_31" data-name="Layer 31"><path class="cls-1" d="M684.94,78.77c10.3-18.69-.16-37-.16-37,1.9,8.49-13.3,37-13.3,37C656.28,63.47,675.91,35,675.91,35c-17.1,11.89-24.7,45.87-24.7,45.87-3.8-19.54,24.7-70.51,24.7-70.51C649.6,37.65,640.05,72.1,639.07,75.86c9.76-36.33-1.16-60.39-1.16-60.39,5.7,30.59-13.3,70.52-13.3,70.52-10.13-13.17,7.6-54.37,7.6-54.37-18.37,22.93-20.49,45.87-20.49,45.87a77.86,77.86,0,0,0-9.58-46.14,79.26,79.26,0,0,1,4.68-6.51s-2.2,1.89-5.45,5.18a60,60,0,0,0-7.79-10.72,125.94,125.94,0,0,1,5.2,13.41c-1.58,1.69-3.3,3.61-5.07,5.72.67-1.37,1.13-2.14,1.13-2.14-3.87,3.19-7.25,8.41-10.12,14.29-6.2,9.69-11.2,21.15-10.9,32.67-.34,1.46-.51,2.32-.51,2.32-1.33-9-.65-20,1-31.07a54.38,54.38,0,0,1,4.12-7.77,45.72,45.72,0,0,0-3.57,4.15,343.38,343.38,0,0,1,11.8-47.72A208.69,208.69,0,0,0,569.82,43a127,127,0,0,0-10.17,9.72,100.94,100.94,0,0,0-13.08-32.58c10,33.55-2.72,48-2.72,48a61.46,61.46,0,0,0-.94-39.08,57.89,57.89,0,0,1-3.13,31.65c.15-14.2-1.16-31.6-6.32-48.38,0,0,.06,2,0,5.38a106.93,106.93,0,0,0-5.76-14.56c11.4,39.5-12,71.36-12,71.36-.3-1.13-.59-2.22-.89-3.29,2.15-10.18,2.59-21.74-3.74-28.52a66.37,66.37,0,0,1-1.71,11.9,109,109,0,0,0-6.41-13.87c1.62-4.69,3.55-9.71,5.88-15.07a71.15,71.15,0,0,0-9.75,8.86c-4.71-6.68-8.08-8.44-8.08-8.44a57.75,57.75,0,0,1,6.58,10.09A100.18,100.18,0,0,0,474.9,79.06s5.78-22.68-8.68-48.81c0,0,7,43.7-10.49,54.31,0,0-9-42.73,9.32-71.16,0,0-22.43,21-23.61,58.26.16-4,.85-39.34-21.85-71.27,0,0,16.5,54.55,5.15,73.12,10.29-34.53-16-59.74-16-59.74,23.44,45-1.73,65-1.73,65,10.29-18.69-.17-37-.17-37,1.9,8.49-13.3,37-13.3,37C378.34,63.47,398,35,398,35c-17.1,11.89-24.7,45.87-24.7,45.87C369.48,61.35,398,10.38,398,10.38c-26.31,27.27-35.86,61.72-36.85,65.48C370.9,39.53,360,15.47,360,15.47c5.7,30.59-13.3,70.52-13.3,70.52-10.14-13.17,7.6-54.37,7.6-54.37-18.37,22.93-20.49,45.87-20.49,45.87a78.32,78.32,0,0,0-1.29-24.14,81.19,81.19,0,0,1,14.74-28.91,134.15,134.15,0,0,0-17.5,19.13c-5.48-15.5-14.09-24.27-14.09-24.27,5.59,12.35,8.23,22.8,9.15,31.44-4.86,7.68-8.92,16.44-10.18,25.46a37.49,37.49,0,0,1-3.31-10.43,50,50,0,0,1,7.49-19.44,55.67,55.67,0,0,0-7.93,10.59A49.71,49.71,0,0,1,315,40.14c.8-1.06,1.64-2.13,2.53-3.23,0,0-.56.38-1.53,1.11.56-1.12.93-1.73.93-1.73a26,26,0,0,0-3.83,4A126.82,126.82,0,0,0,296,56.92c3.49-26.41,12.7-53.76,12.7-53.76C293.23,30.56,286.41,61.89,284.21,74l-.59,1.14a91.34,91.34,0,0,0-3.86-30.1A147.54,147.54,0,0,0,273.88,12s.21,6.93-.47,16.75a75.94,75.94,0,0,0-4.77-8.55,88.57,88.57,0,0,1,3.69,19.69,131.52,131.52,0,0,1-6,26.76A61.51,61.51,0,0,0,265,29.07a59.25,59.25,0,0,1-10.59,45.29l.3-1.21c15.7-29.56-4.91-70-4.91-70,11.4,39.5-12,71.36-12,71.36-.47-1.81-1-3.53-1.43-5.21,1.31-10.31,4.7-25.11,12.92-44,0,0-10.71,7.54-20.6,22.72-8.18-18-15.58-21.9-15.58-21.9,6.17,7.49,10.2,16.81,12.81,26.42a99.78,99.78,0,0,0-10.54,26.16S221.1,56,206.64,29.86c0,0,7,43.7-10.49,54.31,0,0-9-42.73,9.32-71.17,0,0-22.42,21-23.61,58.26.16-4,.85-39.33-21.85-71.26,0,0,16.5,54.54,5.15,73.12,10.29-34.53-16-59.74-16-59.74,23.44,45-1.73,65-1.73,65,10.29-18.69-.17-37-.17-37,1.9,8.49-13.3,37-13.3,37-15.2-15.29,4.44-43.75,4.44-43.75C121.3,46.51,113.7,80.5,113.7,80.5,109.9,61,138.4,10,138.4,10c-26.31,27.28-35.86,61.73-36.85,65.49,9.77-36.33-1.15-60.39-1.15-60.39C106.1,45.66,87.1,85.6,87.1,85.6,77,72.43,94.7,31.22,94.7,31.22,76.33,54.16,74.21,77.1,74.21,77.1,77.79,41,56.07,18.9,56.07,18.9,75.7,62.23,59,82.28,59,82.28,42.52,60.19,57.33,35.9,57.33,35.9,43.4,47.36,35.8,85.17,35.8,85.17,31.37,55.44,49.1,2.76,49.1,2.76c-19.63,34.83-25.33,76-25.33,76,3.16-32.71-14.71-59-14.71-59,10,33.56-2.73,48-2.73,48A61.5,61.5,0,0,0,5.4,28.67,57.76,57.76,0,0,1,3,58.41v47.52H229.56l-.05.39H690.88V76.25A46.29,46.29,0,0,1,684.94,78.77ZM495.51,86.84s-2.61-14.57,6-41.68a106.81,106.81,0,0,1,4.94,19.76A96,96,0,0,1,495.51,86.84Zm12.73,4.63-.06,0s0-.06.06-.15Zm53-12.28a83.35,83.35,0,0,0,.23-12.69,55.21,55.21,0,0,1,5.77-14.82A236.87,236.87,0,0,0,561.28,79.19Zm35.22,3.48a38.3,38.3,0,0,1-7.09-16,86.34,86.34,0,0,1,10.22-31.21C609,67.63,596.5,82.67,596.5,82.67Z"/><path class="cls-2" d="M689.41,600.12l1.5-500.8C641,105.81,589,91.26,539.07,97.76c-51.47,6.7-104.26-.14-156,1.11-47.13,1.14-88.52.54-135.54-3.33-81.19-6.68-162.91,4.9-244.15-.94L2.69,204.84,1.39,424.61.66,546.85Q.51,573.58,0,600.28"/><g id="Layer_30" data-name="Layer 30"><rect class="cls-3" x="536.45" y="354.84" width="120.58" height="224.15"/><path class="cls-4" d="M590.87,552.17a2.26,2.26,0,0,0-1.81,2.28,2.29,2.29,0,0,0,.67,1.63,2.18,2.18,0,0,0,1.55.65,2.2,2.2,0,0,0,.36,0,2.25,2.25,0,0,0,1.81-2.27,2.29,2.29,0,0,0-.67-1.63,2.08,2.08,0,0,0-1.54-.65A2.22,2.22,0,0,0,590.87,552.17Z"/><path class="cls-4" d="M595.18,548.26a2.71,2.71,0,0,0-3,.65,2.36,2.36,0,0,0-.7,1.62,1.71,1.71,0,0,0,.68,1.39,1.53,1.53,0,0,0,.3.19,2.67,2.67,0,0,0,3-.64,2.33,2.33,0,0,0,.71-1.62,1.7,1.7,0,0,0-.68-1.39A2,2,0,0,0,595.18,548.26Z"/><path class="cls-4" d="M598.76,544.5a2.68,2.68,0,0,0-3,.89,2.37,2.37,0,0,0-.54,1.67,1.8,1.8,0,0,0,.82,1.34,1.91,1.91,0,0,0,.32.16,2.66,2.66,0,0,0,3-.88,2.33,2.33,0,0,0,.54-1.67,1.79,1.79,0,0,0-.82-1.34Z"/><path class="cls-4" d="M599.47,539.53a2.44,2.44,0,0,0-2.37,1.83,2.27,2.27,0,0,0,.21,1.72,2,2,0,0,0,1.33,1,2.2,2.2,0,0,0,.37.05,2.43,2.43,0,0,0,2.36-1.82,2.21,2.21,0,0,0-.21-1.73,2,2,0,0,0-1.32-1A2.35,2.35,0,0,0,599.47,539.53Z"/><path class="cls-5" d="M581.68,542.43a8.34,8.34,0,0,1,3.89,3.12C589,550.55,584,554,584,554s-4.5,3.28-7.67-.91-.28-6.84.36-7.43c0,0,3.06-2.71,6.4.73,0,0,2.84,3.42-.36,6,0,0-2.76,2.18-4.69-.53a2.28,2.28,0,0,1-.37-2.17s.36-.62.53.13a2,2,0,0,0,2.47,1.9,2.23,2.23,0,0,0,1.57-3.36s-1.19-2.81-3.79-1.65a3.08,3.08,0,0,0-1.59,3.78,3.73,3.73,0,0,0,4.37,2.75s2.93-.19,3.5-3.85a5.31,5.31,0,0,0-3.66-5.52,12.1,12.1,0,0,0-3.59-1.15s-1.73-.36-1.12-.74a9.86,9.86,0,0,1,4,0Z"/><path class="cls-6" d="M568.1,545.13s.54-2.6-1.16-2.82c-1.29-.17-1.81,2.69-1.81,2.69a2.85,2.85,0,0,1-3.11,2.19s-2.29-.73-2,1.21,1.56,1.82,1.56,1.82,1.23-.17.72,1.37c0,0-1.1,2.46.9,3.35a1.85,1.85,0,0,0,2.09-1s.88-1.46,2.38,0a1,1,0,0,0,1.4.21s1.32-.48.25-2.14c-1.28-2,.53-2.29.53-2.29s1.44-.5,1.37-1.58A1.93,1.93,0,0,0,570,547a7.77,7.77,0,0,0-1.32-.4S567.64,546.59,568.1,545.13Zm-.72,4.15a1.22,1.22,0,0,1-1.31,1.1,1.09,1.09,0,1,1-.06-2.12A1.22,1.22,0,0,1,567.38,549.28Z"/><path class="cls-7" d="M553.18,543.23l-.14-.43a2.62,2.62,0,1,0-5.07,1.29,31.66,31.66,0,0,0,5.49,10.67h0l.2.22a2.62,2.62,0,1,0,3.7-3.72,16.82,16.82,0,0,1-3.34-5.64Z"/><g class="cls-8"><line class="cls-9" x1="638.83" y1="357.5" x2="638.83" y2="362.92"/><line class="cls-10" x1="638.83" y1="369.58" x2="638.83" y2="403.59"/><line class="cls-11" x1="638.83" y1="406.93" x2="638.83" y2="571.62"/><line class="cls-9" x1="638.83" y1="574.96" x2="638.83" y2="580.38"/></g><text class="cls-12" transform="translate(556.6 473.27)"><tspan class="cls-13">1</tspan><tspan class="cls-14" x="12.68" y="0">-</tspan><tspan x="26.66" y="0">10%</tspan><tspan class="cls-15"><tspan x="-9.43" y="36.13">o</tspan><tspan class="cls-16" x="8.82" y="36.13">r</tspan><tspan x="16.94" y="36.13">ganic</tspan></tspan></text><text class="cls-17" transform="translate(606.99 557.48)">.05%</text><polygon class="cls-18" points="618.91 415.9 611.31 416.09 607.34 409.6 610.97 402.92 618.58 402.73 622.55 409.22 618.91 415.9"/><line class="cls-18" x1="607.34" y1="409.6" x2="601.97" y2="409.74"/><line class="cls-18" x1="608.83" y1="420.85" x2="611.31" y2="416.09"/><line class="cls-18" x1="618.91" y1="415.9" x2="621.75" y2="420.45"/><line class="cls-18" x1="610.97" y1="402.92" x2="608.13" y2="398.37"/><line class="cls-18" x1="627.91" y1="409.08" x2="622.55" y2="409.22"/><line class="cls-18" x1="621.56" y1="398.44" x2="618.8" y2="403.04"/><polygon class="cls-18" points="593.78 420.18 587.81 415.46 588.92 407.93 595.99 405.13 601.96 409.85 600.85 417.38 593.78 420.18"/><line class="cls-18" x1="588.92" y1="407.93" x2="584.71" y2="404.6"/><line class="cls-18" x1="582.86" y1="417.53" x2="587.81" y2="415.46"/><line class="cls-18" x1="593.78" y1="420.18" x2="593.05" y2="425.5"/><line class="cls-18" x1="595.99" y1="405.13" x2="596.72" y2="399.82"/><line class="cls-18" x1="605.06" y1="420.71" x2="600.85" y2="417.38"/><polygon class="cls-18" points="571.69 404.65 571.8 397.05 578.45 393.34 584.98 397.25 584.86 404.85 578.22 408.56 571.69 404.65"/><line class="cls-18" x1="578.45" y1="393.34" x2="578.53" y2="387.98"/><line class="cls-18" x1="567.15" y1="394.37" x2="571.8" y2="397.04"/><line class="cls-18" x1="571.69" y1="404.65" x2="567.03" y2="407.3"/><line class="cls-18" x1="584.98" y1="397.25" x2="589.64" y2="394.59"/><line class="cls-18" x1="578.14" y1="413.92" x2="578.22" y2="408.56"/></g><g id="Layer_29" data-name="Layer 29"><rect class="cls-19" x="30.47" y="353.97" width="489.94" height="223.51"/><text class="cls-12" transform="translate(221.71 455.25)">40-49%<tspan class="cls-20"><tspan x="-2.08" y="43.35">mi</tspan><tspan class="cls-21" x="37.7" y="43.35">n</tspan><tspan x="57.54" y="43.35">e</tspan><tspan class="cls-22" x="78.02" y="43.35">r</tspan><tspan x="87.77" y="43.35">al</tspan></tspan></text><polygon class="cls-23" points="155.78 484.39 131.43 452.25 112.43 452.5 91.01 446.41 68.85 467.59 60.57 470.03 58.86 479.52 45.47 502.17 57.4 522.38 57.65 542.35 88.81 562.56 118.52 564.51 146.53 544.05 164.79 509.96 155.78 484.39"/><line class="cls-23" x1="155.71" y1="484.53" x2="89.55" y2="562.41"/><line class="cls-23" x1="61.78" y1="513.37" x2="88.81" y2="562.56"/><line class="cls-23" x1="157" y1="523.36" x2="123.64" y2="522.38"/><line class="cls-23" x1="123.29" y1="522.29" x2="61.78" y2="513.37"/><line class="cls-23" x1="123.64" y1="522.38" x2="93.51" y2="496.65"/><line class="cls-23" x1="93.54" y1="496.56" x2="61.78" y2="513.37"/><line class="cls-23" x1="104.34" y1="464.02" x2="93.54" y2="496.56"/><line class="cls-23" x1="104.34" y1="464.02" x2="62.39" y2="512.78"/><line class="cls-23" x1="60.57" y1="470.03" x2="61.78" y2="513.37"/><line class="cls-23" x1="104.34" y1="464.02" x2="60.57" y2="470.03"/><line class="cls-23" x1="104.34" y1="464.02" x2="91.01" y2="446.41"/><line class="cls-23" x1="104.42" y1="463.83" x2="112.07" y2="452.38"/><line class="cls-23" x1="104.34" y1="464.02" x2="131.15" y2="452.46"/><line class="cls-23" x1="155.78" y1="484.39" x2="104.23" y2="464.16"/><line class="cls-23" x1="136.59" y1="483.37" x2="104.34" y2="464.32"/><line class="cls-23" x1="155.54" y1="484.41" x2="136.59" y2="483.37"/><line class="cls-23" x1="136.83" y1="483.55" x2="123.64" y2="522.38"/><line class="cls-23" x1="155.78" y1="484.39" x2="157" y2="523.36"/><line class="cls-23" x1="123.41" y1="522.24" x2="146.59" y2="544.3"/><line class="cls-23" x1="62.17" y1="513.52" x2="89.45" y2="537.82"/><line class="cls-23" x1="123.31" y1="522.37" x2="89.45" y2="537.82"/><line class="cls-23" x1="123.69" y1="522.19" x2="126.82" y2="558.18"/><line class="cls-23" x1="89.43" y1="537.87" x2="89.07" y2="562.1"/><line class="cls-23" x1="62.08" y1="513.67" x2="57.4" y2="522.38"/><line class="cls-23" x1="61.77" y1="513.41" x2="45.47" y2="502.17"/></g><g id="Layer_28" data-name="Layer 28"><rect class="cls-24" x="353.45" y="138.47" width="303.99" height="194.87"/><text class="cls-12" transform="translate(472.97 226.02)"><tspan class="cls-25">2</tspan><tspan x="19.8" y="0">5%</tspan><tspan class="cls-20"><tspan class="cls-26" x="-12.19" y="43.35">w</tspan><tspan x="15.34" y="43.35">a</tspan><tspan class="cls-21" x="37.63" y="43.35">t</tspan><tspan x="46.3" y="43.35">er</tspan></tspan></text><path class="cls-27" d="M388.51,181.06a91.72,91.72,0,0,0,12,6.59,112.74,112.74,0,0,0,14.33,6.07,66.45,66.45,0,0,0,39,.71c8.83-2.42,17.23-6.11,26-8.85l.26-.08c14.78-4.59,30.67-6.25,45.84-3.2,19.49,3.93,37.53,16.44,57.67,16.9a76.63,76.63,0,0,0,40.84-10.86q3.09-1.84,6-4c1.63-1.21,4-2.61,5.12-4.34a3.94,3.94,0,0,0,.58-1.79,2.64,2.64,0,0,0-2.34-2.85c-2.49,0-5.31,3.52-7.16,4.92a65.34,65.34,0,0,1-8.08,5.2A63.66,63.66,0,0,1,569,190.3c-10-3.12-19.48-7.62-29.36-11.06A96.86,96.86,0,0,0,528.36,176c-16.83-3.64-34.46-1.28-51,3.53-5.73,1.67-11.4,3.56-17.14,5.24-8.68,2.54-17.68,4.4-26.76,4.29a52.47,52.47,0,0,1-24.87-6.69c-3.75-2-7.4-4.25-11.17-6.25-3-1.59-7.37-4.16-10.82-2.6-3.27,1.49-1.1,5.34.93,6.85C387.85,180.6,388.18,180.83,388.51,181.06Z"/><path class="cls-27" d="M389.29,285.52a91.72,91.72,0,0,0,12,6.59,112.74,112.74,0,0,0,14.33,6.07,66.45,66.45,0,0,0,39,.71c8.83-2.42,17.23-6.11,25.95-8.85l.26-.08c14.78-4.59,30.66-6.25,45.83-3.2,19.5,3.93,37.54,16.44,57.68,16.9a76.63,76.63,0,0,0,40.84-10.86c2.06-1.24,4.05-2.56,6-4,1.64-1.21,4-2.61,5.13-4.34a3.94,3.94,0,0,0,.58-1.79,2.65,2.65,0,0,0-2.34-2.85c-2.49,0-5.31,3.52-7.17,4.92a63.7,63.7,0,0,1-57.53,10c-10-3.12-19.48-7.62-29.36-11.06a96.86,96.86,0,0,0-11.32-3.26c-16.83-3.64-34.47-1.28-51,3.53-5.73,1.67-11.4,3.56-17.14,5.24-8.68,2.54-17.68,4.4-26.76,4.29a52.47,52.47,0,0,1-24.87-6.69c-3.75-2-7.4-4.25-11.17-6.25-3-1.59-7.38-4.16-10.83-2.6-3.26,1.49-1.09,5.34.94,6.85C388.63,285.06,389,285.29,389.29,285.52Z"/><path class="cls-27" d="M386.32,237.28a92.9,92.9,0,0,0,12,6.59,112.74,112.74,0,0,0,14.33,6.07,66.37,66.37,0,0,0,39,.7c8.83-2.41,17.23-6.11,26-8.84l.26-.08c14.78-4.59,30.66-6.26,45.83-3.2,19.5,3.93,37.54,16.44,57.68,16.9a76.46,76.46,0,0,0,40.84-10.87q3.09-1.85,6-4c1.64-1.21,4-2.61,5.13-4.34a3.94,3.94,0,0,0,.58-1.79,2.64,2.64,0,0,0-2.34-2.85c-2.49,0-5.31,3.52-7.17,4.92a63.7,63.7,0,0,1-57.53,10c-10-3.12-19.48-7.63-29.36-11.06a96.86,96.86,0,0,0-11.32-3.26c-16.83-3.64-34.47-1.28-51,3.53-5.73,1.67-11.4,3.56-17.14,5.24-8.68,2.54-17.68,4.4-26.76,4.28a52.57,52.57,0,0,1-24.87-6.68c-3.75-2-7.4-4.25-11.17-6.25-3-1.59-7.38-4.16-10.83-2.6-3.26,1.48-1.09,5.34.94,6.85Z"/></g><g id="Layer_27" data-name="Layer 27"><rect class="cls-28" x="32.21" y="138.53" width="304.02" height="194.49" transform="translate(368.44 471.56) rotate(180)"/><text class="cls-29" transform="translate(154.39 227.17)"><tspan class="cls-30">2</tspan><tspan x="19.8" y="0">5%</tspan><tspan class="cls-20"><tspan x="11.89" y="43.35">air</tspan></tspan></text><path class="cls-31" d="M312.87,212.62a18.76,18.76,0,0,1,3.07,20.8A18.72,18.72,0,0,1,297.59,244a18.76,18.76,0,0,1-17.28-20.13,18.53,18.53,0,0,1,6.34-12.63A18.89,18.89,0,0,1,300,206.55,18.62,18.62,0,0,1,312.87,212.62Zm-.82.72A17.74,17.74,0,0,0,293,208a17.71,17.71,0,0,0-7.44,28.72,17.67,17.67,0,0,0,12.15,5.72A17.41,17.41,0,0,0,310.22,238a17.86,17.86,0,0,0,5.95-11.88A17.56,17.56,0,0,0,312.05,213.34Z"/><path class="cls-31" d="M290.51,215.6A16.39,16.39,0,0,1,305.38,212a14.55,14.55,0,0,0-20.3,17.87A16.37,16.37,0,0,1,290.51,215.6Z"/><circle class="cls-32" cx="318.18" cy="216.35" r="9.1"/><path class="cls-32" d="M314,211.65a8.17,8.17,0,0,1,7.43-1.79,7.28,7.28,0,0,0-10.15,8.93A8.18,8.18,0,0,1,314,211.65Z"/><path class="cls-31" d="M290.51,183a9.92,9.92,0,0,1,2.64,7,9.8,9.8,0,0,1-.91,3.78,10.1,10.1,0,0,1-2.36,3.11,10,10,0,0,1-7.24,2.34,9.78,9.78,0,0,1-6.62-3.48,9.63,9.63,0,0,1-2.15-7,9.38,9.38,0,0,1,3.26-6.37,9.85,9.85,0,0,1,6.73-2.41A9.47,9.47,0,0,1,290.51,183Zm-.52.8A8.82,8.82,0,0,0,280.5,181a9.2,9.2,0,0,0-3.08,1.77,9.05,9.05,0,0,0-2.94,6.26,8.8,8.8,0,0,0,2.4,6.34,8.68,8.68,0,0,0,6,2.71,8.44,8.44,0,0,0,6.06-2.2,8.85,8.85,0,0,0,2.93-5.74A8.49,8.49,0,0,0,290,183.83Z"/><path class="cls-31" d="M279.13,184.71a8.17,8.17,0,0,1,7.43-1.79,7.28,7.28,0,0,0-10.15,8.93A8.18,8.18,0,0,1,279.13,184.71Z"/><path class="cls-31" d="M318,179.39a7.2,7.2,0,0,1,2,5,6.79,6.79,0,0,1-2.34,5,7.07,7.07,0,0,1-5.25,1.67,7,7,0,0,1-4.71-2.56,6.83,6.83,0,0,1-1.47-5,6.75,6.75,0,0,1,2.33-4.47,7.07,7.07,0,0,1,4.73-1.72A6.66,6.66,0,0,1,318,179.39Zm.13,1a6.7,6.7,0,0,0-4.35-2.42,6.24,6.24,0,0,0-4.87,1.55,6.4,6.4,0,0,0-.31,9.26,6.26,6.26,0,0,0,4.38,1.88,6.16,6.16,0,0,0,4.31-1.61,6.57,6.57,0,0,0,2.13-4.08A6.11,6.11,0,0,0,318.1,180.36Z"/><path class="cls-31" d="M309.91,180.67a5.74,5.74,0,0,1,5.18-1.25,5.08,5.08,0,0,0-7.07,6.23A5.69,5.69,0,0,1,309.91,180.67Z"/><circle class="cls-32" cx="293.46" cy="239.47" r="6.34" transform="translate(35.81 517.11) rotate(-86.35)"/><path class="cls-32" d="M290.57,236.19a5.7,5.7,0,0,1,5.18-1.24,5.07,5.07,0,0,0-7.07,6.22A5.71,5.71,0,0,1,290.57,236.19Z"/><path class="cls-32" d="M319.49,149.61a4.66,4.66,0,1,1-6.58-.42A4.65,4.65,0,0,1,319.49,149.61Z"/><path class="cls-32" d="M313.87,150.28a4.21,4.21,0,0,1,3.8-.92,3.73,3.73,0,0,0-5.19,4.57A4.18,4.18,0,0,1,313.87,150.28Z"/><path class="cls-31" d="M298.84,158.52a7.12,7.12,0,0,1,2,5,6.78,6.78,0,0,1-2.33,5,7.07,7.07,0,0,1-5.25,1.67,7,7,0,0,1-4.72-2.56,6.86,6.86,0,0,1,.86-9.45,7.1,7.1,0,0,1,4.74-1.72A6.63,6.63,0,0,1,298.84,158.52Zm-.14.89a6.43,6.43,0,0,0-4.24-2.35,6.09,6.09,0,0,0-4.76,1.5,6.36,6.36,0,0,0-2.08,4.53,6.28,6.28,0,0,0,1.78,4.49,6.15,6.15,0,0,0,4.28,1.84,6.08,6.08,0,0,0,4.21-1.57,6.42,6.42,0,0,0,2.07-4A5.93,5.93,0,0,0,298.7,159.41Z"/><path class="cls-31" d="M290.78,159.79a5.74,5.74,0,0,1,5.18-1.25,5.07,5.07,0,0,0-7.07,6.23A5.69,5.69,0,0,1,290.78,159.79Z"/></g></g></g></svg>