<svg xmlns="http://www.w3.org/2000/svg" viewBox="0 0 943 485.26"><defs><style>.cls-1{fill:#f27243;}.cls-12,.cls-18,.cls-2,.cls-27,.cls-28,.cls-30,.cls-36,.cls-38,.cls-39,.cls-40,.cls-41,.cls-42,.cls-7,.cls-9{fill:none;}.cls-12,.cls-2,.cls-26,.cls-27,.cls-38,.cls-39,.cls-40,.cls-7{stroke:#5c5052;}.cls-10,.cls-11,.cls-12,.cls-13,.cls-14,.cls-15,.cls-16,.cls-18,.cls-19,.cls-2,.cls-20,.cls-21,.cls-3,.cls-30,.cls-33,.cls-34,.cls-35,.cls-37,.cls-38,.cls-39,.cls-40,.cls-42,.cls-5,.cls-7,.cls-9{stroke-miterlimit:10;}.cls-2{stroke-width:0.33px;}.cls-16,.cls-17,.cls-29,.cls-3,.cls-32,.cls-33,.cls-34,.cls-35{fill:#2b63a3;}.cls-3,.cls-35,.cls-37{stroke:#fff;}.cls-3{stroke-width:0.13px;}.cls-15,.cls-4{fill:#5b5052;}.cls-11,.cls-13,.cls-31,.cls-5{fill:#2e61a2;}.cls-11,.cls-13,.cls-5{stroke:#fecf08;}.cls-5{stroke-width:0.29px;}.cls-20,.cls-21,.cls-26,.cls-6{fill:#fff;}.cls-7{stroke-width:0.28px;}.cls-8{fill:#ffce01;}.cls-9{stroke:#ffce01;stroke-width:1.97px;}.cls-10,.cls-14,.cls-19{fill:#ec6a7c;}.cls-10,.cls-14{stroke:#3caba2;}.cls-10,.cls-11{stroke-width:0.25px;}.cls-12{stroke-width:0.33px;}.cls-13{stroke-width:0.41px;}.cls-14{stroke-width:0.29px;}.cls-15{stroke:#5b5052;stroke-width:0.28px;}.cls-16,.cls-18,.cls-28,.cls-29,.cls-33,.cls-34,.cls-36,.cls-41,.cls-42{stroke:#2b63a3;}.cls-16{stroke-width:0.71px;}.cls-16,.cls-17,.cls-23,.cls-29,.cls-33,.cls-34,.cls-37{opacity:0.17;}.cls-18{stroke-width:0.97px;}.cls-19{stroke:#f16667;stroke-width:0.81px;}.cls-20,.cls-21{stroke:#ec6a7c;}.cls-20{stroke-width:1.26px;}.cls-21{stroke-width:0.18px;}.cls-22,.cls-37{fill:#3daaa1;}.cls-24{fill:#5c5052;}.cls-25{opacity:0.91;}.cls-26,.cls-27,.cls-28,.cls-29,.cls-36,.cls-41{stroke-linecap:round;stroke-linejoin:round;}.cls-26,.cls-27{stroke-width:0.74px;}.cls-28{stroke-width:1.41px;}.cls-29{stroke-width:0.29px;}.cls-30{stroke:#2e61a2;stroke-width:0.97px;}.cls-33{stroke-width:1.51px;}.cls-34{stroke-width:1.17px;}.cls-35,.cls-37{stroke-width:0.65px;}.cls-36{stroke-width:0.86px;}.cls-38{stroke-width:0.68px;}.cls-39{stroke-width:0.68px;}.cls-40{stroke-width:0.4px;}.cls-41,.cls-42{stroke-width:2.34px;}.cls-43{fill:#5e5153;}</style></defs><g id="Layer_2" data-name="Layer 2"><g id="Layer_20" data-name="Layer 20"><path class="cls-1" d="M37.92,41.16A10.31,10.31,0,0,1,54.8,33.21v3a8.58,8.58,0,0,0-6.6-3,7.74,7.74,0,0,0-7.88,7.95,7.74,7.74,0,0,0,7.88,8,8.58,8.58,0,0,0,6.6-3v3a10.31,10.31,0,0,1-16.88-8Z"/><path class="cls-1" d="M78.48,31.17v20h-2.4V47a8.74,8.74,0,0,1-7.6,4.4c-5.56,0-9.44-4.6-9.44-10.24s3.88-10.27,9.44-10.27a8.7,8.7,0,0,1,7.6,4.44v-4.2Zm-2.4,10c0-4.27-3.08-8-7.36-8s-7.24,3.64-7.24,8,3,7.92,7.24,7.92S76.08,45.48,76.08,41.2Z"/><path class="cls-1" d="M93.28,30.85v2.72c-3.24-.24-5.76,2.48-5.76,6.6v11h-2.4v-20h2.4v3.68A6.55,6.55,0,0,1,93.28,30.85Z"/><path class="cls-1" d="M116.71,41.16c0,5.64-3.87,10.28-9.43,10.28A8.7,8.7,0,0,1,99.68,47v4.16h-2.4v-32h2.4V35.33a8.74,8.74,0,0,1,7.6-4.4C112.84,30.93,116.71,35.53,116.71,41.16Zm-2.43,0c0-4.35-3-7.91-7.24-7.91s-7.36,3.64-7.36,7.91,3.08,8,7.36,8S114.28,45.48,114.28,41.16Z"/><path class="cls-1" d="M120.56,41.12a10.12,10.12,0,1,1,20.23,0,10.12,10.12,0,1,1-20.23,0Zm17.84,0a7.7,7.7,0,1,0-15.4,0,7.7,7.7,0,1,0,15.4,0Z"/><path class="cls-1" d="M162.52,39.88V51.16h-2.36V40.32c0-4.79-2.36-7.27-5.84-7.27-3.08,0-5.56,2.12-5.88,6.28V51.16H146v-20h2.4v3.28a7.27,7.27,0,0,1,6.4-3.64C159,30.81,162.52,33.73,162.52,39.88Z"/><path class="cls-1" d="M168.84,25.49a1.67,1.67,0,0,1,1.68-1.72,1.71,1.71,0,0,1,1.72,1.72,1.67,1.67,0,0,1-1.72,1.68A1.64,1.64,0,0,1,168.84,25.49Zm.52,5.68h2.4v20h-2.4Z"/><path class="cls-1" d="M177.48,41.16a10.31,10.31,0,0,1,16.88-7.95v3a8.58,8.58,0,0,0-6.6-3,7.74,7.74,0,0,0-7.88,7.95,7.74,7.74,0,0,0,7.88,8,8.58,8.58,0,0,0,6.6-3v3a10.31,10.31,0,0,1-16.88-8Z"/><path class="cls-1" d="M231.83,31.17v20h-2.39V47a8.74,8.74,0,0,1-7.6,4.4c-5.56,0-9.44-4.6-9.44-10.24s3.88-10.27,9.44-10.27a8.7,8.7,0,0,1,7.6,4.44v-4.2Zm-2.39,10c0-4.27-3.08-8-7.36-8s-7.24,3.64-7.24,8,3,7.92,7.24,7.92S229.44,45.48,229.44,41.2Z"/><path class="cls-1" d="M237.08,41.16A10.31,10.31,0,0,1,254,33.21v3a8.58,8.58,0,0,0-6.6-3,7.74,7.74,0,0,0-7.88,7.95,7.74,7.74,0,0,0,7.88,8,8.58,8.58,0,0,0,6.6-3v3a10.31,10.31,0,0,1-16.88-8Z"/><path class="cls-1" d="M259.6,25.49a1.67,1.67,0,0,1,1.68-1.72A1.71,1.71,0,0,1,263,25.49a1.67,1.67,0,0,1-1.72,1.68A1.64,1.64,0,0,1,259.6,25.49Zm.52,5.68h2.4v20h-2.4Z"/><path class="cls-1" d="M287.67,19.17v32h-2.39V47a8.74,8.74,0,0,1-7.6,4.4c-5.56,0-9.44-4.6-9.44-10.24s3.88-10.27,9.44-10.27a8.7,8.7,0,0,1,7.6,4.44V19.17Zm-2.39,22c0-4.27-3.08-8-7.36-8s-7.24,3.64-7.24,8,3,7.92,7.24,7.92S285.28,45.48,285.28,41.2Z"/><path class="cls-1" d="M336.15,31.17,325.88,51.4h-1.33L320.36,43l-4.12,8.44h-1.36L304.64,31.17h2.6l8.4,16.75,3.52-7.32-4.64-9.43H317l3.36,7.16,3.35-7.16h2.52L321.6,40.6l3.6,7.32,8.35-16.75Z"/><path class="cls-1" d="M356.59,42H340.08a7.45,7.45,0,0,0,7.68,7.16,9.65,9.65,0,0,0,6.79-2.76v2.72a10.84,10.84,0,0,1-6.87,2.32c-6.28,0-10-4.72-10-10.28s3.92-10.23,9.64-10.23C353.23,30.93,356.71,36.13,356.59,42Zm-16.47-2.12H354c-.53-3.71-3-6.63-6.76-6.63C343.36,33.25,340.64,36.13,340.12,39.88Z"/><path class="cls-1" d="M379.67,31.17v20h-2.4V47a8.73,8.73,0,0,1-7.59,4.4c-5.56,0-9.44-4.6-9.44-10.24s3.88-10.27,9.44-10.27a8.68,8.68,0,0,1,7.59,4.44v-4.2Zm-2.4,10c0-4.27-3.08-8-7.35-8s-7.24,3.64-7.24,8,3,7.92,7.24,7.92S377.27,45.48,377.27,41.2Z"/><path class="cls-1" d="M393.4,33.49h-4.12V51.16h-2.4V33.49h-2.56V31.17h2.56V25.81h2.4v5.36h4.12Z"/><path class="cls-1" d="M413.91,39.88V51.16h-2.36V40.32c0-4.79-2.36-7.27-5.84-7.27-3.31,0-5.91,2.48-5.91,7.27V51.16h-2.4v-32h2.4V34.49a7.31,7.31,0,0,1,6.44-3.68C410.35,30.81,413.91,33.73,413.91,39.88Z"/><path class="cls-1" d="M437.19,42H420.68a7.45,7.45,0,0,0,7.68,7.16,9.65,9.65,0,0,0,6.79-2.76v2.72a10.84,10.84,0,0,1-6.87,2.32c-6.28,0-10-4.72-10-10.28s3.92-10.23,9.64-10.23C433.83,30.93,437.31,36.13,437.19,42Zm-16.47-2.12h13.91c-.52-3.71-3-6.63-6.75-6.63C424,33.25,421.24,36.13,420.72,39.88Z"/><path class="cls-1" d="M450.4,30.85v2.72c-3.24-.24-5.76,2.48-5.76,6.6v11h-2.4v-20h2.4v3.68A6.55,6.55,0,0,1,450.4,30.85Z"/><path class="cls-1" d="M454.4,25.49a1.67,1.67,0,0,1,1.68-1.72,1.7,1.7,0,0,1,1.71,1.72,1.67,1.67,0,0,1-1.71,1.68A1.64,1.64,0,0,1,454.4,25.49Zm.52,5.68h2.4v20h-2.4Z"/><path class="cls-1" d="M480.91,39.88V51.16h-2.36V40.32c0-4.79-2.36-7.27-5.84-7.27-3.08,0-5.55,2.12-5.88,6.28V51.16h-2.39v-20h2.39v3.28a7.28,7.28,0,0,1,6.4-3.64C477.35,30.81,480.91,33.73,480.91,39.88Z"/><path class="cls-1" d="M504.67,50.28c0,6.24-4.76,9.16-9.44,9.16a13.9,13.9,0,0,1-7.48-2.24l0-2.6A12.55,12.55,0,0,0,495,57.2c4.2,0,7.4-2.56,7.4-7.48v-2.8a8.77,8.77,0,0,1-7.68,4.52c-5.56,0-9.43-4.6-9.43-10.24s3.87-10.27,9.43-10.27a8.65,8.65,0,0,1,7.6,4.48V31.17h2.36Zm-2.4-9.08c0-4.27-3.08-8-7.36-8s-7.24,3.64-7.24,8,3,7.92,7.24,7.92S502.27,45.48,502.27,41.2Z"/><line class="cls-2" x1="692.95" y1="465.76" x2="701.47" y2="470.68"/><line class="cls-2" x1="665.31" y1="465.9" x2="656.8" y2="470.81"/><path class="cls-3" d="M754.64,38.33a6.1,6.1,0,0,1,6.3-6.3,6.38,6.38,0,0,1,2.77.59l0,2.8a4.24,4.24,0,0,0-2.72-.87,3.79,3.79,0,0,0,0,7.57,4.08,4.08,0,0,0,2.72-.88l0,2.83a6.68,6.68,0,0,1-2.77.57A6.11,6.11,0,0,1,754.64,38.33Z"/><path class="cls-3" d="M764.88,38.33a6.31,6.31,0,1,1,6.31,6.33A6.16,6.16,0,0,1,764.88,38.33Zm10,0a3.68,3.68,0,1,0-3.68,3.79A3.67,3.67,0,0,0,774.87,38.33Z"/><path class="cls-3" d="M778.92,49.68c.76-.86,1.54-1.78,2.29-2.66a2.72,2.72,0,0,0,.83-1.63.89.89,0,0,0-.92-.9,1.12,1.12,0,0,0-1,1.23l-1.4-.39A2.41,2.41,0,0,1,781.12,43a2.32,2.32,0,0,1,2.43,2.25,3.48,3.48,0,0,1-1.07,2.29c-.34.42-.69.85-1,1.26h2.16v1.45h-4.68Z"/><circle class="cls-4" cx="272.97" cy="433.96" r="14.27"/><circle class="cls-5" cx="245.31" cy="463.49" r="14.27"/><path class="cls-6" d="M267.1,434.05a5.38,5.38,0,1,1,5.37,5.39A5.24,5.24,0,0,1,267.1,434.05Zm8.51,0a3.14,3.14,0,1,0-3.14,3.23A3.12,3.12,0,0,0,275.61,434.05Z"/><path class="cls-6" d="M278.86,431.12h2.8v1.06h-2.8Z"/><path class="cls-6" d="M248.31,458V468.4h-2.19v-4.14h-4v4.14H240V458h2.18v4.14h4V458Z"/><path class="cls-6" d="M253,461.27h-1.18v1.2h-1v-1.2h-1.16v-.95h1.16v-1.17h1v1.17H253Z"/><circle class="cls-5" cx="300.48" cy="463.49" r="14.27"/><path class="cls-6" d="M303.48,458V468.4H301.3v-4.14h-4v4.14h-2.18V458h2.18v4.14h4V458Z"/><path class="cls-6" d="M308.12,461.27h-1.18v1.2h-1v-1.2H304.8v-.95H306v-1.17h1v1.17h1.18Z"/><line class="cls-7" x1="262.7" y1="444.22" x2="254.42" y2="452.51"/><line class="cls-7" x1="282.86" y1="444.22" x2="291.15" y2="452.51"/><path class="cls-8" d="M199.48,446.52h-4.86v4.93h-4v-4.93h-4.75v-3.9h4.75v-4.79h4v4.79h4.86Z"/><path class="cls-8" d="M771.7,447.5h-4.86v4.94h-4V447.5h-4.75v-3.9h4.75v-4.79h4v4.79h4.86Z"/><line class="cls-9" x1="354.29" y1="444.03" x2="385.7" y2="444.03"/><polygon class="cls-8" points="391.27 444.04 383.42 447.24 385.28 444.04 383.42 440.83 391.27 444.04"/><circle class="cls-10" cx="469.8" cy="451.1" r="20.37"/><path class="cls-6" d="M461.05,451.68a9.29,9.29,0,0,1,9.58-9.59,9.69,9.69,0,0,1,4.21.9l0,4.26a6.46,6.46,0,0,0-4.13-1.32,5.75,5.75,0,0,0,0,11.49,6.29,6.29,0,0,0,4.13-1.32l0,4.29a10.14,10.14,0,0,1-4.21.87A9.29,9.29,0,0,1,461.05,451.68Z"/><circle class="cls-10" cx="679.89" cy="450.96" r="20.37"/><path class="cls-6" d="M671.14,451.54a9.29,9.29,0,0,1,9.58-9.59,9.69,9.69,0,0,1,4.21.9l0,4.26a6.46,6.46,0,0,0-4.13-1.32,5.75,5.75,0,0,0,0,11.49A6.29,6.29,0,0,0,685,456l0,4.29a10.14,10.14,0,0,1-4.21.87A9.29,9.29,0,0,1,671.14,451.54Z"/><circle class="cls-4" cx="470.07" cy="411.75" r="8.94"/><path class="cls-6" d="M466.23,411.84a3.37,3.37,0,1,1,3.37,3.38A3.28,3.28,0,0,1,466.23,411.84Zm5.33,0a2,2,0,1,0-2,2A2,2,0,0,0,471.56,411.84Z"/><path class="cls-6" d="M473.6,410h1.75v.66H473.6Z"/><circle class="cls-4" cx="439.57" cy="476.32" r="8.94"/><path class="cls-6" d="M435.64,476.36a3.37,3.37,0,1,1,3.37,3.38A3.29,3.29,0,0,1,435.64,476.36Zm5.34,0a2,2,0,1,0-2,2A2,2,0,0,0,441,476.36Z"/><path class="cls-6" d="M443,474.53h1.76v.66H443Z"/><circle class="cls-4" cx="498.31" cy="476.32" r="8.94"/><path class="cls-6" d="M494.38,476.36a3.37,3.37,0,1,1,3.37,3.38A3.29,3.29,0,0,1,494.38,476.36Zm5.34,0a2,2,0,1,0-2,2A2,2,0,0,0,499.72,476.36Z"/><path class="cls-6" d="M501.75,474.53h1.76v.66h-1.76Z"/><line class="cls-2" x1="455.65" y1="466.75" x2="447.14" y2="471.66"/><line class="cls-2" x1="425.39" y1="467.93" x2="431.84" y2="471.66"/><line class="cls-2" x1="482.38" y1="466.29" x2="490.89" y2="471.2"/><circle class="cls-11" cx="418.54" cy="463.79" r="8.94"/><path class="cls-6" d="M421,462.32h.74v-.74h.62v.74h.72v.59h-.72v.76h-.62v-.76H421Z"/><path class="cls-6" d="M416.35,460.86v2.6h2.49v-2.6h1.37v6.52h-1.37v-2.6h-2.49v2.6H415v-6.52Z"/><line class="cls-2" x1="512.38" y1="467.93" x2="505.93" y2="471.66"/><circle class="cls-11" cx="521.2" cy="463.79" r="8.94"/><path class="cls-6" d="M524,462.32h.74v-.74h.61v.74h.73v.59h-.73v.76h-.61v-.76H524Z"/><path class="cls-6" d="M519.3,460.86v2.6h2.49v-2.6h1.36v6.52h-1.36v-2.6H519.3v2.6h-1.37v-6.52Z"/><line class="cls-12" x1="468.93" y1="430.72" x2="468.93" y2="420.71"/><line class="cls-12" x1="471.19" y1="430.72" x2="471.19" y2="420.71"/><line class="cls-12" x1="677.85" y1="430.52" x2="677.85" y2="420.51"/><line class="cls-12" x1="680.1" y1="430.52" x2="680.1" y2="420.51"/><circle class="cls-4" cx="678.98" cy="411.61" r="8.94"/><path class="cls-6" d="M675.14,411.71a3.37,3.37,0,1,1,3.37,3.37A3.29,3.29,0,0,1,675.14,411.71Zm5.33,0a2,2,0,1,0-2,2A2,2,0,0,0,680.47,411.71Z"/><path class="cls-6" d="M682.51,409.87h1.76v.66h-1.76Z"/><circle class="cls-4" cx="649.23" cy="475.47" r="8.94"/><path class="cls-6" d="M645.3,475.51a3.37,3.37,0,1,1,3.37,3.38A3.3,3.3,0,0,1,645.3,475.51Zm5.34,0a2,2,0,1,0-2,2A2,2,0,0,0,650.64,475.51Z"/><path class="cls-6" d="M652.67,473.68h1.76v.66h-1.76Z"/><circle class="cls-4" cx="707.23" cy="475.47" r="8.94"/><path class="cls-6" d="M703.3,475.51a3.37,3.37,0,1,1,3.37,3.38A3.29,3.29,0,0,1,703.3,475.51Zm5.33,0a2,2,0,1,0-2,2A2,2,0,0,0,708.63,475.51Z"/><path class="cls-6" d="M710.67,473.68h1.75v.66h-1.75Z"/><line class="cls-2" x1="635.05" y1="467.08" x2="641.5" y2="470.81"/><circle class="cls-11" cx="628.2" cy="462.94" r="8.94"/><path class="cls-6" d="M630.58,461h.74v-.74h.61V461h.73v.59h-.73v.75h-.61v-.75h-.74Z"/><path class="cls-6" d="M625.89,459.5v2.6h2.49v-2.6h1.36V466h-1.36v-2.6h-2.49V466h-1.37V459.5Z"/><circle class="cls-13" cx="855.62" cy="442.18" r="14.9"/><path class="cls-6" d="M860.74,440H862v-1.22h1V440h1.21v1H863v1.26h-1V441h-1.24Z"/><path class="cls-6" d="M852.94,437.62v4.32h4.13v-4.32h2.28v10.85h-2.28v-4.33h-4.13v4.33h-2.28V437.62Z"/><line class="cls-9" x1="550.19" y1="445.02" x2="581.6" y2="445.02"/><polygon class="cls-8" points="587.16 445.02 579.32 448.23 581.18 445.02 579.32 441.82 587.16 445.02"/><circle class="cls-4" cx="47.14" cy="445.76" r="14.3"/><circle class="cls-14" cx="86.07" cy="457.93" r="14.3"/><path class="cls-6" d="M80.52,456.05a5.22,5.22,0,0,1,6.74-3.53,5.5,5.5,0,0,1,2.1,1.19l-.7,2.29a3.52,3.52,0,0,0-2-1.4,3.23,3.23,0,0,0-1.92,6.16,3.51,3.51,0,0,0,2.43,0L86.45,463a5.47,5.47,0,0,1-2.4-.24A5.2,5.2,0,0,1,80.52,456.05Z"/><path class="cls-6" d="M92.46,457.75l-1.14-.35L91,458.55l-.93-.3.36-1.15-1.11-.34.28-.91,1.11.35.35-1.12.94.29-.35,1.12,1.13.35Z"/><path class="cls-6" d="M41.31,443.79a5.38,5.38,0,1,1,3.52,6.76A5.25,5.25,0,0,1,41.31,443.79Zm8.13,2.54a3.14,3.14,0,1,0-4,2.15A3.14,3.14,0,0,0,49.44,446.33Z"/><path class="cls-6" d="M53.43,444.5l2.68.84-.31,1-2.68-.84Z"/><circle class="cls-4" cx="125" cy="470.11" r="14.3"/><path class="cls-6" d="M119.18,468.14a5.38,5.38,0,1,1,3.52,6.76A5.25,5.25,0,0,1,119.18,468.14Zm8.12,2.54a3.13,3.13,0,1,0-4,2.15A3.11,3.11,0,0,0,127.3,470.68Z"/><path class="cls-6" d="M131.3,468.85l2.68.84-.32,1-2.68-.84Z"/><line class="cls-15" x1="61.1" y1="449.01" x2="72.74" y2="452.65"/><line class="cls-15" x1="100.04" y1="461.19" x2="111.67" y2="464.83"/><line class="cls-15" x1="60.31" y1="451.56" x2="71.94" y2="455.19"/><line class="cls-15" x1="99.24" y1="463.73" x2="110.88" y2="467.37"/><ellipse class="cls-16" cx="718.04" cy="75" rx="30.56" ry="7.37"/><ellipse class="cls-17" cx="718.04" cy="129.36" rx="23.09" ry="5.57"/><ellipse class="cls-18" cx="718.04" cy="75" rx="30.56" ry="7.37"/><path class="cls-19" d="M691.77,44.19h0a1.32,1.32,0,0,0,.27,0h0l.22,0a18.44,18.44,0,0,1,7.15,0l1.06.35h0a.58.58,0,0,0,.57-.11s1.25-1,5-12.11l.13-.38c3.76-11.1,3.37-12.65,3.37-12.65a.55.55,0,0,0-.38-.44h0l-1-.36a22.55,22.55,0,0,1-5.73-4.36,1.7,1.7,0,0,0-.19-.19h0a.76.76,0,0,0-.23-.18,2.25,2.25,0,0,0-.53-.28L663.37.52c-.94-.32-2,.06-3.22,1h0a.56.56,0,0,1-.53.1l-1.06-.36h0a.57.57,0,0,0-.57.13,17.24,17.24,0,0,0-3.17,4l0,0a39.11,39.11,0,0,0-3.67,8l0,.1,0,0,0,.1a38.53,38.53,0,0,0-1.91,8.55v0a17.25,17.25,0,0,0,.11,5.09.55.55,0,0,0,.38.45h0l1,.36a.57.57,0,0,1,.37.4h0c.36,1.46,1,2.44,2,2.76l38.06,12.87A2.17,2.17,0,0,0,691.77,44.19Z"/><path class="cls-20" d="M699.42,44.11l1.06.35h0a.58.58,0,0,0,.57-.11s1.25-1,5-12.11l.13-.38c3.76-11.1,3.37-12.65,3.37-12.65a.55.55,0,0,0-.38-.44h0l-1-.36s-1.39,2.49-4.85,12.7S699.42,44.11,699.42,44.11Z"/><path class="cls-21" d="M669.07,2.44s-3.91,5.17-7.13,14.69-3.25,16-3.25,16l24.25,8.21s0-6.49,3.25-16,7.13-14.69,7.13-14.69Z"/><path class="cls-22" d="M678.3,10.57a3.05,3.05,0,0,1,1.39,4.21,3.25,3.25,0,0,1-1.23,1.38l-1.66-.84a2.75,2.75,0,0,0,1.28-1.22,1.39,1.39,0,1,0-2.48-1.24,2.8,2.8,0,0,0-.2,1.76l-1.66-.83A3.12,3.12,0,0,1,674.1,12,3,3,0,0,1,678.3,10.57Z"/><path class="cls-22" d="M675.6,16.05a3.12,3.12,0,1,1-4,1.81A3.06,3.06,0,0,1,675.6,16.05ZM674,20.23a1.35,1.35,0,1,0-.84-1.76A1.34,1.34,0,0,0,674,20.23Z"/><path class="cls-22" d="M679.44,25,679,26.69,669.69,24l.48-1.67Z"/><path class="cls-22" d="M673.89,32.86,668,31.68l.34-1.7.75.15a2.27,2.27,0,0,1-.48-1.95,3.13,3.13,0,0,1,6.09,1.22A2.26,2.26,0,0,1,673.49,31l.74.14Zm-2.6-2.3a1.39,1.39,0,0,0,1.66-1,1.35,1.35,0,0,0-1.14-1.59,1.33,1.33,0,0,0-1.65,1A1.37,1.37,0,0,0,671.29,30.56Z"/><g class="cls-23"><ellipse class="cls-24" cx="718.06" cy="129.36" rx="23.09" ry="5.57"/></g><g class="cls-25"><path class="cls-24" d="M695,129.36c0,3.07,10.34,5.56,23.09,5.56s23.1-2.49,23.1-5.56l4.62-32.42c0-3.69-12.42-6.69-27.74-6.69s-27.75,3-27.75,6.69Z"/></g><path class="cls-26" d="M691,96.66a12.17,12.17,0,0,1,8.76,4.44,11.22,11.22,0,0,1,4.54-.85l4-.19a12.07,12.07,0,0,1,3.29.15,31,31,0,0,1,4.17,1.77c1.4.56,3.14.75,4.32-.18a12.73,12.73,0,0,0,1.73-2.24,2.1,2.1,0,0,1,2.46-.86,4.1,4.1,0,0,1,1,1.14c1.66,2.09,4.84,1.93,7.46,1.42a68.5,68.5,0,0,0,12.38-3.67,4.11,4.11,0,0,0-2-3.8A20.19,20.19,0,0,0,739,92a5.22,5.22,0,0,1-1.66-.93c-.6-.56-1-1.34-1.61-1.84a4.93,4.93,0,0,0-3.4-.6l-11.89.79a23.65,23.65,0,0,1-6.18-.12c-1.49-.3-2.91-.88-4.41-1.08-4.46-.61-7.21,2.25-11.14,3.33C696.2,92.22,688.43,91.35,691,96.66Z"/><path class="cls-6" d="M705.53,109.49c-.14-.27-.42-.24-.7-.13s-.5.17-.53.69c.12.76,1,.56,1.35.15a.59.59,0,0,0-.12-.71"/><path class="cls-6" d="M712.05,117.85c.11-.1.21-.33.1-.44s-.24-.24-.35-.15-.1.41,0,.62c.18,0,.19.11.27,0"/><path class="cls-6" d="M700.9,122.68c0-.23-.48-.19-.56-.11s-.31.27-.26.51a.5.5,0,0,0,.68.36.51.51,0,0,0,.14-.76"/><path class="cls-6" d="M702.55,104.11c.18-.23,0-.47-.19-.68s-.37-.38-.85-.18c-.64.44-.07,1.15.45,1.28a.6.6,0,0,0,.59-.42"/><path class="cls-6" d="M701.33,112.05c.24.12.67.15.74-.11s.15-.56-.08-.7-.7.11-1,.38c.14.31,0,.39.3.43"/><path class="cls-6" d="M700,107.11c.19-.15,0-.52-.15-.55s-.37-.16-.57,0a.5.5,0,0,0,0,.77.51.51,0,0,0,.74-.2"/><path class="cls-6" d="M722.6,100.55c.47-.22.44-.72.28-1.22s-.27-.88-1.18-1c-1.34.15-1.05,1.72-.35,2.34a1.06,1.06,0,0,0,1.25-.15"/><path class="cls-6" d="M698.93,102.61c.24.12.68.15.74-.11s.15-.56-.08-.7-.7.11-1,.38c.14.31,0,.39.29.43"/><path class="cls-6" d="M705.93,113.77c.24.12.67.15.74-.12s.15-.56-.09-.7-.7.11-1,.38c.14.32,0,.4.3.44"/><path class="cls-6" d="M713.89,111.11c.27-.13.25-.41.15-.69s-.15-.51-.67-.56c-.77.08-.6,1-.2,1.34a.62.62,0,0,0,.72-.09"/><path class="cls-6" d="M716.38,108c.27-.13.25-.41.16-.7s-.15-.5-.67-.55c-.77.08-.6,1-.2,1.34a.6.6,0,0,0,.71-.09"/><path class="cls-6" d="M705.13,107.08c.16.22.53.45.71.25s.4-.43.26-.66-.67-.23-1-.11c0,.34-.18.35,0,.52"/><path class="cls-6" d="M706.48,103.42c.24,0,.21-.47.13-.55s-.25-.32-.5-.29a.48.48,0,1,0,.37.84"/><path class="cls-6" d="M714.65,116c0,.3.25.41.54.46s.52.09.8-.35c.28-.72-.6-1-1.1-.78a.57.57,0,0,0-.24.67"/><path class="cls-6" d="M714.65,103c-.27,0-.64.26-.54.51s.2.55.46.53.52-.49.57-.86c-.3-.17-.23-.32-.49-.18"/><path class="cls-6" d="M715.19,113.48c-.08.23.32.4.43.37s.4-.09.48-.32a.48.48,0,1,0-.91,0"/><path class="cls-6" d="M707.24,126.52a.57.57,0,0,0,.56-.73.52.52,0,0,0-.88-.09c-.19.32,0,.92.32.82"/><path class="cls-6" d="M704.21,120.3a.57.57,0,0,0,.56-.73.53.53,0,0,0-.89-.09c-.19.32,0,.92.33.82"/><path class="cls-6" d="M733.22,110.31c.14.26.42.23.7.13s.5-.18.53-.7c-.11-.76-1-.56-1.35-.14a.63.63,0,0,0,.12.71"/><path class="cls-6" d="M726.7,102c-.11.09-.21.32-.1.43s.24.24.35.15.1-.41,0-.62c-.18,0-.19-.11-.27,0"/><path class="cls-6" d="M736.77,102.18c0,.23.48.19.56.11s.3-.27.26-.52a.48.48,0,1,0-.82.41"/><path class="cls-6" d="M736.21,115.68c-.18.23,0,.48.18.68a.61.61,0,0,0,.86.18c.64-.43.07-1.15-.46-1.28a.6.6,0,0,0-.58.42"/><path class="cls-6" d="M739,105.64c-.24-.12-.68-.15-.74.11s-.15.56.08.7.7-.11.95-.38c-.14-.31,0-.39-.29-.43"/><path class="cls-6" d="M738.75,112.69c-.19.14,0,.51.15.55s.37.16.57,0a.5.5,0,0,0,0-.77.51.51,0,0,0-.75.21"/><path class="cls-6" d="M739.82,117.18c-.24-.12-.68-.15-.74.11s-.15.57.08.7.7-.1,1-.38c-.14-.31,0-.39-.29-.43"/><path class="cls-6" d="M732.83,106c-.24-.13-.68-.15-.74.11s-.15.56.08.7.7-.11,1-.38c-.14-.31,0-.39-.29-.43"/><path class="cls-6" d="M724.87,108.68c-.27.13-.25.41-.16.7s.15.5.67.55c.77-.08.6-1,.2-1.34a.6.6,0,0,0-.71.09"/><path class="cls-6" d="M722.37,111.83c-.27.12-.25.41-.16.69s.15.51.67.56c.77-.09.61-1,.2-1.34a.59.59,0,0,0-.71.09"/><path class="cls-6" d="M731.69,113.7c-.16-.22-.53-.45-.71-.24s-.39.42-.26.65.67.24,1,.11c0-.34.18-.34,0-.52"/><path class="cls-6" d="M732.27,119.43c-.24,0-.21.47-.13.55s.26.32.5.29a.51.51,0,0,0,.38-.68.5.5,0,0,0-.75-.16"/><path class="cls-6" d="M724.11,103.75c0-.3-.26-.41-.55-.46s-.52-.09-.8.35c-.27.72.6,1,1.1.79a.61.61,0,0,0,.25-.68"/><path class="cls-6" d="M724.11,116.76c.26,0,.64-.26.54-.51s-.2-.55-.47-.53-.51.49-.56.86c.29.17.22.32.49.18"/><path class="cls-6" d="M723.57,106.31c.07-.23-.33-.4-.44-.37s-.4.09-.48.32a.48.48,0,1,0,.92,0"/><path class="cls-6" d="M738.92,108.85a.56.56,0,0,0-.55.73.52.52,0,0,0,.88.09c.19-.32,0-.93-.33-.82"/><path class="cls-6" d="M736.17,104.13a.56.56,0,0,0-.55.73.52.52,0,0,0,.88.09c.19-.32,0-.92-.33-.82"/><path class="cls-27" d="M703.21,94.15a1.6,1.6,0,0,1,1.26-1.05c.58,0,1.15.61.89,1.12l4.08.85"/><path class="cls-27" d="M726,92.16a.86.86,0,0,1,1.22.51,1.36,1.36,0,0,1,2.15,0"/><path class="cls-27" d="M730,89.44c.59-.47,1.41-1,2.05-.55.15.09.28.24.46.26a1.24,1.24,0,0,0,.54-.18,1.12,1.12,0,0,1,1.49,1.09"/><path class="cls-27" d="M738.13,92.36c.46-.47,1.07-1,1.7-.78a1.73,1.73,0,0,1,.36.18l2.51,1.56"/><path class="cls-27" d="M716.73,90.77a1.85,1.85,0,0,0-2.51-1.41,5.13,5.13,0,0,1-.81.41c-.64.17-1.25-.29-1.83-.61a5,5,0,0,0-6.84,2.51"/><path class="cls-27" d="M696.46,96.64l1.9-.79a2,2,0,0,0,3.22,2.08"/><path class="cls-27" d="M708.52,99c.93.58.88,2.46,2,2.41.71,0,1.27-1,1.92-.74.3.13.45.5.76.62.64.25,1.05-.72,1.68-1a1.28,1.28,0,0,1,1.41.43,3.66,3.66,0,0,1,.64,1.42"/><path class="cls-26" d="M702.83,36.27a63.89,63.89,0,0,0,.37,6.63c.15,2.52-.6,5-.89,7.5-.71,6.18,1.35,12.69-.74,18.55-.47,1.3-1.13,2.52-1.52,3.85-2,6.84,3.56,14.8,0,21l15,2a42.41,42.41,0,0,1-1.55-4.66c-1.25-5-.75-10.3-2.35-15.17a43.72,43.72,0,0,1-1.59-4.77,21.32,21.32,0,0,1-.23-4.52q.15-7.59-.4-15.16a22.1,22.1,0,0,0-1-5.73c-.35-1-.82-1.93-1.12-2.93a17.65,17.65,0,0,1-.47-2.71L705.3,31A9.16,9.16,0,0,0,702.83,36.27Z"/><path class="cls-6" d="M695.61,93.33A14.33,14.33,0,0,1,700,89l1,3.83a3,3,0,0,1,2.15-1.9,1.71,1.71,0,0,1,2,1.69,22.56,22.56,0,0,1,3.31-3c.73-.55,1.89-1,2.42-.25.2.28.24.67.48.91.63.62,1.72-.32,2.55,0a3.51,3.51,0,0,1,.69.47c1.38.89,3.18-.69,4.79-.36a4.47,4.47,0,0,1,1,.4l3.18,1.59s.29,5.59-4.54,6S694.45,95.47,695.61,93.33Z"/><path class="cls-26" d="M695.61,93.33c1.18-1.71,1.34-4.41,4.4-4.37,1.57,1.1.7,2.55,1,3.83a3,3,0,0,1,2.15-1.9,1.71,1.71,0,0,1,2,1.69,22.56,22.56,0,0,1,3.31-3c.73-.55,1.89-1,2.42-.25.2.28.24.67.48.91.63.62,1.72-.32,2.55,0a3.51,3.51,0,0,1,.69.47c1.38.89,3.18-.69,4.79-.36a4.47,4.47,0,0,1,1,.4l3.18,1.59"/><path class="cls-27" d="M714.2,98.77c-.19-.32.09-.73.42-.89a7.09,7.09,0,0,0,1-.43c.36-.25.51-.7.8-1s.85-.53,1.12-.19"/><path class="cls-27" d="M706.16,96.84a1.07,1.07,0,0,1,1-.89.23.23,0,0,1,.2,0c.08.09,0,.23,0,.35s.45.14.7.08a2.07,2.07,0,0,1,1.27.27,1.39,1.39,0,0,0,1.27,0,.76.76,0,0,0,.23-1"/><path class="cls-27" d="M731.26,97.53c-.06.13.13.25.26.21a.67.67,0,0,0,.3-.3c.21-.28.61-.5.9-.31s.3.5.56.59a1,1,0,0,0,.41,0,1,1,0,0,1,1,.75,2.33,2.33,0,0,0,.77-1.22"/><path class="cls-28" d="M748.6,75c0,4.07-13.69,7.37-30.56,7.37s-30.56-3.3-30.56-7.37l7.46,54.36c0,3.07,10.34,5.56,23.1,5.56s23.09-2.49,23.09-5.56Z"/><path class="cls-29" d="M748.6,75c0,4.07-13.69,7.37-30.56,7.37s-30.56-3.3-30.56-7.37l7.46,54.36c0,3.07,10.34,5.56,23.1,5.56s23.09-2.49,23.09-5.56Z"/><path class="cls-30" d="M749.93,40.72s-10.37-.37-18.56,11.75"/><polygon class="cls-31" points="730.6 50.38 731.71 51.98 733.63 52.3 729.84 54.93 730.6 50.38"/><path class="cls-24" d="M812.84,340.67v8.27h-2.32v-7.89c0-3.13-1.56-4.76-3.8-4.76s-3.88,1.63-3.88,4.76v7.89h-2.3v-23.2h2.3v10.9a5.14,5.14,0,0,1,4.52-2.49C810.26,334.15,812.84,336.29,812.84,340.67Z"/><path class="cls-24" d="M829.2,334.44l-8.56,20.3h-2.35l2.59-6-6.07-14.3h2.5l4.7,11.75,4.7-11.75Z"/><path class="cls-24" d="M844.42,325.74v23.2h-2.29v-2.58a6.18,6.18,0,0,1-5.19,2.78c-4,0-6.82-3.3-6.82-7.45s2.79-7.46,6.82-7.46a6.19,6.19,0,0,1,5.19,2.79V325.74Zm-2.29,16.53v-1.16a5,5,0,0,0-4.84-4.64,5.24,5.24,0,0,0,0,10.44A5,5,0,0,0,842.13,342.27Z"/><path class="cls-24" d="M855.44,334.18v2.67c-2.17-.27-4.2,1.21-4.2,4.29v7.8H849v-14.5h2.29V337A4.84,4.84,0,0,1,855.44,334.18Z"/><path class="cls-24" d="M856.63,341.69a7.37,7.37,0,1,1,7.37,7.48A7.31,7.31,0,0,1,856.63,341.69Zm12.39,0a5,5,0,1,0-10,0,5,5,0,1,0,10,0Z"/><path class="cls-24" d="M888.3,348.33c0,4.47-3.42,6.62-6.87,6.62a10.42,10.42,0,0,1-5.46-1.57l0-2.47a9.19,9.19,0,0,0,5.2,1.86c2.81,0,4.9-1.65,4.87-5v-1.48a6.18,6.18,0,0,1-5.25,2.87c-4,0-6.82-3.3-6.82-7.45s2.79-7.46,6.82-7.46A6.19,6.19,0,0,1,886,337v-2.58h2.26ZM886,341.69a5,5,0,0,0-4.87-5.22,5.24,5.24,0,0,0,0,10.44A5,5,0,0,0,886,341.69Z"/><path class="cls-24" d="M905.7,342.56H894.24a4.88,4.88,0,0,0,5.08,4.38,7.44,7.44,0,0,0,4.85-1.77v2.44a8.08,8.08,0,0,1-5,1.56,7.13,7.13,0,0,1-7.34-7.48c0-4,2.84-7.46,7-7.46C903.38,334.23,905.93,338.12,905.7,342.56Zm-11.43-1.94h9c-.41-2.35-2-4.09-4.38-4.09A4.62,4.62,0,0,0,894.27,340.62Z"/><path class="cls-24" d="M921.48,340.67v8.27h-2.32v-7.89c0-3.13-1.57-4.76-3.8-4.76s-3.89,1.63-3.89,4.76v7.89h-2.29v-14.5h2.29v2.2a5.16,5.16,0,0,1,4.53-2.49C918.9,334.15,921.48,336.29,921.48,340.67Z"/><path class="cls-24" d="M834.8,376.49c0,4.15-2.79,7.45-6.82,7.45a6.15,6.15,0,0,1-5.22-2.81v8.41h-2.29v-20.3h2.29v2.61A6.15,6.15,0,0,1,828,369C832,369,834.8,372.34,834.8,376.49Zm-2.38,0a4.92,4.92,0,0,0-4.79-5.22,5.23,5.23,0,0,0,0,10.44A4.92,4.92,0,0,0,832.42,376.49Z"/><path class="cls-24" d="M844.86,369v2.67c-2.18-.27-4.21,1.21-4.21,4.29v7.8h-2.29v-14.5h2.29v2.58A4.87,4.87,0,0,1,844.86,369Z"/><path class="cls-24" d="M846,376.49a7.37,7.37,0,1,1,7.37,7.48A7.31,7.31,0,0,1,846,376.49Zm12.39,0a5,5,0,1,0-10,0,5,5,0,1,0,10,0Z"/><path class="cls-24" d="M869.74,371.44h-3v12.3h-2.32v-12.3h-1.85v-2.2h1.85v-3.89h2.32v3.89h3Z"/><path class="cls-24" d="M870.93,376.49a7.37,7.37,0,1,1,7.36,7.48A7.3,7.3,0,0,1,870.93,376.49Zm12.38,0a5,5,0,1,0-10,0,5,5,0,1,0,10,0Z"/><path class="cls-24" d="M901.55,375.47v8.27h-2.32v-7.89c0-3.13-1.56-4.76-3.8-4.76s-3.88,1.63-3.88,4.76v7.89h-2.3v-14.5h2.3v2.2a5.14,5.14,0,0,1,4.52-2.49C899,369,901.55,371.09,901.55,375.47Z"/><path class="cls-24" d="M37.66,342.83a7.25,7.25,0,0,1,7.4-7.49,7.11,7.11,0,0,1,4.67,1.57v2.73a6,6,0,0,0-4.5-2,5.19,5.19,0,1,0,0,10.38,6,6,0,0,0,4.5-2v2.73a7.16,7.16,0,0,1-4.67,1.56A7.25,7.25,0,0,1,37.66,342.83Z"/><path class="cls-24" d="M67,335.58v14.5H64.66v-2.61a6.15,6.15,0,0,1-5.22,2.81c-4,0-6.82-3.3-6.82-7.45s2.79-7.46,6.82-7.46a6.16,6.16,0,0,1,5.22,2.82v-2.61Zm-2.29,7.25a5,5,0,0,0-4.87-5.22,5.24,5.24,0,0,0,0,10.44A5,5,0,0,0,64.66,342.83Z"/><path class="cls-24" d="M78,335.32V338c-2.17-.26-4.21,1.22-4.21,4.3v7.8H71.47v-14.5h2.29v2.58A4.87,4.87,0,0,1,78,335.32Z"/><path class="cls-24" d="M95,342.83c0,4.15-2.78,7.45-6.81,7.45A6.15,6.15,0,0,1,83,347.47v2.61H80.7V326.87H83v11.32a6.16,6.16,0,0,1,5.22-2.82C92.24,335.37,95,338.68,95,342.83Zm-2.37,0a4.92,4.92,0,0,0-4.79-5.22,5.23,5.23,0,0,0,0,10.44A4.92,4.92,0,0,0,92.65,342.83Z"/><path class="cls-24" d="M97.63,342.83a7.37,7.37,0,1,1,7.37,7.48A7.32,7.32,0,0,1,97.63,342.83Zm12.39,0a5,5,0,1,0-10,0,5,5,0,1,0,10,0Z"/><path class="cls-24" d="M128.26,341.81v8.27h-2.32v-7.89c0-3.13-1.57-4.76-3.8-4.76s-3.89,1.63-3.89,4.76v7.89H116v-14.5h2.29v2.2a5.16,5.16,0,0,1,4.53-2.49C125.68,335.29,128.26,337.43,128.26,341.81Z"/><path class="cls-24" d="M49.38,361.67v23.21H47.09V382.3a6.19,6.19,0,0,1-5.2,2.78c-4,0-6.81-3.3-6.81-7.45s2.78-7.46,6.81-7.46a6.19,6.19,0,0,1,5.2,2.79V361.67Zm-2.29,16.54v-1.16a5,5,0,0,0-4.85-4.64,5.24,5.24,0,0,0,0,10.44A5,5,0,0,0,47.09,378.21Z"/><path class="cls-24" d="M53.9,366a1.57,1.57,0,0,1,1.6-1.57A1.55,1.55,0,0,1,57.06,366a1.53,1.53,0,0,1-1.56,1.59A1.55,1.55,0,0,1,53.9,366Zm.43,4.41h2.3v14.5h-2.3Z"/><path class="cls-24" d="M60.63,377.63A7.37,7.37,0,1,1,68,385.11,7.31,7.31,0,0,1,60.63,377.63Zm12.38,0a5,5,0,1,0-10,0,5,5,0,1,0,10,0Z"/><path class="cls-24" d="M87.92,384.88l-4.24-5.66-4.26,5.66H76.61l5.71-7.28-5.63-7.22h2.73l4.26,5.6,4.24-5.6h2.73L85,377.6l5.71,7.28Z"/><path class="cls-24" d="M93.22,366a1.57,1.57,0,0,1,1.6-1.57A1.54,1.54,0,0,1,96.38,366a1.52,1.52,0,0,1-1.56,1.59A1.55,1.55,0,0,1,93.22,366Zm.44,4.41H96v14.5H93.66Z"/><path class="cls-24" d="M114.25,361.67v23.21H112V382.3a6.18,6.18,0,0,1-5.19,2.78c-4,0-6.82-3.3-6.82-7.45s2.79-7.46,6.82-7.46A6.19,6.19,0,0,1,112,373V361.67ZM112,378.21v-1.16a5,5,0,0,0-4.84-4.64,5.24,5.24,0,0,0,0,10.44A5,5,0,0,0,112,378.21Z"/><path class="cls-24" d="M131.65,378.5H120.19a4.88,4.88,0,0,0,5.08,4.38,7.39,7.39,0,0,0,4.84-1.77v2.44a8,8,0,0,1-5,1.56,7.13,7.13,0,0,1-7.33-7.48c0-4,2.84-7.46,7-7.46C129.33,370.17,131.88,374.06,131.65,378.5Zm-11.43-1.94h9c-.4-2.35-2-4.09-4.38-4.09A4.62,4.62,0,0,0,120.22,376.56Z"/><path class="cls-24" d="M252,340.73l-7.43,14.62H243l-2.81-5.68-2.76,5.68h-1.6l-7.39-14.62h2.46l5.78,11.64,2.4-4.88-3.39-6.76h2.38l2.14,4.59,2.15-4.59h2.38l-3.39,6.76,2.4,4.88,5.78-11.64Z"/><path class="cls-24" d="M267.14,340.73v14.51h-2.3v-2.61a6.14,6.14,0,0,1-5.22,2.81c-4,0-6.81-3.31-6.81-7.45s2.78-7.46,6.81-7.46a6.14,6.14,0,0,1,5.22,2.81v-2.61Zm-2.3,7.26a5,5,0,0,0-4.87-5.23c-2.81,0-4.78,2.35-4.78,5.23a4.91,4.91,0,0,0,4.78,5.22A5,5,0,0,0,264.84,348Z"/><path class="cls-24" d="M277.46,342.94h-3v12.3h-2.32v-12.3h-1.86v-2.21h1.86v-3.88h2.32v3.88h3Z"/><path class="cls-24" d="M292.48,348.86H281a4.88,4.88,0,0,0,5.08,4.38,7.39,7.39,0,0,0,4.84-1.77v2.43a8,8,0,0,1-5,1.57,7.13,7.13,0,0,1-7.33-7.48c0-4,2.84-7.46,7-7.46C290.16,340.53,292.71,344.42,292.48,348.86Zm-11.43-1.95h9c-.4-2.35-2-4.09-4.37-4.09A4.62,4.62,0,0,0,281.05,346.91Z"/><path class="cls-24" d="M302.46,340.47v2.67c-2.18-.26-4.21,1.22-4.21,4.29v7.81H296V340.73h2.29v2.59A4.85,4.85,0,0,1,302.46,340.47Z"/><path class="cls-24" d="M375.21,345.92a7.25,7.25,0,0,1,7.4-7.49,7.11,7.11,0,0,1,4.67,1.57v2.72a6,6,0,0,0-4.5-2,5.2,5.2,0,1,0,0,10.39,6,6,0,0,0,4.5-2v2.72a7.11,7.11,0,0,1-4.67,1.57A7.25,7.25,0,0,1,375.21,345.92Z"/><path class="cls-24" d="M404.5,338.66v14.51h-2.29v-2.61a6.15,6.15,0,0,1-5.22,2.81c-4,0-6.82-3.31-6.82-7.45s2.79-7.46,6.82-7.46a6.15,6.15,0,0,1,5.22,2.81v-2.61Zm-2.29,7.26a5,5,0,0,0-4.87-5.23c-2.82,0-4.79,2.35-4.79,5.23a4.92,4.92,0,0,0,4.79,5.22A5,5,0,0,0,402.21,345.92Z"/><path class="cls-24" d="M415.52,338.4v2.67c-2.18-.26-4.21,1.22-4.21,4.29v7.81H409V338.66h2.29v2.59A4.88,4.88,0,0,1,415.52,338.4Z"/><path class="cls-24" d="M432.57,345.92c0,4.14-2.78,7.45-6.81,7.45a6.14,6.14,0,0,1-5.22-2.81v2.61h-2.3V330h2.3v11.31a6.14,6.14,0,0,1,5.22-2.81C429.79,338.46,432.57,341.77,432.57,345.92Zm-2.37,0a4.92,4.92,0,0,0-4.79-5.23,5.24,5.24,0,0,0,0,10.45A4.92,4.92,0,0,0,430.2,345.92Z"/><path class="cls-24" d="M435.18,345.92a7.37,7.37,0,1,1,7.37,7.48A7.31,7.31,0,0,1,435.18,345.92Zm12.39,0a5,5,0,1,0-10,0,5,5,0,1,0,10,0Z"/><path class="cls-24" d="M465.81,344.9v8.27h-2.32v-7.89c0-3.14-1.57-4.76-3.8-4.76s-3.89,1.62-3.89,4.76v7.89h-2.29V338.66h2.29v2.21a5.16,5.16,0,0,1,4.52-2.5C463.22,338.37,465.81,340.52,465.81,344.9Z"/><path class="cls-24" d="M470.1,334.25a1.56,1.56,0,0,1,1.59-1.56,1.58,1.58,0,1,1-1.59,1.56Zm.43,4.41h2.29v14.51h-2.29Z"/><path class="cls-24" d="M476.82,345.92a7.25,7.25,0,0,1,7.4-7.49,7.11,7.11,0,0,1,4.67,1.57v2.72a6,6,0,0,0-4.5-2,5.2,5.2,0,1,0,0,10.39,6,6,0,0,0,4.5-2v2.72a7.11,7.11,0,0,1-4.67,1.57A7.25,7.25,0,0,1,476.82,345.92Z"/><path class="cls-24" d="M516,338.66v14.51h-2.29v-2.61a6.17,6.17,0,0,1-5.23,2.81c-4,0-6.81-3.31-6.81-7.45s2.78-7.46,6.81-7.46a6.17,6.17,0,0,1,5.23,2.81v-2.61Zm-2.29,7.26a5,5,0,0,0-4.88-5.23c-2.81,0-4.78,2.35-4.78,5.23a4.91,4.91,0,0,0,4.78,5.22A5,5,0,0,0,513.66,345.92Z"/><path class="cls-24" d="M519.51,345.92a7.25,7.25,0,0,1,7.4-7.49,7.11,7.11,0,0,1,4.67,1.57v2.72a6,6,0,0,0-4.5-2,5.2,5.2,0,1,0,0,10.39,6,6,0,0,0,4.5-2v2.72a7.11,7.11,0,0,1-4.67,1.57A7.25,7.25,0,0,1,519.51,345.92Z"/><path class="cls-24" d="M535.43,334.25a1.56,1.56,0,0,1,1.6-1.56,1.58,1.58,0,0,1,0,3.16A1.56,1.56,0,0,1,535.43,334.25Zm.44,4.41h2.29v14.51h-2.29Z"/><path class="cls-24" d="M556.46,330v23.21h-2.29v-2.58a6.18,6.18,0,0,1-5.19,2.78c-4,0-6.82-3.31-6.82-7.45s2.78-7.46,6.82-7.46a6.17,6.17,0,0,1,5.19,2.79V330Zm-2.29,16.54v-1.17a5,5,0,0,0-4.85-4.64c-2.81,0-4.78,2.35-4.78,5.23a4.91,4.91,0,0,0,4.78,5.22A5,5,0,0,0,554.17,346.5Z"/><path class="cls-24" d="M612.87,345.76c0,4.15-2.78,7.45-6.82,7.45a6.15,6.15,0,0,1-5.22-2.81V353h-2.29V329.8h2.29v11.32a6.14,6.14,0,0,1,5.22-2.82C610.09,338.3,612.87,341.61,612.87,345.76Zm-2.38,0a4.91,4.91,0,0,0-4.78-5.22,5.23,5.23,0,0,0,0,10.44A4.91,4.91,0,0,0,610.49,345.76Z"/><path class="cls-24" d="M616.43,334.1a1.57,1.57,0,0,1,1.6-1.57,1.55,1.55,0,0,1,1.57,1.57,1.53,1.53,0,0,1-1.57,1.59A1.55,1.55,0,0,1,616.43,334.1Zm.44,4.41h2.29V353h-2.29Z"/><path class="cls-24" d="M623.16,345.76a7.25,7.25,0,0,1,7.4-7.49,7.11,7.11,0,0,1,4.67,1.57v2.73a6,6,0,0,0-4.5-2,5.19,5.19,0,1,0,0,10.38,6,6,0,0,0,4.5-2v2.73a7.16,7.16,0,0,1-4.67,1.56A7.25,7.25,0,0,1,623.16,345.76Z"/><path class="cls-24" d="M652.46,338.51V353h-2.3V350.4a6.15,6.15,0,0,1-5.22,2.81c-4,0-6.81-3.3-6.81-7.45s2.78-7.46,6.81-7.46a6.14,6.14,0,0,1,5.22,2.82v-2.61Zm-2.3,7.25a5,5,0,0,0-4.87-5.22,5.24,5.24,0,0,0,0,10.44A5,5,0,0,0,650.16,345.76Z"/><path class="cls-24" d="M663.47,338.25v2.66c-2.17-.26-4.2,1.22-4.2,4.3V353H657v-14.5h2.29v2.58A4.84,4.84,0,0,1,663.47,338.25Z"/><path class="cls-24" d="M680.53,345.76c0,4.15-2.79,7.45-6.82,7.45a6.15,6.15,0,0,1-5.22-2.81V353H666.2V329.8h2.29v11.32a6.14,6.14,0,0,1,5.22-2.82C677.74,338.3,680.53,341.61,680.53,345.76Zm-2.38,0a4.92,4.92,0,0,0-4.79-5.22,5.23,5.23,0,0,0,0,10.44A4.92,4.92,0,0,0,678.15,345.76Z"/><path class="cls-24" d="M683.13,345.76a7.37,7.37,0,1,1,7.37,7.48A7.32,7.32,0,0,1,683.13,345.76Zm12.39,0a5,5,0,1,0-10,0,5,5,0,1,0,10,0Z"/><path class="cls-24" d="M713.76,344.74V353h-2.32v-7.89c0-3.13-1.57-4.76-3.8-4.76s-3.89,1.63-3.89,4.76V353h-2.29v-14.5h2.29v2.2a5.16,5.16,0,0,1,4.53-2.49C711.18,338.22,713.76,340.36,713.76,344.74Z"/><path class="cls-24" d="M731.16,338.51V353h-2.29V350.4a6.15,6.15,0,0,1-5.22,2.81c-4,0-6.82-3.3-6.82-7.45s2.79-7.46,6.82-7.46a6.14,6.14,0,0,1,5.22,2.82v-2.61Zm-2.29,7.25a5,5,0,0,0-4.87-5.22A5.24,5.24,0,0,0,724,351,5,5,0,0,0,728.87,345.76Z"/><path class="cls-24" d="M741.48,340.71h-3V353h-2.32v-12.3h-1.85v-2.2h1.85v-3.89h2.32v3.89h3Z"/><path class="cls-24" d="M756.51,346.63H745.05a4.87,4.87,0,0,0,5.07,4.38,7.42,7.42,0,0,0,4.85-1.77v2.44a8.08,8.08,0,0,1-5,1.56,7.13,7.13,0,0,1-7.34-7.48c0-4,2.84-7.46,7.05-7.46C754.19,338.3,756.74,342.19,756.51,346.63Zm-11.43-1.95h9c-.41-2.35-2-4.09-4.38-4.09A4.61,4.61,0,0,0,745.08,344.68Z"/><path class="cls-32" d="M256.94,248.81v24.83h-5.22v-9.9h-9.47v9.9H237V248.81h5.21v9.9h9.47v-9.9Z"/><path class="cls-32" d="M260.59,284.32c1.53-1.74,3.12-3.62,4.65-5.42.94-1.14,1.7-2.13,1.7-3.31a1.84,1.84,0,0,0-1.88-1.84,2.26,2.26,0,0,0-2.09,2.5l-2.86-.79a4.9,4.9,0,0,1,4.95-4.75,4.7,4.7,0,0,1,4.94,4.57c0,1.82-.91,3.21-2.17,4.67-.68.85-1.41,1.72-2.11,2.57h4.39v2.94h-9.52Z"/><path class="cls-32" d="M272.61,261.23a12.84,12.84,0,1,1,12.84,12.87A12.53,12.53,0,0,1,272.61,261.23Zm20.33,0a7.49,7.49,0,1,0-7.49,7.69A7.46,7.46,0,0,0,292.94,261.23Z"/><path class="cls-8" d="M198.65,262.32h-4.86v4.93h-4v-4.93H185v-3.91h4.75v-4.79h4v4.79h4.86Z"/><path class="cls-32" d="M438.83,247.49v24.84h-5.22v-9.9h-9.47v9.9h-5.21V247.49h5.21v9.9h9.47v-9.9Z"/><path class="cls-32" d="M442.48,283c1.53-1.73,3.12-3.62,4.65-5.42.94-1.13,1.7-2.13,1.7-3.31a1.84,1.84,0,0,0-1.88-1.84,2.27,2.27,0,0,0-2.09,2.51l-2.86-.79a4.9,4.9,0,0,1,4.95-4.76,4.7,4.7,0,0,1,4.94,4.57c0,1.82-.91,3.21-2.17,4.68-.68.85-1.41,1.72-2.11,2.57H452v2.93h-9.52Z"/><path class="cls-32" d="M454.5,259.91a12.45,12.45,0,0,1,12.84-12.84,13,13,0,0,1,5.64,1.2l0,5.72a8.6,8.6,0,0,0-5.54-1.78,7.7,7.7,0,0,0,0,15.4,8.38,8.38,0,0,0,5.54-1.78l0,5.75a13.4,13.4,0,0,1-5.64,1.17A12.45,12.45,0,0,1,454.5,259.91Z"/><path class="cls-32" d="M475.36,259.91a12.85,12.85,0,1,1,12.84,12.88A12.54,12.54,0,0,1,475.36,259.91Zm20.33,0a7.49,7.49,0,1,0-7.49,7.7A7.46,7.46,0,0,0,495.69,259.91Z"/><path class="cls-32" d="M513.76,279.47a4.94,4.94,0,0,1-5.11,4.9,5.15,5.15,0,0,1-5.15-3.79l2.69-1.32a2.64,2.64,0,0,0,2.42,2.09,2.06,2.06,0,1,0,0-4.12,3.44,3.44,0,0,0-1.78.56l-1.24-1.51.06-.06,3.48-3.58h-4.82v-3h8.5v2.57L510.16,275A4.56,4.56,0,0,1,513.76,279.47Z"/><path class="cls-32" d="M655.05,247V271.8h-5.22v-9.9h-9.47v9.9h-5.21V247h5.21v9.89h9.47V247Z"/><path class="cls-32" d="M659.24,259.38a12.45,12.45,0,0,1,12.84-12.84,12.89,12.89,0,0,1,5.64,1.21l0,5.71a8.58,8.58,0,0,0-5.54-1.77,7.7,7.7,0,0,0,0,15.39,8.41,8.41,0,0,0,5.54-1.77l0,5.75a13.48,13.48,0,0,1-5.64,1.17A12.45,12.45,0,0,1,659.24,259.38Z"/><path class="cls-32" d="M680.1,259.38A12.85,12.85,0,1,1,693,272.26,12.54,12.54,0,0,1,680.1,259.38Zm20.33,0a7.49,7.49,0,1,0-7.48,7.7A7.46,7.46,0,0,0,700.43,259.38Z"/><path class="cls-32" d="M718.5,278.94a4.93,4.93,0,0,1-5.11,4.9,5.17,5.17,0,0,1-5.15-3.78l2.69-1.33a2.64,2.64,0,0,0,2.42,2.09,2.06,2.06,0,1,0,0-4.11,3.43,3.43,0,0,0-1.78.55l-1.24-1.51.06-.06,3.48-3.58h-4.82v-3h8.5v2.57l-2.65,2.75A4.56,4.56,0,0,1,718.5,278.94Z"/><path class="cls-32" d="M866.47,247v24.83h-5.21v-9.89h-9.47v9.89h-5.22V247h5.22v9.9h9.47V247Z"/><path class="cls-32" d="M883.26,262.84H878.4v4.93h-4v-4.93h-4.76v-3.9h4.76v-4.79h4v4.79h4.86Z"/><line class="cls-9" x1="345.25" y1="261.3" x2="375.48" y2="261.3"/><polygon class="cls-8" points="381.05 261.3 373.21 264.5 375.07 261.3 373.21 258.09 381.05 261.3"/><path class="cls-8" d="M771.93,261.84h-4.86v4.93h-4v-4.93H758.3v-3.9h4.76v-4.79h4v4.79h4.86Z"/><line class="cls-9" x1="547.86" y1="260.6" x2="578.09" y2="260.6"/><polygon class="cls-8" points="583.66 260.6 575.82 263.81 577.68 260.6 575.82 257.39 583.66 260.6"/><path class="cls-32" d="M50.61,252.47a12.45,12.45,0,0,1,12.84-12.84,12.89,12.89,0,0,1,5.64,1.2l0,5.71a8.63,8.63,0,0,0-5.54-1.77,7.7,7.7,0,0,0,0,15.4,8.36,8.36,0,0,0,5.54-1.78l0,5.75a13.33,13.33,0,0,1-5.64,1.17A12.45,12.45,0,0,1,50.61,252.47Z"/><path class="cls-32" d="M71.47,252.47a12.85,12.85,0,1,1,12.85,12.88A12.55,12.55,0,0,1,71.47,252.47Zm20.33,0a7.49,7.49,0,1,0-7.48,7.7A7.45,7.45,0,0,0,91.8,252.47Z"/><path class="cls-32" d="M100.07,275.56c1.53-1.73,3.12-3.62,4.65-5.42.93-1.14,1.7-2.13,1.7-3.31a1.84,1.84,0,0,0-1.88-1.84,2.27,2.27,0,0,0-2.09,2.5l-2.86-.78a4.9,4.9,0,0,1,5-4.76,4.7,4.7,0,0,1,4.94,4.57c0,1.82-.91,3.21-2.17,4.68-.68.85-1.41,1.72-2.11,2.56h4.38v2.94h-9.51Z"/><path class="cls-33" d="M917.78,64.55c0,4.66-15.68,8.44-35,8.44s-35-3.78-35-8.44l8.56,62.28c0,3.52,11.84,6.37,26.46,6.37s26.45-2.85,26.45-6.37Z"/><ellipse class="cls-34" cx="882.77" cy="64.55" rx="35.01" ry="8.44"/><ellipse class="cls-17" cx="882.77" cy="126.83" rx="26.46" ry="6.38"/><ellipse class="cls-17" cx="882.73" cy="89.69" rx="31.79" ry="7.66"/><path class="cls-17" d="M856.31,126.83c0,3.52,11.84,6.37,26.46,6.37s26.45-2.85,26.45-6.37l5.31-37.14c0-4.23-14.24-7.66-31.8-7.66s-31.79,3.43-31.79,7.66Z"/><path class="cls-35" d="M923.3,121.1v9h-1.9v-3.6H918v3.6h-1.9v-9H918v3.6h3.44v-3.6Z"/><path class="cls-35" d="M924.63,134c.55-.63,1.13-1.31,1.69-2a2,2,0,0,0,.61-1.2.66.66,0,0,0-.68-.67.83.83,0,0,0-.76.91l-1-.29a1.78,1.78,0,0,1,1.8-1.73,1.72,1.72,0,0,1,1.8,1.67,2.55,2.55,0,0,1-.79,1.69l-.77.94h1.59v1.06h-3.45Z"/><path class="cls-35" d="M929,125.62a4.67,4.67,0,1,1,4.67,4.68A4.56,4.56,0,0,1,929,125.62Zm7.4,0a2.73,2.73,0,1,0-2.73,2.79A2.71,2.71,0,0,0,936.39,125.62Z"/><path class="cls-32" d="M821.18,58.9a4.67,4.67,0,1,1,4.67,4.68A4.56,4.56,0,0,1,821.18,58.9Zm7.39,0a2.72,2.72,0,1,0-2.72,2.8A2.71,2.71,0,0,0,828.57,58.9Z"/><path class="cls-32" d="M831.57,67.29c.56-.63,1.14-1.31,1.7-2a2,2,0,0,0,.61-1.2.67.67,0,0,0-.68-.67.82.82,0,0,0-.76.91l-1-.29a1.78,1.78,0,0,1,1.8-1.73A1.72,1.72,0,0,1,835,64a2.64,2.64,0,0,1-.79,1.7l-.77.93H835v1.07h-3.46Z"/><path class="cls-32" d="M926.74,52.15a4.67,4.67,0,1,1,4.67,4.68A4.56,4.56,0,0,1,926.74,52.15Zm7.39,0a2.72,2.72,0,1,0-2.72,2.8A2.72,2.72,0,0,0,934.13,52.15Z"/><path class="cls-32" d="M937.13,60.55c.56-.63,1.14-1.32,1.69-2a2.05,2.05,0,0,0,.62-1.21.67.67,0,0,0-.68-.67.82.82,0,0,0-.76.91l-1-.28a1.78,1.78,0,0,1,1.8-1.73,1.71,1.71,0,0,1,1.79,1.66,2.57,2.57,0,0,1-.79,1.7l-.76.93h1.59V61h-3.46Z"/><path class="cls-32" d="M887.86,35a4.53,4.53,0,0,1,4.67-4.67,4.75,4.75,0,0,1,2.05.44v2.08a3.07,3.07,0,0,0-2-.65,2.8,2.8,0,0,0,0,5.6,3.07,3.07,0,0,0,2-.64v2.09a4.9,4.9,0,0,1-2.05.42A4.52,4.52,0,0,1,887.86,35Z"/><path class="cls-32" d="M895.45,35a4.67,4.67,0,1,1,4.66,4.68A4.55,4.55,0,0,1,895.45,35Zm7.39,0a2.73,2.73,0,1,0-2.73,2.8A2.71,2.71,0,0,0,902.84,35Z"/><path class="cls-32" d="M905.84,43.4c.56-.63,1.13-1.32,1.69-2a2.06,2.06,0,0,0,.62-1.2.67.67,0,0,0-.69-.67.82.82,0,0,0-.76.91l-1-.29a1.78,1.78,0,0,1,1.79-1.73,1.71,1.71,0,0,1,1.8,1.66,2.57,2.57,0,0,1-.79,1.7c-.25.31-.51.63-.77.93h1.6v1.07h-3.46Z"/><path class="cls-32" d="M833.58,85.27v9.15h-1L827.81,89V94.3h-1.89V85.18h1l4.78,5.57V85.27Z"/><path class="cls-32" d="M834.91,98.18c.55-.63,1.13-1.32,1.69-2a2,2,0,0,0,.61-1.2.66.66,0,0,0-.68-.67.83.83,0,0,0-.76.91l-1-.29a1.78,1.78,0,0,1,1.8-1.73,1.72,1.72,0,0,1,1.8,1.66,2.55,2.55,0,0,1-.79,1.7l-.77.94h1.59v1.06h-3.45Z"/><path class="cls-32" d="M866.37,31.83V41h-1l-4.76-5.43v5.31h-1.9V31.74h1l4.77,5.58V31.83Z"/><path class="cls-32" d="M867.69,44.74c.56-.63,1.14-1.31,1.69-2a2,2,0,0,0,.62-1.2.67.67,0,0,0-.68-.67.82.82,0,0,0-.76.91l-1-.28a1.78,1.78,0,0,1,1.8-1.73,1.7,1.7,0,0,1,1.79,1.66,2.59,2.59,0,0,1-.79,1.7c-.24.31-.51.62-.76.93h1.59v1.07h-3.46Z"/><path class="cls-32" d="M938.21,77v9.14h-1l-4.76-5.43V86h-1.9V76.9h1l4.77,5.57V77Z"/><path class="cls-32" d="M939.54,89.9c.56-.64,1.14-1.32,1.69-2a2.05,2.05,0,0,0,.62-1.21.67.67,0,0,0-.68-.67.82.82,0,0,0-.76.91l-1-.28a1.78,1.78,0,0,1,1.8-1.73A1.71,1.71,0,0,1,943,86.61a2.57,2.57,0,0,1-.79,1.7l-.76.93H943v1.07h-3.46Z"/><path class="cls-36" d="M901,42.89A33,33,0,0,1,895.42,63"/><polygon class="cls-32" points="894.58 60.28 895.82 62.36 898.18 62.92 893.25 65.86 894.58 60.28"/><path class="cls-36" d="M919.68,116.92s-.58-10-13.51-8.73"/><polygon class="cls-32" points="907.52 105.8 906.91 108.15 908.18 110.22 902.62 108.79 907.52 105.8"/><circle class="cls-6" cx="903.03" cy="76.53" r="5.94"/><circle class="cls-37" cx="903.03" cy="76.54" r="5.94"/><circle class="cls-6" cx="886.88" cy="71.24" r="5.94"/><circle class="cls-37" cx="886.88" cy="71.25" r="5.94"/><circle class="cls-6" cx="870.82" cy="66" r="5.94"/><line class="cls-38" x1="876.6" y1="67.43" x2="881.42" y2="69"/><line class="cls-39" x1="892.71" y1="72.7" x2="897.52" y2="74.27"/><line class="cls-38" x1="876.26" y1="68.48" x2="881.07" y2="70.05"/><line class="cls-39" x1="892.36" y1="73.75" x2="897.18" y2="75.32"/><circle class="cls-37" cx="870.82" cy="66" r="5.94"/><circle class="cls-6" cx="877.34" cy="105.09" r="6.5"/><circle class="cls-6" cx="870.69" cy="122.27" r="6.5"/><circle class="cls-6" cx="893.98" cy="112.88" r="6.5"/><circle class="cls-37" cx="877.34" cy="105.09" r="6.5"/><circle class="cls-37" cx="870.69" cy="122.27" r="6.5"/><circle class="cls-37" cx="893.98" cy="112.88" r="6.5"/><line class="cls-40" x1="874.76" y1="111.18" x2="872.67" y2="116.08"/><line class="cls-40" x1="883.27" y1="107.74" x2="888.18" y2="109.83"/><path class="cls-41" d="M917.78,64.55c0,4.66-15.68,8.44-35,8.44s-35-3.78-35-8.44l8.56,62.28c0,3.52,11.84,6.37,26.46,6.37s26.45-2.85,26.45-6.37Z"/><ellipse class="cls-42" cx="882.77" cy="64.55" rx="35.01" ry="8.44"/><path class="cls-43" d="M45.76,103.39H43.08v11.49H41.52V103.39H39.86v-1.51h1.66V98.4h1.56v3.48h2.68Z"/><path class="cls-43" d="M59.1,107.55v7.33H57.56v-7c0-3.12-1.53-4.74-3.79-4.74s-3.85,1.62-3.85,4.74v7H48.36V94.08h1.56v10a4.75,4.75,0,0,1,4.19-2.39C56.78,101.65,59.1,103.55,59.1,107.55Z"/><path class="cls-43" d="M74.23,108.93H63.49a4.85,4.85,0,0,0,5,4.65,6.29,6.29,0,0,0,4.42-1.79v1.77a7,7,0,0,1-4.47,1.5,6.67,6.67,0,0,1-.26-13.33C72.05,101.73,74.31,105.11,74.23,108.93Zm-10.71-1.38h9c-.34-2.42-1.95-4.32-4.4-4.32A4.7,4.7,0,0,0,63.52,107.55Z"/><path class="cls-43" d="M98.2,94.08v20.8H96.64V112.2a5.67,5.67,0,0,1-4.94,2.86c-3.61,0-6.14-3-6.14-6.65s2.53-6.68,6.14-6.68a5.65,5.65,0,0,1,4.94,2.88V94.08Zm-1.56,14.33a5,5,0,0,0-4.78-5.18c-2.78,0-4.71,2.37-4.71,5.18s1.93,5.15,4.71,5.15A4.92,4.92,0,0,0,96.64,108.41Z"/><path class="cls-43" d="M102.52,98.19a1.09,1.09,0,0,1,1.09-1.12,1.12,1.12,0,0,1,1.12,1.12,1.09,1.09,0,0,1-1.12,1.09A1.06,1.06,0,0,1,102.52,98.19Zm.33,3.69h1.56v13h-1.56Z"/><path class="cls-43" d="M108,113l1.06-1.15a4.25,4.25,0,0,0,3.18,1.69,2.24,2.24,0,0,0,2.52-2.08c0-3.25-6.48-2.18-6.45-6.5a3.55,3.55,0,0,1,3.8-3.33,5.44,5.44,0,0,1,3.92,1.85l-1,1.12a4.12,4.12,0,0,0-2.94-1.46A2,2,0,0,0,109.9,105c-.05,3,6.47,2,6.45,6.53,0,2-1.67,3.56-4.14,3.56A5.62,5.62,0,0,1,108,113Z"/><path class="cls-43" d="M118.64,113l1.06-1.15a4.24,4.24,0,0,0,3.17,1.69c1.41,0,2.53-.8,2.53-2.08,0-3.25-6.48-2.18-6.45-6.5a3.54,3.54,0,0,1,3.79-3.33,5.45,5.45,0,0,1,3.93,1.85l-1,1.12a4.14,4.14,0,0,0-2.94-1.46,2,2,0,0,0-2.26,1.82c-.05,3,6.47,2,6.45,6.53,0,2-1.67,3.56-4.14,3.56A5.62,5.62,0,0,1,118.64,113Z"/><path class="cls-43" d="M129.27,108.36a6.58,6.58,0,1,1,6.58,6.7A6.53,6.53,0,0,1,129.27,108.36Zm11.6,0a5,5,0,1,0-5,5.17A5,5,0,0,0,140.87,108.36Z"/><path class="cls-43" d="M145.83,94.08h1.56v20.8h-1.56Z"/><path class="cls-43" d="M162.21,101.88v13h-1.56v-2.13a4.71,4.71,0,0,1-4.16,2.37c-2.68,0-5-1.9-5-5.91v-7.33H153v7.05c0,3.12,1.54,4.73,3.8,4.73,2,0,3.61-1.38,3.82-4.08v-7.7Z"/><path class="cls-43" d="M171.13,103.39h-2.68v11.49h-1.56V103.39h-1.66v-1.51h1.66V98.4h1.56v3.48h2.68Z"/><path class="cls-43" d="M173.73,98.19a1.09,1.09,0,0,1,1.09-1.12,1.11,1.11,0,0,1,1.12,1.12,1.09,1.09,0,0,1-1.12,1.09A1.07,1.07,0,0,1,173.73,98.19Zm.34,3.69h1.56v13h-1.56Z"/><path class="cls-43" d="M179.35,108.36a6.58,6.58,0,1,1,6.57,6.7A6.52,6.52,0,0,1,179.35,108.36Zm11.59,0a5,5,0,1,0-5,5.17A5,5,0,0,0,190.94,108.36Z"/><path class="cls-43" d="M206.62,107.55v7.33h-1.53v-7c0-3.12-1.54-4.74-3.8-4.74-2,0-3.61,1.38-3.82,4.09v7.69h-1.56v-13h1.56V104a4.72,4.72,0,0,1,4.16-2.36C204.31,101.65,206.62,103.55,206.62,107.55Z"/><path class="cls-43" d="M218.79,108.36a6.58,6.58,0,1,1,6.58,6.7A6.53,6.53,0,0,1,218.79,108.36Zm11.59,0a5,5,0,1,0-5,5.17A5,5,0,0,0,230.38,108.36Z"/><path class="cls-43" d="M236.91,96.81v5.07h2.7v1.51h-2.7v11.49h-1.53V103.39h-1.67v-1.51h1.67V96.53a2.37,2.37,0,0,1,2.44-2.6,3.22,3.22,0,0,1,1.79.52v1.61a2.66,2.66,0,0,0-1.5-.55A1.19,1.19,0,0,0,236.91,96.81Z"/><path class="cls-43" d="M250.3,105.78a9.13,9.13,0,0,1,9.41-9.41,9.51,9.51,0,0,1,4.14.88l0,4.19a6.31,6.31,0,0,0-4.05-1.3,5.64,5.64,0,0,0,0,11.28,6.15,6.15,0,0,0,4.05-1.3l0,4.22a10,10,0,0,1-4.14.85A9.13,9.13,0,0,1,250.3,105.78Z"/><path class="cls-43" d="M265.59,105.78a9.41,9.41,0,1,1,9.41,9.44A9.19,9.19,0,0,1,265.59,105.78Zm14.9,0a5.49,5.49,0,1,0-5.49,5.64A5.47,5.47,0,0,0,280.49,105.78Z"/><path class="cls-43" d="M286.31,114.08l2.52-3.25c.39-.52.76-1,.76-1.33a.52.52,0,0,0-.52-.55c-.39,0-.6.34-.71.76l-2.31-.91a3,3,0,0,1,3.07-2.47,2.78,2.78,0,0,1,3,2.7,5,5,0,0,1-1.53,3.12l-.29.42h1.87v2.31h-5.9Z"/><path class="cls-43" d="M302.69,97.54A2.36,2.36,0,1,1,305,99.91,2.36,2.36,0,0,1,302.69,97.54Zm.49,4.34h3.75v13h-3.75Z"/><path class="cls-43" d="M322.53,107v7.88h-3.75v-7c0-1.77-1-2.75-2.23-2.75a2.21,2.21,0,0,0-2.19,2.26v7.51h-3.74v-13h3.74v1.56a4.7,4.7,0,0,1,3.75-1.82C320.6,101.62,322.53,103.49,322.53,107Z"/><path class="cls-43" d="M332.61,105.39H330v9.49h-3.74v-9.49h-1.64v-3.51h1.64V98.4H330v3.48h2.6Z"/><path class="cls-43" d="M333.5,108.38a6.72,6.72,0,1,1,6.71,6.76A6.62,6.62,0,0,1,333.5,108.38Zm9.62,0a2.9,2.9,0,1,0-5.8,0,2.9,2.9,0,1,0,5.8,0Z"/><path class="cls-43" d="M378.4,101.88l-6,13h-3.53l-1.8-4.18-1.74,4.18h-3.59l-6-13h4l4.05,9.15,1.38-3.22-2.63-5.93h3.31l1.27,3.25,1.27-3.25h3.31L369,107.81l1.43,3.22,4.05-9.15Z"/><path class="cls-43" d="M392.13,101.88v13h-3.75v-1.66a4.85,4.85,0,0,1-3.9,1.84c-3.56,0-5.85-3-5.85-6.7s2.29-6.69,5.85-6.69a4.86,4.86,0,0,1,3.9,1.85v-1.64Zm-3.77,6.48a3,3,0,0,0-2.92-3.07,3.07,3.07,0,0,0,0,6.13A3,3,0,0,0,388.36,108.36Z"/><path class="cls-43" d="M402.34,105.39h-2.6v9.49H396v-9.49h-1.64v-3.51H396V98.4h3.74v3.48h2.6Z"/><path class="cls-43" d="M415.89,109.58H407a3.2,3.2,0,0,0,3.3,2.16,9.48,9.48,0,0,0,4.11-1l0,3.35a9.22,9.22,0,0,1-4.42,1,6.71,6.71,0,0,1-.29-13.42C413.94,101.67,416.25,105.29,415.89,109.58ZM407,107.24h5.28a2.64,2.64,0,0,0-2.55-2.11A2.8,2.8,0,0,0,407,107.24Z"/><path class="cls-43" d="M425.74,101.6v4.31c-1.66-.36-3.61,0-3.61,2.68v6.29h-3.74v-13h3.74v2A4.39,4.39,0,0,1,425.74,101.6Z"/><path class="cls-43" d="M449.22,108.38c0,3.67-2.52,6.68-6.13,6.68a5.66,5.66,0,0,1-4.92-2.83v7.85h-1.56v-18.2h1.56v2.68a5.66,5.66,0,0,1,4.92-2.83C446.7,101.73,449.22,104.72,449.22,108.38Zm-1.58,0c0-2.83-1.93-5.15-4.71-5.15a4.86,4.86,0,0,0-4.76,4.61v1.09a4.88,4.88,0,0,0,4.76,4.63C445.71,113.56,447.64,111.19,447.64,108.38Z"/><path class="cls-43" d="M457.93,101.67v1.77c-2.1-.15-3.74,1.61-3.74,4.29v7.15h-1.56v-13h1.56v2.39A4.25,4.25,0,0,1,457.93,101.67Z"/><path class="cls-43" d="M459.1,108.36a6.58,6.58,0,1,1,6.58,6.7A6.53,6.53,0,0,1,459.1,108.36Zm11.6,0a5,5,0,1,0-5,5.17A5,5,0,0,0,470.7,108.36Z"/><path class="cls-43" d="M487.39,94.08v20.8h-1.56V112.2a5.68,5.68,0,0,1-4.94,2.86c-3.61,0-6.14-3-6.14-6.65s2.53-6.68,6.14-6.68a5.66,5.66,0,0,1,4.94,2.88V94.08Zm-1.56,14.33a5,5,0,0,0-4.78-5.18c-2.79,0-4.71,2.37-4.71,5.18s1.92,5.15,4.71,5.15A4.92,4.92,0,0,0,485.83,108.41Z"/><path class="cls-43" d="M502.21,101.88v13h-1.56v-2.13a4.72,4.72,0,0,1-4.16,2.37c-2.68,0-5-1.9-5-5.91v-7.33H493v7.05c0,3.12,1.53,4.73,3.8,4.73,2,0,3.61-1.38,3.82-4.08v-7.7Z"/><path class="cls-43" d="M505.61,108.38a6.7,6.7,0,0,1,11-5.17v1.92a5.59,5.59,0,0,0-4.29-1.92,5.18,5.18,0,0,0,0,10.35,5.6,5.6,0,0,0,4.29-1.93v1.93a6.71,6.71,0,0,1-11-5.18Z"/><path class="cls-43" d="M531.67,108.93H520.93a4.84,4.84,0,0,0,5,4.65,6.31,6.31,0,0,0,4.42-1.79v1.77a7.07,7.07,0,0,1-4.47,1.5,6.67,6.67,0,0,1-.26-13.33C529.48,101.73,531.75,105.11,531.67,108.93ZM521,107.55h9c-.33-2.42-2-4.32-4.39-4.32A4.69,4.69,0,0,0,521,107.55Z"/><path class="cls-43" d="M533.8,113l1.06-1.15a4.25,4.25,0,0,0,3.18,1.69,2.24,2.24,0,0,0,2.52-2.08c0-3.25-6.48-2.18-6.45-6.5a3.55,3.55,0,0,1,3.8-3.33,5.44,5.44,0,0,1,3.92,1.85l-1,1.12a4.12,4.12,0,0,0-2.94-1.46,2,2,0,0,0-2.26,1.82c0,3,6.47,2,6.45,6.53,0,2-1.67,3.56-4.14,3.56A5.62,5.62,0,0,1,533.8,113Z"/><path class="cls-43" d="M566.12,101.88v13h-1.56V112.2a5.7,5.7,0,0,1-4.94,2.86c-3.62,0-6.14-3-6.14-6.65s2.52-6.68,6.14-6.68a5.67,5.67,0,0,1,4.94,2.88v-2.73Zm-1.56,6.53a5,5,0,0,0-4.79-5.18c-2.78,0-4.7,2.37-4.7,5.18s1.92,5.15,4.7,5.15A4.93,4.93,0,0,0,564.56,108.41Z"/><path class="cls-43" d="M600,101.88l-6,13h-3.53l-1.8-4.18-1.74,4.18H583.3l-6-13h3.95l4.06,9.15,1.38-3.22-2.63-5.93h3.3l1.28,3.25,1.27-3.25h3.3l-2.67,5.93L592,111l4-9.15Z"/><path class="cls-43" d="M612.89,109.58H604a3.2,3.2,0,0,0,3.3,2.16,9.48,9.48,0,0,0,4.11-1l0,3.35a9.22,9.22,0,0,1-4.42,1,6.71,6.71,0,0,1-.29-13.42C610.94,101.67,613.25,105.29,612.89,109.58ZM604,107.24h5.28a2.64,2.64,0,0,0-2.55-2.11A2.79,2.79,0,0,0,604,107.24Z"/><path class="cls-43" d="M628.18,101.88v13h-3.75v-1.66a4.85,4.85,0,0,1-3.9,1.84c-3.56,0-5.85-3-5.85-6.7s2.29-6.69,5.85-6.69a4.86,4.86,0,0,1,3.9,1.85v-1.64Zm-3.77,6.48a3,3,0,0,0-2.91-3.07,3.07,3.07,0,0,0,0,6.13A3,3,0,0,0,624.41,108.36Z"/><path class="cls-43" d="M639.25,114.88l-4.13-5.69v5.69h-3.74V94.08h3.74v13.63l4-5.83h4.4l-4.66,6.55,5.05,6.45Z"/><path class="cls-43" d="M53.4,137.88v13H49.66v-1.66a4.85,4.85,0,0,1-3.9,1.84c-3.56,0-5.85-3-5.85-6.7s2.29-6.69,5.85-6.69a4.86,4.86,0,0,1,3.9,1.85v-1.64Zm-3.77,6.48a3,3,0,0,0-2.91-3.07,3.07,3.07,0,0,0,0,6.13A3,3,0,0,0,49.63,144.36Z"/><path class="cls-43" d="M55.93,144.38a6.56,6.56,0,0,1,6.76-6.73,6.69,6.69,0,0,1,3.84,1v4a6.13,6.13,0,0,0-3.58-1.3,3,3,0,1,0,0,6,6.06,6.06,0,0,0,3.58-1.3v4a6.77,6.77,0,0,1-3.84,1A6.56,6.56,0,0,1,55.93,144.38Z"/><path class="cls-43" d="M69.26,133.54a2.36,2.36,0,1,1,2.34,2.37A2.36,2.36,0,0,1,69.26,133.54Zm.5,4.34H73.5v13H69.76Z"/><path class="cls-43" d="M90,130.08v20.8H86.22v-1.64a4.88,4.88,0,0,1-3.88,1.82c-3.56,0-5.85-3-5.85-6.7s2.29-6.69,5.85-6.69a4.91,4.91,0,0,1,3.88,1.82v-9.41Zm-3.74,14.28a3,3,0,0,0-2.92-3.07,3.07,3.07,0,0,0,0,6.13A3,3,0,0,0,86.22,144.36Z"/><path class="cls-43" d="M101.76,142.07a38.77,38.77,0,0,1,1.77-11.44h2.08a39.46,39.46,0,0,0,0,22.85h-2.08A38.72,38.72,0,0,1,101.76,142.07Z"/><path class="cls-43" d="M122.51,132.68v18.2h-2.08v-8.19h-9.57v8.19h-2.08v-18.2h2.08v8h9.57v-8Z"/><path class="cls-43" d="M135.3,143.84h-4v4h-1.89v-4h-4V142h4v-3.87h1.89V142h4Z"/><path class="cls-43" d="M136.84,153.48a39.46,39.46,0,0,0,0-22.85h2.08a37.76,37.76,0,0,1,0,22.85Z"/><path class="cls-43" d="M158.23,139.39h-2.67v11.49H154V139.39h-1.67v-1.51H154V134.4h1.56v3.48h2.67Z"/><path class="cls-43" d="M171.57,143.55v7.33H170v-7c0-3.12-1.54-4.74-3.8-4.74s-3.85,1.62-3.85,4.74v7h-1.56v-20.8h1.56v10a4.76,4.76,0,0,1,4.19-2.39C169.26,137.65,171.57,139.55,171.57,143.55Z"/><path class="cls-43" d="M187,137.88v13h-1.56V148.2a5.7,5.7,0,0,1-4.94,2.86c-3.62,0-6.14-3-6.14-6.65s2.52-6.68,6.14-6.68a5.67,5.67,0,0,1,4.94,2.88v-2.73Zm-1.56,6.53a5,5,0,0,0-4.79-5.18c-2.78,0-4.7,2.37-4.7,5.18s1.92,5.15,4.7,5.15A4.93,4.93,0,0,0,185.46,144.41Z"/><path class="cls-43" d="M195.93,139.39h-2.67v11.49H191.7V139.39H190v-1.51h1.67V134.4h1.56v3.48h2.67Z"/><path class="cls-43" d="M206.59,144.38a6.7,6.7,0,0,1,11-5.17v1.92a5.6,5.6,0,0,0-4.3-1.92,5.18,5.18,0,0,0,0,10.35,5.61,5.61,0,0,0,4.3-1.93v1.93a6.58,6.58,0,0,1-4.35,1.53A6.49,6.49,0,0,1,206.59,144.38Z"/><path class="cls-43" d="M232,143.55v7.33h-1.53v-7c0-3.12-1.54-4.74-3.8-4.74s-3.85,1.62-3.85,4.74v7h-1.56v-20.8h1.56v10a4.75,4.75,0,0,1,4.19-2.39C229.66,137.65,232,139.55,232,143.55Z"/><path class="cls-43" d="M247.1,144.93H236.36a4.85,4.85,0,0,0,5,4.65,6.31,6.31,0,0,0,4.42-1.79v1.77a7.08,7.08,0,0,1-4.48,1.5,6.67,6.67,0,0,1-.26-13.33C244.92,137.73,247.18,141.11,247.1,144.93Zm-10.71-1.38h9.05c-.34-2.42-1.95-4.32-4.4-4.32A4.7,4.7,0,0,0,236.39,143.55Z"/><path class="cls-43" d="M269,143.19l0,7.69h-1.56V143.5c0-2.65-1.32-4.37-3.48-4.37s-3.48,1.72-3.48,4.55l0,7.2h-1.53V143.5c0-2.65-1.33-4.37-3.49-4.37s-3.48,1.72-3.48,4.55v7.2h-1.56v-13h1.56v2a4.31,4.31,0,0,1,3.82-2.18,4.44,4.44,0,0,1,4.24,2.94,4.59,4.59,0,0,1,4.29-2.94C266.89,137.65,269,139.6,269,143.19Z"/><path class="cls-43" d="M273.1,134.19a1.09,1.09,0,0,1,1.09-1.12,1.11,1.11,0,0,1,1.12,1.12,1.09,1.09,0,0,1-1.12,1.09A1.07,1.07,0,0,1,273.1,134.19Zm.34,3.69H275v13h-1.56Z"/><path class="cls-43" d="M291.35,137.88v13h-1.56V148.2a5.67,5.67,0,0,1-4.94,2.86c-3.61,0-6.13-3-6.13-6.65s2.52-6.68,6.13-6.68a5.65,5.65,0,0,1,4.94,2.88v-2.73Zm-1.56,6.53a5,5,0,0,0-4.78-5.18c-2.78,0-4.71,2.37-4.71,5.18s1.93,5.15,4.71,5.15A4.92,4.92,0,0,0,289.79,144.41Z"/><path class="cls-43" d="M295.67,130.08h1.56v20.8h-1.56Z"/><path class="cls-43" d="M301.54,130.08h1.56v20.8h-1.56Z"/><path class="cls-43" d="M317.77,137.88,310,156.08h-1.56l2.34-5.51-5.46-12.69H307l4.55,11,4.5-11Z"/><path class="cls-43" d="M346.68,137.88,340,151h-.86l-2.73-5.49L333.73,151h-.88l-6.66-13.16h1.69l5.46,10.9,2.29-4.76-3-6.14h1.64l2.19,4.66,2.18-4.66h1.64l-3,6.14,2.34,4.76,5.43-10.9Z"/><path class="cls-43" d="M360,144.93H349.23a4.84,4.84,0,0,0,5,4.65,6.31,6.31,0,0,0,4.42-1.79v1.77a7.07,7.07,0,0,1-4.47,1.5,6.67,6.67,0,0,1-.26-13.33C357.78,137.73,360,141.11,360,144.93Zm-10.72-1.38h9.05c-.34-2.42-1.95-4.32-4.39-4.32A4.71,4.71,0,0,0,349.25,143.55Z"/><path class="cls-43" d="M375,137.88v13h-1.56V148.2a5.7,5.7,0,0,1-4.94,2.86c-3.62,0-6.14-3-6.14-6.65s2.52-6.68,6.14-6.68a5.67,5.67,0,0,1,4.94,2.88v-2.73Zm-1.56,6.53a5,5,0,0,0-4.79-5.18c-2.78,0-4.7,2.37-4.7,5.18s1.92,5.15,4.7,5.15A4.93,4.93,0,0,0,373.41,144.41Z"/><path class="cls-43" d="M383.88,139.39h-2.67v11.49h-1.56V139.39H378v-1.51h1.67V134.4h1.56v3.48h2.67Z"/><path class="cls-43" d="M397.22,143.55v7.33h-1.53v-7c0-3.12-1.54-4.74-3.8-4.74s-3.85,1.62-3.85,4.74v7h-1.56v-20.8H388v10a4.76,4.76,0,0,1,4.19-2.39C394.91,137.65,397.22,139.55,397.22,143.55Z"/><path class="cls-43" d="M412.35,144.93H401.62a4.84,4.84,0,0,0,5,4.65,6.31,6.31,0,0,0,4.42-1.79v1.77a7.07,7.07,0,0,1-4.47,1.5,6.67,6.67,0,0,1-.26-13.33C410.17,137.73,412.43,141.11,412.35,144.93Zm-10.71-1.38h9.05c-.34-2.42-1.95-4.32-4.39-4.32A4.71,4.71,0,0,0,401.64,143.55Z"/><path class="cls-43" d="M420.93,137.67v1.77c-2.1-.15-3.74,1.61-3.74,4.29v7.15h-1.56v-13h1.56v2.39A4.26,4.26,0,0,1,420.93,137.67Z"/><path class="cls-43" d="M422.26,149l1.07-1.15a4.23,4.23,0,0,0,3.17,1.69A2.24,2.24,0,0,0,429,147.5c0-3.25-6.47-2.18-6.45-6.5a3.55,3.55,0,0,1,3.8-3.33,5.44,5.44,0,0,1,3.92,1.85l-1,1.12a4.12,4.12,0,0,0-2.94-1.46,2,2,0,0,0-2.26,1.82c-.05,3,6.48,2,6.45,6.53,0,2-1.66,3.56-4.13,3.56A5.63,5.63,0,0,1,422.26,149Z"/><path class="cls-43" d="M461.49,143.19l0,7.69h-1.56V143.5c0-2.65-1.33-4.37-3.49-4.37s-3.48,1.72-3.48,4.55l0,7.2h-1.53V143.5c0-2.65-1.33-4.37-3.48-4.37s-3.49,1.72-3.49,4.55v7.2h-1.56v-13h1.56v2a4.32,4.32,0,0,1,3.82-2.18,4.42,4.42,0,0,1,4.24,2.94,4.6,4.6,0,0,1,4.29-2.94C459.36,137.65,461.49,139.6,461.49,143.19Z"/><path class="cls-43" d="M465.58,134.19a1.09,1.09,0,0,1,1.09-1.12,1.12,1.12,0,0,1,1.12,1.12,1.09,1.09,0,0,1-1.12,1.09A1.06,1.06,0,0,1,465.58,134.19Zm.33,3.69h1.56v13h-1.56Z"/><path class="cls-43" d="M482.81,143.55v7.33h-1.53v-7c0-3.12-1.53-4.74-3.8-4.74-2,0-3.61,1.38-3.82,4.09v7.69H472.1v-13h1.56V140a4.74,4.74,0,0,1,4.16-2.36C480.5,137.65,482.81,139.55,482.81,143.55Z"/><path class="cls-43" d="M498,144.93H487.21a4.84,4.84,0,0,0,5,4.65,6.31,6.31,0,0,0,4.42-1.79v1.77a7.07,7.07,0,0,1-4.47,1.5,6.67,6.67,0,0,1-.26-13.33C495.76,137.73,498,141.11,498,144.93Zm-10.72-1.38h9c-.34-2.42-1.95-4.32-4.39-4.32A4.71,4.71,0,0,0,487.23,143.55Z"/><path class="cls-43" d="M506.52,137.67v1.77c-2.1-.15-3.74,1.61-3.74,4.29v7.15h-1.56v-13h1.56v2.39A4.26,4.26,0,0,1,506.52,137.67Z"/><path class="cls-43" d="M520.33,137.88v13h-1.56V148.2a5.68,5.68,0,0,1-4.94,2.86c-3.61,0-6.14-3-6.14-6.65s2.53-6.68,6.14-6.68a5.66,5.66,0,0,1,4.94,2.88v-2.73Zm-1.56,6.53a5,5,0,0,0-4.78-5.18c-2.79,0-4.71,2.37-4.71,5.18s1.92,5.15,4.71,5.15A4.92,4.92,0,0,0,518.77,144.41Z"/><path class="cls-43" d="M524.65,130.08h1.56v20.8h-1.56Z"/><path class="cls-43" d="M529.51,149l1.06-1.15a4.25,4.25,0,0,0,3.18,1.69,2.24,2.24,0,0,0,2.52-2.08c0-3.25-6.48-2.18-6.45-6.5a3.55,3.55,0,0,1,3.8-3.33,5.44,5.44,0,0,1,3.92,1.85l-1,1.12a4.12,4.12,0,0,0-2.94-1.46,2,2,0,0,0-2.26,1.82c0,3,6.47,2,6.45,6.53,0,2-1.67,3.56-4.14,3.56A5.62,5.62,0,0,1,529.51,149Z"/><path class="cls-43" d="M540.74,147.61h1.59l-1.28,6.11h-1.12Z"/><path class="cls-43" d="M566.14,137.88v13h-1.56V148.2a5.67,5.67,0,0,1-4.94,2.86c-3.61,0-6.14-3-6.14-6.65s2.53-6.68,6.14-6.68a5.65,5.65,0,0,1,4.94,2.88v-2.73Zm-1.56,6.53a5,5,0,0,0-4.78-5.18c-2.78,0-4.71,2.37-4.71,5.18s1.93,5.15,4.71,5.15A4.92,4.92,0,0,0,564.58,144.41Z"/><path class="cls-43" d="M570.46,130.08H572v20.8h-1.56Z"/><path class="cls-43" d="M580.93,139.39h-2.67v11.49H576.7V139.39H575v-1.51h1.67V134.4h1.56v3.48h2.67Z"/><path class="cls-43" d="M594.43,144.93H583.69a4.84,4.84,0,0,0,5,4.65,6.31,6.31,0,0,0,4.42-1.79v1.77a7.07,7.07,0,0,1-4.47,1.5,6.67,6.67,0,0,1-.26-13.33C592.24,137.73,594.51,141.11,594.43,144.93Zm-10.71-1.38h9c-.33-2.42-2-4.32-4.39-4.32A4.69,4.69,0,0,0,583.72,143.55Z"/><path class="cls-43" d="M603,137.67v1.77c-2.11-.15-3.75,1.61-3.75,4.29v7.15H597.7v-13h1.56v2.39A4.27,4.27,0,0,1,603,137.67Z"/><path class="cls-43" d="M605.61,134.19a1.09,1.09,0,0,1,1.09-1.12,1.12,1.12,0,0,1,1.12,1.12,1.09,1.09,0,0,1-1.12,1.09A1.07,1.07,0,0,1,605.61,134.19Zm.34,3.69h1.56v13H606Z"/><path class="cls-43" d="M622.85,143.55v7.33h-1.54v-7c0-3.12-1.53-4.74-3.79-4.74-2,0-3.62,1.38-3.83,4.09v7.69h-1.56v-13h1.56V140a4.74,4.74,0,0,1,4.16-2.36C620.53,137.65,622.85,139.55,622.85,143.55Z"/><path class="cls-43" d="M638.29,150.31c0,4.06-3.09,5.95-6.14,5.95a9.1,9.1,0,0,1-4.86-1.45l0-1.69a8.14,8.14,0,0,0,4.65,1.69,4.51,4.51,0,0,0,4.81-4.86v-1.82a5.69,5.69,0,0,1-5,2.93c-3.61,0-6.14-3-6.14-6.65s2.53-6.68,6.14-6.68a5.63,5.63,0,0,1,4.94,2.91v-2.76h1.53Zm-1.56-5.9a5,5,0,0,0-4.78-5.18c-2.79,0-4.71,2.37-4.71,5.18s1.92,5.15,4.71,5.15A4.92,4.92,0,0,0,636.73,144.41Z"/><path class="cls-43" d="M53.77,180.38c0,3.67-2.52,6.68-6.14,6.68a5.63,5.63,0,0,1-4.91-2.83v7.85H41.16v-18.2h1.56v2.68a5.63,5.63,0,0,1,4.91-2.83C51.25,173.73,53.77,176.72,53.77,180.38Zm-1.59,0c0-2.83-1.92-5.15-4.7-5.15a4.86,4.86,0,0,0-4.76,4.61v1.09a4.88,4.88,0,0,0,4.76,4.63C50.26,185.56,52.18,183.19,52.18,180.38Z"/><path class="cls-43" d="M62.48,173.67v1.77c-2.11-.15-3.75,1.61-3.75,4.29v7.15H57.17v-13h1.56v2.39A4.27,4.27,0,0,1,62.48,173.67Z"/><path class="cls-43" d="M65.08,170.19a1.09,1.09,0,0,1,1.09-1.12,1.12,1.12,0,0,1,1.12,1.12,1.09,1.09,0,0,1-1.12,1.09A1.07,1.07,0,0,1,65.08,170.19Zm.34,3.69H67v13H65.42Z"/><path class="cls-43" d="M90.25,179.19l0,7.69H88.66V179.5c0-2.65-1.33-4.37-3.48-4.37s-3.49,1.72-3.49,4.55l0,7.2H80.13V179.5c0-2.65-1.32-4.37-3.48-4.37s-3.49,1.72-3.49,4.55v7.2H71.6v-13h1.56v2A4.33,4.33,0,0,1,77,173.65a4.42,4.42,0,0,1,4.23,2.94,4.6,4.6,0,0,1,4.29-2.94C88.11,173.65,90.25,175.6,90.25,179.19Z"/><path class="cls-43" d="M105.66,173.88v13H104.1V184.2a5.67,5.67,0,0,1-4.94,2.86c-3.61,0-6.13-3-6.13-6.65s2.52-6.68,6.13-6.68a5.65,5.65,0,0,1,4.94,2.88v-2.73Zm-1.56,6.53a5,5,0,0,0-4.78-5.18c-2.78,0-4.71,2.37-4.71,5.18s1.93,5.15,4.71,5.15A4.92,4.92,0,0,0,104.1,180.41Z"/><path class="cls-43" d="M115.28,173.67v1.77c-2.1-.15-3.74,1.61-3.74,4.29v7.15H110v-13h1.56v2.39A4.25,4.25,0,0,1,115.28,173.67Z"/><path class="cls-43" d="M128.36,173.88l-7.75,18.2h-1.56l2.34-5.51-5.46-12.69h1.69l4.55,11,4.5-11Z"/><path class="cls-43" d="M157.69,179.19l0,7.69H156.1V179.5c0-2.65-1.32-4.37-3.48-4.37s-3.49,1.72-3.49,4.55l0,7.2h-1.54V179.5c0-2.65-1.32-4.37-3.48-4.37s-3.48,1.72-3.48,4.55v7.2h-1.56v-13h1.56v2a4.31,4.31,0,0,1,3.82-2.18,4.44,4.44,0,0,1,4.24,2.94,4.59,4.59,0,0,1,4.29-2.94C155.56,173.65,157.69,175.6,157.69,179.19Z"/><path class="cls-43" d="M161.77,170.19a1.09,1.09,0,0,1,1.09-1.12,1.11,1.11,0,0,1,1.12,1.12,1.09,1.09,0,0,1-1.12,1.09A1.07,1.07,0,0,1,161.77,170.19Zm.34,3.69h1.56v13h-1.56Z"/><path class="cls-43" d="M179,179.55v7.33h-1.54v-7c0-3.12-1.53-4.74-3.79-4.74-2,0-3.62,1.38-3.82,4.09v7.69H168.3v-13h1.56V176a4.72,4.72,0,0,1,4.16-2.36C176.69,173.65,179,175.55,179,179.55Z"/><path class="cls-43" d="M194.14,180.93H183.4a4.85,4.85,0,0,0,5,4.65,6.29,6.29,0,0,0,4.42-1.79v1.77a7,7,0,0,1-4.47,1.5,6.67,6.67,0,0,1-.26-13.33C192,173.73,194.22,177.11,194.14,180.93Zm-10.71-1.38h9c-.34-2.42-1.95-4.32-4.4-4.32A4.7,4.7,0,0,0,183.43,179.55Z"/><path class="cls-43" d="M202.72,173.67v1.77c-2.11-.15-3.74,1.61-3.74,4.29v7.15h-1.56v-13H199v2.39A4.25,4.25,0,0,1,202.72,173.67Z"/><path class="cls-43" d="M216.53,173.88v13H215V184.2a5.7,5.7,0,0,1-4.94,2.86c-3.62,0-6.14-3-6.14-6.65s2.52-6.68,6.14-6.68a5.67,5.67,0,0,1,4.94,2.88v-2.73ZM215,180.41a5,5,0,0,0-4.79-5.18c-2.78,0-4.7,2.37-4.7,5.18s1.92,5.15,4.7,5.15A4.93,4.93,0,0,0,215,180.41Z"/><path class="cls-43" d="M220.84,166.08h1.56v20.8h-1.56Z"/><path class="cls-43" d="M225.7,185l1.07-1.15a4.23,4.23,0,0,0,3.17,1.69,2.24,2.24,0,0,0,2.52-2.08c0-3.25-6.47-2.18-6.45-6.5a3.56,3.56,0,0,1,3.8-3.33,5.45,5.45,0,0,1,3.93,1.85l-1,1.12a4.11,4.11,0,0,0-2.93-1.46,2,2,0,0,0-2.27,1.82c0,3,6.48,2,6.45,6.53,0,2-1.66,3.56-4.13,3.56A5.66,5.66,0,0,1,225.7,185Z"/><path class="cls-43" d="M246.29,170.19a1.1,1.1,0,0,1,1.1-1.12,1.11,1.11,0,0,1,1.11,1.12,1.08,1.08,0,0,1-1.11,1.09A1.07,1.07,0,0,1,246.29,170.19Zm.34,3.69h1.56v13h-1.56Z"/><path class="cls-43" d="M263.53,179.55v7.33H262v-7c0-3.12-1.54-4.74-3.8-4.74-2,0-3.61,1.38-3.82,4.09v7.69h-1.56v-13h1.56V176a4.73,4.73,0,0,1,4.16-2.36C261.22,173.65,263.53,175.55,263.53,179.55Z"/><path class="cls-43" d="M272.24,175.39h-2.68v11.49H268V175.39h-1.66v-1.51H268V170.4h1.56v3.48h2.68Z"/><path class="cls-43" d="M273.41,180.36a6.58,6.58,0,1,1,6.58,6.7A6.53,6.53,0,0,1,273.41,180.36Zm11.6,0a5,5,0,1,0-5,5.17A5,5,0,0,0,285,180.36Z"/><path class="cls-43" d="M297.93,185l1.07-1.15a4.23,4.23,0,0,0,3.17,1.69,2.24,2.24,0,0,0,2.52-2.08c0-3.25-6.47-2.18-6.45-6.5a3.55,3.55,0,0,1,3.8-3.33,5.44,5.44,0,0,1,3.92,1.85l-1,1.12a4.12,4.12,0,0,0-2.94-1.46A2,2,0,0,0,299.8,177c-.05,3,6.48,2,6.45,6.53,0,2-1.66,3.56-4.13,3.56A5.63,5.63,0,0,1,297.93,185Z"/><path class="cls-43" d="M320.89,180.93H310.15a4.84,4.84,0,0,0,5,4.65,6.31,6.31,0,0,0,4.42-1.79v1.77a7.07,7.07,0,0,1-4.47,1.5,6.67,6.67,0,0,1-.26-13.33C318.7,173.73,321,177.11,320.89,180.93Zm-10.71-1.38h9c-.33-2.42-2-4.32-4.39-4.32A4.69,4.69,0,0,0,310.18,179.55Z"/><path class="cls-43" d="M323.25,180.38a6.7,6.7,0,0,1,11-5.17v1.92a5.59,5.59,0,0,0-4.29-1.92,5.18,5.18,0,0,0,0,10.35,5.6,5.6,0,0,0,4.29-1.93v1.93a6.58,6.58,0,0,1-4.35,1.53A6.49,6.49,0,0,1,323.25,180.38Z"/><path class="cls-43" d="M337,180.36a6.58,6.58,0,1,1,6.58,6.7A6.53,6.53,0,0,1,337,180.36Zm11.6,0a5,5,0,1,0-5,5.17A5,5,0,0,0,348.58,180.36Z"/><path class="cls-43" d="M364.26,179.55v7.33h-1.54v-7c0-3.12-1.53-4.74-3.79-4.74-2,0-3.62,1.38-3.83,4.09v7.69h-1.56v-13h1.56V176a4.74,4.74,0,0,1,4.16-2.36C361.94,173.65,364.26,175.55,364.26,179.55Z"/><path class="cls-43" d="M379.7,166.08v20.8h-1.56V184.2a5.68,5.68,0,0,1-4.94,2.86c-3.62,0-6.14-3-6.14-6.65s2.52-6.68,6.14-6.68a5.66,5.66,0,0,1,4.94,2.88V166.08Zm-1.56,14.33a5,5,0,0,0-4.78-5.18c-2.79,0-4.71,2.37-4.71,5.18s1.92,5.15,4.71,5.15A4.92,4.92,0,0,0,378.14,180.41Z"/><path class="cls-43" d="M395.74,173.88v13h-1.56V184.2a5.68,5.68,0,0,1-4.94,2.86c-3.61,0-6.14-3-6.14-6.65s2.53-6.68,6.14-6.68a5.66,5.66,0,0,1,4.94,2.88v-2.73Zm-1.56,6.53a5,5,0,0,0-4.78-5.18c-2.79,0-4.71,2.37-4.71,5.18s1.92,5.15,4.71,5.15A4.92,4.92,0,0,0,394.18,180.41Z"/><path class="cls-43" d="M405.36,173.67v1.77c-2.11-.15-3.74,1.61-3.74,4.29v7.15h-1.56v-13h1.56v2.39A4.25,4.25,0,0,1,405.36,173.67Z"/><path class="cls-43" d="M418.44,173.88l-7.75,18.2h-1.56l2.34-5.51L406,173.88h1.69l4.55,11,4.5-11Z"/><path class="cls-43" d="M447.77,179.19l0,7.69h-1.56V179.5c0-2.65-1.33-4.37-3.48-4.37s-3.49,1.72-3.49,4.55l0,7.2h-1.54V179.5c0-2.65-1.32-4.37-3.48-4.37s-3.49,1.72-3.49,4.55v7.2h-1.56v-13h1.56v2a4.33,4.33,0,0,1,3.83-2.18,4.42,4.42,0,0,1,4.23,2.94,4.6,4.6,0,0,1,4.29-2.94C445.63,173.65,447.77,175.6,447.77,179.19Z"/><path class="cls-43" d="M451.85,170.19a1.09,1.09,0,0,1,1.09-1.12,1.12,1.12,0,0,1,1.12,1.12,1.09,1.09,0,0,1-1.12,1.09A1.06,1.06,0,0,1,451.85,170.19Zm.34,3.69h1.56v13h-1.56Z"/><path class="cls-43" d="M469.09,179.55v7.33h-1.54v-7c0-3.12-1.53-4.74-3.8-4.74-2,0-3.61,1.38-3.82,4.09v7.69h-1.56v-13h1.56V176a4.74,4.74,0,0,1,4.16-2.36C466.77,173.65,469.09,175.55,469.09,179.55Z"/><path class="cls-43" d="M484.22,180.93H473.48a4.84,4.84,0,0,0,5,4.65,6.31,6.31,0,0,0,4.42-1.79v1.77a7.07,7.07,0,0,1-4.47,1.5,6.67,6.67,0,0,1-.26-13.33C482,173.73,484.29,177.11,484.22,180.93Zm-10.72-1.38h9.05c-.34-2.42-1.95-4.32-4.39-4.32A4.71,4.71,0,0,0,473.5,179.55Z"/><path class="cls-43" d="M492.8,173.67v1.77c-2.11-.15-3.75,1.61-3.75,4.29v7.15h-1.56v-13h1.56v2.39A4.27,4.27,0,0,1,492.8,173.67Z"/><path class="cls-43" d="M506.6,173.88v13H505V184.2a5.67,5.67,0,0,1-4.94,2.86c-3.61,0-6.13-3-6.13-6.65s2.52-6.68,6.13-6.68a5.65,5.65,0,0,1,4.94,2.88v-2.73ZM505,180.41a5,5,0,0,0-4.78-5.18c-2.78,0-4.71,2.37-4.71,5.18s1.93,5.15,4.71,5.15A4.92,4.92,0,0,0,505,180.41Z"/><path class="cls-43" d="M510.92,166.08h1.56v20.8h-1.56Z"/><path class="cls-43" d="M515.78,185l1.07-1.15a4.23,4.23,0,0,0,3.17,1.69,2.24,2.24,0,0,0,2.52-2.08c0-3.25-6.47-2.18-6.45-6.5a3.55,3.55,0,0,1,3.8-3.33,5.44,5.44,0,0,1,3.92,1.85l-1,1.12a4.12,4.12,0,0,0-2.94-1.46,2,2,0,0,0-2.26,1.82c0,3,6.48,2,6.45,6.53,0,2-1.66,3.56-4.13,3.56A5.63,5.63,0,0,1,515.78,185Z"/><path class="cls-43" d="M536.14,178A39.17,39.17,0,0,1,538,166.63h1.56a37.16,37.16,0,0,0,0,22.85H538A39.32,39.32,0,0,1,536.14,178Z"/><path class="cls-43" d="M540.69,180.38a6.7,6.7,0,0,1,11-5.17v1.92a5.58,5.58,0,0,0-4.29-1.92,5.18,5.18,0,0,0,0,10.35,5.58,5.58,0,0,0,4.29-1.93v1.93a6.71,6.71,0,0,1-11-5.18Z"/><path class="cls-43" d="M555.33,166.08h1.56v20.8h-1.56Z"/><path class="cls-43" d="M572.93,173.88v13h-1.56V184.2a5.7,5.7,0,0,1-4.94,2.86c-3.62,0-6.14-3-6.14-6.65s2.52-6.68,6.14-6.68a5.67,5.67,0,0,1,4.94,2.88v-2.73Zm-1.56,6.53a5,5,0,0,0-4.79-5.18c-2.78,0-4.7,2.37-4.7,5.18s1.92,5.15,4.7,5.15A4.93,4.93,0,0,0,571.37,180.41Z"/><path class="cls-43" d="M587.72,173.88,580,192.08h-1.56l2.34-5.51-5.46-12.69H577l4.55,11,4.5-11Z"/><path class="cls-43" d="M588.94,185l1.07-1.15a4.23,4.23,0,0,0,3.17,1.69c1.41,0,2.52-.8,2.52-2.08,0-3.25-6.47-2.18-6.44-6.5a3.54,3.54,0,0,1,3.79-3.33,5.45,5.45,0,0,1,3.93,1.85l-1,1.12a4.14,4.14,0,0,0-2.94-1.46,2,2,0,0,0-2.26,1.82c-.06,3,6.47,2,6.44,6.53,0,2-1.66,3.56-4.13,3.56A5.66,5.66,0,0,1,588.94,185Z"/><path class="cls-43" d="M600.12,168.68h1.75l-.29,14.8h-1.17Zm0,17.24a1.08,1.08,0,0,1,1.1-1.09,1.1,1.1,0,0,1,1.09,1.09,1.09,1.09,0,0,1-1.09,1.09A1.07,1.07,0,0,1,600.12,185.92Z"/><path class="cls-43" d="M604.93,189.48a37.16,37.16,0,0,0,0-22.85h1.56a36.77,36.77,0,0,1,0,22.85Z"/></g></g></svg>