<svg xmlns="http://www.w3.org/2000/svg" viewBox="0 0 1305.2114 540.7369"><defs><style>.cls-1{fill:#3daaa1;}.cls-2{fill:#7c7169;}.cls-3{fill:#cc6436;}.cls-4{fill:#b78f6a;}.cls-5{fill:#d8bca4;}.cls-10,.cls-12,.cls-13,.cls-6,.cls-9{fill:none;}.cls-6,.cls-8{stroke:#5c5052;}.cls-10,.cls-12,.cls-6,.cls-8,.cls-9{stroke-miterlimit:10;}.cls-6{stroke-width:0.4769px;}.cls-7{fill:#d1b090;}.cls-14,.cls-8{fill:#fff;}.cls-8{stroke-width:0.1884px;}.cls-10,.cls-12,.cls-9{stroke:#fff;}.cls-9{stroke-width:2.9805px;}.cls-10{stroke-width:2.7032px;}.cls-11{fill:#754c24;}.cls-12{stroke-width:2.7896px;}.cls-13{stroke:#3daaa1;stroke-linejoin:round;stroke-width:5.8261px;}</style></defs><g id="Layer_2" data-name="Layer 2"><g id="Layer_19" data-name="Layer 19"><path class="cls-1" d="M74.3073,76.2255c.242-3.3815,1.1532-6.6913,1.3475-10.0759.2933-5.1081-1.0524-10.1577-1.4379-15.26C73.59,42.5925,75.4933,34.0816,73.47,26.01A190.4576,190.4576,0,0,1,80.14,65.8515a71.5205,71.5205,0,0,0,.8,8.6335c.9834,5.3751,3.4351,10.7694,2.1831,16.0883-.292,1.2407-6.9963-2.3377-7.67-3.3359C73.7607,84.7293,74.106,79.0381,74.3073,76.2255Z"/><path class="cls-1" d="M52.9309,85.4117c.2419-3.3815,1.1532-6.6913,1.3475-10.0759.2932-5.1081-1.0524-10.1577-1.438-15.26-.627-8.2974,1.2765-16.8083-.7473-24.8795a190.452,190.452,0,0,1,6.6708,39.8411,71.5223,71.5223,0,0,0,.8,8.6336c.9833,5.375,3.4351,10.7694,2.1831,16.0882-.292,1.2407-6.9963-2.3376-7.67-3.3358C52.3843,93.9155,52.73,88.2243,52.9309,85.4117Z"/><path class="cls-1" d="M71.0159,74.6353c-.4932-4.3226-.6243-8.6922-1.4165-12.97-.5707-3.082-1.483-6.1068-1.7849-9.2266a47.7757,47.7757,0,0,1,.8748-12.026A31.0454,31.0454,0,0,0,63.3068,60.2c.3343,4.4974,1.65,8.8571,2.4449,13.2963,1.6982,9.4825,1.0125,19.2784,2.8156,28.7416,1.6939,8.89,4.553-4.7814,4.647-7.1242C73.49,88.2346,71.7913,81.4317,71.0159,74.6353Z"/><path class="cls-1" d="M41.1762,84.0859c.242-3.3815,1.1533-6.6913,1.3476-10.0759.2932-5.1081-1.0524-10.1577-1.438-15.26-.627-8.2974,1.2765-16.8083-.7474-24.8795a190.4576,190.4576,0,0,1,6.6709,39.8411,71.5,71.5,0,0,0,.8,8.6335c.9833,5.375,3.4351,10.7694,2.1831,16.0883-.2921,1.2407-6.9963-2.3377-7.67-3.3359C40.63,92.59,40.975,86.8985,41.1762,84.0859Z"/><path class="cls-1" d="M26.6738,74.4175c.242-3.3815,1.1533-6.6913,1.3476-10.0759.2932-5.1081-1.0524-10.1577-1.438-15.26-.627-8.2974,1.2765-16.8083-.7474-24.8795a190.4587,190.4587,0,0,1,6.6709,39.8411,71.502,71.502,0,0,0,.8,8.6336c.9833,5.375,3.4351,10.7694,2.1831,16.0882-.2921,1.2407-6.9963-2.3377-7.67-3.3358C26.1273,82.9213,26.4726,77.23,26.6738,74.4175Z"/><path class="cls-1" d="M18.4463,80.8406c-.4932-4.3226-.6243-8.6922-1.4165-12.97-.5707-3.082-1.4829-6.1068-1.7849-9.2266a47.7757,47.7757,0,0,1,.8748-12.026,31.0454,31.0454,0,0,0-5.3825,19.7875c.3343,4.4974,1.65,8.8571,2.4449,13.2963,1.6982,9.4826,1.0126,19.2784,2.8156,28.7417,1.6939,8.89,4.553-4.7815,4.647-7.1243C20.9206,94.44,19.2217,87.637,18.4463,80.8406Z"/><path class="cls-1" d="M1237.1133,73.8c.242-3.3815,1.1533-6.6913,1.3476-10.0759.2932-5.1081-1.0525-10.1577-1.438-15.26-.627-8.2975,1.2764-16.8084-.7474-24.88a190.4587,190.4587,0,0,1,6.6709,39.8411,71.502,71.502,0,0,0,.8,8.6336c.9833,5.375,3.435,10.7694,2.183,16.0882-.292,1.2407-6.9962-2.3376-7.67-3.3358C1236.5668,82.3038,1236.912,76.6125,1237.1133,73.8Z"/><path class="cls-1" d="M1251.0433,62.6552c.242-3.3815,1.1532-6.6913,1.3475-10.0759.2933-5.1081-1.0524-10.1576-1.4379-15.26-.6271-8.2975,1.2764-16.8083-.7474-24.88a190.4519,190.4519,0,0,1,6.6708,39.8412,71.5225,71.5225,0,0,0,.8,8.6335c.9833,5.375,3.4351,10.7694,2.1831,16.0883-.292,1.2406-6.9963-2.3377-7.67-3.3359C1250.4967,71.1591,1250.842,65.4679,1251.0433,62.6552Z"/><path class="cls-1" d="M1262.59,59.2162c.1863-4.3467.0081-8.7146.4958-13.0378.3513-3.1146,1.0474-6.1964,1.128-9.33a47.7742,47.7742,0,0,0-1.7229-11.9341,31.0454,31.0454,0,0,1,6.7682,19.3574c-.0155,4.51-1.02,8.9516-1.4987,13.4359-1.0233,9.5789.3532,19.3018-.7762,28.8688-1.061,8.9877-4.88-4.4475-5.139-6.7778C1261.0834,72.9564,1262.297,66.05,1262.59,59.2162Z"/><path class="cls-1" d="M1287.3391,94.22c-.49-4.2914-.62-8.63-1.4062-12.8766-.5666-3.06-1.4723-6.0628-1.7721-9.16a47.4291,47.4291,0,0,1,.8685-11.9393,30.8211,30.8211,0,0,0-5.3437,19.6449c.3319,4.4649,1.638,8.7932,2.4273,13.2,1.6859,9.4142,1.0052,19.14,2.7953,28.5345,1.6817,8.826,4.52-4.747,4.6134-7.0729C1289.7955,107.7215,1288.1089,100.9676,1287.3391,94.22Z"/><path class="cls-1" d="M366.0379,65.585a414.9341,414.9341,0,0,1-4.4544-41.5422c2.6794,8.2517,5.3761,16.5847,6.1978,25.2215.391,4.11.353,8.2549.8281,12.3563,1.109,9.5725,5.3281,20.06,1.227,29.4592-5.1259-1.7593-4.6091-4.4747-3.6857-9.1313C367.2757,76.2749,366.9414,71.2857,366.0379,65.585Z"/><path class="cls-1" d="M331.2273,57.9605c.242-3.3816,1.1533-6.6913,1.3476-10.0759.2932-5.1081-1.0524-10.1577-1.438-15.26-.627-8.2974,1.2765-16.8083-.7474-24.8795A190.4565,190.4565,0,0,1,337.06,47.5865a71.5,71.5,0,0,0,.8,8.6335c.9833,5.375,3.4351,10.7694,2.1831,16.0883-.2921,1.2407-6.9963-2.3377-7.67-3.3359C330.6808,66.4643,331.0261,60.7731,331.2273,57.9605Z"/><path class="cls-1" d="M515.2565,58.9678c.242-3.3815,1.1532-6.6913,1.3475-10.0759.2933-5.1081-1.0524-10.1577-1.4379-15.26-.6271-8.2974,1.2764-16.8083-.7474-24.8795A190.452,190.452,0,0,1,521.09,48.5938a71.5426,71.5426,0,0,0,.8,8.6336c.9834,5.375,3.4351,10.7694,2.1831,16.0882-.292,1.2407-6.9963-2.3377-7.67-3.3358C514.71,67.4716,515.0552,61.78,515.2565,58.9678Z"/><path class="cls-1" d="M824.8358,72.7544c.242-3.3815,1.1533-6.6913,1.3476-10.0758.2932-5.1082-1.0524-10.1577-1.438-15.26-.627-8.2974,1.2765-16.8083-.7473-24.8795a190.45,190.45,0,0,1,6.6708,39.8411,71.5,71.5,0,0,0,.8,8.6335c.9833,5.375,3.4351,10.7694,2.1831,16.0883-.292,1.2406-6.9963-2.3377-7.67-3.3359C824.2893,81.2583,824.6346,75.5671,824.8358,72.7544Z"/><path class="cls-1" d="M352.2432,66.5457c.242-3.3815,1.1533-6.6913,1.3475-10.0759.2933-5.1081-1.0524-10.1577-1.4379-15.26-.627-8.2974,1.2764-16.8083-.7474-24.8795a190.4587,190.4587,0,0,1,6.6709,39.8411,71.502,71.502,0,0,0,.8,8.6336c.9833,5.375,3.435,10.7694,2.183,16.0882-.292,1.2407-6.9962-2.3376-7.67-3.3358C351.6967,75.05,352.0419,69.3583,352.2432,66.5457Z"/><path class="cls-1" d="M91.8207,73.9572c.242-3.3815,1.1532-6.6913,1.3475-10.0759.2932-5.1081-1.0524-10.1577-1.4379-15.26-.6271-8.2974,1.2764-16.8083-.7474-24.8795a190.452,190.452,0,0,1,6.6708,39.8411,71.5223,71.5223,0,0,0,.8,8.6336c.9833,5.375,3.4351,10.7694,2.1831,16.0882-.292,1.2407-6.9963-2.3377-7.67-3.3358C91.2741,82.461,91.6194,76.77,91.8207,73.9572Z"/><path class="cls-1" d="M317.0126,73.0512c.242-3.3815,1.1532-6.6913,1.3475-10.0758.2933-5.1081-1.0524-10.1577-1.4379-15.26-.627-8.2974,1.2764-16.8083-.7474-24.8795a190.4565,190.4565,0,0,1,6.6709,39.8411,71.5205,71.5205,0,0,0,.8,8.6335c.9834,5.375,3.4351,10.7694,2.1831,16.0883-.292,1.2407-6.9963-2.3377-7.67-3.3359C316.466,81.5551,316.8113,75.8639,317.0126,73.0512Z"/><path class="cls-1" d="M434.3611,72.8026c.242-3.3815,1.1532-6.6913,1.3475-10.0758.2933-5.1082-1.0524-10.1577-1.4379-15.26-.627-8.2974,1.2764-16.8083-.7474-24.88a190.4565,190.4565,0,0,1,6.6709,39.8411,71.5,71.5,0,0,0,.8,8.6335c.9833,5.375,3.435,10.7694,2.183,16.0883-.292,1.2407-6.9962-2.3377-7.67-3.3359C433.8146,81.3065,434.16,75.6153,434.3611,72.8026Z"/><path class="cls-1" d="M448.7159,92.4993c.242-3.3815,1.1532-6.6913,1.3475-10.0758.2933-5.1081-1.0524-10.1577-1.4379-15.26-.627-8.2974,1.2764-16.8083-.7474-24.8795a190.4565,190.4565,0,0,1,6.6709,39.8411,71.5205,71.5205,0,0,0,.8,8.6335c.9834,5.375,3.4351,10.7694,2.1831,16.0883-.292,1.2407-6.9963-2.3377-7.67-3.3359C448.1693,101.0032,448.5146,95.312,448.7159,92.4993Z"/><path class="cls-1" d="M543.13,65.0468c.242-3.3815,1.1532-6.6913,1.3475-10.0759.2933-5.1081-1.0524-10.1576-1.4379-15.26-.627-8.2975,1.2764-16.8083-.7474-24.88a190.4585,190.4585,0,0,1,6.6709,39.8412,71.5224,71.5224,0,0,0,.8,8.6335c.9834,5.375,3.4351,10.7694,2.1831,16.0883-.292,1.2406-6.9963-2.3377-7.67-3.3359C542.5832,73.5507,542.9285,67.86,543.13,65.0468Z"/><path class="cls-1" d="M557.1573,76.8852c.242-3.3815,1.1532-6.6913,1.3475-10.0758.2933-5.1082-1.0524-10.1577-1.4379-15.26-.627-8.2974,1.2764-16.8083-.7474-24.8795A190.4565,190.4565,0,0,1,562.99,66.5113a71.5205,71.5205,0,0,0,.8,8.6335c.9834,5.375,3.4351,10.7694,2.1831,16.0883-.292,1.2407-6.9963-2.3377-7.67-3.3359C556.6107,85.3891,556.956,79.6979,557.1573,76.8852Z"/><path class="cls-1" d="M810.3334,63.0861c.242-3.3815,1.1533-6.6913,1.3476-10.0759.2932-5.1081-1.0524-10.1577-1.438-15.26-.627-8.2974,1.2765-16.8083-.7473-24.8795a190.4509,190.4509,0,0,1,6.6708,39.8411,71.5,71.5,0,0,0,.8,8.6335c.9833,5.3751,3.4351,10.7694,2.1831,16.0883-.2921,1.2407-6.9963-2.3377-7.67-3.3359C809.7869,71.59,810.1322,65.8987,810.3334,63.0861Z"/><path class="cls-1" d="M694.207,67.1969c.2419-3.3815,1.1532-6.6913,1.3475-10.0759.2932-5.1081-1.0524-10.1577-1.438-15.26-.627-8.2974,1.2765-16.8083-.7473-24.8795A190.452,190.452,0,0,1,700.04,56.8229a71.5223,71.5223,0,0,0,.8,8.6336c.9833,5.375,3.4351,10.7694,2.1831,16.0882-.292,1.2407-6.9963-2.3377-7.67-3.3358C693.66,75.7007,694.0057,70.01,694.207,67.1969Z"/><path class="cls-1" d="M461.9841,62.6609c.242-3.3815,1.1532-6.6913,1.3475-10.0759.2933-5.1081-1.0524-10.1576-1.4379-15.26-.627-8.2975,1.2764-16.8083-.7474-24.88a190.4585,190.4585,0,0,1,6.6709,39.8412,71.5224,71.5224,0,0,0,.8,8.6335c.9834,5.375,3.4351,10.7694,2.1831,16.0883-.292,1.2406-6.9963-2.3377-7.67-3.3359C461.4376,71.1648,461.7828,65.4736,461.9841,62.6609Z"/><path class="cls-1" d="M586.4929,81.1917c.242-3.3816,1.1533-6.6913,1.3476-10.0759.2932-5.1081-1.0525-10.1577-1.438-15.26-.627-8.2974,1.2764-16.8083-.7474-24.8795a190.4565,190.4565,0,0,1,6.6709,39.8411,71.5,71.5,0,0,0,.8,8.6335c.9833,5.375,3.435,10.7694,2.1831,16.0883-.2921,1.2407-6.9963-2.3377-7.67-3.3359C585.9464,89.6955,586.2916,84.0043,586.4929,81.1917Z"/><path class="cls-1" d="M602.12,70.4567c.242-3.3815,1.1533-6.6913,1.3476-10.0759.2932-5.1081-1.0525-10.1577-1.438-15.26-.627-8.2975,1.2764-16.8084-.7474-24.88a190.4587,190.4587,0,0,1,6.6709,39.8411,71.502,71.502,0,0,0,.8,8.6336c.9833,5.375,3.435,10.7694,2.1831,16.0882-.2921,1.2407-6.9963-2.3376-7.67-3.3358C601.5736,78.9606,601.9188,73.2693,602.12,70.4567Z"/><path class="cls-1" d="M620.2659,86.4266c.2419-3.3815,1.1532-6.6913,1.3475-10.0759.2932-5.1081-1.0524-10.1577-1.438-15.26-.627-8.2974,1.2765-16.8083-.7473-24.8795a190.452,190.452,0,0,1,6.6708,39.8411,71.5223,71.5223,0,0,0,.8,8.6336c.9833,5.375,3.4351,10.7694,2.1831,16.0882-.292,1.2407-6.9963-2.3377-7.67-3.3358C619.7193,94.93,620.0646,89.2392,620.2659,86.4266Z"/><path class="cls-1" d="M731.2659,58.3869c.242-3.3815,1.1533-6.6913,1.3476-10.0759.2932-5.1081-1.0524-10.1577-1.438-15.26-.627-8.2975,1.2765-16.8084-.7474-24.88a190.4587,190.4587,0,0,1,6.6709,39.8411,71.502,71.502,0,0,0,.8,8.6336c.9833,5.375,3.4351,10.7694,2.1831,16.0882-.2921,1.2407-6.9963-2.3376-7.67-3.3358C730.7194,66.8908,731.0646,61.2,731.2659,58.3869Z"/><path class="cls-1" d="M752.3054,74.6564c.242-3.3815,1.1533-6.6913,1.3476-10.0759.2932-5.1081-1.0525-10.1577-1.438-15.26-.627-8.2975,1.2764-16.8084-.7474-24.88a190.4587,190.4587,0,0,1,6.6709,39.8411,71.502,71.502,0,0,0,.8,8.6336c.9833,5.375,3.435,10.7694,2.183,16.0882-.292,1.2407-6.9962-2.3376-7.67-3.3358C751.7589,83.16,752.1041,77.469,752.3054,74.6564Z"/><path class="cls-1" d="M762.5114,50.2151c.242-3.3815,1.1533-6.6913,1.3476-10.0759.2932-5.1081-1.0524-10.1577-1.438-15.26-.627-8.2974,1.2765-16.8083-.7474-24.8795a190.4587,190.4587,0,0,1,6.6709,39.8411,71.502,71.502,0,0,0,.8,8.6336c.9833,5.375,3.4351,10.7694,2.1831,16.0882-.2921,1.2407-6.9963-2.3376-7.67-3.3358C761.9649,58.7189,762.31,53.0277,762.5114,50.2151Z"/><path class="cls-1" d="M504.8689,70.3067c.242-3.3815,1.1533-6.6913,1.3476-10.0759.2932-5.1081-1.0525-10.1577-1.438-15.26-.627-8.2975,1.2764-16.8084-.7474-24.88a190.4587,190.4587,0,0,1,6.6709,39.8411,71.502,71.502,0,0,0,.8,8.6336c.9833,5.375,3.435,10.7694,2.1831,16.0882-.2921,1.2407-6.9963-2.3376-7.67-3.3358C504.3224,78.8106,504.6676,73.1193,504.8689,70.3067Z"/><path class="cls-1" d="M247.4139,68.4493c.242-3.3815,1.1533-6.6913,1.3476-10.0759.2932-5.1081-1.0524-10.1577-1.438-15.26-.627-8.2974,1.2765-16.8083-.7474-24.8795a190.4576,190.4576,0,0,1,6.6709,39.8411,71.5,71.5,0,0,0,.8,8.6335c.9833,5.375,3.4351,10.7694,2.1831,16.0883-.2921,1.2407-6.9963-2.3377-7.67-3.3359C246.8674,76.9531,247.2126,71.2619,247.4139,68.4493Z"/><path class="cls-1" d="M412.9847,81.9889c.242-3.3815,1.1532-6.6913,1.3475-10.0759.2933-5.1081-1.0524-10.1577-1.4379-15.26-.627-8.2974,1.2764-16.8083-.7474-24.8795a190.4587,190.4587,0,0,1,6.6709,39.8411,71.5222,71.5222,0,0,0,.8,8.6336c.9834,5.375,3.4351,10.7694,2.1831,16.0882-.292,1.2407-6.9963-2.3377-7.67-3.3358C412.4381,90.4927,412.7834,84.8015,412.9847,81.9889Z"/><path class="cls-1" d="M650.8464,68.7318c.242-3.3815,1.1533-6.6913,1.3476-10.0759.2932-5.1081-1.0525-10.1576-1.438-15.26-.627-8.2975,1.2764-16.8083-.7474-24.88A190.4587,190.4587,0,0,1,656.68,58.3578a71.502,71.502,0,0,0,.8,8.6336c.9833,5.375,3.435,10.7694,2.1831,16.0882-.2921,1.2407-6.9963-2.3376-7.67-3.3358C650.3,77.2357,650.6451,71.5444,650.8464,68.7318Z"/><path class="cls-1" d="M262.8121,74.97c.242-3.3815,1.1532-6.6913,1.3475-10.0759.2933-5.1081-1.0524-10.1576-1.4379-15.26-.627-8.2975,1.2764-16.8083-.7474-24.88a190.4587,190.4587,0,0,1,6.6709,39.8411,71.5222,71.5222,0,0,0,.8,8.6336c.9834,5.375,3.4351,10.7694,2.1831,16.0882-.292,1.2407-6.9963-2.3376-7.67-3.3358C262.2655,83.4738,262.6108,77.7825,262.8121,74.97Z"/><path class="cls-1" d="M200.16,62.6c.242-3.3815,1.1533-6.6913,1.3476-10.0759.2932-5.1081-1.0524-10.1577-1.438-15.26-.627-8.2974,1.2765-16.8083-.7474-24.8795a190.4576,190.4576,0,0,1,6.6709,39.8411,71.5,71.5,0,0,0,.8,8.6335c.9833,5.375,3.4351,10.7694,2.1831,16.0883-.2921,1.2407-6.9963-2.3377-7.67-3.3359C199.6136,71.104,199.9589,65.4128,200.16,62.6Z"/><path class="cls-1" d="M109.4142,64.6133c.1863-4.3466.0081-8.7146.4958-13.0378.3513-3.1146,1.0474-6.1964,1.128-9.33a47.775,47.775,0,0,0-1.723-11.9341,31.0461,31.0461,0,0,1,6.7683,19.3574c-.0155,4.51-1.02,8.9516-1.4987,13.4359-1.0234,9.5789.3532,19.3018-.7762,28.8688-1.061,8.9877-4.88-4.4475-5.1391-6.7778C107.9077,78.3535,109.1213,71.4475,109.4142,64.6133Z"/><path class="cls-1" d="M131.4055,74.3632c.242-3.3815,1.1533-6.6913,1.3476-10.0759.2932-5.1081-1.0524-10.1576-1.438-15.26-.627-8.2975,1.2765-16.8083-.7474-24.88a190.4585,190.4585,0,0,1,6.6709,39.8412,71.5023,71.5023,0,0,0,.8,8.6335c.9833,5.375,3.4351,10.7694,2.1831,16.0883-.2921,1.2406-6.9963-2.3377-7.67-3.3359C130.859,82.8671,131.2043,77.1759,131.4055,74.3632Z"/><path class="cls-1" d="M166.0825,73.1357c.242-3.3815,1.1533-6.6913,1.3476-10.0759.2932-5.1081-1.0524-10.1577-1.438-15.26-.627-8.2974,1.2765-16.8083-.7474-24.8795a190.4587,190.4587,0,0,1,6.6709,39.8411,71.502,71.502,0,0,0,.8,8.6336c.9833,5.375,3.4351,10.7694,2.1831,16.0882-.2921,1.2407-6.9963-2.3377-7.67-3.3358C165.536,81.64,165.8813,75.9483,166.0825,73.1357Z"/><path class="cls-1" d="M216.9178,74.7635c.242-3.3815,1.1533-6.6913,1.3476-10.0758.2932-5.1082-1.0525-10.1577-1.438-15.26-.627-8.2974,1.2764-16.8083-.7474-24.88A190.4585,190.4585,0,0,1,222.7509,64.39a71.5,71.5,0,0,0,.8,8.6335c.9833,5.375,3.435,10.7694,2.1831,16.0883-.2921,1.2406-6.9963-2.3377-7.67-3.3359C216.3713,83.2674,216.7165,77.5762,216.9178,74.7635Z"/><path class="cls-1" d="M148.9991,65.0193c.1862-4.3466.008-8.7145.4957-13.0378.3514-3.1146,1.0475-6.1963,1.1281-9.33a47.7788,47.7788,0,0,0-1.723-11.934,31.0454,31.0454,0,0,1,6.7682,19.3574c-.0155,4.51-1.02,8.9516-1.4986,13.4359-1.0234,9.5789.3532,19.3018-.7762,28.8688-1.0611,8.9877-4.88-4.4476-5.1391-6.7778C147.4926,78.76,148.7062,71.8536,148.9991,65.0193Z"/><path class="cls-1" d="M229.1926,45.6327c.1863-4.3466.008-8.7146.4958-13.0378.3513-3.1146,1.0474-6.1963,1.128-9.33a47.7742,47.7742,0,0,0-1.723-11.934,31.0461,31.0461,0,0,1,6.7683,19.3574c-.0155,4.51-1.02,8.9516-1.4987,13.4359-1.0234,9.5789.3532,19.3018-.7762,28.8688-1.061,8.9877-4.88-4.4476-5.1391-6.7778C227.6861,59.373,228.9,52.467,229.1926,45.6327Z"/><path class="cls-1" d="M288.2923,60.0884c.1863-4.3466.0081-8.7145.4958-13.0378.3513-3.1146,1.0474-6.1963,1.128-9.33a47.77,47.77,0,0,0-1.723-11.934,31.0461,31.0461,0,0,1,6.7683,19.3574c-.0155,4.51-1.02,8.9516-1.4987,13.4359-1.0234,9.5789.3532,19.3018-.7762,28.8688-1.061,8.9877-4.88-4.4476-5.1391-6.7778C286.7858,73.8287,287.9994,66.9227,288.2923,60.0884Z"/><path class="cls-1" d="M298.7251,49.6018c.1862-4.3466.008-8.7146.4957-13.0378.3514-3.1146,1.0475-6.1964,1.1281-9.33A47.78,47.78,0,0,0,298.6259,15.3a31.0454,31.0454,0,0,1,6.7682,19.3574c-.0155,4.51-1.0195,8.9516-1.4986,13.4359-1.0234,9.5789.3532,19.3018-.7762,28.8688-1.0611,8.9877-4.88-4.4475-5.1391-6.7778C297.2185,63.342,298.4322,56.436,298.7251,49.6018Z"/><path class="cls-1" d="M712.7967,60.7809c.1863-4.3467.0081-8.7146.4958-13.0378.3513-3.1146,1.0474-6.1964,1.128-9.33a47.7742,47.7742,0,0,0-1.7229-11.9341,31.0454,31.0454,0,0,1,6.7682,19.3574c-.0155,4.51-1.02,8.9516-1.4986,13.4359-1.0234,9.5789.3531,19.3018-.7763,28.8688-1.061,8.9877-4.88-4.4475-5.139-6.7778C711.29,74.5211,712.5038,67.6151,712.7967,60.7809Z"/><path class="cls-1" d="M473.5308,59.2219c.1862-4.3467.008-8.7146.4957-13.0378.3514-3.1146,1.0475-6.1964,1.1281-9.33a47.7789,47.7789,0,0,0-1.723-11.9341A31.0454,31.0454,0,0,1,480.2,44.2777c-.0155,4.51-1.0195,8.9516-1.4986,13.4359-1.0234,9.5789.3532,19.3018-.7762,28.8688-1.0611,8.9877-4.88-4.4475-5.1391-6.7778C472.0242,72.9621,473.2379,66.0561,473.5308,59.2219Z"/><path class="cls-1" d="M666.714,48.7907c.1863-4.3467.0081-8.7146.4958-13.0378.3513-3.1146,1.0474-6.1964,1.128-9.33a47.77,47.77,0,0,0-1.723-11.9341,31.0461,31.0461,0,0,1,6.7683,19.3574c-.0155,4.51-1.02,8.9516-1.4987,13.4359-1.0234,9.5789.3532,19.3018-.7762,28.8688-1.061,8.9877-4.88-4.4476-5.139-6.7778C665.2075,62.5309,666.4211,55.6249,666.714,48.7907Z"/><path class="cls-1" d="M780.0864,58.039c.1863-4.3466.0081-8.7146.4958-13.0378.3513-3.1146,1.0474-6.1964,1.128-9.33a47.7734,47.7734,0,0,0-1.7229-11.934,31.045,31.045,0,0,1,6.7682,19.3573c-.0155,4.51-1.02,8.9516-1.4987,13.4359-1.0233,9.579.3532,19.3018-.7762,28.8689-1.061,8.9876-4.88-4.4476-5.139-6.7778C778.58,71.7792,779.7935,64.8733,780.0864,58.039Z"/><path class="cls-1" d="M680.7417,69.7432c.1863-4.3466.0081-8.7146.4958-13.0378.3514-3.1146,1.0475-6.1964,1.1281-9.33a47.78,47.78,0,0,0-1.723-11.9341,31.0454,31.0454,0,0,1,6.7682,19.3574c-.0155,4.51-1.0195,8.9516-1.4986,13.4359-1.0234,9.5789.3532,19.3018-.7763,28.8688-1.061,8.9877-4.88-4.4475-5.139-6.7778C679.2352,83.4834,680.4489,76.5774,680.7417,69.7432Z"/><path class="cls-1" d="M193.737,59.7973c-.4932-4.3226-.6243-8.6922-1.4164-12.97-.5708-3.082-1.483-6.1068-1.785-9.2266a47.7757,47.7757,0,0,1,.8748-12.026,31.0454,31.0454,0,0,0-5.3825,19.7875c.3344,4.4974,1.65,8.8571,2.445,13.2963,1.6981,9.4826,1.0125,19.2785,2.8156,28.7417,1.6939,8.89,4.5529-4.7815,4.6469-7.1242C196.2113,73.3966,194.5124,66.5937,193.737,59.7973Z"/><path class="cls-1" d="M389.2626,54.7068c-.4932-4.3226-.6242-8.6922-1.4164-12.97-.5707-3.0819-1.483-6.1068-1.785-9.2266a47.7711,47.7711,0,0,1,.8749-12.026,31.0458,31.0458,0,0,0-5.3826,19.7875c.3344,4.4974,1.65,8.8571,2.445,13.2963,1.6981,9.4826,1.0125,19.2785,2.8156,28.7417,1.6939,8.89,4.5529-4.7815,4.6469-7.1242C391.7369,68.3061,390.038,61.5032,389.2626,54.7068Z"/><path class="cls-1" d="M535.2651,57.0365c-.4931-4.3226-.6242-8.6922-1.4164-12.97-.5707-3.082-1.483-6.1068-1.7849-9.2266a47.7757,47.7757,0,0,1,.8748-12.026,31.0454,31.0454,0,0,0-5.3825,19.7875c.3343,4.4974,1.65,8.8571,2.4449,13.2963,1.6982,9.4826,1.0125,19.2785,2.8156,28.7417,1.6939,8.89,4.553-4.7815,4.647-7.1242C537.74,70.6358,536.0405,63.8329,535.2651,57.0365Z"/><path class="cls-1" d="M493.3457,43.9566c-.4931-4.3226-.6242-8.6922-1.4164-12.97-.5707-3.082-1.483-6.1068-1.7849-9.2266a47.7757,47.7757,0,0,1,.8748-12.026,31.0455,31.0455,0,0,0-5.3826,19.7875c.3344,4.4974,1.65,8.8571,2.445,13.2963,1.6981,9.4826,1.0125,19.2784,2.8156,28.7417,1.6939,8.89,4.553-4.7815,4.6469-7.1243C495.82,57.5559,494.1211,50.753,493.3457,43.9566Z"/><path class="cls-1" d="M576.7961,49.8756c-.4932-4.3226-.6243-8.6922-1.4165-12.97-.5707-3.082-1.483-6.1068-1.7849-9.2266a47.7757,47.7757,0,0,1,.8748-12.026A31.0454,31.0454,0,0,0,569.087,35.44c.3343,4.4974,1.65,8.8571,2.4449,13.2963,1.6982,9.4825,1.0125,19.2784,2.8156,28.7416,1.6939,8.89,4.553-4.7814,4.647-7.1242C579.27,63.4749,577.5715,56.672,576.7961,49.8756Z"/><path class="cls-1" d="M431.07,71.2125c-.4932-4.3226-.6243-8.6923-1.4164-12.97-.5708-3.0819-1.483-6.1068-1.785-9.2265a47.7765,47.7765,0,0,1,.8748-12.0261,31.0457,31.0457,0,0,0-5.3825,19.7875c.3344,4.4975,1.65,8.8572,2.445,13.2964,1.6981,9.4825,1.0125,19.2784,2.8156,28.7416,1.6939,8.89,4.5529-4.7814,4.6469-7.1242C433.544,84.8118,431.8451,78.0089,431.07,71.2125Z"/><path class="cls-1" d="M1061.3793,81.9263c.242-3.3816,1.1532-6.6913,1.3475-10.0759.2933-5.1081-1.0524-10.1577-1.4379-15.26-.6271-8.2974,1.2764-16.8083-.7474-24.8795a190.45,190.45,0,0,1,6.6708,39.8411,71.5409,71.5409,0,0,0,.8,8.6335c.9833,5.375,3.4351,10.7694,2.1831,16.0883-.292,1.2407-6.9963-2.3377-7.67-3.3359C1060.8327,90.43,1061.178,84.7389,1061.3793,81.9263Z"/><path class="cls-1" d="M1075.7341,101.623c.2419-3.3815,1.1532-6.6913,1.3475-10.0759.2932-5.1081-1.0524-10.1577-1.438-15.26-.627-8.2974,1.2765-16.8083-.7473-24.88a190.45,190.45,0,0,1,6.6708,39.8411,71.5206,71.5206,0,0,0,.8,8.6335c.9833,5.375,3.4351,10.7694,2.1831,16.0883-.292,1.2407-6.9963-2.3377-7.67-3.3359C1075.1875,110.1268,1075.5328,104.4356,1075.7341,101.623Z"/><path class="cls-1" d="M1089.664,90.4783c.242-3.3815,1.1533-6.6913,1.3476-10.0759.2932-5.1081-1.0524-10.1577-1.438-15.26-.627-8.2974,1.2764-16.8083-.7474-24.88a190.4587,190.4587,0,0,1,6.6709,39.8411,71.502,71.502,0,0,0,.8,8.6336c.9833,5.375,3.4351,10.7694,2.1831,16.0882-.2921,1.2407-6.9963-2.3377-7.67-3.3358C1089.1175,98.9821,1089.4627,93.2909,1089.664,90.4783Z"/><path class="cls-1" d="M1132.5488,98.1241c.242-3.3815,1.1533-6.6913,1.3476-10.0759.2932-5.1081-1.0524-10.1577-1.438-15.26-.627-8.2974,1.2765-16.8083-.7474-24.8795a190.4565,190.4565,0,0,1,6.6709,39.8411,71.5,71.5,0,0,0,.8,8.6335c.9833,5.375,3.4351,10.7694,2.1831,16.0883-.2921,1.2407-6.9963-2.3377-7.67-3.3359C1132.0023,106.6279,1132.3475,100.9367,1132.5488,98.1241Z"/><path class="cls-1" d="M1040.0029,91.1125c.2419-3.3815,1.1532-6.6913,1.3475-10.0759.2932-5.1081-1.0524-10.1577-1.438-15.26-.627-8.2974,1.2765-16.8083-.7473-24.8795a190.452,190.452,0,0,1,6.6708,39.8411,71.5223,71.5223,0,0,0,.8,8.6336c.9833,5.375,3.4351,10.7694,2.1831,16.0882-.292,1.2407-6.9963-2.3377-7.67-3.3358C1039.4563,99.6163,1039.8016,93.9251,1040.0029,91.1125Z"/><path class="cls-1" d="M1101.2107,87.0392c.1862-4.3466.008-8.7146.4957-13.0378.3514-3.1146,1.0475-6.1964,1.1281-9.33a47.7782,47.7782,0,0,0-1.723-11.934A31.045,31.045,0,0,1,1107.88,72.095c-.0155,4.51-1.0195,8.9516-1.4986,13.4359-1.0234,9.579.3532,19.3018-.7762,28.8689-1.0611,8.9876-4.88-4.4476-5.1391-6.7778C1099.7042,100.7794,1100.9178,93.8735,1101.2107,87.0392Z"/><path class="cls-1" d="M1121.0256,71.7739c-.4931-4.3226-.6242-8.6922-1.4164-12.97-.5707-3.0819-1.483-6.1068-1.7849-9.2266a47.776,47.776,0,0,1,.8748-12.026,31.0451,31.0451,0,0,0-5.3825,19.7875c.3343,4.4974,1.65,8.8571,2.4449,13.2963,1.6982,9.4826,1.0125,19.2785,2.8156,28.7417,1.6939,8.89,4.553-4.7815,4.6469-7.1242C1123.5,85.3732,1121.801,78.57,1121.0256,71.7739Z"/><path class="cls-1" d="M1058.0879,80.3361c-.4932-4.3226-.6243-8.6922-1.4165-12.97-.5707-3.082-1.483-6.1069-1.7849-9.2266a47.7753,47.7753,0,0,1,.8748-12.026,31.0454,31.0454,0,0,0-5.3825,19.7875c.3343,4.4974,1.65,8.8571,2.4449,13.2963,1.6982,9.4825,1.0125,19.2784,2.8156,28.7416,1.6939,8.89,4.553-4.7814,4.647-7.1242C1060.5622,93.9354,1058.8633,87.1325,1058.0879,80.3361Z"/><path class="cls-1" d="M404.76,66.4932c-.4932-4.3226-.6243-8.6922-1.4165-12.97-.5707-3.082-1.4829-6.1068-1.7849-9.2266a47.7757,47.7757,0,0,1,.8748-12.026,31.0454,31.0454,0,0,0-5.3825,19.7875c.3344,4.4974,1.65,8.8571,2.4449,13.2963,1.6982,9.4826,1.0126,19.2784,2.8156,28.7417,1.694,8.89,4.553-4.7815,4.647-7.1243C407.2346,80.0925,405.5357,73.29,404.76,66.4932Z"/><path class="cls-1" d="M278.92,43.8724c-.4932-4.3226-.6242-8.6922-1.4164-12.97-.5707-3.0819-1.483-6.1068-1.785-9.2266a47.7714,47.7714,0,0,1,.8749-12.026,31.0458,31.0458,0,0,0-5.3826,19.7875c.3344,4.4974,1.65,8.8571,2.445,13.2963,1.6981,9.4826,1.0125,19.2785,2.8156,28.7417,1.6939,8.89,4.5529-4.7815,4.6469-7.1242C281.3939,57.4717,279.695,50.6688,278.92,43.8724Z"/><path class="cls-1" d="M644.91,63.184c-.4931-4.3225-.6242-8.6922-1.4164-12.97-.5707-3.0819-1.483-6.1068-1.7849-9.2265a47.7718,47.7718,0,0,1,.8748-12.0261,31.0458,31.0458,0,0,0-5.3826,19.7875c.3344,4.4975,1.65,8.8571,2.445,13.2963,1.6981,9.4826,1.0125,19.2785,2.8156,28.7417,1.6939,8.89,4.553-4.7814,4.6469-7.1242C647.3839,76.7833,645.685,69.9805,644.91,63.184Z"/><path class="cls-1" d="M1199.1667,62.56c.242-3.3815,1.1533-6.6913,1.3476-10.0759.2932-5.1081-1.0524-10.1577-1.438-15.26-.627-8.2974,1.2765-16.8083-.7473-24.8795A190.4651,190.4651,0,0,1,1205,52.1861a71.502,71.502,0,0,0,.8,8.6336c.9833,5.375,3.4351,10.7694,2.1831,16.0882-.2921,1.2407-6.9963-2.3377-7.67-3.3358C1198.62,71.0639,1198.9655,65.3727,1199.1667,62.56Z"/><path class="cls-1" d="M1156.5641,85.505c.242-3.3816,1.1532-6.6914,1.3475-10.0759.2933-5.1081-1.0524-10.1577-1.4379-15.26-.627-8.2974,1.2764-16.8083-.7474-24.8795a190.4565,190.4565,0,0,1,6.6709,39.8411,71.5205,71.5205,0,0,0,.8,8.6335c.9834,5.375,3.4351,10.7694,2.1831,16.0883-.292,1.2407-6.9963-2.3377-7.67-3.3359C1156.0175,94.0088,1156.3628,88.3176,1156.5641,85.505Z"/><path class="cls-1" d="M1217.7565,56.1441c.1863-4.3467.0081-8.7146.4958-13.0378.3513-3.1146,1.0474-6.1964,1.128-9.33a47.77,47.77,0,0,0-1.723-11.9341A31.0455,31.0455,0,0,1,1224.4256,41.2c-.0155,4.51-1.02,8.9516-1.4987,13.4359-1.0234,9.5789.3532,19.3018-.7762,28.8688-1.061,8.9877-4.88-4.4475-5.139-6.7778C1216.25,69.8843,1217.4636,62.9783,1217.7565,56.1441Z"/><path class="cls-1" d="M1172.4317,65.5638c.1863-4.3466.008-8.7146.4958-13.0378.3513-3.1146,1.0474-6.1964,1.128-9.33a47.775,47.775,0,0,0-1.723-11.9341,31.0461,31.0461,0,0,1,6.7683,19.3574c-.0155,4.51-1.02,8.9516-1.4987,13.4359-1.0234,9.5789.3532,19.3018-.7762,28.8688-1.061,8.9877-4.88-4.4475-5.1391-6.7778C1170.9252,79.304,1172.1388,72.398,1172.4317,65.5638Z"/><path class="cls-1" d="M1185.7015,65.1064c.1863-4.3466.0081-8.7146.4958-13.0378.3513-3.1146,1.0474-6.1964,1.128-9.33a47.7749,47.7749,0,0,0-1.7229-11.9341,31.0454,31.0454,0,0,1,6.7682,19.3574c-.0155,4.51-1.02,8.9516-1.4986,13.4359-1.0234,9.5789.3531,19.3018-.7763,28.8688-1.061,8.9877-4.88-4.4475-5.139-6.7778C1184.195,78.8466,1185.4086,71.9406,1185.7015,65.1064Z"/><path class="cls-1" d="M1150.6273,79.9572c-.4932-4.3226-.6242-8.6922-1.4164-12.97-.5707-3.082-1.483-6.1068-1.785-9.2266a47.7711,47.7711,0,0,1,.8749-12.026,31.0455,31.0455,0,0,0-5.3826,19.7875c.3344,4.4974,1.65,8.8571,2.445,13.2963,1.6981,9.4826,1.0125,19.2784,2.8156,28.7417,1.6939,8.89,4.5529-4.7815,4.6469-7.1243C1153.1016,93.5565,1151.4027,86.7536,1150.6273,79.9572Z"/><path class="cls-1" d="M802.1059,69.5092c-.4932-4.3226-.6243-8.6922-1.4165-12.97-.5707-3.082-1.4829-6.1068-1.7849-9.2266a47.7757,47.7757,0,0,1,.8748-12.026,31.0454,31.0454,0,0,0-5.3825,19.7875c.3344,4.4974,1.65,8.8571,2.4449,13.2963,1.6982,9.4825,1.0126,19.2784,2.8156,28.7417,1.694,8.89,4.553-4.7815,4.647-7.1243C804.58,83.1085,802.8813,76.3056,802.1059,69.5092Z"/><path class="cls-1" d="M1028.2482,89.7866c.242-3.3815,1.1533-6.6913,1.3476-10.0758.2932-5.1081-1.0524-10.1577-1.438-15.26-.627-8.2974,1.2765-16.8083-.7474-24.8795a190.4565,190.4565,0,0,1,6.6709,39.8411,71.5,71.5,0,0,0,.8,8.6335c.9833,5.375,3.4351,10.7694,2.1831,16.0883-.2921,1.2407-6.9963-2.3377-7.67-3.3359C1027.7017,98.2905,1028.047,92.5993,1028.2482,89.7866Z"/><path class="cls-1" d="M1013.7458,80.1183c.242-3.3815,1.1533-6.6913,1.3476-10.0759.2932-5.1081-1.0524-10.1577-1.438-15.26-.627-8.2974,1.2765-16.8083-.7474-24.8795a190.4576,190.4576,0,0,1,6.6709,39.8411,71.5,71.5,0,0,0,.8,8.6335c.9833,5.3751,3.4351,10.7694,2.1831,16.0883-.2921,1.2407-6.9963-2.3377-7.67-3.3358C1013.1993,88.6221,1013.5446,82.9309,1013.7458,80.1183Z"/><path class="cls-1" d="M896.9717,65.9343c.242-3.3815,1.1533-6.6913,1.3476-10.0759.2932-5.1081-1.0525-10.1577-1.438-15.26-.627-8.2975,1.2764-16.8084-.7474-24.88A190.4587,190.4587,0,0,1,902.8048,55.56a71.502,71.502,0,0,0,.8,8.6336c.9833,5.375,3.435,10.7694,2.1831,16.0882-.2921,1.2407-6.9963-2.3376-7.67-3.3358C896.4252,74.4382,896.77,68.7469,896.9717,65.9343Z"/><path class="cls-1" d="M934.6783,75.4191c.242-3.3815,1.1533-6.6913,1.3476-10.0759.2932-5.1081-1.0525-10.1577-1.438-15.26-.627-8.2975,1.2764-16.8083-.7474-24.88a190.4587,190.4587,0,0,1,6.6709,39.8411,71.502,71.502,0,0,0,.8,8.6336c.9833,5.375,3.435,10.7694,2.1831,16.0882-.2921,1.2407-6.9963-2.3376-7.67-3.3358C934.1318,83.923,934.477,78.2317,934.6783,75.4191Z"/><path class="cls-1" d="M955.7178,91.6886c.242-3.3815,1.1532-6.6913,1.3475-10.0759.2933-5.1081-1.0524-10.1577-1.4379-15.26-.627-8.2975,1.2764-16.8084-.7474-24.88a190.4587,190.4587,0,0,1,6.6709,39.8411,71.5222,71.5222,0,0,0,.8,8.6336c.9834,5.375,3.4351,10.7694,2.1831,16.0882-.292,1.2407-6.9963-2.3376-7.67-3.3358C955.1712,100.1925,955.5165,94.5012,955.7178,91.6886Z"/><path class="cls-1" d="M965.9238,67.2473c.242-3.3815,1.1533-6.6913,1.3476-10.0759.2932-5.1081-1.0524-10.1577-1.438-15.26-.627-8.2975,1.2764-16.8084-.7474-24.88a190.4587,190.4587,0,0,1,6.6709,39.8411,71.502,71.502,0,0,0,.8,8.6336c.9833,5.375,3.4351,10.7694,2.1831,16.0882-.2921,1.2407-6.9963-2.3376-7.67-3.3358C965.3773,75.7511,965.7225,70.06,965.9238,67.2473Z"/><path class="cls-1" d="M853.6112,67.4693c.242-3.3816,1.1532-6.6913,1.3475-10.0759.2933-5.1081-1.0524-10.1577-1.4379-15.26-.6271-8.2974,1.2764-16.8083-.7474-24.8795a190.45,190.45,0,0,1,6.6708,39.8411,71.5206,71.5206,0,0,0,.8,8.6335c.9833,5.375,3.4351,10.7694,2.1831,16.0883-.292,1.2407-6.9963-2.3377-7.67-3.3359C853.0646,75.9731,853.41,70.2819,853.6112,67.4693Z"/><path class="cls-1" d="M915.5615,59.5183c.1863-4.3466.008-8.7146.4957-13.0378.3514-3.1146,1.0475-6.1964,1.1281-9.33a47.7736,47.7736,0,0,0-1.723-11.934,31.0456,31.0456,0,0,1,6.7683,19.3573c-.0156,4.51-1.02,8.9516-1.4987,13.4359-1.0234,9.579.3532,19.3018-.7762,28.8689-1.0611,8.9876-4.88-4.4476-5.1391-6.7778C914.055,73.2585,915.2686,66.3526,915.5615,59.5183Z"/><path class="cls-1" d="M869.4788,47.5281c.1862-4.3466.008-8.7146.4957-13.0378.3514-3.1146,1.0475-6.1964,1.1281-9.33a47.78,47.78,0,0,0-1.723-11.9341,31.0454,31.0454,0,0,1,6.7682,19.3574c-.0155,4.51-1.0195,8.9516-1.4986,13.4359-1.0234,9.5789.3532,19.3018-.7762,28.8688-1.0611,8.9877-4.88-4.4475-5.1391-6.7778C867.9723,61.2683,869.1859,54.3623,869.4788,47.5281Z"/><path class="cls-1" d="M983.4988,75.0712c.1863-4.3466.0081-8.7146.4958-13.0378.3513-3.1146,1.0474-6.1964,1.128-9.33A47.769,47.769,0,0,0,983.4,40.77a31.0456,31.0456,0,0,1,6.7683,19.3573c-.0155,4.51-1.02,8.9516-1.4987,13.4359-1.0234,9.579.3532,19.3018-.7762,28.8689-1.061,8.9876-4.88-4.4476-5.139-6.7778C981.9923,88.8114,983.2059,81.9055,983.4988,75.0712Z"/><path class="cls-1" d="M883.5065,68.4806c.1863-4.3466.0081-8.7146.4958-13.0378.3513-3.1146,1.0474-6.1963,1.128-9.33a47.77,47.77,0,0,0-1.723-11.934,31.0461,31.0461,0,0,1,6.7683,19.3573c-.0155,4.51-1.02,8.9517-1.4987,13.436-1.0234,9.5789.3532,19.3018-.7762,28.8688-1.061,8.9877-4.88-4.4476-5.1391-6.7778C882,82.2209,883.2136,75.3149,883.5065,68.4806Z"/><path class="cls-1" d="M847.6744,61.9215c-.4932-4.3226-.6243-8.6922-1.4165-12.97-.5707-3.082-1.4829-6.1068-1.7849-9.2266a47.7757,47.7757,0,0,1,.8748-12.026,31.0454,31.0454,0,0,0-5.3825,19.7875c.3344,4.4974,1.65,8.8571,2.4449,13.2963,1.6982,9.4826,1.0126,19.2784,2.8156,28.7417,1.694,8.89,4.553-4.7815,4.647-7.1243C850.1487,75.5208,848.45,68.7179,847.6744,61.9215Z"/><path class="cls-1" d="M1005.5183,86.5414c-.4932-4.3226-.6243-8.6922-1.4165-12.97-.5707-3.082-1.4829-6.1068-1.7849-9.2266a47.7757,47.7757,0,0,1,.8748-12.026,31.0454,31.0454,0,0,0-5.3825,19.7875c.3343,4.4974,1.65,8.8571,2.4449,13.2963,1.6982,9.4826,1.0125,19.2784,2.8156,28.7417,1.6939,8.89,4.553-4.7815,4.647-7.1243C1007.9926,100.1407,1006.2937,93.3378,1005.5183,86.5414Z"/><rect class="cls-2" x="0.1302" y="63.8484" width="1303.5676" height="476.8859"/><path class="cls-3" d="M1302.744,333.7659c0,.199-196.3061,2.0344-210.5434-5.5a180.6817,180.6817,0,0,1-16.35-10.2033l-45.6789-30.8168c-10.7761-7.27-38.06-18.8614-44.2312-30.0533-4.732-8.5818-.8024-28.9512-.8024-38.8054V67.6635h317.606Z"/><polygon class="cls-4" points="325.128 75.61 365.963 75.294 408.017 80.063 457.581 77.201 525.167 81.97 595.758 80.063 658.948 76.961 658.839 63.848 325.411 63.848 325.128 75.61"/><path class="cls-4" d="M984.1842,246.9726H761.6518c-15.2483,0-29.0112,2.01-42.3811-5.3225-14.0169-7.6878-23.0077-22.6861-34.8531-32.9523-5.8648-5.083-18.236-8.733-22.6773-13.6382-6.2769-6.9325-4.4559-15.7121-4.45-26.043q.0284-45.9075,0-91.8154H984.1843Z"/><path class="cls-5" d="M324.6169,65.5066h-62.83c-3.899,7.0744,1.97,16.4647,8.49,21.2728s14.5779,7.5237,20.3324,13.2142c7.0585,6.98,9.588,17.37,15.9781,24.958,3.23,3.836,7.5516,7.1555,8.7891,12.0028.6351,2.4878.3651,5.1137.7411,7.6529.5171,3.4924,2.2261,6.6769,3.576,9.9424,3.81,9.2162.1152,24.7743,9.189,28.97,4.3025,1.9895,12.788.9139,17.4554,1.2475l41.5,2.9657a54.1013,54.1013,0,0,0,14.9554-1.013l60.3008-12.6389a26.5362,26.5362,0,0,1,6.2213-.553l55.5955,1.63a20.5792,20.5792,0,0,1,8.561,2.1441l19.1595,9.5288a26.0441,26.0441,0,0,0,8.23,2.5062l22.8858,2.985a33.98,33.98,0,0,0,15.49-1.577l29.5906-10.2224,11.8637-3.6106c4.677-1.4234,9.5223-1.6611,14.1322-3.5584,2.1811-.8977,4.4653-1.3057,5.0609-4.4212.5812-3.0406.1672-8.1883.3731-11.5126.3114-5.03.0279-10.2924.0436-15.3449q.0576-18.4411.0384-36.8826c-.01-6.1316.1572-12.2289.3824-18.3468.1006-2.7336.7323-9.9176-2.01-10.6648a20.599,20.599,0,0,0-7.0362-.635l-6.3746.2917-18.187.8323-50.0476,2.29L550.512,80.1755l-23.8747.7217a3.8944,3.8944,0,0,1-.4441-.0121l-67.25-5.7153a3.8607,3.8607,0,0,0-.6045-.0039l-48.9277,3.519a3.8633,3.8633,0,0,1-.935-.0464L368,71.6472a11.5531,11.5531,0,0,0-2.4511-.1584c-12.5689.5271-24.3707,1.1344-35.4525-5.9822Z"/><line class="cls-6" x1="318.9284" y1="145.3959" x2="318.9284" y2="426.7586"/><path class="cls-7" d="M1302.0508,278.784c0-.8144-7.7759,1.8457-8.4365,2.2767a13.85,13.85,0,0,0-5.7925,7.5666c-1.012,3.4391-.7153,7.1583-1.7207,10.5993-2.7522,9.4187-16.7358,11.0543-24.7586,8.8831-12.64-3.4208-14.2616-10.3844-28.7659-2.67-6.3958,3.4016-13.0244,7.4632-20.2528,6.9873-13.8672-.913-25.4547-3.4381-38.9987,2.5-4.0673,1.7834-9.0424,2.985-12.7473.5359-2.4025-1.5881-3.7854-4.4457-6.285-5.8763-1.9537-1.1182-4.3054-1.2051-6.5513-1.3574-5.5449-.3759-11.7853-1.8009-14.549-6.632-6.582-11.528-16.0778-18.8439-28.6019-22.8541-13.7654-4.4075-28.2649,4.7558-40.9616-.472-10.2767-4.2337-17.3813-16.5651-27.7356-18.5867-4.351-.8494-8.8364-.4983-13.2631-.774-20.8409-1.2993-28.8231-16.9334-44.9813-26.3509-17.5587-10.2337-41.5951-11.809-61.3954-11.6427-10.5289.0884-22.9817,2.3854-29.9772-5.4836-1.7691-1.99-2.9977-4.5082-5.17-6.0487-3.2956-2.3376-7.7294-1.7914-11.7658-1.6092-20.3527.9184-37.0219-10.2457-57.4832-10.3937-7.3557-.0532-15.6035.31-20.6522,5.6594-6.3561,6.7347-5.3092,19.2581-16.7117,21.2959a17.1739,17.1739,0,0,1-14.068-4.0973c-15.3247-13.08-31.3-15.4341-43.3265-31.7935-8.2187-11.18-23.2272-18.8341-34.2509-26.9377C670.05,152.1,655.9048,142.2542,640.032,142.8533c-7.0768.267-13.9448,2.6428-21.0206,2.936-7.123.2951-14.1476-1.5269-21.2451-2.1985-17.5855-1.6641-34.6233,3.6868-51.8944,5.893-15.7162,2.0076-28.9332-.2859-44.0312-3.9779-16.87-4.1254-34.4782-3.6652-51.8387-3.18-29.216.816-57.007,3.3916-85.1734-5.6808-4.6777-1.5066-9.4718-3.0749-13.2983-6.1585-3.561-2.87-6.024-6.8434-8.5081-10.6834-14.4-22.2608-18.7-54.6724-51.7706-54.6725-32.5571,0-65.0268-.32-97.56-.32H21.917q-5.1408,0-10.2816.0261c-3.1323.0122-7.252-.6988-10.2831.0308-1.2383.2981-.7393-.229-1.101.9547a9.1007,9.1007,0,0,0,.0245,2.37C.3,69.8821.34,71.5716.3817,73.261c.0809,3.27.1754,6.5406.2014,9.8121,0,5.1518-2.1151,22.5656,1.7112,24.9257,2.7122,1.673,9.9917,1.0434,13.4,2.0079,6.917,1.9576,12.8413,7.0367,20.439,6.0456a13.2419,13.2419,0,0,1,6.2286.66c10.2187,3.7051,13.9354,9.2665,26.674,8.5538,13.8761-.7764,27.0276-6.6207,40.72-8.6254,33.0224-4.8345,65.5537,12.4706,98.9248,12.0047,8.7108-.1216,17.4134-1.4592,26.1134-.8525,21.3263,1.4887,46.3,5.62,65.2576,16.0211,22.9386,12.5853,25.3519,34.5486,39.2283,55.3106a71.0665,71.0665,0,0,0,58.9222,30.9942c40.9651-.5382,76.6143-36.4764,117.3381-31.9982,20.6181,2.2676,40.1362,7.8377,60.889,9.4677,22.2647,1.7487,47.0631,2.1,67.8108,11.222,28.1592,12.3809,46.098,40.6294,72.3206,56.71,28.8126,17.6693,64.4021,18.9333,98.1924,19.6922l106.93,2.4016c18.1828.4084,37.2051,1.0362,53.0581,9.9531,14.2272,8.0025,27.8134,17.1176,41.3053,26.2871,12.5043,8.4983,20.4195,18.9747,31.2388,29.4712,13.166,12.7731,31.0851,12.3592,48.1792,12.2411,18.8693-.13,33.5944,7.0017,51.64,8.7012,9.8118.924,19.4109,4.9421,29.3338,4.738,10.52-.217,13.64-8.19,22.1778-11.8175,12.4945-5.3068,22.6475-1.0109,34.6566,1.197,10.5422,1.9383,10.7384-1.0864,13.1911-10.0942,2.5515-9.3711,13.9818-6.4113,19.9123-1.9437a6.5514,6.5514,0,0,0,2.756,1.5352,5.1332,5.1332,0,0,0,2.1449-.2519c11.1247-3.0971,20.8184-6.0279,32.4091-7.1984C1303.6863,333.1125,1302.0513,306.0544,1302.0508,278.784Z"/><path class="cls-8" d="M622.48,197.0637c-.5793-.4333-1.6882-.1744-2.3091-.1276a22.2739,22.2739,0,0,0-3.5926.568c-1.7894.4356-3.8984,1.7177-3.4807,3.4825.3364,1.4215,2.0761,1.95,3.5343,2.2254a6.26,6.26,0,0,0,2.8363-.0124c.3286-.1041.5644-.3848.8969-.48a2.7327,2.7327,0,0,0,.8361-.2333,3.0033,3.0033,0,0,0,1.13-1.3588,5.7448,5.7448,0,0,0,.4772-2.0789,3.4779,3.4779,0,0,0-.14-1.7924A.8491.8491,0,0,0,622.48,197.0637Z"/><path class="cls-8" d="M412.0556,215.23c-.5794-.4333-1.6883-.1744-2.3091-.1276a22.277,22.277,0,0,0-3.5927.5681c-1.7894.4355-3.8983,1.7177-3.4807,3.4825.3364,1.4215,2.0761,1.9494,3.5343,2.2253a6.2593,6.2593,0,0,0,2.8364-.0124c.3286-.1041.5643-.3847.8968-.48a2.7352,2.7352,0,0,0,.8361-.2332,3.0029,3.0029,0,0,0,1.13-1.3589,5.7427,5.7427,0,0,0,.4772-2.0789,3.4775,3.4775,0,0,0-.14-1.7923A.85.85,0,0,0,412.0556,215.23Z"/><path class="cls-8" d="M576.0233,191.8685c.183-.0061.3647-.0152.5431-.0237,1.4481-.0694,2.8915.1537,4.3505.08a3.4683,3.4683,0,0,0,2.2327-.6935,2.4539,2.4539,0,0,0-.0508-3.2488,6.8187,6.8187,0,0,0-3.0724-1.8234c-2.7343-.9915-6.6785-1.282-7.7106,1.397a3.44,3.44,0,0,0,.8386,3.5158A3.6335,3.6335,0,0,0,576.0233,191.8685Z"/><path class="cls-8" d="M549.4611,191.4232a4.0879,4.0879,0,0,0-2.1172-.4279,8.5012,8.5012,0,0,0-3.0117.3023,4.3687,4.3687,0,0,0-3.2532,3.7017,2.9,2.9,0,0,0,1.1182,2.2724,3.5326,3.5326,0,0,0,2.2818.5906,3.4071,3.4071,0,0,0,1.8328-.29A6.3985,6.3985,0,0,0,549.1,194.6c.3306-.6778.9481-2.1237.6-2.8779A.8276.8276,0,0,0,549.4611,191.4232Z"/><path class="cls-8" d="M593.9276,200.6359c.246-.1717.4417-.4061.6808-.5881a3.7358,3.7358,0,0,0,.3982-.3047,7.508,7.508,0,0,1,1.0886-1.102,7.795,7.795,0,0,0,1.3305-1.1461,6.0634,6.0634,0,0,0,.8965-1.1441,2.2358,2.2358,0,0,0,.1752-1.2747,1.1538,1.1538,0,0,0-.0815-.51c-.2227-.4487-1.1572-.4109-1.5782-.4514a11.406,11.406,0,0,0-1.7984-.0441,5.917,5.917,0,0,0-3.2357,1.0876,3.7031,3.7031,0,0,0-1.1931,3.727c.3058,1.3046,1.8792,2.6926,3.2771,1.778Z"/><path class="cls-8" d="M533.8965,187.7052a1.6458,1.6458,0,0,0-.1057-.2435c-.3654-.73-1.5473-1.2077-2.288-1.5189a5.0584,5.0584,0,0,0-2.724-.4156,4.24,4.24,0,0,0-2.2842,1.21,2.07,2.07,0,0,0-.7482,1.95,1.2241,1.2241,0,0,0,.4821.6242,2.3759,2.3759,0,0,0,.7237.278,7.5212,7.5212,0,0,0,1.5452.26,7.6511,7.6511,0,0,0,3.0744-.433,6.9291,6.9291,0,0,0,1.3734-.6743c.276-.1763.9991-.5256.98-.8849A.6211.6211,0,0,0,533.8965,187.7052Z"/><path class="cls-8" d="M445.6344,202.0021a5.7542,5.7542,0,0,1-.9522.3593c-.275.08-2.5864.497-2.6413-.01a6.2707,6.2707,0,0,1,2.4428-5.3891c.956-.7781,3.207-1.8673,4.47-1.51,2.498.7076-1.4432,4.8061-2.1284,5.61A3.66,3.66,0,0,1,445.6344,202.0021Z"/><path class="cls-8" d="M426.9892,214.2084c-2.6965-.333-6.5608-1.664-6.4157-4.6086a3.8583,3.8583,0,0,1,3.2473-3.2195,11.58,11.58,0,0,1,4.9048.41,10.4718,10.4718,0,0,1,5.2416,2.513,3.12,3.12,0,0,1,1.0236,2.3482c-.1653.8578-1.7659,1.8416-2.5207,2.4025-1.1979.89-3.1224.2834-4.4892.2353C427.6784,214.2787,427.3439,214.2522,426.9892,214.2084Z"/><path class="cls-8" d="M396.832,211.7472a2.569,2.569,0,0,0-.3492-1.6433,2.8827,2.8827,0,0,0-1.1842-.8969,5.9722,5.9722,0,0,0-4.9637-.2413c-2.4515,1.1262-3.4087,5.3808-1.0622,7.1059C392.18,218.2088,396.6158,214.8177,396.832,211.7472Z"/><path class="cls-8" d="M372.0907,218.5687c-2.7466.0869-4.2029-6.1622-2.9547-6.8769,3.3587-1.9232,8.3936.95,5.69,4.836C373.8257,217.9647,372.902,218.5431,372.0907,218.5687Z"/><path class="cls-8" d="M461.2348,204c-2.7467.0869-4.2029-6.1622-2.9548-6.877,3.3587-1.9231,8.3936.95,5.69,4.8361C462.97,203.3961,462.046,203.9745,461.2348,204Z"/><path class="cls-8" d="M349.0475,198.3254a5.5085,5.5085,0,0,1-5.3538-.6274,3.3561,3.3561,0,0,1-.5681-4.8222,4.7649,4.7649,0,0,1,3.5359-1.042c2.44.0672,5.426-.2316,6.9051,2.114.0409,2.8835-.3452,3.3226-2.9991,3.6305C351.0873,197.5485,348.5276,198.3552,349.0475,198.3254Z"/><path class="cls-8" d="M507.8615,185.8921a2.57,2.57,0,0,0-.3492-1.6433,2.8827,2.8827,0,0,0-1.1842-.8969,5.9724,5.9724,0,0,0-4.9638-.2413c-2.4514,1.1262-3.4087,5.3808-1.0622,7.1059C503.2092,192.3537,507.6452,188.9626,507.8615,185.8921Z"/><path class="cls-8" d="M571.7936,199.1657a1.6363,1.6363,0,0,0-.0972-.738,4.9449,4.9449,0,0,0-1.7554-2.179,11.3046,11.3046,0,0,0-3.6322-1.877,10.9763,10.9763,0,0,0-4.0665-.4586c-.46.0366-1.6437.04-1.9873.3772-.5169.5069.1561,1.44.4661,1.941l1.1594,1.8726a3.2657,3.2657,0,0,0,.5531.73,2.7145,2.7145,0,0,0,.8222.4719c.7733.3111,1.605.4521,2.3975.7071a6.1387,6.1387,0,0,0,2,.2225c.8683-.0167,3.8166.0689,4.1088-.9238A1.0086,1.0086,0,0,0,571.7936,199.1657Z"/><path class="cls-8" d="M646.6543,209.6185c1.6565-1.8852,2.4681-5.81,1.1348-7.4524-2.1709-2.6739-6.9017-.22-7.4722,2.4045-.53,2.4387,2.1139,7.0033,5.0481,5.9823A3.151,3.151,0,0,0,646.6543,209.6185Z"/><path class="cls-8" d="M483.1192,192.3814a5.508,5.508,0,0,1-5.3538-.6274,3.356,3.356,0,0,1-.5681-4.8221,4.7648,4.7648,0,0,1,3.5359-1.0421c2.44.0673,5.426-.2316,6.9051,2.1141.0409,2.8835-.3452,3.3226-2.9991,3.6305C485.159,191.6045,482.5993,192.4113,483.1192,192.3814Z"/><path class="cls-9" d="M325.1141,47.7862c0,164.6731,0,328.6011-.0987,492.9481"/><path class="cls-10" d="M660.6533,63.7862c.1609,158.8359.1609,318.3259,0,476.9481"/><path class="cls-11" d="M663.333,63.9779c-.06,0,.0457,12.002.0773,13.1356,18.14.3014,39.4367,10.8709,56.8139,16.097l63.5848,19.1228c6.6913,2.0123,13.5232,4.0445,20.5079,3.8546,7.75-.2108,15.1389-3.1388,22.7469-4.6319,22.3357-4.3837,45.3164,3.7183,68.0254,2.1684,10.2279-.6981,20.2176-3.3458,30.04-6.281,23.1756-6.9253,43.72-20.2326,66.6858-27.3811,18.9028-5.8833,34.6326,4.1864,53.619,2.9092,8.4691-.57,16.5977-3.9322,25.0823-4.1817,14.7076-.4325,28.5236,8.4857,43.2251,7.8776a78.5922,78.5922,0,0,0,13.1757-2.181c14.57-3.1312,29.4448-4.3929,44.3172-4.88,6.7368-.2207,14.9885-1.5234,21.61-.3734,6.0049,1.0428,10.9731,5.3579,17.4967,5.4463,3.4785.0471,6.8806-.9061,10.2679-1.6988a132.62,132.62,0,0,1,38.4777-2.9308c14.4928.9095,29.1005,4.1483,43.48,2.1223,0-1.469.1488-18.5527.3967-18.5527Z"/><path class="cls-12" d="M981.91,52.7862c.2983,162.5416.2983,325.7315,0,487.9481"/><path class="cls-13" d="M1303.174,66.9369H782.526c-128.106,0-255.9449,1.0976-384.2229.7338Q199.3139,67.0868.3217,66.9369"/><path class="cls-14" d="M102.8861,514.9561a8.7481,8.7481,0,0,1,8.9526-9.0586,8.9734,8.9734,0,0,1,6.1333,2.2559v1.9023a7.8028,7.8028,0,0,0-6.1333-2.7842,7.6854,7.6854,0,0,0,0,15.3682,7.8,7.8,0,0,0,6.1333-2.7852v1.9043a8.9734,8.9734,0,0,1-6.1333,2.2559A8.7493,8.7493,0,0,1,102.8861,514.9561Z"/><path class="cls-14" d="M121.9578,514.9209A8.8841,8.8841,0,1,1,130.84,523.98,8.8081,8.8081,0,0,1,121.9578,514.9209Zm16.355-.0351a7.474,7.474,0,1,0-14.9453,0,7.4766,7.4766,0,1,0,14.9453,0Z"/><path class="cls-14" d="M144.6253,495.5694h1.41v28.1982h-1.41Z"/><path class="cls-14" d="M167.784,495.5694v28.1982h-1.41v-4.23a7.86,7.86,0,0,1-7.12,4.4766c-4.8994,0-8.3183-4.125-8.3183-9.0235,0-4.9355,3.4189-9.0585,8.3183-9.0585a7.8584,7.8584,0,0,1,7.12,4.4765v-14.84Zm-1.41,19.4218c0-4.16-2.996-7.6845-7.0849-7.6845s-6.9439,3.5244-6.9439,7.6845c0,4.1583,2.855,7.6485,6.9439,7.6485S166.3743,519.15,166.3743,514.9912Z"/><path class="cls-14" d="M170.89,527.9971l8.4595-32.4277h1.3745l-8.4595,32.4277Z"/><path class="cls-14" d="M197.9608,495.5694v28.1982h-1.41v-4.23a7.86,7.86,0,0,1-7.12,4.4766c-4.8994,0-8.3184-4.125-8.3184-9.0235,0-4.9355,3.419-9.0585,8.3184-9.0585a7.8585,7.8585,0,0,1,7.12,4.4765v-14.84Zm-1.41,19.4218c0-4.16-2.9961-7.6845-7.085-7.6845s-6.9438,3.5244-6.9438,7.6845c0,4.1583,2.855,7.6485,6.9438,7.6485S196.5511,519.15,196.5511,514.9912Z"/><path class="cls-14" d="M210.6536,505.9327v1.48c-3.0664-.1064-5.0756,2.9258-5.0756,6.4492v9.9053h-1.41v-17.624h1.41v3.4551A5.5885,5.5885,0,0,1,210.6536,505.9327Z"/><path class="cls-14" d="M227.786,506.1436l-10.61,24.6738h-1.41l3.2779-7.6133-7.437-17.0605h1.5156l6.5913,15.51,6.5561-15.51Z"/><path class="cls-14" d="M457.87,514.9053v9.8692h-1.41v-9.5167c0-4.6523-2.22-7.05-5.604-7.05-3.1724,0-5.7456,2.3975-5.7456,7.05v9.5167H443.7V496.5772h1.41v13.8164a6.682,6.682,0,0,1,5.8862-3.5244C454.7323,506.8692,457.87,509.4424,457.87,514.9053Z"/><path class="cls-14" d="M461.75,515.9278a8.8841,8.8841,0,1,1,8.8823,9.0586A8.8086,8.8086,0,0,1,461.75,515.9278Zm16.355-.0352a7.474,7.474,0,1,0-14.9453,0,7.4766,7.4766,0,1,0,14.9453,0Z"/><path class="cls-14" d="M489.4935,508.5264h-3.63v16.2481h-1.41V508.5264h-2.2558v-1.375h2.2558v-4.7236h1.41v4.7236h3.63Z"/><path class="cls-14" d="M490.13,529.0049l8.4595-32.4277h1.3745l-8.4595,32.4277Z"/><path class="cls-14" d="M517.2015,496.5772v28.1973h-1.41v-4.23a7.86,7.86,0,0,1-7.12,4.4765c-4.8994,0-8.3184-4.124-8.3184-9.0234,0-4.9346,3.419-9.0586,8.3184-9.0586a7.86,7.86,0,0,1,7.12,4.4766V496.5772Zm-1.41,19.4209c0-4.1592-2.9961-7.6846-7.0849-7.6846s-6.9439,3.5254-6.9439,7.6846,2.855,7.6494,6.9439,7.6494S515.7918,520.1573,515.7918,515.9981Z"/><path class="cls-14" d="M529.8944,506.94V508.42c-3.0664-.1065-5.0757,2.9257-5.0757,6.45v9.9043h-1.41V507.1514h1.41v3.4541A5.59,5.59,0,0,1,529.8944,506.94Z"/><path class="cls-14" d="M547.0267,507.1514l-10.61,24.6729h-1.41l3.2778-7.6133-7.437-17.06h1.5156l6.5913,15.5088,6.5562-15.5088Z"/><path class="cls-14" d="M754.119,514.9561a8.7481,8.7481,0,0,1,8.9526-9.0586,8.9734,8.9734,0,0,1,6.1333,2.2559v1.9023a7.8026,7.8026,0,0,0-6.1333-2.7842,7.6854,7.6854,0,0,0,0,15.3682,7.8,7.8,0,0,0,6.1333-2.7852v1.9043a8.9734,8.9734,0,0,1-6.1333,2.2559A8.7493,8.7493,0,0,1,754.119,514.9561Z"/><path class="cls-14" d="M773.1908,514.9209a8.884,8.884,0,1,1,8.8823,9.0586A8.808,8.808,0,0,1,773.1908,514.9209Zm16.3549-.0351a7.474,7.474,0,1,0-14.9453,0,7.4766,7.4766,0,1,0,14.9453,0Z"/><path class="cls-14" d="M795.8587,495.5694h1.41v28.1982h-1.41Z"/><path class="cls-14" d="M819.0169,495.5694v28.1982h-1.41v-4.23a7.86,7.86,0,0,1-7.12,4.4766c-4.8994,0-8.3183-4.125-8.3183-9.0235,0-4.9355,3.4189-9.0585,8.3183-9.0585a7.8586,7.8586,0,0,1,7.12,4.4765v-14.84Zm-1.41,19.4218c0-4.16-2.9961-7.6845-7.085-7.6845s-6.9439,3.5244-6.9439,7.6845c0,4.1583,2.855,7.6485,6.9439,7.6485S817.6073,519.15,817.6073,514.9912Z"/><path class="cls-14" d="M822.1224,527.9971l8.46-32.4277h1.3745l-8.46,32.4277Z"/><path class="cls-14" d="M859.0282,506.1436,849.8988,524.05h-.4229l-3.9477-7.9668-3.9126,7.9668h-.4229l-9.0937-17.9062H833.65l7.79,15.4385,3.3838-6.9795-4.1236-8.459H842.25l3.313,7.0146,3.2783-7.0146h1.5508l-4.124,8.459,3.4189,6.9795,7.7549-15.4385Z"/><path class="cls-14" d="M862.0286,515.3428c.1763,4.0195,2.961,7.2969,7.3316,7.2969a8.0928,8.0928,0,0,0,6.1333-2.7139v1.833a9.1453,9.1453,0,0,1-6.1333,2.2559c-5.4634,0-8.7412-4.16-8.7412-9.0586,0-4.9,3.4541-9.0234,8.4238-9.0234,5.1113,0,8.1426,4.4414,8.1426,9.41Zm13.6412-1.374c-.4585-3.63-2.82-6.6621-6.627-6.6621-3.877,0-6.5562,2.9258-6.9438,6.6621Z"/><path class="cls-14" d="M886.9876,507.5186h-3.63v16.249h-1.41v-16.249h-2.2559v-1.375h2.2559v-4.7227h1.41v4.7227h3.63Z"/><path class="cls-14" d="M1109.1019,514.9053v9.8692h-1.41v-9.5167c0-4.6523-2.22-7.05-5.604-7.05-3.1723,0-5.7456,2.3975-5.7456,7.05v9.5167h-1.41V496.5772h1.41v13.8164a6.682,6.682,0,0,1,5.8862-3.5244C1105.9647,506.8692,1109.1019,509.4424,1109.1019,514.9053Z"/><path class="cls-14" d="M1112.9827,515.9278a8.8841,8.8841,0,1,1,8.8824,9.0586A8.8087,8.8087,0,0,1,1112.9827,515.9278Zm16.355-.0352a7.474,7.474,0,1,0-14.9453,0,7.4766,7.4766,0,1,0,14.9453,0Z"/><path class="cls-14" d="M1140.7259,508.5264h-3.63v16.2481h-1.41V508.5264H1133.43v-1.375h2.2559v-4.7236h1.41v4.7236h3.63Z"/><path class="cls-14" d="M1141.3621,529.0049l8.4595-32.4277h1.3745l-8.4595,32.4277Z"/><path class="cls-14" d="M1178.2679,507.1514l-9.1294,17.9053h-.4228l-3.9478-7.9658-3.9126,7.9658h-.4228l-9.0938-17.9053h1.5508l7.79,15.4375,3.3838-6.9785-4.124-8.459h1.5513l3.313,7.0137,3.2783-7.0137h1.5508l-4.1241,8.459,3.419,6.9785,7.7549-15.4375Z"/><path class="cls-14" d="M1181.2689,516.3506c.1762,4.0186,2.9609,7.2969,7.3315,7.2969a8.0936,8.0936,0,0,0,6.1333-2.7148v1.833a9.145,9.145,0,0,1-6.1333,2.2558c-5.4634,0-8.7412-4.1592-8.7412-9.0586s3.4541-9.0234,8.4238-9.0234c5.1114,0,8.1426,4.4414,8.1426,9.4111Zm13.6411-1.375c-.4585-3.63-2.82-6.6621-6.627-6.6621-3.8769,0-6.5561,2.9258-6.9438,6.6621Z"/><path class="cls-14" d="M1206.2274,508.5264h-3.63v16.2481h-1.41V508.5264h-2.2558v-1.375h2.2558v-4.7236h1.41v4.7236h3.63Z"/></g></g></svg>