<svg xmlns="http://www.w3.org/2000/svg" viewBox="0 0 1303.69 536.28"><defs><style>.cls-1{fill:#ffce01;}.cls-2,.cls-8{fill:#3daaa1;}.cls-2{isolation:isolate;opacity:0.33;}.cls-3{fill:#3eaca2;}.cls-4{fill:#ececec;}.cls-5{fill:#fff;}.cls-10,.cls-13,.cls-15,.cls-16,.cls-18,.cls-19,.cls-20,.cls-6{fill:none;}.cls-6{stroke:#5c5052;stroke-linecap:round;stroke-width:1.08px;}.cls-10,.cls-15,.cls-16,.cls-18,.cls-19,.cls-20,.cls-6{stroke-miterlimit:10;}.cls-7{fill:#ffcf01;}.cls-9{fill:#ec6b7c;}.cls-10{stroke:#df6572;stroke-width:1.02px;}.cls-11{fill:#b78f6a;}.cls-12{fill:#754c24;}.cls-13{stroke:#3daaa1;stroke-linejoin:round;stroke-width:7.24px;}.cls-14{fill:#7c7169;}.cls-15{stroke:#fff;stroke-width:0.66px;}.cls-16,.cls-18,.cls-19,.cls-20{stroke:#ec6a7c;}.cls-16{stroke-width:1.74px;}.cls-17{fill:#ec6a7c;}.cls-18{stroke-width:1.75px;}.cls-19{stroke-width:1.76px;}.cls-20{stroke-width:1.36px;}</style></defs><g id="Layer_2" data-name="Layer 2"><g id="Layer_1-2" data-name="Layer 1"><path class="cls-1" d="M897.79,95.18a11.06,11.06,0,1,1,11.44-11.06A11.24,11.24,0,0,1,897.79,95.18Z"/><polygon class="cls-1" points="896.17 71.15 898.13 67.88 900.08 71.15 896.17 71.15"/><polygon class="cls-1" points="888.59 74.55 888.18 70.79 891.75 72.33 888.59 74.55"/><polygon class="cls-1" points="884.52 81.6 881.91 78.8 885.73 78.01 884.52 81.6"/><polygon class="cls-1" points="885.52 89.62 881.7 88.83 884.31 86.03 885.52 89.62"/><polygon class="cls-1" points="891.21 95.54 887.64 97.07 888.04 93.32 891.21 95.54"/><polygon class="cls-1" points="899.41 97.1 897.45 100.37 895.5 97.1 899.41 97.1"/><polygon class="cls-1" points="906.99 93.7 907.4 97.46 903.83 95.92 906.99 93.7"/><polygon class="cls-1" points="911.06 86.65 913.67 89.45 909.85 90.24 911.06 86.65"/><polygon class="cls-1" points="910.06 78.63 913.88 79.42 911.27 82.22 910.06 78.63"/><polygon class="cls-1" points="904.37 72.71 907.94 71.17 907.53 74.93 904.37 72.71"/><polygon class="cls-2" points="1183.9 63.12 1262.18 162.71 1183.9 181.58 1100.79 161.56 1183.9 63.12"/><polygon class="cls-3" points="1183.9 63.12 1183.9 181.58 1100.79 161.56 1183.9 63.12"/><polygon class="cls-4" points="1214.85 102.14 1203.74 100.22 1198.72 106.41 1188.68 104.09 1183.9 111.95 1183.9 62.77 1214.85 102.14"/><polygon class="cls-5" points="1150.26 102.61 1164.07 100.22 1169.09 106.41 1179.13 104.09 1183.9 111.95 1183.9 62.77 1150.26 102.61"/><path class="cls-6" d="M926.92,93.14c49.82,13,51.73,11.85,51.73,11.85l-6.72-10"/><line class="cls-6" x1="969.09" y1="110.97" x2="978.65" y2="104.99"/><polygon class="cls-7" points="1005.52 108.23 927.25 207.82 1005.52 226.68 1088.63 206.67 1005.52 108.23"/><polygon class="cls-8" points="1005.52 108.23 1005.52 226.68 1088.63 206.67 1005.52 108.23"/><polygon class="cls-4" points="974.57 147.25 985.69 145.32 990.71 151.52 1000.75 149.19 1005.52 157.06 1005.52 107.88 974.57 147.25"/><polygon class="cls-5" points="1039.16 147.72 1025.36 145.32 1020.34 151.52 1010.3 149.19 1005.52 157.06 1005.52 107.88 1039.16 147.72"/><path class="cls-6" d="M913.46,107.14c34.49,37.11,36.77,37.11,36.77,37.11V132.3"/><line class="cls-6" x1="938.84" y1="144.25" x2="950.23" y2="144.25"/><path class="cls-9" d="M1033.83,39.54v12h-1.49V49.09a5.48,5.48,0,0,1-4.73,2.65,6.18,6.18,0,0,1,0-12.34,5.44,5.44,0,0,1,4.73,2.67V39.54Zm-1.49,6a4.65,4.65,0,0,0-4.5-4.79h-.08a4.78,4.78,0,0,0,0,9.55,4.62,4.62,0,0,0,4.58-4.66v-.1Z"/><path class="cls-9" d="M1037,49.86l1-1.06a4.13,4.13,0,0,0,3,1.57c1.34,0,2.41-.75,2.41-1.93,0-3-6.19-2-6.17-6,0-1.73,1.54-3.06,3.64-3.08a5.21,5.21,0,0,1,3.75,1.71l-.92,1a4,4,0,0,0-2.81-1.35,1.94,1.94,0,0,0-2.16,1.68h0c0,2.79,6.2,1.83,6.18,6,0,1.85-1.6,3.29-4,3.29A5.42,5.42,0,0,1,1037,49.86Z"/><path class="cls-9" d="M1060.19,45.56a5.91,5.91,0,0,1-5.64,6.17h-.23a5.46,5.46,0,0,1-4.71-2.62v7.26h-1.49V39.54h1.49V42a5.46,5.46,0,0,1,4.71-2.62,5.89,5.89,0,0,1,5.88,5.9C1060.2,45.39,1060.19,45.47,1060.19,45.56Zm-1.52,0a4.54,4.54,0,1,0-9.06-.51v1a4.54,4.54,0,1,0,9.06-.5Z"/><path class="cls-9" d="M1074.38,46.06H1064.1a4.59,4.59,0,0,0,4.78,4.31,6.14,6.14,0,0,0,4.23-1.66v1.64a6.94,6.94,0,0,1-4.28,1.39,6.17,6.17,0,0,1-.25-12.34C1072.29,39.4,1074.46,42.52,1074.38,46.06Zm-10.25-1.27h8.66a4.29,4.29,0,0,0-4.21-4A4.44,4.44,0,0,0,1064.13,44.79Z"/><path class="cls-9" d="M1076.65,45.56a6.12,6.12,0,0,1,6-6.22h.34a6.32,6.32,0,0,1,4.15,1.42v1.78a5.39,5.39,0,0,0-4.1-1.78,4.79,4.79,0,1,0-.24,9.57h.24a5.39,5.39,0,0,0,4.1-1.78v1.79a6.38,6.38,0,0,1-4.15,1.42,6.13,6.13,0,0,1-6.35-5.88Z"/><path class="cls-9" d="M1095.07,40.94h-2.56V51.57H1091V40.94h-1.59v-1.4H1091V36.32h1.5v3.22h2.56Z"/><line class="cls-10" x1="994.16" y1="71.56" x2="1118.63" y2="71.56"/><path class="cls-11" d="M7.25,192.14c4.47.23,9,.45,13.45.27,5.33-.21,10.63-1,16-1a801.79,801.79,0,0,1,119.82,8.18q21.94,3.16,43.62,7.55c27,5.47,53.88,12.43,78.09,23.94,58.48,27.8,95.79,79.09,149.46,113.1,36.75,23.29,80.07,37.81,122.81,52.06l185.81,61.95c80.77,26.92,161.86,53.92,245.72,72.74h307a66.67,66.67,0,0,1,12.81,1.23,761.33,761.33,0,0,0-4.32-109.57c-.61-5.48-1.42-11.26-5.31-15.69-6.75-7.67-19.77-8.42-31.08-8.47L1185,398c-123.14-.63-247.91-1.45-366.78-28.57C704.69,343.56,599,293.64,513.57,225.53c-53.12-42.32-99.53-92.15-162.8-123C308.7,82,261.09,71.25,213.09,66.47,201,65.27,189,64.65,176.84,63.91c-11.33-.7-22.05-4-33.37-5.54C119.11,55,94.29,55.3,69.69,55.63c-21.53.29-43.19.42-64.73.42,0,34.55-.48,69.17-.48,103.76,0,7.78-.43,15.56-.43,23.35v6C4,191.52,4.23,192,7.25,192.14Z"/><path class="cls-12" d="M7.19,33.89,6.91,34c.56,3-.75,6.82-1,9.95-.27,3.85-.27,7.71-.26,11.57v8.59L68.74,64c21.89,0,43.78,0,65.66-.23l1.41,0c42-.69,82.57,8.14,123.08,17.84,39.09,9.35,77.19,23.91,111.36,45.26a452.41,452.41,0,0,1,65.88,50.5c17.57,16.11,34.61,32.66,53,48.08C571.49,294.32,673.86,345,784,375.25c24.41,6.7,46.35,8.48,66.93,22C876.38,413.89,909,420.47,940.79,425c16,2.29,29.11,10.05,44.92,12.66,3.23.53,6.51.83,9.78,1.14l10.12.94c24.18,2.26,47.58-2.54,71.51-1.14,28.82,1.7,55.64,12.13,85.06,11.78,31.62-.38,62.06-10.37,93.83-5.1,9.29,1.54,18.45,4.06,27.93,4.27,4.18.09,9.49,0,13.18-2.3,4.33-2.72,4.21-9.61,4.64-14.35l1.42-15.52c.12-1.29-.11-3.06-1.41-3.2a39.34,39.34,0,0,0-3.18-19.91c-2.29-5.41-5.81-7.29-11.11-9.51-4.46-1.87-11.37-.8-15.87-.73-10.89.18-21.74-.56-32.58-.6-85.52-.37-171-1.78-256.34-6.86-50.79-3-101.51-8.35-151.11-18.27a828.67,828.67,0,0,1-152.12-45.45,660.71,660.71,0,0,1-72.58-35.64c-30.78-17.27-63.71-34.16-91.61-54.68-9.79-7.2-18-15.72-26.65-23.88-12.57-11.93-23.41-25-35.43-37.36-14.48-14.83-32-26.78-48.08-40.25-27-22.55-55-41.32-90.18-54.06-34.44-12.49-71.28-19.47-108.12-24.75-35-5-70.22-9.07-105.71-10.8-11.44-.55-22.62.71-34,1-10,.27-20,0-30,0C27.44,32.5,16.59,31.73,7.19,33.89Z"/><path class="cls-13" d="M1289,530.93a68.58,68.58,0,0,1,10.26.78c0-2.36.06-4,.07-4.42.31-35.93.76-71.91.76-107.78,0-34.46,1.87-37.43-40.67-37.57-39.56-.13-79.13-.51-118.67-1.68-114.29-3.39-225.38-.09-336.24-27.62-100.69-25-200.7-65.24-279.6-124.23C460.08,180,415.11,112.46,338.24,75.69c-20.57-9.84-42.65-16.87-65-22.83C186.87,29.82,95.67,31.09,5.57,31.09,2.41,31.32,4,108.6,4.05,113.85q0,33.26.3,66.52c.07,9.61.2,19.23.22,28.84,0,13.94,4.13,23.84,9.4,36.91l7.66,19c4.24,10.52,8.48,21.05,11.93,31.85,8.07,25.27,11.7,51.71,19.62,77,3.6,11.46,6.4,20.69,15.52,28.16Q86.15,416.41,104.18,430c19.29,14.52,39.36,28.65,54.31,47.61,1.88,2.38,3.73,4.89,6.31,6.49a24,24,0,0,0,5.19,2.19l93.6,30.93c14.07,4.64,29.85,12.52,44.54,14.24s31.28-.49,46.13-.49H1289Z"/><path class="cls-14" d="M1.7,288.77V536.28H8.3c14.59,0,29.14-.31,43.72-.31H1303V522.79c-8.6.62-16.84,2.47-25.59,2.55l-66.1.66c-36.14.36-71.95-.57-108-2.8-13.41-.83-26.93-1.66-40-4.38-12.47-2.59-24.5-6.71-37.14-8.78q-14.82-2.44-29.47-5.54c-81.14-17.31-152.82-56.21-223.85-92.34-30.32-15.42-65.67-23.75-98.65-34.8C535.89,331,452.84,218.8,321.37,163.53c-49.72-20.9-103.5-29.83-157-33.67-27.52-2-55.11-2.62-82.69-2.8C65.11,127,8.86,117,1.7,132.94c-2.71,6,0,19.64,0,26.14V288.77Z"/><path class="cls-5" d="M1083.69,496.22h-3.2v13.83h-1.24V496.22h-2v-1.17h2v-4h1.24v4h3.2Z"/><path class="cls-5" d="M1085.21,502.52a7.83,7.83,0,1,1,7.82,7.71A7.63,7.63,0,0,1,1085.21,502.52Zm14.41,0a6.59,6.59,0,0,0-13.17,0,6.59,6.59,0,0,0,13.17,0Z"/><path class="cls-5" d="M1105.26,502.88a6.27,6.27,0,0,0,6.46,6.21,7.26,7.26,0,0,0,5.41-2.31v1.56a8.24,8.24,0,0,1-5.41,1.92,7.7,7.7,0,0,1-.28-15.39c4.51,0,7.18,3.78,7.18,8Zm12-1.17c-.4-3.09-2.48-5.67-5.84-5.67a6.07,6.07,0,0,0-6.11,5.67Z"/><path class="cls-5" d="M1121.5,507.89l.93-.84a4.93,4.93,0,0,0,3.82,2c1.86,0,3.42-1,3.42-2.79,0-4.26-7.92-2.94-7.86-7.83,0-2.1,1.86-3.6,4.25-3.63a6.21,6.21,0,0,1,4.54,2.13l-.81.81a5,5,0,0,0-3.69-1.77c-1.74,0-3,1.05-3.08,2.43-.09,3.9,7.89,2.61,7.83,7.86,0,2.25-1.87,4-4.66,4A6.1,6.1,0,0,1,1121.5,507.89Z"/><path class="cls-5" d="M1135,486.05h1.24v24H1135Z"/><path class="cls-5" d="M1140.59,502.52a7.83,7.83,0,1,1,7.83,7.71A7.63,7.63,0,0,1,1140.59,502.52Zm14.41,0a6.59,6.59,0,0,0-13.17,0,6.59,6.59,0,0,0,13.17,0Z"/><path class="cls-5" d="M1175.37,502.55a7.4,7.4,0,0,1-7.33,7.71,6.93,6.93,0,0,1-6.24-3.75v9.54h-1.25v-21h1.25v3.57a6.93,6.93,0,0,1,6.24-3.75A7.39,7.39,0,0,1,1175.37,502.55Zm-1.25,0a6.17,6.17,0,1,0-12.32-.66v1.32a6.17,6.17,0,1,0,12.32-.66Z"/><path class="cls-5" d="M1179.77,502.88a6.27,6.27,0,0,0,6.46,6.21,7.23,7.23,0,0,0,5.4-2.31v1.56a8.21,8.21,0,0,1-5.4,1.92,7.7,7.7,0,0,1-.28-15.39c4.5,0,7.17,3.78,7.17,8Zm12-1.17c-.4-3.09-2.49-5.67-5.84-5.67a6.09,6.09,0,0,0-6.12,5.67Z"/><path class="cls-5" d="M779.6,489.31v6.45h3.23v1.17H779.6v13.83h-1.24V496.93h-2v-1.17h2v-6.6a2.54,2.54,0,0,1,2.64-2.61,3,3,0,0,1,1.83.6v1.29a2.82,2.82,0,0,0-1.74-.69A1.46,1.46,0,0,0,779.6,489.31Z"/><path class="cls-5" d="M784.35,503.23a7.83,7.83,0,1,1,7.83,7.71A7.63,7.63,0,0,1,784.35,503.23Zm14.41,0a6.58,6.58,0,0,0-13.16,0,6.58,6.58,0,0,0,13.16,0Z"/><path class="cls-5" d="M803.17,503.23a7.83,7.83,0,1,1,7.82,7.71A7.62,7.62,0,0,1,803.17,503.23Zm14.4,0a6.58,6.58,0,0,0-13.16,0,6.58,6.58,0,0,0,13.16,0Z"/><path class="cls-5" d="M827.6,496.93h-3.2v13.83h-1.24V496.93h-2v-1.17h2v-4h1.24v4h3.2Z"/><path class="cls-5" d="M829.3,508.6l.94-.84a4.93,4.93,0,0,0,3.82,2c1.86,0,3.41-1.05,3.41-2.79,0-4.26-7.92-2.94-7.85-7.83,0-2.1,1.86-3.6,4.25-3.63a6.19,6.19,0,0,1,4.53,2.13l-.8.81a5,5,0,0,0-3.7-1.77c-1.74,0-3,1-3.07,2.43-.1,3.9,7.89,2.61,7.82,7.86,0,2.25-1.86,4-4.66,4A6.11,6.11,0,0,1,829.3,508.6Z"/><path class="cls-5" d="M842.84,486.76h1.24v24h-1.24Z"/><path class="cls-5" d="M848.4,503.23a7.83,7.83,0,1,1,7.82,7.71A7.62,7.62,0,0,1,848.4,503.23Zm14.4,0a6.58,6.58,0,0,0-13.16,0,6.58,6.58,0,0,0,13.16,0Z"/><path class="cls-5" d="M883.17,503.26a7.39,7.39,0,0,1-7.33,7.71,6.94,6.94,0,0,1-6.24-3.75v9.54h-1.24v-21h1.24v3.57a6.94,6.94,0,0,1,6.24-3.75A7.38,7.38,0,0,1,883.17,503.26Zm-1.24,0a6.17,6.17,0,1,0-12.33-.66v1.32a6.17,6.17,0,1,0,12.33-.66Z"/><path class="cls-5" d="M887.58,503.59A6.26,6.26,0,0,0,894,509.8a7.24,7.24,0,0,0,5.4-2.31v1.56A8.23,8.23,0,0,1,894,511a7.7,7.7,0,0,1-.28-15.39c4.5,0,7.17,3.78,7.17,8Zm12-1.17c-.4-3.09-2.48-5.67-5.83-5.67a6.07,6.07,0,0,0-6.12,5.67Z"/><path class="cls-5" d="M495.25,378.15a7.39,7.39,0,0,1-7.33,7.71,6.94,6.94,0,0,1-6.27-3.81v3.6h-1.24v-24h1.24v12.63a6.94,6.94,0,0,1,6.27-3.81A7.38,7.38,0,0,1,495.25,378.15Zm-1.24,0a6.22,6.22,0,0,0-6.12-6.51,6.53,6.53,0,0,0,0,13.05A6.24,6.24,0,0,0,494,378.15Z"/><path class="cls-5" d="M513.26,370.65v15H512v-3.6a6.94,6.94,0,0,1-6.27,3.81,7.7,7.7,0,0,1,0-15.39,6.94,6.94,0,0,1,6.27,3.81v-3.63ZM512,378.18a6.34,6.34,0,0,0-6.24-6.54,6.54,6.54,0,0,0,0,13.05A6.32,6.32,0,0,0,512,378.18Z"/><path class="cls-5" d="M517.57,378.15a7.57,7.57,0,0,1,7.88-7.71,8.08,8.08,0,0,1,5.41,1.92V374a7,7,0,0,0-5.41-2.37,6.54,6.54,0,1,0,0,13.08,7,7,0,0,0,5.41-2.37v1.62a8.08,8.08,0,0,1-5.41,1.92A7.57,7.57,0,0,1,517.57,378.15Z"/><path class="cls-5" d="M545,385.65l-8.26-6.9v6.9h-1.24v-24h1.24v16.17l8-7.17h1.71l-8.54,7.62,8.85,7.38Z"/><path class="cls-5" d="M548.52,383.49l.93-.84a4.93,4.93,0,0,0,3.82,2c1.86,0,3.41-1.05,3.41-2.79,0-4.26-7.91-2.94-7.85-7.83,0-2.1,1.86-3.6,4.25-3.63a6.23,6.23,0,0,1,4.54,2.13l-.81.81a5,5,0,0,0-3.7-1.77c-1.73,0-3,1.05-3.07,2.43-.09,3.9,7.89,2.61,7.82,7.86,0,2.25-1.86,4-4.65,4A6.08,6.08,0,0,1,548.52,383.49Z"/><path class="cls-5" d="M562.05,361.65h1.25v24h-1.25Z"/><path class="cls-5" d="M567.61,378.12a7.83,7.83,0,1,1,7.82,7.71A7.63,7.63,0,0,1,567.61,378.12Zm14.41,0a6.59,6.59,0,0,0-13.17,0,6.59,6.59,0,0,0,13.17,0Z"/><path class="cls-5" d="M602.38,378.15a7.39,7.39,0,0,1-7.33,7.71,6.94,6.94,0,0,1-6.24-3.75v9.54h-1.24v-21h1.24v3.57a6.94,6.94,0,0,1,6.24-3.75A7.38,7.38,0,0,1,602.38,378.15Zm-1.24,0a6.21,6.21,0,0,0-6.12-6.51,6.28,6.28,0,0,0-6.21,5.85v1.32a6.31,6.31,0,0,0,6.21,5.88A6.24,6.24,0,0,0,601.14,378.15Z"/><path class="cls-5" d="M606.79,378.48a6.27,6.27,0,0,0,6.46,6.21,7.23,7.23,0,0,0,5.4-2.31v1.56a8.21,8.21,0,0,1-5.4,1.92,7.7,7.7,0,0,1-.28-15.39c4.5,0,7.17,3.78,7.17,8Zm12-1.17c-.41-3.09-2.49-5.67-5.84-5.67a6.07,6.07,0,0,0-6.12,5.67Z"/><path class="cls-5" d="M263.42,229.87l.93-.84a4.93,4.93,0,0,0,3.82,2c1.87,0,3.42-1,3.42-2.79,0-4.26-7.92-2.94-7.86-7.83,0-2.1,1.86-3.6,4.26-3.63a6.21,6.21,0,0,1,4.53,2.13l-.81.81A5,5,0,0,0,268,218c-1.74,0-3,1-3.08,2.43-.09,3.9,7.89,2.61,7.83,7.86,0,2.25-1.87,4-4.66,4A6.1,6.1,0,0,1,263.42,229.87Z"/><path class="cls-5" d="M289.44,223.63V232H288.2v-8.1c0-4-2-6-4.94-6-2.79,0-5.06,2-5.06,6V232H277V208h1.24v11.75a5.91,5.91,0,0,1,5.19-3C286.68,216.79,289.44,219,289.44,223.63Z"/><path class="cls-5" d="M292.85,224.5a7.83,7.83,0,1,1,7.83,7.71A7.63,7.63,0,0,1,292.85,224.5Zm14.41,0a6.59,6.59,0,0,0-13.17,0,6.59,6.59,0,0,0,13.17,0Z"/><path class="cls-5" d="M325,217v15h-1.24v-2.76a5.92,5.92,0,0,1-5.19,3c-3.29,0-6-2.19-6-6.84V217h1.24v8.1c0,4,2,6,4.94,6,2.79,0,5.06-2,5.06-6V217Z"/><path class="cls-5" d="M330.48,208h1.24v24h-1.24Z"/><path class="cls-5" d="M350.88,208v24h-1.24v-3.6a7,7,0,0,1-6.28,3.81,7.7,7.7,0,0,1,0-15.39,7,7,0,0,1,6.28,3.81V208Zm-1.24,16.52a6.34,6.34,0,0,0-6.25-6.54,6.54,6.54,0,0,0,0,13A6.32,6.32,0,0,0,349.64,224.56Z"/><path class="cls-5" d="M356.43,224.86a6.27,6.27,0,0,0,6.46,6.21,7.23,7.23,0,0,0,5.4-2.31v1.56a8.21,8.21,0,0,1-5.4,1.92,7.7,7.7,0,0,1-.28-15.39c4.5,0,7.17,3.78,7.17,8Zm12-1.17c-.4-3.09-2.49-5.67-5.84-5.67a6.07,6.07,0,0,0-6.12,5.67Z"/><path class="cls-5" d="M379.65,216.85v1.26c-2.7-.09-4.47,2.49-4.47,5.49V232h-1.24V217h1.24V220A4.92,4.92,0,0,1,379.65,216.85Z"/><path d="M62.31,18.67l.75-.67a3.92,3.92,0,0,0,3,1.63c1.49,0,2.73-.84,2.73-2.23,0-3.41-6.33-2.35-6.28-6.26,0-1.68,1.49-2.89,3.4-2.91a5,5,0,0,1,3.63,1.71l-.65.64a4,4,0,0,0-3-1.41,2.22,2.22,0,0,0-2.46,1.94c-.08,3.12,6.31,2.09,6.26,6.29,0,1.8-1.49,3.17-3.73,3.17A4.9,4.9,0,0,1,62.31,18.67Z"/><path d="M82.9,8.4v12h-1V18.19a4.72,4.72,0,0,1-4.15,2.4c-2.63,0-4.84-1.75-4.84-5.47V8.4h1v6.48c0,3.17,1.56,4.8,4,4.8,2.24,0,4-1.63,4-4.8V8.4Z"/><path d="M104.61,13.25l0,7.15h-1V13.46c0-2.61-1.34-4.32-3.58-4.32s-3.57,1.71-3.57,4.56l0,6.7h-1V13.46c0-2.61-1.34-4.32-3.58-4.32s-3.58,1.71-3.58,4.56v6.7h-1V8.4h1v1.92A4.12,4.12,0,0,1,92,8.21a4.26,4.26,0,0,1,4.12,2.9,4.19,4.19,0,0,1,4-2.9C102.57,8.21,104.61,10,104.61,13.25Z"/><path d="M126.09,13.25l0,7.15h-1V13.46c0-2.61-1.34-4.32-3.57-4.32s-3.58,1.71-3.58,4.56l0,6.7h-1V13.46c0-2.61-1.34-4.32-3.58-4.32s-3.57,1.71-3.57,4.56v6.7h-1V8.4h1v1.92a4.11,4.11,0,0,1,3.7-2.11,4.25,4.25,0,0,1,4.12,2.9,4.2,4.2,0,0,1,4.05-2.9C124.06,8.21,126.09,10,126.09,13.25Z"/><path d="M130.24,5.18a.72.72,0,0,1,.74-.72.72.72,0,0,1,.75.72.71.71,0,0,1-.75.72A.7.7,0,0,1,130.24,5.18Zm.25,3.22h1v12h-1Z"/><path d="M139.92,9.33h-2.55V20.4h-1V9.33h-1.59V8.4h1.59V5.18h1V8.4h2.55Z"/><path d="M672.36,143.67h1v19.2h-1Z"/><path d="M676.8,156.84a6.26,6.26,0,1,1,6.26,6.17A6.1,6.1,0,0,1,676.8,156.84Zm11.53,0a5.27,5.27,0,0,0-10.53,0,5.27,5.27,0,0,0,10.53,0Z"/><path d="M709.42,150.87,703,163.06h-.29l-2.79-5.43-2.75,5.43h-.3l-6.41-12.19h1.09L697,161.38l2.39-4.75-2.91-5.76h1.09l2.34,4.77,2.31-4.77h1.09l-2.9,5.76,2.41,4.75,5.46-10.51Z"/><path d="M711.53,157.13a5,5,0,0,0,5.16,5,5.82,5.82,0,0,0,4.33-1.85v1.25a6.59,6.59,0,0,1-4.33,1.54,6.16,6.16,0,0,1-.22-12.32c3.6,0,5.74,3,5.74,6.41Zm9.61-.94c-.32-2.47-2-4.53-4.67-4.53a4.85,4.85,0,0,0-4.89,4.53Z"/><path d="M724.52,161.14l.74-.67a4,4,0,0,0,3.06,1.63c1.49,0,2.73-.84,2.73-2.23,0-3.41-6.33-2.36-6.29-6.27,0-1.68,1.49-2.88,3.41-2.9a5,5,0,0,1,3.63,1.7l-.65.65a4,4,0,0,0-3-1.42,2.23,2.23,0,0,0-2.46,2c-.07,3.12,6.31,2.09,6.26,6.29,0,1.8-1.49,3.17-3.72,3.17A4.86,4.86,0,0,1,724.52,161.14Z"/><path d="M738.67,151.8h-2.55v11.07h-1V151.8h-1.59v-.93h1.59v-3.22h1v3.22h2.55Z"/><path d="M750,147.65a.72.72,0,0,1,.74-.72.72.72,0,0,1,.75.72.71.71,0,0,1-.75.72A.7.7,0,0,1,750,147.65Zm.25,3.22h1v12h-1Z"/><path d="M765.84,156.15v6.72h-1v-6.48c0-3.17-1.56-4.8-4-4.8-2.23,0-4,1.63-4,4.8v6.48h-1v-12h1v2.2a4.74,4.74,0,0,1,4.15-2.4C763.63,150.67,765.84,152.43,765.84,156.15Z"/><path d="M776.6,162.87h-1V151.8h-4.37v11.07h-1V151.8h-1.57v-.93h1.57v-5.28a2,2,0,0,1,2.11-2.09,2.39,2.39,0,0,1,1.47.48v1a2.31,2.31,0,0,0-1.4-.55,1.17,1.17,0,0,0-1.19,1.25v5.16h5.37Zm.25-15.22a.71.71,0,0,1-.75.72.7.7,0,0,1-.74-.72.72.72,0,0,1,.74-.72A.72.72,0,0,1,776.85,147.65Z"/><path d="M781.22,143.67h1v19.2h-1Z"/><path d="M790.41,151.8h-2.56v11.07h-1V151.8h-1.59v-.93h1.59v-3.22h1v3.22h2.56Z"/><path d="M797.61,150.72v1c-2.16-.07-3.58,2-3.58,4.39v6.75h-1v-12h1v2.35A3.94,3.94,0,0,1,797.61,150.72Z"/><path d="M810.7,150.87v12h-1V160a5.57,5.57,0,0,1-5,3,6.17,6.17,0,0,1,0-12.32,5.57,5.57,0,0,1,5,3.05v-2.9Zm-1,6a5.08,5.08,0,0,0-5-5.23,5.23,5.23,0,0,0,0,10.44A5.06,5.06,0,0,0,809.71,156.89Z"/><path d="M818.89,151.8h-2.56v11.07h-1V151.8h-1.59v-.93h1.59v-3.22h1v3.22h2.56Z"/><path d="M821.53,147.65a.72.72,0,0,1,.74-.72.72.72,0,0,1,.75.72.71.71,0,0,1-.75.72A.7.7,0,0,1,821.53,147.65Zm.24,3.22h1v12h-1Z"/><path d="M826.47,156.84a6.26,6.26,0,1,1,6.26,6.17A6.09,6.09,0,0,1,826.47,156.84Zm11.52,0a5.27,5.27,0,0,0-10.53,0,5.27,5.27,0,0,0,10.53,0Z"/><path d="M852.42,156.15v6.72h-1v-6.48c0-3.17-1.57-4.8-3.95-4.8s-4.05,1.63-4.05,4.8v6.48h-1v-12h1v2.2a4.74,4.74,0,0,1,4.15-2.4C850.21,150.67,852.42,152.43,852.42,156.15Z"/><path d="M855.35,151.49a.75.75,0,0,1,1.49,0,.75.75,0,0,1-1.49,0Zm.8,8.69h1l-1.06,5.33h-.75Z"/><path d="M692.23,185v6.72h-1v-6.48c0-3.17-1.57-4.8-4-4.8s-4,1.63-4,4.8v6.48h-1v-19.2h1v9.4a4.74,4.74,0,0,1,4.15-2.4C690,179.47,692.23,181.23,692.23,185Z"/><path d="M696.38,176.45a.72.72,0,0,1,.74-.72.72.72,0,0,1,.75.72.71.71,0,0,1-.75.72A.7.7,0,0,1,696.38,176.45Zm.24,3.22h1v12h-1Z"/><path d="M713.19,191.11c0,3.8-2.93,5.53-5.81,5.53a8.4,8.4,0,0,1-4.62-1.4l0-1.1a7.54,7.54,0,0,0,4.47,1.58c2.79,0,5-1.68,5-4.77v-2.19a5.55,5.55,0,0,1-5,3.07,6.16,6.16,0,0,1,0-12.31,5.6,5.6,0,0,1,5,3l0-2.88h1Zm-1-5.42a5.07,5.07,0,0,0-5-5.23,5.23,5.23,0,0,0,0,10.44A5.05,5.05,0,0,0,712.2,185.69Z"/><path d="M727.55,185v6.72h-1v-6.48c0-3.17-1.56-4.8-3.95-4.8-2.23,0-4.05,1.63-4.05,4.8v6.48h-1v-19.2h1v9.4a4.77,4.77,0,0,1,4.15-2.4C725.34,179.47,727.55,181.23,727.55,185Z"/><path d="M731.27,185.93a5,5,0,0,0,5.17,5,5.78,5.78,0,0,0,4.32-1.85v1.25a6.59,6.59,0,0,1-4.32,1.53,6.16,6.16,0,0,1-.22-12.31c3.6,0,5.73,3,5.73,6.41Zm9.62-.94c-.33-2.47-2-4.53-4.67-4.53a4.85,4.85,0,0,0-4.9,4.53Z"/><path d="M744.26,189.94l.75-.67a3.92,3.92,0,0,0,3,1.63c1.49,0,2.73-.84,2.73-2.23,0-3.41-6.33-2.36-6.28-6.27,0-1.68,1.49-2.88,3.4-2.9a5,5,0,0,1,3.63,1.7l-.65.65a4,4,0,0,0-2.95-1.42,2.22,2.22,0,0,0-2.46,1.95c-.08,3.12,6.31,2.09,6.26,6.29,0,1.8-1.49,3.16-3.73,3.16A4.89,4.89,0,0,1,744.26,189.94Z"/><path d="M758.42,180.6h-2.56v11.07h-1V180.6h-1.59v-.93h1.59v-3.22h1v3.22h2.56Z"/><path d="M769.82,185.93a5,5,0,0,0,5.16,5,5.78,5.78,0,0,0,4.32-1.85v1.25a6.59,6.59,0,0,1-4.32,1.53,6.16,6.16,0,0,1-.22-12.31c3.6,0,5.74,3,5.74,6.41Zm9.61-.94c-.32-2.47-2-4.53-4.67-4.53a4.85,4.85,0,0,0-4.89,4.53Z"/><path d="M788.39,179.52v1c-2.16-.07-3.57,2-3.57,4.39v6.75h-1v-12h1V182A3.91,3.91,0,0,1,788.39,179.52Z"/><path d="M789.61,185.64a6.26,6.26,0,1,1,6.26,6.17A6.09,6.09,0,0,1,789.61,185.64Zm11.53,0a5.27,5.27,0,0,0-10.54,0,5.27,5.27,0,0,0,10.54,0Z"/><path d="M804.56,189.94l.75-.67a3.92,3.92,0,0,0,3.05,1.63c1.49,0,2.74-.84,2.74-2.23,0-3.41-6.34-2.36-6.29-6.27,0-1.68,1.49-2.88,3.4-2.9a5,5,0,0,1,3.63,1.7l-.65.65a4,4,0,0,0-3-1.42,2.22,2.22,0,0,0-2.46,1.95c-.07,3.12,6.31,2.09,6.26,6.29,0,1.8-1.49,3.16-3.73,3.16A4.89,4.89,0,0,1,804.56,189.94Z"/><path d="M815.39,176.45a.75.75,0,0,1,1.49,0,.75.75,0,0,1-1.49,0Zm.25,3.22h1v12h-1Z"/><path d="M820.33,185.64a6.26,6.26,0,1,1,6.26,6.17A6.1,6.1,0,0,1,820.33,185.64Zm11.53,0a5.27,5.27,0,0,0-10.53,0,5.27,5.27,0,0,0,10.53,0Z"/><path d="M846.29,185v6.72h-1v-6.48c0-3.17-1.57-4.8-3.95-4.8s-4.05,1.63-4.05,4.8v6.48h-1v-12h1v2.2a4.74,4.74,0,0,1,4.15-2.4C844.08,179.47,846.29,181.23,846.29,185Z"/><path d="M734.64,220.47l-2.14-2.26a5.75,5.75,0,0,1-4.89,2.5c-2.66,0-5.32-1.51-5.32-4.47,0-2.37,1.79-3.62,3.7-4.7-1.26-1.23-2.68-2.81-2.68-4.42a4.09,4.09,0,0,1,8.15,0c0,2.3-2,3.48-4,4.61a1,1,0,0,1,.18.16l4.72,4.92a11.07,11.07,0,0,0,.87-4.68h.89a10.47,10.47,0,0,1-1.12,5.36c.95,1,1.94,2,2.91,3Zm-2.76-2.91c-1.59-1.68-3.13-3.26-4.65-4.8-.17-.19-.39-.38-.62-.6-1.76,1-3.35,2.11-3.35,4.06,0,2.35,2.26,3.6,4.35,3.6A4.84,4.84,0,0,0,731.88,217.56Zm-5.07-6.48c1.91-1,3.7-2,3.7-4a2.83,2.83,0,0,0-3.12-2.83,2.89,2.89,0,0,0-3.09,2.86C724.3,208.56,725.6,209.88,726.81,211.08Z"/><path d="M751.55,208.32v1c-2.16-.07-3.58,2-3.58,4.39v6.75h-1v-12h1v2.35A3.94,3.94,0,0,1,751.55,208.32Z"/><path d="M763.94,208.47v12h-1v-2.21a4.72,4.72,0,0,1-4.15,2.4c-2.63,0-4.84-1.75-4.84-5.47v-6.72h1V215c0,3.17,1.57,4.8,3.95,4.8S763,218.12,763,215v-6.48Z"/><path d="M778.3,213.75v6.72h-1V214c0-3.17-1.56-4.8-3.94-4.8s-4.05,1.63-4.05,4.8v6.48h-1v-12h1v2.2a4.74,4.74,0,0,1,4.15-2.4C776.09,208.27,778.3,210,778.3,213.75Z"/><path d="M781,214.44a6.26,6.26,0,1,1,6.26,6.17A6.09,6.09,0,0,1,781,214.44Zm11.52,0a5.27,5.27,0,0,0-10.53,0,5.27,5.27,0,0,0,10.53,0Z"/><path d="M798,203.31v5.16h2.59v.93H798v11.07h-1V209.4h-1.57v-.93H797v-5.28a2,2,0,0,1,2.11-2.09,2.39,2.39,0,0,1,1.47.48v1a2.34,2.34,0,0,0-1.4-.55A1.17,1.17,0,0,0,798,203.31Z"/><path d="M804.45,203.31v5.16H807v.93h-2.58v11.07h-1V209.4h-1.57v-.93h1.57v-5.28a2,2,0,0,1,2.11-2.09,2.36,2.36,0,0,1,1.46.48v1a2.28,2.28,0,0,0-1.39-.55A1.17,1.17,0,0,0,804.45,203.31Z"/><path d="M465.94,62.77h1V82h-1Z"/><path d="M470.38,76a6.26,6.26,0,1,1,6.26,6.17A6.1,6.1,0,0,1,470.38,76Zm11.53,0a5.27,5.27,0,0,0-10.53,0,5.27,5.27,0,0,0,10.53,0Z"/><path d="M503,70l-6.43,12.19h-.3l-2.78-5.42-2.76,5.42h-.29L484,70h1.09l5.49,10.51L493,75.73,490.08,70h1.09l2.34,4.78L495.82,70h1.09L494,75.73l2.41,4.75L501.88,70Z"/><path d="M513.47,66.75a.73.73,0,0,1,.75-.72.72.72,0,0,1,.74.72.7.7,0,0,1-.74.72A.71.71,0,0,1,513.47,66.75Zm.25,3.22h1V82h-1Z"/><path d="M529.32,75.25V82h-1V75.49c0-3.17-1.57-4.8-4-4.8s-4,1.63-4,4.8V82h-1V70h1v2.21a4.72,4.72,0,0,1,4.14-2.4C527.11,69.78,529.32,71.53,529.32,75.25Z"/><path d="M540.07,82h-1V70.91h-4.37V82h-1V70.91h-1.56V70h1.56V64.69a2,2,0,0,1,2.11-2.09,2.43,2.43,0,0,1,1.47.48v1a2.28,2.28,0,0,0-1.39-.55,1.17,1.17,0,0,0-1.19,1.25V70h5.36Zm.25-15.22a.75.75,0,0,1-1.49,0,.75.75,0,0,1,1.49,0Z"/><path d="M544.69,62.77h1V82h-1Z"/><path d="M553.88,70.91h-2.56V82h-1V70.91h-1.59V70h1.59V66.75h1V70h2.56Z"/><path d="M561.08,69.83v1c-2.16-.07-3.57,2-3.57,4.4V82h-1V70h1v2.35A3.92,3.92,0,0,1,561.08,69.83Z"/><path d="M574.17,70V82h-1V79.09a5.56,5.56,0,0,1-5,3,6.16,6.16,0,0,1,0-12.31,5.56,5.56,0,0,1,5,3V70Zm-1,6a5.07,5.07,0,0,0-5-5.23,5.23,5.23,0,0,0,0,10.44A5,5,0,0,0,573.18,76Z"/><path d="M582.37,70.91h-2.56V82h-1V70.91h-1.59V70h1.59V66.75h1V70h2.56Z"/><path d="M585,66.75a.75.75,0,0,1,1.49,0,.75.75,0,0,1-1.49,0Zm.25,3.22h1V82h-1Z"/><path d="M589.94,76a6.26,6.26,0,1,1,6.26,6.17A6.1,6.1,0,0,1,589.94,76Zm11.53,0a5.27,5.27,0,0,0-10.53,0,5.27,5.27,0,0,0,10.53,0Z"/><path d="M615.9,75.25V82h-1V75.49c0-3.17-1.56-4.8-3.95-4.8-2.23,0-4.05,1.63-4.05,4.8V82h-1V70h1v2.21a4.75,4.75,0,0,1,4.15-2.4C613.69,69.78,615.9,71.53,615.9,75.25Z"/><path d="M618.83,70.59a.74.74,0,0,1,.74-.74.75.75,0,0,1,.75.74.72.72,0,0,1-.75.72A.72.72,0,0,1,618.83,70.59Zm.79,8.69h1l-1.07,5.33h-.74Z"/><path d="M463.75,103.62l0,7.15h-1v-6.94c0-2.61-1.34-4.32-3.57-4.32s-3.58,1.71-3.58,4.56l0,6.7h-1v-6.94c0-2.61-1.34-4.32-3.58-4.32s-3.57,1.71-3.57,4.56v6.7h-1v-12h1v1.92a4.11,4.11,0,0,1,3.7-2.11,4.25,4.25,0,0,1,4.12,2.9,4.2,4.2,0,0,1,4-2.9C461.72,98.58,463.75,100.38,463.75,103.62Z"/><path d="M466.48,104.75a6.26,6.26,0,1,1,6.26,6.17A6.11,6.11,0,0,1,466.48,104.75Zm11.53,0a5.27,5.27,0,0,0-10.53,0,5.27,5.27,0,0,0,10.53,0Z"/><path d="M493.41,91.57v19.2h-1v-2.88a5.55,5.55,0,0,1-5,3,6.16,6.16,0,0,1,0-12.31,5.54,5.54,0,0,1,5,3V91.57Zm-1,13.22a5.07,5.07,0,0,0-5-5.23,5.23,5.23,0,0,0,0,10.44A5,5,0,0,0,492.41,104.79Z"/><path d="M497.85,105a5,5,0,0,0,5.17,5,5.78,5.78,0,0,0,4.32-1.85v1.25a6.55,6.55,0,0,1-4.32,1.54,6.16,6.16,0,0,1-.22-12.31c3.6,0,5.73,3,5.73,6.4Zm9.62-.93c-.33-2.47-2-4.54-4.67-4.54a4.86,4.86,0,0,0-4.9,4.54Z"/><path d="M516.43,98.63v1c-2.16-.07-3.58,2-3.58,4.4v6.74h-1v-12h1v2.35A3.94,3.94,0,0,1,516.43,98.63Z"/><path d="M529.52,98.77v12h-1v-2.88a5.57,5.57,0,0,1-5,3,6.16,6.16,0,0,1,0-12.31,5.57,5.57,0,0,1,5,3v-2.9Zm-1,6a5.08,5.08,0,0,0-5-5.23,5.23,5.23,0,0,0,0,10.44A5.06,5.06,0,0,0,528.53,104.79Z"/><path d="M537.71,99.71h-2.56v11.06h-1V99.71h-1.59v-.94h1.59V95.55h1v3.22h2.56Z"/><path d="M539.92,105a5,5,0,0,0,5.17,5,5.78,5.78,0,0,0,4.32-1.85v1.25a6.55,6.55,0,0,1-4.32,1.54,6.16,6.16,0,0,1-.22-12.31c3.6,0,5.74,3,5.74,6.4Zm9.62-.93c-.33-2.47-2-4.54-4.67-4.54a4.87,4.87,0,0,0-4.9,4.54Z"/><path d="M562.7,105a5,5,0,0,0,5.17,5,5.81,5.81,0,0,0,4.32-1.85v1.25a6.58,6.58,0,0,1-4.32,1.54,6.16,6.16,0,0,1-.23-12.31c3.6,0,5.74,3,5.74,6.4Zm9.61-.93c-.32-2.47-2-4.54-4.67-4.54a4.85,4.85,0,0,0-4.89,4.54Z"/><path d="M581.28,98.63v1c-2.16-.07-3.58,2-3.58,4.4v6.74h-1v-12h1v2.35A3.93,3.93,0,0,1,581.28,98.63Z"/><path d="M582.49,104.75a6.26,6.26,0,1,1,6.26,6.17A6.11,6.11,0,0,1,582.49,104.75Zm11.53,0a5.27,5.27,0,0,0-10.53,0,5.27,5.27,0,0,0,10.53,0Z"/><path d="M597.44,109l.75-.67a3.93,3.93,0,0,0,3,1.63c1.49,0,2.74-.84,2.74-2.23,0-3.41-6.34-2.35-6.29-6.26,0-1.68,1.49-2.88,3.41-2.91a4.94,4.94,0,0,1,3.62,1.71l-.64.64a4,4,0,0,0-3-1.41,2.23,2.23,0,0,0-2.46,1.94c-.07,3.12,6.31,2.09,6.26,6.29,0,1.8-1.49,3.17-3.72,3.17A4.9,4.9,0,0,1,597.44,109Z"/><path d="M608.27,95.55a.73.73,0,0,1,.75-.72.72.72,0,0,1,.74.72.7.7,0,0,1-.74.72A.71.71,0,0,1,608.27,95.55Zm.25,3.22h1v12h-1Z"/><path d="M613.22,104.75a6.26,6.26,0,1,1,6.25,6.17A6.1,6.1,0,0,1,613.22,104.75Zm11.52,0a5.27,5.27,0,0,0-10.53,0,5.27,5.27,0,0,0,10.53,0Z"/><path d="M639.17,104.05v6.72h-1v-6.48c0-3.17-1.57-4.8-3.95-4.8s-4.05,1.63-4.05,4.8v6.48h-1v-12h1V101a4.72,4.72,0,0,1,4.15-2.4C637,98.58,639.17,100.33,639.17,104.05Z"/><path d="M513.16,139.57,511,137.31a5.77,5.77,0,0,1-4.9,2.5c-2.65,0-5.31-1.51-5.31-4.46,0-2.38,1.79-3.63,3.7-4.71-1.27-1.22-2.68-2.81-2.68-4.41a4.08,4.08,0,0,1,8.14,0c0,2.31-2,3.48-4,4.61a.91.91,0,0,1,.17.17l4.72,4.92a11,11,0,0,0,.87-4.68h.9a10.55,10.55,0,0,1-1.12,5.35c.94,1,1.94,2,2.91,3Zm-2.75-2.9c-1.59-1.68-3.13-3.27-4.65-4.8-.17-.2-.4-.39-.62-.6-1.76,1-3.35,2.11-3.35,4,0,2.36,2.26,3.6,4.34,3.6A4.84,4.84,0,0,0,510.41,136.67Zm-5.07-6.48c1.91-1,3.7-2,3.7-4a2.83,2.83,0,0,0-3.13-2.83,2.89,2.89,0,0,0-3.08,2.85C502.83,127.67,504.12,129,505.34,130.19Z"/><path d="M530.08,127.43v1c-2.17-.07-3.58,2-3.58,4.4v6.74h-1v-12h1v2.35A3.93,3.93,0,0,1,530.08,127.43Z"/><path d="M542.47,127.57v12h-1v-2.21a4.72,4.72,0,0,1-4.15,2.4c-2.63,0-4.85-1.75-4.85-5.47v-6.72h1v6.48c0,3.17,1.56,4.8,3.95,4.8,2.23,0,4.05-1.63,4.05-4.8v-6.48Z"/><path d="M556.82,132.85v6.72h-1v-6.48c0-3.17-1.56-4.8-4-4.8-2.23,0-4,1.63-4,4.8v6.48h-1v-12h1v2.21a4.72,4.72,0,0,1,4.15-2.4C554.61,127.38,556.82,129.13,556.82,132.85Z"/><path d="M559.55,133.55a6.27,6.27,0,1,1,6.27,6.17A6.11,6.11,0,0,1,559.55,133.55Zm11.53,0a5.27,5.27,0,0,0-10.53,0,5.27,5.27,0,0,0,10.53,0Z"/><path d="M576.52,122.41v5.16h2.58v.94h-2.58v11.06h-1V128.51H574v-.94h1.57v-5.28a2,2,0,0,1,2.11-2.09,2.42,2.42,0,0,1,1.46.48v1a2.28,2.28,0,0,0-1.39-.55A1.17,1.17,0,0,0,576.52,122.41Z"/><path d="M583,122.41v5.16h2.59v.94H583v11.06h-1V128.51h-1.56v-.94H582v-5.28a2,2,0,0,1,2.11-2.09,2.43,2.43,0,0,1,1.47.48v1a2.28,2.28,0,0,0-1.39-.55A1.17,1.17,0,0,0,583,122.41Z"/><path class="cls-7" d="M252.94,326.4l-12.06,16.31-.85-.58,1.81-2.45a6,6,0,0,1-6.18-.36c-2.93-2-3.21-5.82-1.12-8.65a6.44,6.44,0,0,1,8.86-1.81,5.54,5.54,0,0,1,2.35,5.54l6.34-8.59Zm-9.15,10.65a5.12,5.12,0,0,0-1-7.38,5.42,5.42,0,0,0-7.44,1.58c-1.78,2.4-1.57,5.6.88,7.29A5.5,5.5,0,0,0,243.79,337.05Z"/><path class="cls-7" d="M248.26,340.44a5,5,0,0,0,1.27,7.26,6.08,6.08,0,0,0,4.83,1l-.78,1.06a6.88,6.88,0,0,1-4.64-1.23,6,6,0,0,1-1.36-8.85,6.45,6.45,0,0,1,8.9-1.74c3.07,2.11,3,5.94.85,8.81Zm8.75,4.85c1.28-2.29,1.17-5-1.12-6.59a5.25,5.25,0,0,0-7,1Z"/><path class="cls-7" d="M259.55,347.9a6.57,6.57,0,0,1,9.23-1.54,6.37,6.37,0,0,1,2.71,3.84l-.81,1.1a5.73,5.73,0,0,0-10.29-2.82,5.17,5.17,0,0,0,1.23,7.57,5.87,5.87,0,0,0,4.86.92l-.81,1.1a6.76,6.76,0,0,1-4.64-1.23A6.08,6.08,0,0,1,259.55,347.9Z"/><path class="cls-7" d="M279.49,353.79l-.63.85c-1.8-1.33-4.3-.4-5.8,1.63L268.82,362l-.84-.59,7.54-10.19.84.58-1.48,2A4.23,4.23,0,0,1,279.49,353.79Z"/><path class="cls-7" d="M277.34,360.53a5,5,0,0,0,1.27,7.25,6.15,6.15,0,0,0,4.84,1l-.79,1.06a6.89,6.89,0,0,1-4.64-1.24c-3.27-2.25-3.45-6-1.35-8.85a6.46,6.46,0,0,1,8.9-1.74c3.06,2.12,3,5.94.85,8.81Zm8.76,4.84c1.28-2.29,1.16-5-1.12-6.59a5.28,5.28,0,0,0-7,1Z"/><path class="cls-7" d="M302.49,369.85,295,380.05l-.84-.58,1.81-2.45a6,6,0,0,1-6.18-.36c-2.94-2-3.22-5.82-1.12-8.65a6.43,6.43,0,0,1,8.85-1.81,5.49,5.49,0,0,1,2.35,5.54l1.83-2.47Zm-4.63,4.54a5.11,5.11,0,0,0-.95-7.38,5.44,5.44,0,0,0-7.45,1.58c-1.78,2.4-1.56,5.6.89,7.29A5.49,5.49,0,0,0,297.86,374.39Z"/><path class="cls-7" d="M298.89,380.55l1.05-.14a3.89,3.89,0,0,0,1.57,3.18,2.63,2.63,0,0,0,3.73-.29c2.14-2.9-3.91-5.71-1.41-9a3.41,3.41,0,0,1,4.72-.47,4.89,4.89,0,0,1,2,3.58l-1,.17a3.93,3.93,0,0,0-1.62-2.94,2.4,2.4,0,0,0-3.31.21c-2,2.61,4.05,5.47,1.37,9-1.15,1.52-3.26,1.82-5.16.51A4.82,4.82,0,0,1,298.89,380.55Z"/><path class="cls-7" d="M314.75,378.32l.85.58-7.54,10.2-.84-.58Zm1.81-2.88a.79.79,0,0,1,1.09-.17.72.72,0,0,1,.18,1.05.77.77,0,0,1-1.09.17A.72.72,0,0,1,316.56,375.44Z"/><path class="cls-7" d="M324.69,392l-4.22,5.71-.84-.58,4.07-5.51c2-2.69,1.68-5-.34-6.39s-4.47-1-6.46,1.7l-4.07,5.5-.85-.58,7.54-10.2.85.59L319,384.07a5.07,5.07,0,0,1,5,.4C326.25,386,327,388.8,324.69,392Z"/><path class="cls-7" d="M333.23,405.77c-2.38,3.22-6,3-8.41,1.28a8.37,8.37,0,0,1-3.05-3.89l.71-.93a7.45,7.45,0,0,0,2.81,4,5,5,0,0,0,7.22-1.14l1.37-1.86a6,6,0,0,1-6.21-.35c-2.94-2-3.22-5.82-1.12-8.66a6.43,6.43,0,0,1,8.85-1.8,5.57,5.57,0,0,1,2.37,5.52l1.78-2.46.85.58Zm2.56-5.19a5.12,5.12,0,0,0-1-7.38,5.44,5.44,0,0,0-7.45,1.58c-1.78,2.4-1.56,5.6.89,7.29A5.5,5.5,0,0,0,335.79,400.58Z"/><path class="cls-7" d="M351.73,403.85l.85.59L345,414.63l-.85-.58Zm1.81-2.87a.79.79,0,0,1,1.09-.18.72.72,0,0,1,.18,1.05.78.78,0,0,1-1.09.18A.72.72,0,0,1,353.54,401Z"/><path class="cls-7" d="M361.67,417.49l-4.22,5.71-.84-.58,4.07-5.5c2-2.7,1.68-5-.34-6.4s-4.47-1-6.46,1.7l-4.07,5.51-.84-.59,7.53-10.19.85.58L356,409.61a5.07,5.07,0,0,1,5,.39C363.23,411.55,364,414.33,361.67,417.49Z"/><path class="cls-7" d="M366.59,429.51l-.85-.58,7-9.4L369,417l-7,9.4-.84-.59,6.95-9.4-1.33-.92.58-.79,1.33.92L372,411.1a2.2,2.2,0,0,1,3.11-.53,2.36,2.36,0,0,1,.94,1.26l-.65.88a2.2,2.2,0,0,0-.83-1.28,1.26,1.26,0,0,0-1.8.36l-3.24,4.38,4.56,3.15Zm9.77-12.78a.77.77,0,0,1-1.08.18.71.71,0,0,1-.19-1.05.79.79,0,0,1,1.09-.18A.72.72,0,0,1,376.36,416.73Z"/><path class="cls-7" d="M382.58,415.91l.84.59-12.06,16.31-.84-.58Z"/><path class="cls-7" d="M385.28,428.22l-2.18-1.5-7,9.4-.84-.59,6.95-9.4-1.35-.93.58-.8,1.36.94,2-2.74.84.59-2,2.73,2.17,1.5Z"/><path class="cls-7" d="M392.07,431.53l-.63.85c-1.79-1.33-4.29-.4-5.8,1.64l-4.23,5.72-.85-.58L388.1,429l.85.58-1.48,2A4.21,4.21,0,0,1,392.07,431.53Z"/><path class="cls-7" d="M403.11,439.33l-7.54,10.19-.85-.58,1.82-2.45a6,6,0,0,1-6.18-.35c-2.94-2-3.22-5.82-1.13-8.66a6.44,6.44,0,0,1,8.86-1.8,5.5,5.5,0,0,1,2.35,5.53l1.82-2.46Zm-4.63,4.53a5.1,5.1,0,0,0-1-7.37,5.43,5.43,0,0,0-7.44,1.57c-1.78,2.41-1.56,5.61.89,7.3A5.49,5.49,0,0,0,398.48,443.86Z"/><path class="cls-7" d="M409.49,444.93l-2.18-1.5-6.95,9.4-.84-.58,7-9.4-1.35-.93.59-.8,1.34.93,2-2.73.84.58-2,2.74,2.17,1.5Z"/><path class="cls-7" d="M412.52,445.83l.85.58-7.54,10.2L405,456Zm1.81-2.88a.78.78,0,0,1,1.09-.17.73.73,0,0,1,.18,1.05.77.77,0,0,1-1.09.17A.71.71,0,0,1,414.33,443Z"/><path class="cls-7" d="M412.76,453.66a6.63,6.63,0,0,1,9.18-1.55,6.14,6.14,0,0,1,1.45,8.9,6.62,6.62,0,0,1-9.19,1.56A6.14,6.14,0,0,1,412.76,453.66Zm9.81,6.74a5.17,5.17,0,0,0-1.22-7.49,5.6,5.6,0,0,0-7.73,1.31,5.24,5.24,0,0,0,1.17,7.56A5.64,5.64,0,0,0,422.57,460.4Z"/><path class="cls-7" d="M435.25,468.3,431,474l-.84-.58,4.07-5.51c2-2.69,1.68-5-.34-6.39s-4.47-1-6.46,1.7l-4.07,5.5-.84-.58L430.08,458l.85.58-1.39,1.87a5.07,5.07,0,0,1,5,.4C436.81,462.35,437.59,465.14,435.25,468.3Z"/><path class="cls-7" d="M435.89,473.91l.86.6-4.26,3.9-.63-.44Zm4.78-7.85a.8.8,0,0,1,1.1-.19.74.74,0,0,1,.16,1.07.77.77,0,0,1-1.08.17A.72.72,0,0,1,440.67,466.06Z"/><path class="cls-7" d="M241.71,364.86l.85.58L235,375.64l-.85-.58Zm1.81-2.88a.79.79,0,0,1,1.09-.17.72.72,0,0,1,.18,1.05.77.77,0,0,1-1.09.17A.72.72,0,0,1,243.52,362Z"/><path class="cls-7" d="M251.65,378.5l-4.22,5.71-.84-.58,4.07-5.51c2-2.69,1.68-5-.34-6.4s-4.47-1-6.46,1.71l-4.07,5.5-.85-.58,7.54-10.2.85.59-1.39,1.87a5.07,5.07,0,0,1,5,.4C253.21,372.55,254,375.34,251.65,378.5Z"/><path class="cls-7" d="M253.52,380.71a6.58,6.58,0,0,1,9.24-1.53,6.42,6.42,0,0,1,2.71,3.84l-.82,1.1a5.5,5.5,0,0,0-2.48-4.15,5.56,5.56,0,0,0-7.8,1.33,5.15,5.15,0,0,0,1.23,7.56,5.91,5.91,0,0,0,4.86.93l-.82,1.1a6.77,6.77,0,0,1-4.63-1.23A6.11,6.11,0,0,1,253.52,380.71Z"/><path class="cls-7" d="M273.47,386.6l-.64.86c-1.79-1.33-4.29-.41-5.8,1.63l-4.23,5.73-.85-.59L269.49,384l.84.58-1.47,2A4.25,4.25,0,0,1,273.47,386.6Z"/><path class="cls-7" d="M271.32,393.34a5,5,0,0,0,1.27,7.25,6.13,6.13,0,0,0,4.83,1l-.78,1.06a6.92,6.92,0,0,1-4.64-1.23c-3.27-2.26-3.46-6-1.36-8.86a6.45,6.45,0,0,1,8.9-1.73c3.06,2.11,3,5.93.85,8.81Zm8.75,4.85c1.28-2.29,1.16-5-1.11-6.6a5.28,5.28,0,0,0-7,1Z"/><path class="cls-7" d="M296.47,402.67l-7.54,10.19-.85-.58,1.81-2.45a6,6,0,0,1-6.18-.35c-2.93-2-3.21-5.83-1.12-8.66a6.43,6.43,0,0,1,8.86-1.8,5.5,5.5,0,0,1,2.35,5.53l1.82-2.47Zm-4.63,4.53a5.1,5.1,0,0,0-1-7.37,5.42,5.42,0,0,0-7.44,1.57c-1.78,2.41-1.57,5.61.88,7.3A5.5,5.5,0,0,0,291.84,407.2Z"/><path class="cls-7" d="M292.86,413.36l1.06-.13a3.89,3.89,0,0,0,1.57,3.18,2.61,2.61,0,0,0,3.72-.3c2.14-2.89-3.9-5.71-1.4-9a3.4,3.4,0,0,1,4.71-.47,4.91,4.91,0,0,1,2,3.58l-.95.17a4,4,0,0,0-1.62-2.94,2.42,2.42,0,0,0-3.32.21c-2,2.61,4.06,5.48,1.37,9-1.15,1.51-3.25,1.81-5.15.5A4.83,4.83,0,0,1,292.86,413.36Z"/><path class="cls-7" d="M308.73,411.13l.84.59L302,421.91l-.84-.58Zm1.81-2.87a.77.77,0,0,1,1.08-.18.72.72,0,0,1,.18,1.05.75.75,0,0,1-1.08.17A.7.7,0,0,1,310.54,408.26Z"/><path class="cls-7" d="M318.67,424.77l-4.23,5.71-.84-.58,4.07-5.51c2-2.69,1.69-5-.34-6.39s-4.46-1-6.45,1.7l-4.08,5.51-.84-.59,7.54-10.19.84.58L313,416.89a5,5,0,0,1,5,.39C320.23,418.83,321,421.61,318.67,424.77Z"/><path class="cls-7" d="M327.2,438.58a5.85,5.85,0,0,1-8.4,1.28,8.33,8.33,0,0,1-3.06-3.89l.72-.93a7.48,7.48,0,0,0,2.8,4,4.94,4.94,0,0,0,7.22-1.14l1.38-1.85a6,6,0,0,1-6.22-.35c-2.93-2-3.21-5.83-1.12-8.66a6.43,6.43,0,0,1,8.86-1.8,5.52,5.52,0,0,1,2.36,5.51l1.79-2.46.84.58Zm2.57-5.19a5.1,5.1,0,0,0-1-7.37,5.42,5.42,0,0,0-7.44,1.57c-1.78,2.41-1.57,5.61.88,7.3A5.5,5.5,0,0,0,329.77,433.39Z"/><path class="cls-7" d="M341.63,441.89a5,5,0,0,0,1.26,7.25,6.16,6.16,0,0,0,4.84,1l-.79,1.06a6.91,6.91,0,0,1-4.63-1.23c-3.27-2.26-3.46-6-1.36-8.86a6.46,6.46,0,0,1,8.9-1.74c3.06,2.12,3,5.94.85,8.81Zm8.75,4.84c1.28-2.29,1.16-5-1.12-6.59a5.26,5.26,0,0,0-7,1Z"/><path class="cls-7" d="M361.44,447.35l-.64.85c-1.78-1.33-4.28-.4-5.79,1.63l-4.24,5.73-.84-.58,7.54-10.19.84.58-1.48,2A4.23,4.23,0,0,1,361.44,447.35Z"/><path class="cls-7" d="M358.63,453.26a6.63,6.63,0,0,1,9.18-1.55,6.14,6.14,0,0,1,1.46,8.89,6.63,6.63,0,0,1-9.2,1.57A6.14,6.14,0,0,1,358.63,453.26Zm9.81,6.74a5.16,5.16,0,0,0-1.22-7.49,5.6,5.6,0,0,0-7.73,1.31,5.24,5.24,0,0,0,1.17,7.56A5.65,5.65,0,0,0,368.44,460Z"/><path class="cls-7" d="M368.64,465.68l1.05-.13a3.92,3.92,0,0,0,1.57,3.18,2.64,2.64,0,0,0,3.73-.29c2.14-2.9-3.91-5.72-1.41-9a3.39,3.39,0,0,1,4.72-.47,4.91,4.91,0,0,1,2,3.57l-1,.17a3.93,3.93,0,0,0-1.62-2.93,2.4,2.4,0,0,0-3.31.2c-2,2.61,4.05,5.48,1.37,9-1.15,1.51-3.26,1.82-5.16.5A4.78,4.78,0,0,1,368.64,465.68Z"/><path class="cls-7" d="M384.5,463.46l.85.58-7.54,10.19-.84-.58Zm1.81-2.88a.79.79,0,0,1,1.09-.18.72.72,0,0,1,.18,1.05.78.78,0,0,1-1.09.18A.72.72,0,0,1,386.31,460.58Z"/><path class="cls-7" d="M384.74,471.29a6.61,6.61,0,0,1,9.18-1.55,6.14,6.14,0,0,1,1.46,8.89,6.63,6.63,0,0,1-9.2,1.57A6.14,6.14,0,0,1,384.74,471.29Zm9.81,6.74a5.17,5.17,0,0,0-1.22-7.5,5.59,5.59,0,0,0-7.73,1.32,5.23,5.23,0,0,0,1.17,7.55A5.64,5.64,0,0,0,394.55,478Z"/><path class="cls-7" d="M407.23,485.93,403,491.64l-.84-.59,4.07-5.5c2-2.69,1.68-5-.34-6.4s-4.47-1-6.46,1.7l-4.07,5.51-.84-.58,7.53-10.2.85.58L401.52,478a5,5,0,0,1,5,.4C408.79,480,409.57,482.77,407.23,485.93Z"/><path d="M999.77,263.9v1c-2.16-.07-3.58,2-3.58,4.4V276h-1V264h1v2.35A3.94,3.94,0,0,1,999.77,263.9Z"/><path d="M1012.16,264v12h-1v-2.21a4.72,4.72,0,0,1-4.15,2.4c-2.63,0-4.84-1.75-4.84-5.47V264h1v6.48c0,3.17,1.57,4.8,4,4.8s4-1.63,4-4.8V264Z"/><path d="M1026.52,269.32V276h-1v-6.48c0-3.17-1.57-4.8-3.95-4.8s-4.05,1.63-4.05,4.8V276h-1V264h1v2.21a4.72,4.72,0,0,1,4.15-2.4C1024.31,263.85,1026.52,265.6,1026.52,269.32Z"/><path d="M1029.25,270a6.26,6.26,0,1,1,6.26,6.16A6.1,6.1,0,0,1,1029.25,270Zm11.53,0a5.27,5.27,0,0,0-10.54,0,5.27,5.27,0,0,0,10.54,0Z"/><path d="M1046.21,258.88V264h2.59V265h-2.59V276h-1V265h-1.57V264h1.57v-5.28a2,2,0,0,1,2.11-2.09,2.45,2.45,0,0,1,1.47.48v1a2.31,2.31,0,0,0-1.39-.55A1.17,1.17,0,0,0,1046.21,258.88Z"/><path d="M1052.67,258.88V264h2.58V265h-2.58V276h-1V265h-1.57V264h1.57v-5.28a2,2,0,0,1,2.11-2.09,2.42,2.42,0,0,1,1.46.48v1a2.28,2.28,0,0,0-1.39-.55A1.17,1.17,0,0,0,1052.67,258.88Z"/><path d="M1083.47,264,1077,276.23h-.3l-2.78-5.42-2.76,5.42h-.3L1064.49,264h1.1l5.49,10.51,2.38-4.75-2.91-5.76h1.1l2.33,4.78,2.31-4.78h1.1l-2.91,5.76,2.41,4.75,5.46-10.51Z"/><path d="M1096.46,264v12h-1v-2.88a5.57,5.57,0,0,1-5,3,6.16,6.16,0,0,1,0-12.31,5.57,5.57,0,0,1,5,3V264Zm-1,6a5.08,5.08,0,0,0-5-5.23,5.23,5.23,0,0,0,0,10.44A5.06,5.06,0,0,0,1095.47,270.06Z"/><path d="M1104.65,265h-2.56V276h-1V265h-1.59V264h1.59v-3.22h1V264h2.56Z"/><path d="M1106.86,270.3a5,5,0,0,0,5.17,5,5.78,5.78,0,0,0,4.32-1.85v1.25a6.55,6.55,0,0,1-4.32,1.54,6.16,6.16,0,0,1-.22-12.31c3.6,0,5.74,3,5.74,6.4Zm9.62-.93c-.33-2.47-2-4.54-4.67-4.54a4.86,4.86,0,0,0-4.9,4.54Z"/><path d="M1125.44,263.9v1c-2.16-.07-3.58,2-3.58,4.4V276h-1V264h1v2.35A3.94,3.94,0,0,1,1125.44,263.9Z"/><path d="M1147.72,264v12h-1v-2.88a5.57,5.57,0,0,1-5,3,6.16,6.16,0,0,1,0-12.31,5.57,5.57,0,0,1,5,3V264Zm-1,6a5.07,5.07,0,0,0-5-5.23,5.23,5.23,0,0,0,0,10.44A5,5,0,0,0,1146.73,270.06Z"/><path d="M1162.07,269.32V276h-1v-6.48c0-3.17-1.56-4.8-3.95-4.8-2.23,0-4.05,1.63-4.05,4.8V276h-1V264h1v2.21a4.72,4.72,0,0,1,4.15-2.4C1159.86,263.85,1162.07,265.6,1162.07,269.32Z"/><path d="M1176.68,256.84V276h-1v-2.88a5.57,5.57,0,0,1-5,3,6.16,6.16,0,0,1,0-12.31,5.57,5.57,0,0,1,5,3v-10.1Zm-1,13.22a5.08,5.08,0,0,0-5-5.23,5.23,5.23,0,0,0,0,10.44A5.06,5.06,0,0,0,1175.69,270.06Z"/><path d="M1189.81,270.3a5,5,0,0,0,5.17,5,5.78,5.78,0,0,0,4.32-1.85v1.25a6.55,6.55,0,0,1-4.32,1.54,6.16,6.16,0,0,1-.22-12.31c3.6,0,5.74,3,5.74,6.4Zm9.62-.93c-.32-2.47-2-4.54-4.67-4.54a4.85,4.85,0,0,0-4.89,4.54Z"/><path d="M1208.39,263.9v1c-2.16-.07-3.57,2-3.57,4.4V276h-1V264h1v2.35A3.92,3.92,0,0,1,1208.39,263.9Z"/><path d="M1209.61,270a6.26,6.26,0,1,1,6.26,6.16A6.1,6.1,0,0,1,1209.61,270Zm11.53,0a5.27,5.27,0,0,0-10.54,0,5.27,5.27,0,0,0,10.54,0Z"/><path d="M1236.53,256.84V276h-1v-2.88a5.55,5.55,0,0,1-5,3,6.16,6.16,0,0,1,0-12.31,5.54,5.54,0,0,1,5,3v-10.1Zm-1,13.22a5.07,5.07,0,0,0-5-5.23,5.23,5.23,0,1,0,5,5.23Z"/><path d="M1241,270.3a5,5,0,0,0,5.16,5,5.82,5.82,0,0,0,4.33-1.85v1.25a6.59,6.59,0,0,1-4.33,1.54,6.16,6.16,0,0,1-.22-12.31c3.6,0,5.74,3,5.74,6.4Zm9.61-.93c-.32-2.47-2-4.54-4.67-4.54a4.85,4.85,0,0,0-4.89,4.54Z"/><path d="M1265.94,256.84V276h-1v-2.88a5.57,5.57,0,0,1-5,3,6.16,6.16,0,0,1,0-12.31,5.57,5.57,0,0,1,5,3v-10.1Zm-1,13.22a5.08,5.08,0,0,0-5-5.23,5.23,5.23,0,0,0,0,10.44A5.06,5.06,0,0,0,1265,270.06Z"/><path d="M992.48,303.11l.75-.67a3.92,3.92,0,0,0,3,1.63c1.49,0,2.74-.84,2.74-2.23,0-3.41-6.34-2.35-6.29-6.26,0-1.68,1.49-2.89,3.4-2.91a5,5,0,0,1,3.63,1.71l-.65.64a4,4,0,0,0-3-1.41,2.22,2.22,0,0,0-2.46,1.94c-.07,3.12,6.31,2.09,6.26,6.29,0,1.8-1.49,3.17-3.73,3.17A4.9,4.9,0,0,1,992.48,303.11Z"/><path d="M1002.39,298.82a6.26,6.26,0,1,1,6.26,6.16A6.11,6.11,0,0,1,1002.39,298.82Zm11.53,0a5.27,5.27,0,0,0-10.53,0,5.27,5.27,0,0,0,10.53,0Z"/><path d="M1018.36,289.62a.75.75,0,0,1,1.49,0,.75.75,0,0,1-1.49,0Zm.25,3.22h1v12h-1Z"/><path d="M1024.22,285.64h1v19.2h-1Z"/><path d="M1049.23,292.84v12h-1V302a5.55,5.55,0,0,1-5,3.05,6.17,6.17,0,0,1,0-12.32,5.55,5.55,0,0,1,5,3.05v-2.9Zm-1,6a5.07,5.07,0,0,0-5-5.23,5.23,5.23,0,1,0,5,5.23Z"/><path d="M1052.68,298.84a6.06,6.06,0,0,1,6.31-6.17,6.49,6.49,0,0,1,4.33,1.54v1.29a5.62,5.62,0,0,0-4.33-1.89,5.23,5.23,0,1,0,0,10.46,5.62,5.62,0,0,0,4.33-1.89v1.29A6.49,6.49,0,0,1,1059,305,6.06,6.06,0,0,1,1052.68,298.84Z"/><path d="M1066.12,298.84a6.06,6.06,0,0,1,6.31-6.17,6.44,6.44,0,0,1,4.32,1.54v1.29a5.59,5.59,0,0,0-4.32-1.89,5.23,5.23,0,1,0,0,10.46,5.59,5.59,0,0,0,4.32-1.89v1.29a6.44,6.44,0,0,1-4.32,1.54A6.06,6.06,0,0,1,1066.12,298.84Z"/><path d="M1090.24,292.84v12h-1v-2.21a4.72,4.72,0,0,1-4.14,2.4c-2.64,0-4.85-1.75-4.85-5.47v-6.72h1v6.48c0,3.17,1.57,4.8,4,4.8,2.23,0,4-1.63,4-4.8v-6.48Z"/><path d="M1112,297.69l0,7.15h-1V297.9c0-2.61-1.34-4.32-3.58-4.32s-3.58,1.71-3.58,4.56l0,6.7h-1V297.9c0-2.61-1.34-4.32-3.57-4.32s-3.58,1.71-3.58,4.56v6.7h-1v-12h1v1.92a4.11,4.11,0,0,1,3.7-2.11,4.27,4.27,0,0,1,4.13,2.9,4.19,4.19,0,0,1,4-2.9C1109.91,292.65,1112,294.45,1112,297.69Z"/><path d="M1125.85,292.84v12h-1v-2.21a4.72,4.72,0,0,1-4.15,2.4c-2.63,0-4.84-1.75-4.84-5.47v-6.72h1v6.48c0,3.17,1.57,4.8,4,4.8s4-1.63,4-4.8v-6.48Z"/><path d="M1130.22,285.64h1v19.2h-1Z"/><path d="M1146.54,292.84v12h-1V302a5.57,5.57,0,0,1-5,3.05,6.17,6.17,0,0,1,0-12.32,5.57,5.57,0,0,1,5,3.05v-2.9Zm-1,6a5.07,5.07,0,0,0-5-5.23,5.23,5.23,0,0,0,0,10.44A5,5,0,0,0,1145.55,298.86Z"/><path d="M1154.73,293.77h-2.55v11.07h-1V293.77h-1.59v-.93h1.59v-3.22h1v3.22h2.55Z"/><path d="M1157,299.1a5,5,0,0,0,5.16,5,5.78,5.78,0,0,0,4.32-1.85v1.25a6.55,6.55,0,0,1-4.32,1.54,6.16,6.16,0,0,1-.22-12.32c3.6,0,5.74,3,5.74,6.41Zm9.61-.93c-.33-2.48-2-4.54-4.67-4.54a4.87,4.87,0,0,0-4.9,4.54Z"/><path d="M1169.93,303.11l.75-.67a3.93,3.93,0,0,0,3,1.63c1.49,0,2.74-.84,2.74-2.23,0-3.41-6.34-2.35-6.29-6.26a3.15,3.15,0,0,1,3.41-2.91,4.94,4.94,0,0,1,3.62,1.71l-.64.64a4,4,0,0,0-3-1.41,2.23,2.23,0,0,0-2.46,1.94c-.07,3.12,6.31,2.09,6.26,6.29,0,1.8-1.49,3.17-3.72,3.17A4.9,4.9,0,0,1,1169.93,303.11Z"/><path d="M1179.55,293.46a.74.74,0,0,1,.74-.74.75.75,0,0,1,.75.74.72.72,0,0,1-.75.72A.72.72,0,0,1,1179.55,293.46Zm.79,8.69h1l-1.07,5.33h-.74Z"/><path d="M1203.19,298.12v6.72h-1v-6.48c0-3.17-1.57-4.8-4-4.8s-4,1.63-4,4.8v6.48h-1v-19.2h1v9.41a4.72,4.72,0,0,1,4.15-2.4C1201,292.65,1203.19,294.4,1203.19,298.12Z"/><path d="M1207.34,289.62a.72.72,0,0,1,.74-.72.72.72,0,0,1,.75.72.71.71,0,0,1-.75.72A.7.7,0,0,1,1207.34,289.62Zm.24,3.22h1v12h-1Z"/><path d="M1224.15,304.29c0,3.79-2.93,5.52-5.81,5.52a8.48,8.48,0,0,1-4.62-1.39l0-1.11a7.6,7.6,0,0,0,4.48,1.59c2.78,0,5-1.68,5-4.78v-2.18a5.56,5.56,0,0,1-5,3.07,6.17,6.17,0,0,1,0-12.32,5.6,5.6,0,0,1,5,3l0-2.88h1Zm-1-5.43a5.07,5.07,0,0,0-5-5.23,5.23,5.23,0,0,0,0,10.44A5,5,0,0,0,1223.16,298.86Z"/><path d="M1238.51,298.12v6.72h-1v-6.48c0-3.17-1.56-4.8-4-4.8-2.23,0-4,1.63-4,4.8v6.48h-1v-19.2h1v9.41a4.72,4.72,0,0,1,4.15-2.4C1236.3,292.65,1238.51,294.4,1238.51,298.12Z"/><path d="M1242.23,299.1a5,5,0,0,0,5.17,5,5.78,5.78,0,0,0,4.32-1.85v1.25a6.55,6.55,0,0,1-4.32,1.54,6.16,6.16,0,0,1-.23-12.32c3.61,0,5.74,3,5.74,6.41Zm9.61-.93c-.32-2.48-2-4.54-4.67-4.54a4.85,4.85,0,0,0-4.89,4.54Z"/><path d="M1255.22,303.11l.75-.67a3.92,3.92,0,0,0,3,1.63c1.49,0,2.73-.84,2.73-2.23,0-3.41-6.33-2.35-6.28-6.26,0-1.68,1.49-2.89,3.4-2.91a5,5,0,0,1,3.63,1.71l-.65.64a4,4,0,0,0-2.95-1.41,2.22,2.22,0,0,0-2.46,1.94c-.08,3.12,6.31,2.09,6.26,6.29,0,1.8-1.49,3.17-3.73,3.17A4.9,4.9,0,0,1,1255.22,303.11Z"/><path d="M1269.38,293.77h-2.56v11.07h-1V293.77h-1.59v-.93h1.59v-3.22h1v3.22h2.56Z"/><path d="M996.16,318.42a.72.72,0,0,1,.74-.72.73.73,0,0,1,.75.72.71.71,0,0,1-.75.72A.7.7,0,0,1,996.16,318.42Zm.25,3.22h1v12h-1Z"/><path d="M1012,326.92v6.72h-1v-6.48c0-3.17-1.56-4.8-4-4.8-2.23,0-4,1.63-4,4.8v6.48h-1v-12h1v2.21a4.72,4.72,0,0,1,4.15-2.4C1009.79,321.45,1012,323.2,1012,326.92Z"/><path d="M1022.76,333.64h-1V322.58h-4.37v11.06h-1V322.58h-1.57v-.94h1.57v-5.28a2,2,0,0,1,2.11-2.09,2.45,2.45,0,0,1,1.47.48v1a2.31,2.31,0,0,0-1.4-.55,1.17,1.17,0,0,0-1.19,1.25v5.16h5.37Zm.25-15.22a.71.71,0,0,1-.75.72.7.7,0,0,1-.74-.72.72.72,0,0,1,.74-.72A.73.73,0,0,1,1023,318.42Z"/><path d="M1027.38,314.44h1v19.2h-1Z"/><path d="M1036.57,322.58H1034v11.06h-1V322.58h-1.59v-.94H1033v-3.22h1v3.22h2.56Z"/><path d="M1043.77,321.5v1c-2.16-.07-3.58,2-3.58,4.4v6.74h-1v-12h1V324A3.94,3.94,0,0,1,1043.77,321.5Z"/><path d="M1056.86,321.64v12h-1v-2.88a5.57,5.57,0,0,1-5,3.05,6.16,6.16,0,0,1,0-12.31,5.57,5.57,0,0,1,5,3v-2.9Zm-1,6a5.08,5.08,0,0,0-5-5.23,5.23,5.23,0,0,0,0,10.44A5.06,5.06,0,0,0,1055.87,327.66Z"/><path d="M1065.05,322.58h-2.56v11.06h-1V322.58h-1.59v-.94h1.59v-3.22h1v3.22h2.56Z"/><path d="M1067.69,318.42a.72.72,0,0,1,.74-.72.73.73,0,0,1,.75.72.71.71,0,0,1-.75.72A.7.7,0,0,1,1067.69,318.42Zm.24,3.22h1v12h-1Z"/><path d="M1072.63,327.62a6.26,6.26,0,1,1,6.26,6.16A6.1,6.1,0,0,1,1072.63,327.62Zm11.52,0a5.27,5.27,0,0,0-10.53,0,5.27,5.27,0,0,0,10.53,0Z"/><path d="M1098.58,326.92v6.72h-1v-6.48c0-3.17-1.57-4.8-3.95-4.8s-4.05,1.63-4.05,4.8v6.48h-1v-12h1v2.21a4.72,4.72,0,0,1,4.15-2.4C1096.37,321.45,1098.58,323.2,1098.58,326.92Z"/><path d="M1101.51,322.26a.75.75,0,0,1,1.49,0,.75.75,0,0,1-1.49,0Zm.79,8.69h1l-1.06,5.33h-.75Z"/><path d="M1127,327.64a5.92,5.92,0,0,1-5.86,6.17,5.58,5.58,0,0,1-5-3v7.63h-1v-16.8h1v2.86a5.56,5.56,0,0,1,5-3A5.9,5.9,0,0,1,1127,327.64Zm-1,0a4.94,4.94,0,1,0-9.87-.53v1.06a4.94,4.94,0,1,0,9.87-.53Z"/><path d="M1129.55,327.62a6.26,6.26,0,1,1,6.26,6.16A6.1,6.1,0,0,1,1129.55,327.62Zm11.53,0a5.27,5.27,0,0,0-10.53,0,5.27,5.27,0,0,0,10.53,0Z"/><path d="M1144.6,327.62a6.26,6.26,0,1,1,6.26,6.16A6.11,6.11,0,0,1,1144.6,327.62Zm11.53,0a5.27,5.27,0,0,0-10.54,0,5.27,5.27,0,0,0,10.54,0Z"/><path d="M1165.14,321.5v1c-2.16-.07-3.58,2-3.58,4.4v6.74h-1v-12h1V324A3.94,3.94,0,0,1,1165.14,321.5Z"/><path d="M1187.42,314.44v19.2h-1v-2.88a5.56,5.56,0,0,1-5,3.05,6.16,6.16,0,0,1,0-12.31,5.56,5.56,0,0,1,5,3v-10.1Zm-1,13.22a5.07,5.07,0,0,0-5-5.23,5.23,5.23,0,0,0,0,10.44A5,5,0,0,0,1186.43,327.66Z"/><path d="M1196.36,321.5v1c-2.16-.07-3.58,2-3.58,4.4v6.74h-1v-12h1V324A3.94,3.94,0,0,1,1196.36,321.5Z"/><path d="M1209.45,321.64v12h-1v-2.88a5.57,5.57,0,0,1-5,3.05,6.16,6.16,0,0,1,0-12.31,5.57,5.57,0,0,1,5,3v-2.9Zm-1,6a5.07,5.07,0,0,0-5-5.23,5.23,5.23,0,0,0,0,10.44A5,5,0,0,0,1208.46,327.66Z"/><path d="M1213.82,318.42a.75.75,0,0,1,1.49,0,.75.75,0,0,1-1.49,0Zm.25,3.22h1v12h-1Z"/><path d="M1229.67,326.92v6.72h-1v-6.48c0-3.17-1.56-4.8-4-4.8-2.23,0-4,1.63-4,4.8v6.48h-1v-12h1v2.21a4.74,4.74,0,0,1,4.15-2.4C1227.46,321.45,1229.67,323.2,1229.67,326.92Z"/><path d="M1244.27,321.64v12h-1v-2.88a5.56,5.56,0,0,1-5,3.05,6.16,6.16,0,0,1,0-12.31,5.56,5.56,0,0,1,5,3v-2.9Zm-1,6a5.07,5.07,0,0,0-5-5.23,5.23,5.23,0,0,0,0,10.44A5,5,0,0,0,1243.28,327.66Z"/><path d="M1259.59,333.09c0,3.79-2.93,5.52-5.81,5.52a8.48,8.48,0,0,1-4.62-1.39l0-1.11a7.55,7.55,0,0,0,4.47,1.59c2.78,0,5-1.68,5-4.78v-2.18a5.59,5.59,0,0,1-5.05,3.07,6.16,6.16,0,0,1,0-12.31,5.59,5.59,0,0,1,5,3l0-2.88h1Zm-1-5.43a5.07,5.07,0,0,0-5-5.23,5.23,5.23,0,0,0,0,10.44A5,5,0,0,0,1258.6,327.66Z"/><path d="M1264,327.9a5,5,0,0,0,5.17,5,5.81,5.81,0,0,0,4.32-1.85v1.25a6.58,6.58,0,0,1-4.32,1.54,6.16,6.16,0,0,1-.23-12.31c3.6,0,5.74,3,5.74,6.4Zm9.61-.93c-.32-2.47-2-4.54-4.67-4.54a4.85,4.85,0,0,0-4.89,4.54Z"/><path class="cls-15" d="M225.78,285.39c33.22,4.36,62,24.32,86.75,46.11,23.93,21,48.84,42.83,76.42,60.08,29.72,18.58,63.78,28.72,92.5,49,17,12,31.34,30.47,50.69,39.17"/><polygon class="cls-5" points="529.5 481.22 531.4 479.37 531.38 476.71 535.78 481.2 529.5 481.22"/><path class="cls-16" d="M762.18,245.11c5.31,27.21-3.85,52.46-22.52,73.05-16.27,17.93-41.8,27-66,33-5,1.23-10,2.33-15,3.34"/><polygon class="cls-17" points="662.28 347.25 660.82 354.1 664.72 359.91 648.5 356.47 662.28 347.25"/><line class="cls-18" x1="1135.36" y1="351.27" x2="1135.36" y2="462.79"/><polygon class="cls-17" points="1128.88 457.88 1135.36 460.63 1141.84 457.88 1135.36 473.24 1128.88 457.88"/><path class="cls-19" d="M515.29,47.19c-11.52-40-62.62-30.71-87.66-9-10.32,9-18.08,20.21-24.84,31.89"/><polygon class="cls-17" points="399.56 62.64 403.88 68.24 410.92 69.02 397.68 79.29 399.56 62.64"/><path d="M31.41,75.89a.72.72,0,0,1,.75-.72.72.72,0,0,1,.74.72.7.7,0,0,1-.74.72A.71.71,0,0,1,31.41,75.89Zm.25,3.22h1v12h-1Z"/><path d="M47.26,84.39v6.72h-1V84.63c0-3.17-1.57-4.8-4-4.8s-4,1.63-4,4.8v6.48h-1v-12h1v2.2a4.74,4.74,0,0,1,4.15-2.4C45.05,78.91,47.26,80.67,47.26,84.39Z"/><path d="M58,91.11H57V80H52.65V91.11h-1V80H50.09v-.93h1.57V73.82a2,2,0,0,1,2.11-2.08,2.36,2.36,0,0,1,1.46.48v1a2.23,2.23,0,0,0-1.39-.55,1.16,1.16,0,0,0-1.19,1.24v5.17H58Zm.25-15.22a.7.7,0,0,1-.74.72.71.71,0,0,1-.75-.72.72.72,0,0,1,.75-.72A.72.72,0,0,1,58.26,75.89Z"/><path d="M62.63,71.9h1V91.11h-1Z"/><path d="M71.82,80H69.26V91.11h-1V80H66.68v-.93h1.59V75.89h1v3.22h2.56Z"/><path d="M79,79v1c-2.16-.07-3.57,2-3.57,4.39v6.75h-1v-12h1v2.35A3.91,3.91,0,0,1,79,79Z"/><path d="M92.11,79.11v12h-1V88.23a5.54,5.54,0,0,1-5,3A6.16,6.16,0,0,1,86.1,79a5.55,5.55,0,0,1,5,3.05v-2.9Zm-1,6a5.07,5.07,0,0,0-5-5.23,5.23,5.23,0,0,0,0,10.44A5.05,5.05,0,0,0,91.12,85.13Z"/><path d="M100.31,80H97.75V91.11h-1V80H95.17v-.93h1.59V75.89h1v3.22h2.56Z"/><path d="M102.52,85.37a5,5,0,0,0,5.17,5A5.81,5.81,0,0,0,112,88.49v1.25a6.59,6.59,0,0,1-4.32,1.53A6.16,6.16,0,0,1,107.46,79c3.6,0,5.74,3,5.74,6.41Zm9.61-.94c-.32-2.47-2-4.53-4.67-4.53a4.85,4.85,0,0,0-4.89,4.53Z"/><path d="M115.51,89.38l.74-.67a4,4,0,0,0,3.06,1.63c1.49,0,2.73-.84,2.73-2.23,0-3.41-6.33-2.36-6.28-6.27,0-1.68,1.49-2.88,3.4-2.9a5,5,0,0,1,3.63,1.7l-.65.65a4,4,0,0,0-3-1.42,2.21,2.21,0,0,0-2.45,1.95c-.08,3.12,6.31,2.09,6.26,6.29,0,1.8-1.49,3.16-3.73,3.16A4.86,4.86,0,0,1,115.51,89.38Z"/><path d="M146,79.11v12h-1V88.23a5.54,5.54,0,0,1-5,3A6.16,6.16,0,0,1,140,79,5.55,5.55,0,0,1,145,82v-2.9Zm-1,6a5.07,5.07,0,0,0-5-5.23,5.23,5.23,0,0,0,0,10.44A5.05,5.05,0,0,0,145,85.13Z"/><path d="M160.34,84.39v6.72h-1V84.63c0-3.17-1.57-4.8-3.95-4.8s-4.05,1.63-4.05,4.8v6.48h-1v-12h1v2.2a4.74,4.74,0,0,1,4.15-2.4C158.13,78.91,160.34,80.67,160.34,84.39Z"/><path d="M174.94,71.9V91.11h-1V88.23a5.54,5.54,0,0,1-5,3,6.16,6.16,0,0,1,0-12.31A5.55,5.55,0,0,1,174,82V71.9Zm-1,13.23a5.07,5.07,0,0,0-5-5.23,5.23,5.23,0,0,0,0,10.44A5.05,5.05,0,0,0,174,85.13Z"/><path d="M60.75,100.7v19.21h-1V117a5.54,5.54,0,0,1-5,3,6.16,6.16,0,0,1,0-12.31,5.55,5.55,0,0,1,5,3V100.7Zm-1,13.23a5.07,5.07,0,0,0-5-5.23,5.23,5.23,0,0,0,0,10.44A5.05,5.05,0,0,0,59.75,113.93Z"/><path d="M69.69,107.76v1c-2.16-.07-3.58,2-3.58,4.39v6.75h-1v-12h1v2.35A3.93,3.93,0,0,1,69.69,107.76Z"/><path d="M82.78,107.91v12h-1V117a5.54,5.54,0,0,1-5,3,6.16,6.16,0,0,1,0-12.31,5.55,5.55,0,0,1,5,3v-2.9Zm-1,6a5.07,5.07,0,0,0-5-5.23,5.23,5.23,0,0,0,0,10.44A5.05,5.05,0,0,0,81.78,113.93Z"/><path d="M87.15,104.69a.72.72,0,0,1,.74-.72.72.72,0,0,1,.75.72.71.71,0,0,1-.75.72A.7.7,0,0,1,87.15,104.69Zm.24,3.22h1v12h-1Z"/><path d="M103,113.19v6.72h-1v-6.48c0-3.17-1.57-4.8-4-4.8s-4,1.63-4,4.8v6.48H93v-12h1v2.2a4.74,4.74,0,0,1,4.15-2.4C100.78,107.71,103,109.47,103,113.19Z"/><path d="M106.37,118.18l.74-.67a4,4,0,0,0,3.06,1.63c1.49,0,2.73-.84,2.73-2.23,0-3.41-6.33-2.36-6.28-6.27,0-1.68,1.49-2.88,3.4-2.9a5,5,0,0,1,3.63,1.7l-.65.65a4,4,0,0,0-3-1.42,2.21,2.21,0,0,0-2.46,2c-.08,3.12,6.31,2.09,6.26,6.29,0,1.8-1.49,3.16-3.73,3.16A4.86,4.86,0,0,1,106.37,118.18Z"/><path d="M142.78,107.91l-6.43,12.19h-.3l-2.78-5.43-2.76,5.43h-.3l-6.41-12.19h1.1l5.49,10.51,2.38-4.75-2.91-5.76H131l2.33,4.77,2.31-4.77h1.1l-2.91,5.76,2.41,4.75,5.46-10.51Z"/><path d="M144.89,114.17a5,5,0,0,0,5.17,5,5.79,5.79,0,0,0,4.32-1.85v1.25a6.59,6.59,0,0,1-4.32,1.53,6.16,6.16,0,0,1-.23-12.31c3.6,0,5.74,3,5.74,6.41Zm9.61-.94c-.32-2.47-2-4.53-4.67-4.53a4.85,4.85,0,0,0-4.89,4.53Z"/><path d="M158.9,100.7h1v19.21h-1Z"/><path d="M164.26,100.7h1v19.21h-1Z"/><path class="cls-20" d="M156.14,18.68c17.48,1.29,35.24,3.81,51.55,10.53,14.33,5.9,34.24,17,33.41,35-.71,15.37-17,25.39-29.63,30.85a128.81,128.81,0,0,1-18.93,6.48"/><polygon class="cls-17" points="195.1 95.67 194.16 101.06 197.4 105.48 184.62 103.3 195.1 95.67"/></g></g></svg>