<svg xmlns="http://www.w3.org/2000/svg" xmlns:xlink="http://www.w3.org/1999/xlink" viewBox="0 0 1328 716.99"><defs><style>.cls-1,.cls-27,.cls-34,.cls-43,.cls-44,.cls-46,.cls-48,.cls-49{fill:none;}.cls-2,.cls-36{font-size:30px;}.cls-2{fill:#5c5052;}.cls-2,.cls-30{font-family:Acre-Light, Acre;font-weight:300;}.cls-3{letter-spacing:-0.02em;}.cls-4{letter-spacing:-0.02em;}.cls-5{letter-spacing:-0.01em;}.cls-6{letter-spacing:0em;}.cls-7{letter-spacing:-0.01em;}.cls-8{letter-spacing:-0.01em;}.cls-9{letter-spacing:0em;}.cls-10{letter-spacing:-0.02em;}.cls-11{letter-spacing:-0.01em;}.cls-12{letter-spacing:-0.01em;}.cls-13{letter-spacing:0.01em;}.cls-14{letter-spacing:-0.01em;}.cls-15{letter-spacing:-0.03em;}.cls-16{font-size:62.35px;font-family:Acre-Regular, Acre;}.cls-16,.cls-31{fill:#df6572;}.cls-17{letter-spacing:-0.02em;}.cls-18{letter-spacing:0em;}.cls-19{letter-spacing:-0.01em;}.cls-20{letter-spacing:-0.03em;}.cls-21{clip-path:url(#clip-path);}.cls-22{fill:#ffce01;}.cls-23,.cls-29{fill:#3daaa1;}.cls-23{opacity:0.33;}.cls-24{fill:#3eaca2;}.cls-25{fill:#ececec;}.cls-26,.cls-36{fill:#fff;}.cls-27{stroke:#5c5052;stroke-linecap:round;stroke-width:1.08px;}.cls-27,.cls-31,.cls-43,.cls-44,.cls-46,.cls-48,.cls-49{stroke-miterlimit:10;}.cls-28{fill:#ffcf01;}.cls-30{font-size:24.06px;fill:#ec6b7c;}.cls-31{stroke:#df6572;stroke-width:1.02px;}.cls-32{fill:#b78f6a;}.cls-33{fill:#754c24;}.cls-34{stroke:#3daaa1;stroke-linejoin:round;stroke-width:7.24px;}.cls-35{fill:#7c7169;}.cls-36,.cls-39{font-family:Acre-Thin, Acre;font-weight:200;}.cls-37{letter-spacing:-0.02em;}.cls-38{letter-spacing:-0.01em;}.cls-39{font-size:24px;}.cls-40{letter-spacing:-0.01em;}.cls-41{letter-spacing:-0.02em;}.cls-42{letter-spacing:-0.01em;}.cls-43{stroke:#fff;stroke-width:0.66px;}.cls-44,.cls-46,.cls-48{stroke:#ec6a7c;}.cls-44{stroke-width:1.74px;}.cls-45{fill:#ec6a7c;}.cls-46{stroke-width:1.76px;}.cls-47{letter-spacing:0.01em;}.cls-48{stroke-width:1.36px;}.cls-49{stroke:#5d5152;stroke-width:1.98px;}</style><clipPath id="clip-path" transform="translate(3.01)"><rect class="cls-1" x="3.99" y="51.64" width="1297" height="665.35"/></clipPath></defs><g id="Layer_2" data-name="Layer 2"><g id="Layer_19" data-name="Layer 19"><text class="cls-2" transform="translate(499.17 54.2)"><tspan class="cls-3">n</tspan><tspan x="16.65" y="0">orth </tspan><tspan class="cls-4" x="79.62" y="0">f</tspan><tspan x="87.33" y="0">aci</tspan><tspan class="cls-5" x="129.21" y="0">n</tspan><tspan x="145.86" y="0">g slop</tspan><tspan class="cls-6" x="230.27" y="0">e</tspan><tspan x="247.07" y="0">s </tspan><tspan class="cls-4" x="269.66" y="0">r</tspan><tspan x="278.18" y="0">ece</tspan><tspan class="cls-6" x="327.92" y="0">i</tspan><tspan class="cls-3" x="335.3" y="0">v</tspan><tspan x="349.91" y="0">e l</tspan><tspan class="cls-6" x="383.99" y="0">e</tspan><tspan x="400.79" y="0">ss sun a</tspan><tspan class="cls-3" x="510.92" y="0">n</tspan><tspan x="527.56" y="0">d a</tspan><tspan class="cls-4" x="574.93" y="0">r</tspan><tspan x="583.45" y="0">e </tspan><tspan class="cls-7" x="610.75" y="0">o</tspan><tspan x="628.42" y="0">f</tspan><tspan class="cls-4" x="636.73" y="0">t</tspan><tspan x="644.44" y="0">en cooler </tspan><tspan x="17.73" y="36">a</tspan><tspan class="cls-3" x="36.24" y="36">n</tspan><tspan x="52.89" y="36">d</tspan><tspan class="cls-8" x="71.4" y="36"> </tspan><tspan class="cls-5" x="81.51" y="36">w</tspan><tspan class="cls-7" x="104.94" y="36">e</tspan><tspan x="121.5" y="36">t</tspan><tspan class="cls-4" x="129.81" y="36">t</tspan><tspan x="137.52" y="36">er; </tspan><tspan class="cls-9" x="178.95" y="36">s</tspan><tspan x="191.1" y="36">out</tspan><tspan class="cls-10" x="234.56" y="36">h</tspan><tspan class="cls-11" x="251.03" y="36">-</tspan><tspan class="cls-4" x="263.09" y="36">f</tspan><tspan x="270.8" y="36">aci</tspan><tspan class="cls-3" x="312.68" y="36">n</tspan><tspan x="329.33" y="36">g slop</tspan><tspan class="cls-6" x="413.75" y="36">e</tspan><tspan x="430.55" y="36">s </tspan><tspan class="cls-4" x="453.14" y="36">r</tspan><tspan x="461.66" y="36">ece</tspan><tspan class="cls-12" x="511.4" y="36">i</tspan><tspan class="cls-3" x="518.78" y="36">v</tspan><tspan x="533.39" y="36">e </tspan><tspan class="cls-11" x="560.68" y="36">m</tspan><tspan x="586.46" y="36">o</tspan><tspan class="cls-4" x="604.51" y="36">r</tspan><tspan x="613.03" y="36">e sun (</tspan><tspan class="cls-3" x="704.35" y="36">m</tspan><tspan x="730.12" y="36">o</tspan><tspan class="cls-4" x="748.18" y="36">r</tspan><tspan x="756.7" y="36">e</tspan><tspan class="cls-3" x="57.84" y="72">ev</tspan><tspan x="88.95" y="72">ap</tspan><tspan class="cls-7" x="125.94" y="72">o</tspan><tspan x="143.61" y="72">t</tspan><tspan class="cls-4" x="151.92" y="72">r</tspan><tspan x="160.44" y="72">a</tspan><tspan class="cls-13" x="178.95" y="72">n</tspan><tspan x="196.26" y="72">spi</tspan><tspan class="cls-4" x="234.51" y="72">r</tspan><tspan x="243.03" y="72">ation) a</tspan><tspan class="cls-3" x="348.62" y="72">n</tspan><tspan x="365.27" y="72">d a</tspan><tspan class="cls-4" x="412.64" y="72">r</tspan><tspan x="421.16" y="72">e </tspan><tspan class="cls-7" x="448.46" y="72">o</tspan><tspan x="466.13" y="72">f</tspan><tspan class="cls-4" x="474.44" y="72">t</tspan><tspan x="482.15" y="72">en,</tspan><tspan class="cls-14" x="521.18" y="72"> </tspan><tspan class="cls-3" x="531.29" y="72">w</tspan><tspan x="554.72" y="72">ar</tspan><tspan class="cls-3" x="582.35" y="72">m</tspan><tspan x="608.12" y="72">er a</tspan><tspan class="cls-3" x="663.04" y="72">n</tspan><tspan x="679.69" y="72">d drie</tspan><tspan class="cls-15" x="760.66" y="72">r</tspan><tspan x="768.94" y="72">.</tspan></text><text class="cls-16" transform="translate(39.43 61.46)"><tspan class="cls-17">t</tspan><tspan x="17.08" y="0">opog</tspan><tspan class="cls-17" x="168.66" y="0">r</tspan><tspan class="cls-18" x="187.24" y="0">ap</tspan><tspan class="cls-19" x="264.18" y="0">h</tspan><tspan class="cls-20" x="299.22" y="0">y</tspan></text><g class="cls-21"><path class="cls-22" d="M874.32,229.49a11.07,11.07,0,1,1,11.45-11.06A11.25,11.25,0,0,1,874.32,229.49Z" transform="translate(3.01)"/><polygon class="cls-22" points="875.72 205.46 877.67 202.19 879.63 205.46 875.72 205.46"/><polygon class="cls-22" points="868.13 208.85 867.73 205.1 871.3 206.63 868.13 208.85"/><polygon class="cls-22" points="864.07 215.91 861.45 213.1 865.27 212.31 864.07 215.91"/><polygon class="cls-22" points="865.07 223.93 861.24 223.14 863.86 220.33 865.07 223.93"/><polygon class="cls-22" points="870.75 229.84 867.18 231.38 867.59 227.62 870.75 229.84"/><polygon class="cls-22" points="878.95 231.4 877 234.67 875.04 231.4 878.95 231.4"/><polygon class="cls-22" points="886.53 228.01 886.94 231.76 883.37 230.23 886.53 228.01"/><polygon class="cls-22" points="890.6 220.95 893.22 223.76 889.39 224.54 890.6 220.95"/><polygon class="cls-22" points="889.6 212.94 893.42 213.72 890.81 216.53 889.6 212.94"/><polygon class="cls-22" points="883.92 207.02 887.49 205.48 887.08 209.24 883.92 207.02"/><polygon class="cls-23" points="1163.45 197.43 1241.72 297.01 1163.45 315.88 1080.34 295.87 1163.45 197.43"/><polygon class="cls-24" points="1163.45 197.43 1163.45 315.88 1080.34 295.87 1163.45 197.43"/><polygon class="cls-25" points="1194.4 236.45 1183.28 234.52 1178.26 240.71 1168.22 238.39 1163.45 246.26 1163.45 197.07 1194.4 236.45"/><polygon class="cls-26" points="1129.81 236.92 1143.61 234.52 1148.63 240.71 1158.67 238.39 1163.45 246.26 1163.45 197.07 1129.81 236.92"/><path class="cls-27" d="M903.45,227.44c49.82,13.05,51.73,11.85,51.73,11.85l-6.71-10" transform="translate(3.01)"/><line class="cls-27" x1="948.63" y1="245.27" x2="958.19" y2="239.29"/><polygon class="cls-28" points="985.07 242.54 906.79 342.12 985.07 360.99 1068.18 340.97 985.07 242.54"/><polygon class="cls-29" points="985.07 242.54 985.07 360.99 1068.18 340.97 985.07 242.54"/><polygon class="cls-25" points="954.12 281.56 965.23 279.63 970.25 285.82 980.29 283.5 985.07 291.37 985.07 242.18 954.12 281.56"/><polygon class="cls-26" points="1018.71 282.02 1004.9 279.63 999.88 285.82 989.84 283.5 985.07 291.37 985.07 242.18 1018.71 282.02"/><path class="cls-27" d="M890,241.45c34.49,37.1,36.77,37.1,36.77,37.1V266.6" transform="translate(3.01)"/><line class="cls-27" x1="918.38" y1="278.55" x2="929.77" y2="278.55"/><text class="cls-30" transform="translate(1000.08 185.88) scale(1.03 1)">aspect</text><line class="cls-31" x1="973.71" y1="205.86" x2="1098.18" y2="205.86"/><text x="3.01"/><path class="cls-32" d="M6.59,344.28c4.47.25,9,.48,13.45.29,5.33-.23,10.63-1,16-1.08a739.7,739.7,0,0,1,119.82,8.86q22,3.43,43.62,8.18c27,5.93,53.89,13.47,78.1,25.94C336,416.6,373.34,472.18,427,509c36.74,25.24,80.06,41,122.81,56.41l185.81,67.13C816.4,661.76,897.49,691,981.34,711.41h307a62.17,62.17,0,0,1,12.81,1.33A893.41,893.41,0,0,0,1296.81,594c-.62-6-1.42-12.21-5.32-17-6.74-8.3-19.76-9.11-31.07-9.18l-76.13-.42c-123.14-.69-247.91-1.57-366.78-31C704,508.37,598.37,454.27,512.9,380.46c-53.12-45.86-99.52-99.86-162.79-133.28C308,225,260.43,213.27,212.43,208.09c-12.07-1.3-24.14-2-36.25-2.77-11.33-.76-22.05-4.3-33.37-6-24.36-3.68-49.18-3.32-73.78-3-21.53.31-43.19.46-64.73.46,0,37.44-.49,74.95-.49,112.43,0,8.44-.43,16.86-.43,25.3V341C3.38,343.61,3.57,344.11,6.59,344.28Z" transform="translate(3.01)"/><path class="cls-33" d="M6.52,172.72c3.44,9.54.91,22.64.91,32.7,45.37,0,90.15-7.17,135,1.91,25.43,5.14,52.72,4.79,78.69,9.22,53.29,9.08,104.68,27.36,148.43,57a458.92,458.92,0,0,1,65.88,54.73c17.57,17.46,34.6,35.39,53,52.11C570.83,455,673.2,510,783.31,542.71c24.41,7.26,46.35,9.19,66.93,23.79,25.48,18.09,58.09,25.22,89.89,30.14,16,2.48,29.11,10.9,44.91,13.72,3.24.57,6.51.91,9.79,1.24l10.12,1c24.18,2.44,47.58-2.76,71.51-1.24,28.82,1.84,55.64,13.14,85.06,12.76,31.62-.41,62.06-11.23,93.82-5.52,10.81,1.94,33.34,8.86,42.91.89,5.83-4.85,4.54-17.37,5.25-24.19,1.19-11.38,1.31-25.55-6.46-35.22-3.6-4.47-6.39-5.32-10.23-7.07-4.46-2-11.36-.86-15.86-.78-10.9.19-21.74-.61-32.58-.66-85.52-.4-171-1.92-256.34-7.43-50.8-3.28-101.51-9-151.11-19.8A781.28,781.28,0,0,1,678.8,475.11c-25.26-11.23-49.21-24.42-72.58-38.63-30.79-18.71-63.71-37-91.61-59.25-9.79-7.8-18.05-17-26.66-25.88-12.56-12.93-23.4-27.15-35.42-40.48-14.48-16.07-32-29-48.09-43.62-27-24.44-55-44.77-90.17-58.59-34.44-13.53-71.29-21.1-108.12-26.81-35-5.44-70.22-9.83-105.71-11.7-11.44-.61-22.63.76-34,1.11C46.85,171.84,25.78,170.26,6.52,172.72Z" transform="translate(3.01)"/><path class="cls-34" d="M1288.32,711.41a62.24,62.24,0,0,1,10.24.85c0-2.56.06-4.33.07-4.8.31-38.93.76-77.92.76-116.79,0-37.34,1.86-40.56-40.6-40.71-39.5-.14-79-.56-118.48-1.83-114.11-3.66-225-.09-335.7-29.92-100.53-27.1-200.38-70.7-279.15-134.63-64.68-52.49-109.58-125.65-186.32-165.5-20.54-10.66-42.59-18.28-64.88-24.74C188,168.37,97,169.75,7,169.75,7,282.62,5.29,395,5.29,507.8V629.4c0,26.64-1.89,54.56-1.87,82Z" transform="translate(3.01)"/><path class="cls-35" d="M1.59,449V715.66H1288.32A61.2,61.2,0,0,1,1301,717c2-8.34,3.58-14.8,4-16.31-8.43,4.36-18.55,4.58-28.22,4.68l-66.1.71c-36.13.39-71.94-.62-108-3-13.42-.9-26.93-1.8-40-4.75-12.46-2.81-24.49-7.27-37.13-9.52q-14.82-2.64-29.47-6C914.93,664,843.25,621.86,772.22,582.71,741.9,566,706.54,557,673.56,545,535.22,494.72,452.18,373.17,320.71,313.28,222,268.31,107.06,273.93-3,273.93-3,329,1.51,383.3,1.59,438.06Z" transform="translate(3.01)"/><text class="cls-36" transform="translate(1078.52 690.96) scale(1.03 1)"><tspan class="cls-37">t</tspan><tspan x="7.2" y="0">oeslope</tspan></text><text class="cls-36" transform="translate(781.67 677.67) scale(1.03 1)"><tspan class="cls-37">f</tspan><tspan x="7.2" y="0">o</tspan><tspan class="cls-38" x="25.38" y="0">ot</tspan><tspan x="50.76" y="0">slope</tspan></text><text class="cls-36" transform="translate(488.02 557.56) scale(1.03 1)">backslope</text><text class="cls-36" transform="translate(271.31 388.95) scale(1.03 1)">s<tspan class="cls-37" x="11.85" y="0">h</tspan><tspan x="28.32" y="0">oulder</tspan></text><text class="cls-36" transform="translate(101.48 325.84) scale(1.03 1)">summit</text><text class="cls-39" transform="translate(672.52 336.78) scale(1.03 1)">l<tspan class="cls-40" x="5.18" y="0">ow</tspan><tspan x="37.78" y="0">e</tspan><tspan class="cls-41" x="51.38" y="0">s</tspan><tspan x="60.38" y="0">t infilt</tspan><tspan class="cls-37" x="116.61" y="0">r</tspan><tspan x="123.09" y="0">ation; </tspan><tspan x="9.55" y="28.8">hig</tspan><tspan class="cls-37" x="43.68" y="28.8">h</tspan><tspan x="56.86" y="28.8">e</tspan><tspan class="cls-41" x="70.46" y="28.8">s</tspan><tspan x="79.46" y="28.8">t e</tspan><tspan class="cls-37" x="107.71" y="28.8">r</tspan><tspan x="114.19" y="28.8">osion</tspan><tspan x="48.95" y="57.6">&amp; ru</tspan><tspan class="cls-37" x="92.72" y="57.6">n</tspan><tspan class="cls-42" x="105.9" y="57.6">o</tspan><tspan x="120.2" y="57.6">ff</tspan></text><text class="cls-39" transform="translate(471.1 235.88) scale(1.03 1)">l<tspan class="cls-40" x="5.18" y="0">o</tspan><tspan class="cls-41" x="19.49" y="0">w</tspan><tspan x="37.54" y="0" xml:space="preserve"> infilt</tspan><tspan class="cls-37" x="87.53" y="0">r</tspan><tspan x="94.01" y="0">ation; </tspan><tspan class="cls-37" x="-18.86" y="28.8">m</tspan><tspan x="1.42" y="28.8">ode</tspan><tspan class="cls-41" x="44.38" y="28.8">r</tspan><tspan x="50.86" y="28.8">a</tspan><tspan class="cls-37" x="65.66" y="28.8">t</tspan><tspan x="71.42" y="28.8">e e</tspan><tspan class="cls-37" x="107.04" y="28.8">r</tspan><tspan x="113.52" y="28.8">osion </tspan><tspan x="34.4" y="57.6">&amp; ru</tspan><tspan class="cls-37" x="78.18" y="57.6">n</tspan><tspan class="cls-42" x="91.35" y="57.6">o</tspan><tspan x="105.66" y="57.6">ff</tspan></text><path class="cls-28" d="M298.27,498.31l-12.06,16.31-.84-.58,1.81-2.45a6,6,0,0,1-6.18-.35c-2.94-2-3.22-5.83-1.12-8.66a6.41,6.41,0,0,1,8.85-1.8,5.48,5.48,0,0,1,2.35,5.53l6.35-8.58ZM289.12,509a5.1,5.1,0,0,0-.95-7.37,5.44,5.44,0,0,0-7.45,1.57c-1.78,2.41-1.56,5.61.89,7.3A5.49,5.49,0,0,0,289.12,509Z" transform="translate(3.01)"/><path class="cls-28" d="M293.6,512.36a5,5,0,0,0,1.26,7.25,6.16,6.16,0,0,0,4.84,1l-.79,1.06a6.9,6.9,0,0,1-4.64-1.24c-3.27-2.25-3.45-6-1.35-8.85a6.46,6.46,0,0,1,8.9-1.74c3.06,2.12,3,5.94.85,8.81Zm8.75,4.84c1.28-2.29,1.16-5-1.12-6.59a5.26,5.26,0,0,0-7,1Z" transform="translate(3.01)"/><path class="cls-28" d="M304.88,519.81a6.59,6.59,0,0,1,9.24-1.54,6.43,6.43,0,0,1,2.71,3.85l-.82,1.1a5.72,5.72,0,0,0-10.28-2.82A5.15,5.15,0,0,0,307,528a5.91,5.91,0,0,0,4.86.93L311,530a6.81,6.81,0,0,1-4.64-1.23A6.11,6.11,0,0,1,304.88,519.81Z" transform="translate(3.01)"/><path class="cls-28" d="M324.83,525.7l-.64.86c-1.79-1.33-4.29-.41-5.79,1.63l-4.24,5.73-.85-.58,7.54-10.2.85.58-1.48,2A4.25,4.25,0,0,1,324.83,525.7Z" transform="translate(3.01)"/><path class="cls-28" d="M322.68,532.44a5,5,0,0,0,1.27,7.25,6.13,6.13,0,0,0,4.83,1l-.78,1.06a6.93,6.93,0,0,1-4.64-1.23c-3.27-2.26-3.45-6-1.36-8.86a6.46,6.46,0,0,1,8.91-1.73c3.06,2.11,3,5.93.85,8.81Zm8.76,4.85c1.28-2.29,1.16-5-1.12-6.6a5.27,5.27,0,0,0-7,1Z" transform="translate(3.01)"/><path class="cls-28" d="M347.83,541.77,340.29,552l-.85-.58,1.81-2.45a5.93,5.93,0,0,1-6.17-.35c-2.94-2-3.22-5.83-1.12-8.66a6.41,6.41,0,0,1,8.85-1.8,5.5,5.5,0,0,1,2.35,5.53l1.82-2.47Zm-4.63,4.53a5.1,5.1,0,0,0-1-7.37,5.43,5.43,0,0,0-7.44,1.57c-1.78,2.41-1.56,5.61.89,7.3A5.49,5.49,0,0,0,343.2,546.3Z" transform="translate(3.01)"/><path class="cls-28" d="M344.22,552.46l1.06-.13a3.92,3.92,0,0,0,1.57,3.18c1.27.87,2.85.89,3.72-.3,2.15-2.89-3.9-5.71-1.4-9a3.41,3.41,0,0,1,4.72-.47,4.94,4.94,0,0,1,2,3.58l-1,.17a4,4,0,0,0-1.62-2.94,2.41,2.41,0,0,0-3.31.21c-2,2.61,4.05,5.48,1.37,9-1.15,1.51-3.26,1.81-5.16.5A4.83,4.83,0,0,1,344.22,552.46Z" transform="translate(3.01)"/><path class="cls-28" d="M360.09,550.23l.85.59L353.4,561l-.85-.58Zm1.81-2.87a.78.78,0,0,1,1.09-.18.73.73,0,0,1,.18,1.05.77.77,0,0,1-1.09.17A.7.7,0,0,1,361.9,547.36Z" transform="translate(3.01)"/><path class="cls-28" d="M370,563.87l-4.22,5.71L365,569l4.07-5.51c2-2.69,1.69-5-.34-6.39s-4.46-1-6.45,1.7l-4.07,5.51-.85-.59,7.54-10.19.85.58L364.32,556a5,5,0,0,1,5,.39C371.59,557.93,372.37,560.71,370,563.87Z" transform="translate(3.01)"/><path class="cls-28" d="M378.57,577.68c-2.39,3.22-6,3-8.41,1.28a8.31,8.31,0,0,1-3.05-3.89l.71-.92a7.46,7.46,0,0,0,2.81,4,4.94,4.94,0,0,0,7.22-1.14l1.37-1.85a6,6,0,0,1-6.21-.35c-2.94-2-3.22-5.83-1.13-8.66a6.43,6.43,0,0,1,8.86-1.8,5.55,5.55,0,0,1,2.37,5.51l1.78-2.46.85.58Zm2.56-5.19a5.1,5.1,0,0,0-1-7.37,5.42,5.42,0,0,0-7.44,1.57c-1.78,2.41-1.56,5.61.88,7.3A5.5,5.5,0,0,0,381.13,572.49Z" transform="translate(3.01)"/><path class="cls-28" d="M397.07,575.77l.85.58-7.54,10.2-.85-.59Zm1.81-2.88a.78.78,0,0,1,1.09-.17.72.72,0,0,1,.18,1,.77.77,0,0,1-1.09.18A.71.71,0,0,1,398.88,572.89Z" transform="translate(3.01)"/><path class="cls-28" d="M407,589.41l-4.22,5.71-.85-.59L406,589c2-2.69,1.68-5-.35-6.4s-4.46-1-6.45,1.71l-4.07,5.5-.85-.58,7.54-10.2.85.59-1.39,1.87a5,5,0,0,1,5,.4C408.57,583.46,409.35,586.25,407,589.41Z" transform="translate(3.01)"/><path class="cls-28" d="M411.93,601.43l-.85-.59,6.95-9.4-3.71-2.56-6.95,9.4-.85-.58,7-9.4-1.33-.92.58-.8,1.33.92,3.32-4.48a2.2,2.2,0,0,1,3.11-.54,2.39,2.39,0,0,1,.94,1.27l-.65.87a2.25,2.25,0,0,0-.83-1.28,1.27,1.27,0,0,0-1.8.36l-3.24,4.38,4.56,3.15Zm9.77-12.78a.77.77,0,0,1-1.09.17.71.71,0,0,1-.18-1.05.78.78,0,0,1,1.09-.17A.73.73,0,0,1,421.7,588.65Z" transform="translate(3.01)"/><path class="cls-28" d="M427.92,587.83l.84.58L416.7,604.72l-.85-.58Z" transform="translate(3.01)"/><path class="cls-28" d="M430.61,600.13l-2.17-1.5-6.95,9.4-.85-.58,7-9.4-1.36-.94.59-.79,1.35.93,2-2.73.85.58-2,2.73,2.17,1.5Z" transform="translate(3.01)"/><path class="cls-28" d="M437.41,603.44l-.63.86c-1.79-1.33-4.29-.41-5.8,1.63l-4.24,5.73-.84-.59,7.54-10.19.84.58-1.47,2A4.21,4.21,0,0,1,437.41,603.44Z" transform="translate(3.01)"/><path class="cls-28" d="M448.45,611.24l-7.54,10.2-.85-.58,1.81-2.45a6,6,0,0,1-6.18-.36c-2.93-2-3.21-5.82-1.12-8.66a6.44,6.44,0,0,1,8.86-1.8,5.51,5.51,0,0,1,2.35,5.54l1.82-2.47Zm-4.63,4.54a5.11,5.11,0,0,0-1-7.38,5.42,5.42,0,0,0-7.44,1.58c-1.78,2.4-1.56,5.6.88,7.29A5.51,5.51,0,0,0,443.82,615.78Z" transform="translate(3.01)"/><path class="cls-28" d="M454.82,616.85l-2.17-1.5-6.95,9.4-.85-.59,7-9.4-1.36-.93.59-.8,1.35.94,2-2.74.85.59-2,2.73,2.17,1.5Z" transform="translate(3.01)"/><path class="cls-28" d="M457.86,617.74l.84.59-7.53,10.19-.85-.58Zm1.81-2.88a.79.79,0,0,1,1.09-.17.74.74,0,0,1,.18,1,.77.77,0,0,1-1.09.17A.71.71,0,0,1,459.67,614.86Z" transform="translate(3.01)"/><path class="cls-28" d="M458.1,625.57a6.61,6.61,0,0,1,9.17-1.54,6.12,6.12,0,0,1,1.46,8.89,6.63,6.63,0,0,1-9.19,1.57A6.14,6.14,0,0,1,458.1,625.57Zm9.8,6.75a5.17,5.17,0,0,0-1.21-7.5,5.6,5.6,0,0,0-7.74,1.32,5.24,5.24,0,0,0,1.18,7.55A5.64,5.64,0,0,0,467.9,632.32Z" transform="translate(3.01)"/><path class="cls-28" d="M480.59,640.21l-4.22,5.71-.85-.58,4.07-5.51c2-2.69,1.69-5-.34-6.39s-4.46-1-6.45,1.7l-4.07,5.51-.85-.59,7.54-10.19.85.58-1.39,1.88a5.07,5.07,0,0,1,5,.39C482.15,634.27,482.93,637.05,480.59,640.21Z" transform="translate(3.01)"/><path class="cls-28" d="M481.22,645.82l.87.6-4.26,3.9-.63-.43ZM486,638a.8.8,0,0,1,1.1-.2.74.74,0,0,1,.16,1.07.78.78,0,0,1-1.08.18A.72.72,0,0,1,486,638Z" transform="translate(3.01)"/><path class="cls-28" d="M287.05,536.77l.85.59-7.54,10.19-.85-.58Zm1.81-2.88a.79.79,0,0,1,1.09-.17.74.74,0,0,1,.18,1,.77.77,0,0,1-1.09.17A.71.71,0,0,1,288.86,533.89Z" transform="translate(3.01)"/><path class="cls-28" d="M297,550.41l-4.22,5.71-.85-.58L296,550c2-2.69,1.69-5-.34-6.39s-4.46-1-6.45,1.7l-4.07,5.51-.85-.59,7.54-10.19.85.58-1.39,1.88a5,5,0,0,1,5,.39C298.55,544.47,299.33,547.25,297,550.41Z" transform="translate(3.01)"/><path class="cls-28" d="M298.86,552.63a6.57,6.57,0,0,1,9.24-1.54,6.36,6.36,0,0,1,2.7,3.84L310,556a5.52,5.52,0,0,0-2.48-4.15,5.58,5.58,0,0,0-7.81,1.33,5.15,5.15,0,0,0,1.23,7.56,5.93,5.93,0,0,0,4.87.93l-.82,1.1a6.77,6.77,0,0,1-4.63-1.23A6.08,6.08,0,0,1,298.86,552.63Z" transform="translate(3.01)"/><path class="cls-28" d="M318.8,558.51l-.63.86c-1.79-1.33-4.29-.41-5.8,1.63l-4.24,5.73-.84-.58,7.54-10.2.84.59-1.48,2A4.25,4.25,0,0,1,318.8,558.51Z" transform="translate(3.01)"/><path class="cls-28" d="M316.65,565.25a5,5,0,0,0,1.27,7.26,6.15,6.15,0,0,0,4.84,1l-.79,1.06a6.85,6.85,0,0,1-4.63-1.23c-3.28-2.26-3.46-6-1.36-8.85a6.44,6.44,0,0,1,8.9-1.74c3.06,2.11,3,5.94.85,8.81Zm8.76,4.85c1.28-2.29,1.16-5-1.12-6.6a5.28,5.28,0,0,0-7,1Z" transform="translate(3.01)"/><path class="cls-28" d="M341.8,574.58l-7.54,10.19-.84-.58,1.81-2.45a6,6,0,0,1-6.18-.35c-2.93-2-3.22-5.83-1.12-8.66a6.43,6.43,0,0,1,8.86-1.8,5.5,5.5,0,0,1,2.34,5.53L341,574Zm-4.63,4.53a5.1,5.1,0,0,0-.95-7.37,5.44,5.44,0,0,0-7.45,1.57c-1.78,2.41-1.56,5.61.89,7.3A5.48,5.48,0,0,0,337.17,579.11Z" transform="translate(3.01)"/><path class="cls-28" d="M338.2,585.27l1.05-.13a3.89,3.89,0,0,0,1.58,3.18,2.62,2.62,0,0,0,3.72-.29c2.14-2.9-3.9-5.72-1.4-9a3.38,3.38,0,0,1,4.71-.47,4.87,4.87,0,0,1,2,3.57l-.95.17a4,4,0,0,0-1.63-2.93,2.4,2.4,0,0,0-3.31.2c-2,2.61,4,5.48,1.37,9a3.63,3.63,0,0,1-5.15.51A4.81,4.81,0,0,1,338.2,585.27Z" transform="translate(3.01)"/><path class="cls-28" d="M354.07,583.05l.84.58-7.54,10.2-.84-.59Zm1.81-2.88A.78.78,0,0,1,357,580a.72.72,0,0,1,.18,1,.76.76,0,0,1-1.08.18A.7.7,0,0,1,355.88,580.17Z" transform="translate(3.01)"/><path class="cls-28" d="M364,596.69l-4.22,5.7-.84-.58,4.07-5.5c2-2.7,1.68-5-.34-6.4s-4.47-1-6.46,1.7l-4.07,5.51-.84-.59,7.54-10.19.84.58-1.39,1.88a5.09,5.09,0,0,1,5,.39C365.56,590.74,366.34,593.52,364,596.69Z" transform="translate(3.01)"/><path class="cls-28" d="M372.54,610.5c-2.38,3.22-6,3-8.41,1.27a8.32,8.32,0,0,1-3.05-3.89l.72-.92a7.52,7.52,0,0,0,2.8,4,5,5,0,0,0,7.22-1.15l1.37-1.85a6,6,0,0,1-6.21-.35c-2.93-2-3.22-5.82-1.12-8.66a6.43,6.43,0,0,1,8.86-1.8,5.53,5.53,0,0,1,2.36,5.51l1.79-2.46.84.58Zm2.56-5.2a5.1,5.1,0,0,0-1-7.37,5.44,5.44,0,0,0-7.45,1.57c-1.78,2.41-1.56,5.61.89,7.3A5.49,5.49,0,0,0,375.1,605.3Z" transform="translate(3.01)"/><path class="cls-28" d="M387,613.8a5,5,0,0,0,1.27,7.25,6.15,6.15,0,0,0,4.84,1l-.79,1.06a7,7,0,0,1-4.64-1.23c-3.27-2.26-3.45-6-1.36-8.86a6.46,6.46,0,0,1,8.91-1.73c3.06,2.11,3,5.93.85,8.81Zm8.76,4.85c1.28-2.29,1.16-5-1.12-6.6a5.28,5.28,0,0,0-7,1Z" transform="translate(3.01)"/><path class="cls-28" d="M406.78,619.26l-.64.85c-1.79-1.33-4.29-.4-5.79,1.64l-4.24,5.73-.85-.59,7.54-10.19.85.58-1.48,2A4.23,4.23,0,0,1,406.78,619.26Z" transform="translate(3.01)"/><path class="cls-28" d="M404,625.17a6.63,6.63,0,0,1,9.18-1.55,6.14,6.14,0,0,1,1.45,8.9,6.63,6.63,0,0,1-9.19,1.57A6.14,6.14,0,0,1,404,625.17Zm9.81,6.74a5.17,5.17,0,0,0-1.22-7.49,5.6,5.6,0,0,0-7.73,1.31,5.24,5.24,0,0,0,1.17,7.56A5.64,5.64,0,0,0,413.78,631.91Z" transform="translate(3.01)"/><path class="cls-28" d="M414,637.6l1.06-.14a3.9,3.9,0,0,0,1.57,3.18,2.61,2.61,0,0,0,3.72-.29c2.15-2.9-3.9-5.72-1.4-9a3.41,3.41,0,0,1,4.72-.47,4.91,4.91,0,0,1,2,3.57l-1,.17a4,4,0,0,0-1.62-2.93,2.39,2.39,0,0,0-3.31.21c-2,2.6,4.05,5.47,1.37,9-1.16,1.52-3.26,1.82-5.16.51A4.83,4.83,0,0,1,414,637.6Z" transform="translate(3.01)"/><path class="cls-28" d="M429.84,635.37l.85.58-7.54,10.2-.85-.59Zm1.81-2.88a.78.78,0,0,1,1.09-.17.72.72,0,0,1,.18,1,.77.77,0,0,1-1.09.18A.71.71,0,0,1,431.65,632.49Z" transform="translate(3.01)"/><path class="cls-28" d="M430.08,643.2a6.62,6.62,0,0,1,9.17-1.55,6.13,6.13,0,0,1,1.46,8.9,6.62,6.62,0,0,1-9.19,1.56A6.13,6.13,0,0,1,430.08,643.2Zm9.81,6.74a5.16,5.16,0,0,0-1.22-7.49,5.6,5.6,0,0,0-7.73,1.31,5.24,5.24,0,0,0,1.17,7.56A5.65,5.65,0,0,0,439.89,649.94Z" transform="translate(3.01)"/><path class="cls-28" d="M452.57,657.84l-4.22,5.71-.85-.58,4.08-5.51c2-2.69,1.68-5-.35-6.4s-4.46-1-6.45,1.71l-4.07,5.5-.85-.58,7.54-10.2.85.59L446.86,650a5,5,0,0,1,5,.4C454.13,651.89,454.91,654.68,452.57,657.84Z" transform="translate(3.01)"/><text class="cls-39" transform="translate(999.71 434.95) scale(1.03 1)">ru<tspan class="cls-37" x="20.62" y="0">n</tspan><tspan class="cls-42" x="33.79" y="0">o</tspan><tspan x="48.1" y="0">ff </tspan><tspan class="cls-40" x="68.97" y="0">w</tspan><tspan x="87.26" y="0">a</tspan><tspan class="cls-37" x="102.07" y="0">t</tspan><tspan x="107.83" y="0">er a</tspan><tspan class="cls-37" x="151.61" y="0">n</tspan><tspan x="164.78" y="0">d e</tspan><tspan class="cls-41" x="201.6" y="0">r</tspan><tspan x="208.08" y="0">oded </tspan><tspan x="23.02" y="28.8">soil collec</tspan><tspan class="cls-40" x="130.77" y="28.8">t</tspan><tspan x="136.77" y="28.8">s ; hig</tspan><tspan class="cls-41" x="200.81" y="28.8">h</tspan><tspan x="213.98" y="28.8">e</tspan><tspan class="cls-37" x="227.59" y="28.8">s</tspan><tspan x="236.59" y="28.8">t </tspan><tspan x="-3.28" y="57.6">infilt</tspan><tspan class="cls-37" x="38.32" y="57.6">r</tspan><tspan x="44.8" y="57.6">ation; poor d</tspan><tspan class="cls-41" x="185.77" y="57.6">r</tspan><tspan x="192.25" y="57.6">ai</tspan><tspan class="cls-37" x="212.72" y="57.6">n</tspan><tspan x="225.9" y="57.6">age</tspan></text><path class="cls-43" d="M271.12,457.31c33.22,4.35,61.95,24.31,86.75,46.1,23.93,21,48.83,42.83,76.42,60.08,29.71,18.59,63.78,28.73,92.5,49,17,12,31.34,30.47,50.69,39.16" transform="translate(3.01)"/><polygon class="cls-26" points="577.85 653.13 579.75 651.28 579.73 648.63 584.13 653.11 577.85 653.13"/><path class="cls-44" d="M763,419c5,30-4.47,58-23.42,81-16.5,20-42.18,30.38-66.43,37.28-5,1.43-10.08,2.71-15.16,3.9" transform="translate(3.01)"/><polygon class="cls-45" points="664.35 533.76 663.09 540.64 667.17 546.33 650.85 543.39 664.35 533.76"/><line class="cls-46" x1="1137.71" y1="513.84" x2="1137.71" y2="641.65"/><polygon class="cls-45" points="1131.2 636.71 1137.71 639.48 1144.22 636.71 1137.71 652.15 1131.2 636.71"/><path class="cls-46" d="M519.63,201.11c-11.52-40-62.62-30.72-87.66-9-10.33,9-18.09,20.22-24.85,31.89" transform="translate(3.01)"/><polygon class="cls-45" points="406.91 216.55 411.23 222.15 418.27 222.93 405.03 233.2 406.91 216.55"/><text class="cls-39" transform="translate(87.28 109.83) scale(1.03 1)">infilt<tspan class="cls-37" x="41.59" y="0">r</tspan><tspan x="48.07" y="0">a</tspan><tspan class="cls-41" x="62.88" y="0">t</tspan><tspan x="68.64" y="0">es a</tspan><tspan class="cls-37" x="114.93" y="0">n</tspan><tspan x="128.11" y="0">d </tspan><tspan x="13.56" y="28.8">d</tspan><tspan class="cls-37" x="28.37" y="28.8">r</tspan><tspan x="34.85" y="28.8">ai</tspan><tspan class="cls-47" x="55.32" y="28.8">n</tspan><tspan x="69.22" y="28.8">s </tspan><tspan class="cls-40" x="87.1" y="28.8">w</tspan><tspan x="105.38" y="28.8">ell</tspan></text><path class="cls-48" d="M283.25,97.28c39.63,7.43,30,38.15,8.22,53-9.34,6.37-21.1,11-33.24,15.09" transform="translate(3.01)"/><polygon class="cls-45" points="263.29 159.37 262.83 164.82 266.43 168.95 253.51 167.88 263.29 159.37"/></g><rect class="cls-49" x="4" y="0.99" width="1303" height="713"/></g></g></svg>