<svg xmlns="http://www.w3.org/2000/svg" xmlns:xlink="http://www.w3.org/1999/xlink" viewBox="0 0 1378.9258 737.1164"><defs><style>.cls-1,.cls-34{fill:none;}.cls-2{fill:#3daaa1;}.cls-3{font-size:34.586px;}.cls-3,.cls-9{fill:#fff;font-family:Acre-Thin, Acre;font-weight:200;}.cls-4{letter-spacing:-0.02em;}.cls-5{letter-spacing:-0.01em;}.cls-6{clip-path:url(#clip-path);}.cls-7{fill:#7c7169;}.cls-8{fill:#5b5052;}.cls-9{font-size:35.6525px;}.cls-10{letter-spacing:-0.01em;}.cls-11{letter-spacing:-0.02em;}.cls-12{letter-spacing:-0.03em;}.cls-13{fill:#998675;}.cls-14{fill:#775751;}.cls-15{font-size:30px;fill:#5c5052;stroke:#fff;stroke-width:0.25px;font-family:Acre-Light, Acre;font-weight:300;}.cls-15,.cls-34{stroke-miterlimit:10;}.cls-16{letter-spacing:-0.015em;}.cls-17{letter-spacing:-0.015em;}.cls-18{letter-spacing:-0.005em;}.cls-19{letter-spacing:-0.015em;}.cls-20{letter-spacing:-0.02em;}.cls-21{letter-spacing:-0.017em;}.cls-22{letter-spacing:-0.008em;}.cls-23{letter-spacing:-0.025em;}.cls-24{letter-spacing:-0.01em;}.cls-25{letter-spacing:-0.013em;}.cls-26{letter-spacing:-0.017em;}.cls-27{letter-spacing:-0.008em;}.cls-28{letter-spacing:0em;}.cls-29{letter-spacing:-0.005em;}.cls-30{font-size:62.3515px;fill:#df6572;font-family:Acre-Regular, Acre;}.cls-31{letter-spacing:-0.009em;}.cls-32{letter-spacing:-0.02em;}.cls-33{letter-spacing:-0.031em;}.cls-34{stroke:#5d5152;stroke-width:1.9986px;}</style><clipPath id="clip-path" transform="translate(11.305)"><rect class="cls-1" x="0.9839" y="255.9993" width="1307" height="468.2624"/></clipPath></defs><g id="Layer_2" data-name="Layer 2"><g id="Layer_19" data-name="Layer 19"><rect class="cls-2" x="14.3043" y="204.9993" width="1304" height="50.4709"/><text class="cls-3" transform="translate(87.8824 241.7132)"><tspan class="cls-4">f</tspan><tspan x="8.3008" y="0">elsic + coa</tspan><tspan class="cls-5" x="177.665" y="0">r</tspan><tspan x="187.3491" y="0">se</tspan></text><text class="cls-3" transform="translate(393.2813 241.5364)"><tspan class="cls-4">m</tspan><tspan x="29.2251" y="0">afic + coa</tspan><tspan class="cls-5" x="186.6582" y="0">r</tspan><tspan x="196.3423" y="0">se</tspan></text><text class="cls-3" transform="translate(1041.6861 240.8865)"><tspan class="cls-4">m</tspan><tspan x="29.2256" y="0">afic + fi</tspan><tspan class="cls-4" x="141.2822" y="0">n</tspan><tspan x="160.2695" y="0">e</tspan></text><text class="cls-3" transform="translate(736.6051 241.9749)"><tspan class="cls-4">f</tspan><tspan x="8.3008" y="0">elsic + fi</tspan><tspan class="cls-4" x="132.2891" y="0">n</tspan><tspan x="151.2764" y="0">e</tspan></text><g class="cls-6"><rect class="cls-7" x="13.1597" y="255.5934" width="1308.4987" height="454.5336"/><path class="cls-8" d="M1317.8166,724.7233c-.3626-10.9132-3.6842-20.6189-5.6141-31.2213-3.281-18.0246-15.7229-32.8386-32.4871-43.2014-15.0114-9.2794-32.9545-13.52-50.5043-17.6019l-89.7958-20.8879c-9.2134-2.1432-18.695-4.4012-26.2969-9.6318-9.6658-6.6508-15.013-17.1858-19.9864-27.2823-10.8282-21.9828-21.73-44.1657-27.3365-67.7311-5.7819-24.3017-5.7821-49.4591-10.3916-73.97s-14.8327-49.5686-36.1287-64.9851c-11.1853-8.0972-24.6644-12.9873-37.93-17.7665-24.2667-8.7427-48.97-17.5813-74.9594-19.5066-16.8667-1.2495-33.832.4587-50.5424,2.9006-78.1267,11.4167-155.5047,40.52-209.43,93.5765-6.6029,6.4964-13.0353,13.4711-21.6175,17.5886-10.3131,4.948-22.4532,5.1744-34.0932,5.2909-20.4555.2047-41.6006.1567-60.8691-6.9627-18.1362-6.7011-32.659-20.52-51.8992-24.893-7.2826-1.6549-14.8588-1.7309-22.3185-2.4471-41.5337-3.9875-78.0634-30.1432-117.0791-42.5647-9.7541-3.1054-19.6631-5.8563-29.1181-9.66-17.9006-7.202-33.9068-18.0713-52.169-24.4652-11.235-3.9335-23.116-6.0965-34.48-9.7063-16.7149-5.31-31.99-13.673-46.4626-22.8822-6.9693-4.4347-15.0979-8.8606-20.3777-14.8263-3.6162-4.086-6.369-8.7278-9.8159-12.925a32.4679,32.4679,0,0,0-5.4422-5.57c-2.7821-2.073-6.1329-2.7277-8.4289-5.3989-4.4462-5.1728-13.3359-6.7785-19.9117-8.6632a87.6608,87.6608,0,0,0-23.4586-3.74q-10.0275-.0781-20.0542-.2119c-24.2336-.309-48.2145-1.072-72.4415-1.0765l-.0019,9.8779-.011,59.1771-.0181,96.4413-.0215,114.9679L-3.6973,649.521l-.01,51.4437c-.0009,4.9668-2.6266,19.3269,2.02,22.53,2.2169,1.5283,6.0607.9758,8.8068.9827,8.9535.0227,17.9074.0034,26.8609.005l42.819.0081,56.787.0106,68.7648.0129,78.7524.0147,86.75.0163,92.7569.0173,96.7739.0182,98.8007.0185,98.8371.0185,96.8835.0181,92.94.0174,87.0055.0163,79.0812.0148,69.1667.013,57.2621.0107,43.367.0081,27.482.0052Z" transform="translate(11.305)"/><text class="cls-9" transform="matrix(1.091, 0.0002, -0.0002, 1, 1143.3266, 694.3982)">R la<tspan class="cls-10" x="60.9284" y="0">y</tspan><tspan x="77.578" y="0">er</tspan></text><text class="cls-9" transform="matrix(1.091, 0.0002, -0.0002, 1, 1117.6702, 553.8952)">C <tspan class="cls-11" x="34.9385" y="0">h</tspan><tspan x="54.512" y="0">ori</tspan><tspan class="cls-12" x="94.8698" y="0">z</tspan><tspan x="109.4155" y="0">on</tspan></text><path class="cls-13" d="M375.9621,308.635c-63.965-18.9277-128.0744-14.4877-195.19-15.8184-25.21-.5-50.4655-1.0024-75.5134-3.67A435.53,435.53,0,0,1,54.42,280.6654q-12.3156-2.8131-24.4216-6.3335c-6.6327-1.9291-16.8269-3.399-22.3123-7.1717-1.0613-.73-2.5806-1.5654-3.6825-.888-2.1894,1.5045-2.0629,6.0015-2.2128,8.1705a30.8593,30.8593,0,0,0,.9666,9.4689c1.2064,5.3445-.7218,11.6737-1.2032,17.0669Q.6881,310.6805.43,320.4174a310.812,310.812,0,0,0,1.3678,38.5071c.37,3.78.9027,7.747,2.8324,11.1634a13.9525,13.9525,0,0,0,3.6817,4.0433c4.8271,3.9263,8.6829,7.2778,15.3063,8.6754a523.951,523.951,0,0,0,100.4975,11.2c18.6416.2684,37.3828-.45,55.85,1.899,19.1477,2.4358,37.5994,8.1191,55.92,13.7736C272.0146,420.83,306.37,432.1668,344.21,437.402c69.0052,9.5468,137.5114,3.2824,206.7319,8.2777,24.1278,1.7412,48.4,4.1662,72.4645,1.8,67.8839-6.6749,91.8862-73.7811,154.6132-86.1327a563.6614,563.6614,0,0,1,183.6147-5.5c55.9262,7.5522,82.7588,37.4566,94.4625,86.2411,1.1281,4.7025,2.401,9.6609,6.0416,13.1319,4.5786,4.3652,11.7326,5.3057,18.327,5.6684,44.0138,2.4206,90.1783-9.5569,131.2152,5.2279,7.6654,2.7617,14.9155,6.4,22.4434,9.4625,18.9172,7.697,67.6226,22.4853,78.9764,3.6593,12.5455-20.8021.0333-67.6215.23-90.96.1077-12.7973,9.6461-104.2316.5571-109.22-24.4768-13.4328-54.94-17.5205-83.1771-13.7905-53.4624-3.1332-110.2906,2.8255-163.6625,7.0579l-84.6884,6.716a217.16,217.16,0,0,1-21.6959.9936c-9.82-.2058-19.54-1.74-29.2547-3.07-73.0632-10.0018-150.9325-7.8511-216.4166,23.4861-8.1456,3.8981-16.099,8.2439-24.7754,11.0175a146.3076,146.3076,0,0,1-17.9354,4.1077c-24.5224,4.5445-69.9138,21.2781-92.7059,5.43-3.2708-2.2743-6.1986-5.2018-10.1311-6.2827-4.8852-1.3427-10.0436.4774-14.9143,1.8634-29.6069,8.425-60.4007.79-90.5909,2.91C435.4542,321.4969,403.7091,316.8458,375.9621,308.635Z" transform="translate(11.305)"/><path class="cls-14" d="M1221.7569,245.7594c-3.4341.0989-6.8691.2112-10.3048.224-13.931.0519-27.88,1.4082-41.751,1.4056l-205.5889-.0385-317.374-.0594c-73.2009-.0137-146.4378-.6925-219.6135-.6922l-78.4946-.0147-96.1837-.0181-71.5487-.0134c-13.62-.0025-27.2256-.1715-40.8525-.174l-92.38-.0173c-10.2127-.0019-47.4506-6.1509-54.9168.4134-8.5155,7.4867-1.1337,33.1006-.0957,43.6981.2043,2.0848.47,4.3194,1.8136,5.8847,1.6117,1.8768,4.2679,2.2309,6.6816,2.4635L69.64,305.4217c26.8776,2.59,53.7834,5.1822,80.7713,5.7559,34.2115.7273,68.7308-1.8311,102.7583,2.96,30.3142,4.2684,60.492,14.4944,90.2005,22.2213,32.7118,8.508,66.1267,14.1609,99.8409,15.7588,18.29.8669,36.31-.5686,54.5563-.8163,14.2219-.193,27.3206,3.582,41.6487,3.0491,13.5244-.503,26.5843-5.7215,40.1113-6.1435,25.0385-.7811,45.68.9057,70.5725-6.5184,41.236-12.2984,78.0144-29.9322,119.4116-42.2639,32.3675-9.642,63.1766-6.3495,96.4014-4.4355,30.5848,1.7471,60.9352,2.8588,91.5309.7914,24.6994-1.669,49.3076-4.5112,74.0022-6.272,72.5183-5.1695,145.0834,2.0429,217.673,1.7933a381.4081,381.4081,0,0,0,57.6282-4.73c1.9528-.3058.869-35.7658.8691-39.3406-13.5878-.0026-26.8022-1.1418-40.3513-1.4085-14.3084-.2816-28.623-.4775-42.9321-.1314Q1223.0446,245.7224,1221.7569,245.7594Z" transform="translate(11.305)"/><text class="cls-9" transform="matrix(1.091, 0.0002, -0.0002, 1, 1113.2082, 374.7587)">B <tspan class="cls-11" x="32.4072" y="0">h</tspan><tspan x="51.9806" y="0">ori</tspan><tspan class="cls-12" x="92.3385" y="0">z</tspan><tspan x="106.8842" y="0">on</tspan></text><text class="cls-9" transform="matrix(1.091, 0.0002, -0.0002, 1, 1108.2851, 285.9999)">A <tspan class="cls-11" x="34.5823" y="0">h</tspan><tspan x="54.1557" y="0">ori</tspan><tspan class="cls-12" x="94.5136" y="0">z</tspan><tspan x="109.0593" y="0">on</tspan></text></g><text class="cls-15" transform="translate(51.1747 115.1818) rotate(0.0109)">t<tspan class="cls-16" x="8.3096" y="0">h</tspan><tspan x="24.9893" y="0">e fi</tspan><tspan class="cls-17" x="66.9883" y="0">n</tspan><tspan x="83.6382" y="0">er t</tspan><tspan class="cls-16" x="128.3667" y="0">h</tspan><tspan x="145.0464" y="0">e particl</tspan><tspan class="cls-18" x="256.9136" y="0">e</tspan><tspan x="273.7124" y="0">s, t</tspan><tspan class="cls-19" x="309.5903" y="0">h</tspan><tspan x="326.271" y="0">e </tspan><tspan class="cls-20" x="353.5698" y="0">f</tspan><tspan x="361.2798" y="0">a</tspan><tspan class="cls-21" x="379.7896" y="0">s</tspan><tspan class="cls-20" x="391.5181" y="0">t</tspan><tspan x="399.228" y="0">er t</tspan><tspan class="cls-16" x="443.9556" y="0">h</tspan><tspan x="460.6353" y="0">e</tspan><tspan class="cls-22" x="477.5845" y="0"> </tspan><tspan class="cls-16" x="487.6948" y="0">w</tspan><tspan x="511.1245" y="0">eat</tspan><tspan class="cls-16" x="554.8931" y="0">h</tspan><tspan x="571.5728" y="0">eri</tspan><tspan class="cls-19" x="605.1704" y="0">n</tspan><tspan x="621.8208" y="0">g, but mi</tspan><tspan class="cls-16" x="743.6772" y="0">n</tspan><tspan x="760.3267" y="0">e</tspan><tspan class="cls-20" x="777.2759" y="0">r</tspan><tspan x="785.7954" y="0">alog</tspan><tspan class="cls-23" x="847.6548" y="0">y</tspan><tspan x="861.7241" y="0"> </tspan><tspan class="cls-16" x="872.0737" y="0">m</tspan><tspan x="897.8433" y="0">at</tspan><tspan class="cls-20" x="924.6626" y="0">t</tspan><tspan x="932.3726" y="0">e</tspan><tspan class="cls-24" x="949.3218" y="0">r</tspan><tspan x="958.1411" y="0">s! silica is o</tspan><tspan class="cls-16" x="1114.105" y="0">n</tspan><tspan x="1130.7544" y="0">e </tspan><tspan class="cls-25" x="1158.0532" y="0">o</tspan><tspan x="1175.7231" y="0">f t</tspan><tspan class="cls-19" x="1202.6919" y="0">h</tspan><tspan x="1219.3726" y="0">e </tspan><tspan x="18.5679" y="50">lea</tspan><tspan class="cls-26" x="60.8071" y="50">s</tspan><tspan x="72.5371" y="50">t</tspan><tspan class="cls-27" x="80.8467" y="50"> </tspan><tspan class="cls-17" x="90.9561" y="50">w</tspan><tspan x="114.3862" y="50">eat</tspan><tspan class="cls-16" x="158.1553" y="50">h</tspan><tspan x="174.835" y="50">e</tspan><tspan class="cls-20" x="191.7847" y="50">r</tspan><tspan class="cls-28" x="200.3047" y="50">able mi</tspan><tspan class="cls-16" x="305.1528" y="50">n</tspan><tspan x="321.8022" y="50">e</tspan><tspan class="cls-20" x="338.7515" y="50">r</tspan><tspan x="347.271" y="50">als,</tspan><tspan class="cls-27" x="389.7798" y="50"> </tspan><tspan class="cls-29" x="399.8892" y="50">w</tspan><tspan x="423.6196" y="50">hile mi</tspan><tspan class="cls-16" x="516.1069" y="50">n</tspan><tspan x="532.7563" y="50">e</tspan><tspan class="cls-20" x="549.7056" y="50">r</tspan><tspan x="558.2251" y="50">als high in i</tspan><tspan class="cls-20" x="719.2603" y="50">r</tspan><tspan x="727.7798" y="50">on a</tspan><tspan class="cls-16" x="791.7983" y="50">n</tspan><tspan x="808.4478" y="50">d </tspan><tspan class="cls-16" x="837.3071" y="50">m</tspan><tspan x="863.0767" y="50">ag</tspan><tspan class="cls-19" x="900.0962" y="50">n</tspan><tspan class="cls-18" x="916.7466" y="50">e</tspan><tspan x="933.5454" y="50">sium</tspan><tspan class="cls-22" x="996.6333" y="50"> </tspan><tspan class="cls-16" x="1006.7437" y="50">w</tspan><tspan x="1030.1733" y="50">eat</tspan><tspan class="cls-16" x="1073.9419" y="50">h</tspan><tspan x="1090.6216" y="50">er </tspan><tspan class="cls-20" x="1127.0396" y="50">r</tspan><tspan x="1135.5591" y="50">eadi</tspan><tspan class="cls-29" x="1197.0571" y="50">l</tspan><tspan class="cls-23" x="1203.688" y="50">y</tspan></text><text class="cls-30" transform="translate(25.733 61.4653)">mi<tspan class="cls-31" x="71.5791" y="0">n</tspan><tspan x="106.6826" y="0">e</tspan><tspan class="cls-32" x="141.8486" y="0">r</tspan><tspan x="160.4297" y="0">alog</tspan><tspan class="cls-33" x="289.3076" y="0">y</tspan></text><rect class="cls-34" x="12.3043" y="0.9993" width="1308" height="724"/></g></g></svg>