<svg xmlns="http://www.w3.org/2000/svg" xmlns:xlink="http://www.w3.org/1999/xlink" viewBox="0 0 1336.5692 508.303"><defs><style>.cls-1{fill:none;}.cls-2{clip-path:url(#clip-path);}.cls-3{fill:#7c7169;}.cls-4{fill:#5b5052;}.cls-5{fill:#fff;}.cls-6{fill:#b2adaf;}.cls-7{fill:#ddcdc7;}.cls-8{fill:#775751;}.cls-9{fill:#513225;}</style><clipPath id="clip-path" transform="translate(10.7974 -35.4331)"><path class="cls-1" d="M1304.9842,541.7272h-1303V73.9727c0-16.3719-7.19-63.9081,5.8021-72.0994C14.4775-2.3456,38,1.88,45.8065,1.88H1304.4474C1305.134,181.7984,1304.9842,361.7808,1304.9842,541.7272Z"/></clipPath></defs><g id="Layer_2" data-name="Layer 2"><g id="Layer_19" data-name="Layer 19"><g class="cls-2"><rect class="cls-3" x="0.4896" y="2.5963" width="1319.2934" height="504.8403"/><path class="cls-4" d="M-10.7974,68.1345v-31.07H74.4183c24.7585,0,49.5125.517,74.2676.8563q9.37.1284,18.7414.2122a75.6828,75.6828,0,0,1,21.9236,3.8091c6.1456,1.92,14.4537,3.5559,18.61,8.8293,2.1461,2.7231,5.2777,3.39,7.878,5.5031a31.9685,31.9685,0,0,1,5.087,5.678c3.2219,4.2788,5.7953,9.0111,9.1755,13.1765,4.9352,6.0816,12.5325,10.5927,19.0463,15.1131,13.5266,9.3869,27.8034,17.9114,43.425,23.3219,10.62,3.6783,21.724,5.8815,32.2242,9.89,17.0678,6.5156,32.028,17.595,48.7581,24.9348,8.8367,3.8768,18.0975,6.68,27.2136,9.8442C437.232,170.89,471.375,197.5517,510.19,201.61c6.9715.7288,14.0518.8048,20.858,2.4908,12.5548,3.11,23.1007,11.3791,34.3017,17.8839,22.5616,13.1024,48.1,19.0874,73.1028,25.486,13.8955,3.5561,27.3578,8.4978,40.9034,13.1787,9.6673,3.3407,29.0836,5.5415,35.2264,14.3746,2.4725,3.5554,4.0025,7.7861,6.97,10.9338a28.74,28.74,0,0,0,8.056,5.463c14.2905,7.3245,29.8655,13.1208,41.1778,24.5679a310.552,310.552,0,0,0,42.959,35.3624c2.9035,1.9734,6.34,2.9766,9.7128,3.9506,24.443,7.0581,51.833,11.78,75.1065,22.0155,25.15,11.0607,50.7055,21.2556,78.5148,23.5957,6.6045.5558,13.2471.5853,19.8442,1.2243,40.6028,3.9328,88.9823,18.7591,126.1161,35.2388,30.5449,13.5556,65.2453,17.4572,93.5212,35.3235,3.1741,2.0056,6.311,4.207,9.91,5.2555,9.6895,2.8226,18.6223.8094,28.4309,4.92a22.0431,22.0431,0,0,1,4.6459,2.3962,25.72,25.72,0,0,1,3.8273,3.8422c5.0375,5.6955,11.4507,9.5056,17.7831,13.5283,5.6823,3.61,12.9681,6.0026,17.45,11.04,4.5821,5.15,6.4508,11.6067,10.3543,17.0651,3.4779,4.8631,8.9272,6.5662,14.4253,9.2512,1.01.4931,2.1839,1.2627,2.0743,2.3877-.0438.45-.2783.9813.0407,1.2995s.3813-.9481.0354-.66c-29.1678,0-58.2235-.47-87.41-.47H-10.7212V140.9476Z" transform="translate(10.7974 -35.4331)"/><path class="cls-5" d="M210.4227,320.9714c0,4.0547-2.81,7.4433-6.835,7.4433a6.446,6.446,0,0,1-5.8213-3.6211v9.21h-1.1582V313.7311h1.1582v3.4463a6.4453,6.4453,0,0,1,5.8213-3.62C207.6131,313.5573,210.4227,316.946,210.4227,320.9714Zm-1.1583,0c0-3.418-2.3466-6.2852-5.706-6.2852a5.9387,5.9387,0,0,0-5.792,5.6485v1.2734a5.9649,5.9649,0,0,0,5.792,5.6767C206.9178,327.2848,209.2644,324.3893,209.2644,320.9714Z" transform="translate(10.7974 -35.4331)"/><path class="cls-5" d="M227.2176,313.7311v14.48h-1.1582V324.736a6.4573,6.4573,0,0,1-5.8506,3.6787c-4.0254,0-6.835-3.3886-6.835-7.414,0-4.0547,2.81-7.4434,6.835-7.4434a6.4583,6.4583,0,0,1,5.8506,3.6777v-3.5039Zm-1.1582,7.27a6.0325,6.0325,0,0,0-5.8213-6.3145c-3.3594,0-5.7051,2.8965-5.7051,6.3145s2.3457,6.2841,5.7051,6.2841A6.006,6.006,0,0,0,226.0594,321.0007Z" transform="translate(10.7974 -35.4331)"/><path class="cls-5" d="M237.6424,313.5573v1.2168c-2.52-.0879-4.1709,2.4033-4.1709,5.2988v8.1387h-1.1582v-14.48h1.1582v2.8379A4.594,4.594,0,0,1,237.6424,313.5573Z" transform="translate(10.7974 -35.4331)"/><path class="cls-5" d="M240.2185,321.29a5.94,5.94,0,0,0,6.0235,5.9951,6.6484,6.6484,0,0,0,5.039-2.2294v1.5058a7.5149,7.5149,0,0,1-5.039,1.8535c-4.4883,0-7.1826-3.4179-7.1826-7.4433s2.8388-7.4141,6.9218-7.4141c4.1993,0,6.69,3.6484,6.69,7.7324Zm11.2081-1.1289c-.377-2.9834-2.3174-5.4746-5.4454-5.4746a5.7487,5.7487,0,0,0-5.705,5.4746Z" transform="translate(10.7974 -35.4331)"/><path class="cls-5" d="M268.1932,320.1022v8.1094H267.034v-7.8193c0-3.8233-1.8242-5.792-4.6045-5.792-2.6065,0-4.7207,1.9687-4.7207,5.792v7.8193h-1.1582v-14.48h1.1582v2.6641a5.491,5.491,0,0,1,4.8369-2.8965C265.615,313.4987,268.1932,315.614,268.1932,320.1022Z" transform="translate(10.7974 -35.4331)"/><path class="cls-5" d="M277.4871,314.86h-2.9834v13.3516h-1.1582V314.86H271.492v-1.1289h1.8535V309.85h1.1582v3.8808h2.9834Z" transform="translate(10.7974 -35.4331)"/><path class="cls-5" d="M310.906,319.5807l-.0292,8.6309h-1.1583v-8.3691c0-3.1573-1.5644-5.2139-4.1708-5.2139s-4.17,2.0566-4.17,5.5029l-.0293,8.08H300.19v-8.3691c0-3.1573-1.5634-5.2139-4.1709-5.2139s-4.17,2.0566-4.17,5.5029v8.08h-1.1582v-14.48h1.1582v2.3164a4.7689,4.7689,0,0,1,4.3154-2.5488,4.9817,4.9817,0,0,1,4.8077,3.5049,4.9211,4.9211,0,0,1,4.7207-3.5049C308.531,313.4987,310.906,315.6716,310.906,319.5807Z" transform="translate(10.7974 -35.4331)"/><path class="cls-5" d="M327.9334,313.7311v14.48h-1.1582V324.736a6.4573,6.4573,0,0,1-5.8506,3.6787c-4.0254,0-6.835-3.3886-6.835-7.414,0-4.0547,2.81-7.4434,6.835-7.4434a6.4583,6.4583,0,0,1,5.8506,3.6777v-3.5039Zm-1.1582,7.27a6.0325,6.0325,0,0,0-5.8213-6.3145c-3.3594,0-5.7051,2.8965-5.7051,6.3145s2.3457,6.2841,5.7051,6.2841A6.006,6.006,0,0,0,326.7752,321.0007Z" transform="translate(10.7974 -35.4331)"/><path class="cls-5" d="M337.4891,314.86h-2.9834v13.3516h-1.1582V314.86h-1.8536v-1.1289h1.8536V309.85h1.1582v3.8808h2.9834Z" transform="translate(10.7974 -35.4331)"/><path class="cls-5" d="M340.0662,321.29a5.94,5.94,0,0,0,6.0234,5.9951,6.6485,6.6485,0,0,0,5.0391-2.2294v1.5058a7.515,7.515,0,0,1-5.0391,1.8535c-4.4882,0-7.1826-3.4179-7.1826-7.4433s2.8389-7.4141,6.9219-7.4141c4.1992,0,6.69,3.6484,6.69,7.7324Zm11.208-1.1289c-.3769-2.9834-2.3174-5.4746-5.4453-5.4746a5.7488,5.7488,0,0,0-5.7051,5.4746Z" transform="translate(10.7974 -35.4331)"/><path class="cls-5" d="M361.7264,313.5573v1.2168c-2.52-.0879-4.17,2.4033-4.17,5.2988v8.1387h-1.1582v-14.48h1.1582v2.8379A4.594,4.594,0,0,1,361.7264,313.5573Z" transform="translate(10.7974 -35.4331)"/><path class="cls-5" d="M364.7957,309.85a.8687.8687,0,1,1,1.7373,0,.8687.8687,0,1,1-1.7373,0Zm.2891,3.8808h1.1591v14.48h-1.1591Z" transform="translate(10.7974 -35.4331)"/><path class="cls-5" d="M384.4012,313.7311v14.48H383.243V324.736a6.4573,6.4573,0,0,1-5.8506,3.6787c-4.0254,0-6.835-3.3886-6.835-7.414,0-4.0547,2.81-7.4434,6.835-7.4434a6.4583,6.4583,0,0,1,5.8506,3.6777v-3.5039Zm-1.1582,7.27a6.0325,6.0325,0,0,0-5.8213-6.3145c-3.3594,0-5.7051,2.8965-5.7051,6.3145s2.3457,6.2841,5.7051,6.2841A6.0061,6.0061,0,0,0,383.243,321.0007Z" transform="translate(10.7974 -35.4331)"/><path class="cls-5" d="M389.4969,305.0427h1.1582v23.1689h-1.1582Z" transform="translate(10.7974 -35.4331)"/><path class="cls-5" d="M911.9441,353.9225a10.0982,10.0982,0,0,1,10.2813-10.4257,9.9883,9.9883,0,0,1,4.5469.9843v1.1875a8.73,8.73,0,0,0-4.5469-1.0722,9.3279,9.3279,0,0,0,0,18.6513,8.74,8.74,0,0,0,4.5469-1.0712v1.1875a9.9883,9.9883,0,0,1-4.5469.9843A10.0988,10.0988,0,0,1,911.9441,353.9225Z" transform="translate(10.7974 -35.4331)"/><path class="cls-5" d="M952.5154,355.95v8.1094h-1.1592v-7.82c0-3.8223-1.8242-5.792-4.6044-5.792-2.6065,0-4.7208,1.97-4.7208,5.792v7.82h-1.1582v-23.17h1.1582v11.3536a5.4894,5.4894,0,0,1,4.837-2.8965C949.9373,349.3464,952.5154,351.4606,952.5154,355.95Z" transform="translate(10.7974 -35.4331)"/><path class="cls-5" d="M955.698,356.79a7.3,7.3,0,1,1,7.2989,7.4434A7.2378,7.2378,0,0,1,955.698,356.79Zm13.4385-.0293a6.1407,6.1407,0,1,0-12.2793,0,6.1429,6.1429,0,1,0,12.2793,0Z" transform="translate(10.7974 -35.4331)"/><path class="cls-5" d="M979.6482,349.405v1.2158c-2.52-.0869-4.1709,2.4033-4.1709,5.3v8.1387h-1.1582V349.5788h1.1582v2.8379A4.5926,4.5926,0,0,1,979.6482,349.405Z" transform="translate(10.7974 -35.4331)"/><path class="cls-5" d="M982.7166,345.6979a.8687.8687,0,1,1,1.7373,0,.8687.8687,0,0,1-1.7373,0Zm.2891,3.8809h1.1591v14.4805h-1.1591Z" transform="translate(10.7974 -35.4331)"/><path class="cls-5" d="M998.9334,349.9255l-9.2383,13.0039h9.0938v1.13H987.784v-.4063l9.2383-12.9453h-9.2676v-1.1289h11.1787Z" transform="translate(10.7974 -35.4331)"/><path class="cls-5" d="M1000.2937,356.79a7.3,7.3,0,1,1,7.2989,7.4434A7.2378,7.2378,0,0,1,1000.2937,356.79Zm13.4385-.0293a6.1407,6.1407,0,1,0-12.2793,0,6.1429,6.1429,0,1,0,12.2793,0Z" transform="translate(10.7974 -35.4331)"/><path class="cls-5" d="M1030.5574,355.95v8.1094h-1.1592v-7.82c0-3.8223-1.8242-5.792-4.6045-5.792-2.6064,0-4.7207,1.97-4.7207,5.792v7.82h-1.1582V349.5788h1.1582v2.6641a5.4894,5.4894,0,0,1,4.837-2.8965C1027.9793,349.3464,1030.5574,351.4606,1030.5574,355.95Z" transform="translate(10.7974 -35.4331)"/><path class="cls-5" d="M908.0828,213.9577a10.0991,10.0991,0,0,1,10.2813-10.4268,9.974,9.974,0,0,1,4.5468.9854v1.1875a8.7294,8.7294,0,0,0-4.5468-1.0723,9.3275,9.3275,0,0,0,0,18.65,8.7391,8.7391,0,0,0,4.5468-1.07v1.1865a9.987,9.987,0,0,1-4.5468.9854A10.0994,10.0994,0,0,1,908.0828,213.9577Z" transform="translate(10.7974 -35.4331)"/><path class="cls-5" d="M948.6541,215.9841v8.1093h-1.1592v-7.8193c0-3.8232-1.8242-5.793-4.6045-5.793-2.6064,0-4.7207,1.97-4.7207,5.793v7.8193h-1.1582V200.9245H938.17V212.277a5.4907,5.4907,0,0,1,4.8369-2.8955C946.076,209.3815,948.6541,211.4948,948.6541,215.9841Z" transform="translate(10.7974 -35.4331)"/><path class="cls-5" d="M951.8367,216.8249a7.3,7.3,0,1,1,7.2988,7.4424A7.2372,7.2372,0,0,1,951.8367,216.8249Zm13.4385-.0293a6.1407,6.1407,0,1,0-12.2793,0,6.1429,6.1429,0,1,0,12.2793,0Z" transform="translate(10.7974 -35.4331)"/><path class="cls-5" d="M975.7869,209.4391v1.2159c-2.52-.086-4.1709,2.4043-4.1709,5.3007v8.1377h-1.1582v-14.48h1.1582v2.8379A4.594,4.594,0,0,1,975.7869,209.4391Z" transform="translate(10.7974 -35.4331)"/><path class="cls-5" d="M978.8553,205.7321a.8687.8687,0,1,1,1.7373,0,.8687.8687,0,0,1-1.7373,0Zm.289,3.8809h1.1592v14.48h-1.1592Z" transform="translate(10.7974 -35.4331)"/><path class="cls-5" d="M995.0721,209.9606l-9.2383,13.003h9.0937v1.13H983.9227v-.4052l9.2382-12.9453h-9.2675v-1.13h11.1787Z" transform="translate(10.7974 -35.4331)"/><path class="cls-5" d="M996.4324,216.8249a7.3,7.3,0,1,1,7.2988,7.4424A7.2372,7.2372,0,0,1,996.4324,216.8249Zm13.4385-.0293a6.1407,6.1407,0,1,0-12.2793,0,6.1429,6.1429,0,1,0,12.2793,0Z" transform="translate(10.7974 -35.4331)"/><path class="cls-5" d="M1026.6961,215.9841v8.1093h-1.1592v-7.8193c0-3.8232-1.8242-5.793-4.6045-5.793-2.6064,0-4.7207,1.97-4.7207,5.793v7.8193h-1.1582v-14.48h1.1582v2.664a5.4907,5.4907,0,0,1,4.8369-2.8955C1024.118,209.3815,1026.6961,211.4948,1026.6961,215.9841Z" transform="translate(10.7974 -35.4331)"/><path class="cls-5" d="M338.2537,509.0612v20.5039h-1.1582V511.0593l-3.1855,2.2588-.6084-.9268,4.663-3.33Z" transform="translate(10.7974 -35.4331)"/><path class="cls-5" d="M342.8582,526.321h1.1865l-1.2451,6.43h-.8682Z" transform="translate(10.7974 -35.4331)"/><path class="cls-5" d="M346.7088,519.4577c0-5.6191,1.7666-10.4258,6.2265-10.4258,4.4307,0,6.2266,4.8067,6.2266,10.4258,0,5.6475-1.7959,10.3965-6.2266,10.3965C348.4754,529.8542,346.7088,525.1052,346.7088,519.4577Zm11.2949,0c0-4.3154-1.1592-9.2969-5.0684-9.2969s-5.0683,4.9815-5.0683,9.2969,1.1582,9.2676,5.0683,9.2676S358.0037,523.7731,358.0037,519.4577Z" transform="translate(10.7974 -35.4331)"/><path class="cls-5" d="M362.23,519.4577c0-5.6191,1.7666-10.4258,6.2265-10.4258,4.4307,0,6.2266,4.8067,6.2266,10.4258,0,5.6475-1.7959,10.3965-6.2266,10.3965C363.9969,529.8542,362.23,525.1052,362.23,519.4577Zm11.2949,0c0-4.3154-1.1592-9.2969-5.0684-9.2969s-5.0683,4.9815-5.0683,9.2969,1.1582,9.2676,5.0683,9.2676S373.5252,523.7731,373.5252,519.4577Z" transform="translate(10.7974 -35.4331)"/><path class="cls-5" d="M377.7518,519.4577c0-5.6191,1.7666-10.4258,6.2265-10.4258,4.4307,0,6.2266,4.8067,6.2266,10.4258,0,5.6475-1.7959,10.3965-6.2266,10.3965C379.5184,529.8542,377.7518,525.1052,377.7518,519.4577Zm11.2949,0c0-4.3154-1.1592-9.2969-5.0684-9.2969s-5.0683,4.9815-5.0683,9.2969,1.1582,9.2676,5.0683,9.2676S389.0467,523.7731,389.0467,519.4577Z" transform="translate(10.7974 -35.4331)"/><path class="cls-5" d="M415.4266,515.0847,406.71,535.3571h-1.1592l2.6933-6.2549-6.11-14.0175h1.2451l5.416,12.7421,5.3867-12.7421Z" transform="translate(10.7974 -35.4331)"/><path class="cls-5" d="M418.032,522.6432a5.94,5.94,0,0,0,6.0235,5.9952,6.6485,6.6485,0,0,0,5.039-2.23v1.5058a7.5149,7.5149,0,0,1-5.039,1.8535c-4.4893,0-7.1827-3.4179-7.1827-7.4433s2.8389-7.4141,6.9219-7.4141c4.1992,0,6.6905,3.6485,6.6905,7.7324Zm11.208-1.1289c-.3769-2.9834-2.3173-5.4746-5.4453-5.4746a5.7488,5.7488,0,0,0-5.7051,5.4746Z" transform="translate(10.7974 -35.4331)"/><path class="cls-5" d="M447.1355,515.0847v14.48h-1.1582V526.09a6.457,6.457,0,0,1-5.8505,3.6787c-4.0254,0-6.835-3.3886-6.835-7.414,0-4.0547,2.81-7.4434,6.835-7.4434a6.4579,6.4579,0,0,1,5.8505,3.6778v-3.5039Zm-1.1582,7.2695a6.0325,6.0325,0,0,0-5.8213-6.3145c-3.3593,0-5.705,2.8965-5.705,6.3145s2.3457,6.2842,5.705,6.2842A6.0061,6.0061,0,0,0,445.9773,522.3542Z" transform="translate(10.7974 -35.4331)"/><path class="cls-5" d="M457.56,514.9108v1.2168c-2.52-.0879-4.1709,2.4033-4.1709,5.2989v8.1386h-1.1582v-14.48h1.1582v2.8378A4.5942,4.5942,0,0,1,457.56,514.9108Z" transform="translate(10.7974 -35.4331)"/><path class="cls-5" d="M459.1512,527.48l.8691-.8116a4.5527,4.5527,0,0,0,3.5615,1.97c1.7383,0,3.1856-1.0137,3.1856-2.6934,0-4.1123-7.3848-2.8389-7.3272-7.56a3.7117,3.7117,0,0,1,3.9678-3.5039,5.718,5.718,0,0,1,4.2285,2.0567l-.7529.7812a4.63,4.63,0,0,0-3.4463-1.708,2.6154,2.6154,0,0,0-2.8672,2.3457c-.0869,3.7647,7.3565,2.52,7.2979,7.5879-.0284,2.1719-1.7373,3.8232-4.3438,3.8232A5.6238,5.6238,0,0,1,459.1512,527.48Z" transform="translate(10.7974 -35.4331)"/><path class="cls-5" d="M122.326,508.0954V528.6h-1.1582V510.0934l-3.1856,2.2588-.6084-.9257,4.6631-3.3311Z" transform="translate(10.7974 -35.4331)"/><path class="cls-5" d="M126.409,518.4929c0-5.6192,1.7666-10.4268,6.2265-10.4268,4.4307,0,6.2266,4.8076,6.2266,10.4268,0,5.6464-1.7959,10.3964-6.2266,10.3964C128.1756,528.8893,126.409,524.1393,126.409,518.4929Zm11.2949,0c0-4.3164-1.1592-9.2969-5.0684-9.2969s-5.0683,4.9805-5.0683,9.2969c0,4.3144,1.1582,9.2675,5.0683,9.2675S137.7039,522.8073,137.7039,518.4929Z" transform="translate(10.7974 -35.4331)"/><path class="cls-5" d="M141.9305,518.4929c0-5.6192,1.7666-10.4268,6.2265-10.4268,4.4307,0,6.2266,4.8076,6.2266,10.4268,0,5.6464-1.7959,10.3964-6.2266,10.3964C143.6971,528.8893,141.9305,524.1393,141.9305,518.4929Zm11.2949,0c0-4.3164-1.1592-9.2969-5.0684-9.2969s-5.0683,4.9805-5.0683,9.2969c0,4.3144,1.1582,9.2675,5.0683,9.2675S153.2254,522.8073,153.2254,518.4929Z" transform="translate(10.7974 -35.4331)"/><path class="cls-5" d="M179.6053,514.12l-8.7168,20.2725h-1.1592l2.6934-6.2559-6.11-14.0166h1.2451l5.416,12.7422L178.36,514.12Z" transform="translate(10.7974 -35.4331)"/><path class="cls-5" d="M182.2107,521.6784a5.94,5.94,0,0,0,6.0235,5.9941,6.645,6.645,0,0,0,5.039-2.2294v1.5058a7.51,7.51,0,0,1-5.039,1.8535c-4.4883,0-7.1826-3.417-7.1826-7.4424s2.8388-7.414,6.9218-7.414c4.1993,0,6.6905,3.6484,6.6905,7.7324Zm11.208-1.13c-.3769-2.9834-2.3173-5.4736-5.4453-5.4736a5.7485,5.7485,0,0,0-5.705,5.4736Z" transform="translate(10.7974 -35.4331)"/><path class="cls-5" d="M211.3143,514.12V528.6H210.156v-3.4756a6.4579,6.4579,0,0,1-5.8505,3.6777c-4.0254,0-6.835-3.3877-6.835-7.414,0-4.0547,2.81-7.4424,6.835-7.4424a6.4579,6.4579,0,0,1,5.8505,3.6777V514.12Zm-1.1583,7.2686a6.0322,6.0322,0,0,0-5.8212-6.3135c-3.3594,0-5.7051,2.8965-5.7051,6.3135s2.3457,6.2841,5.7051,6.2841A6.006,6.006,0,0,0,210.156,521.3884Z" transform="translate(10.7974 -35.4331)"/><path class="cls-5" d="M221.7381,513.946v1.2158c-2.52-.0869-4.17,2.4033-4.17,5.3V528.6H216.41V514.12h1.1582v2.8379A4.5921,4.5921,0,0,1,221.7381,513.946Z" transform="translate(10.7974 -35.4331)"/><path class="cls-5" d="M223.33,526.5143l.8691-.8105a4.5515,4.5515,0,0,0,3.5615,1.9687c1.7383,0,3.1856-1.0136,3.1856-2.6933,0-4.1113-7.3848-2.8379-7.3272-7.5586a3.711,3.711,0,0,1,3.9678-3.5039,5.7148,5.7148,0,0,1,4.2285,2.0566l-.7529.7813a4.6268,4.6268,0,0,0-3.4463-1.709,2.6154,2.6154,0,0,0-2.8672,2.3457c-.0869,3.7656,7.3565,2.5195,7.2979,7.5879-.0283,2.1719-1.7373,3.8232-4.3438,3.8232A5.6209,5.6209,0,0,1,223.33,526.5143Z" transform="translate(10.7974 -35.4331)"/><path class="cls-5" d="M1092.0584,509.0612v20.5039H1090.9V511.0593l-3.1856,2.2588-.6084-.9268,4.6631-3.33Z" transform="translate(10.7974 -35.4331)"/><path class="cls-5" d="M1096.1414,519.4577c0-5.6191,1.7666-10.4258,6.2266-10.4258,4.4306,0,6.2265,4.8067,6.2265,10.4258,0,5.6475-1.7959,10.3965-6.2265,10.3965C1097.908,529.8542,1096.1414,525.1052,1096.1414,519.4577Zm11.2949,0c0-4.3154-1.1592-9.2969-5.0683-9.2969s-5.0684,4.9815-5.0684,9.2969,1.1582,9.2676,5.0684,9.2676S1107.4363,523.7731,1107.4363,519.4577Z" transform="translate(10.7974 -35.4331)"/><path class="cls-5" d="M1111.6629,519.4577c0-5.6191,1.7666-10.4258,6.2265-10.4258,4.4307,0,6.2266,4.8067,6.2266,10.4258,0,5.6475-1.7959,10.3965-6.2266,10.3965C1113.43,529.8542,1111.6629,525.1052,1111.6629,519.4577Zm11.2949,0c0-4.3154-1.1592-9.2969-5.0684-9.2969s-5.0683,4.9815-5.0683,9.2969,1.1582,9.2676,5.0683,9.2676S1122.9578,523.7731,1122.9578,519.4577Z" transform="translate(10.7974 -35.4331)"/><path class="cls-5" d="M1127.7059,526.321h1.1865l-1.2451,6.43h-.8682Z" transform="translate(10.7974 -35.4331)"/><path class="cls-5" d="M1131.5564,519.4577c0-5.6191,1.7666-10.4258,6.2266-10.4258,4.4307,0,6.2266,4.8067,6.2266,10.4258,0,5.6475-1.7959,10.3965-6.2266,10.3965C1133.323,529.8542,1131.5564,525.1052,1131.5564,519.4577Zm11.295,0c0-4.3154-1.1592-9.2969-5.0684-9.2969s-5.0684,4.9815-5.0684,9.2969,1.1582,9.2676,5.0684,9.2676S1142.8514,523.7731,1142.8514,519.4577Z" transform="translate(10.7974 -35.4331)"/><path class="cls-5" d="M1147.0779,519.4577c0-5.6191,1.7666-10.4258,6.2266-10.4258,4.4307,0,6.2265,4.8067,6.2265,10.4258,0,5.6475-1.7958,10.3965-6.2265,10.3965C1148.8445,529.8542,1147.0779,525.1052,1147.0779,519.4577Zm11.2949,0c0-4.3154-1.1591-9.2969-5.0683-9.2969s-5.0684,4.9815-5.0684,9.2969,1.1582,9.2676,5.0684,9.2676S1158.3728,523.7731,1158.3728,519.4577Z" transform="translate(10.7974 -35.4331)"/><path class="cls-5" d="M1162.5994,519.4577c0-5.6191,1.7666-10.4258,6.2266-10.4258,4.4306,0,6.2265,4.8067,6.2265,10.4258,0,5.6475-1.7959,10.3965-6.2265,10.3965C1164.366,529.8542,1162.5994,525.1052,1162.5994,519.4577Zm11.2949,0c0-4.3154-1.1591-9.2969-5.0683-9.2969s-5.0684,4.9815-5.0684,9.2969,1.1582,9.2676,5.0684,9.2676S1173.8943,523.7731,1173.8943,519.4577Z" transform="translate(10.7974 -35.4331)"/><path class="cls-5" d="M1200.2742,515.0847l-8.7168,20.2724h-1.1592l2.6934-6.2549-6.11-14.0175h1.2452l5.416,12.7421,5.3867-12.7421Z" transform="translate(10.7974 -35.4331)"/><path class="cls-5" d="M1202.88,522.6432a5.94,5.94,0,0,0,6.0234,5.9952,6.6485,6.6485,0,0,0,5.0391-2.23v1.5058a7.5152,7.5152,0,0,1-5.0391,1.8535c-4.4892,0-7.1826-3.4179-7.1826-7.4433s2.8389-7.4141,6.9219-7.4141c4.1992,0,6.69,3.6485,6.69,7.7324Zm11.208-1.1289c-.377-2.9834-2.3174-5.4746-5.4453-5.4746a5.7487,5.7487,0,0,0-5.7051,5.4746Z" transform="translate(10.7974 -35.4331)"/><path class="cls-5" d="M1231.9832,515.0847v14.48h-1.1582V526.09a6.4573,6.4573,0,0,1-5.8506,3.6787c-4.0254,0-6.835-3.3886-6.835-7.414,0-4.0547,2.81-7.4434,6.835-7.4434a6.4582,6.4582,0,0,1,5.8506,3.6778v-3.5039Zm-1.1582,7.2695a6.0325,6.0325,0,0,0-5.8213-6.3145c-3.3594,0-5.7051,2.8965-5.7051,6.3145s2.3457,6.2842,5.7051,6.2842A6.0061,6.0061,0,0,0,1230.825,522.3542Z" transform="translate(10.7974 -35.4331)"/><path class="cls-5" d="M1242.408,514.9108v1.2168c-2.52-.0879-4.1709,2.4033-4.1709,5.2989v8.1386h-1.1582v-14.48h1.1582v2.8378A4.594,4.594,0,0,1,1242.408,514.9108Z" transform="translate(10.7974 -35.4331)"/><path class="cls-5" d="M1243.9988,527.48l.8692-.8116a4.5524,4.5524,0,0,0,3.5615,1.97c1.7383,0,3.1855-1.0137,3.1855-2.6934,0-4.1123-7.3847-2.8389-7.3271-7.56a3.7117,3.7117,0,0,1,3.9678-3.5039,5.7182,5.7182,0,0,1,4.2285,2.0567l-.753.7812a4.63,4.63,0,0,0-3.4462-1.708,2.6154,2.6154,0,0,0-2.8672,2.3457c-.0869,3.7647,7.3564,2.52,7.2978,7.5879-.0283,2.1719-1.7373,3.8232-4.3437,3.8232A5.6241,5.6241,0,0,1,1243.9988,527.48Z" transform="translate(10.7974 -35.4331)"/><path class="cls-5" d="M673.1668,509.0612v20.5039h-1.1582V511.0593l-3.1856,2.2588-.6084-.9268,4.6631-3.33Z" transform="translate(10.7974 -35.4331)"/><path class="cls-5" d="M677.25,519.4577c0-5.6191,1.7666-10.4258,6.2266-10.4258,4.4306,0,6.2265,4.8067,6.2265,10.4258,0,5.6475-1.7959,10.3965-6.2265,10.3965C679.0164,529.8542,677.25,525.1052,677.25,519.4577Zm11.2949,0c0-4.3154-1.1592-9.2969-5.0683-9.2969s-5.0684,4.9815-5.0684,9.2969,1.1582,9.2676,5.0684,9.2676S688.5447,523.7731,688.5447,519.4577Z" transform="translate(10.7974 -35.4331)"/><path class="cls-5" d="M693.2928,526.321H694.48l-1.2461,6.43h-.8682Z" transform="translate(10.7974 -35.4331)"/><path class="cls-5" d="M697.1434,519.4577c0-5.6191,1.7666-10.4258,6.2265-10.4258,4.4307,0,6.2266,4.8067,6.2266,10.4258,0,5.6475-1.7959,10.3965-6.2266,10.3965C698.91,529.8542,697.1434,525.1052,697.1434,519.4577Zm11.2949,0c0-4.3154-1.1592-9.2969-5.0684-9.2969s-5.0683,4.9815-5.0683,9.2969,1.1582,9.2676,5.0683,9.2676S708.4383,523.7731,708.4383,519.4577Z" transform="translate(10.7974 -35.4331)"/><path class="cls-5" d="M712.6648,519.4577c0-5.6191,1.7666-10.4258,6.2266-10.4258,4.4307,0,6.2266,4.8067,6.2266,10.4258,0,5.6475-1.7959,10.3965-6.2266,10.3965C714.4314,529.8542,712.6648,525.1052,712.6648,519.4577Zm11.295,0c0-4.3154-1.1592-9.2969-5.0684-9.2969s-5.0684,4.9815-5.0684,9.2969,1.1582,9.2676,5.0684,9.2676S723.96,523.7731,723.96,519.4577Z" transform="translate(10.7974 -35.4331)"/><path class="cls-5" d="M728.1863,519.4577c0-5.6191,1.7666-10.4258,6.2266-10.4258,4.4306,0,6.2265,4.8067,6.2265,10.4258,0,5.6475-1.7959,10.3965-6.2265,10.3965C729.9529,529.8542,728.1863,525.1052,728.1863,519.4577Zm11.2949,0c0-4.3154-1.1591-9.2969-5.0683-9.2969s-5.0684,4.9815-5.0684,9.2969,1.1582,9.2676,5.0684,9.2676S739.4812,523.7731,739.4812,519.4577Z" transform="translate(10.7974 -35.4331)"/><path class="cls-5" d="M765.8611,515.0847l-8.7168,20.2724h-1.1591l2.6933-6.2549-6.11-14.0175h1.2451l5.416,12.7421,5.3867-12.7421Z" transform="translate(10.7974 -35.4331)"/><path class="cls-5" d="M768.4666,522.6432a5.94,5.94,0,0,0,6.0234,5.9952,6.6485,6.6485,0,0,0,5.0391-2.23v1.5058a7.515,7.515,0,0,1-5.0391,1.8535c-4.4882,0-7.1826-3.4179-7.1826-7.4433s2.8389-7.4141,6.9219-7.4141c4.1992,0,6.69,3.6485,6.69,7.7324Zm11.208-1.1289c-.3769-2.9834-2.3174-5.4746-5.4453-5.4746a5.7487,5.7487,0,0,0-5.7051,5.4746Z" transform="translate(10.7974 -35.4331)"/><path class="cls-5" d="M797.57,515.0847v14.48h-1.1582V526.09a6.4572,6.4572,0,0,1-5.8506,3.6787c-4.0254,0-6.8349-3.3886-6.8349-7.414,0-4.0547,2.8095-7.4434,6.8349-7.4434a6.4581,6.4581,0,0,1,5.8506,3.6778v-3.5039Zm-1.1582,7.2695a6.0325,6.0325,0,0,0-5.8213-6.3145c-3.3594,0-5.7051,2.8965-5.7051,6.3145s2.3457,6.2842,5.7051,6.2842A6.0061,6.0061,0,0,0,796.4119,522.3542Z" transform="translate(10.7974 -35.4331)"/><path class="cls-5" d="M807.9939,514.9108v1.2168c-2.52-.0879-4.17,2.4033-4.17,5.2989v8.1386h-1.1582v-14.48h1.1582v2.8378A4.5938,4.5938,0,0,1,807.9939,514.9108Z" transform="translate(10.7974 -35.4331)"/><path class="cls-5" d="M809.5857,527.48l.8692-.8116a4.5525,4.5525,0,0,0,3.5615,1.97c1.7383,0,3.1855-1.0137,3.1855-2.6934,0-4.1123-7.3847-2.8389-7.3271-7.56a3.7117,3.7117,0,0,1,3.9678-3.5039,5.7182,5.7182,0,0,1,4.2285,2.0567l-.7529.7812a4.63,4.63,0,0,0-3.4463-1.708,2.6154,2.6154,0,0,0-2.8672,2.3457c-.0869,3.7647,7.3564,2.52,7.2978,7.5879-.0283,2.1719-1.7373,3.8232-4.3437,3.8232A5.6241,5.6241,0,0,1,809.5857,527.48Z" transform="translate(10.7974 -35.4331)"/><path class="cls-6" d="M1310.4826,379.0458V140.0067s-108.7625,0-115.749,0h-91.891a193.1848,193.1848,0,0,1-19.6016-1.3924c-3.1334-.32-6.1014-.8786-9.1847-.2837a51.3522,51.3522,0,0,1-9.153,1.1679c-2.8282.0316-5.6441-.3406-8.4693-.4743-8.5405-.4041-16.837.5879-24.6165,3.9854-3.9185,1.7113-8.0082,3.4915-12.3292,3.783-4.1063.2771-7.7115-.8444-11.7031-1.6417-12.5024-2.5-24.8029,1.41-37.4368,1.3578-5.9748-.0246-12.09-2.0417-17.9916-3.1447-9.07-1.695-17.1309-3.5879-26.4954-2.4481a78.7172,78.7172,0,0,1-9.5642,1.0161c-8.4632-.011-16.2421-4.3891-24.474-6.3539-12.0565-2.8775-24.3824.94-36.5883.776-4.9292-.0661-8.7714-1.4826-13.4221-2.5425-4.5376-1.0341-9.7359-.4356-14.3851-1.0025-4.2916-.5233-8.5255-1.7075-12.8379-2.1535-5.56-.575-11.16-1.15-16.73-.6758-7.356.627-14.4332,1.8975-21.8686,1.463-11.3859-.6653-22.6043-3.8783-33.9511-5.1312a57.7911,57.7911,0,0,0-9.196-.0338,121.157,121.157,0,0,0-13.4733,1.171c-8.3418,1.3563-15.9253,1.5818-24.2293-.224-8.5858-1.8671-16.7237-5.2982-25.1927-7.5827a353.5735,353.5735,0,0,0-34.9994-7.8163c-21.505-3.5144-40.7621-1.7846-62.1641-.0834-21.023,1.6709-47.9881,1.5663-67.9156-4.9494-22.4856-7.3521-46.624-7.3649-69.1378-14.6286-5.1657-1.6666-10.2046-3.7044-15.3891-5.3146-2.34-.7267-4.7092-1.3512-6.9939-2.1408-2.3662-.8178-4.9909-.5331-7.4081-1.1475-1.4185-.3605-2.7522-.9906-4.1373-1.4637a19.4708,19.4708,0,0,0-4.8065-.9875c-1.5922-.1214-3.196-.0465-4.7848-.2051a32.6856,32.6856,0,0,1-4.1907-.791l-5.9776-1.4c4.3857,8.4511,12.58,12.1657,20.99,15.6762,6.5942,2.7526,13.5358,4.7583,19.7425,8.2991a89.9524,89.9524,0,0,1,7.751,5.1621c15.4371,11.0692,29.3972,12.9953,47.8875,15.2243,23.22,2.7991,45.2655,12.2714,68.5172,14.7973,6.813.74,13.7748.894,20.2924,3.0119,7.4093,2.4076,13.4524,5.6027,21.2937,6.4278,8.35.8786,16.8042,1.091,25.1848,1.9309,17.5723,1.7612,35.129,5.0806,51.5557,11.7289,11.6593,4.7189,18.7629,11.0839,27.934,18.7229,9.3857,7.8179,22.2417,9.9874,31.0952,18.7686,11.7765,11.68,28.2077,19.8759,42.44,29.2878a148.1173,148.1173,0,0,1,13.5535,9.7134c5.3636,4.49,10.2156,9.8232,16.572,12.7427,4.2892,1.97,9.0172,2.7189,13.5912,3.8852,15.8313,4.0368,28.1005,13.9519,42.6213,20.5133a233.3168,233.3168,0,0,0,45.1654,15.1986c4.9857,1.1059,55.9533,11.435,55.9533,13.3779,17.37,4.1536,34.7712,8.3132,52.4547,10.8167,8.7745,1.2422,17.7409,2.1088,25.9337,5.487,6.9674,2.8729,13.0808,7.4459,19.6784,11.0886,9.4379,5.2109,19.7948,8.4817,29.8542,12.3591a258.3613,258.3613,0,0,1,52.68,27.6721c6.8113,4.65,14.2515,13.0844,22.1531,15.3489,5.8333,1.6717,12.2254-1.2344,18.7472,1.05,10.66,3.7348,21.3528,7.4835,31.4558,12.5341,12.9382,6.4678,25.07,15.1259,39.1755,18.33,11.3679,2.5827,19.8976,3.7842,29.8807,9.9085,11.6766,7.1633,23.913,13.26,35.3853,20.8385Z" transform="translate(10.7974 -35.4331)"/><path class="cls-7" d="M377.0487,70.9442A18.8629,18.8629,0,0,0,385.4781,81.78a35.7956,35.7956,0,0,0,5.8036,2.5583,469.786,469.786,0,0,0,129.6457,27.3593,469.8787,469.8787,0,0,0,50.0935.7285c14.2384-.5528,28.6309-1.7737,42.8164.1919,13.6735,1.8947,25.14,9.5017,38.5116,12.7164,7.0438,1.6935,14.35,1.8852,21.5921,2.0688,26.664.6762,53.3016,2.1443,79.9076,4.0007,16.7875,1.1714,33.6756.6632,50.4914,1.0075,12.2956.2518,24.7328,1.7908,37.0155,2.6675,14.0587,1.0033,27.5447,3.6309,41.352,6.192,15.2924,2.8366,30.3172,2.7554,45.7768,2.518,8.0432-.1235,16.395-.2591,24.3153,1.2454,8.2185,1.561,16.2809,4.0462,24.6525,4.7133,15.61,1.244,30.9791-3.8454,46.5833-2.5128a325.3038,325.3038,0,0,1,48.3518,8.3012c17.1635,4.168,33.8124,9.2426,51.5474,10.4547a167.7528,167.7528,0,0,0,36.3944-1.4708c12.2069-1.8391,22.5985-4.5534,35.0912-2.8369,15.7672,2.1665,29.6449,11.8559,45.3073,14.6819,21.8632,3.9449,45.4266-5.7593,66.1216,2.32l0-111.1779H525.6028q-4.0931,0-8.1861-.0062c-30.3237-.0416-60.6554-.2654-90.97.6349-5.06.15-49.1321,4.1729-49.6909,1.6742Q376.8835,70.3821,377.0487,70.9442Z" transform="translate(10.7974 -35.4331)"/><path class="cls-8" d="M215.3341,46.59c-3.8126-1.5409-7.6569-2-11.0522-4.7517a15.7154,15.7154,0,0,0,6.6173-.9856c1.68-.6357,2.9984-1.9386,4.79-2.2a30.305,30.305,0,0,1,10.5178.2175c3.91.9294,7.9751-.1729,11.93.0181,2.5562.1235,5.0634.7665,7.6171.9355,3.4523.2286,6.75-1.0485,10.1152-.9612,3.0545.0792,6.1165.5113,9.2352.4513,7.0169-.135,14.1144-.6347,21.054.7083,1.6639.322,3.3166.7238,5.0027.8956,2.0338.2073,4.0849.077,6.129.102a40.3537,40.3537,0,0,1,11.145,1.7144c1.68.5069,3.3287,1.124,5.035,1.5344,13.4961,3.2464,27.1011-2.5129,40.6812-1.2951a47.8139,47.8139,0,0,1,10.8616,2.2173A39.8174,39.8174,0,0,0,375.74,46.7461c2.1178.09,4.2483-.1115,6.3544.1276a56.0494,56.0494,0,0,1,6.9726,1.6642,19.1945,19.1945,0,0,0,3.4818.5918,11.9513,11.9513,0,0,1,2.6425-.0146,28.67,28.67,0,0,0,4.8326,1.39,50.5864,50.5864,0,0,0,5.2753-.0005h10.9546c14.0722,0,29.9132,2.2442,43.3913-1.6475a110.8489,110.8489,0,0,1,16.3144-3.8307c18.9186-2.467,38.4682,4.87,56.9984.3284a11.8476,11.8476,0,0,1,2.9457-.4963,10.4858,10.4858,0,0,1,2.5841.4727c0,2.0071,21.4668,5.1737,24.243,5.1734q13.7029-.0012,27.4059,0H962.7311c84.2293,0,168.5972-14.1481,253.7862-14.47,3.2108-.0121,6.421-.1139,9.63-.2037,15.1345-.4233,30.3374-.8416,45.4319.6248a97.4538,97.4538,0,0,1,21.5455,4.11c2.3581.79,4.83,2.5406,7.1833,3.0719,2.5742.5811,6.1488-.1606,8.7908-.2794,0,19.9517.1952,40.0587-.3217,60.0474-11.65,1.8792-24.6756-.3368-36.4592-.49-12.46-.1624-24.2637,5.9-36.8606,4.0574-3.6221-.53-7.1183-1.6853-10.6716-2.5652-17.6622-4.3737-33.0088-1.3079-50.5581.338-17.9188,1.6806-35.9558,1.29-53.9237.9112l-65.1622-1.3754c-14.1747-.2992-28.0324,3.023-42.0987,4.1428-14.2523,1.1346-27.5275-2.8332-41.6443-3.0389-12.7209-.1853-25.3141,2.6554-38.0452,2.0441-19.1552-.92-37.96-4.4871-57.23-3.1745-20.38,1.3885-41.3679,8.8111-61.4372,12.7051-21.2458,4.1223-42.6919-.6107-64.0117,1.8644-8.8921,1.0323-16.2181,4.3336-24.61,6.8224-13.02,3.8616-28.0169,3.3456-41.488,2.8933-14.07-.4724-27.924-.5053-41.9633-1.4438-14.578-.9747-29.4852-2.1589-44.0653-.5919-13.29,1.4285-26.0295,4.979-39.5414,3.3725-12.7826-1.52-25.256-2.4541-38.3389-3.2128-9.1524-.5308-17.4868,1.8389-26.4351.16-18.5914-3.4874-35.8948-6.6228-54.8039-7.9445-9.92-.6935-19.9812-1.4152-29.3587-4.724-9.3443-3.297-17.7818-9.09-27.4431-11.291-6.111-1.3923-12.5575-1.3039-18.46-3.4119-4.7927-1.7117-8.9618-4.7793-13.0538-7.8051-7.8954-5.8383-15.277-11.3994-24.0618-15.7568-13.7738-6.8321-29.2877-9.9136-43.9493-14.2836-4.94-1.4723-10.0792-1.2657-15.2149-1.4769-1.7152-.0705-3.4336-.1413-5.1342-.3764a53.568,53.568,0,0,1-11.2328-3.2733L243.2482,53.4a24.6508,24.6508,0,0,0-5.7586-1.6269c-3.1363-.3551-6.3169.5022-9.4522.1387-4.3317-.5021-7.9354-3.1751-11.8058-4.9368Q215.7834,46.7707,215.3341,46.59Z" transform="translate(10.7974 -35.4331)"/><path class="cls-9" d="M341.9081,49.6153c-30.6106-.277-61.2136-.8236-91.8214-1.2042C230.6539,48.17,212.2819,43.0728,193.44,40.46l-2.5736-.3569c-7.3412-1.018-14.5471-2.3271-22.0739-2.3271,101.1508,0,202.1737-.46,303.32-.46h810.5112c8.6612,0,17.8879-.6092,26.4734.0679.1818,4.5254-.0069,9.115.0384,13.66-8.5955-1.6031-18.04-2.073-26.9217-2.4737-19.7241-.89-45.8887-2.2218-65.6129-3.1115-9.7823-.4412-19.6248-.8817-29.3694-.1458-8.4455.6378-16.6991,2.1512-25.1055,2.9977-24.3108,2.4478-49.02-.735-73.5907-.6347a158.1646,158.1646,0,0,0-23.3474,1.9035c-7.47,1.1472-12.445,3.2778-19.0728,6.8784a28.3891,28.3891,0,0,0-3.103,1.8608c-1.2575.9078-2.3571,2.015-3.5663,2.9862-6.1851,4.9677-12.9832,4.4267-20.3973,4.2787-4.9416-.0986-9.7312,1.6252-14.6467,2.1414-11.08,1.1636-22.2385-3.8338-33.23-2.0141-2.8207.4669-5.561,1.3771-8.4,1.7158-6.2858.75-12.5354-1.335-18.8471-1.8217-10.8418-.8361-21.856,3.0474-32.4981.8138-9.9657-2.0916-16.5308-10.6257-25.95-12.8218-5.808-1.3542-12.6086-1.2376-18.5775-1.543-20.3827-1.0429-40.5079-3.3653-60.9666-1.1869-15.8929,1.6923-31.8271-.2621-47.7429-.3274a144.065,144.065,0,0,0-22.1079,1.901c-8.2327,1.2266-16.7074.2463-24.9909.4724-10.3517.2825-20.7244.2226-31.08.3186-20.7212.1922-41.4428.3806-62.1615.7694-10.4848.1968-20.9557-1.1436-31.4284-.7443-7.1214.2714-14.2029,1.3461-21.32,1.0234-6.1324-.2781-12.0531-1.5837-18.085-2.391-17.8813-2.3932-35.2333,2.1152-53.1424.33A186.6225,186.6225,0,0,0,459.02,52.03c-6.3105.5595-12.6389,1.4437-18.9809,1.0891-7.8514-.439-15.6147.3546-23.5435-.4427-5.8659-.59-10.8549,1.14-16.64,1.69-9.8326.9345-18.794-1.469-28.1541-2.9816C361.947,49.8085,351.8777,49.7056,341.9081,49.6153Z" transform="translate(10.7974 -35.4331)"/><path class="cls-5" d="M925.4549,225.1745c0,3.0977-2.3164,5.6758-6.4,5.6758h-5.2422V210.5768h4.7207c3.5332,0,5.4453,2.2891,5.4453,4.8946a4.5459,4.5459,0,0,1-2.9834,4.4023A5.1692,5.1692,0,0,1,925.4549,225.1745Zm-10.4834-13.4678v7.8194h3.3594c2.8085,0,4.4882-1.8243,4.4882-4.0547s-1.6211-3.7647-4.4306-3.7647Zm9.3252,13.4678c0-2.6367-1.7666-4.5469-5.126-4.5469h-4.1992v9.0938h4.1992C922.3562,229.7214,924.2967,227.8093,924.2967,225.1745Z" transform="translate(10.7974 -35.4331)"/><path class="cls-5" d="M951.4881,222.7409V230.85h-1.1592v-7.8194c0-3.8232-1.8242-5.7919-4.6045-5.7919-2.6064,0-4.7207,1.9687-4.7207,5.7919V230.85h-1.1582v-23.169h1.1582v11.3526a5.4912,5.4912,0,0,1,4.8369-2.8965C948.91,216.1374,951.4881,218.2526,951.4881,222.7409Z" transform="translate(10.7974 -35.4331)"/><path class="cls-5" d="M954.6707,223.5807a7.3,7.3,0,1,1,7.2988,7.4434A7.2384,7.2384,0,0,1,954.6707,223.5807Zm13.4385-.0292a6.1407,6.1407,0,1,0-12.2793,0,6.1429,6.1429,0,1,0,12.2793,0Z" transform="translate(10.7974 -35.4331)"/><path class="cls-5" d="M978.6209,216.196v1.2168c-2.52-.0879-4.1709,2.4033-4.1709,5.2988V230.85h-1.1582V216.37H974.45v2.8379A4.5938,4.5938,0,0,1,978.6209,216.196Z" transform="translate(10.7974 -35.4331)"/><path class="cls-5" d="M981.6893,212.489a.8687.8687,0,1,1,1.7373,0,.8687.8687,0,1,1-1.7373,0Zm.289,3.8808h1.1592V230.85h-1.1592Z" transform="translate(10.7974 -35.4331)"/><path class="cls-5" d="M997.906,216.7175l-9.2382,13.0039h9.0937V230.85H986.7566v-.4053l9.2383-12.9463h-9.2676V216.37H997.906Z" transform="translate(10.7974 -35.4331)"/><path class="cls-5" d="M999.2664,223.5807a7.3,7.3,0,1,1,7.2988,7.4434A7.2384,7.2384,0,0,1,999.2664,223.5807Zm13.4385-.0292a6.1407,6.1407,0,1,0-12.2793,0,6.1429,6.1429,0,1,0,12.2793,0Z" transform="translate(10.7974 -35.4331)"/><path class="cls-5" d="M1029.53,222.7409V230.85h-1.1592v-7.8194c0-3.8232-1.8242-5.7919-4.6045-5.7919-2.6064,0-4.7207,1.9687-4.7207,5.7919V230.85h-1.1582V216.37h1.1582v2.6641a5.491,5.491,0,0,1,4.8369-2.8965C1026.9519,216.1374,1029.53,218.2526,1029.53,222.7409Z" transform="translate(10.7974 -35.4331)"/><path class="cls-5" d="M916.5447,119.04v8.1387h7.4424v1.1289h-7.4424v8.7471h9.2676v1.13H915.3855V117.9108h10.4268V119.04Z" transform="translate(10.7974 -35.4331)"/><path class="cls-5" d="M951.8455,130.0749v8.1094h-1.1592v-7.82c0-3.8223-1.8242-5.792-4.6045-5.792-2.6064,0-4.7207,1.97-4.7207,5.792v7.82h-1.1582v-23.17h1.1582v11.3536a5.4894,5.4894,0,0,1,4.8369-2.8965C949.2674,123.4714,951.8455,125.5856,951.8455,130.0749Z" transform="translate(10.7974 -35.4331)"/><path class="cls-5" d="M955.0281,130.9147a7.3,7.3,0,1,1,7.2988,7.4434A7.2378,7.2378,0,0,1,955.0281,130.9147Zm13.4385-.0293a6.1407,6.1407,0,1,0-12.2793,0,6.1429,6.1429,0,1,0,12.2793,0Z" transform="translate(10.7974 -35.4331)"/><path class="cls-5" d="M978.9783,123.53v1.2158c-2.52-.0869-4.1709,2.4033-4.1709,5.3v8.1387h-1.1582V123.7038h1.1582v2.8379A4.5925,4.5925,0,0,1,978.9783,123.53Z" transform="translate(10.7974 -35.4331)"/><path class="cls-5" d="M982.0467,119.8229a.8687.8687,0,1,1,1.7373,0,.8687.8687,0,0,1-1.7373,0Zm.289,3.8809h1.1592v14.4805h-1.1592Z" transform="translate(10.7974 -35.4331)"/><path class="cls-5" d="M998.2635,124.0505l-9.2383,13.0039h9.0937v1.13H987.1141v-.4063l9.2382-12.9453h-9.2675v-1.1289h11.1787Z" transform="translate(10.7974 -35.4331)"/><path class="cls-5" d="M999.6238,130.9147a7.3,7.3,0,1,1,7.2989,7.4434A7.2378,7.2378,0,0,1,999.6238,130.9147Zm13.4385-.0293a6.1407,6.1407,0,1,0-12.2793,0,6.1429,6.1429,0,1,0,12.2793,0Z" transform="translate(10.7974 -35.4331)"/><path class="cls-5" d="M1029.8875,130.0749v8.1094h-1.1592v-7.82c0-3.8223-1.8242-5.792-4.6045-5.792-2.6064,0-4.7207,1.97-4.7207,5.792v7.82h-1.1582V123.7038h1.1582v2.6641a5.4894,5.4894,0,0,1,4.8369-2.8965C1027.3094,123.4714,1029.8875,125.5856,1029.8875,130.0749Z" transform="translate(10.7974 -35.4331)"/><path class="cls-5" d="M924.282,90.1218H913.8553l-2.3164,5.59h-1.3037L918.9529,75.12h.2022l8.747,20.5918h-1.3037Zm-.4931-1.1289L919.0682,77.611l-4.7207,11.3819Z" transform="translate(10.7974 -35.4331)"/><path class="cls-5" d="M952.3709,87.6022v8.1094h-1.1592V87.8923c0-3.8233-1.8242-5.792-4.6045-5.792-2.6064,0-4.7207,1.9687-4.7207,5.792v7.8193h-1.1582V72.5427h1.1582V83.8952a5.4913,5.4913,0,0,1,4.8369-2.8965C949.7928,80.9987,952.3709,83.114,952.3709,87.6022Z" transform="translate(10.7974 -35.4331)"/><path class="cls-5" d="M955.5535,88.4421a7.3,7.3,0,1,1,7.2988,7.4433A7.2384,7.2384,0,0,1,955.5535,88.4421Zm13.4385-.0293a6.1407,6.1407,0,1,0-12.2793,0,6.1429,6.1429,0,1,0,12.2793,0Z" transform="translate(10.7974 -35.4331)"/><path class="cls-5" d="M979.5037,81.0573v1.2168c-2.52-.0879-4.1709,2.4033-4.1709,5.2988v8.1387h-1.1582V81.2311h1.1582V84.069A4.594,4.594,0,0,1,979.5037,81.0573Z" transform="translate(10.7974 -35.4331)"/><path class="cls-5" d="M982.5721,77.35a.8687.8687,0,1,1,1.7373,0,.8687.8687,0,1,1-1.7373,0Zm.289,3.8808H984.02V95.7116h-1.1592Z" transform="translate(10.7974 -35.4331)"/><path class="cls-5" d="M998.7889,81.5788l-9.2383,13.0039h9.0937v1.1289H987.6394v-.4053L996.8777,82.36H987.61V81.2311h11.1787Z" transform="translate(10.7974 -35.4331)"/><path class="cls-5" d="M1000.1492,88.4421a7.3,7.3,0,1,1,7.2988,7.4433A7.2384,7.2384,0,0,1,1000.1492,88.4421Zm13.4385-.0293a6.1407,6.1407,0,1,0-12.2793,0,6.1429,6.1429,0,1,0,12.2793,0Z" transform="translate(10.7974 -35.4331)"/><path class="cls-5" d="M1030.4129,87.6022v8.1094h-1.1592V87.8923c0-3.8233-1.8242-5.792-4.6045-5.792-2.6064,0-4.7207,1.9687-4.7207,5.792v7.8193H1018.77V81.2311h1.1582v2.6641a5.4913,5.4913,0,0,1,4.8369-2.8965C1027.8348,80.9987,1030.4129,83.114,1030.4129,87.6022Z" transform="translate(10.7974 -35.4331)"/><path class="cls-5" d="M905.7469,51.79a10.4263,10.4263,0,1,1,10.4267,10.4258A10.22,10.22,0,0,1,905.7469,51.79Zm19.6943,0a9.2676,9.2676,0,1,0-9.2676,9.2969A9.1539,9.1539,0,0,0,925.4412,51.79Z" transform="translate(10.7974 -35.4331)"/><path class="cls-5" d="M952.9207,53.8171v8.1094h-1.1592V54.1071c0-3.8232-1.8242-5.792-4.6045-5.792-2.6064,0-4.7207,1.9688-4.7207,5.792v7.8194h-1.1582V38.7575h1.1582V50.11a5.4914,5.4914,0,0,1,4.8369-2.8964C950.3426,47.2136,952.9207,49.3288,952.9207,53.8171Z" transform="translate(10.7974 -35.4331)"/><path class="cls-5" d="M956.1033,54.6569A7.3,7.3,0,1,1,963.4021,62.1,7.2383,7.2383,0,0,1,956.1033,54.6569Zm13.4385-.0293a6.1407,6.1407,0,1,0-12.2793,0,6.1429,6.1429,0,1,0,12.2793,0Z" transform="translate(10.7974 -35.4331)"/><path class="cls-5" d="M980.0525,47.2722V48.489c-2.5195-.0879-4.17,2.4033-4.17,5.2988v8.1387h-1.1582V47.446h1.1582v2.8379A4.5937,4.5937,0,0,1,980.0525,47.2722Z" transform="translate(10.7974 -35.4331)"/><path class="cls-5" d="M983.1219,43.5651a.8687.8687,0,1,1,1.7373,0,.8687.8687,0,1,1-1.7373,0Zm.289,3.8809H984.57V61.9265h-1.1592Z" transform="translate(10.7974 -35.4331)"/><path class="cls-5" d="M999.3387,47.7936,990.1,60.7975h9.0937v1.129H988.1893v-.4053l9.2382-12.9463H988.16V47.446h11.1787Z" transform="translate(10.7974 -35.4331)"/><path class="cls-5" d="M1000.699,54.6569a7.3,7.3,0,1,1,7.2988,7.4434A7.2383,7.2383,0,0,1,1000.699,54.6569Zm13.4385-.0293a6.1407,6.1407,0,1,0-12.2793,0,6.1429,6.1429,0,1,0,12.2793,0Z" transform="translate(10.7974 -35.4331)"/><path class="cls-5" d="M1030.9627,53.8171v8.1094h-1.1592V54.1071c0-3.8232-1.8242-5.792-4.6045-5.792-2.6064,0-4.7207,1.9688-4.7207,5.792v7.8194H1019.32V47.446h1.1582V50.11a5.4914,5.4914,0,0,1,4.8369-2.8964C1028.3846,47.2136,1030.9627,49.3288,1030.9627,53.8171Z" transform="translate(10.7974 -35.4331)"/></g></g></g></svg>