<svg xmlns="http://www.w3.org/2000/svg" xmlns:xlink="http://www.w3.org/1999/xlink" viewBox="0 0 1378.93 737.12"><defs><style>.cls-1,.cls-33{fill:none;}.cls-2{fill:#3daaa1;}.cls-3{font-size:34.59px;}.cls-3,.cls-9{fill:#fff;font-family:Acre-Thin, Acre;font-weight:200;}.cls-4{letter-spacing:-0.02em;}.cls-5{letter-spacing:-0.01em;}.cls-6{clip-path:url(#clip-path);}.cls-7{fill:#7c7169;}.cls-8{fill:#5b5052;}.cls-9{font-size:35.65px;}.cls-10{letter-spacing:-0.01em;}.cls-11{letter-spacing:-0.02em;}.cls-12{letter-spacing:-0.03em;}.cls-13{fill:#998675;}.cls-14{fill:#775751;}.cls-15{font-size:30px;fill:#5c5052;stroke:#fff;stroke-width:0.25px;font-family:Acre-Light, Acre;font-weight:300;}.cls-15,.cls-33{stroke-miterlimit:10;}.cls-16{letter-spacing:-0.02em;}.cls-17{letter-spacing:-0.01em;}.cls-18{letter-spacing:-0.01em;}.cls-19{letter-spacing:-0.01em;}.cls-20{letter-spacing:-0.02em;}.cls-21{letter-spacing:-0.02em;}.cls-22{letter-spacing:-0.01em;}.cls-23{letter-spacing:-0.03em;}.cls-24{letter-spacing:-0.01em;}.cls-25{letter-spacing:-0.01em;}.cls-26{letter-spacing:-0.02em;}.cls-27{letter-spacing:0em;}.cls-28{letter-spacing:0em;}.cls-29{letter-spacing:-0.01em;}.cls-30{font-size:62.35px;fill:#df6572;font-family:Acre-Regular, Acre;}.cls-31{letter-spacing:-0.02em;}.cls-32{letter-spacing:-0.01em;}.cls-33{stroke:#5d5152;stroke-width:2px;}</style><clipPath id="clip-path" transform="translate(11.3)"><rect class="cls-1" x="0.98" y="256" width="1307" height="468.26"/></clipPath></defs><g id="Layer_2" data-name="Layer 2"><g id="Layer_19" data-name="Layer 19"><rect class="cls-2" x="14.3" y="205" width="1304" height="50.47"/><text class="cls-3" transform="translate(87.88 241.71)"><tspan class="cls-4">f</tspan><tspan x="8.3" y="0">elsic + coa</tspan><tspan class="cls-5" x="177.67" y="0">r</tspan><tspan x="187.35" y="0">se</tspan></text><text class="cls-3" transform="translate(393.28 241.54)"><tspan class="cls-4">m</tspan><tspan x="29.23" y="0">afic + coa</tspan><tspan class="cls-5" x="186.66" y="0">r</tspan><tspan x="196.34" y="0">se</tspan></text><text class="cls-3" transform="translate(1041.69 240.89)"><tspan class="cls-4">m</tspan><tspan x="29.23" y="0">afic + fi</tspan><tspan class="cls-4" x="141.28" y="0">n</tspan><tspan x="160.27" y="0">e</tspan></text><text class="cls-3" transform="translate(736.61 241.97)"><tspan class="cls-4">f</tspan><tspan x="8.3" y="0">elsic + fi</tspan><tspan class="cls-4" x="132.29" y="0">n</tspan><tspan x="151.28" y="0">e</tspan></text><g class="cls-6"><rect class="cls-7" x="13.16" y="255.59" width="1308.5" height="454.53"/><path class="cls-8" d="M1317.82,724.72c-.37-10.91-3.69-20.62-5.62-31.22-3.28-18-15.72-32.84-32.48-43.2-15-9.28-33-13.52-50.51-17.6l-89.79-20.89c-9.22-2.14-18.7-4.4-26.3-9.63-9.67-6.65-15-17.19-20-27.28-10.83-22-21.73-44.17-27.33-67.73-5.79-24.31-5.79-49.46-10.4-74s-14.83-49.57-36.12-65c-11.19-8.1-24.67-13-37.93-17.77-24.27-8.74-49-17.58-75-19.5-16.87-1.25-33.84.46-50.55,2.9-78.12,11.41-155.5,40.52-209.43,93.57-6.6,6.5-13,13.48-21.61,17.59-10.32,4.95-22.46,5.18-34.1,5.29-20.45.21-41.6.16-60.87-7-18.13-6.7-32.66-20.52-51.9-24.89-7.28-1.66-14.85-1.73-22.31-2.45-41.54-4-78.07-30.14-117.08-42.56-9.76-3.11-19.67-5.86-29.12-9.66-17.9-7.21-33.91-18.08-52.17-24.47-11.24-3.93-23.12-6.1-34.48-9.71-16.71-5.31-32-13.67-46.46-22.88-7-4.43-15.1-8.86-20.38-14.82-3.62-4.09-6.37-8.73-9.82-12.93a32.56,32.56,0,0,0-5.44-5.57c-2.78-2.07-6.13-2.73-8.43-5.4-4.44-5.17-13.33-6.78-19.91-8.66a87.7,87.7,0,0,0-23.46-3.74q-10-.08-20.05-.21c-24.24-.31-48.22-1.08-72.44-1.08V419.8l0,115,0,114.76V701c0,5-2.62,19.33,2,22.54,2.22,1.52,6.06,1,8.81,1,9,0,17.91,0,26.86,0H202.35l78.75,0,86.75,0h92.76l96.77,0,98.81,0,98.83,0,96.89,0h92.94l87,0h79.08l69.17,0h137.72Z" transform="translate(11.3)"/><text class="cls-9" transform="matrix(1.09, 0, 0, 1, 1143.33, 694.4)">R la<tspan class="cls-10" x="60.93" y="0">y</tspan><tspan x="77.58" y="0">er</tspan></text><text class="cls-9" transform="matrix(1.09, 0, 0, 1, 1117.67, 553.9)">C <tspan class="cls-11" x="34.94" y="0">h</tspan><tspan x="54.51" y="0">ori</tspan><tspan class="cls-12" x="94.87" y="0">z</tspan><tspan x="109.42" y="0">on</tspan></text><path class="cls-13" d="M376,308.64c-64-18.93-128.07-14.49-195.19-15.82-25.21-.5-50.46-1-75.51-3.67a436.89,436.89,0,0,1-50.84-8.48Q42.11,277.85,30,274.33c-6.63-1.93-16.83-3.4-22.31-7.17-1.07-.73-2.58-1.57-3.69-.89-2.19,1.51-2.06,6-2.21,8.17a31.06,31.06,0,0,0,1,9.47C4,289.26,2,295.59,1.55,301Q.7,310.68.43,320.42a311.28,311.28,0,0,0,1.37,38.5c.37,3.78.9,7.75,2.83,11.17a13.89,13.89,0,0,0,3.68,4c4.83,3.93,8.69,7.28,15.31,8.68A524.37,524.37,0,0,0,124.12,394c18.64.26,37.38-.45,55.85,1.9,19.14,2.43,37.6,8.11,55.92,13.77,36.12,11.15,70.48,22.49,108.32,27.72,69,9.55,137.51,3.28,206.73,8.28,24.13,1.74,48.4,4.17,72.47,1.8,67.88-6.68,91.88-73.78,154.61-86.13a563.29,563.29,0,0,1,183.61-5.5c55.93,7.55,82.76,37.45,94.47,86.24,1.13,4.7,2.4,9.66,6,13.13,4.58,4.37,11.73,5.31,18.33,5.67,44,2.42,90.17-9.56,131.21,5.23,7.67,2.76,14.92,6.4,22.44,9.46,18.92,7.7,67.63,22.48,79,3.66,12.55-20.8,0-67.62.23-91,.11-12.8,9.65-104.23.56-109.22-24.48-13.43-54.94-17.52-83.18-13.79-53.46-3.13-110.29,2.82-163.66,7.06L982.36,279c-7.22.57-14.45,1.15-21.7,1-9.82-.21-19.54-1.74-29.25-3.07-73.06-10-150.93-7.86-216.42,23.48-8.14,3.9-16.1,8.25-24.77,11a146.7,146.7,0,0,1-17.94,4.11c-24.52,4.54-69.91,21.28-92.7,5.43-3.28-2.28-6.2-5.2-10.14-6.29-4.88-1.34-10,.48-14.91,1.87-29.61,8.42-60.4.79-90.59,2.91C435.45,321.5,403.71,316.85,376,308.64Z" transform="translate(11.3)"/><path class="cls-14" d="M1221.76,245.76c-3.44.1-6.87.21-10.31.22-13.93.06-27.88,1.41-41.75,1.41l-205.59,0-317.37-.06c-73.2,0-146.44-.69-219.62-.69l-78.49,0H252.45l-71.55,0c-13.62,0-27.23-.17-40.85-.17l-92.38,0c-10.22,0-47.45-6.15-54.92.41-8.52,7.49-1.13,33.11-.1,43.7.21,2.09.47,4.32,1.82,5.89,1.61,1.87,4.26,2.23,6.68,2.46l68.49,6.6c26.88,2.59,53.78,5.18,80.77,5.76,34.21.72,68.73-1.83,102.76,3,30.31,4.27,60.49,14.49,90.2,22.22,32.71,8.51,66.13,14.16,99.84,15.76,18.29.86,36.31-.57,54.56-.82,14.22-.19,27.32,3.58,41.65,3.05,13.52-.5,26.58-5.72,40.11-6.14,25-.78,45.68.9,70.57-6.52,41.24-12.3,78-29.93,119.41-42.27,32.37-9.64,63.18-6.34,96.4-4.43,30.59,1.75,60.94,2.86,91.53.79,24.7-1.67,49.31-4.51,74-6.27,72.51-5.17,145.08,2,217.67,1.79a380.09,380.09,0,0,0,57.63-4.73c2-.3.87-35.76.87-39.34-13.59,0-26.81-1.14-40.36-1.41-14.3-.28-28.62-.47-42.93-.13Z" transform="translate(11.3)"/><text class="cls-9" transform="matrix(1.09, 0, 0, 1, 1113.21, 374.76)">B <tspan class="cls-11" x="32.41" y="0">h</tspan><tspan x="51.98" y="0">ori</tspan><tspan class="cls-12" x="92.34" y="0">z</tspan><tspan x="106.88" y="0">on</tspan></text><text class="cls-9" transform="matrix(1.09, 0, 0, 1, 1108.29, 286)">A <tspan class="cls-11" x="34.58" y="0">h</tspan><tspan x="54.16" y="0">ori</tspan><tspan class="cls-12" x="94.51" y="0">z</tspan><tspan x="109.06" y="0">on</tspan></text></g><text class="cls-15" transform="translate(46 115.18) rotate(0.01)">t<tspan class="cls-16" x="8.31" y="0">h</tspan><tspan x="24.99" y="0">e fi</tspan><tspan class="cls-17" x="66.99" y="0">n</tspan><tspan x="83.64" y="0">er t</tspan><tspan class="cls-16" x="128.37" y="0">h</tspan><tspan x="145.05" y="0">e particl</tspan><tspan class="cls-18" x="256.91" y="0">e</tspan><tspan x="273.71" y="0">s, t</tspan><tspan class="cls-19" x="309.59" y="0">h</tspan><tspan x="326.27" y="0">e </tspan><tspan class="cls-20" x="353.57" y="0">f</tspan><tspan x="361.28" y="0">a</tspan><tspan class="cls-21" x="379.79" y="0">s</tspan><tspan class="cls-20" x="391.52" y="0">t</tspan><tspan x="399.23" y="0">er t</tspan><tspan class="cls-19" x="443.96" y="0">h</tspan><tspan x="460.64" y="0">e</tspan><tspan class="cls-22" x="477.59" y="0"> </tspan><tspan class="cls-16" x="487.69" y="0">w</tspan><tspan x="511.12" y="0">eat</tspan><tspan class="cls-16" x="554.89" y="0">h</tspan><tspan x="571.57" y="0">eri</tspan><tspan class="cls-19" x="605.17" y="0">n</tspan><tspan x="621.82" y="0">g, but mi</tspan><tspan class="cls-16" x="743.68" y="0">n</tspan><tspan x="760.33" y="0">e</tspan><tspan class="cls-20" x="777.28" y="0">r</tspan><tspan x="785.8" y="0">alog</tspan><tspan class="cls-23" x="847.65" y="0">y</tspan><tspan x="861.72" y="0"> </tspan><tspan class="cls-16" x="872.07" y="0">m</tspan><tspan x="897.84" y="0">at</tspan><tspan class="cls-20" x="924.66" y="0">t</tspan><tspan x="932.37" y="0">e</tspan><tspan class="cls-24" x="949.32" y="0">r</tspan><tspan x="958.14" y="0" xml:space="preserve">s!  silica is o</tspan><tspan class="cls-16" x="1124.45" y="0">n</tspan><tspan x="1141.1" y="0">e </tspan><tspan class="cls-25" x="1168.4" y="0">o</tspan><tspan x="1186.07" y="0">f t</tspan><tspan class="cls-19" x="1213.04" y="0">h</tspan><tspan x="1229.72" y="0">e </tspan><tspan x="23.74" y="50">lea</tspan><tspan class="cls-26" x="65.98" y="50">s</tspan><tspan x="77.71" y="50">t</tspan><tspan class="cls-22" x="86.02" y="50"> </tspan><tspan class="cls-17" x="96.13" y="50">w</tspan><tspan x="119.56" y="50">eat</tspan><tspan class="cls-16" x="163.33" y="50">h</tspan><tspan x="180.01" y="50">e</tspan><tspan class="cls-20" x="196.96" y="50">r</tspan><tspan class="cls-27" x="205.48" y="50">able mi</tspan><tspan class="cls-16" x="310.33" y="50">n</tspan><tspan x="326.98" y="50">e</tspan><tspan class="cls-20" x="343.93" y="50">r</tspan><tspan x="352.45" y="50">als,</tspan><tspan class="cls-22" x="394.95" y="50"> </tspan><tspan class="cls-28" x="405.06" y="50">w</tspan><tspan x="428.79" y="50">hile mi</tspan><tspan class="cls-16" x="521.28" y="50">n</tspan><tspan x="537.93" y="50">e</tspan><tspan class="cls-20" x="554.88" y="50">r</tspan><tspan x="563.4" y="50">als high in i</tspan><tspan class="cls-20" x="724.44" y="50">r</tspan><tspan x="732.95" y="50">on a</tspan><tspan class="cls-16" x="796.97" y="50">n</tspan><tspan x="813.62" y="50">d </tspan><tspan class="cls-16" x="842.48" y="50">m</tspan><tspan x="868.25" y="50">ag</tspan><tspan class="cls-19" x="905.27" y="50">n</tspan><tspan class="cls-18" x="921.92" y="50">e</tspan><tspan x="938.72" y="50">sium</tspan><tspan class="cls-29" x="1001.81" y="50"> </tspan><tspan class="cls-16" x="1011.92" y="50">w</tspan><tspan x="1035.35" y="50">eat</tspan><tspan class="cls-16" x="1079.12" y="50">h</tspan><tspan x="1095.8" y="50">er </tspan><tspan class="cls-20" x="1132.21" y="50">r</tspan><tspan x="1140.73" y="50">eadi</tspan><tspan class="cls-28" x="1202.23" y="50">l</tspan><tspan class="cls-23" x="1208.86" y="50">y</tspan></text><text class="cls-30" transform="translate(25.73 61.47)">pa<tspan class="cls-31" x="76.94" y="0">r</tspan><tspan x="95.52" y="0">ent </tspan><tspan class="cls-32" x="205.82" y="0">m</tspan><tspan x="260.31" y="0">a</tspan><tspan class="cls-31" x="298.78" y="0">t</tspan><tspan x="315.87" y="0">erial</tspan></text><rect class="cls-33" x="12.3" y="1" width="1308" height="724"/></g></g></svg>