<svg xmlns="http://www.w3.org/2000/svg" xmlns:xlink="http://www.w3.org/1999/xlink" viewBox="0 0 1329.9974 519.724"><defs><style>.cls-1{fill:none;}.cls-2{fill:#3daaa1;}.cls-3{fill:#fff;}.cls-4{clip-path:url(#clip-path);}.cls-5{fill:#7c7169;}.cls-6{fill:#5b5052;}.cls-7{fill:#998675;}.cls-8{fill:#775751;}</style><clipPath id="clip-path" transform="translate(12.245)"><rect class="cls-1" x="0.0438" y="51" width="1307" height="468.2624"/></clipPath></defs><g id="Layer_2" data-name="Layer 2"><g id="Layer_19" data-name="Layer 19"><rect class="cls-2" x="14.3043" width="1304" height="50.4709"/><path class="cls-3" d="M80.4108,11.9805V19.418h3.5977v1.35H80.4108V36.7139H79.0275V20.7676H76.8483v-1.35h2.1792v-7.61a2.8681,2.8681,0,0,1,2.94-3.0088,3.2755,3.2755,0,0,1,2.041.6914v1.4873a3.1068,3.1068,0,0,0-1.937-.7959A1.6571,1.6571,0,0,0,80.4108,11.9805Z" transform="translate(12.245)"/><path class="cls-3" d="M87.0861,28.4463c.1729,3.9443,2.9058,7.1611,7.1948,7.1611a7.9415,7.9415,0,0,0,6.0191-2.664v1.7988a8.9731,8.9731,0,0,1-6.0191,2.2139c-5.3613,0-8.5786-4.0821-8.5786-8.89s3.39-8.8555,8.2676-8.8555c5.0156,0,7.9907,4.3575,7.9907,9.2354Zm13.3867-1.3486c-.45-3.5625-2.7671-6.5381-6.5029-6.5381-3.8052,0-6.4341,2.8711-6.8149,6.5381Z" transform="translate(12.245)"/><path class="cls-3" d="M106.592,9.041h1.3838V36.7139H106.592Z" transform="translate(12.245)"/><path class="cls-3" d="M112.6442,34.2227l1.0376-.9678a5.4382,5.4382,0,0,0,4.2549,2.3525c2.0752,0,3.8052-1.2109,3.8052-3.2168,0-4.9121-8.8213-3.3906-8.752-9.0293.0347-2.4218,2.0757-4.15,4.7393-4.1855a6.824,6.824,0,0,1,5.05,2.456l-.8994.9346a5.527,5.527,0,0,0-4.1163-2.041c-1.9375,0-3.39,1.2109-3.4248,2.8008-.104,4.498,8.7862,3.01,8.7173,9.0644-.0346,2.5938-2.0757,4.5655-5.1889,4.5655A6.7142,6.7142,0,0,1,112.6442,34.2227Z" transform="translate(12.245)"/><path class="cls-3" d="M127.7233,14.7832a1.0379,1.0379,0,1,1,2.0757,0,1.0379,1.0379,0,0,1-2.0757,0Zm.3462,4.6348h1.3833V36.7139H128.07Z" transform="translate(12.245)"/><path class="cls-3" d="M134.6056,28.0664a8.5865,8.5865,0,0,1,8.7862-8.8906,8.8072,8.8072,0,0,1,6.019,2.2138v1.8682a7.655,7.655,0,0,0-6.019-2.7324,7.27,7.27,0,0,0-7.4024,7.541,7.27,7.27,0,0,0,7.4024,7.541,7.6557,7.6557,0,0,0,6.019-2.7334v1.8682a8.8068,8.8068,0,0,1-6.019,2.2139A8.5864,8.5864,0,0,1,134.6056,28.0664Z" transform="translate(12.245)"/><path class="cls-3" d="M178.4968,26.9238h-5.9151V32.666h-1.3838V26.9238h-5.8462V25.6094h5.8462v-5.5h1.3838v5.5h5.9151Z" transform="translate(12.245)"/><path class="cls-3" d="M194.0583,28.0664a8.5865,8.5865,0,0,1,8.7861-8.8906,8.8075,8.8075,0,0,1,6.0191,2.2138v1.8682a7.6552,7.6552,0,0,0-6.0191-2.7324,7.27,7.27,0,0,0-7.4023,7.541,7.27,7.27,0,0,0,7.4023,7.541,7.6559,7.6559,0,0,0,6.0191-2.7334v1.8682a8.8071,8.8071,0,0,1-6.0191,2.2139A8.5863,8.5863,0,0,1,194.0583,28.0664Z" transform="translate(12.245)"/><path class="cls-3" d="M212.7687,28.0312a8.7181,8.7181,0,1,1,17.4341,0,8.7187,8.7187,0,1,1-17.4341,0Zm16.0508-.0351a7.3348,7.3348,0,1,0-14.667,0,7.3374,7.3374,0,1,0,14.667,0Z" transform="translate(12.245)"/><path class="cls-3" d="M250.2619,19.418V36.7139h-1.3833V32.5625a7.7136,7.7136,0,0,1-6.9878,4.3936c-4.8081,0-8.1636-4.0479-8.1636-8.8555,0-4.8428,3.3555-8.89,8.1636-8.89a7.7145,7.7145,0,0,1,6.9878,4.3926V19.418Zm-1.3833,8.6826c0-4.082-2.94-7.541-6.9531-7.541s-6.8145,3.459-6.8145,7.541,2.8018,7.5068,6.8145,7.5068S248.8786,32.1816,248.8786,28.1006Z" transform="translate(12.245)"/><path class="cls-3" d="M262.7116,19.2109v1.4522c-3.01-.1035-4.9814,2.8721-4.9814,6.331v9.72h-1.3838V19.418H257.73v3.3906A5.4839,5.4839,0,0,1,262.7116,19.2109Z" transform="translate(12.245)"/><path class="cls-3" d="M264.6125,34.2227l1.0376-.9678a5.4381,5.4381,0,0,0,4.2549,2.3525c2.0752,0,3.8051-1.2109,3.8051-3.2168,0-4.9121-8.8213-3.3906-8.7519-9.0293.0346-2.4218,2.0757-4.15,4.7392-4.1855a6.8238,6.8238,0,0,1,5.05,2.456l-.8994.9346a5.527,5.527,0,0,0-4.1162-2.041c-1.9375,0-3.39,1.2109-3.4248,2.8008-.104,4.498,8.7861,3.01,8.7173,9.0644-.0347,2.5938-2.0757,4.5655-5.189,4.5655A6.7141,6.7141,0,0,1,264.6125,34.2227Z" transform="translate(12.245)"/><path class="cls-3" d="M279.7956,28.4463c.1728,3.9443,2.9057,7.1611,7.1948,7.1611a7.9411,7.9411,0,0,0,6.019-2.664v1.7988a8.9727,8.9727,0,0,1-6.019,2.2139c-5.3618,0-8.5786-4.0821-8.5786-8.89s3.39-8.8555,8.2676-8.8555c5.0156,0,7.9907,4.3575,7.9907,9.2354Zm13.3867-1.3486c-.45-3.5625-2.7671-6.5381-6.5029-6.5381-3.8052,0-6.4341,2.8711-6.815,6.5381Z" transform="translate(12.245)"/><path class="cls-3" d="M408.2253,26.2285l-.0347,10.3086h-1.3833V26.54c0-3.77-1.8682-6.2265-4.9814-6.2265s-4.981,2.456-4.981,6.5732l-.0347,9.65h-1.3838V26.54c0-3.77-1.8681-6.2265-4.9814-6.2265s-4.981,2.456-4.981,6.5732v9.65H384.08V19.2412h1.3838v2.7676a5.6933,5.6933,0,0,1,5.1543-3.044,5.9483,5.9483,0,0,1,5.7422,4.1856,5.8761,5.8761,0,0,1,5.6382-4.1856C405.3888,18.9648,408.2253,21.5586,408.2253,26.2285Z" transform="translate(12.245)"/><path class="cls-3" d="M428.56,19.2412V36.5371h-1.3833v-4.15a7.7141,7.7141,0,0,1-6.9878,4.3926c-4.8081,0-8.1635-4.0469-8.1635-8.8555,0-4.8427,3.3554-8.8906,8.1635-8.8906a7.7133,7.7133,0,0,1,6.9878,4.3936V19.2412Zm-1.3833,8.6826c0-4.082-2.94-7.541-6.9531-7.541s-6.8144,3.459-6.8144,7.541,2.8017,7.5059,6.8144,7.5059S427.1769,32.0059,427.1769,27.9238Z" transform="translate(12.245)"/><path class="cls-3" d="M443.8464,36.5371h-1.3838V20.59h-6.0884V36.5371h-1.3833V20.59h-2.1792V19.2412h2.1792v-7.61a2.8683,2.8683,0,0,1,2.94-3.01,3.2815,3.2815,0,0,1,2.0411.6924v1.4873a3.1,3.1,0,0,0-1.9371-.7949,1.6559,1.6559,0,0,0-1.6606,1.7988v7.4365h7.4722Zm.3457-21.9316a1.0376,1.0376,0,1,1-2.0752,0,1.0376,1.0376,0,0,1,2.0752,0Z" transform="translate(12.245)"/><path class="cls-3" d="M448.9977,27.8887a8.5864,8.5864,0,0,1,8.7862-8.89,8.807,8.807,0,0,1,6.019,2.2139v1.8682a7.6557,7.6557,0,0,0-6.019-2.7334,7.2706,7.2706,0,0,0-7.4024,7.541,7.27,7.27,0,0,0,7.4024,7.541,7.6553,7.6553,0,0,0,6.019-2.7324v1.8681a8.807,8.807,0,0,1-6.019,2.2139A8.5865,8.5865,0,0,1,448.9977,27.8887Z" transform="translate(12.245)"/><path class="cls-3" d="M492.8888,26.748h-5.915V32.49H485.59V26.748h-5.8462V25.4336H485.59v-5.5h1.3838v5.5h5.915Z" transform="translate(12.245)"/><path class="cls-3" d="M508.45,27.8887a8.5863,8.5863,0,0,1,8.7861-8.89,8.8066,8.8066,0,0,1,6.019,2.2139v1.8682a7.6556,7.6556,0,0,0-6.019-2.7334,7.2706,7.2706,0,0,0-7.4023,7.541,7.27,7.27,0,0,0,7.4023,7.541,7.6552,7.6552,0,0,0,6.019-2.7324v1.8681a8.8066,8.8066,0,0,1-6.019,2.2139A8.5865,8.5865,0,0,1,508.45,27.8887Z" transform="translate(12.245)"/><path class="cls-3" d="M527.1608,27.8545a8.7181,8.7181,0,1,1,17.4341,0,8.7187,8.7187,0,1,1-17.4341,0Zm16.0508-.0342a7.3348,7.3348,0,1,0-14.667,0,7.3374,7.3374,0,1,0,14.667,0Z" transform="translate(12.245)"/><path class="cls-3" d="M564.654,19.2412V36.5371h-1.3833v-4.15a7.7143,7.7143,0,0,1-6.9878,4.3926c-4.8081,0-8.1636-4.0469-8.1636-8.8555,0-4.8427,3.3555-8.8906,8.1636-8.8906a7.7135,7.7135,0,0,1,6.9878,4.3936V19.2412Zm-1.3833,8.6826c0-4.082-2.9405-7.541-6.9531-7.541s-6.8145,3.459-6.8145,7.541,2.8018,7.5059,6.8145,7.5059S563.2707,32.0059,563.2707,27.9238Z" transform="translate(12.245)"/><path class="cls-3" d="M577.1032,19.0332v1.4531c-3.0093-.1035-4.981,2.8711-4.981,6.33v9.7207h-1.3837V19.2412h1.3837v3.39A5.4868,5.4868,0,0,1,577.1032,19.0332Z" transform="translate(12.245)"/><path class="cls-3" d="M579.0046,34.0469l1.0376-.9688A5.44,5.44,0,0,0,584.297,35.43c2.0752,0,3.8052-1.2109,3.8052-3.2168,0-4.9121-8.8213-3.39-8.7519-9.0283.0346-2.4209,2.0757-4.1514,4.7392-4.1856a6.83,6.83,0,0,1,5.05,2.4561l-.8994.9336a5.53,5.53,0,0,0-4.1162-2.041c-1.9375,0-3.39,1.2109-3.4248,2.8027-.104,4.4961,8.7861,3.01,8.7173,9.0625-.0347,2.5947-2.0757,4.5664-5.189,4.5664A6.7157,6.7157,0,0,1,579.0046,34.0469Z" transform="translate(12.245)"/><path class="cls-3" d="M594.1877,28.27c.1728,3.9434,2.9057,7.16,7.1948,7.16a7.9406,7.9406,0,0,0,6.019-2.6631v1.7988a8.9771,8.9771,0,0,1-6.019,2.2139c-5.3613,0-8.5786-4.082-8.5786-8.8906s3.39-8.8555,8.2676-8.8555c5.0156,0,7.9907,4.3594,7.9907,9.2363Zm13.3867-1.35c-.45-3.5625-2.7671-6.5371-6.5029-6.5371-3.8052,0-6.4341,2.8711-6.815,6.5371Z" transform="translate(12.245)"/><path class="cls-3" d="M1056.6305,25.5791l-.0351,10.3076h-1.3838V25.8906c0-3.7715-1.8672-6.2265-4.9805-6.2265s-4.9814,2.455-4.9814,6.5722l-.0352,9.65h-1.3828V25.8906c0-3.7715-1.8681-6.2265-4.9814-6.2265s-4.9815,2.455-4.9815,6.5722v9.65h-1.3838V18.5918h1.3838v2.7676a5.6938,5.6938,0,0,1,5.1543-3.0449,5.949,5.949,0,0,1,5.7422,4.1855,5.8783,5.8783,0,0,1,5.6387-4.1855C1053.7936,18.3145,1056.6305,20.9092,1056.6305,25.5791Z" transform="translate(12.245)"/><path class="cls-3" d="M1076.9655,18.5918V35.8867h-1.3838v-4.15a7.7135,7.7135,0,0,1-6.9873,4.3926c-4.8086,0-8.1631-4.0469-8.1631-8.8555,0-4.8418,3.3545-8.89,8.1631-8.89a7.7127,7.7127,0,0,1,6.9873,4.3935V18.5918Zm-1.3838,8.6816c0-4.082-2.94-7.541-6.9531-7.541s-6.8145,3.459-6.8145,7.541,2.8028,7.5069,6.8145,7.5069S1075.5817,31.3555,1075.5817,27.2734Z" transform="translate(12.245)"/><path class="cls-3" d="M1092.2507,35.8867h-1.3838V19.94h-6.0879V35.8867h-1.3838V19.94h-2.1787V18.5918h2.1787v-7.61a2.8688,2.8688,0,0,1,2.94-3.01,3.275,3.275,0,0,1,2.041.6924V10.15a3.1053,3.1053,0,0,0-1.9375-.7949,1.6566,1.6566,0,0,0-1.66,1.7988v7.4375h7.4717Zm.3466-21.9306a1.0381,1.0381,0,0,1-2.0761,0,1.0381,1.0381,0,1,1,2.0761,0Z" transform="translate(12.245)"/><path class="cls-3" d="M1097.403,27.2393a8.5857,8.5857,0,0,1,8.7861-8.89,8.81,8.81,0,0,1,6.0186,2.2129v1.8691a7.6528,7.6528,0,0,0-6.0186-2.7334,7.2707,7.2707,0,0,0-7.4033,7.5411,7.2706,7.2706,0,0,0,7.4033,7.541,7.6528,7.6528,0,0,0,6.0186-2.7334V33.916a8.81,8.81,0,0,1-6.0186,2.2129A8.5857,8.5857,0,0,1,1097.403,27.2393Z" transform="translate(12.245)"/><path class="cls-3" d="M1141.2936,26.0977h-5.915V31.84h-1.3838V26.0977h-5.8457V24.7832h5.8457v-5.5h1.3838v5.5h5.915Z" transform="translate(12.245)"/><path class="cls-3" d="M1167.3356,35.8867h-1.3838V19.94h-6.0879V35.8867H1158.48V19.94h-2.1788V18.5918h2.1788v-7.61a2.8688,2.8688,0,0,1,2.94-3.01,3.2752,3.2752,0,0,1,2.041.6924V10.15a3.1058,3.1058,0,0,0-1.9375-.7949,1.6562,1.6562,0,0,0-1.66,1.7988v7.4375h7.4717Zm.3467-21.9306a1.0381,1.0381,0,0,1-2.0762,0,1.0381,1.0381,0,0,1,2.0762,0Z" transform="translate(12.245)"/><path class="cls-3" d="M1187.6735,26.2012v9.6855H1186.29v-9.34c0-4.5655-2.18-6.918-5.5-6.918-3.1133,0-5.6386,2.3525-5.6386,6.918v9.34h-1.3838V18.5918h1.3838v3.1816a6.5591,6.5591,0,0,1,5.7763-3.4589C1184.5944,18.3145,1187.6735,20.84,1187.6735,26.2012Z" transform="translate(12.245)"/><path class="cls-3" d="M1192.8581,27.6191c.1728,3.9444,2.9062,7.1612,7.1953,7.1612a7.9425,7.9425,0,0,0,6.0195-2.6631V33.916a8.9783,8.9783,0,0,1-6.0195,2.2129c-5.3613,0-8.5781-4.082-8.5781-8.89s3.39-8.8555,8.2666-8.8555c5.0166,0,7.9912,4.3584,7.9912,9.2353Zm13.3877-1.3486c-.45-3.5625-2.7676-6.5381-6.5039-6.5381-3.8047,0-6.4336,2.8711-6.8145,6.5381Z" transform="translate(12.245)"/><path class="cls-3" d="M729.1335,12.2422V19.68h3.5976v1.35h-3.5976V36.9756H727.75V21.0293H725.571V19.68H727.75v-7.61a2.868,2.868,0,0,1,2.94-3.0088,3.2747,3.2747,0,0,1,2.041.6915v1.4873a3.1057,3.1057,0,0,0-1.937-.7959A1.657,1.657,0,0,0,729.1335,12.2422Z" transform="translate(12.245)"/><path class="cls-3" d="M735.8088,28.708c.1728,3.9443,2.9057,7.1611,7.1948,7.1611a7.9414,7.9414,0,0,0,6.019-2.664v1.7988a8.9727,8.9727,0,0,1-6.019,2.2139c-5.3613,0-8.5786-4.0821-8.5786-8.89s3.39-8.8554,8.2676-8.8554c5.0156,0,7.9907,4.3574,7.9907,9.2353Zm13.3867-1.3486c-.45-3.5625-2.7671-6.5381-6.5029-6.5381-3.8052,0-6.4341,2.8711-6.815,6.5381Z" transform="translate(12.245)"/><path class="cls-3" d="M755.3146,9.3027h1.3838V36.9756h-1.3838Z" transform="translate(12.245)"/><path class="cls-3" d="M761.3669,34.4844l1.0376-.9678a5.4381,5.4381,0,0,0,4.2549,2.3525c2.0751,0,3.8051-1.2109,3.8051-3.2168,0-4.9121-8.8213-3.3906-8.7519-9.0293.0346-2.4218,2.0757-4.15,4.7392-4.1855a6.8235,6.8235,0,0,1,5.05,2.4561l-.8994.9345a5.527,5.527,0,0,0-4.1162-2.041c-1.9375,0-3.39,1.2109-3.4248,2.8008-.104,4.498,8.7861,3.01,8.7173,9.0644-.0347,2.5938-2.0757,4.5655-5.189,4.5655A6.7138,6.7138,0,0,1,761.3669,34.4844Z" transform="translate(12.245)"/><path class="cls-3" d="M776.446,15.0449a1.0379,1.0379,0,1,1,2.0757,0,1.0379,1.0379,0,0,1-2.0757,0Zm.3462,4.6348h1.3833V36.9756h-1.3833Z" transform="translate(12.245)"/><path class="cls-3" d="M783.3283,28.3281a8.5865,8.5865,0,0,1,8.7861-8.8906,8.8071,8.8071,0,0,1,6.0191,2.2139V23.52a7.6555,7.6555,0,0,0-6.0191-2.7324,7.27,7.27,0,0,0-7.4023,7.541,7.27,7.27,0,0,0,7.4023,7.541,7.6559,7.6559,0,0,0,6.0191-2.7334v1.8682a8.8071,8.8071,0,0,1-6.0191,2.2139A8.5863,8.5863,0,0,1,783.3283,28.3281Z" transform="translate(12.245)"/><path class="cls-3" d="M827.2194,27.1855h-5.915v5.7422h-1.3838V27.1855h-5.8462V25.8711h5.8462v-5.5h1.3838v5.5h5.915Z" transform="translate(12.245)"/><path class="cls-3" d="M853.2624,36.9756h-1.3838V21.0293H845.79V36.9756h-1.3833V21.0293h-2.1792V19.68h2.1792v-7.61a2.8681,2.8681,0,0,1,2.94-3.0088,3.2749,3.2749,0,0,1,2.041.6915v1.4873a3.1062,3.1062,0,0,0-1.937-.7959,1.657,1.657,0,0,0-1.6607,1.7988V19.68h7.4722Zm.3457-21.9307a1.0376,1.0376,0,0,1-2.0752,0,1.0376,1.0376,0,1,1,2.0752,0Z" transform="translate(12.245)"/><path class="cls-3" d="M873.5993,27.29v9.6856h-1.3838v-9.34c0-4.5654-2.18-6.9189-5.5-6.9189-3.1133,0-5.6387,2.3535-5.6387,6.9189v9.34H859.693V19.68h1.3838v3.1826a6.5582,6.5582,0,0,1,5.7764-3.46C870.52,19.4023,873.5993,21.9277,873.5993,27.29Z" transform="translate(12.245)"/><path class="cls-3" d="M878.7839,28.708c.1728,3.9443,2.9062,7.1611,7.1953,7.1611a7.9433,7.9433,0,0,0,6.0195-2.664v1.7988a8.9742,8.9742,0,0,1-6.0195,2.2139c-5.3614,0-8.5781-4.0821-8.5781-8.89s3.39-8.8554,8.2666-8.8554c5.0166,0,7.9912,4.3574,7.9912,9.2353Zm13.3877-1.3486c-.45-3.5625-2.7676-6.5381-6.5039-6.5381-3.8047,0-6.4336,2.8711-6.8145,6.5381Z" transform="translate(12.245)"/><g class="cls-4"><rect class="cls-5" x="13.1597" y="50.594" width="1308.4987" height="454.5336"/><path class="cls-6" d="M1316.8766,519.724c-.3627-10.9132-3.6843-20.6189-5.6142-31.2213-3.281-18.0246-15.7229-32.8386-32.4871-43.2014-15.0114-9.2794-32.9544-13.52-50.5043-17.6019l-89.7957-20.8879c-9.2134-2.1432-18.6951-4.4012-26.297-9.6318-9.6657-6.6508-15.013-17.1858-19.9863-27.2823-10.8282-21.9828-21.73-44.1657-27.3366-67.7311-5.7819-24.3017-5.7821-49.4591-10.3916-73.97s-14.8327-49.5686-36.1287-64.9851c-11.1852-8.0973-24.6644-12.9873-37.93-17.7665-24.2666-8.7428-48.97-17.5813-74.9594-19.5066-16.8667-1.2495-33.8319.4587-50.5424,2.9006-78.1267,11.4167-155.5047,40.52-209.43,93.5765-6.6029,6.4964-13.0352,13.4711-21.6174,17.5886-10.3131,4.948-22.4532,5.1744-34.0933,5.2909-20.4554.2046-41.6006.1567-60.869-6.9627-18.1363-6.7011-32.6591-20.52-51.8992-24.893-7.2827-1.6549-14.8589-1.7309-22.3186-2.4471-41.5337-3.9875-78.0634-30.1432-117.079-42.5647-9.7541-3.1054-19.6632-5.8563-29.1182-9.66-17.9006-7.202-33.9067-18.0713-52.169-24.4652-11.235-3.9335-23.116-6.0965-34.48-9.7063-16.7149-5.31-31.99-13.673-46.4626-22.8822-6.9692-4.4347-15.0979-8.8606-20.3777-14.8263-3.6162-4.086-6.369-8.7278-9.8158-12.925a32.4722,32.4722,0,0,0-5.4423-5.57c-2.782-2.073-6.1329-2.7277-8.4289-5.3989-4.4461-5.1728-13.3359-6.7785-19.9117-8.6632a87.6561,87.6561,0,0,0-23.4586-3.74q-10.0273-.0782-20.0541-.2119c-24.2337-.309-48.2146-1.072-72.4416-1.0766l-.0018,9.878-.0111,59.1771-.0181,96.4413-.0215,114.9679-.0215,114.7568-.01,51.4437c-.001,4.9668-2.6267,19.3269,2.02,22.53,2.2169,1.5283,6.0606.9757,8.8068.9827,8.9534.0227,17.9073.0034,26.8608.005l42.819.0081,56.7871.0106,68.7648.0129,78.7524.0147,86.75.0163,92.757.0173,96.7739.0182,98.8006.0185,98.8372.0185,96.8835.0181,92.94.0174,87.0055.0163,79.0813.0148,69.1667.013,57.262.0107,43.3671.0081,27.4819.0052Z" transform="translate(12.245)"/><path class="cls-3" d="M1148.5842,489.4023l-7.0376-10.4492a5.48,5.48,0,0,1-.7784.0352l-4.3169-.001-.0019,10.4131-1.5562-.001.0044-24.9619,5.9121.002c5.4844,0,8.8677,3.1748,8.8667,7.2753,0,3.4952-2.4516,6.3116-6.5742,7.0606l7.31,10.6269Zm-7.6211-11.8046c4.2006,0,7.1181-2.3887,7.1186-5.8829s-2.9155-5.8847-7.1162-5.8847l-4.5117-.002-.0025,11.7686Z" transform="translate(12.245)"/><path class="cls-3" d="M1168.5832,460.8779l1.5556.001-.0053,28.5273h-1.5557Z" transform="translate(12.245)"/><path class="cls-3" d="M1194.1349,471.58l-.0034,17.83h-1.5556l0-4.2793a8.7624,8.7624,0,0,1-7.8579,4.5273,9.1466,9.1466,0,1,1,.0039-18.293,8.7624,8.7624,0,0,1,7.856,4.53l.001-4.3154Zm-1.5576,8.9511a7.7273,7.7273,0,0,0-7.8164-7.7753,7.7564,7.7564,0,0,0-.0029,15.5117A7.6964,7.6964,0,0,0,1192.5773,480.5312Z" transform="translate(12.245)"/><path class="cls-3" d="M1215.7619,471.585l-11.7119,24.96h-1.5562l3.6187-7.7021-8.2031-17.2608h1.6723l7.27,15.6914,7.2378-15.6894Z" transform="translate(12.245)"/><path class="cls-3" d="M1219.2619,480.8926c.1933,4.0654,3.2656,7.3828,8.0884,7.3828a9.2964,9.2964,0,0,0,6.768-2.7442l-.0005,1.8545a10.64,10.64,0,0,1-6.768,2.28c-6.0288,0-9.645-4.209-9.6441-9.166a9.049,9.049,0,0,1,9.2979-9.127c5.64.001,8.9839,4.4952,8.9829,9.5235Zm15.0522-1.3877c-.5048-3.6729-3.11-6.74-7.311-6.7412a7.4566,7.4566,0,0,0-7.6636,6.7383Z" transform="translate(12.245)"/><path class="cls-3" d="M1248.3581,471.377l0,1.498c-3.3843-.1074-5.6016,2.959-5.6025,6.5244l-.0015,10.02h-1.5557l.0034-17.83h1.5557l-.001,3.4942A6.1453,6.1453,0,0,1,1248.3581,471.377Z" transform="translate(12.245)"/><path class="cls-3" d="M1108.111,336.416c.0015-6.918,5.4478-12.8369,13.81-12.8359a14.4188,14.4188,0,0,1,6.1064,1.2148l0,1.461a12.59,12.59,0,0,0-6.1059-1.32c-7.2344-.0019-12.2525,5.2754-12.2539,11.4805s5.0151,11.4824,12.2495,11.4844a12.5924,12.5924,0,0,0,6.1064-1.3184v1.4629a14.4412,14.4412,0,0,1-6.1069,1.211C1113.5539,349.2539,1108.11,343.334,1108.111,336.416Z" transform="translate(12.245)"/><path class="cls-3" d="M1162.6042,338.9219l-.002,9.9843h-1.5561l.0019-9.6269c.001-4.708-2.4487-7.1328-6.1826-7.1348-3.5,0-6.34,2.4239-6.3413,7.1319l-.002,9.6279h-1.5556l.0054-28.5283,1.5556.001-.0024,13.9785a7.4778,7.4778,0,0,1,6.4961-3.5655C1159.1437,330.791,1162.6052,333.3945,1162.6042,338.9219Z" transform="translate(12.245)"/><path class="cls-3" d="M1166.884,339.957c.0009-4.8847,3.9687-9.1289,9.8032-9.1269s9.8008,4.2451,9.8,9.1308c-.001,4.92-3.9693,9.1641-9.8032,9.1621S1166.883,344.8779,1166.884,339.957Zm18.0473-.0322c.0005-4.1367-3.3432-7.7031-8.2441-7.7041-4.8618-.001-8.2466,3.5645-8.2471,7.7012a8.2578,8.2578,0,0,0,16.4912.0029Z" transform="translate(12.245)"/><path class="cls-3" d="M1199.0524,330.8691v1.4981c-3.3838-.1074-5.6011,2.959-5.602,6.5254l-.002,10.0195h-1.5557l.0035-17.83h1.5556l-.0005,3.4951A6.1438,6.1438,0,0,1,1199.0524,330.8691Z" transform="translate(12.245)"/><path class="cls-3" d="M1203.1774,326.3066a1.1711,1.1711,0,0,1,2.3335,0,1.1712,1.1712,0,0,1-2.3335,0Zm.3877,4.7774,1.5562.001-.0035,17.83-1.5561-.0009Z" transform="translate(12.245)"/><path class="cls-3" d="M1224.9577,331.5166l-12.41,16.0088,12.2129.0019,0,1.3907-14.78-.002v-.499l12.4106-15.9385-12.4463-.0019v-1.3907l15.0132.002Z" transform="translate(12.245)"/><path class="cls-3" d="M1226.7848,339.9688c.001-4.8858,3.9688-9.129,9.8033-9.127,5.8339,0,9.8007,4.2451,9.8,9.1309-.001,4.92-3.9693,9.163-9.8033,9.1621S1226.7839,344.8887,1226.7848,339.9688Zm18.0474-.0333c0-4.1367-3.3433-7.7031-8.2441-7.7031-4.8619-.0019-8.2466,3.5645-8.2471,7.7012a8.2578,8.2578,0,0,0,16.4912.0019Z" transform="translate(12.245)"/><path class="cls-3" d="M1267.4313,338.9414l-.0019,9.9854-1.5562-.001.002-9.627c.0009-4.708-2.4488-7.1328-6.1826-7.1338-3.5005-.0009-6.34,2.4229-6.3414,7.1309l-.0019,9.6279h-1.5557l.0034-17.83h1.5557l0,3.2812a7.4771,7.4771,0,0,1,6.4961-3.5645C1263.9709,330.8105,1267.4323,333.4141,1267.4313,338.9414Z" transform="translate(12.245)"/><path class="cls-7" d="M375.022,103.6357C311.0571,84.708,246.9476,89.148,179.8317,87.8173c-25.2105-.5-50.4656-1.0024-75.5135-3.67A435.5509,435.5509,0,0,1,53.48,75.6661Q41.1644,72.853,29.0584,69.3326c-6.6327-1.9291-16.827-3.399-22.3124-7.1717-1.0613-.73-2.5806-1.5655-3.6825-.888-2.1894,1.5045-2.0629,6.0015-2.2128,8.17a30.8627,30.8627,0,0,0,.9666,9.469C3.0237,84.2567,1.0956,90.586.6141,95.9792Q-.2518,105.6812-.51,115.418A310.8106,310.8106,0,0,0,.858,153.9251c.37,3.78.9027,7.7471,2.8325,11.1634a13.9529,13.9529,0,0,0,3.6817,4.0434c4.8271,3.9262,8.6828,7.2777,15.3062,8.6753a523.9431,523.9431,0,0,0,100.4976,11.2c18.6416.2685,37.3827-.45,55.85,1.8991,19.1477,2.4357,37.5994,8.1191,55.92,13.7735,36.1288,11.1509,70.4846,22.4879,108.3245,27.7231,69.0052,9.5468,137.5114,3.2824,206.7319,8.2777,24.1279,1.7412,48.4,4.1662,72.4645,1.8,67.8839-6.6749,91.8862-73.7811,154.6132-86.1327a563.6614,563.6614,0,0,1,183.6147-5.5c55.9263,7.5522,82.7588,37.4566,94.4625,86.2411,1.1282,4.7024,2.401,9.6609,6.0417,13.1319,4.5786,4.3652,11.7325,5.3057,18.3269,5.6683,44.0139,2.4207,90.1783-9.5568,131.2153,5.228,7.6654,2.7616,14.9154,6.3995,22.4434,9.4625,18.9171,7.697,67.6226,22.4853,78.9763,3.6593,12.5455-20.8021.0333-67.6215.23-90.96.1078-12.7974,9.6461-104.2316.5572-109.22-24.4768-13.4329-54.94-17.52-83.1772-13.7905-53.4624-3.1332-110.2906,2.8255-163.6625,7.0579L981.42,74.0428a217.13,217.13,0,0,1-21.6958.9936c-9.82-.2057-19.54-1.74-29.2547-3.07-73.0632-10.0018-150.9325-7.8511-216.4167,23.4861-8.1455,3.898-16.0989,8.2439-24.7754,11.0175a146.3076,146.3076,0,0,1-17.9354,4.1077c-24.5224,4.5445-69.9137,21.2781-92.7059,5.43-3.2708-2.2743-6.1986-5.2019-10.1311-6.2827-4.8852-1.3427-10.0436.4774-14.9143,1.8634-29.6069,8.425-60.4007.79-90.5908,2.91C434.5141,116.4976,402.7691,111.8464,375.022,103.6357Z" transform="translate(12.245)"/><path class="cls-8" d="M1220.8169,40.76c-3.4341.0989-6.8692.2112-10.3049.224-13.9309.0519-27.88,1.4082-41.7509,1.4056l-205.5889-.0385-317.374-.0595C572.5973,42.278,499.36,41.5993,426.1846,41.6L347.69,41.5848l-96.1836-.018-71.5488-.0134c-13.62-.0025-27.2256-.1715-40.8524-.174l-92.38-.0173c-10.2127-.002-47.45-6.1509-54.9167.4133-8.5156,7.4868-1.1338,33.1007-.0957,43.6982.2042,2.0848.4694,4.3194,1.8136,5.8847,1.6116,1.8768,4.2678,2.2309,6.6815,2.4635L68.7,100.4224c26.8777,2.59,53.7834,5.1822,80.7714,5.7559,34.2114.7273,68.7307-1.8311,102.7583,2.96,30.3141,4.2684,60.492,14.4944,90.2,22.2213,32.7119,8.508,66.1268,14.1609,99.841,15.7588,18.29.8669,36.31-.5687,54.5562-.8163,14.222-.193,27.3207,3.5819,41.6488,3.0491,13.5243-.503,26.5843-5.7215,40.1112-6.1435,25.0385-.7811,45.68.9057,70.5725-6.5184,41.236-12.2984,78.0144-29.9322,119.4116-42.264,32.3675-9.6419,63.1767-6.3494,96.4015-4.4354,30.5847,1.7471,60.9351,2.8588,91.5308.7914,24.6994-1.669,49.3077-4.5112,74.0022-6.272,72.5184-5.1695,145.0835,2.0428,217.6731,1.7933a381.4078,381.4078,0,0,0,57.6281-4.73c1.9529-.3058.8691-35.7659.8692-39.3406-13.5879-.0026-26.8022-1.1418-40.3514-1.4085-14.3084-.2816-28.623-.4775-42.9321-.1315Q1222.1047,40.7231,1220.8169,40.76Z" transform="translate(12.245)"/><path class="cls-3" d="M1120.4118,162.7734c-.001,3.8164-3.1128,6.9883-8.5972,6.9883l-7.04-.0019.0049-24.961h6.34c4.7451.002,7.312,2.8194,7.311,6.0283a5.6261,5.6261,0,0,1-4.0073,5.419A6.5528,6.5528,0,0,1,1120.4118,162.7734Zm-1.5557,0c.0005-3.2451-2.3716-5.6-6.8833-5.6l-5.64-.0019-.002,11.1972,5.64.002C1116.2492,168.3711,1118.8552,166.0186,1118.8561,162.7734Zm-12.521-16.5839-.0019,9.6279,4.5117.001c3.7725,0,6.0288-2.2461,6.0293-4.9922s-2.1768-4.6358-5.95-4.6367Z" transform="translate(12.245)"/><path class="cls-3" d="M1155.3805,159.7852l-.0019,9.9843h-1.5562l.002-9.6279c.001-4.708-2.4492-7.1328-6.1831-7.1338-3.5005,0-6.34,2.4238-6.3408,7.1309l-.002,9.6289-1.5557-.001.0054-28.5283,1.5557.001-.0025,13.9785a7.4815,7.4815,0,0,1,6.4961-3.5655C1151.92,151.6543,1155.3815,154.2578,1155.3805,159.7852Z" transform="translate(12.245)"/><path class="cls-3" d="M1159.66,160.82c.001-4.8857,3.9693-9.1289,9.8038-9.1269,5.8339,0,9.8,4.2451,9.7993,9.1308,0,4.92-3.9688,9.1631-9.8028,9.1621S1159.6594,165.74,1159.66,160.82Zm18.0474-.0332c.001-4.1367-3.3433-7.7031-8.2441-7.7031-4.8619-.002-8.2461,3.5644-8.2471,7.7012a8.2578,8.2578,0,0,0,16.4912.0019Z" transform="translate(12.245)"/><path class="cls-3" d="M1191.8288,151.7324l-.0005,1.4981c-3.3838-.1075-5.6011,2.959-5.6016,6.5244l-.0019,10.02h-1.5557l.0034-17.83h1.5557l-.0005,3.4942A6.1438,6.1438,0,0,1,1191.8288,151.7324Z" transform="translate(12.245)"/><path class="cls-3" d="M1195.9538,147.1689a1.1711,1.1711,0,0,1,2.3335.001,1.1711,1.1711,0,0,1-2.3335-.001Zm.3877,4.7784h1.5561l-.0034,17.83h-1.5561Z" transform="translate(12.245)"/><path class="cls-3" d="M1217.7341,152.38l-12.41,16.0088,12.2129.0019-.0005,1.3906-14.78-.0019v-.5l12.41-15.9375-12.4463-.002.0005-1.3906,15.0132.002Z" transform="translate(12.245)"/><path class="cls-3" d="M1219.5607,160.8311c.001-4.8858,3.9693-9.128,9.8037-9.127s9.8,4.2451,9.7993,9.1309c0,4.9209-3.9687,9.163-9.8027,9.163C1223.5265,169.9961,1219.56,165.752,1219.5607,160.8311Zm18.0474-.0323c.001-4.1367-3.3433-7.7031-8.2442-7.7041-4.8618-.0009-8.2461,3.5645-8.247,7.7012a8.2577,8.2577,0,0,0,16.4912.0029Z" transform="translate(12.245)"/><path class="cls-3" d="M1260.2077,159.8047l-.002,9.9844H1258.65l.0019-9.628c.001-4.708-2.4492-7.1318-6.1831-7.1338-3.5,0-6.34,2.4239-6.3408,7.1319l-.0019,9.6279H1244.57l.0034-17.83h1.5557l-.0005,3.2813a7.4769,7.4769,0,0,1,6.4961-3.5654C1256.7472,151.6738,1260.2087,154.2773,1260.2077,159.8047Z" transform="translate(12.245)"/><path class="cls-3" d="M1115.1,74.1221l-14.0025-.003-3.1123,6.8819-1.75-.001,11.712-25.3516h.2719l11.7422,25.3575-1.7505-.001Zm-.6612-1.3916-6.3374-14.0157-6.3422,14.0137Z" transform="translate(12.245)"/><path class="cls-3" d="M1152.83,71.0264l-.0014,9.9853h-1.5562l.0015-9.6289c.001-4.707-2.4487-7.1328-6.1826-7.1328-3.5005-.001-6.34,2.4238-6.3413,7.1309l-.0015,9.6279-1.5557-.001.0054-28.5273h1.5557l-.003,13.9785a7.4823,7.4823,0,0,1,6.4966-3.5645C1149.37,62.8955,1152.8317,65.499,1152.83,71.0264Z" transform="translate(12.245)"/><path class="cls-3" d="M1157.11,72.0615c.001-4.8857,3.9693-9.1279,9.8037-9.1269s9.8,4.2451,9.7994,9.1308c-.001,4.9209-3.9693,9.1631-9.8033,9.1631C1161.0754,81.2266,1157.1091,76.9824,1157.11,72.0615Zm18.0474-.0322c.001-4.1367-3.3433-7.7031-8.2441-7.7041-4.8619-.001-8.2461,3.5644-8.2471,7.7012a8.2577,8.2577,0,0,0,16.4912.0029Z" transform="translate(12.245)"/><path class="cls-3" d="M1189.28,62.9746l-.0005,1.4981c-3.3843-.1084-5.6016,2.958-5.6026,6.5234l-.0014,10.0215h-1.5557l.0029-17.83h1.5557l0,3.4941A6.1422,6.1422,0,0,1,1189.28,62.9746Z" transform="translate(12.245)"/><path class="cls-3" d="M1193.4035,58.41a1.1712,1.1712,0,0,1,2.3335.0009,1.1711,1.1711,0,0,1-2.3335-.0009Zm.3877,4.7793h1.5561l-.0029,17.83h-1.5561Z" transform="translate(12.245)"/><path class="cls-3" d="M1215.1838,63.6211l-12.41,16.01,12.2129.0019v1.3906l-14.78-.0029v-.499l12.41-15.9375-12.4463-.002V63.19l15.0132.003Z" transform="translate(12.245)"/><path class="cls-3" d="M1217.0109,72.0723c.001-4.8848,3.9693-9.127,9.8037-9.127,5.834.002,9.8,4.2461,9.7993,9.1309-.0009,4.9218-3.9692,9.164-9.8032,9.1631S1217.01,76.9941,1217.0109,72.0723Zm18.0474-.0313c.001-4.1367-3.3433-7.7031-8.2442-7.7051-4.8618,0-8.2461,3.5645-8.247,7.7012a8.2578,8.2578,0,0,0,16.4912.0039Z" transform="translate(12.245)"/><path class="cls-3" d="M1257.6574,71.0469l-.0015,9.9843H1256.1l.0014-9.6289c.001-4.707-2.4487-7.1318-6.1826-7.1328-3.5,0-6.34,2.4239-6.3413,7.1309l-.0014,9.6289-1.5557-.001.0029-17.83,1.5557.001-.0005,3.28a7.4827,7.4827,0,0,1,6.4966-3.5654C1254.1974,62.916,1257.6589,65.5195,1257.6574,71.0469Z" transform="translate(12.245)"/></g></g></g></svg>