<svg xmlns="http://www.w3.org/2000/svg" xmlns:xlink="http://www.w3.org/1999/xlink" viewBox="0 0 1308 626.5241"><defs><style>.cls-1,.cls-10,.cls-12,.cls-13,.cls-18,.cls-5,.cls-9{fill:none;}.cls-2{clip-path:url(#clip-path);}.cls-3{fill:#b78f6a;}.cls-4{fill:#754c24;}.cls-5{stroke:#3daaa1;stroke-linejoin:round;stroke-width:7.2423px;}.cls-6{fill:#7c7169;}.cls-7{fill:#fff;}.cls-8{fill:#ffcf01;}.cls-9{stroke:#fff;stroke-width:0.6595px;}.cls-10,.cls-12,.cls-13,.cls-18,.cls-21,.cls-9{stroke-miterlimit:10;}.cls-10,.cls-12,.cls-13{stroke:#ec6a7c;}.cls-10{stroke-width:1.7401px;}.cls-11{fill:#ec6a7c;}.cls-12{stroke-width:1.7588px;}.cls-13{stroke-width:1.3611px;}.cls-14{fill:#ffce01;}.cls-15,.cls-19{fill:#3daaa1;}.cls-15{opacity:0.33;}.cls-16{fill:#3eaca2;}.cls-17{fill:#ececec;}.cls-18{stroke:#5c5052;stroke-linecap:round;stroke-width:1.0836px;}.cls-20{fill:#ec6b7c;}.cls-21{fill:#df6572;stroke:#df6572;stroke-width:1.0196px;}</style><clipPath id="clip-path" transform="translate(7 -38.822)"><rect class="cls-1" width="1297" height="665.3493"/></clipPath></defs><g id="Layer_2" data-name="Layer 2"><g id="Layer_19" data-name="Layer 19"><g class="cls-2"><path class="cls-3" d="M2.5961,292.6372c4.4749.2478,8.9683.4868,13.4494.2932,5.3338-.23,10.6353-1.0426,15.9795-1.082a741.01,741.01,0,0,1,119.82,8.86q21.9492,3.4323,43.62,8.1817c27.0212,5.9247,53.887,13.4664,78.0947,25.94,58.48,30.1336,95.7892,85.7068,149.46,122.57,36.7456,25.2379,80.0645,40.97,122.8068,56.4122l185.8142,67.13c80.7706,29.1806,161.8612,58.4321,245.7139,78.8281h306.9739a62.0514,62.0514,0,0,1,12.81,1.3326,893.0917,893.0917,0,0,0-4.3182-118.73c-.6154-5.9484-1.4209-12.2122-5.3158-17.01-6.7418-8.3045-19.7646-9.118-31.0757-9.1813l-76.1318-.4256c-123.1409-.6886-247.9053-1.57-366.7771-30.967C700.04,456.7251,594.3811,402.6253,508.9143,328.8242c-53.12-45.869-99.5289-99.8663-162.796-133.2823-42.0685-22.22-89.683-33.9083-137.6822-39.09-12.0625-1.3022-24.1408-1.9677-36.2469-2.7773-11.33-.7578-22.0488-4.2916-33.37-6.003-24.3573-3.6819-49.181-3.3258-73.7809-2.9641-21.5321.3166-43.1924.4579-64.7275.4579,0,37.4393-.4872,74.9494-.4872,112.4352,0,8.4371-.43,16.8626-.43,25.3011q0,3.2358,0,6.4714C-.6072,291.9667-.42,292.4705,2.5961,292.6372Z" transform="translate(7 -38.822)"/><path class="cls-4" d="M2.5278,121.083c3.4446,9.5342.9074,22.6325.9074,32.7,45.3732,0,90.1549-7.1777,135.048,1.9018,25.4295,5.143,52.721,4.7943,78.6824,9.22,53.2951,9.0856,104.6865,27.3616,148.43,56.9765a458.4394,458.4394,0,0,1,65.8831,54.73c17.5706,17.46,34.6058,35.3874,53.04,52.104,82.3176,74.65,184.69,129.5934,294.8023,162.351,24.4065,7.2607,46.3524,9.1885,66.9307,23.7954,25.475,18.0827,58.09,25.2126,89.8876,30.14,15.9872,2.4773,29.1108,10.8949,44.9154,13.7145,3.2328.5768,6.511.9084,9.7847,1.2393l10.1232,1.0235c24.1753,2.444,47.5789-2.7594,71.5042-1.2351,28.8259,1.8366,55.64,13.1379,85.0627,12.7553,31.619-.4114,62.0569-11.2306,93.825-5.5223,10.8038,1.9413,33.3323,8.8626,42.9062.8968,5.8313-4.8519,4.5446-17.3725,5.2554-24.1913,1.186-11.3787,1.3025-25.5572-6.4635-35.2188-3.5969-4.4749-6.3894-5.3288-10.2281-7.07-4.46-2.0232-11.3678-.8651-15.8678-.7863-10.8928.19-21.7341-.609-32.58-.66-85.52-.3982-171.0017-1.9194-256.3355-7.43-50.7952-3.28-101.5122-9.0509-151.1074-19.7947a781.66,781.66,0,0,1-152.125-49.2507c-25.2558-11.2344-49.21-24.4223-72.5785-38.6286-30.7861-18.7153-63.713-37.0149-91.6093-59.2542-9.7887-7.8037-18.0543-17.0291-26.6548-25.88-12.5645-12.93-23.4024-27.1467-35.4228-40.4838-14.4817-16.0682-31.9674-29.0194-48.0878-43.6172-26.9845-24.4358-55.0217-44.7734-90.1787-58.5866-34.44-13.5316-71.2811-21.1-108.12-26.8152-35.0275-5.434-70.2189-9.827-105.71-11.7025-11.4365-.6043-22.6229.7689-34.03,1.1108C42.8646,120.2016,21.7944,118.6206,2.5278,121.083Z" transform="translate(7 -38.822)"/><path class="cls-5" d="M1284.3283,659.7705a62.5187,62.5187,0,0,1,10.2429.8509c.0346-2.5667.0619-4.3274.066-4.7984.3093-38.9329.7636-77.9188.7636-116.7971,0-37.3351,1.8613-40.5536-40.6045-40.706-39.4984-.1418-79-.5565-118.4771-1.8258-114.1135-3.669-225.0236-.098-335.6963-29.9266-100.5345-27.0961-200.3806-70.696-279.1506-134.6241-64.6825-52.4958-109.583-125.6531-186.3262-165.5-20.5359-10.6627-42.581-18.2848-64.8741-24.739C184.0158,116.7317,92.9631,118.1112,3.0081,118.1112c0,112.8677-1.7087,225.2258-1.7087,338.0439V577.7588c0,26.64-1.8847,54.5612-1.8706,82.0117Z" transform="translate(7 -38.822)"/><path class="cls-6" d="M-2.3949,397.3546V664.0208H1284.3283a61.4974,61.4974,0,0,1,12.7168,1.3252c1.956-8.3364,3.5754-14.8014,3.9549-16.3064-8.4263,4.3586-18.5547,4.5752-28.2168,4.68l-66.0981.7138c-36.1353.39-71.9454-.6222-107.9686-3.0369-13.4115-.899-26.9288-1.8008-40.0318-4.7511-12.4631-2.806-24.4976-7.2669-37.1394-9.5153q-14.8186-2.6355-29.4692-6.0034c-81.1383-18.7531-152.8206-60.909-223.8483-100.059-30.3154-16.71-65.6743-25.7346-98.6536-37.7192C531.2343,443.0757,448.19,321.5256,316.7215,261.6345,218.0167,216.6691,103.0677,222.285-7,222.285c0,55.0667,4.5206,109.3743,4.5972,164.1333Q-2.3951,391.8864-2.3949,397.3546Z" transform="translate(7 -38.822)"/><path class="cls-7" d="M1079.0361,625.49h-3.1982v13.83h-1.2422V625.49h-1.9873v-1.17h1.9873v-4.0195h1.2422V624.32h3.1982Z" transform="translate(7 -38.822)"/><path class="cls-7" d="M1080.5566,631.79a7.8256,7.8256,0,1,1,7.8243,7.71A7.6242,7.6242,0,0,1,1080.5566,631.79Zm14.4073-.03a6.5834,6.5834,0,0,0-13.1651,0,6.5826,6.5826,0,0,0,13.1651,0Z" transform="translate(7 -38.822)"/><path class="cls-7" d="M1100.6123,632.15a6.2626,6.2626,0,0,0,6.458,6.209,7.2376,7.2376,0,0,0,5.4033-2.31v1.56a8.2242,8.2242,0,0,1-5.4033,1.92,7.6968,7.6968,0,0,1-.2793-15.3887c4.5029,0,7.1729,3.7793,7.1729,8.01Zm12.0166-1.17c-.4033-3.09-2.4844-5.67-5.8379-5.67a6.0732,6.0732,0,0,0-6.1172,5.67Z" transform="translate(7 -38.822)"/><path class="cls-7" d="M1116.8477,637.16l.9316-.84a4.9281,4.9281,0,0,0,3.8193,2.0391c1.8633,0,3.416-1.0489,3.416-2.7891,0-4.26-7.9179-2.94-7.8564-7.83.0313-2.1,1.8633-3.6,4.2549-3.63a6.2079,6.2079,0,0,1,4.5332,2.13l-.8076.8106a5.02,5.02,0,0,0-3.6953-1.7705c-1.7383,0-3.043,1.05-3.0743,2.4306-.0927,3.8994,7.8877,2.6094,7.8252,7.8594-.03,2.25-1.8623,3.959-4.6572,3.959A6.0948,6.0948,0,0,1,1116.8477,637.16Z" transform="translate(7 -38.822)"/><path class="cls-7" d="M1130.3838,615.32h1.2422v24h-1.2422Z" transform="translate(7 -38.822)"/><path class="cls-7" d="M1135.94,631.79a7.8256,7.8256,0,1,1,7.8242,7.71A7.6242,7.6242,0,0,1,1135.94,631.79Zm14.4073-.03a6.5834,6.5834,0,0,0-13.1651,0,6.5826,6.5826,0,0,0,13.1651,0Z" transform="translate(7 -38.822)"/><path class="cls-7" d="M1170.7139,631.82a7.3915,7.3915,0,0,1-7.3282,7.709,6.9354,6.9354,0,0,1-6.2412-3.75v9.54h-1.2422V624.32h1.2422v3.57a6.9354,6.9354,0,0,1,6.2412-3.75A7.3837,7.3837,0,0,1,1170.7139,631.82Zm-1.2422,0a6.1724,6.1724,0,1,0-12.3272-.66v1.32a6.1725,6.1725,0,1,0,12.3272-.66Z" transform="translate(7 -38.822)"/><path class="cls-7" d="M1175.12,632.15a6.2626,6.2626,0,0,0,6.458,6.209,7.2374,7.2374,0,0,0,5.4033-2.31v1.56a8.224,8.224,0,0,1-5.4033,1.92,7.6968,7.6968,0,0,1-.2793-15.3887c4.503,0,7.1729,3.7793,7.1729,8.01Zm12.0166-1.17c-.4033-3.09-2.4844-5.67-5.8379-5.67a6.0732,6.0732,0,0,0-6.1172,5.67Z" transform="translate(7 -38.822)"/><path class="cls-7" d="M778.9512,604.5817v6.4492h3.23v1.17h-3.23v13.83H777.709v-13.83h-1.9561v-1.17h1.9561v-6.6a2.5323,2.5323,0,0,1,2.64-2.6093,3.0071,3.0071,0,0,1,1.8321.6v1.29a2.8434,2.8434,0,0,0-1.7393-.69A1.46,1.46,0,0,0,778.9512,604.5817Z" transform="translate(7 -38.822)"/><path class="cls-7" d="M783.7012,618.5016a7.8256,7.8256,0,1,1,7.8242,7.709A7.6241,7.6241,0,0,1,783.7012,618.5016Zm14.4072-.03a6.5833,6.5833,0,0,0-13.165,0,6.5825,6.5825,0,0,0,13.165,0Z" transform="translate(7 -38.822)"/><path class="cls-7" d="M802.5146,618.5016a7.8256,7.8256,0,1,1,7.8243,7.709A7.6241,7.6241,0,0,1,802.5146,618.5016Zm14.4073-.03a6.5834,6.5834,0,0,0-13.1651,0,6.5826,6.5826,0,0,0,13.1651,0Z" transform="translate(7 -38.822)"/><path class="cls-7" d="M826.9482,612.2009H823.75v13.83h-1.2422v-13.83h-1.9873v-1.17h1.9873v-4.0195H823.75v4.0195h3.1982Z" transform="translate(7 -38.822)"/><path class="cls-7" d="M828.6533,623.8708l.9317-.84a4.9263,4.9263,0,0,0,3.8193,2.04c1.8633,0,3.416-1.05,3.416-2.79,0-4.26-7.918-2.9394-7.8564-7.83.0312-2.1,1.8632-3.6,4.2549-3.6289a6.2065,6.2065,0,0,1,4.5332,2.1289l-.8077.81a5.0188,5.0188,0,0,0-3.6953-1.7695c-1.7383,0-3.0429,1.05-3.0732,2.43-.0938,3.9,7.8867,2.6093,7.8242,7.8593-.03,2.25-1.8633,3.96-4.6572,3.96A6.093,6.093,0,0,1,828.6533,623.8708Z" transform="translate(7 -38.822)"/><path class="cls-7" d="M842.19,602.0319h1.2421v23.999H842.19Z" transform="translate(7 -38.822)"/><path class="cls-7" d="M847.7461,618.5016a7.8256,7.8256,0,1,1,7.8242,7.709A7.6241,7.6241,0,0,1,847.7461,618.5016Zm14.4072-.03a6.5833,6.5833,0,0,0-13.165,0,6.5825,6.5825,0,0,0,13.165,0Z" transform="translate(7 -38.822)"/><path class="cls-7" d="M882.52,618.5309a7.3916,7.3916,0,0,1-7.3281,7.71,6.9372,6.9372,0,0,1-6.2412-3.75v9.54H867.708v-21H868.95v3.57a6.9372,6.9372,0,0,1,6.2412-3.75A7.3836,7.3836,0,0,1,882.52,618.5309Zm-1.2422,0a6.1724,6.1724,0,1,0-12.3271-.66v1.32a6.1725,6.1725,0,1,0,12.3271-.66Z" transform="translate(7 -38.822)"/><path class="cls-7" d="M886.9258,618.861a6.2628,6.2628,0,0,0,6.458,6.21,7.2414,7.2414,0,0,0,5.4033-2.31v1.56a8.2242,8.2242,0,0,1-5.4033,1.92,7.6973,7.6973,0,0,1-.2793-15.39c4.5029,0,7.1728,3.78,7.1728,8.01Zm12.0166-1.17c-.4033-3.09-2.4844-5.67-5.8379-5.67a6.0731,6.0731,0,0,0-6.1172,5.67Z" transform="translate(7 -38.822)"/><path class="cls-7" d="M498.5977,498.4255a7.3915,7.3915,0,0,1-7.3282,7.709,6.948,6.948,0,0,1-6.2724-3.81v3.6h-1.2422v-23.999h1.2422v12.6289a6.9453,6.9453,0,0,1,6.2724-3.8086A7.3836,7.3836,0,0,1,498.5977,498.4255Zm-1.2422,0a6.2136,6.2136,0,0,0-6.1172-6.51,6.5308,6.5308,0,0,0,0,13.0488A6.24,6.24,0,0,0,497.3555,498.4255Z" transform="translate(7 -38.822)"/><path class="cls-7" d="M516.6035,490.9255v14.999h-1.2422v-3.6a6.949,6.949,0,0,1-6.2724,3.81,7.7035,7.7035,0,0,1,0-15.3887,6.9463,6.9463,0,0,1,6.2724,3.8086v-3.6289Zm-1.2422,7.5293a6.3408,6.3408,0,0,0-6.2422-6.5391,6.538,6.538,0,0,0,0,13.0488A6.3155,6.3155,0,0,0,515.3613,498.4548Z" transform="translate(7 -38.822)"/><path class="cls-7" d="M520.915,498.4255a7.5747,7.5747,0,0,1,7.8868-7.711,8.0728,8.0728,0,0,1,5.4033,1.92v1.621a6.9754,6.9754,0,0,0-5.4033-2.371,6.5408,6.5408,0,1,0,0,13.08,6.9745,6.9745,0,0,0,5.4033-2.37v1.62a8.0682,8.0682,0,0,1-5.4033,1.92A7.5737,7.5737,0,0,1,520.915,498.4255Z" transform="translate(7 -38.822)"/><path class="cls-7" d="M548.36,505.9245l-8.26-6.8994v6.8994h-1.2422v-23.999h1.2422v16.17l8.0117-7.17h1.707l-8.539,7.6191,8.85,7.38Z" transform="translate(7 -38.822)"/><path class="cls-7" d="M551.8652,503.7643l.9317-.84a4.9262,4.9262,0,0,0,3.8193,2.04c1.8633,0,3.416-1.05,3.416-2.79,0-4.26-7.9179-2.94-7.8564-7.8291.0312-2.1006,1.8633-3.6,4.2549-3.6309a6.2083,6.2083,0,0,1,4.5332,2.1309l-.8077.81a5.0226,5.0226,0,0,0-3.6953-1.77c-1.7382,0-3.0429,1.0507-3.0742,2.4306-.0928,3.8994,7.8877,2.61,7.8252,7.8594-.03,2.25-1.8623,3.96-4.6572,3.96A6.0929,6.0929,0,0,1,551.8652,503.7643Z" transform="translate(7 -38.822)"/><path class="cls-7" d="M565.4014,481.9255h1.2422v23.999h-1.2422Z" transform="translate(7 -38.822)"/><path class="cls-7" d="M570.958,498.3942a7.8255,7.8255,0,1,1,7.8242,7.711A7.6247,7.6247,0,0,1,570.958,498.3942Zm14.4072-.0293a6.5833,6.5833,0,0,0-13.165,0,6.5825,6.5825,0,0,0,13.165,0Z" transform="translate(7 -38.822)"/><path class="cls-7" d="M605.7314,498.4255a7.3914,7.3914,0,0,1-7.3281,7.709,6.9354,6.9354,0,0,1-6.2412-3.75v9.54H590.92v-20.999h1.2422v3.5693a6.9364,6.9364,0,0,1,6.2412-3.749A7.3836,7.3836,0,0,1,605.7314,498.4255Zm-1.2421,0a6.1724,6.1724,0,1,0-12.3272-.66v1.3193a6.1725,6.1725,0,1,0,12.3272-.6591Z" transform="translate(7 -38.822)"/><path class="cls-7" d="M610.1377,498.7546a6.2633,6.2633,0,0,0,6.458,6.21,7.2382,7.2382,0,0,0,5.4033-2.31v1.56a8.2237,8.2237,0,0,1-5.4033,1.92,7.6968,7.6968,0,0,1-.2793-15.3887c4.5029,0,7.1729,3.7793,7.1729,8.0088Zm12.0166-1.17c-.4033-3.09-2.4844-5.6689-5.8379-5.6689a6.0723,6.0723,0,0,0-6.1172,5.6689Z" transform="translate(7 -38.822)"/><path class="cls-7" d="M265.77,335.1471l.9317-.8408a4.9243,4.9243,0,0,0,3.8193,2.041c1.8633,0,3.416-1.0507,3.416-2.791,0-4.26-7.9179-2.9394-7.8564-7.8291.0312-2.1,1.8633-3.6,4.2549-3.63a6.2076,6.2076,0,0,1,4.5332,2.13l-.8077.81a5.0222,5.0222,0,0,0-3.6953-1.77c-1.7382,0-3.0429,1.0507-3.0742,2.43-.0928,3.9,7.8877,2.61,7.8252,7.8593-.03,2.25-1.8623,3.961-4.6572,3.961A6.0929,6.0929,0,0,1,265.77,335.1471Z" transform="translate(7 -38.822)"/><path class="cls-7" d="M291.7881,328.9069v8.3994h-1.2412v-8.1c0-3.959-1.9571-6-4.9375-6-2.7949,0-5.0615,2.041-5.0615,6v8.1h-1.2422v-23.998h1.2422v11.7588a5.9135,5.9135,0,0,1,5.1855-2.9991C289.0254,322.068,291.7881,324.2575,291.7881,328.9069Z" transform="translate(7 -38.822)"/><path class="cls-7" d="M295.2012,329.777a7.8256,7.8256,0,1,1,7.8242,7.71A7.6248,7.6248,0,0,1,295.2012,329.777Zm14.4072-.0293a6.5833,6.5833,0,0,0-13.165,0,6.5825,6.5825,0,0,0,13.165,0Z" transform="translate(7 -38.822)"/><path class="cls-7" d="M327.3662,322.3073v14.999H326.124v-2.76a5.9132,5.9132,0,0,1-5.1855,3c-3.291,0-6.0547-2.19-6.0547-6.84v-8.3994h1.2422v8.1c0,3.96,1.956,6,4.9375,6,2.7939,0,5.0605-2.04,5.0605-6v-8.1Z" transform="translate(7 -38.822)"/><path class="cls-7" d="M332.8271,313.3083h1.2422v23.998h-1.2422Z" transform="translate(7 -38.822)"/><path class="cls-7" d="M353.2266,313.3083v23.998h-1.2422v-3.6a6.9482,6.9482,0,0,1-6.2725,3.8106,7.704,7.704,0,0,1,0-15.39,6.9473,6.9473,0,0,1,6.2725,3.81V313.3083Zm-1.2422,16.5293a6.3412,6.3412,0,0,0-6.2422-6.54,6.5386,6.5386,0,0,0,0,13.05A6.3162,6.3162,0,0,0,351.9844,329.8376Z" transform="translate(7 -38.822)"/><path class="cls-7" d="M358.78,330.1364a6.2641,6.2641,0,0,0,6.458,6.2109,7.242,7.242,0,0,0,5.4033-2.31v1.56a8.2237,8.2237,0,0,1-5.4033,1.92,7.6973,7.6973,0,0,1-.2793-15.39c4.5029,0,7.1728,3.78,7.1728,8.0088Zm12.0166-1.17c-.4033-3.09-2.4844-5.669-5.8379-5.669a6.0723,6.0723,0,0,0-6.1172,5.669Z" transform="translate(7 -38.822)"/><path class="cls-7" d="M382.0029,322.1276v1.26c-2.7021-.09-4.4717,2.4892-4.4717,5.4892v8.43h-1.2421v-14.999h1.2421v2.94A4.9114,4.9114,0,0,1,382.0029,322.1276Z" transform="translate(7 -38.822)"/><path class="cls-7" d="M95.9385,272.0427l.9316-.84a4.9285,4.9285,0,0,0,3.8194,2.0391c1.8632,0,3.416-1.0489,3.416-2.7891,0-4.26-7.918-2.94-7.8565-7.83.0313-2.1,1.8633-3.6,4.2549-3.63a6.2073,6.2073,0,0,1,4.5332,2.13l-.8076.8106a5.02,5.02,0,0,0-3.6953-1.77c-1.7383,0-3.043,1.05-3.0733,2.4306-.0937,3.9,7.8868,2.6094,7.8243,7.8594-.03,2.25-1.8633,3.959-4.6573,3.959A6.095,6.095,0,0,1,95.9385,272.0427Z" transform="translate(7 -38.822)"/><path class="cls-7" d="M121.6777,259.2028v15h-1.2422v-2.76a5.9153,5.9153,0,0,1-5.1855,2.9991c-3.291,0-6.0547-2.19-6.0547-6.8389v-8.4h1.2422v8.1c0,3.96,1.9561,6,4.9375,6,2.7939,0,5.0605-2.04,5.0605-6v-8.1Z" transform="translate(7 -38.822)"/><path class="cls-7" d="M148.8125,265.2634l-.03,8.9394H147.54v-8.67c0-3.2695-1.6767-5.4-4.4716-5.4s-4.4717,2.1309-4.4717,5.7l-.0313,8.37h-1.2412v-8.67c0-3.2695-1.6777-5.4-4.4717-5.4s-4.4716,2.1309-4.4716,5.7v8.37h-1.2422v-15h1.2422v2.4a5.1373,5.1373,0,0,1,4.6269-2.6406,5.3267,5.3267,0,0,1,5.1543,3.6308,5.251,5.251,0,0,1,5.0615-3.6308C146.2666,258.9626,148.8125,261.2126,148.8125,265.2634Z" transform="translate(7 -38.822)"/><path class="cls-7" d="M175.667,265.2634l-.03,8.9394h-1.2422v-8.67c0-3.2695-1.6767-5.4-4.4716-5.4s-4.4717,2.1309-4.4717,5.7l-.0313,8.37h-1.2422v-8.67c0-3.2695-1.6767-5.4-4.4707-5.4s-4.4716,2.1309-4.4716,5.7v8.37h-1.2422v-15h1.2422v2.4a5.1373,5.1373,0,0,1,4.6269-2.6406,5.3276,5.3276,0,0,1,5.1543,3.6308,5.2509,5.2509,0,0,1,5.0615-3.6308C173.1211,258.9626,175.667,261.2126,175.667,265.2634Z" transform="translate(7 -38.822)"/><path class="cls-7" d="M180.8477,255.1833a.9321.9321,0,0,1,1.8632,0,.9321.9321,0,0,1-1.8632,0Zm.31,4.02H182.4v15h-1.2422Z" transform="translate(7 -38.822)"/><path class="cls-7" d="M192.9561,260.3727h-3.1983v13.83h-1.2422v-13.83h-1.9873v-1.17h1.9873v-4.02h1.2422v4.02h3.1983Z" transform="translate(7 -38.822)"/><path d="M667.707,265.9382H668.7V285.14h-.9932Z" transform="translate(7 -38.822)"/><path d="M672.1514,279.1149a6.2609,6.2609,0,1,1,6.2607,6.169A6.1007,6.1007,0,0,1,672.1514,279.1149Zm11.5263-.0234a5.2667,5.2667,0,0,0-10.5322,0,5.2661,5.2661,0,0,0,10.5322,0Z" transform="translate(7 -38.822)"/><path d="M704.7656,273.1384l-6.4336,12.1933h-.2988l-2.7822-5.4238-2.7569,5.4238h-.2978l-6.4092-12.1933H686.88l5.49,10.5136,2.3848-4.7529-2.9072-5.7607h1.0937l2.335,4.7773,2.3105-4.7773H698.68l-2.9063,5.7607,2.4092,4.7529,5.4649-10.5136Z" transform="translate(7 -38.822)"/><path d="M706.874,279.404a5.0115,5.0115,0,0,0,5.167,4.9678,5.7928,5.7928,0,0,0,4.3223-1.8487v1.2481a6.5772,6.5772,0,0,1-4.3223,1.5371,6.1587,6.1587,0,0,1-.2236-12.3135c3.6015,0,5.7383,3.0244,5.7383,6.4092Zm9.6133-.9365c-.3232-2.4727-1.9873-4.5362-4.67-4.5362a4.8587,4.8587,0,0,0-4.8936,4.5362Z" transform="translate(7 -38.822)"/><path d="M719.8633,283.4118l.7451-.6719a3.9406,3.9406,0,0,0,3.0557,1.6319c1.49,0,2.7324-.84,2.7324-2.2325,0-3.4082-6.335-2.3525-6.2852-6.2646.0244-1.68,1.49-2.88,3.4033-2.9043a4.9674,4.9674,0,0,1,3.627,1.7051l-.6465.6474a4.0177,4.0177,0,0,0-2.956-1.416,2.2211,2.2211,0,0,0-2.459,1.9443c-.0742,3.12,6.3095,2.0879,6.26,6.2881-.0244,1.8-1.49,3.169-3.7255,3.169A4.8755,4.8755,0,0,1,719.8633,283.4118Z" transform="translate(7 -38.822)"/><path d="M734.0205,274.0749h-2.5586V285.14h-.9941V274.0749h-1.59v-.9365h1.59v-3.2159h.9941v3.2159h2.5586Z" transform="translate(7 -38.822)"/><path d="M745.3438,269.9225a.7461.7461,0,0,1,1.4912,0,.7461.7461,0,0,1-1.4912,0Zm.249,3.2159h.9931V285.14h-.9931Z" transform="translate(7 -38.822)"/><path d="M761.1914,278.42V285.14h-.9932V278.66c0-3.1689-1.5654-4.8007-3.95-4.8007-2.2353,0-4.0488,1.6318-4.0488,4.8007V285.14h-.9941V273.1384h.9941v2.2089a4.7309,4.7309,0,0,1,4.1485-2.4C758.9805,272.947,761.1914,274.6989,761.1914,278.42Z" transform="translate(7 -38.822)"/><path d="M771.9453,285.14h-.9941V274.0749h-4.3721V285.14h-.9932V274.0749h-1.5654v-.9365h1.5654v-5.28a2.0261,2.0261,0,0,1,2.1114-2.0879,2.4107,2.4107,0,0,1,1.4658.48v1.0332a2.2681,2.2681,0,0,0-1.3916-.5527,1.1676,1.1676,0,0,0-1.1924,1.248v5.16h5.3662Zm.2481-15.2178a.7456.7456,0,0,1-1.49,0,.7456.7456,0,0,1,1.49,0Z" transform="translate(7 -38.822)"/><path d="M776.5625,265.9382h.9941V285.14h-.9941Z" transform="translate(7 -38.822)"/><path d="M785.7529,274.0749h-2.5586V285.14H782.2V274.0749h-1.59v-.9365h1.59v-3.2159h.9941v3.2159h2.5586Z" transform="translate(7 -38.822)"/><path d="M792.9551,272.9948v1.0078c-2.1612-.0713-3.5772,1.9922-3.5772,4.3926V285.14h-.9931V273.1384h.9931v2.3525A3.93,3.93,0,0,1,792.9551,272.9948Z" transform="translate(7 -38.822)"/><path d="M806.0449,273.1384V285.14h-.9931V282.26a5.5569,5.5569,0,0,1-5.0176,3.0488,6.1641,6.1641,0,0,1,0-12.3135,5.5577,5.5577,0,0,1,5.0176,3.0479v-2.9043Zm-.9931,6.0253a5.0734,5.0734,0,0,0-4.9932-5.2324,5.2312,5.2312,0,0,0,0,10.44A5.0523,5.0523,0,0,0,805.0518,279.1637Z" transform="translate(7 -38.822)"/><path d="M814.24,274.0749h-2.5586V285.14h-.9941V274.0749h-1.59v-.9365h1.59v-3.2159h.9941v3.2159H814.24Z" transform="translate(7 -38.822)"/><path d="M816.8711,269.9225a.7461.7461,0,0,1,1.4912,0,.7461.7461,0,0,1-1.4912,0Zm.249,3.2159h.9932V285.14H817.12Z" transform="translate(7 -38.822)"/><path d="M821.8135,279.1149a6.2609,6.2609,0,1,1,6.2607,6.169A6.1007,6.1007,0,0,1,821.8135,279.1149Zm11.5263-.0234a5.2667,5.2667,0,0,0-10.5322,0,5.2661,5.2661,0,0,0,10.5322,0Z" transform="translate(7 -38.822)"/><path d="M847.77,278.42V285.14h-.9931V278.66c0-3.1689-1.5655-4.8007-3.95-4.8007-2.2354,0-4.0489,1.6318-4.0489,4.8007V285.14h-.9941V273.1384h.9941v2.2089a4.7309,4.7309,0,0,1,4.1485-2.4C845.5586,272.947,847.77,274.6989,847.77,278.42Z" transform="translate(7 -38.822)"/><path d="M850.6982,273.7634a.7452.7452,0,0,1,1.49,0,.7456.7456,0,0,1-1.49,0Zm.795,8.6884h1.0185l-1.0683,5.3282h-.7452Z" transform="translate(7 -38.822)"/><path d="M687.5771,307.2184v6.7207h-.9931v-6.48c0-3.168-1.5654-4.8-3.95-4.8-2.2354,0-4.0488,1.6318-4.0488,4.8v6.48h-.9932V294.738h.9932v9.4082a4.7336,4.7336,0,0,1,4.1484-2.3994C685.3662,301.7468,687.5771,303.4987,687.5771,307.2184Z" transform="translate(7 -38.822)"/><path d="M691.7227,298.7223a.746.746,0,0,1,1.4912,0,.746.746,0,0,1-1.4912,0Zm.249,3.2168h.9931v12h-.9931Z" transform="translate(7 -38.822)"/><path d="M708.5391,313.3874c0,3.792-2.9307,5.52-5.8125,5.52a8.4255,8.4255,0,0,1-4.62-1.3926l.0245-1.1035a7.5837,7.5837,0,0,0,4.4716,1.584c2.7823,0,4.9932-1.68,4.9678-4.7764v-2.1846a5.5708,5.5708,0,0,1-5.042,3.0723,6.1636,6.1636,0,0,1,0-12.3125,5.5936,5.5936,0,0,1,5.0176,3.0244l-.0244-2.88h.9931Zm-.9932-5.4248a5.0733,5.0733,0,0,0-4.9932-5.2324,5.2316,5.2316,0,0,0,0,10.4414A5.0525,5.0525,0,0,0,707.5459,307.9626Z" transform="translate(7 -38.822)"/><path d="M722.8945,307.2184v6.7207h-.9931v-6.48c0-3.168-1.5655-4.8-3.95-4.8-2.2354,0-4.0489,1.6318-4.0489,4.8v6.48h-.9941V294.738h.9941v9.4082a4.7338,4.7338,0,0,1,4.1485-2.3994C720.6836,301.7468,722.8945,303.4987,722.8945,307.2184Z" transform="translate(7 -38.822)"/><path d="M726.6191,308.2028a5.0119,5.0119,0,0,0,5.167,4.9688,5.7919,5.7919,0,0,0,4.3223-1.8477v1.2481a6.5813,6.5813,0,0,1-4.3223,1.5351,6.1582,6.1582,0,0,1-.2236-12.3125c3.6016,0,5.7383,3.0244,5.7383,6.4082Zm9.6133-.9355c-.3232-2.4727-1.9873-4.5371-4.67-4.5371a4.8581,4.8581,0,0,0-4.8936,4.5371Z" transform="translate(7 -38.822)"/><path d="M739.6084,312.2116l.7451-.6729a3.9384,3.9384,0,0,0,3.0547,1.6329c1.4912,0,2.7334-.84,2.7334-2.2325,0-3.4082-6.335-2.3515-6.2852-6.2636.0245-1.6807,1.49-2.8809,3.4034-2.9043a4.966,4.966,0,0,1,3.6269,1.7031l-.6465.6484a4.0124,4.0124,0,0,0-2.956-1.416,2.2212,2.2212,0,0,0-2.459,1.9444c-.0742,3.12,6.31,2.0878,6.26,6.288-.0245,1.8008-1.49,3.168-3.7256,3.168A4.8718,4.8718,0,0,1,739.6084,312.2116Z" transform="translate(7 -38.822)"/><path d="M753.7656,302.8747H751.207v11.0644h-.9941V302.8747h-1.59v-.9356h1.59v-3.2168h.9941v3.2168h2.5586Z" transform="translate(7 -38.822)"/><path d="M765.1641,308.2028a5.0117,5.0117,0,0,0,5.167,4.9688,5.7919,5.7919,0,0,0,4.3222-1.8477v1.2481a6.5812,6.5812,0,0,1-4.3222,1.5351,6.1582,6.1582,0,0,1-.2237-12.3125c3.6016,0,5.7383,3.0244,5.7383,6.4082Zm9.6132-.9355c-.3232-2.4727-1.9873-4.5371-4.67-4.5371a4.8579,4.8579,0,0,0-4.8935,4.5371Z" transform="translate(7 -38.822)"/><path d="M783.7422,301.7946v1.0078c-2.1611-.0722-3.5772,1.9922-3.5772,4.3926v6.7441h-.9931v-12h.9931v2.3516A3.93,3.93,0,0,1,783.7422,301.7946Z" transform="translate(7 -38.822)"/><path d="M784.958,307.9157a6.2609,6.2609,0,1,1,6.2608,6.168A6.1,6.1,0,0,1,784.958,307.9157Zm11.5264-.0244a5.2668,5.2668,0,0,0-10.5323,0,5.2662,5.2662,0,0,0,10.5323,0Z" transform="translate(7 -38.822)"/><path d="M799.91,312.2116l.7451-.6729a3.9387,3.9387,0,0,0,3.0556,1.6329c1.49,0,2.7325-.84,2.7325-2.2325,0-3.4082-6.335-2.3515-6.2852-6.2636.0244-1.6807,1.49-2.8809,3.4033-2.9043a4.9661,4.9661,0,0,1,3.627,1.7031l-.6465.6484a4.0144,4.0144,0,0,0-2.9561-1.416,2.2211,2.2211,0,0,0-2.4589,1.9444c-.0743,3.12,6.31,2.0878,6.26,6.288-.0244,1.8008-1.49,3.168-3.7256,3.168A4.8716,4.8716,0,0,1,799.91,312.2116Z" transform="translate(7 -38.822)"/><path d="M810.7383,298.7223a.746.746,0,0,1,1.4912,0,.746.746,0,0,1-1.4912,0Zm.249,3.2168h.9932v12h-.9932Z" transform="translate(7 -38.822)"/><path d="M815.6807,307.9157a6.2609,6.2609,0,1,1,6.2607,6.168A6.1,6.1,0,0,1,815.6807,307.9157Zm11.5263-.0244a5.2667,5.2667,0,0,0-10.5322,0,5.2661,5.2661,0,0,0,10.5322,0Z" transform="translate(7 -38.822)"/><path d="M841.6367,307.2184v6.7207h-.9931v-6.48c0-3.168-1.5655-4.8-3.95-4.8-2.2354,0-4.0489,1.6318-4.0489,4.8v6.48H831.65v-12h.9941v2.2071a4.7338,4.7338,0,0,1,4.1485-2.3994C839.4258,301.7468,841.6367,303.4987,841.6367,307.2184Z" transform="translate(7 -38.822)"/><path d="M714.81,330.7389V342.74h-.9932v-2.8808a5.5567,5.5567,0,0,1-5.0176,3.0488,6.1636,6.1636,0,0,1,0-12.3125,5.5574,5.5574,0,0,1,5.0176,3.0478v-2.9043Zm-.9932,6.0245a5.0734,5.0734,0,0,0-4.9932-5.2325,5.2316,5.2316,0,0,0,0,10.4414A5.053,5.053,0,0,0,713.8164,336.7634Z" transform="translate(7 -38.822)"/><path d="M729.165,336.0192V342.74h-.9931v-6.48c0-3.168-1.5655-4.8008-3.95-4.8008-2.2354,0-4.0488,1.6328-4.0488,4.8008v6.48H719.18v-12.001h.9932v2.2081a4.7326,4.7326,0,0,1,4.1484-2.4C726.9541,330.5466,729.165,332.2985,729.165,336.0192Z" transform="translate(7 -38.822)"/><path d="M743.77,323.5387V342.74h-.9931v-2.8808a5.5569,5.5569,0,0,1-5.0176,3.0488,6.1636,6.1636,0,0,1,0-12.3125,5.5576,5.5576,0,0,1,5.0176,3.0478V323.5387Zm-.9931,13.2247a5.0734,5.0734,0,0,0-4.9932-5.2325,5.2316,5.2316,0,0,0,0,10.4414A5.0531,5.0531,0,0,0,742.7764,336.7634Z" transform="translate(7 -38.822)"/><path d="M761.4023,330.5954v1.0078c-2.1611-.0723-3.5771,1.9922-3.5771,4.3926V342.74h-.9932v-12.001h.9932v2.3526A3.928,3.928,0,0,1,761.4023,330.5954Z" transform="translate(7 -38.822)"/><path d="M773.7959,330.7389V342.74h-.9932v-2.208a4.7318,4.7318,0,0,1-4.1484,2.3994c-2.6328,0-4.8438-1.7519-4.8438-5.4717v-6.7207h.9932v6.4805c0,3.169,1.5654,4.8,3.95,4.8,2.2354,0,4.0488-1.6308,4.0488-4.8v-6.4805Z" transform="translate(7 -38.822)"/><path d="M788.1514,336.0192V342.74h-.9932v-6.48c0-3.168-1.5654-4.8008-3.95-4.8008-2.2353,0-4.0488,1.6328-4.0488,4.8008v6.48h-.9932v-12.001h.9932v2.2081a4.7326,4.7326,0,0,1,4.1484-2.4C785.94,330.5466,788.1514,332.2985,788.1514,336.0192Z" transform="translate(7 -38.822)"/><path d="M790.8809,336.7155a6.2609,6.2609,0,1,1,6.2607,6.169A6.1007,6.1007,0,0,1,790.8809,336.7155Zm11.5263-.0244a5.2668,5.2668,0,0,0-10.5322,0,5.2661,5.2661,0,0,0,10.5322,0Z" transform="translate(7 -38.822)"/><path d="M807.8447,325.5778v5.1611h2.584v.9366h-2.584V342.74h-.9931V331.6755h-1.5655v-.9366h1.5655v-5.28a2.026,2.026,0,0,1,2.1113-2.0879,2.404,2.404,0,0,1,1.4658.48v1.0322a2.2737,2.2737,0,0,0-1.3916-.5527A1.1682,1.1682,0,0,0,807.8447,325.5778Z" transform="translate(7 -38.822)"/><path d="M814.3018,325.5778v5.1611h2.5839v.9366h-2.5839V342.74h-.9932V331.6755h-1.5654v-.9366h1.5654v-5.28a2.026,2.026,0,0,1,2.1113-2.0879,2.404,2.404,0,0,1,1.4658.48v1.0322a2.2737,2.2737,0,0,0-1.3916-.5527A1.1681,1.1681,0,0,0,814.3018,325.5778Z" transform="translate(7 -38.822)"/><path d="M466.2832,165.0427h.9941v19.2011h-.9941Z" transform="translate(7 -38.822)"/><path d="M470.7285,178.2194a6.2609,6.2609,0,1,1,6.2608,6.169A6.1007,6.1007,0,0,1,470.7285,178.2194Zm11.5264-.0244a5.2668,5.2668,0,0,0-10.5322,0,5.2661,5.2661,0,0,0,10.5322,0Z" transform="translate(7 -38.822)"/><path d="M503.3428,172.2429l-6.4336,12.1923H496.61l-2.7823-5.4238-2.7568,5.4238h-.2979l-6.4091-12.1923h1.0927l5.49,10.5126,2.3847-4.7519-2.9062-5.7607h1.0928l2.3349,4.7763,2.3106-4.7763h1.0927l-2.9062,5.7607,2.4092,4.7519,5.4648-10.5126Z" transform="translate(7 -38.822)"/><path d="M513.82,169.027a.7455.7455,0,0,1,1.49,0,.7455.7455,0,0,1-1.49,0Zm.2481,3.2159h.9931v12.0009h-.9931Z" transform="translate(7 -38.822)"/><path d="M529.667,177.5231v6.7207h-.9932v-6.48c0-3.168-1.5654-4.8008-3.95-4.8008-2.2353,0-4.0488,1.6328-4.0488,4.8008v6.48h-.9932V172.2429h.9932v2.208a4.7326,4.7326,0,0,1,4.1484-2.4C527.4561,172.0505,529.667,173.8024,529.667,177.5231Z" transform="translate(7 -38.822)"/><path d="M540.4209,184.2438h-.9941V173.1794h-4.3721v11.0644h-.9932V173.1794h-1.5654v-.9365h1.5654v-5.28a2.0261,2.0261,0,0,1,2.1114-2.0879,2.4043,2.4043,0,0,1,1.4658.48v1.0322a2.2739,2.2739,0,0,0-1.3916-.5527,1.1682,1.1682,0,0,0-1.1924,1.248v5.1612h5.3662Zm.248-15.2168a.7455.7455,0,0,1-1.49,0,.7455.7455,0,0,1,1.49,0Z" transform="translate(7 -38.822)"/><path d="M545.0391,165.0427h.9931v19.2011h-.9931Z" transform="translate(7 -38.822)"/><path d="M554.2285,173.1794H551.67v11.0644h-.9941V173.1794h-1.59v-.9365h1.59V169.027h.9941v3.2159h2.5586Z" transform="translate(7 -38.822)"/><path d="M561.4307,172.0993v1.0078c-2.1612-.0723-3.5772,1.9922-3.5772,4.3926v6.7441h-.9941V172.2429h.9941v2.3525A3.9269,3.9269,0,0,1,561.4307,172.0993Z" transform="translate(7 -38.822)"/><path d="M574.5205,172.2429v12.0009h-.9932V181.363a5.5566,5.5566,0,0,1-5.0175,3.0488,6.1636,6.1636,0,0,1,0-12.3125,5.5574,5.5574,0,0,1,5.0175,3.0478v-2.9042Zm-.9932,6.0244a5.0734,5.0734,0,0,0-4.9931-5.2325,5.2316,5.2316,0,0,0,0,10.4414A5.053,5.053,0,0,0,573.5273,178.2673Z" transform="translate(7 -38.822)"/><path d="M582.7158,173.1794h-2.5586v11.0644h-.9941V173.1794h-1.59v-.9365h1.59V169.027h.9941v3.2159h2.5586Z" transform="translate(7 -38.822)"/><path d="M585.3477,169.027a.7455.7455,0,0,1,1.49,0,.7455.7455,0,0,1-1.49,0Zm.248,3.2159h.9932v12.0009h-.9932Z" transform="translate(7 -38.822)"/><path d="M590.2891,178.2194a6.2609,6.2609,0,1,1,6.2607,6.169A6.1007,6.1007,0,0,1,590.2891,178.2194Zm11.5263-.0244a5.2668,5.2668,0,0,0-10.5322,0,5.2661,5.2661,0,0,0,10.5322,0Z" transform="translate(7 -38.822)"/><path d="M616.2451,177.5231v6.7207h-.9931v-6.48c0-3.168-1.5655-4.8008-3.95-4.8008-2.2354,0-4.0489,1.6328-4.0489,4.8008v6.48H606.26V172.2429h.9931v2.208a4.7328,4.7328,0,0,1,4.1485-2.4C614.0342,172.0505,616.2451,173.8024,616.2451,177.5231Z" transform="translate(7 -38.822)"/><path d="M619.1738,172.8669a.7452.7452,0,0,1,1.49,0,.7456.7456,0,0,1-1.49,0Zm.795,8.6885h1.0185l-1.0684,5.3291h-.7451Z" transform="translate(7 -38.822)"/><path d="M464.1016,205.89l-.0254,7.1533h-.9932v-6.9365c0-2.6162-1.3418-4.32-3.5771-4.32s-3.5772,1.7041-3.5772,4.56l-.0244,6.6963H454.91v-6.9365c0-2.6162-1.3418-4.32-3.5772-4.32s-3.5771,1.7041-3.5771,4.56v6.6963h-.9942V201.0427h.9942v1.92a4.1085,4.1085,0,0,1,3.7011-2.1114,4.26,4.26,0,0,1,4.1241,2.9043,4.199,4.199,0,0,1,4.0488-2.9043C462.0645,200.8512,464.1016,202.65,464.1016,205.89Z" transform="translate(7 -38.822)"/><path d="M466.83,207.0192a6.2609,6.2609,0,1,1,6.2607,6.168A6.1,6.1,0,0,1,466.83,207.0192Zm11.5263-.0234a5.2667,5.2667,0,0,0-10.5322,0,5.2661,5.2661,0,0,0,10.5322,0Z" transform="translate(7 -38.822)"/><path d="M493.7549,193.8415v19.2021h-.9932v-2.88a5.5573,5.5573,0,0,1-5.0176,3.0479,6.1641,6.1641,0,0,1,0-12.3135,5.5566,5.5566,0,0,1,5.0176,3.0489V193.8415Zm-.9932,13.2256a5.0734,5.0734,0,0,0-4.9931-5.2325,5.2312,5.2312,0,0,0,0,10.4405A5.0516,5.0516,0,0,0,492.7617,207.0671Z" transform="translate(7 -38.822)"/><path d="M498.1992,207.3073a5.0115,5.0115,0,0,0,5.167,4.9678,5.7921,5.7921,0,0,0,4.3223-1.8477v1.2481a6.5819,6.5819,0,0,1-4.3223,1.5361,6.1587,6.1587,0,0,1-.2236-12.3135c3.6015,0,5.7383,3.0254,5.7383,6.4092Zm9.6133-.9365c-.3232-2.4727-1.9873-4.5362-4.67-4.5362a4.858,4.858,0,0,0-4.8936,4.5362Z" transform="translate(7 -38.822)"/><path d="M516.7773,200.8981v1.0088c-2.1611-.0723-3.5771,1.9912-3.5771,4.3916v6.7451h-.9932V201.0427H513.2v2.3515A3.931,3.931,0,0,1,516.7773,200.8981Z" transform="translate(7 -38.822)"/><path d="M529.8662,201.0427v12.0009h-.9932v-2.88a5.5573,5.5573,0,0,1-5.0175,3.0479,6.1641,6.1641,0,0,1,0-12.3135,5.5565,5.5565,0,0,1,5.0175,3.0489v-2.9043Zm-.9932,6.0244a5.0734,5.0734,0,0,0-4.9931-5.2325,5.2312,5.2312,0,0,0,0,10.4405A5.0516,5.0516,0,0,0,528.873,207.0671Z" transform="translate(7 -38.822)"/><path d="M538.0615,201.9782h-2.5586v11.0654h-.9941V201.9782h-1.59v-.9355h1.59v-3.2168h.9941v3.2168h2.5586Z" transform="translate(7 -38.822)"/><path d="M540.2715,207.3073a5.0115,5.0115,0,0,0,5.167,4.9678,5.7917,5.7917,0,0,0,4.3222-1.8477v1.2481a6.5814,6.5814,0,0,1-4.3222,1.5361,6.1587,6.1587,0,0,1-.2237-12.3135c3.6016,0,5.7383,3.0254,5.7383,6.4092Zm9.6133-.9365c-.3233-2.4727-1.9873-4.5362-4.67-4.5362a4.8579,4.8579,0,0,0-4.8935,4.5362Z" transform="translate(7 -38.822)"/><path d="M563.0459,207.3073a5.0115,5.0115,0,0,0,5.167,4.9678,5.7921,5.7921,0,0,0,4.3223-1.8477v1.2481a6.5819,6.5819,0,0,1-4.3223,1.5361,6.1587,6.1587,0,0,1-.2236-12.3135c3.6015,0,5.7382,3.0254,5.7382,6.4092Zm9.6133-.9365c-.3233-2.4727-1.9873-4.5362-4.67-4.5362a4.8586,4.8586,0,0,0-4.8936,4.5362Z" transform="translate(7 -38.822)"/><path d="M581.624,200.8981v1.0088c-2.1611-.0723-3.5771,1.9912-3.5771,4.3916v6.7451h-.9942V201.0427h.9942v2.3515A3.93,3.93,0,0,1,581.624,200.8981Z" transform="translate(7 -38.822)"/><path d="M582.84,207.0192a6.261,6.261,0,1,1,6.2608,6.168A6.1,6.1,0,0,1,582.84,207.0192Zm11.5264-.0234a5.2667,5.2667,0,0,0-10.5322,0,5.2661,5.2661,0,0,0,10.5322,0Z" transform="translate(7 -38.822)"/><path d="M597.792,211.3161l.7451-.6729a3.94,3.94,0,0,0,3.0547,1.6319c1.4912,0,2.7334-.84,2.7334-2.2324,0-3.4082-6.335-2.3516-6.2852-6.2637.0245-1.68,1.49-2.8809,3.4034-2.9043a4.97,4.97,0,0,1,3.6269,1.7041l-.6465.6474a4.0159,4.0159,0,0,0-2.956-1.416,2.2211,2.2211,0,0,0-2.459,1.9453c-.0742,3.1192,6.31,2.0879,6.26,6.2872-.0245,1.8007-1.49,3.1689-3.7256,3.1689A4.8747,4.8747,0,0,1,597.792,211.3161Z" transform="translate(7 -38.822)"/><path d="M608.6211,197.8259a.7455.7455,0,0,1,1.49,0,.7455.7455,0,0,1-1.49,0Zm.248,3.2168h.9932v12.0009h-.9932Z" transform="translate(7 -38.822)"/><path d="M613.5625,207.0192a6.2609,6.2609,0,1,1,6.2607,6.168A6.1,6.1,0,0,1,613.5625,207.0192Zm11.5264-.0234a5.2668,5.2668,0,0,0-10.5323,0,5.2662,5.2662,0,0,0,10.5323,0Z" transform="translate(7 -38.822)"/><path d="M639.5186,206.3229v6.7207h-.9932v-6.48c0-3.169-1.5654-4.8-3.95-4.8-2.2354,0-4.0488,1.6308-4.0488,4.8v6.48h-.9932V201.0427h.9932v2.208a4.7319,4.7319,0,0,1,4.1484-2.3995C637.3076,200.8512,639.5186,202.6032,639.5186,206.3229Z" transform="translate(7 -38.822)"/><path d="M498.3359,229.8434v12h-.9931v-2.88a5.5575,5.5575,0,0,1-5.0176,3.0478,6.1636,6.1636,0,0,1,0-12.3125,5.5568,5.5568,0,0,1,5.0176,3.0488v-2.9043Zm-.9931,6.0235a5.0733,5.0733,0,0,0-4.9932-5.2324,5.2316,5.2316,0,0,0,0,10.4414A5.0526,5.0526,0,0,0,497.3428,235.8669Z" transform="translate(7 -38.822)"/><path d="M512.6914,235.1227v6.7207h-.9932v-6.48c0-3.168-1.5654-4.8-3.95-4.8-2.2353,0-4.0488,1.6318-4.0488,4.8v6.48h-.9941v-12h.9941v2.2071a4.7338,4.7338,0,0,1,4.1485-2.3994C510.4805,229.6511,512.6914,231.403,512.6914,235.1227Z" transform="translate(7 -38.822)"/><path d="M527.2959,222.6423v19.2011h-.9932v-2.88a5.5574,5.5574,0,0,1-5.0175,3.0478,6.1636,6.1636,0,0,1,0-12.3125,5.5566,5.5566,0,0,1,5.0175,3.0488V222.6423Zm-.9932,13.2246a5.0733,5.0733,0,0,0-4.9931-5.2324,5.2316,5.2316,0,0,0,0,10.4414A5.0525,5.0525,0,0,0,526.3027,235.8669Z" transform="translate(7 -38.822)"/><path d="M544.9287,229.6989v1.0078c-2.1611-.0722-3.5771,1.9922-3.5771,4.3926v6.7441h-.9942v-12h.9942v2.3516A3.9283,3.9283,0,0,1,544.9287,229.6989Z" transform="translate(7 -38.822)"/><path d="M557.3223,229.8434v12h-.9932v-2.207a4.7338,4.7338,0,0,1-4.1484,2.3994c-2.6338,0-4.8438-1.7519-4.8438-5.4717v-6.7207h.9932v6.4805c0,3.168,1.5654,4.8,3.95,4.8,2.2353,0,4.0488-1.6318,4.0488-4.8v-6.4805Z" transform="translate(7 -38.822)"/><path d="M571.6777,235.1227v6.7207h-.9931v-6.48c0-3.168-1.5655-4.8-3.95-4.8-2.2354,0-4.0489,1.6318-4.0489,4.8v6.48h-.9941v-12h.9941v2.2071a4.7338,4.7338,0,0,1,4.1485-2.3994C569.4668,229.6511,571.6777,231.403,571.6777,235.1227Z" transform="translate(7 -38.822)"/><path d="M574.4072,235.82a6.2609,6.2609,0,1,1,6.2608,6.168A6.1,6.1,0,0,1,574.4072,235.82Zm11.5264-.0244a5.2667,5.2667,0,0,0-10.5322,0,5.2661,5.2661,0,0,0,10.5322,0Z" transform="translate(7 -38.822)"/><path d="M591.3711,224.6823v5.1611h2.584v.9356h-2.584v11.0644h-.9932V230.779h-1.5654v-.9356h1.5654v-5.2812a2.0261,2.0261,0,0,1,2.1114-2.0879,2.4045,2.4045,0,0,1,1.4658.4805v1.0312a2.2733,2.2733,0,0,0-1.3916-.5517A1.1676,1.1676,0,0,0,591.3711,224.6823Z" transform="translate(7 -38.822)"/><path d="M597.8281,224.6823v5.1611h2.584v.9356h-2.584v11.0644h-.9931V230.779H595.27v-.9356h1.5655v-5.2812a2.026,2.026,0,0,1,2.1113-2.0879,2.4043,2.4043,0,0,1,1.4658.4805v1.0312a2.2731,2.2731,0,0,0-1.3916-.5517A1.1676,1.1676,0,0,0,597.8281,224.6823Z" transform="translate(7 -38.822)"/><path class="cls-8" d="M294.2852,446.67l-12.0625,16.3125-.8438-.584,1.81-2.4463a5.9557,5.9557,0,0,1-6.18-.3545c-2.9336-2.0263-3.2158-5.8242-1.12-8.6591a6.43,6.43,0,0,1,8.8554-1.8018,5.5071,5.5071,0,0,1,2.35,5.5342l6.3476-8.585Zm-9.1514,10.6524a5.1057,5.1057,0,0,0-.9551-7.375,5.4317,5.4317,0,0,0-7.4463,1.5742c-1.7793,2.4062-1.5625,5.6054.8867,7.2959A5.4945,5.4945,0,0,0,285.1338,457.322Z" transform="translate(7 -38.822)"/><path class="cls-8" d="M289.6055,460.7165a5.0308,5.0308,0,0,0,1.2675,7.2519,6.12,6.12,0,0,0,4.835.9668l-.7832,1.0606a6.9148,6.9148,0,0,1-4.64-1.2315c-3.2715-2.2588-3.4541-6.02-1.3575-8.8545a6.454,6.454,0,0,1,8.9034-1.7373c3.0615,2.1143,2.9765,5.9366.8505,8.8116Zm8.7568,4.8457c1.2783-2.29,1.1611-5.0195-1.1191-6.5938a5.2691,5.2691,0,0,0-7.0069.9825Z" transform="translate(7 -38.822)"/><path class="cls-8" d="M300.8945,468.1735a6.5789,6.5789,0,0,1,9.2364-1.539,6.3735,6.3735,0,0,1,2.707,3.8417l-.8135,1.1006a5.7216,5.7216,0,0,0-10.2861-2.82,5.1559,5.1559,0,0,0,1.2305,7.5635,5.8992,5.8992,0,0,0,4.8632.9258l-.8134,1.1015a6.7791,6.7791,0,0,1-4.6377-1.2314A6.0912,6.0912,0,0,1,300.8945,468.1735Z" transform="translate(7 -38.822)"/><path class="cls-8" d="M320.8379,474.0583l-.6328.8564c-1.792-1.3291-4.292-.4062-5.8,1.6328l-4.2373,5.7295-.8438-.582L316.8633,471.5l.8437.582-1.4775,1.999A4.2341,4.2341,0,0,1,320.8379,474.0583Z" transform="translate(7 -38.822)"/><path class="cls-8" d="M318.6914,480.8005a5.03,5.03,0,0,0,1.2676,7.2519,6.13,6.13,0,0,0,4.834.9668L324.01,490.08a6.9115,6.9115,0,0,1-4.6387-1.2325c-3.2715-2.2587-3.4541-6.0195-1.3574-8.8535a6.4532,6.4532,0,0,1,8.9033-1.7383c3.0605,2.1143,2.9756,5.9366.85,8.8116Zm8.7559,4.8457c1.2793-2.29,1.1611-5.0205-1.1182-6.5948a5.2706,5.2706,0,0,0-7.0078.9834Z" transform="translate(7 -38.822)"/><path class="cls-8" d="M343.8389,490.1266,336.3,500.322l-.8447-.584,1.8095-2.4473a5.9519,5.9519,0,0,1-6.1787-.3535c-2.9336-2.0264-3.2158-5.8252-1.12-8.66a6.43,6.43,0,0,1,8.8555-1.8008A5.5031,5.5031,0,0,1,341.17,492.01l1.8242-2.4668Zm-4.6289,4.5342a5.1051,5.1051,0,0,0-.9551-7.375,5.432,5.432,0,0,0-7.4453,1.5752c-1.7793,2.4063-1.5616,5.6055.8857,7.2949A5.4931,5.4931,0,0,0,339.21,494.6608Z" transform="translate(7 -38.822)"/><path class="cls-8" d="M340.2344,500.82l1.0556-.1328a3.9009,3.9009,0,0,0,1.5713,3.18,2.6217,2.6217,0,0,0,3.7237-.294c2.1416-2.8955-3.9034-5.7138-1.4043-9.01a3.4011,3.4011,0,0,1,4.7158-.47,4.8965,4.8965,0,0,1,2.0107,3.5752l-.956.1709a3.9623,3.9623,0,0,0-1.6211-2.9365,2.399,2.399,0,0,0-3.3106.209c-2.0234,2.6064,4.0489,5.4756,1.3672,9.0146-1.15,1.5147-3.2568,1.8174-5.1553.5059A4.8167,4.8167,0,0,1,340.2344,500.82Z" transform="translate(7 -38.822)"/><path class="cls-8" d="M356.1025,498.5934l.8438.584-7.5391,10.1953-.8437-.584Zm1.8086-2.8789a.7835.7835,0,0,1,1.0869-.1738.7225.7225,0,0,1,.18,1.0488.7643.7643,0,0,1-1.0849.1748A.711.711,0,0,1,357.9111,495.7145Z" transform="translate(7 -38.822)"/><path class="cls-8" d="M366.04,512.2321l-4.2226,5.709-.8438-.582,4.0713-5.5059c1.99-2.6914,1.6856-4.9961-.3408-6.3965-1.8994-1.31-4.4658-.9883-6.4561,1.7031l-4.0712,5.5059-.8448-.584,7.5391-10.1953.8447.584-1.3867,1.875a5.0666,5.0666,0,0,1,5.0322.3945C367.6,506.2858,368.377,509.071,366.04,512.2321Z" transform="translate(7 -38.822)"/><path class="cls-8" d="M374.5771,526.0427c-2.3828,3.2216-5.96,2.97-8.4082,1.2783a8.3275,8.3275,0,0,1-3.0507-3.8926l.7138-.9238a7.4891,7.4891,0,0,0,2.8047,3.97,4.9531,4.9531,0,0,0,7.2217-1.1436l1.3721-1.8554a5.9709,5.9709,0,0,1-6.2149-.3487c-2.9345-2.0254-3.2168-5.8242-1.1211-8.6591a6.4316,6.4316,0,0,1,8.8565-1.8018,5.541,5.541,0,0,1,2.3642,5.5137l1.7881-2.461.8438.5821Zm2.5625-5.1915a5.1059,5.1059,0,0,0-.955-7.375,5.4329,5.4329,0,0,0-7.4463,1.5743c-1.7793,2.4062-1.5606,5.6054.8867,7.2959A5.4943,5.4943,0,0,0,377.14,520.8512Z" transform="translate(7 -38.822)"/><path class="cls-8" d="M393.0811,524.1276l.8447.583-7.5391,10.1953-.8447-.583Zm1.81-2.8779a.7816.7816,0,0,1,1.086-.1748.722.722,0,0,1,.1806,1.0488.7652.7652,0,0,1-1.0859.1748A.7092.7092,0,0,1,394.8906,521.25Z" transform="translate(7 -38.822)"/><path class="cls-8" d="M403.0205,537.7663l-4.2226,5.71-.8438-.583,4.0713-5.5048c1.99-2.6924,1.6855-4.9971-.3408-6.3965-1.9-1.3115-4.4658-.9893-6.4561,1.7031L391.1572,538.2l-.8447-.583,7.5391-10.1953.8447.583-1.3867,1.8759a5.0642,5.0642,0,0,1,5.0322.3946C404.58,531.82,405.3574,534.6061,403.0205,537.7663Z" transform="translate(7 -38.822)"/><path class="cls-8" d="M407.9375,549.7868l-.8447-.584,6.9511-9.3994L410.33,537.238l-6.9512,9.4-.8447-.583,6.9512-9.4-1.33-.918.5879-.7959,1.33.9189,3.3174-4.4853a2.1964,2.1964,0,0,1,3.1055-.5352,2.3808,2.3808,0,0,1,.9443,1.2676l-.6484.876a2.2379,2.2379,0,0,0-.8359-1.2852,1.2665,1.2665,0,0,0-1.7959.3614l-3.2422,4.3837,4.5586,3.1485Zm9.7705-12.7822a.7653.7653,0,0,1-1.085.1748.7088.7088,0,0,1-.1816-1.0489.7818.7818,0,0,1,1.0869-.1748A.7226.7226,0,0,1,417.708,537.0046Z" transform="translate(7 -38.822)"/><path class="cls-8" d="M423.9258,536.1852l.8437.5821L412.707,553.08l-.8437-.5821Z" transform="translate(7 -38.822)"/><path class="cls-8" d="M426.623,548.4889,424.45,546.988l-6.9512,9.4-.8447-.583,6.9512-9.4-1.3516-.9327.5879-.7949,1.3516.9326,2.0205-2.7324.8447.583-2.0205,2.7324,2.1728,1.501Z" transform="translate(7 -38.822)"/><path class="cls-8" d="M433.4229,551.7985l-.6329.8565c-1.791-1.3291-4.291-.4063-5.7988,1.6328l-4.2373,5.73-.8447-.583,7.539-10.1954.8448.5831-1.4776,1.998A4.2326,4.2326,0,0,1,433.4229,551.7985Z" transform="translate(7 -38.822)"/><path class="cls-8" d="M444.457,559.6012l-7.539,10.1954-.8448-.5821,1.81-2.4472a5.9541,5.9541,0,0,1-6.1787-.3545c-2.9346-2.0264-3.2168-5.8252-1.1211-8.6592a6.43,6.43,0,0,1,8.8565-1.8018,5.5056,5.5056,0,0,1,2.3486,5.5342l1.8242-2.4668Zm-4.6289,4.5352a5.1054,5.1054,0,0,0-.956-7.375,5.4327,5.4327,0,0,0-7.4453,1.5742c-1.7793,2.4063-1.5616,5.6055.8857,7.2969A5.4963,5.4963,0,0,0,439.8281,564.1364Z" transform="translate(7 -38.822)"/><path class="cls-8" d="M450.834,565.2057l-2.1738-1.5009-6.9512,9.4-.8447-.5831,6.9511-9.4-1.3506-.9327.5879-.7949,1.3506.9326,2.0205-2.7324.8448.583L449.248,562.91l2.1739,1.501Z" transform="translate(7 -38.822)"/><path class="cls-8" d="M453.87,566.1012l.8447.584-7.539,10.1953-.8447-.5839Zm1.81-2.8779a.7823.7823,0,0,1,1.0859-.1748.722.722,0,0,1,.18,1.0488.7644.7644,0,0,1-1.0849.1758A.71.71,0,0,1,455.68,563.2233Z" transform="translate(7 -38.822)"/><path class="cls-8" d="M454.1064,573.9343a6.624,6.624,0,0,1,9.1788-1.5479,6.13,6.13,0,0,1,1.458,8.8926,6.6293,6.6293,0,0,1-9.1934,1.5683A6.1357,6.1357,0,0,1,454.1064,573.9343Zm9.8077,6.7421a5.1635,5.1635,0,0,0-1.2178-7.4951,5.594,5.594,0,0,0-7.7315,1.3145,5.2378,5.2378,0,0,0,1.1729,7.5556A5.643,5.643,0,0,0,463.9141,580.6764Z" transform="translate(7 -38.822)"/><path class="cls-8" d="M476.6,588.572l-4.2226,5.71-.8438-.583,4.0713-5.5049c1.99-2.6914,1.6865-4.997-.3408-6.3955-1.8994-1.3125-4.4658-.9892-6.4561,1.7022l-4.0713,5.5048-.8437-.582,7.539-10.1953.8438.582-1.3867,1.877a5.0637,5.0637,0,0,1,5.0332.3945C478.1592,582.6266,478.9365,585.4118,476.6,588.572Z" transform="translate(7 -38.822)"/><path class="cls-8" d="M477.2334,594.1843l.8652.5976-4.2558,3.8994-.6328-.4365Zm4.7822-7.8477a.8042.8042,0,0,1,1.1006-.1953.7431.7431,0,0,1,.165,1.0693.779.779,0,0,1-1.0849.1748A.7236.7236,0,0,1,482.0156,586.3366Z" transform="translate(7 -38.822)"/><path class="cls-8" d="M283.0615,485.1325l.8438.583-7.5391,10.1953-.8437-.583Zm1.8086-2.8789a.7821.7821,0,0,1,1.086-.1738.7235.7235,0,0,1,.1806,1.0488.7641.7641,0,0,1-1.0849.1738A.7092.7092,0,0,1,284.87,482.2536Z" transform="translate(7 -38.822)"/><path class="cls-8" d="M292.999,498.7712l-4.2217,5.709-.8437-.5821,4.0713-5.5058c1.99-2.6914,1.6855-4.9961-.3408-6.3955-1.9-1.3116-4.4659-.9893-6.4561,1.7021l-4.0713,5.5059-.8447-.584,7.5391-10.1953.8447.584-1.3867,1.8759a5.0641,5.0641,0,0,1,5.0322.3946C294.56,492.8259,295.3359,495.611,292.999,498.7712Z" transform="translate(7 -38.822)"/><path class="cls-8" d="M294.8691,500.986a6.5778,6.5778,0,0,1,9.2364-1.5381,6.3733,6.3733,0,0,1,2.707,3.8408l-.8145,1.1006a5.51,5.51,0,0,0-2.48-4.1464,5.57,5.57,0,0,0-7.8047,1.3261,5.1572,5.1572,0,0,0,1.2305,7.5645,5.901,5.901,0,0,0,4.8632.9248l-.8144,1.1015a6.7778,6.7778,0,0,1-4.6367-1.2314A6.0911,6.0911,0,0,1,294.8691,500.986Z" transform="translate(7 -38.822)"/><path class="cls-8" d="M314.8125,506.8718l-.6338.8564c-1.792-1.33-4.29-.4062-5.7978,1.6328l-4.2373,5.73-.8448-.583,7.5391-10.1953.8447.583-1.4775,1.999A4.2323,4.2323,0,0,1,314.8125,506.8718Z" transform="translate(7 -38.822)"/><path class="cls-8" d="M312.665,513.613a5.0312,5.0312,0,0,0,1.2686,7.2519,6.1269,6.1269,0,0,0,4.835.9668l-.7842,1.0606a6.916,6.916,0,0,1-4.6387-1.2315c-3.2715-2.26-3.4541-6.02-1.3584-8.8545a6.454,6.454,0,0,1,8.9043-1.7373c3.06,2.1143,2.9746,5.9356.8486,8.8106Zm8.7559,4.8457c1.28-2.29,1.1611-5.02-1.1182-6.5948a5.271,5.271,0,0,0-7.0078.9834Z" transform="translate(7 -38.822)"/><path class="cls-8" d="M337.8135,522.9391l-7.5391,10.1954-.8447-.584,1.81-2.4463a5.9544,5.9544,0,0,1-6.1788-.3545c-2.9335-2.0264-3.2167-5.8252-1.12-8.6592a6.4305,6.4305,0,0,1,8.8555-1.8018,5.5045,5.5045,0,0,1,2.3486,5.5342l1.8243-2.4677Zm-4.6289,4.5352a5.1051,5.1051,0,0,0-.9561-7.375,5.43,5.43,0,0,0-7.4443,1.5742c-1.7793,2.4063-1.5625,5.6055.8857,7.2949A5.4931,5.4931,0,0,0,333.1846,527.4743Z" transform="translate(7 -38.822)"/><path class="cls-8" d="M334.209,533.6335l1.0556-.1338a3.8943,3.8943,0,0,0,1.5713,3.18,2.6216,2.6216,0,0,0,3.7237-.294c2.1416-2.8955-3.9043-5.7138-1.4043-9.0088a3.4013,3.4013,0,0,1,4.7158-.4707,4.8965,4.8965,0,0,1,2.0107,3.5752l-.956.1709a3.9669,3.9669,0,0,0-1.6211-2.9365,2.4,2.4,0,0,0-3.3115.209c-2.0235,2.6074,4.05,5.4756,1.3681,9.0146-1.1513,1.5147-3.2568,1.8174-5.1552.5059A4.8161,4.8161,0,0,1,334.209,533.6335Z" transform="translate(7 -38.822)"/><path class="cls-8" d="M350.0771,531.4059l.8438.584-7.5391,10.1953-.8437-.584Zm1.8086-2.8779a.7823.7823,0,0,1,1.086-.1748.7236.7236,0,0,1,.1806,1.0488.7643.7643,0,0,1-1.0849.1748A.7093.7093,0,0,1,351.8857,528.528Z" transform="translate(7 -38.822)"/><path class="cls-8" d="M360.0137,545.0446l-4.2217,5.709-.8438-.582,4.0713-5.5059c1.99-2.6914,1.6856-4.9961-.3408-6.3965-1.8994-1.31-4.4658-.9883-6.456,1.7031l-4.0713,5.5059-.8448-.584,7.5391-10.1953.8447.584-1.3867,1.875a5.0666,5.0666,0,0,1,5.0332.3955C361.5742,539.0993,362.3506,541.8835,360.0137,545.0446Z" transform="translate(7 -38.822)"/><path class="cls-8" d="M368.5508,558.8552c-2.3819,3.2216-5.959,2.97-8.4072,1.2793a8.3373,8.3373,0,0,1-3.0518-3.8936l.7148-.9238a7.4891,7.4891,0,0,0,2.8047,3.97,4.952,4.952,0,0,0,7.2207-1.1436l1.3721-1.8554a5.9673,5.9673,0,0,1-6.2139-.3487c-2.9345-2.0254-3.2168-5.8242-1.12-8.6582a6.4285,6.4285,0,0,1,8.8555-1.8017,5.5372,5.5372,0,0,1,2.3633,5.5127l1.789-2.461.8438.5821Zm2.5635-5.1915a5.1053,5.1053,0,0,0-.9561-7.375,5.4305,5.4305,0,0,0-7.4443,1.5743c-1.7793,2.4062-1.5625,5.6054.8857,7.2968A5.4953,5.4953,0,0,0,371.1143,553.6637Z" transform="translate(7 -38.822)"/><path class="cls-8" d="M382.9727,562.16a5.0319,5.0319,0,0,0,1.27,7.252,6.12,6.12,0,0,0,4.834.9668l-.7842,1.0605a6.9042,6.9042,0,0,1-4.6377-1.2314c-3.2715-2.2588-3.4551-6.0205-1.3594-8.8545a6.4546,6.4546,0,0,1,8.9043-1.7363c3.0615,2.1133,2.9756,5.9355.85,8.8105Zm8.7568,4.8457c1.2793-2.29,1.1611-5.0195-1.1182-6.5937a5.27,5.27,0,0,0-7.0078.9824Z" transform="translate(7 -38.822)"/><path class="cls-8" d="M402.7871,567.6179l-.6338.8564c-1.79-1.33-4.29-.4063-5.7978,1.6328l-4.2373,5.73-.8448-.583,7.5391-10.1953.8447.583L398.18,567.64A4.2324,4.2324,0,0,1,402.7871,567.6179Z" transform="translate(7 -38.822)"/><path class="cls-8" d="M399.9766,573.5319a6.6242,6.6242,0,0,1,9.1787-1.5478,6.13,6.13,0,0,1,1.459,8.8925,6.63,6.63,0,0,1-9.1944,1.5684A6.1373,6.1373,0,0,1,399.9766,573.5319Zm9.8095,6.7422a5.163,5.163,0,0,0-1.2187-7.4951,5.5953,5.5953,0,0,0-7.7315,1.3154,5.2376,5.2376,0,0,0,1.1729,7.5547A5.6441,5.6441,0,0,0,409.7861,580.2741Z" transform="translate(7 -38.822)"/><path class="cls-8" d="M409.9844,585.9548l1.0547-.1328a3.8975,3.8975,0,0,0,1.5713,3.18,2.6226,2.6226,0,0,0,3.7246-.2939c2.1416-2.8955-3.9043-5.7139-1.4053-9.0088a3.4024,3.4024,0,0,1,4.7168-.4707,4.9,4.9,0,0,1,2.0107,3.5752l-.956.1709a3.9635,3.9635,0,0,0-1.6221-2.9365,2.3989,2.3989,0,0,0-3.31.209c-2.0235,2.6064,4.0488,5.4755,1.3681,9.0146-1.1523,1.5147-3.2568,1.8174-5.1562.5059A4.8131,4.8131,0,0,1,409.9844,585.9548Z" transform="translate(7 -38.822)"/><path class="cls-8" d="M425.8516,583.7282l.8447.584-7.5391,10.1953-.8447-.584Zm1.8095-2.8789a.7818.7818,0,0,1,1.085-.1738.7229.7229,0,0,1,.1816,1.0488.7655.7655,0,0,1-1.0859.1748A.71.71,0,0,1,427.6611,580.8493Z" transform="translate(7 -38.822)"/><path class="cls-8" d="M426.0859,591.56a6.6242,6.6242,0,0,1,9.1787-1.5478,6.13,6.13,0,0,1,1.459,8.8926,6.63,6.63,0,0,1-9.1943,1.5673A6.1362,6.1362,0,0,1,426.0859,591.56Zm9.81,6.7422a5.163,5.163,0,0,0-1.2187-7.4951,5.5951,5.5951,0,0,0-7.7315,1.3154,5.2369,5.2369,0,0,0,1.1729,7.5547A5.644,5.644,0,0,0,435.8955,598.3024Z" transform="translate(7 -38.822)"/><path class="cls-8" d="M448.58,606.1989l-4.2217,5.709-.8438-.582,4.0713-5.5059c1.99-2.6914,1.6856-4.9961-.3408-6.3965-1.9-1.31-4.4658-.9883-6.456,1.7031l-4.0713,5.5059-.8448-.584,7.5391-10.1953.8447.584-1.3867,1.875a5.0668,5.0668,0,0,1,5.0322.3945C450.1406,600.2526,450.917,603.0378,448.58,606.1989Z" transform="translate(7 -38.822)"/><path d="M999.4658,371.1677v1.0078c-2.1611-.0723-3.5771,1.9922-3.5771,4.3925v6.7442h-.9942v-12h.9942v2.3515A3.9283,3.9283,0,0,1,999.4658,371.1677Z" transform="translate(7 -38.822)"/><path d="M1011.8594,371.3122v12h-.9932v-2.207a4.7338,4.7338,0,0,1-4.1484,2.3994c-2.6338,0-4.8438-1.752-4.8438-5.4717v-6.7207h.9932v6.4805c0,3.1679,1.5654,4.8,3.95,4.8,2.2353,0,4.0488-1.6319,4.0488-4.8v-6.4805Z" transform="translate(7 -38.822)"/><path d="M1026.2148,376.5915v6.7207h-.9931v-6.4805c0-3.168-1.5655-4.8-3.95-4.8-2.2354,0-4.0488,1.6318-4.0488,4.8v6.4805h-.9942v-12h.9942v2.207a4.7338,4.7338,0,0,1,4.1484-2.3994C1024.0039,371.12,1026.2148,372.8718,1026.2148,376.5915Z" transform="translate(7 -38.822)"/><path d="M1028.9453,377.2887a6.2609,6.2609,0,1,1,6.2608,6.168A6.1,6.1,0,0,1,1028.9453,377.2887Zm11.5264-.0244a5.2667,5.2667,0,0,0-10.5322,0,5.2661,5.2661,0,0,0,10.5322,0Z" transform="translate(7 -38.822)"/><path d="M1045.9082,366.1511v5.1611h2.584v.9355h-2.584v11.0645h-.9932V372.2477H1043.35v-.9355h1.5654v-5.2813a2.0261,2.0261,0,0,1,2.1114-2.0879,2.4052,2.4052,0,0,1,1.4658.4805v1.0313a2.2734,2.2734,0,0,0-1.3916-.5518A1.1677,1.1677,0,0,0,1045.9082,366.1511Z" transform="translate(7 -38.822)"/><path d="M1052.3652,366.1511v5.1611h2.584v.9355h-2.584v11.0645h-.9931V372.2477h-1.5655v-.9355h1.5655v-5.2813a2.026,2.026,0,0,1,2.1113-2.0879,2.4049,2.4049,0,0,1,1.4658.4805v1.0313a2.2731,2.2731,0,0,0-1.3916-.5518A1.1677,1.1677,0,0,0,1052.3652,366.1511Z" transform="translate(7 -38.822)"/><path d="M1083.165,371.3122l-6.4336,12.1924h-.2988L1073.65,378.08l-2.7568,5.4248h-.2979l-6.4092-12.1924h1.0928l5.49,10.5117,2.3848-4.7519-2.9063-5.76h1.0928l2.335,4.7754,2.3105-4.7754h1.0928l-2.9062,5.76,2.4091,4.7519,5.4649-10.5117Z" transform="translate(7 -38.822)"/><path d="M1096.1533,371.3122v12h-.9931v-2.88a5.5577,5.5577,0,0,1-5.0176,3.0479,6.1636,6.1636,0,0,1,0-12.3125,5.5567,5.5567,0,0,1,5.0176,3.0488v-2.9043Zm-.9931,6.0234a5.0734,5.0734,0,0,0-4.9932-5.2324,5.2316,5.2316,0,0,0,0,10.4414A5.0526,5.0526,0,0,0,1095.16,377.3356Z" transform="translate(7 -38.822)"/><path d="M1104.3486,372.2477H1101.79v11.0645h-.9941V372.2477h-1.59v-.9355h1.59v-3.2168h.9941v3.2168h2.5586Z" transform="translate(7 -38.822)"/><path d="M1106.5586,377.5759a5.0117,5.0117,0,0,0,5.167,4.9687,5.7924,5.7924,0,0,0,4.3223-1.8476v1.248a6.5813,6.5813,0,0,1-4.3223,1.5352,6.1582,6.1582,0,0,1-.2236-12.3125c3.6015,0,5.7382,3.0244,5.7382,6.4082Zm9.6133-.9356c-.3233-2.4726-1.9873-4.5371-4.67-4.5371a4.8581,4.8581,0,0,0-4.8936,4.5371Z" transform="translate(7 -38.822)"/><path d="M1125.1367,371.1677v1.0078c-2.1611-.0723-3.5771,1.9922-3.5771,4.3925v6.7442h-.9932v-12h.9932v2.3515A3.9293,3.9293,0,0,1,1125.1367,371.1677Z" transform="translate(7 -38.822)"/><path d="M1147.415,371.3122v12h-.9931v-2.88a5.5576,5.5576,0,0,1-5.0176,3.0479,6.1636,6.1636,0,0,1,0-12.3125,5.5566,5.5566,0,0,1,5.0176,3.0488v-2.9043Zm-.9931,6.0234a5.0734,5.0734,0,0,0-4.9932-5.2324,5.2316,5.2316,0,0,0,0,10.4414A5.0526,5.0526,0,0,0,1146.4219,377.3356Z" transform="translate(7 -38.822)"/><path d="M1161.7705,376.5915v6.7207h-.9932v-6.4805c0-3.168-1.5654-4.8-3.95-4.8-2.2353,0-4.0488,1.6318-4.0488,4.8v6.4805h-.9931v-12h.9931v2.207a4.734,4.734,0,0,1,4.1485-2.3994C1159.56,371.12,1161.7705,372.8718,1161.7705,376.5915Z" transform="translate(7 -38.822)"/><path d="M1176.375,364.111v19.2012h-.9932v-2.88a5.5575,5.5575,0,0,1-5.0175,3.0479,6.1636,6.1636,0,0,1,0-12.3125,5.5564,5.5564,0,0,1,5.0175,3.0488V364.111Zm-.9932,13.2246a5.0733,5.0733,0,0,0-4.9931-5.2324,5.2316,5.2316,0,0,0,0,10.4414A5.0525,5.0525,0,0,0,1175.3818,377.3356Z" transform="translate(7 -38.822)"/><path d="M1189.5117,377.5759a5.0117,5.0117,0,0,0,5.167,4.9687,5.7924,5.7924,0,0,0,4.3223-1.8476v1.248a6.5813,6.5813,0,0,1-4.3223,1.5352,6.1582,6.1582,0,0,1-.2236-12.3125c3.6015,0,5.7383,3.0244,5.7383,6.4082Zm9.6133-.9356c-.3232-2.4726-1.9873-4.5371-4.67-4.5371a4.8581,4.8581,0,0,0-4.8936,4.5371Z" transform="translate(7 -38.822)"/><path d="M1208.09,371.1677v1.0078c-2.1611-.0723-3.5771,1.9922-3.5771,4.3925v6.7442h-.9932v-12h.9932v2.3515A3.93,3.93,0,0,1,1208.09,371.1677Z" transform="translate(7 -38.822)"/><path d="M1209.3047,377.2887a6.2609,6.2609,0,1,1,6.2607,6.168A6.1,6.1,0,0,1,1209.3047,377.2887Zm11.5264-.0244a5.2668,5.2668,0,0,0-10.5323,0,5.2662,5.2662,0,0,0,10.5323,0Z" transform="translate(7 -38.822)"/><path d="M1236.23,364.111v19.2012h-.9932v-2.88a5.5575,5.5575,0,0,1-5.0175,3.0479,6.1636,6.1636,0,0,1,0-12.3125,5.5564,5.5564,0,0,1,5.0175,3.0488V364.111Zm-.9932,13.2246a5.0733,5.0733,0,0,0-4.9931-5.2324,5.2316,5.2316,0,0,0,0,10.4414A5.0525,5.0525,0,0,0,1235.2363,377.3356Z" transform="translate(7 -38.822)"/><path d="M1240.6738,377.5759a5.0117,5.0117,0,0,0,5.167,4.9687,5.7924,5.7924,0,0,0,4.3223-1.8476v1.248a6.5813,6.5813,0,0,1-4.3223,1.5352,6.1582,6.1582,0,0,1-.2236-12.3125c3.6016,0,5.7383,3.0244,5.7383,6.4082Zm9.6133-.9356c-.3232-2.4726-1.9873-4.5371-4.67-4.5371a4.8581,4.8581,0,0,0-4.8936,4.5371Z" transform="translate(7 -38.822)"/><path d="M1265.6357,364.111v19.2012h-.9931v-2.88a5.5576,5.5576,0,0,1-5.0176,3.0479,6.1636,6.1636,0,0,1,0-12.3125,5.5566,5.5566,0,0,1,5.0176,3.0488V364.111Zm-.9931,13.2246a5.0734,5.0734,0,0,0-4.9932-5.2324,5.2316,5.2316,0,0,0,0,10.4414A5.0526,5.0526,0,0,0,1264.6426,377.3356Z" transform="translate(7 -38.822)"/><path d="M992.1758,410.3845l.7451-.6719a3.9408,3.9408,0,0,0,3.0557,1.6318c1.49,0,2.7324-.84,2.7324-2.2324,0-3.4082-6.335-2.3525-6.2852-6.2647.0244-1.68,1.49-2.88,3.4033-2.9043a4.9674,4.9674,0,0,1,3.627,1.7051l-.6465.6475a4.0177,4.0177,0,0,0-2.956-1.416,2.221,2.221,0,0,0-2.459,1.9443c-.0742,3.12,6.3095,2.0879,6.26,6.2881-.0244,1.8-1.49,3.1689-3.7255,3.1689A4.8754,4.8754,0,0,1,992.1758,410.3845Z" transform="translate(7 -38.822)"/><path d="M1002.085,406.0876a6.2609,6.2609,0,1,1,6.2607,6.1689A6.1007,6.1007,0,0,1,1002.085,406.0876Zm11.5263-.0235a5.2667,5.2667,0,0,0-10.5322,0,5.2661,5.2661,0,0,0,10.5322,0Z" transform="translate(7 -38.822)"/><path d="M1018.0547,396.8952a.7461.7461,0,0,1,1.4912,0,.7461.7461,0,0,1-1.4912,0Zm.249,3.2158h.9932v12.002h-.9932Z" transform="translate(7 -38.822)"/><path d="M1023.916,392.9108h.9942V412.113h-.9942Z" transform="translate(7 -38.822)"/><path d="M1048.9277,400.111v12.002h-.9931v-2.8809a5.5567,5.5567,0,0,1-5.0176,3.0488,6.164,6.164,0,0,1,0-12.3134,5.5576,5.5576,0,0,1,5.0176,3.0478V400.111Zm-.9931,6.0254a5.0734,5.0734,0,0,0-4.9932-5.2324,5.2311,5.2311,0,0,0,0,10.44A5.0523,5.0523,0,0,0,1047.9346,406.1364Z" transform="translate(7 -38.822)"/><path d="M1052.3779,406.112a6.06,6.06,0,0,1,6.31-6.169,6.4535,6.4535,0,0,1,4.3232,1.5372v1.2949a5.5828,5.5828,0,0,0-4.3232-1.8955,5.233,5.233,0,1,0,0,10.4648,5.5828,5.5828,0,0,0,4.3232-1.8955v1.2949a6.4534,6.4534,0,0,1-4.3232,1.5371A6.06,6.06,0,0,1,1052.3779,406.112Z" transform="translate(7 -38.822)"/><path d="M1065.8145,406.112a6.06,6.06,0,0,1,6.31-6.169,6.454,6.454,0,0,1,4.3233,1.5372v1.2949a5.5832,5.5832,0,0,0-4.3233-1.8955,5.233,5.233,0,1,0,0,10.4648,5.5832,5.5832,0,0,0,4.3233-1.8955v1.2949a6.4539,6.4539,0,0,1-4.3233,1.5371A6.06,6.06,0,0,1,1065.8145,406.112Z" transform="translate(7 -38.822)"/><path d="M1089.9326,400.111v12.002h-.9931v-2.209a4.7308,4.7308,0,0,1-4.1485,2.4c-2.6328,0-4.8437-1.752-4.8437-5.4727V400.111h.9931v6.4805c0,3.1689,1.5655,4.8008,3.95,4.8008,2.2354,0,4.0489-1.6319,4.0489-4.8008V400.111Z" transform="translate(7 -38.822)"/><path d="M1111.6416,404.96l-.0254,7.1534h-.9932v-6.9375c0-2.6153-1.3418-4.32-3.5771-4.32s-3.5771,1.705-3.5771,4.56l-.0254,6.6973h-.9932v-6.9375c0-2.6153-1.3418-4.32-3.5772-4.32s-3.5771,1.705-3.5771,4.56v6.6973h-.9932V400.111h.9932v1.92a4.1106,4.1106,0,0,1,3.7012-2.1113,4.26,4.26,0,0,1,4.124,2.9043,4.2,4.2,0,0,1,4.0488-2.9043C1109.6045,399.92,1111.6416,401.7194,1111.6416,404.96Z" transform="translate(7 -38.822)"/><path d="M1125.5479,400.111v12.002h-.9932v-2.209a4.7307,4.7307,0,0,1-4.1485,2.4c-2.6328,0-4.8437-1.752-4.8437-5.4727V400.111h.9932v6.4805c0,3.1689,1.5654,4.8008,3.95,4.8008,2.2353,0,4.0488-1.6319,4.0488-4.8008V400.111Z" transform="translate(7 -38.822)"/><path d="M1129.918,392.9108h.9931V412.113h-.9931Z" transform="translate(7 -38.822)"/><path d="M1146.2363,400.111v12.002h-.9931v-2.8809a5.5567,5.5567,0,0,1-5.0176,3.0488,6.164,6.164,0,0,1,0-12.3134,5.5576,5.5576,0,0,1,5.0176,3.0478V400.111Zm-.9931,6.0254a5.0734,5.0734,0,0,0-4.9932-5.2324,5.2311,5.2311,0,0,0,0,10.44A5.0523,5.0523,0,0,0,1145.2432,406.1364Z" transform="translate(7 -38.822)"/><path d="M1154.4316,401.0475h-2.5586V412.113h-.9941V401.0475h-1.59v-.9365h1.59v-3.2158h.9941v3.2158h2.5586Z" transform="translate(7 -38.822)"/><path d="M1156.6416,406.3766a5.0115,5.0115,0,0,0,5.167,4.9678,5.7927,5.7927,0,0,0,4.3223-1.8486v1.248a6.5767,6.5767,0,0,1-4.3223,1.5371,6.1587,6.1587,0,0,1-.2236-12.3134c3.6015,0,5.7382,3.0244,5.7382,6.4091Zm9.6133-.9365c-.3233-2.4726-1.9873-4.5361-4.67-4.5361a4.8586,4.8586,0,0,0-4.8936,4.5361Z" transform="translate(7 -38.822)"/><path d="M1169.6309,410.3845l.7451-.6719a3.9407,3.9407,0,0,0,3.0556,1.6318c1.49,0,2.7325-.84,2.7325-2.2324,0-3.4082-6.335-2.3525-6.2852-6.2647.0244-1.68,1.49-2.88,3.4033-2.9043a4.9674,4.9674,0,0,1,3.627,1.7051l-.6465.6475a4.0179,4.0179,0,0,0-2.9561-1.416,2.221,2.221,0,0,0-2.4589,1.9443c-.0743,3.12,6.31,2.0879,6.26,6.2881-.0244,1.8-1.49,3.1689-3.7256,3.1689A4.8754,4.8754,0,0,1,1169.6309,410.3845Z" transform="translate(7 -38.822)"/><path d="M1179.2422,400.736a.7451.7451,0,0,1,1.49,0,.7455.7455,0,0,1-1.49,0Zm.7949,8.6885h1.0186l-1.0684,5.3281h-.7451Z" transform="translate(7 -38.822)"/><path d="M1202.8877,405.3923v6.7207h-.9932v-6.4805c0-3.1689-1.5654-4.8008-3.95-4.8008-2.2353,0-4.0488,1.6319-4.0488,4.8008v6.4805h-.9932V392.9108h.9932V402.32a4.7306,4.7306,0,0,1,4.1484-2.4C1200.6768,399.92,1202.8877,401.6716,1202.8877,405.3923Z" transform="translate(7 -38.822)"/><path d="M1207.0332,396.8952a.7461.7461,0,0,1,1.4912,0,.7461.7461,0,0,1-1.4912,0Zm.249,3.2158h.9932v12.002h-.9932Z" transform="translate(7 -38.822)"/><path d="M1223.85,411.56c0,3.793-2.9307,5.52-5.8125,5.52a8.4331,8.4331,0,0,1-4.62-1.3916l.0244-1.1045a7.5764,7.5764,0,0,0,4.4717,1.584c2.7822,0,4.9931-1.6806,4.9678-4.7763v-2.1836a5.5712,5.5712,0,0,1-5.042,3.0722,6.164,6.164,0,0,1,0-12.3134,5.5916,5.5916,0,0,1,5.0175,3.0244l-.0244-2.8809h.9932Zm-.9932-5.4238a5.0733,5.0733,0,0,0-4.9931-5.2324,5.2311,5.2311,0,0,0,0,10.44A5.0522,5.0522,0,0,0,1222.8564,406.1364Z" transform="translate(7 -38.822)"/><path d="M1238.2051,405.3923v6.7207h-.9932v-6.4805c0-3.1689-1.5654-4.8008-3.95-4.8008-2.2353,0-4.0488,1.6319-4.0488,4.8008v6.4805h-.9941V392.9108h.9941V402.32a4.7306,4.7306,0,0,1,4.1484-2.4C1235.9941,399.92,1238.2051,401.6716,1238.2051,405.3923Z" transform="translate(7 -38.822)"/><path d="M1241.9287,406.3766a5.0115,5.0115,0,0,0,5.167,4.9678,5.7927,5.7927,0,0,0,4.3223-1.8486v1.248a6.5767,6.5767,0,0,1-4.3223,1.5371,6.1587,6.1587,0,0,1-.2236-12.3134c3.6015,0,5.7383,3.0244,5.7383,6.4091Zm9.6133-.9365c-.3232-2.4726-1.9873-4.5361-4.67-4.5361a4.8586,4.8586,0,0,0-4.8936,4.5361Z" transform="translate(7 -38.822)"/><path d="M1254.918,410.3845l.7451-.6719a3.9408,3.9408,0,0,0,3.0557,1.6318c1.49,0,2.7324-.84,2.7324-2.2324,0-3.4082-6.335-2.3525-6.2852-6.2647.0244-1.68,1.49-2.88,3.4033-2.9043a4.9674,4.9674,0,0,1,3.627,1.7051l-.6465.6475a4.0177,4.0177,0,0,0-2.956-1.416,2.221,2.221,0,0,0-2.459,1.9443c-.0743,3.12,6.31,2.0879,6.26,6.2881-.0244,1.8-1.49,3.1689-3.7256,3.1689A4.8754,4.8754,0,0,1,1254.918,410.3845Z" transform="translate(7 -38.822)"/><path d="M1269.0762,401.0475h-2.5586V412.113h-.9942V401.0475h-1.59v-.9365h1.59v-3.2158h.9942v3.2158h2.5586Z" transform="translate(7 -38.822)"/><path d="M991.5059,425.695a.7455.7455,0,0,1,1.49,0,.7455.7455,0,0,1-1.49,0Zm.248,3.2168h.9932v12.001h-.9932Z" transform="translate(7 -38.822)"/><path d="M1007.3525,434.1921v6.7207h-.9931v-6.4805c0-3.1689-1.5655-4.8-3.95-4.8-2.2354,0-4.0488,1.6309-4.0488,4.8v6.4805h-.9932v-12.001h.9932v2.208a4.7318,4.7318,0,0,1,4.1484-2.3994C1005.1416,428.72,1007.3525,430.4723,1007.3525,434.1921Z" transform="translate(7 -38.822)"/><path d="M1018.1064,440.9128h-.9941V429.8473H1012.74v11.0655h-.9931V429.8473h-1.5655v-.9355h1.5655v-5.28a2.0262,2.0262,0,0,1,2.1113-2.0888,2.4113,2.4113,0,0,1,1.4658.48v1.0323a2.2673,2.2673,0,0,0-1.3916-.5518,1.1671,1.1671,0,0,0-1.1924,1.248v5.16h5.3662Zm.2481-15.2178a.7455.7455,0,0,1-1.49,0,.7455.7455,0,0,1,1.49,0Z" transform="translate(7 -38.822)"/><path d="M1022.7246,421.7106h.9932v19.2022h-.9932Z" transform="translate(7 -38.822)"/><path d="M1031.9141,429.8473h-2.5586v11.0655h-.9942V429.8473h-1.59v-.9355h1.59V425.695h.9942v3.2168h2.5586Z" transform="translate(7 -38.822)"/><path d="M1039.1162,428.7673v1.0088c-2.1611-.0723-3.5771,1.9912-3.5771,4.3916v6.7451h-.9942v-12.001h.9942v2.3516A3.93,3.93,0,0,1,1039.1162,428.7673Z" transform="translate(7 -38.822)"/><path d="M1052.2061,428.9118v12.001h-.9932v-2.88a5.5574,5.5574,0,0,1-5.0176,3.0478,6.164,6.164,0,0,1,0-12.3134,5.5565,5.5565,0,0,1,5.0176,3.0488v-2.9043Zm-.9932,6.0244a5.0733,5.0733,0,0,0-4.9932-5.2324,5.2311,5.2311,0,0,0,0,10.44A5.0516,5.0516,0,0,0,1051.2129,434.9362Z" transform="translate(7 -38.822)"/><path d="M1060.4014,429.8473h-2.5586v11.0655h-.9942V429.8473h-1.59v-.9355h1.59V425.695h.9942v3.2168h2.5586Z" transform="translate(7 -38.822)"/><path d="M1063.0332,425.695a.7455.7455,0,0,1,1.49,0,.7455.7455,0,0,1-1.49,0Zm.248,3.2168h.9932v12.001h-.9932Z" transform="translate(7 -38.822)"/><path d="M1067.9746,434.8884a6.2609,6.2609,0,1,1,6.2608,6.1679A6.1,6.1,0,0,1,1067.9746,434.8884Zm11.5264-.0235a5.2667,5.2667,0,0,0-10.5322,0,5.2661,5.2661,0,0,0,10.5322,0Z" transform="translate(7 -38.822)"/><path d="M1093.9307,434.1921v6.7207h-.9932v-6.4805c0-3.1689-1.5654-4.8-3.95-4.8-2.2353,0-4.0488,1.6309-4.0488,4.8v6.4805h-.9932v-12.001h.9932v2.208a4.7318,4.7318,0,0,1,4.1484-2.3994C1091.72,428.72,1093.9307,430.4723,1093.9307,434.1921Z" transform="translate(7 -38.822)"/><path d="M1096.8594,429.5358a.7451.7451,0,0,1,1.49,0,.7455.7455,0,0,1-1.49,0Zm.7949,8.6885h1.0186l-1.0684,5.3281h-.7451Z" transform="translate(7 -38.822)"/><path d="M1122.3682,434.9118a5.9133,5.9133,0,0,1-5.8623,6.1689,5.5489,5.5489,0,0,1-4.9932-3v7.6319h-.9932V428.9118h.9932v2.8555a5.5507,5.5507,0,0,1,4.9932-3A5.9074,5.9074,0,0,1,1122.3682,434.9118Zm-.9932,0a4.9382,4.9382,0,1,0-9.8623-.5273V435.44a4.9383,4.9383,0,1,0,9.8623-.5283Z" transform="translate(7 -38.822)"/><path d="M1124.8984,434.8884a6.2609,6.2609,0,1,1,6.2608,6.1679A6.1,6.1,0,0,1,1124.8984,434.8884Zm11.5264-.0235a5.2667,5.2667,0,0,0-10.5322,0,5.2661,5.2661,0,0,0,10.5322,0Z" transform="translate(7 -38.822)"/><path d="M1139.9492,434.8884a6.2609,6.2609,0,1,1,6.2608,6.1679A6.1,6.1,0,0,1,1139.9492,434.8884Zm11.5264-.0235a5.2667,5.2667,0,0,0-10.5322,0,5.2661,5.2661,0,0,0,10.5322,0Z" transform="translate(7 -38.822)"/><path d="M1160.49,428.7673v1.0088c-2.1611-.0723-3.5771,1.9912-3.5771,4.3916v6.7451h-.9932v-12.001h.9932v2.3516A3.9308,3.9308,0,0,1,1160.49,428.7673Z" transform="translate(7 -38.822)"/><path d="M1182.7686,421.7106v19.2022h-.9932v-2.88a5.5574,5.5574,0,0,1-5.0176,3.0478,6.164,6.164,0,0,1,0-12.3134,5.5565,5.5565,0,0,1,5.0176,3.0488V421.7106Zm-.9932,13.2256a5.0733,5.0733,0,0,0-4.9932-5.2324,5.2311,5.2311,0,0,0,0,10.44A5.0516,5.0516,0,0,0,1181.7754,434.9362Z" transform="translate(7 -38.822)"/><path d="M1191.709,428.7673v1.0088c-2.1611-.0723-3.5772,1.9912-3.5772,4.3916v6.7451h-.9931v-12.001h.9931v2.3516A3.9309,3.9309,0,0,1,1191.709,428.7673Z" transform="translate(7 -38.822)"/><path d="M1204.7979,428.9118v12.001h-.9932v-2.88a5.5574,5.5574,0,0,1-5.0176,3.0478,6.164,6.164,0,0,1,0-12.3134,5.5565,5.5565,0,0,1,5.0176,3.0488v-2.9043Zm-.9932,6.0244a5.0733,5.0733,0,0,0-4.9932-5.2324,5.2311,5.2311,0,0,0,0,10.44A5.0516,5.0516,0,0,0,1203.8047,434.9362Z" transform="translate(7 -38.822)"/><path d="M1209.168,425.695a.7455.7455,0,0,1,1.49,0,.7455.7455,0,0,1-1.49,0Zm.248,3.2168h.9932v12.001h-.9932Z" transform="translate(7 -38.822)"/><path d="M1225.0146,434.1921v6.7207h-.9931v-6.4805c0-3.1689-1.5654-4.8-3.95-4.8-2.2354,0-4.0488,1.6309-4.0488,4.8v6.4805h-.9932v-12.001h.9932v2.208a4.7318,4.7318,0,0,1,4.1484-2.3994C1222.8037,428.72,1225.0146,430.4723,1225.0146,434.1921Z" transform="translate(7 -38.822)"/><path d="M1239.6191,428.9118v12.001h-.9931v-2.88a5.5575,5.5575,0,0,1-5.0176,3.0478,6.164,6.164,0,0,1,0-12.3134,5.5566,5.5566,0,0,1,5.0176,3.0488v-2.9043Zm-.9931,6.0244a5.0734,5.0734,0,0,0-4.9932-5.2324,5.2311,5.2311,0,0,0,0,10.44A5.0517,5.0517,0,0,0,1238.626,434.9362Z" transform="translate(7 -38.822)"/><path d="M1254.9434,440.361c0,3.792-2.9307,5.5195-5.8125,5.5195a8.4252,8.4252,0,0,1-4.62-1.3916l.0245-1.1044a7.5767,7.5767,0,0,0,4.4716,1.5839c2.7823,0,4.9932-1.68,4.9678-4.7754v-2.1845a5.571,5.571,0,0,1-5.042,3.0722,6.164,6.164,0,0,1,0-12.3134,5.5927,5.5927,0,0,1,5.0176,3.0254l-.0244-2.8809h.9931Zm-.9932-5.4248a5.0733,5.0733,0,0,0-4.9932-5.2324,5.2311,5.2311,0,0,0,0,10.44A5.0516,5.0516,0,0,0,1253.95,434.9362Z" transform="translate(7 -38.822)"/><path d="M1259.3877,435.1764a5.0115,5.0115,0,0,0,5.167,4.9678,5.7924,5.7924,0,0,0,4.3223-1.8476v1.248a6.5813,6.5813,0,0,1-4.3223,1.5361,6.1587,6.1587,0,0,1-.2236-12.3134c3.6015,0,5.7382,3.0254,5.7382,6.4091Zm9.6133-.9365c-.3233-2.4726-1.9873-4.5361-4.67-4.5361a4.8586,4.8586,0,0,0-4.8936,4.5361Z" transform="translate(7 -38.822)"/><path class="cls-9" d="M267.132,405.6667c33.2166,4.3542,61.947,24.3123,86.747,46.1051,23.9306,21.0288,48.8356,42.8276,76.42,60.08,29.7151,18.5852,63.7783,28.7228,92.4995,48.9628,17.0365,12.0057,31.34,30.4718,50.6872,39.1634" transform="translate(7 -38.822)"/><polygon class="cls-7" points="577.845 562.668 579.745 560.816 579.73 558.162 584.128 562.65 577.845 562.668"/><path class="cls-10" d="M759,367.3493c5,30-4.473,58.0118-23.4176,80.9819-16.5015,20.0077-42.1782,30.3789-66.4346,37.2774-5.0183,1.4272-10.0744,2.7124-15.1534,3.8974" transform="translate(7 -38.822)"/><polygon class="cls-11" points="664.348 443.296 663.086 450.183 667.167 455.872 650.852 452.925 664.348 443.296"/><line class="cls-12" x1="1137.709" y1="423.3799" x2="1137.709" y2="551.1915"/><polygon class="cls-11" points="1131.196 546.252 1137.709 549.019 1144.222 546.252 1137.709 561.691 1131.196 546.252"/><path class="cls-12" d="M515.6384,149.4665c-11.5219-40.0275-62.6157-30.7186-87.6617-8.9633-10.3234,8.9671-18.0825,20.2115-24.8432,31.8849" transform="translate(7 -38.822)"/><polygon class="cls-11" points="406.908 126.089 411.232 131.691 418.266 132.467 405.028 142.74 406.908 126.089"/><path d="M82.4668,42.9743a.7455.7455,0,0,1,1.49,0,.7455.7455,0,0,1-1.49,0Zm.248,3.2168h.9932v12h-.9932Z" transform="translate(7 -38.822)"/><path d="M98.3135,51.47v6.7207H97.32v-6.48c0-3.1679-1.5654-4.8-3.95-4.8-2.2353,0-4.0488,1.6319-4.0488,4.8v6.48h-.9932v-12h.9932v2.207A4.7338,4.7338,0,0,1,93.47,45.9987C96.1025,45.9987,98.3135,47.7507,98.3135,51.47Z" transform="translate(7 -38.822)"/><path d="M109.0674,58.1911h-.9942V47.1266h-4.372V58.1911h-.9932V47.1266h-1.5654v-.9355h1.5654V40.91a2.026,2.026,0,0,1,2.1113-2.0878,2.4054,2.4054,0,0,1,1.4659.48v1.0313a2.2736,2.2736,0,0,0-1.3916-.5518,1.1677,1.1677,0,0,0-1.1924,1.2481v5.1611h5.3662Zm.248-15.2168a.7455.7455,0,0,1-1.49,0,.7455.7455,0,0,1,1.49,0Z" transform="translate(7 -38.822)"/><path d="M113.6855,38.99h.9932V58.1911h-.9932Z" transform="translate(7 -38.822)"/><path d="M122.875,47.1266h-2.5586V58.1911h-.9941V47.1266h-1.59v-.9355h1.59V42.9743h.9941v3.2168h2.5586Z" transform="translate(7 -38.822)"/><path d="M130.0771,46.0466v1.0078c-2.1611-.0723-3.5771,1.9922-3.5771,4.3926v6.7441h-.9941v-12H126.5v2.3516A3.9284,3.9284,0,0,1,130.0771,46.0466Z" transform="translate(7 -38.822)"/><path d="M143.167,46.1911v12h-.9932v-2.88a5.5575,5.5575,0,0,1-5.0176,3.0479,6.1636,6.1636,0,0,1,0-12.3125,5.5565,5.5565,0,0,1,5.0176,3.0488V46.1911Zm-.9932,6.0234a5.0733,5.0733,0,0,0-4.9931-5.2324,5.2316,5.2316,0,0,0,0,10.4414A5.0525,5.0525,0,0,0,142.1738,52.2145Z" transform="translate(7 -38.822)"/><path d="M151.3623,47.1266h-2.5586V58.1911H147.81V47.1266h-1.59v-.9355h1.59V42.9743h.9941v3.2168h2.5586Z" transform="translate(7 -38.822)"/><path d="M153.5713,52.4548a5.0117,5.0117,0,0,0,5.167,4.9687,5.792,5.792,0,0,0,4.3222-1.8476v1.248a6.58,6.58,0,0,1-4.3222,1.5352,6.1582,6.1582,0,0,1-.2237-12.3125c3.6016,0,5.7383,3.0244,5.7383,6.4082Zm9.6133-.9356c-.3233-2.4726-1.9873-4.5371-4.67-4.5371a4.8587,4.8587,0,0,0-4.8935,4.5371Z" transform="translate(7 -38.822)"/><path d="M166.5605,56.4636l.7452-.6729a3.9388,3.9388,0,0,0,3.0556,1.6328c1.49,0,2.7325-.84,2.7325-2.2324,0-3.4082-6.335-2.3516-6.2852-6.2637.0244-1.6806,1.49-2.8808,3.4033-2.9043a4.9661,4.9661,0,0,1,3.627,1.7031l-.6465.6485a4.0144,4.0144,0,0,0-2.9561-1.416,2.2212,2.2212,0,0,0-2.459,1.9443c-.0742,3.12,6.31,2.0879,6.26,6.2881-.0244,1.8008-1.49,3.168-3.7256,3.168A4.8719,4.8719,0,0,1,166.5605,56.4636Z" transform="translate(7 -38.822)"/><path d="M197.0361,46.1911v12h-.9931v-2.88a5.5577,5.5577,0,0,1-5.0176,3.0479,6.1636,6.1636,0,0,1,0-12.3125,5.5567,5.5567,0,0,1,5.0176,3.0488V46.1911Zm-.9931,6.0234a5.0734,5.0734,0,0,0-4.9932-5.2324,5.2316,5.2316,0,0,0,0,10.4414A5.0526,5.0526,0,0,0,196.043,52.2145Z" transform="translate(7 -38.822)"/><path d="M211.3916,51.47v6.7207h-.9932v-6.48c0-3.1679-1.5654-4.8-3.95-4.8-2.2353,0-4.0488,1.6319-4.0488,4.8v6.48h-.9932v-12h.9932v2.207a4.734,4.734,0,0,1,4.1485-2.3994C209.1807,45.9987,211.3916,47.7507,211.3916,51.47Z" transform="translate(7 -38.822)"/><path d="M225.9961,38.99V58.1911h-.9932v-2.88a5.5575,5.5575,0,0,1-5.0175,3.0479,6.1636,6.1636,0,0,1,0-12.3125,5.5564,5.5564,0,0,1,5.0175,3.0488V38.99Zm-.9932,13.2246a5.0733,5.0733,0,0,0-4.9931-5.2324,5.2316,5.2316,0,0,0,0,10.4414A5.0525,5.0525,0,0,0,225.0029,52.2145Z" transform="translate(7 -38.822)"/><path d="M107.4541,67.79V86.9919h-.9932V84.111a5.5564,5.5564,0,0,1-5.0175,3.0488,6.164,6.164,0,0,1,0-12.3134,5.5574,5.5574,0,0,1,5.0175,3.0478V67.79Zm-.9932,13.2256a5.0733,5.0733,0,0,0-4.9931-5.2324,5.2311,5.2311,0,0,0,0,10.44A5.0522,5.0522,0,0,0,106.4609,81.0153Z" transform="translate(7 -38.822)"/><path d="M116.3945,74.8464v1.0078c-2.1611-.0713-3.5771,1.9922-3.5771,4.3926v6.7451h-.9932V74.99h.9932v2.3526A3.93,3.93,0,0,1,116.3945,74.8464Z" transform="translate(7 -38.822)"/><path d="M129.4844,74.99v12.002h-.9932V84.111a5.5565,5.5565,0,0,1-5.0176,3.0488,6.164,6.164,0,0,1,0-12.3134,5.5574,5.5574,0,0,1,5.0176,3.0478V74.99Zm-.9932,6.0254a5.0733,5.0733,0,0,0-4.9932-5.2324,5.2311,5.2311,0,0,0,0,10.44A5.0523,5.0523,0,0,0,128.4912,81.0153Z" transform="translate(7 -38.822)"/><path d="M133.8535,71.7741a.7461.7461,0,0,1,1.4912,0,.7461.7461,0,0,1-1.4912,0Zm.249,3.2158h.9932v12.002h-.9932Z" transform="translate(7 -38.822)"/><path d="M149.7012,80.2712v6.7207h-.9932V80.5114c0-3.1689-1.5654-4.8008-3.95-4.8008-2.2353,0-4.0488,1.6319-4.0488,4.8008v6.4805h-.9942V74.99h.9942v2.209a4.7306,4.7306,0,0,1,4.1484-2.4C147.49,74.7985,149.7012,76.5505,149.7012,80.2712Z" transform="translate(7 -38.822)"/><path d="M153.0771,85.2634l.7452-.6719a3.94,3.94,0,0,0,3.0547,1.6318c1.4912,0,2.7334-.84,2.7334-2.2324,0-3.4082-6.335-2.3525-6.2852-6.2647.0244-1.68,1.49-2.88,3.4033-2.9042a4.967,4.967,0,0,1,3.627,1.705l-.6465.6475a4.0161,4.0161,0,0,0-2.9561-1.416,2.2212,2.2212,0,0,0-2.459,1.9443c-.0742,3.12,6.31,2.0879,6.26,6.2881-.0244,1.8-1.49,3.1689-3.7256,3.1689A4.8758,4.8758,0,0,1,153.0771,85.2634Z" transform="translate(7 -38.822)"/><path d="M189.49,74.99l-6.4336,12.1934h-.2988L179.9756,81.76l-2.7568,5.4238h-.2979L170.5117,74.99h1.0928l5.49,10.5137,2.3848-4.7529L176.5723,74.99h1.0937l2.335,4.7774,2.31-4.7774h1.0928l-2.9063,5.7608,2.4092,4.7529L188.3721,74.99Z" transform="translate(7 -38.822)"/><path d="M191.5986,81.2555a5.0115,5.0115,0,0,0,5.167,4.9678,5.7926,5.7926,0,0,0,4.3223-1.8486v1.248a6.5767,6.5767,0,0,1-4.3223,1.5371,6.1587,6.1587,0,0,1-.2236-12.3134c3.6016,0,5.7383,3.0244,5.7383,6.4091Zm9.6133-.9365c-.3232-2.4726-1.9873-4.5361-4.67-4.5361a4.8587,4.8587,0,0,0-4.8936,4.5361Z" transform="translate(7 -38.822)"/><path d="M205.6055,67.79H206.6V86.9919h-.9941Z" transform="translate(7 -38.822)"/><path d="M210.9707,67.79h.9932V86.9919h-.9932Z" transform="translate(7 -38.822)"/><path class="cls-13" d="M279.26,45.64c39.6287,7.4269,29.9986,38.1538,8.2191,53.0129-9.3392,6.3717-21.1027,11.0392-33.2391,15.0912" transform="translate(7 -38.822)"/><polygon class="cls-11" points="263.288 68.906 262.826 74.363 266.432 78.484 253.508 77.421 263.288 68.906"/></g><path class="cls-14" d="M870.3341,177.8483a11.0655,11.0655,0,1,1,11.444-11.0592A11.2569,11.2569,0,0,1,870.3341,177.8483Z" transform="translate(7 -38.822)"/><polygon class="cls-14" points="875.717 114.995 877.671 111.724 879.625 114.995 875.717 114.995"/><polygon class="cls-14" points="868.135 118.391 867.727 114.634 871.297 116.171 868.135 118.391"/><polygon class="cls-14" points="864.066 125.445 861.451 122.638 865.274 121.852 864.066 125.445"/><polygon class="cls-14" points="865.066 133.462 861.243 132.677 863.858 129.87 865.066 133.462"/><polygon class="cls-14" points="870.751 139.381 867.18 140.917 867.589 137.161 870.751 139.381"/><polygon class="cls-14" points="878.951 140.94 876.996 144.211 875.042 140.94 878.951 140.94"/><polygon class="cls-14" points="886.533 137.544 886.941 141.3 883.371 139.764 886.533 137.544"/><polygon class="cls-14" points="890.601 130.49 893.216 133.297 889.393 134.082 890.601 130.49"/><polygon class="cls-14" points="889.602 122.472 893.425 123.258 890.81 126.065 889.602 122.472"/><polygon class="cls-14" points="883.916 116.554 887.488 115.018 887.079 118.774 883.916 116.554"/><polygon class="cls-15" points="1163.446 106.965 1241.721 206.553 1163.446 225.419 1080.338 205.403 1163.446 106.965"/><polygon class="cls-16" points="1163.446 106.965 1163.446 225.419 1080.338 205.403 1163.446 106.965"/><polygon class="cls-17" points="1194.396 145.987 1183.28 144.06 1178.261 150.251 1168.222 147.929 1163.446 155.798 1163.446 106.61 1194.396 145.987"/><polygon class="cls-7" points="1129.807 146.454 1143.611 144.06 1148.631 150.251 1158.67 147.929 1163.446 155.798 1163.446 106.61 1129.807 146.454"/><path class="cls-18" d="M899.4634,175.8029c49.817,13.0471,51.73,11.8515,51.73,11.8515l-6.7168-10.0321" transform="translate(7 -38.822)"/><line class="cls-18" x1="948.6307" y1="154.8106" x2="958.1929" y2="148.8324"/><polygon class="cls-8" points="985.068 152.074 906.793 251.661 985.068 270.527 1068.176 250.511 985.068 152.074"/><polygon class="cls-19" points="985.068 152.074 985.068 270.527 1068.176 250.511 985.068 152.074"/><polygon class="cls-17" points="954.118 191.096 965.234 189.168 970.253 195.36 980.292 193.038 985.068 200.906 985.068 151.719 954.118 191.096"/><polygon class="cls-7" points="1018.707 191.562 1004.903 189.168 999.883 195.36 989.844 193.038 985.068 200.906 985.068 151.719 1018.707 191.562"/><path class="cls-18" d="M885.9994,189.8062c34.4922,37.1038,36.77,37.1038,36.77,37.1038V214.9613" transform="translate(7 -38.822)"/><line class="cls-18" x1="918.3804" y1="188.088" x2="929.7693" y2="188.088"/><path class="cls-20" d="M1006.373,122.2048V134.236H1004.88v-2.4785a5.4751,5.4751,0,0,1-4.7285,2.6475,6.18,6.18,0,0,1,0-12.3448,5.4439,5.4439,0,0,1,4.7285,2.6719v-2.5273Zm-1.4931,6.04a4.645,4.645,0,0,0-4.58-4.7881,4.7846,4.7846,0,0,0,0,9.5528A4.6249,4.6249,0,0,0,1004.88,128.2448Z" transform="translate(7 -38.822)"/><path class="cls-20" d="M1009.5371,132.528l1.02-1.0586a4.0909,4.0909,0,0,0,3.0362,1.5635c1.3437,0,2.414-.7461,2.414-1.9248,0-3.0078-6.1963-2.02-6.1719-6.0156.0254-1.7325,1.543-3.0557,3.6338-3.08a5.2687,5.2687,0,0,1,3.7578,1.708l-.9209,1.0351a3.9861,3.9861,0,0,0-2.8125-1.3476,1.9343,1.9343,0,0,0-2.165,1.6846c-.05,2.792,6.1973,1.8291,6.1719,6.04-.0244,1.8525-1.5928,3.2969-3.9571,3.2969A5.4561,5.4561,0,0,1,1009.5371,132.528Z" transform="translate(7 -38.822)"/><path class="cls-20" d="M1032.7344,128.22a5.9134,5.9134,0,0,1-5.8731,6.1846,5.4434,5.4434,0,0,1-4.7041-2.6231v7.2666h-1.4931V122.2048h1.4931v2.4785a5.4434,5.4434,0,0,1,4.7041-2.6231A5.8926,5.8926,0,0,1,1032.7344,128.22Zm-1.5176,0a4.5369,4.5369,0,0,0-9.06-.5049v1.0107a4.5369,4.5369,0,0,0,9.06-.5058Z" transform="translate(7 -38.822)"/><path class="cls-20" d="M1046.9248,128.7262h-10.2783a4.5736,4.5736,0,0,0,4.7783,4.3067,6.1238,6.1238,0,0,0,4.23-1.66V133.01a6.9173,6.9173,0,0,1-4.28,1.3955,6.1739,6.1739,0,0,1-.249-12.3448C1044.834,122.06,1046.999,125.1891,1046.9248,128.7262Zm-10.2539-1.2753h8.6611a4.2881,4.2881,0,0,0-4.206-3.9942A4.4355,4.4355,0,0,0,1036.6709,127.4509Z" transform="translate(7 -38.822)"/><path class="cls-20" d="M1049.1924,128.22a6.1135,6.1135,0,0,1,6.3467-6.208,6.3761,6.3761,0,0,1,4.1562,1.42v1.78a5.4228,5.4228,0,0,0-4.1064-1.78,4.79,4.79,0,1,0,0,9.5772,5.4168,5.4168,0,0,0,4.1064-1.7813V133.01a6.3761,6.3761,0,0,1-4.1562,1.42A6.1132,6.1132,0,0,1,1049.1924,128.22Z" transform="translate(7 -38.822)"/><path class="cls-20" d="M1067.6133,123.6012H1065.05V134.236h-1.4932V123.6012h-1.5927v-1.3964h1.5927V118.98h1.4932v3.2246h2.5635Z" transform="translate(7 -38.822)"/><line class="cls-21" x1="973.7059" y1="115.4013" x2="1098.1773" y2="115.4013"/></g></g></svg>