<svg xmlns="http://www.w3.org/2000/svg" viewBox="0 0 1184.66 365.01"><defs><style>.cls-1{fill:#f27243;}.cls-2{font-size:31.41px;fill:#fff;font-family:Acre-Semibold, Acre;font-weight:600;}.cls-3{fill:none;stroke:#5c5052;stroke-linecap:round;stroke-linejoin:round;stroke-width:5.38px;}.cls-4{fill:#5c5052;}.cls-5{fill:#bfbfbf;}.cls-6{fill:#3e3628;}.cls-7{fill:#5d5152;}.cls-8{fill:#2e61a1;stroke:#fff;stroke-miterlimit:10;stroke-width:0.54px;}.cls-9{fill:#3daaa1;}.cls-10{fill:#336da8;}</style></defs><g id="Layer_2" data-name="Layer 2"><g id="Layer_19" data-name="Layer 19"><path class="cls-1" d="M624.23,166.25c6,3.77,17,3,23.36,3.7,8.92,1,17.56.47,26.07,2,7.28,1.32,10.48.56,10.77,10.7.22,7.6-1.92,16.62-2.8,24.25-1.79,15.5-3.13,31.21-5.4,46.64-1.29,8.77-1.57,10.54-9.2,11.24s-15.4.08-23-.8c-10.25-1.18-20.63-2.17-30.17-6.32-5.8-2.53-6.51-1.76-6.81-11-.19-5.8.66-12.93.93-19,.53-11.76.91-71.41,16.29-61.38"/><text class="cls-2" transform="matrix(0.99, 0.11, -0.11, 0.99, 613.93, 230.35)">NPK</text><path class="cls-3" d="M476.76,273.33c52.36-13.59,107.51-3.14,161,4.71,96.37,14.12,193.77,19.6,291,25,51,2.86,103.48,5.55,152-10.62"/><circle class="cls-4" cx="797.73" cy="246.63" r="56.65"/><circle class="cls-4" cx="953.95" cy="256.44" r="45.54"/><path class="cls-1" d="M954.17,206.33a47.51,47.51,0,0,1,24.19,6.58c-2.55-14.95-5-33.76-11.77-40.57C954,159.7,903,161.77,903,161.77l-4.51-55.17s-3-17.06-21.57-17.06H807.68s-19.56,3.51-20.06,26.09-2.51,43.13-2.51,43.13-30.6-3-33.1,15.55c-1.42,10.48-1.56,23-1.41,32A60.14,60.14,0,0,1,857.89,238.5l51.93-2.09A47.74,47.74,0,0,1,954.17,206.33Zm-117.9-54.09H794.14s1.5-19.56,2.51-36.61S812.2,98.07,812.2,98.07h24.07Zm7.53,10.53V98.57s35.61-2.51,41.63,4S893,162.77,893,162.77Z"/><circle class="cls-5" cx="797.73" cy="246.63" r="29.85"/><circle class="cls-5" cx="953.95" cy="256.44" r="23.97"/><path class="cls-6" d="M93.85,51.88C124.78,40,163,42.25,186,18.42A2448.79,2448.79,0,0,1,299.61,251.53c4.3,10.16,8.26,22.77,1.42,31.43-3.57,4.51-9.27,6.67-14.74,8.46-22.05,7.23-45.1,11.68-66.16,21.43-25.94,12-74.11,42.59-101.76,35.35-20.54-5.38-12.29-35.07-20-54.86C79.63,245,85.18,187.07,54.25,145.48,45.83,134.16,35,124.59,28,112.32c-8.18-14.45-10.18-35.15,6.88-40.25,9.58-2.86,19.33-2.56,29.14-6.6C74.16,61.32,83.64,55.8,93.85,51.88Z"/><path class="cls-7" d="M66,315c2.46,10.91,4.8,22.09,10.44,31.75S91.79,364.44,103,365c16.49.8,29.88-15.27,32.15-31.62s-3.57-32.63-9.36-48.09Q88.31,185.32,49.08,86c-1.65-4.16-3.35-8.42-6.33-11.76-8-9-23.58-8.11-32.61-.09C-17.37,98.61,18.8,156.31,28,183.65,42.62,226.82,56,270.46,66,315Z"/><path class="cls-7" d="M93.29,107.07c-5.47-9.76-11.2-19.63-13.48-30.58s-.47-23.44,7.47-31.32c11.72-11.63,32.42-8.63,45.05,2s19.16,26.64,25.2,42q39,99.34,76.25,199.4c1.56,4.19,3.14,8.49,3.17,13,.06,12.08-12.11,21.8-24.19,21.88-36.78.24-48.48-66.84-59.9-93.34C134.82,188.25,115.6,146.84,93.29,107.07Z"/><path class="cls-7" d="M323,216.37c5.47,9.76,11.21,19.63,13.48,30.58s.48,23.44-7.47,31.32c-11.72,11.63-32.42,8.63-45.05-2s-19.16-26.64-25.19-42q-39-99.34-76.26-199.4c-1.56-4.19-3.14-8.49-3.16-13C179.28,9.8,191.46.08,203.53,0,240.31-.24,252,66.84,263.44,93.34,281.47,135.19,300.7,176.6,323,216.37Z"/><path class="cls-8" d="M74.47,291c.26-.91.5-1.83.79-2.76s.73-1.77,1.14-2.65.91-1.71,1.43-2.54a32.8,32.8,0,0,1,8.08-8.5,42,42,0,0,1,22.28-7.85A66.07,66.07,0,0,1,131.44,270c2.07.65,4.11,1.37,6.12,2.13-.32-.54-.65-1.08-1-1.64-1.39-1.24-2.83-2.45-4.29-3.67l-3.36-2.71-1.7-1.37c-.55-.43-1-.79-1.59-1.17a32.87,32.87,0,0,0-15.39-5.06c-5.53-.45-11.39.29-16.35,3.5a19.6,19.6,0,0,1,7.48-4.83,30.6,30.6,0,0,1,8.9-1.83,35,35,0,0,1,9.17.67,31,31,0,0,1,8.84,3.2c.7.38,1.42.85,2,1.27l.62.41a42.77,42.77,0,0,1-2.36-7.7,83.87,83.87,0,0,0,5.08,8.61l.08.11a41.33,41.33,0,0,1,.08-16.47A37,37,0,0,1,145.23,224c5.57-5,12.77-8.2,20-8.14a32.58,32.58,0,0,0-17,11,34.37,34.37,0,0,0-7.77,17.71A38.53,38.53,0,0,0,143,263.49a45.94,45.94,0,0,0,5.06,9.32,34.39,34.39,0,0,1,1.07-5.64,27.9,27.9,0,0,1,25.07-20.63,23.14,23.14,0,0,1,15.55,4.23,24.88,24.88,0,0,0-15.12-1.17,26.81,26.81,0,0,0-12.77,6.85,24.91,24.91,0,0,0-6.77,12.26,36.39,36.39,0,0,0-.53,11.9,4.28,4.28,0,0,1,.36,2.78,3.3,3.3,0,0,1-1.71,3.19,3.37,3.37,0,0,1-1.4.38,2.75,2.75,0,0,1-3.17.42l-.15-.08A55,55,0,0,0,136,282.18a29.51,29.51,0,0,0-13-.61,21,21,0,0,0-11.28,6.05A17,17,0,0,0,107,300.14a14.83,14.83,0,0,1-.79-7.42,17.79,17.79,0,0,1,2.8-7.24,22.53,22.53,0,0,1,12.76-9c.53-.15,1.06-.27,1.59-.39a62.79,62.79,0,0,0-15-2.53,40.5,40.5,0,0,0-10.25,1,37.67,37.67,0,0,0-9.8,3.62A29,29,0,0,0,74,293.77C74.16,292.85,74.3,291.91,74.47,291Z"/><path class="cls-8" d="M137.92,99.2c-.94-.06-1.9-.13-2.86-.16s-1.92.1-2.88.2-1.92.31-2.87.52a33,33,0,0,0-10.69,4.84,42,42,0,0,0-14.73,18.47c-3,7.38-4.21,15.34-4.48,23.06-.06,2.17,0,4.33,0,6.48-.41-.49-.81-1-1.23-1.45-.72-1.73-1.39-3.49-2.06-5.27l-1.46-4.06-.73-2.05c-.23-.67-.42-1.24-.58-1.89a32.85,32.85,0,0,1,.26-16.2c1.4-5.37,4-10.66,8.68-14.29a19.57,19.57,0,0,0-7,5.47,30.53,30.53,0,0,0-4.65,7.81,35,35,0,0,0-2.39,8.88,31.3,31.3,0,0,0,.12,9.41c.14.78.34,1.61.53,2.34l.19.73a43.51,43.51,0,0,0-6.5-4.76,83.27,83.27,0,0,1,6.46,7.63,1,1,0,0,1,.08.11,41.32,41.32,0,0,0-15.58-5.34,37,37,0,0,0-22.1,4.37c-6.52,3.62-12,9.36-14.25,16.17a32.7,32.7,0,0,1,16-12.44,34.37,34.37,0,0,1,19.29-1.53,38.58,38.58,0,0,1,17,8.69,45,45,0,0,1,7.13,7.85,33.43,33.43,0,0,0-5.67-.85,28.5,28.5,0,0,0-16.76,4.12,28.15,28.15,0,0,0-11,12.78,23.11,23.11,0,0,0-1.11,16.08,24.89,24.89,0,0,1,3.86-14.66,26.74,26.74,0,0,1,10.67-9.82,24.94,24.94,0,0,1,13.79-2.36,36.07,36.07,0,0,1,11.42,3.4,4.22,4.22,0,0,0,2.51,1.25,3.26,3.26,0,0,0,3.57-.56,3.3,3.3,0,0,0,.82-1.2,2.72,2.72,0,0,0,1.43-2.85l0-.17a55.44,55.44,0,0,1-.71-13.56A29.52,29.52,0,0,1,113.11,142a21,21,0,0,1,9.41-8.67,17,17,0,0,1,13.39-.37,14.89,14.89,0,0,0-6.75-3.19,17.72,17.72,0,0,0-7.76.28,22.53,22.53,0,0,0-12.72,9.08c-.31.45-.6.91-.89,1.37a62.56,62.56,0,0,1,2.56-15,40.57,40.57,0,0,1,4.31-9.35,37.24,37.24,0,0,1,6.65-8.07,29,29,0,0,1,19.4-8.29C139.8,99.52,138.86,99.35,137.92,99.2Z"/><path class="cls-8" d="M261.26,137c-.94-.06-1.9-.13-2.86-.16s-1.92.1-2.89.2-1.91.3-2.87.52A33,33,0,0,0,242,142.42a42.07,42.07,0,0,0-14.73,18.46A66.23,66.23,0,0,0,222.75,184c-.06,2.17-.05,4.33,0,6.48-.41-.49-.82-1-1.23-1.45-.72-1.73-1.4-3.49-2.06-5.27L218,179.65l-.73-2.06c-.23-.66-.42-1.23-.58-1.88a32.85,32.85,0,0,1,.26-16.2c1.4-5.37,4-10.67,8.68-14.29a19.57,19.57,0,0,0-7,5.47A30.68,30.68,0,0,0,214,158.5a35,35,0,0,0-2.38,8.88,31.23,31.23,0,0,0,.12,9.4c.14.78.34,1.62.53,2.35l.18.72a44.33,44.33,0,0,0-6.49-4.76,86,86,0,0,1,6.46,7.63,1,1,0,0,0,.08.11,41.54,41.54,0,0,0-15.58-5.33,37,37,0,0,0-22.1,4.37c-6.52,3.62-11.95,9.36-14.25,16.17a32.6,32.6,0,0,1,16-12.44,34.37,34.37,0,0,1,19.29-1.53,38.58,38.58,0,0,1,17,8.69,45.73,45.73,0,0,1,7.13,7.84,33.42,33.42,0,0,0-5.67-.84,27.88,27.88,0,0,0-27.72,16.9,23.1,23.1,0,0,0-1.11,16.08,25,25,0,0,1,3.85-14.67,26.92,26.92,0,0,1,10.67-9.81,24.91,24.91,0,0,1,13.8-2.37,36.42,36.42,0,0,1,11.42,3.41,4.27,4.27,0,0,0,2.51,1.25,3.3,3.3,0,0,0,3.57-.56,3.43,3.43,0,0,0,.82-1.2,2.73,2.73,0,0,0,1.43-2.86l0-.16a55.44,55.44,0,0,1-.71-13.56,29.47,29.47,0,0,1,3.69-12.44,20.93,20.93,0,0,1,9.41-8.67,17.08,17.08,0,0,1,13.39-.38,15,15,0,0,0-6.75-3.18,17.87,17.87,0,0,0-7.76.27A22.51,22.51,0,0,0,232,176.9c-.32.44-.61.91-.89,1.37a62.07,62.07,0,0,1,2.56-15,40.15,40.15,0,0,1,4.31-9.35,37.54,37.54,0,0,1,6.65-8.08,28.94,28.94,0,0,1,19.4-8.28C263.13,137.34,262.2,137.17,261.26,137Z"/><path class="cls-8" d="M111.57,94.15c.26-.9.5-1.83.79-2.75s.73-1.78,1.14-2.66.91-1.71,1.43-2.54A33.13,33.13,0,0,1,123,77.7a42,42,0,0,1,22.28-7.85,66.53,66.53,0,0,1,23.25,3.34c2.07.66,4.11,1.38,6.12,2.14-.32-.55-.65-1.09-1-1.64-1.4-1.25-2.84-2.46-4.3-3.67L166,67.3l-1.7-1.36c-.55-.44-1-.8-1.59-1.17a33,33,0,0,0-15.39-5.07c-5.53-.44-11.39.3-16.35,3.51a19.37,19.37,0,0,1,7.48-4.83,30.6,30.6,0,0,1,8.9-1.83,34.57,34.57,0,0,1,9.17.66,31.32,31.32,0,0,1,8.84,3.2c.7.39,1.42.85,2,1.27l.62.42a43.12,43.12,0,0,1-2.36-7.71A82.81,82.81,0,0,0,170.79,63l.08.12A41.33,41.33,0,0,1,171,46.65a37,37,0,0,1,11.38-19.44c5.57-5,12.77-8.21,19.95-8.15a32.64,32.64,0,0,0-17,11,34.41,34.41,0,0,0-7.77,17.71,38.57,38.57,0,0,0,2.63,18.9A45.86,45.86,0,0,0,185.2,76a34.59,34.59,0,0,1,1.07-5.64,27.93,27.93,0,0,1,25.07-20.63A23.1,23.1,0,0,1,226.89,54a25,25,0,0,0-15.12-1.18A26.74,26.74,0,0,0,199,59.64a24.88,24.88,0,0,0-6.77,12.25,36.39,36.39,0,0,0-.53,11.9,4.29,4.29,0,0,1,.36,2.78,3.3,3.3,0,0,1-1.71,3.19,3.23,3.23,0,0,1-1.4.38,2.75,2.75,0,0,1-3.17.42l-.15-.08a55.46,55.46,0,0,0-12.57-5.12,29.51,29.51,0,0,0-13-.6,21,21,0,0,0-11.28,6,17,17,0,0,0-4.75,12.52,14.79,14.79,0,0,1-.79-7.41,17.73,17.73,0,0,1,2.8-7.24,22.59,22.59,0,0,1,12.76-9c.53-.15,1.06-.27,1.59-.39a62.28,62.28,0,0,0-15.05-2.52,41,41,0,0,0-10.25,1,37.34,37.34,0,0,0-9.8,3.63A29,29,0,0,0,111.13,97C111.26,96,111.4,95.09,111.57,94.15Z"/><path class="cls-9" d="M545.8,174.38c-5.5-4.49-8.77-1.82-10-.29l-.21.27a4.47,4.47,0,0,0-.37.58s-12.8,2.12-1.43,12.41a19.08,19.08,0,0,0,16,4.84S550.58,178.28,545.8,174.38Z"/><path class="cls-9" d="M537.61,169.7c1.65,11.06,15.8,4.47,15.8,4.47,10.16-5.95,12.17-23.85,12.17-23.85-10.36-4.91-23.62.35-23.62.35-.62.33-1.19.67-1.72,1a60.79,60.79,0,0,0-9.61-17s-15,14.24-11.59,23.8a14.07,14.07,0,0,0,12.53,9.65h0c.38.17,1.52,1.19.44,3.18l1.06-.6c-.18-.63.38-1.72-.48-2.94a19.83,19.83,0,0,0,2.87-1.43,15,15,0,0,0,1.76,2.48"/><path class="cls-9" d="M531.12,173.07a5.67,5.67,0,0,1,4.38,3.42s-.33-3.2-4.38-4.35C529.82,171.77,531.12,173.07,531.12,173.07Z"/><path class="cls-9" d="M532.61,210a42.82,42.82,0,0,0-.9,6.29,19.52,19.52,0,0,0-4.18-4.58h0a10.14,10.14,0,0,0-2.44,11.24c2.87,7.62-1.47,13.45,9.45,19.54,0,0,4-4.33.1-12.82A15.63,15.63,0,0,1,533,223c1.1,1.83,2.61,3.09,3.58,5.89,5,14.45,11.87,13.81,11.87,13.81-2.56-24.12-13.92-31.75-15.67-32.79"/><path class="cls-9" d="M535.34,206.71h0c-.28,1.55-1.41,10.11,7.23,11.15,0,0,0,8.1,6,10.72,0,0,1,10.66,13.28,8.7,0,0-1.13-7.35-5.81-11.63-3.92-3.58-.56-5.39-7.16-9.27-4.65-2.74-.92-9-12.71-9.86A3.73,3.73,0,0,0,535.34,206.71Z"/><path class="cls-9" d="M527.76,207.88a43.93,43.93,0,0,0-12.51,23.29l.39,3.31c1.85-12.23,7.77-21.27,12.7-25.71,2.5-2.25,4.84-3.33,6.94-1.55.79.67.87-.13.85-.14C534.66,205.73,532.11,203.72,527.76,207.88Z"/><path class="cls-9" d="M515.32,231.53c-.37-13.53-1-39.54-1-39.54,11.15-19.36,25.56-23.62,25.56-23.62l-.08-.5c-13.89,3.07-26.14,21.48-26.14,21.48-.49-9.69-1.52-13.88-1.52-13.88-.2-.21-.39-.44-.58-.66,1.1-1.25,2.09-3.86,1.07-4.61-2.21-1.64-2.46,1.06-2.42,2.94a40,40,0,0,1-6.81-14.45c.12-1,.7-2.37,2.47-4.22,5,6,5.76-3.82,5.76-3.82l.51-6.38s-4.7.48-7.1,2.65a10.74,10.74,0,0,0-.56-2.11c-2.37-6.6-10-9.77-10-9.77s-1.45,7.92-.48,13.48l-.34,0s-3.9.67-7.63,6.46c0,0,11.09,10.34,15.32,2.07a9.45,9.45,0,0,0,.66-1.63,26.17,26.17,0,0,0,.42,3.7,2.25,2.25,0,0,0,.06.36h0a38.38,38.38,0,0,0,6.89,15.18c1.72,4.16,2.46,19.5,2.72,36.54-8.92-13.2-13.83-20.28-20.51-23.3a18.62,18.62,0,0,0-.3-2.19c3,.17,11.06-.08,11-7.36a23.37,23.37,0,0,0-5.68-14.78s-13.76,6.3-12.81,14c-.65-4-3.11-8.54-10.92-8.59-14-.1-16.37,5.87-16.37,5.87s2.37,11,11.88,17.43a8.33,8.33,0,0,0,4.45,1.59c-2.52,6-.23,13-.23,13s8.71,6.92,16.37-3.11c7.18-9.41-1-12.45-2-12.79a6.93,6.93,0,0,1,5.86-1.09c8.22,3.78,16.23,18.7,19.33,22.94,0,.38,0,.77,0,1.15a5.64,5.64,0,0,0-5.18.53c-13.58-.95-14,10.72-14,10.72-12.45,4.48-10.64,18.4-10.64,18.4,13.46-3.43,14.23-14.52,14.23-14.52a26.33,26.33,0,0,0,2.51-1.59h0s2,5-.9,13.74,2.64,12.56,2.64,12.56c12.67-10.12,3.17-12.58,7.11-20.58a14.17,14.17,0,0,0-1.37-14.6,19.21,19.21,0,0,0,.79-3.27c1.66-1.73,3.4-1,4.81.2.28,25-1.21,51.83-1.21,51.83l4.4-.41c.5-21.35.6-19.29.27-32.43Zm-13.25-79-.06-.17.08,0C502.08,152.41,502.08,152.47,502.07,152.54Zm.29-.29a4.49,4.49,0,0,0,1.6-1,8.78,8.78,0,0,0,1.21,2.28l.54.71A9.08,9.08,0,0,0,503,156.8,40.53,40.53,0,0,1,502.36,152.25Zm-15.69,38.29c-.51-.85-2.12-3.16-4.78-3.45.5-.84.9-1.62,1.2-2.23a15.48,15.48,0,0,1,7.55,3.56C490.07,188,488.48,188.75,486.67,190.54Zm-3.46-5.93c.31-.67.47-1.09.47-1.09a18.13,18.13,0,0,0,.17-5.51c1.12,7.2,6.31,7.58,6.31,7.58l.45,0a3.21,3.21,0,0,0,.27,1.74C487,184.81,484.46,184.51,483.21,184.61Z"/><path class="cls-9" d="M524,213.56c2.44-3.16,3.2-2,3.66-1.25a2.59,2.59,0,0,1,.37,1.25c-.13-4.79-3.22-1.57-3.22-1.57Z"/><path class="cls-9" d="M525.9,211c5.09-3.57,6.07-1.49,7-.51.35.37.55.33.55.33-1.54-4.43-6.68-1-6.68-1Z"/><path class="cls-4" d="M514.46,268.16a9.87,9.87,0,0,0,6.33,2.86c2.41.31,4.86.24,7.34.42a17.42,17.42,0,0,1,7.19,1.88,22.11,22.11,0,0,1,5.58,4.88,19,19,0,0,0,2.61,2.55,24.75,24.75,0,0,0,3.08,2,51,51,0,0,0,6.73,2.94,66.41,66.41,0,0,0,7,2.11,34.14,34.14,0,0,1,3.57,1,4,4,0,0,1,1.52,1,7.31,7.31,0,0,1,1,1.54,7.26,7.26,0,0,0-1-1.52,4,4,0,0,0-1.52-1,33.29,33.29,0,0,0-3.57-.9,67.51,67.51,0,0,1-7.1-2,50.05,50.05,0,0,1-6.81-2.86,26.19,26.19,0,0,1-3.15-1.95,20.47,20.47,0,0,1-2.69-2.57,21.93,21.93,0,0,0-5.52-4.71,17,17,0,0,0-7-1.71c-2.43-.15-4.91-.05-7.39-.33a14,14,0,0,1-3.67-.87,8.75,8.75,0,0,1-3.16-2.15Z"/><path class="cls-4" d="M514.43,269.26a11.06,11.06,0,0,0-2.73,7.64,27.57,27.57,0,0,0,.65,4.21,28.59,28.59,0,0,1,.41,4.33,19.89,19.89,0,0,1-.38,4.35,6.69,6.69,0,0,0-.26,2.07,3.14,3.14,0,0,0,.59,1.88,6.16,6.16,0,0,0,1.68,1.18c.63.34,1.27.65,1.92,1,1.29.61,2.61,1.18,3.94,1.73h0a16.18,16.18,0,0,1,4.57,3.95,15.78,15.78,0,0,1,2.83,5.3c.62,1.93.67,4,1.19,5.9a13.27,13.27,0,0,0,1,2.82,5,5,0,0,0,.84,1.24,1.82,1.82,0,0,0,1.27.7,1.86,1.86,0,0,1-1.29-.68,5.06,5.06,0,0,1-.85-1.24,12.88,12.88,0,0,1-1-2.82c-.55-1.94-.63-4-1.27-5.87a15.51,15.51,0,0,0-2.87-5.2,15.91,15.91,0,0,0-4.52-3.81h0c-1.34-.54-2.66-1.09-4-1.69-.65-.3-1.3-.61-1.95-.94a6.16,6.16,0,0,1-1.83-1.27,3.52,3.52,0,0,1-.72-2.14,7.33,7.33,0,0,1,.25-2.2,19.27,19.27,0,0,0,.31-4.23,27.38,27.38,0,0,0-.47-4.23,28.16,28.16,0,0,1-.71-4.3,11.75,11.75,0,0,1,2.85-8.23Z"/><path class="cls-4" d="M524.62,311.36a11.07,11.07,0,0,0-3.31-4.66c-1.38-1.34-3.11-2.27-4.53-3.63a20.36,20.36,0,0,1-3.76-4.5,10,10,0,0,1-1.53-5.73l.8.07a9.12,9.12,0,0,0,1.27,5.35,19.57,19.57,0,0,0,3.51,4.5c1.35,1.36,3,2.37,4.4,3.78A11.22,11.22,0,0,1,524.62,311.36Z"/><path class="cls-4" d="M499,320.28a5.64,5.64,0,0,1,1.29-1.38,11.88,11.88,0,0,1,1.59-1.06,24.21,24.21,0,0,1,3.45-1.64h0a3.69,3.69,0,0,0,.93-1.26,10.18,10.18,0,0,0,.62-1.49,21.47,21.47,0,0,0,.79-3.16c.38-2.13.56-4.32,1-6.48.74-4.31,1.75-8.57,2.92-12.8l.76.23c-1.25,4.16-2.35,8.39-3.19,12.67-.44,2.13-.66,4.29-1.1,6.45a25,25,0,0,1-.88,3.18,12.63,12.63,0,0,1-.67,1.51,4,4,0,0,1-1,1.32h0a24.94,24.94,0,0,0-3.47,1.54,12.34,12.34,0,0,0-1.6,1A5.42,5.42,0,0,0,499,320.28Z"/><path class="cls-4" d="M506.5,314.87a4.29,4.29,0,0,1,1.29,3.1,4.07,4.07,0,0,1-.44,1.62,5.66,5.66,0,0,0-.44,1.43,16.15,16.15,0,0,0-.18,3.11,30.07,30.07,0,0,0,.28,3.13,27.33,27.33,0,0,1-.48-3.12,16,16,0,0,1,0-3.17,6,6,0,0,1,.39-1.59,3.76,3.76,0,0,0,.29-1.42,3.59,3.59,0,0,0-1.22-2.49Z"/><path class="cls-4" d="M516.14,320.81a8.83,8.83,0,0,0-1.76-3.06,11.51,11.51,0,0,0-2.69-2.28,12.73,12.73,0,0,0-1.55-.82,6.12,6.12,0,0,1-1.62-.91,3.26,3.26,0,0,1-1-1.64,4,4,0,0,1,0-2l.77.24a2.89,2.89,0,0,0,.71,2.94,6,6,0,0,0,1.44.9,13.73,13.73,0,0,1,1.56.94,11.82,11.82,0,0,1,2.61,2.48A8.75,8.75,0,0,1,516.14,320.81Z"/><path class="cls-4" d="M515,271.86a56.73,56.73,0,0,0-8.15,3.06,19.29,19.29,0,0,0-3.69,2.21c-1.05.9-2.33,2.11-4.09,1.92h.05a11.94,11.94,0,0,0-4.42,1.37,29.53,29.53,0,0,0-4.08,2.44c-.66.45-1.28,1-1.92,1.43l-1.84,1.52L485,287.43l-1.72,1.66h0c-1.13.77-2.25,1.57-3.31,2.43a17.65,17.65,0,0,0-1.51,1.36,7.28,7.28,0,0,0-1.14,1.66,24.84,24.84,0,0,1-5.31,6.29,37.47,37.47,0,0,1-6.8,4.64,45.55,45.55,0,0,1-7.55,3.27,44.67,44.67,0,0,0,7.51-3.35,37.7,37.7,0,0,0,6.72-4.7,24.65,24.65,0,0,0,5.18-6.29l.52-.89a4.18,4.18,0,0,1,.65-.84,16.81,16.81,0,0,1,1.52-1.41c1.07-.88,2.17-1.7,3.31-2.48l0,0,1.72-1.69,1.77-1.63,1.84-1.56c.64-.49,1.26-1,1.93-1.46a28.5,28.5,0,0,1,4.12-2.54,12.4,12.4,0,0,1,4.69-1.48h.06A3.22,3.22,0,0,0,501,278a12.37,12.37,0,0,0,1.68-1.33,19.86,19.86,0,0,1,3.79-2.34,56.86,56.86,0,0,1,8.24-3.2Z"/><path class="cls-4" d="M512.46,284a10.62,10.62,0,0,0-6.34,4.19,7.11,7.11,0,0,0-.78,1.76c-.17.61-.28,1.29-.46,2a7,7,0,0,1-.81,1.91,2.93,2.93,0,0,1-1.7,1.26,13.52,13.52,0,0,1-4.07-.05,3.91,3.91,0,0,0-1.92.23,6.46,6.46,0,0,0-1.66,1.05,38.56,38.56,0,0,1-3.11,2.57A12.87,12.87,0,0,1,488,300.6a12.78,12.78,0,0,0,3.56-1.83,39.77,39.77,0,0,0,3-2.63,6.54,6.54,0,0,1,1.7-1.13,4.17,4.17,0,0,1,2-.3,13.65,13.65,0,0,0,3.94,0c1.26-.34,1.83-1.68,2.13-2.92.17-.64.24-1.29.42-2a7.51,7.51,0,0,1,.8-1.92,9.18,9.18,0,0,1,2.9-2.95,13.07,13.07,0,0,1,3.78-1.71Z"/><path class="cls-4" d="M512.75,285.23a21.77,21.77,0,0,1,5.08,7.44,16.12,16.12,0,0,1,1.07,4.39,27.6,27.6,0,0,1-.25,4.48,22.1,22.1,0,0,0,1.77,8.6,41.06,41.06,0,0,0,4.2,7.84,40.61,40.61,0,0,1-4.38-7.76,22.21,22.21,0,0,1-2-8.69,27.49,27.49,0,0,0,.15-4.42,15,15,0,0,0-1.13-4.21,21.2,21.2,0,0,0-5-7.07Z"/><path class="cls-4" d="M511.61,278.37a42,42,0,0,1,6.9,1.93,34.11,34.11,0,0,1,6.43,3.13,19.58,19.58,0,0,1,5.29,4.81,13,13,0,0,1,2.54,6.66,44.08,44.08,0,0,0,3,13.77,60.6,60.6,0,0,0,6.55,12.54,60.54,60.54,0,0,1-6.74-12.47,44.3,44.3,0,0,1-3.22-13.8,11.94,11.94,0,0,0-.82-3.38,12.22,12.22,0,0,0-1.72-3,19,19,0,0,0-5.21-4.6,38.82,38.82,0,0,0-13.14-4.78Z"/><path class="cls-4" d="M513.85,268.48a51,51,0,0,1,5.2,1.23,20.61,20.61,0,0,1,5,2.07,6.53,6.53,0,0,1,1.1.88c.35.38.55.74.83,1.06a14.38,14.38,0,0,0,1.83,1.83,30.49,30.49,0,0,0,4.3,3l0,0h0a11.79,11.79,0,0,1,3,3.78,7.42,7.42,0,0,1,.69,2.34,2.26,2.26,0,0,0,.26,1.05,2.5,2.5,0,0,0,.81.73,7.14,7.14,0,0,1,1.95,1.43,3.35,3.35,0,0,1,.64,2.36,25.7,25.7,0,0,1-1.15,4.63,7.79,7.79,0,0,0-.07,4.61,20.26,20.26,0,0,0,2.08,4.23c1.66,2.69,3.49,5.28,5.29,7.87-1.84-2.57-3.71-5.13-5.4-7.8a20.4,20.4,0,0,1-2.16-4.24,7.33,7.33,0,0,1-.36-2.37,11,11,0,0,1,.36-2.37,25.29,25.29,0,0,0,1.07-4.58,3,3,0,0,0-.59-2.11,6.88,6.88,0,0,0-1.88-1.32,2.9,2.9,0,0,1-.94-.85,2.71,2.71,0,0,1-.34-1.22,7,7,0,0,0-.68-2.18,11.29,11.29,0,0,0-2.9-3.57l0,0a30.2,30.2,0,0,1-4.44-3,15.65,15.65,0,0,1-1.94-1.88c-.3-.35-.55-.75-.81-1a5.69,5.69,0,0,0-1-.76,20,20,0,0,0-4.81-1.94,49.81,49.81,0,0,0-5.12-1.15Z"/><path class="cls-4" d="M537,286.71a8.23,8.23,0,0,0-.5,2.14,4.23,4.23,0,0,0,0,1.07,4.83,4.83,0,0,0,.34,1,40,40,0,0,1,1.34,4.46v.06a2.28,2.28,0,0,0,.24,1.24,3.51,3.51,0,0,0,.78,1.06,6.09,6.09,0,0,0,1.08.81c.39.22.81.41,1.22.59a9.76,9.76,0,0,1-1.25-.53,6.19,6.19,0,0,1-1.15-.76,3.66,3.66,0,0,1-.88-1.07,2.52,2.52,0,0,1-.33-1.39v.07a42,42,0,0,0-1.55-4.33A4.84,4.84,0,0,1,536,290a4.62,4.62,0,0,1-.11-1.22,8.87,8.87,0,0,1,.41-2.39Z"/><path class="cls-4" d="M513.67,269.37a30.69,30.69,0,0,0-4.95,1.59,12.13,12.13,0,0,0-4.27,2.75c-.25.3-.52.66-.8,1a12.42,12.42,0,0,1-.91,1,21.15,21.15,0,0,1-2,1.77,36.23,36.23,0,0,1-4.44,2.93l0,0a11.84,11.84,0,0,0-3.87,5.56,10.22,10.22,0,0,0-.28,1.7,9.51,9.51,0,0,1-.38,1.76,11.91,11.91,0,0,1-1.6,3.21,14.52,14.52,0,0,1-5.43,4.53,13.25,13.25,0,0,0-5.35,4.32A21.48,21.48,0,0,0,477,308a29.41,29.41,0,0,1-2.47,6.61,35,35,0,0,1-9.16,10.6,34.94,34.94,0,0,0,9-10.67A29.2,29.2,0,0,0,476.8,308a21.51,21.51,0,0,1,2.37-6.65,13.68,13.68,0,0,1,5.42-4.49,14,14,0,0,0,5.24-4.45,11,11,0,0,0,1.5-3.1,8.8,8.8,0,0,0,.35-1.68,10,10,0,0,1,.28-1.77,12.42,12.42,0,0,1,4-5.89h0l0,0a36.89,36.89,0,0,0,4.33-2.92,17.56,17.56,0,0,0,3.6-3.75,12.61,12.61,0,0,1,4.49-3,32.47,32.47,0,0,1,5.07-1.7Z"/><path class="cls-4" d="M510.13,298.56a9.35,9.35,0,0,0-2.34,1,11.06,11.06,0,0,0-2.06,1.56,10.26,10.26,0,0,1-2.21,1.61,9.68,9.68,0,0,1-2.57.95l.06,0a29.31,29.31,0,0,0-3.21,1.85,13.73,13.73,0,0,0-2.81,2.39,4.93,4.93,0,0,0-.53.76,5.16,5.16,0,0,1-.46.82,4.23,4.23,0,0,1-1.43,1.23,8.48,8.48,0,0,1-3.62.89,8.33,8.33,0,0,0,3.56-1,4.08,4.08,0,0,0,1.35-1.23,4.85,4.85,0,0,0,.42-.82,6.09,6.09,0,0,1,.52-.8,13.46,13.46,0,0,1,2.8-2.53,30,30,0,0,1,3.2-2h.06a8.83,8.83,0,0,0,2.39-1,9.52,9.52,0,0,0,2-1.58,11.07,11.07,0,0,1,2.13-1.72,10,10,0,0,1,2.53-1.16Z"/><path class="cls-4" d="M510.44,298.17a8.13,8.13,0,0,0,.49,2.69,6.92,6.92,0,0,0,1.44,2.36,6.85,6.85,0,0,0,2.27,1.64,9,9,0,0,0,1.34.5c.46.12.94.19,1.41.29-.48-.06-1-.1-1.43-.2a8.51,8.51,0,0,1-1.39-.41,7.14,7.14,0,0,1-2.49-1.53,7.41,7.41,0,0,1-1.7-2.43,8.55,8.55,0,0,1-.74-2.91Z"/><path class="cls-4" d="M511.34,277.68a9.32,9.32,0,0,0-4.09.9c-.54.32-.86,1-1.34,1.61a3,3,0,0,1-2.07,1c-.75.11-1.5.09-2.21.15a4,4,0,0,0-2,.77,5.48,5.48,0,0,0-1.32,1.71,3.2,3.2,0,0,1-.68.87,1.49,1.49,0,0,1-1,.31,1.51,1.51,0,0,0,1-.34,3.39,3.39,0,0,0,.62-.89,5.78,5.78,0,0,1,1.28-1.82,4.25,4.25,0,0,1,2.06-.9c.75-.11,1.47-.11,2.18-.25a2.6,2.6,0,0,0,1.75-.94,6.62,6.62,0,0,1,1.39-1.8,6.47,6.47,0,0,1,2.15-.86,15.26,15.26,0,0,1,2.25-.34Z"/><path class="cls-4" d="M512.66,289.1a2,2,0,0,0,.71,2.1,4.54,4.54,0,0,0,2.54.52,9.3,9.3,0,0,1,2.82.56,9.49,9.49,0,0,1,2.52,1.37l0,0a24.68,24.68,0,0,0,3.13,1.46,12.15,12.15,0,0,0,3.35.81,12.34,12.34,0,0,1-3.4-.66,25.21,25.21,0,0,1-3.23-1.33h0a9.18,9.18,0,0,0-5.16-1.61,5,5,0,0,1-2.9-.51,2.47,2.47,0,0,1-1-1.27,3.16,3.16,0,0,1-.11-1.59Z"/><path class="cls-4" d="M513.82,268.64a5.57,5.57,0,0,1-.49,1.75,8.4,8.4,0,0,1-1,1.47,19,19,0,0,1-2.51,2.33,18.32,18.32,0,0,0-4.67,4.62,11.8,11.8,0,0,0-1.51,6.31c0,1.11,0,2.23,0,3.35a16.44,16.44,0,0,1-.08,1.71,7.3,7.3,0,0,1-.46,1.66c-.88,2.19-2.88,3.57-4.75,4.74a30.84,30.84,0,0,0-5.43,3.89c-1.61,1.55-2.54,3.65-3.64,5.59a10.7,10.7,0,0,1-4.54,4.82,10.69,10.69,0,0,0,4.46-4.87c1.07-1.95,2-4.07,3.58-5.68a31.52,31.52,0,0,1,5.41-4c1.85-1.2,3.75-2.57,4.54-4.63a7.81,7.81,0,0,0,.41-1.58,14.82,14.82,0,0,0,.05-1.64c0-1.12-.07-2.24-.08-3.37a12.4,12.4,0,0,1,1.51-6.61,18.82,18.82,0,0,1,4.73-4.85,18.34,18.34,0,0,0,2.38-2.27,5,5,0,0,0,1.26-2.8Z"/><path class="cls-4" d="M514.47,268.17a6.41,6.41,0,0,1,.95,2.27,13,13,0,0,0,.7,2.13,4.58,4.58,0,0,0,1.25,1.72,11.08,11.08,0,0,0,1.88,1.18,10.55,10.55,0,0,1,3.85,2.72,7.62,7.62,0,0,1,1.3,4.54,16.67,16.67,0,0,1-.06,2.34c-.08.78-.2,1.54-.26,2.29a7.47,7.47,0,0,0,.09,2.22,4.63,4.63,0,0,0,1,1.92c.94,1.16,2.23,2.12,3,3.53a7,7,0,0,1,.39,4.64,26.57,26.57,0,0,1-1,4.54,15.61,15.61,0,0,1-2.54,3.87,8.74,8.74,0,0,0-.82,8.67c1.21,2.83,3.24,5.2,4.82,7.84a24.35,24.35,0,0,1,1.76,4.26,11.65,11.65,0,0,1,.72,4.52,11.49,11.49,0,0,0-.74-4.52,24.19,24.19,0,0,0-1.77-4.24c-1.61-2.61-3.67-5-4.93-7.8a9,9,0,0,1,.75-8.88,15.54,15.54,0,0,0,2.46-3.82,26.91,26.91,0,0,0,.87-4.5,6.58,6.58,0,0,0-.39-4.37,22.76,22.76,0,0,0-3-3.43,5.24,5.24,0,0,1-1.13-2.12,7.9,7.9,0,0,1-.13-2.37c.06-.78.17-1.54.24-2.3a17.17,17.17,0,0,0,0-2.27,6.92,6.92,0,0,0-1.22-4.17,10.1,10.1,0,0,0-3.66-2.5,11.32,11.32,0,0,1-2-1.24,5.31,5.31,0,0,1-1.47-2,15.12,15.12,0,0,1-.77-2.23,5.79,5.79,0,0,0-.82-2Z"/><path class="cls-10" d="M1184.66,245.72l-25-43.35h0a39.51,39.51,0,0,0-3.27-4.81l19-15h-50a41.14,41.14,0,0,0-5.8.42L1116,159l-25,43.35h0a40,40,0,0,0-2.53,5.23l-22.49-8.91,25,43.35h0a39,39,0,0,0,3.27,4.8l-19,15h50a41.14,41.14,0,0,0,5.8-.42l3.53,23.93,25-43.34h0a38.85,38.85,0,0,0,2.54-5.23Zm-59.38-13.09a10.42,10.42,0,1,1,10.42-10.42A10.41,10.41,0,0,1,1125.28,232.63Z"/></g></g></svg>