<svg xmlns="http://www.w3.org/2000/svg" viewBox="0 0 1310.11 746.56"><defs><style>.cls-1{fill:#3daaa1;}.cls-2{fill:#7c7169;}.cls-3{fill:#cc6436;}.cls-4{fill:#b78f6a;}.cls-5{fill:#d8bca4;}.cls-10,.cls-12,.cls-13,.cls-36,.cls-6,.cls-9{fill:none;}.cls-6,.cls-8{stroke:#5c5052;}.cls-10,.cls-12,.cls-36,.cls-6,.cls-8,.cls-9{stroke-miterlimit:10;}.cls-6{stroke-width:0.48px;}.cls-7{fill:#d1b090;}.cls-27,.cls-8{fill:#fff;}.cls-8{stroke-width:0.19px;}.cls-10,.cls-12,.cls-9{stroke:#fff;}.cls-9{stroke-width:3.75px;}.cls-10{stroke-width:3.75px;}.cls-11{fill:#754c24;}.cls-12{stroke-width:3.75px;}.cls-13{stroke:#3daaa1;stroke-linejoin:round;stroke-width:5.83px;}.cls-14{font-size:32px;fill:#5c5052;font-family:Acre-Light, Acre;font-weight:300;}.cls-15{letter-spacing:-0.02em;}.cls-16{letter-spacing:-0.01em;}.cls-17{letter-spacing:-0.02em;}.cls-18{letter-spacing:-0.02em;}.cls-19{letter-spacing:0em;}.cls-20{letter-spacing:0em;}.cls-21{letter-spacing:0em;}.cls-22{letter-spacing:0.01em;}.cls-23{letter-spacing:-0.01em;}.cls-24{letter-spacing:-0.02em;}.cls-25{letter-spacing:-0.01em;}.cls-26{letter-spacing:-0.01em;}.cls-27{font-size:35.25px;font-family:Acre-Thin, Acre;font-weight:200;}.cls-28{letter-spacing:-0.04em;}.cls-29{letter-spacing:-0.02em;}.cls-30{letter-spacing:-0.01em;}.cls-31{letter-spacing:-0.04em;}.cls-32{letter-spacing:-0.01em;}.cls-33{font-size:62.35px;fill:#df6572;font-family:Acre-Regular, Acre;}.cls-34{letter-spacing:-0.01em;}.cls-35{letter-spacing:-0.02em;}.cls-36{stroke:#5d5152;stroke-width:1.98px;}</style></defs><g id="Layer_2" data-name="Layer 2"><g id="Layer_7" data-name="Layer 7"><path class="cls-1" d="M74.31,250.43c.24-3.38,1.15-6.69,1.34-10.08.3-5.1-1.05-10.15-1.43-15.26-.63-8.29,1.27-16.8-.75-24.88a190.23,190.23,0,0,1,6.67,39.85,71.35,71.35,0,0,0,.8,8.63c1,5.37,3.44,10.77,2.18,16.09-.29,1.24-7-2.34-7.67-3.34C73.76,258.93,74.11,253.24,74.31,250.43Z"/><path class="cls-1" d="M52.93,259.62c.24-3.39,1.15-6.7,1.35-10.08.29-5.11-1.05-10.16-1.44-15.26-.63-8.3,1.28-16.81-.75-24.88a190,190,0,0,1,6.67,39.84,73,73,0,0,0,.8,8.63c1,5.38,3.44,10.77,2.19,16.09-.29,1.24-7-2.33-7.67-3.33C52.38,268.12,52.73,262.43,52.93,259.62Z"/><path class="cls-1" d="M71,248.84c-.5-4.32-.63-8.69-1.42-13-.57-3.08-1.48-6.11-1.79-9.23a48.15,48.15,0,0,1,.88-12,31,31,0,0,0-5.38,19.78c.33,4.5,1.65,8.86,2.44,13.3,1.7,9.48,1,19.28,2.82,28.74,1.69,8.89,4.55-4.78,4.64-7.12C73.49,262.44,71.79,255.64,71,248.84Z"/><path class="cls-1" d="M41.18,258.29c.24-3.38,1.15-6.69,1.34-10.08.3-5.1-1.05-10.15-1.43-15.26-.63-8.29,1.27-16.8-.75-24.88A190.23,190.23,0,0,1,47,247.92a71.35,71.35,0,0,0,.8,8.63c1,5.37,3.43,10.77,2.18,16.09-.29,1.24-7-2.34-7.67-3.34C40.63,266.79,41,261.1,41.18,258.29Z"/><path class="cls-1" d="M26.67,248.62c.25-3.38,1.16-6.69,1.35-10.07.29-5.11-1.05-10.16-1.44-15.26-.62-8.3,1.28-16.81-.74-24.88a191.33,191.33,0,0,1,6.67,39.84,71.16,71.16,0,0,0,.8,8.63c1,5.38,3.43,10.77,2.18,16.09-.29,1.24-7-2.34-7.67-3.34C26.13,257.12,26.47,251.43,26.67,248.62Z"/><path class="cls-1" d="M18.45,255c-.5-4.32-.63-8.69-1.42-13-.57-3.08-1.48-6.1-1.79-9.22a48.23,48.23,0,0,1,.88-12,31,31,0,0,0-5.38,19.79c.33,4.5,1.65,8.86,2.44,13.3,1.7,9.48,1,19.27,2.82,28.74,1.69,8.89,4.55-4.78,4.64-7.13C20.92,268.64,19.22,261.84,18.45,255Z"/><path class="cls-1" d="M1237.11,248c.25-3.38,1.16-6.69,1.35-10.07.29-5.11-1-10.16-1.44-15.26-.62-8.3,1.28-16.81-.74-24.88a191.33,191.33,0,0,1,6.67,39.84,71,71,0,0,0,.8,8.63c1,5.38,3.43,10.77,2.18,16.09-.29,1.24-7-2.34-7.67-3.33C1236.57,256.51,1236.91,250.82,1237.11,248Z"/><path class="cls-1" d="M1251,236.86c.25-3.38,1.16-6.69,1.35-10.08.29-5.11-1.05-10.15-1.44-15.26-.62-8.29,1.28-16.81-.74-24.88a191.55,191.55,0,0,1,6.67,39.84,71.32,71.32,0,0,0,.8,8.64c1,5.37,3.43,10.77,2.18,16.09-.29,1.24-7-2.34-7.67-3.34C1250.5,245.36,1250.84,239.67,1251,236.86Z"/><path class="cls-1" d="M1262.59,233.42c.19-4.35,0-8.71.5-13,.35-3.11,1-6.19,1.12-9.33.11-4-.81-8-1.72-11.93a31.07,31.07,0,0,1,6.77,19.36c0,4.51-1,9-1.5,13.43-1,9.58.35,19.3-.78,28.87-1.06,9-4.88-4.45-5.13-6.78C1261.08,247.16,1262.3,240.25,1262.59,233.42Z"/><path class="cls-1" d="M1287.34,268.42c-.49-4.29-.62-8.63-1.41-12.87-.56-3.06-1.47-6.07-1.77-9.16a47.48,47.48,0,0,1,.87-11.94,30.75,30.75,0,0,0-5.34,19.64c.33,4.47,1.63,8.8,2.42,13.2,1.69,9.42,1,19.14,2.8,28.54,1.68,8.82,4.52-4.75,4.61-7.08C1289.8,281.93,1288.11,275.17,1287.34,268.42Z"/><path class="cls-1" d="M366,239.79a416.42,416.42,0,0,1-4.46-41.54c2.68,8.25,5.38,16.58,6.2,25.22.39,4.11.35,8.25.83,12.35,1.11,9.58,5.33,20.06,1.23,29.46-5.13-1.76-4.61-4.47-3.69-9.13C367.28,250.48,366.94,245.49,366,239.79Z"/><path class="cls-1" d="M331.23,232.16c.24-3.38,1.15-6.69,1.34-10.07.3-5.11-1.05-10.16-1.43-15.26-.63-8.3,1.27-16.81-.75-24.88a190,190,0,0,1,6.67,39.84,71,71,0,0,0,.8,8.63c1,5.38,3.44,10.77,2.18,16.09-.29,1.24-7-2.34-7.67-3.33C330.68,240.67,331,235,331.23,232.16Z"/><path class="cls-1" d="M515.26,233.17c.24-3.38,1.15-6.69,1.34-10.07.3-5.11-1.05-10.16-1.43-15.26-.63-8.3,1.27-16.81-.75-24.88a190,190,0,0,1,6.67,39.84,71.16,71.16,0,0,0,.8,8.63c1,5.38,3.43,10.77,2.18,16.09-.29,1.24-7-2.34-7.67-3.34C514.71,241.68,515.06,236,515.26,233.17Z"/><path class="cls-1" d="M824.84,247c.24-3.38,1.15-6.69,1.34-10.08.3-5.11-1-10.16-1.43-15.26-.63-8.29,1.27-16.81-.75-24.88a190.24,190.24,0,0,1,6.67,39.84,71.32,71.32,0,0,0,.8,8.64c1,5.37,3.43,10.77,2.18,16.09-.29,1.24-7-2.34-7.67-3.34C824.29,255.46,824.63,249.77,824.84,247Z"/><path class="cls-1" d="M352.24,240.75c.25-3.38,1.16-6.69,1.35-10.08.29-5.1-1-10.15-1.44-15.26-.62-8.29,1.28-16.8-.74-24.88a191.54,191.54,0,0,1,6.67,39.85,71.35,71.35,0,0,0,.8,8.63c1,5.37,3.43,10.77,2.18,16.09-.29,1.24-7-2.34-7.67-3.34C351.7,249.25,352,243.56,352.24,240.75Z"/><path class="cls-1" d="M91.82,248.16c.24-3.38,1.15-6.69,1.35-10.08.29-5.1-1-10.15-1.44-15.25C91.1,214.53,93,206,91,198a190,190,0,0,1,6.67,39.84,73.23,73.23,0,0,0,.8,8.63c1,5.38,3.44,10.77,2.19,16.09-.3,1.24-7-2.34-7.67-3.34C91.27,256.66,91.62,251,91.82,248.16Z"/><path class="cls-1" d="M317,247.25c.24-3.38,1.16-6.69,1.35-10.07.29-5.11-1.05-10.16-1.44-15.26-.62-8.3,1.28-16.81-.75-24.88a190.69,190.69,0,0,1,6.68,39.84,71,71,0,0,0,.8,8.63c1,5.38,3.43,10.77,2.18,16.09-.29,1.24-7-2.33-7.67-3.33C316.47,255.76,316.81,250.07,317,247.25Z"/><path class="cls-1" d="M434.36,247c.24-3.39,1.15-6.7,1.35-10.08.29-5.11-1-10.16-1.44-15.26-.63-8.3,1.28-16.81-.75-24.88a190.13,190.13,0,0,1,6.67,39.84,73.39,73.39,0,0,0,.8,8.64c1,5.37,3.44,10.77,2.19,16.08-.29,1.24-7-2.33-7.67-3.33C433.81,255.51,434.16,249.82,434.36,247Z"/><path class="cls-1" d="M448.72,266.7c.24-3.38,1.15-6.69,1.34-10.07.3-5.11-1.05-10.16-1.43-15.26-.63-8.3,1.27-16.81-.75-24.88a190,190,0,0,1,6.67,39.84,71,71,0,0,0,.8,8.63c1,5.38,3.43,10.77,2.18,16.09-.29,1.24-7-2.34-7.67-3.34C448.17,275.21,448.51,269.52,448.72,266.7Z"/><path class="cls-1" d="M543.13,239.25c.24-3.38,1.15-6.69,1.35-10.08.29-5.1-1.06-10.15-1.44-15.26-.63-8.29,1.28-16.8-.75-24.87A190,190,0,0,1,549,228.88a71.16,71.16,0,0,0,.8,8.63c1,5.38,3.44,10.77,2.19,16.09-.3,1.24-7-2.34-7.67-3.34C542.58,247.75,542.93,242.06,543.13,239.25Z"/><path class="cls-1" d="M557.16,251.09c.24-3.38,1.15-6.69,1.34-10.08.3-5.11-1-10.15-1.43-15.26-.63-8.29,1.27-16.8-.75-24.88A190.24,190.24,0,0,1,563,240.71a71.32,71.32,0,0,0,.8,8.64c1,5.37,3.44,10.77,2.18,16.09-.29,1.24-7-2.34-7.67-3.34C556.61,259.59,557,253.9,557.16,251.09Z"/><path class="cls-1" d="M810.33,237.29c.25-3.38,1.16-6.69,1.35-10.08.29-5.1-1-10.15-1.44-15.26-.62-8.29,1.28-16.8-.74-24.88a191.54,191.54,0,0,1,6.67,39.85,71.35,71.35,0,0,0,.8,8.63c1,5.37,3.43,10.77,2.18,16.09-.29,1.24-7-2.34-7.67-3.34C809.79,245.79,810.13,240.1,810.33,237.29Z"/><path class="cls-1" d="M694.21,241.4c.24-3.38,1.15-6.69,1.34-10.08.3-5.1-1-10.15-1.43-15.26-.63-8.29,1.27-16.8-.75-24.87A190,190,0,0,1,700,231a71.16,71.16,0,0,0,.8,8.63c1,5.38,3.44,10.77,2.18,16.09-.29,1.24-7-2.34-7.67-3.34C693.66,249.9,694,244.21,694.21,241.4Z"/><path class="cls-1" d="M462,236.86c.25-3.38,1.16-6.69,1.35-10.07.29-5.11-1.05-10.16-1.44-15.26-.62-8.3,1.28-16.81-.74-24.88a191.33,191.33,0,0,1,6.67,39.84,71,71,0,0,0,.8,8.63c1,5.38,3.43,10.77,2.18,16.09-.29,1.24-7-2.34-7.67-3.33C461.44,245.37,461.78,239.68,462,236.86Z"/><path class="cls-1" d="M586.49,255.4c.24-3.39,1.16-6.7,1.35-10.08.29-5.11-1.05-10.16-1.44-15.26-.62-8.3,1.28-16.81-.74-24.88A191.33,191.33,0,0,1,592.33,245a71,71,0,0,0,.8,8.63c1,5.38,3.43,10.77,2.18,16.09-.29,1.24-7-2.33-7.67-3.33C586,263.9,586.29,258.21,586.49,255.4Z"/><path class="cls-1" d="M602.12,244.66c.24-3.38,1.15-6.69,1.35-10.08.29-5.1-1.05-10.15-1.44-15.26-.63-8.29,1.28-16.8-.75-24.87A190,190,0,0,1,608,234.29a73.42,73.42,0,0,0,.8,8.63c1,5.37,3.44,10.77,2.19,16.09-.3,1.24-7-2.34-7.67-3.34C601.57,253.16,601.92,247.47,602.12,244.66Z"/><path class="cls-1" d="M620.27,260.63c.24-3.38,1.15-6.69,1.34-10.08.3-5.1-1.05-10.15-1.43-15.26-.63-8.29,1.27-16.8-.75-24.87a190,190,0,0,1,6.67,39.84,71.35,71.35,0,0,0,.8,8.63c1,5.37,3.43,10.77,2.18,16.09-.29,1.24-7-2.34-7.67-3.34C619.72,269.13,620.06,263.44,620.27,260.63Z"/><path class="cls-1" d="M731.27,232.59c.24-3.38,1.15-6.69,1.34-10.08.3-5.1-1.05-10.15-1.43-15.26-.63-8.29,1.27-16.8-.75-24.87a190,190,0,0,1,6.67,39.84,71.16,71.16,0,0,0,.8,8.63c1,5.38,3.43,10.77,2.18,16.09-.29,1.24-7-2.34-7.67-3.34C730.72,241.09,731.06,235.4,731.27,232.59Z"/><path class="cls-1" d="M752.31,248.86c.24-3.38,1.15-6.69,1.34-10.08.3-5.1-1-10.15-1.44-15.26-.62-8.29,1.28-16.8-.74-24.88a190.23,190.23,0,0,1,6.67,39.85,71.35,71.35,0,0,0,.8,8.63c1,5.37,3.43,10.77,2.18,16.09-.29,1.24-7-2.34-7.67-3.34C751.76,257.36,752.1,251.67,752.31,248.86Z"/><path class="cls-1" d="M762.51,224.42c.24-3.38,1.15-6.69,1.35-10.08.29-5.11-1.05-10.15-1.44-15.26-.63-8.29,1.28-16.81-.75-24.88A190.24,190.24,0,0,1,768.34,214a73.39,73.39,0,0,0,.8,8.64c1,5.37,3.44,10.77,2.19,16.09-.29,1.24-7-2.34-7.67-3.34C762,232.92,762.31,227.23,762.51,224.42Z"/><path class="cls-1" d="M504.87,244.51c.24-3.38,1.15-6.69,1.35-10.08.29-5.1-1.06-10.15-1.44-15.26-.63-8.29,1.27-16.8-.75-24.87a190,190,0,0,1,6.67,39.84,71.35,71.35,0,0,0,.8,8.63c1,5.37,3.44,10.77,2.19,16.09-.3,1.24-7-2.34-7.67-3.34C504.32,253,504.67,247.32,504.87,244.51Z"/><path class="cls-1" d="M247.41,242.65c.25-3.38,1.16-6.69,1.35-10.07.29-5.11-1-10.16-1.44-15.26-.62-8.3,1.28-16.81-.74-24.88a191.33,191.33,0,0,1,6.67,39.84,71,71,0,0,0,.8,8.63c1,5.38,3.43,10.77,2.18,16.09-.29,1.24-7-2.34-7.67-3.34C246.87,251.16,247.21,245.47,247.41,242.65Z"/><path class="cls-1" d="M413,256.19c.25-3.38,1.16-6.69,1.35-10.07.3-5.11-1.05-10.16-1.44-15.26-.62-8.3,1.28-16.81-.74-24.88a191.33,191.33,0,0,1,6.67,39.84,71,71,0,0,0,.8,8.63c1,5.38,3.43,10.77,2.18,16.09-.29,1.24-7-2.34-7.67-3.34C412.44,264.7,412.78,259,413,256.19Z"/><path class="cls-1" d="M650.85,242.94c.24-3.39,1.15-6.7,1.34-10.08.3-5.11-1.05-10.16-1.43-15.26-.63-8.3,1.27-16.81-.75-24.88a190,190,0,0,1,6.67,39.84,71.32,71.32,0,0,0,.8,8.64c1,5.37,3.43,10.76,2.18,16.08-.29,1.24-7-2.33-7.67-3.33C650.3,251.44,650.65,245.75,650.85,242.94Z"/><path class="cls-1" d="M262.81,249.17c.24-3.38,1.16-6.69,1.35-10.07.29-5.11-1.05-10.16-1.44-15.26C262.09,215.54,264,207,262,199a190.69,190.69,0,0,1,6.68,39.84,69,69,0,0,0,.8,8.63c1,5.38,3.43,10.77,2.18,16.09-.29,1.24-7-2.34-7.67-3.33C262.27,257.68,262.61,252,262.81,249.17Z"/><path class="cls-1" d="M200.16,236.8c.24-3.38,1.15-6.69,1.35-10.07.29-5.11-1-10.16-1.44-15.26-.63-8.3,1.28-16.81-.75-24.88A190,190,0,0,1,206,226.43a73,73,0,0,0,.8,8.63c1,5.38,3.44,10.77,2.19,16.09-.3,1.24-7-2.34-7.67-3.33C199.61,245.31,200,239.62,200.16,236.8Z"/><path class="cls-1" d="M109.41,238.82c.19-4.35,0-8.72.5-13,.35-3.12,1-6.2,1.13-9.33a47.89,47.89,0,0,0-1.72-11.93,31,31,0,0,1,6.76,19.35c0,4.51-1,8.95-1.5,13.44-1,9.58.36,19.3-.77,28.87-1.06,9-4.88-4.45-5.14-6.78C107.91,252.56,109.12,245.65,109.41,238.82Z"/><path class="cls-1" d="M131.41,248.57c.24-3.38,1.15-6.69,1.34-10.08.3-5.11-1.05-10.16-1.43-15.26-.63-8.3,1.27-16.81-.75-24.88a190.24,190.24,0,0,1,6.67,39.84,71.32,71.32,0,0,0,.8,8.64c1,5.37,3.43,10.77,2.18,16.08-.29,1.25-7-2.33-7.67-3.33C130.86,257.07,131.2,251.38,131.41,248.57Z"/><path class="cls-1" d="M166.08,247.34c.24-3.38,1.16-6.69,1.35-10.08.29-5.1-1.05-10.15-1.44-15.26-.62-8.29,1.28-16.8-.75-24.88A190.89,190.89,0,0,1,171.92,237a71.35,71.35,0,0,0,.8,8.63c1,5.37,3.43,10.77,2.18,16.09-.29,1.24-7-2.34-7.67-3.34C165.54,255.84,165.88,250.15,166.08,247.34Z"/><path class="cls-1" d="M216.92,249c.24-3.38,1.15-6.69,1.35-10.08.29-5.11-1.06-10.16-1.44-15.26-.63-8.3,1.27-16.81-.75-24.88a190.24,190.24,0,0,1,6.67,39.84,71.32,71.32,0,0,0,.8,8.64c1,5.37,3.44,10.77,2.18,16.08-.29,1.25-7-2.33-7.67-3.33C216.37,257.47,216.72,251.78,216.92,249Z"/><path class="cls-1" d="M149,239.22c.19-4.34,0-8.71.49-13,.36-3.12,1-6.2,1.13-9.33.11-4-.81-8-1.72-11.94a31.09,31.09,0,0,1,6.77,19.36c0,4.51-1,8.95-1.5,13.43-1,9.58.35,19.31-.78,28.87-1.06,9-4.88-4.44-5.14-6.77C147.49,253,148.71,246.06,149,239.22Z"/><path class="cls-1" d="M229.19,219.84c.19-4.35,0-8.72.5-13,.35-3.12,1.05-6.2,1.13-9.33a48,48,0,0,0-1.73-11.94,31,31,0,0,1,6.77,19.36c0,4.51-1,9-1.5,13.44-1,9.58.36,19.3-.77,28.87-1.06,9-4.88-4.45-5.14-6.78C227.69,233.58,228.9,226.67,229.19,219.84Z"/><path class="cls-1" d="M288.29,234.29c.19-4.34,0-8.71.5-13,.35-3.11,1-6.19,1.13-9.33A48,48,0,0,0,288.19,200,31,31,0,0,1,295,219.35c0,4.51-1,9-1.5,13.43-1,9.58.36,19.31-.77,28.87-1.06,9-4.88-4.44-5.14-6.78C286.79,248,288,241.13,288.29,234.29Z"/><path class="cls-1" d="M298.73,223.81c.18-4.35,0-8.72.49-13,.35-3.12,1-6.2,1.13-9.33a48,48,0,0,0-1.72-11.94,31,31,0,0,1,6.76,19.36c0,4.51-1,8.95-1.49,13.44-1,9.58.35,19.3-.78,28.87-1.06,9-4.88-4.45-5.14-6.78C297.22,237.55,298.43,230.64,298.73,223.81Z"/><path class="cls-1" d="M712.8,235c.18-4.34,0-8.71.49-13,.35-3.12,1.05-6.2,1.13-9.33a48,48,0,0,0-1.72-11.94A31.09,31.09,0,0,1,719.47,220c0,4.51-1,9-1.5,13.44-1,9.58.35,19.3-.78,28.87-1.06,9-4.88-4.45-5.14-6.78C711.29,248.72,712.5,241.82,712.8,235Z"/><path class="cls-1" d="M473.53,233.43c.19-4.35,0-8.72.5-13,.35-3.12,1-6.2,1.12-9.33.11-4-.81-8-1.72-11.94a31.09,31.09,0,0,1,6.77,19.36c0,4.51-1,9-1.5,13.44-1,9.58.35,19.3-.78,28.87-1.06,9-4.87-4.45-5.13-6.78C472,247.17,473.24,240.26,473.53,233.43Z"/><path class="cls-1" d="M666.71,223c.19-4.34,0-8.71.5-13,.35-3.12,1-6.2,1.13-9.33a47.58,47.58,0,0,0-1.73-11.94,31,31,0,0,1,6.77,19.36c0,4.51-1,8.95-1.5,13.44-1,9.57.36,19.3-.77,28.86-1.06,9-4.88-4.44-5.14-6.77C665.21,236.73,666.42,229.83,666.71,223Z"/><path class="cls-1" d="M780.09,232.24c.18-4.34,0-8.71.49-13,.35-3.11,1-6.19,1.13-9.32A48,48,0,0,0,780,197.94a31.09,31.09,0,0,1,6.77,19.36c0,4.51-1,8.95-1.5,13.43-1,9.58.35,19.31-.78,28.87-1.06,9-4.88-4.44-5.14-6.77C778.58,246,779.79,239.08,780.09,232.24Z"/><path class="cls-1" d="M680.74,244c.19-4.35,0-8.72.5-13,.35-3.12,1-6.2,1.13-9.33a47.9,47.9,0,0,0-1.73-11.93A31,31,0,0,1,687.41,229c0,4.51-1,8.95-1.5,13.44-1,9.58.36,19.3-.77,28.87-1.07,9-4.88-4.45-5.14-6.78C679.24,257.69,680.45,250.78,680.74,244Z"/><path class="cls-1" d="M193.74,234c-.5-4.32-.63-8.69-1.42-13-.57-3.08-1.48-6.11-1.78-9.23a47.68,47.68,0,0,1,.87-12A31,31,0,0,0,186,219.57c.33,4.49,1.65,8.85,2.44,13.29,1.7,9.48,1,19.28,2.82,28.74,1.69,8.89,4.55-4.78,4.65-7.12C196.21,247.6,194.51,240.8,193.74,234Z"/><path class="cls-1" d="M389.26,228.91c-.49-4.32-.62-8.69-1.41-13-.57-3.08-1.49-6.11-1.79-9.23-.39-4,.25-8,.88-12a31.07,31.07,0,0,0-5.39,19.79c.34,4.49,1.65,8.85,2.45,13.29,1.7,9.48,1,19.28,2.81,28.74,1.7,8.89,4.56-4.78,4.65-7.12C391.74,242.51,390,235.71,389.26,228.91Z"/><path class="cls-1" d="M535.27,231.24c-.5-4.32-.63-8.69-1.42-13-.57-3.08-1.48-6.11-1.79-9.23a48.15,48.15,0,0,1,.88-12,31,31,0,0,0-5.38,19.78c.33,4.5,1.65,8.86,2.44,13.3,1.7,9.48,1,19.28,2.82,28.74,1.69,8.89,4.55-4.78,4.64-7.12C537.74,244.84,536,238,535.27,231.24Z"/><path class="cls-1" d="M493.35,218.16c-.5-4.32-.63-8.69-1.42-13-.57-3.08-1.48-6.11-1.79-9.23a48.15,48.15,0,0,1,.88-12,31,31,0,0,0-5.38,19.79c.33,4.49,1.65,8.85,2.44,13.29,1.7,9.48,1,19.28,2.82,28.74,1.69,8.89,4.55-4.78,4.64-7.12C495.82,231.76,494.12,225,493.35,218.16Z"/><path class="cls-1" d="M576.8,224.08c-.5-4.32-.63-8.69-1.42-13-.57-3.08-1.48-6.11-1.79-9.23a48.15,48.15,0,0,1,.88-12,31,31,0,0,0-5.38,19.78c.33,4.5,1.65,8.86,2.44,13.3,1.7,9.48,1,19.28,2.82,28.74,1.69,8.89,4.55-4.78,4.64-7.12C579.27,237.68,577.57,230.88,576.8,224.08Z"/><path class="cls-1" d="M431.07,245.42c-.49-4.33-.62-8.7-1.42-13-.57-3.09-1.48-6.11-1.78-9.23a47.76,47.76,0,0,1,.87-12A31.06,31.06,0,0,0,423.36,231c.33,4.5,1.65,8.86,2.45,13.3,1.69,9.48,1,19.28,2.81,28.74,1.7,8.89,4.55-4.78,4.65-7.13C433.54,259,431.85,252.21,431.07,245.42Z"/><path class="cls-1" d="M1061.38,256.13c.24-3.38,1.15-6.69,1.35-10.08.29-5.1-1.06-10.15-1.44-15.26-.63-8.29,1.28-16.8-.75-24.88a190.23,190.23,0,0,1,6.67,39.85,71.35,71.35,0,0,0,.8,8.63c1,5.37,3.44,10.77,2.19,16.09-.3,1.24-7-2.34-7.67-3.34C1060.83,264.63,1061.18,258.94,1061.38,256.13Z"/><path class="cls-1" d="M1075.73,275.83c.25-3.38,1.16-6.69,1.35-10.08.29-5.11-1-10.16-1.44-15.26-.62-8.3,1.28-16.81-.74-24.88a191.55,191.55,0,0,1,6.67,39.84,71.32,71.32,0,0,0,.8,8.64c1,5.37,3.43,10.77,2.18,16.08-.29,1.25-7-2.33-7.67-3.33C1075.19,284.33,1075.53,278.64,1075.73,275.83Z"/><path class="cls-1" d="M1089.66,264.68c.25-3.38,1.16-6.69,1.35-10.07.29-5.11-1-10.16-1.44-15.26-.62-8.3,1.28-16.81-.74-24.88a191.33,191.33,0,0,1,6.67,39.84,71.16,71.16,0,0,0,.8,8.63c1,5.38,3.43,10.77,2.18,16.09-.29,1.24-7-2.34-7.67-3.34C1089.12,273.19,1089.46,267.49,1089.66,264.68Z"/><path class="cls-1" d="M1132.55,272.33c.24-3.38,1.15-6.69,1.35-10.08.29-5.11-1.06-10.16-1.44-15.26-.63-8.3,1.27-16.81-.75-24.88a190.24,190.24,0,0,1,6.67,39.84,71.32,71.32,0,0,0,.8,8.64c1,5.37,3.44,10.77,2.19,16.09-.3,1.24-7-2.34-7.67-3.34C1132,280.83,1132.35,275.14,1132.55,272.33Z"/><path class="cls-1" d="M1040,265.32c.24-3.39,1.16-6.7,1.35-10.08.29-5.11-1-10.16-1.44-15.26-.62-8.3,1.28-16.81-.74-24.88a191.44,191.44,0,0,1,6.67,39.84,71.32,71.32,0,0,0,.8,8.64c1,5.37,3.43,10.77,2.18,16.08-.29,1.24-7-2.33-7.67-3.33C1039.46,273.82,1039.8,268.13,1040,265.32Z"/><path class="cls-1" d="M1101.21,261.24c.19-4.34,0-8.71.5-13,.35-3.12,1-6.2,1.12-9.33.11-4-.81-8-1.72-11.94a31.09,31.09,0,0,1,6.77,19.36c0,4.51-1,8.95-1.5,13.43-1,9.58.35,19.31-.78,28.87-1.06,9-4.87-4.44-5.13-6.77C1099.7,275,1100.92,268.08,1101.21,261.24Z"/><path class="cls-1" d="M1121,246c-.5-4.33-.63-8.69-1.42-13-.57-3.08-1.48-6.11-1.79-9.23a48.27,48.27,0,0,1,.88-12,31,31,0,0,0-5.38,19.79c.33,4.5,1.65,8.86,2.44,13.3,1.7,9.48,1,19.28,2.82,28.74,1.69,8.89,4.55-4.78,4.64-7.12C1123.5,259.58,1121.8,252.77,1121,246Z"/><path class="cls-1" d="M1058.09,254.54c-.5-4.32-.63-8.69-1.42-13-.57-3.08-1.48-6.11-1.78-9.23a47.68,47.68,0,0,1,.87-12,31,31,0,0,0-5.38,19.78c.33,4.5,1.65,8.86,2.44,13.3,1.7,9.48,1,19.28,2.82,28.74,1.69,8.89,4.55-4.78,4.65-7.12C1060.56,268.14,1058.86,261.34,1058.09,254.54Z"/><path class="cls-1" d="M404.76,240.7c-.49-4.33-.62-8.7-1.42-13-.57-3.09-1.48-6.11-1.78-9.23a47.79,47.79,0,0,1,.87-12,31.06,31.06,0,0,0-5.38,19.79c.34,4.5,1.65,8.86,2.45,13.3,1.69,9.48,1,19.28,2.81,28.74,1.7,8.89,4.55-4.78,4.65-7.12C407.23,254.3,405.54,247.49,404.76,240.7Z"/><path class="cls-1" d="M278.92,218.08c-.49-4.33-.62-8.7-1.42-13-.57-3.09-1.48-6.11-1.78-9.23a47.76,47.76,0,0,1,.87-12,31.06,31.06,0,0,0-5.38,19.79c.33,4.5,1.65,8.86,2.45,13.3,1.69,9.48,1,19.28,2.81,28.74,1.69,8.89,4.55-4.78,4.65-7.13C281.39,231.68,279.7,224.87,278.92,218.08Z"/><path class="cls-1" d="M644.91,237.39c-.49-4.32-.62-8.69-1.42-13-.57-3.08-1.48-6.11-1.78-9.23a47.79,47.79,0,0,1,.87-12A31.08,31.08,0,0,0,637.2,223c.33,4.5,1.65,8.86,2.45,13.3,1.69,9.48,1,19.28,2.81,28.74,1.69,8.89,4.55-4.78,4.65-7.12C647.38,251,645.69,244.18,644.91,237.39Z"/><path class="cls-1" d="M1199.17,236.76c.24-3.38,1.15-6.69,1.34-10.07.3-5.11-1-10.16-1.43-15.26-.63-8.3,1.27-16.81-.75-24.88a190,190,0,0,1,6.67,39.84,71,71,0,0,0,.8,8.63c1,5.38,3.43,10.77,2.18,16.09-.29,1.24-7-2.34-7.67-3.33C1198.62,245.27,1199,239.58,1199.17,236.76Z"/><path class="cls-1" d="M1156.56,259.71c.25-3.38,1.16-6.69,1.35-10.08.29-5.11-1.05-10.15-1.44-15.26-.62-8.29,1.28-16.81-.74-24.88a191.55,191.55,0,0,1,6.67,39.84,71.32,71.32,0,0,0,.8,8.64c1,5.37,3.43,10.77,2.18,16.09-.29,1.24-7-2.34-7.67-3.34C1156,268.21,1156.36,262.52,1156.56,259.71Z"/><path class="cls-1" d="M1217.76,230.35c.18-4.35,0-8.72.49-13,.35-3.11,1-6.2,1.13-9.33a47.89,47.89,0,0,0-1.72-11.93,31,31,0,0,1,6.77,19.35c0,4.51-1,9-1.5,13.44-1,9.58.35,19.3-.78,28.87-1.06,9-4.88-4.45-5.14-6.78C1216.25,244.09,1217.46,237.18,1217.76,230.35Z"/><path class="cls-1" d="M1172.43,239.77c.19-4.35,0-8.72.5-13,.35-3.11,1-6.2,1.13-9.33a47.9,47.9,0,0,0-1.73-11.93,31,31,0,0,1,6.77,19.35c0,4.51-1,9-1.5,13.44-1,9.58.36,19.3-.77,28.87-1.07,9-4.88-4.45-5.14-6.78C1170.93,253.51,1172.14,246.6,1172.43,239.77Z"/><path class="cls-1" d="M1185.7,239.31c.19-4.35,0-8.71.5-13,.35-3.11,1-6.19,1.13-9.33A48,48,0,0,0,1185.6,205a31.07,31.07,0,0,1,6.77,19.36c0,4.51-1,8.95-1.5,13.43-1,9.58.36,19.3-.77,28.87-1.07,9-4.88-4.45-5.14-6.78C1184.2,253.05,1185.41,246.14,1185.7,239.31Z"/><path class="cls-1" d="M1150.63,254.16c-.5-4.32-.63-8.69-1.42-13-.57-3.08-1.48-6.11-1.78-9.23a47.68,47.68,0,0,1,.87-12,31,31,0,0,0-5.38,19.79c.33,4.49,1.65,8.85,2.44,13.29,1.7,9.48,1,19.28,2.82,28.74,1.69,8.89,4.55-4.78,4.65-7.12C1153.1,267.76,1151.4,261,1150.63,254.16Z"/><path class="cls-1" d="M802.11,243.71c-.5-4.32-.63-8.69-1.42-13-.57-3.08-1.48-6.1-1.79-9.22a48.2,48.2,0,0,1,.88-12,31,31,0,0,0-5.38,19.79c.33,4.5,1.65,8.85,2.44,13.29,1.7,9.49,1,19.28,2.82,28.75,1.69,8.89,4.55-4.79,4.64-7.13C804.58,257.31,802.88,250.51,802.11,243.71Z"/><path class="cls-1" d="M1028.25,264c.24-3.38,1.15-6.69,1.35-10.08.29-5.1-1.06-10.15-1.44-15.26-.63-8.29,1.27-16.8-.75-24.87a190,190,0,0,1,6.67,39.84,71.35,71.35,0,0,0,.8,8.63c1,5.37,3.44,10.77,2.18,16.09-.29,1.24-7-2.34-7.67-3.34C1027.7,272.49,1028.05,266.8,1028.25,264Z"/><path class="cls-1" d="M1013.75,254.32c.24-3.38,1.15-6.69,1.34-10.07.3-5.11-1.05-10.16-1.43-15.26-.63-8.3,1.27-16.81-.75-24.88a190,190,0,0,1,6.67,39.84,71.16,71.16,0,0,0,.8,8.63c1,5.38,3.43,10.77,2.18,16.09-.29,1.24-7-2.34-7.67-3.34C1013.2,262.83,1013.54,257.13,1013.75,254.32Z"/><path class="cls-1" d="M897,240.14c.24-3.38,1.15-6.69,1.35-10.08.29-5.11-1.05-10.16-1.44-15.26-.63-8.3,1.28-16.81-.75-24.88a190.24,190.24,0,0,1,6.67,39.84,73.39,73.39,0,0,0,.8,8.64c1,5.37,3.44,10.77,2.19,16.09-.29,1.24-7-2.34-7.67-3.34C896.43,248.64,896.77,243,897,240.14Z"/><path class="cls-1" d="M934.68,249.62c.24-3.38,1.15-6.69,1.35-10.07.29-5.11-1.06-10.16-1.44-15.26-.63-8.3,1.27-16.81-.75-24.88a190,190,0,0,1,6.67,39.84,71,71,0,0,0,.8,8.63c1,5.38,3.44,10.77,2.18,16.09-.29,1.24-7-2.34-7.67-3.34C934.13,258.13,934.48,252.44,934.68,249.62Z"/><path class="cls-1" d="M955.72,265.89c.24-3.38,1.15-6.69,1.35-10.07.29-5.11-1.06-10.16-1.44-15.26-.63-8.3,1.27-16.81-.75-24.88a190,190,0,0,1,6.67,39.84,71,71,0,0,0,.8,8.63c1,5.38,3.44,10.77,2.18,16.09-.29,1.24-7-2.34-7.67-3.34C955.17,274.4,955.52,268.7,955.72,265.89Z"/><path class="cls-1" d="M965.92,241.45c.25-3.38,1.16-6.69,1.35-10.07.29-5.11-1-10.16-1.44-15.26-.62-8.3,1.28-16.81-.74-24.88a191.33,191.33,0,0,1,6.67,39.84,71.16,71.16,0,0,0,.8,8.63c1,5.38,3.43,10.77,2.18,16.09-.29,1.24-7-2.34-7.67-3.34C965.38,250,965.72,244.26,965.92,241.45Z"/><path class="cls-1" d="M853.61,241.67c.24-3.38,1.15-6.69,1.35-10.07.29-5.11-1.05-10.16-1.44-15.26-.63-8.3,1.28-16.81-.75-24.88a190,190,0,0,1,6.67,39.84,73,73,0,0,0,.8,8.63c1,5.38,3.44,10.77,2.19,16.09-.29,1.24-7-2.34-7.67-3.34C853.06,250.18,853.41,244.49,853.61,241.67Z"/><path class="cls-1" d="M915.56,233.72c.19-4.34,0-8.71.5-13,.35-3.11,1-6.19,1.13-9.33a48,48,0,0,0-1.73-11.93,31.09,31.09,0,0,1,6.77,19.36c0,4.51-1,8.95-1.5,13.43-1,9.58.36,19.31-.77,28.87-1.07,9-4.88-4.45-5.14-6.78C914.05,247.46,915.27,240.56,915.56,233.72Z"/><path class="cls-1" d="M869.48,221.73c.19-4.34,0-8.71.49-13,.36-3.11,1-6.19,1.13-9.33.11-4-.81-8-1.72-11.93a31.09,31.09,0,0,1,6.77,19.36c0,4.51-1,9-1.5,13.43-1,9.58.35,19.31-.78,28.87-1.06,9-4.88-4.45-5.14-6.78C868,235.47,869.19,228.57,869.48,221.73Z"/><path class="cls-1" d="M983.5,249.27c.19-4.34,0-8.71.49-13,.36-3.12,1-6.2,1.13-9.33.11-4-.81-8-1.72-11.94a31.09,31.09,0,0,1,6.77,19.36c0,4.51-1,8.95-1.5,13.44-1,9.58.35,19.3-.78,28.87-1.06,9-4.88-4.45-5.14-6.78C982,263,983.21,256.11,983.5,249.27Z"/><path class="cls-1" d="M883.51,242.68c.18-4.34,0-8.71.49-13,.35-3.12,1-6.2,1.13-9.33a48,48,0,0,0-1.72-11.94,31.09,31.09,0,0,1,6.77,19.36c0,4.51-1,8.95-1.5,13.44-1,9.57.35,19.3-.78,28.86-1.06,9-4.88-4.44-5.14-6.77C882,256.42,883.21,249.52,883.51,242.68Z"/><path class="cls-1" d="M847.67,236.13c-.49-4.33-.62-8.7-1.41-13-.57-3.09-1.49-6.11-1.79-9.23-.39-4,.25-8.05.88-12A31,31,0,0,0,840,221.69c.33,4.5,1.65,8.86,2.44,13.3,1.7,9.48,1,19.27,2.82,28.74,1.69,8.89,4.55-4.78,4.64-7.13C850.15,249.72,848.45,242.92,847.67,236.13Z"/><path class="cls-1" d="M1005.52,260.75c-.49-4.33-.63-8.7-1.42-13-.57-3.08-1.48-6.1-1.78-9.22a47.76,47.76,0,0,1,.87-12,31.06,31.06,0,0,0-5.38,19.79c.33,4.5,1.65,8.86,2.44,13.3,1.7,9.48,1,19.27,2.82,28.74,1.69,8.89,4.55-4.78,4.65-7.13C1008,274.34,1006.29,267.54,1005.52,260.75Z"/><rect class="cls-2" x="0.13" y="238.05" width="1303.57" height="476.89"/><path class="cls-3" d="M1302.74,508c0,.2-196.3,2-210.54-5.5a182.88,182.88,0,0,1-16.35-10.2l-45.68-30.82c-10.77-7.27-38.06-18.86-44.23-30.05-4.73-8.59-.8-28.95-.8-38.81V241.87h317.6Z"/><polygon class="cls-4" points="325.13 249.81 365.96 249.5 408.02 254.27 457.58 251.41 525.17 256.17 595.76 254.27 658.95 251.16 658.84 238.05 325.41 238.05 325.13 249.81"/><path class="cls-4" d="M984.18,421.18H761.65c-15.25,0-29,2-42.38-5.33-14-7.68-23-22.68-34.85-33-5.87-5.08-18.24-8.73-22.68-13.64-6.28-6.93-4.46-15.71-4.45-26q0-45.9,0-91.82H984.18Z"/><path class="cls-5" d="M324.62,239.71H261.79c-3.9,7.07,2,16.46,8.49,21.27s14.57,7.53,20.33,13.22c7.06,7,9.59,17.37,16,25,3.23,3.83,7.55,7.15,8.79,12,.63,2.49.36,5.11.74,7.65.51,3.49,2.22,6.68,3.57,9.94,3.81,9.22.12,24.78,9.19,29,4.31,2,12.79.92,17.46,1.25l41.5,3a54.36,54.36,0,0,0,15-1l60.3-12.64a27.16,27.16,0,0,1,6.23-.55l55.59,1.63a20.52,20.52,0,0,1,8.56,2.15L552.63,361a25.92,25.92,0,0,0,8.23,2.51l22.89,3A34,34,0,0,0,599.24,365l29.59-10.22,11.86-3.61c4.68-1.43,9.52-1.67,14.13-3.56,2.18-.9,4.47-1.31,5.06-4.42s.17-8.19.38-11.52c.31-5,0-10.29,0-15.34q.06-18.45,0-36.88c0-6.14.16-12.23.38-18.35.1-2.73.73-9.92-2-10.67a20.53,20.53,0,0,0-7-.63l-6.38.29-18.19.83-50,2.29-26.56,1.22-23.87.72a3.38,3.38,0,0,1-.45,0l-67.25-5.72h-.6l-48.93,3.52a3.63,3.63,0,0,1-.93,0l-40.48-7a11.83,11.83,0,0,0-2.45-.16c-12.57.53-24.37,1.14-35.45-6Z"/><line class="cls-6" x1="318.93" y1="319.6" x2="318.93" y2="600.96"/><path class="cls-7" d="M1302.05,453c0-.82-7.78,1.84-8.44,2.27a13.84,13.84,0,0,0-5.79,7.57c-1,3.44-.71,7.16-1.72,10.6-2.75,9.42-16.73,11.05-24.76,8.88-12.64-3.42-14.26-10.38-28.76-2.67-6.4,3.4-13,7.47-20.26,7-13.86-.91-25.45-3.44-39,2.5-4.07,1.78-9,3-12.75.54-2.4-1.59-3.79-4.45-6.29-5.88-2-1.12-4.3-1.21-6.55-1.36-5.54-.37-11.78-1.8-14.55-6.63-6.58-11.53-16.08-18.84-28.6-22.85-13.76-4.41-28.26,4.75-41-.48-10.28-4.23-17.38-16.56-27.74-18.58-4.35-.85-8.83-.5-13.26-.78-20.84-1.3-28.82-16.93-45-26.35-17.56-10.23-41.6-11.81-61.4-11.64-10.53.09-23,2.39-30-5.48-1.77-2-3-4.51-5.17-6.05-3.3-2.34-7.73-1.79-11.77-1.61-20.35.92-37-10.25-57.48-10.4-7.36-.05-15.61.31-20.65,5.66-6.36,6.74-5.31,19.26-16.72,21.3a17.13,17.13,0,0,1-14.06-4.1c-15.33-13.08-31.3-15.43-43.33-31.79-8.22-11.18-23.23-18.84-34.25-26.94-12.8-9.41-27-19.25-42.82-18.65-7.07.26-13.94,2.64-21,2.93s-14.15-1.52-21.24-2.2c-17.59-1.66-34.63,3.69-51.9,5.9-15.71,2-28.93-.29-44-4C485,315.58,467.36,316,450,316.53c-29.21.82-57,3.39-85.17-5.68-4.68-1.51-9.47-3.08-13.3-6.16-3.56-2.87-6-6.84-8.51-10.68-14.4-22.26-18.7-54.68-51.77-54.68-32.56,0-65-.32-97.56-.32H21.92c-3.43,0-6.86,0-10.28,0-3.14,0-7.26-.7-10.29,0-1.24.3-.74-.23-1.1,1a9,9,0,0,0,0,2.37c0,1.69.06,3.38.1,5.06.08,3.27.18,6.55.2,9.82,0,5.15-2.11,22.56,1.71,24.92,2.72,1.68,10,1.05,13.4,2,6.92,2,12.85,7,20.44,6.05a13.07,13.07,0,0,1,6.23.66c10.22,3.7,13.94,9.26,26.68,8.55,13.87-.78,27-6.62,40.72-8.63,33-4.83,65.55,12.47,98.92,12,8.71-.12,17.41-1.46,26.11-.85,21.33,1.49,46.3,5.62,65.26,16,22.94,12.58,25.35,34.55,39.23,55.31a71.06,71.06,0,0,0,58.92,31c41-.54,76.62-36.47,117.34-32,20.62,2.27,40.14,7.84,60.89,9.47,22.26,1.75,47.06,2.1,67.81,11.22,28.16,12.38,46.1,40.63,72.32,56.71,28.81,17.67,64.4,18.94,98.19,19.7l106.93,2.4c18.19.41,37.21,1,53.06,9.95,14.23,8,27.81,17.12,41.31,26.29,12.5,8.5,20.42,19,31.24,29.47,13.16,12.77,31.08,12.36,48.17,12.24,18.87-.13,33.6,7,51.64,8.7,9.82.93,19.42,4.94,29.34,4.74,10.52-.22,13.64-8.19,22.18-11.82,12.49-5.3,22.64-1,34.65,1.2,10.55,1.94,10.74-1.09,13.19-10.1,2.56-9.37,14-6.41,19.92-1.94a6.62,6.62,0,0,0,2.75,1.54,5.1,5.1,0,0,0,2.15-.26c11.12-3.09,20.82-6,32.41-7.19C1303.69,507.32,1302.05,480.26,1302.05,453Z"/><path class="cls-8" d="M622.48,371.27c-.58-.44-1.69-.18-2.31-.13a21.82,21.82,0,0,0-3.59.57c-1.79.43-3.9,1.72-3.48,3.48.33,1.42,2.07,1.95,3.53,2.23a6.33,6.33,0,0,0,2.84,0c.33-.1.56-.38.89-.48a2.57,2.57,0,0,0,.84-.23,2.94,2.94,0,0,0,1.13-1.36,5.7,5.7,0,0,0,.48-2.08,3.58,3.58,0,0,0-.14-1.79A.85.85,0,0,0,622.48,371.27Z"/><path class="cls-8" d="M412.06,389.43c-.58-.43-1.69-.17-2.31-.12a23,23,0,0,0-3.6.56c-1.79.44-3.89,1.72-3.48,3.49.34,1.42,2.08,1.95,3.54,2.22a6.15,6.15,0,0,0,2.83,0c.33-.1.57-.39.9-.48a2.93,2.93,0,0,0,.84-.23,3.06,3.06,0,0,0,1.13-1.36,5.78,5.78,0,0,0,.47-2.08c0-.48.15-1.39-.14-1.79A.86.86,0,0,0,412.06,389.43Z"/><path class="cls-8" d="M576,366.07l.55,0c1.44-.07,2.89.15,4.35.08a3.47,3.47,0,0,0,2.23-.7,2.44,2.44,0,0,0,0-3.24,6.81,6.81,0,0,0-3.07-1.83c-2.74-1-6.68-1.28-7.71,1.4a3.44,3.44,0,0,0,.83,3.52A3.63,3.63,0,0,0,576,366.07Z"/><path class="cls-8" d="M549.46,365.63a4.09,4.09,0,0,0-2.12-.43,8.49,8.49,0,0,0-3,.3,4.36,4.36,0,0,0-3.25,3.7,2.89,2.89,0,0,0,1.12,2.28,3.56,3.56,0,0,0,2.28.59,3.41,3.41,0,0,0,1.83-.29,6.45,6.45,0,0,0,2.79-3c.33-.67.95-2.12.6-2.87A.89.89,0,0,0,549.46,365.63Z"/><path class="cls-8" d="M593.93,374.84c.24-.17.44-.41.68-.59s.28-.19.4-.3a7.14,7.14,0,0,1,1.09-1.11,8,8,0,0,0,1.33-1.14,6.2,6.2,0,0,0,.89-1.15,2.26,2.26,0,0,0,.18-1.27,1.27,1.27,0,0,0-.08-.51c-.23-.45-1.16-.41-1.58-.45a12,12,0,0,0-1.8-.05,6,6,0,0,0-3.24,1.09,3.7,3.7,0,0,0-1.19,3.73c.31,1.3,1.88,2.69,3.28,1.78Z"/><path class="cls-8" d="M533.9,361.91a1.75,1.75,0,0,0-.11-.24c-.36-.73-1.55-1.21-2.29-1.52a5.08,5.08,0,0,0-2.72-.42,4.23,4.23,0,0,0-2.29,1.21,2.08,2.08,0,0,0-.74,1.95,1.18,1.18,0,0,0,.48.62,2.34,2.34,0,0,0,.72.28,7.39,7.39,0,0,0,1.55.26,7.63,7.63,0,0,0,3.07-.43A7,7,0,0,0,533,363c.27-.18,1-.53,1-.89Z"/><path class="cls-8" d="M445.63,376.21a5.54,5.54,0,0,1-.95.35c-.27.09-2.58.5-2.64,0a6.29,6.29,0,0,1,2.44-5.39c1-.78,3.21-1.87,4.47-1.51,2.5.7-1.44,4.8-2.12,5.61A3.64,3.64,0,0,1,445.63,376.21Z"/><path class="cls-8" d="M427,388.41c-2.7-.33-6.56-1.66-6.42-4.61.08-1.62,1.63-2.88,3.25-3.22a11.73,11.73,0,0,1,4.91.41,10.49,10.49,0,0,1,5.24,2.52,3.09,3.09,0,0,1,1,2.35c-.16.85-1.77,1.84-2.52,2.4-1.2.89-3.12.28-4.49.23A9.17,9.17,0,0,1,427,388.41Z"/><path class="cls-8" d="M396.83,386a2.52,2.52,0,0,0-.35-1.64,2.94,2.94,0,0,0-1.18-.9,6,6,0,0,0-5-.24c-2.45,1.13-3.4,5.38-1.06,7.11C392.18,392.41,396.62,389,396.83,386Z"/><path class="cls-8" d="M372.09,392.77c-2.75.09-4.2-6.16-2.95-6.87,3.35-1.93,8.39,1,5.69,4.83C373.83,392.17,372.9,392.75,372.09,392.77Z"/><path class="cls-8" d="M461.23,378.2c-2.74.09-4.2-6.16-3-6.87,3.36-1.93,8.39.95,5.69,4.83C463,377.6,462.05,378.18,461.23,378.2Z"/><path class="cls-8" d="M349.05,372.53a5.53,5.53,0,0,1-5.36-.63,3.35,3.35,0,0,1-.56-4.82,4.71,4.71,0,0,1,3.53-1c2.44.06,5.43-.23,6.91,2.11,0,2.88-.35,3.32-3,3.63C351.09,371.75,348.53,372.56,349.05,372.53Z"/><path class="cls-8" d="M507.86,360.1a2.56,2.56,0,0,0-.35-1.65,2.83,2.83,0,0,0-1.18-.89,6,6,0,0,0-5-.25c-2.45,1.13-3.4,5.39-1.06,7.11C503.21,366.56,507.65,363.17,507.86,360.1Z"/><path class="cls-8" d="M571.79,373.37a1.56,1.56,0,0,0-.09-.74,5,5,0,0,0-1.76-2.18,11.29,11.29,0,0,0-3.63-1.87,10.78,10.78,0,0,0-4.07-.46c-.46,0-1.64,0-2,.37-.51.51.16,1.44.47,1.94l1.16,1.88a3.58,3.58,0,0,0,.55.73,2.83,2.83,0,0,0,.83.47c.77.31,1.6.45,2.39.71a6.4,6.4,0,0,0,2,.22c.87,0,3.82.07,4.11-.92A.4.4,0,0,0,571.79,373.37Z"/><path class="cls-8" d="M646.65,383.82c1.66-1.88,2.47-5.81,1.14-7.45-2.17-2.67-6.9-.22-7.47,2.4-.53,2.44,2.11,7,5,6A3.18,3.18,0,0,0,646.65,383.82Z"/><path class="cls-8" d="M483.12,366.59a5.51,5.51,0,0,1-5.35-.63c-1.47-1.13-1.88-3.53-.57-4.82a4.76,4.76,0,0,1,3.53-1.05c2.44.07,5.43-.23,6.91,2.12,0,2.88-.35,3.32-3,3.63C485.16,365.81,482.6,366.61,483.12,366.59Z"/><path class="cls-9" d="M325.13,95c0,207.1,0,413.26-.13,620"/><path class="cls-10" d="M660.63,53c.22,220.45.22,441.8,0,662"/><path class="cls-11" d="M663.33,238.18c-.06,0,0,12,.08,13.14,18.14.3,39.44,10.87,56.81,16.09l63.59,19.13c6.69,2,13.52,4,20.51,3.85,7.75-.21,15.14-3.14,22.74-4.63,22.34-4.38,45.32,3.72,68,2.17,10.23-.7,20.22-3.35,30-6.28,23.18-6.93,43.72-20.24,66.69-27.38,18.9-5.89,34.63,4.18,53.61,2.91,8.47-.57,16.6-3.94,25.09-4.19,14.7-.43,28.52,8.49,43.22,7.88a77.79,77.79,0,0,0,13.18-2.18c14.57-3.13,29.44-4.39,44.31-4.88,6.74-.22,15-1.52,21.62-.37,6,1,11,5.35,17.49,5.44,3.48.05,6.88-.9,10.27-1.7a132.61,132.61,0,0,1,38.48-2.93c14.49.91,29.1,4.15,43.48,2.13,0-1.47.15-18.56.39-18.56Z"/><path class="cls-12" d="M981.87,58.68c.4,218.6.4,438.09,0,656.26"/><path class="cls-13" d="M1303.17,241.14H782.53c-128.11,0-255.95,1.1-384.23.73q-199-.57-398-.73"/></g><g id="Layer_10" data-name="Layer 10"><text class="cls-14" transform="translate(74.93 112.97)">as <tspan class="cls-15" x="43.84" y="0">t</tspan><tspan x="52.06" y="0">empe</tspan><tspan class="cls-15" x="135.9" y="0">r</tspan><tspan x="144.99" y="0">atu</tspan><tspan class="cls-15" x="191.84" y="0">r</tspan><tspan x="200.92" y="0">e a</tspan><tspan class="cls-16" x="249.79" y="0">n</tspan><tspan x="267.55" y="0">d p</tspan><tspan class="cls-15" x="318.04" y="0">r</tspan><tspan x="327.13" y="0">ecipi</tspan><tspan class="cls-17" x="397.88" y="0">t</tspan><tspan x="406.11" y="0">ation i</tspan><tspan class="cls-18" x="499.32" y="0">n</tspan><tspan x="517.08" y="0">c</tspan><tspan class="cls-15" x="533.98" y="0">r</tspan><tspan x="543.06" y="0">ea</tspan><tspan class="cls-19" x="580.89" y="0">s</tspan><tspan class="cls-20" x="593.85" y="0">e</tspan><tspan class="cls-21" x="611.77" y="0">, o</tspan><tspan class="cls-15" x="647.38" y="0">r</tspan><tspan class="cls-21" x="656.47" y="0">ganis</tspan><tspan class="cls-22" x="735.29" y="0">m</tspan><tspan class="cls-21" x="763.48" y="0">s a</tspan><tspan class="cls-15" x="807.32" y="0">r</tspan><tspan class="cls-21" x="816.4" y="0">e </tspan><tspan class="cls-16" x="845.52" y="0">m</tspan><tspan x="873.01" y="0">o</tspan><tspan class="cls-15" x="892.27" y="0">r</tspan><tspan x="901.36" y="0">e act</tspan><tspan class="cls-23" x="975.98" y="0">i</tspan><tspan class="cls-16" x="983.86" y="0">v</tspan><tspan class="cls-20" x="999.44" y="0">e</tspan><tspan class="cls-21" x="1017.36" y="0">, c</tspan><tspan class="cls-18" x="1050.61" y="0">h</tspan><tspan x="1068.4" y="0">emical </tspan><tspan class="cls-15" x="150.4" y="50">r</tspan><tspan x="159.49" y="50">eactio</tspan><tspan class="cls-22" x="250.36" y="50">n</tspan><tspan x="268.83" y="50">s a</tspan><tspan class="cls-15" x="312.67" y="50">r</tspan><tspan x="321.76" y="50">e </tspan><tspan class="cls-15" x="350.87" y="50">f</tspan><tspan x="359.1" y="50">a</tspan><tspan class="cls-24" x="378.84" y="50">s</tspan><tspan class="cls-15" x="391.35" y="50">t</tspan><tspan x="399.58" y="50">er; a</tspan><tspan class="cls-18" x="463.51" y="50">n</tspan><tspan x="481.27" y="50">d </tspan><tspan class="cls-16" x="512.06" y="50">m</tspan><tspan x="539.54" y="50">o</tspan><tspan class="cls-15" x="558.81" y="50">r</tspan><tspan x="567.9" y="50">e</tspan><tspan class="cls-25" x="585.98" y="50"> </tspan><tspan class="cls-16" x="596.76" y="50">w</tspan><tspan class="cls-21" x="621.75" y="50">eat</tspan><tspan class="cls-16" x="668.44" y="50">h</tspan><tspan x="686.23" y="50">eri</tspan><tspan class="cls-16" x="722.07" y="50">n</tspan><tspan x="739.83" y="50">g occu</tspan><tspan class="cls-26" x="841.91" y="50">r</tspan><tspan x="851.32" y="50">s </tspan><tspan class="cls-18" x="875.41" y="50">ov</tspan><tspan x="909.78" y="50">er ti</tspan><tspan class="cls-18" x="965.52" y="50">m</tspan><tspan class="cls-20" x="993.01" y="50">e</tspan><tspan x="1010.93" y="50">.</tspan></text><text class="cls-27" transform="translate(101.09 697.97)">cold<tspan class="cls-28" x="69.8" y="0">/</tspan><tspan x="78.23" y="0">dr</tspan><tspan class="cls-29" x="110.2" y="0">y</tspan></text><text class="cls-27" transform="translate(440.6 698.98)"><tspan class="cls-29">h</tspan><tspan class="cls-30" x="19.35" y="0">o</tspan><tspan x="40.37" y="0">t</tspan><tspan class="cls-31" x="49.53" y="0">/</tspan><tspan x="57.96" y="0">dr</tspan><tspan class="cls-29" x="89.93" y="0">y</tspan></text><text class="cls-27" transform="translate(752.32 697.97)">cold/<tspan class="cls-30" x="79.64" y="0">we</tspan><tspan x="126.14" y="0">t</tspan></text><text class="cls-27" transform="translate(1091.83 698.98)"><tspan class="cls-29">h</tspan><tspan class="cls-30" x="19.35" y="0">o</tspan><tspan x="40.37" y="0">t/</tspan><tspan class="cls-32" x="59.37" y="0">we</tspan><tspan x="105.87" y="0">t</tspan></text></g><g id="Layer_18" data-name="Layer 18"><text class="cls-33" transform="translate(16.54 64.46)">cli<tspan class="cls-34" x="63.35" y="0">m</tspan><tspan x="117.84" y="0">a</tspan><tspan class="cls-35" x="156.31" y="0">t</tspan><tspan x="173.4" y="0">e</tspan></text></g><g id="Layer_19" data-name="Layer 19"><rect class="cls-36" x="2.11" y="0.99" width="1303" height="713"/></g></g></svg>