<?xml version="1.0" encoding="UTF-8"?><svg xmlns="http://www.w3.org/2000/svg" xmlns:xlink="http://www.w3.org/1999/xlink" viewBox="0 0 1297 665.35"><defs><style>.e,.f,.g,.h,.i,.j,.k,.l,.m{fill:none;}.f{stroke:#5c5052;stroke-linecap:round;stroke-width:1.08px;}.f,.g,.i,.j,.k,.l,.m{stroke-miterlimit:10;}.n{fill:#ec6b7c;}.o{fill:#ec6a7c;}.p{fill:#fff;}.q{fill:#ececec;}.r{fill:#ffce01;}.s{fill:#ffcf01;}.t{fill:#b78f6a;}.u{fill:#3eaca2;}.v,.w{fill:#3daaa1;}.x{fill:#754c24;}.y{fill:#7c7169;}.g{stroke-width:1.74px;}.g,.k,.l,.m{stroke:#ec6a7c;}.w{isolation:isolate;opacity:.33;}.h{stroke:#3daaa1;stroke-linejoin:round;stroke-width:7.24px;}.i{stroke:#df6572;stroke-width:1.02px;}.a`{clip-path:url(#d);}.j{stroke:#fff;stroke-width:.66px;}.k{stroke-width:1.75px;}.l{stroke-width:1.76px;}.m{stroke-width:1.36px;}</style><clipPath id="d"><rect class="e" width="1297" height="665.35"/></clipPath></defs><g id="a"/><g id="b"><g id="c"><path class="r" d="M894.55,164.22c-6.11-.21-10.89-5.33-10.68-11.44,.21-6.11,5.33-10.89,11.44-10.68,5.96,.2,10.69,5.09,10.69,11.06-.11,6.21-5.23,11.16-11.44,11.06Z"/><polygon class="r" points="892.93 140.19 894.89 136.92 896.84 140.19 892.93 140.19"/><polygon class="r" points="885.35 143.58 884.94 139.83 888.51 141.36 885.35 143.58"/><polygon class="r" points="881.28 150.64 878.67 147.83 882.49 147.05 881.28 150.64"/><polygon class="r" points="882.28 158.66 878.46 157.87 881.08 155.06 882.28 158.66"/><polygon class="r" points="887.97 164.57 884.4 166.11 884.81 162.35 887.97 164.57"/><polygon class="r" points="896.17 166.13 894.21 169.4 892.26 166.13 896.17 166.13"/><polygon class="r" points="903.75 162.74 904.16 166.49 900.59 164.96 903.75 162.74"/><polygon class="r" points="907.82 155.68 910.43 158.49 906.61 159.28 907.82 155.68"/><polygon class="r" points="906.82 147.67 910.64 148.45 908.03 151.26 906.82 147.67"/><polygon class="r" points="901.13 141.75 904.71 140.21 904.3 143.97 901.13 141.75"/><polygon class="w" points="1180.66 132.16 1258.94 231.75 1180.66 250.61 1097.56 230.6 1180.66 132.16"/><polygon class="u" points="1180.66 132.16 1180.66 250.61 1097.56 230.6 1180.66 132.16"/><polygon class="q" points="1211.61 171.18 1200.5 169.25 1195.48 175.44 1185.44 173.12 1180.66 180.99 1180.66 131.8 1211.61 171.18"/><polygon class="p" points="1147.02 171.65 1160.83 169.25 1165.85 175.44 1175.89 173.12 1180.66 180.99 1180.66 131.8 1147.02 171.65"/><path class="f" d="M923.68,162.17c49.82,13.05,51.73,11.85,51.73,11.85l-6.72-10.03"/><line class="f" x1="965.85" y1="180" x2="975.41" y2="174.03"/><polygon class="s" points="1002.29 177.27 924.01 276.85 1002.29 295.72 1085.39 275.7 1002.29 177.27"/><polygon class="v" points="1002.29 177.27 1002.29 295.72 1085.39 275.7 1002.29 177.27"/><polygon class="q" points="971.34 216.29 982.45 214.36 987.47 220.55 997.51 218.23 1002.29 226.1 1002.29 176.91 971.34 216.29"/><polygon class="p" points="1035.92 216.76 1022.12 214.36 1017.1 220.55 1007.06 218.23 1002.29 226.1 1002.29 176.91 1035.92 216.76"/><path class="f" d="M910.22,176.18c34.49,37.1,36.77,37.1,36.77,37.1v-11.95"/><line class="f" x1="935.6" y1="213.28" x2="946.99" y2="213.28"/><path class="n" d="M1030.59,108.58v12.03h-1.49v-2.48c-1,1.66-2.8,2.66-4.73,2.65-3.41-.17-6.04-3.07-5.87-6.48,.16-3.17,2.69-5.71,5.87-5.87,1.94-.02,3.74,1,4.73,2.67v-2.53h1.49Zm-1.49,6.04c.08-2.56-1.94-4.71-4.5-4.79h-.08c-2.64,.15-4.65,2.42-4.5,5.05,.14,2.42,2.07,4.35,4.5,4.5,2.55-.02,4.61-2.11,4.58-4.67,0-.03,0-.06,0-.1h0Z"/><path class="n" d="M1033.75,118.9l1.02-1.06c.74,.94,1.84,1.51,3.04,1.56,1.34,0,2.41-.75,2.41-1.92,0-3.01-6.2-2.02-6.17-6.02,.03-1.73,1.54-3.06,3.63-3.08,1.43,.03,2.79,.65,3.76,1.71l-.92,1.04c-.72-.81-1.73-1.3-2.81-1.35-1.06-.14-2.03,.61-2.16,1.67h0c-.05,2.8,6.2,1.84,6.17,6.05-.02,1.85-1.59,3.3-3.96,3.3-1.54-.04-3-.73-4.01-1.9Z"/><path class="n" d="M1056.95,114.59c.15,3.26-2.37,6.03-5.64,6.18-.08,0-.16,0-.24,0-1.92,.02-3.71-.98-4.7-2.62v7.27h-1.49v-16.84h1.49v2.48c1-1.64,2.78-2.64,4.7-2.62,3.25,0,5.89,2.65,5.88,5.91,0,.08,0,.17,0,.25Zm-1.52,0c.14-2.5-1.78-4.64-4.28-4.78s-4.64,1.78-4.78,4.28v1.01c.14,2.5,2.28,4.42,4.78,4.28s4.42-2.28,4.28-4.78Z"/><path class="n" d="M1071.14,115.1h-10.28c.14,2.5,2.27,4.42,4.78,4.31,1.57,0,3.09-.58,4.23-1.66v1.64c-1.23,.93-2.74,1.42-4.28,1.4-3.41,.04-6.2-2.69-6.24-6.1-.04-3.37,2.63-6.14,5.99-6.24,3.71,0,5.87,3.13,5.8,6.67Zm-10.25-1.28h8.66c-.15-2.22-1.98-3.96-4.21-3.99-2.29-.02-4.23,1.71-4.46,3.99Z"/><path class="n" d="M1073.41,114.59c-.05-3.38,2.64-6.16,6.01-6.21,.11,0,.22,0,.33,0,1.51-.03,2.98,.47,4.16,1.42v1.78c-1.05-1.16-2.55-1.81-4.11-1.78-2.64-.06-4.84,2.03-4.9,4.67-.06,2.64,2.03,4.84,4.67,4.9,.08,0,.15,0,.23,0,1.56,.03,3.06-.62,4.11-1.78v1.78c-1.17,.95-2.65,1.45-4.16,1.42-3.37,.13-6.21-2.5-6.34-5.87,0-.11,0-.22,0-.34Z"/><path class="n" d="M1091.83,109.97h-2.56v10.63h-1.49v-10.63h-1.59v-1.4h1.59v-3.22h1.49v3.22h2.56v1.4Z"/><line class="i" x1="990.92" y1="140.59" x2="1115.39" y2="140.59"/><g class="a`"><path class="t" d="M4.01,261.18c4.47,.23,8.97,.45,13.45,.27,5.33-.21,10.64-.96,15.98-1,40.12-.27,80.27,2.47,119.82,8.18,14.63,2.11,29.18,4.63,43.62,7.55,27.02,5.47,53.89,12.43,78.09,23.94,58.48,27.81,95.79,79.09,149.46,113.11,36.75,23.29,80.06,37.81,122.81,52.06,61.94,20.65,123.88,41.3,185.81,61.95,80.77,26.93,161.86,53.92,245.71,72.74h306.97c4.44,0,8.72,.43,12.81,1.23,1.19-36.55-.24-73.16-4.32-109.56-.62-5.49-1.42-11.27-5.32-15.7-6.74-7.66-19.76-8.41-31.08-8.47-25.38-.13-50.75-.26-76.13-.39-123.14-.64-247.91-1.45-366.78-28.58-113.48-25.9-219.14-75.82-304.61-143.92-53.12-42.33-99.53-92.16-162.8-122.99-42.07-20.5-89.68-31.29-137.68-36.07-12.06-1.2-24.14-1.82-36.25-2.56-11.33-.7-22.05-3.96-33.37-5.54-24.36-3.4-49.18-3.07-73.78-2.74-21.53,.29-43.19,.42-64.73,.42,0,34.55-.49,69.16-.49,103.75,0,7.79-.43,15.56-.43,23.35,0,1.99,0,3.98,0,5.97,0,2.39,.19,2.86,3.2,3.01Z"/><path class="x" d="M3.94,102.87c3.44,8.8,.91,20.89,.91,30.18,0,.15,116.58-.07,127.72-.26,41.96-.69,82.57,8.14,123.08,17.83,39.09,9.36,77.19,23.92,111.36,45.26,23.89,14.92,45.77,32.06,65.88,50.5,17.57,16.11,34.61,32.66,53.04,48.08,82.32,68.89,184.69,119.59,294.8,149.82,24.41,6.7,46.35,8.48,66.93,21.96,25.48,16.69,58.09,23.27,89.89,27.81,15.99,2.29,29.11,10.05,44.92,12.66,3.23,.53,6.51,.84,9.78,1.14l10.12,.94c24.18,2.26,47.58-2.55,71.5-1.14,28.83,1.69,55.64,12.12,85.06,11.77,31.62-.38,62.06-10.36,93.82-5.1,10.8,1.79,33.33,8.18,42.91,.83,5.83-4.48,4.54-16.03,5.26-22.32,1.19-10.5,1.3-23.58-6.46-32.5-3.6-4.13-6.39-4.92-10.23-6.52-4.46-1.87-11.37-.8-15.87-.73-10.89,.18-21.73-.56-32.58-.61-85.52-.37-171-1.77-256.34-6.86-50.8-3.03-101.51-8.35-151.11-18.27-52.46-10.49-103.63-25.54-152.13-45.45-25.26-10.37-49.21-22.54-72.58-35.65-30.79-17.27-63.71-34.16-91.61-54.68-9.79-7.2-18.05-15.71-26.65-23.88-12.56-11.93-23.4-25.05-35.42-37.36-14.48-14.83-31.97-26.78-48.09-40.25-26.98-22.55-55.02-41.32-90.18-54.06-34.44-12.49-71.28-19.47-108.12-24.74-35.03-5.01-70.22-9.07-105.71-10.8-11.44-.56-22.62,.71-34.03,1.02-19.55,.54-40.62-.92-59.89,1.35Z"/><path class="h" d="M1285.74,599.96c3.52,0,6.94,.28,10.24,.79,.03-2.37,.06-3.99,.07-4.43,.31-35.93,.76-71.9,.76-107.78s1.86-37.42-40.6-37.56c-39.5-.13-79-.51-118.48-1.68-114.11-3.39-225.02-.09-335.7-27.62-100.53-25-200.38-65.24-279.15-124.23-64.68-48.44-109.58-115.95-186.33-152.72-20.54-9.84-42.58-16.87-64.87-22.83C185.43,98.85,94.38,100.13,4.42,100.13c0,104.15-1.71,207.84-1.71,311.94v112.21c0,24.58-1.88,50.35-1.87,75.68H1285.74Z"/><path class="y" d="M-.98,357.81v246.08H1285.74c4.41,0,8.66,.43,12.72,1.22,1.96-7.69,3.58-13.66,3.95-15.05-8.43,4.02-18.55,4.22-28.22,4.32l-66.1,.66c-36.14,.36-71.95-.57-107.97-2.8-13.41-.83-26.93-1.66-40.03-4.38-12.46-2.59-24.5-6.71-37.14-8.78-9.88-1.62-19.71-3.46-29.47-5.54-81.14-17.31-152.82-56.21-223.85-92.33-30.32-15.42-65.67-23.75-98.65-34.81-138.34-46.39-221.38-158.56-352.85-213.82C219.43,191.07,104.48,196.26-5.59,196.26c0,50.82,4.52,100.93,4.6,151.46,0,3.36,0,6.73,0,10.09Z"/><g><path class="p" d="M1080.45,565.25h-3.2v13.83h-1.24v-13.83h-1.99v-1.17h1.99v-4.02h1.24v4.02h3.2v1.17Z"/><path class="p" d="M1081.97,571.55c0-4.11,3.17-7.68,7.82-7.68s7.82,3.57,7.82,7.68-3.17,7.71-7.82,7.71-7.82-3.57-7.82-7.71Zm14.41-.03c0-3.48-2.67-6.48-6.58-6.48s-6.58,3-6.58,6.48,2.7,6.57,6.58,6.57,6.58-3.09,6.58-6.57Z"/><path class="p" d="M1102.03,571.91c.16,3.42,2.61,6.21,6.46,6.21,2.3,0,4.16-.96,5.4-2.31v1.56c-1.37,1.17-3.23,1.92-5.4,1.92-4.81,0-7.7-3.54-7.7-7.71s3.04-7.68,7.42-7.68,7.17,3.78,7.17,8.01h-13.35Zm12.02-1.17c-.4-3.09-2.48-5.67-5.84-5.67s-5.78,2.49-6.12,5.67h11.96Z"/><path class="p" d="M1118.26,576.92l.93-.84c.93,1.2,2.3,2.04,3.82,2.04,1.86,0,3.42-1.05,3.42-2.79,0-4.26-7.92-2.94-7.86-7.83,.03-2.1,1.86-3.6,4.25-3.63,1.99-.03,3.6,1.11,4.53,2.13l-.81,.81c-.84-.9-2.05-1.77-3.7-1.77-1.74,0-3.04,1.05-3.07,2.43-.09,3.9,7.89,2.61,7.82,7.86-.03,2.25-1.86,3.96-4.66,3.96-1.89,0-3.76-1.08-4.69-2.37Z"/><path class="p" d="M1131.8,555.08h1.24v24h-1.24v-24Z"/><path class="p" d="M1137.35,571.55c0-4.11,3.17-7.68,7.82-7.68s7.83,3.57,7.83,7.68-3.17,7.71-7.83,7.71-7.82-3.57-7.82-7.71Zm14.41-.03c0-3.48-2.67-6.48-6.58-6.48s-6.58,3-6.58,6.48,2.7,6.57,6.58,6.57,6.58-3.09,6.58-6.57Z"/><path class="p" d="M1172.13,571.58c0,4.2-3.01,7.71-7.33,7.71-2.82,0-5.06-1.53-6.24-3.75v9.54h-1.24v-21h1.24v3.57c1.18-2.22,3.42-3.75,6.24-3.75,4.32,0,7.33,3.51,7.33,7.68Zm-1.24,0c0-3.54-2.51-6.51-6.12-6.51-3.38,0-5.9,2.61-6.21,5.85v1.32c.31,3.24,2.83,5.88,6.21,5.88,3.6,0,6.12-3,6.12-6.54Z"/><path class="p" d="M1176.53,571.91c.16,3.42,2.61,6.21,6.46,6.21,2.3,0,4.16-.96,5.4-2.31v1.56c-1.37,1.17-3.23,1.92-5.4,1.92-4.81,0-7.7-3.54-7.7-7.71s3.04-7.68,7.42-7.68,7.17,3.78,7.17,8.01h-13.35Zm12.02-1.17c-.4-3.09-2.48-5.67-5.84-5.67s-5.78,2.49-6.12,5.67h11.96Z"/></g><g><path class="p" d="M776.36,558.35v6.45h3.23v1.17h-3.23v13.83h-1.24v-13.83h-1.96v-1.17h1.96v-6.6c0-1.68,1.27-2.61,2.64-2.61,.81,0,1.37,.27,1.83,.6v1.29c-.46-.33-.96-.69-1.74-.69s-1.49,.57-1.49,1.56Z"/><path class="p" d="M781.11,572.26c0-4.11,3.17-7.68,7.82-7.68s7.82,3.57,7.82,7.68-3.17,7.71-7.82,7.71-7.82-3.57-7.82-7.71Zm14.41-.03c0-3.48-2.67-6.48-6.58-6.48s-6.58,3-6.58,6.48,2.7,6.57,6.58,6.57,6.58-3.09,6.58-6.57Z"/><path class="p" d="M799.93,572.26c0-4.11,3.17-7.68,7.82-7.68s7.83,3.57,7.83,7.68-3.17,7.71-7.83,7.71-7.82-3.57-7.82-7.71Zm14.41-.03c0-3.48-2.67-6.48-6.58-6.48s-6.58,3-6.58,6.48,2.7,6.57,6.58,6.57,6.58-3.09,6.58-6.57Z"/><path class="p" d="M824.36,565.96h-3.2v13.83h-1.24v-13.83h-1.99v-1.17h1.99v-4.02h1.24v4.02h3.2v1.17Z"/><path class="p" d="M826.07,577.63l.93-.84c.93,1.2,2.3,2.04,3.82,2.04,1.86,0,3.42-1.05,3.42-2.79,0-4.26-7.92-2.94-7.86-7.83,.03-2.1,1.86-3.6,4.26-3.63,1.99-.03,3.6,1.11,4.53,2.13l-.81,.81c-.84-.9-2.05-1.77-3.7-1.77-1.74,0-3.04,1.05-3.07,2.43-.09,3.9,7.89,2.61,7.82,7.86-.03,2.25-1.86,3.96-4.66,3.96-1.89,0-3.76-1.08-4.69-2.37Z"/><path class="p" d="M839.6,555.8h1.24v24h-1.24v-24Z"/><path class="p" d="M845.16,572.26c0-4.11,3.17-7.68,7.82-7.68s7.82,3.57,7.82,7.68-3.17,7.71-7.82,7.71-7.82-3.57-7.82-7.71Zm14.41-.03c0-3.48-2.67-6.48-6.58-6.48s-6.58,3-6.58,6.48,2.7,6.57,6.58,6.57,6.58-3.09,6.58-6.57Z"/><path class="p" d="M879.93,572.29c0,4.2-3.01,7.71-7.33,7.71-2.83,0-5.06-1.53-6.24-3.75v9.54h-1.24v-21h1.24v3.57c1.18-2.22,3.42-3.75,6.24-3.75,4.32,0,7.33,3.51,7.33,7.68Zm-1.24,0c0-3.54-2.52-6.51-6.12-6.51-3.38,0-5.9,2.61-6.21,5.85v1.32c.31,3.24,2.83,5.88,6.21,5.88,3.6,0,6.12-3,6.12-6.54Z"/><path class="p" d="M884.34,572.62c.15,3.42,2.61,6.21,6.46,6.21,2.3,0,4.16-.96,5.4-2.31v1.56c-1.37,1.17-3.23,1.92-5.4,1.92-4.81,0-7.7-3.54-7.7-7.71s3.04-7.68,7.42-7.68,7.17,3.78,7.17,8.01h-13.35Zm12.02-1.17c-.4-3.09-2.48-5.67-5.84-5.67s-5.78,2.49-6.12,5.67h11.96Z"/></g><g><path class="p" d="M492.01,447.19c0,4.2-3.01,7.71-7.33,7.71-2.86,0-5.09-1.56-6.27-3.81v3.6h-1.24v-24h1.24v12.63c1.18-2.25,3.42-3.81,6.27-3.81,4.32,0,7.33,3.51,7.33,7.68Zm-1.24,0c0-3.54-2.52-6.51-6.12-6.51s-6.24,2.97-6.24,6.51,2.64,6.54,6.24,6.54,6.12-3,6.12-6.54Z"/><path class="p" d="M510.02,439.69v15h-1.24v-3.6c-1.18,2.25-3.42,3.81-6.27,3.81-4.32,0-7.33-3.51-7.33-7.68s3.01-7.71,7.33-7.71c2.86,0,5.09,1.56,6.27,3.81v-3.63h1.24Zm-1.24,7.53c0-3.54-2.64-6.54-6.24-6.54s-6.12,3-6.12,6.54,2.52,6.51,6.12,6.51,6.24-2.97,6.24-6.51Z"/><path class="p" d="M514.33,447.19c0-4.17,3.07-7.71,7.89-7.71,2.17,0,4.04,.72,5.4,1.92v1.62c-1.18-1.41-3.11-2.37-5.4-2.37-4.04,0-6.64,3-6.64,6.54s2.61,6.54,6.64,6.54c2.3,0,4.22-.96,5.4-2.37v1.62c-1.37,1.2-3.23,1.92-5.4,1.92-4.81,0-7.89-3.54-7.89-7.71Z"/><path class="p" d="M541.77,454.69l-8.26-6.9v6.9h-1.24v-24h1.24v16.17l8.01-7.17h1.71l-8.54,7.62,8.85,7.38h-1.77Z"/><path class="p" d="M545.28,452.53l.93-.84c.93,1.2,2.3,2.04,3.82,2.04,1.86,0,3.42-1.05,3.42-2.79,0-4.26-7.92-2.94-7.86-7.83,.03-2.1,1.86-3.6,4.25-3.63,1.99-.03,3.6,1.11,4.53,2.13l-.81,.81c-.84-.9-2.05-1.77-3.7-1.77-1.74,0-3.04,1.05-3.07,2.43-.09,3.9,7.89,2.61,7.82,7.86-.03,2.25-1.86,3.96-4.66,3.96-1.89,0-3.76-1.08-4.69-2.37Z"/><path class="p" d="M558.81,430.69h1.24v24h-1.24v-24Z"/><path class="p" d="M564.37,447.16c0-4.11,3.17-7.68,7.82-7.68s7.83,3.57,7.83,7.68-3.17,7.71-7.83,7.71-7.82-3.57-7.82-7.71Zm14.41-.03c0-3.48-2.67-6.48-6.58-6.48s-6.58,3-6.58,6.48,2.7,6.57,6.58,6.57,6.58-3.09,6.58-6.57Z"/><path class="p" d="M599.14,447.19c0,4.2-3.01,7.71-7.33,7.71-2.82,0-5.06-1.53-6.24-3.75v9.54h-1.24v-21h1.24v3.57c1.18-2.22,3.42-3.75,6.24-3.75,4.32,0,7.33,3.51,7.33,7.68Zm-1.24,0c0-3.54-2.51-6.51-6.12-6.51-3.38,0-5.9,2.61-6.21,5.85v1.32c.31,3.24,2.83,5.88,6.21,5.88,3.6,0,6.12-3,6.12-6.54Z"/><path class="p" d="M603.55,447.52c.16,3.42,2.61,6.21,6.46,6.21,2.3,0,4.16-.96,5.4-2.31v1.56c-1.37,1.17-3.23,1.92-5.4,1.92-4.81,0-7.7-3.54-7.7-7.71s3.04-7.68,7.42-7.68,7.17,3.78,7.17,8.01h-13.35Zm12.02-1.17c-.4-3.09-2.48-5.67-5.84-5.67s-5.78,2.49-6.12,5.67h11.96Z"/></g><g><path class="p" d="M260.18,298.91l.93-.84c.93,1.2,2.3,2.04,3.82,2.04,1.86,0,3.42-1.05,3.42-2.79,0-4.26-7.92-2.94-7.86-7.83,.03-2.1,1.86-3.6,4.26-3.63,1.99-.03,3.6,1.11,4.53,2.13l-.81,.81c-.84-.9-2.05-1.77-3.7-1.77-1.74,0-3.04,1.05-3.07,2.43-.09,3.9,7.89,2.61,7.82,7.86-.03,2.25-1.86,3.96-4.66,3.96-1.89,0-3.76-1.08-4.69-2.37Z"/><path class="p" d="M286.2,292.67v8.4h-1.24v-8.1c0-3.96-1.96-6-4.94-6-2.79,0-5.06,2.04-5.06,6v8.1h-1.24v-24h1.24v11.76c.9-1.62,2.76-3,5.19-3,3.29,0,6.05,2.19,6.05,6.84Z"/><path class="p" d="M289.61,293.54c0-4.11,3.17-7.68,7.82-7.68s7.83,3.57,7.83,7.68-3.17,7.71-7.83,7.71-7.82-3.57-7.82-7.71Zm14.41-.03c0-3.48-2.67-6.48-6.58-6.48s-6.58,3-6.58,6.48,2.7,6.57,6.58,6.57,6.58-3.09,6.58-6.57Z"/><path class="p" d="M321.78,286.07v15h-1.24v-2.76c-.9,1.62-2.76,3-5.19,3-3.29,0-6.05-2.19-6.05-6.84v-8.4h1.24v8.1c0,3.96,1.96,6,4.94,6,2.79,0,5.06-2.04,5.06-6v-8.1h1.24Z"/><path class="p" d="M327.24,277.07h1.24v24h-1.24v-24Z"/><path class="p" d="M347.64,277.07v24h-1.24v-3.6c-1.18,2.25-3.42,3.81-6.27,3.81-4.32,0-7.33-3.51-7.33-7.68s3.01-7.71,7.33-7.71c2.86,0,5.09,1.56,6.27,3.81v-12.63h1.24Zm-1.24,16.53c0-3.54-2.64-6.54-6.24-6.54s-6.12,3-6.12,6.54,2.51,6.51,6.12,6.51,6.24-2.97,6.24-6.51Z"/><path class="p" d="M353.19,293.9c.15,3.42,2.61,6.21,6.46,6.21,2.3,0,4.16-.96,5.4-2.31v1.56c-1.37,1.17-3.23,1.92-5.4,1.92-4.81,0-7.7-3.54-7.7-7.71s3.04-7.68,7.42-7.68,7.17,3.78,7.17,8.01h-13.35Zm12.02-1.17c-.4-3.09-2.48-5.67-5.84-5.67s-5.78,2.49-6.12,5.67h11.96Z"/><path class="p" d="M376.42,285.89v1.26c-2.7-.09-4.47,2.49-4.47,5.49v8.43h-1.24v-15h1.24v2.94c.75-1.62,2.21-3.12,4.47-3.12Z"/></g><g><path d="M59.07,87.71l.75-.67c.75,.96,1.84,1.63,3.06,1.63,1.49,0,2.73-.84,2.73-2.23,0-3.41-6.33-2.35-6.29-6.26,.02-1.68,1.49-2.88,3.4-2.9,1.59-.02,2.88,.89,3.63,1.7l-.65,.65c-.67-.72-1.64-1.42-2.96-1.42-1.39,0-2.43,.84-2.46,1.94-.07,3.12,6.31,2.09,6.26,6.29-.02,1.8-1.49,3.17-3.73,3.17-1.52,0-3.01-.86-3.75-1.9Z"/><path d="M79.66,77.44v12h-.99v-2.21c-.72,1.3-2.21,2.4-4.15,2.4-2.63,0-4.84-1.75-4.84-5.47v-6.72h.99v6.48c0,3.17,1.57,4.8,3.95,4.8,2.24,0,4.05-1.63,4.05-4.8v-6.48h.99Z"/><path d="M101.37,82.28l-.03,7.15h-.99v-6.94c0-2.62-1.34-4.32-3.58-4.32s-3.58,1.7-3.58,4.56l-.02,6.7h-.99v-6.94c0-2.62-1.34-4.32-3.58-4.32s-3.58,1.7-3.58,4.56v6.7h-.99v-12h.99v1.92c.67-1.15,1.86-2.11,3.7-2.11s3.45,1.03,4.12,2.9c.52-1.44,1.81-2.9,4.05-2.9,2.43,0,4.47,1.8,4.47,5.04Z"/><path d="M122.85,82.28l-.03,7.15h-.99v-6.94c0-2.62-1.34-4.32-3.58-4.32s-3.58,1.7-3.58,4.56l-.03,6.7h-.99v-6.94c0-2.62-1.34-4.32-3.58-4.32s-3.58,1.7-3.58,4.56v6.7h-.99v-12h.99v1.92c.67-1.15,1.86-2.11,3.7-2.11s3.45,1.03,4.12,2.9c.52-1.44,1.81-2.9,4.05-2.9,2.43,0,4.47,1.8,4.47,5.04Z"/><path d="M127,74.22c0-.41,.32-.72,.75-.72s.75,.31,.75,.72c0,.43-.32,.72-.75,.72s-.75-.29-.75-.72Zm.25,3.22h.99v12h-.99v-12Z"/><path d="M136.69,78.37h-2.56v11.06h-.99v-11.06h-1.59v-.94h1.59v-3.22h.99v3.22h2.56v.94Z"/></g><g><path d="M669.12,212.7h.99v19.2h-.99v-19.2Z"/><path d="M673.57,225.88c0-3.29,2.53-6.14,6.26-6.14s6.26,2.86,6.26,6.14-2.53,6.17-6.26,6.17-6.26-2.86-6.26-6.17Zm11.53-.02c0-2.78-2.13-5.18-5.27-5.18s-5.27,2.4-5.27,5.18,2.16,5.26,5.27,5.26,5.27-2.47,5.27-5.26Z"/><path d="M706.18,219.9l-6.43,12.19h-.3l-2.78-5.42-2.76,5.42h-.3l-6.41-12.19h1.09l5.49,10.51,2.38-4.75-2.91-5.76h1.09l2.34,4.78,2.31-4.78h1.09l-2.91,5.76,2.41,4.75,5.46-10.51h1.12Z"/><path d="M708.29,226.17c.12,2.74,2.09,4.97,5.17,4.97,1.84,0,3.33-.77,4.32-1.85v1.25c-1.09,.94-2.58,1.54-4.32,1.54-3.85,0-6.16-2.83-6.16-6.17s2.43-6.14,5.94-6.14,5.74,3.02,5.74,6.41h-10.68Zm9.61-.94c-.32-2.47-1.99-4.54-4.67-4.54s-4.62,1.99-4.89,4.54h9.56Z"/><path d="M721.28,230.18l.75-.67c.74,.96,1.84,1.63,3.05,1.63,1.49,0,2.73-.84,2.73-2.23,0-3.41-6.33-2.35-6.29-6.26,.03-1.68,1.49-2.88,3.4-2.9,1.59-.02,2.88,.89,3.63,1.7l-.65,.65c-.67-.72-1.64-1.42-2.96-1.42-1.39,0-2.43,.84-2.46,1.94-.07,3.12,6.31,2.09,6.26,6.29-.02,1.8-1.49,3.17-3.72,3.17-1.52,0-3.01-.86-3.75-1.9Z"/><path d="M735.44,220.84h-2.56v11.06h-.99v-11.06h-1.59v-.94h1.59v-3.22h.99v3.22h2.56v.94Z"/><path d="M746.76,216.69c0-.41,.32-.72,.74-.72s.75,.31,.75,.72c0,.43-.32,.72-.75,.72s-.74-.29-.74-.72Zm.25,3.22h.99v12h-.99v-12Z"/><path d="M762.61,225.18v6.72h-.99v-6.48c0-3.17-1.57-4.8-3.95-4.8-2.23,0-4.05,1.63-4.05,4.8v6.48h-.99v-12h.99v2.21c.72-1.3,2.21-2.4,4.15-2.4,2.63,0,4.84,1.75,4.84,5.47Z"/><path d="M773.36,231.9h-.99v-11.06h-4.37v11.06h-.99v-11.06h-1.56v-.94h1.56v-5.28c0-1.34,1.02-2.09,2.11-2.09,.65,0,1.09,.22,1.47,.48v1.03c-.37-.26-.77-.55-1.39-.55s-1.19,.46-1.19,1.25v5.16h5.37v12Zm.25-15.22c0,.43-.32,.72-.74,.72s-.75-.29-.75-.72c0-.41,.32-.72,.75-.72s.74,.31,.74,.72Z"/><path d="M777.98,212.7h.99v19.2h-.99v-19.2Z"/><path d="M787.17,220.84h-2.56v11.06h-.99v-11.06h-1.59v-.94h1.59v-3.22h.99v3.22h2.56v.94Z"/><path d="M794.37,219.76v1.01c-2.16-.07-3.58,1.99-3.58,4.39v6.74h-.99v-12h.99v2.35c.6-1.3,1.76-2.5,3.58-2.5Z"/><path d="M807.46,219.9v12h-.99v-2.88c-.95,1.8-2.73,3.05-5.02,3.05-3.45,0-5.86-2.81-5.86-6.14s2.41-6.17,5.86-6.17c2.29,0,4.07,1.25,5.02,3.05v-2.9h.99Zm-.99,6.02c0-2.83-2.11-5.23-4.99-5.23s-4.89,2.4-4.89,5.23,2.01,5.21,4.89,5.21,4.99-2.38,4.99-5.21Z"/><path d="M815.65,220.84h-2.56v11.06h-.99v-11.06h-1.59v-.94h1.59v-3.22h.99v3.22h2.56v.94Z"/><path d="M818.29,216.69c0-.41,.32-.72,.74-.72s.75,.31,.75,.72c0,.43-.32,.72-.75,.72s-.74-.29-.74-.72Zm.25,3.22h.99v12h-.99v-12Z"/><path d="M823.23,225.88c0-3.29,2.53-6.14,6.26-6.14s6.26,2.86,6.26,6.14-2.53,6.17-6.26,6.17-6.26-2.86-6.26-6.17Zm11.53-.02c0-2.78-2.13-5.18-5.27-5.18s-5.27,2.4-5.27,5.18,2.16,5.26,5.27,5.26,5.27-2.47,5.27-5.26Z"/><path d="M849.18,225.18v6.72h-.99v-6.48c0-3.17-1.57-4.8-3.95-4.8-2.23,0-4.05,1.63-4.05,4.8v6.48h-.99v-12h.99v2.21c.72-1.3,2.21-2.4,4.15-2.4,2.63,0,4.84,1.75,4.84,5.47Z"/><path d="M852.11,220.53c0-.41,.32-.74,.74-.74s.75,.34,.75,.74-.32,.72-.75,.72-.74-.31-.74-.72Zm.79,8.69h1.02l-1.07,5.33h-.74l.79-5.33Z"/><path d="M688.99,253.98v6.72h-.99v-6.48c0-3.17-1.57-4.8-3.95-4.8-2.23,0-4.05,1.63-4.05,4.8v6.48h-.99v-19.2h.99v9.41c.72-1.3,2.21-2.4,4.15-2.4,2.63,0,4.84,1.75,4.84,5.47Z"/><path d="M693.14,245.49c0-.41,.32-.72,.75-.72s.74,.31,.74,.72c0,.43-.32,.72-.74,.72s-.75-.29-.75-.72Zm.25,3.22h.99v12h-.99v-12Z"/><path d="M709.95,260.15c0,3.79-2.93,5.52-5.81,5.52-1.89,0-3.43-.62-4.62-1.39l.03-1.1c1.29,.94,2.78,1.58,4.47,1.58,2.78,0,4.99-1.68,4.97-4.78v-2.18c-.94,1.82-2.76,3.07-5.04,3.07-3.45,0-5.86-2.81-5.86-6.14s2.41-6.17,5.86-6.17c2.26,0,4.05,1.22,5.02,3.02l-.02-2.88h.99l.03,11.45Zm-.99-5.42c0-2.83-2.11-5.23-4.99-5.23s-4.89,2.4-4.89,5.23,2.01,5.21,4.89,5.21,4.99-2.38,4.99-5.21Z"/><path d="M724.31,253.98v6.72h-.99v-6.48c0-3.17-1.56-4.8-3.95-4.8-2.24,0-4.05,1.63-4.05,4.8v6.48h-.99v-19.2h.99v9.41c.72-1.3,2.21-2.4,4.15-2.4,2.63,0,4.84,1.75,4.84,5.47Z"/><path d="M728.03,254.97c.12,2.74,2.09,4.97,5.17,4.97,1.84,0,3.33-.77,4.32-1.85v1.25c-1.09,.94-2.58,1.54-4.32,1.54-3.85,0-6.16-2.83-6.16-6.17s2.43-6.14,5.94-6.14,5.74,3.02,5.74,6.41h-10.68Zm9.61-.94c-.32-2.47-1.99-4.54-4.67-4.54s-4.62,1.99-4.89,4.54h9.56Z"/><path d="M741.02,258.98l.75-.67c.74,.96,1.84,1.63,3.05,1.63,1.49,0,2.73-.84,2.73-2.23,0-3.41-6.33-2.35-6.29-6.26,.03-1.68,1.49-2.88,3.4-2.9,1.59-.02,2.88,.89,3.63,1.7l-.65,.65c-.67-.72-1.64-1.42-2.96-1.42-1.39,0-2.43,.84-2.46,1.94-.07,3.12,6.31,2.09,6.26,6.29-.02,1.8-1.49,3.17-3.72,3.17-1.52,0-3.01-.86-3.75-1.9Z"/><path d="M755.18,249.64h-2.56v11.06h-.99v-11.06h-1.59v-.94h1.59v-3.22h.99v3.22h2.56v.94Z"/><path d="M766.58,254.97c.12,2.74,2.09,4.97,5.17,4.97,1.84,0,3.33-.77,4.32-1.85v1.25c-1.09,.94-2.58,1.54-4.32,1.54-3.85,0-6.16-2.83-6.16-6.17s2.43-6.14,5.94-6.14,5.74,3.02,5.74,6.41h-10.68Zm9.61-.94c-.32-2.47-1.99-4.54-4.67-4.54s-4.62,1.99-4.89,4.54h9.56Z"/><path d="M785.16,248.56v1.01c-2.16-.07-3.58,1.99-3.58,4.39v6.74h-.99v-12h.99v2.35c.6-1.3,1.76-2.5,3.58-2.5Z"/><path d="M786.37,254.68c0-3.29,2.54-6.14,6.26-6.14s6.26,2.86,6.26,6.14-2.54,6.17-6.26,6.17-6.26-2.86-6.26-6.17Zm11.53-.02c0-2.78-2.14-5.18-5.27-5.18s-5.27,2.4-5.27,5.18,2.16,5.26,5.27,5.26,5.27-2.47,5.27-5.26Z"/><path d="M801.32,258.98l.74-.67c.75,.96,1.84,1.63,3.06,1.63,1.49,0,2.73-.84,2.73-2.23,0-3.41-6.34-2.35-6.29-6.26,.02-1.68,1.49-2.88,3.4-2.9,1.59-.02,2.88,.89,3.63,1.7l-.65,.65c-.67-.72-1.64-1.42-2.96-1.42-1.39,0-2.44,.84-2.46,1.94-.07,3.12,6.31,2.09,6.26,6.29-.03,1.8-1.49,3.17-3.73,3.17-1.52,0-3.01-.86-3.75-1.9Z"/><path d="M812.15,245.49c0-.41,.32-.72,.75-.72s.74,.31,.74,.72c0,.43-.32,.72-.74,.72s-.75-.29-.75-.72Zm.25,3.22h.99v12h-.99v-12Z"/><path d="M817.09,254.68c0-3.29,2.54-6.14,6.26-6.14s6.26,2.86,6.26,6.14-2.54,6.17-6.26,6.17-6.26-2.86-6.26-6.17Zm11.53-.02c0-2.78-2.14-5.18-5.27-5.18s-5.27,2.4-5.27,5.18,2.16,5.26,5.27,5.26,5.27-2.47,5.27-5.26Z"/><path d="M843.05,253.98v6.72h-.99v-6.48c0-3.17-1.56-4.8-3.95-4.8-2.24,0-4.05,1.63-4.05,4.8v6.48h-.99v-12h.99v2.21c.72-1.3,2.21-2.4,4.15-2.4,2.63,0,4.84,1.75,4.84,5.47Z"/><path d="M731.4,289.5l-2.13-2.26c-1.09,1.54-2.73,2.5-4.89,2.5-2.66,0-5.32-1.51-5.32-4.46,0-2.38,1.79-3.62,3.7-4.7-1.27-1.22-2.68-2.81-2.68-4.42,0-1.9,1.44-3.77,4.07-3.77,2.48,0,4.07,1.73,4.07,3.74,0,2.3-1.99,3.48-4.02,4.61,.07,.05,.12,.12,.17,.17l4.72,4.92c.57-1.22,.87-2.78,.87-4.68h.89c.07,2.02-.32,3.86-1.12,5.35,.95,.98,1.94,2.02,2.91,3h-1.24Zm-2.76-2.9c-1.59-1.68-3.13-3.26-4.65-4.8-.17-.19-.4-.38-.62-.6-1.76,1.03-3.35,2.11-3.35,4.06,0,2.35,2.26,3.6,4.35,3.6,1.84,0,3.3-.77,4.27-2.26Zm-5.07-6.48c1.91-1.03,3.7-2.04,3.7-4.01,0-1.63-1.19-2.83-3.13-2.83-1.77,0-3.08,1.2-3.08,2.86,0,1.46,1.29,2.78,2.51,3.98Z"/><path d="M748.31,277.36v1.01c-2.16-.07-3.58,1.99-3.58,4.39v6.74h-.99v-12h.99v2.35c.6-1.3,1.76-2.5,3.58-2.5Z"/><path d="M760.7,277.5v12h-.99v-2.21c-.72,1.3-2.21,2.4-4.15,2.4-2.63,0-4.84-1.75-4.84-5.47v-6.72h.99v6.48c0,3.17,1.56,4.8,3.95,4.8,2.24,0,4.05-1.63,4.05-4.8v-6.48h.99Z"/><path d="M775.06,282.78v6.72h-.99v-6.48c0-3.17-1.56-4.8-3.95-4.8-2.24,0-4.05,1.63-4.05,4.8v6.48h-.99v-12h.99v2.21c.72-1.3,2.21-2.4,4.15-2.4,2.63,0,4.84,1.75,4.84,5.47Z"/><path d="M777.79,283.48c0-3.29,2.53-6.14,6.26-6.14s6.26,2.86,6.26,6.14-2.53,6.17-6.26,6.17-6.26-2.86-6.26-6.17Zm11.53-.02c0-2.78-2.13-5.18-5.27-5.18s-5.27,2.4-5.27,5.18,2.16,5.26,5.27,5.26,5.27-2.47,5.27-5.26Z"/><path d="M794.75,272.34v5.16h2.58v.94h-2.58v11.06h-.99v-11.06h-1.56v-.94h1.56v-5.28c0-1.34,1.02-2.09,2.11-2.09,.65,0,1.09,.22,1.47,.48v1.03c-.37-.26-.77-.55-1.39-.55s-1.19,.46-1.19,1.25Z"/><path d="M801.21,272.34v5.16h2.58v.94h-2.58v11.06h-.99v-11.06h-1.56v-.94h1.56v-5.28c0-1.34,1.02-2.09,2.11-2.09,.65,0,1.09,.22,1.47,.48v1.03c-.37-.26-.77-.55-1.39-.55s-1.19,.46-1.19,1.25Z"/></g><g><path d="M462.7,131.81h.99v19.2h-.99v-19.2Z"/><path d="M467.14,144.98c0-3.29,2.53-6.14,6.26-6.14s6.26,2.86,6.26,6.14-2.53,6.17-6.26,6.17-6.26-2.86-6.26-6.17Zm11.53-.02c0-2.78-2.13-5.18-5.27-5.18s-5.27,2.4-5.27,5.18,2.16,5.26,5.27,5.26,5.27-2.47,5.27-5.26Z"/><path d="M499.76,139.01l-6.43,12.19h-.3l-2.78-5.42-2.76,5.42h-.3l-6.41-12.19h1.09l5.49,10.51,2.38-4.75-2.91-5.76h1.09l2.34,4.78,2.31-4.78h1.09l-2.91,5.76,2.41,4.75,5.46-10.51h1.12Z"/><path d="M510.23,135.79c0-.41,.32-.72,.74-.72s.75,.31,.75,.72c0,.43-.32,.72-.75,.72s-.74-.29-.74-.72Zm.25,3.22h.99v12h-.99v-12Z"/><path d="M526.08,144.29v6.72h-.99v-6.48c0-3.17-1.57-4.8-3.95-4.8-2.23,0-4.05,1.63-4.05,4.8v6.48h-.99v-12h.99v2.21c.72-1.3,2.21-2.4,4.15-2.4,2.63,0,4.84,1.75,4.84,5.47Z"/><path d="M536.83,151.01h-.99v-11.06h-4.37v11.06h-.99v-11.06h-1.56v-.94h1.56v-5.28c0-1.34,1.02-2.09,2.11-2.09,.65,0,1.09,.22,1.47,.48v1.03c-.37-.26-.77-.55-1.39-.55s-1.19,.46-1.19,1.25v5.16h5.37v12Zm.25-15.22c0,.43-.32,.72-.74,.72s-.75-.29-.75-.72c0-.41,.32-.72,.75-.72s.74,.31,.74,.72Z"/><path d="M541.45,131.81h.99v19.2h-.99v-19.2Z"/><path d="M550.64,139.94h-2.56v11.06h-.99v-11.06h-1.59v-.94h1.59v-3.22h.99v3.22h2.56v.94Z"/><path d="M557.84,138.86v1.01c-2.16-.07-3.58,1.99-3.58,4.39v6.74h-.99v-12h.99v2.35c.6-1.3,1.76-2.5,3.58-2.5Z"/><path d="M570.93,139.01v12h-.99v-2.88c-.95,1.8-2.73,3.05-5.02,3.05-3.45,0-5.86-2.81-5.86-6.14s2.41-6.17,5.86-6.17c2.29,0,4.07,1.25,5.02,3.05v-2.9h.99Zm-.99,6.02c0-2.83-2.11-5.23-4.99-5.23s-4.89,2.4-4.89,5.23,2.01,5.21,4.89,5.21,4.99-2.38,4.99-5.21Z"/><path d="M579.13,139.94h-2.56v11.06h-.99v-11.06h-1.59v-.94h1.59v-3.22h.99v3.22h2.56v.94Z"/><path d="M581.76,135.79c0-.41,.32-.72,.74-.72s.75,.31,.75,.72c0,.43-.32,.72-.75,.72s-.74-.29-.74-.72Zm.25,3.22h.99v12h-.99v-12Z"/><path d="M586.7,144.98c0-3.29,2.53-6.14,6.26-6.14s6.26,2.86,6.26,6.14-2.53,6.17-6.26,6.17-6.26-2.86-6.26-6.17Zm11.53-.02c0-2.78-2.13-5.18-5.27-5.18s-5.27,2.4-5.27,5.18,2.16,5.26,5.27,5.26,5.27-2.47,5.27-5.26Z"/><path d="M612.66,144.29v6.72h-.99v-6.48c0-3.17-1.57-4.8-3.95-4.8-2.23,0-4.05,1.63-4.05,4.8v6.48h-.99v-12h.99v2.21c.72-1.3,2.21-2.4,4.15-2.4,2.63,0,4.84,1.75,4.84,5.47Z"/><path d="M615.59,139.63c0-.41,.32-.74,.74-.74s.75,.34,.75,.74-.32,.72-.75,.72-.74-.31-.74-.72Zm.79,8.69h1.02l-1.07,5.33h-.74l.79-5.33Z"/><path d="M460.52,172.65l-.03,7.15h-.99v-6.94c0-2.62-1.34-4.32-3.58-4.32s-3.58,1.7-3.58,4.56l-.02,6.7h-.99v-6.94c0-2.62-1.34-4.32-3.58-4.32s-3.58,1.7-3.58,4.56v6.7h-.99v-12h.99v1.92c.67-1.15,1.86-2.11,3.7-2.11s3.45,1.03,4.12,2.9c.52-1.44,1.81-2.9,4.05-2.9,2.44,0,4.47,1.8,4.47,5.04Z"/><path d="M463.24,173.78c0-3.29,2.53-6.14,6.26-6.14s6.26,2.86,6.26,6.14-2.53,6.17-6.26,6.17-6.26-2.86-6.26-6.17Zm11.53-.02c0-2.78-2.13-5.18-5.27-5.18s-5.27,2.4-5.27,5.18,2.16,5.26,5.27,5.26,5.27-2.47,5.27-5.26Z"/><path d="M490.17,160.61v19.2h-.99v-2.88c-.95,1.8-2.73,3.05-5.02,3.05-3.45,0-5.86-2.81-5.86-6.14s2.41-6.17,5.86-6.17c2.29,0,4.07,1.25,5.02,3.05v-10.1h.99Zm-.99,13.23c0-2.83-2.11-5.23-4.99-5.23s-4.89,2.4-4.89,5.23,2.01,5.21,4.89,5.21,4.99-2.38,4.99-5.21Z"/><path d="M494.61,174.07c.12,2.74,2.09,4.97,5.17,4.97,1.84,0,3.33-.77,4.32-1.85v1.25c-1.09,.94-2.58,1.54-4.32,1.54-3.85,0-6.16-2.83-6.16-6.17s2.43-6.14,5.94-6.14,5.74,3.02,5.74,6.41h-10.68Zm9.61-.94c-.32-2.47-1.99-4.54-4.67-4.54s-4.62,1.99-4.89,4.54h9.56Z"/><path d="M513.19,167.66v1.01c-2.16-.07-3.58,1.99-3.58,4.39v6.74h-.99v-12h.99v2.35c.6-1.3,1.76-2.5,3.58-2.5Z"/><path d="M526.28,167.81v12h-.99v-2.88c-.95,1.8-2.73,3.05-5.02,3.05-3.45,0-5.86-2.81-5.86-6.14s2.41-6.17,5.86-6.17c2.29,0,4.07,1.25,5.02,3.05v-2.9h.99Zm-.99,6.02c0-2.83-2.11-5.23-4.99-5.23s-4.89,2.4-4.89,5.23,2.01,5.21,4.89,5.21,4.99-2.38,4.99-5.21Z"/><path d="M534.47,168.74h-2.56v11.06h-.99v-11.06h-1.59v-.94h1.59v-3.22h.99v3.22h2.56v.94Z"/><path d="M536.69,174.07c.12,2.74,2.09,4.97,5.17,4.97,1.84,0,3.33-.77,4.32-1.85v1.25c-1.09,.94-2.58,1.54-4.32,1.54-3.85,0-6.16-2.83-6.16-6.17s2.43-6.14,5.94-6.14,5.74,3.02,5.74,6.41h-10.68Zm9.61-.94c-.32-2.47-1.99-4.54-4.67-4.54s-4.62,1.99-4.89,4.54h9.56Z"/><path d="M559.46,174.07c.12,2.74,2.09,4.97,5.17,4.97,1.84,0,3.33-.77,4.32-1.85v1.25c-1.09,.94-2.58,1.54-4.32,1.54-3.85,0-6.16-2.83-6.16-6.17s2.44-6.14,5.94-6.14,5.74,3.02,5.74,6.41h-10.68Zm9.61-.94c-.32-2.47-1.99-4.54-4.67-4.54s-4.62,1.99-4.89,4.54h9.56Z"/><path d="M578.04,167.66v1.01c-2.16-.07-3.58,1.99-3.58,4.39v6.74h-.99v-12h.99v2.35c.6-1.3,1.76-2.5,3.58-2.5Z"/><path d="M579.25,173.78c0-3.29,2.53-6.14,6.26-6.14s6.26,2.86,6.26,6.14-2.53,6.17-6.26,6.17-6.26-2.86-6.26-6.17Zm11.53-.02c0-2.78-2.13-5.18-5.27-5.18s-5.27,2.4-5.27,5.18,2.16,5.26,5.27,5.26,5.27-2.47,5.27-5.26Z"/><path d="M594.2,178.08l.75-.67c.74,.96,1.84,1.63,3.05,1.63,1.49,0,2.73-.84,2.73-2.23,0-3.41-6.33-2.35-6.29-6.26,.03-1.68,1.49-2.88,3.4-2.9,1.59-.02,2.88,.89,3.63,1.7l-.65,.65c-.67-.72-1.64-1.42-2.96-1.42-1.39,0-2.43,.84-2.46,1.94-.07,3.12,6.31,2.09,6.26,6.29-.02,1.8-1.49,3.17-3.72,3.17-1.52,0-3.01-.86-3.75-1.9Z"/><path d="M605.03,164.59c0-.41,.32-.72,.74-.72s.75,.31,.75,.72c0,.43-.32,.72-.75,.72s-.74-.29-.74-.72Zm.25,3.22h.99v12h-.99v-12Z"/><path d="M609.98,173.78c0-3.29,2.53-6.14,6.26-6.14s6.26,2.86,6.26,6.14-2.53,6.17-6.26,6.17-6.26-2.86-6.26-6.17Zm11.53-.02c0-2.78-2.13-5.18-5.27-5.18s-5.27,2.4-5.27,5.18,2.16,5.26,5.27,5.26,5.27-2.47,5.27-5.26Z"/><path d="M635.93,173.09v6.72h-.99v-6.48c0-3.17-1.57-4.8-3.95-4.8-2.23,0-4.05,1.63-4.05,4.8v6.48h-.99v-12h.99v2.21c.72-1.3,2.21-2.4,4.15-2.4,2.63,0,4.84,1.75,4.84,5.47Z"/><path d="M509.93,208.61l-2.14-2.26c-1.09,1.54-2.73,2.5-4.89,2.5-2.66,0-5.31-1.51-5.31-4.46,0-2.38,1.79-3.62,3.7-4.7-1.27-1.22-2.68-2.81-2.68-4.42,0-1.9,1.44-3.77,4.07-3.77,2.48,0,4.07,1.73,4.07,3.74,0,2.3-1.99,3.48-4.03,4.61,.08,.05,.12,.12,.17,.17l4.72,4.92c.57-1.22,.87-2.78,.87-4.68h.89c.07,2.02-.32,3.86-1.12,5.35,.94,.98,1.94,2.02,2.91,3h-1.24Zm-2.76-2.9c-1.59-1.68-3.13-3.26-4.64-4.8-.17-.19-.4-.38-.62-.6-1.76,1.03-3.35,2.11-3.35,4.06,0,2.35,2.26,3.6,4.35,3.6,1.84,0,3.3-.77,4.27-2.26Zm-5.07-6.48c1.91-1.03,3.7-2.04,3.7-4.01,0-1.63-1.19-2.83-3.13-2.83-1.76,0-3.08,1.2-3.08,2.86,0,1.46,1.29,2.78,2.51,3.98Z"/><path d="M526.84,196.46v1.01c-2.16-.07-3.58,1.99-3.58,4.39v6.74h-.99v-12h.99v2.35c.6-1.3,1.76-2.5,3.58-2.5Z"/><path d="M539.23,196.61v12h-.99v-2.21c-.72,1.3-2.21,2.4-4.15,2.4-2.63,0-4.84-1.75-4.84-5.47v-6.72h.99v6.48c0,3.17,1.57,4.8,3.95,4.8,2.23,0,4.05-1.63,4.05-4.8v-6.48h.99Z"/><path d="M553.59,201.89v6.72h-.99v-6.48c0-3.17-1.57-4.8-3.95-4.8-2.23,0-4.05,1.63-4.05,4.8v6.48h-.99v-12h.99v2.21c.72-1.3,2.21-2.4,4.15-2.4,2.63,0,4.84,1.75,4.84,5.47Z"/><path d="M556.32,202.58c0-3.29,2.54-6.14,6.26-6.14s6.26,2.86,6.26,6.14-2.54,6.17-6.26,6.17-6.26-2.86-6.26-6.17Zm11.53-.02c0-2.78-2.14-5.18-5.27-5.18s-5.27,2.4-5.27,5.18,2.16,5.26,5.27,5.26,5.27-2.47,5.27-5.26Z"/><path d="M573.28,191.45v5.16h2.58v.94h-2.58v11.06h-.99v-11.06h-1.57v-.94h1.57v-5.28c0-1.34,1.02-2.09,2.11-2.09,.64,0,1.09,.22,1.46,.48v1.03c-.37-.26-.77-.55-1.39-.55s-1.19,.46-1.19,1.25Z"/><path d="M579.74,191.45v5.16h2.58v.94h-2.58v11.06h-.99v-11.06h-1.57v-.94h1.57v-5.28c0-1.34,1.02-2.09,2.11-2.09,.64,0,1.09,.22,1.46,.48v1.03c-.37-.26-.77-.55-1.39-.55s-1.19,.46-1.19,1.25Z"/></g><g><path class="s" d="M249.7,395.43l-12.06,16.31-.84-.58,1.81-2.45c-1.93,.98-4.24,.99-6.18-.35-2.93-2.03-3.21-5.82-1.12-8.66,2.11-2.85,5.92-3.83,8.86-1.8,1.94,1.34,2.68,3.45,2.35,5.53l6.35-8.58,.84,.58Zm-9.15,10.65c1.78-2.41,1.49-5.68-.96-7.38-2.45-1.69-5.67-.83-7.45,1.57s-1.56,5.61,.89,7.3c2.45,1.69,5.73,.91,7.51-1.5Z"/><path class="s" d="M245.02,409.48c-1.62,2.4-1.35,5.45,1.27,7.25,1.56,1.08,3.31,1.3,4.83,.97l-.78,1.06c-1.52,.15-3.16-.21-4.64-1.23-3.27-2.26-3.46-6.02-1.36-8.85,2.1-2.83,5.93-3.79,8.9-1.74,3.06,2.11,2.98,5.94,.85,8.81l-9.08-6.27Zm8.76,4.85c1.28-2.29,1.16-5.02-1.12-6.59-2.32-1.6-5.18-1.02-7.01,.98l8.12,5.61Z"/><path class="s" d="M256.31,416.94c2.1-2.83,5.96-3.8,9.24-1.54,1.48,1.02,2.38,2.38,2.71,3.84l-.81,1.1c-.09-1.51-.92-3.07-2.48-4.15-2.75-1.89-6.03-1.08-7.8,1.33s-1.51,5.67,1.23,7.56c1.56,1.08,3.35,1.33,4.86,.92l-.81,1.1c-1.53,.17-3.16-.21-4.64-1.23-3.27-2.26-3.58-6.11-1.49-8.94Z"/><path class="s" d="M276.25,422.82l-.63,.86c-1.79-1.33-4.29-.41-5.8,1.63l-4.24,5.73-.84-.58,7.54-10.2,.84,.58-1.48,2c1.32-.75,3.07-1.09,4.61-.02Z"/><path class="s" d="M274.11,429.56c-1.62,2.4-1.35,5.45,1.27,7.25,1.56,1.08,3.31,1.3,4.83,.97l-.78,1.06c-1.52,.15-3.16-.21-4.64-1.23-3.27-2.26-3.46-6.02-1.36-8.85,2.1-2.83,5.93-3.79,8.9-1.74,3.06,2.11,2.98,5.94,.85,8.81l-9.07-6.27Zm8.76,4.85c1.28-2.29,1.16-5.02-1.12-6.59-2.32-1.6-5.18-1.02-7.01,.98l8.13,5.61Z"/><path class="s" d="M299.25,438.89l-7.54,10.2-.84-.58,1.81-2.45c-1.93,.98-4.24,.99-6.18-.35-2.93-2.03-3.22-5.83-1.12-8.66,2.11-2.86,5.92-3.83,8.86-1.8,1.94,1.34,2.68,3.45,2.35,5.53l1.82-2.47,.84,.58Zm-4.63,4.53c1.78-2.41,1.49-5.68-.96-7.38-2.45-1.69-5.67-.83-7.45,1.58s-1.56,5.61,.89,7.29c2.45,1.69,5.73,.91,7.51-1.5Z"/><path class="s" d="M295.65,449.58l1.05-.13c.03,1.25,.54,2.46,1.57,3.18,1.27,.87,2.85,.89,3.72-.29,2.14-2.9-3.9-5.71-1.4-9.01,1.08-1.41,3.08-1.57,4.72-.47,1.37,.91,1.89,2.45,2.01,3.58l-.96,.17c-.12-1.01-.5-2.17-1.62-2.94-1.18-.82-2.6-.71-3.31,.21-2.02,2.61,4.05,5.48,1.37,9.01-1.15,1.51-3.26,1.82-5.16,.51-1.29-.89-2.01-2.5-2-3.81Z"/><path class="s" d="M311.52,447.36l.84,.58-7.54,10.2-.84-.58,7.54-10.2Zm1.81-2.88c.26-.35,.73-.42,1.09-.17,.36,.25,.44,.7,.18,1.05-.27,.37-.73,.42-1.09,.17-.36-.25-.45-.68-.18-1.05Z"/><path class="s" d="M321.45,461l-4.22,5.71-.84-.58,4.07-5.51c1.99-2.69,1.69-5-.34-6.4-1.9-1.31-4.46-.99-6.46,1.7l-4.07,5.51-.84-.58,7.54-10.2,.84,.58-1.39,1.88c1.43-.68,3.39-.74,5.03,.39,2.24,1.54,3.02,4.33,.68,7.49Z"/><path class="s" d="M329.99,474.81c-2.38,3.22-5.96,2.97-8.41,1.28-1.6-1.11-2.52-2.54-3.05-3.89l.71-.92c.51,1.55,1.37,2.98,2.8,3.97,2.36,1.63,5.3,1.5,7.22-1.14l1.37-1.86c-1.95,1-4.27,.99-6.21-.35-2.94-2.03-3.22-5.82-1.12-8.66,2.11-2.85,5.92-3.83,8.86-1.8,1.92,1.33,2.67,3.42,2.37,5.51l1.79-2.46,.84,.58-7.17,9.74Zm2.56-5.19c1.78-2.41,1.49-5.68-.96-7.38s-5.67-.83-7.45,1.57-1.56,5.61,.89,7.3,5.73,.91,7.51-1.5Z"/><path class="s" d="M348.49,472.89l.85,.58-7.54,10.2-.85-.58,7.54-10.2Zm1.81-2.88c.26-.35,.73-.42,1.09-.17,.36,.25,.44,.7,.18,1.05-.27,.37-.73,.42-1.09,.17-.36-.25-.45-.68-.18-1.05Z"/><path class="s" d="M358.43,486.53l-4.22,5.71-.84-.58,4.07-5.5c1.99-2.69,1.69-5-.34-6.4-1.9-1.31-4.46-.99-6.46,1.7l-4.07,5.5-.84-.58,7.54-10.2,.84,.58-1.39,1.88c1.43-.68,3.39-.74,5.03,.39,2.24,1.55,3.02,4.33,.68,7.49Z"/><path class="s" d="M363.35,498.55l-.85-.58,6.95-9.4-3.71-2.57-6.95,9.4-.85-.58,6.95-9.4-1.33-.92,.59-.79,1.33,.92,3.32-4.49c.84-1.14,2.18-1.18,3.11-.54,.55,.38,.79,.82,.94,1.27l-.65,.88c-.15-.44-.31-.92-.84-1.29-.55-.38-1.3-.31-1.79,.36l-3.24,4.38,4.56,3.15-7.54,10.2Zm9.77-12.78c-.27,.37-.73,.42-1.08,.17-.36-.25-.45-.68-.18-1.05,.26-.35,.73-.42,1.09-.17,.36,.25,.44,.7,.18,1.05Z"/><path class="s" d="M379.34,484.95l.84,.58-12.06,16.31-.84-.58,12.06-16.31Z"/><path class="s" d="M382.04,497.25l-2.17-1.5-6.95,9.4-.84-.58,6.95-9.4-1.35-.93,.59-.79,1.35,.93,2.02-2.73,.85,.58-2.02,2.73,2.17,1.5-.59,.79Z"/><path class="s" d="M388.84,500.56l-.63,.86c-1.79-1.33-4.29-.41-5.8,1.63l-4.24,5.73-.85-.58,7.54-10.2,.85,.58-1.48,2c1.32-.75,3.07-1.08,4.61-.02Z"/><path class="s" d="M399.87,508.37l-7.54,10.2-.85-.58,1.81-2.45c-1.93,.98-4.24,.99-6.18-.35-2.93-2.03-3.22-5.82-1.12-8.66,2.11-2.85,5.92-3.83,8.86-1.8,1.94,1.34,2.68,3.45,2.35,5.53l1.82-2.47,.85,.58Zm-4.63,4.54c1.78-2.41,1.49-5.68-.96-7.38-2.45-1.69-5.67-.83-7.45,1.57s-1.56,5.61,.89,7.3c2.45,1.69,5.74,.91,7.52-1.5Z"/><path class="s" d="M406.25,513.97l-2.17-1.5-6.95,9.4-.85-.58,6.95-9.4-1.35-.93,.59-.79,1.35,.93,2.02-2.73,.84,.58-2.02,2.73,2.17,1.5-.59,.79Z"/><path class="s" d="M409.28,514.87l.85,.58-7.54,10.2-.85-.58,7.54-10.2Zm1.81-2.88c.26-.35,.73-.42,1.09-.17s.44,.7,.18,1.05c-.27,.37-.73,.42-1.09,.17-.36-.25-.45-.68-.18-1.05Z"/><path class="s" d="M409.52,522.7c2.07-2.79,6.01-3.73,9.18-1.55,3.17,2.19,3.52,6.1,1.46,8.89-2.08,2.81-6.03,3.75-9.19,1.57s-3.52-6.1-1.44-8.91Zm9.81,6.74c1.75-2.37,1.44-5.66-1.22-7.5-2.64-1.82-5.98-1.05-7.73,1.31-1.75,2.37-1.47,5.73,1.17,7.56,2.66,1.84,6.03,.99,7.78-1.38Z"/><path class="s" d="M432.01,537.34l-4.22,5.71-.84-.58,4.07-5.51c1.99-2.69,1.69-5-.34-6.4-1.9-1.31-4.47-.99-6.46,1.7l-4.07,5.51-.84-.58,7.54-10.2,.84,.58-1.39,1.88c1.43-.68,3.39-.74,5.03,.39,2.24,1.54,3.01,4.33,.68,7.49Z"/><path class="s" d="M432.65,542.95l.87,.6-4.26,3.9-.63-.44,4.02-4.06Zm4.78-7.85c.26-.35,.74-.44,1.1-.2,.36,.25,.42,.72,.17,1.07s-.73,.42-1.09,.17c-.36-.25-.44-.7-.18-1.05Z"/><path class="s" d="M238.47,433.9l.84,.58-7.54,10.2-.84-.58,7.54-10.2Zm1.81-2.88c.26-.35,.73-.42,1.09-.17,.36,.25,.44,.7,.18,1.05-.27,.37-.73,.42-1.09,.17-.36-.25-.45-.68-.18-1.05Z"/><path class="s" d="M248.41,447.53l-4.22,5.71-.84-.58,4.07-5.51c1.99-2.69,1.69-5-.34-6.4-1.9-1.31-4.47-.99-6.46,1.7l-4.07,5.5-.85-.58,7.54-10.2,.85,.58-1.39,1.88c1.43-.68,3.39-.74,5.03,.39,2.24,1.55,3.02,4.33,.68,7.49Z"/><path class="s" d="M250.28,449.75c2.1-2.83,5.96-3.8,9.24-1.54,1.48,1.02,2.38,2.38,2.71,3.84l-.81,1.1c-.09-1.51-.92-3.07-2.48-4.15-2.74-1.89-6.03-1.08-7.8,1.33s-1.51,5.67,1.23,7.56c1.56,1.08,3.35,1.33,4.86,.92l-.81,1.1c-1.53,.17-3.16-.21-4.64-1.23-3.27-2.26-3.58-6.11-1.49-8.94Z"/><path class="s" d="M270.23,455.64l-.63,.86c-1.79-1.33-4.29-.41-5.8,1.63l-4.24,5.73-.84-.58,7.54-10.2,.84,.58-1.48,2c1.32-.75,3.07-1.09,4.61-.02Z"/><path class="s" d="M268.08,462.38c-1.61,2.4-1.35,5.45,1.27,7.25,1.56,1.08,3.31,1.3,4.83,.97l-.78,1.06c-1.52,.15-3.16-.21-4.64-1.23-3.27-2.26-3.46-6.02-1.36-8.85,2.1-2.83,5.93-3.79,8.9-1.74,3.06,2.11,2.97,5.94,.85,8.81l-9.08-6.27Zm8.76,4.85c1.28-2.29,1.16-5.02-1.12-6.59-2.32-1.6-5.18-1.02-7.01,.98l8.12,5.61Z"/><path class="s" d="M293.23,471.7l-7.54,10.2-.84-.58,1.81-2.45c-1.93,.98-4.24,.99-6.18-.35-2.93-2.03-3.22-5.83-1.12-8.66,2.11-2.85,5.92-3.83,8.86-1.8,1.94,1.34,2.68,3.45,2.35,5.53l1.82-2.47,.84,.58Zm-4.63,4.54c1.78-2.41,1.49-5.68-.96-7.38-2.45-1.69-5.67-.83-7.45,1.57s-1.56,5.61,.89,7.3c2.45,1.69,5.73,.91,7.51-1.5Z"/><path class="s" d="M289.62,482.4l1.05-.13c.03,1.25,.54,2.46,1.57,3.18,1.27,.87,2.85,.89,3.72-.29,2.14-2.9-3.9-5.71-1.4-9.01,1.08-1.41,3.08-1.57,4.72-.47,1.37,.91,1.89,2.45,2.01,3.58l-.96,.17c-.12-1-.5-2.17-1.62-2.94-1.18-.82-2.6-.71-3.31,.21-2.02,2.61,4.05,5.48,1.37,9.01-1.15,1.51-3.26,1.82-5.16,.51-1.29-.89-2.01-2.5-2-3.81Z"/><path class="s" d="M305.49,480.17l.84,.58-7.54,10.2-.84-.58,7.54-10.2Zm1.81-2.88c.26-.35,.73-.42,1.09-.17,.36,.25,.44,.7,.18,1.05-.27,.37-.73,.42-1.09,.17-.36-.25-.45-.68-.18-1.05Z"/><path class="s" d="M315.43,493.81l-4.22,5.71-.84-.58,4.07-5.51c1.99-2.69,1.69-5-.34-6.4-1.9-1.31-4.46-.99-6.46,1.7l-4.07,5.51-.84-.58,7.54-10.2,.84,.58-1.39,1.88c1.43-.68,3.39-.74,5.03,.39,2.24,1.55,3.01,4.33,.68,7.49Z"/><path class="s" d="M323.96,507.62c-2.38,3.22-5.96,2.97-8.41,1.28-1.6-1.11-2.52-2.54-3.05-3.89l.71-.92c.51,1.55,1.37,2.98,2.8,3.97,2.36,1.63,5.3,1.5,7.22-1.14l1.37-1.86c-1.95,1-4.27,.99-6.21-.35-2.94-2.03-3.22-5.82-1.12-8.66,2.11-2.86,5.92-3.83,8.86-1.8,1.92,1.33,2.67,3.42,2.36,5.51l1.79-2.46,.84,.58-7.17,9.74Zm2.56-5.19c1.78-2.41,1.49-5.68-.96-7.37-2.45-1.69-5.67-.83-7.45,1.57s-1.56,5.61,.89,7.3c2.45,1.69,5.73,.91,7.51-1.5Z"/><path class="s" d="M338.39,510.92c-1.61,2.4-1.35,5.45,1.27,7.25,1.56,1.08,3.31,1.3,4.83,.97l-.79,1.06c-1.52,.15-3.16-.21-4.64-1.23-3.27-2.26-3.46-6.02-1.36-8.85,2.1-2.83,5.93-3.79,8.9-1.74,3.06,2.11,2.97,5.94,.85,8.81l-9.08-6.27Zm8.76,4.85c1.28-2.29,1.16-5.02-1.12-6.59-2.32-1.6-5.18-1.02-7.01,.98l8.12,5.61Z"/><path class="s" d="M358.2,516.38l-.63,.86c-1.79-1.33-4.29-.41-5.8,1.63l-4.24,5.73-.84-.58,7.54-10.2,.84,.58-1.48,2c1.32-.75,3.07-1.09,4.61-.02Z"/><path class="s" d="M355.39,522.3c2.07-2.79,6.01-3.73,9.18-1.55,3.17,2.19,3.53,6.1,1.46,8.89-2.08,2.81-6.03,3.75-9.19,1.57-3.17-2.19-3.52-6.1-1.44-8.91Zm9.81,6.74c1.75-2.37,1.44-5.66-1.22-7.5-2.64-1.82-5.98-1.05-7.73,1.32-1.75,2.37-1.46,5.73,1.17,7.55,2.66,1.84,6.03,.99,7.78-1.38Z"/><path class="s" d="M365.4,534.72l1.05-.13c.03,1.25,.54,2.46,1.57,3.18,1.27,.87,2.85,.89,3.72-.29,2.14-2.9-3.9-5.71-1.4-9.01,1.08-1.41,3.08-1.57,4.72-.47,1.37,.91,1.89,2.45,2.01,3.58l-.96,.17c-.12-1.01-.5-2.17-1.62-2.94-1.18-.82-2.6-.71-3.31,.21-2.02,2.61,4.05,5.48,1.37,9.01-1.15,1.51-3.26,1.82-5.16,.51-1.29-.89-2.01-2.5-2-3.81Z"/><path class="s" d="M381.27,532.49l.84,.58-7.54,10.2-.84-.58,7.54-10.2Zm1.81-2.88c.26-.35,.73-.42,1.09-.17,.36,.25,.44,.7,.18,1.05-.27,.37-.73,.42-1.09,.17-.36-.25-.45-.68-.18-1.05Z"/><path class="s" d="M381.5,540.32c2.07-2.79,6.01-3.73,9.18-1.55,3.17,2.19,3.53,6.1,1.46,8.89-2.08,2.81-6.03,3.75-9.19,1.57s-3.52-6.1-1.44-8.91Zm9.81,6.74c1.75-2.37,1.44-5.66-1.22-7.5-2.64-1.82-5.98-1.05-7.73,1.32-1.75,2.37-1.47,5.73,1.17,7.55,2.66,1.84,6.03,.99,7.78-1.38Z"/><path class="s" d="M403.99,554.96l-4.22,5.71-.84-.58,4.07-5.51c1.99-2.69,1.69-5-.34-6.4-1.9-1.31-4.46-.99-6.46,1.7l-4.07,5.51-.84-.58,7.54-10.2,.84,.58-1.39,1.88c1.43-.68,3.39-.74,5.03,.39,2.24,1.54,3.01,4.33,.68,7.49Z"/></g><g><path d="M996.53,332.93v1.01c-2.16-.07-3.58,1.99-3.58,4.39v6.75h-.99v-12h.99v2.35c.6-1.3,1.76-2.5,3.58-2.5Z"/><path d="M1008.93,333.08v12h-.99v-2.21c-.72,1.3-2.21,2.4-4.15,2.4-2.63,0-4.84-1.75-4.84-5.47v-6.72h.99v6.48c0,3.17,1.57,4.8,3.95,4.8,2.23,0,4.05-1.63,4.05-4.8v-6.48h.99Z"/><path d="M1023.28,338.36v6.72h-.99v-6.48c0-3.17-1.57-4.8-3.95-4.8-2.23,0-4.05,1.63-4.05,4.8v6.48h-.99v-12h.99v2.21c.72-1.3,2.21-2.4,4.15-2.4,2.63,0,4.84,1.75,4.84,5.47Z"/><path d="M1026.01,339.05c0-3.29,2.53-6.15,6.26-6.15s6.26,2.86,6.26,6.15-2.53,6.17-6.26,6.17-6.26-2.86-6.26-6.17Zm11.53-.02c0-2.78-2.13-5.18-5.27-5.18s-5.27,2.4-5.27,5.18,2.16,5.26,5.27,5.26,5.27-2.47,5.27-5.26Z"/><path d="M1042.97,327.91v5.16h2.58v.94h-2.58v11.07h-.99v-11.07h-1.57v-.94h1.57v-5.28c0-1.34,1.02-2.09,2.11-2.09,.64,0,1.09,.22,1.46,.48v1.03c-.37-.26-.77-.55-1.39-.55s-1.19,.46-1.19,1.25Z"/><path d="M1049.43,327.91v5.16h2.58v.94h-2.58v11.07h-.99v-11.07h-1.57v-.94h1.57v-5.28c0-1.34,1.02-2.09,2.11-2.09,.64,0,1.09,.22,1.46,.48v1.03c-.37-.26-.77-.55-1.39-.55s-1.19,.46-1.19,1.25Z"/><path d="M1080.23,333.08l-6.43,12.19h-.3l-2.78-5.42-2.76,5.42h-.3l-6.41-12.19h1.09l5.49,10.51,2.38-4.75-2.91-5.76h1.09l2.34,4.78,2.31-4.78h1.09l-2.91,5.76,2.41,4.75,5.46-10.51h1.12Z"/><path d="M1093.22,333.08v12h-.99v-2.88c-.94,1.8-2.73,3.05-5.02,3.05-3.45,0-5.86-2.81-5.86-6.14s2.41-6.17,5.86-6.17c2.29,0,4.07,1.25,5.02,3.05v-2.9h.99Zm-.99,6.02c0-2.83-2.11-5.23-4.99-5.23s-4.89,2.4-4.89,5.23,2.01,5.21,4.89,5.21,4.99-2.38,4.99-5.21Z"/><path d="M1101.41,334.01h-2.56v11.07h-.99v-11.07h-1.59v-.94h1.59v-3.22h.99v3.22h2.56v.94Z"/><path d="M1103.62,339.34c.12,2.74,2.09,4.97,5.17,4.97,1.84,0,3.33-.77,4.32-1.85v1.25c-1.09,.94-2.58,1.54-4.32,1.54-3.85,0-6.16-2.83-6.16-6.17s2.43-6.14,5.94-6.14,5.74,3.02,5.74,6.41h-10.68Zm9.61-.94c-.32-2.47-1.99-4.54-4.67-4.54s-4.62,1.99-4.89,4.54h9.56Z"/><path d="M1122.2,332.93v1.01c-2.16-.07-3.58,1.99-3.58,4.39v6.75h-.99v-12h.99v2.35c.6-1.3,1.76-2.5,3.58-2.5Z"/><path d="M1144.48,333.08v12h-.99v-2.88c-.94,1.8-2.73,3.05-5.02,3.05-3.45,0-5.86-2.81-5.86-6.14s2.41-6.17,5.86-6.17c2.29,0,4.07,1.25,5.02,3.05v-2.9h.99Zm-.99,6.02c0-2.83-2.11-5.23-4.99-5.23s-4.89,2.4-4.89,5.23,2.01,5.21,4.89,5.21,4.99-2.38,4.99-5.21Z"/><path d="M1158.84,338.36v6.72h-.99v-6.48c0-3.17-1.57-4.8-3.95-4.8-2.23,0-4.05,1.63-4.05,4.8v6.48h-.99v-12h.99v2.21c.72-1.3,2.21-2.4,4.15-2.4,2.63,0,4.84,1.75,4.84,5.47Z"/><path d="M1173.44,325.87v19.2h-.99v-2.88c-.95,1.8-2.73,3.05-5.02,3.05-3.45,0-5.86-2.81-5.86-6.14s2.41-6.17,5.86-6.17c2.29,0,4.07,1.25,5.02,3.05v-10.11h.99Zm-.99,13.23c0-2.83-2.11-5.23-4.99-5.23s-4.89,2.4-4.89,5.23,2.01,5.21,4.89,5.21,4.99-2.38,4.99-5.21Z"/><path d="M1186.58,339.34c.12,2.74,2.09,4.97,5.17,4.97,1.84,0,3.33-.77,4.32-1.85v1.25c-1.09,.94-2.58,1.54-4.32,1.54-3.85,0-6.16-2.83-6.16-6.17s2.44-6.14,5.94-6.14,5.74,3.02,5.74,6.41h-10.68Zm9.61-.94c-.32-2.47-1.99-4.54-4.67-4.54s-4.62,1.99-4.89,4.54h9.56Z"/><path d="M1205.15,332.93v1.01c-2.16-.07-3.58,1.99-3.58,4.39v6.75h-.99v-12h.99v2.35c.6-1.3,1.76-2.5,3.58-2.5Z"/><path d="M1206.37,339.05c0-3.29,2.53-6.15,6.26-6.15s6.26,2.86,6.26,6.15-2.53,6.17-6.26,6.17-6.26-2.86-6.26-6.17Zm11.53-.02c0-2.78-2.13-5.18-5.27-5.18s-5.27,2.4-5.27,5.18,2.16,5.26,5.27,5.26,5.27-2.47,5.27-5.26Z"/><path d="M1233.29,325.87v19.2h-.99v-2.88c-.95,1.8-2.73,3.05-5.02,3.05-3.45,0-5.86-2.81-5.86-6.14s2.41-6.17,5.86-6.17c2.29,0,4.07,1.25,5.02,3.05v-10.11h.99Zm-.99,13.23c0-2.83-2.11-5.23-4.99-5.23s-4.89,2.4-4.89,5.23,2.01,5.21,4.89,5.21,4.99-2.38,4.99-5.21Z"/><path d="M1237.74,339.34c.12,2.74,2.09,4.97,5.17,4.97,1.84,0,3.33-.77,4.32-1.85v1.25c-1.09,.94-2.58,1.54-4.32,1.54-3.85,0-6.16-2.83-6.16-6.17s2.44-6.14,5.94-6.14,5.74,3.02,5.74,6.41h-10.68Zm9.61-.94c-.32-2.47-1.99-4.54-4.67-4.54s-4.62,1.99-4.89,4.54h9.56Z"/><path d="M1262.7,325.87v19.2h-.99v-2.88c-.94,1.8-2.73,3.05-5.02,3.05-3.45,0-5.86-2.81-5.86-6.14s2.41-6.17,5.86-6.17c2.29,0,4.07,1.25,5.02,3.05v-10.11h.99Zm-.99,13.23c0-2.83-2.11-5.23-4.99-5.23s-4.89,2.4-4.89,5.23,2.01,5.21,4.89,5.21,4.99-2.38,4.99-5.21Z"/><path d="M989.24,372.15l.74-.67c.75,.96,1.84,1.63,3.06,1.63,1.49,0,2.73-.84,2.73-2.23,0-3.41-6.34-2.35-6.29-6.26,.02-1.68,1.49-2.88,3.4-2.9,1.59-.02,2.88,.89,3.63,1.7l-.65,.65c-.67-.72-1.64-1.42-2.96-1.42-1.39,0-2.44,.84-2.46,1.94-.07,3.12,6.31,2.09,6.26,6.29-.03,1.8-1.49,3.17-3.73,3.17-1.52,0-3.01-.86-3.75-1.9Z"/><path d="M999.15,367.85c0-3.29,2.54-6.14,6.26-6.14s6.26,2.86,6.26,6.14-2.54,6.17-6.26,6.17-6.26-2.86-6.26-6.17Zm11.53-.02c0-2.78-2.14-5.18-5.27-5.18s-5.27,2.4-5.27,5.18,2.16,5.26,5.27,5.26,5.27-2.47,5.27-5.26Z"/><path d="M1015.12,358.66c0-.41,.32-.72,.74-.72s.75,.31,.75,.72c0,.43-.32,.72-.75,.72s-.74-.29-.74-.72Zm.25,3.22h.99v12h-.99v-12Z"/><path d="M1020.98,354.67h.99v19.2h-.99v-19.2Z"/><path d="M1045.99,361.88v12h-.99v-2.88c-.95,1.8-2.73,3.05-5.02,3.05-3.45,0-5.86-2.81-5.86-6.14s2.41-6.17,5.86-6.17c2.29,0,4.07,1.25,5.02,3.05v-2.9h.99Zm-.99,6.02c0-2.83-2.11-5.23-4.99-5.23s-4.89,2.4-4.89,5.23,2.01,5.21,4.89,5.21,4.99-2.38,4.99-5.21Z"/><path d="M1049.45,367.88c0-3.34,2.46-6.17,6.31-6.17,1.74,0,3.23,.58,4.32,1.54v1.3c-.95-1.13-2.48-1.9-4.32-1.9-3.23,0-5.31,2.4-5.31,5.23s2.09,5.23,5.31,5.23c1.84,0,3.38-.77,4.32-1.9v1.3c-1.09,.96-2.58,1.54-4.32,1.54-3.85,0-6.31-2.83-6.31-6.17Z"/><path d="M1062.88,367.88c0-3.34,2.46-6.17,6.31-6.17,1.74,0,3.23,.58,4.32,1.54v1.3c-.94-1.13-2.48-1.9-4.32-1.9-3.23,0-5.32,2.4-5.32,5.23s2.09,5.23,5.32,5.23c1.84,0,3.38-.77,4.32-1.9v1.3c-1.09,.96-2.58,1.54-4.32,1.54-3.85,0-6.31-2.83-6.31-6.17Z"/><path d="M1087,361.88v12h-.99v-2.21c-.72,1.3-2.21,2.4-4.15,2.4-2.63,0-4.84-1.75-4.84-5.47v-6.72h.99v6.48c0,3.17,1.57,4.8,3.95,4.8,2.23,0,4.05-1.63,4.05-4.8v-6.48h.99Z"/><path d="M1108.71,366.72l-.03,7.15h-.99v-6.94c0-2.62-1.34-4.32-3.58-4.32s-3.58,1.7-3.58,4.56l-.03,6.7h-.99v-6.94c0-2.62-1.34-4.32-3.58-4.32s-3.58,1.7-3.58,4.56v6.7h-.99v-12h.99v1.92c.67-1.15,1.86-2.11,3.7-2.11s3.45,1.03,4.12,2.9c.52-1.44,1.81-2.9,4.05-2.9,2.43,0,4.47,1.8,4.47,5.04Z"/><path d="M1122.61,361.88v12h-.99v-2.21c-.72,1.3-2.21,2.4-4.15,2.4-2.63,0-4.84-1.75-4.84-5.47v-6.72h.99v6.48c0,3.17,1.57,4.8,3.95,4.8,2.23,0,4.05-1.63,4.05-4.8v-6.48h.99Z"/><path d="M1126.98,354.67h.99v19.2h-.99v-19.2Z"/><path d="M1143.3,361.88v12h-.99v-2.88c-.95,1.8-2.73,3.05-5.02,3.05-3.45,0-5.86-2.81-5.86-6.14s2.41-6.17,5.86-6.17c2.29,0,4.07,1.25,5.02,3.05v-2.9h.99Zm-.99,6.02c0-2.83-2.11-5.23-4.99-5.23s-4.89,2.4-4.89,5.23,2.01,5.21,4.89,5.21,4.99-2.38,4.99-5.21Z"/><path d="M1151.5,362.81h-2.56v11.07h-.99v-11.07h-1.59v-.94h1.59v-3.22h.99v3.22h2.56v.94Z"/><path d="M1153.71,368.14c.12,2.74,2.09,4.97,5.17,4.97,1.84,0,3.33-.77,4.32-1.85v1.25c-1.09,.94-2.58,1.54-4.32,1.54-3.85,0-6.16-2.83-6.16-6.17s2.43-6.14,5.94-6.14,5.74,3.02,5.74,6.41h-10.68Zm9.61-.94c-.32-2.47-1.99-4.54-4.67-4.54s-4.62,1.99-4.89,4.54h9.56Z"/><path d="M1166.7,372.15l.75-.67c.74,.96,1.84,1.63,3.05,1.63,1.49,0,2.73-.84,2.73-2.23,0-3.41-6.33-2.35-6.29-6.26,.03-1.68,1.49-2.88,3.4-2.9,1.59-.02,2.88,.89,3.63,1.7l-.65,.65c-.67-.72-1.64-1.42-2.96-1.42-1.39,0-2.43,.84-2.46,1.94-.07,3.12,6.31,2.09,6.26,6.29-.02,1.8-1.49,3.17-3.72,3.17-1.52,0-3.01-.86-3.75-1.9Z"/><path d="M1176.31,362.5c0-.41,.32-.74,.74-.74s.75,.34,.75,.74-.32,.72-.75,.72-.74-.31-.74-.72Zm.79,8.69h1.02l-1.07,5.33h-.74l.79-5.33Z"/><path d="M1199.95,367.16v6.72h-.99v-6.48c0-3.17-1.57-4.8-3.95-4.8-2.23,0-4.05,1.63-4.05,4.8v6.48h-.99v-19.2h.99v9.41c.72-1.3,2.21-2.4,4.15-2.4,2.63,0,4.84,1.75,4.84,5.47Z"/><path d="M1204.1,358.66c0-.41,.32-.72,.75-.72s.74,.31,.74,.72c0,.43-.32,.72-.74,.72s-.75-.29-.75-.72Zm.25,3.22h.99v12h-.99v-12Z"/><path d="M1220.91,373.32c0,3.79-2.93,5.52-5.81,5.52-1.89,0-3.43-.62-4.62-1.39l.03-1.1c1.29,.94,2.78,1.58,4.47,1.58,2.78,0,4.99-1.68,4.97-4.78v-2.18c-.94,1.82-2.76,3.07-5.04,3.07-3.45,0-5.86-2.81-5.86-6.14s2.41-6.17,5.86-6.17c2.26,0,4.05,1.22,5.02,3.02l-.02-2.88h.99l.03,11.45Zm-.99-5.42c0-2.83-2.11-5.23-4.99-5.23s-4.89,2.4-4.89,5.23,2.01,5.21,4.89,5.21,4.99-2.38,4.99-5.21Z"/><path d="M1235.27,367.16v6.72h-.99v-6.48c0-3.17-1.57-4.8-3.95-4.8-2.23,0-4.05,1.63-4.05,4.8v6.48h-.99v-19.2h.99v9.41c.72-1.3,2.21-2.4,4.15-2.4,2.63,0,4.84,1.75,4.84,5.47Z"/><path d="M1238.99,368.14c.12,2.74,2.09,4.97,5.17,4.97,1.84,0,3.33-.77,4.32-1.85v1.25c-1.09,.94-2.58,1.54-4.32,1.54-3.85,0-6.16-2.83-6.16-6.17s2.44-6.14,5.94-6.14,5.74,3.02,5.74,6.41h-10.68Zm9.61-.94c-.32-2.47-1.99-4.54-4.67-4.54s-4.62,1.99-4.89,4.54h9.56Z"/><path d="M1251.98,372.15l.74-.67c.75,.96,1.84,1.63,3.06,1.63,1.49,0,2.73-.84,2.73-2.23,0-3.41-6.34-2.35-6.29-6.26,.02-1.68,1.49-2.88,3.4-2.9,1.59-.02,2.88,.89,3.63,1.7l-.65,.65c-.67-.72-1.64-1.42-2.96-1.42-1.39,0-2.44,.84-2.46,1.94-.07,3.12,6.31,2.09,6.26,6.29-.03,1.8-1.49,3.17-3.73,3.17-1.52,0-3.01-.86-3.75-1.9Z"/><path d="M1266.14,362.81h-2.56v11.07h-.99v-11.07h-1.59v-.94h1.59v-3.22h.99v3.22h2.56v.94Z"/><path d="M992.92,387.46c0-.41,.32-.72,.74-.72s.75,.31,.75,.72c0,.43-.32,.72-.75,.72s-.74-.29-.74-.72Zm.25,3.22h.99v12h-.99v-12Z"/><path d="M1008.77,395.96v6.72h-.99v-6.48c0-3.17-1.57-4.8-3.95-4.8-2.23,0-4.05,1.63-4.05,4.8v6.48h-.99v-12h.99v2.21c.72-1.3,2.21-2.4,4.15-2.4,2.63,0,4.84,1.75,4.84,5.47Z"/><path d="M1019.52,402.68h-.99v-11.06h-4.37v11.06h-.99v-11.06h-1.56v-.94h1.56v-5.28c0-1.34,1.02-2.09,2.11-2.09,.65,0,1.09,.22,1.47,.48v1.03c-.37-.26-.77-.55-1.39-.55s-1.19,.46-1.19,1.25v5.16h5.37v12Zm.25-15.22c0,.43-.32,.72-.74,.72s-.75-.29-.75-.72c0-.41,.32-.72,.75-.72s.74,.31,.74,.72Z"/><path d="M1024.14,383.48h.99v19.2h-.99v-19.2Z"/><path d="M1033.33,391.61h-2.56v11.06h-.99v-11.06h-1.59v-.94h1.59v-3.22h.99v3.22h2.56v.94Z"/><path d="M1040.53,390.53v1.01c-2.16-.07-3.58,1.99-3.58,4.39v6.74h-.99v-12h.99v2.35c.6-1.3,1.76-2.5,3.58-2.5Z"/><path d="M1053.62,390.68v12h-.99v-2.88c-.95,1.8-2.73,3.05-5.02,3.05-3.45,0-5.86-2.81-5.86-6.14s2.41-6.17,5.86-6.17c2.29,0,4.07,1.25,5.02,3.05v-2.9h.99Zm-.99,6.02c0-2.83-2.11-5.23-4.99-5.23s-4.89,2.4-4.89,5.23,2.01,5.21,4.89,5.21,4.99-2.38,4.99-5.21Z"/><path d="M1061.81,391.61h-2.56v11.06h-.99v-11.06h-1.59v-.94h1.59v-3.22h.99v3.22h2.56v.94Z"/><path d="M1064.45,387.46c0-.41,.32-.72,.74-.72s.75,.31,.75,.72c0,.43-.32,.72-.75,.72s-.74-.29-.74-.72Zm.25,3.22h.99v12h-.99v-12Z"/><path d="M1069.39,396.65c0-3.29,2.53-6.14,6.26-6.14s6.26,2.86,6.26,6.14-2.53,6.17-6.26,6.17-6.26-2.86-6.26-6.17Zm11.53-.02c0-2.79-2.13-5.18-5.27-5.18s-5.27,2.4-5.27,5.18,2.16,5.26,5.27,5.26,5.27-2.47,5.27-5.26Z"/><path d="M1095.34,395.96v6.72h-.99v-6.48c0-3.17-1.57-4.8-3.95-4.8-2.23,0-4.05,1.63-4.05,4.8v6.48h-.99v-12h.99v2.21c.72-1.3,2.21-2.4,4.15-2.4,2.63,0,4.84,1.75,4.84,5.47Z"/><path d="M1098.27,391.3c0-.41,.32-.74,.75-.74s.74,.34,.74,.74-.32,.72-.74,.72-.75-.31-.75-.72Zm.79,8.69h1.02l-1.07,5.33h-.75l.79-5.33Z"/><path d="M1123.78,396.68c0,3.36-2.41,6.17-5.86,6.17-2.26,0-4.05-1.22-4.99-3v7.63h-.99v-16.8h.99v2.86c.94-1.78,2.73-3,4.99-3,3.45,0,5.86,2.81,5.86,6.14Zm-.99,0c0-2.83-2.01-5.21-4.89-5.21-2.71,0-4.72,2.09-4.97,4.68v1.06c.25,2.59,2.26,4.71,4.97,4.71,2.88,0,4.89-2.4,4.89-5.23Z"/><path d="M1126.31,396.65c0-3.29,2.53-6.14,6.26-6.14s6.26,2.86,6.26,6.14-2.53,6.17-6.26,6.17-6.26-2.86-6.26-6.17Zm11.53-.02c0-2.79-2.13-5.18-5.27-5.18s-5.27,2.4-5.27,5.18,2.16,5.26,5.27,5.26,5.27-2.47,5.27-5.26Z"/><path d="M1141.36,396.65c0-3.29,2.54-6.14,6.26-6.14s6.26,2.86,6.26,6.14-2.54,6.17-6.26,6.17-6.26-2.86-6.26-6.17Zm11.53-.02c0-2.79-2.14-5.18-5.27-5.18s-5.27,2.4-5.27,5.18,2.16,5.26,5.27,5.26,5.27-2.47,5.27-5.26Z"/><path d="M1161.9,390.53v1.01c-2.16-.07-3.58,1.99-3.58,4.39v6.74h-.99v-12h.99v2.35c.6-1.3,1.76-2.5,3.58-2.5Z"/><path d="M1184.18,383.48v19.2h-.99v-2.88c-.95,1.8-2.73,3.05-5.02,3.05-3.45,0-5.86-2.81-5.86-6.14s2.41-6.17,5.86-6.17c2.29,0,4.07,1.25,5.02,3.05v-10.1h.99Zm-.99,13.22c0-2.83-2.11-5.23-4.99-5.23s-4.89,2.4-4.89,5.23,2.01,5.21,4.89,5.21,4.99-2.38,4.99-5.21Z"/><path d="M1193.12,390.53v1.01c-2.16-.07-3.58,1.99-3.58,4.39v6.74h-.99v-12h.99v2.35c.6-1.3,1.76-2.5,3.58-2.5Z"/><path d="M1206.21,390.68v12h-.99v-2.88c-.95,1.8-2.73,3.05-5.02,3.05-3.45,0-5.86-2.81-5.86-6.14s2.41-6.17,5.86-6.17c2.29,0,4.07,1.25,5.02,3.05v-2.9h.99Zm-.99,6.02c0-2.83-2.11-5.23-4.99-5.23s-4.89,2.4-4.89,5.23,2.01,5.21,4.89,5.21,4.99-2.38,4.99-5.21Z"/><path d="M1210.58,387.46c0-.41,.32-.72,.74-.72s.75,.31,.75,.72c0,.43-.32,.72-.75,.72s-.74-.29-.74-.72Zm.25,3.22h.99v12h-.99v-12Z"/><path d="M1226.43,395.96v6.72h-.99v-6.48c0-3.17-1.56-4.8-3.95-4.8-2.24,0-4.05,1.63-4.05,4.8v6.48h-.99v-12h.99v2.21c.72-1.3,2.21-2.4,4.15-2.4,2.63,0,4.84,1.75,4.84,5.47Z"/><path d="M1241.03,390.68v12h-.99v-2.88c-.95,1.8-2.73,3.05-5.02,3.05-3.45,0-5.86-2.81-5.86-6.14s2.41-6.17,5.86-6.17c2.29,0,4.07,1.25,5.02,3.05v-2.9h.99Zm-.99,6.02c0-2.83-2.11-5.23-4.99-5.23s-4.89,2.4-4.89,5.23,2.01,5.21,4.89,5.21,4.99-2.38,4.99-5.21Z"/><path d="M1256.36,402.12c0,3.79-2.93,5.52-5.81,5.52-1.89,0-3.43-.62-4.62-1.39l.03-1.1c1.29,.94,2.78,1.58,4.47,1.58,2.78,0,4.99-1.68,4.97-4.78v-2.18c-.94,1.82-2.76,3.07-5.04,3.07-3.45,0-5.86-2.81-5.86-6.14s2.41-6.17,5.86-6.17c2.26,0,4.05,1.22,5.02,3.02l-.02-2.88h.99l.03,11.45Zm-.99-5.42c0-2.83-2.11-5.23-4.99-5.23s-4.89,2.4-4.89,5.23,2.01,5.21,4.89,5.21,4.99-2.38,4.99-5.21Z"/><path d="M1260.8,396.94c.12,2.74,2.09,4.97,5.17,4.97,1.84,0,3.33-.77,4.32-1.85v1.25c-1.09,.94-2.58,1.54-4.32,1.54-3.85,0-6.16-2.83-6.16-6.17s2.44-6.14,5.94-6.14,5.74,3.02,5.74,6.41h-10.68Zm9.61-.94c-.32-2.47-1.99-4.54-4.67-4.54s-4.62,1.99-4.89,4.54h9.56Z"/></g><g><path class="j" d="M222.55,354.43c33.22,4.35,61.95,24.31,86.75,46.11,23.93,21.03,48.84,42.83,76.42,60.08,29.71,18.59,63.78,28.72,92.5,48.96,17.04,12.01,31.34,30.47,50.69,39.16"/><polygon class="p" points="526.26 550.25 528.16 548.4 528.14 545.75 532.54 550.24 526.26 550.25"/></g><g><path class="g" d="M758.94,314.14c5.32,27.21-3.84,52.46-22.52,73.05-16.27,17.93-41.8,27.05-65.95,33.03-4.96,1.23-9.97,2.33-14.99,3.35"/><polygon class="o" points="659.04 416.29 657.58 423.14 661.48 428.95 645.27 425.51 659.04 416.29"/></g><g><line class="k" x1="1132.12" y1="420.31" x2="1132.12" y2="531.83"/><polygon class="o" points="1125.64 526.91 1132.12 529.67 1138.6 526.91 1132.12 542.28 1125.64 526.91"/></g><g><path class="l" d="M512.05,116.23c-11.52-40.03-62.62-30.72-87.66-8.96-10.32,8.97-18.08,20.21-24.84,31.88"/><polygon class="o" points="396.32 131.68 400.65 137.28 407.68 138.05 394.44 148.33 396.32 131.68"/></g><g><path d="M28.18,144.93c0-.41,.32-.72,.75-.72s.75,.31,.75,.72c0,.43-.32,.72-.75,.72s-.75-.29-.75-.72Zm.25,3.22h.99v12h-.99v-12Z"/><path d="M44.02,153.42v6.72h-.99v-6.48c0-3.17-1.57-4.8-3.95-4.8-2.24,0-4.05,1.63-4.05,4.8v6.48h-.99v-12h.99v2.21c.72-1.3,2.21-2.4,4.15-2.4,2.63,0,4.84,1.75,4.84,5.47Z"/><path d="M54.78,160.14h-.99v-11.06h-4.37v11.06h-.99v-11.06h-1.57v-.94h1.57v-5.28c0-1.34,1.02-2.09,2.11-2.09,.65,0,1.09,.22,1.47,.48v1.03c-.37-.26-.77-.55-1.39-.55s-1.19,.46-1.19,1.25v5.16h5.37v12Zm.25-15.22c0,.43-.32,.72-.75,.72s-.75-.29-.75-.72c0-.41,.32-.72,.75-.72s.75,.31,.75,.72Z"/><path d="M59.39,140.94h.99v19.2h-.99v-19.2Z"/><path d="M68.58,149.08h-2.56v11.06h-.99v-11.06h-1.59v-.94h1.59v-3.22h.99v3.22h2.56v.94Z"/><path d="M75.79,148v1.01c-2.16-.07-3.58,1.99-3.58,4.39v6.74h-.99v-12h.99v2.35c.6-1.3,1.76-2.5,3.58-2.5Z"/><path d="M88.88,148.14v12h-.99v-2.88c-.94,1.8-2.73,3.05-5.02,3.05-3.45,0-5.86-2.81-5.86-6.14s2.41-6.17,5.86-6.17c2.29,0,4.07,1.25,5.02,3.05v-2.9h.99Zm-.99,6.02c0-2.83-2.11-5.23-4.99-5.23s-4.89,2.4-4.89,5.23,2.01,5.21,4.89,5.21,4.99-2.38,4.99-5.21Z"/><path d="M97.07,149.08h-2.56v11.06h-.99v-11.06h-1.59v-.94h1.59v-3.22h.99v3.22h2.56v.94Z"/><path d="M99.28,154.41c.12,2.74,2.09,4.97,5.17,4.97,1.84,0,3.33-.77,4.32-1.85v1.25c-1.09,.94-2.58,1.54-4.32,1.54-3.85,0-6.16-2.83-6.16-6.17s2.43-6.14,5.94-6.14,5.74,3.02,5.74,6.41h-10.68Zm9.61-.94c-.32-2.47-1.99-4.54-4.67-4.54s-4.62,1.99-4.89,4.54h9.56Z"/><path d="M112.27,158.41l.75-.67c.75,.96,1.84,1.63,3.05,1.63,1.49,0,2.73-.84,2.73-2.23,0-3.41-6.33-2.35-6.29-6.26,.02-1.68,1.49-2.88,3.4-2.9,1.59-.02,2.88,.89,3.63,1.7l-.65,.65c-.67-.72-1.64-1.42-2.96-1.42-1.39,0-2.43,.84-2.46,1.94-.07,3.12,6.31,2.09,6.26,6.29-.02,1.8-1.49,3.17-3.73,3.17-1.52,0-3.01-.86-3.75-1.9Z"/><path d="M142.74,148.14v12h-.99v-2.88c-.94,1.8-2.73,3.05-5.02,3.05-3.45,0-5.86-2.81-5.86-6.14s2.41-6.17,5.86-6.17c2.29,0,4.07,1.25,5.02,3.05v-2.9h.99Zm-.99,6.02c0-2.83-2.11-5.23-4.99-5.23s-4.89,2.4-4.89,5.23,2.01,5.21,4.89,5.21,4.99-2.38,4.99-5.21Z"/><path d="M157.1,153.42v6.72h-.99v-6.48c0-3.17-1.57-4.8-3.95-4.8-2.24,0-4.05,1.63-4.05,4.8v6.48h-.99v-12h.99v2.21c.72-1.3,2.21-2.4,4.15-2.4,2.63,0,4.84,1.75,4.84,5.47Z"/><path d="M171.7,140.94v19.2h-.99v-2.88c-.94,1.8-2.73,3.05-5.02,3.05-3.45,0-5.86-2.81-5.86-6.14s2.41-6.17,5.86-6.17c2.29,0,4.07,1.25,5.02,3.05v-10.1h.99Zm-.99,13.23c0-2.83-2.11-5.23-4.99-5.23s-4.89,2.4-4.89,5.23,2.01,5.21,4.89,5.21,4.99-2.38,4.99-5.21Z"/><path d="M57.51,169.74v19.2h-.99v-2.88c-.94,1.8-2.73,3.05-5.02,3.05-3.45,0-5.86-2.81-5.86-6.14s2.41-6.17,5.86-6.17c2.29,0,4.07,1.25,5.02,3.05v-10.1h.99Zm-.99,13.23c0-2.83-2.11-5.23-4.99-5.23s-4.89,2.4-4.89,5.23,2.01,5.21,4.89,5.21,4.99-2.38,4.99-5.21Z"/><path d="M66.45,176.8v1.01c-2.16-.07-3.58,1.99-3.58,4.39v6.74h-.99v-12h.99v2.35c.6-1.3,1.76-2.5,3.58-2.5Z"/><path d="M79.54,176.94v12h-.99v-2.88c-.94,1.8-2.73,3.05-5.02,3.05-3.45,0-5.86-2.81-5.86-6.14s2.41-6.17,5.86-6.17c2.29,0,4.07,1.25,5.02,3.05v-2.9h.99Zm-.99,6.02c0-2.83-2.11-5.23-4.99-5.23s-4.89,2.4-4.89,5.23,2.01,5.21,4.89,5.21,4.99-2.38,4.99-5.21Z"/><path d="M83.91,173.73c0-.41,.32-.72,.75-.72s.75,.31,.75,.72c0,.43-.32,.72-.75,.72s-.75-.29-.75-.72Zm.25,3.22h.99v12h-.99v-12Z"/><path d="M99.75,182.22v6.72h-.99v-6.48c0-3.17-1.57-4.8-3.95-4.8-2.24,0-4.05,1.63-4.05,4.8v6.48h-.99v-12h.99v2.21c.72-1.3,2.21-2.4,4.15-2.4,2.63,0,4.84,1.75,4.84,5.47Z"/><path d="M103.13,187.21l.75-.67c.75,.96,1.84,1.63,3.06,1.63,1.49,0,2.73-.84,2.73-2.23,0-3.41-6.33-2.35-6.29-6.26,.02-1.68,1.49-2.88,3.4-2.9,1.59-.02,2.88,.89,3.63,1.7l-.65,.65c-.67-.72-1.64-1.42-2.96-1.42-1.39,0-2.43,.84-2.46,1.94-.07,3.12,6.31,2.09,6.26,6.29-.02,1.8-1.49,3.17-3.73,3.17-1.52,0-3.01-.86-3.75-1.9Z"/><path d="M139.54,176.94l-6.43,12.19h-.3l-2.78-5.42-2.76,5.42h-.3l-6.41-12.19h1.09l5.49,10.51,2.38-4.75-2.91-5.76h1.09l2.33,4.78,2.31-4.78h1.09l-2.91,5.76,2.41,4.75,5.46-10.51h1.12Z"/><path d="M141.65,183.21c.12,2.74,2.09,4.97,5.17,4.97,1.84,0,3.33-.77,4.32-1.85v1.25c-1.09,.94-2.58,1.54-4.32,1.54-3.85,0-6.16-2.83-6.16-6.17s2.43-6.14,5.94-6.14,5.74,3.02,5.74,6.41h-10.68Zm9.61-.94c-.32-2.47-1.99-4.54-4.67-4.54s-4.62,1.99-4.89,4.54h9.56Z"/><path d="M155.66,169.74h.99v19.2h-.99v-19.2Z"/><path d="M161.02,169.74h.99v19.2h-.99v-19.2Z"/></g><g><path class="m" d="M152.9,87.72c17.48,1.29,35.24,3.8,51.55,10.52,14.33,5.9,34.24,17,33.41,34.98-.71,15.37-16.98,25.39-29.62,30.85-6.12,2.64-12.45,4.81-18.93,6.48"/><polygon class="o" points="191.86 164.7 190.92 170.1 194.16 174.52 181.38 172.34 191.86 164.7"/></g></g></g></g></svg>