<svg xmlns="http://www.w3.org/2000/svg" xmlns:xlink="http://www.w3.org/1999/xlink" viewBox="0 0 1328 716.9865"><defs><style>.cls-1,.cls-28,.cls-35,.cls-44,.cls-45,.cls-47,.cls-49,.cls-50{fill:none;}.cls-2,.cls-37{font-size:30px;}.cls-2{fill:#5c5052;}.cls-2,.cls-31{font-family:Acre-Light, Acre;font-weight:300;}.cls-3{letter-spacing:-0.015em;}.cls-4{letter-spacing:-0.015em;}.cls-5{letter-spacing:-0.02em;}.cls-6{letter-spacing:-0.005em;}.cls-7{letter-spacing:-0.005em;}.cls-8{letter-spacing:-0.015em;}.cls-9{letter-spacing:-0.013em;}.cls-10{letter-spacing:0em;}.cls-11{letter-spacing:-0.008em;}.cls-12{letter-spacing:-0.013em;}.cls-13{letter-spacing:-0.003em;}.cls-14{letter-spacing:-0.022em;}.cls-15{letter-spacing:-0.005em;}.cls-16{letter-spacing:-0.028em;}.cls-17{font-size:62.3515px;font-family:Acre-Regular, Acre;}.cls-17,.cls-32{fill:#df6572;}.cls-18{letter-spacing:-0.02em;}.cls-19{letter-spacing:0em;}.cls-20{letter-spacing:-0.01em;}.cls-21{letter-spacing:-0.031em;}.cls-22{clip-path:url(#clip-path);}.cls-23{fill:#ffce01;}.cls-24,.cls-30{fill:#3daaa1;}.cls-24{opacity:0.33;}.cls-25{fill:#3eaca2;}.cls-26{fill:#ececec;}.cls-27,.cls-37{fill:#fff;}.cls-28{stroke:#5c5052;stroke-linecap:round;stroke-width:1.0836px;}.cls-28,.cls-32,.cls-44,.cls-45,.cls-47,.cls-49,.cls-50{stroke-miterlimit:10;}.cls-29{fill:#ffcf01;}.cls-31{font-size:24.0558px;fill:#ec6b7c;}.cls-32{stroke:#df6572;stroke-width:1.0196px;}.cls-33{fill:#b78f6a;}.cls-34{fill:#754c24;}.cls-35{stroke:#3daaa1;stroke-linejoin:round;stroke-width:7.2423px;}.cls-36{fill:#7c7169;}.cls-37,.cls-40{font-family:Acre-Thin, Acre;font-weight:200;}.cls-38{letter-spacing:-0.02em;}.cls-39{letter-spacing:-0.01em;}.cls-40{font-size:24px;}.cls-41{letter-spacing:-0.01em;}.cls-42{letter-spacing:-0.02em;}.cls-43{letter-spacing:-0.01em;}.cls-44{stroke:#fff;stroke-width:0.6595px;}.cls-45,.cls-47,.cls-49{stroke:#ec6a7c;}.cls-45{stroke-width:1.7401px;}.cls-46{fill:#ec6a7c;}.cls-47{stroke-width:1.7588px;}.cls-48{letter-spacing:0.01em;}.cls-49{stroke-width:1.3611px;}.cls-50{stroke:#5d5152;stroke-width:1.9796px;}</style><clipPath id="clip-path" transform="translate(3.0102)"><rect class="cls-1" x="3.9898" y="51.6405" width="1297" height="665.3493"/></clipPath></defs><g id="Layer_2" data-name="Layer 2"><g id="Layer_19" data-name="Layer 19"><text class="cls-2" transform="translate(465.5681 54.1984)">in t<tspan class="cls-3" x="43.2886" y="0">h</tspan><tspan x="59.9683" y="0">e </tspan><tspan class="cls-4" x="87.2676" y="0">n</tspan><tspan x="103.9175" y="0">ort</tspan><tspan class="cls-3" x="139.4063" y="0">h</tspan><tspan x="156.0859" y="0">ern </tspan><tspan class="cls-4" x="209.6045" y="0">h</tspan><tspan x="226.2847" y="0">emisp</tspan><tspan class="cls-3" x="307.7021" y="0">h</tspan><tspan x="324.3818" y="0">e</tspan><tspan class="cls-5" x="341.3311" y="0">r</tspan><tspan class="cls-6" x="349.8506" y="0">e</tspan><tspan x="366.6504" y="0">, </tspan><tspan class="cls-3" x="381.9795" y="0">n</tspan><tspan x="398.6289" y="0">orth </tspan><tspan class="cls-5" x="461.5967" y="0">f</tspan><tspan x="469.3066" y="0">aci</tspan><tspan class="cls-3" x="511.1855" y="0">n</tspan><tspan x="527.835" y="0">g slop</tspan><tspan class="cls-6" x="612.2529" y="0">e</tspan><tspan x="629.0527" y="0">s </tspan><tspan class="cls-5" x="651.6416" y="0">r</tspan><tspan x="660.1611" y="0">ece</tspan><tspan class="cls-7" x="709.8994" y="0">i</tspan><tspan class="cls-8" x="717.2783" y="0">v</tspan><tspan x="731.8887" y="0">e l</tspan><tspan class="cls-7" x="765.9678" y="0">e</tspan><tspan x="782.7666" y="0">ss </tspan><tspan x="33.8086" y="36">sun a</tspan><tspan class="cls-3" x="109.1069" y="36">n</tspan><tspan x="125.7563" y="36">d a</tspan><tspan class="cls-5" x="173.1255" y="36">r</tspan><tspan x="181.6455" y="36">e </tspan><tspan class="cls-9" x="208.9448" y="36">o</tspan><tspan class="cls-10" x="226.6152" y="36">f</tspan><tspan class="cls-5" x="234.9248" y="36">t</tspan><tspan x="242.6348" y="36">en cooler a</tspan><tspan class="cls-3" x="400.7002" y="36">n</tspan><tspan x="417.3496" y="36">d</tspan><tspan class="cls-11" x="435.8594" y="36"> </tspan><tspan class="cls-3" x="445.9697" y="36">w</tspan><tspan class="cls-12" x="469.3994" y="36">e</tspan><tspan x="485.959" y="36">t</tspan><tspan class="cls-5" x="494.2686" y="36">t</tspan><tspan x="501.9785" y="36">er; </tspan><tspan class="cls-13" x="543.4063" y="36">s</tspan><tspan x="555.5557" y="36">out</tspan><tspan class="cls-14" x="599.0244" y="36">h</tspan><tspan class="cls-3" x="615.4951" y="36">-</tspan><tspan class="cls-5" x="627.5547" y="36">f</tspan><tspan x="635.2646" y="36">aci</tspan><tspan class="cls-3" x="677.1436" y="36">n</tspan><tspan x="693.793" y="36">g slop</tspan><tspan class="cls-6" x="778.2109" y="36">e</tspan><tspan x="795.0107" y="36">s </tspan><tspan class="cls-5" x="119.729" y="72">r</tspan><tspan x="128.249" y="72">ece</tspan><tspan class="cls-15" x="177.9883" y="72">i</tspan><tspan class="cls-4" x="185.3682" y="72">v</tspan><tspan x="199.9785" y="72">e </tspan><tspan class="cls-3" x="227.2778" y="72">m</tspan><tspan x="253.0479" y="72">o</tspan><tspan class="cls-5" x="271.1074" y="72">r</tspan><tspan x="279.627" y="72">e sun a</tspan><tspan class="cls-3" x="382.2236" y="72">n</tspan><tspan x="398.873" y="72">d a</tspan><tspan class="cls-5" x="446.2422" y="72">r</tspan><tspan x="454.7617" y="72">e </tspan><tspan class="cls-12" x="482.0605" y="72">o</tspan><tspan x="499.7305" y="72">f</tspan><tspan class="cls-5" x="508.04" y="72">t</tspan><tspan x="515.75" y="72">en,</tspan><tspan class="cls-11" x="554.7783" y="72"> </tspan><tspan class="cls-3" x="564.8887" y="72">w</tspan><tspan x="588.3184" y="72">ar</tspan><tspan class="cls-3" x="615.9473" y="72">m</tspan><tspan x="641.7168" y="72">er a</tspan><tspan class="cls-3" x="696.6445" y="72">n</tspan><tspan x="713.2939" y="72">d drie</tspan><tspan class="cls-16" x="794.2607" y="72">r</tspan><tspan x="802.54" y="72">.</tspan></text><text class="cls-17" transform="translate(39.4287 61.4557)"><tspan class="cls-18">t</tspan><tspan x="17.085" y="0">opog</tspan><tspan class="cls-18" x="168.6602" y="0">r</tspan><tspan class="cls-19" x="187.2412" y="0">ap</tspan><tspan class="cls-20" x="264.1807" y="0">h</tspan><tspan class="cls-21" x="299.2207" y="0">y</tspan></text><g class="cls-22"><path class="cls-23" d="M874.3239,229.4888a11.0655,11.0655,0,1,1,11.444-11.0592A11.2569,11.2569,0,0,1,874.3239,229.4888Z" transform="translate(3.0102)"/><polygon class="cls-23" points="875.717 205.457 877.671 202.186 879.625 205.457 875.717 205.457"/><polygon class="cls-23" points="868.135 208.853 867.727 205.097 871.297 206.633 868.135 208.853"/><polygon class="cls-23" points="864.066 215.907 861.451 213.1 865.274 212.315 864.066 215.907"/><polygon class="cls-23" points="865.066 223.925 861.243 223.139 863.858 220.332 865.066 223.925"/><polygon class="cls-23" points="870.751 229.843 867.18 231.379 867.589 227.623 870.751 229.843"/><polygon class="cls-23" points="878.951 231.402 876.996 234.673 875.042 231.403 878.951 231.402"/><polygon class="cls-23" points="886.533 228.006 886.941 231.763 883.371 230.227 886.533 228.006"/><polygon class="cls-23" points="890.601 220.952 893.216 223.76 889.393 224.545 890.601 220.952"/><polygon class="cls-23" points="889.602 212.935 893.425 213.721 890.81 216.527 889.602 212.935"/><polygon class="cls-23" points="883.916 207.016 887.488 205.48 887.079 209.236 883.916 207.016"/><polygon class="cls-24" points="1163.446 197.428 1241.721 297.015 1163.446 315.881 1080.338 295.865 1163.446 197.428"/><polygon class="cls-25" points="1163.446 197.428 1163.446 315.881 1080.338 295.865 1163.446 197.428"/><polygon class="cls-26" points="1194.396 236.45 1183.28 234.522 1178.261 240.714 1168.222 238.392 1163.446 246.26 1163.446 197.072 1194.396 236.45"/><polygon class="cls-27" points="1129.807 236.916 1143.611 234.522 1148.631 240.714 1158.67 238.392 1163.446 246.26 1163.446 197.072 1129.807 236.916"/><path class="cls-28" d="M903.4532,227.4434c49.817,13.0471,51.7295,11.8515,51.7295,11.8515l-6.7168-10.0321" transform="translate(3.0102)"/><line class="cls-28" x1="948.6307" y1="245.273" x2="958.1929" y2="239.2949"/><polygon class="cls-29" points="985.068 242.536 906.793 342.124 985.068 360.99 1068.176 340.974 985.068 242.536"/><polygon class="cls-30" points="985.068 242.536 985.068 360.99 1068.176 340.974 985.068 242.536"/><polygon class="cls-26" points="954.118 281.558 965.234 279.631 970.253 285.822 980.292 283.5 985.068 291.369 985.068 242.181 954.118 281.558"/><polygon class="cls-27" points="1018.707 282.025 1004.903 279.631 999.883 285.822 989.844 283.5 985.068 291.369 985.068 242.181 1018.707 282.025"/><path class="cls-28" d="M889.9892,241.4467c34.4921,37.1038,36.77,37.1038,36.77,37.1038V266.6018" transform="translate(3.0102)"/><line class="cls-28" x1="918.3804" y1="278.5505" x2="929.7693" y2="278.5505"/><text class="cls-31" transform="translate(1000.083 185.877) scale(1.0349 1)">aspect</text><line class="cls-32" x1="973.7059" y1="205.8637" x2="1098.1773" y2="205.8637"/><text x="3.0102"/><path class="cls-33" d="M6.5859,344.2777c4.4749.2478,8.9683.4868,13.4494.2932,5.3338-.23,10.6353-1.0426,15.98-1.082a741.01,741.01,0,0,1,119.82,8.86q21.9492,3.4323,43.62,8.1817c27.0212,5.9247,53.887,13.4664,78.0947,25.94,58.48,30.1336,95.7892,85.7068,149.46,122.57,36.7456,25.2379,80.0645,40.97,122.8068,56.4122l185.8142,67.13c80.7706,29.1806,161.8611,58.4321,245.7139,78.8281h306.9739a62.0514,62.0514,0,0,1,12.81,1.3326,893.0917,893.0917,0,0,0-4.3182-118.73c-.6154-5.9484-1.4209-12.2122-5.3158-17.01-6.7418-8.3045-19.7646-9.118-31.0757-9.1813l-76.1319-.4256c-123.1408-.6886-247.9052-1.57-366.777-30.967-113.48-28.0638-219.1387-82.1636-304.6055-155.9647-53.12-45.869-99.5289-99.8663-162.796-133.2823-42.0685-22.22-89.683-33.9083-137.6823-39.09-12.0624-1.3022-24.1407-1.9677-36.2468-2.7773-11.33-.7578-22.0488-4.2916-33.37-6.003-24.3573-3.6819-49.181-3.3258-73.7809-2.9641-21.5321.3166-43.1924.4579-64.7275.4579,0,37.4393-.4872,74.9494-.4872,112.4352,0,8.4371-.43,16.8626-.43,25.3011q0,3.2358,0,6.4714C3.3826,343.6072,3.57,344.111,6.5859,344.2777Z" transform="translate(3.0102)"/><path class="cls-34" d="M6.5176,172.7235c3.4446,9.5342.9074,22.6325.9074,32.7,45.3732,0,90.1549-7.1777,135.048,1.9018,25.4295,5.143,52.721,4.7943,78.6824,9.22,53.2951,9.0856,104.6865,27.3616,148.43,56.9765a458.4394,458.4394,0,0,1,65.8831,54.73c17.5706,17.46,34.6058,35.3874,53.04,52.104,82.3176,74.65,184.6895,129.5934,294.8023,162.351,24.4065,7.2607,46.3524,9.1885,66.9307,23.7954,25.475,18.0827,58.09,25.2126,89.8876,30.14,15.9872,2.4773,29.1108,10.8949,44.9154,13.7145,3.2328.5768,6.511.9084,9.7847,1.2393l10.1232,1.0235c24.1753,2.444,47.5789-2.7594,71.5042-1.2351,28.8259,1.8366,55.64,13.1379,85.0627,12.7553,31.619-.4114,62.0569-11.2306,93.825-5.5223,10.8038,1.9413,33.3323,8.8626,42.9062.8968,5.8313-4.8519,4.5446-17.3725,5.2554-24.1913,1.186-11.3787,1.3025-25.5572-6.4635-35.2188-3.5969-4.4749-6.3894-5.3288-10.2281-7.07-4.46-2.0232-11.3678-.8651-15.8678-.7863-10.8928.1905-21.7341-.609-32.58-.6595-85.52-.3982-171.0017-1.9194-256.3355-7.43-50.7952-3.28-101.5122-9.0509-151.1074-19.7947a781.66,781.66,0,0,1-152.125-49.2507c-25.2558-11.2344-49.21-24.4223-72.5785-38.6286C575.4327,417.7693,542.5058,399.47,514.61,377.23c-9.7887-7.8037-18.0543-17.0291-26.6548-25.88-12.5646-12.93-23.4024-27.1467-35.4228-40.4838-14.4817-16.0682-31.9674-29.0194-48.0878-43.6172-26.9845-24.4358-55.0217-44.7734-90.1787-58.5866-34.44-13.5316-71.2811-21.1-108.12-26.8152-35.0275-5.434-70.2189-9.827-105.71-11.7025-11.4365-.6043-22.6229.7689-34.03,1.1108C46.8544,171.8421,25.7842,170.2611,6.5176,172.7235Z" transform="translate(3.0102)"/><path class="cls-35" d="M1288.3181,711.411a62.5187,62.5187,0,0,1,10.2429.8509c.0346-2.5667.0619-4.3274.066-4.7984.3093-38.9329.7636-77.9188.7636-116.7971,0-37.3351,1.8613-40.5536-40.6045-40.706-39.4984-.1418-79-.5565-118.4771-1.8258-114.1135-3.669-225.0236-.098-335.6963-29.9266C704.0782,491.1119,604.2321,447.512,525.462,383.5839c-64.6824-52.4958-109.5829-125.6531-186.3261-165.5-20.5359-10.6627-42.581-18.2848-64.8741-24.739-86.2562-24.9724-177.309-23.5929-267.2639-23.5929,0,112.8677-1.7087,225.2258-1.7087,338.0439V629.3993c0,26.64-1.8847,54.5612-1.8706,82.0117Z" transform="translate(3.0102)"/><path class="cls-36" d="M1.5949,448.9951V715.6613H1288.3181a61.4974,61.4974,0,0,1,12.7168,1.3252c1.956-8.3364,3.5754-14.8014,3.9549-16.3064-8.4263,4.3586-18.5547,4.5752-28.2168,4.68l-66.0981.7138c-36.1353.39-71.9454-.6222-107.9686-3.0369-13.4115-.899-26.9288-1.8008-40.0318-4.7511-12.4631-2.806-24.4976-7.2669-37.1394-9.5153q-14.8187-2.6355-29.4692-6.0034c-81.1383-18.7531-152.8206-60.909-223.8483-100.059-30.3154-16.71-65.6743-25.7346-98.6536-37.7192C535.2241,494.7162,452.18,373.1661,320.7113,313.275,222.0065,268.31,107.0575,273.9255-3.01,273.9255-3.01,328.9922,1.51,383.3,1.587,438.0588Q1.5947,443.5269,1.5949,448.9951Z" transform="translate(3.0102)"/><text class="cls-37" transform="translate(1078.5215 690.96) scale(1.0349 1)"><tspan class="cls-38">t</tspan><tspan x="7.2002" y="0">oeslope</tspan></text><text class="cls-37" transform="translate(781.666 677.6714) scale(1.0349 1)"><tspan class="cls-38">f</tspan><tspan x="7.2002" y="0">o</tspan><tspan class="cls-39" x="25.3802" y="0">ot</tspan><tspan x="50.7594" y="0">slope</tspan></text><text class="cls-37" transform="translate(488.0225 557.565) scale(1.0349 1)">backslope</text><text class="cls-37" transform="translate(271.3105 388.9473) scale(1.0349 1)">s<tspan class="cls-38" x="11.8497" y="0">h</tspan><tspan x="28.3197" y="0">oulder</tspan></text><text class="cls-37" transform="translate(101.4795 325.8428) scale(1.0349 1)">summit</text><text class="cls-40" transform="translate(672.5205 336.7803) scale(1.0349 1)">l<tspan class="cls-41" x="5.1836" y="0">ow</tspan><tspan x="37.7763" y="0">e</tspan><tspan class="cls-42" x="51.3841" y="0">s</tspan><tspan x="60.3839" y="0">t infilt</tspan><tspan class="cls-38" x="116.6137" y="0">r</tspan><tspan x="123.094" y="0">ation; </tspan><tspan x="9.5519" y="28.7998">hig</tspan><tspan class="cls-38" x="43.6799" y="28.7998">h</tspan><tspan x="56.8564" y="28.7998">e</tspan><tspan class="cls-42" x="70.4642" y="28.7998">s</tspan><tspan x="79.4641" y="28.7998">t e</tspan><tspan class="cls-38" x="107.7111" y="28.7998">r</tspan><tspan x="114.1913" y="28.7998">osion</tspan><tspan x="34.9311" y="57.6001">a</tspan><tspan class="cls-38" x="49.7392" y="57.6001">n</tspan><tspan x="62.9158" y="57.6001">d ru</tspan><tspan class="cls-42" x="106.7391" y="57.6001">n</tspan><tspan class="cls-41" x="119.9147" y="57.6001">o</tspan><tspan x="134.219" y="57.6001">ff</tspan></text><text class="cls-40" transform="translate(471.0977 235.8843) scale(1.0349 1)">l<tspan class="cls-41" x="5.1836" y="0">o</tspan><tspan class="cls-42" x="19.4878" y="0">w</tspan><tspan x="37.5356" y="0" xml:space="preserve"> infilt</tspan><tspan class="cls-38" x="87.5259" y="0">r</tspan><tspan x="94.0061" y="0">ation; </tspan><tspan class="cls-38" x="-18.8641" y="28.7998">m</tspan><tspan x="1.4165" y="28.7998">ode</tspan><tspan class="cls-42" x="44.3763" y="28.7998">r</tspan><tspan x="50.8556" y="28.7998">a</tspan><tspan class="cls-38" x="65.6638" y="28.7998">t</tspan><tspan x="71.424" y="28.7998">e e</tspan><tspan class="cls-38" x="107.0392" y="28.7998">r</tspan><tspan x="113.5194" y="28.7998">osion </tspan><tspan x="20.3872" y="57.6001">a</tspan><tspan class="cls-38" x="35.1953" y="57.6001">n</tspan><tspan x="48.3719" y="57.6001">d ru</tspan><tspan class="cls-42" x="92.1952" y="57.6001">n</tspan><tspan class="cls-41" x="105.3708" y="57.6001">o</tspan><tspan x="119.675" y="57.6001">ff</tspan></text><path class="cls-29" d="M298.275,498.31l-12.0625,16.3125-.8438-.584,1.81-2.4463a5.9557,5.9557,0,0,1-6.18-.3545c-2.9336-2.0263-3.2158-5.8242-1.12-8.6591a6.43,6.43,0,0,1,8.8554-1.8018,5.5068,5.5068,0,0,1,2.35,5.5342l6.3477-8.585Zm-9.1514,10.6524a5.1057,5.1057,0,0,0-.9551-7.375,5.4317,5.4317,0,0,0-7.4463,1.5742c-1.7793,2.4062-1.5625,5.6054.8867,7.2959A5.4945,5.4945,0,0,0,289.1236,508.9625Z" transform="translate(3.0102)"/><path class="cls-29" d="M293.5953,512.357a5.0308,5.0308,0,0,0,1.2675,7.2519,6.12,6.12,0,0,0,4.835.9668l-.7832,1.0606a6.9148,6.9148,0,0,1-4.64-1.2315c-3.2715-2.2588-3.4541-6.02-1.3575-8.8545a6.454,6.454,0,0,1,8.9034-1.7373c3.0615,2.1143,2.9765,5.9366.8505,8.8116Zm8.7568,4.8457c1.2783-2.29,1.1611-5.0195-1.1191-6.5938a5.2691,5.2691,0,0,0-7.0069.9825Z" transform="translate(3.0102)"/><path class="cls-29" d="M304.8843,519.814a6.5789,6.5789,0,0,1,9.2364-1.539,6.3734,6.3734,0,0,1,2.707,3.8418l-.8135,1.1005a5.7216,5.7216,0,0,0-10.2861-2.82,5.156,5.156,0,0,0,1.23,7.5635,5.9,5.9,0,0,0,4.8633.9258l-.8134,1.1015a6.7791,6.7791,0,0,1-4.6377-1.2314A6.0912,6.0912,0,0,1,304.8843,519.814Z" transform="translate(3.0102)"/><path class="cls-29" d="M324.8277,525.6988l-.6328.8564c-1.792-1.3291-4.292-.4062-5.8,1.6328l-4.2373,5.73-.8438-.582,7.5391-10.1953.8437.582-1.4775,1.999A4.2341,4.2341,0,0,1,324.8277,525.6988Z" transform="translate(3.0102)"/><path class="cls-29" d="M322.6812,532.441a5.03,5.03,0,0,0,1.2676,7.2519,6.13,6.13,0,0,0,4.834.9668L328,541.72a6.9115,6.9115,0,0,1-4.6387-1.2325c-3.2715-2.2587-3.4541-6.0195-1.3574-8.8535a6.4532,6.4532,0,0,1,8.9033-1.7383c3.0605,2.1143,2.9756,5.9366.85,8.8116Zm8.7559,4.8457c1.2793-2.29,1.1611-5.02-1.1182-6.5948a5.2706,5.2706,0,0,0-7.0078.9834Z" transform="translate(3.0102)"/><path class="cls-29" d="M347.8287,541.7671,340.29,551.9625l-.8447-.584,1.8095-2.4473a5.9519,5.9519,0,0,1-6.1787-.3535c-2.9336-2.0264-3.2158-5.8252-1.12-8.66a6.43,6.43,0,0,1,8.8555-1.8007A5.5029,5.5029,0,0,1,345.16,543.65l1.8242-2.4668ZM343.2,546.3013a5.1051,5.1051,0,0,0-.9551-7.375,5.432,5.432,0,0,0-7.4453,1.5752c-1.7793,2.4063-1.5616,5.6055.8857,7.2949A5.4931,5.4931,0,0,0,343.2,546.3013Z" transform="translate(3.0102)"/><path class="cls-29" d="M344.2242,552.4605l1.0556-.1328a3.9009,3.9009,0,0,0,1.5713,3.18,2.6217,2.6217,0,0,0,3.7237-.294c2.1416-2.8955-3.9034-5.7138-1.4043-9.01a3.4011,3.4011,0,0,1,4.7158-.47,4.8967,4.8967,0,0,1,2.0107,3.5752l-.956.1709a3.9623,3.9623,0,0,0-1.6211-2.9365,2.399,2.399,0,0,0-3.3106.209c-2.0234,2.6064,4.0489,5.4756,1.3672,9.0146-1.15,1.5147-3.2568,1.8174-5.1553.5059A4.8167,4.8167,0,0,1,344.2242,552.4605Z" transform="translate(3.0102)"/><path class="cls-29" d="M360.0923,550.2339l.8438.584-7.5391,10.1953-.8437-.5839Zm1.8086-2.8789a.7835.7835,0,0,1,1.0869-.1738.7225.7225,0,0,1,.18,1.0488.7643.7643,0,0,1-1.0849.1748A.711.711,0,0,1,361.9009,547.355Z" transform="translate(3.0102)"/><path class="cls-29" d="M370.03,563.8726l-4.2226,5.709-.8438-.582,4.0713-5.5059c1.99-2.6914,1.6856-4.9961-.3408-6.3965-1.8994-1.3105-4.4658-.9883-6.4561,1.7031l-4.0712,5.5059-.8448-.584,7.5391-10.1953.8447.584-1.3867,1.875a5.0666,5.0666,0,0,1,5.0322.3945C371.5894,557.9263,372.3668,560.7115,370.03,563.8726Z" transform="translate(3.0102)"/><path class="cls-29" d="M378.5669,577.6832c-2.3828,3.2216-5.96,2.97-8.4082,1.2783a8.3275,8.3275,0,0,1-3.0507-3.8926l.7138-.9238a7.4891,7.4891,0,0,0,2.8047,3.97,4.953,4.953,0,0,0,7.2217-1.1436l1.3721-1.8554a5.9709,5.9709,0,0,1-6.2149-.3487c-2.9345-2.0253-3.2168-5.8242-1.1211-8.6591a6.4316,6.4316,0,0,1,8.8565-1.8018,5.5412,5.5412,0,0,1,2.3642,5.5137l1.7881-2.461.8438.5821Zm2.5625-5.1914a5.1059,5.1059,0,0,0-.955-7.375,5.4328,5.4328,0,0,0-7.4463,1.5742c-1.7793,2.4062-1.5606,5.6054.8867,7.2959A5.4944,5.4944,0,0,0,381.1294,572.4918Z" transform="translate(3.0102)"/><path class="cls-29" d="M397.0709,575.7681l.8447.583-7.5391,10.1953-.8447-.583Zm1.81-2.8779a.7816.7816,0,0,1,1.086-.1748.722.722,0,0,1,.1806,1.0488.7652.7652,0,0,1-1.0859.1748A.7092.7092,0,0,1,398.88,572.89Z" transform="translate(3.0102)"/><path class="cls-29" d="M407.01,589.4068l-4.2227,5.71-.8437-.5831,4.0713-5.5048c1.99-2.6924,1.6855-4.9971-.3408-6.3965-1.9-1.3115-4.4659-.9893-6.4561,1.7031L395.147,589.84l-.8447-.583,7.5391-10.1953.8447.583-1.3867,1.8759a5.0642,5.0642,0,0,1,5.0322.3946C408.57,583.4605,409.3472,586.2466,407.01,589.4068Z" transform="translate(3.0102)"/><path class="cls-29" d="M411.9273,601.4273l-.8447-.584,6.9511-9.3994-3.7138-2.5654-6.9512,9.4-.8447-.583,6.9511-9.4-1.33-.918.5879-.7959,1.33.9189,3.3174-4.4853a2.1964,2.1964,0,0,1,3.1055-.5352,2.3812,2.3812,0,0,1,.9443,1.2676l-.6484.876a2.2379,2.2379,0,0,0-.8359-1.2852,1.2665,1.2665,0,0,0-1.7959.3614l-3.2422,4.3837,4.5586,3.1485Zm9.77-12.7822a.7653.7653,0,0,1-1.085.1748.7088.7088,0,0,1-.1816-1.0489.7818.7818,0,0,1,1.0869-.1748A.7226.7226,0,0,1,421.6978,588.6451Z" transform="translate(3.0102)"/><path class="cls-29" d="M427.9156,587.8257l.8437.5821L416.6968,604.72l-.8437-.5821Z" transform="translate(3.0102)"/><path class="cls-29" d="M430.6128,600.1294l-2.1728-1.5009-6.9512,9.4-.8447-.583,6.9512-9.4-1.3516-.9327.5879-.7949,1.3516.9326,2.0205-2.7324.8447.583-2.0205,2.7324,2.1728,1.501Z" transform="translate(3.0102)"/><path class="cls-29" d="M437.4126,603.439l-.6328.8565c-1.791-1.3291-4.291-.4063-5.7988,1.6328l-4.2373,5.7295-.8447-.583,7.539-10.1954.8448.5831-1.4776,1.998A4.2325,4.2325,0,0,1,437.4126,603.439Z" transform="translate(3.0102)"/><path class="cls-29" d="M448.4468,611.2418l-7.539,10.1953-.8448-.5821,1.81-2.4472a5.9541,5.9541,0,0,1-6.1787-.3545c-2.9346-2.0264-3.2168-5.8252-1.1211-8.6592a6.43,6.43,0,0,1,8.8565-1.8018,5.5056,5.5056,0,0,1,2.3486,5.5342l1.8242-2.4668Zm-4.6289,4.5351a5.1054,5.1054,0,0,0-.956-7.375,5.4327,5.4327,0,0,0-7.4453,1.5742c-1.7793,2.4063-1.5616,5.6055.8857,7.2969A5.4963,5.4963,0,0,0,443.8179,615.7769Z" transform="translate(3.0102)"/><path class="cls-29" d="M454.8238,616.8462l-2.1738-1.5009-6.9512,9.4-.8447-.5831,6.9511-9.4-1.3506-.9327.5879-.7949,1.3506.9326,2.02-2.7324.8448.583-2.0206,2.7324,2.1739,1.501Z" transform="translate(3.0102)"/><path class="cls-29" d="M457.86,617.7418l.8447.5839-7.539,10.1953-.8447-.5839Zm1.81-2.878a.7823.7823,0,0,1,1.0859-.1748.722.722,0,0,1,.18,1.0488.7645.7645,0,0,1-1.085.1758A.71.71,0,0,1,459.67,614.8638Z" transform="translate(3.0102)"/><path class="cls-29" d="M458.0962,625.5748a6.624,6.624,0,0,1,9.1788-1.5479,6.13,6.13,0,0,1,1.458,8.8926,6.6293,6.6293,0,0,1-9.1934,1.5683A6.1357,6.1357,0,0,1,458.0962,625.5748Zm9.8077,6.7421a5.1635,5.1635,0,0,0-1.2178-7.4951,5.594,5.594,0,0,0-7.7315,1.3145,5.2378,5.2378,0,0,0,1.1729,7.5556A5.643,5.643,0,0,0,467.9039,632.3169Z" transform="translate(3.0102)"/><path class="cls-29" d="M480.5894,640.2125l-4.2226,5.71-.8438-.583,4.0713-5.5049c1.99-2.6914,1.6865-4.997-.3408-6.3955-1.8994-1.3125-4.4659-.9892-6.4561,1.7022l-4.0713,5.5048-.8437-.582,7.539-10.1953.8438.582-1.3867,1.877a5.0637,5.0637,0,0,1,5.0332.3945C482.149,634.2671,482.9263,637.0523,480.5894,640.2125Z" transform="translate(3.0102)"/><path class="cls-29" d="M481.2232,645.8248l.8652.5976-4.2558,3.8994-.6328-.4365Zm4.7822-7.8477a.8042.8042,0,0,1,1.1006-.1953.7431.7431,0,0,1,.165,1.0693.779.779,0,0,1-1.0849.1748A.7236.7236,0,0,1,486.0054,637.9771Z" transform="translate(3.0102)"/><path class="cls-29" d="M287.0513,536.773l.8438.583-7.5391,10.1953-.8437-.583Zm1.8086-2.8789a.7821.7821,0,0,1,1.086-.1738.7235.7235,0,0,1,.1806,1.0488.7641.7641,0,0,1-1.0849.1738A.7092.7092,0,0,1,288.86,533.8941Z" transform="translate(3.0102)"/><path class="cls-29" d="M296.9888,550.4117l-4.2217,5.709-.8437-.5821,4.0713-5.5058c1.99-2.6914,1.6855-4.9961-.3408-6.3955-1.9-1.3116-4.4659-.9893-6.4561,1.7021l-4.0713,5.5059-.8447-.584,7.5391-10.1953.8447.584-1.3867,1.8759a5.0641,5.0641,0,0,1,5.0322.3946C298.5494,544.4664,299.3257,547.2515,296.9888,550.4117Z" transform="translate(3.0102)"/><path class="cls-29" d="M298.8589,552.6265a6.5778,6.5778,0,0,1,9.2364-1.5381,6.3733,6.3733,0,0,1,2.707,3.8409l-.8145,1.1005a5.51,5.51,0,0,0-2.48-4.1464,5.57,5.57,0,0,0-7.8047,1.3261,5.1572,5.1572,0,0,0,1.2305,7.5645,5.901,5.901,0,0,0,4.8632.9248L304.982,562.8a6.7778,6.7778,0,0,1-4.6367-1.2314A6.0911,6.0911,0,0,1,298.8589,552.6265Z" transform="translate(3.0102)"/><path class="cls-29" d="M318.8023,558.5123l-.6338.8564c-1.792-1.33-4.29-.4062-5.7978,1.6328l-4.2373,5.73-.8448-.583,7.5391-10.1953.8447.583-1.4775,1.999A4.2323,4.2323,0,0,1,318.8023,558.5123Z" transform="translate(3.0102)"/><path class="cls-29" d="M316.6548,565.2535a5.0312,5.0312,0,0,0,1.2686,7.2519,6.1269,6.1269,0,0,0,4.835.9668l-.7842,1.0606a6.916,6.916,0,0,1-4.6387-1.2315c-3.2715-2.26-3.4541-6.02-1.3584-8.8545a6.454,6.454,0,0,1,8.9043-1.7373c3.06,2.1143,2.9746,5.9356.8486,8.8106Zm8.7559,4.8457c1.28-2.29,1.1611-5.02-1.1182-6.5948a5.271,5.271,0,0,0-7.0078.9834Z" transform="translate(3.0102)"/><path class="cls-29" d="M341.8033,574.58l-7.5391,10.1954-.8447-.584,1.81-2.4463a5.9544,5.9544,0,0,1-6.1788-.3545c-2.9335-2.0264-3.2168-5.8252-1.12-8.6592a6.43,6.43,0,0,1,8.8555-1.8017,5.5043,5.5043,0,0,1,2.3486,5.5341l1.8242-2.4677Zm-4.6289,4.5352a5.1051,5.1051,0,0,0-.9561-7.375,5.43,5.43,0,0,0-7.4443,1.5742c-1.7793,2.4063-1.5625,5.6055.8857,7.2949A5.4931,5.4931,0,0,0,337.1744,579.1148Z" transform="translate(3.0102)"/><path class="cls-29" d="M338.1988,585.274l1.0556-.1338a3.8943,3.8943,0,0,0,1.5713,3.18,2.6216,2.6216,0,0,0,3.7237-.294c2.1416-2.8955-3.9043-5.7138-1.4043-9.0088a3.4013,3.4013,0,0,1,4.7158-.4707,4.8967,4.8967,0,0,1,2.0107,3.5752l-.956.1709a3.9672,3.9672,0,0,0-1.6211-2.9365,2.4,2.4,0,0,0-3.3115.209c-2.0235,2.6074,4.05,5.4756,1.3681,9.0146-1.1513,1.5147-3.2568,1.8174-5.1552.5059A4.8161,4.8161,0,0,1,338.1988,585.274Z" transform="translate(3.0102)"/><path class="cls-29" d="M354.0669,583.0464l.8438.584-7.5391,10.1953-.8437-.5839Zm1.8086-2.8779a.7823.7823,0,0,1,1.086-.1748.7236.7236,0,0,1,.1806,1.0488.7643.7643,0,0,1-1.0849.1748A.7093.7093,0,0,1,355.8755,580.1685Z" transform="translate(3.0102)"/><path class="cls-29" d="M364.0035,596.6851l-4.2217,5.709-.8438-.582,4.0713-5.5059c1.99-2.6914,1.6856-4.9961-.3408-6.3965-1.8994-1.3105-4.4658-.9883-6.456,1.7031l-4.0713,5.5059-.8448-.584,7.5391-10.1953.8447.584-1.3867,1.875a5.0666,5.0666,0,0,1,5.0332.3955C365.564,590.74,366.34,593.524,364.0035,596.6851Z" transform="translate(3.0102)"/><path class="cls-29" d="M372.5406,610.4957c-2.3819,3.2216-5.959,2.97-8.4072,1.2793a8.3373,8.3373,0,0,1-3.0518-3.8936l.7148-.9238a7.4891,7.4891,0,0,0,2.8047,3.97,4.9519,4.9519,0,0,0,7.2207-1.1436l1.3721-1.8554a5.9673,5.9673,0,0,1-6.2139-.3487c-2.9345-2.0253-3.2168-5.8242-1.12-8.6582a6.4285,6.4285,0,0,1,8.8555-1.8017,5.5372,5.5372,0,0,1,2.3633,5.5127l1.789-2.461.8438.5821Zm2.5635-5.1914a5.1052,5.1052,0,0,0-.9561-7.375,5.43,5.43,0,0,0-7.4443,1.5742c-1.7793,2.4062-1.5625,5.6054.8857,7.2968A5.4954,5.4954,0,0,0,375.1041,605.3043Z" transform="translate(3.0102)"/><path class="cls-29" d="M386.9625,613.8a5.0319,5.0319,0,0,0,1.27,7.252,6.12,6.12,0,0,0,4.834.9668l-.7842,1.0605a6.9042,6.9042,0,0,1-4.6377-1.2314c-3.2715-2.2588-3.4551-6.02-1.3594-8.8545a6.4546,6.4546,0,0,1,8.9043-1.7363c3.0615,2.1133,2.9756,5.9355.85,8.8105Zm8.7568,4.8457c1.2793-2.29,1.1611-5.0195-1.1182-6.5937a5.27,5.27,0,0,0-7.0078.9824Z" transform="translate(3.0102)"/><path class="cls-29" d="M406.7769,619.2584l-.6338.8564c-1.79-1.33-4.29-.4063-5.7978,1.6328l-4.2373,5.7295-.8448-.583,7.5391-10.1953.8447.583-1.4775,1.999A4.2324,4.2324,0,0,1,406.7769,619.2584Z" transform="translate(3.0102)"/><path class="cls-29" d="M403.9664,625.1724a6.6242,6.6242,0,0,1,9.1787-1.5478,6.13,6.13,0,0,1,1.459,8.8925,6.63,6.63,0,0,1-9.1944,1.5684A6.1373,6.1373,0,0,1,403.9664,625.1724Zm9.8095,6.7422a5.163,5.163,0,0,0-1.2187-7.4951,5.5953,5.5953,0,0,0-7.7315,1.3154,5.2376,5.2376,0,0,0,1.1729,7.5547A5.6441,5.6441,0,0,0,413.7759,631.9146Z" transform="translate(3.0102)"/><path class="cls-29" d="M413.9742,637.5953l1.0547-.1328a3.8977,3.8977,0,0,0,1.5712,3.18,2.6227,2.6227,0,0,0,3.7247-.2939c2.1416-2.8955-3.9043-5.7139-1.4053-9.0088a3.4024,3.4024,0,0,1,4.7168-.4707,4.9,4.9,0,0,1,2.0107,3.5752l-.956.1709a3.9635,3.9635,0,0,0-1.6221-2.9365,2.3989,2.3989,0,0,0-3.31.209c-2.0235,2.6064,4.0488,5.4755,1.3681,9.0146-1.1523,1.5147-3.2568,1.8174-5.1562.5059A4.8128,4.8128,0,0,1,413.9742,637.5953Z" transform="translate(3.0102)"/><path class="cls-29" d="M429.8414,635.3687l.8447.584L423.147,646.148l-.8447-.584Zm1.8095-2.8789a.7818.7818,0,0,1,1.085-.1738.7229.7229,0,0,1,.1816,1.0488.7655.7655,0,0,1-1.0859.1748A.71.71,0,0,1,431.6509,632.49Z" transform="translate(3.0102)"/><path class="cls-29" d="M430.0757,643.2007a6.6242,6.6242,0,0,1,9.1787-1.5478,6.13,6.13,0,0,1,1.459,8.8926,6.63,6.63,0,0,1-9.1943,1.5673A6.1362,6.1362,0,0,1,430.0757,643.2007Zm9.81,6.7422a5.163,5.163,0,0,0-1.2187-7.4951,5.5951,5.5951,0,0,0-7.7315,1.3154,5.2369,5.2369,0,0,0,1.1729,7.5547A5.644,5.644,0,0,0,439.8853,649.9429Z" transform="translate(3.0102)"/><path class="cls-29" d="M452.57,657.8394l-4.2217,5.709-.8438-.582,4.0713-5.5059c1.99-2.6914,1.6856-4.9961-.3408-6.3965-1.9-1.31-4.4658-.9883-6.456,1.7031l-4.0713,5.5059-.8448-.584,7.5391-10.1953.8447.584-1.3867,1.875a5.0668,5.0668,0,0,1,5.0322.3945C454.13,651.8931,454.9068,654.6783,452.57,657.8394Z" transform="translate(3.0102)"/><text class="cls-40" transform="translate(999.709 434.9532) scale(1.0349 1)">ru<tspan class="cls-38" x="20.6155" y="0">n</tspan><tspan class="cls-43" x="33.7921" y="0">o</tspan><tspan x="48.0954" y="0">ff </tspan><tspan class="cls-41" x="68.9742" y="0">w</tspan><tspan x="87.2626" y="0">a</tspan><tspan class="cls-38" x="102.0708" y="0">t</tspan><tspan x="107.831" y="0">er a</tspan><tspan class="cls-38" x="151.6062" y="0">n</tspan><tspan x="164.7827" y="0">d e</tspan><tspan class="cls-42" x="201.5983" y="0">r</tspan><tspan x="208.0776" y="0">oded </tspan><tspan x="-1.6439" y="28.7998">soil accumula</tspan><tspan class="cls-38" x="150.4672" y="28.7998">t</tspan><tspan x="156.2274" y="28.7998">es; hig</tspan><tspan class="cls-42" x="225.4667" y="28.7998">h</tspan><tspan x="238.6423" y="28.7998">e</tspan><tspan class="cls-38" x="252.2501" y="28.7998">s</tspan><tspan x="261.2509" y="28.7998">t </tspan><tspan x="-3.2755" y="57.6001">infilt</tspan><tspan class="cls-38" x="38.3151" y="57.6001">r</tspan><tspan x="44.7953" y="57.6001">ation; poor d</tspan><tspan class="cls-42" x="185.7691" y="57.6001">r</tspan><tspan x="192.2484" y="57.6001">ai</tspan><tspan class="cls-38" x="212.7205" y="57.6001">n</tspan><tspan x="225.897" y="57.6001">age</tspan></text><path class="cls-44" d="M271.1218,457.3072c33.2166,4.3542,61.947,24.3123,86.747,46.1051,23.9306,21.0287,48.8356,42.8276,76.42,60.08,29.7151,18.5852,63.7782,28.7227,92.4994,48.9628,17.0365,12.0057,31.34,30.4717,50.6872,39.1634" transform="translate(3.0102)"/><polygon class="cls-27" points="577.845 653.131 579.745 651.278 579.73 648.625 584.128 653.113 577.845 653.131"/><path class="cls-45" d="M762.99,418.99c5,30-4.473,58.0118-23.4176,80.9819-16.5015,20.0077-42.1782,30.3789-66.4346,37.2774-5.0183,1.4272-10.0744,2.7123-15.1534,3.8975" transform="translate(3.0102)"/><polygon class="cls-46" points="664.348 533.758 663.086 540.645 667.167 546.334 650.852 543.387 664.348 533.758"/><line class="cls-47" x1="1137.709" y1="513.8424" x2="1137.709" y2="641.654"/><polygon class="cls-46" points="1131.196 636.714 1137.709 639.481 1144.222 636.714 1137.709 652.153 1131.196 636.714"/><path class="cls-47" d="M519.6282,201.107c-11.5219-40.0275-62.6157-30.7186-87.6616-8.9633-10.3235,8.9671-18.0826,20.2115-24.8433,31.8849" transform="translate(3.0102)"/><polygon class="cls-46" points="406.908 216.552 411.232 222.153 418.266 222.929 405.028 233.203 406.908 216.552"/><text class="cls-40" transform="translate(87.2803 109.8321) scale(1.0349 1)">infilt<tspan class="cls-38" x="41.5906" y="0">r</tspan><tspan x="48.0708" y="0">a</tspan><tspan class="cls-42" x="62.879" y="0">t</tspan><tspan x="68.6382" y="0">es a</tspan><tspan class="cls-38" x="114.934" y="0">n</tspan><tspan x="128.1105" y="0">d </tspan><tspan x="13.5606" y="28.7998">d</tspan><tspan class="cls-38" x="28.3688" y="28.7998">r</tspan><tspan x="34.849" y="28.7998">ai</tspan><tspan class="cls-48" x="55.3211" y="28.7998">n</tspan><tspan x="69.2167" y="28.7998">s </tspan><tspan class="cls-41" x="87.0965" y="28.7998">w</tspan><tspan x="105.385" y="28.7998">ell</tspan></text><path class="cls-49" d="M283.25,97.28c39.6287,7.4269,29.9986,38.1538,8.2191,53.0129-9.3392,6.3717-21.1027,11.0392-33.2391,15.0912" transform="translate(3.0102)"/><polygon class="cls-46" points="263.288 159.368 262.826 164.825 266.432 168.946 253.508 167.883 263.288 159.368"/></g><rect class="cls-50" x="4" y="0.9898" width="1303" height="713"/></g></g></svg>