<svg xmlns="http://www.w3.org/2000/svg" viewBox="0 0 869.4964 522.433"><defs><style>.cls-1{font-size:26px;fill:#5e5153;}.cls-1,.cls-57{font-family:Acre-Light, Acre;font-weight:300;}.cls-2{letter-spacing:-0.005em;}.cls-3{letter-spacing:-0.015em;}.cls-4,.cls-7{letter-spacing:-0.015em;}.cls-11,.cls-24,.cls-26,.cls-27,.cls-38,.cls-43,.cls-45,.cls-47,.cls-5,.cls-6,.cls-61,.cls-7,.cls-8{font-family:Acre-Bold, Acre;font-weight:700;}.cls-5{letter-spacing:-0.007em;}.cls-8{letter-spacing:-0.017em;}.cls-9{letter-spacing:-0.02em;}.cls-10{letter-spacing:-0.025em;}.cls-11{letter-spacing:-0.03em;}.cls-12{letter-spacing:-0.003em;}.cls-13{letter-spacing:-0.01em;}.cls-14{letter-spacing:-0.008em;}.cls-15{letter-spacing:-0.02em;}.cls-16{letter-spacing:-0.028em;}.cls-17{letter-spacing:-0.013em;}.cls-18{letter-spacing:-0.03em;}.cls-19,.cls-37{fill:#fecf08;stroke:#2e61a1;}.cls-19,.cls-20,.cls-23,.cls-35,.cls-37,.cls-40,.cls-44,.cls-46,.cls-49,.cls-51,.cls-53,.cls-56,.cls-60,.cls-62{stroke-miterlimit:10;}.cls-19,.cls-20{stroke-width:0.7985px;}.cls-20,.cls-46,.cls-57{fill:#f27243;}.cls-20,.cls-46{stroke:#3daaa1;}.cls-21{font-size:22.5852px;font-family:Acre-Semibold, Acre;font-weight:600;}.cls-21,.cls-38,.cls-43,.cls-45,.cls-47,.cls-53,.cls-55,.cls-61{fill:#fff;}.cls-22{letter-spacing:-0.01em;}.cls-23,.cls-35,.cls-40,.cls-44,.cls-48,.cls-51,.cls-54,.cls-62{fill:none;}.cls-23,.cls-40,.cls-44,.cls-53,.cls-54,.cls-55,.cls-62{stroke:#5c5052;}.cls-23{stroke-width:0.4705px;}.cls-24{font-size:31.9403px;}.cls-24,.cls-49,.cls-50,.cls-56{fill:#2b63a3;}.cls-25{letter-spacing:-0.01em;}.cls-26{font-size:34.9753px;}.cls-26,.cls-27,.cls-36{fill:#ffce01;}.cls-27{font-size:34.057px;}.cls-28{font-size:28.7463px;font-family:Acre-Regular, Acre;}.cls-28,.cls-52{fill:#5c5052;}.cls-29{letter-spacing:-0.005em;}.cls-30{letter-spacing:-0.011em;}.cls-31{letter-spacing:-0.021em;}.cls-32{letter-spacing:-0.02em;}.cls-33{letter-spacing:0.005em;}.cls-34{letter-spacing:-0.016em;}.cls-35{stroke:#ffce01;stroke-width:3.0086px;}.cls-37,.cls-46{stroke-width:0.7775px;}.cls-38{font-size:28.9301px;}.cls-39{letter-spacing:-0.01em;}.cls-40{stroke-width:0.2834px;}.cls-41{fill:#5e5252;}.cls-41,.cls-42{opacity:0.4;}.cls-42{fill:#2e61a1;}.cls-43{font-size:10.1654px;}.cls-44{stroke-width:0.2118px;}.cls-45{font-size:10.1655px;}.cls-47{font-size:10.1655px;}.cls-48,.cls-49,.cls-51,.cls-56{stroke:#2b63a3;}.cls-48,.cls-54,.cls-55{stroke-linecap:round;stroke-linejoin:round;}.cls-48,.cls-51{stroke-width:1.1307px;}.cls-49{stroke-width:0.5653px;}.cls-49,.cls-50,.cls-56{opacity:0.17;}.cls-53,.cls-54,.cls-55{stroke-width:0.4152px;}.cls-56{stroke-width:0.7295px;}.cls-57{font-size:40.7239px;}.cls-58{letter-spacing:-0.003em;}.cls-59{fill:#5b5052;}.cls-60{fill:#2e61a2;stroke:#fecf08;stroke-width:0.3722px;}.cls-61{font-size:18.7722px;}.cls-62{stroke-width:0.351px;}</style></defs><g id="Layer_2" data-name="Layer 2"><g id="Layer_20" data-name="Layer 20"><text class="cls-1" transform="translate(3.4963 99.1717)"><tspan class="cls-2">w</tspan><tspan class="cls-3" x="20.5659" y="0">h</tspan><tspan x="35.0225" y="0">en compou</tspan><tspan class="cls-4" x="172.0928" y="0">n</tspan><tspan x="186.5225" y="0">ds (</tspan><tspan class="cls-5" x="228.4077" y="0">s</tspan><tspan class="cls-6" x="239.8999" y="0">olu</tspan><tspan class="cls-7" x="277.1572" y="0">t</tspan><tspan class="cls-8" x="285.7368" y="0">e</tspan><tspan class="cls-6" x="299.7769" y="0">s</tspan><tspan x="311.4507" y="0">) b</tspan><tspan class="cls-9" x="342.728" y="0">r</tspan><tspan x="350.1123" y="0">eak apart a</tspan><tspan class="cls-4" x="490.4565" y="0">n</tspan><tspan x="504.8862" y="0">d a</tspan><tspan class="cls-9" x="545.939" y="0">r</tspan><tspan x="553.3232" y="0">e</tspan><tspan x="0" y="36">sur</tspan><tspan class="cls-9" x="33.3315" y="36">r</tspan><tspan x="40.7158" y="36">ou</tspan><tspan class="cls-4" x="71.1875" y="36">n</tspan><tspan x="85.6172" y="36">ded </tspan><tspan class="cls-4" x="141.3594" y="36">b</tspan><tspan class="cls-10" x="157.0107" y="36">y</tspan><tspan x="169.2046" y="36" xml:space="preserve"> a </tspan><tspan class="cls-5" x="203.1855" y="36">s</tspan><tspan class="cls-6" x="214.6777" y="36">o</tspan><tspan class="cls-7" x="229.9912" y="36">l</tspan><tspan class="cls-11" x="236.5688" y="36">v</tspan><tspan class="cls-6" x="249.4648" y="36">ent</tspan><tspan x="287.8921" y="36">. in </tspan><tspan class="cls-12" x="331.2593" y="36">s</tspan><tspan x="341.7896" y="36">oil, </tspan><tspan class="cls-4" x="383.1284" y="36">m</tspan><tspan x="405.4619" y="36">a</tspan><tspan class="cls-13" x="421.5034" y="36">n</tspan><tspan class="cls-10" x="436.0635" y="36">y</tspan><tspan x="448.2573" y="36" xml:space="preserve"> mi</tspan><tspan class="cls-4" x="486.4766" y="36">n</tspan><tspan x="500.9063" y="36">e</tspan><tspan class="cls-9" x="515.5957" y="36">r</tspan><tspan x="522.98" y="36">als </tspan><tspan class="cls-6" x="564.4751" y="36">dis</tspan><tspan class="cls-5" x="600.0684" y="36">s</tspan><tspan class="cls-6" x="611.5605" y="36">o</tspan><tspan class="cls-7" x="626.874" y="36">l</tspan><tspan class="cls-11" x="633.4517" y="36">v</tspan><tspan class="cls-6" x="646.3477" y="36">e </tspan><tspan x="0" y="72">in</tspan><tspan class="cls-14" x="21.3457" y="72"> </tspan><tspan class="cls-3" x="30.1074" y="72">w</tspan><tspan x="50.4136" y="72">a</tspan><tspan class="cls-15" x="66.4551" y="72">t</tspan><tspan x="73.1367" y="72">e</tspan><tspan class="cls-16" x="87.8262" y="72">r</tspan><tspan x="95.002" y="72">, </tspan><tspan class="cls-3" x="108.2871" y="72">m</tspan><tspan x="130.6211" y="72">aki</tspan><tspan class="cls-4" x="165.6162" y="72">n</tspan><tspan x="180.0459" y="72">g plant nutrien</tspan><tspan class="cls-13" x="354.7622" y="72">t</tspan><tspan x="361.7041" y="72">s a</tspan><tspan class="cls-4" x="397.3232" y="72">v</tspan><tspan x="409.9849" y="72">ailable </tspan><tspan class="cls-9" x="500.0464" y="72">f</tspan><tspan x="506.7285" y="72">or u</tspan><tspan class="cls-17" x="554.0737" y="72">p</tspan><tspan class="cls-9" x="569.752" y="72">t</tspan><tspan x="576.4341" y="72">a</tspan><tspan class="cls-18" x="592.4756" y="72">k</tspan><tspan x="604.123" y="72">e</tspan></text><circle class="cls-19" cx="83.3431" cy="434.3412" r="21.7213"/><circle class="cls-20" cx="145.3035" cy="434.3412" r="21.7213"/><text class="cls-21" transform="translate(133.3967 442.8334)">Cl</text><text class="cls-21" transform="translate(153.1135 435.3124) scale(0.583)">-</text><text class="cls-21" transform="translate(66.4324 442.8334)"><tspan class="cls-22">N</tspan><tspan x="16.3516" y="0">a</tspan></text><text class="cls-21" transform="translate(96.7185 435.3124) scale(0.583)">+</text><line class="cls-23" x1="105.4046" y1="433.9445" x2="123.2421" y2="433.9445"/><text class="cls-24" transform="translate(94.802 253.6302)"><tspan class="cls-25">N</tspan><tspan x="23.0605" y="0">aCl</tspan></text><text class="cls-24" transform="translate(512.3245 252.2894)"><tspan class="cls-25">N</tspan><tspan x="23.0605" y="0">a</tspan></text><text class="cls-24" transform="translate(555.0281 241.6532) scale(0.583)">+</text><text class="cls-24" transform="translate(756.2209 252.2894)">Cl</text><text class="cls-24" transform="translate(784.1042 241.6532) scale(0.583)">-</text><text class="cls-24" transform="translate(294.9582 254.2894)">H</text><text class="cls-24" transform="translate(317.2844 264.9257) scale(0.583)">2</text><text class="cls-24" transform="translate(327.6189 254.2894)">O</text><text class="cls-26" transform="translate(212.9651 444.2738)">+</text><text class="cls-27" transform="translate(642.1555 436.5814)">+</text><text class="cls-28" transform="translate(82.8152 307.7333)"><tspan class="cls-29">s</tspan><tspan x="11.9585" y="0">odium </tspan><tspan x="-39.2373" y="34.4956">chloride </tspan><tspan class="cls-30" x="76.4355" y="34.4956">(</tspan><tspan class="cls-29" x="83.3921" y="34.4956">s</tspan><tspan x="95.3506" y="34.4956">alt)</tspan></text><text class="cls-28" transform="translate(295.6711 302.1444)"><tspan class="cls-31">w</tspan><tspan x="22.9971" y="0">a</tspan><tspan class="cls-32" x="40.7334" y="0">t</tspan><tspan x="48.6099" y="0">er</tspan></text><text class="cls-28" transform="translate(474.1204 299.3456)">f<tspan class="cls-32" x="8.4512" y="0">r</tspan><tspan x="17.0176" y="0">ee io</tspan><tspan class="cls-33" x="84.0244" y="0">n</tspan><tspan x="100.6104" y="0">s dis</tspan><tspan class="cls-29" x="159.8843" y="0">s</tspan><tspan x="171.8428" y="0">o</tspan><tspan class="cls-30" x="189.0615" y="0">l</tspan><tspan class="cls-31" x="195.5005" y="0">v</tspan><tspan x="209.5576" y="0">ed in</tspan><tspan class="cls-34" x="277.2827" y="0"> </tspan><tspan class="cls-31" x="286.5679" y="0">w</tspan><tspan x="309.5649" y="0">a</tspan><tspan class="cls-32" x="327.3013" y="0">t</tspan><tspan x="335.1777" y="0">er</tspan></text><line class="cls-35" x1="383.6085" y1="434.1874" x2="409.0906" y2="434.1874"/><polygon class="cls-36" points="419.712 434.187 404.745 440.303 408.297 434.187 404.745 428.073 419.712 434.187"/><text class="cls-26" transform="translate(216.7415 250.8441)">+</text><text class="cls-26" transform="translate(646.1702 249.8314)">+</text><line class="cls-35" x1="400.5489" y1="240.7574" x2="426.0311" y2="240.7574"/><polygon class="cls-36" points="436.652 240.757 421.686 246.873 425.237 240.757 421.686 234.643 436.652 240.757"/><circle class="cls-37" cx="541.4915" cy="425.8732" r="33.9275"/><text class="cls-38" transform="translate(519.5999 435.3627)"><tspan class="cls-39">N</tspan><tspan x="20.8877" y="0">a</tspan></text><text class="cls-38" transform="translate(558.2791 425.7289) scale(0.583)">+</text><line class="cls-40" x1="542.4017" y1="459.8007" x2="542.4017" y2="470.5429"/><line class="cls-40" x1="544.9652" y1="459.8007" x2="544.9652" y2="470.5429"/><circle class="cls-41" cx="543.7225" cy="480.4227" r="9.7766"/><circle class="cls-42" cx="524.7714" cy="500.6506" r="9.7766"/><text class="cls-43" transform="translate(539.2034 484.0487)">O</text><text class="cls-43" transform="translate(547.5491 480.6634) scale(0.583)">-</text><text class="cls-43" transform="translate(520.4211 504.0184)">H</text><text class="cls-43" transform="translate(527.5266 500.6332) scale(0.583)">+</text><circle class="cls-42" cx="562.5656" cy="500.6506" r="9.7766"/><text class="cls-43" transform="translate(558.2151 504.0184)">H</text><text class="cls-43" transform="translate(565.3206 500.6332) scale(0.583)">+</text><line class="cls-44" x1="536.6893" y1="487.4559" x2="531.0123" y2="493.133"/><line class="cls-44" x1="550.4979" y1="487.4559" x2="556.1749" y2="493.133"/><line class="cls-40" x1="571.3463" y1="441.9298" x2="580.6493" y2="447.3008"/><line class="cls-40" x1="572.628" y1="439.7097" x2="581.931" y2="445.0808"/><circle class="cls-41" cx="589.8659" cy="451.097" r="9.7766"/><circle class="cls-42" cx="597.9082" cy="477.623" r="9.7766"/><text class="cls-45" transform="translate(590.7657 456.8406) rotate(-60.0001)">O</text><text class="cls-45" transform="translate(592.0069 447.9203) rotate(-60.0001) scale(0.583)">-</text><text class="cls-45" transform="translate(598.6701 483.0925) rotate(-60.0001)">H</text><text class="cls-45" transform="translate(599.2911 475.2462) rotate(-60.0001) scale(0.583)">+</text><circle class="cls-42" cx="616.8052" cy="444.8923" r="9.7766"/><text class="cls-45" transform="translate(617.5671 450.3617) rotate(-60.0001)">H</text><text class="cls-45" transform="translate(618.1882 442.5154) rotate(-60.0001) scale(0.583)">+</text><line class="cls-44" x1="592.4402" y1="460.7045" x2="594.5181" y2="468.4595"/><line class="cls-44" x1="599.3445" y1="448.7459" x2="607.0994" y2="446.668"/><line class="cls-40" x1="570.3419" y1="407.9276" x2="579.6449" y2="402.5565"/><line class="cls-40" x1="569.0601" y1="405.7076" x2="578.3631" y2="400.3365"/><circle class="cls-41" cx="587.5407" cy="396.4728" r="9.7766"/><circle class="cls-42" cx="614.5341" cy="402.7709" r="9.7766"/><text class="cls-45" transform="translate(592.9607 398.5919) rotate(-119.9999)">O</text><text class="cls-45" transform="translate(585.8561 393.0569) rotate(-119.9999) scale(0.583)">-</text><text class="cls-45" transform="translate(619.646 404.8726) rotate(-119.9999)">H</text><text class="cls-45" transform="translate(613.1615 400.4117) rotate(-119.9999) scale(0.583)">+</text><circle class="cls-42" cx="595.637" cy="370.0402" r="9.7766"/><text class="cls-45" transform="translate(600.749 372.1419) rotate(-119.9999)">H</text><text class="cls-45" transform="translate(594.2645 367.681) rotate(-119.9999) scale(0.583)">+</text><line class="cls-44" x1="597.1482" y1="399.0471" x2="604.9032" y2="401.125"/><line class="cls-44" x1="590.2439" y1="387.0885" x2="592.3219" y2="379.3336"/><line class="cls-40" x1="540.3929" y1="391.7963" x2="540.3929" y2="381.0542"/><line class="cls-40" x1="537.8295" y1="391.7963" x2="537.8295" y2="381.0542"/><circle class="cls-41" cx="539.0722" cy="371.1743" r="9.7766"/><circle class="cls-42" cx="558.0232" cy="350.9465" r="9.7766"/><text class="cls-43" transform="translate(543.5916 367.5487) rotate(180)">O</text><text class="cls-43" transform="translate(535.2458 370.934) rotate(180) scale(0.583)">-</text><text class="cls-43" transform="translate(562.3738 347.579) rotate(180)">H</text><text class="cls-43" transform="translate(555.2683 350.9642) rotate(180) scale(0.583)">+</text><circle class="cls-42" cx="520.2291" cy="350.9465" r="9.7766"/><text class="cls-43" transform="translate(524.5798 347.579) rotate(180)">H</text><text class="cls-43" transform="translate(517.4744 350.9642) rotate(180) scale(0.583)">+</text><line class="cls-44" x1="546.1054" y1="364.1411" x2="551.7824" y2="358.4641"/><line class="cls-44" x1="532.2968" y1="364.1411" x2="526.6198" y2="358.4641"/><line class="cls-40" x1="511.4484" y1="409.6673" x2="502.1454" y2="404.2962"/><line class="cls-40" x1="510.1666" y1="411.8873" x2="500.8636" y2="406.5162"/><circle class="cls-41" cx="492.9288" cy="400.5001" r="9.7766"/><circle class="cls-42" cx="484.8865" cy="373.974" r="9.7766"/><text class="cls-45" transform="translate(492.0687 394.7909) rotate(119.9999)">O</text><text class="cls-45" transform="translate(490.8275 403.7112) rotate(119.9999) scale(0.583)">-</text><text class="cls-45" transform="translate(484.1647 368.5393) rotate(119.9999)">H</text><text class="cls-45" transform="translate(483.5437 376.3856) rotate(119.9999) scale(0.583)">+</text><circle class="cls-42" cx="465.9894" cy="406.7047" r="9.7766"/><text class="cls-45" transform="translate(465.2676 401.2702) rotate(119.9999)">H</text><text class="cls-45" transform="translate(464.6466 409.1165) rotate(119.9999) scale(0.583)">+</text><line class="cls-44" x1="490.3545" y1="390.8925" x2="488.2765" y2="383.1376"/><line class="cls-44" x1="483.4502" y1="402.8511" x2="475.6952" y2="404.9291"/><line class="cls-40" x1="512.4528" y1="443.6695" x2="503.1498" y2="449.0406"/><line class="cls-40" x1="513.7345" y1="445.8895" x2="504.4315" y2="451.2606"/><circle class="cls-41" cx="495.254" cy="455.1243" r="9.7766"/><circle class="cls-42" cx="468.2606" cy="448.8261" r="9.7766"/><text class="cls-45" transform="translate(489.8739 453.0412) rotate(60.0001)">O</text><text class="cls-45" transform="translate(496.9785 458.5762) rotate(60.0001) scale(0.583)">-</text><text class="cls-45" transform="translate(463.1884 446.7601) rotate(60.0001)">H</text><text class="cls-45" transform="translate(469.6729 451.221) rotate(60.0001) scale(0.583)">+</text><circle class="cls-42" cx="487.1577" cy="481.5568" r="9.7766"/><text class="cls-45" transform="translate(482.0854 479.4908) rotate(60.0001)">H</text><text class="cls-45" transform="translate(488.5698 483.9517) rotate(60.0001) scale(0.583)">+</text><line class="cls-44" x1="485.6464" y1="452.5499" x2="477.8915" y2="450.472"/><line class="cls-44" x1="492.5507" y1="464.5085" x2="490.4728" y2="472.2635"/><circle class="cls-46" cx="761.7561" cy="429.6862" r="23.9767"/><text class="cls-38" transform="translate(745.7625 439.6439)">Cl</text><text class="cls-38" transform="translate(771.0178 430.0101) scale(0.583)">-</text><circle class="cls-41" cx="735.4966" cy="484.8937" r="9.7766"/><circle class="cls-42" cx="736.3995" cy="512.5974" r="9.7766"/><text class="cls-47" transform="translate(734.8887 490.6738) rotate(-45)">O</text><text class="cls-47" transform="translate(738.3964 482.3787) rotate(-45) scale(0.583)">-</text><text class="cls-47" transform="translate(735.7281 518.0753) rotate(-45)">H</text><text class="cls-47" transform="translate(738.3588 510.6572) rotate(-45) scale(0.583)">+</text><circle class="cls-42" cx="763.124" cy="485.8729" r="9.7766"/><text class="cls-47" transform="translate(762.4525 491.3509) rotate(-45)">H</text><text class="cls-47" transform="translate(765.0832 483.9327) rotate(-45) scale(0.583)">+</text><line class="cls-44" x1="735.4966" y1="494.8402" x2="735.4966" y2="502.8687"/><line class="cls-44" x1="745.2608" y1="485.0761" x2="753.2893" y2="485.0761"/><line class="cls-40" x1="763.221" y1="453.6629" x2="763.221" y2="476.1489"/><circle class="cls-41" cx="796.4588" cy="480.0682" r="9.7766"/><circle class="cls-42" cx="820.9023" cy="493.1382" r="9.7766"/><text class="cls-45" transform="matrix(-0.2588, -0.9659, 0.9659, -0.2588, 801.1528, 483.5139)">O</text><text class="cls-45" transform="matrix(-0.1509, -0.5631, 0.5631, -0.1509, 795.7228, 476.3287)">-</text><text class="cls-45" transform="matrix(-0.2588, -0.9659, 0.9659, -0.2588, 825.3038, 496.4875)">H</text><text class="cls-45" transform="matrix(-0.1509, -0.5631, 0.5631, -0.1509, 820.1949, 490.5003)">+</text><circle class="cls-42" cx="811.1204" cy="456.6318" r="9.7766"/><text class="cls-45" transform="matrix(-0.2588, -0.9659, 0.9659, -0.2588, 815.5221, 459.9806)">H</text><text class="cls-45" transform="matrix(-0.1509, -0.5631, 0.5631, -0.1509, 810.4132, 453.9934)">+</text><line class="cls-44" x1="805.0727" y1="485.0415" x2="812.0256" y2="489.0557"/><line class="cls-44" x1="801.4987" y1="471.7034" x2="805.513" y2="464.7505"/><line class="cls-40" x1="783.2742" y1="440.4428" x2="802.7476" y2="451.6858"/><circle class="cls-41" cx="822.7608" cy="424.8607" r="9.7766"/><circle class="cls-42" cx="846.3015" cy="410.227" r="9.7766"/><text class="cls-45" transform="matrix(-0.9659, -0.2588, 0.2588, -0.9659, 828.087, 422.5466)">O</text><text class="cls-45" transform="matrix(-0.5631, -0.1509, 0.1509, -0.5631, 819.1495, 423.6565)">-</text><text class="cls-45" transform="matrix(-0.9659, -0.2588, 0.2588, -0.9659, 851.397, 408.1182)">H</text><text class="cls-45" transform="matrix(-0.5631, -0.1509, 0.1509, -0.5631, 843.6574, 409.5491)">+</text><circle class="cls-42" cx="809.7951" cy="400.4451" r="9.7766"/><text class="cls-45" transform="matrix(-0.9659, -0.2588, 0.2588, -0.9659, 814.8912, 398.3365)">H</text><text class="cls-45" transform="matrix(-0.5631, -0.1509, 0.1509, -0.5631, 807.1516, 399.7674)">+</text><line class="cls-44" x1="831.3747" y1="419.8875" x2="838.3276" y2="415.8732"/><line class="cls-44" x1="818.0366" y1="416.3135" x2="814.0224" y2="409.3607"/><line class="cls-40" x1="781.8519" y1="416.4662" x2="801.3254" y2="405.2232"/><circle class="cls-41" cx="788.1007" cy="374.4787" r="9.7766"/><circle class="cls-42" cx="787.1979" cy="346.775" r="9.7766"/><text class="cls-47" transform="translate(788.757 368.7393) rotate(135)">O</text><text class="cls-47" transform="translate(785.2493 377.0345) rotate(135) scale(0.583)">-</text><text class="cls-47" transform="translate(787.9169 341.3371) rotate(135)">H</text><text class="cls-47" transform="translate(785.2863 348.7552) rotate(135) scale(0.583)">+</text><circle class="cls-42" cx="760.4734" cy="373.4995" r="9.7766"/><text class="cls-47" transform="translate(761.1926 368.0614) rotate(135)">H</text><text class="cls-47" transform="translate(758.5619 375.4796) rotate(135) scale(0.583)">+</text><line class="cls-44" x1="788.1007" y1="364.5322" x2="788.1007" y2="356.5037"/><line class="cls-44" x1="778.3366" y1="374.2964" x2="770.3081" y2="374.2964"/><line class="cls-40" x1="760.3764" y1="405.7096" x2="760.3764" y2="383.2236"/><circle class="cls-41" cx="727.1386" cy="379.3042" r="9.7766"/><circle class="cls-42" cx="702.6951" cy="366.2343" r="9.7766"/><text class="cls-45" transform="matrix(0.2588, 0.9659, -0.9659, 0.2588, 722.4885, 375.8951)">O</text><text class="cls-45" transform="matrix(0.1509, 0.5631, -0.5631, 0.1509, 727.9185, 383.0803)">-</text><text class="cls-45" transform="matrix(0.2588, 0.9659, -0.9659, 0.2588, 698.3377, 362.9214)">H</text><text class="cls-45" transform="matrix(0.1509, 0.5631, -0.5631, 0.1509, 703.4467, 368.9086)">+</text><circle class="cls-42" cx="712.4769" cy="402.7406" r="9.7766"/><text class="cls-45" transform="matrix(0.2588, 0.9659, -0.9659, 0.2588, 708.1198, 399.4276)">H</text><text class="cls-45" transform="matrix(0.1509, 0.5631, -0.5631, 0.1509, 713.2287, 405.4149)">+</text><line class="cls-44" x1="718.5247" y1="374.331" x2="711.5718" y2="370.3167"/><line class="cls-44" x1="722.0986" y1="387.6691" x2="718.0844" y2="394.622"/><line class="cls-40" x1="740.3231" y1="418.9296" x2="720.8497" y2="407.6866"/><circle class="cls-41" cx="700.8365" cy="434.5117" r="9.7766"/><circle class="cls-42" cx="677.2959" cy="449.1455" r="9.7766"/><text class="cls-45" transform="matrix(0.9659, 0.2588, -0.2588, 0.9659, 695.5538, 436.8626)">O</text><text class="cls-45" transform="matrix(0.5631, 0.1509, -0.1509, 0.5631, 704.4913, 435.7527)">-</text><text class="cls-45" transform="matrix(0.9659, 0.2588, -0.2588, 0.9659, 672.2434, 451.2909)">H</text><text class="cls-45" transform="matrix(0.5631, 0.1509, -0.1509, 0.5631, 679.9829, 449.86)">+</text><circle class="cls-42" cx="713.8022" cy="458.9273" r="9.7766"/><text class="cls-45" transform="matrix(0.9659, 0.2588, -0.2588, 0.9659, 708.7492, 461.0726)">H</text><text class="cls-45" transform="matrix(0.5631, 0.1509, -0.1509, 0.5631, 716.4888, 459.6417)">+</text><line class="cls-44" x1="692.2226" y1="439.485" x2="685.2697" y2="443.4992"/><line class="cls-44" x1="705.5607" y1="443.0589" x2="709.575" y2="450.0118"/><line class="cls-40" x1="741.7454" y1="442.9063" x2="722.272" y2="454.1493"/><path class="cls-48" d="M778.0806,89.3392c0,6.3178-21.2506,11.4393-47.4644,11.4393s-47.4644-5.1215-47.4644-11.4393l11.5972,84.4239c0,4.7741,16.0583,8.6442,35.8672,8.6442s35.8671-3.87,35.8671-8.6442Z"/><ellipse class="cls-49" cx="730.6162" cy="89.3392" rx="47.4644" ry="11.4393"/><ellipse class="cls-50" cx="730.6162" cy="173.7631" rx="35.8672" ry="8.6443"/><ellipse class="cls-50" cx="730.5747" cy="123.4167" rx="43.097" ry="10.3867"/><ellipse class="cls-51" cx="730.6162" cy="89.3392" rx="47.4644" ry="11.4393"/><path class="cls-50" d="M694.749,173.7631c0,4.7741,16.0583,8.6442,35.8672,8.6442s35.8671-3.87,35.8671-8.6442l7.1884-50.3464c0-5.7364-19.2952-10.3867-43.097-10.3867s-43.097,4.65-43.097,10.3867Z"/><path class="cls-52" d="M783.6837,34.1742s42.3883-19.7126,63.5869-22.4954c5.97-.7838,11.7591,2.1046,13.2129,7.9481A10.9029,10.9029,0,0,1,852.5354,32.84c-.3146.0783-.6294.1392-.9438.1889,0,0-53.5589-.16-61.4368,12.291S785.1259,60.26,771.1226,63.7443c-19.5969,4.8757-26.62-6.86-28.4664-14.281S764.21,35.959,764.21,35.959s11.94-2.8371,19.474-1.7848h0"/><path class="cls-53" d="M784.05,40.1316c-.0067-.0446-.0094-.09-.02-.1337a1.4368,1.4368,0,0,0-.0961-.2648,21.9007,21.9007,0,0,0-7.256-10.4429,16.467,16.467,0,0,1-1.2584-1.0772c-.1849-.0579-.37-.1156-.5582-.1593a7.9616,7.9616,0,0,0-2.3189-.0756l-4.705.3067a8.9379,8.9379,0,0,0-3.17.5981c-1.969.9021-3.1392,3.1575-5.2063,3.8043-1.0022.3136-2.0946.2014-3.1092.4724a22.55,22.55,0,0,0-3.4641,1.7735c-.8838.4108-1.85.6283-2.7191,1.07a5.693,5.693,0,0,0-2.2,2.0737,7.78,7.78,0,0,1-.382,2.1969c-.3026.8288-.84,1.556-1.1438,2.3844-.6937,1.8915-.0848,3.9847.5252,5.9048l.1308.6238c.6846,2.7519,9.507,2.9259,19.7052.3886,9.264-2.3049,16.4752-6.0539,17.2057-8.7843l.2065-.0433C784.1657,40.5406,784.1077,40.3361,784.05,40.1316Z"/><path class="cls-54" d="M769.5677,31.5858a8.4429,8.4429,0,0,1,3.0275,1.83c.2107.1986.428.4663.3525.7458"/><path class="cls-54" d="M753.4778,41.6333a1.3654,1.3654,0,0,0-.8616,1.2058,6.3575,6.3575,0,0,1-.242,1.5495,2.2989,2.2989,0,0,0-.3341.8959"/><path class="cls-54" d="M769.6863,41.08a2.7355,2.7355,0,0,1,2.2105,1.17"/><path class="cls-55" d="M723.6438,70.0645c-.5288.1461-.5779.6719-.4925,1.2139.1033.6553.1255.9684,1.0573,1.214,1.4244.0731,1.3858-1.6071.7621-2.3807a1.1092,1.1092,0,0,0-1.3269-.0472"/><path class="cls-55" d="M738.9641,58.4536c-.215-.4455-.8281-.9742-1.21-.66-.32.2631-.8465.66-.6619,1.1194.2557.6358,1.1475.6247,1.8218.5026.14-.6136.4317-.5767.05-.9618"/><path class="cls-55" d="M735.0084,67.5032c-.4379-.0026-.5177.7943-.3987.9679.2572.3753.3727.6523.8274.67a.8842.8842,0,1,0-.4287-1.6375"/><path class="cls-55" d="M732.1472,112.6366c-.3041.4566.0029.8863.4222,1.24a1.1258,1.1258,0,0,0,1.5939.2258c1.1249-.8769-.004-2.122-.9819-2.2986a1.1093,1.1093,0,0,0-1.0342.8327"/><path class="cls-55" d="M736.1313,93.831c-.4542-.1961-1.2638-.1947-1.3473.2929-.07.4087-.2077,1.0534.2323,1.28.6094.3133,1.2765-.2788,1.7064-.8123-.2955-.5559-.0511-.7186-.5914-.76"/><path class="cls-55" d="M739.0633,103.2621c-.3327.2846.1285.9393.3321.9927.44.1154.7087.2493,1.0637-.0353a.8842.8842,0,1,0-1.3958-.9574"/><path class="cls-55" d="M727.8776,124.0026c.4984-.2294.4623-.7563.2907-1.2774-.2074-.63-.28-.9356-1.2389-1.028-1.4176.1571-1.1091,1.8092-.369,2.4723a1.1093,1.1093,0,0,0,1.3172-.1669"/><path class="cls-55" d="M738.9777,114.9763c-.4541-.1961-1.2637-.1946-1.3472.2929-.07.4087-.2077,1.0534.2323,1.28.6094.3133,1.2764-.2787,1.7063-.8123-.2955-.5559-.0511-.7186-.5914-.76"/><path class="cls-55" d="M730.7241,145.1479c.4984-.2294.4622-.7562.2907-1.2774-.2075-.63-.28-.9356-1.239-1.0279-1.4176.157-1.109,1.8091-.369,2.4722a1.1093,1.1093,0,0,0,1.3173-.1669"/><path class="cls-55" d="M735.3279,136.7433c.4984-.2293.4623-.7562.2907-1.2773-.2074-.63-.28-.9357-1.2389-1.028-1.4176.1571-1.1091,1.8092-.369,2.4722a1.1092,1.1092,0,0,0,1.3172-.1669"/><path class="cls-55" d="M714.6258,137.9278c.2839.4051.9741.8283,1.3008.4569.2739-.3113.7291-.7882.4731-1.2114-.3547-.5863-1.2331-.4319-1.879-.2029-.04.6283-.3332.6387.1051.9574"/><path class="cls-55" d="M717.0734,128.36c.4326-.0679.3832-.8672.2377-1.0194-.3143-.329-.4728-.5838-.9243-.5277a.8842.8842,0,1,0,.6866,1.5471"/><path class="cls-55" d="M732.1006,158.5211c-.0219.5482.464.7551,1.0062.8389.6556.1012.9607.1754,1.4784-.6373.5036-1.3344-1.1086-1.81-2.0353-1.4511a1.1093,1.1093,0,0,0-.4493,1.2495"/><path class="cls-55" d="M725.7087,140.3919c-.49.0691-1.18.4919-.9976.9517.1531.3853.3713,1.0074.8647.9714.6834-.05.9445-.9027,1.0337-1.5821-.5418-.3207-.4178-.5868-.9008-.341"/><path class="cls-55" d="M733.1232,146.9164c-.1359.4163.5987.7351.8.6746.4358-.1307.7348-.1563.89-.5841a.8842.8842,0,1,0-1.69-.09"/><path class="cls-55" d="M740.5846,85.9421a1.0494,1.0494,0,0,0-.9358,1.4123.9647.9647,0,0,0,1.6344.0547c.3116-.5986-.0643-1.6974-.6986-1.467"/><path class="cls-55" d="M730.7189,91.3862a1.0493,1.0493,0,0,0-.9358,1.4122.9646.9646,0,0,0,1.6343.0547c.3117-.5985-.0643-1.6974-.6985-1.4669"/><path class="cls-56" d="M778.0806,89.3392c0,6.3178-21.2506,11.4393-47.4644,11.4393s-47.4644-5.1215-47.4644-11.4393l11.5972,84.4239c0,4.7741,16.0583,8.6442,35.8672,8.6442s35.8671-3.87,35.8671-8.6442Z"/><text class="cls-57" transform="translate(0.0002 34.6151)">dis<tspan class="cls-58" x="51.9619" y="0">s</tspan><tspan x="68.4551" y="0">olution</tspan></text><ellipse class="cls-59" cx="306.9121" cy="419.9296" rx="18.1053" ry="18.0542"/><ellipse class="cls-60" cx="271.8167" cy="457.2839" rx="18.1053" ry="18.0542"/><text class="cls-61" transform="translate(298.5427 426.6244)">O</text><text class="cls-61" transform="translate(313.9983 420.3734) scale(0.5846 0.583)">-</text><text class="cls-61" transform="translate(263.7595 463.5033)">H</text><text class="cls-61" transform="translate(276.9182 457.2523) scale(0.5846 0.583)">+</text><ellipse class="cls-60" cx="341.8077" cy="457.2839" rx="18.1053" ry="18.0542"/><text class="cls-61" transform="translate(334.5491 464.3016)">H</text><text class="cls-61" transform="translate(347.7078 458.0507) scale(0.5846 0.583)">+</text><line class="cls-62" x1="293.8873" y1="432.9177" x2="283.3741" y2="443.4013"/><line class="cls-62" x1="319.4595" y1="432.9177" x2="329.9727" y2="443.4013"/></g></g></svg>