<svg xmlns="http://www.w3.org/2000/svg" viewBox="0 0 976.82 602.86"><defs><style>.cls-1,.cls-22,.cls-39,.cls-44,.cls-46,.cls-48,.cls-49,.cls-55,.cls-57,.cls-63{fill:#fff;}.cls-1,.cls-24,.cls-41,.cls-45,.cls-55,.cls-56,.cls-57,.cls-64{stroke:#5c5052;}.cls-1,.cls-20,.cls-21,.cls-24,.cls-36,.cls-38,.cls-41,.cls-45,.cls-47,.cls-51,.cls-53,.cls-55,.cls-58,.cls-62,.cls-64{stroke-miterlimit:10;}.cls-1{stroke-width:0.82px;}.cls-2{font-size:26px;fill:#5e5153;}.cls-2,.cls-59{font-family:Acre-Light, Acre;font-weight:300;}.cls-3{letter-spacing:0em;}.cls-4{letter-spacing:-0.01em;}.cls-5,.cls-8{letter-spacing:-0.02em;}.cls-12,.cls-25,.cls-27,.cls-28,.cls-39,.cls-44,.cls-46,.cls-48,.cls-49,.cls-6,.cls-63,.cls-7,.cls-8,.cls-9{font-family:Acre-Bold, Acre;font-weight:700;}.cls-6{letter-spacing:-0.01em;}.cls-9{letter-spacing:-0.02em;}.cls-10{letter-spacing:-0.02em;}.cls-11{letter-spacing:-0.02em;}.cls-12{letter-spacing:-0.03em;}.cls-13{letter-spacing:0em;}.cls-14{letter-spacing:-0.01em;}.cls-15{letter-spacing:-0.01em;}.cls-16{letter-spacing:-0.02em;}.cls-17{letter-spacing:-0.03em;}.cls-18{letter-spacing:-0.01em;}.cls-19{letter-spacing:-0.03em;}.cls-20,.cls-38{fill:#fecf08;stroke:#2e61a1;}.cls-20,.cls-21{stroke-width:0.8px;}.cls-21,.cls-47,.cls-59{fill:#f27243;}.cls-21,.cls-47{stroke:#3daaa1;}.cls-22{font-size:22.59px;font-family:Acre-Semibold, Acre;font-weight:600;}.cls-23{letter-spacing:-0.01em;}.cls-24,.cls-36,.cls-41,.cls-45,.cls-50,.cls-53,.cls-56,.cls-64{fill:none;}.cls-24{stroke-width:0.47px;}.cls-25{font-size:31.94px;}.cls-25,.cls-51,.cls-52,.cls-58{fill:#2b63a3;}.cls-26{letter-spacing:-0.01em;}.cls-27{font-size:34.98px;}.cls-27,.cls-28,.cls-37{fill:#ffce01;}.cls-28{font-size:34.06px;}.cls-29{font-size:28.75px;font-family:Acre-Regular, Acre;}.cls-29,.cls-54{fill:#5c5052;}.cls-30{letter-spacing:0em;}.cls-31{letter-spacing:-0.01em;}.cls-32{letter-spacing:-0.02em;}.cls-33{letter-spacing:-0.02em;}.cls-34{letter-spacing:0em;}.cls-35{letter-spacing:-0.02em;}.cls-36{stroke:#ffce01;stroke-width:3.01px;}.cls-38,.cls-47{stroke-width:0.78px;}.cls-39{font-size:28.93px;}.cls-40{letter-spacing:-0.01em;}.cls-41{stroke-width:0.28px;}.cls-42{fill:#5e5252;}.cls-42,.cls-43{opacity:0.4;}.cls-43{fill:#2e61a1;}.cls-44{font-size:10.17px;}.cls-45{stroke-width:0.21px;}.cls-46{font-size:10.17px;}.cls-48{font-size:10.17px;}.cls-49{font-size:10.17px;}.cls-50,.cls-51,.cls-53,.cls-58{stroke:#2b63a3;}.cls-50,.cls-56,.cls-57{stroke-linecap:round;stroke-linejoin:round;}.cls-50,.cls-53{stroke-width:1.13px;}.cls-51{stroke-width:0.57px;}.cls-51,.cls-52,.cls-58{opacity:0.17;}.cls-55,.cls-56,.cls-57{stroke-width:0.42px;}.cls-58{stroke-width:0.73px;}.cls-59{font-size:40.72px;}.cls-60{letter-spacing:0em;}.cls-61{fill:#5b5052;}.cls-62{fill:#2e61a2;stroke:#fecf08;stroke-width:0.37px;}.cls-63{font-size:18.77px;}.cls-64{stroke-width:0.35px;}</style></defs><g id="Layer_2" data-name="Layer 2"><g id="Layer_20" data-name="Layer 20"><rect class="cls-1" x="0.41" y="0.41" width="976" height="602.04"/><text class="cls-2" transform="translate(55.91 135.69)"><tspan class="cls-3">w</tspan><tspan class="cls-4" x="20.57" y="0">h</tspan><tspan x="35.02" y="0">en compou</tspan><tspan class="cls-5" x="172.09" y="0">n</tspan><tspan x="186.52" y="0">ds (</tspan><tspan class="cls-6" x="228.41" y="0">s</tspan><tspan class="cls-7" x="239.9" y="0">olu</tspan><tspan class="cls-8" x="277.16" y="0">t</tspan><tspan class="cls-9" x="285.74" y="0">e</tspan><tspan class="cls-7" x="299.78" y="0">s</tspan><tspan x="311.45" y="0">) b</tspan><tspan class="cls-10" x="342.73" y="0">r</tspan><tspan x="350.11" y="0">eak apart a</tspan><tspan class="cls-5" x="490.46" y="0">n</tspan><tspan x="504.89" y="0">d a</tspan><tspan class="cls-10" x="545.94" y="0">r</tspan><tspan x="553.32" y="0">e</tspan><tspan x="0" y="36">sur</tspan><tspan class="cls-10" x="33.33" y="36">r</tspan><tspan x="40.72" y="36">ou</tspan><tspan class="cls-5" x="71.19" y="36">n</tspan><tspan x="85.62" y="36">ded </tspan><tspan class="cls-5" x="141.36" y="36">b</tspan><tspan class="cls-11" x="157.01" y="36">y</tspan><tspan x="169.2" y="36" xml:space="preserve"> a </tspan><tspan class="cls-6" x="203.19" y="36">s</tspan><tspan class="cls-7" x="214.68" y="36">o</tspan><tspan class="cls-8" x="229.99" y="36">l</tspan><tspan class="cls-12" x="236.57" y="36">v</tspan><tspan class="cls-7" x="249.46" y="36">ent</tspan><tspan x="287.89" y="36">. in </tspan><tspan class="cls-13" x="331.26" y="36">s</tspan><tspan x="341.79" y="36">oil, </tspan><tspan class="cls-5" x="383.13" y="36">m</tspan><tspan x="405.46" y="36">a</tspan><tspan class="cls-14" x="421.5" y="36">n</tspan><tspan class="cls-11" x="436.06" y="36">y</tspan><tspan x="448.26" y="36" xml:space="preserve"> mi</tspan><tspan class="cls-5" x="486.48" y="36">n</tspan><tspan x="500.91" y="36">e</tspan><tspan class="cls-10" x="515.6" y="36">r</tspan><tspan x="522.98" y="36">als </tspan><tspan class="cls-7" x="564.48" y="36">dis</tspan><tspan class="cls-6" x="600.07" y="36">s</tspan><tspan class="cls-7" x="611.56" y="36">o</tspan><tspan class="cls-8" x="626.87" y="36">l</tspan><tspan class="cls-12" x="633.45" y="36">v</tspan><tspan class="cls-7" x="646.35" y="36">e </tspan><tspan x="0" y="72">in</tspan><tspan class="cls-15" x="21.35" y="72"> </tspan><tspan class="cls-4" x="30.11" y="72">w</tspan><tspan x="50.41" y="72">a</tspan><tspan class="cls-16" x="66.46" y="72">t</tspan><tspan x="73.14" y="72">e</tspan><tspan class="cls-17" x="87.83" y="72">r</tspan><tspan x="95" y="72">, </tspan><tspan class="cls-4" x="108.29" y="72">m</tspan><tspan x="130.62" y="72">aki</tspan><tspan class="cls-5" x="165.62" y="72">n</tspan><tspan x="180.05" y="72">g plant nutrien</tspan><tspan class="cls-14" x="354.76" y="72">t</tspan><tspan x="361.7" y="72">s a</tspan><tspan class="cls-5" x="397.32" y="72">v</tspan><tspan x="409.98" y="72">ailable </tspan><tspan class="cls-10" x="500.05" y="72">f</tspan><tspan x="506.73" y="72">or u</tspan><tspan class="cls-18" x="554.07" y="72">p</tspan><tspan class="cls-10" x="569.75" y="72">t</tspan><tspan x="576.43" y="72">a</tspan><tspan class="cls-19" x="592.48" y="72">k</tspan><tspan x="604.12" y="72">e</tspan></text><circle class="cls-20" cx="135.76" cy="470.86" r="21.72"/><circle class="cls-21" cx="197.72" cy="470.86" r="21.72"/><text class="cls-22" transform="translate(185.81 479.35)">Cl</text><text class="cls-22" transform="translate(205.53 471.83) scale(0.58)">-</text><text class="cls-22" transform="translate(118.84 479.35)"><tspan class="cls-23">N</tspan><tspan x="16.35" y="0">a</tspan></text><text class="cls-22" transform="translate(149.13 471.83) scale(0.58)">+</text><line class="cls-24" x1="157.82" y1="470.46" x2="175.65" y2="470.46"/><text class="cls-25" transform="translate(147.21 290.15)"><tspan class="cls-26">N</tspan><tspan x="23.06" y="0">aCl</tspan></text><text class="cls-25" transform="translate(564.74 288.8)"><tspan class="cls-26">N</tspan><tspan x="23.06" y="0">a</tspan></text><text class="cls-25" transform="translate(607.44 278.17) scale(0.58)">+</text><text class="cls-25" transform="translate(808.63 288.8)">Cl</text><text class="cls-25" transform="translate(836.52 278.17) scale(0.58)">-</text><text class="cls-25" transform="translate(347.37 290.8)">H</text><text class="cls-25" transform="translate(369.7 301.44) scale(0.58)">2</text><text class="cls-25" transform="translate(380.03 290.8)">O</text><text class="cls-27" transform="translate(265.38 480.79)">+</text><text class="cls-28" transform="translate(694.57 473.1)">+</text><text class="cls-29" transform="translate(135.23 344.25)"><tspan class="cls-30">s</tspan><tspan x="11.96" y="0">odium </tspan><tspan x="-39.24" y="34.5">chloride </tspan><tspan class="cls-31" x="76.44" y="34.5">(</tspan><tspan class="cls-30" x="83.39" y="34.5">s</tspan><tspan x="95.35" y="34.5">alt)</tspan></text><text class="cls-29" transform="translate(348.08 338.66)"><tspan class="cls-32">w</tspan><tspan x="23" y="0">a</tspan><tspan class="cls-33" x="40.73" y="0">t</tspan><tspan x="48.61" y="0">er</tspan></text><text class="cls-29" transform="translate(526.53 335.86)">f<tspan class="cls-33" x="8.45" y="0">r</tspan><tspan x="17.02" y="0">ee io</tspan><tspan class="cls-34" x="84.02" y="0">n</tspan><tspan x="100.61" y="0">s dis</tspan><tspan class="cls-30" x="159.88" y="0">s</tspan><tspan x="171.84" y="0">o</tspan><tspan class="cls-31" x="189.06" y="0">l</tspan><tspan class="cls-32" x="195.5" y="0">v</tspan><tspan x="209.56" y="0">ed in</tspan><tspan class="cls-35" x="277.28" y="0"> </tspan><tspan class="cls-32" x="286.57" y="0">w</tspan><tspan x="309.56" y="0">a</tspan><tspan class="cls-33" x="327.3" y="0">t</tspan><tspan x="335.18" y="0">er</tspan></text><line class="cls-36" x1="436.02" y1="470.7" x2="461.5" y2="470.7"/><polygon class="cls-37" points="472.13 470.7 457.16 476.82 460.71 470.7 457.16 464.59 472.13 470.7"/><text class="cls-27" transform="translate(269.15 287.36)">+</text><text class="cls-27" transform="translate(698.58 286.35)">+</text><line class="cls-36" x1="452.96" y1="277.27" x2="478.44" y2="277.27"/><polygon class="cls-37" points="489.06 277.27 474.1 283.39 477.65 277.27 474.1 271.16 489.06 277.27"/><circle class="cls-38" cx="593.9" cy="462.39" r="33.93"/><text class="cls-39" transform="translate(572.01 471.88)"><tspan class="cls-40">N</tspan><tspan x="20.89" y="0">a</tspan></text><text class="cls-39" transform="translate(610.69 462.24) scale(0.58)">+</text><line class="cls-41" x1="594.81" y1="496.32" x2="594.81" y2="507.06"/><line class="cls-41" x1="597.38" y1="496.32" x2="597.38" y2="507.06"/><circle class="cls-42" cx="596.14" cy="516.94" r="9.78"/><circle class="cls-43" cx="577.18" cy="537.17" r="9.78"/><text class="cls-44" transform="translate(591.62 520.56)">O</text><text class="cls-44" transform="translate(599.96 517.18) scale(0.58)">-</text><text class="cls-44" transform="translate(572.83 540.53)">H</text><text class="cls-44" transform="translate(579.94 537.15) scale(0.58)">+</text><circle class="cls-43" cx="614.98" cy="537.17" r="9.78"/><text class="cls-44" transform="translate(610.63 540.53)">H</text><text class="cls-44" transform="translate(617.73 537.15) scale(0.58)">+</text><line class="cls-45" x1="589.1" y1="523.97" x2="583.42" y2="529.65"/><line class="cls-45" x1="602.91" y1="523.97" x2="608.59" y2="529.65"/><line class="cls-41" x1="623.76" y1="478.44" x2="633.06" y2="483.82"/><line class="cls-41" x1="625.04" y1="476.22" x2="634.34" y2="481.6"/><circle class="cls-42" cx="642.28" cy="487.61" r="9.78"/><circle class="cls-43" cx="650.32" cy="514.14" r="9.78"/><text class="cls-46" transform="matrix(0.5, -0.87, 0.87, 0.5, 643.16, 493.34)">O</text><text class="cls-46" transform="matrix(0.29, -0.5, 0.5, 0.29, 644.4, 484.42)">-</text><text class="cls-46" transform="matrix(0.5, -0.87, 0.87, 0.5, 651.06, 519.59)">H</text><text class="cls-46" transform="matrix(0.29, -0.5, 0.5, 0.29, 651.68, 511.74)">+</text><circle class="cls-43" cx="669.22" cy="481.41" r="9.78"/><text class="cls-46" transform="matrix(0.5, -0.87, 0.87, 0.5, 669.96, 486.86)">H</text><text class="cls-46" transform="matrix(0.29, -0.5, 0.5, 0.29, 670.58, 479.01)">+</text><line class="cls-45" x1="644.85" y1="497.22" x2="646.93" y2="504.97"/><line class="cls-45" x1="651.76" y1="485.26" x2="659.51" y2="483.18"/><line class="cls-41" x1="622.75" y1="444.44" x2="632.06" y2="439.07"/><line class="cls-41" x1="621.47" y1="442.22" x2="630.78" y2="436.85"/><circle class="cls-42" cx="639.95" cy="432.99" r="9.78"/><circle class="cls-43" cx="666.95" cy="439.29" r="9.78"/><text class="cls-46" transform="matrix(-0.5, -0.87, 0.87, -0.5, 645.35, 435.09)">O</text><text class="cls-46" transform="matrix(-0.29, -0.5, 0.5, -0.29, 638.25, 429.55)">-</text><text class="cls-46" transform="matrix(-0.5, -0.87, 0.87, -0.5, 672.04, 441.37)">H</text><text class="cls-46" transform="matrix(-0.29, -0.5, 0.5, -0.29, 665.55, 436.91)">+</text><circle class="cls-43" cx="648.05" cy="406.56" r="9.78"/><text class="cls-46" transform="matrix(-0.5, -0.87, 0.87, -0.5, 653.14, 408.64)">H</text><text class="cls-46" transform="matrix(-0.29, -0.5, 0.5, -0.29, 646.66, 404.18)">+</text><line class="cls-45" x1="649.56" y1="435.56" x2="657.32" y2="437.64"/><line class="cls-45" x1="642.66" y1="423.6" x2="644.73" y2="415.85"/><line class="cls-41" x1="592.81" y1="428.31" x2="592.81" y2="417.57"/><line class="cls-41" x1="590.24" y1="428.31" x2="590.24" y2="417.57"/><circle class="cls-42" cx="591.48" cy="407.69" r="9.78"/><circle class="cls-43" cx="610.44" cy="387.46" r="9.78"/><text class="cls-44" transform="translate(596 404.06) rotate(180)">O</text><text class="cls-44" transform="translate(587.66 407.45) rotate(180) scale(0.58)">-</text><text class="cls-44" transform="translate(614.79 384.09) rotate(180)">H</text><text class="cls-44" transform="translate(607.68 387.48) rotate(180) scale(0.58)">+</text><circle class="cls-43" cx="572.64" cy="387.46" r="9.78"/><text class="cls-44" transform="translate(576.99 384.09) rotate(180)">H</text><text class="cls-44" transform="translate(569.89 387.48) rotate(180) scale(0.58)">+</text><line class="cls-45" x1="598.52" y1="400.66" x2="604.19" y2="394.98"/><line class="cls-45" x1="584.71" y1="400.66" x2="579.03" y2="394.98"/><line class="cls-41" x1="563.86" y1="446.18" x2="554.56" y2="440.81"/><line class="cls-41" x1="562.58" y1="448.4" x2="553.28" y2="443.03"/><circle class="cls-42" cx="545.34" cy="437.02" r="9.78"/><circle class="cls-43" cx="537.3" cy="410.49" r="9.78"/><text class="cls-46" transform="matrix(-0.5, 0.87, -0.87, -0.5, 544.46, 431.29)">O</text><text class="cls-46" transform="matrix(-0.29, 0.5, -0.5, -0.29, 543.22, 440.21)">-</text><text class="cls-46" transform="matrix(-0.5, 0.87, -0.87, -0.5, 536.56, 405.04)">H</text><text class="cls-46" transform="matrix(-0.29, 0.5, -0.5, -0.29, 535.94, 412.88)">+</text><circle class="cls-43" cx="518.4" cy="443.22" r="9.78"/><text class="cls-46" transform="matrix(-0.5, 0.87, -0.87, -0.5, 517.66, 437.77)">H</text><text class="cls-46" transform="matrix(-0.29, 0.5, -0.5, -0.29, 517.04, 445.61)">+</text><line class="cls-45" x1="542.77" y1="427.41" x2="540.69" y2="419.65"/><line class="cls-45" x1="535.86" y1="439.37" x2="528.11" y2="441.44"/><line class="cls-41" x1="564.87" y1="480.18" x2="555.56" y2="485.56"/><line class="cls-41" x1="566.15" y1="482.4" x2="556.84" y2="487.78"/><circle class="cls-42" cx="547.67" cy="491.64" r="9.78"/><circle class="cls-43" cx="520.67" cy="485.34" r="9.78"/><text class="cls-46" transform="matrix(0.5, 0.87, -0.87, 0.5, 542.27, 489.54)">O</text><text class="cls-46" transform="matrix(0.29, 0.5, -0.5, 0.29, 549.37, 495.07)">-</text><text class="cls-46" transform="matrix(0.5, 0.87, -0.87, 0.5, 515.58, 483.26)">H</text><text class="cls-46" transform="matrix(0.29, 0.5, -0.5, 0.29, 522.07, 487.72)">+</text><circle class="cls-43" cx="539.57" cy="518.07" r="9.78"/><text class="cls-46" transform="matrix(0.5, 0.87, -0.87, 0.5, 534.48, 515.99)">H</text><text class="cls-46" transform="matrix(0.29, 0.5, -0.5, 0.29, 540.96, 520.45)">+</text><line class="cls-45" x1="538.06" y1="489.06" x2="530.3" y2="486.99"/><line class="cls-45" x1="544.96" y1="501.02" x2="542.89" y2="508.78"/><circle class="cls-47" cx="814.17" cy="466.2" r="23.98"/><text class="cls-39" transform="translate(798.18 476.16)">Cl</text><text class="cls-39" transform="translate(823.43 466.53) scale(0.58)">-</text><circle class="cls-42" cx="787.91" cy="521.41" r="9.78"/><circle class="cls-43" cx="788.81" cy="549.11" r="9.78"/><text class="cls-48" transform="translate(787.28 527.17) rotate(-45)">O</text><text class="cls-48" transform="translate(790.78 518.87) rotate(-45) scale(0.58)">-</text><text class="cls-48" transform="translate(788.12 554.57) rotate(-45)">H</text><text class="cls-48" transform="translate(790.75 547.15) rotate(-45) scale(0.58)">+</text><circle class="cls-43" cx="815.54" cy="522.39" r="9.78"/><text class="cls-48" transform="translate(814.84 527.85) rotate(-45)">H</text><text class="cls-48" transform="translate(817.47 520.43) rotate(-45) scale(0.58)">+</text><line class="cls-45" x1="787.91" y1="531.36" x2="787.91" y2="539.38"/><line class="cls-45" x1="797.67" y1="521.59" x2="805.7" y2="521.59"/><line class="cls-41" x1="815.63" y1="490.18" x2="815.63" y2="512.66"/><circle class="cls-42" cx="848.87" cy="516.58" r="9.78"/><circle class="cls-43" cx="873.31" cy="529.65" r="9.78"/><text class="cls-49" transform="matrix(-0.26, -0.97, 0.97, -0.26, 853.54, 520.01)">O</text><text class="cls-49" transform="translate(848.11 512.83) rotate(-105) scale(0.58)">-</text><text class="cls-49" transform="matrix(-0.26, -0.97, 0.97, -0.26, 877.69, 532.98)">H</text><text class="cls-49" transform="translate(872.59 527) rotate(-105) scale(0.58)">+</text><circle class="cls-43" cx="863.53" cy="493.15" r="9.78"/><text class="cls-49" transform="matrix(-0.26, -0.97, 0.97, -0.26, 867.91, 496.48)">H</text><text class="cls-49" transform="translate(862.8 490.49) rotate(-105) scale(0.58)">+</text><line class="cls-45" x1="857.49" y1="521.56" x2="864.44" y2="525.57"/><line class="cls-45" x1="853.91" y1="508.22" x2="857.93" y2="501.27"/><line class="cls-41" x1="835.69" y1="476.96" x2="855.16" y2="488.2"/><circle class="cls-42" cx="875.17" cy="461.38" r="9.78"/><circle class="cls-43" cx="898.71" cy="446.74" r="9.78"/><text class="cls-49" transform="matrix(-0.97, -0.26, 0.26, -0.97, 880.48, 459.04)">O</text><text class="cls-49" transform="translate(871.54 460.15) rotate(-165) scale(0.58)">-</text><text class="cls-49" transform="matrix(-0.97, -0.26, 0.26, -0.97, 903.79, 444.62)">H</text><text class="cls-49" transform="translate(896.05 446.05) rotate(-165) scale(0.58)">+</text><circle class="cls-43" cx="862.21" cy="436.96" r="9.78"/><text class="cls-49" transform="matrix(-0.97, -0.26, 0.26, -0.97, 867.28, 434.83)">H</text><text class="cls-49" transform="translate(859.54 436.26) rotate(-165) scale(0.58)">+</text><line class="cls-45" x1="883.79" y1="456.4" x2="890.74" y2="452.39"/><line class="cls-45" x1="870.45" y1="452.83" x2="866.43" y2="445.88"/><line class="cls-41" x1="834.26" y1="452.98" x2="853.74" y2="441.74"/><circle class="cls-42" cx="840.51" cy="410.99" r="9.78"/><circle class="cls-43" cx="839.61" cy="383.29" r="9.78"/><text class="cls-48" transform="translate(841.15 405.23) rotate(135)">O</text><text class="cls-48" transform="translate(837.64 413.53) rotate(135) scale(0.58)">-</text><text class="cls-48" transform="translate(840.31 377.83) rotate(135)">H</text><text class="cls-48" transform="translate(837.67 385.25) rotate(135) scale(0.58)">+</text><circle class="cls-43" cx="812.89" cy="410.01" r="9.78"/><text class="cls-48" transform="translate(813.58 404.56) rotate(135)">H</text><text class="cls-48" transform="translate(810.95 411.97) rotate(135) scale(0.58)">+</text><line class="cls-45" x1="840.51" y1="401.05" x2="840.51" y2="393.02"/><line class="cls-45" x1="830.75" y1="410.81" x2="822.72" y2="410.81"/><line class="cls-41" x1="812.79" y1="442.22" x2="812.79" y2="419.74"/><circle class="cls-42" cx="779.55" cy="415.82" r="9.78"/><circle class="cls-43" cx="755.11" cy="402.75" r="9.78"/><text class="cls-49" transform="matrix(0.26, 0.97, -0.97, 0.26, 774.88, 412.39)">O</text><text class="cls-49" transform="translate(780.31 419.58) rotate(75) scale(0.58)">-</text><text class="cls-49" transform="matrix(0.26, 0.97, -0.97, 0.26, 750.73, 399.42)">H</text><text class="cls-49" transform="translate(755.84 405.41) rotate(75) scale(0.58)">+</text><circle class="cls-43" cx="764.89" cy="439.26" r="9.78"/><text class="cls-49" transform="matrix(0.26, 0.97, -0.97, 0.26, 760.51, 435.92)">H</text><text class="cls-49" transform="translate(765.62 441.91) rotate(75) scale(0.58)">+</text><line class="cls-45" x1="770.94" y1="410.85" x2="763.98" y2="406.83"/><line class="cls-45" x1="774.51" y1="424.18" x2="770.5" y2="431.14"/><line class="cls-41" x1="792.74" y1="455.44" x2="773.26" y2="444.2"/><circle class="cls-42" cx="753.25" cy="471.03" r="9.78"/><circle class="cls-43" cx="729.71" cy="485.66" r="9.78"/><text class="cls-49" transform="matrix(0.97, 0.26, -0.26, 0.97, 747.95, 473.36)">O</text><text class="cls-49" transform="translate(756.88 472.25) rotate(15) scale(0.58)">-</text><text class="cls-49" transform="matrix(0.97, 0.26, -0.26, 0.97, 724.63, 487.79)">H</text><text class="cls-49" transform="translate(732.37 486.36) rotate(15) scale(0.58)">+</text><circle class="cls-43" cx="766.21" cy="495.44" r="9.78"/><text class="cls-49" transform="matrix(0.97, 0.26, -0.26, 0.97, 761.14, 497.57)">H</text><text class="cls-49" transform="translate(768.88 496.14) rotate(15) scale(0.58)">+</text><line class="cls-45" x1="744.64" y1="476" x2="737.68" y2="480.01"/><line class="cls-45" x1="757.97" y1="479.57" x2="761.99" y2="486.53"/><line class="cls-41" x1="794.16" y1="479.42" x2="774.68" y2="490.66"/><path class="cls-50" d="M830.49,125.85c0,6.32-21.25,11.44-47.46,11.44s-47.47-5.12-47.47-11.44l11.6,84.43c0,4.77,16.06,8.64,35.87,8.64s35.87-3.87,35.87-8.64Z"/><ellipse class="cls-51" cx="783.03" cy="125.85" rx="47.46" ry="11.44"/><ellipse class="cls-52" cx="783.03" cy="210.28" rx="35.87" ry="8.64"/><ellipse class="cls-52" cx="782.99" cy="159.93" rx="43.1" ry="10.39"/><ellipse class="cls-53" cx="783.03" cy="125.85" rx="47.46" ry="11.44"/><path class="cls-52" d="M747.16,210.28c0,4.77,16.06,8.64,35.87,8.64s35.87-3.87,35.87-8.64l7.18-50.35c0-5.73-19.29-10.38-43.09-10.38s-43.1,4.65-43.1,10.38Z"/><path class="cls-54" d="M836.1,70.69S878.48,51,899.68,48.19c6-.78,11.76,2.11,13.22,8A10.9,10.9,0,0,1,905,69.35c-.32.08-.63.14-1,.19,0,0-53.55-.16-61.43,12.29s-5,15-19,18.43c-19.6,4.87-26.62-6.86-28.47-14.28s21.55-13.51,21.55-13.51,11.94-2.83,19.48-1.78h0"/><path class="cls-55" d="M836.46,76.65a.68.68,0,0,0,0-.14,1.14,1.14,0,0,0-.09-.26,21.85,21.85,0,0,0-7.26-10.44c-.42-.35-.87-.7-1.26-1.08a5.15,5.15,0,0,0-.56-.16,7.82,7.82,0,0,0-2.32-.08l-4.7.31a8.92,8.92,0,0,0-3.17.6c-2,.9-3.14,3.16-5.21,3.8-1,.32-2.09.2-3.11.47a23.11,23.11,0,0,0-3.46,1.78c-.88.41-1.85.63-2.72,1.07a5.73,5.73,0,0,0-2.2,2.07,8.12,8.12,0,0,1-.38,2.2c-.3.83-.84,1.55-1.14,2.38-.7,1.89-.09,4,.52,5.91l.13.62c.69,2.75,9.51,2.93,19.71.39,9.26-2.3,16.47-6,17.2-8.78l.21,0C836.58,77.06,836.52,76.85,836.46,76.65Z"/><path class="cls-56" d="M822,68.1a8.64,8.64,0,0,1,3,1.83c.21.2.43.47.35.75"/><path class="cls-56" d="M805.89,78.15a1.37,1.37,0,0,0-.86,1.2,6.6,6.6,0,0,1-.24,1.55,2.26,2.26,0,0,0-.34.9"/><path class="cls-56" d="M822.1,77.59a2.77,2.77,0,0,1,2.21,1.17"/><path class="cls-57" d="M776.06,106.58c-.53.15-.58.67-.5,1.21s.13,1,1.06,1.22c1.43.07,1.39-1.61.76-2.38a1.1,1.1,0,0,0-1.32,0"/><path class="cls-57" d="M791.38,95c-.22-.45-.83-1-1.21-.66s-.85.66-.67,1.12c.26.63,1.15.62,1.83.5.14-.61.43-.58,0-1"/><path class="cls-57" d="M787.42,104c-.44,0-.52.79-.4,1,.26.37.37.65.83.67a.89.89,0,1,0-.43-1.64"/><path class="cls-57" d="M784.56,149.15c-.3.46,0,.89.42,1.24a1.13,1.13,0,0,0,1.6.23c1.12-.88,0-2.12-1-2.3a1.1,1.1,0,0,0-1,.83"/><path class="cls-57" d="M788.54,130.35c-.45-.2-1.26-.2-1.34.29s-.21,1.05.23,1.28c.61.31,1.28-.28,1.71-.81-.3-.56-.06-.72-.6-.76"/><path class="cls-57" d="M791.48,139.78c-.34.28.12.94.33,1,.44.12.71.25,1.06,0a.88.88,0,1,0-1.39-.95"/><path class="cls-57" d="M780.29,160.52c.5-.23.46-.76.29-1.28s-.28-.94-1.24-1c-1.42.16-1.11,1.81-.37,2.47a1.1,1.1,0,0,0,1.32-.16"/><path class="cls-57" d="M791.39,151.49c-.45-.19-1.26-.19-1.35.29s-.2,1.06.24,1.28c.6.32,1.27-.27,1.7-.81-.29-.55-.05-.72-.59-.76"/><path class="cls-57" d="M783.14,181.66c.5-.23.46-.75.29-1.27s-.28-.94-1.24-1c-1.42.15-1.11,1.81-.37,2.47a1.12,1.12,0,0,0,1.32-.17"/><path class="cls-57" d="M787.74,173.26c.5-.23.46-.76.29-1.28s-.28-.93-1.24-1c-1.42.16-1.11,1.81-.37,2.48a1.12,1.12,0,0,0,1.32-.17"/><path class="cls-57" d="M767,174.44c.28.41,1,.83,1.3.46s.73-.79.47-1.21c-.35-.59-1.23-.43-1.88-.2,0,.62-.33.63.11.95"/><path class="cls-57" d="M769.49,164.87c.43-.06.38-.86.23-1-.31-.33-.47-.59-.92-.53a.88.88,0,1,0,.69,1.54"/><path class="cls-57" d="M784.51,195c0,.54.47.75,1,.83s1,.18,1.48-.63c.5-1.34-1.11-1.81-2-1.45a1.12,1.12,0,0,0-.45,1.25"/><path class="cls-57" d="M778.12,176.91c-.49.07-1.18.49-1,1s.37,1,.87,1c.68-.05.94-.9,1-1.58-.54-.32-.42-.59-.9-.34"/><path class="cls-57" d="M785.54,183.43c-.14.42.59.74.8.68.43-.13.73-.16.89-.59a.93.93,0,0,0-.79-1.18.92.92,0,0,0-.9,1.09"/><path class="cls-57" d="M793,122.46a1,1,0,0,0-.94,1.41,1,1,0,0,0,1.64,0c.31-.59-.07-1.69-.7-1.46"/><path class="cls-57" d="M783.13,127.9a1,1,0,0,0-.93,1.41,1,1,0,0,0,1.63.06c.31-.6-.06-1.7-.7-1.47"/><path class="cls-58" d="M830.49,125.85c0,6.32-21.25,11.44-47.46,11.44s-47.47-5.12-47.47-11.44l11.6,84.43c0,4.77,16.06,8.64,35.87,8.64s35.87-3.87,35.87-8.64Z"/><text class="cls-59" transform="translate(52.41 71.13)">dis<tspan class="cls-60" x="51.96" y="0">s</tspan><tspan x="68.46" y="0">olution</tspan></text><ellipse class="cls-61" cx="359.32" cy="456.44" rx="18.11" ry="18.05"/><ellipse class="cls-62" cx="324.23" cy="493.8" rx="18.11" ry="18.05"/><text class="cls-63" transform="translate(350.96 463.14)">O</text><text class="cls-63" transform="translate(366.41 456.89) scale(0.58 0.58)">-</text><text class="cls-63" transform="translate(316.17 500.02)">H</text><text class="cls-63" transform="translate(329.33 493.77) scale(0.58 0.58)">+</text><ellipse class="cls-62" cx="394.22" cy="493.8" rx="18.11" ry="18.05"/><text class="cls-63" transform="translate(386.96 500.82)">H</text><text class="cls-63" transform="translate(400.12 494.57) scale(0.58 0.58)">+</text><line class="cls-64" x1="346.3" y1="469.43" x2="335.79" y2="479.92"/><line class="cls-64" x1="371.87" y1="469.43" x2="382.39" y2="479.92"/></g></g></svg>