<svg xmlns="http://www.w3.org/2000/svg" viewBox="0 0 1020.609 540.5031"><defs><style>.cls-1,.cls-17{font-size:37.2072px;}.cls-1,.cls-28,.cls-29,.cls-33,.cls-34{fill:#2b63a3;}.cls-1,.cls-20,.cls-38,.cls-40,.cls-42,.cls-43,.cls-44,.cls-45,.cls-50,.cls-6,.cls-65,.cls-66,.cls-76{font-family:Acre-Bold, Acre;font-weight:700;}.cls-2{letter-spacing:-0.015em;}.cls-3{letter-spacing:-0.003em;}.cls-4{fill:#e36b44;}.cls-5{font-size:17.4928px;}.cls-17,.cls-20,.cls-36,.cls-47,.cls-48,.cls-5,.cls-50,.cls-76{fill:#fff;}.cls-17,.cls-5{font-family:Acre-Semibold, Acre;font-weight:600;}.cls-6{font-size:43.8009px;}.cls-16,.cls-6{fill:#ffce01;}.cls-7{font-size:29px;}.cls-23,.cls-7{fill:#5c5052;font-family:Acre-Regular, Acre;}.cls-8{letter-spacing:-0.021em;}.cls-9{letter-spacing:-0.02em;}.cls-10{letter-spacing:-0.01em;}.cls-11{letter-spacing:-0.021em;}.cls-12{letter-spacing:-0.02em;}.cls-13{letter-spacing:-0.011em;}.cls-14{letter-spacing:-0.015em;}.cls-15,.cls-18,.cls-22,.cls-27,.cls-30,.cls-35,.cls-41,.cls-77{fill:none;}.cls-15{stroke:#ffce01;stroke-width:3.7678px;}.cls-15,.cls-18,.cls-22,.cls-28,.cls-30,.cls-33,.cls-34,.cls-35,.cls-37,.cls-39,.cls-41,.cls-46,.cls-47,.cls-48,.cls-49,.cls-75,.cls-77{stroke-miterlimit:10;}.cls-18,.cls-22,.cls-41,.cls-77{stroke:#5c5052;}.cls-18{stroke-width:0.3644px;}.cls-19{fill:#5d5152;}.cls-19,.cls-21{opacity:0.4;}.cls-20{font-size:13.0738px;}.cls-21,.cls-49,.cls-75{fill:#2e61a2;}.cls-22{stroke-width:0.2724px;}.cls-23{font-size:10.6148px;}.cls-24,.cls-25,.cls-26,.cls-31,.cls-32{fill:#5e5f5e;}.cls-24,.cls-37,.cls-39{stroke:#fff;}.cls-24,.cls-26,.cls-27,.cls-31,.cls-32{stroke-linecap:round;stroke-linejoin:round;}.cls-24{stroke-width:0.5583px;}.cls-26,.cls-31,.cls-32{stroke:#666667;}.cls-26{stroke-width:0.3968px;}.cls-27,.cls-28,.cls-30,.cls-33,.cls-34,.cls-35{stroke:#2b63a3;}.cls-27,.cls-30{stroke-width:0.9373px;}.cls-28{stroke-width:0.4686px;}.cls-28,.cls-29,.cls-33,.cls-34,.cls-37,.cls-39{opacity:0.17;}.cls-31{stroke-width:0.5069px;}.cls-32{stroke-width:0.2865px;}.cls-33{stroke-width:0.6047px;}.cls-34{stroke-width:0.7858px;}.cls-35{stroke-width:1.2179px;}.cls-37,.cls-38,.cls-39,.cls-40,.cls-42,.cls-43,.cls-44,.cls-45{fill:#3daaa1;}.cls-37{stroke-width:0.7266px;}.cls-38{font-size:17.9906px;}.cls-39{stroke-width:0.2445px;}.cls-40{font-size:7.1898px;}.cls-41{stroke-width:0.1498px;}.cls-42{font-size:7.1898px;}.cls-43{font-size:7.1899px;}.cls-44{font-size:7.1898px;}.cls-45{font-size:7.1898px;}.cls-46{fill:#ec6a7c;}.cls-46,.cls-47,.cls-48{stroke:#ea6b7c;}.cls-46,.cls-47{stroke-width:0.1122px;}.cls-48{stroke-width:0.1814px;}.cls-49,.cls-75{stroke:#fecf08;}.cls-49{stroke-width:0.5767px;}.cls-50{font-size:21.7649px;}.cls-51{font-size:40px;fill:#f27243;}.cls-51,.cls-57{font-family:Acre-Light, Acre;font-weight:300;}.cls-52{letter-spacing:-0.01em;}.cls-53{letter-spacing:-0.015em;}.cls-54{letter-spacing:-0.02em;}.cls-55{letter-spacing:0em;}.cls-56{letter-spacing:-0.005em;}.cls-57{font-size:26px;fill:#5e5153;}.cls-58,.cls-66{letter-spacing:-0.015em;}.cls-59{letter-spacing:-0.003em;}.cls-60{letter-spacing:-0.02em;}.cls-61{letter-spacing:0.007em;}.cls-62{letter-spacing:-0.03em;}.cls-63{letter-spacing:-0.015em;}.cls-64{letter-spacing:-0.008em;}.cls-67{letter-spacing:-0.02em;}.cls-68{letter-spacing:0em;}.cls-69{letter-spacing:-0.005em;}.cls-70{letter-spacing:-0.025em;}.cls-71{letter-spacing:-0.005em;}.cls-72{letter-spacing:-0.047em;}.cls-73{letter-spacing:-0.013em;}.cls-74{letter-spacing:-0.075em;}.cls-75{stroke-width:0.2938px;}.cls-76{font-size:14.8393px;}.cls-77{stroke-width:0.2771px;}.cls-78{fill:#5b5052;}</style></defs><g id="Layer_2" data-name="Layer 2"><g id="Layer_20" data-name="Layer 20"><text class="cls-1" transform="translate(305.0283 289.9488)">H</text><text class="cls-1" transform="translate(331.0361 302.3389) scale(0.583)">2</text><text class="cls-1" transform="translate(343.0752 289.9488)">O</text><text class="cls-1" transform="translate(524.917 267.9488)">Al<tspan class="cls-2" x="34.4902" y="0">(</tspan><tspan class="cls-3" x="44.5361" y="0">O</tspan><tspan x="74.9717" y="0">H)</tspan></text><text class="cls-1" transform="translate(636.5 280.3389) scale(0.583)">3</text><text class="cls-1" transform="translate(797.373 284.9488)"><tspan xml:space="preserve">  </tspan><tspan class="cls-2" x="23.9609" y="0">H</tspan><tspan x="49.4111" y="0">+</tspan></text><circle class="cls-4" cx="147.4106" cy="464.2929" r="16.8237"/><text class="cls-5" transform="translate(134.8174 470.252)">Al</text><text class="cls-5" transform="translate(150.6133 464.4268) scale(0.583)">3+</text><text class="cls-1" transform="translate(113.6123 289.9488)">Al</text><text class="cls-1" transform="translate(148.1025 277.5591) scale(0.583)">3+</text><text class="cls-6" transform="translate(225.8174 290.5137)">+</text><text class="cls-6" transform="translate(714.8174 289.5137)">+</text><text class="cls-6" transform="translate(231.8174 476.9244)">+</text><text class="cls-6" transform="translate(715.1367 472.9244)">+</text><text class="cls-7" transform="translate(76.2568 360.6964)">aluminum</text><text class="cls-7" transform="translate(308.0156 361.6964)"><tspan class="cls-8">w</tspan><tspan x="23.1992" y="0">a</tspan><tspan class="cls-9" x="41.0918" y="0">t</tspan><tspan x="49.0381" y="0">er</tspan></text><text class="cls-7" transform="translate(515.1846 324.5196)">aluminum <tspan class="cls-10" x="1.3916" y="34.7998">h</tspan><tspan class="cls-11" x="17.6895" y="34.7998">y</tspan><tspan x="31.9287" y="34.7998">d</tspan><tspan class="cls-12" x="49.793" y="34.7998">r</tspan><tspan class="cls-13" x="58.4346" y="34.7998">o</tspan><tspan x="75.4873" y="34.7998">xide</tspan></text><text class="cls-7" transform="translate(771.1729 340.92)"><tspan class="cls-10">h</tspan><tspan class="cls-11" x="16.2979" y="0">y</tspan><tspan x="30.5371" y="0">d</tspan><tspan class="cls-12" x="48.4014" y="0">r</tspan><tspan x="57.043" y="0">ogen </tspan><tspan x="-33.8711" y="34.7998">p</tspan><tspan class="cls-12" x="-15.9785" y="34.7998">r</tspan><tspan class="cls-14" x="-7.3369" y="34.7998">o</tspan><tspan class="cls-12" x="9.5996" y="34.7998">t</tspan><tspan x="17.5449" y="34.7998">on — acid!</tspan></text><line class="cls-15" x1="423.528" y1="268.8824" x2="455.4401" y2="268.8824"/><polygon class="cls-16" points="468.741 268.882 449.998 276.541 454.446 268.882 449.998 261.225 468.741 268.882"/><line class="cls-15" x1="422.528" y1="464.2929" x2="454.4401" y2="464.2929"/><polygon class="cls-16" points="467.741 464.293 448.998 471.952 453.446 464.293 448.998 456.636 467.741 464.293"/><circle class="cls-4" cx="554.3136" cy="434.5391" r="40.4563"/><text class="cls-17" transform="translate(529.1885 448.0484)">Al</text><text class="cls-17" transform="translate(562.7861 435.6588) scale(0.583)">3+</text><line class="cls-18" x1="554.3848" y1="475.392" x2="554.3848" y2="489.2076"/><circle class="cls-19" cx="554.1995" cy="501.9141" r="12.5737"/><text class="cls-20" transform="translate(547.4453 506.1065)">O</text><text class="cls-20" transform="translate(558.1787 501.753) scale(0.583)">-</text><circle class="cls-21" cx="578.4338" cy="527.9293" r="12.5737"/><text class="cls-20" transform="translate(572.8379 532.2608)">H</text><text class="cls-20" transform="translate(581.9766 527.9073) scale(0.583)">+</text><line class="cls-22" x1="562.9134" y1="510.9596" x2="570.2146" y2="518.2609"/><line class="cls-18" x1="594.7699" y1="435.4469" x2="608.5855" y2="435.4469"/><circle class="cls-19" cx="621.292" cy="435.6322" r="12.5737"/><text class="cls-20" transform="translate(614.166 439.9683)">O</text><text class="cls-20" transform="translate(624.8994 435.6148) scale(0.583)">-</text><circle class="cls-21" cx="647.3072" cy="411.3979" r="12.5737"/><text class="cls-20" transform="translate(640.8887 415.1446)">H</text><text class="cls-20" transform="translate(650.0273 410.7911) scale(0.583)">+</text><line class="cls-22" x1="630.3375" y1="426.9183" x2="637.6387" y2="419.617"/><text class="cls-23" transform="translate(655.8228 30.4746) rotate(-11.444)">aluminum</text><path class="cls-24" d="M651.2573,49.2381s-4.4133,6.8434,4.4067,19.3a47.4825,47.4825,0,0,1,4.6393,5.06q2.1906-2.8729,4.1562-5.8049l4.161,4.2974a20.3028,20.3028,0,0,0,1.7725-5.9164c2.5952,1.3992,4.92,2.13,6.6561,3.3658,1.403-1.9067,2.1846-4.0787,3.7011-5.9345a5.8433,5.8433,0,0,1,3.6422,4.56l2.1541-5.2975-.0786.054,3.5844,3.5126c1.7069-2.0764,2.0711-4.278,3.4462-6.567,2.2608,1.7756,2.9964,3.6773,4.6393,5.06q2.1906-2.873,4.1562-5.8049l4.161,4.2974a20.3046,20.3046,0,0,0,1.7725-5.9164c3.0151,1.3581,5.1232,1.743,6.6561,3.3658a14.7438,14.7438,0,0,0,3.7011-5.9345c1.1358,1.9574,2.4608,2.9717,3.6422,4.56l2.1541-5.2975c2.2481.6994,3.6039-.7432,6.0163-.82,1.5023-.1389-9.0866-5.6976-5.0132-22.2467"/><path class="cls-25" d="M715.921,21.6517a8.0225,8.0225,0,0,1,3.16,15.7309L646.7189,51.9172l-3.16-15.7308Z"/><circle class="cls-24" cx="645.139" cy="44.0518" r="8.0225"/><path class="cls-26" d="M724.486,61.8564c-.3988.34-.2288.8154.0643,1.25.3543.5255.5.7877,1.4061.6236,1.2628-.5124.55-1.9515-.3025-2.3691a1.06,1.06,0,0,0-1.1679.4954"/><path class="cls-26" d="M717.0249,60.9921c-.3987.34-.2287.8154.0643,1.25.3543.5256.5.7877,1.4061.6237,1.2629-.5125.55-1.9516-.3024-2.3692a1.06,1.06,0,0,0-1.168.4954"/><path class="cls-26" d="M709.9394,64.1508c-.3988.34-.2288.8154.0643,1.25.3543.5255.5.7877,1.4061.6236,1.2628-.5124.55-1.9515-.3025-2.3692a1.06,1.06,0,0,0-1.1679.4955"/><path class="cls-26" d="M730.8746,59.7265c-.3662-.2988-1.1107-.5088-1.3148-.0824-.171.3573-.4658.914-.12,1.2368.4783.447,1.246.0769,1.78-.3013-.1265-.588.1406-.6738-.3452-.8531"/><path class="cls-27" d="M847.3148,55.65c0,5.2371-17.6157,9.4826-39.3458,9.4826s-39.3457-4.2455-39.3457-9.4826l9.6135,69.9834c0,3.9575,13.3116,7.1657,29.7322,7.1657s29.7322-3.2082,29.7322-7.1657Z"/><ellipse class="cls-28" cx="807.969" cy="55.6496" rx="39.3458" ry="9.4826"/><ellipse class="cls-29" cx="807.9347" cy="83.8983" rx="35.7254" ry="8.6101"/><ellipse class="cls-30" cx="807.969" cy="55.6496" rx="39.3458" ry="9.4826"/><path class="cls-29" d="M778.2368,125.633c0,3.9575,13.3116,7.1657,29.7322,7.1657s29.7322-3.2082,29.7322-7.1657L843.66,83.8983c0-4.7553-15.9949-8.61-35.7254-8.61s-35.7254,3.8548-35.7254,8.61Z"/><ellipse class="cls-29" cx="807.969" cy="125.633" rx="29.7322" ry="7.1657"/><path class="cls-31" d="M814.5012,117.4619c.3422.5758.9772.4647,1.5881.19.7386-.3322,1.1-.4591,1.09-1.6354-.3716-1.7012-2.3382-1.1157-3.0488-.1325a1.3546,1.3546,0,0,0,.3708,1.5781"/><path class="cls-32" d="M798.6466,104.6205c-.2294.23-.4308.7631-.1634.9882.2241.1886.5708.5041.8145.2937.3374-.2914.1541-.9367-.0539-1.4056-.4025,0-.4376-.2172-.5972.1237"/><path class="cls-31" d="M807.832,104.9c.1377.5165,1.1018.3544,1.2681.1584.3593-.4236.6485-.6486.5227-1.19A1.08,1.08,0,1,0,807.832,104.9"/><path class="cls-31" d="M804.5253,86.83c-.3713.5575.0035,1.0821.5154,1.5141a1.3746,1.3746,0,0,0,1.946.2757c1.3733-1.0707-.005-2.5908-1.1988-2.8064a1.3545,1.3545,0,0,0-1.2626,1.0166"/><path class="cls-31" d="M826.8488,111.1381c-.5545-.2394-1.5428-.2376-1.6448.3577-.0854.4989-.2535,1.286.2836,1.5622.744.3824,1.5584-.34,2.0832-.9918-.3607-.6786-.0623-.8773-.722-.9281"/><path class="cls-31" d="M810.1591,79.7219c-.4063.3475.1567,1.1468.4054,1.212.5373.1408.8652.3043,1.2986-.0431a1.0795,1.0795,0,1,0-1.704-1.1689"/><path class="cls-31" d="M799.3127,100.7065c.6085-.28.5644-.9232.3549-1.5595-.2532-.7692-.3415-1.1422-1.5125-1.255-1.7307.1918-1.354,2.2088-.45,3.0183a1.3542,1.3542,0,0,0,1.6081-.2038"/><path class="cls-31" d="M812.8644,89.6867c-.5545-.2394-1.5428-.2376-1.6448.3577-.0854.4989-.2535,1.286.2836,1.5621.744.3825,1.5583-.34,2.0832-.9917-.3608-.6787-.0624-.8773-.722-.9281"/><path class="cls-31" d="M797.45,112.91c-.5544-.2394-1.5428-.2376-1.6447.3577-.0855.4989-.2536,1.286.2835,1.5622.744.3824,1.5584-.34,2.0833-.9918-.3608-.6786-.0624-.8773-.7221-.9281"/><path class="cls-31" d="M802.7878,126.522c.6085-.28.5644-.9233.3549-1.5595-.2532-.7693-.3415-1.1423-1.5125-1.255-1.7307.1917-1.354,2.2087-.45,3.0182a1.3542,1.3542,0,0,0,1.6081-.2037"/><path class="cls-31" d="M808.4085,116.2612c.6085-.28.5643-.9233.3549-1.5595-.2532-.7693-.3416-1.1423-1.5126-1.255-1.7307.1917-1.354,2.2088-.4505,3.0182a1.3543,1.3543,0,0,0,1.6082-.2037"/><path class="cls-31" d="M783.1341,117.7073c.3467.4945,1.1892,1.0112,1.5881.5577.3344-.38.89-.9622.5776-1.4789-.433-.7158-1.5055-.5272-2.2939-.2477-.0486.7671-.4069.78.1282,1.1689"/><path class="cls-31" d="M786.1223,106.0257c.5281-.0829.4678-1.0587.29-1.2446-.3837-.4016-.5773-.7127-1.1284-.6441a1.0795,1.0795,0,1,0,.8382,1.8887"/><path class="cls-31" d="M810.82,113.0449c-.0267.6693.5665.922,1.2285,1.0242.8.1235,1.1728.2142,1.8048-.778.6149-1.6292-1.3533-2.2092-2.4848-1.7716a1.3545,1.3545,0,0,0-.5485,1.5254"/><path class="cls-31" d="M796.6648,120.7156c-.598.0843-1.4408.6005-1.2179,1.1618.1869.4705.4533,1.23,1.0556,1.186.8344-.0609,1.1532-1.1021,1.262-1.9315-.6614-.3915-.51-.7165-1.1-.4163"/><path class="cls-31" d="M805.7168,128.6811c-.1659.5082.731.8974.9772.8236.5321-.16.8972-.1908,1.0863-.7131a1.08,1.08,0,1,0-2.0635-.1105"/><path class="cls-31" d="M823.1763,95.98c-.1658.5081.7311.8973.9773.8235.532-.1595.8971-.1908,1.0862-.7131a1.08,1.08,0,1,0-2.0635-.11"/><path class="cls-31" d="M830.8325,101.507a1.281,1.281,0,0,0-1.1424,1.7241,1.1777,1.1777,0,0,0,1.9953.0668c.3805-.7307-.0785-2.0723-.8529-1.7909"/><path class="cls-31" d="M820.241,108.1533a1.2811,1.2811,0,0,0-1.1424,1.7242,1.1777,1.1777,0,0,0,1.9953.0668c.38-.7308-.0785-2.0723-.8529-1.791"/><path class="cls-33" d="M847.3148,55.65c0,5.2371-17.6157,9.4826-39.3458,9.4826s-39.3457-4.2455-39.3457-9.4826l9.6135,69.9834c0,3.9575,13.3116,7.1657,29.7322,7.1657s29.7322-3.2082,29.7322-7.1657Z"/><circle class="cls-34" cx="954.7409" cy="65.868" r="65.2591"/><circle class="cls-35" cx="954.7409" cy="65.868" r="65.2591"/><circle class="cls-36" cx="924.5826" cy="68.5634" r="17.3025"/><circle class="cls-37" cx="924.5826" cy="68.5634" r="17.3025"/><text class="cls-38" transform="translate(911.4302 74.692)">Al</text><text class="cls-38" transform="translate(928.1074 68.701) scale(0.583)">3+</text><circle class="cls-36" cx="962.4008" cy="94.9409" r="6.9148"/><circle class="cls-36" cx="947.7184" cy="107.9322" r="6.9148"/><circle class="cls-36" cx="974.3325" cy="110.4309" r="6.9148"/><circle class="cls-39" cx="962.4008" cy="94.9409" r="6.9148"/><circle class="cls-39" cx="947.7184" cy="107.9322" r="6.9148"/><text class="cls-40" transform="translate(958.9617 97.1863) rotate(5.3633)">O</text><text class="cls-40" transform="translate(965.0624 95.3545) rotate(5.3633) scale(0.583)">-</text><text class="cls-40" transform="translate(944.4155 110.0071) rotate(5.3633)">H</text><text class="cls-40" transform="translate(949.6426 108.0932) rotate(5.3633) scale(0.583)">+</text><circle class="cls-39" cx="974.3325" cy="110.4309" r="6.9148"/><text class="cls-40" transform="translate(971.0293 112.5059) rotate(5.3633)">H</text><text class="cls-40" transform="translate(976.2565 110.592) rotate(5.3633) scale(0.583)">+</text><line class="cls-41" x1="956.9831" y1="99.4286" x2="952.6101" y2="103.0509"/><line class="cls-41" x1="966.7069" y1="100.3415" x2="970.3293" y2="104.7145"/><circle class="cls-36" cx="970.2217" cy="77.3299" r="6.9148"/><circle class="cls-36" cx="989.7858" cy="76.0677" r="6.9148"/><circle class="cls-36" cx="970.2917" cy="57.7774" r="6.9148"/><circle class="cls-39" cx="970.2217" cy="77.3299" r="6.9148"/><circle class="cls-39" cx="989.7858" cy="76.0677" r="6.9148"/><text class="cls-42" transform="matrix(0.9073, -0.4204, 0.4204, 0.9073, 968.2904, 80.8601)">O</text><text class="cls-42" transform="translate(972.6395 76.2058) rotate(-24.8611) scale(0.583)">-</text><text class="cls-43" transform="matrix(0.8622, -0.5067, 0.5067, 0.8622, 988.1542, 79.631)">H</text><text class="cls-43" transform="translate(991.274 75.0201) rotate(-30.4415) scale(0.583)">+</text><circle class="cls-39" cx="970.2917" cy="57.7774" r="6.9148"/><text class="cls-42" transform="matrix(0.9056, -0.424, 0.424, 0.9056, 968.278, 61.1234)">H</text><text class="cls-42" transform="translate(971.8139 56.8238) rotate(-25.09) scale(0.583)">+</text><line class="cls-41" x1="977.2531" y1="77.1058" x2="982.9287" y2="76.925"/><line class="cls-41" x1="970.1307" y1="70.4232" x2="969.9499" y2="64.7477"/><circle class="cls-36" cx="937.9534" cy="28.3183" r="6.9148"/><circle class="cls-36" cx="953.6589" cy="40.0522" r="6.9148"/><circle class="cls-36" cx="950.6934" cy="13.486" r="6.9148"/><circle class="cls-39" cx="937.9534" cy="28.3183" r="6.9148"/><circle class="cls-39" cx="953.6589" cy="40.0522" r="6.9148"/><text class="cls-44" transform="matrix(0.9312, 0.3644, -0.3644, 0.9312, 933.7501, 29.4337)">O</text><text class="cls-44" transform="translate(940.119 29.3549) rotate(21.37) scale(0.583)">-</text><text class="cls-45" transform="matrix(0.9522, 0.3055, -0.3055, 0.9522, 949.931, 41.357)">H</text><text class="cls-45" transform="translate(955.4476 40.6123) rotate(17.787) scale(0.583)">+</text><circle class="cls-39" cx="950.6934" cy="13.486" r="6.9148"/><text class="cls-44" transform="matrix(0.9986, 0.0531, -0.0531, 0.9986, 947.3327, 15.7547)">H</text><text class="cls-44" transform="matrix(0.5822, 0.0309, -0.0309, 0.5822, 952.4781, 13.6304)">+</text><line class="cls-41" x1="943.449" y1="32.7102" x2="947.8849" y2="36.2553"/><line class="cls-41" x1="942.3655" y1="23.0039" x2="945.9105" y2="18.568"/><path class="cls-46" d="M943.7245,93.3835l-1.5011-1.56-2.7757-2.8853a1.9806,1.9806,0,1,1,2.8547-2.7462l2.7756,2.8853,1.5012,1.56,1.7916-1.7236L944.094,84.468a4.4667,4.4667,0,1,0-6.4379,6.1934l4.2768,4.4457Z"/><rect class="cls-47" x="945.3702" y="87.6367" width="2.4861" height="2.4861" transform="translate(1690.4237 -503.3383) rotate(136.1095)"/><rect class="cls-47" x="940.7239" y="92.1064" width="2.4861" height="2.4861" transform="translate(1685.5278 -492.4261) rotate(136.1095)"/><path class="cls-46" d="M955.3085,69.6684l-2.1645-.06-4.0021-.1109a1.9806,1.9806,0,0,1,.11-3.96l4.0021.111,2.1644.06.0689-2.4852-6.1665-.1709a4.4667,4.4667,0,1,0-.2476,8.93l6.1666.171Z"/><rect class="cls-47" x="952.967" y="63.1887" width="2.4861" height="2.4861" transform="translate(1045.0555 -887.6268) rotate(91.5877)"/><rect class="cls-47" x="952.7884" y="69.6335" width="2.4861" height="2.4861" transform="translate(1051.3143 -880.8249) rotate(91.5877)"/><path class="cls-46" d="M940.6257,44.0067l-1.3186,1.7175L936.869,48.9a1.9806,1.9806,0,1,1-3.142-2.4123l2.4382-3.1756,1.3186-1.7175-1.9719-1.5139-3.7568,4.893a4.4667,4.4667,0,1,0,7.0858,5.44l3.7568-4.8931Z"/><rect class="cls-47" x="934.4978" y="40.5804" width="2.4861" height="2.4861" transform="translate(218.996 -561.1998) rotate(37.5159)"/><rect class="cls-47" x="939.6117" y="44.5066" width="2.4861" height="2.4861" transform="translate(222.4447 -563.502) rotate(37.5159)"/><path class="cls-36" d="M949.1781,90.6766a1.93,1.93,0,0,0-.1061.509.4813.4813,0,0,0,.0231.2026c0,.0281.1087.0591.3332.021a1.9885,1.9885,0,0,1,.8758-.0039l.0277.0078a.3752.3752,0,0,1,.2728.3855l-.0554.8479c-.0069.0735-.0032.1128-.0117.0928-.0062-.0273-.0763-.0752-.0791-.0635a3.2007,3.2007,0,0,1,.4352.087,1.02,1.02,0,0,1,.559.9558c.004.3156-.08.6389-.0658.812-.03.0984.26.1833.5124.1365a6.6693,6.6693,0,0,1,.8517-.125.8152.8152,0,0,1,.7781.4091.9677.9677,0,0,0,.1963.3557c.09.07.3137.0594.31-.1032.0233.1662-.2111.2187-.3367.146a.9881.9881,0,0,1-.258-.35.6665.6665,0,0,0-.68-.2561,7.064,7.064,0,0,0-.8064.2215,1.3494,1.3494,0,0,1-.4813.0385.5473.5473,0,0,1-.4769-.3713c-.0724-.3884-.0046-.6314-.0471-.8806-.0192-.2215-.1657-.408-.27-.4221a2.6117,2.6117,0,0,1-.4023-.023.5559.5559,0,0,1-.3807-.3372,1.0162,1.0162,0,0,1-.0536-.3271l-.0456-.8486.3.3928a1.5737,1.5737,0,0,0-.4883.095,1.3159,1.3159,0,0,1-1.01-.0569,1.2132,1.2132,0,0,1-.5792-.9744,2.8982,2.8982,0,0,1,.0576-.8564l.0015-.0079a.57.57,0,0,1,1.1193.2181A.6322.6322,0,0,1,949.1781,90.6766Z"/><path class="cls-36" d="M943.3972,94.7625a8.809,8.809,0,0,1,2.0073-.4922l.0335-.0041a.4639.4639,0,0,1,.5047.3408,1.8281,1.8281,0,0,1-.0475,1.0186,4.9484,4.9484,0,0,1-.3428.7766,2.2638,2.2638,0,0,0-.3976,1.2487l-.5693-.1638a5.47,5.47,0,0,1,2.2524-1.3034l.03-.0086a.1917.1917,0,0,1,.2237.0957,1,1,0,0,1,.037.6626.2407.2407,0,0,0,.1583.2669c.2567.1406.59-.0171.9648-.1163a1.4681,1.4681,0,0,1,1.7514,1.1138l-.0284-.0022.1342-.2942-.1064.3054a.0148.0148,0,0,1-.0188.0091c-.0047-.0017-.01-.0115-.01-.0115a1.3373,1.3373,0,0,0-1.658-.8955,1.6372,1.6372,0,0,1-1.1581.2014.6135.6135,0,0,1-.4161-.5832c.0078-.2244.0274-.396-.016-.4158l.2531.0872a4.9177,4.9177,0,0,0-1.9094,1.35.3258.3258,0,0,1-.5645-.1418l-.005-.0222a2.8632,2.8632,0,0,1,.3144-1.7229,1.7281,1.7281,0,0,0,.2109-1.1844l.538.3365a7.77,7.77,0,0,0-1.7214.5952.5693.5693,0,1,1-.4964-1.0247C943.3609,94.7769,943.3811,94.7686,943.3972,94.7625Z"/><path class="cls-36" d="M956.3772,64.1346a2.9264,2.9264,0,0,1,2.0578-.3357,1.41,1.41,0,0,1,.9.7878,2.8688,2.8688,0,0,1,.1031.4461c.043.0583-.0854.0014-.0335.03a1.8843,1.8843,0,0,0,.342-.1741,4.3889,4.3889,0,0,1,.43-.1956,4.1844,4.1844,0,0,1,.9-.2346,4.0275,4.0275,0,0,1,1.7951.1409,3.886,3.886,0,0,0-1.7327.1367,3.8108,3.8108,0,0,0-.779.3423,3.8785,3.8785,0,0,0-.3492.2319,2.0807,2.0807,0,0,1-.4157.2884.56.56,0,0,1-.4465-.0035.64.64,0,0,1-.2988-.311c-.0917-.1987-.1172-.3518-.1614-.4019a.6556.6556,0,0,0-.4671-.2575,2.1173,2.1173,0,0,0-1.3072.5127.5712.5712,0,0,1-.63-.9527A.6476.6476,0,0,1,956.3772,64.1346Z"/><path class="cls-36" d="M956.907,70.6712a3.11,3.11,0,0,0,.8672-.18c.2877-.0891.5083-.2661.9519-.4426a1.2822,1.2822,0,0,1,.7593-.0462.9044.9044,0,0,1,.6329.572c.16.49.0251.3968.2951.4385.2151.0068.5113-.27.9523-.3479.431-.052.7333.0657,1.0332-.0156.3084-.0662.6447-.2268,1.0016-.2813a3.0585,3.0585,0,0,1,1.0584.0015l-.0336.04a.342.342,0,0,0-.347-.2527.3733.3733,0,0,1,.4071.2344.03.03,0,0,1-.0176.0388l-.016.0017a2.9212,2.9212,0,0,0-1.0055.1277c-.3239.0923-.6.2781-.9564.4084a8.2286,8.2286,0,0,1-1.03.1529c-.2507.0554-.4605.3525-.94.4826a.8255.8255,0,0,1-.7791-.1889,1.83,1.83,0,0,1-.3015-.5618c-.0394-.0894-.1844-.0979-.3845,0-.1931.1-.5125.3791-.8692.5534a4.1848,4.1848,0,0,1-1.1231.3921l-.0111.0022a.57.57,0,0,1-.2188-1.1194A.6651.6651,0,0,1,956.907,70.6712Z"/><path class="cls-36" d="M937.0243,39.6028c-.0743.0672.0122.0562.0757-.132l.1036-.3152a1.4734,1.4734,0,0,1,.227-.4385,1.1135,1.1135,0,0,1,.441-.3633.7572.7572,0,0,1,.7228.0667,1.312,1.312,0,0,1,.3043.3215c.0647.0835.0488.05-.0218.06l-.32.2859.36-1.2969c.0481-.0742-.0022-.3015.32-.45a.4057.4057,0,0,1,.3126.052l.1473.081.5894.3247-.1974.1041a8.9959,8.9959,0,0,1,.6248-1.6851,8.851,8.851,0,0,0-.3463,1.7349.1323.1323,0,0,1-.1444.1189l-.0313-.0069-.0219-.008-.6333-.2276c-.0836-.039-.286-.0866-.1676-.0652.0966-.0588.0324-.0085.0349.1216l-.1506,1.3374a.32.32,0,0,1-.2855.2827l-.0352.0035a.7461.7461,0,0,1-.5928-.2488c-.0951-.0943-.1665-.157-.1766-.147-.0086.0159.0682.0317.08.0273.01.0047-.0228.0367-.0456.0911a.5318.5318,0,0,0-.049.1726l-.0547.34a1.6173,1.6173,0,0,1-.1591.4575,1.0462,1.0462,0,0,1-.5132.4673.5686.5686,0,0,1-.3969-1.0657Z"/><path class="cls-36" d="M941.639,43.7784l.2644-.7217.1357-.3716a.9605.9605,0,0,1,.1889-.3318.6781.6781,0,0,1,.4667-.218,1.1808,1.1808,0,0,1,.5031.1221c.0961.0286.0437.0334.0589.0471.0161.0061.07-.0449.0987-.1167a.6465.6465,0,0,0,.0436-.2749,1.5752,1.5752,0,0,1,.1522-.87,2.1611,2.1611,0,0,1,.5975-.5808,1.1994,1.1994,0,0,0,.4671-.5281.5079.5079,0,0,0-.1266-.6533.5761.5761,0,0,1,.2628.6939,1.4084,1.4084,0,0,1-.4111.697,1.8453,1.8453,0,0,0-.4076.5608,1.1583,1.1583,0,0,0,.0322.6308,1.0385,1.0385,0,0,1-.283,1.01.8059.8059,0,0,1-.6719.1428c-.1568-.0339-.2885-.0512-.2423-.0312.0929.0232.1981-.1468.1581-.0418l-.061.3679-.1269.7579a.5711.5711,0,1,1-1.1265-.1888A.6.6,0,0,1,941.639,43.7784Z"/><circle class="cls-35" cx="832.8931" cy="102.094" r="5.1349"/><line class="cls-35" x1="913.6531" y1="15.1703" x2="828.821" y2="98.9745"/><line class="cls-35" x1="949.7257" y1="131.1271" x2="832.8931" y2="107.2288"/><path class="cls-48" d="M939.4663,92.7647l-1.5924.03.0309,1.6147-1.3135.0252-.0308-1.6148-1.5573.0287-.0239-1.2784,1.5573-.0287-.03-1.5693,1.3131-.0251.03,1.5693,1.5923-.03Z"/><path class="cls-48" d="M951.3509,74.0737l-1.5923.03.0308,1.6148-1.3134.0251-.0308-1.6148-1.5573.0288-.0239-1.2784,1.5573-.0288-.03-1.5692,1.3132-.0252.03,1.5693,1.5923-.03Z"/><path class="cls-48" d="M941.2114,51.8349l-1.5923.03L939.65,53.48l-1.3134.0251-.0308-1.6148-1.5573.0288-.024-1.2784,1.5573-.0288-.03-1.5692,1.3131-.0252.03,1.5693,1.5923-.03Z"/><circle class="cls-49" cx="833.6511" cy="462.0687" r="20.9324"/><text class="cls-50" transform="matrix(-0.583, 0, 0, 0.583, 846.1523, 463.6505)">+</text><text class="cls-50" transform="matrix(-1, 0, 0, 1, 840.3916, 470.898)">H</text><text class="cls-51" transform="translate(1.0898 38.0206)"><tspan class="cls-52">h</tspan><tspan class="cls-53" x="22.4404" y="0">y</tspan><tspan x="41.5996" y="0">d</tspan><tspan class="cls-54" x="66.2793" y="0">r</tspan><tspan class="cls-55" x="77.6387" y="0">o</tspan><tspan class="cls-56" x="101.7188" y="0">ly</tspan><tspan x="130.1191" y="0">sis</tspan></text><text class="cls-57" transform="translate(0 97.7398)">in t<tspan class="cls-58" x="37.5171" y="0">h</tspan><tspan x="51.9731" y="0">e </tspan><tspan class="cls-59" x="75.6323" y="0">s</tspan><tspan x="86.1626" y="0">oil </tspan><tspan class="cls-59" x="123.186" y="0">s</tspan><tspan x="133.7163" y="0">olution, high c</tspan><tspan class="cls-58" x="302.5059" y="0">h</tspan><tspan x="316.9619" y="0">a</tspan><tspan class="cls-60" x="333.0034" y="0">r</tspan><tspan x="340.3877" y="0">ge catio</tspan><tspan class="cls-61" x="439.2373" y="0">n</tspan><tspan x="454.2388" y="0">s li</tspan><tspan class="cls-62" x="486.2183" y="0">k</tspan><tspan x="497.8662" y="0" xml:space="preserve">e      a</tspan><tspan class="cls-63" x="582.415" y="0">n</tspan><tspan x="596.8452" y="0">d </tspan><tspan x="0" y="36" xml:space="preserve">     act li</tspan><tspan class="cls-62" x="103.1914" y="36">k</tspan><tspan x="114.8394" y="36">e</tspan><tspan class="cls-64" x="129.5288" y="36"> </tspan><tspan class="cls-58" x="138.2905" y="36">w</tspan><tspan x="158.5962" y="36">eak acids, </tspan><tspan class="cls-65" x="286.9546" y="36">b</tspan><tspan class="cls-66" x="302.9443" y="36">r</tspan><tspan class="cls-65" x="311.8618" y="36">eaking apart</tspan><tspan class="cls-64" x="470.0942" y="36"> </tspan><tspan class="cls-63" x="478.856" y="36">w</tspan><tspan x="499.1621" y="36">a</tspan><tspan class="cls-67" x="515.2036" y="36">t</tspan><tspan x="521.8853" y="36">er </tspan><tspan class="cls-63" x="553.4482" y="36">m</tspan><tspan class="cls-68" x="575.7822" y="36">olecul</tspan><tspan class="cls-69" x="646.4229" y="36">e</tspan><tspan x="660.9829" y="36">s. t</tspan><tspan class="cls-58" x="691.8442" y="36">h</tspan><tspan x="706.3003" y="36">e </tspan><tspan x="0" y="72">acidit</tspan><tspan class="cls-70" x="66.0645" y="72">y</tspan><tspan x="78.2583" y="72" xml:space="preserve"> p</tspan><tspan class="cls-60" x="103.2441" y="72">r</tspan><tspan x="110.6284" y="72">oduced </tspan><tspan class="cls-67" x="210.5703" y="72">r</tspan><tspan x="217.9541" y="72">elea</tspan><tspan class="cls-59" x="269.2505" y="72">s</tspan><tspan class="cls-71" x="279.7808" y="72">e</tspan><tspan x="294.3403" y="72">s </tspan><tspan class="cls-63" x="313.918" y="72">m</tspan><tspan x="336.252" y="72">o</tspan><tspan class="cls-67" x="351.9038" y="72">r</tspan><tspan x="359.2876" y="72">e </tspan><tspan class="cls-72" x="382.9468" y="72">F</tspan><tspan x="393.5547" y="72">e a</tspan><tspan class="cls-58" x="433.2554" y="72">n</tspan><tspan x="447.6851" y="72">d Al in</tspan><tspan class="cls-60" x="525.2153" y="72">t</tspan><tspan x="531.8975" y="72">o </tspan><tspan class="cls-59" x="556.519" y="72">s</tspan><tspan x="567.0493" y="72">olution, c</tspan><tspan class="cls-67" x="674.6094" y="72">r</tspan><tspan x="681.9932" y="72">eati</tspan><tspan class="cls-63" x="726.4517" y="72">n</tspan><tspan class="cls-68" x="740.8818" y="72">g </tspan><tspan x="0" y="108">a </tspan><tspan class="cls-60" x="25.0112" y="108">f</tspan><tspan x="31.6934" y="108">eedback loop </tspan><tspan class="cls-73" x="206.4878" y="108">o</tspan><tspan x="221.8018" y="108">f acidit</tspan><tspan class="cls-74" x="304.0376" y="108">y</tspan><tspan x="314.9316" y="108">.</tspan></text><circle class="cls-75" cx="313.4003" cy="480.3228" r="14.2717"/><text class="cls-76" transform="translate(307.0493 485.2391)">H</text><text class="cls-76" transform="translate(317.4214 480.2974) scale(0.583)">+</text><circle class="cls-75" cx="368.5715" cy="480.3228" r="14.2717"/><text class="cls-76" transform="translate(362.2202 485.2391)">H</text><text class="cls-76" transform="translate(372.5923 480.2974) scale(0.583)">+</text><line class="cls-77" x1="330.7978" y1="461.0614" x2="322.5106" y2="469.3487"/><line class="cls-77" x1="350.9553" y1="461.0614" x2="359.2425" y2="469.3487"/><path class="cls-16" d="M390.5252,447.3827c-1.8926-4.1535-7.257-5.7753-11.9816-3.6224a26.117,26.117,0,0,0-4.236,2.9075,33.1283,33.1283,0,0,1-9.6157,4.957l-2.2038.721.5657-2.2487a33.1278,33.1278,0,0,1,4.2752-9.9376,26.1136,26.1136,0,0,0,2.6054-4.4283c1.8186-4.8631-.1729-10.1014-4.4481-11.7s-9.2152,1.0476-11.0338,5.9106.1729,10.1015,4.4481,11.7a6.6626,6.6626,0,0,0,1.2682.4311l-2.8461,11.9626-22.0436,7.2112a5.41,5.41,0,0,0-3.55,5.58l24.3642-7.6244-5.9089,24.8361a5.4106,5.4106,0,0,0,5.3193-3.93l5.6584-22.4923,11.7353-3.6724a6.666,6.666,0,0,0,.5184,1.2351c1.8927,4.1535,7.257,5.7753,11.9816,3.6223S392.4179,451.5361,390.5252,447.3827Zm-30.0584-9.929c-2.2418-.8383-3.2861-3.5852-2.3324-6.1352s3.5439-3.9376,5.7857-3.0993,3.2861,3.5851,2.3324,6.1352S362.7085,438.292,360.4668,437.4537Zm23.3008,17.7706c-2.4775,1.1289-5.29.2785-6.2828-1.8994s.2114-4.8586,2.6888-5.9876,5.29-.2784,6.2827,1.8995S386.2449,454.0954,383.7676,455.2243Z"/><circle class="cls-78" cx="341.0647" cy="450.7945" r="14.2717"/><text class="cls-76" transform="translate(334.4683 456.0872)">O</text><text class="cls-76" transform="translate(346.6509 451.1456) scale(0.583)">-</text></g></g></svg>