<svg xmlns="http://www.w3.org/2000/svg" viewBox="0 0 1020.61 540.5"><defs><style>.cls-1,.cls-15,.cls-16,.cls-20,.cls-21{fill:#2b63a3;}.cls-2{fill:#e36b44;}.cls-28,.cls-29,.cls-3{fill:#fff;}.cls-4{fill:#ffce01;}.cls-5{fill:#5c5052;}.cls-10,.cls-14,.cls-17,.cls-22,.cls-26,.cls-34,.cls-6,.cls-7{fill:none;}.cls-6{stroke:#ffce01;stroke-width:3.77px;}.cls-10,.cls-15,.cls-17,.cls-20,.cls-21,.cls-22,.cls-23,.cls-25,.cls-26,.cls-27,.cls-28,.cls-29,.cls-30,.cls-33,.cls-34,.cls-6,.cls-7{stroke-miterlimit:10;}.cls-10,.cls-26,.cls-34,.cls-7{stroke:#5c5052;}.cls-7{stroke-width:0.36px;}.cls-8{fill:#5d5152;}.cls-8,.cls-9{opacity:0.4;}.cls-30,.cls-33,.cls-9{fill:#2e61a2;}.cls-10{stroke-width:0.27px;}.cls-11,.cls-12,.cls-13,.cls-18,.cls-19{fill:#5e5f5e;}.cls-11,.cls-23,.cls-25{stroke:#fff;}.cls-11,.cls-13,.cls-14,.cls-18,.cls-19{stroke-linecap:round;stroke-linejoin:round;}.cls-11{stroke-width:0.56px;}.cls-13,.cls-18,.cls-19{stroke:#666667;}.cls-13{stroke-width:0.4px;}.cls-14,.cls-15,.cls-17,.cls-20,.cls-21,.cls-22{stroke:#2b63a3;}.cls-14,.cls-17{stroke-width:0.94px;}.cls-15{stroke-width:0.47px;}.cls-15,.cls-16,.cls-20,.cls-21,.cls-23,.cls-25{opacity:0.17;}.cls-18{stroke-width:0.51px;}.cls-19{stroke-width:0.29px;}.cls-20{stroke-width:0.6px;}.cls-21{stroke-width:0.79px;}.cls-22{stroke-width:1.22px;}.cls-23,.cls-24,.cls-25{fill:#3daaa1;}.cls-23{stroke-width:0.73px;}.cls-25{stroke-width:0.24px;}.cls-26{stroke-width:0.15px;}.cls-27{fill:#ec6a7c;}.cls-27,.cls-28,.cls-29{stroke:#ea6b7c;}.cls-27,.cls-28{stroke-width:0.11px;}.cls-29{stroke-width:0.18px;}.cls-30,.cls-33{stroke:#fecf08;}.cls-30{stroke-width:0.58px;}.cls-31{fill:#f27243;}.cls-32{fill:#5e5153;}.cls-33{stroke-width:0.29px;}.cls-34{stroke-width:0.28px;}.cls-35{fill:#5b5052;}</style></defs><g id="Layer_2" data-name="Layer 2"><g id="Layer_20" data-name="Layer 20"><path class="cls-1" d="M328.46,263.91v26H323V279.57h-9.94V290h-5.47v-26h5.47v10.38H323V263.91Z"/><path class="cls-1" d="M332.29,301.15c1.61-1.83,3.28-3.8,4.89-5.69,1-1.19,1.78-2.23,1.78-3.47a1.94,1.94,0,0,0-2-1.93,2.37,2.37,0,0,0-2.19,2.62l-3-.82a5.12,5.12,0,0,1,5.18-5,4.94,4.94,0,0,1,5.19,4.79c0,1.91-1,3.37-2.28,4.91-.72.89-1.48,1.8-2.21,2.69h4.6v3.08h-10Z"/><path class="cls-1" d="M344.9,276.93a13.47,13.47,0,1,1,13.47,13.5C350.14,290.43,344.9,284.18,344.9,276.93Zm21.31,0a7.85,7.85,0,1,0-7.84,8.07A7.82,7.82,0,0,0,366.21,276.93Z"/><path class="cls-1" d="M541.84,263.6h-9.26L531,268h-6l10.42-26.3h3.45L549.32,268h-6Zm-1.75-4.88-2.9-8.18-2.9,8.18Z"/><path class="cls-1" d="M551.74,238.19h5.36V268h-5.36Z"/><path class="cls-1" d="M561.45,255.52a56.7,56.7,0,0,1,2.46-16.74H569a70.72,70.72,0,0,0-2.09,16.74A71.62,71.62,0,0,0,569,272.26h-5.06A57.58,57.58,0,0,1,561.45,255.52Z"/><path class="cls-1" d="M571.28,254.93a13.47,13.47,0,1,1,13.46,13.5C576.52,268.43,571.28,262.18,571.28,254.93Zm21.31,0a7.85,7.85,0,1,0-7.85,8.07A7.82,7.82,0,0,0,592.59,254.93Z"/><path class="cls-1" d="M623.33,241.91v26h-5.47V257.57h-9.94V268h-5.46v-26h5.46v10.38h9.94V241.91Z"/><path class="cls-1" d="M626.94,272.26A72.13,72.13,0,0,0,629,255.52a71.22,71.22,0,0,0-2.08-16.74H632a57,57,0,0,1,2.45,16.74A57.92,57.92,0,0,1,632,272.26Z"/><path class="cls-1" d="M648,275.44a5.17,5.17,0,0,1-5.36,5.14,5.41,5.41,0,0,1-5.4-4l2.82-1.39a2.77,2.77,0,0,0,2.54,2.19,2.16,2.16,0,1,0,0-4.32,3.57,3.57,0,0,0-1.87.59l-1.3-1.59.07-.06,3.64-3.76h-5v-3.12H647v2.69l-2.77,2.89A4.79,4.79,0,0,1,648,275.44Z"/><path class="cls-1" d="M844.77,258.91v26H839.3V274.57h-9.93V285H823.9v-26h5.47v10.38h9.93V258.91Z"/><path class="cls-1" d="M862.37,275.54h-5.1v5.17h-4.2v-5.17h-5v-4.1h5v-5h4.2v5h5.1Z"/><circle class="cls-2" cx="147.41" cy="464.29" r="16.82"/><path class="cls-3" d="M142.93,467.94h-4.86l-1,2.31h-2.22l5.45-12.4h.3l5.47,12.4h-2.22Zm-.8-1.95-1.63-3.9-1.63,3.9Z"/><path class="cls-3" d="M147.39,456.26h2v14h-2Z"/><path class="cls-3" d="M156,462.09a2.41,2.41,0,0,1-2.47,2.44,2.47,2.47,0,0,1-2.46-1.86l1.1-.5a1.45,1.45,0,0,0,1.36,1.19,1.25,1.25,0,1,0,0-2.5,2,2,0,0,0-1.05.33l-.56-.61.06-.07,1.84-2.05h-2.37v-1.17h4.07v.92L154,459.82A2.24,2.24,0,0,1,156,462.09Z"/><path class="cls-3" d="M160.67,461.77h-1.44v1.47h-1v-1.47h-1.43v-1h1.43v-1.42h1v1.42h1.44Z"/><path class="cls-1" d="M130.54,285.6h-9.26L119.71,290h-6l10.42-26.3h3.46L138,290h-6Zm-1.75-4.88-2.9-8.18-2.9,8.18Z"/><path class="cls-1" d="M140.44,260.19h5.35V290h-5.35Z"/><path class="cls-1" d="M159.65,272.66a5.18,5.18,0,0,1-5.36,5.14,5.42,5.42,0,0,1-5.41-4l2.82-1.39a2.77,2.77,0,0,0,2.54,2.19,2.16,2.16,0,1,0,0-4.32,3.51,3.51,0,0,0-1.86.59l-1.3-1.59.06-.06,3.65-3.75h-5.06v-3.13h8.92v2.69L155.87,268A4.78,4.78,0,0,1,159.65,272.66Z"/><path class="cls-1" d="M169.51,272.07h-3v3h-2.45v-3h-2.91v-2.39h2.91v-2.93h2.45v2.93h3Z"/><path class="cls-4" d="M244.17,279.43h-6v6.09h-4.95v-6.09h-5.87v-4.82h5.87V268.7h4.95v5.91h6Z"/><path class="cls-4" d="M733.17,278.43h-6v6.09h-4.95v-6.09h-5.87v-4.82h5.87V267.7h4.95v5.91h6Z"/><path class="cls-4" d="M250.17,465.84h-6v6.09h-4.95v-6.09h-5.87V461h5.87v-5.91h4.95V461h6Z"/><path class="cls-4" d="M733.49,461.84h-6v6.09h-5v-6.09h-5.87V457h5.87v-5.91h5V457h6Z"/><path class="cls-5" d="M91.89,346.19V360.7H89.6v-2.61a6.15,6.15,0,0,1-5.22,2.81c-4,0-6.82-3.31-6.82-7.46S80.35,346,84.38,346a6.15,6.15,0,0,1,5.22,2.81v-2.61Zm-2.29,7.25a5,5,0,0,0-4.87-5.22,4.92,4.92,0,0,0-4.79,5.22c0,2.88,2,5.23,4.79,5.23A5,5,0,0,0,89.6,353.44Z"/><path class="cls-5" d="M96.41,337.49H98.7V360.7H96.41Z"/><path class="cls-5" d="M115.29,346.19V360.7H113v-2.21a5.15,5.15,0,0,1-4.52,2.5c-2.9,0-5.49-2.15-5.49-6.53v-8.27h2.32v7.89c0,3.14,1.57,4.76,3.81,4.76s3.88-1.62,3.88-4.76v-7.89Z"/><path class="cls-5" d="M141.13,352.2v8.5h-2.32v-8.1c0-2.75-1.36-4.55-3.59-4.55s-3.6,1.8-3.6,4.7v7.95H129.3v-8.1c0-2.75-1.36-4.55-3.6-4.55s-3.59,1.8-3.59,4.7v7.95h-2.3V346.19h2.3v2.09a5,5,0,0,1,8.9.73,5.34,5.34,0,0,1,4.85-3.11C138.79,345.9,141.13,348.08,141.13,352.2Z"/><path class="cls-5" d="M145.42,341.78a1.56,1.56,0,0,1,1.6-1.56,1.58,1.58,0,0,1,0,3.16A1.56,1.56,0,0,1,145.42,341.78Zm.44,4.41h2.29V360.7h-2.29Z"/><path class="cls-5" d="M165.4,352.43v8.27h-2.32v-7.89c0-3.14-1.56-4.76-3.8-4.76s-3.88,1.62-3.88,4.76v7.89h-2.29V346.19h2.29v2.21a5.15,5.15,0,0,1,4.52-2.5C162.82,345.9,165.4,348.05,165.4,352.43Z"/><path class="cls-5" d="M181.76,346.19V360.7h-2.29v-2.21a5.16,5.16,0,0,1-4.53,2.5c-2.9,0-5.48-2.15-5.48-6.53v-8.27h2.32v7.89c0,3.14,1.57,4.76,3.8,4.76s3.89-1.62,3.89-4.76v-7.89Z"/><path class="cls-5" d="M207.6,352.2v8.5h-2.32v-8.1c0-2.75-1.36-4.55-3.6-4.55s-3.59,1.8-3.59,4.7v7.95h-2.32v-8.1c0-2.75-1.37-4.55-3.6-4.55s-3.6,1.8-3.6,4.7v7.95h-2.29V346.19h2.29v2.09a5,5,0,0,1,8.91.73,5.32,5.32,0,0,1,4.84-3.11C205.25,345.9,207.6,348.08,207.6,352.2Z"/><path class="cls-5" d="M331.71,347.19l-7.42,14.62h-1.6l-2.81-5.68-2.76,5.68h-1.59l-7.4-14.62h2.47l5.77,11.63,2.41-4.87-3.4-6.76h2.38l2.15,4.59,2.14-4.59h2.38L321,354l2.41,4.87,5.77-11.63Z"/><path class="cls-5" d="M346.85,347.19V361.7h-2.29v-2.61a6.15,6.15,0,0,1-5.22,2.81c-4,0-6.82-3.31-6.82-7.46s2.78-7.45,6.82-7.45a6.15,6.15,0,0,1,5.22,2.81v-2.61Zm-2.29,7.25a5,5,0,0,0-4.88-5.22,4.91,4.91,0,0,0-4.78,5.22c0,2.88,2,5.23,4.78,5.23A5,5,0,0,0,344.56,354.44Z"/><path class="cls-5" d="M357.17,349.4h-3v12.3h-2.32V349.4H350v-2.21h1.85v-3.88h2.32v3.88h3Z"/><path class="cls-5" d="M372.2,355.32H360.74a4.86,4.86,0,0,0,5.07,4.37,7.41,7.41,0,0,0,4.85-1.76v2.43a8,8,0,0,1-5,1.57,7.13,7.13,0,0,1-7.34-7.49c0-4,2.84-7.45,7.05-7.45C369.88,347,372.43,350.88,372.2,355.32Zm-11.43-1.95h9c-.41-2.35-2-4.09-4.38-4.09A4.61,4.61,0,0,0,360.77,353.37Z"/><path class="cls-5" d="M382.17,346.93v2.67c-2.18-.26-4.21,1.22-4.21,4.29v7.81h-2.29V347.19H378v2.58A4.87,4.87,0,0,1,382.17,346.93Z"/><path class="cls-5" d="M530.82,310v14.5h-2.29v-2.61a6.15,6.15,0,0,1-5.22,2.81c-4,0-6.82-3.3-6.82-7.45s2.78-7.46,6.82-7.46a6.14,6.14,0,0,1,5.22,2.82V310Zm-2.29,7.25a5,5,0,0,0-4.88-5.22,5.24,5.24,0,0,0,0,10.44A5,5,0,0,0,528.53,317.27Z"/><path class="cls-5" d="M535.34,301.31h2.29v23.21h-2.29Z"/><path class="cls-5" d="M554.22,310v14.5h-2.29v-2.2a5.16,5.16,0,0,1-4.53,2.49c-2.9,0-5.48-2.15-5.48-6.53V310h2.32v7.89c0,3.13,1.57,4.75,3.8,4.75s3.89-1.62,3.89-4.75V310Z"/><path class="cls-5" d="M580.06,316v8.5h-2.32v-8.09c0-2.76-1.36-4.56-3.6-4.56s-3.59,1.8-3.59,4.7v7.95h-2.32v-8.09c0-2.76-1.37-4.56-3.6-4.56s-3.6,1.8-3.6,4.7v7.95h-2.29V310H561v2.08a5,5,0,0,1,8.91.73,5.34,5.34,0,0,1,4.84-3.1C577.71,309.73,580.06,311.9,580.06,316Z"/><path class="cls-5" d="M584.35,305.61a1.56,1.56,0,0,1,1.59-1.57,1.55,1.55,0,0,1,1.57,1.57,1.53,1.53,0,0,1-1.57,1.59A1.55,1.55,0,0,1,584.35,305.61Zm.43,4.41h2.3v14.5h-2.3Z"/><path class="cls-5" d="M604.33,316.25v8.27H602v-7.89c0-3.13-1.56-4.76-3.8-4.76s-3.89,1.63-3.89,4.76v7.89H592V310h2.29v2.2a5.17,5.17,0,0,1,4.53-2.49C601.75,309.73,604.33,311.87,604.33,316.25Z"/><path class="cls-5" d="M620.69,310v14.5H618.4v-2.2a5.17,5.17,0,0,1-4.53,2.49c-2.9,0-5.48-2.15-5.48-6.53V310h2.32v7.89c0,3.13,1.57,4.75,3.8,4.75s3.89-1.62,3.89-4.75V310Z"/><path class="cls-5" d="M646.53,316v8.5h-2.32v-8.09c0-2.76-1.37-4.56-3.6-4.56s-3.6,1.8-3.6,4.7v7.95h-2.32v-8.09c0-2.76-1.36-4.56-3.59-4.56s-3.6,1.8-3.6,4.7v7.95h-2.29V310h2.29v2.08a5,5,0,0,1,8.91.73,5.33,5.33,0,0,1,4.84-3.1C644.18,309.73,646.53,311.9,646.53,316Z"/><path class="cls-5" d="M531.14,351.05v8.27h-2.32v-7.89c0-3.13-1.57-4.76-3.8-4.76s-3.89,1.63-3.89,4.76v7.89h-2.29V336.11h2.29V347a5.16,5.16,0,0,1,4.53-2.49C528.56,344.53,531.14,346.67,531.14,351.05Z"/><path class="cls-5" d="M547.49,344.82l-8.55,20.3h-2.35l2.58-6-6.06-14.3h2.49l4.7,11.74,4.7-11.74Z"/><path class="cls-5" d="M562.72,336.11v23.21h-2.29v-2.58a6.18,6.18,0,0,1-5.19,2.78c-4,0-6.82-3.3-6.82-7.45s2.78-7.46,6.82-7.46a6.17,6.17,0,0,1,5.19,2.79V336.11Zm-2.29,16.54v-1.16a5,5,0,0,0-4.85-4.64,5.24,5.24,0,0,0,0,10.44A5,5,0,0,0,560.43,352.65Z"/><path class="cls-5" d="M573.74,344.55v2.67c-2.18-.26-4.21,1.22-4.21,4.3v7.8h-2.29v-14.5h2.29v2.58A4.88,4.88,0,0,1,573.74,344.55Z"/><path class="cls-5" d="M574.92,352.07a7.37,7.37,0,1,1,7.37,7.48A7.32,7.32,0,0,1,574.92,352.07Zm12.39,0a5,5,0,1,0-10,0,5,5,0,1,0,10,0Z"/><path class="cls-5" d="M602.22,359.32,598,353.66l-4.26,5.66H590.9l5.72-7.28L591,344.82h2.73l4.26,5.59,4.24-5.59h2.72L599.32,352l5.71,7.28Z"/><path class="cls-5" d="M607.52,340.41a1.57,1.57,0,0,1,1.6-1.57,1.54,1.54,0,0,1,1.56,1.57,1.52,1.52,0,0,1-1.56,1.59A1.55,1.55,0,0,1,607.52,340.41Zm.44,4.41h2.29v14.5H608Z"/><path class="cls-5" d="M628.55,336.11v23.21h-2.29v-2.58a6.18,6.18,0,0,1-5.19,2.78c-4,0-6.82-3.3-6.82-7.45s2.78-7.46,6.82-7.46a6.17,6.17,0,0,1,5.19,2.79V336.11Zm-2.29,16.54v-1.16a5,5,0,0,0-4.85-4.64,5.24,5.24,0,0,0,0,10.44A5,5,0,0,0,626.26,352.65Z"/><path class="cls-5" d="M646,352.94H634.49a4.87,4.87,0,0,0,5.08,4.38,7.39,7.39,0,0,0,4.84-1.77V358a8,8,0,0,1-5,1.57,7.13,7.13,0,0,1-7.34-7.48c0-4,2.85-7.46,7-7.46C643.63,344.61,646.18,348.5,646,352.94ZM634.52,351h9c-.4-2.35-2-4.09-4.38-4.09A4.63,4.63,0,0,0,634.52,351Z"/><path class="cls-5" d="M785.73,332.65v8.27h-2.32V333c0-3.13-1.56-4.76-3.8-4.76s-3.88,1.63-3.88,4.76v7.89h-2.29V317.71h2.29v10.91a5.14,5.14,0,0,1,4.52-2.49C783.15,326.13,785.73,328.27,785.73,332.65Z"/><path class="cls-5" d="M802.09,326.42l-8.56,20.3h-2.35l2.59-6-6.07-14.3h2.5l4.7,11.74,4.7-11.74Z"/><path class="cls-5" d="M817.32,317.71v23.21H815v-2.58a6.18,6.18,0,0,1-5.19,2.78c-4,0-6.81-3.3-6.81-7.45s2.78-7.46,6.81-7.46A6.17,6.17,0,0,1,815,329V317.71ZM815,334.25v-1.16a5,5,0,0,0-4.84-4.64,5.24,5.24,0,0,0,0,10.44A5,5,0,0,0,815,334.25Z"/><path class="cls-5" d="M828.33,326.16v2.66c-2.17-.26-4.2,1.22-4.2,4.3v7.8h-2.29v-14.5h2.29V329A4.84,4.84,0,0,1,828.33,326.16Z"/><path class="cls-5" d="M829.52,333.67a7.37,7.37,0,1,1,7.37,7.48A7.32,7.32,0,0,1,829.52,333.67Zm12.39,0a5,5,0,1,0-10,0,5,5,0,1,0,10,0Z"/><path class="cls-5" d="M861.19,340.31c0,4.47-3.42,6.61-6.87,6.61a10.41,10.41,0,0,1-5.46-1.56l0-2.47a9.19,9.19,0,0,0,5.2,1.86c2.81,0,4.9-1.65,4.87-5v-1.48a6.18,6.18,0,0,1-5.25,2.87c-4,0-6.82-3.3-6.82-7.45s2.79-7.46,6.82-7.46A6.17,6.17,0,0,1,858.9,329v-2.58h2.26Zm-2.26-6.64a5,5,0,0,0-4.87-5.22,5.24,5.24,0,0,0,0,10.44A5,5,0,0,0,858.93,333.67Z"/><path class="cls-5" d="M878.59,334.54H867.13a4.88,4.88,0,0,0,5.08,4.38,7.44,7.44,0,0,0,4.85-1.77v2.44a8.08,8.08,0,0,1-5,1.56,7.13,7.13,0,0,1-7.34-7.48c0-4,2.84-7.46,7-7.46C876.27,326.21,878.83,330.1,878.59,334.54Zm-11.43-2h9c-.41-2.34-2-4.09-4.38-4.09A4.63,4.63,0,0,0,867.16,332.59Z"/><path class="cls-5" d="M894.37,332.65v8.27h-2.32V333c0-3.13-1.57-4.76-3.8-4.76s-3.89,1.63-3.89,4.76v7.89h-2.29v-14.5h2.29v2.2a5.16,5.16,0,0,1,4.53-2.49C891.79,326.13,894.37,328.27,894.37,332.65Z"/><path class="cls-5" d="M753.89,368.47c0,4.15-2.78,7.45-6.81,7.45a6.15,6.15,0,0,1-5.22-2.81v8.41h-2.3v-20.3h2.3v2.61a6.14,6.14,0,0,1,5.22-2.82C751.11,361,753.89,364.32,753.89,368.47Zm-2.37,0a4.92,4.92,0,0,0-4.79-5.22,5.23,5.23,0,0,0,0,10.44A4.92,4.92,0,0,0,751.52,368.47Z"/><path class="cls-5" d="M764,361v2.66c-2.17-.26-4.2,1.22-4.2,4.3v7.8h-2.29v-14.5h2.29v2.58A4.84,4.84,0,0,1,764,361Z"/><path class="cls-5" d="M765.14,368.47a7.37,7.37,0,1,1,7.37,7.48A7.32,7.32,0,0,1,765.14,368.47Zm12.39,0a5,5,0,1,0-10,0,5,5,0,1,0,10,0Z"/><path class="cls-5" d="M788.84,363.42h-3v12.3h-2.32v-12.3h-1.86v-2.2h1.86v-3.89h2.32v3.89h3Z"/><path class="cls-5" d="M790,368.47a7.37,7.37,0,1,1,7.37,7.48A7.32,7.32,0,0,1,790,368.47Zm12.39,0a5,5,0,1,0-10,0,5,5,0,1,0,10,0Z"/><path class="cls-5" d="M820.65,367.45v8.27h-2.32v-7.89c0-3.13-1.57-4.76-3.8-4.76s-3.89,1.63-3.89,4.76v7.89h-2.29v-14.5h2.29v2.2a5.16,5.16,0,0,1,4.53-2.49C818.07,360.93,820.65,363.07,820.65,367.45Z"/><path class="cls-5" d="M833.78,365.83h20.31v2.06H833.78Z"/><path class="cls-5" d="M880.8,361.22v14.5h-2.3v-2.61a6.15,6.15,0,0,1-5.22,2.81c-4,0-6.81-3.3-6.81-7.45s2.78-7.46,6.81-7.46a6.14,6.14,0,0,1,5.22,2.82v-2.61Zm-2.3,7.25a5,5,0,0,0-4.87-5.22,5.24,5.24,0,0,0,0,10.44A5,5,0,0,0,878.5,368.47Z"/><path class="cls-5" d="M884.36,368.47a7.25,7.25,0,0,1,7.4-7.49,7.11,7.11,0,0,1,4.67,1.57v2.73a6,6,0,0,0-4.5-2,5.19,5.19,0,1,0,0,10.38,6,6,0,0,0,4.5-2v2.73a7.16,7.16,0,0,1-4.67,1.56A7.25,7.25,0,0,1,884.36,368.47Z"/><path class="cls-5" d="M900.28,356.81a1.57,1.57,0,0,1,1.6-1.57,1.55,1.55,0,0,1,1.56,1.57,1.53,1.53,0,0,1-1.56,1.59A1.55,1.55,0,0,1,900.28,356.81Zm.43,4.41H903v14.5h-2.3Z"/><path class="cls-5" d="M921.31,352.51v23.21H919v-2.58a6.2,6.2,0,0,1-5.2,2.78c-4,0-6.81-3.3-6.81-7.45s2.78-7.46,6.81-7.46a6.18,6.18,0,0,1,5.2,2.79V352.51ZM919,369.05v-1.16a5,5,0,0,0-4.85-4.64,5.24,5.24,0,0,0,0,10.44A5,5,0,0,0,919,369.05Z"/><path class="cls-5" d="M925.37,355.42H928l-.43,15.86h-1.8Zm0,18.91a1.55,1.55,0,0,1,1.53-1.57,1.59,1.59,0,0,1,1.57,1.57,1.54,1.54,0,0,1-1.57,1.56A1.51,1.51,0,0,1,925.37,374.33Z"/><line class="cls-6" x1="423.53" y1="268.88" x2="455.44" y2="268.88"/><polygon class="cls-4" points="468.74 268.88 450 276.54 454.45 268.88 450 261.23 468.74 268.88"/><line class="cls-6" x1="422.53" y1="464.29" x2="454.44" y2="464.29"/><polygon class="cls-4" points="467.74 464.29 449 471.95 453.45 464.29 449 456.64 467.74 464.29"/><circle class="cls-2" cx="554.31" cy="434.54" r="40.46"/><path class="cls-3" d="M546.45,443.14H536.11l-2.05,4.91h-4.72l11.6-26.38h.64l11.64,26.38H548.5ZM544.74,439l-3.46-8.29L537.82,439Z"/><path class="cls-3" d="M555.94,418.29h4.28v29.76h-4.28Z"/><path class="cls-3" d="M574.16,430.69a5.16,5.16,0,0,1-5.28,5.19,5.26,5.26,0,0,1-5.23-3.95l2.35-1.07a3.09,3.09,0,0,0,2.88,2.52,2.66,2.66,0,1,0,0-5.32,4.29,4.29,0,0,0-2.23.7l-1.2-1.28.13-.15,3.93-4.36h-5v-2.5h8.67v1.95L570,425.85A4.8,4.8,0,0,1,574.16,430.69Z"/><path class="cls-3" d="M584.18,430h-3.06v3.14H578.9V430h-3v-2.17h3v-3h2.22v3h3.06Z"/><line class="cls-7" x1="554.38" y1="475.39" x2="554.38" y2="489.21"/><circle class="cls-8" cx="554.2" cy="501.91" r="12.57"/><path class="cls-3" d="M548.09,501.53a4.73,4.73,0,1,1,4.73,4.75A4.62,4.62,0,0,1,548.09,501.53Zm7.49,0a2.76,2.76,0,1,0-2.76,2.84A2.75,2.75,0,0,0,555.58,501.53Z"/><path class="cls-3" d="M558.45,499h2.47v.93h-2.47Z"/><circle class="cls-9" cx="578.43" cy="527.93" r="12.57"/><path class="cls-3" d="M581.08,523.11v9.15h-1.93v-3.65h-3.49v3.65h-1.92v-9.15h1.92v3.65h3.49v-3.65Z"/><path class="cls-3" d="M585.17,526h-1V527h-.86V526h-1v-.84h1v-1h.86v1h1Z"/><line class="cls-10" x1="562.91" y1="510.96" x2="570.21" y2="518.26"/><line class="cls-7" x1="594.77" y1="435.45" x2="608.59" y2="435.45"/><circle class="cls-8" cx="621.29" cy="435.63" r="12.57"/><path class="cls-3" d="M614.81,435.39a4.73,4.73,0,1,1,4.73,4.75A4.62,4.62,0,0,1,614.81,435.39Zm7.49,0a2.76,2.76,0,1,0-2.76,2.84A2.75,2.75,0,0,0,622.3,435.39Z"/><path class="cls-3" d="M625.17,432.81h2.47v.93h-2.47Z"/><circle class="cls-9" cx="647.31" cy="411.4" r="12.57"/><path class="cls-3" d="M649.13,406v9.15h-1.92V411.5h-3.5v3.64h-1.92V406h1.92v3.65h3.5V406Z"/><path class="cls-3" d="M653.22,408.86h-1v1.06h-.86v-1.06h-1V408h1v-1h.86v1h1Z"/><line class="cls-10" x1="630.34" y1="426.92" x2="637.64" y2="419.62"/><path class="cls-5" d="M660.38,24.13l1,5.21-.82.17-.19-.94A2.27,2.27,0,0,1,658.75,30a2.56,2.56,0,0,1-3-2.18,2.55,2.55,0,0,1,1.91-3.17,2.25,2.25,0,0,1,2.08.63l-.19-.94Zm-.3,2.77A1.84,1.84,0,0,0,658,25.38a1.92,1.92,0,0,0,.75,3.75A1.84,1.84,0,0,0,660.08,26.9Z"/><path class="cls-5" d="M661.37,20.68l.82-.16,1.69,8.32-.83.17Z"/><path class="cls-5" d="M668.77,22.43l1.06,5.21-.82.17-.16-.8a1.89,1.89,0,0,1-1.45,1.23c-1,.21-2.12-.37-2.44-1.95l-.6-3,.83-.17.58,2.83c.23,1.13.91,1.59,1.71,1.43s1.27-.86,1-2L668,22.6Z"/><path class="cls-5" d="M678.48,22.71l.62,3.05-.83.17-.59-2.9c-.2-1-.82-1.54-1.62-1.38s-1.16.91-.95,2l.58,2.85-.84.17-.58-2.9c-.2-1-.83-1.54-1.63-1.37s-1.16.9-.95,1.94l.58,2.85-.82.17-1.05-5.2.82-.17.15.75a1.84,1.84,0,0,1,3.25-.39,2,2,0,0,1,1.51-1.46C677.18,20.62,678.18,21.23,678.48,22.71Z"/><path class="cls-5" d="M679.26,18.67a.57.57,0,0,1,.46-.68.58.58,0,1,1-.46.68Zm.48,1.55.82-.17,1.05,5.2-.82.17Z"/><path class="cls-5" d="M687.21,21l.6,3-.84.17-.57-2.83c-.23-1.13-.91-1.6-1.71-1.43s-1.27.86-1.05,2l.58,2.83-.83.16-1-5.2.82-.17.16.79a1.89,1.89,0,0,1,1.44-1.22C685.81,18.88,686.89,19.46,687.21,21Z"/><path class="cls-5" d="M692.62,17.61l1,5.2-.82.17-.16-.79a1.88,1.88,0,0,1-1.44,1.22c-1,.21-2.12-.37-2.44-1.94l-.6-3,.83-.17.57,2.83c.23,1.13.91,1.6,1.71,1.43s1.28-.86,1-2l-.57-2.84Z"/><path class="cls-5" d="M702.33,17.89l.62,3.05-.84.16-.58-2.9c-.2-1-.82-1.54-1.63-1.37s-1.16.9-.94,1.94l.57,2.86-.83.16-.59-2.9c-.2-1-.82-1.53-1.62-1.37s-1.16.9-1,1.95l.58,2.85-.82.16-1.06-5.2.82-.17.16.75a1.76,1.76,0,0,1,1.35-1.16,1.8,1.8,0,0,1,1.89.78A2,2,0,0,1,700,16C701,15.8,702,16.41,702.33,17.89Z"/><path class="cls-11" d="M651.26,49.24s-4.42,6.84,4.4,19.3a45.54,45.54,0,0,1,4.64,5.06c1.46-1.92,2.85-3.85,4.16-5.81l4.16,4.3a20.27,20.27,0,0,0,1.77-5.92c2.6,1.4,4.92,2.13,6.66,3.37,1.4-1.91,2.18-4.08,3.7-5.93a5.83,5.83,0,0,1,3.64,4.56l2.16-5.3-.08.05,3.58,3.51c1.71-2.07,2.07-4.27,3.45-6.56,2.26,1.77,3,3.68,4.64,5.06,1.46-1.92,2.84-3.85,4.15-5.81l4.16,4.3a20.29,20.29,0,0,0,1.78-5.92c3,1.36,5.12,1.75,6.65,3.37a14.68,14.68,0,0,0,3.7-5.93c1.14,2,2.47,3,3.65,4.56l2.15-5.3c2.25.7,3.6-.75,6-.82,1.5-.14-9.09-5.7-5-22.25"/><path class="cls-12" d="M715.92,21.65a8,8,0,1,1,3.16,15.73L646.72,51.92l-3.16-15.73Z"/><circle class="cls-11" cx="645.14" cy="44.05" r="8.02"/><path class="cls-13" d="M724.49,61.86c-.4.34-.23.81.06,1.25s.5.78,1.41.62c1.26-.51.55-1.95-.31-2.37a1,1,0,0,0-1.16.5"/><path class="cls-13" d="M717,61c-.39.34-.22.82.07,1.25s.5.79,1.41.63c1.26-.52.55-2-.31-2.37A1.08,1.08,0,0,0,717,61"/><path class="cls-13" d="M709.94,64.15c-.4.34-.23.82.06,1.25s.5.79,1.41.62c1.26-.51.55-2-.3-2.36a1.05,1.05,0,0,0-1.17.49"/><path class="cls-13" d="M730.87,59.73c-.36-.3-1.11-.51-1.31-.09s-.47.92-.12,1.24,1.25.08,1.78-.3c-.13-.59.14-.67-.35-.85"/><path class="cls-14" d="M847.31,55.65c0,5.24-17.61,9.48-39.34,9.48s-39.35-4.24-39.35-9.48l9.62,70c0,4,13.31,7.17,29.73,7.17s29.73-3.21,29.73-7.17Z"/><ellipse class="cls-15" cx="807.97" cy="55.65" rx="39.35" ry="9.48"/><ellipse class="cls-16" cx="807.93" cy="83.9" rx="35.73" ry="8.61"/><ellipse class="cls-17" cx="807.97" cy="55.65" rx="39.35" ry="9.48"/><path class="cls-16" d="M778.24,125.63c0,4,13.31,7.17,29.73,7.17s29.73-3.21,29.73-7.17l6-41.73c0-4.76-16-8.61-35.73-8.61s-35.72,3.85-35.72,8.61Z"/><ellipse class="cls-16" cx="807.97" cy="125.63" rx="29.73" ry="7.17"/><path class="cls-18" d="M814.5,117.46c.34.58,1,.47,1.59.19s1.1-.46,1.09-1.63c-.37-1.7-2.34-1.12-3-.14a1.36,1.36,0,0,0,.37,1.58"/><path class="cls-19" d="M798.65,104.62c-.23.23-.43.76-.17,1s.57.5.82.29.15-.93-.06-1.4c-.4,0-.43-.22-.59.12"/><path class="cls-18" d="M807.83,104.9c.14.52,1.1.35,1.27.16.36-.43.65-.65.52-1.19a1.08,1.08,0,1,0-1.79,1"/><path class="cls-18" d="M804.53,86.83c-.38.56,0,1.08.51,1.51a1.37,1.37,0,0,0,2,.28c1.37-1.07,0-2.59-1.2-2.81a1.36,1.36,0,0,0-1.26,1"/><path class="cls-18" d="M826.85,111.14c-.56-.24-1.54-.24-1.65.36s-.25,1.28.29,1.56c.74.38,1.56-.34,2.08-1-.36-.68-.06-.88-.72-.93"/><path class="cls-18" d="M810.16,79.72c-.41.35.16,1.15.4,1.21.54.14.87.31,1.3,0a1.08,1.08,0,1,0-1.7-1.17"/><path class="cls-18" d="M799.31,100.71c.61-.28.57-.93.36-1.56s-.34-1.15-1.51-1.26c-1.74.19-1.36,2.21-.46,3a1.36,1.36,0,0,0,1.61-.2"/><path class="cls-18" d="M812.86,89.69c-.55-.24-1.54-.24-1.64.35s-.25,1.29.28,1.57c.75.38,1.56-.34,2.09-1-.36-.67-.07-.87-.73-.92"/><path class="cls-18" d="M797.45,112.91c-.55-.24-1.54-.24-1.64.36s-.26,1.28.28,1.56c.74.38,1.56-.34,2.08-1-.36-.68-.06-.88-.72-.93"/><path class="cls-18" d="M802.79,126.52c.61-.28.56-.92.35-1.56s-.34-1.14-1.51-1.25c-1.73.19-1.35,2.21-.45,3a1.36,1.36,0,0,0,1.61-.21"/><path class="cls-18" d="M808.41,116.26c.61-.28.56-.92.35-1.56s-.34-1.14-1.51-1.25c-1.73.19-1.35,2.21-.45,3a1.36,1.36,0,0,0,1.61-.2"/><path class="cls-18" d="M783.13,117.71c.35.49,1.19,1,1.59.56s.89-1,.58-1.48c-.43-.72-1.51-.53-2.29-.25,0,.77-.41.78.12,1.17"/><path class="cls-18" d="M786.12,106c.53-.09.47-1.06.29-1.25-.38-.4-.57-.71-1.13-.64a1.08,1.08,0,1,0,.84,1.89"/><path class="cls-18" d="M810.82,113c0,.67.57.93,1.23,1s1.17.21,1.8-.78c.62-1.63-1.35-2.21-2.48-1.77a1.35,1.35,0,0,0-.55,1.52"/><path class="cls-18" d="M796.66,120.72c-.59.08-1.44.6-1.21,1.16s.45,1.23,1,1.18c.84-.06,1.16-1.1,1.26-1.93-.66-.39-.51-.71-1.1-.41"/><path class="cls-18" d="M805.72,128.68c-.17.51.73.9,1,.82.54-.15.9-.19,1.09-.71a1.08,1.08,0,1,0-2.06-.11"/><path class="cls-18" d="M823.18,96c-.17.51.73.9,1,.82.54-.16.9-.19,1.09-.71a1.08,1.08,0,1,0-2.06-.11"/><path class="cls-18" d="M830.83,101.51a1.28,1.28,0,0,0-1.14,1.72,1.18,1.18,0,0,0,2,.07c.38-.73-.08-2.07-.86-1.79"/><path class="cls-18" d="M820.24,108.15a1.28,1.28,0,0,0-1.14,1.73,1.17,1.17,0,0,0,2,.06c.38-.73-.07-2.07-.85-1.79"/><path class="cls-20" d="M847.31,55.65c0,5.24-17.61,9.48-39.34,9.48s-39.35-4.24-39.35-9.48l9.62,70c0,4,13.31,7.17,29.73,7.17s29.73-3.21,29.73-7.17Z"/><circle class="cls-21" cx="954.74" cy="65.87" r="65.26"/><circle class="cls-22" cx="954.74" cy="65.87" r="65.26"/><circle class="cls-3" cx="924.58" cy="68.56" r="17.3"/><circle class="cls-23" cx="924.58" cy="68.56" r="17.3"/><path class="cls-24" d="M919.62,72.59h-4.48l-.76,2.1h-2.9l5-12.72h1.67l5,12.72h-2.88Zm-.85-2.36-1.4-4-1.41,4Z"/><path class="cls-24" d="M924.4,60.3H927V74.69H924.4Z"/><path class="cls-24" d="M933.68,66.33a2.5,2.5,0,0,1-2.58,2.49,2.64,2.64,0,0,1-2.62-1.92l1.37-.67a1.34,1.34,0,0,0,1.22,1.06,1,1,0,1,0,0-2.09,1.84,1.84,0,0,0-.9.28l-.63-.76,0,0,1.76-1.82h-2.45V61.36h4.31v1.3l-1.34,1.4A2.3,2.3,0,0,1,933.68,66.33Z"/><path class="cls-24" d="M938.46,66.05H937v1.46h-1.18V66.05h-1.41V64.9h1.41V63.48H937V64.9h1.44Z"/><circle class="cls-3" cx="962.4" cy="94.94" r="6.91"/><circle class="cls-3" cx="947.72" cy="107.93" r="6.91"/><circle class="cls-3" cx="974.33" cy="110.43" r="6.91"/><circle class="cls-25" cx="962.4" cy="94.94" r="6.91"/><circle class="cls-25" cx="947.72" cy="107.93" r="6.91"/><path class="cls-24" d="M959.55,94.71a2.6,2.6,0,1,1,2.34,2.85A2.54,2.54,0,0,1,959.55,94.71Zm4.1.39A1.52,1.52,0,1,0,962,96.51,1.52,1.52,0,0,0,963.65,95.1Z"/><path class="cls-24" d="M965.35,93.83l1.36.13-.05.51-1.35-.13Z"/><path class="cls-24" d="M949.39,105.42l-.47,5-1-.1.19-2-1.91-.18-.19,2-1.05-.1.47-5,1,.1-.19,2,1.91.18.19-2Z"/><path class="cls-24" d="M951.49,107.2l-.57,0,0,.58-.48,0,.06-.58-.56,0,0-.46.56,0,0-.56.48,0-.06.57.58,0Z"/><circle class="cls-25" cx="974.33" cy="110.43" r="6.91"/><path class="cls-24" d="M976,107.92l-.47,5-1-.1.18-2-1.91-.18-.18,2-1.06-.1.47-5,1.06.1-.19,2,1.91.18.19-2Z"/><path class="cls-24" d="M978.11,109.7l-.58,0,0,.58-.47,0,0-.58-.56,0,0-.46.56,0,.06-.56.47,0,0,.57.57,0Z"/><line class="cls-26" x1="956.98" y1="99.43" x2="952.61" y2="103.05"/><line class="cls-26" x1="966.71" y1="100.34" x2="970.33" y2="104.71"/><circle class="cls-3" cx="970.22" cy="77.33" r="6.91"/><circle class="cls-3" cx="989.79" cy="76.07" r="6.91"/><circle class="cls-3" cx="970.29" cy="57.78" r="6.91"/><circle class="cls-25" cx="970.22" cy="77.33" r="6.91"/><circle class="cls-25" cx="989.79" cy="76.07" r="6.91"/><path class="cls-24" d="M967.55,78.43A2.6,2.6,0,1,1,971,79.7,2.55,2.55,0,0,1,967.55,78.43Zm3.74-1.73a1.52,1.52,0,1,0-.72,2A1.51,1.51,0,0,0,971.29,76.7Z"/><path class="cls-24" d="M972.12,74.74l1.24-.57.21.47-1.23.57Z"/><path class="cls-24" d="M989.51,73l2.55,4.34-.91.53-1-1.73-1.65,1,1,1.72-.91.54L986,75l.91-.53,1,1.73,1.65-1-1-1.73Z"/><path class="cls-24" d="M992.25,73.21l-.49.3.29.5-.41.24-.29-.5-.49.28-.23-.4.48-.28-.28-.49.41-.24.28.49.5-.29Z"/><circle class="cls-25" cx="970.29" cy="57.78" r="6.91"/><path class="cls-24" d="M970.25,54.65l2.13,4.55-1,.45-.85-1.81-1.74.81.85,1.82-.95.44-2.14-4.55,1-.45.85,1.81,1.74-.81-.85-1.81Z"/><path class="cls-24" d="M973,55.12l-.52.24.24.53-.43.2-.24-.53-.51.24-.2-.42.51-.24-.24-.51.43-.2.24.51.52-.24Z"/><line class="cls-26" x1="977.25" y1="77.11" x2="982.93" y2="76.93"/><line class="cls-26" x1="970.13" y1="70.42" x2="969.95" y2="64.75"/><circle class="cls-3" cx="937.95" cy="28.32" r="6.91"/><circle class="cls-3" cx="953.66" cy="40.05" r="6.91"/><circle class="cls-3" cx="950.69" cy="13.49" r="6.91"/><circle class="cls-25" cx="937.95" cy="28.32" r="6.91"/><circle class="cls-25" cx="953.66" cy="40.05" r="6.91"/><path class="cls-24" d="M935,27.22a2.6,2.6,0,1,1,1.47,3.38A2.53,2.53,0,0,1,935,27.22Zm3.83,1.5a1.51,1.51,0,1,0-2,.9A1.51,1.51,0,0,0,938.83,28.72Z"/><path class="cls-24" d="M940.82,28l1.26.5-.18.47-1.27-.49Z"/><path class="cls-24" d="M955.78,38l-1.54,4.79-1-.32.61-1.91L952,39.92l-.61,1.91-1-.32,1.54-4.79,1,.32L952.33,39l1.83.59.61-1.91Z"/><path class="cls-24" d="M957.44,40.14,956.9,40l-.18.56-.45-.15.18-.55-.54-.17.14-.44.54.17.17-.54.45.14-.17.54.55.18Z"/><circle class="cls-25" cx="950.69" cy="13.49" r="6.91"/><path class="cls-24" d="M952.12,11l-.27,5-1.05-.05.11-2L949,13.83l-.11,2-1-.06.26-5,1.06.05-.11,2,1.92.1.11-2Z"/><path class="cls-24" d="M954.29,12.66l-.57,0,0,.59-.48,0,0-.58-.56,0,0-.46.56,0,0-.57.47,0,0,.56.57,0Z"/><line class="cls-26" x1="943.45" y1="32.71" x2="947.88" y2="36.26"/><line class="cls-26" x1="942.37" y1="23" x2="945.91" y2="18.57"/><path class="cls-27" d="M943.72,93.38l-1.5-1.56-2.77-2.88a2,2,0,0,1,2.85-2.75l2.78,2.89,1.5,1.56,1.79-1.73-4.28-4.44a4.46,4.46,0,0,0-6.43,6.19l4.27,4.45Z"/><rect class="cls-28" x="945.37" y="87.64" width="2.49" height="2.49" transform="translate(1690.42 -503.34) rotate(136.11)"/><rect class="cls-28" x="940.72" y="92.11" width="2.49" height="2.49" transform="translate(1685.53 -492.43) rotate(136.11)"/><path class="cls-27" d="M955.31,69.67l-2.17-.06-4-.11a2,2,0,0,1,.11-4l4,.11,2.17.06.07-2.49-6.17-.17a4.47,4.47,0,1,0-.25,8.93l6.17.17Z"/><rect class="cls-28" x="952.97" y="63.19" width="2.49" height="2.49" transform="translate(1045.06 -887.63) rotate(91.59)"/><rect class="cls-28" x="952.79" y="69.63" width="2.49" height="2.49" transform="translate(1051.31 -880.82) rotate(91.59)"/><path class="cls-27" d="M940.63,44l-1.32,1.71-2.44,3.18a2,2,0,0,1-3.14-2.41l2.44-3.18,1.31-1.72-2-1.51L931.76,45a4.46,4.46,0,1,0,7.08,5.44l3.76-4.89Z"/><rect class="cls-28" x="934.5" y="40.58" width="2.49" height="2.49" transform="translate(219 -561.2) rotate(37.52)"/><rect class="cls-28" x="939.61" y="44.51" width="2.49" height="2.49" transform="translate(222.44 -563.5) rotate(37.52)"/><path class="cls-3" d="M949.18,90.68a2.13,2.13,0,0,0-.11.51.37.37,0,0,0,0,.2s.1.06.33,0a1.93,1.93,0,0,1,.87,0h0a.37.37,0,0,1,.27.39l-.05.85c0,.07,0,.11,0,.09s-.08-.08-.08-.06a2.1,2.1,0,0,1,.43.08,1,1,0,0,1,.56,1c0,.31-.08.64-.06.81s.26.18.51.14a6.62,6.62,0,0,1,.85-.13.83.83,0,0,1,.78.41.91.91,0,0,0,.2.36c.09.07.31.06.31-.11,0,.17-.22.22-.34.15a.94.94,0,0,1-.26-.35.67.67,0,0,0-.68-.26A6.35,6.35,0,0,0,952,95a1.5,1.5,0,0,1-.48,0,.52.52,0,0,1-.47-.37,8,8,0,0,1,0-.88c0-.22-.17-.41-.27-.42s-.14,0-.4,0a.58.58,0,0,1-.38-.34,1,1,0,0,1-.06-.33l0-.85.3.4a1.25,1.25,0,0,0-.49.09,1.29,1.29,0,0,1-1-.06,1.18,1.18,0,0,1-.58-1,3,3,0,0,1,.06-.86h0a.57.57,0,0,1,1.12.21S949.19,90.65,949.18,90.68Z"/><path class="cls-3" d="M943.4,94.76a8.73,8.73,0,0,1,2-.49h0a.46.46,0,0,1,.5.34,1.84,1.84,0,0,1,0,1,5.54,5.54,0,0,1-.35.77,2.33,2.33,0,0,0-.4,1.25l-.56-.16a5.39,5.39,0,0,1,2.25-1.31h0a.18.18,0,0,1,.22.09,1,1,0,0,1,0,.66c0,.13,0,.2.16.27s.59,0,1-.12A1.47,1.47,0,0,1,950,98.2h0l.14-.3-.11.31h0a0,0,0,0,0,0,0,1.33,1.33,0,0,0-1.65-.89,1.63,1.63,0,0,1-1.16.2.62.62,0,0,1-.42-.58c0-.23,0-.4,0-.42l.25.09A4.9,4.9,0,0,0,945.07,98a.32.32,0,0,1-.46,0,.36.36,0,0,1-.11-.17v0a2.88,2.88,0,0,1,.31-1.72,1.62,1.62,0,0,0,.21-1.18l.54.33a8.77,8.77,0,0,0-1.72.6.57.57,0,1,1-.49-1Z"/><path class="cls-3" d="M956.38,64.13a2.94,2.94,0,0,1,2.06-.33,1.43,1.43,0,0,1,.9.79,4.08,4.08,0,0,1,.1.44c0,.06-.09,0,0,0a1.74,1.74,0,0,0,.35-.17l.43-.2a4.17,4.17,0,0,1,2.69-.09,3.74,3.74,0,0,0-1.73.14,3.62,3.62,0,0,0-.78.34l-.35.23a2.11,2.11,0,0,1-.41.29.58.58,0,0,1-.45,0,.69.69,0,0,1-.3-.32c-.09-.19-.12-.35-.16-.4a.71.71,0,0,0-.47-.26,2.21,2.21,0,0,0-1.31.52.58.58,0,0,1-.79-.16.59.59,0,0,1,.16-.8Z"/><path class="cls-3" d="M956.91,70.67a3.22,3.22,0,0,0,.86-.18c.29-.09.51-.27,1-.44a1.29,1.29,0,0,1,.76,0,.92.92,0,0,1,.63.57c.16.49,0,.4.29.44s.51-.27,1-.35.73.07,1,0,.64-.23,1-.28a3.14,3.14,0,0,1,1.06,0l0,0a.36.36,0,0,0-.35-.25.38.38,0,0,1,.41.23.05.05,0,0,1,0,0h0a3.06,3.06,0,0,0-1,.13c-.33.09-.6.28-1,.41a8.52,8.52,0,0,1-1,.15c-.25.06-.46.35-.94.48a.82.82,0,0,1-.78-.19,1.82,1.82,0,0,1-.3-.56c0-.09-.19-.1-.39,0s-.51.38-.86.56a4.45,4.45,0,0,1-1.13.39h0a.57.57,0,1,1-.22-1.12Z"/><path class="cls-3" d="M937,39.6c-.07.07,0,.06.08-.13l.1-.31a1.53,1.53,0,0,1,.23-.44,1.18,1.18,0,0,1,.44-.37.76.76,0,0,1,.72.07,1.23,1.23,0,0,1,.31.32c.06.09.05,0,0,.06l-.32.29.36-1.3c0-.07,0-.3.32-.45a.42.42,0,0,1,.31,0l.15.08.59.33-.2.1a8.89,8.89,0,0,1,.62-1.68,8.68,8.68,0,0,0-.34,1.73.13.13,0,0,1-.15.12h-.05l-.63-.23c-.09,0-.29-.09-.17-.07s0,0,0,.13l-.15,1.33a.32.32,0,0,1-.28.29h0a.74.74,0,0,1-.59-.25c-.1-.09-.17-.16-.18-.15s.07,0,.08,0,0,0,0,.09a.37.37,0,0,0-.05.17l-.06.34a1.41,1.41,0,0,1-.16.46,1,1,0,0,1-.51.47.57.57,0,0,1-.4-1.07Z"/><path class="cls-3" d="M941.64,43.78l.26-.72.14-.37a.92.92,0,0,1,.19-.34.68.68,0,0,1,.46-.21,1.07,1.07,0,0,1,.51.12c.09,0,0,0,.06,0s.07,0,.1-.11a.69.69,0,0,0,0-.28,1.59,1.59,0,0,1,.15-.87,2.34,2.34,0,0,1,.6-.58,1.2,1.2,0,0,0,.47-.53.51.51,0,0,0-.13-.65.57.57,0,0,1,.26.69,1.31,1.31,0,0,1-.41.7,2.15,2.15,0,0,0-.41.56,1.08,1.08,0,0,0,0,.63,1.06,1.06,0,0,1-.29,1A.8.8,0,0,1,943,43c-.16,0-.29-.05-.24,0s.2-.15.16-.05l-.06.37-.13.76a.57.57,0,1,1-1.13-.19Z"/><circle class="cls-22" cx="832.89" cy="102.09" r="5.13"/><line class="cls-22" x1="913.65" y1="15.17" x2="828.82" y2="98.97"/><line class="cls-22" x1="949.73" y1="131.13" x2="832.89" y2="107.23"/><path class="cls-29" d="M939.47,92.76l-1.6,0,0,1.62-1.31,0,0-1.61-1.56,0,0-1.28,1.56,0,0-1.57,1.31,0,0,1.57,1.59,0Z"/><path class="cls-29" d="M951.35,74.07l-1.59,0,0,1.62-1.31,0,0-1.61-1.56,0,0-1.28,1.56,0,0-1.57,1.31,0,0,1.57,1.6,0Z"/><path class="cls-29" d="M941.21,51.83l-1.59,0,0,1.62-1.31,0,0-1.61-1.56,0,0-1.28,1.56,0,0-1.57,1.31,0,0,1.57,1.6,0Z"/><circle class="cls-30" cx="833.65" cy="462.07" r="20.93"/><path class="cls-3" d="M840.83,459h1.74v-1.71H844V459h1.7v1.4H844v1.76h-1.44v-1.76h-1.74Z"/><path class="cls-3" d="M829.88,455.67v6.07h5.81v-6.07h3.2V470.9h-3.2v-6.07h-5.81v6.07h-3.2V455.67Z"/><path class="cls-31" d="M20.93,26.74V38H18.57V27.18c0-4.8-2.36-7.28-5.84-7.28-3.32,0-5.92,2.48-5.92,7.28V38H4.41V6h2.4V21.34a7.31,7.31,0,0,1,6.44-3.68C17.37,17.66,20.93,20.58,20.93,26.74Z"/><path class="cls-31" d="M43,18,31.05,46h-2.4l3.6-8.48L23.85,18h2.6l7,16.88L40.37,18Z"/><path class="cls-31" d="M64.05,6V38h-2.4V33.9a8.74,8.74,0,0,1-7.6,4.4c-5.56,0-9.44-4.6-9.44-10.24s3.88-10.28,9.44-10.28a8.7,8.7,0,0,1,7.6,4.44V6Zm-2.4,22c0-4.28-3.08-8-7.36-8s-7.24,3.64-7.24,8S50,36,54.29,36,61.65,32.34,61.65,28.06Z"/><path class="cls-31" d="M78.85,17.7v2.72c-3.24-.24-5.76,2.48-5.76,6.6V38h-2.4V18h2.4V21.7A6.55,6.55,0,0,1,78.85,17.7Z"/><path class="cls-31" d="M80.65,28a10.12,10.12,0,1,1,20.23,0,10.12,10.12,0,1,1-20.23,0Zm17.84,0a7.7,7.7,0,1,0-15.4,0,7.7,7.7,0,1,0,15.4,0Z"/><path class="cls-31" d="M106.13,6h2.4V38h-2.4Z"/><path class="cls-31" d="M131.08,18,119.17,46h-2.4l3.6-8.48L112,18h2.6l7,16.88L128.49,18Z"/><path class="cls-31" d="M133,35.18l1.64-1.76a6.5,6.5,0,0,0,4.88,2.6c2.16,0,3.88-1.24,3.88-3.2,0-5-10-3.36-9.92-10,0-2.88,2.48-5.08,5.84-5.12a8.35,8.35,0,0,1,6,2.84l-1.48,1.72A6.33,6.33,0,0,0,139.33,20c-2,0-3.44,1.2-3.48,2.8-.08,4.64,10,3,9.92,10,0,3.08-2.56,5.48-6.36,5.48A8.66,8.66,0,0,1,133,35.18Z"/><path class="cls-31" d="M150.85,12.34a1.67,1.67,0,0,1,1.68-1.71,1.71,1.71,0,0,1,1.72,1.71A1.67,1.67,0,0,1,152.53,14,1.64,1.64,0,0,1,150.85,12.34Zm.52,5.68h2.4V38h-2.4Z"/><path class="cls-31" d="M159.33,35.18,161,33.42a6.5,6.5,0,0,0,4.88,2.6c2.16,0,3.88-1.24,3.88-3.2,0-5-10-3.36-9.92-10,0-2.88,2.48-5.08,5.84-5.12a8.35,8.35,0,0,1,6,2.84l-1.48,1.72A6.33,6.33,0,0,0,165.69,20c-2,0-3.44,1.2-3.48,2.8-.08,4.64,10,3,9.92,10,0,3.08-2.56,5.48-6.36,5.48A8.66,8.66,0,0,1,159.33,35.18Z"/><path class="cls-32" d="M2.16,81.05a1.09,1.09,0,0,1,1.09-1.12,1.11,1.11,0,0,1,1.12,1.12,1.09,1.09,0,0,1-1.12,1.09A1.07,1.07,0,0,1,2.16,81.05Zm.34,3.69H4.06v13H2.5Z"/><path class="cls-32" d="M19.4,90.41v7.33H17.86v-7c0-3.12-1.53-4.73-3.79-4.73-2,0-3.62,1.38-3.83,4.08v7.7H8.68v-13h1.56v2.13a4.74,4.74,0,0,1,4.16-2.36C17.08,84.51,19.4,86.4,19.4,90.41Z"/><path class="cls-32" d="M37.08,86.25H34.4V97.74H32.84V86.25H31.17V84.74h1.67V81.26H34.4v3.48h2.68Z"/><path class="cls-32" d="M50.41,90.41v7.33H48.88v-7c0-3.12-1.53-4.73-3.8-4.73s-3.84,1.61-3.84,4.73v7H39.68V76.94h1.56v10a4.73,4.73,0,0,1,4.18-2.39C48.1,84.51,50.41,86.4,50.41,90.41Z"/><path class="cls-32" d="M65.55,91.79H54.81a4.84,4.84,0,0,0,5,4.65,6.31,6.31,0,0,0,4.42-1.79v1.76a7.08,7.08,0,0,1-4.47,1.51,6.68,6.68,0,0,1-.26-13.34C63.36,84.58,65.62,88,65.55,91.79ZM54.83,90.41h9.05c-.34-2.42-2-4.32-4.39-4.32A4.7,4.7,0,0,0,54.83,90.41Z"/><path class="cls-32" d="M76.78,95.89l1.06-1.14A4.24,4.24,0,0,0,81,96.44a2.25,2.25,0,0,0,2.53-2.08c0-3.25-6.48-2.18-6.45-6.5a3.54,3.54,0,0,1,3.79-3.33,5.41,5.41,0,0,1,3.93,1.85l-1,1.12A4.1,4.1,0,0,0,80.91,86a2,2,0,0,0-2.26,1.82c-.05,3,6.47,2,6.45,6.53,0,2-1.67,3.56-4.14,3.56A5.6,5.6,0,0,1,76.78,95.89Z"/><path class="cls-32" d="M87.41,91.21A6.58,6.58,0,1,1,94,97.92,6.53,6.53,0,0,1,87.41,91.21Zm11.6,0a5,5,0,1,0-5,5.18A5,5,0,0,0,99,91.21Z"/><path class="cls-32" d="M104,81.05a1.09,1.09,0,0,1,1.09-1.12,1.11,1.11,0,0,1,1.12,1.12,1.09,1.09,0,0,1-1.12,1.09A1.07,1.07,0,0,1,104,81.05Zm.34,3.69h1.56v13h-1.56Z"/><path class="cls-32" d="M110.5,76.94h1.56v20.8H110.5Z"/><path class="cls-32" d="M124.33,95.89l1.07-1.14a4.23,4.23,0,0,0,3.17,1.69,2.25,2.25,0,0,0,2.52-2.08c0-3.25-6.47-2.18-6.45-6.5a3.55,3.55,0,0,1,3.8-3.33,5.41,5.41,0,0,1,3.92,1.85l-1,1.12A4.08,4.08,0,0,0,128.46,86a2,2,0,0,0-2.26,1.82c0,3,6.48,2,6.45,6.53,0,2-1.66,3.56-4.13,3.56A5.6,5.6,0,0,1,124.33,95.89Z"/><path class="cls-32" d="M135,91.21a6.58,6.58,0,1,1,6.58,6.71A6.53,6.53,0,0,1,135,91.21Zm11.6,0a5,5,0,1,0-5,5.18A5,5,0,0,0,146.56,91.21Z"/><path class="cls-32" d="M151.53,76.94h1.56v20.8h-1.56Z"/><path class="cls-32" d="M167.91,84.74v13h-1.56V95.61A4.74,4.74,0,0,1,162.19,98c-2.68,0-5-1.89-5-5.9V84.74h1.54v7.05c0,3.12,1.53,4.73,3.79,4.73,2,0,3.62-1.38,3.83-4.08v-7.7Z"/><path class="cls-32" d="M176.82,86.25h-2.67V97.74h-1.56V86.25h-1.67V84.74h1.67V81.26h1.56v3.48h2.67Z"/><path class="cls-32" d="M179.42,81.05a1.09,1.09,0,0,1,1.1-1.12,1.1,1.1,0,0,1,1.11,1.12,1.08,1.08,0,0,1-1.11,1.09A1.07,1.07,0,0,1,179.42,81.05Zm.34,3.69h1.56v13h-1.56Z"/><path class="cls-32" d="M185,91.21a6.58,6.58,0,1,1,6.58,6.71A6.53,6.53,0,0,1,185,91.21Zm11.6,0a5,5,0,1,0-5,5.18A5,5,0,0,0,196.64,91.21Z"/><path class="cls-32" d="M212.31,90.41v7.33h-1.53v-7c0-3.12-1.53-4.73-3.8-4.73-2,0-3.61,1.38-3.82,4.08v7.7H201.6v-13h1.56v2.13a4.74,4.74,0,0,1,4.16-2.36C210,84.51,212.31,86.4,212.31,90.41Z"/><path class="cls-32" d="M216,94.46h1.59l-1.28,6.11h-1.11Z"/><path class="cls-32" d="M240.44,90.41v7.33h-1.53v-7c0-3.12-1.53-4.73-3.8-4.73s-3.84,1.61-3.84,4.73v7h-1.56V76.94h1.56v10a4.73,4.73,0,0,1,4.18-2.39C238.13,84.51,240.44,86.4,240.44,90.41Z"/><path class="cls-32" d="M244.55,81.05a1.09,1.09,0,0,1,1.09-1.12,1.11,1.11,0,0,1,1.12,1.12,1.09,1.09,0,0,1-1.12,1.09A1.07,1.07,0,0,1,244.55,81.05Zm.34,3.69h1.56v13h-1.56Z"/><path class="cls-32" d="M262.8,97.17c0,4-3.09,6-6.13,6a9.07,9.07,0,0,1-4.86-1.45l0-1.69a8.22,8.22,0,0,0,4.66,1.69,4.51,4.51,0,0,0,4.81-4.87V95a5.71,5.71,0,0,1-5,2.94c-3.61,0-6.13-3-6.13-6.65s2.52-6.69,6.13-6.69a5.63,5.63,0,0,1,4.95,2.92V84.74h1.53Zm-1.55-5.9a5,5,0,0,0-4.79-5.18c-2.78,0-4.71,2.37-4.71,5.18a4.83,4.83,0,0,0,4.71,5.14A4.92,4.92,0,0,0,261.25,91.27Z"/><path class="cls-32" d="M277.86,90.41v7.33h-1.54v-7c0-3.12-1.53-4.73-3.79-4.73s-3.85,1.61-3.85,4.73v7h-1.56V76.94h1.56v10a4.75,4.75,0,0,1,4.19-2.39C275.54,84.51,277.86,86.4,277.86,90.41Z"/><path class="cls-32" d="M290,91.24a6.7,6.7,0,0,1,11-5.17V88a5.59,5.59,0,0,0-4.29-1.92,5.17,5.17,0,0,0,0,10.34A5.59,5.59,0,0,0,301,94.49v1.92a6.7,6.7,0,0,1-11-5.17Z"/><path class="cls-32" d="M315.4,90.41v7.33h-1.53v-7c0-3.12-1.54-4.73-3.8-4.73s-3.85,1.61-3.85,4.73v7h-1.56V76.94h1.56v10a4.76,4.76,0,0,1,4.19-2.39C313.09,84.51,315.4,86.4,315.4,90.41Z"/><path class="cls-32" d="M330.85,84.74v13h-1.56V95.06a5.7,5.7,0,0,1-4.94,2.86c-3.62,0-6.14-3-6.14-6.65s2.52-6.69,6.14-6.69a5.66,5.66,0,0,1,4.94,2.89V84.74Zm-1.56,6.53a5,5,0,0,0-4.79-5.18c-2.78,0-4.7,2.37-4.7,5.18s1.92,5.14,4.7,5.14A4.92,4.92,0,0,0,329.29,91.27Z"/><path class="cls-32" d="M340.47,84.53V86.3c-2.11-.16-3.75,1.61-3.75,4.29v7.15h-1.56v-13h1.56v2.39A4.27,4.27,0,0,1,340.47,84.53Z"/><path class="cls-32" d="M354.27,97.17c0,4-3.09,6-6.13,6a9.1,9.1,0,0,1-4.87-1.45l0-1.69a8.22,8.22,0,0,0,4.65,1.69,4.51,4.51,0,0,0,4.81-4.87V95a5.68,5.68,0,0,1-5,2.94c-3.61,0-6.13-3-6.13-6.65s2.52-6.69,6.13-6.69a5.6,5.6,0,0,1,4.94,2.92V84.74h1.54Zm-1.56-5.9a5,5,0,0,0-4.78-5.18c-2.78,0-4.71,2.37-4.71,5.18a4.83,4.83,0,0,0,4.71,5.14A4.92,4.92,0,0,0,352.71,91.27Z"/><path class="cls-32" d="M370,91.79H359.26a4.85,4.85,0,0,0,5,4.65,6.31,6.31,0,0,0,4.42-1.79v1.76a7.08,7.08,0,0,1-4.48,1.51,6.68,6.68,0,0,1-.26-13.34C367.82,84.58,370.08,88,370,91.79Zm-10.71-1.38h9c-.34-2.42-1.95-4.32-4.4-4.32A4.7,4.7,0,0,0,359.29,90.41Z"/><path class="cls-32" d="M381.34,91.24a6.7,6.7,0,0,1,11-5.17V88A5.59,5.59,0,0,0,388,86.07a5.17,5.17,0,0,0,0,10.34,5.59,5.59,0,0,0,4.29-1.92v1.92a6.7,6.7,0,0,1-11-5.17Z"/><path class="cls-32" d="M407.7,84.74v13h-1.56V95.06a5.68,5.68,0,0,1-4.94,2.86c-3.61,0-6.14-3-6.14-6.65s2.53-6.69,6.14-6.69a5.65,5.65,0,0,1,4.94,2.89V84.74Zm-1.56,6.53a5,5,0,0,0-4.78-5.18c-2.79,0-4.71,2.37-4.71,5.18s1.92,5.14,4.71,5.14A4.92,4.92,0,0,0,406.14,91.27Z"/><path class="cls-32" d="M416.62,86.25h-2.68V97.74h-1.56V86.25h-1.66V84.74h1.66V81.26h1.56v3.48h2.68Z"/><path class="cls-32" d="M419.22,81.05a1.09,1.09,0,0,1,1.09-1.12,1.11,1.11,0,0,1,1.12,1.12,1.09,1.09,0,0,1-1.12,1.09A1.07,1.07,0,0,1,419.22,81.05Zm.34,3.69h1.56v13h-1.56Z"/><path class="cls-32" d="M424.83,91.21a6.58,6.58,0,1,1,6.58,6.71A6.53,6.53,0,0,1,424.83,91.21Zm11.6,0a5,5,0,1,0-5,5.18A5,5,0,0,0,436.43,91.21Z"/><path class="cls-32" d="M452.11,90.41v7.33h-1.54v-7c0-3.12-1.53-4.73-3.79-4.73-2,0-3.62,1.38-3.82,4.08v7.7H441.4v-13H443v2.13a4.72,4.72,0,0,1,4.16-2.36C449.79,84.51,452.11,86.4,452.11,90.41Z"/><path class="cls-32" d="M455.38,95.89l1.07-1.14a4.23,4.23,0,0,0,3.17,1.69,2.25,2.25,0,0,0,2.52-2.08c0-3.25-6.47-2.18-6.45-6.5a3.56,3.56,0,0,1,3.8-3.33,5.41,5.41,0,0,1,3.93,1.85l-1,1.12A4.1,4.1,0,0,0,459.52,86a2,2,0,0,0-2.27,1.82c-.05,3,6.48,2,6.45,6.53,0,2-1.66,3.56-4.13,3.56A5.63,5.63,0,0,1,455.38,95.89Z"/><path class="cls-32" d="M476,76.94h1.56v20.8H476Z"/><path class="cls-32" d="M481.85,81.05a1.09,1.09,0,0,1,1.09-1.12,1.11,1.11,0,0,1,1.12,1.12,1.09,1.09,0,0,1-1.12,1.09A1.07,1.07,0,0,1,481.85,81.05Zm.34,3.69h1.56v13h-1.56Z"/><path class="cls-32" d="M496.33,97.74l-6.39-6v6h-1.56V76.94h1.56v14l6.18-6.16h2l-6.66,6.58,6.94,6.42Z"/><path class="cls-32" d="M511.44,91.79H500.7a4.84,4.84,0,0,0,5,4.65,6.31,6.31,0,0,0,4.42-1.79v1.76a7.08,7.08,0,0,1-4.47,1.51,6.68,6.68,0,0,1-.26-13.34C509.25,84.58,511.52,88,511.44,91.79Zm-10.71-1.38h9c-.33-2.42-1.95-4.32-4.39-4.32A4.68,4.68,0,0,0,500.73,90.41Z"/><path class="cls-32" d="M525.48,81.1v7.36h5.41V90h-5.41v7.77h-1.56V79.54h9.18V81.1Z"/><path class="cls-32" d="M545.71,91.79H535a4.84,4.84,0,0,0,5,4.65,6.31,6.31,0,0,0,4.42-1.79v1.76a7.08,7.08,0,0,1-4.47,1.51,6.68,6.68,0,0,1-.26-13.34C543.52,84.58,545.78,88,545.71,91.79ZM535,90.41h9c-.34-2.42-1.95-4.32-4.39-4.32A4.7,4.7,0,0,0,535,90.41Z"/><path class="cls-32" d="M553,85.34a2.9,2.9,0,0,1-5.67.67l1.14-.46a1.72,1.72,0,0,0,1.64,1.32,1.59,1.59,0,1,0,0-3.17,2.39,2.39,0,0,0-1,.21l-.6-.63,2.26-2.52h-3.14V79.54h4.81v1l-1.9,2.13A2.69,2.69,0,0,1,553,85.34Z"/><path class="cls-32" d="M560.16,84.88h-2.47v2.43h-.85V84.88h-2.46v-.83h2.46V81.73h.85v2.32h2.47Z"/><path class="cls-32" d="M583.73,84.74v13h-1.56V95.06a5.7,5.7,0,0,1-4.94,2.86c-3.62,0-6.14-3-6.14-6.65s2.52-6.69,6.14-6.69a5.66,5.66,0,0,1,4.94,2.89V84.74Zm-1.56,6.53a5,5,0,0,0-4.79-5.18c-2.78,0-4.71,2.37-4.71,5.18a4.83,4.83,0,0,0,4.71,5.14A4.92,4.92,0,0,0,582.17,91.27Z"/><path class="cls-32" d="M598.75,90.41v7.33h-1.53v-7c0-3.12-1.54-4.73-3.8-4.73-2,0-3.61,1.38-3.82,4.08v7.7H588v-13h1.56v2.13a4.73,4.73,0,0,1,4.16-2.36C596.44,84.51,598.75,86.4,598.75,90.41Z"/><path class="cls-32" d="M614.2,76.94v20.8h-1.56V95.06a5.7,5.7,0,0,1-4.94,2.86c-3.62,0-6.14-3-6.14-6.65s2.52-6.69,6.14-6.69a5.66,5.66,0,0,1,4.94,2.89V76.94Zm-1.56,14.33a5,5,0,0,0-4.79-5.18c-2.78,0-4.7,2.37-4.7,5.18s1.92,5.14,4.7,5.14A4.92,4.92,0,0,0,612.64,91.27Z"/><path class="cls-32" d="M12.56,129.14H3.77l-1.92,4.6H.13L8,115.28h.24l7.93,18.46H14.48Zm-.63-1.51-3.77-9-3.77,9Z"/><path class="cls-32" d="M18.49,112.94h1.56v20.8H18.49Z"/><path class="cls-32" d="M28.42,121.34a2.9,2.9,0,0,1-5.67.67l1.14-.46a1.73,1.73,0,0,0,1.64,1.32,1.59,1.59,0,1,0,0-3.17,2.39,2.39,0,0,0-1,.21l-.6-.63,2.26-2.52H23.09v-1.22H27.9v1L26,118.63A2.69,2.69,0,0,1,28.42,121.34Z"/><path class="cls-32" d="M35.54,120.88H33.07v2.43h-.85v-2.43H29.76v-.83h2.46v-2.32h.85v2.32h2.47Z"/><path class="cls-32" d="M59.11,120.74v13H57.55v-2.68a5.7,5.7,0,0,1-4.94,2.86c-3.62,0-6.14-3-6.14-6.65s2.52-6.69,6.14-6.69a5.66,5.66,0,0,1,4.94,2.89v-2.73Zm-1.56,6.53a5,5,0,0,0-4.79-5.18c-2.78,0-4.7,2.37-4.7,5.18s1.92,5.14,4.7,5.14A4.92,4.92,0,0,0,57.55,127.27Z"/><path class="cls-32" d="M62.51,127.24a6.7,6.7,0,0,1,11-5.17V124a5.58,5.58,0,0,0-4.29-1.92,5.17,5.17,0,0,0,0,10.34,5.58,5.58,0,0,0,4.29-1.92v1.92a6.7,6.7,0,0,1-11-5.17Z"/><path class="cls-32" d="M81.75,122.25H79.07v11.49H77.51V122.25H75.85v-1.51h1.66v-3.48h1.56v3.48h2.68Z"/><path class="cls-32" d="M93.32,112.94h1.56v20.8H93.32Z"/><path class="cls-32" d="M99.2,117.05a1.09,1.09,0,0,1,1.09-1.12,1.11,1.11,0,0,1,1.12,1.12,1.09,1.09,0,0,1-1.12,1.09A1.07,1.07,0,0,1,99.2,117.05Zm.34,3.69h1.56v13H99.54Z"/><path class="cls-32" d="M113.68,133.74l-6.4-6v6h-1.56v-20.8h1.56v14l6.19-6.16h2l-6.65,6.58,6.94,6.42Z"/><path class="cls-32" d="M128.79,127.79H118.05a4.84,4.84,0,0,0,5,4.65,6.31,6.31,0,0,0,4.42-1.79v1.76a7.08,7.08,0,0,1-4.47,1.51,6.68,6.68,0,0,1-.26-13.34C126.6,120.58,128.86,124,128.79,127.79Zm-10.72-1.38h9.05c-.34-2.42-2-4.32-4.39-4.32A4.7,4.7,0,0,0,118.07,126.41Z"/><path class="cls-32" d="M159.26,120.74l-6.69,13.16h-.85L149,128.41l-2.68,5.49h-.89l-6.65-13.16h1.69l5.46,10.89,2.29-4.75-3-6.14h1.64l2.18,4.65,2.19-4.65h1.63l-3,6.14,2.34,4.75,5.44-10.89Z"/><path class="cls-32" d="M172.54,127.79H161.8a4.85,4.85,0,0,0,5,4.65,6.31,6.31,0,0,0,4.42-1.79v1.76a7.08,7.08,0,0,1-4.48,1.51,6.68,6.68,0,0,1-.26-13.34C170.36,120.58,172.62,124,172.54,127.79Zm-10.71-1.38h9c-.34-2.42-1.95-4.32-4.4-4.32A4.7,4.7,0,0,0,161.83,126.41Z"/><path class="cls-32" d="M187.54,120.74v13H186v-2.68a5.67,5.67,0,0,1-4.94,2.86c-3.61,0-6.13-3-6.13-6.65s2.52-6.69,6.13-6.69a5.64,5.64,0,0,1,4.94,2.89v-2.73ZM186,127.27a5,5,0,0,0-4.78-5.18c-2.78,0-4.71,2.37-4.71,5.18a4.83,4.83,0,0,0,4.71,5.14A4.92,4.92,0,0,0,186,127.27Z"/><path class="cls-32" d="M199.81,133.74l-6.39-6v6h-1.56v-20.8h1.56v14l6.19-6.16h2L195,127.32l7,6.42Z"/><path class="cls-32" d="M225,120.74v13h-1.56v-2.68a5.67,5.67,0,0,1-4.94,2.86c-3.61,0-6.13-3-6.13-6.65s2.52-6.69,6.13-6.69a5.64,5.64,0,0,1,4.94,2.89v-2.73Zm-1.56,6.53a5,5,0,0,0-4.78-5.18c-2.78,0-4.71,2.37-4.71,5.18a4.83,4.83,0,0,0,4.71,5.14A4.92,4.92,0,0,0,223.42,127.27Z"/><path class="cls-32" d="M228.39,127.24a6.7,6.7,0,0,1,11-5.17V124a5.58,5.58,0,0,0-4.29-1.92,5.17,5.17,0,0,0,0,10.34,5.58,5.58,0,0,0,4.29-1.92v1.92a6.7,6.7,0,0,1-11-5.17Z"/><path class="cls-32" d="M243,117.05a1.08,1.08,0,0,1,1.09-1.12,1.11,1.11,0,0,1,1.12,1.12,1.09,1.09,0,0,1-1.12,1.09A1.06,1.06,0,0,1,243,117.05Zm.33,3.69h1.56v13h-1.56Z"/><path class="cls-32" d="M261.28,112.94v20.8h-1.56v-2.68a5.7,5.7,0,0,1-4.94,2.86c-3.62,0-6.14-3-6.14-6.65s2.52-6.69,6.14-6.69a5.66,5.66,0,0,1,4.94,2.89V112.94Zm-1.56,14.33a5,5,0,0,0-4.79-5.18c-2.78,0-4.7,2.37-4.7,5.18s1.92,5.14,4.7,5.14A4.92,4.92,0,0,0,259.72,127.27Z"/><path class="cls-32" d="M264.58,131.89l1.07-1.14a4.23,4.23,0,0,0,3.17,1.69,2.25,2.25,0,0,0,2.52-2.08c0-3.25-6.47-2.18-6.45-6.5a3.55,3.55,0,0,1,3.8-3.33,5.41,5.41,0,0,1,3.92,1.85l-1,1.12a4.08,4.08,0,0,0-2.94-1.46,2,2,0,0,0-2.26,1.82c-.05,3,6.48,2,6.45,6.53,0,2-1.66,3.56-4.13,3.56A5.6,5.6,0,0,1,264.58,131.89Z"/><path class="cls-32" d="M275.81,130.46h1.59l-1.28,6.11H275Z"/><path class="cls-32" d="M302.41,127.24c0,3.72-2.29,6.68-5.85,6.68a4.91,4.91,0,0,1-3.88-1.82v1.64h-3.74v-20.8h3.74v9.41a4.91,4.91,0,0,1,3.88-1.82C300.12,120.53,302.41,123.5,302.41,127.24Zm-3.93,0a2.89,2.89,0,0,0-2.88-3.07,3.07,3.07,0,0,0,0,6.14A2.91,2.91,0,0,0,298.48,127.24Z"/><path class="cls-32" d="M312.29,120.45v4.32c-1.67-.36-3.62,0-3.62,2.68v6.29h-3.74v-13h3.74v2A4.42,4.42,0,0,1,312.29,120.45Z"/><path class="cls-32" d="M325.83,128.44h-8.91a3.19,3.19,0,0,0,3.3,2.15,9.37,9.37,0,0,0,4.11-1l0,3.36a9.22,9.22,0,0,1-4.42,1,6.71,6.71,0,0,1-.28-13.42C323.88,120.53,326.2,124.15,325.83,128.44Zm-8.91-2.34h5.27a2.63,2.63,0,0,0-2.54-2.11A2.78,2.78,0,0,0,316.92,126.1Z"/><path class="cls-32" d="M341.12,120.74v13h-3.74v-1.66a4.88,4.88,0,0,1-3.9,1.84c-3.56,0-5.85-3-5.85-6.71s2.29-6.68,5.85-6.68a4.86,4.86,0,0,1,3.9,1.85v-1.64Zm-3.77,6.47a3,3,0,0,0-2.91-3.06,3.07,3.07,0,0,0,0,6.13A3,3,0,0,0,337.35,127.21Z"/><path class="cls-32" d="M352.2,133.74l-4.14-5.69v5.69h-3.74v-20.8h3.74v13.62l4-5.82h4.39l-4.65,6.55,5,6.45Z"/><path class="cls-32" d="M358.57,116.4a2.35,2.35,0,1,1,2.34,2.36A2.33,2.33,0,0,1,358.57,116.4Zm.49,4.34h3.74v13h-3.74Z"/><path class="cls-32" d="M378.4,125.86v7.88h-3.74v-7c0-1.77-1-2.76-2.24-2.76s-2,.81-2.18,2.27v7.51H366.5v-13h3.74v1.56a4.66,4.66,0,0,1,3.74-1.82C376.48,120.48,378.4,122.35,378.4,125.86Z"/><path class="cls-32" d="M394.24,133c0,4-3.07,6.13-6.61,6.13a11.27,11.27,0,0,1-5-1.19l0-3.54a8.24,8.24,0,0,0,4.31,1.43c2.06,0,3.57-1,3.57-3.46v-.36a4.94,4.94,0,0,1-3.93,1.87c-3.56,0-5.85-3-5.85-6.71s2.29-6.68,5.85-6.68a4.91,4.91,0,0,1,3.87,1.82v-1.61h3.72Zm-3.75-5.83a3,3,0,0,0-2.91-3.06,3.07,3.07,0,0,0,0,6.13A3,3,0,0,0,390.49,127.21Z"/><path class="cls-32" d="M418.63,120.74v13h-3.75v-1.66a4.88,4.88,0,0,1-3.9,1.84c-3.56,0-5.85-3-5.85-6.71s2.29-6.68,5.85-6.68a4.86,4.86,0,0,1,3.9,1.85v-1.64Zm-3.77,6.47a3,3,0,0,0-2.92-3.06,3.07,3.07,0,0,0,0,6.13A3,3,0,0,0,414.86,127.21Z"/><path class="cls-32" d="M435.29,127.24c0,3.72-2.29,6.68-5.85,6.68a4.88,4.88,0,0,1-3.9-1.84v6.86H421.8v-18.2h3.74v1.64a4.86,4.86,0,0,1,3.9-1.85C433,120.53,435.29,123.5,435.29,127.24Zm-3.92,0a2.89,2.89,0,0,0-2.89-3.07,3.07,3.07,0,0,0,0,6.14A2.91,2.91,0,0,0,431.37,127.24Z"/><path class="cls-32" d="M450.61,120.74v13h-3.75v-1.66a4.88,4.88,0,0,1-3.9,1.84c-3.56,0-5.85-3-5.85-6.71s2.29-6.68,5.85-6.68a4.86,4.86,0,0,1,3.9,1.85v-1.64Zm-3.78,6.47a3,3,0,0,0-2.91-3.06,3.07,3.07,0,0,0,0,6.13A3,3,0,0,0,446.83,127.21Z"/><path class="cls-32" d="M461.16,120.45v4.32c-1.66-.36-3.61,0-3.61,2.68v6.29H453.8v-13h3.75v2A4.39,4.39,0,0,1,461.16,120.45Z"/><path class="cls-32" d="M470.13,124.25h-2.6v9.49h-3.74v-9.49h-1.64v-3.51h1.64v-3.48h3.74v3.48h2.6Z"/><path class="cls-32" d="M499.82,120.74l-6.68,13.16h-.86l-2.73-5.49-2.68,5.49H486l-6.66-13.16H481l5.46,10.89,2.29-4.75-3-6.14h1.63l2.19,4.65,2.18-4.65h1.64l-3,6.14,2.34,4.75,5.43-10.89Z"/><path class="cls-32" d="M513.42,120.74v13h-1.56v-2.68a5.68,5.68,0,0,1-4.94,2.86c-3.61,0-6.14-3-6.14-6.65s2.53-6.69,6.14-6.69a5.65,5.65,0,0,1,4.94,2.89v-2.73Zm-1.56,6.53a5,5,0,0,0-4.78-5.18c-2.79,0-4.71,2.37-4.71,5.18s1.92,5.14,4.71,5.14A4.92,4.92,0,0,0,511.86,127.27Z"/><path class="cls-32" d="M522.34,122.25h-2.68v11.49H518.1V122.25h-1.66v-1.51h1.66v-3.48h1.56v3.48h2.68Z"/><path class="cls-32" d="M535.83,127.79H525.09a4.85,4.85,0,0,0,5,4.65,6.32,6.32,0,0,0,4.43-1.79v1.76a7.08,7.08,0,0,1-4.48,1.51,6.68,6.68,0,0,1-.26-13.34C533.65,120.58,535.91,124,535.83,127.79Zm-10.71-1.38h9c-.34-2.42-1.95-4.32-4.4-4.32A4.7,4.7,0,0,0,525.12,126.41Z"/><path class="cls-32" d="M544.41,120.53v1.77c-2.11-.16-3.74,1.61-3.74,4.29v7.15h-1.56v-13h1.56v2.39A4.25,4.25,0,0,1,544.41,120.53Z"/><path class="cls-32" d="M574.62,126l0,7.7H573v-7.38c0-2.66-1.33-4.37-3.49-4.37s-3.48,1.71-3.48,4.55l0,7.2h-1.53v-7.38c0-2.66-1.33-4.37-3.49-4.37s-3.48,1.71-3.48,4.55v7.2H556v-13h1.56v2a4.3,4.3,0,0,1,3.82-2.18,4.43,4.43,0,0,1,4.24,2.93,4.6,4.6,0,0,1,4.29-2.93C572.49,120.51,574.62,122.46,574.62,126Z"/><path class="cls-32" d="M577.4,127.21a6.58,6.58,0,1,1,6.58,6.71A6.53,6.53,0,0,1,577.4,127.21Zm11.6,0a5,5,0,1,0-5,5.18A5,5,0,0,0,589,127.21Z"/><path class="cls-32" d="M594,112.94h1.56v20.8H594Z"/><path class="cls-32" d="M611.26,127.79H600.52a4.84,4.84,0,0,0,5,4.65,6.31,6.31,0,0,0,4.42-1.79v1.76a7.08,7.08,0,0,1-4.47,1.51,6.68,6.68,0,0,1-.26-13.34C609.07,120.58,611.33,124,611.26,127.79Zm-10.72-1.38h9.05c-.34-2.42-2-4.32-4.39-4.32A4.7,4.7,0,0,0,600.54,126.41Z"/><path class="cls-32" d="M613.62,127.24a6.7,6.7,0,0,1,11-5.17V124a5.58,5.58,0,0,0-4.29-1.92,5.17,5.17,0,0,0,0,10.34,5.58,5.58,0,0,0,4.29-1.92v1.92a6.7,6.7,0,0,1-11-5.17Z"/><path class="cls-32" d="M638.76,120.74v13H637.2v-2.13A4.72,4.72,0,0,1,633,134c-2.68,0-5-1.89-5-5.9v-7.33h1.53v7.05c0,3.12,1.54,4.73,3.8,4.73,2,0,3.62-1.38,3.82-4.08v-7.7Z"/><path class="cls-32" d="M643.08,112.94h1.56v20.8h-1.56Z"/><path class="cls-32" d="M660.37,127.79H649.63a4.85,4.85,0,0,0,5,4.65,6.29,6.29,0,0,0,4.42-1.79v1.76a7,7,0,0,1-4.47,1.51,6.68,6.68,0,0,1-.26-13.34C658.19,120.58,660.45,124,660.37,127.79Zm-10.71-1.38h9.05c-.34-2.42-2-4.32-4.4-4.32A4.69,4.69,0,0,0,649.66,126.41Z"/><path class="cls-32" d="M662.5,131.89l1.07-1.14a4.23,4.23,0,0,0,3.17,1.69,2.25,2.25,0,0,0,2.52-2.08c0-3.25-6.47-2.18-6.45-6.5a3.55,3.55,0,0,1,3.8-3.33,5.41,5.41,0,0,1,3.92,1.85l-1,1.12a4.08,4.08,0,0,0-2.94-1.46,2,2,0,0,0-2.26,1.82c0,3,6.48,2,6.45,6.53,0,2-1.66,3.56-4.13,3.56A5.6,5.6,0,0,1,662.5,131.89Z"/><path class="cls-32" d="M672.93,132.78a1.07,1.07,0,0,1,1.09-1.09,1.09,1.09,0,0,1,1.09,1.09,1.08,1.08,0,0,1-1.09,1.09A1.06,1.06,0,0,1,672.93,132.78Z"/><path class="cls-32" d="M691.78,122.25H689.1v11.49h-1.56V122.25h-1.67v-1.51h1.67v-3.48h1.56v3.48h2.68Z"/><path class="cls-32" d="M705.11,126.41v7.33h-1.53v-7.05c0-3.12-1.53-4.73-3.8-4.73s-3.84,1.61-3.84,4.73v7.05h-1.56v-20.8h1.56v10a4.73,4.73,0,0,1,4.18-2.39C702.8,120.51,705.11,122.4,705.11,126.41Z"/><path class="cls-32" d="M720.25,127.79H709.51a4.84,4.84,0,0,0,5,4.65,6.31,6.31,0,0,0,4.42-1.79v1.76a7.08,7.08,0,0,1-4.47,1.51,6.68,6.68,0,0,1-.26-13.34C718.06,120.58,720.32,124,720.25,127.79Zm-10.72-1.38h9.05c-.34-2.42-2-4.32-4.39-4.32A4.7,4.7,0,0,0,709.53,126.41Z"/><path class="cls-32" d="M13.88,156.74v13H12.32v-2.68a5.67,5.67,0,0,1-4.94,2.86c-3.61,0-6.13-3-6.13-6.65s2.52-6.69,6.13-6.69a5.64,5.64,0,0,1,4.94,2.89v-2.73Zm-1.56,6.53a5,5,0,0,0-4.78-5.18c-2.78,0-4.71,2.37-4.71,5.18a4.83,4.83,0,0,0,4.71,5.14A4.92,4.92,0,0,0,12.32,163.27Z"/><path class="cls-32" d="M17.29,163.24a6.5,6.5,0,0,1,6.63-6.71,6.5,6.5,0,0,1,4.34,1.54V160A5.58,5.58,0,0,0,24,158.07a5.17,5.17,0,0,0,0,10.34,5.58,5.58,0,0,0,4.29-1.92v1.92A6.5,6.5,0,0,1,23.92,170,6.5,6.5,0,0,1,17.29,163.24Z"/><path class="cls-32" d="M31.93,153.05A1.09,1.09,0,0,1,33,151.93a1.11,1.11,0,0,1,1.12,1.12A1.09,1.09,0,0,1,33,154.14,1.07,1.07,0,0,1,31.93,153.05Zm.34,3.69h1.56v13H32.27Z"/><path class="cls-32" d="M50.18,148.94v20.8H48.62v-2.68a5.68,5.68,0,0,1-4.94,2.86c-3.61,0-6.14-3-6.14-6.65s2.53-6.69,6.14-6.69a5.65,5.65,0,0,1,4.94,2.89V148.94Zm-1.56,14.33a5,5,0,0,0-4.78-5.18c-2.79,0-4.71,2.37-4.71,5.18s1.92,5.14,4.71,5.14A4.92,4.92,0,0,0,48.62,163.27Z"/><path class="cls-32" d="M54.5,153.05a1.08,1.08,0,0,1,1.09-1.12,1.11,1.11,0,0,1,1.12,1.12,1.09,1.09,0,0,1-1.12,1.09A1.06,1.06,0,0,1,54.5,153.05Zm.33,3.69h1.56v13H54.83Z"/><path class="cls-32" d="M65.62,158.25H62.94v11.49H61.38V158.25H59.72v-1.51h1.66v-3.48h1.56v3.48h2.68Z"/><path class="cls-32" d="M78.7,156.74,71,174.94H69.39l2.34-5.51-5.46-12.69H68l4.55,11,4.5-11Z"/><path class="cls-32" d="M102,163.24c0,3.67-2.53,6.68-6.14,6.68A5.63,5.63,0,0,1,91,167.09v7.85H89.39v-18.2H91v2.68a5.64,5.64,0,0,1,4.91-2.84C99.47,156.58,102,159.57,102,163.24Zm-1.59,0c0-2.83-1.92-5.15-4.71-5.15a4.85,4.85,0,0,0-4.75,4.6v1.1a4.86,4.86,0,0,0,4.75,4.62C98.49,168.41,100.41,166.05,100.41,163.24Z"/><path class="cls-32" d="M110.71,156.53v1.77c-2.11-.16-3.75,1.61-3.75,4.29v7.15H105.4v-13H107v2.39A4.27,4.27,0,0,1,110.71,156.53Z"/><path class="cls-32" d="M111.88,163.21a6.58,6.58,0,1,1,6.57,6.71A6.52,6.52,0,0,1,111.88,163.21Zm11.59,0a5,5,0,1,0-5,5.18A5,5,0,0,0,123.47,163.21Z"/><path class="cls-32" d="M140.17,148.94v20.8H138.6v-2.68a5.67,5.67,0,0,1-4.94,2.86c-3.61,0-6.13-3-6.13-6.65s2.52-6.69,6.13-6.69a5.64,5.64,0,0,1,4.94,2.89V148.94Zm-1.57,14.33a5,5,0,0,0-4.78-5.18c-2.78,0-4.71,2.37-4.71,5.18a4.83,4.83,0,0,0,4.71,5.14A4.92,4.92,0,0,0,138.6,163.27Z"/><path class="cls-32" d="M155,156.74v13h-1.56v-2.13a4.72,4.72,0,0,1-4.16,2.36c-2.67,0-5-1.89-5-5.9v-7.33h1.54v7c0,3.12,1.53,4.73,3.79,4.73,2,0,3.62-1.38,3.82-4.08v-7.7Z"/><path class="cls-32" d="M158.39,163.24a6.7,6.7,0,0,1,11-5.17V160a5.58,5.58,0,0,0-4.29-1.92,5.17,5.17,0,0,0,0,10.34,5.58,5.58,0,0,0,4.29-1.92v1.92a6.7,6.7,0,0,1-11-5.17Z"/><path class="cls-32" d="M184.44,163.79H173.7a4.85,4.85,0,0,0,5,4.65,6.31,6.31,0,0,0,4.42-1.79v1.76a7.08,7.08,0,0,1-4.48,1.51,6.68,6.68,0,0,1-.26-13.34C182.26,156.58,184.52,160,184.44,163.79Zm-10.71-1.38h9.05c-.34-2.42-1.95-4.32-4.4-4.32A4.7,4.7,0,0,0,173.73,162.41Z"/><path class="cls-32" d="M199.44,148.94v20.8h-1.56v-2.68a5.67,5.67,0,0,1-4.94,2.86c-3.61,0-6.13-3-6.13-6.65s2.52-6.69,6.13-6.69a5.64,5.64,0,0,1,4.94,2.89V148.94Zm-1.56,14.33a5,5,0,0,0-4.78-5.18c-2.78,0-4.71,2.37-4.71,5.18a4.83,4.83,0,0,0,4.71,5.14A4.92,4.92,0,0,0,197.88,163.27Z"/><path class="cls-32" d="M218,156.53v1.77c-2.1-.16-3.74,1.61-3.74,4.29v7.15h-1.56v-13h1.56v2.39A4.25,4.25,0,0,1,218,156.53Z"/><path class="cls-32" d="M231.53,163.79H220.79a4.84,4.84,0,0,0,5,4.65,6.31,6.31,0,0,0,4.42-1.79v1.76a7.08,7.08,0,0,1-4.47,1.51,6.68,6.68,0,0,1-.26-13.34C229.34,156.58,231.6,160,231.53,163.79Zm-10.72-1.38h9.05c-.34-2.42-2-4.32-4.39-4.32A4.7,4.7,0,0,0,220.81,162.41Z"/><path class="cls-32" d="M234.8,148.94h1.56v20.8H234.8Z"/><path class="cls-32" d="M252.09,163.79H241.35a4.85,4.85,0,0,0,5,4.65,6.31,6.31,0,0,0,4.42-1.79v1.76a7.08,7.08,0,0,1-4.48,1.51,6.68,6.68,0,0,1-.26-13.34C249.91,156.58,252.17,160,252.09,163.79Zm-10.71-1.38h9.05c-.34-2.42-2-4.32-4.4-4.32A4.7,4.7,0,0,0,241.38,162.41Z"/><path class="cls-32" d="M267.09,156.74v13h-1.56v-2.68a5.67,5.67,0,0,1-4.94,2.86c-3.61,0-6.13-3-6.13-6.65s2.52-6.69,6.13-6.69a5.64,5.64,0,0,1,4.94,2.89v-2.73Zm-1.56,6.53a5,5,0,0,0-4.78-5.18c-2.78,0-4.71,2.37-4.71,5.18a4.83,4.83,0,0,0,4.71,5.14A4.92,4.92,0,0,0,265.53,163.27Z"/><path class="cls-32" d="M270.39,167.89l1.07-1.14a4.23,4.23,0,0,0,3.17,1.69,2.24,2.24,0,0,0,2.52-2.08c0-3.25-6.47-2.18-6.44-6.5a3.54,3.54,0,0,1,3.79-3.33,5.41,5.41,0,0,1,3.93,1.85l-1,1.12a4.1,4.1,0,0,0-2.94-1.46,2,2,0,0,0-2.26,1.82c-.06,3,6.47,2,6.44,6.53,0,2-1.66,3.56-4.13,3.56A5.63,5.63,0,0,1,270.39,167.89Z"/><path class="cls-32" d="M293.35,163.79H282.61a4.85,4.85,0,0,0,5,4.65,6.31,6.31,0,0,0,4.42-1.79v1.76a7.08,7.08,0,0,1-4.47,1.51,6.68,6.68,0,0,1-.27-13.34C291.17,156.58,293.43,160,293.35,163.79Zm-10.71-1.38h9.05c-.34-2.42-1.95-4.32-4.4-4.32A4.7,4.7,0,0,0,282.64,162.41Z"/><path class="cls-32" d="M295.48,167.89l1.07-1.14a4.23,4.23,0,0,0,3.17,1.69,2.24,2.24,0,0,0,2.52-2.08c0-3.25-6.47-2.18-6.44-6.5a3.54,3.54,0,0,1,3.79-3.33,5.41,5.41,0,0,1,3.93,1.85l-1,1.12a4.1,4.1,0,0,0-2.94-1.46,2,2,0,0,0-2.26,1.82c-.06,3,6.47,2,6.44,6.53,0,2-1.66,3.56-4.13,3.56A5.63,5.63,0,0,1,295.48,167.89Z"/><path class="cls-32" d="M334.72,162l0,7.7h-1.56v-7.38c0-2.66-1.32-4.37-3.48-4.37s-3.49,1.71-3.49,4.55l0,7.2H324.6v-7.38c0-2.66-1.32-4.37-3.48-4.37s-3.48,1.71-3.48,4.55v7.2h-1.56v-13h1.56v1.95a4.29,4.29,0,0,1,3.82-2.18,4.44,4.44,0,0,1,4.24,2.93,4.6,4.6,0,0,1,4.29-2.93C332.59,156.51,334.72,158.46,334.72,162Z"/><path class="cls-32" d="M337.5,163.21a6.58,6.58,0,1,1,6.58,6.71A6.53,6.53,0,0,1,337.5,163.21Zm11.6,0a5,5,0,1,0-5,5.18A5,5,0,0,0,349.1,163.21Z"/><path class="cls-32" d="M359.37,156.53v1.77c-2.11-.16-3.75,1.61-3.75,4.29v7.15h-1.56v-13h1.56v2.39A4.27,4.27,0,0,1,359.37,156.53Z"/><path class="cls-32" d="M372.86,163.79H362.12a4.85,4.85,0,0,0,5,4.65,6.29,6.29,0,0,0,4.42-1.79v1.76a7,7,0,0,1-4.47,1.51,6.68,6.68,0,0,1-.26-13.34C370.68,156.58,372.94,160,372.86,163.79Zm-10.71-1.38h9.05c-.34-2.42-1.95-4.32-4.4-4.32A4.69,4.69,0,0,0,362.15,162.41Z"/><path class="cls-32" d="M386.9,153.1v7.36h5.41V162H386.9v7.77h-1.56v-18.2h9.18v1.56Z"/><path class="cls-32" d="M407.13,163.79H396.39a4.84,4.84,0,0,0,5,4.65,6.31,6.31,0,0,0,4.42-1.79v1.76a7.08,7.08,0,0,1-4.47,1.51,6.68,6.68,0,0,1-.26-13.34C404.94,156.58,407.21,160,407.13,163.79Zm-10.71-1.38h9c-.34-2.42-1.95-4.32-4.39-4.32A4.68,4.68,0,0,0,396.42,162.41Z"/><path class="cls-32" d="M431.1,156.74v13h-1.56v-2.68a5.7,5.7,0,0,1-4.94,2.86c-3.62,0-6.14-3-6.14-6.65s2.52-6.69,6.14-6.69a5.66,5.66,0,0,1,4.94,2.89v-2.73Zm-1.56,6.53a5,5,0,0,0-4.79-5.18c-2.78,0-4.7,2.37-4.7,5.18s1.92,5.14,4.7,5.14A4.92,4.92,0,0,0,429.54,163.27Z"/><path class="cls-32" d="M446.13,162.41v7.33h-1.54v-7.05c0-3.12-1.53-4.73-3.79-4.73-2,0-3.62,1.38-3.83,4.08v7.7h-1.56v-13H437v2.13a4.74,4.74,0,0,1,4.16-2.36C443.81,156.51,446.13,158.4,446.13,162.41Z"/><path class="cls-32" d="M461.57,148.94v20.8H460v-2.68a5.68,5.68,0,0,1-4.94,2.86c-3.61,0-6.14-3-6.14-6.65s2.53-6.69,6.14-6.69a5.65,5.65,0,0,1,4.94,2.89V148.94ZM460,163.27a5,5,0,0,0-4.78-5.18c-2.79,0-4.71,2.37-4.71,5.18s1.92,5.14,4.71,5.14A4.92,4.92,0,0,0,460,163.27Z"/><path class="cls-32" d="M485.25,165.14h-8.78l-1.93,4.6h-1.71l7.9-18.46H481l7.94,18.46h-1.72Zm-.62-1.51-3.77-9-3.77,9Z"/><path class="cls-32" d="M491.18,148.94h1.56v20.8h-1.56Z"/><path class="cls-32" d="M506,153.05a1.09,1.09,0,0,1,1.09-1.12,1.11,1.11,0,0,1,1.12,1.12,1.09,1.09,0,0,1-1.12,1.09A1.07,1.07,0,0,1,506,153.05Zm.34,3.69h1.56v13h-1.56Z"/><path class="cls-32" d="M523.27,162.41v7.33h-1.54v-7.05c0-3.12-1.53-4.73-3.79-4.73-2,0-3.62,1.38-3.83,4.08v7.7h-1.56v-13h1.56v2.13a4.74,4.74,0,0,1,4.16-2.36C521,156.51,523.27,158.4,523.27,162.41Z"/><path class="cls-32" d="M532,158.25H529.3v11.49h-1.56V158.25h-1.67v-1.51h1.67v-3.48h1.56v3.48H532Z"/><path class="cls-32" d="M533.15,163.21a6.58,6.58,0,1,1,6.57,6.71A6.52,6.52,0,0,1,533.15,163.21Zm11.59,0a5,5,0,1,0-5,5.18A5,5,0,0,0,544.74,163.21Z"/><path class="cls-32" d="M557.66,167.89l1.07-1.14a4.23,4.23,0,0,0,3.17,1.69,2.24,2.24,0,0,0,2.52-2.08c0-3.25-6.47-2.18-6.44-6.5a3.54,3.54,0,0,1,3.79-3.33,5.41,5.41,0,0,1,3.93,1.85l-1,1.12A4.1,4.1,0,0,0,561.8,158a2,2,0,0,0-2.26,1.82c-.06,3,6.47,2,6.44,6.53,0,2-1.66,3.56-4.13,3.56A5.63,5.63,0,0,1,557.66,167.89Z"/><path class="cls-32" d="M568.3,163.21a6.58,6.58,0,1,1,6.58,6.71A6.53,6.53,0,0,1,568.3,163.21Zm11.59,0a5,5,0,1,0-5,5.18A5,5,0,0,0,579.89,163.21Z"/><path class="cls-32" d="M584.86,148.94h1.56v20.8h-1.56Z"/><path class="cls-32" d="M601.24,156.74v13h-1.56v-2.13a4.73,4.73,0,0,1-4.16,2.36c-2.68,0-5-1.89-5-5.9v-7.33h1.53v7c0,3.12,1.54,4.73,3.8,4.73,2,0,3.61-1.38,3.82-4.08v-7.7Z"/><path class="cls-32" d="M610.16,158.25h-2.68v11.49h-1.56V158.25h-1.67v-1.51h1.67v-3.48h1.56v3.48h2.68Z"/><path class="cls-32" d="M612.76,153.05a1.08,1.08,0,0,1,1.09-1.12,1.11,1.11,0,0,1,1.12,1.12,1.09,1.09,0,0,1-1.12,1.09A1.06,1.06,0,0,1,612.76,153.05Zm.33,3.69h1.56v13h-1.56Z"/><path class="cls-32" d="M618.37,163.21a6.58,6.58,0,1,1,6.58,6.71A6.53,6.53,0,0,1,618.37,163.21Zm11.6,0a5,5,0,1,0-5,5.18A5,5,0,0,0,630,163.21Z"/><path class="cls-32" d="M645.65,162.41v7.33h-1.54v-7.05c0-3.12-1.53-4.73-3.79-4.73-2,0-3.62,1.38-3.83,4.08v7.7h-1.56v-13h1.56v2.13a4.74,4.74,0,0,1,4.16-2.36C643.33,156.51,645.65,158.4,645.65,162.41Z"/><path class="cls-32" d="M649.36,166.46H651l-1.27,6.11h-1.12Z"/><path class="cls-32" d="M662.13,163.24a6.7,6.7,0,0,1,11-5.17V160a5.58,5.58,0,0,0-4.29-1.92,5.17,5.17,0,0,0,0,10.34,5.58,5.58,0,0,0,4.29-1.92v1.92a6.7,6.7,0,0,1-11-5.17Z"/><path class="cls-32" d="M682.07,156.53v1.77c-2.1-.16-3.74,1.61-3.74,4.29v7.15h-1.56v-13h1.56v2.39A4.25,4.25,0,0,1,682.07,156.53Z"/><path class="cls-32" d="M695.57,163.79H684.83a4.84,4.84,0,0,0,5,4.65,6.31,6.31,0,0,0,4.42-1.79v1.76a7.08,7.08,0,0,1-4.47,1.51,6.68,6.68,0,0,1-.26-13.34C693.38,156.58,695.64,160,695.57,163.79Zm-10.72-1.38h9c-.34-2.42-1.95-4.32-4.39-4.32A4.7,4.7,0,0,0,684.85,162.41Z"/><path class="cls-32" d="M710.57,156.74v13H709v-2.68a5.7,5.7,0,0,1-4.94,2.86c-3.62,0-6.14-3-6.14-6.65s2.52-6.69,6.14-6.69a5.66,5.66,0,0,1,4.94,2.89v-2.73ZM709,163.27a5,5,0,0,0-4.79-5.18c-2.78,0-4.7,2.37-4.7,5.18s1.92,5.14,4.7,5.14A4.92,4.92,0,0,0,709,163.27Z"/><path class="cls-32" d="M719.48,158.25h-2.67v11.49h-1.56V158.25h-1.67v-1.51h1.67v-3.48h1.56v3.48h2.67Z"/><path class="cls-32" d="M722.08,153.05a1.09,1.09,0,0,1,1.1-1.12,1.1,1.1,0,0,1,1.11,1.12,1.08,1.08,0,0,1-1.11,1.09A1.07,1.07,0,0,1,722.08,153.05Zm.34,3.69H724v13h-1.56Z"/><path class="cls-32" d="M739.32,162.41v7.33h-1.53v-7.05c0-3.12-1.54-4.73-3.8-4.73-2,0-3.61,1.38-3.82,4.08v7.7h-1.56v-13h1.56v2.13a4.73,4.73,0,0,1,4.16-2.36C737,156.51,739.32,158.4,739.32,162.41Z"/><path class="cls-32" d="M754.77,169.17c0,4.05-3.1,6-6.14,6a9.07,9.07,0,0,1-4.86-1.45l0-1.69a8.22,8.22,0,0,0,4.66,1.69,4.51,4.51,0,0,0,4.81-4.87V167a5.69,5.69,0,0,1-5,2.94c-3.62,0-6.14-3-6.14-6.65s2.52-6.69,6.14-6.69a5.63,5.63,0,0,1,4.94,2.92v-2.76h1.53Zm-1.56-5.9a5,5,0,0,0-4.79-5.18c-2.78,0-4.7,2.37-4.7,5.18s1.92,5.14,4.7,5.14A4.92,4.92,0,0,0,753.21,163.27Z"/><path class="cls-32" d="M13.88,192.74v13H12.32v-2.68a5.67,5.67,0,0,1-4.94,2.86c-3.61,0-6.13-3-6.13-6.65s2.52-6.69,6.13-6.69a5.64,5.64,0,0,1,4.94,2.89v-2.73Zm-1.56,6.53a5,5,0,0,0-4.78-5.18c-2.78,0-4.71,2.37-4.71,5.18a4.83,4.83,0,0,0,4.71,5.14A4.92,4.92,0,0,0,12.32,199.27Z"/><path class="cls-32" d="M29.07,187.67v5.07h2.7v1.51h-2.7v11.49H27.53V194.25H25.87v-1.51h1.66v-5.36a2.38,2.38,0,0,1,2.45-2.6,3.3,3.3,0,0,1,1.79.52v1.62a2.69,2.69,0,0,0-1.51-.55A1.19,1.19,0,0,0,29.07,187.67Z"/><path class="cls-32" d="M45.27,199.79H34.53a4.84,4.84,0,0,0,5,4.65,6.31,6.31,0,0,0,4.42-1.79v1.76a7.08,7.08,0,0,1-4.47,1.51,6.68,6.68,0,0,1-.26-13.34C43.08,192.58,45.34,196,45.27,199.79Zm-10.72-1.38H43.6c-.34-2.42-2-4.32-4.39-4.32A4.7,4.7,0,0,0,34.55,198.41Z"/><path class="cls-32" d="M60,199.79H49.22a4.84,4.84,0,0,0,5,4.65,6.31,6.31,0,0,0,4.42-1.79v1.76a7.08,7.08,0,0,1-4.47,1.51,6.68,6.68,0,0,1-.26-13.34C57.77,192.58,60,196,60,199.79Zm-10.72-1.38h9c-.34-2.42-1.95-4.32-4.39-4.32A4.7,4.7,0,0,0,49.24,198.41Z"/><path class="cls-32" d="M75,184.94v20.8H73.4v-2.68a5.7,5.7,0,0,1-4.94,2.86c-3.62,0-6.14-3-6.14-6.65s2.52-6.69,6.14-6.69a5.66,5.66,0,0,1,4.94,2.89V184.94ZM73.4,199.27a5,5,0,0,0-4.79-5.18c-2.78,0-4.7,2.37-4.7,5.18s1.92,5.14,4.7,5.14A4.92,4.92,0,0,0,73.4,199.27Z"/><path class="cls-32" d="M91.91,199.24c0,3.67-2.52,6.68-6.14,6.68A5.67,5.67,0,0,1,80.83,203v2.7H79.27v-20.8h1.56v10.5a5.7,5.7,0,0,1,4.94-2.86C89.39,192.58,91.91,195.57,91.91,199.24Zm-1.59,0c0-2.83-1.92-5.15-4.7-5.15a5.17,5.17,0,0,0,0,10.32C88.4,204.41,90.32,202.05,90.32,199.24Z"/><path class="cls-32" d="M107,192.74v13h-1.56v-2.68a5.68,5.68,0,0,1-4.94,2.86c-3.61,0-6.14-3-6.14-6.65s2.53-6.69,6.14-6.69a5.65,5.65,0,0,1,4.94,2.89v-2.73Zm-1.56,6.53a5,5,0,0,0-4.78-5.18c-2.79,0-4.71,2.37-4.71,5.18s1.92,5.14,4.71,5.14A4.92,4.92,0,0,0,105.48,199.27Z"/><path class="cls-32" d="M110.44,199.24a6.7,6.7,0,0,1,11-5.17V196a5.59,5.59,0,0,0-4.29-1.92,5.17,5.17,0,0,0,0,10.34,5.59,5.59,0,0,0,4.29-1.92v1.92a6.7,6.7,0,0,1-11-5.17Z"/><path class="cls-32" d="M133,205.74l-6.4-6v6h-1.56v-20.8h1.56v14l6.19-6.16h2l-6.65,6.58,6.94,6.42Z"/><path class="cls-32" d="M146.48,184.94H148v20.8h-1.56Z"/><path class="cls-32" d="M151.45,199.21a6.58,6.58,0,1,1,6.57,6.71A6.52,6.52,0,0,1,151.45,199.21Zm11.59,0a5,5,0,1,0-5,5.18A5,5,0,0,0,163,199.21Z"/><path class="cls-32" d="M167.1,199.21a6.58,6.58,0,1,1,6.58,6.71A6.53,6.53,0,0,1,167.1,199.21Zm11.59,0a5,5,0,1,0-5,5.18A5,5,0,0,0,178.69,199.21Z"/><path class="cls-32" d="M196.27,199.24c0,3.67-2.52,6.68-6.14,6.68a5.64,5.64,0,0,1-4.91-2.83v7.85h-1.56v-18.2h1.56v2.68a5.65,5.65,0,0,1,4.91-2.84C193.75,192.58,196.27,195.57,196.27,199.24Zm-1.59,0c0-2.83-1.92-5.15-4.7-5.15a4.86,4.86,0,0,0-4.76,4.6v1.1a4.87,4.87,0,0,0,4.76,4.62C192.76,204.41,194.68,202.05,194.68,199.24Z"/><path class="cls-32" d="M207.74,199.21a6.58,6.58,0,1,1,6.57,6.71A6.52,6.52,0,0,1,207.74,199.21Zm11.59,0a5,5,0,1,0-5,5.18A5,5,0,0,0,219.33,199.21Z"/><path class="cls-32" d="M225.86,187.67v5.07h2.7v1.51h-2.7v11.49h-1.54V194.25h-1.66v-1.51h1.66v-5.36a2.38,2.38,0,0,1,2.45-2.6,3.3,3.3,0,0,1,1.79.52v1.62a2.69,2.69,0,0,0-1.51-.55A1.19,1.19,0,0,0,225.86,187.67Z"/><path class="cls-32" d="M251.86,192.74v13H250.3v-2.68a5.7,5.7,0,0,1-4.94,2.86c-3.62,0-6.14-3-6.14-6.65s2.52-6.69,6.14-6.69a5.66,5.66,0,0,1,4.94,2.89v-2.73Zm-1.56,6.53a5,5,0,0,0-4.79-5.18c-2.78,0-4.7,2.37-4.7,5.18s1.92,5.14,4.7,5.14A4.92,4.92,0,0,0,250.3,199.27Z"/><path class="cls-32" d="M255.26,199.24a6.7,6.7,0,0,1,11-5.17V196a5.6,5.6,0,0,0-4.3-1.92,5.17,5.17,0,0,0,0,10.34,5.6,5.6,0,0,0,4.3-1.92v1.92a6.7,6.7,0,0,1-11-5.17Z"/><path class="cls-32" d="M269.9,189.05a1.09,1.09,0,0,1,1.09-1.12,1.11,1.11,0,0,1,1.12,1.12,1.09,1.09,0,0,1-1.12,1.09A1.07,1.07,0,0,1,269.9,189.05Zm.34,3.69h1.56v13h-1.56Z"/><path class="cls-32" d="M288.15,184.94v20.8h-1.56v-2.68a5.67,5.67,0,0,1-4.94,2.86c-3.61,0-6.13-3-6.13-6.65s2.52-6.69,6.13-6.69a5.64,5.64,0,0,1,4.94,2.89V184.94Zm-1.56,14.33a5,5,0,0,0-4.78-5.18c-2.78,0-4.71,2.37-4.71,5.18a4.83,4.83,0,0,0,4.71,5.14A4.92,4.92,0,0,0,286.59,199.27Z"/><path class="cls-32" d="M292.47,189.05a1.09,1.09,0,0,1,1.09-1.12,1.11,1.11,0,0,1,1.12,1.12,1.09,1.09,0,0,1-1.12,1.09A1.07,1.07,0,0,1,292.47,189.05Zm.34,3.69h1.56v13h-1.56Z"/><path class="cls-32" d="M303.6,194.25h-2.68v11.49h-1.56V194.25h-1.67v-1.51h1.67v-3.49h1.56v3.49h2.68Z"/><path class="cls-32" d="M316.67,192.74l-7.74,18.2h-1.56l2.34-5.51-5.46-12.69h1.69l4.55,11,4.49-11Z"/><path class="cls-32" d="M315.89,204.78a1.08,1.08,0,0,1,1.1-1.09,1.1,1.1,0,0,1,1.09,1.09,1.09,1.09,0,0,1-1.09,1.09A1.07,1.07,0,0,1,315.89,204.78Z"/><circle class="cls-33" cx="313.4" cy="480.32" r="14.27"/><path class="cls-3" d="M316.4,474.85v10.39h-2.18V481.1h-4v4.14h-2.19V474.85h2.19V479h4v-4.14Z"/><path class="cls-3" d="M321.05,478.11h-1.19v1.2h-1v-1.2h-1.16v-.95h1.16V476h1v1.17h1.19Z"/><circle class="cls-33" cx="368.57" cy="480.32" r="14.27"/><path class="cls-3" d="M371.57,474.85v10.39h-2.18V481.1h-4v4.14h-2.19V474.85h2.19V479h4v-4.14Z"/><path class="cls-3" d="M376.22,478.11H375v1.2h-1v-1.2H372.9v-.95h1.15V476h1v1.17h1.19Z"/><line class="cls-34" x1="330.8" y1="461.06" x2="322.51" y2="469.35"/><line class="cls-34" x1="350.96" y1="461.06" x2="359.24" y2="469.35"/><path class="cls-4" d="M390.53,447.38c-1.9-4.15-7.26-5.77-12-3.62a26,26,0,0,0-4.23,2.91,33.15,33.15,0,0,1-9.62,4.95l-2.2.73.56-2.25a33.22,33.22,0,0,1,4.28-9.94,26.23,26.23,0,0,0,2.6-4.43c1.82-4.86-.17-10.1-4.44-11.7s-9.22,1.05-11,5.91.18,10.1,4.45,11.7a6.29,6.29,0,0,0,1.27.43l-2.85,12-22,7.21a5.41,5.41,0,0,0-3.55,5.58l24.36-7.63L350.18,484a5.41,5.41,0,0,0,5.32-3.93l5.66-22.49,11.74-3.68a6.72,6.72,0,0,0,.52,1.24c1.89,4.15,7.25,5.77,12,3.62S392.42,451.54,390.53,447.38Zm-30.06-9.93c-2.24-.83-3.29-3.58-2.34-6.13s3.55-3.94,5.79-3.1a4.65,4.65,0,0,1,2.33,6.13C365.3,436.9,362.71,438.29,360.47,437.45Zm23.3,17.77a4.67,4.67,0,0,1-6.29-1.9c-1-2.17.22-4.85,2.69-6a4.67,4.67,0,0,1,6.29,1.9C387.45,451.41,386.24,454.1,383.77,455.22Z"/><circle class="cls-35" cx="341.06" cy="450.79" r="14.27"/><path class="cls-3" d="M335.2,450.89a5.37,5.37,0,1,1,5.37,5.39A5.24,5.24,0,0,1,335.2,450.89Zm8.5,0a3.13,3.13,0,1,0-3.13,3.22A3.12,3.12,0,0,0,343.7,450.89Z"/><path class="cls-3" d="M347,448h2.81V449H347Z"/></g></g></svg>