<svg xmlns="http://www.w3.org/2000/svg" viewBox="0 0 1112.38 616.88"><defs><style>.cls-1,.cls-18,.cls-21,.cls-37,.cls-50,.cls-51,.cls-53,.cls-6,.cls-80{fill:#fff;}.cls-1,.cls-19,.cls-23,.cls-42,.cls-81{stroke:#5c5052;}.cls-1,.cls-16,.cls-19,.cls-23,.cls-29,.cls-31,.cls-34,.cls-35,.cls-36,.cls-38,.cls-40,.cls-42,.cls-49,.cls-50,.cls-51,.cls-52,.cls-79,.cls-81{stroke-miterlimit:10;}.cls-1{stroke-width:0.88px;}.cls-18,.cls-2{font-size:37.21px;}.cls-2,.cls-29,.cls-30,.cls-34,.cls-35{fill:#2b63a3;}.cls-2,.cls-21,.cls-39,.cls-41,.cls-43,.cls-44,.cls-45,.cls-46,.cls-47,.cls-48,.cls-53,.cls-68,.cls-69,.cls-7,.cls-80{font-family:Acre-Bold, Acre;font-weight:700;}.cls-3{letter-spacing:-0.01em;}.cls-4{letter-spacing:0em;}.cls-5{fill:#e36b44;}.cls-6{font-size:17.49px;}.cls-18,.cls-6{font-family:Acre-Semibold, Acre;font-weight:600;}.cls-7{font-size:43.8px;}.cls-17,.cls-7{fill:#ffce01;}.cls-8{font-size:29px;}.cls-24,.cls-8{fill:#5c5052;font-family:Acre-Regular, Acre;}.cls-9{letter-spacing:-0.02em;}.cls-10{letter-spacing:-0.02em;}.cls-11{letter-spacing:-0.01em;}.cls-12{letter-spacing:-0.02em;}.cls-13{letter-spacing:-0.02em;}.cls-14{letter-spacing:-0.01em;}.cls-15{letter-spacing:-0.01em;}.cls-16,.cls-19,.cls-23,.cls-28,.cls-31,.cls-36,.cls-42,.cls-81{fill:none;}.cls-16{stroke:#ffce01;stroke-width:3.77px;}.cls-19{stroke-width:0.36px;}.cls-20{fill:#5d5152;}.cls-20,.cls-22{opacity:0.4;}.cls-21{font-size:13.07px;}.cls-22,.cls-52,.cls-79{fill:#2e61a2;}.cls-23{stroke-width:0.27px;}.cls-24{font-size:10.61px;}.cls-25,.cls-26,.cls-27,.cls-32,.cls-33{fill:#5e5f5e;}.cls-25,.cls-38,.cls-40{stroke:#fff;}.cls-25,.cls-27,.cls-28,.cls-32,.cls-33{stroke-linecap:round;stroke-linejoin:round;}.cls-25{stroke-width:0.56px;}.cls-27,.cls-32,.cls-33{stroke:#666667;}.cls-27{stroke-width:0.4px;}.cls-28,.cls-29,.cls-31,.cls-34,.cls-35,.cls-36{stroke:#2b63a3;}.cls-28,.cls-31{stroke-width:0.94px;}.cls-29{stroke-width:0.47px;}.cls-29,.cls-30,.cls-34,.cls-35,.cls-38,.cls-40{opacity:0.17;}.cls-32{stroke-width:0.51px;}.cls-33{stroke-width:0.29px;}.cls-34{stroke-width:0.6px;}.cls-35{stroke-width:0.79px;}.cls-36{stroke-width:1.22px;}.cls-38,.cls-39,.cls-40,.cls-41,.cls-43,.cls-44,.cls-45,.cls-46,.cls-47,.cls-48{fill:#3daaa1;}.cls-38{stroke-width:0.73px;}.cls-39{font-size:17.99px;}.cls-40{stroke-width:0.24px;}.cls-41{font-size:7.19px;}.cls-42{stroke-width:0.15px;}.cls-43{font-size:7.19px;}.cls-44{font-size:7.19px;}.cls-45{font-size:7.19px;}.cls-46{font-size:7.19px;}.cls-47{font-size:7.19px;}.cls-48{font-size:7.19px;}.cls-49{fill:#ec6a7c;}.cls-49,.cls-50,.cls-51{stroke:#ea6b7c;}.cls-49,.cls-50{stroke-width:0.11px;}.cls-51{stroke-width:0.18px;}.cls-52,.cls-79{stroke:#fecf08;}.cls-52{stroke-width:0.58px;}.cls-53{font-size:21.76px;}.cls-54{font-size:40px;fill:#f27243;}.cls-54,.cls-60{font-family:Acre-Light, Acre;font-weight:300;}.cls-55{letter-spacing:-0.01em;}.cls-56{letter-spacing:-0.02em;}.cls-57{letter-spacing:-0.02em;}.cls-58{letter-spacing:0em;}.cls-59{letter-spacing:-0.01em;}.cls-60{font-size:26px;fill:#5e5153;}.cls-61,.cls-69{letter-spacing:-0.02em;}.cls-62{letter-spacing:0em;}.cls-63{letter-spacing:-0.02em;}.cls-64{letter-spacing:0.01em;}.cls-65{letter-spacing:-0.03em;}.cls-66{letter-spacing:-0.05em;}.cls-67{letter-spacing:-0.01em;}.cls-70{letter-spacing:-0.01em;}.cls-71{letter-spacing:-0.02em;}.cls-72{letter-spacing:0em;}.cls-73{letter-spacing:0em;}.cls-74{letter-spacing:-0.02em;}.cls-75{letter-spacing:-0.05em;}.cls-76{letter-spacing:0em;}.cls-77{letter-spacing:-0.01em;}.cls-78{letter-spacing:-0.07em;}.cls-79{stroke-width:0.29px;}.cls-80{font-size:14.84px;}.cls-81{stroke-width:0.28px;}.cls-82{fill:#5b5052;}</style></defs><g id="Layer_2" data-name="Layer 2"><g id="Layer_20" data-name="Layer 20"><rect class="cls-1" x="0.44" y="0.44" width="1111.5" height="616"/><text class="cls-2" transform="translate(364.97 336.89)">H</text><text class="cls-2" transform="translate(390.98 349.28) scale(0.58)">2</text><text class="cls-2" transform="translate(403.02 336.89)">O</text><text class="cls-2" transform="translate(584.86 314.89)">Al<tspan class="cls-3" x="34.49" y="0">(</tspan><tspan class="cls-4" x="44.54" y="0">O</tspan><tspan x="74.97" y="0">H)</tspan></text><text class="cls-2" transform="translate(696.44 327.28) scale(0.58)">3</text><text class="cls-2" transform="translate(857.31 331.89)"><tspan xml:space="preserve">  </tspan><tspan class="cls-3" x="23.96" y="0">H</tspan><tspan x="49.41" y="0">+</tspan></text><circle class="cls-5" cx="207.35" cy="511.23" r="16.82"/><text class="cls-6" transform="translate(194.76 517.19)">Al</text><text class="cls-6" transform="translate(210.55 511.37) scale(0.58)">3+</text><text class="cls-2" transform="translate(173.55 336.89)">Al</text><text class="cls-2" transform="translate(208.04 324.5) scale(0.58)">3+</text><text class="cls-7" transform="translate(285.76 337.45)">+</text><text class="cls-7" transform="translate(774.76 336.45)">+</text><text class="cls-7" transform="translate(291.76 523.86)">+</text><text class="cls-7" transform="translate(775.08 519.86)">+</text><text class="cls-8" transform="translate(136.2 407.64)">aluminum</text><text class="cls-8" transform="translate(367.96 408.64)"><tspan class="cls-9">w</tspan><tspan x="23.2" y="0">a</tspan><tspan class="cls-10" x="41.09" y="0">t</tspan><tspan x="49.04" y="0">er</tspan></text><text class="cls-8" transform="translate(575.13 371.46)">aluminum <tspan class="cls-11" x="1.39" y="34.8">h</tspan><tspan class="cls-12" x="17.69" y="34.8">y</tspan><tspan x="31.93" y="34.8">d</tspan><tspan class="cls-13" x="49.79" y="34.8">r</tspan><tspan class="cls-14" x="58.43" y="34.8">o</tspan><tspan x="75.49" y="34.8">xide</tspan></text><text class="cls-8" transform="translate(831.11 387.86)"><tspan class="cls-11">h</tspan><tspan class="cls-12" x="16.3" y="0">y</tspan><tspan x="30.54" y="0">d</tspan><tspan class="cls-13" x="48.4" y="0">r</tspan><tspan x="57.04" y="0">ogen </tspan><tspan x="-33.87" y="34.8">p</tspan><tspan class="cls-13" x="-15.98" y="34.8">r</tspan><tspan class="cls-15" x="-7.34" y="34.8">o</tspan><tspan class="cls-13" x="9.6" y="34.8">t</tspan><tspan x="17.54" y="34.8">on — acid!</tspan></text><line class="cls-16" x1="483.47" y1="315.82" x2="515.38" y2="315.82"/><polygon class="cls-17" points="528.68 315.82 509.94 323.48 514.39 315.82 509.94 308.17 528.68 315.82"/><line class="cls-16" x1="482.47" y1="511.23" x2="514.38" y2="511.23"/><polygon class="cls-17" points="527.68 511.23 508.94 518.89 513.39 511.23 508.94 503.58 527.68 511.23"/><circle class="cls-5" cx="614.26" cy="481.48" r="40.46"/><text class="cls-18" transform="translate(589.13 494.99)">Al</text><text class="cls-18" transform="translate(622.73 482.6) scale(0.58)">3+</text><line class="cls-19" x1="614.33" y1="522.33" x2="614.33" y2="536.15"/><circle class="cls-20" cx="614.14" cy="548.85" r="12.57"/><text class="cls-21" transform="translate(607.39 553.05)">O</text><text class="cls-21" transform="translate(618.12 548.69) scale(0.58)">-</text><circle class="cls-22" cx="638.38" cy="574.87" r="12.57"/><text class="cls-21" transform="translate(632.78 579.2)">H</text><text class="cls-21" transform="translate(641.92 574.85) scale(0.58)">+</text><line class="cls-23" x1="622.85" y1="557.9" x2="630.16" y2="565.2"/><line class="cls-19" x1="654.71" y1="482.39" x2="668.53" y2="482.39"/><circle class="cls-20" cx="681.23" cy="482.57" r="12.57"/><text class="cls-21" transform="translate(674.11 486.91)">O</text><text class="cls-21" transform="translate(684.84 482.56) scale(0.58)">-</text><circle class="cls-22" cx="707.25" cy="458.34" r="12.57"/><text class="cls-21" transform="translate(700.83 462.09)">H</text><text class="cls-21" transform="translate(709.97 457.73) scale(0.58)">+</text><line class="cls-23" x1="690.28" y1="473.86" x2="697.58" y2="466.56"/><text class="cls-24" transform="matrix(0.98, -0.2, 0.2, 0.98, 715.76, 77.4)">aluminum</text><path class="cls-25" d="M711.2,96.18s-4.41,6.84,4.41,19.3a46.34,46.34,0,0,1,4.63,5.06c1.47-1.92,2.85-3.85,4.16-5.81l4.16,4.3a20,20,0,0,0,1.77-5.92c2.6,1.4,4.92,2.14,6.66,3.37,1.4-1.91,2.19-4.08,3.7-5.93a5.83,5.83,0,0,1,3.64,4.56l2.16-5.3-.08,0,3.58,3.52c1.71-2.08,2.07-4.28,3.45-6.57,2.26,1.77,3,3.68,4.64,5.06,1.46-1.92,2.85-3.85,4.16-5.81l4.16,4.3a20.27,20.27,0,0,0,1.77-5.92c3,1.36,5.12,1.75,6.66,3.37a14.9,14.9,0,0,0,3.7-5.93c1.13,2,2.46,3,3.64,4.56l2.15-5.3c2.25.7,3.61-.74,6-.82,1.5-.14-9.09-5.7-5-22.25"/><path class="cls-26" d="M775.86,68.59A8,8,0,1,1,779,84.32L706.66,98.86,703.5,83.13Z"/><circle class="cls-25" cx="705.08" cy="90.99" r="8.02"/><path class="cls-27" d="M784.43,108.8c-.4.34-.23.81.06,1.25s.5.78,1.41.62c1.26-.51.55-2-.3-2.37a1.06,1.06,0,0,0-1.17.5"/><path class="cls-27" d="M777,107.93c-.4.34-.23.82.06,1.25s.5.79,1.41.63c1.26-.52.55-2-.31-2.37a1.06,1.06,0,0,0-1.16.49"/><path class="cls-27" d="M769.88,111.09c-.4.34-.23.82.07,1.25s.5.79,1.4.62c1.26-.51.55-1.95-.3-2.36a1.05,1.05,0,0,0-1.17.49"/><path class="cls-27" d="M790.82,106.67c-.37-.3-1.11-.51-1.32-.09s-.46.92-.12,1.24,1.25.08,1.78-.3c-.13-.59.14-.67-.34-.85"/><path class="cls-28" d="M907.26,102.59c0,5.24-17.62,9.48-39.35,9.48s-39.35-4.24-39.35-9.48l9.62,70c0,4,13.31,7.17,29.73,7.17s29.73-3.21,29.73-7.17Z"/><ellipse class="cls-29" cx="867.91" cy="102.59" rx="39.35" ry="9.48"/><ellipse class="cls-30" cx="867.88" cy="130.84" rx="35.73" ry="8.61"/><ellipse class="cls-31" cx="867.91" cy="102.59" rx="39.35" ry="9.48"/><path class="cls-30" d="M838.18,172.57c0,4,13.31,7.17,29.73,7.17s29.73-3.21,29.73-7.17l6-41.73c0-4.76-16-8.61-35.72-8.61s-35.73,3.85-35.73,8.61Z"/><ellipse class="cls-30" cx="867.91" cy="172.57" rx="29.73" ry="7.17"/><path class="cls-32" d="M874.44,164.4c.34.58,1,.47,1.59.19s1.1-.46,1.09-1.63c-.37-1.7-2.34-1.12-3-.14a1.36,1.36,0,0,0,.37,1.58"/><path class="cls-33" d="M858.59,151.56c-.23.23-.43.76-.17,1s.58.5.82.29.15-.93,0-1.4c-.41,0-.44-.22-.6.12"/><path class="cls-32" d="M867.77,151.84c.14.52,1.11.35,1.27.16.36-.42.65-.65.52-1.19a1.08,1.08,0,1,0-1.79,1"/><path class="cls-32" d="M864.47,133.77c-.37.56,0,1.08.51,1.51a1.37,1.37,0,0,0,1.95.28c1.37-1.07,0-2.59-1.2-2.81a1.36,1.36,0,0,0-1.26,1"/><path class="cls-32" d="M886.79,158.08c-.55-.24-1.54-.24-1.64.36s-.26,1.28.28,1.56c.74.38,1.56-.34,2.08-1-.36-.68-.06-.88-.72-.93"/><path class="cls-32" d="M870.1,126.66c-.41.35.16,1.15.41,1.21.53.15.86.31,1.29,0a1.08,1.08,0,1,0-1.7-1.17"/><path class="cls-32" d="M859.25,147.65c.61-.28.57-.93.36-1.56s-.34-1.14-1.51-1.26c-1.73.19-1.36,2.21-.45,3a1.34,1.34,0,0,0,1.6-.2"/><path class="cls-32" d="M872.81,136.63c-.56-.24-1.55-.24-1.65.35s-.25,1.29.28,1.57c.75.38,1.56-.34,2.09-1-.36-.68-.06-.88-.72-.93"/><path class="cls-32" d="M857.39,159.85c-.55-.24-1.54-.24-1.64.36s-.26,1.28.28,1.56c.74.38,1.56-.34,2.08-1-.36-.68-.06-.88-.72-.93"/><path class="cls-32" d="M862.73,173.46c.61-.28.56-.92.35-1.56s-.34-1.14-1.51-1.25c-1.73.19-1.35,2.21-.45,3a1.36,1.36,0,0,0,1.61-.21"/><path class="cls-32" d="M868.35,163.2c.61-.28.56-.92.35-1.56s-.34-1.14-1.51-1.25c-1.73.19-1.35,2.21-.45,3a1.36,1.36,0,0,0,1.61-.21"/><path class="cls-32" d="M843.08,164.65c.34.49,1.18,1,1.58.56s.89-1,.58-1.48c-.43-.72-1.5-.53-2.29-.25-.05.77-.41.78.13,1.17"/><path class="cls-32" d="M846.06,153c.53-.09.47-1.06.29-1.25-.38-.4-.57-.71-1.12-.64a1.08,1.08,0,1,0,.83,1.89"/><path class="cls-32" d="M870.76,160c0,.66.57.92,1.23,1s1.17.21,1.8-.78c.62-1.63-1.35-2.21-2.48-1.77a1.37,1.37,0,0,0-.55,1.53"/><path class="cls-32" d="M856.61,167.66c-.6.08-1.44.6-1.22,1.16s.45,1.23,1.05,1.18c.84-.06,1.16-1.1,1.27-1.93-.67-.39-.51-.71-1.1-.41"/><path class="cls-32" d="M865.66,175.62c-.17.51.73.9,1,.83.53-.16.89-.2,1.08-.72a1.08,1.08,0,1,0-2.06-.11"/><path class="cls-32" d="M883.12,142.92c-.17.51.73.9,1,.82.53-.16.89-.19,1.08-.71a1.08,1.08,0,1,0-2.06-.11"/><path class="cls-32" d="M890.77,148.45a1.28,1.28,0,0,0-1.14,1.72,1.18,1.18,0,0,0,2,.07c.38-.73-.08-2.07-.86-1.79"/><path class="cls-32" d="M880.18,155.09a1.28,1.28,0,0,0-1.14,1.73,1.18,1.18,0,0,0,2,.06c.38-.73-.08-2.07-.86-1.79"/><path class="cls-34" d="M907.26,102.59c0,5.24-17.62,9.48-39.35,9.48s-39.35-4.24-39.35-9.48l9.62,70c0,4,13.31,7.17,29.73,7.17s29.73-3.21,29.73-7.17Z"/><circle class="cls-35" cx="1014.68" cy="112.81" r="65.26"/><circle class="cls-36" cx="1014.68" cy="112.81" r="65.26"/><circle class="cls-37" cx="984.52" cy="115.5" r="17.3"/><circle class="cls-38" cx="984.52" cy="115.5" r="17.3"/><text class="cls-39" transform="translate(971.37 121.63)">Al</text><text class="cls-39" transform="translate(988.05 115.64) scale(0.58)">3+</text><circle class="cls-37" cx="1022.34" cy="141.88" r="6.91"/><circle class="cls-37" cx="1007.66" cy="154.87" r="6.91"/><circle class="cls-37" cx="1034.27" cy="157.37" r="6.91"/><circle class="cls-40" cx="1022.34" cy="141.88" r="6.91"/><circle class="cls-40" cx="1007.66" cy="154.87" r="6.91"/><text class="cls-41" transform="translate(1018.92 144.14) rotate(5.36)">O</text><text class="cls-41" transform="translate(1025.02 142.3) rotate(5.36) scale(0.58)">-</text><text class="cls-41" transform="translate(1004.37 156.96) rotate(5.36)">H</text><text class="cls-41" transform="translate(1009.6 155.04) rotate(5.36) scale(0.58)">+</text><circle class="cls-40" cx="1034.27" cy="157.37" r="6.91"/><text class="cls-41" transform="translate(1030.99 159.45) rotate(5.36)">H</text><text class="cls-41" transform="translate(1036.21 157.54) rotate(5.36) scale(0.58)">+</text><line class="cls-42" x1="1016.92" y1="146.37" x2="1012.55" y2="149.99"/><line class="cls-42" x1="1026.65" y1="147.28" x2="1030.27" y2="151.65"/><circle class="cls-37" cx="1030.16" cy="124.27" r="6.91"/><circle class="cls-37" cx="1049.73" cy="123.01" r="6.91"/><circle class="cls-37" cx="1030.23" cy="104.72" r="6.91"/><circle class="cls-40" cx="1030.16" cy="124.27" r="6.91"/><circle class="cls-40" cx="1049.73" cy="123.01" r="6.91"/><text class="cls-43" transform="matrix(0.91, -0.42, 0.42, 0.91, 1028.23, 127.8)">O</text><text class="cls-43" transform="translate(1032.58 123.14) rotate(-24.86) scale(0.58)">-</text><text class="cls-44" transform="matrix(0.86, -0.51, 0.51, 0.86, 1048.07, 126.56)">H</text><text class="cls-44" transform="translate(1051.19 121.95) rotate(-30.44) scale(0.58)">+</text><circle class="cls-40" cx="1030.23" cy="104.72" r="6.91"/><text class="cls-45" transform="translate(1028.24 108.08) rotate(-25.09)">H</text><text class="cls-45" transform="translate(1031.78 103.78) rotate(-25.09) scale(0.58)">+</text><line class="cls-42" x1="1037.19" y1="124.05" x2="1042.87" y2="123.87"/><line class="cls-42" x1="1030.07" y1="117.36" x2="1029.89" y2="111.69"/><circle class="cls-37" cx="997.89" cy="75.26" r="6.91"/><circle class="cls-37" cx="1013.6" cy="86.99" r="6.91"/><circle class="cls-37" cx="1010.63" cy="60.43" r="6.91"/><circle class="cls-40" cx="997.89" cy="75.26" r="6.91"/><circle class="cls-40" cx="1013.6" cy="86.99" r="6.91"/><text class="cls-46" transform="translate(993.67 76.36) rotate(21.37)">O</text><text class="cls-46" transform="matrix(0.54, 0.21, -0.21, 0.54, 1000.04, 76.28)">-</text><text class="cls-47" transform="translate(1009.86 88.29) rotate(17.79)">H</text><text class="cls-47" transform="translate(1015.38 87.55) rotate(17.79) scale(0.58)">+</text><circle class="cls-40" cx="1010.63" cy="60.43" r="6.91"/><text class="cls-48" transform="translate(1007.29 62.7) rotate(3.04)">H</text><text class="cls-48" transform="translate(1012.43 60.58) rotate(3.04) scale(0.58)">+</text><line class="cls-42" x1="1003.39" y1="79.65" x2="1007.83" y2="83.2"/><line class="cls-42" x1="1002.31" y1="69.94" x2="1005.85" y2="65.51"/><path class="cls-49" d="M1003.67,140.32l-1.51-1.56-2.77-2.88a2,2,0,0,1,2.85-2.75L1005,136l1.5,1.56,1.79-1.73-4.27-4.44a4.47,4.47,0,0,0-6.44,6.19l4.27,4.45Z"/><rect class="cls-50" x="1005.31" y="134.58" width="2.49" height="2.49" transform="translate(1826.11 -464.13) rotate(136.11)"/><rect class="cls-50" x="1000.67" y="139.05" width="2.49" height="2.49" transform="translate(1821.21 -453.21) rotate(136.11)"/><path class="cls-49" d="M1015.25,116.61l-2.16-.06-4-.11a2,2,0,0,1,.11-4l4,.11,2.16.06.07-2.49-6.17-.17a4.47,4.47,0,0,0-.25,8.93l6.17.17Z"/><rect class="cls-50" x="1012.91" y="110.13" width="2.49" height="2.49" transform="translate(1153.58 -899.3) rotate(91.59)"/><rect class="cls-50" x="1012.73" y="116.57" width="2.49" height="2.49" transform="translate(1159.84 -892.5) rotate(91.59)"/><path class="cls-49" d="M1000.57,91l-1.32,1.71-2.44,3.18a2,2,0,1,1-3.14-2.41l2.44-3.18,1.32-1.72-2-1.51-3.75,4.89a4.46,4.46,0,1,0,7.08,5.44l3.76-4.89Z"/><rect class="cls-50" x="994.44" y="87.52" width="2.49" height="2.49" transform="translate(259.98 -588) rotate(37.52)"/><rect class="cls-50" x="999.55" y="91.45" width="2.49" height="2.49" transform="translate(263.43 -590.3) rotate(37.52)"/><path class="cls-37" d="M1009.12,137.62a2.13,2.13,0,0,0-.11.51.37.37,0,0,0,0,.2s.11.06.33,0a2,2,0,0,1,.88,0h0a.38.38,0,0,1,.28.39l-.06.85c0,.07,0,.11,0,.09s-.08-.08-.08-.06a2,2,0,0,1,.44.08,1,1,0,0,1,.55,1c0,.31-.08.64-.06.81s.26.18.51.14a6.62,6.62,0,0,1,.85-.13.83.83,0,0,1,.78.41,1,1,0,0,0,.2.36c.09.07.31.06.31-.11,0,.17-.21.22-.34.15a.94.94,0,0,1-.26-.35.67.67,0,0,0-.68-.26,5.81,5.81,0,0,0-.8.23,1.56,1.56,0,0,1-.49,0,.52.52,0,0,1-.47-.37,8,8,0,0,1-.05-.88c0-.22-.17-.41-.27-.42s-.13,0-.4,0a.58.58,0,0,1-.38-.34,1,1,0,0,1-.06-.33l0-.85.3.4a1.48,1.48,0,0,0-.49.09,1.33,1.33,0,0,1-1-.05,1.21,1.21,0,0,1-.58-1,3,3,0,0,1,.06-.86h0a.57.57,0,0,1,1.12.21S1009.13,137.59,1009.12,137.62Z"/><path class="cls-37" d="M1003.34,141.7a8.68,8.68,0,0,1,2-.49h0a.45.45,0,0,1,.5.34,1.84,1.84,0,0,1,0,1,5.54,5.54,0,0,1-.35.77,2.23,2.23,0,0,0-.39,1.25l-.57-.16a5.52,5.52,0,0,1,2.25-1.31h0a.18.18,0,0,1,.22.09,1,1,0,0,1,0,.66.25.25,0,0,0,.16.27c.25.14.59,0,1-.12a1.47,1.47,0,0,1,1.75,1.12h0l.13-.3-.11.31h0v0a1.35,1.35,0,0,0-1.66-.89,1.63,1.63,0,0,1-1.16.2.62.62,0,0,1-.42-.58c0-.23,0-.4,0-.42l.25.09a4.9,4.9,0,0,0-1.91,1.35.32.32,0,0,1-.46,0,.3.3,0,0,1-.1-.17v0a2.83,2.83,0,0,1,.32-1.73,1.72,1.72,0,0,0,.21-1.18l.53.33a8.77,8.77,0,0,0-1.72.6.57.57,0,1,1-.49-1Z"/><path class="cls-37" d="M1016.32,111.08a2.88,2.88,0,0,1,2.06-.34,1.43,1.43,0,0,1,.9.79,4.08,4.08,0,0,1,.1.44c0,.06-.09,0,0,0a2.05,2.05,0,0,0,.34-.17l.43-.2a4.17,4.17,0,0,1,2.69-.09,3.74,3.74,0,0,0-1.73.14,3.62,3.62,0,0,0-.78.34l-.35.23a2.11,2.11,0,0,1-.41.29.58.58,0,0,1-.45,0,.69.69,0,0,1-.3-.32c-.09-.19-.12-.35-.16-.4a.66.66,0,0,0-.47-.25,2.08,2.08,0,0,0-1.3.51.59.59,0,0,1-.8-.16.57.57,0,0,1,.17-.79Z"/><path class="cls-37" d="M1016.85,117.61a3.37,3.37,0,0,0,.87-.18c.28-.09.5-.26.95-.44a1.29,1.29,0,0,1,.76,0,.92.92,0,0,1,.63.57c.16.49,0,.4.29.44s.52-.27,1-.34.73.06,1,0,.65-.23,1-.28a3.14,3.14,0,0,1,1.06,0l0,0a.35.35,0,0,0-.35-.25.38.38,0,0,1,.41.23.05.05,0,0,1,0,0h0a3.06,3.06,0,0,0-1,.13c-.33.09-.6.28-1,.41a8.52,8.52,0,0,1-1,.15c-.25.06-.46.35-.94.48a.81.81,0,0,1-.78-.19,1.82,1.82,0,0,1-.3-.56c0-.09-.18-.09-.38,0s-.52.38-.87.56a4.32,4.32,0,0,1-1.13.39h0a.57.57,0,0,1-.22-1.12Z"/><path class="cls-37" d="M997,86.54c-.08.07,0,.06.07-.13l.11-.31a1.3,1.3,0,0,1,.22-.44,1.18,1.18,0,0,1,.44-.37.78.78,0,0,1,.73.07,1.32,1.32,0,0,1,.3.32c.06.09,0,0,0,.06l-.32.29.36-1.3c0-.07,0-.3.32-.45a.42.42,0,0,1,.31,0l.15.08.59.33-.2.1a8.89,8.89,0,0,1,.62-1.68,8.68,8.68,0,0,0-.34,1.73.13.13,0,0,1-.15.12h0l-.63-.23c-.09,0-.29-.09-.17-.07s0,0,0,.13l-.15,1.33a.31.31,0,0,1-.28.29h0a.74.74,0,0,1-.59-.25c-.09-.09-.17-.16-.18-.15s.07,0,.08,0,0,0,0,.09a.37.37,0,0,0,0,.17l-.06.34a1.37,1.37,0,0,1-.15.46,1.1,1.1,0,0,1-.52.47.57.57,0,0,1-.39-1.07Z"/><path class="cls-37" d="M1001.58,90.72l.26-.72.14-.37a1,1,0,0,1,.19-.34.68.68,0,0,1,.47-.21,1.05,1.05,0,0,1,.5.12c.1,0,0,0,.06,0s.07,0,.1-.11a.69.69,0,0,0,0-.28,1.59,1.59,0,0,1,.15-.87,2.34,2.34,0,0,1,.6-.58,1.15,1.15,0,0,0,.47-.53.51.51,0,0,0-.13-.65.58.58,0,0,1,.26.7,1.32,1.32,0,0,1-.41.69,2.15,2.15,0,0,0-.41.56,1.17,1.17,0,0,0,0,.63,1.06,1.06,0,0,1-.29,1,.8.8,0,0,1-.67.15c-.15,0-.29,0-.24,0s.2-.15.16-.05l-.06.37-.13.76a.57.57,0,1,1-1.13-.19Z"/><circle class="cls-36" cx="892.83" cy="149.03" r="5.13"/><line class="cls-36" x1="973.59" y1="62.11" x2="888.76" y2="145.91"/><line class="cls-36" x1="1009.67" y1="178.07" x2="892.83" y2="154.17"/><path class="cls-51" d="M999.41,139.71l-1.59,0,0,1.61-1.32,0,0-1.61-1.56,0,0-1.28,1.56,0,0-1.57,1.31,0,0,1.57,1.59,0Z"/><path class="cls-51" d="M1011.29,121l-1.59,0,0,1.62-1.31,0,0-1.61-1.56,0,0-1.28,1.55,0,0-1.57,1.32,0,0,1.57,1.59,0Z"/><path class="cls-51" d="M1001.15,98.78l-1.59,0,0,1.61-1.31,0,0-1.62-1.56,0,0-1.28,1.55,0,0-1.57,1.32,0,0,1.57,1.59,0Z"/><circle class="cls-52" cx="893.59" cy="509.01" r="20.93"/><text class="cls-53" transform="matrix(-0.58, 0, 0, 0.58, 906.09, 510.59)">+</text><text class="cls-53" transform="matrix(-1, 0, 0, 1, 900.33, 517.84)">H</text><text class="cls-54" transform="translate(61.03 84.96)"><tspan class="cls-55">h</tspan><tspan class="cls-56" x="22.44" y="0">y</tspan><tspan x="41.6" y="0">d</tspan><tspan class="cls-57" x="66.28" y="0">r</tspan><tspan class="cls-58" x="77.64" y="0">o</tspan><tspan class="cls-59" x="101.72" y="0">ly</tspan><tspan x="130.12" y="0">sis</tspan></text><text class="cls-60" transform="translate(59.94 144.68)">in t<tspan class="cls-61" x="37.52" y="0">h</tspan><tspan x="51.97" y="0">e </tspan><tspan class="cls-62" x="75.63" y="0">s</tspan><tspan x="86.16" y="0">oil </tspan><tspan class="cls-62" x="123.19" y="0">s</tspan><tspan x="133.72" y="0">olution, high c</tspan><tspan class="cls-61" x="302.51" y="0">h</tspan><tspan x="316.96" y="0">a</tspan><tspan class="cls-63" x="333" y="0">r</tspan><tspan x="340.39" y="0">ge catio</tspan><tspan class="cls-64" x="439.24" y="0">n</tspan><tspan x="454.24" y="0">s li</tspan><tspan class="cls-65" x="486.22" y="0">k</tspan><tspan x="497.87" y="0">e </tspan><tspan class="cls-66" x="521.53" y="0">F</tspan><tspan x="532.13" y="0">e3</tspan></text><text class="cls-60" transform="translate(613.63 136.02) scale(0.58)">+</text><text class="cls-60" transform="translate(620.81 144.68)"><tspan xml:space="preserve"> a</tspan><tspan class="cls-61" x="25.01" y="0">n</tspan><tspan x="39.44" y="0">d </tspan><tspan x="-560.87" y="36">Al3</tspan></text><text class="cls-60" transform="translate(89.01 172.02) scale(0.58)">+</text><text class="cls-60" transform="translate(96.19 180.68)"><tspan xml:space="preserve"> act li</tspan><tspan class="cls-65" x="67.31" y="0">k</tspan><tspan x="78.96" y="0">e</tspan><tspan class="cls-67" x="93.65" y="0"> </tspan><tspan class="cls-61" x="102.41" y="0">w</tspan><tspan x="122.72" y="0">eak acids, </tspan><tspan class="cls-68" x="251.08" y="0">b</tspan><tspan class="cls-69" x="267.07" y="0">r</tspan><tspan class="cls-68" x="275.98" y="0">eaking apart</tspan><tspan class="cls-67" x="434.22" y="0"> </tspan><tspan class="cls-70" x="442.98" y="0">w</tspan><tspan x="463.28" y="0">a</tspan><tspan class="cls-71" x="479.32" y="0">t</tspan><tspan x="486.01" y="0">er </tspan><tspan class="cls-61" x="517.57" y="0">m</tspan><tspan class="cls-72" x="539.9" y="0">olecul</tspan><tspan class="cls-73" x="610.54" y="0">e</tspan><tspan x="625.1" y="0">s. t</tspan><tspan class="cls-61" x="655.97" y="0">h</tspan><tspan x="670.42" y="0">e </tspan><tspan x="-36.25" y="36">acidit</tspan><tspan class="cls-74" x="29.81" y="36">y</tspan><tspan x="42.01" y="36" xml:space="preserve"> p</tspan><tspan class="cls-63" x="66.99" y="36">r</tspan><tspan x="74.38" y="36">oduced </tspan><tspan class="cls-71" x="174.32" y="36">r</tspan><tspan x="181.7" y="36">elea</tspan><tspan class="cls-62" x="233" y="36">s</tspan><tspan class="cls-73" x="243.53" y="36">e</tspan><tspan x="258.09" y="36">s </tspan><tspan class="cls-70" x="277.67" y="36">m</tspan><tspan x="300" y="36">o</tspan><tspan class="cls-71" x="315.65" y="36">r</tspan><tspan x="323.04" y="36">e </tspan><tspan class="cls-75" x="346.69" y="36">F</tspan><tspan x="357.3" y="36">e a</tspan><tspan class="cls-61" x="397" y="36">n</tspan><tspan x="411.43" y="36">d Al in</tspan><tspan class="cls-63" x="488.96" y="36">t</tspan><tspan x="495.65" y="36">o </tspan><tspan class="cls-62" x="520.27" y="36">s</tspan><tspan x="530.8" y="36">olution, c</tspan><tspan class="cls-71" x="638.36" y="36">r</tspan><tspan x="645.74" y="36">eati</tspan><tspan class="cls-70" x="690.2" y="36">n</tspan><tspan class="cls-76" x="704.63" y="36">g </tspan><tspan x="-36.25" y="72">a </tspan><tspan class="cls-63" x="-11.24" y="72">f</tspan><tspan x="-4.56" y="72">eedback loop </tspan><tspan class="cls-77" x="170.24" y="72">o</tspan><tspan x="185.55" y="72">f acidit</tspan><tspan class="cls-78" x="267.79" y="72">y</tspan><tspan x="278.68" y="72">.</tspan></text><circle class="cls-79" cx="373.34" cy="527.26" r="14.27"/><text class="cls-80" transform="translate(366.99 532.18)">H</text><text class="cls-80" transform="translate(377.36 527.24) scale(0.58)">+</text><circle class="cls-79" cx="428.51" cy="527.26" r="14.27"/><text class="cls-80" transform="translate(422.16 532.18)">H</text><text class="cls-80" transform="translate(432.53 527.24) scale(0.58)">+</text><line class="cls-81" x1="390.74" y1="508" x2="382.45" y2="516.29"/><line class="cls-81" x1="410.9" y1="508" x2="419.18" y2="516.29"/><path class="cls-17" d="M450.47,494.32c-1.9-4.15-7.26-5.77-12-3.62a26.12,26.12,0,0,0-4.24,2.91,33.42,33.42,0,0,1-9.62,5l-2.2.72L423,497a32.94,32.94,0,0,1,4.27-9.94,26.28,26.28,0,0,0,2.61-4.43c1.81-4.86-.18-10.1-4.45-11.7s-9.22,1-11,5.91.18,10.1,4.45,11.7a6.29,6.29,0,0,0,1.27.43l-2.85,12-22,7.21a5.41,5.41,0,0,0-3.55,5.58L416,506.14,410.13,531a5.42,5.42,0,0,0,5.32-3.93l5.65-22.49,11.74-3.68a6.72,6.72,0,0,0,.52,1.24c1.89,4.15,7.25,5.77,12,3.62S452.36,498.48,450.47,494.32Zm-30.06-9.93c-2.24-.83-3.29-3.58-2.33-6.13s3.54-3.94,5.78-3.1a4.65,4.65,0,0,1,2.33,6.13C425.24,483.84,422.65,485.23,420.41,484.39Zm23.3,17.77c-2.48,1.13-5.29.28-6.28-1.89s.21-4.86,2.69-6,5.29-.28,6.28,1.9A4.65,4.65,0,0,1,443.71,502.16Z"/><circle class="cls-82" cx="401.01" cy="497.73" r="14.27"/><text class="cls-80" transform="translate(394.41 503.03)">O</text><text class="cls-80" transform="translate(406.59 498.09) scale(0.58)">-</text></g></g></svg>