<svg xmlns="http://www.w3.org/2000/svg" xmlns:xlink="http://www.w3.org/1999/xlink" viewBox="0 0 573.69 536.3"><defs><style>.cls-1,.cls-10,.cls-15,.cls-19,.cls-9{fill:none;}.cls-1,.cls-15,.cls-6{stroke:#5c5052;}.cls-1,.cls-10,.cls-11,.cls-12,.cls-13,.cls-14,.cls-15,.cls-16,.cls-18,.cls-19,.cls-6,.cls-8,.cls-9{stroke-miterlimit:10;}.cls-1{stroke-width:2.04px;}.cls-2{fill:#ffce01;}.cls-3{fill:#5c5052;}.cls-12,.cls-4{fill:#f27243;}.cls-11,.cls-5{fill:#3daaa1;}.cls-16,.cls-6{fill:#fff;}.cls-15,.cls-6{stroke-width:4.18px;}.cls-6{opacity:0.5;}.cls-7{clip-path:url(#clip-path);}.cls-13,.cls-17,.cls-8{fill:#2e61a1;}.cls-11,.cls-12,.cls-13,.cls-14,.cls-8{stroke:#fff;}.cls-11,.cls-14,.cls-8{stroke-width:1.39px;}.cls-10,.cls-9{stroke:#f27243;}.cls-9{stroke-width:1.86px;}.cls-10{stroke-width:1.44px;}.cls-12{stroke-width:0.53px;}.cls-13{stroke-width:1.05px;}.cls-14,.cls-20{fill:#ec6a7c;}.cls-16{stroke:#2e61a1;stroke-width:1.03px;}.cls-18{font-size:18.68px;fill:#2e61a2;stroke:#2e61a2;stroke-width:0.85px;font-family:Acre-Bold, Acre;font-weight:700;}.cls-19{stroke:#ec6a7c;stroke-width:0.98px;}</style><clipPath id="clip-path"><path class="cls-1" d="M420,378.28A151.22,151.22,0,1,1,268.79,227.06,151.22,151.22,0,0,1,420,378.28Z"/></clipPath></defs><g id="Layer_2" data-name="Layer 2"><g id="Layer_2-2" data-name="Layer 2"><path class="cls-2" d="M98,164.12c4.14,2.11,8.95,1.35,8.92-4.71,0-5.71-7.53-5.62-11.69-5.65-4.67,0-8.72,2.23-3.67,6.63,1.61,1.4,4.58,2.67,6.44,3.73"/><path class="cls-2" d="M97.52,130.24c-1.89-.85-6.34.69-8.51,2.55s-4.49,5.12-3.58,8c1.21,2.39,5.08,2.48,8.77,2.64,4.56.19,9.46-1.44,13.9-.64s9.64,3.36,14.34,1c7.74-3.9.46-9.18-4.51-10.51-6.37-1.71-15,.39-20.41-3"/><path class="cls-2" d="M182.55,182.27c6.22-2.46,10.23-2.33,11.12-9.38.66-5.29,2.32-9.26-3.19-13.15-4.54-3.2-14.39-2.58-19.22-.7s-6.45,5.12-6.25,10c.24,5.81,4.66,10.25,9.33,12.3,2,.88,5.18,2.55,8.21.89"/><path class="cls-2" d="M122.83,165.39c-3.87.39-6.12,7.76-1.14,11.64,3.26,2.55,9.71,2.26,11.58-1.81,3.08-6.66-5.38-10.68-10.44-9.83"/><path class="cls-2" d="M148.21,145.87c-4.14-2.1-9-1.34-8.92,4.72,0,5.7,7.53,5.61,11.69,5.65,4.67,0,8.72-2.24,3.67-6.64-1.61-1.39-4.58-2.66-6.44-3.73"/><path class="cls-2" d="M94.6,176.13c-12.93,17.69,30.06,11.64,23.54-.74-2.29-4.36-7.49-3.45-12.39-4.36-3.51-.65-9-.31-10,2-.47,1-.46,2.05-1.2,3.13"/><path class="cls-2" d="M28.18,131.2c4.27.16,8.38-1.17,10.92,3,1.7,2.78,3.63,7.32,3.63,10.49,0,7.5-7.07,8.83-12.38,7.2a24.25,24.25,0,0,1-8.16-4.65c-2.74-2.14-8.07-3.89-10-7-4.94-8.13,6.47-8.33,11-8.55,1.72-.09,3.11-.54,4.92-.49"/><path class="cls-2" d="M174,146.79c3.77-3.55,13.7-13.37,5.91-17.88-2.17-1.26-9.81-1.33-12.19.3-2.09,1.44-2.35,4.11-1.94,6.58s2.12,4.14,2.63,6.61-1.18,4.21.83,5.3c2.2,1.2,5.62-.76,5.88-2.73"/><path class="cls-2" d="M216.23,143c8.23-4.74,5.7-17.79-4.4-17.84-6.62,0-16.15,5.74-13.53,12.82,1.64,4.41,8.27,8.7,12.8,8.85,3.86.13,4.21-3,6.62-4.56"/><path class="cls-2" d="M149.51,170.48a9.69,9.69,0,0,0-4-.39,5,5,0,0,0-2.24,1.1,7.35,7.35,0,0,0-2.83,4.48c-.75,2.85.73,7.38,3.86,8.72,1.66.71,7.86,1.15,7.84-1.41a6,6,0,0,0-.64-2.39,6.31,6.31,0,0,1-.69-2.49,50.64,50.64,0,0,1,0-5.37c.12-1.4-.09-1.77-1.29-2.25"/><path class="cls-2" d="M217.24,178.8c-4.28-.16-8.38,1.17-10.93-3-1.69-2.78-3.62-7.31-3.63-10.49,0-7.5,7.08-8.83,12.38-7.19a24,24,0,0,1,8.17,4.65c2.74,2.14,8.07,3.88,10,7,4.95,8.14-6.47,8.34-11,8.56-1.71.08-3.1.54-4.91.49"/><path class="cls-2" d="M61.66,129.3c-6.22,2.46-10.24,2.33-11.12,9.38-.66,5.29-2.33,9.26,3.19,13.15,4.54,3.2,14.39,2.58,19.21.7s6.46-5.12,6.26-10c-.24-5.81-4.66-10.25-9.33-12.3-2-.88-5.18-2.55-8.21-.89"/><path class="cls-2" d="M78.62,167.24c-3.77,3.55-13.71,13.37-5.91,17.88,2.17,1.26,9.81,1.33,12.18-.3,2.09-1.44,2.35-4.11,1.94-6.58s-2.12-4.14-2.62-6.61,1.17-4.21-.83-5.3c-2.2-1.2-5.62.76-5.88,2.73"/><path class="cls-2" d="M41.91,161.91c-7,4-4.82,15,3.71,15.07,5.59,0,13.64-4.85,11.42-10.83-1.38-3.73-7-7.35-10.8-7.47-3.27-.11-3.56,2.52-5.59,3.85"/><path class="cls-2" d="M153.23,129.15c12.93-17.69-30.06-11.64-23.54.73,2.3,4.37,7.49,3.45,12.39,4.37,3.51.65,9,.31,10-2,.47-1,.45-2.05,1.19-3.13"/><path class="cls-3" d="M32.13,164.56c.66-5.06-6-8.36-9.38-4.12-2.23,2.77-2.86,8.73,1.15,10,2.51.79,6.63-.57,8.21-2.43,1.35-1.58.09-2.77.2-4.32"/><path class="cls-3" d="M92.75,156.28c-2-1.49-4.71-1.48-5.23,1.79-.49,3.08,3.56,3.66,5.81,4,2.52.41,4.9-.48,2.56-3.28a23.62,23.62,0,0,0-3.14-2.55"/><path class="cls-3" d="M91.48,128.06c-11.06,5,11,13.49,11.37,5.89.13-2.68-2.59-3.62-4.66-5.35-1.49-1.24-4.17-2.52-5.27-1.71-.5.34-.79.85-1.44,1.17"/><path class="cls-3" d="M123.71,132.15c-3.5-11.37-15.22,8.78-7.56,10.18,2.7.49,4-2,6.08-3.77,1.47-1.26,3.14-3.67,2.47-4.85a9.29,9.29,0,0,1-1-1.56"/><path class="cls-3" d="M118.47,172.3c-1.12,1.77,1.39,5.18,4.77,4.38,2.22-.52,4.26-3.33,3.08-5.49-1.92-3.52-6.53-1.31-7.85,1.11"/><path class="cls-3" d="M143.79,156.11c11.06-5-11-13.49-11.37-5.89-.13,2.68,2.59,3.62,4.66,5.35,1.49,1.24,4.17,2.53,5.28,1.71.49-.34.78-.85,1.43-1.17"/><path class="cls-3" d="M102.63,175.42c-3.64-.48-5.51-1.6-7.89,1.51-1.79,2.33-3.68,3.78-2.15,7.08,1.27,2.72,6.11,5,8.93,5.43s4.48-.72,5.76-3.11c1.5-2.82.64-6.1-1-8.31-.7-.94-1.74-2.58-3.64-2.6"/><path class="cls-3" d="M115.41,161.21c2.78-.68,10.23-2.71,7.78-6.91-.68-1.18-4.28-3.24-5.86-3.09a3.55,3.55,0,0,0-2.75,2.61c-.5,1.29-.15,2.52-.6,3.83s-1.73,1.68-1.08,2.73a2.48,2.48,0,0,0,3.55.27"/><path class="cls-4" d="M117.25,157.31c-.46-.68-1.28-1-1.83,0s.68,1.52,1.33,1.88,1.57.4,1.17-.72a8.72,8.72,0,0,0-.67-1.14"/><path class="cls-3" d="M37.92,141.17c-2-.84-5.07,2.05-3.78,5.22.83,2.07,4,3.64,6,2.21,3.31-2.35.42-6.5-2.22-7.43"/><path class="cls-3" d="M21.22,153.55c-2.33.13-4.5,1.07-6.11-1.06A13.43,13.43,0,0,1,12.56,147c-.41-4.08,3.37-5.17,6.35-4.56a13.2,13.2,0,0,1,4.7,2.11c1.6,1,4.6,1.69,5.79,3.28,3.14,4.17-3.06,4.87-5.53,5.23-.93.13-1.66.45-2.65.52"/><path class="cls-3" d="M37,139.2c-1.12,1.76,1.38,5.18,4.77,4.38,2.22-.52,4.26-3.34,3.08-5.49-1.92-3.53-6.53-1.31-7.85,1.11"/><path class="cls-3" d="M161.84,137.43c-1.06,1.66,1.31,4.9,4.52,4.14,2.1-.49,4-3.16,2.91-5.2-1.82-3.33-6.18-1.24-7.43,1.06"/><path class="cls-3" d="M142.28,172.23c-1.66-.42-3.74,2.29-2.29,4.63.95,1.54,3.66,2.38,5.07,1,2.31-2.29-.56-5.21-2.78-5.61"/><path class="cls-3" d="M146.81,177.94c.32,2.78,1.34,10.26,5.94,8.48,1.29-.49,3.88-3.69,3.95-5.24.07-1.36-1-2.36-2.26-3s-2.54-.5-3.81-1.11-1.47-1.91-2.62-1.43a2.34,2.34,0,0,0-.76,3.39"/><path class="cls-3" d="M72.33,128.16c2,1.21,4.31,1.66,4.36,4.32a13.18,13.18,0,0,1-1.2,5.94c-2.08,3.56-5.82,2.31-7.88.13A12.69,12.69,0,0,1,65,134.18c-.7-1.74-2.75-4-2.78-6-.08-5.17,5.39-2.24,7.62-1.14.83.41,1.62.57,2.46,1.07"/><path class="cls-3" d="M68,151.29c-.31-2.78-1.33-10.26-5.94-8.48-1.29.5-3.88,3.69-4,5.24-.06,1.36,1,2.37,2.26,3s2.55.49,3.81,1.11,1.47,1.9,2.63,1.42a2.34,2.34,0,0,0,.76-3.39"/><path class="cls-3" d="M49.9,140.68c-2.35,1-3.7,3.22-1.06,5.31,2.48,2,5-1.14,6.5-2.85,1.65-1.91,2.07-4.36-1.59-3.81a24.79,24.79,0,0,0-3.85,1.35"/><path class="cls-3" d="M47.23,160.32C44.45,161,37,163,39.45,167.24c.68,1.18,4.28,3.23,5.86,3.09a3.55,3.55,0,0,0,2.75-2.61c.5-1.3.15-2.52.6-3.83s1.73-1.69,1.08-2.74a2.48,2.48,0,0,0-3.55-.26"/><path class="cls-3" d="M69.46,174.28c-5.22,0-7.71,6.87-2.95,9.61,3.12,1.79,9.25,1.62,10-2.43.48-2.53-1.45-6.33-3.55-7.62-1.78-1.1-2.82.28-4.41.38"/><path class="cls-3" d="M88.36,180c1.12-1.76-1.38-5.18-4.77-4.38-2.22.53-4.25,3.34-3.08,5.49,1.92,3.53,6.53,1.31,7.85-1.11"/><path class="cls-3" d="M152.21,125.69c3.51,11.37,15.22-8.78,7.56-10.18-2.7-.49-4,2-6.08,3.77-1.47,1.26-3.14,3.67-2.47,4.85a9.29,9.29,0,0,1,1,1.56"/><path class="cls-3" d="M134.37,120.39c-.66-.91-3.2-1.36-4.75-1s-3.55,1.25-3.91,2.82c-.09,1.46,1.72,2.53,3.43,3.58,2.11,1.3,4.89,1.83,6.77,3.38s3.64,4.15,6.53,4.27c4.76.2,2.77-4.23.79-6.18-2.55-2.5-7.25-3.8-8.86-6.82"/><path class="cls-3" d="M191.88,167.29c2.4.84,5,.06,4.46-3.21-.47-3.09-4.52-2.48-6.77-2.19-2.54.32-4.55,1.85-1.47,3.86a24.14,24.14,0,0,0,3.78,1.54"/><path class="cls-3" d="M168.92,178.72c3.64.48,5.5,1.6,7.89-1.51,1.78-2.33,3.68-3.78,2.14-7.08-1.26-2.72-6.11-5-8.92-5.43s-4.49.73-5.76,3.11c-1.51,2.82-.64,6.1,1,8.31.7.95,1.75,2.58,3.65,2.6"/><path class="cls-3" d="M179.61,161.45c2,1.49,4.71,1.48,5.23-1.79.49-3.09-3.57-3.67-5.81-4-2.52-.41-4.91.47-2.57,3.27a23.78,23.78,0,0,0,3.15,2.56"/><path class="cls-3" d="M184.21,183.86c5.22-.06,7.65-6.93,2.88-9.63-3.13-1.77-9.27-1.55-10,2.5-.45,2.53,1.5,6.32,3.61,7.59,1.8,1.09,2.83-.3,4.41-.4"/><path class="cls-3" d="M211.92,141.92c-.65,5.06,6,8.36,9.38,4.12,2.23-2.78,2.86-8.73-1.15-10-2.5-.79-6.62.57-8.21,2.43-1.35,1.58-.08,2.77-.19,4.31"/><path class="cls-3" d="M196.53,130.17c.64-2.2.45-4.5,3.05-5.27a13.86,13.86,0,0,1,6.18-.51c4.09,1,3.88,4.81,2.3,7.35a12.89,12.89,0,0,1-3.59,3.62c-1.53,1.14-3.17,3.67-5.1,4.25-5.08,1.5-3.7-4.44-3.22-6.83.18-.9.11-1.68.38-2.61"/><path class="cls-3" d="M223.78,179.74c1.95.84,5.07-2.06,3.78-5.22-.84-2.07-4-3.65-6-2.21-3.31,2.34-.42,6.49,2.22,7.43"/><path class="cls-3" d="M215.35,182.28c-2-1.21-4.3-1.66-4.35-4.31a13.15,13.15,0,0,1,1.2-5.94c2.08-3.56,5.81-2.32,7.88-.14a12.85,12.85,0,0,1,2.58,4.37c.7,1.75,2.74,4,2.78,6,.08,5.17-5.39,2.24-7.62,1.13-.84-.41-1.62-.56-2.47-1.07"/><path class="cls-3" d="M222.8,155.91c-.66-.91-3.2-1.36-4.75-1s-3.56,1.24-3.92,2.82c-.09,1.46,1.72,2.53,3.43,3.58,2.11,1.3,4.89,1.83,6.78,3.38s3.64,4.15,6.53,4.27c4.75.2,2.77-4.23.78-6.18-2.54-2.5-7.24-3.8-8.85-6.82"/><path class="cls-4" d="M26.54,162.29c.59-.36.37-1.72-.74-2-.73-.16-1.75.37-1.74,1.17,0,1.31,1.72,1.33,2.48.81"/><path class="cls-4" d="M26.57,168.31c.88.33,3.26,1.19,3.44-.39a3,3,0,0,0-1-1.92,1.2,1.2,0,0,0-1.25.18c-.39.25-.54.64-.92.91s-.79.12-.82.52a.8.8,0,0,0,.89.74"/><path class="cls-4" d="M101.62,159.92c.88.81,1.15,1.46,2.4,1.08.93-.29,1.72-.31,2-1.48a4.28,4.28,0,0,0-1.31-3.12,1.71,1.71,0,0,0-2.15-.26,2.66,2.66,0,0,0-1.37,2.4,1.54,1.54,0,0,0,.46,1.38"/><path class="cls-4" d="M89.42,162.66c1.41,1,3.41-.41,2.67-2-.49-1-2.16-2.15-3.15-1.2a2.84,2.84,0,0,0-.54,2.69c.26.63.81.45,1.25.72"/><path class="cls-4" d="M93.82,156.43c-.54.43-.15,1.76,1,1.87.75.07,1.69-.58,1.57-1.37-.2-1.3-1.88-1.11-2.56-.5"/><path class="cls-4" d="M98.63,160.69a1.73,1.73,0,0,0,2.44,2.27c1-.62,1.87-2.4.77-3.21a3,3,0,0,0-2.82-.13c-.59.35-.34.85-.54,1.32"/><path class="cls-4" d="M97.07,133.3c.6-.36.38-1.72-.73-2-.73-.16-1.76.37-1.74,1.17,0,1.31,1.72,1.33,2.47.81"/><path class="cls-4" d="M89.23,139.9c.88.34,3.26,1.2,3.44-.38a3,3,0,0,0-1-1.92,1.2,1.2,0,0,0-1.25.18c-.39.25-.54.64-.92.91s-.79.12-.82.52a.8.8,0,0,0,.89.74"/><path class="cls-4" d="M97.65,138.79a1.89,1.89,0,0,0-.87,1.31,1.58,1.58,0,0,0,.44,1.5c.45.19,1-.23,1.53-.62s1.13-1.26,1.84-1.65,1.72-.62,2.09-1.48c.61-1.41-1-1.31-1.86-.94-1.08.48-2,1.74-3.17,1.88"/><path class="cls-4" d="M109.4,138.43c-.29-.69-.82-1.25-.31-2a4.5,4.5,0,0,1,1.49-1.36c1.26-.56,2,.48,2.12,1.44a4,4,0,0,1-.17,1.65c-.16.6,0,1.58-.43,2.11-1,1.39-1.88-.42-2.26-1.13a6.73,6.73,0,0,1-.44-.75"/><path class="cls-4" d="M119.49,139.68c-.33.87-1.16,3.21.46,3.35a3.17,3.17,0,0,0,2-1,1.14,1.14,0,0,0-.21-1.21c-.26-.38-.67-.51-1-.88s-.14-.77-.55-.79a.78.78,0,0,0-.74.88"/><path class="cls-4" d="M105,133.65c-.88-.81-1.15-1.46-2.4-1.08-.94.28-1.73.31-2,1.48a4.24,4.24,0,0,0,1.31,3.12,1.69,1.69,0,0,0,2.14.25,2.63,2.63,0,0,0,1.38-2.4,1.53,1.53,0,0,0-.46-1.37"/><path class="cls-4" d="M180,169.7c.1.91.42,3.37,1.94,2.79a3,3,0,0,0,1.3-1.72,1.15,1.15,0,0,0-.74-1c-.41-.22-.83-.17-1.25-.37s-.48-.63-.86-.47a.76.76,0,0,0-.25,1.11"/><path class="cls-4" d="M187,163.13c-.82.87-1.48,1.15-1.06,2.36.31.9.36,1.67,1.56,1.89a4.49,4.49,0,0,0,3.17-1.34,1.6,1.6,0,0,0,.22-2.1,2.74,2.74,0,0,0-2.49-1.29,1.62,1.62,0,0,0-1.4.48"/><path class="cls-4" d="M175.09,170c-.64.52-.86,1.35.17,1.77s1.48-.82,1.78-1.49.24-1.56-.86-1.06a8.06,8.06,0,0,0-1.09.78"/><path class="cls-4" d="M183.35,179.77c.37.73,1.14,1.13,1.8.25s-.47-1.6-1.06-2-1.51-.58-1.26.58a8,8,0,0,0,.52,1.21"/><path class="cls-4" d="M190.76,173.77c.36.74,1.14,1.13,1.8.25s-.47-1.6-1.07-2-1.5-.58-1.25.58a6.4,6.4,0,0,0,.52,1.21"/><path class="cls-4" d="M162.48,170.65c-.33.86-1.16,3.2.46,3.34a3.12,3.12,0,0,0,1.95-1,1.14,1.14,0,0,0-.21-1.21c-.27-.37-.67-.51-1-.87s-.14-.77-.55-.8a.79.79,0,0,0-.74.89"/><path class="cls-4" d="M168.81,165c-.69,3.85,5.8-.38,3.76-1.9-.72-.53-1.49,0-2.35.23-.63.16-1.48.63-1.46,1.07a2.86,2.86,0,0,1,.05.6"/><path class="cls-4" d="M169.17,173.21a1.73,1.73,0,0,0,2.13,2.56c1.08-.49,2.16-2.15,1.18-3.1a3.06,3.06,0,0,0-2.78-.47c-.64.27-.45.8-.71,1.24"/><path class="cls-4" d="M181.08,159.54c-.36-.58-1.76-.4-2,.69a1.39,1.39,0,0,0,1.16,1.71c1.35,0,1.39-1.65.88-2.4"/><path class="cls-4" d="M127.27,167.56a1.89,1.89,0,0,0-.87,1.31,1.56,1.56,0,0,0,.45,1.5c.45.19,1-.23,1.52-.62s1.13-1.26,1.84-1.65,1.72-.62,2.09-1.48c.61-1.4-1-1.31-1.86-.94-1.08.48-2,1.75-3.17,1.88"/><path class="cls-4" d="M130.12,172.57c-.88-.81-1.15-1.46-2.4-1.08-.94.28-1.73.31-2,1.48a4.24,4.24,0,0,0,1.31,3.12,1.7,1.7,0,0,0,2.14.26,2.65,2.65,0,0,0,1.38-2.4,1.54,1.54,0,0,0-.46-1.38"/><path class="cls-4" d="M123.32,165c-.35-.58-1.76-.4-2,.68a1.4,1.4,0,0,0,1.16,1.72c1.35,0,1.4-1.65.88-2.4"/><path class="cls-4" d="M153.07,151.65c-.38,0-1,.59-1.18,1.06a1.55,1.55,0,0,0,.05,1.56c.38.29,1,0,1.63-.24a18.46,18.46,0,0,1,2.2-1.15c.79-.21,1.83-.18,2.41-.92.94-1.22-.66-1.53-1.57-1.37-1.17.21-2.41,1.2-3.54,1.06"/><path class="cls-4" d="M138.59,151.8c-.76.34-1.18,1.09-.29,1.76s1.65-.43,2.11-1,.63-1.46-.57-1.24a8.25,8.25,0,0,0-1.25.48"/><path class="cls-4" d="M151.89,145.56a1.74,1.74,0,0,0-2.66,2c.48,1,2.16,2.15,3.15,1.2a2.84,2.84,0,0,0,.54-2.69c-.27-.63-.82-.45-1.26-.72"/><path class="cls-4" d="M147,149c.29.7.81,1.26.3,2a4.41,4.41,0,0,1-1.49,1.36c-1.25.55-2-.48-2.12-1.45a4.16,4.16,0,0,1,.17-1.65c.16-.59.06-1.57.44-2.1,1-1.39,1.88.41,2.25,1.13.14.26.32.45.45.74"/><path class="cls-4" d="M101,177.07c0-.82-.51-1.51-1.5-1s-.31,1.63,0,2.28,1.07,1.19,1.39,0a8.08,8.08,0,0,0,.09-1.31"/><path class="cls-4" d="M107.55,175.5c.66-.39,1.15-1,2-.59a4.45,4.45,0,0,1,1.59,1.24c.75,1.13-.19,2-1.15,2.26a4.45,4.45,0,0,1-1.7.07c-.62-.06-1.6.18-2.2-.11-1.56-.75.15-1.87.82-2.33a7.48,7.48,0,0,1,.69-.54"/><path class="cls-4" d="M104.42,169.87a1.74,1.74,0,0,0-2.66,2c.48,1.06,2.16,2.15,3.15,1.21a2.84,2.84,0,0,0,.53-2.7c-.26-.63-.81-.45-1.25-.72"/><path class="cls-4" d="M117.14,154.9c.35.59,1.75.41,2-.68a1.38,1.38,0,0,0-1.16-1.71c-1.34,0-1.39,1.65-.87,2.39"/><path class="cls-4" d="M123.13,154.58c.76-.34,1.18-1.09.29-1.75s-1.64.43-2.1,1-.64,1.45.56,1.24a8.3,8.3,0,0,0,1.25-.49"/><path class="cls-4" d="M34.91,148c.6-.36.38-1.72-.74-2-.73-.17-1.75.36-1.73,1.16,0,1.32,1.72,1.33,2.47.81"/><path class="cls-4" d="M34.62,138.86c.65-.52.86-1.35-.17-1.77s-1.48.82-1.78,1.48-.23,1.57.87,1.06a7.33,7.33,0,0,0,1.08-.77"/><path class="cls-4" d="M27.54,147a1.73,1.73,0,0,0-2.13-2.56c-1.08.49-2.16,2.15-1.18,3.1A3.06,3.06,0,0,0,27,148c.64-.27.44-.8.71-1.24"/><path class="cls-4" d="M25,140.6c-.7.3-1.26.82-2,.34a4.31,4.31,0,0,1-1.42-1.43c-.6-1.21.44-2,1.43-2.1a4.51,4.51,0,0,1,1.69.14c.62.14,1.62,0,2.17.38,1.45.95-.39,1.84-1.11,2.22-.27.14-.46.32-.76.45"/><path class="cls-4" d="M31.19,153.3c.87.34,3.26,1.2,3.44-.38a3,3,0,0,0-1-1.92,1.19,1.19,0,0,0-1.24.18c-.39.25-.54.64-.92.91s-.79.12-.83.52a.81.81,0,0,0,.9.74"/><path class="cls-4" d="M26,136.07c-.7,1-1.32,1.32-.75,2.47.43.86.57,1.62,1.79,1.68a4.41,4.41,0,0,0,3-1.71,1.62,1.62,0,0,0-.06-2.12,2.78,2.78,0,0,0-2.64-1c-.38.06-1,.11-1.32.65"/><path class="cls-4" d="M18.53,137c.45.68,1.28,1,1.82,0s-.68-1.52-1.33-1.88-1.56-.4-1.17.72a7.79,7.79,0,0,0,.68,1.14"/><path class="cls-4" d="M31.52,133c-.77-.07-1.52.12-1.93-.66a4.39,4.39,0,0,1-.53-1.92c.09-1.34,1.38-1.5,2.31-1.15a4.25,4.25,0,0,1,1.41.92c.46.42,1.4.79,1.7,1.37.79,1.51-1.26,1.42-2.08,1.41-.3,0-.56.06-.88,0"/><path class="cls-4" d="M41.63,136.6a1.74,1.74,0,0,0-2.44-2.28c-1,.63-1.86,2.4-.76,3.22a3,3,0,0,0,2.81.13c.6-.35.34-.85.55-1.32"/><path class="cls-4" d="M201.55,132c-.59.36-.37,1.72.74,2,.73.17,1.75-.36,1.74-1.17,0-1.31-1.72-1.32-2.48-.8"/><path class="cls-4" d="M203.09,143c-.6.36-.38,1.72.74,2,.73.16,1.75-.37,1.73-1.17,0-1.31-1.72-1.33-2.47-.81"/><path class="cls-4" d="M219,142c-.59.35-.38,1.72.74,2,.73.17,1.75-.37,1.74-1.17,0-1.31-1.72-1.32-2.48-.8"/><path class="cls-4" d="M178.73,136.58c-.65.52-.86,1.35.17,1.77s1.48-.82,1.78-1.49.24-1.56-.86-1.05a6.73,6.73,0,0,0-1.09.77"/><path class="cls-4" d="M210.16,140.76c-.7.44-1,1.24,0,1.78s1.57-.65,1.95-1.28.41-1.53-.74-1.15a7.9,7.9,0,0,0-1.17.65"/><path class="cls-4" d="M165.69,136c-.35-.58-1.75-.4-2,.68a1.4,1.4,0,0,0,1.16,1.72c1.35,0,1.4-1.65.88-2.4"/><path class="cls-4" d="M169.64,142.89c-.35-.59-1.75-.4-2,.68a1.41,1.41,0,0,0,1.17,1.72c1.34,0,1.39-1.65.87-2.4"/><path class="cls-4" d="M218.66,130.7c-.87-.34-3.26-1.2-3.44.38a3,3,0,0,0,1,1.93,1.21,1.21,0,0,0,1.24-.18c.39-.25.54-.65.92-.91s.79-.13.83-.53a.79.79,0,0,0-.9-.73"/><path class="cls-4" d="M173,135.43c0-.37-.59-1-1.06-1.17a1.65,1.65,0,0,0-1.6,0c-.31.37,0,1,.21,1.6A18.7,18.7,0,0,1,171.7,138c.2.78.15,1.79.9,2.37,1.23.94,1.57-.61,1.43-1.5-.19-1.15-1.18-2.37-1-3.48"/><path class="cls-4" d="M210.39,130.93c.29.69.82,1.25.31,2a4.47,4.47,0,0,1-1.49,1.35c-1.26.56-2-.47-2.12-1.44a4,4,0,0,1,.17-1.65c.16-.6.05-1.58.44-2.11,1-1.39,1.87.42,2.25,1.13.14.27.32.46.44.75"/><path class="cls-4" d="M173.74,132.55c-.66.38-1.15,1-2,.58a4.45,4.45,0,0,1-1.59-1.24c-.75-1.13.18-2,1.15-2.26a4.44,4.44,0,0,1,1.7-.07c.62.06,1.6-.18,2.19.11,1.56.76-.14,1.87-.81,2.34-.25.17-.41.37-.69.54"/><path class="cls-4" d="M145.56,180.32a1.73,1.73,0,0,0,2.13,2.57c1.08-.5,2.16-2.16,1.18-3.1a3,3,0,0,0-2.78-.47c-.64.27-.45.8-.71,1.24"/><path class="cls-4" d="M151.3,168.09c-.88-.81-1.15-1.46-2.4-1.08-.94.28-1.73.31-2,1.48a4.24,4.24,0,0,0,1.31,3.12,1.71,1.71,0,0,0,2.14.26,2.65,2.65,0,0,0,1.38-2.41,1.56,1.56,0,0,0-.46-1.37"/><path class="cls-4" d="M211,171.74c.7-.3,1.26-.83,2-.34a4.48,4.48,0,0,1,1.42,1.42c.59,1.22-.45,2-1.44,2.11a4.55,4.55,0,0,1-1.69-.14c-.62-.14-1.62,0-2.17-.38-1.45-.95.39-1.84,1.11-2.22a8,8,0,0,1,.76-.45"/><path class="cls-4" d="M225.19,171.36c-3.92-.75.28,5.66,1.87,3.7.56-.69,0-1.45-.19-2.3-.15-.61-.61-1.45-1.06-1.44a3,3,0,0,1-.62,0"/><path class="cls-4" d="M216.3,167.8c.7-1,1.32-1.33.75-2.48-.43-.86-.57-1.61-1.8-1.68a4.47,4.47,0,0,0-3,1.72,1.61,1.61,0,0,0,.06,2.11,2.75,2.75,0,0,0,2.64,1,1.58,1.58,0,0,0,1.32-.64"/><path class="cls-4" d="M223.54,167.59c-.46-.68-1.29-1-1.83,0s.68,1.52,1.33,1.88,1.57.4,1.17-.72a8.72,8.72,0,0,0-.67-1.14"/><path class="cls-4" d="M208,165.77c.66-.5.89-1.33-.13-1.77s-1.5.78-1.81,1.44-.28,1.56.84,1.08a7.92,7.92,0,0,0,1.1-.75"/><path class="cls-4" d="M221.77,161.12c.58-.5.94-1.17,1.8-.94a4.64,4.64,0,0,1,1.81.92c1,1,.21,2-.69,2.44a4.57,4.57,0,0,1-1.65.39c-.63,0-1.54.47-2.18.3-1.68-.46-.22-1.87.34-2.45a8.67,8.67,0,0,1,.57-.66"/><path class="cls-4" d="M69.54,146.47c.82-.87,1.48-1.15,1.06-2.36-.31-.91-.36-1.68-1.56-1.89a4.45,4.45,0,0,0-3.17,1.34,1.6,1.6,0,0,0-.22,2.1A2.74,2.74,0,0,0,68.14,147a1.63,1.63,0,0,0,1.4-.48"/><path class="cls-4" d="M71.75,151.23c.6-.35.38-1.72-.73-2-.73-.17-1.76.36-1.74,1.17,0,1.31,1.72,1.32,2.47.8"/><path class="cls-4" d="M72.86,134.71c.6-.36.38-1.72-.74-2-.73-.16-1.75.37-1.73,1.17,0,1.31,1.72,1.33,2.47.81"/><path class="cls-4" d="M56.32,145.42c-.36-.73-1.14-1.13-1.8-.25s.47,1.6,1.07,2,1.5.58,1.25-.58a6.4,6.4,0,0,0-.52-1.21"/><path class="cls-4" d="M67.88,131.88c.33-.86,1.16-3.2-.46-3.35a3.14,3.14,0,0,0-2,1,1.12,1.12,0,0,0,.2,1.21c.27.38.68.52,1,.88s.15.77.56.8a.8.8,0,0,0,.74-.89"/><path class="cls-4" d="M78.86,145.1c.7-3.84-5.79.38-3.75,1.9.71.53,1.48,0,2.35-.23.62-.16,1.48-.63,1.46-1.07a3.69,3.69,0,0,1-.06-.6"/><path class="cls-4" d="M57.73,140.33c3.92.75-.28-5.66-1.87-3.7-.56.69,0,1.45.19,2.3.15.61.61,1.45,1.06,1.44a3,3,0,0,1,.62,0"/><path class="cls-4" d="M59.7,134.93c-.54.42-.15,1.75,1,1.86.74.08,1.69-.58,1.57-1.37-.2-1.3-1.88-1.1-2.56-.49"/><path class="cls-4" d="M51.73,141.63c-.67-.2-1.57.87-1,1.85a1.45,1.45,0,0,0,2,.48c1-.89-.13-2.13-1-2.33"/><path class="cls-4" d="M62.85,143.54c-.71.3-1.27.82-2,.34a4.41,4.41,0,0,1-1.42-1.43c-.6-1.21.45-2,1.44-2.1a4.55,4.55,0,0,1,1.69.14c.61.14,1.62,0,2.17.38,1.44.95-.39,1.84-1.11,2.22-.27.14-.46.32-.76.45"/><path class="cls-4" d="M49.7,175.67c.43-.26.27-1.24-.54-1.43-.53-.12-1.26.27-1.25.85,0,.94,1.24.95,1.79.58"/><path class="cls-4" d="M42.85,174.82c.6-.35.38-1.72-.74-2-.73-.17-1.75.37-1.73,1.17,0,1.31,1.72,1.32,2.47.8"/><path class="cls-4" d="M54.47,168.38c0-.82-.51-1.51-1.5-1s-.31,1.63,0,2.28,1.07,1.19,1.39,0a8.16,8.16,0,0,0,.09-1.31"/><path class="cls-4" d="M50.56,166.5c-.71.3-1.27.83-2,.34a4.38,4.38,0,0,1-1.42-1.42c-.6-1.22.44-2,1.43-2.11a4.58,4.58,0,0,1,1.7.14c.61.14,1.61,0,2.16.38,1.45.95-.38,1.84-1.1,2.22-.28.15-.47.32-.76.45"/><path class="cls-4" d="M73.09,174.31c-.73-.2-1.51-.14-1.77-1a4.34,4.34,0,0,1-.18-2c.33-1.31,1.62-1.25,2.48-.74a4.2,4.2,0,0,1,1.22,1.15c.38.48,1.24,1,1.43,1.63.51,1.63-1.49,1.19-2.3,1a7.12,7.12,0,0,1-.88-.12"/><path class="cls-4" d="M76.91,169.24c.87.34,3.26,1.2,3.44-.38a3,3,0,0,0-1-1.93,1.21,1.21,0,0,0-1.24.18c-.39.25-.54.65-.92.91s-.79.12-.83.53a.8.8,0,0,0,.9.73"/><path class="cls-4" d="M44.68,172.83c3.93.75-.27-5.66-1.86-3.7-.57.69,0,1.45.18,2.3.15.61.61,1.45,1.07,1.44a3,3,0,0,1,.61,0"/><path class="cls-4" d="M53.81,173.16c.46.68,1.28,1,1.82,0s-.67-1.52-1.32-1.89-1.57-.39-1.18.73a7.79,7.79,0,0,0,.68,1.14"/><path class="cls-4" d="M70.57,180.83c-.16.1-.16.51,0,.78a1.26,1.26,0,0,0,.73.68c.3,0,.46-.26.62-.53s.2-.8.45-1.1.73-.56.65-1c-.13-.79-1-.5-1.31-.2s-.53,1.17-1.1,1.41"/><path class="cls-4" d="M137.6,122.93c-.6.36-.38,1.72.74,2,.73.16,1.75-.37,1.73-1.17,0-1.31-1.72-1.33-2.47-.81"/><path class="cls-4" d="M151.94,122.32c-.88-.34-3.26-1.2-3.44.38a3,3,0,0,0,.95,1.92,1.2,1.2,0,0,0,1.25-.17c.39-.26.54-.65.91-.91s.8-.13.83-.53a.78.78,0,0,0-.89-.73"/><path class="cls-4" d="M150.31,131.37c.55-.43.15-1.75-1-1.87-.74-.07-1.69.58-1.56,1.38.2,1.29,1.87,1.1,2.55.49"/><path class="cls-4" d="M146,124.37a1.73,1.73,0,0,0-2.44-2.27c-1,.62-1.87,2.4-.77,3.22a3.06,3.06,0,0,0,2.82.12c.59-.35.33-.85.54-1.32"/><path class="cls-4" d="M147,131.12c-.66.38-1.15,1-1.95.59a4.57,4.57,0,0,1-1.6-1.24c-.74-1.13.19-2,1.16-2.26a4.21,4.21,0,0,1,1.69-.08c.63.07,1.61-.18,2.2.11,1.56.76-.14,1.88-.81,2.34a7.48,7.48,0,0,1-.69.54"/><path class="cls-4" d="M135.28,130.51c.21-.89.74-3.32-.89-3.26a3.13,3.13,0,0,0-1.81,1.2,1.14,1.14,0,0,0,.36,1.18c.31.34.73.42,1.06.75s.24.74.65.72a.79.79,0,0,0,.62-1"/><path class="cls-4" d="M128.51,120.9c-.22.9-.74,3.32.89,3.27a3.18,3.18,0,0,0,1.81-1.21,1.14,1.14,0,0,0-.36-1.17c-.32-.34-.74-.43-1.06-.75s-.24-.75-.65-.73a.78.78,0,0,0-.62,1"/><path class="cls-3" d="M83.54,126.67a4.85,4.85,0,0,1,1,2,8.66,8.66,0,0,1,.21,1.74,24.24,24.24,0,0,1-.15,2.94c0,.45-.06.88-.07,1.26s0,.8.05,1.22l.23,2.72a26.37,26.37,0,0,1,0,5.82,23.52,23.52,0,0,1-1.38,5.69,16.15,16.15,0,0,1-7.64,8.86c-1.75.88-3.5,1.44-5,2.23a13.91,13.91,0,0,0-4,3.15c-2.36,2.6-4.11,5.84-6,9a28.16,28.16,0,0,1-7.26,8.46,19.1,19.1,0,0,1-5,2.45,15.8,15.8,0,0,0-4.72,2.57,23.76,23.76,0,0,0-6.43,8.73,24,24,0,0,1,6.11-9.1,15.49,15.49,0,0,1,2.27-1.65,23,23,0,0,1,2.5-1.22A18.16,18.16,0,0,0,52.77,181a27,27,0,0,0,6.6-8.43c1.78-3.16,3.38-6.53,5.83-9.5a15.93,15.93,0,0,1,4.44-3.79c1.7-1,3.43-1.61,4.92-2.45a13.43,13.43,0,0,0,6-7.71,20.3,20.3,0,0,0,1-5,23.53,23.53,0,0,0-.18-5.16l-.36-2.75c0-.49-.1-.92-.12-1.52s0-1,0-1.49a24.59,24.59,0,0,0,0-2.56,2.66,2.66,0,0,0-.37-1.42Z"/><path class="cls-3" d="M83.51,127.7a4.77,4.77,0,0,1-.82,1.44l-.54.84-1.05,0a5.36,5.36,0,0,1-2.34-.67c-.58-.32-1-.62-1.42-.85-.19-.11-.37-.21-.52-.28s-.37-.14-.62-.23l-1.5-.54-5.94-2.15a10.33,10.33,0,0,0-5.41-.49,17.61,17.61,0,0,0-5.44,2c-3.53,2.08-7.32,4.15-9.23,7.39a8.32,8.32,0,0,0-1,2.59,20.77,20.77,0,0,0-.24,3c-.06,2.07,0,4.21-.25,6.39a19.28,19.28,0,0,1-1.69,6.38,10,10,0,0,1-1.94,2.82,8.76,8.76,0,0,1-2.85,1.91,13.76,13.76,0,0,1-6.5,1c-2.16-.15-4.23-.54-6.3-.67a17.7,17.7,0,0,0-6.12.59,10.69,10.69,0,0,0-4.95,3.52c-1.36,1.57-2.8,3.32-4.86,4.06s-4.17.74-6.23,1.16c2.05-.5,4.21-.58,6.14-1.38s3.27-2.51,4.58-4.15a11.37,11.37,0,0,1,5.09-3.89,14,14,0,0,1,3.17-.71,23,23,0,0,1,3.22-.15c2.15.05,4.25.37,6.31.42a12.33,12.33,0,0,0,5.86-1.06c3.68-1.6,4.89-6,5.17-10,.13-2,0-4.12,0-6.26a22.92,22.92,0,0,1,.16-3.34A10.71,10.71,0,0,1,46.58,133a16.44,16.44,0,0,1,4.52-5.08c1.77-1.37,3.53-2.48,5.38-3.65a20.74,20.74,0,0,1,6.3-2.57,13.71,13.71,0,0,1,7.07.37l6,1.93,1.5.48c.25.08.48.15.87.3a9.27,9.27,0,0,1,.89.43c.53.29,1,.55,1.33.72a1.48,1.48,0,0,0,.66.21l-1.58.81c.28-.38.33-.53.26-.38Z"/><path class="cls-3" d="M58.85,126.3a30.54,30.54,0,0,1-4,2.77c-1.28.81-2.55,1.6-3.69,2.47a15.24,15.24,0,0,0-1.59,1.35,7.72,7.72,0,0,0-1.18,1.55,10.3,10.3,0,0,0-1.39,3.8,17.33,17.33,0,0,0,0,4.26,32.74,32.74,0,0,0,.84,4.36,12.59,12.59,0,0,1,.3,4.88,10.18,10.18,0,0,1-2,4.52c-2.08,2.62-5,3.9-7.15,5.86a12.26,12.26,0,0,0-2.76,3.37,20.49,20.49,0,0,0-1.59,4.15,17.05,17.05,0,0,1-1.75,4.3A15.51,15.51,0,0,1,30,177.5a54.2,54.2,0,0,1-7.51,5.22,54.28,54.28,0,0,0,7.23-5.51,15.29,15.29,0,0,0,2.69-3.57,16.67,16.67,0,0,0,1.49-4.2A21.27,21.27,0,0,1,35.36,165a13.47,13.47,0,0,1,2.83-3.79c2.27-2.18,5.06-3.64,6.69-5.94a8.51,8.51,0,0,0,1.5-3.81,10.72,10.72,0,0,0-.47-4.15,34,34,0,0,1-1.07-4.55,19.43,19.43,0,0,1-.19-4.84,12.77,12.77,0,0,1,1.5-4.79A10.21,10.21,0,0,1,47.66,131a18.83,18.83,0,0,1,1.82-1.67c1.25-1,2.54-1.87,3.8-2.73a30.16,30.16,0,0,0,3.44-2.56Z"/><path class="cls-3" d="M47.64,138.27a18.54,18.54,0,0,0-.45,3.71,15.87,15.87,0,0,0,.46,3.69,17.58,17.58,0,0,0,3.48,6.72,28,28,0,0,0,2.73,2.85,21.61,21.61,0,0,1,2.82,3.21,19.29,19.29,0,0,1,2.64,16.26,42.63,42.63,0,0,1-3.39,7.53,13.46,13.46,0,0,0-1.48,3.69,9.09,9.09,0,0,0,.1,3.95A12.09,12.09,0,0,0,56,193.64a4,4,0,0,0,1.39,1.42,2.19,2.19,0,0,0,2,0,2.21,2.21,0,0,1-2,0,4.06,4.06,0,0,1-1.51-1.4A12.31,12.31,0,0,1,54.18,190a9.47,9.47,0,0,1-.29-4.14,14.3,14.3,0,0,1,1.36-3.93,41.2,41.2,0,0,0,3-7.5,17,17,0,0,0,.12-7.8,16.6,16.6,0,0,0-3.19-7,19.75,19.75,0,0,0-2.7-2.79,32,32,0,0,1-3.06-2.91,20.06,20.06,0,0,1-4.33-7.48A18.36,18.36,0,0,1,44.3,142a20.89,20.89,0,0,1,.32-4.4Z"/><path class="cls-3" d="M83.93,128.24a13,13,0,0,0-.36,4c0,1.46.28,2.95.38,4.63s.11,3.24.09,4.82L84,144.09l0,1.17-.06,1.24A23.26,23.26,0,0,1,81.16,156a33.91,33.91,0,0,1-5.83,7.73C73.08,166,70.65,168,68.4,170.1c-.56.53-1.11,1.08-1.63,1.63a9.92,9.92,0,0,0-1.33,1.76,11.23,11.23,0,0,0-1.52,4.19,14.56,14.56,0,0,0,1.42,8.9c.72,1.36,1.68,2.61,2.4,4A21.24,21.24,0,0,0,70,194.71a21.52,21.52,0,0,1-2.46-4c-.78-1.35-1.79-2.54-2.61-3.91a15.32,15.32,0,0,1-2-9.26,12.32,12.32,0,0,1,1.43-4.66,11.56,11.56,0,0,1,1.39-2c.52-.61,1-1.19,1.6-1.76,2.18-2.3,4.51-4.41,6.55-6.69A31.83,31.83,0,0,0,79,154.9a20.54,20.54,0,0,0,2-8.53v-1.11l0-1.18-.06-2.33c-.06-1.54-.14-3.06-.32-4.55s-.49-3-.62-4.7a16.07,16.07,0,0,1,.25-5.3Z"/><path class="cls-3" d="M85,142c-.71,3.82-.15,8.14.41,12.37a42.18,42.18,0,0,0,1.38,6.14,28.21,28.21,0,0,0,2.4,5.76,16.84,16.84,0,0,1,2.43,6.32,20.69,20.69,0,0,1-.17,6.67,17,17,0,0,1-1.93,6.29,22.06,22.06,0,0,0-1.66,2.77,3.62,3.62,0,0,0,.06,3.1,3.73,3.73,0,0,1-.29-3.18,22.27,22.27,0,0,1,1.47-2.93,16.23,16.23,0,0,0,1.39-6.18,19.32,19.32,0,0,0-.29-6.27,15.24,15.24,0,0,0-2.63-5.55,29.59,29.59,0,0,1-3.06-6,45.2,45.2,0,0,1-2-6.41c-.46-2.16-.89-4.29-1.19-6.53a28,28,0,0,1-.19-6.93Z"/><path class="cls-3" d="M84.81,138.12a14.1,14.1,0,0,0,3.31,9.34,10.41,10.41,0,0,0,4,2.83,7.74,7.74,0,0,0,1.18.38l.6.15.63.08.63.09.73.06,1.46.13a26.12,26.12,0,0,1,5.92,1.27,11.76,11.76,0,0,1,5.24,3.57,10.53,10.53,0,0,1,1.59,2.8,10.15,10.15,0,0,1,.66,3.08,13.76,13.76,0,0,0,.4,2.62,3.83,3.83,0,0,0,1.25,1.89c.63.53,1.46,1,2.31,1.61a6.76,6.76,0,0,1,1.2,1.14,5,5,0,0,1,.48.72,7.92,7.92,0,0,1,.35.72c.79,1.94,1,3.87,1.66,5.49,1.54,3.41,3.44,6.83,4.76,10.45a18.39,18.39,0,0,0,6.66,8.85,19.75,19.75,0,0,0,10.81,3.05,20,20,0,0,1-11.07-2.64,19.14,19.14,0,0,1-7.29-8.89c-1.46-3.53-3.43-6.73-5.19-10.22-.88-1.87-1.14-3.83-1.89-5.4a4.21,4.21,0,0,0-.63-1,5,5,0,0,0-.91-.78c-.71-.49-1.59-.91-2.46-1.57a5.93,5.93,0,0,1-2-2.75,16.57,16.57,0,0,1-.61-3,7.85,7.85,0,0,0-.62-2.47,8.05,8.05,0,0,0-1.32-2.12,9.26,9.26,0,0,0-4.25-2.61,22.94,22.94,0,0,0-5.32-.89L95.72,154l-.7,0-.8-.07-.8-.07-.79-.16a9.61,9.61,0,0,1-1.57-.43,13.67,13.67,0,0,1-5.42-3.48,17.74,17.74,0,0,1-4.7-11.62Z"/><path class="cls-3" d="M84.61,135.78a8,8,0,0,0,1.23,5.16,8.33,8.33,0,0,0,4.65,2.83c3.94,1.06,8.43.91,12.85.78,2.22-.07,4.47-.18,6.78-.14a25.81,25.81,0,0,1,3.5.29l3.33.48a16.46,16.46,0,0,1,6.78,2.29,15.13,15.13,0,0,1,4.41,5.58c1,1.88,2.37,3.65,3.65,5.51a23.77,23.77,0,0,1,3.25,6.1,12,12,0,0,1,.62,3.47,8.4,8.4,0,0,1-.07,1.8,13.35,13.35,0,0,1-.42,1.71,32.84,32.84,0,0,0-.94,3.16,6.1,6.1,0,0,0,.15,3.08,17.1,17.1,0,0,0,2.86,5.82,13.56,13.56,0,0,0,5.42,3.57l3.09,1.3a15.81,15.81,0,0,1,3,1.59,7.05,7.05,0,0,1,2.13,2.6,5,5,0,0,0,1,1.32,1.15,1.15,0,0,0,.74.29,1.29,1.29,0,0,0,.76-.32,1.28,1.28,0,0,1-.75.35,1.2,1.2,0,0,1-.79-.27,5.35,5.35,0,0,1-1.06-1.31,6.87,6.87,0,0,0-2.17-2.46,15.21,15.21,0,0,0-3-1.45l-3.13-1.19a14.2,14.2,0,0,1-5.79-3.55,17.63,17.63,0,0,1-3.24-6,10.18,10.18,0,0,1-.37-1.73,7.19,7.19,0,0,1,.08-1.8,32.38,32.38,0,0,1,.85-3.3,7.85,7.85,0,0,0,.33-3.1,11.23,11.23,0,0,0-.67-3.09c-1.46-4-4.81-7.13-7.2-11.1a13.34,13.34,0,0,0-4-4.74,14.31,14.31,0,0,0-5.91-1.71l-3.32-.35a22.5,22.5,0,0,0-3.18-.15c-2.17,0-4.39.22-6.62.38s-4.51.29-6.81.29a30.52,30.52,0,0,1-7-.7,14.55,14.55,0,0,1-3.55-1.31A10.35,10.35,0,0,1,83,143.15a9.59,9.59,0,0,1-1.79-3.67,14.55,14.55,0,0,1-.43-3.84Z"/><path class="cls-3" d="M84.32,128.48a17.38,17.38,0,0,0-.34,6.77A20.71,20.71,0,0,0,85.83,142a9.84,9.84,0,0,0,4.55,4.57,15.4,15.4,0,0,0,6.76,1.35c10-.17,20.2-1.12,29.69-4.33a54.32,54.32,0,0,0,6.91-2.91,25.11,25.11,0,0,1,7.35-2.7,18.22,18.22,0,0,1,7.85.52,13.76,13.76,0,0,1,6.69,4.05,17.26,17.26,0,0,1,3.68,6.84,12.64,12.64,0,0,1-.54,7.67,21.72,21.72,0,0,1-1.69,3.46c-.64,1.12-1.44,2.12-2,3.24a9.07,9.07,0,0,0-1.11,3.58,3.17,3.17,0,0,0,.39,1.81,3.11,3.11,0,0,0,1.41,1.22,3.13,3.13,0,0,1-1.46-1.18,3.33,3.33,0,0,1-.46-1.85,9.28,9.28,0,0,1,1-3.69c.56-1.17,1.32-2.19,1.92-3.31a21.63,21.63,0,0,0,1.54-3.44,12.06,12.06,0,0,0,.3-7.32,16.39,16.39,0,0,0-3.69-6.37,12.53,12.53,0,0,0-6.29-3.54,16.91,16.91,0,0,0-7.28-.27,24.11,24.11,0,0,0-6.82,2.77,56.71,56.71,0,0,1-7,3.24,77.79,77.79,0,0,1-15,3.87,133.38,133.38,0,0,1-15.36,1.54,18.55,18.55,0,0,1-8.12-1.4,13.18,13.18,0,0,1-6.21-5.84,24.07,24.07,0,0,1-2.45-7.83,20.73,20.73,0,0,1,.24-8.38Z"/><path class="cls-3" d="M204.4,115.64a3.47,3.47,0,0,1,1.24.67,2.63,2.63,0,0,1,.91,1.55,3.61,3.61,0,0,1-.38,2.3,9.15,9.15,0,0,1-1.72,2.32,10.78,10.78,0,0,1-1.09,1l-.36.24-.26.15-.52.31c-.69.4-1.38.76-2.06,1.12-1.34.71-2.7,1.42-3.79,2.15a6,6,0,0,0-2.25,2.8c-.55,1.22-1,2.79-1.81,4.31-.43.8-.79,1.36-1.18,2l-1.15,2a80.54,80.54,0,0,1-5,7.84,31.69,31.69,0,0,1-15.24,11,30.08,30.08,0,0,1-9.3,1.63c-3.06.13-6.08.13-8.82.94a19.79,19.79,0,0,0-7.46,4.45,26.27,26.27,0,0,0-3.07,3.18,16.54,16.54,0,0,0-2.22,3.76,36.19,36.19,0,0,0-1.4,4.27,43.58,43.58,0,0,1-1.51,4.38,24.57,24.57,0,0,1-5.05,7.81,20.41,20.41,0,0,1-7.89,4.84c-2.89,1.07-5.87,1.78-8.72,2.8a24.66,24.66,0,0,0-7.8,4.55,14,14,0,0,0-2.86,3.51,9.43,9.43,0,0,0-1.2,4.35,9.45,9.45,0,0,1,1.1-4.41,13.68,13.68,0,0,1,2.8-3.62A24.84,24.84,0,0,1,114.1,195c2.86-1.11,5.82-1.9,8.63-3a19.51,19.51,0,0,0,7.44-4.84,23.34,23.34,0,0,0,4.64-7.59,41.12,41.12,0,0,0,1.35-4.29,36.5,36.5,0,0,1,1.34-4.46,17.66,17.66,0,0,1,2.31-4.16,27.78,27.78,0,0,1,3.18-3.48,21.48,21.48,0,0,1,8-5c3.12-1,6.29-1,9.29-1.27a28,28,0,0,0,8.61-1.73,29,29,0,0,0,13.71-10.46,77.08,77.08,0,0,0,4.64-7.68l2.15-4c.6-1.2,1-2.59,1.61-4.17a11.42,11.42,0,0,1,1.32-2.37,9.66,9.66,0,0,1,2-1.94c1.42-1,2.76-1.72,4.09-2.48.66-.37,1.31-.74,1.93-1.11a5.1,5.1,0,0,0,1.41-1.09,5.87,5.87,0,0,0,1-1.35c.11-.18,0-.29.06.1a.78.78,0,0,0,.05.14.58.58,0,0,0,.08.18,4.05,4.05,0,0,0,.21.27c.21.14.16.14.24.15Z"/><path class="cls-3" d="M206.07,117.31a10.06,10.06,0,0,1-1.76,4.29,12.34,12.34,0,0,1-3.26,3c-2.34,1.52-4.66,2.48-6.63,3.78a18.34,18.34,0,0,0-4.95,4.91c-1.4,2-2.59,4.16-3.9,6.38-.64,1.11-1.33,2.22-2.07,3.31a32.48,32.48,0,0,1-2.45,3.13A25.34,25.34,0,0,1,175,151.3a13.94,13.94,0,0,1-7.92,2,14.57,14.57,0,0,1-4-.86,11.45,11.45,0,0,1-3.6-2c-2.08-1.74-3.54-3.82-5.54-5a14,14,0,0,0-6.92-1.76,21.75,21.75,0,0,0-7.33.73,14,14,0,0,0-6.27,3.64,11.87,11.87,0,0,0-2.09,3c-.55,1.12-1,2.3-1.49,3.47a21.91,21.91,0,0,1-1.73,3.46,9,9,0,0,1-2.74,2.76,34,34,0,0,1-7.09,2.89,24.81,24.81,0,0,0-3.5,1.45,7.73,7.73,0,0,0-2.87,2.42,7.78,7.78,0,0,1,2.81-2.53,26.48,26.48,0,0,1,3.48-1.57,33.45,33.45,0,0,0,6.9-3.06c2.11-1.37,3.19-3.74,4.07-6.08.45-1.18.87-2.39,1.41-3.57a12.57,12.57,0,0,1,2.14-3.29,15.14,15.14,0,0,1,6.62-4.14,23.08,23.08,0,0,1,7.73-1,15.35,15.35,0,0,1,7.72,1.75c2.42,1.4,4,3.55,5.89,5a9.28,9.28,0,0,0,3.06,1.58,12.14,12.14,0,0,0,3.45.64,11.62,11.62,0,0,0,6.59-1.87,22.46,22.46,0,0,0,5.31-4.83,35.37,35.37,0,0,0,4-6.14c1.2-2.19,2.35-4.51,3.83-6.73a21.83,21.83,0,0,1,5.63-5.92c2.24-1.56,4.61-2.65,6.47-4a6.87,6.87,0,0,0,3.25-4.92Z"/><path class="cls-3" d="M201.81,120.53a1.63,1.63,0,0,0,.7.49,1.47,1.47,0,0,0,.47.11.86.86,0,0,0,.23,0l.13,0h0l-.4.19c-.33.18-.69.41-1,.64-.71.48-1.43,1-2.12,1.55s-1.41,1.13-2,1.66a2.89,2.89,0,0,0-.32.35l-.41.54-.83,1.07a44.67,44.67,0,0,0-5.52,9.1,12.15,12.15,0,0,0-1,4.85,14.92,14.92,0,0,0,.93,5,33.28,33.28,0,0,0,5.46,9.15,24.15,24.15,0,0,1,5.23,10.06,16.43,16.43,0,0,1,.21,5.72,15.13,15.13,0,0,1-.64,2.8,24.23,24.23,0,0,1-1.12,2.6,19.51,19.51,0,0,0-1.92,5,11.24,11.24,0,0,0,.66,5.29,27.6,27.6,0,0,0,2.22,5,18.68,18.68,0,0,0,3.32,4.38,18.51,18.51,0,0,1-3.52-4.26,27.54,27.54,0,0,1-2.48-5,11.82,11.82,0,0,1-.92-5.54,20,20,0,0,1,1.77-5.34,23.66,23.66,0,0,0,.95-2.53,13.35,13.35,0,0,0,.48-2.61,14.94,14.94,0,0,0-.42-5.25,22.75,22.75,0,0,0-5.3-9.16,35.2,35.2,0,0,1-6.24-9.51,17.35,17.35,0,0,1-1.32-5.79,14.76,14.76,0,0,1,1-6,47.16,47.16,0,0,1,5.48-10l.8-1.15.41-.58c.08-.11.1-.15.26-.35l.32-.35a28.59,28.59,0,0,1,2.17-2c.73-.62,1.47-1.22,2.27-1.81.4-.29.81-.58,1.28-.87.24-.14.48-.28.82-.44a4,4,0,0,1,.69-.22,1.41,1.41,0,0,1,.3,0,2.49,2.49,0,0,1,.4,0,2.3,2.3,0,0,1,.64.15,2.22,2.22,0,0,1,.84.59Z"/><path class="cls-3" d="M206.17,116.77a.53.53,0,0,0,.06.42,2.78,2.78,0,0,0,.65.81,8.62,8.62,0,0,0,2.51,1.43l.68.21.31.07.43.07,1.77.3c1.19.21,2.39.43,3.61.71a19.41,19.41,0,0,1,7.15,3,16,16,0,0,1,4.92,6.08,19.56,19.56,0,0,1,1.93,7.42,15,15,0,0,1-.27,3.89,11.39,11.39,0,0,1-1.47,3.71,16,16,0,0,1-5.57,5.23,33.52,33.52,0,0,1-6.76,3c-2.37.77-4.74,1.14-7,1.81a10.38,10.38,0,0,0-5.59,3.46,36.71,36.71,0,0,0-6.3,12.51c-1.23,4.55-1.8,9.43-3.92,13.8-1,2.18-2.21,4.26-3.39,6.32-.55,1.05-.94,2.19-1.42,3.28a7.37,7.37,0,0,1-2,2.95,7.23,7.23,0,0,0,1.87-3c.44-1.1.79-2.25,1.31-3.34,1.12-2.12,2.25-4.22,3.17-6.41,1.93-4.36,2.33-9.15,3.43-13.84a37.72,37.72,0,0,1,6.07-13.13,9.78,9.78,0,0,1,2.81-2.63,15.48,15.48,0,0,1,3.42-1.57c2.33-.8,4.7-1.25,6.84-2a31.5,31.5,0,0,0,6.24-3,13.65,13.65,0,0,0,4.64-4.61,9,9,0,0,0,1.06-2.94,13.06,13.06,0,0,0,.11-3.25,16.82,16.82,0,0,0-1.87-6.3,13,13,0,0,0-4.14-4.82,16.34,16.34,0,0,0-6.05-2.29c-1.12-.21-2.27-.39-3.44-.55l-1.77-.23-.45-.07-.57-.1a10.52,10.52,0,0,1-1-.29,11.93,11.93,0,0,1-3.75-2,6.72,6.72,0,0,1-1.62-1.93,4.44,4.44,0,0,1-.43-3.05Z"/><path class="cls-3" d="M206.08,117.92a1.45,1.45,0,0,0,.42.86,4.35,4.35,0,0,0,1.27.93,9.51,9.51,0,0,0,1.74.67c.61.17,1.4.34,2.11.51a32.74,32.74,0,0,1,8.83,3,14.49,14.49,0,0,1,3.86,3,11.63,11.63,0,0,1,2.4,4.35,18.46,18.46,0,0,1-.13,9.35,17.27,17.27,0,0,0,.42,8.42,21.72,21.72,0,0,0,4.42,7.42c.94,1.18,1.87,2.26,2.81,3.51.44.63.8,1.29,1.19,1.91a6.28,6.28,0,0,0,1.32,1.66,4,4,0,0,0,2,.52A13.52,13.52,0,0,0,241,164a19.52,19.52,0,0,0,2.18-.42,5.33,5.33,0,0,0,2-.87,5.23,5.23,0,0,1-2,1,17.83,17.83,0,0,1-2.18.55,13.94,13.94,0,0,1-2.24.23,4.41,4.41,0,0,1-2.28-.48,6.87,6.87,0,0,1-1.56-1.73c-.43-.61-.83-1.24-1.26-1.81-.91-1.08-2-2.2-3-3.3a23,23,0,0,1-5.05-7.58,19,19,0,0,1-1-9.19l.3-2.2c.07-.7.11-1.41.11-2.11a12.29,12.29,0,0,0-.66-4,9.9,9.9,0,0,0-5.31-5.57,29.86,29.86,0,0,0-8.16-2.27c-.75-.13-1.43-.24-2.27-.41a13.36,13.36,0,0,1-2.46-.81,8.39,8.39,0,0,1-2.39-1.58,5.31,5.31,0,0,1-1.57-3Z"/><path class="cls-3" d="M194.49,130a11.62,11.62,0,0,0-.78,4.9,17.69,17.69,0,0,0,.93,5.23,11.26,11.26,0,0,0,1.09,2.26,8.67,8.67,0,0,0,.79,1c.31.34.61.68.94,1a19.19,19.19,0,0,0,4.35,3.26,29.82,29.82,0,0,0,10.79,2.94c1,.11,1.93.23,2.86.29l2.94.14a17.66,17.66,0,0,1,3.09.43,9.36,9.36,0,0,1,3,1.27,17.8,17.8,0,0,1,2.41,2c.73.68,1.42,1.31,2.17,1.94,1.49,1.25,3,2.49,4.49,3.85a23.09,23.09,0,0,1,3.93,4.59,11.14,11.14,0,0,1,1.76,5.85,37.47,37.47,0,0,1-.93,5.87,10.91,10.91,0,0,0-.12,2.85,14.85,14.85,0,0,0,.59,2.83,38.1,38.1,0,0,0,5,10.57,38.38,38.38,0,0,1-5.43-10.43,16.42,16.42,0,0,1-.73-2.9,11.74,11.74,0,0,1,0-3,38,38,0,0,0,.67-5.75,9.94,9.94,0,0,0-1.81-5.21,21.48,21.48,0,0,0-3.88-4.16c-1.46-1.25-3-2.41-4.59-3.62s-3-2.66-4.52-3.55c-3-1.81-7.12-.84-11.11-1.36a32.36,32.36,0,0,1-11.89-2.77,22.21,22.21,0,0,1-5.19-3.55c-.4-.35-.76-.72-1.12-1.1a11.11,11.11,0,0,1-1.12-1.27,15.11,15.11,0,0,1-1.59-2.95,21,21,0,0,1-1.37-6.27,18.63,18.63,0,0,1,.06-3.25,11.85,11.85,0,0,1,.82-3.4Z"/><path class="cls-3" d="M205.78,116.78a6.77,6.77,0,0,1,.36.88,5.68,5.68,0,0,1,.12,1.09,3.57,3.57,0,0,1-.72,2,6.39,6.39,0,0,1-2.28,1.83A19.89,19.89,0,0,1,199,124a61.38,61.38,0,0,1-8.39,1.25c-1.4.13-2.79.22-4.2.27-.73,0-1.35.06-2.23,0s-1.36-.12-2-.15a45,45,0,0,0-8,.13,22.26,22.26,0,0,0-7.43,2,11.2,11.2,0,0,0-5.1,5.21,14.83,14.83,0,0,0-1.47,7.41,10.25,10.25,0,0,0,.89,3.6,8.23,8.23,0,0,0,.95,1.56c.38.5.88,1.07,1.29,1.66a8.1,8.1,0,0,1,1.11,2.06,5.85,5.85,0,0,1,.25,2.41,16.56,16.56,0,0,1-1.2,4.18c-.51,1.31-1.09,2.58-1.69,3.82l-.91,1.86c-.29.6-.56,1.21-.8,1.83a20.23,20.23,0,0,0-1.36,7.79c.11,2.62,1.43,5,2.91,7.3a19.74,19.74,0,0,1,3.17,7.71,24.13,24.13,0,0,1,.42,4.15,19.33,19.33,0,0,1-.34,4.15c-1.1,5.54-4.79,9.92-6.44,15.17,1.5-5.3,5.07-9.85,6-15.26a18.88,18.88,0,0,0,.2-4.05,22.69,22.69,0,0,0-.52-4,18.84,18.84,0,0,0-3.27-7.32,29.32,29.32,0,0,1-2.16-3.6,12.1,12.1,0,0,1-1.15-4.15,21.6,21.6,0,0,1,1.21-8.37c.24-.67.5-1.33.79-2l.85-1.87c.56-1.24,1.08-2.49,1.54-3.75a15.82,15.82,0,0,0,1-3.74,4.44,4.44,0,0,0-1.11-3.18c-.39-.52-.82-1-1.29-1.55a10,10,0,0,1-1.25-1.91,12.69,12.69,0,0,1-1.21-4.31,17.12,17.12,0,0,1,1.45-8.62,15,15,0,0,1,1.07-2,8.65,8.65,0,0,1,.67-.92,6.2,6.2,0,0,1,.73-.88,15.11,15.11,0,0,1,3.57-2.76,24.77,24.77,0,0,1,8.3-2.57,48.4,48.4,0,0,1,8.49-.4c.69,0,1.44.07,2.07.09s1.24,0,1.88-.07c1.34-.1,2.68-.22,4-.38a58.91,58.91,0,0,0,7.86-1.4,17.21,17.21,0,0,0,3.45-1.26,3.17,3.17,0,0,0,.92-.7c.06-.07,0,0,0,.08s0,.06,0,.07a.05.05,0,0,1,0-.06Z"/><path class="cls-3" d="M84.4,126.65c.38.81.5,1.32.69,1.72s.34.52.22.46-.09,0,0,0-.05,0-.11,0l-.08,0a.91.91,0,0,0,.09-.06,7.75,7.75,0,0,0,1.07-.95,13,13,0,0,1,1.52-1.42,15,15,0,0,1,1.7-1.11,14.54,14.54,0,0,1,3.82-1.5,12.3,12.3,0,0,1,4.15-.22,11.89,11.89,0,0,1,2,.41c.62.18,1.19.37,1.77.57,2.32.77,4.54,1.59,6.77,2.11a21.41,21.41,0,0,0,3.35.53,14.89,14.89,0,0,0,3.33-.11c1.13-.15,2.31-.4,3.56-.57a8.54,8.54,0,0,1,4.14.23,15.07,15.07,0,0,1,3.43,1.89c1,.69,2,1.41,3,2.11a33.58,33.58,0,0,0,6,3.63,15.35,15.35,0,0,0,3.23,1c1.12.2,2.3.27,3.51.37a18.31,18.31,0,0,1,3.73.56,11,11,0,0,1,3.44,1.77c3.92,3,7.05,6.72,11,9.4a16.09,16.09,0,0,0,6.46,2.66,17.4,17.4,0,0,0,3.53.15c1.18-.09,2.36-.34,3.57-.49a8.4,8.4,0,0,1,3.66.23,14.44,14.44,0,0,1,3.3,1.55c1,.63,2,1.29,3.12,1.82a8.15,8.15,0,0,0,3.44,1,8.17,8.17,0,0,1-3.49-.86c-1.11-.5-2.14-1.13-3.19-1.72a14.49,14.49,0,0,0-3.27-1.41,8.14,8.14,0,0,0-3.51-.1c-1.17.18-2.35.47-3.57.61a17.51,17.51,0,0,1-3.69,0,17.05,17.05,0,0,1-6.89-2.57,47,47,0,0,1-5.76-4.49c-.91-.79-1.81-1.59-2.73-2.35s-1.84-1.54-2.79-2.19a9.34,9.34,0,0,0-3-1.43,17,17,0,0,0-3.42-.4,34.12,34.12,0,0,1-3.7-.27,16.32,16.32,0,0,1-3.68-1,34.84,34.84,0,0,1-6.48-3.62c-1-.68-2-1.35-3-2a12.81,12.81,0,0,0-2.92-1.52,6.21,6.21,0,0,0-3,0c-1.13.2-2.31.48-3.55.7a18,18,0,0,1-3.89.25,24.06,24.06,0,0,1-3.8-.47c-2.49-.49-4.83-1.27-7.1-1.95-.57-.16-1.15-.34-1.69-.48a9.71,9.71,0,0,0-1.51-.25,9.12,9.12,0,0,0-3,.27,11,11,0,0,0-2.85,1.23,14.3,14.3,0,0,0-1.29.91,11.55,11.55,0,0,0-1.07,1.1,11.21,11.21,0,0,1-1.59,1.48,3.93,3.93,0,0,1-.69.41,4.86,4.86,0,0,1-.51.18,3.06,3.06,0,0,1-.55.09,3.74,3.74,0,0,1-1.79-.3A4.46,4.46,0,0,1,81.66,130c-.34-.69-.56-1.34-.71-1.61Z"/><path class="cls-5" d="M114.05,38.28c-5.43-4.33-8.66-1.75-9.9-.28l-.2.26a4,4,0,0,0-.38.56s-12.65,2-1.41,12A19.2,19.2,0,0,0,118,55.46S118.78,42,114.05,38.28Z"/><path class="cls-5" d="M106,33.77c1.64,10.66,15.64,4.31,15.64,4.31,10-5.74,12-23,12-23-10.24-4.73-23.36.34-23.36.34-.61.32-1.17.64-1.7,1A58.32,58.32,0,0,0,99.06,0S84.25,13.74,87.59,23A13.91,13.91,0,0,0,100,32.28h0c.38.16,1.5,1.15.44,3.07l1-.58c-.18-.61.37-1.66-.47-2.84a19.65,19.65,0,0,0,2.83-1.38,14.46,14.46,0,0,0,1.74,2.4"/><path class="cls-5" d="M99.54,37a5.6,5.6,0,0,1,4.33,3.3s-.32-3.08-4.33-4.19C98.25,35.76,99.54,37,99.54,37Z"/><path class="cls-5" d="M101,72.62a40,40,0,0,0-.9,6.07A18.91,18.91,0,0,0,96,74.27h0a9.62,9.62,0,0,0-2.41,10.85c2.84,7.35-1.46,13,9.34,18.85,0,0,4-4.18.1-12.37a14.69,14.69,0,0,1-1.58-6.41c1.08,1.78,2.58,3,3.54,5.69,5,14,11.74,13.32,11.74,13.32C114.19,80.93,103,73.57,101.23,72.56"/><path class="cls-5" d="M92.53,76.09c2.41-3,3.16-1.94,3.62-1.21a2.37,2.37,0,0,1,.36,1.21c-.12-4.62-3.18-1.52-3.18-1.52Z"/><path class="cls-5" d="M94.38,73.66c5-3.45,6-1.45,6.94-.5.35.36.55.32.55.32-1.53-4.28-6.61-.92-6.61-.92Z"/><path class="cls-5" d="M103.72,69.48h0c-.27,1.49-1.39,9.75,7.15,10.75,0,0,0,7.82,5.9,10.35,0,0,1,10.28,13.14,8.39,0,0-1.13-7.09-5.76-11.21-3.87-3.46-.55-5.21-7.07-9-4.6-2.64-.91-8.66-12.58-9.51A3.57,3.57,0,0,0,103.72,69.48Z"/><path class="cls-5" d="M96.22,70.61A42.06,42.06,0,0,0,83.85,93.08l.38,3.19c1.83-11.8,7.69-20.52,12.56-24.81,2.48-2.17,4.79-3.21,6.86-1.49.79.64.87-.13.84-.14C103,68.53,100.52,66.59,96.22,70.61Z"/><path class="cls-5" d="M108.25,32.48l-.08-.48C94.44,35,82.32,52.73,82.32,52.73c-.48-9.36-1.5-13.39-1.5-13.39-.2-.21-.38-.43-.57-.64,1.08-1.21,2.06-3.73,1-4.46-2.18-1.57-2.43,1-2.39,2.84a38.16,38.16,0,0,1-6.74-13.94c.12-.93.7-2.29,2.44-4.07,5,5.8,5.7-3.69,5.7-3.69l.51-6.15s-4.65.46-7,2.55a10.92,10.92,0,0,0-.54-2C70.9,3.37,63.32.32,63.32.32s-1.44,7.64-.48,13h-.33S58.66,14,55,19.54c0,0,11,10,15.14,2A8.77,8.77,0,0,0,70.77,20a26,26,0,0,0,.41,3.58c0,.11,0,.22.06.34h0a36.58,36.58,0,0,0,6.81,14.65c1.7,4,2.43,18.82,2.69,35.26C71.93,61.05,67.07,54.22,60.46,51.3a15.75,15.75,0,0,0-.29-2.11c3,.17,10.93-.08,10.84-7.1a22.27,22.27,0,0,0-5.62-14.26S51.78,33.91,52.72,41.31c-.64-3.86-3.08-8.24-10.81-8.29-13.83-.1-16.18,5.67-16.18,5.67s2.35,10.62,11.75,16.82A8.37,8.37,0,0,0,41.88,57c-2.49,5.74-.23,12.51-.23,12.51s8.62,6.68,16.19-3c7.1-9.08-1-12-2-12.34a7,7,0,0,1,5.8-1.05c8.13,3.65,16,18,19.12,22.13,0,.37,0,.75,0,1.12a5.65,5.65,0,0,0-5.12.51C62.23,76,61.84,87.26,61.84,87.26,49.52,91.58,51.31,105,51.31,105c13.32-3.31,14.08-14,14.08-14a23.73,23.73,0,0,0,2.48-1.53h0s2,4.84-.89,13.26,2.61,12.12,2.61,12.12c12.53-9.77,3.13-12.14,7-19.86a13.41,13.41,0,0,0-1.35-14.09,17.74,17.74,0,0,0,.78-3.16c1.65-1.66,3.36-1,4.76.2.24,21.24-.21,43.91-.32,49a6.85,6.85,0,0,0,1.88,1.14l1.57.06c.5-20.61.61-19.22.29-31.9l-.31-2.85c-.38-13-1-38.15-1-38.15C94,36.59,108.25,32.48,108.25,32.48ZM70.81,17.2,70.75,17l.07,0Zm.29-.27a4.59,4.59,0,0,0,1.58-1,8,8,0,0,0,1.2,2.2c.18.25.36.47.53.68a9.05,9.05,0,0,0-2.66,2.5A37.64,37.64,0,0,1,71.1,16.93ZM55.58,53.87a6.8,6.8,0,0,0-4.73-3.33A24,24,0,0,0,52,48.39a15.61,15.61,0,0,1,7.47,3.44C58.94,51.44,57.37,52.14,55.58,53.87Zm-3.43-5.72c.31-.65.47-1,.47-1a16.89,16.89,0,0,0,.17-5.31C53.9,48.73,59,49.1,59,49.1l.44,0a3.21,3.21,0,0,0,.27,1.68C55.88,48.34,53.39,48.06,52.15,48.15Z"/><path class="cls-5" d="M184,62.86c3.45-2.75,5.51-1.11,6.3-.17l.13.16a3,3,0,0,1,.24.36s8,1.29.89,7.59a12.22,12.22,0,0,1-10.07,3S181,65.25,184,62.86Z"/><path class="cls-5" d="M189.18,60c-1,6.78-9.94,2.74-9.94,2.74-6.39-3.64-7.65-14.61-7.65-14.61,6.51-3,14.85.21,14.85.21.39.21.75.41,1.08.62a36.94,36.94,0,0,1,6-10.39s9.41,8.72,7.29,14.58A8.86,8.86,0,0,1,193,59.05h0c-.25.1-1,.73-.28,2l-.67-.37c.12-.39-.24-1.05.3-1.8a13.63,13.63,0,0,1-1.8-.88,8.3,8.3,0,0,1-1.11,1.52"/><path class="cls-5" d="M193.26,62.06a3.56,3.56,0,0,0-2.76,2.09,3.42,3.42,0,0,1,2.76-2.66C194.08,61.26,193.26,62.06,193.26,62.06Z"/><path class="cls-5" d="M192.32,84.66a25.34,25.34,0,0,1,.57,3.86,12.18,12.18,0,0,1,2.63-2.81h0a6.13,6.13,0,0,1,1.53,6.89c-1.81,4.67.93,8.24-5.94,12,0,0-2.54-2.65-.06-7.85a9.43,9.43,0,0,0,1-4.07c-.69,1.12-1.64,1.89-2.25,3.61-3.15,8.85-7.47,8.46-7.47,8.46,1.62-14.78,8.76-19.45,9.86-20.09"/><path class="cls-5" d="M197.72,86.87c-1.54-1.94-2-1.23-2.3-.77a1.5,1.5,0,0,0-.24.77c.08-2.94,2-1,2-1Z"/><path class="cls-5" d="M196.54,85.33c-3.2-2.2-3.82-.92-4.41-.32-.23.23-.35.2-.35.2,1-2.71,4.2-.58,4.2-.58Z"/><path class="cls-5" d="M190.6,82.67h0c.18.94.89,6.19-4.54,6.83,0,0,0,5-3.75,6.57,0,0-.61,6.52-8.36,5.32,0,0,.72-4.5,3.66-7.12,2.47-2.19.35-3.3,4.5-5.68,2.92-1.68.58-5.51,8-6A2.43,2.43,0,0,1,190.6,82.67Z"/><path class="cls-5" d="M195.37,83.39a26.71,26.71,0,0,1,7.87,14.27l-.25,2c-1.16-7.49-4.88-13-8-15.75-1.57-1.38-3-2-4.36-1-.5.41-.55-.08-.53-.09C191,82.07,192.63,80.84,195.37,83.39Z"/><path class="cls-5" d="M229.9,59.52c-4.91,0-6.46,2.81-6.87,5.27.6-4.7-8.06-8.56-8.06-8.56a14.11,14.11,0,0,0-3.57,9.05c-.06,4.46,5,4.61,6.89,4.51a11,11,0,0,0-.19,1.34c-4.2,1.85-7.29,6.19-12.9,14.28.17-10.44.64-19.84,1.71-22.39a23.28,23.28,0,0,0,4.34-9.3h0a2.07,2.07,0,0,0,0-.22,16.58,16.58,0,0,0,.26-2.27,6.16,6.16,0,0,0,.42,1C214.62,57.3,221.6,51,221.6,51c-2.35-3.54-4.8-4-4.8-4h-.21a28.14,28.14,0,0,0-.31-8.26s-4.81,1.94-6.3,6a6.52,6.52,0,0,0-.35,1.3c-1.51-1.33-4.47-1.63-4.47-1.63l.32,3.91s.47,6,3.63,2.34a4.83,4.83,0,0,1,1.55,2.59,24.2,24.2,0,0,1-4.28,8.85c0-1.15-.14-2.8-1.52-1.8-.65.46,0,2.06.66,2.83-.12.13-.23.27-.36.4a50.7,50.7,0,0,0-.95,8.51s-7.71-11.29-16.44-13.16l-.05.3s9.06,2.61,16.07,14.47c0,0-.36,15.93-.6,24.22l-.2,1.81c-.2,7.83.22,7.57-.19,18.64,1,.53,1.79-.12,2.54-.77-.1-5.06-.31-17.63-.17-29.5.89-.76,2-1.18,3-.13a10.89,10.89,0,0,0,.49,2,8.51,8.51,0,0,0-.86,8.94c2.48,4.91-3.5,6.41,4.47,12.62,0,0,3.49-2.35,1.66-7.7s-.56-8.42-.56-8.42h0c.49.33,1,.66,1.58,1,0,0,.49,6.79,8.95,8.89,0,0,1.14-8.52-6.69-11.27,0,0-.25-7.15-8.79-6.57a3.65,3.65,0,0,0-3.26-.32c0-.24,0-.47,0-.71,1.95-2.6,7-11.73,12.15-14A4.45,4.45,0,0,1,221,73c-.66.21-5.77,2.07-1.26,7.83,4.81,6.15,10.29,1.91,10.29,1.91s1.45-4.31-.14-8a5.3,5.3,0,0,0,2.8-1,19,19,0,0,0,7.47-10.68S238.7,59.46,229.9,59.52Zm-20.66-9c.11-.14.22-.28.33-.44a5,5,0,0,0,.77-1.39,3,3,0,0,0,1,.63,22.46,22.46,0,0,1-.41,2.78A5.69,5.69,0,0,0,209.24,50.51Zm9.49,19.25.29,0s3.26-.23,4-4.64a10.72,10.72,0,0,0,.11,3.37s.1.26.3.67c-.79-.06-2.37.12-4.83,1.7A2,2,0,0,0,218.73,69.76Zm2.48,3c-1.14-1.1-2.14-1.54-2.49-1.29a9.78,9.78,0,0,1,4.74-2.19c.19.38.44.85.75,1.37A4.32,4.32,0,0,0,221.21,72.76Z"/><path class="cls-5" d="M211.53,49.48l0-.11h0A.49.49,0,0,0,211.53,49.48Z"/><path class="cls-6" d="M182.34,165.37a24.67,24.67,0,1,1-24.66-24.66A24.66,24.66,0,0,1,182.34,165.37Z"/><g class="cls-7"><path class="cls-8" d="M431.8,287.39c-4.56,2.31-21.73-4-27.71-5.31-7.69-1.65-14-2.37-21.6-.55-9.12,2.17-19.21,4.24-27.74,8.23-8.21,3.85-16.87,8.09-24.79,12.59-10.43,5.93-18.28,16.8-24.09,27.15-6.81,12.13-12.58,25.53-21.59,35.8-10,11.44-18.79,23.15-18.08,39.35.46,10.43,5.5,22,8.74,32,4.75,14.6,13.93,25.48,24.35,36.55,9.92,10.54,19.11,20.93,30.95,29.51,13.73,9.94,30.06,11.62,46.65,9.8,25.31-2.79,37.11-21.59,49.25-41.83,6.42-10.7,9.64-22.76,15.34-33.87,8-15.53,14.3-32.07,16.66-49.39,3.9-28.63-3.55-55.05-15.46-80.85-2.53-5.49-6.91-14.62-12.32-18.18"/><path class="cls-8" d="M128.36,339.08c3.79,5.87,14.09,8.53,20.57,10.15,10.1,2.54,17.65,2.1,27.88,0,23.39-4.79,47.26-2,70.57-6.83,11.39-2.35,21.74-4,31.39-11,7.38-5.38,8.18-15.12,11.49-23.09,5.19-12.53,19.19-23.44,12.43-38.14-2.55-5.55-6.72-6.5-12.31-8.54-7.91-2.89-14.64-5-20.86-11.11-4.87-4.75-8.16-11-13.35-15.24-8.3-6.8-20.4-8.54-30.59-10.23-27.81-4.62-54.83-.51-77.77,16.39-18.95,14-38.07,35.57-36.79,60.18.5,9.46,2.49,19.19,8.23,26.91,2.85,3.83,6.47,7.14,9.11,11"/><path class="cls-8" d="M128.12,459.45c4-11.07,2.72-23.81,5.57-35.89,1.65-7,3.05-11.5,5.29-18.43,2.3-7.15,5.72-11,11.6-14.36,5-2.82,11.48-6,16.07-9.63,5.28-4.19,16.79-3.67,22.5-7.3,12.59-8,30.12-9.6,42.37.92C243,384.58,242.4,394.94,243,409.2c.67,16.29,7.26,24.63,17.95,36.77,10.35,11.77,18.77,24.27,17.94,40.76-.77,15.43-5.65,26.4-18.09,35.7-23.15,17.3-55.56,13.11-81.91,5.24-12.63-3.77-21.76-10.43-30-20.87-6.34-8-7.76-17.22-12.83-25.76-3.5-5.88-8.6-8.14-7.77-15.13.28-2.39,2.37-4,2.74-6.48.33-2.2-1.41-3.65-.75-6.44"/><path class="cls-2" d="M419.76,481.57c39.8-16.16,65.47-15.28,71.13-61.55,4.24-34.67,14.9-60.71-20.39-86.22-29.05-21-92.11-16.95-123-4.61-30.56,12.22-41.3,33.61-40,65.86,1.51,38.11,29.8,67.23,59.7,80.69,12.75,5.74,33.14,16.71,52.54,5.83"/><path class="cls-2" d="M209.58,252.44c-26.47-13.83-57.27-8.83-57.05,30.93.2,37.4,48.16,36.8,74.79,37,29.91.27,55.8-14.67,23.47-43.53-10.27-9.16-29.28-17.46-41.21-24.44"/><path class="cls-2" d="M208.35,404.23c-6.89-2.65-18.08-3.51-25.82-2.55-5.52.68-9.56,3.88-14.28,7.2-9.49,6.68-14.86,16.61-18.13,29.42-4.78,18.68,4.68,48.41,24.69,57.17,10.61,4.63,50.33,7.54,50.14-9.27,0-4.55-1.92-11.9-4.08-15.67-2.56-4.47-3.91-10.67-4.4-16.29-1-11.5-.08-23.71.11-35.25.78-9.2-.54-11.57-8.23-14.76"/><path class="cls-3" d="M181.34,319.55C252.1,287,110.8,231.12,108.55,281c-.79,17.57,16.6,23.75,29.86,35.1,9.5,8.14,26.64,16.53,33.73,11.19,3.17-2.22,5-5.59,9.2-7.69"/><path class="cls-3" d="M162.08,415.69c-10.61-2.7-23.93,15-14.65,30.42,6.07,10.07,23.4,15.59,32.42,6.4,14.78-15-3.54-34.17-17.77-36.82"/><path class="cls-3" d="M191.1,453.18c2,18.22,8.53,67.27,38,55.63,8.23-3.25,24.81-24.22,25.27-34.36.4-8.95-6.6-15.53-14.47-19.8s-16.28-3.24-24.38-7.28-9.4-12.48-16.79-9.35c-8.12,3.45-9.88,17.23-4.86,22.26"/><path class="cls-3" d="M479.43,383.33c15.39,5.47,31.69.42,28.54-21.09C505,342,479.1,346,464.66,347.88c-16.21,2.13-29.09,12.19-9.39,25.35,6.26,4.18,17.18,7.23,24.16,10.1"/><path class="cls-3" d="M332.55,458.28c23.28,3.14,35.22,10.52,50.47-9.89,11.42-15.3,23.55-24.77,13.73-46.46-8.08-17.84-39.1-33.05-57.09-35.57-17.82-2.5-28.73,4.73-36.88,20.38-9.63,18.5-4.11,40,6.42,54.51,4.49,6.18,11.19,16.92,23.35,17"/><path class="cls-3" d="M400.93,345c13.1,9.75,30.16,9.71,33.47-11.77,3.12-20.21-22.82-24-37.17-26.46-16.13-2.72-31.4,3.1-16.43,21.47,4.75,5.84,14.29,12,20.13,16.76"/><path class="cls-3" d="M430.36,492c33.45-.44,49-45.47,18.42-63.17-20-11.6-59.26-10.18-63.9,16.4C382,461.83,394.48,486.7,408,495c11.5,7.11,18.09-2,28.21-2.69"/><path class="cls-4" d="M403.22,399.1c.64,6,2.75,22.11,12.44,18.31,2.71-1.06,8.17-7.94,8.33-11.28.14-2.94-2.15-5.1-4.74-6.51s-5.35-1.08-8-2.42-3.08-4.1-5.51-3.08c-2.67,1.12-3.26,5.65-1.62,7.31"/><path class="cls-4" d="M448,356c-5.2,5.7-9.43,7.54-6.76,15.48,2,5.95,2.28,11,10,12.4,6.33,1.16,16.24-4.38,20.28-8.77s4.1-8.65,1.4-13.78c-3.2-6.06-10-8.59-15.93-8.45-2.51.05-6.66-.15-9,3.12"/><path class="cls-4" d="M372.05,401.22c-4.15,3.4-5.5,8.84,1.08,11.61,6.2,2.6,9.48-5.37,11.4-9.74,2.15-4.92,1.51-10.26-5.53-6.95-2.24,1.05-5,3.6-6.95,5.08"/><path class="cls-4" d="M424.88,465.15c2.34,4.83,7.32,7.4,11.54,1.64,4-5.42-3-10.46-6.83-13.34-4.29-3.24-9.62-3.85-8,3.77.5,2.42,2.35,5.65,3.33,7.93"/><path class="cls-4" d="M472.27,425.81c2.34,4.83,7.32,7.4,11.54,1.64,4-5.42-3-10.46-6.83-13.34-4.29-3.24-9.62-3.85-8,3.77.5,2.42,2.36,5.65,3.33,7.93"/><path class="cls-4" d="M291.32,405.33c-2.11,5.65-7.43,21,2.94,21.94,2.89.26,10.85-3.44,12.49-6.35,1.44-2.57.35-5.53-1.33-7.95s-4.3-3.36-6.08-5.74-.91-5.05-3.55-5.22c-2.89-.19-5.44,3.6-4.71,5.81"/><path class="cls-4" d="M331.86,368.12c-4.43,25.21,37.09-2.51,24.05-12.44-4.6-3.51-9.53,0-15.07,1.5-4,1-9.45,4.1-9.34,7,0,1.27.58,2.4.36,3.92"/><path class="cls-4" d="M334.15,422.14c-6.14,9.12,3.12,21.74,13.62,16.79,6.88-3.24,13.84-14.1,7.52-20.33-3.93-3.88-13-5.16-17.76-3.08-4.08,1.78-2.85,5.26-4.55,8.13"/><path class="cls-4" d="M410.33,332.52c-2.25-3.85-11.22-2.64-13,4.47-1.18,4.65,2.18,11.27,7.44,11.26,8.6,0,8.91-10.83,5.59-15.73"/><path class="cls-4" d="M240.66,290.32c-2.4,0-6.23,3.87-7.53,6.93-1.22,2.89-2.06,7.67.31,10.22,2.48,1.95,6.54.13,10.45-1.53,4.82-2.06,9.08-6.22,14.09-7.57s11.71-1.2,15.38-6.05c6-8-4.19-10-10-8.94-7.48,1.34-15.4,7.87-22.69,6.94"/><path class="cls-4" d="M148.06,291.31c-4.87,2.24-7.54,7.17-1.86,11.5,5.33,4.08,10.51-2.8,13.47-6.56,3.33-4.22,4.05-9.54-3.6-8.11-2.43.45-5.7,2.24-8,3.17"/><path class="cls-4" d="M233.17,250.38c-9-6.32-21.8,2.68-17.07,13.28,3.1,6.94,13.83,14.12,20.17,7.93,4-3.86,5.43-12.89,3.44-17.71-1.69-4.1-5.2-2.95-8-4.71"/><path class="cls-4" d="M202,272.9c1.86,4.55,5.23,8.2,2,12.89-2.18,3.13-6.13,7.36-9.54,8.91-8,3.65-12.83-3.13-13.59-9.47-.48-4,.18-7.13,1.12-10.82,1-3.9.34-10.33,2.77-13.81,6.39-9.14,12,2.72,14.42,7.39.9,1.75,2,3,2.85,4.91"/><path class="cls-4" d="M183.08,468.81c-6.13,9.12,3.13,21.74,13.63,16.79,6.87-3.24,13.83-14.11,7.51-20.33-3.93-3.88-13-5.16-17.77-3.07-4.06,1.77-2.84,5.25-4.55,8.12"/><path class="cls-4" d="M219.78,388.55c-5.6-5.32-7.35-9.59-15.35-7.08-6,1.87-11,2.06-12.59,9.72-1.29,6.31,4,16.33,8.35,20.47s8.56,4.26,13.75,1.67c6.12-3.07,8.79-9.87,8.78-15.76,0-2.51.27-6.66-2.94-9"/></g><path class="cls-1" d="M420,378.28A151.22,151.22,0,1,1,268.79,227.06,151.22,151.22,0,0,1,420,378.28Z"/><path class="cls-2" d="M177.2,385.77a8.63,8.63,0,0,1,2.08,6.21,8.5,8.5,0,0,1-2.89,5.92h0a15.07,15.07,0,0,1-3.89,2.3,18.89,18.89,0,0,0-2.11,1.08,21.3,21.3,0,0,0-2.89,2.1,15.49,15.49,0,0,0-1.84,1.89,24.27,24.27,0,0,0-1.46,2.11,16.61,16.61,0,0,1-3,3.78,8.13,8.13,0,0,1-3.11,1.71A8.69,8.69,0,0,1,149.94,398c.22-.19.47-.38.71-.55a21.32,21.32,0,0,1,3.69-2,17,17,0,0,0,3.43-1.87c.2-.15.39-.31.58-.47a23.23,23.23,0,0,0,3.65-4.44c.53-.76,1.08-1.55,1.68-2.34a9.84,9.84,0,0,1,1.25-1.33l.06,0a8.77,8.77,0,0,1,4.2-2S173.11,381.64,177.2,385.77Z"/><path class="cls-9" d="M169.48,385l-.41.1a6.83,6.83,0,0,0-2.72,1.44h0a6.77,6.77,0,0,0-1,1.06c-.58.75-1.11,1.52-1.62,2.26a22,22,0,0,1-4.67,5.37,18.72,18.72,0,0,1-3.85,2.13,20.27,20.27,0,0,0-3.35,1.77,6.55,6.55,0,0,0-2.71,4.56,6.57,6.57,0,0,0,8.4,7.14c2.41-.7,3.61-2.59,4.89-4.6a24.46,24.46,0,0,1,1.61-2.31,21,21,0,0,1,7.58-5.65,14,14,0,0,0,3.39-2,6.43,6.43,0,0,0,2.18-4.43,6.55,6.55,0,0,0-1.58-4.78l-.22-.23A6.52,6.52,0,0,0,169.48,385Z"/><path class="cls-2" d="M299.42,376.72a6.71,6.71,0,0,1,1.6,4.82,6.6,6.6,0,0,1-2.23,4.58h0a12,12,0,0,1-3,1.78,14.76,14.76,0,0,0-1.64.83,17.24,17.24,0,0,0-2.24,1.63,11.47,11.47,0,0,0-1.42,1.47,16.6,16.6,0,0,0-1.14,1.63,13,13,0,0,1-2.3,2.93,6.23,6.23,0,0,1-2.4,1.32,6.73,6.73,0,0,1-6.35-11.52c.18-.15.37-.29.56-.43a16.41,16.41,0,0,1,2.85-1.52,13,13,0,0,0,2.66-1.45,5.54,5.54,0,0,0,.45-.37,17.25,17.25,0,0,0,2.83-3.44c.41-.59.84-1.2,1.31-1.81a6.7,6.7,0,0,1,1-1l.05,0a6.78,6.78,0,0,1,3.25-1.56S296.25,373.52,299.42,376.72Z"/><path class="cls-10" d="M293.43,376.14l-.32.08a5.19,5.19,0,0,0-2.11,1.11h0a5,5,0,0,0-.78.82c-.45.59-.86,1.18-1.25,1.75a17.05,17.05,0,0,1-3.63,4.17,14.32,14.32,0,0,1-3,1.65,15,15,0,0,0-2.6,1.37,5.11,5.11,0,0,0,4.42,9.06c1.86-.53,2.79-2,3.79-3.56a17.87,17.87,0,0,1,1.24-1.79,16,16,0,0,1,4.07-3.45,17.11,17.11,0,0,1,1.81-.92,10.76,10.76,0,0,0,2.62-1.53,4.91,4.91,0,0,0,1.69-3.43,5,5,0,0,0-1.22-3.7l-.17-.18A5,5,0,0,0,293.43,376.14Z"/><path class="cls-11" d="M202.78,325.74c2.59-3.39,7.73-4.27,12.2-2.07a11.06,11.06,0,0,1,5.39,5.53,8,8,0,0,1-.05,6.76,8.39,8.39,0,0,1-.77,1.25c-2.6,3.4-7.73,4.27-12.21,2.08a11.09,11.09,0,0,1-5.38-5.54,8,8,0,0,1,0-6.75A7.72,7.72,0,0,1,202.78,325.74Z"/><path class="cls-11" d="M179.75,333.6c-.3-4.26,3-8.3,7.79-9.62a11.09,11.09,0,0,1,7.7.6,8,8,0,0,1,4.42,5.1,7.08,7.08,0,0,1,.24,1.45c.31,4.26-3,8.3-7.78,9.62a11,11,0,0,1-7.7-.59,8.09,8.09,0,0,1-4.43-5.11A7.84,7.84,0,0,1,179.75,333.6Z"/><path class="cls-11" d="M158.55,339.14c.09-4.27,3.72-8,8.63-8.87a11,11,0,0,1,7.61,1.29,8,8,0,0,1,4,5.49,7.91,7.91,0,0,1,.11,1.46c-.09,4.27-3.72,8-8.63,8.87a11,11,0,0,1-7.61-1.29,8,8,0,0,1-3.94-5.48A7.24,7.24,0,0,1,158.55,339.14Z"/><path class="cls-11" d="M137.44,332.13c1.69-3.92,6.46-6,11.34-4.95a11.06,11.06,0,0,1,6.56,4.08,8,8,0,0,1,1.57,6.57,6.93,6.93,0,0,1-.45,1.4c-1.7,3.92-6.47,6-11.35,4.94a11.07,11.07,0,0,1-6.55-4.07,8,8,0,0,1-1.57-6.57A6.73,6.73,0,0,1,137.44,332.13Z"/><path class="cls-12" d="M355.09,483.55a21.86,21.86,0,0,0-5.44-11.91c-10.52-12.05-22.66-1.38-22.66-1.38s-11.29,9.37-2.63,20.15,17.25,5.11,19.17,3.88c0,0,8.89-6.07,2.26-16.8,0,0-6.87-9.44-15.53-3,0,0-7.37,5.65-1.69,12.3,0,0,2.21,2.92,5.29,2.35,0,0,1.82-.52,0-1.43,0,0-5.53-1.81-3.25-7.52,0,0,3.11-6.71,9.59-1.85,0,0,6.41,4.85,1.77,10.75a8.1,8.1,0,0,1-10.67,1.61c-8.18-4.69-4.19-12.93-4.19-12.93s2.39-7.35,12.09-6.44c0,0,10.17,1.08,11.7,12.89,0,0,1.27,5.64.62,9.91,0,0-.21,4.63,1.16,3.34a25.74,25.74,0,0,0,2.57-10.33Z"/><path class="cls-13" d="M221.88,431.73a19.06,19.06,0,0,0-2.55,2.11c-1.85,2-1.53,3.7-1.53,3.7.85,2.46,4.53,2.25,4.53,2.25s4.32-1,3.32,4.59c-.83,4.71,2.54,4.54,2.54,4.54a2.5,2.5,0,0,0,2.93-1.77c2-4.68,5.29-2.23,5.29-2.23,3.32,2.18,5.53.19,5.53.19,3.63-3.86-1.11-8.31-1.11-8.31-2.56-2.94.34-3.72.34-3.72s3-1,1.77-5.51-5.65-.81-5.65-.81c-5.39,3-9-2-9-2s-3.83-5.89-6.54-4.31c-3.57,2.08.05,7.36.05,7.36C224.22,430.67,221.88,431.73,221.88,431.73Zm7.52,1.14c1.67-.64,3.44-.1,3.95,1.21s-.43,2.91-2.1,3.56-3.44.11-3.95-1.21S227.73,433.52,229.4,432.87Z"/><path class="cls-13" d="M246.57,338.13c2.17.47,3.65-2.3,3.65-2.3s1.17-3.59,4.81-.37c3,2.7,4.42.17,4.42.17a2.13,2.13,0,0,0,0-2.92c-2.52-3.51.73-4.83.73-4.83,3.07-1.45,2.59-3.94,2.59-3.94-1.19-4.35-6.52-2.89-6.52-2.89-3.28.56-2.57-1.89-2.57-1.89s.64-2.63-3.21-3.74-3.09,3.75-3.09,3.75c-.21,5.25-5.42,5.63-5.42,5.63s-6,.18-6,2.85c-.07,3.52,5.38,3.23,5.38,3.23,3.11-.47,2.84,1.69,2.84,1.69a15.28,15.28,0,0,0,.4,2.8A4,4,0,0,0,246.57,338.13Zm1.76-10.51a2.24,2.24,0,1,1,1.66,3.11A2.53,2.53,0,0,1,248.33,327.62Z"/><path class="cls-14" d="M330.76,332.09c-.35.33-.7.63-1.06,1a8.43,8.43,0,1,1-12.14-11.68,102.7,102.7,0,0,1,32.31-21.08l0,.06a9.37,9.37,0,0,1,.89-.31,8.44,8.44,0,1,1,4.45,16.28s-7.38,1.79-18.32,10.44Z"/><path class="cls-14" d="M252.61,269.88c-.47-.11-.91-.24-1.4-.36A8.43,8.43,0,1,1,254.49,253a102.41,102.41,0,0,1,35.19,15.82l0,.05a8.19,8.19,0,0,1,.73.59A8.44,8.44,0,1,1,279.08,282s-5.49-5.25-18.68-9.79Z"/><path class="cls-14" d="M252.8,494.81C244.74,506.19,238.16,510,238.16,510A8.43,8.43,0,1,0,247,524.35q.41-.26.78-.54l0,.05a102.49,102.49,0,0,0,25.08-29.32,8.43,8.43,0,1,0-14.93-7.8c-.25.44-.5.83-.74,1.25Z"/><line class="cls-1" x1="133.21" y1="162.31" x2="119.02" y2="357.26"/><line class="cls-1" x1="175.09" y1="147.91" x2="340.09" y2="244.9"/><path class="cls-15" d="M182.34,165.37a24.67,24.67,0,1,1-24.66-24.66A24.66,24.66,0,0,1,182.34,165.37Z"/><path class="cls-16" d="M236,464.65l-6.93,15.68h6.57v5.37H221v-.36l7.12-15.65h-7v-5.38H236Z"/><path class="cls-16" d="M252.94,476v9.75h-5.41v-8.13c0-1.4-.82-2.26-1.86-2.26s-1.87.83-1.87,2.26v8.13h-5.44V470.42h5.44v1.9a5.69,5.69,0,0,1,4.43-2.2C251.2,470.12,252.94,472.32,252.94,476Z"/><path class="cls-16" d="M255.45,473.66c1.34-1.37,2.76-2.85,4-4.19a3.45,3.45,0,0,0,1.17-2.15,1.17,1.17,0,0,0-1.17-1.18c-.88,0-1.39.82-1.37,1.75l-3.12-.84a4.42,4.42,0,0,1,4.47-4.22,4.21,4.21,0,0,1,4.47,4,5.67,5.67,0,0,1-2.05,4.07c-.41.47-.89,1-1.3,1.48h3.33v3.14h-8.44Z"/><path class="cls-16" d="M271.93,471.2h-2.37v2.33h-2.25V471.2h-2.26V469h2.26v-2.32h2.25V469h2.37Z"/><path class="cls-16" d="M364.84,299.74v21.54H360.2l-8.41-11.4v11.25H346.2V299.61h4.61l8.44,11.65V299.74Z"/><path class="cls-16" d="M383.48,305.85v15.28H378v-1.74a5.25,5.25,0,0,1-4.16,1.92c-4.18,0-6.57-3.54-6.57-7.85s2.39-7.85,6.57-7.85a5.25,5.25,0,0,1,4.16,1.92v-1.68Zm-5.44,8V313a2.54,2.54,0,0,0-2.5-2.2,2.62,2.62,0,0,0,0,5.23A2.56,2.56,0,0,0,378,313.86Z"/><path class="cls-16" d="M392.51,306.63h-2.37V309h-2.25v-2.33h-2.26v-2.19h2.26v-2.32h2.25v2.32h2.37Z"/><path class="cls-16" d="M206.67,399.41l.87-10.23-7.15,8.62-1-.28-1.57-10.92-4.42,9.08-5.76-1.62,10.17-19.53,3.56,1,1.42,11.8,7.38-9.33,3.56,1-1.35,22Z"/><path class="cls-16" d="M229.17,404.64c-1.28,4.56-5.44,6.25-10,5a14.82,14.82,0,0,1-5.39-2.75l1.33-4.61a9,9,0,0,0,4.1,2.67c2.09.59,4.24.08,4.9-2.27l.05-.21a5.26,5.26,0,0,1-4.59.77c-4-1.13-5.37-5.19-4.21-9.33s4.42-6.92,8.45-5.79a5.22,5.22,0,0,1,3.48,3l.46-1.62,5.21,1.47Zm-3.42-7.85a2.56,2.56,0,0,0-1.73-3.22,2.62,2.62,0,0,0-1.41,5A2.55,2.55,0,0,0,225.75,396.79Z"/><path class="cls-16" d="M234.67,394.75c1.66-1,3.43-2,5-2.95a3.45,3.45,0,0,0,1.72-1.75,1.18,1.18,0,0,0-.82-1.45c-.84-.24-1.56.41-1.79,1.31L236,388.26a4.41,4.41,0,0,1,5.44-2.86,4.2,4.2,0,0,1,3.22,5.07,5.64,5.64,0,0,1-3.07,3.37c-.52.34-1.13.72-1.65,1.07l3.21.9-.85,3-8.13-2.28Z"/><path class="cls-16" d="M251.2,396.84l-2.28-.64-.63,2.24-2.16-.6.63-2.25-2.18-.61.6-2.11,2.17.61.63-2.23,2.16.61-.63,2.23,2.29.64Z"/><path class="cls-16" d="M285.29,445.44c0-6.48,4.67-11.06,11.21-11.06a11.76,11.76,0,0,1,4.56.88v6a7.27,7.27,0,0,0-4.31-1.25,5.44,5.44,0,1,0,0,10.88,7.06,7.06,0,0,0,4.31-1.25v6a11.77,11.77,0,0,1-4.56.85C290,456.44,285.29,451.89,285.29,445.44Z"/><path class="cls-16" d="M318.84,440.82v15.29H313.4v-1.75a5.21,5.21,0,0,1-4.15,1.93c-4.19,0-6.58-3.55-6.58-7.85s2.39-7.86,6.58-7.86a5.21,5.21,0,0,1,4.15,1.93v-1.69Zm-5.44,8V448a2.54,2.54,0,0,0-2.5-2.2,2.61,2.61,0,0,0,0,5.22A2.56,2.56,0,0,0,313.4,448.83Z"/><path class="cls-16" d="M321.47,444.06c1.34-1.37,2.77-2.85,4-4.18a3.46,3.46,0,0,0,1.18-2.16,1.18,1.18,0,0,0-1.18-1.18c-.87,0-1.39.82-1.37,1.75l-3.12-.84a4.42,4.42,0,0,1,4.47-4.22,4.22,4.22,0,0,1,4.48,4,5.71,5.71,0,0,1-2.05,4.08c-.41.46-.89,1-1.3,1.48h3.33v3.13h-8.45Z"/><path class="cls-16" d="M338,441.6h-2.37v2.33h-2.24V441.6h-2.26v-2.19h2.26v-2.32h2.24v2.32H338Z"/><path class="cls-16" d="M259.18,301.31l1.07,3.67,4.87-1.41,1.46,5L261.71,310l1.94,6.69-5.4,1.57-6-20.54,12.42-3.61,1.5,5.16Z"/><path class="cls-16" d="M283.64,304.33l-9.39,2.72a3.09,3.09,0,0,0,3.61.93,12.92,12.92,0,0,0,4.27-2.29l1.3,4.36a11.85,11.85,0,0,1-4.71,2.52A7.9,7.9,0,0,1,274,297.49C278.86,296.07,282.57,299.32,283.64,304.33Zm-10.15.21,4.64-1.35a2.49,2.49,0,0,0-2.78-1.13A2.53,2.53,0,0,0,273.49,304.54Z"/><path class="cls-16" d="M283.86,298.27c.9-1.68,1.86-3.5,2.68-5.14a3.46,3.46,0,0,0,.53-2.39,1.18,1.18,0,0,0-1.46-.8,1.52,1.52,0,0,0-.83,2.06l-3.23.06a4.42,4.42,0,0,1,3.12-5.3,4.22,4.22,0,0,1,5.41,2.6,5.7,5.7,0,0,1-.83,4.49c-.26.56-.57,1.21-.83,1.78l3.2-.93.87,3-8.11,2.36Z"/><path class="cls-16" d="M299,291.31l-2.28.66.65,2.24-2.15.63-.65-2.24-2.18.63-.61-2.1,2.17-.63-.64-2.23,2.15-.62.65,2.22,2.28-.66Z"/><path class="cls-17" d="M131.82,68.05a7.89,7.89,0,1,1,9.26,6.17A7.65,7.65,0,0,1,131.82,68.05Zm11.45-2.26a3.77,3.77,0,1,0-3,4.52A3.76,3.76,0,0,0,143.27,65.79Z"/><path class="cls-17" d="M151.25,73.08c.74-1.14,1.53-2.36,2.21-3.46A2.42,2.42,0,0,0,154,68a.83.83,0,0,0-1-.65,1.08,1.08,0,0,0-.71,1.4L150,68.55A3.12,3.12,0,0,1,152.54,65a3,3,0,0,1,3.65,2.17,4,4,0,0,1-.86,3.11l-.7,1.21,2.31-.46.43,2.18-5.86,1.15Z"/><path class="cls-17" d="M210.85,16.25a7.89,7.89,0,0,1,15.7,1.6,7.89,7.89,0,0,1-15.7-1.6Zm11.61,1.19a3.77,3.77,0,1,0-7.5-.77,3.77,3.77,0,1,0,7.5.77Z"/><path class="cls-17" d="M224.75,30.39c1.13-.74,2.33-1.55,3.4-2.29a2.41,2.41,0,0,0,1.13-1.31.83.83,0,0,0-.63-1,1.07,1.07,0,0,0-1.21,1l-2-1.05a3.11,3.11,0,0,1,3.72-2.24A3,3,0,0,1,231.62,27a4,4,0,0,1-2,2.51l-1.12.83,2.3.5L230.3,33l-5.83-1.26Z"/><path class="cls-17" d="M252.7,98.63l-5.92,14-3-1.28-2.34-9.74-3.1,7.33-3.64-1.54,5.92-14,3,1.27,2.3,9.91,3.17-7.51Z"/><path class="cls-17" d="M247.74,116.54c1.25-.53,2.59-1.1,3.77-1.63a2.46,2.46,0,0,0,1.36-1.08.84.84,0,0,0-.45-1.09,1.07,1.07,0,0,0-1.37.76l-1.8-1.4a3.11,3.11,0,0,1,4.07-1.52,3,3,0,0,1,1.81,3.84,4,4,0,0,1-2.45,2.09l-1.26.61,2.17.92-.86,2-5.5-2.32Z"/><path class="cls-17" d="M28.09,87.8,28.25,103l-3.28,0-6-8,.09,8-4,0L14.9,87.86l3.26,0L24.22,96l-.09-8.14Z"/><path class="cls-17" d="M31,104.58c.94-1,1.93-2,2.81-3a2.41,2.41,0,0,0,.81-1.54.83.83,0,0,0-.84-.82c-.62,0-1,.59-1,1.25l-2.21-.57a3.13,3.13,0,0,1,3.13-3,3,3,0,0,1,3.2,2.8,4,4,0,0,1-1.42,2.9c-.29.33-.62.71-.91,1.06l2.36,0,0,2.22-6,.06Z"/><text class="cls-18" transform="translate(6.72 24.85) rotate(-22.84)">C</text><path class="cls-17" d="M15.84,13.62A6.63,6.63,0,0,1,20,4.93,6.63,6.63,0,0,1,28.73,9a6.64,6.64,0,0,1-4.16,8.71A6.64,6.64,0,0,1,15.84,13.62Zm9.54-3.4a3.28,3.28,0,1,0-6.17,2.2,3.28,3.28,0,1,0,6.17-2.2Z"/><path class="cls-17" d="M33.16,15.46c.49-1.06,1-2.21,1.45-3.24a2.13,2.13,0,0,0,.24-1.49.73.73,0,0,0-.92-.44.93.93,0,0,0-.44,1.29l-2,.16a2.71,2.71,0,0,1,1.71-3.36,2.59,2.59,0,0,1,3.42,1.4,3.49,3.49,0,0,1-.35,2.78c-.14.35-.31.76-.45,1.12L37.78,13l.65,1.82-4.89,1.74Z"/><path class="cls-19" d="M573.47,522.13c-35.49,17-75.76,19.56-109-.4a83,83,0,0,1-23.69-20.86"/><polygon class="cls-20" points="445.44 501 441.58 501.82 439.5 505.17 437.53 496.04 445.44 501"/></g></g></svg>