<svg xmlns="http://www.w3.org/2000/svg" viewBox="0 0 1117.88 606.49"><defs><style>.cls-1,.cls-37,.cls-39,.cls-4,.cls-60,.cls-66,.cls-67,.cls-69{fill:#fff;}.cls-1,.cls-2,.cls-56,.cls-57,.cls-70{stroke:#5c5052;}.cls-1,.cls-2,.cls-40,.cls-53,.cls-56,.cls-57,.cls-66,.cls-67,.cls-68,.cls-70{stroke-miterlimit:10;}.cls-1{stroke-width:0.88px;}.cls-2,.cls-53,.cls-57,.cls-70{fill:none;}.cls-2{stroke-width:0.36px;}.cls-3{fill:#2e61a2;}.cls-3,.cls-61{opacity:0.4;}.cls-4{font-size:13.07px;}.cls-27,.cls-4,.cls-60{font-family:Acre-Semibold, Acre;font-weight:600;}.cls-5{font-size:40px;}.cls-42,.cls-44,.cls-5{fill:#f27243;}.cls-10,.cls-5{font-family:Acre-Light, Acre;font-weight:300;}.cls-6{letter-spacing:0em;}.cls-7{letter-spacing:-0.02em;}.cls-8{letter-spacing:-0.03em;}.cls-9{letter-spacing:-0.02em;}.cls-10{font-size:26px;fill:#5e5153;}.cls-11{letter-spacing:-0.02em;}.cls-12{letter-spacing:0.01em;}.cls-13{letter-spacing:-0.02em;}.cls-14{letter-spacing:-0.02em;}.cls-15{letter-spacing:-0.01em;}.cls-16{letter-spacing:0.01em;}.cls-17{letter-spacing:-0.01em;}.cls-18{letter-spacing:0em;}.cls-19,.cls-26{letter-spacing:-0.02em;}.cls-20{letter-spacing:-0.03em;}.cls-21{letter-spacing:0em;}.cls-22,.cls-23,.cls-24,.cls-26,.cls-39,.cls-41,.cls-45,.cls-46,.cls-69{font-family:Acre-Bold, Acre;font-weight:700;}.cls-22{letter-spacing:-0.02em;}.cls-24{letter-spacing:-0.03em;}.cls-25{letter-spacing:-0.01em;}.cls-27,.cls-33{font-size:10.67px;}.cls-27,.cls-33,.cls-47,.cls-62,.cls-65{fill:#5c5052;}.cls-28{letter-spacing:-0.02em;}.cls-29,.cls-33,.cls-47,.cls-62,.cls-65{font-family:Acre-Regular, Acre;}.cls-29{font-weight:400;}.cls-30{letter-spacing:-0.01em;}.cls-31{letter-spacing:-0.01em;}.cls-32{letter-spacing:0.01em;}.cls-34{letter-spacing:-0.01em;}.cls-35{letter-spacing:-0.01em;}.cls-36{letter-spacing:-0.03em;}.cls-38,.cls-43,.cls-46{fill:#ffce01;}.cls-39{font-size:26.36px;}.cls-40,.cls-41{fill:#3daaa1;}.cls-40,.cls-68{stroke:#fff;}.cls-40{stroke-width:0.33px;opacity:0.17;}.cls-41{font-size:8.36px;}.cls-43,.cls-44{opacity:0.5;}.cls-45,.cls-60{font-size:37.21px;}.cls-45,.cls-54{fill:#2b63a3;}.cls-46{font-size:43.8px;}.cls-47{font-size:24px;}.cls-48{letter-spacing:-0.02em;}.cls-49{letter-spacing:-0.02em;}.cls-50{letter-spacing:-0.03em;}.cls-51{letter-spacing:-0.01em;}.cls-52{letter-spacing:-0.01em;}.cls-53{stroke:#ffce01;stroke-width:3.77px;}.cls-55{letter-spacing:0em;}.cls-56{fill:#e1bc23;}.cls-56,.cls-57{stroke-width:0.94px;}.cls-58{fill:#9a4b2d;stroke:#9b4c2d;stroke-linecap:round;stroke-linejoin:round;stroke-width:1.88px;}.cls-59{fill:#ffcf01;}.cls-61,.cls-68{fill:#5d5152;}.cls-62{font-size:13.19px;}.cls-63{letter-spacing:-0.02em;}.cls-64{letter-spacing:-0.05em;}.cls-65{font-size:13.19px;}.cls-66,.cls-67{stroke:#faac18;}.cls-66{stroke-width:0.37px;}.cls-67{stroke-width:0.31px;}.cls-68{stroke-width:3.11px;}.cls-69{font-size:22.31px;}.cls-70{stroke-width:1.22px;}</style></defs><g id="Layer_2" data-name="Layer 2"><g id="Layer_20" data-name="Layer 20"><rect class="cls-1" x="0.44" y="0.44" width="1117" height="605.61"/><line class="cls-2" x1="923.8" y1="562.4" x2="918.94" y2="553.55"/><circle class="cls-3" cx="929.63" cy="573.41" r="12.57"/><text class="cls-4" transform="matrix(-0.58, 0, 0, 0.58, 937.03, 573.74)">+</text><text class="cls-4" transform="matrix(-1, 0, 0, 1, 933.51, 578.1)">H</text><text class="cls-5" transform="translate(79.03 83.57)"><tspan class="cls-6">o</tspan><tspan x="23.88" y="0">xidatio</tspan><tspan class="cls-7" x="147.96" y="0">n</tspan><tspan class="cls-8" x="169.88" y="0">-</tspan><tspan class="cls-9" x="185.16" y="0">r</tspan><tspan x="196.52" y="0">eduction</tspan></text><text class="cls-10" transform="translate(76.94 154.29)">t<tspan class="cls-11" x="7.2" y="0">r</tspan><tspan x="14.59" y="0">a</tspan><tspan class="cls-12" x="30.63" y="0">n</tspan><tspan class="cls-13" x="45.63" y="0">s</tspan><tspan class="cls-14" x="55.79" y="0">f</tspan><tspan x="62.48" y="0">er </tspan><tspan class="cls-15" x="94.04" y="0">o</tspan><tspan x="109.35" y="0">f elect</tspan><tspan class="cls-14" x="181.71" y="0">r</tspan><tspan x="189.09" y="0">o</tspan><tspan class="cls-16" x="204.75" y="0">n</tspan><tspan x="219.75" y="0">s f</tspan><tspan class="cls-14" x="246.53" y="0">r</tspan><tspan x="253.91" y="0">om o</tspan><tspan class="cls-17" x="316.91" y="0">n</tspan><tspan x="331.34" y="0">e c</tspan><tspan class="cls-17" x="368.72" y="0">h</tspan><tspan x="383.18" y="0">emical speci</tspan><tspan class="cls-18" x="533.3" y="0">e</tspan><tspan x="547.86" y="0">s </tspan><tspan class="cls-11" x="567.44" y="0">t</tspan><tspan x="574.12" y="0">o </tspan><tspan x="0" y="36">a</tspan><tspan class="cls-19" x="16.04" y="36">n</tspan><tspan class="cls-15" x="30.47" y="36">o</tspan><tspan x="45.79" y="36">t</tspan><tspan class="cls-19" x="52.99" y="36">h</tspan><tspan x="67.44" y="36">e</tspan><tspan class="cls-20" x="82.13" y="36">r</tspan><tspan x="89.31" y="36">. t</tspan><tspan class="cls-17" x="109.56" y="36">h</tspan><tspan x="124.02" y="36">e agent </tspan><tspan class="cls-14" x="225.44" y="36">t</tspan><tspan x="232.12" y="36">o g</tspan><tspan class="cls-21" x="272.79" y="36">i</tspan><tspan class="cls-19" x="279.18" y="36">v</tspan><tspan x="291.84" y="36">e t</tspan><tspan class="cls-19" x="322.71" y="36">h</tspan><tspan x="337.16" y="36">e elect</tspan><tspan class="cls-11" x="417" y="36">r</tspan><tspan x="424.39" y="36">on is </tspan><tspan class="cls-22" x="489.93" y="36">o</tspan><tspan class="cls-23" x="504.6" y="36">xidi</tspan><tspan class="cls-24" x="550.51" y="36">z</tspan><tspan class="cls-23" x="561.93" y="36">ed</tspan><tspan x="592.4" y="36">,</tspan><tspan class="cls-25" x="596.71" y="36"> </tspan><tspan class="cls-21" x="605.48" y="36">w</tspan><tspan x="626.04" y="36">hile </tspan><tspan x="0" y="72">t</tspan><tspan class="cls-19" x="7.2" y="72">h</tspan><tspan x="21.66" y="72">e agent t</tspan><tspan class="cls-17" x="130.28" y="72">h</tspan><tspan x="144.74" y="72">at </tspan><tspan class="cls-14" x="176.95" y="72">r</tspan><tspan x="184.34" y="72">ece</tspan><tspan class="cls-21" x="227.44" y="72">i</tspan><tspan class="cls-19" x="233.84" y="72">v</tspan><tspan class="cls-18" x="246.5" y="72">e</tspan><tspan x="261.06" y="72">s t</tspan><tspan class="cls-17" x="287.84" y="72">h</tspan><tspan x="302.3" y="72">e </tspan><tspan class="cls-19" x="325.96" y="72">n</tspan><tspan x="340.38" y="72">egat</tspan><tspan class="cls-18" x="394.36" y="72">i</tspan><tspan class="cls-19" x="400.75" y="72">v</tspan><tspan x="413.42" y="72">e c</tspan><tspan class="cls-17" x="450.8" y="72">h</tspan><tspan x="465.26" y="72">a</tspan><tspan class="cls-14" x="481.3" y="72">r</tspan><tspan x="488.69" y="72">ge is </tspan><tspan class="cls-26" x="554.49" y="72">r</tspan><tspan class="cls-23" x="563.41" y="72">educed</tspan><tspan x="651.99" y="72">. </tspan></text><text class="cls-27" transform="translate(893.93 66.6)"><tspan class="cls-28">o</tspan><tspan x="6.1" y="0">xidation</tspan><tspan class="cls-29"><tspan x="-42.28" y="12.8">compoud A l</tspan><tspan class="cls-30" x="21.21" y="12.8">o</tspan><tspan class="cls-31" x="27.49" y="12.8">s</tspan><tspan class="cls-30" x="31.93" y="12.8">e</tspan><tspan x="37.83" y="12.8">s elect</tspan><tspan class="cls-28" x="69.12" y="12.8">r</tspan><tspan x="72.3" y="12.8">o</tspan><tspan class="cls-32" x="78.69" y="12.8">n</tspan><tspan x="84.85" y="12.8">s</tspan></tspan></text><text class="cls-27" transform="translate(892.84 174.78)"><tspan class="cls-28">r</tspan><tspan x="3.45" y="0">eduction</tspan><tspan class="cls-29"><tspan x="-42.61" y="12.8">compoud A l</tspan><tspan class="cls-30" x="20.88" y="12.8">o</tspan><tspan class="cls-31" x="27.16" y="12.8">s</tspan><tspan class="cls-30" x="31.6" y="12.8">e</tspan><tspan x="37.5" y="12.8">s elect</tspan><tspan class="cls-28" x="68.79" y="12.8">r</tspan><tspan x="71.97" y="12.8">o</tspan><tspan class="cls-32" x="78.36" y="12.8">n</tspan><tspan x="84.52" y="12.8">s</tspan></tspan></text><text class="cls-33" transform="translate(789.12 104.53)"><tspan class="cls-28">r</tspan><tspan x="3.18" y="0">educi</tspan><tspan class="cls-34" x="30.2" y="0">n</tspan><tspan x="36.21" y="0">g </tspan><tspan x="7.19" y="12.8">agent</tspan></text><text class="cls-33" transform="translate(791.46 214.07)"><tspan class="cls-30">o</tspan><tspan x="6.27" y="0">xidizi</tspan><tspan class="cls-35" x="31.53" y="0">n</tspan><tspan x="37.53" y="0">g</tspan><tspan x="7.85" y="12.8">agent</tspan></text><text class="cls-33" transform="translate(1005.98 103.81)"><tspan class="cls-30">o</tspan><tspan x="6.27" y="0">xidi</tspan><tspan class="cls-36" x="23.87" y="0">z</tspan><tspan x="28.38" y="0">ed</tspan></text><text class="cls-33" transform="translate(1006.22 214.07)"><tspan class="cls-28">r</tspan><tspan x="3.18" y="0">educed</tspan></text><circle class="cls-37" cx="815.38" cy="69.68" r="20.29"/><circle class="cls-38" cx="815.38" cy="69.68" r="20.29"/><text class="cls-39" transform="translate(806.63 79.08)">A</text><circle class="cls-37" cx="829.64" cy="52.61" r="5.92"/><circle class="cls-40" cx="829.64" cy="52.61" r="5.92"/><text class="cls-41" transform="translate(826.41 55.1)">e</text><text class="cls-41" transform="translate(831.07 52.31) scale(0.58)">-</text><circle class="cls-37" cx="835.61" cy="65.31" r="5.92"/><circle class="cls-40" cx="835.61" cy="65.31" r="5.92"/><text class="cls-41" transform="translate(832.38 67.8)">e</text><text class="cls-41" transform="translate(837.04 65.01) scale(0.58)">-</text><circle class="cls-37" cx="1022.87" cy="68.95" r="20.29"/><circle class="cls-38" cx="1022.87" cy="68.95" r="20.29"/><text class="cls-39" transform="translate(1014.12 78.36)">A</text><circle class="cls-37" cx="815.14" cy="176.78" r="20.29"/><circle class="cls-42" cx="815.14" cy="176.78" r="20.29"/><text class="cls-39" transform="translate(807.06 186.19)">B</text><circle class="cls-37" cx="1022.62" cy="176.78" r="20.29"/><circle class="cls-42" cx="1022.62" cy="176.78" r="20.29"/><text class="cls-39" transform="translate(1014.55 186.19)">B</text><circle class="cls-37" cx="1009.8" cy="159.72" r="5.92"/><circle class="cls-40" cx="1009.8" cy="159.72" r="5.92"/><text class="cls-41" transform="translate(1006.57 162.2)">e</text><text class="cls-41" transform="translate(1011.23 159.42) scale(0.58)">-</text><circle class="cls-37" cx="1002.28" cy="172.42" r="5.92"/><circle class="cls-40" cx="1002.28" cy="172.42" r="5.92"/><text class="cls-41" transform="translate(999.05 174.9)">e</text><text class="cls-41" transform="translate(1003.71 172.12) scale(0.58)">-</text><path class="cls-43" d="M997.36,86.85l-15.15,7.74L985.88,97a64.55,64.55,0,0,1-10.55,7.64,89.06,89.06,0,0,1-22,9,131.2,131.2,0,0,1-33.75,4.1,166.18,166.18,0,0,1-38.42-4.11,98.6,98.6,0,0,1-24.22-9c-11.83-6.43-16.27-12.93-16.31-13l-2.73,1.8-2.74,1.79c.2.31,5.09,7.66,18.12,14.86a104.37,104.37,0,0,0,25.9,9.8,172.26,172.26,0,0,0,40.4,4.4,136.85,136.85,0,0,0,35.78-4.43A94.49,94.49,0,0,0,979.06,110a68.87,68.87,0,0,0,12.51-9.38l5,3.24Z"/><path class="cls-44" d="M997.83,155.36l-1.54-17-4.75,3.31a69.17,69.17,0,0,0-12.48-9.35,94.49,94.49,0,0,0-23.69-9.82,136.85,136.85,0,0,0-35.78-4.43,172.26,172.26,0,0,0-40.4,4.4,104.37,104.37,0,0,0-25.9,9.8c-13,7.2-17.92,14.55-18.12,14.86l5.48,3.58c.17-.26,17.75-26.08,78.94-26.08a131.2,131.2,0,0,1,33.75,4.1,89.06,89.06,0,0,1,22,9,64.57,64.57,0,0,1,10.7,7.78l-3.71,2.58Z"/><text class="cls-45" transform="translate(342.68 314.05)">H</text><text class="cls-45" transform="translate(368.69 326.44) scale(0.58)">2</text><text class="cls-45" transform="translate(380.73 314.05)">O</text><text class="cls-45" transform="translate(513.95 314.05)">O</text><text class="cls-45" transform="translate(544.5 326.44) scale(0.58)">2</text><text class="cls-46" transform="translate(267.57 316.03)">+</text><text class="cls-46" transform="translate(459.02 316.03)">+</text><text class="cls-47" transform="translate(344.11 383.9)"><tspan class="cls-48">w</tspan><tspan x="19.2" y="0">a</tspan><tspan class="cls-49" x="34.01" y="0">t</tspan><tspan x="40.58" y="0">er</tspan></text><text class="cls-45" transform="translate(137.01 314.05)"><tspan class="cls-50">F</tspan><tspan class="cls-51" x="16.56" y="0">e</tspan><tspan x="37.02" y="0">S</tspan></text><text class="cls-45" transform="translate(194.42 326.44) scale(0.58)">2</text><text class="cls-47" transform="translate(139.39 383.9)"><tspan class="cls-48">p</tspan><tspan x="14.3" y="0">yri</tspan><tspan class="cls-49" x="40.58" y="0">t</tspan><tspan x="47.16" y="0">e</tspan></text><text class="cls-47" transform="translate(493.24 383.9)"><tspan class="cls-52">o</tspan><tspan x="14.11" y="0">x</tspan><tspan class="cls-48" x="26.18" y="0">y</tspan><tspan x="37.97" y="0">gen</tspan></text><line class="cls-53" x1="593.84" y1="303.4" x2="625.76" y2="303.4"/><polygon class="cls-38" points="639.06 303.4 620.32 311.06 624.76 303.4 620.32 295.74 639.06 303.4"/><path class="cls-54" d="M382.38,513.82a1.1,1.1,0,0,1,0-.18l0-.38v0c0-.14,0-.28,0-.44,0-8.87-8.7-18.45-8.7-18.45s-8.69,9.58-8.69,18.45c0,.16,0,.3,0,.44v0l0,.38a1.1,1.1,0,0,1,0,.18s0,.09,0,.14a8.69,8.69,0,0,0,17.23,0C382.37,513.91,382.37,513.87,382.38,513.82Z"/><path class="cls-54" d="M407.85,489.71a1.1,1.1,0,0,0,0-.18c0-.13,0-.25,0-.38v0c0-.14,0-.29,0-.44,0-8.87-8.7-18.46-8.7-18.46s-8.7,9.59-8.7,18.46c0,.15,0,.3,0,.44v0a2.43,2.43,0,0,0,0,.38,1.1,1.1,0,0,0,0,.18c0,.05,0,.09,0,.14a8.69,8.69,0,0,0,17.23,0A.68.68,0,0,0,407.85,489.71Z"/><path class="cls-54" d="M356.74,499.29l0-.18c0-.13,0-.25,0-.38v0c0-.14,0-.29,0-.44,0-8.87-8.7-18.46-8.7-18.46s-8.69,9.59-8.69,18.46c0,.15,0,.3,0,.44v0l0,.38a1.1,1.1,0,0,0,0,.18s0,.09,0,.14a8.69,8.69,0,0,0,17.23,0C356.73,499.38,356.74,499.34,356.74,499.29Z"/><text class="cls-45" transform="translate(899.49 314.05)">H</text><text class="cls-45" transform="translate(925.5 326.44) scale(0.58)">2</text><text class="cls-45" transform="translate(937.54 314.05)"><tspan class="cls-55">S</tspan><tspan x="20.2" y="0">O</tspan></text><text class="cls-45" transform="translate(988.29 326.44) scale(0.58)">4</text><text class="cls-46" transform="translate(830.29 316.03)">+</text><text class="cls-47" transform="translate(881.42 383.9)">sulfuric acid</text><path class="cls-56" d="M155.28,477.15l-6.2.61-11.43,1.13-5,.49-2.42.24s-14.09.77-15.21,1.5-5.93,28.64-6.19,29.61c-.53,2,1,2.15,1,2.15l66.05,4.32,8.06-38.28"/><polyline class="cls-56" points="155.28 477.15 227.91 474.41 183.94 482.46"/><path class="cls-38" d="M232,478.63c-.82-2.46-3.17-4.31-5.22-4.11l-8.42.83-4.36.43-7.7.76-4.47.44-6.15.6-8.89.88a6.84,6.84,0,0,0-5.66,5.07L175,512.92a3.27,3.27,0,0,0,3.73,4.16l19.05-1.88,6.15-.6,4.47-.44,7.7-.76,4.36-.43,9.38-.92,8.23-.81a3.59,3.59,0,0,0,3.19-4.93Z"/><path class="cls-57" d="M232,478.63c-.82-2.46-3.17-4.31-5.22-4.11l-8.42.83-4.36.43-7.7.76-4.47.44-6.15.6-8.89.88a6.84,6.84,0,0,0-5.66,5.07L175,512.92a3.27,3.27,0,0,0,3.73,4.16l19.05-1.88,6.15-.6,4.47-.44,7.7-.76,4.36-.43,9.38-.92,8.23-.81a3.59,3.59,0,0,0,3.19-4.93Z"/><line class="cls-56" x1="183.46" y1="479.15" x2="115.02" y2="481.12"/><text class="cls-45" transform="translate(691.08 314.05)"><tspan class="cls-50">F</tspan><tspan x="16.56" y="0">e</tspan></text><text class="cls-45" transform="translate(728.37 326.44) scale(0.58)">2</text><text class="cls-45" transform="translate(740.4 314.05)">O</text><text class="cls-45" transform="translate(770.95 326.44) scale(0.58)">3</text><text class="cls-47" transform="translate(679.87 383.9)">i<tspan class="cls-49" x="6.36" y="0">r</tspan><tspan x="13.51" y="0">on </tspan><tspan class="cls-52" x="49.75" y="0">o</tspan><tspan x="63.86" y="0">xide</tspan></text><path class="cls-56" d="M722.72,477.15l-6.2.61-11.43,1.13-5,.49-2.42.24s-14.09.77-15.21,1.5-5.93,28.64-6.19,29.61c-.53,2,1,2.15,1,2.15l67.28,4.4,6.83-38.36"/><polyline class="cls-56" points="722.72 477.15 795.35 474.41 751.38 482.46"/><path class="cls-38" d="M799.45,478.63c-.82-2.46-3.17-4.31-5.22-4.11l-8.42.83-4.36.43-7.7.76-4.47.44-6.15.6-8.89.88a6.84,6.84,0,0,0-5.66,5.07l-6.14,29.39a3.27,3.27,0,0,0,3.73,4.16l19.05-1.88,6.15-.6,4.47-.44,7.7-.76,4.36-.43,9.38-.92,8.23-.81a3.59,3.59,0,0,0,3.19-4.93Z"/><path class="cls-57" d="M799.45,478.63c-.82-2.46-3.17-4.31-5.22-4.11l-8.42.83-4.36.43-7.7.76-4.47.44-6.15.6-8.89.88a6.84,6.84,0,0,0-5.66,5.07l-6.14,29.39a3.27,3.27,0,0,0,3.73,4.16l19.05-1.88,6.15-.6,4.47-.44,7.7-.76,4.36-.43,9.38-.92,8.23-.81a3.59,3.59,0,0,0,3.19-4.93Z"/><line class="cls-56" x1="751.87" y1="479.12" x2="682.46" y2="481.12"/><path class="cls-58" d="M702,485.68a3.65,3.65,0,0,1,.12,2.66c-.34,1-1.4,1.58-2,2.45a3.28,3.28,0,0,0,2.26,4.88l.22,5.2,6.72-.79a22.82,22.82,0,0,0,5.32-1.06c1.86-.7,3.61-1.9,5.59-1.9s4.06,2.16,3,3.84a15.88,15.88,0,0,0,11.71-10.3c.58-1.74.94-3.7,2.34-4.88s4.24-.53,4.11,1.29a4.37,4.37,0,0,1,4.92-5.15c.31-.63,0-2.25.18-2.8.65-1.65,4.9-1.43-.79-2a48.4,48.4,0,0,0-11.87,1.14c-3.48.93-7.15.76-10.74.59l-6.17-.3c-3.14-.14-4.51-.14-6.15.7-1.17.61-6.19.72-7.48,1.24C701.46,481.25,700.92,483.47,702,485.68Z"/><circle class="cls-59" cx="939.25" cy="494.65" r="28.64"/><text class="cls-60" transform="translate(930.03 507.92)">S</text><circle class="cls-61" cx="986.42" cy="522.94" r="12.57"/><text class="cls-4" transform="translate(980.18 527.59)">O</text><text class="cls-4" transform="translate(991 523.23) scale(0.58)">-</text><circle class="cls-61" cx="970.33" cy="449.36" r="12.57"/><text class="cls-4" transform="translate(964.05 454.05)">O</text><text class="cls-4" transform="translate(974.87 449.7) scale(0.58)">-</text><line class="cls-2" x1="956.23" y1="471.77" x2="963.14" y2="459.81"/><line class="cls-2" x1="958.55" y1="429.59" x2="963.78" y2="438.67"/><circle class="cls-3" cx="952.72" cy="418.58" r="12.57"/><text class="cls-4" transform="matrix(-0.58, 0, 0, 0.58, 960.41, 418.44)">+</text><text class="cls-4" transform="matrix(-1, 0, 0, 1, 956.9, 422.8)">H</text><circle class="cls-61" cx="892.51" cy="465.45" r="12.57"/><text class="cls-4" transform="translate(886.28 469.71)">O</text><text class="cls-4" transform="translate(897.1 465.36) scale(0.58)">-</text><line class="cls-2" x1="916" y1="477.68" x2="904.03" y2="470.77"/><line class="cls-2" x1="914.51" y1="480.26" x2="902.54" y2="473.36"/><line class="cls-2" x1="925.52" y1="519.92" x2="918.62" y2="531.89"/><line class="cls-2" x1="976.12" y1="515.6" x2="964.15" y2="508.69"/><line class="cls-2" x1="974.62" y1="518.18" x2="962.66" y2="511.28"/><text class="cls-62" transform="matrix(1, 0.04, -0.04, 1, 127.29, 501.02)"><tspan class="cls-63">f</tspan><tspan x="3.61" y="0">ool</tspan><tspan class="cls-64" x="22.51" y="0">’</tspan><tspan x="24.22" y="0">s</tspan></text><text class="cls-65" transform="translate(194 501.59) rotate(-4.04)">gold</text><path class="cls-66" d="M226.18,472s-.7,7.75-6.42,8.65c0,0,6.92.51,6.62,9.66,0,0-.9-9.15,4.83-10.06C231.21,480.21,226.38,479.71,226.18,472Z"/><path class="cls-66" d="M237.63,462.81s-.7,7.74-6.42,8.65c0,0,6.92.5,6.62,9.66,0,0-.9-9.16,4.83-10.06C242.66,471.06,237.83,470.55,237.63,462.81Z"/><path class="cls-67" d="M220.34,455.17s-.58,6.47-5.36,7.22c0,0,5.78.42,5.52,8.06,0,0-.74-7.64,4-8.39C224.53,462.06,220.5,461.64,220.34,455.17Z"/><circle class="cls-37" cx="508.18" cy="490.31" r="21.46"/><circle class="cls-37" cx="569.38" cy="490.31" r="21.46"/><circle class="cls-68" cx="508.18" cy="490.31" r="21.46"/><text class="cls-69" transform="translate(498.36 499.34)">O</text><text class="cls-69" transform="translate(516.67 491.91) scale(0.58)">-</text><circle class="cls-68" cx="569.38" cy="490.31" r="21.46"/><text class="cls-69" transform="translate(559.56 499.34)">O</text><text class="cls-69" transform="translate(577.88 491.91) scale(0.58)">-</text><line class="cls-70" x1="529.64" y1="488.71" x2="547.93" y2="488.71"/><line class="cls-70" x1="529.64" y1="492.71" x2="547.93" y2="492.71"/><circle class="cls-61" cx="912.02" cy="542.63" r="12.57"/><text class="cls-4" transform="translate(906.36 547.31)">O</text><text class="cls-4" transform="translate(917.17 542.96) scale(0.58)">-</text></g></g></svg>