<svg xmlns="http://www.w3.org/2000/svg" xmlns:xlink="http://www.w3.org/1999/xlink" viewBox="0 0 1174.46 773.85"><defs><style>.cls-1{fill:#5d5152;}.cls-2{fill:#c1ac93;}.cls-3{fill:#dbcbba;}.cls-4{fill:#2e61a2;}.cls-5{fill:url(#linear-gradient);}.cls-6{fill:url(#linear-gradient-2);}.cls-7{fill:url(#radial-gradient);}.cls-8{fill:#736357;}.cls-9{fill:#3daaa1;}.cls-10{fill:url(#linear-gradient-3);}.cls-11,.cls-25,.cls-32,.cls-35,.cls-44,.cls-46,.cls-51{fill:none;}.cls-11,.cls-25,.cls-35,.cls-46,.cls-51{stroke:#034768;}.cls-11,.cls-25,.cls-35,.cls-43,.cls-44,.cls-46,.cls-51{stroke-linecap:round;stroke-linejoin:round;}.cls-11{stroke-width:2.51px;}.cls-12{font-size:30.61px;}.cls-12,.cls-47{fill:#ec6b7c;}.cls-12,.cls-14,.cls-20,.cls-47,.cls-48{font-family:Acre-Light, Acre;font-weight:300;}.cls-13{letter-spacing:-0.03em;}.cls-14,.cls-20{font-size:23.7px;}.cls-14,.cls-26,.cls-27,.cls-48{fill:#5e5252;}.cls-15{letter-spacing:-0.02em;}.cls-16{letter-spacing:-0.01em;}.cls-17{fill:url(#radial-gradient-2);}.cls-18{fill:#ffcf01;}.cls-19{fill:#3fa85a;}.cls-20,.cls-24{fill:#fff;}.cls-21{letter-spacing:-0.02em;}.cls-22,.cls-34{fill:#5c5052;}.cls-23{fill:#ececec;}.cls-25{stroke-width:1.91px;}.cls-27{fill-opacity:0.65;stroke:#5e5252;stroke-width:0.24px;}.cls-27,.cls-29,.cls-30,.cls-34{stroke-miterlimit:10;}.cls-28{fill:#df6572;}.cls-29,.cls-30{fill:#ec6a7c;stroke:#ec6a7c;}.cls-29{stroke-width:0.25px;}.cls-30{stroke-width:0.31px;}.cls-31{letter-spacing:-0.02em;}.cls-33{fill:#c4f1ff;}.cls-34{stroke:#ffcf01;stroke-width:0.19px;}.cls-35{stroke-width:2.81px;}.cls-36{letter-spacing:0em;}.cls-37{fill:url(#linear-gradient-4);}.cls-38{fill:url(#linear-gradient-5);}.cls-39{fill:#3eaca2;}.cls-40{fill:url(#linear-gradient-6);}.cls-41{fill:url(#linear-gradient-7);}.cls-42{fill:url(#radial-gradient-3);}.cls-43,.cls-44{stroke:#0071b6;stroke-width:2.88px;}.cls-45{fill:url(#linear-gradient-8);}.cls-46{stroke-width:3.17px;}.cls-47{font-size:30.56px;}.cls-48{font-size:23.74px;}.cls-49{letter-spacing:0em;}.cls-50{letter-spacing:0em;}.cls-51{stroke-width:2.45px;}</style><linearGradient id="linear-gradient" x1="609.77" y1="693.64" x2="609.77" y2="552.15" gradientUnits="userSpaceOnUse"><stop offset="0" stop-color="#2e61a1"/><stop offset="1" stop-color="#c4f1ff"/></linearGradient><linearGradient id="linear-gradient-2" x1="570.83" y1="501.62" x2="584.69" y2="427.22" gradientUnits="userSpaceOnUse"><stop offset="0" stop-color="#e1ffff"/><stop offset="1" stop-color="#a4e5ff"/></linearGradient><radialGradient id="radial-gradient" cx="475.86" cy="391.12" r="348.61" gradientTransform="translate(0.24) scale(1.11 1)" gradientUnits="userSpaceOnUse"><stop offset="0" stop-color="#ffe49b"/><stop offset="1" stop-color="#ffcf01"/></radialGradient><linearGradient id="linear-gradient-3" x1="168.36" y1="496.14" x2="313.39" y2="408.58" gradientUnits="userSpaceOnUse"><stop offset="0" stop-color="#fff"/><stop offset="1" stop-color="#c4f1ff"/></linearGradient><radialGradient id="radial-gradient-2" cx="307.26" cy="443.98" r="83.59" gradientTransform="translate(0.24) scale(1.11 1)" gradientUnits="userSpaceOnUse"><stop offset="0" stop-color="#ffe49b"/><stop offset="1" stop-color="#ffd578"/></radialGradient><linearGradient id="linear-gradient-4" x1="465.36" y1="365.17" x2="509.69" y2="365.17" xlink:href="#linear-gradient-3"/><linearGradient id="linear-gradient-5" x1="597.61" y1="330.34" x2="597.61" y2="377.47" xlink:href="#linear-gradient-3"/><linearGradient id="linear-gradient-6" x1="751.88" y1="-599.57" x2="779.17" y2="-599.57" gradientTransform="matrix(0.98, -0.18, 0.18, 0.98, -102.46, 1048.37)" xlink:href="#linear-gradient-3"/><linearGradient id="linear-gradient-7" x1="10632.78" y1="1260.15" x2="10660.07" y2="1260.15" gradientTransform="matrix(-0.98, -0.18, -0.18, 0.98, 11190.12, 1048.37)" xlink:href="#linear-gradient-3"/><radialGradient id="radial-gradient-3" cx="828.39" cy="515.04" r="153.49" xlink:href="#radial-gradient-2"/><linearGradient id="linear-gradient-8" x1="1302.82" y1="-1693.91" x2="1330.17" y2="-1693.91" gradientTransform="translate(48.34 2431.23) rotate(-24.66)" xlink:href="#linear-gradient-3"/></defs><g id="Layer_2" data-name="Layer 2"><g id="Parent_Material" data-name="Parent Material"><g id="Layer_48" data-name="Layer 48"><polygon class="cls-1" points="697.5 773.85 0.2 595.08 0.2 560.54 141.47 570.61 180.88 600.23 340.72 629.86 432.13 669.86 697.5 725.65 697.5 773.85"/><polygon class="cls-1" points="697.5 675.15 0.2 496.38 0.2 385.29 301.76 462.61 697.5 564.07 697.5 675.15"/><polygon class="cls-1" points="1174.46 617.07 1064.7 622.95 807.69 711.03 697.29 725.65 697.29 773.85 1174.46 651.6 1174.46 617.07"/><polygon class="cls-2" points="1174.46 441.82 697.29 564.07 697.29 675.15 1174.46 552.9 1174.46 441.82"/><polygon class="cls-2" points="697.5 739.31 0.2 560.54 0.2 496.38 697.5 675.15 697.5 739.31"/><polygon class="cls-3" points="1174.46 552.9 697.29 675.15 697.29 739.31 1174.46 617.07 1174.46 552.9"/></g><g id="Layer_47" data-name="Layer 47"><path class="cls-4" d="M697.29,564.07V707.23L970,637.37c16.69-4.27,28.2-18,28.2-33.67h0c0-15.65,11.52-29.39,28.21-33.67l148.08-37.94V441.82Z"/><path class="cls-5" d="M522.24,519.19v23.6c0,8.14,6,15.29,14.67,17.52h0c8.68,2.22,14.66,9.37,14.66,17.51v20c0,16.28,12,30.58,29.33,35l27.39,7c14,3.6,23.73,15.16,23.73,28.33h0c0,13.16,9.68,24.73,23.72,28.33l41.55,10.65V564.07Z"/><polygon class="cls-6" points="477.17 263.05 1030.78 404.98 1174.46 441.82 697.29 564.07 0 385.29 477.17 263.05"/></g><g id="Layer_49" data-name="Layer 49"><path class="cls-7" d="M1030.78,395.6l-24.74,3L878.4,365.91,477.17,263.05,0,385.29l522.24,133.9,64.1-16.42a121.13,121.13,0,0,1,59.93,0l7.34,1.88a121,121,0,0,0,59.94,0l17.13-4.39c9.07-2.32,13.1-9.78,12.12-16.68v-9.4l-1.66,4.43A16.21,16.21,0,0,0,730.68,471c-4.78-1.22-4.78-7.33,0-8.56L746,458.49h0a6,6,0,0,0,4.71-5.63v-6.81L746,447v-2.47l9.75-5.65,6.16-2.5.95,3.59,14.52-3.72a112.39,112.39,0,0,0,55.56,0l36.62-9.38a78.56,78.56,0,0,1,38.42.11,76.74,76.74,0,0,0,28,1.71h0c1-.13,2-.28,3-.44l116.57-16.88Z"/></g><g id="Layer_62" data-name="Layer 62"><polygon class="cls-8" points="145.42 422.58 130.84 409.45 89.81 365.94 0 375.91 0 385.29 69.56 425.93 145.42 422.58"/></g><g id="Layer_53" data-name="Layer 53"><path class="cls-9" d="M878.6,356.53,477.37,253.66l-154.56,39.6L.21,375.91h0A175.71,175.71,0,0,1,100,393.58L131,409.45,206,395.59a101.28,101.28,0,0,1,44.72,2,95.52,95.52,0,0,0,48.74.25l4.22-1.09a134.57,134.57,0,0,1,66.95-.09l17.88,4.59,81.88-14.75,4-1.2,3.26-1,1.63-.49,1.33-.45a21.74,21.74,0,0,0,9-6.21,18.68,18.68,0,0,0,4.37-9.7l.09-.67.1-.9c.09-.61.19-1.23.34-1.83a17.43,17.43,0,0,1,1.24-3.53,18.35,18.35,0,0,1,2-3.22c.37-.5.8-1,1.21-1.45l1.1-1.19,17.67-19.13L522,330.8l.51-.56,0,0a2.79,2.79,0,0,0,.24-.45,3.54,3.54,0,0,0-.78-3.85,4.29,4.29,0,0,0-.88-.68,4.06,4.06,0,0,0-.51-.26c-.18-.07-.34-.14-.66-.24l-3.37-1.1-3.36-1.09-1.68-.55-.85-.28a5.94,5.94,0,0,1-1.26-.58,4.58,4.58,0,0,1-1.77-2,4.23,4.23,0,0,1-.27-2.5,4.3,4.3,0,0,1,1.27-2.25,5.23,5.23,0,0,1,1.1-.78l.62-.27.44-.15,6.7-2.27,53.61-18.16-52.45,20.73-6.56,2.6-.38.15-.19.1a1.56,1.56,0,0,0-.28.23,1.13,1.13,0,0,0-.27.61,1.09,1.09,0,0,0,.58,1.1,1.86,1.86,0,0,0,.34.13l.86.23,1.71.47L518,320l3.42.93c.25.06.65.19,1,.32a7.35,7.35,0,0,1,1.08.47,9.37,9.37,0,0,1,1.91,1.31,7.63,7.63,0,0,1,2.17,8.16,6,6,0,0,1-.46,1,5.77,5.77,0,0,1-.6,1l-.33.45-.27.33-.53.65-2.11,2.61-8.44,10.43-4.22,5.21-.53.65c-.15.2-.21.32-.33.48l-.16.22-.11.24a4.23,4.23,0,0,0-.23.48,4.76,4.76,0,0,0-.33,2,4.54,4.54,0,0,0,.51,2,4.87,4.87,0,0,0,1.25,1.63,5.38,5.38,0,0,0,1.79,1.06,3.8,3.8,0,0,0,.51.16c.2,0,.28.09.63.16l1.73.4,27.76,6.33L557,371.84l3.47.79a21.84,21.84,0,0,1,4.47,1.6,19.3,19.3,0,0,1,7.11,5.86,17.88,17.88,0,0,1,2.2,3.93,17.63,17.63,0,0,1,.69,2.13l.07.27.06.17.1.33.21.65a15.85,15.85,0,0,0,.92,2.58,18.09,18.09,0,0,0,1.21,2.46,26.08,26.08,0,0,0,7.36,8.25,29.73,29.73,0,0,0,10.3,4.84,30.67,30.67,0,0,0,11.4.68c.94-.18,1.88-.28,2.81-.49l2.75-.75,6.75-2.15,13.5-4.29.42-.14.51-.15,1.05-.3c.7-.19,1.4-.37,2.11-.53,1.42-.31,2.85-.58,4.3-.76a46.9,46.9,0,0,1,8.79-.3,47.4,47.4,0,0,1,8.7,1.33c.72.17,1.42.39,2.12.59l1.71.5,115.47,27.87a112.31,112.31,0,0,0,55.57,0l36.26-9.29a78,78,0,0,1,38.46-.06,76.79,76.79,0,0,0,37.89,0L1031,395.6Z"/><polygon class="cls-8" points="522.24 519.19 481.08 499.25 439.86 459.01 332.55 461.17 301.56 462.61 401.82 509.11 522.24 519.19"/></g><g id="Layer_61" data-name="Layer 61"><path class="cls-4" d="M237.6,506.19l-38-9.75c-32-8.21-54.14-34.61-54.14-64.66v-9.2l156.14,40h0C301.56,492.68,269.67,514.42,237.6,506.19Z"/><path class="cls-10" d="M303.43,406.17l-4.22,1.09a95.56,95.56,0,0,1-47.57.06h0a95.56,95.56,0,0,0-47.57.06l-58.65,15.2,156.14,40L417.8,432.49c7.94-2.06,7.93-12.22,0-14.26l-8-2.06-39.34-10.09A134.61,134.61,0,0,0,303.43,406.17Z"/><line class="cls-11" x1="57.05" y1="254.56" x2="211.59" y2="428.9"/><text class="cls-12" transform="matrix(1.06, 0.26, -0.29, 0.96, 190.44, 472.04)">la<tspan class="cls-13" x="25.8" y="0">k</tspan><tspan x="39.51" y="0">e</tspan></text><text class="cls-14" transform="translate(11.93 230.8)">lacu<tspan class="cls-15" x="46" y="0">s</tspan><tspan x="55.27" y="0">tri</tspan><tspan class="cls-16" x="74.99" y="0">n</tspan><tspan x="88.14" y="0">e</tspan></text></g><g id="Layer_60" data-name="Layer 60"><path class="cls-17" d="M384.65,416l6.53,7.3-40.6,14.44a6.3,6.3,0,0,1-5.28-.48l-23.71-14a1.25,1.25,0,0,1-.28-2l5.53-5.51Z"/><path class="cls-18" d="M374.94,413.33l-45.58,1.45c-3.7.12-5,4.48-1.89,6.27L344.74,431a4.13,4.13,0,0,0,3.23.36l34.56-10.46c3.74-1.13,3.29-6-.6-6.58l-6.26-.91A4.47,4.47,0,0,0,374.94,413.33Z"/></g><g id="Layer_50" data-name="Layer 50"><path class="cls-19" d="M730.68,461.58a4.35,4.35,0,0,1,0-8.56l18.09-4.64a2.3,2.3,0,0,0,.18-4.49l-89.43-29.56-3.34-1.18-1.66-.58c-.43-.14-.85-.3-1.28-.43a28.71,28.71,0,0,0-5.32-1.1,29.7,29.7,0,0,0-5.5-.09c-.92.07-1.83.19-2.74.34l-1.36.27-.67.16-.34.08-.43.11-13.74,3.64-6.87,1.82c-1.35.31-2.77.61-4.16.9s-2.84.37-4.26.54A45.31,45.31,0,0,1,591,417a42.33,42.33,0,0,1-14.46-7.72A36.76,36.76,0,0,1,566.81,397a27,27,0,0,1-1.47-3.52,24.19,24.19,0,0,1-1.06-3.62l-.41-1.7c-.06-.34-.15-.66-.24-1a8.47,8.47,0,0,0-.9-1.87,8.87,8.87,0,0,0-3.16-2.94,10.72,10.72,0,0,0-2.11-.9l-3.41-1-13.67-3.84L513,369l-1.71-.48c-.24-.06-.71-.22-1.07-.34a8,8,0,0,1-1.15-.44,12.6,12.6,0,0,1-4-2.69,11,11,0,0,1-2.54-3.79c0-.07,0-.15-.08-.22a13,13,0,0,0-1.64,6.94,24.93,24.93,0,0,1-4.8,13.44,29.87,29.87,0,0,1-11.9,9.55l-1.84.76-1.6.61-3.18,1.21L423.49,414.1c1,3.58-.9,7.77-5.69,9l-85.25,38.06L377.78,463c35.08,1.45,68.84,12.51,96.76,31.71l6.54,4.5L583.17,489a187.75,187.75,0,0,1,65.21,4.91l5.23,1.34a121.17,121.17,0,0,0,59.94,0l17.13-4.39C747,486.7,747,465.78,730.68,461.58Z"/><text class="cls-20" transform="translate(483.61 451.77)">o<tspan class="cls-21" x="14.27" y="0">r</tspan><tspan x="21" y="0">ganic</tspan></text></g><g id="Layer_58" data-name="Layer 58"><polygon class="cls-22" points="516.34 237.27 571.76 166.69 640.52 246.3 561.44 271.1 516.34 237.27"/></g><g id="Layer_65" data-name="Layer 65"><polygon class="cls-9" points="482.48 91.36 342.66 280.59 482.48 316.44 630.94 278.4 482.48 91.36"/><polygon class="cls-9" points="482.48 91.36 482.48 316.44 630.94 278.4 482.48 91.36"/><polygon class="cls-23" points="427.2 166.18 447.05 162.52 456.02 174.28 473.95 169.87 482.48 184.82 482.48 91.36 427.2 166.18"/><polygon class="cls-24" points="542.57 167.07 517.91 162.52 508.95 174.28 491.01 169.87 482.48 184.82 482.48 91.36 542.57 167.07"/><line class="cls-25" x1="361.51" y1="60.09" x2="447.95" y2="123.09"/><text class="cls-14" transform="translate(278.61 51.77)">glacial</text></g><g id="Layer_57" data-name="Layer 57"><polygon class="cls-9" points="342.94 224.74 285.98 301.83 342.94 316.44 403.42 300.94 342.94 224.74"/><polygon class="cls-9" points="342.94 224.74 342.94 316.44 403.42 300.94 342.94 224.74"/><polygon class="cls-22" points="421.84 223.08 336.25 338.92 421.84 360.86 512.72 337.58 421.84 223.08"/><polygon class="cls-22" points="421.84 223.08 421.84 360.86 512.72 337.58 421.84 223.08"/><polygon class="cls-23" points="389.97 266.42 401.64 264.27 406.91 271.19 417.44 268.59 422.46 277.38 422.46 222.46 389.97 266.42"/><polygon class="cls-24" points="457.77 266.94 443.28 264.27 438.01 271.19 427.47 268.59 422.46 277.38 422.46 222.46 457.77 266.94"/><polygon class="cls-9" points="451.13 350.02 480.29 355.65 427.76 381.93 344.7 358.11 421.84 309.56 451.13 350.02"/><polygon class="cls-26" points="451.13 350.02 427.76 381.93 421.84 309.56 451.13 350.02"/></g><g id="Layer_56" data-name="Layer 56"><path class="cls-22" d="M645.61,182.85l-1-.52a2,2,0,0,0-2.52.52L547.73,310.43a1.64,1.64,0,0,0,1,2.57l47.6,12.21L646,337.92a2.2,2.2,0,0,0,1,0l52.66-13.49,50.61-13a1.64,1.64,0,0,0,1-2.62L651.16,182.75a2,2,0,0,0-2.45-.5l-1.23.62A2,2,0,0,1,645.61,182.85Z"/><path class="cls-27" d="M642.39,181.76a17.18,17.18,0,0,0-3.41-9,14.46,14.46,0,0,1-2-3.07c-.56-1.45-.36-3-.77-4.54-.75-2.69-3.31-4.58-5.26-6.72s-3.32-5.35-1.5-7.57a23.85,23.85,0,0,0,1.92-2c.89-1.42.29-3.2.54-4.81s1.32-3,1.47-4.56c.28-3.1-2.91-5.43-5.63-7.34a24.32,24.32,0,0,1-7.13-6.93c-1.68-2.79-2.24-6.28-.72-9.15,2.89-5.46-4.08-12.06-1.12-17.49,2.36-4.33,8.87-6.49,9.64-11.27,1.09-6.72-9.53-14.84-16.11-15.7-4.55-.6-9.29,0-13.71-1.21-5.53-1.47-9.8-5.45-15.05-7.59a24.61,24.61,0,0,0-20.14.9c-2.25,1.18-4.33,2.74-6.86,3.29-3,.67-6.22-.24-9.19-1.14-6.6-2-13.56-4.19-18-9-7.08-7.68-5.36-19-2.67-28.73,1.45-5.22,3.17-10.58,7-14.71,6.36-6.89,19-6.84,27.51-3.31,3.09,1.29,6.26,3.21,9.6,2.58,3.62-.68,6-4.17,9.61-4.8,5.09-.89,10,4.19,14.91,2.72,3.41-1,4.82-4.65,7.57-6.75,3.52-2.7,8.67-2.51,13.28-2.18C621,2,626,.35,630.94.14c2.15-.09,4.65,0,6,1.55a15.36,15.36,0,0,1,2.94,3.93c.79,1.83.93,3.87,2.3,5.47a7.94,7.94,0,0,0,5.73,2.37c4.19.14,8-1.89,11.92-3.33a44.37,44.37,0,0,1,22.94-2c4.15.74,8.14,2.06,12.27,2.84a30.55,30.55,0,0,0,6.55.61c2-.06,4.16-.88,6.15-.49s3,1.62,5.19,1.52a11.66,11.66,0,0,0,5.81-2.38,40.29,40.29,0,0,0,3.72-3.55c5.44-5,15.34-5.23,21.05-.48,1.83,1.53,3.24,3.46,5.14,4.92,11.3,8.73,17.46,17.26,14.58,31.66-1,4.91-2.11,10-5.55,13.94-2.8,3.18-6.86,5.23-11,6.9-14.62,5.94-30.62,7.74-46.33,9.86-5.16.7-16.84.41-21,3.13-4.79,3.12-3.7,8.2-5,13a28.07,28.07,0,0,1-7.38,12.66c-1.47,1.45-3.18,2.87-3.69,4.78-.87,3.24,2,6.32,2.4,9.63.68,5.54-5.58,10.72-3.81,16.07,1.08,3.25,4.64,5,6.15,8a13.09,13.09,0,0,1,.39,10.44c-1.33,3.18-3.83,5.83-6.41,8.3-3.88,3.7-6.5,8-5.71,13.27.24,1.57-1.11,3-2.34,4.17s-2.59,2.33-2.84,3.9a12.18,12.18,0,0,0-.17,2.25,4.84,4.84,0,0,1-3,1.21,15.34,15.34,0,0,1-3.24-.25,3.51,3.51,0,0,1-1.7-.57A2.18,2.18,0,0,1,642.39,181.76Z"/><path class="cls-28" d="M648.68,173.25a2.29,2.29,0,0,0-1.85,1.21.62.62,0,0,0-.05.53c.13.26.51.32.83.35l2,.14a2.58,2.58,0,0,0,.2-1.44,1.07,1.07,0,0,0-1.16-.81"/><path class="cls-28" d="M642.67,168.74a1.84,1.84,0,0,0-1.11,1.65,1.17,1.17,0,0,0,.67.82,1.34,1.34,0,0,0,1,.11.63.63,0,0,0,.42-.51,1.61,1.61,0,0,0,.06-.87c.34-.05.75-.14.9-.45a.37.37,0,0,0,0-.25.44.44,0,0,0-.2-.25A1.72,1.72,0,0,0,642.67,168.74Z"/><path class="cls-28" d="M648.86,168.47a1.25,1.25,0,0,0,.7.54,1.43,1.43,0,0,0,1-.27,10.62,10.62,0,0,0,.94-.67c.18-.15.37-.37.28-.58s-.52-.23-.82-.3c-.48-.1-.78-.52-1.14-.82a5.81,5.81,0,0,0-1.28-.75,1.46,1.46,0,0,0-.5-.16c-1.34-.14-.61.7-.28,1.19S648.44,167.89,648.86,168.47Z"/><path class="cls-28" d="M624.93,124.26a1.23,1.23,0,0,0,.52.78,1.57,1.57,0,0,0,1.15,0,9,9,0,0,0,1.24-.4c.25-.1.53-.26.51-.5s-.44-.41-.73-.57c-.46-.27-.61-.79-.87-1.23a5.74,5.74,0,0,0-1-1.17,1.5,1.5,0,0,0-.46-.33c-1.34-.57-.91.53-.75,1.15S624.72,123.52,624.93,124.26Z"/><path class="cls-28" d="M642.88,161.61c-.41.21-.83.55-.81,1a1.29,1.29,0,0,0,.24.57l.33.53c.07.1.15.22.28.24l.18,0,.46-.1a1.15,1.15,0,0,0,.45-.16.33.33,0,0,0,.15-.39c0-.07-.1-.13-.13-.21a.37.37,0,0,1,.14-.37,1.26,1.26,0,0,0,.3-.31.75.75,0,0,0-.09-.63,3.73,3.73,0,0,0-.42-.82A3.9,3.9,0,0,1,642.88,161.61Z"/><path class="cls-28" d="M636,157.75c.37.46.86.83,1.22,1.28a6,6,0,0,1,1,2.4l.68-.07a7,7,0,0,1,.48-2.79,1.12,1.12,0,0,0,.1-.39,1,1,0,0,0-.13-.36l-.78-1.57a1.64,1.64,0,0,0-.66-.81c-.37-.19-.86-.13-1.22-.34C634.85,154.05,635.33,156.93,636,157.75Z"/><path class="cls-28" d="M651.82,158.34a3.54,3.54,0,0,0-.54,2.07,1.18,1.18,0,0,0,.13.52,1.56,1.56,0,0,0,.47.45l1,.75a1.54,1.54,0,0,0,.69.34,1,1,0,0,0,1-.78,2.33,2.33,0,0,0-.24-1.26,1.22,1.22,0,0,1-.09-1c.38-.75,1.73-.36,2.47-.85a1.22,1.22,0,0,0,.47-1.25,3.75,3.75,0,0,0-.62-1.27l-.75-1.14a1.28,1.28,0,0,0-.59-.56A31.38,31.38,0,0,0,651.82,158.34Z"/><path class="cls-28" d="M644.73,154a2.37,2.37,0,0,0,2.32,1.92,1.52,1.52,0,0,0,.79-.16,1.9,1.9,0,0,0,.64-.65l.78-1.08a.35.35,0,0,0,.09-.23c0-.13-.15-.21-.27-.28a1.57,1.57,0,0,1-.74-1.08,2.92,2.92,0,0,0-.15-1.07,1.67,1.67,0,0,0-.6-.58l-.84-.57a1.92,1.92,0,0,0-.69-.33c-.82-.15-.57,1.23-.74,1.75A5.64,5.64,0,0,0,644.73,154Z"/><path class="cls-28" d="M647.69,124.34a2.49,2.49,0,0,0,2.66,1.53,1.64,1.64,0,0,0,.75-.29,1.84,1.84,0,0,0,.5-.75l.55-1.18a.35.35,0,0,0,.05-.24c0-.13-.19-.18-.32-.24a1.63,1.63,0,0,1-1-.94,3.22,3.22,0,0,0-.35-1,1.84,1.84,0,0,0-.71-.47l-.94-.42a1.81,1.81,0,0,0-.74-.22c-.84,0-.32,1.3-.39,1.84A5.46,5.46,0,0,0,647.69,124.34Z"/><path class="cls-28" d="M651.85,148.92c0-.13-.09-.26-.13-.4s-.14-.29-.1-.42a.55.55,0,0,1,.13-.17l.14-.14a1.48,1.48,0,0,1,.29-.27.48.48,0,0,1,.19-.09,1.2,1.2,0,0,1,.38,0,2.77,2.77,0,0,0,.76-.08c.2-.05.39-.12.59-.15a.8.8,0,0,1,.59.13.72.72,0,0,1,.22.61,2.87,2.87,0,0,1-.55,1.36,2.46,2.46,0,0,1-1.12,1,.82.82,0,0,1-.75,0,.92.92,0,0,1-.29-.43C652.08,149.54,652,149.23,651.85,148.92Z"/><path class="cls-28" d="M638,148.63a2.59,2.59,0,0,0,1.49,2.3.83.83,0,0,0,.57.1.85.85,0,0,0,.31-.17A2.42,2.42,0,0,0,641,148c-.26-.55-1.37-1.7-2.18-1.49S638,148,638,148.63Z"/><path class="cls-28" d="M639.43,136.69l-2.58.18-.1,0c-.13.07-.13.5-.15.63,0,.32-.09.65-.14,1a.35.35,0,0,0,0,.3.42.42,0,0,0,.17.11c.91.43,1.87.8,2.81,1.18a1,1,0,0,0,.33.1.36.36,0,0,0,.44-.34,6.2,6.2,0,0,0,0-1.49q-.08-.84-.18-1.68l-.71,0"/><path class="cls-29" d="M645.62,134.28a2,2,0,0,0,2,1.83c.75,0,1.65-.34,2.15.16a6.12,6.12,0,0,0,.4.49c.48.39,1.22,0,1.65-.48.28-.29.51-.63.8-.91s.47-.31.37-.63-.62-.34-1-.4-1-.18-1.44-.25q-1.44-.22-2.91-.33c-.85-.07-2,.12-2,.88"/><path class="cls-29" d="M665.13,148.81a4.09,4.09,0,0,0,.26-2.13,2.63,2.63,0,0,0-1-1.54c-.58-.44-1.34-.6-1.93-1s-1.15-1.22-2-1.15a1.06,1.06,0,0,0-.91,1.27,1.55,1.55,0,0,0,1.38,1,1.28,1.28,0,0,1,.65.16.76.76,0,0,1,.22.56c.07.7,0,1.58-.68,1.88-.47.2-1.06,0-1.52.26a1.09,1.09,0,0,0-.38,1.53,3.72,3.72,0,0,0,1.41,1.18l1.19.68a.6.6,0,0,0,.22.09c.36,0,.42-.43.6-.72s.91-.44,1.39-.66A2.35,2.35,0,0,0,665.13,148.81Z"/><path class="cls-29" d="M653,141.3a.38.38,0,0,0,.09.29.48.48,0,0,0,.23.1,3.1,3.1,0,0,0,1.88-.21,6,6,0,0,0,.85-.51.9.9,0,0,0,.34-.33.81.81,0,0,0,.07-.41v-.68a.34.34,0,0,0,0-.18.48.48,0,0,0-.22-.2,2.57,2.57,0,0,0-1.35-.21c-.54,0-1.24.12-1.54.56A3.31,3.31,0,0,0,653,141.3Z"/><path class="cls-30" d="M645.76,143.94c.18-.13.33-.3.52-.41a1.77,1.77,0,0,1,1.16,0c.41.09.82.2,1.22.32a.8.8,0,0,0,.71,0,.41.41,0,0,0,0-.54,1.37,1.37,0,0,0-.49-.39l-1.55-.89a8.17,8.17,0,0,0-1.18-.6,1.22,1.22,0,0,0-1,0,1.35,1.35,0,0,0-.32.31c-.34.42-1.57,1.61-1.26,2.15S645.32,144.24,645.76,143.94Z"/><path class="cls-30" d="M636.65,121.11a4.09,4.09,0,0,1,.53-.4,1.68,1.68,0,0,1,1.15,0c.41.09.82.19,1.23.31a.82.82,0,0,0,.7,0,.41.41,0,0,0,0-.55,1.37,1.37,0,0,0-.49-.39l-1.55-.89a9.33,9.33,0,0,0-1.18-.6,1.25,1.25,0,0,0-1,0,1,1,0,0,0-.32.31c-.34.41-1.57,1.61-1.26,2.15S636.21,121.41,636.65,121.11Z"/><path class="cls-30" d="M658.38,129c-.14.17-.33.3-.45.48a1.23,1.23,0,0,0,0,1,10.23,10.23,0,0,0,.35,1.11c.07.21.15.47,0,.64a.53.53,0,0,1-.6,0,1.21,1.21,0,0,1-.43-.44l-1-1.4a6.92,6.92,0,0,1-.66-1.06.92.92,0,0,1,0-.92,1.07,1.07,0,0,1,.34-.29c.46-.3,1.79-1.42,2.38-1.14S658.71,128.65,658.38,129Z"/><path class="cls-29" d="M639.26,128a3.79,3.79,0,0,1,1,.35,1.73,1.73,0,0,1,.37.44c.2.27.55.86,1,.74.24-.07.21-.35.24-.53l.12-.79a1.19,1.19,0,0,0,0-.42c-.11-.51-1.25-1.12-1.79-1.09S638.62,127.72,639.26,128Z"/><path class="cls-29" d="M658.93,120.45a4.23,4.23,0,0,1,1,.36,1.88,1.88,0,0,1,.37.43c.2.28.55.86,1,.74.25-.06.21-.35.24-.53l.12-.79a1.19,1.19,0,0,0,0-.42c-.11-.5-1.25-1.11-1.79-1.09S658.29,120.19,658.93,120.45Z"/><path class="cls-29" d="M630.84,129.76a.15.15,0,0,0,.06.09.74.74,0,0,0,.29.12.66.66,0,0,1,.42.36c.12.23,0,.49.07.73.07.46.56.75,1,1a.79.79,0,0,0,.29.11.29.29,0,0,0,.27-.13.37.37,0,0,0,0-.15,2.41,2.41,0,0,1,0-.6,9.32,9.32,0,0,1,.27-.9,1.05,1.05,0,0,0-.11-.9,1.63,1.63,0,0,0-.67-.44c-.37-.16-.82-.52-1.25-.31a.94.94,0,0,0-.36.38,2.07,2.07,0,0,0-.31.42A.29.29,0,0,0,630.84,129.76Z"/><path class="cls-1" d="M540.69,135.27a1.68,1.68,0,1,1-1.68-1.51A1.6,1.6,0,0,1,540.69,135.27Z"/><path class="cls-1" d="M577.82,125.08a1.68,1.68,0,1,1-1.67-1.51A1.59,1.59,0,0,1,577.82,125.08Z"/><path class="cls-1" d="M552.94,119a1.68,1.68,0,1,1-1.67-1.51A1.59,1.59,0,0,1,552.94,119Z"/><path class="cls-1" d="M561,134a1.68,1.68,0,1,1-1.67-1.51A1.59,1.59,0,0,1,561,134Z"/><path class="cls-1" d="M555.54,127.77a1.68,1.68,0,1,1-1.67-1.51A1.6,1.6,0,0,1,555.54,127.77Z"/><ellipse class="cls-1" cx="542.53" cy="144.88" rx="1.67" ry="1.51"/><path class="cls-1" d="M567.79,127a1.21,1.21,0,1,1-1.2-1.08A1.14,1.14,0,0,1,567.79,127Z"/><path class="cls-1" d="M593.67,124.39a1.21,1.21,0,1,1-1.2-1.09A1.15,1.15,0,0,1,593.67,124.39Z"/><path class="cls-1" d="M604.8,110.69a1.21,1.21,0,1,1-1.2-1.08A1.14,1.14,0,0,1,604.8,110.69Z"/><path class="cls-1" d="M607.84,118.91a1.21,1.21,0,1,1-1.2-1.08A1.14,1.14,0,0,1,607.84,118.91Z"/><path class="cls-1" d="M548.61,132.16a1.21,1.21,0,1,1-1.2-1.08A1.14,1.14,0,0,1,548.61,132.16Z"/><path class="cls-1" d="M534.16,140a1.21,1.21,0,1,1-1.2-1.09A1.15,1.15,0,0,1,534.16,140Z"/><path class="cls-1" d="M552,138.34a1.68,1.68,0,1,1-1.67-1.5A1.59,1.59,0,0,1,552,138.34Z"/><path class="cls-1" d="M567.66,146.25a1.68,1.68,0,1,1-1.67-1.51A1.59,1.59,0,0,1,567.66,146.25Z"/><path class="cls-1" d="M544.23,128.05a1.68,1.68,0,1,1-1.67-1.51A1.59,1.59,0,0,1,544.23,128.05Z"/><path class="cls-1" d="M553.52,146.25a1.68,1.68,0,1,1-1.68-1.51A1.6,1.6,0,0,1,553.52,146.25Z"/><path class="cls-1" d="M525.26,122a1.68,1.68,0,1,1-1.67-1.51A1.59,1.59,0,0,1,525.26,122Z"/><path class="cls-1" d="M535.27,124.71a1.68,1.68,0,1,1-1.67-1.5A1.59,1.59,0,0,1,535.27,124.71Z"/><ellipse class="cls-1" cx="529.43" cy="130.93" rx="1.67" ry="1.51"/><path class="cls-1" d="M545,111.76a1.68,1.68,0,1,1-1.67-1.51A1.59,1.59,0,0,1,545,111.76Z"/><path class="cls-1" d="M533.08,114.6a1.68,1.68,0,1,1-1.67-1.51A1.6,1.6,0,0,1,533.08,114.6Z"/><path class="cls-1" d="M572.6,117.91a1.68,1.68,0,1,1-1.67-1.51A1.6,1.6,0,0,1,572.6,117.91Z"/><path class="cls-1" d="M539.84,119.37a1.68,1.68,0,1,1-1.67-1.51A1.59,1.59,0,0,1,539.84,119.37Z"/><path class="cls-1" d="M553.6,111.79a1.68,1.68,0,1,1-1.67-1.5A1.59,1.59,0,0,1,553.6,111.79Z"/><path class="cls-1" d="M596.93,116.68a1.68,1.68,0,1,1-1.67-1.51A1.59,1.59,0,0,1,596.93,116.68Z"/><path class="cls-1" d="M613.13,107.55a1.68,1.68,0,1,1-1.67-1.51A1.59,1.59,0,0,1,613.13,107.55Z"/><path class="cls-1" d="M598,108.46a1.68,1.68,0,1,1-1.67-1.51A1.6,1.6,0,0,1,598,108.46Z"/><path class="cls-1" d="M588.47,110.41a1.69,1.69,0,1,1-1.68-1.5A1.6,1.6,0,0,1,588.47,110.41Z"/><ellipse class="cls-1" cx="573.14" cy="132.27" rx="1.67" ry="1.51"/><path class="cls-1" d="M570.43,139.34a1.21,1.21,0,1,1-1.2-1.08A1.14,1.14,0,0,1,570.43,139.34Z"/><path class="cls-1" d="M595.22,132.59a1.21,1.21,0,1,1-1.2-1.08A1.14,1.14,0,0,1,595.22,132.59Z"/><path class="cls-1" d="M579.51,114.8a1.21,1.21,0,1,1-1.2-1.08A1.14,1.14,0,0,1,579.51,114.8Z"/><path class="cls-1" d="M590.64,101.1a1.21,1.21,0,1,1-1.2-1.08A1.15,1.15,0,0,1,590.64,101.1Z"/><path class="cls-1" d="M576.47,101.1a1.21,1.21,0,1,1-1.2-1.08A1.15,1.15,0,0,1,576.47,101.1Z"/><ellipse class="cls-1" cx="581.89" cy="133.15" rx="1.2" ry="1.08"/><ellipse class="cls-1" cx="527.24" cy="108.5" rx="1.2" ry="1.08"/><ellipse class="cls-1" cx="559.62" cy="107.58" rx="1.2" ry="1.08"/><path class="cls-1" d="M584.76,139.45a1.21,1.21,0,1,1-1.2-1.08A1.14,1.14,0,0,1,584.76,139.45Z"/><path class="cls-1" d="M561.48,140.36a1.21,1.21,0,1,1-1.2-1.08A1.15,1.15,0,0,1,561.48,140.36Z"/><path class="cls-1" d="M586.9,117.33a1.68,1.68,0,1,1-1.67-1.5A1.59,1.59,0,0,1,586.9,117.33Z"/><path class="cls-1" d="M605.12,101.81a1.68,1.68,0,1,1-1.67-1.51A1.6,1.6,0,0,1,605.12,101.81Z"/><path class="cls-1" d="M603.27,125.24a1.68,1.68,0,1,1-1.67-1.51A1.59,1.59,0,0,1,603.27,125.24Z"/><path class="cls-1" d="M579.18,108a1.68,1.68,0,1,1-1.67-1.51A1.6,1.6,0,0,1,579.18,108Z"/><path class="cls-1" d="M521,111.2a1.68,1.68,0,1,1-1.68-1.51A1.6,1.6,0,0,1,521,111.2Z"/><path class="cls-1" d="M517.27,104a1.68,1.68,0,1,1-1.68-1.51A1.6,1.6,0,0,1,517.27,104Z"/><path class="cls-1" d="M509.67,112.06a1.21,1.21,0,1,1-1.2-1.08A1.14,1.14,0,0,1,509.67,112.06Z"/><path class="cls-1" d="M517.06,118.25a1.68,1.68,0,1,1-1.67-1.51A1.59,1.59,0,0,1,517.06,118.25Z"/><path class="cls-1" d="M507.32,103.38a1.68,1.68,0,1,1-1.67-1.5A1.59,1.59,0,0,1,507.32,103.38Z"/><path class="cls-1" d="M587.45,125.24a1.68,1.68,0,1,1-1.67-1.51A1.59,1.59,0,0,1,587.45,125.24Z"/><path class="cls-1" d="M578.43,143a1.68,1.68,0,1,1-1.67-1.51A1.59,1.59,0,0,1,578.43,143Z"/><path class="cls-1" d="M565.16,101a1.68,1.68,0,1,1-1.67-1.5A1.59,1.59,0,0,1,565.16,101Z"/><ellipse class="cls-1" cx="565.39" cy="111.74" rx="1.67" ry="1.51"/><path class="cls-1" d="M527.82,102.63a1.68,1.68,0,1,1-1.67-1.51A1.59,1.59,0,0,1,527.82,102.63Z"/><path class="cls-1" d="M537.41,108.14a1.68,1.68,0,1,1-1.67-1.51A1.6,1.6,0,0,1,537.41,108.14Z"/><path class="cls-1" d="M543.91,103.7a1.68,1.68,0,1,1-1.67-1.5A1.59,1.59,0,0,1,543.91,103.7Z"/><ellipse class="cls-1" cx="552.23" cy="103.53" rx="1.67" ry="1.51"/><path class="cls-1" d="M562.77,120.87a1.69,1.69,0,1,1-1.67-1.5A1.59,1.59,0,0,1,562.77,120.87Z"/><text class="cls-14" transform="translate(515.89 88.68) scale(1.05 1)"><tspan class="cls-31">v</tspan><tspan x="11.54" y="0">olcanic</tspan></text></g><g id="Layer_52" data-name="Layer 52"><polygon class="cls-22" points="311.37 267.47 237.21 314.78 291.28 326.76 311.37 267.47"/><polygon class="cls-22" points="342.94 316.44 311.37 267.47 291.28 326.76 342.94 316.44"/></g><g id="Layer_x" data-name="Layer x"><line class="cls-32" x1="760.52" y1="236.64" x2="760.52" y2="295.92"/><path class="cls-24" d="M360.42,127.26a4.49,4.49,0,0,1-4.43,4.62,4.64,4.64,0,0,1-5.12-4,4.49,4.49,0,0,1,4.43-4.62A4.64,4.64,0,0,1,360.42,127.26Z"/><path class="cls-24" d="M162.8,128.53a4.82,4.82,0,1,1-4.79-4.32A4.58,4.58,0,0,1,162.8,128.53Z"/><path class="cls-24" d="M74.91,243.08a4.82,4.82,0,1,1-4.79-4.32A4.58,4.58,0,0,1,74.91,243.08Z"/><polygon class="cls-9" points="601.11 266.13 536.17 354.02 601.11 370.67 670.06 353 601.11 266.13"/><line class="cls-22" x1="601.6" y1="370.51" x2="670.42" y2="353.17"/><polygon class="cls-26" points="601.11 266.13 601.11 370.67 670.06 353 601.11 266.13"/></g><g id="Layer_64" data-name="Layer 64"><path class="cls-1" d="M842.8,84.08A3.85,3.85,0,1,1,839,80.62,3.66,3.66,0,0,1,842.8,84.08Z"/><path class="cls-1" d="M860.55,125.44a3.85,3.85,0,1,1-3.83-3.46A3.66,3.66,0,0,1,860.55,125.44Z"/><path class="cls-1" d="M806.76,111a3.86,3.86,0,1,1-3.83-3.45A3.66,3.66,0,0,1,806.76,111Z"/><path class="cls-1" d="M780.53,127.33a3.85,3.85,0,1,1-3.83-3.46A3.66,3.66,0,0,1,780.53,127.33Z"/><path class="cls-1" d="M902.42,128.9a3.85,3.85,0,1,1-3.83-3.46A3.65,3.65,0,0,1,902.42,128.9Z"/><path class="cls-1" d="M887.65,102a3.85,3.85,0,1,1-3.83-3.46A3.66,3.66,0,0,1,887.65,102Z"/><ellipse class="cls-1" cx="854.82" cy="164.65" rx="3.83" ry="3.46"/><path class="cls-1" d="M817.3,127.92a2.76,2.76,0,1,1-2.75-2.48A2.62,2.62,0,0,1,817.3,127.92Z"/><path class="cls-1" d="M811.8,80.62a2.76,2.76,0,1,1-2.75-2.48A2.63,2.63,0,0,1,811.8,80.62Z"/><path class="cls-1" d="M915.74,110.67a2.76,2.76,0,1,1-2.75-2.48A2.62,2.62,0,0,1,915.74,110.67Z"/><path class="cls-1" d="M905.45,165.39a2.76,2.76,0,1,1-2.75-2.48A2.62,2.62,0,0,1,905.45,165.39Z"/><path class="cls-1" d="M878.72,114.13a2.76,2.76,0,1,1-2.75-2.48A2.62,2.62,0,0,1,878.72,114.13Z"/><ellipse class="cls-1" cx="929.52" cy="101.98" rx="2.75" ry="2.48"/><path class="cls-1" d="M881.47,181.11a2.76,2.76,0,1,1-2.75-2.48A2.62,2.62,0,0,1,881.47,181.11Z"/><ellipse class="cls-1" cx="943.46" cy="126.95" rx="2.75" ry="2.48"/><path class="cls-1" d="M886.38,130.4a3.85,3.85,0,1,1-3.83-3.45A3.66,3.66,0,0,1,886.38,130.4Z"/><path class="cls-1" d="M920.08,148.52a3.85,3.85,0,1,1-3.83-3.46A3.66,3.66,0,0,1,920.08,148.52Z"/><path class="cls-1" d="M866.37,106.8a3.86,3.86,0,1,1-3.84-3.46A3.66,3.66,0,0,1,866.37,106.8Z"/><path class="cls-1" d="M887.65,148.52a3.85,3.85,0,1,1-3.83-3.46A3.66,3.66,0,0,1,887.65,148.52Z"/><path class="cls-1" d="M829.82,95.06A3.85,3.85,0,1,1,826,91.61,3.66,3.66,0,0,1,829.82,95.06Z"/><path class="cls-1" d="M850.47,103.34a3.86,3.86,0,1,1-3.84-3.46A3.67,3.67,0,0,1,850.47,103.34Z"/><ellipse class="cls-1" cx="837.07" cy="117.58" rx="3.83" ry="3.46"/><path class="cls-1" d="M831.05,138.52a3.85,3.85,0,1,1-3.83-3.45A3.66,3.66,0,0,1,831.05,138.52Z"/><path class="cls-33" d="M1026.57,110.05l-1.14.1a11,11,0,0,0-1.37.2l-.87.17-1,.27a16.72,16.72,0,0,0-4.65,2.15,15.3,15.3,0,0,0-4.53,4.74,12.87,12.87,0,0,0-1.86,7.35c0,.37.07.74.1,1.11l.06.57c0,.18.07.34.11.52.07.34.15.69.22,1s.22.71.33,1.07a15.43,15.43,0,0,0,.86,2.14c.16.36.39.69.58,1a8.15,8.15,0,0,0,.66,1,18.45,18.45,0,0,0,8.22,6.53c.45.16.88.38,1.35.5l1.4.42a21.6,21.6,0,0,0,2.93.51l.75.09.77,0h1.15c-.18,0,0,0,0,0h.32a24.57,24.57,0,0,0,3.28-.33c.5-.1,1-.13,1.52-.28l1.55-.41a13.72,13.72,0,0,0,1.53-.51,11.57,11.57,0,0,0,1.51-.6l1.48-.68c.46-.28.93-.55,1.4-.82a30.81,30.81,0,0,0,2.65-1.89,22.05,22.05,0,0,0,4.35-4.8c.28-.46.61-.89.85-1.38s.49-1,.74-1.44a19.27,19.27,0,0,0,1.05-3,20.12,20.12,0,0,0,.58-3.19c0-.54,0-1.09,0-1.63v-.31c0-.06,0,.17,0,0l0-.46-.07-.92-.07-.93a4.39,4.39,0,0,0-.11-.87c-.1-.53-.2-1.06-.31-1.59a10.24,10.24,0,0,0-.43-1.62c-.18-.55-.32-1.11-.52-1.65a25.94,25.94,0,0,0-1.49-3.16c-.3-.51-.55-1.05-.88-1.54l-1-1.48a26.53,26.53,0,0,0-5.12-5.26,31.33,31.33,0,0,0-3.11-2.17,32.83,32.83,0,0,0-3.46-1.73,29.79,29.79,0,0,0-7.57-2.16l-2-.25c-.67-.06-1.34,0-2-.09l-1,0c-.2,0,.14,0,.05,0H1024l-.57,0-2.26.13a16.58,16.58,0,0,0-2.06.23l-2,.28c-.66.1-1.34.31-2,.45s-1.35.29-2,.5a38.39,38.39,0,0,0-14.24,7.76,15.65,15.65,0,0,0-1.45,1.37L996,106.59l-1.26,1.53a13.88,13.88,0,0,0-1.2,1.57,27.82,27.82,0,0,0-2,3.33l-.91,1.72-.71,1.79a27.34,27.34,0,0,0-1.2,3.65,11.85,11.85,0,0,0-.4,1.86l-.33,1.88c-.09.63-.09,1.27-.14,1.91l-.06,1,0,.47v.24c0-.12,0,0,0,.05v.13l0,2.09.15,1.86a39.11,39.11,0,0,0,4.66,14.75,41.81,41.81,0,0,0,4.44,6.51,43.15,43.15,0,0,0,5.57,5.66,48.1,48.1,0,0,0,13.75,8.14,53.11,53.11,0,0,0,15.54,3.35c2.55.13,5.44.13,8.15.19l8.1.12,15.53.26,14.52.32c9.3.18,17.83.42,25.39.64s14.15.43,19.58.61,9.69.36,12.6.47l4.46.19-4.46.19c-2.91.11-7.17.31-12.6.48s-12,.41-19.58.61-16.09.45-25.39.64l-14.52.31-15.53.26-8.1.13c-2.77,0-5.42.12-8.46.07a57.45,57.45,0,0,1-17.72-3.42,55.17,55.17,0,0,1-15.93-9,49.93,49.93,0,0,1-6.54-6.38,48,48,0,0,1-5.17-7.46,45,45,0,0,1-5.52-17l-.2-2.31-.06-2.09v-.64l0-.57.06-1.14c0-.76,0-1.52.15-2.28a36.55,36.55,0,0,1,2.26-8.91l.88-2.15,1.1-2.06a34.44,34.44,0,0,1,2.5-4,17.32,17.32,0,0,1,1.45-1.87l1.53-1.83c.55-.57,1.13-1.12,1.69-1.69a21,21,0,0,1,1.76-1.63A45.93,45.93,0,0,1,1011,89.91c.79-.24,1.6-.39,2.4-.58s1.59-.39,2.43-.52l2.56-.35a18.65,18.65,0,0,1,2.44-.23l2.27-.08.56,0h.75l1.25.06c.83.06,1.67.08,2.49.16l2.46.36a36.8,36.8,0,0,1,9.3,2.85,40,40,0,0,1,4.21,2.21,38.28,38.28,0,0,1,3.75,2.73,31.39,31.39,0,0,1,10,14.14c.22.66.37,1.34.56,2a14.76,14.76,0,0,1,.45,2c.1.7.21,1.41.31,2.11a6.81,6.81,0,0,1,.07,1l0,.92,0,.93,0,.46a1.9,1.9,0,0,1,0,.25v.38l-.15,2a24.91,24.91,0,0,1-.86,3.94,24.46,24.46,0,0,1-1.46,3.73l-1,1.75c-.32.59-.74,1.11-1.11,1.66a25.22,25.22,0,0,1-5.55,5.65,16.64,16.64,0,0,1-1.62,1.12,18,18,0,0,1-1.69,1l-1.74.9-1.81.75a16.5,16.5,0,0,1-1.83.64c-.62.17-1.22.41-1.85.53l-1.87.39c-.61.15-1.3.18-1.94.27a29,29,0,0,1-3.59.2h-.53l-.46,0-.93-.06-.92-.07-.9-.14a26.18,26.18,0,0,1-3.5-.77l-1.65-.59a16.77,16.77,0,0,1-1.56-.69,21.25,21.25,0,0,1-9.08-8.12,10.18,10.18,0,0,1-.66-1.21c-.2-.42-.43-.81-.58-1.23a17,17,0,0,1-.82-2.47c-.09-.42-.22-.81-.29-1.23s-.11-.84-.16-1.26c0-.2-.06-.41-.08-.61v-.57c0-.37,0-.75,0-1.12a14.54,14.54,0,0,1,2.73-8.11,16.14,16.14,0,0,1,5.29-4.73,18.1,18.1,0,0,1,5-1.86l1-.2.91-.09a10.81,10.81,0,0,1,1.4-.08Z"/><path class="cls-33" d="M964,177.88l-.84.09a8.67,8.67,0,0,0-1,.16,12.7,12.7,0,0,0-4.76,2,11.42,11.42,0,0,0-3.27,3.53,9.27,9.27,0,0,0-1.27,5.36l.09.82,0,.42.09.38c.06.24.12.49.17.75s.17.51.25.77a11.38,11.38,0,0,0,1.57,3,13.31,13.31,0,0,0,6,4.65,14.08,14.08,0,0,0,4.09,1l.53.06h1.37c-.18,0,0,0,0,0h.23a17.35,17.35,0,0,0,2.4-.27,8.92,8.92,0,0,0,1.08-.21l1.12-.29c.37-.09.72-.26,1.09-.39a8.37,8.37,0,0,0,1.08-.43A16.61,16.61,0,0,0,978,196.8a15.56,15.56,0,0,0,3.08-3.45,13,13,0,0,0,1.85-4.2,13.47,13.47,0,0,0,.39-2.27l0-1.16v-.17l0-.34-.06-.69,0-.69a3.85,3.85,0,0,0-.08-.64l-.24-1.11a7.91,7.91,0,0,0-.31-1.15c-.13-.39-.24-.79-.39-1.17a19.23,19.23,0,0,0-6.13-8.16,23.06,23.06,0,0,0-2.22-1.54,22.8,22.8,0,0,0-2.48-1.22,21.14,21.14,0,0,0-5.4-1.52l-1.42-.18c-.47,0-1,0-1.43,0l-.72,0-.65,0-1.68.1a9.35,9.35,0,0,0-1.48.18l-1.38.2c-.94.2-1.92.44-2.87.68a28,28,0,0,0-10.19,5.6,23.14,23.14,0,0,0-6.46,9.11,22.38,22.38,0,0,0-1.38,5.3c-.07.46-.06.91-.1,1.37l-.07,1.22.17,3.1c.12.93.3,1.76.43,2.64a10.05,10.05,0,0,0,.33,1.34l.37,1.36a28.42,28.42,0,0,0,2.21,5.18,32.22,32.22,0,0,0,7.2,8.82,35.09,35.09,0,0,0,9.92,6A38.29,38.29,0,0,0,968,221.7c1.83.17,4,.15,6,.21l6,.13,11.54.26,10.78.32c6.91.18,13.25.42,18.87.63s10.51.43,14.54.62,7.21.36,9.37.47l3.31.19-3.31.19c-2.16.11-5.33.3-9.37.47s-8.93.42-14.54.61-12,.46-18.87.64l-10.78.32-11.54.26-6,.12c-2.06,0-4,.15-6.32,0a42.46,42.46,0,0,1-13.45-2.5c-8.71-3.16-16.55-9.26-21-17.3a34.71,34.71,0,0,1-2.78-6.27l-.48-1.64a12.13,12.13,0,0,1-.43-1.68c-.19-1.16-.42-2.36-.56-3.49l-.18-3.11v-.58l0-.44,0-.87c0-.58,0-1.16.12-1.74a28.38,28.38,0,0,1,1.73-6.81,29.86,29.86,0,0,1,8.34-11.64,34.7,34.7,0,0,1,13.11-7c1.23-.31,2.44-.59,3.7-.83l2-.26a14.92,14.92,0,0,1,1.86-.17l1.69-.06h.73a1.34,1.34,0,0,1,.29,0l1,0c.64,0,1.28.06,1.91.13l1.89.28a28.42,28.42,0,0,1,7.13,2.2,30.78,30.78,0,0,1,3.22,1.71,29,29,0,0,1,2.87,2.1A23.88,23.88,0,0,1,988,178.1c.17.5.28,1,.42,1.53a9.7,9.7,0,0,1,.34,1.57c.08.55.16,1.09.23,1.64a3.84,3.84,0,0,1,0,.73l0,.69,0,.68v.35c0-.09,0,.21,0,.22v.29c0,.52-.09,1-.13,1.56a19.5,19.5,0,0,1-.67,3,18,18,0,0,1-2.75,5.46,19.24,19.24,0,0,1-4.28,4.31A21.74,21.74,0,0,1,976,203a11.56,11.56,0,0,1-1.4.48c-.48.13-.94.31-1.42.4a22.8,22.8,0,0,1-2.92.49,22.29,22.29,0,0,1-2.71.13h-.42l-.36,0-.71-.05-.7,0-.69-.11a16.9,16.9,0,0,1-5.12-1.6,16.16,16.16,0,0,1-6.85-6.24,13.45,13.45,0,0,1-1.52-3.74c-.07-.32-.17-.62-.21-.94l-.12-1,0-.46v-1.26a11,11,0,0,1,2.14-6.13,12.21,12.21,0,0,1,4-3.51,13.46,13.46,0,0,1,3.79-1.34l.76-.14.68-.06a6.52,6.52,0,0,1,1,0Z"/><text class="cls-14" transform="translate(892.36 64.38)">aeolian</text></g><g id="Layer_54" data-name="Layer 54"><path class="cls-34" d="M294,337.33c.9.38.68.65,1.59,1s1.77,1.07,1.76,1.92a2,2,0,0,1-1.21,1.59,5.27,5.27,0,0,1-4.35.18,4.19,4.19,0,0,1-.75-.41,2.39,2.39,0,0,1-.71-3.25,3.08,3.08,0,0,1,3.49-1.09"/><path class="cls-34" d="M306.82,341.39c-.52.62-.74.41-1.23,1a2.34,2.34,0,0,1-2.13,1,1.9,1.9,0,0,1-1.33-1.22,3.33,3.33,0,0,1,.53-3.36,2.79,2.79,0,0,1,.52-.51,2.75,2.75,0,0,1,3.24,0,2.13,2.13,0,0,1,.47,2.88"/><path class="cls-34" d="M315.74,333.07a2.35,2.35,0,0,1,.92,3.31,3.64,3.64,0,0,1-.8.71,4.87,4.87,0,0,1-2.52,1.05,8.31,8.31,0,0,1-3.61-1.07,1.62,1.62,0,0,1-.78-1.43,2.28,2.28,0,0,1,.27-.74,5.45,5.45,0,0,1,1-1.52C311.48,332.14,314.28,332.18,315.74,333.07Z"/><path class="cls-34" d="M302.43,335.22a2.36,2.36,0,0,1,.92,3.32,3.42,3.42,0,0,1-.8.71A4.87,4.87,0,0,1,300,340.3a5.65,5.65,0,0,1-1.94-.36,5.76,5.76,0,0,1-1.67-.71,1.65,1.65,0,0,1-.78-1.44,2.93,2.93,0,0,1,.27-.73,5.46,5.46,0,0,1,1-1.53C298.18,334.3,301,334.33,302.43,335.22Z"/><path class="cls-34" d="M299.16,340.15c1.44,0,3.08,1,3.25,2.35a3.44,3.44,0,0,1-.09,1.06,3.83,3.83,0,0,1-1.14,2.32,5.09,5.09,0,0,1-1.78.77,6,6,0,0,1-1.84.32,2.25,2.25,0,0,1-1.7-.81,2.68,2.68,0,0,1-.36-.79,5.69,5.69,0,0,1-.39-1.87C295.15,341.72,297.35,340.19,299.16,340.15Z"/><path class="cls-34" d="M309.79,338.76c-.61.91-1.36.4-2.5.2a3,3,0,0,1-2.32-2.1,3.07,3.07,0,0,1,.88-2.89,2.47,2.47,0,0,1,2.19-.78,2.51,2.51,0,0,1,1.29.85,4,4,0,0,1,.63,4.51"/><path class="cls-34" d="M293.94,342.18c1.06-.26,1,.82,1.37,1.83a3.12,3.12,0,0,1-.75,3.1,3.55,3.55,0,0,1-3,1.05,2,2,0,0,1-1.72-1.26,2.43,2.43,0,0,1,.13-1.52,4.92,4.92,0,0,1,3.77-3.13"/><path class="cls-34" d="M309.13,329.3a3.38,3.38,0,0,1,1.48.33c.89.31,2,.42,2.24,1.1a1.5,1.5,0,0,1-.58,1.56,5.19,5.19,0,0,1-3.87,1.2,3.7,3.7,0,0,1-.82-.14,2.1,2.1,0,0,1-1.73-2.41c.3-1,.16-2,2.1-1.85"/><path class="cls-34" d="M305,330.85c1.07-.05.9.88,1.15,1.82a2.41,2.41,0,0,1-1.07,2.55,3.74,3.74,0,0,1-3.05.41,2.09,2.09,0,0,1-1.57-1.37,1.88,1.88,0,0,1,.29-1.29,4.55,4.55,0,0,1,4.06-2.08"/><path class="cls-34" d="M297.13,330.74a3,3,0,0,1,1.4-.2c.89,0,1.84-.29,2.38.23a1.49,1.49,0,0,1,.22,1.6,4.21,4.21,0,0,1-2.72,2.4,5.1,5.1,0,0,1-.76.15,2.32,2.32,0,0,1-2.54-1.58c-.19-1-.76-1.84.93-2.39"/><path class="cls-34" d="M292.38,337.11c-1-.15-1.2-.77-1.2-1.58s.11-1.46.91-1.74A4.36,4.36,0,0,1,295,334a2.71,2.71,0,0,1,1.58,1.32,1,1,0,0,1-.22.93c-.67.85-2.23,1.2-3.82.85"/><path class="cls-34" d="M299.26,330.38c-.88-.52-.73-1.16-.33-1.92s.84-1.33,1.72-1.31a4.06,4.06,0,0,1,2.61,1.28,2.36,2.36,0,0,1,.82,1.81,1.22,1.22,0,0,1-.68.79,4,4,0,0,1-4-.57"/><path class="cls-34" d="M317.66,325.24c1-.06.94.28,1.93.2a2.73,2.73,0,0,1,2.56.93,1.83,1.83,0,0,1-.23,1.92,4.85,4.85,0,0,1-3.72,2,4.3,4.3,0,0,1-.88,0,2.62,2.62,0,0,1-2.34-2.55,2.76,2.76,0,0,1,2.5-2.46"/><path class="cls-34" d="M331.07,323.3c-.12.77-.43.67-.53,1.44a2.06,2.06,0,0,1-1.34,1.8,2.2,2.2,0,0,1-1.82-.5,3.47,3.47,0,0,1-1.3-3.19,2.66,2.66,0,0,1,.18-.67,2.59,2.59,0,0,1,2.87-1.35,2.32,2.32,0,0,1,1.94,2.32"/><path class="cls-34" d="M334.52,312.15c1.4.12,2.73,1.25,2.56,2.51a3.1,3.1,0,0,1-.33,1,4.22,4.22,0,0,1-1.65,2,5.59,5.59,0,0,1-1.9.52,6,6,0,0,1-1.84.09,1.86,1.86,0,0,1-1.45-.93,2.44,2.44,0,0,1-.15-.76,5,5,0,0,1,.07-1.77C330.29,313.16,332.77,312,334.52,312.15Z"/><path class="cls-34" d="M324,319.76c1.4.13,2.73,1.26,2.56,2.52a3.1,3.1,0,0,1-.33,1,4.24,4.24,0,0,1-1.66,2,5.77,5.77,0,0,1-1.89.52,6.39,6.39,0,0,1-1.85.09,1.9,1.9,0,0,1-1.44-.93,2.19,2.19,0,0,1-.15-.76,4.78,4.78,0,0,1,.07-1.77C319.73,320.78,322.21,319.61,324,319.76Z"/><path class="cls-34" d="M323.68,325.5a3.52,3.52,0,0,1,4.1.67,3.69,3.69,0,0,1,.49,1,3.61,3.61,0,0,1,.21,2.53,4.18,4.18,0,0,1-1.16,1.44,5,5,0,0,1-1.45,1.07,2.38,2.38,0,0,1-1.92,0,3.23,3.23,0,0,1-.72-.54,6.23,6.23,0,0,1-1.34-1.48C321,328.6,322.11,326.31,323.68,325.5Z"/><path class="cls-34" d="M332.3,319.71c-.06,1.07-1,.93-2.09,1.25a3.3,3.3,0,0,1-3.16-.85,3.08,3.08,0,0,1-.74-2.92,2.16,2.16,0,0,1,1.51-1.62,2.62,2.62,0,0,1,1.58.19,4.35,4.35,0,0,1,2.93,3.69"/><path class="cls-34" d="M320.17,329.52c.79-.68,1.31.3,2.17,1a3.07,3.07,0,0,1-1.1,5.25,2.21,2.21,0,0,1-2.18-.36,2.69,2.69,0,0,1-.69-1.4,4.36,4.36,0,0,1,1.67-4.38"/><path class="cls-34" d="M326.73,311.67a3.52,3.52,0,0,1,1.47-.34c.94-.11,1.95-.47,2.55,0a1.46,1.46,0,0,1,.32,1.62,4.65,4.65,0,0,1-2.77,2.72,3.8,3.8,0,0,1-.8.22,2.37,2.37,0,0,1-2.79-1.37c-.26-1-.9-1.81.86-2.54A2.53,2.53,0,0,1,326.73,311.67Z"/><path class="cls-34" d="M323.9,314.82c.91-.5,1.25.39,2,1.1a2.36,2.36,0,0,1,.4,2.71,3.4,3.4,0,0,1-2.47,1.67,2.32,2.32,0,0,1-2.1-.53,1.87,1.87,0,0,1-.42-1.26,4,4,0,0,1,2.46-3.57"/><path class="cls-34" d="M316.94,318.09a2.71,2.71,0,0,1,1.12-.77c.76-.41,1.47-1.05,2.21-.82a1.63,1.63,0,0,1,1,1.31,3.67,3.67,0,0,1-1.13,3.28,3.33,3.33,0,0,1-.59.46,2.51,2.51,0,0,1-3.07-.3c-.68-.78-1.63-1.29-.43-2.5"/><path class="cls-34" d="M316.12,325.74c-1,.31-1.46-.16-1.89-.87s-.67-1.33-.12-1.93a4.27,4.27,0,0,1,2.7-1.06,3,3,0,0,1,2.09.48,1,1,0,0,1,.3.91c-.14,1.05-1.32,2-2.91,2.4"/><path class="cls-34" d="M318.62,316.86c-1.05-.07-1.26-.71-1.31-1.55s0-1.52.82-1.88a4.26,4.26,0,0,1,3,0,2.73,2.73,0,0,1,1.68,1.24,1.06,1.06,0,0,1-.18,1,4,4,0,0,1-3.8,1.2"/><path class="cls-34" d="M315.7,347.77c-.12.77-.43.67-.53,1.44a2.07,2.07,0,0,1-1.35,1.8,2.19,2.19,0,0,1-1.81-.5,3.47,3.47,0,0,1-1.31-3.19,3.19,3.19,0,0,1,.19-.67,2.59,2.59,0,0,1,2.87-1.35,2.33,2.33,0,0,1,1.94,2.32"/><path class="cls-34" d="M319.15,336.62c1.4.12,2.73,1.26,2.56,2.52a3.28,3.28,0,0,1-.33,1,4.26,4.26,0,0,1-1.66,2,5.47,5.47,0,0,1-1.89.52,5.71,5.71,0,0,1-1.84.09,1.85,1.85,0,0,1-1.45-.93,2.18,2.18,0,0,1-.15-.75,5.06,5.06,0,0,1,.07-1.78C314.92,337.63,317.4,336.46,319.15,336.62Z"/><path class="cls-34" d="M308.59,344.23c1.4.13,2.72,1.26,2.56,2.52a3.1,3.1,0,0,1-.33,1,4.29,4.29,0,0,1-1.66,2,5.76,5.76,0,0,1-1.9.52,6.33,6.33,0,0,1-1.84.09,1.88,1.88,0,0,1-1.44-.93,2.19,2.19,0,0,1-.15-.76,4.78,4.78,0,0,1,.07-1.77C304.36,345.25,306.84,344.08,308.59,344.23Z"/><path class="cls-34" d="M316.92,344.18c-.05,1.07-1,.94-2.08,1.25a3.29,3.29,0,0,1-3.16-.85,3.08,3.08,0,0,1-.75-2.92,2.17,2.17,0,0,1,1.52-1.62,2.62,2.62,0,0,1,1.58.19,4.35,4.35,0,0,1,2.93,3.69"/><path class="cls-34" d="M316.28,335.4a3.53,3.53,0,0,1,1.48-.34c.94-.11,1.95-.47,2.54,0a1.46,1.46,0,0,1,.32,1.62,4.62,4.62,0,0,1-2.77,2.72,3.72,3.72,0,0,1-.79.22,2.38,2.38,0,0,1-2.8-1.37c-.25-1-.9-1.81.87-2.54"/><path class="cls-34" d="M308.53,339.3c.91-.51,1.25.38,2,1.1a2.34,2.34,0,0,1,.4,2.7,3.4,3.4,0,0,1-2.47,1.67,2.32,2.32,0,0,1-2.1-.53,1.8,1.8,0,0,1-.42-1.26,4,4,0,0,1,2.46-3.57"/><path class="cls-34" d="M301.56,342.57a2.74,2.74,0,0,1,1.13-.78c.76-.41,1.47-1.05,2.21-.82a1.66,1.66,0,0,1,1,1.31,3.69,3.69,0,0,1-1.13,3.28,3.74,3.74,0,0,1-.59.46,2.5,2.5,0,0,1-3.07-.3c-.68-.78-1.63-1.29-.43-2.5"/><path class="cls-34" d="M300.75,350.21c-1,.31-1.46-.16-1.89-.87s-.68-1.33-.12-1.93a4.27,4.27,0,0,1,2.7-1.06,3,3,0,0,1,2.09.48,1,1,0,0,1,.3.91c-.14,1.05-1.32,2-2.91,2.4"/><path class="cls-34" d="M310.61,340.94c-1.05-.08-1.25-.71-1.3-1.55s0-1.52.82-1.89a4.32,4.32,0,0,1,3,0,2.64,2.64,0,0,1,1.67,1.24,1.06,1.06,0,0,1-.17,1,4,4,0,0,1-3.8,1.21"/><path class="cls-34" d="M341.65,319.25c-.71,0-.64-.27-1.36-.3a1.92,1.92,0,0,1-1.73-.87,1.33,1.33,0,0,1,.36-1.35,3.59,3.59,0,0,1,2.86-1.14,2.59,2.59,0,0,1,.62.1,1.83,1.83,0,0,1,1.42,2,2.06,2.06,0,0,1-2,1.55"/><path class="cls-34" d="M331.88,319.54c.17-.54.38-.45.53-1a1.34,1.34,0,0,1,2.39-.66,2.46,2.46,0,0,1,.61,2.38,2.11,2.11,0,0,1-.21.46,1.91,1.91,0,0,1-2.18.73,1.63,1.63,0,0,1-1.15-1.82"/><path class="cls-34" d="M328.3,327.21c-1-.2-1.82-1.12-1.58-2a2.49,2.49,0,0,1,.34-.67,3.27,3.27,0,0,1,1.38-1.3,4.42,4.42,0,0,1,1.41-.21,4.16,4.16,0,0,1,1.32.09,1.26,1.26,0,0,1,.94.78,1.7,1.7,0,0,1,0,.55,3.39,3.39,0,0,1-.23,1.26C331.42,326.84,329.53,327.47,328.3,327.21Z"/><path class="cls-34" d="M336.61,322.65c-1-.21-1.82-1.12-1.58-2a2.43,2.43,0,0,1,.34-.66,3.1,3.1,0,0,1,1.38-1.3,4.16,4.16,0,0,1,1.41-.22,4.5,4.5,0,0,1,1.32.09,1.32,1.32,0,0,1,.94.78,1.7,1.7,0,0,1,0,.55,3.56,3.56,0,0,1-.23,1.26C339.73,322.27,337.84,322.9,336.61,322.65Z"/><path class="cls-34" d="M337.38,318.58a2.5,2.5,0,0,1-2.86-.82,2.74,2.74,0,0,1-.25-.73,2.58,2.58,0,0,1,.11-1.82,3,3,0,0,1,1-.94,3.86,3.86,0,0,1,1.14-.64,1.71,1.71,0,0,1,1.38.14,2.4,2.4,0,0,1,.46.44,4.68,4.68,0,0,1,.8,1.17C339.62,316.58,338.58,318.12,337.38,318.58Z"/><path class="cls-34" d="M330.65,322c.15-.76.79-.59,1.61-.72a2.32,2.32,0,0,1,2.17.86,2.17,2.17,0,0,1,.24,2.15,1.63,1.63,0,0,1-1.24,1,2,2,0,0,1-1.11-.27,3,3,0,0,1-1.72-2.88"/><path class="cls-34" d="M340.3,316c-.64.42-.91-.32-1.45-.91a2.24,2.24,0,0,1-.39-2.26,2.34,2.34,0,0,1,1.7-1.4,1.58,1.58,0,0,1,1.52.44,1.8,1.8,0,0,1,.35,1.06,3.21,3.21,0,0,1-1.63,3"/><path class="cls-34" d="M333.82,328.19a2.52,2.52,0,0,1-1.09.13c-.69,0-1.44.17-1.82-.22a1,1,0,0,1-.06-1.18,3.41,3.41,0,0,1,2.25-1.71,2.91,2.91,0,0,1,.59-.1,1.65,1.65,0,0,1,1.85,1.21c.09.73.47,1.36-.87,1.74"/><path class="cls-34" d="M336.15,326.18c-.7.28-.85-.38-1.29-.95a1.68,1.68,0,0,1,0-2,2.54,2.54,0,0,1,1.93-1,1.65,1.65,0,0,1,1.45.54,1.35,1.35,0,0,1,.17.94,3,3,0,0,1-2.12,2.35"/><path class="cls-34" d="M341.45,324.41a2,2,0,0,1-.88.46c-.58.23-1.15.63-1.66.41a1.15,1.15,0,0,1-.61-1,2.84,2.84,0,0,1,1.6-2.53,1.78,1.78,0,0,1,2.16.47c.41.61,1,1.05.06,1.81"/><path class="cls-34" d="M342.8,319c.73-.14,1,.24,1.27.78s.34,1-.11,1.39a3.22,3.22,0,0,1-2,.53,2.2,2.2,0,0,1-1.45-.51.71.71,0,0,1-.11-.68,2.6,2.6,0,0,1,2.31-1.47"/><path class="cls-34" d="M340.13,325.15c.74.14.82.61.77,1.22s-.17,1.08-.77,1.28a3.1,3.1,0,0,1-2.12-.25,1.89,1.89,0,0,1-1.07-1,.76.76,0,0,1,.22-.69,2.87,2.87,0,0,1,2.83-.55"/><path class="cls-34" d="M336.67,325.33a1.42,1.42,0,0,1,1.6,1,1.6,1.6,0,0,1-.06.53,2.08,2.08,0,0,1-.61,1.18,2.82,2.82,0,0,1-.9.45,3.32,3.32,0,0,1-.93.22,1,1,0,0,1-.85-.34,1.22,1.22,0,0,1-.16-.37,2.63,2.63,0,0,1-.18-.91A2.39,2.39,0,0,1,336.67,325.33Z"/><path class="cls-34" d="M332.17,330.23a1.42,1.42,0,0,1,1.6,1,1.53,1.53,0,0,1,0,.52,2.07,2.07,0,0,1-.61,1.19,2.85,2.85,0,0,1-.91.44,3,3,0,0,1-.93.23,1,1,0,0,1-.84-.34,1,1,0,0,1-.17-.37,2.41,2.41,0,0,1-.17-.91C330.13,331.15,331.26,330.32,332.17,330.23Z"/><path class="cls-34" d="M336.42,329.4c.1.55-.39.57-.92.84a1.74,1.74,0,0,1-1.71-.13,1.7,1.7,0,0,1-.73-1.42,1.08,1.08,0,0,1,.59-1,1.38,1.38,0,0,1,.83-.06,2.41,2.41,0,0,1,1.93,1.61"/><path class="cls-34" d="M332.63,325.83a1.81,1.81,0,0,1,.71-.31c.47-.15.94-.43,1.3-.24a.79.79,0,0,1,.36.79,2.3,2.3,0,0,1-1.1,1.66,2.25,2.25,0,0,1-.38.19,1.27,1.27,0,0,1-1.58-.44c-.25-.47-.68-.83.14-1.37C332.36,326.09,332.4,326,332.63,325.83Z"/><path class="cls-34" d="M331.56,327.71c.4-.34.68.08,1.13.38a1.26,1.26,0,0,1,.53,1.34,1.68,1.68,0,0,1-1.07,1.09,1.24,1.24,0,0,1-1.13-.07,1.08,1.08,0,0,1-.37-.61,2,2,0,0,1,.84-2"/><path class="cls-34" d="M328.39,330.05c.24-.35.14-.23.48-.5s.63-.68,1-.64a.92.92,0,0,1,.69.58,1.9,1.9,0,0,1-.19,1.78,2.26,2.26,0,0,1-.25.29,1.3,1.3,0,0,1-1.6.14c-.44-.33-1-.5-.52-1.23"/><path class="cls-34" d="M328.87,334c-.46.25-.76.06-1.07-.26s-.5-.62-.29-1a2.14,2.14,0,0,1,1.26-.79,1.52,1.52,0,0,1,1.12,0,.51.51,0,0,1,.26.43A1.74,1.74,0,0,1,329,334"/><path class="cls-34" d="M329.1,329.26c-.54.06-.72-.24-.85-.67s-.16-.78.2-1a2.25,2.25,0,0,1,1.52-.28,1.46,1.46,0,0,1,1,.47.54.54,0,0,1,0,.52,2,2,0,0,1-1.79,1"/><path class="cls-34" d="M349.94,310.66a1.44,1.44,0,0,1,1.61,1,1.6,1.6,0,0,1-.06.53,2.08,2.08,0,0,1-.61,1.18,3,3,0,0,1-.9.45,3.32,3.32,0,0,1-.93.22,1,1,0,0,1-.85-.34,1.24,1.24,0,0,1-.17-.37,2.62,2.62,0,0,1-.17-.91A2.39,2.39,0,0,1,349.94,310.66Z"/><path class="cls-34" d="M345.45,315.56a1.42,1.42,0,0,1,1.6,1,1.84,1.84,0,0,1-.05.52,2.14,2.14,0,0,1-.61,1.19,3,3,0,0,1-.91.44,3,3,0,0,1-.93.23,1,1,0,0,1-.85-.34,1.22,1.22,0,0,1-.16-.37,2.63,2.63,0,0,1-.18-.91A2.39,2.39,0,0,1,345.45,315.56Z"/><path class="cls-34" d="M349.7,314.73c.1.55-.39.57-.92.84a1.74,1.74,0,0,1-1.71-.13,1.65,1.65,0,0,1-.73-1.42,1.09,1.09,0,0,1,.58-1,1.39,1.39,0,0,1,.83-.06,2.43,2.43,0,0,1,1.94,1.61"/><path class="cls-34" d="M345.91,311.16a1.75,1.75,0,0,1,.71-.31c.47-.15.94-.43,1.3-.24a.77.77,0,0,1,.36.79,2.3,2.3,0,0,1-1.1,1.66,2.69,2.69,0,0,1-.38.19,1.28,1.28,0,0,1-1.59-.44c-.24-.48-.67-.83.15-1.37"/><path class="cls-34" d="M344.84,313c.4-.34.68.08,1.13.38a1.24,1.24,0,0,1,.52,1.34,1.65,1.65,0,0,1-1.06,1.09,1.28,1.28,0,0,1-1.13-.07,1,1,0,0,1-.37-.61,2,2,0,0,1,.84-2.06"/><path class="cls-34" d="M341.67,315.38a1.38,1.38,0,0,1,.48-.51c.34-.28.62-.67,1-.63a.9.9,0,0,1,.68.57,1.86,1.86,0,0,1-.19,1.79,2.17,2.17,0,0,1-.24.29,1.3,1.3,0,0,1-1.6.14c-.44-.34-1-.5-.52-1.24"/><path class="cls-34" d="M342.15,319.36c-.47.25-.77.05-1.07-.27s-.5-.61-.29-1a2.16,2.16,0,0,1,1.26-.8,1.57,1.57,0,0,1,1.12.05.51.51,0,0,1,.26.43,1.75,1.75,0,0,1-1.2,1.51"/><path class="cls-34" d="M342.38,314.59c-.54.06-.72-.24-.85-.67s-.16-.78.2-1a2.2,2.2,0,0,1,1.52-.28,1.41,1.41,0,0,1,1,.47.54.54,0,0,1,0,.52,2,2,0,0,1-1.8,1"/><path class="cls-34" d="M344.8,320.48c-.73,0-1.45-.6-1.4-1.26a1.5,1.5,0,0,1,.15-.51,2.12,2.12,0,0,1,.81-1.08,2.69,2.69,0,0,1,1-.31,2.85,2.85,0,0,1,1-.09,1,1,0,0,1,.78.45,1.06,1.06,0,0,1,.09.39,2.43,2.43,0,0,1,0,.93A2.5,2.5,0,0,1,344.8,320.48Z"/><path class="cls-34" d="M350.1,316.28c-.73,0-1.45-.59-1.4-1.25a1.63,1.63,0,0,1,.15-.52,2.16,2.16,0,0,1,.81-1.08,3.07,3.07,0,0,1,1-.31,3.44,3.44,0,0,1,1-.09,1,1,0,0,1,.77.46,1.07,1.07,0,0,1,.1.39,2.59,2.59,0,0,1,0,.92A2.46,2.46,0,0,1,350.1,316.28Z"/><path class="cls-34" d="M345.76,316.49c0-.56.49-.51,1.05-.7a1.77,1.77,0,0,1,1.67.38,1.61,1.61,0,0,1,.47,1.5,1.11,1.11,0,0,1-.75.88,1.39,1.39,0,0,1-.83-.06,2.3,2.3,0,0,1-1.62-1.86"/><path class="cls-34" d="M348.88,320.56a1.83,1.83,0,0,1-.76.2c-.49.09-1,.29-1.33.06a.76.76,0,0,1-.21-.84A2.39,2.39,0,0,1,348,318.5a2.8,2.8,0,0,1,.41-.13,1.25,1.25,0,0,1,1.49.65c.16.51.52.93-.38,1.34"/><path class="cls-34" d="M350.27,318.85c-.47.28-.67-.17-1.06-.53a1.23,1.23,0,0,1-.28-1.4,1.75,1.75,0,0,1,1.24-.92,1.23,1.23,0,0,1,1.11.23,1,1,0,0,1,.25.65,2,2,0,0,1-1.19,1.91"/><path class="cls-34" d="M353.8,317a1.43,1.43,0,0,1-.56.43c-.39.22-.74.57-1.13.47a.87.87,0,0,1-.58-.66,1.91,1.91,0,0,1,.5-1.73,1.81,1.81,0,0,1,.3-.25,1.3,1.3,0,0,1,1.6.09c.38.39.89.63.3,1.29"/><path class="cls-34" d="M354,313a.77.77,0,0,1,1,.41c.24.35.39.68.12,1a2.22,2.22,0,0,1-1.38.61,1.58,1.58,0,0,1-1.11-.2.51.51,0,0,1-.17-.47c0-.55.63-1.08,1.45-1.31"/><path class="cls-34" d="M353,317.68c.55,0,.67.34.72.77s0,.8-.38,1a2.23,2.23,0,0,1-1.54.07,1.42,1.42,0,0,1-.91-.61.53.53,0,0,1,.07-.52,2,2,0,0,1,1.94-.71"/><path class="cls-34" d="M353.36,317.89a1.44,1.44,0,0,1,1.61,1,1.6,1.6,0,0,1-.06.53,2.08,2.08,0,0,1-.61,1.18,3,3,0,0,1-.9.45,3.32,3.32,0,0,1-.93.22,1,1,0,0,1-.85-.34,1.24,1.24,0,0,1-.17-.37,2.62,2.62,0,0,1-.17-.91A2.39,2.39,0,0,1,353.36,317.89Z"/><path class="cls-34" d="M348.87,322.79a1.42,1.42,0,0,1,1.6,1,1.53,1.53,0,0,1-.05.52,2.14,2.14,0,0,1-.61,1.19,3,3,0,0,1-.91.44,3,3,0,0,1-.93.23,1,1,0,0,1-.85-.34,1.22,1.22,0,0,1-.16-.37,2.63,2.63,0,0,1-.18-.91A2.39,2.39,0,0,1,348.87,322.79Z"/><path class="cls-34" d="M353.12,322c.1.55-.39.57-.92.84a1.74,1.74,0,0,1-1.71-.13,1.65,1.65,0,0,1-.73-1.42,1.09,1.09,0,0,1,.58-1,1.39,1.39,0,0,1,.83-.06,2.43,2.43,0,0,1,1.94,1.61"/><path class="cls-34" d="M349.33,318.39a1.75,1.75,0,0,1,.71-.31c.47-.15.94-.43,1.3-.24a.77.77,0,0,1,.36.79,2.3,2.3,0,0,1-1.1,1.66,2.69,2.69,0,0,1-.38.19,1.28,1.28,0,0,1-1.59-.44c-.24-.48-.67-.83.15-1.37"/><path class="cls-34" d="M348.26,320.27c.4-.34.68.08,1.13.38a1.24,1.24,0,0,1,.52,1.34,1.65,1.65,0,0,1-1.06,1.09,1.28,1.28,0,0,1-1.13-.07,1,1,0,0,1-.37-.61,2,2,0,0,1,.84-2.06"/><path class="cls-34" d="M345.09,322.61a1.38,1.38,0,0,1,.48-.51c.34-.28.63-.67,1-.63a.9.9,0,0,1,.68.57,1.86,1.86,0,0,1-.19,1.79,2.17,2.17,0,0,1-.24.29,1.3,1.3,0,0,1-1.6.14c-.44-.34-1-.5-.52-1.24"/><path class="cls-34" d="M345.57,326.59c-.47.25-.77.05-1.07-.27s-.5-.61-.29-1a2.16,2.16,0,0,1,1.26-.8,1.57,1.57,0,0,1,1.12.05.51.51,0,0,1,.26.43,1.75,1.75,0,0,1-1.2,1.51"/><path class="cls-34" d="M345.8,321.82c-.54.06-.72-.24-.85-.67s-.16-.78.2-1a2.2,2.2,0,0,1,1.52-.28,1.41,1.41,0,0,1,1,.47.54.54,0,0,1,0,.52,2,2,0,0,1-1.8,1"/><path class="cls-34" d="M345.47,329.21c-.71,0-.64-.28-1.35-.31a1.93,1.93,0,0,1-1.74-.87,1.35,1.35,0,0,1,.36-1.35,3.59,3.59,0,0,1,2.86-1.14,2.67,2.67,0,0,1,.63.1,1.83,1.83,0,0,1,1.41,2,2.05,2.05,0,0,1-2,1.55"/><path class="cls-34" d="M335.71,329.49c.16-.54.37-.44.52-1a1.53,1.53,0,0,1,1.14-1.18,1.56,1.56,0,0,1,1.25.51,2.42,2.42,0,0,1,.61,2.38,1.79,1.79,0,0,1-2.39,1.19,1.63,1.63,0,0,1-1.15-1.82"/><path class="cls-34" d="M332.12,337.17c-1-.21-1.82-1.12-1.57-2a2.15,2.15,0,0,1,.33-.66,3.18,3.18,0,0,1,1.39-1.3,4.11,4.11,0,0,1,1.4-.22,4.54,4.54,0,0,1,1.33.09,1.12,1.12,0,0,1,1,1.33,3.56,3.56,0,0,1-.22,1.26C335.24,336.79,333.36,337.42,332.12,337.17Z"/><path class="cls-34" d="M340.43,332.6c-1-.21-1.82-1.12-1.58-2a2.43,2.43,0,0,1,.34-.66,3.15,3.15,0,0,1,1.38-1.3,4.16,4.16,0,0,1,1.41-.22,4.48,4.48,0,0,1,1.32.09,1.32,1.32,0,0,1,.94.78,1.75,1.75,0,0,1,0,.56,3.65,3.65,0,0,1-.23,1.26C343.55,332.22,341.66,332.85,340.43,332.6Z"/><path class="cls-34" d="M341.21,328.53a2.49,2.49,0,0,1-2.86-.82,2.18,2.18,0,0,1-.25-.73,2.52,2.52,0,0,1,.1-1.82,3.23,3.23,0,0,1,1-.94,3.86,3.86,0,0,1,1.14-.64,1.71,1.71,0,0,1,1.38.14,2.45,2.45,0,0,1,.46.45,4.76,4.76,0,0,1,.81,1.16C343.44,326.53,342.41,328.08,341.21,328.53Z"/><path class="cls-34" d="M334.47,332c.15-.75.8-.58,1.62-.72a2.34,2.34,0,0,1,2.17.87,2.17,2.17,0,0,1,.23,2.14,1.63,1.63,0,0,1-1.24,1,2,2,0,0,1-1.11-.27,3,3,0,0,1-1.72-2.88"/><path class="cls-34" d="M344.12,326c-.63.42-.91-.32-1.45-.92a2.25,2.25,0,0,1-.39-2.25,2.32,2.32,0,0,1,1.7-1.4,1.55,1.55,0,0,1,1.52.43,1.8,1.8,0,0,1,.35,1.06,3.18,3.18,0,0,1-1.63,3"/><path class="cls-34" d="M337.64,338.15a2.68,2.68,0,0,1-1.09.12c-.68,0-1.44.18-1.82-.21a1.07,1.07,0,0,1-.06-1.19,3.46,3.46,0,0,1,2.25-1.71,2.91,2.91,0,0,1,.59-.1,1.68,1.68,0,0,1,1.86,1.21c.08.73.46,1.37-.88,1.74"/><path class="cls-34" d="M340,336.13c-.71.28-.86-.38-1.3-.95a1.68,1.68,0,0,1,0-2,2.54,2.54,0,0,1,1.93-1,1.66,1.66,0,0,1,1.45.55,1.26,1.26,0,0,1,.17.93,2.94,2.94,0,0,1-2.11,2.35"/><path class="cls-34" d="M345.27,334.36a2.08,2.08,0,0,1-.88.47c-.58.22-1.15.62-1.66.4a1.14,1.14,0,0,1-.61-1,2.74,2.74,0,0,1,1.14-2.25,2.69,2.69,0,0,1,.46-.28,1.79,1.79,0,0,1,2.16.47c.41.61,1,1.05.06,1.81"/><path class="cls-34" d="M346.62,329c.74-.14,1,.24,1.27.78s.34,1-.11,1.39a3.08,3.08,0,0,1-2,.53,2.16,2.16,0,0,1-1.44-.51.71.71,0,0,1-.12-.68,2.62,2.62,0,0,1,2.31-1.47"/><path class="cls-34" d="M344,335.11c.74.14.82.6.77,1.21s-.17,1.08-.77,1.28a3.1,3.1,0,0,1-2.12-.25,1.86,1.86,0,0,1-1.07-1,.79.79,0,0,1,.22-.69,2.91,2.91,0,0,1,2.84-.55"/><path class="cls-34" d="M329.58,337.74c-.71-.05-.64-.28-1.36-.31a1.92,1.92,0,0,1-1.73-.87,1.33,1.33,0,0,1,.36-1.35,3.58,3.58,0,0,1,2.86-1.14,2.59,2.59,0,0,1,.62.1,1.83,1.83,0,0,1,1.42,2,2.05,2.05,0,0,1-2,1.55"/><path class="cls-34" d="M319.81,338c.17-.54.38-.44.53-1a1.52,1.52,0,0,1,1.14-1.17,1.56,1.56,0,0,1,1.25.51,2.44,2.44,0,0,1,.6,2.38,1.57,1.57,0,0,1-.2.46,1.9,1.9,0,0,1-2.18.73,1.63,1.63,0,0,1-1.15-1.82"/><path class="cls-34" d="M316.23,345.7c-1-.21-1.82-1.12-1.58-2A2.43,2.43,0,0,1,315,343a3.21,3.21,0,0,1,1.38-1.3,4.16,4.16,0,0,1,1.41-.22,4.48,4.48,0,0,1,1.32.09,1.28,1.28,0,0,1,.94.78,1.7,1.7,0,0,1,0,.55,3.35,3.35,0,0,1-.23,1.26C319.35,345.32,317.46,346,316.23,345.7Z"/><path class="cls-34" d="M323.27,349.33c-1-.21-1.82-1.12-1.58-2a2.43,2.43,0,0,1,.34-.66,3.18,3.18,0,0,1,1.39-1.3,4.07,4.07,0,0,1,1.4-.22,4.45,4.45,0,0,1,1.32.09,1.28,1.28,0,0,1,.94.78,1.7,1.7,0,0,1,0,.55,3.56,3.56,0,0,1-.22,1.26C326.39,349,324.5,349.58,323.27,349.33Z"/><path class="cls-34" d="M324.53,341.13c-1-.21-1.81-1.12-1.57-2a2.18,2.18,0,0,1,.34-.66,3.1,3.1,0,0,1,1.38-1.3,4.16,4.16,0,0,1,1.41-.22,4.5,4.5,0,0,1,1.32.09,1.34,1.34,0,0,1,.94.78,1.75,1.75,0,0,1,0,.56,3.79,3.79,0,0,1-.23,1.25C327.65,340.75,325.77,341.38,324.53,341.13Z"/><path class="cls-34" d="M325.31,337.06a2.5,2.5,0,0,1-2.86-.82,2.74,2.74,0,0,1-.25-.73,2.63,2.63,0,0,1,.1-1.82,3.27,3.27,0,0,1,1-.94,3.74,3.74,0,0,1,1.14-.64,1.68,1.68,0,0,1,1.37.14,2.24,2.24,0,0,1,.47.45,4.46,4.46,0,0,1,.8,1.16C327.55,335.06,326.51,336.6,325.31,337.06Z"/><path class="cls-34" d="M318.58,340.48c.14-.75.79-.58,1.61-.72a2.34,2.34,0,0,1,2.17.87,2.17,2.17,0,0,1,.24,2.14,1.63,1.63,0,0,1-1.24,1,2,2,0,0,1-1.11-.27,3,3,0,0,1-1.72-2.88"/><path class="cls-34" d="M328.22,334.47c-.63.43-.9-.31-1.44-.91a2.22,2.22,0,0,1-.39-2.25,2.32,2.32,0,0,1,1.7-1.4,1.55,1.55,0,0,1,1.52.43,1.8,1.8,0,0,1,.35,1.06,3.2,3.2,0,0,1-1.63,3"/><path class="cls-34" d="M321.75,346.68a2.7,2.7,0,0,1-1.09.12c-.69,0-1.44.18-1.82-.21a1,1,0,0,1-.06-1.19,3.44,3.44,0,0,1,2.25-1.71,2.91,2.91,0,0,1,.59-.1,1.65,1.65,0,0,1,1.85,1.21c.08.73.46,1.37-.87,1.74"/><path class="cls-34" d="M324.08,344.66c-.7.28-.85-.38-1.29-1a1.67,1.67,0,0,1,0-2,2.52,2.52,0,0,1,1.93-1,1.66,1.66,0,0,1,1.45.55,1.31,1.31,0,0,1,.17.93,3,3,0,0,1-2.12,2.35"/><path class="cls-34" d="M329.38,342.89a2.14,2.14,0,0,1-.88.47c-.59.22-1.15.62-1.66.4a1.14,1.14,0,0,1-.61-1,2.84,2.84,0,0,1,1.6-2.53,1.79,1.79,0,0,1,2.16.47c.41.61,1,1.05.06,1.81"/><path class="cls-34" d="M330.73,337.5c.73-.14,1,.24,1.26.78s.35,1-.1,1.39a3.1,3.1,0,0,1-2,.53,2.18,2.18,0,0,1-1.45-.51.73.73,0,0,1-.12-.68,2.64,2.64,0,0,1,2.32-1.47"/><path class="cls-34" d="M328.06,343.64c.74.14.82.6.77,1.21s-.18,1.08-.78,1.28a3.07,3.07,0,0,1-2.11-.25,1.86,1.86,0,0,1-1.07-1,.76.76,0,0,1,.22-.69,2.9,2.9,0,0,1,2.83-.55"/><path class="cls-34" d="M307.91,323.05c.09.64-.17.62-.07,1.26a1.6,1.6,0,0,1-.62,1.7,1.78,1.78,0,0,1-1.54-.06,3.12,3.12,0,0,1-1.78-2.32,2.18,2.18,0,0,1,0-.57,2,2,0,0,1,1.92-1.64,2.07,2.07,0,0,1,2.07,1.51"/><path class="cls-34" d="M310.07,331.64c-.61,0-.55-.25-1.17-.28a1.65,1.65,0,0,1-1.49-.78,1.2,1.2,0,0,1,.32-1.2,3,3,0,0,1,2.47-1,2.44,2.44,0,0,1,.54.09,1.62,1.62,0,0,1,1.21,1.79,1.78,1.78,0,0,1-1.76,1.37"/><path class="cls-34" d="M319.11,333.37a1.89,1.89,0,0,1-1.89,1.77,3.1,3.1,0,0,1-.79-.17,3.43,3.43,0,0,1-1.67-1,3.14,3.14,0,0,1-.5-1.21,3.43,3.43,0,0,1-.16-1.18,1.21,1.21,0,0,1,.68-1,2,2,0,0,1,.59-.13,4.83,4.83,0,0,1,1.42,0A3.14,3.14,0,0,1,319.11,333.37Z"/><path class="cls-34" d="M312.56,326.87a1.88,1.88,0,0,1-1.88,1.78,3,3,0,0,1-.79-.17,3.42,3.42,0,0,1-1.68-1,3.38,3.38,0,0,1-.5-1.21,3.22,3.22,0,0,1-.15-1.19,1.2,1.2,0,0,1,.67-1,2.49,2.49,0,0,1,.6-.14,5.13,5.13,0,0,1,1.41,0A3.11,3.11,0,0,1,312.56,326.87Z"/><path class="cls-34" d="M308,327a2,2,0,0,1-.34,2.68,3,3,0,0,1-.75.36,3.42,3.42,0,0,1-2,.26,3.56,3.56,0,0,1-1.21-.69,3.35,3.35,0,0,1-.91-.89,1.28,1.28,0,0,1-.11-1.24,2.09,2.09,0,0,1,.4-.49,5,5,0,0,1,1.11-.94A3.34,3.34,0,0,1,308,327Z"/><path class="cls-34" d="M313,332.27c-.85,0-.79-.59-1.09-1.29a1.87,1.87,0,0,1,.53-2.09,2.83,2.83,0,0,1,2.29-.61,1.67,1.67,0,0,1,1.36.9,1.47,1.47,0,0,1-.08,1,3.39,3.39,0,0,1-2.8,2.07"/><path class="cls-34" d="M304.62,324.87c.58.48-.17.86-.72,1.45a2.85,2.85,0,0,1-2.38.77,2.41,2.41,0,0,1-1.85-1.24,1.23,1.23,0,0,1,.19-1.43,2.31,2.31,0,0,1,1.08-.51,4,4,0,0,1,3.56.88"/><path class="cls-34" d="M319.13,328.29a2.06,2.06,0,0,1,.34.95c.13.6.46,1.24.11,1.64a1.33,1.33,0,0,1-1.27.29,3.5,3.5,0,0,1-2.3-1.67,2.75,2.75,0,0,1-.21-.51,1.47,1.47,0,0,1,1-1.87c.78-.21,1.4-.67,2.06.44"/><path class="cls-34" d="M316.49,326.61c.44.56-.25.83-.79,1.32a2.17,2.17,0,0,1-2.13.39,2.29,2.29,0,0,1-1.44-1.52,1.32,1.32,0,0,1,.32-1.39,1.68,1.68,0,0,1,1-.33,3.27,3.27,0,0,1,2.95,1.43"/><path class="cls-34" d="M313.57,322.25a1.93,1.93,0,0,1,.67.69c.35.48.9.9.75,1.39a1.27,1.27,0,0,1-1,.74,3.4,3.4,0,0,1-2.66-.58,3.33,3.33,0,0,1-.39-.36,1.4,1.4,0,0,1,.1-2c.59-.48.95-1.12,2-.4"/><path class="cls-34" d="M307.45,322.07c-.3-.62.06-.95.6-1.26s1-.5,1.53-.17a2.54,2.54,0,0,1,1,1.7,1.7,1.7,0,0,1-.29,1.38.86.86,0,0,1-.71.23,2.52,2.52,0,0,1-2-1.77"/><path class="cls-34" d="M314.63,323.28c0-.68.5-.84,1.17-.92s1.21-.05,1.54.45a2.33,2.33,0,0,1,.13,1.92,1.78,1.78,0,0,1-.91,1.14,1,1,0,0,1-.79-.06,2.35,2.35,0,0,1-1.13-2.41"/><path class="cls-22" d="M333.18,341.45c.48.48.25.6.74,1.07a1.6,1.6,0,0,1,.57,1.72,1.63,1.63,0,0,1-1.3.74,3.62,3.62,0,0,1-2.93-1,2.33,2.33,0,0,1-.37-.46,1.7,1.7,0,0,1,.53-2.33,2.3,2.3,0,0,1,2.66.16"/><path class="cls-22" d="M340.41,347.38c-.53.28-.61.08-1.14.38a1.75,1.75,0,0,1-1.72.12,1.23,1.23,0,0,1-.5-1.14,2.55,2.55,0,0,1,1.4-2.09,2,2,0,0,1,.5-.21,1.87,1.87,0,0,1,2.13.85,1.54,1.54,0,0,1-.58,2"/><path class="cls-22" d="M348.91,344.12a1.68,1.68,0,0,1-.42,2.43,3.19,3.19,0,0,1-.75.27,3.68,3.68,0,0,1-2,.06,5.81,5.81,0,0,1-2.06-1.62,1.13,1.13,0,0,1-.07-1.15,2,2,0,0,1,.41-.42,4.57,4.57,0,0,1,1.13-.76A3.63,3.63,0,0,1,348.91,344.12Z"/><path class="cls-22" d="M339.42,342.18a1.68,1.68,0,0,1-.42,2.43,2.8,2.8,0,0,1-.75.27,3.68,3.68,0,0,1-2,.06,3.55,3.55,0,0,1-1.17-.73,3.76,3.76,0,0,1-.89-.89,1.11,1.11,0,0,1-.06-1.15,2,2,0,0,1,.4-.42,4.57,4.57,0,0,1,1.13-.76A3.66,3.66,0,0,1,339.42,342.18Z"/><path class="cls-22" d="M335.72,344.62a2.08,2.08,0,0,1,1.42,2.38,2.52,2.52,0,0,1-.38.68,3.15,3.15,0,0,1-1.48,1.25,4,4,0,0,1-1.42.06,4.24,4.24,0,0,1-1.32-.26,1.43,1.43,0,0,1-.87-1,1.73,1.73,0,0,1,0-.6,3.92,3.92,0,0,1,.32-1.35C332.58,344.65,334.51,344.19,335.72,344.62Z"/><path class="cls-22" d="M343.2,346.39c-.69.45-1-.08-1.72-.5a1.93,1.93,0,0,1-.89-2,2.44,2.44,0,0,1,1.49-1.69,1.8,1.8,0,0,1,1.69,0,1.56,1.56,0,0,1,.59.88,2.93,2.93,0,0,1-1,3.15"/><path class="cls-22" d="M331.64,344.64c.78.1.4.8.33,1.57a2.45,2.45,0,0,1-1.46,1.86,2.61,2.61,0,0,1-2.3-.06,1.29,1.29,0,0,1-.76-1.27,1.87,1.87,0,0,1,.57-1,3.91,3.91,0,0,1,3.47-1.12"/><path class="cls-22" d="M345.7,340a2.38,2.38,0,0,1,.88.6c.49.43,1.17.77,1.14,1.29s-.42.72-.87.89a3.87,3.87,0,0,1-2.94-.18,5.09,5.09,0,0,1-.5-.3,1.42,1.42,0,0,1-.39-2c.5-.57.72-1.27,2-.69"/><path class="cls-22" d="M342.47,339.94c.72.23.32.8.2,1.49a2,2,0,0,1-1.51,1.42,2.7,2.7,0,0,1-2.15-.5,1.37,1.37,0,0,1-.61-1.31,1.46,1.46,0,0,1,.6-.78,3.47,3.47,0,0,1,3.33-.35"/><path class="cls-22" d="M337.3,337.87a2.12,2.12,0,0,1,1,.23c.6.2,1.31.27,1.51.75a1.08,1.08,0,0,1-.36,1.11,3.26,3.26,0,0,1-2.54.9,2.43,2.43,0,0,1-.55-.09,1.49,1.49,0,0,1-1.19-1.69c.17-.69.06-1.4,1.35-1.34"/><path class="cls-22" d="M332.18,340.9c-.64-.36-.56-.82-.31-1.36s.53-.94,1.14-.92a3,3,0,0,1,1.88.89,1.76,1.76,0,0,1,.64,1.28.77.77,0,0,1-.43.56,2.86,2.86,0,0,1-2.8-.4"/><path class="cls-22" d="M338.83,338.17c-.43-.56-.13-.95.38-1.35a1.44,1.44,0,0,1,1.54-.43,2.58,2.58,0,0,1,1.33,1.5,1.61,1.61,0,0,1,0,1.41.93.93,0,0,1-.69.35,2.75,2.75,0,0,1-2.46-1.38"/><line class="cls-35" x1="149.94" y1="128.53" x2="303.23" y2="323.21"/><text class="cls-14" transform="translate(97.37 110.99)">collu<tspan class="cls-36" x="51.01" y="0">v</tspan><tspan x="62.79" y="0">ium</tspan></text></g><g id="Layer_51" data-name="Layer 51"><path class="cls-37" d="M509.68,347.78a1.19,1.19,0,0,0-1.4-.89l-14,2.28a.72.72,0,0,0-.61.52l-2.79,11.7a2.1,2.1,0,0,1-1.91,1.53L471,364.54a1.64,1.64,0,0,0-1.5,1.21l-4.15,17.72L470,366.11a1.48,1.48,0,0,1,1.39-1l19.36-1a.83.83,0,0,0,.78-.6l3.13-11.61a1.91,1.91,0,0,1,1.68-1.36l12.3-1.46a1.11,1.11,0,0,0,1-1.25Z"/><path class="cls-38" d="M692.44,408.05,665.25,400l-3.4-1-1.7-.5c-.71-.2-1.41-.42-2.12-.59a47.38,47.38,0,0,0-8.71-1.33,46.82,46.82,0,0,0-8.78.3c-1.45.18-2.89.45-4.31.76-.71.16-1.41.34-2.11.53l-1,.3-.51.15-.42.14L618.65,403l-6.75,2.15-2.76.75c-.92.21-1.87.31-2.8.49a30.67,30.67,0,0,1-11.4-.68,29.69,29.69,0,0,1-10.31-4.84,26.32,26.32,0,0,1-7.36-8.25,18,18,0,0,1-1.2-2.46,15.89,15.89,0,0,1-.93-2.58l-.2-.65-.11-.33-.05-.17-.08-.27a16.63,16.63,0,0,0-2.89-6.06,19.27,19.27,0,0,0-7.1-5.86,21.92,21.92,0,0,0-4.48-1.6l-3.47-.79-13.88-3.17-27.75-6.33-1.74-.4c-.34-.07-.43-.12-.62-.16a4,4,0,0,1-.52-.16,5.43,5.43,0,0,1-1.78-1.06,4.74,4.74,0,0,1-1.25-1.63,4.7,4.7,0,0,1-.52-2,4.93,4.93,0,0,1,.34-2c0-.17.16-.32.22-.48l.12-.24.16-.22c.11-.16.18-.28.33-.48l.53-.65,4.22-5.21,8.44-10.43,2.11-2.61.53-.65.26-.33.34-.45a6.5,6.5,0,0,0,.6-1,6.8,6.8,0,0,0,.45-1,7.62,7.62,0,0,0-2.16-8.16,9.44,9.44,0,0,0-1.92-1.31,6.92,6.92,0,0,0-1.08-.47c-.37-.13-.76-.26-1-.32l-3.43-.93-3.43-.93-1.71-.47-.86-.23a2.2,2.2,0,0,1-.34-.13,1.08,1.08,0,0,1-.57-1.1,1.06,1.06,0,0,1,.27-.61,1.08,1.08,0,0,1,.28-.23l.18-.1.39-.15,6.55-2.6,4.81-1.9c1.09-.43,2.18-.83,3.28-1.22s2-.85,3.09-1.21,2.11-.84,3.17-1.24,2.06-.84,3.09-1.25l4.35-1.71c3.14-1.21,6.3-2.4,9.4-3.71.4-.17.8-.36,1.22-.5,1.28-.48,2.55-1,3.84-1.45a5.71,5.71,0,0,0,1.84-.84,5.45,5.45,0,0,0,.79-1,.64.64,0,0,0,.08-.14c-3.06,1-6.09,2.06-9.13,3.09l-9.9,3.36L522,309.32l-4.63,1.57-6.7,2.27-.44.15-.61.27a5,5,0,0,0-1.11.78,4.28,4.28,0,0,0-1.26,2.25,4.16,4.16,0,0,0,.27,2.5,4.52,4.52,0,0,0,1.77,2,5.72,5.72,0,0,0,1.26.58l.84.28,1.68.55,3.37,1.09,3.37,1.1c.32.1.47.17.65.24a4.2,4.2,0,0,1,.52.26,4.91,4.91,0,0,1,.88.68,3.56,3.56,0,0,1,.77,3.85,2.73,2.73,0,0,1-.23.45l0,0-.52.56-4.42,4.78-17.66,19.13-1.11,1.19c-.4.45-.83,1-1.21,1.45a18.29,18.29,0,0,0-1.95,3.22,18.09,18.09,0,0,0-1.25,3.53,16.32,16.32,0,0,0-.33,1.83l-.1.9-.09.67a18.78,18.78,0,0,1-4.38,9.7,21.74,21.74,0,0,1-9,6.21l-1.33.45-1.62.49-3.27,1-6.54,2-80,23.16L397.44,424l80.11-30.43,3.18-1.21,1.6-.61,1.84-.76a29.87,29.87,0,0,0,11.9-9.55,24.93,24.93,0,0,0,4.8-13.44,13,13,0,0,1,1.64-6.94c0,.07.05.15.08.22a11,11,0,0,0,2.54,3.79,12.6,12.6,0,0,0,4,2.69,8,8,0,0,0,1.15.44c.36.12.83.28,1.07.34L513,369l27.34,7.67,13.67,3.84,3.41,1a10.72,10.72,0,0,1,2.11.9,8.87,8.87,0,0,1,3.16,2.94,8.47,8.47,0,0,1,.9,1.87c.09.33.18.65.24,1l.41,1.7a24.19,24.19,0,0,0,1.06,3.62,27,27,0,0,0,1.47,3.52,36.76,36.76,0,0,0,9.72,12.21A42.33,42.33,0,0,0,591,417a45.31,45.31,0,0,0,16.86,1.86c1.42-.17,2.86-.29,4.26-.54s2.81-.59,4.16-.9l6.87-1.82,13.74-3.64.43-.11.34-.08.67-.16,1.36-.27c.91-.15,1.82-.27,2.74-.34a29.7,29.7,0,0,1,5.5.09,28.71,28.71,0,0,1,5.32,1.1c.43.13.85.29,1.28.43l1.66.58,3.34,1.18,97,32.06,51.16,16.91-30.36-27.1Z"/><polygon class="cls-9" points="670.06 353 700.19 321.69 672.57 316.44 650.65 316.44 601.11 266.13 628.28 326.73 670.06 353"/><path class="cls-39" d="M716.59,292.92l.07-.12,7.18,4.05,12.07,6.79L748,310.43l12.07,6.8L772.11,324l12.06,6.79L788,333l-32.2,6.17a12.93,12.93,0,0,1-3.39.34,12.77,12.77,0,0,1-3.25-.85l-49.92-17.86,18.66-30,2.08,2.91c.35.49.7,1,1.06,1.46a3.2,3.2,0,0,1,.51.82"/><polygon class="cls-26" points="717.28 289.8 788.28 333.43 752.85 340.8 717.28 289.8"/><polygon class="cls-39" points="382.9 334.07 303.34 360.86 377.94 367.64 382.9 334.07"/><polygon class="cls-19" points="673 305.32 673 348.17 689.73 341.9 683.55 332.26 687.09 332.26 680.82 322.46 683.97 322.46 673 305.32"/><polygon class="cls-19" points="673 305.32 673 348.17 656.27 341.9 662.44 332.26 658.9 332.26 665.18 322.46 662.03 322.46 673 305.32"/><polygon class="cls-19" points="705.63 302.11 705.63 341.12 720.86 335.42 715.24 326.64 718.46 326.64 712.75 317.71 715.61 317.71 705.63 302.11"/><polygon class="cls-19" points="705.63 302.11 705.63 341.12 690.39 335.42 696.01 326.64 692.79 326.64 698.5 317.71 695.64 317.71 705.63 302.11"/><polygon class="cls-19" points="726.38 316.62 726.38 355.63 741.62 349.92 736 341.14 739.22 341.14 733.51 332.22 736.37 332.22 726.38 316.62"/><polygon class="cls-19" points="726.38 316.62 726.38 355.63 711.15 349.92 716.77 341.14 713.55 341.14 719.26 332.22 716.4 332.22 726.38 316.62"/><polygon class="cls-19" points="688.3 333.54 688.3 362.8 699.73 358.52 695.51 351.94 697.93 351.94 693.65 345.24 695.79 345.24 688.3 333.54"/><polygon class="cls-19" points="688.3 333.54 688.3 362.8 676.88 358.52 681.1 351.94 678.68 351.94 682.96 345.24 680.82 345.24 688.3 333.54"/><polygon class="cls-19" points="268.41 302.17 268.41 334.62 281.08 329.88 276.4 322.57 279.08 322.57 274.33 315.15 276.72 315.15 268.41 302.17"/><polygon class="cls-19" points="268.41 302.17 268.41 334.62 255.74 329.88 260.42 322.57 257.74 322.57 262.49 315.15 260.1 315.15 268.41 302.17"/><polygon class="cls-19" points="654.02 348.17 654.02 377.43 665.45 373.15 661.23 366.57 663.65 366.57 659.37 359.87 661.51 359.87 654.02 348.17"/><polygon class="cls-19" points="654.02 348.17 654.02 377.43 642.6 373.15 646.82 366.57 644.4 366.57 648.68 359.87 646.53 359.87 654.02 348.17"/><polygon class="cls-19" points="370.67 342.96 370.67 372.23 382.09 367.95 377.88 361.36 380.3 361.36 376.01 354.67 378.16 354.67 370.67 342.96"/><polygon class="cls-19" points="370.67 342.96 370.67 372.23 359.25 367.95 363.46 361.36 361.05 361.36 365.33 354.67 363.18 354.67 370.67 342.96"/><polygon class="cls-19" points="737.67 333.54 737.67 362.8 749.09 358.52 744.88 351.94 747.3 351.94 743.01 345.24 745.16 345.24 737.67 333.54"/><polygon class="cls-19" points="737.67 333.54 737.67 362.8 726.25 358.52 730.46 351.94 728.04 351.94 732.33 345.24 730.18 345.24 737.67 333.54"/><polygon class="cls-19" points="764.63 314.78 764.63 348.17 777.66 343.29 772.85 335.77 775.61 335.77 770.72 328.13 773.17 328.13 764.63 314.78"/><polygon class="cls-19" points="764.63 314.78 764.63 348.17 751.59 343.29 756.4 335.77 753.64 335.77 758.53 328.13 756.08 328.13 764.63 314.78"/><path class="cls-40" d="M524.12,310.64l9.6,10.92a1.08,1.08,0,0,0,1,.34l11.3-1.77a.5.5,0,0,1,.34.07l8.36,5.51-8.2-5.84a.75.75,0,0,0-.51-.12l-10.73,1.49a1.14,1.14,0,0,1-1-.39l-9-11Z"/><path class="cls-41" d="M509.16,316.12,499.56,327a1.11,1.11,0,0,1-1,.34l-11.31-1.77a.49.49,0,0,0-.33.07l-8.36,5.51,8.2-5.84a.75.75,0,0,1,.51-.12L498,326.71a1.11,1.11,0,0,0,1-.38l9-11Z"/><polygon class="cls-42" points="775.92 478.76 839.09 467.59 939.09 457.88 976.45 466.93 805.17 510.81 768.45 492.61 775.92 478.76"/><path class="cls-18" d="M792.68,449.32l45.9,4.39a6.81,6.81,0,0,0,1,0L885.05,451a6.26,6.26,0,0,1,1.22,0l52.82,6.85a2.13,2.13,0,0,1,.31,4.23L804.66,496.49l-25.72-12.62a5,5,0,0,1-2.67-6.48l10.34-24.69A5.93,5.93,0,0,1,792.68,449.32Z"/><line class="cls-43" x1="664.64" y1="407.38" x2="723.9" y2="426.86"/><line class="cls-43" x1="510.37" y1="364.29" x2="545.4" y2="373.18"/><line class="cls-43" x1="475.07" y1="389.5" x2="420.33" y2="407.38"/><polyline class="cls-44" points="543 369.19 545.4 373.18 540.99 375.34"/><polyline class="cls-44" points="721.76 422.76 723.9 426.86 719.36 428.8"/><polyline class="cls-44" points="424.9 409.25 420.31 407.38 422.39 403.25"/><polygon class="cls-19" points="340.7 330.18 340.7 373.03 357.43 366.76 351.26 357.12 354.8 357.12 348.52 347.32 351.67 347.32 340.7 330.18"/><polygon class="cls-19" points="340.7 330.18 340.7 373.03 323.97 366.76 330.14 357.12 326.6 357.12 332.88 347.32 329.73 347.32 340.7 330.18"/><path class="cls-45" d="M521.41,338.84l12.24,8.49a1.14,1.14,0,0,0,1.06.11l10.49-4.19a.53.53,0,0,1,.35,0l9.59,3.52-9.53-3.87a.72.72,0,0,0-.52,0l-10,3.78a1.14,1.14,0,0,1-1.09-.14l-11.65-8.74Z"/></g><g id="Layer_59" data-name="Layer 59"><line class="cls-46" x1="908.05" y1="335.83" x2="874.34" y2="549.69"/><text class="cls-14" transform="translate(876.42 315.74)"><tspan class="cls-16">m</tspan><tspan x="20.36" y="0">ari</tspan><tspan class="cls-16" x="48.14" y="0">n</tspan><tspan x="61.29" y="0">e</tspan></text><path class="cls-24" d="M919.21,332.09a4.82,4.82,0,1,1-4.79-4.32A4.57,4.57,0,0,1,919.21,332.09Z"/><text class="cls-47" transform="matrix(1.07, -0.24, 0.26, 0.97, 783.1, 614.69)">ocean</text></g><g id="Layer_55" data-name="Layer 55"><text class="cls-48" transform="matrix(1, 0.01, -0.02, 1, 723.43, 194.17)">allu<tspan class="cls-49" x="38.91" y="0">v</tspan><tspan class="cls-50" x="50.71" y="0">ium</tspan></text><line class="cls-51" x1="741.28" y1="211.8" x2="536.28" y2="353.8"/></g></g></g></svg>