<svg xmlns="http://www.w3.org/2000/svg" viewBox="0 0 1422.07 666.19"><defs><style>.cls-1{font-size:45px;}.cls-1,.cls-4,.cls-6{fill:#df6572;}.cls-1,.cls-19,.cls-9{font-family:Acre-Light, Acre;font-weight:300;}.cls-2{letter-spacing:-0.01em;}.cls-3{letter-spacing:0em;}.cls-4,.cls-6{stroke:#df6572;}.cls-15,.cls-29,.cls-37,.cls-4,.cls-43,.cls-45,.cls-46,.cls-49,.cls-57,.cls-58,.cls-59,.cls-6,.cls-60,.cls-61,.cls-66,.cls-67,.cls-68,.cls-7,.cls-73,.cls-74{stroke-miterlimit:10;}.cls-4{stroke-width:2.12px;}.cls-5{letter-spacing:-0.01em;}.cls-6{stroke-width:1.89px;}.cls-15,.cls-29,.cls-32,.cls-42,.cls-45,.cls-47,.cls-57,.cls-58,.cls-62,.cls-66,.cls-67,.cls-7,.cls-73,.cls-74{fill:none;}.cls-7{stroke:#ec6a7c;}.cls-8{fill:#ec6a7c;}.cls-9{font-size:26.56px;}.cls-18,.cls-19,.cls-9{fill:#5c5052;}.cls-10{letter-spacing:-0.02em;}.cls-11{letter-spacing:-0.02em;}.cls-12{fill:#3e3628;}.cls-13{fill:#5d5053;}.cls-14{fill:#1f190e;}.cls-15{stroke:#332b1e;stroke-width:0.22px;}.cls-16,.cls-36,.cls-46,.cls-48,.cls-59,.cls-60,.cls-61{fill:#fff;}.cls-17{fill:#754c24;}.cls-19{font-size:26px;}.cls-20{letter-spacing:-0.02em;}.cls-21{letter-spacing:-0.01em;}.cls-22{letter-spacing:-0.01em;}.cls-23,.cls-40{fill:#ffce01;}.cls-24{fill:#3caba2;}.cls-25{fill:#2e61a2;}.cls-26,.cls-30,.cls-37,.cls-38,.cls-55,.cls-56{fill:#3daaa1;}.cls-27{fill:#336db5;}.cls-28{fill:#2e61a1;}.cls-29{stroke:#2e61a1;stroke-width:0.68px;}.cls-30{font-size:7.94px;font-family:Acre-Regular, Acre;}.cls-31{letter-spacing:0em;}.cls-32,.cls-42,.cls-43,.cls-45,.cls-49,.cls-59,.cls-60,.cls-61,.cls-62{stroke:#2b63a3;}.cls-32,.cls-42,.cls-47,.cls-48,.cls-62,.cls-73{stroke-linecap:round;}.cls-32,.cls-42,.cls-47,.cls-48,.cls-62{stroke-linejoin:round;}.cls-32{stroke-width:0.72px;}.cls-33,.cls-43,.cls-44,.cls-49,.cls-54{fill:#2b63a3;}.cls-34{fill:#eb6a7c;}.cls-35{fill:#336db4;}.cls-36{font-size:25.2px;}.cls-36,.cls-38,.cls-54,.cls-56{font-family:Acre-Bold, Acre;font-weight:700;}.cls-37{stroke:#fff;stroke-width:1.04px;}.cls-37,.cls-43,.cls-44,.cls-49,.cls-55{opacity:0.17;}.cls-38{font-size:7.99px;}.cls-39,.cls-41{fill:#f27243;}.cls-40,.cls-41{opacity:0.5;}.cls-42,.cls-45{stroke-width:2.08px;}.cls-43{stroke-width:1.04px;}.cls-46,.cls-47,.cls-48,.cls-57,.cls-58,.cls-74{stroke:#5c5052;}.cls-46,.cls-47,.cls-48,.cls-59{stroke-width:0.76px;}.cls-49{stroke-width:1.34px;}.cls-50{letter-spacing:0em;}.cls-51{letter-spacing:-0.01em;}.cls-52{letter-spacing:0em;}.cls-53{letter-spacing:0em;}.cls-54{font-size:18.47px;}.cls-56{font-size:6.49px;}.cls-57{stroke-width:0.59px;}.cls-58{stroke-width:0.6px;}.cls-60{stroke-width:0.47px;}.cls-61{stroke-width:0.66px;}.cls-62{stroke-width:2.08px;}.cls-63{letter-spacing:-0.02em;}.cls-64{letter-spacing:-0.01em;}.cls-65{letter-spacing:0.01em;}.cls-66,.cls-73{stroke:#336db4;}.cls-66{stroke-width:2.32px;}.cls-67,.cls-68{stroke:#5d5152;stroke-width:0.77px;}.cls-68{fill:#5d5152;}.cls-69{letter-spacing:-0.01em;}.cls-70{letter-spacing:-0.02em;}.cls-71{letter-spacing:-0.03em;}.cls-72{letter-spacing:-0.03em;}.cls-73{stroke-width:4.17px;}.cls-74{stroke-width:1.55px;}</style></defs><g id="Layer_2" data-name="Layer 2"><g id="Layer_4" data-name="Layer 4"><text class="cls-1" transform="translate(346.48 38.25)">p<tspan class="cls-2" x="27.72" y="0">h</tspan><tspan class="cls-3" x="52.96" y="0">y</tspan><tspan x="74.97" y="0">sical </tspan></text><line class="cls-4" x1="220.78" y1="63.74" x2="637.44" y2="63.74"/><text class="cls-1" transform="translate(344.16 351.59)">c<tspan class="cls-5" x="23.76" y="0">h</tspan><tspan x="48.78" y="0">emical</tspan></text><line class="cls-6" x1="251.23" y1="368.51" x2="622.66" y2="370.4"/><text class="cls-1" transform="translate(1098.94 38.32)">biological</text><line class="cls-4" x1="1014.87" y1="63.85" x2="1390.5" y2="63.85"/><line class="cls-7" x1="1090.28" y1="198.08" x2="971.04" y2="198.08"/><polygon class="cls-8" points="973.84 194.37 972.27 198.08 973.84 201.78 965.07 198.08 973.84 194.37"/><line class="cls-7" x1="1090.75" y1="330.4" x2="964.76" y2="269.91"/><polygon class="cls-8" points="968.89 267.78 965.87 270.44 965.68 274.46 959.38 267.32 968.89 267.78"/><line class="cls-7" x1="1087.43" y1="383.05" x2="969.7" y2="427.42"/><polygon class="cls-8" points="971.02 422.96 970.86 426.99 973.64 429.9 964.12 429.53 971.02 422.96"/><line class="cls-7" x1="1101.19" y1="535.29" x2="967.91" y2="492.99"/><polygon class="cls-8" points="971.71 490.31 969.09 493.36 969.47 497.37 962.22 491.18 971.71 490.31"/><g id="Layer_42" data-name="Layer 42"><text class="cls-9" transform="translate(1185.2 259.71)"><tspan class="cls-10">f</tspan><tspan x="6.83" y="0">au</tspan><tspan class="cls-11" x="38.35" y="0">n</tspan><tspan x="53.09" y="0">a</tspan></text><path class="cls-12" d="M1263.61,168.56a16.57,16.57,0,0,0,.85,6.67c.2.76.63,1.69,1.41,1.65l.16-1c1.84,1.21,2.17,3.9,3.93,5.23,1.51,1.13,3.64.93,5.45.38,3.19-1,6.08-2.87,9.34-3.53,1.64-.32,3.33-.33,5-.65a13.67,13.67,0,0,0,5.83-2.63,5.73,5.73,0,0,0,2-2.43,4.88,4.88,0,0,0-1.22-4.81,12.56,12.56,0,0,0-4.39-2.77,40.75,40.75,0,0,0-17.78-3.69c-2.73.13-6.27.48-8.68,1.9C1264.11,163.69,1261.92,167.23,1263.61,168.56Z"/><path class="cls-12" d="M1263.54,142.41a4,4,0,0,1-3.61,2.26,8.54,8.54,0,0,1-2.67-.68,13.49,13.49,0,0,0-6.65-1c-1.71.27-3.58,1.48-3.5,3.22.07,1.42,1.4,2.43,2.66,3.1a4.15,4.15,0,0,0,0-2.21,2.87,2.87,0,0,0,1.5,2.85,1,1,0,0,0,1.06,0c.34-.3.2-.88-.07-1.24a3.43,3.43,0,0,1-.75-1.13,2.41,2.41,0,0,0,1.28,1.27,2.14,2.14,0,0,0,.39-1.19,25.87,25.87,0,0,1,6.41,2.83,11.7,11.7,0,0,0,3.27,1.65,7.91,7.91,0,0,0,5.21-1,6.15,6.15,0,0,0,2.28-1.72,5.48,5.48,0,0,0,.53-4.59,11.08,11.08,0,0,0-5.38-7.08c-1-.52-2.5-1.09-2.59.36S1264.41,140.49,1263.54,142.41Z"/><path class="cls-12" d="M1258.2,189.34a18.77,18.77,0,0,0-3.8-.38,4.31,4.31,0,0,0-3.33,1.61l1.6,0a4.76,4.76,0,0,0-4,1.47,26.14,26.14,0,0,1,4.84.24,6,6,0,0,0-3,2.82c2.37.33,4.7-.6,7-1,3.8-.75,7.75-.26,11.59-.76a1.05,1.05,0,0,0,.63-.23c.4-.38,0-1.05-.37-1.45-1.7-1.72-2.51-2.27-4.87-2.06A27.08,27.08,0,0,1,1258.2,189.34Z"/><path class="cls-12" d="M1265.16,198.05a31.09,31.09,0,0,0-8.6-1.14,10.46,10.46,0,0,0-7.68,3.52l4.26-.88a6.93,6.93,0,0,0-4.28,2.68l5.09-.81a5.71,5.71,0,0,0-2.38,1.57.8.8,0,0,0-.29.69c.09.44.71.45,1.16.37a58.59,58.59,0,0,1,21.61-.09,7.75,7.75,0,0,0,2.62.2,2.42,2.42,0,0,0,2-1.52c.43-1.4-.91-2.65-1.42-4-.26-.68-.31-1.44-.61-2.11a4.65,4.65,0,0,0-4-2.39c-2.11-.21-4.09.53-4.31,2.78,0,.48.36,1.34-.11,1.7S1265.72,198.18,1265.16,198.05Z"/><path class="cls-13" d="M1293.39,170.52c-5.3-1.94-12.21-.37-16.93,2.72-3.09,2-5.48,4.91-7.82,7.76a16.26,16.26,0,0,0-2.05,2.91c-1.82,3.65-.62,8.07,1.11,11.77a2.47,2.47,0,0,0,.49.77,2.7,2.7,0,0,0,1.4.51,13.34,13.34,0,0,1,6.09,2.83l-.59-2.15a20.32,20.32,0,0,0,15.28,9.79l-1.18-1.66,7.48.11a1.85,1.85,0,0,1-1.06-1.48c4.23.82,3.48,0,8.09,1.8,1.77-1.35,3.64-3.15,3.9-5.39.54,1,1.53,2.24,2.61,1.79a2.44,2.44,0,0,0,1-1.07c4.15-6.89,8.35-13.9,10.39-21.68.83-3.16,1.26-6.63,0-9.62a7.12,7.12,0,0,1-.78-2.13,7.24,7.24,0,0,1,.28-1.95c1-4.84-2-9.51-4.85-13.55A32.39,32.39,0,0,0,1305,138.46a1.07,1.07,0,0,0,1.31-.64,25,25,0,0,0-8-2.62l1.21-.48-7.4-5.11a18.9,18.9,0,0,1-3.08-2.46c-1.74-1.83-2.67-4.27-4.06-6.37a17.23,17.23,0,0,0-12.45-7.55,35,35,0,0,0-4.1-.09l-7.43.15.32-1.1-9.5,2.72a2.66,2.66,0,0,0-1.16.55,2.47,2.47,0,0,0-.61,1.19,9.48,9.48,0,0,0-.12,5.48c.56,1.77,2,3.84,3.86,4.27a1.91,1.91,0,0,0-.56,2.26,5.42,5.42,0,0,0,1.53,2l6.74,6.37a13.31,13.31,0,0,1,3.28,4.05c1.38,3.17,0,7.07-2.7,9.27s-6.29,2.9-9.75,2.77a40,40,0,0,0-5.13-.15,6.26,6.26,0,0,0-4.5,2.17,3.49,3.49,0,0,0,.28,4.65,2.74,2.74,0,0,0,.65-2.14,3.51,3.51,0,0,0,1.37,4l.91-3.31a1.74,1.74,0,0,0,.79,2.73,6.65,6.65,0,0,0,.4-4.13l3.67,1.12a2.57,2.57,0,0,1,1.4.76c.32.44.24,1.2-.27,1.36a20.08,20.08,0,0,0,7.95,1.58l-1.19,1.2,2.88-.56a3.11,3.11,0,0,1-.19,1.6l4,.89a11.6,11.6,0,0,0,3.26.39,5.83,5.83,0,0,0,4.88-3.6s9.38,7,19.87,8.87"/><path class="cls-14" d="M1264.4,117.64a4.8,4.8,0,0,1,3,.4.6.6,0,0,1,.41.31.56.56,0,0,1-.16.48,3.5,3.5,0,0,1-1.94,1.32,2.41,2.41,0,0,1-2.33-.76C1262.55,118.54,1263.49,117.94,1264.4,117.64Z"/><path class="cls-14" d="M1250.94,115.11a3.51,3.51,0,0,0-1.48,3,1.13,1.13,0,0,0,.23.76.52.52,0,0,0,.72.08.78.78,0,0,0,.18-.35,2.32,2.32,0,0,1,1.23-1.29c.33-.15.75-.28.83-.63s-.38-1.18-.5-1.49,0-.32-.33-.41S1251.14,115,1250.94,115.11Z"/><path class="cls-12" d="M1284.43,124.81l.16-.58a3.85,3.85,0,0,1,1.52,3.33,5.24,5.24,0,0,1-1.61,3.36,4,4,0,0,1-3.07,1.29,2.32,2.32,0,0,1-2.14-2.24,1.05,1.05,0,0,1,.35-.77.58.58,0,0,1,.79.05l-.41-1.5a1.05,1.05,0,0,1,.7,0c.32-.6-.72-1.16-.37-1.74.31.06.61.15.91.22.19-.59.24-1,.86-1.33C1282.3,124.82,1284.57,124.29,1284.43,124.81Z"/><path class="cls-15" d="M1253.83,126.47c1.2.59,1.18.36,2.3.84a5.57,5.57,0,0,1,2.85,2.2"/><path class="cls-13" d="M1278.53,166.34l.08-.52a14,14,0,0,0,5.29,2.88,2.47,2.47,0,0,0-.37-.85,16.71,16.71,0,0,0,8.72,3.05,3.43,3.43,0,0,0,2.34-.51.61.61,0,0,0,.28-.59.7.7,0,0,0-.34-.36,66,66,0,0,0-5.82-3.21,60.15,60.15,0,0,0-7.09-3.21c-1.88-.66-3.82-1.12-5.66-1.88-.54-.22-1.73-.81-2.24-.21s.39,1.32.8,1.74c.66.66,1.33,1.31,2,1.94C1276.78,164.82,1278.57,166.12,1278.53,166.34Z"/><path class="cls-16" d="M1266.94,118.06a1.2,1.2,0,0,0-.51-.21.44.44,0,0,0-.23,0,.21.21,0,0,0-.13.17c0,.14.17.2.31.23l.42.07a.33.33,0,0,0,.17,0,.16.16,0,0,0-.07-.31"/><path class="cls-17" d="M1348.08,186.78c2.45-.06,5.22,1.88,5.5,4.42a6.64,6.64,0,0,1-.14,2,7.49,7.49,0,0,1-1.94,4.35,7.92,7.92,0,0,1-3,1.45,8.85,8.85,0,0,1-3.11.59,3.63,3.63,0,0,1-2.88-1.52,5.55,5.55,0,0,1-.6-1.47,12,12,0,0,1-.67-3.52C1341.29,189.74,1345,186.87,1348.08,186.78Z"/><path class="cls-17" d="M1339.72,187.11c1.73-.47,1.64,1.5,2.24,3.35a6.17,6.17,0,0,1-1.24,5.64,5.48,5.48,0,0,1-4.89,1.89,3.32,3.32,0,0,1-2.84-2.27,4.93,4.93,0,0,1,.23-2.78,8.34,8.34,0,0,1,6.19-5.7"/><path class="cls-17" d="M1340.76,196.59c1.5.7,1.13,1.2,2.64,1.86s2.94,2,2.92,3.52a3.7,3.7,0,0,1-2,2.92,7.86,7.86,0,0,1-7.19.33,6.65,6.65,0,0,1-1.26-.75,4.68,4.68,0,0,1-1.18-6,4.85,4.85,0,0,1,5.79-2"/><path class="cls-17" d="M1344.62,201c-.25-1.78,1.7-1.45,3.6-1.81a6.15,6.15,0,0,1,5.44,1.92,5.48,5.48,0,0,1,1.28,5.1,3.32,3.32,0,0,1-2.61,2.53,4.93,4.93,0,0,1-2.73-.57,8.33,8.33,0,0,1-4.88-6.85"/><path class="cls-17" d="M1333.77,207c-.26-1.78,1.69-1.44,3.6-1.81a6.17,6.17,0,0,1,5.44,1.92,5.5,5.5,0,0,1,1.27,5.1,3.32,3.32,0,0,1-2.61,2.53,4.88,4.88,0,0,1-2.72-.57,8.32,8.32,0,0,1-4.89-6.85"/><path class="cls-17" d="M1334.56,199.33c1.7,1.41,2.34,4.2.91,5.88a6.12,6.12,0,0,1-1.37,1.11,7.36,7.36,0,0,1-4.11,1.46,8.33,8.33,0,0,1-3-.91,8.9,8.9,0,0,1-2.49-1.47,2.93,2.93,0,0,1-1-2.61,4.35,4.35,0,0,1,.54-1.23,9.71,9.71,0,0,1,1.8-2.5C1328.07,197.11,1332.43,197.58,1334.56,199.33Z"/><path class="cls-17" d="M1328,189.94a4.87,4.87,0,0,1,2.43-.07c1.52.13,3.22-.15,4,.94a3.1,3.1,0,0,1,0,3.08,7.48,7.48,0,0,1-5.22,4,5.45,5.45,0,0,1-1.33.12,4,4,0,0,1-4-3.54c-.09-1.89-.85-3.63,2.16-4.31"/><path class="cls-17" d="M1319.41,207.17c-1.62-.27-1.89-1.35-1.9-2.75s.18-2.54,1.43-3a6.31,6.31,0,0,1,4.61.41,4.41,4.41,0,0,1,2.49,2.28,1.81,1.81,0,0,1-.35,1.62c-1.06,1.49-3.49,2.1-6,1.5"/><path class="cls-18" d="M1217.56,206.66s2.57-19.35-14.4-25.06c-11.85-4-23.81,2.55-23.81,2.55s-11.42,5.66-14.12-2.73c-2.13-6.61,4.6-14.77,4.6-14.77s5.66-6.71,7.91-13.35c2.18-6.42.56-15.7-9.52-19.81-23.71-9.68-24.68,24.45-24.68,24.45s.12,15.43-9.86,10.49c-11.4-5.63-.93-16-.93-16s7.31-6.45,7.61-12c.28-4.87-7.59-.15-7.59-.15s-26.4,16.61-9.77,33.26c9.37,9.37,21.1,6.75,25.93-.75,4.1-6.35,3.86-14.67,3.86-14.67s.6-17.29,10.59-14.78c11.53,2.9.19,17,.19,17s-14.11,13.65-5.28,27.29,24.87,5.31,24.87,5.31,9.75-4.79,14.87-2.62a17.38,17.38,0,0,1,11,14.17s1.14,5.26,5.78,4.9C1217.76,209.18,1217.56,206.66,1217.56,206.66Z"/></g><g id="Layer_41" data-name="Layer 41"><text class="cls-19" transform="translate(1201.76 448.74)"><tspan class="cls-20">r</tspan><tspan x="7.38" y="0">o</tspan><tspan class="cls-21" x="23.04" y="0">o</tspan><tspan class="cls-22" x="38.35" y="0">t</tspan><tspan x="45.29" y="0">s</tspan></text><path class="cls-18" d="M1151.12,367.5a23.68,23.68,0,0,1,8.49-3.44c3-.62,6-1.06,9-1.61s6-1.11,9-1.78a81.93,81.93,0,0,0,17.31-5.65,35.77,35.77,0,0,0,7.61-4.82,20.92,20.92,0,0,0,5.5-6.92,21.36,21.36,0,0,0,.82-2,11.64,11.64,0,0,0,.49-2.1,43.73,43.73,0,0,0,.26-4.5,19.41,19.41,0,0,1,.63-4.73,18.68,18.68,0,0,1,1.94-4.38,45.36,45.36,0,0,1,5.9-7.23c1-1.12,2.06-2.23,3-3.39.47-.58.92-1.17,1.34-1.77.2-.3.38-.6.56-.9s.35-.62.5-1a39,39,0,0,0,2.54-8.53c.33-1.69.63-3.4.91-5.11h0a1.66,1.66,0,0,1,1.45-1.44c1.74-.13,1.47,3.83,1.47,3.83h0a15.36,15.36,0,0,0,.64,5c1.3,4.26,4.45,7.9,8,10.92a79.13,79.13,0,0,0,11.85,8c4.18,2.38,8.49,4.57,12.72,7a48.27,48.27,0,0,1,6.16,4,56.61,56.61,0,0,1,5.47,4.89c3.44,3.46,6.57,7.16,9.73,10.81a137.37,137.37,0,0,0,9.88,10.58,36.38,36.38,0,0,0,12,7.88,36.48,36.48,0,0,1-12.31-7.57,136.45,136.45,0,0,1-10.23-10.32c-3.27-3.57-6.5-7.16-10-10.47a55.69,55.69,0,0,0-5.47-4.62,48.73,48.73,0,0,0-6.08-3.73c-1.84-1-3.71-1.92-5.58-2.86l2,1.18c1,.61,2,1.24,3,1.91.5.33,1,.68,1.49,1.06a9.11,9.11,0,0,1,1.48,1.36l.18.25.13.21.24.4c.17.26.3.55.45.82a15.49,15.49,0,0,1,.76,1.72,18.67,18.67,0,0,1,.93,3.58c.76,4.88,0,9.65-.76,14.27-.37,2.31-.74,4.61-.93,6.91a61.92,61.92,0,0,0-.11,6.95c.06,1.32.18,2.64.35,3.95q2.11,1.05,4.26,2c3.6,1.65,7.24,3.22,10.8,5a61.74,61.74,0,0,1,10.17,6.26,53.29,53.29,0,0,1,8.54,8.31,76.55,76.55,0,0,1,6.88,9.72,47.34,47.34,0,0,1,4.89,10.83,23.84,23.84,0,0,1,1,5.86,13.74,13.74,0,0,1-1.07,5.81,13.71,13.71,0,0,0,1-5.8,23.63,23.63,0,0,0-1-5.83,47.27,47.27,0,0,0-5-10.71,76.13,76.13,0,0,0-7-9.58,52.22,52.22,0,0,0-8.56-8.12,61.64,61.64,0,0,0-10.13-6c-3.55-1.72-7.21-3.24-10.84-4.85-1.25-.55-2.48-1.12-3.72-1.7.1.59.2,1.17.33,1.75a31,31,0,0,0,2.16,6.57,30.48,30.48,0,0,0,3.68,5.88c1.43,1.84,3,3.6,4.42,5.47a20.74,20.74,0,0,1,3.47,6.12,14.6,14.6,0,0,1,.55,7,14.54,14.54,0,0,0-.73-6.9,20.91,20.91,0,0,0-3.59-6c-1.48-1.81-3.08-3.52-4.57-5.35a31.23,31.23,0,0,1-3.93-5.9,31.9,31.9,0,0,1-2.41-6.7c-.2-.82-.36-1.66-.5-2.49-2-1-4-1.94-5.88-3a60.93,60.93,0,0,1-10.06-6.52,27.16,27.16,0,0,1-7.57-9.42,16.71,16.71,0,0,1-1.49-6,47.83,47.83,0,0,1,.23-6A28.59,28.59,0,0,0,1240,338c-.08-.62-.2-1.25-.32-1.87a34.34,34.34,0,0,1-2.92,5.15c-1.51,2.28-3.08,4.45-4.43,6.73a36.57,36.57,0,0,0-1.85,3.5,25.75,25.75,0,0,0-1.32,3.69,21.76,21.76,0,0,0-.62,3.85,20.42,20.42,0,0,0,.19,3.91,25.61,25.61,0,0,0,2.38,7.53c.57,1.2,1.23,2.35,1.91,3.52s1.35,2.35,2,3.56a34.74,34.74,0,0,1,3,7.56,15.74,15.74,0,0,1,.49,4,9.28,9.28,0,0,1-1,3.92,11.33,11.33,0,0,0,.12-7.87,34.53,34.53,0,0,0-3.29-7.31c-.67-1.16-1.38-2.3-2.11-3.43s-1.43-2.32-2-3.54a26.55,26.55,0,0,1-2.68-7.79,21.31,21.31,0,0,1-.3-4.15,23.13,23.13,0,0,1,.55-4.15,27.78,27.78,0,0,1,1.3-4,38.52,38.52,0,0,1,1.83-3.7c.81-1.44,1.68-2.83,2.56-4.2-1.57,1.43-3.18,2.79-4.68,4.23s-2.69,2.65-3.94,4.06a37.84,37.84,0,0,0-3.39,4.5,27.21,27.21,0,0,0-3.91,10.49,39.39,39.39,0,0,0-.47,5.65,45.08,45.08,0,0,0,.26,5.68c.17,1.9.38,3.8.36,5.72a17.62,17.62,0,0,1-.87,5.63,17.56,17.56,0,0,0,.71-5.63c0-1.9-.29-3.79-.52-5.68a45.58,45.58,0,0,1-.42-5.72,41,41,0,0,1,.32-5.75,28.11,28.11,0,0,1,3.72-10.89,39.18,39.18,0,0,1,3.36-4.72c1.23-1.48,2.55-2.89,3.9-4.25,2.71-2.74,5.69-5.14,8-8A16.94,16.94,0,0,0,1238,335a14.49,14.49,0,0,0,.54-1.74v0a.93.93,0,0,1,.27-.47h0l-.12-.37a57.3,57.3,0,0,0-5.24-10.44c-1-1.7-2-3.4-3-5.15-.46-.91-.94-1.81-1.39-2.72s-.78-1.9-1.11-2.87a25.42,25.42,0,0,1-.91-3.66,30.39,30.39,0,0,1-1.72,4.62c-.17.36-.39.71-.58,1.07s-.44.71-.67,1c-.47.64-1,1.26-1.46,1.86-1,1.2-2.08,2.33-3.15,3.43a44.34,44.34,0,0,0-5.81,6.84,16.7,16.7,0,0,0-1.84,3.95,18,18,0,0,0-.64,4.34c-.09,1.5-.12,3.06-.36,4.64a13.73,13.73,0,0,1-.6,2.35,19.9,19.9,0,0,1-.92,2.19,22.23,22.23,0,0,1-6,7.23,37.13,37.13,0,0,1-7.94,4.83,81.92,81.92,0,0,1-17.6,5.39c-3,.62-6,1.14-9,1.62s-6.06.88-9,1.44a23.47,23.47,0,0,0-8.47,3.26c-2.56,1.66-4.86,3.69-7.28,5.55C1146.31,371.29,1148.58,369.22,1151.12,367.5ZM1241,328.13a14.15,14.15,0,0,1-.37,4.76,29.14,29.14,0,0,1,1,4.91,30.24,30.24,0,0,1,0,6.09,48.41,48.41,0,0,0-.31,5.83,15.42,15.42,0,0,0,1.3,5.5,25.89,25.89,0,0,0,7.09,9,59.39,59.39,0,0,0,9.78,6.51q2.55,1.41,5.16,2.72c-.15-1.1-.27-2.21-.35-3.32a60.05,60.05,0,0,1-.09-7.1c.13-2.38.45-4.72.75-7,.6-4.63,1.21-9.29.39-13.71a16.17,16.17,0,0,0-.93-3.18,11.13,11.13,0,0,0-.7-1.48,6.23,6.23,0,0,0-.41-.71l-.22-.34-.11-.18-.07-.09a7.08,7.08,0,0,0-1.12-1c-.44-.33-.91-.66-1.39-1-1-.62-2-1.23-3-1.82-4-2.37-8.12-4.65-12.13-7.15-2-1.26-4-2.56-5.9-4-.46-.35-.91-.72-1.36-1.1.4.67.79,1.36,1.13,2.07A16.92,16.92,0,0,1,1241,328.13Zm-8.87-12.27c.93,1.72,1.94,3.42,2.93,5.14a77.48,77.48,0,0,1,4.07,7.78c0-.15,0-.3,0-.45-.43-3.53-2.46-6.73-4.67-9.73-.86-1.18-1.78-2.33-2.69-3.51Z"/><circle class="cls-23" cx="1197.2" cy="339.55" r="2.87"/><circle class="cls-8" cx="1168.18" cy="333.81" r="2.87"/><circle class="cls-24" cx="1215.54" cy="376.87" r="2.87"/><circle class="cls-25" cx="1168.18" cy="378.14" r="2.87"/><circle class="cls-23" cx="1177.77" cy="361.33" r="2.87"/><circle class="cls-23" cx="1260.29" cy="394.4" r="2.87"/><circle class="cls-8" cx="1194.33" cy="397.27" r="2.87"/><circle class="cls-26" cx="1264.44" cy="378.14" r="2.87"/><circle class="cls-27" cx="1259.69" cy="341.76" r="2.87"/><circle class="cls-23" cx="1232.45" cy="357.09" r="2.87"/><circle class="cls-8" cx="1281.29" cy="382.52" r="2.87"/><circle class="cls-23" cx="1287.33" cy="349.55" r="2.87"/><circle class="cls-26" cx="1228.28" cy="407.99" r="2.87"/><circle class="cls-8" cx="1300.57" cy="383.88" r="2.87"/><circle class="cls-8" cx="1253.22" cy="359.96" r="2.87"/><path class="cls-28" d="M1110.23,331.57a6,6,0,0,1,7.56-4.49,6.39,6.39,0,0,1,2.35,1.09l-.79,3.23a4.1,4.1,0,0,0-2.17-1.26,3,3,0,1,0-1.46,5.9,3.9,3.9,0,0,0,2.51-.1l-.8,3.25a6.62,6.62,0,0,1-2.59-.15A6,6,0,0,1,1110.23,331.57Z"/><path class="cls-28" d="M1119.74,333.9a6.23,6.23,0,1,1,4.57,7.51A6,6,0,0,1,1119.74,333.9Zm9,2.21a3,3,0,1,0-3.63,2.25A3,3,0,0,0,1128.69,336.11Z"/><path class="cls-28" d="M1130.54,347.5c.91-.57,1.88-1.18,2.73-1.74a1.94,1.94,0,0,0,.93-1,.66.66,0,0,0-.48-.79.85.85,0,0,0-1,.76l-1.57-.87a2.45,2.45,0,0,1,3-1.69,2.35,2.35,0,0,1,1.89,2.77,3.19,3.19,0,0,1-1.66,1.94l-.9.62,1.81.45-.42,1.7-4.58-1.13Z"/><path class="cls-28" d="M1315.61,367.75a6,6,0,0,1,4.25-7.7,6.51,6.51,0,0,1,2.58-.24l1,3.19a4,4,0,0,0-2.51,0,3,3,0,1,0,1.72,5.83,4,4,0,0,0,2.11-1.36l1,3.21a6.46,6.46,0,0,1-2.31,1.18A6,6,0,0,1,1315.61,367.75Z"/><path class="cls-28" d="M1325,365a6.23,6.23,0,1,1,7.73,4.18A6.05,6.05,0,0,1,1325,365Zm8.84-2.61a3,3,0,1,0-2,3.78A3,3,0,0,0,1333.83,362.35Z"/><path class="cls-28" d="M1341.17,371.25c.5-.94,1-2,1.49-2.87A2,2,0,0,0,1343,367a.67.67,0,0,0-.82-.45.86.86,0,0,0-.46,1.15l-1.8.05a2.47,2.47,0,0,1,1.73-3,2.35,2.35,0,0,1,3,1.44,3.12,3.12,0,0,1-.45,2.51c-.14.31-.32.67-.46,1l1.78-.52.5,1.68-4.52,1.33Z"/><polyline class="cls-29" points="1125.99 371.06 1132.73 387.9 1150.68 390.49"/><line class="cls-29" x1="1127.66" y1="397.27" x2="1134.63" y2="388.42"/><line class="cls-29" x1="1124.9" y1="395.1" x2="1131.87" y2="386.25"/><text class="cls-30" transform="translate(1118.59 401.28) rotate(20.68)">O</text><text class="cls-30" transform="matrix(-0.94, -0.35, -0.35, 0.94, 1162.86, 398.55)">HO</text><text class="cls-30" transform="translate(1112.17 367.29) rotate(20.68)">CH</text><text class="cls-30" transform="matrix(0.55, 0.21, -0.21, 0.55, 1121.08, 373.48)">3</text></g><g id="Layer_40" data-name="Layer 40"><path class="cls-28" d="M1110.36,524.86a5.66,5.66,0,0,1,3.8-7.4,6.22,6.22,0,0,1,2.43-.3l1,3a3.82,3.82,0,0,0-2.37.09,2.87,2.87,0,1,0,1.8,5.45,3.73,3.73,0,0,0,2-1.34l1,3a6.36,6.36,0,0,1-2.14,1.18A5.65,5.65,0,0,1,1110.36,524.86Z"/><text class="cls-19" transform="translate(1173.28 647.18)">mic<tspan class="cls-20" x="42.98" y="0">r</tspan><tspan x="50.36" y="0">ob</tspan><tspan class="cls-31" x="82.05" y="0">e</tspan><tspan x="96.61" y="0">s</tspan></text><path class="cls-32" d="M1328.79,563.75s8.71-13.19,8.49-24.77"/><polygon class="cls-33" points="1338.92 540.09 1337.27 539.51 1335.71 540.3 1337.07 536.39 1338.92 540.09"/><path class="cls-34" d="M1186.74,554.72a6.26,6.26,0,0,0-8.93-5.67c-13,3.93-19.52,16.38-19.52,16.38h0a5.81,5.81,0,0,0-.74,2.85,5.88,5.88,0,0,0,10.5,3.64,55.45,55.45,0,0,1,14.72-11.37,5.91,5.91,0,0,0,.8-.39h0A6.24,6.24,0,0,0,1186.74,554.72Z"/><path class="cls-34" d="M1193.53,578.2a6.79,6.79,0,0,0,1.17-3.82,6.86,6.86,0,0,0-12.94-3.2,83.24,83.24,0,0,0-9.61,29.88h0a6.68,6.68,0,0,0,0,.78,6.86,6.86,0,0,0,13.72,0S1185.6,592.85,1193.53,578.2Z"/><path class="cls-34" d="M1222,598.57h0a5.48,5.48,0,0,0-.75-.6,50,50,0,0,1-12.46-15h0a5.33,5.33,0,1,0-9.5,4.76h0c9.18,16.85,16.11,19.78,16.11,19.78h0a5.61,5.61,0,0,0,6.6-9Z"/><path class="cls-35" d="M1278.11,539.19s-15.89,0-17,15.56c-.28,4,8.6,3.4,13.59,2.72.41,6.58,1.75,31.33-.51,37.87,0,0-.18,1.72,4.78,1.56s6-3.1,6-3.1,2.71,2.53-3.73-36.38c4.93.69,14.15,1.43,13.93-2.67C1294.34,539.73,1278.11,539.19,1278.11,539.19Z"/><path class="cls-35" d="M1306.38,571.42s9.4,3.38,6.76,12.82c-.68,2.43-5.81.19-8.62-1.28-1.64,3.81-7.7,18.17-7.75,22.52,0,0-.26,1-3.17-.1s-2.86-3.1-2.86-3.1-2.14.92,9.94-20.73c-3.06-.64-8.67-2.16-7.67-4.54C1296.67,568.29,1306.38,571.42,1306.38,571.42Z"/><path class="cls-35" d="M1243.61,557.86s13.09-4.42,18.63,8.93c1.42,3.44-6.08,5.37-10.39,6.17,1.62,5.89,7.85,28,11.65,33.11,0,0,.66,1.46-3.48,2.71s-5.82-1.07-5.82-1.07-1.49,3-7.72-33c-3.85,2-11.22,5.19-12.26,1.53C1230.41,562.84,1243.61,557.86,1243.61,557.86Z"/><path class="cls-28" d="M1329.69,510.14a6.31,6.31,0,0,1,8.45-3.81,7,7,0,0,1,2.33,1.42l-1.22,3.29a4.2,4.2,0,0,0-2.12-1.57,3.2,3.2,0,1,0-2.22,6,4.18,4.18,0,0,0,2.63.19l-1.23,3.3a6.79,6.79,0,0,1-2.68-.46A6.28,6.28,0,0,1,1329.69,510.14Z"/><path class="cls-28" d="M1339.37,513.71a6.56,6.56,0,1,1,3.88,8.4A6.35,6.35,0,0,1,1339.37,513.71Zm9.1,3.37a3.14,3.14,0,1,0-4.07,1.93A3.13,3.13,0,0,0,1348.47,517.08Z"/><path class="cls-28" d="M1349.05,529.22l3.07-1.49a2,2,0,0,0,1.08-1,.69.69,0,0,0-.4-.89.89.89,0,0,0-1.11.69l-1.55-1.1a2.6,2.6,0,0,1,3.32-1.42,2.5,2.5,0,0,1,1.65,3.13,3.36,3.36,0,0,1-2,1.82l-1,.55,1.84.69-.65,1.72-4.65-1.72Z"/><path class="cls-28" d="M1119.15,522a5.89,5.89,0,1,1,7.42,3.73A5.71,5.71,0,0,1,1119.15,522Zm8.27-2.72a2.81,2.81,0,1,0-1.78,3.63A2.8,2.8,0,0,0,1127.42,519.23Z"/><path class="cls-28" d="M1134.61,527.43c.45-.91.92-1.89,1.32-2.76a1.88,1.88,0,0,0,.24-1.28.62.62,0,0,0-.78-.39.8.8,0,0,0-.4,1.1l-1.7.09a2.32,2.32,0,0,1,1.54-2.85,2.22,2.22,0,0,1,2.9,1.27,3,3,0,0,1-.35,2.38c-.13.3-.29.65-.41,1l1.67-.55.51,1.57-4.23,1.39Z"/><path class="cls-32" d="M1140.12,566.83s-11.57-10.76-14.09-22.07"/><polygon class="cls-33" points="1127.87 545.67 1126.16 545.28 1124.7 546.23 1125.62 542.2 1127.87 545.67"/></g><g id="Layer_39" data-name="Layer 39"><circle class="cls-16" cx="698.49" cy="499.85" r="19.4"/><circle class="cls-23" cx="698.49" cy="499.85" r="19.4"/><text class="cls-36" transform="translate(690.12 508.85)">A</text><circle class="cls-16" cx="712.12" cy="483.54" r="5.66"/><circle class="cls-37" cx="712.12" cy="483.54" r="5.66"/><text class="cls-38" transform="translate(709.03 485.91)">e</text><text class="cls-38" transform="translate(713.48 483.25) scale(0.58)">-</text><circle class="cls-16" cx="717.83" cy="495.68" r="5.66"/><circle class="cls-37" cx="717.83" cy="495.68" r="5.66"/><text class="cls-38" transform="translate(714.74 498.05)">e</text><text class="cls-38" transform="translate(719.19 495.39) scale(0.58)">-</text><circle class="cls-16" cx="807.02" cy="499.74" r="19.4"/><circle class="cls-23" cx="807.02" cy="499.74" r="19.4"/><text class="cls-36" transform="translate(798.66 508.73)">A</text><circle class="cls-16" cx="698.83" cy="555.31" r="19.4"/><circle class="cls-39" cx="698.83" cy="555.31" r="19.4"/><text class="cls-36" transform="translate(691.11 564.3)">B</text><circle class="cls-16" cx="811.43" cy="556.47" r="19.4"/><circle class="cls-39" cx="811.43" cy="556.47" r="19.4"/><text class="cls-36" transform="translate(803.71 565.46)">B</text><circle class="cls-16" cx="799.17" cy="540.16" r="5.66"/><circle class="cls-37" cx="799.17" cy="540.16" r="5.66"/><text class="cls-38" transform="translate(796.08 542.53)">e</text><text class="cls-38" transform="translate(800.53 539.87) scale(0.58)">-</text><circle class="cls-16" cx="791.98" cy="552.3" r="5.66"/><circle class="cls-37" cx="791.98" cy="552.3" r="5.66"/><text class="cls-38" transform="translate(788.89 554.67)">e</text><text class="cls-38" transform="translate(793.34 552.01) scale(0.58)">-</text><path class="cls-40" d="M784.08,512.75l-5.94,3.8,1.44,1.16a26.15,26.15,0,0,1-4.14,3.76,31.56,31.56,0,0,1-8.61,4.42,41.58,41.58,0,0,1-13.23,2,52.55,52.55,0,0,1-15.05-2,34.29,34.29,0,0,1-9.49-4.42,20.64,20.64,0,0,1-6.39-6.39l-1.07.89-1.08.88a23,23,0,0,0,7.1,7.3A36.06,36.06,0,0,0,737.77,529a54.29,54.29,0,0,0,15.83,2.17,43.3,43.3,0,0,0,14-2.18,33.51,33.51,0,0,0,9.28-4.82,28.83,28.83,0,0,0,4.91-4.62l2,1.59Z"/><path class="cls-41" d="M784.26,546.42l-.61-8.33-1.86,1.62a28.6,28.6,0,0,0-4.89-4.59,33.53,33.53,0,0,0-9.28-4.83,43.57,43.57,0,0,0-14-2.17,54.64,54.64,0,0,0-15.83,2.16,36.62,36.62,0,0,0-10.15,4.81,23,23,0,0,0-7.1,7.31l2.15,1.76c.07-.13,7-12.82,30.93-12.82a41.58,41.58,0,0,1,13.23,2,31,31,0,0,1,8.61,4.42,25.51,25.51,0,0,1,4.19,3.82l-1.45,1.27Z"/><path class="cls-18" d="M694,610.52a6.73,6.73,0,1,1,6.72,6.85A6.67,6.67,0,0,1,694,610.52Zm11.85,0a5.12,5.12,0,1,0-5.13,5.28A5.11,5.11,0,0,0,705.85,610.52Z"/><path class="cls-18" d="M719.4,617.18l-4.33-5.55-4.36,5.55H708.8l5.34-6.69-5.21-6.59h1.86l4.28,5.45,4.25-5.45h1.86L716,610.49l5.34,6.69Z"/><path class="cls-18" d="M723.72,600.13a1.11,1.11,0,0,1,1.12-1.14,1.13,1.13,0,0,1,1.14,1.14,1.1,1.1,0,0,1-1.14,1.11A1.09,1.09,0,0,1,723.72,600.13Zm.35,3.77h1.59v13.28h-1.59Z"/><path class="cls-18" d="M742.37,595.93v21.25h-1.59v-2.73a5.83,5.83,0,0,1-5,2.92c-3.69,0-6.27-3.06-6.27-6.8s2.58-6.83,6.27-6.83a5.79,5.79,0,0,1,5,3V595.93Zm-1.59,14.64a5.06,5.06,0,0,0-4.89-5.29c-2.84,0-4.81,2.42-4.81,5.29s2,5.26,4.81,5.26A5,5,0,0,0,740.78,610.57Z"/><path class="cls-18" d="M758.76,603.9v13.28h-1.59v-2.73a5.83,5.83,0,0,1-5,2.92c-3.69,0-6.27-3.06-6.27-6.8s2.58-6.83,6.27-6.83a5.79,5.79,0,0,1,5,3V603.9Zm-1.59,6.67a5.06,5.06,0,0,0-4.89-5.29c-2.85,0-4.81,2.42-4.81,5.29s2,5.26,4.81,5.26A5,5,0,0,0,757.17,610.57Z"/><path class="cls-18" d="M767.87,605.44h-2.74v11.74h-1.59V605.44h-1.7V603.9h1.7v-3.56h1.59v3.56h2.74Z"/><path class="cls-18" d="M770.52,600.13a1.11,1.11,0,0,1,1.12-1.14,1.13,1.13,0,0,1,1.14,1.14,1.1,1.1,0,0,1-1.14,1.11A1.09,1.09,0,0,1,770.52,600.13Zm.35,3.77h1.59v13.28h-1.59Z"/><path class="cls-18" d="M776.26,610.52a6.72,6.72,0,1,1,6.72,6.85A6.67,6.67,0,0,1,776.26,610.52Zm11.85,0A5.12,5.12,0,1,0,783,615.8,5.11,5.11,0,0,0,788.11,610.52Z"/><path class="cls-18" d="M804.12,609.69v7.49h-1.56V610c0-3.18-1.57-4.83-3.88-4.83-2,0-3.7,1.41-3.91,4.17v7.86h-1.59V603.9h1.59v2.18a4.82,4.82,0,0,1,4.25-2.42C801.76,603.66,804.12,605.6,804.12,609.69Z"/><path class="cls-18" d="M806.75,608.42h8.61v1.46h-8.61Z"/><path class="cls-18" d="M705.67,641.11v1.81c-2.16-.16-3.83,1.64-3.83,4.38v7.31h-1.59V641.32h1.59v2.45A4.36,4.36,0,0,1,705.67,641.11Z"/><path class="cls-18" d="M719.45,648.52h-11a5,5,0,0,0,5.1,4.76,6.48,6.48,0,0,0,4.52-1.83v1.8a7.24,7.24,0,0,1-4.57,1.54,6.5,6.5,0,0,1-6.67-6.82c0-3.7,2.6-6.81,6.4-6.81C717.22,641.16,719.53,644.62,719.45,648.52Zm-10.94-1.4h9.24c-.34-2.48-2-4.41-4.49-4.41A4.79,4.79,0,0,0,708.51,647.12Z"/><path class="cls-18" d="M734.78,633.35v21.26h-1.6v-2.74a5.78,5.78,0,0,1-5,2.92c-3.69,0-6.27-3-6.27-6.8s2.58-6.83,6.27-6.83a5.77,5.77,0,0,1,5,3V633.35ZM733.18,648a5,5,0,0,0-4.89-5.28c-2.84,0-4.8,2.41-4.8,5.28s2,5.26,4.8,5.26A5,5,0,0,0,733.18,648Z"/><path class="cls-18" d="M749.91,641.32v13.29h-1.59v-2.18a4.83,4.83,0,0,1-4.25,2.42c-2.74,0-5.1-1.94-5.1-6v-7.5h1.57v7.2c0,3.19,1.56,4.84,3.88,4.84,2,0,3.69-1.41,3.9-4.17v-7.87Z"/><path class="cls-18" d="M753.39,648a6.85,6.85,0,0,1,11.21-5.29v2a5.72,5.72,0,0,0-4.38-2,5.29,5.29,0,0,0,0,10.57,5.72,5.72,0,0,0,4.38-2v2A6.85,6.85,0,0,1,753.39,648Z"/><path class="cls-18" d="M773.05,642.86h-2.74v11.75h-1.59V642.86H767v-1.54h1.7v-3.56h1.59v3.56h2.74Z"/><path class="cls-18" d="M775.7,637.55a1.11,1.11,0,0,1,1.12-1.14,1.13,1.13,0,0,1,1.14,1.14,1.11,1.11,0,0,1-1.14,1.12A1.09,1.09,0,0,1,775.7,637.55Zm.35,3.77h1.59v13.29h-1.59Z"/><path class="cls-18" d="M781.44,647.94a6.72,6.72,0,1,1,6.72,6.85A6.66,6.66,0,0,1,781.44,647.94Zm11.85,0a5.12,5.12,0,1,0-5.13,5.29A5.11,5.11,0,0,0,793.29,647.94Z"/><path class="cls-18" d="M809.3,647.12v7.49h-1.57v-7.2c0-3.19-1.56-4.84-3.87-4.84-2.05,0-3.7,1.41-3.91,4.17v7.87h-1.59V641.32H800v2.18a4.84,4.84,0,0,1,4.25-2.42C806.94,641.08,809.3,643,809.3,647.12Z"/></g><g id="Layer_38" data-name="Layer 38"><path class="cls-42" d="M561.33,494.73c0,5.21-17.52,9.43-39.14,9.43s-39.14-4.22-39.14-9.43l9.57,69.62c0,3.93,13.24,7.12,29.57,7.12s29.58-3.19,29.58-7.12Z"/><ellipse class="cls-43" cx="522.19" cy="494.73" rx="39.14" ry="9.43"/><ellipse class="cls-44" cx="522.19" cy="564.35" rx="29.57" ry="7.13"/><ellipse class="cls-44" cx="522.16" cy="522.83" rx="35.54" ry="8.56"/><ellipse class="cls-45" cx="522.19" cy="494.73" rx="39.14" ry="9.43"/><path class="cls-44" d="M492.62,564.35c0,3.93,13.24,7.12,29.57,7.12s29.58-3.19,29.58-7.12l5.92-41.52c0-4.73-15.91-8.56-35.53-8.56s-35.54,3.83-35.54,8.56Z"/><path class="cls-18" d="M566,449.24S600.9,433,618.38,430.7c4.92-.65,9.7,1.73,10.9,6.55a9,9,0,0,1-6.56,10.89,7.2,7.2,0,0,1-.78.16s-44.16-.13-50.65,10.13-4.15,12.32-15.7,15.2c-16.16,4-22-5.66-23.47-11.78s17.77-11.13,17.77-11.13,9.85-2.34,16.06-1.48h0"/><path class="cls-46" d="M566.25,454.16s0-.08,0-.11a1.43,1.43,0,0,0-.08-.22,18.07,18.07,0,0,0-6-8.61,12.39,12.39,0,0,1-1-.89,4.12,4.12,0,0,0-.47-.13,6.11,6.11,0,0,0-1.91-.06l-3.88.25a7.42,7.42,0,0,0-2.61.49c-1.62.75-2.59,2.61-4.29,3.14-.83.26-1.73.16-2.57.39a19.16,19.16,0,0,0-2.85,1.46c-.73.34-1.53.52-2.25.88a4.76,4.76,0,0,0-1.81,1.71,6.42,6.42,0,0,1-.31,1.81c-.25.69-.7,1.29-1,2-.57,1.56-.07,3.29.44,4.87l.1.51c.57,2.27,7.84,2.42,16.25.32,7.64-1.9,13.59-5,14.19-7.24l.17,0C566.35,454.49,566.3,454.33,566.25,454.16Z"/><path class="cls-47" d="M554.31,447.11a7,7,0,0,1,2.5,1.51c.17.16.35.38.29.61"/><path class="cls-47" d="M541,455.4a1.13,1.13,0,0,0-.71,1,5,5,0,0,1-.2,1.28,1.84,1.84,0,0,0-.27.74"/><path class="cls-47" d="M554.41,454.94a2.24,2.24,0,0,1,1.82,1"/><path class="cls-48" d="M516.44,478.84c-.43.12-.47.55-.4,1s.1.8.87,1c1.17.06,1.14-1.32.63-2a.92.92,0,0,0-1.1,0"/><path class="cls-48" d="M529.08,469.26c-.18-.36-.69-.8-1-.54s-.7.55-.55.92c.21.53,1,.52,1.5.42.12-.51.36-.48.05-.8"/><path class="cls-48" d="M525.81,476.73c-.36,0-.42.65-.33.79.22.31.31.54.69.56a.77.77,0,0,0,.73-.92.77.77,0,0,0-1.09-.43"/><path class="cls-48" d="M523.45,513.94c-.25.38,0,.73.35,1a.93.93,0,0,0,1.32.19c.92-.72,0-1.75-.81-1.89a.91.91,0,0,0-.86.68"/><path class="cls-48" d="M526.74,498.44c-.37-.17-1-.16-1.11.24s-.17.87.19,1.05,1-.23,1.41-.67c-.25-.46,0-.59-.49-.62"/><path class="cls-48" d="M529.16,506.21c-.28.24.1.78.27.82.36.1.59.21.88,0a.73.73,0,1,0-1.15-.79"/><path class="cls-48" d="M519.93,523.31c.41-.18.39-.62.24-1s-.23-.77-1-.85c-1.17.13-.91,1.5-.3,2a.91.91,0,0,0,1.08-.14"/><path class="cls-48" d="M529.09,515.87c-.38-.16-1.05-.16-1.11.24s-.18.87.19,1.06,1.05-.23,1.4-.67c-.24-.46,0-.59-.48-.63"/><path class="cls-48" d="M522.28,540.75c.41-.19.38-.62.24-1s-.23-.77-1-.85c-1.17.13-.92,1.49-.31,2a.92.92,0,0,0,1.09-.14"/><path class="cls-48" d="M526.08,533.82c.41-.19.38-.62.24-1.05s-.23-.77-1-.85c-1.17.13-.92,1.49-.31,2a.92.92,0,0,0,1.09-.14"/><path class="cls-48" d="M509,534.8c.23.33.8.68,1.07.37s.6-.65.39-1-1-.35-1.55-.16c0,.52-.27.52.09.79"/><path class="cls-48" d="M511,526.91c.35-.06.31-.72.19-.84-.26-.28-.39-.49-.76-.44a.77.77,0,0,0-.58,1,.78.78,0,0,0,1.15.26"/><path class="cls-48" d="M523.42,551.78c0,.45.38.62.83.69s.79.14,1.21-.53c.42-1.1-.91-1.49-1.67-1.19a.91.91,0,0,0-.37,1"/><path class="cls-48" d="M518.15,536.83c-.41.06-1,.4-.83.78s.31.83.72.8c.56,0,.77-.74.85-1.3-.45-.26-.35-.48-.74-.28"/><path class="cls-48" d="M524.26,542.21c-.11.34.49.6.66.55.36-.1.61-.12.73-.48a.73.73,0,1,0-1.39-.07"/><path class="cls-48" d="M530.41,491.93a.87.87,0,0,0-.77,1.17.8.8,0,0,0,1.35,0c.25-.49-.06-1.4-.58-1.21"/><path class="cls-48" d="M522.28,496.42a.85.85,0,0,0-.77,1.16.79.79,0,0,0,1.34.05c.26-.49-.05-1.4-.57-1.21"/><path class="cls-49" d="M561.33,494.73c0,5.21-17.52,9.43-39.14,9.43s-39.14-4.22-39.14-9.43l9.57,69.62c0,3.93,13.24,7.12,29.57,7.12s29.58-3.19,29.58-7.12Z"/><text class="cls-9" transform="translate(459.37 615.96)">dis<tspan class="cls-50" x="33.89" y="0">s</tspan><tspan x="44.65" y="0">olution</tspan></text></g><g id="Layer_37" data-name="Layer 37"><path class="cls-33" d="M318.53,549.61l.06-.45c0-.29.05-.59.06-.9a.28.28,0,0,0,0-.09c0-.34,0-.69,0-1.06,0-21.31-20.89-44.34-20.89-44.34s-20.89,23-20.89,44.34c0,.37,0,.72,0,1.06v.09c0,.31,0,.61.07.9s0,.3.05.45,0,.21.05.32a20.88,20.88,0,0,0,41.38,0C318.51,549.82,318.52,549.71,318.53,549.61Z"/><path class="cls-23" d="M388.57,498.07c-3.91-8.57-15-11.92-24.72-7.48-3.28,1.5-5.85,3.93-8.74,6a68.43,68.43,0,0,1-19.83,10.23l-4.55,1.48,1.17-4.64a68.6,68.6,0,0,1,8.82-20.49c1.87-3,4.11-5.76,5.37-9.14,3.76-10-.35-20.83-9.17-24.13s-19,2.16-22.76,12.19.36,20.84,9.18,24.13a13.38,13.38,0,0,0,2.61.89l-5.87,24.68-45.47,14.87c-8.48,3.61-7.32,11.51-7.32,11.51l50.26-15.72-12.19,51.22s8,.61,11-8.1L328,519.17l24.21-7.57a13.27,13.27,0,0,0,1.07,2.55c3.9,8.56,15,11.91,24.71,7.47S392.47,506.63,388.57,498.07Zm-62-20.48c-4.63-1.73-6.78-7.4-4.82-12.66s7.31-8.12,11.94-6.39,6.78,7.39,4.81,12.65S331.19,479.32,326.57,477.59Zm48.06,36.65c-5.11,2.33-10.92.58-13-3.92s.43-10,5.54-12.35,10.92-.57,13,3.92S379.74,511.91,374.63,514.24Z"/><path class="cls-33" d="M312.63,524.84l-35.34,17.23a35.74,35.74,0,0,0-.38,5c0,.37,0,.72,0,1.06v.09c0,.31,0,.61.07.9s0,.3.05.45,0,.21.05.32a20.88,20.88,0,0,0,41.38,0c0-.11,0-.22,0-.32l.06-.45c0-.29.05-.59.06-.9a.28.28,0,0,0,0-.09c0-.34,0-.69,0-1.06C318.69,539.53,316,531.74,312.63,524.84Z"/><text class="cls-9" transform="translate(259.79 616.73)"><tspan class="cls-51">h</tspan><tspan class="cls-11" x="14.9" y="0">y</tspan><tspan class="cls-52" x="27.62" y="0">d</tspan><tspan class="cls-10" x="44.01" y="0">r</tspan><tspan x="51.55" y="0">o</tspan><tspan class="cls-53" x="67.54" y="0">ly</tspan><tspan x="86.4" y="0">sis</tspan></text></g><g id="Layer_36" data-name="Layer 36"><circle class="cls-44" cx="167.79" cy="423.3" r="14.21"/><text class="cls-54" transform="translate(161.04 429.89)">C</text><circle class="cls-55" cx="167.98" cy="395.85" r="6.24"/><text class="cls-56" transform="translate(164.98 398.18)">O</text><text class="cls-56" transform="translate(170.31 396.02) scale(0.58)">-</text><circle class="cls-55" cx="147.39" cy="440.89" r="6.24"/><text class="cls-56" transform="translate(144.33 443.2)">O</text><text class="cls-56" transform="translate(149.65 441.04) scale(0.58)">-</text><circle class="cls-55" cx="188.37" cy="440.89" r="6.24"/><text class="cls-56" transform="translate(185.31 443.2)">O</text><text class="cls-56" transform="translate(190.64 441.04) scale(0.58)">-</text><line class="cls-57" x1="158.6" y1="434.22" x2="152.67" y2="437.64"/><line class="cls-57" x1="137.49" y1="435.04" x2="141.99" y2="437.64"/><line class="cls-57" x1="177.25" y1="433.9" x2="183.19" y2="437.33"/><circle class="cls-55" cx="132.02" cy="432.15" r="6.24"/><text class="cls-56" transform="matrix(-0.58, 0, 0, 0.58, 135.27, 432.14)">+</text><text class="cls-56" transform="matrix(-1, 0, 0, 1, 133.55, 434.3)">H</text><line class="cls-57" x1="198.18" y1="435.04" x2="193.68" y2="437.64"/><circle class="cls-55" cx="203.65" cy="432.15" r="6.24"/><text class="cls-56" transform="matrix(-0.58, 0, 0, 0.58, 206.66, 432.14)">+</text><text class="cls-56" transform="matrix(-1, 0, 0, 1, 204.94, 434.3)">H</text><line class="cls-58" x1="167.18" y1="409.08" x2="167.18" y2="402.1"/><line class="cls-58" x1="168.76" y1="409.08" x2="168.76" y2="402.1"/><path class="cls-18" d="M54.93,513.9c3.26-.71,6.46-1.84,9.8-1.94,5.36-.17,10.61,2.35,16,1.77.68,1.89.06,9.08.1,13.61a3.86,3.86,0,0,1-.27,1.76,3.32,3.32,0,0,1-2.26,1.45c-5.88,1.56-12-.95-18.14-.73-4.88.18-9.58,2.14-14.48,2.26a2.69,2.69,0,0,1-1.38-.23,2.75,2.75,0,0,1-1-1.18,19.2,19.2,0,0,1-.8-16.35c1.15-2.72,3.27-.63,5.08-.16A16.39,16.39,0,0,0,54.93,513.9Z"/><path class="cls-18" d="M83,527.64a3.42,3.42,0,0,0,.69,2,3.52,3.52,0,0,0,2.31.81c5.68.53,11.44,1.07,17.08.14,5.09-.84,10.46-2.83,15.19-.78.88.39,2,.87,2.7.18a2.21,2.21,0,0,0,.45-1.34l.88-9c.15-1.47.26-3.07-.55-4.31a5.73,5.73,0,0,0-3.3-2c-11.34-3.4-23.75,2.74-35.26,0C82,512.91,82.9,526.56,83,527.64Z"/><path class="cls-18" d="M38.71,514.24a1.82,1.82,0,0,0-.55-1.32,1.69,1.69,0,0,0-.92-.28c-5.48-.53-10.92,1.2-16.41,1.67-5.74.49-11.5-.39-17.25-.81a3.88,3.88,0,0,0-2.55.42c-1.06.76-1.08,2.29-1,3.59l.76,12.64a.84.84,0,0,0,.2.58.82.82,0,0,0,.54.15l16.22.65c6.47.26,13,.51,19.4-.3C41.86,530.63,39.15,517.82,38.71,514.24Z"/><path class="cls-18" d="M125,514.22a3.41,3.41,0,0,1,1.41-.67c7.23-2,15,1.1,22.44.3,3.47-.38,6.94-1.6,10.37-1a3.84,3.84,0,0,1,3.09,2.16,4.56,4.56,0,0,1,.11,1.77l-.76,11.87a2.53,2.53,0,0,1-3.15,2.85l-12.72.05a129.71,129.71,0,0,1-19.81-.93,2.7,2.7,0,0,1-1-.31,2.26,2.26,0,0,1-.76-1.1,13.79,13.79,0,0,1-.7-8.13c.25-1.17.84-2.27,1-3.42S123.79,515.3,125,514.22Z"/><path class="cls-18" d="M117,552.84c-3.26-.71-6.46-1.84-9.8-1.94-5.37-.17-10.61,2.35-16,1.77-.69,1.89-.07,9.08-.1,13.61a3.73,3.73,0,0,0,.27,1.76,3.32,3.32,0,0,0,2.25,1.45c5.89,1.56,12.06-1,18.14-.73,4.89.18,9.59,2.14,14.48,2.26a2.14,2.14,0,0,0,2.39-1.41,19.2,19.2,0,0,0,.8-16.35c-1.15-2.72-3.27-.63-5.08-.16A16.39,16.39,0,0,1,117,552.84Z"/><path class="cls-18" d="M88.84,566.58a3.42,3.42,0,0,1-.69,2,3.52,3.52,0,0,1-2.31.81c-5.69.53-11.45,1.07-17.08.14-5.09-.84-10.47-2.83-15.19-.78-.89.39-2,.87-2.7.18a2.14,2.14,0,0,1-.45-1.34l-.89-9c-.14-1.47-.26-3.07.55-4.31a5.79,5.79,0,0,1,3.31-2c11.33-3.4,23.75,2.74,35.25,0C89.87,551.85,89,565.5,88.84,566.58Z"/><path class="cls-18" d="M171.05,553.16a1.83,1.83,0,0,0-.55-1.32,1.68,1.68,0,0,0-.92-.27c-5.48-.54-10.92,1.19-16.41,1.66-5.74.49-11.5-.39-17.25-.81a3.88,3.88,0,0,0-2.55.42c-1.06.76-1.08,2.29-1,3.59l.76,12.64a.84.84,0,0,0,.2.58.77.77,0,0,0,.54.15l16.22.65c6.47.26,13,.52,19.4-.3C174.2,569.56,171.49,556.74,171.05,553.16Z"/><path class="cls-18" d="M46.9,553.16a3.41,3.41,0,0,0-1.41-.67c-7.24-2-15,1.1-22.45.3-3.46-.38-6.94-1.6-10.36-.95A3.82,3.82,0,0,0,9.59,554a4.76,4.76,0,0,0-.12,1.77l.77,11.87a3.34,3.34,0,0,0,.66,2.15,3.35,3.35,0,0,0,2.49.7l12.71,0a129.84,129.84,0,0,0,19.82-.93,2.7,2.7,0,0,0,1-.31,2.31,2.31,0,0,0,.75-1.1,13.8,13.8,0,0,0,.71-8.13c-.25-1.17-.84-2.27-1-3.42S48.09,554.24,46.9,553.16Z"/><path class="cls-18" d="M125.05,550.89c-3.32.34-6.64,1.11-10,.84-5.35-.44-10.29-3.53-15.65-3.55-.48-1.95,1-9,1.42-13.54a3.7,3.7,0,0,1,.46-1.71,3.37,3.37,0,0,1,2.41-1.2c6-.89,11.87,2.3,17.94,2.76,4.88.37,9.77-1,14.64-.62a2.11,2.11,0,0,1,2.21,1.66c2.12,5.23.87,9.14.13,13.85-.46,2.91-4.48,2.75-6.22,2.08A16.45,16.45,0,0,0,125.05,550.89Z"/><path class="cls-18" d="M97.88,535.07a3.45,3.45,0,0,0-.69-2,3.51,3.51,0,0,0-2.31-.8c-5.69-.54-11.45-1.07-17.08-.14-5.09.84-10.47,2.83-15.19.77-.89-.38-2-.86-2.7-.17a2.14,2.14,0,0,0-.45,1.34l-.89,9c-.14,1.47-.26,3.07.55,4.3a5.74,5.74,0,0,0,3.31,2c11.33,3.4,23.75-2.73,35.25,0C98.91,549.79,98,536.15,97.88,535.07Z"/><path class="cls-18" d="M179,533.72a1.89,1.89,0,0,0-.54-1.33,1.83,1.83,0,0,0-.92-.27c-5.49-.54-10.92,1.19-16.42,1.66-5.74.5-11.5-.38-17.24-.8a3.8,3.8,0,0,0-2.56.42c-1.05.76-1.08,2.29-1,3.58l.77,12.64a.82.82,0,0,0,.19.59.84.84,0,0,0,.54.15l16.22.65c6.47.25,13,.51,19.4-.3C182.17,550.11,179.45,537.29,179,533.72Z"/><path class="cls-18" d="M55.94,550.31a3.41,3.41,0,0,1-1.41.67c-7.24,2-15-1.1-22.45-.3-3.46.38-6.94,1.6-10.36.94a3.79,3.79,0,0,1-3.09-2.15,4.78,4.78,0,0,1-.12-1.77l.77-11.87a3.34,3.34,0,0,1,.66-2.15,3.35,3.35,0,0,1,2.49-.7l12.71-.05a129.84,129.84,0,0,1,19.82.93,2.53,2.53,0,0,1,1,.31,2.4,2.4,0,0,1,.76,1.1,13.87,13.87,0,0,1,.7,8.13c-.25,1.17-.84,2.26-1,3.42S57.13,549.23,55.94,550.31Z"/><path class="cls-33" d="M150.18,483.44l2.07,8-1.67.44-.83-3.18-3,.79.82,3.18-1.67.43-2.07-8,1.67-.43.82,3.18,3-.8-.82-3.17Z"/><path class="cls-33" d="M154.32,494.53c.34-.68.7-1.42,1-2.13a1.83,1.83,0,0,0,.26-1.2.6.6,0,0,0-.75-.43.75.75,0,0,0-.46,1l-1,0a1.63,1.63,0,0,1,1.19-1.94,1.56,1.56,0,0,1,2,1.06,2.33,2.33,0,0,1-.31,1.68c-.14.33-.3.67-.46,1l1.41-.37.24.94-3.05.8Z"/><path class="cls-33" d="M156.24,486.12a4.13,4.13,0,0,1,3-5.19,4.18,4.18,0,0,1,1.91-.09l.49,1.83a2.82,2.82,0,0,0-1.92-.11,2.55,2.55,0,0,0,1.28,4.94,2.74,2.74,0,0,0,1.63-1l.47,1.85a4.58,4.58,0,0,1-1.71.85A4.14,4.14,0,0,1,156.24,486.12Z"/><path class="cls-33" d="M162.94,484.38a4.26,4.26,0,1,1,5.19,3.06A4.16,4.16,0,0,1,162.94,484.38Zm6.52-1.7a2.48,2.48,0,1,0-1.76,3.09A2.47,2.47,0,0,0,169.46,482.68Z"/><path class="cls-33" d="M176.89,487.45a1.63,1.63,0,0,1-1.23,2,1.7,1.7,0,0,1-2-.78l.75-.65a.88.88,0,0,0,.95.47.68.68,0,1,0-.34-1.32,1.09,1.09,0,0,0-.52.33l-.53-.38,0,0,.81-1.44-1.54.41-.25-1,2.72-.71.22.82-.62,1.11A1.5,1.5,0,0,1,176.89,487.45Z"/><path class="cls-33" d="M42.43,507.08a32.32,32.32,0,0,0-.5,10.38c.14,1.72.35,3.45.54,5.22.11.87.21,1.81.27,2.63s.16,1.6.28,2.27c.3,1.37.52,2.25,1.89,2.88a10.73,10.73,0,0,0,2.42.66c.9.17,1.8.31,2.7.41s1.81.19,2.72.24a6.64,6.64,0,0,1,3,.71,3.29,3.29,0,0,1,1.29,1.35,6.39,6.39,0,0,1,.58,1.54c.23.91.5,1.76.75,2.65.5,1.76,1.07,3.5,1.51,5.27.24.88.45,1.77.64,2.66l.29,1.36a4.79,4.79,0,0,1,.11,1.12,4.16,4.16,0,0,1-.33,1.59,4.9,4.9,0,0,1-1.81,2.14,10.21,10.21,0,0,1-1.63.89c-.9.4-1.81.77-2.74,1.1-.47.16-.94.33-1.4.46a7.75,7.75,0,0,0-1,.32c-.2.09-.25.13-.17.06s.16-.27.09-.11a5.09,5.09,0,0,0-.18.93l-.2,1.29-.37,2.61c-.22,1.74-.46,3.5-.65,5.26-.4,3.54-.64,7.12-1,10.82a.28.28,0,0,1-.31.25.26.26,0,0,1-.22-.17A41.25,41.25,0,0,1,46.37,565a48,48,0,0,1-.33-5.62c0-.94,0-1.88.07-2.82q0-.7.09-1.41a10.1,10.1,0,0,1,.26-1.75,5.2,5.2,0,0,1,1.37-2.48A5.93,5.93,0,0,1,50,549.58a13.82,13.82,0,0,1,1.61-.48l1.22-.29c.8-.21,1.6-.45,2.38-.73a8.19,8.19,0,0,0,.82-.3c.16-.07.1,0,0,.18a.63.63,0,0,0,0,.28s0-.07,0-.24l-.12-1.32c-.09-.91-.15-1.82-.19-2.73-.12-1.82-.11-3.65-.17-5.48,0-.91,0-1.85-.09-2.73a5.06,5.06,0,0,0-.14-1.07,1.3,1.3,0,0,0-.47-.68,4,4,0,0,0-2.17-.61c-.9-.07-1.81-.11-2.72-.12s-1.82,0-2.73,0a17.17,17.17,0,0,1-3,0,6.14,6.14,0,0,1-3.38-1.4,7.62,7.62,0,0,1-2.08-3,13.17,13.17,0,0,1-.78-3c-.13-1-.19-1.85-.25-2.79a36.79,36.79,0,0,1,0-5.65,22.53,22.53,0,0,1,1.18-5.69,13.72,13.72,0,0,1,3-4.94.28.28,0,0,1,.39,0A.3.3,0,0,1,42.43,507.08Z"/><path class="cls-33" d="M83.77,508.12c.24,2.22.28,4.14.38,6l.13,2.77a12.73,12.73,0,0,1-.1,3.05,11.13,11.13,0,0,1-1.13,3.33,26.72,26.72,0,0,1-1.81,2.88,25.23,25.23,0,0,1-4.38,5,12.44,12.44,0,0,1-3,1.84,18.51,18.51,0,0,1-3.14,1c-2.08.51-4,.9-5.69,1.22a15.7,15.7,0,0,0-4.59,1.4A7.24,7.24,0,0,0,57,540.42v0a.29.29,0,0,1-.38.16.24.24,0,0,1-.15-.13,5.27,5.27,0,0,1-.42-3.54,8,8,0,0,1,1.58-3.38,10,10,0,0,1,2.86-2.48,13.43,13.43,0,0,1,3.3-1.39A27.33,27.33,0,0,1,70,529l2.79-.16a20.44,20.44,0,0,0,2.7-.29,5.83,5.83,0,0,0,4.23-3.27,5.27,5.27,0,0,0,.44-2.71,25.73,25.73,0,0,0-.46-2.67,12.54,12.54,0,0,1-.2-3,15.12,15.12,0,0,1,.49-3.27,11.75,11.75,0,0,1,3.26-5.71.3.3,0,0,1,.42,0A.38.38,0,0,1,83.77,508.12Z"/><path class="cls-33" d="M124.93,509.24c.07,2.38,0,4.72-.19,7s-.4,4.65-.69,7c-.13,1.14-.32,2.33-.47,3.42a6.36,6.36,0,0,0,0,2.46,2.36,2.36,0,0,0,1,1.28,9,9,0,0,0,2.44,1,51.18,51.18,0,0,1,6.84,2.09,8.08,8.08,0,0,1,3.28,2.5,7,7,0,0,1,1.27,3.81c.07,1.26,0,2.4.07,3.56s.08,2.32.15,3.47a11.45,11.45,0,0,0,.43,3.11c.17.32.29.35.52.38a4.11,4.11,0,0,0,1.16-.1c2.23-.45,4.6-.94,6.92-1.24s4.69-.5,7.05-.63,4.72-.19,7.08-.19c1.2,0,2.32,0,3.59.1a25.73,25.73,0,0,1,3.82.52,17.2,17.2,0,0,1,3.88,1.34,10.76,10.76,0,0,1,3.6,2.79,8.62,8.62,0,0,1,1.89,4.4,15.83,15.83,0,0,1-.16,4,19.3,19.3,0,0,0-.25,3.11,14.14,14.14,0,0,0,.45,3.06,14.75,14.75,0,0,0,3.11,5.77h0a.26.26,0,0,1,0,.38.26.26,0,0,1-.3,0,12.7,12.7,0,0,1-5.3-5.13,13.9,13.9,0,0,1-1.44-3.61,17.57,17.57,0,0,1-.45-3.83,12,12,0,0,0-.33-3,3.61,3.61,0,0,0-1.07-1.8,9.81,9.81,0,0,0-4.76-2A27.38,27.38,0,0,0,165,554l-3.37-.24q-3.4-.22-6.83-.34l-6.86-.14c-2.31,0-4.56-.14-6.94-.13a5.82,5.82,0,0,1-2.29-.4,3.23,3.23,0,0,1-1.16-.87,3.07,3.07,0,0,1-.61-1.19,6.35,6.35,0,0,1-.14-2.07l.06-1.74c0-1.16,0-2.32,0-3.48a28.56,28.56,0,0,0-.17-3.4,4.11,4.11,0,0,0-1.22-2.57,5.06,5.06,0,0,0-2.55-1.13c-2-.37-4.28-.2-6.8-.52a10.53,10.53,0,0,1-4.09-1.32,6.64,6.64,0,0,1-1.93-1.75,6.72,6.72,0,0,1-1.12-2.41,9.86,9.86,0,0,1,.12-4.45c.29-1.19.55-2.27.86-3.41.6-2.25,1.24-4.48,2-6.7a69.54,69.54,0,0,1,2.47-6.61.27.27,0,0,1,.36-.14A.26.26,0,0,1,124.93,509.24Z"/><path class="cls-33" d="M82.44,520.1c.21.81.34,1.64.49,2.42a8.44,8.44,0,0,0,.55,2.08,9.33,9.33,0,0,0,2.15,3.23c.22.21.46.41.69.6a1,1,0,0,0,.46.23l.37.12.47.13,1,.22c1.32.24,2.8.41,4.34.69a11.79,11.79,0,0,1,2.75.7,5.31,5.31,0,0,1,1.58,1,3.07,3.07,0,0,1,.34.38l.16.2.07.11s0,0,0,0-.06,0,0,.16.31.25.55.47a2.79,2.79,0,0,1,.7.9,4.56,4.56,0,0,1,.34,1.48c.11.79.24,1.6.38,2.41a23,23,0,0,1,.47,5,15.52,15.52,0,0,0,.31,4.59,3.74,3.74,0,0,1,.09.79c0,.28,0,.53,0,.74a4.48,4.48,0,0,0,0,.54,4.8,4.8,0,0,1,0,.73,3.77,3.77,0,0,1-.27,1.08,3.26,3.26,0,0,1-.88,1.18,4.86,4.86,0,0,1-2,.91,6.89,6.89,0,0,0-.92.29,5.77,5.77,0,0,0-.7.36,5.37,5.37,0,0,0-1.26,1,8.74,8.74,0,0,0-1.75,3.1,11.28,11.28,0,0,0-.43,1.78c-.11.64-.19,1.3-.24,2-.24,2.76,0,5.9-.2,9.29a20.39,20.39,0,0,1-.94,5.08,10.61,10.61,0,0,1-2.65,4.42.27.27,0,0,1-.39,0,.26.26,0,0,1-.07-.25h0a21.07,21.07,0,0,0-.16-9,45.65,45.65,0,0,1-1.3-9.78,17.64,17.64,0,0,1,.3-2.76,13.13,13.13,0,0,1,.87-2.8,12.81,12.81,0,0,1,3.54-4.76,9.74,9.74,0,0,1,2.69-1.62,8,8,0,0,1,1.54-.46,7.51,7.51,0,0,1,1.43-.13c.32,0,.39,0,.23.14s-.14.22-.12.28,0,0,.1-.06a1.76,1.76,0,0,0,.15-.45c.07-.26.14-.46.2-.64l.15-.44a1.19,1.19,0,0,0,.08-.41,39,39,0,0,1,.83-4.93,9.72,9.72,0,0,0-.36-4.45,19.77,19.77,0,0,0-.82-2.21c-.16-.37-.34-.78-.42-.78s0,.06-.11,0a2.74,2.74,0,0,1-.47-.15,3,3,0,0,1-.88-.58l-.11-.1h0l0,0-.1,0a3.91,3.91,0,0,0-.55,0c-.48,0-1.14.07-2,.11a17.35,17.35,0,0,1-5.13-.5,13.52,13.52,0,0,1-1.33-.41l-.65-.26c-.23-.1-.41-.17-.73-.34a5.38,5.38,0,0,1-1.48-1.14,9.35,9.35,0,0,1-.94-1.16,9.75,9.75,0,0,1-1.74-5.38,8.55,8.55,0,0,1,.41-2.68,21.8,21.8,0,0,1,.85-2.34.28.28,0,0,1,.53,0Z"/><circle class="cls-59" cx="41.69" cy="532.15" r="1.86"/><circle class="cls-59" cx="97.66" cy="531.61" r="1.86"/><circle class="cls-59" cx="129.77" cy="532.72" r="1.86"/><circle class="cls-59" cx="53.64" cy="531.06" r="1.86"/><circle class="cls-59" cx="60.33" cy="549.96" r="1.86"/><circle class="cls-59" cx="123.18" cy="533.69" r="1.86"/><circle class="cls-60" cx="55.96" cy="532.55" r="1.14"/><circle class="cls-60" cx="94.38" cy="530.89" r="1.14"/><circle class="cls-60" cx="133.48" cy="535.54" r="1.14"/><circle class="cls-60" cx="57.83" cy="551.12" r="1.14"/><circle class="cls-61" cx="49.89" cy="553.7" r="1.61"/><circle class="cls-60" cx="98.8" cy="533.46" r="1.14"/><circle class="cls-60" cx="92.34" cy="552.67" r="1.14"/><circle class="cls-60" cx="93.24" cy="551.12" r="1.14"/><circle class="cls-60" cx="95.51" cy="550.53" r="1.14"/><circle class="cls-60" cx="136.71" cy="534.77" r="1.14"/><circle class="cls-60" cx="119.88" cy="530.85" r="1.14"/><circle class="cls-60" cx="51.06" cy="551.12" r="1.14"/><circle class="cls-60" cx="42.65" cy="530.47" r="1.14"/><path class="cls-62" d="M142,489.73a38,38,0,0,0-12.58,8.82"/><polygon class="cls-33" points="127.16 491.37 130.8 497 137.38 498.27 124.09 506.94 127.16 491.37"/><path class="cls-62" d="M161.34,473s4.8-9.73,5.74-19.85"/><polygon class="cls-33" points="173.18 457.61 166.91 455.25 160.86 458.13 166.41 443.26 173.18 457.61"/><text class="cls-9" transform="translate(10.14 616.73)">carbonic acid <tspan class="cls-11" x="17.09" y="31.87">w</tspan><tspan x="37.83" y="31.87">eat</tspan><tspan class="cls-11" x="76.58" y="31.87">h</tspan><tspan x="91.35" y="31.87">eri</tspan><tspan class="cls-11" x="121.1" y="31.87">n</tspan><tspan x="135.84" y="31.87">g</tspan></text></g><g id="Layer_35" data-name="Layer 35"><text class="cls-9" transform="translate(669.68 258.83)"><tspan class="cls-63">r</tspan><tspan x="7.54" y="0">o</tspan><tspan class="cls-64" x="23.53" y="0">o</tspan><tspan x="39.18" y="0">t </tspan><tspan class="cls-53" x="55.69" y="0">e</tspan><tspan x="70.57" y="0">xpa</tspan><tspan class="cls-65" x="116.25" y="0">n</tspan><tspan x="131.58" y="0">sion</tspan></text><path class="cls-18" d="M770.24,96.66a18.77,18.77,0,0,0,.68,6.34,8.88,8.88,0,0,0,3.68,4.67c1.76,1.25,3.9,2.28,5.95,3.46a53.12,53.12,0,0,1,6,3.91c7.69,5.66,14.09,12.64,20.75,19.17,1.67,1.64,3.36,3.21,5.09,4.81a58.18,58.18,0,0,1,5,5.08,26.79,26.79,0,0,1,3.92,6,23.46,23.46,0,0,1,2,6.87,35.36,35.36,0,0,1,.28,3.55l0,1.77a11.94,11.94,0,0,1-.19,1.8c-.44,2.37-1.55,4.49-1.74,6.78a7,7,0,0,0,.53,3.35,9.64,9.64,0,0,0,2,2.82c1.59,1.68,3.52,3.17,4.54,5.32-1.09-2.12-3-3.52-4.7-5.17a9.91,9.91,0,0,1-2.12-2.84,7.27,7.27,0,0,1-.66-3.5c.14-2.42,1.19-4.61,1.53-6.87a10.69,10.69,0,0,0,.13-1.69l-.07-1.74c-.08-1.16-.19-2.31-.38-3.45a22.89,22.89,0,0,0-2.07-6.54,25.88,25.88,0,0,0-3.93-5.61c-3.07-3.43-6.84-6.26-10.27-9.5-6.9-6.38-13.45-13.09-21.06-18.33a48.79,48.79,0,0,0-5.87-3.56c-2-1.1-4.18-2-6.3-3.43a13.92,13.92,0,0,1-3-2.55,12.16,12.16,0,0,1-1.18-1.66,11.66,11.66,0,0,1-.85-1.83,21.69,21.69,0,0,1-1.08-7.52,1.7,1.7,0,0,1,3.4,0v.1Z"/><path class="cls-18" d="M767.47,97.7c.72,3.16,1.74,6.27,2.74,9.43a55.49,55.49,0,0,1,2.42,9.82,23.48,23.48,0,0,1-.93,10.26c-.28.82-.63,1.61-.94,2.41l-1.17,2.29c-.82,1.47-1.69,2.88-2.53,4.29a47.79,47.79,0,0,0-4.37,8.69,22.33,22.33,0,0,0-1.23,9.43,39.74,39.74,0,0,1,.19,5.05,14.13,14.13,0,0,1-1.27,5,22.71,22.71,0,0,1-6.36,7.9,50,50,0,0,1-8.42,5.44q-4.4,2.34-9,4.34c-6,2.66-12.24,5.09-17.5,9.06a53.87,53.87,0,0,0-13,14.74,39.12,39.12,0,0,0-4.19,8.93c-.94,3.13-1.35,6.61-.05,9.7a11.64,11.64,0,0,1-.9-4.84,19.82,19.82,0,0,1,.79-4.9,39.58,39.58,0,0,1,4.07-9.05,64,64,0,0,1,5.74-8.12,44.29,44.29,0,0,1,7.13-7c5.28-4.12,11.51-6.69,17.49-9.43q4.5-2.06,8.82-4.45a49.93,49.93,0,0,0,8.14-5.43,21.58,21.58,0,0,0,5.87-7.51,12.55,12.55,0,0,0,1.06-4.54,38.51,38.51,0,0,0-.26-4.85,25,25,0,0,1,0-5.11,24.39,24.39,0,0,1,1.12-5,50.38,50.38,0,0,1,4.38-9.08c.83-1.44,1.67-2.86,2.44-4.29l1-2.15c.28-.74.59-1.47.83-2.22a21.37,21.37,0,0,0,.7-9.34,54.67,54.67,0,0,0-2.49-9.38c-1-3.12-2.13-6.29-2.94-9.57a1.27,1.27,0,0,1,2.47-.61Z"/><path class="cls-18" d="M767.44,98.29a16.14,16.14,0,0,1,.55,7.36,22.32,22.32,0,0,1-2.31,6.86,14.41,14.41,0,0,1-2.06,3.08,7.83,7.83,0,0,1-3.2,2.25,8.77,8.77,0,0,1-3.83.42,31.27,31.27,0,0,1-3.51-.61,28.3,28.3,0,0,0-6.6-.93,13.83,13.83,0,0,0-3.21.4c-.53.12-1,.3-1.56.47l-1.59.62c-4.21,1.7-8.34,3.73-12.54,5.61a83.13,83.13,0,0,1-13,4.82,26.91,26.91,0,0,1-13.8.37,19.57,19.57,0,0,1-6.26-3,25.75,25.75,0,0,1-5-4.78c-.72-.9-1.41-1.82-2.08-2.75a8.39,8.39,0,0,0-2.27-2.5,7.76,7.76,0,0,0-3.32-.62c-1.15,0-2.3-.06-3.45-.08,1.15,0,2.3,0,3.45,0a16.53,16.53,0,0,1,1.72.1,4.43,4.43,0,0,1,1.67.46,8.71,8.71,0,0,1,2.39,2.49c.69.92,1.4,1.82,2.14,2.7A21.49,21.49,0,0,0,701,128.39a26.09,26.09,0,0,0,13.4-.67,81.26,81.26,0,0,0,12.69-5.06c4.13-2,8.21-4.08,12.46-5.92l1.61-.67c.57-.2,1.14-.41,1.73-.56a15.59,15.59,0,0,1,3.59-.54,29.92,29.92,0,0,1,7,.81c2.22.43,4.45.84,6.24.13s3.06-2.46,4-4.41a20,20,0,0,0,1.94-6.18,14,14,0,0,0-.6-6.24,1.27,1.27,0,1,1,2.4-.82Z"/><path class="cls-18" d="M771.92,125.54c-1.65,3-3.81,5.38-5.66,7.9s-3.53,5.14-3.88,8a9.78,9.78,0,0,0,.4,4.3,12.64,12.64,0,0,0,2.17,3.88c1.91,2.4,4.39,4.42,6.65,6.71a39.73,39.73,0,0,1,6,7.53,23.62,23.62,0,0,1,3.09,9.13,37,37,0,0,1-.12,9.58c-.4,3.13-.83,6.36.13,9.44-1.06-3-.75-6.34-.45-9.48a36.44,36.44,0,0,0-.21-9.45,22.73,22.73,0,0,0-3.27-8.71,38.73,38.73,0,0,0-6.13-7.11c-2.27-2.16-4.84-4.09-7-6.61a14.29,14.29,0,0,1-2.61-4.32,11.77,11.77,0,0,1-.65-5.1,14.22,14.22,0,0,1,1.45-4.89,33,33,0,0,1,2.55-4.23,71.31,71.31,0,0,0,5.23-7.75v0a1.27,1.27,0,0,1,2.27,1.14Z"/><path class="cls-18" d="M773.08,107.16A56.81,56.81,0,0,1,784.37,113c3.52,2.27,6.9,4.71,10.24,7.18l5,3.7a39.83,39.83,0,0,0,5,3.29,2.78,2.78,0,0,0,1.12.3,9,9,0,0,0,1.38,0A22,22,0,0,0,810,127c2-.44,4-1,6-1.51a14.59,14.59,0,0,1,6.53-.32,6.29,6.29,0,0,1,3,1.7,11.08,11.08,0,0,1,1.94,2.68,61.11,61.11,0,0,1,2.48,5.77,16.83,16.83,0,0,0,3,5.21,14.54,14.54,0,0,0,5,3.29,23.66,23.66,0,0,0,6,1.46,116.32,116.32,0,0,0,12.4.4,120.22,120.22,0,0,1-12.45,0,24.6,24.6,0,0,1-6.14-1.28,15.57,15.57,0,0,1-5.41-3.29,17.56,17.56,0,0,1-3.36-5.4,59.16,59.16,0,0,0-2.63-5.55c-1-1.73-2.33-3.2-4.14-3.53a13.2,13.2,0,0,0-5.76.53c-2,.51-3.92,1.19-6,1.72a21.82,21.82,0,0,1-3.2.62,12.28,12.28,0,0,1-1.72,0,5.22,5.22,0,0,1-1-.13,3.13,3.13,0,0,1-.49-.16,3.48,3.48,0,0,1-.43-.18,23.16,23.16,0,0,1-2.83-1.66c-.88-.59-1.73-1.19-2.58-1.8l-5-3.65c-3.35-2.43-6.71-4.81-10.18-7a54.32,54.32,0,0,0-10.81-5.46h0a1.27,1.27,0,1,1,.82-2.4Z"/><path class="cls-18" d="M805.75,132.69a69.88,69.88,0,0,1,6.63,7.72,36.4,36.4,0,0,1,4.94,9,20.62,20.62,0,0,1,1.08,10.21,23.33,23.33,0,0,1-4.1,9.36,97.5,97.5,0,0,1-6.45,7.78,23.22,23.22,0,0,0-2.88,4,12.75,12.75,0,0,0-1.43,4.67c-.36,3.3.55,6.6,1.14,9.89a21.78,21.78,0,0,1,.41,5,12.34,12.34,0,0,1-1.28,4.84,12.18,12.18,0,0,0,1.14-4.85,21.38,21.38,0,0,0-.54-5c-.68-3.25-1.69-6.54-1.42-10a13.48,13.48,0,0,1,1.36-4.93,23.28,23.28,0,0,1,2.88-4.22,95.54,95.54,0,0,0,6.26-7.81,22.25,22.25,0,0,0,3.76-9,19.23,19.23,0,0,0-1.19-9.57c-2.39-6.13-6.82-11.28-11.51-15.94h0a.85.85,0,0,1,0-1.2.84.84,0,0,1,1.2,0Z"/><path class="cls-18" d="M811.93,138.46a47.19,47.19,0,0,1,5.72,10.31A32.8,32.8,0,0,1,820,160.35,43.46,43.46,0,0,1,818.37,172c-1,3.77-2.22,7.45-2.69,11.21a15.83,15.83,0,0,0,.22,5.58,13.8,13.8,0,0,0,2.37,5A28.94,28.94,0,0,1,820,196.2a22.68,22.68,0,0,1,1.39,2.62,26.14,26.14,0,0,1,1.75,5.62,37,37,0,0,1,.32,11.65,40.26,40.26,0,0,1-3,11.2,39.68,39.68,0,0,0,2.69-11.24,36.71,36.71,0,0,0-.64-11.46,23,23,0,0,0-5-10.16,14.88,14.88,0,0,1-2.61-5.38,16.88,16.88,0,0,1-.31-6c.45-4,1.69-7.66,2.58-11.4a41.83,41.83,0,0,0,1.45-11.3,31.57,31.57,0,0,0-2.36-11,45.47,45.47,0,0,0-5.64-9.88.85.85,0,0,1,1.37-1Z"/><path class="cls-18" d="M762.86,145.53a19.94,19.94,0,0,0,2.71,5.78c1.17,1.89,2.45,3.77,3.57,5.78a25.23,25.23,0,0,1,2.61,6.45,18.53,18.53,0,0,1,.45,3.48,17.67,17.67,0,0,1-.26,3.49,22.34,22.34,0,0,1-2.27,6.52c-1,2.07-2.39,3.88-3.5,5.81a29.2,29.2,0,0,0-2.76,6.08,9.37,9.37,0,0,0,.06,6.56,9.57,9.57,0,0,1-.42-6.65,28.79,28.79,0,0,1,2.48-6.34c1-2,2.27-3.93,3.21-5.91a21,21,0,0,0,2-6.26,16,16,0,0,0,.14-3.24,17.26,17.26,0,0,0-.52-3.19,23.41,23.41,0,0,0-2.64-5.95c-1.14-1.9-2.45-3.7-3.71-5.6A21.55,21.55,0,0,1,760.8,146a1.06,1.06,0,0,1,2.05-.54v.05Z"/><path class="cls-18" d="M770.86,109.88a20.19,20.19,0,0,1,1.8,6.31,15.23,15.23,0,0,1-.72,6.63,18.17,18.17,0,0,1-3.23,5.67,29.46,29.46,0,0,1-4.54,4.4c-6.58,5.16-14.15,8.32-21.23,12-7.18,3.5-12.51,9.74-18,15.62a115.89,115.89,0,0,1-8.57,8.6,30.46,30.46,0,0,1-10.3,6.28,30.29,30.29,0,0,0,10-6.6A116.52,116.52,0,0,0,724.3,160c2.63-3.06,5.24-6.16,8.1-9.06a48.19,48.19,0,0,1,4.56-4.11,41.86,41.86,0,0,1,5.15-3.38c3.53-2,7.13-3.86,10.6-5.86a65.18,65.18,0,0,0,9.83-6.65c3-2.52,5.53-5.53,6.57-9a14.07,14.07,0,0,0-1.31-10.56,1.7,1.7,0,0,1,3-1.53l0,.06Z"/><path class="cls-18" d="M766.31,130.92a8.26,8.26,0,0,1-2,2.86,23.24,23.24,0,0,1-2.34,2c-1.61,1.23-3.27,2.32-5,3.37-3.35,2.09-6.79,4-10.14,6-.83.49-1.65,1-2.45,1.51a12,12,0,0,0-2.05,1.59l0,.07-.09.14-.18.28a5.51,5.51,0,0,0-.34.58,10.35,10.35,0,0,0-.58,1.21,13.63,13.63,0,0,0-.77,2.62c-.69,3.64-.2,7.53.29,11.39.24,1.93.5,3.89.61,5.88a53.63,53.63,0,0,1-.09,6,30.4,30.4,0,0,1-2.94,11.48c-1.77,3.61-4.65,6.4-7.13,9.38a17.56,17.56,0,0,0-3,5,12.33,12.33,0,0,0-.63,5.75,12.24,12.24,0,0,1,.45-5.82,17.77,17.77,0,0,1,2.88-5.13c2.4-3.1,5.15-5.94,6.73-9.48A29.67,29.67,0,0,0,740,176.3a53,53,0,0,0-.11-5.78c-.16-1.91-.48-3.83-.8-5.76-.61-3.85-1.29-7.84-.67-11.95a15.87,15.87,0,0,1,.78-3,14.66,14.66,0,0,1,.64-1.46c.12-.23.24-.47.38-.7l.2-.34.11-.17.16-.23a7.87,7.87,0,0,1,1.27-1.17c.42-.32.84-.61,1.25-.89.84-.56,1.68-1.09,2.52-1.6,3.37-2.05,6.76-4,10-6.06a57.2,57.2,0,0,0,4.71-3.29,20.29,20.29,0,0,0,2.06-1.84,5.85,5.85,0,0,0,1.35-1.92v0a1.28,1.28,0,0,1,1.61-.8,1.26,1.26,0,0,1,.8,1.61Z"/><path class="cls-18" d="M766.79,98.44c.53,2.86,1.47,5.71,2.05,8.79a19.36,19.36,0,0,1,.35,4.78,12.86,12.86,0,0,1-1.28,4.74,14.68,14.68,0,0,1-2.77,3.93l-1.68,1.66c-.59.53-1.24,1-1.86,1.45a33,33,0,0,1-8.23,4.24,72.78,72.78,0,0,1-8.76,2.55c-3,.7-5.9,1.3-8.82,2s-5.82,1.39-8.66,2.27a41.22,41.22,0,0,0-8.08,3.6,39,39,0,0,0-6.84,5.62c-2.05,2.15-4,4.47-5.86,6.8a58.64,58.64,0,0,1-6.13,6.69,22.83,22.83,0,0,1-7.78,4.72,25.3,25.3,0,0,1-9,1c-3-.2-6-.63-9-.76a16.59,16.59,0,0,0-4.45.32,7.38,7.38,0,0,0-3.78,2.2,10.8,10.8,0,0,0-2.09,3.93c-.18.72-.39,1.45-.54,2.18l-.36,2.23.32-2.24c.14-.73.33-1.46.5-2.2a11.07,11.07,0,0,1,2.05-4,7.57,7.57,0,0,1,3.84-2.32,17.19,17.19,0,0,1,4.52-.41c3,.08,6,.46,9,.6a24.81,24.81,0,0,0,8.78-1.14,22.07,22.07,0,0,0,7.45-4.71,57.48,57.48,0,0,0,5.93-6.7c1.86-2.36,3.73-4.73,5.8-7a41.18,41.18,0,0,1,7-5.93,42.66,42.66,0,0,1,8.31-3.87c2.89-1,5.81-1.77,8.75-2.47s5.86-1.36,8.76-2.11a71,71,0,0,0,8.5-2.63,30.77,30.77,0,0,0,7.69-4.13c.55-.45,1.15-.86,1.67-1.35l1.51-1.53a12.71,12.71,0,0,0,2.34-3.44,10.55,10.55,0,0,0,1-3.94,17.61,17.61,0,0,0-.39-4.18c-.58-2.83-1.58-5.7-2.21-8.75a1.28,1.28,0,0,1,2.5-.51Z"/><path class="cls-18" d="M732.64,121.66c-5.24,2.46-10.4,5.22-15.56,7.93-2.59,1.36-5.16,2.73-7.78,4l-2,1c-.63.33-1.26.68-1.89,1-1.26.72-2.51,1.48-3.82,2.18a21.41,21.41,0,0,1-4.1,1.77,8.56,8.56,0,0,1-2.27.38,6,6,0,0,1-2.27-.45,42.36,42.36,0,0,0-4-1.67,15.94,15.94,0,0,0-4.27-.21,73.18,73.18,0,0,0-8.61,1.41,39.77,39.77,0,0,1-4.35.55,27.84,27.84,0,0,1-4.38-.11,26.56,26.56,0,0,0,4.37,0,39,39,0,0,0,4.31-.67,75.4,75.4,0,0,1,8.62-1.67,17.13,17.13,0,0,1,4.46.1,37.37,37.37,0,0,1,4.11,1.58,5.42,5.42,0,0,0,2,.33,8,8,0,0,0,2-.4,20.28,20.28,0,0,0,3.87-1.81c1.25-.72,2.47-1.51,3.73-2.27.62-.39,1.26-.76,1.91-1.13l2-1c2.57-1.35,5.12-2.77,7.68-4.17,5.13-2.79,10.22-5.64,15.52-8.22a.85.85,0,0,1,.74,1.52h0Z"/><path class="cls-18" d="M724.92,135.73a20,20,0,0,0-6,6.08,47.89,47.89,0,0,0-4.15,7.78c-.59,1.35-1.14,2.73-1.66,4.12s-1,2.79-1.61,4.23a9.88,9.88,0,0,1-2.88,3.69,24.29,24.29,0,0,1-4,2.23,15.37,15.37,0,0,0-3.62,2.42,16.11,16.11,0,0,0-2.77,3.37,21.38,21.38,0,0,0-2.8,8.32c-.43,2.93-.53,5.93-.89,8.9a25.44,25.44,0,0,1-2.33,8.61,25.25,25.25,0,0,0,2.11-8.64c.28-3,.3-6,.67-8.93a21.89,21.89,0,0,1,2.66-8.61,18.09,18.09,0,0,1,2.81-3.6,16.63,16.63,0,0,1,3.74-2.63,23.59,23.59,0,0,0,3.77-2.24,8.68,8.68,0,0,0,2.49-3.36c.56-1.29,1-2.78,1.48-4.18s1-2.82,1.59-4.22a50,50,0,0,1,4.11-8.09,21.26,21.26,0,0,1,6.36-6.7.85.85,0,0,1,.9,1.44Z"/><path class="cls-18" d="M768.19,97.31a24.6,24.6,0,0,1,2.59,7.64c.51,2.55.89,5.09,1.27,7.61s.77,5,1.26,7.5a32.35,32.35,0,0,0,2.09,7.07,12,12,0,0,0,.87,1.52c.35.5.71,1,1.1,1.47.78,1,1.62,1.89,2.49,2.82a37.35,37.35,0,0,1,4.92,6.08,15.86,15.86,0,0,1,1.64,3.69,16.8,16.8,0,0,1,.52,4,34.56,34.56,0,0,0,.21,3.74,11.33,11.33,0,0,0,1.09,3.43,17.13,17.13,0,0,0,4.53,5.75,29.81,29.81,0,0,0,6.32,4,67.72,67.72,0,0,0,14.42,4.75c5,1.15,10,1.88,15,2.86a19.77,19.77,0,0,1,7.08,2.89c2.13,1.44,4,3.17,6,4.77-2-1.55-4-3.24-6.09-4.62a19.53,19.53,0,0,0-7.06-2.7c-5-.86-10.1-1.48-15.11-2.52a68.65,68.65,0,0,1-14.71-4.49,30.6,30.6,0,0,1-6.66-4,18.41,18.41,0,0,1-5-6.07,12.88,12.88,0,0,1-1.3-3.82,38.12,38.12,0,0,1-.31-3.89,15.31,15.31,0,0,0-.54-3.58,14.22,14.22,0,0,0-1.54-3.25,36,36,0,0,0-4.83-5.68c-.89-.92-1.79-1.86-2.64-2.86-.42-.51-.83-1-1.23-1.57a13.47,13.47,0,0,1-1.06-1.78,34.11,34.11,0,0,1-2.37-7.54c-.55-2.53-1-5.06-1.39-7.58s-.84-5-1.38-7.47a22.29,22.29,0,0,0-2.35-6.77l0-.05a1.29,1.29,0,0,1,.4-1.76,1.27,1.27,0,0,1,1.75.41Z"/><path class="cls-18" d="M769.46,96.76c1.5-3.19-2.73-.7-3.44-.27-.55.34-2,.89-1.5,1.86.59,1.18,3.06.66,3.83,0"/></g><g id="Layer_34" data-name="Layer 34"><path class="cls-66" d="M481.91,194c18.7-2.64,40.37-3.29,59.77-9.66,10.71-3.52,38.2-13.67,39-28.35.54-9.74-10.4-14.24-18.67-11.42-13.08,4.46-7.87,19,2.15,9.13"/><path class="cls-66" d="M471.37,191.22c16.92-18.46,58.21-3.61,69.83-34.25,3.46-9.12.66-21.84-10.87-19.09-15.21,3.64-2.42,23.06,1.43,11.81"/><path class="cls-66" d="M529.48,196.14c15.87,1.36,47.28-25.5,61-8.7,5.17,6.31,1.92,15.92-6.2,16.55-8.66.67-15.82-14.81-2.79-11.54"/><text class="cls-9" transform="translate(438.39 257.59)"><tspan class="cls-53">w</tspan><tspan x="21.01" y="0">i</tspan><tspan class="cls-11" x="27.68" y="0">n</tspan><tspan x="42.42" y="0">d ab</tspan><tspan class="cls-10" x="100.74" y="0">r</tspan><tspan x="108.28" y="0">asion</tspan></text></g><g id="Layer_33" data-name="Layer 33"><rect class="cls-67" x="275.92" y="114.03" width="3.94" height="62.87" rx="1.97" transform="translate(-33.38 106.84) rotate(-20.56)"/><rect class="cls-67" x="305.03" y="97.68" width="3.94" height="62.87" rx="1.97" transform="translate(-25.79 116.02) rotate(-20.56)"/><rect class="cls-67" x="318.38" y="107.22" width="3.94" height="52.36" rx="1.97" transform="translate(-26.44 120.98) rotate(-20.56)"/><rect class="cls-67" x="295.13" y="107.87" width="3.94" height="52.36" rx="1.97" transform="translate(-28.15 112.86) rotate(-20.56)"/><rect class="cls-67" x="286.33" y="115.73" width="3.94" height="52.36" rx="1.97" transform="translate(-31.47 110.27) rotate(-20.56)"/><path class="cls-68" d="M338.82,170.28l-.84-.38-1.61-.1-11.38.06-13.66,0-.67.07-.62.24-.65.59-6.49,7-7.58,8.54-.64.86L291.87,204l.13,1.12a1.21,1.21,0,0,0,.13.42l.45.82,2.71,1.61,8.18,5,8.61,5.19,1.48.67,1,0,1.07-.4,2.85-1.77,9.83-6.49,16.39-10.53,1.52-1.1.63-1.11.12-1.1-.42-1.59L343,182.23l-2.42-7.86-.94-3Z"/><path class="cls-68" d="M344.43,196.29,314,216.14l-18.33-11.33a.94.94,0,0,1-.42-.93l2.37-15.55,14.22-16,25.26.2Z"/><text class="cls-9" transform="translate(279.95 261.36)">g<tspan class="cls-63" x="16.39" y="0">r</tspan><tspan x="23.93" y="0">a</tspan><tspan class="cls-69" x="40.32" y="0">v</tspan><tspan x="53.52" y="0">it</tspan><tspan class="cls-70" x="67.54" y="0">y</tspan></text></g><g id="Layer_32" data-name="Layer 32"><text class="cls-9" transform="translate(20.99 258.36)">f<tspan class="cls-63" x="7.36" y="0">r</tspan><tspan x="14.9" y="0">e</tspan><tspan class="cls-69" x="29.91" y="0">e</tspan><tspan class="cls-71" x="44.78" y="0">z</tspan><tspan x="55.83" y="0">e/t</tspan><tspan class="cls-11" x="86.08" y="0">h</tspan><tspan x="100.85" y="0">a</tspan><tspan class="cls-72" x="117.23" y="0">w</tspan></text><line class="cls-73" x1="53.97" y1="96.99" x2="53.97" y2="167.47"/><line class="cls-73" x1="23.45" y1="114.61" x2="84.49" y2="149.85"/><line class="cls-73" x1="23.45" y1="149.85" x2="84.49" y2="114.61"/><polyline class="cls-73" points="61.48 163.13 53.97 153.87 46.45 163.13"/><polyline class="cls-73" points="46.45 101.33 53.97 110.58 61.48 101.33"/><polyline class="cls-73" points="84.49 141.17 72.71 143.05 76.97 154.19"/><polyline class="cls-73" points="23.45 123.29 35.22 121.41 31.01 110.4"/><polyline class="cls-73" points="76.97 110.27 72.71 121.41 84.49 123.29"/><polyline class="cls-73" points="30.96 154.19 35.22 143.05 23.45 141.17"/><path class="cls-35" d="M88.43,174.52c7.52-.58,9.07-4.75,15.88-6.45,7.19-1.79,17.58.74,24.19,3.37,6.9,2.74,10.08,6.67,17.9,7.71,4,.54,7.65.15,10.9,2.65,6.06,4.67,5.13,14.24,1.25,19.59-6.74,9.26-18.81,6-29.11,6.69-7.52.52-12.78,4.2-20.72,3.82a126.07,126.07,0,0,1-26-4.23c-15.59-4.13-12.82-18-3.37-26.36,1.81-1.61,4.29-5.64,9.08-6.79"/><line class="cls-74" x1="130.92" y1="114.98" x2="43.87" y2="202.02"/></g></g></g></svg>