<svg xmlns="http://www.w3.org/2000/svg" viewBox="0 0 262.57 199.87"><defs><style>.cls-1{fill:#5c5052;}.cls-2{fill:#3daaa1;}.cls-3{fill:#fff;}.cls-4,.cls-5{fill:none;}.cls-4{stroke:#3daaa1;stroke-miterlimit:10;stroke-width:1.13px;}.cls-6{fill:#2e61a1;}</style></defs><g id="Layer_2" data-name="Layer 2"><g id="Layer_3" data-name="Layer 3"><path class="cls-1" d="M262.1,74.71a12.28,12.28,0,0,1,.39,2c.05.39.24,1.11-.18,1.34s-1,0-1.43,0c-1.37,0-2.74.05-4.11.1s-3,.14-4.52.3a124.43,124.43,0,0,1-15.45.44c-4.36-.1-8.71-.31-13.07-.56s-8.44-.55-12.66-.86c-3.69-.27-7.38-.55-11.07-.79-1.72-.11-3.43-.2-5.15-.27-5-.21-12.14-16.43-14.27-21,7.77-3,8.78-13.68,14.55-19.66,3.09-3.19,7.61-5,10-8.88a27.78,27.78,0,0,1,2.24-3.81A10.43,10.43,0,0,1,209.91,21c.66-.4,2.41-1.53,3.12-1,.06,0,.53.88.66,1a29.73,29.73,0,0,1,2.07,2.89c1.82,2.8,2.92,6.25,5.76,8.23,1.41,1,3,1.14,4.39,2.35a37.39,37.39,0,0,1,5.74,6.12,15.69,15.69,0,0,0,2.35,3c2.15,1.83,5.37,2.4,7.82,3.8a32.72,32.72,0,0,1,8.23,6.58,18.58,18.58,0,0,1,2.34,3c.25.43.36.92.64,1.35.83,1.23,1.41,2.58,2.16,3.85C257.66,66.23,260.75,69.93,262.1,74.71Z"/><path class="cls-2" d="M206,50.22c-4.54-3.16-10.45-3.94-14.86-7.3-5.64-4.29-8.43-12.47-15.27-14.37a29.51,29.51,0,0,0-5.4-.64,30.43,30.43,0,0,1-13.84-4.76,63.44,63.44,0,0,1-12.34,19.23,32,32,0,0,0-4.23,5c-1.63,2.67-2.21,5.86-3.68,8.63-4.82,9.12-18.53,13.14-19,23.45l20.9,0,18.72,0,37.1,0c12.54,0,25.48.93,37.95,0,1.47-7.81-6.06-8.1-10.69-11.4C214.82,63.47,212.65,54.86,206,50.22Z"/><path class="cls-2" d="M120.42,78.86a30.37,30.37,0,0,0-4.25.19l-4.35.18q-4.32.18-8.62.3c-7.26.2-14.54.25-21.8,0-3.62-.15-7.24-.37-10.85-.71H70.4l-2.07-.21-2-.23-.47,0-.43,0-.9-.08c-.67-.07-1.34-.17-2-.3-.47-.09-.93-.23-1.38-.36-.12,0-.48-.1-.42-.28a.34.34,0,0,1,.06-.12l.15-.26a5.41,5.41,0,0,0,.33-.63l.48-.91.48-.89a.71.71,0,0,0,.08-.18c0-.09.1-.18.15-.27s.1-.18.14-.27l.3-.52c.41-.71.83-1.4,1.27-2.09,2.27-3.54,5-6.79,7-10.48,3.69-6.78,6.82-13.9,13.31-18.58.83-.6,1.7-1.12,2.53-1.72a12.65,12.65,0,0,0,4.64-5.91c1-3.27,1.78-6.54,4.27-9a12.28,12.28,0,0,1,1-.87,1.9,1.9,0,0,0,.4-.52c.46-.68.91-1.37,1.36-2.06l2.69-4.06Q107,9.4,112.75,1c1.68,2.72,4.66,4.28,7.29,6.09a18.69,18.69,0,0,1,4.55,4c.94,1.26,1.87,2.6,2.86,3.8.82,1,1.61,2,2.34,3.14a12.6,12.6,0,0,1,.78,1.61,16.79,16.79,0,0,0,3.76,4.9c.86.82,1.86,1.49,2.69,2.34a14.9,14.9,0,0,1,2,3.17l.06.11c1.18,1.95,2.4,3.87,3.59,5.81l3.62,5.86,1.8,2.93a19.82,19.82,0,0,1,1.74,2.81c-4.3,5.67-7.37,11.71-13.44,15.43-2.34,1.43-4.87,2.53-7.17,4a48.58,48.58,0,0,0-7.44,6.39,6.14,6.14,0,0,0-2,2.83C119.54,77.4,119.26,78.75,120.42,78.86Z"/><path class="cls-3" d="M121.57,21.41c-3.21.12-6.2-2.11-9.4-1.8-3,.28-5.23,2.62-7.59,4.43s-5.76,3.19-8.19,1.47a31.79,31.79,0,0,0,4.71-7.31,50.46,50.46,0,0,1,2.12-5.53,26.56,26.56,0,0,1,2.84-3.79A35.3,35.3,0,0,0,111.2.16c3.54,1.12,7.29,2.36,9.7,5.19,1,1.21,1.76,2.65,2.84,3.81,1.64,1.76,4,2.73,5.76,4.32C136,19.19,126.26,21.23,121.57,21.41Z"/><path class="cls-4" d="M120.39,78.88a.33.33,0,0,1,0,.43.74.74,0,0,1-.47.13c-.71,0-1.41,0-2.12,0-1.84,0-3.68,0-5.52,0q-1.38,0-2.76-.12a4.46,4.46,0,0,0-1.21,0,2.37,2.37,0,0,1-.36.09c-.36,0-.73,0-1.09,0l-1.5,0q-2.73.09-5.46.15c-1.82,0-3.64.06-5.46.08s-3.64,0-5.46,0-3.63-.06-5.45-.11c-3.38-.1-6.81-.2-10.18-.53-1.66-.17-3.32-.4-5-.66s-3.2-.45-4.75-.82a8,8,0,0,1-1.21-.33c-.12,0-.27-.09-.33-.21s.23-.39.39-.44l.14,0c.45-.11.92-1,1.16-1.3,2-2.85,3.41-6.22,5.11-9.26q2.72-4.89,5.6-9.7C77,52,79.79,47.63,83.69,44.43c3.07-2.53,7-4.5,8.5-8.18a43.38,43.38,0,0,0,1.25-4.93A25.49,25.49,0,0,1,97,24.43Q104.74,12.64,112.75,1a13.52,13.52,0,0,0,3.83,3.78,41.34,41.34,0,0,1,7.75,6.38c1.29,1.49,2.41,3.1,3.56,4.68a30.38,30.38,0,0,1,2.54,3.74,16.36,16.36,0,0,0,2.43,3.78c1.63,1.7,3.42,2.87,4.79,4.83,2.26,3.22,4.26,6.61,6.35,10l5.81,9.42c-4.3,5.67-7.37,11.71-13.44,15.43-2.34,1.43-4.87,2.53-7.17,4a48.58,48.58,0,0,0-7.44,6.39,6.14,6.14,0,0,0-2,2.83,4.13,4.13,0,0,0-.17,2,.93.93,0,0,0,.18.34c.11.13.17.11.33.13A.34.34,0,0,1,120.39,78.88Z"/><path class="cls-3" d="M181.84,43.82a10.89,10.89,0,0,0-3.68-.3,18.38,18.38,0,0,0-3.35,1.07A14.09,14.09,0,0,1,164.33,44c-2.25-1.08-4.18-2.75-6.43-3.85-1.86-.91-3.9-1.41-5.75-2.33a7.12,7.12,0,0,1-4.05-4.43,9.19,9.19,0,0,1,.49-4.51c1-3.63,2.84-7.79,6.55-8.5s7,2.62,10.56,4.11a26.82,26.82,0,0,0,5.62,1.37c5.5,1,11.6,3,13.88,8.09.59,1.31.87,2.73,1.41,4.06,1.35,3.37,4.62,4.51,6.24,7.4C189.93,46.32,185,44.43,181.84,43.82Z"/><path class="cls-4" d="M206,50.22c-4.54-3.16-10.45-3.94-14.86-7.3-5.64-4.29-8.43-12.47-15.27-14.37a29.51,29.51,0,0,0-5.4-.64,30.43,30.43,0,0,1-13.84-4.76,63.44,63.44,0,0,1-12.34,19.23,32,32,0,0,0-4.23,5c-1.63,2.67-2.21,5.86-3.68,8.63-4.82,9.12-18.53,13.14-19,23.45l20.9,0,18.72,0,37.1,0c12.54,0,25.48.93,37.95,0,1.47-7.81-6.06-8.1-10.69-11.4C214.82,63.47,212.65,54.86,206,50.22Z"/><path class="cls-5" d="M130.31,19.26A10.22,10.22,0,0,0,134,24.5c4.38,3.2,6.81,7.26,9.11,12.08"/><path class="cls-1" d="M10.48,147.88c2.23,1,1.68,1.78,3.94,2.78s4.4,2.93,4.37,5.26c0,1.84-1.41,3.39-3,4.37A11.79,11.79,0,0,1,5,160.78a9.38,9.38,0,0,1-1.88-1.13,7,7,0,0,1-1.77-8.92,7.26,7.26,0,0,1,8.67-3"/><path class="cls-1" d="M42.26,159c-1.27,1.71-1.83,1.11-3.06,2.85s-3.26,3.21-5.28,2.77a5.07,5.07,0,0,1-3.3-3.36A10.05,10.05,0,0,1,32,152a8,8,0,0,1,1.28-1.38,6.19,6.19,0,0,1,9.22,8"/><path class="cls-1" d="M64.37,136.15c2.89,1.95,4.3,6.25,2.3,9.11a9.44,9.44,0,0,1-2,1.94c-1.83,1.44-3.91,2.79-6.24,2.91a13.17,13.17,0,0,1-4.81-1,13.8,13.8,0,0,1-4.14-2,4.63,4.63,0,0,1-1.93-4,7,7,0,0,1,.66-2,15.14,15.14,0,0,1,2.47-4.2C53.83,133.61,60.76,133.7,64.37,136.15Z"/><path class="cls-1" d="M31.38,142.08c2.88,2,4.3,6.26,2.29,9.11a9.74,9.74,0,0,1-2,1.95c-1.83,1.44-3.91,2.78-6.24,2.9a13,13,0,0,1-4.81-1,13.56,13.56,0,0,1-4.14-2,4.63,4.63,0,0,1-1.93-3.95,7,7,0,0,1,.67-2,15.25,15.25,0,0,1,2.46-4.2C20.83,139.54,27.77,139.63,31.38,142.08Z"/><path class="cls-1" d="M23.26,155.61c3.59-.09,7.65,2.75,8.06,6.46a9.83,9.83,0,0,1-.21,2.92c-.43,2.38-1.11,4.83-2.84,6.37a12,12,0,0,1-4.41,2.13,13.1,13.1,0,0,1-4.56.87,5.34,5.34,0,0,1-4.22-2.23A8,8,0,0,1,14.2,170a17.63,17.63,0,0,1-1-5.16C13.33,159.94,18.77,155.73,23.26,155.61Z"/><path class="cls-1" d="M49.62,151.8c-1.5,2.51-3.36,1.1-6.18.56a7.7,7.7,0,0,1-5.77-5.79,9.06,9.06,0,0,1,2.2-7.95c1.36-1.51,3.42-2.62,5.41-2.13a6.13,6.13,0,0,1,3.2,2.33c2.73,3.49,3.55,8.49,1.57,12.39"/><path class="cls-1" d="M10.33,161.19c2.62-.72,2.48,2.27,3.39,5.05a9.28,9.28,0,0,1-1.87,8.52,8.26,8.26,0,0,1-7.39,2.87,5,5,0,0,1-4.29-3.44A7.51,7.51,0,0,1,.51,170c1.49-4.48,5.29-8,9.36-8.6"/><path class="cls-1" d="M48,125.79c2.34.22,1.48.1,3.67.92s4.86,1.16,5.54,3c.53,1.48-.26,3.09-1.43,4.3a12.15,12.15,0,0,1-9.6,3.31,9.86,9.86,0,0,1-2-.4c-3.1-1-5-3.94-4.29-6.62s.4-5.43,5.21-5.1"/><path class="cls-1" d="M37.7,130.07c2.65-.14,2.23,2.41,2.86,5a7,7,0,0,1-2.66,7,8.45,8.45,0,0,1-7.57,1.12c-1.8-.58-3.54-1.89-3.89-3.75a5.59,5.59,0,0,1,.73-3.56,11,11,0,0,1,10-5.72"/><path class="cls-1" d="M18.24,129.76c2.07-.68,1.29-.47,3.47-.55s4.57-.8,5.89.62a4.44,4.44,0,0,1,.55,4.4,10.76,10.76,0,0,1-6.75,6.59,9.3,9.3,0,0,1-1.88.42,5.75,5.75,0,0,1-6.3-4.35c-.47-2.69-1.87-5,2.32-6.55"/><path class="cls-1" d="M6.47,147.28c-2.56-.42-3-2.13-3-4.35s.28-4,2.26-4.8,4.81-.47,7.29.64c1.77.8,3.51,2.14,3.94,3.62a2.9,2.9,0,0,1-.55,2.55c-1.68,2.36-5.53,3.32-9.48,2.37"/><path class="cls-1" d="M23.52,128.76c-2.18-1.42-1.81-3.19-.82-5.28s2.07-3.65,4.26-3.59,4.67,1.48,6.47,3.52c1.29,1.45,2.3,3.41,2,5a3.2,3.2,0,0,1-1.67,2.18c-2.61,1.53-6.62.89-9.85-1.59"/><path class="cls-1" d="M69.15,114.63c2.46-.15,2.33.76,4.79.56s5.26.49,6.35,2.55c.86,1.63.38,3.66-.58,5.28a11.79,11.79,0,0,1-9.23,5.56,9.33,9.33,0,0,1-2.18-.1,7,7,0,0,1-5.81-7,7.26,7.26,0,0,1,6.2-6.76"/><path class="cls-1" d="M102.4,109.31c-.3,2.11-1.07,1.84-1.32,4s-1.35,4.37-3.33,4.94a5,5,0,0,1-4.5-1.38A10,10,0,0,1,90,108.07a8.07,8.07,0,0,1,.47-1.83,6.19,6.19,0,0,1,11.92,2.66"/><path class="cls-1" d="M111,78.65c3.47.34,6.76,3.45,6.35,6.92a9.67,9.67,0,0,1-.83,2.66c-.93,2.14-2.11,4.31-4.1,5.53a13.15,13.15,0,0,1-4.71,1.42,13.49,13.49,0,0,1-4.56.25,4.61,4.61,0,0,1-3.58-2.56,6.6,6.6,0,0,1-.38-2.08,15.28,15.28,0,0,1,.17-4.87C100.47,81.44,106.62,78.22,111,78.65Z"/><path class="cls-1" d="M84.76,99.58c3.47.34,6.76,3.45,6.36,6.92a9.78,9.78,0,0,1-.83,2.66c-.93,2.14-2.11,4.31-4.1,5.52a13.17,13.17,0,0,1-4.71,1.43,13.75,13.75,0,0,1-4.56.25,4.64,4.64,0,0,1-3.59-2.56,6.94,6.94,0,0,1-.37-2.08,15,15,0,0,1,.17-4.87C74.28,102.37,80.43,99.15,84.76,99.58Z"/><path class="cls-1" d="M84.07,115.34c3.11-1.79,8-1.22,10.16,1.84a10.17,10.17,0,0,1,1.21,2.67c.76,2.3,1.32,4.78.54,7a11.94,11.94,0,0,1-2.87,4,13.09,13.09,0,0,1-3.6,2.93,5.34,5.34,0,0,1-4.77.06A8.26,8.26,0,0,1,83,132.29a17.29,17.29,0,0,1-3.32-4.07C77.4,123.88,80.18,117.58,84.07,115.34Z"/><path class="cls-1" d="M105.44,99.43c-.13,2.93-2.44,2.57-5.17,3.44a7.69,7.69,0,0,1-7.84-2.34,9.07,9.07,0,0,1-1.85-8c.48-2,1.76-3.94,3.75-4.46a6.12,6.12,0,0,1,3.93.53,11.89,11.89,0,0,1,7.27,10.15"/><path class="cls-1" d="M75.36,126.4c2-1.87,3.26.82,5.39,2.83a9.34,9.34,0,0,1,2.41,8.39,8.27,8.27,0,0,1-5.14,6,5,5,0,0,1-5.4-1,7.36,7.36,0,0,1-1.7-3.85c-.83-4.65.85-9.54,4.12-12"/><path class="cls-1" d="M91.62,77.33c2.17-.91,1.35-.61,3.67-.93s4.83-1.3,6.3,0c1.18,1,1.25,2.84.8,4.46a12.19,12.19,0,0,1-6.87,7.48,10,10,0,0,1-2,.62c-3.19.63-6.3-1.08-6.93-3.78s-2.24-5,2.15-7"/><path class="cls-1" d="M84.61,86c2.26-1.39,3.11,1.06,4.89,3a7,7,0,0,1,1,7.44,8.49,8.49,0,0,1-6.12,4.59c-1.86.34-4,0-5.21-1.45a5.55,5.55,0,0,1-1-3.48,11,11,0,0,1,6.11-9.82"/><path class="cls-1" d="M67.35,95c1.49-1.57.91-1,2.79-2.13S73.77,90,75.61,90.6a4.45,4.45,0,0,1,2.58,3.61,10.77,10.77,0,0,1-2.8,9,8.68,8.68,0,0,1-1.45,1.26,5.74,5.74,0,0,1-7.61-.82c-1.69-2.14-4-3.54-1.08-6.86"/><path class="cls-1" d="M65.34,116c-2.45.85-3.64-.45-4.71-2.4s-1.66-3.66-.29-5.3,4-2.7,6.7-2.9c1.94-.14,4.11.21,5.19,1.3a2.91,2.91,0,0,1,.73,2.52c-.35,2.87-3.28,5.54-7.2,6.58"/><path class="cls-1" d="M71.51,91.61c-2.59-.21-3.11-2-3.23-4.26s.08-4.19,2-5.19a9.69,9.69,0,0,1,7.36,0c1.82.67,3.64,1.9,4.15,3.41a3.16,3.16,0,0,1-.43,2.7c-1.57,2.6-5.4,3.95-9.42,3.3"/><path class="cls-1" d="M74.47,180.64c-.31,2.11-1.08,1.85-1.33,4s-1.35,4.38-3.33,5a5,5,0,0,1-4.5-1.39,10,10,0,0,1-3.23-8.75,7.75,7.75,0,0,1,.46-1.84,6.2,6.2,0,0,1,11.93,2.67"/><path class="cls-1" d="M83,150c3.47.34,6.76,3.45,6.35,6.92a9.42,9.42,0,0,1-.82,2.66c-.93,2.14-2.12,4.31-4.11,5.52a13.17,13.17,0,0,1-4.7,1.43,13.81,13.81,0,0,1-4.57.25,4.63,4.63,0,0,1-3.58-2.56,6.7,6.7,0,0,1-.37-2.08,15,15,0,0,1,.17-4.87C72.54,152.78,78.68,149.56,83,150Z"/><path class="cls-1" d="M56.83,170.92c3.47.34,6.76,3.45,6.35,6.91a9.74,9.74,0,0,1-.83,2.67c-.93,2.14-2.11,4.31-4.1,5.52a13.17,13.17,0,0,1-4.71,1.43,13.75,13.75,0,0,1-4.56.25,4.61,4.61,0,0,1-3.58-2.56,7,7,0,0,1-.38-2.08,15.28,15.28,0,0,1,.17-4.87C46.34,173.71,52.49,170.49,56.83,170.92Z"/><path class="cls-1" d="M77.5,170.77c-.13,2.93-2.43,2.57-5.17,3.44a7.67,7.67,0,0,1-7.83-2.34,9.08,9.08,0,0,1-1.85-8c.48-2,1.76-3.93,3.74-4.45a6.18,6.18,0,0,1,3.93.52c4.06,1.77,7.16,5.78,7.27,10.16"/><path class="cls-1" d="M63.69,148.67c2.16-.91,1.35-.61,3.66-.93s4.83-1.3,6.31,0c1.17,1,1.24,2.84.79,4.46a12.14,12.14,0,0,1-6.87,7.47,9.41,9.41,0,0,1-2,.63c-3.18.62-6.3-1.08-6.93-3.79s-2.23-5,2.15-7"/><path class="cls-1" d="M56.67,157.34c2.26-1.38,3.11,1.07,4.89,3a7,7,0,0,1,1,7.44,8.47,8.47,0,0,1-6.12,4.58c-1.86.35-4,0-5.21-1.45a5.52,5.52,0,0,1-1-3.48,11,11,0,0,1,6.11-9.81"/><path class="cls-1" d="M39.41,166.33c1.49-1.57.91-1,2.79-2.13s3.64-2.87,5.48-2.26a4.44,4.44,0,0,1,2.57,3.61,10.73,10.73,0,0,1-2.8,9A8.68,8.68,0,0,1,46,175.82a5.74,5.74,0,0,1-7.61-.82c-1.69-2.14-4-3.54-1.08-6.86"/><path class="cls-1" d="M37.4,187.35c-2.45.85-3.63-.45-4.7-2.4s-1.67-3.66-.3-5.3,4-2.7,6.71-2.9c1.93-.15,4.1.2,5.18,1.3a2.94,2.94,0,0,1,.74,2.51c-.35,2.87-3.28,5.55-7.21,6.59"/><path class="cls-1" d="M43.58,162.94c-2.6-.2-3.11-1.94-3.24-4.25s.08-4.19,2-5.19a9.69,9.69,0,0,1,7.36,0c1.83.66,3.65,1.9,4.15,3.4a3.21,3.21,0,0,1-.42,2.71c-1.57,2.6-5.41,3.94-9.43,3.3"/><path class="cls-1" d="M132.71,98.18c-1.77-.12-1.6-.75-3.37-.83s-3.71-.83-4.3-2.4a4,4,0,0,1,.89-3.72A8.48,8.48,0,0,1,133,88.11a6.7,6.7,0,0,1,1.55.26,5,5,0,0,1,3.51,5.53,5.21,5.21,0,0,1-5,4.26"/><path class="cls-1" d="M108.49,99c.41-1.48.93-1.22,1.31-2.71s1.35-3,2.82-3.22a3.62,3.62,0,0,1,3.09,1.4,7.21,7.21,0,0,1,1.51,6.54,5.79,5.79,0,0,1-.5,1.27,4.46,4.46,0,0,1-8.27-3"/><path class="cls-1" d="M99.6,120.06c-2.45-.56-4.51-3.08-3.91-5.51a6.73,6.73,0,0,1,.84-1.83,8.28,8.28,0,0,1,3.43-3.57,9.51,9.51,0,0,1,3.48-.59,10.07,10.07,0,0,1,3.29.24,3.31,3.31,0,0,1,2.32,2.15,5.15,5.15,0,0,1,.08,1.52,10.91,10.91,0,0,1-.57,3.46C107.33,119,102.66,120.76,99.6,120.06Z"/><path class="cls-1" d="M120.19,107.51c-2.44-.57-4.51-3.08-3.9-5.52a7,7,0,0,1,.83-1.83,8.26,8.26,0,0,1,3.43-3.56A9.16,9.16,0,0,1,124,96a9.74,9.74,0,0,1,3.28.23,3.35,3.35,0,0,1,2.32,2.15,4.63,4.63,0,0,1,.08,1.53,10.84,10.84,0,0,1-.56,3.45C127.93,106.47,123.25,108.21,120.19,107.51Z"/><path class="cls-1" d="M122.12,96.32c-2.38,1-5.85.14-7.08-2.24a7,7,0,0,1-.62-2,7.86,7.86,0,0,1,.25-5,8.42,8.42,0,0,1,2.41-2.57,9.32,9.32,0,0,1,2.83-1.77,3.83,3.83,0,0,1,3.41.4,5.74,5.74,0,0,1,1.14,1.22,12.24,12.24,0,0,1,2,3.2C127.66,90.83,125.1,95.07,122.12,96.32Z"/><path class="cls-1" d="M105.43,105.73c.36-2.08,2-1.61,4-2a5.52,5.52,0,0,1,5.38,2.38,6.52,6.52,0,0,1,.59,5.9,4.17,4.17,0,0,1-3.08,2.84,4.49,4.49,0,0,1-2.76-.73,8.57,8.57,0,0,1-4.27-7.91"/><path class="cls-1" d="M129.34,89.22c-1.56,1.16-2.25-.88-3.58-2.51a6.68,6.68,0,0,1-1-6.21A5.93,5.93,0,0,1,129,76.66a3.6,3.6,0,0,1,3.77,1.19,5.37,5.37,0,0,1,.86,2.91,9,9,0,0,1-4,8.2"/><path class="cls-1" d="M113.28,122.76a5.78,5.78,0,0,1-2.7.33c-1.7,0-3.57.49-4.5-.58a3.14,3.14,0,0,1-.17-3.25,8.78,8.78,0,0,1,5.59-4.72,7.33,7.33,0,0,1,1.46-.26c2.33-.16,4.4,1.34,4.6,3.33s1.15,3.74-2.17,4.77"/><path class="cls-1" d="M119.07,117.21c-1.74.78-2.12-1-3.21-2.61a5,5,0,0,1,0-5.39,6.08,6.08,0,0,1,4.79-2.72,3.89,3.89,0,0,1,3.58,1.5,4,4,0,0,1,.44,2.58,7.92,7.92,0,0,1-5.26,6.45"/><path class="cls-1" d="M132.21,112.36a5,5,0,0,1-2.19,1.27c-1.44.62-2.85,1.72-4.11,1.11a3.2,3.2,0,0,1-1.51-2.81,7.71,7.71,0,0,1,2.82-6.17,5.92,5.92,0,0,1,1.15-.77,4.12,4.12,0,0,1,5.35,1.28c1,1.68,2.57,2.89.15,5"/><path class="cls-1" d="M135.55,97.55c1.83-.39,2.56.65,3.14,2.13s.86,2.77-.27,3.81a7.1,7.1,0,0,1-5,1.46,5,5,0,0,1-3.58-1.4,2.11,2.11,0,0,1-.3-1.86c.51-2,2.85-3.66,5.75-4"/><path class="cls-1" d="M128.93,114.4c1.83.38,2,1.67,1.92,3.33s-.44,3-1.93,3.52a7,7,0,0,1-5.25-.68,4.82,4.82,0,0,1-2.65-2.81,2.28,2.28,0,0,1,.55-1.89c1.35-1.72,4.21-2.33,7-1.5"/><path class="cls-1" d="M120.34,119c1.81-.19,3.82,1,4,2.86a5,5,0,0,1-.14,1.44,6,6,0,0,1-1.51,3.26,6.74,6.74,0,0,1-2.25,1.22,6.9,6.9,0,0,1-2.3.62,2.43,2.43,0,0,1-2.1-.93,3.47,3.47,0,0,1-.41-1,7.74,7.74,0,0,1-.43-2.51C115.29,121.49,118.08,119.2,120.34,119Z"/><path class="cls-1" d="M109.19,132.42c1.81-.19,3.82,1.05,4,2.86a4.67,4.67,0,0,1-.14,1.44,6,6,0,0,1-1.51,3.26,6.94,6.94,0,0,1-2.25,1.23,7.13,7.13,0,0,1-2.3.61,2.38,2.38,0,0,1-2.1-.93,3.36,3.36,0,0,1-.41-1,7.68,7.68,0,0,1-.43-2.5C104.14,135,106.93,132.66,109.19,132.42Z"/><path class="cls-1" d="M119.73,130.15c.25,1.51-1,1.57-2.27,2.31a4,4,0,0,1-4.25-.37,4.75,4.75,0,0,1-1.8-3.9,3,3,0,0,1,1.44-2.67,3.16,3.16,0,0,1,2.06-.15,6.19,6.19,0,0,1,4.79,4.41"/><path class="cls-1" d="M110.34,120.34a4,4,0,0,1,1.77-.87c1.15-.41,2.32-1.17,3.22-.66a2.25,2.25,0,0,1,.88,2.19,6.36,6.36,0,0,1-2.72,4.55,4.79,4.79,0,0,1-.94.52,3,3,0,0,1-3.93-1.19c-.61-1.32-1.67-2.3.35-3.78"/><path class="cls-1" d="M107.68,125.51c1-1,1.69.21,2.81,1a3.64,3.64,0,0,1,1.3,3.69,4.43,4.43,0,0,1-2.64,3,2.84,2.84,0,0,1-2.81-.19,2.94,2.94,0,0,1-.91-1.67,5.77,5.77,0,0,1,2.08-5.66"/><path class="cls-1" d="M99.82,131.93c.59-1,.35-.62,1.2-1.39s1.55-1.85,2.55-1.73a2.3,2.3,0,0,1,1.7,1.57,5.63,5.63,0,0,1-.47,4.89,4.83,4.83,0,0,1-.61.8,3,3,0,0,1-4,.39c-1.09-.92-2.44-1.38-1.28-3.39"/><path class="cls-1" d="M101,142.87c-1.16.69-1.9.15-2.65-.73s-1.24-1.69-.72-2.67a5.21,5.21,0,0,1,3.12-2.19,3.64,3.64,0,0,1,2.78.11,1.5,1.5,0,0,1,.64,1.21c.13,1.5-1.08,3.18-3,4.12"/><path class="cls-1" d="M101.58,129.76c-1.34.17-1.79-.67-2.1-1.83s-.4-2.15.49-2.87a5.07,5.07,0,0,1,3.76-.77,3.54,3.54,0,0,1,2.48,1.3,1.67,1.67,0,0,1,.07,1.43c-.52,1.49-2.34,2.58-4.46,2.68"/><path class="cls-1" d="M153.27,74.56c1.81-.19,3.82,1,4,2.86a5,5,0,0,1-.14,1.44,6,6,0,0,1-1.51,3.26,6.94,6.94,0,0,1-2.25,1.23A7.25,7.25,0,0,1,151,84a2.46,2.46,0,0,1-2.1-.93,3.76,3.76,0,0,1-.41-1,8,8,0,0,1-.43-2.51C148.21,77.09,151,74.8,153.27,74.56Z"/><path class="cls-1" d="M142.12,88c1.81-.19,3.82,1,4,2.86a5.1,5.1,0,0,1-.14,1.45,6,6,0,0,1-1.51,3.25,6.94,6.94,0,0,1-2.25,1.23,7.25,7.25,0,0,1-2.31.61,2.41,2.41,0,0,1-2.1-.93,3.64,3.64,0,0,1-.41-1A8,8,0,0,1,137,93C137.06,90.56,139.86,88.26,142.12,88Z"/><path class="cls-1" d="M152.66,85.75c.24,1.51-1,1.57-2.28,2.31a4,4,0,0,1-4.24-.37,4.72,4.72,0,0,1-1.8-3.9,3,3,0,0,1,1.44-2.67,3.16,3.16,0,0,1,2.06-.15,6.21,6.21,0,0,1,4.79,4.41"/><path class="cls-1" d="M143.26,75.94a4.14,4.14,0,0,1,1.77-.87c1.16-.41,2.33-1.17,3.22-.66a2.26,2.26,0,0,1,.88,2.19,6.35,6.35,0,0,1-2.71,4.55,5.09,5.09,0,0,1-.94.52,3,3,0,0,1-3.94-1.19c-.61-1.32-1.67-2.3.36-3.78"/><path class="cls-1" d="M140.6,81.11c1-1,1.7.21,2.82,1a3.66,3.66,0,0,1,1.3,3.69,4.45,4.45,0,0,1-2.64,3,2.86,2.86,0,0,1-2.82-.19,2.93,2.93,0,0,1-.9-1.67,5.75,5.75,0,0,1,2.08-5.66"/><path class="cls-1" d="M132.74,87.53a3.66,3.66,0,0,1,1.2-1.39c.85-.77,1.55-1.85,2.56-1.73A2.28,2.28,0,0,1,138.19,86a5.59,5.59,0,0,1-.47,4.89,3.94,3.94,0,0,1-.61.8,3,3,0,0,1-4,.39c-1.09-.91-2.44-1.38-1.28-3.39"/><path class="cls-1" d="M134,98.47c-1.16.69-1.91.15-2.66-.73s-1.24-1.69-.71-2.67a5.15,5.15,0,0,1,3.11-2.19,3.67,3.67,0,0,1,2.79.11,1.52,1.52,0,0,1,.64,1.21c.13,1.5-1.09,3.18-3,4.12"/><path class="cls-1" d="M134.51,85.36c-1.35.17-1.79-.67-2.1-1.83s-.41-2.15.49-2.87a5.06,5.06,0,0,1,3.76-.77,3.54,3.54,0,0,1,2.48,1.3,1.67,1.67,0,0,1,.07,1.43c-.53,1.49-2.34,2.58-4.46,2.68"/><path class="cls-1" d="M140.52,101.54c-1.81-.09-3.6-1.63-3.47-3.45a5,5,0,0,1,.36-1.41,6,6,0,0,1,2-3,7,7,0,0,1,2.41-.86,7.07,7.07,0,0,1,2.37-.24,2.39,2.39,0,0,1,1.93,1.25,3.55,3.55,0,0,1,.25,1.08,8,8,0,0,1,0,2.53C145.91,99.84,142.79,101.66,140.52,101.54Z"/><path class="cls-1" d="M153.66,90c-1.82-.09-3.61-1.63-3.48-3.45a5.44,5.44,0,0,1,.37-1.41,6,6,0,0,1,2-3,10.32,10.32,0,0,1,4.79-1.1,2.42,2.42,0,0,1,1.93,1.25,3.54,3.54,0,0,1,.24,1.08,7.68,7.68,0,0,1,0,2.53C159.05,88.31,155.93,90.13,153.66,90Z"/><path class="cls-1" d="M142.9,90.58c0-1.52,1.2-1.39,2.61-1.91a4,4,0,0,1,4.13,1,4.74,4.74,0,0,1,1.16,4.14A3,3,0,0,1,149,96.25a3.16,3.16,0,0,1-2-.18,6.2,6.2,0,0,1-4-5.11"/><path class="cls-1" d="M150.62,101.76a4,4,0,0,1-1.89.57c-1.2.23-2.48.8-3.28.15a2.26,2.26,0,0,1-.52-2.3,6.34,6.34,0,0,1,3.4-4.06,4.53,4.53,0,0,1,1-.37,3,3,0,0,1,3.7,1.8c.39,1.4,1.28,2.53-.95,3.68"/><path class="cls-1" d="M154.07,97.08c-1.15.77-1.65-.48-2.62-1.46a3.62,3.62,0,0,1-.7-3.85,4.43,4.43,0,0,1,3.08-2.54,2.84,2.84,0,0,1,2.74.63,2.87,2.87,0,0,1,.63,1.79,5.73,5.73,0,0,1-2.94,5.26"/><path class="cls-1" d="M162.84,92a3.65,3.65,0,0,1-1.4,1.18c-1,.62-1.83,1.58-2.8,1.31a2.33,2.33,0,0,1-1.43-1.82,5.63,5.63,0,0,1,1.24-4.76,4.33,4.33,0,0,1,.73-.69,3,3,0,0,1,4,.24c.93,1.08,2.19,1.75.73,3.55"/><path class="cls-1" d="M163.38,81c1.25-.51,1.9.14,2.51,1.13s1,1.87.28,2.75a5.16,5.16,0,0,1-3.42,1.68A3.64,3.64,0,0,1,160,86a1.54,1.54,0,0,1-.44-1.29c.12-1.5,1.58-3,3.6-3.6"/><path class="cls-1" d="M160.75,93.84c1.36,0,1.67.94,1.79,2.14s.06,2.19-.94,2.75a5,5,0,0,1-3.83.17,3.5,3.5,0,0,1-2.25-1.67,1.68,1.68,0,0,1,.16-1.42c.76-1.39,2.72-2.19,4.83-2"/><path class="cls-1" d="M161.75,98.5c1.81-.19,3.82,1,4,2.86a5.07,5.07,0,0,1-.14,1.45,6,6,0,0,1-1.51,3.26,6.92,6.92,0,0,1-2.25,1.22,7,7,0,0,1-2.31.61,2.39,2.39,0,0,1-2.09-.92,3.44,3.44,0,0,1-.42-1,7.91,7.91,0,0,1-.43-2.5C156.7,101,159.49,98.74,161.75,98.5Z"/><path class="cls-1" d="M150.6,112c1.81-.2,3.82,1,4,2.85a5.07,5.07,0,0,1-.14,1.45,6,6,0,0,1-1.51,3.26,6.92,6.92,0,0,1-2.25,1.22,7,7,0,0,1-2.31.61,2.39,2.39,0,0,1-2.09-.92,3.44,3.44,0,0,1-.42-1,7.91,7.91,0,0,1-.43-2.5C145.55,114.5,148.34,112.21,150.6,112Z"/><path class="cls-1" d="M161.14,109.7c.24,1.51-1,1.57-2.28,2.3a4,4,0,0,1-4.24-.36,4.73,4.73,0,0,1-1.8-3.91,3,3,0,0,1,1.44-2.67,3.22,3.22,0,0,1,2.06-.15,6.21,6.21,0,0,1,4.79,4.41"/><path class="cls-1" d="M151.74,99.88a4.22,4.22,0,0,1,1.78-.86c1.15-.41,2.32-1.18,3.21-.66a2.24,2.24,0,0,1,.88,2.19,6.31,6.31,0,0,1-2.71,4.54,5.14,5.14,0,0,1-.94.53,3,3,0,0,1-3.94-1.2c-.61-1.31-1.67-2.29.36-3.78"/><path class="cls-1" d="M149.08,105.05c1-.94,1.7.22,2.82,1a3.64,3.64,0,0,1,1.3,3.69,4.42,4.42,0,0,1-2.64,3,2.79,2.79,0,0,1-2.81-.19,2.88,2.88,0,0,1-.91-1.66,5.75,5.75,0,0,1,2.08-5.66"/><path class="cls-1" d="M141.22,111.47a3.63,3.63,0,0,1,1.2-1.38c.85-.77,1.55-1.85,2.56-1.73a2.31,2.31,0,0,1,1.7,1.57,5.6,5.6,0,0,1-.48,4.89,4.29,4.29,0,0,1-.6.8,3,3,0,0,1-4,.38c-1.09-.91-2.44-1.37-1.28-3.38"/><path class="cls-1" d="M142.43,122.41c-1.16.7-1.91.16-2.66-.72s-1.24-1.69-.71-2.67a5.16,5.16,0,0,1,3.11-2.2,3.62,3.62,0,0,1,2.79.12,1.52,1.52,0,0,1,.64,1.2c.13,1.5-1.09,3.18-3,4.13"/><path class="cls-1" d="M143,109.3c-1.35.17-1.79-.66-2.1-1.83s-.4-2.15.49-2.86a5,5,0,0,1,3.76-.77,3.47,3.47,0,0,1,2.48,1.3,1.65,1.65,0,0,1,.07,1.42c-.53,1.5-2.34,2.59-4.46,2.69"/><path class="cls-1" d="M142.19,129.61c-1.78-.12-1.6-.76-3.37-.84s-3.71-.82-4.3-2.39a4,4,0,0,1,.89-3.72,8.48,8.48,0,0,1,7.09-3.12,6.7,6.7,0,0,1,1.55.26,5,5,0,0,1,3.51,5.53,5.22,5.22,0,0,1-5,4.26"/><path class="cls-1" d="M118,130.39c.4-1.48.93-1.22,1.3-2.71s1.36-3,2.83-3.22a3.64,3.64,0,0,1,3.09,1.39,7.23,7.23,0,0,1,1.51,6.55,5.52,5.52,0,0,1-.5,1.26,4.45,4.45,0,0,1-8.27-3"/><path class="cls-1" d="M109.08,151.49c-2.45-.56-4.51-3.08-3.91-5.51a6.87,6.87,0,0,1,.83-1.83,8.3,8.3,0,0,1,3.44-3.57,9.51,9.51,0,0,1,3.48-.59,9.74,9.74,0,0,1,3.28.24,3.32,3.32,0,0,1,2.33,2.15,4.83,4.83,0,0,1,.07,1.52,10.9,10.9,0,0,1-.56,3.46C116.81,150.45,112.13,152.19,109.08,151.49Z"/><path class="cls-1" d="M129.67,138.93c-2.44-.56-4.51-3.07-3.9-5.51a7,7,0,0,1,.83-1.83A8.33,8.33,0,0,1,130,128a9.31,9.31,0,0,1,3.49-.58,9.74,9.74,0,0,1,3.28.23,3.33,3.33,0,0,1,2.32,2.15,4.85,4.85,0,0,1,.08,1.52,10.86,10.86,0,0,1-.56,3.46C137.41,137.9,132.73,139.64,129.67,138.93Z"/><path class="cls-1" d="M131.6,127.75c-2.38,1-5.85.14-7.09-2.24a7.66,7.66,0,0,1-.62-2,8,8,0,0,1,.25-5,8.57,8.57,0,0,1,2.42-2.57,9.32,9.32,0,0,1,2.83-1.77,3.83,3.83,0,0,1,3.41.4,6.23,6.23,0,0,1,1.14,1.21,12.46,12.46,0,0,1,2,3.21C137.14,122.26,134.58,126.5,131.6,127.75Z"/><path class="cls-1" d="M114.91,137.16c.35-2.08,2-1.61,4-2a5.52,5.52,0,0,1,5.38,2.38,6.55,6.55,0,0,1,.59,5.9,4.19,4.19,0,0,1-3.08,2.84,4.49,4.49,0,0,1-2.76-.73,8.56,8.56,0,0,1-4.27-7.91"/><path class="cls-1" d="M138.82,120.65c-1.57,1.15-2.25-.88-3.59-2.51a6.71,6.71,0,0,1-.95-6.21,5.93,5.93,0,0,1,4.21-3.84,3.6,3.6,0,0,1,3.77,1.19,5.35,5.35,0,0,1,.86,2.91,9,9,0,0,1-4,8.2"/><path class="cls-1" d="M122.76,154.19a5.8,5.8,0,0,1-2.71.33c-1.69,0-3.56.49-4.49-.58a3.11,3.11,0,0,1-.17-3.26A8.8,8.8,0,0,1,121,146a7.56,7.56,0,0,1,1.47-.26c2.33-.16,4.4,1.34,4.6,3.33s1.15,3.74-2.17,4.77"/><path class="cls-1" d="M128.55,148.64c-1.74.78-2.12-1-3.21-2.61a5,5,0,0,1,0-5.4,6.1,6.1,0,0,1,4.78-2.71,3.91,3.91,0,0,1,3.59,1.5,4,4,0,0,1,.43,2.58,7.9,7.9,0,0,1-5.25,6.45"/><path class="cls-1" d="M141.69,143.79a5,5,0,0,1-2.19,1.27c-1.45.62-2.85,1.72-4.11,1.11a3.18,3.18,0,0,1-1.51-2.81,7.73,7.73,0,0,1,2.81-6.17,6.6,6.6,0,0,1,1.15-.77,4.13,4.13,0,0,1,5.36,1.28c1,1.68,2.57,2.89.15,5"/><path class="cls-1" d="M145,129c1.83-.38,2.55.66,3.14,2.14s.86,2.77-.27,3.81a7.17,7.17,0,0,1-5.05,1.46,5,5,0,0,1-3.58-1.4,2.12,2.12,0,0,1-.3-1.86c.51-2,2.85-3.66,5.74-4"/><path class="cls-1" d="M138.41,145.83c1.83.38,2,1.67,1.92,3.33s-.44,3-1.93,3.52a7,7,0,0,1-5.25-.68,4.85,4.85,0,0,1-2.65-2.81,2.3,2.3,0,0,1,.55-1.9c1.35-1.71,4.21-2.32,7-1.5"/><path class="cls-1" d="M102.77,153.06c-1.77-.12-1.59-.76-3.36-.84s-3.71-.83-4.3-2.39a4,4,0,0,1,.89-3.72,8.48,8.48,0,0,1,7.09-3.13,7.29,7.29,0,0,1,1.55.27,5,5,0,0,1,3.51,5.52,5.21,5.21,0,0,1-5,4.26"/><path class="cls-1" d="M78.56,153.84c.4-1.48.93-1.22,1.3-2.71s1.36-3,2.83-3.23a3.65,3.65,0,0,1,3.09,1.4,7.23,7.23,0,0,1,1.51,6.55,5.71,5.71,0,0,1-.5,1.26,4.45,4.45,0,0,1-8.27-3"/><path class="cls-1" d="M69.67,174.94c-2.45-.56-4.51-3.08-3.91-5.52a6.81,6.81,0,0,1,.83-1.82A8.19,8.19,0,0,1,70,164a9.3,9.3,0,0,1,3.48-.59,9.74,9.74,0,0,1,3.28.23,3.36,3.36,0,0,1,2.33,2.16,4.83,4.83,0,0,1,.07,1.52,11,11,0,0,1-.56,3.46C77.4,173.9,72.72,175.64,69.67,174.94Z"/><path class="cls-1" d="M87.13,184.92c-2.45-.57-4.51-3.08-3.91-5.52a7,7,0,0,1,.83-1.83A8.3,8.3,0,0,1,87.49,174a9.29,9.29,0,0,1,3.48-.58,9.74,9.74,0,0,1,3.28.23,3.34,3.34,0,0,1,2.33,2.15,4.86,4.86,0,0,1,.07,1.52,10.86,10.86,0,0,1-.56,3.46C94.86,183.88,90.18,185.62,87.13,184.92Z"/><path class="cls-1" d="M90.26,162.38c-2.44-.56-4.51-3.08-3.9-5.51a7,7,0,0,1,.83-1.83,8.33,8.33,0,0,1,3.43-3.57,9.52,9.52,0,0,1,3.49-.59,10,10,0,0,1,3.28.24,3.31,3.31,0,0,1,2.32,2.15,4.83,4.83,0,0,1,.08,1.52,10.9,10.9,0,0,1-.56,3.46C98,161.34,93.32,163.08,90.26,162.38Z"/><path class="cls-1" d="M92.19,151.19c-2.38,1-5.85.15-7.09-2.23a7.27,7.27,0,0,1-.62-2,7.89,7.89,0,0,1,.25-5,8.67,8.67,0,0,1,2.41-2.57A9.37,9.37,0,0,1,90,137.59a3.85,3.85,0,0,1,3.42.4,6,6,0,0,1,1.14,1.21,12.29,12.29,0,0,1,2,3.21C97.73,145.71,95.17,150,92.19,151.19Z"/><path class="cls-1" d="M75.5,160.61c.35-2.08,2-1.62,4-2A5.54,5.54,0,0,1,84.88,161a6.61,6.61,0,0,1,.59,5.91,4.2,4.2,0,0,1-3.08,2.84,4.48,4.48,0,0,1-2.76-.73,8.58,8.58,0,0,1-4.27-7.91"/><path class="cls-1" d="M99.41,144.09c-1.57,1.16-2.25-.87-3.59-2.51a6.71,6.71,0,0,1-1-6.2,6,6,0,0,1,4.22-3.84,3.6,3.6,0,0,1,3.77,1.19,5.34,5.34,0,0,1,.86,2.9,9,9,0,0,1-4,8.21"/><path class="cls-1" d="M83.35,177.63a5.56,5.56,0,0,1-2.71.33c-1.69,0-3.56.5-4.5-.58a3.11,3.11,0,0,1-.16-3.25,8.75,8.75,0,0,1,5.58-4.71,7.59,7.59,0,0,1,1.47-.27c2.33-.15,4.4,1.35,4.6,3.34s1.15,3.74-2.17,4.77"/><path class="cls-1" d="M89.14,172.08c-1.74.78-2.12-1-3.21-2.6a5,5,0,0,1,0-5.4,6.11,6.11,0,0,1,4.78-2.72,3.39,3.39,0,0,1,4,4.09,7.9,7.9,0,0,1-5.25,6.45"/><path class="cls-1" d="M102.28,167.24a5.09,5.09,0,0,1-2.19,1.27c-1.45.62-2.86,1.72-4.11,1.11a3.17,3.17,0,0,1-1.51-2.81,7.76,7.76,0,0,1,2.81-6.18,6.19,6.19,0,0,1,1.15-.76,4.12,4.12,0,0,1,5.36,1.28c1,1.68,2.56,2.89.15,5"/><path class="cls-1" d="M105.62,152.42c1.82-.38,2.55.65,3.14,2.14s.86,2.76-.27,3.81a7.18,7.18,0,0,1-5,1.46,5,5,0,0,1-3.58-1.4,2.12,2.12,0,0,1-.3-1.86c.51-2,2.85-3.66,5.74-4"/><path class="cls-1" d="M99,169.28c1.84.38,2.05,1.67,1.93,3.32s-.44,3-1.93,3.52a6.93,6.93,0,0,1-5.25-.68,4.82,4.82,0,0,1-2.65-2.81,2.25,2.25,0,0,1,.55-1.89c1.35-1.71,4.21-2.32,7-1.5"/><path class="cls-1" d="M45,108.61c.22,1.76-.44,1.71-.19,3.46s-.11,3.8-1.53,4.68a4,4,0,0,1-3.82-.17A8.51,8.51,0,0,1,35,110.2a7.49,7.49,0,0,1,0-1.57,5,5,0,0,1,4.76-4.49,5.22,5.22,0,0,1,5.14,4.14"/><path class="cls-1" d="M50.33,132.24c-1.53-.12-1.38-.69-2.91-.77s-3.2-.77-3.7-2.16a3.64,3.64,0,0,1,.79-3.3,7.18,7.18,0,0,1,6.14-2.72,5.65,5.65,0,0,1,1.34.25,4.45,4.45,0,0,1-1.37,8.68"/><path class="cls-1" d="M72.73,137c-.09,2.51-2.17,5-4.67,4.88a6.62,6.62,0,0,1-2-.47A8.3,8.3,0,0,1,62,138.69a9.4,9.4,0,0,1-1.24-3.31,10.15,10.15,0,0,1-.39-3.27A3.33,3.33,0,0,1,62,129.42a5,5,0,0,1,1.48-.36A10.63,10.63,0,0,1,67,129C70.25,129.57,72.84,133.84,72.73,137Z"/><path class="cls-1" d="M56.5,119.13c-.09,2.51-2.17,5-4.67,4.88a7.31,7.31,0,0,1-1.95-.47,8.25,8.25,0,0,1-4.16-2.7,9.4,9.4,0,0,1-1.24-3.31,10.08,10.08,0,0,1-.39-3.27,3.34,3.34,0,0,1,1.68-2.69,4.86,4.86,0,0,1,1.48-.36,10.83,10.83,0,0,1,3.5-.1C54,111.73,56.61,116,56.5,119.13Z"/><path class="cls-1" d="M45.15,119.35c1.43,2.16,1.25,5.72-.85,7.39a7.75,7.75,0,0,1-1.86,1,7.93,7.93,0,0,1-5,.7,8.68,8.68,0,0,1-3-1.88,9.48,9.48,0,0,1-2.27-2.45,3.82,3.82,0,0,1-.25-3.42,5.65,5.65,0,0,1,1-1.35,12.44,12.44,0,0,1,2.77-2.57C38.72,115,43.36,116.67,45.15,119.35Z"/><path class="cls-1" d="M57.56,134c-2.11,0-2-1.62-2.71-3.55a5.53,5.53,0,0,1,1.32-5.73,6.55,6.55,0,0,1,5.68-1.7,4.16,4.16,0,0,1,3.38,2.49,4.42,4.42,0,0,1-.2,2.84,8.57,8.57,0,0,1-7,5.69"/><path class="cls-1" d="M36.81,113.61c1.44,1.32-.43,2.38-1.78,4a6.69,6.69,0,0,1-5.91,2.11,6,6,0,0,1-4.58-3.41,3.63,3.63,0,0,1,.46-3.93A5.32,5.32,0,0,1,27.69,111a9,9,0,0,1,8.82,2.41"/><path class="cls-1" d="M72.79,123a5.79,5.79,0,0,1,.84,2.59c.33,1.66,1.15,3.41.28,4.53a3.12,3.12,0,0,1-3.17.77,8.73,8.73,0,0,1-5.68-4.58,7.4,7.4,0,0,1-.54-1.39c-.59-2.26.49-4.58,2.4-5.15S70.38,118,72,121"/><path class="cls-1" d="M66.24,118.39c1.1,1.56-.62,2.28-1.95,3.65A5,5,0,0,1,59,123.1a6.12,6.12,0,0,1-3.58-4.18,3.4,3.4,0,0,1,3.26-4.72A7.9,7.9,0,0,1,66,118.13"/><path class="cls-1" d="M59,106.41a5,5,0,0,1,1.66,1.91c.89,1.3,2.23,2.48,1.88,3.82a3.21,3.21,0,0,1-2.48,2,7.7,7.7,0,0,1-6.59-1.6,6,6,0,0,1-1-1,4.12,4.12,0,0,1,.24-5.5c1.46-1.31,2.35-3.07,4.87-1.09"/><path class="cls-1" d="M43.81,105.93c-.72-1.71.16-2.63,1.51-3.48s2.55-1.37,3.79-.46a7.13,7.13,0,0,1,2.39,4.68,5,5,0,0,1-.7,3.79,2.08,2.08,0,0,1-1.77.64C47,111,44.9,109,44,106.23"/><path class="cls-1" d="M61.62,109.25c0-1.88,1.25-2.32,2.9-2.52s3-.13,3.82,1.23a6.91,6.91,0,0,1,.33,5.28,4.85,4.85,0,0,1-2.26,3.14,2.31,2.31,0,0,1-2-.18c-1.94-1-3.08-3.7-2.8-6.62"/><path class="cls-1" d="M111.7,163.27c1.19,1.32.62,1.65,1.83,2.94s2.09,3.18,1.42,4.72a4,4,0,0,1-3.22,2,8.45,8.45,0,0,1-7.27-2.69,6.37,6.37,0,0,1-.93-1.27,5,5,0,0,1,1.33-6.41,5.21,5.21,0,0,1,6.58.45"/><path class="cls-1" d="M129.63,179.57c-1.32.78-1.52.22-2.82,1s-3.07,1.21-4.28.35a3.6,3.6,0,0,1-1.24-3.15,7.19,7.19,0,0,1,3.47-5.75,5.54,5.54,0,0,1,1.24-.56,4.45,4.45,0,0,1,3.86,7.9"/><path class="cls-1" d="M150.7,170.61c1.36,2.1,1.09,5.35-1,6.68a7.34,7.34,0,0,1-1.87.73,8.22,8.22,0,0,1-5,.17,9.33,9.33,0,0,1-2.92-2,9.85,9.85,0,0,1-2.19-2.46,3.32,3.32,0,0,1-.17-3.16,4.76,4.76,0,0,1,1-1.14,11,11,0,0,1,2.81-2.1C144.42,166,149,168,150.7,170.61Z"/><path class="cls-1" d="M127.17,165.29c1.37,2.1,1.1,5.35-1,6.67a6.89,6.89,0,0,1-1.87.74,8.38,8.38,0,0,1-5,.17,9.46,9.46,0,0,1-2.91-2,9.85,9.85,0,0,1-2.19-2.46,3.33,3.33,0,0,1-.18-3.16,4.8,4.8,0,0,1,1-1.15,11,11,0,0,1,2.81-2.09C120.9,160.65,125.47,162.65,127.17,165.29Z"/><path class="cls-1" d="M118,172c2.41.94,4.3,4,3.53,6.54a7,7,0,0,1-1,1.87,7.83,7.83,0,0,1-3.67,3.43,8.66,8.66,0,0,1-3.52.17,9.22,9.22,0,0,1-3.26-.71,3.83,3.83,0,0,1-2.17-2.65,5.84,5.84,0,0,1,0-1.67,12.28,12.28,0,0,1,.8-3.7C110.2,172.06,115,170.8,118,172Z"/><path class="cls-1" d="M136.54,176.84c-1.71,1.24-2.54-.21-4.26-1.36a5.54,5.54,0,0,1-2.2-5.45,6.51,6.51,0,0,1,3.69-4.65,4.16,4.16,0,0,1,4.18.1,4.38,4.38,0,0,1,1.47,2.44,8.55,8.55,0,0,1-2.44,8.65"/><path class="cls-1" d="M107.87,172.05c1.93.26,1,2.2.83,4.3a6.71,6.71,0,0,1-3.63,5.12,6,6,0,0,1-5.7-.18,3.59,3.59,0,0,1-1.87-3.48,5.24,5.24,0,0,1,1.4-2.68,9,9,0,0,1,8.61-3.08"/><path class="cls-1" d="M142.76,159.15a5.74,5.74,0,0,1,2.17,1.64c1.22,1.17,2.89,2.13,2.82,3.55a3.1,3.1,0,0,1-2.15,2.45,8.74,8.74,0,0,1-7.28-.5,6.71,6.71,0,0,1-1.24-.83c-1.78-1.51-2.22-4-1-5.59s1.78-3.49,4.87-1.92"/><path class="cls-1" d="M134.73,159.1c1.79.65.8,2.23.5,4.11a5,5,0,0,1-3.73,3.9,6.07,6.07,0,0,1-5.33-1.38,3.92,3.92,0,0,1-1.53-3.58,4,4,0,0,1,1.49-2.15,7.9,7.9,0,0,1,8.26-1"/><path class="cls-1" d="M121.93,153.44a5,5,0,0,1,2.45.61c1.47.56,3.25.75,3.73,2.06a3.19,3.19,0,0,1-.88,3.07,7.73,7.73,0,0,1-6.32,2.47,5.55,5.55,0,0,1-1.35-.25,4.12,4.12,0,0,1-3-4.64c.44-1.92.17-3.86,3.37-3.69"/><path class="cls-1" d="M109.21,161.74c-1.57-1-1.38-2.24-.76-3.72s1.31-2.58,2.84-2.54a7.15,7.15,0,0,1,4.65,2.46,5.05,5.05,0,0,1,1.59,3.51,2.09,2.09,0,0,1-1.08,1.54c-1.77,1.09-4.59.64-6.94-1.1"/><path class="cls-1" d="M125.7,154.26c-1-1.55-.3-2.62.94-3.73s2.39-1.84,3.83-1.19a7,7,0,0,1,3.3,4.15,4.84,4.84,0,0,1-.05,3.86,2.29,2.29,0,0,1-1.71,1c-2.17.28-4.65-1.27-6.09-3.82"/><path class="cls-6" d="M144,37.28a24.76,24.76,0,0,1,3.84,12.92A31.39,31.39,0,0,1,145,63.68a36.38,36.38,0,0,1-8.06,11.47c-.88.8-1.81,1.56-2.73,2.32s-2,1.4-3,2c-2,1.23-4.1,2.24-6.08,3.27A49.69,49.69,0,0,0,119.6,86a20.86,20.86,0,0,0-4.33,4A30.6,30.6,0,0,0,110,100.8c-1.17,4-1.94,8.37-2.84,12.82a84.11,84.11,0,0,1-3.67,13.79,37.31,37.31,0,0,1-3.48,7,28.72,28.72,0,0,1-5.32,6.21,30.29,30.29,0,0,1-3.22,2.55c-.56.38-1.13.72-1.7,1.08s-1.15.7-1.73,1l-1.75.9-1.75.78c-1.18.55-2.33.94-3.5,1.4-4.63,1.64-9.1,2.79-13.16,4.08A41.84,41.84,0,0,0,57.31,157c-5.92,3.8-10.55,10.31-15.42,17.7-2.46,3.69-5,7.62-8,11.58a61.61,61.61,0,0,1-11.11,11.38l-.2.16a10,10,0,0,1-12.22-15.88c.27-.21.55-.4.83-.58a41.76,41.76,0,0,0,8.35-7.15c2.74-2.93,5.43-6.31,8.29-9.86a134,134,0,0,1,9.47-10.86,51.87,51.87,0,0,1,12.64-9.53l.9-.48.93-.42,1.86-.82c1.23-.45,2.48-1,3.69-1.31,2.45-.79,4.82-1.34,7.15-1.85,4.62-1,9-1.7,12.91-2.71s7.46-2.33,10.21-4.43a22,22,0,0,0,6.81-8.48,76.31,76.31,0,0,0,4.35-11.91c1.28-4.26,2.49-8.72,4.24-13.17a37.19,37.19,0,0,1,7.7-12.59,26.85,26.85,0,0,1,6-4.58,54,54,0,0,1,6.43-3c2.1-.86,4.15-1.65,6.07-2.57,1-.47,1.83-1,2.76-1.51s1.74-1.18,2.58-1.82a33.12,33.12,0,0,0,8.28-9.74,29.44,29.44,0,0,0,3.84-12.4A24.11,24.11,0,0,0,144,37.28Z"/></g></g></svg>