<svg xmlns="http://www.w3.org/2000/svg" xmlns:xlink="http://www.w3.org/1999/xlink" viewBox="0 0 751 819.74"><defs><style>.cls-1,.cls-15,.cls-18,.cls-19,.cls-26,.cls-27{fill:none;}.cls-2{clip-path:url(#clip-path);}.cls-3{fill:#caa985;}.cls-4{fill:#36995e;}.cls-5{fill:#efebe4;}.cls-6{fill:#463326;}.cls-7{fill:#715341;}.cls-12,.cls-20,.cls-8,.cls-9{fill:#3daaa1;}.cls-10,.cls-11,.cls-12,.cls-26,.cls-29,.cls-31,.cls-8,.cls-9{stroke:#fff;}.cls-10,.cls-11,.cls-12,.cls-15,.cls-16,.cls-17,.cls-18,.cls-19,.cls-26,.cls-27,.cls-29,.cls-31,.cls-8,.cls-9{stroke-miterlimit:10;}.cls-11,.cls-8{stroke-width:0.29px;}.cls-10,.cls-9{stroke-width:0.22px;}.cls-10{fill:#99a43b;}.cls-11{fill:#f0be19;}.cls-12{stroke-width:0.22px;}.cls-13{fill:#e6d6b4;}.cls-14{fill:#3c2a1d;}.cls-15,.cls-16,.cls-17,.cls-19{stroke:#3c2a1d;}.cls-15{stroke-width:1.17px;}.cls-16{fill:#de9c7a;}.cls-16,.cls-17,.cls-26,.cls-29{stroke-width:1.18px;}.cls-17{fill:#d9af81;}.cls-18{stroke:#ec6b7c;stroke-width:8px;}.cls-21{fill:#ec6a7c;}.cls-22{font-size:41.44px;}.cls-22,.cls-30,.cls-31,.cls-32{fill:#fff;}.cls-22,.cls-30,.cls-31,.cls-32,.cls-38,.cls-43{font-family:Acre-Light, Acre;font-weight:300;}.cls-23{letter-spacing:-0.02em;}.cls-24{letter-spacing:0.01em;}.cls-25{letter-spacing:0em;}.cls-27{stroke:#faad19;stroke-width:21.1px;}.cls-28{fill:#faad19;}.cls-29,.cls-38,.cls-43{fill:#5c5052;}.cls-30,.cls-31{font-size:44.62px;}.cls-31{stroke-width:1.18px;letter-spacing:-0.03em;}.cls-32{font-size:41.44px;}.cls-33{letter-spacing:-0.02em;}.cls-34{letter-spacing:0.01em;}.cls-35{letter-spacing:-0.02em;}.cls-36{letter-spacing:-0.02em;}.cls-37{letter-spacing:0.01em;}.cls-38{font-size:41.44px;}.cls-39{letter-spacing:0em;}.cls-40{letter-spacing:0em;}.cls-41{letter-spacing:0em;}.cls-42{letter-spacing:0em;}.cls-43{font-size:41.44px;}.cls-44{letter-spacing:0.01em;}</style><clipPath id="clip-path"><circle class="cls-1" cx="375.77" cy="398.05" r="349.82"/></clipPath></defs><g id="Layer_2" data-name="Layer 2"><g id="Soil_Processes" data-name="Soil Processes"><g class="cls-2"><path class="cls-3" d="M619.19,461.6c0-.07,0-.13,0-.19h0C619.2,461.47,619.2,461.53,619.19,461.6Z"/><path class="cls-3" d="M616.49,645.53c.3-8.17-2-16.18-3.67-24.18-5.39-25.88-4.11-52.65-2-79,1.41-17.65,3.61-35.64,5.62-53.72a121.53,121.53,0,0,0-33.3,14.68c-5.86,3.72-11.54,8-18.23,9.86-5.78,1.6-11.9,1.25-17.83,2.17-26.64,4.1-44.74,32.42-71.46,36-18.52,2.52-36.32-7.53-54.88-9.71-26-3.06-51.4,9.44-77.58,10.43-24.7.93-48.65-8.39-73.3-10.11-42.16-2.94-86.24,16.09-126.24,7.18q-.28-20.2-.63-40.4h0q2.53,155,1.92,310c28.47,4.31,59.18-7.47,87.59-7.22,27.77.25,55.12,9.7,82.82,7.63,28.41-2.12,55.68-16.28,84-13.51,22.32,2.18,43.92,14.81,65.93,10.53,8.06-1.57,15.5-5.33,22.83-9.06l79-40.19c14.59-7.43,29.8-15.52,42-26.17-2.68-22.07-5.66-44.24-.08-65.54C611.68,665.35,616.11,655.77,616.49,645.53Z"/><path class="cls-3" d="M618.29,471.25l-.09.91Z"/></g><path class="cls-4" d="M213,302.43c42.12-16,84.72-32.18,129.46-38.11,35.05-4.65,70.6-2.91,105.92-1.17l166.41,8.21c-6.61,24.27-16.48,47.91-31.49,68.22-8.87,12-19.61,22.84-32.5,30.53-15.69,9.36-34,13.71-52.13,16.14-34.33,4.58-69.2,2.79-103.71-.17-61.33-5.26-122.62-14.22-181.38-32.3-12.74-3.92-25.49-8.29-38.78-9.55-8.89-.83-20.62.46-28.77-3.77-11.33-5.89-1.8-11,5.39-14C171.83,318.12,192.43,310.27,213,302.43Z"/><path class="cls-5" d="M614.1,475c-.2,5.59-.44,11.34-2.66,16.47A36,36,0,0,1,604,501.8C592,514.34,576.52,523,561.16,531.14c-37.66,20-76.84,38.54-118.85,45.89-28.37,5-57.63,4.76-85.43,12.27-12.26,3.31-24.62,8.15-37.24,6.71-9-1-17.23-5.14-25.37-9-25.83-12.35-53.5-23.18-82.11-22.14-12.87.47-25.73,3.35-38.52,1.88s-26.2-8.83-29.42-21.29c-1-3.82-.95-7.81-.9-11.76l.9-77.81c0-2.38.08-4.89,1.24-7,1.33-2.37,3.84-3.79,6.24-5.06a345.31,345.31,0,0,1,154.84-39.65c44.29-.71,88.56,7.13,132.72,3.81,42.19-3.16,82.9-16.4,124.51-24.08,16.27-3,45-5,52.41,14.13S614.86,454.32,614.1,475Z"/><path class="cls-6" d="M232,370.34c19.53-1.22,38.66-8.32,58.17-6.82,14.33,1.11,28,6.82,42.29,8.07,24.35,2.13,48.41-8.74,72.78-6.88,14.23,1.08,27.87,6.47,42.11,7.5,13,1,26-1.77,38.48-5.41A260.34,260.34,0,0,0,559,332.38c8.6-5.84,16.93-12.24,26.44-16.45,11.05-4.91,24-7.18,34.87-12.13a214.56,214.56,0,0,0-5-32.42l-86.36,43.95c-14.91,7.59-30,15.24-46.17,19.43-24.75,6.41-50.79,4.43-76.32,3-86.68-4.78-178.1-4.24-264.88-1.89q.34,16.14.64,32.27C170.74,360.29,202,372.22,232,370.34Z"/><path class="cls-7" d="M618.93,291.44h0c.55,4.11,1,8.22,1.37,12.36-10.83,4.95-23.82,7.22-34.87,12.13-9.51,4.21-17.84,10.61-26.44,16.45a260.34,260.34,0,0,1-73.15,34.42c-12.51,3.64-25.5,6.36-38.48,5.41-14.24-1-27.88-6.42-42.11-7.5-24.37-1.86-48.43,9-72.78,6.88-14.31-1.25-28-7-42.29-8.07-19.51-1.5-38.64,5.6-58.17,6.82-30,1.88-61.25-10-89.85-2.18,0-1.83-.07-3.66-.11-5.48q.93,46.71,1.59,93.44c40,8.91,84.08-10.12,126.24-7.18,24.65,1.72,48.6,11,73.3,10.11,26.18-1,51.56-13.49,77.58-10.43,18.56,2.18,36.36,12.23,54.88,9.71,26.72-3.63,44.82-31.95,71.46-36.05,5.93-.92,12-.57,17.83-2.17,6.69-1.84,12.37-6.14,18.23-9.86a122.05,122.05,0,0,1,33.31-14.69C620.34,360.63,623.52,325.34,618.93,291.44Z"/><path class="cls-8" d="M519.37,239.73c.32,13.92,4.72,27.44,7.08,41.15.84,4.87,2.5,10.68,7.27,11.93,2.1-7.81.55-16.06.07-24.14-.42-7.13,0-14.31-.73-21.43s-2.78-14.34-7.46-19.74c-3.14-3.63-17.31-9.73-22.2-9C503.61,224.16,519.1,227.74,519.37,239.73Z"/><path class="cls-8" d="M531.87,293.17c-3.64-5.07-3.71-11.9-2.45-18s3.65-12,4.49-18.16c.69-5.14.27-10.39,1-15.52s3-10.44,7.53-13c2.53-1.45,5.49-1.89,8.26-2.79s5.59-2.51,6.62-5.24c-2.28,6-2.21,9.83-8.88,12.95-6.06,2.83-6.71,4.66-8,11.83C537.48,261.18,534.73,277.18,531.87,293.17Z"/><path class="cls-8" d="M543.09,250a7.6,7.6,0,0,0-1.74,2.72,220.6,220.6,0,0,0-12.47,36.12c5.92.67,10.88-4.66,13.19-10.16,2.08-4.93,2.93-15,7.77-18.21,4.68-3.06,21.48,7.3,31.26,4.56C572.65,262.73,548.8,245,543.09,250Z"/><path class="cls-9" d="M423.83,278.5c.24,10.36,3.51,20.42,5.27,30.63.62,3.62,1.86,7.95,5.41,8.88,1.56-5.81.41-12,.05-18-.31-5.31,0-10.66-.54-16s-2.07-10.68-5.56-14.7c-2.33-2.7-12.88-7.24-16.52-6.71C412.1,266.9,423.62,269.57,423.83,278.5Z"/><path class="cls-9" d="M433.13,318.28c-2.71-3.77-2.76-8.86-1.82-13.41s2.72-8.91,3.34-13.52c.51-3.82.2-7.73.78-11.55s2.25-7.77,5.6-9.69c1.88-1.08,4.09-1.41,6.15-2.08s4.16-1.87,4.93-3.9c-1.7,4.49-1.65,7.31-6.61,9.64-4.51,2.11-5,3.47-6,8.81C437.31,294.46,435.26,306.38,433.13,318.28Z"/><path class="cls-10" d="M441.48,286.1a5.59,5.59,0,0,0-1.29,2A164.64,164.64,0,0,0,430.91,315c4.41.5,8.1-3.48,9.82-7.57,1.55-3.67,2.18-11.19,5.78-13.55s16,5.43,23.27,3.4C463.49,295.62,445.74,282.4,441.48,286.1Z"/><path class="cls-8" d="M369.4,225.9a2.18,2.18,0,0,1-.27,1.09c-.61.94-2.08.52-3-.07a24,24,0,0,1-10.74-15c-.79-3.57-.75-7.26-1.29-10.87-1.72-11.39-8.56-17.43-16.64-24.51,8.37-1.32,18.5,10.76,22.65,16.72A51.34,51.34,0,0,1,369.4,225.9Z"/><path class="cls-8" d="M331.61,157.5c5.82,1.33,11.49,4.32,14.85,9.26,1.87,2.77,2.93,6,4.27,9.05,1.66,3.83,3.77,7.47,5.33,11.34,4.57,11.32,4.23,23.95,3.82,36.15l10.17,4a2.18,2.18,0,0,0,1.36.22c.74-.22,1-1.12,1.11-1.9.54-4.08-.22-8.21-1-12.26-2.73-14.6-5.53-29.43-12.23-42.69a44.11,44.11,0,0,0-5.58-8.74,31,31,0,0,0-19.08-10.52c-6.34-.9-15.32,0-20.35,4.4,1.5,1.34,5.92.49,8,.56A49,49,0,0,1,331.61,157.5Z"/><path class="cls-8" d="M329.43,189.14a34.81,34.81,0,0,1,11.73,4.1c4.29,2.64,7.53,6.66,10.68,10.59l24,30c-1.68,1.68-4.52.75-6.61-.38a66.63,66.63,0,0,1-16.79-13c-3.26-3.48-6.15-7.3-9.52-10.66-4.89-4.9-10.72-8.74-16.5-12.55-4.73-3.11-9.48-6.2-14.18-9.34C317.65,187.17,323.89,188.1,329.43,189.14Z"/><path class="cls-8" d="M203.77,276.66c-2.07,1.81-4.27,3.48-6.19,5.45a33.71,33.71,0,0,0-9,20.24,50.77,50.77,0,0,0,3.19,22.17c.86,2.36,2.39,5.07,4.91,5.1,1.91,0,3.49-1.68,4-3.51a15,15,0,0,0,.07-5.71c-1.07-10.25,0-21,4.75-30.12,3.09-5.89,7.61-10.92,11-16.65a50.37,50.37,0,0,0,5.73-14.37c.8-3.49,2.91-11.2.49-14.26-2.54,5.44-3.7,11.52-6.85,16.92A59,59,0,0,1,203.77,276.66Z"/><path class="cls-8" d="M558.31,283.35a1.66,1.66,0,0,1-.26.61c-.4.49-1,.11-1.43-.33a14.63,14.63,0,0,1-3.33-9.81c0-2.16.49-4.31.65-6.48.5-6.82-2-11-5-15.89,4.11,0,7.5,8,8.77,11.9A36.15,36.15,0,0,1,558.31,283.35Z"/><path class="cls-8" d="M548.37,239.79a11.69,11.69,0,0,1,5.94,6.81,35.33,35.33,0,0,1,1,5.7c.34,2.39.92,4.72,1.21,7.13.85,7.05-.78,14.4-2.38,21.5l4.34,3.32a.87.87,0,0,0,.61.25c.38-.06.61-.56.75-1a28.67,28.67,0,0,0,1-7.27c.4-8.8.79-17.73-.84-26.12a27.57,27.57,0,0,0-1.63-5.64,14.43,14.43,0,0,0-7.8-7.94c-2.89-1.11-7.24-1.41-10.13.67.56.93,2.75.84,3.74,1.08A19.83,19.83,0,0,1,548.37,239.79Z"/><path class="cls-8" d="M543.67,258.1a14.9,14.9,0,0,1,5.07,3.5,24.45,24.45,0,0,1,3.82,7.19l7.88,19.81c-1,.83-2.23,0-3.08-.84a34.13,34.13,0,0,1-6.44-9.16c-1.14-2.34-2.06-4.84-3.26-7.13a52.47,52.47,0,0,0-6.35-8.88c-1.87-2.26-3.76-4.52-5.62-6.79A21.55,21.55,0,0,1,543.67,258.1Z"/><path class="cls-8" d="M569.18,258.9c-1.19.87-2.42,1.64-3.56,2.61a22.55,22.55,0,0,0-6.61,11A37,37,0,0,0,558,285.77c.13,1.47.54,3.19,1.73,3.45.9.19,1.84-.66,2.31-1.68a11,11,0,0,0,.69-3.33c.69-6.1,2.42-12.28,5.74-17.18,2.14-3.16,4.86-5.68,7.13-8.71a34.23,34.23,0,0,0,4.37-7.87c.78-2,2.68-6.28,1.89-8.3-1.83,2.95-3.09,6.39-5.2,9.26A34.74,34.74,0,0,1,569.18,258.9Z"/><path class="cls-8" d="M501.8,300.72a2.26,2.26,0,0,1-.36.87c-.57.71-1.49.16-2-.46a20.84,20.84,0,0,1-4.76-14c.06-3.08.7-6.16.93-9.25.72-9.73-2.89-15.69-7.18-22.68,5.87,0,10.71,11.45,12.52,17A51.51,51.51,0,0,1,501.8,300.72Z"/><path class="cls-8" d="M487.61,238.56a16.69,16.69,0,0,1,8.49,9.72,51.11,51.11,0,0,1,1.38,8.13c.49,3.42,1.31,6.73,1.73,10.18,1.21,10.06-1.11,20.55-3.4,30.69L502,302a1.29,1.29,0,0,0,.88.36c.54-.08.87-.81,1.07-1.44a41,41,0,0,0,1.37-10.36c.57-12.56,1.13-25.31-1.2-37.28a39.69,39.69,0,0,0-2.32-8,20.67,20.67,0,0,0-11.13-11.34c-4.13-1.59-10.34-2-14.46,1,.79,1.31,3.91,1.2,5.33,1.54A28.12,28.12,0,0,1,487.61,238.56Z"/><path class="cls-8" d="M480.91,264.69a21.28,21.28,0,0,1,7.24,5c2.46,2.78,4,6.57,5.45,10.27l11.25,28.27c-1.41,1.18-3.18,0-4.4-1.2A48.83,48.83,0,0,1,491.26,294c-1.62-3.34-2.94-6.91-4.65-10.18a74.67,74.67,0,0,0-9.06-12.67c-2.68-3.23-5.37-6.45-8-9.7C473.29,261.47,477.35,263.08,480.91,264.69Z"/><path class="cls-11" d="M517.32,265.83c-1.69,1.24-3.45,2.34-5.08,3.72-4.45,3.78-7.69,9.54-9.43,15.69a52.53,52.53,0,0,0-1.52,18.94c.19,2.09.78,4.56,2.47,4.92,1.29.27,2.63-.93,3.3-2.4a15.77,15.77,0,0,0,1-4.75c1-8.71,3.45-17.52,8.18-24.51,3.06-4.51,6.94-8.11,10.18-12.43a48.94,48.94,0,0,0,6.24-11.24c1.12-2.8,3.82-9,2.69-11.84-2.61,4.2-4.4,9.12-7.42,13.22A49.73,49.73,0,0,1,517.32,265.83Z"/><path class="cls-8" d="M449.06,312.76a1.51,1.51,0,0,1-.25.61c-.4.5-1.05.11-1.43-.32a14.61,14.61,0,0,1-3.34-9.81c0-2.16.49-4.32.65-6.48.51-6.82-2-11-5-15.9,4.11,0,7.5,8,8.78,11.9A36.15,36.15,0,0,1,449.06,312.76Z"/><path class="cls-8" d="M439.12,269.21a11.6,11.6,0,0,1,5.94,6.81,35,35,0,0,1,1,5.69c.35,2.4.92,4.72,1.21,7.13.85,7.06-.77,14.41-2.38,21.51l4.34,3.31a.85.85,0,0,0,.62.25c.38-.05.61-.56.75-1a29.1,29.1,0,0,0,.95-7.26c.4-8.8.79-17.74-.84-26.12a28,28,0,0,0-1.62-5.64,14.5,14.5,0,0,0-7.8-7.94c-2.9-1.12-7.25-1.42-10.13.66.55.93,2.74.85,3.73,1.09A18.81,18.81,0,0,1,439.12,269.21Z"/><path class="cls-8" d="M434.42,287.51a14.8,14.8,0,0,1,5.07,3.5,24.38,24.38,0,0,1,3.82,7.2l7.88,19.8c-1,.83-2.22,0-3.08-.84a34,34,0,0,1-6.44-9.16c-1.13-2.33-2.05-4.84-3.26-7.12a51.07,51.07,0,0,0-6.35-8.89c-1.87-2.26-3.76-4.51-5.62-6.79C429.08,285.26,431.92,286.39,434.42,287.51Z"/><path class="cls-11" d="M459.94,288.31c-1.19.87-2.43,1.64-3.57,2.61a22.66,22.66,0,0,0-6.61,11,36.93,36.93,0,0,0-1.06,13.26c.14,1.47.54,3.2,1.73,3.45.9.19,1.85-.65,2.31-1.68a11,11,0,0,0,.7-3.33c.68-6.1,2.41-12.28,5.73-17.17,2.14-3.17,4.86-5.68,7.13-8.71a34.5,34.5,0,0,0,4.38-7.88c.78-2,2.67-6.27,1.88-8.29-1.83,2.94-3.09,6.39-5.2,9.26A34.88,34.88,0,0,1,459.94,288.31Z"/><path class="cls-11" d="M399.13,268.86c-1.7,1.23-3.46,2.34-5.08,3.72-4.45,3.78-7.69,9.54-9.44,15.69a52.72,52.72,0,0,0-1.51,18.94c.19,2.09.77,4.55,2.47,4.91,1.28.28,2.63-.93,3.29-2.39a15.85,15.85,0,0,0,1-4.76c1-8.7,3.44-17.52,8.18-24.51,3.06-4.51,6.94-8.1,10.18-12.43a49,49,0,0,0,6.24-11.23c1.11-2.81,3.81-9,2.68-11.84-2.61,4.2-4.4,9.12-7.41,13.21A49.55,49.55,0,0,1,399.13,268.86Z"/><path class="cls-8" d="M241.7,313.6a3.46,3.46,0,0,0,.54,1.29c.84,1.05,2.2.24,3-.68,4.57-5.15,7.16-12.8,7-20.69-.08-4.56-1-9.11-1.36-13.67-1.07-14.38,4.27-23.19,10.6-33.52-8.67,0-15.82,16.93-18.5,25.1A76.29,76.29,0,0,0,241.7,313.6Z"/><path class="cls-8" d="M262.67,221.75a24.55,24.55,0,0,0-12.53,14.36c-1.2,3.79-1.47,8-2,12-.72,5.06-1.94,10-2.55,15-1.79,14.88,1.63,30.38,5,45.35l-9.15,7a1.81,1.81,0,0,1-1.3.53c-.8-.11-1.29-1.18-1.58-2.12-1.53-4.93-1.78-10.17-2-15.31-.85-18.56-1.68-37.4,1.76-55.08a58.28,58.28,0,0,1,3.43-11.89c3.41-7.94,9.38-14,16.45-16.75,6.1-2.36,15.28-3,21.36,1.41-1.17,2-5.78,1.77-7.87,2.28A41.05,41.05,0,0,0,262.67,221.75Z"/><path class="cls-8" d="M272.58,260.36a31.16,31.16,0,0,0-10.7,7.38c-3.63,4.1-5.88,9.69-8,15.17l-16.62,41.77c2.08,1.74,4.69,0,6.5-1.77a72.19,72.19,0,0,0,13.57-19.32c2.4-4.93,4.34-10.21,6.88-15,3.69-7,8.56-12.89,13.39-18.73,3.95-4.78,7.93-9.52,11.86-14.33C283.84,255.6,277.84,258,272.58,260.36Z"/><path class="cls-8" d="M218.77,262c2.51,1.83,5.11,3.46,7.51,5.5,6.58,5.59,11.36,14.1,13.94,23.19a77.65,77.65,0,0,1,2.24,28c-.28,3.09-1.14,6.74-3.65,7.27-1.9.4-3.89-1.38-4.87-3.54a23.06,23.06,0,0,1-1.46-7c-1.45-12.86-5.1-25.89-12.1-36.21-4.52-6.67-10.25-12-15-18.37a72.87,72.87,0,0,1-9.22-16.61c-1.65-4.14-5.64-13.23-4-17.49,3.86,6.21,6.51,13.48,11,19.53A73.5,73.5,0,0,0,218.77,262Z"/><path class="cls-8" d="M323.09,262.06c.32,13.91,4.72,27.43,7.08,41.15.84,4.86,2.49,10.67,7.27,11.93,2.1-7.81.55-16.07.07-24.14-.42-7.14,0-14.32-.73-21.43s-2.78-14.34-7.46-19.75c-3.14-3.62-17.31-9.72-22.2-9C307.33,246.48,322.81,250.07,323.09,262.06Z"/><path class="cls-8" d="M335.59,315.49c-3.64-5.06-3.71-11.9-2.45-18s3.65-12,4.48-18.15c.7-5.14.28-10.39,1.05-15.52s3-10.44,7.53-13c2.53-1.45,5.49-1.89,8.26-2.79s5.59-2.52,6.61-5.24c-2.27,6-2.21,9.82-8.87,12.94-6.06,2.84-6.71,4.67-8,11.84C341.2,283.5,338.45,299.51,335.59,315.49Z"/><path class="cls-11" d="M346.81,272.27a7.42,7.42,0,0,0-1.74,2.73,220.16,220.16,0,0,0-12.47,36.11c5.92.68,10.88-4.66,13.19-10.15,2.08-4.94,2.93-15,7.77-18.21,4.68-3.06,21.47,7.3,31.26,4.56C376.37,285.06,352.52,267.3,346.81,272.27Z"/><path class="cls-12" d="M234.82,280.73c-.24,10.47-3.55,20.64-5.32,30.95-.63,3.66-1.88,8-5.47,9-1.58-5.87-.41-12.08-.05-18.15.31-5.37,0-10.77.55-16.12s2.09-10.79,5.61-14.85c2.36-2.73,13-7.31,16.7-6.78C246.67,269,235,271.72,234.82,280.73Z"/><path class="cls-12" d="M225.42,320.92c2.74-3.81,2.79-8.95,1.85-13.55s-2.75-9-3.38-13.65c-.52-3.87-.21-7.81-.78-11.67s-2.28-7.85-5.67-9.79c-1.9-1.09-4.12-1.42-6.21-2.1s-4.2-1.89-5-3.94c1.71,4.53,1.66,7.39,6.67,9.73,4.56,2.14,5,3.51,6,8.9C221.2,296.86,223.27,308.9,225.42,320.92Z"/><path class="cls-11" d="M217,288.41a5.78,5.78,0,0,1,1.3,2,164.93,164.93,0,0,1,9.38,27.17c-4.45.51-8.18-3.51-9.92-7.64-1.56-3.71-2.2-11.31-5.84-13.7s-16.15,5.49-23.51,3.43C194.75,298,212.69,284.67,217,288.41Z"/><path class="cls-8" d="M262.67,271.9c.32,13.91,4.72,27.43,7.08,41.15.84,4.86,2.5,10.67,7.27,11.93,2.1-7.81.55-16.07.07-24.14-.42-7.14,0-14.32-.73-21.43s-2.78-14.35-7.46-19.75c-3.14-3.62-17.31-9.72-22.2-9C246.91,256.32,262.39,259.91,262.67,271.9Z"/><path class="cls-8" d="M275.17,325.33c-3.64-5.06-3.71-11.9-2.45-18s3.65-12,4.49-18.15c.69-5.14.27-10.39,1-15.53s3-10.43,7.53-13c2.53-1.45,5.49-1.89,8.26-2.79s5.59-2.52,6.62-5.24c-2.28,6-2.21,9.82-8.88,12.94-6.06,2.84-6.71,4.67-8,11.84C280.78,293.34,278,309.35,275.17,325.33Z"/><path class="cls-8" d="M285.35,282.8a7.54,7.54,0,0,0-1.58,2.82,220,220,0,0,0-10.45,36.75c5.95.35,10.61-5.26,12.61-10.87,1.8-5.05,2.09-15.18,6.75-18.61,4.5-3.32,21.84,6.09,31.46,2.82C315.58,293.93,290.78,277.52,285.35,282.8Z"/><path class="cls-8" d="M307.88,308.86a2.32,2.32,0,0,1-.36.87c-.57.71-1.49.16-2-.46a20.8,20.8,0,0,1-4.75-14c0-3.08.69-6.16.92-9.25.72-9.74-2.89-15.69-7.17-22.69,5.86,0,10.7,11.46,12.52,17A51.59,51.59,0,0,1,307.88,308.86Z"/><path class="cls-8" d="M293.69,246.7a16.61,16.61,0,0,1,8.48,9.72,51.11,51.11,0,0,1,1.39,8.13c.49,3.42,1.31,6.73,1.72,10.18,1.21,10.06-1.1,20.55-3.4,30.69l6.2,4.72a1.22,1.22,0,0,0,.88.36c.54-.08.87-.8,1.06-1.43a41.11,41.11,0,0,0,1.37-10.37c.57-12.55,1.13-25.31-1.2-37.27a39.33,39.33,0,0,0-2.32-8.05,20.59,20.59,0,0,0-11.13-11.33c-4.13-1.6-10.34-2-14.46.95.8,1.32,3.92,1.2,5.33,1.55A27.68,27.68,0,0,1,293.69,246.7Z"/><path class="cls-8" d="M287,272.83a20.91,20.91,0,0,1,7.24,5c2.46,2.78,4,6.56,5.46,10.27l11.24,28.27c-1.41,1.18-3.18,0-4.4-1.21a48.59,48.59,0,0,1-9.18-13.06c-1.63-3.34-2.94-6.92-4.66-10.18-2.49-4.74-5.79-8.72-9.06-12.68-2.68-3.23-5.37-6.44-8-9.69C279.37,269.61,283.42,271.22,287,272.83Z"/><path class="cls-11" d="M323.4,274c-1.7,1.24-3.46,2.34-5.09,3.72-4.44,3.78-7.68,9.54-9.43,15.69a52.51,52.51,0,0,0-1.51,18.94c.19,2.09.77,4.55,2.46,4.91,1.29.28,2.64-.93,3.3-2.39a15.84,15.84,0,0,0,1-4.76c1-8.7,3.45-17.52,8.19-24.5,3.06-4.52,6.94-8.11,10.17-12.44a49.07,49.07,0,0,0,6.25-11.23c1.11-2.81,3.81-9,2.68-11.84-2.61,4.2-4.4,9.12-7.42,13.21A49.51,49.51,0,0,1,323.4,274Z"/><path class="cls-8" d="M318.31,313.76a2.41,2.41,0,0,1-.27,1.09c-.62.94-2.09.52-3.05-.07a24,24,0,0,1-10.74-15c-.79-3.57-.75-7.26-1.29-10.87-1.72-11.39-8.56-17.43-16.64-24.51,8.37-1.32,18.5,10.76,22.65,16.72A51.41,51.41,0,0,1,318.31,313.76Z"/><path class="cls-8" d="M280.51,245.36c5.82,1.33,11.49,4.32,14.85,9.26,1.87,2.77,2.93,6,4.27,9.05,1.66,3.83,3.77,7.47,5.33,11.34,4.57,11.32,4.23,23.95,3.82,36.15l10.17,4a2.18,2.18,0,0,0,1.36.22c.75-.21,1-1.12,1.12-1.9.53-4.08-.23-8.21-1-12.26-2.73-14.6-5.53-29.43-12.23-42.69a44.11,44.11,0,0,0-5.58-8.74,31,31,0,0,0-19.08-10.52c-6.34-.9-15.32,0-20.35,4.4,1.5,1.34,5.92.49,8,.56A49,49,0,0,1,280.51,245.36Z"/><path class="cls-8" d="M278.33,277a34.81,34.81,0,0,1,11.73,4.1c4.29,2.64,7.53,6.66,10.68,10.59l24,30c-1.67,1.68-4.52.75-6.61-.38a66.81,66.81,0,0,1-16.79-13c-3.26-3.48-6.14-7.3-9.51-10.66-4.9-4.9-10.73-8.74-16.51-12.55-4.73-3.11-9.47-6.2-14.18-9.34C266.55,275,272.79,276,278.33,277Z"/><path class="cls-8" d="M330.59,270c-2.07,1.82-4.28,3.49-6.2,5.45a33.74,33.74,0,0,0-9,20.24,50.77,50.77,0,0,0,3.19,22.17c.86,2.37,2.39,5.08,4.91,5.11,1.91,0,3.49-1.68,4-3.52a15,15,0,0,0,.07-5.7c-1.07-10.26,0-21,4.75-30.12,3.09-5.9,7.61-10.93,11-16.65A50.14,50.14,0,0,0,349,252.6c.8-3.48,2.91-11.19.49-14.25-2.54,5.43-3.7,11.51-6.85,16.92A59,59,0,0,1,330.59,270Z"/><path class="cls-8" d="M368.51,307a3.42,3.42,0,0,0,.54,1.28c.84,1,2.2.24,3-.68,4.57-5.15,7.16-12.79,7-20.69-.08-4.55-1-9.1-1.36-13.66-1.07-14.39,4.27-23.19,10.6-33.52-8.67,0-15.82,16.92-18.5,25.09A76.32,76.32,0,0,0,368.51,307Z"/><path class="cls-8" d="M389.48,215.1A24.55,24.55,0,0,0,377,229.46c-1.2,3.78-1.47,8-2.05,12-.72,5.05-1.94,9.95-2.55,15-1.79,14.87,1.63,30.37,5,45.35l-9.15,7a1.82,1.82,0,0,1-1.3.54c-.8-.12-1.29-1.19-1.58-2.12-1.53-4.93-1.78-10.18-2-15.32-.85-18.55-1.68-37.4,1.76-55.08A58.65,58.65,0,0,1,368.52,225c3.41-7.93,9.38-14,16.45-16.74,6.1-2.36,15.28-3,21.36,1.4-1.17,2-5.78,1.78-7.87,2.29A41.05,41.05,0,0,0,389.48,215.1Z"/><path class="cls-8" d="M399.39,253.7a31.32,31.32,0,0,0-10.7,7.39c-3.63,4.1-5.88,9.69-8.05,15.17L364,318c2.08,1.74,4.69,0,6.5-1.78a72,72,0,0,0,13.57-19.31c2.4-4.93,4.34-10.21,6.88-15,3.69-7,8.56-12.9,13.39-18.74,3.95-4.77,7.93-9.52,11.86-14.32C410.65,249,404.65,251.33,399.39,253.7Z"/><path class="cls-8" d="M345.58,255.39c2.51,1.83,5.11,3.46,7.51,5.5,6.58,5.58,11.36,14.09,13.94,23.19a77.63,77.63,0,0,1,2.24,28c-.28,3.09-1.14,6.73-3.65,7.26-1.9.41-3.89-1.37-4.87-3.54a22.94,22.94,0,0,1-1.46-7c-1.45-12.86-5.1-25.89-12.1-36.22-4.52-6.66-10.25-12-15-18.37a72.59,72.59,0,0,1-9.22-16.6c-1.65-4.14-5.64-13.23-4-17.49,3.86,6.2,6.51,13.47,11,19.52A73.55,73.55,0,0,0,345.58,255.39Z"/><path class="cls-8" d="M449.9,255.4c.32,13.92,4.72,27.44,7.08,41.15.84,4.87,2.49,10.68,7.27,11.94,2.1-7.82.55-16.07.07-24.15-.42-7.13,0-14.31-.73-21.42s-2.78-14.35-7.46-19.75c-3.14-3.63-17.31-9.73-22.2-9C434.14,239.83,449.62,243.42,449.9,255.4Z"/><path class="cls-8" d="M462.4,308.84c-3.64-5.06-3.71-11.9-2.45-18s3.65-12,4.48-18.15c.7-5.15.28-10.4,1.05-15.53s3-10.44,7.53-13c2.53-1.44,5.49-1.88,8.26-2.79s5.59-2.51,6.61-5.24c-2.27,6-2.21,9.83-8.87,13-6.06,2.84-6.71,4.66-8,11.83C468,276.85,465.26,292.86,462.4,308.84Z"/><path class="cls-11" d="M473.62,265.62a7.47,7.47,0,0,0-1.74,2.72,220.6,220.6,0,0,0-12.47,36.12c5.92.68,10.88-4.66,13.19-10.16,2.08-4.93,2.93-15,7.77-18.21,4.68-3.06,21.47,7.3,31.26,4.57C503.18,278.4,479.33,260.65,473.62,265.62Z"/><path class="cls-12" d="M361.63,274.08c-.24,10.46-3.55,20.63-5.32,30.95-.63,3.66-1.88,8-5.47,9-1.58-5.88-.41-12.08,0-18.16.31-5.36,0-10.76.55-16.11s2.09-10.79,5.61-14.85c2.36-2.73,13-7.32,16.7-6.78C373.48,262.36,361.84,265.06,361.63,274.08Z"/><path class="cls-12" d="M352.23,314.27c2.74-3.81,2.79-8.95,1.85-13.55s-2.75-9-3.38-13.65c-.52-3.87-.21-7.82-.78-11.68s-2.28-7.85-5.67-9.79c-1.9-1.09-4.12-1.42-6.21-2.1s-4.2-1.89-5-3.94c1.71,4.54,1.66,7.39,6.67,9.74,4.56,2.13,5.05,3.51,6.05,8.9C348,290.21,350.08,302.24,352.23,314.27Z"/><path class="cls-8" d="M343.8,281.76a5.69,5.69,0,0,1,1.3,2.05A165.14,165.14,0,0,1,354.48,311c-4.45.51-8.18-3.5-9.92-7.64-1.56-3.71-2.2-11.31-5.84-13.69s-16.15,5.49-23.51,3.43C321.56,291.38,339.5,278,343.8,281.76Z"/><path class="cls-8" d="M402,318.68c-3.64-5.07-3.71-11.9-2.45-18s3.65-12,4.49-18.16c.69-5.14.27-10.39,1-15.52s3-10.44,7.53-13c2.53-1.44,5.49-1.88,8.26-2.79s5.59-2.51,6.62-5.24c-2.28,6-2.21,9.83-8.88,12.95-6.06,2.83-6.71,4.66-8,11.83C407.59,286.69,404.84,302.69,402,318.68Z"/><path class="cls-8" d="M434.69,302.2a2.37,2.37,0,0,1-.36.88c-.57.7-1.49.16-2.05-.47a20.77,20.77,0,0,1-4.75-14c.05-3.08.69-6.16.92-9.25.72-9.73-2.89-15.69-7.17-22.68,5.86,0,10.7,11.45,12.52,17A51.6,51.6,0,0,1,434.69,302.2Z"/><path class="cls-8" d="M420.5,240.05a16.58,16.58,0,0,1,8.48,9.72,51.18,51.18,0,0,1,1.39,8.12c.49,3.42,1.31,6.74,1.72,10.18,1.21,10.07-1.1,20.56-3.4,30.69l6.2,4.73a1.22,1.22,0,0,0,.88.36c.54-.08.87-.8,1.06-1.43a41.11,41.11,0,0,0,1.37-10.37c.57-12.56,1.13-25.31-1.2-37.27a39.15,39.15,0,0,0-2.32-8.05,20.59,20.59,0,0,0-11.13-11.33c-4.13-1.6-10.34-2-14.46.95.8,1.32,3.92,1.2,5.33,1.54A27.71,27.71,0,0,1,420.5,240.05Z"/><path class="cls-8" d="M413.79,266.17a21.08,21.08,0,0,1,7.24,5c2.46,2.78,4,6.56,5.46,10.26l11.24,28.27c-1.41,1.18-3.18,0-4.4-1.2a48.49,48.49,0,0,1-9.18-13.07c-1.63-3.34-2.94-6.91-4.66-10.17-2.49-4.74-5.79-8.73-9.06-12.68-2.68-3.23-5.37-6.44-8-9.69C406.18,263,410.23,264.57,413.79,266.17Z"/><path class="cls-8" d="M450.21,267.31c-1.7,1.24-3.46,2.34-5.09,3.72-4.44,3.78-7.68,9.54-9.43,15.7a52.68,52.68,0,0,0-1.51,18.93c.19,2.09.77,4.56,2.46,4.92,1.29.27,2.64-.93,3.3-2.4a15.41,15.41,0,0,0,1-4.75c1-8.7,3.45-17.52,8.19-24.51,3.06-4.51,6.94-8.1,10.18-12.43a49.7,49.7,0,0,0,6.24-11.24c1.11-2.8,3.81-8.95,2.68-11.83-2.61,4.2-4.4,9.11-7.42,13.21A49.46,49.46,0,0,1,450.21,267.31Z"/><path class="cls-8" d="M473.55,318.55a3,3,0,0,0,.46,1.12c.74.91,1.92.2,2.63-.6,4-4.48,6.24-11.13,6.12-18-.07-4-.89-7.93-1.19-11.9-.93-12.51,3.72-20.18,9.23-29.17-7.55,0-13.77,14.73-16.1,21.84A66.29,66.29,0,0,0,473.55,318.55Z"/><path class="cls-8" d="M491.8,238.61a21.36,21.36,0,0,0-10.91,12.5c-1,3.29-1.28,6.93-1.78,10.45-.63,4.4-1.69,8.66-2.22,13.09-1.56,12.94,1.42,26.44,4.37,39.47l-8,6.08a1.54,1.54,0,0,1-1.13.46c-.69-.1-1.12-1-1.37-1.84-1.33-4.29-1.55-8.86-1.76-13.33-.73-16.15-1.45-32.55,1.54-47.94a50.85,50.85,0,0,1,3-10.35c3-6.9,8.15-12.19,14.31-14.57,5.31-2.06,13.3-2.6,18.6,1.22-1,1.7-5,1.55-6.86,2A35.45,35.45,0,0,0,491.8,238.61Z"/><path class="cls-8" d="M500.42,272.21a27.21,27.21,0,0,0-9.31,6.42c-3.16,3.58-5.11,8.44-7,13.21l-14.47,36.35c1.82,1.52,4.09,0,5.66-1.54a62.88,62.88,0,0,0,11.82-16.81c2.09-4.29,3.77-8.89,6-13.09,3.21-6.09,7.45-11.22,11.66-16.3,3.44-4.15,6.9-8.29,10.32-12.47C510.22,268.07,505,270.14,500.42,272.21Z"/><path class="cls-8" d="M453.59,273.68c2.18,1.59,4.45,3,6.54,4.78,5.72,4.86,9.88,12.27,12.13,20.18A67.58,67.58,0,0,1,474.21,323c-.25,2.69-1,5.86-3.18,6.32-1.65.35-3.38-1.2-4.24-3.08a20.29,20.29,0,0,1-1.27-6.11c-1.26-11.2-4.44-22.54-10.53-31.53-3.93-5.8-8.92-10.42-13.09-16a63.29,63.29,0,0,1-8-14.46c-1.44-3.6-4.91-11.51-3.46-15.22,3.36,5.4,5.66,11.73,9.54,17A64,64,0,0,0,453.59,273.68Z"/><path class="cls-8" d="M409.62,311.26a3.42,3.42,0,0,1-.53,1.27c-.83,1-2.16.23-3-.67-4.49-5.07-7.05-12.59-6.91-20.36.08-4.48,1-9,1.34-13.45,1.05-14.15-4.2-22.81-10.43-33,8.53,0,15.56,16.65,18.2,24.69A74.93,74.93,0,0,1,409.62,311.26Z"/><path class="cls-8" d="M389,220.89A24.17,24.17,0,0,1,401.32,235c1.18,3.72,1.45,7.83,2,11.81.71,5,1.9,9.8,2.5,14.8,1.76,14.64-1.6,29.89-4.94,44.62l9,6.88a1.8,1.8,0,0,0,1.28.52c.78-.11,1.26-1.16,1.55-2.08,1.51-4.85,1.75-10,2-15.07.84-18.26,1.65-36.8-1.73-54.2a57.43,57.43,0,0,0-3.38-11.7c-3.35-7.8-9.22-13.78-16.18-16.48-6-2.32-15-2.93-21,1.39,1.15,1.92,5.68,1.75,7.74,2.25A40.3,40.3,0,0,1,389,220.89Z"/><path class="cls-8" d="M371.21,261.49a30.72,30.72,0,0,1,10.53,7.26c3.57,4,5.78,9.54,7.93,14.93L406,324.78c-2,1.72-4.62,0-6.4-1.74a70.87,70.87,0,0,1-13.35-19c-2.37-4.85-4.27-10-6.77-14.79-3.63-6.89-8.42-12.69-13.18-18.43-3.89-4.7-7.8-9.37-11.66-14.1C360.14,256.82,366,259.16,371.21,261.49Z"/><path class="cls-8" d="M432.18,260.53c-2.46,1.8-5,3.4-7.39,5.41-6.46,5.49-11.17,13.87-13.71,22.82a76.27,76.27,0,0,0-2.2,27.53c.27,3,1.12,6.63,3.58,7.15,1.88.4,3.83-1.36,4.8-3.49A22.88,22.88,0,0,0,418.7,313c1.42-12.65,5-25.47,11.9-35.63,4.44-6.56,10.09-11.79,14.8-18.08A71.27,71.27,0,0,0,454.47,243c1.62-4.07,5.55-13,3.91-17.21-3.8,6.11-6.4,13.26-10.79,19.22A71.86,71.86,0,0,1,432.18,260.53Z"/><path class="cls-8" d="M410.12,269.15c.32,13.91,4.73,27.43,7.09,41.15.83,4.86,2.49,10.67,7.26,11.93,2.1-7.82.55-16.07.08-24.14-.43-7.14,0-14.32-.74-21.43s-2.78-14.35-7.46-19.75c-3.14-3.62-17.3-9.72-22.2-9C394.37,253.57,409.85,257.16,410.12,269.15Z"/><path class="cls-8" d="M422.62,322.58c-3.64-5.06-3.7-11.9-2.45-18s3.66-12,4.49-18.15c.69-5.15.28-10.39,1-15.53s3-10.43,7.53-13c2.53-1.45,5.49-1.89,8.26-2.79s5.59-2.52,6.62-5.25c-2.28,6-2.21,9.83-8.88,13-6.06,2.84-6.71,4.67-8,11.84C428.23,290.59,425.48,306.6,422.62,322.58Z"/><path class="cls-8" d="M433.84,279.36a7.44,7.44,0,0,0-1.73,2.72,218.73,218.73,0,0,0-12.47,36.12c5.92.68,10.88-4.66,13.19-10.15,2.08-4.94,2.92-15.05,7.76-18.21,4.68-3.07,21.48,7.3,31.26,4.56C463.4,292.15,439.56,274.39,433.84,279.36Z"/><path class="cls-8" d="M381.45,267.86c.32,13.92,4.73,27.44,7.09,41.15.84,4.87,2.49,10.68,7.26,11.93,2.1-7.81.55-16.06.08-24.14-.43-7.13,0-14.31-.74-21.42s-2.78-14.35-7.46-19.75c-3.14-3.63-17.3-9.73-22.2-9C365.7,252.29,381.18,255.88,381.45,267.86Z"/><path class="cls-8" d="M404.14,278.77a7.37,7.37,0,0,0-1.58,2.81,218.26,218.26,0,0,0-10.45,36.76c5.95.34,10.6-5.26,12.6-10.88,1.81-5,2.09-15.18,6.75-18.61,4.5-3.31,21.85,6.1,31.46,2.82C434.36,289.89,409.57,273.48,404.14,278.77Z"/><path class="cls-1" d="M612.91,621.62c0,.33,0,.66,0,1C612.94,622.28,612.93,622,612.91,621.62Z"/><path class="cls-1" d="M613.28,627.47c0,.31.06.63.08.94C613.34,628.1,613.31,627.78,613.28,627.47Z"/><path class="cls-1" d="M613.31,600.54c0,.44-.1.87-.14,1.31C613.21,601.41,613.26,601,613.31,600.54Z"/><path class="cls-1" d="M612.69,612.89v0Z"/><path class="cls-1" d="M612.83,606.57c0,.25,0,.49,0,.73C612.82,607.06,612.82,606.82,612.83,606.57Z"/><path class="cls-1" d="M612.72,616.28l0,1.53Z"/><path class="cls-13" d="M613,622.61q.15,2.43.33,4.86Q613.1,625,613,622.61Z"/><path class="cls-13" d="M612.72,616.28q0-1.69,0-3.39Q612.67,614.59,612.72,616.28Z"/><path class="cls-13" d="M613.17,601.85c-.14,1.57-.26,3.14-.34,4.72C612.91,605,613,603.42,613.17,601.85Z"/><path class="cls-13" d="M612.81,607.3c-.06,1.35-.1,2.71-.12,4.06C612.71,610,612.75,608.65,612.81,607.3Z"/><path class="cls-13" d="M612.75,617.81c0,1.27.09,2.54.16,3.81C612.84,620.35,612.79,619.08,612.75,617.81Z"/><path class="cls-13" d="M613.36,628.41c.11,1.33.23,2.65.36,4C613.59,631.06,613.47,629.74,613.36,628.41Z"/><path class="cls-14" d="M162.48,336.67a56.29,56.29,0,0,0-.32,8.88,22.48,22.48,0,0,0,.7,4.33,19.44,19.44,0,0,0,1.67,4.05c.68,1.32,1.44,2.63,2,4.05a12,12,0,0,1,.69,2.2c.06.38.17.76.21,1.14l.08,1.16a14.24,14.24,0,0,1-.68,4.54,20.37,20.37,0,0,1-2,4.11,35.07,35.07,0,0,1-5.84,6.89c-2.22,2-4.61,3.85-6.86,5.81a41.5,41.5,0,0,0-6.21,6.43,20.74,20.74,0,0,0-2.26,3.86,16.52,16.52,0,0,0-1.15,4.32,16.43,16.43,0,0,1,1.09-4.35,19.8,19.8,0,0,1,2.2-3.91,41,41,0,0,1,6.13-6.57c2.23-2,4.59-3.86,6.75-5.92a34,34,0,0,0,5.63-6.87,19.87,19.87,0,0,0,1.83-4,13.72,13.72,0,0,0,.58-4.31l-.1-1.08c0-.36-.15-.71-.22-1.06a10.15,10.15,0,0,0-.68-2.06c-.58-1.35-1.34-2.62-2.06-3.95a20.18,20.18,0,0,1-1.81-4.21,23.86,23.86,0,0,1-.82-4.51,57,57,0,0,1,.18-9.06Z"/><path class="cls-14" d="M153,382.54c.88,2.66,3,4.7,5.27,6.51,1.13.92,2.29,1.81,3.39,2.79a22.5,22.5,0,0,1,3,3.26,32.7,32.7,0,0,1,4.36,7.61,58.63,58.63,0,0,1,2.67,8.34,58.35,58.35,0,0,0-2.9-8.24,33.13,33.13,0,0,0-4.52-7.4,32.33,32.33,0,0,0-6.46-5.76,27.16,27.16,0,0,1-3.33-2.94,11.52,11.52,0,0,1-2.43-3.83Z"/><path class="cls-14" d="M192.24,336.83a23.59,23.59,0,0,1-5.5,6.63c-2.11,1.9-4.33,3.63-6.24,5.63a20.15,20.15,0,0,0-2.56,3.21,16.29,16.29,0,0,0-1.73,3.71,26.45,26.45,0,0,0-1.16,8.18c.1,11.22,3.91,22.05,5.27,33.26a55.71,55.71,0,0,1,.42,8.47,28.13,28.13,0,0,1-1.29,8.38,14.64,14.64,0,0,1-4.71,7,26.37,26.37,0,0,1-7.52,3.89,63,63,0,0,0-7.78,3.22,24.42,24.42,0,0,0-6.52,5.24c-3.76,4.21-6.33,9.3-8.82,14.33,2.45-5.05,5-10.17,8.71-14.43a24.51,24.51,0,0,1,6.52-5.34,63.37,63.37,0,0,1,7.79-3.3,26.1,26.1,0,0,0,7.38-3.9,14.28,14.28,0,0,0,4.52-6.85,27.71,27.71,0,0,0,1.2-8.26,54.73,54.73,0,0,0-.5-8.38c-1.44-11.12-5.35-21.89-5.57-33.33a27.2,27.2,0,0,1,1.14-8.48,17.49,17.49,0,0,1,1.79-3.94,21,21,0,0,1,2.66-3.4c2-2.09,4.19-3.86,6.25-5.74a22.52,22.52,0,0,0,5.18-6.33Z"/><path class="cls-14" d="M200.75,336.46a15.87,15.87,0,0,1-.77,5.62,40.93,40.93,0,0,1-2.09,5.16c-1.55,3.3-3.08,6.63-3.18,10.24s.71,7.17,1.51,10.74a46.86,46.86,0,0,1,1.4,10.94,103.09,103.09,0,0,1-.69,11c-.19,1.83-.38,3.65-.52,5.47a41.75,41.75,0,0,0-.2,5.47c.14,3.65.8,7.27,1.13,10.92a24.82,24.82,0,0,1-1,10.87,24.77,24.77,0,0,0,.81-10.86c-.38-3.64-1.09-7.24-1.28-10.92a44,44,0,0,1,.12-5.51c.13-1.83.29-3.65.45-5.48a102.87,102.87,0,0,0,.54-10.94,45.9,45.9,0,0,0-1.53-10.79c-.84-3.55-1.77-7.17-1.68-10.94a18.46,18.46,0,0,1,1-5.51,55.11,55.11,0,0,1,2.1-5.13c1.49-3.3,2.89-6.74,2.61-10.26Z"/><path class="cls-14" d="M181.64,413.12a17,17,0,0,0-2.56,7.29,32.75,32.75,0,0,0,.13,7.91c.65,5.28,2,10.54,2.58,15.91a123.11,123.11,0,0,1-.2,32.26c-.39,2.66-.79,5.33-1.42,8-.15.65-.34,1.32-.5,1.95a11.27,11.27,0,0,0-.16,2,13.81,13.81,0,0,1-.86,4c-1.85,5.18-5.7,9.17-8.13,13.93s-3.73,10.07-6.15,14.89a24,24,0,0,1-4.69,6.54,14.1,14.1,0,0,1-7,3.83,14.1,14.1,0,0,0,6.93-3.88,24.4,24.4,0,0,0,4.61-6.55c2.36-4.83,3.58-10.13,6-15s6.22-8.87,8-13.94a13.78,13.78,0,0,0,.81-3.87,12,12,0,0,1,.14-2l.49-2c.6-2.61,1-5.27,1.34-7.92a122.53,122.53,0,0,0-.1-32.07c-.64-5.32-2-10.51-2.73-15.89a34.4,34.4,0,0,1-.21-8.18,18.21,18.21,0,0,1,2.68-7.81Z"/><path class="cls-14" d="M163.87,426.77a14.12,14.12,0,0,0-4.36,5.16,18.76,18.76,0,0,0-1.7,6.63c-.22,2.31-.16,4.64-.15,7a63.71,63.71,0,0,1-.36,7,68.83,68.83,0,0,1-8.47,26.64,69.31,69.31,0,0,0,5.38-12.94,67.78,67.78,0,0,0,2.63-13.74,62.81,62.81,0,0,0,.25-7,69.31,69.31,0,0,1,0-7.06,19.44,19.44,0,0,1,1.66-6.92,14.77,14.77,0,0,1,4.53-5.54Z"/><path class="cls-14" d="M197.29,373.58a35,35,0,0,1,.28,4.49c0,.71.09,1.47,0,2.24a14.33,14.33,0,0,1-.25,2.27,23.68,23.68,0,0,1-3.51,8.24c-.81,1.26-1.7,2.44-2.55,3.63L188.75,398c-1.67,2.41-3.29,4.84-4.76,7.36a60.46,60.46,0,0,0-6.71,16.1c-1.46,5.66-2.25,11.48-3.17,17.28A135.71,135.71,0,0,1,170.53,456a44.06,44.06,0,0,1-3.37,8.17c-1.4,2.59-3,5.06-4.64,7.5s-3.3,4.86-4.79,7.38a49.56,49.56,0,0,0-3.82,7.9,48.26,48.26,0,0,0-3.09,17.23,48.29,48.29,0,0,1,3-17.28,50,50,0,0,1,3.76-8c1.48-2.54,3.12-5,4.74-7.43s3.19-4.92,4.56-7.51a44.66,44.66,0,0,0,3.28-8.12,138.87,138.87,0,0,0,3.41-17.23c.87-5.8,1.6-11.64,3-17.37a61.39,61.39,0,0,1,6.66-16.37c1.47-2.56,3.08-5,4.74-7.46l2.53-3.62c.85-1.2,1.72-2.37,2.48-3.6a22.62,22.62,0,0,0,3.3-7.88,13.59,13.59,0,0,0,.21-2.11c0-.7,0-1.4-.06-2.16a34.23,34.23,0,0,0-.3-4.28Z"/><path class="cls-14" d="M181.86,476c-.8,2.47-.63,5.17-.7,7.87l0,1a3.48,3.48,0,0,0,.12.9,9.43,9.43,0,0,0,.76,1.78,15.48,15.48,0,0,0,2.27,3.24,16.72,16.72,0,0,0,3,2.59,8.78,8.78,0,0,1,2.83,2.92,10.44,10.44,0,0,1,1.16,3.88,30.18,30.18,0,0,1,.16,4c-.07-2.65-.17-5.47-1.54-7.78a8.53,8.53,0,0,0-2.83-2.74,17.55,17.55,0,0,1-3.17-2.55,15.82,15.82,0,0,1-2.45-3.29,9.36,9.36,0,0,1-.88-1.89,4,4,0,0,1-.18-1.09v-1c0-2.64-.3-5.42.49-8.16Z"/><path class="cls-14" d="M182.38,407.66a8.08,8.08,0,0,0-.23,5.32,13.38,13.38,0,0,0,2.64,4.87,19,19,0,0,0,4.2,3.74,49.37,49.37,0,0,0,5,2.76c3.42,1.69,7,3.27,9.95,5.79,1.46,1.27,2.75,2.69,4.21,3.93a11.13,11.13,0,0,0,4.94,2.79,11.21,11.21,0,0,1-5-2.69c-1.49-1.22-2.82-2.62-4.28-3.83-3-2.43-6.54-3.91-10-5.53a50.89,50.89,0,0,1-5.12-2.68,19.4,19.4,0,0,1-4.44-3.79,14.13,14.13,0,0,1-2.92-5.11,9.07,9.07,0,0,1,.15-6Z"/><path class="cls-14" d="M196.74,372.08a16.3,16.3,0,0,0,1.73,4,23.93,23.93,0,0,0,2.7,3.53c2,2.22,4.32,4.2,6.34,6.48a21.66,21.66,0,0,1,2.72,3.67,18.63,18.63,0,0,1,1,2c.28.7.56,1.41.81,2.12A17,17,0,0,0,214,398a11.17,11.17,0,0,0,3.36,3,11.54,11.54,0,0,1-3.47-2.9,17.73,17.73,0,0,1-2-4.07c-.28-.7-.57-1.4-.87-2.09a17.74,17.74,0,0,0-1.06-2,20.52,20.52,0,0,0-2.77-3.53c-2-2.19-4.4-4.1-6.52-6.3a24.53,24.53,0,0,1-2.9-3.58,17.48,17.48,0,0,1-2-4.23Z"/><path class="cls-14" d="M232.35,335.25a17.49,17.49,0,0,1,1.85,8.51,37.17,37.17,0,0,1-1.46,8.49c-1.5,5.5-3.6,10.8-4.23,16.36a21,21,0,0,0,.6,8.23c.72,2.68,1.84,5.43,1.77,8.42s-1,5.69-1.26,8.45a9.63,9.63,0,0,0,.27,4,7,7,0,0,0,.88,1.78,11.32,11.32,0,0,0,1.36,1.51,21.77,21.77,0,0,1,3,3.11,7.71,7.71,0,0,1,1.31,4.25c0,3-1.18,5.69-2.05,8.35a26.47,26.47,0,0,0-1.1,4,19.26,19.26,0,0,0-.19,4.16c.13,2.79.67,5.59.82,8.46a21.45,21.45,0,0,1-.16,4.31,25.77,25.77,0,0,1-1,4.19c-.88,2.73-2.07,5.32-3.2,7.91l-6.85,15.57-6.84,15.57c-2.23,5.2-4.79,10.31-6.1,15.8a29.33,29.33,0,0,0-.68,4.16c-.13,1.4-.11,2.81-.15,4.23a23.63,23.63,0,0,1-.39,4.27,10.83,10.83,0,0,1-1.7,3.94c-.8,1.19-1.73,2.27-2.41,3.49a11.23,11.23,0,0,0-1.31,4,26.09,26.09,0,0,0,.52,8.39c1.15,5.53,2.12,11.22,1.6,16.9a25.81,25.81,0,0,1-2.07,8.24,24.77,24.77,0,0,1-4.8,7c-3.89,4.15-8.65,7.35-12.54,11.48a27.63,27.63,0,0,0-4.88,6.91,15,15,0,0,0-1.51,8.24,15.13,15.13,0,0,1,1.47-8.26,27.9,27.9,0,0,1,4.86-6.94c3.89-4.15,8.63-7.38,12.49-11.53a24.86,24.86,0,0,0,4.74-7,25.77,25.77,0,0,0,2-8.19c.49-5.65-.5-11.29-1.68-16.82a26.37,26.37,0,0,1-.55-8.5,11.59,11.59,0,0,1,1.33-4.08c.7-1.26,1.63-2.35,2.41-3.51a10.34,10.34,0,0,0,1.62-3.82,22.52,22.52,0,0,0,.37-4.19c0-1.42,0-2.84.13-4.27a30.15,30.15,0,0,1,.68-4.22c1.3-5.58,3.85-10.7,6.05-15.91l6.77-15.6,6.78-15.6a83.37,83.37,0,0,0,3.14-7.85,21.66,21.66,0,0,0,1.07-8.25c-.16-2.8-.71-5.59-.86-8.46a20.28,20.28,0,0,1,.19-4.33,26.54,26.54,0,0,1,1.11-4.16c.88-2.69,2-5.35,2-8.08a6.87,6.87,0,0,0-1.17-3.76,21.42,21.42,0,0,0-2.92-3A12.31,12.31,0,0,1,230,400a7.9,7.9,0,0,1-1-2,10.45,10.45,0,0,1-.33-4.4c.3-2.88,1.18-5.61,1.21-8.36s-1-5.38-1.77-8.14a20.53,20.53,0,0,1-.76-4.28,25,25,0,0,1,.1-4.33c.64-5.76,2.74-11.11,4.19-16.54a36,36,0,0,0,1.38-8.23,16.22,16.22,0,0,0-1.75-7.92Z"/><path class="cls-14" d="M256.09,336.69c-1.9,1.47-2.65,4-2.68,6.53a32.94,32.94,0,0,0,1.16,7.57,16.87,16.87,0,0,1,.24,7.9,17.14,17.14,0,0,1-3.86,6.87c-1.7,2-3.6,3.78-5.38,5.67a26.23,26.23,0,0,0-4.6,6.19,23.85,23.85,0,0,0-2.13,7.43,74.53,74.53,0,0,0-.52,7.77,75,75,0,0,1,.37-7.79,24.34,24.34,0,0,1,2-7.54,26.29,26.29,0,0,1,4.54-6.37c1.76-1.93,3.62-3.75,5.25-5.74a16.55,16.55,0,0,0,3.6-6.66,16.23,16.23,0,0,0-.4-7.54,33.68,33.68,0,0,1-1.33-7.78,12,12,0,0,1,.63-4,7.9,7.9,0,0,1,2.35-3.44Z"/><path class="cls-14" d="M228.56,373.68a14.86,14.86,0,0,1-.47,6,33.75,33.75,0,0,1-2.08,5.56c-.84,1.78-1.81,3.48-2.73,5.2l-2.79,5.17,2.52-5.3c.83-1.77,1.72-3.52,2.45-5.32a31.88,31.88,0,0,0,1.75-5.52,13.56,13.56,0,0,0,.17-5.59Z"/><path class="cls-14" d="M252.08,364.48a5.88,5.88,0,0,1-.68,2.11c-.35.64-.76,1.18-1.09,1.73a6.66,6.66,0,0,0-.74,1.71,11.36,11.36,0,0,0-.36,1.9,6,6,0,0,0,.68,3.65,6.92,6.92,0,0,0,2.93,2.4,19.48,19.48,0,0,1,6.48,4.83c.91,1,1.58,2.19,2.48,3.17a5.63,5.63,0,0,0,1.52,1.27,2.41,2.41,0,0,0,1.93.2,2.44,2.44,0,0,1-2-.13,5.51,5.51,0,0,1-1.6-1.24c-.95-1-1.67-2.12-2.6-3.07a19,19,0,0,0-6.52-4.5,7.46,7.46,0,0,1-3.3-2.54,6.74,6.74,0,0,1-.93-4.1,11.11,11.11,0,0,1,.31-2.08,7.74,7.74,0,0,1,.77-2c.34-.62.73-1.16,1-1.72a4.36,4.36,0,0,0,.49-1.71Z"/><path class="cls-14" d="M285,335.62a44.26,44.26,0,0,0-8.73,23.67,45.44,45.44,0,0,0,.08,6.39c.19,2.13.53,4.24.92,6.36a103.46,103.46,0,0,1,2,12.87,47.09,47.09,0,0,1-1.41,13c-.94,4.23-2.1,8.39-2.72,12.63-1.29,8.5-.86,17.17-.6,25.79.15,4.32.18,8.66,0,13s-.46,8.65-.85,12.95c-.81,8.62-2,17.19-3,25.76a240.09,240.09,0,0,0-1.88,25.8c.05,8.61,1.84,17.13,2.41,25.77s-.32,17.32-.65,25.93c-.5,8.63.54,17.23,1.25,25.84s1.52,17.22,1.83,25.86c.15,4.32.19,8.65.06,13-.08,2.16-.14,4.33-.38,6.48s-.54,4.29-.89,6.43c-.69,4.26-1.49,8.51-1.83,12.81a51.72,51.72,0,0,0-.28,6.45,8.68,8.68,0,0,0,2.26,5.83,48.1,48.1,0,0,0,4.55,4.59c1.62,1.43,3.47,2.56,5.14,3.94A11.73,11.73,0,0,1,286,682a20.18,20.18,0,0,1,.92,6.41c0,4.31-.6,8.68.45,12.89.07.26.12.53.2.78l.29.76c.1.25.19.5.3.75l.39.7a9.89,9.89,0,0,0,1.94,2.56,25.36,25.36,0,0,0,5.26,3.74,50.39,50.39,0,0,1,5.5,3.42c1.73,1.3,3.3,2.79,4.9,4.24a36.41,36.41,0,0,0,5.08,4,12.56,12.56,0,0,0,6.08,2,12.51,12.51,0,0,1-6.09-2,35,35,0,0,1-5.09-4c-1.61-1.44-3.19-2.92-4.92-4.21a49.94,49.94,0,0,0-5.5-3.41,25.66,25.66,0,0,1-5.29-3.73,10.3,10.3,0,0,1-2-2.58l-.4-.71c-.11-.25-.2-.5-.3-.75l-.29-.76c-.09-.26-.14-.53-.21-.79-1.07-4.24-.44-8.63-.49-12.92a20.08,20.08,0,0,0-.93-6.36,11.41,11.41,0,0,0-3.7-5.15c-1.66-1.37-3.52-2.5-5.15-3.93a48.5,48.5,0,0,1-4.58-4.6,7.5,7.5,0,0,1-1.73-2.76,11.69,11.69,0,0,1-.61-3.2,51.94,51.94,0,0,1,.26-6.49c.32-4.32,1.11-8.58,1.79-12.84.34-2.13.66-4.27.87-6.41s.29-4.3.36-6.46c.12-4.31.07-8.63-.1-12.95-.33-8.62-1.11-17.23-1.89-25.83-.4-4.31-.79-8.61-1.13-12.92a108.1,108.1,0,0,1-.2-13c.31-8.64,1.18-17.26.58-25.86s-2.41-17.11-2.49-25.81a240.55,240.55,0,0,1,1.8-25.89c1-8.59,2.12-17.16,2.9-25.75.37-4.3.69-8.6.81-12.91s.08-8.61-.08-12.93c-.28-8.61-.74-17.33.54-26,.62-4.32,1.77-8.51,2.69-12.71a45.92,45.92,0,0,0,1.35-12.7,99.81,99.81,0,0,0-2-12.73c-.4-2.13-.75-4.28-.95-6.46a46.32,46.32,0,0,1-.1-6.56A45.39,45.39,0,0,1,284,334.9Z"/><path class="cls-14" d="M250.5,376.1a6.24,6.24,0,0,1-.16,4,18.09,18.09,0,0,1-1.82,3.4,23.78,23.78,0,0,0-1.86,3.24,7,7,0,0,0-.63,3.64,7.07,7.07,0,0,1,.35-3.75,24.46,24.46,0,0,1,1.62-3.43,17.2,17.2,0,0,0,1.48-3.37,5.21,5.21,0,0,0-.11-3.38Z"/><path class="cls-14" d="M278.36,377.61a8.52,8.52,0,0,1-1.15,5.17,9.35,9.35,0,0,1-4.13,3.24c-1.56.73-3.14,1.22-4.61,2L264,390.17l-18,8.77-9,4.39-4.51,2.19c-1.5.73-3,1.47-4.42,2.34a18.49,18.49,0,0,0-6.85,7.08,23.78,23.78,0,0,0-2.8,9.54,23.79,23.79,0,0,1,2.67-9.61,18.72,18.72,0,0,1,6.83-7.27c1.42-.89,2.91-1.66,4.4-2.42l4.48-2.26,9-4.51,17.91-9,4.48-2.26c1.52-.79,3.13-1.33,4.59-2a8.21,8.21,0,0,0,3.63-2.9,7.34,7.34,0,0,0,.91-4.47Z"/><path class="cls-14" d="M277,401.87A15.67,15.67,0,0,1,273.8,408a32.29,32.29,0,0,1-4.82,4.75A86.87,86.87,0,0,1,257.75,420a54.11,54.11,0,0,0-5.48,3.69,58.6,58.6,0,0,0-4.85,4.5,40.4,40.4,0,0,1-5,4.45,17.85,17.85,0,0,1-6.13,2.79c-2.18.57-4.39.86-6.57,1.26a36,36,0,0,0-6.38,1.73,34,34,0,0,0-5.93,2.93,33.11,33.11,0,0,0-5.28,4,34.24,34.24,0,0,0-7.89,10.59c-.45,1-.9,2-1.27,3.07l-1.12,3.14a15.18,15.18,0,0,1-3.35,5.71,15.12,15.12,0,0,0,3.28-5.73l1.09-3.15c.35-1.06.8-2.08,1.24-3.1A35.41,35.41,0,0,1,223.14,438a36.2,36.2,0,0,1,6.45-1.83c2.19-.42,4.38-.74,6.51-1.32a17.48,17.48,0,0,0,5.89-2.76,40.09,40.09,0,0,0,4.9-4.42,56.12,56.12,0,0,1,4.87-4.62,52.62,52.62,0,0,1,5.52-3.81c3.81-2.33,7.68-4.49,11-7.33a31.59,31.59,0,0,0,4.6-4.65,14.41,14.41,0,0,0,2.89-5.65Z"/><path class="cls-14" d="M278.38,378.91a7.69,7.69,0,0,0,1.31,4.83,17.4,17.4,0,0,0,3.41,4.1c1.36,1.17,2.91,2.15,4.4,3.22a19.15,19.15,0,0,1,4.06,3.67,19.06,19.06,0,0,0-4.23-3.42c-1.54-1-3.13-1.88-4.61-3a18.21,18.21,0,0,1-3.79-4.09,8.67,8.67,0,0,1-1.74-5.46Z"/><path class="cls-14" d="M275.9,404.73a23.76,23.76,0,0,1-4.25,10.91,36.66,36.66,0,0,1-3.65,4.58c-1.34,1.43-2.8,2.71-4.25,4-2.88,2.51-5.88,5-7.62,8.33a13.28,13.28,0,0,0-1.45,5.33,34,34,0,0,0,.24,5.69c.19,1.9.42,3.83.45,5.79a17.74,17.74,0,0,1-.86,5.82c-1.26,3.75-3.61,6.94-5.93,10a101.63,101.63,0,0,1-7.52,8.81c-1.33,1.39-2.74,2.72-4.16,4a37.34,37.34,0,0,1-4.46,3.73,12.48,12.48,0,0,1-2.62,1.35,27.79,27.79,0,0,0-2.66,1.06,31.64,31.64,0,0,0-4.93,2.89,78.35,78.35,0,0,0-8.71,7.5l-4.23,3.94c-1.41,1.31-2.8,2.65-4.31,3.84a35.39,35.39,0,0,0-4.18,3.93,20,20,0,0,0-3,4.85c-1.58,3.5-2.43,7.28-3.74,10.9a41.14,41.14,0,0,1-5.42,10.18,42.68,42.68,0,0,1-17.86,14.21,42.59,42.59,0,0,0,17.74-14.29,41.31,41.31,0,0,0,5.33-10.17c1.28-3.62,2.11-7.4,3.67-10.95a20.59,20.59,0,0,1,3-4.95,35.17,35.17,0,0,1,4.2-4c1.5-1.21,2.88-2.55,4.28-3.87l4.19-3.95a78,78,0,0,1,8.72-7.61,33,33,0,0,1,5-3,27.28,27.28,0,0,1,2.7-1.1,11.36,11.36,0,0,0,2.49-1.3,36.09,36.09,0,0,0,4.35-3.7c1.42-1.31,2.8-2.62,4.12-4a102.19,102.19,0,0,0,7.4-8.8c2.3-3.05,4.57-6.2,5.75-9.79a17.06,17.06,0,0,0,.78-5.55c0-1.89-.28-3.79-.49-5.71a35.34,35.34,0,0,1-.27-5.84,14.2,14.2,0,0,1,1.52-5.72c1.85-3.57,4.94-6.14,7.79-8.67,1.44-1.27,2.86-2.54,4.15-3.93a35.86,35.86,0,0,0,3.51-4.46,22.7,22.7,0,0,0,4-10.39Z"/><path class="cls-14" d="M215.66,442.81a23,23,0,0,1-8.4,4.27,79,79,0,0,0-8.8,2.95,19.51,19.51,0,0,0-3.93,2.4,17.38,17.38,0,0,0-3.16,3.36,17.7,17.7,0,0,0-3.3,8.57,18.05,18.05,0,0,1,3.11-8.71,17.56,17.56,0,0,1,3.13-3.48,19.6,19.6,0,0,1,3.95-2.55,79.61,79.61,0,0,1,8.78-3.19,22.25,22.25,0,0,0,8-4.3Z"/><path class="cls-14" d="M234.32,480.49a9.79,9.79,0,0,0-4.11,5.07,21.42,21.42,0,0,0-1.14,6.74c-.06,2.32,0,4.67.09,7s.37,4.66.54,7a51.83,51.83,0,0,1,.14,7.05,26.35,26.35,0,0,1-1.35,6.93c-1.52,4.47-4,8.48-6.49,12.45,2.39-4,4.8-8.09,6.21-12.55s1.36-9.2.9-13.83c-.22-2.33-.52-4.65-.7-7s-.25-4.69-.24-7.06a22.35,22.35,0,0,1,1.05-7.08A12.75,12.75,0,0,1,231,482a12.42,12.42,0,0,1,2.73-2.49Z"/><path class="cls-14" d="M228.17,453.69a26.72,26.72,0,0,0-2.78,9.6,70.31,70.31,0,0,0-.24,10.17c.12,3.41.32,6.84.3,10.28a43.82,43.82,0,0,1-1,10.26,26.23,26.23,0,0,1-4.41,9.3c-1,1.41-1.94,2.81-2.76,4.3a27.79,27.79,0,0,0-2,4.69c-1.09,3.22-2.06,6.59-4.06,9.41a31.43,31.43,0,0,0-2.64,4.38,7,7,0,0,0-.67,2.45,4.32,4.32,0,0,0,.56,2.46,4.31,4.31,0,0,1-.6-2.46,7.16,7.16,0,0,1,.64-2.48,32.7,32.7,0,0,1,2.58-4.44c2-2.83,2.86-6.17,3.91-9.42a28.61,28.61,0,0,1,2-4.77c.81-1.52,1.78-2.94,2.72-4.37a26,26,0,0,0,4.2-9.19,44,44,0,0,0,.89-10.12c0-3.41-.29-6.82-.46-10.24a71.28,71.28,0,0,1,.1-10.33,27.76,27.76,0,0,1,2.76-10Z"/><path class="cls-14" d="M272.87,471.75c-.74,1.86-1.26,3.83-1.85,5.8a15,15,0,0,1-2.72,5.71c-2.8,3.19-6.42,5.27-9.45,7.95a58.8,58.8,0,0,0-14.79,19.22c-3.63,7.34-5.06,15.5-7,23.44a67.31,67.31,0,0,1-3.82,11.68,31,31,0,0,1-7,10,30.91,30.91,0,0,0,6.85-10.09,66.93,66.93,0,0,0,3.67-11.69c1-4,1.75-8,2.75-12a63.15,63.15,0,0,1,4-11.64,59.49,59.49,0,0,1,14.74-19.65c3.08-2.76,6.65-4.91,9.24-8a13.85,13.85,0,0,0,2.44-5.33c.56-2,1.07-4,1.82-5.93Z"/><path class="cls-14" d="M269.06,518.21c-1.37,4-3.57,7.58-5.25,11.31-.83,1.85-1.51,3.84-2.42,5.72a32.65,32.65,0,0,1-3.13,5.44c-2.34,3.55-5.68,6.16-8.5,9.12a25.28,25.28,0,0,0-3.74,4.83,34.31,34.31,0,0,0-2.51,5.6c-1.4,3.88-2.41,7.93-4.25,11.69a22.1,22.1,0,0,1-3.47,5.19,31,31,0,0,1-4.67,4.12c-3.34,2.47-6.93,4.55-10.07,7.25a31.39,31.39,0,0,0-7.56,9.74,31.41,31.41,0,0,1,7.46-9.85c3.12-2.75,6.7-4.88,10-7.38a30.9,30.9,0,0,0,4.57-4.13,21.35,21.35,0,0,0,3.35-5.14c1.76-3.72,2.72-7.76,4.08-11.69a34.65,34.65,0,0,1,2.5-5.73,25.76,25.76,0,0,1,3.77-5c2.85-3,6.1-5.66,8.31-9.11a32,32,0,0,0,3-5.34c.87-1.86,1.5-3.79,2.34-5.74,1.67-3.83,3.82-7.4,5.07-11.26Z"/><path class="cls-14" d="M255.58,494.46a12.47,12.47,0,0,1-4.45,3.41,27.9,27.9,0,0,1-5.18,1.8c-3.52.91-7.12,1.29-10.6,2.06a29.81,29.81,0,0,0-5.1,1.57,14,14,0,0,0-4.46,2.85,10.69,10.69,0,0,0-2.79,4.48A24.86,24.86,0,0,0,222,515.9a25.21,25.21,0,0,1,.9-5.31,11.22,11.22,0,0,1,2.72-4.66,14.65,14.65,0,0,1,4.5-3,29.35,29.35,0,0,1,5.14-1.74c3.51-.88,7.08-1.36,10.51-2.35a27.14,27.14,0,0,0,4.94-1.86,11.51,11.51,0,0,0,4-3.19Z"/><path class="cls-14" d="M275.09,406.12c-1.31,8.71-.16,17.6,1.88,26.18,1,4.3,2.23,8.57,3.4,12.85.59,2.13,1.18,4.28,1.73,6.43l.86,3.2c.34,1.05.63,2.11,1,3.13a42.12,42.12,0,0,0,2.68,6,37.42,37.42,0,0,0,3.6,5.5,54.1,54.1,0,0,0,9.44,9.2c1.73,1.37,3.53,2.66,5.33,4l5.36,3.93c3.58,2.64,7.12,5.31,10.61,8.06a183.71,183.71,0,0,1,19.84,17.77,80.62,80.62,0,0,1,14.69,22.13c3.69,8.09,6.39,16.57,9.27,25a144,144,0,0,0,10.48,24.42,143.7,143.7,0,0,1-10.62-24.37c-2.93-8.37-5.67-16.83-9.4-24.88a80.47,80.47,0,0,0-14.75-21.94,182.66,182.66,0,0,0-19.88-17.61c-3.49-2.72-7.05-5.37-10.63-8l-5.39-3.91c-1.8-1.29-3.61-2.58-5.37-3.95a54.58,54.58,0,0,1-9.62-9.29,38,38,0,0,1-3.72-5.59,43.08,43.08,0,0,1-2.76-6.12c-.42-1-.72-2.12-1.07-3.18l-.89-3.22c-.56-2.14-1.15-4.28-1.75-6.41-1.2-4.27-2.44-8.54-3.49-12.87-2.1-8.62-3.33-17.66-2-26.59Z"/><path class="cls-14" d="M278.65,390.84a52.64,52.64,0,0,1,6,6.8,19.91,19.91,0,0,1,2.39,3.93,15.52,15.52,0,0,1,1.16,4.47,53.68,53.68,0,0,1-.11,9.06,27.79,27.79,0,0,0,.59,8.83,11.37,11.37,0,0,0,4.82,7.1c1.26.77,2.66,1.33,4,2A8.89,8.89,0,0,1,301,436a31.7,31.7,0,0,1,2.07,4,12.7,12.7,0,0,0,1.16,1.9,13,13,0,0,0,1.52,1.63c2.14,2.06,4.5,4.12,7.47,4.8-3-.63-5.4-2.66-7.57-4.69a13.35,13.35,0,0,1-1.57-1.62,12.39,12.39,0,0,1-1.21-1.92,31.62,31.62,0,0,0-2.12-3.94,8.49,8.49,0,0,0-3.4-2.75c-1.32-.67-2.73-1.2-4.05-2a10.17,10.17,0,0,1-3.3-3.16,14.23,14.23,0,0,1-1.87-4.17,28.64,28.64,0,0,1-.76-9,52,52,0,0,0,0-8.91,14.74,14.74,0,0,0-1.16-4.19,18.79,18.79,0,0,0-2.34-3.69,52.52,52.52,0,0,0-6-6.56Z"/><path class="cls-14" d="M270.88,558.93c.55,6.23,3.17,12.09,6.6,17.31s7.57,10,11.42,15.07,7.48,10.38,9.3,16.53a30.22,30.22,0,0,1,1.27,9.44,38.16,38.16,0,0,1-1.54,9.39c-.83,3-1.74,6.09-1.65,9.22a19,19,0,0,0,3,8.79c1.53,2.74,3.26,5.49,4,8.61a43.21,43.21,0,0,1,1.45,9.37c.41,6.32,0,12.65.59,18.94a41.22,41.22,0,0,0,1.75,9.28,26.84,26.84,0,0,0,4.5,8.27,26.89,26.89,0,0,1-4.56-8.25,41.41,41.41,0,0,1-1.82-9.29c-.58-6.3-.26-12.64-.71-18.93a43.59,43.59,0,0,0-1.5-9.3c-.72-3.08-2.44-5.77-4-8.51a19.43,19.43,0,0,1-3.07-9c-.12-3.23.8-6.34,1.6-9.37a37.57,37.57,0,0,0,1.46-9.27,29.57,29.57,0,0,0-1.31-9.25c-1.82-6-5.44-11.29-9.29-16.24s-8.06-9.74-11.57-15-6.25-11.27-6.87-17.7Z"/><path class="cls-14" d="M327.53,583.77a17.06,17.06,0,0,1,.69,9.4,44.4,44.4,0,0,1-2.64,9c-1.15,2.92-2.63,5.66-3.58,8.61a49.34,49.34,0,0,0-2.15,9c-.91,6.16-.25,12.41.25,18.6s.8,12.54-.92,18.57c1.65-6,1.29-12.38.73-18.55s-1.29-12.45-.44-18.67a49.39,49.39,0,0,1,2.08-9.14c.49-1.48,1.05-2.95,1.68-4.38s1.26-2.84,1.82-4.29a43.53,43.53,0,0,0,2.51-8.9,16.42,16.42,0,0,0-.72-9Z"/><path class="cls-14" d="M313.46,334.66a58.64,58.64,0,0,0-6.53,15.39,41.28,41.28,0,0,0-1.22,8.28,81.87,81.87,0,0,0,.23,8.42,53.48,53.48,0,0,1,0,8.49,28.55,28.55,0,0,1-.76,4.19,37.24,37.24,0,0,1-1.39,4c-1.06,2.62-2.31,5.16-3.14,7.85a17.34,17.34,0,0,0-.57,8.34,17.37,17.37,0,0,1,.43-8.38c.78-2.73,2-5.29,3-7.92a35.26,35.26,0,0,0,1.31-4,27.48,27.48,0,0,0,.67-4.14,51.4,51.4,0,0,0-.14-8.41c-.2-2.8-.46-5.63-.38-8.48a42.35,42.35,0,0,1,1.1-8.46,59.69,59.69,0,0,1,6.36-15.78Z"/><path class="cls-14" d="M342.47,336.11a45,45,0,0,1,.76,5.95,15.68,15.68,0,0,1-.77,6.06,19.79,19.79,0,0,1-3.16,5.17,19.64,19.64,0,0,0-2.65,5.1,29.54,29.54,0,0,0-1.35,11.5,85.63,85.63,0,0,0,1.8,11.63A92.73,92.73,0,0,1,339,393.27a58.52,58.52,0,0,1-.29,11.91A59.2,59.2,0,0,1,336,416.79a83,83,0,0,1-4.75,10.89,38,38,0,0,0-3.9,11.05,23.77,23.77,0,0,0,0,5.84,30.42,30.42,0,0,0,1.32,5.72,52.66,52.66,0,0,0,5.24,10.55q1.57,2.51,3.26,4.94c1.12,1.61,2.29,3.23,3.28,4.94.51.85,1,1.69,1.57,2.51a10.6,10.6,0,0,0,1.89,2.23,55.54,55.54,0,0,1,4.08,4.32,35.72,35.72,0,0,1,6.36,10,21.17,21.17,0,0,1,1.43,5.75,45.16,45.16,0,0,1,.13,5.93,53.16,53.16,0,0,0,.09,5.92,15.39,15.39,0,0,0,1.54,5.68,15.59,15.59,0,0,1-1.58-5.68,50.87,50.87,0,0,1-.12-5.92,46.57,46.57,0,0,0-.17-5.91,20.86,20.86,0,0,0-1.46-5.71,35.79,35.79,0,0,0-6.39-9.88,56.92,56.92,0,0,0-4.09-4.27,13.14,13.14,0,0,1-1.05-1.06c-.33-.39-.61-.8-.89-1.2-.56-.82-1.08-1.67-1.6-2.51-1-1.7-2.15-3.29-3.29-4.91s-2.24-3.26-3.31-4.93a52.74,52.74,0,0,1-5.34-10.61,31.83,31.83,0,0,1-1.39-5.8,24.84,24.84,0,0,1,0-6,38.53,38.53,0,0,1,3.88-11.24,81.43,81.43,0,0,0,4.65-10.85,58.42,58.42,0,0,0,2.75-23.23,90.7,90.7,0,0,0-1.93-11.63A87.3,87.3,0,0,1,334.33,370a30.44,30.44,0,0,1,1.33-11.9,20.66,20.66,0,0,1,2.76-5.39,18.82,18.82,0,0,0,3-4.91,14.59,14.59,0,0,0,.68-5.63,48.31,48.31,0,0,0-.78-5.8Z"/><path class="cls-14" d="M383.77,337a35.83,35.83,0,0,0-1.73,5.64,11.07,11.07,0,0,0,.28,5.66,33.16,33.16,0,0,0,2.61,5.28l2.94,5.24,5.88,10.49,2.94,5.23a12.73,12.73,0,0,0,3.7,4.42c.79.57,1.64,1.07,2.51,1.58s1.71,1.06,2.57,1.6a45.38,45.38,0,0,1,4.77,3.74,44.58,44.58,0,0,1,7.83,9.21,43.85,43.85,0,0,1,5.05,11c1.14,3.88,1.65,7.88,2.66,11.73a27.34,27.34,0,0,0,2,5.58,13.42,13.42,0,0,0,3.67,4.55c1.5,1.26,3.48,1.87,5.06,3.24a5.9,5.9,0,0,1,1.73,2.56,13.55,13.55,0,0,1,.6,3c.81,8-.89,16.06.2,24,.13,1,.33,2,.54,2.94s.57,1.92.75,2.92a23.56,23.56,0,0,0,.47,2.95,14.65,14.65,0,0,0,1,2.81c1.67,3.67,4.79,6.35,7.62,9.15a32.16,32.16,0,0,1,3.94,4.54,25.9,25.9,0,0,1,2.68,5.37,56.22,56.22,0,0,0,2.34,5.53,15.51,15.51,0,0,0,1.63,2.52,10.83,10.83,0,0,0,2.2,2,11.44,11.44,0,0,1-2.22-2,14.84,14.84,0,0,1-1.64-2.51A57.37,57.37,0,0,1,456,491.4a25.75,25.75,0,0,0-2.7-5.34,31.82,31.82,0,0,0-4-4.49c-1.43-1.4-2.91-2.76-4.27-4.23a19.59,19.59,0,0,1-3.44-4.93,15.41,15.41,0,0,1-1-2.85,25.53,25.53,0,0,1-.49-3c-.18-1-.51-1.92-.76-2.89s-.43-2-.57-3c-1.14-8,.51-16.06-.35-24-.2-2-.67-4-2.2-5.24s-3.47-1.88-5.06-3.19a14,14,0,0,1-3.85-4.7,27.79,27.79,0,0,1-2.1-5.69c-1-3.89-1.58-7.88-2.73-11.69a43.28,43.28,0,0,0-5-10.76,41.32,41.32,0,0,0-3.57-4.76,42.81,42.81,0,0,0-4.17-4.24,45.75,45.75,0,0,0-4.71-3.63c-.84-.53-1.67-1.07-2.54-1.56s-1.74-1-2.58-1.62a11.18,11.18,0,0,1-2.28-2.12,19.24,19.24,0,0,1-1.71-2.55l-3-5.23L387,359.31l-3-5.23a31.63,31.63,0,0,1-2.73-5.46,12.15,12.15,0,0,1-.36-6.21,35.33,35.33,0,0,1,1.75-5.85Z"/><path class="cls-14" d="M335.44,368.75a11.5,11.5,0,0,1-4.42,4.54c-1.72,1.12-3.42,2.2-5.09,3.37a34.47,34.47,0,0,0-8.77,8.21,22.27,22.27,0,0,0-2.71,5.38,41,41,0,0,1-2.38,5.65,19,19,0,0,1-8.95,8.07,18.84,18.84,0,0,0,8.69-8.21A41.24,41.24,0,0,0,314,390.1a23.23,23.23,0,0,1,2.64-5.56,35.26,35.26,0,0,1,8.75-8.61c1.65-1.22,3.35-2.36,5-3.51a10.4,10.4,0,0,0,3.93-4.15Z"/><path class="cls-14" d="M336,375.35c-.22,1.42-1.11,2.4-1.44,3.37-.16.45-.27,1.11-.43,1.68s-.31,1.16-.5,1.74c-.38,1.16-.77,2.24-1.19,3.39a9.14,9.14,0,0,1-.85,1.68,4.22,4.22,0,0,1-.65.77,7.59,7.59,0,0,1-.78.55,31.05,31.05,0,0,0-9.1,10.57,31.79,31.79,0,0,0-2.57,6.57,23.36,23.36,0,0,1-2.6,6.66,16,16,0,0,1-11.85,7.16,15.79,15.79,0,0,0,11.6-7.32,23.15,23.15,0,0,0,2.42-6.62,31.89,31.89,0,0,1,11.6-17.77,3.25,3.25,0,0,0,1.15-1.08,8.18,8.18,0,0,0,.72-1.52c.37-1.08.77-2.25,1.1-3.35.17-.56.32-1.13.45-1.69s.21-1.1.42-1.79c.45-1.26,1.22-2.18,1.32-3.17Z"/><path class="cls-14" d="M336,361a27.34,27.34,0,0,0,1.08,2.56,4.1,4.1,0,0,0,1.59,1.86,4.88,4.88,0,0,0,1.23.31l1.39.2a18.28,18.28,0,0,1,2.85.59,10.46,10.46,0,0,1,4.75,3.37,41.16,41.16,0,0,1,3.24,4.72,97.85,97.85,0,0,0,14.13,17.64,98.63,98.63,0,0,1-14.64-17.32,38.8,38.8,0,0,0-3.29-4.55,9.7,9.7,0,0,0-4.45-3,17,17,0,0,0-2.72-.48l-1.41-.18a5.58,5.58,0,0,1-1.52-.35,5.09,5.09,0,0,1-2.14-2.28,24.45,24.45,0,0,1-1.19-2.64Z"/><path class="cls-14" d="M388.63,360.31a45.19,45.19,0,0,1-4.32,17.87,127.73,127.73,0,0,1-9,16l-9.83,15.42-4.92,7.71c-1.63,2.57-3.28,5.13-4.69,7.81a38.19,38.19,0,0,0-1.91,4.11,36.18,36.18,0,0,0-1.35,4.33c-.76,2.94-1.33,6-2.39,8.85-.26.72-.57,1.43-.9,2.12a10,10,0,0,0-.78,2.1,33.75,33.75,0,0,1-1.16,4.44,20.37,20.37,0,0,1-4.94,7.69,91.21,91.21,0,0,1-7.05,5.83,33.68,33.68,0,0,0-3.35,3.08,23,23,0,0,0-2.75,3.62c-1.65,2.55-3,5.32-5.16,7.54a13,13,0,0,1-3.64,2.74,8,8,0,0,1-4.44.81,8,8,0,0,0,4.42-.85,12.91,12.91,0,0,0,3.61-2.75c2.09-2.23,3.45-5,5.08-7.57a25,25,0,0,1,2.74-3.67,32.91,32.91,0,0,1,3.35-3.12c2.35-1.95,4.85-3.72,7-5.88a19.91,19.91,0,0,0,4.8-7.6,33.46,33.46,0,0,0,1.11-4.41,10.34,10.34,0,0,1,.8-2.18c.31-.69.6-1.38.85-2.1a89.17,89.17,0,0,0,2.31-8.82,38.39,38.39,0,0,1,1.34-4.4,37.59,37.59,0,0,1,1.9-4.19c1.4-2.72,3-5.31,4.65-7.89l4.86-7.75,9.7-15.5a126.21,126.21,0,0,0,8.77-15.94,44.27,44.27,0,0,0,4.08-17.46Z"/><path class="cls-14" d="M354.07,378.65a29.36,29.36,0,0,0-6,24.19,29.94,29.94,0,0,1,5.06-24.93Z"/><path class="cls-14" d="M326.53,440a8.89,8.89,0,0,1,3.68-2.56,8.11,8.11,0,0,1,4.47-.3,9.89,9.89,0,0,1,4,1.92,18.43,18.43,0,0,1,3.08,3.1c.9,1.13,1.72,2.3,2.55,3.45.42.58.84,1.14,1.28,1.7s.91,1,1.4,1.54a25.18,25.18,0,0,0,7,4.56c2.56,1.19,5.24,2.16,7.88,3.28a31.24,31.24,0,0,1,7.52,4.2,27.09,27.09,0,0,1,5.6,6.53c.78,1.21,1.5,2.44,2.19,3.7a26.58,26.58,0,0,0,2.12,3.65,21.29,21.29,0,0,1,5.92,15.71c-.22,5.75-2.28,11.23-2.24,16.93a17,17,0,0,0,1.88,8.18,11.25,11.25,0,0,0,2.73,3.22,26.55,26.55,0,0,0,3.55,2.34,26.14,26.14,0,0,1,11.56,12.22v0h0l-2.92-.51,2.93.49v0a26,26,0,0,0-11.61-12.1,27.32,27.32,0,0,1-3.6-2.33,11.65,11.65,0,0,1-2.79-3.26,17.26,17.26,0,0,1-2-8.28c-.07-5.77,1.95-11.27,2.11-16.94a20.85,20.85,0,0,0-5.92-15.38,25.13,25.13,0,0,1-2.2-3.71c-.69-1.24-1.42-2.46-2.2-3.64a26.45,26.45,0,0,0-5.51-6.35,30.85,30.85,0,0,0-7.39-4.05c-2.62-1.09-5.32-2-7.93-3.24a25.59,25.59,0,0,1-7.28-4.66c-.52-.51-1-1.07-1.48-1.61s-.89-1.13-1.31-1.71c-.85-1.15-1.67-2.31-2.56-3.4-1.75-2.15-3.91-4.12-6.58-4.65a7.27,7.27,0,0,0-3.95.29,7.81,7.81,0,0,0-3.23,2.31Z"/><path class="cls-14" d="M380.76,384.67,382.48,404l.86,9.66a8.63,8.63,0,0,0,1.24,4.44,6.54,6.54,0,0,0,1.67,1.56,11.2,11.2,0,0,0,2.12,1c3,1.09,6.35,1.4,9.15,3.24a16.16,16.16,0,0,1,6,7.6,24.91,24.91,0,0,1,1.58,9.55,78,78,0,0,1-.92,9.66,78.27,78.27,0,0,0,.77-9.66,24.68,24.68,0,0,0-1.71-9.44,15.79,15.79,0,0,0-5.94-7.33c-2.71-1.73-6-2-9.11-3.06a11.85,11.85,0,0,1-2.26-1,7.11,7.11,0,0,1-1.88-1.71,9.25,9.25,0,0,1-1.43-4.76l-1-9.65-2-19.29Z"/><path class="cls-14" d="M401,379.09a23.44,23.44,0,0,1-1.4,15,40.39,40.39,0,0,1-8.49,12.39c-3.4,3.62-7,7.08-9.63,11.22a17.86,17.86,0,0,0-2.75,6.67,18.15,18.15,0,0,0,.32,7.22c1.08,4.79,3.28,9.32,4.36,14.25a22.73,22.73,0,0,1,.46,7.54,21.76,21.76,0,0,1-2.32,7.18c-1.12,2.24-2.44,4.35-3.58,6.55a32.66,32.66,0,0,0-2.72,6.83c-1.36,4.75-.76,9.8-1.49,14.77s-3.31,9.46-4,14.34.32,9.85,1.75,14.56,3.21,9.44,3.9,14.41.73,9.93,1.58,14.82a28.65,28.65,0,0,0,2.1,7.09,24.64,24.64,0,0,0,4,6.19c3.29,3.72,7.43,6.58,10.88,10.17a21.2,21.2,0,0,1,4.27,6.09,16.14,16.14,0,0,1,1.33,7.29c-.08,2.49-.48,5-.47,7.44a12.27,12.27,0,0,0,.5,3.67,7,7,0,0,0,2,3.1,7,7,0,0,1-2-3.09,12.09,12.09,0,0,1-.52-3.68c0-2.49.36-5,.43-7.44a16.1,16.1,0,0,0-1.35-7.25,21.4,21.4,0,0,0-4.27-6c-3.46-3.56-7.61-6.39-10.95-10.12a24.94,24.94,0,0,1-4.11-6.23,29.36,29.36,0,0,1-2.16-7.15c-.87-4.92-.9-9.92-1.65-14.82s-2.5-9.57-4-14.32-2.6-9.76-1.84-14.78,3.31-9.46,3.94-14.35.07-9.94,1.44-14.85a33.07,33.07,0,0,1,2.74-7c1.15-2.23,2.45-4.35,3.54-6.55a20.83,20.83,0,0,0,2.21-6.95,21.93,21.93,0,0,0-.48-7.26c-1.08-4.8-3.29-9.31-4.44-14.23a19.28,19.28,0,0,1-.36-7.57,18.88,18.88,0,0,1,2.85-7c2.7-4.29,6.32-7.8,9.69-11.42a39.17,39.17,0,0,0,8.21-12.1,22.27,22.27,0,0,0,1.28-14.22Z"/><path class="cls-14" d="M416.51,392.68c-1.9,15.8-3.21,31.7-5.67,47.47-.32,2-.64,3.93-1,5.9s-.72,3.91-1,5.87a26.84,26.84,0,0,0-.13,5.87,22,22,0,0,0,1.36,5.7,33.1,33.1,0,0,0,6.24,10,73.32,73.32,0,0,0,8.62,8.18c3.07,2.53,6.22,5,9.22,7.61a50.94,50.94,0,0,1,8.15,8.77,41.27,41.27,0,0,1,5.3,10.73,71.69,71.69,0,0,1,2.78,11.64c1.29,7.87,1.7,15.85,3.08,23.69a38.26,38.26,0,0,0,11.42,20.52,38.32,38.32,0,0,1-11.57-20.49c-1.43-7.85-1.88-15.83-3.22-23.68a72.79,72.79,0,0,0-2.84-11.56A41.4,41.4,0,0,0,442,498.27c-4.65-6.47-11.23-11.16-17.39-16.17a75.37,75.37,0,0,1-8.75-8.2,34,34,0,0,1-6.43-10.15,22.79,22.79,0,0,1-1.44-5.88,27.09,27.09,0,0,1,.09-6c.23-2,.59-4,.92-5.93s.65-3.92.95-5.89c2.36-15.74,3.57-31.63,5.37-47.47Z"/><path class="cls-1" d="M383.81,561.71c2.39,1.48,3.25,4.51,3.44,7.28.52,7.6-2.52,15-3.42,22.53-.34,2.88.14,6.56,2.94,7.47"/><path class="cls-14" d="M384,449a22.9,22.9,0,0,0,2.26,6.2,60.5,60.5,0,0,0,3.48,5.77c1.24,1.89,2.61,3.69,3.77,5.71a41.66,41.66,0,0,1,2.86,6.27c1.59,4.29,2.66,8.72,4.08,13a92.69,92.69,0,0,0,5.13,12.52,94.86,94.86,0,0,0,6.88,11.66A123.05,123.05,0,0,1,420,521.52a35.76,35.76,0,0,1,2.65,6.33c.7,2.18,1.24,4.39,1.83,6.57a53.07,53.07,0,0,0,2.1,6.43c.84,2.09,1.8,4.14,2.82,6.16,2,4,4.21,8.06,5.86,12.31a71.27,71.27,0,0,1,3.58,40.22c-.87,4.46-2.05,8.85-2.65,13.34a37.46,37.46,0,0,0-.37,6.77,42.45,42.45,0,0,0,.87,6.73c.9,4.44,2.31,8.77,3.4,13.17A40.9,40.9,0,0,1,441.5,653,40.55,40.55,0,0,0,440,639.57c-1.1-4.4-2.54-8.71-3.46-13.16a40.28,40.28,0,0,1-.91-6.75,37,37,0,0,1,.33-6.81c.58-4.51,1.73-8.91,2.58-13.36a71.24,71.24,0,0,0-3.77-40c-1.67-4.21-3.86-8.17-5.92-12.23-1-2-2-4.08-2.87-6.19a55.46,55.46,0,0,1-2.16-6.49c-1.18-4.38-2.27-8.79-4.49-12.72a120.14,120.14,0,0,0-7.48-11.31,95.72,95.72,0,0,1-12.26-24.34c-1.45-4.33-2.55-8.74-4.14-13a40.5,40.5,0,0,0-2.81-6.09c-1.11-1.91-2.5-3.72-3.76-5.62a61.11,61.11,0,0,1-3.58-5.86,24.26,24.26,0,0,1-2.41-6.53Z"/><path class="cls-14" d="M439.06,454.39a7,7,0,0,1-1.07,2.8,19,19,0,0,1-1.75,2.32c-1.25,1.46-2.64,2.77-3.92,4.16a11.94,11.94,0,0,0-2.74,10.56A12.13,12.13,0,0,1,432,463.42c1.25-1.45,2.6-2.8,3.78-4.27a18.59,18.59,0,0,0,1.6-2.3,6.07,6.07,0,0,0,.89-2.51Z"/><path class="cls-14" d="M422.62,479.73a22.36,22.36,0,0,0-5.86,19.88c.7,3.55,2.53,6.78,3.88,10.23a49.36,49.36,0,0,1,2.83,10.73,66,66,0,0,1,.7,11c-.06,3.69-.42,7.35-.53,11a36.71,36.71,0,0,0,1,10.91,18.74,18.74,0,0,0,5.56,9.33,18.8,18.8,0,0,1-5.7-9.29,36.78,36.78,0,0,1-1.19-11c.06-3.69.37-7.36.38-11a65.72,65.72,0,0,0-.84-11A49.21,49.21,0,0,0,420,510.12c-1.36-3.37-3.27-6.61-4.07-10.32a23.44,23.44,0,0,1,5.88-20.91Z"/><path class="cls-14" d="M428.25,484a10.38,10.38,0,0,1,1.5,6.9,21.66,21.66,0,0,1-1.85,6.72c-1.91,4.3-5.14,7.68-7.65,11.43a24,24,0,0,0-3.07,6,43,43,0,0,0-1.57,6.61c-.75,4.5-1.49,9-2.08,13.53-1.16,9-1.62,18.27.31,27.22s5.93,17.35,6.74,26.52c-.9-9.16-5-17.54-7-26.47s-1.65-18.27-.56-27.33c.54-4.55,1.24-9.06,2-13.58a44.88,44.88,0,0,1,1.54-6.73,25.24,25.24,0,0,1,3.09-6.19c2.54-3.84,5.7-7.24,7.48-11.37a20.82,20.82,0,0,0,1.71-6.45,9.31,9.31,0,0,0-1.38-6.21Z"/><path class="cls-14" d="M434,340a13.91,13.91,0,0,1,4.11,4.66,20.16,20.16,0,0,1,2.07,5.79c.85,4,.64,8.11.49,12.1s-.22,8,.83,11.82,3,7.4,3.66,11.45c.32,2,.39,4,.58,6a21.61,21.61,0,0,0,1.25,5.8c1.37,3.74,3.59,7.11,5.48,10.65a33.37,33.37,0,0,1,2.42,5.51,17.2,17.2,0,0,1,.86,5.95,38.38,38.38,0,0,1-.83,5.95l-1.13,5.91,1.06-5.92a38.57,38.57,0,0,0,.75-5.95,16.78,16.78,0,0,0-.92-5.87,33.32,33.32,0,0,0-2.48-5.44c-1.92-3.5-4.18-6.85-5.63-10.64a22.11,22.11,0,0,1-1.35-5.89c-.22-2-.31-4-.65-6-.65-3.91-2.66-7.45-3.79-11.35s-1.1-8.06-1-12,.25-8-.61-11.85-2.66-7.52-5.84-9.69Z"/><path class="cls-14" d="M440.51,352.09a15.62,15.62,0,0,1-2.28,7.15,35.69,35.69,0,0,1-4.36,6,34,34,0,0,1-2.6,2.63c-.93.83-1.89,1.54-2.77,2.36a15.21,15.21,0,0,0-4.23,5.67,7.55,7.55,0,0,0-.45,3.46,10.1,10.1,0,0,0,1,3.39c1,2.17,2.53,4.13,3.6,6.33a22.71,22.71,0,0,1,1.87,14.27,22.48,22.48,0,0,0-2.13-14.13c-1.11-2.15-2.63-4.07-3.75-6.27a10.85,10.85,0,0,1-1.15-3.53,8.25,8.25,0,0,1,.4-3.72,16,16,0,0,1,4.29-6c.88-.86,1.87-1.62,2.73-2.43a35.84,35.84,0,0,0,6.59-8.5,21.09,21.09,0,0,0,1.42-3.24,11.85,11.85,0,0,0,.59-3.4Z"/><path class="cls-14" d="M440.75,363.39a12.83,12.83,0,0,1-.51,3.52c-.27,1.09-.58,2.17-.87,3.25-.14.55-.27,1-.37,1.61s-.25,1.11-.4,1.66c-.3,1.09-.67,2.15-1,3.21a21.73,21.73,0,0,0-1.48,6.46,8.16,8.16,0,0,0,2.06,6.14,8.31,8.31,0,0,1-2.36-6.14,22.32,22.32,0,0,1,1.21-6.64c.31-1.07.63-2.14.88-3.22.12-.53.23-1.07.31-1.61s.19-1.14.31-1.68c.24-1.1.5-2.19.72-3.27a12.23,12.23,0,0,0,.34-3.12Z"/><path class="cls-14" d="M445.83,390.48a29.73,29.73,0,0,1-1.66,9.7,24.51,24.51,0,0,1-2,4.49c-.8,1.41-1.63,2.81-2.4,4.23a24,24,0,0,0-3.17,9.05,11.42,11.42,0,0,0,2.66,9,11.54,11.54,0,0,1-2.92-9,24.56,24.56,0,0,1,3-9.27c1.46-2.92,3.27-5.63,4.15-8.72a28.62,28.62,0,0,0,1.37-9.43Z"/><path class="cls-14" d="M448.62,400.73a18.17,18.17,0,0,1-1,7c-.7,2.21-1.56,4.35-2.22,6.55a15.47,15.47,0,0,0-.76,6.74,29,29,0,0,0,2,6.57,28.74,28.74,0,0,1-2.28-6.53,15.88,15.88,0,0,1,.52-6.92c.59-2.25,1.37-4.43,2-6.63a17.43,17.43,0,0,0,.76-6.64Z"/><path class="cls-14" d="M514.65,326.48a7.86,7.86,0,0,0-.23,4.78,17.35,17.35,0,0,0,1.93,4.67c.83,1.5,1.78,3,2.57,4.57a15.55,15.55,0,0,1,1.63,5.13,30.4,30.4,0,0,1,.14,5.3l-.28,5.23-.57,10.44c-.2,3.48-.37,7-.85,10.46a32.46,32.46,0,0,1-2.92,10.12,17.25,17.25,0,0,1-7.19,7.64c-1.51.9-3.06,1.69-4.54,2.58a24,24,0,0,0-4.11,3.11,23.44,23.44,0,0,0-5.74,8.49c-1.3,3.2-1.53,6.73-2.51,10.11a12.64,12.64,0,0,1-2.36,4.72,10.46,10.46,0,0,1-4.34,3c-1.63.67-3.32,1.12-4.94,1.72a18,18,0,0,0-4.55,2.45,27.48,27.48,0,0,0-6.84,7.76,76.63,76.63,0,0,0-4.69,9.32,84.09,84.09,0,0,1-4.64,9.37,27.25,27.25,0,0,1-6.79,7.86,27.15,27.15,0,0,0,6.72-7.9,85.72,85.72,0,0,0,4.58-9.39,75.59,75.59,0,0,1,4.63-9.38,27.64,27.64,0,0,1,6.85-7.88,18.45,18.45,0,0,1,4.61-2.52c1.64-.63,3.32-1.09,4.91-1.75a10.25,10.25,0,0,0,4.18-2.9,12.17,12.17,0,0,0,2.24-4.58c.94-3.31,1.14-6.87,2.45-10.17a24.08,24.08,0,0,1,10-11.95c1.5-.92,3.05-1.72,4.52-2.62a16.41,16.41,0,0,0,6.87-7.4,31.55,31.55,0,0,0,2.78-9.9c.45-3.42.59-6.91.76-10.39l.5-10.43c.12-3.48.52-7,.07-10.35s-2.39-6.25-4.14-9.29a18.68,18.68,0,0,1-2.08-5,9,9,0,0,1,.25-5.5Z"/><path class="cls-14" d="M535.47,316a22,22,0,0,0,.11,4.05,15.74,15.74,0,0,0,.92,3.9,4.52,4.52,0,0,0,2.66,2.62,21.6,21.6,0,0,0,4,.9,11.77,11.77,0,0,1,4,1.41c1.23.69,2.35,1.52,3.5,2.29A15.87,15.87,0,0,0,558.3,334a16,16,0,0,1-7.84-2.6c-1.19-.73-2.33-1.51-3.55-2.14a11.15,11.15,0,0,0-3.87-1.22,22.12,22.12,0,0,1-4.15-.79,5.32,5.32,0,0,1-3.21-2.95,16.92,16.92,0,0,1-1.14-4.13,22.37,22.37,0,0,1-.26-4.25Z"/><path class="cls-14" d="M520.19,361.81c2.25,5,4,10.1,6,15.14,1,2.52,2,5,3.13,7.46a33.47,33.47,0,0,0,4,6.95c1.63,2.11,3.6,4,5.31,6.13a19.09,19.09,0,0,1,2.28,3.45,23.69,23.69,0,0,1,1.48,3.85c.78,2.62,1.27,5.28,2.16,7.81a22.73,22.73,0,0,0,4,6.9c3.39,4.17,7.71,7.53,11.3,11.63a23.69,23.69,0,0,1,4.39,6.86,13.08,13.08,0,0,1,.64,1.95,12.45,12.45,0,0,1,.41,2,27.91,27.91,0,0,1,.17,4.08c-.09,2.72-.26,5.41-.17,8.11s.25,5.41.48,8.1l.38,4a36.12,36.12,0,0,0,.55,4A13.48,13.48,0,0,0,568,474.1a7,7,0,0,0,2.8,2.85,7,7,0,0,1-2.83-2.83,13.26,13.26,0,0,1-1.37-3.81,34.47,34.47,0,0,1-.59-4l-.42-4c-.25-2.7-.47-5.4-.55-8.11s0-5.43.09-8.12a28.49,28.49,0,0,0-.2-4,12,12,0,0,0-.43-2,11.44,11.44,0,0,0-.63-1.9,23.4,23.4,0,0,0-4.39-6.7c-3.58-4-7.93-7.34-11.43-11.55a23.46,23.46,0,0,1-4.15-7.06c-.94-2.58-1.46-5.25-2.25-7.81a18.74,18.74,0,0,0-3.68-7c-1.68-2.07-3.67-3.92-5.38-6.08a35.1,35.1,0,0,1-4.12-7.1c-1.17-2.45-2.23-5-3.23-7.49-2-5-3.83-10.14-6.08-15Z"/><path class="cls-14" d="M507.25,396.06a8.66,8.66,0,0,0-2.9,3.68,16.27,16.27,0,0,0-1.28,4.72,15.5,15.5,0,0,0-.08,2.47l.06,2.53a43.6,43.6,0,0,0,.44,5,21.77,21.77,0,0,0,1.27,4.8c.59,1.53,1.48,3,2.06,4.67a11.26,11.26,0,0,1,.48,5.24,23,23,0,0,1-1.34,5c-1.21,3.2-2.71,6.24-3.5,9.49a22.3,22.3,0,0,0,.06,9.92c.62,3.31,1.57,6.6,1.9,10a20.74,20.74,0,0,1-.14,5.16c-.28,1.7-.73,3.34-1.11,5a20,20,0,0,0-.65,5,10.36,10.36,0,0,0,.39,2.43,11.48,11.48,0,0,0,1,2.27c.83,1.45,1.8,2.88,2.54,4.43a35.29,35.29,0,0,1,1.91,4.74,27.9,27.9,0,0,1,1.48,10.09,7.45,7.45,0,0,1-.5,2.54,7.27,7.27,0,0,0-.72,2.38,14.48,14.48,0,0,0,.47,5c.78,3.29,2.21,6.39,3.19,9.65a20.86,20.86,0,0,1,.92,5,15.12,15.12,0,0,1-.64,5c-1,3.28-2.66,6.25-4.06,9.33s-2.55,6.4-2.07,9.81c-.51-3.4.61-6.78,2-9.84s3.07-6.08,4-9.34a15.16,15.16,0,0,0,.61-5,20.44,20.44,0,0,0-1-5c-1-3.23-2.44-6.33-3.26-9.65a14.51,14.51,0,0,1-.51-5.09,7.55,7.55,0,0,1,.72-2.48,7,7,0,0,0,.46-2.42,27.59,27.59,0,0,0-1.54-9.93,33.22,33.22,0,0,0-1.92-4.67c-.73-1.51-1.69-2.89-2.56-4.38a12.27,12.27,0,0,1-1.07-2.36,11.32,11.32,0,0,1-.43-2.58,20.32,20.32,0,0,1,.62-5.11c.38-1.66.81-3.3,1.07-4.95a19.84,19.84,0,0,0,.1-5c-.35-3.34-1.3-6.6-2-9.95a23.07,23.07,0,0,1-.13-10.26c.79-3.37,2.3-6.47,3.46-9.61a22.21,22.21,0,0,0,1.25-4.82,10.21,10.21,0,0,0-.47-4.79c-.54-1.54-1.43-3-2.08-4.62a22.68,22.68,0,0,1-1.36-5,44.5,44.5,0,0,1-.49-5.13l-.09-2.55a17.64,17.64,0,0,1,.08-2.61,17,17,0,0,1,1.34-5.08,9.73,9.73,0,0,1,3.31-4.21Z"/><path class="cls-14" d="M541.35,327.44c.67,6.18.72,12.37.88,18.53a116.31,116.31,0,0,0,1.59,18.37c1.12,6.05,3.3,11.84,5.33,17.67l3.07,8.73a48.22,48.22,0,0,0,3.56,8.52,47.57,47.57,0,0,1-3.7-8.47l-3.21-8.68c-2.12-5.79-4.41-11.56-5.63-17.66a115.55,115.55,0,0,1-1.9-18.45c-.27-6.17-.42-12.34-1.17-18.42Z"/><path class="cls-14" d="M500.07,401.08c-3.24,2.88-4.88,7.31-5.2,11.68a50.5,50.5,0,0,0,.26,6.7,31.79,31.79,0,0,1-.19,6.82,13.62,13.62,0,0,1-2.61,6.3c-1.41,1.8-3.16,3.25-4.28,5.2-2.33,3.86-2.89,8.49-3.4,12.93.41-4.45.86-9.09,3.15-13.09,1.1-2,2.85-3.54,4.18-5.31a13.16,13.16,0,0,0,2.37-6.12,31.07,31.07,0,0,0,0-6.68,52.4,52.4,0,0,1-.41-6.8,21.17,21.17,0,0,1,1.44-6.74,15.6,15.6,0,0,1,3.86-5.78Z"/><path class="cls-14" d="M543,356.82a96.7,96.7,0,0,1-1.32,10.56,44.82,44.82,0,0,1-1.28,5.2,18.84,18.84,0,0,1-2.25,4.92c-2,3-4.82,5.3-7.26,7.8a34.9,34.9,0,0,0-6.17,8.44,40.74,40.74,0,0,0-3.49,9.9,46.06,46.06,0,0,1-3.22,10.1c-1.6,3.18-3.87,5.95-5.11,9.26a27.88,27.88,0,0,0-1.17,5.15,9.31,9.31,0,0,1-2,4.81,9.31,9.31,0,0,0,2-4.83,27.94,27.94,0,0,1,1.1-5.18c1.21-3.36,3.45-6.18,5-9.34a46,46,0,0,0,3.06-10.07,40.59,40.59,0,0,1,3.39-10.08,35.55,35.55,0,0,1,6.16-8.68c2.45-2.57,5.17-4.87,7-7.77a18,18,0,0,0,2.07-4.72,43.4,43.4,0,0,0,1.18-5.1,98.69,98.69,0,0,0,1.16-10.46Z"/><path class="cls-14" d="M504.14,460.61a47.5,47.5,0,0,1-.7,9.07,24.44,24.44,0,0,1-3,8.59c-1.54,2.6-3.24,5.08-4,8a29.89,29.89,0,0,0-.92,8.85,39,39,0,0,0,1.32,8.85c.75,2.89,2,5.65,2.6,8.64a11.28,11.28,0,0,1,0,4.52,13.31,13.31,0,0,1-1.89,4.1c-1.61,2.52-3.69,4.85-4.28,7.86.54-3,2.61-5.4,4.18-7.92a13.28,13.28,0,0,0,1.8-4.08,10.84,10.84,0,0,0-.06-4.43c-.59-2.94-1.91-5.67-2.72-8.59a39.09,39.09,0,0,1-1.45-8.93,30.29,30.29,0,0,1,.81-9c.75-3,2.47-5.59,3.95-8.16a23.85,23.85,0,0,0,2.82-8.36,46.4,46.4,0,0,0,.56-8.89Z"/><path class="cls-14" d="M542.43,363.15l-8.34,30.32a35.4,35.4,0,0,1-2.88,7.35c-1.26,2.34-3.08,4.28-4.25,6.6a16.55,16.55,0,0,0-1.59,7.57,43.45,43.45,0,0,0,.89,7.79,43.42,43.42,0,0,1-1-7.79,16.76,16.76,0,0,1,1.47-7.7c1.15-2.39,2.94-4.38,4.13-6.68a35.17,35.17,0,0,0,2.69-7.31l7.77-30.46Z"/><path class="cls-14" d="M572.86,297.49a7.11,7.11,0,0,0-1.05,4.65,16.37,16.37,0,0,0,1.32,4.89c.68,1.59,1.47,3.16,2.12,4.83a14.11,14.11,0,0,1,1.11,5.32,23.42,23.42,0,0,1-.92,5.29c-.41,1.7-.79,3.4-1.11,5.12A67.15,67.15,0,0,0,573.18,338a46.92,46.92,0,0,0,.8,10.38,54.2,54.2,0,0,0,3.08,10c2.63,6.47,6.1,12.6,8.82,19.1a57,57,0,0,1,3.25,10.06A59.72,59.72,0,0,1,590.28,398c.23,7,.34,14.13-1.43,21a31.92,31.92,0,0,1-4.2,9.65c-1,1.44-2.47,2.54-3.24,4.12a14.77,14.77,0,0,0-1.34,5c-.21,1.73-.27,3.49-.45,5.24a23.09,23.09,0,0,1-1.1,5.14,15.83,15.83,0,0,1-2.45,4.65,11.62,11.62,0,0,1-1.87,1.84,9.72,9.72,0,0,1-2.3,1.26,10.27,10.27,0,0,0,2.29-1.27,11.62,11.62,0,0,0,1.85-1.86,15.66,15.66,0,0,0,2.41-4.64,23,23,0,0,0,1.06-5.13c.16-1.75.22-3.5.41-5.25a14.86,14.86,0,0,1,1.33-5.1c.77-1.62,2.21-2.75,3.22-4.16a31.82,31.82,0,0,0,4.09-9.59c1.71-6.81,1.55-13.91,1.28-20.89a61.27,61.27,0,0,0-1.22-10.4,56.12,56.12,0,0,0-3.29-9.93c-2.75-6.44-6.26-12.54-9-19.06a54.57,54.57,0,0,1-3.2-10.09,48.09,48.09,0,0,1-.89-10.57,69,69,0,0,1,1.09-10.53c.32-1.74.68-3.46,1.09-5.18a23.31,23.31,0,0,0,.86-5.06,13,13,0,0,0-1.08-4.91c-.63-1.6-1.43-3.16-2.14-4.79a17.2,17.2,0,0,1-1.44-5.23,8.18,8.18,0,0,1,1.21-5.42Z"/><path class="cls-14" d="M523.39,428.17a42.76,42.76,0,0,1,1.18,11.25c0,1.88-.16,3.76-.34,5.63s-.46,3.73-.65,5.55a16.51,16.51,0,0,0,.21,5.4,17.15,17.15,0,0,0,2.36,4.88,29.93,29.93,0,0,1,3.72,10.66,82.83,82.83,0,0,1,.86,11.21c.1,3.73.14,7.46.1,11.2q-.12,11.21-1.05,22.37-.46,5.58-1.15,11.14c-.22,1.85-.47,3.7-.72,5.55s-.52,3.69-.63,5.54a21.7,21.7,0,0,0,.31,5.52,25.35,25.35,0,0,0,1.74,5.26c1.5,3.39,3.4,6.63,4.76,10.12a60,60,0,0,1,4.38,21.85,65,65,0,0,1-.9,11.15,43.36,43.36,0,0,0-.28,5.58,12.81,12.81,0,0,0,1.22,5.41,12.65,12.65,0,0,1-1.25-5.41,41.75,41.75,0,0,1,.23-5.59,64,64,0,0,0,.83-11.14,59.89,59.89,0,0,0-4.5-21.74c-1.38-3.46-3.29-6.67-4.84-10.08a26.11,26.11,0,0,1-1.79-5.33,21.65,21.65,0,0,1-.35-5.62c.09-1.88.34-3.74.59-5.58s.47-3.7.68-5.55q.64-5.55,1.08-11.13.85-11.14.9-22.33c0-3.72-.05-7.45-.18-11.17a80.13,80.13,0,0,0-.93-11.08,28.67,28.67,0,0,0-3.67-10.31,18,18,0,0,1-2.5-5.14,17.57,17.57,0,0,1-.27-5.73c.18-1.89.45-3.72.61-5.56s.28-3.7.3-5.54a41.84,41.84,0,0,0-1.22-10.94Z"/><path class="cls-14" d="M549.39,481c-.51-2.36-1-4.74-1.72-7-.32-1.14-.92-2.15-1.29-3.41a10.08,10.08,0,0,1-.12-3.78A23.6,23.6,0,0,0,543.54,453l-.89-1.63,1.41,1.19a49.83,49.83,0,0,1,9.77,12,36.38,36.38,0,0,1,5.44,14.4,33.79,33.79,0,0,0,1.77,7.46,12,12,0,0,0,2,3.26,10.52,10.52,0,0,0,3,2.38c2.23,1.26,4.75,1.93,7.09,3a15.62,15.62,0,0,1,3.3,2,7.92,7.92,0,0,1,2.32,3,8,8,0,0,0-2.35-3,14.85,14.85,0,0,0-3.31-1.95c-2.34-1-4.86-1.68-7.13-2.92a10.9,10.9,0,0,1-3-2.4,12.09,12.09,0,0,1-2-3.3,33.76,33.76,0,0,1-1.87-7.5,36.13,36.13,0,0,0-5.54-14.19,49.25,49.25,0,0,0-9.77-11.72l.52-.44a24.39,24.39,0,0,1,3,14.25,9.22,9.22,0,0,0,.13,3.45c.32,1.07,1,2.18,1.32,3.37.76,2.35,1.28,4.73,1.83,7.09Z"/><path class="cls-14" d="M523.64,449.91a63.54,63.54,0,0,1-1.87,7.4c-.16.61-.27,1.19-.38,1.83a7,7,0,0,1-.62,1.88,11.52,11.52,0,0,1-2.43,3c-.92.88-1.9,1.68-2.79,2.56a16.58,16.58,0,0,0-2.37,2.9,17.09,17.09,0,0,0-2.61,7,17.29,17.29,0,0,1,2.4-7.15,17,17,0,0,1,2.31-3c.87-.93,1.83-1.76,2.71-2.65a11.14,11.14,0,0,0,2.21-2.93,16.9,16.9,0,0,0,.82-3.61,62.69,62.69,0,0,0,1.61-7.33Z"/><path class="cls-14" d="M528.05,464.45a6.83,6.83,0,0,1,.67,4.22,10.26,10.26,0,0,1-.44,2.05,6.87,6.87,0,0,1-1,1.89c-.77,1.12-1.66,2.11-2.42,3.14a10.86,10.86,0,0,0-1.7,3.38,23.28,23.28,0,0,0-.59,7.7c.14,2.63.24,5.29.15,7.94-.17,5.29-.83,10.53-1.31,15.78a77.78,77.78,0,0,0-.13,15.78,77.35,77.35,0,0,1-.16-15.81c.37-5.26.93-10.51,1-15.77,0-2.63-.1-5.24-.3-7.88a24,24,0,0,1,.48-8,11.81,11.81,0,0,1,1.77-3.68c.78-1.11,1.64-2.1,2.34-3.17a7,7,0,0,0,1.15-3.46,5.87,5.87,0,0,0-.55-3.46Z"/><path class="cls-14" d="M525.63,459.82a9.14,9.14,0,0,0,3.28,3.44,29.25,29.25,0,0,0,4.43,2.36c1.54.7,3.13,1.33,4.69,2.07a20.93,20.93,0,0,1,4.43,2.76,27.18,27.18,0,0,1,6.58,8,42.35,42.35,0,0,1,3.75,9.59c.9,3.32,1.52,6.69,2.11,10.05a27.83,27.83,0,0,0,3,9.67c1.66,3,3.82,5.68,5.11,8.87a24.08,24.08,0,0,1,1.86,10,24.11,24.11,0,0,0-2-10c-1.34-3.15-3.52-5.82-5.24-8.78s-2.57-6.4-3.19-9.74-1.31-6.7-2.24-10a41.74,41.74,0,0,0-3.83-9.38,26.56,26.56,0,0,0-6.49-7.65,19.74,19.74,0,0,0-4.27-2.58c-1.54-.69-3.14-1.3-4.72-2a30.66,30.66,0,0,1-4.62-2.39,10.06,10.06,0,0,1-3.74-3.86Z"/><path class="cls-14" d="M556.07,502.69a5.64,5.64,0,0,1,.67,2.2,13.53,13.53,0,0,1,.08,2.2,10.87,10.87,0,0,1-.29,2.18,6.37,6.37,0,0,1-1,2c-.81,1.2-1.78,2.25-2.55,3.42a17,17,0,0,0-1.87,3.77,17.8,17.8,0,0,0-.75,8.36,53.1,53.1,0,0,0,2,8.28,52.38,52.38,0,0,1-2.2-8.26,18.06,18.06,0,0,1,.57-8.51,17.17,17.17,0,0,1,1.82-3.91c.78-1.23,1.72-2.31,2.47-3.49a5.73,5.73,0,0,0,.85-1.83,11.49,11.49,0,0,0,.22-2.05A12.88,12.88,0,0,0,556,505a5,5,0,0,0-.58-1.85Z"/><path class="cls-14" d="M574.92,325.19c-.7,3-1.2,6.15-2.78,9a8.26,8.26,0,0,1-1.51,1.92,16.41,16.41,0,0,1-1.87,1.48c-1.28.91-2.61,1.69-3.76,2.69a13.31,13.31,0,0,0-2.59,3.72,43.1,43.1,0,0,1-2.66,3.85,53.11,53.11,0,0,1-6.27,6.88,52,52,0,0,0,6-7.06,40.11,40.11,0,0,0,2.5-3.89,14,14,0,0,1,2.59-3.95,46.38,46.38,0,0,1,3.72-2.84,9.84,9.84,0,0,0,3-3.23c1.38-2.67,1.79-5.77,2.39-8.82Z"/><path class="cls-14" d="M573.29,339a46.25,46.25,0,0,1-3.5,9.88,23.76,23.76,0,0,1-6.21,8.4,6.56,6.56,0,0,0-1.63,1.87,9,9,0,0,0-.79,2.39,43.69,43.69,0,0,0-.63,15.44,44.34,44.34,0,0,1-.49-10.36,44.86,44.86,0,0,1,.68-5.17,9.75,9.75,0,0,1,.76-2.54,7.35,7.35,0,0,1,1.7-2.08,22.72,22.72,0,0,0,5.79-8.33,45.58,45.58,0,0,0,3.15-9.74Z"/><path class="cls-14" d="M579.83,364.42c.34,4.47.66,9.11-.58,13.58a15.37,15.37,0,0,1-3.21,6.06,32.31,32.31,0,0,1-5.12,4.47,35.24,35.24,0,0,0-5.07,4.35,14.25,14.25,0,0,0-1.91,2.71,14.72,14.72,0,0,0-1.19,3.1,19.25,19.25,0,0,0-.54,3.3c-.1,1.11-.07,2.23-.11,3.36a12.21,12.21,0,0,1-.49,3.34,4.06,4.06,0,0,1-2.07,2.54,4,4,0,0,0,2-2.57,12.31,12.31,0,0,0,.41-3.31c0-1.12,0-2.25,0-3.38a19.89,19.89,0,0,1,.48-3.35,16,16,0,0,1,1.15-3.21,14.6,14.6,0,0,1,1.9-2.83,35.4,35.4,0,0,1,5-4.53,31.38,31.38,0,0,0,4.92-4.48,14.57,14.57,0,0,0,2.92-5.81c1.08-4.28.69-8.79.25-13.23Z"/><path class="cls-14" d="M589.68,416.58a18.71,18.71,0,0,0-1.43,8.88,28.65,28.65,0,0,0,.59,4.53,35.84,35.84,0,0,0,1.37,4.39,58.25,58.25,0,0,1,2.57,8.94,28.67,28.67,0,0,1,0,9.29,26.05,26.05,0,0,1-1.11,4.53c-.25.74-.57,1.44-.77,2.17a7.4,7.4,0,0,0-.25,2.26,42.18,42.18,0,0,0,1.19,9.14,48.36,48.36,0,0,0,7.42,16.84,48.33,48.33,0,0,1-7.6-16.8,42.34,42.34,0,0,1-1.3-9.18,8.07,8.07,0,0,1,.24-2.34c.2-.76.52-1.47.75-2.2a26.19,26.19,0,0,0,1.06-4.47,28.72,28.72,0,0,0-.09-9.16,57.38,57.38,0,0,0-2.64-8.83,36.5,36.5,0,0,1-1.43-4.44,28,28,0,0,1-.65-4.64,19.38,19.38,0,0,1,1.4-9.25Z"/><path class="cls-14" d="M576.11,315.45A16.85,16.85,0,0,0,580,322.9c.94,1,2.21,1.79,3.3,2.93a18.53,18.53,0,0,1,2.34,3.85c1.44,2.53,3,5.07,4.21,7.78a19.4,19.4,0,0,1,2.07,8.65,11.36,11.36,0,0,1-1.15,4.33,32.31,32.31,0,0,1-2.25,3.83,20.1,20.1,0,0,0-2.11,3.82,24.29,24.29,0,0,0-1.16,4.21,36.62,36.62,0,0,0-.43,8.75,33.89,33.89,0,0,0,1.61,8.64,33.78,33.78,0,0,1-1.76-8.63,36.6,36.6,0,0,1,.29-8.81,24.67,24.67,0,0,1,1.1-4.3,21.6,21.6,0,0,1,2.08-3.92c1.56-2.46,3.12-5,3.18-7.95a18.67,18.67,0,0,0-2.15-8.31c-1.25-2.63-2.81-5.1-4.31-7.65a18.37,18.37,0,0,0-2.28-3.63c-1-1-2.25-1.74-3.34-2.87a17.89,17.89,0,0,1-4.34-7.89Z"/><path class="cls-14" d="M570.63,347.33a9.11,9.11,0,0,0-1.48,4.11,21.32,21.32,0,0,0-.07,4.59,76.37,76.37,0,0,0,1.67,9.2,24.08,24.08,0,0,1,.49,4.72,16.48,16.48,0,0,1-.76,4.68c-.44,1.51-1,3-1.59,4.43l-1.7,4.39,1.56-4.44c.52-1.48,1-2.95,1.45-4.46a16.32,16.32,0,0,0,.59-4.6,23.25,23.25,0,0,0-.63-4.6,80,80,0,0,1-2-9.23,22.63,22.63,0,0,1-.07-4.8,10.15,10.15,0,0,1,1.55-4.69Z"/><path class="cls-14" d="M579.84,376c-1.22,4.44-1.19,9.14-.92,13.8s.78,9.39.14,14.11a34.58,34.58,0,0,1-1.83,6.83,30.56,30.56,0,0,0-1.63,6.79,27.19,27.19,0,0,0,2,13.73,27.42,27.42,0,0,1-2.3-13.76,31.7,31.7,0,0,1,1.5-6.9,33.63,33.63,0,0,0,1.66-6.77c.54-4.62-.09-9.29-.44-14s-.52-9.49.67-14.17Z"/><path class="cls-14" d="M592.15,346.57a15.24,15.24,0,0,0,.56,5.18,16.46,16.46,0,0,0,2,4.89,5.71,5.71,0,0,0,.81.94,2.71,2.71,0,0,0,1.07.48,19.22,19.22,0,0,1,2.67.78,16.74,16.74,0,0,1,4.77,2.85,17.81,17.81,0,0,1,3.59,4.2,28.14,28.14,0,0,1,2.25,5,14,14,0,0,0,2.64,4.7,6,6,0,0,0,4.79,2.15,6.09,6.09,0,0,1-4.9-2,14.42,14.42,0,0,1-2.81-4.7,28.23,28.23,0,0,0-2.35-4.89,17.49,17.49,0,0,0-3.6-4,15.88,15.88,0,0,0-4.64-2.61,19.56,19.56,0,0,0-2.61-.68,3.49,3.49,0,0,1-1.41-.61,6.07,6.07,0,0,1-1-1.1A17.25,17.25,0,0,1,591.7,352a16.33,16.33,0,0,1-.74-5.62Z"/><path class="cls-14" d="M324.88,497.92l0,15.2v7.6a69.63,69.63,0,0,0,.21,7.53,13.94,13.94,0,0,0,2.55,6.85,28,28,0,0,0,5.25,5.3c2,1.6,4,3.09,5.94,4.75a29.52,29.52,0,0,1,5.16,5.66,38.71,38.71,0,0,1,5.72,14.09A105.11,105.11,0,0,1,351.62,580a136.15,136.15,0,0,0,1.61,15.09,41.25,41.25,0,0,0,5.07,14.23,41.63,41.63,0,0,1-5.22-14.2A136.71,136.71,0,0,1,351.32,580a105.21,105.21,0,0,0-2-15,38.13,38.13,0,0,0-5.77-13.83,28.87,28.87,0,0,0-5.1-5.49c-1.93-1.62-4-3.1-6-4.68a28.54,28.54,0,0,1-5.45-5.42,16.67,16.67,0,0,1-1.87-3.42,16.48,16.48,0,0,1-.9-3.79,75.51,75.51,0,0,1-.3-7.64l-.08-7.6-.17-15.19Z"/><path class="cls-14" d="M269.92,493.8A30.21,30.21,0,0,0,280.32,514a29.81,29.81,0,0,0,4.77,3.34,54.88,54.88,0,0,0,5.29,2.56c3.6,1.58,7.35,3,10.69,5.31a19.43,19.43,0,0,1,4.41,4.13,18.41,18.41,0,0,1,2.8,5.36,31.46,31.46,0,0,1,1.2,11.88c-.26,4-1,7.88-1.56,11.79a44.8,44.8,0,0,0-.41,11.73,16.49,16.49,0,0,0,1.56,5.58,5.63,5.63,0,0,0,1.92,2.05,9,9,0,0,0,2.66,1.06c1.88.47,3.9.58,5.81,1.22a17,17,0,0,1,5.29,2.79,24.09,24.09,0,0,1,7.13,9.46,37.8,37.8,0,0,1,3,11.49c1,7.85.54,15.87,2.61,23.54a29.34,29.34,0,0,0,5.24,10.53,18.05,18.05,0,0,0,9.67,6.47,18.12,18.12,0,0,1-9.73-6.42,29.48,29.48,0,0,1-5.32-10.54c-2.13-7.69-1.77-15.73-2.77-23.55a37.56,37.56,0,0,0-3-11.37,23.8,23.8,0,0,0-7.06-9.26,16.57,16.57,0,0,0-5.16-2.67c-1.85-.61-3.84-.71-5.8-1.18a9.24,9.24,0,0,1-2.82-1.12,6.18,6.18,0,0,1-2.12-2.22,17.17,17.17,0,0,1-1.66-5.78,45.23,45.23,0,0,1,.34-11.91c.51-3.93,1.24-7.82,1.47-11.74A30.47,30.47,0,0,0,307.5,535a17.65,17.65,0,0,0-2.7-5.09,18.39,18.39,0,0,0-4.24-3.92c-3.22-2.19-6.93-3.59-10.57-5.15a57.9,57.9,0,0,1-5.4-2.58,30.5,30.5,0,0,1-4.95-3.42,31.39,31.39,0,0,1-10.92-20.89Z"/><path class="cls-1" d="M270.87,666.49q-.86,9.62-2.25,19.18c-.43,3-.94,6-2.53,8.53-2.11,3.37-5.81,5.39-9.09,7.69s-6.48,5.46-6.64,9.42c-.08,1.8-.25,4.45-2.07,4.31"/><path class="cls-14" d="M274.19,617.24a13.69,13.69,0,0,1-.9,3.56,15.19,15.19,0,0,1-1.82,3.15,20.4,20.4,0,0,1-5.32,4.83c-4,2.65-8.75,3.84-13.32,4.87s-9.23,1.92-13.48,3.85a36,36,0,0,0-11.37,8,34.82,34.82,0,0,0-4.29,5.53c-1.27,2-2.39,4-3.59,6.07a40.77,40.77,0,0,1-4,5.82,19.09,19.09,0,0,1-5.48,4.47c-4.19,2.26-8.92,3.08-13.53,3.91l-13.9,2.48,13.88-2.6c4.6-.87,9.31-1.74,13.43-4a19,19,0,0,0,5.36-4.46,39.81,39.81,0,0,0,3.94-5.81c1.17-2,2.28-4.11,3.54-6.11a36.08,36.08,0,0,1,15.78-13.9c4.32-2,9-2.94,13.57-4s9.15-2.29,13-4.88a19.44,19.44,0,0,0,5-4.65,14.16,14.16,0,0,0,1.67-3,12.72,12.72,0,0,0,.8-3.27Z"/><path class="cls-14" d="M522.17,482.05a14.79,14.79,0,0,1-3.31,12.84,11.33,11.33,0,0,1-5.85,3.38c-2.16.56-4.41.83-6.18,2.09s-2.88,3.23-4,5.12a20.86,20.86,0,0,1-1.88,2.78,10.06,10.06,0,0,1-2.52,2.22,14.29,14.29,0,0,1-6.38,1.87,39,39,0,0,1-6.66-.16,38.86,38.86,0,0,0,6.65,0,14.1,14.1,0,0,0,6.25-2,10.14,10.14,0,0,0,2.42-2.2,22.33,22.33,0,0,0,1.79-2.78c1.09-1.9,2.16-4,4.05-5.34s4.22-1.71,6.31-2.3a10.64,10.64,0,0,0,5.45-3.27,13.94,13.94,0,0,0,2.88-12.1Z"/><path class="cls-15" d="M470,339c-19.73,108.35,11.8,219.88,1.85,329.54-2.17,23.94-6.32,47.76-6.37,71.79"/><path class="cls-16" d="M233.85,657.78a12,12,0,0,0,9,22.22c5.74-7.11,3.09-18.73-9-22.22"/><path class="cls-17" d="M363.27,643.56c-3.35.17-3.35.17-4.9,1.38-2.39,3.49-1.11,9,2.69,10.89s9.11-.61,9.89-4.78-3.55-8.46-7.68-7.49"/><path class="cls-17" d="M590.11,637.21c-4.65-3.08-12.12.45-12.46,6s7,9.94,11.63,6.81,6.31-11.8.83-12.83"/><path class="cls-14" d="M163.87,394.51a8.15,8.15,0,0,1-.52,3.74,14.19,14.19,0,0,1-1.77,3.22,26.08,26.08,0,0,1-5.13,5.1A19.15,19.15,0,0,0,153.9,409a9.5,9.5,0,0,0-1.72,3.05,13.45,13.45,0,0,1-1.3,3.35,3.69,3.69,0,0,1-1.35,1.19,2.16,2.16,0,0,1-1.74.14,2.09,2.09,0,0,0,1.71-.2,3.59,3.59,0,0,0,1.28-1.2,13.16,13.16,0,0,0,1.16-3.35,10.09,10.09,0,0,1,1.67-3.22,19.36,19.36,0,0,1,2.52-2.6,25.52,25.52,0,0,0,4.83-5.14c1.28-1.92,2.25-4.21,1.92-6.41Z"/><path class="cls-14" d="M575.81,311.71a2.61,2.61,0,0,0,1.82,2.1,8.85,8.85,0,0,0,3.23.64c2.29.12,4.61.05,6.95.25a16.6,16.6,0,0,1,6.79,1.88,10,10,0,0,1,2.75,2.26,11.7,11.7,0,0,1,1.73,3.1c.86,2.17,1.31,4.48,2.49,6.44a6.54,6.54,0,0,0,2.36,2.37,9.33,9.33,0,0,0,3.24,1c1.14.19,2.29.27,3.44.41a21,21,0,0,1,9.64,3.75A20.81,20.81,0,0,0,614,333a20.59,20.59,0,0,0-3.4-.64c-1.15-.13-2.3-.19-3.46-.35a9.71,9.71,0,0,1-3.35-1,6.84,6.84,0,0,1-2.53-2.45c-1.26-2-1.75-4.34-2.64-6.45a10.81,10.81,0,0,0-1.69-2.91,9.17,9.17,0,0,0-2.63-2.08,15.65,15.65,0,0,0-6.54-1.68c-2.28-.16-4.59-.05-6.93-.13a9.85,9.85,0,0,1-3.56-.64,4.74,4.74,0,0,1-1.61-1.06,3,3,0,0,1-.84-1.85Z"/><circle class="cls-18" cx="375.5" cy="375.5" r="371.5"/><path class="cls-19" d="M163,350.31c-.59,4.08-5.64,5-8.48,7-1.78,1.24-3.1,3-4.65,4.54s-3.51,2.86-5.68,2.8"/><g id="Layer_86" data-name="Layer 86"><polygon class="cls-20" points="418.78 587.79 420.34 662.72 402.43 661.78 441.37 729.22 482.63 663.65 464.73 663.65 462.39 587.79 418.78 587.79"/><polygon class="cls-21" points="551.16 681.55 549.71 606.95 566.37 607.89 530.15 540.75 491.77 606.02 508.43 606.02 510.6 681.55 551.16 681.55"/><text class="cls-22" transform="translate(155.64 648.82) rotate(-7.68)">t<tspan class="cls-23" x="11.48" y="0">r</tspan><tspan x="23.25" y="0">a</tspan><tspan class="cls-24" x="48.81" y="0">n</tspan><tspan class="cls-25" x="72.72" y="0">slocatio</tspan><tspan class="cls-24" x="218.2" y="0">n</tspan><tspan class="cls-25" x="242.11" y="0">s</tspan></text></g><g id="Layer_85" data-name="Layer 85"><polyline class="cls-26" points="446.98 440.29 476.69 435.72 466.62 425.87"/><polyline class="cls-26" points="480.66 442.93 450.95 447.5 461.02 457.35"/><path class="cls-27" d="M241.25,334.43c.18,10,.22,20,.91,30,.72,10.46,1.22,21-.12,31.42-2.53,19.65-9.45,38-18.54,54.65-7.26,13.3-8.71,29.86-9.53,45.33-.55,10.24.49,21,5.25,29.64,9.16,16.55,29.47,24.58,45.59,24.72,14.33.13,33.68-5.94,42.66-19.94,10.22-15.93,9.92-47.63,2-64.92-7.4-16.15-26-20.11-40.17-16.47a17.34,17.34,0,0,0-11,7.82c-4.61,8-3,19.21-1.88,28.12.46,3.86.91,7.71,1.42,11.54"/><polygon class="cls-28" points="282.6 488.18 232.25 497.76 262.21 518.14 282.6 488.18"/><rect class="cls-29" x="376.18" y="430.37" width="52.6" height="52.6" transform="translate(-64.75 66.5) rotate(-8.75)"/><polygon class="cls-29" points="538.71 404.93 507.24 409.77 495.7 439.44 515.63 464.28 547.1 459.44 558.64 429.76 538.71 404.93"/><text class="cls-30" transform="translate(394.79 471.95) rotate(-9.97)">x</text><text class="cls-31" transform="translate(519.26 448.18) rotate(-9.97)">y</text><text class="cls-32" transform="translate(316.31 430.61) rotate(-9.76)">t<tspan class="cls-33" x="11.48" y="0">r</tspan><tspan x="23.25" y="0">a</tspan><tspan class="cls-34" x="48.81" y="0">n</tspan><tspan class="cls-35" x="72.72" y="0">s</tspan><tspan class="cls-33" x="88.92" y="0">f</tspan><tspan x="99.57" y="0">or</tspan><tspan class="cls-36" x="137.11" y="0">m</tspan><tspan x="172.7" y="0">atio</tspan><tspan class="cls-37" x="245.09" y="0">n</tspan><tspan x="269" y="0">s</tspan></text></g><g id="Layer_84" data-name="Layer 84"><polygon class="cls-20" points="161.66 260.82 100.29 287.8 95.31 273.66 52.15 326.9 119.55 336.18 113.79 322.36 175.68 294.45 161.66 260.82"/><text class="cls-38" transform="translate(128.48 235.59) rotate(-21.51)">l<tspan class="cls-39" x="9.36" y="0">o</tspan><tspan class="cls-40" x="34.1" y="0">s</tspan><tspan class="cls-41" x="51.01" y="0">s</tspan><tspan class="cls-42" x="67.79" y="0">e</tspan><tspan x="90.99" y="0">s</tspan></text></g><g id="Layer_83" data-name="Layer 83"><polygon class="cls-21" points="400.32 143.54 402.37 225.42 378.83 224.4 430 298.08 484.25 226.44 460.71 226.44 457.64 143.54 400.32 143.54"/><text class="cls-43" transform="matrix(1, -0.02, 0.02, 1, 319.18, 126.15)">additio<tspan class="cls-44" x="133.92" y="0">n</tspan><tspan x="157.83" y="0">s</tspan></text></g></g></g></svg>