<svg xmlns="http://www.w3.org/2000/svg" xmlns:xlink="http://www.w3.org/1999/xlink" viewBox="0 0 751 751"><defs><style>.cls-1,.cls-13,.cls-14,.cls-15,.cls-16,.cls-24{fill:none;}.cls-2{clip-path:url(#clip-path);}.cls-3{fill:#caa985;}.cls-4{fill:#36995e;}.cls-5{fill:#efebe4;}.cls-6{fill:#463326;}.cls-7{fill:#715341;}.cls-20,.cls-8,.cls-9{fill:#3daaa1;}.cls-10,.cls-11,.cls-24,.cls-25,.cls-26,.cls-8,.cls-9{stroke:#fff;}.cls-10,.cls-11,.cls-13,.cls-14,.cls-15,.cls-16,.cls-24,.cls-26,.cls-27,.cls-28,.cls-8,.cls-9{stroke-miterlimit:10;}.cls-11,.cls-8{stroke-width:0.29px;}.cls-10,.cls-9{stroke-width:0.22px;}.cls-10{fill:#99a43b;}.cls-11{fill:#f0be19;}.cls-12{fill:#3c2a1d;}.cls-13,.cls-15,.cls-27,.cls-28{stroke:#3c2a1d;}.cls-13{stroke-width:1.17px;}.cls-14{stroke:#ec6b7c;stroke-width:8px;}.cls-16{stroke:#2e61a2;stroke-width:25px;}.cls-17{fill:#2e61a2;}.cls-18{isolation:isolate;}.cls-19{fill:#fff;}.cls-21,.cls-25,.cls-26{fill:#5c5052;}.cls-22{fill:#ec6a7c;}.cls-23{fill:#faad19;}.cls-24,.cls-26,.cls-27,.cls-28{stroke-width:1.18px;}.cls-25{stroke-miterlimit:10;stroke-width:1.18px;}.cls-27{fill:#de9c7a;}.cls-28{fill:#d9af81;}</style><clipPath id="clip-path"><circle class="cls-1" cx="375.77" cy="398.05" r="349.82"/></clipPath></defs><g id="Layer_2" data-name="Layer 2"><g id="Layer_1-2" data-name="Layer 1"><g id="Layer_2-2" data-name="Layer 2"><g id="Soil_Processes" data-name="Soil Processes"><g class="cls-2"><path class="cls-3" d="M619.19,461.6v-.19h0A.6.6,0,0,1,619.19,461.6Z"/><path class="cls-3" d="M619.52,645.37c0-3.58-.2-7.19-.41-10.77q-2.58-44.15-1.87-88.41c.15-9.3,8.46-58.1-7.71-55.64-9,1.36-18.88,8-26.39,12.76-5.86,3.72-11.54,8-18.23,9.86-5.78,1.6-11.9,1.25-17.83,2.17-26.64,4.1-44.74,32.42-71.46,36-18.52,2.52-36.32-7.53-54.88-9.71-26-3.06-51.4,9.44-77.58,10.43-24.7.93-48.65-8.39-73.3-10.11C227.7,539,183.62,558,143.62,549.13q-.28-20.21-.63-40.4.88,54.32,1.39,108.62c.14,15-4.4,38.95.38,53,4,11.72,23.6,23.2,34.41,29.22,9.74,5.42,20.3,9.14,30.81,12.85l28.09,9.9c4.79,1.68,9.59,3.38,14.52,4.63,10.29,2.61,19.8,2.69,29.67,6.44a167.39,167.39,0,0,0,37.18,9.94c8.37,1.14,16.81,1.57,25.24,2,28.41,1.47,58.33,9.84,86.54,2.61,13.86-3.56,25.28-11.8,39.6-15,16.25-3.65,33.05-4.84,48.88-10.28,16.19-5.57,29.09-15.54,43.3-24.62,12.21-7.81,26.4-12.45,39-20.21,8-4.91,14.63-13,16.53-22.29A52.91,52.91,0,0,0,619.52,645.37Z"/><path class="cls-3" d="M618.29,471.25l-.09.91Z"/></g><path class="cls-4" d="M213,302.43c42.12-16,84.72-32.18,129.46-38.11,35.05-4.65,70.6-2.91,105.92-1.17l166.41,8.21c-6.61,24.27-16.48,47.91-31.49,68.22-8.87,12-19.61,22.84-32.5,30.53-15.69,9.36-34,13.71-52.13,16.14-34.33,4.58-69.2,2.79-103.71-.17-61.33-5.26-122.62-14.22-181.38-32.3-12.74-3.92-25.49-8.29-38.78-9.55-8.89-.83-20.62.46-28.77-3.77-11.33-5.89-1.8-11,5.39-14C171.83,318.12,192.43,310.27,213,302.43Z"/><path class="cls-5" d="M620.35,475.17c-.25,8.5,2.33,28.68-4.72,35-1.58,1.43-3.63,2.22-5.52,3.2-5.23,2.7-9.46,7-14.19,10.44-17.07,12.57-39.39,14.58-59.82,20.24-6.81,1.89-12.88,6.16-19.36,9.05-8.08,3.61-16.26,7-24.56,10.08A285.66,285.66,0,0,1,442.31,577c-28.37,5-57.63,4.76-85.43,12.27-12.26,3.31-24.62,8.15-37.24,6.71-9-1-17.23-5.14-25.37-9-25.83-12.35-53.5-23.18-82.11-22.14-12.87.47-25.73,3.35-38.52,1.88s-26.2-8.83-29.42-21.29c-1-3.82-.95-7.81-.9-11.76l.9-77.81c0-2.38.08-4.89,1.24-7,1.33-2.37,3.84-3.79,6.24-5.06a345.44,345.44,0,0,1,154.84-39.65c44.29-.71,88.56,7.13,132.72,3.81,42.19-3.16,82.9-16.4,124.51-24.08,7.86-1.45,15.59-1.53,23.47-2.25a193,193,0,0,1,26.12-.61,8,8,0,0,1,4.45,1.11c1.93,1.43,2.19,4.17,2.25,6.57.25,9,.26,18.12-.39,27.13-.6,8.38.45,17.1.69,25.58Q620.84,458.3,620.35,475.17Z"/><path class="cls-6" d="M232,370.34c19.53-1.22,38.66-8.32,58.17-6.82,14.33,1.11,28,6.82,42.29,8.07,24.35,2.13,48.41-8.74,72.78-6.88,14.23,1.08,27.87,6.47,42.11,7.5,13,1,26-1.77,38.48-5.41A260.46,260.46,0,0,0,559,332.38c8.6-5.84,16.93-12.24,26.44-16.45,11-4.91,24-7.18,34.87-12.13a215,215,0,0,0-5-32.42L529,315.33c-14.91,7.59-30,15.24-46.17,19.43-24.75,6.41-50.79,4.43-76.32,3-86.68-4.78-178.1-4.24-264.88-1.89q.34,16.14.64,32.27C170.74,360.29,202,372.22,232,370.34Z"/><path class="cls-7" d="M618.93,291.44c.55,4.11,1,8.22,1.37,12.36-10.83,4.95-23.82,7.22-34.87,12.13-9.51,4.21-17.84,10.61-26.44,16.45a260.21,260.21,0,0,1-73.15,34.42c-12.51,3.64-25.5,6.36-38.48,5.41-14.24-1-27.88-6.42-42.11-7.5-24.37-1.86-48.43,9-72.78,6.88-14.31-1.25-28-7-42.29-8.07-19.51-1.5-38.64,5.6-58.17,6.82-30,1.88-61.25-10-89.85-2.18,0-1.83-.07-3.66-.11-5.48q.93,46.71,1.59,93.44c40,8.91,84.08-10.12,126.24-7.18,24.65,1.72,48.6,11,73.3,10.11,26.18-1,51.56-13.49,77.58-10.43,18.56,2.18,36.36,12.23,54.88,9.71,26.72-3.63,44.82-31.95,71.46-36.05,5.93-.92,12-.57,17.83-2.17,6.69-1.84,12.37-6.14,18.23-9.86a122.41,122.41,0,0,1,18.42-9.59c3.19-1.33,6.44-2.56,9.75-3.58,1.67-.52,6.18-.26,7.27-1.23a2.91,2.91,0,0,0,.71-2c.79-8.05,1.58-16.09,2-24.16C622.77,343.93,622.36,317.07,618.93,291.44Z"/><path class="cls-8" d="M519.37,239.73c.32,13.92,4.72,27.44,7.08,41.15.84,4.87,2.5,10.68,7.27,11.93,2.1-7.81.55-16.06.07-24.14-.42-7.13,0-14.31-.73-21.43s-2.78-14.34-7.46-19.74c-3.14-3.63-17.31-9.73-22.2-9C503.61,224.16,519.1,227.74,519.37,239.73Z"/><path class="cls-8" d="M531.87,293.17c-3.64-5.07-3.71-11.9-2.45-18s3.65-12,4.49-18.16c.69-5.14.27-10.39,1-15.52s3-10.44,7.53-13c2.53-1.45,5.49-1.89,8.26-2.79s5.59-2.51,6.62-5.24c-2.28,6-2.21,9.83-8.88,12.95-6.06,2.83-6.71,4.66-8,11.83C537.48,261.18,534.73,277.18,531.87,293.17Z"/><path class="cls-8" d="M543.09,250a7.59,7.59,0,0,0-1.74,2.72,220.6,220.6,0,0,0-12.47,36.12c5.92.67,10.88-4.66,13.19-10.16,2.08-4.93,2.93-15,7.77-18.21,4.68-3.06,21.48,7.3,31.26,4.56C572.65,262.73,548.8,245,543.09,250Z"/><path class="cls-9" d="M423.83,278.5c.24,10.36,3.51,20.42,5.27,30.63.62,3.62,1.86,7.95,5.41,8.88,1.56-5.81.41-12,.05-18-.31-5.31,0-10.66-.54-16s-2.07-10.68-5.56-14.7c-2.33-2.7-12.88-7.24-16.52-6.71C412.1,266.9,423.62,269.57,423.83,278.5Z"/><path class="cls-9" d="M433.13,318.28c-2.71-3.77-2.76-8.86-1.82-13.41s2.72-8.91,3.34-13.52c.51-3.82.2-7.73.78-11.55s2.25-7.77,5.6-9.69c1.88-1.08,4.09-1.41,6.15-2.08s4.16-1.87,4.93-3.9c-1.7,4.49-1.65,7.31-6.61,9.64-4.51,2.11-5,3.47-6,8.81C437.31,294.46,435.26,306.38,433.13,318.28Z"/><path class="cls-10" d="M441.48,286.1a5.6,5.6,0,0,0-1.29,2,164.75,164.75,0,0,0-9.28,26.9c4.41.5,8.1-3.48,9.82-7.57,1.55-3.67,2.18-11.19,5.78-13.55s16,5.43,23.27,3.4C463.49,295.62,445.74,282.4,441.48,286.1Z"/><path class="cls-8" d="M369.4,225.9a2.18,2.18,0,0,1-.27,1.09c-.61.94-2.08.52-3-.07a24,24,0,0,1-10.74-15c-.79-3.57-.75-7.26-1.29-10.87-1.72-11.39-8.56-17.43-16.64-24.51,8.37-1.32,18.5,10.76,22.65,16.72A51.33,51.33,0,0,1,369.4,225.9Z"/><path class="cls-8" d="M331.61,157.5c5.82,1.33,11.49,4.32,14.85,9.26,1.87,2.77,2.93,6,4.27,9.05,1.66,3.83,3.77,7.47,5.33,11.34,4.57,11.32,4.23,23.95,3.82,36.15l10.17,4a2.14,2.14,0,0,0,1.36.22c.74-.22,1-1.12,1.11-1.9.54-4.08-.22-8.21-1-12.26-2.73-14.6-5.53-29.43-12.23-42.69a44,44,0,0,0-5.58-8.74,31,31,0,0,0-19.08-10.52c-6.34-.9-15.32,0-20.35,4.4,1.5,1.34,5.92.49,8,.56A49.67,49.67,0,0,1,331.61,157.5Z"/><path class="cls-8" d="M329.43,189.14a34.76,34.76,0,0,1,11.73,4.1c4.29,2.64,7.53,6.66,10.68,10.59l24,30c-1.68,1.68-4.52.75-6.61-.38a66.74,66.74,0,0,1-16.79-13c-3.26-3.48-6.15-7.3-9.52-10.66-4.89-4.9-10.72-8.74-16.5-12.55-4.73-3.11-9.48-6.2-14.18-9.34C317.65,187.17,323.89,188.1,329.43,189.14Z"/><path class="cls-8" d="M203.77,276.66c-2.07,1.81-4.27,3.48-6.19,5.45a33.7,33.7,0,0,0-9,20.24,50.77,50.77,0,0,0,3.19,22.17c.86,2.36,2.39,5.07,4.91,5.1,1.91,0,3.49-1.68,4-3.51a15,15,0,0,0,.07-5.71c-1.07-10.25,0-21,4.75-30.12,3.09-5.89,7.61-10.92,11-16.65a50.37,50.37,0,0,0,5.73-14.37c.8-3.49,2.91-11.2.49-14.26-2.54,5.44-3.7,11.52-6.85,16.92A58.83,58.83,0,0,1,203.77,276.66Z"/><path class="cls-8" d="M558.31,283.35a1.51,1.51,0,0,1-.26.61c-.4.49-1,.11-1.43-.33a14.63,14.63,0,0,1-3.33-9.81c0-2.16.49-4.31.65-6.48.5-6.82-2-11-5-15.89,4.11,0,7.5,8,8.77,11.9A36.09,36.09,0,0,1,558.31,283.35Z"/><path class="cls-8" d="M548.37,239.79a11.72,11.72,0,0,1,5.94,6.81,35.61,35.61,0,0,1,1,5.7c.34,2.39.92,4.72,1.21,7.13.85,7.05-.78,14.4-2.38,21.5l4.34,3.32a.86.86,0,0,0,.61.25c.38-.06.61-.56.75-1a28.77,28.77,0,0,0,1-7.27c.4-8.8.79-17.73-.84-26.12a27.77,27.77,0,0,0-1.63-5.64,14.43,14.43,0,0,0-7.8-7.94c-2.89-1.11-7.24-1.41-10.13.67.56.93,2.75.84,3.74,1.08A19.61,19.61,0,0,1,548.37,239.79Z"/><path class="cls-8" d="M543.67,258.1a14.83,14.83,0,0,1,5.07,3.5,24.39,24.39,0,0,1,3.82,7.19l7.88,19.81c-1,.83-2.23,0-3.08-.84a34.08,34.08,0,0,1-6.44-9.16c-1.14-2.34-2.06-4.84-3.26-7.13a52.4,52.4,0,0,0-6.35-8.88c-1.87-2.26-3.76-4.52-5.62-6.79A21.5,21.5,0,0,1,543.67,258.1Z"/><path class="cls-8" d="M569.18,258.9c-1.19.87-2.42,1.64-3.56,2.61a22.56,22.56,0,0,0-6.61,11,37,37,0,0,0-1,13.26c.13,1.47.54,3.19,1.73,3.45.9.19,1.84-.66,2.31-1.68a11.17,11.17,0,0,0,.69-3.33c.69-6.1,2.42-12.28,5.74-17.18,2.14-3.16,4.86-5.68,7.13-8.71a34.06,34.06,0,0,0,4.37-7.87c.78-2,2.68-6.28,1.89-8.3-1.83,2.95-3.09,6.39-5.2,9.26A35,35,0,0,1,569.18,258.9Z"/><path class="cls-8" d="M501.8,300.72a2.3,2.3,0,0,1-.36.87c-.57.71-1.49.16-2-.46a20.86,20.86,0,0,1-4.76-14c.06-3.08.7-6.16.93-9.25.72-9.73-2.89-15.69-7.18-22.68,5.87,0,10.71,11.45,12.52,17A51.52,51.52,0,0,1,501.8,300.72Z"/><path class="cls-8" d="M487.61,238.56a16.67,16.67,0,0,1,8.49,9.72,51,51,0,0,1,1.38,8.13c.49,3.42,1.31,6.73,1.73,10.18,1.21,10.06-1.11,20.55-3.4,30.69L502,302a1.27,1.27,0,0,0,.88.36c.54-.08.87-.81,1.07-1.44a40.7,40.7,0,0,0,1.37-10.36c.57-12.56,1.13-25.31-1.2-37.28a39.82,39.82,0,0,0-2.32-8,20.69,20.69,0,0,0-11.13-11.34c-4.13-1.59-10.34-2-14.46,1,.79,1.31,3.91,1.2,5.33,1.54A28.27,28.27,0,0,1,487.61,238.56Z"/><path class="cls-8" d="M480.91,264.69a21.23,21.23,0,0,1,7.24,5c2.46,2.78,4,6.57,5.45,10.27l11.25,28.27c-1.41,1.18-3.18,0-4.4-1.2a48.73,48.73,0,0,1-9.19-13c-1.62-3.34-2.94-6.91-4.65-10.18a74.93,74.93,0,0,0-9.06-12.67c-2.68-3.23-5.37-6.45-8-9.7C473.29,261.47,477.35,263.08,480.91,264.69Z"/><path class="cls-11" d="M517.32,265.83c-1.69,1.24-3.45,2.34-5.08,3.72-4.45,3.78-7.69,9.54-9.43,15.69a52.6,52.6,0,0,0-1.52,18.94c.19,2.09.78,4.56,2.47,4.92,1.29.27,2.63-.93,3.3-2.4a15.74,15.74,0,0,0,1-4.75c1-8.71,3.45-17.52,8.18-24.51,3.06-4.51,6.94-8.11,10.18-12.43a49.07,49.07,0,0,0,6.24-11.24c1.12-2.8,3.82-9,2.69-11.84-2.61,4.2-4.4,9.12-7.42,13.22A49.52,49.52,0,0,1,517.32,265.83Z"/><path class="cls-8" d="M449.06,312.76a1.49,1.49,0,0,1-.25.61c-.4.5-1.05.11-1.43-.32a14.64,14.64,0,0,1-3.34-9.81c0-2.16.49-4.32.65-6.48.51-6.82-2-11-5-15.9,4.11,0,7.5,8,8.78,11.9A36.18,36.18,0,0,1,449.06,312.76Z"/><path class="cls-8" d="M439.12,269.21a11.59,11.59,0,0,1,5.94,6.81,35.49,35.49,0,0,1,1,5.69c.35,2.4.92,4.72,1.21,7.13.85,7.06-.77,14.41-2.38,21.51l4.34,3.31a.89.89,0,0,0,.62.25c.38-.05.61-.56.75-1a29.16,29.16,0,0,0,.95-7.26c.4-8.8.79-17.74-.84-26.12a27.75,27.75,0,0,0-1.62-5.64,14.49,14.49,0,0,0-7.8-7.94c-2.9-1.12-7.25-1.42-10.13.66.55.93,2.74.85,3.73,1.09A18.55,18.55,0,0,1,439.12,269.21Z"/><path class="cls-8" d="M434.42,287.51a14.83,14.83,0,0,1,5.07,3.5,24.32,24.32,0,0,1,3.82,7.2l7.88,19.8c-1,.83-2.22,0-3.08-.84a34.08,34.08,0,0,1-6.44-9.16c-1.13-2.33-2.05-4.84-3.26-7.12a51,51,0,0,0-6.35-8.89c-1.87-2.26-3.76-4.51-5.62-6.79C429.08,285.26,431.92,286.39,434.42,287.51Z"/><path class="cls-11" d="M459.94,288.31c-1.19.87-2.43,1.64-3.57,2.61a22.63,22.63,0,0,0-6.61,11,37,37,0,0,0-1.06,13.26c.14,1.47.54,3.2,1.73,3.45.9.19,1.85-.65,2.31-1.68a11.18,11.18,0,0,0,.7-3.33c.68-6.1,2.41-12.28,5.73-17.17,2.14-3.17,4.86-5.68,7.13-8.71a34.33,34.33,0,0,0,4.38-7.88c.78-2,2.67-6.27,1.88-8.29-1.83,2.94-3.09,6.39-5.2,9.26A34.85,34.85,0,0,1,459.94,288.31Z"/><path class="cls-11" d="M399.13,268.86c-1.7,1.23-3.46,2.34-5.08,3.72-4.45,3.78-7.69,9.54-9.44,15.69a52.59,52.59,0,0,0-1.51,18.94c.19,2.09.77,4.55,2.47,4.91,1.28.28,2.63-.93,3.29-2.39a15.86,15.86,0,0,0,1-4.76c1-8.7,3.44-17.52,8.18-24.51,3.06-4.51,6.94-8.1,10.18-12.43a49.17,49.17,0,0,0,6.24-11.23c1.11-2.81,3.81-9,2.68-11.84-2.61,4.2-4.4,9.12-7.41,13.21A49.52,49.52,0,0,1,399.13,268.86Z"/><path class="cls-8" d="M241.7,313.6a3.41,3.41,0,0,0,.54,1.29c.84,1.05,2.2.24,3-.68,4.57-5.15,7.16-12.8,7-20.69-.08-4.56-1-9.11-1.36-13.67-1.07-14.38,4.27-23.19,10.6-33.52-8.67,0-15.82,16.93-18.5,25.1A76.27,76.27,0,0,0,241.7,313.6Z"/><path class="cls-8" d="M262.67,221.75a24.53,24.53,0,0,0-12.53,14.36c-1.2,3.79-1.47,8-2,12-.72,5.06-1.94,10-2.55,15-1.79,14.88,1.63,30.38,5,45.35l-9.15,7a1.8,1.8,0,0,1-1.3.53c-.8-.11-1.29-1.18-1.58-2.12-1.53-4.93-1.78-10.17-2-15.31-.85-18.56-1.68-37.4,1.76-55.08a58.59,58.59,0,0,1,3.43-11.89c3.41-7.94,9.38-14,16.45-16.75,6.1-2.36,15.28-3,21.36,1.41-1.17,2-5.78,1.77-7.87,2.28A41.28,41.28,0,0,0,262.67,221.75Z"/><path class="cls-8" d="M272.58,260.36a31.2,31.2,0,0,0-10.7,7.38c-3.63,4.1-5.88,9.69-8,15.17l-16.62,41.77c2.08,1.74,4.69,0,6.5-1.77a72.19,72.19,0,0,0,13.57-19.32c2.4-4.93,4.34-10.21,6.88-15,3.69-7,8.56-12.89,13.39-18.73,3.95-4.78,7.93-9.52,11.86-14.33C283.84,255.6,277.84,258,272.58,260.36Z"/><path class="cls-8" d="M218.77,262c2.51,1.83,5.11,3.46,7.51,5.5,6.58,5.59,11.36,14.1,13.94,23.19a77.75,77.75,0,0,1,2.24,28c-.28,3.09-1.14,6.74-3.65,7.27-1.9.4-3.89-1.38-4.87-3.54a23,23,0,0,1-1.46-7c-1.45-12.86-5.1-25.89-12.1-36.21-4.52-6.67-10.25-12-15-18.37a73.12,73.12,0,0,1-9.22-16.61c-1.65-4.14-5.64-13.23-4-17.49,3.86,6.21,6.51,13.48,11,19.53A73.45,73.45,0,0,0,218.77,262Z"/><path class="cls-8" d="M323.09,262.06c.32,13.91,4.72,27.43,7.08,41.15.84,4.86,2.49,10.67,7.27,11.93,2.1-7.81.55-16.07.07-24.14-.42-7.14,0-14.32-.73-21.43s-2.78-14.34-7.46-19.75c-3.14-3.62-17.31-9.72-22.2-9C307.33,246.48,322.81,250.07,323.09,262.06Z"/><path class="cls-8" d="M335.59,315.49c-3.64-5.06-3.71-11.9-2.45-18s3.65-12,4.48-18.15c.7-5.14.28-10.39,1.05-15.52s3-10.44,7.53-13c2.53-1.45,5.49-1.89,8.26-2.79s5.59-2.52,6.61-5.24c-2.27,6-2.21,9.82-8.87,12.94-6.06,2.84-6.71,4.67-8,11.84C341.2,283.5,338.45,299.51,335.59,315.49Z"/><path class="cls-11" d="M346.81,272.27a7.41,7.41,0,0,0-1.74,2.73,219.23,219.23,0,0,0-12.47,36.11c5.92.68,10.88-4.66,13.19-10.15,2.08-4.94,2.93-15,7.77-18.21,4.68-3.06,21.47,7.3,31.26,4.56C376.37,285.06,352.52,267.3,346.81,272.27Z"/><path class="cls-9" d="M234.82,280.73c-.24,10.47-3.55,20.64-5.32,30.95-.63,3.66-1.88,8-5.47,9-1.58-5.87-.41-12.08-.05-18.15.31-5.37,0-10.77.55-16.12s2.09-10.79,5.61-14.85c2.36-2.73,13-7.31,16.7-6.78C246.67,269,235,271.72,234.82,280.73Z"/><path class="cls-9" d="M225.42,320.92c2.74-3.81,2.79-8.95,1.85-13.55s-2.75-9-3.38-13.65c-.52-3.87-.21-7.81-.78-11.67s-2.28-7.85-5.67-9.79c-1.9-1.09-4.12-1.42-6.21-2.1s-4.2-1.89-5-3.94c1.71,4.53,1.66,7.39,6.67,9.73,4.56,2.14,5,3.51,6,8.9C221.2,296.86,223.27,308.9,225.42,320.92Z"/><path class="cls-11" d="M217,288.41a5.76,5.76,0,0,1,1.3,2,165.25,165.25,0,0,1,9.38,27.17c-4.45.51-8.18-3.51-9.92-7.64-1.56-3.71-2.2-11.31-5.84-13.7s-16.15,5.49-23.51,3.43C194.75,298,212.69,284.67,217,288.41Z"/><path class="cls-8" d="M262.67,271.9c.32,13.91,4.72,27.43,7.08,41.15.84,4.86,2.5,10.67,7.27,11.93,2.1-7.81.55-16.07.07-24.14-.42-7.14,0-14.32-.73-21.43s-2.78-14.35-7.46-19.75c-3.14-3.62-17.31-9.72-22.2-9C246.91,256.32,262.39,259.91,262.67,271.9Z"/><path class="cls-8" d="M275.17,325.33c-3.64-5.06-3.71-11.9-2.45-18s3.65-12,4.49-18.15c.69-5.14.27-10.39,1-15.53s3-10.43,7.53-13c2.53-1.45,5.49-1.89,8.26-2.79s5.59-2.52,6.62-5.24c-2.28,6-2.21,9.82-8.88,12.94-6.06,2.84-6.71,4.67-8,11.84C280.78,293.34,278,309.35,275.17,325.33Z"/><path class="cls-8" d="M285.35,282.8a7.64,7.64,0,0,0-1.58,2.82,220,220,0,0,0-10.45,36.75c5.95.35,10.61-5.26,12.61-10.87,1.8-5.05,2.09-15.18,6.75-18.61,4.5-3.32,21.84,6.09,31.46,2.82C315.58,293.93,290.78,277.52,285.35,282.8Z"/><path class="cls-8" d="M307.88,308.86a2.3,2.3,0,0,1-.36.87c-.57.71-1.49.16-2-.46a20.85,20.85,0,0,1-4.75-14c0-3.08.69-6.16.92-9.25.72-9.74-2.89-15.69-7.17-22.69,5.86,0,10.7,11.46,12.52,17A51.55,51.55,0,0,1,307.88,308.86Z"/><path class="cls-8" d="M293.69,246.7a16.62,16.62,0,0,1,8.48,9.72,51,51,0,0,1,1.39,8.13c.49,3.42,1.31,6.73,1.72,10.18,1.21,10.06-1.1,20.55-3.4,30.69l6.2,4.72a1.25,1.25,0,0,0,.88.36c.54-.08.87-.8,1.06-1.43a40.78,40.78,0,0,0,1.37-10.37c.57-12.55,1.13-25.31-1.2-37.27a38.82,38.82,0,0,0-2.32-8.05,20.61,20.61,0,0,0-11.13-11.33c-4.13-1.6-10.34-2-14.46.95.8,1.32,3.92,1.2,5.33,1.55A28,28,0,0,1,293.69,246.7Z"/><path class="cls-8" d="M287,272.83a20.86,20.86,0,0,1,7.24,5c2.46,2.78,4,6.56,5.46,10.27l11.24,28.27c-1.41,1.18-3.18,0-4.4-1.21a48.62,48.62,0,0,1-9.18-13.06c-1.63-3.34-2.94-6.92-4.66-10.18-2.49-4.74-5.79-8.72-9.06-12.68-2.68-3.23-5.37-6.44-8-9.69C279.37,269.61,283.42,271.22,287,272.83Z"/><path class="cls-11" d="M323.4,274c-1.7,1.24-3.46,2.34-5.09,3.72-4.44,3.78-7.68,9.54-9.43,15.69a52.59,52.59,0,0,0-1.51,18.94c.19,2.09.77,4.55,2.46,4.91,1.29.28,2.64-.93,3.3-2.39a15.86,15.86,0,0,0,1-4.76c1-8.7,3.45-17.52,8.19-24.5,3.06-4.52,6.94-8.11,10.17-12.44a48.83,48.83,0,0,0,6.25-11.23c1.11-2.81,3.81-9,2.68-11.84-2.61,4.2-4.4,9.12-7.42,13.21A49.52,49.52,0,0,1,323.4,274Z"/><path class="cls-8" d="M318.31,313.76a2.44,2.44,0,0,1-.27,1.09c-.62.94-2.09.52-3.05-.07a24,24,0,0,1-10.74-15c-.79-3.57-.75-7.26-1.29-10.87-1.72-11.39-8.56-17.43-16.64-24.51,8.37-1.32,18.5,10.76,22.65,16.72A51.43,51.43,0,0,1,318.31,313.76Z"/><path class="cls-8" d="M280.51,245.36c5.82,1.33,11.49,4.32,14.85,9.26,1.87,2.77,2.93,6,4.27,9.05,1.66,3.83,3.77,7.47,5.33,11.34,4.57,11.32,4.23,23.95,3.82,36.15l10.17,4a2.14,2.14,0,0,0,1.36.22c.75-.21,1-1.12,1.12-1.9.53-4.08-.23-8.21-1-12.26-2.73-14.6-5.53-29.43-12.23-42.69a44,44,0,0,0-5.58-8.74,31,31,0,0,0-19.08-10.52c-6.34-.9-15.32,0-20.35,4.4,1.5,1.34,5.92.49,8,.56A49.46,49.46,0,0,1,280.51,245.36Z"/><path class="cls-8" d="M278.33,277a34.76,34.76,0,0,1,11.73,4.1c4.29,2.64,7.53,6.66,10.68,10.59l24,30c-1.67,1.68-4.52.75-6.61-.38a66.92,66.92,0,0,1-16.79-13c-3.26-3.48-6.14-7.3-9.51-10.66-4.9-4.9-10.73-8.74-16.51-12.55-4.73-3.11-9.47-6.2-14.18-9.34C266.55,275,272.79,276,278.33,277Z"/><path class="cls-8" d="M330.59,270c-2.07,1.82-4.28,3.49-6.2,5.45a33.76,33.76,0,0,0-9,20.24,50.77,50.77,0,0,0,3.19,22.17c.86,2.37,2.39,5.08,4.91,5.11,1.91,0,3.49-1.68,4-3.52a15,15,0,0,0,.07-5.7c-1.07-10.26,0-21,4.75-30.12,3.09-5.9,7.61-10.93,11-16.65A50,50,0,0,0,349,252.6c.8-3.48,2.91-11.19.49-14.25-2.54,5.43-3.7,11.51-6.85,16.92A59,59,0,0,1,330.59,270Z"/><path class="cls-8" d="M368.51,307a3.37,3.37,0,0,0,.54,1.28c.84,1,2.2.24,3-.68,4.57-5.15,7.16-12.79,7-20.69-.08-4.55-1-9.1-1.36-13.66-1.07-14.39,4.27-23.19,10.6-33.52-8.67,0-15.82,16.92-18.5,25.09A76.31,76.31,0,0,0,368.51,307Z"/><path class="cls-8" d="M389.48,215.1A24.54,24.54,0,0,0,377,229.46c-1.2,3.78-1.47,8-2.05,12-.72,5-1.94,9.95-2.55,15-1.79,14.87,1.63,30.37,5,45.35l-9.15,7a1.81,1.81,0,0,1-1.3.54c-.8-.12-1.29-1.19-1.58-2.12-1.53-4.93-1.78-10.18-2-15.32-.85-18.55-1.68-37.4,1.76-55.08A58.59,58.59,0,0,1,368.52,225c3.41-7.93,9.38-14,16.45-16.74,6.1-2.36,15.28-3,21.36,1.4-1.17,2-5.78,1.78-7.87,2.29A41.27,41.27,0,0,0,389.48,215.1Z"/><path class="cls-8" d="M399.39,253.7a31.46,31.46,0,0,0-10.7,7.39c-3.63,4.1-5.88,9.69-8.05,15.17L364,318c2.08,1.74,4.69,0,6.5-1.78a72.14,72.14,0,0,0,13.57-19.31c2.4-4.93,4.34-10.21,6.88-15,3.69-7,8.56-12.9,13.39-18.74,4-4.77,7.93-9.52,11.86-14.32C410.65,249,404.65,251.33,399.39,253.7Z"/><path class="cls-8" d="M345.58,255.39c2.51,1.83,5.11,3.46,7.51,5.5,6.58,5.58,11.36,14.09,13.94,23.19a77.75,77.75,0,0,1,2.24,28c-.28,3.09-1.14,6.73-3.65,7.26-1.9.41-3.89-1.37-4.87-3.54a23,23,0,0,1-1.46-7c-1.45-12.86-5.1-25.89-12.1-36.22-4.52-6.66-10.25-12-15-18.37a72.51,72.51,0,0,1-9.22-16.6c-1.65-4.14-5.64-13.23-4-17.49,3.86,6.2,6.51,13.47,11,19.52A73.54,73.54,0,0,0,345.58,255.39Z"/><path class="cls-8" d="M449.9,255.4c.32,13.92,4.72,27.44,7.08,41.15.84,4.87,2.49,10.68,7.27,11.94,2.1-7.82.55-16.07.07-24.15-.42-7.13,0-14.31-.73-21.42s-2.78-14.35-7.46-19.75c-3.14-3.63-17.31-9.73-22.2-9C434.14,239.83,449.62,243.42,449.9,255.4Z"/><path class="cls-8" d="M462.4,308.84c-3.64-5.06-3.71-11.9-2.45-18s3.65-12,4.48-18.15c.7-5.15.28-10.4,1.05-15.53s3-10.44,7.53-13c2.53-1.44,5.49-1.88,8.26-2.79s5.59-2.51,6.61-5.24c-2.27,6-2.21,9.83-8.87,13C473,252,472.3,253.79,471,261,468,276.85,465.26,292.86,462.4,308.84Z"/><path class="cls-11" d="M473.62,265.62a7.46,7.46,0,0,0-1.74,2.72,220.6,220.6,0,0,0-12.47,36.12c5.92.68,10.88-4.66,13.19-10.16,2.08-4.93,2.93-15,7.77-18.21,4.68-3.06,21.47,7.3,31.26,4.57C503.18,278.4,479.33,260.65,473.62,265.62Z"/><path class="cls-9" d="M361.63,274.08c-.24,10.46-3.55,20.63-5.32,30.95-.63,3.66-1.88,8-5.47,9-1.58-5.88-.41-12.08,0-18.16.31-5.36,0-10.76.55-16.11S353.48,269,357,264.91c2.36-2.73,13-7.32,16.7-6.78C373.48,262.36,361.84,265.06,361.63,274.08Z"/><path class="cls-9" d="M352.23,314.27c2.74-3.81,2.79-8.95,1.85-13.55s-2.75-9-3.38-13.65c-.52-3.87-.21-7.82-.78-11.68s-2.28-7.85-5.67-9.79c-1.9-1.09-4.12-1.42-6.21-2.1s-4.2-1.89-5-3.94c1.71,4.54,1.66,7.39,6.67,9.74,4.56,2.13,5.05,3.51,6.05,8.9C348,290.21,350.08,302.24,352.23,314.27Z"/><path class="cls-8" d="M343.8,281.76a5.6,5.6,0,0,1,1.3,2.05A165.14,165.14,0,0,1,354.48,311c-4.45.51-8.18-3.5-9.92-7.64-1.56-3.71-2.2-11.31-5.84-13.69s-16.15,5.49-23.51,3.43C321.56,291.38,339.5,278,343.8,281.76Z"/><path class="cls-8" d="M402,318.68c-3.64-5.07-3.71-11.9-2.45-18s3.65-12,4.49-18.16c.69-5.14.27-10.39,1-15.52s3-10.44,7.53-13c2.53-1.44,5.49-1.88,8.26-2.79s5.59-2.51,6.62-5.24c-2.28,6-2.21,9.83-8.88,13-6.06,2.83-6.71,4.66-8,11.83C407.59,286.69,404.84,302.69,402,318.68Z"/><path class="cls-8" d="M434.69,302.2a2.41,2.41,0,0,1-.36.88c-.57.7-1.49.16-2.05-.47a20.75,20.75,0,0,1-4.75-14c.05-3.08.69-6.16.92-9.25.72-9.73-2.89-15.69-7.17-22.68,5.86,0,10.7,11.45,12.52,17A51.61,51.61,0,0,1,434.69,302.2Z"/><path class="cls-8" d="M420.5,240.05a16.59,16.59,0,0,1,8.48,9.72,50.67,50.67,0,0,1,1.39,8.12c.49,3.42,1.31,6.74,1.72,10.18,1.21,10.07-1.1,20.56-3.4,30.69l6.2,4.73a1.25,1.25,0,0,0,.88.36c.54-.08.87-.8,1.06-1.43a40.78,40.78,0,0,0,1.37-10.37c.57-12.56,1.13-25.31-1.2-37.27a38.82,38.82,0,0,0-2.32-8.05,20.61,20.61,0,0,0-11.13-11.33c-4.13-1.6-10.34-2-14.46.95.8,1.32,3.92,1.2,5.33,1.54A28,28,0,0,1,420.5,240.05Z"/><path class="cls-8" d="M413.79,266.17a21,21,0,0,1,7.24,5c2.46,2.78,4,6.56,5.46,10.26l11.24,28.27c-1.41,1.18-3.18,0-4.4-1.2a48.67,48.67,0,0,1-9.18-13.07c-1.63-3.34-2.94-6.91-4.66-10.17-2.49-4.74-5.79-8.73-9.06-12.68-2.68-3.23-5.37-6.44-8-9.69C406.18,263,410.23,264.57,413.79,266.17Z"/><path class="cls-8" d="M450.21,267.31c-1.7,1.24-3.46,2.34-5.09,3.72-4.44,3.78-7.68,9.54-9.43,15.7a52.54,52.54,0,0,0-1.51,18.93c.19,2.09.77,4.56,2.46,4.92,1.29.27,2.64-.93,3.3-2.4a15.44,15.44,0,0,0,1-4.75c1-8.7,3.45-17.52,8.19-24.51,3.06-4.51,6.94-8.1,10.18-12.43a49.45,49.45,0,0,0,6.24-11.24c1.11-2.8,3.81-8.95,2.68-11.83-2.61,4.2-4.4,9.11-7.42,13.21A49.47,49.47,0,0,1,450.21,267.31Z"/><path class="cls-8" d="M473.55,318.55a3.06,3.06,0,0,0,.46,1.12c.74.91,1.92.2,2.63-.6,4-4.48,6.24-11.13,6.12-18-.07-4-.89-7.93-1.19-11.9-.93-12.51,3.72-20.18,9.23-29.17-7.55,0-13.77,14.73-16.1,21.84A66.34,66.34,0,0,0,473.55,318.55Z"/><path class="cls-8" d="M491.8,238.61a21.36,21.36,0,0,0-10.91,12.5c-1,3.29-1.28,6.93-1.78,10.45-.63,4.4-1.69,8.66-2.22,13.09-1.56,12.94,1.42,26.44,4.37,39.47l-8,6.08a1.56,1.56,0,0,1-1.13.46c-.69-.1-1.12-1-1.37-1.84-1.33-4.29-1.55-8.86-1.76-13.33-.73-16.15-1.45-32.55,1.54-47.94a50.91,50.91,0,0,1,3-10.35c3-6.9,8.15-12.19,14.31-14.57,5.31-2.06,13.3-2.6,18.6,1.22-1,1.7-5,1.55-6.86,2A35.23,35.23,0,0,0,491.8,238.61Z"/><path class="cls-8" d="M500.42,272.21a27.12,27.12,0,0,0-9.31,6.42c-3.16,3.58-5.11,8.44-7,13.21l-14.47,36.35c1.82,1.52,4.09,0,5.66-1.54a62.84,62.84,0,0,0,11.82-16.81c2.09-4.29,3.77-8.89,6-13.09,3.21-6.09,7.45-11.22,11.66-16.3,3.44-4.15,6.9-8.29,10.32-12.47C510.22,268.07,505,270.14,500.42,272.21Z"/><path class="cls-8" d="M453.59,273.68c2.18,1.59,4.45,3,6.54,4.78,5.72,4.86,9.88,12.27,12.13,20.18A67.59,67.59,0,0,1,474.21,323c-.25,2.69-1,5.86-3.18,6.32-1.65.35-3.38-1.2-4.24-3.08a20.3,20.3,0,0,1-1.27-6.11c-1.26-11.2-4.44-22.54-10.53-31.53-3.93-5.8-8.92-10.42-13.09-16a63,63,0,0,1-8-14.46c-1.44-3.6-4.91-11.51-3.46-15.22,3.36,5.4,5.66,11.73,9.54,17A63.88,63.88,0,0,0,453.59,273.68Z"/><path class="cls-8" d="M409.62,311.26a3.47,3.47,0,0,1-.53,1.27c-.83,1-2.16.23-3-.67-4.49-5.07-7-12.59-6.91-20.36.08-4.48,1-9,1.34-13.45,1.05-14.15-4.2-22.81-10.43-33,8.53,0,15.56,16.65,18.2,24.69A74.9,74.9,0,0,1,409.62,311.26Z"/><path class="cls-8" d="M389,220.89A24.15,24.15,0,0,1,401.32,235c1.18,3.72,1.45,7.83,2,11.81.71,5,1.9,9.8,2.5,14.8,1.76,14.64-1.6,29.89-4.94,44.62l9,6.88a1.8,1.8,0,0,0,1.28.52c.78-.11,1.26-1.16,1.55-2.08,1.51-4.85,1.75-10,2-15.07.84-18.26,1.65-36.8-1.73-54.2a57.38,57.38,0,0,0-3.38-11.7c-3.35-7.8-9.22-13.78-16.18-16.48-6-2.32-15-2.93-21,1.39,1.15,1.92,5.68,1.75,7.74,2.25A40.14,40.14,0,0,1,389,220.89Z"/><path class="cls-8" d="M371.21,261.49a30.67,30.67,0,0,1,10.53,7.26c3.57,4,5.78,9.54,7.93,14.93L406,324.78c-2,1.72-4.62,0-6.4-1.74a71.21,71.21,0,0,1-13.35-19c-2.37-4.85-4.27-10-6.77-14.79-3.63-6.89-8.42-12.69-13.18-18.43-3.89-4.7-7.8-9.37-11.66-14.1C360.14,256.82,366,259.16,371.21,261.49Z"/><path class="cls-8" d="M432.18,260.53c-2.46,1.8-5,3.4-7.39,5.41-6.46,5.49-11.17,13.87-13.71,22.82a76.3,76.3,0,0,0-2.2,27.53c.27,3,1.12,6.63,3.58,7.15,1.88.4,3.83-1.36,4.8-3.49A23,23,0,0,0,418.7,313c1.42-12.65,5-25.47,11.9-35.63,4.44-6.56,10.09-11.79,14.8-18.08A71.61,71.61,0,0,0,454.47,243c1.62-4.07,5.55-13,3.91-17.21-3.8,6.11-6.4,13.26-10.79,19.22A71.78,71.78,0,0,1,432.18,260.53Z"/><path class="cls-8" d="M410.12,269.15c.32,13.91,4.73,27.43,7.09,41.15.83,4.86,2.49,10.67,7.26,11.93,2.1-7.82.55-16.07.08-24.14-.43-7.14,0-14.32-.74-21.43s-2.78-14.35-7.46-19.75c-3.14-3.62-17.3-9.72-22.2-9C394.37,253.57,409.85,257.16,410.12,269.15Z"/><path class="cls-8" d="M422.62,322.58c-3.64-5.06-3.7-11.9-2.45-18s3.66-12,4.49-18.15c.69-5.15.28-10.39,1-15.53s3-10.43,7.53-13c2.53-1.45,5.49-1.89,8.26-2.79s5.59-2.52,6.62-5.25c-2.28,6-2.21,9.83-8.88,13-6.06,2.84-6.71,4.67-8,11.84C428.23,290.59,425.48,306.6,422.62,322.58Z"/><path class="cls-8" d="M433.84,279.36a7.43,7.43,0,0,0-1.73,2.72,218.41,218.41,0,0,0-12.47,36.12c5.92.68,10.88-4.66,13.19-10.15,2.08-4.94,2.92-15.05,7.76-18.21,4.68-3.07,21.48,7.3,31.26,4.56C463.4,292.15,439.56,274.39,433.84,279.36Z"/><path class="cls-8" d="M381.45,267.86c.32,13.92,4.73,27.44,7.09,41.15.84,4.87,2.49,10.68,7.26,11.93,2.1-7.81.55-16.06.08-24.14-.43-7.13,0-14.31-.74-21.42s-2.78-14.35-7.46-19.75c-3.14-3.63-17.3-9.73-22.2-9C365.7,252.29,381.18,255.88,381.45,267.86Z"/><path class="cls-8" d="M404.14,278.77a7.32,7.32,0,0,0-1.58,2.81,218,218,0,0,0-10.45,36.76c5.95.34,10.6-5.26,12.6-10.88,1.81-5,2.09-15.18,6.75-18.61,4.5-3.31,21.85,6.1,31.46,2.82C434.36,289.89,409.57,273.48,404.14,278.77Z"/><path class="cls-1" d="M612.91,621.62v1A6.67,6.67,0,0,0,612.91,621.62Z"/><path class="cls-1" d="M613.28,627.47c0,.31.06.63.08.94C613.34,628.1,613.31,627.78,613.28,627.47Z"/><path class="cls-1" d="M613.31,600.54c0,.44-.1.87-.14,1.31C613.21,601.41,613.26,601,613.31,600.54Z"/><path class="cls-1" d="M612.83,606.57v.73C612.82,607.06,612.82,606.82,612.83,606.57Z"/><path class="cls-12" d="M162.48,336.67a56.08,56.08,0,0,0-.32,8.88,22.73,22.73,0,0,0,.7,4.33,19.09,19.09,0,0,0,1.67,4.05,44.81,44.81,0,0,1,2,4.05,12.2,12.2,0,0,1,.69,2.2c.06.38.17.76.21,1.14l.08,1.16a14.29,14.29,0,0,1-.68,4.54,20.29,20.29,0,0,1-2,4.11A35,35,0,0,1,159,378c-2.22,2-4.61,3.85-6.86,5.81a41.06,41.06,0,0,0-6.21,6.43,20.74,20.74,0,0,0-2.26,3.86,16.52,16.52,0,0,0-1.15,4.32,16.34,16.34,0,0,1,1.09-4.35,19.8,19.8,0,0,1,2.2-3.91,41,41,0,0,1,6.13-6.57c2.23-2,4.59-3.86,6.75-5.92a33.82,33.82,0,0,0,5.63-6.87,19.54,19.54,0,0,0,1.83-4,13.68,13.68,0,0,0,.58-4.31l-.1-1.08a5.55,5.55,0,0,0-.22-1.06,10,10,0,0,0-.68-2.06c-.58-1.35-1.34-2.62-2.06-3.95a20.11,20.11,0,0,1-1.81-4.21,23.71,23.71,0,0,1-.82-4.51,57.1,57.1,0,0,1,.18-9.06Z"/><path class="cls-12" d="M153,382.54c.88,2.66,3,4.7,5.27,6.51,1.13.92,2.29,1.81,3.39,2.79a23.16,23.16,0,0,1,3,3.26,32.86,32.86,0,0,1,4.36,7.61,58.22,58.22,0,0,1,2.67,8.34,58.35,58.35,0,0,0-2.9-8.24,33.58,33.58,0,0,0-4.52-7.4,32.48,32.48,0,0,0-6.46-5.76,27.36,27.36,0,0,1-3.33-2.94,11.4,11.4,0,0,1-2.43-3.83Z"/><path class="cls-12" d="M192.24,336.83a23.59,23.59,0,0,1-5.5,6.63c-2.11,1.9-4.33,3.63-6.24,5.63a20.27,20.27,0,0,0-2.56,3.21,16.49,16.49,0,0,0-1.73,3.71,26.67,26.67,0,0,0-1.16,8.18c.1,11.22,3.91,22.05,5.27,33.26a54.51,54.51,0,0,1,.42,8.47,28,28,0,0,1-1.29,8.38,14.69,14.69,0,0,1-4.71,7,26.36,26.36,0,0,1-7.52,3.89,62.77,62.77,0,0,0-7.78,3.22,24.46,24.46,0,0,0-6.52,5.24c-3.76,4.21-6.33,9.3-8.82,14.33,2.45-5.05,5-10.17,8.71-14.43a24.51,24.51,0,0,1,6.52-5.34,64.28,64.28,0,0,1,7.79-3.3,26.13,26.13,0,0,0,7.38-3.9,14.26,14.26,0,0,0,4.52-6.85,27.85,27.85,0,0,0,1.2-8.26,54.66,54.66,0,0,0-.5-8.38c-1.44-11.12-5.35-21.89-5.57-33.33a27.34,27.34,0,0,1,1.14-8.48,17.29,17.29,0,0,1,1.79-3.94,21.32,21.32,0,0,1,2.66-3.4c2-2.09,4.19-3.86,6.25-5.74a22.6,22.6,0,0,0,5.18-6.33Z"/><path class="cls-12" d="M200.75,336.46a16,16,0,0,1-.77,5.62,41.25,41.25,0,0,1-2.09,5.16c-1.55,3.3-3.08,6.63-3.18,10.24a43.89,43.89,0,0,0,1.51,10.74,46.4,46.4,0,0,1,1.4,10.94,101,101,0,0,1-.69,11c-.19,1.83-.38,3.65-.52,5.47a41.62,41.62,0,0,0-.2,5.47c.14,3.65.8,7.27,1.13,10.92a24.72,24.72,0,0,1-1,10.87,24.79,24.79,0,0,0,.81-10.86c-.38-3.64-1.09-7.24-1.28-10.92a42.2,42.2,0,0,1,.12-5.51c.13-1.83.29-3.65.45-5.48a105.17,105.17,0,0,0,.54-10.94,45.75,45.75,0,0,0-1.53-10.79c-.84-3.55-1.77-7.17-1.68-10.94a18.48,18.48,0,0,1,1-5.51,53.08,53.08,0,0,1,2.1-5.13c1.49-3.3,2.89-6.74,2.61-10.26Z"/><path class="cls-12" d="M181.64,413.12a17,17,0,0,0-2.56,7.29,32.71,32.71,0,0,0,.13,7.91c.65,5.28,2,10.54,2.58,15.91a123.11,123.11,0,0,1-.2,32.26c-.39,2.66-.79,5.33-1.42,8-.15.65-.34,1.32-.5,1.95a11.17,11.17,0,0,0-.16,2,14,14,0,0,1-.86,4c-1.85,5.18-5.7,9.17-8.13,13.93s-3.73,10.07-6.15,14.89a23.89,23.89,0,0,1-4.69,6.54,14.19,14.19,0,0,1-7,3.83,14.1,14.1,0,0,0,6.93-3.88,24.4,24.4,0,0,0,4.61-6.55c2.36-4.83,3.58-10.13,6-15s6.22-8.87,8-13.94a13.84,13.84,0,0,0,.81-3.87,12.15,12.15,0,0,1,.14-2l.49-2c.6-2.61,1-5.27,1.34-7.92a122.53,122.53,0,0,0-.1-32.07c-.64-5.32-2-10.51-2.73-15.89a33.93,33.93,0,0,1-.21-8.18,18.16,18.16,0,0,1,2.68-7.81Z"/><path class="cls-12" d="M163.87,426.77a14,14,0,0,0-4.36,5.16,18.82,18.82,0,0,0-1.7,6.63c-.22,2.31-.16,4.64-.15,7a62.87,62.87,0,0,1-.36,7,68.73,68.73,0,0,1-8.47,26.64,69,69,0,0,0,5.38-12.94,67.65,67.65,0,0,0,2.63-13.74,62.9,62.9,0,0,0,.25-7,69.27,69.27,0,0,1,0-7.06,19.44,19.44,0,0,1,1.66-6.92,14.77,14.77,0,0,1,4.53-5.54Z"/><path class="cls-12" d="M197.29,373.58a35.49,35.49,0,0,1,.28,4.49,18.59,18.59,0,0,1,0,2.24,14.46,14.46,0,0,1-.25,2.27,23.89,23.89,0,0,1-3.51,8.24c-.81,1.26-1.7,2.44-2.55,3.63L188.75,398c-1.67,2.41-3.29,4.84-4.76,7.36a60.65,60.65,0,0,0-6.71,16.1c-1.46,5.66-2.25,11.48-3.17,17.28A135.56,135.56,0,0,1,170.53,456a44.47,44.47,0,0,1-3.37,8.17c-1.4,2.59-3,5.06-4.64,7.5s-3.3,4.86-4.79,7.38a50.43,50.43,0,0,0-3.82,7.9,48.3,48.3,0,0,0-3.09,17.23,48.3,48.3,0,0,1,3-17.28,49.43,49.43,0,0,1,3.76-8c1.48-2.54,3.12-5,4.74-7.43a86.77,86.77,0,0,0,4.56-7.51,44,44,0,0,0,3.28-8.12,138.49,138.49,0,0,0,3.41-17.23c.87-5.8,1.6-11.64,3-17.37a61.39,61.39,0,0,1,6.66-16.37c1.47-2.56,3.08-5,4.74-7.46l2.53-3.62c.85-1.2,1.72-2.37,2.48-3.6a22.63,22.63,0,0,0,3.3-7.88,13.59,13.59,0,0,0,.21-2.11c0-.7,0-1.4-.06-2.16a34.07,34.07,0,0,0-.3-4.28Z"/><path class="cls-12" d="M181.86,476c-.8,2.47-.63,5.17-.7,7.87v1a3.42,3.42,0,0,0,.12.9,9.63,9.63,0,0,0,.76,1.78,15.48,15.48,0,0,0,2.27,3.24,16.48,16.48,0,0,0,3,2.59,8.78,8.78,0,0,1,2.83,2.92,10.38,10.38,0,0,1,1.16,3.88,29.67,29.67,0,0,1,.16,4c-.07-2.65-.17-5.47-1.54-7.78a8.62,8.62,0,0,0-2.83-2.74,17.29,17.29,0,0,1-3.17-2.55,15.73,15.73,0,0,1-2.45-3.29,9.55,9.55,0,0,1-.88-1.89,4,4,0,0,1-.18-1.09v-1c0-2.64-.3-5.42.49-8.16Z"/><path class="cls-12" d="M182.38,407.66a8,8,0,0,0-.23,5.32,13.36,13.36,0,0,0,2.64,4.87,18.94,18.94,0,0,0,4.2,3.74,47.68,47.68,0,0,0,5,2.76c3.42,1.69,7,3.27,9.95,5.79,1.46,1.27,2.75,2.69,4.21,3.93a11.17,11.17,0,0,0,4.94,2.79,11.2,11.2,0,0,1-5-2.69c-1.49-1.22-2.82-2.62-4.28-3.83-3-2.43-6.54-3.91-10-5.53a50.79,50.79,0,0,1-5.12-2.68,19.4,19.4,0,0,1-4.44-3.79,14.09,14.09,0,0,1-2.92-5.11,9.08,9.08,0,0,1,.15-6Z"/><path class="cls-12" d="M196.74,372.08a16.7,16.7,0,0,0,1.73,4,23.73,23.73,0,0,0,2.7,3.53c2,2.22,4.32,4.2,6.34,6.48a21.27,21.27,0,0,1,2.72,3.67,18.65,18.65,0,0,1,1,2c.28.7.56,1.41.81,2.12a16.94,16.94,0,0,0,2,4.12,11.09,11.09,0,0,0,3.36,3,11.42,11.42,0,0,1-3.47-2.9,17.69,17.69,0,0,1-2-4.07c-.28-.7-.57-1.4-.87-2.09a16.61,16.61,0,0,0-1.06-2,20.52,20.52,0,0,0-2.77-3.53c-2-2.19-4.4-4.1-6.52-6.3a24.28,24.28,0,0,1-2.9-3.58,17.43,17.43,0,0,1-2-4.23Z"/><path class="cls-12" d="M232.35,335.25a17.55,17.55,0,0,1,1.85,8.51,37.55,37.55,0,0,1-1.46,8.49c-1.5,5.5-3.6,10.8-4.23,16.36a21,21,0,0,0,.6,8.23c.72,2.68,1.84,5.43,1.77,8.42s-1,5.69-1.26,8.45a9.65,9.65,0,0,0,.27,4,7,7,0,0,0,.88,1.78,11.45,11.45,0,0,0,1.36,1.51,21.52,21.52,0,0,1,3,3.11,7.77,7.77,0,0,1,1.31,4.25c0,3-1.18,5.69-2.05,8.35a26.31,26.31,0,0,0-1.1,4,19.32,19.32,0,0,0-.19,4.16c.13,2.79.67,5.59.82,8.46a21.42,21.42,0,0,1-.16,4.31,26.33,26.33,0,0,1-1,4.19c-.88,2.73-2.07,5.32-3.2,7.91l-6.85,15.57-6.84,15.57c-2.23,5.2-4.79,10.31-6.1,15.8a29.33,29.33,0,0,0-.68,4.16c-.13,1.4-.11,2.81-.15,4.23a23.55,23.55,0,0,1-.39,4.27,11,11,0,0,1-1.7,3.94c-.8,1.19-1.73,2.27-2.41,3.49a11.35,11.35,0,0,0-1.31,4,26,26,0,0,0,.52,8.39c1.15,5.53,2.12,11.22,1.6,16.9a25.81,25.81,0,0,1-2.07,8.24,24.92,24.92,0,0,1-4.8,7c-3.89,4.15-8.65,7.35-12.54,11.48a27.63,27.63,0,0,0-4.88,6.91,15,15,0,0,0-1.51,8.24,15.1,15.1,0,0,1,1.47-8.26,28,28,0,0,1,4.86-6.94c3.89-4.15,8.63-7.38,12.49-11.53a24.86,24.86,0,0,0,4.74-7,25.75,25.75,0,0,0,2-8.19c.49-5.65-.5-11.29-1.68-16.82a26.4,26.4,0,0,1-.55-8.5,11.79,11.79,0,0,1,1.33-4.08c.7-1.26,1.63-2.35,2.41-3.51a10.44,10.44,0,0,0,1.62-3.82,22.59,22.59,0,0,0,.37-4.19c0-1.42,0-2.84.13-4.27a30.15,30.15,0,0,1,.68-4.22c1.3-5.58,3.85-10.7,6.05-15.91l6.77-15.6,6.78-15.6a81.78,81.78,0,0,0,3.14-7.85,21.61,21.61,0,0,0,1.07-8.25c-.16-2.8-.71-5.59-.86-8.46a20.22,20.22,0,0,1,.19-4.33,27.14,27.14,0,0,1,1.11-4.16c.88-2.69,2-5.35,2-8.08a6.82,6.82,0,0,0-1.17-3.76,21.23,21.23,0,0,0-2.92-3A12.47,12.47,0,0,1,230,400a8,8,0,0,1-1-2,10.56,10.56,0,0,1-.33-4.4c.3-2.88,1.18-5.61,1.21-8.36s-1-5.38-1.77-8.14a20.77,20.77,0,0,1-.76-4.28,25.07,25.07,0,0,1,.1-4.33c.64-5.76,2.74-11.11,4.19-16.54a35.87,35.87,0,0,0,1.38-8.23,16.23,16.23,0,0,0-1.75-7.92Z"/><path class="cls-12" d="M256.09,336.69c-1.9,1.47-2.65,4-2.68,6.53a32.87,32.87,0,0,0,1.16,7.57,16.88,16.88,0,0,1,.24,7.9,17.22,17.22,0,0,1-3.86,6.87c-1.7,2-3.6,3.78-5.38,5.67a26.3,26.3,0,0,0-4.6,6.19,23.73,23.73,0,0,0-2.13,7.43,74.72,74.72,0,0,0-.52,7.77,75.09,75.09,0,0,1,.37-7.79,24.4,24.4,0,0,1,2-7.54,26.49,26.49,0,0,1,4.54-6.37c1.76-1.93,3.62-3.75,5.25-5.74a16.52,16.52,0,0,0,3.6-6.66,16.31,16.31,0,0,0-.4-7.54,33.62,33.62,0,0,1-1.33-7.78,11.83,11.83,0,0,1,.63-4,7.87,7.87,0,0,1,2.35-3.44Z"/><path class="cls-12" d="M228.56,373.68a15,15,0,0,1-.47,6,33.52,33.52,0,0,1-2.08,5.56c-.84,1.78-1.81,3.48-2.73,5.2l-2.79,5.17,2.52-5.3c.83-1.77,1.72-3.52,2.45-5.32a31.35,31.35,0,0,0,1.75-5.52,13.68,13.68,0,0,0,.17-5.59Z"/><path class="cls-12" d="M252.08,364.48a5.81,5.81,0,0,1-.68,2.11c-.35.64-.76,1.18-1.09,1.73a6.66,6.66,0,0,0-.74,1.71,12.24,12.24,0,0,0-.36,1.9,6,6,0,0,0,.68,3.65,6.86,6.86,0,0,0,2.93,2.4,19.48,19.48,0,0,1,6.48,4.83c.91,1,1.58,2.19,2.48,3.17a5.63,5.63,0,0,0,1.52,1.27,2.42,2.42,0,0,0,1.93.2,2.41,2.41,0,0,1-2-.13,5.38,5.38,0,0,1-1.6-1.24c-.95-1-1.67-2.12-2.6-3.07a19,19,0,0,0-6.52-4.5,7.52,7.52,0,0,1-3.3-2.54,6.7,6.7,0,0,1-.93-4.1,11.23,11.23,0,0,1,.31-2.08,7.6,7.6,0,0,1,.77-2c.34-.62.73-1.16,1-1.72a4.27,4.27,0,0,0,.49-1.71Z"/><path class="cls-12" d="M285,335.62a44.29,44.29,0,0,0-8.73,23.67,45.44,45.44,0,0,0,.08,6.39c.19,2.13.53,4.24.92,6.36a103.4,103.4,0,0,1,2,12.87,47.06,47.06,0,0,1-1.41,13c-.94,4.23-2.1,8.39-2.72,12.63-1.29,8.5-.86,17.17-.6,25.79.15,4.32.18,8.66,0,13s-.46,8.65-.85,12.95c-.81,8.62-2,17.19-3,25.76a239.35,239.35,0,0,0-1.88,25.8c.05,8.61,1.84,17.13,2.41,25.77s-.32,17.32-.65,25.93c-.5,8.63.54,17.23,1.25,25.84s1.52,17.22,1.83,25.86c.15,4.32.19,8.65.06,13-.08,2.16-.14,4.33-.38,6.48s-.54,4.29-.89,6.43c-.69,4.26-1.49,8.51-1.83,12.81a51.47,51.47,0,0,0-.28,6.45,8.68,8.68,0,0,0,2.26,5.83,48.08,48.08,0,0,0,4.55,4.59c1.62,1.43,3.47,2.56,5.14,3.94A11.7,11.7,0,0,1,286,682a20.18,20.18,0,0,1,.92,6.41c0,4.31-.6,8.68.45,12.89.07.26.12.53.2.78l.29.76c.1.25.19.5.3.75l.39.7a9.89,9.89,0,0,0,1.94,2.56,25.25,25.25,0,0,0,5.26,3.74,50.39,50.39,0,0,1,5.5,3.42c1.73,1.3,3.3,2.79,4.9,4.24a36.35,36.35,0,0,0,5.08,4,12.55,12.55,0,0,0,6.08,2,12.58,12.58,0,0,1-6.09-2,34.48,34.48,0,0,1-5.09-4c-1.61-1.44-3.19-2.92-4.92-4.21a50.9,50.9,0,0,0-5.5-3.41,26,26,0,0,1-5.29-3.73,10.45,10.45,0,0,1-2-2.58l-.4-.71c-.11-.25-.2-.5-.3-.75l-.29-.76c-.09-.26-.14-.53-.21-.79-1.07-4.24-.44-8.63-.49-12.92a20.17,20.17,0,0,0-.93-6.36,11.36,11.36,0,0,0-3.7-5.15c-1.66-1.37-3.52-2.5-5.15-3.93a48.5,48.5,0,0,1-4.58-4.6,7.5,7.5,0,0,1-1.73-2.76,11.62,11.62,0,0,1-.61-3.2,52.1,52.1,0,0,1,.26-6.49c.32-4.32,1.11-8.58,1.79-12.84.34-2.13.66-4.27.87-6.41s.29-4.3.36-6.46c.12-4.31.07-8.63-.1-13-.33-8.62-1.11-17.23-1.89-25.83-.4-4.31-.79-8.61-1.13-12.92a108.47,108.47,0,0,1-.2-13c.31-8.64,1.18-17.26.58-25.86s-2.41-17.11-2.49-25.81a238.36,238.36,0,0,1,1.8-25.89c1-8.59,2.12-17.16,2.9-25.75.37-4.3.69-8.6.81-12.91s.08-8.61-.08-12.93c-.28-8.61-.74-17.33.54-26,.62-4.32,1.77-8.51,2.69-12.71a46,46,0,0,0,1.35-12.7,99.7,99.7,0,0,0-2-12.73c-.4-2.13-.75-4.28-.95-6.46a46.32,46.32,0,0,1-.1-6.56,45.41,45.41,0,0,1,9-24.28Z"/><path class="cls-12" d="M250.5,376.1a6.23,6.23,0,0,1-.16,4,18,18,0,0,1-1.82,3.4,23.63,23.63,0,0,0-1.86,3.24,7,7,0,0,0-.63,3.64,7.16,7.16,0,0,1,.35-3.75A24.39,24.39,0,0,1,248,383.2a17.42,17.42,0,0,0,1.48-3.37,5.22,5.22,0,0,0-.11-3.38Z"/><path class="cls-12" d="M278.36,377.61a8.52,8.52,0,0,1-1.15,5.17,9.33,9.33,0,0,1-4.13,3.24c-1.56.73-3.14,1.22-4.61,2L264,390.17l-18,8.77-9,4.39-4.51,2.19c-1.5.73-3,1.47-4.42,2.34a18.49,18.49,0,0,0-6.85,7.08,23.71,23.71,0,0,0-2.8,9.54,23.75,23.75,0,0,1,2.67-9.61,18.73,18.73,0,0,1,6.83-7.27c1.42-.89,2.91-1.66,4.4-2.42l4.48-2.26,9-4.51,17.91-9,4.48-2.26c1.52-.79,3.13-1.33,4.59-2a8.25,8.25,0,0,0,3.63-2.9,7.34,7.34,0,0,0,.91-4.47Z"/><path class="cls-12" d="M277,401.87a15.69,15.69,0,0,1-3.2,6.13,32.31,32.31,0,0,1-4.82,4.75A86.7,86.7,0,0,1,257.75,420a54.69,54.69,0,0,0-5.48,3.69,59,59,0,0,0-4.85,4.5,39.86,39.86,0,0,1-5,4.45,17.85,17.85,0,0,1-6.13,2.79c-2.18.57-4.39.86-6.57,1.26a36,36,0,0,0-6.38,1.73,33.7,33.7,0,0,0-5.93,2.93,32.59,32.59,0,0,0-5.28,4,34.24,34.24,0,0,0-7.89,10.59c-.45,1-.9,2-1.27,3.07l-1.12,3.14a15.13,15.13,0,0,1-3.35,5.71,15.2,15.2,0,0,0,3.28-5.73l1.09-3.15c.35-1.06.8-2.08,1.24-3.1a35.39,35.39,0,0,1,19-17.88,36.2,36.2,0,0,1,6.45-1.83c2.19-.42,4.38-.74,6.51-1.32a17.38,17.38,0,0,0,5.89-2.76,40.25,40.25,0,0,0,4.9-4.42,55.89,55.89,0,0,1,4.87-4.62,52,52,0,0,1,5.52-3.81c3.81-2.33,7.68-4.49,11-7.33a32.09,32.09,0,0,0,4.6-4.65,14.47,14.47,0,0,0,2.89-5.65Z"/><path class="cls-12" d="M278.38,378.91a7.74,7.74,0,0,0,1.31,4.83,17.44,17.44,0,0,0,3.41,4.1c1.36,1.17,2.91,2.15,4.4,3.22a19.15,19.15,0,0,1,4.06,3.67,18.84,18.84,0,0,0-4.23-3.42c-1.54-1-3.13-1.88-4.61-3a18.19,18.19,0,0,1-3.79-4.09,8.66,8.66,0,0,1-1.74-5.46Z"/><path class="cls-12" d="M275.9,404.73a23.8,23.8,0,0,1-4.25,10.91,36.48,36.48,0,0,1-3.65,4.58c-1.34,1.43-2.8,2.71-4.25,4-2.88,2.51-5.88,5-7.62,8.33a13.25,13.25,0,0,0-1.45,5.33,33.83,33.83,0,0,0,.24,5.69c.19,1.9.42,3.83.45,5.79a17.71,17.71,0,0,1-.86,5.82c-1.26,3.75-3.61,6.94-5.93,10a101.89,101.89,0,0,1-7.52,8.81c-1.33,1.39-2.74,2.72-4.16,4a37.83,37.83,0,0,1-4.46,3.73,12.5,12.5,0,0,1-2.62,1.35c-.9.31-1.79.66-2.66,1.06a31.18,31.18,0,0,0-4.93,2.89,78.64,78.64,0,0,0-8.71,7.5l-4.23,3.94c-1.41,1.31-2.8,2.65-4.31,3.84a34.54,34.54,0,0,0-4.18,3.93,19.92,19.92,0,0,0-3,4.85c-1.58,3.5-2.43,7.28-3.74,10.9a41,41,0,0,1-5.42,10.18,42.7,42.7,0,0,1-17.86,14.21,42.56,42.56,0,0,0,17.74-14.29,41.31,41.31,0,0,0,5.33-10.17c1.28-3.62,2.11-7.4,3.67-10.95a20.52,20.52,0,0,1,3-4.95,35.29,35.29,0,0,1,4.2-4c1.5-1.21,2.88-2.55,4.28-3.87l4.19-3.95a77.92,77.92,0,0,1,8.72-7.61,32.46,32.46,0,0,1,5-3,28.8,28.8,0,0,1,2.7-1.1,11.57,11.57,0,0,0,2.49-1.3,35.73,35.73,0,0,0,4.35-3.7c1.42-1.31,2.8-2.62,4.12-4a101.9,101.9,0,0,0,7.4-8.8c2.3-3.05,4.57-6.2,5.75-9.79a17.1,17.1,0,0,0,.78-5.55,53,53,0,0,0-.49-5.71,35.65,35.65,0,0,1-.27-5.84,14.27,14.27,0,0,1,1.52-5.72c1.85-3.57,4.94-6.14,7.79-8.67,1.44-1.27,2.86-2.54,4.15-3.93a35.13,35.13,0,0,0,3.51-4.46,22.66,22.66,0,0,0,4-10.39Z"/><path class="cls-12" d="M215.66,442.81a23.07,23.07,0,0,1-8.4,4.27,79.72,79.72,0,0,0-8.8,2.95,19.51,19.51,0,0,0-3.93,2.4,17.08,17.08,0,0,0-3.16,3.36,17.78,17.78,0,0,0-3.3,8.57,18,18,0,0,1,6.24-12.19,19.6,19.6,0,0,1,3.95-2.55,80,80,0,0,1,8.78-3.19,22.26,22.26,0,0,0,8-4.3Z"/><path class="cls-12" d="M234.32,480.49a9.79,9.79,0,0,0-4.11,5.07,21.48,21.48,0,0,0-1.14,6.74c-.06,2.32,0,4.67.09,7s.37,4.66.54,7a51.83,51.83,0,0,1,.14,7.05,26.43,26.43,0,0,1-1.35,6.93A60.42,60.42,0,0,1,222,532.73c2.39-4,4.8-8.09,6.21-12.55s1.36-9.2.9-13.83c-.22-2.33-.52-4.65-.7-7s-.25-4.69-.24-7.06a22.38,22.38,0,0,1,1.05-7.08A12.77,12.77,0,0,1,231,482a12.44,12.44,0,0,1,2.73-2.49Z"/><path class="cls-12" d="M228.17,453.69a26.67,26.67,0,0,0-2.78,9.6,69.07,69.07,0,0,0-.24,10.17c.12,3.41.32,6.84.3,10.28a43.67,43.67,0,0,1-1,10.26,26.22,26.22,0,0,1-4.41,9.3,44.73,44.73,0,0,0-2.76,4.3,27.67,27.67,0,0,0-2,4.69c-1.09,3.22-2.06,6.59-4.06,9.41a31.43,31.43,0,0,0-2.64,4.38,7,7,0,0,0-.67,2.45,4.32,4.32,0,0,0,.56,2.46,4.33,4.33,0,0,1-.6-2.46,7.1,7.1,0,0,1,.64-2.48,31.69,31.69,0,0,1,2.58-4.44c2-2.83,2.86-6.17,3.91-9.42a28.47,28.47,0,0,1,2-4.77c.81-1.52,1.78-2.94,2.72-4.37a26,26,0,0,0,4.2-9.19,43.53,43.53,0,0,0,.89-10.12c0-3.41-.29-6.82-.46-10.24a71.24,71.24,0,0,1,.1-10.33,27.68,27.68,0,0,1,2.76-10Z"/><path class="cls-12" d="M272.87,471.75c-.74,1.86-1.26,3.83-1.85,5.8a15.07,15.07,0,0,1-2.72,5.71c-2.8,3.19-6.42,5.27-9.45,7.95a58.87,58.87,0,0,0-14.79,19.22c-3.63,7.34-5.06,15.5-7,23.44a66.74,66.74,0,0,1-3.82,11.68,31.17,31.17,0,0,1-7,10,31,31,0,0,0,6.85-10.09,66.61,66.61,0,0,0,3.67-11.69c1-4,1.75-8,2.75-12a63,63,0,0,1,4-11.64,59.42,59.42,0,0,1,14.74-19.65c3.08-2.76,6.65-4.91,9.24-8a13.85,13.85,0,0,0,2.44-5.33c.56-2,1.07-4,1.82-5.93Z"/><path class="cls-12" d="M269.06,518.21c-1.37,4-3.57,7.58-5.25,11.31-.83,1.85-1.51,3.84-2.42,5.72a32.65,32.65,0,0,1-3.13,5.44c-2.34,3.55-5.68,6.16-8.5,9.12a25.06,25.06,0,0,0-3.74,4.83,34.7,34.7,0,0,0-2.51,5.6c-1.4,3.88-2.41,7.93-4.25,11.69a22.1,22.1,0,0,1-3.47,5.19,30.48,30.48,0,0,1-4.67,4.12c-3.34,2.47-6.93,4.55-10.07,7.25a31.35,31.35,0,0,0-7.56,9.74,31.57,31.57,0,0,1,7.46-9.85c3.12-2.75,6.7-4.88,10-7.38a30.35,30.35,0,0,0,4.57-4.13,21.06,21.06,0,0,0,3.35-5.14C240.63,568,241.59,564,243,560a35.13,35.13,0,0,1,2.5-5.73,25.83,25.83,0,0,1,3.77-5c2.85-3,6.1-5.66,8.31-9.11a32.18,32.18,0,0,0,3-5.34c.87-1.86,1.5-3.79,2.34-5.74,1.67-3.83,3.82-7.4,5.07-11.26Z"/><path class="cls-12" d="M255.58,494.46a12.49,12.49,0,0,1-4.45,3.41,27.87,27.87,0,0,1-5.18,1.8c-3.52.91-7.12,1.29-10.6,2.06a30.36,30.36,0,0,0-5.1,1.57,14.15,14.15,0,0,0-4.46,2.85,10.72,10.72,0,0,0-2.79,4.48,24.89,24.89,0,0,0-1,5.27,25.1,25.1,0,0,1,.9-5.31,11.22,11.22,0,0,1,2.72-4.66,14.65,14.65,0,0,1,4.5-3,29.35,29.35,0,0,1,5.14-1.74c3.51-.88,7.08-1.36,10.51-2.35a27.24,27.24,0,0,0,4.94-1.86,11.5,11.5,0,0,0,4-3.19Z"/><path class="cls-12" d="M275.09,406.12c-1.31,8.71-.16,17.6,1.88,26.18,1,4.3,2.23,8.57,3.4,12.85.59,2.13,1.18,4.28,1.73,6.43l.86,3.2c.34,1.05.63,2.11,1,3.13a42.38,42.38,0,0,0,2.68,6,37.17,37.17,0,0,0,3.6,5.5,54.08,54.08,0,0,0,9.44,9.2c1.73,1.37,3.53,2.66,5.33,4l5.36,3.93c3.58,2.64,7.12,5.31,10.61,8.06a183.71,183.71,0,0,1,19.84,17.77,80.47,80.47,0,0,1,14.69,22.13c3.69,8.09,6.39,16.57,9.27,25a143.49,143.49,0,0,0,10.48,24.42,143.6,143.6,0,0,1-10.62-24.37c-2.93-8.37-5.67-16.83-9.4-24.88a80.39,80.39,0,0,0-14.75-21.94,182.66,182.66,0,0,0-19.88-17.61c-3.49-2.72-7.05-5.37-10.63-8l-5.39-3.91c-1.8-1.29-3.61-2.58-5.37-3.95A54.25,54.25,0,0,1,289.6,470a38,38,0,0,1-3.72-5.59,43.08,43.08,0,0,1-2.76-6.12c-.42-1-.72-2.12-1.07-3.18l-.89-3.22c-.56-2.14-1.15-4.28-1.75-6.41-1.2-4.27-2.44-8.54-3.49-12.87-2.1-8.62-3.33-17.66-2-26.59Z"/><path class="cls-12" d="M278.65,390.84a52.41,52.41,0,0,1,6,6.8,19.46,19.46,0,0,1,2.39,3.93A15.35,15.35,0,0,1,288.2,406a53.74,53.74,0,0,1-.11,9.06,27.58,27.58,0,0,0,.59,8.83,11.39,11.39,0,0,0,4.82,7.1c1.26.77,2.66,1.33,4,2a8.91,8.91,0,0,1,3.5,3,31.53,31.53,0,0,1,2.07,4,12.7,12.7,0,0,0,1.16,1.9,13,13,0,0,0,1.52,1.63c2.14,2.06,4.5,4.12,7.47,4.8-3-.63-5.4-2.66-7.57-4.69a13.35,13.35,0,0,1-1.57-1.62,11.94,11.94,0,0,1-1.21-1.92,31.12,31.12,0,0,0-2.12-3.94,8.44,8.44,0,0,0-3.4-2.75c-1.32-.67-2.73-1.2-4.05-2a10.17,10.17,0,0,1-3.3-3.16,14.23,14.23,0,0,1-1.87-4.17,28.7,28.7,0,0,1-.76-9,53,53,0,0,0,0-8.91,14.83,14.83,0,0,0-1.16-4.19,18.42,18.42,0,0,0-2.34-3.69,52.52,52.52,0,0,0-6-6.56Z"/><path class="cls-12" d="M270.88,558.93c.55,6.23,3.17,12.09,6.6,17.31s7.57,10,11.42,15.07,7.48,10.38,9.3,16.53a30.18,30.18,0,0,1,1.27,9.44,38.32,38.32,0,0,1-1.54,9.39c-.83,3-1.74,6.09-1.65,9.22a19.07,19.07,0,0,0,3,8.79c1.53,2.74,3.26,5.49,4,8.61a43,43,0,0,1,1.45,9.37c.41,6.32,0,12.65.59,18.94a41.32,41.32,0,0,0,1.75,9.28,26.73,26.73,0,0,0,4.5,8.27A26.89,26.89,0,0,1,307,690.9a41.41,41.41,0,0,1-1.82-9.29c-.58-6.3-.26-12.64-.71-18.93a43.69,43.69,0,0,0-1.5-9.3c-.72-3.08-2.44-5.77-4-8.51a19.43,19.43,0,0,1-3.07-9c-.12-3.23.8-6.34,1.6-9.37a37.81,37.81,0,0,0,1.46-9.27,29.57,29.57,0,0,0-1.31-9.25c-1.82-6-5.44-11.29-9.29-16.24s-8.06-9.74-11.57-15-6.25-11.27-6.87-17.7Z"/><path class="cls-12" d="M327.53,583.77a17,17,0,0,1,.69,9.4,44.23,44.23,0,0,1-2.64,9c-1.15,2.92-2.63,5.66-3.58,8.61a48.93,48.93,0,0,0-2.15,9c-.91,6.16-.25,12.41.25,18.6s.8,12.54-.92,18.57c1.65-6,1.29-12.38.73-18.55s-1.29-12.45-.44-18.67a49.2,49.2,0,0,1,2.08-9.14c.49-1.48,1.05-3,1.68-4.38s1.26-2.84,1.82-4.29a43.63,43.63,0,0,0,2.51-8.9,16.34,16.34,0,0,0-.72-9Z"/><path class="cls-12" d="M313.46,334.66a58.55,58.55,0,0,0-6.53,15.39,41.38,41.38,0,0,0-1.22,8.28,81.56,81.56,0,0,0,.23,8.42,54.69,54.69,0,0,1,0,8.49,28.55,28.55,0,0,1-.76,4.19,37.84,37.84,0,0,1-1.39,4c-1.06,2.62-2.31,5.16-3.14,7.85a17.35,17.35,0,0,0-.57,8.34,17.37,17.37,0,0,1,.43-8.38c.78-2.73,2-5.29,3-7.92a35.26,35.26,0,0,0,1.31-4,27.48,27.48,0,0,0,.67-4.14,51.34,51.34,0,0,0-.14-8.41c-.2-2.8-.46-5.63-.38-8.48a42.35,42.35,0,0,1,1.1-8.46,59.89,59.89,0,0,1,6.36-15.78Z"/><path class="cls-12" d="M342.47,336.11a44,44,0,0,1,.76,5.95,15.77,15.77,0,0,1-.77,6.06,19.72,19.72,0,0,1-3.16,5.17,19.64,19.64,0,0,0-2.65,5.1,29.7,29.7,0,0,0-1.35,11.5,84.67,84.67,0,0,0,1.8,11.63,93.36,93.36,0,0,1,1.9,11.75,58.54,58.54,0,0,1-.29,11.91A59.34,59.34,0,0,1,336,416.79a82.86,82.86,0,0,1-4.75,10.89,38.11,38.11,0,0,0-3.9,11.05,23.77,23.77,0,0,0,0,5.84,30.42,30.42,0,0,0,1.32,5.72,52.67,52.67,0,0,0,5.24,10.55c1,1.67,2.13,3.32,3.26,4.94s2.29,3.23,3.28,4.94c.51.85,1,1.69,1.57,2.51a10.35,10.35,0,0,0,1.89,2.23,55.44,55.44,0,0,1,4.08,4.32,35.92,35.92,0,0,1,6.36,10,21.17,21.17,0,0,1,1.43,5.75,45.13,45.13,0,0,1,.13,5.93,53.16,53.16,0,0,0,.09,5.92,15.45,15.45,0,0,0,1.54,5.68,15.65,15.65,0,0,1-1.58-5.68,53.17,53.17,0,0,1-.12-5.92,46.62,46.62,0,0,0-.17-5.91,20.86,20.86,0,0,0-1.46-5.71,35.87,35.87,0,0,0-6.39-9.88,56.84,56.84,0,0,0-4.09-4.27,13.13,13.13,0,0,1-1.05-1.06c-.33-.39-.61-.8-.89-1.2-.56-.82-1.08-1.67-1.6-2.51-1-1.7-2.15-3.29-3.29-4.91s-2.24-3.26-3.31-4.93a52.49,52.49,0,0,1-5.34-10.61,32.23,32.23,0,0,1-1.39-5.8,25.09,25.09,0,0,1,0-6,38.35,38.35,0,0,1,3.88-11.24,82.37,82.37,0,0,0,4.65-10.85,58.46,58.46,0,0,0,2.75-23.23,91.59,91.59,0,0,0-1.93-11.63A87.72,87.72,0,0,1,334.33,370a30.35,30.35,0,0,1,1.33-11.9,20.66,20.66,0,0,1,2.76-5.39,18.6,18.6,0,0,0,3-4.91,14.71,14.71,0,0,0,.68-5.63,47.25,47.25,0,0,0-.78-5.8Z"/><path class="cls-12" d="M383.77,337a36,36,0,0,0-1.73,5.64,11.09,11.09,0,0,0,.28,5.66,33.64,33.64,0,0,0,2.61,5.28l2.94,5.24,5.88,10.49,2.94,5.23a12.65,12.65,0,0,0,3.7,4.42c.79.57,1.64,1.07,2.51,1.58s1.71,1.06,2.57,1.6a45.38,45.38,0,0,1,4.77,3.74,44.25,44.25,0,0,1,12.88,20.21c1.14,3.88,1.65,7.88,2.66,11.73a26.91,26.91,0,0,0,2,5.58,13.4,13.4,0,0,0,3.67,4.55c1.5,1.26,3.48,1.87,5.06,3.24a5.93,5.93,0,0,1,1.73,2.56,13.88,13.88,0,0,1,.6,3c.81,8-.89,16.06.2,24,.13,1,.33,2,.54,2.94s.57,1.92.75,2.92a22.64,22.64,0,0,0,.47,2.95,14.68,14.68,0,0,0,1,2.81c1.67,3.67,4.79,6.35,7.62,9.15a32.73,32.73,0,0,1,3.94,4.54,25.66,25.66,0,0,1,2.68,5.37,55.85,55.85,0,0,0,2.34,5.53,16,16,0,0,0,1.63,2.52,11,11,0,0,0,2.2,2,11.72,11.72,0,0,1-2.22-2,14.84,14.84,0,0,1-1.64-2.51A55.6,55.6,0,0,1,456,491.4a26,26,0,0,0-2.7-5.34,32.18,32.18,0,0,0-4-4.49c-1.43-1.4-2.91-2.76-4.27-4.23a19.85,19.85,0,0,1-3.44-4.93,15.06,15.06,0,0,1-1-2.85,25.34,25.34,0,0,1-.49-3c-.18-1-.51-1.92-.76-2.89a27.37,27.37,0,0,1-.57-3c-1.14-8,.51-16.06-.35-24-.2-2-.67-4-2.2-5.24s-3.47-1.88-5.06-3.19a14,14,0,0,1-3.85-4.7,27.37,27.37,0,0,1-2.1-5.69c-1-3.89-1.58-7.88-2.73-11.69a43.19,43.19,0,0,0-5-10.76,41.32,41.32,0,0,0-3.57-4.76,41.73,41.73,0,0,0-4.17-4.24,46.08,46.08,0,0,0-4.71-3.63c-.84-.53-1.67-1.07-2.54-1.56a24.56,24.56,0,0,1-2.58-1.62,11.2,11.2,0,0,1-2.28-2.12,18.91,18.91,0,0,1-1.71-2.55l-3-5.23L387,359.31l-3-5.23a32,32,0,0,1-2.73-5.46,12.12,12.12,0,0,1-.36-6.21,35.14,35.14,0,0,1,1.75-5.85Z"/><path class="cls-12" d="M335.44,368.75a11.49,11.49,0,0,1-4.42,4.54c-1.72,1.12-3.42,2.2-5.09,3.37a34.43,34.43,0,0,0-8.77,8.21,22.45,22.45,0,0,0-2.71,5.38,41.19,41.19,0,0,1-2.38,5.65,19,19,0,0,1-8.95,8.07,18.84,18.84,0,0,0,8.69-8.21A40.87,40.87,0,0,0,314,390.1a23.43,23.43,0,0,1,2.64-5.56,35.26,35.26,0,0,1,8.75-8.61c1.65-1.22,3.35-2.36,5-3.51a10.46,10.46,0,0,0,3.93-4.15Z"/><path class="cls-12" d="M336,375.35c-.22,1.42-1.11,2.4-1.44,3.37-.16.45-.27,1.11-.43,1.68s-.31,1.16-.5,1.74c-.38,1.16-.77,2.24-1.19,3.39a8.83,8.83,0,0,1-.85,1.68,4.35,4.35,0,0,1-.65.77,8.43,8.43,0,0,1-.78.55,31,31,0,0,0-9.1,10.57,31.67,31.67,0,0,0-2.57,6.57,23.43,23.43,0,0,1-2.6,6.66A16,16,0,0,1,304,419.49a15.8,15.8,0,0,0,11.6-7.32,23,23,0,0,0,2.42-6.62,31.9,31.9,0,0,1,11.6-17.77,3.22,3.22,0,0,0,1.15-1.08,8.46,8.46,0,0,0,.72-1.52c.37-1.08.77-2.25,1.1-3.35.17-.56.32-1.13.45-1.69s.21-1.1.42-1.79c.45-1.26,1.22-2.18,1.32-3.17Z"/><path class="cls-12" d="M336,361c.32.87.68,1.73,1.08,2.56a4.06,4.06,0,0,0,1.59,1.86,4.73,4.73,0,0,0,1.23.31l1.39.2a18.49,18.49,0,0,1,2.85.59,10.45,10.45,0,0,1,4.75,3.37,41.08,41.08,0,0,1,3.24,4.72,97.24,97.24,0,0,0,14.13,17.64,98.56,98.56,0,0,1-14.64-17.32,39.53,39.53,0,0,0-3.29-4.55,9.65,9.65,0,0,0-4.45-3,17.8,17.8,0,0,0-2.72-.48l-1.41-.18a5.33,5.33,0,0,1-1.52-.35,5.13,5.13,0,0,1-2.14-2.28,24,24,0,0,1-1.19-2.64Z"/><path class="cls-12" d="M388.63,360.31a45.18,45.18,0,0,1-4.32,17.87,127.54,127.54,0,0,1-9,16l-9.83,15.42-4.92,7.71c-1.63,2.57-3.28,5.13-4.69,7.81a34.17,34.17,0,0,0-3.26,8.44,89.53,89.53,0,0,1-2.39,8.85c-.26.72-.57,1.43-.9,2.12a9.82,9.82,0,0,0-.78,2.1,34.09,34.09,0,0,1-1.16,4.44,20.37,20.37,0,0,1-4.94,7.69,89.36,89.36,0,0,1-7.05,5.83,34.83,34.83,0,0,0-3.35,3.08,23,23,0,0,0-2.75,3.62c-1.65,2.55-3,5.32-5.16,7.54a12.87,12.87,0,0,1-3.64,2.74,8,8,0,0,1-4.44.81,8,8,0,0,0,4.42-.85,13,13,0,0,0,3.61-2.75c2.09-2.23,3.45-5,5.08-7.57a25.76,25.76,0,0,1,2.74-3.67,31.89,31.89,0,0,1,3.35-3.12c2.35-1.95,4.85-3.72,7-5.88a19.83,19.83,0,0,0,4.8-7.6,33.48,33.48,0,0,0,1.11-4.41,10,10,0,0,1,.8-2.18c.31-.69.6-1.38.85-2.1a89.31,89.31,0,0,0,2.31-8.82,39.83,39.83,0,0,1,1.34-4.4,38.43,38.43,0,0,1,1.9-4.19c1.4-2.72,3-5.31,4.65-7.89l4.86-7.75,9.7-15.5a127.23,127.23,0,0,0,8.77-15.94,44.12,44.12,0,0,0,4.08-17.46Z"/><path class="cls-12" d="M354.07,378.65a29.38,29.38,0,0,0-6,24.19,29.94,29.94,0,0,1,5.06-24.93Z"/><path class="cls-12" d="M326.53,440a8.86,8.86,0,0,1,3.68-2.56,8.1,8.1,0,0,1,4.47-.3,10,10,0,0,1,4,1.92,18.44,18.44,0,0,1,3.08,3.1c.9,1.13,1.72,2.3,2.55,3.45.42.58.84,1.14,1.28,1.7s.91,1,1.4,1.54a25.14,25.14,0,0,0,7,4.56c2.56,1.19,5.24,2.16,7.88,3.28a31.35,31.35,0,0,1,7.52,4.2,27.15,27.15,0,0,1,5.6,6.53c.78,1.21,1.5,2.44,2.19,3.7a27.09,27.09,0,0,0,2.12,3.65,21.29,21.29,0,0,1,5.92,15.71c-.22,5.75-2.28,11.23-2.24,16.93a17,17,0,0,0,1.88,8.18,11.12,11.12,0,0,0,2.73,3.22,26.86,26.86,0,0,0,3.55,2.34,26.14,26.14,0,0,1,11.56,12.22h0l-2.92-.51,2.93.49h0a26,26,0,0,0-11.61-12.1,27.32,27.32,0,0,1-3.6-2.33,11.65,11.65,0,0,1-2.79-3.26,17.2,17.2,0,0,1-2-8.28c-.07-5.77,2-11.27,2.11-16.94a20.88,20.88,0,0,0-5.92-15.38,25.16,25.16,0,0,1-2.2-3.71c-.69-1.24-1.42-2.46-2.2-3.64a26.56,26.56,0,0,0-5.51-6.35,31.07,31.07,0,0,0-7.39-4.05c-2.62-1.09-5.32-2-7.93-3.24a25.69,25.69,0,0,1-7.28-4.66c-.52-.51-1-1.07-1.48-1.61a21.51,21.51,0,0,1-1.31-1.71c-.85-1.15-1.67-2.31-2.56-3.4-1.75-2.15-3.91-4.12-6.58-4.65a7.28,7.28,0,0,0-3.95.29,7.77,7.77,0,0,0-3.23,2.31Z"/><path class="cls-12" d="M380.76,384.67,382.48,404l.86,9.66a8.57,8.57,0,0,0,1.24,4.44,6.7,6.7,0,0,0,1.67,1.56,11.1,11.1,0,0,0,2.12,1c3,1.09,6.35,1.4,9.15,3.24a16.17,16.17,0,0,1,6,7.6,24.88,24.88,0,0,1,1.58,9.55,78.16,78.16,0,0,1-.92,9.66,78.11,78.11,0,0,0,.77-9.66,24.75,24.75,0,0,0-1.71-9.44,15.82,15.82,0,0,0-5.94-7.33c-2.71-1.73-6-2-9.11-3.06a11.69,11.69,0,0,1-2.26-1,7.12,7.12,0,0,1-1.88-1.71,9.24,9.24,0,0,1-1.43-4.76l-1-9.65-2-19.29Z"/><path class="cls-12" d="M401,379.09a23.45,23.45,0,0,1-1.4,15,40.4,40.4,0,0,1-8.49,12.39c-3.4,3.62-7,7.08-9.63,11.22a17.78,17.78,0,0,0-2.75,6.67,18.12,18.12,0,0,0,.32,7.22c1.08,4.79,3.28,9.32,4.36,14.25a22.76,22.76,0,0,1,.46,7.54,21.67,21.67,0,0,1-2.32,7.18c-1.12,2.24-2.44,4.35-3.58,6.55a33,33,0,0,0-2.72,6.83c-1.36,4.75-.76,9.8-1.49,14.77s-3.31,9.46-4,14.34.32,9.85,1.75,14.56,3.21,9.44,3.9,14.41.73,9.93,1.58,14.82a28.78,28.78,0,0,0,2.1,7.09,24.68,24.68,0,0,0,4,6.19c3.29,3.72,7.43,6.58,10.88,10.17a21.07,21.07,0,0,1,4.27,6.09,16.14,16.14,0,0,1,1.33,7.29c-.08,2.49-.48,5-.47,7.44a12.32,12.32,0,0,0,.5,3.67,7.08,7.08,0,0,0,2,3.1,7,7,0,0,1-2-3.09,12,12,0,0,1-.52-3.68c0-2.49.36-5,.43-7.44a16.12,16.12,0,0,0-1.35-7.25,21.52,21.52,0,0,0-4.27-6c-3.46-3.56-7.61-6.39-10.95-10.12a25.12,25.12,0,0,1-4.11-6.23,29.23,29.23,0,0,1-2.16-7.15c-.87-4.92-.9-9.92-1.65-14.82s-2.5-9.57-4-14.32-2.6-9.76-1.84-14.78,3.31-9.46,3.94-14.35.07-9.94,1.44-14.85a32.62,32.62,0,0,1,2.74-7c1.15-2.23,2.45-4.35,3.54-6.55a20.77,20.77,0,0,0,2.21-6.95,21.9,21.9,0,0,0-.48-7.26c-1.08-4.8-3.29-9.31-4.44-14.23a19.31,19.31,0,0,1-.36-7.57,19,19,0,0,1,2.85-7c2.7-4.29,6.32-7.8,9.69-11.42a39.16,39.16,0,0,0,8.21-12.1,22.21,22.21,0,0,0,1.28-14.22Z"/><path class="cls-12" d="M416.51,392.68c-1.9,15.8-3.21,31.7-5.67,47.47-.32,2-.64,3.93-1,5.9s-.72,3.91-1,5.87a26.8,26.8,0,0,0-.13,5.87,22,22,0,0,0,1.36,5.7,33,33,0,0,0,6.24,10,73.24,73.24,0,0,0,8.62,8.18c3.07,2.53,6.22,5,9.22,7.61a50.94,50.94,0,0,1,8.15,8.77,41.28,41.28,0,0,1,5.3,10.73,71.69,71.69,0,0,1,2.78,11.64c1.29,7.87,1.7,15.85,3.08,23.69a38.25,38.25,0,0,0,11.42,20.52,38.33,38.33,0,0,1-11.57-20.49c-1.43-7.85-1.88-15.83-3.22-23.68a73.06,73.06,0,0,0-2.84-11.56A41.3,41.3,0,0,0,442,498.27c-4.65-6.47-11.23-11.16-17.39-16.17a75.43,75.43,0,0,1-8.75-8.2,33.82,33.82,0,0,1-6.43-10.15,22.89,22.89,0,0,1-1.44-5.88,27.36,27.36,0,0,1,.09-6c.23-2,.59-4,.92-5.93s.65-3.92.95-5.89c2.36-15.74,3.57-31.63,5.37-47.47Z"/><path class="cls-1" d="M383.81,561.71c2.39,1.48,3.25,4.51,3.44,7.28.52,7.6-2.52,15-3.42,22.53-.34,2.88.14,6.56,2.94,7.47"/><path class="cls-12" d="M384,449a23,23,0,0,0,2.26,6.2,59.28,59.28,0,0,0,3.48,5.77c1.24,1.89,2.61,3.69,3.77,5.71a42.2,42.2,0,0,1,2.86,6.27c1.59,4.29,2.66,8.72,4.08,13a92.69,92.69,0,0,0,5.13,12.52,94.12,94.12,0,0,0,6.88,11.66A123.31,123.31,0,0,1,420,521.52a36.2,36.2,0,0,1,2.65,6.33c.7,2.18,1.24,4.39,1.83,6.57a51.91,51.91,0,0,0,2.1,6.43c.84,2.09,1.8,4.14,2.82,6.16,2,4,4.21,8.06,5.86,12.31a71.22,71.22,0,0,1,3.58,40.22c-.87,4.46-2,8.85-2.65,13.34a37.41,37.41,0,0,0-.37,6.77,42.45,42.45,0,0,0,.87,6.73c.9,4.44,2.31,8.77,3.4,13.17A41,41,0,0,1,441.5,653a40.61,40.61,0,0,0-1.5-13.43c-1.1-4.4-2.54-8.71-3.46-13.16a40.42,40.42,0,0,1-.91-6.75,36.93,36.93,0,0,1,.33-6.81c.58-4.51,1.73-8.91,2.58-13.36a71.2,71.2,0,0,0-3.77-40c-1.67-4.21-3.86-8.17-5.92-12.23-1-2-2-4.08-2.87-6.19a56.74,56.74,0,0,1-2.16-6.49c-1.18-4.38-2.27-8.79-4.49-12.72a121.51,121.51,0,0,0-7.48-11.31,95.45,95.45,0,0,1-12.26-24.34c-1.45-4.33-2.55-8.74-4.14-13a41.43,41.43,0,0,0-2.81-6.09c-1.11-1.91-2.5-3.72-3.76-5.62a60.34,60.34,0,0,1-3.58-5.86,24.55,24.55,0,0,1-2.41-6.53Z"/><path class="cls-12" d="M439.06,454.39a7.09,7.09,0,0,1-1.07,2.8,18.79,18.79,0,0,1-1.75,2.32c-1.25,1.46-2.64,2.77-3.92,4.16a12,12,0,0,0-2.74,10.56A12.14,12.14,0,0,1,432,463.42c1.25-1.45,2.6-2.8,3.78-4.27a18.17,18.17,0,0,0,1.6-2.3,6.1,6.1,0,0,0,.89-2.51Z"/><path class="cls-12" d="M422.62,479.73a22.37,22.37,0,0,0-5.86,19.88c.7,3.55,2.53,6.78,3.88,10.23a49.78,49.78,0,0,1,2.83,10.73,66.36,66.36,0,0,1,.7,11c-.06,3.69-.42,7.35-.53,11a36.76,36.76,0,0,0,1,10.91,18.74,18.74,0,0,0,5.56,9.33,18.79,18.79,0,0,1-5.7-9.29,36.76,36.76,0,0,1-1.19-11c.06-3.69.37-7.36.38-11a65.42,65.42,0,0,0-.84-11,49.31,49.31,0,0,0-2.85-10.4c-1.36-3.37-3.27-6.61-4.07-10.32a23.44,23.44,0,0,1,5.88-20.91Z"/><path class="cls-12" d="M428.25,484a10.4,10.4,0,0,1,1.5,6.9,21.54,21.54,0,0,1-1.85,6.72c-1.91,4.3-5.14,7.68-7.65,11.43a24.3,24.3,0,0,0-3.07,6,42.92,42.92,0,0,0-1.57,6.61c-.75,4.5-1.49,9-2.08,13.53-1.16,9-1.62,18.27.31,27.22s5.93,17.35,6.74,26.52c-.9-9.16-5-17.54-7-26.47s-1.65-18.27-.56-27.33c.54-4.55,1.24-9.06,2-13.58a44.32,44.32,0,0,1,1.54-6.73,25.07,25.07,0,0,1,3.09-6.19c2.54-3.84,5.7-7.24,7.48-11.37a20.87,20.87,0,0,0,1.71-6.45,9.35,9.35,0,0,0-1.38-6.21Z"/><path class="cls-12" d="M434,340a13.94,13.94,0,0,1,4.11,4.66,20.24,20.24,0,0,1,2.07,5.79c.85,4,.64,8.11.49,12.1s-.22,8,.83,11.82,3,7.4,3.66,11.45c.32,2,.39,4,.58,6a21.78,21.78,0,0,0,1.25,5.8c1.37,3.74,3.59,7.11,5.48,10.65a33.37,33.37,0,0,1,2.42,5.51,17.41,17.41,0,0,1,.86,6,38.55,38.55,0,0,1-.83,5.95l-1.13,5.91,1.06-5.92a39.67,39.67,0,0,0,.75-5.95,17,17,0,0,0-.92-5.87,33.32,33.32,0,0,0-2.48-5.44c-1.92-3.5-4.18-6.85-5.63-10.64a22,22,0,0,1-1.35-5.89c-.22-2-.31-4-.65-6-.65-3.91-2.66-7.45-3.79-11.35s-1.1-8.06-1-12,.25-8-.61-11.85-2.66-7.52-5.84-9.69Z"/><path class="cls-12" d="M440.51,352.09a15.65,15.65,0,0,1-2.28,7.15,35.23,35.23,0,0,1-4.36,6,35.84,35.84,0,0,1-2.6,2.63c-.93.83-1.89,1.54-2.77,2.36a15.08,15.08,0,0,0-4.23,5.67,7.55,7.55,0,0,0-.45,3.46,10,10,0,0,0,1,3.39c1,2.17,2.53,4.13,3.6,6.33a22.74,22.74,0,0,1,1.87,14.27,22.43,22.43,0,0,0-2.13-14.13c-1.11-2.15-2.63-4.07-3.75-6.27a11,11,0,0,1-1.15-3.53,8.25,8.25,0,0,1,.4-3.72,15.93,15.93,0,0,1,4.29-6c.88-.86,1.87-1.62,2.73-2.43a36,36,0,0,0,6.59-8.5,21.21,21.21,0,0,0,1.42-3.24,11.9,11.9,0,0,0,.59-3.4Z"/><path class="cls-12" d="M440.75,363.39a13.08,13.08,0,0,1-.51,3.52c-.27,1.09-.58,2.17-.87,3.25-.14.55-.27,1-.37,1.61a15.51,15.51,0,0,1-.4,1.66c-.3,1.09-.67,2.15-1,3.21a21.69,21.69,0,0,0-1.48,6.46,8.17,8.17,0,0,0,2.06,6.14,8.31,8.31,0,0,1-2.36-6.14,22.12,22.12,0,0,1,1.21-6.64c.31-1.07.63-2.14.88-3.22.12-.53.23-1.07.31-1.61s.19-1.14.31-1.68c.24-1.1.5-2.19.72-3.27a12.14,12.14,0,0,0,.34-3.12Z"/><path class="cls-12" d="M445.83,390.48a29.69,29.69,0,0,1-1.66,9.7,24,24,0,0,1-2,4.49c-.8,1.41-1.63,2.81-2.4,4.23A24.11,24.11,0,0,0,436.6,418a11.42,11.42,0,0,0,2.66,9,11.51,11.51,0,0,1-2.92-9,24.53,24.53,0,0,1,3-9.27c1.46-2.92,3.27-5.63,4.15-8.72a28.7,28.7,0,0,0,1.37-9.43Z"/><path class="cls-12" d="M448.62,400.73a18.11,18.11,0,0,1-1,7c-.7,2.21-1.56,4.35-2.22,6.55a15.42,15.42,0,0,0-.76,6.74,29,29,0,0,0,2,6.57,28.6,28.6,0,0,1-2.28-6.53,15.88,15.88,0,0,1,.52-6.92c.59-2.25,1.37-4.43,2-6.63a17.36,17.36,0,0,0,.76-6.64Z"/><path class="cls-12" d="M514.65,326.48a7.89,7.89,0,0,0-.23,4.78,17.19,17.19,0,0,0,1.93,4.67c.83,1.5,1.78,3,2.57,4.57a15.46,15.46,0,0,1,1.63,5.13,30.27,30.27,0,0,1,.14,5.3l-.28,5.23-.57,10.44c-.2,3.48-.37,7-.85,10.46a32.5,32.5,0,0,1-2.92,10.12,17.3,17.3,0,0,1-7.19,7.64c-1.51.9-3.06,1.69-4.54,2.58a24,24,0,0,0-4.11,3.11,23.32,23.32,0,0,0-5.74,8.49c-1.3,3.2-1.53,6.73-2.51,10.11a12.72,12.72,0,0,1-2.36,4.72,10.49,10.49,0,0,1-4.34,3c-1.63.67-3.32,1.12-4.94,1.72a17.85,17.85,0,0,0-4.55,2.45,27.46,27.46,0,0,0-6.84,7.76,77.36,77.36,0,0,0-4.69,9.32,83.24,83.24,0,0,1-4.64,9.37,27.23,27.23,0,0,1-6.79,7.86,27.13,27.13,0,0,0,6.72-7.9,84,84,0,0,0,4.58-9.39,74.91,74.91,0,0,1,4.63-9.38,27.66,27.66,0,0,1,6.85-7.88,18.45,18.45,0,0,1,4.61-2.52c1.64-.63,3.32-1.09,4.91-1.75a10.32,10.32,0,0,0,4.18-2.9,12.1,12.1,0,0,0,2.24-4.58c.94-3.31,1.14-6.87,2.45-10.17a24.06,24.06,0,0,1,10-11.95c1.5-.92,3.05-1.72,4.52-2.62a16.41,16.41,0,0,0,6.87-7.4,31.65,31.65,0,0,0,2.78-9.9c.45-3.42.59-6.91.76-10.39l.5-10.43c.12-3.48.52-7,.07-10.35s-2.39-6.25-4.14-9.29a18.9,18.9,0,0,1-2.08-5,9,9,0,0,1,.25-5.5Z"/><path class="cls-12" d="M535.47,316a21.92,21.92,0,0,0,.11,4.05,15.93,15.93,0,0,0,.92,3.9,4.52,4.52,0,0,0,2.66,2.62,21,21,0,0,0,4,.9,11.66,11.66,0,0,1,4,1.41c1.23.69,2.35,1.52,3.5,2.29A15.88,15.88,0,0,0,558.3,334a16,16,0,0,1-7.84-2.6c-1.19-.73-2.33-1.51-3.55-2.14A11.22,11.22,0,0,0,543,328a21.57,21.57,0,0,1-4.15-.79,5.32,5.32,0,0,1-3.21-2.95,16.88,16.88,0,0,1-1.14-4.13,22.42,22.42,0,0,1-.26-4.25Z"/><path class="cls-12" d="M520.19,361.81c2.25,5,4,10.1,6,15.14,1,2.52,2,5,3.13,7.46a33.35,33.35,0,0,0,4,6.95c1.63,2.11,3.6,4,5.31,6.13a18.91,18.91,0,0,1,2.28,3.45,24.27,24.27,0,0,1,1.48,3.85c.78,2.62,1.27,5.28,2.16,7.81a22.82,22.82,0,0,0,4,6.9c3.39,4.17,7.71,7.53,11.3,11.63a23.82,23.82,0,0,1,4.39,6.86,13.08,13.08,0,0,1,.64,1.95,12.23,12.23,0,0,1,.41,2,27.8,27.8,0,0,1,.17,4.08c-.09,2.72-.26,5.41-.17,8.11s.25,5.41.48,8.1l.38,4a35.94,35.94,0,0,0,.55,4,13.29,13.29,0,0,0,1.3,3.87,7,7,0,0,0,2.8,2.85,7,7,0,0,1-2.83-2.83,13.26,13.26,0,0,1-1.37-3.81,36,36,0,0,1-.59-4l-.42-4c-.25-2.7-.47-5.4-.55-8.11s0-5.43.09-8.12a28.14,28.14,0,0,0-.2-4,12.27,12.27,0,0,0-.43-2,10.58,10.58,0,0,0-.63-1.9,23.33,23.33,0,0,0-4.39-6.7c-3.58-4-7.93-7.34-11.43-11.55a23.37,23.37,0,0,1-4.15-7.06c-.94-2.58-1.46-5.25-2.25-7.81a18.71,18.71,0,0,0-3.68-7c-1.68-2.07-3.67-3.92-5.38-6.08a35,35,0,0,1-4.12-7.1c-1.17-2.45-2.23-5-3.23-7.49-2-5-3.83-10.14-6.08-15Z"/><path class="cls-12" d="M507.25,396.06a8.65,8.65,0,0,0-2.9,3.68,16.44,16.44,0,0,0-1.28,4.72,15.69,15.69,0,0,0-.08,2.47l.06,2.53a44.2,44.2,0,0,0,.44,5,21.66,21.66,0,0,0,1.27,4.8c.59,1.53,1.48,3,2.06,4.67a11.22,11.22,0,0,1,.48,5.24,23.38,23.38,0,0,1-1.34,5c-1.21,3.2-2.71,6.24-3.5,9.49a22.29,22.29,0,0,0,.06,9.92c.62,3.31,1.57,6.6,1.9,10a20.73,20.73,0,0,1-.14,5.16c-.28,1.7-.73,3.34-1.11,5a19.6,19.6,0,0,0-.65,5,10,10,0,0,0,.39,2.43,11.78,11.78,0,0,0,1,2.27c.83,1.45,1.8,2.88,2.54,4.43a35.29,35.29,0,0,1,1.91,4.74,27.87,27.87,0,0,1,1.48,10.09,7.6,7.6,0,0,1-.5,2.54,7.37,7.37,0,0,0-.72,2.38,14.31,14.31,0,0,0,.47,5c.78,3.29,2.21,6.39,3.19,9.65a20.7,20.7,0,0,1,.92,5,15.11,15.11,0,0,1-.64,5,77.36,77.36,0,0,1-4.06,9.33c-1.4,3.08-2.55,6.4-2.07,9.81-.51-3.4.61-6.78,2-9.84s3.07-6.08,4-9.34a15.09,15.09,0,0,0,.61-5,20.35,20.35,0,0,0-1-5c-1-3.23-2.44-6.33-3.26-9.65a14.58,14.58,0,0,1-.51-5.09A7.69,7.69,0,0,1,509,505a6.89,6.89,0,0,0,.46-2.42,27.49,27.49,0,0,0-1.54-9.93A33.22,33.22,0,0,0,506,488c-.73-1.51-1.69-2.89-2.56-4.38a12.22,12.22,0,0,1-1.07-2.36,11.32,11.32,0,0,1-.43-2.58,20.48,20.48,0,0,1,.62-5.11c.38-1.66.81-3.3,1.07-4.95a19.93,19.93,0,0,0,.1-5,100.7,100.7,0,0,0-2-9.95,23.08,23.08,0,0,1-.13-10.26c.79-3.37,2.3-6.47,3.46-9.61A21.64,21.64,0,0,0,506.3,429a10.13,10.13,0,0,0-.47-4.79c-.54-1.54-1.43-3-2.08-4.62a22.85,22.85,0,0,1-1.36-5,44.08,44.08,0,0,1-.49-5.13l-.09-2.55a17.52,17.52,0,0,1,.08-2.61,16.89,16.89,0,0,1,1.34-5.08,9.71,9.71,0,0,1,3.31-4.21Z"/><path class="cls-12" d="M541.35,327.44c.67,6.18.72,12.37.88,18.53a115.34,115.34,0,0,0,1.59,18.37c1.12,6.05,3.3,11.84,5.33,17.67l3.07,8.73a47.79,47.79,0,0,0,3.56,8.52,47.57,47.57,0,0,1-3.7-8.47l-3.21-8.68c-2.12-5.79-4.41-11.56-5.63-17.66a115.43,115.43,0,0,1-1.9-18.45c-.27-6.17-.42-12.34-1.17-18.42Z"/><path class="cls-12" d="M500.07,401.08c-3.24,2.88-4.88,7.31-5.2,11.68a50,50,0,0,0,.26,6.7,31.75,31.75,0,0,1-.19,6.82,13.57,13.57,0,0,1-2.61,6.3c-1.41,1.8-3.16,3.25-4.28,5.2-2.33,3.86-2.89,8.49-3.4,12.93.41-4.45.86-9.09,3.15-13.09,1.1-2,2.85-3.54,4.18-5.31a13.2,13.2,0,0,0,2.37-6.12,31.08,31.08,0,0,0,0-6.68,53.38,53.38,0,0,1-.41-6.8,21.33,21.33,0,0,1,1.44-6.74,15.72,15.72,0,0,1,3.86-5.78Z"/><path class="cls-12" d="M543,356.82a98.57,98.57,0,0,1-1.32,10.56,44.33,44.33,0,0,1-1.28,5.2,18.9,18.9,0,0,1-2.25,4.92c-2,3-4.82,5.3-7.26,7.8a34.83,34.83,0,0,0-6.17,8.44,40.5,40.5,0,0,0-3.49,9.9,45.89,45.89,0,0,1-3.22,10.1c-1.6,3.18-3.87,5.95-5.11,9.26a28.44,28.44,0,0,0-1.17,5.15,9.36,9.36,0,0,1-2,4.81,9.34,9.34,0,0,0,2-4.83,27.77,27.77,0,0,1,1.1-5.18c1.21-3.36,3.45-6.18,5-9.34a46.1,46.1,0,0,0,3.06-10.07,40.45,40.45,0,0,1,3.39-10.08,35.55,35.55,0,0,1,6.16-8.68c2.45-2.57,5.17-4.87,7-7.77a18.22,18.22,0,0,0,2.07-4.72,42.35,42.35,0,0,0,1.18-5.1,99.27,99.27,0,0,0,1.16-10.46Z"/><path class="cls-12" d="M504.14,460.61a47.5,47.5,0,0,1-.7,9.07,24.32,24.32,0,0,1-3,8.59c-1.54,2.6-3.24,5.08-4,8a29.67,29.67,0,0,0-.92,8.85,39,39,0,0,0,1.32,8.85c.75,2.89,2,5.65,2.6,8.64a11.46,11.46,0,0,1,0,4.52,13.3,13.3,0,0,1-1.89,4.1c-1.61,2.52-3.69,4.85-4.28,7.86.54-3,2.61-5.4,4.18-7.92a13.31,13.31,0,0,0,1.8-4.08,10.84,10.84,0,0,0-.06-4.43c-.59-2.94-1.91-5.67-2.72-8.59a39.18,39.18,0,0,1-1.45-8.93,30.29,30.29,0,0,1,.81-9c.75-3,2.47-5.59,3.95-8.16a23.85,23.85,0,0,0,2.82-8.36,46.45,46.45,0,0,0,.56-8.89Z"/><path class="cls-12" d="M542.43,363.15l-8.34,30.32a35.18,35.18,0,0,1-2.88,7.35c-1.26,2.34-3.08,4.28-4.25,6.6a16.5,16.5,0,0,0-1.59,7.57,43.34,43.34,0,0,0,.89,7.79,43.48,43.48,0,0,1-1-7.79,16.71,16.71,0,0,1,1.47-7.7c1.15-2.39,2.94-4.38,4.13-6.68a35.23,35.23,0,0,0,2.69-7.31l7.77-30.46Z"/><path class="cls-12" d="M572.86,297.49a7.11,7.11,0,0,0-1.05,4.65,16.27,16.27,0,0,0,1.32,4.89c.68,1.59,1.47,3.16,2.12,4.83a14.08,14.08,0,0,1,1.11,5.32,23.18,23.18,0,0,1-.92,5.29c-.41,1.7-.79,3.4-1.11,5.12A67.4,67.4,0,0,0,573.18,338a46.92,46.92,0,0,0,.8,10.38,54,54,0,0,0,3.08,10c2.63,6.47,6.1,12.6,8.82,19.1a57.31,57.31,0,0,1,3.25,10.06A59.38,59.38,0,0,1,590.28,398c.23,7,.34,14.13-1.43,21a32.06,32.06,0,0,1-4.2,9.65c-1,1.44-2.47,2.54-3.24,4.12a14.73,14.73,0,0,0-1.34,5c-.21,1.73-.27,3.49-.45,5.24a23.21,23.21,0,0,1-1.1,5.14,15.7,15.7,0,0,1-2.45,4.65,11.62,11.62,0,0,1-1.87,1.84,9.72,9.72,0,0,1-2.3,1.26,10.27,10.27,0,0,0,2.29-1.27,11.62,11.62,0,0,0,1.85-1.86,15.66,15.66,0,0,0,2.41-4.64,23,23,0,0,0,1.06-5.13c.16-1.75.22-3.5.41-5.25a15,15,0,0,1,1.33-5.1c.77-1.62,2.21-2.75,3.22-4.16a31.93,31.93,0,0,0,4.09-9.59c1.71-6.81,1.55-13.91,1.28-20.89a61.63,61.63,0,0,0-1.22-10.4,56.67,56.67,0,0,0-3.29-9.93c-2.75-6.44-6.26-12.54-9-19.06a54.81,54.81,0,0,1-3.2-10.09,48,48,0,0,1-.89-10.57,69,69,0,0,1,1.09-10.53c.32-1.74.68-3.46,1.09-5.18a23.5,23.5,0,0,0,.86-5.06,13,13,0,0,0-1.08-4.91c-.63-1.6-1.43-3.16-2.14-4.79a17.31,17.31,0,0,1-1.44-5.23,8.21,8.21,0,0,1,1.21-5.42Z"/><path class="cls-12" d="M549.39,481c-.51-2.36-1-4.74-1.72-7-.32-1.14-.92-2.15-1.29-3.41a10,10,0,0,1-.12-3.78A23.6,23.6,0,0,0,543.54,453l-.89-1.63,1.41,1.19a50,50,0,0,1,9.77,12,36.48,36.48,0,0,1,5.44,14.4,34.06,34.06,0,0,0,1.77,7.46,11.87,11.87,0,0,0,2,3.26,10.49,10.49,0,0,0,3,2.38c2.23,1.26,4.75,1.93,7.09,3a15.62,15.62,0,0,1,3.3,2,8,8,0,0,1,2.32,3,8.1,8.1,0,0,0-2.35-3,14.7,14.7,0,0,0-3.31-1.95c-2.34-1-4.86-1.68-7.13-2.92a11.06,11.06,0,0,1-3-2.4,12.24,12.24,0,0,1-2-3.3,33.49,33.49,0,0,1-1.87-7.5,36.22,36.22,0,0,0-5.54-14.19,49.29,49.29,0,0,0-9.77-11.72l.52-.44a24.41,24.41,0,0,1,3,14.25,9.31,9.31,0,0,0,.13,3.45c.32,1.07,1,2.18,1.32,3.37.76,2.35,1.28,4.73,1.83,7.09Z"/><path class="cls-12" d="M523.64,449.91a63.1,63.1,0,0,1-1.87,7.4c-.16.61-.27,1.19-.38,1.83a7.28,7.28,0,0,1-.62,1.88,11.73,11.73,0,0,1-2.43,3c-.92.88-1.9,1.68-2.79,2.56a16.5,16.5,0,0,0-2.37,2.9,17,17,0,0,0-2.61,7,17.15,17.15,0,0,1,4.71-10.15c.87-.93,1.83-1.76,2.71-2.65a11.3,11.3,0,0,0,2.21-2.93,17.17,17.17,0,0,0,.82-3.61,63.45,63.45,0,0,0,1.61-7.33Z"/><path class="cls-12" d="M528.05,464.45a6.85,6.85,0,0,1,.67,4.22,10.26,10.26,0,0,1-.44,2.05,6.72,6.72,0,0,1-1,1.89c-.77,1.12-1.66,2.11-2.42,3.14a10.75,10.75,0,0,0-1.7,3.38,23.49,23.49,0,0,0-.59,7.7c.14,2.63.24,5.29.15,7.94-.17,5.29-.83,10.53-1.31,15.78a77.78,77.78,0,0,0-.13,15.78,77.35,77.35,0,0,1-.16-15.81c.37-5.26.93-10.51,1-15.77,0-2.63-.1-5.24-.3-7.88a23.92,23.92,0,0,1,.48-8,11.71,11.71,0,0,1,1.77-3.68c.78-1.11,1.64-2.1,2.34-3.17a7,7,0,0,0,1.15-3.46,5.91,5.91,0,0,0-.55-3.46Z"/><path class="cls-12" d="M525.63,459.82a9.1,9.1,0,0,0,3.28,3.44,29.86,29.86,0,0,0,4.43,2.36c1.54.7,3.13,1.33,4.69,2.07a20.93,20.93,0,0,1,4.43,2.76,27.16,27.16,0,0,1,6.58,8,42.27,42.27,0,0,1,3.75,9.59c.9,3.32,1.52,6.69,2.11,10a27.86,27.86,0,0,0,3,9.67c1.66,3,3.82,5.68,5.11,8.87a24.13,24.13,0,0,1,1.86,10,24.19,24.19,0,0,0-2-10c-1.34-3.15-3.52-5.82-5.24-8.78a30.31,30.31,0,0,1-3.19-9.74c-.62-3.34-1.31-6.7-2.24-10a41.84,41.84,0,0,0-3.83-9.38,26.52,26.52,0,0,0-6.49-7.65,19.74,19.74,0,0,0-4.27-2.58c-1.54-.69-3.14-1.3-4.72-2a30.16,30.16,0,0,1-4.62-2.39,10,10,0,0,1-3.74-3.86Z"/><path class="cls-12" d="M556.07,502.69a5.69,5.69,0,0,1,.67,2.2,13.49,13.49,0,0,1,.08,2.2,10.68,10.68,0,0,1-.29,2.18,6.26,6.26,0,0,1-1,2c-.81,1.2-1.78,2.25-2.55,3.42a16.57,16.57,0,0,0-1.87,3.77,17.84,17.84,0,0,0-.75,8.36,52.3,52.3,0,0,0,2,8.28,52.38,52.38,0,0,1-2.2-8.26,18,18,0,0,1,.57-8.51,17.17,17.17,0,0,1,1.82-3.91c.78-1.23,1.72-2.31,2.47-3.49a5.57,5.57,0,0,0,.85-1.83,11.79,11.79,0,0,0,.22-2.05A14.07,14.07,0,0,0,556,505a5,5,0,0,0-.58-1.85Z"/><path class="cls-12" d="M574.92,325.19c-.7,3-1.2,6.15-2.78,9a8.26,8.26,0,0,1-1.51,1.92,16.65,16.65,0,0,1-1.87,1.48c-1.28.91-2.61,1.69-3.76,2.69a13.16,13.16,0,0,0-2.59,3.72,42.46,42.46,0,0,1-2.66,3.85,53,53,0,0,1-6.27,6.88,51.83,51.83,0,0,0,6-7.06,40.8,40.8,0,0,0,2.5-3.89,14,14,0,0,1,2.59-3.95,44.55,44.55,0,0,1,3.72-2.84,9.86,9.86,0,0,0,3-3.23c1.38-2.67,1.79-5.77,2.39-8.82Z"/><path class="cls-12" d="M573.29,339a46.09,46.09,0,0,1-3.5,9.88,23.64,23.64,0,0,1-6.21,8.4,6.49,6.49,0,0,0-1.63,1.87,9.19,9.19,0,0,0-.79,2.39,43.57,43.57,0,0,0-.63,15.44,44.37,44.37,0,0,1-.49-10.36,44.86,44.86,0,0,1,.68-5.17,9.79,9.79,0,0,1,.76-2.54,7.26,7.26,0,0,1,1.7-2.08A22.73,22.73,0,0,0,569,348.5a45.78,45.78,0,0,0,3.15-9.74Z"/><path class="cls-12" d="M579.83,364.42c.34,4.47.66,9.11-.58,13.58a15.36,15.36,0,0,1-3.21,6.06,32.06,32.06,0,0,1-5.12,4.47,35.61,35.61,0,0,0-5.07,4.35,14.57,14.57,0,0,0-1.91,2.71,15.15,15.15,0,0,0-1.19,3.1,18.47,18.47,0,0,0-.54,3.3c-.1,1.11-.07,2.23-.11,3.36a12.21,12.21,0,0,1-.49,3.34,4,4,0,0,1-2.07,2.54,4,4,0,0,0,2-2.57,12.31,12.31,0,0,0,.41-3.31V402a19.89,19.89,0,0,1,.48-3.35,16,16,0,0,1,1.15-3.21,14.91,14.91,0,0,1,1.9-2.83,35.22,35.22,0,0,1,5-4.53,31.66,31.66,0,0,0,4.92-4.48,14.51,14.51,0,0,0,2.92-5.81c1.08-4.28.69-8.79.25-13.23Z"/><path class="cls-12" d="M589.68,416.58a18.77,18.77,0,0,0-1.43,8.88,28.81,28.81,0,0,0,.59,4.53,35.42,35.42,0,0,0,1.37,4.39,59.24,59.24,0,0,1,2.57,8.94,28.4,28.4,0,0,1,0,9.29,26.05,26.05,0,0,1-1.11,4.53c-.25.74-.57,1.44-.77,2.17a7.51,7.51,0,0,0-.25,2.26,42,42,0,0,0,1.19,9.14,48.28,48.28,0,0,0,7.42,16.84,48.23,48.23,0,0,1-7.6-16.8,42.43,42.43,0,0,1-1.3-9.18,8.35,8.35,0,0,1,.24-2.34c.2-.76.52-1.47.75-2.2a26.41,26.41,0,0,0,1.06-4.47,28.72,28.72,0,0,0-.09-9.16,56.72,56.72,0,0,0-2.64-8.83,36.44,36.44,0,0,1-1.43-4.44,28,28,0,0,1-.65-4.64,19.27,19.27,0,0,1,1.4-9.25Z"/><path class="cls-12" d="M576.11,315.45A16.82,16.82,0,0,0,580,322.9c.94,1,2.21,1.79,3.3,2.93a18.68,18.68,0,0,1,2.34,3.85c1.44,2.53,3,5.07,4.21,7.78a19.4,19.4,0,0,1,2.07,8.65,11.23,11.23,0,0,1-1.15,4.33,31.22,31.22,0,0,1-2.25,3.83,19.75,19.75,0,0,0-2.11,3.82,24.53,24.53,0,0,0-1.16,4.21,36.64,36.64,0,0,0-.43,8.75,33.89,33.89,0,0,0,1.61,8.64,34,34,0,0,1-1.76-8.63,36.58,36.58,0,0,1,.29-8.81,24.67,24.67,0,0,1,1.1-4.3,21.64,21.64,0,0,1,2.08-3.92c1.56-2.46,3.12-5,3.18-7.95a18.69,18.69,0,0,0-2.15-8.31c-1.25-2.63-2.81-5.1-4.31-7.65a18.76,18.76,0,0,0-2.28-3.63c-1-1-2.25-1.74-3.34-2.87a17.85,17.85,0,0,1-4.34-7.89Z"/><path class="cls-12" d="M570.63,347.33a9.07,9.07,0,0,0-1.48,4.11,21.34,21.34,0,0,0-.07,4.59,77.46,77.46,0,0,0,1.67,9.2,24.08,24.08,0,0,1,.49,4.72,16.54,16.54,0,0,1-.76,4.68,43.93,43.93,0,0,1-1.59,4.43l-1.7,4.39,1.56-4.44c.52-1.48,1-2.95,1.45-4.46a16.64,16.64,0,0,0,.59-4.6,23.8,23.8,0,0,0-.63-4.6,78.61,78.61,0,0,1-2-9.23,22.65,22.65,0,0,1-.07-4.8,10,10,0,0,1,1.55-4.69Z"/><path class="cls-12" d="M579.84,376c-1.22,4.44-1.19,9.14-.92,13.8s.78,9.39.14,14.11a34.45,34.45,0,0,1-1.83,6.83,30.43,30.43,0,0,0-1.63,6.79,27.25,27.25,0,0,0,2,13.73,27.44,27.44,0,0,1-2.3-13.76,31.37,31.37,0,0,1,1.5-6.9,33.48,33.48,0,0,0,1.66-6.77c.54-4.62-.09-9.29-.44-14s-.52-9.49.67-14.17Z"/><path class="cls-12" d="M592.15,346.57a15.34,15.34,0,0,0,.56,5.18,16.32,16.32,0,0,0,2,4.89,6.08,6.08,0,0,0,.81.94,2.66,2.66,0,0,0,1.07.48,20.43,20.43,0,0,1,2.67.78,16.74,16.74,0,0,1,4.77,2.85,17.61,17.61,0,0,1,3.59,4.2,28.42,28.42,0,0,1,2.25,5,14,14,0,0,0,2.64,4.7,6,6,0,0,0,4.79,2.15,6.07,6.07,0,0,1-4.9-2,14.42,14.42,0,0,1-2.81-4.7,27.83,27.83,0,0,0-2.35-4.89,17.58,17.58,0,0,0-3.6-4,16,16,0,0,0-4.64-2.61,19.63,19.63,0,0,0-2.61-.68,3.49,3.49,0,0,1-1.41-.61,5.82,5.82,0,0,1-1-1.1A17.1,17.1,0,0,1,591.7,352a16.48,16.48,0,0,1-.74-5.62Z"/><path class="cls-12" d="M324.88,497.92v22.8a67.57,67.57,0,0,0,.21,7.53,14,14,0,0,0,2.55,6.85,28,28,0,0,0,5.25,5.3c2,1.6,4,3.09,5.94,4.75a29.52,29.52,0,0,1,5.16,5.66,38.74,38.74,0,0,1,5.72,14.09,105.12,105.12,0,0,1,1.91,15.1,136.41,136.41,0,0,0,1.61,15.09,41.32,41.32,0,0,0,5.07,14.23,41.71,41.71,0,0,1-5.22-14.2A137,137,0,0,1,351.32,580a105.34,105.34,0,0,0-2-15,38.07,38.07,0,0,0-5.77-13.83,28.87,28.87,0,0,0-5.1-5.49c-1.93-1.62-4-3.1-6-4.68a28.55,28.55,0,0,1-5.45-5.42,16.93,16.93,0,0,1-1.87-3.42,16.48,16.48,0,0,1-.9-3.79,74.94,74.94,0,0,1-.3-7.64l-.08-7.6-.17-15.19Z"/><path class="cls-12" d="M269.92,493.8a30.23,30.23,0,0,0,10.4,20.2,29.18,29.18,0,0,0,4.77,3.34,54.8,54.8,0,0,0,5.29,2.56c3.6,1.58,7.35,3,10.69,5.31a19.44,19.44,0,0,1,4.41,4.13,18.41,18.41,0,0,1,2.8,5.36,31.6,31.6,0,0,1,1.2,11.88c-.26,4-1,7.88-1.56,11.79a44.76,44.76,0,0,0-.41,11.73,16.42,16.42,0,0,0,1.56,5.58,5.72,5.72,0,0,0,1.92,2.05,9,9,0,0,0,2.66,1.06c1.88.47,3.9.58,5.81,1.22a16.9,16.9,0,0,1,5.29,2.79,24,24,0,0,1,7.13,9.46,37.87,37.87,0,0,1,3,11.49c1,7.85.54,15.87,2.61,23.54a29.34,29.34,0,0,0,5.24,10.53,18.07,18.07,0,0,0,9.67,6.47,18.16,18.16,0,0,1-9.73-6.42,29.32,29.32,0,0,1-5.32-10.54c-2.13-7.69-1.77-15.73-2.77-23.55a37.71,37.71,0,0,0-3-11.37,23.83,23.83,0,0,0-7.06-9.26,16.57,16.57,0,0,0-5.16-2.67c-1.85-.61-3.84-.71-5.8-1.18a9.19,9.19,0,0,1-2.82-1.12,6.18,6.18,0,0,1-2.12-2.22,17.14,17.14,0,0,1-1.66-5.78,45.25,45.25,0,0,1,.34-11.91c.51-3.93,1.24-7.82,1.47-11.74A30.41,30.41,0,0,0,307.5,535a17.91,17.91,0,0,0-2.7-5.09,18.59,18.59,0,0,0-4.24-3.92c-3.22-2.19-6.93-3.59-10.57-5.15a59.37,59.37,0,0,1-5.4-2.58,30.07,30.07,0,0,1-4.95-3.42A31.37,31.37,0,0,1,268.72,494Z"/><path class="cls-1" d="M270.87,666.49q-.86,9.62-2.25,19.18c-.43,3-.94,6-2.53,8.53-2.11,3.37-5.81,5.39-9.09,7.69s-6.48,5.46-6.64,9.42c-.08,1.8-.25,4.45-2.07,4.31"/><path class="cls-12" d="M274.19,617.24a13.69,13.69,0,0,1-.9,3.56,15.19,15.19,0,0,1-1.82,3.15,20.26,20.26,0,0,1-5.32,4.83c-4,2.65-8.75,3.84-13.32,4.87s-9.23,1.92-13.48,3.85a36,36,0,0,0-11.37,8,34.82,34.82,0,0,0-4.29,5.53c-1.27,2-2.39,4-3.59,6.07a40.58,40.58,0,0,1-4,5.82,19.09,19.09,0,0,1-5.48,4.47c-4.19,2.26-8.92,3.08-13.53,3.91l-13.9,2.48,13.88-2.6c4.6-.87,9.31-1.74,13.43-4a19,19,0,0,0,5.36-4.46,40.09,40.09,0,0,0,3.94-5.81c1.17-2,2.28-4.11,3.54-6.11a36,36,0,0,1,15.78-13.9c4.32-2,9-2.94,13.57-4s9.15-2.29,13-4.88a19.42,19.42,0,0,0,5-4.65,14,14,0,0,0,1.67-3,12.72,12.72,0,0,0,.8-3.27Z"/><path class="cls-12" d="M522.17,482.05a14.8,14.8,0,0,1-3.31,12.84,11.32,11.32,0,0,1-5.85,3.38c-2.16.56-4.41.83-6.18,2.09s-2.88,3.23-4,5.12a20.23,20.23,0,0,1-1.88,2.78,9.89,9.89,0,0,1-2.52,2.22,14.22,14.22,0,0,1-6.38,1.87,39,39,0,0,1-6.66-.16,38.86,38.86,0,0,0,6.65,0,14.16,14.16,0,0,0,6.25-2,10.14,10.14,0,0,0,2.42-2.2,23.09,23.09,0,0,0,1.79-2.78c1.09-1.9,2.16-4,4.05-5.34s4.22-1.71,6.31-2.3a10.63,10.63,0,0,0,5.45-3.27,13.94,13.94,0,0,0,2.88-12.1Z"/><path class="cls-13" d="M470,339c-9.84,54-6.89,109.23-2.79,163.67,2.93,38.94,6.79,77.82,8.76,116.82,1,19.48,1.5,39,1.19,58.48-.3,18.31-3.94,37.53-1.87,55.69"/><path class="cls-12" d="M163.87,394.51a8.23,8.23,0,0,1-.52,3.74,14,14,0,0,1-1.77,3.22,25.82,25.82,0,0,1-5.13,5.1A18.9,18.9,0,0,0,153.9,409a9.5,9.5,0,0,0-1.72,3.05,13.38,13.38,0,0,1-1.3,3.35,3.69,3.69,0,0,1-1.35,1.19,2.16,2.16,0,0,1-1.74.14,2.09,2.09,0,0,0,1.71-.2,3.59,3.59,0,0,0,1.28-1.2,12.93,12.93,0,0,0,1.16-3.35,10,10,0,0,1,1.67-3.22,20,20,0,0,1,2.52-2.6A25.33,25.33,0,0,0,161,401c1.28-1.92,2.25-4.21,1.92-6.41Z"/><path class="cls-12" d="M575.81,311.71a2.61,2.61,0,0,0,1.82,2.1,8.94,8.94,0,0,0,3.23.64c2.29.12,4.61.05,6.95.25a16.47,16.47,0,0,1,6.79,1.88,10,10,0,0,1,2.75,2.26,11.79,11.79,0,0,1,1.73,3.1c.86,2.17,1.31,4.48,2.49,6.44a6.54,6.54,0,0,0,2.36,2.37,9.26,9.26,0,0,0,3.24,1c1.14.19,2.29.27,3.44.41a21.06,21.06,0,0,1,9.64,3.75A21,21,0,0,0,614,333a20.59,20.59,0,0,0-3.4-.64c-1.15-.13-2.3-.19-3.46-.35a9.83,9.83,0,0,1-3.35-1,6.91,6.91,0,0,1-2.53-2.45c-1.26-2-1.75-4.34-2.64-6.45a11,11,0,0,0-1.69-2.91,9.17,9.17,0,0,0-2.63-2.08,15.66,15.66,0,0,0-6.54-1.68c-2.28-.16-4.59-.05-6.93-.13a9.84,9.84,0,0,1-3.56-.64,4.8,4.8,0,0,1-1.61-1.06,3,3,0,0,1-.84-1.85Z"/><circle class="cls-14" cx="375.5" cy="375.5" r="371.5"/><path class="cls-15" d="M163,350.31c-.59,4.08-5.64,5-8.48,7a37.58,37.58,0,0,0-4.65,4.54c-1.55,1.54-3.51,2.86-5.68,2.8"/><g id="Layer_85" data-name="Layer 85"><path class="cls-16" d="M512.42,324.44c8.08,16.49,4.7,37.55,2.76,55.07-2.24,20.29-10,39-21,56.07-8.11,12.55-9.73,28.18-10.64,42.78-.61,9.67.55,19.82,5.86,28,10.22,15.62,32.89,23.2,50.88,23.33,16,.12,37.6-5.61,47.62-18.82,11.41-15,11.07-45,2.23-61.27-8.26-15.25-29-19-44.83-15.55A19.56,19.56,0,0,0,533,441.41c-5.15,7.55-3.35,18.13-2.1,26.54.51,3.65,1,7.28,1.59,10.9"/><polygon class="cls-17" points="560.11 461.61 503.91 472.13 537.35 494.49 560.11 461.61"/><g class="cls-18"><g class="cls-18"><path class="cls-19" d="M335.81,399.08l-4.25.35,1.49,18.25-2.48.2-1.49-18.25-2.65.21-.19-2.39,2.64-.22-.45-5.53,2.48-.21.45,5.54,4.25-.35Z"/></g><g class="cls-18"><path class="cls-19" d="M348.14,395.32l.23,2.81c-3.36,0-5.74,3.05-5.39,7.3l.93,11.36-2.48.21-1.68-20.66,2.47-.2.31,3.8A6.81,6.81,0,0,1,348.14,395.32Z"/></g><g class="cls-18"><path class="cls-19" d="M370.1,393.86l1.69,20.65-2.48.21-.34-4.26a9.07,9.07,0,0,1-7.48,5.19c-5.74.47-10.14-4-10.61-9.78s3.14-10.94,8.88-11.41A9,9,0,0,1,368,398.4l-.35-4.34Zm-1.63,10.57c-.36-4.42-3.85-8-8.27-7.6s-7.17,4.37-6.8,8.84,3.72,7.92,8.14,7.56S368.83,408.85,368.47,404.43Z"/></g><g class="cls-18"><path class="cls-19" d="M394.7,400.92l1,11.64-2.44.2-.92-11.19c-.4-5-3.05-7.32-6.64-7-3.18.27-5.56,2.66-5.54,7l1,12.22-2.48.21L377,393.3l2.48-.2.28,3.39a7.5,7.5,0,0,1,6.3-4.3C390.26,391.84,394.18,394.56,394.7,400.92Z"/></g><g class="cls-18"><path class="cls-19" d="M400.62,409.21l1.54-2a6.72,6.72,0,0,0,5.26,2.27c2.23-.18,3.91-1.6,3.74-3.63-.42-5.16-10.57-2.63-11.09-9.49-.2-3,2.13-5.45,5.6-5.78a8.65,8.65,0,0,1,6.48,2.43l-1.39,1.9a6.57,6.57,0,0,0-4.85-1.94c-2.07.17-3.45,1.53-3.36,3.19.31,4.8,10.54,2.3,11.09,9.53.22,3.18-2.18,5.88-6.1,6.2A9,9,0,0,1,400.62,409.21Z"/></g><g class="cls-18"><path class="cls-19" d="M419.28,381.73l.66,8.06,4.3-.35.19,2.39-4.29.36,1.49,18.25-2.44.2-1.49-18.26-2.64.22-.2-2.4,2.65-.21-.7-8.51a3.79,3.79,0,0,1,3.55-4.45,5.23,5.23,0,0,1,2.91.59l.21,2.57a4.3,4.3,0,0,0-2.46-.68A1.91,1.91,0,0,0,419.28,381.73Z"/></g><g class="cls-18"><path class="cls-19" d="M426.94,399.57a10.49,10.49,0,1,1,11.32,9.8A10.4,10.4,0,0,1,426.94,399.57Zm18.42-1.51a8,8,0,1,0-7.3,8.88A8,8,0,0,0,445.36,398.06Z"/><path class="cls-19" d="M460.8,386.12l.24,2.81c-3.37,0-5.74,3-5.4,7.3l.93,11.36-2.48.2-1.68-20.65,2.47-.21.32,3.8A6.75,6.75,0,0,1,460.8,386.12Z"/></g><g class="cls-18"><path class="cls-19" d="M495.26,392.11l1,12.24-2.48.2-1-11.73c-.34-4.22-2.67-6.77-6.1-6.49s-5.31,3.18-4.94,7.68l.89,11.45-2.44.2-.95-11.74c-.35-4.21-2.68-6.76-6.11-6.48s-5.31,3.18-4.94,7.68l.93,11.44-2.47.2L465,386.11l2.48-.2.25,3.1a6.85,6.85,0,0,1,5.79-4,7.07,7.07,0,0,1,7.11,4.12,7.33,7.33,0,0,1,6.44-5.23C491.16,383.59,494.8,386.42,495.26,392.11Z"/></g><g class="cls-18"><path class="cls-19" d="M519.06,381.69l1.69,20.65-2.48.2-.35-4.25a9.06,9.06,0,0,1-7.48,5.18c-5.74.47-10.13-4-10.61-9.77s3.14-10.95,8.88-11.42a9,9,0,0,1,8.22,4l-.35-4.34Zm-1.63,10.57c-.36-4.42-3.86-8-8.27-7.6s-7.17,4.37-6.81,8.83,3.73,7.93,8.15,7.57S517.79,396.68,517.43,392.26Z"/><path class="cls-19" d="M533.42,382.93l-4.25.34,1.49,18.26-2.48.2-1.49-18.25-2.65.21-.19-2.39,2.64-.22-.45-5.53,2.48-.21.45,5.54,4.25-.35Z"/><path class="cls-19" d="M536.87,374.33a1.74,1.74,0,0,1,1.59-1.92,1.77,1.77,0,0,1,1.92,1.63,1.73,1.73,0,0,1-1.63,1.88A1.7,1.7,0,0,1,536.87,374.33Zm1,5.82,2.48-.2,1.69,20.65-2.48.2Z"/><path class="cls-19" d="M547.11,389.75a10.49,10.49,0,1,1,11.33,9.8A10.41,10.41,0,0,1,547.11,389.75Zm18.43-1.51a8,8,0,1,0-7.3,8.87A8,8,0,0,0,565.54,388.24Z"/></g><g class="cls-18"><path class="cls-19" d="M590.33,384.93l.95,11.65-2.43.19-.92-11.19c-.4-5-3-7.32-6.64-7-3.18.26-5.57,2.65-5.54,7l1,12.22-2.48.21-1.69-20.66,2.48-.2.27,3.39a7.53,7.53,0,0,1,6.31-4.3C585.89,375.85,589.81,378.57,590.33,384.93Z"/></g><g class="cls-18"><path class="cls-19" d="M596.25,393.22l1.54-2a6.72,6.72,0,0,0,5.26,2.27c2.23-.18,3.9-1.6,3.74-3.63-.43-5.16-10.57-2.63-11.09-9.49-.2-3,2.13-5.45,5.6-5.78a8.63,8.63,0,0,1,6.47,2.43l-1.38,1.9a6.53,6.53,0,0,0-4.86-1.93c-2.06.16-3.45,1.52-3.35,3.18.31,4.8,10.54,2.3,11.09,9.53.22,3.18-2.18,5.88-6.11,6.2A9,9,0,0,1,596.25,393.22Z"/></g></g></g><g id="Layer_84" data-name="Layer 84"><polygon class="cls-20" points="161.66 260.82 100.29 287.8 95.31 273.66 52.15 326.9 119.55 336.18 113.79 322.36 175.68 294.45 161.66 260.82"/><g class="cls-18"><g class="cls-18"><path class="cls-21" d="M118.33,205.83l2.29-1,12.81,30.58-2.29,1Z"/></g><g class="cls-18"><path class="cls-21" d="M134.42,223.76a10.49,10.49,0,1,1,13.8,5.81A10.41,10.41,0,0,1,134.42,223.76Zm17-7.14a8,8,0,1,0-4.19,10.69A8,8,0,0,0,151.46,216.62Z"/></g><g class="cls-18"><path class="cls-21" d="M160,221.14l.87-2.33a6.74,6.74,0,0,0,5.7.53c2.06-.87,3.21-2.74,2.43-4.61-2-4.78-10.87.77-13.49-5.59-1.11-2.77.34-5.85,3.54-7.23a8.64,8.64,0,0,1,6.91.3l-.73,2.23a6.59,6.59,0,0,0-5.22-.33c-1.91.8-2.8,2.52-2.2,4.07,1.78,4.47,10.73-1.08,13.5,5.62,1.19,3-.26,6.27-3.89,7.79A9,9,0,0,1,160,221.14Z"/></g><g class="cls-18"><path class="cls-21" d="M175.56,214.61l.86-2.34a6.72,6.72,0,0,0,5.71.53c2.06-.86,3.21-2.73,2.42-4.61-2-4.78-10.86.78-13.48-5.58-1.11-2.77.34-5.85,3.53-7.23a8.64,8.64,0,0,1,6.91.29l-.72,2.24a6.55,6.55,0,0,0-5.22-.33c-1.91.8-2.81,2.52-2.2,4.07,1.78,4.46,10.73-1.09,13.49,5.62,1.2,3-.25,6.26-3.88,7.78A9,9,0,0,1,175.56,214.61Z"/></g><g class="cls-18"><path class="cls-21" d="M206.78,194.43,191,201.05a7.72,7.72,0,0,0,10.21,3.76,10,10,0,0,0,5.39-5.35l1.09,2.59a11.27,11.27,0,0,1-5.65,5c-6,2.51-11.48-.5-13.71-5.81s-.35-11.35,5.12-13.64C199.13,185.19,204.54,188.77,206.78,194.43ZM190.18,199l13.3-5.57c-2-3.34-5.52-5.14-9.11-3.64C190.62,191.36,189.17,195.2,190.18,199Z"/></g><g class="cls-18"><path class="cls-21" d="M212.44,199.16l.86-2.33a6.78,6.78,0,0,0,5.7.53c2.07-.87,3.21-2.74,2.43-4.62-2-4.77-10.86.78-13.48-5.58-1.12-2.77.33-5.85,3.53-7.23a8.64,8.64,0,0,1,6.91.3l-.73,2.23a6.55,6.55,0,0,0-5.22-.33c-1.91.8-2.8,2.52-2.2,4.07,1.78,4.46,10.73-1.08,13.5,5.62,1.19,3-.25,6.26-3.89,7.78A8.91,8.91,0,0,1,212.44,199.16Z"/></g></g></g><g id="Layer_83" data-name="Layer 83"><polygon class="cls-22" points="400.32 143.54 402.37 225.42 378.83 224.4 430 298.08 484.25 226.44 460.71 226.44 457.64 143.54 400.32 143.54"/><g class="cls-18"><g class="cls-18"><path class="cls-21" d="M340.92,105l.42,20.72-2.49,0-.08-4.27a9.08,9.08,0,0,1-7.79,4.71c-5.75.12-9.87-4.57-10-10.41s3.81-10.73,9.57-10.84a9,9,0,0,1,8,4.44l-.08-4.35Zm-2.27,10.45c-.09-4.43-3.36-8.18-7.79-8.09s-7.43,3.92-7.34,8.39,3.23,8.14,7.67,8.06S338.73,119.84,338.65,115.41Z"/><path class="cls-21" d="M366.24,92l.67,33.15-2.49,0-.09-4.26a9.06,9.06,0,0,1-7.78,4.71c-5.76.12-9.87-4.57-10-10.41s3.81-10.73,9.57-10.84a9,9,0,0,1,8,4.44l-.33-16.78Zm-2,22.88c-.09-4.44-3.35-8.18-7.79-8.1s-7.42,3.93-7.33,8.4,3.23,8.14,7.66,8S364.3,119.33,364.21,114.9Z"/><path class="cls-21" d="M391.81,91.51l.66,33.14-2.48,0-.09-4.26a9.06,9.06,0,0,1-7.78,4.71c-5.76.12-9.87-4.57-10-10.41s3.81-10.73,9.57-10.85a9,9,0,0,1,8,4.45l-.33-16.78Zm-2,22.88c-.09-4.44-3.35-8.19-7.79-8.1s-7.42,3.92-7.33,8.4,3.23,8.14,7.66,8S389.87,118.82,389.78,114.39Z"/><path class="cls-21" d="M398.82,97.92a1.73,1.73,0,0,1,1.71-1.82,1.76,1.76,0,0,1,1.81,1.74,1.73,1.73,0,0,1-1.74,1.78A1.7,1.7,0,0,1,398.82,97.92Zm.66,5.87,2.48-.05.42,20.72-2.49.05Z"/><path class="cls-21" d="M416.72,105.85l-4.26.08.36,18.32-2.48,0L410,106l-2.65.06-.05-2.41,2.65,0L409.81,98l2.49,0,.11,5.55,4.27-.09Z"/><path class="cls-21" d="M420.7,97.48a1.73,1.73,0,0,1,1.71-1.82,1.76,1.76,0,0,1,1.81,1.75,1.73,1.73,0,0,1-1.74,1.77A1.7,1.7,0,0,1,420.7,97.48Zm.66,5.87,2.48,0,.42,20.72-2.49,0Z"/><path class="cls-21" d="M430,113.5A10.48,10.48,0,1,1,440.67,124,10.4,10.4,0,0,1,430,113.5Zm18.48-.37a8,8,0,1,0-7.84,8.4A8,8,0,0,0,448.46,113.13Z"/></g><g class="cls-18"><path class="cls-21" d="M473.41,111.35l.23,11.68-2.44,0L471,111.85c-.1-5-2.59-7.49-6.2-7.42-3.19.06-5.71,2.31-6,6.63l.25,12.26-2.49.05-.41-20.72,2.48-.05.07,3.4a7.54,7.54,0,0,1,6.55-3.9C469.53,102,473.28,105,473.41,111.35Z"/></g><g class="cls-18"><path class="cls-21" d="M478.81,120l1.66-1.85a6.76,6.76,0,0,0,5.11,2.59c2.23,0,4-1.37,3.95-3.4-.1-5.18-10.39-3.27-10.48-10.15,0-3,2.46-5.31,5.94-5.42a8.64,8.64,0,0,1,6.32,2.81l-1.5,1.82a6.56,6.56,0,0,0-4.73-2.23c-2.07,0-3.54,1.31-3.55,3,0,4.81,10.38,2.94,10.49,10.19,0,3.2-2.54,5.73-6.48,5.81A8.9,8.9,0,0,1,478.81,120Z"/></g></g></g><g id="Layer_86" data-name="Layer 86"><polygon class="cls-23" points="205.85 465.93 207.23 544.01 191.46 543.03 225.74 613.3 262.07 544.98 246.31 544.98 244.25 465.93 205.85 465.93"/><path class="cls-23" d="M244.67,480.82v-.11c0-4-.2-8.06-.3-12.09l-.35-14.9-.36-15.21-.31-12.88-.19-7.93c0-.07,0-1.29,0-1.29l15.79.82-34.59-63.78-36.09,62.31,15.78-.07.16,4.77.4,12.09.53,16c.35,10.71.9,21.61.95,32.4Z"/><g class="cls-18"><g class="cls-18"><path class="cls-19" d="M175.65,636.65l-4.27.15.65,18.31-2.48.09-.65-18.31-2.65.1-.09-2.41,2.65-.09-.19-5.55,2.48-.09.2,5.55,4.27-.15Z"/></g><g class="cls-18"><path class="cls-19" d="M188.15,633.47l.1,2.82c-3.37-.13-5.88,2.78-5.73,7l.41,11.39-2.49.09-.73-20.71,2.48-.08.14,3.81A6.79,6.79,0,0,1,188.15,633.47Z"/></g><g class="cls-18"><path class="cls-19" d="M210.15,633l.73,20.71-2.48.08-.15-4.26a9,9,0,0,1-7.71,4.83c-5.76.21-9.94-4.41-10.15-10.25s3.64-10.79,9.4-11a9,9,0,0,1,8,4.31l-.15-4.34ZM208,643.51c-.15-4.43-3.48-8.13-7.91-8s-7.36,4-7.2,8.51,3.35,8.09,7.78,7.93S208.19,647.94,208,643.51Z"/></g><g class="cls-18"><path class="cls-19" d="M234.4,641.21l.41,11.68-2.44.09-.4-11.23c-.18-5-2.71-7.45-6.31-7.32-3.19.11-5.68,2.4-5.86,6.72l.43,12.26-2.48.08-.73-20.7,2.48-.09.12,3.39a7.54,7.54,0,0,1,6.49-4C230.38,631.94,234.17,634.83,234.4,641.21Z"/></g><g class="cls-18"><path class="cls-19" d="M239.92,649.77l1.64-1.89a6.73,6.73,0,0,0,5.14,2.52c2.24-.08,4-1.43,3.9-3.46-.18-5.18-10.43-3.11-10.63-10-.07-3,2.38-5.35,5.86-5.51a8.6,8.6,0,0,1,6.35,2.72L250.71,636a6.51,6.51,0,0,0-4.76-2.15c-2.07.07-3.51,1.36-3.5,3,.09,4.81,10.43,2.79,10.64,10,.07,3.19-2.45,5.76-6.38,5.9A9,9,0,0,1,239.92,649.77Z"/><path class="cls-19" d="M257.37,618.92l2.48-.09L261,652l-2.48.09Z"/><path class="cls-19" d="M266.08,641.38a10.49,10.49,0,1,1,10.86,10.31A10.4,10.4,0,0,1,266.08,641.38Zm18.47-.66a8,8,0,1,0-7.7,8.53A8,8,0,0,0,284.55,640.72Z"/><path class="cls-19" d="M291,640.54a10.69,10.69,0,0,1,17.19-8.86l.11,3.06a8.89,8.89,0,0,0-6.94-2.82A8.25,8.25,0,0,0,302,648.4a8.85,8.85,0,0,0,6.72-3.3l.11,3.06A10.68,10.68,0,0,1,291,640.54Z"/><path class="cls-19" d="M332.64,628.7l.73,20.71-2.48.09-.15-4.27a9,9,0,0,1-7.71,4.83c-5.76.21-9.94-4.41-10.15-10.25s3.64-10.79,9.4-11a9,9,0,0,1,8,4.31l-.15-4.34Zm-2.12,10.48c-.15-4.43-3.48-8.13-7.91-8s-7.36,4-7.2,8.51,3.35,8.09,7.78,7.93S330.68,643.61,330.52,639.18Z"/><path class="cls-19" d="M346.93,630.6l-4.27.15.65,18.31-2.48.08-.65-18.3-2.65.09-.09-2.4,2.65-.1-.19-5.54,2.48-.09.2,5.55,4.27-.15Z"/><path class="cls-19" d="M350.78,622.17a1.72,1.72,0,0,1,1.68-1.84,1.76,1.76,0,1,1,.12,3.52A1.71,1.71,0,0,1,350.78,622.17Zm.74,5.86,2.49-.09.73,20.71-2.48.09Z"/><path class="cls-19" d="M360.3,638.05a10.48,10.48,0,1,1,10.85,10.31A10.4,10.4,0,0,1,360.3,638.05Zm18.47-.66a8,8,0,1,0-7.7,8.53A8,8,0,0,0,378.77,637.39Z"/></g><g class="cls-18"><path class="cls-19" d="M403.68,635.23l.42,11.68-2.45.08-.4-11.22c-.17-5-2.71-7.45-6.31-7.32-3.19.11-5.68,2.39-5.86,6.71l.44,12.26-2.49.09-.73-20.71,2.48-.09.12,3.4a7.53,7.53,0,0,1,6.5-4C399.66,626,403.46,628.85,403.68,635.23Z"/></g><g class="cls-18"><path class="cls-19" d="M409.21,643.78l1.63-1.88a6.74,6.74,0,0,0,5.15,2.51c2.24-.08,4-1.42,3.9-3.45-.18-5.18-10.44-3.12-10.64-10-.06-3,2.38-5.35,5.86-5.52a8.66,8.66,0,0,1,6.36,2.72L420,630a6.54,6.54,0,0,0-4.76-2.16c-2.07.07-3.52,1.37-3.5,3,.08,4.81,10.42,2.78,10.64,10,.07,3.19-2.45,5.77-6.39,5.91A9,9,0,0,1,409.21,643.78Z"/></g></g></g><polyline class="cls-24" points="508.05 572.34 534.85 571.12 526.85 561.41"/><polyline class="cls-24" points="537.69 577.89 510.89 579.12 518.89 588.82"/><rect class="cls-25" x="443.57" y="559.14" width="46.95" height="46.95" transform="translate(-26.21 22.02) rotate(-2.63)"/><polygon class="cls-26" points="592.06 549.32 563.72 551.46 551.42 577.08 567.45 600.55 595.79 598.4 608.09 572.78 592.06 549.32"/><g class="cls-18"><path class="cls-19" d="M474.9,594.38l-7-7.87-6,8.75-2.86.19,7.32-10.55-8.46-9.33,2.79-.19,6.94,7.72,5.81-8.58,2.78-.19-7.12,10.38,8.66,9.48Z"/></g><g class="cls-18"><path class="cls-19" d="M589.42,565.06l-10,28.61-2.39.16,3-8.66-9.65-18.84,2.59-.17,8.08,16.3,5.74-17.23Z"/></g></g></g><path class="cls-27" d="M239.07,680.09a12,12,0,0,0,9,22.22c5.74-7.11,3.09-18.73-9-22.22"/><path class="cls-28" d="M368.49,665.87c-3.35.17-3.35.17-4.9,1.38-2.39,3.49-1.11,9,2.69,10.89s9.11-.61,9.89-4.78-3.55-8.46-7.68-7.49"/><path class="cls-28" d="M582,637.93c-4.65-3.08-12.12.45-12.46,6s7,9.94,11.63,6.81,6.31-11.8.83-12.83"/></g></g></svg>