<svg xmlns="http://www.w3.org/2000/svg" viewBox="0 0 941.78 785.8"><defs><style>.cls-1{fill:#3ca9a0;}.cls-2{fill:#5e5153;}.cls-10,.cls-13,.cls-14,.cls-3{fill:#fdcd08;}.cls-13,.cls-14,.cls-3{stroke:#f1f1f1;}.cls-13,.cls-14,.cls-16,.cls-18,.cls-20,.cls-3,.cls-6,.cls-8,.cls-9{stroke-miterlimit:10;}.cls-3{stroke-width:0.14px;}.cls-12,.cls-18,.cls-20,.cls-4,.cls-9{fill:none;}.cls-4{stroke:#fdcd08;stroke-width:1.89px;}.cls-12,.cls-4{stroke-linecap:round;stroke-linejoin:round;}.cls-16,.cls-5{fill:#fff;}.cls-6,.cls-8{fill:#2e62a1;}.cls-12,.cls-18,.cls-6,.cls-8,.cls-9{stroke:#fff;}.cls-13,.cls-6{stroke-width:0.95px;}.cls-7{fill:#f27243;}.cls-8{stroke-width:0.33px;}.cls-9{stroke-width:3.79px;}.cls-11,.cls-28{fill:#5c5052;}.cls-12{stroke-width:2px;}.cls-14{stroke-width:0.11px;}.cls-15{fill:#ea6a7c;}.cls-16{stroke:#5e5153;stroke-width:2.8px;}.cls-17{fill:#3d3436;}.cls-18{stroke-width:0.93px;}.cls-19{fill:#3faba1;}.cls-20{stroke:#665d5e;}.cls-21{font-size:32px;fill:#ea6b7c;font-family:Acre-Bold, Acre;font-weight:700;}.cls-22,.cls-23,.cls-24,.cls-25,.cls-26,.cls-28{font-family:Acre-Light, Acre;font-weight:300;}.cls-23{letter-spacing:-0.01em;}.cls-24{letter-spacing:-0.02em;}.cls-25{letter-spacing:-0.03em;}.cls-26{letter-spacing:-0.01em;}.cls-27,.cls-28{isolation:isolate;}.cls-28{font-size:24px;}.cls-29{letter-spacing:-0.01em;}.cls-30{letter-spacing:-0.01em;}.cls-31{letter-spacing:-0.02em;}.cls-32{letter-spacing:0em;}.cls-33{letter-spacing:-0.01em;}.cls-34{letter-spacing:-0.01em;}.cls-35{letter-spacing:-0.02em;}.cls-36{letter-spacing:-0.02em;}.cls-37{letter-spacing:0em;}.cls-38{letter-spacing:-0.01em;}.cls-39{letter-spacing:-0.04em;}.cls-40{letter-spacing:-0.02em;}.cls-41{letter-spacing:-0.01em;}.cls-42{letter-spacing:-0.02em;}.cls-43{letter-spacing:0em;}.cls-44{letter-spacing:0em;}.cls-45{letter-spacing:-0.03em;}.cls-46{letter-spacing:-0.01em;}.cls-47{letter-spacing:0em;}.cls-48{letter-spacing:-0.02em;}.cls-49{letter-spacing:0em;}.cls-50{letter-spacing:0em;}.cls-51{letter-spacing:-0.02em;}.cls-52{letter-spacing:-0.01em;}.cls-53{letter-spacing:-0.02em;}.cls-54{letter-spacing:-0.03em;}.cls-55{letter-spacing:-0.01em;}.cls-56{letter-spacing:0em;}</style></defs><g id="Layer_2" data-name="Layer 2"><g id="animal"><g id="Layer_79" data-name="Layer 79"><path class="cls-1" d="M941.1,352.68a308.85,308.85,0,0,0-8.31-34,250.72,250.72,0,0,0-15-38.11.73.73,0,0,0-.85-.34.6.6,0,0,0-.49.7,496.38,496.38,0,0,1,7.76,49.45c2,20.54,2.25,41.72-3.11,53.35a108.69,108.69,0,0,0-1.16-52.42,115,115,0,0,0-13.4-30.95.7.7,0,0,0-.89-.25.6.6,0,0,0-.38.77c8.89,24.65,10.19,43.92,8.49,58.24s-6.41,23.66-9.51,28.47a.7.7,0,0,1-.87.25.61.61,0,0,1-.39-.76,70.36,70.36,0,0,0,3.21-27.28,81.82,81.82,0,0,0-3.54-18.67.69.69,0,0,0-.75-.45.65.65,0,0,0-.62.58c-.48,7-3.47,17.72-6.66,27.44s-6.56,18.45-7.79,21.57a.68.68,0,0,1-.59.41.76.76,0,0,1-.68-.3c-6.3-9.31-6.5-21.59-4.54-32.87a118,118,0,0,1,8.49-26.83.58.58,0,0,0-.32-.77.71.71,0,0,0-.9.15c-6.69,7.78-11.92,19.48-15.79,30.79a242.77,242.77,0,0,0-7.7,28.47.68.68,0,0,1-.76.51.63.63,0,0,1-.64-.61c-.13-13.11,4.59-32.19,10.18-50.07s12.06-34.59,15.42-42.95a.58.58,0,0,0-.37-.77.72.72,0,0,0-.9.23c-13.3,19.66-22.41,41.21-28.32,58.52a271.68,271.68,0,0,0-9.15,33,219.31,219.31,0,0,0,4.46-49,172.74,172.74,0,0,0-3.45-31.1.67.67,0,0,0-.77-.5.65.65,0,0,0-.62.66c1.23,19.54-1.81,40.65-5.54,58a329.73,329.73,0,0,1-9.64,35.35.68.68,0,0,1-.63.44.71.71,0,0,1-.68-.38c-3.86-8.41-3.1-22.85-.82-37.08a308,308,0,0,1,8.29-35.84.59.59,0,0,0-.45-.74.76.76,0,0,0-.89.33,171.93,171.93,0,0,0-16.45,43.13,132.8,132.8,0,0,0-3.26,19.16,149.94,149.94,0,0,0-5.06-52.1,125.49,125.49,0,0,0-12.15-29.08.72.72,0,0,0-.88-.28.59.59,0,0,0-.42.75c8.46,26.65,9.76,47,8.56,61.39s-4.87,22.88-6.37,25.8a.66.66,0,0,1-.63.35.72.72,0,0,1-.64-.36c-6.83-12.73-8.46-26.57-7.92-38.52a99.4,99.4,0,0,1,5-27.18c.12-.36-.09.05-.39.63s-.68,1.32-.9,1.64c-5.41,8-9.84,20.55-13.21,32.72s-5.68,24-6.87,30.66a.67.67,0,0,1-.73.53.66.66,0,0,1-.68-.59c-1.12-17.45,1-39,4-58.84s6.82-37.82,9.19-48.13a.62.62,0,0,0-.52-.73.71.71,0,0,0-.86.4c-9.51,24.64-15.68,50.51-19.47,70.21s-5.21,33.24-5.21,33.24a173.85,173.85,0,0,0-3.88-49.92,185.26,185.26,0,0,0-9.88-31.42.69.69,0,0,0-.84-.37.64.64,0,0,0-.5.73c4.34,22.57,3.27,38.74,1.1,49.27s-5.41,15.42-5.41,15.42a116.77,116.77,0,0,0,3-27,122.75,122.75,0,0,0-1.76-20.35.7.7,0,0,0-1.38.15,111.6,111.6,0,0,1-2.32,28,108.62,108.62,0,0,1-6.29,20,.7.7,0,0,1-.87.37.61.61,0,0,1-.47-.76c4.71-15.86,4.83-33.22,3.12-48.77a216.71,216.71,0,0,0-7.87-37.93.67.67,0,0,0-.81-.45.63.63,0,0,0-.56.7,162.22,162.22,0,0,1-2.89,61.34,155.32,155.32,0,0,1-11.38,32.37.68.68,0,0,1-.72.35.69.69,0,0,1-.6-.53c-4-19.86-2.59-29.68-2.27-37.29a62.66,62.66,0,0,0,0-7.76A20.36,20.36,0,0,0,706,326.33c-.72-.94-1.44-1.85-2.06-2.59-2.33-2.79-6.44-5.92-6.25-5.56,10.29,19.72,6.52,47.11.11,70.46S682.33,431.32,682,434.93c0,.18,5.49-.51,11.05-1.25s11.16-1.53,11.37-1.53h231c-1.25-12.83-.33-26.14,1.16-39.52S940.1,365.8,941.1,352.68Z"/><path class="cls-1" d="M0,436.77H41.69l0,.58H690.72a.67.67,0,0,0,.71-.63V307.46c-.56-2.92-1.16-5.84-1.84-8.74,0,0,2.08,91-26.34,115.35-.51.43-1.33,0-1.14-.63,3-9.42,14.57-48.8,3.77-68a.73.73,0,0,0-1.34.24,168.67,168.67,0,0,1-16.07,60.58c-.29.6-1.32.46-1.36-.19-.56-8.4-1-37.73,14.15-85,.21-.65-.7-1.11-1.18-.59-6.65,7.16-27.51,32.58-35.7,76.64,0,0,5.92-30.76-7.79-67.26-.26-.71-1.44-.52-1.38.22,1.32,15.06,3.87,60.16-11.16,74.28a.73.73,0,0,1-1.2-.38c-1.2-8.55-7.41-59.17,7.68-97.17.29-.72-.84-1.19-1.25-.51-7.16,11.49-21.18,39.07-22.16,79.9.17-5.74.9-54.63-21.91-100.43-.33-.67-1.48-.37-1.33.35,3.75,18.05,15.38,79.55,4.64,102.82,9-40.21-7.28-71.85-14.56-83.39-.42-.66-1.52-.19-1.27.52,17.8,49.31,5.19,77.1-1,86.73-.41.64-1.49.2-1.26-.51,6.47-19.49,2.2-37.95-.33-46a.72.72,0,0,0-1.37.13c-.94,14.06-12,42.84-14.46,49a.74.74,0,0,1-1.25.1c-12.63-18.62-.81-49.17,3.94-59.73.3-.66-.72-1.18-1.22-.61-13.38,15.55-20.91,46.82-23.49,59.27-.16.75-1.4.66-1.41-.1-.25-26.24,18.9-76.31,25.61-93,.28-.7-.83-1.18-1.27-.54-26.61,39.31-36.42,86.22-37.47,91.54,7.65-37.68,3.9-66.41,1-80.15a.71.71,0,0,0-1.39.18c2.46,39.1-12.18,84.52-15.19,93.37a.72.72,0,0,1-1.29.07c-7.74-16.83,3-57.8,7.47-73,.21-.73-1-1.08-1.34-.4-17.6,31.95-19.72,62.31-19.72,62.31,1.64-21.93-2.93-50.51-10.51-67.68,0-.06-.05-.11-.07-.16a.57.57,0,0,1,0-.46c1.55-3.16,3.24-6.29,5.1-9.37,0,0-2.1,2.4-5.3,6.62a.77.77,0,0,1-1.28-.12A89.11,89.11,0,0,0,447,309c2.37,6.93,4.24,13.43,5.73,19.56,0,.15-.06.28-.09.44-1.71,2.43-3.58,5.19-5.5,8.23.75-2,1.27-3.16,1.27-3.16-4.31,4.7-8.08,12.4-11.27,21.06v0c-6.9,14.27-12.46,31.15-12.14,48.12,0,0,0,.07,0,.1-.36,2.13-.55,3.36-.55,3.36-1.49-13.2-.73-29.46,1-45.75l0-.12a93,93,0,0,1,4.57-11.41,64.56,64.56,0,0,0-4,6.12c3-24.8,8.13-48.86,11-61.42.18-.76-1.09-1.05-1.37-.31a387,387,0,0,0-15.16,50,1.83,1.83,0,0,1-.13.24c-3,3.36-6.49,7.66-10.19,12.79a.75.75,0,0,1-1.32-.25A187.76,187.76,0,0,0,397.3,316a.7.7,0,0,0-1.33.36c8.68,45.14-4.31,64.68-4.31,64.68a120.9,120.9,0,0,0,1.28-47.42.71.71,0,0,0-1.39.15,111.06,111.06,0,0,1-4.42,36.31c.17-20.94.31-35.85-5.44-60.6,0,0,.06,3.39,0,8.34-3.13-12.95-6.25-19.46-6.25-19.46,12.69,58.28-15.15,92.08-15.15,92.08-.2-1-.4-2-.61-3l-.15-3.67c1.33-14.21-6.77-36.72-12.25-46.46a1.66,1.66,0,0,0-.2-.25c1.38-5.07,2.89-10.33,4.68-15.91.21-.65-.72-1.13-1.2-.6a105.56,105.56,0,0,0-8.06,9.95.78.78,0,0,1-1.28-.07c-4.94-9-8.43-11.39-8.43-11.39A90.28,90.28,0,0,1,340,333.61c0,.18,0,.32-.06.5-8.18,12.15-18.32,31.36-24,57.74a22.54,22.54,0,0,1-1.07,5.28c.34-1.79.69-3.55,1.07-5.28.76-7,.4-21.26-8.54-44.41-.27-.7-1.45-.51-1.38.23,1.31,12.68,2.92,44.62-12.12,57.27a.74.74,0,0,1-.82.08c-3.07-1.68-17.77-2.24-5.25-43.09.21-.7,6.78-22.54,6.25-22-4,4.09-17.94,30.82-20.59,61.4l-.67,1.43a.78.78,0,0,1-.46.39c-18.59,5.79,2.06-58.09-.18-63.22-1.19-2.74-12.92,31.59-19.27,53.55-3.87-21-8.89-44.12-8.89-44.12,3,13.19-5.68,57.54-8.89,56.64a.68.68,0,0,0-.9.68c1.27,10.44-7.58,7.48-8.89,7a.51.51,0,0,1-.27-.21c-15.87-21-12.26,4.86-11.82,7.8-.06.17-.12.31-.19.48-18.74,17-16-78.66-16-78.66l-12.51,56.57c0,.11,12,8.87,10.9,11.32-2.83,6.3-7.76,8.18-11.65,7.75-.09-.22-.18-.48-.29-.76-.28.22-.55.41-.81.58a6.15,6.15,0,0,1-4.41-3.18,14.09,14.09,0,0,0,1.12,4.15c-3.42-.36-5.26-5.58-6.25-11.29,1.9.06,5.31.27,8.65.48,1.51-14.93,4.71-61.95-6.65-87.62,0,0-2.11,52.93-3,76.32-.09-2.43-.07-4-.07-4,2.75-17.36-12.78-61.64-15.3-70.72-.15,10.71-4.14,57.94-11.3,70.54-2.17,26.35-4.82,31.12-9.39,17.79-1.64,2.72,12.9,6.15,14.22,3.58,1.73-3.37-2-13.89-4.83-21.37.73-8.9,1.41-20.24,2.09-34.18,0-.71,2.9-14,2.6-13.38-4.3,9.62-11.85,33.33-13.39,44.27a.72.72,0,0,1-1.37.11,69.52,69.52,0,0,1-2.68-12.39v-.15a89.39,89.39,0,0,1,8.33-28.59A78.49,78.49,0,0,0,133.84,361c-.32.65-1.43.42-1.36-.29a93.59,93.59,0,0,1,4.31-21s0-.07.05-.1c.89-1.55,1.81-3.12,2.79-4.72,0,0-.63.57-1.71,1.64.62-1.64,1-2.55,1-2.55a36.32,36.32,0,0,0-4.24,5.82l-.07.08A170.14,170.14,0,0,0,117.27,362c-.38.58-1.39.31-1.32-.37,3-28.27,3-27.42,6.6-43.35.08-.36-.51-.51-.65-.16-14.62,37.94-17.08,55-19.36,71.58l-.6-.05A177.27,177.27,0,0,0,97.6,347v-.07a283.54,283.54,0,0,0-6.54-48.79s.22,10.23-.53,24.71a126.56,126.56,0,0,0-5.31-12.61,169.89,169.89,0,0,1,4.1,29v.09a248.52,248.52,0,0,1-6.63,39.42,121.3,121.3,0,0,0,.77-45.13.7.7,0,0,0-1.38.14c1.25,28.5-8.7,49.26-12.73,56.43l.33-1.78c13.23-33,3.31-75.17-2.3-93.75-.23-.74-1.49-.51-1.37.26,8,53.67-15.19,95.51-15.19,95.51-.52-2.64-1.05-5.15-1.59-7.61v-.16c1.42-14.7,5-35.59,13.5-62.15.21-.65-.71-1.11-1.2-.59-3.77,4.08-12.08,14-20.07,29.81a.76.76,0,0,1-1.35-.08C31.21,324.45,23.3,319,23.3,319c6.85,11,11.33,24.68,14.23,38.8l0,.33a176.62,176.62,0,0,0-11.66,38.42s5.91-30.76-7.79-67.26c-.27-.71-1.45-.52-1.38.22,1.32,15.05,3.87,60.14-11.16,74.27a.73.73,0,0,1-1.2-.36M272.7,416.24c.07-3,.2-5.77.35-8.47-.24,6.47.76,4.87-.22,8.07C274.65,414.06,297.06,461.62,272.7,416.24Zm71.71-14.87s-2.05-15.5,3.21-44.54c1.45,6,2.79,12.41,2.79,16.58C350.41,384.53,350.05,390.22,344.41,401.37Zm71.88-11.07a159.76,159.76,0,0,0,.25-18.37,97.53,97.53,0,0,1,6.3-21.46C418,373.63,416.29,390.3,416.29,390.3Zm38.49,5A65.48,65.48,0,0,1,447,372.21,159.21,159.21,0,0,1,455.5,334C459.48,368.8,454.78,395.33,454.78,395.33Z"/><path class="cls-2" d="M941.72,376.94,737,398.12c-69.84,7.23-139.8,14.46-210.06,15.81C463,415.16,399,411.51,335.24,407.34,223.48,400,111.83,391.15,0,384.83v261.1c84.93-5.13,170-8.83,255-6.19,96.69,3,193.75,14.17,289.84,3.8,54-5.82,106.89-18.39,160.89-23.94,75.19-7.73,151-1.76,226.68,1.38,3.11.52,6.24.93,9.34,1.3Z"/><path class="cls-1" d="M184.21,420.49l0-.09C184.2,420.59,184.21,420.62,184.21,420.49Z"/><path class="cls-1" d="M272.7,416.63l.13-.46A.72.72,0,0,0,272.7,416.63Z"/><path class="cls-1" d="M139.24,404.37l.08-.16Z"/><path class="cls-1" d="M358.33,408.07l-.07.06.07-.22Z"/><path class="cls-1" d="M316,389.06c-.38,2-.73,3.94-1.07,6A28.45,28.45,0,0,0,316,389.06Z"/><path class="cls-1" d="M136.19,410.47l0-.05Z"/><path class="cls-1" d="M136.09,410.66l.1-.19Z"/><path class="cls-1" d="M140.3,402.25Z"/><path class="cls-1" d="M133.42,399.33v0Z"/><path class="cls-1" d="M254,600c-5-.44-9.13-5.12-9.77-11.13a13.62,13.62,0,0,1,2.12-9.11,9.49,9.49,0,0,1,6.77-4.35,8.42,8.42,0,0,1,1.74,0c5,.44,9.13,5.12,9.77,11.13a13.71,13.71,0,0,1-2.13,9.12,9.45,9.45,0,0,1-6.77,4.34A8.34,8.34,0,0,1,254,600Z"/><path class="cls-1" d="M276.34,618.41c-4.06,3.08-10.16,2.37-14.51-1.7a13.45,13.45,0,0,1-4.27-8.25,10,10,0,0,1,2.3-7.86,9.76,9.76,0,0,1,1.29-1.2c4.06-3.08,10.17-2.37,14.51,1.7a13.44,13.44,0,0,1,4.27,8.26,10,10,0,0,1-2.3,7.85A9.76,9.76,0,0,1,276.34,618.41Z"/><path class="cls-1" d="M256.31,562.4a13.77,13.77,0,0,1-1.13,7,9.23,9.23,0,0,1-5.9,5.32,6.47,6.47,0,0,1-1.24.24c-5,.57-10-3.61-11.57-9.72a14.26,14.26,0,0,1,.69-9.47,9.32,9.32,0,0,1,5.9-5.33,8.76,8.76,0,0,1,1.24-.24c3.45-.38,6.86,1.45,9.18,4.61l-6.34,7.11Z"/><path class="cls-3" d="M434.07,567.42l30.68-14.85c5.12-2.48,11-1,13.12,3.39s-.31,9.89-5.43,12.37l-30.68,14.85c-5.13,2.48-11,1-13.13-3.39S428.94,569.9,434.07,567.42Z"/><path class="cls-4" d="M526,535.32s3.15,6.46-11.35,13.45a12.2,12.2,0,0,1-12.37-1s-7-5.35-16.7-.28c-12.24,6.36-10.22,11.3-10.22,11.3"/><path class="cls-4" d="M518.3,536.63c-9,1.56-9.79,10.58-9.79,10.58s1,8.3-14.13,13.8c-14,5.11-19.36.89-19.36.89"/><path class="cls-4" d="M474,555.34a21.59,21.59,0,0,0,14.69-1.76s8-4.2,7-10.32,5.34-8.14,7.63-9.39c0,0,6.09-2.78,12.4-1.71"/><path class="cls-4" d="M471.65,560.17c-1-11.1,5-14.91,5-14.91s7-5.25,14.79,1.3c8,6.68,11.62,1.22,13.67-.25a16.73,16.73,0,0,0,4.55-12.37"/><path class="cls-5" d="M209.81,468.52a59.78,59.78,0,0,1-4.27,10.18c-1.67,3.24-3.49,6.39-5.32,9.52-3.67,6.25-7.5,12.39-10.63,18.84a46.46,46.46,0,0,0-3.67,10,17.7,17.7,0,0,0-.42,5.16,31.26,31.26,0,0,0,1,5.2c1.85,6.88,5.7,13.09,8.88,19.61a60.79,60.79,0,0,1,4,10.16,66.48,66.48,0,0,1,2.1,10.71,169.88,169.88,0,0,1,.68,21.74,175.88,175.88,0,0,0,.64,21.66,38.64,38.64,0,0,0,2.52,10.49,17.21,17.21,0,0,0,6.7,8.28,17.21,17.21,0,0,1-6.83-8.22,38.57,38.57,0,0,1-2.68-10.52,174.64,174.64,0,0,1-.94-21.7,169.38,169.38,0,0,0-1-21.62,64.81,64.81,0,0,0-2.21-10.53,60.41,60.41,0,0,0-4.11-9.93c-1.63-3.21-3.42-6.35-5.07-9.6A55.31,55.31,0,0,1,185,527.79a32.25,32.25,0,0,1-1.08-5.45,19.26,19.26,0,0,1,.39-5.63,47.84,47.84,0,0,1,3.7-10.38c3.13-6.61,6.92-12.81,10.51-19.07,1.8-3.14,3.57-6.28,5.18-9.48a56.45,56.45,0,0,0,4-9.85Z"/><path class="cls-5" d="M120.27,485.61a103.73,103.73,0,0,0-15.59,11.3,85.92,85.92,0,0,0-6.88,6.75,91.12,91.12,0,0,0-6.15,7.43c-7.75,10.32-13.26,22.14-18.84,33.84-2.79,5.86-5.65,11.7-8.82,17.38a22.71,22.71,0,0,1-6.4,7.45,25.84,25.84,0,0,1-8.88,4.13c-6.36,1.66-12.94,1.57-19.41,1.53-3.24,0-6.49-.07-9.72.2a26.7,26.7,0,0,0-4.78.82,11.14,11.14,0,0,0-4.3,2.2,10.91,10.91,0,0,1,4.28-2.26,26.8,26.8,0,0,1,4.79-.9c3.23-.32,6.49-.32,9.73-.34,6.47,0,13-.06,19.26-1.79a25.25,25.25,0,0,0,8.61-4.14,22.25,22.25,0,0,0,6.09-7.3c3.08-5.7,5.85-11.55,8.56-17.45,5.42-11.76,10.79-23.73,18.53-34.33a93.94,93.94,0,0,1,6.16-7.64,87.52,87.52,0,0,1,6.92-7,104.66,104.66,0,0,1,15.74-11.73Z"/><path class="cls-5" d="M325.87,556.82c-8.3-5.13-17.15-9.22-25.66-13.75s-16.7-9.69-23-16.62a22.15,22.15,0,0,1-2.21-2.71c-.69-.94-1.43-1.83-2.08-2.8a51,51,0,0,1-3.28-6.15,68.85,68.85,0,0,1-4.36-13.4c-2.06-9.31-2.94-18.93-4.63-28.68a104.4,104.4,0,0,0-3.5-14.64c-.4-1.21-.92-2.4-1.38-3.6l-.71-1.8c-.26-.59-.58-1.16-.88-1.75l-1.82-3.47-2.25-3.27a18.82,18.82,0,0,0-1.16-1.61l-1.35-1.48c-.9-1-1.78-2-2.73-2.91-2-1.8-4-3.35-5.9-4.84-3.84-2.94-7.48-5.74-9.42-9a12.53,12.53,0,0,1-1.8-5.1,37.27,37.27,0,0,1,0-6.44c.12-2,.31-4.22.29-6.59-3.75-11.69-11.46-9-15.38-6.71,0,.14-.08.29-.11.43a20.41,20.41,0,0,0-2.08,1.08l-.21.17,0,0a25.56,25.56,0,0,0-4.72,3.72,121.42,121.42,0,0,1-13.21,7.39,136.43,136.43,0,0,1-22,8.3,95.56,95.56,0,0,1-23.09,3.69,56.23,56.23,0,0,1-11.48-.82,95.14,95.14,0,0,1-11.36-3c-7.56-2.47-15-5.63-22.66-8.44s-15.59-5.27-23.8-6.17-16.65-.39-24.31,2.71A42,42,0,0,0,43,414.85c-3.2,2.43-6.5,4.93-10.49,5.82,4-.68,7.54-3,10.86-5.31A41.16,41.16,0,0,1,54,409.72c7.55-2.6,15.72-2.69,23.53-1.38s15.36,4,22.74,7.2,14.68,6.72,22.37,9.69a98.26,98.26,0,0,0,11.89,3.83,62.33,62.33,0,0,0,12.64,1.5A102.58,102.58,0,0,0,172,427.75,141.62,141.62,0,0,0,195.71,420l.63-.28q-1,2.52-1.69,5.07c-.85,2.9-1.47,6-2,8.73s-1.1,5.54-1.74,8.23c-1.27,5.36-3,10.5-5.72,14.72a18.31,18.31,0,0,1-11.55,8.13c-4.84,1.09-10.37.41-16-.17s-11.8-1.22-18,.27A35.06,35.06,0,0,0,123.93,474a122,122,0,0,0-11.37,13.27c-1.75,2.26-3.5,4.48-5.32,6.63s-3.6,4.28-5.62,5-4.53,0-7.24-.87-5.5-1.69-8.29-2.41c-5.55-1.51-11.16-2.74-16.82-3.74A199.18,199.18,0,0,0,1,491.63a197.82,197.82,0,0,1,67.87,2.59q8.33,1.75,16.45,4.27c2.72.79,5.39,1.74,8.07,2.65a34.29,34.29,0,0,0,4.31,1.32,9.91,9.91,0,0,0,5.11-.17,12,12,0,0,0,4.28-2.61c1.18-1.07,2.13-2.15,3.11-3.22,2-2.16,3.83-4.37,5.66-6.56a117.45,117.45,0,0,1,11.35-12.39A30.12,30.12,0,0,1,140.85,470c5-1,10.45-.39,16.05.42s11.6,1.83,18,.69a24.79,24.79,0,0,0,9.13-3.65,26.17,26.17,0,0,0,7-6.85c3.69-5.29,5.77-11.16,7.35-16.85.79-2.86,1.47-5.71,2.11-8.52s1.25-5.38,2.09-8a42.12,42.12,0,0,1,7.07-13.71c.32-.38.65-.73,1-1.08l.39-.22c-.13,4.67.08,9.23.31,13.66.54,10.23,1,20-2.21,29.05l-1.2,3.4c-.48,1.11-1,2.21-1.5,3.32l-.77,1.66-.88,1.62c-.6,1.07-1.17,2.16-1.79,3.23-2.57,4.24-5.38,8.4-8.39,12.49-5.95,8.22-12.47,16.32-17.58,25.53a71.92,71.92,0,0,0-6.2,14.6,79,79,0,0,0-1.57,7.82c-.32,2.62-.5,5.19-.74,7.71a56.61,56.61,0,0,1-1.08,7.37,29.33,29.33,0,0,1-2.52,6.81,34.85,34.85,0,0,1-4.17,6,49.64,49.64,0,0,1-5.37,5.18c-7.77,6.39-17,10.93-25.63,16.52a65.49,65.49,0,0,0-12,9.58A35.61,35.61,0,0,0,113,594a31,31,0,0,0-3,7.06,31.23,31.23,0,0,1,3.29-6.9,35,35,0,0,1,4.87-5.84,64.86,64.86,0,0,1,12.26-9c8.73-5.21,18.14-9.35,26.48-15.66a51.86,51.86,0,0,0,5.87-5.24,37.14,37.14,0,0,0,4.79-6.39,32.59,32.59,0,0,0,3.1-7.45,59.71,59.71,0,0,0,1.46-7.78c.34-2.57.62-5.1,1-7.56s1.15-4.79,1.73-7.18a67,67,0,0,1,6.32-13.38c5.18-8.54,11.84-16.21,18.21-24.32,3.21-4,6.31-8.24,9.22-12.64.71-1.12,1.37-2.27,2.06-3.41l1-1.71.91-1.8c.6-1.2,1.23-2.39,1.8-3.61l1.52-3.79a28.52,28.52,0,0,0,1.27-3.89c.36-1.32.82-2.63,1.07-4a62.64,62.64,0,0,0,1.16-8.08c.45-5.37.37-10.64.3-15.77l0-2.74a20.89,20.89,0,0,0,2.83,6.06c3.42,5,7.94,7.86,11.82,10.66,2,1.39,3.86,2.73,5.53,4.15.82.73,1.55,1.55,2.33,2.31l1.17,1.16a14.12,14.12,0,0,1,1,1.3l2,2.65,1.68,2.91c.27.49.58,1,.82,1.47l.69,1.57c.45,1.05.95,2.07,1.36,3.15a97.11,97.11,0,0,1,3.82,13.56c2,9.33,3.32,19.08,5.85,28.68a73.6,73.6,0,0,0,5.23,14.07,56.45,56.45,0,0,0,3.85,6.53c.74,1,1.59,2,2.38,3a24.93,24.93,0,0,0,2.5,2.82c7.11,7.17,15.81,12.1,24.56,16.3s17.72,7.91,26.13,12.64,16.1,10.93,21.13,19.32C341.72,568.59,334.1,562,325.87,556.82Z"/><path class="cls-6" d="M189.47,489.93c1.75-7.14,8.12-10.92,15.3-9.15a13.27,13.27,0,0,1,4.76,2.22l-1.62,6.57a8.1,8.1,0,0,0-4.39-2.55,6.18,6.18,0,1,0-2.94,12,7.81,7.81,0,0,0,5.07-.21L204,505.41a13.12,13.12,0,0,1-5.23-.3C191.62,503.34,187.72,497,189.47,489.93Z"/><path class="cls-6" d="M282,542.72c-2.15-7,1.4-13.57,8.46-15.74a13.23,13.23,0,0,1,5.22-.55l2,6.48a8.1,8.1,0,0,0-5.07.06,6.18,6.18,0,1,0,3.6,11.82,8,8,0,0,0,4.24-2.79l2,6.5a13.19,13.19,0,0,1-4.64,2.44C290.68,553.11,284.12,549.72,282,542.72Z"/><path class="cls-6" d="M132.38,419.85c5.61-4.73,13-4,17.73,1.68a13.27,13.27,0,0,1,2.54,4.62l-5.16,4.34a8.25,8.25,0,0,0-2-4.66,6.12,6.12,0,0,0-8.83-.9,6.19,6.19,0,0,0-.6,8.84,7.92,7.92,0,0,0,4.22,2.83L135.05,441a13.23,13.23,0,0,1-4.05-3.34C126.25,432,126.8,424.55,132.38,419.85Z"/><path class="cls-6" d="M90.47,497.62c3.53-6.44,10.67-8.43,17.14-4.85a13.06,13.06,0,0,1,4,3.38l-3.25,5.93a8.09,8.09,0,0,0-3.58-3.61,6.12,6.12,0,0,0-8.55,2.35,6.18,6.18,0,0,0,2.61,8.47,7.89,7.89,0,0,0,5,1.11l-3.27,6a13.37,13.37,0,0,1-5-1.64C89.09,511.13,87,504,90.47,497.62Z"/><path class="cls-7" d="M703,497.66s7.79-22.58-10.85-38-34.17,3.51-34.17,3.51-14.56,16.82,1,30.87,27,3.42,29.57,1.1c0,0,11.79-11.28-.74-25.75,0,0-12.57-12.46-23.92-.63,0,0-9.61,10.28.49,18.86,0,0,4,3.83,8.47,2.22,0,0,2.6-1.22-.34-2.15,0,0-8.7-1.35-6.69-10.47,0,0,3-10.83,13.86-5.14,0,0,10.75,5.7,5.27,15.69,0,0-4.88,9-15.53,5-13.37-5-9.43-18.36-9.43-18.36s1.77-11.61,16.47-12.63c0,0,15.46-.89,20.64,16.45,0,0,3.27,8.15,3.34,14.71C700.4,492.94,701.22,499.93,703,497.66Z"/><path class="cls-1" d="M209,162c-.86,9.71-1.77,19.42-1.77,29.18a33.06,33.06,0,0,0,2.06,12.75,14.37,14.37,0,0,0,4.4,6.11c.8.64,1.28.56,1.61-.47,4.22-13.27,8.61-26.49,9.5-40.56a78.57,78.57,0,0,0,0-9.46,2.92,2.92,0,0,1,.16-1.69c.68.31.54.89.6,1.35a90.06,90.06,0,0,1-1.36,26.57c-2,10.85-5.21,21.38-8,32a210.13,210.13,0,0,0-4.71,21.5.91.91,0,0,1-.49.86c-6.63-13.16-13.8-26-20.48-39.19.64,1.69,1.26,3.38,2,5q5.92,14.3,11.89,28.56c5.22,12.49,10,25.12,13.22,38.3,3.12,12.88,4.42,25.9,2.76,39.11-.24,1.94-.26,1.95-2.17,1.51a63.13,63.13,0,0,1-27.41-14,2.31,2.31,0,0,1-.89-3c1.41-4,.9-8.1,0-12.13-2-8.4-5.51-16.21-9.11-24-4.2-9.1-9-17.82-15.35-25.61-6.49-7.95-13.94-14.75-23-19.62a47.23,47.23,0,0,0-13.81-5c-2-.37-2.11-.17-1.46,1.67a277.79,277.79,0,0,1,7.8,27.16c4.34,17.91,11.05,34.73,22.21,49.54A47.64,47.64,0,0,0,170.41,301c3.52,2.11,7.24,3.54,11.45,2.93a7.91,7.91,0,0,0,1.36-.32c1-.32,1.09-.86.39-1.65-9.29-10.47-15.59-22.78-21.45-35.36-5.18-11.1-9.92-22.41-15.9-33.14,2.5,3.79,4.71,7.77,6.85,11.8,5.49,10.36,10.35,21,16.1,31.27,4.93,8.77,10.44,17.12,17.52,24.32A67.55,67.55,0,0,0,217.51,319c1.82.5,1.81.49,1.49,2.4-2,12.26-3.4,24.42-5.64,36.64-1.92,10.49-3.91,20.09-3.64,32.15.11,5.05,3.71,17.82,4.94,18.87s3.33.24,5.82-2.71c3.91-4.64,4.37-6.7,4.56-8.94s-3-14.41-2.87-22c.28-12.51,4.76-26.75,6.27-39.13.14-1.14.84-1.42,1.74-1.7a142.76,142.76,0,0,0,29.95-13.11c2.45-1.45,4.82-3,7.22-4.58.56-.35,1-.73,1.79-.35,4.88,2.47,9.77,1.7,14.54-.15,11-4.24,19.22-11.94,25.9-21.42,9.2-13.07,14-27.6,13-43.77a70.36,70.36,0,0,0-18.39-43.67c-.55-.61-1.09-1.68-1.9-1.46s-.63,1.45-.77,2.24c-2.13,11.72-4.31,23.43-7.88,34.81A179.28,179.28,0,0,1,272,289.21a52.57,52.57,0,0,0-6.91,13.66,15.26,15.26,0,0,0-.66,5.85c.12,1.44.41,1.58,1.63.83A92.51,92.51,0,0,0,287,292.27c12.59-14.14,19.27-30.78,20.39-49.74,0-.33,0-.66.08-1,0-.08.08-.15.24-.43a80.14,80.14,0,0,1-.77,11c-3,21.24-13,38.53-29.07,52.31a114.4,114.4,0,0,1-33.73,19.68c-4.23,1.63-8.54,3-12.9,4.23-1.77.49-1.88.4-1.69-1.42a151,151,0,0,0,.56-28.2,115.62,115.62,0,0,0-2.41-14.92,4,4,0,0,1,.53-3.07,115.74,115.74,0,0,1,13.72-18.67c1.11-1.27,2.24-2.52,3.36-3.78.35-.39.7-.76,1.32-.5,5.45,2.37,10.64,1.14,15.67-1.25,8.44-4,15.2-10.13,21.05-17.34,6.55-8.06,10.76-17.18,11.59-27.65,1.2-15.16-4.12-27.69-15.62-37.58-1.5-1.29-1.66-1.22-2.19.75-1.86,6.95-3.84,13.86-7.06,20.34a96.93,96.93,0,0,1-8.38,13.15c-5.06,7.05-10.34,13.94-15.14,21.16-3,4.46-5.64,9.11-6.53,14.55a13.9,13.9,0,0,0,.66,7.5c.36.93.8,1.05,1.53.39,8.95-8.09,18.35-15.71,26.13-25,6.31-7.57,11-16,12.67-25.88a.56.56,0,0,1,.23-.36,37.84,37.84,0,0,1-1.12,6.45c-2.26,8.64-6.75,16.06-12.29,22.9A187.92,187.92,0,0,1,252,246.58c-7.59,7.3-15.32,14.47-22,22.66-1.28,1.56-2.46,3.2-3.69,4.79-.22.28-.37.77-.78.72s-.41-.57-.52-.91a173.26,173.26,0,0,0-7.84-20.58,11.63,11.63,0,0,1-1-6.28c1.11-11,2.7-21.86,4.89-32.66a2,2,0,0,1,2-1.91,14.34,14.34,0,0,0,8.39-4.71c4.63-4.75,7.31-10.64,9.24-16.89,3.27-10.59,5-21.52,1.9-32.34-4-14.1-9.62-20.43-9.62-20.43a49.75,49.75,0,0,0-20-15.78c-.38-.17-.74-.4-1.1-.59l-.55.15c-.06,6.12-.08,12.24-.33,18.36Z"/><path class="cls-8" d="M320.6,261.34c7.43-11.64,21.06-14.48,32.76-6.94a24.93,24.93,0,0,1,7.13,6.85L353.64,272a15.41,15.41,0,0,0-6.26-7.23c-5.81-3.74-12.81-2.2-16.35,3.35a11.63,11.63,0,0,0,3.85,16.21A14.81,14.81,0,0,0,344,287l-6.88,10.77a24.87,24.87,0,0,1-9.13-3.72C316.32,286.51,313.18,272.93,320.6,261.34Z"/><path class="cls-9" d="M611.65,552.2c-59.44,0-72.72,21.94-112.63,44-31.29,17.28-81.17,30.66-115.36,12.29"/><polygon class="cls-5" points="396.99 603.31 386.97 610.26 385.03 622.29 368.5 598.62 396.99 603.31"/><path class="cls-9" d="M605.39,420.06s-46.63,69.14-197.1,69.14c-86.54,0-138.11-42.15-158.63-63.43"/><polygon class="cls-5" points="262.08 424.77 251.96 428.12 247.34 437.74 239.34 413.78 262.08 424.77"/><path class="cls-6" d="M355.78,473.43c0,5.35-3.74,9.37-9.62,9.37h-2.49v7.65h-6.94V463.92h9.39A9.35,9.35,0,0,1,355.78,473.43Zm-7.17,0a2.85,2.85,0,0,0-3-2.8h-1.92v5.57h1.92A2.74,2.74,0,0,0,348.61,473.43Z"/><path class="cls-6" d="M357.81,477.19a13.77,13.77,0,1,1,13.77,13.75A13.38,13.38,0,0,1,357.81,477.19Zm20.37,0a6.59,6.59,0,1,0-6.6,6.78A6.58,6.58,0,0,0,378.18,477.19Z"/><path class="cls-6" d="M398.13,500.81h-1.39v2.26H393v-2.26h-6v-3.2l5-10h4.72v9.74h1.39ZM393,497.35v-5.23l-2.25,5.23Z"/><path class="cls-6" d="M399.76,475.52c1.65-1.7,3.41-3.53,4.94-5.19a4.24,4.24,0,0,0,1.45-2.67,1.45,1.45,0,0,0-1.45-1.46c-1.07,0-1.71,1-1.69,2.17l-3.84-1a5.46,5.46,0,0,1,5.51-5.23,5.21,5.21,0,0,1,5.52,5c0,2.06-1,3.54-2.53,5.06-.51.57-1.1,1.24-1.6,1.83h4.11v3.89H399.76Z"/><path class="cls-6" d="M411.61,469.51h7.12v3.25h-7.12Z"/><path class="cls-6" d="M293,459.84l-2.38-12.5L285,460h-1.32l-5.51-12.5L276,459.84h-7.4l5.59-26.71h4.56l5.62,13.6,5.66-13.6h4.57l5.73,26.71Z"/><path class="cls-6" d="M320.73,447.75v12.09h-6.68V449.76c0-1.74-1-2.8-2.3-2.8s-2.3,1-2.3,2.8v10.08h-6.72V440.89h6.72v2.35a7,7,0,0,1,5.47-2.72C318.58,440.52,320.73,443.24,320.73,447.75Z"/><path class="cls-6" d="M323.82,444.91c1.65-1.7,3.41-3.53,4.94-5.19a4.24,4.24,0,0,0,1.45-2.67,1.44,1.44,0,0,0-1.45-1.45c-1.07,0-1.71,1-1.69,2.16l-3.85-1a5.47,5.47,0,0,1,5.52-5.23,5.21,5.21,0,0,1,5.52,5c0,2.05-1,3.53-2.53,5.05-.51.57-1.1,1.24-1.6,1.83h4.1v3.89H323.82Z"/><path class="cls-6" d="M344.15,441.86h-2.92v2.9h-2.77v-2.9h-2.79v-2.71h2.79v-2.87h2.77v2.87h2.92Z"/><path class="cls-6" d="M580.69,438.77l-8.56,19.44h8.11v6.67H562.17v-.46L571,445h-8.68v-6.67h18.41Z"/><path class="cls-6" d="M601.58,452.79v12.09h-6.67V454.8c0-1.75-1-2.81-2.31-2.81s-2.3,1-2.3,2.81v10.08h-6.71V445.93h6.71v2.35a7,7,0,0,1,5.47-2.73C599.43,445.55,601.58,448.28,601.58,452.79Z"/><path class="cls-6" d="M604.68,449.94c1.64-1.7,3.4-3.53,4.94-5.18a4.32,4.32,0,0,0,1.45-2.67,1.45,1.45,0,0,0-1.45-1.46c-1.08,0-1.71,1-1.69,2.16l-3.85-1a5.47,5.47,0,0,1,5.52-5.23,5.21,5.21,0,0,1,5.51,5c0,2.05-1,3.53-2.52,5.05-.51.58-1.1,1.24-1.61,1.84h4.11v3.88H604.68Z"/><path class="cls-6" d="M625,446.9h-2.92v2.89h-2.77V446.9h-2.79v-2.72h2.79v-2.87h2.77v2.87H625Z"/><path class="cls-6" d="M481.93,483.76c0-8,5.77-13.71,13.85-13.71a14.29,14.29,0,0,1,5.62,1.1v7.39a8.83,8.83,0,0,0-5.32-1.56,6.75,6.75,0,1,0,0,13.49,8.64,8.64,0,0,0,5.32-1.55v7.43a14.48,14.48,0,0,1-5.62,1.06C487.7,497.41,481.93,491.76,481.93,483.76Z"/><path class="cls-6" d="M522.37,478V497h-6.72v-2.35a7,7,0,0,1-5.47,2.73c-3.66,0-5.81-2.73-5.81-7.24V478h6.68v10.08c0,1.75,1,2.81,2.3,2.81s2.3-1,2.3-2.81V478Z"/><path class="cls-6" d="M525.61,482.06c1.65-1.7,3.41-3.53,4.95-5.19A4.29,4.29,0,0,0,532,474.2a1.46,1.46,0,0,0-1.45-1.46c-1.08,0-1.72,1-1.7,2.17l-3.84-1a5.46,5.46,0,0,1,5.52-5.23,5.2,5.2,0,0,1,5.51,5c0,2.06-1,3.54-2.53,5.06-.5.57-1.1,1.24-1.6,1.83H536v3.89H525.61Z"/><path class="cls-6" d="M545.94,479H543v2.89h-2.77V479h-2.79V476.3h2.79v-2.87H543v2.87h2.92Z"/><path class="cls-6" d="M443.78,512.88,437.14,502v10.84H430.2V486.36h6.94v11.29l6.49-11.29h8l-8.41,13.52,8.64,13Z"/><path class="cls-6" d="M461.25,494.9h-2.92v2.9h-2.77v-2.9h-2.79v-2.71h2.79v-2.87h2.77v2.87h2.92Z"/><path class="cls-10" d="M864,131.26a38.15,38.15,0,1,1,38.14-38.15A38.15,38.15,0,0,1,864,131.26Z"/><polygon class="cls-10" points="858.59 48.37 865.1 37.09 871.62 48.37 858.59 48.37"/><polygon class="cls-10" points="833.32 60.08 831.96 47.13 843.86 52.43 833.32 60.08"/><polygon class="cls-10" points="819.76 84.41 811.04 74.73 823.78 72.02 819.76 84.41"/><polygon class="cls-10" points="823.09 112.07 810.34 109.36 819.06 99.68 823.09 112.07"/><polygon class="cls-10" points="842.04 132.48 830.13 137.78 831.5 124.83 842.04 132.48"/><polygon class="cls-10" points="869.37 137.86 862.85 149.14 856.34 137.86 869.37 137.86"/><polygon class="cls-10" points="894.64 126.15 896 139.1 884.1 133.81 894.64 126.15"/><polygon class="cls-10" points="908.2 101.82 916.91 111.5 904.17 114.21 908.2 101.82"/><polygon class="cls-10" points="904.87 74.16 917.61 76.87 908.89 86.55 904.87 74.16"/><polygon class="cls-10" points="885.92 53.75 897.82 48.45 896.46 61.41 885.92 53.75"/><rect class="cls-11" x="312.34" y="348.1" width="8.01" height="3.42"/><polygon class="cls-12" points="48.2 619.22 55.28 619.57 59.23 613.37 56.09 606.83 49 606.49 45.06 612.68 48.2 619.22"/><line class="cls-12" x1="59.23" y1="613.37" x2="64.23" y2="613.62"/><line class="cls-12" x1="57.42" y1="624.22" x2="55.28" y2="619.57"/><line class="cls-12" x1="48.2" y1="619.22" x2="45.38" y2="623.57"/><line class="cls-12" x1="56.09" y1="606.83" x2="58.91" y2="602.48"/><line class="cls-12" x1="40.06" y1="612.44" x2="45.06" y2="612.68"/><polygon class="cls-12" points="73.63 622.41 78.53 616.9 76.24 609.9 69.05 608.41 64.14 613.93 66.43 620.92 73.63 622.41"/><line class="cls-12" x1="76.24" y1="609.9" x2="79.71" y2="606.02"/><line class="cls-12" x1="83.59" y1="618.04" x2="78.53" y2="616.9"/><line class="cls-12" x1="73.63" y1="622.41" x2="75.2" y2="627.36"/><line class="cls-12" x1="69.05" y1="608.42" x2="67.48" y2="603.47"/><line class="cls-12" x1="48.86" y1="606.58" x2="46.99" y2="601.74"/><line class="cls-12" x1="62.97" y1="624.81" x2="66.43" y2="620.92"/><polygon class="cls-12" points="92.12 603.87 90.76 596.63 83.82 594.22 78.24 599.04 79.6 606.28 86.54 608.7 92.12 603.87"/><line class="cls-12" x1="83.82" y1="594.22" x2="82.86" y2="589.11"/><line class="cls-12" x1="94.75" y1="593.3" x2="90.76" y2="596.63"/><line class="cls-12" x1="92.12" y1="603.87" x2="97" y2="605.62"/><line class="cls-12" x1="78.24" y1="599.04" x2="73.36" y2="597.29"/><line class="cls-12" x1="87.5" y1="613.81" x2="86.54" y2="608.7"/><polygon class="cls-12" points="363.61 571.78 370.17 569.57 371.54 562.53 366.35 557.71 359.79 559.92 358.42 566.96 363.61 571.78"/><line class="cls-12" x1="371.54" y1="562.53" x2="376.17" y2="560.97"/><line class="cls-12" x1="373.77" y1="573.04" x2="370.17" y2="569.57"/><line class="cls-12" x1="363.61" y1="571.78" x2="362.6" y2="576.74"/><line class="cls-12" x1="366.35" y1="557.71" x2="367.36" y2="552.75"/><line class="cls-12" x1="353.79" y1="568.53" x2="358.42" y2="566.96"/><polygon class="cls-12" points="387.85 565.6 390.34 558.85 385.76 553.3 378.69 554.52 376.2 561.28 380.78 566.82 387.85 565.6"/><line class="cls-12" x1="385.76" y1="553.3" x2="387.52" y2="548.54"/><line class="cls-12" x1="395.34" y1="558.08" x2="390.34" y2="558.85"/><line class="cls-12" x1="387.85" y1="565.6" x2="391.04" y2="569.54"/><line class="cls-12" x1="378.69" y1="554.52" x2="375.49" y2="550.59"/><line class="cls-12" x1="359.69" y1="560.06" x2="356.26" y2="556.33"/><line class="cls-12" x1="379.02" y1="571.59" x2="380.78" y2="566.82"/><path class="cls-2" d="M568.28,327.08c-5.48,6.16-6.5,15.08-10.67,22.2C548.43,365,527,368.16,513.93,380.73c-8.56,8.22-12.59,23.09-4.59,31.87,6.15,6.75,16.43,7.13,25.53,7,44.4-.49,90.09-1.25,131-18.58,7.94-3.37,16.67-8.79,17.35-17.42.64-8-6-14.54-12.15-19.76-13.48-11.5-27.21-23.17-43.41-30.31-8-3.5-13.52-6.3-18.53-13.63-3.61-5.29-3.63-14.75-11.1-16.4S573.28,321.46,568.28,327.08Z"/><path class="cls-6" d="M549.25,344.42c-.43-12.06,7.94-20.9,20-21.34a21.67,21.67,0,0,1,8.5,1.35l.4,11.1a13.32,13.32,0,0,0-8.07-2,10.14,10.14,0,1,0,.72,20.25,13,13,0,0,0,7.9-2.62l.4,11.16a21.66,21.66,0,0,1-8.39,1.89C558.65,364.59,549.67,356.42,549.25,344.42Z"/><path class="cls-13" d="M638.28,324.9v39.5H629.8l-15.34-20.9v20.62h-10.2V324.68h8.42L628.07,346V324.9Z"/><path class="cls-6" d="M586.53,337.56A4.45,4.45,0,1,1,591,342,4.44,4.44,0,0,1,586.53,337.56Zm0,14.66a4.45,4.45,0,1,1,4.45,4.42A4.44,4.44,0,0,1,586.53,352.22Z"/><path class="cls-6" d="M552.71,377.32v34.3H543.8V388.75l-3.24,1.46-2.86-7.88,9.69-5Z"/><path class="cls-6" d="M580.82,400.77c0,6.23-4.6,11.44-11.87,11.44a12.17,12.17,0,0,1-12.16-8.91l7.9-3.4a4.13,4.13,0,0,0,3.92,3.35,3.43,3.43,0,0,0,3.49-3.55,3.74,3.74,0,0,0-4-3.7,6.14,6.14,0,0,0-4.26,1.8l-5.91-2,4.31-18.25h15.94v8.57h-9.93l-.93,3.4a9.7,9.7,0,0,1,1.6-.14C576.56,389.39,580.82,395,580.82,400.77Z"/><path class="cls-6" d="M585.1,391.53a4.8,4.8,0,1,1,4.79,4.77A4.78,4.78,0,0,1,585.1,391.53Zm0,15.81a4.8,4.8,0,1,1,4.79,4.77A4.74,4.74,0,0,1,585.1,407.34Z"/><path class="cls-13" d="M612.91,377.32v34.3H604V388.75l-3.24,1.46-2.86-7.88,9.69-5Z"/><path class="cls-14" d="M941.72,377.45c-3.27.08-6.58.54-9.83.91a165.64,165.64,0,0,1-47-1.37c-12.85-2.23-25.49-6-38.5-6.69-14.89-.82-29.68,2.38-44.25,5.55L713.6,395.12c-6.91,1.51-15.27,4.5-16.16,11.55a13,13,0,0,0,1.72,7.47c7.84,15.11,27.75,18,44.68,19,37,2.28,77.51,9.59,114.49,5.94,28.59-2.82,55.69-24.52,83.39-33.17Z"/><path class="cls-15" d="M835.35,579.64l-1.33.7a8.7,8.7,0,0,0-4,3.17,8.79,8.79,0,0,0,11.21,12.87A106.7,106.7,0,0,0,873.14,572l0,0c.22-.25.42-.51.62-.78a8.78,8.78,0,1,0-14.38-10.09s-4.34,6.63-16.63,14.35"/><path class="cls-6" d="M787.5,374.89v32.65h-7l-12.69-17.27v17h-8.43V374.7h7l12.72,17.65V374.89Z"/><path class="cls-6" d="M819.66,374.89v32.42h-8.49v-12h-9.63v12h-8.49V374.89h8.49v12.27h9.63V374.89Z"/><path class="cls-6" d="M836.93,416.72a6.46,6.46,0,0,1-6.77,6.35,7,7,0,0,1-6.93-4.94l4.16-2.24a3,3,0,0,0,2.67,2.24,2,2,0,0,0,2-2,1.91,1.91,0,0,0-2-1.89,3,3,0,0,0-1.74.54l-1.78-2.41,4-3.75h-6.15v-4.8h11.36v4.45l-2.88,2.84A5.9,5.9,0,0,1,836.93,416.72Z"/><path class="cls-6" d="M653.93,531.87v32.86h-7l-12.76-17.39V564.5h-8.49V531.68h7l12.81,17.76V531.87Z"/><path class="cls-6" d="M658.69,548.18c0-9,6.59-16.87,16.93-16.87s16.94,7.83,16.94,16.87S686,565.1,675.62,565.1,658.69,557.27,658.69,548.18Zm25.06,0a8.1,8.1,0,1,0-8.13,8.35A8.1,8.1,0,0,0,683.75,548.18Z"/><path class="cls-6" d="M709.16,574a6.49,6.49,0,0,1-6.81,6.38,7,7,0,0,1-7-5l4.19-2.25a3,3,0,0,0,2.68,2.25,2,2,0,0,0,2-2,1.93,1.93,0,0,0-2-1.9,3.09,3.09,0,0,0-1.76.54l-1.79-2.42,4-3.77h-6.19V561H708v4.49l-2.89,2.85A5.94,5.94,0,0,1,709.16,574Z"/><path class="cls-6" d="M710.83,538.36h8.76v4h-8.76Z"/><path class="cls-9" d="M770.07,414.65S754,450.38,782,469.71"/><polygon class="cls-5" points="771.06 474.63 779.28 467.83 780.1 457.2 796.24 476.63 771.06 474.63"/><path class="cls-9" d="M893.23,489.2s27.21,27.33,2.45,55.48"/><polygon class="cls-5" points="894.25 532.18 897.86 542.21 907.59 546.58 883.84 555.19 894.25 532.18"/><path class="cls-6" d="M835.32,462.09v28.84h-6.18l-11.21-15.25v15.05h-7.45v-28.8h6.15l11.24,15.59V462.09Z"/><path class="cls-6" d="M863.73,462.09v28.64h-7.5v-10.6h-8.51v10.6h-7.49V462.09h7.49v10.84h8.51V462.09Z"/><path class="cls-6" d="M878.25,501.93h-1.5v2.43h-4.06v-2.43h-6.48v-3.46l5.44-10.8h5.1v10.51h1.5Zm-5.56-3.75v-5.65l-2.42,5.65Z"/><path class="cls-6" d="M888.53,471.31h-3.15v3.12h-3v-3.12h-3v-2.93h3v-3.1h3v3.1h3.15Z"/><path class="cls-9" d="M811.88,589.91s-21.29,1.56-43.8-12.57a265.54,265.54,0,0,0-38.41-19.48"/><polygon class="cls-5" points="740.14 551.46 732.7 559.11 733.04 569.77 714.89 552.2 740.14 551.46"/><path class="cls-16" d="M425.94,176.28s16.32-15,35.14-5.55,7.78,23,7.78,23a27.07,27.07,0,0,1,27.53,9.85C508,218,502.29,230,502.29,230s16-6.33,22.37,7.9-4.47,24.25-4.47,24.25,12,5.73,11.13,26.64-11.73,30.94-11.73,30.94,8.22,12.55.54,29.7-23.3,14.76-23.3,14.76,6.41,14.22-4.55,26-28,2.35-28,2.35l-45.95,13.84s-17.71,6.26-40.08-1.63S344,387.65,344,387.65s-16.25,13.31-31.36-1.27S307,353,307,353s-17.56,2.78-27.24-16.82,13.47-30.87,13.47-30.87-22.37-7.89-19.77-28.73,25.46-25.15,25.46-25.15S283.4,247.29,284,231.6s28.38-11.06,28.38-11.06-14.76-23.29,4.91-34.71S345.2,187,345.2,187s7.76-18.88,23.51-20,22.38,7.9,22.38,7.9S397,159.4,410.89,160,425.94,176.28,425.94,176.28Z"/><path class="cls-2" d="M386.16,401s-.16-28.37-31.52-29.65S322.13,398,322.13,398s-4.05,13.8,30.8,15.22S386.16,401,386.16,401Z"/><path class="cls-17" d="M349.45,413.08c-3.2-7.12,1.2-29.63,1.2-29.63s-9.51,14-9.38,28.65Z"/><path class="cls-18" d="M386.25,401s-.15-28.37-31.52-29.64S322.22,398,322.22,398s-4.05,13.8,30.8,15.22S386.25,401,386.25,401Z"/><path class="cls-2" d="M402.21,401.69s2.46-28.26,33.83-27,30.23,29.15,30.23,29.15,2.92,14.09-31.94,12.67S402.21,401.69,402.21,401.69Z"/><path class="cls-17" d="M437.05,416.64c3.77-6.83,1.21-29.63,1.21-29.63s8.34,14.77,7,29.32Z"/><path class="cls-18" d="M402.21,401.69s2.46-28.26,33.83-27,30.23,29.15,30.23,29.15,2.92,14.09-31.94,12.67S402.21,401.69,402.21,401.69Z"/><path class="cls-19" d="M310.85,362.6s70.09-26.72,167.46,2.87c0,0-19.61-2.77-29.61.77,0,0,13.38,10.4,9,22.05,0,0-16.35-34.18-67.92-26.42s-65,46.64-65,46.64,1-25.59,15.38-38.8c0,0-16.06,7.23-22.29,14.86,0,0-1.49-11.89,12.69-21.17C330.53,363.4,318.8,361,310.85,362.6Z"/><path class="cls-2" d="M336.8,239.75s20.3-27.1,65.61-25.26,63.27,32.25,63.27,32.25,24.61-4.23,40.9,24.36c0,0-21.33,9.6-29.62-1.21,0,0,16.76,60-42.17,92.55,0,0-25,12.94-38.91,12.38s-36-15.43-36-15.43-56.17-35.45-34.51-95.67c0,0-11,11.78-33.11-1.35C292.24,262.37,308.84,240.36,336.8,239.75Z"/><ellipse class="cls-17" cx="386.74" cy="342.15" rx="5.23" ry="7.85" transform="translate(-99.63 168.72) rotate(-21.87)"/><ellipse class="cls-17" cx="407.65" cy="343" rx="7.85" ry="5.23" transform="translate(-81.34 554.48) rotate(-63.46)"/><circle class="cls-5" cx="372.6" cy="282.23" r="21.8"/><circle class="cls-5" cx="426.62" cy="284.43" r="21.8"/><circle class="cls-17" cx="375.8" cy="289.34" r="7.85"/><circle class="cls-17" cx="429.82" cy="291.54" r="7.85"/><line class="cls-20" x1="177.09" y1="55.31" x2="767.32" y2="55.31"/><text class="cls-21" transform="translate(309.72 27.2)">animals: <tspan class="cls-22" x="138.46" y="0">t</tspan><tspan class="cls-23" x="147.33" y="0">h</tspan><tspan class="cls-22" x="165.12" y="0">e </tspan><tspan class="cls-24" x="194.24" y="0">f</tspan><tspan class="cls-22" x="202.46" y="0">ertili</tspan><tspan class="cls-25" x="262.43" y="0">z</tspan><tspan class="cls-22" x="275.74" y="0">e</tspan><tspan class="cls-26" x="293.82" y="0">r</tspan><tspan class="cls-22" x="303.23" y="0">s</tspan></text><g id="as_animals_eat_plants_old_roots_may_be_sloughed_off_or_removed_and_compounds_released_by_roots_in_search_of_nutrients_for_new_aboveground_growth_the_urine_and_feces_animals_leave_behind_provides_nutrient-rich_food_for_plants_and_microbes." data-name="as animals eat plants old roots may be sloughed off or removed and compounds released by roots in search of nutrients for new aboveground growth the urine and feces animals leave behind provides nutrient-rich food for plants and microbes." class="cls-27"><text class="cls-28" transform="translate(16.77 700.74)">as ani<tspan class="cls-29" x="67.39" y="0">m</tspan><tspan x="88.01" y="0">als eat plan</tspan><tspan class="cls-30" x="218.3" y="0">t</tspan><tspan x="224.71" y="0">s, old </tspan><tspan class="cls-31" x="289.72" y="0">r</tspan><tspan class="cls-32" x="296.54" y="0">o</tspan><tspan class="cls-33" x="310.99" y="0">o</tspan><tspan class="cls-34" x="325.12" y="0">t</tspan><tspan x="331.53" y="0">s </tspan><tspan class="cls-35" x="349.6" y="0">m</tspan><tspan x="370.22" y="0">a</tspan><tspan class="cls-36" x="385.02" y="0">y</tspan><tspan class="cls-37" x="396.28" y="0" xml:space="preserve"> be sloug</tspan><tspan class="cls-35" x="499.36" y="0">h</tspan><tspan x="512.7" y="0">ed </tspan><tspan class="cls-38" x="549.35" y="0">o</tspan><tspan x="563.49" y="0">ff </tspan><tspan class="cls-39" x="585.06" y="0">(</tspan><tspan x="589.88" y="0">or </tspan><tspan class="cls-40" x="619.91" y="0">r</tspan><tspan x="626.72" y="0">e</tspan><tspan class="cls-41" x="640.28" y="0">mov</tspan><tspan x="686.67" y="0">ed) a</tspan><tspan class="cls-35" x="743.91" y="0">n</tspan><tspan x="757.23" y="0">d compou</tspan><tspan class="cls-41" x="871.33" y="0">n</tspan><tspan x="884.65" y="0">ds </tspan></text><text class="cls-28" transform="translate(14.32 740.74)"><tspan class="cls-42">r</tspan><tspan x="6.82" y="0">elea</tspan><tspan class="cls-43" x="54.17" y="0">s</tspan><tspan class="cls-44" x="63.89" y="0">ed </tspan><tspan class="cls-29" x="100.53" y="0">b</tspan><tspan class="cls-45" x="114.98" y="0">y</tspan><tspan x="126.24" y="0"> </tspan><tspan class="cls-42" x="134.52" y="0">r</tspan><tspan class="cls-44" x="141.33" y="0">o</tspan><tspan class="cls-46" x="155.78" y="0">o</tspan><tspan class="cls-30" x="169.92" y="0">t</tspan><tspan x="176.33" y="0">s, in </tspan><tspan class="cls-47" x="226.36" y="0">s</tspan><tspan x="236.08" y="0">ea</tspan><tspan class="cls-42" x="264.45" y="0">r</tspan><tspan x="271.27" y="0">ch </tspan><tspan class="cls-33" x="305.92" y="0">o</tspan><tspan x="320.06" y="0">f nutrien</tspan><tspan class="cls-34" x="409.55" y="0">t</tspan><tspan x="415.96" y="0">s </tspan><tspan class="cls-48" x="434.03" y="0">f</tspan><tspan class="cls-32" x="440.2" y="0">or </tspan><tspan class="cls-41" x="470.22" y="0">ne</tspan><tspan class="cls-36" x="496.74" y="0">w</tspan><tspan class="cls-37" x="515.25" y="0" xml:space="preserve"> ab</tspan><tspan class="cls-41" x="553.14" y="0">ov</tspan><tspan x="578.92" y="0">eg</tspan><tspan class="cls-40" x="607.29" y="0">r</tspan><tspan class="cls-37" x="614.1" y="0">ou</tspan><tspan class="cls-35" x="642.23" y="0">n</tspan><tspan x="655.55" y="0">d g</tspan><tspan class="cls-40" x="693.44" y="0">r</tspan><tspan class="cls-35" x="700.26" y="0">o</tspan><tspan x="714.35" y="0">wth! t</tspan><tspan class="cls-41" x="773.87" y="0">h</tspan><tspan x="787.21" y="0">e uri</tspan><tspan class="cls-41" x="836.05" y="0">n</tspan><tspan x="849.37" y="0">e a</tspan><tspan class="cls-35" x="886.02" y="0">n</tspan><tspan x="899.33" y="0">d </tspan></text><text class="cls-28" transform="translate(37.18 780.74)"><tspan class="cls-42">f</tspan><tspan x="6.17" y="0">ec</tspan><tspan class="cls-49" x="32.4" y="0">e</tspan><tspan x="45.84" y="0">s ani</tspan><tspan class="cls-29" x="98.42" y="0">m</tspan><tspan class="cls-44" x="119.04" y="0">als lea</tspan><tspan class="cls-29" x="191.13" y="0">v</tspan><tspan x="202.82" y="0">e behi</tspan><tspan class="cls-29" x="272.76" y="0">n</tspan><tspan class="cls-50" x="286.08" y="0">d p</tspan><tspan class="cls-51" x="323.95" y="0">r</tspan><tspan class="cls-35" x="330.76" y="0">o</tspan><tspan class="cls-52" x="344.85" y="0">v</tspan><tspan class="cls-37" x="356.78" y="0">id</tspan><tspan class="cls-52" x="377.61" y="0">e</tspan><tspan x="391.05" y="0">s nutrien</tspan><tspan class="cls-53" x="483.69" y="0">t</tspan><tspan class="cls-54" x="489.81" y="0">-</tspan><tspan x="498.98" y="0">rich </tspan><tspan class="cls-51" x="546.95" y="0">f</tspan><tspan class="cls-32" x="553.12" y="0">ood </tspan><tspan class="cls-48" x="605.1" y="0">f</tspan><tspan x="611.27" y="0">or plan</tspan><tspan class="cls-55" x="689.99" y="0">t</tspan><tspan x="696.4" y="0">s a</tspan><tspan class="cls-41" x="729.28" y="0">n</tspan><tspan x="742.6" y="0">d mic</tspan><tspan class="cls-51" x="805.35" y="0">r</tspan><tspan class="cls-32" x="812.17" y="0">ob</tspan><tspan class="cls-56" x="841.43" y="0">e</tspan><tspan x="854.87" y="0">s.</tspan></text></g></g></g></g></svg>