<svg xmlns="http://www.w3.org/2000/svg" viewBox="0 0 955.4 686.49"><defs><style>.cls-1{fill:#2e61a0;}.cls-2,.cls-27,.cls-3,.cls-31,.cls-32{isolation:isolate;}.cls-3{font-size:24px;fill:#5c5052;}.cls-27,.cls-3,.cls-32{font-family:Acre-Light, Acre;font-weight:300;}.cls-4{letter-spacing:-0.02em;}.cls-5{letter-spacing:0em;}.cls-6{letter-spacing:-0.02em;}.cls-7{letter-spacing:-0.01em;}.cls-8{letter-spacing:0em;}.cls-9{letter-spacing:-0.02em;}.cls-10{letter-spacing:0em;}.cls-11{letter-spacing:-0.01em;}.cls-12{letter-spacing:0.01em;}.cls-13{letter-spacing:-0.02em;}.cls-14{letter-spacing:0em;}.cls-15{letter-spacing:0em;}.cls-16{letter-spacing:-0.02em;}.cls-17{letter-spacing:0em;}.cls-18{letter-spacing:-0.01em;}.cls-19{letter-spacing:-0.01em;}.cls-20{letter-spacing:-0.01em;}.cls-21{letter-spacing:-0.03em;}.cls-22{letter-spacing:-0.01em;}.cls-23{letter-spacing:-0.03em;}.cls-24{letter-spacing:-0.03em;}.cls-25{letter-spacing:-0.02em;}.cls-26{fill:#ec6a7c;}.cls-27,.cls-31{font-size:32px;fill:#f17243;}.cls-28{letter-spacing:-0.01em;}.cls-29{letter-spacing:0em;}.cls-30{letter-spacing:-0.02em;}.cls-31{font-family:Acre-Bold, Acre;font-weight:700;}.cls-32{font-size:22px;fill:#5d5152;}.cls-33{letter-spacing:-0.01em;}.cls-34{letter-spacing:-0.02em;}.cls-35{letter-spacing:0em;}.cls-36{letter-spacing:-0.01em;}.cls-37{letter-spacing:0em;}.cls-38,.cls-40,.cls-42,.cls-45{fill:none;stroke-miterlimit:10;}.cls-38{stroke:#5c5052;stroke-width:0.76px;}.cls-39{fill:#2e62a1;}.cls-40,.cls-42{stroke:#3baaa1;}.cls-40{stroke-width:3.79px;}.cls-41{fill:#3baaa1;}.cls-42{stroke-width:3.79px;}.cls-43{fill:#ea6a7c;}.cls-44{fill:#336db4;}.cls-45{stroke:#3da9a0;stroke-width:3.7px;}.cls-46{fill:#3da9a0;}</style></defs><g id="Layer_2" data-name="Layer 2"><g id="nut_cycling" data-name="nut cycling"><g id="Layer_25" data-name="Layer 25"><path class="cls-1" d="M83.7,645.93c0-12.6,9.1-21.52,21.82-21.53a22.82,22.82,0,0,1,8.86,1.73v11.6a14,14,0,0,0-8.38-2.44,10.59,10.59,0,1,0,0,21.17,13.66,13.66,0,0,0,8.39-2.44v11.66a22.92,22.92,0,0,1-8.87,1.67C92.8,667.35,83.69,658.48,83.7,645.93Z"/><path class="cls-1" d="M117.83,645.87c0-11.54,8.44-21.53,21.7-21.53s21.71,10,21.71,21.54-8.44,21.59-21.71,21.59S117.82,657.47,117.83,645.87Zm32.11,0a10.35,10.35,0,0,0-10.4-10.65c-6.32,0-10.35,5.12-10.35,10.65s4,10.64,10.34,10.64A10.35,10.35,0,0,0,149.94,645.88Z"/><path class="cls-1" d="M165.69,682.85c2.6-2.66,5.37-5.54,7.8-8.14,1.28-1.42,2.28-2.7,2.28-4.19a2.28,2.28,0,0,0-2.28-2.29c-1.7,0-2.71,1.6-2.66,3.4L164.76,670a8.58,8.58,0,0,1,8.69-8.21c5.19,0,8.7,3.74,8.7,7.79,0,3.23-1.63,5.55-4,7.93-.79.91-1.73,2-2.52,2.88h6.48v6.1H165.7Z"/><g id="Group"><g id="archaea_can_persist_in_extreme_conditions_--_from_super_salty_environments_to_high_heat_and_critically_cold._in_soils_they_are_responsible_for_converting_methane_to_CO2_and_important_nutrients_like_nitrogen_and_sulfur_into_plant_available_forms_" data-name="archaea can persist in extreme conditions -- from super salty environments to high heat and critically cold. in soils they are responsible for converting methane to CO2 and important nutrients like nitrogen and sulfur into plant available forms " class="cls-2"><text class="cls-3" transform="translate(21.84 238.34)">a<tspan class="cls-4" x="14.81" y="0">r</tspan><tspan class="cls-5" x="21.62" y="0">c</tspan><tspan class="cls-6" x="34.3" y="0">h</tspan><tspan x="47.64" y="0">aea can pe</tspan><tspan class="cls-7" x="176.88" y="0">r</tspan><tspan class="cls-8" x="183.93" y="0">si</tspan><tspan class="cls-9" x="199.75" y="0">s</tspan><tspan x="209.13" y="0">t in </tspan><tspan class="cls-10" x="252.04" y="0">e</tspan><tspan class="cls-8" x="265.48" y="0">xt</tspan><tspan class="cls-4" x="283.82" y="0">r</tspan><tspan x="290.63" y="0">e</tspan><tspan class="cls-11" x="304.19" y="0">m</tspan><tspan x="324.81" y="0">e co</tspan><tspan class="cls-11" x="373.77" y="0">n</tspan><tspan x="387.09" y="0">ditio</tspan><tspan class="cls-12" x="435.04" y="0">n</tspan><tspan x="448.89" y="0">s -- f</tspan><tspan class="cls-13" x="501.9" y="0">r</tspan><tspan class="cls-14" x="508.72" y="0">om super </tspan><tspan class="cls-15" x="619.81" y="0">s</tspan><tspan x="629.53" y="0">alt</tspan><tspan class="cls-16" x="656.41" y="0">y</tspan><tspan class="cls-17" x="667.67" y="0" xml:space="preserve"> e</tspan><tspan class="cls-7" x="689.51" y="0">n</tspan><tspan class="cls-10" x="702.95" y="0">v</tspan><tspan x="714.88" y="0">i</tspan><tspan class="cls-13" x="720.9" y="0">r</tspan><tspan class="cls-14" x="727.71" y="0">on</tspan><tspan class="cls-11" x="755.84" y="0">m</tspan><tspan x="776.46" y="0">en</tspan><tspan class="cls-18" x="803.7" y="0">t</tspan><tspan x="810.11" y="0">s </tspan><tspan class="cls-13" x="828.18" y="0">t</tspan><tspan x="834.34" y="0">o high </tspan></text><text class="cls-3" transform="translate(17.1 278.34)"><tspan class="cls-6">h</tspan><tspan class="cls-5" x="13.34" y="0">eat a</tspan><tspan class="cls-19" x="71.45" y="0">n</tspan><tspan x="84.77" y="0">d critical</tspan><tspan class="cls-20" x="179.42" y="0">l</tspan><tspan class="cls-21" x="184.72" y="0">y</tspan><tspan x="195.98" y="0" xml:space="preserve"> cold. in </tspan><tspan class="cls-15" x="291.64" y="0">s</tspan><tspan x="301.36" y="0">oils, t</tspan><tspan class="cls-6" x="355.96" y="0">he</tspan><tspan class="cls-16" x="382.5" y="0">y</tspan><tspan x="393.76" y="0" xml:space="preserve"> a</tspan><tspan class="cls-13" x="416.85" y="0">r</tspan><tspan x="423.66" y="0">e </tspan><tspan class="cls-13" x="445.5" y="0">r</tspan><tspan class="cls-20" x="452.32" y="0">e</tspan><tspan x="465.76" y="0">spo</tspan><tspan class="cls-12" x="504.78" y="0">n</tspan><tspan x="518.63" y="0">sible </tspan><tspan class="cls-13" x="576.52" y="0">f</tspan><tspan class="cls-17" x="582.68" y="0">or co</tspan><tspan class="cls-7" x="639.83" y="0">n</tspan><tspan class="cls-6" x="653.27" y="0">v</tspan><tspan class="cls-17" x="664.96" y="0">erti</tspan><tspan class="cls-11" x="698.48" y="0">n</tspan><tspan x="711.8" y="0">g </tspan><tspan class="cls-11" x="734.89" y="0">m</tspan><tspan class="cls-22" x="755.51" y="0">e</tspan><tspan x="768.75" y="0">t</tspan><tspan class="cls-6" x="775.4" y="0">h</tspan><tspan x="788.75" y="0">a</tspan><tspan class="cls-11" x="803.55" y="0">n</tspan><tspan x="816.87" y="0">e </tspan><tspan class="cls-13" x="838.71" y="0">t</tspan><tspan x="844.88" y="0">o </tspan><tspan class="cls-23" x="867.61" y="0">C</tspan><tspan x="881.82" y="0">O2 </tspan></text><text class="cls-3" transform="translate(70.89 318.34)">a<tspan class="cls-19" x="14.81" y="0">n</tspan><tspan class="cls-5" x="28.13" y="0">d impor</tspan><tspan class="cls-4" x="114.74" y="0">t</tspan><tspan x="120.91" y="0">ant nutrien</tspan><tspan class="cls-7" x="238.89" y="0">t</tspan><tspan x="245.3" y="0">s li</tspan><tspan class="cls-24" x="274.82" y="0">k</tspan><tspan x="285.57" y="0">e nit</tspan><tspan class="cls-25" x="333.76" y="0">r</tspan><tspan class="cls-17" x="340.58" y="0">ogen a</tspan><tspan class="cls-6" x="420.16" y="0">n</tspan><tspan x="433.48" y="0">d sulfur in</tspan><tspan class="cls-13" x="541.07" y="0">t</tspan><tspan x="547.24" y="0">o plant a</tspan><tspan class="cls-6" x="648.4" y="0">v</tspan><tspan x="660.08" y="0">ailable </tspan><tspan class="cls-13" x="743.22" y="0">f</tspan><tspan x="749.39" y="0">or</tspan><tspan class="cls-12" x="771.13" y="0">m</tspan><tspan x="792.27" y="0">s!</tspan></text></g></g><path id="Path_4979" data-name="Path 4979" class="cls-26" d="M485.2,9.33A8.49,8.49,0,0,0,476.72.84a8.63,8.63,0,0,0-3.64.81C455.5,7,446.66,23.82,446.66,23.82h0a8,8,0,0,0,13.22,8.8A75.68,75.68,0,0,1,479.81,17.2a7.26,7.26,0,0,0,1.09-.52h0a8.48,8.48,0,0,0,4.3-7.35Z"/><path id="Path_4980" data-name="Path 4980" class="cls-26" d="M494.42,41.16A9.29,9.29,0,0,0,479,30.86a7.68,7.68,0,0,0-.47.78,113.22,113.22,0,0,0-13,40.5h.07A9.31,9.31,0,1,0,484,74c0-.27,0-.53,0-.8C484,73.19,483.65,61,494.42,41.16Z"/><path id="Path_4981" data-name="Path 4981" class="cls-26" d="M532.88,68.77h0a7.88,7.88,0,0,0-1-.81A67.72,67.72,0,0,1,515,47.68h0A7.23,7.23,0,1,0,501.57,53a7.53,7.53,0,0,0,.55,1.1h0C514.56,77,523.92,81,523.92,81h0a7.61,7.61,0,0,0,8.94-12.12Z"/><g id="Group-2"><g id="e_extremophiles:" data-name="e extremophiles:" class="cls-2"><text class="cls-27" transform="translate(355.95 123.19)">t<tspan class="cls-28" x="8.86" y="0">h</tspan><tspan x="26.66" y="0">e </tspan><tspan class="cls-29" x="55.77" y="0">e</tspan><tspan x="73.69" y="0">xt</tspan><tspan class="cls-30" x="98.14" y="0">r</tspan><tspan x="107.23" y="0">e</tspan><tspan class="cls-28" x="125.31" y="0">m</tspan><tspan x="152.8" y="0">ophil</tspan><tspan class="cls-29" x="225.31" y="0">e</tspan><tspan x="243.23" y="0">s:</tspan></text></g><g id="archaea" class="cls-2"><text class="cls-31" transform="translate(426.44 155.83)">a<tspan class="cls-28" x="19.68" y="0">r</tspan><tspan x="30.66" y="0">chaea</tspan></text></g></g><g id="_4_100" data-name=" 4 100" class="cls-2"><text class="cls-32" transform="translate(577.92 18.7)">4/100,000 <tspan class="cls-33" x="94.33" y="0">o</tspan><tspan x="107.29" y="0">f </tspan><tspan x="0" y="26.4">an i</tspan><tspan class="cls-34" x="39.23" y="26.4">n</tspan><tspan class="cls-35" x="51.44" y="26.4">ch</tspan><tspan class="cls-36" x="75.61" y="26.4"> </tspan><tspan class="cls-37" x="83.03" y="26.4">w</tspan><tspan x="100.43" y="26.4">ide</tspan></text></g><line id="Line_573" data-name="Line 573" class="cls-38" x1="119.45" y1="180.48" x2="856.88" y2="180.48"/><path class="cls-39" d="M313.89,529.91v42.52h-9.12l-16.51-22.5v22.19h-11V529.67h9.06l16.57,23V529.91Z"/><path class="cls-39" d="M320,551c0-11.7,8.53-21.83,21.91-21.83s21.91,10.13,21.91,21.83-8.52,21.89-21.91,21.89S320,562.78,320,551Zm32.42,0c0-5.61-4.08-10.79-10.51-10.79s-10.44,5.18-10.44,10.79,4.08,10.79,10.44,10.79S352.46,556.63,352.46,551Z"/><path class="cls-39" d="M385.34,584.38c0,4.43-3.57,8.26-8.82,8.26a9.06,9.06,0,0,1-9-6.43l5.42-2.92a3.88,3.88,0,0,0,3.46,2.92,2.56,2.56,0,0,0,2.66-2.57,2.5,2.5,0,0,0-2.62-2.46,4,4,0,0,0-2.28.7l-2.31-3.12,5.18-4.89h-8v-6.25h14.8v5.8l-3.75,3.69A7.68,7.68,0,0,1,385.34,584.38Z"/><path class="cls-39" d="M387.49,538.32h11.33v5.16H387.49Z"/><path class="cls-40" d="M623.44,462.72s37.42,37.59,0,75.17"/><polygon class="cls-41" points="622.45 525.42 625.73 535.58 635.31 540.26 611.3 548.09 622.45 525.42"/><path class="cls-39" d="M548.54,427.66V465h-8L526,445.23V464.7H516.4V427.45h8l14.54,20.16V427.66Z"/><path class="cls-39" d="M585.28,427.66v37h-9.7V451h-11v13.7h-9.7v-37h9.7v14h11v-14Z"/><path class="cls-39" d="M604.06,479.18h-1.93v3.15h-5.25v-3.15h-8.39v-4.47l7-14h6.61v13.59h1.93Zm-7.18-4.84V467l-3.14,7.3Z"/><path class="cls-39" d="M617.37,439.58h-4.09v4h-3.86v-4h-3.9v-3.79h3.9v-4h3.86v4h4.09Z"/><path class="cls-42" d="M518.21,605s-27.54,2-56.66-16.26c-19.46-12.22-40.39-21.5-54-27"/><polygon class="cls-41" points="418 555.41 410.58 563.07 410.95 573.73 392.75 556.22 418 555.41"/><path id="Path_5302" data-name="Path 5302" class="cls-43" d="M38.8,503.7c7.09,28,16.94,40.22,16.94,40.22C64,554.54,58,571.66,40.82,572.54a13.19,13.19,0,0,1-10.73-4.86c-.74-.89-1.48-1.69-2.13-2.56-.39-.53-.76-1.07-1.11-1.63h-.09A212.24,212.24,0,0,1,.22,488.19a17.45,17.45,0,1,1,34.46-5.53c.09.54.15,1.08.19,1.62.15,1,.33,2,.5,3l-12,10.09Z"/><path id="Path_5302-2" data-name="Path 5302" class="cls-43" d="M916.59,504.7c-7.09,28-16.93,40.22-16.93,40.22-8.23,10.62-2.29,27.74,14.92,28.62a13.19,13.19,0,0,0,10.73-4.86c.74-.89,1.48-1.69,2.13-2.56.39-.53.76-1.07,1.1-1.63h.1a212.24,212.24,0,0,0,26.54-75.3,17.46,17.46,0,1,0-34.47-5.53q-.12.81-.18,1.62c-.15,1-.33,2-.5,3l12,10.09Z"/><path id="Path_5302-3" data-name="Path 5302" class="cls-43" d="M553.83,584.59c22.43-13.37,30.5-25.07,30.5-25.07,7.09-9.88,23.47-9.15,28.68,5.55a12,12,0,0,1-1.45,10.56c-.58.87-1.08,1.72-1.67,2.51-.36.48-.73.93-1.13,1.38l0,.08a191.84,191.84,0,0,1-58.45,42.45,15.79,15.79,0,0,1-13.68-28.46q.66-.32,1.35-.57c.86-.4,1.61-.8,2.5-1.22l11.84,7.77Z"/><path id="Path_5319" data-name="Path 5319" class="cls-44" d="M71.38,412.3c0-12.93,9.33-22.08,22.39-22.08a23.48,23.48,0,0,1,9.09,1.77v11.94a14.51,14.51,0,0,0-8.61-2.5A10.86,10.86,0,1,0,94,423.15h.21a14,14,0,0,0,8.61-2.5v12a23.78,23.78,0,0,1-9.09,1.7C80.71,434.22,71.38,425.13,71.38,412.3Z"/><path id="Path_5320" data-name="Path 5320" class="cls-44" d="M143.56,390.89V433.6H132.33V417.8H119.58v15.8H108.35V390.89h11.23v16.17h12.75V390.89Z"/><path id="Path_5321" data-name="Path 5321" class="cls-44" d="M165.31,450.29h-2.17v3.63h-6v-3.64h-9.71v-5.15L155.53,429h7.61v15.68h2.25ZM157,444.7v-8.42l-3.62,8.42Z"/><g id="Path_5343" data-name="Path 5343"><path class="cls-45" d="M71.39,567.18s28.48,0,44.44,30.23"/><polygon class="cls-46" points="122.39 614.49 103.03 594.49 115.08 596.25 122.57 586.65 122.39 614.49"/></g><g id="Path_5337" data-name="Path 5337"><path class="cls-45" d="M65.88,411.18s-32.52-2-43.24,29.31"/><polygon class="cls-46" points="19.39 458.49 14.12 431.15 23.25 439.22 34.77 435.29 19.39 458.49"/></g><g id="Path_5343-2" data-name="Path 5343"><path class="cls-45" d="M876.39,560.18s-28.49,0-44.44,30.23"/><polygon class="cls-46" points="825.39 607.49 825.2 579.65 832.7 589.25 844.74 587.49 825.39 607.49"/></g><g id="Path_5337-2" data-name="Path 5337"><path class="cls-45" d="M881.89,404.18s32.53-2,43.24,29.31"/><polygon class="cls-46" points="928.39 451.49 913 428.29 924.53 432.22 933.65 424.15 928.39 451.49"/></g><path class="cls-39" d="M761.45,379l7.87-.89,4.23,37.46-7.87.89L764,401.52l-14.29,1.62,1.68,14.93-7.86.89-4.24-37.46,7.87-.89,1.69,14.93,14.29-1.62Z"/><path class="cls-39" d="M784.67,413.22a16.59,16.59,0,0,1-6.22-3.74l4.13-6.54a14,14,0,0,0,4.24,2.69,9,9,0,0,0,4.5.77,4.66,4.66,0,0,0,3-1.35,3.2,3.2,0,0,0,.86-2.67,3.56,3.56,0,0,0-1.83-2.82,25.91,25.91,0,0,0-5.06-2,43.67,43.67,0,0,1-5.38-2,11.1,11.1,0,0,1-3.78-3,9.69,9.69,0,0,1-2-5.21,10,10,0,0,1,.9-5.47,10.73,10.73,0,0,1,3.8-4.31,13.37,13.37,0,0,1,6.1-2.12,15.19,15.19,0,0,1,6.78.72,18.4,18.4,0,0,1,5.63,3.08l-3.83,6.45a14.36,14.36,0,0,0-3.61-2,8,8,0,0,0-3.78-.57,4.41,4.41,0,0,0-2.76,1.2,2.89,2.89,0,0,0-.84,2.46,3.32,3.32,0,0,0,1.78,2.53,24.81,24.81,0,0,0,4.8,1.93,49.94,49.94,0,0,1,5.53,2.16,11.7,11.7,0,0,1,3.87,3.09,9.71,9.71,0,0,1,2.09,5.32,10.72,10.72,0,0,1-.87,5.73,10.36,10.36,0,0,1-3.91,4.45,14.79,14.79,0,0,1-6.55,2.21A16.77,16.77,0,0,1,784.67,413.22Z"/><path class="cls-39" d="M817.94,408.57a18.48,18.48,0,0,1-7.63-6.32,20.86,20.86,0,0,1-2.19-19.38,18.49,18.49,0,0,1,6-7.86,20.82,20.82,0,0,1,20.28-2.29,18.37,18.37,0,0,1,7.63,6.34,20.78,20.78,0,0,1,2.19,19.35,18.49,18.49,0,0,1-6,7.86,20.86,20.86,0,0,1-20.28,2.3Zm14.8-9.25A10.28,10.28,0,0,0,836,395a11.31,11.31,0,0,0-1.19-10.52,10.44,10.44,0,0,0-4.12-3.5,10,10,0,0,0-5.58-.87,10.28,10.28,0,0,0-5.26,2.07,10.13,10.13,0,0,0-3.23,4.33A11.39,11.39,0,0,0,817.78,397a10.36,10.36,0,0,0,4.12,3.53,10.76,10.76,0,0,0,10.84-1.23Z"/><path class="cls-39" d="M861.81,396.86a5.71,5.71,0,0,1,0,7.31,6.38,6.38,0,0,1-4.44,2.24,6.71,6.71,0,0,1-4.12-.76,6.09,6.09,0,0,1-2.7-3l4.34-2.39a2.25,2.25,0,0,0,.81,1,1.62,1.62,0,0,0,1.12.28,1.37,1.37,0,0,0,1-.52,1.27,1.27,0,0,0,.3-1,1.4,1.4,0,0,0-.51-.94,1.46,1.46,0,0,0-1.09-.29,2.25,2.25,0,0,0-.88.37l-3-2.15,2.77-3.29-4.92.55-.54-4.76,10.86-1.23.49,4.28L859,395.06A5.72,5.72,0,0,1,861.81,396.86Z"/><path class="cls-39" d="M769.43,678.22a18.55,18.55,0,0,1-6.91-4.15l4.6-7.26a15.52,15.52,0,0,0,4.7,3,10.12,10.12,0,0,0,5,.85,5.21,5.21,0,0,0,3.35-1.49,3.58,3.58,0,0,0,1-3,4,4,0,0,0-2-3.14,29.21,29.21,0,0,0-5.61-2.25,47.68,47.68,0,0,1-6-2.28,12.28,12.28,0,0,1-4.2-3.34,10.79,10.79,0,0,1-2.25-5.79,11,11,0,0,1,1-6.07,11.83,11.83,0,0,1,4.22-4.78,14.82,14.82,0,0,1,6.77-2.36,16.85,16.85,0,0,1,7.52.8,20,20,0,0,1,6.25,3.42l-4.24,7.16a16.24,16.24,0,0,0-4-2.23,9,9,0,0,0-4.2-.64A5,5,0,0,0,771.3,646a3.17,3.17,0,0,0-.93,2.72,3.65,3.65,0,0,0,2,2.82,27.18,27.18,0,0,0,5.33,2.14,55.9,55.9,0,0,1,6.14,2.4,12.9,12.9,0,0,1,4.29,3.42,10.91,10.91,0,0,1,2.33,5.91,12,12,0,0,1-1,6.37,11.59,11.59,0,0,1-4.34,4.94,16.41,16.41,0,0,1-7.28,2.45A18.74,18.74,0,0,1,769.43,678.22Z"/><path class="cls-39" d="M806.36,673.05a20.4,20.4,0,0,1-8.46-7,23.14,23.14,0,0,1-2.44-21.51,20.46,20.46,0,0,1,6.69-8.73,23.16,23.16,0,0,1,22.51-2.54,20.42,20.42,0,0,1,8.47,7,23,23,0,0,1,2.43,21.48,20.52,20.52,0,0,1-6.68,8.73,23.18,23.18,0,0,1-22.52,2.54Zm16.13-10.59a11.34,11.34,0,0,0,3.55-4.79,12.51,12.51,0,0,0-1.31-11.56,11.38,11.38,0,0,0-4.52-3.84,11,11,0,0,0-6.14-.95,11.16,11.16,0,0,0-5.77,2.27,11,11,0,0,0-3.55,4.76,12.48,12.48,0,0,0,1.31,11.58,11.32,11.32,0,0,0,4.52,3.88,11.8,11.8,0,0,0,11.91-1.35Z"/><path class="cls-39" d="M856.72,662.1l.56,5-1.78.2.27,2.37-5.29.6-.27-2.37-8,.9-.42-3.75,4.82-13.72,7-.79,1.33,11.77Zm-9.21,1,2.14-.24-.59-5.17Z"/><path class="cls-39" d="M858,647.45q3.22-4.65,6-8.78l.82-1.18a23.58,23.58,0,0,0,1.81-3.22,5.14,5.14,0,0,0,.4-2.64,3.12,3.12,0,0,0-3.5-2.73,3.13,3.13,0,0,0-2.38,1.5,4.64,4.64,0,0,0-.65,3.09l-4.93-.78a8.42,8.42,0,0,1,.69-4,8.31,8.31,0,0,1,2.58-3.3,8.13,8.13,0,0,1,4.11-1.6,8.62,8.62,0,0,1,4.44.59,7.77,7.77,0,0,1,3.24,2.49,7.28,7.28,0,0,1,1.47,3.64,8.69,8.69,0,0,1-.48,4,19.27,19.27,0,0,1-2.28,4.21c-.57.9-1.46,2.27-2.66,4.09a4.7,4.7,0,0,0-.38.6l7.34-.83.56,4.92-15.94,1.8Z"/><path class="cls-39" d="M875.67,638.75l-.47-4.23,11.22-1.27.48,4.23Z"/></g></g></g></svg>