<svg xmlns="http://www.w3.org/2000/svg" viewBox="0 0 740.36 523.74"><defs><style>.cls-1,.cls-2{fill:#5c5052;}.cls-2{font-size:39.71px;font-family:Acre-Light, Acre;font-weight:300;}.cls-3{letter-spacing:-0.01em;}.cls-4{letter-spacing:-0.02em;}.cls-5{letter-spacing:-0.02em;}.cls-6{fill:#3da9a0;}.cls-7{fill:none;stroke:#5c5052;stroke-miterlimit:10;stroke-width:0.67px;}.cls-8{fill:#eb6a7c;}</style></defs><g id="Layer_2" data-name="Layer 2"><g id="Layer_13" data-name="Layer 13"><polygon class="cls-1" points="454.49 283.46 493.26 248.67 455.56 284.61 454.49 283.46"/><text class="cls-2" transform="translate(35.56 101.8)">b<tspan class="cls-3" x="24.5" y="0">e</tspan><tspan x="46.42" y="0">t</tspan><tspan class="cls-4" x="57.42" y="0">t</tspan><tspan x="67.62" y="0">er </tspan><tspan class="cls-4" x="115.83" y="0">t</tspan><tspan x="126.03" y="0">og</tspan><tspan class="cls-3" x="174.44" y="0">e</tspan><tspan x="196.36" y="0">t</tspan><tspan class="cls-5" x="207.36" y="0">h</tspan><tspan x="229.44" y="0">er!</tspan></text><path class="cls-6" d="M474.93,214c16.33-13.33,26.05-5.4,29.76-.85l.62.8a16.68,16.68,0,0,1,1.13,1.72s38,6.3,4.24,36.87c-22.29,20.16-47.59,14.39-47.59,14.39S460.72,225.61,474.93,214Z"/><path class="cls-6" d="M499.27,200.11c-4.92,32.85-47,13.28-47,13.28-30.2-17.68-36.16-70.9-36.16-70.9,30.79-14.56,70.21,1,70.21,1,1.83,1,3.52,2,5.11,3C501.36,118.19,520,96.11,520,96.11s44.48,42.32,34.46,70.73-37.25,28.7-37.25,28.7h0c-1.14.48-4.5,3.53-1.3,9.45l-3.15-1.79c.53-1.89-1.14-5.11,1.41-8.76a58.35,58.35,0,0,1-8.52-4.25,45.45,45.45,0,0,1-5.22,7.39"/><path class="cls-6" d="M518.54,210.11s-9.57,1.14-13,10.17c0,0,1-9.51,13-12.92C522.42,206.25,518.54,210.11,518.54,210.11Z"/><path class="cls-6" d="M565.5,383.86c1.12-40.22,2.84-117.51,2.84-117.51-33.15-57.53-76-70.21-76-70.21l.24-1.46c41.28,9.1,77.7,63.84,77.7,63.84,1.45-28.82,4.51-41.25,4.51-41.25.59-.65,1.15-1.32,1.71-2-3.26-3.73-6.19-11.47-3.16-13.71,6.56-4.86,7.31,3.16,7.18,8.73a118.74,118.74,0,0,0,20.24-42.95c-.36-2.86-2.08-7-7.33-12.52-14.93,17.85-17.13-11.36-17.13-11.36l-1.51-19s14,1.44,21.11,7.86a34.28,34.28,0,0,1,1.64-6.28c7.06-19.61,29.82-29,29.82-29s4.33,23.54,1.44,40.07l1-.05s11.58,2,22.67,19.19c0,0-33,30.73-45.51,6.16a27.4,27.4,0,0,1-2-4.86,81.66,81.66,0,0,1-1.24,11,7.86,7.86,0,0,1-.19,1.06h0c-5,25.89-20.48,45.11-20.48,45.11-5.09,12.39-7.29,58-8.09,108.62,26.52-39.24,41.12-60.29,61-69.27a55.35,55.35,0,0,1,.89-6.49c-9,.5-32.85-.25-32.58-21.87a69.46,69.46,0,0,1,16.9-43.93s40.9,18.72,38.07,41.53c1.93-11.9,9.25-25.4,32.47-25.56,41.58-.28,48.64,17.47,48.64,17.47S733.3,248,705.05,267.08c-4.73,3.2-9.15,4.59-13.23,4.7,7.49,17.68.68,38.55.68,38.55s-25.9,20.56-48.65-9.25c-21.33-27.95,2.85-37,6-38-3.14-2.19-10.48-5.66-17.44-3.23-24.43,11.24-48.24,55.56-57.43,68.17,0,1.14,0,2.28-.05,3.43,3.86-1.25,10.29-2.35,15.39,1.57,40.38-2.82,41.56,31.84,41.56,31.84,37,13.33,31.63,54.7,31.63,54.7-40-10.2-42.29-43.15-42.29-43.15a78.22,78.22,0,0,1-7.46-4.72h0s-6,14.9,2.67,40.86-7.84,37.33-7.84,37.33c-37.66-30.09-9.42-37.39-21.13-61.18s4-43.38,4.05-43.39c-1.49-3.19-1.71-7.65-2.33-9.73-4.95-5.12-10.1-3-14.31.6-.82,74.31,1,154.29,1,154.29l-10.46.39c-1.49-63.46-2.18-44.83-1.2-83.89M604.88,149.1l.18-.51-.22-.06C604.86,148.72,604.87,148.91,604.88,149.1Zm-.85-.84a13.49,13.49,0,0,1-4.75-3,25.65,25.65,0,0,1-3.62,6.76c-.54.76-1.08,1.46-1.59,2.11a27.4,27.4,0,0,1,8,7.68A119.51,119.51,0,0,0,604,148.26ZM650.65,262c1.51-2.53,6.29-9.38,14.2-10.26-1.48-2.49-2.67-4.79-3.54-6.61-6.78.93-14,3.92-22.44,10.59C640.56,254.54,645.29,256.72,650.65,262ZM661,244.41c-.92-2-1.41-3.24-1.41-3.24a53.33,53.33,0,0,1-.51-16.36c-3.33,21.39-18.75,22.52-18.75,22.52s-.49.07-1.33.15a9.72,9.72,0,0,1-.82,5.18C649.75,245,657.24,244.13,661,244.41Z"/><polygon class="cls-1" points="408.48 273.33 372.74 235.61 409.6 272.24 408.48 273.33"/><polygon class="cls-1" points="430.75 262.73 434.47 235.4 432.31 262.9 430.75 262.73"/><path class="cls-7" d="M337.11,116.18c12.58-10.92,19.69-23.33,19.69-36.48C356.8,35.87,277.92.33,180.61.33S4.41,35.87,4.41,79.7c0,35.38,51.42,65.35,122.44,75.59C142,214.8,236.31,281,236.31,281c-88.14-64.52-88.95-123.34-88.95-123.34h0c10.76.93,21.88,1.42,33.25,1.42,55.49,0,105-11.56,137.28-29.62,18.66,21.48,77.31,28.2,77.31,28.2C341.19,144.51,337.12,116.22,337.11,116.18Z"/><path class="cls-6" d="M472.73,347.08c33.82,4.94,92.54,46.34,92.54,46.34l1.46-25.56C561.62,378.65,500.35,345,500.35,345c-3.58-1.15-10.71-5.79-12.49-8.22-3-4.06-4.52-9.2-3.41-13.53,2.17-8.47,13.17-15.4,12.08-20.26-.79-1.83-3.2-1.95-5.11-1.8-2.46.36-4.15,1.73-6,3.08a15.61,15.61,0,0,0-4.23,4.55c-2.47,4-3.48,11-6.4,13.73-3.75-.42-2.16-11.5-1.81-13.59.71-4.3,3.65-9.12,3.41-13.59-.19-3.58-.78-9.29-5.34-6.81-2.64,1.44-4.77,4.55-5.82,7.07a38.21,38.21,0,0,0-2.47,13,61.8,61.8,0,0,0,0,6.94,26.71,26.71,0,0,1-.17,5.24c-8.1-5.61-6.95-18.89-12-26.55-2.12-3.22-4.76-3-6.9.35-2.39,3.71-1.88,6.74-1.39,11.24,1.06,9.61,5.64,13.27,12.54,21.09,5.27,6,5.39,8.06.93,10.83-2.75,1.7-5.57,1.38-9.87,2.73-3.36,1.05-7.56,4.34-7.43,8.5s3.27,8.16,7.85,4.86c3.1-2.23,3.7-3.51,6.66-6,3.81-3.15,9.63-6.5,13.14-2.95A24.5,24.5,0,0,0,472.73,347.08Z"/><path class="cls-8" d="M333.27,354.34c-9.73-22.54-17.51-35.45-17.52-35.47a37.47,37.47,0,1,0-64.26,38.35c43.3,80,41.82,129,41.82,129a37.47,37.47,0,1,0,74.93,0,36.65,36.65,0,0,0-.25-4.22l.25,0a472.07,472.07,0,0,0-28.13-111"/><path class="cls-8" d="M405.79,347.24c3.75.11,6.54-.28,9.69-2,2.75-1.54,2.24-2.31,5.68-3.88,3.62-1.67,7.61-1.82,10.85.43s3.79,4.72,7.07,6.4c7.19,3.68,8.33-9.56,1.3-13.05-2.48-1.23-5.57-1.25-7.74-2.79a5.59,5.59,0,0,1-2.56-6.07c1-4.9,4.13-9.46,5.88-14.19,2.07-5.59,2.09-10.45,1.8-16-.22-4.07-3.22-13.69-8.78-6.62-2.85,3.64-2.21,10.7-2.21,15.26a41.08,41.08,0,0,1-.51,6.15,7.14,7.14,0,0,1-1.37,3c-1.24,1.51-1.91,1-2.28-.15-.24-6.55.12-13.49-3.82-20.32-1.62-2.8-5.58-7.86-9-5.08-1.58,1.27-2.77,7.22.12,12.05,1.82,4,3.08,6,3.86,10.46.94,3.29-1.35,5.84-2.34,2.68-1.31-7-3.65-12.7-11.21-16.51-4.38-2.2-8.78.28-6.89,4.41,1.66,3.66,6.34,6.79,8.54,10.21,6,9.25-2.3,20.85-10.32,26.8l-2.62,1.79,0,0h0c-16.54,11.31-48.05,34.06-49.33,43.91-2.8,21.64-1.83,27-.63,27.87C339.29,407,367,367.28,399,349.5,399,349.5,404,347.19,405.79,347.24Z"/><path class="cls-8" d="M340.57,411.27a7.78,7.78,0,0,1-.57.63A2.92,2.92,0,0,0,340.57,411.27Z"/><path class="cls-8" d="M340,411.9a.87.87,0,0,1-1.09.16C338.86,412.71,339.22,412.7,340,411.9Z"/></g></g></svg>