<svg xmlns="http://www.w3.org/2000/svg" viewBox="0 0 1250 769.4779"><defs><style>.cls-1{font-size:49.6362px;}.cls-1,.cls-19,.cls-20{fill:#5c5052;}.cls-1,.cls-20{font-family:Acre-Light, Acre;font-weight:300;}.cls-2{letter-spacing:-0.015em;}.cls-3{letter-spacing:-0.005em;}.cls-4{letter-spacing:-0.003em;}.cls-11,.cls-5{letter-spacing:-0.005em;}.cls-6{letter-spacing:-0.025em;}.cls-7{letter-spacing:-0.013em;}.cls-8{letter-spacing:-0.02em;}.cls-9{letter-spacing:0.007em;}.cls-10,.cls-11,.cls-12,.cls-13{font-family:Acre-Bold, Acre;font-weight:700;}.cls-12{letter-spacing:-0.017em;}.cls-13{letter-spacing:-0.007em;}.cls-14{letter-spacing:-0.015em;}.cls-15{letter-spacing:0.007em;}.cls-16{letter-spacing:-0.008em;}.cls-17{letter-spacing:0em;}.cls-18{letter-spacing:-0.01em;}.cls-20{font-size:39.709px;}.cls-21{letter-spacing:-0.02em;}.cls-22{fill:#3da9a0;}.cls-23{fill:none;stroke:#5c5052;stroke-miterlimit:10;stroke-width:0.6688px;}.cls-24{fill:#eb6a7c;}</style></defs><g id="Layer_2" data-name="Layer 2"><g id="Layer_13" data-name="Layer 13"><text class="cls-1" transform="translate(192.2535 639.8779)">t<tspan class="cls-2" x="13.7488" y="0">h</tspan><tspan class="cls-3" x="41.3467" y="0">e</tspan><tspan class="cls-4" x="69.1428" y="0">s</tspan><tspan x="89.2454" y="0">e mutual</tspan><tspan class="cls-5" x="289.9709" y="0">l</tspan><tspan class="cls-6" x="300.9412" y="0">y</tspan><tspan x="324.2202" y="0" xml:space="preserve"> be</tspan><tspan class="cls-2" x="400.0129" y="0">n</tspan><tspan class="cls-7" x="427.5608" y="0">e</tspan><tspan x="454.9602" y="0">ficial </tspan><tspan class="cls-8" x="576.9143" y="0">r</tspan><tspan x="591.0107" y="0">elatio</tspan><tspan class="cls-9" x="716.9849" y="0">n</tspan><tspan x="745.6245" y="0">shi</tspan><tspan class="cls-5" x="806.6763" y="0">p</tspan><tspan x="837.0044" y="0">s, </tspan><tspan x="15.2134" y="59.5635">called </tspan><tspan class="cls-10" x="170.2747" y="59.5635">s</tspan><tspan class="cls-11" x="192.5608" y="59.5635">y</tspan><tspan class="cls-10" x="219.5134" y="59.5635">mbi</tspan><tspan class="cls-12" x="309.2051" y="59.5635">o</tspan><tspan class="cls-13" x="337.5964" y="59.5635">s</tspan><tspan class="cls-12" x="359.5356" y="59.5635">e</tspan><tspan class="cls-10" x="386.3389" y="59.5635">s</tspan><tspan x="408.625" y="59.5635">, </tspan><tspan class="cls-2" x="433.9875" y="59.5635">h</tspan><tspan x="461.5854" y="59.5635">a</tspan><tspan class="cls-14" x="492.2104" y="59.5635">v</tspan><tspan x="516.3831" y="59.5635">e </tspan><tspan class="cls-14" x="561.5508" y="59.5635">ev</tspan><tspan x="613.0229" y="59.5635">o</tspan><tspan class="cls-5" x="642.9036" y="59.5635">l</tspan><tspan class="cls-14" x="653.8738" y="59.5635">v</tspan><tspan x="678.0464" y="59.5635">ed </tspan><tspan class="cls-14" x="753.8394" y="59.5635">ov</tspan><tspan x="807.1484" y="59.5635">er </tspan><tspan x="100.7615" y="119.127">millio</tspan><tspan class="cls-15" x="221.376" y="119.127">n</tspan><tspan x="250.0151" y="119.127">s a</tspan><tspan class="cls-14" x="318.0149" y="119.127">n</tspan><tspan x="345.5625" y="119.127">d millio</tspan><tspan class="cls-15" x="513.9258" y="119.127">n</tspan><tspan x="542.5649" y="119.127">s </tspan><tspan class="cls-7" x="579.9397" y="119.127">o</tspan><tspan x="609.1758" y="119.127">f</tspan><tspan class="cls-16" x="622.9246" y="119.127"> </tspan><tspan class="cls-14" x="639.6516" y="119.127">y</tspan><tspan class="cls-17" x="663.4268" y="119.127">ea</tspan><tspan class="cls-18" x="722.0957" y="119.127">r</tspan><tspan x="736.6885" y="119.127">s.</tspan></text><polygon class="cls-19" points="659.395 283.457 698.165 248.674 660.459 284.608 659.395 283.457"/><text class="cls-20" transform="translate(248.4676 95.7988)">b<tspan class="cls-7" x="24.5" y="0">e</tspan><tspan x="46.4194" y="0">t</tspan><tspan class="cls-21" x="57.4185" y="0">t</tspan><tspan x="67.6238" y="0">er </tspan><tspan class="cls-21" x="115.8289" y="0">t</tspan><tspan x="126.0342" y="0">og</tspan><tspan class="cls-7" x="174.4385" y="0">e</tspan><tspan x="196.3579" y="0">t</tspan><tspan class="cls-14" x="207.3569" y="0">h</tspan><tspan x="229.4351" y="0">er!</tspan></text><path class="cls-22" d="M679.8335,214.0094c16.33-13.3268,26.0525-5.3976,29.76-.8488l.6183.7961a14.5686,14.5686,0,0,1,1.1267,1.7278s38.0286,6.2961,4.2441,36.8642c-22.2911,20.1646-47.59,14.39-47.59,14.39S665.6191,225.61,679.8335,214.0094Z"/><path class="cls-22" d="M704.1733,200.1074c-4.9205,32.8571-46.982,13.2848-46.982,13.2848-30.1954-17.6818-36.1587-70.8986-36.1587-70.8986,30.79-14.5678,70.2125,1.0491,70.2125,1.0491,1.829.9857,3.52,1.9843,5.1058,2.9924,9.9165-28.348,28.5516-50.4269,28.5516-50.4269s44.4853,42.3223,34.4632,70.7285c-10.02,28.404-37.2488,28.7035-37.2488,28.7035h0c-1.1418.4793-4.5047,3.5266-1.299,9.4522l-3.154-1.7956c.5321-1.8862-1.14-5.1058,1.4111-8.7543a58.3333,58.3333,0,0,1-8.5247-4.2483,44.9681,44.9681,0,0,1-5.2158,7.3873"/><path class="cls-22" d="M723.4419,210.11s-9.57,1.14-13.0166,10.1664c0,0,.9758-9.5082,13.0166-12.92C727.3261,206.2548,723.4419,210.11,723.4419,210.11Z"/><path class="cls-22" d="M770.4,383.86c1.12-40.2175,2.8439-117.507,2.8439-117.507-33.1512-57.533-75.98-70.2113-75.98-70.2113l.2434-1.4629c41.28,9.1011,77.6925,63.84,77.6925,63.84,1.4563-28.8209,4.5133-41.2483,4.5133-41.2483.59-.6528,1.1462-1.3153,1.7127-1.9745-3.26-3.7282-6.1959-11.4634-3.1647-13.71,6.5578-4.859,7.3075,3.1606,7.1848,8.7381a118.78,118.78,0,0,0,20.2379-42.9512c-.36-2.8588-2.0768-7.0426-7.3334-12.5265-14.93,17.8541-17.1271-11.3545-17.1271-11.3545l-1.51-18.9583s13.9732,1.4326,21.1149,7.8591a33.1989,33.1989,0,0,1,1.6372-6.2778c7.062-19.6133,29.8163-29.03,29.8163-29.03s4.328,23.5341,1.4412,40.0612c.6334-.04.9974-.0464.9974-.0464s11.5861,1.9929,22.6681,19.19c0,0-32.955,30.734-45.5063,6.1647a27.2747,27.2747,0,0,1-1.967-4.8592,82.806,82.806,0,0,1-1.2409,11.01,9.4177,9.4177,0,0,1-.1938,1.0578h-.0022c-4.9571,25.8867-20.4879,45.1111-20.4879,45.1111-5.0906,12.3907-7.2881,57.9767-8.0831,108.6137,26.52-39.2383,41.12-60.283,60.97-69.2657a52.9588,52.9588,0,0,1,.8854-6.4888c-9.0353.4933-32.8516-.251-32.5781-21.8721a69.489,69.489,0,0,1,16.8988-43.9347s40.896,18.7256,38.0652,41.5294c1.9389-11.8963,9.2551-25.3912,32.47-25.5528,41.5833-.2865,48.6454,17.4675,48.6454,17.4675s-7.0621,32.7117-35.3077,51.8078c-4.7331,3.1992-9.1518,4.5931-13.2364,4.7073,7.4972,17.6776.6808,38.5456.6808,38.5456s-25.8931,20.5633-48.6474-9.2485c-21.3324-27.9527,2.8545-36.9785,5.9568-37.9975-3.1346-2.1941-10.481-5.6637-17.433-3.2325-24.4347,11.2338-48.24,55.5563-57.4372,68.1658q-.0291,1.7126-.0495,3.43c3.8671-1.25,10.2891-2.3484,15.3928,1.5682,40.379-2.8136,41.5553,31.8468,41.5553,31.8468,37.0161,13.3268,31.6323,54.6957,31.6323,54.6957-40.0149-10.2008-42.2877-43.1528-42.2877-43.1528a77.6719,77.6719,0,0,1-7.4648-4.7114l.0043.0064s-5.959,14.9037,2.6735,40.8572c8.63,25.9514-7.8462,37.33-7.8462,37.33-37.66-30.0888-9.4144-37.39-21.13-61.1783-11.7111-23.7818,4.0458-43.3811,4.0566-43.3917-1.4929-3.1832-1.7106-7.6459-2.331-9.7281-4.955-5.1219-10.1061-3.0537-14.3091.599-.8273,74.3153,1.0318,154.2892,1.0318,154.2892l-10.4507.3964c-1.493-63.465-2.18-44.8374-1.2064-83.8959m40.6719-257.88c.0561-.17.1185-.3383.1788-.5042-.06-.0172-.1379-.04-.22-.0624C809.76,148.7175,809.771,148.9071,809.7839,149.0978Zm-.8553-.8424a13.3812,13.3812,0,0,1-4.7481-3.0387,25.3825,25.3825,0,0,1-3.615,6.76c-.5451.7617-1.0772,1.4606-1.5942,2.11a27.3416,27.3416,0,0,1,7.9883,7.6792A118.1455,118.1455,0,0,0,808.9286,148.2554Zm46.6267,113.79c1.51-2.5368,6.2907-9.3811,14.2015-10.2677-1.4866-2.4871-2.6735-4.7891-3.546-6.6094-6.782.9274-13.999,3.9251-22.44,10.5886C845.4664,254.5446,850.1888,256.7194,855.5553,262.045Zm10.3-17.6312c-.9243-1.9906-1.4068-3.24-1.4068-3.24a53.4084,53.4084,0,0,1-.5127-16.3634c-3.3307,21.3872-18.7515,22.5237-18.7515,22.5237s-.4913.0668-1.3315.1465a9.6865,9.6865,0,0,1-.8144,5.1758C854.6569,245.0063,862.1454,244.1338,865.8553,244.4138Z"/><polygon class="cls-19" points="613.386 273.331 577.644 235.606 614.508 272.236 613.386 273.331"/><polygon class="cls-19" points="635.651 262.734 639.37 235.401 637.209 262.901 635.651 262.734"/><path class="cls-23" d="M542.0175,116.18c12.5771-10.9236,19.6887-23.3283,19.6887-36.4828C561.7062,35.8661,482.82.3344,385.5115.3344S209.3157,35.8661,209.3157,79.6975c0,35.3852,51.4179,65.3566,122.4339,75.5951,15.1279,59.5107,109.4594,125.688,109.4594,125.688-88.1324-64.5249-88.95-123.3377-88.95-123.3377h0c10.7695.9265,21.8827,1.4177,33.2524,1.4177,55.495,0,104.9891-11.5592,137.2849-29.6213,18.6588,21.4789,77.3046,28.2036,77.3046,28.2036C546.0893,144.5069,542.0239,116.2159,542.0175,116.18Z"/><path class="cls-22" d="M677.63,347.0836c33.8255,4.94,92.5445,46.3315,92.5445,46.3315l1.4584-25.5516c-5.1058,10.789-66.3777-22.8933-66.3777-22.8933-3.5848-1.1471-10.7071-5.7929-12.4952-8.2166-2.9989-4.0642-4.52-9.2-3.4082-13.5358,2.1694-8.4644,13.17-15.4015,12.0859-20.2574-.7971-1.8344-3.2079-1.95-5.1122-1.8043-2.4646.3684-4.1472,1.7375-6,3.0883a15.4626,15.4626,0,0,0-4.2268,4.5436c-2.4774,3.9876-3.4858,11.028-6.407,13.7361-3.7507-.4266-2.1543-11.501-1.8053-13.5983.7109-4.2925,3.6494-9.12,3.4081-13.5907-.1939-3.5708-.78-9.2853-5.3449-6.8045-2.6391,1.4347-4.77,4.5543-5.819,7.0663a38.4879,38.4879,0,0,0-2.471,13.051,64.8515,64.8515,0,0,0,0,6.9381,26.3424,26.3424,0,0,1-.1659,5.24c-8.0982-5.6088-6.952-18.8893-11.9868-26.5416-2.122-3.2271-4.7654-2.9665-6.9046.3491-2.3913,3.71-1.883,6.7409-1.3875,11.2338,1.0621,9.6074,5.638,13.2763,12.5426,21.0965,5.27,5.9665,5.3881,8.0573.9308,10.8224-2.7555,1.7073-5.5777,1.3873-9.8755,2.7295-3.363,1.05-7.5618,4.3465-7.4326,8.5087.1271,4.0351,3.2768,8.1542,7.8569,4.8558,3.0959-2.2287,3.6926-3.5115,6.6613-5.9654,3.8068-3.1475,9.6278-6.4932,13.1308-2.945A24.7434,24.7434,0,0,0,677.63,347.0836Z"/><path class="cls-24" d="M538.1763,354.34c-9.7377-22.5367-17.5127-35.4488-17.5235-35.4671a37.4668,37.4668,0,1,0-64.2579,38.3442c43.2961,79.9942,41.816,129.0543,41.816,129.0543a37.4653,37.4653,0,1,0,74.687-4.2226l.2435-.015A471.6871,471.6871,0,0,0,545.01,371.0541"/><path class="cls-24" d="M610.6982,347.24c3.7486.11,6.5319-.2767,9.6859-2.0347,2.7533-1.5339,2.2384-2.3008,5.6747-3.88,3.6278-1.6653,7.6134-1.814,10.8558.4395,3.2917,2.2922,3.7894,4.7159,7.0705,6.3941,7.1869,3.6765,8.333-9.5556,1.2947-13.0532-2.4753-1.2291-5.5668-1.2409-7.74-2.7878a5.5952,5.5952,0,0,1-2.553-6.0709c1.0363-4.9011,4.1321-9.4565,5.8814-14.1886,2.0682-5.5905,2.0812-10.4464,1.7924-15.9648-.2154-4.0771-3.2164-13.69-8.7768-6.6192-2.8545,3.6322-2.206,10.6942-2.206,15.2549a41.1285,41.1285,0,0,1-.5149,6.1508,7.1268,7.1268,0,0,1-1.3723,3.044c-1.2366,1.5059-1.911.9759-2.2772-.1529-.2434-6.5471.1228-13.4949-3.824-20.3242-1.6136-2.7964-5.5712-7.8547-9.0267-5.0789-1.5791,1.2679-2.764,7.2171.1207,12.05,1.82,3.9834,3.0828,6.03,3.8583,10.4659.9459,3.2874-1.3507,5.8382-2.3374,2.6714-1.3119-6.9952-3.6538-12.6979-11.2113-16.5035-4.3818-2.2061-8.7768.2757-6.8939,4.4121,1.6611,3.6528,6.3467,6.7852,8.5485,10.203,5.9525,9.2487-2.3073,20.851-10.3215,26.8076-.8186.5549-1.7019,1.1537-2.6218,1.7839l-.0323.0205-.0022.0032c-16.5325,11.3125-48.0507,34.0593-49.3239,43.9057-2.8006,21.6437-1.8311,27.0047-.6311,27.8676.3791-5.07,28.0949-44.7772,60.0827-62.5516C603.897,349.5041,608.9036,347.1871,610.6982,347.24Z"/><path class="cls-24" d="M545.4774,411.2683c-.2154.2574-.4029.46-.5752.6365A3.0766,3.0766,0,0,0,545.4774,411.2683Z"/><path class="cls-24" d="M544.9022,411.9048a.8659.8659,0,0,1-1.0879.1509C543.7647,412.7074,544.12,412.7,544.9022,411.9048Z"/></g></g></svg>