<?xml version="1.0" encoding="UTF-8"?><svg xmlns="http://www.w3.org/2000/svg" viewBox="0 0 1250 810.26"><defs><style>.d{fill:#eb6a7c;}.e{fill:#3da9a0;}.f{fill:#5c5052;}.g{fill:none;stroke:#5c5052;stroke-miterlimit:10;stroke-width:.67px;}</style></defs><g id="a"/><g id="b"><g id="c"><g><g><path class="f" d="M68.64,625.19l-.05,14.69h-2.98v-14.1c0-5.06-2.53-8.34-6.65-8.34s-6.65,3.28-6.65,8.69l-.05,13.75h-2.93v-14.1c0-5.06-2.53-8.34-6.65-8.34s-6.65,3.28-6.65,8.69v13.75h-2.98v-24.82h2.98v3.72c1.34-2.28,3.77-4.17,7.3-4.17s6.65,1.94,8.09,5.61c1.24-2.88,3.92-5.61,8.19-5.61,4.96,0,9.03,3.72,9.03,10.57Z"/><path class="f" d="M96.48,615.06v24.82h-2.98v-4.07c-1.44,2.53-4.27,4.52-7.94,4.52-5.11,0-9.53-3.62-9.53-11.27v-14h2.93v13.45c0,5.96,2.93,9.03,7.25,9.03,3.82,0,6.9-2.63,7.3-7.79v-14.69h2.98Z"/><path class="f" d="M113.51,617.94h-5.11v21.94h-2.98v-21.94h-3.18v-2.88h3.18v-6.65h2.98v6.65h5.11v2.88Z"/><path class="f" d="M138.52,615.06v24.82h-2.98v-4.07c-1.44,2.53-4.27,4.52-7.94,4.52-5.11,0-9.53-3.62-9.53-11.27v-14h2.93v13.45c0,5.96,2.93,9.03,7.25,9.03,3.82,0,6.9-2.63,7.3-7.79v-14.69h2.98Z"/><path class="f" d="M169.15,615.06v24.82h-2.98v-5.11c-1.94,3.23-5.26,5.46-9.43,5.46-6.9,0-11.71-5.71-11.71-12.71s4.81-12.76,11.71-12.76c4.17,0,7.5,2.23,9.43,5.51v-5.21h2.98Zm-2.98,12.46c0-5.31-3.82-9.88-9.13-9.88s-8.98,4.52-8.98,9.88,3.67,9.83,8.98,9.83,9.13-4.52,9.13-9.83Z"/><path class="f" d="M177.39,600.17h2.98v39.71h-2.98v-39.71Z"/><path class="f" d="M188.61,600.17h2.98v39.71h-2.98v-39.71Z"/><path class="f" d="M219.58,615.06l-14.79,34.75h-2.98l4.47-10.52-10.42-24.22h3.23l8.69,20.95,8.59-20.95h3.23Z"/><path class="f" d="M264.1,627.47c0,7-4.81,12.76-11.71,12.76-4.17,0-7.5-2.23-9.43-5.51v5.16h-2.98v-39.71h2.98v20.05c1.94-3.23,5.26-5.46,9.43-5.46,6.9,0,11.71,5.71,11.71,12.71Zm-3.03,0c0-5.41-3.67-9.83-8.98-9.83s-9.13,4.52-9.13,9.83,3.82,9.88,9.13,9.88,8.98-4.52,8.98-9.88Z"/><path class="f" d="M292.39,628.51h-20.5c.45,5.06,4.02,8.88,9.53,8.88,3.47,0,6.3-1.39,8.44-3.42v3.38c-2.13,1.74-5.11,2.88-8.54,2.88-7.79,0-12.46-5.86-12.46-12.76s4.86-12.71,11.96-12.71,11.71,6.45,11.57,13.75Zm-20.45-2.63h17.27c-.65-4.62-3.72-8.24-8.39-8.24s-8.24,3.57-8.89,8.24Z"/><path class="f" d="M319.1,625.88v14h-2.93v-13.45c0-5.96-2.93-9.03-7.25-9.03-3.82,0-6.9,2.63-7.3,7.79v14.69h-2.98v-24.82h2.98v4.07c1.44-2.53,4.27-4.52,7.94-4.52,5.11,0,9.53,3.62,9.53,11.27Z"/><path class="f" d="M347.99,628.51h-20.5c.45,5.06,4.02,8.88,9.53,8.88,3.47,0,6.3-1.39,8.44-3.42v3.38c-2.13,1.74-5.11,2.88-8.54,2.88-7.79,0-12.46-5.86-12.46-12.76s4.86-12.71,11.96-12.71,11.71,6.45,11.57,13.75Zm-20.45-2.63h17.27c-.65-4.62-3.72-8.24-8.39-8.24s-8.24,3.57-8.89,8.24Z"/><path class="f" d="M369.13,639.88h-2.98v-21.94h-8.93v21.94h-2.93v-21.94h-3.18v-2.88h3.18v-10.23c0-3.18,2.04-4.96,4.67-4.96,1.44,0,2.58,.45,3.42,.99v3.08c-.79-.5-1.64-1.04-2.88-1.04s-2.28,.89-2.28,2.48v9.68h11.91v24.82Zm-3.62-31.87c0-1.19,.89-2.13,2.08-2.13s2.13,.94,2.13,2.13-.94,2.08-2.13,2.08-2.08-.89-2.08-2.08Z"/><path class="f" d="M376.18,627.47c0-6.9,4.96-12.81,12.66-12.81,3.42,0,6.2,1.14,8.29,2.93v3.67c-1.74-2.08-4.67-3.67-8.19-3.67-5.86,0-9.78,4.52-9.78,9.88s3.92,9.88,9.78,9.88c3.52,0,6.45-1.59,8.19-3.67v3.67c-2.08,1.79-4.86,2.93-8.29,2.93-7.69,0-12.66-5.91-12.66-12.81Z"/><path class="f" d="M404.12,608.01c0-1.19,.89-2.13,2.08-2.13s2.13,.94,2.13,2.13-.94,2.08-2.13,2.08-2.08-.89-2.08-2.08Zm.65,7.05h2.98v24.82h-2.98v-24.82Z"/><path class="f" d="M438.97,615.06v24.82h-2.98v-5.11c-1.94,3.23-5.26,5.46-9.43,5.46-6.9,0-11.71-5.71-11.71-12.71s4.81-12.76,11.71-12.76c4.17,0,7.5,2.23,9.43,5.51v-5.21h2.98Zm-2.98,12.46c0-5.31-3.82-9.88-9.13-9.88s-8.98,4.52-8.98,9.88,3.67,9.83,8.98,9.83,9.13-4.52,9.13-9.83Z"/><path class="f" d="M447.21,600.17h2.98v39.71h-2.98v-39.71Z"/><path class="f" d="M485.68,614.66v3.38c-4.02-.3-7.15,3.08-7.15,8.19v13.65h-2.98v-24.82h2.98v4.57c1.29-2.58,3.67-4.96,7.15-4.96Z"/><path class="f" d="M511.44,628.51h-20.5c.45,5.06,4.02,8.88,9.53,8.88,3.47,0,6.3-1.39,8.44-3.42v3.38c-2.13,1.74-5.11,2.88-8.54,2.88-7.79,0-12.46-5.86-12.46-12.76s4.86-12.71,11.96-12.71,11.71,6.45,11.57,13.75Zm-20.45-2.63h17.27c-.65-4.62-3.72-8.24-8.39-8.24s-8.24,3.57-8.89,8.24Z"/><path class="f" d="M517.69,600.17h2.98v39.71h-2.98v-39.71Z"/><path class="f" d="M551.29,615.06v24.82h-2.98v-5.11c-1.94,3.23-5.26,5.46-9.43,5.46-6.9,0-11.71-5.71-11.71-12.71s4.81-12.76,11.71-12.76c4.17,0,7.5,2.23,9.43,5.51v-5.21h2.98Zm-2.98,12.46c0-5.31-3.82-9.88-9.13-9.88s-8.98,4.52-8.98,9.88,3.67,9.83,8.98,9.83,9.13-4.52,9.13-9.83Z"/><path class="f" d="M568.32,617.94h-5.11v21.94h-2.98v-21.94h-3.18v-2.88h3.18v-6.65h2.98v6.65h5.11v2.88Z"/><path class="f" d="M573.28,608.01c0-1.19,.89-2.13,2.08-2.13s2.13,.94,2.13,2.13-.94,2.08-2.13,2.08-2.08-.89-2.08-2.08Zm.65,7.05h2.98v24.82h-2.98v-24.82Z"/><path class="f" d="M584,627.42c0-6.85,5.11-12.76,12.56-12.76s12.56,5.91,12.56,12.76-5.11,12.81-12.56,12.81-12.56-5.91-12.56-12.81Zm22.14,0c0-5.26-3.87-9.83-9.58-9.83s-9.53,4.57-9.53,9.83,3.87,9.88,9.53,9.88,9.58-4.62,9.58-9.88Z"/><path class="f" d="M636.07,625.88v14h-2.93v-13.45c0-5.96-2.93-9.03-7.25-9.03-3.82,0-6.9,2.63-7.3,7.79v14.69h-2.98v-24.82h2.98v4.07c1.44-2.53,4.27-4.52,7.94-4.52,5.11,0,9.53,3.62,9.53,11.27Z"/><path class="f" d="M642.32,636.35l2.04-2.18c1.49,1.84,3.67,3.23,6.06,3.23,2.68,0,4.81-1.54,4.81-3.97,0-6.2-12.36-4.17-12.31-12.41,.05-3.57,3.08-6.3,7.25-6.35,3.28,0,6.01,1.84,7.5,3.52l-1.84,2.13c-1.24-1.34-3.18-2.78-5.61-2.78s-4.27,1.49-4.32,3.47c-.1,5.76,12.36,3.77,12.31,12.46-.05,3.82-3.18,6.8-7.89,6.8-3.08,0-6.3-1.74-7.99-3.92Z"/><path class="f" d="M685.01,625.88v14h-2.93v-13.45c0-5.96-2.93-9.03-7.25-9.03s-7.35,3.08-7.35,9.03v13.45h-2.98v-39.71h2.98v19.01c1.44-2.53,4.27-4.57,7.99-4.57,5.11,0,9.53,3.62,9.53,11.27Z"/><path class="f" d="M692.85,608.01c0-1.19,.89-2.13,2.08-2.13s2.13,.94,2.13,2.13-.94,2.08-2.13,2.08-2.08-.89-2.08-2.08Zm.65,7.05h2.98v24.82h-2.98v-24.82Z"/><path class="f" d="M729.38,627.47c0,7-4.81,12.76-11.71,12.76-4.12,0-7.45-2.18-9.38-5.41v14.99h-2.98v-34.75h2.98v5.11c1.94-3.23,5.26-5.41,9.38-5.41,6.9,0,11.71,5.71,11.71,12.71Zm-3.03,0c0-5.41-3.67-9.83-8.98-9.83-4.96,0-8.64,3.92-9.08,8.79v2.08c.45,4.86,4.12,8.84,9.08,8.84,5.31,0,8.98-4.52,8.98-9.88Z"/><path class="f" d="M733.7,636.35l2.04-2.18c1.49,1.84,3.67,3.23,6.06,3.23,2.68,0,4.81-1.54,4.81-3.97,0-6.2-12.36-4.17-12.31-12.41,.05-3.57,3.08-6.3,7.25-6.35,3.28,0,6.01,1.84,7.5,3.52l-1.84,2.13c-1.24-1.34-3.18-2.78-5.61-2.78s-4.27,1.49-4.32,3.47c-.1,5.76,12.36,3.77,12.31,12.46-.05,3.82-3.18,6.8-7.89,6.8-3.08,0-6.3-1.74-7.99-3.92Z"/><path class="f" d="M797.14,627.47c0,7-4.81,12.76-11.71,12.76-4.17,0-7.5-2.23-9.43-5.51v5.16h-2.98v-39.71h2.98v20.05c1.94-3.23,5.26-5.46,9.43-5.46,6.9,0,11.71,5.71,11.71,12.71Zm-3.03,0c0-5.41-3.67-9.83-8.98-9.83s-9.13,4.52-9.13,9.83,3.82,9.88,9.13,9.88,8.98-4.52,8.98-9.88Z"/><path class="f" d="M825.43,628.51h-20.5c.45,5.06,4.02,8.88,9.53,8.88,3.47,0,6.3-1.39,8.44-3.42v3.38c-2.13,1.74-5.11,2.88-8.54,2.88-7.79,0-12.46-5.86-12.46-12.76s4.86-12.71,11.96-12.71,11.71,6.45,11.57,13.75Zm-20.45-2.63h17.27c-.65-4.62-3.72-8.24-8.39-8.24s-8.24,3.57-8.89,8.24Z"/><path class="f" d="M839.82,617.94h-5.11v21.94h-2.98v-21.94h-3.18v-2.88h3.18v-6.65h2.98v6.65h5.11v2.88Z"/><path class="f" d="M879.98,615.06l-12.76,25.12h-1.64l-5.21-10.47-5.11,10.47h-1.69l-12.71-25.12h3.23l10.42,20.8,4.37-9.08-5.76-11.71h3.13l4.17,8.88,4.17-8.88h3.13l-5.81,11.71,4.47,9.08,10.37-20.8h3.23Z"/><path class="f" d="M905.34,628.51h-20.5c.45,5.06,4.02,8.88,9.53,8.88,3.47,0,6.3-1.39,8.44-3.42v3.38c-2.13,1.74-5.11,2.88-8.54,2.88-7.79,0-12.46-5.86-12.46-12.76s4.86-12.71,11.96-12.71,11.71,6.45,11.57,13.75Zm-20.45-2.63h17.27c-.65-4.62-3.72-8.24-8.39-8.24s-8.24,3.57-8.89,8.24Z"/><path class="f" d="M933.39,628.51h-20.5c.45,5.06,4.02,8.88,9.53,8.88,3.47,0,6.3-1.39,8.44-3.42v3.38c-2.13,1.74-5.11,2.88-8.54,2.88-7.79,0-12.46-5.86-12.46-12.76s4.86-12.71,11.96-12.71,11.71,6.45,11.57,13.75Zm-20.45-2.63h17.27c-.65-4.62-3.72-8.24-8.39-8.24s-8.24,3.57-8.89,8.24Z"/><path class="f" d="M960.09,625.88v14h-2.93v-13.45c0-5.96-2.93-9.03-7.25-9.03-3.82,0-6.9,2.63-7.3,7.79v14.69h-2.98v-24.82h2.98v4.07c1.44-2.53,4.27-4.52,7.94-4.52,5.11,0,9.53,3.62,9.53,11.27Z"/><path class="f" d="M1009.13,627.47c0,7-4.81,12.76-11.71,12.76-4.12,0-7.45-2.18-9.38-5.41v14.99h-2.98v-34.75h2.98v5.11c1.94-3.23,5.26-5.41,9.38-5.41,6.9,0,11.71,5.71,11.71,12.71Zm-3.03,0c0-5.41-3.67-9.83-8.98-9.83-4.96,0-8.64,3.92-9.08,8.79v2.08c.45,4.86,4.12,8.84,9.08,8.84,5.31,0,8.98-4.52,8.98-9.88Z"/><path class="f" d="M1015.63,600.17h2.98v39.71h-2.98v-39.71Z"/><path class="f" d="M1049.24,615.06v24.82h-2.98v-5.11c-1.94,3.23-5.26,5.46-9.43,5.46-6.9,0-11.71-5.71-11.71-12.71s4.81-12.76,11.71-12.76c4.17,0,7.5,2.23,9.43,5.51v-5.21h2.98Zm-2.98,12.46c0-5.31-3.82-9.88-9.13-9.88s-8.98,4.52-8.98,9.88,3.67,9.83,8.98,9.83,9.13-4.52,9.13-9.83Z"/><path class="f" d="M1077.93,625.88v14h-2.93v-13.45c0-5.96-2.93-9.03-7.25-9.03-3.82,0-6.9,2.63-7.3,7.79v14.69h-2.98v-24.82h2.98v4.07c1.44-2.53,4.27-4.52,7.94-4.52,5.11,0,9.53,3.62,9.53,11.27Z"/><path class="f" d="M1094.55,617.94h-5.11v21.94h-2.98v-21.94h-3.18v-2.88h3.18v-6.65h2.98v6.65h5.11v2.88Z"/><path class="f" d="M1097.08,636.35l2.04-2.18c1.49,1.84,3.67,3.23,6.06,3.23,2.68,0,4.81-1.54,4.81-3.97,0-6.2-12.36-4.17-12.31-12.41,.05-3.57,3.08-6.3,7.25-6.35,3.28,0,6.01,1.84,7.5,3.52l-1.84,2.13c-1.24-1.34-3.18-2.78-5.61-2.78s-4.27,1.49-4.32,3.47c-.1,5.76,12.36,3.77,12.31,12.46-.05,3.82-3.18,6.8-7.89,6.8-3.08,0-6.3-1.74-7.99-3.92Z"/><path class="f" d="M1158.78,615.06v24.82h-2.98v-5.11c-1.94,3.23-5.26,5.46-9.43,5.46-6.9,0-11.71-5.71-11.71-12.71s4.81-12.76,11.71-12.76c4.17,0,7.5,2.23,9.43,5.51v-5.21h2.98Zm-2.98,12.46c0-5.31-3.82-9.88-9.13-9.88s-8.98,4.52-8.98,9.88,3.67,9.83,8.98,9.83,9.13-4.52,9.13-9.83Z"/><path class="f" d="M1187.47,625.88v14h-2.93v-13.45c0-5.96-2.93-9.03-7.25-9.03-3.82,0-6.9,2.63-7.3,7.79v14.69h-2.98v-24.82h2.98v4.07c1.44-2.53,4.27-4.52,7.94-4.52,5.11,0,9.53,3.62,9.53,11.27Z"/><path class="f" d="M1216.95,600.17v39.71h-2.98v-5.11c-1.94,3.23-5.26,5.46-9.43,5.46-6.9,0-11.71-5.71-11.71-12.71s4.81-12.76,11.71-12.76c4.17,0,7.5,2.23,9.43,5.51v-20.1h2.98Zm-2.98,27.35c0-5.31-3.82-9.88-9.13-9.88s-8.98,4.52-8.98,9.88,3.67,9.83,8.98,9.83,9.13-4.52,9.13-9.83Z"/><path class="f" d="M36.47,706.35l2.04-2.18c1.49,1.84,3.67,3.23,6.06,3.23,2.68,0,4.81-1.54,4.81-3.97,0-6.2-12.36-4.17-12.31-12.41,.05-3.57,3.08-6.3,7.25-6.35,3.28,0,6.01,1.84,7.5,3.52l-1.84,2.13c-1.24-1.34-3.18-2.78-5.61-2.78s-4.27,1.49-4.32,3.47c-.1,5.76,12.36,3.77,12.31,12.46-.05,3.82-3.18,6.8-7.89,6.8-3.08,0-6.3-1.74-7.99-3.92Z"/><path class="f" d="M56.77,697.42c0-6.85,5.11-12.76,12.56-12.76s12.56,5.91,12.56,12.76-5.11,12.81-12.56,12.81-12.56-5.91-12.56-12.81Zm22.14,0c0-5.26-3.87-9.83-9.58-9.83s-9.53,4.57-9.53,9.83,3.87,9.88,9.53,9.88,9.58-4.62,9.58-9.88Z"/><path class="f" d="M88.39,678.01c0-1.19,.89-2.13,2.08-2.13s2.13,.94,2.13,2.13-.94,2.08-2.13,2.08-2.08-.89-2.08-2.08Zm.65,7.05h2.98v24.82h-2.98v-24.82Z"/><path class="f" d="M100.85,670.17h2.98v39.71h-2.98v-39.71Z"/><path class="f" d="M127.46,697.42c0-6.85,5.11-12.76,12.56-12.76s12.56,5.91,12.56,12.76-5.11,12.81-12.56,12.81-12.56-5.91-12.56-12.81Zm22.14,0c0-5.26-3.87-9.83-9.58-9.83s-9.53,4.57-9.53,9.83,3.87,9.88,9.53,9.88,9.58-4.62,9.58-9.88Z"/><path class="f" d="M169.2,684.66v3.38c-4.02-.3-7.15,3.08-7.15,8.19v13.65h-2.98v-24.82h2.98v4.57c1.29-2.58,3.67-4.96,7.15-4.96Z"/><path class="f" d="M195.56,708.79c0,7.74-5.91,11.37-11.71,11.37-3.77,0-6.8-1.24-9.28-2.78l.05-3.23c2.63,1.89,5.71,3.23,8.89,3.23,5.21,0,9.18-3.18,9.18-9.28v-3.47c-1.94,3.33-5.31,5.61-9.53,5.61-6.9,0-11.71-5.71-11.71-12.71s4.81-12.76,11.71-12.76c4.17,0,7.5,2.23,9.43,5.56v-5.26h2.93l.05,23.73Zm-2.98-11.27c0-5.31-3.82-9.88-9.13-9.88s-8.98,4.52-8.98,9.88,3.67,9.83,8.98,9.83,9.13-4.52,9.13-9.83Z"/><path class="f" d="M226.18,685.06v24.82h-2.98v-5.11c-1.94,3.23-5.26,5.46-9.43,5.46-6.9,0-11.71-5.71-11.71-12.71s4.81-12.76,11.71-12.76c4.17,0,7.5,2.23,9.43,5.51v-5.21h2.98Zm-2.98,12.46c0-5.31-3.82-9.88-9.13-9.88s-8.98,4.52-8.98,9.88,3.67,9.83,8.98,9.83,9.13-4.52,9.13-9.83Z"/><path class="f" d="M254.87,695.88v14h-2.93v-13.45c0-5.96-2.93-9.03-7.25-9.03-3.82,0-6.9,2.63-7.3,7.79v14.69h-2.98v-24.82h2.98v4.07c1.44-2.53,4.27-4.52,7.94-4.52,5.11,0,9.53,3.62,9.53,11.27Z"/><path class="f" d="M262.71,678.01c0-1.19,.89-2.13,2.08-2.13s2.13,.94,2.13,2.13-.94,2.08-2.13,2.08-2.08-.89-2.08-2.08Zm.65,7.05h2.98v24.82h-2.98v-24.82Z"/><path class="f" d="M273.23,706.35l2.04-2.18c1.49,1.84,3.67,3.23,6.06,3.23,2.68,0,4.81-1.54,4.81-3.97,0-6.2-12.36-4.17-12.31-12.41,.05-3.57,3.08-6.3,7.25-6.35,3.28,0,6.01,1.84,7.5,3.52l-1.84,2.13c-1.24-1.34-3.18-2.78-5.61-2.78s-4.27,1.49-4.32,3.47c-.1,5.76,12.36,3.77,12.31,12.46-.05,3.82-3.18,6.8-7.89,6.8-3.08,0-6.3-1.74-7.99-3.92Z"/><path class="f" d="M331.01,695.19l-.05,14.69h-2.98v-14.1c0-5.06-2.53-8.34-6.65-8.34s-6.65,3.28-6.65,8.69l-.05,13.75h-2.93v-14.1c0-5.06-2.53-8.34-6.65-8.34s-6.65,3.28-6.65,8.69v13.75h-2.98v-24.82h2.98v3.72c1.34-2.28,3.77-4.17,7.3-4.17s6.65,1.94,8.09,5.61c1.24-2.88,3.92-5.61,8.19-5.61,4.96,0,9.03,3.72,9.03,10.57Z"/><path class="f" d="M337.21,706.35l2.04-2.18c1.49,1.84,3.67,3.23,6.06,3.23,2.68,0,4.81-1.54,4.81-3.97,0-6.2-12.36-4.17-12.31-12.41,.05-3.57,3.08-6.3,7.25-6.35,3.28,0,6.01,1.84,7.5,3.52l-1.84,2.13c-1.24-1.34-3.18-2.78-5.61-2.78s-4.27,1.49-4.32,3.47c-.1,5.76,12.36,3.77,12.31,12.46-.05,3.82-3.18,6.8-7.89,6.8-3.08,0-6.3-1.74-7.99-3.92Z"/><path class="f" d="M358.66,703.62h3.03l-2.43,11.67h-2.13l1.54-11.67Z"/><path class="f" d="M383.03,697.47c0-6.9,4.96-12.81,12.66-12.81,3.42,0,6.2,1.14,8.29,2.93v3.67c-1.74-2.08-4.67-3.67-8.19-3.67-5.86,0-9.78,4.52-9.78,9.88s3.92,9.88,9.78,9.88c3.52,0,6.45-1.59,8.19-3.67v3.67c-2.08,1.79-4.86,2.93-8.29,2.93-7.69,0-12.66-5.91-12.66-12.81Z"/><path class="f" d="M433.36,685.06v24.82h-2.98v-5.11c-1.94,3.23-5.26,5.46-9.43,5.46-6.9,0-11.71-5.71-11.71-12.71s4.81-12.76,11.71-12.76c4.17,0,7.5,2.23,9.43,5.51v-5.21h2.98Zm-2.98,12.46c0-5.31-3.82-9.88-9.13-9.88s-8.98,4.52-8.98,9.88,3.67,9.83,8.98,9.83,9.13-4.52,9.13-9.83Z"/><path class="f" d="M441.6,670.17h2.98v39.71h-2.98v-39.71Z"/><path class="f" d="M452.81,670.17h2.98v39.71h-2.98v-39.71Z"/><path class="f" d="M485.82,698.51h-20.5c.45,5.06,4.02,8.88,9.53,8.88,3.47,0,6.3-1.39,8.44-3.42v3.38c-2.13,1.74-5.11,2.88-8.54,2.88-7.79,0-12.46-5.86-12.46-12.76s4.86-12.71,11.96-12.71,11.71,6.45,11.57,13.75Zm-20.45-2.63h17.27c-.65-4.62-3.72-8.24-8.39-8.24s-8.24,3.57-8.89,8.24Z"/><path class="f" d="M514.46,670.17v39.71h-2.98v-5.11c-1.94,3.23-5.26,5.46-9.43,5.46-6.9,0-11.71-5.71-11.71-12.71s4.81-12.76,11.71-12.76c4.17,0,7.5,2.23,9.43,5.51v-20.1h2.98Zm-2.98,27.35c0-5.31-3.82-9.88-9.13-9.88s-8.98,4.52-8.98,9.88,3.67,9.83,8.98,9.83,9.13-4.52,9.13-9.83Z"/><path class="f" d="M537.34,706.55l3.47-5.11c1.69,1.34,4.17,2.68,6.25,2.68,1.39,0,2.28-.69,2.28-1.59,0-3.23-11.17-2.04-11.17-10.47,0-4.12,3.38-7.45,8.84-7.5,3.57,0,6.8,1.69,8.54,3.38l-3.38,5.06c-1.09-.79-3.28-2.13-5.06-2.13-1.24,0-2.08,.6-2.08,1.49,0,3.08,11.37,1.99,11.32,10.47,0,4.27-3.72,7.5-9.33,7.5-3.33,0-7.3-1.54-9.68-3.77Z"/><path class="f" d="M584.84,685.06l-13.55,34.75h-7.25l3.97-9.83-9.73-24.92h7.59l5.66,17.03,5.76-17.03h7.54Z"/><path class="f" d="M626.19,694.99v14.89h-7.1v-13.25c0-3.33-1.69-5.41-4.22-5.41s-4.22,2.08-4.22,5.41v13.25h-7.1v-13.25c0-3.33-1.69-5.41-4.22-5.41s-4.17,2.08-4.17,5.41v13.25h-7.15v-24.82h7.15v3.18c1.59-2.08,4.02-3.67,7.1-3.67s5.71,1.54,7.2,4.47c1.74-2.63,4.52-4.47,8.24-4.47,5.11,0,8.49,3.72,8.49,10.42Z"/><path class="f" d="M657.76,697.47c0,7.1-4.37,12.76-11.17,12.76-3.18,0-5.66-1.39-7.4-3.47v3.13h-7.15v-39.71h7.15v17.97c1.74-2.08,4.22-3.47,7.4-3.47,6.8,0,11.17,5.66,11.17,12.81Zm-7.5,0c0-3.28-2.23-5.86-5.51-5.86s-5.56,2.73-5.56,5.86,2.28,5.86,5.56,5.86,5.51-2.63,5.51-5.86Z"/><path class="f" d="M662.57,676.77c0-2.48,1.99-4.47,4.47-4.47s4.52,1.99,4.52,4.47-1.94,4.52-4.52,4.52-4.47-2.04-4.47-4.52Zm.94,8.29h7.15v24.82h-7.15v-24.82Z"/><path class="f" d="M676.42,697.47c0-7,5.26-12.91,12.81-12.91s12.86,5.91,12.86,12.91-5.26,12.91-12.86,12.91-12.81-5.96-12.81-12.91Zm18.37-.05c0-3.08-2.18-5.71-5.56-5.71s-5.51,2.63-5.51,5.71,2.23,5.81,5.51,5.81,5.56-2.63,5.56-5.81Z"/><path class="f" d="M704.66,706.55l3.47-5.11c1.69,1.34,4.17,2.68,6.25,2.68,1.39,0,2.28-.69,2.28-1.59,0-3.23-11.17-2.04-11.17-10.47,0-4.12,3.38-7.45,8.84-7.5,3.57,0,6.8,1.69,8.54,3.38l-3.38,5.06c-1.09-.79-3.28-2.13-5.06-2.13-1.24,0-2.08,.6-2.08,1.49,0,3.08,11.37,1.99,11.32,10.47,0,4.27-3.72,7.5-9.33,7.5-3.33,0-7.3-1.54-9.68-3.77Z"/><path class="f" d="M750.93,699.75h-17.03c.84,2.68,3.23,4.12,6.3,4.12,2.78,0,5.36-.79,7.84-1.99l.05,6.4c-2.13,1.19-5.06,1.99-8.44,1.99-8.09,0-12.91-5.81-12.91-12.81s4.86-12.81,12.36-12.81c8.09,0,12.51,6.9,11.81,15.09Zm-17.03-4.47h10.08c-.7-2.48-2.53-4.02-4.86-4.02-2.58,0-4.52,1.64-5.21,4.02Z"/><path class="f" d="M753.41,706.55l3.47-5.11c1.69,1.34,4.17,2.68,6.25,2.68,1.39,0,2.28-.69,2.28-1.59,0-3.23-11.17-2.04-11.17-10.47,0-4.12,3.38-7.45,8.84-7.5,3.57,0,6.8,1.69,8.54,3.38l-3.38,5.06c-1.09-.79-3.28-2.13-5.06-2.13-1.24,0-2.08,.6-2.08,1.49,0,3.08,11.37,1.99,11.32,10.47,0,4.27-3.72,7.5-9.33,7.5-3.33,0-7.3-1.54-9.68-3.77Z"/><path class="f" d="M777.43,703.62h3.03l-2.43,11.67h-2.13l1.54-11.67Z"/><path class="f" d="M824.04,695.88v14h-2.93v-13.45c0-5.96-2.93-9.03-7.25-9.03s-7.35,3.08-7.35,9.03v13.45h-2.98v-39.71h2.98v19.01c1.44-2.53,4.27-4.57,7.99-4.57,5.11,0,9.53,3.62,9.53,11.27Z"/><path class="f" d="M853.52,685.06v24.82h-2.98v-5.11c-1.94,3.23-5.26,5.46-9.43,5.46-6.9,0-11.71-5.71-11.71-12.71s4.81-12.76,11.71-12.76c4.17,0,7.5,2.23,9.43,5.51v-5.21h2.98Zm-2.98,12.46c0-5.31-3.82-9.88-9.13-9.88s-8.98,4.52-8.98,9.88,3.67,9.83,8.98,9.83,9.13-4.52,9.13-9.83Z"/><path class="f" d="M882.11,685.06l-11.17,24.92h-1.64l-11.27-24.92h3.23l8.84,20.2,8.84-20.2h3.18Z"/><path class="f" d="M907.72,698.51h-20.5c.45,5.06,4.02,8.88,9.53,8.88,3.47,0,6.3-1.39,8.44-3.42v3.38c-2.13,1.74-5.11,2.88-8.54,2.88-7.79,0-12.46-5.86-12.46-12.76s4.86-12.71,11.96-12.71,11.71,6.45,11.57,13.75Zm-20.45-2.63h17.27c-.65-4.62-3.72-8.24-8.39-8.24s-8.24,3.57-8.89,8.24Z"/><path class="f" d="M952.89,698.51h-20.5c.45,5.06,4.02,8.88,9.53,8.88,3.47,0,6.3-1.39,8.44-3.42v3.38c-2.13,1.74-5.11,2.88-8.54,2.88-7.79,0-12.46-5.86-12.46-12.76s4.86-12.71,11.96-12.71,11.71,6.45,11.57,13.75Zm-20.45-2.63h17.27c-.65-4.62-3.72-8.24-8.39-8.24s-8.24,3.57-8.89,8.24Z"/><path class="f" d="M978.75,685.06l-11.17,24.92h-1.64l-11.27-24.92h3.23l8.84,20.2,8.84-20.2h3.18Z"/><path class="f" d="M980.84,697.42c0-6.85,5.11-12.76,12.56-12.76s12.56,5.91,12.56,12.76-5.11,12.81-12.56,12.81-12.56-5.91-12.56-12.81Zm22.14,0c0-5.26-3.87-9.83-9.58-9.83s-9.53,4.57-9.53,9.83,3.87,9.88,9.53,9.88,9.58-4.62,9.58-9.88Z"/><path class="f" d="M1012.45,670.17h2.98v39.71h-2.98v-39.71Z"/><path class="f" d="M1043.78,685.06l-11.17,24.92h-1.64l-11.27-24.92h3.23l8.84,20.2,8.84-20.2h3.18Z"/><path class="f" d="M1069.39,698.51h-20.5c.45,5.06,4.02,8.88,9.53,8.88,3.47,0,6.3-1.39,8.44-3.42v3.38c-2.13,1.74-5.11,2.88-8.54,2.88-7.79,0-12.46-5.86-12.46-12.76s4.86-12.71,11.96-12.71,11.71,6.45,11.57,13.75Zm-20.45-2.63h17.27c-.65-4.62-3.72-8.24-8.39-8.24s-8.24,3.57-8.89,8.24Z"/><path class="f" d="M1098.03,670.17v39.71h-2.98v-5.11c-1.94,3.23-5.26,5.46-9.43,5.46-6.9,0-11.71-5.71-11.71-12.71s4.81-12.76,11.71-12.76c4.17,0,7.5,2.23,9.43,5.51v-20.1h2.98Zm-2.98,27.35c0-5.31-3.82-9.88-9.13-9.88s-8.98,4.52-8.98,9.88,3.67,9.83,8.98,9.83,9.13-4.52,9.13-9.83Z"/><path class="f" d="M1121.65,697.42c0-6.85,5.11-12.76,12.56-12.76s12.56,5.91,12.56,12.76-5.11,12.81-12.56,12.81-12.56-5.91-12.56-12.81Zm22.14,0c0-5.26-3.87-9.83-9.58-9.83s-9.53,4.57-9.53,9.83,3.87,9.88,9.53,9.88,9.58-4.62,9.58-9.88Z"/><path class="f" d="M1172.88,685.06l-11.17,24.92h-1.64l-11.27-24.92h3.23l8.84,20.2,8.84-20.2h3.18Z"/><path class="f" d="M1198.49,698.51h-20.5c.45,5.06,4.02,8.88,9.53,8.88,3.47,0,6.3-1.39,8.44-3.42v3.38c-2.13,1.74-5.11,2.88-8.54,2.88-7.79,0-12.46-5.86-12.46-12.76s4.86-12.71,11.96-12.71,11.71,6.45,11.57,13.75Zm-20.45-2.63h17.27c-.65-4.62-3.72-8.24-8.39-8.24s-8.24,3.57-8.89,8.24Z"/><path class="f" d="M1214.87,684.66v3.38c-4.02-.3-7.15,3.08-7.15,8.19v13.65h-2.98v-24.82h2.98v4.57c1.29-2.58,3.67-4.96,7.15-4.96Z"/><path class="f" d="M332.72,765.19l-.05,14.69h-2.98v-14.1c0-5.06-2.53-8.34-6.65-8.34s-6.65,3.28-6.65,8.69l-.05,13.75h-2.93v-14.1c0-5.06-2.53-8.34-6.65-8.34s-6.65,3.28-6.65,8.69v13.75h-2.98v-24.82h2.98v3.72c1.34-2.28,3.77-4.17,7.3-4.17s6.65,1.94,8.09,5.61c1.24-2.88,3.92-5.61,8.19-5.61,4.96,0,9.03,3.72,9.03,10.57Z"/><path class="f" d="M340.52,748.01c0-1.19,.89-2.13,2.08-2.13s2.13,.94,2.13,2.13-.94,2.08-2.13,2.08-2.08-.89-2.08-2.08Zm.65,7.05h2.98v24.82h-2.98v-24.82Z"/><path class="f" d="M352.97,740.17h2.98v39.71h-2.98v-39.71Z"/><path class="f" d="M364.19,740.17h2.98v39.71h-2.98v-39.71Z"/><path class="f" d="M375.41,748.01c0-1.19,.89-2.13,2.08-2.13s2.13,.94,2.13,2.13-.94,2.08-2.13,2.08-2.08-.89-2.08-2.08Zm.65,7.05h2.98v24.82h-2.98v-24.82Z"/><path class="f" d="M386.13,767.42c0-6.85,5.11-12.76,12.56-12.76s12.56,5.91,12.56,12.76-5.11,12.81-12.56,12.81-12.56-5.91-12.56-12.81Zm22.14,0c0-5.26-3.87-9.83-9.58-9.83s-9.53,4.57-9.53,9.83,3.87,9.88,9.53,9.88,9.58-4.62,9.58-9.88Z"/><path class="f" d="M438.2,765.88v14h-2.93v-13.45c0-5.96-2.93-9.03-7.25-9.03-3.82,0-6.9,2.63-7.3,7.79v14.69h-2.98v-24.82h2.98v4.07c1.44-2.53,4.27-4.52,7.94-4.52,5.11,0,9.53,3.62,9.53,11.27Z"/><path class="f" d="M444.45,776.35l2.04-2.18c1.49,1.84,3.67,3.23,6.06,3.23,2.68,0,4.81-1.54,4.81-3.97,0-6.2-12.36-4.17-12.31-12.41,.05-3.57,3.08-6.3,7.25-6.35,3.28,0,6.01,1.84,7.5,3.52l-1.84,2.13c-1.24-1.34-3.18-2.78-5.61-2.78s-4.27,1.49-4.32,3.47c-.1,5.76,12.36,3.77,12.31,12.46-.05,3.82-3.18,6.8-7.89,6.8-3.08,0-6.3-1.74-7.99-3.92Z"/><path class="f" d="M506.15,755.06v24.82h-2.98v-5.11c-1.94,3.23-5.26,5.46-9.43,5.46-6.9,0-11.71-5.71-11.71-12.71s4.81-12.76,11.71-12.76c4.17,0,7.5,2.23,9.43,5.51v-5.21h2.98Zm-2.98,12.46c0-5.31-3.82-9.88-9.13-9.88s-8.98,4.52-8.98,9.88,3.67,9.83,8.98,9.83,9.13-4.52,9.13-9.83Z"/><path class="f" d="M534.84,765.88v14h-2.93v-13.45c0-5.96-2.93-9.03-7.25-9.03-3.82,0-6.9,2.63-7.3,7.79v14.69h-2.98v-24.82h2.98v4.07c1.44-2.53,4.27-4.52,7.94-4.52,5.11,0,9.53,3.62,9.53,11.27Z"/><path class="f" d="M564.32,740.17v39.71h-2.98v-5.11c-1.94,3.23-5.26,5.46-9.43,5.46-6.9,0-11.71-5.71-11.71-12.71s4.81-12.76,11.71-12.76c4.17,0,7.5,2.23,9.43,5.51v-20.1h2.98Zm-2.98,27.35c0-5.31-3.82-9.88-9.13-9.88s-8.98,4.52-8.98,9.88,3.67,9.83,8.98,9.83,9.13-4.52,9.13-9.83Z"/><path class="f" d="M625.27,765.19l-.05,14.69h-2.98v-14.1c0-5.06-2.53-8.34-6.65-8.34s-6.65,3.28-6.65,8.69l-.05,13.75h-2.93v-14.1c0-5.06-2.53-8.34-6.65-8.34s-6.65,3.28-6.65,8.69v13.75h-2.98v-24.82h2.98v3.72c1.34-2.28,3.77-4.17,7.3-4.17s6.65,1.94,8.09,5.61c1.24-2.88,3.92-5.61,8.19-5.61,4.96,0,9.03,3.72,9.03,10.57Z"/><path class="f" d="M633.07,748.01c0-1.19,.89-2.13,2.08-2.13s2.13,.94,2.13,2.13-.94,2.08-2.13,2.08-2.08-.89-2.08-2.08Zm.65,7.05h2.98v24.82h-2.98v-24.82Z"/><path class="f" d="M645.52,740.17h2.98v39.71h-2.98v-39.71Z"/><path class="f" d="M656.74,740.17h2.98v39.71h-2.98v-39.71Z"/><path class="f" d="M667.96,748.01c0-1.19,.89-2.13,2.08-2.13s2.13,.94,2.13,2.13-.94,2.08-2.13,2.08-2.08-.89-2.08-2.08Zm.65,7.05h2.98v24.82h-2.98v-24.82Z"/><path class="f" d="M678.68,767.42c0-6.85,5.11-12.76,12.56-12.76s12.56,5.91,12.56,12.76-5.11,12.81-12.56,12.81-12.56-5.91-12.56-12.81Zm22.14,0c0-5.26-3.87-9.83-9.58-9.83s-9.53,4.57-9.53,9.83,3.87,9.88,9.53,9.88,9.58-4.62,9.58-9.88Z"/><path class="f" d="M730.75,765.88v14h-2.93v-13.45c0-5.96-2.93-9.03-7.25-9.03-3.82,0-6.9,2.63-7.3,7.79v14.69h-2.98v-24.82h2.98v4.07c1.44-2.53,4.27-4.52,7.94-4.52,5.11,0,9.53,3.62,9.53,11.27Z"/><path class="f" d="M737,776.35l2.04-2.18c1.49,1.84,3.67,3.23,6.06,3.23,2.68,0,4.81-1.54,4.81-3.97,0-6.2-12.36-4.17-12.31-12.41,.05-3.57,3.08-6.3,7.25-6.35,3.28,0,6.01,1.84,7.5,3.52l-1.84,2.13c-1.24-1.34-3.18-2.78-5.61-2.78s-4.27,1.49-4.32,3.47c-.1,5.76,12.36,3.77,12.31,12.46-.05,3.82-3.18,6.8-7.89,6.8-3.08,0-6.3-1.74-7.99-3.92Z"/><path class="f" d="M774.58,767.42c0-6.85,5.11-12.76,12.56-12.76s12.56,5.91,12.56,12.76-5.11,12.81-12.56,12.81-12.56-5.91-12.56-12.81Zm22.14,0c0-5.26-3.87-9.83-9.58-9.83s-9.53,4.57-9.53,9.83,3.87,9.88,9.53,9.88,9.58-4.62,9.58-9.88Z"/><path class="f" d="M809.17,745.38v9.68h5.16v2.88h-5.16v21.94h-2.93v-21.94h-3.18v-2.88h3.18v-10.23c0-3.18,2.04-4.96,4.67-4.96,1.44,0,2.58,.45,3.42,.99v3.08c-.79-.5-1.64-1.04-2.88-1.04s-2.28,.89-2.28,2.48Z"/><path class="f" d="M856.03,755.06l-14.79,34.75h-2.98l4.47-10.52-10.42-24.22h3.23l8.69,20.95,8.59-20.95h3.23Z"/><path class="f" d="M881.59,768.51h-20.5c.45,5.06,4.02,8.88,9.53,8.88,3.47,0,6.3-1.39,8.44-3.42v3.38c-2.13,1.74-5.11,2.88-8.54,2.88-7.79,0-12.46-5.86-12.46-12.76s4.86-12.71,11.96-12.71,11.71,6.45,11.57,13.75Zm-20.45-2.63h17.27c-.65-4.62-3.72-8.24-8.39-8.24s-8.24,3.57-8.89,8.24Z"/><path class="f" d="M910.23,755.06v24.82h-2.98v-5.11c-1.94,3.23-5.26,5.46-9.43,5.46-6.9,0-11.71-5.71-11.71-12.71s4.81-12.76,11.71-12.76c4.17,0,7.5,2.23,9.43,5.51v-5.21h2.98Zm-2.98,12.46c0-5.31-3.82-9.88-9.13-9.88s-8.98,4.52-8.98,9.88,3.67,9.83,8.98,9.83,9.13-4.52,9.13-9.83Z"/><path class="f" d="M928.59,754.66v3.38c-4.02-.3-7.15,3.08-7.15,8.19v13.65h-2.98v-24.82h2.98v4.57c1.29-2.58,3.67-4.96,7.15-4.96Z"/><path class="f" d="M931.13,776.35l2.04-2.18c1.49,1.84,3.67,3.23,6.06,3.23,2.68,0,4.81-1.54,4.81-3.97,0-6.2-12.36-4.17-12.31-12.41,.05-3.57,3.08-6.3,7.25-6.35,3.28,0,6.01,1.84,7.5,3.52l-1.84,2.13c-1.24-1.34-3.18-2.78-5.61-2.78s-4.27,1.49-4.32,3.47c-.1,5.76,12.36,3.77,12.31,12.46-.05,3.82-3.18,6.8-7.89,6.8-3.08,0-6.3-1.74-7.99-3.92Z"/><path class="f" d="M951.03,778.04c0-1.14,.89-2.08,2.08-2.08s2.08,.94,2.08,2.08-.94,2.08-2.08,2.08-2.08-.89-2.08-2.08Z"/></g><g><polygon class="f" points="659.4 283.46 698.16 248.67 660.46 284.61 659.4 283.46"/><g><path class="f" d="M270.06,83.87c0,5.6-3.85,10.2-9.37,10.2-3.33,0-6-1.79-7.54-4.41v4.13h-2.38v-31.76h2.38v16.04c1.55-2.58,4.21-4.37,7.54-4.37,5.52,0,9.37,4.57,9.37,10.16Zm-2.42,0c0-4.33-2.94-7.86-7.19-7.86s-7.31,3.61-7.31,7.86,3.06,7.9,7.31,7.9,7.19-3.61,7.19-7.9Z"/><path class="f" d="M292.69,84.71h-16.4c.36,4.05,3.22,7.11,7.62,7.11,2.78,0,5.04-1.11,6.75-2.74v2.7c-1.71,1.39-4.09,2.3-6.83,2.3-6.23,0-9.97-4.69-9.97-10.2s3.89-10.16,9.57-10.16,9.37,5.16,9.25,11Zm-16.36-2.1h13.82c-.52-3.69-2.98-6.59-6.71-6.59s-6.59,2.86-7.11,6.59Z"/><path class="f" d="M304.21,76.25h-4.09v17.55h-2.38v-17.55h-2.54v-2.3h2.54v-5.32h2.38v5.32h4.09v2.3Z"/><path class="f" d="M315.21,76.25h-4.09v17.55h-2.38v-17.55h-2.54v-2.3h2.54v-5.32h2.38v5.32h4.09v2.3Z"/><path class="f" d="M335.82,84.71h-16.4c.36,4.05,3.22,7.11,7.62,7.11,2.78,0,5.04-1.11,6.75-2.74v2.7c-1.71,1.39-4.09,2.3-6.83,2.3-6.23,0-9.97-4.69-9.97-10.2s3.89-10.16,9.57-10.16,9.37,5.16,9.25,11Zm-16.36-2.1h13.82c-.52-3.69-2.98-6.59-6.71-6.59s-6.59,2.86-7.11,6.59Z"/><path class="f" d="M348.92,73.63v2.7c-3.22-.24-5.72,2.46-5.72,6.55v10.92h-2.38v-19.85h2.38v3.65c1.03-2.06,2.94-3.97,5.72-3.97Z"/><path class="f" d="M373.62,76.25h-4.09v17.55h-2.38v-17.55h-2.54v-2.3h2.54v-5.32h2.38v5.32h4.09v2.3Z"/><path class="f" d="M375.41,83.83c0-5.48,4.09-10.2,10.04-10.2s10.04,4.72,10.04,10.2-4.09,10.24-10.04,10.24-10.04-4.72-10.04-10.24Zm17.71,0c0-4.21-3.1-7.86-7.66-7.86s-7.62,3.65-7.62,7.86,3.1,7.9,7.62,7.9,7.66-3.69,7.66-7.9Z"/><path class="f" d="M418.61,92.93c0,6.19-4.72,9.09-9.37,9.09-3.02,0-5.44-.99-7.42-2.22l.04-2.58c2.1,1.51,4.57,2.58,7.11,2.58,4.17,0,7.35-2.54,7.35-7.42v-2.78c-1.55,2.66-4.25,4.49-7.62,4.49-5.52,0-9.37-4.57-9.37-10.16s3.85-10.2,9.37-10.2c3.33,0,6,1.79,7.54,4.45v-4.21h2.34l.04,18.98Zm-2.38-9.01c0-4.25-3.06-7.9-7.31-7.9s-7.19,3.61-7.19,7.9,2.94,7.86,7.19,7.86,7.31-3.61,7.31-7.86Z"/><path class="f" d="M442.63,84.71h-16.4c.36,4.05,3.22,7.11,7.62,7.11,2.78,0,5.04-1.11,6.75-2.74v2.7c-1.71,1.39-4.09,2.3-6.83,2.3-6.23,0-9.97-4.69-9.97-10.2s3.89-10.16,9.57-10.16,9.37,5.16,9.25,11Zm-16.36-2.1h13.82c-.52-3.69-2.98-6.59-6.71-6.59s-6.59,2.86-7.11,6.59Z"/><path class="f" d="M454.15,76.25h-4.09v17.55h-2.38v-17.55h-2.54v-2.3h2.54v-5.32h2.38v5.32h4.09v2.3Z"/><path class="f" d="M474.52,82.6v11.2h-2.34v-10.76c0-4.76-2.34-7.23-5.8-7.23s-5.88,2.46-5.88,7.23v10.76h-2.38v-31.76h2.38v15.21c1.15-2.02,3.41-3.65,6.39-3.65,4.09,0,7.62,2.9,7.62,9.01Z"/><path class="f" d="M497.63,84.71h-16.4c.36,4.05,3.22,7.11,7.62,7.11,2.78,0,5.04-1.11,6.75-2.74v2.7c-1.71,1.39-4.09,2.3-6.83,2.3-6.23,0-9.97-4.69-9.97-10.2s3.89-10.16,9.57-10.16,9.37,5.16,9.25,11Zm-16.36-2.1h13.82c-.52-3.69-2.98-6.59-6.71-6.59s-6.59,2.86-7.11,6.59Z"/><path class="f" d="M510.73,73.63v2.7c-3.22-.24-5.72,2.46-5.72,6.55v10.92h-2.38v-19.85h2.38v3.65c1.03-2.06,2.94-3.97,5.72-3.97Z"/><path class="f" d="M514.03,66.01h2.66l-.44,22.59h-1.79l-.44-22.59Zm0,26.32c0-.91,.71-1.67,1.67-1.67s1.67,.75,1.67,1.67-.75,1.67-1.67,1.67-1.67-.71-1.67-1.67Z"/></g><g><g><path class="e" d="M679.83,214.01c16.33-13.33,26.05-5.4,29.76-.85l.62,.8c.76,1.02,1.13,1.73,1.13,1.73,0,0,38.03,6.3,4.24,36.86-22.29,20.16-47.59,14.39-47.59,14.39,0,0-2.37-41.33,11.84-52.93Z"/><path class="e" d="M704.17,200.11c-4.92,32.86-46.98,13.28-46.98,13.28-30.2-17.68-36.16-70.9-36.16-70.9,30.79-14.57,70.21,1.05,70.21,1.05,1.83,.99,3.52,1.98,5.11,2.99,9.92-28.35,28.55-50.43,28.55-50.43,0,0,44.49,42.32,34.46,70.73-10.02,28.4-37.25,28.7-37.25,28.7,0,0-1.76,.54,0,0-1.14,.48-4.5,3.53-1.3,9.45l-3.15-1.8c.53-1.89-1.14-5.11,1.41-8.75-2.15-.86-5.23-2.25-8.52-4.25-1.95,3.45-4.03,6.04-5.22,7.39"/></g><path class="e" d="M723.44,210.11s-9.57,1.14-13.02,10.17c0,0,.98-9.51,13.02-12.92,3.88-1.1,0,2.75,0,2.75Z"/><path class="e" d="M770.4,383.86c1.12-40.22,2.84-117.51,2.84-117.51-33.15-57.53-75.98-70.21-75.98-70.21l.24-1.46c41.28,9.1,77.69,63.84,77.69,63.84,1.46-28.82,4.51-41.25,4.51-41.25,.59-.65,1.15-1.32,1.71-1.97-3.26-3.73-6.2-11.46-3.16-13.71,6.56-4.86,7.31,3.16,7.18,8.74,11.2-14.76,17.12-30.46,20.24-42.95-.36-2.86-2.08-7.04-7.33-12.53-14.93,17.85-17.13-11.35-17.13-11.35l-1.51-18.96s13.97,1.43,21.11,7.86c.28-1.88,.8-3.96,1.64-6.28,7.06-19.61,29.82-29.03,29.82-29.03,0,0,4.33,23.53,1.44,40.06,.63-.04,1-.05,1-.05,0,0,11.59,1.99,22.67,19.19,0,0-32.96,30.73-45.51,6.16-.89-1.74-1.53-3.35-1.97-4.86-.16,3.77-.61,7.45-1.24,11.01-.05,.35-.11,.7-.19,1.06h0c-4.96,25.89-20.49,45.11-20.49,45.11-5.09,12.39-7.29,57.98-8.08,108.61,26.52-39.24,41.12-60.28,60.97-69.27,.05-1.64,.49-4.34,.89-6.49-9.04,.49-32.85-.25-32.58-21.87,.34-26.67,16.9-43.93,16.9-43.93,0,0,40.9,18.73,38.07,41.53,1.94-11.9,9.26-25.39,32.47-25.55,41.58-.29,48.65,17.47,48.65,17.47,0,0-7.06,32.71-35.31,51.81-4.73,3.2-9.15,4.59-13.24,4.71,7.5,17.68,.68,38.55,.68,38.55,0,0-25.89,20.56-48.65-9.25-21.33-27.95,2.85-36.98,5.96-38-3.13-2.19-10.48-5.66-17.43-3.23-24.43,11.23-48.24,55.56-57.44,68.17-.02,1.14-.04,2.28-.05,3.43,3.87-1.25,10.29-2.35,15.39,1.57,40.38-2.81,41.56,31.85,41.56,31.85,37.02,13.33,31.63,54.7,31.63,54.7-40.01-10.2-42.29-43.15-42.29-43.15-2.69-1.5-5.17-3.08-7.46-4.71h0s-5.96,14.91,2.67,40.86c8.63,25.95-7.85,37.33-7.85,37.33-37.66-30.09-9.41-37.39-21.13-61.18-11.71-23.78,4.05-43.38,4.06-43.39-1.49-3.18-1.71-7.65-2.33-9.73-4.96-5.12-10.11-3.05-14.31,.6-.83,74.32,1.03,154.29,1.03,154.29l-10.45,.4c-1.49-63.47-2.18-44.84-1.21-83.9m40.67-257.88c.06-.17,.12-.34,.18-.5-.06-.02-.14-.04-.22-.06,.02,.19,.03,.38,.04,.57Zm-.86-.84c-1.23-.46-3.09-1.37-4.75-3.04-.68,2.05-1.84,4.3-3.61,6.76-.55,.76-1.08,1.46-1.59,2.11,2.58,1.72,5.95,4.39,7.99,7.68,1.14-5.63,1.7-10.3,1.97-13.51Zm46.63,113.79c1.51-2.54,6.29-9.38,14.2-10.27-1.49-2.49-2.67-4.79-3.55-6.61-6.78,.93-14,3.93-22.44,10.59,1.7-1.21,6.42,.96,11.78,6.29Zm10.3-17.63c-.92-1.99-1.41-3.24-1.41-3.24,0,0-1.65-7.56-.51-16.36-3.33,21.39-18.75,22.52-18.75,22.52,0,0-.49,.07-1.33,.15,.2,1.3,.08,3.01-.81,5.18,11.62-7.65,19.11-8.52,22.82-8.24Z"/></g><polygon class="f" points="613.39 273.33 577.64 235.61 614.51 272.24 613.39 273.33"/><polygon class="f" points="635.65 262.73 639.37 235.4 637.21 262.9 635.65 262.73"/><path class="g" d="M542.02,116.18c12.58-10.92,19.69-23.33,19.69-36.48C561.71,35.87,482.82,.33,385.51,.33S209.32,35.87,209.32,79.7c0,35.39,51.42,65.36,122.43,75.6,15.13,59.51,109.46,125.69,109.46,125.69-88.13-64.52-88.95-123.34-88.95-123.34h0c10.77,.93,21.88,1.42,33.25,1.42,55.49,0,104.99-11.56,137.28-29.62,18.66,21.48,77.3,28.2,77.3,28.2-54.01-13.14-58.08-41.43-58.08-41.46Z"/><path class="e" d="M677.63,347.08c33.83,4.94,92.54,46.33,92.54,46.33l1.46-25.55c-5.11,10.79-66.38-22.89-66.38-22.89-3.58-1.15-10.71-5.79-12.5-8.22-3-4.06-4.52-9.2-3.41-13.54,2.17-8.46,13.17-15.4,12.09-20.26-.8-1.83-3.21-1.95-5.11-1.8-2.46,.37-4.15,1.74-6,3.09-1.95,1.42-3.19,2.88-4.23,4.54-2.48,3.99-3.49,11.03-6.41,13.74-3.75-.43-2.15-11.5-1.81-13.6,.71-4.29,3.65-9.12,3.41-13.59-.19-3.57-.78-9.29-5.34-6.8-2.64,1.43-4.77,4.55-5.82,7.07-1.73,4.13-2.24,8.56-2.47,13.05-.11,2.27-.13,4.67,0,6.94,.12,1.97,.06,3.4-.17,5.24-8.1-5.61-6.95-18.89-11.99-26.54-2.12-3.23-4.77-2.97-6.9,.35-2.39,3.71-1.88,6.74-1.39,11.23,1.06,9.61,5.64,13.28,12.54,21.1,5.27,5.97,5.39,8.06,.93,10.82-2.76,1.71-5.58,1.39-9.88,2.73-3.36,1.05-7.56,4.35-7.43,8.51,.13,4.04,3.28,8.15,7.86,4.86,3.1-2.23,3.69-3.51,6.66-5.97,3.81-3.15,9.63-6.49,13.13-2.94,0,0,3.21,1.62,6.6,2.11Z"/><path class="d" d="M538.18,354.34c-9.74-22.54-17.51-35.45-17.52-35.47-6.28-11.89-18.76-20-33.14-20-20.69,0-37.47,16.77-37.47,37.47,0,7.73,2.34,14.91,6.35,20.88,43.3,79.99,41.82,129.05,41.82,129.05,0,20.69,16.77,37.46,37.47,37.46s37.46-16.77,37.46-37.46c0-1.43-.09-2.84-.24-4.22l.24-.02c-5.51-44.38-17.19-82.67-28.13-110.98"/><g><path class="d" d="M610.7,347.24c3.75,.11,6.53-.28,9.69-2.03,2.75-1.53,2.24-2.3,5.67-3.88,3.63-1.67,7.61-1.81,10.86,.44,3.29,2.29,3.79,4.72,7.07,6.39,7.19,3.68,8.33-9.56,1.29-13.05-2.48-1.23-5.57-1.24-7.74-2.79-2.43-1.73-3.01-3.89-2.55-6.07,1.04-4.9,4.13-9.46,5.88-14.19,2.07-5.59,2.08-10.45,1.79-15.96-.22-4.08-3.22-13.69-8.78-6.62-2.85,3.63-2.21,10.69-2.21,15.25,0,1.66-.16,3.87-.51,6.15-.43,1.57-.73,2.26-1.37,3.04-1.24,1.51-1.91,.98-2.28-.15-.24-6.55,.12-13.49-3.82-20.32-1.61-2.8-5.57-7.85-9.03-5.08-1.58,1.27-2.76,7.22,.12,12.05,1.82,3.98,3.08,6.03,3.86,10.47,.95,3.29-1.35,5.84-2.34,2.67-1.31-7-3.65-12.7-11.21-16.5-4.38-2.21-8.78,.28-6.89,4.41,1.66,3.65,6.35,6.79,8.55,10.2,5.95,9.25-2.31,20.85-10.32,26.81-.82,.55-1.7,1.15-2.62,1.78l-.03,.02h0c-16.53,11.32-48.05,34.06-49.32,43.91-2.8,21.64-1.83,27-.63,27.87,.38-5.07,28.09-44.78,60.08-62.55,0,0,5.01-2.32,6.8-2.26Z"/><path class="d" d="M545.48,411.27c-.22,.26-.4,.46-.58,.64,.34-.27,.58-.64,.58-.64Z"/><path class="d" d="M544.9,411.9c-.31,.25-.71,.42-1.09,.15-.05,.65,.31,.64,1.09-.15Z"/></g></g></g></g></g></svg>