<svg xmlns="http://www.w3.org/2000/svg" xmlns:xlink="http://www.w3.org/1999/xlink" viewBox="0 0 763 495.99"><defs><style>.cls-1,.cls-13,.cls-21{fill:none;}.cls-15,.cls-2{font-size:30px;}.cls-2,.cls-20,.cls-22,.cls-3{fill:#eb6a7c;}.cls-15,.cls-2,.cls-22,.cls-3,.cls-4{font-family:Acre-Light, Acre;font-weight:300;}.cls-3{font-size:30.72px;}.cls-4{font-size:40px;}.cls-16,.cls-4{fill:#2e61a0;}.cls-5{letter-spacing:-0.02em;}.cls-6{letter-spacing:-0.01em;}.cls-7{letter-spacing:-0.01em;}.cls-8{letter-spacing:0em;}.cls-9{letter-spacing:0em;}.cls-10{letter-spacing:-0.02em;}.cls-11{letter-spacing:-0.02em;}.cls-12{letter-spacing:0.01em;}.cls-13{stroke:#ffcd01;stroke-width:6.12px;}.cls-13,.cls-21{stroke-miterlimit:10;}.cls-14{fill:#ffcd01;}.cls-15{fill:#5c5052;}.cls-17{clip-path:url(#clip-path);}.cls-18{fill:#3ba9a0;}.cls-19{fill:#f17243;}.cls-21{stroke:#f17243;stroke-width:4.59px;}.cls-22{font-size:29.87px;}</style><clipPath id="clip-path"><path class="cls-1" d="M523.77,317.16a28.5,28.5,0,1,1-28.5-28.5A28.5,28.5,0,0,1,523.77,317.16Z"/></clipPath></defs><g id="Layer_2" data-name="Layer 2"><g id="Layer_8" data-name="Layer 8"><text class="cls-2" transform="translate(526.74 87.53) rotate(45.37)">(</text><text class="cls-2" transform="matrix(0.66, 0.75, -0.75, 0.66, 531.74, 92.36)">p</text><text class="cls-2" transform="translate(543.69 105.94) rotate(53.18)">h</text><text class="cls-2" transform="matrix(0.54, 0.84, -0.84, 0.54, 553.56, 119.17)">y</text><text class="cls-2" transform="translate(561.33 131.26) rotate(60.62)">s</text><text class="cls-2" transform="matrix(0.45, 0.89, -0.89, 0.45, 567.18, 141.75)">i</text><text class="cls-2" transform="matrix(0.4, 0.91, -0.91, 0.4, 570.57, 148.19)">c</text><text class="cls-2" transform="matrix(0.33, 0.94, -0.94, 0.33, 576.87, 162.3)">a</text><text class="cls-2" transform="matrix(0.28, 0.96, -0.96, 0.28, 582.78, 179.55)">l</text><text class="cls-2" transform="matrix(0.25, 0.97, -0.97, 0.25, 584.63, 185.91)">)</text><text class="cls-3" transform="translate(295.22 477.32) rotate(17.36)">(</text><text class="cls-3" transform="matrix(0.97, 0.24, -0.24, 0.97, 303, 479.91)">b</text><text class="cls-3" transform="translate(322.22 484.48) rotate(10.51)">i</text><text class="cls-3" transform="translate(330.53 486.16) rotate(7.14)">o</text><text class="cls-3" transform="translate(349.67 488.37) rotate(3.89)">l</text><text class="cls-3" transform="translate(357.28 489.03) rotate(0.68)">o</text><text class="cls-3" transform="translate(376.84 489.23) rotate(-4.04)">g</text><text class="cls-3" transform="translate(396.51 487.65) rotate(-7.44)">i</text><text class="cls-3" transform="translate(404.88 486.65) rotate(-10.51)">c</text><text class="cls-3" transform="translate(421.89 483.51) rotate(-15.06)">a</text><text class="cls-3" transform="translate(440.87 478.2) rotate(-18.41)">l</text><text class="cls-3" transform="matrix(0.94, -0.35, 0.35, 0.94, 447.87, 475.86)">)</text><text class="cls-4" transform="translate(286.82 34)">pollu<tspan class="cls-5" x="89.6" y="0">t</tspan><tspan x="99.88" y="0">an</tspan><tspan class="cls-6" x="147.36" y="0">t</tspan><tspan x="158.04" y="0">s</tspan></text><text class="cls-4" transform="translate(537.3 358.08)">e<tspan class="cls-7" x="22.6" y="0">n</tspan><tspan class="cls-8" x="45" y="0">v</tspan><tspan class="cls-9" x="64.88" y="0">i</tspan><tspan class="cls-10" x="74.92" y="0">r</tspan><tspan x="86.28" y="0">on</tspan><tspan class="cls-11" x="133.16" y="0">m</tspan><tspan x="167.52" y="0">ent</tspan></text><text class="cls-4" transform="translate(25.16 358.08)">o<tspan class="cls-5" x="24.08" y="0">r</tspan><tspan x="35.44" y="0">ganis</tspan><tspan class="cls-12" x="133.96" y="0">m</tspan><tspan x="169.2" y="0">s</tspan></text><path class="cls-13" d="M440.46,114.47a151.2,151.2,0,0,1,80.26,138.62"/><polygon class="cls-14" points="442.68 125.73 443.13 115.9 450.52 109.4 427.24 108.27 442.68 125.73"/><polygon class="cls-14" points="512.05 245.57 520.81 250.07 530.13 246.9 519.51 267.65 512.05 245.57"/><path class="cls-13" d="M218.7,253.51A151.2,151.2,0,0,1,298.61,114.7"/><polygon class="cls-14" points="227.34 245.97 218.6 250.49 209.27 247.34 219.94 268.07 227.34 245.97"/><polygon class="cls-14" points="296.43 125.97 295.95 116.13 288.54 109.65 311.82 108.46 296.43 125.97"/><path class="cls-13" d="M450,376.05a151.21,151.21,0,0,1-160.17.2"/><polygon class="cls-14" points="439.13 372.33 447.42 377.64 449.36 387.29 461.98 367.69 439.13 372.33"/><polygon class="cls-14" points="300.67 372.5 292.39 377.83 290.48 387.49 277.81 367.92 300.67 372.5"/><text class="cls-15" transform="translate(194.54 263.33) rotate(-92.35)">b</text><text class="cls-15" transform="translate(193.98 245.18) rotate(-88.33)">i</text><text class="cls-15" transform="translate(193.99 237.99) rotate(-84.34)">o</text><text class="cls-15" transform="matrix(0.2, -0.98, 0.98, 0.2, 195.69, 220.49)">d</text><text class="cls-15" transform="translate(199.27 202.83) rotate(-72.96)">e</text><text class="cls-15" transform="matrix(0.39, -0.92, 0.92, 0.39, 204.04, 187.06)">g</text><text class="cls-15" transform="translate(211.18 170.38) rotate(-62.98)">r</text><text class="cls-15" transform="matrix(0.52, -0.86, 0.86, 0.52, 214.71, 163.02)">a</text><text class="cls-15" transform="translate(224.03 147.57) rotate(-53)">d</text><text class="cls-15" transform="translate(234.84 133.18) rotate(-47.22)">a</text><text class="cls-15" transform="translate(247.08 119.92) rotate(-41.42)">b</text><text class="cls-15" transform="translate(260.81 108.05) rotate(-37.34)">i</text><text class="cls-15" transform="translate(266.64 103.6) rotate(-35.1)">l</text><text class="cls-15" transform="translate(272 99.82) rotate(-32.86)">i</text><text class="cls-15" transform="matrix(0.86, -0.51, 0.51, 0.86, 278.15, 95.84)">t</text><text class="cls-15" transform="translate(285 91.69) rotate(-26.72)">y</text><text class="cls-15" transform="translate(476.72 105.5) rotate(40.27)">a</text><text class="cls-15" transform="translate(490.47 117.23) rotate(45.53)">v</text><text class="cls-15" transform="matrix(0.63, 0.77, -0.77, 0.63, 500.48, 127.26)">a</text><text class="cls-15" transform="translate(511.86 141.42) rotate(54.72)">i</text><text class="cls-15" transform="matrix(0.55, 0.84, -0.84, 0.55, 516.1, 147.41)">l</text><text class="cls-15" transform="matrix(0.49, 0.87, -0.87, 0.49, 519.79, 152.7)">a</text><text class="cls-15" transform="matrix(0.39, 0.92, -0.92, 0.39, 528.56, 168.43)">b</text><text class="cls-15" transform="translate(535.54 185.17) rotate(70.91)">i</text><text class="cls-15" transform="matrix(0.29, 0.96, -0.96, 0.29, 537.94, 192.12)">l</text><text class="cls-15" transform="matrix(0.25, 0.97, -0.97, 0.25, 539.85, 198.4)">i</text><text class="cls-15" transform="translate(541.71 205.48) rotate(77.95)">t</text><text class="cls-15" transform="matrix(0.15, 0.99, -0.99, 0.15, 543.48, 213.28)">y</text><text class="cls-15" transform="translate(241.98 393.94) rotate(40.06)">p</text><text class="cls-15" transform="translate(257.18 406.59) rotate(34.23)">h</text><text class="cls-15" transform="translate(272.09 416.63) rotate(29.08)">y</text><text class="cls-15" transform="translate(285.79 424.16) rotate(24.68)">s</text><text class="cls-15" transform="matrix(0.93, 0.36, -0.36, 0.93, 297.62, 429.49)">i</text><text class="cls-15" transform="translate(305.45 432.74) rotate(17.17)">o</text><text class="cls-15" transform="translate(323.63 438.11) rotate(13.06)">l</text><text class="cls-15" transform="matrix(0.99, 0.16, -0.16, 0.99, 331.1, 440.01)">o</text><text class="cls-15" transform="translate(350.27 442.97) rotate(2.97)">g</text><text class="cls-15" transform="translate(369.62 443.74) rotate(-1.21)">i</text><text class="cls-15" transform="translate(377.95 443.68) rotate(-4.99)">c</text><text class="cls-15" transform="translate(394.99 442.2) rotate(-10.63)">a</text><text class="cls-15" transform="translate(414.03 438.37) rotate(-14.8)">l</text><text class="cls-15" transform="translate(421.2 436.51) rotate(-17.64)"> </text><text class="cls-15" transform="translate(431.96 433.13) rotate(-21.79)">fi</text><text class="cls-15" transform="translate(446.35 427.23) rotate(-25.6)">t</text><text class="cls-15" transform="matrix(0.87, -0.5, 0.5, 0.87, 454.74, 423.36)">n</text><text class="cls-15" transform="matrix(0.82, -0.58, 0.58, 0.82, 470.21, 414.46)">e</text><text class="cls-15" transform="matrix(0.77, -0.64, 0.64, 0.77, 484.72, 404.05)">s</text><text class="cls-15" transform="matrix(0.72, -0.69, 0.69, 0.72, 494.76, 395.6)">s</text><path class="cls-16" d="M523.77,317.16a28.5,28.5,0,1,1-28.5-28.5A28.5,28.5,0,0,1,523.77,317.16Z"/><g class="cls-17"><path class="cls-18" d="M489.79,317.67a5.58,5.58,0,0,0,1.53,5.05c1.52,1.08,4.45.61,4.62,2.72,0,2.17-4.24,3.15-3.42,5.42.3,1.08,3.21,1.28,3.55,2.52s-.76,1.7-1,2.94a4,4,0,0,0,3.69,5.3c2.16.41,4.46-.88,6.63-1.14.38-.11,1.64,0,1.83,0-.19,0,2.47-.67,2.05-.73,1.08.21,2-1,2.09.93.23,1.6-2.63,3.05-3,4.65-.26.56.46,1.7.36,2.06-.4.77-1.54,1.08-1.8,1.65-1.2,2.32-.92,4.08-.86,6.55,0,.67-.16,2.37.15,2.78,1.16,2,1.25.83,3.21-.21,6.37-3.57,7.06-7.75,8.64-13.16,2.25-7.43,2.61-11.35-1.38-17.74-2.7-3.91-4.27-9.63-9.38-11.89-2.55-1.13-16.73-2.23-17.47,1.79"/><path class="cls-18" d="M483.55,289.65c.39,1,2.36,2,2.36,3-.2.79-2.16,1.38-2.56,2.17-.78,1.77-.39,3,.79,4.33,2,2.56,5.51,2.16,6.7,5.51.58,2-.2,3.74-.79,5.51-.79,2,.79,1.77-1.38,2.76-2.17.78-4.92-1.58-6.89-.79-2.17.79-1.38,1.77-1,3.74.78,3.54,1.57,2.36-1,5.31-1.18,1.38-2,3.55-3.54,4.14-2,.78-2.17-.79-3.74-.79-3.55.2-5.32,4.92-9.06,2-6.1-4.92-3-21.06.2-26.77,2.95-5.12,10.63-8.07,15.94-9.85,1.38-.39,4.73-2,4.33.6"/></g><path class="cls-18" d="M505.53,311.87c3.55,2.51,11.07.14,13.59-3.4,3-4.13-6.35-6.35-8.57-8.41s-4.13-3-5,1.18c-.29,1.18.45,3.39-.15,4.43-.73,1.32-2.06.73-3.24,1.62-3,2.22.88,4.43,3.24,4.72"/><path class="cls-19" d="M367.26,88.49l7-.08-.94,20.69-4.68.05Zm.55,26.23a3.62,3.62,0,1,1,3.66,3.58A3.63,3.63,0,0,1,367.81,114.72Z"/><path class="cls-16" d="M274.8,345.69a22.64,22.64,0,0,0,2.71-3,5,5,0,0,0,1.21-4.72c-1.45-2.81-5.83-1.93-5.83-1.93s-5,2-4.78-4.95c.2-5.8-3.83-5-3.83-5s-2.44-.35-3.22,2.63c-1.57,5.95-6,3.58-6,3.58-4.37-2.06-6.69.72-6.69.72-3.7,5.25,2.75,9.8,2.75,9.8,3.59,3.1.24,4.54.24,4.54s-3.46,1.67-1.19,6.93,6.93,0,6.93,0c6-4.55,11.11.83,11.11.83s5.61,6.42,8.6,4.07c3.94-3.11-1.31-8.85-1.31-8.85C272.17,347.37,274.8,345.69,274.8,345.69Zm-9.23-.09c-1.9,1.06-4.12.71-5-.78s0-3.57,1.91-4.64,4.12-.72,5,.78S267.46,344.53,265.57,345.6Z"/><path class="cls-19" d="M253.91,300.71s0-15.23-17.87-16c0,0-16.51.54-15.82,15.82,0,0,.75,13.12,13.06,11.75,0,0,5.17-.26,6.95-4.31,0,0,.85-2.56-1.67-1.15,0,0-6.52,5-11.39-2.17,0,0-5.38-9,5.46-12.7,0,0,10.77-3.65,14,6.48,0,0,3,9.1-6.59,13.77-12,5.85-18.46-5.37-18.46-5.37s-6.72-8.64,2.06-19.28c0,0,9.35-11.05,24.4-3.46,0,0,7.62,3,12.09,7.16,0,0,5.26,3.93,4.83,1.3a36.22,36.22,0,0,0-10.05-11.22,16.16,16.16,0,0,0-4.36-2.69,31,31,0,0,0-18.27-3.11C209.79,278.28,212.63,301,212.63,301s2,20.66,21.51,19.1S253.83,303.93,253.91,300.71Z"/><path class="cls-20" d="M270.37,306.32c-.18.34-.34.67-.53,1a6.66,6.66,0,1,0,11.43,6.81,80.88,80.88,0,0,0,9.31-29h0a6.28,6.28,0,0,0,0-.75,6.66,6.66,0,1,0-13.32,0s.17,6-4.14,16.13"/><polygon class="cls-21" points="342.62 123.02 370.68 73.17 399.82 122.39 342.62 123.02"/><text class="cls-22" transform="matrix(0.16, -0.99, 0.99, 0.16, 152.26, 208.31)">(</text><text class="cls-22" transform="translate(153.05 202.59) rotate(-78.15)">c</text><text class="cls-22" transform="translate(156.18 187.49) rotate(-73.89)">h</text><text class="cls-22" transform="translate(160.66 171.89) rotate(-69.62)">e</text><text class="cls-22" transform="translate(166.15 156.41) rotate(-64.08)">m</text><text class="cls-22" transform="matrix(0.5, -0.86, 0.86, 0.5, 177.69, 133.42)">i</text><text class="cls-22" transform="translate(181.24 127.11) rotate(-56.78)">c</text><text class="cls-22" transform="matrix(0.61, -0.79, 0.79, 0.61, 189.63, 114.18)">a</text><text class="cls-22" transform="matrix(0.65, -0.76, 0.76, 0.65, 200.81, 99.91)">l</text><text class="cls-22" transform="matrix(0.68, -0.74, 0.74, 0.68, 205.12, 94.92)">)</text></g></g></svg>