<svg xmlns="http://www.w3.org/2000/svg" viewBox="0 0 408.15 933.51"><defs><style>.cls-1{fill:#5c5052;}.cls-10,.cls-11,.cls-12,.cls-13,.cls-15,.cls-17,.cls-18,.cls-19,.cls-2,.cls-3,.cls-7,.cls-8,.cls-9{fill:none;}.cls-2,.cls-3{stroke:#fff;stroke-width:0.89px;}.cls-2{stroke-linecap:round;stroke-linejoin:round;}.cls-10,.cls-11,.cls-12,.cls-13,.cls-15,.cls-17,.cls-18,.cls-19,.cls-3,.cls-7,.cls-8,.cls-9{stroke-miterlimit:10;}.cls-4{fill:#3da9a0;}.cls-5{fill:#2e61a0;}.cls-6{fill:#ffcd01;}.cls-10,.cls-11,.cls-7,.cls-8,.cls-9{stroke:#f17243;}.cls-12,.cls-7{stroke-width:0.92px;}.cls-13,.cls-8{stroke-width:0.87px;}.cls-9{stroke-width:0.4px;}.cls-10{stroke-width:0.48px;}.cls-11{stroke-width:0.92px;}.cls-12,.cls-13,.cls-15,.cls-17,.cls-18{stroke:#5c5052;}.cls-14{fill:#eb6a7c;}.cls-15{stroke-width:2.43px;}.cls-16{fill:#2b63a2;}.cls-17{stroke-width:1.87px;}.cls-18{stroke-width:1.79px;}.cls-19{stroke:#2e61a0;stroke-width:2.66px;}</style></defs><g id="Layer_2" data-name="Layer 2"><g id="Layer_8" data-name="Layer 8"><rect class="cls-1" x="16.02" y="135.32" width="375.79" height="104.41"/><path class="cls-2" d="M89.8,134.58s-4.82,7.08-2.06,18.93.6,19.2.6,19.2-1.29,5.13,1.46,7.37,13.09,6.4,13.09,6.4a29.32,29.32,0,0,1,14.3,21.29c2.07,15,6.72,14.41,6.72,14.41"/><path class="cls-2" d="M65,227.14c2.41-4,11.37-7.2,11.37-7.2s3.44-1.93,5.16-15.53a68.62,68.62,0,0,1,8.27-24.33A25.16,25.16,0,0,0,100,198.33c9.88,7,10.8,12.7,10.8,12.7"/><path class="cls-2" d="M71,231.3s3.79-8.22,7-13.39c0,0,3.68,3.31,1.61,7.71s-.23,14.11-.23,14.11"/><path class="cls-2" d="M95.66,228.1S94,220.52,84.29,216.15A5.92,5.92,0,0,1,80.81,209"/><path class="cls-2" d="M88.25,137.91s-12.92,4.58-18.66,12.5c-3.19,4.4-5.74,3.84-5.74,3.84s-10,.32-27.21,25.83a35.3,35.3,0,0,1-7.12,6.24c-12.92,7.52-15.85,45.46-15.85,45.46"/><path class="cls-2" d="M88.94,160.9s-11.71,2.69-13.35,12.62-12.31,7.68-12.31,7.68-4-1.44-10.16,7.84"/><path class="cls-2" d="M89.13,164.39s13,11.65,10.89,26.23S110.82,223,110.82,223"/><path class="cls-2" d="M87.46,152.19s26.13,11.2,37.65,30.13c11.37,18.67,8.44,35.59,8.44,35.59"/><path class="cls-2" d="M94.45,134.58s14,2.6,17.4,7.72,12.06,9.89,12.06,9.89,6.1,4.83,6.54,11.24c.35,5,5.17,7,5.17,7s17.23,10.41,0,45.3"/><path class="cls-2" d="M132,167.57a8.38,8.38,0,0,0,0,6.11,72.3,72.3,0,0,1,2.89,8.64s-.69,4.16,6.2,6.72"/><path class="cls-2" d="M123.91,134.58s-1,8,7.53,13c16.58,9.75,10.65,32.5,10.65,32.5"/><path class="cls-2" d="M137.69,134.62s1.48,5.12,10.68,10.56c26.52,15.72,26,45.44,26,45.44s-.69,8,5.68,13"/><path class="cls-2" d="M135.62,134.58A13,13,0,0,0,137.69,145c3.61,5.12,4.37,17,4.37,17"/><path class="cls-2" d="M86.28,187.22s-5.78,1-9.57,4.86a17.15,17.15,0,0,1-8.27,4.65s-9.81,5-11.88,9.76-9.47,5-9.47,5"/><path class="cls-2" d="M85.54,189s-2.46,9.77,12.36,11.69"/><path class="cls-2" d="M87.06,149.5s-6.56.25-8.45,2.69A5.88,5.88,0,0,1,74,154.47s-6.72,1.49-8.27,6.43"/><path class="cls-2" d="M57.59,134.58s-11.71,6.44-11.71,13S41.4,162,41.4,162s-2.41,3.82,2.07,10.7c0,0,1.72,2.09-1.72,10.57s.17,17,.17,17.45a11,11,0,0,1,.51,8.28"/><path class="cls-2" d="M36.58,134.58s-5.75,26.7,3.68,45.5c6.83,13.61-5.4,21.77-5.4,21.77"/><path class="cls-2" d="M43,134.58s-3.07,12.6,1.11,21.61"/><path class="cls-2" d="M88.34,172.71s.09,3,6.11,3.37a21.25,21.25,0,0,1,10.16,3.2s6.72,3.68,11.72,3.84"/><path class="cls-2" d="M142.46,178.31s.74,3.69,2.63,4.81,3.28,8.16,3.28,8.16.51,5.76,5.68,12.33,6.89,16.17,6.89,16.17"/><path class="cls-2" d="M173.51,134.62s2.42,22.85-9.3,32.95S151,187.22,151,187.22s-3.32,5.44-5.51,8.55c-4.31,6.08,3.1,17,3.1,17"/><path class="cls-2" d="M201.28,133.46s4.91,7.08,2.1,18.93-.62,19.21-.62,19.21,1.32,5.12-1.48,7.36-13.33,6.4-13.33,6.4a29.4,29.4,0,0,0-14.55,21.29c-2.11,15-6.84,14.41-6.84,14.41"/><path class="cls-2" d="M226.53,226c-2.46-4-11.58-7.2-11.58-7.2s-3.51-1.92-5.26-15.53A67.79,67.79,0,0,0,201.28,179a25,25,0,0,1-10.41,18.25c-10.05,7-11,12.7-11,12.7"/><path class="cls-2" d="M220.45,230.18s-3.86-8.21-7.13-13.39c0,0-3.74,3.31-1.64,7.71s.23,14.11.23,14.11"/><path class="cls-2" d="M195.31,227S197,219.4,206.88,215a5.88,5.88,0,0,0,3.55-7.14"/><path class="cls-2" d="M202.85,136.79s13.15,4.59,19,12.5c3.25,4.4,5.84,3.84,5.84,3.84s10.17.33,27.71,25.83a35.33,35.33,0,0,0,7.24,6.24c13.15,7.53,16.13,45.46,16.13,45.46"/><path class="cls-2" d="M202.16,159.78s11.92,2.69,13.58,12.62,12.54,7.68,12.54,7.68,4-1.44,10.34,7.84"/><path class="cls-2" d="M202,163.28s-13.25,11.64-11.09,26.23-11,32.35-11,32.35"/><path class="cls-2" d="M204.86,186.1s5.89,1,9.74,4.87a17.5,17.5,0,0,0,8.42,4.64s10,5,12.09,9.76,9.65,5,9.65,5"/><path class="cls-2" d="M205.61,187.92s2.5,9.77-12.58,11.69"/><path class="cls-2" d="M204.07,148.39s6.68.24,8.6,2.68a6,6,0,0,0,4.74,2.28s6.83,1.49,8.41,6.43"/><path class="cls-2" d="M234.06,133.46s11.92,6.44,11.92,13,4.57,14.43,4.57,14.43,2.45,3.82-2.11,10.7c0,0-1.75,2.08,1.75,10.56s-.17,17-.17,17.45a10.82,10.82,0,0,0-.53,8.28"/><path class="cls-2" d="M255.45,133.46s5.86,26.7-3.74,45.5c-7,13.61,5.5,21.77,5.5,21.77"/><path class="cls-2" d="M268.08,133.5s1.75,7.84-2.46,14.89-2.28,11.39-2.28,11.39,1.93,6.45.71,10.9,7.71,10,7.71,10"/><path class="cls-3" d="M248.59,133.46s3.16,12.76-1.14,21.89"/><path class="cls-2" d="M202.76,171.6s-.08,3-6.22,3.36a21.86,21.86,0,0,0-10.34,3.2s-6.84,3.68-11.93,3.84"/><path class="cls-2" d="M313.59,134.58s-4.83,7.08-2.07,18.93.61,19.2.61,19.2-1.3,5.13,1.46,7.37,13.09,6.4,13.09,6.4A29.32,29.32,0,0,1,341,207.77c2.06,15,6.71,14.41,6.71,14.41"/><path class="cls-2" d="M288.79,227.14c2.41-4,11.36-7.2,11.36-7.2s3.45-1.93,5.17-15.53a68.39,68.39,0,0,1,8.27-24.33,25.12,25.12,0,0,0,10.22,18.25c9.87,7,10.79,12.7,10.79,12.7"/><path class="cls-2" d="M294.75,231.3s3.79-8.22,7-13.39c0,0,3.67,3.31,1.61,7.71s-.23,14.11-.23,14.11"/><path class="cls-2" d="M319.44,228.1s-1.62-7.58-11.36-11.95A5.92,5.92,0,0,1,304.6,209"/><path class="cls-2" d="M312,137.91s-12.92,4.58-18.66,12.5c-3.19,4.4-5.75,3.84-5.75,3.84s-10,.32-27.21,25.83a35.3,35.3,0,0,1-7.12,6.24c-12.92,7.52-15.85,45.46-15.85,45.46"/><path class="cls-2" d="M312.72,160.9s-11.71,2.69-13.34,12.62-12.32,7.68-12.32,7.68-4-1.44-10.16,7.84"/><path class="cls-2" d="M312.92,164.39s13,11.65,10.89,26.23S334.6,223,334.6,223"/><path class="cls-2" d="M311.24,152.19s26.13,11.2,37.66,30.13c11.37,18.67,8.44,35.59,8.44,35.59"/><path class="cls-2" d="M318.24,134.58s13.95,2.6,17.39,7.72,12.06,9.89,12.06,9.89,6.1,4.83,6.55,11.24c.34,5,5.17,7,5.17,7s17.22,10.41,0,45.3"/><path class="cls-2" d="M355.82,167.57a8.44,8.44,0,0,0,0,6.11,70.42,70.42,0,0,1,2.89,8.64s-.68,4.16,6.21,6.72"/><path class="cls-2" d="M347.69,134.58s-1,8,7.53,13c16.59,9.75,10.66,32.5,10.66,32.5"/><path class="cls-2" d="M359.41,134.58A13,13,0,0,0,361.47,145c3.62,5.12,4.37,17,4.37,17"/><path class="cls-2" d="M310.07,187.22s-5.78,1-9.57,4.86a17.15,17.15,0,0,1-8.27,4.65s-9.82,5-11.89,9.76-9.47,5-9.47,5"/><path class="cls-2" d="M309.33,189s-2.46,9.77,12.35,11.69"/><path class="cls-2" d="M310.84,149.5s-6.55.25-8.45,2.69a5.87,5.87,0,0,1-4.65,2.28S291,156,289.47,160.9"/><path class="cls-2" d="M266.74,134.58s-3.07,12.6,1.1,21.61"/><path class="cls-2" d="M312.13,172.71s.08,3,6.11,3.37a21.25,21.25,0,0,1,10.16,3.2s6.72,3.68,11.71,3.84"/><path class="cls-2" d="M366.25,178.31s.73,3.69,2.63,4.81,3.27,8.16,3.27,8.16.52,5.76,5.69,12.33,6.89,16.17,6.89,16.17"/><path class="cls-4" d="M219.14,94.38C231.48,71.12,214.08,0,214.08,0c25,43.49,22.63,91.9,22.63,91.9,1.08-48.12,24.49-75.22,24.49-75.22-19,36.47-9.66,91.27-9.66,91.27,18.09-13.61,10.88-69.65,10.88-69.65,15,33.51,9,62.6,9,62.6,9.12-45.86,35.15-68.48,35.15-68.48-17.81,50.75-13.79,78.45-13.79,78.45,15.69-29,16.11-56.6,16.11-56.6,13.62,18-3,62.59-3,62.59C334.13,97.8,332.11,15.32,332.11,15.32c12.1,48.65,3.78,101.42,3.78,101.42,8.36-41.52,41.44-69.4,41.44-69.4-25.66,39-14.74,60.41-14.74,60.41-.49-28.21,16.08-48.32,16.08-48.32-17.21,33.47-2.36,61.9-2.36,61.9-13.16-42.13,31.84-90,31.84-90-29.75,46-15.6,104.51-15.6,104.51H17.07S23.63,68.38,0,33c0,0,14.44,9.27,25.6,62.11,0,0,24.29-40.86,12.48-91.53,0,0,22.89,55.57,3.24,93.71,0,0,17.76-24.52,12.51-60.47a96.44,96.44,0,0,1,1,50.12S68,68.38,57.62,25.34c0,0,18.53,33.77,15.25,75.72,0,0,5.9-52.84,26.25-97.52,0,0-18.38,67.56-13.78,105.7,0,0,7.87-48.49,22.32-63.2,0,0-15.36,31.15,1.71,59.48,0,0,17.32-25.7-3-81.27,0,0,22.51,28.33,18.8,74.64,0,0,2.2-29.42,21.24-58.84,0,0-18.38,52.84-7.88,69.73,0,0,19.69-51.21,13.78-90.44,0,0,11.41,31.06,1.11,77.91,0,0,9.4-47.4,38.28-84.44,0,0-29.54,65.37-25.6,90.43,0,0,7.88-43.58,25.6-58.84,0,0-20.35,36.51-4.59,56.12,0,0,15.75-36.51,13.78-47.41,0,0,10.84,23.44.17,47.41,0,0,26.09-25.61,1.8-83.36,0,0,27.57,32.69,16.41,77.37"/><path class="cls-1" d="M82.63,408.19s11.79,6.23,16.94,12.3c0,0-6.14,10.06-15,12s-13.26-2.23-13.26-2.23S71.91,410.75,82.63,408.19Z"/><path class="cls-1" d="M91.66,437.36s-14.75,2.13-15.88,4.94a6,6,0,0,0,0,4.87s5,5.53,19.74,4.42C95.52,451.59,96.65,443.21,91.66,437.36Z"/><path class="cls-1" d="M127.77,433s-3.63-9.53-8-10.2a20.75,20.75,0,0,0-7.49.12A11.11,11.11,0,0,0,106,435.85S118.92,436.39,127.77,433Z"/><path class="cls-1" d="M60.57,430.05s-22.63,5.84-23,14.06,16.3,6.06,16.3,6.06,13.38-2,12.31-13.2C65.42,428.58,60.57,430.05,60.57,430.05Z"/><path class="cls-1" d="M201,413.69s-23-5.08-31.49,1,6.38,11.48,6.38,11.48,12.16,4.14,22.52-4.86C206.17,414.61,201,413.69,201,413.69Z"/><path class="cls-1" d="M139.13,453.28s-13.78-13-26.18-11.43-5.46,11.68-5.46,11.68,5.94,8.05,22.52,4.87C142.41,456,139.13,453.28,139.13,453.28Z"/><path class="cls-1" d="M43.6,408.8s-4.46,10.8-20,22.72l4,2.38s21.29-2.38,26.27-12.55,0-13.85,0-13.85S47.59,406.42,43.6,408.8Z"/><path class="cls-1" d="M151.78,415.39s-14.43-4-25.55-.44c0,0-2.53,1.69,4.22,5.56a28.27,28.27,0,0,1,7.46,5.94s10.35,8.65,15.49-3C156.79,415.73,151.78,415.39,151.78,415.39Z"/><path class="cls-1" d="M268.75,444.39s-12.83-5.28-19.05-10.91c0,0,4.28-10.46,12.71-13s13.57,1.2,13.57,1.2S278.93,441,268.75,444.39Z"/><path class="cls-1" d="M315.86,451.23s15.26-3.47,15.92-6.54a6.66,6.66,0,0,0-.94-5.18s-6.36-5.46-21.83-3.08C309,436.43,309.42,445.43,315.86,451.23Z"/><path class="cls-1" d="M219.43,423.21s5.34,9.19,9.76,9.53a20.24,20.24,0,0,0,7.42-.7s7.7-4,3.93-13.33C240.54,418.71,227.61,419.17,219.43,423.21Z"/><path class="cls-1" d="M224.11,450.62s21.6,7.29,31.38,2.07-3.64-12-3.64-12-11-5.28-23.39,2.59C219.23,449.19,224.11,450.62,224.11,450.62Z"/><path class="cls-1" d="M150.19,448s23.81,3.28,31.09-3.45-8.42-10.91-8.42-10.91-12.82-3.18-21.48,6.56C144.9,447.46,150.19,448,150.19,448Z"/><path class="cls-1" d="M341,445.19s18.94,4.33,25.88-.89-5.24-9.78-5.24-9.78a19.4,19.4,0,0,0-18.51,4.15C336.73,444.4,341,445.19,341,445.19Z"/><path class="cls-1" d="M382.74,416s-19.57-2.79-25.55,2.94,6.91,9.31,6.91,9.31,10.54,2.7,17.66-5.6C387.08,416.4,382.74,416,382.74,416Z"/><path class="cls-1" d="M297.65,439.51s2.66-11.84,16.81-25.78l-4.7-2.2S287.6,415.8,284.26,427s2.68,14.71,2.68,14.71S293.87,442.36,297.65,439.51Z"/><path class="cls-1" d="M335.66,432.34s9.18-9.16,5.42-17.44c0,0-2.28-2-9.78,1.87a48.12,48.12,0,0,1-11,4s-15.93,5.5,2,11.17C334.19,435.71,335.66,432.34,335.66,432.34Z"/><path class="cls-1" d="M198.77,442.53s15.07,2.89,25.46-1.51c0,0,2.2-1.88-5.19-5.2a33.06,33.06,0,0,1-8.5-5.33s-11.84-7.8-14.83,4.17C193.74,442.58,198.77,442.53,198.77,442.53Z"/><path class="cls-1" d="M323.08,414.49s-11.79-6.22-16.95-12.29c0,0,6.14-10.06,15-12s13.26,2.23,13.26,2.23S333.79,411.94,323.08,414.49Z"/><path class="cls-1" d="M314,385.32s14.75-2.13,15.89-4.93a6,6,0,0,0,0-4.87s-5-5.53-19.74-4.43C310.19,371.09,309.05,379.48,314,385.32Z"/><path class="cls-1" d="M277.93,389.69s3.64,9.53,8,10.2a20.7,20.7,0,0,0,7.48-.12,11.11,11.11,0,0,0,6.32-12.94S286.79,386.3,277.93,389.69Z"/><path class="cls-1" d="M345.14,392.64s22.62-5.85,22.95-14.07-16.3-6.06-16.3-6.06-13.38,2-12.31,13.2C340.29,394.11,345.14,392.64,345.14,392.64Z"/><path class="cls-1" d="M204.69,409s23.05,5.08,31.49-1.05-6.38-11.48-6.38-11.48-12.16-4.13-22.52,4.87C199.53,408.07,204.69,409,204.69,409Z"/><path class="cls-1" d="M362.1,413.88s4.47-10.79,20-22.72l-4-2.38s-21.29,2.38-26.28,12.55,0,13.85,0,13.85S358.11,416.26,362.1,413.88Z"/><path class="cls-1" d="M253.92,407.29s14.44,4,25.56.45c0,0,2.52-1.7-4.22-5.56a28.35,28.35,0,0,1-7.47-5.95s-10.35-8.65-15.48,3C248.91,407,253.92,407.29,253.92,407.29Z"/><path class="cls-1" d="M137,378.29s12.83,5.29,19,10.92c0,0-4.27,10.46-12.7,13S129.72,401,129.72,401,126.78,381.65,137,378.29Z"/><path class="cls-1" d="M89.84,371.45S74.58,374.92,73.92,378a6.68,6.68,0,0,0,.94,5.17s6.37,5.47,21.84,3.09C96.7,386.26,96.28,377.25,89.84,371.45Z"/><path class="cls-1" d="M186.27,399.47s-5.33-9.19-9.76-9.52a20.31,20.31,0,0,0-7.41.69s-7.71,4-3.93,13.34C165.17,404,178.09,403.52,186.27,399.47Z"/><path class="cls-1" d="M181.59,372.07s-21.6-7.3-31.37-2.08,3.63,12,3.63,12,11.06,5.29,23.4-2.59C186.47,373.49,181.59,372.07,181.59,372.07Z"/><path class="cls-1" d="M255.51,374.69s-23.81-3.28-31.08,3.45,8.41,10.91,8.41,10.91,12.83,3.18,21.49-6.55C260.8,375.22,255.51,374.69,255.51,374.69Z"/><path class="cls-1" d="M64.74,377.49s-18.95-4.33-25.89.89,5.25,9.79,5.25,9.79A19.43,19.43,0,0,0,62.61,384C69,378.28,64.74,377.49,64.74,377.49Z"/><path class="cls-1" d="M23,406.73s19.57,2.8,25.55-2.94-6.92-9.3-6.92-9.3-10.54-2.71-17.66,5.59C18.62,406.28,23,406.73,23,406.73Z"/><path class="cls-1" d="M108.06,383.17S105.4,395,91.24,409l4.7,2.2s22.17-4.27,25.5-15.48S118.76,381,118.76,381,111.84,380.32,108.06,383.17Z"/><path class="cls-1" d="M70.05,390.34s-9.18,9.16-5.43,17.44c0,0,2.28,2,9.79-1.87a47.64,47.64,0,0,1,11-4s15.94-5.51-2-11.18C71.51,387,70.05,390.34,70.05,390.34Z"/><path class="cls-1" d="M206.93,380.16s-15.06-2.9-25.46,1.51c0,0-2.2,1.87,5.2,5.19a33,33,0,0,1,8.49,5.34S207,400,210,388C212,380.11,206.93,380.16,206.93,380.16Z"/><path class="cls-1" d="M330.64,498.17s-11.78-6.23-16.94-12.3c0,0,6.14-10.06,15-12s13.26,2.24,13.26,2.24S341.36,495.61,330.64,498.17Z"/><path class="cls-1" d="M321.61,469s14.75-2.12,15.88-4.93a6,6,0,0,0,0-4.87s-5-5.53-19.73-4.42C317.76,454.77,316.62,463.15,321.61,469Z"/><path class="cls-1" d="M285.37,473.64s4,9.44,8.33,10a20.57,20.57,0,0,0,7.48-.3A11,11,0,0,0,307,470.25S294.1,470,285.37,473.64Z"/><path class="cls-1" d="M352.71,476.31s22.62-5.84,23-14.06-16.3-6.06-16.3-6.06-13.38,2-12.31,13.2C347.86,477.78,352.71,476.31,352.71,476.31Z"/><path class="cls-1" d="M216,493.9s23.05,5.08,31.49-1-6.38-11.49-6.38-11.49-12.16-4.13-22.52,4.87C210.88,493,216,493.9,216,493.9Z"/><path class="cls-1" d="M274.14,453.08s13.79,13.05,26.18,11.43,5.46-11.68,5.46-11.68-5.93-8.05-22.52-4.87C270.86,450.33,274.14,453.08,274.14,453.08Z"/><path class="cls-1" d="M365,498.84s4.47-10.8,20-22.72l-4-2.38s-21.29,2.38-26.28,12.55,0,13.85,0,13.85S361.05,501.22,365,498.84Z"/><path class="cls-1" d="M343,500.88s9.47,8.53,12.59,15.49c0,0-9,8.42-18.17,8.4s-12.13-5-12.13-5S331.89,501.08,343,500.88Z"/><path class="cls-1" d="M312.46,510.89s-14.91-1.07-16.87,1.4a6.14,6.14,0,0,0-1.5,4.71s3.11,6.4,17.72,8.47C311.81,525.47,315.49,517.6,312.46,510.89Z"/><path class="cls-1" d="M289.79,506.12s13.62-1.59,33.45,4.46l.74-4s-12.21-14.67-25.39-13.75-14.87,6.28-14.87,6.28S285.43,504.24,289.79,506.12Z"/><path class="cls-1" d="M203.45,456.21s5.83,10.52,3.59,26.06l5.37.47s15.38-9.87,10.53-20.07-12.17-11.36-12.17-11.36S204.64,452.77,203.45,456.21Z"/><path class="cls-1" d="M261.49,491s14.44,4,25.56.44c0,0,2.52-1.69-4.22-5.56a28.45,28.45,0,0,1-7.47-5.94s-10.35-8.65-15.48,3C256.49,490.63,261.49,491,261.49,491Z"/><path class="cls-1" d="M148.3,463.2s12.84,5.28,19,10.91c0,0-4.27,10.46-12.7,13s-13.58-1.2-13.58-1.2S138.12,466.56,148.3,463.2Z"/><path class="cls-1" d="M101.19,456.36s-15.26,3.47-15.92,6.54a6.71,6.71,0,0,0,.94,5.18s6.37,5.46,21.83,3.08C108,471.16,107.63,462.16,101.19,456.36Z"/><path class="cls-1" d="M197.62,484.38s-5.33-9.19-9.76-9.53a20.31,20.31,0,0,0-7.41.69s-7.71,4-3.93,13.34C176.52,488.88,189.44,488.42,197.62,484.38Z"/><path class="cls-1" d="M192.94,457s-21.6-7.29-31.37-2.07,3.63,12,3.63,12,11.06,5.28,23.4-2.59C197.82,458.4,192.94,457,192.94,457Z"/><path class="cls-1" d="M131.76,563.23s23.79-1.31,29.43-9.36-10.48-9.18-10.48-9.18-13.12-.69-19.46,10.6C126.51,563.73,131.76,563.23,131.76,563.23Z"/><path class="cls-1" d="M245.17,550s13.67,13.13,26.08,11.59S276.81,550,276.81,550s-5.86-8.08-22.47-5C241.91,547.28,245.17,550,245.17,550Z"/><path class="cls-1" d="M174,539s.93-12.61-6.11-20.6c0,0-2.63-1.58-5.38,4.83a24.64,24.64,0,0,1-5,7.53s-7.39,10.54,7.52,11.62C174.87,543.05,174,539,174,539Z"/><path class="cls-1" d="M183.38,524.17s-3.61,19.12,4.74,25.82,13.22-5.67,13.22-5.67S205,534.18,193,526C183.93,519.9,183.38,524.17,183.38,524.17Z"/><path class="cls-1" d="M266.86,459.6s-23.81-3.28-31.09,3.44S244.19,474,244.19,474s12.82,3.17,21.48-6.56C272.15,460.12,266.86,459.6,266.86,459.6Z"/><path class="cls-1" d="M307.8,533.88s-8,9.84-15.6,14.2c0,0-11.91-4.93-13.85-12.21s3.26-11,3.26-11S305.16,525.05,307.8,533.88Z"/><path class="cls-1" d="M313.53,565.32s11.62-16.78,6.7-25.52-14.79,1.38-14.79,1.38-7.8,8.38-.06,19.59C311.17,569.15,313.53,565.32,313.53,565.32Z"/><path class="cls-1" d="M330,531.38s-7.13,19.14-.08,26S344.11,552,344.11,552s5.51-10.12-4.94-18.56C331.35,527.1,330,531.38,330,531.38Z"/><path class="cls-1" d="M79.86,456.25s-18.94-4.33-25.88.89,5.25,9.79,5.25,9.79a19.43,19.43,0,0,0,18.51-4.15C84.11,457,79.86,456.25,79.86,456.25Z"/><path class="cls-1" d="M39.4,457.7s-11.86-3.43-21-.38c0,0-2.07,1.45,3.47,4.74A23.46,23.46,0,0,1,28,467.13s8.5,7.37,12.72-2.57C43.52,458,39.4,457.7,39.4,457.7Z"/><path class="cls-1" d="M38.1,485.49s19.57,2.8,25.55-2.94-6.92-9.3-6.92-9.3-10.54-2.71-17.66,5.59C33.75,485,38.1,485.49,38.1,485.49Z"/><path class="cls-1" d="M119.41,468.08s-2.66,11.84-16.82,25.78l4.7,2.2s22.17-4.28,25.5-15.49-2.68-14.72-2.68-14.72S123.19,465.22,119.41,468.08Z"/><path class="cls-1" d="M70.41,537.23s10.93-4.21,11.17-7.87a12.18,12.18,0,0,0-1.1-6.15s-5.11-6.46-16.28-3.54C64.2,519.67,65.23,530.37,70.41,537.23Z"/><path class="cls-1" d="M137.55,501.37s-23.05-5.08-31.49,1,6.38,11.49,6.38,11.49S124.6,518,135,509C142.71,502.29,137.55,501.37,137.55,501.37Z"/><path class="cls-1" d="M175.87,509.4s-8.91-15.7-21.36-17-9.13,10-9.13,10,3,9.09,20,9.84C178.11,512.8,175.87,509.4,175.87,509.4Z"/><path class="cls-1" d="M88.32,503.08s-14.44-4-25.55-.45c0,0-2.53,1.69,4.21,5.56a28.45,28.45,0,0,1,7.47,5.94s10.35,8.66,15.48-3C93.33,503.41,88.32,503.08,88.32,503.08Z"/><path class="cls-1" d="M72.89,549.37s11,8.71,22.93,9.36c0,0,3.15-.65-1-6.51a22.82,22.82,0,0,1-3.75-8s-5-11.47-15.57-2.69C68.52,547.32,72.89,549.37,72.89,549.37Z"/><path class="cls-1" d="M86.73,535.67s23.81,3.28,31.08-3.44-8.41-10.92-8.41-10.92-12.83-3.17-21.49,6.56C81.44,535.15,86.73,535.67,86.73,535.67Z"/><path class="cls-1" d="M143.34,520.3s-12.17-1.45-15,1.42a13.33,13.33,0,0,0-3.44,5.49s-.29,7.54,11.16,10.15C136.09,537.36,142.82,528.19,143.34,520.3Z"/><path class="cls-1" d="M134.86,544.65s-21.6-7.29-31.37-2.07,3.63,12,3.63,12,11.06,5.29,23.4-2.59C139.74,546.08,134.86,544.65,134.86,544.65Z"/><path class="cls-1" d="M81.4,475.25S72.22,484.4,76,492.68c0,0,2.28,2.05,9.78-1.86a48.12,48.12,0,0,1,11-4s15.94-5.5-2-11.17C82.86,471.88,81.4,475.25,81.4,475.25Z"/><path class="cls-1" d="M209.85,535.5s10.42,15,23,15.47,8.12-10.56,8.12-10.56S237,531.55,220,532C207.28,532.26,209.85,535.5,209.85,535.5Z"/><path class="cls-1" d="M205.9,524.27s-11.33-7.27-16.09-13.81c0,0,6.67-9.56,15.55-10.71s13,3.4,13,3.4S216.67,522.64,205.9,524.27Z"/><path class="cls-1" d="M363.13,544.3S351.81,537,347,530.49c0,0,6.68-9.56,15.55-10.71s13,3.4,13,3.4S373.91,542.67,363.13,544.3Z"/><path class="cls-1" d="M59.73,511.77s-11.81-5.85-22.66-20.9l-3.63,2.75s-1.59,17.78,9.36,23.93,16.33,2.86,16.33,2.86S61.71,515.51,59.73,511.77Z"/><path class="cls-1" d="M46.62,526.72s9.47,8.53,12.59,15.49c0,0-9,8.42-18.18,8.4s-12.13-5-12.13-5S35.47,526.92,46.62,526.72Z"/><path class="cls-1" d="M59,574.11s-11.33-7.27-16.09-13.81c0,0,6.67-9.56,15.54-10.71s13,3.4,13,3.4S69.72,572.48,59,574.11Z"/><path class="cls-1" d="M247.78,538.66s15.78-.9,17.16-3.81a6.5,6.5,0,0,0,.3-5.23s-4.94-6.4-20.67-6.59C244.57,523,242.84,531.93,247.78,538.66Z"/><path class="cls-1" d="M177.63,507.38s15.79-.91,17.16-3.81a6.53,6.53,0,0,0,.31-5.23s-4.95-6.4-20.68-6.59C174.42,491.75,172.7,500.64,177.63,507.38Z"/><path class="cls-1" d="M235.39,524.2S240.8,513,258,501.67l-4.09-2.92s-22.74.57-28.67,11-.86,14.87-.86,14.87S231,526.38,235.39,524.2Z"/><path class="cls-1" d="M273,523.38s11.17-7.48,9.45-16.22c0,0-1.75-2.37-10,.24a50.68,50.68,0,0,1-11.74,2.15s-16.93,2.8-.65,11.29C270.77,526.44,273,523.38,273,523.38Z"/><path class="cls-1" d="M320.4,812.54s-11.79-6.23-16.95-12.3c0,0,6.14-10.06,15-12s13.26,2.24,13.26,2.24S331.11,810,320.4,812.54Z"/><path class="cls-1" d="M311.36,783.36s14.75-2.13,15.88-4.93a6,6,0,0,0,0-4.87s-5-5.53-19.73-4.43C307.51,769.13,306.37,777.52,311.36,783.36Z"/><path class="cls-1" d="M275.25,787.73s3.64,9.54,8,10.21a20.7,20.7,0,0,0,7.48-.12,11.13,11.13,0,0,0,6.32-13S284.11,784.34,275.25,787.73Z"/><path class="cls-1" d="M342.46,790.68s22.62-5.84,23-14.06-16.3-6.06-16.3-6.06-13.38,2-12.3,13.2C337.61,792.15,342.46,790.68,342.46,790.68Z"/><path class="cls-1" d="M202,807s23.05,5.08,31.49-1-6.38-11.49-6.38-11.49-12.16-4.13-22.52,4.87C196.85,806.11,202,807,202,807Z"/><path class="cls-1" d="M263.89,767.45s13.79,13,26.18,11.43,5.46-11.68,5.46-11.68-5.93-8.05-22.52-4.87C260.61,764.7,263.89,767.45,263.89,767.45Z"/><path class="cls-1" d="M359.42,811.93s4.47-10.8,20-22.72l-4-2.38s-21.29,2.38-26.28,12.55,0,13.84,0,13.84S355.43,814.3,359.42,811.93Z"/><path class="cls-1" d="M251.24,805.33s14.44,4,25.56.45c0,0,2.52-1.69-4.22-5.56a28.45,28.45,0,0,1-7.47-5.94s-10.35-8.66-15.48,3C246.23,805,251.24,805.33,251.24,805.33Z"/><path class="cls-1" d="M134.28,776.33s12.83,5.29,19,10.92c0,0-4.27,10.46-12.7,13s-13.58-1.2-13.58-1.2S124.1,779.69,134.28,776.33Z"/><path class="cls-1" d="M87.16,769.5S71.9,773,71.24,776a6.68,6.68,0,0,0,.94,5.17s6.37,5.47,21.84,3.09C94,784.3,93.6,775.3,87.16,769.5Z"/><path class="cls-1" d="M183.59,797.52s-5.33-9.2-9.76-9.53a20.31,20.31,0,0,0-7.41.69s-7.71,4-3.93,13.34C162.49,802,175.41,801.56,183.59,797.52Z"/><path class="cls-1" d="M178.91,770.11s-21.6-7.29-31.37-2.07,3.63,12,3.63,12,11.06,5.28,23.4-2.6C183.79,771.53,178.91,770.11,178.91,770.11Z"/><path class="cls-1" d="M252.83,772.74s-23.81-3.28-31.08,3.44,8.41,10.92,8.41,10.92,12.83,3.17,21.49-6.56C258.12,773.26,252.83,772.74,252.83,772.74Z"/><path class="cls-1" d="M59.31,780.11s-18.94-4.33-25.88.89,5.24,9.79,5.24,9.79a19.42,19.42,0,0,0,18.51-4.16C63.55,780.9,59.31,780.11,59.31,780.11Z"/><path class="cls-1" d="M17.54,809.35s19.57,2.8,25.55-2.94-6.91-9.3-6.91-9.3-10.54-2.71-17.66,5.59C13.2,808.9,17.54,809.35,17.54,809.35Z"/><path class="cls-1" d="M105.38,781.22S102.72,793.06,88.56,807l4.7,2.21s22.17-4.28,25.5-15.49S116.08,779,116.08,779,109.16,778.36,105.38,781.22Z"/><path class="cls-1" d="M67.37,788.39s-9.18,9.15-5.43,17.43c0,0,2.28,2,9.79-1.86a48,48,0,0,1,11-4s15.94-5.51-2-11.17C68.83,785,67.37,788.39,67.37,788.39Z"/><path class="cls-1" d="M204.25,778.2s-15.06-2.89-25.45,1.51c0,0-2.2,1.88,5.19,5.2a32.87,32.87,0,0,1,8.49,5.33s11.84,7.8,14.83-4.18C209.28,778.15,204.25,778.2,204.25,778.2Z"/><path class="cls-1" d="M72.38,722.56s11.78,6.22,16.94,12.29c0,0-6.14,10.07-15,12s-13.26-2.23-13.26-2.23S61.66,725.11,72.38,722.56Z"/><path class="cls-1" d="M81.41,751.73s-14.75,2.13-15.88,4.93a5.94,5.94,0,0,0,0,4.87s5,5.53,19.74,4.43C85.27,766,86.4,757.57,81.41,751.73Z"/><path class="cls-1" d="M117.52,747.36s-3.63-9.53-8-10.2a20.75,20.75,0,0,0-7.49.12,11.11,11.11,0,0,0-6.31,12.94S108.67,750.75,117.52,747.36Z"/><path class="cls-1" d="M47.57,749S25,754.83,24.62,763.05s16.3,6.06,16.3,6.06,13.38-2,12.31-13.2C52.42,747.52,47.57,749,47.57,749Z"/><path class="cls-1" d="M187,726.83s-23-5.08-31.49,1,6.38,11.48,6.38,11.48,12.16,4.13,22.52-4.87C192.14,727.75,187,726.83,187,726.83Z"/><path class="cls-1" d="M128.88,767.65s-13.78-13-26.18-11.44-5.46,11.69-5.46,11.69,5.94,8,22.52,4.87C132.16,770.4,128.88,767.65,128.88,767.65Z"/><path class="cls-1" d="M42.74,716.65S37.3,729.8,18.43,744.33l4.86,2.89s25.94-2.89,32-15.28,0-16.87,0-16.87S47.6,713.75,42.74,716.65Z"/><path class="cls-1" d="M199.57,764.52S193.74,754,196,738.46l-5.37-.47s-15.38,9.87-10.53,20.07,12.17,11.36,12.17,11.36S198.39,768,199.57,764.52Z"/><path class="cls-1" d="M141.53,729.76s-14.43-4-25.55-.45c0,0-2.53,1.7,4.22,5.56a28.39,28.39,0,0,1,7.46,6s10.35,8.65,15.49-3C146.53,730.1,141.53,729.76,141.53,729.76Z"/><path class="cls-1" d="M254.72,757.53s-12.83-5.28-19.05-10.92c0,0,4.28-10.46,12.71-13S262,734.78,262,734.78,264.9,754.17,254.72,757.53Z"/><path class="cls-1" d="M301.83,764.37s15.26-3.47,15.92-6.54a6.64,6.64,0,0,0-.94-5.18s-6.37-5.46-21.83-3.09C295,749.56,295.39,758.57,301.83,764.37Z"/><path class="cls-1" d="M205.4,736.35s5.33,9.19,9.76,9.52a20.13,20.13,0,0,0,7.42-.69s7.7-4,3.93-13.33C226.51,731.85,213.58,732.31,205.4,736.35Z"/><path class="cls-1" d="M210.08,763.75s21.61,7.3,31.37,2.08-3.63-12-3.63-12-11.06-5.29-23.39,2.59C205.2,762.33,210.08,763.75,210.08,763.75Z"/><path class="cls-1" d="M136.16,761.13s23.81,3.28,31.09-3.45-8.42-10.91-8.42-10.91-12.82-3.18-21.48,6.55C130.87,760.6,136.16,761.13,136.16,761.13Z"/><path class="cls-1" d="M323.16,764.48s18.94,4.33,25.88-.89-5.24-9.79-5.24-9.79A19.43,19.43,0,0,0,325.29,758C318.92,763.69,323.16,764.48,323.16,764.48Z"/><path class="cls-1" d="M363.62,763s11.86,3.43,21,.38c0,0,2.08-1.44-3.47-4.73A23.73,23.73,0,0,1,375,753.6s-8.51-7.38-12.73,2.57C359.51,762.74,363.62,763,363.62,763Z"/><path class="cls-1" d="M364.28,729s9.84,12.05,21.5,15.44c0,0,3.18,0-.2-7.4a29.66,29.66,0,0,1-2.73-9.65s-3.53-13.74-15-6.45C360.22,725.77,364.28,729,364.28,729Z"/><path class="cls-1" d="M361.27,735.24s-19.57-2.8-25.55,2.93,6.91,9.31,6.91,9.31,10.55,2.71,17.66-5.59C365.61,735.69,361.27,735.24,361.27,735.24Z"/><path class="cls-1" d="M283.62,752.65s2.65-11.84,16.81-25.78l-4.7-2.2s-22.16,4.27-25.5,15.49,2.68,14.71,2.68,14.71S279.84,755.5,283.62,752.65Z"/><path class="cls-1" d="M321.63,745.48s9.17-9.16,5.42-17.44c0,0-2.27-2-9.78,1.87a48.12,48.12,0,0,1-11,4s-15.93,5.5,2,11.17C320.16,748.85,321.63,745.48,321.63,745.48Z"/><path class="cls-5" d="M391.63,854.53c-3.1-1.55-18.69-8.29-41.81-.25-28.18,9.79-71.21,4-71.21,4s-17.42-2.67-37.76-6.92c-28.09-5.87-68,3.59-68,3.59S143.35,863,99.3,855s-82.23,0-82.23,0v78.56H392.21v-79Z"/><path class="cls-5" d="M34.42,829.17h0a77.32,77.32,0,0,1-5-7.29c-1.69,2.9-5,7.29-5,7.29h0a.86.86,0,0,0-.07.1,4.17,4.17,0,0,0-.74,2.35c0,2.65,2.58,4.79,5.77,4.79s5.77-2.14,5.77-4.79A4.12,4.12,0,0,0,34.42,829.17Z"/><path class="cls-5" d="M62.09,825h0a77.32,77.32,0,0,1-5-7.29c-1.68,2.9-5,7.29-5,7.29h0a.86.86,0,0,0-.07.1,4.17,4.17,0,0,0-.74,2.35c0,2.65,2.58,4.79,5.77,4.79s5.78-2.14,5.78-4.79A4.13,4.13,0,0,0,62.09,825Z"/><path class="cls-5" d="M92.93,833.77h0a77.32,77.32,0,0,1-5-7.29c-1.68,2.9-5,7.29-5,7.29h0a.39.39,0,0,0-.08.1,4.17,4.17,0,0,0-.74,2.35c0,2.65,2.58,4.79,5.77,4.79s5.78-2.14,5.78-4.79A4.22,4.22,0,0,0,92.93,833.77Z"/><path class="cls-5" d="M115,823.67h0a77.32,77.32,0,0,1-5-7.29c-1.69,2.9-5,7.29-5,7.29h0a.86.86,0,0,0-.07.1,4.09,4.09,0,0,0-.74,2.35c0,2.65,2.58,4.79,5.77,4.79s5.77-2.14,5.77-4.79A4.15,4.15,0,0,0,115,823.67Z"/><path class="cls-5" d="M136.41,829.17h0a79.4,79.4,0,0,1-5-7.29c-1.68,2.9-5,7.29-5,7.29h0l-.08.1a4.17,4.17,0,0,0-.74,2.35c0,2.65,2.59,4.79,5.77,4.79s5.78-2.14,5.78-4.79A4.12,4.12,0,0,0,136.41,829.17Z"/><path class="cls-5" d="M164.64,825h0a77.32,77.32,0,0,1-5-7.29c-1.68,2.9-5,7.29-5,7.29h0a.39.39,0,0,0-.08.1,4.17,4.17,0,0,0-.74,2.35c0,2.65,2.58,4.79,5.77,4.79s5.78-2.14,5.78-4.79A4.22,4.22,0,0,0,164.64,825Z"/><path class="cls-5" d="M192.67,834.93h0a78.09,78.09,0,0,1-5-7.28c-1.69,2.9-5,7.28-5,7.28h0l-.08.11a4.15,4.15,0,0,0-.74,2.35c0,2.64,2.59,4.79,5.78,4.79s5.77-2.15,5.77-4.79A4.18,4.18,0,0,0,192.67,834.93Z"/><path class="cls-5" d="M220.33,827.67h0a77.32,77.32,0,0,1-5-7.29c-1.69,2.9-5,7.29-5,7.29h0l-.08.1a4.17,4.17,0,0,0-.74,2.35c0,2.65,2.59,4.79,5.78,4.79s5.77-2.14,5.77-4.79A4.12,4.12,0,0,0,220.33,827.67Z"/><path class="cls-5" d="M368.48,835.35h0a77.32,77.32,0,0,0,5-7.29c1.68,2.9,5,7.29,5,7.29h0a.39.39,0,0,1,.08.1,4.17,4.17,0,0,1,.74,2.35c0,2.65-2.59,4.79-5.77,4.79s-5.78-2.14-5.78-4.79A4.19,4.19,0,0,1,368.48,835.35Z"/><path class="cls-5" d="M350.61,576.15h0a70.74,70.74,0,0,0,4.58-6.74c1.56,2.69,4.58,6.74,4.58,6.74h0l.07.09a3.89,3.89,0,0,1,.69,2.18c0,2.44-2.4,4.42-5.34,4.42s-5.34-2-5.34-4.42A3.89,3.89,0,0,1,350.61,576.15Z"/><path class="cls-5" d="M340.81,831.21h0a78.73,78.73,0,0,0,5-7.29c1.68,2.9,5,7.29,5,7.29h0l.08.1a4.19,4.19,0,0,1,.74,2.35c0,2.65-2.59,4.79-5.77,4.79s-5.78-2.14-5.78-4.79A4.22,4.22,0,0,1,340.81,831.21Z"/><path class="cls-5" d="M101.36,574.5h0a79.4,79.4,0,0,0,5-7.29c1.68,2.9,5,7.29,5,7.29h0l.08.1a4.19,4.19,0,0,1,.74,2.35c0,2.65-2.59,4.8-5.77,4.8s-5.78-2.15-5.78-4.8A4.24,4.24,0,0,1,101.36,574.5Z"/><path class="cls-5" d="M310,840h0a78.73,78.73,0,0,0,5-7.29c1.68,2.9,4.95,7.29,4.95,7.29h0l.08.1a4.19,4.19,0,0,1,.74,2.35c0,2.65-2.59,4.8-5.77,4.8s-5.78-2.15-5.78-4.8A4.15,4.15,0,0,1,310,840Z"/><path class="cls-5" d="M170.32,565.93h0a58.66,58.66,0,0,0,3.74-5.49c1.27,2.18,3.73,5.49,3.73,5.49h0l.06.08a3.1,3.1,0,0,1,.56,1.77c0,2-1.95,3.61-4.35,3.61s-4.36-1.61-4.36-3.61A3.14,3.14,0,0,1,170.32,565.93Z"/><path class="cls-5" d="M142.88,579.43h0a47.5,47.5,0,0,0,3-4.46c1,1.77,3,4.46,3,4.46h0l0,.06a2.54,2.54,0,0,1,.46,1.44c0,1.62-1.58,2.93-3.53,2.93s-3.54-1.31-3.54-2.93A2.6,2.6,0,0,1,142.88,579.43Z"/><path class="cls-5" d="M69.88,582.85h0a47.5,47.5,0,0,0,3-4.46c1,1.78,3,4.46,3,4.46h0l0,.07a2.5,2.5,0,0,1,.45,1.43,3.59,3.59,0,0,1-7.06,0A2.53,2.53,0,0,1,69.88,582.85Z"/><path class="cls-5" d="M220.87,566.21h0a78.09,78.09,0,0,0,5-7.28c1.69,2.9,5,7.28,5,7.28h0l.08.11a4.15,4.15,0,0,1,.74,2.35c0,2.64-2.59,4.79-5.78,4.79s-5.77-2.15-5.77-4.79A4.18,4.18,0,0,1,220.87,566.21Z"/><path class="cls-5" d="M247.4,575.71h0a51.42,51.42,0,0,0,3.36-4.93c1.13,2,3.35,4.93,3.35,4.93h0l0,.07a2.8,2.8,0,0,1,.5,1.59c0,1.79-1.75,3.24-3.9,3.24s-3.91-1.45-3.91-3.24A2.82,2.82,0,0,1,247.4,575.71Z"/><path class="cls-5" d="M295.51,566.94h0a52.84,52.84,0,0,0,3.36-4.93c1.14,2,3.35,4.93,3.35,4.93h0l.05.07a2.8,2.8,0,0,1,.5,1.59c0,1.79-1.75,3.24-3.9,3.24S295,570.39,295,568.6A2.81,2.81,0,0,1,295.51,566.94Z"/><path class="cls-5" d="M287.9,829.85h0a77.32,77.32,0,0,0,5-7.29c1.68,2.9,5,7.29,5,7.29h0a.39.39,0,0,1,.08.1,4.17,4.17,0,0,1,.74,2.35c0,2.65-2.58,4.79-5.77,4.79s-5.78-2.14-5.78-4.79A4.22,4.22,0,0,1,287.9,829.85Z"/><path class="cls-5" d="M258.54,840h0a77.32,77.32,0,0,0,5-7.29c1.68,2.9,5,7.29,5,7.29h0l.07.1a4.19,4.19,0,0,1,.74,2.35c0,2.65-2.58,4.8-5.77,4.8s-5.77-2.15-5.77-4.8A4.23,4.23,0,0,1,258.54,840Z"/><path class="cls-5" d="M232.66,829.85h0a77.32,77.32,0,0,0,5-7.29c1.69,2.9,5,7.29,5,7.29h0l.08.1a4.17,4.17,0,0,1,.74,2.35c0,2.65-2.59,4.79-5.78,4.79s-5.77-2.14-5.77-4.79A4.15,4.15,0,0,1,232.66,829.85Z"/><path class="cls-5" d="M182.58,833.85h0a77.32,77.32,0,0,0,5-7.29c1.68,2.9,5,7.29,5,7.29h0a.86.86,0,0,1,.07.1,4.17,4.17,0,0,1,.74,2.35c0,2.65-2.58,4.79-5.77,4.79s-5.77-2.14-5.77-4.79A4.15,4.15,0,0,1,182.58,833.85Z"/><path class="cls-6" d="M61,285.5l10.28-3.94A13.63,13.63,0,0,0,66.85,276l-.1-.07a14.74,14.74,0,0,0-2.4-1.4c-1.39-.63-2.75-1.17-4.07-1.7a35.31,35.31,0,0,1-7.85-3.91c-.31-.23-.61-.46-.9-.7a26.11,26.11,0,0,1-4-4.47A33.71,33.71,0,0,0,43.38,259a12.84,12.84,0,0,0-1.08-.87A13.27,13.27,0,0,0,23,275.36a12.3,12.3,0,0,0,3.61,4,25.11,25.11,0,0,0,6.64,3.13A35.4,35.4,0,0,1,36.88,284a25.09,25.09,0,0,1,3.45,2.1,32.36,32.36,0,0,1,4.11,3.57,28.73,28.73,0,0,1,2.33,2.78,24,24,0,0,0,4.75,5h0a13,13,0,0,0,9.79,2.27,13.16,13.16,0,0,0,8.53-5.22Z"/><path class="cls-7" d="M68.3,282.71a6.19,6.19,0,0,0-.28-.58A10.46,10.46,0,0,0,65,278.58h0A11.26,11.26,0,0,0,63,277.44c-1.31-.6-2.64-1.13-3.92-1.64-3.39-1.35-6.6-2.63-9.6-5.1a29.63,29.63,0,0,1-4.48-5,31.34,31.34,0,0,0-3.78-4.38,10.13,10.13,0,0,0-14.84,1.61,10.18,10.18,0,0,0-.61,10.87c1.85,3.34,5.09,4.49,8.51,5.71a36,36,0,0,1,4,1.59,31.5,31.5,0,0,1,8.43,6.29,33.32,33.32,0,0,1,2.57,3.06,21.45,21.45,0,0,0,4.09,4.37,9.8,9.8,0,0,0,7.34,1.71,9.93,9.93,0,0,0,6.56-4c.1-.13.19-.27.28-.4"/><path class="cls-6" d="M372.7,334.73l-.63-9.3a11.54,11.54,0,0,0-5.61,2.2l-.08.06a13.07,13.07,0,0,0-1.73,1.6c-.85,1-1.63,1.94-2.39,2.87a29.83,29.83,0,0,1-5.12,5.39l-.79.56a22.31,22.31,0,0,1-4.61,2.09,29.26,29.26,0,0,0-4.95,2.19c-.33.2-.66.43-1,.66A11.24,11.24,0,0,0,355,363a10.47,10.47,0,0,0,4.18-1.92,21.57,21.57,0,0,0,4.18-4.6,30.14,30.14,0,0,1,2.08-2.59,20.47,20.47,0,0,1,2.56-2.27,27.31,27.31,0,0,1,3.92-2.44,23.83,23.83,0,0,1,2.83-1.19,20.13,20.13,0,0,0,5.23-2.61h0a11,11,0,0,0,4.28-7.36,11.18,11.18,0,0,0-2.1-8.21Z"/><path class="cls-8" d="M372.26,328.12c-.19,0-.37.05-.54.09a9,9,0,0,0-3.65,1.6h0a9.93,9.93,0,0,0-1.4,1.28c-.81.92-1.57,1.86-2.3,2.77a29,29,0,0,1-6.53,6.5,24.31,24.31,0,0,1-5.17,2.38,27.5,27.5,0,0,0-4.49,2,8.59,8.59,0,0,0-2.4,12.42,8.66,8.66,0,0,0,8.67,3.21c3.16-.67,4.9-3,6.74-5.48a30.68,30.68,0,0,1,2.28-2.83,26.61,26.61,0,0,1,7.2-5.26,27.23,27.23,0,0,1,3.12-1.32,18,18,0,0,0,4.55-2.23,8.27,8.27,0,0,0,3.23-5.52,8.45,8.45,0,0,0-1.6-6.31l-.25-.32"/><path class="cls-5" d="M120.8,269.16c-2-5.17.24-10.3,5.46-12.36a10,10,0,0,1,3.91-.73l1.88,4.75a6.29,6.29,0,0,0-3.84.36,4.67,4.67,0,1,0,3.43,8.68,6.06,6.06,0,0,0,3.05-2.35l1.89,4.77a10,10,0,0,1-3.37,2.12C128,276.47,122.83,274.3,120.8,269.16Z"/><path class="cls-5" d="M134.78,263.61a9.57,9.57,0,1,1,12.39,5.33A9.28,9.28,0,0,1,134.78,263.61Zm13.16-5.21a4.58,4.58,0,1,0-2.54,6.05A4.56,4.56,0,0,0,147.94,258.4Z"/><path class="cls-5" d="M160.39,271c.64-1.51,1.3-3.14,1.88-4.6a3,3,0,0,0,.25-2.09,1,1,0,0,0-1.3-.56,1.31,1.31,0,0,0-.55,1.82l-2.74.31a3.78,3.78,0,0,1,2.23-4.77,3.61,3.61,0,0,1,4.83,1.79,4.86,4.86,0,0,1-.35,3.89c-.18.5-.4,1.08-.57,1.59l2.65-1.05,1,2.5L161,272.5Z"/><path class="cls-5" d="M213.86,324.43a8.83,8.83,0,0,1,12.28-4.18,9.63,9.63,0,0,1,3.06,2.29L227.06,327a6,6,0,0,0-2.74-2.48,4.48,4.48,0,1,0-3.9,8.07,5.83,5.83,0,0,0,3.65.62l-2.15,4.44a9.63,9.63,0,0,1-3.68-1C213.39,334.27,211.55,329.22,213.86,324.43Z"/><path class="cls-5" d="M226.88,330.69a9.18,9.18,0,1,1,4.29,12.23A8.9,8.9,0,0,1,226.88,330.69Zm12.23,5.91a4.39,4.39,0,1,0-5.92,2.14A4.38,4.38,0,0,0,239.11,336.6Z"/><path class="cls-5" d="M238.31,353.59c1.48-.54,3.06-1.12,4.47-1.66a2.92,2.92,0,0,0,1.64-1.18,1,1,0,0,0-.45-1.3,1.25,1.25,0,0,0-1.64.81l-2-1.74a3.62,3.62,0,0,1,4.82-1.52,3.45,3.45,0,0,1,1.88,4.56,4.64,4.64,0,0,1-3,2.29c-.47.2-1,.42-1.49.63l2.47,1.2L243.89,358l-6.25-3Z"/><path class="cls-6" d="M39.17,696.35a11.45,11.45,0,0,0-1.62-2.79,14.25,14.25,0,0,1-.95-1.44,8.91,8.91,0,0,1-.72-1.62,14.81,14.81,0,0,1-.6-2.32,11.48,11.48,0,0,1-.12-1.35L29.27,686l4.14-4.4a5.83,5.83,0,0,0-1.7-1.23,5.77,5.77,0,0,0-7.93,7.16l0,0a6.45,6.45,0,0,0,.51,1.1c.35.58.7,1.12,1,1.64a15.34,15.34,0,0,1,1.86,3.38,4.42,4.42,0,0,1,.15.48,12.11,12.11,0,0,1,.32,2.61,14.31,14.31,0,0,0,.3,2.78c.05.2.11.4.17.59a5.84,5.84,0,0,0,11.31-1.41A5.47,5.47,0,0,0,39.17,696.35Z"/><path class="cls-9" d="M32.5,682.63a4.24,4.24,0,0,0-1.37-1A4.34,4.34,0,0,0,24.89,685a4.58,4.58,0,0,0,.22,2.06h0a4.46,4.46,0,0,0,.41.89c.32.54.67,1.07,1,1.57a14.91,14.91,0,0,1,2.18,4.26,12.78,12.78,0,0,1,.37,2.93,13.49,13.49,0,0,0,.27,2.52,4.44,4.44,0,0,0,5.76,3.14,4.46,4.46,0,0,0,3-3.77c.17-1.68-.72-2.9-1.65-4.2-.36-.51-.73-1-1-1.57a13.91,13.91,0,0,1-1.47-4.39,15,15,0,0,1-.16-1.75"/><path class="cls-6" d="M308.13,711a11.45,11.45,0,0,0-1.62-2.79,15.47,15.47,0,0,1-.95-1.44,9.23,9.23,0,0,1-.72-1.62,15.1,15.1,0,0,1-.6-2.32,11.48,11.48,0,0,1-.12-1.35l-5.89-.87,4.14-4.4a5.86,5.86,0,0,0-1.7-1.24,5.78,5.78,0,0,0-7.93,7.17v0a6.5,6.5,0,0,0,.52,1.1c.35.58.7,1.12,1,1.63a15.64,15.64,0,0,1,1.86,3.39,3.37,3.37,0,0,1,.15.48,11.36,11.36,0,0,1,.31,2.6,15.27,15.27,0,0,0,.31,2.79c.05.2.11.39.17.58a5.83,5.83,0,0,0,11.3-1.4A5.3,5.3,0,0,0,308.13,711Z"/><path class="cls-9" d="M301.46,697.26a4.5,4.5,0,0,0-1.37-1,4.37,4.37,0,0,0-3.36-.2,4.31,4.31,0,0,0-2.88,3.58,4.55,4.55,0,0,0,.21,2h0a5.24,5.24,0,0,0,.42.9c.32.54.67,1.06,1,1.57a15,15,0,0,1,2.18,4.25,12.92,12.92,0,0,1,.37,2.93,12.72,12.72,0,0,0,.27,2.53,4.41,4.41,0,0,0,2.17,2.83,4.42,4.42,0,0,0,6.54-3.47c.17-1.67-.72-2.9-1.65-4.19-.36-.51-.73-1-1-1.57a14,14,0,0,1-1.47-4.39,15,15,0,0,1-.16-1.75"/><path class="cls-6" d="M357.77,695.13,366,698a9,9,0,0,0,.77-2.11,8.76,8.76,0,0,0-1.36-6.92,10.21,10.21,0,0,0-13.65-2.67l-.08.05a10.65,10.65,0,0,0-1.61,1.22c-.82.75-1.56,1.51-2.28,2.23a25.44,25.44,0,0,1-4.84,4.16c-.23.15-.48.29-.72.42a20.19,20.19,0,0,1-4.18,1.47,26.08,26.08,0,0,0-4.48,1.53,8.45,8.45,0,0,0-.89.49,9.06,9.06,0,0,0-2.89,12.86,10.25,10.25,0,0,0,9.75,4.14,9.53,9.53,0,0,0,3.78-1.34,18.43,18.43,0,0,0,4-3.57,25.44,25.44,0,0,1,2-2,17.16,17.16,0,0,1,2.38-1.73,24.66,24.66,0,0,1,3.6-1.8,22.68,22.68,0,0,1,2.56-.81c.73-.21,1.48-.43,2.23-.7Z"/><path class="cls-10" d="M363.76,697.21a7,7,0,0,0,.65-1.74,6.67,6.67,0,0,0-1-5.31,7.51,7.51,0,0,0-7.07-3.1,8.18,8.18,0,0,0-3.3,1.11h0a7.77,7.77,0,0,0-1.3,1c-.78.71-1.5,1.45-2.2,2.16a25,25,0,0,1-6.14,5,22.27,22.27,0,0,1-4.69,1.67,24.91,24.91,0,0,0-4.06,1.38,7.07,7.07,0,0,0-3.79,4.43,6.73,6.73,0,0,0,.93,5.7,7.82,7.82,0,0,0,7.42,3.14c2.82-.37,4.49-2.21,6.26-4.14a25.26,25.26,0,0,1,2.18-2.21,23.91,23.91,0,0,1,6.64-3.94,26.66,26.66,0,0,1,2.83-.92c.77-.21,1.54-.43,2.3-.71"/><path class="cls-6" d="M72.53,653l8.2-1.12a8.83,8.83,0,0,0-14.06-7.45,8.39,8.39,0,0,0-2.4,2.72,17,17,0,0,0-1.54,4.66c-.21.9-.4,1.75-.67,2.54a16.55,16.55,0,0,1-1.12,2.45,22.38,22.38,0,0,1-2,3,18,18,0,0,1-1.66,1.76,16.08,16.08,0,0,0-2.95,3.56,8.65,8.65,0,0,0-.72,6.69,8.78,8.78,0,0,0,16.16,1.79l0-.07a9.51,9.51,0,0,0,.74-1.7c.31-1,.56-1.92.81-2.84a23.74,23.74,0,0,1,2-5.53l.39-.65a17.2,17.2,0,0,1,2.66-3c.39-.38.78-.76,1.16-1.16Z"/><path class="cls-11" d="M78.62,652.2a6.84,6.84,0,0,0-3.41-6.46,6.85,6.85,0,0,0-7.29.45c-2.07,1.5-2.57,3.75-3.11,6.12a24.61,24.61,0,0,1-.74,2.77,21.16,21.16,0,0,1-3.51,6.1,22.79,22.79,0,0,1-1.83,2,14,14,0,0,0-2.57,3.06,6.54,6.54,0,0,0-.56,5,6.66,6.66,0,0,0,3.16,4,6.59,6.59,0,0,0,7-.34,7,7,0,0,0,2.12-2.32h0a7.26,7.26,0,0,0,.59-1.37c.3-.93.54-1.85.78-2.74a22.92,22.92,0,0,1,2.63-6.79,20.07,20.07,0,0,1,3-3.37c.42-.4.84-.81,1.25-1.23"/><path class="cls-5" d="M271.74,269.81a6.66,6.66,0,0,1,3.58-9.12,7.35,7.35,0,0,1,2.82-.64l1.5,3.38a4.58,4.58,0,0,0-2.77.38,3.39,3.39,0,1,0,2.75,6.19,4.41,4.41,0,0,0,2.13-1.8l1.51,3.4a7.28,7.28,0,0,1-2.37,1.64A6.64,6.64,0,0,1,271.74,269.81Z"/><path class="cls-5" d="M281.7,265.37a6.94,6.94,0,1,1,9.14,3.49A6.74,6.74,0,0,1,281.7,265.37Zm9.38-4.17a3.32,3.32,0,1,0-1.66,4.46A3.31,3.31,0,0,0,291.08,261.2Z"/><path class="cls-5" d="M300.48,270c.41-1.11.85-2.31,1.22-3.39a2.17,2.17,0,0,0,.13-1.52.75.75,0,0,0-1-.37,1,1,0,0,0-.34,1.34l-2,.31A2.76,2.76,0,0,1,300,262.8a2.64,2.64,0,0,1,3.56,1.15,3.57,3.57,0,0,1-.14,2.84c-.11.36-.25.79-.37,1.17l1.9-.84.79,1.78L301,271Z"/><polygon class="cls-12" points="85.02 301.35 81.41 289.77 89.64 280.86 101.47 283.52 105.08 295.11 96.85 304.02 85.02 301.35"/><line class="cls-12" x1="105.08" y1="295.11" x2="113.67" y2="297.05"/><line class="cls-12" x1="96.85" y1="304.05" x2="99.7" y2="312.38"/><line class="cls-12" x1="84.37" y1="291.05" x2="86.92" y2="299.47"/><line class="cls-12" x1="95.72" y1="301.46" x2="101.65" y2="294.95"/><line class="cls-12" x1="72.83" y1="287.83" x2="81.41" y2="289.77"/><line class="cls-12" x1="90.82" y1="283.19" x2="99.41" y2="285.13"/><polygon class="cls-13" points="318.74 290.07 309.92 288.47 306.89 280.03 312.69 273.2 321.51 274.8 324.53 283.24 318.74 290.07"/><line class="cls-13" x1="311.77" y1="286.97" x2="318.16" y2="288.18"/><line class="cls-13" x1="322.47" y1="283.1" x2="320.23" y2="276.99"/><line class="cls-13" x1="308.83" y1="280.06" x2="313.03" y2="275.1"/><polygon class="cls-13" points="333.35 284.84 324.53 283.24 321.51 274.8 327.3 267.96 336.12 269.56 339.14 278 333.35 284.84"/><line class="cls-13" x1="339.14" y1="278" x2="345.57" y2="278.99"/><line class="cls-13" x1="327.3" y1="267.96" x2="325.6" y2="263.22"/><line class="cls-13" x1="334.59" y1="289.55" x2="332.89" y2="284.81"/><line class="cls-13" x1="335.39" y1="289.26" x2="333.69" y2="284.52"/><path class="cls-14" d="M180,284.6a6.94,6.94,0,0,0-2.5.47V292l-6-4.46c-11.1,5.74-16.68,16.36-16.68,16.36a6.68,6.68,0,0,0,11.09,7.37,63.41,63.41,0,0,1,16.72-12.91,7.62,7.62,0,0,0,.91-.44A7.11,7.11,0,0,0,180,284.6Z"/><line class="cls-15" x1="174.51" y1="285.95" x2="167.77" y2="278.23"/><polygon class="cls-1" points="172.27 277.92 168.56 279.13 166.85 282.65 163.96 273.86 172.27 277.92"/><line class="cls-15" x1="186.76" y1="331.16" x2="196.97" y2="332.08"/><polygon class="cls-1" points="193.93 335.42 195.77 331.97 194.57 328.25 202.74 332.61 193.93 335.42"/><line class="cls-15" x1="253.93" y1="265.02" x2="263.64" y2="268.29"/><polygon class="cls-1" points="259.91 270.83 262.5 267.91 262.2 264.01 269.13 270.14 259.91 270.83"/><path class="cls-14" d="M189.44,345.18a4.33,4.33,0,0,0-.49-.66,44.59,44.59,0,0,1-6.21-12.33l-4.26-.31,3.4-3a4.57,4.57,0,1,0-8.84,2.28c3.86,16,8.94,20,8.94,20a4.76,4.76,0,0,0,2.11,1.2,4.81,4.81,0,0,0,5.35-7.16Z"/><path class="cls-4" d="M318.1,319.25c-3.75,1.2-8.09-.84-10.33-4.86a10.18,10.18,0,0,1-1.15-7,7.44,7.44,0,0,1,3.6-5.09,7.26,7.26,0,0,1,1.25-.54c3.75-1.2,8.09.85,10.32,4.87a10.18,10.18,0,0,1,1.16,7,7.42,7.42,0,0,1-3.61,5.08A6.21,6.21,0,0,1,318.1,319.25Z"/><path class="cls-4" d="M339.67,325.46c-2,3.38-6.63,4.71-11,3.17a10.13,10.13,0,0,1-5.51-4.51,7.37,7.37,0,0,1-.66-6.19,6.28,6.28,0,0,1,.58-1.23c2-3.38,6.63-4.72,11-3.18a10.21,10.21,0,0,1,5.51,4.51,7.43,7.43,0,0,1,.66,6.2A6.91,6.91,0,0,1,339.67,325.46Z"/><path class="cls-4" d="M301.46,293.74l3-6a8.12,8.12,0,0,0-8-.47,6.45,6.45,0,0,0-.82.54,7.15,7.15,0,0,0-2.69,5.51,10.55,10.55,0,0,0,2.29,6.84c2.93,3.82,7.75,5.25,11.21,3.34a6.56,6.56,0,0,0,.83-.54,7.12,7.12,0,0,0,2.68-5.5,10.25,10.25,0,0,0-1.24-5.24Z"/><path class="cls-14" d="M365.88,260.31a5.09,5.09,0,0,0-2,3l4.1,4.42-4.7.93A44.8,44.8,0,0,1,359.21,282a4.9,4.9,0,1,0,8.63,4.55c7.68-15.86,6.16-22.6,6.16-22.6a5.14,5.14,0,0,0-8.12-3.62Z"/><path class="cls-14" d="M253.33,268.64l-4.11-6.58,7.08.36c.19-.36.36-.71.56-1.08a7.15,7.15,0,0,0-5.93-11.13A7.16,7.16,0,0,0,244.6,254a87.08,87.08,0,0,0-10,31.13h0c0,.27,0,.54,0,.81a7.15,7.15,0,0,0,14.3,0S248.71,279.52,253.33,268.64Z"/><path class="cls-14" d="M202.32,265.51c-7.87-14.45-13.81-17-13.81-17a4.81,4.81,0,0,0-7.16,4.19,4.75,4.75,0,0,0,1.5,3.49l.13.11L187.6,255l-.77,4.83a41.62,41.62,0,0,1,7.34,9.79,4.57,4.57,0,1,0,8.15-4.07Z"/><path class="cls-14" d="M285.71,337.73,281,333l6.37-.34c.31-.78.51-1.22.51-1.22a6,6,0,1,0-10.9-5c-8.25,20-5.9,28.12-5.9,28.12a6.19,6.19,0,0,0,1.31,2.91A6.31,6.31,0,0,0,283.62,354a5.68,5.68,0,0,0,0-1.09A58.41,58.41,0,0,1,285.71,337.73Z"/><path class="cls-4" d="M84.11,327.23c.89-3.41,4.53-5.72,8.64-5.48a9.11,9.11,0,0,1,5.88,2.49,6.64,6.64,0,0,1,2.12,5.17,6.12,6.12,0,0,1-.19,1.2c-.89,3.42-4.52,5.73-8.64,5.49a9.15,9.15,0,0,1-5.87-2.5,6.6,6.6,0,0,1-2.12-5.16A6.09,6.09,0,0,1,84.11,327.23Z"/><path class="cls-4" d="M69.07,340.6c-1.6-3.16-.39-7.29,2.85-9.83a9.16,9.16,0,0,1,6.06-2,6.64,6.64,0,0,1,5,2.47,6.15,6.15,0,0,1,.65,1c1.6,3.15.39,7.28-2.85,9.83a9.16,9.16,0,0,1-6.06,2,6.65,6.65,0,0,1-5-2.48A6.07,6.07,0,0,1,69.07,340.6Z"/><path class="cls-4" d="M54.68,351.6c-1.3-3.28.27-7.29,3.74-9.52a9.16,9.16,0,0,1,6.22-1.46,6.69,6.69,0,0,1,4.76,2.92,6.93,6.93,0,0,1,.56,1.08c1.29,3.29-.28,7.3-3.75,9.53A9.07,9.07,0,0,1,60,355.6a6.59,6.59,0,0,1-4.76-2.92A5.81,5.81,0,0,1,54.68,351.6Z"/><path class="cls-4" d="M36.34,353c0-3.53,3-6.64,7.06-7.4a9.15,9.15,0,0,1,6.31,1,6.68,6.68,0,0,1,3.3,4.5,7.19,7.19,0,0,1,.11,1.22c0,3.53-3,6.64-7.07,7.4a9.15,9.15,0,0,1-6.31-1,6.64,6.64,0,0,1-3.3-4.5A5.53,5.53,0,0,1,36.34,353Z"/><path class="cls-4" d="M111.24,326.09l4.66,5.06a6.9,6.9,0,0,0,2.83-5,6.06,6.06,0,0,0-2.9-5.55,9.43,9.43,0,0,0-6.28-1.56c-4.3.39-7.7,3.36-7.91,6.9a5.17,5.17,0,0,0,0,.88,6.4,6.4,0,0,0,2.88,4.67,9,9,0,0,0,4.29,1.53Z"/><path class="cls-16" d="M96.55,648.15a7.72,7.72,0,0,1,9.77-5.63,7.86,7.86,0,0,1,3.18,1.63l-.89,3.43a5.34,5.34,0,0,0-3-2,4.78,4.78,0,0,0-2.48,9.24,5.27,5.27,0,0,0,3.61-.17l-1,3.44a8.3,8.3,0,0,1-3.57-.21A7.72,7.72,0,0,1,96.55,648.15Z"/><path class="cls-16" d="M123.77,647.48l-4,14.89-3.13-.84,1.6-5.93-5.68-1.53L111,660l-3.12-.84,4-14.9,3.12.84-1.59,5.94,5.68,1.52,1.6-5.93Z"/><path class="cls-16" d="M126.68,668.82a3.06,3.06,0,0,1-3.85,2.11,3.2,3.2,0,0,1-2.48-3.1l1.83-.36a1.64,1.64,0,0,0,1.11,1.65,1.28,1.28,0,1,0,.66-2.47,2,2,0,0,0-1.15.05l-.51-1.11,0,0L125,664l-2.89-.78.48-1.78,5.1,1.37-.42,1.53-2,1.22A2.84,2.84,0,0,1,126.68,668.82Z"/><path class="cls-16" d="M145.68,653.36l-4,14.9-3.13-.84,1.6-5.94L134.46,660l-1.59,5.94-3.13-.84,4-14.89,3.13.84-1.59,5.93,5.68,1.53,1.59-5.94Z"/><path class="cls-16" d="M154.85,671.18c-.88,3.25-3.86,4.35-6.76,3.57a9.51,9.51,0,0,1-3.82-2.08l.8-2.89a6.89,6.89,0,0,0,3.22,2.12,2.69,2.69,0,0,0,3.67-2l.08-.3a4.19,4.19,0,0,1-3.62.67c-2.92-.79-4.14-3.71-3.31-6.78s3.34-5,6.25-4.18a4.17,4.17,0,0,1,2.77,2.34l.36-1.32,3,.82Zm-1.79-5.59a2.51,2.51,0,0,0-1.71-3.15,2.6,2.6,0,0,0-1.34,5A2.5,2.5,0,0,0,153.06,665.59Z"/><path class="cls-16" d="M163.94,663.28l-1.69-.45-.47,1.72-1.4-.38.47-1.72-1.67-.45.37-1.36,1.66.44.45-1.67,1.4.38-.45,1.67,1.7.46Z"/><path class="cls-16" d="M178.77,670.17l-.4,1.51-8.77,2.57.79-2.93,5-1.21-3.72-3.54.8-3Z"/><path class="cls-16" d="M201.75,668.43l-4,14.89-3.13-.84,1.6-5.94L190.53,675,188.94,681l-3.13-.84,4-14.89,3.13.84L191.35,672l5.68,1.52,1.59-5.94Z"/><path class="cls-16" d="M210.92,686.24c-.88,3.26-3.86,4.35-6.76,3.57a9.45,9.45,0,0,1-3.82-2.08l.8-2.88a7,7,0,0,0,3.22,2.11,2.69,2.69,0,0,0,3.67-2l.08-.3a4.19,4.19,0,0,1-3.62.67c-2.92-.78-4.14-3.71-3.32-6.78s3.35-5,6.26-4.18a4.17,4.17,0,0,1,2.77,2.34l.36-1.32,3,.82Zm-1.79-5.59a2.51,2.51,0,0,0-1.71-3.15,2.6,2.6,0,0,0-1.35,5A2.51,2.51,0,0,0,209.13,680.65Z"/><path class="cls-16" d="M215.6,675.87c.65-2.43,2-4.26,4.22-3.67s2.45,2.86,1.8,5.28-2,4.26-4.21,3.67S214.94,678.32,215.6,675.87Zm4.18,1.12c.39-1.44.43-2.69-.47-2.93s-1.49.86-1.87,2.3-.46,2.69.46,2.93S219.39,678.44,219.78,677Z"/><path class="cls-1" d="M133.06,702.07s1.08-2.54-.08-3.58-3.17,2-3.17,2l-6.67.63c3.81-1.39,3.71-5.84,3.71-5.84s3.42-1.2,5-5.83c3.55-10.42-9.2-14-9.2-14s-12.28-4.94-15.83,5.48c-1.58,4.63.4,7.67.4,7.67s-2.79,3.46-.62,6.89L101.7,691s.28-3.67-1.27-3.55-2.24,2.78-2.24,2.78-2.19-.2-2.4,1.66,3.66,1.9,3.66,1.9l6.73,6.49-.4,1.15-5.13,1.16-2.8-.95c-1.35-.46-2.18-.53-2.7,0s1.21,2.45,1.21,2.45-1.83,3.15-.09,3.74a1.8,1.8,0,0,0,2.33-1.14,5,5,0,0,1,2.16-1l5-.87s.18,3.08,5.22,4.8,7.07-.61,7.07-.61l3.46,3.76a5.12,5.12,0,0,1,1.11,2.1,1.8,1.8,0,0,0,1.15,2.33c1.73.59,2.21-3,2.21-3s2.51-.43,2.45-1.2-.76-1.24-2.11-1.7l-2.8-.95-3.36-4.05.4-1.15,9.28-1s3.08,2.34,4.06.73S133.06,702.07,133.06,702.07Zm-22.3-7.27c-3.33-1.51-1.65-5.19-1.65-5.19s.39-1.19,3.31-.71,3.26,1.49,3.26,1.49a1.45,1.45,0,0,1,.07,1.21S114.09,696.31,110.76,694.8Zm3.57,5.26s-.9,1.74-1.52-.17,3-4.16,2.7-3.28Zm1.86,1c-1.67,1.14-1.32-.8-1.32-.8l1.18-3.45C116.35,695.91,117.85,699.91,116.19,701Zm4.77-2.77c-3.56-.83-2-5.58-2-5.58s.23-.75.8-.91c0,0,.83-.61,3.49.81s2.19,2.58,2.19,2.58S124.53,699.11,121,698.27Z"/><path class="cls-6" d="M205,712.07a16.58,16.58,0,1,1-12.46-19.85A16.57,16.57,0,0,1,205,712.07Z"/><path class="cls-1" d="M187.7,703.7c-.48,2.1-1.67,3.62-2.65,3.39s-1.38-2.1-.9-4.2,1.66-3.62,2.64-3.4S188.18,701.6,187.7,703.7Z"/><path class="cls-1" d="M195.51,705.48c-.48,2.1-1.66,3.63-2.64,3.4s-1.38-2.11-.9-4.21,1.66-3.62,2.64-3.39S196,703.38,195.51,705.48Z"/><path class="cls-17" d="M198.34,713c-1.11,4.82-6.47,7.7-12,6.44s-9.1-6.19-8-11"/><path class="cls-16" d="M188.26,611.3A9.34,9.34,0,0,1,200.14,601l.61,4.08a6.07,6.07,0,0,0-4.1-.68,5.56,5.56,0,0,0,1.59,11,5.89,5.89,0,0,0,3.73-1.85l.57,4.12a9.71,9.71,0,0,1-3.87,1.43A8.92,8.92,0,0,1,188.26,611.3Z"/><path class="cls-16" d="M210.28,603.87l.61,4.21c-1.66-.12-3.49.51-3.11,3.12l.88,6.14-3.61.54-1.83-12.68,3.61-.54.27,1.91A4.31,4.31,0,0,1,210.28,603.87Z"/><path class="cls-16" d="M216.84,603.69l-2,.29.3,2.06-1.66.24-.29-2-2,.29-.23-1.63,2-.29-.29-2,1.66-.25.29,2,2-.3Z"/><path class="cls-16" d="M225.09,602.81a3.62,3.62,0,0,1-7.16,1h0a8.89,8.89,0,0,1,.75-3.92c.35-1.12.73-2.17,1.12-3.41l2.34-.34-1.28,3.67.13,0A3.47,3.47,0,0,1,225.09,602.81Zm-2.13.24a1.48,1.48,0,1,0-1.26,1.7A1.48,1.48,0,0,0,223,603.05Z"/><path class="cls-16" d="M243.87,603l.27,1.8-8.1,6.8-.51-3.5,4.74-3.6-5.55-2.06-.52-3.57Z"/><path class="cls-16" d="M254.07,601.54A9,9,0,0,1,261.83,591a9.17,9.17,0,0,1,4.12.27l.62,4.08a6.11,6.11,0,0,0-4.11-.69,5.56,5.56,0,0,0,1.59,11,6,6,0,0,0,3.74-1.85l.57,4.11a9.62,9.62,0,0,1-3.87,1.43A8.92,8.92,0,0,1,254.07,601.54Z"/><path class="cls-16" d="M276.09,594.1l.61,4.21c-1.66-.12-3.49.52-3.11,3.13l.88,6.14-3.61.53L269,595.43l3.61-.53.28,1.9A4.31,4.31,0,0,1,276.09,594.1Z"/><path class="cls-16" d="M282.66,593.92l-2,.3.3,2-1.66.25-.29-2.06-2,.3-.24-1.63,2-.29-.28-2,1.65-.24.29,2,2-.29Z"/><path class="cls-16" d="M291,593.09a3.56,3.56,0,0,1-3.11,4,3.67,3.67,0,0,1-4-2.17l1.76-1.22a1.91,1.91,0,0,0,1.93,1.24,1.49,1.49,0,0,0,1.28-1.72,1.46,1.46,0,0,0-1.7-1.22,2.34,2.34,0,0,0-1.2.58l-1-1,0,0L287,588.7l-3.41.5-.31-2.12,6-.89.27,1.83L288,590.26A3.27,3.27,0,0,1,291,593.09Z"/><path class="cls-1" d="M230.48,639.17s-.27-2.54-1.66-2.85-1.61,3.08-1.61,3.08l-5,3.54c2.42-2.85.34-6.39.34-6.39a8.56,8.56,0,0,0,1.37-7c-1.84-10-13.6-7.11-13.6-7.11s-12,1.6-10.17,11.6a8.49,8.49,0,0,0,3.76,6s-.68,4.06,2.59,5.83l-6-1.46s-1.42-3.08-2.6-2.28-.54,3.26-.54,3.26-1.84.83-1.17,2.42,3.77-.14,3.77-.14l8.27,2.18.21,1.11-3.58,3.26-2.65.5c-1.29.24-2,.57-2.14,1.27s2.06,1.43,2.06,1.43,0,3.36,1.61,3a1.65,1.65,0,0,0,1.34-2,4.73,4.73,0,0,1,1.29-1.78l3.62-3s1.53,2.39,6.32,1.49,5.36-3.69,5.36-3.69l4.44,1.46a4.74,4.74,0,0,1,1.83,1.18,1.65,1.65,0,0,0,2,1.36c1.65-.31.41-3.43.41-3.43s1.81-1.49,1.42-2.09-1.16-.64-2.45-.4l-2.66.5-4.49-1.73-.2-1.12,6.94-5s3.5.49,3.56-1.25S230.48,639.17,230.48,639.17Zm-21,4.25c-3.34.3-3.65-3.42-3.65-3.42s-.22-1.14,2.33-2.07,3.27-.28,3.27-.28c.49.22.6.94.6.94S212.78,643.13,209.45,643.42Zm5.2,2.62s.07,1.81-1.29.56.53-4.72.68-3.87Zm1.92,0c-.81,1.67-1.4,0-1.4,0l-.61-3.31C214.4,641.79,217.39,644.33,216.57,646Zm2.57-4.39c-3.21.94-4.1-3.59-4.1-3.59a1.37,1.37,0,0,1,.23-1.1s.39-.87,3.15-.93,2.9,1.09,2.9,1.09S222.36,640.65,219.14,641.6Z"/><path class="cls-6" d="M294.16,624.05a15.35,15.35,0,0,1-11.1,18.55,15.14,15.14,0,0,1-18.35-11.2,15.34,15.34,0,0,1,11.1-18.54A15.14,15.14,0,0,1,294.16,624.05Z"/><path class="cls-1" d="M276.55,624.36c.47,1.93.13,3.67-.77,3.9s-2-1.17-2.46-3.1-.13-3.68.76-3.9S276.08,622.42,276.55,624.36Z"/><path class="cls-1" d="M283.67,622.58c.47,1.93.13,3.68-.76,3.9s-2-1.16-2.47-3.1-.13-3.67.76-3.9S283.2,620.65,283.67,622.58Z"/><path class="cls-18" d="M289.06,627.58c1.08,4.44-2.12,9-7.15,10.31s-10-1.33-11.06-5.76"/><path class="cls-14" d="M158.47,607.32l8.4,1c.1-.15.21-.29.3-.45a8.15,8.15,0,0,0-14.06-8.23s-5.12,9.36-22,19.61a8,8,0,0,0-3.48,3.22,8.14,8.14,0,0,0,11.32,11A96.61,96.61,0,0,0,162,614.35Z"/><path class="cls-14" d="M243.46,701.4l2.22-4.35c-.84-1.16-1.42-1.81-1.42-1.81a5.42,5.42,0,0,0-8.73,6.35,51.82,51.82,0,0,1,5.1,16.33,5.55,5.55,0,0,0,.07.82,5.76,5.76,0,0,0,11.09,1.08,5.66,5.66,0,0,0,.34-2.49A29.7,29.7,0,0,0,249,702.65Z"/><path class="cls-4" d="M68.54,619.74c-2.88.92-6.21-.65-7.92-3.73a7.78,7.78,0,0,1-.88-5.38,5.64,5.64,0,0,1,2.76-3.9,5.38,5.38,0,0,1,1-.42c2.88-.92,6.21.65,7.92,3.73a7.82,7.82,0,0,1,.88,5.39,5.46,5.46,0,0,1-3.71,4.31Z"/><path class="cls-4" d="M85.07,624.49c-1.55,2.6-5.08,3.62-8.4,2.44a7.82,7.82,0,0,1-4.23-3.46,5.72,5.72,0,0,1-.5-4.75,5.37,5.37,0,0,1,.44-.94c1.55-2.59,5.09-3.62,8.41-2.43A7.82,7.82,0,0,1,85,618.8a5.69,5.69,0,0,1,.51,4.75A5.08,5.08,0,0,1,85.07,624.49Z"/><path class="cls-4" d="M60.55,597.77c-2.25-2.92-5.94-4-8.6-2.56a5.31,5.31,0,0,0-.63.42,5.5,5.5,0,0,0-2.06,4.22,7.75,7.75,0,0,0,.12,1.59h4.85l-1.87,5c2.21,1.84,5.07,2.39,7.25,1.19a4.31,4.31,0,0,0,.63-.42A5.47,5.47,0,0,0,62.3,603,8.09,8.09,0,0,0,60.55,597.77Z"/><path class="cls-14" d="M338.49,603.76a7,7,0,0,0-14-.26l5.81,4.12-6.51,1.56a66.78,66.78,0,0,1-7.18,18.34,6.79,6.79,0,0,0-1.19,3.84,7,7,0,0,0,7,6.9,7.06,7.06,0,0,0,6.23-3.68,82.9,82.9,0,0,0,9.85-30h0A6.79,6.79,0,0,0,338.49,603.76Z"/><path class="cls-14" d="M266.6,652a4.86,4.86,0,0,0-2.06,1.9l2.39,4.12-3.61.14a46.65,46.65,0,0,1-6.68,15.17,5.4,5.4,0,0,0-.7,5.84,5.13,5.13,0,0,0,6.72,2.72,4.66,4.66,0,0,0,2-1.84c10.11-15,9.58-22.42,9.58-22.42a6,6,0,0,0-.57-2.77A5.38,5.38,0,0,0,266.6,652Z"/><path class="cls-4" d="M323.15,673.1c-.95,3.66-4.85,6.14-9.26,5.88a9.81,9.81,0,0,1-6.3-2.67,7.13,7.13,0,0,1-2.27-5.54,6.19,6.19,0,0,1,.2-1.29c1-3.66,4.85-6.14,9.26-5.88a9.78,9.78,0,0,1,6.29,2.67,7.12,7.12,0,0,1,2.28,5.54A6.19,6.19,0,0,1,323.15,673.1Z"/><path class="cls-4" d="M339.27,658.78c1.71,3.38.42,7.81-3.06,10.53a9.77,9.77,0,0,1-6.49,2.16,7.12,7.12,0,0,1-5.37-2.66,6,6,0,0,1-.7-1.1c-1.71-3.38-.42-7.8,3.06-10.53a9.79,9.79,0,0,1,6.5-2.15,7.09,7.09,0,0,1,5.36,2.65A6,6,0,0,1,339.27,658.78Z"/><path class="cls-4" d="M354.69,647c1.4,3.52-.29,7.82-4,10.21a9.79,9.79,0,0,1-6.67,1.56,7.1,7.1,0,0,1-5.1-3.13,6.72,6.72,0,0,1-.6-1.16c-1.39-3.52.3-7.81,4-10.21a9.75,9.75,0,0,1,6.66-1.56,7.2,7.2,0,0,1,5.11,3.13A7.44,7.44,0,0,1,354.69,647Z"/><path class="cls-4" d="M374.35,645.47c0,3.79-3.23,7.12-7.57,7.93a9.78,9.78,0,0,1-6.76-1.08,7.16,7.16,0,0,1-3.54-4.83,6.28,6.28,0,0,1-.11-1.3c.05-3.78,3.23-7.12,7.57-7.93a9.83,9.83,0,0,1,6.76,1.08,7.13,7.13,0,0,1,3.54,4.83A6.34,6.34,0,0,1,374.35,645.47Z"/><path class="cls-4" d="M304.35,673.5a6.85,6.85,0,0,0-3.09-5,10.16,10.16,0,0,0-6.74-1.68,9.83,9.83,0,0,0-7.38,4.17l5.35,3.34-5.74,3.16a7.52,7.52,0,0,0,2.4,2.68,10.21,10.21,0,0,0,6.74,1.67c4.6-.42,8.24-3.6,8.47-7.39A6,6,0,0,0,304.35,673.5Z"/><path class="cls-14" d="M82.29,708.94l.75-4.72A69.34,69.34,0,0,0,64.72,692v0a5.71,5.71,0,0,0-.58-.21,5.49,5.49,0,1,0-3.27,10.48s6.93,1.94,16.24,11.49a5.49,5.49,0,0,0,9.12-6Z"/><path class="cls-5" d="M137.59,365.57a31,31,0,0,0-6.6,8.22,27,27,0,0,0-2,4.83,33.21,33.21,0,0,0-1,5.13,48,48,0,0,0-.27,5.23l.1,5.32a26,26,0,0,0,.5,5.07,9.8,9.8,0,0,0,2,4.19,12.15,12.15,0,0,0,3.72,2.89,17.21,17.21,0,0,0,4.74,1.43c3.36.63,7,.7,10.68,2a16.48,16.48,0,0,1,5,2.88,30.34,30.34,0,0,1,3.85,4,47,47,0,0,0,3.42,3.89,15.45,15.45,0,0,0,4,2.84c3,1.47,6.46,2.26,9.9,3.47a24.06,24.06,0,0,1,5.11,2.38,12.11,12.11,0,0,1,2.29,1.9,12.42,12.42,0,0,1,1.74,2.44,10.82,10.82,0,0,1,1.46,5.83,9.28,9.28,0,0,1-2.57,5.54,18.09,18.09,0,0,1-4.59,3.44,34.42,34.42,0,0,1-5.06,2.25,44.39,44.39,0,0,1-5.29,1.56c-1.82.38-3.59.59-5.3.89a17.76,17.76,0,0,0-4.73,1.36,15.74,15.74,0,0,0-3.81,2.85,1.89,1.89,0,0,0-.39.64c0,.15,0,.16.06.33a4.73,4.73,0,0,0,1.48,1.32c1.39.9,3,1.74,4.55,2.67a23.77,23.77,0,0,1,8.21,7.61,12.31,12.31,0,0,1,1.91,5.58,10.81,10.81,0,0,1-1.18,5.86,14.81,14.81,0,0,1-3.67,4.5,23.83,23.83,0,0,1-4.7,3.09,49.19,49.19,0,0,1-10.29,3.73,86.84,86.84,0,0,1-10.65,1.92c-7.13.89-14.25,1.24-21.31,1.79-3.52.29-7.08.61-10.5,1.11s-6.72,1.53-8.19,4.17a16.29,16.29,0,0,0-1.61,4.63c-.4,1.7-.8,3.49-1.36,5.26a24.25,24.25,0,0,1-1,2.67,12.36,12.36,0,0,1-1.63,2.48c-1.25,1.49-2.57,2.63-3.6,3.91a14.85,14.85,0,0,0-2.45,4.26A43,43,0,0,1,86.42,530a11.68,11.68,0,0,1-1.76,2.42,15.09,15.09,0,0,1-2.23,1.9A31.28,31.28,0,0,1,77.6,537,33.52,33.52,0,0,0,73,539.32a4.76,4.76,0,0,0-2.43,3.47,9.25,9.25,0,0,0,1.09,4.64,12.65,12.65,0,0,0,3.09,3.94c1.27,1.2,2.67,2.32,3.91,3.69a10,10,0,0,1,2.58,4.86,9.48,9.48,0,0,1-.61,5.38c-.64,1.68-1.55,3.22-2.24,4.86.58-1.69,1.37-3.3,1.89-5a9,9,0,0,0,.23-5.09,9.14,9.14,0,0,0-2.63-4.29c-1.23-1.2-2.67-2.23-4.06-3.39a14.33,14.33,0,0,1-3.69-4.21,11,11,0,0,1-1.58-5.55,6,6,0,0,1,1-3,9.05,9.05,0,0,1,2.11-2.2,36,36,0,0,1,4.76-2.82c3.11-1.63,6.24-3.09,7.68-5.92a43.51,43.51,0,0,0,2-4.75,22.89,22.89,0,0,1,1.21-2.57A18.12,18.12,0,0,1,89,519c1.21-1.49,2.6-2.69,3.62-3.93a9.48,9.48,0,0,0,1.29-2,19.9,19.9,0,0,0,.88-2.31c.52-1.62.9-3.31,1.31-5.06A18.9,18.9,0,0,1,98,500.34a9.67,9.67,0,0,1,4.58-3.92c.45-.22.91-.35,1.36-.52a8.59,8.59,0,0,1,1.37-.41l1.37-.34,1.37-.23c3.61-.53,7.14-.84,10.71-1.13,7.11-.56,14.2-.91,21.19-1.79a83,83,0,0,0,10.33-1.86,46.55,46.55,0,0,0,9.72-3.51c3-1.54,5.76-3.65,7.22-6.43a8.74,8.74,0,0,0-.63-8.84,21.3,21.3,0,0,0-7.31-6.71c-1.49-.91-3-1.7-4.65-2.74a7,7,0,0,1-2.37-2.29,3.06,3.06,0,0,1-.28-2.25,4.44,4.44,0,0,1,.91-1.66,12.07,12.07,0,0,1,2.24-2c.38-.28.77-.53,1.16-.78l.59-.38.67-.37a20,20,0,0,1,5.48-1.61c1.79-.32,3.56-.53,5.21-.87a42.6,42.6,0,0,0,4.94-1.47c3.21-1.17,6.41-2.69,8.59-5a6.49,6.49,0,0,0,1.87-3.93,8.11,8.11,0,0,0-1.14-4.35c-1.42-2.84-4.42-4.35-7.68-5.49s-6.79-1.93-10.2-3.6a18.36,18.36,0,0,1-4.67-3.3,50.36,50.36,0,0,1-3.62-4.12,27.16,27.16,0,0,0-3.49-3.67,14.22,14.22,0,0,0-4.19-2.42c-3.09-1.09-6.66-1.2-10.27-1.85a22.13,22.13,0,0,1-5.44-1.63,13,13,0,0,1-4.62-3.63,11.94,11.94,0,0,1-2.3-5.42,27.45,27.45,0,0,1-.23-5.55l.22-5.35a51.65,51.65,0,0,1,.6-5.39,34.18,34.18,0,0,1,1.37-5.26,26.78,26.78,0,0,1,2.36-4.88A31.36,31.36,0,0,1,137.59,365.57Z"/><path class="cls-5" d="M276.53,373.75a17.5,17.5,0,0,0-3.34,6.71,12,12,0,0,0,.77,7.18,44.54,44.54,0,0,0,3.59,6.59,75.17,75.17,0,0,1,3.87,6.76A15,15,0,0,1,283,409.1c-.37,2.9-1.73,5.28-2.66,7.54a18.52,18.52,0,0,0-1.14,3.36,10.35,10.35,0,0,0-.11,3.38c.27,2.31,1.24,4.66,1.86,7.27a17.33,17.33,0,0,1,.52,4.11,12.14,12.14,0,0,1-.8,4.21,20.74,20.74,0,0,1-4.65,6.66,36,36,0,0,0-4.8,5.55,7.09,7.09,0,0,0-1.07,3,7.42,7.42,0,0,0,.46,3.19,92.94,92.94,0,0,0,6.55,13.51,44.69,44.69,0,0,0,4.3,6.06,23.74,23.74,0,0,0,5.38,4.81,15.31,15.31,0,0,0,1.54.84c.54.21,1.05.48,1.61.64a19,19,0,0,0,3.51.71c2.43.28,5,.27,7.6.51a29.14,29.14,0,0,1,4,.61,19.52,19.52,0,0,1,3.85,1.35,31,31,0,0,1,6.71,4.34,43.18,43.18,0,0,1,5.55,5.6c1.61,2.09,3.3,4.23,4.09,7.06a8.56,8.56,0,0,1,.33,2.21,6.1,6.1,0,0,1,0,1.13l-.2,1.12a13,13,0,0,1-1.8,3.84,35.65,35.65,0,0,0-3.86,6.3c-.24.53-.36,1.09-.55,1.63s-.19,1.14-.3,1.7a4.61,4.61,0,0,0,.65,2.86c1.12,1.84,3.26,3.57,4.72,6a13,13,0,0,1,1.6,3.94,13.13,13.13,0,0,1,.18,4.23c-.15,1.38-.47,2.67-.73,3.92s-.53,2.45-.73,3.62a9.89,9.89,0,0,0-.08,3.38,8,8,0,0,0,1.25,3.11,20.76,20.76,0,0,0,5.31,5,44.33,44.33,0,0,1,6,4.81,9,9,0,0,1,2.07,3.33,6.94,6.94,0,0,1,.11,3.83,6.76,6.76,0,0,0-.46-3.7,8.43,8.43,0,0,0-2.24-2.92,47,47,0,0,0-6.3-4.2,22.37,22.37,0,0,1-6.18-5,10.2,10.2,0,0,1-1.91-3.79,12.68,12.68,0,0,1-.26-4.23c.27-2.73,1.23-5.15,1.45-7.49a9.76,9.76,0,0,0-1.41-6.49,20,20,0,0,0-2.19-2.83,21.94,21.94,0,0,1-2.54-3.2,7.28,7.28,0,0,1-1-4.48c.12-.69.21-1.39.37-2.07a19.32,19.32,0,0,1,.66-2,37.56,37.56,0,0,1,4.09-6.75,10.19,10.19,0,0,0,1.46-3l.14-.76a5.06,5.06,0,0,0,0-.78,6.23,6.23,0,0,0-.24-1.57,18.49,18.49,0,0,0-3.57-6.06,41.1,41.1,0,0,0-5.21-5.26,28.47,28.47,0,0,0-6.12-4,17.8,17.8,0,0,0-3.35-1.18,27.7,27.7,0,0,0-3.59-.55c-2.46-.22-5-.21-7.67-.52a20.93,20.93,0,0,1-4-.81c-.66-.19-1.3-.51-1.95-.76a16.63,16.63,0,0,1-1.81-1,26.53,26.53,0,0,1-6-5.35,46.65,46.65,0,0,1-4.56-6.41c-1.34-2.23-2.55-4.52-3.67-6.86-.56-1.16-1.1-2.34-1.61-3.52l-.77-1.78c-.24-.6-.49-1.14-.73-1.84a10,10,0,0,1-.6-4.34,9.7,9.7,0,0,1,1.43-4.13,36.82,36.82,0,0,1,5.16-6,18,18,0,0,0,4.09-5.78,11,11,0,0,0,.18-6.74c-.54-2.35-1.56-4.77-1.92-7.56a13.09,13.09,0,0,1,.15-4.23,21.8,21.8,0,0,1,1.29-3.88c1-2.43,2.22-4.61,2.47-6.83a9,9,0,0,0-.22-3.33,13.23,13.23,0,0,0-.52-1.66c-.24-.57-.45-1.14-.67-1.72-.9-2.29-2-4.54-3.19-6.82a45.71,45.71,0,0,1-3.14-7.13,13.11,13.11,0,0,1-.19-7.84A18.05,18.05,0,0,1,276.53,373.75Z"/><path class="cls-5" d="M272.05,379a12.75,12.75,0,0,1-2.86,4.25,25.1,25.1,0,0,1-4.11,3.16c-2.9,1.85-6,3.36-8.71,5.16a26.52,26.52,0,0,0-3.91,2.75,16.09,16.09,0,0,0-3,3.58,21.53,21.53,0,0,0-2.89,9,58.36,58.36,0,0,0-.1,9.9,43.35,43.35,0,0,1-.26,10.46,13.85,13.85,0,0,1-2.09,5.16,16.31,16.31,0,0,1-3.84,3.93,52,52,0,0,1-9.13,5c-3.07,1.44-6.17,2.85-9.36,4.12-1.6.62-3.22,1.21-4.87,1.72-.83.26-1.66.5-2.51.72-.42.11-.84.21-1.27.3l-.63.15a5.43,5.43,0,0,1-.85.1,23.64,23.64,0,0,1-2.7-.16,9.32,9.32,0,0,0-2.19,0,2.21,2.21,0,0,0-1.41.73,9,9,0,0,0-.59.89L204.1,451a44.06,44.06,0,0,0-4.45,8.76,20.92,20.92,0,0,0-1.06,4.64,17.54,17.54,0,0,0,.18,4.69l.23,1.16.29,1.25.55,2.5c.34,1.69.65,3.39.87,5.13a31.61,31.61,0,0,1-.07,5.24c-.08.87-.19,1.72-.31,2.58a9.8,9.8,0,0,1-.81,2.62,7.67,7.67,0,0,0-.65,2.26,3.05,3.05,0,0,0,0,1.09,3.74,3.74,0,0,0,.44,1.05,6.11,6.11,0,0,1,1.06,2.4,3.48,3.48,0,0,1-.94,2.39,3.29,3.29,0,0,0,.55-2.33,5.71,5.71,0,0,0-1.33-2,4.92,4.92,0,0,1-.7-1.21,4.26,4.26,0,0,1-.21-1.42,9.21,9.21,0,0,1,.39-2.69,8.56,8.56,0,0,0,.4-2.29c0-.83,0-1.66,0-2.48-.06-1.65-.29-3.27-.51-4.89a43.56,43.56,0,0,0-.77-4.89l-.54-2.44-.29-1.23-.26-1.32a20.1,20.1,0,0,1-.2-5.42,23.52,23.52,0,0,1,1.19-5.23,46.62,46.62,0,0,1,4.7-9.3l.68-1.1a10.42,10.42,0,0,1,.82-1.2,4.87,4.87,0,0,1,3-1.61,11.14,11.14,0,0,1,2.87-.05c.87.07,1.71.17,2.37.15l.41,0,.59-.13,1.2-.29c.8-.2,1.59-.44,2.37-.68,1.58-.49,3.14-1.06,4.69-1.66,3.1-1.23,6.16-2.62,9.21-4a49.75,49.75,0,0,0,8.66-4.71,13.58,13.58,0,0,0,3.23-3.28,11.1,11.1,0,0,0,1.68-4.19,40.72,40.72,0,0,0,.22-9.78,60.85,60.85,0,0,1,.12-10.36,24.2,24.2,0,0,1,3.26-10.13,18.91,18.91,0,0,1,3.5-4.16,20,20,0,0,1,4.38-3.07c3.13-1.54,6.33-2.65,9.34-4.08a24.5,24.5,0,0,0,4.29-2.52A12.18,12.18,0,0,0,272.05,379Z"/><path class="cls-5" d="M271.15,462.28a9.3,9.3,0,0,1,2.34,2.88,4,4,0,0,1-.26,3.83,9.62,9.62,0,0,1-2.75,2.72,28,28,0,0,1-3.23,1.92c-2.24,1-4.55,1.88-6.66,2.94a9.37,9.37,0,0,0-2.77,1.87,9.07,9.07,0,0,0-1.93,2.7,6.1,6.1,0,0,0-.54,3.12,10.77,10.77,0,0,0,.94,3.21c1,2.12,2.36,4.13,3.47,6.41a13,13,0,0,1,1.23,3.71,7.76,7.76,0,0,1-.45,4,11.94,11.94,0,0,1-2.12,3.29c-.79.95-1.61,1.88-2.44,2.79-3.32,3.62-6.84,7-9.88,10.7-.75.94-1.49,1.88-2.18,2.86a16,16,0,0,0-1.8,3,6.48,6.48,0,0,0-.57,3.14,19.34,19.34,0,0,0,.72,3.4c.33,1.17.68,2.33,1,3.58a15.94,15.94,0,0,1,.37,3.84,32.91,32.91,0,0,1-1.45,7.35,23.53,23.53,0,0,0-.85,3.43,13.74,13.74,0,0,0,0,3.51,34.26,34.26,0,0,1,.26,3.68,8.13,8.13,0,0,1-.89,3.58,7.72,7.72,0,0,0,.38-3.56,32.69,32.69,0,0,0-.67-3.56,15,15,0,0,1-.43-3.77,24.49,24.49,0,0,1,.48-3.75,31.91,31.91,0,0,0,1.39-7,21.85,21.85,0,0,0-1.26-6.89,20.39,20.39,0,0,1-.78-3.75,8.3,8.3,0,0,1,.71-4,18.32,18.32,0,0,1,2-3.28c.72-1,1.48-2,2.26-3,3.12-3.84,6.68-7.22,9.94-10.78.81-.9,1.61-1.8,2.38-2.72a9.92,9.92,0,0,0,1.84-2.81,6.06,6.06,0,0,0,.35-3.13,11.52,11.52,0,0,0-1.08-3.2c-1-2.11-2.42-4.13-3.48-6.45a11.82,11.82,0,0,1-1.1-3.78,7.92,7.92,0,0,1,.69-4,10.93,10.93,0,0,1,2.28-3.21,11.22,11.22,0,0,1,3.24-2.22c2.26-1.1,4.53-2,6.72-3a31.7,31.7,0,0,0,3.24-1.47,8.33,8.33,0,0,0,2.69-2.08,3.25,3.25,0,0,0,.56-3.12A9.16,9.16,0,0,0,271.15,462.28Z"/><path class="cls-5" d="M69.47,370c-.86,3.38.87,6.52.5,10.19a11.61,11.61,0,0,1-1.85,5.13,30.84,30.84,0,0,1-3.45,4,28.88,28.88,0,0,0-3.31,3.47,10.2,10.2,0,0,0-.59.92l-.49,1.07a12.12,12.12,0,0,0-.8,2.18,16.59,16.59,0,0,0,.37,9.27,63.89,63.89,0,0,0,3.79,9.17,56.59,56.59,0,0,1,3.82,9.67c.82,3.51.84,6.93,1.39,10.13a17.07,17.07,0,0,0,1.32,4.51,11.29,11.29,0,0,0,2.71,3.63c2.29,2.18,5.34,3.84,7.88,6.47A14,14,0,0,1,82.48,452l.76,1.14c.23.4.42.83.63,1.25l.31.63a6.76,6.76,0,0,1,.22.68c.13.46.3.92.39,1.39l.15,1.47a12.26,12.26,0,0,1-.1,1.48,12.71,12.71,0,0,1-2.16,5.2,42.07,42.07,0,0,1-3.3,4.07c-1.13,1.27-2.24,2.51-3.28,3.78-.49.65-1,1.28-1.45,1.95L74,476c-.15.32-.32.6-.46.93a16.2,16.2,0,0,0-.85,4.57c-.12,1.63-.15,3.31-.22,5a38,38,0,0,1-.49,5.23l-.3,1.34-.42,1.34c-.18.45-.38.89-.59,1.33A13.4,13.4,0,0,1,69.8,497c-2.67,2.88-6.07,3.87-8.44,6A3.87,3.87,0,0,0,60,507a12.58,12.58,0,0,0,2.32,4.37,12.93,12.93,0,0,1-3-4.15,4.77,4.77,0,0,1-.23-2.76A5.61,5.61,0,0,1,60.36,502a28.31,28.31,0,0,1,4-3.41,15.29,15.29,0,0,0,3.39-3.25,9.67,9.67,0,0,0,1.62-4.06,36.1,36.1,0,0,0,.45-4.86c.07-1.67.09-3.37.22-5.11a18.74,18.74,0,0,1,1-5.36c.18-.45.43-.9.66-1.34l.74-1.11c.48-.75,1-1.41,1.58-2.12,1.1-1.34,2.24-2.62,3.36-3.87a42.52,42.52,0,0,0,3.09-3.8,9.92,9.92,0,0,0,1.72-4.06,9.26,9.26,0,0,0,.07-1l-.1-1.05c-.07-.35-.21-.7-.3-1.05-.06-.17-.09-.35-.16-.52l-.26-.51c-.17-.33-.32-.68-.5-1l-.66-1a10.56,10.56,0,0,0-1.45-1.81c-2.15-2.27-5.14-3.91-7.79-6.38a14.12,14.12,0,0,1-3.3-4.45,19.76,19.76,0,0,1-1.52-5.18c-.59-3.48-.63-6.87-1.36-10a54.72,54.72,0,0,0-3.64-9.16A67.22,67.22,0,0,1,57.29,407a19.22,19.22,0,0,1-.38-10.72,15.49,15.49,0,0,1,.94-2.57l.58-1.24a12.43,12.43,0,0,1,.77-1.21,24.71,24.71,0,0,1,3.65-3.88,32.17,32.17,0,0,0,3.62-3.26A9.8,9.8,0,0,0,68.56,380a18.53,18.53,0,0,0,.2-4.91,20.29,20.29,0,0,1,.09-2.58A10,10,0,0,1,69.47,370Z"/><path class="cls-19" d="M126.85,396.93c0,4.19-8.1,13-8.08,16.25,0,7.1,11.6,11.69,13.46,18.6,1.07,4-1.16,6.31.21,9.49,1,2.24,5.48,5.49,7.17,7.44s4.38,6.65,5.79,7.82c3.42,2.86,6.67,1.91,10.12,4.62"/><path class="cls-5" d="M61,410.91a69.62,69.62,0,0,1,.14,7.09,19.65,19.65,0,0,1-.48,3.62,9.65,9.65,0,0,1-1.56,3.4,17.3,17.3,0,0,1-5.71,4.43c-2.06,1.14-4.16,2.17-6.24,3.24-4.13,2.13-8.3,4.33-11.68,7.52A16.85,16.85,0,0,0,30,452.61a17,17,0,0,1,5.17-12.7c3.35-3.36,7.5-5.71,11.58-8,2-1.13,4.11-2.23,6.1-3.42a16.29,16.29,0,0,0,5.17-4.25A11,11,0,0,0,59.62,418c0-2.28-.16-4.6-.36-6.91Z"/><path class="cls-5" d="M336.58,370.78a20.76,20.76,0,0,0-1.43,4.75,19.35,19.35,0,0,0-.29,4.86,31.33,31.33,0,0,0,2.37,9.39c2,6.21,5.26,12.12,7.3,18.68a38.6,38.6,0,0,1,1.23,5,25.15,25.15,0,0,1,.29,5.28,20.78,20.78,0,0,1-3.24,10.06c-1.86,3.07-4.53,5.31-5.82,8a8.62,8.62,0,0,0-.89,4.23,9.64,9.64,0,0,0,1.14,4.23c1.36,2.8,3.65,5.34,5.12,8.69.17.43.34.86.48,1.31s.26.94.33,1.34c.17.85.3,1.71.42,2.56.24,1.7.36,3.39.5,5.06s.27,3.28.52,4.87c.12.8.28,1.59.46,2.37s.37,1.7.5,2.55a34.47,34.47,0,0,1,0,10.39,32.71,32.71,0,0,1-1.18,5.07,18.57,18.57,0,0,1-2.24,4.9,13.65,13.65,0,0,1-4.05,3.71c-1.47.9-2.78,1.82-4.13,2.72-5.49,3.32-9.4,9.09-14.4,13.55,2.1-2.62,4-5.38,5.94-8.09a39.06,39.06,0,0,1,6.9-7.62c1.35-1.08,2.89-1.9,4.23-2.8a10.81,10.81,0,0,0,3.32-3,16.36,16.36,0,0,0,1.89-4.19,31,31,0,0,0,1.08-4.67,32,32,0,0,0,0-9.58c-.13-.79-.28-1.56-.46-2.36s-.37-1.7-.5-2.55c-.27-1.71-.41-3.41-.55-5.08s-.26-3.31-.48-4.91c-.11-.81-.24-1.61-.4-2.39-.07-.42-.18-.74-.26-1.09s-.25-.7-.38-1.05c-1.2-2.8-3.45-5.34-5.06-8.55a15.93,15.93,0,0,1-1-2.55,12.06,12.06,0,0,1-.41-2.8,11.44,11.44,0,0,1,1.17-5.47,22.49,22.49,0,0,1,3-4.36c.54-.64,1.07-1.27,1.56-1.91s.95-1.26,1.36-1.93a18.13,18.13,0,0,0,2.83-8.79,22.62,22.62,0,0,0-.27-4.71,35.53,35.53,0,0,0-1.13-4.69c-1.93-6.21-5.14-12.13-7.31-18.62a32.67,32.67,0,0,1-1.24-10.23,20.42,20.42,0,0,1,1-5.05A21.51,21.51,0,0,1,336.58,370.78Z"/><path class="cls-5" d="M345.23,482.38a6,6,0,0,1,.41,2.45c0,.78-.09,1.5-.15,2.21a19.7,19.7,0,0,0,0,4.13,14.67,14.67,0,0,0,3.36,7.4,69.69,69.69,0,0,0,6,6.05,21,21,0,0,1,2.83,3.32,12.32,12.32,0,0,1,1.75,4l-.13-.15c1.87,1,3.88,1.65,5.85,2.45a19.66,19.66,0,0,1,5.55,3.1,19.51,19.51,0,0,0-5.64-2.87c-2-.73-4-1.35-6-2.25l-.1-.05,0-.11a14.39,14.39,0,0,0-4.67-6.86,70.05,70.05,0,0,1-6.31-5.92,15.85,15.85,0,0,1-3.92-7.91,20.19,20.19,0,0,1-.14-4.45,8.62,8.62,0,0,0-.27-3.82Z"/><path class="cls-5" d="M290.11,484.68a6,6,0,0,1,1.77,1.65,3.15,3.15,0,0,1,.61,2.57,7.26,7.26,0,0,1-2.75,4.21,27.35,27.35,0,0,1-8.25,4.26c-.73.25-1.46.48-2.2.69s-1.57.37-2.15.55a7.13,7.13,0,0,0-3.26,2.27c-.23.26-.46.54-.68.83a4.77,4.77,0,0,1-.71.86c-.52.55-1.06,1.11-1.65,1.64a9.07,9.07,0,0,1-2,1.34,6.58,6.58,0,0,1-2.23.62,7.25,7.25,0,0,0,3.31-2.76c.42-.59.79-1.22,1.17-1.87a5.58,5.58,0,0,1,.66-.93c.26-.3.49-.61.76-.91a9.1,9.1,0,0,1,4.05-2.79c.85-.25,1.5-.35,2.21-.56s1.41-.42,2.1-.66a25.67,25.67,0,0,0,7.69-3.94,5.64,5.64,0,0,0,2.14-3.13,12.1,12.1,0,0,0,.05-1.84A7.45,7.45,0,0,0,290.11,484.68Z"/><path class="cls-5" d="M216.25,366.31a23.18,23.18,0,0,0,.76,14.31,22.81,22.81,0,0,0,9.1,10.9c2,1.29,4.17,2.45,6.33,3.59a72.28,72.28,0,0,1,6.41,3.67,15.71,15.71,0,0,1,5.25,5.49,16.43,16.43,0,0,1,1.76,7.43l-1.77,0a15,15,0,0,0-1.37-6.73,14.34,14.34,0,0,0-4.64-5.11c-1.94-1.39-4.07-2.56-6.19-3.78s-4.25-2.44-6.29-3.82a23.08,23.08,0,0,1-9.35-26Z"/><path class="cls-5" d="M147,491.3a20.25,20.25,0,0,0-3.07,2.23,7.13,7.13,0,0,0-2.06,2.81,9.6,9.6,0,0,0-.35,1.55,5,5,0,0,0,.12,1.63,12.41,12.41,0,0,0,1.4,3.27c1.23,2.13,2.8,4.16,4.22,6.32a18.52,18.52,0,0,1,3.24,7.31,18.9,18.9,0,0,1-1.2,7.91,38.77,38.77,0,0,0-2,7.19,10.49,10.49,0,0,0-.08,1.77,3.59,3.59,0,0,0,.29,1.56c.2.5.53,1,.86,1.64a4.21,4.21,0,0,1,.48,2.33,5,5,0,0,1-.26,1.13l-.2.51a1.93,1.93,0,0,1-.49.68,9.1,9.1,0,0,1-1.81,1.15c-.58.29-1.14.59-1.65.9a6.16,6.16,0,0,0-1.29.82l-.28.32-.21,0a4.45,4.45,0,0,0-1.86.58,4.89,4.89,0,0,1-1.15.4,5.91,5.91,0,0,1-1.17.1l.17-.07a2.63,2.63,0,0,0-.62,1,9.19,9.19,0,0,1-.62,1.26,4,4,0,0,1-.92,1.08,4.62,4.62,0,0,1-1.21.67,4.37,4.37,0,0,0,1.1-.8,3.87,3.87,0,0,0,.74-1.1,9.2,9.2,0,0,0,.44-1.28,2.94,2.94,0,0,1,.69-1.36l0,0,.12,0a4,4,0,0,0,1.81-.8,8,8,0,0,1,1-.67,5.53,5.53,0,0,1,1.15-.49l-.49.33c1-1.51,2.31-1.8,3.41-2.45a7.45,7.45,0,0,0,1.43-.87c.08-.08.07-.06.07-.09l.15-.38a3.4,3.4,0,0,0,.17-.72,2.41,2.41,0,0,0-.3-1.37c-.24-.49-.63-1.07-.91-1.75a5.68,5.68,0,0,1-.43-2.18,12.74,12.74,0,0,1,.1-2.05,39,39,0,0,1,2.12-7.52,17.38,17.38,0,0,0,1.12-7.12,17,17,0,0,0-3-6.57c-1.38-2.1-2.95-4.13-4.28-6.41a14.19,14.19,0,0,1-1.59-3.76,5.72,5.72,0,0,1,.48-4.3,8,8,0,0,1,3-2.81A17,17,0,0,1,147,491.3Z"/><path class="cls-5" d="M333,376.73c-.56,1.56-.61,3.27-1.33,4.79A9.11,9.11,0,0,1,328.1,385a52.06,52.06,0,0,1-9.14,4c-3.12,1.12-6.24,2.32-8.76,4.44a45.89,45.89,0,0,0-3.61,3.39c-1.19,1.17-2.44,2.26-3.58,3.44a15,15,0,0,0-2.86,3.88,17.41,17.41,0,0,0-.89,2.26,22.87,22.87,0,0,1-1,2.36,18.89,18.89,0,0,1-6.57,7.72c-1.45.95-2.92,1.69-4.37,2.5a24.9,24.9,0,0,0-4.05,2.62,7.81,7.81,0,0,0-2.49,3.72,14.62,14.62,0,0,0-.53,4.65l-1.78,0a16.54,16.54,0,0,1,.75-5.18,9.41,9.41,0,0,1,3.09-4.36c2.78-2.17,6-3.29,8.7-5a17.67,17.67,0,0,0,6.32-7.14,21.14,21.14,0,0,0,1-2.23,16.33,16.33,0,0,1,1-2.35,15.94,15.94,0,0,1,3.09-4c1.2-1.19,2.47-2.25,3.68-3.38a45.86,45.86,0,0,1,3.71-3.36,20.61,20.61,0,0,1,4.33-2.57c1.53-.69,3.11-1.23,4.68-1.77a51.72,51.72,0,0,0,9.18-3.75,9,9,0,0,0,3.57-3.31C332.32,380,332.41,378.28,333,376.73Z"/></g></g></svg>