<svg xmlns="http://www.w3.org/2000/svg" xmlns:xlink="http://www.w3.org/1999/xlink" viewBox="0 0 1462.32 933.51"><defs><style>.cls-1,.cls-10,.cls-13,.cls-14,.cls-15,.cls-16,.cls-17,.cls-18,.cls-19,.cls-20,.cls-41,.cls-48,.cls-5,.cls-6,.cls-7,.cls-9{fill:none;}.cls-2,.cls-42{fill:#5c5052;}.cls-3,.cls-44{fill:#2e61a0;}.cls-4{fill:#ffcd01;}.cls-14,.cls-15,.cls-48,.cls-5,.cls-6,.cls-7{stroke:#f17243;}.cls-10,.cls-13,.cls-14,.cls-15,.cls-16,.cls-17,.cls-18,.cls-20,.cls-41,.cls-48,.cls-5,.cls-6,.cls-7,.cls-9{stroke-miterlimit:10;}.cls-5{stroke-width:0.4px;}.cls-6{stroke-width:0.48px;}.cls-7{stroke-width:0.92px;}.cls-8{fill:#2b63a2;}.cls-10,.cls-16,.cls-17,.cls-18,.cls-9{stroke:#5c5052;}.cls-9{stroke-width:1.87px;}.cls-10{stroke-width:1.79px;}.cls-11,.cls-21,.cls-22,.cls-43{fill:#eb6a7c;}.cls-12,.cls-23{fill:#3da9a0;}.cls-13{stroke:#2e61a0;stroke-width:2.66px;}.cls-14,.cls-16{stroke-width:0.92px;}.cls-15,.cls-17{stroke-width:0.87px;}.cls-18{stroke-width:2.43px;}.cls-19,.cls-20{stroke:#fff;stroke-width:0.89px;}.cls-19{stroke-linecap:round;stroke-linejoin:round;}.cls-21,.cls-31,.cls-42{font-size:30px;}.cls-21,.cls-22,.cls-31,.cls-42,.cls-43,.cls-44{font-family:Acre-Light, Acre;font-weight:300;}.cls-22{font-size:30.72px;}.cls-23,.cls-44{font-size:40px;}.cls-23{font-family:Acre-Bold, Acre;font-weight:700;}.cls-24{letter-spacing:-0.01em;}.cls-25{letter-spacing:-0.02em;}.cls-26{letter-spacing:-0.02em;}.cls-27{letter-spacing:0em;}.cls-28{letter-spacing:-0.07em;}.cls-29{letter-spacing:0em;}.cls-30{letter-spacing:-0.04em;}.cls-32{letter-spacing:-0.02em;}.cls-33{letter-spacing:-0.05em;}.cls-34{letter-spacing:-0.04em;}.cls-35{letter-spacing:-0.03em;}.cls-36{letter-spacing:0em;}.cls-37{letter-spacing:0em;}.cls-38{letter-spacing:-0.02em;}.cls-39{letter-spacing:-0.01em;}.cls-40{letter-spacing:-0.02em;}.cls-41{stroke:#ffcd01;stroke-width:6.12px;}.cls-43{font-size:29.87px;}.cls-45{letter-spacing:-0.02em;}.cls-46{letter-spacing:-0.01em;}.cls-47{fill:#f17243;}.cls-48{stroke-width:4.59px;}.cls-49{letter-spacing:0.01em;}.cls-50{letter-spacing:-0.01em;}.cls-51{letter-spacing:-0.02em;}.cls-52{clip-path:url(#clip-path);}.cls-53{fill:#3ba9a0;}</style><clipPath id="clip-path"><path class="cls-1" d="M591.38,750.71a28.49,28.49,0,1,1-28.49-28.49A28.49,28.49,0,0,1,591.38,750.71Z"/></clipPath></defs><g id="Layer_2" data-name="Layer 2"><g id="Biodegradation"><g id="Layer_75" data-name="Layer 75"><path class="cls-2" d="M1374.56,812.54s-11.78-6.23-16.94-12.3c0,0,6.14-10.06,15-12s13.26,2.24,13.26,2.24S1385.28,810,1374.56,812.54Z"/><path class="cls-2" d="M1365.53,783.36s14.75-2.13,15.88-4.93a6,6,0,0,0,0-4.87s-5-5.53-19.74-4.43C1361.67,769.13,1360.54,777.52,1365.53,783.36Z"/><path class="cls-2" d="M1329.42,787.73s3.64,9.54,8,10.21a20.75,20.75,0,0,0,7.49-.12,11.13,11.13,0,0,0,6.32-13S1338.28,784.34,1329.42,787.73Z"/><path class="cls-2" d="M1396.63,790.68s22.62-5.84,22.95-14.06-16.3-6.06-16.3-6.06-13.38,2-12.31,13.2C1391.77,792.15,1396.63,790.68,1396.63,790.68Z"/><path class="cls-2" d="M1256.18,807s23,5.08,31.49-1-6.38-11.49-6.38-11.49-12.16-4.13-22.52,4.87C1251,806.11,1256.18,807,1256.18,807Z"/><path class="cls-2" d="M1318.06,767.45s13.79,13,26.18,11.43,5.46-11.68,5.46-11.68-5.94-8.05-22.52-4.87C1314.78,764.7,1318.06,767.45,1318.06,767.45Z"/><path class="cls-2" d="M1413.59,811.93s4.46-10.8,20-22.72l-4-2.38s-21.29,2.38-26.28,12.55,0,13.84,0,13.84S1409.6,814.3,1413.59,811.93Z"/><path class="cls-2" d="M1305.41,805.33s14.43,4,25.56.45c0,0,2.52-1.69-4.22-5.56a28.45,28.45,0,0,1-7.47-5.94s-10.35-8.66-15.49,3C1300.4,805,1305.41,805.33,1305.41,805.33Z"/><path class="cls-2" d="M1188.44,776.33s12.84,5.29,19,10.92c0,0-4.27,10.46-12.71,13s-13.57-1.2-13.57-1.2S1178.26,779.69,1188.44,776.33Z"/><path class="cls-2" d="M1141.33,769.5s-15.26,3.47-15.92,6.54a6.63,6.63,0,0,0,.94,5.17s6.37,5.47,21.83,3.09C1148.18,784.3,1147.77,775.3,1141.33,769.5Z"/><path class="cls-2" d="M1237.76,797.52s-5.33-9.2-9.76-9.53a20.39,20.39,0,0,0-7.42.69s-7.7,4-3.93,13.34C1216.65,802,1229.58,801.56,1237.76,797.52Z"/><path class="cls-2" d="M1233.08,770.11s-21.6-7.29-31.37-2.07,3.63,12,3.63,12,11.06,5.28,23.4-2.6C1238,771.53,1233.08,770.11,1233.08,770.11Z"/><path class="cls-2" d="M1307,772.74s-23.81-3.28-31.09,3.44,8.42,10.92,8.42,10.92,12.82,3.17,21.48-6.56C1312.29,773.26,1307,772.74,1307,772.74Z"/><path class="cls-2" d="M1113.48,780.11s-18.94-4.33-25.88.89,5.24,9.79,5.24,9.79a19.42,19.42,0,0,0,18.51-4.16C1117.72,780.9,1113.48,780.11,1113.48,780.11Z"/><path class="cls-2" d="M1071.71,809.35s19.57,2.8,25.55-2.94-6.91-9.3-6.91-9.3-10.55-2.71-17.66,5.59C1067.36,808.9,1071.71,809.35,1071.71,809.35Z"/><path class="cls-2" d="M1159.54,781.22s-2.65,11.84-16.81,25.77l4.7,2.21s22.16-4.28,25.5-15.49-2.68-14.72-2.68-14.72S1163.33,778.36,1159.54,781.22Z"/><path class="cls-2" d="M1121.54,788.39s-9.18,9.15-5.43,17.43c0,0,2.28,2,9.78-1.86a48.12,48.12,0,0,1,11-4s15.94-5.51-2-11.17C1123,785,1121.54,788.39,1121.54,788.39Z"/><path class="cls-2" d="M1258.42,778.2s-15.06-2.89-25.46,1.51c0,0-2.2,1.88,5.2,5.2a33.1,33.1,0,0,1,8.49,5.33s11.84,7.8,14.83-4.18C1263.45,778.15,1258.42,778.2,1258.42,778.2Z"/><path class="cls-2" d="M1126.55,722.56s11.78,6.22,16.94,12.29c0,0-6.14,10.07-15,12s-13.26-2.23-13.26-2.23S1115.83,725.11,1126.55,722.56Z"/><path class="cls-2" d="M1135.58,751.73s-14.75,2.13-15.88,4.93a5.94,5.94,0,0,0,0,4.87s5,5.53,19.74,4.43C1139.44,766,1140.57,757.57,1135.58,751.73Z"/><path class="cls-2" d="M1171.69,747.36s-3.63-9.53-8-10.2a20.75,20.75,0,0,0-7.49.12,11.13,11.13,0,0,0-6.32,12.94S1162.84,750.75,1171.69,747.36Z"/><path class="cls-2" d="M1101.74,749s-22.62,5.84-23,14.06,16.29,6.06,16.29,6.06,13.39-2,12.31-13.2C1106.59,747.52,1101.74,749,1101.74,749Z"/><path class="cls-2" d="M1241.15,726.83s-23.05-5.08-31.49,1,6.38,11.48,6.38,11.48,12.16,4.13,22.52-4.87C1246.31,727.75,1241.15,726.83,1241.15,726.83Z"/><path class="cls-2" d="M1183.05,767.65s-13.78-13-26.18-11.44-5.46,11.69-5.46,11.69,5.94,8,22.52,4.87C1186.33,770.4,1183.05,767.65,1183.05,767.65Z"/><path class="cls-2" d="M1096.91,716.65s-5.44,13.15-24.31,27.68l4.86,2.89s25.93-2.89,32-15.28,0-16.87,0-16.87S1101.77,713.75,1096.91,716.65Z"/><path class="cls-2" d="M1253.74,764.52s-5.83-10.52-3.59-26.06l-5.37-.47s-15.38,9.87-10.53,20.07,12.17,11.36,12.17,11.36S1252.55,768,1253.74,764.52Z"/><path class="cls-2" d="M1195.7,729.76s-14.44-4-25.55-.45c0,0-2.53,1.7,4.21,5.56a28.35,28.35,0,0,1,7.47,6s10.35,8.65,15.49-3C1200.7,730.1,1195.7,729.76,1195.7,729.76Z"/><path class="cls-2" d="M1308.88,757.53s-12.82-5.28-19-10.92c0,0,4.27-10.46,12.7-13s13.58,1.21,13.58,1.21S1319.07,754.17,1308.88,757.53Z"/><path class="cls-2" d="M1356,764.37s15.26-3.47,15.92-6.54a6.64,6.64,0,0,0-.94-5.18s-6.37-5.46-21.83-3.09C1349.15,749.56,1349.56,758.57,1356,764.37Z"/><path class="cls-2" d="M1259.57,736.35s5.33,9.19,9.76,9.52a20.13,20.13,0,0,0,7.42-.69s7.7-4,3.92-13.33C1280.67,731.85,1267.75,732.31,1259.57,736.35Z"/><path class="cls-2" d="M1264.25,763.75s21.6,7.3,31.37,2.08-3.63-12-3.63-12-11.06-5.29-23.4,2.59C1259.37,762.33,1264.25,763.75,1264.25,763.75Z"/><path class="cls-2" d="M1190.33,761.13s23.81,3.28,31.09-3.45-8.42-10.91-8.42-10.91-12.82-3.18-21.48,6.55C1185,760.6,1190.33,761.13,1190.33,761.13Z"/><path class="cls-2" d="M1377.33,764.48s18.94,4.33,25.88-.89-5.24-9.79-5.24-9.79a19.43,19.43,0,0,0-18.51,4.15C1373.09,763.69,1377.33,764.48,1377.33,764.48Z"/><path class="cls-2" d="M1417.79,763s11.86,3.43,21,.38c0,0,2.07-1.44-3.47-4.73a23.73,23.73,0,0,1-6.13-5.07s-8.51-7.38-12.73,2.57C1413.67,762.74,1417.79,763,1417.79,763Z"/><path class="cls-2" d="M1418.45,729s9.84,12.05,21.5,15.44c0,0,3.18,0-.21-7.4a29.78,29.78,0,0,1-2.72-9.65s-3.53-13.74-15-6.45C1414.39,725.77,1418.45,729,1418.45,729Z"/><path class="cls-2" d="M1415.43,735.24s-19.56-2.8-25.54,2.93,6.91,9.31,6.91,9.31,10.54,2.71,17.66-5.59C1419.78,735.69,1415.43,735.24,1415.43,735.24Z"/><path class="cls-2" d="M1337.78,752.65s2.66-11.84,16.82-25.78l-4.7-2.2s-22.17,4.27-25.5,15.49,2.68,14.71,2.68,14.71S1334,755.5,1337.78,752.65Z"/><path class="cls-2" d="M1375.79,745.48s9.18-9.16,5.43-17.44c0,0-2.28-2-9.78,1.87a48.12,48.12,0,0,1-11,4s-15.93,5.5,2,11.17C1374.33,748.85,1375.79,745.48,1375.79,745.48Z"/><path class="cls-3" d="M1445.8,854.53c-3.11-1.55-18.69-8.29-41.81-.25-28.18,9.79-71.22,4-71.22,4s-17.42-2.67-37.75-6.92c-28.09-5.87-68,3.59-68,3.59s-29.54,8.07-73.59,0-82.23,0-82.23,0v78.56h375.14v-79Z"/><path class="cls-3" d="M1088.59,829.17h0a77.32,77.32,0,0,1-5-7.29c-1.69,2.9-5,7.29-5,7.29h0l-.08.1a4.17,4.17,0,0,0-.74,2.35c0,2.65,2.59,4.79,5.78,4.79s5.77-2.14,5.77-4.79A4.12,4.12,0,0,0,1088.59,829.17Z"/><path class="cls-3" d="M1116.26,825h0a77.32,77.32,0,0,1-5-7.29c-1.68,2.9-5,7.29-5,7.29h0a.86.86,0,0,0-.07.1,4.18,4.18,0,0,0-.75,2.35c0,2.65,2.59,4.79,5.78,4.79s5.77-2.14,5.77-4.79A4.12,4.12,0,0,0,1116.26,825Z"/><path class="cls-3" d="M1147.09,833.77h0a77.32,77.32,0,0,1-5-7.29c-1.68,2.9-5,7.29-5,7.29h0a.86.86,0,0,0-.07.1,4.09,4.09,0,0,0-.74,2.35c0,2.65,2.58,4.79,5.77,4.79s5.77-2.14,5.77-4.79A4.15,4.15,0,0,0,1147.09,833.77Z"/><path class="cls-3" d="M1169.17,823.67h0a77.32,77.32,0,0,1-5-7.29c-1.69,2.9-5,7.29-5,7.29h0l-.08.1a4.17,4.17,0,0,0-.74,2.35c0,2.65,2.59,4.79,5.78,4.79s5.77-2.14,5.77-4.79A4.15,4.15,0,0,0,1169.17,823.67Z"/><path class="cls-3" d="M1190.57,829.17h0a77.32,77.32,0,0,1-5-7.29c-1.68,2.9-5,7.29-5,7.29h0a.39.39,0,0,0-.08.1,4.17,4.17,0,0,0-.74,2.35c0,2.65,2.58,4.79,5.77,4.79s5.78-2.14,5.78-4.79A4.13,4.13,0,0,0,1190.57,829.17Z"/><path class="cls-3" d="M1218.8,825h0a77.32,77.32,0,0,1-5-7.29c-1.68,2.9-5,7.29-5,7.29h0a.86.86,0,0,0-.07.1,4.09,4.09,0,0,0-.74,2.35c0,2.65,2.58,4.79,5.77,4.79s5.77-2.14,5.77-4.79A4.15,4.15,0,0,0,1218.8,825Z"/><path class="cls-3" d="M1246.84,834.93h0a78.09,78.09,0,0,1-5-7.28c-1.68,2.9-5,7.28-5,7.28h0a.76.76,0,0,0-.08.11,4.15,4.15,0,0,0-.74,2.35c0,2.64,2.58,4.79,5.77,4.79s5.78-2.15,5.78-4.79A4.18,4.18,0,0,0,1246.84,834.93Z"/><path class="cls-3" d="M1274.5,827.67h0a76,76,0,0,1-5-7.29c-1.69,2.9-5,7.29-5,7.29h0a.39.39,0,0,0-.08.1,4.17,4.17,0,0,0-.74,2.35c0,2.65,2.58,4.79,5.78,4.79s5.77-2.14,5.77-4.79A4.12,4.12,0,0,0,1274.5,827.67Z"/><path class="cls-3" d="M1422.65,835.35h0a76,76,0,0,0,4.95-7.29c1.69,2.9,5,7.29,5,7.29h0a.39.39,0,0,1,.08.1,4.17,4.17,0,0,1,.74,2.35c0,2.65-2.59,4.79-5.78,4.79s-5.77-2.14-5.77-4.79A4.12,4.12,0,0,1,1422.65,835.35Z"/><path class="cls-3" d="M1395,831.21h0a77.32,77.32,0,0,0,5-7.29c1.69,2.9,5,7.29,5,7.29h0l.08.1a4.19,4.19,0,0,1,.74,2.35c0,2.65-2.59,4.79-5.78,4.79s-5.77-2.14-5.77-4.79A4.15,4.15,0,0,1,1395,831.21Z"/><path class="cls-3" d="M1364.15,840h0a77.32,77.32,0,0,0,5-7.29c1.69,2.9,5,7.29,5,7.29h0l.08.1a4.19,4.19,0,0,1,.74,2.35c0,2.65-2.59,4.8-5.78,4.8s-5.77-2.15-5.77-4.8A4.15,4.15,0,0,1,1364.15,840Z"/><path class="cls-3" d="M1342.07,829.85h0a79.4,79.4,0,0,0,5-7.29c1.68,2.9,5,7.29,5,7.29h0l.08.1a4.17,4.17,0,0,1,.74,2.35c0,2.65-2.59,4.79-5.77,4.79s-5.78-2.14-5.78-4.79A4.15,4.15,0,0,1,1342.07,829.85Z"/><path class="cls-3" d="M1312.71,840h0a77.32,77.32,0,0,0,5-7.29c1.68,2.9,5,7.29,5,7.29h0l.08.1a4.19,4.19,0,0,1,.74,2.35c0,2.65-2.58,4.8-5.77,4.8s-5.78-2.15-5.78-4.8A4.24,4.24,0,0,1,1312.71,840Z"/><path class="cls-3" d="M1286.83,829.85h0a77.32,77.32,0,0,0,5-7.29c1.69,2.9,5,7.29,5,7.29h0a.86.86,0,0,1,.07.1,4.1,4.1,0,0,1,.75,2.35c0,2.65-2.59,4.79-5.78,4.79S1286,835,1286,832.3A4.15,4.15,0,0,1,1286.83,829.85Z"/><path class="cls-3" d="M1236.74,833.85h0a77.32,77.32,0,0,0,5-7.29c1.68,2.9,5,7.29,5,7.29h0a.39.39,0,0,1,.08.1,4.17,4.17,0,0,1,.74,2.35c0,2.65-2.58,4.79-5.77,4.79s-5.78-2.14-5.78-4.79A4.22,4.22,0,0,1,1236.74,833.85Z"/></g><g id="Layer_76" data-name="Layer 76"><path class="cls-4" d="M1093.34,696.35a11.45,11.45,0,0,0-1.62-2.79,16.37,16.37,0,0,1-1-1.44,9.64,9.64,0,0,1-.71-1.62,14.81,14.81,0,0,1-.6-2.32,11.48,11.48,0,0,1-.12-1.35l-5.9-.87,4.15-4.4a5.83,5.83,0,0,0-1.7-1.23,5.77,5.77,0,0,0-7.93,7.16v0a6.5,6.5,0,0,0,.52,1.1c.34.58.7,1.12,1,1.64a15.34,15.34,0,0,1,1.86,3.38,4.42,4.42,0,0,1,.15.48,11.52,11.52,0,0,1,.31,2.61,14.34,14.34,0,0,0,.31,2.78,4,4,0,0,0,.17.59,5.83,5.83,0,0,0,11.3-1.41A5.46,5.46,0,0,0,1093.34,696.35Z"/><path class="cls-5" d="M1086.67,682.63a4.37,4.37,0,0,0-7.61,2.35,4.58,4.58,0,0,0,.21,2.06h0a5.15,5.15,0,0,0,.42.89c.32.54.67,1.07,1,1.57a14.91,14.91,0,0,1,2.18,4.26,12.78,12.78,0,0,1,.37,2.93,12.7,12.7,0,0,0,.27,2.52,4.38,4.38,0,0,0,2.17,2.83,4.42,4.42,0,0,0,6.54-3.46c.16-1.68-.72-2.9-1.65-4.2-.36-.51-.73-1-1-1.57a13.91,13.91,0,0,1-1.47-4.39,15,15,0,0,1-.16-1.75"/><path class="cls-4" d="M1362.29,711a11.11,11.11,0,0,0-1.61-2.79c-.35-.5-.69-1-1-1.44a11,11,0,0,1-.72-1.62,15.11,15.11,0,0,1-.59-2.32,11.48,11.48,0,0,1-.12-1.35l-5.9-.87,4.15-4.4a5.78,5.78,0,0,0-9.63,5.93v0a6.5,6.5,0,0,0,.52,1.1c.34.58.7,1.12,1,1.63a15.64,15.64,0,0,1,1.86,3.39,3.37,3.37,0,0,1,.15.48,11.36,11.36,0,0,1,.31,2.6,14.44,14.44,0,0,0,.31,2.79,3.86,3.86,0,0,0,.17.58,5.83,5.83,0,0,0,11.3-1.4A5.31,5.31,0,0,0,1362.29,711Z"/><path class="cls-5" d="M1355.63,697.26a4.5,4.5,0,0,0-1.37-1,4.39,4.39,0,0,0-3.37-.2,4.33,4.33,0,0,0-2.88,3.58,4.7,4.7,0,0,0,.22,2h0a5.24,5.24,0,0,0,.42.9c.32.54.67,1.06,1,1.57a14.76,14.76,0,0,1,2.19,4.25,12.36,12.36,0,0,1,.36,2.93,13.52,13.52,0,0,0,.28,2.53,4.38,4.38,0,0,0,2.17,2.83,4.42,4.42,0,0,0,6.54-3.47c.16-1.67-.72-2.9-1.65-4.19a17.77,17.77,0,0,1-1-1.57,14,14,0,0,1-1.47-4.39,15,15,0,0,1-.16-1.75"/><path class="cls-4" d="M1411.94,695.13l8.21,2.85a9,9,0,0,0,.77-2.11,8.76,8.76,0,0,0-1.36-6.92,10.21,10.21,0,0,0-13.65-2.67l-.08.05a11.26,11.26,0,0,0-1.62,1.22c-.81.75-1.55,1.51-2.27,2.23a25.75,25.75,0,0,1-4.84,4.16l-.72.42a20.4,20.4,0,0,1-4.18,1.47,26.08,26.08,0,0,0-4.48,1.53,9.75,9.75,0,0,0-.9.49,9.08,9.08,0,0,0-2.89,12.86,10.28,10.28,0,0,0,9.76,4.14,9.53,9.53,0,0,0,3.78-1.34,18.43,18.43,0,0,0,4-3.57,25.44,25.44,0,0,1,2-2,17.16,17.16,0,0,1,2.38-1.73,25,25,0,0,1,3.59-1.8,23.35,23.35,0,0,1,2.56-.81c.74-.21,1.49-.43,2.24-.7Z"/><path class="cls-6" d="M1417.93,697.21a6.86,6.86,0,0,0-.37-7.05,7.52,7.52,0,0,0-7.07-3.1,8.18,8.18,0,0,0-3.3,1.11h0a7.85,7.85,0,0,0-1.31,1c-.77.71-1.49,1.45-2.19,2.16a25,25,0,0,1-6.14,5,22.27,22.27,0,0,1-4.69,1.67,24.59,24.59,0,0,0-4.06,1.38,7.07,7.07,0,0,0-3.79,4.43,6.76,6.76,0,0,0,.92,5.7,7.83,7.83,0,0,0,7.42,3.14c2.83-.37,4.5-2.21,6.27-4.14a25.26,25.26,0,0,1,2.18-2.21,23.91,23.91,0,0,1,6.64-3.94,26.66,26.66,0,0,1,2.83-.92c.76-.21,1.54-.43,2.3-.71"/><path class="cls-4" d="M1126.7,653l8.19-1.12a8.82,8.82,0,0,0-14.05-7.45,8.28,8.28,0,0,0-2.4,2.72,17,17,0,0,0-1.54,4.66,24,24,0,0,1-.68,2.54,15.51,15.51,0,0,1-1.11,2.45,22.38,22.38,0,0,1-2,3,18,18,0,0,1-1.66,1.76,16.08,16.08,0,0,0-3,3.56,8.65,8.65,0,0,0-.72,6.69,8.78,8.78,0,0,0,16.16,1.79l0-.07a9.51,9.51,0,0,0,.74-1.7c.31-1,.56-1.92.81-2.84a23.3,23.3,0,0,1,2-5.53c.12-.22.25-.44.39-.65a17.2,17.2,0,0,1,2.66-3l1.16-1.16Z"/><path class="cls-7" d="M1132.79,652.2a7.1,7.1,0,0,0-.15-2.05,6.72,6.72,0,0,0-3.27-4.41,6.83,6.83,0,0,0-7.28.45c-2.07,1.5-2.57,3.75-3.11,6.12a26.94,26.94,0,0,1-.74,2.77,21.16,21.16,0,0,1-3.51,6.1,22.79,22.79,0,0,1-1.83,2,14.3,14.3,0,0,0-2.58,3.06,6.53,6.53,0,0,0-.55,5,6.61,6.61,0,0,0,10.15,3.7,7,7,0,0,0,2.11-2.32h0a6.7,6.7,0,0,0,.6-1.37c.3-.93.54-1.85.78-2.74a22.92,22.92,0,0,1,2.63-6.79,20.07,20.07,0,0,1,3-3.37c.42-.4.84-.81,1.24-1.23"/><path class="cls-8" d="M1150.71,648.15a7.73,7.73,0,0,1,9.77-5.63,7.84,7.84,0,0,1,3.19,1.63l-.89,3.43a5.37,5.37,0,0,0-3-2,4.78,4.78,0,0,0-2.48,9.24,5.27,5.27,0,0,0,3.61-.17l-.95,3.44a8.3,8.3,0,0,1-3.57-.21A7.74,7.74,0,0,1,1150.71,648.15Z"/><path class="cls-8" d="M1177.94,647.48l-4,14.89-3.13-.84,1.6-5.93-5.68-1.53-1.6,5.94-3.13-.84,4-14.9,3.13.84-1.59,5.94,5.68,1.52,1.59-5.93Z"/><path class="cls-8" d="M1180.85,668.82a3.06,3.06,0,0,1-3.85,2.11,3.19,3.19,0,0,1-2.48-3.1l1.82-.36a1.65,1.65,0,0,0,1.12,1.65,1.28,1.28,0,1,0,.66-2.47,2.07,2.07,0,0,0-1.16.05l-.5-1.11,0,0,2.66-1.58-2.89-.78.48-1.78,5.1,1.37-.42,1.53-2,1.22A2.84,2.84,0,0,1,1180.85,668.82Z"/><path class="cls-8" d="M1199.85,653.36l-4,14.9-3.13-.84,1.59-5.94-5.68-1.53-1.59,5.94-3.13-.84,4-14.89,3.13.84-1.59,5.93,5.67,1.53,1.6-5.94Z"/><path class="cls-8" d="M1209,671.18c-.87,3.25-3.85,4.35-6.75,3.57a9.51,9.51,0,0,1-3.82-2.08l.8-2.89a6.92,6.92,0,0,0,3.21,2.12,2.7,2.7,0,0,0,3.68-2l.08-.3a4.19,4.19,0,0,1-3.62.67c-2.92-.79-4.14-3.71-3.32-6.78s3.35-5,6.26-4.18a4.17,4.17,0,0,1,2.77,2.34l.35-1.32,3,.82Zm-1.78-5.59a2.52,2.52,0,0,0-1.71-3.15,2.6,2.6,0,0,0-1.35,5A2.51,2.51,0,0,0,1207.23,665.59Z"/><path class="cls-8" d="M1218.11,663.28l-1.7-.45-.46,1.72-1.4-.38.46-1.72-1.66-.45.37-1.36,1.66.44.45-1.67,1.4.38-.45,1.67,1.7.46Z"/><path class="cls-8" d="M1232.94,670.17l-.4,1.51-8.77,2.57.79-2.93,5-1.21-3.73-3.54.81-3Z"/><path class="cls-8" d="M1255.92,668.43l-4,14.89-3.13-.84,1.59-5.94L1244.7,675l-1.59,5.93-3.13-.84,4-14.89,3.13.84-1.6,5.94,5.69,1.52,1.59-5.94Z"/><path class="cls-8" d="M1265.09,686.24c-.88,3.26-3.86,4.35-6.76,3.57a9.39,9.39,0,0,1-3.82-2.08l.8-2.88a7,7,0,0,0,3.22,2.11,2.69,2.69,0,0,0,3.67-2l.08-.3a4.19,4.19,0,0,1-3.62.67c-2.92-.78-4.14-3.71-3.32-6.78s3.34-5,6.26-4.18a4.19,4.19,0,0,1,2.77,2.34l.35-1.32,3,.82Zm-1.79-5.59a2.51,2.51,0,0,0-1.71-3.15,2.6,2.6,0,0,0-1.35,5A2.51,2.51,0,0,0,1263.3,680.65Z"/><path class="cls-8" d="M1269.77,675.87c.65-2.43,2-4.26,4.22-3.67s2.45,2.86,1.79,5.28-2,4.26-4.2,3.67S1269.11,678.32,1269.77,675.87ZM1274,677c.39-1.44.43-2.69-.48-2.93s-1.48.86-1.87,2.3-.45,2.69.47,2.93S1273.56,678.44,1274,677Z"/><path class="cls-2" d="M1187.23,702.07s1.07-2.54-.08-3.58-3.17,2-3.17,2l-6.68.63c3.82-1.39,3.72-5.84,3.72-5.84s3.42-1.2,5-5.83c3.54-10.42-9.2-14-9.2-14s-12.29-4.94-15.83,5.48c-1.58,4.63.4,7.67.4,7.67s-2.8,3.46-.63,6.89l-4.9-4.57s.28-3.67-1.26-3.55-2.25,2.78-2.25,2.78-2.19-.2-2.39,1.66,3.66,1.9,3.66,1.9l6.73,6.49-.4,1.15-5.13,1.16-2.8-.95c-1.35-.46-2.18-.53-2.7,0s1.21,2.45,1.21,2.45-1.83,3.15-.09,3.74a1.79,1.79,0,0,0,2.32-1.14,5.11,5.11,0,0,1,2.17-1l5-.87s.19,3.08,5.23,4.8,7.07-.61,7.07-.61l3.46,3.76a5.26,5.26,0,0,1,1.11,2.1,1.8,1.8,0,0,0,1.14,2.33c1.74.59,2.22-3,2.22-3s2.51-.43,2.45-1.2-.76-1.24-2.11-1.7l-2.8-.95-3.36-4.05.4-1.15,9.28-1s3.08,2.34,4.06.73S1187.23,702.07,1187.23,702.07Zm-22.3-7.27c-3.34-1.51-1.65-5.19-1.65-5.19s.39-1.19,3.3-.71,3.27,1.49,3.27,1.49a1.45,1.45,0,0,1,.07,1.21S1168.26,696.31,1164.93,694.8Zm3.57,5.26s-.9,1.74-1.53-.17,3-4.16,2.71-3.28Zm1.85,1c-1.66,1.14-1.31-.8-1.31-.8l1.18-3.45C1170.52,695.91,1172,699.91,1170.35,701Zm4.78-2.77c-3.56-.83-2-5.58-2-5.58s.23-.75.79-.91c0,0,.84-.61,3.5.81s2.19,2.58,2.19,2.58S1178.7,699.11,1175.13,698.27Z"/><path class="cls-4" d="M1259.2,712.07a16.58,16.58,0,1,1-12.46-19.85A16.57,16.57,0,0,1,1259.2,712.07Z"/><path class="cls-2" d="M1241.87,703.7c-.49,2.1-1.67,3.62-2.65,3.39s-1.38-2.1-.9-4.2,1.66-3.62,2.64-3.4S1242.34,701.6,1241.87,703.7Z"/><path class="cls-2" d="M1249.68,705.48c-.48,2.1-1.66,3.63-2.64,3.4s-1.39-2.11-.91-4.21,1.67-3.62,2.65-3.39S1250.16,703.38,1249.68,705.48Z"/><path class="cls-9" d="M1252.5,713c-1.1,4.82-6.46,7.7-12,6.44s-9.1-6.19-8-11"/><path class="cls-8" d="M1242.43,611.3A9.33,9.33,0,0,1,1254.3,601l.62,4.08a6.08,6.08,0,0,0-4.1-.68,5.56,5.56,0,0,0,1.59,11,5.91,5.91,0,0,0,3.73-1.85l.57,4.12a9.71,9.71,0,0,1-3.87,1.43A8.92,8.92,0,0,1,1242.43,611.3Z"/><path class="cls-8" d="M1264.45,603.87l.61,4.21c-1.66-.12-3.49.51-3.12,3.12l.89,6.14-3.61.54-1.84-12.68,3.62-.54.27,1.91A4.31,4.31,0,0,1,1264.45,603.87Z"/><path class="cls-8" d="M1271,603.69l-2,.29.29,2.06-1.65.24-.3-2-2,.29-.23-1.63,2-.29-.29-2,1.66-.25.28,2,2-.3Z"/><path class="cls-8" d="M1279.25,602.81a3.61,3.61,0,0,1-7.15,1h0a9.18,9.18,0,0,1,.75-3.92c.36-1.12.73-2.17,1.12-3.41l2.34-.34-1.27,3.67.13,0A3.46,3.46,0,0,1,1279.25,602.81Zm-2.13.24a1.47,1.47,0,1,0-1.25,1.7A1.47,1.47,0,0,0,1277.12,603.05Z"/><path class="cls-8" d="M1298,603l.26,1.8-8.09,6.8-.51-3.5,4.74-3.6-5.55-2.06-.52-3.57Z"/><path class="cls-8" d="M1308.24,601.54A9,9,0,0,1,1316,591a9.17,9.17,0,0,1,4.12.27l.61,4.08a6.07,6.07,0,0,0-4.1-.69,5.56,5.56,0,0,0,1.59,11,6,6,0,0,0,3.74-1.85l.56,4.11a9.51,9.51,0,0,1-3.87,1.43A8.91,8.91,0,0,1,1308.24,601.54Z"/><path class="cls-8" d="M1330.26,594.1l.61,4.21c-1.66-.12-3.49.52-3.11,3.13l.88,6.14-3.61.53-1.83-12.68,3.61-.53.28,1.9A4.3,4.3,0,0,1,1330.26,594.1Z"/><path class="cls-8" d="M1336.82,593.92l-2,.3.3,2-1.66.25-.29-2.06-2,.3-.24-1.63,2-.29-.29-2,1.66-.24.29,2,2-.29Z"/><path class="cls-8" d="M1345.18,593.09a3.56,3.56,0,0,1-3.11,4,3.67,3.67,0,0,1-4-2.17l1.76-1.22a1.91,1.91,0,0,0,1.93,1.24,1.49,1.49,0,0,0,1.28-1.72,1.47,1.47,0,0,0-1.71-1.22,2.41,2.41,0,0,0-1.2.58l-1-1,0,0,2.09-2.92-3.41.5-.31-2.12,6-.89.27,1.83-1.59,2.24A3.28,3.28,0,0,1,1345.18,593.09Z"/><path class="cls-2" d="M1284.65,639.17s-.27-2.54-1.66-2.85-1.61,3.08-1.61,3.08l-5,3.54c2.41-2.85.34-6.39.34-6.39a8.56,8.56,0,0,0,1.37-7c-1.84-10-13.61-7.11-13.61-7.11s-12,1.6-10.16,11.6a8.46,8.46,0,0,0,3.75,6s-.67,4.06,2.59,5.83l-5.95-1.46s-1.42-3.08-2.61-2.28-.53,3.26-.53,3.26-1.84.83-1.17,2.42,3.77-.14,3.77-.14l8.27,2.18.2,1.11-3.57,3.26-2.66.5c-1.28.24-2,.57-2.13,1.27s2.06,1.43,2.06,1.43,0,3.36,1.61,3a1.65,1.65,0,0,0,1.34-2,4.78,4.78,0,0,1,1.28-1.78l3.63-3s1.52,2.39,6.32,1.49,5.36-3.69,5.36-3.69l4.44,1.46a4.74,4.74,0,0,1,1.83,1.18,1.65,1.65,0,0,0,2,1.36c1.65-.31.41-3.43.41-3.43s1.81-1.49,1.42-2.09-1.16-.64-2.45-.4l-2.66.5-4.49-1.73-.2-1.12,6.94-5s3.5.49,3.56-1.25S1284.65,639.17,1284.65,639.17Zm-21,4.25c-3.34.3-3.65-3.42-3.65-3.42s-.22-1.14,2.32-2.07,3.27-.28,3.27-.28c.49.22.6.94.6.94S1267,643.13,1263.62,643.42Zm5.2,2.62s.06,1.81-1.29.56.53-4.72.68-3.87Zm1.92,0c-.82,1.67-1.41,0-1.41,0l-.6-3.31C1268.57,641.79,1271.56,644.33,1270.74,646Zm2.57-4.39c-3.22.94-4.1-3.59-4.1-3.59a1.37,1.37,0,0,1,.23-1.1s.39-.87,3.15-.93,2.9,1.09,2.9,1.09S1276.53,640.65,1273.31,641.6Z"/><path class="cls-4" d="M1348.33,624.05a15.35,15.35,0,0,1-11.1,18.55,15.14,15.14,0,0,1-18.35-11.2,15.34,15.34,0,0,1,11.1-18.54A15.14,15.14,0,0,1,1348.33,624.05Z"/><path class="cls-2" d="M1330.72,624.36c.47,1.93.13,3.67-.77,3.9s-2-1.17-2.46-3.1-.13-3.68.76-3.9S1330.25,622.42,1330.72,624.36Z"/><path class="cls-2" d="M1337.84,622.58c.47,1.93.13,3.68-.76,3.9s-2-1.16-2.47-3.1-.13-3.67.76-3.9S1337.37,620.65,1337.84,622.58Z"/><path class="cls-10" d="M1343.23,627.58c1.08,4.44-2.12,9-7.15,10.31s-10-1.33-11.06-5.76"/><path class="cls-11" d="M1212.64,607.32l8.4,1c.1-.15.21-.29.3-.45a8.15,8.15,0,0,0-14.06-8.23s-5.12,9.36-22,19.61a8.14,8.14,0,1,0,7.84,14.25,96.61,96.61,0,0,0,23.07-19.15Z"/><path class="cls-11" d="M1297.63,701.4l2.22-4.35c-.85-1.16-1.43-1.81-1.43-1.81a5.35,5.35,0,0,0-2.22-1.54,5.41,5.41,0,0,0-6.5,7.89,51.41,51.41,0,0,1,5.09,16.33,7.34,7.34,0,0,0,.08.82,5.76,5.76,0,0,0,11.09,1.08,5.66,5.66,0,0,0,.34-2.49,29.59,29.59,0,0,0-3.14-14.68Z"/><path class="cls-12" d="M1122.71,619.74c-2.88.92-6.21-.65-7.92-3.73a7.73,7.73,0,0,1-.88-5.38,5.64,5.64,0,0,1,2.76-3.9,5.38,5.38,0,0,1,.95-.42c2.88-.92,6.2.65,7.92,3.73a7.82,7.82,0,0,1,.88,5.39,5.46,5.46,0,0,1-3.71,4.31Z"/><path class="cls-12" d="M1139.24,624.49c-1.55,2.6-5.08,3.62-8.4,2.44a7.82,7.82,0,0,1-4.23-3.46,5.68,5.68,0,0,1-.5-4.75,4.73,4.73,0,0,1,.44-.94c1.55-2.59,5.08-3.62,8.41-2.43a7.82,7.82,0,0,1,4.22,3.45,5.69,5.69,0,0,1,.51,4.75A5.08,5.08,0,0,1,1139.24,624.49Z"/><path class="cls-12" d="M1114.72,597.77c-2.25-2.92-6-4-8.6-2.56a5.23,5.23,0,0,0-2.69,4.64,7.1,7.1,0,0,0,.12,1.59h4.85l-1.87,5c2.21,1.84,5.07,2.39,7.25,1.19a4.31,4.31,0,0,0,.63-.42,5.5,5.5,0,0,0,2.06-4.22A8.15,8.15,0,0,0,1114.72,597.77Z"/><path class="cls-11" d="M1392.66,603.76a7,7,0,0,0-14-.26l5.81,4.12-6.52,1.56a66.35,66.35,0,0,1-7.17,18.34,6.73,6.73,0,0,0-1.2,3.84,7,7,0,0,0,7,6.9,7,7,0,0,0,6.22-3.68,82.57,82.57,0,0,0,9.86-30h0C1392.64,604.28,1392.66,604,1392.66,603.76Z"/><path class="cls-11" d="M1320.76,652a4.89,4.89,0,0,0-2,1.9l2.39,4.12-3.62.14a46.51,46.51,0,0,1-6.67,15.17,5.36,5.36,0,0,0-.7,5.84,5.13,5.13,0,0,0,6.72,2.72,4.66,4.66,0,0,0,2-1.84c10.1-15,9.58-22.42,9.58-22.42a6.07,6.07,0,0,0-.57-2.77A5.39,5.39,0,0,0,1320.76,652Z"/><path class="cls-12" d="M1377.32,673.1c-1,3.66-4.85,6.14-9.26,5.88a9.79,9.79,0,0,1-6.3-2.67,7.1,7.1,0,0,1-2.27-5.54,6.19,6.19,0,0,1,.2-1.29c1-3.66,4.84-6.14,9.26-5.88a9.78,9.78,0,0,1,6.29,2.67,7.12,7.12,0,0,1,2.28,5.54A6.93,6.93,0,0,1,1377.32,673.1Z"/><path class="cls-12" d="M1393.44,658.78c1.71,3.38.42,7.81-3.06,10.53a9.8,9.8,0,0,1-6.5,2.16,7.12,7.12,0,0,1-5.36-2.66,6,6,0,0,1-.7-1.1c-1.71-3.38-.42-7.8,3.06-10.53a9.78,9.78,0,0,1,6.49-2.15,7.11,7.11,0,0,1,5.37,2.65A6,6,0,0,1,1393.44,658.78Z"/><path class="cls-12" d="M1408.86,647c1.39,3.52-.29,7.82-4,10.21a9.75,9.75,0,0,1-6.66,1.56,7.13,7.13,0,0,1-5.11-3.13,7.44,7.44,0,0,1-.59-1.16c-1.39-3.52.29-7.81,4-10.21a9.75,9.75,0,0,1,6.66-1.56,7.2,7.2,0,0,1,5.11,3.13A7.44,7.44,0,0,1,1408.86,647Z"/><path class="cls-12" d="M1428.52,645.47c0,3.79-3.23,7.12-7.58,7.93a9.76,9.76,0,0,1-6.75-1.08,7.13,7.13,0,0,1-3.54-4.83,6.28,6.28,0,0,1-.11-1.3c0-3.78,3.23-7.12,7.57-7.93a9.83,9.83,0,0,1,6.76,1.08,6.85,6.85,0,0,1,3.65,6.13Z"/><path class="cls-12" d="M1358.52,673.5a6.85,6.85,0,0,0-3.09-5,10.16,10.16,0,0,0-6.74-1.68,9.83,9.83,0,0,0-7.38,4.17l5.35,3.34-5.74,3.16a7.52,7.52,0,0,0,2.4,2.68,10.21,10.21,0,0,0,6.74,1.67c4.6-.42,8.24-3.6,8.47-7.39A6,6,0,0,0,1358.52,673.5Z"/><path class="cls-11" d="M1136.46,708.94l.74-4.72A69.25,69.25,0,0,0,1118.89,692v0a5.12,5.12,0,0,0-.59-.21,5.49,5.49,0,0,0-3.26,10.48s6.93,1.94,16.23,11.49a5.55,5.55,0,0,0,2.65,1.79,5.48,5.48,0,0,0,6.48-7.8Z"/></g><g id="Layer_77" data-name="Layer 77"><path class="cls-2" d="M1136.8,408.19s11.78,6.23,16.94,12.3c0,0-6.14,10.06-15,12s-13.26-2.23-13.26-2.23S1126.08,410.75,1136.8,408.19Z"/><path class="cls-2" d="M1145.83,437.36s-14.75,2.13-15.88,4.94a6,6,0,0,0,0,4.87s5,5.53,19.74,4.42C1149.69,451.59,1150.82,443.21,1145.83,437.36Z"/><path class="cls-2" d="M1181.94,433s-3.63-9.53-8-10.2a20.75,20.75,0,0,0-7.49.12,11.13,11.13,0,0,0-6.32,12.94S1173.08,436.39,1181.94,433Z"/><path class="cls-2" d="M1114.73,430.05s-22.62,5.84-23,14.06,16.3,6.06,16.3,6.06,13.38-2,12.31-13.2C1119.59,428.58,1114.73,430.05,1114.73,430.05Z"/><path class="cls-2" d="M1255.18,413.69s-23-5.08-31.49,1,6.38,11.48,6.38,11.48,12.16,4.14,22.52-4.86C1260.34,414.61,1255.18,413.69,1255.18,413.69Z"/><path class="cls-2" d="M1193.3,453.28s-13.78-13-26.18-11.43-5.46,11.68-5.46,11.68,5.94,8.05,22.52,4.87C1196.58,456,1193.3,453.28,1193.3,453.28Z"/><path class="cls-2" d="M1097.77,408.8s-4.46,10.8-20,22.72l4,2.38s21.28-2.38,26.27-12.55,0-13.85,0-13.85S1101.76,406.42,1097.77,408.8Z"/><path class="cls-2" d="M1206,415.39s-14.44-4-25.55-.44c0,0-2.53,1.69,4.22,5.56a28.49,28.49,0,0,1,7.46,5.94s10.35,8.65,15.49-3C1211,415.73,1206,415.39,1206,415.39Z"/><path class="cls-2" d="M1322.92,444.39s-12.84-5.28-19.05-10.91c0,0,4.27-10.46,12.71-13s13.57,1.2,13.57,1.2S1333.1,441,1322.92,444.39Z"/><path class="cls-2" d="M1370,451.23s15.26-3.47,15.92-6.54a6.71,6.71,0,0,0-.94-5.18s-6.37-5.46-21.83-3.08C1363.18,436.43,1363.59,445.43,1370,451.23Z"/><path class="cls-2" d="M1273.6,423.21s5.33,9.19,9.76,9.53a20.16,20.16,0,0,0,7.41-.7s7.71-4,3.94-13.33C1294.71,418.71,1281.78,419.17,1273.6,423.21Z"/><path class="cls-2" d="M1278.28,450.62s21.6,7.29,31.37,2.07-3.63-12-3.63-12-11.06-5.28-23.4,2.59C1273.4,449.19,1278.28,450.62,1278.28,450.62Z"/><path class="cls-2" d="M1204.36,448s23.81,3.28,31.09-3.45-8.42-10.91-8.42-10.91-12.82-3.18-21.48,6.56C1199.07,447.46,1204.36,448,1204.36,448Z"/><path class="cls-2" d="M1395.14,445.19s18.94,4.33,25.88-.89-5.25-9.78-5.25-9.78a19.38,19.38,0,0,0-18.5,4.15C1390.9,444.4,1395.14,445.19,1395.14,445.19Z"/><path class="cls-2" d="M1436.9,416s-19.56-2.79-25.55,2.94,6.92,9.31,6.92,9.31,10.54,2.7,17.66-5.6C1441.25,416.4,1436.9,416,1436.9,416Z"/><path class="cls-2" d="M1351.82,439.51s2.65-11.84,16.81-25.78l-4.7-2.2s-22.17,4.27-25.5,15.49,2.68,14.71,2.68,14.71S1348,442.36,1351.82,439.51Z"/><path class="cls-2" d="M1389.82,432.34s9.18-9.16,5.43-17.44c0,0-2.28-2-9.78,1.87a48.12,48.12,0,0,1-11,4s-15.93,5.5,2,11.17C1388.36,435.71,1389.82,432.34,1389.82,432.34Z"/><path class="cls-2" d="M1252.94,442.53s15.06,2.89,25.46-1.51c0,0,2.2-1.88-5.2-5.2a33.1,33.1,0,0,1-8.49-5.33s-11.84-7.8-14.83,4.17C1247.91,442.58,1252.94,442.53,1252.94,442.53Z"/><path class="cls-2" d="M1377.24,414.49s-11.78-6.22-16.94-12.29c0,0,6.14-10.06,15-12s13.26,2.23,13.26,2.23S1388,411.94,1377.24,414.49Z"/><path class="cls-2" d="M1368.21,385.32s14.75-2.13,15.88-4.93a5.94,5.94,0,0,0,0-4.87s-5-5.53-19.73-4.43C1364.36,371.09,1363.22,379.48,1368.21,385.32Z"/><path class="cls-2" d="M1332.1,389.69s3.64,9.53,8,10.2a20.75,20.75,0,0,0,7.49-.12,11.1,11.1,0,0,0,6.31-12.94S1341,386.3,1332.1,389.69Z"/><path class="cls-2" d="M1399.31,392.64s22.62-5.85,23-14.07-16.3-6.06-16.3-6.06-13.38,2-12.31,13.2C1394.46,394.11,1399.31,392.64,1399.31,392.64Z"/><path class="cls-2" d="M1258.86,409s23.05,5.08,31.49-1.05-6.38-11.48-6.38-11.48-12.16-4.13-22.52,4.87C1253.7,408.07,1258.86,409,1258.86,409Z"/><path class="cls-2" d="M1416.27,413.88s4.46-10.79,20-22.72l-4-2.38S1411,391.16,1406,401.33s0,13.85,0,13.85S1412.28,416.26,1416.27,413.88Z"/><path class="cls-2" d="M1308.09,407.29s14.44,4,25.55.45c0,0,2.53-1.7-4.21-5.56a28.35,28.35,0,0,1-7.47-5.95s-10.35-8.65-15.48,3C1303.08,407,1308.09,407.29,1308.09,407.29Z"/><path class="cls-2" d="M1191.12,378.29s12.83,5.29,19.05,10.92c0,0-4.28,10.46-12.7,13s-13.58-1.21-13.58-1.21S1180.94,381.65,1191.12,378.29Z"/><path class="cls-2" d="M1144,371.45s-15.26,3.47-15.92,6.55a6.68,6.68,0,0,0,.94,5.17s6.37,5.47,21.84,3.09C1150.87,386.26,1150.45,377.25,1144,371.45Z"/><path class="cls-2" d="M1240.44,399.47s-5.33-9.19-9.76-9.52a20.31,20.31,0,0,0-7.41.69s-7.71,4-3.93,13.34C1219.34,404,1232.26,403.52,1240.44,399.47Z"/><path class="cls-2" d="M1235.76,372.07s-21.6-7.3-31.37-2.08,3.63,12,3.63,12,11.06,5.29,23.4-2.59C1240.64,373.49,1235.76,372.07,1235.76,372.07Z"/><path class="cls-2" d="M1309.68,374.69s-23.81-3.28-31.09,3.45,8.42,10.91,8.42,10.91,12.82,3.18,21.49-6.55C1315,375.22,1309.68,374.69,1309.68,374.69Z"/><path class="cls-2" d="M1118.9,377.49s-18.94-4.33-25.88.89,5.25,9.79,5.25,9.79a19.43,19.43,0,0,0,18.51-4.15C1123.14,378.28,1118.9,377.49,1118.9,377.49Z"/><path class="cls-2" d="M1077.14,406.73s19.57,2.8,25.54-2.94-6.91-9.3-6.91-9.3-10.54-2.71-17.66,5.59C1072.79,406.28,1077.14,406.73,1077.14,406.73Z"/><path class="cls-2" d="M1162.23,383.17S1159.57,395,1145.41,409l4.7,2.2s22.17-4.27,25.5-15.48-2.68-14.72-2.68-14.72S1166,380.32,1162.23,383.17Z"/><path class="cls-2" d="M1124.22,390.34s-9.18,9.16-5.43,17.44c0,0,2.28,2,9.79-1.87a47.64,47.64,0,0,1,11-4s15.93-5.51-2-11.18C1125.68,387,1124.22,390.34,1124.22,390.34Z"/><path class="cls-2" d="M1261.1,380.16s-15.06-2.9-25.46,1.51c0,0-2.2,1.87,5.2,5.19a33,33,0,0,1,8.49,5.34s11.84,7.8,14.83-4.18C1266.13,380.11,1261.1,380.16,1261.1,380.16Z"/><path class="cls-2" d="M1384.81,498.17s-11.78-6.23-16.94-12.3c0,0,6.14-10.06,15-12s13.26,2.24,13.26,2.24S1395.53,495.61,1384.81,498.17Z"/><path class="cls-2" d="M1375.78,469s14.75-2.12,15.88-4.93a6,6,0,0,0,0-4.87s-5-5.53-19.74-4.42C1371.92,454.77,1370.79,463.15,1375.78,469Z"/><path class="cls-2" d="M1339.54,473.64s4,9.44,8.33,10a20.57,20.57,0,0,0,7.48-.3,11,11,0,0,0,5.85-13.09S1348.27,470,1339.54,473.64Z"/><path class="cls-2" d="M1406.88,476.31s22.62-5.84,22.95-14.06-16.3-6.06-16.3-6.06-13.38,2-12.31,13.2C1402,477.78,1406.88,476.31,1406.88,476.31Z"/><path class="cls-2" d="M1270.21,493.9s23,5.08,31.49-1-6.38-11.49-6.38-11.49-12.16-4.13-22.52,4.87C1265.05,493,1270.21,493.9,1270.21,493.9Z"/><path class="cls-2" d="M1328.31,453.08s13.78,13.05,26.18,11.43,5.46-11.68,5.46-11.68-5.94-8.05-22.52-4.87C1325,450.33,1328.31,453.08,1328.31,453.08Z"/><path class="cls-2" d="M1419.21,498.84s4.46-10.8,20-22.72l-4-2.38s-21.29,2.38-26.28,12.55,0,13.85,0,13.85S1415.22,501.22,1419.21,498.84Z"/><path class="cls-2" d="M1397.21,500.88s9.47,8.53,12.59,15.49c0,0-9,8.42-18.17,8.4s-12.13-5-12.13-5S1386.06,501.08,1397.21,500.88Z"/><path class="cls-2" d="M1366.63,510.89s-14.91-1.07-16.87,1.4a6.14,6.14,0,0,0-1.5,4.71s3.11,6.4,17.72,8.47C1366,525.47,1369.66,517.6,1366.63,510.89Z"/><path class="cls-2" d="M1344,506.12s13.62-1.59,33.44,4.46l.75-4s-12.21-14.67-25.39-13.75-14.87,6.28-14.87,6.28S1339.59,504.24,1344,506.12Z"/><path class="cls-2" d="M1257.62,456.21s5.83,10.52,3.59,26.06l5.37.47s15.38-9.87,10.53-20.07-12.17-11.36-12.17-11.36S1258.8,452.77,1257.62,456.21Z"/><path class="cls-2" d="M1315.66,491s14.44,4,25.55.44c0,0,2.53-1.69-4.22-5.56a28.49,28.49,0,0,1-7.46-5.94s-10.35-8.65-15.49,3C1310.65,490.63,1315.66,491,1315.66,491Z"/><path class="cls-2" d="M1202.47,463.2s12.83,5.28,19,10.91c0,0-4.28,10.46-12.71,13s-13.57-1.2-13.57-1.2S1192.29,466.56,1202.47,463.2Z"/><path class="cls-2" d="M1155.36,456.36s-15.26,3.47-15.92,6.54a6.71,6.71,0,0,0,.94,5.18s6.37,5.46,21.83,3.08C1162.21,471.16,1161.8,462.16,1155.36,456.36Z"/><path class="cls-2" d="M1251.79,484.38s-5.34-9.19-9.76-9.53a20.39,20.39,0,0,0-7.42.69s-7.7,4-3.93,13.34C1230.68,488.88,1243.61,488.42,1251.79,484.38Z"/><path class="cls-2" d="M1247.11,457s-21.6-7.29-31.37-2.07,3.63,12,3.63,12,11.06,5.28,23.39-2.59C1252,458.4,1247.11,457,1247.11,457Z"/><path class="cls-2" d="M1185.92,563.23s23.8-1.31,29.44-9.36-10.48-9.18-10.48-9.18-13.12-.69-19.46,10.6C1180.68,563.73,1185.92,563.23,1185.92,563.23Z"/><path class="cls-2" d="M1299.34,550s13.67,13.13,26.08,11.59S1331,550,1331,550s-5.87-8.08-22.48-5C1296.08,547.28,1299.34,550,1299.34,550Z"/><path class="cls-2" d="M1228.13,539s.93-12.61-6.11-20.6c0,0-2.63-1.58-5.38,4.83a24.64,24.64,0,0,1-5,7.53s-7.39,10.54,7.52,11.62C1229,543.05,1228.13,539,1228.13,539Z"/><path class="cls-2" d="M1237.55,524.17s-3.62,19.12,4.74,25.82,13.22-5.67,13.22-5.67,3.67-10.14-8.39-18.31C1238.1,519.9,1237.55,524.17,1237.55,524.17Z"/><path class="cls-2" d="M1321,459.6s-23.81-3.28-31.09,3.44,8.42,10.92,8.42,10.92,12.82,3.17,21.48-6.56C1326.32,460.12,1321,459.6,1321,459.6Z"/><path class="cls-2" d="M1362,533.88s-8,9.84-15.6,14.2c0,0-11.91-4.93-13.86-12.21a10.21,10.21,0,0,1,3.27-11S1359.33,525.05,1362,533.88Z"/><path class="cls-2" d="M1367.7,565.32s11.62-16.78,6.7-25.52-14.79,1.38-14.79,1.38-7.8,8.38-.06,19.59C1365.34,569.15,1367.7,565.32,1367.7,565.32Z"/><path class="cls-2" d="M1384.19,531.38s-7.13,19.14-.08,26,14.16-5.45,14.16-5.45,5.52-10.12-4.93-18.56C1385.52,527.1,1384.19,531.38,1384.19,531.38Z"/><path class="cls-2" d="M1134,456.25s-18.94-4.33-25.88.89,5.24,9.79,5.24,9.79a19.45,19.45,0,0,0,18.52-4.15C1138.27,457,1134,456.25,1134,456.25Z"/><path class="cls-2" d="M1093.57,457.7s-11.86-3.43-21-.38c0,0-2.07,1.45,3.47,4.74a23.68,23.68,0,0,1,6.14,5.07s8.5,7.37,12.72-2.57C1097.69,458,1093.57,457.7,1093.57,457.7Z"/><path class="cls-2" d="M1092.27,485.49s19.56,2.8,25.54-2.94-6.91-9.3-6.91-9.3-10.54-2.71-17.66,5.59C1087.92,485,1092.27,485.49,1092.27,485.49Z"/><path class="cls-2" d="M1173.58,468.08s-2.66,11.84-16.82,25.78l4.7,2.2s22.17-4.28,25.5-15.49-2.68-14.72-2.68-14.72S1177.35,465.22,1173.58,468.08Z"/><path class="cls-2" d="M1124.58,537.23s10.93-4.21,11.17-7.87a12.31,12.31,0,0,0-1.1-6.15s-5.11-6.46-16.28-3.54C1118.37,519.67,1119.39,530.37,1124.58,537.23Z"/><path class="cls-2" d="M1191.72,501.37s-23.06-5.08-31.5,1,6.39,11.49,6.39,11.49,12.16,4.13,22.52-4.87C1196.88,502.29,1191.72,501.37,1191.72,501.37Z"/><path class="cls-2" d="M1230,509.4s-8.91-15.7-21.36-17-9.13,10-9.13,10,3,9.09,20,9.84C1232.28,512.8,1230,509.4,1230,509.4Z"/><path class="cls-2" d="M1142.49,503.08s-14.44-4-25.56-.45c0,0-2.52,1.69,4.22,5.56a28.45,28.45,0,0,1,7.47,5.94s10.35,8.66,15.48-3C1147.49,503.41,1142.49,503.08,1142.49,503.08Z"/><path class="cls-2" d="M1127.05,549.37s11,8.71,22.94,9.36c0,0,3.15-.65-1-6.51a22.89,22.89,0,0,1-3.74-8s-5-11.47-15.57-2.69C1122.69,547.32,1127.05,549.37,1127.05,549.37Z"/><path class="cls-2" d="M1140.9,535.67s23.8,3.28,31.08-3.44-8.41-10.92-8.41-10.92-12.83-3.17-21.49,6.56C1135.61,535.15,1140.9,535.67,1140.9,535.67Z"/><path class="cls-2" d="M1197.5,520.3s-12.16-1.45-15,1.42a13.33,13.33,0,0,0-3.44,5.49s-.3,7.54,11.15,10.15C1190.25,537.36,1197,528.19,1197.5,520.3Z"/><path class="cls-2" d="M1189,544.65s-21.6-7.29-31.37-2.07,3.63,12,3.63,12,11.06,5.29,23.39-2.59C1193.91,546.08,1189,544.65,1189,544.65Z"/><path class="cls-2" d="M1135.57,475.25s-9.18,9.15-5.43,17.43c0,0,2.28,2.05,9.78-1.86a48.12,48.12,0,0,1,11-4s15.93-5.5-2-11.17C1137,471.88,1135.57,475.25,1135.57,475.25Z"/><path class="cls-2" d="M1264,535.5s10.42,15,23,15.47,8.12-10.56,8.12-10.56-3.91-8.86-20.92-8.45C1261.45,532.26,1264,535.5,1264,535.5Z"/><path class="cls-2" d="M1260.07,524.27S1248.74,517,1244,510.46c0,0,6.67-9.56,15.54-10.71s13,3.4,13,3.4S1270.84,522.64,1260.07,524.27Z"/><path class="cls-2" d="M1417.3,544.3S1406,537,1401.21,530.49c0,0,6.68-9.56,15.55-10.71s13,3.4,13,3.4S1428.08,542.67,1417.3,544.3Z"/><path class="cls-2" d="M1113.89,511.77s-11.8-5.85-22.65-20.9l-3.63,2.75s-1.6,17.78,9.36,23.93,16.33,2.86,16.33,2.86S1115.88,515.51,1113.89,511.77Z"/><path class="cls-2" d="M1100.79,526.72s9.47,8.53,12.58,15.49c0,0-9,8.42-18.17,8.4s-12.13-5-12.13-5S1089.64,526.92,1100.79,526.72Z"/><path class="cls-2" d="M1113.11,574.11s-11.32-7.27-16.09-13.81c0,0,6.68-9.56,15.55-10.71s13,3.4,13,3.4S1123.89,572.48,1113.11,574.11Z"/><path class="cls-2" d="M1302,538.66s15.78-.9,17.16-3.81a6.5,6.5,0,0,0,.3-5.23s-5-6.4-20.68-6.59C1298.73,523,1297,531.93,1302,538.66Z"/><path class="cls-2" d="M1231.8,507.38s15.79-.91,17.16-3.81a6.5,6.5,0,0,0,.3-5.23s-4.94-6.4-20.67-6.59C1228.59,491.75,1226.86,500.64,1231.8,507.38Z"/><path class="cls-2" d="M1289.56,524.2s5.41-11.17,22.59-22.53l-4.09-2.92s-22.74.57-28.67,11-.86,14.87-.86,14.87S1285.17,526.38,1289.56,524.2Z"/><path class="cls-2" d="M1327.18,523.38s11.17-7.48,9.45-16.22c0,0-1.75-2.37-10,.24a50.68,50.68,0,0,1-11.74,2.15s-16.93,2.8-.66,11.29C1324.94,526.44,1327.18,523.38,1327.18,523.38Z"/><path class="cls-3" d="M1404.78,576.15h0a70.74,70.74,0,0,0,4.58-6.74c1.56,2.69,4.58,6.74,4.58,6.74h0l.07.09a3.88,3.88,0,0,1,.68,2.18c0,2.44-2.39,4.42-5.33,4.42s-5.34-2-5.34-4.42A3.82,3.82,0,0,1,1404.78,576.15Z"/><path class="cls-3" d="M1155.53,574.5h0a77.32,77.32,0,0,0,5-7.29c1.69,2.9,5,7.29,5,7.29h0l.08.1a4.19,4.19,0,0,1,.74,2.35c0,2.65-2.59,4.8-5.78,4.8s-5.77-2.15-5.77-4.8A4.17,4.17,0,0,1,1155.53,574.5Z"/><path class="cls-3" d="M1224.49,565.93h0a60.1,60.1,0,0,0,3.75-5.49c1.26,2.18,3.73,5.49,3.73,5.49h0l.06.08a3.18,3.18,0,0,1,.56,1.77c0,2-1.95,3.61-4.35,3.61s-4.36-1.61-4.36-3.61A3.14,3.14,0,0,1,1224.49,565.93Z"/><path class="cls-3" d="M1197.05,579.43h0a48.15,48.15,0,0,0,3-4.46c1,1.77,3,4.46,3,4.46h0l0,.06a2.54,2.54,0,0,1,.46,1.44c0,1.62-1.59,2.93-3.54,2.93s-3.53-1.31-3.53-2.93A2.6,2.6,0,0,1,1197.05,579.43Z"/><path class="cls-3" d="M1124.05,582.85h0a47.5,47.5,0,0,0,3-4.46c1,1.78,3,4.46,3,4.46h0l.05.07a2.5,2.5,0,0,1,.45,1.43,3.59,3.59,0,0,1-7.06,0A2.53,2.53,0,0,1,1124.05,582.85Z"/><path class="cls-3" d="M1275,566.21h0a78.09,78.09,0,0,0,5-7.28c1.69,2.9,5,7.28,5,7.28h0l.07.11a4.08,4.08,0,0,1,.75,2.35c0,2.64-2.59,4.79-5.78,4.79s-5.77-2.15-5.77-4.79A4.18,4.18,0,0,1,1275,566.21Z"/><path class="cls-3" d="M1301.57,575.71h0a52,52,0,0,0,3.35-4.93c1.14,2,3.36,4.93,3.36,4.93h0a.18.18,0,0,0,0,.07,2.8,2.8,0,0,1,.5,1.59c0,1.79-1.75,3.24-3.91,3.24s-3.9-1.45-3.9-3.24A2.82,2.82,0,0,1,1301.57,575.71Z"/><path class="cls-3" d="M1349.68,566.94h0A52.84,52.84,0,0,0,1353,562c1.14,2,3.35,4.93,3.35,4.93h0l0,.07a2.8,2.8,0,0,1,.5,1.59c0,1.79-1.75,3.24-3.9,3.24s-3.91-1.45-3.91-3.24A2.75,2.75,0,0,1,1349.68,566.94Z"/><path class="cls-3" d="M1191.76,365.57a31,31,0,0,0-6.6,8.22,27,27,0,0,0-2,4.83,32.07,32.07,0,0,0-1,5.13,45.57,45.57,0,0,0-.27,5.23l.1,5.32a26,26,0,0,0,.5,5.07,9.8,9.8,0,0,0,2,4.19,12.3,12.3,0,0,0,3.72,2.89,17.24,17.24,0,0,0,4.73,1.43c3.37.63,7,.7,10.69,2a16.6,16.6,0,0,1,5,2.88,30.34,30.34,0,0,1,3.85,4,47,47,0,0,0,3.42,3.89,15.28,15.28,0,0,0,4,2.84c3,1.47,6.46,2.26,9.9,3.47a24.06,24.06,0,0,1,5.11,2.38,12.11,12.11,0,0,1,2.29,1.9,12.42,12.42,0,0,1,1.74,2.44,10.82,10.82,0,0,1,1.46,5.83,9.28,9.28,0,0,1-2.57,5.54,18.09,18.09,0,0,1-4.59,3.44,34.42,34.42,0,0,1-5.06,2.25,44.39,44.39,0,0,1-5.29,1.56c-1.83.38-3.59.59-5.3.89a17.76,17.76,0,0,0-4.73,1.36,15.8,15.8,0,0,0-3.82,2.85,2,2,0,0,0-.38.64.37.37,0,0,0,0,.33,4.91,4.91,0,0,0,1.49,1.32c1.39.9,3,1.74,4.54,2.67A23.71,23.71,0,0,1,1223,470a12.27,12.27,0,0,1,1.91,5.58,10.9,10.9,0,0,1-1.18,5.86,14.84,14.84,0,0,1-3.68,4.5,23.47,23.47,0,0,1-4.69,3.09,49.07,49.07,0,0,1-10.3,3.73,86.34,86.34,0,0,1-10.64,1.92c-7.13.89-14.25,1.24-21.31,1.79-3.52.29-7.08.61-10.5,1.11s-6.72,1.53-8.19,4.17a16.29,16.29,0,0,0-1.61,4.63c-.4,1.7-.8,3.49-1.36,5.26a26.43,26.43,0,0,1-1,2.67,12.36,12.36,0,0,1-1.63,2.48c-1.25,1.49-2.58,2.63-3.6,3.91a14.85,14.85,0,0,0-2.45,4.26,43,43,0,0,1-2.16,5.05,11.68,11.68,0,0,1-1.76,2.42,15.15,15.15,0,0,1-2.24,1.9,30.74,30.74,0,0,1-4.82,2.69,33.52,33.52,0,0,0-4.56,2.33,4.76,4.76,0,0,0-2.43,3.47,9.25,9.25,0,0,0,1.09,4.64,12.76,12.76,0,0,0,3.08,3.94c1.28,1.19,2.68,2.32,3.91,3.69a10,10,0,0,1,2.59,4.86,9.57,9.57,0,0,1-.61,5.38c-.65,1.68-1.55,3.22-2.24,4.86.57-1.69,1.37-3.3,1.88-5a9,9,0,0,0,.24-5.09,9.22,9.22,0,0,0-2.63-4.29c-1.23-1.2-2.67-2.23-4.06-3.39a14.33,14.33,0,0,1-3.69-4.21,11,11,0,0,1-1.58-5.55,6,6,0,0,1,1-3,8.87,8.87,0,0,1,2.11-2.2,36,36,0,0,1,4.76-2.82c3.11-1.63,6.24-3.09,7.67-5.92a41.61,41.61,0,0,0,2-4.75,21.25,21.25,0,0,1,1.21-2.57,18.12,18.12,0,0,1,1.64-2.37c1.21-1.49,2.6-2.69,3.62-3.93a9.48,9.48,0,0,0,1.29-2,22.77,22.77,0,0,0,.88-2.31c.52-1.62.89-3.31,1.3-5.06a19.25,19.25,0,0,1,1.93-5.39,9.67,9.67,0,0,1,4.58-3.92c.45-.22.91-.35,1.36-.52a8.59,8.59,0,0,1,1.37-.41l1.37-.34,1.37-.23c3.61-.53,7.14-.84,10.71-1.13,7.11-.56,14.2-.91,21.19-1.79a83,83,0,0,0,10.33-1.86,46.55,46.55,0,0,0,9.72-3.51c3-1.54,5.76-3.65,7.22-6.43a8.75,8.75,0,0,0-.64-8.84,21.17,21.17,0,0,0-7.3-6.71c-1.5-.91-3-1.7-4.65-2.74a7,7,0,0,1-2.37-2.29,3.06,3.06,0,0,1-.28-2.25,4.44,4.44,0,0,1,.91-1.66,11.76,11.76,0,0,1,2.24-2c.38-.28.77-.53,1.16-.78l.59-.38.67-.37a20,20,0,0,1,5.48-1.61c1.79-.32,3.56-.53,5.21-.87a41.88,41.88,0,0,0,4.93-1.47c3.21-1.17,6.42-2.69,8.6-5a6.61,6.61,0,0,0,1.87-3.93,8.11,8.11,0,0,0-1.14-4.35c-1.43-2.84-4.42-4.35-7.68-5.49s-6.79-1.93-10.2-3.6a18.36,18.36,0,0,1-4.67-3.3,50.36,50.36,0,0,1-3.62-4.12,27.79,27.79,0,0,0-3.49-3.67,14.14,14.14,0,0,0-4.2-2.42c-3.08-1.09-6.65-1.2-10.26-1.85a22.13,22.13,0,0,1-5.44-1.63,12.93,12.93,0,0,1-4.62-3.63,12.07,12.07,0,0,1-2.31-5.42,28.2,28.2,0,0,1-.23-5.55l.23-5.35a49.09,49.09,0,0,1,.6-5.39,33.07,33.07,0,0,1,1.37-5.26,26.78,26.78,0,0,1,2.36-4.88A31.36,31.36,0,0,1,1191.76,365.57Z"/><path class="cls-3" d="M1330.7,373.75a17.67,17.67,0,0,0-3.35,6.71,12,12,0,0,0,.78,7.18,44.54,44.54,0,0,0,3.59,6.59,75.17,75.17,0,0,1,3.87,6.76,15,15,0,0,1,1.58,8.11c-.36,2.9-1.72,5.28-2.65,7.54a17.78,17.78,0,0,0-1.14,3.36,10.08,10.08,0,0,0-.11,3.38c.27,2.31,1.24,4.66,1.86,7.27a17.33,17.33,0,0,1,.52,4.11,12.14,12.14,0,0,1-.8,4.21,20.74,20.74,0,0,1-4.65,6.66,36.06,36.06,0,0,0-4.81,5.55,6.77,6.77,0,0,0-.6,6.22,92.94,92.94,0,0,0,6.55,13.51,43.83,43.83,0,0,0,4.3,6.06,23.74,23.74,0,0,0,5.38,4.81,15.31,15.31,0,0,0,1.54.84c.54.21,1,.48,1.61.64a18.82,18.82,0,0,0,3.51.71c2.43.28,5,.27,7.6.51a29.14,29.14,0,0,1,4,.61,19.52,19.52,0,0,1,3.85,1.35,30.68,30.68,0,0,1,6.7,4.34,42.63,42.63,0,0,1,5.56,5.6c1.61,2.09,3.3,4.23,4.09,7.06a8.56,8.56,0,0,1,.33,2.21,7.11,7.11,0,0,1,0,1.13l-.2,1.12a12.73,12.73,0,0,1-1.81,3.84,36.88,36.88,0,0,0-3.86,6.3c-.24.53-.35,1.09-.54,1.63s-.19,1.14-.3,1.7a4.54,4.54,0,0,0,.65,2.86c1.12,1.84,3.26,3.57,4.71,6a12.74,12.74,0,0,1,1.61,3.94,13.13,13.13,0,0,1,.18,4.23c-.15,1.38-.47,2.67-.73,3.92s-.54,2.44-.73,3.62a10.16,10.16,0,0,0-.09,3.38,8.14,8.14,0,0,0,1.26,3.11,20.76,20.76,0,0,0,5.31,5,45,45,0,0,1,6,4.81,9,9,0,0,1,2.07,3.33,6.94,6.94,0,0,1,.11,3.83,6.76,6.76,0,0,0-.46-3.7,8.34,8.34,0,0,0-2.25-2.92,44.82,44.82,0,0,0-6.3-4.2,22.67,22.67,0,0,1-6.18-5,10.33,10.33,0,0,1-1.9-3.79,12.18,12.18,0,0,1-.26-4.23c.27-2.73,1.23-5.15,1.45-7.49a9.76,9.76,0,0,0-1.41-6.49,20,20,0,0,0-2.2-2.83,22.6,22.6,0,0,1-2.53-3.2,7.28,7.28,0,0,1-1-4.48c.12-.69.21-1.39.37-2.07s.37-1.36.65-2a37.58,37.58,0,0,1,4.1-6.75,10.19,10.19,0,0,0,1.46-3l.13-.76a4,4,0,0,0,0-.77,6.22,6.22,0,0,0-.23-1.58,18.49,18.49,0,0,0-3.57-6.06,40.39,40.39,0,0,0-5.21-5.25,28.14,28.14,0,0,0-6.12-4,17.8,17.8,0,0,0-3.35-1.18,27.7,27.7,0,0,0-3.59-.55c-2.46-.22-5-.21-7.68-.52a20.83,20.83,0,0,1-4-.81c-.67-.19-1.3-.51-2-.76a19.94,19.94,0,0,1-1.82-1,26.48,26.48,0,0,1-6-5.35,45.81,45.81,0,0,1-4.56-6.41q-2-3.35-3.67-6.86c-.56-1.16-1.1-2.34-1.62-3.52l-.76-1.78c-.24-.6-.49-1.14-.74-1.84a10.16,10.16,0,0,1-.6-4.34,9.84,9.84,0,0,1,1.44-4.13,36.82,36.82,0,0,1,5.16-6,18.13,18.13,0,0,0,4.09-5.78,11,11,0,0,0,.18-6.74c-.55-2.35-1.56-4.77-1.92-7.56a13.09,13.09,0,0,1,.15-4.23,20.3,20.3,0,0,1,1.29-3.88c1-2.43,2.21-4.61,2.47-6.83a9,9,0,0,0-.22-3.33,13.29,13.29,0,0,0-.53-1.66c-.23-.57-.45-1.14-.66-1.72-.9-2.29-2-4.54-3.19-6.82a44.79,44.79,0,0,1-3.14-7.13,13,13,0,0,1-.19-7.84A18.05,18.05,0,0,1,1330.7,373.75Z"/><path class="cls-3" d="M1326.21,379a12.46,12.46,0,0,1-2.86,4.25,24.61,24.61,0,0,1-4.1,3.16c-2.91,1.85-6,3.36-8.72,5.16a27.62,27.62,0,0,0-3.91,2.75,16.64,16.64,0,0,0-3,3.58,21.66,21.66,0,0,0-2.88,9,58.36,58.36,0,0,0-.1,9.9,42.86,42.86,0,0,1-.27,10.46,13.83,13.83,0,0,1-2.08,5.16,16.09,16.09,0,0,1-3.84,3.92,51.4,51.4,0,0,1-9.13,5c-3.07,1.44-6.17,2.85-9.36,4.12-1.6.62-3.22,1.21-4.87,1.72-.83.26-1.66.5-2.51.72-.42.11-.84.21-1.27.3l-.64.15a5.18,5.18,0,0,1-.84.1,23.64,23.64,0,0,1-2.7-.16,9.32,9.32,0,0,0-2.19,0,2.21,2.21,0,0,0-1.41.73,9,9,0,0,0-.59.89l-.66,1.07a43.54,43.54,0,0,0-4.45,8.76,20.92,20.92,0,0,0-1.06,4.64,18,18,0,0,0,.17,4.69l.23,1.16.3,1.25.55,2.5c.34,1.69.65,3.39.87,5.13a30.56,30.56,0,0,1-.08,5.24c-.07.87-.18,1.72-.3,2.58a10.58,10.58,0,0,1-.81,2.62,7.67,7.67,0,0,0-.65,2.26,3.05,3.05,0,0,0,0,1.09,3.62,3.62,0,0,0,.44,1.05,6.11,6.11,0,0,1,1.06,2.4,3.48,3.48,0,0,1-.94,2.39,3.29,3.29,0,0,0,.55-2.33,5.71,5.71,0,0,0-1.33-2,4.62,4.62,0,0,1-.7-1.21,4.28,4.28,0,0,1-.22-1.42,9.26,9.26,0,0,1,.39-2.69,8.21,8.21,0,0,0,.41-2.29c0-.83,0-1.66,0-2.48a46.81,46.81,0,0,0-.5-4.89,43.56,43.56,0,0,0-.77-4.89l-.54-2.44-.29-1.23-.26-1.32a20.1,20.1,0,0,1-.2-5.42,23,23,0,0,1,1.19-5.23,46.62,46.62,0,0,1,4.7-9.3l.68-1.1a10.42,10.42,0,0,1,.82-1.2,4.85,4.85,0,0,1,3-1.61,11.14,11.14,0,0,1,2.87-.05c.87.07,1.71.17,2.36.15l.41,0,.6-.13,1.2-.29c.79-.2,1.58-.44,2.37-.68,1.58-.49,3.14-1.06,4.69-1.66,3.1-1.23,6.16-2.62,9.21-4a49.75,49.75,0,0,0,8.66-4.71,13.58,13.58,0,0,0,3.23-3.28,11.1,11.1,0,0,0,1.68-4.19A40.72,40.72,0,0,0,1298,417a61.89,61.89,0,0,1,.11-10.36,24.35,24.35,0,0,1,3.27-10.13,18.6,18.6,0,0,1,3.49-4.16,20.51,20.51,0,0,1,4.38-3.07c3.14-1.54,6.34-2.65,9.35-4.08a24.41,24.41,0,0,0,4.28-2.52A12.05,12.05,0,0,0,1326.21,379Z"/><path class="cls-3" d="M1325.32,462.28a9.3,9.3,0,0,1,2.34,2.88,4.27,4.27,0,0,1,.36,1.92,4.15,4.15,0,0,1-.62,1.91,9.62,9.62,0,0,1-2.75,2.72,28,28,0,0,1-3.23,1.92c-2.24,1-4.55,1.88-6.66,2.94a9.47,9.47,0,0,0-4.71,4.57,6.2,6.2,0,0,0-.53,3.12,10.48,10.48,0,0,0,.94,3.21c1,2.12,2.36,4.13,3.47,6.41a13,13,0,0,1,1.23,3.71,7.76,7.76,0,0,1-.45,4,11.73,11.73,0,0,1-2.13,3.29c-.78.95-1.6,1.88-2.43,2.79-3.32,3.62-6.84,7-9.88,10.7-.75.94-1.49,1.88-2.18,2.86a16,16,0,0,0-1.8,3,6.36,6.36,0,0,0-.57,3.14,17.69,17.69,0,0,0,.72,3.4c.33,1.17.68,2.33,1,3.58a15.46,15.46,0,0,1,.38,3.84,32.91,32.91,0,0,1-1.45,7.35,23.53,23.53,0,0,0-.85,3.43,13.73,13.73,0,0,0,0,3.51,29.79,29.79,0,0,1,.26,3.68,8,8,0,0,1-.88,3.58,7.72,7.72,0,0,0,.38-3.56,32.69,32.69,0,0,0-.67-3.56,15,15,0,0,1-.43-3.77,25.79,25.79,0,0,1,.47-3.75,31.36,31.36,0,0,0,1.4-7,21.85,21.85,0,0,0-1.26-6.89,20.39,20.39,0,0,1-.79-3.75,8.31,8.31,0,0,1,.72-4,18.32,18.32,0,0,1,2-3.28c.71-1,1.48-2,2.25-3,3.13-3.84,6.69-7.22,9.95-10.78.81-.9,1.61-1.8,2.38-2.72a9.88,9.88,0,0,0,1.83-2.81,6,6,0,0,0,.36-3.13,11.86,11.86,0,0,0-1.08-3.2c-1-2.11-2.43-4.13-3.49-6.45a12.07,12.07,0,0,1-1.09-3.78,8,8,0,0,1,.68-4A11.29,11.29,0,0,1,1314,475c2.26-1.1,4.53-2,6.71-3a30.91,30.91,0,0,0,3.25-1.47,8.33,8.33,0,0,0,2.69-2.08,3.25,3.25,0,0,0,.56-3.12A9.16,9.16,0,0,0,1325.32,462.28Z"/><path class="cls-3" d="M1123.64,370c-.86,3.38.87,6.52.49,10.19a11.52,11.52,0,0,1-1.84,5.13,31.63,31.63,0,0,1-3.45,4,28.11,28.11,0,0,0-3.31,3.47,10.2,10.2,0,0,0-.59.92l-.49,1.07a12.12,12.12,0,0,0-.8,2.18,16.59,16.59,0,0,0,.36,9.27,65.13,65.13,0,0,0,3.8,9.17,56.59,56.59,0,0,1,3.82,9.67c.82,3.51.84,6.93,1.39,10.13a17.07,17.07,0,0,0,1.32,4.51,11.29,11.29,0,0,0,2.71,3.63c2.29,2.18,5.33,3.84,7.88,6.47a14,14,0,0,1,1.72,2.14l.76,1.14c.23.4.42.83.63,1.25l.31.63c.09.21.14.45.22.68a13.62,13.62,0,0,1,.38,1.39l.16,1.47a12.26,12.26,0,0,1-.1,1.48,12.71,12.71,0,0,1-2.16,5.2,42.07,42.07,0,0,1-3.3,4.07c-1.13,1.27-2.24,2.51-3.28,3.78-.49.65-1,1.28-1.46,1.95l-.66,1c-.15.32-.32.6-.46.93a16.56,16.56,0,0,0-.86,4.57c-.11,1.63-.14,3.31-.21,5a41.38,41.38,0,0,1-.49,5.23l-.3,1.34-.42,1.34c-.18.45-.38.89-.59,1.33A13.4,13.4,0,0,1,1124,497c-2.67,2.88-6.08,3.87-8.44,6a3.85,3.85,0,0,0-1.38,4,12.58,12.58,0,0,0,2.32,4.37,12.93,12.93,0,0,1-3-4.15,4.77,4.77,0,0,1-.23-2.76,5.61,5.61,0,0,1,1.33-2.47,27,27,0,0,1,4-3.4,15.47,15.47,0,0,0,3.38-3.25,9.51,9.51,0,0,0,1.62-4.07,37.78,37.78,0,0,0,.46-4.86c.07-1.67.09-3.37.22-5.11a18.74,18.74,0,0,1,1-5.36c.18-.45.43-.9.66-1.34l.74-1.11c.48-.75,1-1.41,1.57-2.11,1.11-1.35,2.25-2.63,3.37-3.88a40.7,40.7,0,0,0,3.08-3.8,9.94,9.94,0,0,0,1.73-4.06,9.26,9.26,0,0,0,.07-1l-.11-1.05c-.06-.35-.2-.7-.29-1.05a5.25,5.25,0,0,0-.17-.52l-.25-.51c-.17-.33-.32-.68-.5-1l-.66-1a11.07,11.07,0,0,0-1.45-1.81c-2.16-2.27-5.15-3.91-7.79-6.38a14.12,14.12,0,0,1-3.3-4.45,20.18,20.18,0,0,1-1.53-5.18c-.58-3.48-.62-6.87-1.35-10a54.72,54.72,0,0,0-3.64-9.16,66.07,66.07,0,0,1-3.94-9.56,19.22,19.22,0,0,1-.38-10.72,15.49,15.49,0,0,1,.94-2.57l.58-1.24a12.43,12.43,0,0,1,.77-1.21,24.71,24.71,0,0,1,3.65-3.88,33.07,33.07,0,0,0,3.62-3.26,9.8,9.8,0,0,0,2.09-4.11,18.53,18.53,0,0,0,.2-4.91,18.6,18.6,0,0,1,.09-2.58A9.6,9.6,0,0,1,1123.64,370Z"/><path class="cls-13" d="M1181,396.93c0,4.19-8.1,13-8.08,16.25,0,7.1,11.6,11.69,13.46,18.6,1.07,4-1.16,6.31.21,9.49,1,2.24,5.47,5.49,7.16,7.44s4.39,6.65,5.79,7.82c3.43,2.86,6.68,1.91,10.13,4.62"/><path class="cls-3" d="M1115.2,410.91c.12,2.34.24,4.7.13,7.09a19.63,19.63,0,0,1-.47,3.62,9.49,9.49,0,0,1-1.57,3.4,17.16,17.16,0,0,1-5.7,4.43c-2.06,1.14-4.16,2.17-6.24,3.24-4.13,2.13-8.3,4.33-11.68,7.52a16.75,16.75,0,0,0-5.47,12.4,17,17,0,0,1,5.17-12.7c3.35-3.36,7.5-5.71,11.58-8,2-1.13,4.11-2.23,6.1-3.42a16.29,16.29,0,0,0,5.17-4.25,11.12,11.12,0,0,0,1.57-6.31c0-2.28-.16-4.6-.36-6.91Z"/><path class="cls-3" d="M1390.75,370.78a20.76,20.76,0,0,0-1.43,4.75,19.35,19.35,0,0,0-.29,4.86,31,31,0,0,0,2.37,9.39c2,6.21,5.26,12.11,7.3,18.68a38.57,38.57,0,0,1,1.22,5,25.15,25.15,0,0,1,.3,5.28,20.78,20.78,0,0,1-3.24,10.06c-1.86,3.07-4.53,5.31-5.82,8a8.74,8.74,0,0,0-.9,4.23,9.65,9.65,0,0,0,1.15,4.23c1.36,2.8,3.64,5.34,5.12,8.69.17.43.34.86.48,1.31s.26.94.32,1.34c.18.85.31,1.71.43,2.56.23,1.7.36,3.39.49,5.06s.28,3.28.53,4.87c.12.8.28,1.59.46,2.37s.37,1.7.5,2.55a34.79,34.79,0,0,1,0,10.39,32.71,32.71,0,0,1-1.18,5.07,18.9,18.9,0,0,1-2.24,4.9,13.65,13.65,0,0,1-4,3.71c-1.47.9-2.78,1.82-4.13,2.72-5.49,3.32-9.4,9.09-14.4,13.55,2.1-2.62,4-5.38,5.94-8.09a39.06,39.06,0,0,1,6.9-7.62c1.35-1.08,2.89-1.9,4.23-2.8a10.93,10.93,0,0,0,3.32-3,16.36,16.36,0,0,0,1.89-4.19,31,31,0,0,0,1.08-4.67,32,32,0,0,0,0-9.58c-.13-.79-.28-1.56-.47-2.36s-.36-1.7-.49-2.55c-.28-1.71-.42-3.41-.55-5.08s-.26-3.31-.48-4.91c-.11-.81-.24-1.61-.4-2.39-.07-.42-.18-.74-.26-1.09s-.25-.7-.38-1.05c-1.2-2.8-3.46-5.34-5.06-8.55a15.93,15.93,0,0,1-1-2.55,12.06,12.06,0,0,1-.41-2.8,11.44,11.44,0,0,1,1.17-5.47,22.49,22.49,0,0,1,3-4.36c.53-.64,1.07-1.27,1.56-1.91s1-1.26,1.35-1.93a18,18,0,0,0,2.84-8.79,22.62,22.62,0,0,0-.27-4.71,35.53,35.53,0,0,0-1.13-4.69c-1.93-6.21-5.14-12.13-7.31-18.62a32.1,32.1,0,0,1-1.24-10.23,20.42,20.42,0,0,1,1-5.05A21,21,0,0,1,1390.75,370.78Z"/><path class="cls-3" d="M1399.4,482.38a6,6,0,0,1,.41,2.45c0,.78-.09,1.5-.15,2.21a19,19,0,0,0,0,4.13,14.66,14.66,0,0,0,3.35,7.4,71.28,71.28,0,0,0,6,6.05,21,21,0,0,1,2.83,3.32,12.32,12.32,0,0,1,1.75,4l-.13-.15c1.87,1,3.88,1.65,5.85,2.45a19.66,19.66,0,0,1,5.55,3.1,19.64,19.64,0,0,0-5.64-2.87c-2-.73-4-1.35-6-2.25l-.1-.05,0-.11a14.3,14.3,0,0,0-4.66-6.86,70.05,70.05,0,0,1-6.31-5.92,15.85,15.85,0,0,1-3.92-7.91,20.19,20.19,0,0,1-.14-4.45,8.62,8.62,0,0,0-.27-3.82Z"/><path class="cls-3" d="M1344.27,484.68a6,6,0,0,1,1.78,1.65,3.19,3.19,0,0,1,.61,2.57,7.26,7.26,0,0,1-2.75,4.21,27.35,27.35,0,0,1-8.25,4.26c-.73.25-1.46.48-2.2.69s-1.57.37-2.15.55a7.13,7.13,0,0,0-3.26,2.27c-.23.26-.46.54-.68.83a5.23,5.23,0,0,1-.71.86c-.52.55-1.06,1.11-1.65,1.64a9.07,9.07,0,0,1-2,1.34,6.64,6.64,0,0,1-2.23.62,7.25,7.25,0,0,0,3.31-2.76c.42-.59.79-1.22,1.17-1.87a4.62,4.62,0,0,1,.66-.93c.25-.3.49-.61.76-.91a9.1,9.1,0,0,1,4-2.79c.85-.25,1.5-.35,2.21-.56s1.41-.42,2.1-.66a25.67,25.67,0,0,0,7.69-3.94,5.64,5.64,0,0,0,2.14-3.13,12.1,12.1,0,0,0,0-1.84A7.48,7.48,0,0,0,1344.27,484.68Z"/><path class="cls-3" d="M1270.42,366.31a23.18,23.18,0,0,0,.76,14.31,22.75,22.75,0,0,0,9.1,10.9c2,1.29,4.17,2.45,6.32,3.59a72.44,72.44,0,0,1,6.42,3.67,15.8,15.8,0,0,1,5.25,5.49,16.43,16.43,0,0,1,1.76,7.43l-1.78,0a14.87,14.87,0,0,0-1.36-6.73,14.36,14.36,0,0,0-4.65-5.11,71.69,71.69,0,0,0-6.18-3.78c-2.13-1.21-4.25-2.44-6.29-3.82a23,23,0,0,1-9.35-26Z"/><path class="cls-3" d="M1201.17,491.3a20.25,20.25,0,0,0-3.07,2.23,7.13,7.13,0,0,0-2.06,2.81,10.85,10.85,0,0,0-.36,1.55,5.34,5.34,0,0,0,.13,1.63,12.38,12.38,0,0,0,1.39,3.27c1.24,2.13,2.81,4.16,4.23,6.32a18.66,18.66,0,0,1,3.24,7.31,18.9,18.9,0,0,1-1.2,7.91,38,38,0,0,0-2,7.19,10.49,10.49,0,0,0-.08,1.77,3.59,3.59,0,0,0,.29,1.56c.2.5.53,1,.86,1.64a4.21,4.21,0,0,1,.48,2.33,5,5,0,0,1-.26,1.13l-.2.51a1.93,1.93,0,0,1-.49.68,9.1,9.1,0,0,1-1.81,1.15c-.58.29-1.14.58-1.65.9a6.13,6.13,0,0,0-1.3.82l-.27.32-.22,0a4.54,4.54,0,0,0-1.86.58,4.66,4.66,0,0,1-1.14.4,5.91,5.91,0,0,1-1.17.1l.17-.06a2.51,2.51,0,0,0-.62,1,9.19,9.19,0,0,1-.62,1.26,4,4,0,0,1-.92,1.08,5,5,0,0,1-1.21.67,4.56,4.56,0,0,0,1.1-.8,4.09,4.09,0,0,0,.74-1.1,10.72,10.72,0,0,0,.44-1.28,2.84,2.84,0,0,1,.69-1.36l0,0,.12,0a4,4,0,0,0,1.81-.8,8.67,8.67,0,0,1,1-.67,5.84,5.84,0,0,1,1.16-.49l-.49.33c1-1.51,2.31-1.8,3.41-2.45a7.45,7.45,0,0,0,1.43-.87c.07-.08.06-.06.07-.09l.15-.38a4.14,4.14,0,0,0,.17-.72,2.41,2.41,0,0,0-.3-1.37c-.24-.49-.63-1.07-.91-1.75a5.68,5.68,0,0,1-.43-2.18,14,14,0,0,1,.09-2.05,40.06,40.06,0,0,1,2.12-7.53,12.57,12.57,0,0,0-1.83-13.68c-1.38-2.1-3-4.13-4.29-6.41a14.17,14.17,0,0,1-1.58-3.76,5.72,5.72,0,0,1,.48-4.3,8,8,0,0,1,3-2.81A17,17,0,0,1,1201.17,491.3Z"/><path class="cls-3" d="M1387.17,376.73c-.57,1.56-.61,3.27-1.34,4.79a9,9,0,0,1-3.56,3.45,51.83,51.83,0,0,1-9.15,4c-3.11,1.12-6.23,2.32-8.76,4.44a47.6,47.6,0,0,0-3.6,3.39c-1.19,1.17-2.44,2.26-3.58,3.44a15,15,0,0,0-2.86,3.88,16.09,16.09,0,0,0-.89,2.26,22.87,22.87,0,0,1-1,2.36,19,19,0,0,1-6.57,7.72c-1.45.95-2.93,1.69-4.37,2.5a24.48,24.48,0,0,0-4,2.62,7.83,7.83,0,0,0-2.5,3.72,14.91,14.91,0,0,0-.53,4.65l-1.77,0a16.25,16.25,0,0,1,.75-5.18,9.41,9.41,0,0,1,3.09-4.36c2.77-2.17,6-3.29,8.7-5a17.67,17.67,0,0,0,6.32-7.14,19.2,19.2,0,0,0,1-2.23,19,19,0,0,1,1-2.35,16,16,0,0,1,3.1-4c1.2-1.19,2.47-2.25,3.68-3.38a45.86,45.86,0,0,1,3.71-3.36,20.36,20.36,0,0,1,4.33-2.57c1.53-.69,3.11-1.23,4.68-1.77a51.72,51.72,0,0,0,9.18-3.75,9,9,0,0,0,3.57-3.31C1386.49,380,1386.57,378.28,1387.17,376.73Z"/></g><g id="Layer_78" data-name="Layer 78"><path class="cls-4" d="M1115.17,285.5l10.28-3.94A13.57,13.57,0,0,0,1121,276l-.09-.07a14.74,14.74,0,0,0-2.4-1.4c-1.39-.63-2.75-1.17-4.07-1.7a35.31,35.31,0,0,1-7.85-3.91c-.31-.23-.61-.46-.9-.7a26.11,26.11,0,0,1-4-4.47,33.71,33.71,0,0,0-4.18-4.81,12.84,12.84,0,0,0-1.08-.87,13.27,13.27,0,0,0-19.31,17.28,12.3,12.3,0,0,0,3.61,4,25.11,25.11,0,0,0,6.64,3.13,35.4,35.4,0,0,1,3.64,1.44,25.09,25.09,0,0,1,3.45,2.1,32.36,32.36,0,0,1,4.11,3.57,30.25,30.25,0,0,1,2.33,2.78,23.71,23.71,0,0,0,4.75,5h0a13,13,0,0,0,9.79,2.27,13.16,13.16,0,0,0,8.53-5.22Z"/><path class="cls-14" d="M1122.47,282.71c-.09-.2-.18-.39-.28-.58a10.46,10.46,0,0,0-3.07-3.55h0a11.66,11.66,0,0,0-1.93-1.14c-1.32-.6-2.64-1.13-3.92-1.64-3.39-1.35-6.6-2.63-9.6-5.1a29.2,29.2,0,0,1-4.48-5,31.34,31.34,0,0,0-3.78-4.38,10.13,10.13,0,0,0-14.84,1.61,10.18,10.18,0,0,0-.62,10.87c1.86,3.34,5.1,4.49,8.52,5.71a36.82,36.82,0,0,1,4,1.59,31.5,31.5,0,0,1,8.43,6.29,33.32,33.32,0,0,1,2.57,3.06,21.45,21.45,0,0,0,4.09,4.37,9.8,9.8,0,0,0,7.34,1.71,9.93,9.93,0,0,0,6.56-4c.1-.13.19-.27.28-.4"/><path class="cls-4" d="M1426.87,334.73l-.63-9.3a11.5,11.5,0,0,0-5.61,2.2l-.08.06a12.48,12.48,0,0,0-1.73,1.6c-.86,1-1.63,1.94-2.39,2.87a29.88,29.88,0,0,1-5.13,5.39c-.25.19-.52.38-.79.56a22.22,22.22,0,0,1-4.6,2.09,28.91,28.91,0,0,0-5,2.19c-.33.2-.66.43-1,.66a11.24,11.24,0,0,0,9.18,19.95,10.37,10.37,0,0,0,4.17-1.92,21.36,21.36,0,0,0,4.19-4.6,30.14,30.14,0,0,1,2.08-2.59,21.08,21.08,0,0,1,2.55-2.27,28.47,28.47,0,0,1,3.92-2.44,24.55,24.55,0,0,1,2.83-1.19,20,20,0,0,0,5.24-2.61h0a11,11,0,0,0,4.28-7.36,11.18,11.18,0,0,0-2.1-8.21Z"/><path class="cls-15" d="M1426.42,328.12l-.54.09a8.94,8.94,0,0,0-3.64,1.6h0a8.94,8.94,0,0,0-1.4,1.28c-.81.92-1.57,1.86-2.3,2.77a29,29,0,0,1-6.53,6.5,24.54,24.54,0,0,1-5.17,2.38,27.5,27.5,0,0,0-4.49,2,8.59,8.59,0,0,0-2.4,12.42,8.65,8.65,0,0,0,8.66,3.21c3.17-.67,4.91-3,6.75-5.48a30.68,30.68,0,0,1,2.28-2.83,26.71,26.71,0,0,1,7.19-5.26,28.15,28.15,0,0,1,3.13-1.32,18.14,18.14,0,0,0,4.55-2.23,8.3,8.3,0,0,0,3.23-5.52,8.45,8.45,0,0,0-1.6-6.31l-.25-.32"/><path class="cls-3" d="M1175,269.16a9.19,9.19,0,0,1,5.46-12.36,10,10,0,0,1,3.92-.73l1.88,4.75a6.29,6.29,0,0,0-3.84.36,4.67,4.67,0,1,0,3.43,8.68,6,6,0,0,0,3-2.35l1.9,4.77a10,10,0,0,1-3.37,2.12C1182.17,276.47,1177,274.3,1175,269.16Z"/><path class="cls-3" d="M1189,263.61a9.57,9.57,0,1,1,12.39,5.33A9.28,9.28,0,0,1,1189,263.61Zm13.16-5.21a4.58,4.58,0,1,0-2.54,6.05A4.56,4.56,0,0,0,1202.11,258.4Z"/><path class="cls-3" d="M1214.56,271c.63-1.51,1.3-3.14,1.88-4.6a3,3,0,0,0,.25-2.09,1,1,0,0,0-1.3-.56,1.31,1.31,0,0,0-.55,1.82l-2.74.31a3.78,3.78,0,0,1,2.23-4.77,3.6,3.6,0,0,1,4.82,1.79,4.85,4.85,0,0,1-.34,3.89c-.18.5-.4,1.08-.58,1.59l2.66-1.05,1,2.5-6.73,2.66Z"/><path class="cls-3" d="M1268,324.43a8.83,8.83,0,0,1,12.28-4.18,9.74,9.74,0,0,1,3.06,2.29l-2.14,4.42a6,6,0,0,0-2.74-2.48,4.48,4.48,0,1,0-3.9,8.07,5.81,5.81,0,0,0,3.64.62l-2.14,4.44a9.63,9.63,0,0,1-3.68-1C1267.56,334.27,1265.72,329.22,1268,324.43Z"/><path class="cls-3" d="M1281,330.69a9.19,9.19,0,1,1,4.3,12.23A8.91,8.91,0,0,1,1281,330.69Zm12.24,5.91a4.39,4.39,0,1,0-5.92,2.14A4.38,4.38,0,0,0,1293.28,336.6Z"/><path class="cls-3" d="M1292.48,353.59c1.48-.54,3.06-1.12,4.47-1.66a2.92,2.92,0,0,0,1.64-1.18,1,1,0,0,0-.45-1.3,1.25,1.25,0,0,0-1.64.81l-2-1.74a3.62,3.62,0,0,1,4.82-1.52,3.46,3.46,0,0,1,1.88,4.56,4.64,4.64,0,0,1-3,2.29c-.47.2-1,.42-1.49.63l2.47,1.2-1.13,2.32-6.25-3Z"/><path class="cls-3" d="M1325.91,269.81a6.66,6.66,0,0,1,3.58-9.12,7.35,7.35,0,0,1,2.81-.64l1.51,3.38a4.58,4.58,0,0,0-2.77.38,3.39,3.39,0,1,0,2.75,6.19,4.41,4.41,0,0,0,2.13-1.8l1.51,3.4a7.28,7.28,0,0,1-2.37,1.64A6.64,6.64,0,0,1,1325.91,269.81Z"/><path class="cls-3" d="M1335.87,265.37a6.94,6.94,0,1,1,9.14,3.49A6.73,6.73,0,0,1,1335.87,265.37Zm9.38-4.17a3.32,3.32,0,1,0-1.66,4.46A3.32,3.32,0,0,0,1345.25,261.2Z"/><path class="cls-3" d="M1354.65,270c.41-1.11.85-2.31,1.22-3.39a2.11,2.11,0,0,0,.12-1.52.73.73,0,0,0-1-.37,1,1,0,0,0-.34,1.34l-2,.31a2.74,2.74,0,0,1,1.47-3.53,2.64,2.64,0,0,1,3.56,1.15,3.57,3.57,0,0,1-.14,2.84c-.12.36-.25.79-.37,1.17l1.9-.84.79,1.78-4.8,2.13Z"/><polygon class="cls-16" points="1139.19 301.35 1135.58 289.77 1143.81 280.86 1155.64 283.52 1159.24 295.11 1151.02 304.02 1139.19 301.35"/><line class="cls-16" x1="1159.24" y1="295.11" x2="1167.83" y2="297.05"/><line class="cls-16" x1="1151.02" y1="304.05" x2="1153.87" y2="312.38"/><line class="cls-16" x1="1138.54" y1="291.05" x2="1141.09" y2="299.47"/><line class="cls-16" x1="1149.89" y1="301.46" x2="1155.82" y2="294.95"/><line class="cls-16" x1="1126.99" y1="287.83" x2="1135.58" y2="289.77"/><line class="cls-16" x1="1144.99" y1="283.19" x2="1153.58" y2="285.13"/><polygon class="cls-17" points="1372.9 290.07 1364.09 288.47 1361.06 280.03 1366.86 273.2 1375.67 274.8 1378.7 283.24 1372.9 290.07"/><line class="cls-17" x1="1365.93" y1="286.97" x2="1372.33" y2="288.18"/><line class="cls-17" x1="1376.64" y1="283.1" x2="1374.4" y2="276.99"/><line class="cls-17" x1="1362.99" y1="280.06" x2="1367.2" y2="275.1"/><polygon class="cls-17" points="1387.52 284.84 1378.7 283.24 1375.67 274.8 1381.47 267.96 1390.29 269.56 1393.31 278 1387.52 284.84"/><line class="cls-17" x1="1393.31" y1="278" x2="1399.74" y2="278.99"/><line class="cls-17" x1="1381.47" y1="267.96" x2="1379.77" y2="263.22"/><line class="cls-17" x1="1388.76" y1="289.55" x2="1387.06" y2="284.81"/><line class="cls-17" x1="1389.56" y1="289.26" x2="1387.86" y2="284.52"/><path class="cls-11" d="M1234.18,284.6a6.94,6.94,0,0,0-2.5.47V292l-6-4.46c-11.1,5.74-16.68,16.36-16.68,16.36a6.68,6.68,0,0,0,11.09,7.37,63.25,63.25,0,0,1,16.72-12.91,7.62,7.62,0,0,0,.91-.44,7.11,7.11,0,0,0-3.51-13.3Z"/><line class="cls-18" x1="1228.68" y1="285.95" x2="1221.94" y2="278.23"/><polygon class="cls-2" points="1226.44 277.92 1222.73 279.13 1221.02 282.65 1218.13 273.86 1226.44 277.92"/><line class="cls-18" x1="1240.93" y1="331.16" x2="1251.13" y2="332.08"/><polygon class="cls-2" points="1248.09 335.42 1249.94 331.97 1248.74 328.25 1256.91 332.61 1248.09 335.42"/><line class="cls-18" x1="1308.1" y1="265.02" x2="1317.81" y2="268.29"/><polygon class="cls-2" points="1314.08 270.83 1316.67 267.91 1316.37 264.01 1323.3 270.14 1314.08 270.83"/><path class="cls-11" d="M1243.61,345.18a5.12,5.12,0,0,0-.49-.66,44.59,44.59,0,0,1-6.21-12.33l-4.26-.31,3.4-3a4.57,4.57,0,1,0-8.84,2.28c3.85,16,8.94,20,8.94,20a4.76,4.76,0,0,0,2.11,1.2,4.81,4.81,0,0,0,5.35-7.16Z"/><path class="cls-12" d="M1372.27,319.25c-3.75,1.2-8.09-.84-10.33-4.86a10.18,10.18,0,0,1-1.15-7,7.41,7.41,0,0,1,3.6-5.09,7.16,7.16,0,0,1,1.24-.54c3.75-1.2,8.1.85,10.33,4.87a10.17,10.17,0,0,1,1.15,7,7.37,7.37,0,0,1-3.6,5.08A6.21,6.21,0,0,1,1372.27,319.25Z"/><path class="cls-12" d="M1393.84,325.46c-2,3.38-6.63,4.71-11,3.17a10.17,10.17,0,0,1-5.51-4.51,7.4,7.4,0,0,1-.65-6.19,6.87,6.87,0,0,1,.57-1.23c2-3.38,6.64-4.72,11-3.18a10.21,10.21,0,0,1,5.51,4.51,7.47,7.47,0,0,1,.66,6.2A7.68,7.68,0,0,1,1393.84,325.46Z"/><path class="cls-12" d="M1355.63,293.74l3-6a8.12,8.12,0,0,0-8-.47,6.56,6.56,0,0,0-.83.54,7.17,7.17,0,0,0-2.68,5.51,10.55,10.55,0,0,0,2.29,6.84c2.93,3.82,7.75,5.25,11.21,3.34a6.56,6.56,0,0,0,.83-.54,7.15,7.15,0,0,0,2.68-5.5,10.25,10.25,0,0,0-1.24-5.24Z"/><path class="cls-11" d="M1420.05,260.31a5,5,0,0,0-2,3l4.09,4.42-4.69.93a44.8,44.8,0,0,1-4.09,13.34,4.9,4.9,0,1,0,8.63,4.55c7.68-15.86,6.16-22.6,6.16-22.6a5.14,5.14,0,0,0-8.12-3.62Z"/><path class="cls-11" d="M1307.5,268.64l-4.11-6.58,7.08.36c.19-.36.36-.71.56-1.08a7.15,7.15,0,1,0-12.26-7.32,86.85,86.85,0,0,0-10,31.13h0a7.32,7.32,0,0,0,0,.81,7.15,7.15,0,0,0,14.29,0S1302.87,279.52,1307.5,268.64Z"/><path class="cls-11" d="M1256.49,265.51c-7.88-14.45-13.81-17-13.81-17a4.81,4.81,0,0,0-5.67,7.68l.13.11,4.62-1.38-.76,4.83a41.62,41.62,0,0,1,7.34,9.79,4.57,4.57,0,1,0,8.15-4.07Z"/><path class="cls-11" d="M1339.88,337.73l-4.69-4.77,6.37-.34c.31-.78.51-1.22.51-1.22a6,6,0,1,0-10.9-5c-8.26,20-5.91,28.12-5.91,28.12a6.32,6.32,0,0,0,12.53-.57,5.68,5.68,0,0,0,0-1.09A58.41,58.41,0,0,1,1339.88,337.73Z"/><path class="cls-12" d="M1138.28,327.23c.89-3.41,4.52-5.72,8.64-5.48a9.09,9.09,0,0,1,5.87,2.49,6.65,6.65,0,0,1,2.13,5.17,6.12,6.12,0,0,1-.19,1.2c-.89,3.42-4.52,5.73-8.64,5.49a9.15,9.15,0,0,1-5.87-2.5,6.65,6.65,0,0,1-2.13-5.16A6.93,6.93,0,0,1,1138.28,327.23Z"/><path class="cls-12" d="M1123.23,340.6c-1.59-3.16-.39-7.29,2.86-9.83a9.14,9.14,0,0,1,6.06-2,6.64,6.64,0,0,1,5,2.47,6.15,6.15,0,0,1,.65,1c1.59,3.15.39,7.28-2.86,9.83a9.12,9.12,0,0,1-6,2,6.64,6.64,0,0,1-5-2.48A6.84,6.84,0,0,1,1123.23,340.6Z"/><path class="cls-12" d="M1108.85,351.6c-1.3-3.28.27-7.29,3.74-9.52a9.15,9.15,0,0,1,6.21-1.46,6.69,6.69,0,0,1,4.77,2.92,6.87,6.87,0,0,1,.55,1.08c1.3,3.29-.27,7.3-3.74,9.53a9.08,9.08,0,0,1-6.21,1.45,6.63,6.63,0,0,1-4.77-2.92A5.77,5.77,0,0,1,1108.85,351.6Z"/><path class="cls-12" d="M1090.5,353c0-3.53,3-6.64,7.07-7.4a9.11,9.11,0,0,1,6.3,1,6.67,6.67,0,0,1,3.31,4.5,6.28,6.28,0,0,1,.1,1.22c0,3.53-3,6.64-7.06,7.4a9.15,9.15,0,0,1-6.31-1,6.64,6.64,0,0,1-3.3-4.5A6.22,6.22,0,0,1,1090.5,353Z"/><path class="cls-12" d="M1165.41,326.09l4.65,5.06a6.88,6.88,0,0,0,2.84-5,8.61,8.61,0,0,0,0-.88,6.41,6.41,0,0,0-2.89-4.67,9.45,9.45,0,0,0-6.29-1.56c-4.29.39-7.69,3.36-7.9,6.9a5.17,5.17,0,0,0,0,.88,6.4,6.4,0,0,0,2.88,4.67,9,9,0,0,0,4.29,1.53Z"/></g><g id="Layer_79" data-name="Layer 79"><rect class="cls-2" x="1070.18" y="135.32" width="375.79" height="104.41"/><path class="cls-19" d="M1144,134.58s-4.82,7.08-2.06,18.93.6,19.2.6,19.2-1.3,5.13,1.46,7.37,13.09,6.4,13.09,6.4a29.32,29.32,0,0,1,14.3,21.29c2.07,15,6.72,14.41,6.72,14.41"/><path class="cls-19" d="M1119.17,227.14c2.41-4,11.37-7.2,11.37-7.2s3.44-1.93,5.16-15.53a68.62,68.62,0,0,1,8.27-24.33,25.16,25.16,0,0,0,10.22,18.25c9.88,7,10.8,12.7,10.8,12.7"/><path class="cls-19" d="M1125.14,231.3s3.79-8.22,7-13.39c0,0,3.68,3.31,1.61,7.71s-.23,14.11-.23,14.11"/><path class="cls-19" d="M1149.83,228.1s-1.63-7.58-11.37-11.95A5.92,5.92,0,0,1,1135,209"/><path class="cls-19" d="M1142.42,137.91s-12.92,4.58-18.66,12.5c-3.19,4.4-5.74,3.84-5.74,3.84s-10,.32-27.22,25.83a35.12,35.12,0,0,1-7.11,6.24c-12.92,7.52-15.85,45.46-15.85,45.46"/><path class="cls-19" d="M1143.11,160.9s-11.71,2.69-13.35,12.62-12.31,7.68-12.31,7.68-4-1.44-10.17,7.84"/><path class="cls-19" d="M1143.3,164.39s13,11.65,10.89,26.23S1165,223,1165,223"/><path class="cls-19" d="M1141.63,152.19s26.13,11.2,37.65,30.13c11.37,18.67,8.44,35.59,8.44,35.59"/><path class="cls-19" d="M1148.62,134.58s14,2.6,17.4,7.72,12.06,9.89,12.06,9.89,6.1,4.83,6.54,11.24c.35,5,5.17,7,5.17,7s17.22,10.41,0,45.3"/><path class="cls-19" d="M1186.2,167.57a8.44,8.44,0,0,0,0,6.11,71.11,71.11,0,0,1,2.9,8.64s-.69,4.16,6.2,6.72"/><path class="cls-19" d="M1178.08,134.58s-1,8,7.53,13c16.58,9.75,10.65,32.5,10.65,32.5"/><path class="cls-19" d="M1191.86,134.62s1.48,5.12,10.67,10.56c26.53,15.72,26,45.44,26,45.44s-.68,8,5.69,13"/><path class="cls-19" d="M1189.79,134.58a13,13,0,0,0,2.07,10.44c3.61,5.12,4.37,17,4.37,17"/><path class="cls-19" d="M1140.45,187.22s-5.78,1-9.57,4.86a17.15,17.15,0,0,1-8.27,4.65s-9.81,5-11.88,9.76-9.48,5-9.48,5"/><path class="cls-19" d="M1139.71,189s-2.46,9.77,12.36,11.69"/><path class="cls-19" d="M1141.23,149.5s-6.56.25-8.46,2.69a5.87,5.87,0,0,1-4.65,2.28s-6.71,1.49-8.26,6.43"/><path class="cls-19" d="M1111.76,134.58s-11.71,6.44-11.71,13-4.48,14.43-4.48,14.43-2.41,3.82,2.07,10.7c0,0,1.72,2.09-1.73,10.57s.18,17,.18,17.45a11,11,0,0,1,.51,8.28"/><path class="cls-19" d="M1090.75,134.58s-5.76,26.7,3.68,45.5c6.82,13.61-5.41,21.77-5.41,21.77"/><path class="cls-19" d="M1097.12,134.58s-3.07,12.6,1.1,21.61"/><path class="cls-19" d="M1142.51,172.71s.08,3,6.11,3.37a21.25,21.25,0,0,1,10.16,3.2s6.72,3.68,11.72,3.84"/><path class="cls-19" d="M1196.63,178.31s.74,3.69,2.63,4.81,3.27,8.16,3.27,8.16.52,5.76,5.69,12.33,6.89,16.17,6.89,16.17"/><path class="cls-19" d="M1227.68,134.62s2.41,22.85-9.3,32.95-13.26,19.65-13.26,19.65-3.32,5.44-5.51,8.55c-4.31,6.08,3.1,17,3.1,17"/><path class="cls-19" d="M1255.44,133.46s4.91,7.08,2.11,18.93-.62,19.21-.62,19.21,1.32,5.12-1.49,7.36-13.32,6.4-13.32,6.4a29.4,29.4,0,0,0-14.55,21.29c-2.11,15-6.84,14.41-6.84,14.41"/><path class="cls-19" d="M1280.69,226c-2.45-4-11.57-7.2-11.57-7.2s-3.51-1.92-5.26-15.53a67.7,67.7,0,0,0-8.42-24.33,25,25,0,0,1-10.4,18.25c-10,7-11,12.7-11,12.7"/><path class="cls-19" d="M1274.61,230.18s-3.85-8.21-7.12-13.39c0,0-3.75,3.31-1.64,7.71s.23,14.11.23,14.11"/><path class="cls-19" d="M1249.48,227s1.66-7.58,11.57-11.95a5.88,5.88,0,0,0,3.55-7.14"/><path class="cls-19" d="M1257,136.79s13.15,4.59,19,12.5c3.24,4.4,5.84,3.84,5.84,3.84s10.17.33,27.7,25.83a35.51,35.51,0,0,0,7.25,6.24c13.15,7.53,16.13,45.46,16.13,45.46"/><path class="cls-19" d="M1256.32,159.78s11.93,2.69,13.59,12.62,12.53,7.68,12.53,7.68,4-1.44,10.35,7.84"/><path class="cls-19" d="M1256.13,163.28s-13.25,11.64-11.09,26.23-11,32.35-11,32.35"/><path class="cls-19" d="M1259,186.1s5.88,1,9.74,4.87a17.5,17.5,0,0,0,8.41,4.64s10,5,12.1,9.76,9.65,5,9.65,5"/><path class="cls-19" d="M1259.78,187.92s2.5,9.77-12.58,11.69"/><path class="cls-19" d="M1258.24,148.39s6.67.24,8.6,2.68a6,6,0,0,0,4.74,2.28s6.83,1.49,8.41,6.43"/><path class="cls-19" d="M1288.23,133.46s11.92,6.44,11.92,13,4.56,14.43,4.56,14.43,2.46,3.82-2.1,10.7c0,0-1.75,2.08,1.75,10.56s-.17,17-.17,17.45a10.82,10.82,0,0,0-.53,8.28"/><path class="cls-19" d="M1309.62,133.46s5.86,26.7-3.74,45.5c-7,13.61,5.49,21.77,5.49,21.77"/><path class="cls-19" d="M1322.25,133.5s1.75,7.84-2.46,14.89-2.28,11.39-2.28,11.39,1.93,6.45.7,10.9,7.72,10,7.72,10"/><path class="cls-20" d="M1302.76,133.46s3.16,12.76-1.14,21.89"/><path class="cls-19" d="M1256.93,171.6s-.08,3-6.22,3.36a21.92,21.92,0,0,0-10.35,3.2s-6.83,3.68-11.92,3.84"/><path class="cls-19" d="M1367.76,134.58s-4.83,7.08-2.07,18.93.61,19.2.61,19.2-1.3,5.13,1.46,7.37,13.09,6.4,13.09,6.4a29.3,29.3,0,0,1,14.29,21.29c2.07,15,6.72,14.41,6.72,14.41"/><path class="cls-19" d="M1343,227.14c2.41-4,11.37-7.2,11.37-7.2s3.45-1.93,5.17-15.53a68.39,68.39,0,0,1,8.27-24.33A25.12,25.12,0,0,0,1378,198.33c9.87,7,10.79,12.7,10.79,12.7"/><path class="cls-19" d="M1348.92,231.3s3.79-8.22,7-13.39c0,0,3.67,3.31,1.61,7.71s-.23,14.11-.23,14.11"/><path class="cls-19" d="M1373.61,228.1s-1.62-7.58-11.37-11.95a5.93,5.93,0,0,1-3.48-7.14"/><path class="cls-19" d="M1366.21,137.91s-12.92,4.58-18.66,12.5c-3.19,4.4-5.75,3.84-5.75,3.84s-10,.32-27.21,25.83a35.3,35.3,0,0,1-7.12,6.24c-12.92,7.52-15.85,45.46-15.85,45.46"/><path class="cls-19" d="M1366.89,160.9s-11.71,2.69-13.35,12.62-12.31,7.68-12.31,7.68-4-1.44-10.16,7.84"/><path class="cls-19" d="M1367.08,164.39s13,11.65,10.9,26.23S1388.77,223,1388.77,223"/><path class="cls-19" d="M1365.41,152.19s26.13,11.2,37.66,30.13c11.36,18.67,8.44,35.59,8.44,35.59"/><path class="cls-19" d="M1372.41,134.58s13.95,2.6,17.39,7.72,12.06,9.89,12.06,9.89,6.1,4.83,6.55,11.24c.34,5,5.16,7,5.16,7s17.23,10.41,0,45.3"/><path class="cls-19" d="M1410,167.57a8.38,8.38,0,0,0,0,6.11,72.3,72.3,0,0,1,2.89,8.64s-.69,4.16,6.21,6.72"/><path class="cls-19" d="M1401.86,134.58s-1,8,7.53,13c16.58,9.75,10.65,32.5,10.65,32.5"/><path class="cls-19" d="M1413.57,134.58a13,13,0,0,0,2.07,10.44c3.62,5.12,4.37,17,4.37,17"/><path class="cls-19" d="M1364.23,187.22s-5.78,1-9.56,4.86a17.15,17.15,0,0,1-8.27,4.65s-9.82,5-11.89,9.76-9.47,5-9.47,5"/><path class="cls-19" d="M1363.5,189s-2.46,9.77,12.35,11.69"/><path class="cls-19" d="M1365,149.5s-6.56.25-8.45,2.69a5.87,5.87,0,0,1-4.65,2.28s-6.72,1.49-8.27,6.43"/><path class="cls-19" d="M1320.9,134.58s-3.07,12.6,1.11,21.61"/><path class="cls-19" d="M1366.3,172.71s.08,3,6.11,3.37a21.3,21.3,0,0,1,10.16,3.2s6.72,3.68,11.71,3.84"/><path class="cls-19" d="M1420.41,178.31s.74,3.69,2.64,4.81,3.27,8.16,3.27,8.16.52,5.76,5.68,12.33,6.89,16.17,6.89,16.17"/><path class="cls-12" d="M1273.31,94.38C1285.65,71.12,1268.25,0,1268.25,0c25,43.49,22.63,91.9,22.63,91.9,1.08-48.12,24.49-75.22,24.49-75.22-19,36.47-9.66,91.27-9.66,91.27,18.09-13.61,10.88-69.65,10.88-69.65,15,33.51,9,62.6,9,62.6,9.12-45.86,35.15-68.48,35.15-68.48-17.82,50.75-13.79,78.45-13.79,78.45,15.69-29,16.11-56.6,16.11-56.6,13.62,18-3,62.59-3,62.59,28.23-19.06,26.21-101.54,26.21-101.54,12.09,48.65,3.78,101.42,3.78,101.42,8.35-41.52,41.44-69.4,41.44-69.4-25.67,39-14.74,60.41-14.74,60.41-.49-28.21,16.08-48.32,16.08-48.32-17.21,33.47-2.36,61.9-2.36,61.9-13.16-42.13,31.84-90,31.84-90-29.75,46-15.6,104.51-15.6,104.51H1071.24s6.56-67.48-17.07-102.9c0,0,14.44,9.27,25.6,62.11,0,0,24.29-40.86,12.47-91.53,0,0,22.9,55.57,3.24,93.71,0,0,17.77-24.52,12.52-60.47a96.44,96.44,0,0,1,1,50.12s13.18-18.52,2.82-61.56c0,0,18.53,33.77,15.24,75.72,0,0,5.91-52.84,26.26-97.52,0,0-18.38,67.56-13.78,105.7,0,0,7.87-48.49,22.31-63.2,0,0-15.35,31.15,1.72,59.48,0,0,17.32-25.7-3-81.27,0,0,22.52,28.33,18.81,74.64,0,0,2.2-29.42,21.23-58.84,0,0-18.38,52.84-7.87,69.73,0,0,19.69-51.21,13.78-90.44,0,0,11.4,31.06,1.11,77.91,0,0,9.4-47.4,38.28-84.44,0,0-29.54,65.37-25.6,90.43,0,0,7.87-43.58,25.6-58.84,0,0-20.35,36.51-4.6,56.12,0,0,15.76-36.51,13.79-47.41,0,0,10.84,23.44.17,47.41,0,0,26.09-25.61,1.8-83.36,0,0,27.57,32.69,16.41,77.37"/></g><g id="Layer_80" data-name="Layer 80"><text class="cls-21" transform="translate(594.36 521.09) rotate(45.37)">(</text><text class="cls-21" transform="matrix(0.66, 0.75, -0.75, 0.66, 599.36, 525.91)">p</text><text class="cls-21" transform="translate(611.3 539.5) rotate(53.18)">h</text><text class="cls-21" transform="matrix(0.54, 0.84, -0.84, 0.54, 621.18, 552.72)">y</text><text class="cls-21" transform="translate(628.94 564.81) rotate(60.62)">s</text><text class="cls-21" transform="matrix(0.45, 0.89, -0.89, 0.45, 634.79, 575.3)">i</text><text class="cls-21" transform="matrix(0.4, 0.91, -0.91, 0.4, 638.19, 581.75)">c</text><text class="cls-21" transform="matrix(0.33, 0.94, -0.94, 0.33, 644.49, 595.86)">a</text><text class="cls-21" transform="matrix(0.28, 0.96, -0.96, 0.28, 650.4, 613.11)">l</text><text class="cls-21" transform="matrix(0.25, 0.97, -0.97, 0.25, 652.25, 619.46)">)</text><text class="cls-22" transform="translate(362.84 910.88) rotate(17.36)">(</text><text class="cls-22" transform="matrix(0.97, 0.24, -0.24, 0.97, 370.62, 913.46)">b</text><text class="cls-22" transform="translate(389.83 918.04) rotate(10.51)">i</text><text class="cls-22" transform="translate(398.15 919.72) rotate(7.14)">o</text><text class="cls-22" transform="translate(417.29 921.93) rotate(3.89)">l</text><text class="cls-22" transform="translate(424.9 922.59) rotate(0.68)">o</text><text class="cls-22" transform="translate(444.46 922.78) rotate(-4.04)">g</text><text class="cls-22" transform="translate(464.13 921.21) rotate(-7.44)">i</text><text class="cls-22" transform="translate(472.49 920.21) rotate(-10.51)">c</text><text class="cls-22" transform="translate(489.5 917.07) rotate(-15.06)">a</text><text class="cls-22" transform="translate(508.48 911.75) rotate(-18.41)">l</text><text class="cls-22" transform="matrix(0.94, -0.35, 0.35, 0.94, 515.49, 909.42)">)</text><text class="cls-23" transform="translate(143.61 351.43)"><tspan class="cls-24">s</tspan><tspan x="17.68" y="0">o</tspan><tspan class="cls-25" x="41.24" y="0"> </tspan><tspan class="cls-26" x="53.24" y="0">w</tspan><tspan class="cls-27" x="87.76" y="0">hat</tspan><tspan class="cls-28" x="149.24" y="0"></tspan><tspan class="cls-29" x="155.6" y="0">s</tspan><tspan class="cls-25" x="173.56" y="0"> </tspan><tspan class="cls-26" x="185.56" y="0">w</tspan><tspan class="cls-27" x="220.08" y="0">ith all the pollutio</tspan><tspan class="cls-30" x="555.19" y="0">n</tspan><tspan x="576.47" y="0">?</tspan><tspan class="cls-31"><tspan x="-135.65" y="31.66">a mic</tspan><tspan class="cls-32" x="-57.2" y="31.66">r</tspan><tspan x="-48.68" y="31.66">ob</tspan><tspan class="cls-33" x="-12.11" y="31.66">e</tspan><tspan class="cls-34" x="3.43" y="31.66"></tspan><tspan x="6.97" y="31.66">s abilit</tspan><tspan class="cls-35" x="96.73" y="31.66">y</tspan><tspan x="110.8" y="31.66"> </tspan><tspan class="cls-32" x="121.15" y="31.66">t</tspan><tspan x="128.86" y="31.66">o deg</tspan><tspan class="cls-32" x="211.24" y="31.66">r</tspan><tspan x="219.76" y="31.66">ade </tspan><tspan class="cls-32" x="284.07" y="31.66">t</tspan><tspan class="cls-36" x="291.78" y="31.66">o</tspan><tspan x="309.69" y="31.66">xic su</tspan><tspan class="cls-37" x="387.36" y="31.66">b</tspan><tspan class="cls-38" x="405.72" y="31.66">s</tspan><tspan class="cls-32" x="417.45" y="31.66">t</tspan><tspan x="425.16" y="31.66">a</tspan><tspan class="cls-39" x="443.67" y="31.66">n</tspan><tspan x="460.32" y="31.66">c</tspan><tspan class="cls-36" x="476.16" y="31.66">e</tspan><tspan x="492.96" y="31.66">s is cont</tspan><tspan class="cls-32" x="604.98" y="31.66">r</tspan><tspan x="613.5" y="31.66">olled </tspan><tspan class="cls-40" x="690.93" y="31.66">b</tspan><tspan x="708.99" y="31.66">y:</tspan></tspan></text><path class="cls-41" d="M508.08,548a151.21,151.21,0,0,1,80.26,138.62"/><polygon class="cls-4" points="510.29 559.29 510.74 549.45 518.13 542.95 494.85 541.82 510.29 559.29"/><polygon class="cls-4" points="579.67 679.12 588.42 683.63 597.74 680.45 587.13 701.21 579.67 679.12"/><path class="cls-41" d="M286.31,687.07a151.23,151.23,0,0,1,79.92-138.82"/><polygon class="cls-4" points="294.96 679.52 286.21 684.05 276.89 680.9 287.55 701.62 294.96 679.52"/><polygon class="cls-4" points="364.05 559.52 363.57 549.69 356.16 543.21 379.44 542.02 364.05 559.52"/><path class="cls-41" d="M517.61,809.6a151.21,151.21,0,0,1-160.18.2"/><polygon class="cls-4" points="506.75 805.89 515.04 811.2 516.98 820.85 529.59 801.25 506.75 805.89"/><polygon class="cls-4" points="368.28 806.06 360.01 811.39 358.1 821.04 345.43 801.48 368.28 806.06"/><text class="cls-42" transform="translate(262.16 696.89) rotate(-92.35)">b</text><text class="cls-42" transform="translate(261.6 678.74) rotate(-88.33)">i</text><text class="cls-42" transform="translate(261.61 671.54) rotate(-84.34)">o</text><text class="cls-42" transform="matrix(0.2, -0.98, 0.98, 0.2, 263.31, 654.04)">d</text><text class="cls-42" transform="translate(266.89 636.38) rotate(-72.96)">e</text><text class="cls-42" transform="matrix(0.39, -0.92, 0.92, 0.39, 271.66, 620.61)">g</text><text class="cls-42" transform="translate(278.8 603.94) rotate(-62.98)">r</text><text class="cls-42" transform="matrix(0.52, -0.86, 0.86, 0.52, 282.32, 596.57)">a</text><text class="cls-42" transform="translate(291.64 581.13) rotate(-53)">d</text><text class="cls-42" transform="translate(302.45 566.74) rotate(-47.22)">a</text><text class="cls-42" transform="translate(314.7 553.48) rotate(-41.42)">b</text><text class="cls-42" transform="translate(328.43 541.6) rotate(-37.34)">i</text><text class="cls-42" transform="translate(334.26 537.16) rotate(-35.1)">l</text><text class="cls-42" transform="translate(339.62 533.38) rotate(-32.86)">i</text><text class="cls-42" transform="matrix(0.86, -0.51, 0.51, 0.86, 345.76, 529.39)">t</text><text class="cls-42" transform="translate(352.61 525.25) rotate(-26.72)">y</text><text class="cls-42" transform="translate(544.34 539.06) rotate(40.27)">a</text><text class="cls-42" transform="translate(558.09 550.79) rotate(45.53)">v</text><text class="cls-42" transform="matrix(0.63, 0.77, -0.77, 0.63, 568.1, 560.82)">a</text><text class="cls-42" transform="translate(579.48 574.97) rotate(54.72)">i</text><text class="cls-42" transform="matrix(0.55, 0.84, -0.84, 0.55, 583.71, 580.97)">l</text><text class="cls-42" transform="matrix(0.49, 0.87, -0.87, 0.49, 587.41, 586.25)">a</text><text class="cls-42" transform="matrix(0.39, 0.92, -0.92, 0.39, 596.18, 601.99)">b</text><text class="cls-42" transform="translate(603.16 618.73) rotate(70.91)">i</text><text class="cls-42" transform="matrix(0.29, 0.96, -0.96, 0.29, 605.56, 625.67)">l</text><text class="cls-42" transform="matrix(0.25, 0.97, -0.97, 0.25, 607.47, 631.95)">i</text><text class="cls-42" transform="translate(609.32 639.04) rotate(77.95)">t</text><text class="cls-42" transform="matrix(0.15, 0.99, -0.99, 0.15, 611.1, 646.83)">y</text><text class="cls-42" transform="translate(309.6 827.49) rotate(40.06)">p</text><text class="cls-42" transform="translate(324.8 840.15) rotate(34.23)">h</text><text class="cls-42" transform="translate(339.71 850.18) rotate(29.08)">y</text><text class="cls-42" transform="translate(353.41 857.71) rotate(24.68)">s</text><text class="cls-42" transform="matrix(0.93, 0.36, -0.36, 0.93, 365.24, 863.05)">i</text><text class="cls-42" transform="translate(373.07 866.29) rotate(17.17)">o</text><text class="cls-42" transform="translate(391.25 871.66) rotate(13.06)">l</text><text class="cls-42" transform="matrix(0.99, 0.16, -0.16, 0.99, 398.72, 873.57)">o</text><text class="cls-42" transform="translate(417.89 876.53) rotate(2.97)">g</text><text class="cls-42" transform="translate(437.23 877.3) rotate(-1.21)">i</text><text class="cls-42" transform="translate(445.57 877.23) rotate(-4.99)">c</text><text class="cls-42" transform="translate(462.61 875.75) rotate(-10.63)">a</text><text class="cls-42" transform="translate(481.64 871.93) rotate(-14.8)">l</text><text class="cls-42" transform="translate(488.82 870.06) rotate(-17.64)"> </text><text class="cls-42" transform="translate(499.57 866.69) rotate(-21.79)">fi</text><text class="cls-42" transform="translate(513.97 860.79) rotate(-25.6)">t</text><text class="cls-42" transform="matrix(0.87, -0.5, 0.5, 0.87, 522.36, 856.91)">n</text><text class="cls-42" transform="matrix(0.82, -0.58, 0.58, 0.82, 537.83, 848.01)">e</text><text class="cls-42" transform="matrix(0.77, -0.64, 0.64, 0.77, 552.33, 837.61)">s</text><text class="cls-42" transform="matrix(0.72, -0.69, 0.69, 0.72, 562.38, 829.16)">s</text><text class="cls-43" transform="matrix(0.16, -0.99, 0.99, 0.16, 219.88, 641.86)">(</text><text class="cls-43" transform="translate(220.67 636.15) rotate(-78.15)">c</text><text class="cls-43" transform="translate(223.8 621.05) rotate(-73.89)">h</text><text class="cls-43" transform="translate(228.27 605.45) rotate(-69.62)">e</text><text class="cls-43" transform="translate(233.76 589.97) rotate(-64.08)">m</text><text class="cls-43" transform="matrix(0.5, -0.86, 0.86, 0.5, 245.31, 566.98)">i</text><text class="cls-43" transform="translate(248.86 560.66) rotate(-56.78)">c</text><text class="cls-43" transform="matrix(0.61, -0.79, 0.79, 0.61, 257.25, 547.74)">a</text><text class="cls-43" transform="matrix(0.65, -0.76, 0.76, 0.65, 268.43, 533.47)">l</text><text class="cls-43" transform="matrix(0.68, -0.74, 0.74, 0.68, 272.73, 528.47)">)</text></g><g id="Layer_83" data-name="Layer 83"><text class="cls-44" transform="translate(354.44 467.55)">pollu<tspan class="cls-45" x="89.6" y="0">t</tspan><tspan x="99.88" y="0">an</tspan><tspan class="cls-46" x="147.36" y="0">t</tspan><tspan x="158.04" y="0">s</tspan></text><path class="cls-47" d="M434.88,522l7-.07-1,20.68-4.67.05Zm.54,26.23a3.62,3.62,0,0,1,3.58-3.66,3.62,3.62,0,1,1,.08,7.24A3.59,3.59,0,0,1,435.42,548.27Z"/><polygon class="cls-48" points="410.24 556.58 438.3 506.72 467.44 555.95 410.24 556.58"/></g><g id="Layer_82" data-name="Layer 82"><text class="cls-44" transform="translate(92.78 791.63)">o<tspan class="cls-45" x="24.08" y="0">r</tspan><tspan x="35.44" y="0">ganis</tspan><tspan class="cls-49" x="133.96" y="0">m</tspan><tspan x="169.2" y="0">s</tspan></text><path class="cls-3" d="M342.42,779.25a23.12,23.12,0,0,0,2.71-3,5,5,0,0,0,1.21-4.71c-1.45-2.82-5.84-1.93-5.84-1.93s-5,2-4.78-5c.2-5.8-3.82-5-3.82-5s-2.44-.34-3.23,2.63c-1.56,6-6,3.59-6,3.59-4.38-2.07-6.69.71-6.69.71-3.7,5.26,2.75,9.8,2.75,9.8,3.58,3.11.24,4.54.24,4.54s-3.47,1.67-1.2,6.93,6.93,0,6.93,0c6-4.54,11.11.84,11.11.84s5.62,6.42,8.61,4.06c3.94-3.11-1.32-8.84-1.32-8.84C339.79,780.92,342.42,779.25,342.42,779.25Zm-9.24-.1c-1.9,1.07-4.12.72-5-.78s0-3.57,1.92-4.64,4.12-.71,5,.78S335.08,778.09,333.18,779.15Z"/><path class="cls-47" d="M321.53,734.26s0-15.23-17.87-16c0,0-16.52.54-15.83,15.83,0,0,.76,13.11,13.07,11.75,0,0,5.17-.26,7-4.32,0,0,.85-2.55-1.67-1.14,0,0-6.52,5-11.39-2.18,0,0-5.38-9,5.45-12.7,0,0,10.77-3.64,14,6.48,0,0,3,9.11-6.59,13.77-12,5.85-18.47-5.37-18.47-5.37s-6.71-8.64,2.07-19.27c0,0,9.34-11.06,24.4-3.46,0,0,7.61,3,12.08,7.16,0,0,5.26,3.92,4.84,1.29a36.38,36.38,0,0,0-10.05-11.22,16.54,16.54,0,0,0-4.36-2.68,31,31,0,0,0-18.27-3.12c-22.47,2.75-19.63,25.44-19.63,25.44s2,20.67,21.5,19.1S321.45,737.49,321.53,734.26Z"/><path class="cls-11" d="M338,739.88c-.18.34-.33.66-.52,1a6.58,6.58,0,0,0-1.13,3.71,6.66,6.66,0,0,0,12.56,3.1,81.07,81.07,0,0,0,9.31-29h0c0-.24,0-.49,0-.75a6.66,6.66,0,1,0-13.32,0s.17,6-4.14,16.14"/></g><g id="Layer_81" data-name="Layer 81"><text class="cls-44" transform="translate(604.92 791.63)">e<tspan class="cls-50" x="22.6" y="0">n</tspan><tspan class="cls-37" x="45" y="0">v</tspan><tspan class="cls-29" x="64.88" y="0">i</tspan><tspan class="cls-51" x="74.92" y="0">r</tspan><tspan x="86.28" y="0">on</tspan><tspan class="cls-26" x="133.16" y="0">m</tspan><tspan x="167.52" y="0">ent</tspan></text><path class="cls-3" d="M591.38,750.71a28.49,28.49,0,1,1-28.49-28.49A28.49,28.49,0,0,1,591.38,750.71Z"/><g class="cls-52"><path class="cls-53" d="M557.41,751.23a5.56,5.56,0,0,0,1.52,5c1.52,1.08,4.46.61,4.63,2.73,0,2.16-4.25,3.15-3.42,5.42.3,1.08,3.21,1.28,3.55,2.52s-.76,1.7-1,2.94a4,4,0,0,0,3.69,5.3c2.15.41,4.45-.89,6.63-1.15.38-.1,1.64.05,1.83,0-.19.05,2.47-.68,2.05-.73,1.07.2,2-1,2.09.92.23,1.6-2.64,3-3,4.65-.25.57.47,1.7.36,2.06-.4.78-1.54,1.09-1.79,1.66-1.2,2.32-.93,4.07-.86,6.55,0,.67-.17,2.37.15,2.78,1.16,2,1.24.82,3.2-.21,6.37-3.57,7.07-7.75,8.65-13.17,2.25-7.43,2.61-11.35-1.38-17.73-2.71-3.91-4.27-9.63-9.38-11.89-2.55-1.13-16.73-2.23-17.47,1.79"/><path class="cls-53" d="M551.17,723.2c.39,1,2.36,2,2.36,3-.2.78-2.16,1.37-2.56,2.16-.79,1.77-.39,2.95.79,4.33,2,2.56,5.51,2.17,6.69,5.51.59,2-.19,3.74-.79,5.51-.78,2,.79,1.78-1.38,2.76-2.16.79-4.91-1.57-6.88-.79-2.17.79-1.38,1.77-1,3.74.79,3.55,1.58,2.36-1,5.32-1.19,1.38-2,3.54-3.55,4.13-2,.79-2.16-.79-3.74-.79-3.54.2-5.31,4.93-9,2-6.1-4.92-3-21.06.2-26.77,3-5.12,10.63-8.07,15.94-9.84,1.38-.39,4.72-2,4.33.59"/></g><path class="cls-53" d="M573.15,745.42c3.54,2.51,11.07.15,13.58-3.39,2.95-4.14-6.35-6.35-8.56-8.42s-4.14-3-5,1.18c-.3,1.18.44,3.4-.15,4.43-.74,1.33-2.06.74-3.25,1.62-3,2.22.89,4.43,3.25,4.73"/></g></g></g></svg>