<svg xmlns="http://www.w3.org/2000/svg" viewBox="0 0 1021.25 829.9"><defs><style>.cls-1{font-size:40px;fill:#5c5052;font-family:Acre-Bold, Acre;font-weight:700;}.cls-2{letter-spacing:-0.02em;}.cls-3,.cls-32{fill:#3ca9a0;}.cls-33,.cls-4{fill:#5e5153;}.cls-24,.cls-5{font-size:32px;}.cls-5{fill:#3daaa1;}.cls-24,.cls-33,.cls-5{font-family:Acre-Light, Acre;font-weight:300;}.cls-6{letter-spacing:-0.02em;}.cls-7{letter-spacing:-0.01em;}.cls-8{letter-spacing:-0.02em;}.cls-9{letter-spacing:0.01em;}.cls-10{letter-spacing:0em;}.cls-11{letter-spacing:-0.03em;}.cls-12{letter-spacing:0.01em;}.cls-13{letter-spacing:0em;}.cls-14{letter-spacing:-0.01em;}.cls-15{letter-spacing:-0.01em;}.cls-16{letter-spacing:0em;}.cls-17{letter-spacing:0em;}.cls-18{letter-spacing:-0.01em;}.cls-19{fill:#ea6a7c;}.cls-20{fill:#fdce09;}.cls-21,.cls-22,.cls-23,.cls-41{fill:none;}.cls-21,.cls-22,.cls-23,.cls-28,.cls-29,.cls-30,.cls-31,.cls-32,.cls-41{stroke:#fff;}.cls-21,.cls-22{stroke-linecap:round;}.cls-21,.cls-23,.cls-28,.cls-29,.cls-30,.cls-31,.cls-32,.cls-41{stroke-miterlimit:10;}.cls-21,.cls-22,.cls-23{stroke-width:1.79px;}.cls-22{stroke-linejoin:round;}.cls-24,.cls-40{fill:#fff;}.cls-25{letter-spacing:0em;}.cls-26{letter-spacing:-0.01em;}.cls-27{letter-spacing:-0.04em;}.cls-28{fill:#fdcd07;}.cls-28,.cls-29,.cls-30,.cls-32{stroke-width:0.6px;}.cls-29{fill:#2e62a1;}.cls-30,.cls-31{fill:#f27243;}.cls-31{stroke-width:0.01px;}.cls-33{font-size:30px;}.cls-34{letter-spacing:-0.02em;}.cls-35{letter-spacing:-0.01em;}.cls-36{letter-spacing:0em;}.cls-37{letter-spacing:-0.03em;}.cls-38{letter-spacing:-0.02em;}.cls-39{letter-spacing:0em;}.cls-41{stroke-width:2.98px;}</style></defs><g id="Layer_2" data-name="Layer 2"><g id="Popup_Biocycling" data-name="Popup Biocycling"><text class="cls-1" transform="translate(312.45 34)">li<tspan class="cls-2" x="22.92" y="0">f</tspan><tspan x="36.24" y="0">e in the dung pat</tspan></text><path class="cls-3" d="M1021.25,444.54c-5.91,25.82-15.63,49.55-31.59,60.27,0,0,25.73-68.71,4.62-96.55,0,0-.66,42.57-25,87.31,0,0-6.24-42.74,21.37-121,0,0-40.34,34.9-54.48,105.63,0,0,9.28-44.87-13.94-96.56,0,0,11.18,86.45-16.86,107.45,0,0-14.47-84.54,15-140.8,0,0-36,41.54-37.93,115.3.25-7.75,1.43-77.74-35.11-141,0,0,26.58,108.11,8.25,144.78C872.19,400.94,829.91,351,829.91,351c37.65,89.08-2.79,128.58-2.79,128.58,16.54-37-.27-73.12-.27-73.12,3.06,16.79-21.36,73.12-21.36,73.12-24.43-30.26,7.12-86.56,7.12-86.56-27.48,23.53-39.69,90.76-39.69,90.76-6.1-38.66,39.69-139.5,39.69-139.5C770.5,398,755.11,465.89,753.43,473.78c15.66-71.84-1.87-119.4-1.87-119.4,9.15,60.51-21.37,139.51-21.37,139.51-16.28-26.05,12.21-107.57,12.21-107.57-29.51,45.38-32.92,90.76-32.92,90.76,5.75-71.44-29.15-115.14-29.15-115.14C711.87,447.66,685,487.32,685,487.32c-26.46-43.7-2.66-91.76-2.66-91.76-22.38,22.69-34.59,97.49-34.59,97.49-7.12-58.83,21.37-163,21.37-163-31.55,68.91-40.71,150.43-40.71,150.43,5.09-64.71-23.62-116.81-23.62-116.81,16.06,66.39-4.38,95-4.38,95,10.66-42-1.5-77.32-1.5-77.32,8.14,55.47-19.4,93.29-19.4,93.29,30.47-58.83-5-144.55-5-144.55,18.31,78.16-19.34,141.19-19.34,141.19-2.09-9.87-4.26-18.73-6.46-26.73,3.7-23.38,11.47-48.49,26.47-71.56a252.18,252.18,0,0,0-33.89,47.89c-13.44-37.5-25.8-45.41-25.8-45.41a121.47,121.47,0,0,1,11.62,22.43c-4,3.45-51.54,45.46-63.94,106.8,0,0,12.89-81.41-5.86-156.44,0,0,3.13,127.22-40.62,156.63,0,0,25.73-68.71,4.61-96.55,0,0-.65,42.57-25,87.31,0,0-6.25-42.74,21.36-121,0,0-40.34,34.9-54.48,105.63,0,0,9.29-44.87-13.94-96.56,0,0,11.19,86.45-16.85,107.45,0,0-14.48-84.54,15-140.8,0,0-36,41.54-37.92,115.3.25-7.75,1.42-77.74-35.11-141,0,0,26.57,108.11,8.24,144.78C299.21,400.94,256.93,351,256.93,351c37.65,89.08-2.79,128.58-2.79,128.58,16.55-37-.26-73.12-.26-73.12,3.05,16.79-21.37,73.12-21.37,73.12-24.42-30.26,7.12-86.56,7.12-86.56C212.16,416.57,200,483.8,200,483.8c-6.11-38.66,39.68-139.5,39.68-139.5-42.1,53.74-57.49,121.59-59.17,129.48,15.66-71.84-1.88-119.4-1.88-119.4,9.16,60.51-21.37,139.51-21.37,139.51-16.28-26.05,12.21-107.57,12.21-107.57-29.51,45.38-32.91,90.76-32.91,90.76,5.74-71.44-29.15-115.14-29.15-115.14,31.53,85.72,4.69,125.38,4.69,125.38-26.46-43.7-2.66-91.76-2.66-91.76-22.39,22.69-34.6,97.49-34.6,97.49-7.12-58.83,21.37-163,21.37-163-31.54,68.91-40.7,150.43-40.7,150.43,5.09-64.71-23.63-116.81-23.63-116.81,16.06,66.39-4.38,95-4.38,95,10.67-42-1.5-77.32-1.5-77.32,8.14,55.47-19.4,93.29-19.4,93.29,28.69-55.4-1.09-134.62-4.67-143.67v.77a198.47,198.47,0,0,1,0,85.39V586.4H1021.25ZM525.83,511.69s-23-43.84,3.65-95.48c0,0-25.68,31-24.92,74.55,0,0-16.85-32.9,22.6-92.81A195.3,195.3,0,0,1,536.6,430C524.87,454.56,517.11,483.93,525.83,511.69Z"/><path class="cls-4" d="M892.53,561.15c-50.52,6.23-100.65,18-151.7,16-25.81-1-51.21-5.5-76.91-7.7-45.5-3.9-91.4-.57-137,2.07-88.5,5.12-177.31,7.65-266,5-65.42-2-131-6.78-196.23-2.36-22.43,1.52-43.6,2.78-64.68,3.27V824.64H1021.25V569.11C982.06,555.15,935.6,555.84,892.53,561.15Z"/><text class="cls-5" transform="translate(178.11 82.56)">a si<tspan class="cls-6" x="51.87" y="0">n</tspan><tspan x="69.63" y="0">gle du</tspan><tspan class="cls-7" x="163.71" y="0">n</tspan><tspan x="181.47" y="0">g pat con</tspan><tspan class="cls-8" x="326.01" y="0">t</tspan><tspan x="334.24" y="0">ai</tspan><tspan class="cls-9" x="362.01" y="0">n</tspan><tspan x="380.47" y="0">s d</tspan><tspan class="cls-10" x="424.31" y="0">o</tspan><tspan class="cls-11" x="443.42" y="0">z</tspan><tspan x="456.73" y="0">e</tspan><tspan class="cls-12" x="474.81" y="0">n</tspan><tspan class="cls-13" x="493.27" y="0">s </tspan><tspan class="cls-14" x="517.37" y="0">o</tspan><tspan x="536.22" y="0">f speci</tspan><tspan class="cls-15" x="631.9" y="0">e</tspan><tspan class="cls-16" x="649.82" y="0">s </tspan><tspan class="cls-14" x="103.9" y="38.4">o</tspan><tspan x="122.75" y="38.4">f i</tspan><tspan class="cls-12" x="150.68" y="38.4">n</tspan><tspan class="cls-17" x="169.15" y="38.4">s</tspan><tspan class="cls-16" x="182.11" y="38.4">ec</tspan><tspan class="cls-18" x="217.08" y="38.4">t</tspan><tspan x="225.63" y="38.4">s - 1000s </tspan><tspan class="cls-14" x="359.83" y="38.4">o</tspan><tspan x="378.68" y="38.4">f i</tspan><tspan class="cls-7" x="406.61" y="38.4">n</tspan><tspan x="424.37" y="38.4">d</tspan><tspan class="cls-10" x="444.12" y="38.4">iv</tspan><tspan x="467.89" y="38.4">iduals.</tspan></text><path class="cls-4" d="M326,215.19c8.22,8.88,16.51,22.95,7.8,31.45-3.34,3.27-8.28,4.36-12.95,5.1-30.79,4.88-67.66,3.08-86.43,27.32-14,18-11.17,43.52-3.42,64.72-17.83-.65-38.64,16.18-48,30.93a49,49,0,0,0-1.36,49.6c-45.38-2.45-92.91,36.91-92.84,81.06,0,14.56,4.47,29.6,14.86,40.08,11.37,11.47,28.07,16.06,44,19.72a859.06,859.06,0,0,0,328.7,10.56c24-3.9,48.75-9.24,67.84-23.9,29.14-22.4,38.2-66,20.25-97.52s-60.76-47.15-95.73-35c21.25-13.51,26.42-50.21,15-72.19S442.8,313.93,419,322.53c19.84-29.39,4.59-80.13-28.25-94.68C368.94,218.19,346.78,226.69,326,215.19Z"/><path class="cls-19" d="M140.4,672.81c4.68,18.47,11.19,26.55,11.19,26.55a11.53,11.53,0,0,1-18.35,13.95,12.66,12.66,0,0,1-.72-1.08l-.06,0a140.08,140.08,0,0,1-17.53-49.7A11.52,11.52,0,1,1,137.8,660c.1.68.22,1.29.33,2l-7.9,6.66Z"/><path class="cls-19" d="M299.74,700.15c9.86-16.31,11-26.62,11-26.62a11.53,11.53,0,0,1,22.82,3.26c-.07.44-.15.86-.26,1.28h.07a140.12,140.12,0,0,1-23.07,47.39A11.52,11.52,0,1,1,292.44,711c.41-.55.77-1.07,1.15-1.6l10.29.94Z"/><path class="cls-19" d="M432.59,660.74c15.73,10.76,26,12.52,26,12.52A11.52,11.52,0,1,1,454,695.85a12.93,12.93,0,0,1-1.26-.33l0,.08a139.93,139.93,0,0,1-46-25.69,11.52,11.52,0,1,1,15.44-17.06c.52.44,1,.82,1.54,1.24l-1.52,10.22Z"/><path class="cls-4" d="M730,434.81c14,13,23.09,30.87,27.25,49.55,5,22.67,2.48,48.3-12.53,66-14.83,17.51-38.92,24.27-61.82,25.83-9.31.63-18.91.52-27.63-2.81-7.63-2.92-14.15-8.15-20.24-13.61-11.91-10.67-23-22.88-29-37.67A69.35,69.35,0,0,1,609,464a95.43,95.43,0,0,1,13.75-18.85c13.38-14.72,32.87-29.84,53.7-30.49A76.42,76.42,0,0,1,730,434.81Z"/><path class="cls-20" d="M735.87,444.06l-5.51-6.1s12.56.47,33.89,26.88c0,0,2.52-3.18,4.53-2.45,0,0,2.3-5.08,12.34-1.42s22.54,11.83,22.54,11.83,7.41,5.88,21.55,28.31c0,0,22.46,19.54,13.56,38.36,0,0,2.45,4.53,6.25,4.09a16.87,16.87,0,0,0,.81,3.34h0a31.08,31.08,0,0,1,9.12-.63s.44,3.8-6.43,2.66c-.75-.12-1.38-.19-1.93-.24,1.14,2.28,3.07,4.47,6.28,4.55,0,0-6.21,4.57,5.3,4.2,0,0-.73,2-5.37,3.51a8.36,8.36,0,0,0,5.91,1.24s-1.15,3.13-6.31,1.76c4.49,2.43,6.53,1.61,6.56,1.6l.19.44c1.58-3.07,5.7-.66,5.7-.66s-6.26,3.21-5.9,1.22l-.42.07c-1.28.14-4.08-.06-8.62-3l0-.05c-.58.8-2.36,2.63-6.19,2.31,0,0-3.4-4.42-8.25-4.82s-7.53-6.83-7.53-6.83-7.19-4-9.9,5.95-9.49,26.12-9.49,26.12-5.48,2.55-7.71-.07c0,0,11.32-18.63,13.08-28.46,0,0-12.48-3.85-9.08.57,0,0-16.84-12.49.66-19.32,0,0-1.17-1.79.4-4.86,0,0-4.13-2.41-7.82-1,0,0-.18,6.76-5.88,7.41a11.08,11.08,0,0,1-8.1,4.79s-9.57,8.8-21.63,4.42c0,0,9.72.8,15.93-3.77,0,0-6-2.19-8.73-17.27,0,0,6.61,15.59,10.52,16.11,0,0,4.53-2.45,4.93-7.31,0,0-7.09-3-5.22-11.9,0,0-11.29,2.26-27-17.1l-9.5,1.1,2.41-4.13,4.75-.55s-7.52-6.83-9.24-13.36c0,0,10.08,12.3,12.09,13,0,0,6.65-.76,9.38-2,0,0-4-1.46-3.43-13.08,0,0-6.17-11.79-.29-19.21,0,0,.51-3.9,1.13-6.86C760.23,463.38,745.18,449.72,735.87,444.06Z"/><path class="cls-21" d="M805.93,533.79s-1.21-12.1,27.55-23.38"/><path class="cls-22" d="M817.61,518.73s7.54,4.32,18.9-3.49"/><path class="cls-23" d="M830.39,512.07s-18.26-27.56-49-43"/><text class="cls-24" transform="translate(604.18 654.98)">mic<tspan class="cls-8" x="52.9" y="0">r</tspan><tspan x="61.98" y="0">ob</tspan><tspan class="cls-10" x="100.99" y="0">e</tspan><tspan class="cls-13" x="118.91" y="0">s (</tspan><tspan class="cls-7" x="150.72" y="0">m</tspan><tspan class="cls-14" x="178.21" y="0">e</tspan><tspan x="195.87" y="0">t</tspan><tspan class="cls-7" x="204.73" y="0">h</tspan><tspan x="222.53" y="0">a</tspan><tspan class="cls-7" x="242.27" y="0">n</tspan><tspan class="cls-14" x="260.03" y="0">o</tspan><tspan x="278.88" y="0">t</tspan><tspan class="cls-8" x="287.74" y="0">r</tspan><tspan x="296.83" y="0">op</tspan><tspan class="cls-9" x="335.8" y="0">h</tspan><tspan x="354.3" y="0">s) </tspan><tspan x="-21.31" y="38.4">in t</tspan><tspan class="cls-6" x="24.86" y="38.4">h</tspan><tspan x="42.66" y="38.4">e </tspan><tspan class="cls-25" x="71.77" y="38.4">s</tspan><tspan x="84.74" y="38.4">oil co</tspan><tspan class="cls-26" x="166.46" y="38.4">n</tspan><tspan class="cls-7" x="184.38" y="38.4">v</tspan><tspan x="199.97" y="38.4">ert </tspan><tspan class="cls-6" x="247.68" y="38.4">m</tspan><tspan class="cls-14" x="275.17" y="38.4">e</tspan><tspan x="292.83" y="38.4">t</tspan><tspan class="cls-7" x="301.69" y="38.4">h</tspan><tspan x="319.48" y="38.4">a</tspan><tspan class="cls-7" x="339.23" y="38.4">n</tspan><tspan x="356.99" y="38.4">e </tspan><tspan x="-3.5" y="76.8">back </tspan><tspan class="cls-8" x="79.22" y="76.8">t</tspan><tspan x="87.44" y="76.8">o </tspan><tspan class="cls-27" x="117.74" y="76.8">C</tspan><tspan x="136.69" y="76.8">O</tspan></text><text class="cls-24" transform="translate(768.07 742.43) scale(0.58)">2</text><text class="cls-24" transform="translate(777.84 731.78)">, a l<tspan class="cls-15" x="54.37" y="0">e</tspan><tspan class="cls-16" x="72.29" y="0">ss p</tspan><tspan class="cls-14" x="129.15" y="0">o</tspan><tspan class="cls-8" x="148" y="0">t</tspan><tspan x="156.22" y="0">ent </tspan><tspan x="-36.77" y="38.4">g</tspan><tspan class="cls-8" x="-17.02" y="38.4">r</tspan><tspan x="-7.94" y="38.4">een</tspan><tspan class="cls-7" x="46.46" y="38.4">h</tspan><tspan x="64.26" y="38.4">ou</tspan><tspan class="cls-17" x="101.76" y="38.4">s</tspan><tspan class="cls-16" x="114.72" y="38.4">e gas.</tspan></text><path class="cls-28" d="M220.85,542.32a17,17,0,0,1,3.56-15.39,14.41,14.41,0,0,0,2.92-4.41c1.31-5.09,7.16-7,7.16-7-.89-4.54,5.27-8.18,5.27-8.18,2.84-7.49,7.78-7.59,7.78-7.59,2.47-4.71,10.64-5.22,10.64-5.22,6.93-6.26,11.76-2,11.76-2a4.84,4.84,0,0,1,5.29-.05c7.39-3.69,13.42,7.43,13.42,7.43a8.44,8.44,0,0,1,.87,2.41h0s1,3,5.26,2.72,9.06,3.65,9.06,3.65,2.42,2.45-4.22,2.28c0,0,3.56,3.61,2.24,5.79s-4.59-3.25-4.59-3.25a15.69,15.69,0,0,0-8.32-5.33h0a18.59,18.59,0,0,1-2.57,4.86s-3.4-4.52-7.23-6.41-2.14,2.42-2.14,2.42c3.3,6.66,1,11.12,1,11.12a48.14,48.14,0,0,0-2-7.76,15.91,15.91,0,0,1-1,8c.65-5.15-4.26-14.92-4.26-14.92l-1.08,2.76s6,14,1.5,14.6c-3.45.46-4.1-5.26-4.1-5.26a10.22,10.22,0,0,0-2.24-6.72c-3.65-5-4,.64-4,.64,1,12.9,7.42,19.46,7.42,19.46-2.95.35-5.52-3.24-5.52-3.24-6.46,3.23-6.08-8.31-5.94-10.54-.38,3.06-5.41,2.89-5.41,2.89,1.11,3.78-4.51,5-4.51,5,.76,4.28-2.92,5-2.92,5-.56,5.31-13.3,14.74-13.3,14.74S223.12,551.72,220.85,542.32Z"/><path class="cls-28" d="M414.13,305.83a10.32,10.32,0,0,0-2.15-9.31,8.64,8.64,0,0,1-1.77-2.66c-.79-3.08-4.33-4.24-4.33-4.24.54-2.74-3.19-4.95-3.19-4.95-1.71-4.52-4.71-4.59-4.71-4.59-1.49-2.84-6.43-3.15-6.43-3.15-4.19-3.79-7.11-1.21-7.11-1.21a2.93,2.93,0,0,0-3.2,0c-4.47-2.23-8.12,4.5-8.12,4.5a5.22,5.22,0,0,0-.52,1.46h0a2.89,2.89,0,0,1-3.18,1.64c-2.55-.17-5.49,2.21-5.49,2.21s-1.46,1.48,2.56,1.38c0,0-2.15,2.18-1.36,3.5s2.78-2,2.78-2a9.47,9.47,0,0,1,5-3.22h0a11.26,11.26,0,0,0,1.55,2.94,15.27,15.27,0,0,1,4.38-3.88c2.32-1.14,1.3,1.47,1.3,1.47-2,4-.63,6.72-.63,6.72a29.68,29.68,0,0,1,1.23-4.69,9.64,9.64,0,0,0,.58,4.86c-.4-3.11,2.58-9,2.58-9l.65,1.66s-3.62,8.48-.91,8.84c2.09.27,2.48-3.19,2.48-3.19a6.22,6.22,0,0,1,1.35-4.06c2.21-3,2.44.39,2.44.39-.63,7.8-4.48,11.77-4.48,11.77,1.78.21,3.33-2,3.33-2,3.91,1.95,3.68-5,3.6-6.38.23,1.85,3.27,1.75,3.27,1.75-.67,2.29,2.73,3,2.73,3a2.4,2.4,0,0,0,1.76,3c.34,3.22,8.05,8.91,8.05,8.91S412.75,311.52,414.13,305.83Z"/><path class="cls-29" d="M335.39,357.68c5.66-10-.63-19.21-8.22-25.89,1.57-.18,4.45-.62,5.53-1.48a6.49,6.49,0,0,1,1.66-1c1.88,1.45,3.23-1.06,3.23-1.06,1.67,1,2.19-.46,2.19-.46,1.39,1.09,2.06.18,2.06.18,1.42,1.34,1.86.43,1.86.43a1.52,1.52,0,0,0,1.53.65c1.66,2,2.49,1.49,2.49,1.49a2.38,2.38,0,0,0,1.25,1c-1.7-2,.77-2.29.77-2.29a1.91,1.91,0,0,0-1.67.39,3.59,3.59,0,0,0-1.48-.53c-.53.05-1.21-.67-1.21-.67-.28-1.18-1.46-.65-1.46-.65a1.34,1.34,0,0,0-1.79-.57,1.49,1.49,0,0,0-2.26-.25c-1.38-1.13-2.38.62-2.38.62-2.85-1-3.17.76-3.17.76-3.69-.64-7.22,1.71-8.27,2.5a79.69,79.69,0,0,0-15-9.68s2.18-2.33,1.93-3.44c-.14-.65.77-1.24.77-1.24,3.18-.33,3.25-1.94,3.25-1.94,2.06-.06,2.14-1.32,2.14-1.32a1.71,1.71,0,0,0,2.17-.81c1.75.58,1.7-.62,1.7-.62,1.25,0,1.09-1.07,1.09-1.07,2.05-1.52,1.63-2.23,1.63-2.23a2.15,2.15,0,0,0,1-1.26c-1.92,1.93-2.09-.81-2.09-.81a1.81,1.81,0,0,0,.14,1.56,4.52,4.52,0,0,0-.84,2.23c-.82-.28-1.26.87-1.26.87-.73-.45-1.56.68-1.56.68a1.68,1.68,0,0,0-2.24.77c-1.49-.57-2.13,1.37-2.13,1.37-2-.61-3.46,2.13-3.46,2.13-3.52.37-3.9,4.74-3.9,4.74-3.09-1.24-5.93,1.3-5.93,1.3a14.15,14.15,0,0,0-4.07-6.85c.81-3.31-.43-4.87-.43-4.87.75-.59,0-1.42,0-1.42a4.63,4.63,0,0,0-.37-4.39c1.65-1.64.62-2.9.62-2.9,1.13-1.94.16-2.33.16-2.33.62-1.86-.5-2-.5-2,.26-1.35-.81-1.52-.81-1.52a3,3,0,0,0-1.63-2.24,1.2,1.2,0,0,0-.59-1c.92,2.36-1.46,1.46-1.46,1.46.38.52,1.36.42,1.36.42.12.7,1.85,1.72,1.85,1.72a1.17,1.17,0,0,0,.7,1.48c-.66.61.27,1.63.27,1.63-1,.65-.17,2.11-.17,2.11s-1.34.27-.93,1.5a5.69,5.69,0,0,1,.31,2.06c-2.2,2,.1,4.41.1,4.41a.73.73,0,0,0,.15,1,3.3,3.3,0,0,0-.68,2.49c-4-3.61-7.85.14-7.85.14a5.66,5.66,0,0,0-2.59-2.67s.74-.71-.73-1.91a2,2,0,0,0-2.81.36l-.63,0s3.2-7.85-2.32-18.83-4-17.53-4-17.53-3.05,4.65,3.28,17.5c5.49,11.13,2.37,18.61,2.37,18.61a1.7,1.7,0,0,0-1.3.28c.86-2.77-2.52-4.61-2.52-4.61s-.33-.81-.95-.06a.71.71,0,0,0,.18,1.17,4.38,4.38,0,0,0-3.12,1.52s.76.62,1.41.23a1.56,1.56,0,0,1,1.31-.12,1.08,1.08,0,0,0-.57.71s.13.31,1.72-.07,1.31.61,1.31.61a3.33,3.33,0,0,0-3.69,4.48s-.9.46-.84-1.16-.28-1.71-.28-1.71a1.09,1.09,0,0,0-.57.71,1.54,1.54,0,0,1-.15-1.3c.26-.72-.5-1.35-.5-1.35a4.37,4.37,0,0,0-.89,3.37.69.69,0,0,0-1.16,0c-.63.76.23.93.23.93s2.47,3,5,1.57a1.71,1.71,0,0,0,0,1.33s-6.73,4.52-18.71,1.3c-13.84-3.7-17.8.19-17.8.19s6.25-2.75,18,.49,18.92-1.4,18.92-1.4l.08.62a2,2,0,0,0,.2,2.83c1.47,1.2,2,.35,2,.35a5.65,5.65,0,0,0,3.13,2s-2.92,4.54,1.4,7.72a3.36,3.36,0,0,0-2.32,1.17.73.73,0,0,0-1,0s-2.79-1.79-4.33.76a5.66,5.66,0,0,1-2.09.09c-1.28-.14-1.29,1.2-1.29,1.2s-1.6-.55-2,.59c0,0-1.17-.71-1.64.06a1.17,1.17,0,0,0-1.59-.4s-1.34-1.5-2.05-1.48c0,0-.1-1-.68-1.26,0,0,1.35,2.16-1.15,1.71a1.21,1.21,0,0,0,1.14.39,3,3,0,0,0,2.51,1.16s.38,1,1.65.5c0,0,.33,1.07,2,.1,0,0,.58.88,2.26-.61,0,0,1.44.77,2.71-1.18a4.61,4.61,0,0,0,4.38-.49s1,.55,1.41-.29c0,0,1.76.9,4.85-.54a14.07,14.07,0,0,0,7.51,2.65s-1.94,3.29-.11,6.09c0,0-4.22,1.21-3.9,4.74,0,0-2.39,2-1.42,3.81,0,0-1.78,1-.93,2.35a1.7,1.7,0,0,0-.32,2.35s-.94,1-.36,1.66c0,0-1,.65-.6,1.41a4.47,4.47,0,0,0-2,1.25,1.82,1.82,0,0,0-1.55.18s2.71-.38,1.2,1.9a2.26,2.26,0,0,0,1-1.27s.77.29,1.86-2a.94.94,0,0,0,.85-1.27s1.18-.18.25-1.79a1.72,1.72,0,0,0,.39-2.3s1.21-.31.88-2.34c0,0,1.56-.38,1.26-3.58,0,0,.41-1,1.07-1,1.13,0,3-2.57,3-2.57a79.47,79.47,0,0,0,12.41,12.81c-.56,1.18-2.18,5.1-.83,8.6,0,0-1.7.66-.12,3.26,0,0-1.54,1.31-.16,2.44,0,0-.84,1.57.69,2.17,0,0-.31,1.35.91,1.64,0,0-.29,1.27.92,1.32,0,0,.84.51.9,1.05a3.51,3.51,0,0,0,.8,1.35,1.87,1.87,0,0,0,0,1.71s-.16-2.49,2.09-1.2a2.25,2.25,0,0,0-1.21-1s.35-.92-1.95-2.16a1.5,1.5,0,0,0-.93-1.37s.81-.61-.78-1.74c0,0,.76-.85-.58-2,0,0,1.34-.8,0-2.24,0,0,2.2-1.82.42-3.38a6.22,6.22,0,0,1,.66-1.82c.63-1.23.49-4.14.36-5.71C316.43,360.81,326.7,365.17,335.39,357.68Z"/><path class="cls-29" d="M377.9,521.17c8.15.14,11.77-6.91,13.35-13.92.65.92,1.9,2.56,2.8,2.95a4.29,4.29,0,0,1,1.19.69c-.26,1.67,1.76,1.65,1.76,1.65-.05,1.39,1,1.22,1,1.22-.21,1.23.59,1.34.59,1.34-.35,1.34.37,1.31.37,1.31a1.07,1.07,0,0,0,.11,1.17c-.69,1.72-.08,2.06-.08,2.06a1.68,1.68,0,0,0-.19,1.11c.64-1.72,1.69-.29,1.69-.29a1.33,1.33,0,0,0-.81-.91,2.53,2.53,0,0,0-.17-1.11c-.21-.31,0-1,0-1,.64-.57-.1-1.13-.1-1.13a1,1,0,0,0-.25-1.31c.56-1-.61-1.5-.61-1.5.23-1.24-1.2-1.27-1.2-1.27-.32-2.13-1.55-1.71-1.55-1.71-.85-2.53-3.52-3.93-4.36-4.32a56.57,56.57,0,0,0,.94-12.63s2.19.57,2.8,0c.36-.31,1,.05,1,.05,1.3,1.88,2.32,1.37,2.32,1.37.74,1.26,1.55.89,1.55.89a1.23,1.23,0,0,0,1.25,1.08c.23,1.29.95.85.95.85a.68.68,0,0,0,1.05.31c1.64.76,1.94.26,1.94.26a1.53,1.53,0,0,0,1.13.21c-1.86-.54-.2-1.58-.2-1.58a1.28,1.28,0,0,0-.93.61,3.18,3.18,0,0,0-1.67.24c-.11-.61-1-.49-1-.49,0-.61-1-.74-1-.74,0-1.13-1.24-1.14-1.24-1.14-.15-1.12-1.58-.86-1.58-.86-.29-1.43-2.5-1.43-2.5-1.43-1.43-2.07-4.29-.82-4.29-.82-.27-2.35-2.82-3.26-2.82-3.26a10.09,10.09,0,0,0,2.89-4.87c2.34-.62,2.89-1.92,2.89-1.92.62.27.9-.46.9-.46a3.31,3.31,0,0,0,2.61-1.73c1.58.48,2-.59,2-.59,1.59,0,1.51-.7,1.51-.7,1.37-.25,1-1,1-1,.93-.3.68-1,.68-1a2.15,2.15,0,0,0,.84-1.78.87.87,0,0,0,.45-.72c-1.16,1.38-1.41-.41-1.41-.41-.19.41.2,1,.2,1-.39.31-.44,1.74-.44,1.74a.83.83,0,0,0-.69.94c-.6-.21-.92.72-.92.72-.76-.43-1.38.61-1.38.61a.82.82,0,0,0-1.25-.08,3.89,3.89,0,0,1-1.18.9c-2-.69-2.71,1.56-2.71,1.56a.52.52,0,0,0-.56.43,2.33,2.33,0,0,0-1.79.42c.9-3.71-2.75-4.85-2.75-4.85a4,4,0,0,0,.78-2.52s.7.22,1-1.11-1.18-1.63-1.18-1.63l-.24-.38s6-.67,11-7.84,9.58-8.44,9.58-8.44-3.93-.32-9.8,8c-5.08,7.21-10.8,7.8-10.8,7.8a1.21,1.21,0,0,0-.62-.72c2-.4,2-3.13,2-3.13s.4-.48-.29-.62a.5.5,0,0,0-.66.52,3.15,3.15,0,0,0-2-1.44s-.13.69.34,1a1.08,1.08,0,0,1,.51.78.77.77,0,0,0-.63-.12s-.15.19.62,1,.07,1,.07,1a2.36,2.36,0,0,0-4-.77s-.59-.41.44-.92,1-.75,1-.75a.73.73,0,0,0-.63-.12,1.05,1.05,0,0,1,.75-.53c.54-.09.68-.77.68-.77a3.09,3.09,0,0,0-2.4.58.49.49,0,0,0-.43-.71c-.68-.13-.5.47-.5.47s-1,2.54.72,3.65a1.2,1.2,0,0,0-.83.44s-5.1-2.66-7.17-11.23c-2.39-9.89-6.17-11-6.17-11s3.84,3,5.81,11.38,7.29,11.32,7.29,11.32l-.35.27s-1.45-.25-1.7,1.08.46,1.38.46,1.38a4,4,0,0,0-.19,2.63s-3.82-.28-4.34,3.49a2.36,2.36,0,0,0-1.51-1,.52.52,0,0,0-.37-.61s.18-2.35-1.94-2.44a3.93,3.93,0,0,1-.77-1.27.81.81,0,0,0-1.18-.4s-.2-1.19-1.06-1.07c0,0,0-1-.6-1a.83.83,0,0,0-.29-1.12s.48-1.34.23-1.78c0,0,.58-.4.55-.85,0,0-.89,1.57-1.46-.14a.86.86,0,0,0,.15.84,2.16,2.16,0,0,0,.13,2s-.51.58.25,1.2c0,0-.56.57.62,1.3,0,0-.35.66,1.15,1.2,0,0,0,1.17,1.66,1.3a3.27,3.27,0,0,0,1.8,2.56s0,.78.65.78c0,0,0,1.4,2,2.84a10.07,10.07,0,0,0,.89,5.59s-2.7-.1-3.83,2c0,0-2.19-2.22-4.28-.81,0,0-2.06-.82-2.86.41,0,0-1.23-.78-1.78.21a1.2,1.2,0,0,0-1.57.6s-1-.24-1.16.34c0,0-.76-.42-1.09.1a3.17,3.17,0,0,0-1.46-.84,1.27,1.27,0,0,0-.64-.9s1.15,1.56-.78,1.39a1.59,1.59,0,0,0,1.14.22s.09.58,1.91.47a.66.66,0,0,0,1.07.1s.52.67,1.21-.45a1.22,1.22,0,0,0,1.56-.54s.6.64,1.76-.25c0,0,.77.84,2.66-.43,0,0,.77-.08,1,.34.37.71,2.62,1,2.62,1a56.13,56.13,0,0,0-3.77,12.09c-.93.05-3.92.37-5.65,2.4,0,0-1-.84-2.08,1,0,0-1.33-.51-1.57.73,0,0-1.27,0-1.12,1.17,0,0-.94.27-.72,1.13,0,0-.89.25-.51,1,0,0,0,.69-.35.92a2.43,2.43,0,0,0-.56.95,1.37,1.37,0,0,0-1.09.55s1.5-.95,1.46.9a1.66,1.66,0,0,0,.24-1.11s.69-.09.67-1.94a1.07,1.07,0,0,0,.54-1s.66.29.82-1.08c0,0,.79.19,1.05-1,0,0,.95.56,1.4-.75,0,0,1.88.75,2.25-.89a4.38,4.38,0,0,1,1.36-.21c1,0,2.75-1.09,3.68-1.71C369.5,510.41,370.27,518.3,377.9,521.17Z"/><path class="cls-30" d="M123.69,542.71c4.61,2.68,10,.6,10,.6,2-1.4,5.8-.82,5.8-.82a16.33,16.33,0,0,0-2.78-7,4.24,4.24,0,0,1,3.68,1.39c2.61,2.51,4.09,1.48,4.09,1.48,17.45-1.43,18.95,4.55,18.95,4.55,0-8-18.69-5.54-18.69-5.54l-.35-.54s-1,.16-3.11-1a7.67,7.67,0,0,0-5.08-1c-2.13-2.57-5.57-4.73-11.19-4.42-5.87.32-5.57,4.24-4.89,6.49-2.29-.41-6.28-.54-9.13,2.48-4.23,4.47-1.9,6.09-1.9,6.09a1.22,1.22,0,0,0-1.24,1c-5.06,2.16-4.41,5.54-4.41,5.54l-.93.17S96,545.5,93.1,545.78c-2.28.22-5.73,4.32-7.12,6.09a22.29,22.29,0,0,0-6-.78s-4.7.15-15.84,14.7c0,0-2.15,6,14-13.24,0,0,5.7.94,8.29,3a15.71,15.71,0,0,0-2.89,3.19C76.93,568.37,81.35,576,81.35,576s2.61,4.69,6.72,4.47,9.55-8.3,9.55-8.3C94,586.21,96.15,584,96.15,584c1.58,1,3.82-16.22,3.82-16.22s-.08-3.41,3.51-2.42,2.81-2.4,2.81-2.4c2.43-.6,2.17-5.41,2.17-5.41,1.15,1.59,4.55,1.4,4.55,1.4.94,2.06,3.51,1.81,3.51,1.81s1.67.25,3.8-1.62a6.07,6.07,0,0,1,4.5-1.55c4.94,9.6,6.84,11.52,7.58,11.69l4.08,6.5c1.34-.25,2.39,1.93,2.39,1.93,1.36-.18,1.68.62,1.68.62a1.64,1.64,0,0,0,1.52.8c2.31-.16,3-1.11,3-1.11s.47,1.4.71,1.19-.1-1.87-.1-1.87c-.86-.54-2.09.46-2.09.46s-1.49,1-2,.12-1.94-.84-1.94-.84c-.15-.64-2.32-1.69-2.32-1.69-.48-1.1-4.46-6.76-4.46-6.76h0c-.12-3-7.51-11.77-7.51-11.77-.19-1.41-1.85-1.43-1.85-1.43a22.07,22.07,0,0,1,6.68-2.72c-1.69,3.5-.94,8.41-.94,8.41,3.71-9.51,1.65-10.45,1.65-10.45s-.29-1.16-5.81,1.26c-10.13,4.44-10,.55-10,.55,4.59-2,3.85-4.8,3.85-4.8,3-1.46,2.7-6.51,2.7-6.51a10.82,10.82,0,0,0,.88.79m-23.1,12.44a12.39,12.39,0,0,0-10.13-.59,5.76,5.76,0,0,0-2-1.43l.27,0c2-.69,5.11-5.34,5.11-5.34a36.57,36.57,0,0,0,6.65,5.17Z"/><path class="cls-30" d="M152.16,445.28c3.49.87,6.6-1.5,6.6-1.5,1.06-1.3,3.61-1.63,3.61-1.63a11,11,0,0,0-3.12-4,2.87,2.87,0,0,1,2.65.21c2.16,1.13,2.93.19,2.93.19,11-4.22,13.15-.63,13.15-.63-1.49-5.19-13.17-.06-13.17-.06l-.33-.29a3.84,3.84,0,0,1-2.21-.06,5.19,5.19,0,0,0-3.48.31c-1.86-1.27-4.5-2-8.09-.76-3.75,1.32-2.81,3.81-1.94,5.14a6.68,6.68,0,0,0-5.46,3.33c-1.9,3.69-.08,4.31-.08,4.31a.81.81,0,0,0-.61.89c-2.88,2.36-1.82,4.43-1.82,4.43l-.57.28s-5.47-3.12-7.32-2.39c-1.44.57-2.9,3.88-3.47,5.29a15.15,15.15,0,0,0-4,.63s-3,1-7.5,12.52c0,0-.26,4.3,6.61-11.24,0,0,3.88-.46,5.94.39a10.58,10.58,0,0,0-1.27,2.61c-2.5,7.5,1.8,11.59,1.8,11.59s2.58,2.55,5.2,1.63,4.63-7.18,4.63-7.18c.33,9.81,1.28,8,1.28,8,1.21.33-.58-11.24-.58-11.24s-.69-2.19,1.82-2.24,1.37-2.08,1.37-2.08c1.47-.85.38-3.92.38-3.92,1.05.81,3.22.05,3.22.05a2.44,2.44,0,0,0,2.62.51,3.48,3.48,0,0,0,2.16-1.76,4.08,4.08,0,0,1,2.63-1.86c5,5.29,6.61,6.18,7.12,6.15l3.87,3.45c.82-.41,1.92.8,1.92.8.84-.38,1.2.08,1.2.08a1.09,1.09,0,0,0,1.14.23c1.46-.53,1.73-1.28,1.73-1.28s.57.82.69.64-.42-1.2-.42-1.2c-.66-.19-1.27.7-1.27.7s-.78.91-1.27.45a1.65,1.65,0,0,0-1.41-.18c-.22-.39-1.83-.66-1.83-.66-.51-.62-4.17-3.54-4.17-3.54h0c-.63-1.9-7.09-6.22-7.09-6.22-.38-.87-1.46-.58-1.46-.58a15.09,15.09,0,0,1,3.82-3,11.34,11.34,0,0,0,1,5.63c.61-6.86-.9-7.09-.9-7.09s-.41-.69-3.53,1.92c-5.73,4.79-6.36,2.23-6.36,2.23C151,451,150,449.37,150,449.37c1.66-1.51.52-4.73.52-4.73a7.92,7.92,0,0,0,.72.35m-12.63,12.43A8.34,8.34,0,0,0,132,459a3.93,3.93,0,0,0-1.58-.55l.16-.07c1.14-.83,2.31-4.43,2.31-4.43a25,25,0,0,0,5.29,2.09Z"/><path class="cls-31" d="M389,559.45a2.6,2.6,0,0,1-.1-.4l.14,0c.37.72.75,1.43,1.15,2.19.48-.86-.17-1.46-.3-2.17.3.38.58.76.95,1.26,0-.51-.06-.88-.09-1.24h.09l.59,1.88c.28-.11.52-.29.75-.27a3.17,3.17,0,0,1,.88.42l1.26-2.34a3.15,3.15,0,0,1,0,.92c0,.21-.27.59.27.6.28-1,.54-2.1.8-3.14l.13,0c-.14.9-.28,1.79-.44,2.77a5.46,5.46,0,0,1,.65-.26,1.25,1.25,0,0,1,.6-.06c.73.19.95.12,1.24-.58.37-.91.71-1.83,1.07-2.75.07-.14.15-.27.23-.4l.13,0c-.14,1.14-.82,2.18-.65,3.49,1.74-1,2.16-2.64,2.26-4.42,1.43,0,2.14,1.07,2.76,2.2l.16,0c0-.37,0-.72,0-1.17.25.34.44.62.66.88.05.07.16.1.26.15a1,1,0,0,0,0-.34c-.08-.22-.21-.43-.31-.66s-.28-.63-.41-1a.33.33,0,0,1,.13-.07c.35.5.69,1,1.06,1.51a2,2,0,0,0,.34.31l.12-.11c-.17-.54-.32-1.09-.49-1.63a7.69,7.69,0,0,1,.94.84,2.06,2.06,0,0,0,.49.25,2.56,2.56,0,0,0-.1-.51c-.17-.38-.37-.74-.56-1.12l.11-.07,1.32,1.32c.44-.84-.32-1.29-.46-1.92.38.44.73.9,1.1,1.35.08.09.26.12.38.19a2,2,0,0,0,0-.43c-.19-.57-.39-1.13-.6-1.7a.39.39,0,0,0,.13-.06l1.62,1.77.13-.07c-.13-.57-.27-1.14-.43-1.82.57.49.59,1.26,1.16,1.56a.6.6,0,0,0,.15-.09c-.21-.73-.43-1.46-.65-2.19l.11-.05c.25.51.51,1,.77,1.52a1.37,1.37,0,0,0,.35.33,1.63,1.63,0,0,0,0-.44c-.09-.45-.22-.9-.31-1.37a1.37,1.37,0,0,1,0-.34h.14c.22.57.43,1.14.67,1.7,0,.11.18.17.28.25a1.59,1.59,0,0,0,.12-.32,4,4,0,0,0-.72-2.37,5,5,0,0,1-.28-.49c.52-.06.86.07,1,.54s.2.72.28,1.08.2.88.32,1.37a2.75,2.75,0,0,0,1-2.79,7.63,7.63,0,0,1-.13-1.16c0-.1.14-.2.19-.31l.14.07c.05,1,.09,2,.12,3,.26-.23.43-.5.66-.56a.83.83,0,0,0,.69-.91,7.91,7.91,0,0,1,.06-.83c.07-.69.14-1.39.22-2.06.39-.07.46.07.43.36-.15.92-.26,1.85-.4,2.78,0,.25,0,.46.35.34.32-1.37.65-2.76,1-4.14l.15,0c0,.15,0,.29,0,.44-.13.84-.26,1.68-.37,2.53a1,1,0,0,0,.08.42l.18,0c.31-1.24.6-2.49.9-3.73h.15a1.76,1.76,0,0,1,.06.38c-.07.48-.15.95-.23,1.42s-.15.94-.23,1.41c1,.07,1.08,0,1.34-.86.17-.58.33-1.18.5-1.77s.37-1.42.55-2.08a7.42,7.42,0,0,1,4.54,1.59c.08-1.19-.82-1.46-1.58-1.91.55-.36.8.14,1.11.28a8.23,8.23,0,0,1,1.12.63.41.41,0,0,1,.12-.11,3.49,3.49,0,0,0-.48-.74,3.83,3.83,0,0,0-.8-.44l-1.29-.65a1.15,1.15,0,0,1,.07-.15l3.1,1c-.29-.34-.51-.61-.74-.87a.47.47,0,0,1,.36.13c.34.27.67.56,1,.82a.83.83,0,0,0,.29.06,1.25,1.25,0,0,0-.05-.3,2.25,2.25,0,0,0-.24-.3l-.83-1,.11-.09c.4.36.79.73,1.2,1.09a1.27,1.27,0,0,0,.36.12,1,1,0,0,0-.1-.33c-.2-.3-.42-.57-.63-.86s-.35-.49-.52-.73a.81.81,0,0,0,.1-.09,3.83,3.83,0,0,1,.28.29c.37.45.74.89,1.1,1.36a.4.4,0,0,0,.59.15c1.11-.53,1.24-.77.94-2-.1-.35-.23-.7-.36-1s-.3-.74-.48-1.18a1.21,1.21,0,0,1,.78,1,11.88,11.88,0,0,0,.38,1.45,1.29,1.29,0,0,0,1.11.87c-.09-1.47-.17-2.9-.25-4.43.88.8.67,1.81.75,2.72.32.11.41,0,.43-.31,0-.81.06-1.61.1-2.41,0-.13,0-.26.05-.39l.16,0c0,1.13.05,2.26.07,3.52,1-1.6.58-3.19.45-4.77.35-.14.54-.06.56.32,0,.21.07.42.09.63.11.85.22,1.7.34,2.65l.34-.53c.6.24.71.18.74-.43,0-.41,0-.83,0-1.26,0-.81.1-1.62.16-2.44,0-.38.26-.44.59-.26,0,1.13-.07,2.26-.1,3.48a2.57,2.57,0,0,0,1.43-1.71,14.74,14.74,0,0,0,.18-1.77c0-.51,0-1,.06-1.57l4.61,1.86.44-1-2.49-1.7c0-.06,0-.12,0-.17a1.57,1.57,0,0,1,.46.09c.79.43,1.55.88,2.31,1.32l.06-.07c-.18-.32-.37-.63-.55-.93l.09-.08,1.44,1.47c-.32-1.47-1.34-2.22-2.39-3.1,1.51.34,2.17,1.45,3,2.43-.05-.24-.09-.48-.15-.83.15.12.22.2.29.22a3.81,3.81,0,0,0,.45.13,1.64,1.64,0,0,0-.07-.46c-.37-.71-.77-1.41-1.15-2.12a2,2,0,0,1-.18-.4l.13-.09,2.42,2.67.06,0c-.17-.61-.34-1.21-.53-1.8l.17-.05.8,2.1a2.18,2.18,0,0,0-.12-1.7c-.2-.4-.46-.77-.69-1.16-.07-.12-.09-.28-.15-.41L445,531l1.68,2.64.17-.09c-.19-.65-.38-1.3-.58-1.94a9.93,9.93,0,0,1,.87,1.64c.1.22.22.42.54.08-.3-.74-.62-1.49-.93-2.26a1.46,1.46,0,0,1,0-.38l.17,0c.54.84,1.07,1.67,1.6,2.52a1.52,1.52,0,0,0,.48-2c-.22-.55-.41-1.12-.61-1.66l.13,0a3.39,3.39,0,0,1,1.2,2.59,2.7,2.7,0,0,0,.12.49H450c.09-.72.18-1.43.26-2.15h.14c-.06.92-.11,1.84-.16,2.75a3,3,0,0,0,.6-2.32c-.06-.66-.12-1.31-.16-2,0-.15.08-.29.13-.45l.2,0,.48,2h.22c.08-.63.15-1.25.23-1.87h.19a8.18,8.18,0,0,1-.11,1.85c0,.66-.13,1.31-.19,1.95.35.17.42,0,.46-.26.21-1.44.44-2.87.67-4.35a2.17,2.17,0,0,1,.61.21,7.55,7.55,0,0,1,2.77,2.84.65.65,0,0,0,.73.47c-.17-.52-.34-1-.5-1.42l.11-.07c.22.33.43.67.67,1a1.74,1.74,0,0,0,.41.28,1.34,1.34,0,0,0-.09-.46c-.39-.7-.81-1.39-1.21-2.1-.06-.1,0-.26,0-.39h.16l1.56,2.39c0-.25.08-.45.14-.74l.19.44c.06.11.13.22.24.43a4.61,4.61,0,0,0-1.05-3.56c.28-.29.36-.11.46.1.53,1.09,1.06,2.17,1.57,3.23.55,0,.68-.22.61-.7-.17-1-.3-2-.45-3.15a5,5,0,0,1,1.54,3.72c.74-1.37,0-2.54-.06-3.77a.67.67,0,0,1,.29.38c.26.9.51,1.8.77,2.7a3.11,3.11,0,0,0,.22.45l.14,0-.18-3.36a1.26,1.26,0,0,1,.45.64c.13.73.2,1.46.31,2.2,0,.13.07.33.17.38a8,8,0,0,0,1,.32c.12-1.39.25-2.72.37-4l1.15-.28a.57.57,0,0,1,.7.28c.24.41.49.79.72,1.21s.54,1,.87,1.65c.31-1.31-.42-2.25-.78-3.42l.31.4c.38.56.76,1.12,1.15,1.67.06.08.2.09.3.13a.84.84,0,0,0,0-.35,1.59,1.59,0,0,0-.18-.34l-1.34-2.21a4.44,4.44,0,0,0,.75-.32c.42-.29.74-.15,1.14.1,1.86,1.17,3.74,2.31,5.61,3.45a2.52,2.52,0,0,0,.57.23c.4.09.76.1.93-.36s0-.69-.48-.92-1.11-.51-1.67-.78l-4.25-2.06,1.59-2.08a.41.41,0,0,1-.12-.09,2.89,2.89,0,0,0,.29-1.49c-.08-.82-.95-3-1.78-3.32l0,0-.94-.42a10.53,10.53,0,0,1,1.53-1c1.07-.42,1.77-1.37,2.83-1.83a11.49,11.49,0,0,0,2.11-1.56l-.14-.57a1.75,1.75,0,0,0-1.71.52,13.26,13.26,0,0,1-1.17,1.09c-1.33,1-2.68,1.89-4,2.82a.72.72,0,0,1-.38.17l-2.68-.48c.52-1,1-2,1.5-2.91l-.42-.24c-.32.54-.6,1.05-.91,1.56a1.67,1.67,0,0,1-1.42,1c.31-.41.61-.79.88-1.18a2.23,2.23,0,0,0,.43-1.5c-.84,1.11-1.62,2.1-2.34,3.12l0,.06h-.65l0,0c.61-1,1.22-2,1.81-3,.06-.1,0-.25,0-.37-.11.07-.26.11-.32.2-.53.63-1,1.28-1.57,1.92-.17.23-.36.44-.54.65l-.15-.09.18-.41c.38-.71.75-1.43,1.15-2.14.15-.27.1-.42-.23-.54l-2,3.15c.18-.57.36-1.08.5-1.6a2.42,2.42,0,0,0-.06-1.71l-1.39,3.22h-.17a1.12,1.12,0,0,1-.07-.42,15.67,15.67,0,0,0,.48-1.57,5.39,5.39,0,0,0,0-1.27l-.18,0a8.24,8.24,0,0,1-2.23,4.14c-.29-.39-.55-.77-.83-1.12a6.2,6.2,0,0,0-2.73-2.09,1.34,1.34,0,0,0-.49,0,.61.61,0,0,0,0,.15c.77.7,1.56,1.4,2.33,2.11a2.24,2.24,0,0,1,.23.34l-.14.1c-.52-.49-1-1-1.58-1.47a2.43,2.43,0,0,0-1.9-.78c1.88,1.62,2.3,2.11,2.34,2.84-.38-.38-.7-.77-1.07-1.1a21.21,21.21,0,0,0-1.82-1.43,2.83,2.83,0,0,0-.9-.21.78.78,0,0,1-.05.14l1.13,1a.32.32,0,0,1-.08.09L451,513.49a.76.76,0,0,0-1.18.28c-.06.11-.1.22-.15.32-.77-.32-.77-.32-1-.08a4.08,4.08,0,0,1,1.81,3.1l-.4.17c-.43-1-.85-1.94-1.31-2.89-.09-.19-.35-.32-.61-.52a5.17,5.17,0,0,1-.24.57l-1.1-.17.44.66a4,4,0,0,1,.71,3.07c0,.14,0,.27-.05.4l0,0a4.13,4.13,0,0,1-.61.07,1.12,1.12,0,0,0,.21-1.09c-.19-.74-.39-1.45-.65-2.17a4.27,4.27,0,0,0-.53-.89,22.81,22.81,0,0,0,.3,2.55,1.37,1.37,0,0,1-.06.39h-.2c-.18-.77-.38-1.56-.56-2.34l-.13,0c0,.41,0,.84-.08,1.27a8.54,8.54,0,0,1-.37-.9c0-.08-.14-.13-.22-.19a1,1,0,0,0-.16.24c-.1.18-.15.39-.24.58a3.64,3.64,0,0,0-.36.63c-.14.48-.23,1-.35,1.46a.35.35,0,0,0-.14,0c0-.82.06-1.65.08-2.46l-.13,0c-.36,1.05-.52,2.17-1,3.2a12.23,12.23,0,0,1,.15-1.52,1.73,1.73,0,0,0-.28-1.45,10.23,10.23,0,0,1-1.21,4.28c-.12.29-.34.3-.63.17-1-.45-2.11-.83-3.13-1.31a1.93,1.93,0,0,0-2.39.3,6.42,6.42,0,0,0-.61.9l-.26-.11-.41-.17a4.87,4.87,0,0,0,.39.46,7.69,7.69,0,0,1,2.13,2.63l-.5.3a.53.53,0,0,0,0-.22,5.6,5.6,0,0,0-1.63-2.08,2.82,2.82,0,0,0-1.79-.6l.94.82a9,9,0,0,1,.82.81,9.78,9.78,0,0,1,.57.94l-.11.07c-.95-.89-1.9-1.77-2.86-2.68l-.35.38c.7.74,1.36,1.47,2,2.18a.94.94,0,0,1,.25,1c-.19-.27-.34-.52-.52-.74-.43-.58-.87-1.16-1.34-1.71a.87.87,0,0,0-1-.29c.68.93,1.65,1.68,1.67,2.94a4.35,4.35,0,0,0-2.51-2.5,1.86,1.86,0,0,0,.41.62,3.79,3.79,0,0,1,1.42,2.6,2.31,2.31,0,0,0,.09.67h0a1,1,0,0,0-.39.07,2.79,2.79,0,0,0-.29-1.33,4.52,4.52,0,0,0-1.73-2.31c-.1.09-.17.18-.25.26-.4.31-.43.61-.17,1.09a5.11,5.11,0,0,1,.61,3.19,1.8,1.8,0,0,0,0,.57,1.16,1.16,0,0,1-.28,0,8.53,8.53,0,0,0-1-4.43l-.19,0c.15,1.23.31,2.47.45,3.71h-.15c-.22-1.16-.42-2.34-.63-3.51l-.16,0a1.3,1.3,0,0,0-.1.36c0,1,0,2.1,0,3.15a2.09,2.09,0,0,1-.05.32l-.14,0c-.11-.89-.22-1.78-.31-2.67,0-.29-.1-.47-.44-.3,0,.28,0,.55,0,.82l-.05,0a6.76,6.76,0,0,1-.39-.73c-.06.18-.09.25-.11.32-.35,1.78-.71,3.57-1,5.36l-.67.34a3.49,3.49,0,0,0-2.21-1.46,3.12,3.12,0,0,0-1-.05c-.15,0-.29,0-.43.06l-.33.11a2.42,2.42,0,0,0-.89.57l.45.19,2.19.9c.14.06.23.2.35.3a3.89,3.89,0,0,1-.48,0h-.05l-2.72-1a1.37,1.37,0,0,0-1.89.72,3.79,3.79,0,0,1,2.89,1.81,6.37,6.37,0,0,1,.35.55l-.35.2a.32.32,0,0,0,0-.18,5.33,5.33,0,0,0-3.63-2.23c-.06.2-.1.34-.15.47a4.79,4.79,0,0,0-.57,0c-.55.06-1,.25-1.19.83a.72.72,0,0,1-.53.59,3.61,3.61,0,0,0-.44.22c.1.47.21.93.31,1.37l0,0-.62-1.31c-.19,1.26-.37,2.39-.54,3.63l-.59-.61c.12-.24.3-.43.27-.6-.08-.69-.65-1.05-1.13-1.63.05.47.08.79.12,1.2l-.68-.69h-.13c.53,1.64-.08,3.07-.75,4.49a13.77,13.77,0,0,1,.39-1.66,2.42,2.42,0,0,0-.07-1.77c-.49,1.63-.93,3.13-1.43,4.77a4.91,4.91,0,0,0-3.43-2.15,2.6,2.6,0,0,0-.56,0l.29.52a.38.38,0,0,1,0,.12c-.35-.14-.69-.28-1-.39-.1,0-.21,0-.32.05a1,1,0,0,0,.17.28,2.3,2.3,0,0,0,.33.21l1.2.86c-.34-.14-.93-.36-1.49-.64a2.05,2.05,0,0,0-2.11.13,15.69,15.69,0,0,1-2.54,1.15,11.42,11.42,0,0,0-3.89,2,1.69,1.69,0,0,1-.32.19c-.13-.14-.26-.26-.47-.49,0,.71,0,1.28-.07,2l-.8-1.51-.15,0c-.09.56-.17,1.12-.25,1.68-.42-1.18-.42-1.18-.64-1.17a7,7,0,0,1-1.5,4.43c-.21-.23-.38-.42-.56-.6-.61-.62-1.19-1.28-1.85-1.84a1.88,1.88,0,0,0-1.19-.52,16.06,16.06,0,0,0-2.3.5c.05.33.08.54.13.89a7.15,7.15,0,0,0-.61-.79.48.48,0,0,0-.46-.11,1.55,1.55,0,0,1-1.61,0,2.75,2.75,0,0,0-.46-.18c-.14.48-.26.91-.41,1.44l-.82-1.15-.83.6c0-.24,0-.4-.06-.57-1.36,0-1.36,0-2,1.09a5.23,5.23,0,0,1-.66,1c-.66.72-1.38,1.41-2.07,2.12-.12-.12-.15-.14-.15-.17s-.07-.31-.11-.47a4.71,4.71,0,0,0-1.8-2.84.84.84,0,0,0-.37-.09,1.06,1.06,0,0,0,.08.37c.15.25.32.48.48.71a.55.55,0,0,1-.11.1,3.84,3.84,0,0,1-.51-.47c-.48-.66-.69-.75-1.48-.49a2.65,2.65,0,0,1-1.84-.05c-1-.37-1.23-.26-1.55.75-.57-.71-1.4-.28-2.13-.52,0,.72.05,1.39.07,2.07h-.1c-.25-.52-.5-1.05-.74-1.57a.76.76,0,0,1-.18.06l.18,1.31h-.05c-.27-.53-.52-1-.77-1.57l-.14,0a3.38,3.38,0,0,0,0,.45c.09.76.19,1.51.26,2.26a1.06,1.06,0,0,1-.09.36,14.3,14.3,0,0,1-.45-1.52,1.91,1.91,0,0,0-.94-1.27c.3,1.11.73,2.11.3,3.18-.23-.73-.39-1.48-.58-2.2s-.45-.86-1.27-.78a3.52,3.52,0,0,0,.15.33,2.61,2.61,0,0,0,.24.23,2.43,2.43,0,0,1,.52,2.13l-.12,1.14h0l-.5.16a1,1,0,0,1,.13-.25,3,3,0,0,0-3.1,2.28,8.45,8.45,0,0,0-.26,1.33,2.53,2.53,0,0,0,1.51,2.81,4.26,4.26,0,0,1,.65.42c.45.37.48.5.08.89s-.92.76-1.38,1.13l.05.19a.37.37,0,0,0,.59.1c.66-.4,1.32-.76,2-1.13a10.72,10.72,0,0,1-.85,1.2.38.38,0,0,0,0,.33.32.32,0,0,0,.31.05,9.22,9.22,0,0,0,.95-.81c.28-.27.51-.58.78-.85.08-.06.25,0,.37,0a.88.88,0,0,1-.07.33c-.33.45-.69.9-1,1.35a2.8,2.8,0,0,0-.15.3.55.55,0,0,1,.11.1l1.61-1c-.71,1.12-.71,1.12-.49,1.29l2-1.94c.12.12.22.24.33.36L364.29,561c.08.08.16.18.18.18l1.22-.76c.09.12.19.23.31.37l1.9-1.7c.14,1,.28,2,.43,3.07l.69-1.6a6,6,0,0,1,.11,1.31,1.31,1.31,0,0,0,.12.33c.08-.08.19-.15.22-.26.16-.5.3-1,.47-1.55a.84.84,0,0,1,.44,1.1c-.11.38-.2.75-.31,1.16,1.44-.25,1.71-1.24,1.69-2.44l.11,0c.11.64.21,1.29.31,1.94h.14c.2-.49.4-1,.59-1.47a.47.47,0,0,1,.16,0c0,.51-.06,1-.06,1.52,0,.13.13.27.2.4l.15-.07c.22-.74.43-1.49.66-2.23l.13,0c0,.58,0,1.14,0,1.72l.18,0c.22-.54.45-1.08.67-1.61l.21,0c-.17.69-.35,1.37-.52,2.06l.13,0,.73-.78c.19.36.27.81.79.72a11.66,11.66,0,0,1,2.6-.4,2.32,2.32,0,0,0,2.14-1.52c.2-.47.47-.91.75-1.42.17.1.28.19.41.28-.49.85-1,1.66-1.5,2.57a3.28,3.28,0,0,0,1.93-.92c.51-.61,1-1.26,1.48-1.9s.68-.62,1.17-.08c.25.28.46.57.71.85s.67.8,1,1.16a1.41,1.41,0,0,0,.47.25,2.39,2.39,0,0,0,0-.53,7.77,7.77,0,0,0-.21-.93l.15,0c.06.08.15.16.2.24.19.29.35.59.54.86.06.08.2.1.3.16a1.37,1.37,0,0,0,0-.34,1.52,1.52,0,0,0-.16-.4c-.11-.31-.21-.61-.33-.9l.16-.08,1.21,1.86h.16c0-.14.07-.32,0-.43C389.47,560.42,389.23,559.94,389,559.45Zm63.57-42.73-2-2.66a3.19,3.19,0,0,1,1.75,1.42c.24.42.44.87.65,1.32A1.83,1.83,0,0,0,452.59,516.72Zm-7.17.44a.13.13,0,0,1,0,.06h0A.56.56,0,0,0,445.42,517.16Zm-10.29,2.34a4,4,0,0,1,3.2,1.87,3.62,3.62,0,0,1,.27.41l-.2.1ZM416,531.56c.27-.25.52-.1.7.13s.56.64.81,1l.86,1.11a.67.67,0,0,0-.17.08l-1.71-2-.15,0c0,.22,0,.43,0,.69a3,3,0,0,0-.29-.31A.44.44,0,0,1,416,531.56Zm.07,2.84c-.4-.74-.82-1.47-1.29-2.33a2.87,2.87,0,0,1,1.38,1.6l.54,1.22-.26.26A3.32,3.32,0,0,0,416.07,534.4Zm20.14-.43,0,.07-.05,0S436.21,534,436.21,534Zm-61.08,15.26.15,0s0,0,0,.06Z"/><path class="cls-28" d="M370.29,391.77c2.16-.67,5-4.16,5-4.16a11.52,11.52,0,0,0,4.93.08,12,12,0,0,1,5.73-3.12c2.21-5.82,5.9-4.37,5.9-4.37,22.87-17.78,40.09,3.62,40.09,3.62s7.36,8.88,4.84,15.4-11.81,10.16-11.81,10.16a32.68,32.68,0,0,1-6,2.36c.22.84.93,2.09,3.32,2.63,0,0,1.1,5.81-.12,9,0,0-.29-6.24-2-7a6.37,6.37,0,0,1-5-2.24s-1.73,2.9-3.23,3c0,0-4.4,6.07-7.29,7.46,0,0,3.17-7,6.84-8.78s1.95-2,1.95-2a1.93,1.93,0,0,1-2.66-.86,21,21,0,0,1-4-.4,28.41,28.41,0,0,1-11.34-5.41c-1.3,1.25-3.27,3.54-2.8,5.61a69.82,69.82,0,0,1,1,8.77s-7.3-10.33.21-15.64a31,31,0,0,1-2.73-2.62,25.48,25.48,0,0,1-7.21-.12,15.61,15.61,0,0,1-4.14,4.69,18.92,18.92,0,0,1-4.84,5.25c.87-4.44,5-8.91,6.81-10.67a3.2,3.2,0,0,1-2-2.84,14,14,0,0,1,3.19-8.9,6,6,0,0,1-2.65-.69c-.2,0-.41-.09-.67-.15-1.72,4.69-3,8.52-3,8.52l-.58-3.78a16.74,16.74,0,0,1,2.55-5.08c-5.68-2-9.73,10.94-9.73,10.94C368.39,396.91,370.29,391.77,370.29,391.77Z"/><path class="cls-32" d="M555.3,475.13A1,1,0,0,0,555,474a11.87,11.87,0,0,0-1.63-1.09c-1.67-.92-3.37-1.81-5.05-2.72-.45-.25-.88-.53-1.32-.8-.79-.5-1.55-1.05-2.36-1.51a94.74,94.74,0,0,1-11.4-7.26,8.23,8.23,0,0,0-4.09-1.7,45.24,45.24,0,0,0-7.79-.56c-.1,0-.26,0-.3-.1-.6-.88-1.19-1.76-1.77-2.66-.17-.25-.08-.44.15-.63l5.08-3.89a.57.57,0,0,1,.43,0c.5.18,1,.43,1.47.57,2.62.74,5.25,1.45,7.88,2.15a7.14,7.14,0,0,0,1,.17,8.2,8.2,0,0,1,1.66.18,28.23,28.23,0,0,0,6.78.84,2.72,2.72,0,0,0,.46-.1,1.56,1.56,0,0,0-.13-.19,3.91,3.91,0,0,1-1.82-1.26,1.74,1.74,0,0,0-.94-.41c-1.09-.28-2.23-.42-3.28-.8a66.4,66.4,0,0,0-9.32-2.2,8.52,8.52,0,0,0-2-.32,6.43,6.43,0,0,1-1.4-.28c-.53-.12-1.07-.25-1.62-.33a3,3,0,0,0-2.81,1.06c-.78.86-1.6,1.66-2.42,2.47-.34.34-.43.35-.72,0-.67-.83-1.32-1.67-2-2.51a.68.68,0,0,1,0-.84c.44-.67.87-1.34,1.29-2a1,1,0,0,0,.15-.31c.22-.56.46-1.13.63-1.71a4.54,4.54,0,0,0,.25-1.32c0-1.35,0-2.7,0-4.05a23.4,23.4,0,0,0-.9-6.76c-.14-.46-.41-.88-.58-1.33a6.48,6.48,0,0,1-.32-1.06c-.22-.91-.42-1.83-.64-2.74,0-.14-.22-.26-.33-.39l-.25.47s0,.07,0,.2c-.29-.39-.54-.75-.79-1.09l-.12,0a2.37,2.37,0,0,0,0,.53c.12.75.25,1.5.38,2.25s.33,1.75.51,2.62c.15.64.34,1.28.49,1.92a8.33,8.33,0,0,1,.2,1.11c.13,1.08.23,2.17.39,3.25a11,11,0,0,1-.79,5.74c-.35.87-.79,1.69-1.19,2.54-.13.27-.29.35-.52.15a4.37,4.37,0,0,1-1.78-2.68,4.27,4.27,0,0,1-.08-.94,8.71,8.71,0,0,0-2.1-5.7c-.6-.75-1.17-1.53-1.71-2.33a1.8,1.8,0,0,1-.16-.75c0-.32,0-.64,0-1a3,3,0,0,1,0-.67c.36-2.15.72-4.31,1.12-6.45.5-2.72,1-5.42,1.57-8.12.35-1.68.77-3.34,1.19-5a6.31,6.31,0,0,1,.35-.91.65.65,0,0,0-.21-.88c-.3-.15-.61,0-.8.36a8.79,8.79,0,0,0-.84,3l.4.16-.27.41a1.6,1.6,0,0,0-.32.43c-.16.46-.25.93-.37,1.38l-.54,1.87s0,.09,0,.1c.35.33,0,.61-.09.91-.14.71-.33,1.4-.43,2.1-.31,2-.6,4-.88,5.92a8.17,8.17,0,0,0,0,.86.56.56,0,0,1,0,.32,7,7,0,0,0-.73,2.63c-.17.83-.33,1.67-.48,2.51-.06.39-.27.52-.65.43-1.33-.29-2.68-.57-4-.89a.94.94,0,0,0-.88.21q-2.53,1.95-5.11,3.85a1,1,0,0,0-.47,1.11,18.31,18.31,0,0,1,.24,2.09,6.91,6.91,0,0,1,0,.91.53.53,0,0,1-.56.57,8.49,8.49,0,0,1-1.13,0l-7.88-.59c-1.5-.11-3-.2-4.52-.3a3.6,3.6,0,0,0-.57,0c-.5.05-1,0-1.12.82a3.27,3.27,0,0,0-2.53-1.27c-2.19-.45-4.37-.85-6.56-1.27-.22,0-.45-.05-.67-.07l-.37.27-.37.9c.08.13.18.25.26.37a9.66,9.66,0,0,0,3.56,1.1c2.07.22,4.14.47,6.21.62,1.12.09,2.25,0,3.38,0,1.46,0,2.9.07,4.36.09.57,0,1.14,0,1.72,0,1.62.08,3.25.19,4.88.26.48,0,1-.05,1.46,0s.55.18.39.54a2,2,0,0,0,0,1.53,8.79,8.79,0,0,0,2.12,3.3,6.78,6.78,0,0,0,2.89,1.52,4.81,4.81,0,0,1,1.36.62,12.5,12.5,0,0,1,2.64,3.06.28.28,0,0,1-.14.47l-1.4.55c-1,.4-2,.7-2.95,1.19a1.43,1.43,0,0,1-1.57,0l-2.1-1.29a20.74,20.74,0,0,0-4.34-2.05l-.22-.06a6.35,6.35,0,0,1-2.32-.73,4.61,4.61,0,0,0-1.43-.35,1,1,0,0,1-.82-.36c-.52-.67-1.07-1.33-1.58-2a4.84,4.84,0,0,0-4-1.84c-.51,0-.68.24-.51.73,0,.09.08.19.12.28a6.48,6.48,0,0,0,2.91,2.57,5,5,0,0,1,1.72,1.1,1.22,1.22,0,0,0,1.18.46,1.11,1.11,0,0,1,1.13.37,8.25,8.25,0,0,0,1.39,1.06c1.25.64,2.51,1.26,3.8,1.81,2.09.89,4.19,1.72,6.31,2.54a2.4,2.4,0,0,0,1.22.09,11,11,0,0,0,4-1.37c.37-.22.78-.39,1.16-.61a.52.52,0,0,1,.79.23c.38.61.75,1.25,1.14,1.86.15.24.14.37-.1.54-1.42,1.09-2.8,2.21-4.24,3.25a4.27,4.27,0,0,0-1.68,2.83c-.15.89-.21,1.81-.29,2.72a6.3,6.3,0,0,0,.09.85,3.39,3.39,0,0,1,0,.63,43.54,43.54,0,0,0-.05,6.46,19,19,0,0,1-.07,2.13.69.69,0,0,0,0,.35v0h0a2.36,2.36,0,0,0,.11.37,1,1,0,0,0,.12.28,6.08,6.08,0,0,0,0,1c.07.54.26.66.78.5a.48.48,0,0,1,.63.26,4.43,4.43,0,0,0,.26.54,1.92,1.92,0,0,0,.3.34l.14,0c0-.3.07-.6.07-.91,0-1.16,0-2.32,0-3.48s-.21-2.53-.1-3.8a16.32,16.32,0,0,0,0-1.85c0-1.54-.09-3.08-.13-4.61a2.26,2.26,0,0,1,.94-2l1-.83c.66-.55,1.36-1.08,2-1.67s1.09-1.18,1.66-1.73.67-.42,1,.08c.5.69,1,1.4,1.48,2.08a.54.54,0,0,1,.07.58c-.8,2-1.56,4-2.36,6.07a6,6,0,0,0-.38,4,10.9,10.9,0,0,1,.23,1.27h0a2.59,2.59,0,0,0,.12.65.87.87,0,0,0,0,.36c1.09,3.23,2.14,6.49,3.28,9.7a24,24,0,0,1,1.38,4.92,1.22,1.22,0,0,0,.21.74,1.19,1.19,0,0,1,.21,1,3.05,3.05,0,0,0,.39,1.7,2.8,2.8,0,0,1,.18.93,5.63,5.63,0,0,0,0,.59c.13.51.29,1,.42,1.52.18.73.34,1.46.53,2.19a5.18,5.18,0,0,0,.26.6.19.19,0,0,1,.1,0,2.54,2.54,0,0,0,0-.39c0-.19,0-.4,0-.59,0-.48.18-.59.62-.43.17.07.35.11.52.17a.87.87,0,0,0,.06-.15c-.08-1.24-.13-2.48-.28-3.71-.09-.85-.34-1.68-.5-2.53s-.27-1.65-.44-2.47a33,33,0,0,0-1.74-5.43c-.88-2.22-1.75-4.45-2.59-6.69a6.76,6.76,0,0,1-.28-3.88c.32-1.49.64-3,1-4.49.14-.63.3-1.27.47-1.89a3.48,3.48,0,0,1,.24-.47l.12,0a5.61,5.61,0,0,0,.17,1c.68,1.78,1.35,3.58,2.06,5.35.19.45.52.84.72,1.27,1,2.11,1.92,4.26,3,6.34a63.7,63.7,0,0,0,3.41,6.23,93.11,93.11,0,0,0,8,10.74,13.79,13.79,0,0,0,6.62,4.24,17.07,17.07,0,0,1,2.73,1.13,4.44,4.44,0,0,0,1.68.49A11,11,0,0,0,546,504c1.85-.56,1.47-.37,2.41-1.83a7.35,7.35,0,0,0,1.25-3.42,23.68,23.68,0,0,0-2.47-12.67,35.06,35.06,0,0,0-5.73-8.22c-.73-.82-1.4-1.7-2.17-2.49-1.74-1.77-3.47-3.55-5.29-5.23-2-1.88-4.17-3.66-6.27-5.49-1-.88-2.08-1.73-3.11-2.6-.1-.08-.13-.22-.2-.33a1.07,1.07,0,0,1,.38-.2,5.15,5.15,0,0,1,1,0c1.26.16,2.51.37,3.78.49a6.38,6.38,0,0,1,3.11,1.11c3.39,2.4,6.77,4.82,10.17,7.2a2.58,2.58,0,0,0,1.14.42,1.83,1.83,0,0,1,1.21.58,3.62,3.62,0,0,0,2.29,1.1,2.19,2.19,0,0,1,1.2.52,1,1,0,0,0,.23.18c.79.54,1.58,1.09,2.39,1.6.54.34,1.11.62,1.67.93a3.5,3.5,0,0,0,.56.24,1,1,0,0,0,.33-.06A3.3,3.3,0,0,0,555.3,475.13Zm-1.62-1.44a.1.1,0,0,1,.05,0Z"/><text class="cls-33" transform="translate(569.84 186.7)">du<tspan class="cls-34" x="35.61" y="0">n</tspan><tspan x="52.26" y="0">g be</tspan><tspan class="cls-35" x="116.58" y="0">e</tspan><tspan x="133.14" y="0">tl</tspan><tspan class="cls-36" x="148.23" y="0">e</tspan><tspan x="165.03" y="0">s can carr</tspan><tspan class="cls-37" x="302" y="0">y</tspan><tspan x="316.07" y="0" xml:space="preserve"> 10x t</tspan><tspan class="cls-34" x="385.13" y="0">h</tspan><tspan x="401.81" y="0">eir </tspan><tspan class="cls-34" x="-77.73" y="36">w</tspan><tspan x="-54.3" y="36">eight! t</tspan><tspan class="cls-34" x="39.21" y="36">he</tspan><tspan class="cls-37" x="72.39" y="36">y</tspan><tspan x="86.46" y="36" xml:space="preserve"> i</tspan><tspan class="cls-34" x="104.33" y="36">n</tspan><tspan x="120.98" y="36">corpo</tspan><tspan class="cls-38" x="200.54" y="36">r</tspan><tspan x="209.06" y="36">a</tspan><tspan class="cls-38" x="227.57" y="36">t</tspan><tspan x="235.28" y="36">e nit</tspan><tspan class="cls-38" x="295.52" y="36">r</tspan><tspan x="304.04" y="36">ogen in</tspan><tspan class="cls-38" x="409.63" y="36">t</tspan><tspan x="417.34" y="36">o </tspan><tspan x="-36.99" y="72">t</tspan><tspan class="cls-34" x="-28.68" y="72">h</tspan><tspan x="-12" y="72">eir bodi</tspan><tspan class="cls-36" x="94.55" y="72">e</tspan><tspan x="111.35" y="72">s, </tspan><tspan class="cls-38" x="138.92" y="72">r</tspan><tspan x="147.44" y="72">educi</tspan><tspan class="cls-34" x="223.37" y="72">n</tspan><tspan x="240.02" y="72">g l</tspan><tspan class="cls-36" x="275.66" y="72">o</tspan><tspan x="293.57" y="72">s</tspan><tspan class="cls-39" x="305.81" y="72">s</tspan><tspan class="cls-36" x="317.96" y="72">e</tspan><tspan x="334.76" y="72">s </tspan><tspan class="cls-38" x="357.35" y="72">t</tspan><tspan x="365.06" y="72">o t</tspan><tspan class="cls-34" x="401.78" y="72">h</tspan><tspan x="418.46" y="72">e </tspan><tspan x="-20.7" y="108">at</tspan><tspan class="cls-34" x="6.12" y="108">m</tspan><tspan class="cls-36" x="31.89" y="108">o</tspan><tspan x="49.8" y="108">sp</tspan><tspan class="cls-34" x="80.52" y="108">h</tspan><tspan x="97.2" y="108">e</tspan><tspan class="cls-38" x="114.15" y="108">r</tspan><tspan x="122.67" y="108">e f</tspan><tspan class="cls-38" x="158.27" y="108">r</tspan><tspan x="166.79" y="108">om 80% </tspan><tspan class="cls-38" x="283.64" y="108">t</tspan><tspan x="291.35" y="108">o on</tspan><tspan class="cls-36" x="354.92" y="108">l</tspan><tspan class="cls-37" x="361.55" y="108">y</tspan><tspan x="375.62" y="108" xml:space="preserve"> 10%.</tspan></text><path class="cls-40" d="M144.74,619c0-8.54,6.16-14.58,14.79-14.58a15.39,15.39,0,0,1,6,1.17v7.85a9.57,9.57,0,0,0-5.68-1.65,7.17,7.17,0,1,0,0,14.34,9.23,9.23,0,0,0,5.68-1.65v7.9a15.58,15.58,0,0,1-6,1.12C150.9,633.51,144.74,627.51,144.74,619Z"/><path class="cls-40" d="M192.4,604.87v28.2H185V622.64h-8.42v10.43h-7.41v-28.2h7.41v10.68H185V604.87Z"/><path class="cls-40" d="M206.75,644.09h-1.48v2.39h-4v-2.39h-6.41v-3.4l5.38-10.64h5.05V640.4h1.48Zm-5.5-3.69v-5.56l-2.39,5.56Z"/><path class="cls-40" d="M445.52,608.27c0-8.54,6.16-14.58,14.78-14.58a15.4,15.4,0,0,1,6,1.17v7.85a9.59,9.59,0,0,0-5.68-1.65,7.17,7.17,0,1,0,0,14.34,9.32,9.32,0,0,0,5.68-1.65v7.89a15.41,15.41,0,0,1-6,1.13C451.68,622.77,445.52,616.77,445.52,608.27Z"/><path class="cls-40" d="M493.17,594.13v28.2h-7.41V611.9h-8.42v10.43h-7.41v-28.2h7.41v10.68h8.42V594.13Z"/><path class="cls-40" d="M507.53,633.35h-1.48v2.39h-4v-2.39h-6.41v-3.41L501,619.31h5.05v10.35h1.48Zm-5.5-3.69V624.1l-2.39,5.56Z"/><path class="cls-40" d="M300.5,578.73c0-8.54,6.17-14.58,14.79-14.58a15.39,15.39,0,0,1,6,1.17v7.85a9.5,9.5,0,0,0-5.68-1.65,7.17,7.17,0,1,0,0,14.34,9.29,9.29,0,0,0,5.68-1.65v7.89a15.39,15.39,0,0,1-6,1.13C306.67,593.23,300.5,587.23,300.5,578.73Z"/><path class="cls-40" d="M348.16,564.59v28.2h-7.42V582.35h-8.42v10.44h-7.41v-28.2h7.41v10.68h8.42V564.59Z"/><path class="cls-40" d="M362.51,603.81H361v2.39h-4v-2.39H350.6V600.4L356,589.77h5v10.35h1.48Zm-5.5-3.69v-5.57l-2.39,5.57Z"/><path class="cls-40" d="M147.4,769.4c0-8.54,6.16-14.58,14.78-14.58a15.35,15.35,0,0,1,6,1.17v7.85a9.57,9.57,0,0,0-5.68-1.65,7.17,7.17,0,1,0,0,14.34,9.23,9.23,0,0,0,5.68-1.65v7.9a15.54,15.54,0,0,1-6,1.12C153.56,783.9,147.4,777.9,147.4,769.4Z"/><path class="cls-40" d="M170.52,769.36A14.71,14.71,0,1,1,185.22,784,14.26,14.26,0,0,1,170.52,769.36Zm21.75,0a7,7,0,1,0-7.05,7.21A7,7,0,0,0,192.27,769.36Z"/><path class="cls-40" d="M203,794.41c1.76-1.81,3.64-3.76,5.28-5.52a4.55,4.55,0,0,0,1.55-2.84,1.54,1.54,0,0,0-1.55-1.55c-1.15,0-1.83,1.08-1.81,2.3l-4.11-1.1a5.83,5.83,0,0,1,5.9-5.57c3.52,0,5.89,2.54,5.89,5.29,0,2.18-1.1,3.75-2.7,5.37-.54.61-1.17,1.32-1.71,2h4.39v4.13H203Z"/><path class="cls-40" d="M316.59,769.4c0-8.54,6.16-14.58,14.78-14.58a15.35,15.35,0,0,1,6,1.17v7.85a9.57,9.57,0,0,0-5.68-1.65,7.17,7.17,0,1,0,0,14.34,9.23,9.23,0,0,0,5.68-1.65v7.9a15.54,15.54,0,0,1-6,1.12C322.75,783.9,316.59,777.9,316.59,769.4Z"/><path class="cls-40" d="M339.71,769.36A14.7,14.7,0,1,1,354.41,784,14.26,14.26,0,0,1,339.71,769.36Zm21.75,0a7,7,0,1,0-7,7.21A7,7,0,0,0,361.46,769.36Z"/><path class="cls-40" d="M372.15,794.41c1.76-1.81,3.63-3.76,5.28-5.52a4.55,4.55,0,0,0,1.55-2.84,1.54,1.54,0,0,0-1.55-1.55c-1.15,0-1.83,1.08-1.81,2.3l-4.11-1.1a5.82,5.82,0,0,1,5.9-5.57c3.52,0,5.89,2.54,5.89,5.29,0,2.18-1.1,3.75-2.7,5.37l-1.72,2h4.4v4.13H372.15Z"/><path class="cls-40" d="M437.44,747.92c0-8.54,6.16-14.59,14.78-14.59a15.57,15.57,0,0,1,6,1.17v7.86a9.5,9.5,0,0,0-5.68-1.65,7.17,7.17,0,1,0,0,14.34,9.23,9.23,0,0,0,5.68-1.66v7.9a15.39,15.39,0,0,1-6,1.13C443.6,762.42,437.44,756.42,437.44,747.92Z"/><path class="cls-40" d="M460.56,747.88a14.7,14.7,0,1,1,14.7,14.62A14.25,14.25,0,0,1,460.56,747.88Zm21.75,0a7,7,0,1,0-7.05,7.21A7,7,0,0,0,482.31,747.88Z"/><path class="cls-40" d="M493,772.93c1.77-1.81,3.64-3.76,5.29-5.52a4.57,4.57,0,0,0,1.55-2.84,1.54,1.54,0,0,0-1.55-1.55c-1.15,0-1.83,1.08-1.81,2.3l-4.11-1.11a5.82,5.82,0,0,1,5.89-5.56c3.53,0,5.9,2.53,5.9,5.28,0,2.19-1.11,3.76-2.7,5.38-.54.61-1.18,1.31-1.72,2h4.39v4.13H493Z"/><path class="cls-41" d="M140,617.85s-21.91-1-23.2,17.2"/><polygon class="cls-40" points="108.94 629.98 116.97 632.44 124.32 628.38 118.53 647.39 108.94 629.98"/><path class="cls-41" d="M438.11,607.11s-35.72-5.41-37.19,26.52"/><polygon class="cls-40" points="393.14 628.18 401.03 631.04 408.57 627.34 401.85 646.05 393.14 628.18"/><path class="cls-41" d="M287.6,734.88s-11.36,18.2,8.84,31.77"/><polygon class="cls-40" points="287.76 770.5 294.29 765.22 295.01 756.85 307.56 772.27 287.76 770.5"/><path class="cls-41" d="M149.41,721.25s18.75,0,24.92,17.23"/><polygon class="cls-40" points="165.27 734.23 173.47 736.02 180.45 731.35 176.27 750.79 165.27 734.23"/><path class="cls-41" d="M474.36,694.39s15.1,1.89,15.23,19.9"/><polygon class="cls-40" points="482.31 707.51 489.59 711.69 497.66 709.36 487.79 726.62 482.31 707.51"/><path class="cls-41" d="M366.94,605.77s11,32.88-18.61,53.09"/><polygon class="cls-40" points="349.48 649.06 350.46 657.4 357.14 662.48 337.4 664.85 349.48 649.06"/></g></g></svg>