<svg xmlns="http://www.w3.org/2000/svg" viewBox="0 0 1180.59 968.98"><defs><style>.cls-1{fill:#3da9a0;}.cls-2{font-size:30px;}.cls-2,.cls-33,.cls-34{fill:#5c5052;}.cls-2,.cls-34{font-family:Acre-Light, Acre;font-weight:300;}.cls-3{letter-spacing:-0.01em;}.cls-4{letter-spacing:-0.02em;}.cls-5{letter-spacing:0.01em;}.cls-6{letter-spacing:-0.02em;}.cls-7{letter-spacing:0em;}.cls-27,.cls-8{letter-spacing:-0.01em;}.cls-28,.cls-9{letter-spacing:-0.02em;}.cls-10{letter-spacing:-0.02em;}.cls-11{letter-spacing:-0.02em;}.cls-12,.cls-24{letter-spacing:0em;}.cls-13{letter-spacing:-0.03em;}.cls-14{letter-spacing:-0.01em;}.cls-15{letter-spacing:-0.01em;}.cls-16{letter-spacing:-0.02em;}.cls-17{letter-spacing:-0.02em;}.cls-18{letter-spacing:-0.02em;}.cls-19{letter-spacing:-0.01em;}.cls-20,.cls-26{letter-spacing:-0.02em;}.cls-21{letter-spacing:-0.01em;}.cls-22{letter-spacing:-0.07em;}.cls-23,.cls-24,.cls-25,.cls-26,.cls-27,.cls-28,.cls-29{font-family:Acre-Bold, Acre;font-weight:700;}.cls-25{letter-spacing:-0.03em;}.cls-29{letter-spacing:-0.02em;}.cls-30{letter-spacing:0em;}.cls-31{letter-spacing:-0.01em;}.cls-32{letter-spacing:-0.03em;}.cls-34{font-size:40px;}.cls-35{letter-spacing:-0.01em;}.cls-36{letter-spacing:-0.01em;}.cls-37{letter-spacing:-0.01em;}.cls-38{fill:#7a585d;stroke:#fff;stroke-width:4.89px;}.cls-38,.cls-39{stroke-miterlimit:10;}.cls-39{fill:none;stroke:#5c5052;stroke-width:0.9px;}</style></defs><g id="Layer_2" data-name="Layer 2"><g id="Layer_1-2" data-name="Layer 1"><path class="cls-1" d="M301.5,572.09c-1.22-2.1-3.76-10.22-1.17-12.16l-.22-.68c1.59-1.35,9.56-.35,11.93-.45,4.46-.19,8.89,0,13.25-.45a115,115,0,0,1,22.8.4c6.09.61,14,1.26,19.3,4.67,4.55,3,5,6.56,3.25,10.25H497.49l-15.94-17.22s-14.59-33.66,2.31-73.31c0,0-16.27,23.83-15.79,57.24,0,0-10.73-25.37,14.48-71.55,0,0-32.5,33-40.7,82.19,0,0,8.17-62.5-3.71-120.11,0,0,2,97.67-25.74,120.26,0,0,16.3-52.76,2.93-74.14a188.52,188.52,0,0,1-15.82,67s-3.95-32.81,13.54-92.92c0,0-25.56,26.8-34.51,81.11,0,0,5.88-34.45-8.84-74.15,0,0,7.09,66.38-10.68,82.51,0,0-9.17-64.92,9.49-108.11,0,0-22.57,31.52-24,87.53.16-9.51-.1-60.77-22.26-107.28,0,0,16.82,82.94,5.24,111.13,10.5-52.49-16.28-90.81-16.28-90.81,23.85,68.4-1.77,98.73-1.77,98.73,10.48-28.39-.17-56.15-.17-56.15,1.94,12.9-13.53,56.15-13.53,56.15-15.47-23.23,4.51-66.46,4.51-66.46C282.84,483.41,275.1,535,275.1,535c-3.87-29.68,25.14-107.12,25.14-107.12-25.61,39.63-35.62,89.24-37.32,98.49,9.63-54.64-1.36-90.74-1.36-90.74C267.36,482.12,248,542.78,248,542.78c-10.32-20,7.73-82.59,7.73-82.59a189.21,189.21,0,0,0-20.85,69.68c3.64-54.84-18.47-88.4-18.47-88.4,20,65.82,3,96.27,3,96.27-16.76-33.56-1.68-70.45-1.68-70.45-14.18,17.41-21.92,74.85-21.92,74.85C191.3,497,209.35,417,209.35,417c-20,52.91-25.78,115.51-25.78,115.51,3.22-49.69-15-89.7-15-89.7,10.17,51-2.78,72.92-2.78,72.92,6.76-32.27-.95-59.37-.95-59.37,5.16,42.59-12.29,71.63-12.29,71.63,19.31-45.17-3.18-111-3.18-111,11.61,60-14.49,111.84-14.49,111.84v44.88H302.46C302.13,573.15,301.81,572.62,301.5,572.09Z"/><path class="cls-1" d="M1057.73,568.4H853.91s3.66-73.54-9.68-123.54c0,0,15.77,15.34,18.06,75.23,0,0,23.85-48.4,12.25-108.41,0,0,22.48,65.82,3.18,111,0,0,17.45-29,12.29-71.63,0,0,7.71,27.1,1,59.37,0,0,12.95-21.94,2.78-72.91,0,0,18.19,40,15,89.69,0,0,5.81-62.59,25.79-115.51,0,0-18,80-13.54,125.19,0,0,7.74-57.43,21.92-74.85,0,0-15.08,36.9,1.68,70.45,0,0,17-30.45-3-96.27,0,0,22.11,33.56,18.47,88.41a189,189,0,0,1,20.85-69.69s-18,62.59-7.74,82.59c0,0,19.34-60.66,13.54-107.11,0,0,11,36.1,1.36,90.74,1.7-9.25,11.71-58.86,37.32-98.49,0,0-29,77.44-25.14,107.12,0,0,7.73-51.63,25.14-69.69,0,0-20,43.23-4.51,66.46,0,0,15.47-43.25,13.53-56.14,0,0,10.65,27.75.17,56.14,0,0,25.62-30.33,1.77-98.73,0,0,21.39,29.09,21.39,93.68V568.4"/><path class="cls-1" d="M660.85,524.71c-11-52.91,16.11-91.63,16.11-91.63-23.85,68.4,1.77,98.73,1.77,98.73-10.48-28.39.16-56.15.16-56.15-1.93,12.9,13.54,56.15,13.54,56.15,15.47-23.23-4.51-66.46-4.51-66.46,17.4,18.06,25.14,69.69,25.14,69.69,3.86-29.68-25.14-107.12-25.14-107.12,28.36,43.88,37.59,100,37.59,100-10.11-55.49,1.08-92.27,1.08-92.27-5.8,46.45,13.54,107.11,13.54,107.11,10.32-20-7.73-82.59-7.73-82.59a189.21,189.21,0,0,1,20.85,69.68c-3.64-54.84,18.46-88.4,18.46-88.4-20,65.82-3,96.27-3,96.27,16.77-33.56,1.69-70.45,1.69-70.45,14.18,17.41,21.91,74.85,21.91,74.85C796.85,497,778.81,417,778.81,417c20,52.91,25.78,115.51,25.78,115.51-3.22-49.69,15-89.7,15-89.7-10.17,51,2.77,72.92,2.77,72.92-6.75-32.27,1-59.37,1-59.37-5.16,42.59,12.28,71.63,12.28,71.63-19.3-45.17,3.18-111,3.18-111C827.15,477,851,525.36,851,525.36l18.44,32.54,1.81,19.39"/><path class="cls-1" d="M661,524.54c-12.12-27.55,5-111.78,5-111.78C641.38,464.27,643.7,521.6,643.7,521.6c-1.06-57-24.05-89.09-24.05-89.09,18.65,43.19,9.48,108.11,9.48,108.11-17.76-16.13-10.67-82.51-10.67-82.51-14.72,39.7-8.84,74.15-8.84,74.15-9-54.31-34.51-81.11-34.51-81.11,17.49,60.11,13.54,92.92,13.54,92.92a188.52,188.52,0,0,1-15.82-67c-13.38,21.38,2.92,74.14,2.92,74.14C548,528.58,550,430.91,550,430.91,538.14,488.52,546.31,551,546.31,551c-8.21-49.18-40.7-82.19-40.7-82.19,25.21,46.18,14.48,71.55,14.48,71.55.48-33.41-15.79-57.24-15.79-57.24,16.9,39.65,2.31,73.31,2.31,73.31,4.53-49.8-26.11-117.81-26.11-117.81,26.58,82.15-5.15,135-5.15,135h384"/><text class="cls-2" transform="translate(30.37 266.63)">as eart<tspan class="cls-3" x="93.99" y="0">h</tspan><tspan class="cls-4" x="110.82" y="0">w</tspan><tspan x="134.25" y="0">or</tspan><tspan class="cls-5" x="161.43" y="0">m</tspan><tspan x="187.86" y="0">s push th</tspan><tspan class="cls-6" x="311.18" y="0">r</tspan><tspan x="319.7" y="0">ough t</tspan><tspan class="cls-4" x="409.16" y="0">h</tspan><tspan x="425.84" y="0">e </tspan><tspan class="cls-7" x="453.14" y="0">s</tspan><tspan x="465.29" y="0">oil c</tspan><tspan class="cls-6" x="523.85" y="0">r</tspan><tspan x="532.37" y="0">eati</tspan><tspan class="cls-8" x="583.67" y="0">n</tspan><tspan x="600.32" y="0">g c</tspan><tspan class="cls-4" x="645.02" y="0">h</tspan><tspan x="661.7" y="0">an</tspan><tspan class="cls-8" x="697.31" y="0">n</tspan><tspan x="713.96" y="0">els, t</tspan><tspan class="cls-9" x="773.57" y="0">he</tspan><tspan class="cls-10" x="806.75" y="0">y</tspan><tspan x="820.81" y="0" xml:space="preserve"> combi</tspan><tspan class="cls-8" x="917.32" y="0">n</tspan><tspan x="933.97" y="0">e mi</tspan><tspan class="cls-9" x="995.02" y="0">n</tspan><tspan x="1011.67" y="0">e</tspan><tspan class="cls-11" x="1028.62" y="0">r</tspan><tspan x="1037.14" y="0">al a</tspan><tspan class="cls-8" x="1091.29" y="0">n</tspan><tspan x="1107.94" y="0">d </tspan><tspan x="28.54" y="52.88">o</tspan><tspan class="cls-6" x="46.6" y="52.88">r</tspan><tspan x="55.12" y="52.88">ganic </tspan><tspan class="cls-8" x="142.96" y="52.88">m</tspan><tspan x="168.73" y="52.88">a</tspan><tspan class="cls-6" x="187.24" y="52.88">t</tspan><tspan x="194.95" y="52.88">erials in t</tspan><tspan class="cls-4" x="319.72" y="52.88">h</tspan><tspan x="336.4" y="52.88">eir gu</tspan><tspan class="cls-3" x="415.96" y="52.88">t</tspan><tspan x="423.97" y="52.88">s, </tspan><tspan class="cls-12" x="451.54" y="52.88">e</tspan><tspan class="cls-13" x="468.34" y="52.88">x</tspan><tspan x="482.05" y="52.88">c</tspan><tspan class="cls-11" x="497.89" y="52.88">r</tspan><tspan class="cls-14" x="506.41" y="52.88">e</tspan><tspan x="522.97" y="52.88">ti</tspan><tspan class="cls-4" x="538.81" y="52.88">n</tspan><tspan x="555.46" y="52.88">g</tspan><tspan class="cls-15" x="573.97" y="52.88"> </tspan><tspan class="cls-8" x="584.08" y="52.88">w</tspan><tspan x="607.51" y="52.88">ell</tspan><tspan class="cls-16" x="638.02" y="52.88">-</tspan><tspan x="649.87" y="52.88">agg</tspan><tspan class="cls-17" x="705.39" y="52.88">r</tspan><tspan x="713.91" y="52.88">ega</tspan><tspan class="cls-11" x="767.88" y="52.88">t</tspan><tspan x="775.59" y="52.88">ed ca</tspan><tspan class="cls-18" x="855.75" y="52.88">s</tspan><tspan class="cls-19" x="867.48" y="52.88">t</tspan><tspan x="875.49" y="52.88">s t</tspan><tspan class="cls-8" x="906.39" y="52.88">h</tspan><tspan x="923.07" y="52.88">at </tspan><tspan class="cls-8" x="960.24" y="52.88">h</tspan><tspan x="976.92" y="52.88">elp build </tspan><tspan class="cls-20" x="39.48" y="105.75">s</tspan><tspan x="51.21" y="105.75">tructu</tspan><tspan class="cls-6" x="126.99" y="105.75">r</tspan><tspan class="cls-12" x="135.51" y="105.75">e</tspan><tspan x="152.31" y="105.75">, bo</tspan><tspan class="cls-21" x="204.21" y="105.75">o</tspan><tspan class="cls-20" x="222.12" y="105.75">s</tspan><tspan x="233.85" y="105.75">t mic</tspan><tspan class="cls-6" x="302.1" y="105.75">r</tspan><tspan x="310.62" y="105.75">obial act</tspan><tspan class="cls-12" x="433.01" y="105.75">iv</tspan><tspan x="455.3" y="105.75">it</tspan><tspan class="cls-22" x="471.14" y="105.75">y</tspan><tspan x="483.71" y="105.75">, a</tspan><tspan class="cls-4" x="517.55" y="105.75">n</tspan><tspan x="534.2" y="105.75">d i</tspan><tspan class="cls-8" x="570.59" y="105.75">n</tspan><tspan x="587.24" y="105.75">c</tspan><tspan class="cls-6" x="603.08" y="105.75">r</tspan><tspan x="611.6" y="105.75">ea</tspan><tspan class="cls-7" x="647.06" y="105.75">s</tspan><tspan x="659.21" y="105.75">e nutrient a</tspan><tspan class="cls-8" x="816.89" y="105.75">v</tspan><tspan x="831.5" y="105.75">ailabilit</tspan><tspan class="cls-10" x="931.48" y="105.75">y</tspan><tspan x="945.55" y="105.75"> </tspan><tspan class="cls-11" x="955.9" y="105.75">f</tspan><tspan x="963.61" y="105.75">or plan</tspan><tspan class="cls-19" x="1062.01" y="105.75">t</tspan><tspan x="1070.02" y="105.75">s.</tspan></text><text class="cls-2" transform="translate(8.42 845.52)">eart<tspan class="cls-3" x="52.89" y="0">h</tspan><tspan class="cls-4" x="69.72" y="0">w</tspan><tspan x="93.15" y="0">or</tspan><tspan class="cls-5" x="120.33" y="0">m</tspan><tspan x="146.76" y="0">s can app</tspan><tspan class="cls-12" x="286.61" y="0">l</tspan><tspan class="cls-10" x="293.25" y="0">y</tspan><tspan x="307.32" y="0" xml:space="preserve"> up </tspan><tspan class="cls-6" x="363.59" y="0">t</tspan><tspan x="371.3" y="0">o </tspan><tspan class="cls-23" x="399.71" y="0">200</tspan><tspan class="cls-24" x="449.9" y="0">k</tspan><tspan class="cls-25" x="466.19" y="0">P</tspan><tspan class="cls-23" x="481.7" y="0">a, or 30</tspan><tspan class="cls-26" x="588.35" y="0">p</tspan><tspan class="cls-23" x="606.29" y="0">si </tspan><tspan class="cls-27" x="638.57" y="0">o</tspan><tspan class="cls-23" x="655.79" y="0">f p</tspan><tspan class="cls-28" x="694.34" y="0">r</tspan><tspan class="cls-29" x="704.63" y="0">e</tspan><tspan class="cls-23" x="720.83" y="0">ssu</tspan><tspan class="cls-28" x="765.05" y="0">r</tspan><tspan class="cls-23" x="775.34" y="0">e</tspan><tspan x="792.05" y="0"> </tspan><tspan class="cls-11" x="802.4" y="0">t</tspan><tspan x="810.11" y="0">o </tspan><tspan class="cls-9" x="838.52" y="0">mov</tspan><tspan x="896.5" y="0">e th</tspan><tspan class="cls-17" x="949.24" y="0">r</tspan><tspan x="957.76" y="0">ough a </tspan><tspan class="cls-8" x="1067.77" y="0">h</tspan><tspan x="1084.45" y="0">ea</tspan><tspan class="cls-12" x="1119.91" y="0">v</tspan><tspan x="1134.82" y="0">i</tspan><tspan class="cls-12" x="1142.35" y="0">l</tspan><tspan class="cls-10" x="1148.98" y="0">y</tspan><tspan x="1163.05" y="0"> </tspan><tspan x="66.7" y="52.88">compac</tspan><tspan class="cls-6" x="179.65" y="52.88">t</tspan><tspan x="187.36" y="52.88">ed </tspan><tspan class="cls-7" x="233.17" y="52.88">s</tspan><tspan x="245.32" y="52.88">oil, about t</tspan><tspan class="cls-4" x="392.17" y="52.88">h</tspan><tspan x="408.85" y="52.88">e a</tspan><tspan class="cls-4" x="454.66" y="52.88">m</tspan><tspan x="480.43" y="52.88">ount </tspan><tspan class="cls-14" x="551.35" y="52.88">o</tspan><tspan class="cls-30" x="569.02" y="52.88">f p</tspan><tspan class="cls-6" x="606.16" y="52.88">r</tspan><tspan class="cls-12" x="614.68" y="52.88">e</tspan><tspan x="631.48" y="52.88">ssu</tspan><tspan class="cls-11" x="673.06" y="52.88">r</tspan><tspan x="681.58" y="52.88">e </tspan><tspan class="cls-13" x="708.88" y="52.88">k</tspan><tspan x="722.32" y="52.88">eepi</tspan><tspan class="cls-8" x="782.22" y="52.88">n</tspan><tspan x="798.87" y="52.88">g</tspan><tspan class="cls-31" x="817.38" y="52.88"> </tspan><tspan class="cls-9" x="827.49" y="52.88">y</tspan><tspan x="841.86" y="52.88">our bi</tspan><tspan class="cls-32" x="922.53" y="52.88">k</tspan><tspan x="935.97" y="52.88">e ti</tspan><tspan class="cls-17" x="979.11" y="52.88">r</tspan><tspan x="987.63" y="52.88">e in</tspan><tspan class="cls-11" x="1039.56" y="52.88">t</tspan><tspan x="1047.27" y="52.88">act!</tspan></text><path class="cls-33" d="M512.69,81.41s9.28-32.27,40-29.59c21.44,1.88,35.8,20.42,35.8,20.42S602.56,89,612.6,77.66c7.91-9,2.91-26.46,2.91-26.46s-4.3-14.48-3.28-26.51c1-11.62,9.94-25.14,28.67-24.68C685,1.09,663,55.57,663,55.57s-10.82,24.25,8.32,23.34c21.85-1,12.49-24.59,12.49-24.59S676.7,39.11,680,30.15c2.93-7.86,12.08,5,12.08,5s30.19,44.38-7.5,59.18c-21.23,8.33-37.92-3.89-40.38-19-2.08-12.84,4-25.79,4-25.79s11-27.68-6.52-30.6c-20.19-3.36-12,26.67-12,26.67s12.84,31.25-10.47,46.67-42.88-8.75-42.88-8.75-12.07-14.27-21.64-14.37c-19.57-.21-27.06,14.79-27.06,14.79s-5.41,7.5-12.49,3.75C510.65,85.25,512.69,81.41,512.69,81.41Z"/><text class="cls-34" transform="translate(491.4 154.88)">t<tspan class="cls-4" x="11.08" y="0">h</tspan><tspan x="33.32" y="0">e ble</tspan><tspan class="cls-35" x="126.04" y="0">n</tspan><tspan x="148.24" y="0">de</tspan><tspan class="cls-36" x="195.52" y="0">r</tspan><tspan x="207.28" y="0">s:</tspan><tspan class="cls-23"><tspan x="5.22" y="42.63">eart</tspan><tspan class="cls-37" x="80.22" y="42.63">h</tspan><tspan class="cls-13" x="102.78" y="42.63">w</tspan><tspan x="136.7" y="42.63">orms</tspan></tspan></text><path class="cls-33" d="M369.14,537.32c-1.31-.67-29.78,7.33-13.07,15.89A15.59,15.59,0,0,0,373,551.85c6.68-5.07,2.32-12.84-3.85-14.53"/><path class="cls-33" d="M250.6,541.53c.47,1.39,26.48,15.47,20.42-2.32a15.6,15.6,0,0,0-13.09-10.8c-8.33-1-10.6,7.61-7.33,13.12"/><path class="cls-33" d="M388.82,542.18a21.34,21.34,0,0,0-8.52,1c-5.19,2-3.35,9.47,1.05,12.21s12.95,2.6,15.33-2.84-2.44-10.36-7.86-10.35"/><path class="cls-33" d="M383.26,530.21c-3.42-1.68-10.76-4-13.4-.18-3.67,5.24,2.77,8.71,6.85,10.52s11.8,2.74,11.23-3.11c-.42-4.4-1.48-5.22-4.68-7.23"/><path class="cls-33" d="M287.57,521c-3.79.36-11.24,2.26-11.52,6.86-.39,6.39,6.91,6,11.34,5.38s11.48-3.83,7.95-8.52c-2.66-3.53-4-3.67-7.77-3.72"/><path class="cls-33" d="M305.64,542.18c-6.15,2-6.14,1.65-10.48,6.23-4.94,5.2.13,8.64,6.25,9.47,5.54.75,13.32,1.44,13.71-5.66.3-5.54-3.37-11.47-9.48-10"/><path class="cls-33" d="M242.88,565.38c6.3,1.47,6.11,1.78,12.2.12,6.92-1.87,4.37-7.45-.43-11.34C250.31,550.64,244,546,240,551.87c-3.13,4.57-3.07,11.55,2.88,13.51"/><path class="cls-33" d="M274.68,535.51c2.73-1.28,7.09,1.22,9.5,2.37,4.72,2.25,7.63,4.34,8.14,9.75.63,6.61-1.91,12-9,12.23-8,.29-14.23-5.47-11.56-13.89"/><path class="cls-33" d="M407.31,545.8c-5.44-2.7-10.73,5.89-9.93,10.36.73,4.14,7.27,4.86,10.49,4.13,10.36-2.36,3.62-11.61-.56-14.49"/><path class="cls-33" d="M290.49,533.67c-1,1.38-2.1,3.62-.08,6.85,1.87,3,8.68,3.07,11.63,1.89,3.7-1.49,5.09-6.43,1.71-9.12-2.76-2.21-10.78-2.38-13.26.38"/><path class="cls-33" d="M260.38,548.26c-1.6.59-3.74,1.86-3.83,5.67-.09,3.54,5.57,7.34,8.68,8,3.91.79,7.78-2.57,6.44-6.68-1.1-3.36-7.7-7.92-11.29-7"/><path class="cls-33" d="M992,558.88a289.09,289.09,0,0,0-54.24-8.08c-19.24-.94-26.87-.12-43.29,5.12a350.51,350.51,0,0,1-39,8.89c-27.41,4-54.2-.29-81.23-3.84-39.22-5.13-80.33-11.37-119.86-9.67-3,.13-5.85.42-8.69.83-23-1.43-59.52,5.78-70.35,6.39-21.38,1.21-39,4.6-60.48.73-14-2.52-28.21.11-42.7.34-14.77.24-32.05,2.25-48.1,4.64-28-4-34.89-8.29-63.22-8.6-5.49,1.9-4.28,7,2.4,8.44-2.3-.41-6.13-1.07-4.09-.67,9.82,1.91,19.09,3.72,31.9,12,8.32,5.37,15.19,11.68,21.84,17.78,8.74,8,17,15.6,27.35,19.69,8.82,3.48,18.52,2.91,29.76,2.25,4.7-.27,9.56-.55,14.66-.55,4.56,0,9.21.16,13.72.31,11.57.4,23.53.81,33.3-1.55q3.62-.87,7.38-1.82c14.85-3.69,31.68-7.88,48.52-8.36,21.12-.59,38.1,4.75,51.9,16.33,5.82,4.88,11,10,16,15,6.4,6.41,12.44,12.46,19.46,17.53,10.46,7.55,23.82,14.09,36.75,20.41q3.47,1.68,6.82,3.35c11.87,5.87,24.25,8.68,39.2,11.1,15.55,2.51,24.86,1.29,40.28-.74l7.92-1a13.81,13.81,0,0,1,3.4,27.42c-2.72.33-5.29.67-7.73,1-9.63,1.27-18,2.37-27.46,2.37a128.7,128.7,0,0,1-20.8-1.75c-15.07-2.43-31.2-5.77-47-13.61l-6.7-3.29c-13.32-6.51-28.42-13.89-40.79-22.83C650,668,642.83,660.9,636,654c-4.77-4.77-9.27-9.27-14.16-13.38-8.52-7.14-19.14-10.28-33.41-9.88-13.85.39-28.48,4-42.63,7.55-2.57.64-5.1,1.27-7.57,1.87-13.43,3.24-27.3,2.76-40.72,2.3-4.46-.15-8.68-.3-12.73-.3h0c-4.29,0-8.55.25-13.06.51-13.28.78-27,1.58-41.47-4.13-15.13-6-26.16-16.09-35.9-25-6.06-5.57-11.78-10.82-18.13-14.92-8.35-5.38-13.57-6.4-22.22-8.09-3.49-.68-7.93.65-12.49-.51a37,37,0,0,1-9.85-4.21,31,31,0,0,0-2.7-3.27,61.34,61.34,0,0,1-7.2-9.06c-2.25-3.46-2.38-6.86-3.94-9.92-1.87-3.69-4.9-5.1-8.7-5.3-1.95-.1-4-.49-6-.58-1.64-.08-4.41-.13-6.18,0a104,104,0,0,0-20.07,2.51c-20.1,5.78-38.16,11.85-59.44,11.83-9.52,0-19,.09-28.56,0-7.26-.06-14.12-2-21.11-2.7a236.41,236.41,0,0,0-27.44-.9c-1.63,0-2.91.3-4.43.17-.29.14-.59.27-.89.39V787.52h922.14V564C1035.06,564.81,1013.24,564.17,992,558.88Z"/><path class="cls-38" d="M811.19,712.77l-7.73,1c-9.63,1.27-18,2.37-27.46,2.37a128.7,128.7,0,0,1-20.8-1.75c-15.07-2.43-31.2-5.77-47-13.61-2.19-1.09-4.43-2.18-6.7-3.29C688.14,691,673,683.59,660.67,674.65c-8.81-6.37-15.93-13.5-22.82-20.39-4.77-4.77-9.27-9.27-14.16-13.37-8.52-7.15-19.14-10.29-33.41-9.89-13.85.39-28.48,4-42.63,7.55-2.57.64-5.1,1.27-7.57,1.87-13.43,3.24-27.3,2.76-40.72,2.3-4.46-.15-8.68-.3-12.73-.3h0c-4.29,0-8.55.25-13,.51-13.28.78-27,1.58-41.48-4.13-15.12-6-26.16-16.09-35.9-25C390.1,608.2,384.38,603,378,598.85c-8.34-5.38-13.57-6.4-22.22-8.09-3.49-.68-7.44-1.45-12-2.6-5.15-1.3-21.91-9.43-15.61-20.49S349.38,561,349.38,561a11.3,11.3,0,0,0,1.18.36c3.82,1,7.23,1.63,10.52,2.28,9.82,1.91,19.09,3.72,31.9,12,8.32,5.37,15.19,11.68,21.84,17.78,8.74,8,17,15.6,27.35,19.69,8.82,3.47,18.52,2.91,29.76,2.25,4.7-.27,9.57-.55,14.66-.55,4.56,0,9.21.16,13.72.31,11.57.4,23.53.81,33.3-1.55,2.41-.58,4.87-1.19,7.38-1.81,14.85-3.7,31.68-7.89,48.52-8.37,21.12-.59,38.1,4.75,51.9,16.33,5.82,4.88,11,10,16,15,6.4,6.41,12.45,12.46,19.46,17.53,10.46,7.56,23.82,14.09,36.75,20.41,2.31,1.13,4.59,2.24,6.82,3.35,11.87,5.87,24.26,8.68,39.2,11.1,15.56,2.51,24.86,1.29,40.28-.74,2.51-.33,5.13-.67,7.93-1a13.81,13.81,0,0,1,3.39,27.42Z"/><path class="cls-33" d="M255.29,545.5c-2.32-2.19-5.13-1.17-5.18,1.92a3.56,3.56,0,0,0,1.35,3,11.55,11.55,0,0,0,3,2.15c2,.63,2.56-2.32,2.58-3.7,0-2.4-1.15-4-3.6-4.4"/><path class="cls-33" d="M286.37,533.55c-.95,0-3.36.39-3.28,1.92.06,1.14,2.28,1.74,3.17,1.69s2.44-.57,2.25-1.78c-.13-.83-1.49-1.57-2.14-1.83"/><path class="cls-33" d="M270.27,524.76c-9.27-1.83-2,13.74,3.82,9.89,1.14-.76,1.47-1,1.47-2.46a7.55,7.55,0,0,0-.66-2.81c-.83-2.21-1.83-4.93-4.63-4.62"/><path class="cls-33" d="M358.43,511.5c-6.66,6.7,10.3,9.31,10.34,2.31,0-1.36,0-1.77-1.23-2.58a7.65,7.65,0,0,0-2.69-1c-2.3-.53-5.11-1.22-6.42,1.29"/><path class="cls-33" d="M400.66,536a4.49,4.49,0,0,0-6.45,1.44c-1.25,2.13.06,3.42,1.25,5.09,1.46,2.07,4.39,5,7.24,3.36a4.82,4.82,0,0,0,1.48-6.28,8.13,8.13,0,0,0-1.83-2c-.51-.46-1.07-1.42-1.69-1.61"/><path class="cls-33" d="M392.78,530.62c-3.25.73-4.79,4.17-4.38,7.12.24,1.79.42,4.09,2.92,3.12,1.84-.73,2.15-2.89,2.56-4.58s1.62-6-1.1-5.66"/><path class="cls-33" d="M361.59,518.45c-7.09,0-26.34.84-20.63,13.92,2.12,4.84,11.48,7.7,16.13,6.83,4.81-.91,9.27-4.76,9-9.94-.2-4,0-10.54-4.52-10.81"/><path class="cls-33" d="M344.93,539.19c-3.66-.9-7.49-3.35-11.28,9.36-2,6.9,5.55,11,11.62,9.12,4.59-1.39,4.14-5.55,3.7-9.91-.49-4.79-.73-5.82-4-8.57"/><path class="cls-33" d="M282.32,505.37a23,23,0,0,0-7.76,2.24c-2,1.08-6.46,4.46-7.24,6.68-2.35,6.69,7.43,7.39,11.74,7.31,3.83-.07,12.18-2.47,13.08-7.19s-5.59-9.7-9.82-9"/><path class="cls-33" d="M228.72,550.91c-4.21,2.79-13.33,8.12-8.15,14.91,2.13,2.78,10.14,3.88,13.1,2.33,6.16-3.22,4.15-18.61-4.5-17.24"/><path class="cls-33" d="M375.72,515.51c-4.39-.56-5.92-1.06-8.92,3.18-2.67,3.79-.58,7.19,3.43,8.56,8.69,3,14.65-9.07,5.49-11.74"/><line class="cls-39" x1="53.46" y1="217.52" x2="1139" y2="217.52"/></g></g></svg>