<svg xmlns="http://www.w3.org/2000/svg" viewBox="0 0 1445.51 1328.52"><defs><style>.cls-1,.cls-18{font-size:40px;}.cls-1{fill:#5e5252;}.cls-1,.cls-13,.cls-14,.cls-15,.cls-16,.cls-17,.cls-25,.cls-39,.cls-40{font-family:Acre-Bold, Acre;font-weight:700;}.cls-14,.cls-2,.cls-6{letter-spacing:-0.01em;}.cls-3{letter-spacing:-0.03em;}.cls-4,.cls-8{letter-spacing:-0.02em;}.cls-5{letter-spacing:-0.01em;}.cls-10,.cls-11,.cls-18,.cls-44,.cls-6,.cls-7,.cls-8,.cls-9{font-family:Acre-Light, Acre;font-weight:300;}.cls-19,.cls-9{letter-spacing:0em;}.cls-10,.cls-12{letter-spacing:-0.02em;}.cls-11,.cls-24{letter-spacing:0em;}.cls-13,.cls-14,.cls-15,.cls-16,.cls-17,.cls-36{fill:#ec6a7c;}.cls-15,.cls-28{letter-spacing:-0.01em;}.cls-16,.cls-26{letter-spacing:-0.03em;}.cls-17,.cls-21{letter-spacing:0em;}.cls-18{fill:#5d5152;}.cls-20{letter-spacing:-0.01em;}.cls-22{letter-spacing:-0.02em;}.cls-23,.cls-44{letter-spacing:-0.01em;}.cls-27{letter-spacing:-0.03em;}.cls-29{letter-spacing:-0.05em;}.cls-30{fill:#5c5052;}.cls-31{fill:#3daaa1;}.cls-32{fill:#ffce01;}.cls-33,.cls-37{fill:none;stroke-linecap:round;stroke-width:3.04px;}.cls-33{stroke:#ffce01;stroke-linejoin:round;}.cls-34{fill:#f27243;}.cls-35{fill:#336db5;}.cls-37{stroke:#3daaa1;stroke-miterlimit:10;}.cls-38{letter-spacing:-0.03em;}.cls-39,.cls-46{letter-spacing:-0.02em;}.cls-40{letter-spacing:-0.01em;}.cls-41{letter-spacing:-0.02em;}.cls-42{font-family:Acre-Regular, Acre;font-weight:400;}.cls-43{letter-spacing:-0.03em;}.cls-45{letter-spacing:-0.01em;}.cls-47{letter-spacing:-0.02em;}.cls-48{letter-spacing:-0.03em;}</style></defs><g id="Layer_2" data-name="Layer 2"><g id="Final_Frontier" data-name="Final Frontier"><text class="cls-1" transform="translate(58.78 1204.83)">on<tspan class="cls-2" x="46.6" y="0">l</tspan><tspan class="cls-3" x="56.72" y="0">y</tspan><tspan x="77.24" y="0"> </tspan><tspan class="cls-2" x="90.12" y="0">1</tspan><tspan x="104.16" y="0">-5% </tspan><tspan class="cls-4" x="182.92" y="0">o</tspan><tspan x="205.88" y="0">f </tspan><tspan class="cls-5" x="232.68" y="0">s</tspan><tspan x="250.36" y="0">oil o</tspan><tspan class="cls-4" x="333.27" y="0">r</tspan><tspan x="346.99" y="0">ganisms </tspan><tspan class="cls-6" x="515.71" y="0">h</tspan><tspan class="cls-7" x="537.95" y="0">a</tspan><tspan class="cls-8" x="562.63" y="0">v</tspan><tspan class="cls-7" x="582.11" y="0">e been di</tspan><tspan class="cls-9" x="759.71" y="0">s</tspan><tspan class="cls-7" x="775.91" y="0">c</tspan><tspan class="cls-6" x="797.03" y="0">ov</tspan><tspan class="cls-7" x="839.99" y="0">e</tspan><tspan class="cls-10" x="862.59" y="0">r</tspan><tspan class="cls-7" x="873.95" y="0">ed, </tspan><tspan class="cls-8" x="941.66" y="0">m</tspan><tspan class="cls-7" x="976.02" y="0">aki</tspan><tspan class="cls-8" x="1029.86" y="0">n</tspan><tspan class="cls-7" x="1052.06" y="0">g </tspan><tspan class="cls-11" x="1090.54" y="0">s</tspan><tspan class="cls-7" x="1106.74" y="0">oils a </tspan><tspan class="cls-7"><tspan class="cls-2" x="282.2" y="57.28">m</tspan><tspan x="316.56" y="57.28">ajor f</tspan><tspan class="cls-12" x="412.39" y="57.28">r</tspan><tspan x="423.75" y="57.28">ontier in </tspan><tspan class="cls-13" x="586.95" y="57.28">gen</tspan><tspan class="cls-14" x="656.87" y="57.28">e</tspan><tspan class="cls-13" x="678.55" y="57.28">tic di</tspan><tspan class="cls-15" x="773.71" y="57.28">s</tspan><tspan class="cls-13" x="791.39" y="57.28">c</tspan><tspan class="cls-16" x="810.87" y="57.28">ov</tspan><tspan class="cls-13" x="853.06" y="57.28">er</tspan><tspan class="cls-17" x="889.66" y="57.28">y</tspan><tspan class="cls-13" x="911.38" y="57.28">!</tspan></tspan></text><text class="cls-18" transform="translate(281.58 138.72)"><tspan class="cls-19">s</tspan><tspan x="16.2" y="0">oil </tspan><tspan class="cls-13" x="73.16" y="0">o</tspan><tspan class="cls-14" x="96.72" y="0">r</tspan><tspan class="cls-13" x="110.44" y="0">ganisms </tspan><tspan x="279.15" y="0">a</tspan><tspan class="cls-12" x="303.83" y="0">r</tspan><tspan x="315.19" y="0">e </tspan><tspan class="cls-2" x="351.59" y="0">n</tspan><tspan class="cls-20" x="373.79" y="0">o</tspan><tspan x="397.35" y="0">t on</tspan><tspan class="cls-21" x="469.11" y="0">l</tspan><tspan class="cls-22" x="477.95" y="0">y</tspan><tspan x="496.71" y="0" xml:space="preserve"> t</tspan><tspan class="cls-4" x="521.59" y="0">h</tspan><tspan x="543.83" y="0">e </tspan><tspan x="119.48" y="70">in</tspan><tspan class="cls-2" x="152.32" y="70">h</tspan><tspan x="174.56" y="70">abi</tspan><tspan class="cls-12" x="233.96" y="70">t</tspan><tspan x="244.24" y="70">an</tspan><tspan class="cls-23" x="291.72" y="70">t</tspan><tspan x="302.4" y="70">s </tspan><tspan class="cls-20" x="332.51" y="70">o</tspan><tspan x="356.07" y="70">f </tspan><tspan class="cls-24" x="380.95" y="70">s</tspan><tspan x="397.15" y="70">oil, </tspan><tspan class="cls-25"><tspan x="27.1" y="140">th</tspan><tspan class="cls-26" x="63.98" y="140">e</tspan><tspan class="cls-27" x="85.06" y="140">y</tspan><tspan x="105.58" y="140" xml:space="preserve"> a</tspan><tspan class="cls-4" x="143.06" y="140">r</tspan><tspan x="156.78" y="140">e the a</tspan><tspan class="cls-2" x="288.58" y="140">r</tspan><tspan x="302.29" y="140">chi</tspan><tspan class="cls-2" x="357.05" y="140">t</tspan><tspan x="370.25" y="140">ec</tspan><tspan class="cls-28" x="412.01" y="140">t</tspan><tspan x="425.53" y="140">s </tspan><tspan class="cls-4" x="456.37" y="140">o</tspan><tspan x="479.33" y="140">f i</tspan><tspan class="cls-29" x="518.33" y="140">t</tspan><tspan x="530.25" y="140">.</tspan></tspan></text><path class="cls-30" d="M1063,518.38c-.45,10-.15,20,2.75,28.77a37.27,37.27,0,0,0,6.34,12l1.07,1.32,1.17,1.27c.74.87,1.65,1.62,2.47,2.45a64.31,64.31,0,0,0,5.61,4.47,142.15,142.15,0,0,0,12.82,8c4.48,2.55,9.09,5.08,13.67,7.72s9.15,5.42,13.61,8.36l3.33,2.24,3.29,2.31,6.38,4.74c16.93,12.72,32.56,27,47.54,41.65s29.34,29.89,44.1,44.58c3.68,3.69,7.41,7.32,11.15,10.94l11.37,10.75a261,261,0,0,1,21.88,22.83,120,120,0,0,1,17.2,26.77,105.57,105.57,0,0,1,8.39,30.63l.43,3.94.21,2c.07.65.08,1.31.12,2,.11,2.63.33,5.27.35,7.9v7.89c-.09,1.34-.15,2.69-.3,4s-.32,2.67-.63,4c-2,10.49-7,19.92-8,30.18a31,31,0,0,0,2.21,15c.25.59.49,1.18.76,1.76l.93,1.69a15.36,15.36,0,0,0,1,1.64c.36.54.7,1.08,1.07,1.61a64,64,0,0,0,5,6c3.54,3.82,7.39,7.36,11,11.18a49.28,49.28,0,0,1,9.07,12.72,49,49,0,0,0-9.36-12.44c-3.66-3.72-7.59-7.16-11.26-10.91a65.43,65.43,0,0,1-5.21-5.92c-.39-.53-.76-1.08-1.14-1.62a17,17,0,0,1-1.08-1.67l-1-1.72c-.3-.59-.57-1.21-.85-1.81a32.63,32.63,0,0,1-2.7-15.61,69.61,69.61,0,0,1,3.29-15.48,127.81,127.81,0,0,0,4-15c.26-1.25.33-2.52.51-3.78s.12-2.53.17-3.8l-.19-7.77c-.09-2.59-.37-5.17-.54-7.75-.06-.64-.08-1.29-.16-1.93l-.26-1.92-.52-3.84a101.56,101.56,0,0,0-8.84-29.38,115.35,115.35,0,0,0-17.23-25.36,256.39,256.39,0,0,0-22-21.83l-11.67-10.5c-3.86-3.54-7.71-7.1-11.51-10.72-15.21-14.4-30-29.2-45.16-43.41s-30.9-27.73-47.7-39.7l-6.31-4.45-3.18-2.11-3.23-2.06c-4.32-2.69-8.76-5.24-13.29-7.7s-9.14-4.84-13.8-7.34a152.28,152.28,0,0,1-14-8.23,73.67,73.67,0,0,1-6.76-5.12c-1.06-1-2.18-1.9-3.18-3l-1.52-1.58-1.44-1.68a49.23,49.23,0,0,1-8.68-15.35,71.29,71.29,0,0,1-3.62-16.68,132.27,132.27,0,0,1-.56-16.48,6.36,6.36,0,0,1,12.71.27v.23Z"/><path class="cls-30" d="M1049.41,523.11c3.09,14.15,7.47,28.09,11.8,42.22,2.16,7.07,4.29,14.21,6.12,21.49a168,168,0,0,1,4.2,22.27,107.77,107.77,0,0,1,.29,22.93,99.91,99.91,0,0,1-4.91,22.45,116.59,116.59,0,0,1-9.55,20.72c-3.75,6.46-7.67,12.72-11.51,19-7.67,12.52-15.07,25.1-19.94,38.62a103.79,103.79,0,0,0-5.26,20.76,105.34,105.34,0,0,0-.68,21.48c.37,7.26,1.17,14.76.59,22.45a62.13,62.13,0,0,1-5.82,22.24c-6.61,13.81-16.92,25.41-28.6,34.74a184.56,184.56,0,0,1-18.31,12.88c-6.33,3.93-12.84,7.5-19.41,10.94-13.12,6.83-26.54,13.12-40.13,18.92S881,908.53,867.75,914.78c-3.29,1.62-6.63,3.15-9.86,4.88-1.63.85-3.27,1.68-4.88,2.55l-4.79,2.7-2.39,1.35-2.33,1.45-4.68,2.88-4.55,3.08c-1.51,1-3,2-4.49,3.17-2.93,2.2-5.89,4.35-8.66,6.75-1.41,1.18-2.83,2.34-4.22,3.53l-4,3.72a190.47,190.47,0,0,0-15.29,15.83A283,283,0,0,0,771.2,1002c-7.78,12.45-14.65,25.61-19.1,39.64a88,88,0,0,0-4.08,21.62,50.64,50.64,0,0,0,3.43,21.64,50.86,50.86,0,0,1-3.73-21.65,88.15,88.15,0,0,1,3.81-21.78c4.29-14.17,11-27.48,18.66-40.1a284.86,284.86,0,0,1,26-35.86,195.22,195.22,0,0,1,15.21-16.17l4-3.83c1.39-1.22,2.82-2.41,4.22-3.62,2.77-2.47,5.75-4.69,8.68-7,1.45-1.16,3-2.2,4.51-3.26l4.56-3.19,4.7-3,2.34-1.49,2.4-1.41,4.81-2.79c1.62-.91,3.26-1.76,4.89-2.65,3.25-1.79,6.59-3.38,9.89-5,13.32-6.48,26.95-12.18,40.4-18.16s26.67-12.37,39.61-19.33c6.45-3.49,12.83-7.1,19-11a183.38,183.38,0,0,0,17.67-12.78c11.19-9.19,20.76-20.36,26.75-33.31a56.8,56.8,0,0,0,5-20.36c.44-7-.41-14.28-.9-21.72a111.72,111.72,0,0,1,.43-22.67,110.17,110.17,0,0,1,5.28-22.12c5-14.34,12.47-27.43,20-40.12,3.77-6.36,7.59-12.65,11.16-19a108.73,108.73,0,0,0,8.68-19.5,92.38,92.38,0,0,0,4.24-20.71,99.75,99.75,0,0,0-.56-21.21A158.94,158.94,0,0,0,1059,589c-1.85-7-4-14-6.28-21-4.49-14-9.17-28.16-12.56-42.79h0a4.77,4.77,0,0,1,9.29-2.16Z"/><path class="cls-30" d="M1049.27,525.8a71.45,71.45,0,0,1,2.07,32.46,90.61,90.61,0,0,1-4,15.61c-.43,1.26-.94,2.49-1.41,3.74s-1,2.46-1.55,3.68l-1.69,3.61-.85,1.8-1,1.76a63.09,63.09,0,0,1-9.19,13.5,35.28,35.28,0,0,1-3,3,32.59,32.59,0,0,1-3.35,2.69,15.81,15.81,0,0,1-1.82,1.19l-1.89,1.11c-.65.32-1.33.61-2,.91a15.46,15.46,0,0,1-2,.81,38.66,38.66,0,0,1-16.79,1.62,129.57,129.57,0,0,1-15.54-2.85c-5-1.15-9.92-2.3-14.83-3.13a85,85,0,0,0-14.7-1.33,64.66,64.66,0,0,0-14.48,1.68c-1.18.32-2.38.53-3.53.93l-3.49,1.13c-2.37.86-4.75,1.76-7.11,2.68-18.91,7.42-37.39,16.26-56.19,24.45s-37.94,16-58,20.94a152.14,152.14,0,0,1-30.64,4.53,99.14,99.14,0,0,1-30.8-3.47,87.06,87.06,0,0,1-27.74-13.61,114.74,114.74,0,0,1-22-21.58c-3.14-4-6.2-8.17-9.14-12.36-1.48-2.09-2.94-4.19-4.52-6.17a19.76,19.76,0,0,0-5.52-5.08l-.83-.45-.41-.22-.45-.16-1.77-.64c-.61-.16-1.24-.29-1.85-.43l-.93-.21-.95-.13c-1.26-.18-2.52-.36-3.79-.43s-2.55-.22-3.83-.26c-5.1-.27-10.22-.36-15.34-.5,5.12,0,10.24,0,15.36.2,1.28,0,2.55.11,3.83.18s2.56.22,3.84.37l1,.11.95.19c.63.14,1.27.25,1.9.4l1.84.63.46.16.44.22.87.45a20.32,20.32,0,0,1,5.8,5.12c1.65,2,3.15,4.06,4.67,6.12q4.53,6.19,9.35,12.14a112.93,112.93,0,0,0,22.1,20.87,85.13,85.13,0,0,0,27.34,12.77,96.69,96.69,0,0,0,30,2.8,149.15,149.15,0,0,0,29.9-5c19.61-5.25,38.4-13.3,56.94-21.82s36.86-17.72,55.92-25.63c2.39-1,4.78-1.94,7.2-2.87l3.79-1.31c1.26-.46,2.58-.73,3.86-1.1a70.7,70.7,0,0,1,15.9-2.16c10.73-.28,21.19,1.92,31.13,4a123.54,123.54,0,0,0,14.68,2.41,31.07,31.07,0,0,0,13.5-1.48,26.59,26.59,0,0,0,10.73-7.79,55.22,55.22,0,0,0,7.78-12,90,90,0,0,0,9.07-27.69,62.1,62.1,0,0,0-2.32-28.24,4.77,4.77,0,1,1,9.07-3S1049.27,525.78,1049.27,525.8Z"/><path class="cls-30" d="M1067.85,646.85A141.12,141.12,0,0,1,1055.47,665c-4.39,5.68-8.88,11.14-13.09,16.71a131.69,131.69,0,0,0-11.36,17.2,55.08,55.08,0,0,0-6.42,18.73,44.34,44.34,0,0,0,1.64,19.49,57,57,0,0,0,9.66,17.56c8.45,10.84,19.43,19.93,29.41,30.23s19.4,21.2,26.61,33.72a103.16,103.16,0,0,1,8.83,19.69,109.55,109.55,0,0,1,4.53,21,163.29,163.29,0,0,1-.93,42.66c-.93,7-1.95,14-2.19,21.11a65.11,65.11,0,0,0,2.4,21,65.53,65.53,0,0,1-3-21c0-7.12.86-14.2,1.59-21.25a170.21,170.21,0,0,0,1.24-21.14,151,151,0,0,0-1.52-21,107.19,107.19,0,0,0-5-20.36,101,101,0,0,0-9.09-18.81c-7.32-11.9-16.85-22.33-26.92-32.14s-21.34-18.56-30.73-29.87a63.55,63.55,0,0,1-11.26-19.23,51.45,51.45,0,0,1-2.55-22.49,63,63,0,0,1,6.7-21.49,141.11,141.11,0,0,1,11.58-18.58c4.19-5.86,8.57-11.47,12.71-17.12a132.9,132.9,0,0,0,11.13-17.23v0a4.77,4.77,0,1,1,8.47,4.38A.6.6,0,0,1,1067.85,646.85Z"/><path class="cls-30" d="M1075.94,566.25a184.5,184.5,0,0,1,25.82,11.88c8.26,4.51,16.23,9.42,24,14.54,15.59,10.24,30.52,21.3,45.27,32.48,7.38,5.59,14.7,11.22,22.07,16.72,3.68,2.75,7.37,5.47,11.1,8.06,1.86,1.3,3.73,2.56,5.61,3.75a57.79,57.79,0,0,0,5.6,3.21,15.94,15.94,0,0,0,2.54,1l.47.11.71.12c.5.09,1,.14,1.51.2a39.91,39.91,0,0,0,6.3.11,86.78,86.78,0,0,0,13.11-1.92c8.84-1.88,17.73-4.51,26.93-6.49a105.15,105.15,0,0,1,14.12-2.18,45.29,45.29,0,0,1,14.74,1,28.69,28.69,0,0,1,7.1,2.88,29.53,29.53,0,0,1,6,4.67,49.7,49.7,0,0,1,8.4,11.92c4.42,8.45,7.4,17.26,10.82,25.78a134.5,134.5,0,0,0,5.58,12.46,49.35,49.35,0,0,0,7.52,11,66.46,66.46,0,0,0,22.38,14.94,105.81,105.81,0,0,0,26.53,6.73c18.25,2.44,36.82,1.8,55.28,2.3-18.47,0-37,1.25-55.48-.66a107.79,107.79,0,0,1-27.24-6.07A69.07,69.07,0,0,1,1339,719.93a52.67,52.67,0,0,1-8.42-11.54c-2.31-4.13-4.27-8.39-6.13-12.65-3.71-8.52-7-17.17-11.35-25a44.6,44.6,0,0,0-7.8-10.45,22.57,22.57,0,0,0-10.77-5.78,39.36,39.36,0,0,0-12.81-.48,97.44,97.44,0,0,0-13.18,2.46c-8.81,2.17-17.58,5-26.76,7.3a95.59,95.59,0,0,1-14.21,2.5,48.65,48.65,0,0,1-7.55.08c-.64,0-1.29-.11-1.93-.19l-1-.14c-.4-.09-.85-.17-1.22-.28a23.88,23.88,0,0,1-3.9-1.51,63.68,63.68,0,0,1-6.45-3.61c-2-1.26-4-2.57-6-3.9-3.87-2.65-7.64-5.38-11.39-8.12-7.48-5.5-14.85-11.07-22.25-16.58-14.79-11-29.66-21.85-45-31.77-7.69-5-15.51-9.67-23.5-14a173.66,173.66,0,0,0-24.57-11.07h0a4.77,4.77,0,1,1,3.15-9Z"/><path class="cls-30" d="M1220.12,681.36a305,305,0,0,1,29.22,34.6c8.77,12.33,16.47,25.62,21.49,40.09a105.26,105.26,0,0,1,3.18,11,87,87,0,0,1,1.89,11.35,83.09,83.09,0,0,1-.77,23,89.78,89.78,0,0,1-7,21.82,122.57,122.57,0,0,1-11.62,19.58c-8.8,12.34-19.32,23.15-29.13,34.34-4.88,5.62-9.58,11.35-13.06,17.81a56.94,56.94,0,0,0-6.6,20.84,85.07,85.07,0,0,0,.75,22.12c1.08,7.37,2.69,14.68,3.93,22.07a95.77,95.77,0,0,1,1.62,22.42,54,54,0,0,1-5.92,21.53,53.79,53.79,0,0,0,5.4-21.56,95.25,95.25,0,0,0-2.12-22.2c-1.41-7.33-3.19-14.6-4.45-22a87,87,0,0,1-1.28-22.58,59.36,59.36,0,0,1,6.37-21.83c3.46-6.84,8.25-12.83,13.08-18.56s9.87-11.28,14.7-17,9.49-11.46,13.7-17.54a118.82,118.82,0,0,0,11-19.12,85.57,85.57,0,0,0,6.35-20.89,78.39,78.39,0,0,0,.41-21.74,83.74,83.74,0,0,0-2-10.74,95.7,95.7,0,0,0-3.19-10.47c-5-13.78-12.63-26.55-21.36-38.43a298.67,298.67,0,0,0-29.15-33.48h0a3.18,3.18,0,1,1,4.51-4.48Z"/><path class="cls-30" d="M1247.34,707.34c10,14.31,18.74,29.64,24.93,46.1a146.09,146.09,0,0,1,9.78,51.59,159.51,159.51,0,0,1-2.12,26.21,252.35,252.35,0,0,1-5.63,25.53c-2.25,8.38-4.76,16.65-7.06,24.93a185.4,185.4,0,0,0-5.47,25,71.45,71.45,0,0,0,.72,25,61.8,61.8,0,0,0,10.41,22.65l1.89,2.53c.65.87,1.34,1.74,2,2.65,1.3,1.78,2.49,3.64,3.65,5.51a97.34,97.34,0,0,1,6,11.7,116.43,116.43,0,0,1,7.56,25,164.88,164.88,0,0,1,.9,51.89,187.48,187.48,0,0,1-5.2,25.42,163.4,163.4,0,0,1-8.79,24.36,164.38,164.38,0,0,0,8.17-24.52,187.59,187.59,0,0,0,4.53-25.41c1.83-17.09,1.42-34.49-2.15-51.22a113.84,113.84,0,0,0-8-24.24,93.3,93.3,0,0,0-6.12-11.14c-1.16-1.77-2.34-3.52-3.63-5.19-.62-.86-1.3-1.66-2-2.5l-2-2.64a65.81,65.81,0,0,1-11.29-24,75.65,75.65,0,0,1-1-26.48,187.39,187.39,0,0,1,5.35-25.63c2.23-8.38,4.66-16.66,6.8-25,4.34-16.58,7.37-33.48,7.09-50.45a140.32,140.32,0,0,0-9.9-49.54c-6.12-15.83-14.76-30.65-24.65-44.53h0a3.18,3.18,0,0,1,5.18-3.69Z"/><path class="cls-30" d="M1026.5,736.06a59.19,59.19,0,0,0,4.77,13.27c2.1,4.35,4.55,8.61,7.14,12.85,5.17,8.48,10.79,16.92,15.68,25.9s9.08,18.53,11.32,28.7c.56,2.53,1,5.1,1.32,7.68s.48,5.18.54,7.77A78.44,78.44,0,0,1,1066,847.7a100.84,100.84,0,0,1-10.36,28.87c-2.37,4.5-5,8.87-7.81,13.07s-5.46,8.37-8,12.67c-5.06,8.59-9.64,17.52-12.57,27.05a56.71,56.71,0,0,0-2.6,14.67,33.28,33.28,0,0,0,2.67,14.62A33.69,33.69,0,0,1,1024,944a57.43,57.43,0,0,1,2-15c2.53-9.82,6.77-19.11,11.49-28,2.37-4.46,4.9-8.84,7.49-13.16s5.09-8.54,7.27-13a96.6,96.6,0,0,0,9.18-27.89,71.87,71.87,0,0,0-1.31-28.88c-2.34-9.43-6.52-18.35-11.47-26.86s-10.7-16.69-16.21-25.21c-2.76-4.26-5.45-8.64-7.85-13.27a67,67,0,0,1-5.76-14.88h0a4,4,0,0,1,7.72-1.86A.43.43,0,0,1,1026.5,736.06Z"/><path class="cls-30" d="M1063.69,577.91a108.28,108.28,0,0,1,4.93,13.51,78.83,78.83,0,0,1,2.74,14.31,67.59,67.59,0,0,1-3.44,29,80.71,80.71,0,0,1-14.48,24.85,132.05,132.05,0,0,1-20.29,19.31c-14.62,11.35-30.55,20.37-46.61,28.71s-32.49,15.83-48.36,24a183.3,183.3,0,0,0-22.82,13.58,213.29,213.29,0,0,0-20.55,17c-13.11,12.13-25.29,25.38-37.63,38.48s-24.8,26.21-38.52,38a178.19,178.19,0,0,1-21.73,16.13,106.22,106.22,0,0,1-24.41,11.46,106.42,106.42,0,0,0,24-12.14,178.37,178.37,0,0,0,21.09-16.67c13.27-12.08,25.27-25.48,37.2-38.93s23.73-27.1,36.67-39.83a217.91,217.91,0,0,1,20.54-18c3.63-2.78,7.45-5.4,11.33-7.8s7.82-4.7,11.78-6.9c15.87-8.78,32-16.71,47.64-25.41s30.87-18,44.39-29.1a122.66,122.66,0,0,0,18.24-18.36,70,70,0,0,0,12-21.88,55.85,55.85,0,0,0,2.15-24.2,78.09,78.09,0,0,0-7.35-23.79l0-.07a6.36,6.36,0,0,1,11.5-5.43Z"/><path class="cls-30" d="M1042.52,670.66a27,27,0,0,1-3.9,6.93,50.28,50.28,0,0,1-4.78,5.4,105,105,0,0,1-10.43,8.88c-7.17,5.4-14.62,10.16-22.14,14.75-15,9.15-30.45,17.42-45.47,26.07-3.75,2.16-7.46,4.36-11,6.65-1.79,1.14-3.55,2.31-5.19,3.52a27.11,27.11,0,0,0-4.2,3.62l-.27.35-.43.62c-.28.42-.57.84-.83,1.27-.55.85-1.07,1.71-1.56,2.6a51.28,51.28,0,0,0-2.68,5.47A61.85,61.85,0,0,0,926,768.56a104.92,104.92,0,0,0-1.55,25.19c.36,8.55,1.36,17.15,2.38,25.8s2.11,17.38,2.49,26.24c.18,4.46.14,8.85,0,13.25s-.32,8.8-.69,13.2a161.78,161.78,0,0,1-4.24,26.12,117.22,117.22,0,0,1-9.28,24.8A116,116,0,0,1,900.3,945c-5.64,6.71-11.69,13-17.25,19.67s-10.6,13.83-13.64,22a52.46,52.46,0,0,0-3.07,12.61,60.39,60.39,0,0,0,0,13,60.76,60.76,0,0,1-.4-13.07,52.83,52.83,0,0,1,2.74-12.83c2.85-8.34,7.81-15.77,13.18-22.65s11.29-13.35,16.68-20.15a113.33,113.33,0,0,0,13.94-21.72c7.49-15.52,10.8-32.73,11.73-49.91.24-4.3.33-8.61.31-12.93s-.11-8.66-.41-12.91c-.61-8.55-1.92-17.12-3.19-25.75s-2.53-17.33-3.17-26.2a111.89,111.89,0,0,1,.93-26.94,69.59,69.59,0,0,1,3.64-13.32,62.73,62.73,0,0,1,2.88-6.37c.54-1,1.11-2,1.72-3,.3-.51.61-1,.93-1.49l.47-.74c.23-.32.48-.65.72-1a23.83,23.83,0,0,1,2.8-2.8c.93-.81,1.85-1.53,2.78-2.23,1.85-1.39,3.72-2.66,5.59-3.88,3.74-2.44,7.51-4.73,11.29-7,15.11-8.91,30.35-17.29,45-26.43,7.31-4.57,14.53-9.29,21.23-14.46a94.47,94.47,0,0,0,9.4-8.15,42,42,0,0,0,3.84-4.42,17.85,17.85,0,0,0,2.49-4.42l0-.1a4.77,4.77,0,0,1,9,3.2Z"/><path class="cls-30" d="M1046.34,526.35c1.12,6.41,2.66,12.82,4.28,19.32s3.27,13.1,4.48,19.93a84.36,84.36,0,0,1,1.3,21.14,57.12,57.12,0,0,1-5.77,20.82,70.14,70.14,0,0,1-12.42,17.23,101.81,101.81,0,0,1-15.8,13.63,126.15,126.15,0,0,1-17.84,10.5,172.55,172.55,0,0,1-18.94,7.91,340.09,340.09,0,0,1-39.14,10.89c-13.15,2.95-26.34,5.5-39.41,8.29s-26.08,5.83-38.76,9.76c-6.32,2-12.56,4.24-18.66,6.79A152.41,152.41,0,0,0,832,701.47a155,155,0,0,0-16.16,11.42c-5.1,4.2-10,8.69-14.67,13.41-9.33,9.47-17.86,19.77-26.47,30.07S757.32,777,747.16,786a98.3,98.3,0,0,1-34.87,20.57,95,95,0,0,1-19.92,4l-5.06.38c-1.69.07-3.39,0-5.08.07l-2.53,0c-.85,0-1.69-.08-2.53-.12l-5.06-.27c-6.71-.52-13.38-1.28-20-2s-13.33-1.48-20-1.81a98.14,98.14,0,0,0-10-.06,54.53,54.53,0,0,0-9.88,1.27,36.24,36.24,0,0,0-9.29,3.46,29.82,29.82,0,0,0-7.74,6.18,37.89,37.89,0,0,0-3.1,3.9,46.29,46.29,0,0,0-2.53,4.31,62.38,62.38,0,0,0-3.84,9.25,115,115,0,0,0-4.18,19.64,115.37,115.37,0,0,1,3.9-19.73,62,62,0,0,1,3.72-9.37,47.66,47.66,0,0,1,2.5-4.39,37.51,37.51,0,0,1,3.09-4,30.3,30.3,0,0,1,7.82-6.43,37,37,0,0,1,9.44-3.68,54.87,54.87,0,0,1,10-1.44,100.31,100.31,0,0,1,10.11-.09c6.73.23,13.42.88,20.1,1.51s13.34,1.3,20,1.72l5,.19c.83,0,1.66.08,2.49.08l2.5-.05c1.66-.06,3.32,0,5-.15l5-.44a92.66,92.66,0,0,0,19.38-4.2,95.39,95.39,0,0,0,33.63-20.53c9.81-9,18.36-19.25,26.81-29.64s16.88-20.92,26.23-30.71c4.7-4.87,9.63-9.55,14.81-13.95a161.18,161.18,0,0,1,16.51-12,158.52,158.52,0,0,1,18.11-9.5c6.24-2.72,12.61-5.1,19-7.25,12.89-4.2,26-7.48,39.11-10.46S932,664.45,945,661.34a332.08,332.08,0,0,0,38.19-11.23,166.49,166.49,0,0,0,18-7.85,118.14,118.14,0,0,0,16.65-10.14,94.73,94.73,0,0,0,14.44-12.81,62.18,62.18,0,0,0,10.81-15.42,48.43,48.43,0,0,0,4.64-17.79,75.51,75.51,0,0,0-1.48-18.9c-2.45-12.73-6.78-25.55-9.34-39.15a4.77,4.77,0,0,1,9.37-1.76Z"/><path class="cls-30" d="M893.52,627.36c-11.77,5.31-23.42,11.09-35,16.91S835.3,656.06,823.72,662s-23.14,11.93-34.88,17.68c-2.91,1.46-6,2.81-8.79,4.18s-5.68,3-8.5,4.55c-5.65,3.18-11.28,6.5-17.1,9.56a96.62,96.62,0,0,1-18.3,7.7,40.35,40.35,0,0,1-10,1.6,27.72,27.72,0,0,1-10-2.1c-6.25-2.43-11.73-6-17.8-7.65a25.17,25.17,0,0,0-4.63-.8c-1.59-.19-3.2-.28-4.8-.38a94.33,94.33,0,0,0-9.66,0c-12.91.65-25.61,3.77-38.46,5.94a164.56,164.56,0,0,1-19.42,2.29q-4.89.23-9.77.08c-3.26-.11-6.51-.39-9.74-.77,3.24.31,6.49.5,9.74.54s6.5-.1,9.74-.33a164.78,164.78,0,0,0,19.28-2.75c12.74-2.47,25.38-5.92,38.51-6.91a98.13,98.13,0,0,1,9.86-.28c1.64.06,3.29.12,4.93.27a27.72,27.72,0,0,1,5,.75c6.61,1.62,12.29,5.16,18.22,7.28a25,25,0,0,0,9,1.68,38.09,38.09,0,0,0,9.15-1.7,93.41,93.41,0,0,0,17.43-7.86c5.63-3.14,11.14-6.57,16.76-9.91,2.81-1.68,5.65-3.32,8.59-4.87s5.88-2.87,8.76-4.36c11.56-5.87,23-12,34.53-18.13s23-12.22,34.56-18.24,23.16-12,35.06-17.52a3.17,3.17,0,1,1,2.69,5.75l0,0Z"/><path class="cls-30" d="M858.29,689.72a70.9,70.9,0,0,0-7.81,5.39,88.48,88.48,0,0,0-7.08,6.5,115.67,115.67,0,0,0-12.25,15.11,218,218,0,0,0-18.9,34.56q-4,9-7.59,18.33-1.78,4.64-3.49,9.31a93.55,93.55,0,0,1-3.83,9.45,49,49,0,0,1-5.46,8.85,41,41,0,0,1-7.46,7.32c-5.58,4.22-11.89,6.84-17.77,9.77A69.75,69.75,0,0,0,750.34,825a72.43,72.43,0,0,0-12.54,15,79.87,79.87,0,0,0-8.34,17.77A120.2,120.2,0,0,0,724.93,877c-2.06,13.09-2.66,26.43-4.35,39.65a150.15,150.15,0,0,1-3.68,19.65,91,91,0,0,1-7.09,18.65,90.46,90.46,0,0,0,6.68-18.75,150.07,150.07,0,0,0,3.25-19.64c1.42-13.22,1.72-26.55,3.53-39.81a120.93,120.93,0,0,1,4.18-19.66,82.34,82.34,0,0,1,8.2-18.46,75.11,75.11,0,0,1,12.7-15.81,72.85,72.85,0,0,1,16.77-11.48c6-3.1,12-5.8,17-9.76a39.31,39.31,0,0,0,11.43-15,90.26,90.26,0,0,0,3.48-9.12q1.63-4.73,3.36-9.44,3.43-9.42,7.35-18.7a223,223,0,0,1,18.75-35.74,122.92,122.92,0,0,1,12.59-16.1,93.64,93.64,0,0,1,7.5-7.12,74.56,74.56,0,0,1,8.5-6.09,3.18,3.18,0,0,1,3.33,5.42h0Z"/><path class="cls-30" d="M1054.2,521.69a70.17,70.17,0,0,1,7,16.87c1.66,5.67,2.91,11.36,4,17,2.18,11.35,3.74,22.68,5.34,33.94s3.16,22.48,5.24,33.53c1.05,5.52,2.22,11,3.66,16.35a98.13,98.13,0,0,0,5.4,15.47,46.64,46.64,0,0,0,3.85,6.89c1.52,2.27,3.15,4.48,4.87,6.65,3.44,4.34,7.18,8.52,11,12.72,7.61,8.39,15.61,17,21.65,27.21a69.31,69.31,0,0,1,7,16.4,72.73,72.73,0,0,1,2.12,17.63,165.53,165.53,0,0,0,.77,16.75,45.45,45.45,0,0,0,1.74,7.85,66.24,66.24,0,0,0,3,7.64c4.57,10,11.71,18.7,20.1,26a133.77,133.77,0,0,0,28.11,18.26,238.75,238.75,0,0,0,31.38,12.67c10.76,3.54,21.71,6.51,32.75,9.13s22.18,4.9,33.35,7l16.78,3.11c5.59,1.06,11.2,2,16.78,3.28a107.91,107.91,0,0,1,16.37,5.05,79,79,0,0,1,15.06,8.15c4.71,3.23,9.12,6.85,13.47,10.51s8.66,7.39,13,11c-4.45-3.55-8.83-7.18-13.24-10.76s-8.89-7.11-13.63-10.22a78.16,78.16,0,0,0-15.06-7.79,105.67,105.67,0,0,0-16.29-4.69c-5.54-1.17-11.17-2-16.78-2.94l-16.85-2.8c-11.22-1.91-22.43-4-33.58-6.4s-22.23-5.21-33.16-8.58a241.19,241.19,0,0,1-32.1-12.25,138.29,138.29,0,0,1-29.35-18.3c-8.91-7.43-16.72-16.54-21.86-27.21a73,73,0,0,1-3.35-8.2,51.15,51.15,0,0,1-2.11-8.75,167.63,167.63,0,0,1-1.15-17.32,67.08,67.08,0,0,0-2.21-16.13,63.19,63.19,0,0,0-6.67-14.76c-5.72-9.32-13.5-17.41-21.32-25.68-3.91-4.15-7.85-8.38-11.56-12.89-1.86-2.26-3.66-4.59-5.35-7a53.68,53.68,0,0,1-4.58-7.92,107,107,0,0,1-6.06-16.64c-1.59-5.61-2.87-11.26-4-16.9-2.28-11.29-4-22.6-5.75-33.84s-3.44-22.45-5.69-33.43c-1.14-5.48-2.41-10.9-4-16.13a62,62,0,0,0-6.19-14.49l0,0a4.77,4.77,0,0,1,8.07-5.08Z"/><path class="cls-31" d="M1103.25,75.34c-4.55,18.08-9.19,36.15-12.14,54.59-1.32,8.2-1.88,16.47.07,24.71a27.54,27.54,0,0,0,6.51,12.87c1.33,1.43,2.26,1.44,3.19-.41,12-23.8,24.31-47.47,30.25-73.78a147.81,147.81,0,0,0,2.9-17.87,5.49,5.49,0,0,1,.82-3.14c1.2.8.76,1.85.72,2.74-.78,17.18-4.86,33.67-10.58,49.78-7,19.9-16.33,38.84-24.87,58.09a400.87,400.87,0,0,0-15.41,39.2,1.78,1.78,0,0,1-1.19,1.48c-8.63-26.86-18.35-53.32-27.07-80.18.72,3.37,1.37,6.76,2.18,10.1q6.94,28.77,14,57.53c6.12,25.16,11.44,50.46,13.53,76.32,2,25.26.59,50.25-6.54,74.71-1,3.59-1.08,3.59-4.56,2.2a121.27,121.27,0,0,1-47.82-34.59c-1.66-2-2.14-3.39-.79-5.87,3.89-7.14,4.14-15,3.56-22.92-1.21-16.47-5.56-32.28-10-48.08-5.23-18.44-11.69-36.37-21.41-53-9.91-17-22-32-37.73-44a91.61,91.61,0,0,0-24.71-13.57c-3.61-1.28-4-.95-3.28,2.71a526.39,526.39,0,0,1,6.63,53.67c2.84,35.13,10.5,68.92,27.22,100.24,5.56,10.41,12.41,19.87,21.51,27.48,6,5.05,12.69,8.86,20.86,9a15.92,15.92,0,0,0,2.67-.19c2-.33,2.33-1.31,1.24-3-14.47-22.57-22.73-47.72-30.07-73.25-6.47-22.51-12.06-45.29-20.17-67.37,3.6,7.91,6.59,16.1,9.43,24.35,7.31,21.21,13.31,42.87,21.13,63.91,6.72,18.05,14.67,35.46,25.93,51.2a129.68,129.68,0,0,0,53,43.47c3.28,1.48,3.26,1.47,2.09,5-7.57,22.55-13.81,45.12-21.73,67.53-6.8,19.24-13.47,36.78-16.59,59.65-1.31,9.58,1.68,34.77,3.68,37.14s6.24,1.45,11.87-3.39c8.81-7.58,10.3-11.34,11.35-15.52s-1.45-28.13,1.18-42.5c4.3-23.54,17.09-49.1,23.69-72,.61-2.11,2-2.44,3.8-2.7a275.85,275.85,0,0,0,60.8-15.77c5.08-2,10.06-4.31,15.08-6.49,1.16-.5,2.21-1.06,3.5-.13,8.5,6.13,18,6.15,27.63,4.09,22.08-4.74,40.07-16.79,55.59-32.71,21.4-21.92,34.81-47.94,37.8-78.78,3.09-31.84-4.39-61.19-21.74-88-.85-1.32-1.57-3.52-3.16-3.34s-1.63,2.56-2.14,4c-7.57,21.5-15.23,43-25.43,63.39-14.67,29.4-32.56,56.58-54.92,80.71-6.67,7.19-12.84,14.82-17.22,23.73a29,29,0,0,0-3,10.86c-.19,2.74.31,3.1,2.85,2.05A179,179,0,0,0,1212,344.87c28.14-22.95,45.82-52.37,53.67-87.86.14-.61.27-1.23.44-1.84,0-.14.2-.25.6-.73a158.14,158.14,0,0,1-4.78,20.55c-12.07,39.23-36.21,68.91-70.92,90.1-21.67,13.24-45.17,21.81-69.94,27.06-8.52,1.81-17.11,3.13-25.75,4.12-3.5.4-3.68.19-2.78-3.19,4.64-17.44,8.26-35.06,9.56-53.11a221.18,221.18,0,0,0-.09-28.9,7.73,7.73,0,0,1,1.94-5.65c9.34-11.63,20.23-21.65,31.65-31.15,2.49-2.06,5-4.09,7.51-6.14.79-.64,1.57-1.23,2.65-.54,9.64,6.12,19.86,5.35,30.13,2.34,17.22-5,31.89-14.57,45.17-26.44,14.85-13.27,25.58-29.23,30.31-48.76,6.84-28.28.53-53.55-18.31-75.67-2.47-2.9-2.79-2.83-4.39.73-5.62,12.59-11.46,25-19.52,36.32-5.84,8.17-12.84,15.26-19.87,22.34-11.71,11.79-23.81,23.21-35.1,35.43-7,7.53-13.44,15.51-16.77,25.52a26.53,26.53,0,0,0-1,14.37c.41,1.85,1.2,2.21,2.79,1.19,19.43-12.59,39.55-24.18,57.13-39.47,14.26-12.4,25.67-26.87,31.82-45.08a1.08,1.08,0,0,1,.56-.6,73.56,73.56,0,0,1-4.07,11.84c-6.89,15.64-17.64,28.31-30.22,39.57-11,9.84-23,18.42-35.08,26.82-16.6,11.51-33.41,22.74-48.57,36.21-2.89,2.56-5.62,5.3-8.44,7.94-.51.47-.93,1.34-1.7,1.13s-.61-1.21-.71-1.88a331,331,0,0,0-8.69-41.24,22.23,22.23,0,0,1-.06-12.16c5.42-20.39,11.72-40.49,19.14-60.24.81-2.17,1.94-3.08,4.34-3,6.58.18,12.23-2.55,17.37-6.37,10.21-7.59,17.07-17.92,22.61-29.14,9.39-19,15.87-39.18,13.35-60.53-3.3-27.83-12.1-41.49-12.1-41.49a95.72,95.72,0,0,0-33.22-35.81c-.68-.43-1.28-1-1.93-1.45l-1.06.13c-2,11.54-3.86,23.1-6.16,34.59Z"/><path class="cls-32" d="M1162.17,726.88l31.34,35.5c5.23,5.93,13.55,7.14,18.58,2.71s4.86-12.85-.37-18.78l-31.34-35.5c-5.23-5.93-13.55-7.14-18.58-2.7S1156.94,721,1162.17,726.88Z"/><path class="cls-33" d="M1262.59,817.35s7.46-6.59-7.36-23.34a16.88,16.88,0,0,0-16.36-5.34s-11.75,3.12-21.51-8.61c-12.25-14.72-7-20-7-20"/><path class="cls-33" d="M1253.5,811.56c-10.64-6.82-6.9-18.82-6.9-18.82s5.66-10.11-10.72-25.27c-15.2-14.08-24.28-11.54-24.28-11.54"/><path class="cls-33" d="M1206.86,763.82A30,30,0,0,1,1224.71,774s8,9.68,3.49,17,2.51,13.3,4.78,16.12c0,0,6.3,6.84,14.94,8.86"/><path class="cls-33" d="M1206.37,756.35c-7.12,13.71-1.49,21.8-1.49,21.8s6.13,10.48,19.59,6.29c13.76-4.29,15.5,4.66,17.35,7.65,0,0,3.79,8.13-.75,18.29"/><path class="cls-34" d="M945.32,985s37.15,5.14,55.21-28.4-15.91-51.76-15.91-51.76-30.36-17.35-47.19,11,3,42.79,7.39,46c0,0,21,14.77,39.4-9,0,0,15.33-23.25-6.37-37.17,0,0-18.78-11.71-28.88,6.54,0,0-4.67,7.37-.82,13.77,0,0,2.68,3.65,3.2-1.19,0,0-.59-13.87,14.07-13.55,0,0,17.58,1.33,12.16,19.86,0,0-5.45,18.36-22.52,12.94,0,0-15.42-4.77-12.53-22.46,3.63-22.21,25.35-20.19,25.35-20.19s18.42-.83,24.51,21.6c0,0,6.12,23.61-19,36.93,0,0-11.54,7.56-21.6,9.66C951.81,979.59,941.29,983,945.32,985Z"/><path class="cls-35" d="M1095.78,717.49s7.55-6.58,6.42-10.53c-1.55-5.41-9.12-4-9.12-4s-7.59,2.87-7.11-7.55c.41-8.72-5.66-7.62-5.66-7.62s-3.67-.55-4.9,3.9c-2.47,8.94-9.05,5.29-9.05,5.29-6.55-3.18-10.08,1-10.08,1-5.67,7.84,4,14.79,4,14.79,5.34,4.74.28,6.84.28,6.84s-5.25,2.45-1.92,10.4,10.42.12,10.42.12c9.07-6.72,16.71,1.46,16.71,1.46s8.33,9.76,12.87,6.26c6-4.6-1.82-13.32-1.82-13.32C1091.8,720,1095.78,717.49,1095.78,717.49Zm-13.89-.3c-2.87,1.57-6.21,1-7.44-1.26s.09-5.38,3-6.95,6.21-1,7.45,1.26S1084.77,715.61,1081.89,717.19Z"/><path class="cls-32" d="M740.07,912.4l-42.62-20.63c-7.12-3.44-15.26-1.34-18.18,4.69s.48,13.73,7.6,17.17l42.62,20.63c7.12,3.45,15.26,1.35,18.18-4.69S747.19,915.85,740.07,912.4Z"/><path class="cls-33" d="M612.49,867.79s-4.33,9,15.81,18.67a16.88,16.88,0,0,0,17.16-1.4s9.62-7.42,23.16-.37c17,8.85,14.21,15.69,14.21,15.69"/><path class="cls-33" d="M623.11,869.61c12.45,2.17,13.64,14.69,13.64,14.69s-1.31,11.52,19.65,19.17c19.46,7.1,26.86,1.24,26.86,1.24"/><path class="cls-33" d="M684.58,895.6a30,30,0,0,1-20.38-2.44s-11.14-5.83-9.79-14.34c1.37-8.69-7.46-11.29-10.65-13,0,0-8.45-3.88-17.2-2.39"/><path class="cls-33" d="M687.92,902.31c1.27-15.4-7.06-20.68-7.06-20.68s-9.7-7.3-20.49,1.77c-11,9.28-16.11,1.69-19-.34,0,0-6.64-6-6.38-17.17"/><path class="cls-34" d="M755.19,550.07S727,574.75,740.45,610.38,790,632.3,790,632.3s33-11.55,22.62-42.86-34.31-25.76-39.61-24.6c0,0-24.91,6.17-19,35.67,0,0,7.51,26.81,32.25,19.55,0,0,21.15-6.5,14-26.09,0,0-2.51-8.36-9.86-9.65,0,0-4.51-.36-1.2,3.2,0,0,10.86,8.65,1,19.5,0,0-12.53,12.41-23-3.83,0,0-10.29-16.15,5-25.48,0,0,13.71-8.53,25.18,5.26,14.39,17.29-1.38,32.37-1.38,32.37s-11.45,14.45-32.37,4.35c0,0-21.84-10.86-15.45-38.54,0,0,1.86-13.67,6.86-22.65C755,558.5,759.32,548.32,755.19,550.07Z"/><path class="cls-35" d="M844.41,747.19s0,10,3.75,11.75c5.1,2.37,9-4.29,9-4.29s2.8-7.61,10.35-.41c6.32,6,9.47.71,9.47.71s2.83-2.41.27-6.26c-5.14-7.72,1.94-10.3,1.94-10.3,6.69-2.86,5.88-8.24,5.88-8.24-2.21-9.42-13.77-6.7-13.77-6.7-7.07.92-5.34-4.27-5.34-4.27s1.58-5.57-6.6-8.28-6.93,7.8-6.93,7.8c-.86,11.26-12,11.66-12,11.66s-12.83-.11-13.17,5.61c-.44,7.54,11.26,7.36,11.26,7.36C845.16,742.56,844.41,747.19,844.41,747.19Zm9.34-10.29c.69-3.2,3.31-5.35,5.83-4.8s4,3.59,3.3,6.79-3.31,5.35-5.83,4.8S853.05,740.1,853.75,736.9Z"/><path class="cls-36" d="M1007,472.12a23.78,23.78,0,0,0-46.13,11.29,23.78,23.78,0,0,0-44.73,16s4.35,23.45,62.86,44.88l.24-.07C1016.25,494.09,1007,472.12,1007,472.12Z"/><path class="cls-36" d="M1213.94,455.56A16.86,16.86,0,0,0,1188.1,434a16.86,16.86,0,0,0-27.92-18.82s-11.56,12.34.81,54.75l.14.11C1205.31,470.1,1213.94,455.56,1213.94,455.56Z"/><path class="cls-36" d="M993.38,84.18a10.41,10.41,0,0,0-17.45,11.29,10.41,10.41,0,0,0-16.2,13s5.17,9.07,32.43,9.52l.09-.06C1000.37,91.93,993.38,84.18,993.38,84.18Z"/><path class="cls-30" d="M1226,531.08s-27.36-.33-29.61,27.4c-.58,7.13,14.72,6.23,23.33,5.12.56,11.75,2.35,55.92-1.67,67.53,0,0-.35,3.06,8.2,2.89s10.32-5.41,10.32-5.41,4.61,4.56-5.65-65c8.47,1.35,24.32,2.84,24-4.47C1254,532.37,1226,531.08,1226,531.08Z"/><path class="cls-31" d="M707,621.72l-5.4,32-3.52-.6-13.46-21.82-3.14,18.61-6.64-1.12,5.39-31.93,3.52.59,13.42,22.33,3.24-19.19Z"/><path class="cls-31" d="M811.31,802.8l6.3,31.85-3.51.69L793.78,819.7l3.66,18.52-6.6,1.3-6.28-31.76,3.5-.7,20.46,16.13-3.77-19.1Z"/><path class="cls-31" d="M957.84,669.44,965,701.12l-3.49.79-20.71-15.12,4.14,18.42-6.57,1.47-7.1-31.59,3.49-.79,20.87,15.6-4.26-19Z"/><path class="cls-31" d="M1182.19,840.94l7.11,31.68-3.48.79-20.71-15.11,4.13,18.41-6.57,1.47-7.09-31.59,3.48-.79,20.87,15.6-4.26-19Z"/><path class="cls-37" d="M967.79,683.78s13.76-1.72,24-15.86"/><polygon class="cls-31" points="994.24 674.41 990.69 669.43 984.64 668.52 996.41 660.09 994.24 674.41"/><path class="cls-37" d="M1166.32,838.38s-16.67-5.14-23.89-24.48"/><polygon class="cls-31" points="1149.18 816.39 1143.11 815.65 1138.37 819.51 1140.07 805.13 1149.18 816.39"/><path class="cls-37" d="M798.2,798.66s9.31-7.9,14.66-33.62"/><polygon class="cls-31" points="817.57 770.23 812.47 766.87 806.5 768.21 814.43 756.1 817.57 770.23"/><path class="cls-37" d="M709.16,646.54s17.42,19.91,48.59,20.9"/><polygon class="cls-31" points="753.55 672.98 755.88 667.32 753.42 661.73 766.83 667.19 753.55 672.98"/><path class="cls-36" d="M1093,1004.37c.36.57.72,1.11,1.08,1.71a11.88,11.88,0,1,0,20.76-11.48s-12-21.88-36.33-40.4l0,.06a12.77,12.77,0,0,0-1.12-.74,11.88,11.88,0,0,0-12,20.53s9.39,5.12,21.14,20.86"/><path class="cls-36" d="M699.19,754.16l-1.37.48a8.4,8.4,0,0,0-4.29,2.46,8.5,8.5,0,0,0,9,13.85,103.24,103.24,0,0,0,34-18.82l0,0a8.7,8.7,0,0,0,.69-.67,8.49,8.49,0,0,0-12.38-11.63s-5.08,5.72-17.94,11.38"/><text class="cls-18" transform="translate(11.11 469.07)">t<tspan class="cls-4" x="11.08" y="0">he</tspan><tspan class="cls-38" x="55.32" y="0">y</tspan><tspan x="74.08" y="0"> </tspan><tspan class="cls-25" x="87.88" y="0">decomp</tspan><tspan class="cls-39" x="237.88" y="0">o</tspan><tspan class="cls-40" x="260.76" y="0">s</tspan><tspan class="cls-25" x="278.44" y="0">e </tspan><tspan class="cls-4" x="313.6" y="0">w</tspan><tspan x="344.84" y="0">a</tspan><tspan class="cls-41" x="369.52" y="0">s</tspan><tspan class="cls-12" x="385.16" y="0">t</tspan><tspan x="395.44" y="0">e</tspan><tspan class="cls-42" x="418.04" y="0">, </tspan><tspan class="cls-25"><tspan class="cls-4" x="62.6" y="80">r</tspan><tspan x="76.32" y="80">ec</tspan><tspan class="cls-43" x="118.08" y="80">y</tspan><tspan x="138.8" y="80">cle </tspan><tspan class="cls-7" x="204.16" y="80">nutrien</tspan><tspan class="cls-44" x="328.43" y="80">t</tspan><tspan class="cls-7" x="339.11" y="80">s</tspan><tspan class="cls-42" x="355.43" y="80">, </tspan><tspan x="5.38" y="160">d</tspan><tspan class="cls-4" x="29.98" y="160">et</tspan><tspan class="cls-38" x="64.86" y="160">o</tspan><tspan x="87.42" y="160">xif</tspan><tspan class="cls-3" x="135.18" y="160">y</tspan><tspan x="155.7" y="160"> </tspan><tspan class="cls-7" x="168.58" y="160">con</tspan><tspan class="cls-10" x="236.58" y="160">t</tspan><tspan class="cls-7" x="246.86" y="160">ami</tspan><tspan class="cls-8" x="316.53" y="160">n</tspan><tspan class="cls-7" x="338.73" y="160">an</tspan><tspan class="cls-44" x="386.21" y="160">t</tspan><tspan class="cls-7" x="396.89" y="160">s,</tspan><tspan class="cls-42" x="419.85" y="160"> </tspan><tspan class="cls-23" x="-4.1" y="240">s</tspan><tspan class="cls-4" x="13.46" y="240">t</tspan><tspan x="26.66" y="240">o</tspan><tspan class="cls-45" x="50.22" y="240">r</tspan><tspan x="63.94" y="240">e </tspan><tspan class="cls-7" x="99.1" y="240">carbon, a</tspan><tspan class="cls-8" x="273.73" y="240">n</tspan><tspan class="cls-7" x="295.93" y="240">d</tspan><tspan class="cls-42" x="320.61" y="240"> </tspan><tspan x="334.17" y="240">build </tspan></tspan><tspan class="cls-46" x="37.58" y="320">s</tspan><tspan x="53.22" y="320">tructu</tspan><tspan class="cls-47" x="154.26" y="320">r</tspan><tspan x="165.62" y="320">e t</tspan><tspan class="cls-4" x="213.1" y="320">h</tspan><tspan x="235.34" y="320">at </tspan><tspan class="cls-12" x="284.9" y="320">r</tspan><tspan class="cls-21" x="296.26" y="320">e</tspan><tspan x="318.66" y="320">si</tspan><tspan class="cls-46" x="345.02" y="320">s</tspan><tspan class="cls-23" x="360.66" y="320">t</tspan><tspan x="371.34" y="320">s </tspan><tspan x="14.76" y="400">floodi</tspan><tspan class="cls-4" x="117.76" y="400">n</tspan><tspan x="139.96" y="400">g a</tspan><tspan class="cls-45" x="203.12" y="400">n</tspan><tspan x="225.32" y="400">d d</tspan><tspan class="cls-12" x="288.47" y="400">r</tspan><tspan x="299.83" y="400">ough</tspan><tspan class="cls-48" x="394.23" y="400">t</tspan><tspan x="404.19" y="400">. </tspan></text></g></g></svg>