<svg xmlns="http://www.w3.org/2000/svg" viewBox="0 0 1319.9998 1415.4331"><defs><style>.cls-1,.cls-29{font-size:40px;}.cls-1{fill:#5d5152;}.cls-1,.cls-20,.cls-21,.cls-22,.cls-23,.cls-24,.cls-25,.cls-26,.cls-27,.cls-29,.cls-73,.cls-75,.cls-76{font-family:Acre-Light, Acre;font-weight:300;}.cls-2{letter-spacing:-0.003em;}.cls-22,.cls-3{letter-spacing:-0.015em;}.cls-20,.cls-4{letter-spacing:-0.015em;}.cls-25,.cls-5,.cls-7{letter-spacing:-0.02em;}.cls-10,.cls-11,.cls-28,.cls-6,.cls-7,.cls-8,.cls-9{font-family:Acre-Semibold, Acre;font-weight:600;}.cls-8{letter-spacing:-0.03em;}.cls-9{letter-spacing:-0.06em;}.cls-10{letter-spacing:-0.03em;}.cls-11{letter-spacing:-0.01em;}.cls-12,.cls-23{letter-spacing:-0.008em;}.cls-13{letter-spacing:-0.005em;}.cls-14{letter-spacing:0.007em;}.cls-15,.cls-24{letter-spacing:-0.013em;}.cls-16{letter-spacing:-0.005em;}.cls-17,.cls-26{letter-spacing:-0.003em;}.cls-18{letter-spacing:-0.02em;}.cls-19,.cls-27{letter-spacing:0em;}.cls-28{letter-spacing:-0.01em;}.cls-29,.cls-65{fill:#ec6a7c;}.cls-30{letter-spacing:-0.058em;}.cls-31{letter-spacing:-0.005em;}.cls-32{letter-spacing:-0.003em;}.cls-33{letter-spacing:-0.075em;}.cls-34{letter-spacing:-0.015em;}.cls-35{letter-spacing:0em;}.cls-36{letter-spacing:0em;}.cls-37{letter-spacing:-0.008em;}.cls-38{letter-spacing:-0.02em;}.cls-39{letter-spacing:-0.025em;}.cls-40{letter-spacing:-0.028em;}.cls-41{letter-spacing:-0.022em;}.cls-42{letter-spacing:-0.03em;}.cls-43{letter-spacing:-0.003em;}.cls-44{letter-spacing:-0.02em;}.cls-45{letter-spacing:0.007em;}.cls-46,.cls-68,.cls-69{font-family:Acre-Bold, Acre;font-weight:700;}.cls-47,.cls-75{letter-spacing:-0.02em;}.cls-48{letter-spacing:-0.015em;}.cls-49{letter-spacing:-0.013em;}.cls-50{letter-spacing:-0.005em;}.cls-51{letter-spacing:-0.025em;}.cls-52,.cls-76{letter-spacing:-0.015em;}.cls-53,.cls-73{letter-spacing:-0.01em;}.cls-54{letter-spacing:-0.003em;}.cls-55{letter-spacing:-0.03em;}.cls-56{letter-spacing:-0.035em;}.cls-57{letter-spacing:-0.007em;}.cls-58{letter-spacing:-0.047em;}.cls-59{fill:#5c5052;}.cls-60{fill:#3daaa1;}.cls-61{fill:#ffce01;}.cls-62,.cls-66{fill:none;stroke-linecap:round;stroke-width:2.7564px;}.cls-62{stroke:#ffce01;stroke-linejoin:round;}.cls-63{fill:#f27243;}.cls-64{fill:#336db5;}.cls-66{stroke:#3daaa1;stroke-miterlimit:10;}.cls-67{letter-spacing:-0.025em;}.cls-68,.cls-78{letter-spacing:-0.017em;}.cls-69{letter-spacing:-0.007em;}.cls-70{letter-spacing:-0.017em;}.cls-71{font-family:Acre-Regular, Acre;font-weight:400;}.cls-72{letter-spacing:-0.03em;}.cls-74{letter-spacing:-0.035em;}.cls-77{letter-spacing:-0.015em;}.cls-79{letter-spacing:-0.02em;}.cls-80{letter-spacing:-0.028em;}</style></defs><g id="Layer_2" data-name="Layer 2"><g id="Layer_7" data-name="Layer 7"><text class="cls-1" transform="translate(53.7104 33.9996)"><tspan class="cls-2">s</tspan><tspan x="16.2002" y="0">oil is </tspan><tspan class="cls-3" x="113.3193" y="0">h</tspan><tspan x="135.5586" y="0">o</tspan><tspan class="cls-4" x="159.6387" y="0">m</tspan><tspan x="193.999" y="0">e </tspan><tspan class="cls-5" x="230.3984" y="0">t</tspan><tspan x="240.6787" y="0">o </tspan><tspan class="cls-6" x="278.5586" y="0">1/4 </tspan><tspan class="cls-7" x="339.7178" y="0">o</tspan><tspan class="cls-6" x="362.5977" y="0">f the</tspan><tspan class="cls-8" x="447.1563" y="0" xml:space="preserve"> w</tspan><tspan class="cls-6" x="492.5557" y="0">orld</tspan><tspan class="cls-9" x="564.7148" y="0">’</tspan><tspan class="cls-6" x="570.7939" y="0">s biod</tspan><tspan class="cls-7" x="686.4316" y="0">i</tspan><tspan class="cls-10" x="697.3115" y="0">v</tspan><tspan class="cls-6" x="717.0723" y="0">e</tspan><tspan class="cls-11" x="739.5117" y="0">r</tspan><tspan class="cls-6" x="752.8311" y="0">sity</tspan><tspan class="cls-12" x="816.9502" y="0"> </tspan><tspan class="cls-13" x="830.4307" y="0">w</tspan><tspan x="862.0703" y="0">ith billio</tspan><tspan class="cls-14" x="1006.749" y="0">n</tspan><tspan x="1029.8281" y="0">s </tspan><tspan class="cls-15" x="1059.9473" y="0">o</tspan><tspan x="1083.5068" y="0">f </tspan><tspan x="-14.6006" y="60">mic</tspan><tspan class="cls-5" x="51.5195" y="60">r</tspan><tspan class="cls-16" x="62.8789" y="60">o</tspan><tspan class="cls-17" x="86.7598" y="60">s</tspan><tspan x="102.959" y="60">copic o</tspan><tspan class="cls-18" x="241.8389" y="60">r</tspan><tspan x="253.1992" y="60">ganis</tspan><tspan class="cls-14" x="351.7178" y="60">m</tspan><tspan x="386.957" y="60">s in a si</tspan><tspan class="cls-4" x="528.5547" y="60">n</tspan><tspan x="550.7549" y="60">gle </tspan><tspan class="cls-5" x="620.874" y="60">t</tspan><tspan x="631.1543" y="60" xml:space="preserve">easpoon.  </tspan><tspan class="cls-6" x="824.2334" y="60">95-99%</tspan><tspan x="952.4307" y="60"> </tspan><tspan class="cls-15" x="966.2305" y="60">o</tspan><tspan x="989.79" y="60">f t</tspan><tspan class="cls-4" x="1025.75" y="60">h</tspan><tspan class="cls-13" x="1047.9902" y="60">e</tspan><tspan class="cls-2" x="1070.3896" y="60">s</tspan><tspan x="1086.5898" y="60">e </tspan><tspan class="cls-6"><tspan x="-45.6797" y="120">mic</tspan><tspan class="cls-5" x="21.7197" y="120">r</tspan><tspan x="34.6396" y="120">oo</tspan><tspan class="cls-5" x="81.999" y="120">r</tspan><tspan class="cls-19" x="94.9189" y="120">ganisms </tspan><tspan class="cls-20" x="263.5967" y="120">h</tspan><tspan class="cls-21" x="285.8369" y="120">a</tspan><tspan class="cls-22" x="310.5166" y="120">v</tspan><tspan class="cls-21" x="329.9961" y="120">e</tspan><tspan class="cls-23" x="352.5957" y="120"> </tspan><tspan class="cls-22" x="366.0762" y="120">y</tspan><tspan class="cls-24" x="385.2354" y="120">e</tspan><tspan class="cls-21" x="407.3154" y="120">t </tspan><tspan class="cls-25" x="432.1963" y="120">t</tspan><tspan class="cls-21" x="442.4766" y="120">o be di</tspan><tspan class="cls-26" x="576.1553" y="120">s</tspan><tspan class="cls-21" x="592.3545" y="120">c</tspan><tspan class="cls-20" x="613.4746" y="120">ov</tspan><tspan class="cls-21" x="656.4346" y="120">e</tspan><tspan class="cls-25" x="679.0342" y="120">r</tspan><tspan class="cls-21" x="690.3936" y="120">ed, </tspan><tspan class="cls-22" x="758.1123" y="120">m</tspan><tspan class="cls-21" x="792.4717" y="120">aki</tspan><tspan class="cls-20" x="846.3115" y="120">n</tspan><tspan class="cls-21" x="868.5117" y="120">g </tspan><tspan class="cls-26" x="906.9912" y="120">s</tspan><tspan class="cls-27" x="923.1904" y="120">oils a </tspan><tspan class="cls-20" x="1034.9482" y="120">m</tspan><tspan class="cls-21" x="1069.3086" y="120">ajor </tspan></tspan><tspan x="287.8955" y="180">f</tspan><tspan class="cls-5" x="298.9756" y="180">r</tspan><tspan x="310.335" y="180">ontier in </tspan><tspan class="cls-6" x="473.5322" y="180">gen</tspan><tspan class="cls-7" x="543.5713" y="180">e</tspan><tspan class="cls-6" x="565.2109" y="180">tic di</tspan><tspan class="cls-28" x="659.0889" y="180">s</tspan><tspan class="cls-6" x="676.4492" y="180">c</tspan><tspan class="cls-8" x="696.1689" y="180">ov</tspan><tspan class="cls-6" x="738.4072" y="180">ery!</tspan></text></g><g id="Final_Frontier" data-name="Final Frontier"><text class="cls-29" transform="translate(46.8784 1286.9937)"><tspan class="cls-30">”</tspan><tspan class="cls-31" x="9.0796" y="0">e</tspan><tspan x="31.4795" y="0">s</tspan><tspan class="cls-32" x="47.7988" y="0">s</tspan><tspan x="63.9985" y="0">ential</tspan><tspan class="cls-31" x="164.2368" y="0">l</tspan><tspan class="cls-33" x="173.0771" y="0">y</tspan><tspan x="189.8369" y="0">, all li</tspan><tspan class="cls-5" x="285.915" y="0">f</tspan><tspan x="296.1948" y="0">e depe</tspan><tspan class="cls-34" x="427.1128" y="0">n</tspan><tspan x="449.3125" y="0">ds upon t</tspan><tspan class="cls-34" x="623.3091" y="0">h</tspan><tspan x="645.5488" y="0">e </tspan><tspan class="cls-17" x="681.9482" y="0">s</tspan><tspan class="cls-35" x="698.1475" y="0">oil... t</tspan><tspan class="cls-34" x="785.0254" y="0">h</tspan><tspan x="807.2651" y="0">e</tspan><tspan class="cls-5" x="829.8647" y="0">r</tspan><tspan x="841.2246" y="0">e can be </tspan><tspan class="cls-4" x="1021.1025" y="0">n</tspan><tspan x="1043.3027" y="0">o li</tspan><tspan class="cls-5" x="1100.2617" y="0">f</tspan><tspan x="1110.542" y="0">e </tspan><tspan class="cls-31" x="-17.8213" y="60">w</tspan><tspan x="13.8188" y="60">it</tspan><tspan class="cls-34" x="34.938" y="60">h</tspan><tspan class="cls-35" x="57.1777" y="60">out </tspan><tspan class="cls-32" x="128.9365" y="60">s</tspan><tspan class="cls-36" x="145.1367" y="60">oil a</tspan><tspan class="cls-4" x="226.7744" y="60">n</tspan><tspan x="248.9746" y="60">d </tspan><tspan class="cls-34" x="287.4536" y="60">n</tspan><tspan x="309.6533" y="60">o </tspan><tspan class="cls-32" x="347.5322" y="60">s</tspan><tspan x="363.7319" y="60">oil</tspan><tspan class="cls-37" x="406.8911" y="60"> </tspan><tspan class="cls-31" x="420.3706" y="60">w</tspan><tspan x="452.0103" y="60">it</tspan><tspan class="cls-34" x="473.1294" y="60">h</tspan><tspan class="cls-35" x="495.3691" y="60">out li</tspan><tspan class="cls-38" x="586.207" y="60">f</tspan><tspan x="596.4873" y="60">e; t</tspan><tspan class="cls-34" x="650.6455" y="60">he</tspan><tspan class="cls-39" x="694.8848" y="60">y</tspan><tspan x="713.6445" y="60"> </tspan><tspan class="cls-34" x="727.4438" y="60">h</tspan><tspan x="749.6836" y="60">a</tspan><tspan class="cls-4" x="774.3633" y="60">v</tspan><tspan x="793.8438" y="60">e </tspan><tspan class="cls-4" x="830.2422" y="60">ev</tspan><tspan x="871.7217" y="60">o</tspan><tspan class="cls-16" x="895.8018" y="60">l</tspan><tspan class="cls-4" x="904.6426" y="60">v</tspan><tspan x="924.123" y="60">ed </tspan><tspan class="cls-5" x="985.2021" y="60">t</tspan><tspan x="995.4824" y="60">og</tspan><tspan class="cls-15" x="1044.2422" y="60">e</tspan><tspan x="1066.3223" y="60">t</tspan><tspan class="cls-4" x="1077.4023" y="60">h</tspan><tspan x="1099.6426" y="60">e</tspan><tspan class="cls-40" x="1122.2422" y="60">r</tspan><tspan x="1133.2813" y="60">.“ </tspan><tspan class="cls-41" x="421.7705" y="120">-</tspan><tspan x="437.5708" y="120">c</tspan><tspan class="cls-34" x="458.6909" y="120">h</tspan><tspan x="480.9307" y="120">arl</tspan><tspan class="cls-31" x="526.8096" y="120">e</tspan><tspan x="549.2095" y="120">s </tspan><tspan class="cls-42" x="579.3281" y="120">k</tspan><tspan x="597.248" y="120">ellogg</tspan></text><text class="cls-1" transform="translate(216.3262 357.8755)"><tspan class="cls-43">s</tspan><tspan x="16.1996" y="0">oil </tspan><tspan x="73.1584" y="0">o</tspan><tspan class="cls-44" x="97.2378" y="0">r</tspan><tspan x="108.5979" y="0">ganis</tspan><tspan class="cls-45" x="207.1164" y="0">m</tspan><tspan x="242.3551" y="0">s</tspan><tspan class="cls-46" x="258.6744" y="0"> </tspan><tspan x="271.5542" y="0">a</tspan><tspan class="cls-47" x="296.2339" y="0">r</tspan><tspan x="307.5935" y="0">e </tspan><tspan class="cls-48" x="343.9925" y="0">n</tspan><tspan class="cls-49" x="366.1926" y="0">o</tspan><tspan x="389.7525" y="0">t on</tspan><tspan class="cls-50" x="461.511" y="0">l</tspan><tspan class="cls-51" x="470.3513" y="0">y</tspan><tspan x="489.1112" y="0" xml:space="preserve"> t</tspan><tspan class="cls-52" x="513.9904" y="0">h</tspan><tspan x="536.23" y="0">e </tspan><tspan x="115.6776" y="70">in</tspan><tspan class="cls-48" x="148.5173" y="70">h</tspan><tspan x="170.7574" y="70">abi</tspan><tspan class="cls-47" x="230.1567" y="70">t</tspan><tspan x="240.4365" y="70">an</tspan><tspan class="cls-53" x="287.9161" y="70">t</tspan><tspan x="298.5958" y="70">s </tspan><tspan class="cls-49" x="328.7148" y="70">o</tspan><tspan x="352.2747" y="70">f </tspan><tspan class="cls-54" x="377.1538" y="70">s</tspan><tspan x="393.3539" y="70">oil, </tspan><tspan class="cls-46"><tspan x="23.2999" y="140">th</tspan><tspan class="cls-55" x="60.1794" y="140">e</tspan><tspan class="cls-56" x="81.2591" y="140">y</tspan><tspan x="101.7792" y="140" xml:space="preserve"> a</tspan><tspan class="cls-52" x="139.2585" y="140">r</tspan><tspan x="152.9775" y="140">e the a</tspan><tspan class="cls-48" x="284.7756" y="140">r</tspan><tspan x="298.4951" y="140">chi</tspan><tspan class="cls-48" x="353.2547" y="140">t</tspan><tspan x="366.4546" y="140">ec</tspan><tspan class="cls-57" x="408.2143" y="140">t</tspan><tspan x="421.7343" y="140">s </tspan><tspan class="cls-52" x="452.5738" y="140">o</tspan><tspan x="475.533" y="140">f i</tspan><tspan class="cls-58" x="514.5324" y="140">t</tspan><tspan x="526.4522" y="140">.</tspan></tspan></text><path class="cls-59" d="M973.0674,681.2693c-.91,18.666,1.41,34.6551,17.6007,45.561,11.486,7.956,24.6928,13.8858,36.3682,21.8084,3.327,2.1375,8.5685,6.002,11.7858,8.4211,38.2,28.67,68.61,65.7194,103.5266,97.872,30.3124,28.27,45.1577,51.5419,44.0555,94.2268-.1988,12.0585-6.9664,23.048-8.095,34.61-1.6181,16.3039,9.8108,24.7011,19.8963,35.2391a44.6878,44.6878,0,0,1,8.2293,11.5371c-5.3928-10.8031-16.2145-17.1382-23.4226-26.5492-8.2307-10.6767-7.0815-22.33-3.1631-34.382,2.0738-6.7652,4.19-13.4171,4.2141-20.4812-.1023-16.2341-2.32-33.03-9.5379-47.6906-12.3951-25.5774-36.6582-42.6754-56.6094-62.0388-30.7112-29.1492-59.9442-60.3474-95.7477-83.1878-7.9477-4.9805-16.2266-9.2043-24.5759-13.6409-8.6828-4.64-17.9383-9.962-24.3833-17.7719-10.2915-12.1015-12.0446-28.825-11.66-43.9921.4486-7.6775,11.6345-7.4036,11.5187.4586Z"/><path class="cls-59" d="M960.7905,685.5525c10.9622,49.2391,36.2956,88.511,7.2034,137.9237-13.2231,22.674-29.6863,44.5919-33.2858,71.0792-2.208,13.2805.7389,26.2645-.08,39.8368-1.3391,21-15.4836,39.0555-31.2155,51.68-21.2028,16.7312-46.0657,27.9213-70.6055,38.7564-19.1966,8.211-38.63,15.765-56.64,26.3409-1.9279,1.2045-4.5525,2.7977-6.3618,3.9245l-4.1247,2.7936a175.8591,175.8591,0,0,0-15.7536,12.1937c-16.15,14.4119-29.8268,31.5235-41.4414,49.76-13.028,21.321-27.5782,50.1268-17.9171,75.18-5.3068-12.5117-3.7025-26.6683.0734-39.3874,9.7695-30.7016,31.4366-61.0493,54.32-83.55a169.2913,169.2913,0,0,1,27.8427-21.6181c18.4432-11.6312,38.8968-19.7892,58.7051-28.61,18.2068-8.1665,36.23-16.9365,53.1348-27.5355,21.35-13.6342,43.1733-33.5525,44.86-60.264.5615-13.131-2.5046-26.9031-.42-40.2531,3.2981-27.4375,19.83-50.4292,33.0411-73.6713a89.3905,89.3905,0,0,0,11.7213-36.4734c1.6779-19.6875-4.0855-38.56-10.0925-57.3936-4.0759-12.6916-8.3148-25.5378-11.3972-38.8074a4.3231,4.3231,0,1,1,8.4333-1.9054Z"/><path class="cls-59" d="M960.6627,687.9972c5.8285,18.4919,1.819,38.3545-6.7875,55.2216-4.7224,9.3037-11.59,19.0526-21.9757,22.6408-9.7762,3.4068-19.8679,1.0022-29.3216-1.1119-20.1909-4.8908-33.3326-6.4524-52.7239,1.7726-72.6249,28.9581-155.6841,85.9726-212.6893-1.0011-3.307-4.5575-6.4748-9.9779-12.2452-11.5342-.5543-.1437-1.1186-.2575-1.678-.3881l-.8414-.19-.8575-.1172c-6.8913-.9359-13.878-.8305-20.82-1.0763,6.9565.1111,13.953-.13,20.8785.6751l.8687.102.86.1764a17.2,17.2,0,0,1,4.2039,1.2776,17.6506,17.6506,0,0,1,6.0524,5.0533c4.334,5.4553,8.2622,11.2046,12.7187,16.552,56.3888,69.67,138.0007,11.68,201.5368-14.5445,1.9714-.8068,7.9262-3.1782,9.9678-3.7929a64.0591,64.0591,0,0,1,17.9211-2.9533c9.73-.2548,19.21,1.7428,28.2312,3.6537,12.9241,2.7812,25.8856,5.1388,35.2808-6.2231a50.2767,50.2767,0,0,0,7.0566-10.8579c7.9842-15.5561,11.7538-33.9445,6.1207-50.7278-1.6409-5.4816,6.3663-8.1005,8.2438-2.6065Z"/><path class="cls-59" d="M977.5132,797.7739c-14.2164,26.1271-47.7991,48.6886-37.7417,81.8868,6.1175,18.1986,22.3623,29.5964,35.433,43.3413,31.8848,31.9826,41.66,61.3744,35.4092,106.1938-1.7346,12.6533-3.5974,25.722.1886,38.1894-4.1513-12.3481-2.6648-25.6331-1.2894-38.3206,2.154-18.9476,1.5821-38.6288-4.7906-56.7265-6.3929-18.1163-18.98-32.9486-32.655-46.2009-13.5537-13.36-31.2693-25.4557-38.0757-44.53-4.7634-13.0084-2.5516-27.92,3.7646-39.8857,5.9479-11.7944,14.363-21.9152,22.0259-32.3731a120.8667,120.8667,0,0,0,10.1032-15.6447c2.7945-5.0113,10.2587-1.1489,7.6279,4.0707Z"/><path class="cls-59" d="M984.8427,724.6819c16.2044,5.899,30.9023,14.6443,45.21,23.9538,24.7076,16.0865,47.2646,34.8387,71.1343,51.9327a85.0092,85.0092,0,0,0,10.1726,6.3106,10.5122,10.5122,0,0,0,3.3723,1.1458c6.3274.9263,12.6215-.1652,18.97-1.4614,12.1552-2.55,24.5234-6.8425,37.2234-7.8686,15.7244-1.3712,25.7788,4.6113,32.8979,18.5929,5.95,11.4074,9.0456,23.4652,14.8686,34.6807,18.8559,35.1055,67.169,30.7007,101.3079,31.7324-35.2491.0911-83.7148,5.6971-104.2725-30.1214-6.1246-10.9334-9.8288-23.3982-15.8508-34.1335a40.37,40.37,0,0,0-7.0745-9.4718c-8.9285-8.6451-22.31-6.0819-33.3352-3.4533-12.16,2.9348-24.35,7.6717-37.1578,8.8907-4.6046.3631-9.98.3876-14.148-1.8474-7.7893-3.9158-14.5683-9.16-21.5724-14.18-20.1542-14.8846-40.0289-30.3277-61.0242-43.8447-13.8-8.8258-28.2117-17.2494-43.5926-22.7019-5.2549-1.9441-2.7563-9.9263,2.8709-8.1553Z"/><path class="cls-59" d="M1115.5979,829.0739c32.3361,33.2112,66.4251,81.1718,43.5454,128.6589-8.6715,18.7539-23.5467,33.7281-36.9521,48.8922-4.42,5.097-8.6838,10.298-11.8383,16.1522-6.6529,11.8-7.45,25.7648-5.3086,38.9613,1.9318,13.36,5.93,26.6953,5.0351,40.3456a49.0858,49.0858,0,0,1-5.368,19.5278,48.8468,48.8468,0,0,0,4.8972-19.5537c.7883-20.5176-9.113-39.9466-7.1181-60.5776,1.5781-21.8181,17.7435-36.3759,30.9667-52.0087,8.69-10.1956,16.8994-21.0079,22.378-33.2487,21.3648-45.869-12.8806-91.6968-44.3453-123.1058-2.6157-2.6524,1.2853-6.8,4.108-4.0435Z"/><path class="cls-59" d="M1140.2811,852.6266c30.0277,42.206,39.27,85.512,24.452,135.5147-3.9651,15.0579-9.2681,29.8763-11.36,45.2616-2.2906,15.1888.8181,30.8341,10.09,43.2226,20.2636,24.9324,24.07,59.2015,19.97,90.0886a161.89,161.89,0,0,1-12.6834,45.1443,161.2961,161.2961,0,0,0,11.515-45.2856c2.776-26.7959-.0686-55.42-14.7344-78.5313-2.0372-3.2205-4.5679-6.3311-6.8855-9.3674a59.6881,59.6881,0,0,1-10.2364-21.7539c-3.73-15.7816-.1415-32.0186,3.9038-47.2555,2.0258-7.6,4.232-15.1046,6.17-22.6427,13.9451-48.8658,4.6729-90.2763-24.9088-131.0672a2.8823,2.8823,0,0,1,4.7067-3.3282Z"/><path class="cls-59" d="M940.0138,878.6786c1.827,8.4274,6.3,16.2318,10.7945,23.6876,9.55,15.5228,20.5014,31.2111,24.4877,49.51,4.356,18.41-.03,37.8957-8.8654,54.2222-4.2259,8.1565-9.7368,15.4457-14.3409,23.3438-4.5893,7.7865-8.7387,15.8927-11.3944,24.5353-2.619,8.5746-3.6733,18.1326.0561,26.5621-7.9417-16.9617,1.2822-36.9616,9.16-52.32,4.1786-8.06,9.3921-15.5984,13.387-23.7193a87.384,87.384,0,0,0,8.326-25.2846c4.8245-28.3634-11.2622-51.0121-26.2956-73.4134-5.0858-7.9393-10.0329-16.1265-12.343-25.5348a3.6025,3.6025,0,1,1,7.0276-1.5891Z"/><path class="cls-59" d="M973.7408,735.2551c16.8,37.1169,3.0888,68.0161-27.7015,91.6192-26.3119,20.3257-57.011,32.8272-86.1284,47.8233a161.8372,161.8372,0,0,0-39.3268,27.6912c-34.0962,30.7087-66.4738,79.6629-110.905,94.35,31.0768-11.2918,53.0119-37.5924,74.6068-61.43,16.3049-18.28,32.276-37.3749,51.8835-52.4421a169.2531,169.2531,0,0,1,20.963-13.3338c28.3252-15.6549,58.4611-28.9566,83.4583-49.4361,11.8164-9.8228,22.7188-21.8276,27.3952-36.4854,4.7692-14.5086,1.8808-29.9956-4.7369-43.5787-3.06-7.0341,7.0813-11.8007,10.4918-4.7783Z"/><path class="cls-59" d="M954.5369,819.3633c-8.8128,22.87-71.7653,49.6617-93.3621,65.4812a21.1555,21.1555,0,0,0-4.052,3.5962,51.9167,51.9167,0,0,0-8.2128,19.7137c-4.4487,23.1513,2.0156,46.6981,2.9885,70.0392.6613,23.8869-1.7678,48.6341-12.8438,70.1638a105.1511,105.1511,0,0,1-13.4929,19.7724c-10.0266,12.0816-22.3113,22.8163-28.014,37.763a49.5245,49.5245,0,0,0-2.7556,23.254,49.8585,49.8585,0,0,1,2.12-23.4841c5.2822-15.1836,17.4067-26.48,27.0788-38.8148,17.9843-21.23,24-49.4259,23.5634-76.6893.6075-31.7088-13.4755-64.19-1.9851-95.33a56.3062,56.3062,0,0,1,5.4318-10.5665c3.06-4.0188,6.8941-6.2643,10.7793-8.9439,16.7254-10.6688,34.4473-19.8449,51.0749-30.2856,11.1379-7.2283,22.9086-14.1978,31.2659-24.5164a16.0124,16.0124,0,0,0,2.2844-4.0934c2.0134-5.259,9.9407-2.6318,8.1308,2.94Z"/><path class="cls-59" d="M957.999,688.4945c2.9223,17.65,10.5431,36.013,9.1252,54.7648-1.3,19.8143-15.2643,35.9455-30.8253,46.8657-30.76,21.3178-68.95,26.2267-104.5925,34.0967C802.46,830.4141,772.37,838.1,748.9952,857.66c-40.9387,33.153-59.9751,89.6733-121.1938,88.97-15.2217-.0539-30.326-3.0638-45.4924-3.8-11.768-.659-25.2123.3786-33.47,9.8345-8.1407,9.1834-10.672,21.8207-12.383,33.6463,1.3008-10.5018,3.4013-21.3187,9.1777-30.37,11.7895-18.3992,36.2958-14.3771,54.9473-12.8188,9.0077.8141,18.1536,1.9135,27.2054,1.7525a82.66,82.66,0,0,0,57.0946-22.962c22.2812-20.6925,37.9065-47.85,61.5328-67.3766,14.129-12.0693,31.0617-20.4135,48.6578-26.0994,34.6718-11.3629,71.4624-15.1193,105.6593-27.7041,25.1376-9.13,56.6929-28.7572,58.5794-58.0552.8873-18.0609-6.57-34.5325-9.8212-52.654-.9606-5.4707,7.2451-7.3612,8.51-1.5288Z"/><path class="cls-59" d="M819.4124,780.1029c-32.1522,14.6841-63.1992,31.7986-94.93,47.445-5.3872,2.5812-10.5545,4.9258-15.6854,7.9195-10.3666,5.7711-20.5219,12.2871-32.1029,15.6526-15.3654,4.7046-21.3284-3.3645-34.3623-7.3928-17.4292-3.4973-34.9329,1.4677-52.1854,4.3526-11.6309,2.044-23.5534,2.9576-35.3047,1.4491,11.7563,1.2176,23.6017.021,35.1493-2.3,17.2333-3.33,35.1258-8.8133,52.8737-5.5981,5.9941,1.4651,11.1408,4.682,16.5243,6.6,5.4362,2.1924,10.9815,1.7363,16.4571-.0183a84.8429,84.8429,0,0,0,15.8057-7.1254c7.709-4.2732,15.14-9.2355,22.9882-13.4083,13.2886-6.518,26.1728-13.4454,39.2628-20.391,20.9369-11.06,41.6667-22.3077,63.1289-32.4339a2.882,2.882,0,1,1,2.38,5.25Z"/><path class="cls-59" d="M787.4678,836.6523c-24.3692,14.82-38.4028,46.732-48.6372,72.4513-3.4091,8.5106-5.73,17.6993-11.5948,25.0343-5.6376,7.5632-14.8236,11.6611-22.8791,15.4982a63.2507,63.2507,0,0,0-14.7933,9.6551c-24.3942,22.0233-23.4779,53.078-26.9857,83.1265-1.5008,11.9615-4.1607,23.9778-9.7634,34.7319,5.3662-10.8574,7.7579-22.8562,9.0043-34.821,2.9022-30.824,1.3984-61.84,25.9414-85.0113a66.1161,66.1161,0,0,1,15.21-10.4043c5.4019-2.8141,10.8755-5.2634,15.4014-8.85a35.8039,35.8039,0,0,0,10.3639-13.5891c2.4025-5.3572,4.0768-11.2878,6.2-16.8349,8.5127-22.7736,18.4125-45.7839,35.0871-63.9708a70.3383,70.3383,0,0,1,14.5149-11.9793,2.8824,2.8824,0,1,1,2.93,4.9634Z"/><path class="cls-59" d="M965.1326,684.265c5.6991,9.682,7.8345,20.1288,10.021,30.7475,3.8758,20.3735,5.7795,40.938,9.592,61.186,2.4636,12.0859,4.9362,24.7094,11.7106,35.1077a156.4159,156.4159,0,0,0,14.3834,17.568c10.4192,11.338,21.8555,23.9744,26.0072,39.5424,3.5809,12.7341.2659,25.9,4.1964,38.2955,13.7724,41.506,66.1153,57.2917,104.5637,66.8185,14.5188,3.5346,30.6967,6.4387,45.4577,9.1868,15.2109,2.6,30.9146,5.8222,43.7205,14.9538,7.8048,5.35,16.7768,13.5,24.0474,19.5126l-12.0134-9.76c-7.94-6.5054-16.3388-12.6964-26.0176-16.3119-13.8471-5.3305-30.6607-6.7614-45.2645-9.4748-53.649-9.3152-144.5138-27.2742-142.0761-97.047.1107-21.855-12.9577-36.3248-27.3863-51.3078-7.1171-7.6938-14.8941-15.618-19.4836-25.2326-8.6543-19.2933-10.9212-40.5586-14.3588-61.1114-1.5806-10.1931-3.1179-20.3589-5.1631-30.3114-2.0591-9.4547-4.3159-19.65-9.26-27.7661-2.9386-4.74,3.9822-9.585,7.3232-4.5957Z"/><path class="cls-60" d="M1009.614,279.4786c-4.1306,16.3984-8.34,32.7851-11.0147,49.5069-1.19,7.4434-1.7,14.9449.064,22.4127a25.0781,25.0781,0,0,0,5.9035,11.6692c1.2138,1.3024,2.0541,1.3063,2.9-.3729,10.88-21.5812,22.0433-43.0425,27.43-66.905a133.5745,133.5745,0,0,0,2.63-16.2024,4.9508,4.9508,0,0,1,.7446-2.8524c1.082.7224.6895,1.6739.6528,2.4834-.7053,15.5856-4.4114,30.5341-9.5947,45.1488-6.3994,18.04-14.8066,35.2165-22.5576,52.6748a364.36,364.36,0,0,0-13.9767,35.549,1.6193,1.6193,0,0,1-1.0792,1.3471c-7.8273-24.3577-16.6388-48.3564-24.5431-72.7122.6517,3.0544,1.2358,6.1247,1.9711,9.158q6.3075,26.0959,12.6779,52.1743c5.553,22.8123,10.3793,45.763,12.2776,69.2148,1.8514,22.9074.5306,45.5675-5.9325,67.7515-.9481,3.2548-.9837,3.2571-4.141,1.9894a109.9033,109.9033,0,0,1-43.3613-31.3626c-1.5118-1.78-1.9434-3.0775-.7185-5.33,3.5257-6.4762,3.7569-13.6221,3.2313-20.7822-1.0964-14.9342-5.0488-29.2767-9.1157-43.6018-4.7468-16.7268-10.6038-32.9818-19.4136-48.0542-8.9954-15.3893-19.9661-29.0583-34.2177-39.874a83.1067,83.1067,0,0,0-22.41-12.3076c-3.2793-1.167-3.59-.8606-2.9744,2.458a477.8561,477.8561,0,0,1,6.0075,48.6668c2.5817,31.8573,9.5283,62.5088,24.6905,90.9058,5.0387,9.4382,11.25,18.0227,19.5069,24.9262,5.4792,4.58,11.5028,8.0349,18.9131,8.1363a13.8264,13.8264,0,0,0,2.4238-.172c1.78-.2924,2.1134-1.1841,1.1245-2.7265C914.59,491.9247,907.0965,469.12,900.4456,445.97c-5.866-20.4185-10.9423-41.075-18.297-61.098,3.2715,7.1684,5.9805,14.5983,8.5578,22.079,6.6276,19.24,12.0643,38.8777,19.1611,57.9622,6.089,16.37,13.3,32.1609,23.5118,46.4334a117.6248,117.6248,0,0,0,48.03,39.4178c2.9766,1.3447,2.96,1.3338,1.8928,4.5122-6.8643,20.4518-12.5184,40.9132-19.7065,61.2422-6.1666,17.4442-12.21,33.3506-15.0475,54.09-1.1881,8.6921,1.5259,31.5361,3.3405,33.68s5.6629,1.3141,10.7633-3.07c7.9964-6.8713,9.3425-10.2816,10.295-14.0754.9543-3.7924-1.312-25.5106,1.07-38.5381,3.9024-21.3552,15.4981-44.5327,21.4887-65.3265.5527-1.9145,1.836-2.21,3.4437-2.4492a249.8154,249.8154,0,0,0,55.1347-14.3045c4.6129-1.8189,9.1241-3.9018,13.6761-5.8789,1.0528-.4565,2.005-.9633,3.1773-.1181,7.7106,5.5546,16.3378,5.5705,25.0558,3.7019,20.0252-4.2921,36.3353-15.2247,50.4167-29.658,19.4011-19.8826,31.5611-43.4784,34.2776-71.4472,2.8047-28.8709-3.98-55.4938-19.7161-79.82-.7757-1.1957-1.4212-3.19-2.8667-3.0331-1.5356.1683-1.4756,2.32-1.9419,3.6426-6.8662,19.4966-13.8089,38.9619-23.0592,57.4852-13.308,26.6576-29.5305,51.3087-49.81,73.1929-6.0427,6.5225-11.6385,13.4413-15.61,21.5152a26.3584,26.3584,0,0,0-2.7467,9.8544c-.1726,2.4862.2893,2.8078,2.5845,1.8581a162.0464,162.0464,0,0,0,40.7134-23.91c25.5157-20.8093,41.555-47.4914,48.6737-79.6724.1246-.5583.2464-1.1172.3972-1.669.0342-.128.18-.228.5408-.6645a141.8591,141.8591,0,0,1-4.3332,18.6388c-10.9443,35.5785-32.8379,62.4873-64.3169,81.7119-19.6522,12-40.957,19.7717-63.42,24.5387-7.7333,1.64-15.5159,2.84-23.3576,3.7309-3.1727.3618-3.3373.1729-2.5218-2.8884,4.2064-15.8157,7.49-31.7969,8.6682-48.1695a200.3545,200.3545,0,0,0-.0737-26.2086,7.0054,7.0054,0,0,1,1.7513-5.1212c8.4716-10.5463,18.3546-19.635,28.7081-28.2446,2.2536-1.8758,4.5387-3.7141,6.8128-5.5677.7122-.58,1.4231-1.1187,2.4042-.4958,8.7355,5.5478,18.0035,4.8522,27.3209,2.1274,15.6177-4.5688,28.918-13.221,40.9624-23.9828,13.4676-12.0327,23.2024-26.5054,27.4862-44.22,6.2042-25.6484.4828-48.5638-16.6035-68.6249-2.2381-2.63-2.534-2.5584-3.9764.6694-5.1016,11.4131-10.3994,22.7078-17.7065,32.9352-5.2961,7.4076-11.64,13.8333-18.0171,20.2544-10.6235,10.6989-21.5924,21.0569-31.8333,32.1309-6.3237,6.8372-12.1865,14.0668-15.2051,23.1454a24.0245,24.0245,0,0,0-.9226,13.0329c.3746,1.682,1.094,2.0089,2.5318,1.0768,17.619-11.417,35.8681-21.9255,51.8071-35.7892,12.9345-11.2493,23.2877-24.3713,28.8643-40.8871a.97.97,0,0,1,.5057-.5439,66.2485,66.2485,0,0,1-3.6939,10.7392c-6.249,14.1854-15.9937,25.6775-27.4049,35.8855-9.9815,8.9288-20.84,16.7033-31.8162,24.319-15.0537,10.4454-30.2992,20.6289-44.0442,32.8411-2.6168,2.325-5.0951,4.8089-7.6555,7.1982-.4575.426-.8416,1.2192-1.5372,1.0264-.7546-.21-.5549-1.0951-.6424-1.7046a299.3557,299.3557,0,0,0-7.8846-37.3952,20.1421,20.1421,0,0,1-.0509-11.0345c4.9151-18.4909,10.6225-36.7172,17.35-54.6229.7427-1.9717,1.7642-2.7921,3.9436-2.7336,5.9631.1605,11.0868-2.3147,15.7464-5.7769,9.2622-6.8855,15.4835-16.2464,20.506-26.4275,8.515-17.263,14.3962-35.5275,12.103-54.8875-2.9884-25.2441-10.9706-37.6313-10.9706-37.6313a86.6779,86.6779,0,0,0-30.1246-32.47c-.6128-.3923-1.1655-.8775-1.7467-1.3194q-.4842.0562-.9691.1139c-1.7815,10.4723-3.4977,20.9548-5.5858,31.3728C1018.9048,242.6454,1011.9707,270.1308,1009.614,279.4786Z"/><path class="cls-61" d="M1063.049,870.3555l28.4144,32.1933c4.7465,5.3781,12.2921,6.475,16.8524,2.45s4.4091-11.6475-.3374-17.0256L1079.5641,855.78c-4.7474-5.3787-12.2921-6.4755-16.8523-2.45S1058.3025,864.9764,1063.049,870.3555Z"/><path class="cls-62" d="M1154.1171,952.3935s6.7632-5.97-6.6789-21.1625a15.3148,15.3148,0,0,0-14.8389-4.8445s-10.648,2.8342-19.5006-7.8068c-11.1085-13.3531-6.3888-18.106-6.3888-18.106"/><path class="cls-62" d="M1145.8755,947.1462c-9.6545-6.1817-6.2587-17.0654-6.2587-17.0654s5.1268-9.1748-9.7216-22.9218C1116.11,894.3969,1107.87,896.7,1107.87,896.7"/><path class="cls-62" d="M1103.5709,903.8553a27.2134,27.2134,0,0,1,16.1922,9.1891s7.2687,8.7848,3.1629,15.4247c-4.1983,6.7892,2.2742,12.0639,4.3351,14.6266,0,0,5.712,6.2037,13.5526,8.0325"/><path class="cls-62" d="M1103.1308,897.0747c-6.4561,12.4349-1.3486,19.7725-1.3486,19.7725s5.558,9.5038,17.764,5.701c12.48-3.8867,14.0593,4.2329,15.7307,6.9366,0,0,3.4423,7.3747-.6779,16.5946"/><path class="cls-63" d="M866.3921,1104.416s33.6888,4.6649,50.0635-25.7577c16.3967-30.461-14.4222-46.9354-14.4222-46.9354s-27.5371-15.74-42.8006,9.9809,2.7536,38.8108,6.7043,41.755c0,0,19.0339,13.3935,35.7325-8.1763,0,0,13.8954-21.0857-5.78-33.7125,0,0-17.0316-10.6235-26.19,5.9311,0,0-4.2318,6.6848-.7438,12.4842,0,0,2.4344,3.3091,2.9019-1.0755,0,0-.532-12.5761,12.7566-12.2866,0,0,15.9443,1.2,11.035,18.0079,0,0-4.9506,16.652-20.423,11.7354,0,0-13.9851-4.3223-11.3649-20.3721,3.2874-20.1361,22.99-18.3054,22.99-18.3054s16.7017-.75,22.2258,19.5857c0,0,5.548,21.4144-17.2119,33.4947,0,0-10.4628,6.8512-19.5916,8.7623C872.2731,1099.5317,862.7379,1102.6262,866.3921,1104.416Z"/><path class="cls-64" d="M1002.8411,861.8388s6.8465-5.9743,5.8207-9.552c-1.4113-4.9079-8.2741-3.6013-8.2741-3.6013s-6.88,2.6073-6.4418-6.8436c.3658-7.9117-5.137-6.9094-5.137-6.9094s-3.3292-.5062-4.4439,3.5344c-2.2362,8.1065-8.209,4.7956-8.209,4.7956-5.9394-2.8837-9.1417.87-9.1417.87-5.1391,7.1145,3.5932,13.4127,3.5932,13.4127,4.8407,4.2968.2512,6.2.2512,6.2s-4.7546,2.2267-1.7413,9.4371,9.4573.1113,9.4573.1113c8.2243-6.1,15.1474,1.3194,15.1474,1.3194s7.5536,8.85,11.6748,5.6809c5.43-4.1754-1.6518-12.0853-1.6518-12.0853C999.2274,864.0794,1002.8411,861.8388,1002.8411,861.8388Zm-12.5947-.2784c-2.609,1.4237-5.6319.9131-6.7553-1.1421s.0817-4.8744,2.69-6.2991,5.631-.9136,6.7535,1.1406S992.8545,860.1352,990.2464,861.56Z"/><path class="cls-61" d="M680.2521,1038.5955l-38.65-18.7068c-6.4561-3.1255-13.8385-1.22-16.4892,4.2545s.4368,12.448,6.8928,15.5716l38.65,18.7074c6.4589,3.1245,13.84,1.22,16.49-4.2536C689.795,1048.6925,686.709,1041.7206,680.2521,1038.5955Z"/><path class="cls-62" d="M564.5511,998.1383s-3.93,8.1208,14.34,16.9358a15.3131,15.3131,0,0,0,15.5579-1.2685s8.7245-6.7307,21.0032-.3382c15.4068,8.0215,12.8913,14.2289,12.8913,14.2289"/><path class="cls-62" d="M574.1808,999.7923c11.2936,1.9688,12.3684,13.3188,12.3684,13.3188s-1.1806,10.4438,17.8271,17.3825c17.6477,6.4411,24.3553,1.1317,24.3553,1.1317"/><path class="cls-62" d="M629.9324,1023.3638a27.2141,27.2141,0,0,1-18.4867-2.2151s-10.1-5.2916-8.88-13.0032c1.247-7.8829-6.761-10.2463-9.652-11.813,0,0-7.6662-3.5135-15.6045-2.1694"/><path class="cls-62" d="M632.959,1029.4473c1.1472-13.9639-6.4-18.7568-6.4-18.7568s-8.8-6.6157-18.5869,1.6095c-10.0067,8.409-14.6035,1.5313-17.1894-.3162,0,0-6.0257-5.471-5.79-15.567"/><path class="cls-63" d="M693.9624,710.0047s-25.607,22.3863-13.3674,54.696c12.2545,32.3511,44.8986,19.8761,44.8986,19.8761s29.9373-10.4767,20.52-38.8637c-9.4185-28.3913-31.1138-23.3643-35.9267-22.3117,0,0-22.5925,5.595-17.2494,32.3461,0,0,6.8132,24.3157,29.2469,17.7352,0,0,19.1874-5.8974,12.69-23.6665,0,0-2.274-7.5773-8.9391-8.7453,0,0-4.0962-.33-1.0918,2.8965,0,0,9.8459,7.8427.9174,17.6884,0,0-11.36,11.2533-20.8336-3.4728,0,0-9.33-14.6535,4.5258-23.1147,0,0,12.4318-7.73,22.8355,4.7723,13.05,15.6826-1.2484,29.36-1.2484,29.36s-10.3824,13.1038-29.3592,3.9451c0,0-19.8091-9.85-14.0114-34.9541,0,0,1.6847-12.3945,6.2261-20.5442C693.7956,717.6474,697.7093,708.4187,693.9624,710.0047Z"/><path class="cls-64" d="M774.8754,888.7656s.0232,9.0893,3.3971,10.6588c4.6318,2.1527,8.144-3.8881,8.144-3.8881s2.54-6.9056,9.3917-.3771c5.7339,5.463,8.5852.6487,8.5852.6487s2.5637-2.1826.2438-5.6735c-4.6561-7.0025,1.7608-9.3436,1.7608-9.3436,6.0695-2.5944,5.3334-7.4737,5.3334-7.4737-2.0026-8.5449-12.4841-6.08-12.4841-6.08-6.4161.84-4.8457-3.8728-4.8457-3.8728s1.4348-5.0511-5.9844-7.5016c-7.4211-2.45-6.2843,7.0686-6.2843,7.0686-.7854,10.2095-10.9274,10.5744-10.9274,10.5744s-11.6336-.0967-11.9421,5.0913c-.4056,6.8376,10.2091,6.6749,10.2091,6.6749C775.5535,884.5676,774.8754,888.7656,774.8754,888.7656Zm8.4675-9.3288c.6338-2.9029,3.0016-4.8522,5.29-4.3531,2.2867.5,3.6266,3.2575,2.9929,6.1608s-3.0007,4.8523-5.2882,4.3523S782.7091,882.3411,783.3429,879.4368Z"/><path class="cls-65" d="M922.2981,639.3118a21.5634,21.5634,0,0,0-41.8342,10.2415A21.5644,21.5644,0,0,0,839.9018,664.04s3.9448,21.2639,57.0054,40.6978l.2153-.0649C930.7163,659.2344,922.2981,639.3118,922.2981,639.3118Z"/><path class="cls-65" d="M1110,624.2972a15.2881,15.2881,0,0,0-23.4364-19.5743,15.2885,15.2885,0,0,0-25.3238-17.0637s-10.4784,11.192.7364,49.6518l.1273.0961C1102.1661,637.4783,1110,624.2972,1110,624.2972Z"/><path class="cls-65" d="M909.97,287.5031a9.4357,9.4357,0,0,0-15.8223,10.239,9.4358,9.4358,0,0,0-14.6866,11.8109s4.6831,8.2232,29.4056,8.6393l.0793-.0576C916.31,294.53,909.97,287.5031,909.97,287.5031Z"/><path class="cls-59" d="M1120.9566,692.7815s-24.8063-.2921-26.8543,24.8483c-.522,6.4675,13.3531,5.6514,21.1652,4.6439.507,10.6548,2.13,50.7147-1.5184,61.2465,0,0-.3175,2.775,7.44,2.6171,7.7572-.1625,9.36-4.9019,9.36-4.9019s4.1793,4.1324-5.1316-58.92c7.6828,1.2174,22.056,2.57,21.8006-4.06C1146.2783,693.9538,1120.9566,692.7815,1120.9566,692.7815Z"/><path class="cls-60" d="M650.2794,774.9823l-4.8949,29.0364-3.1963-.5384L629.984,783.69l-2.8449,16.8752-6.02-1.0151,4.8824-28.9575,3.1954.5384,12.17,20.2486,2.9349-17.4063Z"/><path class="cls-60" d="M744.8568,939.1973l5.712,28.8864-3.1787.63L728.9648,954.532l3.3188,16.7878-5.9887,1.1844-5.6966-28.808,3.18-.6282,18.5547,14.6213-3.4241-17.3169Z"/><path class="cls-60" d="M877.7432,818.2614l6.4493,28.7305-3.1628.71-18.781-13.7039,3.7476,16.6968-5.9564,1.337L853.6067,823.38l3.1627-.71,18.9229,14.1417-3.866-17.2243Z"/><path class="cls-60" d="M1081.2036,973.7925l6.4492,28.7307-3.1627.7112-18.781-13.7048,3.7476,16.6968-5.9573,1.337-6.4334-28.6522,3.1638-.71,18.9228,14.1421-3.866-17.2232Z"/><path class="cls-66" d="M886.77,831.2639s12.478-1.5636,21.7793-14.3845"/><polygon class="cls-60" points="910.749 822.765 907.532 818.248 902.048 817.428 912.724 809.783 910.749 822.765"/><path class="cls-66" d="M1066.808,971.4677a37.097,37.097,0,0,1-21.6607-22.2027"/><polygon class="cls-60" points="1051.268 951.523 1045.763 950.858 1041.463 954.359 1043.004 941.319 1051.268 951.523"/><path class="cls-66" d="M732.9734,935.4481s8.4394-7.1659,13.2893-30.4942"/><polygon class="cls-60" points="750.538 909.665 745.907 906.616 740.497 907.833 747.689 896.847 750.538 909.665"/><path class="cls-66" d="M652.2189,797.4915S668.0194,815.55,696.29,816.446"/><polygon class="cls-60" points="692.481 821.47 694.587 816.341 692.358 811.264 704.517 816.221 692.481 821.47"/><path class="cls-65" d="M1000.2877,1121.9977c.3311.5234.656,1.0139.986,1.5556a10.7695,10.7695,0,1,0,18.8186-10.4151,130.8461,130.8461,0,0,0-32.94-36.6362l-.0372.0582a11.2961,11.2961,0,0,0-1.0151-.6715,10.77,10.77,0,0,0-10.8384,18.6151s8.5166,4.6468,19.173,18.9193"/><path class="cls-65" d="M643.182,895.088c-.4182.1464-.812.294-1.2427.4365a7.7026,7.7026,0,1,0,4.2305,14.79,93.5673,93.5673,0,0,0,30.8309-17.0607l-.0343-.035a8.0566,8.0566,0,0,0,.6311-.6,7.7031,7.7031,0,0,0-11.2287-10.5482S661.76,887.2587,650.1,892.3888"/><text class="cls-1" transform="translate(22.0537 634.2239)">t<tspan class="cls-52" x="11.08" y="0">he</tspan><tspan class="cls-67" x="55.3208" y="0">y</tspan><tspan x="74.0807" y="0"> </tspan><tspan class="cls-46" x="87.8804" y="0">decomp</tspan><tspan class="cls-68" x="237.8797" y="0">o</tspan><tspan class="cls-69" x="260.7591" y="0">s</tspan><tspan class="cls-46" x="278.4398" y="0">e </tspan><tspan class="cls-52" x="313.5988" y="0">w</tspan><tspan x="344.8386" y="0">a</tspan><tspan class="cls-70" x="369.5179" y="0">s</tspan><tspan class="cls-47" x="385.1583" y="0">t</tspan><tspan x="395.4386" y="0">e</tspan><tspan class="cls-71" x="418.0385" y="0">, </tspan><tspan class="cls-46"><tspan class="cls-52" x="62.5999" y="80">r</tspan><tspan x="76.3194" y="80">ec</tspan><tspan class="cls-72" x="118.0791" y="80">y</tspan><tspan x="138.7991" y="80">cle </tspan><tspan class="cls-21" x="204.1577" y="80">nutrien</tspan><tspan class="cls-73" x="328.4347" y="80">t</tspan><tspan class="cls-21" x="339.1149" y="80">s</tspan><tspan class="cls-71" x="355.4347" y="80">, </tspan><tspan x="5.3797" y="160">d</tspan><tspan class="cls-52" x="29.9797" y="160">et</tspan><tspan class="cls-67" x="64.8591" y="160">o</tspan><tspan x="87.4189" y="160">xif</tspan><tspan class="cls-74" x="135.1771" y="160">y</tspan><tspan x="155.6967" y="160"> </tspan><tspan class="cls-21" x="168.5764" y="160">con</tspan><tspan class="cls-75" x="236.5756" y="160">t</tspan><tspan class="cls-21" x="246.8559" y="160">ami</tspan><tspan class="cls-76" x="316.5345" y="160">n</tspan><tspan class="cls-21" x="338.7336" y="160">an</tspan><tspan class="cls-73" x="386.2122" y="160">t</tspan><tspan class="cls-21" x="396.8923" y="160">s,</tspan><tspan class="cls-71" x="419.852" y="160"> </tspan><tspan class="cls-53" x="-4.099" y="240">s</tspan><tspan class="cls-52" x="13.4604" y="240">t</tspan><tspan x="26.6598" y="240">o</tspan><tspan class="cls-77" x="50.2197" y="240">r</tspan><tspan x="63.9402" y="240">e </tspan><tspan class="cls-21" x="99.0992" y="240">carbon, a</tspan><tspan class="cls-76" x="273.7347" y="240">n</tspan><tspan class="cls-21" x="295.9338" y="240">d</tspan><tspan class="cls-71" x="320.613" y="240"> </tspan><tspan x="334.1722" y="240">build </tspan></tspan><tspan class="cls-78" x="37.5805" y="320">s</tspan><tspan x="53.2199" y="320">tructu</tspan><tspan class="cls-79" x="154.2577" y="320">r</tspan><tspan x="165.6182" y="320">e t</tspan><tspan class="cls-52" x="213.0978" y="320">h</tspan><tspan x="235.3379" y="320">at </tspan><tspan class="cls-47" x="284.8968" y="320">r</tspan><tspan class="cls-50" x="296.2564" y="320">e</tspan><tspan x="318.6569" y="320">si</tspan><tspan class="cls-78" x="345.0166" y="320">s</tspan><tspan class="cls-53" x="360.656" y="320">t</tspan><tspan x="371.3362" y="320">s </tspan><tspan x="14.7606" y="400">floodi</tspan><tspan class="cls-52" x="117.7594" y="400">n</tspan><tspan x="139.9585" y="400">g a</tspan><tspan class="cls-77" x="203.1166" y="400">n</tspan><tspan x="225.3167" y="400">d d</tspan><tspan class="cls-47" x="288.4748" y="400">r</tspan><tspan x="299.8344" y="400">ough</tspan><tspan class="cls-80" x="394.2333" y="400">t</tspan><tspan x="404.193" y="400">. </tspan></text></g></g></svg>