<svg xmlns="http://www.w3.org/2000/svg" viewBox="0 0 1188.12 881.11"><defs><style>.cls-1,.cls-3{fill:#5c5052;}.cls-2{fill:#3da9a0;}.cls-3{font-size:30px;}.cls-28,.cls-3{font-family:Acre-Light, Acre;font-weight:300;}.cls-4{letter-spacing:-0.02em;}.cls-5{letter-spacing:-0.02em;}.cls-6{letter-spacing:0em;}.cls-7{letter-spacing:-0.02em;}.cls-25,.cls-8{letter-spacing:-0.01em;}.cls-9{letter-spacing:-0.01em;}.cls-10{letter-spacing:-0.02em;}.cls-11{letter-spacing:-0.01em;}.cls-12{letter-spacing:-0.03em;}.cls-13{letter-spacing:-0.02em;}.cls-14{letter-spacing:-0.02em;}.cls-15{letter-spacing:-0.02em;}.cls-16{letter-spacing:-0.01em;}.cls-17{letter-spacing:-0.03em;}.cls-18{letter-spacing:-0.01em;}.cls-19{letter-spacing:-0.02em;}.cls-20{letter-spacing:0em;}.cls-21{letter-spacing:-0.01em;}.cls-22,.cls-26{letter-spacing:0em;}.cls-23{letter-spacing:0.01em;}.cls-24,.cls-25,.cls-26{font-family:Acre-Bold, Acre;font-weight:700;}.cls-27,.cls-28,.cls-31{fill:#ffcd01;}.cls-28{font-size:40px;}.cls-29{letter-spacing:-0.01em;}.cls-30{fill:#eb6a7c;}.cls-30,.cls-31,.cls-33,.cls-34{stroke:#f0f0f1;stroke-width:0.2px;}.cls-30,.cls-31,.cls-33,.cls-34,.cls-36{stroke-miterlimit:10;}.cls-32,.cls-36{fill:none;}.cls-32{stroke:#ffcd01;stroke-linecap:round;stroke-linejoin:round;stroke-width:0.52px;}.cls-33{fill:#f17243;}.cls-34{fill:#336db4;}.cls-35{fill:#fff;}.cls-36{stroke:#5c5052;stroke-width:0.9px;}</style></defs><g id="Layer_2" data-name="Layer 2"><g id="Layer_1-2" data-name="Layer 1"><path class="cls-1" d="M1095.67,630.91c-12.08,2.38-24.2,2.76-36.31,2.42l-1.77-.28c-12-2.16-22.88-9.74-35.39-10.66-11.75-.87-25,.67-36.86,1.8-24,2.3-46.37,8-71.13,2.95-22.74-4.63-42.38-6.5-67.46-7.71-10.22-.49-26.37,2.24-41.16,2.9a102.12,102.12,0,0,0-15.33-3.81c-12.59-1.11-24.26-5.49-37-5.36-17,.17-35.53,4.49-52.55,6.93-39.34,5.67-77.15,30.28-117.93,22.1-8.68-1.75-16.64-7.29-25.15-9.05-10.07-2.1-21.64.37-31.67.82-9.75.44-24.25-3.32-34.46-.5-16.53-4-29.19-.22-45.75,4.34-6.31.41-12,.82-16.37.82-26.94,0-47.83-12-73.65-13.28-12.94-.67-26.08-.4-38.36-1.44a53.84,53.84,0,0,0-5.61-.18,138.41,138.41,0,0,0-25.31-2.81c-29.14-.41-56.61,10.3-84.46,13-24.82,2.37-49,.26-73.31,3.29-13.93,1.73-26.48,5.07-39.44,7.84V770.11c20-7.45,42.16-5.12,64.14-6,27.15-1.13,53.33-8.17,80.31-10,26.55-1.8,53.59,4.17,80.83,5.58,30.52,1.57,62,5.93,92.85,5.9,26,0,49.84-5.89,74.83-9.18a540.39,540.39,0,0,1,92.82-4.14c43.56,2.13,88.76,7.63,131.68,7.42,28.49-.14,57.32-4.66,85.88-7.31,34.08-3.16,68.21-7.67,102.77-9.26s67.55-10.34,103.28-10c25.92.24,50.34,7.63,77,8.86,6.79.31,13.65.6,20.53.74V630.81Z"/><path class="cls-2" d="M587.16,565.77c-1-1.92-3.27-.86-4.92-.86-18.57,0-37.15-.15-55.86-1.79a9.83,9.83,0,0,1-19.48,1.62,4.86,4.86,0,0,1-7.81-3.69,5.1,5.1,0,0,1,.16-1.47,358.5,358.5,0,0,1-95.17-30c-10.23-4.9-20.62-9-31.34-10.52a25.91,25.91,0,0,0-11.91.92c-2.72.91-2.8,1.66-.52,4.21,14.55,16.33,30.33,30.63,47.78,42.11,36.09,23.74,73.11,32.46,111,27,.66-.1,1.32-.19,2-.25.16,0,.34.13,1,.4a136.65,136.65,0,0,1-22,2.86c-43.57,2-84.08-14.26-121.8-46.48-23.55-20.12-43.56-44.32-61.05-71.39-.31-.47-.6-1-.9-1.43L308,482.62a374.44,374.44,0,0,0,25.14,32.66c4.47,5.17,9.17,10.1,13.78,15.13,1.07,1.16,2.13,2.17,1.89,4.08-1.58,12.57,3.19,23.81,10,34.31C374.44,592.92,395,609.18,418,620.93c31.72,16.19,63.34,21.26,94.33,12a115.55,115.55,0,0,0,34.73-16.88,7.87,7.87,0,0,1-1.05-3.58,7.79,7.79,0,0,1,1.65-5.13,6,6,0,0,1,7.1-9.64,9.66,9.66,0,0,1,16.52-5,148.16,148.16,0,0,0,14.24-21.9C586.38,569.33,588.12,567.58,587.16,565.77Z"/><text class="cls-3" transform="translate(8.12 313.35)">on t<tspan class="cls-4" x="53.82" y="0">h</tspan><tspan x="70.5" y="0">e p</tspan><tspan class="cls-5" x="116.28" y="0">r</tspan><tspan class="cls-4" x="124.8" y="0">o</tspan><tspan class="cls-6" x="142.41" y="0">w</tspan><tspan x="166.14" y="0">l </tspan><tspan class="cls-7" x="183.27" y="0">f</tspan><tspan x="190.98" y="0">or bac</tspan><tspan class="cls-7" x="281.37" y="0">t</tspan><tspan x="289.08" y="0">eria, fu</tspan><tspan class="cls-8" x="381.92" y="0">n</tspan><tspan x="398.57" y="0">gi, a</tspan><tspan class="cls-4" x="458.45" y="0">n</tspan><tspan x="475.1" y="0">d </tspan><tspan class="cls-9" x="503.96" y="0">o</tspan><tspan x="521.63" y="0">t</tspan><tspan class="cls-4" x="529.94" y="0">h</tspan><tspan x="546.62" y="0">er little crit</tspan><tspan class="cls-10" x="688.84" y="0">t</tspan><tspan x="696.55" y="0">e</tspan><tspan class="cls-11" x="713.5" y="0">r</tspan><tspan x="722.32" y="0">s </tspan><tspan class="cls-10" x="744.91" y="0">t</tspan><tspan x="752.62" y="0">o ea</tspan><tspan class="cls-12" x="816.49" y="0">t</tspan><tspan x="823.96" y="0">, arth</tspan><tspan class="cls-5" x="892.36" y="0">r</tspan><tspan x="900.88" y="0">opods i</tspan><tspan class="cls-13" x="1004.11" y="0">n</tspan><tspan x="1020.76" y="0">a</tspan><tspan class="cls-6" x="1039.27" y="0">d</tspan><tspan class="cls-8" x="1057.63" y="0">v</tspan><tspan x="1072.24" y="0">er</tspan><tspan class="cls-10" x="1098.31" y="0">t</tspan><tspan x="1106.02" y="0">ent</tspan><tspan class="cls-6" x="1148.38" y="0">l</tspan><tspan class="cls-14" x="1155.01" y="0">y</tspan><tspan x="1169.08" y="0"> </tspan><tspan x="-1.82" y="56.43">i</tspan><tspan class="cls-4" x="5.71" y="56.43">n</tspan><tspan x="22.36" y="56.43">g</tspan><tspan class="cls-6" x="40.87" y="56.43">e</tspan><tspan class="cls-15" x="57.67" y="56.43">s</tspan><tspan x="69.4" y="56.43">t a</tspan><tspan class="cls-4" x="106.57" y="56.43">n</tspan><tspan x="123.22" y="56.43">d sh</tspan><tspan class="cls-5" x="181.45" y="56.43">r</tspan><tspan x="189.97" y="56.43">ed up plant </tspan><tspan class="cls-4" x="361.24" y="56.43">m</tspan><tspan x="387.01" y="56.43">at</tspan><tspan class="cls-7" x="413.83" y="56.43">t</tspan><tspan x="421.54" y="56.43">e</tspan><tspan class="cls-12" x="438.49" y="56.43">r</tspan><tspan x="446.77" y="56.43">. mic</tspan><tspan class="cls-7" x="511.42" y="56.43">r</tspan><tspan x="519.94" y="56.43">ob</tspan><tspan class="cls-6" x="556.51" y="56.43">e</tspan><tspan x="573.31" y="56.43">s hi</tspan><tspan class="cls-10" x="620.56" y="56.43">t</tspan><tspan x="628.27" y="56.43">chi</tspan><tspan class="cls-8" x="668.77" y="56.43">n</tspan><tspan x="685.42" y="56.43">g a ride in t</tspan><tspan class="cls-8" x="848.88" y="56.43">h</tspan><tspan x="865.56" y="56.43">eir gu</tspan><tspan class="cls-16" x="945.12" y="56.43">t</tspan><tspan x="953.13" y="56.43">s b</tspan><tspan class="cls-5" x="994.23" y="56.43">r</tspan><tspan x="1002.75" y="56.43">eak it d</tspan><tspan class="cls-13" x="1107.6" y="56.43">o</tspan><tspan x="1125.21" y="56.43">wn. </tspan><tspan x="64.62" y="112.85">li</tspan><tspan class="cls-17" x="78.93" y="112.85">k</tspan><tspan x="92.37" y="112.85">e a bio</tspan><tspan class="cls-7" x="192.63" y="112.85">r</tspan><tspan x="201.15" y="112.85">eac</tspan><tspan class="cls-7" x="252.44" y="112.85">t</tspan><tspan x="260.15" y="112.85">or t</tspan><tspan class="cls-8" x="305.99" y="112.85">he</tspan><tspan class="cls-14" x="339.17" y="112.85">y</tspan><tspan x="353.24" y="112.85" xml:space="preserve"> co</tspan><tspan class="cls-18" x="397.49" y="112.85">n</tspan><tspan class="cls-4" x="414.29" y="112.85">v</tspan><tspan x="428.9" y="112.85">ert o</tspan><tspan class="cls-7" x="491.69" y="112.85">r</tspan><tspan x="500.21" y="112.85">ganic </tspan><tspan class="cls-10" x="588.05" y="112.85">r</tspan><tspan class="cls-6" x="596.57" y="112.85">e</tspan><tspan x="613.37" y="112.85">sidu</tspan><tspan class="cls-6" x="668.75" y="112.85">e</tspan><tspan x="685.55" y="112.85">s in</tspan><tspan class="cls-5" x="732.77" y="112.85">t</tspan><tspan x="740.48" y="112.85">o plan</tspan><tspan class="cls-19" x="829.75" y="112.85">t-</tspan><tspan x="849.25" y="112.85">a</tspan><tspan class="cls-8" x="867.76" y="112.85">v</tspan><tspan x="882.37" y="112.85">ailable nutrien</tspan><tspan class="cls-16" x="1079.5" y="112.85">t</tspan><tspan x="1087.51" y="112.85">s.</tspan></text><text class="cls-3" transform="translate(85.07 843.4)">a si<tspan class="cls-4" x="48.63" y="0">n</tspan><tspan x="65.28" y="0">gle </tspan><tspan class="cls-20" x="117.87" y="0">s</tspan><tspan x="130.02" y="0">qua</tspan><tspan class="cls-7" x="184.11" y="0">r</tspan><tspan x="192.63" y="0">e</tspan><tspan class="cls-21" x="209.58" y="0"> </tspan><tspan class="cls-8" x="219.69" y="0">y</tspan><tspan x="234.06" y="0">a</tspan><tspan class="cls-7" x="252.57" y="0">r</tspan><tspan x="261.09" y="0">d </tspan><tspan class="cls-9" x="289.95" y="0">o</tspan><tspan x="307.62" y="0">f </tspan><tspan class="cls-22" x="326.28" y="0">s</tspan><tspan x="338.43" y="0">oil con</tspan><tspan class="cls-5" x="432.14" y="0">t</tspan><tspan x="439.85" y="0">ai</tspan><tspan class="cls-23" x="465.89" y="0">n</tspan><tspan x="483.2" y="0">s </tspan><tspan class="cls-24" x="505.79" y="0">500 </tspan><tspan class="cls-25" x="565.73" y="0">t</tspan><tspan class="cls-24" x="575.63" y="0">o 20</tspan><tspan class="cls-26" x="636.38" y="0">0,</tspan><tspan class="cls-24" x="659.63" y="0">000</tspan><tspan x="709.94" y="0" xml:space="preserve"> i</tspan><tspan class="cls-8" x="727.82" y="0">n</tspan><tspan x="744.47" y="0">d</tspan><tspan class="cls-6" x="762.98" y="0">iv</tspan><tspan x="785.27" y="0">idual arth</tspan><tspan class="cls-5" x="917.11" y="0">r</tspan><tspan x="925.63" y="0">opods</tspan></text><path class="cls-27" d="M556.21,108.53a23.57,23.57,0,0,0-14.45-16.38,19.63,19.63,0,0,1-6.46-3.42C530.35,83.4,522,84.92,522,84.92c-1.9-6.09-11.79-6.47-11.79-6.47-8.37-7.24-14.45-4.1-14.45-4.1-6.08-4.09-16.35.67-16.35.67-12.55-3-15.6,5.33-15.6,5.33a6.71,6.71,0,0,0-6.46,3.43c-11.41.38-11.41,17.89-11.41,17.89a11.66,11.66,0,0,0,.53,3.5h0s.73,4.37-4.59,6.78-8.62,10.41-8.62,10.41-1.33,4.57,6.63,0c0,0-1.94,6.73,1.1,8.5s3.43-7,3.43-7A21.6,21.6,0,0,1,451,111.93h0a25.46,25.46,0,0,0,6.32,4.21s1.14-7.74,4.56-12.56,4.18,1.52,4.18,1.52c.38,10.28,6.09,14.21,6.09,14.21a67,67,0,0,1-2.66-10.78,22,22,0,0,0,6.46,9.13c-4.18-5.82-4.65-20.94-4.65-20.94l3.13,2.65s1.95,21,7.81,18.74c4.49-1.71,1.5-9.1,1.5-9.1s-2.52-3.54-1.7-9.64c1.14-8.49,5.32-1.89,5.32-1.89,7.23,16.38,3.81,28.56,3.81,28.56,3.8-1.52,4.56-7.59,4.56-7.59,10-.31,1.9-14.1.27-16.73,2.49,3.48,8.48,0,8.48,0,1.14,5.33,8.74,3,8.74,3,1.91,5.71,6.85,4.19,6.85,4.19,4.19,6.09,25.86,9.14,25.86,9.14S559.64,121.47,556.21,108.53Z"/><path class="cls-27" d="M570,60.25a25,25,0,0,1,9.73-21,20.73,20.73,0,0,0,5.53-5.44c3.41-6.92,12.38-7.91,12.38-7.91.09-6.77,10-10.15,10-10.15,6.32-9.89,13.45-8.55,13.45-8.55,4.95-6,16.82-4.28,16.82-4.28,11.84-6.9,17.47.69,17.47.69A7.1,7.1,0,0,1,663,5.11C674.67,2,680,19.83,680,19.83a12.17,12.17,0,0,1,.51,3.72h0s.58,4.66,6.72,5.5,11.91,8,11.91,8,2.74,4.24-6.73,2c0,0,4,6.25,1.45,9s-5.59-6.06-5.59-6.06A22.92,22.92,0,0,0,677.91,31.8h0a27.45,27.45,0,0,1-5.15,6.2s-3.5-7.52-8.44-11.39-3.79,2.82-3.79,2.82c2.72,10.56-1.88,16.29-1.88,16.29A72.13,72.13,0,0,0,658.09,34a23.42,23.42,0,0,1-3.81,11.25c2.5-7.19-1.61-22.7-1.61-22.7l-2.38,3.64s4.37,21.91-2.26,21.42c-5.08-.38-4.28-8.8-4.28-8.8s1.49-4.35-1.19-10.31c-3.73-8.28-6-.3-6-.3-2.39,18.83,4.78,30.18,4.78,30.18-4.33-.4-6.94-6.33-6.94-6.33-10.23,2.71-6.2-13.76-5.34-16.92-1.47,4.28-8.63,2.52-8.63,2.52.45,5.76-8,5.75-8,5.75-.2,6.38-5.69,6.33-5.69,6.33-2.4,7.46-23.51,17.13-23.51,17.13S570.4,74.45,570,60.25Z"/><path class="cls-27" d="M716.69,125.89c-2.34-2.09-3.9-8.08-3.9-8.08-2.87-.26-6.26-2.7-6.26-2.7a16.65,16.65,0,0,0-5.45-7.2c.52-8.59-5-8.85-5-8.85-18.73-35.43-52.57-18.24-52.57-18.24s-14.31,7-14.83,16.67S637.84,117,637.84,117a44.5,44.5,0,0,0,6.2,6.38c-.75.93-2.37,2.1-5.68,1.44,0,0-4.68,6.69-4.94,11.42,0,0,3.9-7.72,6.5-7.75a8.75,8.75,0,0,0,7.55,0s.52,4.66,2.34,5.7c0,0,2.08,10.16,5,13.55,0,0,0-10.68-3.65-15s-1.3-3.65-1.3-3.65a2.66,2.66,0,0,0,3.84.42,29.16,29.16,0,0,0,5.27,1.78,39.24,39.24,0,0,0,17.34-.39c.94,2.32,2.12,6.32.35,8.66a98.47,98.47,0,0,0-6.24,10.48s15-8.86,8.61-19.84a40.9,40.9,0,0,0,4.92-1.75,35.05,35.05,0,0,0,9.16,3.95,21.52,21.52,0,0,0,2.55,8.27,26.5,26.5,0,0,0,3.12,9.37c1.42-6.1-1.27-14.1-2.53-17.32a4.44,4.44,0,0,0,4.1-2.47,19.34,19.34,0,0,0,1-13,8.13,8.13,0,0,0,3.72.64c.27.06.58.12.94.17-.51,6.9-1,12.47-1,12.47l2.86-4.42a22.94,22.94,0,0,0-.32-7.86c8.28.73,6.05,19.32,6.05,19.32C716.17,133.44,716.69,125.89,716.69,125.89Z"/><path class="cls-27" d="M634.81,509a18,18,0,0,0-13.92-9.14,14.88,14.88,0,0,1-5.45-1.22c-4.71-2.93-10.56-.12-10.56-.12-2.62-4.11-10-2.4-10-2.4-7.61-3.64-11.46-.1-11.46-.1-5.3-1.79-11.9,3.78-11.9,3.78-9.85.28-10.41,7.06-10.41,7.06a5.12,5.12,0,0,0-4.07,3.82c-8.32,2.58-4.81,15.47-4.81,15.47a9.17,9.17,0,0,0,1.1,2.46h0s1.42,3.07-2,5.92-4.25,9.39-4.25,9.39-.06,3.63,4.87-1.33c0,0-.07,5.34,2.53,6s1.12-5.82,1.12-5.82a16.53,16.53,0,0,1,2.46-10.13h0a19.58,19.58,0,0,0,5.5,1.83s-.72-5.93.84-10.17,3.38.28,3.38.28c2.34,7.49,7.33,9.24,7.33,9.24a51.6,51.6,0,0,1-4.12-7.4,16.75,16.75,0,0,0,6.59,5.42c-4.25-3.44-7.62-14.47-7.62-14.47l2.83,1.31s5.64,15,9.5,12.22c3-2.16-.72-7-.72-7a10.83,10.83,0,0,1-3.18-6.76c-.87-6.47,3.54-2.46,3.54-2.46,8.6,10.6,8.53,20.26,8.53,20.26,2.49-1.89,1.83-6.5,1.83-6.5,7.29-2.24-1.43-10.77-3.15-12.37,2.52,2,6.22-1.74,6.22-1.74,1.91,3.69,7,.48,7,.48,2.55,3.82,5.88,1.7,5.88,1.7,4.31,3.64,20.87,1.53,20.87,1.53S639.93,517.86,634.81,509Z"/><text class="cls-28" transform="translate(451.99 196.33)">t<tspan class="cls-4" x="11.08" y="0">h</tspan><tspan x="33.32" y="0">e sh</tspan><tspan class="cls-7" x="108.88" y="0">r</tspan><tspan x="120.24" y="0">edde</tspan><tspan class="cls-29" x="214.8" y="0">r</tspan><tspan x="226.56" y="0">s:</tspan><tspan class="cls-24"><tspan x="24.36" y="41.63">arth</tspan><tspan class="cls-4" x="100.16" y="41.63">r</tspan><tspan x="113.88" y="41.63">opods</tspan></tspan></text><path class="cls-30" d="M438.53,596.29a78.53,78.53,0,0,1,9.83,16.29l0,0a6.42,6.42,0,0,1,.24.66,6.22,6.22,0,1,1-11.9,3.61s-2.13-7.87-12.87-18.5a6.22,6.22,0,1,1,8.36-9.2,53.63,53.63,0,0,1,4.49,4.8Z"/><path class="cls-31" d="M527.87,600.8l-17.75,7.73c-3,1.3-4.48,4.38-3.39,6.9s4.39,3.51,7.35,2.22l17.75-7.73c3-1.3,4.48-4.38,3.39-6.9S530.84,599.51,527.87,600.8Z"/><path class="cls-32" d="M480.05,628.52s1.62,3.73,10,.07a6.9,6.9,0,0,0,4.14-5.7s.26-5,6.05-7.29c7.27-2.92,8.66-.23,8.66-.23"/><path class="cls-32" d="M483.45,625.71c4-3.29,8.18-.32,8.18-.32s3.23,3.48,11.18-1c7.39-4.15,7.54-8,7.54-8"/><path class="cls-32" d="M507.88,613.55a12.26,12.26,0,0,1-6.19,5.68s-4.77,1.9-7.05-.78-5.49-.7-6.88-.17a13.59,13.59,0,0,0-5.32,4.7"/><path class="cls-32" d="M510.85,614.3c-4.44-4.49-8.29-3.32-8.29-3.32a6.72,6.72,0,0,0-4.91,6.84c-.06,5.9-3.77,5.45-5.16,5.79a9.54,9.54,0,0,1-7-2.6"/><path class="cls-33" d="M431.75,543.74s-11,10.72-4.67,25,20.7,7.85,20.7,7.85,13.22-5.46,8.28-18-14.58-9.76-16.72-9.17c0,0-10,3.08-7,15,0,0,3.66,10.79,13.6,7.28,0,0,8.49-3.13,5.13-11,0,0-1.21-3.36-4.23-3.72,0,0-1.86-.05-.43,1.33,0,0,4.63,3.29.85,8,0,0-4.84,5.35-9.46-1,0,0-4.56-6.38,1.47-10.53a7.88,7.88,0,0,1,10.4,1.59c6.25,6.74.15,13.26.15,13.26s-4.35,6.16-13.12,2.5c0,0-9.16-4-7.16-15.41,0,0,.45-5.63,2.3-9.41C431.87,547.19,433.4,542.93,431.75,543.74Z"/><path class="cls-34" d="M527.66,589.34s.36,6.28,2.75,7.24c3.28,1.31,5.48-3,5.48-3s1.49-4.87,6.47-.61c4.17,3.56,6,.12,6,.12s1.69-1.6-.05-3.93c-3.48-4.66.87-6.53.87-6.53,4.09-2,3.4-5.36,3.4-5.36-1.7-5.84-8.85-3.74-8.85-3.74-4.4.82-3.5-2.49-3.5-2.49s.8-3.55-4.41-5-4.08,5.13-4.08,5.13c-.16,7.09-7.15,7.72-7.15,7.72s-8,.37-8,4c0,4.74,7.3,4.23,7.3,4.23C528,586.41,527.66,589.34,527.66,589.34Zm5.5-6.77c.33-2,1.89-3.47,3.49-3.21s2.63,2.11,2.3,4.15-1.89,3.46-3.49,3.2S532.83,584.6,533.16,582.57Z"/><path class="cls-30" d="M492,573.88a46.24,46.24,0,0,0-7.85,11.74,4.4,4.4,0,0,1-.34.77,4.92,4.92,0,0,1-9.05-3.65s1-6.53,13.27-18a4.68,4.68,0,1,1,6.48,6.74Z"/><path class="cls-2" d="M686.28,531.9c-1.14,5.38-5.57,7-9,9.47,2.49,2.75,7.71,4.89,11.13,6.67,1.92-5.6,3.89-12.73-2.12-16.14"/><path class="cls-2" d="M700.55,671c-1.14,5.38-5.57,7-9,9.46,2.49,2.76,7.71,4.9,11.13,6.67,1.92-5.6,3.89-12.73-2.12-16.13"/><path class="cls-2" d="M661.89,566.37c-1,2.13-1.76,4.48-3.85,5.3,3.25,1.58,7.64.73,10.94,2.47,1.46-2.79,2.09-5.86,3.56-8.67-3.63.25-8.08,2.52-10.65.9"/><path class="cls-2" d="M701.18,645.4c-1,2.13-1.76,4.48-3.85,5.3,3.25,1.58,7.65.73,10.95,2.47,1.46-2.79,2.09-5.86,3.55-8.67-3.63.25-8.07,2.52-10.65.9"/><path class="cls-2" d="M701.05,594.73c.2,4.4.92,8.16,1.2,12.77,3.57-.75,7.22-2.51,11-2.81.72-5-2.09-10.07-3.25-14.77-3.5-.62-6.9,2.82-8.94,4.81"/><path class="cls-2" d="M659.25,611.93c-2.82,1.52-5.63,5.06-7.64,7.57,4.67-.07,9.16-.75,13.68-.67-.71-2.6-3.66-6.25-5.51-8.29Z"/><path class="cls-2" d="M630.15,643.68c-2.82,1.52-5.63,5.07-7.64,7.57,4.67-.07,9.16-.74,13.68-.66-.71-2.61-3.66-6.25-5.51-8.3Z"/><path class="cls-2" d="M736.46,556.17a10.25,10.25,0,0,1-2.2,6.62c5.28.25,12.38.58,16.77-1.89-4.71-3.56-7.45-6.61-13.33-6.73a3.75,3.75,0,0,1-1.24,2"/><path class="cls-2" d="M748.93,683.11a10.24,10.24,0,0,1-5.55-4.21c-1.93,4.92-4.53,11.55-3.6,16.5,4.88-3.32,8.64-4.94,10.64-10.48a3.75,3.75,0,0,1-1.49-1.81"/><path class="cls-2" d="M719,663.58a10.25,10.25,0,0,1-2.2,6.62c5.28.25,12.38.58,16.77-1.89-4.71-3.56-7.45-6.61-13.33-6.73a3.68,3.68,0,0,1-1.24,2"/><path class="cls-2" d="M732.53,596.66c-1.49,1.91-1,4.37-1.73,6.58,4.52,1.13,11.49,2.39,16,.86,2.23-13.69-8.27-6-14.29-7.44"/><path class="cls-2" d="M661.56,638.63c-1.48,1.9-1,4.37-1.73,6.57,4.52,1.14,11.49,2.4,16,.86,2.23-13.68-8.27-6-14.29-7.43"/><path class="cls-2" d="M693.79,566.5a31.65,31.65,0,0,0-2.77,3.89c3,1.8,7.25,1.74,10.46,3.28-.47-3.79-5.15-4.86-7.14-7.73"/><path class="cls-2" d="M655.34,683.84a32.38,32.38,0,0,0-2.76,3.89c3,1.8,7.25,1.75,10.46,3.29-.47-3.79-5.15-4.87-7.14-7.74"/><path class="cls-2" d="M748.57,617.52a30.9,30.9,0,0,0-2.77,3.89c3,1.8,7.25,1.74,10.46,3.28-.47-3.79-5.14-4.86-7.14-7.73"/><path class="cls-2" d="M722.43,568.28a68.19,68.19,0,0,1-4.67,7.4,26.3,26.3,0,0,1-6.88-5.37c1.34-2.42,3.73-4.08,5.61-6,1.81,2.39,4.42.42,5.94,4"/><path class="cls-2" d="M725.29,629.2A69.93,69.93,0,0,1,730.8,636a26.35,26.35,0,0,1-7.28,4.82c-1.87-2-2.68-4.85-3.92-7.25,2.84-1,1.81-4.06,5.69-4.36"/><path class="cls-2" d="M713.44,542.23A69.87,69.87,0,0,1,719,549a26.46,26.46,0,0,1-7.28,4.81c-1.87-2-2.68-4.84-3.93-7.24,2.85-1,1.81-4.07,5.69-4.37"/><path class="cls-2" d="M641.08,528c-.45,2.33-2.59,3.43-4.89,5,4.11,1,8.73.56,12.57,2.19,1.33-3.51.67-7.69.72-11.44-3.29.37-5,3.69-8.4,4.24"/><path class="cls-2" d="M777.6,680.22c-.46,2.33-2.6,3.42-4.9,5,4.12,1,8.73.56,12.58,2.2,1.33-3.52.66-7.7.71-11.45-3.28.37-5,3.69-8.39,4.25"/><path class="cls-2" d="M690.74,509.56a62.38,62.38,0,0,1-6.76,6.11c2.36,2.7,7.51,5.36,10.56,6.67a20.41,20.41,0,0,1,3.52-6.92c-2.6-1.72-4.4-4.7-6.76-6.42"/><path class="cls-2" d="M677,592.93c-.41,1-.15,2.38-.5,3.23,3.59.37,8-.37,11.6-1.09-.07-3.31-1.68-6.82-3.15-9.75-3.9.21-5.3,4.5-8.51,5.93Z"/><path class="cls-2" d="M746.6,646.64c-.41,1-.15,2.38-.5,3.24,3.59.36,8-.38,11.6-1.09-.07-3.31-1.68-6.83-3.15-9.75-3.9.21-5.3,4.49-8.51,5.92Z"/><path class="cls-2" d="M685.75,628.43c-.4,1-.14,2.38-.5,3.24,3.59.36,8-.37,11.6-1.09-.07-3.31-1.68-6.83-3.15-9.75-3.9.21-5.29,4.49-8.51,5.92Z"/><path class="cls-35" d="M602.26,684.66,597,696.6h5v4.09H590.85v-.28l5.42-11.91h-5.35v-4.09h11.34Z"/><path class="cls-35" d="M615.14,693.27v7.42H611V694.5c0-1.07-.62-1.72-1.41-1.72s-1.42.63-1.42,1.72v6.19h-4.14V689.06h4.14v1.44a4.35,4.35,0,0,1,3.37-1.67C613.81,688.83,615.14,690.5,615.14,693.27Z"/><path class="cls-35" d="M617.05,691.52c1-1,2.09-2.17,3-3.18a2.67,2.67,0,0,0,.9-1.64.9.9,0,0,0-.9-.9c-.66,0-1.05.63-1,1.33l-2.37-.64a3.36,3.36,0,0,1,3.4-3.21,3.2,3.2,0,0,1,3.4,3.05,4.32,4.32,0,0,1-1.56,3.1l-1,1.13h2.54V693h-6.42Z"/><path class="cls-35" d="M629.57,689.65h-1.8v1.78h-1.7v-1.78h-1.72V688h1.72v-1.76h1.7V688h1.8Z"/><path class="cls-35" d="M730.83,692.53v16.4H727.3l-6.39-8.68v8.56h-4.25V692.43h3.51l6.41,8.87v-8.77Z"/><path class="cls-35" d="M745,697.18v11.63h-4.14v-1.32a4,4,0,0,1-3.16,1.46c-3.19,0-5-2.7-5-6s1.81-6,5-6a4,4,0,0,1,3.16,1.47v-1.28Zm-4.14,6.1v-.63A1.94,1.94,0,0,0,739,701a2,2,0,0,0,0,4A2,2,0,0,0,740.87,703.28Z"/><path class="cls-35" d="M751.87,697.77h-1.8v1.78h-1.71v-1.78h-1.72V696.1h1.72v-1.76h1.71v1.76h1.8Z"/><path class="cls-35" d="M784.66,649.88l-2.37-7.45-2.51,8.15-.81.1-4.28-7.22-.46,7.67-4.52.54L771.17,635l2.79-.34,4.43,7.88,2.47-8.71,2.79-.33,5.46,15.86Z"/><path class="cls-35" d="M802,647c.43,3.58-2,6-5.55,6.41a11.16,11.16,0,0,1-4.58-.37l-.42-3.63a6.89,6.89,0,0,0,3.67.69c1.64-.2,3-1.18,2.77-3l0-.16a4,4,0,0,1-3,1.88c-3.16.38-5.29-2.08-5.67-5.34s1.08-6.15,4.24-6.53a4,4,0,0,1,3.32,1.08l-.15-1.27,4.08-.49Zm-4.68-4.52a2,2,0,0,0-2.16-1.76,2,2,0,0,0,.48,3.95A2,2,0,0,0,797.3,642.48Z"/><path class="cls-35" d="M803,638.44c.88-1.16,1.83-2.4,2.65-3.53a2.62,2.62,0,0,0,.69-1.73.89.89,0,0,0-1-.78,1.16,1.16,0,0,0-.88,1.44l-2.43-.35a3.37,3.37,0,0,1,3-3.6,3.21,3.21,0,0,1,3.74,2.63,4.31,4.31,0,0,1-1.18,3.27c-.26.38-.58.83-.84,1.23l2.51-.3.28,2.37-6.37.76Z"/><path class="cls-35" d="M815.19,635.09l-1.79.21.21,1.77-1.69.2-.22-1.76-1.7.2-.2-1.65,1.71-.21-.21-1.75,1.69-.2.21,1.75,1.79-.22Z"/><path class="cls-35" d="M643.51,657.17a8.14,8.14,0,0,1,11.18-4.3,9,9,0,0,1,2.91,2L655.79,659a5.46,5.46,0,0,0-2.62-2.18,4.14,4.14,0,1,0-3.31,7.59,5.31,5.31,0,0,0,3.38.43l-1.82,4.18a8.75,8.75,0,0,1-3.43-.78A8.15,8.15,0,0,1,643.51,657.17Z"/><path class="cls-35" d="M668.31,664.16l-4.65,10.67-3.79-1.66.53-1.21a4,4,0,0,1-3.49.08c-2.91-1.28-3.5-4.48-2.19-7.49s4-4.75,7-3.48a4,4,0,0,1,2.31,2.61l.51-1.17Zm-6.23,3.94.25-.58a1.94,1.94,0,0,0-1.08-2.3,2,2,0,0,0-1.59,3.65A2,2,0,0,0,662.08,668.1Z"/><path class="cls-35" d="M669.15,667.22c1.35-.55,2.8-1.15,4.07-1.7a2.59,2.59,0,0,0,1.47-1.14.89.89,0,0,0-.46-1.18c-.61-.27-1.21.15-1.49.8l-1.91-1.53a3.36,3.36,0,0,1,4.4-1.59,3.22,3.22,0,0,1,1.9,4.16,4.35,4.35,0,0,1-2.67,2.22l-1.36.64,2.32,1-.95,2.19-5.88-2.57Z"/><path class="cls-35" d="M681.39,670.52l-1.65-.72-.71,1.63-1.57-.68.71-1.63-1.58-.69.67-1.53,1.58.69.7-1.62,1.56.69-.7,1.61,1.65.72Z"/><path class="cls-35" d="M813.81,668.79l.81,2.79,3.7-1.07,1.11,3.82-3.7,1.08,1.47,5.09-4.1,1.19-4.54-15.63,9.44-2.75,1.14,3.93Z"/><path class="cls-35" d="M832.4,671.09l-7.14,2.07a2.36,2.36,0,0,0,2.75.71,9.83,9.83,0,0,0,3.24-1.75l1,3.33a9,9,0,0,1-3.58,1.91,6,6,0,0,1-3.6-11.48C828.76,664.8,831.59,667.28,832.4,671.09Zm-7.72.16,3.53-1a1.88,1.88,0,0,0-2.11-.86A1.94,1.94,0,0,0,824.68,671.25Z"/><path class="cls-35" d="M832.57,666.48c.68-1.29,1.41-2.67,2-3.91a2.7,2.7,0,0,0,.4-1.83.9.9,0,0,0-1.11-.61,1.17,1.17,0,0,0-.63,1.57l-2.45,0a3.36,3.36,0,0,1,2.36-4,3.21,3.21,0,0,1,4.12,2,4.33,4.33,0,0,1-.63,3.41c-.2.43-.44.92-.64,1.36l2.44-.71.66,2.29-6.17,1.8Z"/><path class="cls-35" d="M844.08,661.18l-1.73.5.49,1.71-1.63.48-.5-1.71-1.65.48-.46-1.6,1.65-.48-.49-1.69,1.63-.48.5,1.69,1.73-.5Z"/><path class="cls-27" d="M564.55,606.9c2.32-.59,5.48-4.1,5.48-4.1a12,12,0,0,0,5.18.36,12.71,12.71,0,0,1,6.22-2.95c2.66-6,6.46-4.26,6.46-4.26,25.11-17.42,42,6.12,42,6.12s7.23,9.79,4.2,16.51-13,10-13,10a33.59,33.59,0,0,1-6.44,2.14c.18.9.87,2.25,3.34,3,0,0,.83,6.18-.65,9.47,0,0,.06-6.59-1.7-7.53a6.69,6.69,0,0,1-5.11-2.65s-2,3-3.58,3c0,0-5,6.15-8.1,7.43,0,0,3.74-7.23,7.71-8.85s2.16-2,2.16-2a2,2,0,0,1-2.74-1.07,21.17,21.17,0,0,1-4.2-.65,30,30,0,0,1-11.61-6.35c-1.45,1.24-3.65,3.53-3.27,5.74a75.44,75.44,0,0,1,.55,9.3s-7.09-11.3,1.13-16.47a30.42,30.42,0,0,1-2.72-2.91,27.13,27.13,0,0,1-7.59-.55,16.38,16.38,0,0,1-4.63,4.7,20.34,20.34,0,0,1-5.4,5.26c1.17-4.63,5.81-9.11,7.79-10.85a3.4,3.4,0,0,1-1.91-3.11,14.72,14.72,0,0,1,3.87-9.19,6.26,6.26,0,0,1-2.75-.88c-.2-.05-.44-.12-.7-.21-2.07,4.85-3.68,8.81-3.68,8.81l-.39-4a17.54,17.54,0,0,1,3-5.21c-5.87-2.41-10.87,11-10.87,11C562.25,612.19,564.55,606.9,564.55,606.9Z"/><line class="cls-36" x1="46.95" y1="266.11" x2="1132.49" y2="266.11"/></g></g></svg>