<svg xmlns="http://www.w3.org/2000/svg" viewBox="0 0 1370.54 845.66"><defs><style>.cls-1{font-size:43.9px;}.cls-1,.cls-20,.cls-21,.cls-22,.cls-23,.cls-24,.cls-25,.cls-26,.cls-27,.cls-30{fill:#5c5052;}.cls-1,.cls-11,.cls-12,.cls-13,.cls-14,.cls-15,.cls-16,.cls-20,.cls-21,.cls-22,.cls-23,.cls-24,.cls-25,.cls-26,.cls-27,.cls-30{font-family:Acre-Light, Acre;font-weight:300;}.cls-13,.cls-2,.cls-22,.cls-32{letter-spacing:-0.01em;}.cls-3{letter-spacing:-0.01em;}.cls-26,.cls-4{letter-spacing:-0.01em;}.cls-5{letter-spacing:-0.01em;}.cls-24,.cls-35,.cls-6{letter-spacing:-0.01em;}.cls-7{letter-spacing:-0.02em;}.cls-8{letter-spacing:-0.01em;}.cls-30,.cls-9{letter-spacing:-0.02em;}.cls-10,.cls-17,.cls-28,.cls-31,.cls-32,.cls-33,.cls-34,.cls-35{font-family:Acre-Bold, Acre;font-weight:700;}.cls-11,.cls-21{letter-spacing:0em;}.cls-14{letter-spacing:-0.01em;}.cls-15{letter-spacing:0em;}.cls-16{letter-spacing:-0.03em;}.cls-17,.cls-43{fill:#ffcd01;}.cls-18{letter-spacing:-0.02em;}.cls-19{letter-spacing:-0.01em;}.cls-20{letter-spacing:-0.01em;}.cls-25{letter-spacing:-0.02em;}.cls-27{letter-spacing:-0.07em;}.cls-28,.cls-39{fill:#3da9a0;}.cls-29,.cls-33{letter-spacing:-0.03em;}.cls-31,.cls-32,.cls-33,.cls-34,.cls-35,.cls-40{fill:#eb6a7c;}.cls-34{letter-spacing:-0.02em;}.cls-36{letter-spacing:0.01em;}.cls-37{letter-spacing:0em;}.cls-38{letter-spacing:0em;}.cls-41,.cls-44{fill:none;stroke:#eb6a7c;stroke-miterlimit:10;}.cls-41{stroke-linecap:round;stroke-width:7.32px;}.cls-42{fill:#fff;}.cls-44{stroke-width:0.52px;}</style></defs><g id="Layer_2" data-name="Layer 2"><g id="fungal_networks" data-name="fungal networks"><g id="Layer_70" data-name="Layer 70"><text class="cls-1" transform="translate(274.54 261.65)">com<tspan class="cls-2" x="87.97" y="0">m</tspan><tspan x="125.68" y="0">on </tspan><tspan class="cls-3" x="192.27" y="0">m</tspan><tspan class="cls-2" x="230.19" y="0">y</tspan><tspan x="251.22" y="0">celial </tspan><tspan class="cls-2" x="372.29" y="0">n</tspan><tspan class="cls-4" x="396.65" y="0">e</tspan><tspan x="420.88" y="0">t</tspan><tspan class="cls-2" x="433.04" y="0">w</tspan><tspan x="467.32" y="0">or</tspan><tspan class="cls-5" x="507.09" y="0">k</tspan><tspan x="527.59" y="0">s all</tspan><tspan class="cls-6" x="607.57" y="0">o</tspan><tspan class="cls-7" x="633.34" y="0">w</tspan><tspan x="667.18" y="0" xml:space="preserve"> plan</tspan><tspan class="cls-8" x="771.39" y="0">t</tspan><tspan x="783.11" y="0">s </tspan><tspan class="cls-9" x="816.17" y="0">t</tspan><tspan x="827.45" y="0">o</tspan><tspan class="cls-10"><tspan x="108.23" y="119.15">communica</tspan><tspan class="cls-2" x="345.66" y="119.15">t</tspan><tspan x="360.15" y="119.15">e </tspan><tspan class="cls-11" x="398.73" y="119.15">w</tspan><tspan class="cls-12" x="433.46" y="119.15">ith o</tspan><tspan class="cls-13" x="523.27" y="119.15">n</tspan><tspan class="cls-12" x="547.63" y="119.15">e a</tspan><tspan class="cls-13" x="614.66" y="119.15">n</tspan><tspan class="cls-14" x="639.02" y="119.15">o</tspan><tspan class="cls-12" x="664.88" y="119.15">t</tspan><tspan class="cls-13" x="677.04" y="119.15">h</tspan><tspan class="cls-15" x="701.44" y="119.15">e</tspan><tspan class="cls-16" x="726.25" y="119.15">r</tspan><tspan class="cls-12" x="738.36" y="119.15">,</tspan></tspan><tspan class="cls-17"><tspan class="cls-2" x="-213.56" y="258.16">r</tspan><tspan x="-198.5" y="258.16">equ</tspan><tspan class="cls-18" x="-121.77" y="258.16">e</tspan><tspan class="cls-3" x="-98.07" y="258.16">s</tspan><tspan x="-78.8" y="258.16">ting nutrien</tspan><tspan class="cls-19" x="160.7" y="258.16">t</tspan><tspan x="175.54" y="258.16">s</tspan><tspan class="cls-20" x="195.25" y="258.16"> </tspan><tspan class="cls-21" x="210.04" y="258.16">w</tspan><tspan class="cls-22" x="244.76" y="258.16">h</tspan><tspan class="cls-23" x="269.17" y="258.16">en t</tspan><tspan class="cls-24" x="346.29" y="258.16">h</tspan><tspan class="cls-23" x="370.7" y="258.16">e</tspan><tspan class="cls-25" x="395.5" y="258.16">r</tspan><tspan class="cls-23" x="407.97" y="258.16">e is a d</tspan><tspan class="cls-26" x="561.3" y="258.16">e</tspan><tspan class="cls-23" x="585.53" y="258.16">ficie</tspan><tspan class="cls-22" x="666.03" y="258.16">n</tspan><tspan class="cls-23" x="690.4" y="258.16">c</tspan><tspan class="cls-27" x="713.57" y="258.16">y</tspan><tspan class="cls-23" x="731.97" y="258.16">,</tspan></tspan><tspan class="cls-28"><tspan class="cls-29" x="208.51" y="397.16">w</tspan><tspan x="245.74" y="397.16">arning </tspan><tspan class="cls-2" x="393.54" y="397.16">o</tspan><tspan x="418.73" y="397.16">f a p</tspan><tspan class="cls-18" x="516.27" y="397.16">e</tspan><tspan class="cls-3" x="539.98" y="397.16">s</tspan><tspan x="559.25" y="397.16">t</tspan><tspan class="cls-20" x="574.39" y="397.16"> </tspan><tspan class="cls-21" x="589.18" y="397.16">w</tspan><tspan class="cls-22" x="623.91" y="397.16">h</tspan><tspan class="cls-23" x="648.31" y="397.16">en t</tspan><tspan class="cls-24" x="725.44" y="397.16">h</tspan><tspan class="cls-23" x="749.84" y="397.16">e</tspan><tspan class="cls-30" x="774.65" y="397.16">r</tspan><tspan class="cls-23" x="787.11" y="397.16">e is an at</tspan><tspan class="cls-30" x="977.62" y="397.16">t</tspan><tspan class="cls-23" x="988.9" y="397.16">ack,</tspan></tspan><tspan x="-213.56" y="536.17">a</tspan><tspan class="cls-2" x="-186.47" y="536.17">n</tspan><tspan x="-162.11" y="536.17">d </tspan><tspan class="cls-31" x="-119.88" y="536.17">p</tspan><tspan class="cls-32" x="-92.89" y="536.17">r</tspan><tspan class="cls-33" x="-77.83" y="536.17">o</tspan><tspan class="cls-32" x="-53.29" y="536.17">v</tspan><tspan class="cls-31" x="-30.86" y="536.17">iding </tspan><tspan class="cls-34" x="89.32" y="536.17">e</tspan><tspan class="cls-31" x="112.68" y="536.17">xt</tspan><tspan class="cls-35" x="151.57" y="536.17">r</tspan><tspan class="cls-31" x="166.63" y="536.17">a p</tspan><tspan class="cls-32" x="234.75" y="536.17">rot</tspan><tspan class="cls-31" x="289.49" y="536.17">ection</tspan><tspan x="414.99" y="536.17" xml:space="preserve"> agai</tspan><tspan class="cls-36" x="522.4" y="536.17">n</tspan><tspan class="cls-18" x="547.73" y="536.17">s</tspan><tspan x="564.89" y="536.17">t di</tspan><tspan class="cls-37" x="630.3" y="536.17">s</tspan><tspan x="648.08" y="536.17">ea</tspan><tspan class="cls-37" x="699.96" y="536.17">s</tspan><tspan class="cls-38" x="717.74" y="536.17">e</tspan><tspan x="742.32" y="536.17">.</tspan></text></g><g id="Layer_71" data-name="Layer 71"><path class="cls-39" d="M37.33,639.16c-2.39-2.89-7.59-5.83-7.59-5.83,3.34.2,6.85,2.57,8.35,3.71,1.82-4.23,5.65-8.6,12.82-12.48l.71-.37c-5.79-2.91-16.15-2.65-16.15-2.65,2.75-4,15.05-.15,19.2,1.3a32.14,32.14,0,0,1,16.23-1.79c2.36-2.44,5.86-1.81,8.43-.83C76.22,609.72,70,605.14,70,605.14c5.34.59,9.76,11.16,11.54,16.1.66.35,1.08.62,1.08.62,5.07-1.68,10.57.59,10.57.59,1-1.84,2.77-1.69,4-1.23-.57-8.17,2.37-17.12,2.37-17.12,1.84-2.61,2.71.54,2.71.54-3,7.58-3.41,17.44-3.41,17.44.72-5.2,6.36-2.17,6.36-2.17s-.62-4.42,2.65-2.89a3.77,3.77,0,0,1,.48.28c.77-1.35,1.86-3.17,3.34-5.58,12-19.52,10.75-47.39,10.75-47.39,2.41,33.57-9.35,48-9.35,48s-2.25,3.18-4.07,5.57c1.42,1.88-.22,4.91-.22,4.91l1.35,1.34.13-.06.18,2.09s3.34.68,3.9,2.94c2.26,0,4.27,0,4.27,0s18.61-1,44.36,20.66c0,0-21.85-17.35-44.66-19.15-1.51-.12-2.81-.22-3.94-.33a1.77,1.77,0,0,1,0,.32c-.91,3.49-3.92.18-3.92.18s-.9,4.36-3.8,4.18l1,.59s8.43,5.15,16.37,6.93c0,0,2.12,2.48-1.07,2.55,0,0-10.18-2.88-16.64-8.55-.74-.65-1.29-1.15-1.69-1.55-.23,1.28-1.05,4-3.85,3.51,0,0-1.71,5.42-6,8.31.32.36.54.63.54.63s7.62,17,2.86,22.18c0,0,1.88-8.34-3.61-19.08-.21-.39-.39-.75-.56-1.1-.74,2.73-2.49,6.8-6.38,7.08a32.18,32.18,0,0,1-12.55,11.76c-1.22,4.31-5.08,16.44-9.9,16.4,0,0,6.37-8.65,7.12-15.11l-.16.07c-9.06,3.62-15.58,3.12-20.23.94-.36,1.77-1.45,6-3.89,8.4,0,0,2-5.76,1.9-9.51a21.41,21.41,0,0,1-8-10.23c-8,2.11-8,.74-8,.74.73-2.13,3.56-4.93,5.21-6.43C37.47,650.3,35.68,645,37.33,639.16Z"/><path class="cls-39" d="M200,667.05c-3.6-1-9.55-.55-9.55-.55,2.87-1.71,7.11-1.72,9-1.63-.88-4.52-.17-10.28,3.58-17.53.12-.24.25-.47.37-.7-6.42.84-14.84,6.89-14.84,6.89,0-4.86,12.35-8.59,16.6-9.73a32.24,32.24,0,0,1,12.42-10.61c.57-3.34,3.82-4.79,6.49-5.43-8.48-6.93-16.18-7.23-16.18-7.23,4.74-2.51,14.34,3.74,18.6,6.82.74-.08,1.23-.08,1.23-.08,3.26-4.25,9.08-5.47,9.08-5.47-.18-2.11,1.33-2.95,2.65-3.29-5.07-6.43-7.67-15.49-7.67-15.49.05-3.19,2.54-1.08,2.54-1.08,1.81,7.94,7,16.34,7,16.34-2.33-4.71,4-5.37,4-5.37s-3-3.31.56-3.89a3.69,3.69,0,0,1,.56,0c-.12-1.55-.24-3.67-.38-6.49-1.1-22.86-17.77-45.22-17.77-45.22,20.88,26.4,19.29,45,19.29,45s-.07,3.89-.23,6.89c2.23.76,2.59,4.18,2.59,4.18l1.86.35.07-.13,1.33,1.63s3.14-1.32,4.88.23c1.85-1.27,3.53-2.38,3.53-2.38s14.81-11.32,48.3-7.89c0,0-27.82-2-47.69,9.3l-3.44,2c0,.09.09.18.13.29,1.21,3.39-3.14,2.35-3.14,2.35s1.71,4.12-.78,5.6c.65-.06,1.15-.08,1.15-.08S266,624,273.55,621c0,0,3.15.86.55,2.72,0,0-10,3.34-18.56,2.3-1-.12-1.72-.23-2.27-.34.53,1.2,1.38,3.92-1.21,5.07,0,0,1.64,5.44-.32,10.27l.81.21s15.87,9.79,14.84,16.73c0,0-3.14-7.94-13.72-13.73l-1.08-.6c.92,2.67,1.76,7-1.29,9.44a32.28,32.28,0,0,1-3.76,16.78c1.42,4.25,5.05,16.45,1,19.13,0,0,.4-10.73-2.61-16.49a.71.71,0,0,0-.1.14c-5.45,8.1-11.12,11.35-16.19,12.16.7,1.67,2.18,5.78,1.51,9.14,0,0-1.56-5.91-3.78-8.93a21.48,21.48,0,0,1-12.37-4c-5.45,6.26-6.22,5.12-6.22,5.12-.59-2.17.17-6.07.7-8.25C206.35,676.18,201.86,672.77,200,667.05Z"/><path class="cls-39" d="M347.16,603.51c.29-3.74-1.38-9.47-1.38-9.47,2.25,2.47,3.12,6.61,3.4,8.48,4.26-1.77,10-2.24,17.9,0l.76.22c-2.12-6.12-9.74-13.15-9.74-13.15,4.77-1,10.9,10.37,12.87,14.31a32.15,32.15,0,0,1,12.89,10c3.39-.11,5.47,2.78,6.63,5.27,5.08-9.7,3.82-17.31,3.82-17.31,3.42,4.14-.77,14.81-2.94,19.59.23.72.34,1.2.34,1.2,4.81,2.33,7.18,7.79,7.18,7.79,2-.6,3.16.71,3.76,1.94,5.28-6.27,13.62-10.64,13.62-10.64,3.14-.58,1.58,2.28,1.58,2.28-7.42,3.37-14.61,10.13-14.61,10.13,4.15-3.23,6.08,2.88,6.08,2.88s2.64-3.6,3.92-.23a3.87,3.87,0,0,1,.15.53c1.49-.42,3.54-1,6.28-1.67,22.17-5.68,40.72-26.51,40.72-26.51-21.65,25.76-40.17,27.94-40.17,27.94s-3.82.72-6.8,1.17c-.28,2.33-3.57,3.37-3.57,3.37l0,1.89.14.05-1.33,1.63s1.92,2.81.75,4.83c1.62,1.56,3.05,3,3.05,3s14.06,12.23,17.44,45.72c0,0-3.59-27.67-18.71-44.85l-2.59-3-.26.18c-3.08,1.87-2.94-2.6-2.94-2.6s-3.68,2.51-5.64.36c.19.63.31,1.12.31,1.12s2.46,9.56,6.92,16.37c0,0-.21,3.25-2.55,1.08,0,0-5.29-9.15-6-17.72-.08-1-.12-1.73-.13-2.29-1.06.76-3.55,2.15-5.2-.16,0,0-5,2.7-10.13,1.75,0,.49-.05.83-.05.83s-6.39,17.52-13.4,17.91c0,0,7.15-4.68,10.69-16.21.14-.42.26-.81.38-1.18-2.44,1.44-6.53,3.14-9.52.64a32.22,32.22,0,0,1-17.19-.3c-3.88,2.24-15.09,8.25-18.53,4.86,0,0,10.6-1.77,15.63-5.88l-.16-.06c-9-3.71-13.35-8.61-15.17-13.42-1.49,1-5.22,3.3-8.65,3.32,0,0,5.48-2.71,8-5.5a21.43,21.43,0,0,1,1.39-12.91c-7.23-4.08-6.27-5.06-6.27-5.06,2-1,6-1.06,8.22-1C339.5,611.6,341.94,606.52,347.16,603.51Z"/></g><g id="Layer_86" data-name="Layer 86"><path class="cls-40" d="M1182.62,767.27a47.33,47.33,0,1,1-47.33-47.33A47.33,47.33,0,0,1,1182.62,767.27Z"/><line class="cls-41" x1="1182.62" y1="704.99" x2="1168.73" y2="733.77"/><line class="cls-41" x1="1210.86" y1="758.14" x2="1168.73" y2="759.79"/><line class="cls-41" x1="1117.86" y1="693.37" x2="1131.52" y2="744.85"/><line class="cls-41" x1="1076.34" y1="733.77" x2="1114.3" y2="744.85"/><line class="cls-41" x1="1058.07" y1="775.85" x2="1114.3" y2="767.27"/><line class="cls-41" x1="1095.32" y1="834.53" x2="1114.3" y2="791.35"/><line class="cls-41" x1="1140.6" y1="842" x2="1129.99" y2="783.88"/><line class="cls-41" x1="1152.73" y1="791.35" x2="1168.73" y2="820.41"/><line class="cls-41" x1="1199.23" y1="791.35" x2="1160.73" y2="775.86"/><path class="cls-42" d="M1124.69,746.2c0,3.81-2.33,6.89-5.2,6.89s-5.19-3.08-5.19-6.89,2.32-6.89,5.19-6.89S1124.69,742.39,1124.69,746.2Z"/><path class="cls-42" d="M1160.73,787.48a4,4,0,1,1-4-3.88A3.94,3.94,0,0,1,1160.73,787.48Z"/><path class="cls-42" d="M1156.73,760.18c0,3.91-3.61,7.09-8.07,7.09s-8.06-3.18-8.06-7.09,3.61-7.09,8.06-7.09S1156.73,756.27,1156.73,760.18Z"/><path class="cls-42" d="M1114.3,787.48c0,2.13-2.13,3.87-4.75,3.87s-4.74-1.74-4.74-3.87,2.12-3.88,4.74-3.88S1114.3,785.34,1114.3,787.48Z"/></g><g id="Layer_72" data-name="Layer 72"><path class="cls-43" d="M1084.82,416.27h-1c.1,7.2.45,38.9-1.48,38.9s-2.71-31.7-2.87-38.9h-1.21c.1,7.2.45,38.9-1.48,38.9s-2.71-31.7-2.87-38.9h-1.39c.1,7.2.45,38.9-1.48,38.9s-2.71-31.7-2.87-38.9h-.75s-5.16,42.71-.81,50.18c2.29,3.93,3.77,3.71,3.77,3.71s3.53,1.29,3.5,6.92c0,0,.61,61-3.5,80.72-5.51,26.42,5.74,24.49,5.74,24.49s11.25,1.93,5.74-24.49c-4.11-19.72-3.51-80.72-3.51-80.72,0-5.63,3.51-6.92,3.51-6.92s1.48.22,3.76-3.71C1090,459,1084.82,416.27,1084.82,416.27Z"/><path class="cls-43" d="M1283.88,419.24s2.85-2.94,4.63-3c3.8-.08,2.64,5.29,2.64,5.29s2,44-1.32,69.47c0,0,.65,30.68,1.91,40.35,4,30.93,2.39,47,2.39,47s-3,4-7.27,4-8.28-4-8.28-4-2.64-4,1.33-31.09,1-52.93,1-52.93a216.7,216.7,0,0,1-4.63-43.66C1276.27,430.49,1283.88,419.24,1283.88,419.24Z"/><path class="cls-43" d="M1180.77,409.6a89.7,89.7,0,1,0,89.7,89.69A89.7,89.7,0,0,0,1180.77,409.6Zm0,151.46a61.77,61.77,0,1,1,61.77-61.77A61.76,61.76,0,0,1,1180.77,561.06Z"/><path class="cls-43" d="M1180.77,439a60.34,60.34,0,1,0,60.34,60.34A60.35,60.35,0,0,0,1180.77,439Z"/></g><g id="Layer_73" data-name="Layer 73"><path class="cls-44" d="M801.24,135.58c-3.24,11.24-11.37,29.53-16.86,42.64C776,198.33,759.8,201.47,738.1,203q-43.58,3.1-87.35,3.09c-24.7,0-39.22,7.13-62.29,13.76-24.54,7.06-85.22,20-108.51,4.82-16.36-10.64-4.57-26.35-3.22-42.12,1.08-12.63,1.47-24.93,1.57-37.6"/><path class="cls-40" d="M806.81,0S769.64,0,767,37.69c-.67,9.69,20.1,8.23,31.79,6.58.94,15.94,4.08,75.92-1.2,91.75,0,0-.43,4.17,11.19,3.79s13.93-7.5,13.93-7.5,4.21-2.91-8.73-88.15c11.53,1.68,33.09,3.45,32.58-6.47C844.75,1.31,806.81,0,806.81,0Z"/><path class="cls-40" d="M631.68,104.88s-23.44,0-25.09,23.77c-.42,6.11,12.67,5.19,20,4.15.6,10.06,2.58,47.89-.75,57.88,0,0-.27,2.62,7.06,2.39s8.79-4.74,8.79-4.74,2.46-3-5.51-55.6c7.27,1.06,20.87,2.18,20.55-4.08C655.61,105.71,631.68,104.88,631.68,104.88Z"/><path class="cls-40" d="M480.88,52.77s-27.14,0-29.05,27.53c-.49,7.07,14.68,6,23.21,4.8.69,11.64,3,55.45-.87,67,0,0-.32,3,8.17,2.77s10.17-5.49,10.17-5.49,4-1.27-6.37-64.38c8.42,1.24,24.16,2.53,23.79-4.71C508.6,53.73,480.88,52.77,480.88,52.77Z"/><path class="cls-44" d="M486.14,148.12c3.22,2.5-5.24,19.8-11.31,25.16-21.94,19.4-57.06,20.59-84.23,20.3-35.16-.38-70.07-7.26-105.09,1.47-27.85,6.94-50,25.53-74.81,39.21-15.28,8.41-31.86,21.07-49.15,25.24-14,3.37-23.68-3-37.16-5.16s-31.38-3-43.57,5c-14,9.22-16,27.66-32.06,36.09"/><path class="cls-44" d="M486.14,149.69c-7.37,32.13-66.78,30.17-95.14,28.6-42.32-2.34-84.62-2.3-126.9-4.82-30.59-1.82-55.56,5.18-80.4,22.78-20.77,14.71-36.81,28.44-45.58,53.05-10,28-17.69,52.44-31.76,79.12-12.52,23.75-22,48-32.53,72.61-8.33,19.53-15,49.85-29.78,65.33"/><path class="cls-44" d="M487.7,152.82c-.35,42.72-52.31,56.78-87.43,52.72-42.86-5-91.85-58.68-128.95-21.36-26.31,26.46-67.08,71.88-72.06,109.74-1.67,12.71,6.24,24.41,3.56,38.18-3.71,19-15.11,37.69-27.08,52.74"/><path class="cls-44" d="M284.67,195.27c-7,10.79-26.58,21.1-40,29.36-7.1,4.39-20.26,8.74-24.85,16.21-5.09,8.3-2.72,23.59-7.57,33.17-25,49.41-84.15,60.17-93,121.8"/><path class="cls-44" d="M218.63,180c-6.2,3.14-15,14.47-19.41,24.62-10.65,24.5,2.78,40.41,15.32,61.11,16.37,27,24.35,52.72,25.55,84.52,1,27.33-8.54,49.72-12.62,75.32"/><path class="cls-44" d="M320.94,174.31c-9.93-2.41-15,9.88-21,14.31-14,10.41-33.72,14.82-44.34,29.66-10.8,15.1-7.48,36.23-17.19,52.43-11.41,19.07-32.35,29.36-53.23,34.2-34,7.9-81-23.31-109.48-.05C44.05,330.74,61,383.32,15.83,400.52"/><path class="cls-44" d="M98.92,253.15c40.82-12.27-2.57,134.57,71.05,119.3,23.55-4.88,38.88-42.06,41.82-62.54,1.71-11.93-2.77-41.62,3.8-49.41"/><path class="cls-44" d="M261.08,173.32c-14.25-.57-48.42,26.57-57.59,37.86-9,11.12-20.46,29.28-25.56,42.57-6.76,17.62,1,20.7,11.72,35.27,50.31,68.69-69.71,76.36-60.94,138.15"/><path class="cls-44" d="M234.49,219.8c-10.84,6.73-28,24.55-37.16,35.66-9.89,12-23.63,27.52-30.68,40.71-6.39,12-5.81,27.26-16.34,37-26.26,24.15-44.73-16.51-71.42-11.34-20.83,4-24.06,23.19-30.13,36.4"/><path class="cls-44" d="M484.57,151.26c-1.79,30.45-24.88,59.05-55.53,64.31-35.25,6-69.88-28.21-100.93-4.74-11,8.33-18.54,17.31-30.93,23.24-15.75,7.56-26.41,8.41-36.52,25-6.28,10.29-18,32.47-17.62,44.64.57,17.69,12.58,33.21,12.65,52.94"/><path class="cls-44" d="M483,149.69c-15.18,31.32-28.57,51.36-65.38,56.39-20.51,2.81-41.43,2.9-61.56-1.87-15.84-3.76-30.55-9.68-47-6.39-19.54,3.92-45.21,23.05-53,41.47-5.81,13.77-.34,33.57-.4,47.91-.08,18.6,6,35.72,6.27,53.74"/><path class="cls-44" d="M483,148.12c0,40.81-.44,64.79,46.6,58.35,32.07-4.4,103.35,36.12,108.6-20.73"/><path class="cls-44" d="M483,157.53c-27.09,36.33,51.12,45.55,70.28,47.38,16.14,1.53,30.39-6.77,45.69-5.44,22.62,2,17.37,2.24,34.53-12.16"/><path class="cls-44" d="M630.36,184.18c-3.6,26.26,23.1,29.79,42.68,28.3,12.51-1,25.43-2.09,31-13.77,5.4-11.22-.73-19,12.5-27.11,27.56-16.78,89-7.21,90.93-53.27"/><path class="cls-44" d="M807.51,126.17c-5.71,35.17,61.63,52.47,85.08,53.34,32.94,1.22,60.62-11.19,92.2-16.88,31.74-5.73,63.2-3.48,95.13-.4,30.56,3,36.18,10,60,26.29,26.51,18.16,52.68,26.41,72,53.34,34.15,47.53,88.53,99.08,152.11,97.52"/><path class="cls-44" d="M1124.72,177.91c24.31,39,74.77,46.54,71.65,101.28-1.32,23.33-8.76,34.51-20.46,53.49-8.08,13.11-18.35,35.22-6.27,49"/><path class="cls-44" d="M1104.35,166.93c43.63-2.38,93.61,33,131,53.23,12.88,7,112.59,55.31,116.16,12.61"/><path class="cls-44" d="M807.51,130.88c2.21,35.24-10.86,74.3,36.1,80.33,64.85,8.33,131.44-15.45,196.25-13,40.59,1.53,83.15,7.17,111,39.26,14.42,16.64,29.83,23.39,51.73,24.89"/><path class="cls-44" d="M832.89,162.59c1.9,42.85,40.16,52.19,79.3,47,15.92-2.08,30.84-7.89,46.17-2.38,13.83,5,22.66,14.73,38.84,13"/><path class="cls-44" d="M949.07,163.58c22.47,6,48.17,13,62.59,31.57,13,16.72,29.52,35.23,52.95,34.49"/><path class="cls-44" d="M982.17,163.12c65.76,1.38,130.55,16,168.32,73.7,16.87,25.8,21,55.66,42.64,78.25,13.41,14,31,22.06,43.83,36.8,9.8,11.26,10.5,30.49,20.47,39.24"/><path class="cls-44" d="M1203.42,201.92c25.67,14,41.87,60.66,38,89.78-4.2,31.87-49.42,65.4-31,99.41"/><path class="cls-44" d="M1248.27,226.53c25.14,17.26,27.22,44.06,26.06,73-1.53,38.14,27.82,84.93,69.32,90"/><path class="cls-44" d="M1150.49,236.82c-.8,15.32,3.7,31.19,2.29,46.5-2.26,24.62,17.8,33.93,40.44,43.51,24.74,10.45,46.92,5.12,72,11.33,17.1,4.23,24.79,15.29,37.63,24.73"/><path class="cls-44" d="M805.94,135.58c2.41,42.68-43.31,69.16-78,52.34-21.08,3.72-40.6-14.51-61.83-5.65-7.54,3.15-36.31,27-34.14,3.47"/><path class="cls-44" d="M487.7,145c6.59,18.1,12.3,38.89,21.56,56.44,11.07,21,19.85,19.66,41.35,14,19-5,35.68-8.44,54.75-9.29,13.94-.62,26.22-5.7,28.14-20.38"/><path class="cls-44" d="M631.93,184.18C638.37,223.24,728,212.64,757,209.25c35.11-4.1,55.1-37.92,52-72.1"/><path class="cls-44" d="M804.37,132.44c11,15.2,5,40.48,20.58,53.34,18.69,15.45,42.72,7.31,57.73-4.61,16.08-12.78,38.67-23.61,59.65-19.41,11.47,2.3,39,17.32,47,.1"/><path class="cls-44" d="M813.78,127.74c-.07,13.26-1.12,26.21-1.57,39.42-.77,22.85,4,23.17,23.36,31.36,22.19,9.37,38.27,17.52,62.75,11.15,23.54-6.12,45.08-16.93,69-21.89,15.38-3.19,24.71-5.95,37.67,1.49,10,5.76,15.55,13.6,27.79,16.93,39.81,10.82,60-20.37,78.62-36.36"/><path class="cls-44" d="M977.46,202.18c30.13-1.33,30.43-46.17,61.31-42.9"/><path class="cls-44" d="M986.06,166.41c-6,10.6-27.5,15-37.19,25.16-6.37,6.67-8.78,17.84-19.08,17"/><path class="cls-44" d="M899.93,179.56c9,3.82,20.53,2.6,29.86,7.76,10.2,5.64,13.69,11.87,25.87,14.18,22.63,4.27,48.21-4.35,69.44-11.05,20.41-6.45,34.13-15.42,56.75-12.19,19.83,2.83,37.17,17.75,57.7,17.75"/><path class="cls-44" d="M1230.78,290.78c-31.47,25.33-77.22-10.4-91.62-37.85-5.85-11.14-9.85-24.51-21.3-29.56-13.51-6-19.7-4.61-25.45-14.86-9.36-16.72,14.65-43.23-19.85-47"/><path class="cls-44" d="M1154,176.92c-1.92,14.32,19.83,17.2,22,32.53,3.44,24.81-12.74,34-28.6,49.62-14,13.76-33,26.49-37,46.92-3.66,19,8.18,40.82,1.29,60"/><path class="cls-44" d="M1194.26,196.72c7.75,20.95,8.84,51.09-2.09,70.38-13.63,24-35.87,38.06-48.48,63.75-9.51,19.37-17,42.37-29.31,60-7,10-23.62,24.8-7.44,36.29"/><path class="cls-44" d="M1171.26,199.85c3.5,6.75,11.89,11.15,15.35,17.52,6.19,11.39,5,25.54,5,37.94,0,24.26-3.66,46.67,16.39,64.07,41.16,35.74,78-44.94,64.93-53"/><path class="cls-44" d="M1211.08,207.38c.41,16.83.06,31.91,4,49.33,5.21,23.19,13.33,23.12,36,23.1,20.71,0,35.22-.51,53,10.63,13.94,8.71,52.58,43.11,66.19,17.58"/><path class="cls-44" d="M1251.16,227.86c18.44,10.08,29,35.81,45.47,50,22.34,19.34,35.25,48.62,27.94,79.68-5.29,22.45-17.78,30-7.57,54,9.52,22.36,24.79,51.68,42.33,68.89"/><path class="cls-44" d="M1287.48,242.21C1297.55,261.3,1314,277,1312.41,301c-1.64,24.73-20.16,44.63-35.82,62.35-8.55,9.68-20,18.81-25.82,30.49-5.63,11.31-2,17.59-1.18,30.22"/><path class="cls-44" d="M483,149.69c-.09,17.16-12,58.83-29.68,65.53-20.71,7.82-45.72-9.61-62.46-18.89-15-8.33-38.6-19.32-55.05-16.4"/><path class="cls-44" d="M320.94,174.31c11.2,2.66,26.76,20.51,35.11,29.89,14.21,16,25.39,17.17,46.93,19.13,24.12,2.19,41.18-.46,63.08-10.51,14.51-6.66,30.51-16.4,47.08-16.1,21.79.4,42.24,12.4,65.53,12.54,24.69.15,56.12-7.09,59.53-31.35"/><path class="cls-44" d="M628.79,171.64c4.94,13.87,6.76,27.11,21.48,34.13,16.41,7.83,42.74,8.49,60.43,6.27,23.19-2.91,54.54-35.82,76.43-26.76,10.71,4.44,12.14,17.34,21.59,23.67,8.19,5.48,19.14,5.91,28.69,3.83,18.79-4.08,33-15.78,40.92-33,4.14-.3,9.66-1.13,13.83-.28"/><path class="cls-44" d="M807.51,135.58c-18.1,6.44-22.38,42.65-26.61,58.47-7.2,27-22.51,20.68-48.64,23-23.75,2.12-50.39,15.88-74,14.17-10.24-.74-28.35-8.48-32.71-18.84-5.07-12,4.84-16.29,6.38-26.65"/><path class="cls-44" d="M487.7,148.12c5.76,14.72,3.29,42.8,17.56,51.77,14.73,9.26,39.28-3.59,54.56-6.35,12.93-2.33,23.32-4.21,34.57-3.06,10.66,1.09,28.41,9.22,36-3.17"/><path class="cls-44" d="M490.84,148.12c8.58,14.36,21.53,28,37.59,31.35,15.45,3.21,36.25.72,50.27,9,12.53,7.41,18.16,20.44,34.07,24.33,18.52,4.54,23-6.27,25.43-22.37"/><path class="cls-44" d="M805.94,135.58c-10.19,17.32-33.48,29-49.78,40.72-14.07,10.09-24.77,24.26-42.75,26.77-14.1,2-29.44-7.38-42.72-3.61-10.21,2.9-15.12,12.4-25,18.43-26.81,16.3-69.81,2.09-101.43,3.92-13.82.8-34.2,12.59-46.94,7.68-22.8-8.77-13.6-27.3-9.58-42.26,3.78-14-.55-33-4.7-46.95"/><path class="cls-44" d="M221.87,177.54c-3.25,4.09-19.81,7.77-27.29,14.36-14.3,12.6-25.28,27.38-45,31.11-39.5,7.49-91.12-32.45-127.49-12.18"/><path class="cls-44" d="M230.26,187.89c-15.39-.67-51,7.68-65.34,15.05-21.92,11.28-41.62,40.2-57.43,59.31C81.66,293.49,36.88,324.74.16,297.05"/><path class="cls-44" d="M261.08,173.32c-9.64,5.12-28,42-31.74,55.44-8.61,31.38-7,69.55,11.77,96.46,20,28.67,52.15,42.85,58.9,79.92,2.64,14.51-8.17,43.22-2,53.38"/><path class="cls-44" d="M1139.55,171.86c-1.6,4,7.24,3.49,13.74,8,14.38,10,23.57,19.75,27.44,36.94,5.14,22.86-10.26,45.43,7.67,64.61,18.59,19.89,59.25,22,84.78,17.2,16.62-3.12,13.94-13.12,25.46-18.84"/><path class="cls-44" d="M1200.23,200.09c12.59,5.86,2.83,50.16,2.33,62.27-1.88,46.33,37.94,57.29,71.73,75.8,8.57,4.69,25,15,28.45,24.81,3,8.51-4.66,17.28-3,24.93,5.71,27.19,41.27,10.17,54.94,22"/></g></g></g></svg>