<svg xmlns="http://www.w3.org/2000/svg" viewBox="0 0 1362 701.57"><defs><style>.cls-1{fill:#5e5153;}.cls-2,.cls-3,.cls-4,.cls-5,.cls-6,.cls-7,.cls-9{fill:none;stroke-miterlimit:10;}.cls-2,.cls-3,.cls-4,.cls-5,.cls-6,.cls-7{stroke:#ffcf01;}.cls-2,.cls-3,.cls-9{stroke-width:1.79px;}.cls-2,.cls-4,.cls-5{opacity:0.9;}.cls-4,.cls-6{stroke-width:2.68px;}.cls-5,.cls-7{stroke-width:0.89px;}.cls-8{fill:#eb6a7c;}.cls-9{stroke:#eb6a7c;}.cls-10{fill:#fff;}.cls-11{fill:#3da9a0;}</style></defs><g id="Layer_2" data-name="Layer 2"><g id="Mycorrhizal_Fungi" data-name="Mycorrhizal Fungi"><g id="Layer_52" data-name="Layer 52"><path class="cls-1" d="M1255.78,324.74c-121.09,1.92-242.15-3.79-363-10.33C644.36,301,396.18,284,147.42,274.29Q73.74,271.41,0,269.52V701.57c24.52-.92,49-2.2,73.47-3.52,222.17-11.94,444.76-25.2,667.36-19.49,183.09,4.7,366.88,22.21,548.83,6,24.21-2.16,48.3-4.93,72.34-8V321.24C1326.63,322.94,1291.23,324.17,1255.78,324.74Z"/></g><g id="Layer_55" data-name="Layer 55"><polygon class="cls-2" points="701.2 553.75 714.71 531.16 740.37 537.03 742.72 563.25 718.51 573.58 701.2 553.75"/><polygon class="cls-3" points="580.78 546.49 600.75 529.33 623.24 543.01 617.17 568.63 590.93 570.78 580.78 546.49"/><polyline class="cls-3" points="701.2 553.76 677.8 549.01 670.54 525.9 643.49 526.2"/><polyline class="cls-3" points="600.98 528.95 607.49 503.44 633.76 501.74 643.49 526.2 623.24 543.01"/><polyline class="cls-3" points="590.65 571.09 574.57 591.57 548.8 587.87 539.12 563.71 555.2 543.23 580.96 546.93"/><line class="cls-3" x1="631.55" y1="501.54" x2="639.2" y2="490.22"/><line class="cls-3" x1="634.97" y1="503.97" x2="642.61" y2="492.65"/><line class="cls-3" x1="737.92" y1="536.27" x2="748.31" y2="527.4"/><line class="cls-3" x1="740.55" y1="539.52" x2="750.95" y2="530.66"/><line class="cls-3" x1="555.2" y1="543.23" x2="546.83" y2="523.8"/><line class="cls-3" x1="742.72" y1="563.25" x2="754.52" y2="569.84"/><line class="cls-3" x1="576.99" y1="552.68" x2="584.01" y2="568.96"/><line class="cls-3" x1="646.54" y1="530.82" x2="665.74" y2="531.47"/><polygon class="cls-3" points="701.2 553.75 714.71 531.16 740.37 537.03 742.72 563.25 718.51 573.58 701.2 553.75"/><polyline class="cls-4" points="793.7 472.15 775.24 490.92 751.69 479.16 755.59 453.13 781.55 448.79"/><polyline class="cls-5" points="719.31 400.59 695.93 412.7 677.19 394.21 688.98 370.67 715.01 374.62"/><polyline class="cls-4" points="823.84 440.93 848.05 431.33 868.45 447.5 864.65 473.25 840.45 482.85 820.05 466.68"/><polygon class="cls-4" points="819.99 467.16 794.1 471.94 781.55 448.79 799.69 429.7 823.45 441.06 819.99 467.16"/><polygon class="cls-6" points="719.59 400.27 696.54 413 677.32 395.01 688.49 371.17 714.61 374.42 719.59 400.27"/><polyline class="cls-6" points="719.59 400.26 737.42 416.14 732.06 439.77 755.59 453.13"/><line class="cls-6" x1="753.49" y1="480.44" x2="741.19" y2="486.38"/><line class="cls-6" x1="751.77" y1="476.62" x2="739.46" y2="482.56"/><line class="cls-6" x1="679.06" y1="396.9" x2="665.62" y2="399.33"/><line class="cls-6" x1="678.42" y1="392.76" x2="664.98" y2="395.19"/><line class="cls-6" x1="840.45" y1="482.85" x2="837.91" y2="503.85"/><line class="cls-6" x1="688.49" y1="371.17" x2="681.61" y2="359.54"/><line class="cls-6" x1="826.38" y1="463.72" x2="828.51" y2="446.12"/><line class="cls-6" x1="755.28" y1="447.59" x2="739.02" y2="437.37"/><polyline class="cls-6" points="793.7 472.15 775.24 490.92 751.69 479.16 755.59 453.13 781.55 448.79"/><polygon class="cls-6" points="819.99 467.16 794.1 471.94 781.55 448.79 799.69 429.7 823.45 441.06 819.99 467.16"/><polyline class="cls-6" points="823.84 440.93 848.05 431.33 868.45 447.5 864.65 473.25 840.45 482.85 820.05 466.68"/><polygon class="cls-7" points="579.67 359.93 595.49 362.54 597.9 378.38 583.57 385.58 572.3 374.17 579.67 359.93"/><polygon class="cls-7" points="623.39 418.97 639.22 416.44 646.52 430.71 635.2 442.07 620.91 434.81 623.39 418.97"/><polyline class="cls-7" points="623.39 418.98 616.45 406.2 624.4 393.77 613.67 381.26"/><polyline class="cls-7" points="595.76 362.5 610.21 355.55 621.28 367.15 613.67 381.26 597.9 378.38"/><polyline class="cls-7" points="572.05 374.16 556.2 374.66 547.84 361.19 555.33 347.22 571.18 346.71 579.53 360.19"/><line class="cls-7" x1="620.51" y1="366.04" x2="628.79" y2="365.18"/><line class="cls-7" x1="620.71" y1="368.59" x2="628.99" y2="367.72"/><line class="cls-7" x1="645.91" y1="429.27" x2="654.12" y2="430.66"/><line class="cls-7" x1="645.43" y1="431.78" x2="653.63" y2="433.16"/><line class="cls-7" x1="571.18" y1="346.71" x2="576.97" y2="335.21"/><line class="cls-7" x1="635.2" y1="442.07" x2="636.74" y2="450.15"/><line class="cls-7" x1="575.3" y1="360.58" x2="570.44" y2="370.23"/><line class="cls-7" x1="612.71" y1="384.49" x2="619.92" y2="393.71"/></g><g id="Layer_56" data-name="Layer 56"><path class="cls-8" d="M1018.34,198s-39.54,0-42.33,40.1c-.72,10.31,21.39,8.76,33.82,7,1,17,4.35,80.79-1.27,97.64,0,0-.46,4.43,11.9,4s14.83-8,14.83-8,5.06-9.58-9.29-93.81c12.27,1.8,35.21,3.68,34.67-6.88C1058.72,199.38,1018.34,198,1018.34,198Z"/><path class="cls-8" d="M955,272s-24.86,0-26.61,25.21c-.45,6.48,13.44,5.5,21.26,4.4.63,10.67,2.73,50.79-.8,61.39,0,0-.28,2.78,7.49,2.53s9.32-5,9.32-5,3.33-6.65-5.84-59c7.71,1.12,22.13,2.31,21.8-4.33C980.41,272.88,955,272,955,272Z"/><path class="cls-8" d="M893.7,242.77s-28.86,0-30.89,29.27c-.52,7.52,15.61,6.38,24.68,5.11.73,12.37,3.17,59-.93,71.24,0,0-.34,3.24,8.69,2.95s10.82-5.83,10.82-5.83,3.77-1.8-6.78-68.46c9,1.32,25.69,2.69,25.3-5C923.17,243.79,893.7,242.77,893.7,242.77Z"/><path class="cls-9" d="M1027.56,343.17c-10.81,7.77-4.75,36.9-3.95,48.32,1.17,16.66-12.81,35.76-9.67,50.44s26.13,20.17,27.21,36.61c1.21,18.55-27.65,23.5-40.8,29.61-16.87,7.83-34.51,17.46-41.8,35.31-9.41,23,.86,35.08,6.15,54.81,2.57,9.58,2.37,26.94-6.8,30.24"/><path class="cls-9" d="M955.22,361.93c1.49,15.26-8.73,26.54-18,37.49-8.2,9.65-14.62,15.43-16.56,28.29-3.09,20.57,9.67,42.3,3.37,63.18-9.54,31.57-52.89,39-69.32,65.57-7.26,11.77-17.43,44.8-6.64,56"/><path class="cls-9" d="M899,349.87c.57,6.31-9,21.58-11.19,30.49C881.16,407,893.35,424.42,901,449c4.53,14.62,4,28,4.63,42.92.71,16.3,6.62,31.17,8.56,47.2,3.24,26.84-1.6,56.65-8.49,82.71"/><path class="cls-9" d="M896.22,345.85c-11.27,35.56-42.42,41.94-77.81,37.47-25-3.15-50.76-15.15-76.42-14.43-5.76.16-17.23,3.1-18.52,2.41"/><path class="cls-9" d="M888.59,364.49c-7.23,13.33-23.62,21.13-36.06,29-16.46,10.4-20.68,12.57-19.21,31.41"/><path class="cls-9" d="M893.7,365.56c-3.71,7.4-8.2,14.67-12,22.15-7,13.89-2.94,30.2-5.86,45.25-4.11,21.23-13.06,44-30.42,57.57-9.6,7.49-38.32,27.69-51.06,23.46"/><path class="cls-9" d="M896.22,348.53c-1.8,16.1-12,49.11-7.72,64.29,3,10.67,14.91,16.57,23.55,22.25,20.67,13.56,26.86,31.26,42.7,49.95,8.49,10,8.22,42.54,25.93,33.65"/><path class="cls-9" d="M1022.5,380.39c-.07,25.8-3,54.58-27.29,69.3-22.71,13.75-43.29,12.06-61.46,32.48-11,12.34-11,23.72-13.39,39.14-1.13,7.28-8.5,22.44-5.33,28.17"/><path class="cls-9" d="M957.9,361.93c-.71,1.16,1.39,2.55-2.49,2.5-2.83,20.83-10.6,25.51.82,45.62C967,429.1,971.76,460.61,966,482.63c-4.91,18.87-43,113-13.5,119.09"/><path class="cls-9" d="M1022.93,344.49c.08,15.47,4.73,31.35,5.7,46.67,2.19,34.64-8,64.21-13.21,97.69-6.59,42.12,33.39,42.11,65,52.66,31.42,10.48,40.9,12.79,42.33,45.83a4.32,4.32,0,0,0,3.92,1"/><path class="cls-9" d="M1024.88,345.85c.42,41.87,42.89,44.81,76.07,57.6,11.58,4.47,29.31,8.32,37.54,17.7,6.87,7.84,6.76,45.35,26.54,29.72"/><path class="cls-9" d="M1074.65,394.8c11.74,7.56,29.42,22.51,34.2,35.92,6.34,17.85-8.29,39.28,6.34,52.09,21.27,18.62,56.66,5.22,79.61,17.4,8.6,4.56,13.42,13.67,24.33,15.77"/><path class="cls-9" d="M1014.17,340.49c1.17,4.18,1.35,9,2.68,13.33,2.55,8.3,9.62,15.06,12.11,23.17,7.56,24.55-28,33.4-43.72,43.28-11,6.89-17,16.41-27,24.15-8.22,6.36-13.6,5.79-24.15,7.53-3.2,4.1-8.42,9-12.06,11-7.85,13.65-12.86,25.39-26.83,33.61-9.27,5.44-32.81,10.66-36.4,20.72"/><path class="cls-9" d="M955.22,361.93c-2.7,10.86,4.25,69.3,8.29,79.59,8.86,22.61,35.36,27.44,40,53.26,2.17,12,.28,24.68,9.5,34.83,6.28,6.91,15.56,9.09,23.9,13.17"/><path class="cls-9" d="M1020.36,345.05c-4.13,5-2.18,20.9-7.2,28.33-6.76,10-16.44,9.05-27.48,10C966.14,385,940,383,924.48,397c-14.1,12.81-30.71,32.58-40.62,49.7-6.69,11.57-17.54,25.42-34.19,24.24"/><path class="cls-9" d="M1018.19,345.85a45.34,45.34,0,0,1-1.27-6.15c-11.7,10.37,11,39.76-2.69,54.4-18,19.26-50.89,3.56-62.75,27.12-3.16,6.27-2.35,11.89-6.75,18-6.15,8.56-17.78,13.55-25.6,20.45-8,7.08-8.15,12.31-13.59,20.13-8.65,12.44-25,15.53-33.22,28.58-8.44,13.38-1,20.18-2.52,35.31-2.17,21.25-23.57,29.67-39.17,40.73C817.11,594,797.76,607,787.77,617.8"/><path class="cls-9" d="M930.32,392.74c-14.58,9.35-37.7,39.54-46.13,57.83-7.14,15.48-18,27.69-26.76,42.83-23.43,40.63,19,85.66,4,128.42"/><path class="cls-9" d="M900.3,347.19c0,10.52-3.18,23-1.34,32.93,2.53,13.67,10.43,12.36,24.14,11,29.91-2.93,43.15,9.56,48.5,40.36,4.39,25.3,13.08,17.13,34.19,22.87,11.47,3.12,15.79,9,20.53,21.48,6.47,17,8.27,26.17,33.07,25.53,11.86-.31,23.64-5.14,35.3-1.65,12.42,3.72,26.06,16.34,37.37,23"/><path class="cls-9" d="M1016.85,340.49c17.13,22.28,6.6,54.79,23.62,74.95,13,15.41,31.19,24.09,36.82,45.27,4,15.05.45,28.87-5.22,42.58-10.36,25.05-34.5,38.79-37.51,66.81-2.15,20,6.24,44,27.83,49"/><path class="cls-9" d="M1027.56,372.64c0,27.22,6.67,46,27.09,65.31,22.53,21.25,33.52,46.37,7.34,71.77-18.71,18.15-51.5,29.61-64,52.74-10.94,20.32-3.31,43.16-10.66,62"/><path class="cls-9" d="M1055.7,428.91c16.09,18.37,34.41,28.09,31.88,54.67-1.52,16-3.54,26.59,10.26,38.15,11.28,9.45,37.45,20.27,51.93,21.16a4.59,4.59,0,0,0,2.38-5.47"/><path class="cls-9" d="M1077.13,478.47c.51,20.32-6.28,36.61-9.78,55.74-2.23,12.2-1.33,47,11.12,54.12"/><path class="cls-9" d="M1051.48,426.54c16.81,6.64,21.46,34.32,6.6,43.9-12.17,7.84-23,5.31-36.89,9.34-16.77,4.87-20.48,14.08-26.11,30C989.29,526.18,977.81,548,978,565.55"/><path class="cls-9" d="M1021.48,399.14c0,12.78-3.14,23.15-9.64,34.35-8.53,14.72-22.84,19.3-35,30.91-8.49,8.12-13.22,21.05-16.61,32.46-3,10.15-2,19.62-2.32,30.52-.55,18.85-12.71,41.83,1.31,58.27"/><path class="cls-9" d="M950.71,386c-22.19,14.66-.86,51.95-8.85,72.71-4.34,11.27-16.23,20.53-13.29,34.33,3.25,15.21,18.66,23.61,21.24,39.86"/><path class="cls-9" d="M960.58,359.25c7.43,12.3,4,25.56,9.68,38.52,4.47,10.12,13.94,12.78,20,21.43,5.53,8,6.42,21.5,6.54,31,.26,19.74-10.64,30.85-21.46,45.65-6.44,8.8-9.14,15.39-8.14,26.89,1.92,22.23,6.78,42.87,6.83,65.59"/><path class="cls-9" d="M1027.56,345.85c2.4,15.92,10.51,36.26,21.41,48.43,10.72,12,19.46,6.63,30.61,14.19,11.38,7.72,10.85,22.13,10.94,34,.1,13.7.55,25.43,9.14,35.06"/><path class="cls-9" d="M1028.9,339.15c-5.85,15.44,8.24,31.67,24.09,31.18,20.56-.63,36.3,3.74,56.59,6,21.18,2.4,43.8-1.47,64.28,1.61,12.33,1.85,41.93,17.64,42.59-6.68"/><path class="cls-9" d="M1081.91,372c8.73,9.14,22.41,8.39,34.13,13.08,19.65,7.88,32.45,17.45,40.87,38.06,3.47,8.51,6.21,21.1,4.38,30.34-1.88,9.54-13.23,18.3-13.51,27.5-.45,14.48,25.25,30.51,35.13,38.87,12.88,10.91,32.56,20.31,40.24,36.34"/><path class="cls-9" d="M1161.93,376.88c14.39,9.95,26.15,14.31,29.08,33.86.93,6.18,3.5,6.2,1.59,12.64-1.52,5.11-10.88,10.54-10.91,15.57-.11,17.49,44.37,16.06,54.86,26.13"/><path class="cls-9" d="M1144.87,376c18.63-11.14,28.58-3.86,46.59.74,7.6,1.93,17.83,2.55,19.63-5.46"/><path class="cls-9" d="M1193.68,383.36c25.83,10.68,12.7,37.19,17.42,56.56,2.67,11,12.39,13.45,13.38,25.49.94,11.43-20.94,39.09-5.35,46.56"/><path class="cls-9" d="M1180.9,379.71c4.25,7.59,17.16,19.11,15.67,30.47-2.2,16.83-31.1,22.33-42.52,33.41a50.38,50.38,0,0,0-15.1,40.9c.91,11,5.22,19.75,3.75,31.69-1.56,12.66-13.26,27.41-8,40"/><path class="cls-9" d="M1184.3,423.55c-6.07,13.35-25.91,25.54-21.52,43.65,3.63,15,19.85,19.81,22.89,37.14,1.76,10,3.65,24.6-1.37,33.08"/><path class="cls-9" d="M1028.2,386c13,14.53,10.29,26.62,33,29.57,19.51,2.54,22.86-2.13,38.46,10.93"/><path class="cls-9" d="M1069.35,370.83c4.27-1,12.25.54,17.09,2.82,11.6,5.47,8.88,7.09,15.07,16.41,8.87,13.34,25.43,17.85,38.55,25.46,17.14,9.94,30.16,6.73,49.83,8,31.51,2.08,46.88,29.3,72.11,45.55"/><path class="cls-9" d="M895.25,351.34c-8.86,33.33-23.1,94.13-50.38,119.65-17.09,16-36.74,18.76-57.34,27.32-19.44,8.08-31.11,34.21-35.93,53.84"/><path class="cls-9" d="M887.74,408.82c5.63,15.56,9.38,52,2.52,65.06-11.52,22-42.67,34.16-60.47,50.06a143.2,143.2,0,0,0-26.17,32c-5,8.68-6.56,19.36-13.17,27.06"/><path class="cls-9" d="M890.92,376.66C884.35,380,877.23,395,873.5,402.34,864,421,854.74,439.29,834.76,449c-16.06,7.83-35.78,2.91-53.19,3.93-21.74,1.27-47.44,18.84-56.76,38.91"/><path class="cls-9" d="M849.39,383.83c-6,.45-14.3,3.41-21.16,5.25-13,3.48-25.93,2.6-38.67,5.27-36.7,7.69-52.91,56.37-82.17,76.09"/><path class="cls-9" d="M848.9,395.77c-15.2,1.08-33.52,17.1-45,27.27-7.29,6.45-32.41,36.91-44.24,27.3"/><path class="cls-9" d="M800.83,392.74c-10,5.37-32.31,12.65-34.47,27-2.34,15.5,15.08,31.68,18.54,46.75,5.18,22.54-4.31,40.3-9.19,61.52"/><path class="cls-9" d="M857.55,429.7C849.91,447,823.38,453.43,809.93,467c-15.95,16.11-6.08,53.67-6.08,75.77"/><path class="cls-9" d="M863.33,426.73c12.61,28.21-40.34,25-52.53,24.62-31-.92-46.91,45.88-75.28,57.94"/><path class="cls-9" d="M885.05,375c2.86,30.35-54.31,39-73.56,39.13-12.51.07-21.85,1.79-33.07,7.94-19,10.45-28.89,28.28-45.58,40.29"/><path class="cls-9" d="M802.77,392.54c-22.91,19.77-68.19-6-96.72-5.16"/><path class="cls-9" d="M892.26,344.51c-4.67,57.21-60.4,111.79-112.32,126.26-21.55,6-48.15,10.84-65.48,24.8C688,516.88,685.88,568.32,680.6,600.38"/><path class="cls-9" d="M744.9,480.42c-5.56,7.76-13.24,12.33-16.15,21.52-4.18,13.2,3.83,34.38,5.5,47.39,2.53,19.79,7,40.35-5.42,57.75"/><path class="cls-9" d="M784.2,499.91c-8.52.5-31,11.5-39.32,20.13-13.89,14.37-16.77,43.76-40.17,48.19"/><path class="cls-9" d="M810.54,490.53c-10.42-.25-23.43,16-26.52,26.08-2.31,7.57-.9,15.63-2.59,23.16-2.61,11.63-10.92,22.86-17.77,32.48"/><path class="cls-9" d="M900.3,347.19c-1.19,1.3.4,3.68-2.45,1.89,4.86,28.59-58.57,29.11-76.66,28.92-15.11-.15-30.89-1.74-45.47,2.76-19,5.84-42,20.76-57.61,33.41"/><path class="cls-9" d="M889.82,378.58c-8.08,11.54-2,47.35,14,51.34,19.5,4.85,35-19.25,53.18-22,16.87-2.55,22.27,20.86,27.3,33.35,7.12,17.66,14,6.72,28.56,3.92,12.75-2.45,20.33,3.27,32.13,4.62,14.58,1.66,29.26,1.4,36.61-13.18,4.29-8.51,4.09-18.49,2.82-27.68s-2.1-9.49,5.06-16.34c7.94-7.6,7.46-9.56,4.63-18.65"/><path class="cls-9" d="M969.32,384.25c23.39-11.45,25.12,26.2,35.5,35.72,12.71,11.68,37.13.85,50.88-4,15.92-5.65,22.47-11,32.28-24.13,11.13-14.94,26-17.66,43.18-18.69a29.93,29.93,0,0,1,13.71,2.9"/><path class="cls-9" d="M864.46,375c-7.84,17-17.9,34.67-1.13,51.69,10.25,10.4,25.67,17.09,33,30.85,8.9,16.75,1.83,38.29,7.92,56,5.86,17.07,19.69,25.88,35.68,14.17,22.42-16.42,23.89-45.65,49.49-59.31,14.27-7.62,30.93-7.78,44.85-3.54"/><path class="cls-9" d="M899.36,354.32c-2.58,9-4.14,23.41-4,31.2.18,13.19,4.2,25.79,14.76,34.53,9.36,7.76,22.41,7.94,33.66,4.65,6.45-1.89,13.16-6.86,20.17-6.12,8.5.9,18,10.05,25.06,14.6,20.34,13.18,36.45,20.35,58.43,6.62,14.18-8.85,42.83-29.11,56.6-8.37,6.12,9.22-.35,18.7,12.17,22.74,12.3,4,21.51-4.14,29.59-12.57"/><path class="cls-9" d="M1144.09,375.61c30.31,15.41,13.49,50.43-8.85,64.58-10.38,6.57-21.44,10.49-30.94,18.6-9.76,8.35-8.51,11.69-8,23.49,1.13,27.56-21.87,34.41-45.39,30.83-14.36-2.18-29.64-4.7-43.52-8.89-11.68-3.53-24.33-11.35-36.4-12.94-16.3-2.14-24.47,15.38-33,26.77-12.12,16.1-27.68,12.27-34-5.32"/><path class="cls-9" d="M842.55,377.52c-4.15-.84-20.37,11.47-25.55,16-10.93,9.61-17.67,20.14-17.24,34.88.56,18.76,6.6,25.84,18,39.7,7.79,9.46,16.93,31.21,31.32,30.91,9.24-.19,17.88-14.94,26.6-6.58,7.13,6.83,6.47,29.9,8.71,38.95,3,11.92,4.7,12.74,15.32,8.68,17-6.51,13.81-.18,19.89,12.41,5.18,11.41,22.47-13.53,30.19-19.56"/><path class="cls-9" d="M959.63,361.46c-1.45,12.05,4.3,25.8,3.6,38.68s-2.66,26-9.64,36.95c-7.93,12.5-19.35,14.75-33.05,17-16.55,2.74-24.91,4-39.44-4-8-4.45-13.26-5.6-21.72-6-11.7-.58-15.63-5.51-19.25-17.89S838.82,410.7,825,408.78c-9.69-1.35-18.1.74-24.31-8-4.28-6-6.81-15.62-.7-21.24,1.13-1,2.71-1,3.82-1.9"/><path class="cls-9" d="M1075.74,371.29c-12.48,8.37-16.62,15.67-17,33.13-.31,15.36-7.12,29.22-25.68,25.68-11.78-2.25-25.13-15.61-37-8.37-15,9.11-20,45.71-45.62,37.53-3.18-1-4.67-4.86-7.8-6.52-2.78-1.47-5.29-.7-8-1.67-4-1.45-12.13-4.81-13.42-6.55"/></g><g id="Layer_57" data-name="Layer 57"><path class="cls-10" d="M355.77,282.8A36,36,0,0,0,368,293.56a49.67,49.67,0,0,0,15.81,5,151.06,151.06,0,0,0,17,1.43c5.73.26,11.5.36,17.31,1a78.31,78.31,0,0,1,17.14,3.66,55.62,55.62,0,0,1,15.51,8.25,76,76,0,0,1,12.46,12.24c3.72,4.45,7.11,9.11,10.51,13.75,1.7,2.31,3.38,4.67,5.11,6.91a58.41,58.41,0,0,0,5.7,6.29,101.2,101.2,0,0,0,13.34,10.68,197,197,0,0,0,30.12,16.47,262.43,262.43,0,0,0,32.27,12l8.28,2.41a41.06,41.06,0,0,1,8,3.18,17.82,17.82,0,0,1,3.47,2.57,20.44,20.44,0,0,1,2.75,3.34,45.8,45.8,0,0,1,3.9,7.68,45.29,45.29,0,0,0-4-7.61,20.08,20.08,0,0,0-2.76-3.27,17.78,17.78,0,0,0-3.47-2.5,40.4,40.4,0,0,0-8-3l-8.31-2.29a263,263,0,0,1-32.52-11.56A197.15,197.15,0,0,1,497,363.92a102.71,102.71,0,0,1-13.7-10.66,60.1,60.1,0,0,1-6-6.39c-1.82-2.28-3.5-4.59-5.24-6.88-3.46-4.59-6.9-9.18-10.61-13.5a74.5,74.5,0,0,0-12.25-11.71,53.14,53.14,0,0,0-14.92-7.66,75.45,75.45,0,0,0-16.57-3.29c-11.28-1-22.89-.29-34.51-1.95a53.26,53.26,0,0,1-17-5.12,39.67,39.67,0,0,1-13.59-11.69Z"/><path class="cls-10" d="M356,288.47c-.47.59-1,1.38-1.5,2.1s-1,1.51-1.42,2.31-.91,1.57-1.31,2.39-.85,1.62-1.22,2.46A67.5,67.5,0,0,0,346.74,308a77.25,77.25,0,0,0-2.93,21.83c0,.92,0,1.85,0,2.77l.19,2.76.2,2.77c.11.92.26,1.84.38,2.75.48,3.63,1.17,7.44,1.75,11.21a195.72,195.72,0,0,1,2,22.82,152.83,152.83,0,0,1-1,22.92c-.27,1.9-.55,3.8-.95,5.71a41.21,41.21,0,0,0-.79,5.44,45.61,45.61,0,0,0-.11,5.48,29.28,29.28,0,0,0,.79,5.33,15.51,15.51,0,0,0,2.13,4.71l.81,1a11.87,11.87,0,0,0,.95.92c.63.62,1.4,1.16,2.1,1.74a109.73,109.73,0,0,0,9.35,6.2c6.45,3.87,13.1,7.49,19.81,10.94l.06,0h0a55,55,0,0,1,6.23,5,76.4,76.4,0,0,1,5.58,5.66c.91,1,1.74,2,2.57,3s1.69,2,2.44,3.12l2.32,3.22,2.12,3.34c.74,1.1,1.37,2.26,2,3.42l1.89,3.47,1.67,3.59c.55,1.2,1.14,2.38,1.57,3.63l1.41,3.69c.22.62.49,1.23.68,1.86l.56,1.89a75.27,75.27,0,0,1,2.07,7.62c2.45,10.28,2.74,20.82,4.87,31.06.27,1.28.5,2.57.78,3.85l.95,3.8c.29,1.28.74,2.51,1.1,3.76.21.63.37,1.26.6,1.87l.7,1.83a34.36,34.36,0,0,0,3.52,7c.4.52.75,1.07,1.19,1.56l.68.71.33.35.39.31a5.38,5.38,0,0,0,3.51,1.52,5.38,5.38,0,0,1-3.55-1.48l-.39-.3-.35-.35-.69-.7c-.45-.48-.81-1-1.22-1.55a34.2,34.2,0,0,1-3.65-7l-.73-1.82c-.24-.62-.42-1.25-.63-1.87-.39-1.25-.86-2.48-1.16-3.76l-1-3.8c-.31-1.28-.57-2.57-.85-3.85-2.3-10.25-2.76-20.83-5.34-30.93a75.71,75.71,0,0,0-2.17-7.51l-.59-1.86c-.19-.62-.47-1.21-.7-1.82l-1.44-3.63c-.45-1.22-1.05-2.38-1.61-3.55l-1.7-3.52-1.92-3.39c-.64-1.13-1.28-2.27-2-3.33l-2.14-3.26L397,463.12c-.75-1.06-1.6-2-2.44-3s-1.66-2-2.57-2.92a71.07,71.07,0,0,0-5.53-5.45,51.84,51.84,0,0,0-6.05-4.74l.09,0c-6.82-3.37-13.54-6.89-20.12-10.71a109.15,109.15,0,0,1-9.67-6.2c-.77-.61-1.56-1.14-2.3-1.84-.37-.35-.76-.64-1.11-1l-1-1.2a18.17,18.17,0,0,1-2.63-5.54,32.1,32.1,0,0,1-1-5.87,47.72,47.72,0,0,1,0-5.86,40.69,40.69,0,0,1,.75-5.81c.35-1.8.59-3.66.82-5.5A149.9,149.9,0,0,0,345,375a190.91,190.91,0,0,0-2.31-22.38c-.63-3.7-1.35-7.33-1.93-11.21-.14-.95-.31-1.91-.44-2.86l-.25-2.9-.25-2.89c-.09-1-.05-1.94-.08-2.91a81.87,81.87,0,0,1,2.74-23.08,72.66,72.66,0,0,1,3.93-11c.37-.9.82-1.77,1.26-2.65s.9-1.75,1.38-2.61a42.8,42.8,0,0,1,3.28-5.09Z"/><path class="cls-10" d="M400.68,521.33a47.17,47.17,0,0,0-5.76-13.76,81.36,81.36,0,0,0-8.8-12.07,110.79,110.79,0,0,0-10.5-10.62,98.55,98.55,0,0,1-10.57-10.76,107.84,107.84,0,0,1-16.38-25.36c-4.14-9.22-6.66-19.43-6-29.74l2.88.21c-.85,9.72,1.32,19.58,5.15,28.65a105.63,105.63,0,0,0,15.54,25.24A99.86,99.86,0,0,0,376.43,484a112.64,112.64,0,0,1,10.31,11,83.33,83.33,0,0,1,8.53,12.39A47.62,47.62,0,0,1,400.68,521.33Z"/><path class="cls-10" d="M286.73,570.68a27.59,27.59,0,0,1,5.42-7.28,57.53,57.53,0,0,1,7-5.87c2.46-1.78,5-3.42,7.66-5s5.31-3,8.09-4.24l-.06,0a8.38,8.38,0,0,0,1.38-1.6l.6-.92.54-1a36.53,36.53,0,0,0,1.87-4,72.16,72.16,0,0,0,2.75-8.43A161.24,161.24,0,0,0,325.44,515c.84-5.89,1.42-11.78,2.05-17.72l.47-4.45.54-4.44c.35-3,.76-5.91,1.17-8.87,1.65-11.81,3.62-23.57,5.82-35.29s4.57-23.4,7.22-35.05l2.8.67c-2.8,11.54-5.34,23.17-7.71,34.83s-4.5,23.36-6.32,35.11c-.45,2.94-.91,5.88-1.29,8.83l-.61,4.41-.54,4.43c-.7,5.89-1.41,11.85-2.35,17.73a163.51,163.51,0,0,1-3.81,17.51,74.64,74.64,0,0,1-2.93,8.49,38.86,38.86,0,0,1-2,4.05l-.58,1-.64.94a8.75,8.75,0,0,1-1.56,1.74h0l0,0c-2.75,1.22-5.46,2.61-8.1,4.08s-5.23,3.07-7.72,4.8a57.77,57.77,0,0,0-7.05,5.72A27.57,27.57,0,0,0,286.73,570.68Z"/><path class="cls-10" d="M319.71,541.75a23.16,23.16,0,0,1,2.48,3.75,25.59,25.59,0,0,1,1.77,4.06,24.2,24.2,0,0,1,1.3,8.73,18,18,0,0,1-.2,2.2,15.94,15.94,0,0,1-.4,2.17l-.25,1.07-.35,1-.69,2.05-.66,2-.47,2.06a18.35,18.35,0,0,0-.4,2.09l-.32,2.1a113.15,113.15,0,0,0-.52,17.08q.33,8.57,1.43,17.1-1.33-8.49-1.91-17.07a113.79,113.79,0,0,1,0-17.22l.27-2.15a19.87,19.87,0,0,1,.35-2.14l.43-2.13.63-2.11.62-2,.3-1,.21-1a16,16,0,0,0,.32-2.06,18,18,0,0,0,.13-2.07A23.69,23.69,0,0,0,318.28,543Z"/><path class="cls-10" d="M363,573.62A46,46,0,0,0,360.1,565a56.42,56.42,0,0,0-4.29-8,58,58,0,0,0-12-13.49c-1.13-1-2.41-1.82-3.63-2.72a41.18,41.18,0,0,0-3.82-2.44c-1.29-.75-2.6-1.57-3.9-2.4-.6-.49-1.19-1-1.78-1.49s-1.05-1.15-1.57-1.72a18.34,18.34,0,0,1-3.64-8.45,23.09,23.09,0,0,1-.35-4.62,24.21,24.21,0,0,1,.51-4.62l.93.23a24,24,0,0,0-.54,4.41,23,23,0,0,0,.28,4.46,17.81,17.81,0,0,0,3.37,8.15c.5.55,1,1.13,1.49,1.66l1.69,1.45c1.24.82,2.5,1.63,3.82,2.43a41.88,41.88,0,0,1,3.82,2.51,44.64,44.64,0,0,1,3.62,2.79A58.47,58.47,0,0,1,356,556.86a56.83,56.83,0,0,1,4.19,8.09A46.08,46.08,0,0,1,363,573.62Z"/><path class="cls-10" d="M352.42,292.48c-6.2,2.83-12.36,6-18.34,9.33a196.44,196.44,0,0,0-17.43,10.9A87.84,87.84,0,0,0,301.31,326l-1.62,1.91c-.53.64-1.11,1.38-1.67,2.07a33.23,33.23,0,0,1-3.83,3.86,20.36,20.36,0,0,1-4.68,3,13.81,13.81,0,0,1-2.74.93,10.5,10.5,0,0,1-1.49.23,6.71,6.71,0,0,1-.78,0,5.91,5.91,0,0,1-.93-.08l.35,0a16.2,16.2,0,0,0-2.53.49,25.63,25.63,0,0,0-2.65.87l-1.31.5-1.29.59c-.86.4-1.74.76-2.56,1.24l-2.51,1.37c-.83.48-1.63,1-2.44,1.51-1.65,1-3.19,2.13-4.76,3.24a148,148,0,0,0-17.4,15.26c-1.39,1.35-2.66,2.82-4,4.22s-2.67,2.81-3.93,4.29L234.76,376c-1.26,1.48-2.55,2.92-3.73,4.47-2.39,3.06-4.86,6.06-7.18,9.18l-6.9,9.4-.06.08-.06.05c-4.86,4.69-9.59,9.56-14,14.66a89,89,0,0,0-6.22,7.94c-.46.7-1,1.38-1.34,2.11l-.61,1.07c-.18.37-.33.74-.5,1.11-.64,1.49-1.22,3.16-1.84,4.74a138.73,138.73,0,0,1-20.46,35.27A180.19,180.19,0,0,1,143,494.93q-8,6.36-16.53,11.93A167.17,167.17,0,0,1,108.78,517a167.62,167.62,0,0,0,17.56-10.3q8.47-5.66,16.37-12.1a179.5,179.5,0,0,0,28.39-29A137.64,137.64,0,0,0,191,430.35c.61-1.6,1.12-3.15,1.8-4.78.18-.41.34-.83.53-1.23l.63-1.14c.41-.78.9-1.49,1.37-2.21a89.36,89.36,0,0,1,6.25-8.16c4.42-5.21,9.11-10.14,14-14.94l-.12.14,6.82-9.53c2.3-3.16,4.76-6.2,7.12-9.31,1.17-1.57,2.46-3,3.71-4.55l3.76-4.5c1.26-1.51,2.62-2.91,3.92-4.38s2.61-2.93,4-4.31a149.76,149.76,0,0,1,17.54-15.72c1.59-1.17,3.16-2.36,4.86-3.4.84-.53,1.66-1.08,2.51-1.6l2.61-1.45c.85-.51,1.78-.9,2.68-1.34l1.36-.64,1.41-.55a28.09,28.09,0,0,1,2.89-1,17.44,17.44,0,0,1,3.2-.63l.34,0,.37,0c.17,0,.33,0,.51,0a8.24,8.24,0,0,0,1.07-.18,10.81,10.81,0,0,0,2.15-.76,17.29,17.29,0,0,0,4-2.66,29.31,29.31,0,0,0,3.42-3.53c.53-.66,1-1.29,1.58-2l1.7-2.07a90.84,90.84,0,0,1,15.75-14,200.19,200.19,0,0,1,17.62-11.3c6.05-3.48,12.19-6.71,18.54-9.69Z"/><path class="cls-10" d="M346.66,369.16c-11.9,3.88-22.9,12.34-28.49,23.82a44,44,0,0,0-3.26,9c-.39,1.55-.66,3.13-.92,4.72s-.51,3.25-.82,4.87a52.27,52.27,0,0,1-2.67,9.58,22.48,22.48,0,0,1-2.3,4.5,14.42,14.42,0,0,1-3.54,3.73,11.93,11.93,0,0,1-4.75,2,21.91,21.91,0,0,1-5,.33c-3.32-.14-6.55-.64-9.79-1a26.8,26.8,0,0,0-4.79-.22,13.45,13.45,0,0,0-4.57,1.16,26.09,26.09,0,0,0-7.62,5.81c-2.27,2.33-4.4,4.81-6.61,7.22a89.23,89.23,0,0,1-6.95,6.94,53.74,53.74,0,0,1-16.65,10.18,53.46,53.46,0,0,0,16.41-10.45,92,92,0,0,0,6.79-7c2.16-2.45,4.24-5,6.49-7.36a26.9,26.9,0,0,1,7.77-6.13,14.35,14.35,0,0,1,4.85-1.33,28.38,28.38,0,0,1,5,.13c3.27.26,6.52.71,9.73.78s6.44-.36,8.9-2.23a16.35,16.35,0,0,0,5.17-7.65,51.33,51.33,0,0,0,2.41-9.31c.27-1.6.5-3.2.71-4.81s.49-3.29.87-4.91a45.67,45.67,0,0,1,15.46-25.23,54.41,54.41,0,0,1,8.21-5.74,49.59,49.59,0,0,1,9.22-4.15Z"/><path class="cls-10" d="M347.81,377.52a119.74,119.74,0,0,1,13.56,20,121.11,121.11,0,0,1,9.44,22.18,98.41,98.41,0,0,1,4.32,23.7,86.68,86.68,0,0,1-.17,12.06c-.4,4-.86,7.89-1,11.87A120.51,120.51,0,0,0,376,491a181.34,181.34,0,0,0,5.79,23.12q3.64,11.36,8.42,22.34a232.6,232.6,0,0,0,10.52,21.45,231.78,231.78,0,0,1-10.85-21.31q-4.92-10.9-8.77-22.26a178.88,178.88,0,0,1-6.17-23.14,121.1,121.1,0,0,1-2.35-23.89c0-4,.47-8.07.8-12a84.78,84.78,0,0,0,0-11.82,96.73,96.73,0,0,0-4.58-23.16,119.84,119.84,0,0,0-9.59-21.61,117.83,117.83,0,0,0-13.48-19.31Z"/><path class="cls-10" d="M342.86,339.68a160.9,160.9,0,0,1,34.58,12.39,129.48,129.48,0,0,1,30.49,20.36A94,94,0,0,1,420.34,386a81.27,81.27,0,0,1,15,33.34c.32,1.5.49,3,.74,4.54l.35,2.27c.1.76.12,1.53.19,2.29.24,3.06.46,6.11.65,9.12l.61,9.07c.3,3,.72,6,1.08,9l.55,4.52c.2,1.5.51,3,.75,4.48l1.57,9c.61,3,1.3,5.93,1.94,8.89l1,4.44,1.16,4.4c.79,2.93,1.52,5.88,2.35,8.8l2.65,8.71a373.07,373.07,0,0,0,28.47,67,373.16,373.16,0,0,1-29.16-66.74l-2.74-8.71c-.86-2.91-1.62-5.86-2.44-8.79l-1.21-4.4-1-4.44c-.68-3-1.4-5.93-2-8.9l-1.66-9c-.27-1.5-.59-3-.8-4.5l-.6-4.53c-.39-3-.84-6-1.18-9.06l-.7-9.12c-.22-3-.47-6.06-.73-9-.08-.75-.1-1.51-.22-2.25l-.36-2.23c-.26-1.48-.44-3-.77-4.45a79.6,79.6,0,0,0-15-32.47A92.13,92.13,0,0,0,406.48,374a127.09,127.09,0,0,0-30.14-19.69,158.6,158.6,0,0,0-34-11.84Z"/><path class="cls-10" d="M352.94,284.5a187.07,187.07,0,0,1,24.3,7.26,110.74,110.74,0,0,1,11.66,5.15,53.06,53.06,0,0,1,10.78,7.14,23.93,23.93,0,0,1,4.4,5.07c.63,1,1,1.85,1.58,2.73s1.08,1.72,1.65,2.56a78.33,78.33,0,0,0,7.84,9.47A138.38,138.38,0,0,0,434,340l.13.09.05.06A63.26,63.26,0,0,1,442,350.3a61.05,61.05,0,0,1,5.68,11.45,47.25,47.25,0,0,1,2.81,12.49,26.19,26.19,0,0,0,.3,3,9.54,9.54,0,0,0,.92,2.66,13.16,13.16,0,0,0,3.95,4.25c1.62,1.23,3.41,2.4,5,3.85a17.14,17.14,0,0,1,4.05,5.19c2,4,2.16,8.51,1.86,12.72a72,72,0,0,1-2.25,12.46c-1,4.07-2,8.12-2.89,12.19a70.41,70.41,0,0,0-1.65,12.32,47.45,47.45,0,0,0,.23,6.19,50.71,50.71,0,0,0,1.07,6.11c1.93,8.09,5.42,15.75,9,23.27s7.6,14.89,11.61,22.23,8.1,14.65,12.2,21.94c-4.2-7.24-8.38-14.49-12.48-21.78s-8.15-14.62-11.91-22.1-7.32-15.13-9.39-23.33A52.42,52.42,0,0,1,459,449.2a48,48,0,0,1-.32-6.34,71.26,71.26,0,0,1,1.52-12.55c.82-4.12,1.79-8.19,2.74-12.27A71.49,71.49,0,0,0,465,405.81c.24-4.07-.05-8.27-1.84-11.81a15.06,15.06,0,0,0-3.69-4.58c-1.51-1.32-3.26-2.43-5-3.7a15.24,15.24,0,0,1-4.56-4.84,11.74,11.74,0,0,1-1.17-3.22,31.41,31.41,0,0,1-.37-3.23,44.76,44.76,0,0,0-2.83-11.88,59.33,59.33,0,0,0-5.6-10.93,62.53,62.53,0,0,0-7.61-9.59l.18.14a139.3,139.3,0,0,1-19.45-16.25,80.64,80.64,0,0,1-8.28-9.74c-.61-.88-1.22-1.77-1.78-2.69s-1.13-1.94-1.59-2.68a21,21,0,0,0-3.87-4.33,49.9,49.9,0,0,0-10.18-6.55A107.46,107.46,0,0,0,376,295.09a182,182,0,0,0-23.84-6.82Z"/><path class="cls-10" d="M455.56,384.68a56.42,56.42,0,0,0-2.18,12.06,30.71,30.71,0,0,0,.16,6.07,29.42,29.42,0,0,0,1.58,5.9c1.28,4.05,2.31,8.14,3.3,12.24s1.88,8.21,2.72,12.34l0,.08v.09a15.57,15.57,0,0,0,.9,6.51,20.42,20.42,0,0,0,3.26,5.85l1.1,1.29c.37.42.8.79,1.2,1.19a27.49,27.49,0,0,0,2.61,2.19c.9.68,1.89,1.25,2.83,1.89l3,1.6L473,452.49c-1-.6-2-1.14-2.92-1.8a27.7,27.7,0,0,1-2.71-2.11c-.42-.39-.88-.75-1.27-1.17l-1.17-1.27a20.86,20.86,0,0,1-3.58-5.91,16.25,16.25,0,0,1-1.2-6.9v.17c-1-4.07-2-8.14-3.16-12.18s-2.32-8.07-3.72-12a31.8,31.8,0,0,1-1.89-6.2,32.28,32.28,0,0,1-.41-6.5,58.38,58.38,0,0,1,1.83-12.78Z"/><path class="cls-10" d="M352.15,288.81a118.48,118.48,0,0,0-11.74,4.11,109.39,109.39,0,0,0-11.28,5.3A72.23,72.23,0,0,0,318.8,305a50.31,50.31,0,0,0-4.51,4.11,33.91,33.91,0,0,0-3.7,4.71L309,316.47c-.57.92-1.08,1.89-1.73,2.76l-1.86,2.66-2,2.54a110,110,0,0,1-8.71,9.45,165.43,165.43,0,0,1-19.75,16.25l.19-.16a72.8,72.8,0,0,0-10.65,14.29,61.3,61.3,0,0,0-6.61,16.55l-.42,2.19a20.36,20.36,0,0,0-.35,2.19c-.15,1.5-.33,2.9-.46,4.48a64.58,64.58,0,0,1-1.43,9.19,72.11,72.11,0,0,1-6.57,17.3,69.88,69.88,0,0,1-25.07,26.68l-3.81,2.46c-.62.42-1.28.8-1.88,1.25l-1.8,1.36-1.81,1.35c-.58.48-1.13,1-1.7,1.47l-1.7,1.49c-.57.48-1.06,1.06-1.59,1.58a53.77,53.77,0,0,0-10.36,14.63A86.2,86.2,0,0,0,193,485.52c-1.46,5.88-2.62,11.86-3.9,17.82-2.51,11.91-5.64,23.78-10.35,35.05a149.41,149.41,0,0,1-8,16.45A173.18,173.18,0,0,1,161,570.3a228.09,228.09,0,0,1-23.57,27.87A228.89,228.89,0,0,0,160.7,570.1a175.23,175.23,0,0,0,9.57-15.52,149.08,149.08,0,0,0,7.8-16.46c4.58-11.26,7.57-23.08,10-35,1.22-6,2.33-11.95,3.74-17.9a87.83,87.83,0,0,1,5.85-17.41,55.39,55.39,0,0,1,10.5-15.13c.54-.55,1-1.14,1.63-1.65l1.72-1.54c.58-.51,1.15-1,1.74-1.53l1.83-1.4,1.84-1.41c.6-.47,1.27-.86,1.9-1.29l3.84-2.54a67.81,67.81,0,0,0,24.12-26.16,69.88,69.88,0,0,0,6.19-16.81,63.3,63.3,0,0,0,1.3-8.86c.1-1.45.28-3.08.42-4.61a22.59,22.59,0,0,1,.35-2.31l.42-2.3A64.13,64.13,0,0,1,262.13,363a77,77,0,0,1,5-7.82,67.23,67.23,0,0,1,6-7.2l.07-.06.13-.1a161.83,161.83,0,0,0,19.19-16.1,107.48,107.48,0,0,0,8.36-9.26l1.9-2.45,1.74-2.55c.61-.83,1.07-1.75,1.61-2.62l1.63-2.77a36.82,36.82,0,0,1,4.06-5.28,52.06,52.06,0,0,1,4.81-4.47,75.13,75.13,0,0,1,10.77-7.2,115.51,115.51,0,0,1,11.6-5.59,123.77,123.77,0,0,1,12.12-4.38Z"/><path class="cls-10" d="M336.29,449.79a31.43,31.43,0,0,0-5.49,2.43,45.38,45.38,0,0,0-5.17,3.32,51.07,51.07,0,0,0-8.92,8.53,47.86,47.86,0,0,1-9.51,8.75,42.26,42.26,0,0,1-5.6,3.25,31.32,31.32,0,0,1-6.12,2.28l.26-.11a129.06,129.06,0,0,0-14.51,10.59,82.84,82.84,0,0,0-6.56,6.14,50.83,50.83,0,0,0-5.67,6.94,30.18,30.18,0,0,0-2.19,3.88c-.33.67-.57,1.36-.86,2.06l-.43,1.07-.51,1a20.28,20.28,0,0,1-5.87,6.94,27.18,27.18,0,0,1-8.08,4.11,34.51,34.51,0,0,1-8.89,1.63A34.61,34.61,0,0,0,251,520.8a26.92,26.92,0,0,0,7.88-4.24,19.89,19.89,0,0,0,5.57-6.89c.67-1.32,1.06-2.77,1.69-4.18a29.56,29.56,0,0,1,2.16-4,52,52,0,0,1,5.6-7.2,86.81,86.81,0,0,1,6.5-6.37,129.75,129.75,0,0,1,14.45-11.07l.09-.06.18-.05a30,30,0,0,0,5.67-2.27,39.57,39.57,0,0,0,5.27-3.23,45,45,0,0,0,8.87-8.56,54.51,54.51,0,0,1,9.13-9.15,49.15,49.15,0,0,1,5.4-3.65,34.2,34.2,0,0,1,6-2.82Z"/><path class="cls-10" d="M337.32,448.4a54.13,54.13,0,0,0,1.95,13.89A43.41,43.41,0,0,0,345,475.17,32.46,32.46,0,0,0,355.11,485a36.82,36.82,0,0,0,13.44,4.8,37.3,37.3,0,0,1-13.81-4.17A33.79,33.79,0,0,1,343.81,476a45.14,45.14,0,0,1-6.61-13.08,56.46,56.46,0,0,1-2.76-14.52Z"/><path class="cls-10" d="M341.65,334.32a49.71,49.71,0,0,0-10,1.5,29,29,0,0,0-4.75,1.66,14.71,14.71,0,0,0-4.07,2.64c-.14.14-.3.27-.43.41L322,341a7.16,7.16,0,0,0-.72.95c-.46.71-.89,1.45-1.31,2.2-.85,1.5-1.62,3.08-2.64,4.62a11.54,11.54,0,0,1-4.07,3.84,16.62,16.62,0,0,1-5.2,1.7l-1.33.22-1.32.14c-.89.11-1.77.14-2.66.18l-2.59.15a19.81,19.81,0,0,0-2.53.38,16.23,16.23,0,0,0-4.76,1.75,15,15,0,0,0-3.92,3.24c-2.27,2.58-3.69,5.82-5.19,9a18.33,18.33,0,0,1-2.74,4.49,5.61,5.61,0,0,1-2.15,1.51,6.17,6.17,0,0,1-2.59.32,6.2,6.2,0,0,0,2.56-.4,5.57,5.57,0,0,0,2-1.55,18,18,0,0,0,2.56-4.52c1.38-3.2,2.69-6.52,5-9.3a16.19,16.19,0,0,1,4-3.55,17.41,17.41,0,0,1,5-2,23.76,23.76,0,0,1,2.65-.49l2.64-.24c.86-.07,1.72-.13,2.57-.26l1.28-.18,1.25-.25a15,15,0,0,0,4.67-1.7,9.74,9.74,0,0,0,3.37-3.41c.87-1.41,1.58-3,2.4-4.58.41-.79.84-1.57,1.3-2.35a10.27,10.27,0,0,1,.81-1.17l.44-.58c.16-.18.33-.34.5-.51a16.79,16.79,0,0,1,4.57-3.22,32.17,32.17,0,0,1,5.08-2,52.64,52.64,0,0,1,10.61-1.95Z"/><path class="cls-10" d="M347.22,398c-.64,3.93-.16,8.55,2.42,11.52a9.54,9.54,0,0,0,2.25,1.89,12.58,12.58,0,0,0,2.79,1.18,16.41,16.41,0,0,0,3.07.52c1.07.11,2.08.06,3.27.09a35,35,0,0,1,13.32,3,38.81,38.81,0,0,1,11.32,7.47l-.08-.07c2.15,1.48,4.4,2.86,6.69,4.17s4.62,2.53,7,3.64a62.08,62.08,0,0,0,7.36,2.89,33.42,33.42,0,0,0,7.74,1.55,33,33,0,0,1-7.82-1.28,60.8,60.8,0,0,1-7.51-2.64c-2.45-1-4.84-2.17-7.2-3.4s-4.66-2.54-6.92-4h0l-.06-.06a37.71,37.71,0,0,0-11.14-6.78A33,33,0,0,0,361,415.32c-1,0-2.26.09-3.42,0a19.28,19.28,0,0,1-3.51-.5,15.35,15.35,0,0,1-3.4-1.32,12.24,12.24,0,0,1-2.91-2.31,13.8,13.8,0,0,1-3.2-6.55,21.07,21.07,0,0,1-.2-7.18Z"/><path class="cls-10" d="M352.82,285.05a34,34,0,0,1-2,9,40.86,40.86,0,0,1-4.2,8,62.9,62.9,0,0,1-5.47,7c-1.94,2.22-4,4.31-6,6.37-4.09,4.14-8.32,8.06-12,12.4A61.08,61.08,0,0,0,313.94,342a63,63,0,0,0-5,16.17,112.63,112.63,0,0,0-1.4,17.07c-.1,5.74,0,11.52.08,17.31,0,2.89.06,5.79-.11,8.74a52.79,52.79,0,0,1-1.28,8.74,41.2,41.2,0,0,1-7.66,15.83A74.82,74.82,0,0,1,286,438c-4.53,3.63-9.19,7.05-13.59,10.75a92.84,92.84,0,0,0-12.26,12.1,67.3,67.3,0,0,0-9,14.64c-2.49,5.2-4.68,10.56-7,15.83a99.48,99.48,0,0,1-8.21,15.29,40.12,40.12,0,0,1-12.3,12.07,40.12,40.12,0,0,0,12.1-12.2,99.26,99.26,0,0,0,8-15.35c2.3-5.3,4.4-10.68,6.83-15.95a68.5,68.5,0,0,1,8.91-14.94,94.28,94.28,0,0,1,12.23-12.4c4.39-3.8,9-7.3,13.46-11a72.92,72.92,0,0,0,12.15-12.05,39.29,39.29,0,0,0,7.13-15.24,50.57,50.57,0,0,0,1.11-8.41c.12-2.83,0-5.71,0-8.6-.13-5.77-.34-11.55-.32-17.37a115.4,115.4,0,0,1,1.19-17.48,65.62,65.62,0,0,1,5-16.94,63.9,63.9,0,0,1,9.49-14.92c3.73-4.59,7.95-8.59,11.93-12.74,2-2.07,4-4.15,5.8-6.31a61.28,61.28,0,0,0,5.08-6.71,37.32,37.32,0,0,0,3.72-7.35,29.93,29.93,0,0,0,1.63-7.92Z"/><path class="cls-10" d="M356.22,282.61a23.94,23.94,0,0,1,2.67,6.27c.6,2.07,1,4.1,1.49,6.11a98,98,0,0,0,3,11.61,26,26,0,0,0,5.61,9.73,52.13,52.13,0,0,0,9.32,7.16,84.75,84.75,0,0,1,10.21,7.32,31.5,31.5,0,0,1,7.69,10.45,42.29,42.29,0,0,1,3.34,12.34,102.73,102.73,0,0,1,.68,12.45c0,2,0,4.15-.07,6.23s-.28,4.15-.47,6.2c-.4,4.09-.88,8.13-1.07,12.14a56.61,56.61,0,0,0,0,6,31.42,31.42,0,0,0,.78,5.79,30.77,30.77,0,0,0,5,10.5c2.3,3.26,5,6.36,7.43,9.73a39.94,39.94,0,0,1,6,11.1,37.07,37.07,0,0,1,1.61,12.51,116.19,116.19,0,0,1-1.18,12.33c-1.08,8.08-1.91,16.3-4.31,24.29a49.64,49.64,0,0,1-5.38,11.23c-2.13,3.52-4.44,6.88-6.41,10.42a49.4,49.4,0,0,0-2.64,5.43,40.38,40.38,0,0,0-1.8,5.75,66.54,66.54,0,0,0-1.88,12,62.17,62.17,0,0,0,3.47,23.93c2.62,7.71,6.37,15,10.24,22.19s7.91,14.32,11.46,21.7c1.62,3.77,2.92,7.65,4.18,11.54s2.36,7.83,3.35,11.8,1.84,8,2.44,12a48.65,48.65,0,0,1,.52,12.23,48.57,48.57,0,0,0-.58-12.22c-.61-4-1.49-8-2.49-12S426.28,611,425,607.06s-2.59-7.76-4.22-11.5c-3.62-7.31-7.76-14.38-11.73-21.52s-7.84-14.41-10.59-22.17a63.27,63.27,0,0,1-3.84-24.28,66.51,66.51,0,0,1,1.75-12.24,40.78,40.78,0,0,1,1.79-6,49.12,49.12,0,0,1,2.64-5.64c3.92-7.25,9.1-13.76,11.35-21.45s2.95-15.91,3.92-24a113.37,113.37,0,0,0,1-12.1,34.66,34.66,0,0,0-1.64-11.68,37.36,37.36,0,0,0-5.77-10.3c-2.4-3.22-5.13-6.28-7.58-9.67a33.47,33.47,0,0,1-5.65-11.42,33.86,33.86,0,0,1-.94-6.33,57.49,57.49,0,0,1-.08-6.29c.13-4.17.57-8.26.91-12.31.16-2,.3-4,.38-6s0-4,0-6a103.23,103.23,0,0,0-.81-12,38.55,38.55,0,0,0-3.19-11.21,27.48,27.48,0,0,0-6.86-9.08A80.26,80.26,0,0,0,376,327a55.84,55.84,0,0,1-10.17-7.65,30.31,30.31,0,0,1-6.74-11.23,102.9,102.9,0,0,1-3.29-12.1c-.46-2-.91-3.93-1.48-5.78a19.51,19.51,0,0,0-2.15-5Z"/><path class="cls-11" d="M423.79,85.59c-11.85-9.67-18.91-3.92-21.6-.61l-.45.57a10.39,10.39,0,0,0-.82,1.26s-27.6,4.57-3.08,26.76A41.15,41.15,0,0,0,432.39,124S434.11,94,423.79,85.59Z"/><path class="cls-11" d="M406.12,75.5c3.58,23.85,34.11,9.64,34.11,9.64,21.92-12.83,26.25-51.47,26.25-51.47-22.35-10.57-51,.77-51,.77-1.33.71-2.56,1.44-3.71,2.17C404.6,16,391.08,0,391.08,0s-32.3,30.72-25,51.35a30.38,30.38,0,0,0,27,20.84h0c.83.34,3.27,2.55.94,6.86l2.29-1.31c-.39-1.37.83-3.7-1-6.35a43.36,43.36,0,0,0,6.18-3.09,32.9,32.9,0,0,0,3.79,5.37"/><path class="cls-11" d="M392.14,82.76s6.94.83,9.44,7.38c0,0-.7-6.9-9.44-9.38C389.32,80,392.14,82.76,392.14,82.76Z"/><path class="cls-11" d="M395.35,162.37A89.84,89.84,0,0,0,393.41,176a41.93,41.93,0,0,0-9-9.89h0a21.87,21.87,0,0,0-5.25,24.26c6.19,16.44-3.19,29,20.38,42.14,0,0,8.7-9.33.21-27.66a33.63,33.63,0,0,1-3.45-14.32c2.36,4,5.64,6.66,7.73,12.71C414.79,234.39,429.62,233,429.62,233c-5.54-52-30-68.49-33.81-70.74"/><path class="cls-11" d="M401.24,155.36h0c-.59,3.33-3,21.82,15.6,24,0,0,0,17.48,12.86,23.14,0,0,2.1,23,28.67,18.76,0,0-2.46-15.85-12.55-25.07-8.46-7.74-1.21-11.64-15.44-20-10-5.91-2-19.38-27.44-21.27A7.93,7.93,0,0,0,401.24,155.36Z"/><path class="cls-11" d="M384.89,157.88a94.7,94.7,0,0,0-27,50.25l.84,7.13c4-26.38,16.77-45.89,27.41-55.47,5.39-4.86,10.43-7.19,15-3.35,1.7,1.45,1.88-.27,1.83-.3C399.78,153.24,394.27,148.9,384.89,157.88Z"/><path class="cls-11" d="M358.05,208.9c-.82-29.2-2.07-85.31-2.07-85.31,24.07-41.77,55.16-51,55.16-51L411,71.56c-30,6.61-56.4,46.34-56.4,46.34C353.51,97,351.29,88,351.29,88c-.43-.47-.84-1-1.25-1.43,2.37-2.71,4.5-8.33,2.3-10-4.76-3.53-5.31,2.3-5.22,6.35a86.43,86.43,0,0,1-14.69-31.18c.26-2.08,1.51-5.12,5.32-9.1,10.84,13,12.44-8.24,12.44-8.24l1.1-13.77S341.14,21.68,336,26.34a24.32,24.32,0,0,0-1.19-4.56C329.64,7.54,313.12.71,313.12.71s-3.14,17.08-1,29.08c-.46,0-.73,0-.73,0s-8.41,1.44-16.45,13.93c0,0,23.92,22.31,33,4.47a19.89,19.89,0,0,0,1.43-3.52,61,61,0,0,0,.9,8,7.37,7.37,0,0,0,.14.77h0c3.6,18.79,14.88,32.75,14.88,32.75,3.69,9,5.29,42.09,5.86,78.84-19.25-28.48-29.85-43.76-44.26-50.28a37.94,37.94,0,0,0-.64-4.71c6.56.36,23.85-.18,23.65-15.88a50.44,50.44,0,0,0-12.27-31.89S287.93,75.82,290,92.37c-1.41-8.63-6.72-18.43-23.57-18.54-30.19-.21-35.32,12.68-35.32,12.68s5.13,23.74,25.64,37.61a18,18,0,0,0,9.6,3.41c-5.44,12.84-.49,28-.49,28s18.8,14.93,35.31-6.72c15.49-20.29-2.07-26.84-4.32-27.58,2.28-1.6,7.61-4.11,12.65-2.35,17.74,8.15,35,40.33,41.71,49.49l0,2.49c-2.81-.91-7.47-1.71-11.17,1.14-29.32-2.05-30.17,23.11-30.17,23.11-26.87,9.68-23,39.71-23,39.71,29.05-7.4,30.7-31.33,30.7-31.33a54.11,54.11,0,0,0,5.42-3.42h0s4.32,10.82-1.94,29.66,5.69,27.1,5.69,27.1c27.34-21.85,6.84-27.14,15.34-44.41s-2.94-31.5-2.94-31.51c1.08-2.31,1.24-5.55,1.69-7.06,3.6-3.71,7.34-2.21,10.39.44.6,54-2.62,111.82-2.62,111.82l9.49-.87c1.08-46.07,1.3-41.63.59-70ZM329.46,38.47c0-.13-.09-.25-.14-.37l.17,0A2.73,2.73,0,0,0,329.46,38.47Zm.62-.61a9.81,9.81,0,0,0,3.44-2.21,18.61,18.61,0,0,0,2.63,4.91c.39.55.78,1.06,1.16,1.53a19.78,19.78,0,0,0-5.8,5.57A84.34,84.34,0,0,1,330.08,37.86Zm-33.85,82.6c-1.1-1.84-4.57-6.81-10.31-7.45,1.08-1.81,1.94-3.48,2.57-4.8,4.92.67,10.17,2.85,16.29,7.69C303.55,115,300.12,116.6,296.23,120.46Zm-7.48-12.8c.67-1.44,1-2.35,1-2.35a38.67,38.67,0,0,0,.37-11.88c2.42,15.53,13.62,16.35,13.62,16.35l1,.11a7.08,7.08,0,0,0,.6,3.76C296.88,108.09,291.45,107.46,288.75,107.66Z"/><path class="cls-11" d="M376.83,170.14c5.26-6.83,6.9-4.34,7.9-2.7a5.45,5.45,0,0,1,.8,2.7c-.28-10.34-6.94-3.39-6.94-3.39Z"/><path class="cls-11" d="M380.87,164.7c11-7.71,13.09-3.23,15.14-1.11.77.8,1.19.71,1.19.71-3.32-9.56-14.4-2.05-14.4-2.05Z"/></g></g></g></svg>