<svg xmlns="http://www.w3.org/2000/svg" viewBox="0 0 1169 1063.33"><defs><style>.cls-1,.cls-27{font-size:30px;}.cls-1,.cls-27,.cls-35,.cls-48{fill:#5c5052;}.cls-1,.cls-29,.cls-48{font-family:Acre-Light, Acre;font-weight:300;}.cls-2,.cls-20{letter-spacing:-0.02em;}.cls-19,.cls-3{letter-spacing:-0.01em;}.cls-4{letter-spacing:-0.02em;}.cls-5{letter-spacing:0em;}.cls-6{letter-spacing:-0.01em;}.cls-7{letter-spacing:0em;}.cls-8{letter-spacing:-0.01em;}.cls-9{letter-spacing:-0.07em;}.cls-10{letter-spacing:-0.01em;}.cls-11{letter-spacing:-0.07em;}.cls-12{letter-spacing:-0.01em;}.cls-13{letter-spacing:-0.01em;}.cls-14,.cls-21{letter-spacing:-0.02em;}.cls-15,.cls-16{letter-spacing:-0.03em;}.cls-16,.cls-17,.cls-18,.cls-19,.cls-20,.cls-21,.cls-24{font-family:Acre-Bold, Acre;font-weight:700;}.cls-17{letter-spacing:-0.03em;}.cls-22{letter-spacing:-0.1em;}.cls-23,.cls-24{fill:#f17243;}.cls-24{font-size:40.24px;}.cls-25{letter-spacing:-0.01em;}.cls-26{letter-spacing:-0.02em;}.cls-27{font-family:Acre-Semibold, Acre;font-weight:600;}.cls-28{letter-spacing:-0.02em;}.cls-30{fill:#eb6a7c;}.cls-31,.cls-37{fill:#336db4;}.cls-32,.cls-34,.cls-36,.cls-49{fill:none;}.cls-32,.cls-34,.cls-36{stroke:#ffcd01;}.cls-32,.cls-34,.cls-36,.cls-37,.cls-49{stroke-miterlimit:10;}.cls-32{stroke-width:4.8px;}.cls-33{fill:#ffcd01;}.cls-34{stroke-width:5.23px;}.cls-36{stroke-width:4.36px;}.cls-37{stroke:#fff;stroke-width:0.87px;}.cls-38{letter-spacing:-0.01em;}.cls-39{letter-spacing:0em;}.cls-40{letter-spacing:0em;}.cls-41{letter-spacing:-0.02em;}.cls-42{letter-spacing:-0.01em;}.cls-43{letter-spacing:0.01em;}.cls-44{letter-spacing:-0.03em;}.cls-45{letter-spacing:-0.01em;}.cls-46{letter-spacing:-0.02em;}.cls-47,.cls-48{font-size:31px;}.cls-49{stroke:#5c5052;stroke-width:0.76px;}</style></defs><g id="Layer_2" data-name="Layer 2"><g id="Layer_1-2" data-name="Layer 1"><text class="cls-1" transform="translate(62.56 795.54)">“if all t<tspan class="cls-2" x="85.47" y="0">h</tspan><tspan x="102.15" y="0">e </tspan><tspan class="cls-3" x="129.45" y="0">m</tspan><tspan x="155.22" y="0">at</tspan><tspan class="cls-4" x="182.04" y="0">t</tspan><tspan x="189.75" y="0">er in t</tspan><tspan class="cls-2" x="269.46" y="0">h</tspan><tspan x="286.14" y="0">e un</tspan><tspan class="cls-5" x="347.63" y="0">i</tspan><tspan class="cls-3" x="355.01" y="0">v</tspan><tspan x="369.62" y="0">e</tspan><tspan class="cls-6" x="386.57" y="0">r</tspan><tspan class="cls-7" x="395.39" y="0">s</tspan><tspan class="cls-8" x="407.54" y="0">e</tspan><tspan x="424.34" y="0">..</tspan><tspan class="cls-9" x="433.76" y="0">.</tspan><tspan class="cls-3" x="436.46" y="0">w</tspan><tspan x="459.89" y="0">e</tspan><tspan class="cls-4" x="476.84" y="0">r</tspan><tspan x="485.36" y="0">e s</tspan><tspan class="cls-2" x="524.9" y="0">w</tspan><tspan x="548.33" y="0">e</tspan><tspan class="cls-10" x="565.28" y="0">p</tspan><tspan x="583.37" y="0">t a</tspan><tspan class="cls-3" x="620.54" y="0">w</tspan><tspan x="643.97" y="0">a</tspan><tspan class="cls-11" x="662.48" y="0">y</tspan><tspan x="675.05" y="0">, our</tspan><tspan class="cls-12" x="734.66" y="0"> </tspan><tspan class="cls-2" x="744.77" y="0">w</tspan><tspan x="768.2" y="0">orld</tspan><tspan class="cls-13" x="820.67" y="0"> </tspan><tspan class="cls-2" x="830.78" y="0">w</tspan><tspan x="854.21" y="0">ould </tspan><tspan class="cls-14" x="925" y="0">s</tspan><tspan x="936.73" y="0">till be </tspan><tspan class="cls-4" x="134.14" y="51.85">r</tspan><tspan x="142.66" y="51.85">ecogni</tspan><tspan class="cls-15" x="236.65" y="51.85">z</tspan><tspan x="249.13" y="51.85">abl</tspan><tspan class="cls-5" x="292.93" y="51.85">e</tspan><tspan x="309.73" y="51.85">…</tspan><tspan class="cls-16" x="325.66" y="51.85">b</tspan><tspan class="cls-17" x="343.21" y="51.85">y</tspan><tspan class="cls-18" x="358.6" y="51.85" xml:space="preserve"> a film </tspan><tspan class="cls-19" x="459.61" y="51.85">o</tspan><tspan class="cls-18" x="476.83" y="51.85">f nema</tspan><tspan class="cls-20" x="575.97" y="51.85">t</tspan><tspan class="cls-18" x="585.87" y="51.85">od</tspan><tspan class="cls-21" x="621.99" y="51.85">e</tspan><tspan class="cls-18" x="638.19" y="51.85">s</tspan><tspan class="cls-22" x="651.66" y="51.85">”</tspan><tspan x="657.21" y="51.85" xml:space="preserve">  - </tspan><tspan class="cls-2" x="700.77" y="51.85">n</tspan><tspan x="717.42" y="51.85">at</tspan><tspan class="cls-3" x="744.24" y="51.85">h</tspan><tspan x="760.92" y="51.85">an cobb</tspan></text><path class="cls-23" d="M544.71,13.82s3.87,9.21,14,8.78,9.68-10.67,9.68-10.67-.15-9.31-8.92-9.31-9.38,6.51-9.53,8c0,0-.53,6.81,7.41,7.8,0,0,7.4.34,7.64-6.51,0,0,.13-5.9-5.42-5.73a3.82,3.82,0,0,0-3.26,1.69s-.47,1.11.71.57a3.41,3.41,0,0,1,5,1.38s2.09,4.2-2.89,5.48c0,0-4.94,1.24-6-3.4a5.14,5.14,0,0,1,3.44-5.92C562.12,3.74,564.6,9,564.6,9s2.69,4.11-1.61,8.55c0,0-4.57,4.61-11,.67a20.45,20.45,0,0,1-5.15-3.63S544.62,12.63,544.71,13.82Z"/><path class="cls-23" d="M575.66,17.05s3.87,9.2,14,8.78,9.68-10.68,9.68-10.68-.15-9.3-8.92-9.3-9.38,6.5-9.53,7.94c0,0-.53,6.81,7.41,7.8,0,0,7.4.35,7.63-6.51,0,0,.13-5.89-5.41-5.72A3.8,3.8,0,0,0,587.25,11s-.47,1.11.71.57A3.41,3.41,0,0,1,593,13s2.09,4.2-2.89,5.48c0,0-4.94,1.25-6-3.39a5.14,5.14,0,0,1,3.43-5.93c5.57-2.18,8.06,3.07,8.06,3.07s2.69,4.1-1.61,8.54c0,0-4.57,4.61-11,.67a20.48,20.48,0,0,1-5.14-3.63S575.57,15.86,575.66,17.05Z"/><path class="cls-23" d="M594.6,39.38s3.11-9.49-4.82-15.81-14.29,1.71-14.29,1.71-6,7.14.64,12.89,11.34,1.23,12.4.24c0,0,4.86-4.79-.49-10.74,0,0-5.36-5.12-10-.1,0,0-4,4.37.34,7.88a3.81,3.81,0,0,0,3.56.87s1.09-.53-.15-.9a3.42,3.42,0,0,1-2.88-4.33s1.17-4.54,5.77-2.24c0,0,4.55,2.3,2.32,6.51a5.14,5.14,0,0,1-6.47,2.22c-5.64-2-4.08-7.6-4.08-7.6s.65-4.86,6.81-5.4c0,0,6.47-.48,8.76,6.73a20.69,20.69,0,0,1,1.51,6.11S593.89,40.34,594.6,39.38Z"/><path class="cls-23" d="M565.85,32.89s-4.16,6.2.27,12.37,10.65,1.68,10.65,1.68,5.76-3.92,2.15-9.42-7.92-3.2-8.89-2.7c0,0-4.47,2.47-1.82,7.85,0,0,2.82,4.78,7.21,2.11,0,0,3.73-2.34,1.35-5.75a2.85,2.85,0,0,0-2.39-1.35s-.89.16-.07.68a2.55,2.55,0,0,1,1.19,3.7s-1.77,3-4.61.44c0,0-2.81-2.58-.35-5.16a3.83,3.83,0,0,1,5.11-.28,4.67,4.67,0,0,1,1.4,6.31s-1.46,3.37-6,2.5a6.66,6.66,0,0,1-5-6.63,15.55,15.55,0,0,1,.16-4.72S566.56,32.34,565.85,32.89Z"/><path class="cls-23" d="M574.71,45.58S570.54,51.79,575,58s10.65,1.67,10.65,1.67,5.76-3.92,2.15-9.41-7.92-3.2-8.88-2.71c0,0-4.48,2.47-1.83,7.85,0,0,2.82,4.78,7.21,2.11,0,0,3.74-2.34,1.35-5.74a2.85,2.85,0,0,0-2.39-1.36s-.89.17-.07.68a2.57,2.57,0,0,1,1.2,3.71s-1.77,3-4.62.44c0,0-2.81-2.58-.35-5.17a3.85,3.85,0,0,1,5.12-.28,4.67,4.67,0,0,1,1.4,6.31s-1.46,3.37-6,2.5A6.64,6.64,0,0,1,575,51.93a15.49,15.49,0,0,1,.16-4.71S575.42,45,574.71,45.58Z"/><path class="cls-23" d="M569.25,39.38s3.11-9.49-4.81-15.81-14.3,1.71-14.3,1.71-6,7.13.65,12.89,11.34,1.23,12.39.24c0,0,4.86-4.79-.49-10.75,0,0-5.36-5.11-10-.09,0,0-3.95,4.37.34,7.88a3.8,3.8,0,0,0,3.57.86s1.08-.53-.16-.89a3.42,3.42,0,0,1-2.88-4.33s1.18-4.54,5.77-2.24c0,0,4.55,2.3,2.32,6.51a5.13,5.13,0,0,1-6.47,2.22c-5.64-2-4.08-7.6-4.08-7.6s.66-4.86,6.81-5.4c0,0,6.47-.48,8.77,6.73a20.48,20.48,0,0,1,1.5,6.11S568.55,40.34,569.25,39.38Z"/><path class="cls-23" d="M571.83,14.15S565,16,564.33,23.21,571,31.06,571,31.06s6.58.76,7.4-5.44-3.71-7.24-4.71-7.48c0,0-4.76-1-6.2,4.51,0,0-.94,5.2,3.88,6,0,0,4.15.64,4.55-3.29a2.71,2.71,0,0,0-.89-2.46s-.73-.44-.46.44a2.44,2.44,0,0,1-1.45,3.41s-3.16,1.08-3.6-2.56c0,0-.41-3.61,3-3.93a3.65,3.65,0,0,1,3.85,3,4.43,4.43,0,0,1-2.91,5.41s-3.15,1.52-5.88-1.94a6.32,6.32,0,0,1,.56-7.86,14.84,14.84,0,0,1,3-3.29S572.68,14.19,571.83,14.15Z"/><path class="cls-23" d="M549.73.4S543-1.75,538.51,3.94s1.31,10.18,1.31,10.18,5.11,4.22,9.17-.54.8-8.1.09-8.84c0,0-3.44-3.44-7.65.42,0,0-3.6,3.85,0,7.15,0,0,3.13,2.79,5.61-.29a2.74,2.74,0,0,0,.59-2.55s-.38-.77-.64.12a2.43,2.43,0,0,1-3.06,2.08s-3.24-.81-1.63-4.1c0,0,1.61-3.26,4.62-1.7a3.66,3.66,0,0,1,1.62,4.6,4.43,4.43,0,0,1-5.38,3s-3.47-.44-3.89-4.82A6.34,6.34,0,0,1,544,2.31a14.67,14.67,0,0,1,4.35-1.11S550.42.9,549.73.4Z"/><path class="cls-23" d="M584.11,9.88s-1.41-7-8.54-8.1-8.26,6.09-8.26,6.09-1.21,6.52,4.92,7.76,7.47-3.23,7.77-4.21c0,0,1.33-4.68-4.07-6.49,0,0-5.12-1.29-6.26,3.47,0,0-.92,4.1,3,4.76a2.71,2.71,0,0,0,2.52-.71s.48-.71-.42-.5a2.43,2.43,0,0,1-3.3-1.67s-.86-3.23,2.79-3.43c0,0,3.63-.17,3.72,3.23a3.65,3.65,0,0,1-3.23,3.65,4.44,4.44,0,0,1-5.2-3.28s-1.3-3.24,2.33-5.74a6.32,6.32,0,0,1,7.8,1.09,14.69,14.69,0,0,1,3.08,3.26S584,10.73,584.11,9.88Z"/><path class="cls-23" d="M553.16,22.28s-1.41-7-8.54-8.11-8.26,6.09-8.26,6.09-1.2,6.52,4.92,7.76,7.47-3.22,7.78-4.21c0,0,1.32-4.68-4.08-6.49,0,0-5.12-1.29-6.25,3.47,0,0-.92,4.1,3,4.76a2.71,2.71,0,0,0,2.52-.71s.48-.71-.42-.5a2.43,2.43,0,0,1-3.3-1.67s-.86-3.23,2.79-3.42c0,0,3.63-.17,3.72,3.22a3.65,3.65,0,0,1-3.23,3.65,4.44,4.44,0,0,1-5.2-3.27s-1.3-3.25,2.33-5.75a6.33,6.33,0,0,1,7.8,1.09,14.69,14.69,0,0,1,3.08,3.26S553.06,23.12,553.16,22.28Z"/><path class="cls-23" d="M501.11,53.31s9.65,2.55,15.48-5.74S514,33.38,514,33.38s-7.46-5.55-12.81,1.41-.56,11.4.49,12.4c0,0,5.07,4.57,10.69-1.13,0,0,4.78-5.66-.5-10,0,0-4.59-3.69-7.84.81a3.83,3.83,0,0,0-.65,3.62s.59,1,.88-.22a3.42,3.42,0,0,1,4.15-3.13s4.6.91,2.58,5.64c0,0-2,4.68-6.36,2.7a5.13,5.13,0,0,1-2.59-6.34c1.66-5.75,7.33-4.52,7.33-4.52s4.89.36,5.78,6.48c0,0,.87,6.44-6.18,9.16a20.64,20.64,0,0,1-6,1.87S500.11,52.66,501.11,53.31Z"/><path class="cls-23" d="M522.53,30.72S532.18,33.26,538,25s-2.55-14.19-2.55-14.19S528,5.23,522.65,12.19s-.56,11.41.48,12.4c0,0,5.08,4.58,10.69-1.12,0,0,4.79-5.66-.5-10,0,0-4.58-3.7-7.83.81a3.79,3.79,0,0,0-.65,3.61s.59,1.05.88-.21a3.42,3.42,0,0,1,4.14-3.14s4.6.91,2.58,5.64c0,0-2,4.68-6.35,2.7a5.14,5.14,0,0,1-2.6-6.33c1.67-5.76,7.34-4.53,7.34-4.53s4.89.37,5.78,6.49c0,0,.86,6.43-6.18,9.16a20.75,20.75,0,0,1-6,1.86S521.53,30.07,522.53,30.72Z"/><path class="cls-23" d="M551.76,29.3s-5.62-8.25-15.46-5.81S529,35.88,529,35.88s2,9.09,10.59,7.34,7.89-8.25,7.76-9.69c0,0-.84-6.78-8.82-6.16,0,0-7.32,1.13-6.18,7.9,0,0,1,5.8,6.44,4.53a3.81,3.81,0,0,0,2.86-2.3s.24-1.18-.8-.42a3.42,3.42,0,0,1-5.19-.35s-2.88-3.71,1.74-5.95c0,0,4.6-2.21,6.58,2.13a5.15,5.15,0,0,1-2.19,6.49c-5,3.25-8.51-1.4-8.51-1.4s-3.45-3.48-.12-8.69c0,0,3.56-5.43,10.67-2.86A20.72,20.72,0,0,1,549.54,29S552.09,30.45,551.76,29.3Z"/><path class="cls-23" d="M529.1,48.16s2.37,7.09,10,7.33,7.82-7.43,7.82-7.43.4-7-6.15-7.45S533.37,45,533.18,46c0,0-.78,5,5.09,6.23,0,0,5.51.67,6.07-4.43,0,0,.42-4.4-3.73-4.58a2.83,2.83,0,0,0-2.52,1.08s-.42.8.49.46a2.56,2.56,0,0,1,3.66,1.31s1.33,3.26-2.46,3.93c0,0-3.76.66-4.3-2.87a3.84,3.84,0,0,1,2.89-4.23,4.67,4.67,0,0,1,5.85,2.74S546,48.87,542.54,52a6.65,6.65,0,0,1-8.27-.11,15.43,15.43,0,0,1-3.64-3S529.09,47.26,529.1,48.16Z"/><path class="cls-23" d="M536.31,49.41s-5.62-8.24-15.46-5.81S513.5,56,513.5,56s2,9.09,10.59,7.34,7.89-8.25,7.76-9.69c0,0-.84-6.78-8.82-6.16,0,0-7.32,1.14-6.18,7.91,0,0,1,5.8,6.44,4.52a3.79,3.79,0,0,0,2.86-2.29s.24-1.19-.8-.42a3.42,3.42,0,0,1-5.19-.36s-2.88-3.7,1.74-6c0,0,4.6-2.2,6.57,2.13a5.14,5.14,0,0,1-2.18,6.49c-5,3.25-8.51-1.39-8.51-1.39s-3.45-3.49-.12-8.7c0,0,3.56-5.42,10.67-2.86a20.55,20.55,0,0,1,5.76,2.54S536.64,50.56,536.31,49.41Z"/><path class="cls-23" d="M517.9,32s-2.7,6.58,2.6,11.48S530.75,43,530.75,43s4.62-4.76.21-9.19-8-1.47-8.8-.82c0,0-3.7,3.16-.2,7.67,0,0,3.54,3.91,7.12.58,0,0,3-2.9.16-5.61a2.69,2.69,0,0,0-2.48-.8s-.8.32.06.64a2.44,2.44,0,0,1,1.83,3.22s-1.08,3.17-4.22,1.3c0,0-3.12-1.87-1.31-4.75A3.65,3.65,0,0,1,527.83,34a4.45,4.45,0,0,1,2.51,5.61s-.72,3.43-5.12,3.48a6.32,6.32,0,0,1-5.89-5.23,14.69,14.69,0,0,1-.75-4.43S518.45,31.34,517.9,32Z"/><path class="cls-23" d="M489.58,43.85s-2.7,6.58,2.6,11.49,10.25-.48,10.25-.48,4.62-4.76.21-9.19-8-1.46-8.8-.82c0,0-3.7,3.16-.2,7.67,0,0,3.54,3.91,7.12.58,0,0,3-2.89.16-5.61a2.7,2.7,0,0,0-2.49-.8s-.79.32.07.64a2.44,2.44,0,0,1,1.82,3.23s-1.07,3.16-4.22,1.29c0,0-3.11-1.87-1.31-4.75a3.67,3.67,0,0,1,4.72-1.24,4.44,4.44,0,0,1,2.5,5.61s-.71,3.43-5.12,3.49A6.33,6.33,0,0,1,491,49.72a14.6,14.6,0,0,1-.75-4.42S490.13,43.21,489.58,43.85Z"/><path class="cls-23" d="M522,19.65s-6.38-3.14-11.63,1.83-.21,10.27-.21,10.27,4.43,4.93,9.15.83,2-7.89,1.4-8.74c0,0-2.9-3.91-7.62-.72,0,0-4.14,3.28-1.07,7.08,0,0,2.69,3.23,5.59.54a2.7,2.7,0,0,0,1-2.43s-.26-.82-.64,0a2.44,2.44,0,0,1-3.34,1.6s-3.08-1.28-1-4.3c0,0,2.08-3,4.82-1a3.65,3.65,0,0,1,.92,4.79,4.43,4.43,0,0,1-5.76,2.13s-3.36-.94-3.12-5.35a6.32,6.32,0,0,1,5.61-5.52,14.64,14.64,0,0,1,4.46-.45S522.61,20.25,522,19.65Z"/><path class="cls-23" d="M509.66,79.74s7.58,6.49,16.44,1.57S530,67.42,530,67.42s-4.3-8.25-12.14-4.31-5.46,10-5,11.38c0,0,2.57,6.33,10.11,3.64,0,0,6.77-3,3.91-9.25,0,0-2.52-5.32-7.4-2.68a3.79,3.79,0,0,0-2.16,3s.07,1.2.88.19a3.42,3.42,0,0,1,5.1-1s3.74,2.82-.13,6.19c0,0-3.86,3.33-6.9-.33a5.14,5.14,0,0,1,.42-6.84c4-4.45,8.57-.88,8.57-.88s4.24,2.46,2.39,8.36c0,0-2,6.17-9.55,5.55a20.49,20.49,0,0,1-6.22-.93S509,78.72,509.66,79.74Z"/><path class="cls-23" d="M538.77,68.73s7.57,6.49,16.43,1.56,3.87-13.88,3.87-13.88-4.31-8.25-12.14-4.31-5.47,10-5,11.38c0,0,2.58,6.32,10.12,3.64,0,0,6.76-3,3.9-9.25,0,0-2.52-5.32-7.4-2.68a3.81,3.81,0,0,0-2.16,3s.08,1.21.89.2a3.42,3.42,0,0,1,5.09-1s3.75,2.83-.12,6.2c0,0-3.86,3.33-6.9-.33a5.14,5.14,0,0,1,.42-6.84c4-4.45,8.57-.88,8.57-.88s4.24,2.46,2.38,8.36c0,0-2,6.17-9.55,5.55a20.33,20.33,0,0,1-6.22-.94S538.15,67.71,538.77,68.73Z"/><path class="cls-23" d="M565.7,145.18s-1.48-9.88-11.39-12-12,7.95-12,7.95-2.15,9.06,6.35,11.23,10.69-4,11.19-5.35c0,0,2.19-6.47-5.26-9.39,0,0-7.08-2.16-9,4.43,0,0-1.58,5.67,3.83,6.88a3.8,3.8,0,0,0,3.58-.83s.73-.95-.55-.72a3.42,3.42,0,0,1-4.51-2.58s-1-4.59,4.16-4.6c0,0,5.09,0,5,4.78a5.14,5.14,0,0,1-4.79,4.89c-5.94.74-7.06-5-7.06-5s-1.59-4.64,3.67-7.88c0,0,5.57-3.33,10.85,2.07a20.66,20.66,0,0,1,4.09,4.8S565.5,146.35,565.7,145.18Z"/><path class="cls-23" d="M544.36,84.79s-.94,7.42,5.78,10.95,10.27-3.29,10.27-3.29,3.39-6.09-2.29-9.38-8.52.7-9.16,1.57c0,0-2.89,4.22,1.89,7.84,0,0,4.66,3,7.38-1.35,0,0,2.3-3.77-1.36-5.75a2.85,2.85,0,0,0-2.74-.13s-.72.54.24.64a2.56,2.56,0,0,1,2.73,2.77s-.23,3.51-3.93,2.47c0,0-3.67-1-2.63-4.46A3.85,3.85,0,0,1,555,84.12a4.66,4.66,0,0,1,4.07,5s.21,3.67-4.24,4.93a6.64,6.64,0,0,1-7.4-3.7,15.33,15.33,0,0,1-2-4.28S544.75,84,544.36,84.79Z"/><path class="cls-23" d="M543,91.56s-1.47-9.87-11.38-12-12,8-12,8-2.15,9,6.35,11.22,10.69-4,11.2-5.34c0,0,2.19-6.47-5.26-9.39,0,0-7.08-2.17-9,4.42,0,0-1.58,5.68,3.84,6.88a3.8,3.8,0,0,0,3.57-.82s.73-1-.54-.73a3.42,3.42,0,0,1-4.51-2.57s-1-4.59,4.15-4.6c0,0,5.09,0,5,4.78a5.14,5.14,0,0,1-4.79,4.89c-5.94.74-7-5-7-5s-1.59-4.64,3.67-7.88c0,0,5.57-3.34,10.85,2.07a20.56,20.56,0,0,1,4.08,4.79S542.84,92.74,543,91.56Z"/><path class="cls-23" d="M534,67.85s-5.29,4.75-2.64,11.48,9.43,4,9.43,4,6.23-2.27,4.18-8.19-6.56-4.8-7.56-4.57c0,0-4.71,1.23-3.52,6.81,0,0,1.49,5.07,6.16,3.64,0,0,4-1.29,2.59-5a2.71,2.71,0,0,0-1.89-1.8s-.86-.06-.22.6a2.45,2.45,0,0,1,.23,3.7s-2.34,2.39-4.36-.67c0,0-2-3,.89-4.85a3.65,3.65,0,0,1,4.78.94,4.45,4.45,0,0,1-.18,6.15s-2.14,2.76-6.13.9a6.33,6.33,0,0,1-3-7.27A14.68,14.68,0,0,1,534,69.45S534.82,67.51,534,67.85Z"/><path class="cls-23" d="M503.39,66.19s-5.29,4.75-2.65,11.48,9.43,4,9.43,4,6.23-2.27,4.19-8.19-6.57-4.8-7.57-4.57c0,0-4.7,1.23-3.52,6.82,0,0,1.49,5.06,6.16,3.63,0,0,4-1.29,2.59-5a2.71,2.71,0,0,0-1.89-1.8s-.86-.06-.22.61a2.43,2.43,0,0,1,.24,3.69s-2.35,2.39-4.37-.67c0,0-2-3,.89-4.84a3.65,3.65,0,0,1,4.78.93,4.45,4.45,0,0,1-.18,6.15s-2.13,2.76-6.12.9a6.32,6.32,0,0,1-3-7.27,14.86,14.86,0,0,1,1.24-4.32S504.17,65.85,503.39,66.19Z"/><path class="cls-23" d="M543.1,58.53s-4.38-5.6-11.26-3.41-4.65,9.15-4.65,9.15S529,70.64,535.06,69s5.23-6.23,5.07-7.25c0,0-.91-4.78-6.56-4,0,0-5.15,1.14-4,5.91,0,0,1,4.07,4.79,2.91a2.7,2.7,0,0,0,1.93-1.76s.12-.85-.59-.26a2.44,2.44,0,0,1-3.7,0s-2.22-2.5,1-4.32c0,0,3.16-1.78,4.77,1.21a3.67,3.67,0,0,1-1.26,4.72,4.43,4.43,0,0,1-6.11-.6s-2.61-2.31-.49-6.17a6.32,6.32,0,0,1,7.46-2.53,14.61,14.61,0,0,1,4.21,1.53S543.39,59.33,543.1,58.53Z"/><path class="cls-23" d="M569.53,64.4s-4.38-5.6-11.26-3.41-4.66,9.15-4.66,9.15,1.85,6.38,7.88,4.73,5.23-6.23,5.06-7.25c0,0-.91-4.78-6.55-4,0,0-5.15,1.15-4,5.91,0,0,1,4.07,4.79,2.92a2.72,2.72,0,0,0,1.93-1.77s.11-.85-.59-.26a2.44,2.44,0,0,1-3.71,0s-2.21-2.5,1-4.31c0,0,3.16-1.78,4.77,1.2a3.67,3.67,0,0,1-1.26,4.72,4.43,4.43,0,0,1-6.11-.59s-2.62-2.32-.49-6.18a6.31,6.31,0,0,1,7.45-2.53,14.63,14.63,0,0,1,4.22,1.53S569.82,65.21,569.53,64.4Z"/><path class="cls-23" d="M521,83.5s-4.38-5.6-11.26-3.41-4.65,9.15-4.65,9.15S506.92,95.61,513,94s5.23-6.23,5.07-7.25c0,0-.91-4.78-6.56-4,0,0-5.15,1.15-4,5.91,0,0,1,4.07,4.79,2.92a2.72,2.72,0,0,0,1.93-1.77s.12-.85-.59-.26a2.44,2.44,0,0,1-3.7,0s-2.22-2.5,1-4.31c0,0,3.16-1.79,4.77,1.2a3.67,3.67,0,0,1-1.26,4.72,4.43,4.43,0,0,1-6.11-.59s-2.61-2.32-.49-6.18a6.32,6.32,0,0,1,7.46-2.53,14.61,14.61,0,0,1,4.21,1.53S521.28,84.3,521,83.5Z"/><path class="cls-23" d="M496.49,130S506.25,128,507.75,118s-8.63-11.53-8.63-11.53-9.16-1.61-10.82,7,4.61,10.44,6,10.86c0,0,6.58,1.81,9-5.8,0,0,1.74-7.21-4.94-8.74,0,0-5.76-1.24-6.64,4.24,0,0-.5,2.27,1,3.52,0,0,1,.67.7-.58a3.43,3.43,0,0,1,2.3-4.67s4.52-1.25,4.83,3.88c0,0,.29,5.09-4.47,5.27a5.13,5.13,0,0,1-5.16-4.5c-1.09-5.88,4.53-7.34,4.53-7.34s4.53-1.86,8.08,3.21c0,0,3.65,5.36-1.43,11a20.69,20.69,0,0,1-4.54,4.37S495.31,129.91,496.49,130Z"/><path class="cls-23" d="M497.4,104.8s9.76-2.06,11.26-12.09S500,81.18,500,81.18s-9.16-1.61-10.83,7,4.62,10.44,6,10.86c0,0,6.58,1.82,9.05-5.8,0,0,1.74-7.21-4.94-8.74,0,0-5.76-1.24-6.64,4.24a3.8,3.8,0,0,0,1,3.52s1,.67.7-.58A3.43,3.43,0,0,1,496.7,87s4.52-1.25,4.83,3.88c0,0,.28,5.09-4.47,5.27a5.13,5.13,0,0,1-5.16-4.5c-1.09-5.88,4.53-7.33,4.53-7.33s4.53-1.87,8.07,3.2c0,0,3.66,5.36-1.42,11a20.69,20.69,0,0,1-4.54,4.37S496.22,104.67,497.4,104.8Z"/><path class="cls-23" d="M522.89,90.41s-8.72-4.85-16.42,1.74-1,14.38-1,14.38,5.86,7.23,12.76,1.81,3.36-10.92,2.59-12.15c0,0-3.79-5.68-10.64-1.55,0,0-6,4.3-2,9.85,0,0,3.53,4.71,7.79,1.15a3.81,3.81,0,0,0,1.53-3.34s-.32-1.16-.91,0a3.42,3.42,0,0,1-4.79,2s-4.23-2-1.11-6.1c0,0,3.12-4,6.83-1a5.15,5.15,0,0,1,1,6.78c-3,5.17-8.23,2.58-8.23,2.58s-4.64-1.57-4-7.72c0,0,.75-6.45,8.25-7.35a20.74,20.74,0,0,1,6.29-.32S523.7,91.29,522.89,90.41Z"/><path class="cls-23" d="M511.09,117.44s5.29,5.27,12.18,2.08,3.66-10.15,3.66-10.15-2.75-6.4-8.83-3.9-4.63,7.19-4.33,8.22c0,0,1.58,4.87,7.35,3.29,0,0,5.22-1.87,3.44-6.69,0,0-1.59-4.12-5.38-2.42a2.86,2.86,0,0,0-1.78,2.1s0,.9.65.19a2.56,2.56,0,0,1,3.86-.47s2.64,2.31-.44,4.62c0,0-3.07,2.27-5.13-.64a3.84,3.84,0,0,1,.69-5.08,4.66,4.66,0,0,1,6.45-.18s3,2.08,1.32,6.38a6.63,6.63,0,0,1-7.44,3.61,15.64,15.64,0,0,1-4.6-1S510.68,116.64,511.09,117.44Z"/><path class="cls-23" d="M530.4,147.6s5.3,5.27,12.19,2.09,3.66-10.15,3.66-10.15-2.76-6.41-8.83-3.9-4.64,7.18-4.33,8.22c0,0,1.57,4.87,7.35,3.28,0,0,5.22-1.87,3.43-6.68,0,0-1.59-4.12-5.38-2.42a2.86,2.86,0,0,0-1.78,2.1s0,.9.65.19a2.56,2.56,0,0,1,3.86-.47s2.65,2.31-.43,4.62c0,0-3.07,2.27-5.14-.64a3.85,3.85,0,0,1,.69-5.08,4.67,4.67,0,0,1,6.46-.18s3,2.08,1.31,6.38a6.64,6.64,0,0,1-7.44,3.61,15.35,15.35,0,0,1-4.59-1S530,146.81,530.4,147.6Z"/><path class="cls-23" d="M518.09,115.32s-8.71-4.84-16.41,1.75-1,14.37-1,14.37,5.86,7.23,12.76,1.81,3.36-10.92,2.59-12.14c0,0-3.79-5.69-10.64-1.55,0,0-6,4.3-2,9.84,0,0,3.54,4.71,7.79,1.15a3.81,3.81,0,0,0,1.53-3.34s-.32-1.16-.91,0a3.42,3.42,0,0,1-4.79,2s-4.23-2-1.11-6.1c0,0,3.12-4,6.83-1a5.14,5.14,0,0,1,.95,6.78c-3,5.16-8.23,2.57-8.23,2.57s-4.64-1.56-4-7.72c0,0,.75-6.45,8.25-7.34A20.39,20.39,0,0,1,516,116S518.9,116.2,518.09,115.32Z"/><path class="cls-23" d="M493.83,108s.54,7.1,7.48,9.1,8.94-5,8.94-5,2-6.33-3.93-8.31-7.8,2.28-8.23,3.21c0,0-1.89,4.49,3.25,7,0,0,4.92,1.91,6.63-2.68,0,0,1.42-4-2.37-5.09a2.7,2.7,0,0,0-2.58.4s-.57.65.35.55a2.43,2.43,0,0,1,3.07,2.06s.46,3.32-3.19,3.06c0,0-3.62-.28-3.3-3.66a3.67,3.67,0,0,1,3.66-3.23,4.43,4.43,0,0,1,4.75,3.89s.9,3.39-3,5.41a6.3,6.3,0,0,1-7.6-2,14.59,14.59,0,0,1-2.66-3.62S494,107.19,493.83,108Z"/><path class="cls-23" d="M492,95.14s-7.1.06-9.56,6.86,4.41,9.27,4.41,9.27,6.17,2.42,8.54-3.37-1.75-7.94-2.65-8.43c0,0-4.35-2.2-7.14,2.78,0,0-2.24,4.78,2.22,6.8,0,0,3.84,1.68,5.23-2a2.7,2.7,0,0,0-.23-2.6s-.6-.61-.56.31a2.44,2.44,0,0,1-2.27,2.93s-3.33.24-2.82-3.39c0,0,.51-3.6,3.86-3a3.66,3.66,0,0,1,3,3.87,4.45,4.45,0,0,1-4.2,4.49s-3.43.66-5.19-3.38a6.35,6.35,0,0,1,2.54-7.46,14.89,14.89,0,0,1,3.79-2.41S492.78,95.4,492,95.14Z"/><path class="cls-23" d="M513,51.77s-6.37-3.14-11.62,1.83-.21,10.27-.21,10.27,4.43,4.93,9.14.82,2-7.89,1.41-8.73c0,0-2.9-3.91-7.62-.72,0,0-4.14,3.27-1.07,7.07,0,0,2.69,3.23,5.59.54a2.7,2.7,0,0,0,1-2.43s-.26-.82-.64,0a2.44,2.44,0,0,1-3.34,1.6s-3.08-1.29-1-4.3c0,0,2.08-3,4.82-1a3.65,3.65,0,0,1,.92,4.79,4.44,4.44,0,0,1-5.76,2.13s-3.36-1-3.12-5.35A6.33,6.33,0,0,1,507,52.8a14.64,14.64,0,0,1,4.46-.45S513.56,52.36,513,51.77Z"/><path class="cls-23" d="M487.19,76.06s9.64,2.54,15.48-5.75-2.55-14.19-2.55-14.19-7.47-5.55-12.81,1.41-.56,11.41.48,12.4c0,0,5.07,4.57,10.69-1.13,0,0,4.79-5.65-.5-10,0,0-4.58-3.7-7.83.8a3.81,3.81,0,0,0-.65,3.62s.59,1,.88-.21a3.42,3.42,0,0,1,4.14-3.14s4.6.91,2.58,5.64c0,0-2,4.68-6.35,2.7a5.14,5.14,0,0,1-2.6-6.33c1.67-5.76,7.34-4.53,7.34-4.53s4.89.37,5.78,6.49c0,0,.86,6.43-6.19,9.15a20.52,20.52,0,0,1-6,1.87S486.19,75.41,487.19,76.06Z"/><path class="cls-23" d="M490.92,65.36s-7.1.13-9.5,7,4.5,9.23,4.5,9.23,6.19,2.36,8.51-3.45-1.82-7.93-2.74-8.41c0,0-4.36-2.15-7.11,2.85,0,0-2.18,4.81,2.29,6.78,0,0,3.86,1.64,5.21-2.08a2.7,2.7,0,0,0-.25-2.6s-.61-.61-.56.32a2.44,2.44,0,0,1-2.24,3s-3.33.27-2.86-3.37c0,0,.48-3.6,3.84-3.08a3.66,3.66,0,0,1,3,3.84,4.43,4.43,0,0,1-4.15,4.53s-3.42.69-5.22-3.33A6.33,6.33,0,0,1,486.11,69a14.5,14.5,0,0,1,3.76-2.44S491.73,65.62,490.92,65.36Z"/><path class="cls-23" d="M495.93,78.94s-6.38-3.14-11.62,1.83S484.09,91,484.09,91s4.44,4.93,9.15.82,2-7.89,1.41-8.73c0,0-2.9-3.91-7.63-.72,0,0-4.14,3.27-1.06,7.07,0,0,2.68,3.23,5.58.54a2.72,2.72,0,0,0,1-2.43s-.27-.82-.65,0a2.43,2.43,0,0,1-3.33,1.6s-3.09-1.29-1-4.3c0,0,2.07-3,4.82-1a3.66,3.66,0,0,1,.92,4.79,4.44,4.44,0,0,1-5.76,2.13s-3.36-.95-3.13-5.35A6.34,6.34,0,0,1,490,80a14.69,14.69,0,0,1,4.46-.45S496.54,79.53,495.93,78.94Z"/><path class="cls-23" d="M608.88,129.17s-7.44-6.65-16.4-1.91-4.16,13.8-4.16,13.8,4.13,8.34,12,4.57,5.68-9.91,5.2-11.28c0,0-2.45-6.37-10-3.85,0,0-6.83,2.86-4.1,9.16,0,0,2.41,5.38,7.34,2.84a3.8,3.8,0,0,0,2.23-2.92s-.06-1.2-.89-.21a3.41,3.41,0,0,1-5.11.9s-3.69-2.9.26-6.19c0,0,3.92-3.25,6.89.48a5.15,5.15,0,0,1-.57,6.83c-4.09,4.37-8.59.7-8.59.7s-4.18-2.55-2.2-8.41c0,0,2.15-6.13,9.66-5.35a20.42,20.42,0,0,1,6.2,1.07S609.48,130.21,608.88,129.17Z"/><path class="cls-23" d="M579.55,139.57s-7.44-6.65-16.4-1.92-4.16,13.8-4.16,13.8,4.13,8.34,12,4.57,5.68-9.91,5.2-11.27c0,0-2.45-6.38-10-3.86,0,0-6.83,2.87-4.1,9.17,0,0,2.41,5.37,7.34,2.84a3.82,3.82,0,0,0,2.22-2.93s0-1.2-.88-.21a3.42,3.42,0,0,1-5.11.91s-3.69-2.9.25-6.2c0,0,3.93-3.24,6.89.49a5.13,5.13,0,0,1-.56,6.82c-4.09,4.37-8.59.7-8.59.7s-4.19-2.55-2.21-8.41c0,0,2.15-6.13,9.67-5.35a20.57,20.57,0,0,1,6.2,1.08S580.15,140.6,579.55,139.57Z"/><path class="cls-23" d="M552.87,127.54s1.26,9.9,11.13,12.21,12.18-7.7,12.18-7.7,2.34-9-6.11-11.36-10.78,3.77-11.31,5.11c0,0-2.33,6.42,5.06,9.5,0,0,7,2.31,9.1-4.23,0,0,1.7-5.64-3.69-7,0,0-2.22-.69-3.59.74,0,0-.75,1,.53.74a3.42,3.42,0,0,1,4.45,2.67s.89,4.61-4.25,4.51c0,0-5.09-.12-4.89-4.88a5.15,5.15,0,0,1,4.9-4.79c6-.61,6.94,5.11,6.94,5.11s1.5,4.67-3.84,7.8c0,0-5.63,3.22-10.8-2.3a20.57,20.57,0,0,1-4-4.88S553.09,126.37,552.87,127.54Z"/><path class="cls-23" d="M581.61,121s1.1-7.39-5.54-11.06-10.34,3.07-10.34,3.07-3.52,6,2.1,9.43,8.52-.52,9.18-1.38c0,0,3-4.16-1.72-7.88,0,0-4.6-3.1-7.41,1.2,0,0-2.37,3.72,1.24,5.77a2.83,2.83,0,0,0,2.74.19s.73-.53-.23-.64a2.56,2.56,0,0,1-2.67-2.83s.3-3.5,4-2.39c0,0,3.65,1.13,2.53,4.52a3.84,3.84,0,0,1-4.5,2.45,4.67,4.67,0,0,1-4-5.09s-.12-3.68,4.36-4.84a6.62,6.62,0,0,1,7.31,3.85,15.5,15.5,0,0,1,1.88,4.33S581.21,121.84,581.61,121Z"/><path class="cls-23" d="M575.76,116.65s1.26,9.9,11.13,12.2,12.18-7.69,12.18-7.69,2.34-9-6.11-11.36-10.78,3.76-11.31,5.11c0,0-2.33,6.42,5.06,9.49,0,0,7,2.32,9.1-4.23,0,0,1.7-5.64-3.69-7a3.79,3.79,0,0,0-3.59.75s-.75.94.53.74a3.41,3.41,0,0,1,4.45,2.67s.89,4.61-4.25,4.51c0,0-5.09-.13-4.89-4.89a5.13,5.13,0,0,1,4.9-4.78c6-.62,6.94,5.1,6.94,5.1s1.5,4.68-3.83,7.81c0,0-5.64,3.21-10.81-2.31a20.42,20.42,0,0,1-4-4.87S576,115.47,575.76,116.65Z"/><path class="cls-23" d="M584.25,140.54s5.39-4.64,2.89-11.42-9.34-4.23-9.34-4.23-6.28,2.14-4.36,8.09,6.46,4.94,7.47,4.73c0,0,4.73-1.13,3.66-6.74,0,0-1.38-5.09-6.08-3.76,0,0-4,1.2-2.69,4.93a2.72,2.72,0,0,0,1.85,1.85s.85.07.23-.61a2.44,2.44,0,0,1-.16-3.7s2.4-2.33,4.35.76c0,0,1.92,3.09-1,4.83a3.64,3.64,0,0,1-4.76-1,4.44,4.44,0,0,1,.31-6.14s2.19-2.72,6.14-.77a6.33,6.33,0,0,1,2.87,7.34,14.75,14.75,0,0,1-1.34,4.28S583.47,140.86,584.25,140.54Z"/><path class="cls-23" d="M614.87,142.85s5.39-4.64,2.89-11.42-9.35-4.24-9.35-4.24-6.27,2.14-4.35,8.1,6.46,4.94,7.46,4.73c0,0,4.73-1.13,3.66-6.74,0,0-1.38-5.1-6.08-3.76,0,0-4,1.2-2.69,4.93a2.7,2.7,0,0,0,1.85,1.84s.86.08.24-.6a2.43,2.43,0,0,1-.16-3.7s2.39-2.33,4.34.76c0,0,1.93,3.08-1,4.83a3.67,3.67,0,0,1-4.77-1,4.44,4.44,0,0,1,.32-6.14s2.19-2.72,6.14-.77a6.31,6.31,0,0,1,2.86,7.33,14.7,14.7,0,0,1-1.33,4.29S614.08,143.17,614.87,142.85Z"/><path class="cls-23" d="M524.28,147.18s5.39-4.63,2.89-11.41-9.34-4.24-9.34-4.24-6.28,2.14-4.36,8.09,6.46,4.95,7.47,4.73c0,0,4.73-1.13,3.66-6.73,0,0-1.38-5.1-6.08-3.76,0,0-4,1.2-2.69,4.93a2.71,2.71,0,0,0,1.85,1.84s.85.08.23-.6a2.44,2.44,0,0,1-.16-3.7s2.39-2.34,4.35.76c0,0,1.92,3.08-1,4.83a3.65,3.65,0,0,1-4.76-1,4.44,4.44,0,0,1,.31-6.14s2.19-2.72,6.14-.78a6.34,6.34,0,0,1,2.87,7.34,14.87,14.87,0,0,1-1.34,4.29S523.5,147.51,524.28,147.18Z"/><path class="cls-23" d="M575,149.67s4.26,5.69,11.18,3.65,4.85-9,4.85-9-1.71-6.41-7.77-4.9-5.36,6.12-5.22,7.14c0,0,.81,4.81,6.47,4.11,0,0,5.18-1,4.16-5.82,0,0-.93-4.09-4.73-3a2.73,2.73,0,0,0-2,1.73s-.13.85.59.27a2.43,2.43,0,0,1,3.7.09s2.17,2.55-1,4.29c0,0-3.2,1.71-4.75-1.31a3.67,3.67,0,0,1,1.36-4.69,4.44,4.44,0,0,1,6.1.73s2.56,2.37.35,6.18a6.3,6.3,0,0,1-7.5,2.37,14.38,14.38,0,0,1-4.18-1.62S574.73,148.86,575,149.67Z"/><path class="cls-23" d="M597.63,125.17s4.26,5.69,11.19,3.65,4.85-9,4.85-9-1.72-6.41-7.78-4.89-5.36,6.12-5.21,7.14c0,0,.81,4.8,6.46,4.11,0,0,5.18-1,4.16-5.82,0,0-.93-4.1-4.73-3a2.7,2.7,0,0,0-2,1.72s-.14.85.58.28a2.44,2.44,0,0,1,3.7.08s2.17,2.55-1,4.29c0,0-3.2,1.72-4.74-1.3a3.66,3.66,0,0,1,1.35-4.69,4.43,4.43,0,0,1,6.1.72s2.56,2.37.36,6.19A6.33,6.33,0,0,1,603.4,127a14.82,14.82,0,0,1-4.18-1.62S597.36,124.36,597.63,125.17Z"/><path class="cls-23" d="M631.32,74.77s-9.8,1.85-11.52,11.84,8.39,11.72,8.39,11.72,9.13,1.8,11-6.78-4.39-10.54-5.76-11c0,0-6.54-2-9.17,5.61,0,0-1.9,7.17,4.75,8.84,0,0,5.73,1.37,6.73-4.1a3.81,3.81,0,0,0-1-3.54s-1-.69-.71.57a3.41,3.41,0,0,1-2.39,4.61s-4.55,1.16-4.75-4c0,0-.18-5.1,4.58-5.17a5.12,5.12,0,0,1,5.06,4.6c1,5.92-4.68,7.25-4.68,7.25s-4.58,1.77-8-3.38c0,0-3.54-5.44,1.66-10.93a20.49,20.49,0,0,1,4.63-4.26S632.5,74.92,631.32,74.77Z"/><path class="cls-23" d="M621.67,104.38s-9.8,1.85-11.51,11.85,8.39,11.71,8.39,11.71,9.12,1.81,11-6.78-4.39-10.54-5.76-11c0,0-6.54-2-9.17,5.61,0,0-1.89,7.17,4.75,8.84,0,0,5.73,1.37,6.73-4.09a3.83,3.83,0,0,0-1-3.55s-1-.69-.7.57a3.42,3.42,0,0,1-2.4,4.61s-4.55,1.16-4.75-4c0,0-.18-5.09,4.58-5.17a5.14,5.14,0,0,1,5.06,4.61c1,5.91-4.68,7.24-4.68,7.24s-4.57,1.77-8-3.37c0,0-3.54-5.44,1.66-10.93a20.43,20.43,0,0,1,4.63-4.27S622.85,104.54,621.67,104.38Z"/><path class="cls-23" d="M595.88,118.23s8.61,5,16.45-1.4,1.33-14.35,1.33-14.35-5.71-7.35-12.72-2.08-3.59,10.85-2.84,12.09c0,0,3.66,5.76,10.6,1.77,0,0,6.12-4.17,2.2-9.8,0,0-3.44-4.78-7.77-1.31a3.8,3.8,0,0,0-1.59,3.3s.29,1.17.9,0a3.41,3.41,0,0,1,4.83-1.9s4.19,2.1,1,6.12c0,0-3.2,4-6.84.9a5.14,5.14,0,0,1-.81-6.8c3.14-5.1,8.28-2.4,8.28-2.4s4.61,1.66,3.84,7.8c0,0-.89,6.43-8.41,7.17a20.55,20.55,0,0,1-6.29.19S595.09,117.33,595.88,118.23Z"/><path class="cls-23" d="M608.25,91.45s-5.18-5.38-12.13-2.34-3.88,10.07-3.88,10.07,2.62,6.46,8.75,4.09,4.78-7.09,4.5-8.13c0,0-1.47-4.9-7.28-3.44,0,0-5.26,1.76-3.57,6.62,0,0,1.5,4.14,5.32,2.52a2.87,2.87,0,0,0,1.83-2s0-.9-.65-.21a2.55,2.55,0,0,1-3.87.39s-2.59-2.37.54-4.61c0,0,3.11-2.21,5.12.74a3.87,3.87,0,0,1-.8,5.07,4.67,4.67,0,0,1-6.46,0s-3-2.13-1.18-6.4A6.65,6.65,0,0,1,602,90.35a15.44,15.44,0,0,1,4.57,1.15S608.64,92.26,608.25,91.45Z"/><path class="cls-23" d="M601.2,93.42s8.62,5,16.45-1.4S619,77.67,619,77.67s-5.7-7.35-12.72-2.07-3.58,10.84-2.84,12.08c0,0,3.67,5.76,10.6,1.77,0,0,6.13-4.17,2.2-9.79,0,0-3.43-4.79-7.76-1.32a3.81,3.81,0,0,0-1.6,3.31s.29,1.16.91,0a3.42,3.42,0,0,1,4.83-1.91s4.19,2.11,1,6.12c0,0-3.2,4-6.85.9a5.14,5.14,0,0,1-.81-6.8c3.14-5.1,8.28-2.4,8.28-2.4s4.61,1.67,3.84,7.8c0,0-.89,6.44-8.41,7.17a20.55,20.55,0,0,1-6.29.19S600.41,92.52,601.2,93.42Z"/><path class="cls-23" d="M625.31,101.24s-.39-7.1-7.28-9.25S609,96.82,609,96.82s-2.13,6.29,3.76,8.39,7.85-2.11,8.29-3c0,0,2-4.44-3.1-7,0,0-4.88-2-6.68,2.53,0,0-1.5,3.92,2.26,5.14a2.7,2.7,0,0,0,2.59-.34s.58-.63-.34-.56a2.43,2.43,0,0,1-3-2.12s-.38-3.33,3.26-3c0,0,3.61.35,3.22,3.73a3.66,3.66,0,0,1-3.73,3.14,4.44,4.44,0,0,1-4.67-4s-.82-3.4,3.13-5.34a6.31,6.31,0,0,1,7.56,2.2,14.67,14.67,0,0,1,2.58,3.67S625.08,102.06,625.31,101.24Z"/><path class="cls-23" d="M635.41,84.52s7.1-.28,9.35-7.14-4.69-9.14-4.69-9.14-6.24-2.23-8.44,3.63,2,7.89,2.91,8.35c0,0,4.41,2.06,7.05-3,0,0,2.09-4.85-2.42-6.73,0,0-3.9-1.56-5.17,2.19a2.72,2.72,0,0,0,.3,2.6s.63.59.56-.33A2.44,2.44,0,0,1,637,72s3.33-.34,2.93,3.3c0,0-.4,3.61-3.77,3.17a3.66,3.66,0,0,1-3.08-3.78A4.43,4.43,0,0,1,637.17,70s3.4-.77,5.29,3.21a6.34,6.34,0,0,1-2.32,7.53,14.45,14.45,0,0,1-3.7,2.53S634.59,84.29,635.41,84.52Z"/><path class="cls-23" d="M626.89,114.15s7.11.09,9.71-6.65-4.21-9.37-4.21-9.37-6.12-2.55-8.61,3.19,1.58,8,2.47,8.49c0,0,4.3,2.28,7.2-2.63,0,0,2.33-4.74-2.08-6.84,0,0-3.81-1.77-5.27,1.91a2.7,2.7,0,0,0,.17,2.61s.59.62.57-.3a2.43,2.43,0,0,1,2.33-2.88s3.33-.17,2.75,3.45c0,0-.59,3.58-3.93,3a3.66,3.66,0,0,1-2.88-3.94,4.43,4.43,0,0,1,4.29-4.39s3.44-.59,5.11,3.48a6.33,6.33,0,0,1-2.69,7.4A14.45,14.45,0,0,1,628,113S626.09,113.87,626.89,114.15Z"/><path class="cls-23" d="M621.29,81.26s7.1.09,9.71-6.65-4.21-9.37-4.21-9.37-6.12-2.55-8.62,3.19,1.58,8,2.48,8.49c0,0,4.29,2.28,7.19-2.63,0,0,2.34-4.74-2.07-6.85,0,0-3.81-1.76-5.28,1.92a2.73,2.73,0,0,0,.17,2.61s.59.62.58-.3a2.43,2.43,0,0,1,2.32-2.88s3.34-.17,2.76,3.45c0,0-.6,3.58-3.93,3a3.66,3.66,0,0,1-2.89-3.93,4.44,4.44,0,0,1,4.29-4.4s3.45-.59,5.12,3.49a6.32,6.32,0,0,1-2.7,7.4,14.79,14.79,0,0,1-3.83,2.33S620.48,81,621.29,81.26Z"/><path class="cls-23" d="M573.63,112.54s-7.44-6.65-16.4-1.92-4.16,13.8-4.16,13.8,4.13,8.34,12,4.57,5.68-9.91,5.2-11.27c0,0-2.45-6.38-10-3.86,0,0-6.83,2.87-4.1,9.16,0,0,2.41,5.38,7.34,2.85a3.82,3.82,0,0,0,2.22-2.93s0-1.2-.88-.21a3.42,3.42,0,0,1-5.11.91s-3.69-2.9.25-6.2c0,0,3.93-3.24,6.89.49a5.13,5.13,0,0,1-.56,6.82c-4.09,4.37-8.59.7-8.59.7s-4.19-2.55-2.21-8.41c0,0,2.15-6.13,9.67-5.35a20.77,20.77,0,0,1,6.2,1.07S574.23,113.57,573.63,112.54Z"/><path class="cls-23" d="M544.3,122.93s-7.44-6.65-16.4-1.92-4.16,13.8-4.16,13.8,4.13,8.34,12,4.57,5.67-9.9,5.19-11.27c0,0-2.44-6.38-10-3.85,0,0-6.83,2.86-4.11,9.16,0,0,2.41,5.37,7.35,2.84a3.82,3.82,0,0,0,2.22-2.92s0-1.21-.88-.21a3.41,3.41,0,0,1-5.11.9s-3.69-2.9.25-6.19c0,0,3.93-3.25,6.89.48a5.15,5.15,0,0,1-.56,6.83c-4.09,4.36-8.59.69-8.59.69s-4.19-2.55-2.21-8.41c0,0,2.15-6.12,9.67-5.34a20.46,20.46,0,0,1,6.2,1.07S544.9,124,544.3,122.93Z"/><path class="cls-23" d="M517.61,110.91s1.27,9.9,11.14,12.2,12.17-7.69,12.17-7.69,2.34-9-6.11-11.36-10.77,3.76-11.3,5.11c0,0-2.33,6.42,5.06,9.49,0,0,7,2.32,9.1-4.23,0,0,1.69-5.64-3.69-7a3.79,3.79,0,0,0-3.59.75s-.75.94.52.74a3.42,3.42,0,0,1,4.46,2.67s.88,4.61-4.25,4.51c0,0-5.09-.13-4.89-4.89a5.13,5.13,0,0,1,4.89-4.78c6-.62,7,5.1,7,5.1s1.49,4.68-3.84,7.81c0,0-5.63,3.21-10.8-2.31a20.42,20.42,0,0,1-4-4.87S517.84,109.73,517.61,110.91Z"/><path class="cls-23" d="M546.36,104.41s1.1-7.4-5.54-11.06-10.34,3.06-10.34,3.06-3.52,6,2.09,9.43,8.53-.52,9.19-1.38c0,0,3-4.15-1.72-7.87,0,0-4.6-3.1-7.41,1.19,0,0-2.38,3.72,1.24,5.77a2.83,2.83,0,0,0,2.74.19s.73-.52-.23-.64a2.56,2.56,0,0,1-2.67-2.83s.3-3.5,4-2.38c0,0,3.64,1.12,2.53,4.51a3.85,3.85,0,0,1-4.5,2.46,4.68,4.68,0,0,1-4-5.1s-.12-3.67,4.35-4.84a6.64,6.64,0,0,1,7.32,3.86,15.37,15.37,0,0,1,1.88,4.32S546,105.21,546.36,104.41Z"/><path class="cls-23" d="M540.51,100s1.26,9.9,11.13,12.2,12.17-7.69,12.17-7.69,2.34-9-6.11-11.36-10.77,3.76-11.3,5.11c0,0-2.33,6.42,5.06,9.5,0,0,7,2.31,9.1-4.23,0,0,1.69-5.65-3.69-7a3.82,3.82,0,0,0-3.59.75s-.75,1,.52.74a3.42,3.42,0,0,1,4.46,2.67s.88,4.61-4.25,4.51c0,0-5.09-.12-4.89-4.88A5.14,5.14,0,0,1,554,95.57c6-.61,7,5.11,7,5.11s1.49,4.67-3.84,7.8c0,0-5.63,3.22-10.8-2.3a20.57,20.57,0,0,1-4-4.88S540.73,98.84,540.51,100Z"/><path class="cls-23" d="M549,123.9s5.39-4.63,2.89-11.41-9.34-4.24-9.34-4.24-6.28,2.14-4.36,8.09,6.46,4.94,7.47,4.73c0,0,4.73-1.13,3.66-6.73,0,0-1.38-5.1-6.08-3.76,0,0-4,1.2-2.7,4.92a2.74,2.74,0,0,0,1.86,1.85s.85.08.23-.6a2.45,2.45,0,0,1-.16-3.71s2.39-2.33,4.35.77c0,0,1.92,3.08-1,4.82a3.65,3.65,0,0,1-4.76-1,4.44,4.44,0,0,1,.31-6.14s2.19-2.73,6.14-.78a6.34,6.34,0,0,1,2.87,7.34,14.87,14.87,0,0,1-1.34,4.29S548.22,124.23,549,123.9Z"/><path class="cls-23" d="M579.62,126.21s5.39-4.63,2.89-11.41-9.35-4.24-9.35-4.24-6.27,2.14-4.36,8.09,6.46,4.94,7.47,4.73c0,0,4.73-1.13,3.66-6.73,0,0-1.38-5.1-6.08-3.76,0,0-4,1.2-2.69,4.92a2.72,2.72,0,0,0,1.85,1.85s.86.08.23-.61a2.44,2.44,0,0,1-.16-3.7s2.4-2.33,4.35.77c0,0,1.92,3.08-1,4.82a3.64,3.64,0,0,1-4.76-1,4.43,4.43,0,0,1,.31-6.13s2.2-2.73,6.15-.78a6.33,6.33,0,0,1,2.86,7.34,14.42,14.42,0,0,1-1.34,4.28S578.83,126.54,579.62,126.21Z"/><path class="cls-23" d="M539.75,133s4.26,5.69,11.18,3.65,4.85-9.05,4.85-9.05-1.71-6.41-7.77-4.89-5.36,6.12-5.22,7.14c0,0,.81,4.8,6.47,4.11,0,0,5.17-1,4.16-5.82,0,0-.93-4.1-4.74-3a2.7,2.7,0,0,0-2,1.72s-.13.85.59.28a2.44,2.44,0,0,1,3.7.08s2.16,2.55-1,4.29c0,0-3.21,1.72-4.75-1.3a3.67,3.67,0,0,1,1.36-4.69,4.42,4.42,0,0,1,6.09.72s2.57,2.37.36,6.19a6.31,6.31,0,0,1-7.5,2.37,14.71,14.71,0,0,1-4.18-1.62S539.48,132.22,539.75,133Z"/><path class="cls-23" d="M510.08,128.77s4.26,5.7,11.19,3.65,4.85-9,4.85-9-1.71-6.41-7.77-4.89-5.36,6.12-5.22,7.14c0,0,.81,4.8,6.47,4.11,0,0,5.17-1,4.15-5.82,0,0-.92-4.1-4.73-3a2.7,2.7,0,0,0-2,1.72s-.13.85.59.28a2.44,2.44,0,0,1,3.7.08s2.16,2.55-1.06,4.3c0,0-3.2,1.71-4.74-1.31a3.67,3.67,0,0,1,1.35-4.69,4.43,4.43,0,0,1,6.1.72s2.57,2.38.36,6.19a6.3,6.3,0,0,1-7.5,2.37,14.83,14.83,0,0,1-4.19-1.62S509.81,128,510.08,128.77Z"/><path class="cls-23" d="M562.38,108.53s4.26,5.7,11.18,3.65,4.85-9.05,4.85-9.05-1.71-6.41-7.77-4.89-5.36,6.12-5.22,7.14c0,0,.81,4.8,6.47,4.11,0,0,5.18-1,4.16-5.82,0,0-.93-4.1-4.73-3a2.71,2.71,0,0,0-2,1.73s-.13.84.59.27a2.43,2.43,0,0,1,3.7.09s2.17,2.54-1,4.29c0,0-3.2,1.71-4.75-1.31A3.67,3.67,0,0,1,569.2,101a4.44,4.44,0,0,1,6.1.72s2.56,2.38.35,6.19a6.3,6.3,0,0,1-7.5,2.37,14.82,14.82,0,0,1-4.18-1.62S562.11,107.73,562.38,108.53Z"/><path class="cls-23" d="M596.06,58.13S586.26,60,584.55,70s8.39,11.71,8.39,11.71,9.13,1.81,11-6.78-4.39-10.54-5.76-11c0,0-6.55-2-9.17,5.61,0,0-1.9,7.17,4.75,8.85,0,0,5.73,1.36,6.73-4.1a3.83,3.83,0,0,0-1-3.55s-1-.69-.71.57a3.43,3.43,0,0,1-2.4,4.62s-4.54,1.15-4.75-4c0,0-.17-5.09,4.59-5.17a5.14,5.14,0,0,1,5.06,4.61c1,5.91-4.69,7.24-4.69,7.24s-4.57,1.77-8-3.37c0,0-3.54-5.44,1.66-10.93A20.53,20.53,0,0,1,594.88,60S597.25,58.29,596.06,58.13Z"/><path class="cls-23" d="M586.42,87.74s-9.8,1.85-11.52,11.85,8.39,11.71,8.39,11.71,9.13,1.81,11-6.77-4.39-10.55-5.76-11c0,0-6.54-2-9.17,5.62,0,0-1.9,7.16,4.75,8.84,0,0,5.73,1.36,6.73-4.1a3.81,3.81,0,0,0-1-3.54s-1-.7-.71.57a3.41,3.41,0,0,1-2.39,4.61s-4.55,1.15-4.75-4c0,0-.18-5.1,4.58-5.17a5.12,5.12,0,0,1,5.06,4.6c1,5.91-4.68,7.24-4.68,7.24s-4.58,1.77-8-3.37c0,0-3.54-5.44,1.66-10.93a20.68,20.68,0,0,1,4.63-4.27S587.6,87.9,586.42,87.74Z"/><path class="cls-23" d="M560.63,101.59s8.61,5,16.45-1.4,1.33-14.35,1.33-14.35-5.71-7.35-12.72-2.07-3.59,10.84-2.85,12.08c0,0,3.67,5.76,10.61,1.77,0,0,6.12-4.17,2.19-9.79,0,0-3.43-4.79-7.76-1.32a3.83,3.83,0,0,0-1.6,3.31s.29,1.17.91,0A3.42,3.42,0,0,1,572,87.94s4.19,2.11,1,6.12c0,0-3.2,4-6.84.9a5.14,5.14,0,0,1-.81-6.8c3.14-5.09,8.28-2.4,8.28-2.4s4.61,1.67,3.84,7.8c0,0-.89,6.44-8.41,7.17a20.55,20.55,0,0,1-6.29.19S559.84,100.7,560.63,101.59Z"/><path class="cls-23" d="M573,74.82s-5.18-5.38-12.14-2.35S557,82.55,557,82.55s2.62,6.46,8.74,4.08,4.79-7.08,4.51-8.13c0,0-1.47-4.9-7.28-3.44,0,0-5.26,1.76-3.57,6.62,0,0,1.5,4.15,5.32,2.53a2.84,2.84,0,0,0,1.82-2.06s0-.9-.64-.21a2.56,2.56,0,0,1-3.87.39s-2.59-2.37.53-4.61c0,0,3.12-2.2,5.12.75a3.84,3.84,0,0,1-.8,5.06,4.65,4.65,0,0,1-6.45,0s-3-2.14-1.18-6.41a6.63,6.63,0,0,1,7.51-3.45,15.55,15.55,0,0,1,4.57,1.14S573.39,75.62,573,74.82Z"/><path class="cls-23" d="M557.9,74.12s-5.19-5.38-12.14-2.34-3.87,10.07-3.87,10.07,2.62,6.46,8.74,4.09,4.79-7.09,4.51-8.13c0,0-1.47-4.9-7.28-3.44,0,0-5.26,1.76-3.58,6.61,0,0,1.5,4.15,5.33,2.53a2.84,2.84,0,0,0,1.82-2.05s0-.91-.65-.21a2.55,2.55,0,0,1-3.86.39s-2.6-2.37.53-4.61c0,0,3.12-2.21,5.12.74a3.85,3.85,0,0,1-.8,5.07,4.66,4.66,0,0,1-6.45,0s-3-2.14-1.19-6.4A6.65,6.65,0,0,1,551.65,73a15.37,15.37,0,0,1,4.57,1.15S558.29,74.93,557.9,74.12Z"/><path class="cls-23" d="M566,76.78s8.62,5,16.45-1.39S583.73,61,583.73,61,578,53.68,571,59,567.43,69.8,568.17,71c0,0,3.66,5.77,10.6,1.78,0,0,6.12-4.17,2.2-9.8,0,0-3.44-4.79-7.77-1.32A3.83,3.83,0,0,0,571.61,65s.29,1.17.91,0a3.41,3.41,0,0,1,4.82-1.91s4.19,2.11,1,6.12c0,0-3.21,4-6.85.91a5.14,5.14,0,0,1-.81-6.8C573.81,58.26,579,61,579,61s4.61,1.66,3.84,7.8c0,0-.89,6.43-8.41,7.17a20.34,20.34,0,0,1-6.29.18S565.16,75.89,566,76.78Z"/><path class="cls-23" d="M590.05,84.6s-.38-7.1-7.28-9.25-9,4.84-9,4.84-2.13,6.28,3.76,8.39,7.85-2.12,8.29-3c0,0,2-4.44-3.1-7,0,0-4.88-2-6.68,2.54,0,0-1.5,3.92,2.26,5.14a2.71,2.71,0,0,0,2.59-.35s.58-.63-.34-.55a2.44,2.44,0,0,1-3-2.13s-.39-3.32,3.26-3c0,0,3.61.36,3.22,3.73a3.67,3.67,0,0,1-3.73,3.15,4.44,4.44,0,0,1-4.67-4s-.82-3.4,3.13-5.35a6.32,6.32,0,0,1,7.56,2.2,14.67,14.67,0,0,1,2.58,3.67S589.83,85.43,590.05,84.6Z"/><path class="cls-23" d="M610.54,61.72s-.38-7.11-7.28-9.26-9,4.84-9,4.84-2.13,6.28,3.75,8.39,7.85-2.12,8.3-3c0,0,2-4.45-3.1-7,0,0-4.88-2-6.69,2.54,0,0-1.5,3.92,2.27,5.14a2.71,2.71,0,0,0,2.59-.35s.58-.63-.34-.55a2.44,2.44,0,0,1-3-2.13s-.39-3.32,3.26-3c0,0,3.61.35,3.22,3.72a3.66,3.66,0,0,1-3.73,3.15,4.44,4.44,0,0,1-4.67-4s-.82-3.4,3.13-5.35a6.32,6.32,0,0,1,7.56,2.2,14.67,14.67,0,0,1,2.58,3.67S610.32,62.54,610.54,61.72Z"/><path class="cls-23" d="M591.64,97.51s7.1.09,9.71-6.65-4.21-9.36-4.21-9.36S591,79,588.52,84.68s1.58,8,2.48,8.49c0,0,4.29,2.29,7.19-2.62,0,0,2.34-4.74-2.07-6.85,0,0-3.81-1.76-5.28,1.91a2.73,2.73,0,0,0,.17,2.61s.6.63.58-.29A2.44,2.44,0,0,1,593.91,85s3.34-.16,2.76,3.45c0,0-.59,3.59-3.93,3a3.66,3.66,0,0,1-2.89-3.93,4.43,4.43,0,0,1,4.29-4.4s3.45-.59,5.12,3.49a6.32,6.32,0,0,1-2.7,7.4,14.59,14.59,0,0,1-3.83,2.32S590.83,97.24,591.64,97.51Z"/><path class="cls-23" d="M640.31,72.12s.46-7.1-6.12-10.06-9.57,3.72-9.57,3.72-2.86,6,2.73,8.78,8-1.16,8.6-2c0,0,2.5-4.17-2.24-7.33,0,0-4.61-2.58-6.94,1.72,0,0-2,3.71,1.63,5.37a2.72,2.72,0,0,0,2.61,0s.66-.56-.27-.59A2.44,2.44,0,0,1,628,69.19s0-3.34,3.59-2.57c0,0,3.54.78,2.75,4.08a3.66,3.66,0,0,1-4.07,2.68,4.43,4.43,0,0,1-4.16-4.52s-.41-3.47,3.74-4.93A6.3,6.3,0,0,1,637.08,67,14.53,14.53,0,0,1,639.2,71S640,72.91,640.31,72.12Z"/><path class="cls-23" d="M615.66,72.23s7.05.87,10.38-5.54-3.15-9.77-3.15-9.77-5.8-3.21-8.91,2.21.69,8.11,1.52,8.71c0,0,4,2.75,7.44-1.81,0,0,2.84-4.45-1.31-7,0,0-3.59-2.17-5.45,1.32a2.74,2.74,0,0,0-.12,2.62s.52.68.61-.24a2.44,2.44,0,0,1,2.62-2.61s3.34.21,2.36,3.74c0,0-1,3.5-4.23,2.51A3.65,3.65,0,0,1,615,62.11a4.43,4.43,0,0,1,4.74-3.9s3.49-.21,4.71,4a6.34,6.34,0,0,1-3.5,7.06,14.67,14.67,0,0,1-4.06,1.89S614.89,71.86,615.66,72.23Z"/><path class="cls-23" d="M602.72,13s-5.46,8.36.55,16.52,14.25,2.07,14.25,2.07,7.62-5.33,2.72-12.61-10.63-4.14-11.91-3.46c0,0-5.94,3.36-2.31,10.5,0,0,3.85,6.34,9.66,2.7,0,0,5-3.18,1.71-7.69a3.82,3.82,0,0,0-3.21-1.77s-1.19.23-.08.91a3.42,3.42,0,0,1,1.65,4.93s-2.31,4.08-6.15.66c0,0-3.8-3.4-.55-6.89a5.12,5.12,0,0,1,6.82-.46c4.93,3.4,2,8.4,2,8.4s-1.89,4.53-8,3.44c0,0-6.37-1.22-6.72-8.77a20.62,20.62,0,0,1,.14-6.3S603.65,12.24,602.72,13Z"/><path class="cls-23" d="M617.35,40.47s-5.46,8.36.55,16.52,14.25,2.07,14.25,2.07,7.63-5.33,2.72-12.61S624.24,42.3,623,43c0,0-5.94,3.37-2.32,10.51,0,0,3.85,6.34,9.66,2.7,0,0,5-3.19,1.72-7.69,0,0-1.25-2-3.22-1.77,0,0-1.18.23-.08.91a3.42,3.42,0,0,1,1.66,4.92s-2.32,4.08-6.16.67c0,0-3.79-3.4-.55-6.89a5.13,5.13,0,0,1,6.83-.46c4.92,3.4,2,8.4,2,8.4s-1.9,4.52-8,3.44c0,0-6.38-1.22-6.72-8.77a20.47,20.47,0,0,1,.13-6.3S618.29,39.73,617.35,40.47Z"/><path class="cls-23" d="M609.45,68.68S619,66,619.85,55.84s-9.42-10.91-9.42-10.91-9.25-1-10.31,7.74,5.32,10.11,6.73,10.43c0,0,6.69,1.35,8.63-6.42,0,0,1.24-7.31-5.53-8.38,0,0-5.83-.84-6.33,4.69a3.82,3.82,0,0,0,1.27,3.45s1,.6.65-.64a3.43,3.43,0,0,1,2-4.81s4.42-1.56,5.08,3.54c0,0,.64,5.06-4.09,5.57A5.14,5.14,0,0,1,603.05,56c-1.49-5.79,4-7.63,4-7.63s4.4-2.17,8.28,2.64c0,0,4,5.1-.67,11a20.56,20.56,0,0,1-4.22,4.67S608.26,68.63,609.45,68.68Z"/><path class="cls-23" d="M598.75,41.19s-7.47,0-10.1,7.13,4.56,9.78,4.56,9.78,6.47,2.59,9-3.48-1.78-8.36-2.73-8.88c0,0-4.55-2.34-7.52,2.87,0,0-2.38,5,2.28,7.16,0,0,4,1.79,5.51-2.09a2.86,2.86,0,0,0-.21-2.74s-.63-.64-.6.32a2.57,2.57,0,0,1-2.4,3.07s-3.51.22-2.95-3.59c0,0,.57-3.77,4.08-3.17a3.84,3.84,0,0,1,3.1,4.08,4.67,4.67,0,0,1-4.45,4.69s-3.61.67-5.43-3.58a6.65,6.65,0,0,1,2.73-7.82,15.39,15.39,0,0,1,4-2.51S599.6,41.47,598.75,41.19Z"/><path class="cls-23" d="M628,43.48s5-5.07,1.94-11.62-9.66-3.45-9.66-3.45-6.08,2.64-3.68,8.42,6.84,4.4,7.83,4.1c0,0,4.62-1.52,3.1-7,0,0-1.8-5-6.37-3.25,0,0-3.91,1.53-2.28,5.13a2.71,2.71,0,0,0,2,1.69s.86,0,.18-.62a2.45,2.45,0,0,1-.46-3.68s2.19-2.52,4.39.4c0,0,2.17,2.92-.59,4.9a3.65,3.65,0,0,1-4.83-.65,4.44,4.44,0,0,1-.19-6.14s2-2.89,6.06-1.28a6.33,6.33,0,0,1,3.46,7.08,14.49,14.49,0,0,1-1,4.38S627.25,43.87,628,43.48Z"/><path class="cls-23" d="M600.44,24.72s5-5.07,1.94-11.62-9.66-3.45-9.66-3.45-6.08,2.65-3.68,8.42,6.85,4.4,7.83,4.1c0,0,4.63-1.51,3.1-7,0,0-1.79-5-6.37-3.25,0,0-3.91,1.53-2.28,5.13a2.71,2.71,0,0,0,2,1.69s.86,0,.18-.62a2.44,2.44,0,0,1-.46-3.68s2.19-2.52,4.39.41c0,0,2.17,2.91-.58,4.89a3.66,3.66,0,0,1-4.83-.64,4.44,4.44,0,0,1-.2-6.15s2-2.89,6.06-1.28a6.33,6.33,0,0,1,3.46,7.08,14.68,14.68,0,0,1-1,4.38S599.68,25.11,600.44,24.72Z"/><path class="cls-23" d="M544.71,33.2s-5.46,8.35.55,16.52,14.25,2.06,14.25,2.06,7.62-5.33,2.72-12.61S551.6,35,550.32,35.71c0,0-5.94,3.37-2.31,10.51,0,0,3.84,6.33,9.66,2.7,0,0,5-3.19,1.71-7.7a3.8,3.8,0,0,0-3.21-1.76s-1.19.23-.08.9a3.43,3.43,0,0,1,1.66,4.93s-2.32,4.08-6.16.67c0,0-3.8-3.41-.55-6.89a5.12,5.12,0,0,1,6.82-.46c4.93,3.4,2,8.4,2,8.4s-1.89,4.52-8,3.43c0,0-6.37-1.21-6.72-8.77a20.61,20.61,0,0,1,.14-6.3S545.64,32.45,544.71,33.2Z"/><path class="cls-23" d="M588.62,53.42s5-5.07,1.94-11.62-9.66-3.45-9.66-3.45-6.08,2.64-3.68,8.42,6.85,4.4,7.83,4.1c0,0,4.63-1.51,3.1-7,0,0-1.8-5-6.37-3.25,0,0-3.91,1.53-2.28,5.13a2.71,2.71,0,0,0,2,1.69s.86,0,.18-.62a2.45,2.45,0,0,1-.46-3.68s2.19-2.52,4.39.4c0,0,2.17,2.92-.58,4.9a3.66,3.66,0,0,1-4.84-.65,4.44,4.44,0,0,1-.19-6.14s2-2.89,6.06-1.28a6.33,6.33,0,0,1,3.46,7.08,14.68,14.68,0,0,1-1,4.38S587.86,53.8,588.62,53.42Z"/><path class="cls-23" d="M613.48,77.15s5-5.07,1.94-11.62-9.66-3.45-9.66-3.45-6.08,2.65-3.68,8.42,6.85,4.4,7.83,4.1c0,0,4.63-1.51,3.1-7,0,0-1.79-5-6.37-3.25,0,0-3.91,1.53-2.28,5.13a2.71,2.71,0,0,0,2,1.69s.86,0,.18-.62a2.45,2.45,0,0,1-.46-3.68s2.19-2.52,4.39.4c0,0,2.17,2.92-.58,4.9a3.65,3.65,0,0,1-4.83-.65,4.43,4.43,0,0,1-.2-6.14s2-2.89,6.06-1.28a6.33,6.33,0,0,1,3.46,7.08,14.68,14.68,0,0,1-1,4.38S612.72,77.54,613.48,77.15Z"/><path class="cls-23" d="M596.76,143.49s5,5.06,11.58,2.09S611.9,136,611.9,136s-2.57-6.12-8.37-3.79-4.47,6.8-4.19,7.79c0,0,1.46,4.65,7,3.19,0,0,5-1.74,3.32-6.34,0,0-1.47-3.93-5.09-2.34a2.7,2.7,0,0,0-1.71,2s0,.86.61.19a2.44,2.44,0,0,1,3.68-.42s2.5,2.22-.45,4.39c0,0-2.94,2.14-4.88-.65a3.65,3.65,0,0,1,.7-4.82,4.43,4.43,0,0,1,6.14-.12s2.86,2,1.2,6.08a6.31,6.31,0,0,1-7.11,3.37,14.59,14.59,0,0,1-4.36-1S596.38,142.73,596.76,143.49Z"/><path class="cls-23" d="M590.43,129.64s4.26,5.69,11.18,3.65,4.85-9,4.85-9-1.71-6.41-7.77-4.89-5.36,6.12-5.22,7.14c0,0,.81,4.8,6.47,4.11,0,0,5.18-1,4.16-5.82,0,0-.93-4.1-4.73-3a2.71,2.71,0,0,0-2,1.72s-.13.85.59.28a2.44,2.44,0,0,1,3.7.08s2.17,2.55-1.05,4.3c0,0-3.2,1.71-4.75-1.31a3.67,3.67,0,0,1,1.36-4.69,4.43,4.43,0,0,1,6.1.72s2.56,2.37.36,6.19a6.32,6.32,0,0,1-7.51,2.37A14.82,14.82,0,0,1,592,129.8S590.16,128.83,590.43,129.64Z"/><path class="cls-23" d="M624.11,79.24s-9.8,1.85-11.51,11.84S621,102.8,621,102.8s9.13,1.8,11-6.78-4.39-10.54-5.76-11c0,0-6.55-2-9.17,5.61,0,0-1.9,7.17,4.75,8.84,0,0,5.73,1.37,6.73-4.09a3.83,3.83,0,0,0-1-3.55s-1-.69-.71.57a3.42,3.42,0,0,1-2.4,4.61s-4.54,1.16-4.75-4c0,0-.17-5.09,4.59-5.17a5.14,5.14,0,0,1,5.06,4.61c1,5.91-4.69,7.24-4.69,7.24s-4.57,1.77-8-3.38c0,0-3.54-5.44,1.66-10.92a20.43,20.43,0,0,1,4.63-4.27S625.3,79.39,624.11,79.24Z"/><path class="cls-23" d="M614.47,108.85s-9.8,1.85-11.52,11.85,8.39,11.71,8.39,11.71,9.13,1.81,11-6.78-4.39-10.54-5.76-11c0,0-6.54-2-9.17,5.62,0,0-1.9,7.16,4.75,8.84,0,0,5.73,1.36,6.73-4.1a3.83,3.83,0,0,0-1-3.55s-1-.69-.71.58a3.41,3.41,0,0,1-2.39,4.61s-4.55,1.15-4.75-4c0,0-.18-5.1,4.58-5.18a5.14,5.14,0,0,1,5.06,4.61c1,5.91-4.68,7.24-4.68,7.24s-4.57,1.77-8-3.37c0,0-3.54-5.44,1.66-10.93a20.43,20.43,0,0,1,4.63-4.27S615.65,109,614.47,108.85Z"/><path class="cls-23" d="M638.59,82.82s-.38-7.1-7.28-9.25-9,4.84-9,4.84-2.13,6.28,3.75,8.39,7.85-2.12,8.3-3c0,0,2-4.44-3.1-7,0,0-4.88-2-6.68,2.53,0,0-1.51,3.93,2.26,5.15a2.71,2.71,0,0,0,2.59-.35s.58-.63-.34-.55a2.44,2.44,0,0,1-3-2.13s-.39-3.32,3.26-3c0,0,3.61.36,3.22,3.73a3.67,3.67,0,0,1-3.73,3.15,4.44,4.44,0,0,1-4.67-4s-.82-3.4,3.13-5.35a6.32,6.32,0,0,1,7.56,2.2,14.67,14.67,0,0,1,2.58,3.67S638.37,83.64,638.59,82.82Z"/><path class="cls-23" d="M619.69,118.62s7.11.09,9.71-6.65-4.21-9.37-4.21-9.37-6.12-2.55-8.62,3.19,1.58,8,2.48,8.49c0,0,4.29,2.29,7.2-2.63,0,0,2.33-4.73-2.08-6.84,0,0-3.81-1.76-5.28,1.91a2.73,2.73,0,0,0,.17,2.61s.6.62.58-.3a2.43,2.43,0,0,1,2.32-2.88s3.34-.17,2.76,3.45c0,0-.59,3.58-3.93,3a3.67,3.67,0,0,1-2.89-3.93,4.43,4.43,0,0,1,4.29-4.4s3.45-.59,5.12,3.48a6.32,6.32,0,0,1-2.7,7.4,14.5,14.5,0,0,1-3.83,2.33S618.89,118.34,619.69,118.62Z"/><path class="cls-23" d="M614.08,85.73s7.11.09,9.71-6.65-4.21-9.37-4.21-9.37-6.12-2.55-8.61,3.19,1.58,8,2.48,8.49c0,0,4.29,2.28,7.19-2.63,0,0,2.33-4.74-2.07-6.85,0,0-3.81-1.76-5.28,1.92a2.73,2.73,0,0,0,.17,2.61s.59.62.57-.3a2.44,2.44,0,0,1,2.33-2.88s3.34-.17,2.76,3.45c0,0-.6,3.58-3.93,3a3.65,3.65,0,0,1-2.89-3.93,4.44,4.44,0,0,1,4.29-4.4s3.44-.59,5.12,3.49a6.32,6.32,0,0,1-2.7,7.4,14.5,14.5,0,0,1-3.83,2.33S613.28,85.45,614.08,85.73Z"/><path class="cls-23" d="M635.58,50.11s-9.94.76-12.74,10.5,7,12.57,7,12.57,8.87,2.8,11.64-5.52-3.2-11-4.52-11.57c0,0-6.28-2.65-9.73,4.57,0,0-2.67,6.92,3.75,9.31,0,0,5.55,2,7.14-3.32,0,0,.8-2.19-.56-3.63,0,0-.9-.8-.77.49A3.41,3.41,0,0,1,634,67.82s-4.64.65-4.28-4.48c0,0,.38-5.08,5.12-4.63a5.14,5.14,0,0,1,4.53,5.13c.31,6-5.45,6.69-5.45,6.69s-4.74,1.25-7.59-4.24c0,0-2.92-5.8,2.85-10.68a20.34,20.34,0,0,1,5.07-3.73S636.74,50.4,635.58,50.11Z"/><path class="cls-23" d="M584.23,128.33s-9.94.76-12.74,10.5,7,12.57,7,12.57,8.87,2.8,11.64-5.53-3.2-11-4.51-11.56c0,0-6.29-2.66-9.74,4.57,0,0-2.67,6.91,3.76,9.31,0,0,5.54,2,7.13-3.33a3.82,3.82,0,0,0-.56-3.63s-.9-.79-.76.49a3.43,3.43,0,0,1-2.9,4.32s-4.64.65-4.28-4.48c0,0,.39-5.08,5.13-4.63a5.12,5.12,0,0,1,4.52,5.13c.31,6-5.45,6.68-5.45,6.68s-4.74,1.26-7.59-4.23c0,0-2.92-5.8,2.85-10.68a20.56,20.56,0,0,1,5.07-3.73S585.39,128.61,584.23,128.33Z"/><path class="cls-23" d="M633.14,76.52s.39-7.11-6.22-10-9.53,3.8-9.53,3.8-2.81,6,2.81,8.76,8-1.24,8.58-2.11c0,0,2.46-4.2-2.31-7.31,0,0-4.63-2.54-6.92,1.78,0,0-1.93,3.73,1.68,5.36a2.73,2.73,0,0,0,2.61-.06s.65-.57-.27-.59a2.44,2.44,0,0,1-2.78-2.45s0-3.34,3.56-2.61c0,0,3.56.75,2.79,4.06a3.66,3.66,0,0,1-4,2.72,4.44,4.44,0,0,1-4.2-4.48s-.44-3.47,3.7-5a6.32,6.32,0,0,1,7.27,3A14.78,14.78,0,0,1,632,75.37S632.83,77.31,633.14,76.52Z"/><path class="cls-23" d="M608.46,76.7s7,.87,10.38-5.54-3.15-9.77-3.15-9.77-5.8-3.21-8.92,2.21.7,8.11,1.53,8.72c0,0,4,2.74,7.44-1.82,0,0,2.84-4.45-1.31-7,0,0-3.59-2.16-5.45,1.32a2.72,2.72,0,0,0-.12,2.62s.52.68.6-.24a2.43,2.43,0,0,1,2.63-2.6s3.34.2,2.36,3.73c0,0-1,3.5-4.23,2.51a3.66,3.66,0,0,1-2.44-4.22,4.44,4.44,0,0,1,4.75-3.9s3.49-.21,4.71,4a6.34,6.34,0,0,1-3.5,7.06,14.8,14.8,0,0,1-4.07,1.89S607.69,76.33,608.46,76.7Z"/><path class="cls-23" d="M595.52,17.46s-5.46,8.35.55,16.51S610.32,36,610.32,36s7.62-5.33,2.72-12.61S602.41,19.29,601.13,20c0,0-5.94,3.37-2.31,10.5,0,0,3.84,6.34,9.66,2.7,0,0,4.95-3.18,1.71-7.69A3.83,3.83,0,0,0,607,23.71s-1.18.23-.07.91a3.42,3.42,0,0,1,1.65,4.93s-2.32,4.08-6.16.66c0,0-3.79-3.4-.54-6.89a5.12,5.12,0,0,1,6.82-.46c4.93,3.4,2,8.4,2,8.4s-1.9,4.53-8,3.44c0,0-6.37-1.22-6.72-8.77a20.62,20.62,0,0,1,.14-6.3S596.45,16.71,595.52,17.46Z"/><path class="cls-23" d="M610.15,44.94s-5.46,8.36.55,16.52S625,63.53,625,63.53s7.63-5.33,2.72-12.61-10.63-4.14-11.9-3.47c0,0-5.94,3.37-2.32,10.51,0,0,3.85,6.34,9.66,2.7,0,0,4.95-3.18,1.71-7.69a3.82,3.82,0,0,0-3.21-1.77s-1.18.23-.08.91A3.42,3.42,0,0,1,623.19,57s-2.32,4.09-6.16.67c0,0-3.79-3.4-.55-6.89a5.13,5.13,0,0,1,6.83-.46c4.92,3.4,2,8.4,2,8.4s-1.89,4.53-8,3.44c0,0-6.38-1.22-6.72-8.77a20.47,20.47,0,0,1,.13-6.3S611.09,44.2,610.15,44.94Z"/><path class="cls-23" d="M610.41,40.14S605,35.5,598.71,39s-2.8,9.89-2.8,9.89,3.05,5.89,8.64,3.1,3.92-7.13,3.57-8.09c0,0-1.82-4.52-7.2-2.62,0,0-4.83,2.12-2.81,6.57,0,0,1.78,3.8,5.27,1.94a2.71,2.71,0,0,0,1.54-2.11s0-.86-.63-.14a2.43,2.43,0,0,1-3.63.71s-2.66-2,.11-4.42c0,0,2.75-2.36,4.91.26a3.67,3.67,0,0,1-.32,4.87,4.43,4.43,0,0,1-6.11.6s-3-1.76-1.67-6a6.31,6.31,0,0,1,6.82-3.93,14.56,14.56,0,0,1,4.43.68S610.85,40.87,610.41,40.14Z"/><path class="cls-23" d="M608.14,9.5s-5.39-4.65-11.71-1.17-2.8,9.89-2.8,9.89,3,5.89,8.65,3.1,3.92-7.13,3.56-8.09c0,0-1.82-4.52-7.2-2.62,0,0-4.83,2.12-2.81,6.57,0,0,1.78,3.81,5.27,1.94A2.71,2.71,0,0,0,602.64,17s0-.86-.63-.14a2.43,2.43,0,0,1-3.63.71s-2.66-2,.11-4.42c0,0,2.76-2.36,4.91.26a3.66,3.66,0,0,1-.31,4.87,4.43,4.43,0,0,1-6.11.6s-3-1.76-1.68-6A6.31,6.31,0,0,1,602.12,9a14.38,14.38,0,0,1,4.43.69S608.57,10.23,608.14,9.5Z"/><path class="cls-23" d="M620.81,48s5-5.07,1.94-11.62-9.66-3.45-9.66-3.45-6.08,2.65-3.68,8.42,6.84,4.4,7.83,4.1c0,0,4.62-1.51,3.1-7,0,0-1.8-5-6.37-3.25,0,0-3.91,1.53-2.28,5.13a2.71,2.71,0,0,0,2,1.69s.85,0,.18-.62a2.45,2.45,0,0,1-.47-3.68s2.2-2.52,4.4.41c0,0,2.17,2.91-.59,4.89a3.65,3.65,0,0,1-4.83-.65,4.44,4.44,0,0,1-.19-6.14s2-2.89,6-1.28A6.33,6.33,0,0,1,621.7,42a14.68,14.68,0,0,1-1,4.38S620.05,48.34,620.81,48Z"/><path class="cls-23" d="M562.5,62s7.11.09,9.71-6.65S568,46,568,46s-6.12-2.55-8.61,3.18,1.58,8,2.47,8.49c0,0,4.3,2.29,7.2-2.62,0,0,2.33-4.74-2.08-6.85,0,0-3.8-1.76-5.27,1.91a2.7,2.7,0,0,0,.17,2.61s.59.63.57-.3a2.44,2.44,0,0,1,2.33-2.88s3.33-.16,2.75,3.45c0,0-.59,3.59-3.93,3A3.65,3.65,0,0,1,560.72,52a4.43,4.43,0,0,1,4.29-4.4s3.44-.59,5.12,3.49a6.34,6.34,0,0,1-2.7,7.4,14.59,14.59,0,0,1-3.83,2.32S561.7,61.7,562.5,62Z"/><text class="cls-24" transform="translate(457.83 209.5)">nema<tspan class="cls-25" x="106.03" y="0">t</tspan><tspan x="119.31" y="0">od</tspan><tspan class="cls-26" x="167.76" y="0">e</tspan><tspan x="189.49" y="0">s</tspan></text><text class="cls-27" transform="translate(686.44 35.8)">diam<tspan class="cls-28" x="72.75" y="0">et</tspan><tspan x="98.1" y="0">er:</tspan><tspan class="cls-29" x="133.65" y="0" xml:space="preserve"> 1/500 in.</tspan><tspan x="0" y="36">length: </tspan><tspan class="cls-29" x="105.42" y="36">1/20 in.</tspan></text><path class="cls-30" d="M200.41,583.66a8.1,8.1,0,0,0-15.4-4.17s-5.68,9.29-2.26,36.88a7.63,7.63,0,0,0,1.44,4,7.72,7.72,0,0,0,13.75-6.41,70.71,70.71,0,0,1,.64-22Z"/><path class="cls-30" d="M207.9,630.78c.24-.43.48-.84.71-1.29a8.61,8.61,0,1,1,15.57,7.32,104.82,104.82,0,0,1-24.36,31l0,0c-.25.21-.5.4-.77.59a8.62,8.62,0,0,1-9.63-14.3s6.55-4.16,14.3-16.13Z"/><path class="cls-31" d="M132.2,630c3.09.69,6.62,2.72,9.93,1.55,4.7-1.65,2-3.55,2.15-7.53a13.29,13.29,0,0,1,1.51-4.47c2.31-3.49,4-4.42,4-4.42,3-1.93,6.87-1.8,10.23,2.75,6.85,9.29-3.67,12.14-9.29,16.37-6.92,5.19-7.94,15.07-16.7,18.88-8.11,3.53-16.58-1.7-15.93-10.81S123.83,628.15,132.2,630Z"/><path class="cls-23" d="M269.92,579.87l-23.71.33c-3.33-5.53,3.48-7.05,3.48-7.05,53.34-1.51,90.68-50.23,143-60.39,70.3-13.63,134.19,47.88,103.53,122.88-14.27,34.91-58.4,57.74-95.06,51.25-36.09-6.4-70.2-38.08-50.81-80.67,10.16-22.33,38.55-33.77,61.27-26.74,12.66,3.92,25.06,15.11,27.84,28.71,4,19.78-23.86,37.26-20.07,22.27,9.37-37-36.71-45.55-47.51-11.62-9.48,29.77,26.66,44.44,43.59,45.37,47.22,2.58,80.87-67.7,43.33-104.4-34.32-33.56-73-20.86-104.13-1.6-14.59,9-29.44,19.15-49.92,27.15-9.42,3.68-25.44,9.81-40.29,6.38Z"/><path class="cls-32" d="M205.39,612.67s21.26-4.26,37.06-12.54"/><polygon class="cls-33" points="241.66 611.04 239.83 601.55 231.74 596.28 254.19 591.9 241.66 611.04"/><path class="cls-31" d="M479.66,698.52l7.56,26.17-2.88.83-18.09-11.6,4.39,15.2-5.42,1.57-7.53-26.09,2.87-.83,18.25,12-4.53-15.69Z"/><path class="cls-31" d="M505.45,691.06l7.46,25.84-5.42,1.57-3-10.3L494.67,711l3,10.3-5.43,1.56-7.45-25.83,5.42-1.57,3,10.3,9.85-2.85-3-10.3Z"/><path class="cls-31" d="M528.93,723l-1.46.42.7,2.43-3,.87-.7-2.43L518.38,726l-.72-2.47,2.51-11.72,3.66-1.06,2.82,9.8,1.46-.42Zm-5.28-1.53-1.7-5.89-1.12,6.71Z"/><path class="cls-34" d="M417.37,642s-23.58,36.13,4.53,61"/><polygon class="cls-33" points="406.27 708.21 418.46 699.93 420.96 685.42 440.63 714.22 406.27 708.21"/><path class="cls-35" d="M826,443.34c-.18,5.19,0,10.39,1.56,14.89a21.09,21.09,0,0,0,8.69,11c4.15,2.9,9.1,5.31,13.9,8.06,2.42,1.36,4.83,2.79,7.18,4.31,1.18.76,2.35,1.55,3.5,2.35l3.37,2.45a254,254,0,0,1,25.11,21.57c7.9,7.63,15.5,15.5,23.3,23.11,3.88,3.83,7.85,7.5,11.88,11.22a137.9,137.9,0,0,1,11.58,11.85,62.93,62.93,0,0,1,9.15,14,55.57,55.57,0,0,1,4.55,16,81.59,81.59,0,0,1,.66,8.26l0,4.13c0,.7-.06,1.41-.13,2.11s-.16,1.4-.31,2.08c-1,5.51-3.58,10.47-4,15.83a16.3,16.3,0,0,0,1.23,7.83,22.32,22.32,0,0,0,4.64,6.56c1.87,2,3.91,3.81,5.8,5.8a25.82,25.82,0,0,1,4.81,6.61,25.6,25.6,0,0,0-5-6.45c-1.94-1.92-4-3.69-6-5.63a22.87,22.87,0,0,1-5-6.61,17.12,17.12,0,0,1-1.52-8.17c.32-5.63,2.77-10.73,3.57-16,.13-.66.16-1.32.24-2s.05-1.32.07-2l-.16-4.06a80.07,80.07,0,0,0-.88-8.06,53.15,53.15,0,0,0-4.81-15.28A60.47,60.47,0,0,0,934,556a135,135,0,0,0-11.66-11.26c-4.1-3.57-8.26-7.21-12.27-10.94-8.06-7.44-15.88-15.08-23.91-22.41A248.48,248.48,0,0,0,861,490.92a115.92,115.92,0,0,0-13.68-8.34L840,478.84a80.87,80.87,0,0,1-7.41-4.23,31.72,31.72,0,0,1-6.89-5.93,26.16,26.16,0,0,1-4.71-8.09c-2.14-5.84-2.46-11.77-2.43-17.46a3.74,3.74,0,0,1,7.47,0,.34.34,0,0,1,0,.1Z"/><path class="cls-35" d="M818.88,445.81c1.69,7.37,4.06,14.63,6.4,22s4.67,14.91,5.65,22.88a54.65,54.65,0,0,1,.43,6l0,3-.23,3a46.61,46.61,0,0,1-.86,6,20.88,20.88,0,0,1-.72,2.93l-.83,2.91c-.65,1.9-1.45,3.74-2.18,5.61s-1.81,3.56-2.71,5.33c-1.91,3.42-3.93,6.71-5.9,10-3.94,6.59-7.72,13.21-10.19,20.28a54.32,54.32,0,0,0-2.62,10.85,55,55,0,0,0-.24,11.2,90.86,90.86,0,0,1,.44,11.77,32.78,32.78,0,0,1-2.92,11.73,52.94,52.94,0,0,1-14.78,18.42,118,118,0,0,1-19.61,12.7c-6.83,3.66-13.82,7-20.89,10.15s-14.19,6.08-21.1,9.42a118.47,118.47,0,0,0-19.72,11.76,102.45,102.45,0,0,0-16.66,15.79,148.33,148.33,0,0,0-13.58,18.63,91.51,91.51,0,0,0-9.75,20.85,45.91,45.91,0,0,0-2,11.33,26.51,26.51,0,0,0,1.92,11.3,26.55,26.55,0,0,1-2.09-11.31A46.08,46.08,0,0,1,666,719a92.68,92.68,0,0,1,9.49-21.11,149.71,149.71,0,0,1,13.37-18.94,103.32,103.32,0,0,1,16.62-16.23,120.58,120.58,0,0,1,19.79-12.22c6.93-3.48,14-6.55,21-9.77s13.86-6.65,20.58-10.38a114.11,114.11,0,0,0,19-12.7,49.94,49.94,0,0,0,13.7-17.55,29.43,29.43,0,0,0,2.48-10.63,89.94,89.94,0,0,0-.61-11.33,55.68,55.68,0,0,1,2.7-23.55c2.52-7.56,6.36-14.47,10.22-21.17,1.92-3.35,3.89-6.66,5.69-10,.82-1.68,1.67-3.34,2.46-5,.63-1.74,1.36-3.45,1.93-5.21a49.76,49.76,0,0,0,1.63-21.84c-1-7.37-3.38-14.61-5.78-21.9s-5-14.68-6.86-22.33a2.8,2.8,0,1,1,5.44-1.34Z"/><path class="cls-35" d="M818.82,447.2a37.7,37.7,0,0,1,1.27,17.09,51.84,51.84,0,0,1-5.34,15.95A33.28,33.28,0,0,1,810,487.4a18.19,18.19,0,0,1-7.4,5.24,20.36,20.36,0,0,1-8.88,1,68.51,68.51,0,0,1-8.17-1.4C780.3,491,775.22,490,770.12,490a33.37,33.37,0,0,0-7.52.94c-1.23.29-2.43.7-3.63,1.11l-3.7,1.44c-9.84,4-19.45,8.71-29.24,13.1s-19.76,8.57-30.24,11.29a79.37,79.37,0,0,1-16,2.54,51.69,51.69,0,0,1-16.14-1.67,45.81,45.81,0,0,1-14.59-7,60.36,60.36,0,0,1-11.65-11.15q-2.5-3.15-4.85-6.41c-.78-1.09-1.56-2.18-2.39-3.21a10.37,10.37,0,0,0-2.91-2.62,9.59,9.59,0,0,0-1.81-.75,18.64,18.64,0,0,0-1.95-.38c-1.32-.19-2.65-.26-4-.32-2.67-.11-5.35-.13-8-.18,2.67,0,5.35-.05,8,0,1.34,0,2.68.08,4,.24a17.41,17.41,0,0,1,2,.34,9.39,9.39,0,0,1,1.9.75,10.68,10.68,0,0,1,3.07,2.64c.88,1,1.68,2.11,2.49,3.17,1.6,2.14,3.26,4.24,5,6.29A59.88,59.88,0,0,0,649.64,511,45,45,0,0,0,664,517.44a50.13,50.13,0,0,0,15.68,1.27,78.06,78.06,0,0,0,15.58-2.82c10.21-2.88,20-7.23,29.6-11.8s19.15-9.52,29.07-13.79l3.76-1.56c1.31-.48,2.64-1,4-1.32a36.94,36.94,0,0,1,8.35-1.23c5.64-.22,11.14.87,16.36,1.9a62.92,62.92,0,0,0,7.66,1.16,16.11,16.11,0,0,0,6.93-.86c4.2-1.63,7.2-5.82,9.39-10.36a46.92,46.92,0,0,0,4.52-14.46A32.24,32.24,0,0,0,813.5,449a2.8,2.8,0,1,1,5.3-1.81Z"/><path class="cls-35" d="M829.26,510.67a75,75,0,0,1-6.4,9.61c-2.27,3-4.59,5.88-6.76,8.82a68.51,68.51,0,0,0-5.83,9,29,29,0,0,0-3.23,9.75,23.19,23.19,0,0,0,1,10.1,29.83,29.83,0,0,0,5.1,9.07c4.46,5.62,10.25,10.32,15.53,15.66a91.31,91.31,0,0,1,14.11,17.54,54.33,54.33,0,0,1,4.73,10.28,58,58,0,0,1,2.48,11,85.23,85.23,0,0,1-.27,22.34,110.93,110.93,0,0,0-1,11,34.55,34.55,0,0,0,1.35,11,34.9,34.9,0,0,1-1.71-11c0-3.73.34-7.44.67-11.13a84.82,84.82,0,0,0-.44-22.06,55.82,55.82,0,0,0-2.76-10.6,52.31,52.31,0,0,0-4.87-9.76,89.12,89.12,0,0,0-14.28-16.61c-5.3-5-11.29-9.55-16.3-15.43a33.39,33.39,0,0,1-6-10.05,27,27,0,0,1-1.5-11.85,33.14,33.14,0,0,1,3.37-11.37,73.63,73.63,0,0,1,5.94-9.84c2.16-3.1,4.41-6.07,6.54-9.05a70.4,70.4,0,0,0,5.67-9.06h0a2.8,2.8,0,0,1,5,2.5Z"/><path class="cls-35" d="M832.81,468a96,96,0,0,1,13.62,6.08c4.35,2.32,8.56,4.84,12.67,7.48,8.22,5.27,16.09,11,23.87,16.74l11.63,8.62c1.94,1.42,3.89,2.81,5.84,4.15a48.81,48.81,0,0,0,5.87,3.55,8.31,8.31,0,0,0,1.29.51l.22.05.37,0c.26,0,.51.08.77.1a22,22,0,0,0,3.25,0,45.75,45.75,0,0,0,6.81-1.06c4.61-1,9.24-2.45,14.05-3.54a54.39,54.39,0,0,1,7.4-1.22,23.88,23.88,0,0,1,7.78.47,15,15,0,0,1,7,3.93,26,26,0,0,1,4.49,6.23,144.39,144.39,0,0,1,5.79,13.44c1.83,4.4,3.79,8.82,7,12.18a34.31,34.31,0,0,0,11.74,7.68,54.59,54.59,0,0,0,13.89,3.39c9.55,1.18,19.26.75,28.91.92-9.66.15-19.32.91-29,.05a56.41,56.41,0,0,1-14.3-3,36.1,36.1,0,0,1-12.6-7.68,27.44,27.44,0,0,1-4.5-6,72.18,72.18,0,0,1-3.3-6.58c-2-4.43-3.76-8.93-6.1-13a22.68,22.68,0,0,0-4.13-5.37,11.49,11.49,0,0,0-5.58-2.91,20.46,20.46,0,0,0-6.64-.15,49,49,0,0,0-6.84,1.37c-4.58,1.19-9.15,2.76-13.94,4a52.08,52.08,0,0,1-7.46,1.41,26.36,26.36,0,0,1-4,.1c-.34,0-.68-.07-1-.1l-.53-.06-.67-.14a13.51,13.51,0,0,1-2.09-.78,52.24,52.24,0,0,1-6.56-3.87c-2.05-1.37-4-2.78-6-4.19L880,502.4c-7.8-5.67-15.64-11.24-23.73-16.33-4-2.54-8.16-4.95-12.36-7.14A91.75,91.75,0,0,0,831,473.31h0a2.8,2.8,0,0,1,1.79-5.31Z"/><path class="cls-35" d="M908.94,527.51a159.91,159.91,0,0,1,15.5,18,84.6,84.6,0,0,1,11.49,20.91,52,52,0,0,1,2.78,11.71,43.58,43.58,0,0,1-.28,12.07,46.81,46.81,0,0,1-3.54,11.49,63.78,63.78,0,0,1-6,10.33c-4.54,6.52-10,12.24-15,18.15a52.91,52.91,0,0,0-6.71,9.38,29.68,29.68,0,0,0-3.32,10.92,32.69,32.69,0,0,0-.13,5.77,53.74,53.74,0,0,0,.63,5.78c.59,3.85,1.48,7.67,2.17,11.53a51.27,51.27,0,0,1,1,11.73,28.44,28.44,0,0,1-3,11.3,30.94,30.94,0,0,0,1.92-5.53,30.5,30.5,0,0,0,.75-5.79,50.82,50.82,0,0,0-1.26-11.59c-.79-3.83-1.77-7.62-2.48-11.49a55.17,55.17,0,0,1-.79-5.87,34.77,34.77,0,0,1,0-5.95,30.86,30.86,0,0,1,3.18-11.5,38.5,38.5,0,0,1,3.08-5.13c1.16-1.62,2.38-3.17,3.63-4.69,5-6.06,10.31-11.81,14.62-18.24a62.37,62.37,0,0,0,5.6-10.06,42.34,42.34,0,0,0,.42-33.31,81.5,81.5,0,0,0-11.4-19.93,155.25,155.25,0,0,0-15.45-17.3h0a1.87,1.87,0,0,1,2.62-2.67Z"/><path class="cls-35" d="M923.35,541a110.15,110.15,0,0,1,13.33,24,76.81,76.81,0,0,1,5.43,27c.17,9.24-1.48,18.37-3.76,27.16-1.12,4.4-2.39,8.75-3.54,13.09a96.47,96.47,0,0,0-2.71,13.08,37,37,0,0,0,.52,13,32.24,32.24,0,0,0,5.55,11.75l1,1.31,1,1.38c.71.92,1.31,1.91,1.95,2.87a54.84,54.84,0,0,1,3.23,6.11,61.15,61.15,0,0,1,4.09,13.09,86.05,86.05,0,0,1,.75,27.17,93.64,93.64,0,0,1-7,26.13A93.79,93.79,0,0,0,949.48,722,85.53,85.53,0,0,0,948,695.19a59.65,59.65,0,0,0-4.33-12.61,51.36,51.36,0,0,0-3.27-5.78c-.64-.89-1.23-1.83-1.93-2.68l-2.1-2.67a34.57,34.57,0,0,1-6.08-12.52,40,40,0,0,1-.72-13.9,99.3,99.3,0,0,1,2.64-13.47c1.11-4.4,2.33-8.74,3.39-13.1,2.16-8.71,3.63-17.55,3.38-26.41a73.63,73.63,0,0,0-5.48-25.8,107.3,107.3,0,0,0-13.16-23.1h0a1.86,1.86,0,1,1,3-2.2Z"/><path class="cls-35" d="M808.17,557.41c1,4.65,3.61,9.14,6.33,13.53s5.73,8.8,8.34,13.48a57.71,57.71,0,0,1,6.09,15,40.64,40.64,0,0,1,.46,16.25,52.38,52.38,0,0,1-5.27,15.19,79.65,79.65,0,0,1-4,6.9c-1.43,2.19-2.81,4.41-4.12,6.66a66.83,66.83,0,0,0-6.44,14.21,29.83,29.83,0,0,0-1.29,7.67,17.64,17.64,0,0,0,1.46,7.64,17.81,17.81,0,0,1-1.86-7.63,30.4,30.4,0,0,1,.91-7.89,68,68,0,0,1,5.8-14.77c1.21-2.36,2.49-4.67,3.82-6.95s2.59-4.5,3.7-6.85a50,50,0,0,0,4.59-14.61,37.55,37.55,0,0,0-.88-15,54.27,54.27,0,0,0-6.17-13.93c-2.64-4.42-5.7-8.64-8.65-13.07-1.47-2.21-2.91-4.49-4.2-6.91a34.78,34.78,0,0,1-3.14-7.8,2.33,2.33,0,0,1,4.52-1.16S808.16,557.39,808.17,557.41Z"/><path class="cls-35" d="M826.76,474.3a47.83,47.83,0,0,1,4.18,14.63,35.67,35.67,0,0,1-1.65,15.38,42.41,42.41,0,0,1-7.49,13.19,69.52,69.52,0,0,1-10.55,10.26A157.08,157.08,0,0,1,787,543.06c-8.37,4.46-16.91,8.46-25.16,12.83A95.51,95.51,0,0,0,750,563.11a110.26,110.26,0,0,0-10.65,9c-6.78,6.42-13.08,13.41-19.46,20.33a267.9,267.9,0,0,1-20,20.07c-7.09,6.2-15,11.74-24,14.69,8.87-3.26,16.53-9,23.35-15.4a261.75,261.75,0,0,0,19.16-20.63c6.15-7.12,12.22-14.35,18.9-21.1A112.65,112.65,0,0,1,748,560.45a98,98,0,0,1,12-7.88c8.24-4.71,16.62-9,24.73-13.64a152.25,152.25,0,0,0,23-15.52,63.78,63.78,0,0,0,9.35-9.69,36.43,36.43,0,0,0,6-11.42,29.12,29.12,0,0,0,.93-12.52,40.54,40.54,0,0,0-4-12.27v0a3.74,3.74,0,1,1,6.71-3.29A.54.54,0,0,0,826.76,474.3Z"/><path class="cls-35" d="M816.18,523.24a14.24,14.24,0,0,1-2,3.73,26.36,26.36,0,0,1-2.5,2.89,53.13,53.13,0,0,1-5.43,4.73c-3.73,2.89-7.61,5.42-11.52,7.87-7.81,4.89-15.84,9.31-23.63,13.92-1.95,1.16-3.87,2.33-5.73,3.54-.92.61-1.83,1.23-2.68,1.87a13.21,13.21,0,0,0-2.11,1.87l-.13.17-.22.33-.42.66c-.3.43-.53.9-.8,1.36a28.58,28.58,0,0,0-1.35,2.85,32.29,32.29,0,0,0-1.79,6.13,55.1,55.1,0,0,0-.68,13.13c.24,4.46.8,9,1.38,13.47s1.19,9.09,1.44,13.74a123,123,0,0,1-.21,13.85,85.82,85.82,0,0,1-2.08,13.71A63,63,0,0,1,751,656.11a60.53,60.53,0,0,1-3.51,6c-1.3,1.92-2.7,3.75-4.16,5.52-2.92,3.55-6,6.87-8.92,10.39a40.75,40.75,0,0,0-7,11.56A28.55,28.55,0,0,0,725.9,703a28.69,28.69,0,0,1,1-13.57,41.15,41.15,0,0,1,6.74-11.95c2.78-3.65,5.81-7.07,8.57-10.67a59.66,59.66,0,0,0,7.13-11.45,61.55,61.55,0,0,0,4.17-12.77,84.56,84.56,0,0,0,1.59-13.38,119.11,119.11,0,0,0-.23-13.5c-.38-4.46-1.12-8.93-1.84-13.43s-1.45-9.06-1.85-13.71a59.44,59.44,0,0,1,.3-14.15,36.26,36.26,0,0,1,1.82-7,30.56,30.56,0,0,1,1.47-3.38c.29-.54.55-1.1.88-1.62l.48-.8.24-.39.37-.52a17.69,17.69,0,0,1,2.93-2.73c1-.74,1.94-1.42,2.91-2.08,2-1.3,3.91-2.53,5.87-3.72,7.86-4.77,15.77-9.26,23.38-14.13,3.79-2.44,7.53-5,11-7.69a50.57,50.57,0,0,0,4.84-4.3,14,14,0,0,0,3.18-4.56v0a2.8,2.8,0,0,1,5.31,1.78Z"/><path class="cls-35" d="M817.3,447.54c.63,3.33,1.46,6.67,2.34,10.06s1.78,6.84,2.44,10.42a45,45,0,0,1,.82,11.12,29.83,29.83,0,0,1-2.95,11,35.52,35.52,0,0,1-2.86,4.89c-.54.76-1.15,1.46-1.72,2.19l-.88,1.09c-.29.36-.62.68-.93,1a52.9,52.9,0,0,1-8.22,7.26,65.78,65.78,0,0,1-9.29,5.62,87.71,87.71,0,0,1-9.89,4.26c-13.44,4.93-27.37,7.41-41,10.5-6.82,1.53-13.59,3.2-20.19,5.33-3.29,1.08-6.54,2.28-9.71,3.65a80.85,80.85,0,0,0-9.15,4.75,82.28,82.28,0,0,0-8.36,6.06,103.41,103.41,0,0,0-7.58,7.09c-4.82,5-9.22,10.44-13.66,15.88a143.24,143.24,0,0,1-14.25,15.65,51.62,51.62,0,0,1-18.14,11,50.28,50.28,0,0,1-10.41,2.21l-2.65.23c-.89.05-1.77,0-2.66.07-1.77.08-3.54-.09-5.3-.14-7-.45-14-1.48-21-1.77a48,48,0,0,0-5.23,0,27.78,27.78,0,0,0-5.15.72,18.88,18.88,0,0,0-4.83,1.86,15.38,15.38,0,0,0-4,3.27,19.4,19.4,0,0,0-2.9,4.33,33.54,33.54,0,0,0-1.95,4.86A60.91,60.91,0,0,0,576,622.32a60.69,60.69,0,0,1,1.9-10.34,32.33,32.33,0,0,1,1.89-4.93,19.46,19.46,0,0,1,2.86-4.44,16.22,16.22,0,0,1,4.05-3.42,19,19,0,0,1,4.92-2,29.17,29.17,0,0,1,5.24-.83,51.89,51.89,0,0,1,5.29-.11c7.05.18,14,1.09,21,1.42,1.74,0,3.48.16,5.22.05.86,0,1.73-.05,2.6-.11l2.59-.26A48.31,48.31,0,0,0,643.66,595a50,50,0,0,0,17.41-10.95,140.66,140.66,0,0,0,13.81-15.68c4.34-5.5,8.68-11.06,13.51-16.25,2.43-2.58,5-5.06,7.66-7.4a73.29,73.29,0,0,1,18-11.53c3.25-1.46,6.56-2.75,9.92-3.92,6.72-2.29,13.56-4.09,20.4-5.74,13.65-3.33,27.43-6.06,40.31-11a83.84,83.84,0,0,0,9.36-4.22,60.31,60.31,0,0,0,8.6-5.39,48.77,48.77,0,0,0,7.42-6.78c.28-.31.58-.6.84-.93l.75-1c.5-.65,1-1.29,1.49-2a30.94,30.94,0,0,0,2.38-4.22,24.83,24.83,0,0,0,2.32-9.23,40.11,40.11,0,0,0-.92-9.8c-1.34-6.61-3.68-13.31-5.12-20.41a2.8,2.8,0,1,1,5.49-1.12v.05Z"/><path class="cls-35" d="M737.81,501.59c-12.22,5.73-24.24,12.19-36.28,18.52-6,3.16-12,6.37-18.13,9.45-1.52.78-3.12,1.51-4.57,2.24s-3,1.57-4.42,2.42c-2.93,1.69-5.86,3.46-8.88,5.09a50.61,50.61,0,0,1-9.56,4.15,21.29,21.29,0,0,1-5.27.89,14.42,14.42,0,0,1-5.29-1.05c-3.3-1.24-6.18-3.09-9.35-3.9a12.64,12.64,0,0,0-2.41-.4c-.83-.08-1.67-.13-2.51-.17-1.67-.06-3.36,0-5,.07-6.74.41-13.36,2.11-20.07,3.32a67.87,67.87,0,0,1-20.35,1,67.18,67.18,0,0,0,20.24-1.6c6.65-1.38,13.23-3.28,20.1-3.89,1.71-.15,3.43-.23,5.16-.21.86,0,1.72,0,2.58.11a14,14,0,0,1,2.63.36c3.49.8,6.48,2.62,9.59,3.68a12.76,12.76,0,0,0,4.68.81,19.84,19.84,0,0,0,4.74-.95,49.12,49.12,0,0,0,9-4.23c2.91-1.68,5.77-3.51,8.68-5.3,1.46-.89,2.94-1.78,4.47-2.61s3-1.54,4.55-2.34c6-3.15,12-6.45,17.93-9.71,12-6.52,23.83-13.16,36.16-19.18a1.86,1.86,0,1,1,1.64,3.35h0Z"/><path class="cls-35" d="M719.8,534.43c-5.64,3.36-10.18,8.6-14,14.22a114.83,114.83,0,0,0-9.67,18.17q-2.05,4.75-3.86,9.63l-1.78,4.88a47.42,47.42,0,0,1-2,5,23,23,0,0,1-6.7,8.59c-2.92,2.25-6.21,3.66-9.27,5.22a35.9,35.9,0,0,0-8.44,5.65,38.63,38.63,0,0,0-6.46,7.88c-3.62,5.83-5.54,12.59-6.51,19.43s-1.24,13.84-2.06,20.77-2.27,13.86-5.42,20.1c3-6.31,4.31-13.25,4.93-20.15s.71-13.9,1.57-20.85,2.6-13.92,6.22-20.06A40.41,40.41,0,0,1,663,604.5a38.5,38.5,0,0,1,8.72-6.14c3.09-1.66,6.23-3.12,8.79-5.21a20.56,20.56,0,0,0,5.84-7.87,50,50,0,0,0,1.75-4.79l1.69-5c1.16-3.31,2.39-6.59,3.72-9.84a117.31,117.31,0,0,1,9.58-18.86,64.92,64.92,0,0,1,6.49-8.54,49.75,49.75,0,0,1,3.89-3.79,39.45,39.45,0,0,1,4.43-3.26,1.87,1.87,0,1,1,2,3.15l0,0Z"/><path class="cls-35" d="M821.34,444.94a38.26,38.26,0,0,1,3.8,8.87c.91,3,1.6,5.94,2.2,8.91,1.21,5.93,2.09,11.85,3,17.74s1.79,11.73,2.93,17.49,2.55,11.47,4.9,16.54c.28.64.63,1.22.94,1.83s.69,1.14,1.08,1.72c.8,1.18,1.67,2.32,2.57,3.44,1.81,2.25,3.79,4.41,5.81,6.59,4,4.35,8.26,8.79,11.49,14.14a36.5,36.5,0,0,1,3.8,8.59,37.83,37.83,0,0,1,1.22,9.26c.1,3,.11,5.93.49,8.74a23.24,23.24,0,0,0,.94,4.06,34.84,34.84,0,0,0,1.57,4,40.58,40.58,0,0,0,10.6,13.44,69.87,69.87,0,0,0,14.76,9.39c10.61,5.12,22.08,8.42,33.64,11.06,5.79,1.32,11.62,2.44,17.48,3.49l8.79,1.54c2.93.51,5.87,1,8.8,1.62a54.74,54.74,0,0,1,8.59,2.57,41.36,41.36,0,0,1,7.93,4.17c2.48,1.66,4.81,3.54,7.11,5.43l6.87,5.69-7-5.54c-2.34-1.84-4.7-3.66-7.2-5.25a41,41,0,0,0-7.92-4,54.92,54.92,0,0,0-8.55-2.35c-2.91-.56-5.85-1-8.79-1.43l-8.83-1.35c-5.89-.92-11.77-1.93-17.61-3.12-11.68-2.42-23.33-5.48-34.3-10.49a72.08,72.08,0,0,1-15.49-9.4,43.59,43.59,0,0,1-11.64-14.16,39.34,39.34,0,0,1-1.81-4.29,27.43,27.43,0,0,1-1.16-4.6,90.15,90.15,0,0,1-.72-9.06,34.38,34.38,0,0,0-1.26-8.38,32.67,32.67,0,0,0-3.57-7.62c-3-4.81-7.16-9-11.3-13.26-2.07-2.15-4.16-4.34-6.14-6.68-1-1.17-2-2.39-2.85-3.65-.46-.64-.9-1.36-1.33-2s-.8-1.4-1.13-2.12c-2.74-5.71-4.2-11.65-5.51-17.54s-2.24-11.8-3.22-17.67-2-11.72-3.2-17.43c-.63-2.86-1.33-5.68-2.2-8.39a32.91,32.91,0,0,0-3.29-7.46l0-.07a2.8,2.8,0,0,1,4.72-3Z"/><path class="cls-36" d="M542.25,696.8s74.65,25.56,103.14-48"/><polygon class="cls-33" points="654.49 661.96 643.82 652.86 629.86 654.22 651.36 628.9 654.49 661.96"/><path class="cls-37" d="M665.68,599.66l-6.93,16.9-1.85-.77-4.67-13.64-4,9.82-3.5-1.45,6.92-16.84,1.85.76,4.58,13.92,4.16-10.13Z"/><path class="cls-37" d="M682.33,606.51l-6.84,16.68-3.5-1.44,2.73-6.64-6.36-2.62-2.73,6.65-3.5-1.44L669,601l3.5,1.44-2.73,6.65,6.36,2.61,2.73-6.64Z"/><path class="cls-37" d="M681.37,633.06l-.94-.39-.64,1.57-1.94-.8.64-1.57-3.93-1.61.66-1.6,6.2-5.11,2.36,1-2.6,6.33.94.39Zm-2.13-3,1.56-3.8-3.38,3.06Z"/><text class="cls-1" transform="translate(20.64 286.93)">t<tspan class="cls-38" x="8.31" y="0">h</tspan><tspan class="cls-39" x="24.99" y="0">e</tspan><tspan class="cls-40" x="41.79" y="0">s</tspan><tspan x="53.94" y="0">e mic</tspan><tspan class="cls-41" x="130.83" y="0">r</tspan><tspan class="cls-39" x="139.35" y="0">o</tspan><tspan class="cls-40" x="157.26" y="0">s</tspan><tspan x="169.41" y="0">copic</tspan><tspan class="cls-42" x="245.16" y="0"> </tspan><tspan class="cls-38" x="255.27" y="0">w</tspan><tspan x="278.7" y="0">or</tspan><tspan class="cls-43" x="305.88" y="0">m</tspan><tspan x="332.31" y="0">s </tspan><tspan class="cls-41" x="354.89" y="0">t</tspan><tspan x="362.6" y="0">e</tspan><tspan class="cls-38" x="379.55" y="0">n</tspan><tspan x="396.2" y="0">d </tspan><tspan class="cls-4" x="425.06" y="0">t</tspan><tspan x="432.77" y="0">o pass on </tspan><tspan class="cls-40" x="578.51" y="0">s</tspan><tspan x="590.66" y="0">oil o</tspan><tspan class="cls-4" x="651.44" y="0">r</tspan><tspan x="659.96" y="0">ganic </tspan><tspan class="cls-38" x="747.8" y="0">m</tspan><tspan x="773.57" y="0">at</tspan><tspan class="cls-4" x="800.39" y="0">t</tspan><tspan x="808.1" y="0">e</tspan><tspan class="cls-44" x="825.05" y="0">r</tspan><tspan x="833.32" y="0">, p</tspan><tspan class="cls-41" x="867.13" y="0">r</tspan><tspan class="cls-10" x="875.65" y="0">e</tspan><tspan class="cls-4" x="892.21" y="0">f</tspan><tspan x="899.92" y="0">erri</tspan><tspan class="cls-38" x="942.64" y="0">n</tspan><tspan x="959.29" y="0">g </tspan><tspan class="cls-4" x="988.15" y="0">t</tspan><tspan x="995.86" y="0">o </tspan><tspan class="cls-4" x="1024.27" y="0">f</tspan><tspan x="1031.98" y="0">eed on </tspan><tspan x="13.44" y="51.85">l</tspan><tspan class="cls-5" x="20.22" y="51.85">iv</tspan><tspan x="42.51" y="51.85">i</tspan><tspan class="cls-38" x="50.04" y="51.85">n</tspan><tspan x="66.69" y="51.85">g thi</tspan><tspan class="cls-38" x="128.52" y="51.85">n</tspan><tspan x="145.17" y="51.85">gs!</tspan><tspan class="cls-12" x="182.34" y="51.85"> </tspan><tspan class="cls-5" x="192.45" y="51.85">w</tspan><tspan x="216.18" y="51.85">hile </tspan><tspan class="cls-40" x="274.91" y="51.85">s</tspan><tspan x="287.06" y="51.85">o</tspan><tspan class="cls-38" x="305.12" y="51.85">m</tspan><tspan x="330.89" y="51.85">e at</tspan><tspan class="cls-4" x="385.01" y="51.85">t</tspan><tspan x="392.72" y="51.85">ack </tspan><tspan class="cls-4" x="451.76" y="51.85">r</tspan><tspan x="460.28" y="51.85">o</tspan><tspan class="cls-10" x="478.34" y="51.85">o</tspan><tspan class="cls-45" x="496.01" y="51.85">t</tspan><tspan x="504.02" y="51.85">s a</tspan><tspan class="cls-2" x="545.12" y="51.85">n</tspan><tspan x="561.77" y="51.85">d cau</tspan><tspan class="cls-40" x="642.08" y="51.85">s</tspan><tspan x="654.23" y="51.85">e di</tspan><tspan class="cls-40" x="707.57" y="51.85">s</tspan><tspan x="719.72" y="51.85">ea</tspan><tspan class="cls-40" x="755.18" y="51.85">s</tspan><tspan class="cls-5" x="767.33" y="51.85">e</tspan><tspan x="784.13" y="51.85">, a</tspan><tspan class="cls-12" x="817.97" y="51.85"> </tspan><tspan class="cls-38" x="828.07" y="51.85">v</tspan><tspan x="842.68" y="51.85">a</tspan><tspan class="cls-14" x="861.19" y="51.85">s</tspan><tspan x="872.92" y="51.85">t </tspan><tspan class="cls-38" x="891.58" y="51.85">m</tspan><tspan x="917.35" y="51.85">ajorit</tspan><tspan class="cls-46" x="986.41" y="51.85">y</tspan><tspan x="1000.48" y="51.85"> </tspan><tspan class="cls-4" x="1010.83" y="51.85">f</tspan><tspan x="1018.54" y="51.85">eed on </tspan><tspan x="-18.96" y="103.69">bac</tspan><tspan class="cls-4" x="33.9" y="103.69">t</tspan><tspan x="41.61" y="103.69">eria, fu</tspan><tspan class="cls-38" x="134.46" y="103.69">n</tspan><tspan x="151.11" y="103.69">gi, a</tspan><tspan class="cls-38" x="210.99" y="103.69">n</tspan><tspan x="227.64" y="103.69">d </tspan><tspan class="cls-10" x="256.5" y="103.69">o</tspan><tspan x="274.17" y="103.69">t</tspan><tspan class="cls-38" x="282.48" y="103.69">h</tspan><tspan x="299.16" y="103.69">er </tspan><tspan class="cls-38" x="335.58" y="103.69">n</tspan><tspan x="352.23" y="103.69">e</tspan><tspan class="cls-2" x="369.18" y="103.69">m</tspan><tspan x="394.95" y="103.69">a</tspan><tspan class="cls-41" x="413.46" y="103.69">t</tspan><tspan x="421.17" y="103.69">od</tspan><tspan class="cls-39" x="457.74" y="103.69">e</tspan><tspan x="474.53" y="103.69">s, </tspan><tspan class="cls-41" x="502.1" y="103.69">r</tspan><tspan x="510.62" y="103.69">eleasi</tspan><tspan class="cls-38" x="589.58" y="103.69">n</tspan><tspan x="606.23" y="103.69">g mi</tspan><tspan class="cls-2" x="668.84" y="103.69">n</tspan><tspan x="685.49" y="103.69">e</tspan><tspan class="cls-41" x="702.44" y="103.69">r</tspan><tspan x="710.96" y="103.69">al nit</tspan><tspan class="cls-4" x="779.54" y="103.69">r</tspan><tspan x="788.06" y="103.69">ogen (</tspan><tspan class="cls-47" x="876.26" y="103.69">NH4</tspan></text><text class="cls-48" transform="translate(948.22 380.3) scale(0.58 0.58)">+</text><text class="cls-1" transform="translate(956.78 390.63)">) in t<tspan class="cls-2" x="60.87" y="0">h</tspan><tspan x="77.55" y="0">e p</tspan><tspan class="cls-28" x="123.33" y="0">r</tspan><tspan x="131.85" y="0">oc</tspan><tspan class="cls-8" x="165.75" y="0">e</tspan><tspan x="182.55" y="0">ss.</tspan></text><line class="cls-49" x1="161.5" y1="236.06" x2="1074.79" y2="236.06"/></g></g></svg>