<svg xmlns="http://www.w3.org/2000/svg" viewBox="0 0 1438.15 696.42"><defs><style>.cls-1{font-size:40px;fill:#5c5052;font-family:Acre-Light, Acre;font-weight:300;}.cls-2{letter-spacing:-0.02em;}.cls-3{letter-spacing:0em;}.cls-4{letter-spacing:0.01em;}.cls-5{letter-spacing:0em;}.cls-6{letter-spacing:0em;}.cls-7{letter-spacing:-0.03em;}.cls-8{letter-spacing:-0.02em;}.cls-9{letter-spacing:0em;}.cls-10{letter-spacing:-0.02em;}.cls-11{letter-spacing:-0.01em;}.cls-12{letter-spacing:-0.01em;}.cls-13{letter-spacing:-0.01em;}.cls-14{letter-spacing:0em;}.cls-15{letter-spacing:-0.03em;}.cls-16,.cls-21{font-family:Acre-Bold, Acre;font-weight:700;}.cls-17{letter-spacing:-0.01em;}.cls-18{letter-spacing:-0.01em;}.cls-19{letter-spacing:0em;}.cls-20{letter-spacing:-0.07em;}.cls-21{fill:#ec6a7c;}.cls-22{letter-spacing:0em;}.cls-23{fill:#5e5153;}.cls-24,.cls-26,.cls-28,.cls-29,.cls-31{fill:none;stroke-linecap:round;stroke-linejoin:round;}.cls-24,.cls-27,.cls-28,.cls-29{stroke:#fff;}.cls-24{stroke-width:8px;}.cls-25{fill:#ffcd01;}.cls-26,.cls-31{stroke:#ffcd01;}.cls-26{stroke-width:2px;}.cls-27{fill:#fff;stroke-miterlimit:10;stroke-width:0.66px;}.cls-28{stroke-width:5.28px;}.cls-29{stroke-width:8.58px;}.cls-30{fill:#5d5152;}.cls-31{stroke-width:1.32px;}</style></defs><g id="Layer_2" data-name="Layer 2"><g id="Layer_11" data-name="Layer 11"><text class="cls-1" transform="translate(508.65 34)">in <tspan class="cls-2" x="46.64" y="0">r</tspan><tspan class="cls-3" x="58" y="0">e</tspan><tspan x="80.4" y="0">spo</tspan><tspan class="cls-4" x="145.44" y="0">n</tspan><tspan class="cls-5" x="168.52" y="0">s</tspan><tspan class="cls-6" x="184.72" y="0">e</tspan><tspan x="207.12" y="0">, rhi</tspan><tspan class="cls-7" x="272.6" y="0">z</tspan><tspan x="289.23" y="0">obia </tspan><tspan class="cls-8" x="386.51" y="0">r</tspan><tspan x="397.87" y="0">elea</tspan><tspan class="cls-9" x="476.79" y="0">s</tspan><tspan x="492.99" y="0">e </tspan><tspan class="cls-10" x="529.39" y="0">n</tspan><tspan x="551.59" y="0">odule </tspan><tspan class="cls-2" x="668.59" y="0">f</tspan><tspan x="678.87" y="0">ac</tspan><tspan class="cls-8" x="724.67" y="0">t</tspan><tspan x="734.95" y="0">o</tspan><tspan class="cls-11" x="759.03" y="0">r</tspan><tspan x="770.79" y="0">s,</tspan><tspan class="cls-12" x="793.75" y="0"> </tspan><tspan class="cls-3" x="807.23" y="0">w</tspan><tspan x="838.87" y="0">hich </tspan><tspan class="cls-10" x="6.6" y="50">h</tspan><tspan x="28.84" y="50">elp t</tspan><tspan class="cls-10" x="110" y="50">h</tspan><tspan x="132.24" y="50">e rhi</tspan><tspan class="cls-7" x="213.68" y="50">z</tspan><tspan x="230.32" y="50">obia en</tspan><tspan class="cls-2" x="372.99" y="50">t</tspan><tspan x="383.27" y="50">er t</tspan><tspan class="cls-10" x="442.91" y="50">h</tspan><tspan x="465.15" y="50">e </tspan><tspan class="cls-2" x="501.55" y="50">r</tspan><tspan x="512.91" y="50">o</tspan><tspan class="cls-13" x="536.99" y="50">o</tspan><tspan class="cls-14" x="560.55" y="50">t </tspan><tspan class="cls-10" x="585.43" y="50">h</tspan><tspan x="607.67" y="50">ai</tspan><tspan class="cls-15" x="642.39" y="50">r</tspan><tspan x="653.43" y="50">. </tspan><tspan class="cls-16" x="673.51" y="50"> </tspan><tspan x="686.39" y="50">t</tspan><tspan class="cls-10" x="697.47" y="50">h</tspan><tspan x="719.71" y="50">e </tspan><tspan class="cls-8" x="756.11" y="50">r</tspan><tspan x="767.47" y="50">o</tspan><tspan class="cls-17" x="791.54" y="50">o</tspan><tspan x="815.1" y="50">t </tspan><tspan class="cls-18" x="839.98" y="50">h</tspan><tspan x="862.23" y="50">air </tspan><tspan x="46.46" y="100">curls, cells d</tspan><tspan class="cls-6" x="264.94" y="100">iv</tspan><tspan class="cls-19" x="294.66" y="100">ide </tspan><tspan class="cls-8" x="365.77" y="100">r</tspan><tspan x="377.13" y="100">apid</tspan><tspan class="cls-6" x="461.17" y="100">l</tspan><tspan class="cls-20" x="470.01" y="100">y</tspan><tspan x="486.77" y="100">, a</tspan><tspan class="cls-10" x="531.89" y="100">n</tspan><tspan x="554.09" y="100">d a </tspan><tspan class="cls-21" x="631.05" y="100">nodule </tspan><tspan class="cls-8" x="771.17" y="100">f</tspan><tspan class="cls-14" x="781.45" y="100">or</tspan><tspan class="cls-4" x="817.69" y="100">m</tspan><tspan class="cls-22" x="852.92" y="100">s </tspan><tspan x="275.48" y="150">a</tspan><tspan class="cls-2" x="300.16" y="150">r</tspan><tspan class="cls-19" x="311.52" y="150">ou</tspan><tspan class="cls-10" x="358.4" y="150">n</tspan><tspan x="380.59" y="150">d t</tspan><tspan class="cls-10" x="430.15" y="150">h</tspan><tspan x="452.39" y="150">e rhi</tspan><tspan class="cls-7" x="533.83" y="150">z</tspan><tspan class="cls-19" x="550.47" y="150">obia.</tspan></text></g><g id="Nitrogen_fixation_2" data-name="Nitrogen fixation_2"><g id="Layer_42" data-name="Layer 42"><path class="cls-23" d="M1241.13,288.12c-71.76,11.48-143.63,23-215.82,25.1-65.7,2-131.38-3.84-196.93-10.46C693.57,289.14,558.92,272,423.94,262.11,354.53,257,285,253.87,215.53,255.44,143.6,257.06,71.78,263.74,0,270.59V667.72c13-.5,26-1.8,36.58-.66,43,4.64,86.06-5.75,128.93.58,27.23,4,53.61,15.72,80.61,22.11,45.39,10.74,91.8,6.36,137.7,1.75C504.37,679.4,625.13,666,745.91,671.75c99.34,4.76,199.06,22.51,297.78,6,55.45-9.25,109.82-29.2,165.3-38,76-12.07,152.57-3.09,229,2V256.65Z"/></g><g id="Layer_43" data-name="Layer 43"><path class="cls-24" d="M90.88,506.46C110,469.52,180.94,440,180.94,440S228.05,413.62,219,294a815,815,0,0,1,7.1-83.78"/><path class="cls-24" d="M210.71,393.44s12.06,58.34-4.31,99-1.81,130.28-1.81,130.28"/><path class="cls-24" d="M333.73,515.31s22.79-70.79-57.19-133.94C203,323.32,224.69,221.19,224.69,221.19"/><path class="cls-25" d="M359,494.83l31.13,2.41c5.2.4,9.14,4.3,8.8,8.71s-4.84,7.66-10,7.26l-31.12-2.41c-5.2-.41-9.14-4.31-8.8-8.71S353.78,494.43,359,494.83Z"/><path class="cls-26" d="M446.47,511.81s-.51,6.54-15.21,5.38A11.15,11.15,0,0,1,422,510.7s-3-7.43-13.07-7.91c-12.61-.61-13.3,4.21-13.3,4.21"/><path class="cls-26" d="M439.81,509.32c-7.81-2.9-12.64,3.83-12.64,3.83s-3.09,7-17.57,4.39c-13.44-2.42-15.71-8.21-15.71-8.21"/><path class="cls-26" d="M396.17,503.7a19.78,19.78,0,0,0,12.42,5.38s8.28.38,10.34-4.91,8-4,10.39-3.89a21.86,21.86,0,0,1,10.59,4.36"/><path class="cls-26" d="M392,506.41c4.39-9.19,10.89-9.43,10.89-9.43s7.95-.94,11.08,7.82c3.2,8.94,8.61,6.31,10.91,6.09a15.35,15.35,0,0,0,9.34-7.65"/><path class="cls-25" d="M356.19,525.8l25.67,17.77c4.29,3,5.73,8.32,3.21,12s-8,4.17-12.32,1.21L347.08,539c-4.29-3-5.73-8.33-3.21-12S351.91,522.83,356.19,525.8Z"/><path class="cls-26" d="M423.2,584.55s-3.74,5.4-15.85-3a11.14,11.14,0,0,1-4.77-10.3s1.14-7.93-7.3-13.42c-10.59-6.88-13.62-3.07-13.62-3.07"/><path class="cls-26" d="M418.7,579.05c-5.28-6.44-12.85-3.06-12.85-3.06s-6.19,4.48-17.38-5.07c-10.39-8.86-9.43-15-9.43-15"/><path class="cls-26" d="M383.84,552.2a19.81,19.81,0,0,0,8,10.91s7,4.49,11.41,1,8.91.62,10.93,1.89a21.88,21.88,0,0,1,7,9.1"/><path class="cls-26" d="M378.9,552.46c8.43-5.72,14.17-2.66,14.17-2.66s7.33,3.2,5.63,12.34c-1.74,9.34,4.25,9.79,6.35,10.77A15.4,15.4,0,0,0,417,571"/><path class="cls-25" d="M308.82,530.61,295.3,558.75c-2.27,4.7-.87,10.06,3.12,12s9.05-.34,11.31-5l13.52-28.14c2.26-4.7.86-10.06-3.12-12S311.08,525.91,308.82,530.61Z"/><path class="cls-26" d="M279.63,614.81s5.91,2.84,12.29-10.46A11.13,11.13,0,0,0,291,593s-4.91-6.32-.28-15.27c5.8-11.22,10.32-9.39,10.32-9.39"/><path class="cls-26" d="M280.82,607.81c1.41-8.22,9.66-9,9.66-9s7.59.84,12.6-13c4.64-12.84.77-17.71.77-17.71"/><path class="cls-26" d="M297.84,567.23a19.75,19.75,0,0,1-1.57,13.44s-3.83,7.36-9.44,6.48-7.43,4.94-8.57,7a21.9,21.9,0,0,0-1.54,11.35"/><path class="cls-26" d="M302.26,565c-10.15-.81-13.63,4.68-13.63,4.68s-4.79,6.42,1.21,13.52c6.14,7.26,1.14,10.61-.19,12.49A15.41,15.41,0,0,1,278.34,600"/><path class="cls-25" d="M305.41,497.53l-29.64-9.8c-4.95-1.64-7.84-6.37-6.45-10.57s6.53-6.27,11.48-4.64l29.64,9.81c4.95,1.64,7.84,6.37,6.45,10.57S310.36,499.17,305.41,497.53Z"/><path class="cls-26" d="M224.55,460.07s2.06-6.22,16.06-1.58a11.14,11.14,0,0,1,7.47,8.54s1.15,7.93,10.79,10.81c12.1,3.62,13.93-.9,13.93-.9"/><path class="cls-26" d="M230.41,464.08c6.89,4.69,13.2-.68,13.2-.68s4.67-6,18.1,0c12.47,5.57,13.29,11.74,13.29,11.74"/><path class="cls-26" d="M271.44,480a19.77,19.77,0,0,0-10.77-8.2s-8-2.36-11.21,2.28-8.72,1.93-11,1.28a21.86,21.86,0,0,1-9.24-6.76"/><path class="cls-26" d="M276.1,478.36c-6.47,7.87-12.84,6.55-12.84,6.55s-7.94-1-8.88-10.25c-1-9.45-6.85-8.19-9.13-8.53a15.36,15.36,0,0,0-10.9,5.19"/></g><g id="Layer_44" data-name="Layer 44"><path class="cls-25" d="M853.49,486l31.12,2.47c5.2.41,9.13,4.32,8.78,8.73s-4.85,7.65-10,7.24l-31.12-2.47c-5.2-.41-9.13-4.32-8.78-8.73S848.29,485.55,853.49,486Z"/><path class="cls-26" d="M940.94,503.1s-.52,6.54-15.22,5.35a11.12,11.12,0,0,1-9.29-6.51s-3-7.43-13.06-7.93c-12.61-.63-13.31,4.19-13.31,4.19"/><path class="cls-26" d="M934.29,500.6c-7.81-2.92-12.65,3.81-12.65,3.81s-3.1,7-17.57,4.35c-13.44-2.44-15.7-8.24-15.7-8.24"/><path class="cls-26" d="M890.65,494.9a19.79,19.79,0,0,0,12.41,5.4s8.28.39,10.35-4.89,8-4,10.4-3.87a22,22,0,0,1,10.59,4.38"/><path class="cls-26" d="M886.52,497.6c4.41-9.18,10.91-9.41,10.91-9.41s8-.92,11.07,7.84c3.18,9,8.59,6.32,10.9,6.11a15.35,15.35,0,0,0,9.35-7.63"/><path class="cls-25" d="M841.63,529.32l25.64,17.82c4.28,3,5.71,8.33,3.19,12s-8.05,4.16-12.33,1.18l-25.64-17.81c-4.28-3-5.7-8.34-3.18-12S837.35,526.35,841.63,529.32Z"/><path class="cls-26" d="M908.53,588.2s-3.74,5.38-15.84-3.05a11.13,11.13,0,0,1-4.75-10.3s1.15-7.93-7.28-13.43c-10.57-6.9-13.61-3.09-13.61-3.09"/><path class="cls-26" d="M904.05,582.69c-5.28-6.45-12.85-3.09-12.85-3.09s-6.2,4.47-17.37-5.09c-10.38-8.89-9.4-15-9.4-15"/><path class="cls-26" d="M869.23,555.77a19.77,19.77,0,0,0,8,10.92s6.95,4.52,11.4,1,8.91.63,10.93,1.9a22,22,0,0,1,6.94,9.12"/><path class="cls-26" d="M864.3,556c8.44-5.71,14.16-2.64,14.16-2.64s7.33,3.22,5.61,12.35c-1.76,9.34,4.24,9.8,6.33,10.78a15.42,15.42,0,0,0,11.93-1.89"/><path class="cls-25" d="M778.94,542.57l-13.57,28.11c-2.27,4.7-.88,10.07,3.1,12s9-.33,11.31-5l13.58-28.11c2.27-4.69.88-10.06-3.1-12S781.21,537.87,778.94,542.57Z"/><path class="cls-26" d="M749.6,626.72s5.91,2.85,12.31-10.44A11.14,11.14,0,0,0,761,605s-4.9-6.34-.26-15.27c5.82-11.21,10.34-9.38,10.34-9.38"/><path class="cls-26" d="M750.8,619.71c1.42-8.21,9.67-9,9.67-9s7.6.86,12.63-13c4.67-12.83.8-17.71.8-17.71"/><path class="cls-26" d="M767.9,579.17a19.79,19.79,0,0,1-1.6,13.44s-3.84,7.34-9.45,6.46-7.44,4.92-8.58,7a21.91,21.91,0,0,0-1.57,11.34"/><path class="cls-26" d="M772.32,577c-10.15-.82-13.64,4.67-13.64,4.67s-4.8,6.4,1.19,13.51c6.12,7.27,1.12,10.62-.22,12.49a15.38,15.38,0,0,1-11.31,4.23"/><path class="cls-25" d="M790.62,500.3,789,469.12c-.27-5.21,3.1-9.61,7.51-9.84s8.22,3.81,8.48,9l1.6,31.18c.26,5.21-3.1,9.62-7.51,9.84S790.89,505.51,790.62,500.3Z"/><path class="cls-26" d="M796.25,411.36s6.55-.33,7.29,14.4a11.13,11.13,0,0,1-5.25,10.06s-7,3.94-6.17,14c1,12.59,5.89,12.66,5.89,12.66"/><path class="cls-26" d="M794.64,418.28c-1.88,8.12,5.42,12.05,5.42,12.05s7.33,2.17,6.6,16.86c-.68,13.64-6.13,16.63-6.13,16.63"/><path class="cls-26" d="M794.66,462.29a19.8,19.8,0,0,0,3.74-13s-.68-8.26-6.19-9.63-5-7.42-5.19-9.8a22,22,0,0,1,3-11.07"/><path class="cls-26" d="M797.88,466c-9.68-3.19-10.76-9.6-10.76-9.6s-1.94-7.76,6.34-12c8.46-4.32,5.15-9.35,4.65-11.6a15.37,15.37,0,0,0-8.79-8.28"/><path class="cls-24" d="M585.32,497.57c19.1-36.93,90.06-66.48,90.06-66.48s47.12-26.36,38.06-145.94a811.57,811.57,0,0,1,7.1-83.78"/><path class="cls-24" d="M705.16,384.55s12.05,58.34-4.32,99S699,613.81,699,613.81"/><path class="cls-24" d="M778.9,471.31c-10.75,7.51-14.22,23.43-5.83,35.57a34.56,34.56,0,0,0,27.74,14.39c7.5-.09,22.07-1.21,27.37-14.84,0,0,22.78-70.8-57.2-133.95-73.53-58-51.84-160.18-51.84-160.18"/></g><g id="Layer_45" data-name="Layer 45"><path class="cls-27" d="M1270.53,443.3c.38-.35.76-.29.71-1.09,12.61,10.06,16.8,29.15,16.8,44.3a68.43,68.43,0,0,0,4,23.93s-6.14,15.75-15,15.17c-7.41-.49-16.37.08-23.38-2.3-6.77-2.29-18.27-11.2-20.4-17.53-2.67-7.9-3.28-20.92.14-28.59,8.23-18.39,40.78-10.55,37.22-36.22"/><path class="cls-28" d="M1064.68,502.61c17.24-33.34,81.29-60,81.29-60s42.54-23.8,34.36-131.74a732.58,732.58,0,0,1,6.4-75.63"/><path class="cls-28" d="M1172.85,400.59s10.89,52.66-3.89,89.35-1.64,117.6-1.64,117.6"/><path class="cls-28" d="M1283.9,510.61s20.58-63.91-51.63-120.92c-66.37-52.4-46.8-144.59-46.8-144.59"/><path class="cls-29" d="M1268.58,453.21c8.45-18.85-16.26-43.5-42.37-61-37-24.75-37-60.94-43.43-84.31"/><path class="cls-28" d="M1266.15,425.3c7.19,15.85,2.45,30.87-11.38,38-8.78,4.51-16.7,4-20.29,14.32-2.39,6.88-3.74,12.59-3.65,20,.24,20.19,18.63,28.26,36.68,29.08,0,0,36.6,6.36,18.92-48.94"/><path class="cls-30" d="M1244,410.69a5.79,5.79,0,0,1,1.54-8.29,5.94,5.94,0,0,1,2.47-1l1.52,2.17a4.06,4.06,0,0,0-2.59.78,3.57,3.57,0,0,0,4,5.89,3.85,3.85,0,0,0,1.65-2.14l1.5,2.21a6.24,6.24,0,0,1-1.85,1.93A5.78,5.78,0,0,1,1244,410.69Z"/><path class="cls-31" d="M1278.49,450.74s4.63,1.88.41,12.29a8.46,8.46,0,0,1-6.85,5.26s-6.09.48-8.75,7.67c-3.34,9,0,10.64,0,10.64"/><path class="cls-31" d="M1275.15,455c-3.9,5-.12,10.07-.12,10.07s4.37,3.85-.85,13.76c-4.85,9.21-9.58,9.53-9.58,9.53"/><path class="cls-31" d="M1261,485.41a15.08,15.08,0,0,0,6.76-7.78s2.18-5.93-1.19-8.64-1-6.72-.43-8.44a16.7,16.7,0,0,1,5.6-6.69"/><path class="cls-31" d="M1262.06,489c-5.67-5.31-4.35-10.08-4.35-10.08s1.15-6,8.23-6.26,6.56-4.8,6.93-6.52a11.71,11.71,0,0,0-3.41-8.54"/><path class="cls-25" d="M1263.3,483.94c-3.12-1.26-6.86.7-8.35,4.38L1246,510.38c-1.48,3.68-.16,7.69,3,9,3,1.2,6.48-.52,8.1-3.85l-4.61-4.87,6.88-.66,6.88-17.06C1267.75,489.21,1266.43,485.2,1263.3,483.94Z"/><path class="cls-29" d="M1201.38,358.36c2.37,4.31,4.71,8.54,8,12.12,1.26,1.38,2.11,3.09,3.57,4.25.81.65,8.4,9.55,9,10.37"/><path class="cls-30" d="M1217.23,385.69a5.76,5.76,0,0,1,7-4.74,6,6,0,0,1,2.47,1l-.48,2.61a4,4,0,0,0-2.37-1.29,3.57,3.57,0,0,0-1.33,7,3.88,3.88,0,0,0,2.68-.33l-.52,2.62a6.26,6.26,0,0,1-2.67.05A5.78,5.78,0,0,1,1217.23,385.69Z"/></g></g></g></svg>