<svg xmlns="http://www.w3.org/2000/svg" viewBox="0 0 1436 1232.43"><defs><style>.cls-1{font-size:40px;}.cls-1,.cls-40{fill:#5c5052;}.cls-1,.cls-23{font-family:Acre-Light, Acre;font-weight:300;}.cls-2{letter-spacing:-0.02em;}.cls-3{letter-spacing:0em;}.cls-4{letter-spacing:0em;}.cls-5{letter-spacing:-0.01em;}.cls-6{letter-spacing:-0.01em;}.cls-7{letter-spacing:-0.01em;}.cls-18,.cls-8{letter-spacing:0em;}.cls-9{letter-spacing:-0.01em;}.cls-10{letter-spacing:0em;}.cls-11{letter-spacing:0em;}.cls-12{letter-spacing:-0.02em;}.cls-13{letter-spacing:-0.03em;}.cls-14{letter-spacing:0em;}.cls-15{letter-spacing:-0.01em;}.cls-16{letter-spacing:-0.02em;}.cls-17,.cls-18{font-family:Acre-Bold, Acre;font-weight:700;}.cls-19{letter-spacing:-0.03em;}.cls-20{letter-spacing:-0.02em;}.cls-21{letter-spacing:-0.01em;}.cls-22{fill:#336db5;}.cls-23{font-size:42px;}.cls-23,.cls-51{fill:#fff;}.cls-24{letter-spacing:-0.02em;}.cls-25{letter-spacing:-0.02em;}.cls-26{letter-spacing:-0.01em;}.cls-27{letter-spacing:-0.02em;}.cls-28{letter-spacing:0em;}.cls-29{letter-spacing:-0.02em;}.cls-30{letter-spacing:-0.1em;}.cls-31{letter-spacing:0em;}.cls-32{letter-spacing:-0.02em;}.cls-33{letter-spacing:0em;}.cls-34{letter-spacing:0em;}.cls-35{letter-spacing:0em;}.cls-36{letter-spacing:-0.02em;}.cls-37{letter-spacing:-0.01em;}.cls-38{letter-spacing:-0.02em;}.cls-39{letter-spacing:-0.01em;}.cls-41,.cls-43,.cls-46,.cls-50,.cls-53{fill:#3daaa1;}.cls-42{fill:#ffce01;}.cls-43,.cls-50{stroke:#fff;}.cls-43,.cls-49,.cls-50,.cls-52{stroke-miterlimit:10;}.cls-43{stroke-width:0.93px;}.cls-44,.cls-49,.cls-52{fill:none;stroke-linecap:round;}.cls-44{stroke:#ffce01;stroke-linejoin:round;stroke-width:2.23px;}.cls-45{fill:#f27243;}.cls-46{font-size:32.7px;}.cls-46,.cls-53{font-family:Acre-Medium, Acre;font-weight:500;}.cls-47{letter-spacing:-0.02em;}.cls-48{letter-spacing:-0.03em;}.cls-49,.cls-52{stroke:#f27243;}.cls-49{stroke-width:3.74px;}.cls-50{stroke-width:0.87px;}.cls-51{font-size:42.04px;font-family:Acre-Semibold, Acre;font-weight:600;}.cls-52{stroke-width:4.67px;}.cls-53{font-size:32.7px;}.cls-54{letter-spacing:-0.01em;}.cls-55{letter-spacing:-0.02em;}.cls-56{letter-spacing:-0.02em;}.cls-57{letter-spacing:-0.03em;}</style></defs><g id="Layer_2" data-name="Layer 2"><g id="Layer_11" data-name="Layer 11"><text class="cls-1" transform="translate(88.66 34)">this p<tspan class="cls-2" x="98.72" y="0">r</tspan><tspan class="cls-3" x="110.08" y="0">oc</tspan><tspan class="cls-4" x="155.28" y="0">e</tspan><tspan x="177.68" y="0">ss,</tspan><tspan class="cls-5" x="216.96" y="0"> </tspan><tspan class="cls-4" x="230.44" y="0">w</tspan><tspan x="262.08" y="0">hich pulls nit</tspan><tspan class="cls-2" x="492.27" y="0">r</tspan><tspan class="cls-3" x="503.63" y="0">ogen out </tspan><tspan class="cls-6" x="683.35" y="0">o</tspan><tspan x="706.91" y="0">f thin air a</tspan><tspan class="cls-7" x="897.71" y="0">n</tspan><tspan x="919.91" y="0">d in</tspan><tspan class="cls-2" x="991.23" y="0">t</tspan><tspan x="1001.51" y="0">o t</tspan><tspan class="cls-7" x="1050.46" y="0">h</tspan><tspan x="1072.7" y="0">e </tspan><tspan class="cls-8" x="1109.1" y="0">s</tspan><tspan x="1125.3" y="0">oil</tspan><tspan class="cls-9" x="1168.46" y="0"> </tspan><tspan class="cls-10" x="1181.94" y="0">v</tspan><tspan class="cls-11" x="1201.82" y="0">ia </tspan><tspan x="-30.94" y="48">plan</tspan><tspan class="cls-12" x="50.22" y="48">t</tspan><tspan class="cls-13" x="60.42" y="48">-</tspan><tspan class="cls-14" x="75.7" y="48">mic</tspan><tspan class="cls-2" x="141.82" y="48">r</tspan><tspan x="153.18" y="48">obe symbi</tspan><tspan class="cls-4" x="344.1" y="48">o</tspan><tspan x="367.98" y="48">sis accoun</tspan><tspan class="cls-15" x="561.05" y="48">t</tspan><tspan class="cls-3" x="571.73" y="48">s </tspan><tspan class="cls-16" x="601.85" y="48">f</tspan><tspan x="612.13" y="48">or</tspan><tspan class="cls-17" x="648.37" y="48"> </tspan><tspan class="cls-18" x="661.25" y="48">6</tspan><tspan class="cls-17" x="683.57" y="48">5%</tspan><tspan x="733.69" y="48"> </tspan><tspan class="cls-6" x="747.49" y="48">o</tspan><tspan x="771.05" y="48">f t</tspan><tspan class="cls-7" x="807.01" y="48">h</tspan><tspan x="829.25" y="48">e nit</tspan><tspan class="cls-2" x="909.57" y="48">r</tspan><tspan x="920.93" y="48">ogen u</tspan><tspan class="cls-8" x="1051.69" y="48">s</tspan><tspan x="1067.89" y="48">ed </tspan><tspan class="cls-2" x="1128.97" y="48">t</tspan><tspan x="1139.25" y="48">o g</tspan><tspan class="cls-2" x="1201.81" y="48">r</tspan><tspan class="cls-7" x="1213.16" y="48">o</tspan><tspan class="cls-19" x="1236.65" y="48">w</tspan><tspan x="1267.48" y="48"> </tspan><tspan class="cls-16" x="471.95" y="96">f</tspan><tspan class="cls-14" x="482.23" y="96">ood</tspan><tspan class="cls-5" x="555.07" y="96"> </tspan><tspan class="cls-20" x="568.55" y="96">w</tspan><tspan x="599.79" y="96">orl</tspan><tspan class="cls-10" x="645.07" y="96">dw</tspan><tspan x="701.19" y="96">id</tspan><tspan class="cls-21" x="735.91" y="96">e</tspan><tspan x="758.31" y="96">. </tspan></text></g><g id="Nitrogen_Fixation_3" data-name="Nitrogen Fixation_3"><g id="Layer_50" data-name="Layer 50"><path class="cls-22" d="M1436,964c-56.29,12.21-95.28-37.53-95.28-37.53-118.85,66-209.61,0-209.61,0-90.75,74-194.47,17.76-194.47,17.76-92.92,39.76-181.51,0-181.51,0-108,47.76-157.74-17.76-157.74-17.76-73.47,64-142.62,17.34-142.62,17.34-151.26,49.33-229-17.34-229-17.34-146.94,78-225.72,0-225.72,0v306H1436Z"/><text class="cls-23" transform="translate(118.21 1059.24)">c<tspan class="cls-24" x="22.18" y="0">r</tspan><tspan x="34.1" y="0">eati</tspan><tspan class="cls-25" x="105.92" y="0">n</tspan><tspan x="129.23" y="0">g </tspan><tspan class="cls-26" x="169.63" y="0">m</tspan><tspan x="205.71" y="0">o</tspan><tspan class="cls-27" x="231" y="0">r</tspan><tspan x="242.92" y="0">e “tight</tspan><tspan class="cls-28" x="376.82" y="0">l</tspan><tspan class="cls-29" x="386.1" y="0">y</tspan><tspan x="405.8" y="0" xml:space="preserve"> coupled</tspan><tspan class="cls-30" x="576.69" y="0">”</tspan><tspan class="cls-31" x="584.46" y="0" xml:space="preserve"> nutrient c</tspan><tspan class="cls-32" x="777.74" y="0">y</tspan><tspan x="797.86" y="0">cl</tspan><tspan class="cls-28" x="829.53" y="0">e</tspan><tspan x="853.05" y="0">s can lead </tspan><tspan class="cls-27" x="1070.73" y="0">t</tspan><tspan x="1081.52" y="0">o l</tspan><tspan class="cls-28" x="1130.78" y="0">e</tspan><tspan x="1154.31" y="0">ss </tspan><tspan x="68.44" y="50.4">nit</tspan><tspan class="cls-24" x="114.55" y="50.4">r</tspan><tspan x="126.48" y="50.4">ogen l</tspan><tspan class="cls-28" x="249.33" y="50.4">o</tspan><tspan x="274.4" y="50.4">ss, </tspan><tspan class="cls-33" x="330.13" y="50.4">s</tspan><tspan x="347.14" y="50.4">a</tspan><tspan class="cls-34" x="373.06" y="50.4">v</tspan><tspan class="cls-35" x="393.93" y="50.4">i</tspan><tspan class="cls-32" x="404.47" y="50.4">n</tspan><tspan x="427.78" y="50.4">g </tspan><tspan class="cls-36" x="468.19" y="50.4">f</tspan><tspan x="478.98" y="50.4">ar</tspan><tspan class="cls-26" x="517.66" y="50.4">m</tspan><tspan x="553.74" y="50.4">e</tspan><tspan class="cls-37" x="577.47" y="50.4">r</tspan><tspan x="589.82" y="50.4">s </tspan><tspan class="cls-26" x="621.44" y="50.4">m</tspan><tspan x="657.52" y="50.4">o</tspan><tspan class="cls-26" x="682.8" y="50.4">ne</tspan><tspan class="cls-38" x="729.21" y="50.4">y</tspan><tspan x="748.91" y="50.4" xml:space="preserve"> a</tspan><tspan class="cls-32" x="789.31" y="50.4">n</tspan><tspan x="812.62" y="50.4">d p</tspan><tspan class="cls-36" x="878.89" y="50.4">r</tspan><tspan class="cls-39" x="890.82" y="50.4">o</tspan><tspan class="cls-36" x="915.56" y="50.4">t</tspan><tspan x="926.35" y="50.4">ecti</tspan><tspan class="cls-26" x="994.44" y="50.4">n</tspan><tspan x="1017.75" y="50.4">g our </tspan><tspan x="468.75" y="100.8">g</tspan><tspan class="cls-27" x="494.67" y="100.8">r</tspan><tspan x="506.59" y="100.8">ou</tspan><tspan class="cls-26" x="555.82" y="100.8">n</tspan><tspan class="cls-28" x="579.13" y="100.8">d</tspan><tspan class="cls-26" x="604.83" y="100.8">w</tspan><tspan x="637.63" y="100.8">a</tspan><tspan class="cls-27" x="663.55" y="100.8">t</tspan><tspan x="674.34" y="100.8">er!</tspan></text></g><g id="Layer_51" data-name="Layer 51"><path class="cls-40" d="M870.72,485.57a36.58,36.58,0,0,0,11.44,10,45.32,45.32,0,0,0,14.61,4.89A132.23,132.23,0,0,0,912.53,502l8,.38c1.33.05,2.68.18,4,.28s2.7.18,4,.33a81.4,81.4,0,0,1,15.92,3.41A53.51,53.51,0,0,1,959,514a73.25,73.25,0,0,1,11.78,11.15c3.53,4.07,6.79,8.33,10,12.57l2.44,3.17,1.22,1.59,1.28,1.5a61.16,61.16,0,0,0,5.49,5.67,108.91,108.91,0,0,0,12.71,9.54,195.54,195.54,0,0,0,28.37,14.64c4.9,2.11,9.89,4,14.91,5.8s10.12,3.41,15.26,4.85l7.72,2.15a38.85,38.85,0,0,1,7.51,2.82,16.66,16.66,0,0,1,3.31,2.28c.49.46,1,.93,1.41,1.43s.88,1,1.24,1.59a41.17,41.17,0,0,1,3.79,7,41,41,0,0,0-3.88-7c-.37-.56-.84-1-1.25-1.55s-.93-1-1.42-1.41a17.14,17.14,0,0,0-3.3-2.21,39.42,39.42,0,0,0-7.5-2.69l-7.75-2c-5.17-1.38-10.28-3-15.36-4.65s-10.09-3.56-15-5.61a194.94,194.94,0,0,1-28.74-14.33,110.83,110.83,0,0,1-13-9.51,62.09,62.09,0,0,1-5.72-5.75l-1.34-1.53-1.25-1.57-2.49-3.15c-3.31-4.19-6.61-8.38-10.14-12.33a70.88,70.88,0,0,0-11.58-10.68,50.88,50.88,0,0,0-13.93-7,78,78,0,0,0-15.42-3.07c-1.31-.13-2.63-.18-3.94-.28s-2.63-.18-4-.21l-8-.27a137.93,137.93,0,0,1-16.15-1.35,48.71,48.71,0,0,1-15.7-5,40.13,40.13,0,0,1-12.65-10.77Z"/><path class="cls-40" d="M868.86,491.73a37.49,37.49,0,0,0-2.75,3.95c-.43.71-.86,1.42-1.24,2.16s-.8,1.45-1.15,2.21a58.78,58.78,0,0,0-3.65,9.31,66.8,66.8,0,0,0-2.76,19.84c0,6.76,1.33,13.31,2.47,20.28a165,165,0,0,1,1.86,20.83,128.53,128.53,0,0,1-1.1,20.92c-.24,1.72-.56,3.5-.95,5.18a38.11,38.11,0,0,0-.64,4.94,30.66,30.66,0,0,0,0,5,19.4,19.4,0,0,0,.94,4.77,10.63,10.63,0,0,0,2.28,4c.13.14.24.29.38.43l.46.4c.31.27.6.54.92.8.68.5,1.32,1,2,1.51,2.78,1.94,5.72,3.71,8.7,5.42,6,3.39,12.1,6.58,18.28,9.6l.06,0h0a49.5,49.5,0,0,1,5.8,4.46c.93.78,1.81,1.62,2.68,2.46s1.71,1.7,2.55,2.58l1.24,1.31,1.18,1.38c.77.93,1.6,1.81,2.31,2.79L911,651.2c.69,1,1.34,2,2,3a83.92,83.92,0,0,1,11.38,26.42c2.37,9.35,2.63,19,4.68,28.33a76.14,76.14,0,0,0,4,13.75A29.32,29.32,0,0,0,936.4,729a12.49,12.49,0,0,0,2.44,2.59,5.13,5.13,0,0,0,3.25,1.31,5.23,5.23,0,0,1-3.29-1.26,13,13,0,0,1-2.49-2.58,29.34,29.34,0,0,1-3.5-6.26,75.92,75.92,0,0,1-4.19-13.74c-2.21-9.35-2.63-19-5.12-28.21A82.89,82.89,0,0,0,911.87,655c-.68-1-1.34-2-2-2.92l-2.2-2.8c-.7-1-1.53-1.81-2.3-2.71l-1.18-1.33-1.24-1.27c-.83-.85-1.65-1.7-2.54-2.49s-1.73-1.61-2.65-2.35a48.69,48.69,0,0,0-5.63-4.2l.08.05c-6.27-3-12.46-6-18.55-9.38-3-1.68-6-3.42-9-5.39a26,26,0,0,1-4.21-3.41,12.93,12.93,0,0,1-2.87-4.85,21.34,21.34,0,0,1-1.15-5.34,34.46,34.46,0,0,1-.12-5.37,40.62,40.62,0,0,1,.61-5.34c.36-1.69.63-3.32.84-5a125.43,125.43,0,0,0,.74-20.43A160.55,160.55,0,0,0,856.36,550c-.57-3.38-1.28-6.66-1.83-10.2l-.44-2.61c-.1-.88-.16-1.76-.25-2.64a49.59,49.59,0,0,1-.32-5.3,70.53,70.53,0,0,1,2.6-21.07,64.13,64.13,0,0,1,3.74-10c.36-.82.79-1.61,1.2-2.41s.86-1.57,1.32-2.35a38.78,38.78,0,0,1,3.09-4.58Z"/><path class="cls-40" d="M911.24,702a41.93,41.93,0,0,0-5.49-12.5,74.1,74.1,0,0,0-8.31-10.85,101.37,101.37,0,0,0-9.84-9.49,90.81,90.81,0,0,1-9.92-9.6,97.13,97.13,0,0,1-15.57-22.84c-4-8.35-6.45-17.7-5.8-27.16l2.66.2c-.81,8.88,1.31,17.89,5,26.11a95.2,95.2,0,0,0,14.78,22.74,92.54,92.54,0,0,0,9.58,9.72A103.15,103.15,0,0,1,898,678.2a75.5,75.5,0,0,1,8.07,11.15A42.1,42.1,0,0,1,911.24,702Z"/><path class="cls-40" d="M803.26,746.63a25.47,25.47,0,0,1,5.22-6.65,54.61,54.61,0,0,1,6.63-5.3c2.33-1.6,4.75-3.08,7.23-4.45s5-2.66,7.6-3.81l-.05,0a11.83,11.83,0,0,0,2.36-3.09,33.21,33.21,0,0,0,1.77-3.59,63.07,63.07,0,0,0,2.61-7.6,140,140,0,0,0,3.31-15.76c.81-5.33,1.36-10.66,1.95-16l.45-4,.52-4c.33-2.68.72-5.36,1.11-8,1.57-10.69,3.44-21.33,5.53-31.93s4.33-21.16,6.85-31.69l2.58.66c-2.65,10.41-5.06,20.93-7.3,31.46s-4.26,21.13-6,31.76c-.42,2.66-.86,5.32-1.22,8l-.58,4-.51,4c-.66,5.34-1.33,10.73-2.23,16.06a140.89,140.89,0,0,1-3.62,15.82,63.57,63.57,0,0,1-2.78,7.65,33.63,33.63,0,0,1-1.87,3.63,12,12,0,0,1-2.61,3.25h-.05c-2.58,1.1-5.13,2.34-7.62,3.65s-4.92,2.75-7.28,4.31a54.66,54.66,0,0,0-6.69,5.16A25.25,25.25,0,0,0,803.26,746.63Z"/><path class="cls-40" d="M834.49,720.46a20.5,20.5,0,0,1,2.32,3.35,22.76,22.76,0,0,1,1.69,3.65,21.05,21.05,0,0,1,1.26,7.9,14.86,14.86,0,0,1-.18,2,12,12,0,0,1-.38,2l-.23,1-.32,1L838,743.1l-.62,1.79c-.17.62-.3,1.24-.46,1.86l-.22.93-.15,1-.31,1.9a96.19,96.19,0,0,0-.5,15.47c.22,5.17.67,10.34,1.36,15.48q-1.26-7.68-1.8-15.46a97.77,97.77,0,0,1,.05-15.59l.26-1.95.13-1,.2-1c.14-.64.26-1.29.42-1.93l.6-1.9.59-1.83.28-.9.19-.92a11.81,11.81,0,0,0,.3-1.86,13,13,0,0,0,.11-1.87,20.69,20.69,0,0,0-5.23-13.64Z"/><path class="cls-40" d="M875.52,749.28a40.61,40.61,0,0,0-2.76-7.87,50.37,50.37,0,0,0-4.11-7.26,52.94,52.94,0,0,0-11.37-12.1c-1-.91-2.26-1.62-3.39-2.43a40,40,0,0,0-3.55-2.16q-1.82-1-3.63-2.13c-.59-.39-1.12-.87-1.68-1.31a19.57,19.57,0,0,1-1.5-1.52,15.92,15.92,0,0,1-3.56-7.66,19.48,19.48,0,0,1-.35-4.24,20.43,20.43,0,0,1,.48-4.25l.86.23a20.73,20.73,0,0,0-.23,8.12,15.24,15.24,0,0,0,3.31,7.37c.48.49.9,1,1.42,1.48s1,.89,1.6,1.28l1.74,1.08,1.81,1.07a37.27,37.27,0,0,1,3.56,2.23,40.81,40.81,0,0,1,3.38,2.49A53.35,53.35,0,0,1,868.84,734a50.78,50.78,0,0,1,4,7.34A41.21,41.21,0,0,1,875.52,749.28Z"/><path class="cls-40" d="M865.47,495.33c-5.84,2.54-11.64,5.36-17.29,8.38a189.63,189.63,0,0,0-16.5,9.81,83,83,0,0,0-14.62,12.08l-1.55,1.76c-.52.57-1.08,1.26-1.61,1.88a30.57,30.57,0,0,1-3.67,3.52,19.51,19.51,0,0,1-4.43,2.72,12.75,12.75,0,0,1-2.56.82,10.19,10.19,0,0,1-1.38.2,6.66,6.66,0,0,1-1.57-.06l.31,0a15.76,15.76,0,0,0-2.37.43c-.83.24-1.66.45-2.47.77s-1.65.59-2.45,1-1.62.67-2.39,1.11L788.56,541c-.78.42-1.53.9-2.3,1.35s-1.54.89-2.27,1.39l-2.21,1.51c-1.5,1-2.91,2.07-4.33,3.16L775.32,550l-2.05,1.74c-1.35,1.18-2.76,2.28-4.06,3.52l-3.93,3.68c-1.33,1.2-2.53,2.55-3.8,3.82s-2.54,2.55-3.75,3.87l-3.61,4c-1.19,1.35-2.43,2.65-3.55,4.06-2.29,2.79-4.64,5.52-6.86,8.35l-6.6,8.57-.05.08-.06,0c-4.59,4.22-9.07,8.61-13.28,13.22a82.25,82.25,0,0,0-5.92,7.2c-.44.63-.9,1.26-1.27,1.92l-.59,1-.47,1c-.61,1.37-1.17,2.9-1.76,4.35a125.54,125.54,0,0,1-19.66,32.14,167.48,167.48,0,0,1-27.34,25.88c-5,3.79-10.19,7.36-15.53,10.65a161.2,161.2,0,0,1-16.54,9,157.78,157.78,0,0,0,16.42-9.17c5.31-3.35,10.44-7,15.39-10.81A166.7,166.7,0,0,0,693.4,652,124.54,124.54,0,0,0,712.52,620c.58-1.47,1.08-2.89,1.73-4.39l.51-1.13.6-1c.39-.71.86-1.36,1.31-2a80.47,80.47,0,0,1,5.94-7.4c4.2-4.71,8.65-9.16,13.24-13.49l-.11.13,6.53-8.69c2.2-2.88,4.54-5.65,6.81-8.48,1.11-1.43,2.35-2.76,3.54-4.13l3.59-4.1c1.21-1.35,2.49-2.64,3.74-4s2.46-2.67,3.8-3.9l3.94-3.77c1.3-1.28,2.73-2.42,4.09-3.63l2.06-1.79,2.16-1.69c1.43-1.12,2.86-2.27,4.38-3.28l2.26-1.57c.75-.53,1.55-1,2.33-1.47s1.55-1,2.36-1.42l2.44-1.3c.8-.45,1.68-.79,2.52-1.18a23.22,23.22,0,0,1,2.58-1,25.55,25.55,0,0,1,2.69-.87,16.42,16.42,0,0,1,3-.55h.09l.21,0a4.71,4.71,0,0,0,.85,0,9.19,9.19,0,0,0,1-.16,10.76,10.76,0,0,0,2-.68,16.53,16.53,0,0,0,3.77-2.39,27.58,27.58,0,0,0,3.28-3.21c.5-.61,1-1.18,1.51-1.82l1.63-1.89a85.53,85.53,0,0,1,15-12.71,192.29,192.29,0,0,1,16.67-10.18c5.71-3.13,11.5-6,17.47-8.71Z"/><path class="cls-40" d="M860,564.6c-11.08,3.45-21.57,10.92-27,21.46a38.14,38.14,0,0,0-3.13,8.28c-.39,1.43-.62,2.88-.88,4.37s-.5,3-.81,4.52a45.19,45.19,0,0,1-2.68,8.84,20.68,20.68,0,0,1-2.35,4.07,12.23,12.23,0,0,1-3.55,3.2,12.65,12.65,0,0,1-4.51,1.54,24.21,24.21,0,0,1-4.65.16c-3.07-.16-6.07-.6-9.07-.88A23.85,23.85,0,0,0,797,620a13.53,13.53,0,0,0-4.24,1.09,24.86,24.86,0,0,0-7.18,5.26c-2.16,2.11-4.18,4.37-6.29,6.55a81.39,81.39,0,0,1-6.6,6.27,51.6,51.6,0,0,1-15.66,9.1,51.05,51.05,0,0,0,15.44-9.36,82.35,82.35,0,0,0,6.46-6.35c2.06-2.22,4-4.51,6.18-6.68a25.54,25.54,0,0,1,7.3-5.55,14.35,14.35,0,0,1,4.5-1.24,16.64,16.64,0,0,1,2.34-.07l2.28.14c3,.23,6,.62,9,.71s6-.17,8.43-1.68,4.06-4,5.21-6.72a44.26,44.26,0,0,0,2.42-8.57c.27-1.47.5-2.95.7-4.44s.46-3.06.83-4.56a40.69,40.69,0,0,1,3.13-8.74A42.65,42.65,0,0,1,843,570.84a51.75,51.75,0,0,1,7.75-5.13,47.51,47.51,0,0,1,8.61-3.69Z"/><path class="cls-40" d="M861.1,572.07A112.1,112.1,0,0,1,882.82,610a94.59,94.59,0,0,1,2.79,10.61,84.67,84.67,0,0,1,1.4,10.89,77.1,77.1,0,0,1-.15,11c-.37,3.68-.82,7.18-.93,10.79a103.45,103.45,0,0,0,1.88,21.48,155,155,0,0,0,5.52,20.93,220.16,220.16,0,0,0,17.91,39.48,219.16,219.16,0,0,1-18.54-39.26,156.62,156.62,0,0,1-5.87-21,103.93,103.93,0,0,1-2.23-21.7c0-3.64.46-7.34.77-10.87a74,74,0,0,0,0-10.74A82.72,82.72,0,0,0,883.81,621a95,95,0,0,0-2.88-10.35,104.93,104.93,0,0,0-9.1-19.44,106,106,0,0,0-12.66-17.25Z"/><path class="cls-40" d="M856.44,537.89a141.55,141.55,0,0,1,16.25,4.56,162.14,162.14,0,0,1,15.64,6.23,127.28,127.28,0,0,1,28.54,17.76,87.91,87.91,0,0,1,11.88,12c1.83,2.14,3.41,4.48,5,6.79l2.21,3.6c.74,1.2,1.32,2.49,2,3.73,5.15,10.05,7.49,21.39,7.82,32.54l.59,8.31c.06,1.39.25,2.77.43,4.14l.54,4.14c.59,5.53,1.73,11,2.71,16.45.51,2.73,1.22,5.42,1.83,8.13l.94,4.07c.32,1.35.73,2.68,1.09,4l2.24,8,2.53,8a327.83,327.83,0,0,0,27.14,60.93,327.79,327.79,0,0,1-27.77-60.72l-2.62-7.95-2.33-8c-.37-1.34-.8-2.67-1.13-4l-1-4.07c-.64-2.72-1.38-5.41-1.92-8.15-1-5.48-2.24-10.94-2.89-16.5l-.58-4.15c-.2-1.38-.4-2.76-.48-4.16l-.67-8.35-.71-8.29c-.17-1.37-.45-2.72-.67-4.08l-.34-2-.51-2a66.81,66.81,0,0,0-5.75-15.45c-.66-1.21-1.23-2.46-2-3.63l-2.19-3.5a79.42,79.42,0,0,0-5-6.58A85.88,85.88,0,0,0,915.59,568a124.41,124.41,0,0,0-28.23-17.17,160.84,160.84,0,0,0-15.46-6A141.43,141.43,0,0,0,856,540.51Z"/><path class="cls-40" d="M866,488a183.9,183.9,0,0,1,22.75,6.47,112.2,112.2,0,0,1,11,4.57,52.08,52.08,0,0,1,10.24,6.36,22.86,22.86,0,0,1,4.28,4.54c.3.42.59.94.84,1.34l.72,1.21c.5.8,1,1.58,1.58,2.36a70.63,70.63,0,0,0,7.5,8.67,128.39,128.39,0,0,0,17.89,14.66l.12.07,0,.05a58.84,58.84,0,0,1,7.37,9.07,54.79,54.79,0,0,1,5.4,10.32,41,41,0,0,1,2.71,11.37l.11,1.43a11,11,0,0,0,.17,1.3,8.48,8.48,0,0,0,.87,2.41,12.09,12.09,0,0,0,3.65,3.8c1.5,1.09,3.15,2.11,4.68,3.38a15.58,15.58,0,0,1,3.88,4.57,16.17,16.17,0,0,1,1.81,5.7,28.75,28.75,0,0,1,.14,5.86,61.69,61.69,0,0,1-2.11,11.36c-1,3.69-1.93,7.37-2.75,11.08a60.09,60.09,0,0,0-1.59,11.2,42.56,42.56,0,0,0,.22,5.64,43.74,43.74,0,0,0,1,5.55c1.84,7.35,5.17,14.27,8.58,21s7.2,13.44,11,20.05,7.65,13.19,11.53,19.76c-4-6.52-7.91-13-11.79-19.61s-7.7-13.17-11.26-19.92-6.95-13.65-8.93-21.1a47.39,47.39,0,0,1-1.13-5.67,42.8,42.8,0,0,1-.3-5.78,61.76,61.76,0,0,1,1.46-11.43c.79-3.74,1.72-7.45,2.62-11.15a60.92,60.92,0,0,0,1.92-11.12c.21-3.71-.11-7.54-1.89-10.67a14,14,0,0,0-3.54-4c-1.42-1.16-3-2.13-4.63-3.26a13.85,13.85,0,0,1-4.24-4.34,10.26,10.26,0,0,1-1.1-2.94,11.54,11.54,0,0,1-.23-1.53l-.12-1.42a39.28,39.28,0,0,0-2.72-10.77,53.06,53.06,0,0,0-5.32-9.83,56.87,56.87,0,0,0-7.14-8.57l.16.13A131,131,0,0,1,923,525.47a73.25,73.25,0,0,1-7.92-8.92q-.88-1.21-1.71-2.49l-.8-1.29c-.26-.43-.45-.76-.72-1.13a20.18,20.18,0,0,0-3.78-3.9,49,49,0,0,0-9.7-5.84,103.74,103.74,0,0,0-10.69-4.31,179,179,0,0,0-22.34-6.07Z"/><path class="cls-40" d="M963.22,578.6a48.39,48.39,0,0,0-2.06,10.89,26.35,26.35,0,0,0,.15,5.48,26.68,26.68,0,0,0,1.5,5.32c1.22,3.65,2.2,7.34,3.14,11.05s1.78,7.41,2.58,11.15v.17a13.55,13.55,0,0,0,.89,6,18.06,18.06,0,0,0,3.15,5.3l1,1.16c.37.37.77.71,1.15,1.06a27.2,27.2,0,0,0,2.45,2c.86.6,1.77,1.12,2.65,1.68l2.81,1.43-2.86-1.33c-.91-.53-1.85-1-2.73-1.58a27.92,27.92,0,0,1-2.55-1.88c-.4-.34-.82-.68-1.21-1l-1.1-1.15a18.63,18.63,0,0,1-3.46-5.35,14.2,14.2,0,0,1-1.17-6.35v.17c-.93-3.68-1.93-7.36-3-11s-2.18-7.28-3.5-10.81a27.72,27.72,0,0,1-1.79-5.59,28.72,28.72,0,0,1-.4-5.91,50.7,50.7,0,0,1,1.75-11.58Z"/><path class="cls-40" d="M865.22,492a116.73,116.73,0,0,0-21.58,8.38,67.82,67.82,0,0,0-9.78,6,34.89,34.89,0,0,0-7.91,7.95l-1.54,2.44c-.55.84-1,1.74-1.66,2.54L821,521.8l-1.91,2.32a100.81,100.81,0,0,1-8.31,8.6A152.77,152.77,0,0,1,792,547.4l.18-.14a66.58,66.58,0,0,0-10.05,12.84,54.23,54.23,0,0,0-6.29,15l-.4,2a17.21,17.21,0,0,0-.34,2c-.14,1.36-.3,2.64-.43,4.1a56.85,56.85,0,0,1-1.4,8.4,63.92,63.92,0,0,1-29.9,39.52,73.25,73.25,0,0,0-13.35,9.7,48.63,48.63,0,0,0-9.86,13.09,74.78,74.78,0,0,0-5.71,15.52c-1.41,5.37-2.52,10.83-3.74,16.27a170,170,0,0,1-9.91,31.94A147.67,147.67,0,0,1,684,746.5a211.21,211.21,0,0,1-22.19,25A210.6,210.6,0,0,0,683.7,746.3a146.78,146.78,0,0,0,16.53-28.9,169.16,169.16,0,0,0,9.54-31.89c1.17-5.45,2.22-10.92,3.59-16.35A76.26,76.26,0,0,1,719,653.33a50.3,50.3,0,0,1,10-13.56,74.2,74.2,0,0,1,13.52-10,62.51,62.51,0,0,0,22.7-23.36,61.36,61.36,0,0,0,6-15.26,54.1,54.1,0,0,0,1.27-8.08c.1-1.32.27-2.8.4-4.21a16.71,16.71,0,0,1,.34-2.12l.4-2.1A56.25,56.25,0,0,1,780,558.84a68.19,68.19,0,0,1,10.38-13.5l.06-.06.12-.08a151.67,151.67,0,0,0,18.2-14.57,95.89,95.89,0,0,0,8-8.42l1.81-2.25,1.68-2.33c.57-.77,1-1.61,1.53-2.41l1.59-2.56a37.91,37.91,0,0,1,8.53-8.79,72.38,72.38,0,0,1,10.19-6.43,109.93,109.93,0,0,1,10.88-5,119,119,0,0,1,11.33-3.89Z"/><path class="cls-40" d="M850.2,637.44a31,31,0,0,0-5.17,2.18,43.84,43.84,0,0,0-4.9,3,48.09,48.09,0,0,0-8.51,7.75,43.94,43.94,0,0,1-9.06,7.94,39.91,39.91,0,0,1-5.28,2.91,30,30,0,0,1-5.74,2l.24-.09a119.3,119.3,0,0,0-13.7,9.53,61.15,61.15,0,0,0-11.64,11.87,26,26,0,0,0-2.1,3.56c-.59,1.23-1,2.6-1.74,3.84a18.92,18.92,0,0,1-5.68,6.25,26.4,26.4,0,0,1-7.6,3.61,34.3,34.3,0,0,1-8.28,1.43,34.3,34.3,0,0,0,8.22-1.61,26.21,26.21,0,0,0,7.43-3.74,18.48,18.48,0,0,0,5.39-6.21c.65-1.22,1-2.54,1.64-3.85a26.57,26.57,0,0,1,2.08-3.72,62.46,62.46,0,0,1,11.53-12.33,121.7,121.7,0,0,1,13.66-10l.08-.06.15,0a29.41,29.41,0,0,0,5.34-2,38.69,38.69,0,0,0,5-2.9A42,42,0,0,0,830,649a50.17,50.17,0,0,1,8.71-8.33,46.22,46.22,0,0,1,5.11-3.28,33.19,33.19,0,0,1,5.64-2.52Z"/><path class="cls-40" d="M851.18,636.15a46.59,46.59,0,0,0,1.92,12.76,38,38,0,0,0,5.58,11.71,31.25,31.25,0,0,0,4.33,4.87,30.92,30.92,0,0,0,5.3,3.85,36.47,36.47,0,0,0,12.49,4.2A37,37,0,0,1,868,669.93a31,31,0,0,1-10.37-8.51,39.78,39.78,0,0,1-6.43-11.9,48.71,48.71,0,0,1-2.68-13.37Z"/><path class="cls-40" d="M855.3,533.11a49.16,49.16,0,0,0-9.4,1.32,28.85,28.85,0,0,0-4.47,1.46c-.74.28-1.39.68-2.08,1a13.56,13.56,0,0,0-1.81,1.32,8.74,8.74,0,0,0-1.48,1.62c-.44.66-.87,1.33-1.27,2-.82,1.38-1.57,2.84-2.55,4.25a10.41,10.41,0,0,1-3.87,3.49,15.92,15.92,0,0,1-4.85,1.53l-1.24.2-1.24.12c-.82.1-1.65.13-2.47.17a32.68,32.68,0,0,0-4.79.43,14.62,14.62,0,0,0-8.27,4.37c-2.21,2.34-3.61,5.32-5,8.24a16.41,16.41,0,0,1-2.64,4.13,5.38,5.38,0,0,1-2,1.36,6.26,6.26,0,0,1-2.43.27,6.28,6.28,0,0,0,2.4-.35,5.25,5.25,0,0,0,1.94-1.39,15.89,15.89,0,0,0,2.47-4.16c1.34-2.95,2.64-6,4.85-8.54a15.49,15.49,0,0,1,8.57-4.91,33.43,33.43,0,0,1,4.92-.62c.8-.06,1.61-.12,2.4-.24l1.19-.16,1.17-.23a14.94,14.94,0,0,0,4.39-1.53,9,9,0,0,0,3.21-3.11c.84-1.3,1.53-2.77,2.33-4.23.39-.73.82-1.45,1.26-2.16a11.38,11.38,0,0,1,1.74-2,15.3,15.3,0,0,1,2.08-1.62,22.47,22.47,0,0,1,2.27-1.21,30.94,30.94,0,0,1,4.76-1.75,52.9,52.9,0,0,1,9.89-1.73Z"/><path class="cls-40" d="M860.55,590.64c-.63,3.64-.09,8,2.49,10.57a10,10,0,0,0,4.87,2.63,16.22,16.22,0,0,0,2.9.43c1,.07,2,.05,3.06.07a34.43,34.43,0,0,1,12.42,2.71,37,37,0,0,1,10.7,6.74l-.08-.06c2.06,1.34,4.21,2.6,6.38,3.79s4.4,2.29,6.67,3.29a59.59,59.59,0,0,0,7,2.61,32.82,32.82,0,0,0,7.3,1.39,33.06,33.06,0,0,1-7.38-1.14,59.71,59.71,0,0,1-7.1-2.37c-2.32-.92-4.59-2-6.83-3.07s-4.43-2.31-6.58-3.61h0l-.06-.05a35.86,35.86,0,0,0-10.52-6.11,32.79,32.79,0,0,0-11.88-2.17c-1,0-2.07.07-3.16,0a18.15,18.15,0,0,1-3.27-.4,12.18,12.18,0,0,1-6-3.07,12,12,0,0,1-3.24-6,18.26,18.26,0,0,1-.23-6.72Z"/><path class="cls-40" d="M865.84,488.57a29,29,0,0,1-1.9,8.24,37,37,0,0,1-4,7.28,84,84,0,0,1-10.83,12c-3.82,3.7-7.79,7.2-11.21,11.09a63.88,63.88,0,0,0-4.86,6l-2.09,3.26c-.67,1.11-1.23,2.27-1.85,3.4a54.27,54.27,0,0,0-4.77,14.71A95.33,95.33,0,0,0,823,570.21c-.09,5.26,0,10.55.08,15.85s0,10.79-1.48,16a36,36,0,0,1-7.53,14.24,73.14,73.14,0,0,1-11.86,10.75c-4.23,3.21-8.56,6.25-12.67,9.55a85.75,85.75,0,0,0-11.47,10.82,61.77,61.77,0,0,0-8.52,13.23c-2.37,4.72-4.45,9.59-6.72,14.38A86.38,86.38,0,0,1,755,688.87a37.21,37.21,0,0,1-11.54,10.77,37.16,37.16,0,0,0,11.36-10.9,87.7,87.7,0,0,0,7.6-13.88c2.2-4.82,4.21-9.72,6.52-14.49a62.37,62.37,0,0,1,8.44-13.52,86.41,86.41,0,0,1,11.45-11.1c4.1-3.39,8.39-6.5,12.55-9.75a70.67,70.67,0,0,0,11.48-10.69,34.28,34.28,0,0,0,7-13.69A39.61,39.61,0,0,0,821,594c.11-1.29.07-2.59.1-3.9l-.07-4c-.12-5.28-.32-10.57-.31-15.9a99.13,99.13,0,0,1,1.15-16,56.71,56.71,0,0,1,4.79-15.46c.63-1.2,1.2-2.43,1.88-3.6l2.15-3.46a72,72,0,0,1,5-6.39c3.53-4.11,7.48-7.69,11.21-11.4a80.4,80.4,0,0,0,10.25-11.68,33.39,33.39,0,0,0,3.55-6.63,26.06,26.06,0,0,0,1.56-7.2Z"/><path class="cls-40" d="M869,486.29a21.11,21.11,0,0,1,2.54,5.69c.58,1.88,1,3.73,1.42,5.56a84.2,84.2,0,0,0,2.84,10.51,23.22,23.22,0,0,0,5.28,8.72,48.56,48.56,0,0,0,8.62,6.33,85.42,85.42,0,0,1,9.46,6.39,28.92,28.92,0,0,1,7.42,9.2,36.08,36.08,0,0,1,3.4,11.17,85.61,85.61,0,0,1,.73,11.36l0,2.8c0,1,0,1.92-.07,2.87-.08,1.9-.23,3.78-.42,5.65-.37,3.73-.83,7.4-1,11.05a51.81,51.81,0,0,0,0,5.43,27.53,27.53,0,0,0,.69,5.26,26.58,26.58,0,0,0,4.65,9.49c2.13,2.93,4.64,5.69,7,8.68a37.65,37.65,0,0,1,5.81,9.92,32.2,32.2,0,0,1,1.7,11.39A94.47,94.47,0,0,1,927.93,645c-1,7.35-1.81,14.83-4.06,22.09a42.88,42.88,0,0,1-5,10.17c-2,3.16-4.18,6.18-6.05,9.35a46,46,0,0,0-2.53,4.88,34,34,0,0,0-1.75,5.19,57.26,57.26,0,0,0-1.83,10.88,53.6,53.6,0,0,0,3.25,21.73,129.1,129.1,0,0,0,9.67,20c3.66,6.48,7.47,12.88,10.84,19.53a107.19,107.19,0,0,1,4,10.44c1.18,3.53,2.26,7.1,3.2,10.7A109.9,109.9,0,0,1,940,800.9a41.48,41.48,0,0,1,.5,11.12,41.38,41.38,0,0,0-.55-11.11c-.6-3.68-1.43-7.31-2.39-10.9s-2.06-7.15-3.25-10.68a108.79,108.79,0,0,0-4-10.39c-3.45-6.59-7.34-12.94-11.09-19.37a128.86,128.86,0,0,1-10-20,54.47,54.47,0,0,1-3.59-22.08,57.51,57.51,0,0,1,1.71-11.13A36.12,36.12,0,0,1,909,691a49.81,49.81,0,0,1,2.54-5.06c3.73-6.51,8.58-12.34,10.67-19.33s2.78-14.45,3.7-21.83a91.48,91.48,0,0,0,.91-11,30,30,0,0,0-1.7-10.56,35.66,35.66,0,0,0-5.58-9.2c-2.27-2.86-4.82-5.59-7.11-8.65A29.2,29.2,0,0,1,907.2,595a30.45,30.45,0,0,1-.85-5.78q-.17-2.88,0-5.73c.16-3.79.58-7.51.9-11.19.16-1.84.28-3.67.33-5.49,0-.91,0-1.81,0-2.71l-.06-2.78a82.93,82.93,0,0,0-.84-10.9,32.84,32.84,0,0,0-3.19-10.07,25.27,25.27,0,0,0-6.62-8,83.91,83.91,0,0,0-9.12-6,51.86,51.86,0,0,1-9.41-6.76A27,27,0,0,1,872,509.51a86.7,86.7,0,0,1-3.14-11c-.44-1.79-.88-3.57-1.41-5.24a17.28,17.28,0,0,0-2-4.46Z"/><path class="cls-41" d="M935,322.39c-11.36-8-18.13-3.25-20.71-.51l-.43.48a8.43,8.43,0,0,0-.79,1s-26.46,3.78-2.95,22.17a44.13,44.13,0,0,0,33.12,8.65S944.89,329.37,935,322.39Z"/><path class="cls-41" d="M918.05,314c3.43,19.76,32.7,8,32.7,8,21-10.63,25.17-42.64,25.17-42.64-21.43-8.76-48.87.63-48.87.63-1.27.59-2.45,1.19-3.55,1.8-6.91-17.05-19.88-30.33-19.88-30.33s-31,25.46-24,42.54,25.92,17.26,25.92,17.26h0c.8.29,3.14,2.12.91,5.69l2.19-1.08c-.37-1.14.8-3.07-1-5.27a42.64,42.64,0,0,0,5.93-2.55,28.11,28.11,0,0,0,3.63,4.44"/><path class="cls-41" d="M904.64,320.05s6.66.68,9.06,6.11c0,0-.68-5.72-9.06-7.77C901.94,317.73,904.64,320.05,904.64,320.05Z"/><path class="cls-41" d="M907.73,386a65.24,65.24,0,0,0-1.87,11.26,37.24,37.24,0,0,0-8.66-8.2h0c-2.91,2.34-9.62,9.56-5,20.1,5.93,13.62-3.06,24,19.54,34.92,0,0,8.34-7.73.2-22.92a24.87,24.87,0,0,1-3.31-11.86c2.27,3.28,5.41,5.52,7.41,10.53,10.35,25.84,24.56,24.68,24.56,24.68-5.3-43.1-28.79-56.74-32.41-58.61"/><path class="cls-41" d="M913.37,380.19h0c-.57,2.76-2.92,18.08,15,19.93,0,0,0,14.48,12.33,19.17,0,0,2,19,27.49,15.54,0,0-2.36-13.13-12-20.78-8.12-6.41-1.17-9.63-14.81-16.58-9.61-4.9-1.9-16.06-26.3-17.62A8.88,8.88,0,0,0,913.37,380.19Z"/><path class="cls-41" d="M897.69,382.28c-10.52,8.71-22,23.24-25.88,41.63l.8,5.9c3.84-21.85,16.08-38,26.28-45.95,5.17-4,10-5.95,14.35-2.77,1.64,1.2,1.81-.23,1.76-.25C912,378.43,906.69,374.84,897.69,382.28Z"/><path class="cls-41" d="M872,424.54c-.78-24.18-2-70.67-2-70.67,23.07-34.6,52.88-42.22,52.88-42.22l-.17-.88c-28.73,5.47-54.07,38.39-54.07,38.39-1-17.33-3.14-24.81-3.14-24.81-.41-.39-.8-.79-1.19-1.18,2.26-2.25,4.31-6.9,2.2-8.25-4.57-2.92-5.09,1.9-5,5.25a67.41,67.41,0,0,1-14.09-25.83c.25-1.72,1.45-4.23,5.11-7.53,10.39,10.74,11.92-6.83,11.92-6.83l1.05-11.4s-9.73.86-14.7,4.72a17.32,17.32,0,0,0-1.14-3.77c-4.91-11.8-20.75-17.46-20.75-17.46s-3,14.15-1,24.09l-.7,0s-8.06,1.19-15.77,11.54c0,0,22.93,18.48,31.67,3.7a15.37,15.37,0,0,0,1.37-2.92,43.24,43.24,0,0,0,.86,6.62,3.67,3.67,0,0,0,.14.64h0c3.45,15.57,14.26,27.13,14.26,27.13,3.54,7.45,5.07,34.87,5.62,65.32-18.45-23.59-28.62-36.25-42.43-41.65a27.41,27.41,0,0,0-.62-3.91c6.29.3,22.87-.15,22.68-13.15-.24-16-11.76-26.43-11.76-26.43s-28.47,11.27-26.5,25c-1.35-7.15-6.44-15.27-22.59-15.37-29-.17-33.86,10.51-33.86,10.51a55.08,55.08,0,0,0,24.57,31.16,19.14,19.14,0,0,0,9.21,2.83c-5.21,10.63-.47,23.18-.47,23.18s18,12.37,33.86-5.56c14.84-16.81-2-22.24-4.15-22.85,2.18-1.32,7.3-3.41,12.13-2,17,6.76,33.58,33.42,40,41l0,2.06c-2.69-.75-7.16-1.41-10.71,1-28.1-1.7-28.92,19.15-28.92,19.15-25.76,8-22,32.89-22,32.89,27.85-6.13,29.44-25.95,29.44-25.95a57,57,0,0,0,5.19-2.83h0s4.14,9-1.86,24.57S842,464.25,842,464.25c26.21-18.09,6.55-22.48,14.7-36.79s-2.81-26.09-2.82-26.1c1-1.91,1.19-4.59,1.62-5.85,3.45-3.08,7-1.83,10,.36.58,44.7-.72,92.8-.72,92.8l7.28.24c1-38.18,1.27-35.61.59-59.1ZM844.55,283.35c0-.1-.08-.2-.13-.3l.16,0Zm.59-.51a9.47,9.47,0,0,0,3.31-1.82,14.71,14.71,0,0,0,2.51,4.06c.39.46.76.88,1.11,1.27a18,18,0,0,0-5.55,4.62A62,62,0,0,1,845.14,282.84Zm-32.45,68.44c-1.05-1.52-4.37-5.64-9.88-6.17,1-1.5,1.86-2.88,2.47-4,4.72.56,9.74,2.36,15.62,6.37C819.72,346.77,816.43,348.08,812.69,351.28Zm-7.17-10.6c.65-1.2,1-1.95,1-1.95a27.86,27.86,0,0,0,.36-9.84c2.32,12.86,13,13.54,13,13.54l.93.09a5.1,5.1,0,0,0,.57,3.11C813.32,341,808.11,340.51,805.52,340.68Z"/><path class="cls-41" d="M890,392.44c5-5.66,6.61-3.6,7.57-2.24a4.14,4.14,0,0,1,.77,2.24c-.27-8.57-6.66-2.81-6.66-2.81Z"/><path class="cls-41" d="M893.84,387.93c10.54-6.39,12.55-2.67,14.51-.92.74.66,1.15.59,1.15.59-3.18-7.92-13.81-1.7-13.81-1.7Z"/></g><g id="Layer_49" data-name="Layer 49"><path class="cls-42" d="M986.22,739.4s7,136,138.66,134.62l2.92-31.08S1038.17,865.79,986.22,739.4Z"/><polygon class="cls-42" points="1124.21 885.39 1161.54 860.13 1128.53 829.44 1124.21 885.39"/><path class="cls-43" d="M1112.12,847.91l-3.81,24.31-2.67-.42-10.4-16.42L1093,869.51l-5-.79,3.8-24.24,2.67.42,10.37,16.8,2.28-14.58Z"/><path class="cls-43" d="M1025.27,789.11l-3.8,24.31-2.68-.42-10.39-16.42-2.21,14.13-5-.79,3.79-24.24,2.68.41,10.36,16.8,2.28-14.57Z"/><path class="cls-43" d="M1052,816.37l5.06,24.08-2.65.56-15.54-11.67,2.94,14-5,1-5-24,2.65-.56,15.65,12-3-14.44Z"/><path class="cls-41" d="M1170.94,770l-12.46.83a5.09,5.09,0,0,0,5.59,3.86,9.14,9.14,0,0,0,5.27-2.12l.21,3.1a9.47,9.47,0,0,1-5.44,2,8.08,8.08,0,0,1-8.88-7.87c-.3-4.53,2.64-8.6,7.43-8.92C1167.75,760.55,1171,764.82,1170.94,770Zm-12.6-1.72,9.2-.61a4.54,4.54,0,0,0-4.74-3.71A4.74,4.74,0,0,0,1158.34,768.28Z"/><path class="cls-41" d="M1185,776l-4.74-5.65-4,6.23-3.79.25,5.82-8.58-6.84-7.73,3.66-.25L1180,766l4-6.26,3.65-.25L1182,768l6.9,7.74Z"/><path class="cls-41" d="M1189,767.56a8.17,8.17,0,0,1,7.76-9,7.72,7.72,0,0,1,5.2,1.29l.24,3.56a6.56,6.56,0,0,0-5-1.8,5.36,5.36,0,1,0,.71,10.7,6.62,6.62,0,0,0,4.69-2.44l.24,3.55a7.76,7.76,0,0,1-5,2A8.18,8.18,0,0,1,1189,767.56Z"/><path class="cls-41" d="M1221.18,766.66l-12.46.83a5.09,5.09,0,0,0,5.6,3.86,9.14,9.14,0,0,0,5.26-2.12l.21,3.1a9.45,9.45,0,0,1-5.44,2,8.08,8.08,0,0,1-8.88-7.87c-.3-4.53,2.64-8.6,7.44-8.92C1218,757.21,1221.2,761.48,1221.18,766.66Zm-12.6-1.72,9.2-.61a4.52,4.52,0,0,0-4.73-3.71A4.76,4.76,0,0,0,1208.58,764.94Z"/><path class="cls-41" d="M1223.67,771.12l1.78-2.41a5.93,5.93,0,0,0,4.07,1.62c1.37-.09,2.34-.87,2.26-2-.21-3.16-7.93-1.47-8.26-7-.17-2.48,1.75-4.67,5-4.88a7,7,0,0,1,5.37,2l-1.64,2.37a5.54,5.54,0,0,0-3.5-1.38c-1.24.09-2.08.8-2,1.78.16,2.93,7.92,1.34,8.3,7,.14,2.68-2,4.85-5.37,5.08A8.36,8.36,0,0,1,1223.67,771.12Z"/><path class="cls-41" d="M1237.7,770.18l1.78-2.41a6,6,0,0,0,4.07,1.63c1.37-.09,2.33-.87,2.26-1.95-.21-3.17-7.93-1.47-8.26-7-.17-2.48,1.75-4.67,5-4.89a7.12,7.12,0,0,1,5.37,2l-1.64,2.37a5.59,5.59,0,0,0-3.5-1.37c-1.24.08-2.08.79-2,1.77.16,2.94,7.92,1.34,8.3,7,.14,2.68-2,4.85-5.37,5.08A8.35,8.35,0,0,1,1237.7,770.18Z"/><path class="cls-41" d="M1151.09,796l.34,5.19,3.33-.23.2,2.94-3.33.22.89,13.38-3.1.21-.89-13.38-2.09.14-.19-2.94,2.08-.14-.39-5.94c-.17-2.54,1.1-4.1,3.32-4.25a6.88,6.88,0,0,1,2.89.5l.2,3.13a4.35,4.35,0,0,0-2-.42C1151.54,794.46,1151,795,1151.09,796Z"/><path class="cls-41" d="M1172.25,809.24l-12.46.83a5.09,5.09,0,0,0,5.6,3.85,9.06,9.06,0,0,0,5.27-2.12l.2,3.1a9.31,9.31,0,0,1-5.44,2,8.08,8.08,0,0,1-8.88-7.86c-.3-4.54,2.64-8.6,7.44-8.92C1169.07,799.78,1172.27,804.06,1172.25,809.24Zm-12.6-1.72,9.21-.61a4.56,4.56,0,0,0-4.74-3.72A4.77,4.77,0,0,0,1159.65,807.52Z"/><path class="cls-41" d="M1183.16,798.75l.24,3.62c-2.34-.24-4.64,1.16-4.41,4.69l0-.13.58,8.77-3.06.21-1.09-16.32,3.07-.2.18,2.81A5.5,5.5,0,0,1,1183.16,798.75Z"/><path class="cls-41" d="M1193.36,801.35l-3.36.22.89,13.38-3.07.2-.89-13.37-2.09.13-.19-2.93,2.08-.14-.29-4.37,3.07-.21.29,4.37,3.36-.22Z"/><path class="cls-41" d="M1195.72,793a2.1,2.1,0,0,1,4.18-.28,2.09,2.09,0,1,1-4.18.28Zm.9,5.15,3.07-.2,1.08,16.31-3.07.21Z"/><path class="cls-41" d="M1204.45,787.83l3.07-.21,1.73,26.11-3.06.2Z"/><path class="cls-41" d="M1212.69,791.9a2.09,2.09,0,0,1,4.17-.28,2.09,2.09,0,1,1-4.17.28Zm.9,5.15,3.06-.2,1.09,16.31-3.07.21Z"/><path class="cls-41" d="M1233.94,796.09l-7.49,13.54,8.16-.54.19,2.94-13.21.88,0-.46L1229,799l-8.45.56-.2-2.94,13.54-.9Z"/><path class="cls-41" d="M1251.31,804l-12.47.83a5.09,5.09,0,0,0,5.6,3.86,9.13,9.13,0,0,0,5.27-2.12l.2,3.1a9.44,9.44,0,0,1-5.43,2,8.08,8.08,0,0,1-8.88-7.87c-.31-4.53,2.64-8.59,7.43-8.91C1248.12,794.53,1251.32,798.81,1251.31,804Zm-12.6-1.71,9.2-.62a4.54,4.54,0,0,0-4.74-3.71A4.74,4.74,0,0,0,1238.71,802.27Z"/><path class="cls-41" d="M1262.21,793.49l.24,3.63c-2.34-.24-4.64,1.16-4.41,4.68l0-.13.58,8.78-3.06.2-1.09-16.31,3.07-.21.19,2.81A5.5,5.5,0,0,1,1262.21,793.49Z"/></g><g id="Layer_48" data-name="Layer 48"><path class="cls-42" d="M489.77,678.2s49.31,52.09,168.81,24.19l-4.38-28.5S615,703.87,489.77,678.2Z"/><polygon class="cls-42" points="659.97 718.07 689.66 679.64 645.54 659.36 659.97 718.07"/><path class="cls-43" d="M572.13,686.79l-1.07,24.58-2.71-.11L556.2,696.09l-.63,14.29-5.1-.22,1.08-24.52,2.7.12,12.18,15.54.64-14.73Z"/><path class="cls-43" d="M601.89,684l7.7,23.37-2.57.85-16.74-9.87,4.48,13.58-4.85,1.6-7.68-23.31,2.57-.84,16.89,10.22-4.61-14Z"/><path class="cls-43" d="M644.36,681.75l1.18,24.58-2.71.13-13.49-14,.69,14.28-5.1.25-1.18-24.51,2.71-.14L640,696.73,639.3,682Z"/></g><g id="Layer_47" data-name="Layer 47"><path class="cls-42" d="M270.75,586.68l24.06,26.63c4,4.44,10.33,5.29,14.1,1.88s3.57-9.78-.45-14.23L284.4,574.34c-4-4.45-10.33-5.29-14.1-1.88S266.73,582.24,270.75,586.68Z"/><path class="cls-44" d="M347.65,654.34s5.6-5.05-5.79-17.62a12.78,12.78,0,0,0-12.44-3.9s-8.87,2.47-16.38-6.33c-9.41-11-5.51-15.07-5.51-15.07"/><path class="cls-44" d="M340.71,650c-8.12-5.07-5.39-14.2-5.39-14.2s4.19-7.72-8.35-19.06c-11.65-10.53-18.51-8.52-18.51-8.52"/><path class="cls-44" d="M304.94,614.28a22.73,22.73,0,0,1,13.62,7.52s6.16,7.27,2.79,12.86,2,10.05,3.77,12.17c0,0,4.83,5.13,11.4,6.58"/><path class="cls-44" d="M304.5,608.62c-5.27,10.45-.93,16.53-.93,16.53s4.74,7.89,14.9,4.59c10.39-3.37,11.79,3.4,13.21,5.64a17.71,17.71,0,0,1-.4,13.88"/><path class="cls-45" d="M395,659.36s28.2,3.56,41.58-22S424,598.26,424,598.26s-23.17-12.88-35.67,8.76,2.68,32.41,6,34.83c0,0,16,11,29.78-7.19,0,0,11.41-17.75-5.16-28.11,0,0-14.34-8.71-21.83,5.21,0,0-3.47,5.63-.5,10.44,0,0,2.07,2.75,2.42-.92,0,0-.57-10.51,10.54-10.4,0,0,13.33.85,9.4,14.94,0,0-4,14-16.95,10,0,0-11.73-3.47-9.7-16.91,2.55-16.86,19-15.52,19-15.52s13.95-.79,18.76,16.14c0,0,4.85,17.84-14.05,28.16,0,0-8.68,5.83-16.28,7.52C399.84,655.22,391.9,657.9,395,659.36Z"/><path class="cls-22" d="M372.83,559.47s5.67-5.06,4.77-8c-1.22-4.09-7-2.93-7-2.93s-5.72,2.25-5.45-5.66c.23-6.61-4.36-5.72-4.36-5.72s-2.78-.39-3.67,3c-1.79,6.8-6.82,4.09-6.82,4.09-5-2.35-7.63.81-7.63.81-4.22,6,3.14,11.18,3.14,11.18,4.08,3.54.27,5.18.27,5.18s-3.95,1.9-1.36,7.9,7.9,0,7.9,0c6.81-5.18,12.67,1,12.67,1s6.4,7.32,9.81,4.63c4.5-3.54-1.5-10.08-1.5-10.08C369.84,561.38,372.83,559.47,372.83,559.47Zm-10.52-.11c-2.17,1.21-4.7.82-5.66-.89s0-4.07,2.19-5.29,4.69-.82,5.65.89S364.47,558.14,362.31,559.36Z"/><path class="cls-42" d="M506.06,585.4l-32.48-15.25c-5.42-2.55-11.57-.88-13.74,3.72s.49,10.39,5.92,12.94l32.48,15.25c5.43,2.55,11.58.89,13.74-3.71S511.49,588,506.06,585.4Z"/><path class="cls-44" d="M409,552.73s-3.2,6.83,12.15,14a12.8,12.8,0,0,0,13-1.21s7.22-5.71,17.55-.49c12.95,6.55,10.91,11.77,10.91,11.77"/><path class="cls-44" d="M417,554c9.46,1.54,10.47,11,10.47,11s-.88,8.74,15.07,14.35c14.81,5.21,20.36.7,20.36.7"/><path class="cls-44" d="M463.86,573.17a22.76,22.76,0,0,1-15.47-1.67s-8.49-4.32-7.54-10.78-5.75-8.49-8.19-9.77c0,0-6.44-2.87-13.06-1.66"/><path class="cls-44" d="M466.45,578.22c.82-11.68-5.53-15.61-5.53-15.61s-7.42-5.44-15.52,1.53c-8.27,7.13-12.18,1.42-14.36-.1a17.67,17.67,0,0,1-5-12.95"/><path class="cls-45" d="M351.78,671.89s-21.18,19-10.63,45.84,37.71,16.17,37.71,16.17,24.91-9,16.77-32.68S369.4,682,365.38,682.93c0,0-18.82,4.9-14.09,27.2,0,0,5.93,20.25,24.61,14.53,0,0,16-5.12,10.37-19.9,0,0-2-6.31-7.55-7.22,0,0-3.43-.24-.89,2.43,0,0,8.31,6.46.94,14.77,0,0-9.38,9.52-17.44-2.69,0,0-7.94-12.16,3.56-19.36,0,0,10.31-6.59,19.13,3.76,11.05,13-.76,24.55-.76,24.55s-8.55,11-24.49,3.58c0,0-16.65-8-12.06-29.07,0,0,1.29-10.37,5-17.23C351.71,678.28,354.89,670.53,351.78,671.89Z"/><path class="cls-22" d="M426.94,687.55s.11,7.59,2.94,8.87c3.89,1.76,6.77-3.33,6.77-3.33s2.05-5.79,7.84-.4c4.85,4.51,7.18.45,7.18.45s2.12-1.85.15-4.74c-4-5.81,1.38-7.82,1.38-7.82,5.05-2.23,4.38-6.3,4.38-6.3-1.75-7.12-10.49-5-10.49-5-5.35.76-4.09-3.19-4.09-3.19s1.15-4.23-5.07-6.21-5.18,6-5.18,6c-.56,8.54-9,8.94-9,8.94s-9.72,0-9.93,4.38c-.27,5.71,8.6,5.47,8.6,5.47C427.46,684,426.94,687.55,426.94,687.55Zm7-7.88c.5-2.43,2.46-4.08,4.38-3.69s3.06,2.69,2.56,5.12-2.46,4.08-4.38,3.69S433.42,682.1,433.92,679.67Z"/><path class="cls-40" d="M291.56,664.86s-20.73,0-22.2,21c-.37,5.41,11.22,4.59,17.73,3.67.53,8.9,2.28,42.36-.66,51.2,0,0-.24,2.32,6.24,2.11s7.77-4.19,7.77-4.19,3.54,3.42-4.87-49.18c6.44.94,18.46,1.93,18.18-3.61C312.73,665.59,291.56,664.86,291.56,664.86Z"/><text class="cls-46" transform="matrix(0.98, -0.18, 0.18, 0.98, 256.42, 476.16)">biological<tspan x="-48.59" y="39.24">nit</tspan><tspan class="cls-47" x="-10.79" y="39.24">r</tspan><tspan x="-0.72" y="39.24">ogen fi</tspan><tspan class="cls-48" x="105.29" y="39.24">x</tspan><tspan x="121.14" y="39.24">ation</tspan></text></g><g id="Layer_46" data-name="Layer 46"><path class="cls-40" d="M1292.78,694v0l-14.87-3.67-46.72,11.53V197.75h-9.94V701.83l-46.35-11.44L1160,694.07c-.07,0-.1,0-.06,0v4.64l41.91,10.34-42.18,10.4.14,5.2,13.91,3.43,52.65-13,52.53,13,13.75-3.39.16-5.22-42-10.37,42-10.37Z"/><rect class="cls-40" x="1179.15" y="197.75" width="45.77" height="3.41"/><path class="cls-40" d="M1179.15,197.75a11.68,11.68,0,1,0,11.67,11.67A11.67,11.67,0,0,0,1179.15,197.75Zm0,19.9a8.23,8.23,0,1,1,8.22-8.23A8.22,8.22,0,0,1,1179.15,217.65Z"/><rect class="cls-40" x="1218.5" y="193.86" width="15.41" height="22.42"/><path class="cls-49" d="M1173,350.91c9.46,19.18,48.21,170.65-19,201.88-110.57,51.34-88.72,241-155.93,173.39"/><path class="cls-43" d="M1053.74,701.39l-3.8,24.31-2.68-.42-10.39-16.42L1034.66,723l-5-.79,3.79-24.24,2.68.42,10.37,16.8,2.28-14.58Z"/><path class="cls-50" d="M984.81,621,981,642l-2.68-.36-10.39-14.19-2.21,12.21-5-.68,3.79-21,2.68.36,10.37,14.52,2.28-12.59Z"/><path class="cls-43" d="M1089.88,618.88l5.06,24.08-2.65.56-15.54-11.67,2.94,14-5,1-5-24,2.65-.56,15.64,12-3-14.44Z"/><path class="cls-43" d="M1152.1,543.38l2.3,24.5-2.7.26-14.11-13.36,1.33,14.24-5.08.48-2.29-24.43,2.7-.26,14.18,13.73-1.38-14.69Z"/><path class="cls-50" d="M909.86,489.14l2.3,21.17-2.7.22L895.35,499l1.33,12.31-5.08.41-2.29-21.12,2.7-.21,14.18,11.86-1.37-12.69Z"/><path class="cls-43" d="M1199.27,448.73l5.67,23.94-2.64.63L1186.47,462l3.3,13.92-5,1.17-5.65-23.88,2.63-.62,16,11.63-3.4-14.35Z"/><path class="cls-50" d="M966,550.82l5.67,20.7-2.63.54-15.83-9.74,3.29,12-5,1-5.66-20.63,2.64-.54,16,10-3.4-12.41Z"/><path class="cls-45" d="M1145.57,234.83c8.54,4.1,23,1.33,31.63,1.33,12,0,23.42-2.07,35-1.33,9.88.63,14-.88,16,12.57,1.46,10.07,0,22.4,0,32.68,0,20.88.64,42,0,62.83-.36,11.87-.47,14.27-10.51,16.37s-20.47,2.48-30.76,2.48c-13.81,0-27.76.29-41.09-3.77-8.1-2.46-8.92-1.33-10.74-13.57-1.14-7.69-1.11-17.3-1.69-25.46-1.11-15.72-9.78-95.09,12.22-84.13"/><text class="cls-51" transform="translate(1140.38 323.25)">NPK</text><line class="cls-52" x1="1179.15" y1="215.81" x2="1179.76" y2="243.84"/><path class="cls-50" d="M989.63,664.71l8.47,20-2.54.81-17.06-8.05,4.93,11.6-4.79,1.52-8.45-19.91,2.54-.8L990,678.18l-5.08-12Z"/><text class="cls-53" transform="matrix(0.98, 0.2, -0.2, 0.98, 1032.65, 381.44)">mi<tspan class="cls-54" x="38.16" y="0">n</tspan><tspan x="56.7" y="0">e</tspan><tspan class="cls-55" x="75.11" y="0">r</tspan><tspan x="85.18" y="0">al </tspan><tspan class="cls-56" x="-2.21" y="39.24">f</tspan><tspan x="7.14" y="39.24">ertili</tspan><tspan class="cls-57" x="72.34" y="39.24">z</tspan><tspan x="86.37" y="39.24">er</tspan></text></g></g></g></svg>