<svg xmlns="http://www.w3.org/2000/svg" viewBox="0 0 1348 741.42"><defs><style>.cls-1{font-size:40px;}.cls-1,.cls-17{fill:#5c5052;font-family:Acre-Light, Acre;font-weight:300;}.cls-2{letter-spacing:-0.01em;}.cls-3{letter-spacing:0em;}.cls-4{letter-spacing:0em;}.cls-5{letter-spacing:0em;}.cls-6{letter-spacing:-0.02em;}.cls-7{letter-spacing:0.01em;}.cls-8{letter-spacing:-0.02em;}.cls-9{letter-spacing:-0.02em;}.cls-10{letter-spacing:-0.02em;}.cls-11,.cls-12,.cls-13{fill:#eb6a7c;}.cls-11,.cls-12,.cls-13,.cls-15{font-family:Acre-Bold, Acre;font-weight:700;}.cls-12{letter-spacing:-0.03em;}.cls-13{letter-spacing:0em;}.cls-14{letter-spacing:-0.01em;}.cls-15,.cls-22{fill:#ffcd01;}.cls-16{letter-spacing:-0.03em;}.cls-18{fill:#5e5153;}.cls-19{fill:#fff;}.cls-20{fill:#3da9a0;}.cls-21,.cls-23,.cls-24{fill:none;stroke-linecap:round;stroke-linejoin:round;}.cls-21{stroke:#eb6a7c;stroke-width:1.48px;}.cls-23,.cls-24{stroke:#ffcd01;}.cls-23{stroke-width:2.44px;}.cls-24{stroke-width:2.49px;}</style></defs><g id="Layer_2" data-name="Layer 2"><g id="Layer_11" data-name="Layer 11"><text class="cls-1" transform="translate(673.2 106.54)">legu<tspan class="cls-2" x="79.12" y="0">m</tspan><tspan class="cls-3" x="113.48" y="0">e</tspan><tspan x="135.88" y="0">s (i</tspan><tspan class="cls-4" x="185.68" y="0">.e</tspan><tspan x="214.16" y="0">. </tspan><tspan class="cls-5" x="234.24" y="0">s</tspan><tspan class="cls-6" x="250.44" y="0">o</tspan><tspan class="cls-3" x="273.92" y="0">y</tspan><tspan x="293.48" y="0">bea</tspan><tspan class="cls-7" x="365.43" y="0">n</tspan><tspan x="388.51" y="0">s, al</tspan><tspan class="cls-8" x="458.99" y="0">f</tspan><tspan x="469.27" y="0">al</tspan><tspan class="cls-9" x="502.99" y="0">f</tspan><tspan x="513.27" y="0">a) </tspan><tspan class="cls-10" x="2.76" y="50">r</tspan><tspan x="14.12" y="50">elea</tspan><tspan class="cls-5" x="93.04" y="50">s</tspan><tspan x="109.24" y="50">e sig</tspan><tspan class="cls-2" x="196.68" y="50">n</tspan><tspan x="218.88" y="50">ali</tspan><tspan class="cls-6" x="262.64" y="50">n</tspan><tspan x="284.84" y="50">g compou</tspan><tspan class="cls-6" x="474.99" y="50">n</tspan><tspan x="497.19" y="50">ds, </tspan><tspan x="-45.96" y="100">k</tspan><tspan class="cls-6" x="-26.84" y="100">no</tspan><tspan x="18.84" y="100">wn as </tspan><tspan class="cls-11" x="142.08" y="100">fla</tspan><tspan class="cls-12" x="191.32" y="100">v</tspan><tspan class="cls-13" x="211.16" y="100">onoids</tspan><tspan x="336.07" y="100">,</tspan><tspan class="cls-14" x="342.71" y="100"> </tspan><tspan class="cls-3" x="356.19" y="100">w</tspan><tspan x="387.83" y="100">hich att</tspan><tspan class="cls-8" x="525.31" y="100">r</tspan><tspan x="536.67" y="100">act </tspan><tspan x="-0.32" y="150">nit</tspan><tspan class="cls-10" x="43.6" y="150">r</tspan><tspan x="54.96" y="150">ogen fixi</tspan><tspan class="cls-2" x="212.04" y="150">n</tspan><tspan x="234.24" y="150">g bac</tspan><tspan class="cls-9" x="343.19" y="150">t</tspan><tspan x="353.47" y="150">eria called </tspan><tspan class="cls-15"><tspan x="194.6" y="200">rhi</tspan><tspan class="cls-16" x="244.2" y="200">z</tspan><tspan x="261.76" y="200">obia</tspan><tspan class="cls-17" x="346.71" y="200">.</tspan></tspan></text></g><g id="Nitrogen_fixation_1" data-name="Nitrogen fixation_1"><g id="Layer_38" data-name="Layer 38"><path class="cls-18" d="M1242.87,414.66c-119.84,1.67-239.66-3.28-359.22-9-245.92-11.66-491.54-26.34-737.75-34.79Q73,368.42,0,366.78V741.42c24.27-.8,48.53-1.91,72.71-3C292.6,728,512.9,716.51,733.22,721.47c181.2,4.07,363.11,19.26,543.18,5.17,24-1.88,47.81-4.27,71.6-6.93V411.63Q1295.49,413.84,1242.87,414.66Z"/></g><g id="Layer_37" data-name="Layer 37"><path class="cls-19" d="M395.2,379.29a36.65,36.65,0,0,0,11.69,9.91A47.06,47.06,0,0,0,421.7,394a139.3,139.3,0,0,0,15.92,1.51l8.07.38c2.7.12,5.44.37,8.15.58a87.11,87.11,0,0,1,16.1,3.28,56.38,56.38,0,0,1,14.74,7.37,72.69,72.69,0,0,1,12.12,11c3.64,4,7,8.3,10.33,12.53l2.51,3.16,1.26,1.59,1.31,1.49a62.43,62.43,0,0,0,5.63,5.64,112,112,0,0,0,13,9.44,201.38,201.38,0,0,0,28.82,14.42c5,2.07,10,3.92,15.12,5.71s10.24,3.35,15.44,4.76L598,479a41.59,41.59,0,0,1,7.63,2.74,16.7,16.7,0,0,1,6.13,5.21,39.67,39.67,0,0,1,3.94,7.06,39.41,39.41,0,0,0-4-7,16.64,16.64,0,0,0-6.15-5.08,41.93,41.93,0,0,0-7.61-2.61l-7.84-2c-5.23-1.35-10.4-2.91-15.54-4.56s-10.23-3.5-15.24-5.51a201.73,201.73,0,0,1-29.2-14.1,112.5,112.5,0,0,1-13.31-9.39,63.37,63.37,0,0,1-5.87-5.72l-1.38-1.53L508.26,435l-2.56-3.13c-3.41-4.19-6.8-8.37-10.43-12.29A70.31,70.31,0,0,0,483.37,409a53.47,53.47,0,0,0-14.19-6.85,84.82,84.82,0,0,0-15.61-3c-2.66-.16-5.3-.37-8-.45l-8.09-.26a143,143,0,0,1-16.31-1.33,50.43,50.43,0,0,1-15.9-4.92,40.3,40.3,0,0,1-13-10.68Z"/><path class="cls-19" d="M393.3,385.53c-.43.51-.95,1.21-1.42,1.84s-.93,1.33-1.35,2-.87,1.39-1.26,2.11-.82,1.43-1.17,2.18a57.76,57.76,0,0,0-3.72,9.19,64,64,0,0,0-2.8,19.65c0,6.7,1.4,13.19,2.54,20.12a157.48,157.48,0,0,1,1.86,20.7,119.78,119.78,0,0,1-1.2,20.79c-.12.86-.29,1.72-.45,2.58-.09.44-.17.87-.27,1.3l-.15.66-.12.55a36.7,36.7,0,0,0-.58,4.92,23.57,23.57,0,0,0,1.19,9.58,11.63,11.63,0,0,0,2.47,3.83,36.68,36.68,0,0,0,3.94,3c2.8,1.87,5.75,3.58,8.73,5.24,6,3.29,12.1,6.37,18.27,9.31l.06,0h0a51,51,0,0,1,5.85,4.35c.93.76,1.82,1.57,2.7,2.39s1.74,1.67,2.57,2.53a77,77,0,0,1,9.08,11.16,81.47,81.47,0,0,1,11.66,26.11c2.46,9.29,2.71,18.89,4.81,28.15a72.67,72.67,0,0,0,4.06,13.63,28,28,0,0,0,3.45,6.19,12.39,12.39,0,0,0,2.48,2.53,5.29,5.29,0,0,0,3.25,1.26,5.34,5.34,0,0,1-3.28-1.21,12.33,12.33,0,0,1-2.54-2.51,28.13,28.13,0,0,1-3.58-6.17,72.82,72.82,0,0,1-4.3-13.62c-2.26-9.27-2.68-18.9-5.26-28a80.33,80.33,0,0,0-11.91-25.55,75.68,75.68,0,0,0-9.09-10.8c-.83-.83-1.66-1.66-2.56-2.43s-1.75-1.57-2.67-2.29a48.41,48.41,0,0,0-5.66-4.08l.08,0c-6.27-2.86-12.45-5.84-18.55-9.07-3-1.63-6.05-3.31-9-5.2a38,38,0,0,1-4.3-3.17A14,14,0,0,1,382,504.7,26.32,26.32,0,0,1,380.48,494a41,41,0,0,1,.54-5.3l.5-2.53c.14-.83.29-1.65.39-2.49a117.09,117.09,0,0,0,.84-20.26,154.41,154.41,0,0,0-2.16-20.23c-.57-3.37-1.31-6.6-1.87-10.12l-.45-2.6c-.12-.87-.17-1.75-.26-2.62a49.08,49.08,0,0,1-.35-5.27,68,68,0,0,1,2.65-21,61.34,61.34,0,0,1,3.83-9.93c.36-.81.8-1.59,1.22-2.38s.88-1.56,1.34-2.32a37.75,37.75,0,0,1,3.15-4.52Z"/><path class="cls-19" d="M436.42,593a29.77,29.77,0,0,0-2.29-6.42,55.76,55.76,0,0,0-3.32-6A74.36,74.36,0,0,0,422.37,570a104.08,104.08,0,0,0-9.95-9.29,90.9,90.9,0,0,1-10-9.39,96.29,96.29,0,0,1-15.88-22.49,61.66,61.66,0,0,1-4.77-13.06,46.73,46.73,0,0,1-1.22-14l2.75.22c-.84,8.81,1.37,17.77,5.15,25.89a94.6,94.6,0,0,0,15.06,22.41,91.71,91.71,0,0,0,9.7,9.51,104.58,104.58,0,0,1,9.76,9.65,74.41,74.41,0,0,1,8.2,11,55.53,55.53,0,0,1,3.17,6.07A30,30,0,0,1,436.42,593Z"/><path class="cls-19" d="M326.56,637a25.44,25.44,0,0,1,5.35-6.61,55.09,55.09,0,0,1,6.76-5.22c2.37-1.58,4.82-3,7.34-4.38s5.06-2.61,7.69-3.75l-.05,0a11.52,11.52,0,0,0,2.38-3,29.82,29.82,0,0,0,1.79-3.52,59.9,59.9,0,0,0,2.66-7.48,134.25,134.25,0,0,0,3.38-15.56c.82-5.26,1.39-10.52,2-15.84l.45-4,.53-4c.33-2.65.73-5.29,1.13-7.93,1.59-10.57,3.5-21.08,5.62-31.55s4.41-20.89,7-31.28l2.67.69c-2.7,10.28-5.15,20.66-7.43,31.06s-4.35,20.85-6.11,31.35c-.43,2.63-.87,5.25-1.24,7.89l-.59,3.94-.52,4c-.67,5.27-1.36,10.6-2.28,15.86a134.9,134.9,0,0,1-3.69,15.63,60.55,60.55,0,0,1-2.84,7.53,31.34,31.34,0,0,1-1.9,3.57A12.08,12.08,0,0,1,354,617.6h-.05c-2.62,1.07-5.19,2.29-7.72,3.58s-5,2.7-7.38,4.23a55.48,55.48,0,0,0-6.83,5.08A25.34,25.34,0,0,0,326.56,637Z"/><path class="cls-19" d="M358.33,611.14a20.25,20.25,0,0,1,2.35,3.29A21.52,21.52,0,0,1,362.4,618a20.08,20.08,0,0,1,1.3,7.82,20.52,20.52,0,0,1-.55,3.93l-.24,1c-.1.31-.22.62-.33.93l-.67,1.84-.63,1.76c-.18.6-.31,1.22-.47,1.83l-.22.91-.16.94-.32,1.88a91.62,91.62,0,0,0-.51,15.28c.21,5.11.67,10.22,1.38,15.3q-1.29-7.59-1.84-15.28a92.34,92.34,0,0,1,.06-15.42l.26-1.92.14-1,.2-1c.15-.63.26-1.27.44-1.9l.6-1.88.6-1.8c.09-.29.2-.59.28-.88l.19-.92a11.27,11.27,0,0,0,.3-1.83,12.54,12.54,0,0,0,.11-1.84A20,20,0,0,0,357,612.43Z"/><path class="cls-19" d="M400.07,639.62a38.91,38.91,0,0,0-2.84-7.82,47.28,47.28,0,0,0-4.2-7.18,52.72,52.72,0,0,0-11.54-11.89c-1.06-.89-2.27-1.58-3.41-2.36a37.75,37.75,0,0,0-3.58-2.11l-1.82-1-1.83-1.07c-.6-.37-1.13-.85-1.7-1.28a14.25,14.25,0,0,1-1.53-1.48,18.08,18.08,0,0,1-1.32-1.68c-.4-.58-.71-1.23-1.07-1.84a18.27,18.27,0,0,1-1.32-4,20.72,20.72,0,0,1,.12-8.48l.89.24a19.81,19.81,0,0,0-.22,8.08,17,17,0,0,0,1.21,3.89c.33.59.62,1.21,1,1.77a19.29,19.29,0,0,0,1.24,1.62,13.89,13.89,0,0,0,1.44,1.43c.54.41,1,.89,1.62,1.25l1.76,1.06,1.82,1a36.36,36.36,0,0,1,3.58,2.18,40.57,40.57,0,0,1,3.41,2.43,53.3,53.3,0,0,1,11.45,12.11,48.7,48.7,0,0,1,4.12,7.27A39.23,39.23,0,0,1,400.07,639.62Z"/><path class="cls-19" d="M389.84,389.08c-5.91,2.49-11.8,5.27-17.53,8.23s-11.38,6.15-16.77,9.66a83.88,83.88,0,0,0-14.93,11.94L339,420.66c-.52.57-1.1,1.26-1.65,1.88a30.34,30.34,0,0,1-3.76,3.48,19.41,19.41,0,0,1-4.51,2.68,13.91,13.91,0,0,1-2.59.8,10.34,10.34,0,0,1-1.39.19,6.74,6.74,0,0,1-1.58-.06l.31,0a16.21,16.21,0,0,0-2.39.43,38,38,0,0,0-4.95,1.68c-.81.36-1.64.65-2.43,1.07L311.7,434c-.79.39-1.55.88-2.32,1.32s-1.56.88-2.31,1.36l-2.24,1.48c-.74.5-1.51,1-2.23,1.5l-2.16,1.6-2.16,1.6c-.71.56-1.4,1.14-2.09,1.71-1.38,1.16-2.81,2.25-4.14,3.47l-4,3.63c-1.36,1.18-2.59,2.51-3.89,3.76s-2.57,2.53-3.82,3.83c-2.44,2.67-4.95,5.27-7.32,8s-4.74,5.46-7,8.28l-6.75,8.5-.06.08-.06.05c-4.66,4.16-9.22,8.49-13.5,13a79.64,79.64,0,0,0-6,7.11,21.33,21.33,0,0,0-1.29,1.91l-.6,1-.48,1c-.63,1.37-1.21,2.9-1.82,4.34a123.1,123.1,0,0,1-20.18,31.88A167.11,167.11,0,0,1,187.4,569.9q-7.62,5.58-15.72,10.43A162.63,162.63,0,0,1,155,589.11a162.37,162.37,0,0,0,16.57-9c5.36-3.27,10.55-6.82,15.57-10.59a166.35,166.35,0,0,0,27.42-25.67,122.27,122.27,0,0,0,19.64-31.82c.59-1.46,1.11-2.88,1.77-4.37l.52-1.13.62-1c.4-.71.88-1.35,1.33-2a84.31,84.31,0,0,1,6.07-7.33c4.28-4.65,8.8-9,13.47-13.3l-.12.12,6.68-8.63c2.26-2.85,4.65-5.6,7-8.41s4.87-5.42,7.29-8.15c1.25-1.32,2.55-2.6,3.82-3.91s2.52-2.64,3.89-3.86l4-3.73c1.33-1.24,2.78-2.37,4.16-3.57.71-.58,1.39-1.19,2.11-1.76l2.19-1.66,2.19-1.66c.73-.56,1.51-1.05,2.27-1.57l2.28-1.54c.77-.51,1.58-1,2.37-1.44s1.56-1,2.39-1.38l2.47-1.28c.81-.44,1.69-.77,2.54-1.16s1.73-.7,2.61-1,1.8-.58,2.71-.85a17.54,17.54,0,0,1,3-.53h.09l.21,0a4.82,4.82,0,0,0,.86,0,7.39,7.39,0,0,0,1-.15,11.76,11.76,0,0,0,2.06-.66,17.16,17.16,0,0,0,3.83-2.35,27.14,27.14,0,0,0,3.35-3.18c.52-.61,1-1.18,1.55-1.81l1.68-1.88a86,86,0,0,1,15.34-12.59,196.92,196.92,0,0,1,16.95-10c5.79-3.08,11.66-5.94,17.72-8.57Z"/><path class="cls-19" d="M384.31,457.42a47.14,47.14,0,0,0-8.21,3.24,49.84,49.84,0,0,0-7.58,4.65,44.82,44.82,0,0,0-6.56,6,38.43,38.43,0,0,0-5.07,7.26,37.07,37.07,0,0,0-3.22,8.26c-.4,1.44-.63,2.89-.9,4.39s-.52,3-.84,4.53a42.45,42.45,0,0,1-2.84,8.85,14.71,14.71,0,0,1-6.24,7.06c-2.92,1.52-6.21,1.6-9.25,1.44s-6.09-.6-9.11-.87a23.06,23.06,0,0,0-4.46-.13,13.93,13.93,0,0,0-4.26,1.09,25.36,25.36,0,0,0-7.28,5.2c-4.35,4.2-8.36,8.85-13.15,12.66a52.56,52.56,0,0,1-15.85,8.91,52,52,0,0,0,15.63-9.18,79.65,79.65,0,0,0,6.59-6.27c2.1-2.2,4.13-4.47,6.3-6.62a26.31,26.31,0,0,1,7.41-5.49,15.28,15.28,0,0,1,4.51-1.25,24.85,24.85,0,0,1,4.65.05c3.05.21,6.07.59,9.07.7s6-.07,8.55-1.46a13.22,13.22,0,0,0,5.48-6.49,40.77,40.77,0,0,0,2.56-8.55c.29-1.47.53-3,.74-4.45s.47-3.07.85-4.57a38.82,38.82,0,0,1,3.23-8.77,40.13,40.13,0,0,1,5.21-7.77,46.85,46.85,0,0,1,6.79-6.42,52.67,52.67,0,0,1,7.86-5,49.06,49.06,0,0,1,8.69-3.61Z"/><path class="cls-19" d="M385.41,464.67a95.29,95.29,0,0,1,6.91,8.49q3.21,4.39,6,9.08a104.33,104.33,0,0,1,9.16,19.7,90.85,90.85,0,0,1,2.86,10.49,83.48,83.48,0,0,1,1.45,10.79,76,76,0,0,1-.13,10.88c-.39,3.64-.85,7.1-1,10.67A99.41,99.41,0,0,0,412.59,566a150.83,150.83,0,0,0,5.63,20.7,205.24,205.24,0,0,0,8.12,19.89,202,202,0,0,0,10.08,19A215.62,215.62,0,0,1,417.57,587a150.24,150.24,0,0,1-6-20.73,100,100,0,0,1-2.28-21.5c.05-3.6.48-7.27.79-10.77a74,74,0,0,0,0-10.63,81.27,81.27,0,0,0-1.58-10.51,90.33,90.33,0,0,0-3-10.21,101.67,101.67,0,0,0-9.26-19.13,105.21,105.21,0,0,0-12.8-16.89Z"/><path class="cls-19" d="M380.66,430.94a145.58,145.58,0,0,1,16.24,4.41q8,2.61,15.66,6a133.93,133.93,0,0,1,28.8,17.13c8.7,7,16.46,15.48,21.73,25.45l1,1.86c.17.31.34.62.49.94l.42,1,1.68,3.87a73.22,73.22,0,0,1,2.52,8l.51,2c.09.35.18.68.25,1l.18,1,.68,4.15c.21,1.38.25,2.79.39,4.18l.32,4.17.6,8.28.15,2.07c.05.69.17,1.37.25,2.06l.55,4.12.55,4.11.27,2.06.38,2,1.55,8.17c.23,1.37.55,2.71.88,4.06l1,4c.64,2.7,1.25,5.4,2.06,8l2.29,8,2.59,7.9a317.93,317.93,0,0,0,27.69,60.43,318.47,318.47,0,0,1-28.35-60.2l-2.67-7.9-2.38-8c-.84-2.66-1.47-5.36-2.15-8.06l-1-4.05c-.34-1.35-.68-2.7-.93-4.07l-1.63-8.18-.4-2-.3-2.07-.59-4.13-.6-4.13c-.09-.69-.22-1.38-.28-2.07l-.17-2.08-.69-8.33-.36-4.13c-.15-1.37-.2-2.75-.42-4.11l-.71-4.05-.18-1c-.07-.33-.17-.66-.26-1l-.52-2a72,72,0,0,0-2.54-7.82l-1.68-3.75-.42-.94c-.15-.31-.32-.61-.49-.91l-1-1.81c-5.23-9.66-12.9-17.83-21.49-24.65a131.46,131.46,0,0,0-28.49-16.54,163.45,163.45,0,0,0-15.49-5.75,142.62,142.62,0,0,0-15.94-4.16Z"/><path class="cls-19" d="M390.36,381.7a189.13,189.13,0,0,1,23,6.34,110.41,110.41,0,0,1,11.1,4.47,54.29,54.29,0,0,1,10.43,6.21,23.8,23.8,0,0,1,4.44,4.47c.32.43.62.9.9,1.36l.73,1.21c.52.79,1.05,1.58,1.62,2.35a69.34,69.34,0,0,0,7.66,8.63,131.42,131.42,0,0,0,18.24,14.51l.12.07.05.06a57.09,57.09,0,0,1,7.46,8.89,52.7,52.7,0,0,1,5.52,10.18,39.72,39.72,0,0,1,2.79,11.27l.11,1.43a10.82,10.82,0,0,0,.17,1.29,7.89,7.89,0,0,0,.87,2.36,11.89,11.89,0,0,0,3.66,3.72c1.5,1.06,3.14,2.06,4.68,3.28a14.81,14.81,0,0,1,5.91,10.07,26.59,26.59,0,0,1,.18,5.84A58.26,58.26,0,0,1,497.85,501c-1,3.66-2,7.31-2.81,11a57.42,57.42,0,0,0-1.63,11.1,38.67,38.67,0,0,0,.23,5.59,44.49,44.49,0,0,0,1.06,5.5c1.9,7.28,5.29,14.1,8.76,20.8s7.32,13.24,11.16,19.75,7.77,13,11.7,19.46q-6-9.61-12-19.3c-3.94-6.46-7.82-13-11.44-19.62s-7.08-13.46-9.12-20.85a44.09,44.09,0,0,1-1.16-5.62,39.3,39.3,0,0,1-.31-5.74,59.12,59.12,0,0,1,1.5-11.34c.8-3.72,1.75-7.39,2.67-11.06a57.49,57.49,0,0,0,1.94-11c.21-3.67-.18-7.46-2-10.51a14.23,14.23,0,0,0-3.61-3.9c-1.44-1.11-3.06-2.06-4.66-3.16a13.63,13.63,0,0,1-4.27-4.28,9.7,9.7,0,0,1-1.12-2.92,11.54,11.54,0,0,1-.23-1.53l-.13-1.39a37.64,37.64,0,0,0-2.79-10.65,51,51,0,0,0-5.41-9.67,56,56,0,0,0-7.22-8.39l.17.13a132.94,132.94,0,0,1-18.85-14.57,73.71,73.71,0,0,1-8.11-8.89c-.61-.81-1.19-1.65-1.76-2.49l-.81-1.3c-.24-.38-.48-.74-.74-1.1a21.16,21.16,0,0,0-3.91-3.82,52.12,52.12,0,0,0-9.88-5.71,111,111,0,0,0-10.84-4.21,186.46,186.46,0,0,0-22.57-5.94Z"/><path class="cls-19" d="M489.31,471.21a46.86,46.86,0,0,0-2.09,10.73,21.48,21.48,0,0,0,1.68,10.63c1.24,3.6,2.24,7.25,3.19,10.9s1.81,7.32,2.62,11l0,.08v.1a13.18,13.18,0,0,0,.93,5.94,17.9,17.9,0,0,0,3.25,5.23L500,527l1.17,1,.58.52.64.46,1.26.93c.87.57,1.78,1.09,2.68,1.64L509.1,533l-2.88-1.28c-.92-.51-1.85-1-2.75-1.54l-1.32-.89-.65-.44-.62-.5-1.22-1-1.13-1.13a18.46,18.46,0,0,1-3.56-5.28,13.81,13.81,0,0,1-1.23-6.36v.19q-1.42-5.46-3-10.85c-1.09-3.6-2.22-7.18-3.56-10.65-.34-.89-.71-1.65-1-2.64a10.75,10.75,0,0,1-.45-1.43c-.11-.48-.27-1-.33-1.45a27.58,27.58,0,0,1-.41-5.86,48.59,48.59,0,0,1,1.78-11.46Z"/><path class="cls-19" d="M389.59,385.8A121.52,121.52,0,0,0,367.78,394a70.77,70.77,0,0,0-9.94,5.91,35.53,35.53,0,0,0-8.11,7.83c-1,1.45-2.12,3.32-3.27,5l-1.84,2.42c-.64.79-1.3,1.55-1.95,2.32a102,102,0,0,1-8.49,8.53,157,157,0,0,1-19.05,14.49l.18-.14a65.24,65.24,0,0,0-10.19,12.61,52.31,52.31,0,0,0-6.42,14.85l-.41,2a15,15,0,0,0-.34,2c-.15,1.35-.31,2.63-.44,4.08a53.77,53.77,0,0,1-1.46,8.36,62.09,62.09,0,0,1-6.51,15.57,64.49,64.49,0,0,1-23.88,23.31,74.93,74.93,0,0,0-13.44,9.43,48.07,48.07,0,0,0-10.06,12.84,71.48,71.48,0,0,0-5.88,15.36c-1.45,5.33-2.59,10.75-3.84,16.16a164.29,164.29,0,0,1-10.15,31.71A145.6,145.6,0,0,1,205.09,637a213.75,213.75,0,0,1-22.48,24.5,212.33,212.33,0,0,0,22.21-24.71,145,145,0,0,0,16.85-28.53,163.12,163.12,0,0,0,9.78-31.65c1.19-5.41,2.27-10.86,3.69-16.25A72.81,72.81,0,0,1,241,544.69a49.86,49.86,0,0,1,10.22-13.32,76.8,76.8,0,0,1,13.63-9.78,62.59,62.59,0,0,0,23-22.86,59.93,59.93,0,0,0,6.12-15.09,51,51,0,0,0,1.32-8c.1-1.31.27-2.79.41-4.19a16.28,16.28,0,0,1,.34-2.11l.41-2.1A54.79,54.79,0,0,1,303,451.59,67.14,67.14,0,0,1,313.5,438.3l.05-.06.13-.08a154.05,154.05,0,0,0,18.52-14.39,97.11,97.11,0,0,0,8.14-8.35c.61-.74,1.25-1.48,1.85-2.23l1.71-2.32c1.11-1.6,2-3.12,3.22-5a38.36,38.36,0,0,1,8.77-8.67,73.76,73.76,0,0,1,10.35-6.31,112.13,112.13,0,0,1,11-4.87c3.75-1.44,7.5-2.72,11.43-3.81Z"/><path class="cls-19" d="M374.31,529.31a32,32,0,0,0-5.24,2.13,43,43,0,0,0-5,2.94,47.92,47.92,0,0,0-8.69,7.66,44.32,44.32,0,0,1-9.27,7.85,39.9,39.9,0,0,1-5.36,2.86,32,32,0,0,1-5.8,2l.24-.09A121.78,121.78,0,0,0,321.31,564a60.85,60.85,0,0,0-11.87,11.74,24.72,24.72,0,0,0-2.16,3.55c-.59,1.22-1.08,2.6-1.8,3.84a19,19,0,0,1-5.85,6.14,27.5,27.5,0,0,1-7.7,3.51,35.63,35.63,0,0,1-8.32,1.37,35.16,35.16,0,0,0,8.26-1.57A26.9,26.9,0,0,0,299.4,589a18.34,18.34,0,0,0,5.55-6.11c.68-1.21,1.1-2.52,1.7-3.84a25.66,25.66,0,0,1,2.13-3.71,46.27,46.27,0,0,1,5.48-6.52,82.85,82.85,0,0,1,6.3-5.7,122.55,122.55,0,0,1,13.86-9.82l.08-.06.16,0a31.2,31.2,0,0,0,5.4-2,38.2,38.2,0,0,0,5.06-2.86,42,42,0,0,0,8.65-7.69,50.62,50.62,0,0,1,8.92-8.25,45.38,45.38,0,0,1,5.18-3.24,34.25,34.25,0,0,1,5.72-2.47Z"/><path class="cls-19" d="M375.33,528a44.87,44.87,0,0,0,2,12.71,37.41,37.41,0,0,0,5.77,11.6,33.39,33.39,0,0,0,4.43,4.78,34.47,34.47,0,0,0,5.38,3.74,38.45,38.45,0,0,0,12.54,4.06,38.56,38.56,0,0,1-12.85-3.45A31.62,31.62,0,0,1,382,553.14a39.13,39.13,0,0,1-6.65-11.79A47.25,47.25,0,0,1,372.57,528Z"/><path class="cls-19" d="M379.5,426.35a50.82,50.82,0,0,0-9.48,1.27,29.78,29.78,0,0,0-4.53,1.41,22.55,22.55,0,0,0-2.11,1c-.33.19-.64.41-1,.61a5.14,5.14,0,0,0-.9.67,9.14,9.14,0,0,0-1.53,1.58c-.45.65-.89,1.31-1.31,2-.85,1.37-1.61,2.83-2.62,4.25a10.65,10.65,0,0,1-3.95,3.46,16.67,16.67,0,0,1-4.91,1.5c-.83.14-1.66.26-2.49.32s-1.66.13-2.49.16a36.46,36.46,0,0,0-4.84.4A15.23,15.23,0,0,0,329,449.2c-2.29,2.3-3.74,5.28-5.22,8.21a16.58,16.58,0,0,1-2.73,4.12,5.58,5.58,0,0,1-2.08,1.33,6.5,6.5,0,0,1-2.44.25,6.54,6.54,0,0,0,2.41-.33,5.72,5.72,0,0,0,2-1.37,16.06,16.06,0,0,0,2.54-4.16c1.37-3,2.73-6,5-8.52a16.05,16.05,0,0,1,8.74-4.76,38.77,38.77,0,0,1,5-.6c.81-.05,1.62-.12,2.41-.24a23.78,23.78,0,0,0,2.39-.38,15.67,15.67,0,0,0,4.43-1.51,9,9,0,0,0,3.27-3.09c.85-1.29,1.57-2.77,2.4-4.22.4-.73.85-1.45,1.3-2.17a11.35,11.35,0,0,1,1.82-2,16.28,16.28,0,0,1,4.44-2.76,31.27,31.27,0,0,1,4.81-1.7,54,54,0,0,1,10-1.69Z"/><path class="cls-19" d="M384.86,483.08c-.65,3.64,0,8,2.65,10.48a10.38,10.38,0,0,0,5,2.51,18.79,18.79,0,0,0,2.93.41c1,0,2,0,3.1,0a36.15,36.15,0,0,1,12.52,2.7,37.76,37.76,0,0,1,10.87,6.65l-.08-.06c2.1,1.33,4.29,2.58,6.51,3.76s4.48,2.27,6.79,3.25a61.24,61.24,0,0,0,7.09,2.58,34.48,34.48,0,0,0,7.4,1.37,33.89,33.89,0,0,1-7.48-1.11,63.09,63.09,0,0,1-7.21-2.33c-2.37-.91-4.68-1.93-7-3s-4.52-2.27-6.72-3.56h0l-.06-.05a36.91,36.91,0,0,0-10.68-6,34.49,34.49,0,0,0-12-2.13l-1.54,0c-.54,0-1.09,0-1.63,0a20.56,20.56,0,0,1-3.3-.36,12.57,12.57,0,0,1-6.15-2.91,11.75,11.75,0,0,1-3.46-6A16.09,16.09,0,0,1,382,486a16.75,16.75,0,0,1,.2-3.43Z"/><path class="cls-20" d="M516.1,124.76c-17.28-14.1-27.57-5.71-31.49-.9l-.66.84a15.3,15.3,0,0,0-1.19,1.83s-40.24,6.66-4.49,39c23.59,21.34,50.36,15.22,50.36,15.22S531.14,137,516.1,124.76Z"/><path class="cls-20" d="M490.34,110.05c5.21,34.77,49.71,14,49.71,14,32-18.71,38.27-75,38.27-75C545.74,33.67,504,50.19,504,50.19c-1.94,1.05-3.73,2.1-5.41,3.17C488.13,23.36,468.41,0,468.41,0s-47.07,44.78-36.47,74.84,39.41,30.38,39.41,30.38h0c1.22.5,4.77,3.72,1.38,10l3.34-1.9c-.57-2,1.2-5.4-1.5-9.27a61.93,61.93,0,0,0,9-4.49,47.93,47.93,0,0,0,5.52,7.82"/><path class="cls-20" d="M470,120.63s10.13,1.21,13.77,10.76c0,0-1-10.06-13.77-13.67C465.84,116.55,470,120.63,470,120.63Z"/><path class="cls-20" d="M466.64,202.68a132.93,132.93,0,0,0-2.84,19.8c-2.15-3.73-7.47-9.88-13.16-14.42h0c-4.43,4.11-14.63,16.82-7.65,35.36,9,24-4.65,42.28,29.71,61.43,0,0,12.68-13.6.31-40.31a49.15,49.15,0,0,1-5-20.88c3.44,5.78,8.21,9.71,11.26,18.53,15.73,45.46,37.35,43.42,37.35,43.42-8.07-75.83-43.78-99.83-49.29-103.12"/><path class="cls-20" d="M439.65,214c7.67-10,10-6.31,11.5-3.93a8,8,0,0,1,1.17,3.93c-.4-15.07-10.12-4.94-10.12-4.94Z"/><path class="cls-20" d="M445.53,206.07c16-11.25,19.08-4.71,22.07-1.62,1.12,1.16,1.74,1,1.74,1-4.84-13.93-21-3-21-3Z"/><path class="cls-19" d="M390.26,382.33a28.45,28.45,0,0,1-2,8.23,37.07,37.07,0,0,1-4.11,7.21,85.67,85.67,0,0,1-11,11.8c-3.87,3.61-7.87,7-11.34,10.85l-1.31,1.43-.66.71-.6.76-2.38,3-2.12,3.22c-.69,1.08-1.25,2.23-1.89,3.35a52.65,52.65,0,0,0-4.9,14.56A93.42,93.42,0,0,0,346.64,463c-.08,5.23.05,10.5.09,15.78s0,10.77-1.62,15.95a35.13,35.13,0,0,1-3.12,7.47,38.62,38.62,0,0,1-4.73,6.54,75.93,75.93,0,0,1-12,10.45c-4.27,3.13-8.62,6.1-12.76,9.33a86.85,86.85,0,0,0-11.58,10.6,60.94,60.94,0,0,0-8.65,13.06c-2.42,4.67-4.54,9.5-6.86,14.24a84.84,84.84,0,0,1-8,13.66,37.13,37.13,0,0,1-11.68,10.53A37.19,37.19,0,0,0,277.21,580,85,85,0,0,0,285,566.25c2.25-4.77,4.3-9.63,6.66-14.36a61.75,61.75,0,0,1,8.58-13.35,87.61,87.61,0,0,1,11.56-10.9c4.13-3.32,8.45-6.36,12.64-9.53a74.69,74.69,0,0,0,11.65-10.41,37.27,37.27,0,0,0,4.44-6.32,34,34,0,0,0,2.85-7.13,36.24,36.24,0,0,0,1.26-7.6c.13-1.29.1-2.59.13-3.88l-.06-3.94c-.12-5.26-.33-10.53-.32-15.84A95.14,95.14,0,0,1,345.51,447a55.12,55.12,0,0,1,4.94-15.37c.64-1.18,1.22-2.41,1.93-3.56l2.19-3.42,2.45-3.22.62-.8.67-.76,1.34-1.5c3.58-4,7.57-7.55,11.34-11.18a81.51,81.51,0,0,0,10.38-11.46,33.12,33.12,0,0,0,3.62-6.55,24.68,24.68,0,0,0,1.6-7.11Z"/><path class="cls-19" d="M393.5,380a20.92,20.92,0,0,1,2.59,5.65c.59,1.87,1,3.71,1.46,5.51a79.82,79.82,0,0,0,2.89,10.39,22.44,22.44,0,0,0,5.34,8.53,48.78,48.78,0,0,0,8.62,6.17,93.1,93.1,0,0,1,9.47,6.16,28.44,28.44,0,0,1,7.64,8.93,34,34,0,0,1,3.62,11.05,77.23,77.23,0,0,1,.8,11.29l0,2.78c0,.93,0,1.9,0,2.84-.07,1.89-.23,3.77-.42,5.62-.37,3.71-.85,7.35-1.07,11a38.39,38.39,0,0,0,.61,10.59,25.59,25.59,0,0,0,4.64,9.34c2.14,2.88,4.66,5.58,7,8.51a37.48,37.48,0,0,1,6,9.72,30.33,30.33,0,0,1,1.87,11.3,87.33,87.33,0,0,1-1.08,11.16c-1.05,7.28-1.85,14.7-4.12,21.9a41.78,41.78,0,0,1-5.09,10c-2,3.12-4.23,6.09-6.15,9.2a49.18,49.18,0,0,0-2.59,4.79,33.27,33.27,0,0,0-1.8,5.11,54.76,54.76,0,0,0-1.9,10.77,51.24,51.24,0,0,0,3.27,21.52,124.94,124.94,0,0,0,9.82,19.76c3.71,6.37,7.57,12.68,11,19.22A107.12,107.12,0,0,1,460,669.11c1.2,3.5,2.3,7,3.27,10.59a107.39,107.39,0,0,1,2.39,10.81,40,40,0,0,1,.52,11,39.94,39.94,0,0,0-.57-11,107.25,107.25,0,0,0-2.45-10.79c-1-3.56-2.1-7.08-3.32-10.56a103.51,103.51,0,0,0-4.11-10.26c-3.52-6.49-7.46-12.74-11.27-19.06a125.87,125.87,0,0,1-10.15-19.73,52.24,52.24,0,0,1-3.63-21.89,55.74,55.74,0,0,1,1.78-11,33.59,33.59,0,0,1,1.81-5.34,47,47,0,0,1,2.6-5c3.8-6.39,8.68-12.12,10.79-19s2.8-14.31,3.75-21.63a86,86,0,0,0,.9-10.89,27.82,27.82,0,0,0-1.86-10.4,25.92,25.92,0,0,0-2.49-4.67,47.1,47.1,0,0,0-3.23-4.32c-2.3-2.8-4.88-5.47-7.19-8.49a28.32,28.32,0,0,1-5.26-10.29,40.77,40.77,0,0,1-.85-11.44c.18-3.76.61-7.45.93-11.1.16-1.82.28-3.63.32-5.43,0-.9,0-1.78,0-2.69l-.06-2.76a73.46,73.46,0,0,0-.92-10.77,30.3,30.3,0,0,0-3.36-9.86,24.56,24.56,0,0,0-6.78-7.68,87,87,0,0,0-9.16-5.77,52.11,52.11,0,0,1-9.43-6.59,26.63,26.63,0,0,1-6.49-10,82.75,82.75,0,0,1-3.22-10.89c-.45-1.78-.89-3.53-1.44-5.17a16.21,16.21,0,0,0-2-4.37Z"/><path class="cls-20" d="M466.37,219.31l.05,0c-1,4.17-4.91,27.33,25.14,30.13,0,0,.08,21.9,20.75,29,0,0,3.38,28.8,46.23,23.51,0,0-4-19.86-20.24-31.42-13.64-9.7-1.95-14.58-24.9-25.09-16.17-7.4-3.2-24.28-44.25-26.64A16.21,16.21,0,0,0,466.37,219.31Z"/><path class="cls-20" d="M440,222.47c-17.7,13.17-37,35.14-43.53,63l1.35,8.92c6.45-33,27-57.49,44.2-69.49,8.7-6.09,16.82-9,24.14-4.19,2.75,1.81,3-.35,3-.38C464,216.65,455.12,211.21,440,222.47Z"/><path class="cls-20" d="M396.71,286.39c-1.31-36.58-3.33-106.89-3.33-106.89,38.81-52.33,88.95-63.86,88.95-63.86l-.29-1.33c-48.32,8.28-91,58.07-91,58.07-1.7-26.22-5.28-37.52-5.28-37.52-.69-.59-1.35-1.2-2-1.8,3.82-3.39,7.25-10.42,3.71-12.47-7.68-4.42-8.56,2.88-8.42,7.95A99.28,99.28,0,0,1,355.4,89.47c.42-2.6,2.44-6.4,8.59-11.39C381.47,94.32,384,67.75,384,67.75l1.77-17.24s-16.36,1.3-24.72,7.14a24.81,24.81,0,0,0-1.92-5.7c-8.27-17.85-34.9-26.41-34.9-26.41S319.2,47,322.58,62c-.74,0-1.17,0-1.17,0s-13.56,1.81-26.54,17.45c0,0,38.58,28,53.28,5.61a22.15,22.15,0,0,0,2.3-4.42,59.77,59.77,0,0,0,1.45,10,6.69,6.69,0,0,0,.23,1h0c5.81,23.54,24,41,24,41,6,11.27,8.54,52.73,9.47,98.79-31.05-35.69-48.14-54.83-71.38-63a37.67,37.67,0,0,0-1-5.9c10.58.45,38.46-.23,38.13-19.9-.4-24.26-19.78-40-19.78-40s-47.88,17-44.56,37.77c-2.27-10.82-10.84-23.09-38-23.24C200.27,116.89,192,133,192,133s8.27,29.75,41.33,47.12a34.85,34.85,0,0,0,15.5,4.29c-8.78,16.07-.8,35.05-.8,35.05s30.31,18.71,57-8.41c25-25.42-3.34-33.63-7-34.56,3.67-2,12.27-5.15,20.4-2.94,28.61,10.22,56.48,50.53,67.25,62,0,1,0,2.08,0,3.12-4.52-1.13-12-2.13-18,1.43-47.27-2.56-48.65,29-48.65,29-43.34,12.12-37,49.75-37,49.75,46.85-9.28,49.51-39.25,49.51-39.25a96.26,96.26,0,0,0,8.74-4.29h0s7,13.55-3.12,37.16,9.18,33.95,9.18,33.95c44.09-27.37,11-34,24.74-55.64s-4.74-39.46-4.75-39.47c1.74-2.9,2-7,2.72-8.85,5.81-4.66,11.84-2.78,16.76.54,1,67.6-1.21,140.34-1.21,140.34l12.23.37c1.75-57.73,2.15-53.85,1-89.38ZM350.6,72.85a4.69,4.69,0,0,0-.21-.46l.26-.06C350.63,72.51,350.62,72.68,350.6,72.85Zm1-.77a16.58,16.58,0,0,0,5.56-2.76,22.12,22.12,0,0,0,4.23,6.15c.64.69,1.27,1.33,1.87,1.92-3,1.56-7,4-9.35,7A85.83,85.83,0,0,1,351.6,72.08ZM297,175.59c-1.77-2.31-7.37-8.54-16.62-9.34,1.73-2.27,3.12-4.36,4.14-6,7.94.85,16.39,3.57,26.28,9.64C308.83,168.76,303.3,170.74,297,175.59Zm-12.06-16c1.09-1.81,1.65-3,1.65-3a38,38,0,0,0,.6-14.88c3.9,19.45,22,20.48,22,20.48s.57.07,1.56.14a7.07,7.07,0,0,0,.95,4.7C298.07,160.09,289.31,159.29,285,159.55Z"/></g><g id="Layer_39" data-name="Layer 39"><polygon class="cls-21" points="625.12 602.89 607.35 592.96 607.07 572.6 624.56 562.18 642.33 572.12 642.61 592.48 625.12 602.89"/><line class="cls-21" x1="612.43" y1="591.1" x2="625.27" y2="598.41"/><line class="cls-21" x1="611.2" y1="574.09" x2="623.9" y2="566.52"/><polygon class="cls-21" points="660.37 602.42 642.61 592.48 642.33 572.12 659.82 561.7 677.59 571.65 677.86 592 660.37 602.42"/><line class="cls-21" x1="677.59" y1="571.65" x2="690.07" y2="563.74"/><line class="cls-21" x1="659.56" y1="613.46" x2="659.41" y2="602.02"/><line class="cls-21" x1="661.5" y1="613.44" x2="661.35" y2="601.99"/><line class="cls-21" x1="638.78" y1="575.04" x2="638.99" y2="590.31"/><polygon class="cls-21" points="707.84 574.08 690.08 564.14 689.8 543.78 707.29 533.37 725.05 543.31 725.33 563.67 707.84 574.08"/><line class="cls-21" x1="695.15" y1="562.29" x2="708" y2="569.6"/><line class="cls-21" x1="693.93" y1="545.27" x2="706.62" y2="537.71"/><line class="cls-21" x1="721.5" y1="546.22" x2="721.71" y2="561.5"/><line class="cls-21" x1="674.38" y1="574.54" x2="674.59" y2="589.82"/><polygon class="cls-21" points="705.58 646.83 704.04 631.05 716.94 621.84 731.37 628.4 732.9 644.18 720 653.39 705.58 646.83"/><line class="cls-21" x1="707.49" y1="633.47" x2="708.51" y2="644.94"/><line class="cls-21" x1="717.82" y1="625.14" x2="728.3" y2="629.9"/><polygon class="cls-21" points="721.53 669.17 720 653.39 732.9 644.18 747.33 650.74 748.85 666.52 735.96 675.73 721.53 669.17"/><line class="cls-21" x1="748.85" y1="666.52" x2="759.45" y2="670.99"/><line class="cls-21" x1="714.11" y1="673.55" x2="721.36" y2="668.37"/><line class="cls-21" x1="714.99" y1="674.78" x2="722.24" y2="669.6"/><line class="cls-21" x1="729.46" y1="643.2" x2="719.78" y2="650.12"/><polygon class="cls-21" points="760.73 686.95 759.2 671.18 772.1 661.96 786.52 668.52 788.05 684.3 775.15 693.51 760.73 686.95"/><line class="cls-21" x1="762.64" y1="673.6" x2="763.66" y2="685.06"/><line class="cls-21" x1="772.98" y1="665.26" x2="783.45" y2="670.03"/><line class="cls-21" x1="784.61" y1="683.32" x2="774.93" y2="690.24"/><line class="cls-21" x1="745.58" y1="665.75" x2="735.9" y2="672.67"/><polygon class="cls-21" points="698.62 462.66 691.95 441.74 706.74 425.5 728.18 430.19 734.85 451.11 720.07 467.35 698.62 462.66"/><line class="cls-21" x1="697.32" y1="444.02" x2="702.04" y2="459.25"/><line class="cls-21" x1="708.89" y1="429.72" x2="724.47" y2="433.12"/><polygon class="cls-21" points="726.74 488.27 720.07 467.35 734.85 451.11 756.31 455.8 762.97 476.73 748.19 492.96 726.74 488.27"/><line class="cls-21" x1="762.97" y1="476.73" x2="778.63" y2="479.7"/><line class="cls-21" x1="717.96" y1="496.37" x2="726.27" y2="487.24"/><line class="cls-21" x1="719.51" y1="497.78" x2="727.82" y2="488.65"/><line class="cls-21" x1="729.91" y1="450.79" x2="718.82" y2="462.97"/><polygon class="cls-21" points="785.01 500.94 778.34 480.02 793.12 463.78 814.57 468.48 821.24 489.39 806.45 505.63 785.01 500.94"/><line class="cls-21" x1="783.7" y1="482.3" x2="788.43" y2="497.53"/><line class="cls-21" x1="795.28" y1="468" x2="810.85" y2="471.4"/><line class="cls-21" x1="816.29" y1="489.07" x2="805.2" y2="501.26"/><line class="cls-21" x1="758.31" y1="476.64" x2="747.22" y2="488.83"/></g><g id="Layer_40" data-name="Layer 40"><path class="cls-22" d="M900.33,503.06,970.24,535c11.68,5.34,24.81,1.63,29.33-8.27s-1.28-22.25-13-27.59l-69.9-31.92c-11.68-5.34-24.81-1.63-29.33,8.27S888.65,497.72,900.33,503.06Z"/><path class="cls-23" d="M1109,570.82s6.71-14.69-26.33-29.73a27.42,27.42,0,0,0-27.79,2.89s-15.34,12.39-37.57,1.45c-27.89-13.74-23.63-24.95-23.63-24.95"/><path class="cls-23" d="M1091.68,568.24c-20.29-3.07-22.67-23.33-22.67-23.33s1.7-18.74-32.59-30.39c-31.83-10.82-43.63-1-43.63-1"/><path class="cls-23" d="M991,528.3a48.7,48.7,0,0,1,33.17,3.22s18.28,9.07,16.4,22.91c-1.91,14.16,12.51,18.07,17.75,20.75,0,0,13.86,6,28,3.26"/><path class="cls-23" d="M985.32,517.53c-1.49,25,12.2,33.31,12.2,33.31s16,11.49,33.2-3.62c17.56-15.45,26.06-3.33,30.76-.13,0,0,11,9.55,11,27.63"/><path class="cls-22" d="M935.32,613.81l69.48,15.33c11.6,2.56,19.25,12.61,17.08,22.46s-13.34,15.74-25,13.18l-69.48-15.33c-11.6-2.56-19.25-12.61-17.08-22.45S923.71,611.25,935.32,613.81Z"/><path class="cls-24" d="M1127.36,679.92s-3.22,14.59-36,7.31a25.38,25.38,0,0,1-18.94-17.61s-4.44-17.71-27-22c-28.28-5.37-31.38,5.29-31.38,5.29"/><path class="cls-24" d="M1113.13,672.19c-16.71-9-29.76,4.63-29.76,4.63s-9.18,14.8-41,4.32c-29.56-9.73-32.85-23.52-32.85-23.52"/><path class="cls-24" d="M1016.41,645.64a45.13,45.13,0,0,0,26.33,16.09s18.57,3.48,24.89-7.81c6.47-11.53,19.31-6.39,24.68-5.46,0,0,13.58,3.3,22.53,13.19"/><path class="cls-24" d="M1006.23,650.45c12.84-19.35,27.58-17.84,27.58-17.84s18.24.43,22.53,21.17c4.38,21.21,17.42,17,22.68,17.23,0,0,13.46-.94,23.51-14.31"/></g></g></g></svg>