<svg xmlns="http://www.w3.org/2000/svg" viewBox="0 0 1110 997.53"><defs><style>.cls-1{font-size:31px;}.cls-1,.cls-20,.cls-32,.cls-40,.cls-47{fill:#5c5052;}.cls-1,.cls-20,.cls-34,.cls-40{font-family:Acre-Light, Acre;font-weight:300;}.cls-2{letter-spacing:-0.02em;}.cls-3{letter-spacing:-0.01em;}.cls-4{letter-spacing:0em;}.cls-5{letter-spacing:-0.03em;}.cls-6{letter-spacing:-0.02em;}.cls-7{letter-spacing:-0.03em;}.cls-8{letter-spacing:-0.01em;}.cls-9{letter-spacing:-0.02em;}.cls-10{letter-spacing:-0.03em;}.cls-11{letter-spacing:-0.02em;}.cls-12{letter-spacing:-0.02em;}.cls-13{letter-spacing:-0.01em;}.cls-14{letter-spacing:-0.01em;}.cls-15{letter-spacing:-0.02em;}.cls-16{letter-spacing:-0.03em;}.cls-17{letter-spacing:0em;}.cls-18{letter-spacing:0em;}.cls-19{letter-spacing:-0.02em;}.cls-20{font-size:34.48px;}.cls-21{letter-spacing:-0.02em;}.cls-22{letter-spacing:-0.01em;}.cls-23,.cls-31{letter-spacing:0em;}.cls-24{letter-spacing:-0.03em;}.cls-25{letter-spacing:0.01em;}.cls-26,.cls-29{letter-spacing:-0.01em;}.cls-27,.cls-28,.cls-29,.cls-30,.cls-31{font-family:Acre-Bold, Acre;font-weight:700;}.cls-28{letter-spacing:0em;}.cls-30{letter-spacing:-0.03em;}.cls-32{font-size:27.41px;font-family:Acre-Semibold, Acre;font-weight:600;}.cls-33,.cls-34{fill:#3da9a0;}.cls-34{font-size:40px;}.cls-35{letter-spacing:-0.02em;}.cls-36{letter-spacing:-0.02em;}.cls-37{letter-spacing:-0.03em;}.cls-38{letter-spacing:-0.01em;}.cls-39{letter-spacing:-0.03em;}.cls-40{font-size:28px;}.cls-41{letter-spacing:-0.02em;}.cls-42{font-size:30px;}.cls-43{letter-spacing:-0.01em;}.cls-44{fill:#fff;}.cls-45{fill:#eb6a7c;}.cls-46,.cls-48{fill:none;stroke-miterlimit:10;}.cls-46{stroke:#3da9a0;stroke-width:2.5px;}.cls-48{stroke:#5c5052;stroke-width:0.9px;}</style></defs><g id="Layer_2" data-name="Layer 2"><g id="Layer_1-2" data-name="Layer 1"><text/><text class="cls-1" transform="translate(20.36 457.16)">p<tspan class="cls-2" x="19.1" y="0">r</tspan><tspan class="cls-3" x="27.9" y="0">o</tspan><tspan class="cls-2" x="46.16" y="0">t</tspan><tspan class="cls-4" x="54.13" y="0">o</tspan><tspan class="cls-5" x="72.63" y="0">z</tspan><tspan x="85.53" y="0">oa a</tspan><tspan class="cls-2" x="153.14" y="0">r</tspan><tspan x="161.94" y="0">e on a </tspan><tspan class="cls-6" x="267" y="0">s</tspan><tspan x="279.12" y="0">trict di</tspan><tspan class="cls-3" x="367.46" y="0">e</tspan><tspan class="cls-7" x="384.58" y="0">t</tspan><tspan x="392.3" y="0">, g</tspan><tspan class="cls-2" x="427.26" y="0">r</tspan><tspan x="436.07" y="0">azi</tspan><tspan class="cls-8" x="476.8" y="0">n</tspan><tspan x="494" y="0">g </tspan><tspan class="cls-9" x="523.82" y="0">m</tspan><tspan class="cls-4" x="550.45" y="0">o</tspan><tspan class="cls-6" x="568.96" y="0">s</tspan><tspan x="581.08" y="0">t</tspan><tspan class="cls-4" x="589.67" y="0">l</tspan><tspan class="cls-10" x="596.52" y="0">y</tspan><tspan x="611.06" y="0" xml:space="preserve"> on bac</tspan><tspan class="cls-2" x="723.4" y="0">t</tspan><tspan x="731.37" y="0">eria. </tspan><tspan class="cls-11" x="800.78" y="0">f</tspan><tspan x="808.74" y="0">or </tspan><tspan class="cls-9" x="847.52" y="0">ev</tspan><tspan x="879.67" y="0">er</tspan><tspan class="cls-12" x="906.61" y="0">y</tspan><tspan x="921.15" y="0" xml:space="preserve"> 10 uni</tspan><tspan class="cls-13" x="1011.95" y="0">t</tspan><tspan x="1020.22" y="0">s </tspan><tspan class="cls-14" x="1043.57" y="0">o</tspan><tspan x="1061.82" y="0">f </tspan><tspan x="-5.52" y="49.26">carbon, bac</tspan><tspan class="cls-2" x="165.32" y="49.26">t</tspan><tspan x="173.28" y="49.26">eria con</tspan><tspan class="cls-15" x="290.52" y="49.26">t</tspan><tspan x="298.49" y="49.26">ain 3 uni</tspan><tspan class="cls-13" x="424.72" y="49.26">t</tspan><tspan x="433" y="49.26">s </tspan><tspan class="cls-14" x="456.34" y="49.26">o</tspan><tspan x="474.6" y="49.26">f nit</tspan><tspan class="cls-2" x="527.92" y="49.26">r</tspan><tspan x="536.72" y="49.26">ogen, but p</tspan><tspan class="cls-2" x="700.71" y="49.26">r</tspan><tspan class="cls-14" x="709.51" y="49.26">o</tspan><tspan class="cls-2" x="727.77" y="49.26">t</tspan><tspan class="cls-4" x="735.74" y="49.26">o</tspan><tspan class="cls-16" x="754.25" y="49.26">z</tspan><tspan x="767.14" y="49.26">oa can on</tspan><tspan class="cls-4" x="915.82" y="49.26">l</tspan><tspan class="cls-10" x="922.67" y="49.26">y</tspan><tspan x="937.21" y="49.26" xml:space="preserve"> put 1 unit </tspan><tspan class="cls-2" x="126.49" y="98.53">t</tspan><tspan x="134.45" y="98.53">o u</tspan><tspan class="cls-17" x="181.48" y="98.53">s</tspan><tspan class="cls-18" x="194.03" y="98.53">e</tspan><tspan x="211.39" y="98.53">. t</tspan><tspan class="cls-8" x="235.54" y="98.53">h</tspan><tspan x="252.78" y="98.53">e </tspan><tspan class="cls-2" x="280.99" y="98.53">r</tspan><tspan class="cls-4" x="289.79" y="98.53">e</tspan><tspan class="cls-6" x="307.15" y="98.53">s</tspan><tspan x="319.27" y="98.53">t is </tspan><tspan class="cls-18" x="369.68" y="98.53">e</tspan><tspan class="cls-16" x="387.03" y="98.53">x</tspan><tspan x="401.2" y="98.53">c</tspan><tspan class="cls-2" x="417.57" y="98.53">r</tspan><tspan class="cls-14" x="426.37" y="98.53">e</tspan><tspan class="cls-15" x="443.49" y="98.53">t</tspan><tspan x="451.45" y="98.53">ed in a plan</tspan><tspan class="cls-19" x="627.65" y="98.53">t-</tspan><tspan x="647.81" y="98.53">a</tspan><tspan class="cls-9" x="666.93" y="98.53">v</tspan><tspan x="682.03" y="98.53">ailable </tspan><tspan class="cls-2" x="789.41" y="98.53">f</tspan><tspan x="797.38" y="98.53">orm (NH4</tspan></text><text class="cls-1" transform="translate(942.41 545.36) scale(0.58 0.58)">+</text><text class="cls-1" transform="translate(950.96 555.69)">).</text><text class="cls-20" transform="translate(191.13 969.89)">p<tspan class="cls-21" x="21.24" y="0">r</tspan><tspan class="cls-22" x="31.04" y="0">o</tspan><tspan class="cls-21" x="51.35" y="0">t</tspan><tspan class="cls-23" x="60.21" y="0">o</tspan><tspan class="cls-24" x="80.8" y="0">z</tspan><tspan x="95.14" y="0">oa co</tspan><tspan class="cls-25" x="188.04" y="0">n</tspan><tspan x="207.94" y="0">su</tspan><tspan class="cls-26" x="241.66" y="0">m</tspan><tspan x="271.28" y="0">e up </tspan><tspan class="cls-21" x="355.46" y="0">t</tspan><tspan x="364.32" y="0">o </tspan><tspan class="cls-27" x="396.97" y="0">1</tspan><tspan class="cls-28" x="409.59" y="0">0,</tspan><tspan class="cls-27" x="436.32" y="0">000 bac</tspan><tspan class="cls-29" x="564.46" y="0">t</tspan><tspan class="cls-27" x="575.84" y="0">eria</tspan><tspan class="cls-30" x="639.11" y="0">/</tspan><tspan class="cls-27" x="650.74" y="0">da</tspan><tspan class="cls-31" x="693.15" y="0">y</tspan><tspan class="cls-27" x="711.88" y="0">:</tspan></text><text class="cls-32" transform="translate(171.75 824.23)">C:N<tspan x="-1.45" y="32.89">10:3</tspan></text><text class="cls-32" transform="translate(361.59 839.34)">C:N<tspan x="1.48" y="32.89">10:1</tspan></text><path class="cls-33" d="M583.24,219.42s17.64-15.78,14.86-25.07c-3.82-12.75-21.65-9.13-21.65-9.13s-17.83,7-17-17.64c.71-20.63-13.58-17.85-13.58-17.85s-8.69-1.21-11.46,9.35c-5.57,21.19-21.23,12.75-21.23,12.75-15.54-7.33-23.77,2.55-23.77,2.55-13.16,18.7,9.77,34.84,9.77,34.84,12.73,11.05.84,16.15.84,16.15s-12.3,5.95-4.24,24.64,24.62,0,24.62,0c21.22-16.14,39.47,3,39.47,3s19.94,22.83,30.57,14.44c14-11-4.67-31.44-4.67-31.44C573.9,225.37,583.24,219.42,583.24,219.42Zm-32.8-.34c-6.74,3.79-14.63,2.55-17.62-2.77s.07-12.7,6.81-16.5,14.64-2.55,17.62,2.77S557.19,215.29,550.44,219.08Z"/><text class="cls-34" transform="translate(438.29 324.87)">t<tspan class="cls-35" x="11.08" y="0">h</tspan><tspan x="33.32" y="0">e g</tspan><tspan class="cls-36" x="94.4" y="0">r</tspan><tspan x="105.76" y="0">a</tspan><tspan class="cls-37" x="130.44" y="0">z</tspan><tspan x="147.08" y="0">e</tspan><tspan class="cls-38" x="169.68" y="0">r</tspan><tspan x="181.44" y="0">s:</tspan><tspan class="cls-27"><tspan x="22.32" y="45.71">p</tspan><tspan class="cls-35" x="46.92" y="45.71">rot</tspan><tspan class="cls-39" x="96.8" y="45.71">o</tspan><tspan class="cls-37" x="119.36" y="45.71">z</tspan><tspan x="136.92" y="45.71">oa</tspan></tspan></text><text class="cls-40" transform="translate(624.56 160.71)">1/5000 <tspan class="cls-41" x="87.25" y="0">t</tspan><tspan x="94.44" y="0">o</tspan><tspan class="cls-42"><tspan x="0" y="36">1/50 i</tspan><tspan class="cls-43" x="68.67" y="36">n</tspan><tspan x="85.32" y="36">ch</tspan></tspan></text><path class="cls-33" d="M452.93,758.28s21.28-19,17.92-30.23c-4.61-15.38-26.11-11-26.11-11s-21.5,8.45-20.48-21.27c.86-24.88-16.38-21.53-16.38-21.53s-10.48-1.47-13.83,11.28c-6.71,25.56-25.59,15.37-25.59,15.37C349.7,692,339.78,704,339.78,704c-15.87,22.55,11.78,42,11.78,42,15.36,13.33,1,19.48,1,19.48s-14.84,7.18-5.12,29.73,29.7,0,29.7,0c25.6-19.48,47.61,3.58,47.61,3.58s24,27.54,36.87,17.43c16.89-13.33-5.63-37.93-5.63-37.93C441.67,765.46,452.93,758.28,452.93,758.28Zm-39.56-.41c-8.13,4.58-17.65,3.09-21.25-3.33s.08-15.33,8.21-19.9S418,731.56,421.58,738,421.51,753.3,413.37,757.87Z"/><path class="cls-44" d="M369.26,777.25v20h-2.2l-10.41-11.88V797h-4.14v-20h2.2l10.43,12.19v-12Z"/><path class="cls-44" d="M342.65,714.48a9.9,9.9,0,0,1,10.2-10.22,10.25,10.25,0,0,1,4.48,1l0,4.55a6.82,6.82,0,0,0-4.4-1.41,6.12,6.12,0,0,0,0,12.24,6.65,6.65,0,0,0,4.4-1.41l0,4.58a10.69,10.69,0,0,1-4.48.93A9.9,9.9,0,0,1,342.65,714.48Z"/><path class="cls-44" d="M361.9,743.26a9.89,9.89,0,0,1,10.2-10.21,10.3,10.3,0,0,1,4.49,1l0,4.54a6.79,6.79,0,0,0-4.39-1.41,6.13,6.13,0,0,0,0,12.25,6.68,6.68,0,0,0,4.39-1.41l0,4.57a10.74,10.74,0,0,1-4.49.93A9.9,9.9,0,0,1,361.9,743.26Z"/><path class="cls-44" d="M398.53,691.28a9.91,9.91,0,0,1,10.21-10.22,10.28,10.28,0,0,1,4.48,1l0,4.54a6.87,6.87,0,0,0-4.4-1.41,6.13,6.13,0,0,0,0,12.25,6.65,6.65,0,0,0,4.4-1.41l0,4.57a10.73,10.73,0,0,1-4.48.93A9.9,9.9,0,0,1,398.53,691.28Z"/><path class="cls-44" d="M443.53,733.05a9.91,9.91,0,0,1,10.21-10.22,10.28,10.28,0,0,1,4.48,1l0,4.54a6.82,6.82,0,0,0-4.4-1.41,6.13,6.13,0,0,0,0,12.25,6.65,6.65,0,0,0,4.4-1.41l0,4.57a10.73,10.73,0,0,1-4.48.93A9.9,9.9,0,0,1,443.53,733.05Z"/><path class="cls-44" d="M440.3,797.26a9.89,9.89,0,0,1,10.2-10.21,10.16,10.16,0,0,1,4.49,1l0,4.54a6.79,6.79,0,0,0-4.39-1.41,6.13,6.13,0,0,0,0,12.25A6.68,6.68,0,0,0,455,802l0,4.57a10.74,10.74,0,0,1-4.49.93A9.9,9.9,0,0,1,440.3,797.26Z"/><path class="cls-44" d="M428.82,754.29A9.9,9.9,0,0,1,439,744.07a10.25,10.25,0,0,1,4.48,1l0,4.54a6.79,6.79,0,0,0-4.39-1.41,6.13,6.13,0,0,0,0,12.25,6.62,6.62,0,0,0,4.39-1.41l0,4.57a10.69,10.69,0,0,1-4.48.93A9.89,9.89,0,0,1,428.82,754.29Z"/><path class="cls-44" d="M377.3,773.58a9.91,9.91,0,0,1,10.21-10.22,10.28,10.28,0,0,1,4.48,1l0,4.55a6.82,6.82,0,0,0-4.4-1.42,6.13,6.13,0,0,0,0,12.25,6.65,6.65,0,0,0,4.4-1.41l0,4.57a10.57,10.57,0,0,1-4.48.93A9.9,9.9,0,0,1,377.3,773.58Z"/><path class="cls-44" d="M376.61,716.66a9.91,9.91,0,0,1,10.21-10.22,10.28,10.28,0,0,1,4.48,1l0,4.55a6.82,6.82,0,0,0-4.4-1.41,6.12,6.12,0,0,0,0,12.24,6.65,6.65,0,0,0,4.4-1.41l0,4.58a10.73,10.73,0,0,1-4.48.93A9.91,9.91,0,0,1,376.61,716.66Z"/><path class="cls-44" d="M407.49,719.53a9.9,9.9,0,0,1,10.2-10.22,10.3,10.3,0,0,1,4.49,1l0,4.55a6.79,6.79,0,0,0-4.39-1.41,6.12,6.12,0,0,0,0,12.24,6.62,6.62,0,0,0,4.39-1.41l0,4.57a10.59,10.59,0,0,1-4.49.94A9.9,9.9,0,0,1,407.49,719.53Z"/><path class="cls-44" d="M407.49,775.12a9.9,9.9,0,0,1,10.2-10.22,10.3,10.3,0,0,1,4.49,1l0,4.55a6.79,6.79,0,0,0-4.39-1.41,6.12,6.12,0,0,0,0,12.24,6.62,6.62,0,0,0,4.39-1.41l0,4.57a10.59,10.59,0,0,1-4.49.94A9.9,9.9,0,0,1,407.49,775.12Z"/><path class="cls-45" d="M116.73,749.12a30.9,30.9,0,1,0,14.07,60.09S194,794.64,257.53,746.83l-.13-.15A29.72,29.72,0,0,0,260,744.4,30.88,30.88,0,0,0,217.14,700S188.92,729,116.73,749.12Z"/><path class="cls-44" d="M118.42,772.12v20h-2.2l-10.4-11.88v11.63h-4.15v-20h2.2l10.43,12.2v-12Z"/><path class="cls-44" d="M138.93,753.57v20h-2.2L126.32,761.7v11.62h-4.14v-20h2.2l10.43,12.19v-12Z"/><path class="cls-44" d="M145.85,780.77v20h-2.2l-10.4-11.88v11.63H129.1V780.57h2.2l10.43,12.19v-12Z"/><path class="cls-44" d="M227.13,706.45a9.89,9.89,0,0,1,10.2-10.22,10.3,10.3,0,0,1,4.49,1l0,4.54a6.79,6.79,0,0,0-4.39-1.41,6.13,6.13,0,0,0,0,12.25,6.68,6.68,0,0,0,4.39-1.41l0,4.57a10.74,10.74,0,0,1-4.49.93A9.89,9.89,0,0,1,227.13,706.45Z"/><path class="cls-44" d="M246.35,726.88a9.91,9.91,0,0,1,10.21-10.22,10.28,10.28,0,0,1,4.48,1l0,4.54a6.87,6.87,0,0,0-4.4-1.41,6.13,6.13,0,0,0,0,12.25,6.65,6.65,0,0,0,4.4-1.41l0,4.57a10.73,10.73,0,0,1-4.48.93A9.9,9.9,0,0,1,246.35,726.88Z"/><path class="cls-44" d="M224.31,743a9.9,9.9,0,0,1,10.21-10.21,10.28,10.28,0,0,1,4.48,1l0,4.54a6.84,6.84,0,0,0-4.4-1.41,6.13,6.13,0,0,0,0,12.25,6.72,6.72,0,0,0,4.4-1.41l0,4.57a10.73,10.73,0,0,1-4.48.93A9.91,9.91,0,0,1,224.31,743Z"/><path class="cls-44" d="M207.54,719.53a9.91,9.91,0,0,1,10.21-10.22,10.28,10.28,0,0,1,4.48,1l0,4.55a6.82,6.82,0,0,0-4.4-1.41,6.12,6.12,0,0,0,0,12.24,6.65,6.65,0,0,0,4.4-1.41l0,4.57a10.57,10.57,0,0,1-4.48.93A9.9,9.9,0,0,1,207.54,719.53Z"/><path class="cls-44" d="M186.78,732.11A9.91,9.91,0,0,1,197,721.89a10.28,10.28,0,0,1,4.48,1l0,4.54a6.87,6.87,0,0,0-4.4-1.41,6.13,6.13,0,0,0,0,12.25,6.65,6.65,0,0,0,4.4-1.41l0,4.57a10.73,10.73,0,0,1-4.48.93A9.9,9.9,0,0,1,186.78,732.11Z"/><path class="cls-44" d="M166.18,743.26a9.89,9.89,0,0,1,10.2-10.21,10.08,10.08,0,0,1,4.48,1l0,4.54a6.8,6.8,0,0,0-4.4-1.41,6.13,6.13,0,0,0,0,12.25,6.69,6.69,0,0,0,4.4-1.41l0,4.57a10.66,10.66,0,0,1-4.48.93A9.9,9.9,0,0,1,166.18,743.26Z"/><path class="cls-44" d="M145,754.29a9.91,9.91,0,0,1,10.21-10.22,10.28,10.28,0,0,1,4.48,1l0,4.54a6.87,6.87,0,0,0-4.4-1.41,6.13,6.13,0,0,0,0,12.25,6.65,6.65,0,0,0,4.4-1.41l0,4.57a10.73,10.73,0,0,1-4.48.93A9.9,9.9,0,0,1,145,754.29Z"/><path class="cls-44" d="M202,756.05a9.91,9.91,0,0,1,10.21-10.22,10.28,10.28,0,0,1,4.48,1l0,4.54a6.89,6.89,0,0,0-4.4-1.41,6.13,6.13,0,0,0,0,12.25,6.67,6.67,0,0,0,4.4-1.41l0,4.57a10.73,10.73,0,0,1-4.48.93A9.9,9.9,0,0,1,202,756.05Z"/><path class="cls-44" d="M179.94,769.13a9.89,9.89,0,0,1,10.2-10.21,10.22,10.22,0,0,1,4.48,1l0,4.54a6.8,6.8,0,0,0-4.4-1.41,6.13,6.13,0,0,0,0,12.25,6.69,6.69,0,0,0,4.4-1.41l0,4.57a10.66,10.66,0,0,1-4.48.93A9.9,9.9,0,0,1,179.94,769.13Z"/><path class="cls-44" d="M157.9,779.91a9.9,9.9,0,0,1,10.2-10.22,10.3,10.3,0,0,1,4.49,1l0,4.54a6.84,6.84,0,0,0-4.39-1.41,6.13,6.13,0,0,0,0,12.25,6.62,6.62,0,0,0,4.39-1.41l0,4.57a10.74,10.74,0,0,1-4.49.93A9.89,9.89,0,0,1,157.9,779.91Z"/><path class="cls-33" d="M556.4,839.76l9.07,27.47-3,1-19.67-11.59,5.27,16-5.69,1.88-9-27.4,3-1,19.85,12-5.44-16.47Z"/><path class="cls-33" d="M583.46,830.81l8.95,27.13-5.69,1.88L583.15,849l-10.33,3.42,3.56,10.81-5.69,1.88-9-27.13,5.69-1.88L571,846.92l10.34-3.41-3.57-10.82Z"/><path class="cls-33" d="M609.13,855.91l-1.54.51.85,2.56-3.16,1-.85-2.55-6.38,2.11-.86-2.6,2.19-12.55,3.84-1.27,3.4,10.3,1.53-.51Zm-5.67-1.4-2.05-6.19-.91,7.16Z"/><path class="cls-33" d="M609,827.43l-3.09,1,1,3.14-2.55.84-1-3.14-3,1-.82-2.48,3-1-1-3,2.55-.85,1,3.05,3.1-1Z"/><path class="cls-46" d="M239,780.57s37.35,20.87,78.43,3.44"/><polygon class="cls-33" points="315.29 795.27 314.61 785.22 306.9 778.73 330.7 777.05 315.29 795.27"/><path class="cls-46" d="M471.21,769.69s55.32-5.21,77.89,35"/><polygon class="cls-33" points="537.49 802.11 547.56 801.94 554.44 794.58 554.89 818.43 537.49 802.11"/><path class="cls-47" d="M815.48,588.24c-.17,4.71,0,9.43,1.4,13.49a19,19,0,0,0,7.83,9.91c3.76,2.63,8.26,4.83,12.64,7.33,2.2,1.25,4.39,2.55,6.53,3.94,1.08.69,2.14,1.41,3.19,2.14l3.06,2.24A229.94,229.94,0,0,1,873,646.94c7.19,6.95,14.1,14.11,21.18,21,3.54,3.49,7.14,6.83,10.81,10.22A123.5,123.5,0,0,1,915.5,689a56.9,56.9,0,0,1,8.33,12.71A50.23,50.23,0,0,1,928,716.3a73,73,0,0,1,.6,7.52l0,3.76c0,.64-.06,1.29-.12,1.93s-.15,1.27-.29,1.9c-.93,5-3.27,9.52-3.67,14.39a14.92,14.92,0,0,0,1.11,7.11,20.32,20.32,0,0,0,4.22,6c1.7,1.8,3.55,3.47,5.27,5.28a23.44,23.44,0,0,1,4.37,6,23.42,23.42,0,0,0-4.53-5.86c-1.76-1.74-3.66-3.35-5.43-5.12a20.72,20.72,0,0,1-4.51-6,15.61,15.61,0,0,1-1.39-7.44c.28-5.13,2.52-9.78,3.24-14.57.12-.6.14-1.2.21-1.8s0-1.2.06-1.8l-.14-3.69a71.23,71.23,0,0,0-.81-7.32,48.28,48.28,0,0,0-4.38-13.89,54.8,54.8,0,0,0-8.33-11.92,123.51,123.51,0,0,0-10.6-10.23c-3.74-3.25-7.53-6.56-11.18-10-7.34-6.76-14.46-13.71-21.78-20.37A226.07,226.07,0,0,0,847,631.64a105.4,105.4,0,0,0-12.45-7.57c-4.32-2.31-8.87-4.32-13.37-7.25a29.4,29.4,0,0,1-6.31-5.42,23.94,23.94,0,0,1-4.31-7.41c-2-5.35-2.26-10.76-2.24-16a3.58,3.58,0,0,1,7.15,0v.18Z"/><path class="cls-47" d="M809.6,590.46c1.54,6.7,3.69,13.3,5.81,20s4.25,13.58,5.14,20.84a49.8,49.8,0,0,1-2,21.78c-.59,1.74-1.33,3.42-2,5.12s-1.64,3.24-2.47,4.86c-1.74,3.11-3.58,6.11-5.37,9.11-3.59,6-7,12-9.28,18.44a49.3,49.3,0,0,0-2.38,9.85,50.07,50.07,0,0,0-.22,10.18,85.33,85.33,0,0,1,.4,10.71,30,30,0,0,1-2.67,10.7,48.23,48.23,0,0,1-13.48,16.78,106.82,106.82,0,0,1-17.86,11.56c-6.21,3.33-12.57,6.39-19,9.23s-12.91,5.53-19.2,8.57a108.24,108.24,0,0,0-17.94,10.69,93.58,93.58,0,0,0-15.16,14.35,136,136,0,0,0-12.36,17,84.28,84.28,0,0,0-8.88,19,42,42,0,0,0-1.83,10.31,24.29,24.29,0,0,0,1.74,10.28,24.15,24.15,0,0,1-1.9-10.29,42.06,42.06,0,0,1,1.67-10.39A84.23,84.23,0,0,1,679,819.84a135.25,135.25,0,0,1,12.16-17.24,94.39,94.39,0,0,1,15.12-14.78,109.38,109.38,0,0,1,18-11.12c6.3-3.18,12.76-6,19.12-8.9s12.61-6.06,18.72-9.46a104.54,104.54,0,0,0,17.26-11.55,45.39,45.39,0,0,0,12.44-15.95,26.68,26.68,0,0,0,2.25-9.65,81.2,81.2,0,0,0-.57-10.3,53.83,53.83,0,0,1,.07-10.84A53.22,53.22,0,0,1,796,689.43c2.29-6.89,5.79-13.19,9.3-19.28,1.75-3,3.54-6.07,5.17-9.11.74-1.52,1.52-3,2.23-4.56s1.24-3.13,1.75-4.72a45.2,45.2,0,0,0,1.47-19.83c-.92-6.69-3.08-13.28-5.26-19.91s-4.53-13.36-6.25-20.32a2.68,2.68,0,1,1,5.21-1.29Z"/><path class="cls-47" d="M809.54,591.71a34.47,34.47,0,0,1,1.16,15.61,47.44,47.44,0,0,1-4.88,14.54,30.61,30.61,0,0,1-4.36,6.55,16.73,16.73,0,0,1-6.78,4.79,18.72,18.72,0,0,1-8.12.89,60.84,60.84,0,0,1-7.45-1.29c-4.77-1.06-9.38-2.06-14-2a30.12,30.12,0,0,0-6.82.86,32.1,32.1,0,0,0-3.3,1l-3.36,1.3c-9,3.62-17.7,7.92-26.61,11.91s-18,7.79-27.53,10.26a71.78,71.78,0,0,1-14.59,2.3,47.25,47.25,0,0,1-14.69-1.52,41.84,41.84,0,0,1-13.29-6.37,55.08,55.08,0,0,1-10.59-10.15q-2.3-2.86-4.41-5.84c-.72-1-1.42-2-2.18-2.92a9.2,9.2,0,0,0-2.64-2.38,8.23,8.23,0,0,0-1.65-.69,17.86,17.86,0,0,0-1.77-.35c-1.2-.17-2.42-.23-3.63-.29-2.43-.1-4.87-.12-7.3-.16,2.43,0,4.87,0,7.3,0,1.22,0,2.44.07,3.66.22a16.48,16.48,0,0,1,1.82.31,9.1,9.1,0,0,1,1.73.67,9.69,9.69,0,0,1,2.8,2.41c.79.94,1.52,1.92,2.26,2.89,1.46,1.94,3,3.85,4.52,5.71a54.17,54.17,0,0,0,10.66,9.75,40.5,40.5,0,0,0,13,5.9,45.57,45.57,0,0,0,14.26,1.15A70.43,70.43,0,0,0,697,654.2c9.28-2.62,18.16-6.58,26.92-10.74s17.42-8.68,26.45-12.57l3.42-1.42a35.4,35.4,0,0,1,3.65-1.2,33.91,33.91,0,0,1,7.62-1.14c5.14-.2,10.16.79,14.9,1.73s9.44,1.78,13.22.26,6.5-5.25,8.48-9.37a42.58,42.58,0,0,0,4.1-13.12,29.37,29.37,0,0,0-1.28-13.25,2.68,2.68,0,0,1,5.08-1.73Z"/><path class="cls-47" d="M819,649.56a68.88,68.88,0,0,1-5.84,8.77c-2.07,2.73-4.18,5.35-6.16,8a63,63,0,0,0-5.29,8.19,26,26,0,0,0-2.94,8.84,20.8,20.8,0,0,0,.85,9.14,26.85,26.85,0,0,0,4.62,8.24c4,5.09,9.31,9.38,14.11,14.25a83.43,83.43,0,0,1,12.84,16,49.58,49.58,0,0,1,4.29,9.37,51.56,51.56,0,0,1,2.25,10,78.22,78.22,0,0,1-.25,20.34c-.41,3.35-.87,6.69-1,10a31.57,31.57,0,0,0,1.23,10,31.58,31.58,0,0,1-1.57-10c0-3.39.31-6.77.6-10.13a76.5,76.5,0,0,0-.42-20.06,50.43,50.43,0,0,0-2.51-9.64,48.37,48.37,0,0,0-4.44-8.87,80.69,80.69,0,0,0-13-15.09c-4.82-4.58-10.27-8.68-14.84-14a30.26,30.26,0,0,1-5.53-9.16,24.92,24.92,0,0,1-1.39-10.82,30.3,30.3,0,0,1,3.08-10.39,66.41,66.41,0,0,1,5.41-9c3.9-5.63,8.25-10.85,11.08-16.47v0a2.68,2.68,0,1,1,4.79,2.42Z"/><path class="cls-47" d="M821.5,610.56a88.37,88.37,0,0,1,12.41,5.54c4,2.12,7.79,4.42,11.54,6.82,7.48,4.8,14.65,10,21.72,15.24L877.75,646c1.77,1.28,3.54,2.56,5.32,3.77a45,45,0,0,0,5.32,3.23,8.6,8.6,0,0,0,1.15.45l.19,0,.33,0c.24,0,.46.07.7.09a19.17,19.17,0,0,0,2.94,0,42.52,42.52,0,0,0,6.18-1c4.19-.93,8.4-2.22,12.79-3.21a50.93,50.93,0,0,1,6.74-1.1,21.46,21.46,0,0,1,7.11.44,13.51,13.51,0,0,1,6.38,3.6,23.1,23.1,0,0,1,4.09,5.68,129,129,0,0,1,5.27,12.24c1.66,4,3.44,8,6.3,11.07a31.36,31.36,0,0,0,10.66,7,50.3,50.3,0,0,0,12.63,3.09c8.69,1.08,17.52.7,26.31.86-8.79.14-17.58.85-26.41.07a51.45,51.45,0,0,1-13-2.72,32.72,32.72,0,0,1-11.48-7,25.2,25.2,0,0,1-4.11-5.47,65.64,65.64,0,0,1-3-6c-1.83-4-3.43-8.12-5.57-11.79a20.73,20.73,0,0,0-3.74-4.86,10.44,10.44,0,0,0-5.05-2.63c-3.84-.78-8.1,0-12.23,1.12s-8.31,2.52-12.68,3.66a47,47,0,0,1-6.8,1.3,25.81,25.81,0,0,1-3.64.09l-.94-.09L889,658c-.2,0-.43-.08-.62-.13a11.75,11.75,0,0,1-1.92-.71,50.29,50.29,0,0,1-6-3.53c-1.86-1.25-3.68-2.53-5.47-3.81l-10.69-7.77c-7.09-5.15-14.23-10.21-21.59-14.84-3.68-2.31-7.42-4.5-11.24-6.49a81.81,81.81,0,0,0-11.69-5.1h0a2.68,2.68,0,1,1,1.71-5.08Z"/><path class="cls-47" d="M890.8,664.76a145.72,145.72,0,0,1,14.1,16.36,77.07,77.07,0,0,1,10.45,19,40.89,40.89,0,0,1-1,32.14,58.21,58.21,0,0,1-5.45,9.41c-4.13,5.93-9.09,11.14-13.69,16.51a48.05,48.05,0,0,0-6.11,8.53,26.92,26.92,0,0,0-3,9.92,39.83,39.83,0,0,0,.44,10.5c.54,3.5,1.35,7,2,10.49a46.15,46.15,0,0,1,.87,10.68,27.86,27.86,0,0,1-.82,5.29,27.55,27.55,0,0,1-1.89,5,27.74,27.74,0,0,0,1.75-5,28.26,28.26,0,0,0,.67-5.27A45.78,45.78,0,0,0,888,797.78c-.72-3.47-1.62-6.92-2.26-10.45a41.23,41.23,0,0,1-.75-10.76,28.27,28.27,0,0,1,2.89-10.48,36.07,36.07,0,0,1,2.8-4.67c1.06-1.48,2.17-2.89,3.31-4.27,4.57-5.51,9.37-10.75,13.29-16.6a46.38,46.38,0,0,0,8-19.09,40.37,40.37,0,0,0-2.51-20.32A73.39,73.39,0,0,0,902.33,683a141.36,141.36,0,0,0-14.05-15.73h0a1.78,1.78,0,0,1,0-2.53,1.8,1.8,0,0,1,2.53,0Z"/><path class="cls-47" d="M903.92,677a100.37,100.37,0,0,1,12.13,21.89A69.77,69.77,0,0,1,921,723.49a92.17,92.17,0,0,1-3.43,24.74c-2,8-4.7,15.82-5.69,23.8a33.89,33.89,0,0,0,.46,11.85,29.51,29.51,0,0,0,5,10.67l.91,1.19.94,1.26c.65.84,1.2,1.74,1.78,2.62a49.2,49.2,0,0,1,2.94,5.56,56.42,56.42,0,0,1,3.72,11.92,78.43,78.43,0,0,1,.66,24.74,85.59,85.59,0,0,1-6.42,23.77,85.1,85.1,0,0,0,5.7-23.85,77.68,77.68,0,0,0-1.37-24.35,54.12,54.12,0,0,0-4-11.46,46.62,46.62,0,0,0-3-5.25c-.58-.82-1.12-1.66-1.76-2.43l-1.91-2.43a31.44,31.44,0,0,1-5.54-11.42,36,36,0,0,1-.66-12.66,89.29,89.29,0,0,1,2.39-12.27c1-4,2.12-8,3.09-11.93a89.5,89.5,0,0,0,3.06-24,66.6,66.6,0,0,0-5-23.45,97.18,97.18,0,0,0-12-21A1.79,1.79,0,0,1,903.9,677Z"/><path class="cls-47" d="M799.83,692c.94,4.21,3.26,8.29,5.73,12.28s5.21,8,7.58,12.28a52,52,0,0,1,5.54,13.68,36.78,36.78,0,0,1,.42,14.81,48.15,48.15,0,0,1-4.81,13.85,70.88,70.88,0,0,1-3.67,6.27c-1.3,2-2.56,4-3.76,6.06A61.07,61.07,0,0,0,801,784.15a26.72,26.72,0,0,0-1.18,7,16,16,0,0,0,1.32,7,16.2,16.2,0,0,1-1.71-7,27.58,27.58,0,0,1,.82-7.18,61.77,61.77,0,0,1,5.26-13.46c1.1-2.14,2.27-4.25,3.47-6.33s2.36-4.09,3.36-6.22a45.83,45.83,0,0,0,4.16-13.29,34,34,0,0,0-.81-13.65,49.24,49.24,0,0,0-5.61-12.65c-2.41-4-5.19-7.86-7.88-11.89s-5.36-8.28-6.71-13.41a2.24,2.24,0,0,1,4.33-1.14s0,.05,0,.07Z"/><path class="cls-47" d="M816.8,616.33a43.75,43.75,0,0,1,3.81,13.37,32.57,32.57,0,0,1-1.52,14.06,38.8,38.8,0,0,1-6.85,12,63,63,0,0,1-9.63,9.36,143.46,143.46,0,0,1-22.11,13.92c-7.62,4-15.4,7.69-22.91,11.65a86.49,86.49,0,0,0-10.76,6.56,98,98,0,0,0-9.69,8.14c-6.17,5.82-11.91,12.18-17.72,18.47a240.79,240.79,0,0,1-18.18,18.25c-6.45,5.64-13.67,10.67-21.84,13.35,8.07-3,15-8.21,21.23-14a238.27,238.27,0,0,0,17.42-18.78c5.59-6.49,11.11-13.07,17.18-19.22a101.83,101.83,0,0,1,9.68-8.73,89,89,0,0,1,10.92-7.19c7.5-4.29,15.12-8.18,22.49-12.43A138.1,138.1,0,0,0,799.18,661a57.7,57.7,0,0,0,8.48-8.8,32.75,32.75,0,0,0,5.46-10.35,26.27,26.27,0,0,0,.83-11.32,36.8,36.8,0,0,0-3.61-11.11l0,0a3.58,3.58,0,0,1,6.43-3.16A.37.37,0,0,0,816.8,616.33Z"/><path class="cls-47" d="M807.14,661a17.32,17.32,0,0,1-4.16,6.07,49.62,49.62,0,0,1-5,4.32c-3.4,2.63-6.93,4.94-10.49,7.17C780.41,683,773.11,687,766,691.2c-1.77,1-3.52,2.11-5.2,3.22-.84.55-1.67,1.11-2.43,1.69a12.53,12.53,0,0,0-1.91,1.68l-.11.15-.2.3-.38.59c-.27.39-.48.82-.72,1.23a24.38,24.38,0,0,0-1.23,2.58,29.15,29.15,0,0,0-1.63,5.56,49.77,49.77,0,0,0-.62,11.93c.2,4,.71,8.14,1.24,12.25s1.07,8.27,1.29,12.5a110.59,110.59,0,0,1-.19,12.62A77.61,77.61,0,0,1,752,770a57.11,57.11,0,0,1-4.31,11.89,55.75,55.75,0,0,1-7,10.47c-2.66,3.22-5.51,6.24-8.12,9.44a37.29,37.29,0,0,0-6.39,10.51,26,26,0,0,0-1.33,12.21,26.29,26.29,0,0,1,.94-12.35,37.87,37.87,0,0,1,6.12-10.89c2.53-3.32,5.28-6.43,7.8-9.71a54.28,54.28,0,0,0,6.47-10.41A56,56,0,0,0,750,769.52a77.6,77.6,0,0,0,1.44-12.17,111.48,111.48,0,0,0-.22-12.27c-.35-4.05-1-8.12-1.69-12.22s-1.33-8.24-1.69-12.47a54.29,54.29,0,0,1,.26-12.91,33.41,33.41,0,0,1,1.66-6.43,27.05,27.05,0,0,1,1.34-3.08c.26-.5.5-1,.8-1.49l.44-.72.22-.36.34-.48a16,16,0,0,1,2.69-2.5c.88-.68,1.77-1.3,2.66-1.9,1.77-1.19,3.55-2.3,5.34-3.4,7.15-4.34,14.35-8.42,21.26-12.86a121.78,121.78,0,0,0,10-7,46,46,0,0,0,4.38-3.9,12.51,12.51,0,0,0,2.86-4.1l0-.07a2.68,2.68,0,1,1,5.09,1.69Z"/><path class="cls-47" d="M808.16,592c.58,3,1.33,6.07,2.12,9.15s1.62,6.23,2.22,9.5a41,41,0,0,1,.75,10.14,27.26,27.26,0,0,1-2.7,10,31.35,31.35,0,0,1-2.61,4.46c-.5.7-1.05,1.34-1.58,2a20.32,20.32,0,0,1-1.65,1.92,49,49,0,0,1-7.5,6.61,59.06,59.06,0,0,1-8.47,5.12,82.9,82.9,0,0,1-9,3.88c-12.24,4.48-24.92,6.73-37.32,9.54-6.21,1.39-12.37,2.9-18.37,4.83-3,1-5.95,2.08-8.83,3.32a75.32,75.32,0,0,0-8.32,4.32,74.1,74.1,0,0,0-7.6,5.5c-2.4,2-4.7,4.18-6.9,6.44-4.38,4.56-8.38,9.5-12.43,14.45a129.11,129.11,0,0,1-13,14.23,46.76,46.76,0,0,1-16.52,10,44.88,44.88,0,0,1-9.48,2l-2.42.2c-.8,0-1.61,0-2.41.06-1.62.08-3.22-.08-4.83-.12-6.39-.42-12.72-1.35-19.07-1.62a44.45,44.45,0,0,0-4.76,0,25.36,25.36,0,0,0-4.68.65,17.42,17.42,0,0,0-4.4,1.69,14.5,14.5,0,0,0-3.64,3,17.48,17.48,0,0,0-2.63,3.94,30.12,30.12,0,0,0-1.78,4.41,56.16,56.16,0,0,0-1.89,9.37,55.67,55.67,0,0,1,1.73-9.41,29.06,29.06,0,0,1,1.72-4.49,17.41,17.41,0,0,1,2.6-4A14.49,14.49,0,0,1,598.2,730a17.4,17.4,0,0,1,4.48-1.81,25.89,25.89,0,0,1,4.77-.76,45.67,45.67,0,0,1,4.82-.1c6.41.16,12.75,1,19.11,1.28,1.58,0,3.17.15,4.74,0,.79,0,1.58,0,2.37-.1l2.35-.24a44.16,44.16,0,0,0,9.18-2.11,45.39,45.39,0,0,0,15.83-10A128.62,128.62,0,0,0,678.4,702c3.94-5,7.89-10.06,12.29-14.79,2.21-2.35,4.53-4.61,7-6.75a78.12,78.12,0,0,1,7.8-5.85,75,75,0,0,1,8.59-4.65c3-1.34,6-2.51,9-3.58,6.12-2.08,12.34-3.73,18.57-5.23,12.42-3,25-5.52,36.66-10a67.72,67.72,0,0,0,16.32-8.75,44.69,44.69,0,0,0,6.73-6.15,17.84,17.84,0,0,0,1.44-1.73c.45-.6.94-1.17,1.36-1.78a28.35,28.35,0,0,0,2.15-3.83,22.73,22.73,0,0,0,2.09-8.35,37,37,0,0,0-.83-8.89c-1.23-6-3.36-12.1-4.68-18.58a2.68,2.68,0,0,1,5.26-1.07v0Z"/><path class="cls-47" d="M735.74,641.32c-11.12,5.21-22.06,11.09-33,16.83-5.48,2.89-10.94,5.8-16.5,8.6-1.38.71-2.84,1.37-4.16,2s-2.68,1.43-4,2.2c-2.66,1.54-5.33,3.15-8.09,4.63a46.21,46.21,0,0,1-8.7,3.77,18.62,18.62,0,0,1-4.81.8,12.8,12.8,0,0,1-4.83-.95c-3-1.13-5.62-2.82-8.5-3.55a23.17,23.17,0,0,0-4.47-.52c-1.52-.06-3.06,0-4.58.06-6.13.37-12.16,1.91-18.27,3a61.27,61.27,0,0,1-18.52.94,61.31,61.31,0,0,0,18.42-1.46c6-1.27,12-3,18.28-3.55a46.05,46.05,0,0,1,4.7-.2,23.45,23.45,0,0,1,4.75.43c3.18.72,5.91,2.38,8.73,3.34a11.52,11.52,0,0,0,4.25.72,16.75,16.75,0,0,0,4.3-.86,44.64,44.64,0,0,0,8.21-3.84c2.65-1.53,5.25-3.2,7.9-4.83,1.33-.82,2.67-1.62,4.06-2.39s2.78-1.4,4.15-2.13c5.45-2.86,10.87-5.87,16.3-8.84,10.88-5.94,21.68-12,32.9-17.47a1.79,1.79,0,1,1,1.58,3.21h0Z"/><path class="cls-47" d="M719.36,671.2c-5.12,3-9.24,7.8-12.7,12.91a103.09,103.09,0,0,0-8.8,16.51q-1.87,4.32-3.52,8.76l-1.62,4.44a46.76,46.76,0,0,1-1.78,4.54,20.93,20.93,0,0,1-6.12,7.82,50.88,50.88,0,0,1-8.44,4.76,33.09,33.09,0,0,0-7.68,5.12,35,35,0,0,0-5.87,7.17,45.31,45.31,0,0,0-5.93,17.66c-.93,6.24-1.14,12.59-1.89,18.9s-2.07,12.61-4.94,18.29a53.82,53.82,0,0,0,4.47-18.34c.59-6.3.64-12.65,1.42-19a46.52,46.52,0,0,1,5.65-18.26,36.71,36.71,0,0,1,6-7.65,34.59,34.59,0,0,1,7.93-5.59,49.57,49.57,0,0,0,8-4.75,18.46,18.46,0,0,0,5.29-7.15,43.37,43.37,0,0,0,1.59-4.34l1.54-4.52q1.58-4.51,3.38-9A107.44,107.44,0,0,1,704,682.36c3.52-5.4,7.75-10.61,13.5-14.22a1.79,1.79,0,1,1,1.9,3l0,0Z"/><path class="cls-47" d="M811.13,589.63a34.52,34.52,0,0,1,3.47,8.09c.83,2.71,1.46,5.42,2,8.13,1.1,5.4,1.9,10.79,2.71,16.14S821,632.67,822,637.91a69,69,0,0,0,4.44,15c.26.58.58,1.1.86,1.66s.62,1,1,1.56c.72,1.07,1.5,2.11,2.33,3.12,1.64,2.05,3.43,4,5.27,6,3.65,4,7.52,8,10.46,12.89a33.08,33.08,0,0,1,3.47,7.83,35.16,35.16,0,0,1,1.11,8.45,77.74,77.74,0,0,0,.44,7.94,21.71,21.71,0,0,0,.84,3.69,31,31,0,0,0,1.43,3.6,36.83,36.83,0,0,0,9.62,12.22,63.35,63.35,0,0,0,13.41,8.54c9.65,4.66,20.08,7.67,30.59,10.08,5.27,1.2,10.58,2.23,15.91,3.18l8,1.4c2.67.47,5.35.92,8,1.49a49.49,49.49,0,0,1,7.82,2.33,38.88,38.88,0,0,1,7.22,3.81c4.5,3.06,8.5,6.73,12.72,10.12-4.3-3.29-8.39-6.88-12.92-9.81a41.3,41.3,0,0,0-15-5.73c-2.64-.51-5.32-.9-8-1.3l-8-1.22c-5.35-.84-10.7-1.75-16-2.84-10.63-2.19-21.23-5-31.23-9.53a65.39,65.39,0,0,1-14.11-8.56A39.47,39.47,0,0,1,851,711a36.32,36.32,0,0,1-1.65-3.91,24.5,24.5,0,0,1-1.06-4.19,82.86,82.86,0,0,1-.66-8.26,31.53,31.53,0,0,0-1.15-7.6,29.42,29.42,0,0,0-3.24-6.91c-2.76-4.36-6.5-8.15-10.28-12.05-1.89-1.95-3.79-3.94-5.59-6.08q-1.37-1.59-2.61-3.33c-.41-.58-.82-1.23-1.21-1.86s-.73-1.27-1-1.93a73.2,73.2,0,0,1-5-16c-1.15-5.37-2.05-10.75-2.94-16.09s-1.77-10.66-2.91-15.85c-.58-2.6-1.21-5.16-2-7.62a30,30,0,0,0-3-6.76l0-.06a2.68,2.68,0,0,1,4.53-2.88Z"/><path class="cls-46" d="M579.92,874.49s37,29.92,82.4,18.63c25.51-6.33,41.36-30.28,49.18-45.81"/><polygon class="cls-33" points="716.99 857.44 710.11 850.08 700.03 849.93 717.42 833.59 716.99 857.44"/><line class="cls-48" x1="12.46" y1="395.27" x2="1098" y2="395.27"/></g></g></svg>