<svg xmlns="http://www.w3.org/2000/svg" viewBox="0 0 821.21 575.33"><defs><style>.cls-1{font-size:55px;fill:#eb6a7c;font-family:Acre-Bold, Acre;font-weight:700;}.cls-2{letter-spacing:-0.01em;}.cls-3{letter-spacing:0em;}.cls-4{letter-spacing:-0.02em;}.cls-5{letter-spacing:-0.02em;}.cls-24,.cls-6{fill:#5c5052;}.cls-10,.cls-12,.cls-15,.cls-34,.cls-7,.cls-8,.cls-9{fill:none;}.cls-10,.cls-7,.cls-8,.cls-9{stroke:#5c5052;}.cls-10,.cls-12,.cls-7,.cls-8,.cls-9{stroke-linecap:round;stroke-linejoin:round;}.cls-7{stroke-width:6.5px;}.cls-8{stroke-width:7.43px;}.cls-9{stroke-width:12.46px;}.cls-10{stroke-width:7.67px;}.cls-11{fill:#fff;}.cls-12{stroke:#ffcd01;stroke-width:1.92px;}.cls-13{fill:#ffcd01;}.cls-14{fill:#3da9a0;}.cls-15,.cls-34{stroke:#336db4;stroke-miterlimit:10;}.cls-15{stroke-width:1.6px;}.cls-16{font-size:27.1px;font-family:Acre-Regular, Acre;}.cls-16,.cls-32,.cls-35{fill:#336db4;}.cls-17{letter-spacing:-0.01em;}.cls-18{letter-spacing:-0.03em;}.cls-19{letter-spacing:-0.01em;}.cls-20{letter-spacing:-0.02em;}.cls-21{letter-spacing:-0.02em;}.cls-22{letter-spacing:-0.01em;}.cls-23{letter-spacing:-0.01em;}.cls-24{font-size:32px;}.cls-24,.cls-32{font-family:Acre-Light, Acre;font-weight:300;}.cls-25{letter-spacing:0.01em;}.cls-26{letter-spacing:-0.01em;}.cls-27{letter-spacing:0em;}.cls-28{letter-spacing:-0.01em;}.cls-29{letter-spacing:-0.02em;}.cls-30{letter-spacing:-0.02em;}.cls-31{letter-spacing:-0.01em;}.cls-32{font-size:33.95px;}.cls-33{letter-spacing:-0.01em;}.cls-34{stroke-width:3px;}</style></defs><g id="Layer_2" data-name="Layer 2"><g id="Layer_11" data-name="Layer 11"><text class="cls-1" transform="translate(0 54.27)"><tspan class="cls-2">r</tspan><tspan class="cls-3" x="18.86" y="0">o</tspan><tspan class="cls-4" x="51.26" y="0">o</tspan><tspan x="82.83" y="0">t nodul</tspan><tspan class="cls-5" x="263.83" y="0">e</tspan><tspan class="cls-3" x="293.53" y="0">s</tspan></text><path class="cls-6" d="M579.15,304.61c.56-.53,1.14-.44,1.07-1.64,9.82,7.84,19.33,21.48,21.09,34.2.41,3,.43,5.47,1.6,8.31,3.35,8.13,6.31,15.95,7.55,24.74a85.39,85.39,0,0,1,.7,15.66c-.25,5.65,1.47,10.52.72,16.33-1.28,9.85-12.36,26-23.14,25.26-11.07-.73-24.44.13-34.91-3.42-10.1-3.43-27.27-16.73-30.45-26.17-4-11.81-4.9-31.23.21-42.68,12.28-27.47,60.88-15.75,55.56-54.08"/><path class="cls-7" d="M308.2,357.15c20.72-42,97.7-75.6,97.7-75.6s51.12-30,41.29-166c0,0,.74-41.08,7.7-95.27"/><path class="cls-7" d="M438.21,228.63s13.08,66.34-4.68,112.56-2,148.14-2,148.14"/><path class="cls-8" d="M596.92,395.32s29.86-87-74.94-164.65c-96.33-71.36-67.92-196.9-67.92-196.9"/><path class="cls-9" d="M574.68,322.4c12.26-27.36-23.6-63.13-61.5-88.49-53.69-35.93-53.68-88.44-63-122.37"/><path class="cls-10" d="M571.15,281.89c10.44,23,3.56,44.81-16.52,55.15-12.73,6.55-24.22,5.79-29.44,20.78-3.48,10-5.42,18.28-5.3,29,.36,29.3,27,41,53.23,42.2,45.25,2.06,44.5-53,31.65-81.59-5.65-12.56-8.78-29.6-16.32-40.72"/><path class="cls-11" d="M569.73,304.12a10.87,10.87,0,0,1,11.2-11.21,11.27,11.27,0,0,1,4.92,1.06l0,5a7.51,7.51,0,0,0-4.83-1.55,6.72,6.72,0,0,0,0,13.44,7.34,7.34,0,0,0,4.83-1.55l0,5a11.71,11.71,0,0,1-4.92,1A10.87,10.87,0,0,1,569.73,304.12Z"/><path class="cls-11" d="M527.73,361.12a10.87,10.87,0,0,1,11.2-11.21,11.27,11.27,0,0,1,4.92,1.06l0,5a7.51,7.51,0,0,0-4.83-1.55,6.72,6.72,0,0,0,0,13.44,7.34,7.34,0,0,0,4.83-1.55l0,5a11.71,11.71,0,0,1-4.92,1A10.87,10.87,0,0,1,527.73,361.12Z"/><path class="cls-11" d="M537.26,261.59a10.75,10.75,0,0,1,2.85-15.42,11,11,0,0,1,4.6-1.9l2.83,4a7.43,7.43,0,0,0-4.81,1.44,6.65,6.65,0,0,0,7.54,11,7.32,7.32,0,0,0,3.07-4l2.78,4.1a11.58,11.58,0,0,1-3.44,3.6A10.75,10.75,0,0,1,537.26,261.59Z"/><path class="cls-11" d="M574.09,405.16A13.13,13.13,0,0,1,585.81,390a13.67,13.67,0,0,1,6.06.5l.8,6a9,9,0,0,0-6-1.12,8.12,8.12,0,0,0,2.05,16.11,8.81,8.81,0,0,0,5.55-2.59l.73,6a14.06,14.06,0,0,1-5.74,2A13.14,13.14,0,0,1,574.09,405.16Z"/><path class="cls-12" d="M589.06,318.82s6.73,2.72.6,17.83a12.31,12.31,0,0,1-9.95,7.64s-8.83.7-12.7,11.13c-4.85,13.1,0,15.44,0,15.44"/><path class="cls-12" d="M584.22,325c-5.66,7.27-.18,14.61-.18,14.61s6.34,5.59-1.24,20c-7,13.36-13.89,13.82-13.89,13.82"/><path class="cls-12" d="M563.73,369.13a21.88,21.88,0,0,0,9.82-11.29s3.16-8.61-1.73-12.54-1.5-9.76-.63-12.25c0,0,2.67-6.23,8.13-9.71"/><path class="cls-12" d="M565.21,374.39c-8.22-7.7-6.31-14.62-6.31-14.62s1.67-8.7,11.94-9.08c10.5-.39,9.53-7,10.07-9.46a17,17,0,0,0-4.95-12.4"/><path class="cls-13" d="M567,367c-4.53-1.83-10,1-12.12,6.36l-12.93,32c-2.16,5.34-.23,11.16,4.3,13,4.31,1.74,9.41-.75,11.77-5.58l-6.7-7.08,10-.95,10-24.76C573.48,374.65,571.56,368.83,567,367Z"/><path class="cls-9" d="M477.15,184.73c3.44,6.26,6.83,12.4,11.56,17.6,1.82,2,3.06,4.49,5.17,6.17,1.18.94,12.19,13.85,13,15"/><path class="cls-11" d="M487.08,219.75a11.31,11.31,0,0,1,5.63-15.51,11.76,11.76,0,0,1,5.1-1.17l2.23,4.69a7.72,7.72,0,0,0-5.24.66,7,7,0,0,0,5.92,12.68,7.68,7.68,0,0,0,3.88-3.59l2.18,4.74a12.31,12.31,0,0,1-4.19,3.14A11.32,11.32,0,0,1,487.08,219.75Z"/><path class="cls-14" d="M638.75,215.78l-3.64,30.11-3.31-.4-13.51-19.77-2.11,17.5-6.25-.76,3.63-30,3.31.4,13.5,20.24L632.55,215Z"/><path class="cls-14" d="M638,258.82c2.08-1.86,4.26-3.89,6.35-5.82,1.28-1.23,2.34-2.3,2.51-3.72a2.22,2.22,0,0,0-2-2.47c-1.46-.18-2.66,1-2.86,2.69l-3.3-1.35a5.89,5.89,0,0,1,6.6-5,5.68,5.68,0,0,1,5.26,6.19c-.27,2.18-1.55,3.7-3.28,5.28-.94.91-1.93,1.85-2.89,2.76l5.25.64-.43,3.51-11.39-1.37Z"/><path class="cls-14" d="M683.83,236.18l-.37,3-16.14,7.36.71-5.86,9.28-3.71-8.14-5.76.73-6Z"/><path class="cls-14" d="M728.92,226.67l-3.64,30.11-3.31-.4-13.51-19.77-2.11,17.5-6.25-.76,3.63-30,3.31.4L720.54,244l2.18-18.05Z"/><path class="cls-14" d="M758.6,230.26,755,260l-6.24-.75,1.43-11.85L738.86,246l-1.43,11.85-6.24-.75,3.59-29.73,6.24.75L739.59,240l11.34,1.37,1.43-11.85Z"/><path class="cls-14" d="M770.08,270.47a5.94,5.94,0,0,1-6.82,5.13,6.2,6.2,0,0,1-5.62-5.27l3.41-1.2a3.18,3.18,0,0,0,2.59,2.85,2.48,2.48,0,1,0,.6-4.92,4.06,4.06,0,0,0-2.21.41l-1.27-2,.08-.07,4.68-3.78-5.77-.69.43-3.57,10.18,1.23-.37,3.07-3.57,2.91A5.51,5.51,0,0,1,770.08,270.47Z"/><path class="cls-14" d="M662.74,397.25l9.15,28.91-3.18,1-20.48-12.4,5.32,16.8-6,1.9-9.13-28.84,3.18-1,20.67,12.84-5.49-17.34Z"/><path class="cls-14" d="M679.85,436.74c1.13-2.55,2.28-5.3,3.38-7.92.65-1.65,1.17-3.07.74-4.42a2.21,2.21,0,0,0-2.83-1.43c-1.4.44-2,2-1.49,3.63l-3.57.14a5.91,5.91,0,0,1,3.95-7.27,5.68,5.68,0,0,1,7.35,3.46c.66,2.09.12,4-.8,6.16-.47,1.22-1,2.49-1.49,3.72l5-1.6,1.07,3.38-10.93,3.46Z"/><path class="cls-14" d="M712.22,397.15l.91,2.9-11.64,13.38-1.79-5.63,6.92-7.22-9.8-1.88L695,393Z"/><path class="cls-14" d="M749.33,369.83l9.15,28.91-3.18,1-20.48-12.4,5.32,16.8-6,1.9L725,377.22l3.19-1,20.66,12.84-5.48-17.33Z"/><path class="cls-14" d="M777.83,360.81l9,28.54-6,1.9-3.61-11.38-10.88,3.45L770,394.7l-6,1.9-9-28.55,6-1.9,3.6,11.38,10.89-3.45-3.6-11.38Z"/><path class="cls-14" d="M804.93,392.66a6,6,0,0,1-4.09,7.5,6.23,6.23,0,0,1-7.3-2.48l2.61-2.5a3.18,3.18,0,0,0,3.54,1.52,2.48,2.48,0,1,0-1.5-4.73,4,4,0,0,0-1.83,1.29l-2-1.28,0-.1,2.69-5.38-5.54,1.76-1.08-3.42,9.77-3.1.93,2.95-2,4.13A5.5,5.5,0,0,1,804.93,392.66Z"/><path class="cls-15" d="M533.54,32.47c13.52-11.37,23.93-10.83,37.33.87,6-15.84,25.23-30.43,39.69-31,18.64-.71,45,13.85,55.53,26.32C689.46,8.21,705.53-8.57,740.26,6.74,753.53,12.59,777,26.9,775.63,41.4c26.32-4.64,44,6.92,44.76,29.15.8,23.39-19.66,23.6-40.73,24.88,3.46,19.47-1.69,41.29-26.18,50.74-17.64,6.8-46.4,5.29-57.61-8.79-15.93,17.08-43.51,46.45-72.31,33.93C599,160.64,594,149.86,591.28,132.6c-15.4,8.29-42.62,20.42-59.38-5.42-13.93-21.49,0-40.52,9.59-49.39C541.49,77.79,502.15,58.88,533.54,32.47Z"/><text class="cls-16" transform="translate(548.14 79.19)">N</text><text class="cls-16" transform="translate(568.11 88.21) scale(0.58)">2</text><text class="cls-16" transform="translate(576.51 79.19)"> <tspan class="cls-17" x="9.19" y="0">m</tspan><tspan x="32.87" y="0">a</tspan><tspan class="cls-18" x="49.59" y="0">k</tspan><tspan class="cls-19" x="62.21" y="0">e</tspan><tspan x="77.2" y="0">s up</tspan><tspan class="cls-20" x="130.01" y="0"> </tspan><tspan class="cls-21" x="138.65" y="0">7</tspan><tspan x="149.95" y="0">8% </tspan><tspan class="cls-22" x="191.82" y="0">o</tspan><tspan x="207.64" y="0">f </tspan><tspan x="-3.39" y="32.52">t</tspan><tspan class="cls-17" x="4.58" y="32.52">h</tspan><tspan x="19.83" y="32.52">e at</tspan><tspan class="cls-17" x="68.98" y="32.52">m</tspan><tspan class="cls-23" x="92.67" y="32.52">o</tspan><tspan x="108.6" y="32.52">sp</tspan><tspan class="cls-17" x="136.73" y="32.52">h</tspan><tspan x="151.98" y="32.52">e</tspan><tspan class="cls-20" x="167.27" y="32.52">r</tspan><tspan x="175.34" y="32.52">e</tspan></text><text class="cls-24" transform="translate(1.73 118.93)">i<tspan class="cls-25" x="8.03" y="0">n</tspan><tspan x="26.5" y="0">side t</tspan><tspan class="cls-26" x="105.31" y="0">h</tspan><tspan x="123.1" y="0">e </tspan><tspan class="cls-26" x="152.22" y="0">n</tspan><tspan x="169.98" y="0">odul</tspan><tspan class="cls-27" x="234.46" y="0">e</tspan><tspan x="252.38" y="0">, </tspan><tspan x="0" y="38.4">plan</tspan><tspan class="cls-28" x="64.93" y="38.4">t</tspan><tspan x="73.47" y="38.4">s p</tspan><tspan class="cls-29" x="117.28" y="38.4">r</tspan><tspan class="cls-26" x="126.37" y="38.4">o</tspan><tspan class="cls-27" x="145.15" y="38.4">v</tspan><tspan x="161.05" y="38.4">ide </tspan><tspan x="0" y="76.8">carbon </tspan><tspan class="cls-29" x="114.65" y="76.8">t</tspan><tspan x="122.88" y="76.8">o </tspan><tspan class="cls-29" x="153.18" y="76.8">f</tspan><tspan x="161.41" y="76.8">eed t</tspan><tspan class="cls-26" x="237.21" y="76.8">h</tspan><tspan x="255" y="76.8">e </tspan><tspan x="0" y="115.2">bac</tspan><tspan class="cls-29" x="56.38" y="115.2">t</tspan><tspan x="64.61" y="115.2">eria. this fuels </tspan><tspan x="0" y="153.6">t</tspan><tspan class="cls-26" x="8.86" y="153.6">h</tspan><tspan x="26.66" y="153.6">e e</tspan><tspan class="cls-26" x="73.85" y="153.6">n</tspan><tspan x="91.61" y="153.6">e</tspan><tspan class="cls-29" x="109.69" y="153.6">r</tspan><tspan x="118.78" y="153.6">g</tspan><tspan class="cls-30" x="138.53" y="153.6">y</tspan><tspan x="153.53" y="153.6" xml:space="preserve"> in</tspan><tspan class="cls-29" x="190.84" y="153.6">t</tspan><tspan x="199.07" y="153.6">e</tspan><tspan class="cls-25" x="217.15" y="153.6">n</tspan><tspan x="235.61" y="153.6">s</tspan><tspan class="cls-27" x="248.67" y="153.6">i</tspan><tspan class="cls-26" x="256.54" y="153.6">v</tspan><tspan x="272.12" y="153.6">e </tspan><tspan x="0" y="192">p</tspan><tspan class="cls-29" x="19.71" y="192">r</tspan><tspan x="28.8" y="192">oc</tspan><tspan class="cls-27" x="64.96" y="192">e</tspan><tspan x="82.88" y="192">ss </tspan><tspan class="cls-31" x="120.03" y="192">o</tspan><tspan x="138.88" y="192">f b</tspan><tspan class="cls-29" x="178.53" y="192">r</tspan><tspan x="187.61" y="192">eaki</tspan><tspan class="cls-26" x="248.76" y="192">n</tspan><tspan x="266.52" y="192">g </tspan><tspan x="0" y="230.4">apart N</tspan></text><text class="cls-24" transform="translate(114.21 359.98) scale(0.58)">2</text><text class="cls-24" transform="translate(123.99 349.33)"><tspan xml:space="preserve"> f</tspan><tspan class="cls-29" x="19.9" y="0">r</tspan><tspan x="28.99" y="0">om t</tspan><tspan class="cls-26" x="96.13" y="0">h</tspan><tspan x="113.92" y="0">e </tspan><tspan x="-122.25" y="38.4">at</tspan><tspan class="cls-26" x="-93.65" y="38.4">m</tspan><tspan class="cls-27" x="-66.16" y="38.4">o</tspan><tspan x="-47.05" y="38.4">sp</tspan><tspan class="cls-26" x="-14.29" y="38.4">h</tspan><tspan x="3.51" y="38.4">e</tspan><tspan class="cls-29" x="21.58" y="38.4">r</tspan><tspan x="30.67" y="38.4">e a</tspan><tspan class="cls-26" x="79.54" y="38.4">n</tspan><tspan x="97.3" y="38.4">d </tspan><tspan x="-122.25" y="76.8">co</tspan><tspan class="cls-28" x="-86.09" y="76.8">n</tspan><tspan class="cls-26" x="-68.17" y="76.8">v</tspan><tspan x="-52.59" y="76.8">erti</tspan><tspan class="cls-26" x="-7.89" y="76.8">n</tspan><tspan x="9.87" y="76.8">g it </tspan><tspan class="cls-29" x="68.59" y="76.8">t</tspan><tspan x="76.81" y="76.8">o NH</tspan></text><text class="cls-24" transform="translate(277.22 436.78) scale(0.58)">3</text><text class="cls-24" transform="translate(287.53 426.13)">, <tspan x="-285.8" y="38.4">a plant a</tspan><tspan class="cls-26" x="-150.44" y="38.4">v</tspan><tspan x="-134.86" y="38.4">ailable </tspan><tspan class="cls-29" x="-285.8" y="76.8">f</tspan><tspan x="-277.58" y="76.8">orm.</tspan></text><text class="cls-32" transform="translate(356.02 524.86) rotate(6.7)">am<tspan class="cls-33" x="50.62" y="0">m</tspan><tspan x="79.79" y="0">onia</tspan></text><path class="cls-34" d="M345,513.15s-25.64-2.38-43.24-34.09"/><polygon class="cls-35" points="315.65 481.87 303.59 482.29 295.51 491.26 294.46 462.69 315.65 481.87"/></g></g></svg>