<?xml version="1.0" encoding="UTF-8"?><svg xmlns="http://www.w3.org/2000/svg" viewBox="0 0 821.21 541.92"><defs><style>.d{stroke-width:3px;}.d,.e,.f,.g,.h,.i,.j{fill:none;}.d,.i{stroke:#336db4;stroke-miterlimit:10;}.e{stroke-width:7.43px;}.e,.f,.g,.h,.j{stroke-linecap:round;stroke-linejoin:round;}.e,.f,.g,.j{stroke:#5c5052;}.k{fill:#eb6a7c;}.l{fill:#fff;}.m{fill:#ffcd01;}.n{fill:#3da9a0;}.o{fill:#5c5052;}.p{fill:#336db4;}.f{stroke-width:12.46px;}.g{stroke-width:6.5px;}.h{stroke:#ffcd01;stroke-width:1.92px;}.i{stroke-width:1.6px;}.j{stroke-width:7.67px;}</style></defs><g id="a"/><g id="b"><g id="c"><g><g><path class="k" d="M18.97,26.17v9.13c-3.52-.77-7.64,0-7.64,5.66v13.31H3.41V26.78h7.92v4.12c1.7-2.64,4.34-4.73,7.64-4.73Z"/><path class="k" d="M20.84,40.53c0-7.75,5.83-14.3,14.19-14.3s14.24,6.54,14.24,14.3-5.83,14.3-14.24,14.3-14.19-6.6-14.19-14.3Zm20.35-.05c0-3.41-2.42-6.32-6.16-6.32s-6.1,2.91-6.1,6.32,2.47,6.43,6.1,6.43,6.16-2.91,6.16-6.43Z"/><path class="k" d="M53.24,40.53c0-7.75,5.83-14.3,14.19-14.3s14.24,6.54,14.24,14.3-5.83,14.3-14.24,14.3-14.19-6.6-14.19-14.3Zm20.35-.05c0-3.41-2.42-6.32-6.16-6.32s-6.1,2.91-6.1,6.32,2.47,6.43,6.1,6.43,6.16-2.91,6.16-6.43Z"/><path class="k" d="M101.09,34.2h-5.5v20.07h-7.92v-20.07h-3.46v-7.42h3.46v-7.37h7.92v7.37h5.5v7.42Z"/><path class="k" d="M148.11,37.61v16.66h-7.92v-14.85c0-3.74-2.03-5.83-4.73-5.83-2.47,0-4.29,1.71-4.62,4.79v15.89h-7.92V26.78h7.92v3.3c1.76-2.25,4.51-3.85,7.92-3.85,5.28,0,9.35,3.96,9.35,11.38Z"/><path class="k" d="M153.17,40.53c0-7.75,5.83-14.3,14.19-14.3s14.24,6.54,14.24,14.3-5.83,14.3-14.24,14.3-14.19-6.6-14.19-14.3Zm20.35-.05c0-3.41-2.42-6.32-6.16-6.32s-6.1,2.91-6.1,6.32,2.47,6.43,6.1,6.43,6.16-2.91,6.16-6.43Z"/><path class="k" d="M214,10.28V54.27h-7.92v-3.46c-1.92,2.31-4.67,3.85-8.19,3.85-7.53,0-12.37-6.27-12.37-14.19s4.84-14.13,12.37-14.13c3.52,0,6.27,1.54,8.19,3.85V10.28h7.92Zm-7.92,30.19c0-3.41-2.53-6.49-6.16-6.49s-6.1,2.91-6.1,6.49,2.47,6.49,6.1,6.49,6.16-3.02,6.16-6.49Z"/><path class="k" d="M245.68,26.78v27.5h-7.92v-3.3c-1.76,2.25-4.51,3.85-7.92,3.85-5.28,0-9.35-3.96-9.35-11.38V26.78h7.92v14.85c0,3.74,2.03,5.83,4.73,5.83,2.47,0,4.29-1.7,4.62-4.78v-15.89h7.92Z"/><path class="k" d="M252.5,10.28h7.92V54.27h-7.92V10.28Z"/><path class="k" d="M292.59,43.06h-18.86c.94,2.97,3.57,4.56,6.98,4.56,3.08,0,5.94-.88,8.69-2.2l.06,7.09c-2.37,1.32-5.61,2.2-9.35,2.2-8.96,0-14.3-6.43-14.3-14.19s5.39-14.19,13.69-14.19c8.96,0,13.86,7.64,13.09,16.72Zm-18.86-4.95h11.16c-.77-2.75-2.8-4.45-5.39-4.45-2.86,0-5,1.81-5.77,4.45Z"/><path class="k" d="M295.34,50.59l3.85-5.66c1.87,1.48,4.62,2.97,6.93,2.97,1.54,0,2.53-.77,2.53-1.76,0-3.58-12.37-2.25-12.37-11.6,0-4.56,3.74-8.25,9.79-8.3,3.96,0,7.53,1.87,9.46,3.74l-3.74,5.61c-1.21-.88-3.63-2.37-5.61-2.37-1.37,0-2.31,.66-2.31,1.65,0,3.41,12.59,2.2,12.54,11.6,0,4.73-4.12,8.3-10.34,8.3-3.68,0-8.08-1.71-10.72-4.18Z"/></g><path class="o" d="M579.15,304.61c.56-.53,1.14-.44,1.07-1.63,9.82,7.83,19.33,21.48,21.09,34.2,.41,2.96,.43,5.46,1.6,8.3,3.35,8.14,6.31,15.96,7.55,24.74,.73,5.19,.93,10.42,.7,15.66-.25,5.65,1.48,10.52,.72,16.33-1.28,9.84-12.35,25.96-23.14,25.26-11.07-.73-24.44,.13-34.91-3.42-10.1-3.43-27.28-16.73-30.46-26.17-3.98-11.81-4.9-31.23,.22-42.68,12.28-27.47,60.88-15.75,55.56-54.08"/><path class="g" d="M308.2,357.15c20.72-42,97.7-75.6,97.7-75.6,0,0,51.12-29.97,41.29-165.95,0,0,.74-41.07,7.7-95.27"/><path class="g" d="M438.21,228.63s13.08,66.34-4.68,112.56c-17.76,46.21-1.97,148.14-1.97,148.14"/><path class="e" d="M596.92,395.32s29.86-87.03-74.94-164.65c-96.33-71.36-67.92-196.9-67.92-196.9"/><path class="f" d="M574.68,322.4c12.26-27.36-23.6-63.13-61.5-88.49-53.69-35.93-53.69-88.44-63.03-122.37"/><path class="j" d="M571.15,281.89c10.43,23.01,3.56,44.81-16.52,55.15-12.74,6.56-24.23,5.79-29.45,20.79-3.48,9.99-5.42,18.28-5.29,28.98,.35,29.3,27.03,41.01,53.22,42.2,45.26,2.06,44.5-52.98,31.65-81.58-5.64-12.57-8.77-29.6-16.32-40.72"/><path class="l" d="M569.73,304.12c0-6.25,4.52-11.21,11.21-11.21,1.83,0,3.53,.37,4.92,1.05l.03,4.98c-1.08-.9-2.73-1.55-4.83-1.55-3.93,0-6.66,3.1-6.66,6.72s2.73,6.72,6.66,6.72c2.11,0,3.75-.62,4.83-1.55l-.03,5.01c-1.39,.65-3.1,1.02-4.92,1.02-6.69,0-11.21-4.95-11.21-11.21Z"/><path class="l" d="M527.73,361.12c0-6.25,4.52-11.21,11.21-11.21,1.83,0,3.53,.37,4.92,1.05l.03,4.98c-1.08-.9-2.73-1.55-4.83-1.55-3.93,0-6.66,3.1-6.66,6.72s2.73,6.72,6.66,6.72c2.11,0,3.75-.62,4.83-1.55l-.03,5.01c-1.39,.65-3.1,1.02-4.92,1.02-6.69,0-11.21-4.95-11.21-11.21Z"/><path class="l" d="M537.26,261.59c-3.51-5.1-2.6-11.67,2.85-15.42,1.49-1.03,3.09-1.68,4.6-1.9l2.82,4.04c-1.39-.12-3.09,.26-4.81,1.45-3.21,2.21-3.69,6.26-1.66,9.21,2.03,2.95,5.99,3.95,9.19,1.74,1.72-1.18,2.71-2.61,3.07-3.97l2.79,4.11c-.77,1.31-1.95,2.57-3.44,3.6-5.45,3.75-11.91,2.25-15.42-2.85Z"/><path class="l" d="M574.09,405.16c-.96-7.5,3.7-14.12,11.72-15.14,2.19-.28,4.29-.1,6.06,.51l.8,5.97c-1.44-.91-3.5-1.44-6.03-1.12-4.71,.6-7.51,4.73-6.95,9.07,.55,4.34,4.29,7.64,9,7.03,2.53-.32,4.4-1.31,5.55-2.59l.73,6.01c-1.57,1-3.55,1.7-5.74,1.98-8.01,1.02-14.19-4.23-15.15-11.72Z"/><g><path class="h" d="M589.06,318.82s6.72,2.72,.6,17.83c-2.9,7.14-9.95,7.64-9.95,7.64,0,0-8.83,.7-12.7,11.13-4.85,13.1,0,15.43,0,15.43"/><path class="h" d="M584.22,325c-5.66,7.27-.18,14.61-.18,14.61,0,0,6.34,5.58-1.24,19.97-7.04,13.36-13.9,13.82-13.9,13.82"/><path class="h" d="M563.73,369.13c7.58-4.23,9.82-11.29,9.82-11.29,0,0,3.16-8.61-1.73-12.54-5-4.02-1.51-9.75-.63-12.25,0,0,2.67-6.23,8.13-9.71"/><path class="h" d="M565.21,374.39c-8.22-7.7-6.31-14.63-6.31-14.63,0,0,1.67-8.69,11.94-9.07,10.5-.39,9.52-6.97,10.07-9.46,0,0,.64-6.51-4.95-12.4"/><path class="m" d="M567.02,367c-4.53-1.83-9.96,1.02-12.12,6.36l-12.93,32c-2.16,5.35-.24,11.16,4.3,13,4.31,1.74,9.41-.75,11.76-5.58l-6.7-7.08,9.99-.96,10-24.75c2.16-5.35,.24-11.17-4.3-13Z"/></g><path class="f" d="M477.15,184.73c3.44,6.26,6.83,12.39,11.56,17.6,1.82,2.01,3.06,4.49,5.18,6.17,1.18,.94,12.19,13.86,13.03,15.04"/><path class="l" d="M487.08,219.75c-2.76-5.9-.68-12.56,5.63-15.51,1.72-.81,3.49-1.21,5.11-1.18l2.23,4.69c-1.42-.37-3.25-.26-5.24,.67-3.71,1.73-4.92,5.85-3.32,9.27,1.6,3.42,5.53,5.14,9.24,3.4,1.99-.93,3.26-2.24,3.88-3.59l2.18,4.74c-1.02,1.23-2.47,2.33-4.19,3.13-6.31,2.95-12.75,.27-15.51-5.63Z"/><g><path class="n" d="M638.75,215.78l-3.64,30.11-3.31-.4-13.51-19.77-2.11,17.5-6.24-.75,3.63-30.03,3.31,.4,13.5,20.24,2.18-18.05,6.2,.75Z"/><path class="n" d="M637.98,258.82c2.08-1.86,4.26-3.88,6.35-5.81,1.28-1.23,2.34-2.3,2.51-3.72,.14-1.16-.65-2.31-1.99-2.47-1.46-.18-2.66,1.01-2.86,2.69l-3.3-1.35c.45-2.89,3.06-5.41,6.61-4.98,3.56,.43,5.6,3.34,5.25,6.19-.26,2.18-1.55,3.71-3.27,5.28-.94,.92-1.93,1.85-2.9,2.77l5.25,.63-.42,3.52-11.39-1.38,.16-1.36Z"/><path class="n" d="M683.83,236.18l-.36,3.02-16.14,7.36,.71-5.86,9.28-3.71-8.14-5.77,.72-5.99,13.93,10.95Z"/><path class="n" d="M728.92,226.67l-3.64,30.11-3.31-.4-13.51-19.77-2.11,17.5-6.24-.75,3.63-30.03,3.31,.4,13.5,20.24,2.18-18.05,6.2,.75Z"/><path class="n" d="M758.6,230.26l-3.59,29.73-6.24-.75,1.43-11.85-11.34-1.37-1.43,11.85-6.24-.75,3.59-29.73,6.24,.75-1.43,11.85,11.34,1.37,1.43-11.85,6.24,.75Z"/><path class="n" d="M770.08,270.47c-.37,3.09-3.16,5.57-6.82,5.13-3.49-.42-5.18-2.86-5.62-5.28l3.41-1.2c.24,1.36,1.08,2.67,2.6,2.85,1.44,.17,2.65-.76,2.83-2.2,.17-1.41-.87-2.57-2.23-2.73-.87-.11-1.49,.12-2.21,.41l-1.27-1.99,.08-.07,4.68-3.78-5.77-.7,.43-3.57,10.17,1.23-.37,3.07-3.57,2.91c2.64,1,3.96,3.42,3.66,5.89Z"/></g><g><path class="n" d="M662.74,397.25l9.16,28.91-3.18,1.01-20.48-12.4,5.32,16.8-6,1.9-9.13-28.83,3.18-1.01,20.67,12.84-5.49-17.33,5.95-1.89Z"/><path class="n" d="M679.85,436.74c1.13-2.55,2.28-5.3,3.38-7.92,.66-1.65,1.17-3.07,.75-4.42-.36-1.12-1.55-1.84-2.83-1.43-1.4,.44-2,2.02-1.49,3.64l-3.57,.13c-.78-2.81,.55-6.19,3.95-7.27,3.42-1.08,6.48,.72,7.34,3.46,.66,2.09,.12,4.02-.79,6.16-.48,1.22-.99,2.49-1.49,3.72l5.04-1.6,1.07,3.37-10.94,3.46-.42-1.31Z"/><path class="n" d="M712.22,397.15l.92,2.9-11.65,13.38-1.78-5.63,6.91-7.21-9.79-1.88-1.82-5.75,17.21,4.2Z"/><path class="n" d="M749.33,369.83l9.15,28.91-3.18,1.01-20.48-12.4,5.32,16.8-6,1.9-9.13-28.83,3.18-1.01,20.67,12.84-5.49-17.33,5.95-1.88Z"/><path class="n" d="M777.83,360.81l9.04,28.55-5.99,1.9-3.6-11.38-10.89,3.45,3.6,11.38-5.99,1.9-9.04-28.55,5.99-1.9,3.6,11.38,10.89-3.45-3.6-11.38,5.99-1.9Z"/><path class="n" d="M804.93,392.66c.94,2.97-.57,6.38-4.09,7.49-3.35,1.06-5.9-.46-7.3-2.48l2.61-2.5c.78,1.14,2.09,1.98,3.54,1.52,1.38-.44,2.1-1.79,1.66-3.17-.43-1.35-1.85-1.98-3.16-1.56-.83,.26-1.31,.73-1.84,1.29l-1.98-1.28,.05-.09,2.69-5.38-5.54,1.75-1.08-3.42,9.77-3.09,.93,2.95-2.04,4.13c2.82-.19,5.02,1.47,5.77,3.85Z"/></g><path class="i" d="M533.54,32.47c13.52-11.37,23.92-10.83,37.33,.88,5.99-15.84,25.23-30.44,39.68-30.98,18.64-.71,45,13.85,55.54,26.32,23.37-20.47,39.44-37.25,74.17-21.93,13.27,5.85,36.74,20.15,35.37,34.66,26.32-4.64,44.01,6.92,44.76,29.15,.8,23.39-19.66,23.6-40.73,24.88,3.46,19.47-1.69,41.29-26.18,50.74-17.64,6.81-46.4,5.29-57.61-8.78-15.92,17.08-43.51,46.44-72.31,33.93-24.55-10.67-29.55-21.45-32.28-38.71-15.4,8.29-42.62,20.43-59.38-5.42-13.93-21.49,0-40.52,9.59-49.39,0,0-39.33-18.92-7.95-45.33Z"/><g><path class="p" d="M565.75,60.22v19.29h-.3l-12.82-14.28v13.96h-2.14v-19.29h.33l12.79,14.47v-14.15h2.14Z"/><path class="p" d="M569.17,88.03c1.23-1.52,2.37-2.94,3.6-4.5,.84-1.04,1.66-2.01,1.66-3.24,0-1.01-.79-2.1-2.12-2.1s-2.19,1.04-2.32,2.42l-1.18-.35c.16-1.74,1.42-3.3,3.51-3.3s3.4,1.61,3.4,3.28c0,1.44-.82,2.56-1.71,3.66-.82,1.01-1.66,2.05-2.48,3.08h4.3v1.22h-6.65v-.17Z"/><path class="p" d="M607.73,71.24v7.94h-2.17v-7.56c0-2.58-1.27-4.25-3.36-4.25s-3.36,1.68-3.36,4.39v7.42h-2.17v-7.56c0-2.58-1.27-4.25-3.36-4.25s-3.36,1.68-3.36,4.39v7.42h-2.14v-13.55h2.14v1.95c.76-1.22,2.11-2.22,3.98-2.22s3.5,.98,4.34,2.9c.79-1.54,2.28-2.9,4.53-2.9,2.74,0,4.93,2.03,4.93,5.88Z"/><path class="p" d="M623.99,65.64v13.55h-2.14v-2.44c-1.06,1.57-2.74,2.63-4.88,2.63-3.77,0-6.37-3.09-6.37-6.96s2.6-6.96,6.37-6.96c2.14,0,3.82,1.06,4.88,2.63v-2.44h2.14Zm-2.14,6.78c0-2.6-1.92-4.88-4.55-4.88s-4.47,2.2-4.47,4.88,1.84,4.88,4.47,4.88,4.55-2.28,4.55-4.88Z"/><path class="p" d="M636.51,79.19l-6.15-6.26v6.26h-2.14v-21.68h2.14v14.58l5.96-6.45h2.66l-6.42,6.86,6.77,6.69h-2.82Z"/><path class="p" d="M652.87,73.22h-10.7c.33,2.41,2.11,4.09,4.74,4.09,1.84,0,3.31-.65,4.53-1.65v2.28c-1.14,.89-2.76,1.46-4.63,1.46-4.28,0-6.86-3.2-6.86-6.99s2.66-6.96,6.58-6.96c4.17,0,6.56,3.63,6.34,7.78Zm-10.68-1.82h8.4c-.38-2.2-1.87-3.82-4.09-3.82s-3.93,1.6-4.31,3.82Z"/><path class="p" d="M654.85,77.26l1.38-1.6c.84,.89,2.01,1.65,3.31,1.65s2.25-.7,2.25-1.76c0-2.98-6.61-1.95-6.58-6.5,.03-2,1.71-3.63,4.2-3.63,1.84-.03,3.39,.98,4.23,1.92l-1.27,1.57c-.65-.62-1.71-1.41-2.93-1.41s-2.01,.65-2.01,1.57c-.05,2.76,6.59,1.79,6.56,6.5,0,2.17-1.82,3.82-4.53,3.82-1.71,0-3.58-.92-4.61-2.14Z"/><path class="p" d="M687.69,65.64v13.55h-2.14v-2.06c-.79,1.33-2.28,2.33-4.23,2.33-2.71,0-5.12-2-5.12-6.1v-7.72h2.17v7.37c0,2.93,1.46,4.44,3.55,4.44s3.63-1.52,3.63-4.44v-7.37h2.14Z"/><path class="p" d="M705.31,72.41c0,3.88-2.6,6.96-6.37,6.96-2.14,0-3.82-1.06-4.88-2.63v7.86h-2.14v-18.97h2.14v2.44c1.06-1.57,2.74-2.63,4.88-2.63,3.77,0,6.37,3.09,6.37,6.96Zm-2.22,0c0-2.68-1.84-4.88-4.47-4.88s-4.55,2.28-4.55,4.88,1.92,4.88,4.55,4.88,4.47-2.19,4.47-4.88Z"/><path class="p" d="M726.9,60.49l-6.29,18.7h-2.33l5.88-16.86h-8.65v-2.11h11.38v.27Z"/><path class="p" d="M740.04,73.55c0,3.28-2.47,5.91-6.15,5.91s-6.15-2.63-6.15-5.91c0-2.03,1.08-3.93,2.9-4.96-1.19-.87-1.9-2.22-1.9-3.79,0-2.55,2.11-4.85,5.15-4.85s5.15,2.3,5.15,4.85c0,1.57-.7,2.95-1.92,3.82,1.82,1.03,2.93,2.9,2.93,4.93Zm-2.14,0c0-2.06-1.63-3.88-4.01-3.88s-4.01,1.82-4.01,3.88,1.65,3.82,4.01,3.82,4.01-1.76,4.01-3.82Zm-4.01-5.77c1.79,0,2.98-1.33,2.98-2.87s-1.19-2.82-2.98-2.82-2.95,1.27-2.95,2.82,1.19,2.87,2.95,2.87Z"/><path class="p" d="M742.16,63.82c0-2.17,1.79-3.88,3.88-3.88s3.88,1.71,3.88,3.88-1.71,3.88-3.88,3.88-3.88-1.76-3.88-3.88Zm13.44-3.6h2.01l-12.68,18.97h-2.03l12.71-18.97Zm-7.51,3.63c0-1.19-.87-2.09-2.06-2.09-1.11,0-2.01,.89-2.01,2.09,0,1.11,.89,1.98,2.01,1.98,1.19,0,2.06-.87,2.06-1.98Zm2.47,11.73c0-2.17,1.79-3.88,3.88-3.88s3.88,1.71,3.88,3.88-1.71,3.88-3.88,3.88-3.88-1.79-3.88-3.88Zm5.93,.03c0-1.19-.89-2.09-2.09-2.09-1.11,0-1.98,.89-1.98,2.09,0,1.11,.87,1.98,1.98,1.98,1.19,0,2.09-.87,2.09-1.98Z"/><path class="p" d="M769.55,72.41c0-3.77,2.82-6.99,6.88-6.99s6.88,3.22,6.88,6.99-2.79,6.99-6.88,6.99-6.88-3.22-6.88-6.99Zm11.57-.03c0-2.6-1.87-4.82-4.69-4.82s-4.69,2.22-4.69,4.82,1.92,4.88,4.69,4.88,4.69-2.28,4.69-4.88Z"/><path class="p" d="M788.9,60.92v4.71h2.79v2.06h-2.79v11.49h-2.17v-11.49h-1.73v-2.06h1.73v-5.23c0-1.92,1.14-3.04,2.79-3.04,.89,0,1.65,.27,2.17,.54v2.22c-.49-.27-.98-.51-1.63-.51s-1.17,.43-1.17,1.3Z"/><path class="p" d="M580.66,100.21h-2.79v11.49h-2.17v-11.49h-1.73v-2.06h1.73v-3.63h2.17v3.63h2.79v2.06Z"/><path class="p" d="M594.69,103.98v7.72h-2.17v-7.37c0-2.93-1.46-4.44-3.55-4.44s-3.63,1.52-3.63,4.44v7.37h-2.14v-21.68h2.14v10.19c.79-1.33,2.28-2.33,4.23-2.33,2.71,0,5.12,2.01,5.12,6.1Z"/><path class="p" d="M610.49,105.74h-10.7c.33,2.41,2.11,4.09,4.74,4.09,1.84,0,3.31-.65,4.53-1.65v2.28c-1.14,.89-2.76,1.46-4.63,1.46-4.28,0-6.86-3.2-6.86-6.99s2.66-6.96,6.59-6.96c4.17,0,6.56,3.63,6.34,7.78Zm-10.68-1.82h8.4c-.38-2.2-1.87-3.82-4.09-3.82s-3.93,1.6-4.31,3.82Z"/><path class="p" d="M635.42,98.15v13.55h-2.14v-2.44c-1.06,1.57-2.74,2.63-4.88,2.63-3.77,0-6.37-3.09-6.37-6.96s2.6-6.96,6.37-6.96c2.14,0,3.82,1.06,4.88,2.63v-2.44h2.14Zm-2.14,6.78c0-2.6-1.92-4.88-4.55-4.88s-4.47,2.2-4.47,4.88,1.84,4.88,4.47,4.88,4.55-2.28,4.55-4.88Z"/><path class="p" d="M645.06,100.21h-2.79v11.49h-2.17v-11.49h-1.73v-2.06h1.73v-3.63h2.17v3.63h2.79v2.06Z"/><path class="p" d="M667.53,103.76v7.94h-2.17v-7.56c0-2.58-1.27-4.25-3.36-4.25s-3.36,1.68-3.36,4.39v7.42h-2.17v-7.56c0-2.58-1.27-4.25-3.36-4.25s-3.36,1.68-3.36,4.39v7.42h-2.14v-13.55h2.14v1.95c.76-1.22,2.11-2.22,3.98-2.22s3.5,.98,4.34,2.9c.79-1.54,2.28-2.9,4.53-2.9,2.74,0,4.93,2.03,4.93,5.88Z"/><path class="p" d="M670.4,104.93c0-3.77,2.82-6.99,6.88-6.99s6.88,3.22,6.88,6.99-2.79,6.99-6.88,6.99-6.88-3.22-6.88-6.99Zm11.57-.03c0-2.6-1.87-4.82-4.69-4.82s-4.69,2.22-4.69,4.82,1.92,4.88,4.69,4.88,4.69-2.28,4.69-4.88Z"/><path class="p" d="M686.25,109.78l1.38-1.6c.84,.89,2,1.65,3.31,1.65s2.25-.7,2.25-1.76c0-2.98-6.61-1.95-6.59-6.5,.03-2,1.71-3.63,4.2-3.63,1.84-.03,3.39,.98,4.23,1.92l-1.27,1.57c-.65-.62-1.71-1.41-2.93-1.41s-2,.65-2,1.57c-.05,2.76,6.58,1.79,6.56,6.5,0,2.17-1.82,3.82-4.53,3.82-1.71,0-3.58-.92-4.61-2.14Z"/><path class="p" d="M712.02,104.93c0,3.88-2.6,6.96-6.37,6.96-2.14,0-3.82-1.06-4.88-2.63v7.86h-2.14v-18.97h2.14v2.44c1.06-1.57,2.74-2.63,4.88-2.63,3.77,0,6.37,3.09,6.37,6.96Zm-2.22,0c0-2.68-1.84-4.88-4.47-4.88s-4.55,2.28-4.55,4.88,1.92,4.88,4.55,4.88,4.47-2.19,4.47-4.88Z"/><path class="p" d="M726.84,103.98v7.72h-2.17v-7.37c0-2.93-1.46-4.44-3.55-4.44s-3.63,1.52-3.63,4.44v7.37h-2.14v-21.68h2.14v10.19c.79-1.33,2.28-2.33,4.23-2.33,2.71,0,5.12,2.01,5.12,6.1Z"/><path class="p" d="M742.64,105.74h-10.7c.33,2.41,2.11,4.09,4.74,4.09,1.84,0,3.31-.65,4.53-1.65v2.28c-1.14,.89-2.76,1.46-4.63,1.46-4.28,0-6.86-3.2-6.86-6.99s2.66-6.96,6.58-6.96c4.17,0,6.56,3.63,6.34,7.78Zm-10.68-1.82h8.4c-.38-2.2-1.87-3.82-4.09-3.82s-3.93,1.6-4.31,3.82Z"/><path class="p" d="M751.96,97.91v2.49c-2.03-.24-3.93,1.14-3.93,4.01v7.29h-2.14v-13.55h2.14v2.41c.71-1.38,2.09-2.66,3.93-2.66Z"/><path class="p" d="M766,105.74h-10.7c.33,2.41,2.11,4.09,4.74,4.09,1.84,0,3.31-.65,4.53-1.65v2.28c-1.14,.89-2.76,1.46-4.63,1.46-4.28,0-6.86-3.2-6.86-6.99s2.66-6.96,6.59-6.96c4.17,0,6.56,3.63,6.34,7.78Zm-10.68-1.82h8.4c-.38-2.2-1.87-3.82-4.09-3.82s-3.93,1.6-4.31,3.82Z"/></g><g><path class="o" d="M4.39,98.39c0-.77,.58-1.38,1.34-1.38s1.38,.61,1.38,1.38-.61,1.34-1.38,1.34-1.34-.58-1.34-1.34Zm.42,4.54h1.92v16h-1.92v-16Z"/><path class="o" d="M25.6,109.9v9.02h-1.89v-8.67c0-3.84-1.89-5.82-4.67-5.82-2.46,0-4.45,1.7-4.7,5.02v9.47h-1.92v-16h1.92v2.62c.93-1.63,2.75-2.91,5.12-2.91,3.3,0,6.14,2.34,6.14,7.26Z"/><path class="o" d="M29.63,116.66l1.31-1.41c.96,1.18,2.37,2.08,3.9,2.08,1.73,0,3.1-.99,3.1-2.56,0-4-7.97-2.69-7.94-8,.03-2.3,1.98-4.06,4.67-4.1,2.11,0,3.87,1.18,4.83,2.27l-1.18,1.38c-.8-.86-2.05-1.79-3.62-1.79s-2.75,.96-2.78,2.24c-.06,3.71,7.97,2.43,7.94,8.03-.03,2.46-2.05,4.38-5.09,4.38-1.98,0-4.06-1.12-5.15-2.53Z"/><path class="o" d="M43.94,98.39c0-.77,.58-1.38,1.34-1.38s1.38,.61,1.38,1.38-.61,1.34-1.38,1.34-1.34-.58-1.34-1.34Zm.42,4.54h1.92v16h-1.92v-16Z"/><path class="o" d="M66.4,93.33v25.6h-1.92v-3.3c-1.25,2.08-3.39,3.52-6.08,3.52-4.45,0-7.55-3.68-7.55-8.19s3.1-8.22,7.55-8.22c2.69,0,4.83,1.44,6.08,3.55v-12.96h1.92Zm-1.92,17.63c0-3.42-2.46-6.37-5.89-6.37s-5.79,2.91-5.79,6.37,2.37,6.34,5.79,6.34,5.89-2.91,5.89-6.34Z"/><path class="o" d="M85.76,111.6h-13.21c.29,3.26,2.59,5.73,6.14,5.73,2.24,0,4.06-.9,5.44-2.21v2.18c-1.38,1.12-3.3,1.86-5.5,1.86-5.02,0-8.03-3.78-8.03-8.22s3.14-8.19,7.71-8.19,7.55,4.16,7.46,8.86Zm-13.18-1.7h11.14c-.42-2.98-2.4-5.31-5.41-5.31s-5.31,2.3-5.73,5.31Z"/><path class="o" d="M106.5,104.79h-3.3v14.14h-1.92v-14.14h-2.05v-1.86h2.05v-4.29h1.92v4.29h3.3v1.86Z"/><path class="o" d="M122.91,109.9v9.02h-1.89v-8.67c0-3.84-1.89-5.82-4.67-5.82s-4.74,1.98-4.74,5.82v8.67h-1.92v-25.6h1.92v12.25c.93-1.63,2.75-2.94,5.15-2.94,3.3,0,6.14,2.34,6.14,7.26Z"/><path class="o" d="M141.54,111.6h-13.21c.29,3.26,2.59,5.73,6.14,5.73,2.24,0,4.06-.9,5.44-2.21v2.18c-1.38,1.12-3.3,1.86-5.5,1.86-5.02,0-8.03-3.78-8.03-8.22s3.14-8.19,7.71-8.19,7.55,4.16,7.46,8.86Zm-13.18-1.7h11.13c-.42-2.98-2.4-5.31-5.41-5.31s-5.31,2.3-5.73,5.31Z"/><path class="o" d="M169.79,109.9v9.02h-1.89v-8.67c0-3.84-1.89-5.82-4.67-5.82-2.46,0-4.45,1.7-4.7,5.02v9.47h-1.92v-16h1.92v2.62c.93-1.63,2.75-2.91,5.12-2.91,3.3,0,6.14,2.34,6.14,7.26Z"/><path class="o" d="M173.25,110.9c0-4.42,3.3-8.22,8.1-8.22s8.1,3.81,8.1,8.22-3.3,8.25-8.1,8.25-8.1-3.81-8.1-8.25Zm14.27,0c0-3.39-2.5-6.34-6.18-6.34s-6.14,2.94-6.14,6.34,2.5,6.37,6.14,6.37,6.18-2.98,6.18-6.37Z"/><path class="o" d="M208.06,93.33v25.6h-1.92v-3.3c-1.25,2.08-3.39,3.52-6.08,3.52-4.45,0-7.55-3.68-7.55-8.19s3.1-8.22,7.55-8.22c2.69,0,4.83,1.44,6.08,3.55v-12.96h1.92Zm-1.92,17.63c0-3.42-2.46-6.37-5.89-6.37s-5.79,2.91-5.79,6.37,2.37,6.34,5.79,6.34,5.89-2.91,5.89-6.34Z"/><path class="o" d="M226.3,102.93v16h-1.92v-2.62c-.93,1.63-2.75,2.91-5.12,2.91-3.3,0-6.14-2.34-6.14-7.26v-9.02h1.89v8.67c0,3.84,1.89,5.82,4.67,5.82,2.46,0,4.45-1.7,4.7-5.02v-9.47h1.92Z"/><path class="o" d="M231.61,93.33h1.92v25.6h-1.92v-25.6Z"/><path class="o" d="M252.89,111.6h-13.21c.29,3.26,2.59,5.73,6.14,5.73,2.24,0,4.06-.9,5.44-2.21v2.18c-1.38,1.12-3.3,1.86-5.5,1.86-5.02,0-8.03-3.78-8.03-8.22s3.14-8.19,7.71-8.19,7.55,4.16,7.46,8.86Zm-13.18-1.7h11.14c-.42-2.98-2.4-5.31-5.41-5.31s-5.31,2.3-5.73,5.31Z"/><path class="o" d="M256.29,114.9h1.95l-1.57,7.52h-1.38l.99-7.52Z"/><path class="o" d="M19.91,149.33c0,4.51-3.1,8.22-7.55,8.22-2.66,0-4.8-1.41-6.05-3.49v9.66h-1.92v-22.4h1.92v3.3c1.25-2.08,3.39-3.49,6.05-3.49,4.45,0,7.55,3.68,7.55,8.19Zm-1.95,0c0-3.49-2.37-6.34-5.79-6.34-3.2,0-5.57,2.53-5.86,5.66v1.34c.29,3.14,2.66,5.7,5.86,5.7,3.42,0,5.79-2.91,5.79-6.37Z"/><path class="o" d="M24.1,131.73h1.92v25.6h-1.92v-25.6Z"/><path class="o" d="M45.76,141.33v16h-1.92v-3.3c-1.25,2.08-3.39,3.52-6.08,3.52-4.45,0-7.55-3.68-7.55-8.19s3.1-8.22,7.55-8.22c2.69,0,4.83,1.44,6.08,3.55v-3.36h1.92Zm-1.92,8.03c0-3.42-2.46-6.37-5.89-6.37s-5.79,2.91-5.79,6.37,2.37,6.34,5.79,6.34,5.89-2.91,5.89-6.34Z"/><path class="o" d="M64.26,148.31v9.02h-1.89v-8.67c0-3.84-1.89-5.82-4.67-5.82-2.46,0-4.45,1.7-4.7,5.02v9.47h-1.92v-16h1.92v2.62c.93-1.63,2.75-2.91,5.12-2.91,3.3,0,6.14,2.34,6.14,7.26Z"/><path class="o" d="M74.98,143.19h-3.3v14.14h-1.92v-14.14h-2.05v-1.86h2.05v-4.29h1.92v4.29h3.3v1.86Z"/><path class="o" d="M76.61,155.06l1.31-1.41c.96,1.18,2.37,2.08,3.9,2.08,1.73,0,3.1-.99,3.1-2.56,0-4-7.97-2.69-7.93-8,.03-2.3,1.98-4.06,4.67-4.1,2.11,0,3.87,1.18,4.83,2.27l-1.18,1.38c-.8-.86-2.05-1.79-3.62-1.79s-2.75,.96-2.78,2.24c-.06,3.71,7.97,2.43,7.93,8.03-.03,2.46-2.05,4.38-5.09,4.38-1.98,0-4.06-1.12-5.15-2.53Z"/><path class="o" d="M117.47,149.33c0,4.51-3.1,8.22-7.55,8.22-2.66,0-4.8-1.41-6.05-3.49v9.66h-1.92v-22.4h1.92v3.3c1.25-2.08,3.39-3.49,6.05-3.49,4.45,0,7.55,3.68,7.55,8.19Zm-1.95,0c0-3.49-2.37-6.34-5.79-6.34-3.2,0-5.57,2.53-5.86,5.66v1.34c.29,3.14,2.66,5.7,5.86,5.7,3.42,0,5.79-2.91,5.79-6.37Z"/><path class="o" d="M128.19,141.07v2.18c-2.59-.19-4.61,1.98-4.61,5.28v8.8h-1.92v-16h1.92v2.94c.83-1.66,2.37-3.2,4.61-3.2Z"/><path class="o" d="M129.63,149.3c0-4.42,3.3-8.22,8.1-8.22s8.09,3.81,8.09,8.22-3.29,8.25-8.09,8.25-8.1-3.81-8.1-8.25Zm14.27,0c0-3.39-2.5-6.34-6.17-6.34s-6.14,2.94-6.14,6.34,2.5,6.37,6.14,6.37,6.17-2.98,6.17-6.37Z"/><path class="o" d="M162.66,141.33l-7.2,16.06h-1.06l-7.26-16.06h2.08l5.7,13.02,5.7-13.02h2.05Z"/><path class="o" d="M165.44,136.79c0-.77,.58-1.38,1.34-1.38s1.38,.61,1.38,1.38-.61,1.34-1.38,1.34-1.34-.58-1.34-1.34Zm.42,4.54h1.92v16h-1.92v-16Z"/><path class="o" d="M187.9,131.73v25.6h-1.92v-3.3c-1.25,2.08-3.39,3.52-6.08,3.52-4.45,0-7.55-3.68-7.55-8.19s3.1-8.22,7.55-8.22c2.69,0,4.83,1.44,6.08,3.55v-12.96h1.92Zm-1.92,17.63c0-3.42-2.46-6.37-5.89-6.37s-5.79,2.91-5.79,6.37,2.37,6.34,5.79,6.34,5.89-2.91,5.89-6.34Z"/><path class="o" d="M207.26,150h-13.21c.29,3.26,2.59,5.73,6.14,5.73,2.24,0,4.06-.9,5.44-2.21v2.18c-1.38,1.12-3.3,1.86-5.5,1.86-5.02,0-8.03-3.78-8.03-8.22s3.14-8.19,7.71-8.19,7.55,4.16,7.46,8.86Zm-13.18-1.7h11.13c-.42-2.98-2.4-5.31-5.41-5.31s-5.31,2.3-5.73,5.31Z"/><path class="o" d="M3.27,187.73c0-4.45,3.2-8.26,8.16-8.26,2.21,0,4,.74,5.34,1.89v2.37c-1.12-1.34-3.01-2.37-5.28-2.37-3.78,0-6.3,2.91-6.3,6.37s2.53,6.37,6.3,6.37c2.27,0,4.16-1.02,5.28-2.37v2.37c-1.34,1.15-3.14,1.89-5.34,1.89-4.96,0-8.16-3.81-8.16-8.25Z"/><path class="o" d="M35.71,179.73v16h-1.92v-3.3c-1.25,2.08-3.39,3.52-6.08,3.52-4.45,0-7.55-3.68-7.55-8.19s3.1-8.22,7.55-8.22c2.69,0,4.83,1.44,6.08,3.55v-3.36h1.92Zm-1.92,8.03c0-3.42-2.46-6.37-5.89-6.37s-5.79,2.91-5.79,6.37,2.37,6.34,5.79,6.34,5.89-2.91,5.89-6.34Z"/><path class="o" d="M47.55,179.47v2.18c-2.59-.19-4.61,1.98-4.61,5.28v8.8h-1.92v-16h1.92v2.94c.83-1.66,2.37-3.2,4.61-3.2Z"/><path class="o" d="M66.31,187.73c0,4.51-3.1,8.22-7.55,8.22-2.69,0-4.83-1.44-6.08-3.55v3.33h-1.92v-25.6h1.92v12.93c1.25-2.08,3.39-3.52,6.08-3.52,4.45,0,7.55,3.68,7.55,8.19Zm-1.95,0c0-3.49-2.37-6.34-5.79-6.34s-5.89,2.91-5.89,6.34,2.46,6.37,5.89,6.37,5.79-2.91,5.79-6.37Z"/><path class="o" d="M69.38,187.7c0-4.42,3.3-8.22,8.1-8.22s8.1,3.81,8.1,8.22-3.3,8.25-8.1,8.25-8.1-3.81-8.1-8.25Zm14.27,0c0-3.39-2.5-6.34-6.18-6.34s-6.14,2.94-6.14,6.34,2.5,6.37,6.14,6.37,6.18-2.98,6.18-6.37Z"/><path class="o" d="M102.95,186.7v9.02h-1.89v-8.67c0-3.84-1.89-5.82-4.67-5.82-2.46,0-4.45,1.7-4.7,5.02v9.47h-1.92v-16h1.92v2.62c.93-1.63,2.75-2.91,5.12-2.91,3.3,0,6.14,2.34,6.14,7.26Z"/><path class="o" d="M124.71,181.59h-3.3v14.14h-1.92v-14.14h-2.05v-1.86h2.05v-4.29h1.92v4.29h3.3v1.86Z"/><path class="o" d="M126.15,187.7c0-4.42,3.3-8.22,8.1-8.22s8.09,3.81,8.09,8.22-3.29,8.25-8.09,8.25-8.1-3.81-8.1-8.25Zm14.27,0c0-3.39-2.5-6.34-6.17-6.34s-6.14,2.94-6.14,6.34,2.5,6.37,6.14,6.37,6.17-2.98,6.17-6.37Z"/><path class="o" d="M159.9,173.49v6.24h3.33v1.86h-3.33v14.14h-1.89v-14.14h-2.05v-1.86h2.05v-6.59c0-2.05,1.31-3.2,3.01-3.2,.93,0,1.66,.29,2.21,.64v1.98c-.51-.32-1.06-.67-1.86-.67s-1.47,.58-1.47,1.6Z"/><path class="o" d="M179.84,188.4h-13.21c.29,3.26,2.59,5.73,6.14,5.73,2.24,0,4.06-.9,5.44-2.21v2.18c-1.38,1.12-3.3,1.86-5.5,1.86-5.02,0-8.03-3.78-8.03-8.22s3.14-8.19,7.71-8.19,7.55,4.16,7.46,8.86Zm-13.18-1.7h11.14c-.42-2.98-2.4-5.31-5.41-5.31s-5.31,2.3-5.73,5.31Z"/><path class="o" d="M197.92,188.4h-13.21c.29,3.26,2.59,5.73,6.14,5.73,2.24,0,4.06-.9,5.44-2.21v2.18c-1.38,1.12-3.3,1.86-5.5,1.86-5.02,0-8.03-3.78-8.03-8.22s3.14-8.19,7.71-8.19,7.55,4.16,7.46,8.86Zm-13.18-1.7h11.13c-.42-2.98-2.4-5.31-5.41-5.31s-5.31,2.3-5.73,5.31Z"/><path class="o" d="M216.38,170.13v25.6h-1.92v-3.3c-1.25,2.08-3.39,3.52-6.08,3.52-4.45,0-7.55-3.68-7.55-8.19s3.1-8.22,7.55-8.22c2.69,0,4.83,1.44,6.08,3.55v-12.96h1.92Zm-1.92,17.63c0-3.42-2.46-6.37-5.89-6.37s-5.79,2.91-5.79,6.37,2.37,6.34,5.79,6.34,5.89-2.91,5.89-6.34Z"/><path class="o" d="M238.4,181.59h-3.3v14.14h-1.92v-14.14h-2.05v-1.86h2.05v-4.29h1.92v4.29h3.3v1.86Z"/><path class="o" d="M254.81,186.7v9.02h-1.89v-8.67c0-3.84-1.89-5.82-4.67-5.82s-4.74,1.98-4.74,5.82v8.67h-1.92v-25.6h1.92v12.26c.93-1.63,2.75-2.94,5.15-2.94,3.3,0,6.14,2.34,6.14,7.26Z"/><path class="o" d="M273.44,188.4h-13.21c.29,3.26,2.59,5.73,6.14,5.73,2.24,0,4.06-.9,5.44-2.21v2.18c-1.38,1.12-3.3,1.86-5.5,1.86-5.02,0-8.03-3.78-8.03-8.22s3.14-8.19,7.71-8.19,7.55,4.16,7.46,8.86Zm-13.18-1.7h11.13c-.42-2.98-2.4-5.31-5.41-5.31s-5.31,2.3-5.73,5.31Z"/><path class="o" d="M19.94,226.13c0,4.51-3.1,8.22-7.55,8.22-2.69,0-4.83-1.44-6.08-3.55v3.33h-1.92v-25.6h1.92v12.93c1.25-2.08,3.39-3.52,6.08-3.52,4.45,0,7.55,3.68,7.55,8.19Zm-1.95,0c0-3.49-2.37-6.34-5.79-6.34s-5.89,2.91-5.89,6.34,2.46,6.37,5.89,6.37,5.79-2.91,5.79-6.37Z"/><path class="o" d="M38.56,218.13v16h-1.92v-3.3c-1.25,2.08-3.39,3.52-6.08,3.52-4.45,0-7.55-3.68-7.55-8.19s3.1-8.22,7.55-8.22c2.69,0,4.83,1.44,6.08,3.55v-3.36h1.92Zm-1.92,8.03c0-3.42-2.46-6.37-5.89-6.37s-5.79,2.91-5.79,6.37,2.37,6.34,5.79,6.34,5.89-2.91,5.89-6.34Z"/><path class="o" d="M42.75,226.13c0-4.45,3.2-8.26,8.16-8.26,2.21,0,4,.74,5.34,1.89v2.37c-1.12-1.34-3.01-2.37-5.28-2.37-3.78,0-6.3,2.91-6.3,6.37s2.53,6.37,6.3,6.37c2.27,0,4.16-1.02,5.28-2.37v2.37c-1.34,1.15-3.14,1.89-5.34,1.89-4.96,0-8.16-3.81-8.16-8.25Z"/><path class="o" d="M66.43,219.99h-3.3v14.14h-1.92v-14.14h-2.05v-1.86h2.05v-4.29h1.92v4.29h3.3v1.86Z"/><path class="o" d="M83.04,226.8h-13.21c.29,3.26,2.59,5.73,6.14,5.73,2.24,0,4.06-.9,5.44-2.21v2.18c-1.38,1.12-3.3,1.86-5.5,1.86-5.02,0-8.03-3.78-8.03-8.22s3.14-8.19,7.71-8.19,7.55,4.16,7.46,8.86Zm-13.18-1.7h11.14c-.42-2.98-2.4-5.31-5.41-5.31s-5.31,2.3-5.73,5.31Z"/><path class="o" d="M93.6,217.87v2.18c-2.59-.19-4.61,1.98-4.61,5.28v8.8h-1.92v-16h1.92v2.94c.83-1.66,2.37-3.2,4.61-3.2Z"/><path class="o" d="M96.8,213.59c0-.77,.58-1.38,1.34-1.38s1.38,.61,1.38,1.38-.61,1.34-1.38,1.34-1.34-.58-1.34-1.34Zm.42,4.54h1.92v16h-1.92v-16Z"/><path class="o" d="M119.26,218.13v16h-1.92v-3.3c-1.25,2.08-3.39,3.52-6.08,3.52-4.45,0-7.55-3.68-7.55-8.19s3.1-8.22,7.55-8.22c2.69,0,4.83,1.44,6.08,3.55v-3.36h1.92Zm-1.92,8.03c0-3.42-2.46-6.37-5.89-6.37s-5.79,2.91-5.79,6.37,2.37,6.34,5.79,6.34,5.89-2.91,5.89-6.34Z"/><path class="o" d="M123.11,232.94c0-.74,.58-1.34,1.34-1.34s1.34,.61,1.34,1.34-.61,1.34-1.34,1.34-1.34-.58-1.34-1.34Z"/><path class="o" d="M146.3,219.99h-3.3v14.14h-1.92v-14.14h-2.05v-1.86h2.05v-4.29h1.92v4.29h3.3v1.86Z"/><path class="o" d="M162.72,225.1v9.02h-1.89v-8.67c0-3.84-1.89-5.82-4.67-5.82s-4.74,1.98-4.74,5.82v8.67h-1.92v-25.6h1.92v12.26c.93-1.63,2.75-2.94,5.15-2.94,3.3,0,6.14,2.34,6.14,7.26Z"/><path class="o" d="M167.78,213.59c0-.77,.58-1.38,1.34-1.38s1.38,.61,1.38,1.38-.61,1.34-1.38,1.34-1.34-.58-1.34-1.34Zm.42,4.54h1.92v16h-1.92v-16Z"/><path class="o" d="M174.56,231.86l1.31-1.41c.96,1.18,2.37,2.08,3.9,2.08,1.73,0,3.1-.99,3.1-2.56,0-4-7.97-2.69-7.94-8,.03-2.3,1.98-4.06,4.67-4.1,2.11,0,3.87,1.18,4.83,2.27l-1.18,1.38c-.8-.86-2.05-1.79-3.62-1.79s-2.75,.96-2.78,2.24c-.06,3.71,7.97,2.43,7.94,8.03-.03,2.46-2.05,4.38-5.09,4.38-1.98,0-4.06-1.12-5.15-2.53Z"/><path class="o" d="M202.24,211.89v6.24h3.33v1.86h-3.33v14.14h-1.89v-14.14h-2.05v-1.86h2.05v-6.59c0-2.05,1.31-3.2,3.01-3.2,.93,0,1.66,.29,2.21,.64v1.98c-.51-.32-1.06-.67-1.86-.67s-1.47,.58-1.47,1.6Z"/><path class="o" d="M221.69,218.13v16h-1.92v-2.62c-.93,1.63-2.75,2.91-5.12,2.91-3.3,0-6.14-2.34-6.14-7.26v-9.02h1.89v8.67c0,3.84,1.89,5.82,4.67,5.82,2.46,0,4.45-1.7,4.7-5.02v-9.47h1.92Z"/><path class="o" d="M241.05,226.8h-13.21c.29,3.26,2.59,5.73,6.14,5.73,2.24,0,4.06-.9,5.44-2.21v2.18c-1.38,1.12-3.3,1.86-5.5,1.86-5.02,0-8.03-3.78-8.03-8.22s3.14-8.19,7.71-8.19,7.55,4.16,7.46,8.86Zm-13.18-1.7h11.13c-.42-2.98-2.4-5.31-5.41-5.31s-5.31,2.3-5.73,5.31Z"/><path class="o" d="M245.09,208.53h1.92v25.6h-1.92v-25.6Z"/><path class="o" d="M251.07,231.86l1.31-1.41c.96,1.18,2.37,2.08,3.9,2.08,1.73,0,3.1-.99,3.1-2.56,0-4-7.97-2.69-7.93-8,.03-2.3,1.98-4.06,4.67-4.1,2.11,0,3.87,1.18,4.83,2.27l-1.18,1.38c-.8-.86-2.05-1.79-3.62-1.79s-2.75,.96-2.78,2.24c-.06,3.71,7.97,2.43,7.93,8.03-.03,2.46-2.05,4.38-5.09,4.38-1.98,0-4.06-1.12-5.15-2.53Z"/><path class="o" d="M10.05,258.39h-3.3v14.14h-1.92v-14.14H2.79v-1.86h2.05v-4.29h1.92v4.29h3.3v1.86Z"/><path class="o" d="M26.47,263.5v9.02h-1.89v-8.67c0-3.84-1.89-5.82-4.67-5.82s-4.74,1.98-4.74,5.82v8.67h-1.92v-25.6h1.92v12.25c.93-1.63,2.75-2.94,5.15-2.94,3.3,0,6.14,2.34,6.14,7.26Z"/><path class="o" d="M45.09,265.2h-13.21c.29,3.26,2.59,5.73,6.14,5.73,2.24,0,4.06-.9,5.44-2.21v2.18c-1.38,1.12-3.3,1.86-5.5,1.86-5.02,0-8.03-3.78-8.03-8.22s3.14-8.19,7.71-8.19,7.55,4.16,7.46,8.86Zm-13.18-1.7h11.13c-.42-2.98-2.4-5.31-5.41-5.31s-5.31,2.3-5.73,5.31Z"/><path class="o" d="M74.21,265.2h-13.21c.29,3.26,2.59,5.73,6.14,5.73,2.24,0,4.06-.9,5.44-2.21v2.18c-1.38,1.12-3.3,1.86-5.5,1.86-5.02,0-8.03-3.78-8.03-8.22s3.14-8.19,7.71-8.19,7.55,4.16,7.46,8.86Zm-13.18-1.7h11.13c-.42-2.98-2.4-5.31-5.41-5.31s-5.31,2.3-5.73,5.31Z"/><path class="o" d="M91.42,263.5v9.02h-1.89v-8.67c0-3.84-1.89-5.82-4.67-5.82-2.46,0-4.45,1.7-4.7,5.02v9.47h-1.92v-16h1.92v2.62c.93-1.63,2.75-2.91,5.12-2.91,3.3,0,6.14,2.34,6.14,7.26Z"/><path class="o" d="M110.05,265.2h-13.21c.29,3.26,2.59,5.73,6.14,5.73,2.24,0,4.06-.9,5.44-2.21v2.18c-1.38,1.12-3.3,1.86-5.5,1.86-5.02,0-8.03-3.78-8.03-8.22s3.14-8.19,7.71-8.19,7.55,4.16,7.46,8.86Zm-13.18-1.7h11.14c-.42-2.98-2.4-5.31-5.41-5.31s-5.31,2.3-5.73,5.31Z"/><path class="o" d="M120.61,256.27v2.18c-2.59-.19-4.61,1.98-4.61,5.28v8.8h-1.92v-16h1.92v2.94c.83-1.66,2.37-3.2,4.61-3.2Z"/><path class="o" d="M137.6,271.82c0,4.99-3.81,7.33-7.55,7.33-2.43,0-4.38-.8-5.98-1.79l.03-2.08c1.7,1.22,3.68,2.08,5.73,2.08,3.36,0,5.92-2.05,5.92-5.98v-2.24c-1.25,2.14-3.42,3.62-6.14,3.62-4.45,0-7.55-3.68-7.55-8.19s3.1-8.22,7.55-8.22c2.69,0,4.83,1.44,6.08,3.58v-3.39h1.89l.03,15.29Zm-1.92-7.26c0-3.42-2.46-6.37-5.89-6.37s-5.79,2.91-5.79,6.37,2.37,6.34,5.79,6.34,5.89-2.91,5.89-6.34Z"/><path class="o" d="M155.81,256.53l-9.54,22.4h-1.92l2.88-6.78-6.72-15.62h2.08l5.6,13.5,5.54-13.5h2.08Z"/><path class="o" d="M168.96,251.98c0-.77,.58-1.38,1.34-1.38s1.38,.61,1.38,1.38-.61,1.34-1.38,1.34-1.34-.58-1.34-1.34Zm.42,4.54h1.92v16h-1.92v-16Z"/><path class="o" d="M190.17,263.5v9.02h-1.89v-8.67c0-3.84-1.89-5.82-4.67-5.82-2.46,0-4.45,1.7-4.7,5.02v9.47h-1.92v-16h1.92v2.62c.93-1.63,2.75-2.91,5.12-2.91,3.3,0,6.14,2.34,6.14,7.26Z"/><path class="o" d="M200.9,258.39h-3.3v14.14h-1.92v-14.14h-2.05v-1.86h2.05v-4.29h1.92v4.29h3.3v1.86Z"/><path class="o" d="M217.5,265.2h-13.21c.29,3.26,2.59,5.73,6.14,5.73,2.24,0,4.06-.9,5.44-2.21v2.18c-1.38,1.12-3.3,1.86-5.5,1.86-5.02,0-8.03-3.78-8.03-8.22s3.14-8.19,7.71-8.19,7.55,4.16,7.46,8.86Zm-13.18-1.7h11.14c-.42-2.98-2.4-5.31-5.41-5.31s-5.31,2.3-5.73,5.31Z"/><path class="o" d="M234.72,263.5v9.02h-1.89v-8.67c0-3.84-1.89-5.82-4.67-5.82-2.46,0-4.45,1.7-4.7,5.02v9.47h-1.92v-16h1.92v2.62c.93-1.63,2.75-2.91,5.12-2.91,3.3,0,6.14,2.34,6.14,7.26Z"/><path class="o" d="M238.75,270.26l1.31-1.41c.96,1.18,2.37,2.08,3.9,2.08,1.73,0,3.1-.99,3.1-2.56,0-4-7.97-2.69-7.94-8,.03-2.3,1.98-4.06,4.67-4.1,2.11,0,3.87,1.18,4.83,2.27l-1.18,1.38c-.8-.86-2.05-1.79-3.62-1.79s-2.75,.96-2.78,2.24c-.06,3.71,7.97,2.43,7.94,8.03-.03,2.46-2.05,4.38-5.09,4.38-1.98,0-4.06-1.12-5.15-2.53Z"/><path class="o" d="M253.05,251.98c0-.77,.58-1.38,1.34-1.38s1.38,.61,1.38,1.38-.61,1.34-1.38,1.34-1.34-.58-1.34-1.34Zm.42,4.54h1.92v16h-1.92v-16Z"/><path class="o" d="M274.05,256.53l-7.2,16.06h-1.06l-7.26-16.06h2.08l5.7,13.02,5.7-13.02h2.05Z"/><path class="o" d="M290.56,265.2h-13.21c.29,3.26,2.59,5.73,6.14,5.73,2.24,0,4.06-.9,5.44-2.21v2.18c-1.38,1.12-3.3,1.86-5.5,1.86-5.02,0-8.03-3.78-8.03-8.22s3.14-8.19,7.71-8.19,7.55,4.16,7.46,8.86Zm-13.18-1.7h11.14c-.42-2.98-2.4-5.31-5.41-5.31s-5.31,2.3-5.73,5.31Z"/><path class="o" d="M19.91,302.93c0,4.51-3.1,8.22-7.55,8.22-2.66,0-4.8-1.41-6.05-3.49v9.66h-1.92v-22.4h1.92v3.3c1.25-2.08,3.39-3.49,6.05-3.49,4.45,0,7.55,3.68,7.55,8.19Zm-1.95,0c0-3.49-2.37-6.34-5.79-6.34-3.2,0-5.57,2.53-5.86,5.66v1.34c.29,3.14,2.66,5.7,5.86,5.7,3.42,0,5.79-2.91,5.79-6.37Z"/><path class="o" d="M30.63,294.67v2.18c-2.59-.19-4.61,1.98-4.61,5.28v8.8h-1.92v-16h1.92v2.94c.83-1.66,2.37-3.2,4.61-3.2Z"/><path class="o" d="M32.07,302.9c0-4.42,3.3-8.22,8.1-8.22s8.09,3.81,8.09,8.22-3.29,8.25-8.09,8.25-8.1-3.81-8.1-8.25Zm14.27,0c0-3.39-2.5-6.34-6.17-6.34s-6.14,2.94-6.14,6.34,2.5,6.37,6.14,6.37,6.17-2.98,6.17-6.37Z"/><path class="o" d="M51.33,302.93c0-4.45,3.2-8.26,8.16-8.26,2.21,0,4,.74,5.34,1.89v2.37c-1.12-1.34-3.01-2.37-5.28-2.37-3.78,0-6.3,2.91-6.3,6.37s2.53,6.37,6.3,6.37c2.27,0,4.16-1.02,5.28-2.37v2.37c-1.34,1.15-3.14,1.89-5.34,1.89-4.96,0-8.16-3.81-8.16-8.25Z"/><path class="o" d="M83.39,303.6h-13.21c.29,3.26,2.59,5.73,6.14,5.73,2.24,0,4.06-.9,5.44-2.21v2.18c-1.38,1.12-3.3,1.86-5.5,1.86-5.02,0-8.03-3.78-8.03-8.22s3.14-8.19,7.71-8.19,7.55,4.16,7.46,8.86Zm-13.18-1.7h11.13c-.42-2.98-2.4-5.31-5.41-5.31s-5.31,2.3-5.73,5.31Z"/><path class="o" d="M86.02,308.66l1.31-1.41c.96,1.18,2.37,2.08,3.9,2.08,1.73,0,3.1-.99,3.1-2.56,0-4-7.97-2.69-7.93-8,.03-2.3,1.98-4.06,4.67-4.1,2.11,0,3.87,1.18,4.83,2.27l-1.18,1.38c-.8-.86-2.05-1.79-3.62-1.79s-2.75,.96-2.78,2.24c-.06,3.71,7.97,2.43,7.93,8.03-.03,2.46-2.05,4.38-5.09,4.38-1.98,0-4.06-1.12-5.15-2.53Z"/><path class="o" d="M99.07,308.66l1.31-1.41c.96,1.18,2.37,2.08,3.9,2.08,1.73,0,3.1-.99,3.1-2.56,0-4-7.97-2.69-7.93-8,.03-2.3,1.98-4.06,4.67-4.1,2.11,0,3.87,1.18,4.83,2.27l-1.18,1.38c-.8-.86-2.05-1.79-3.62-1.79s-2.75,.96-2.78,2.24c-.06,3.71,7.97,2.43,7.93,8.03-.03,2.46-2.05,4.38-5.09,4.38-1.98,0-4.06-1.12-5.15-2.53Z"/><path class="o" d="M123.3,302.9c0-4.42,3.3-8.22,8.1-8.22s8.09,3.81,8.09,8.22-3.29,8.25-8.09,8.25-8.1-3.81-8.1-8.25Zm14.27,0c0-3.39-2.5-6.34-6.17-6.34s-6.14,2.94-6.14,6.34,2.5,6.37,6.14,6.37,6.17-2.98,6.17-6.37Z"/><path class="o" d="M145.6,288.69v6.24h3.33v1.86h-3.33v14.14h-1.89v-14.14h-2.05v-1.86h2.05v-6.59c0-2.05,1.31-3.2,3.01-3.2,.93,0,1.66,.29,2.21,.64v1.98c-.51-.32-1.06-.67-1.86-.67s-1.47,.58-1.47,1.6Z"/><path class="o" d="M178.72,302.93c0,4.51-3.1,8.22-7.55,8.22-2.69,0-4.83-1.44-6.08-3.55v3.33h-1.92v-25.6h1.92v12.93c1.25-2.08,3.39-3.52,6.08-3.52,4.45,0,7.55,3.68,7.55,8.19Zm-1.95,0c0-3.49-2.37-6.34-5.79-6.34s-5.89,2.91-5.89,6.34,2.46,6.37,5.89,6.37,5.79-2.91,5.79-6.37Z"/><path class="o" d="M189.44,294.67v2.18c-2.59-.19-4.61,1.98-4.61,5.28v8.8h-1.92v-16h1.92v2.94c.83-1.66,2.37-3.2,4.61-3.2Z"/><path class="o" d="M206.05,303.6h-13.21c.29,3.26,2.59,5.73,6.14,5.73,2.24,0,4.06-.9,5.44-2.21v2.18c-1.38,1.12-3.3,1.86-5.5,1.86-5.02,0-8.03-3.78-8.03-8.22s3.14-8.19,7.71-8.19,7.55,4.16,7.46,8.86Zm-13.18-1.7h11.14c-.42-2.98-2.4-5.31-5.41-5.31s-5.31,2.3-5.73,5.31Z"/><path class="o" d="M224.51,294.93v16h-1.92v-3.3c-1.25,2.08-3.39,3.52-6.08,3.52-4.45,0-7.55-3.68-7.55-8.19s3.1-8.22,7.55-8.22c2.69,0,4.83,1.44,6.08,3.55v-3.36h1.92Zm-1.92,8.03c0-3.42-2.46-6.37-5.89-6.37s-5.79,2.91-5.79,6.37,2.37,6.34,5.79,6.34,5.89-2.91,5.89-6.34Z"/><path class="o" d="M239.62,310.93l-7.87-7.36v7.36h-1.92v-25.6h1.92v17.18l7.62-7.58h2.46l-8.19,8.1,8.54,7.9h-2.56Z"/><path class="o" d="M245.12,290.39c0-.77,.58-1.38,1.34-1.38s1.38,.61,1.38,1.38-.61,1.34-1.38,1.34-1.34-.58-1.34-1.34Zm.42,4.54h1.92v16h-1.92v-16Z"/><path class="o" d="M266.33,301.9v9.02h-1.89v-8.67c0-3.84-1.89-5.82-4.67-5.82-2.46,0-4.45,1.7-4.7,5.02v9.47h-1.92v-16h1.92v2.62c.93-1.63,2.75-2.91,5.12-2.91,3.3,0,6.14,2.34,6.14,7.26Z"/><path class="o" d="M285.34,310.22c0,4.99-3.81,7.33-7.55,7.33-2.43,0-4.38-.8-5.98-1.79l.03-2.08c1.7,1.22,3.68,2.08,5.73,2.08,3.36,0,5.92-2.05,5.92-5.98v-2.24c-1.25,2.14-3.42,3.62-6.14,3.62-4.45,0-7.55-3.68-7.55-8.19s3.1-8.22,7.55-8.22c2.69,0,4.83,1.44,6.08,3.58v-3.39h1.89l.03,15.29Zm-1.92-7.26c0-3.42-2.46-6.37-5.89-6.37s-5.79,2.91-5.79,6.37,2.37,6.34,5.79,6.34,5.89-2.91,5.89-6.34Z"/><path class="o" d="M18.82,333.33v16h-1.92v-3.3c-1.25,2.08-3.39,3.52-6.08,3.52-4.45,0-7.55-3.68-7.55-8.19s3.1-8.22,7.55-8.22c2.69,0,4.83,1.44,6.08,3.55v-3.36h1.92Zm-1.92,8.03c0-3.42-2.46-6.37-5.89-6.37s-5.79,2.91-5.79,6.37,2.37,6.34,5.79,6.34,5.89-2.91,5.89-6.34Z"/><path class="o" d="M39.65,341.33c0,4.51-3.1,8.22-7.55,8.22-2.66,0-4.8-1.41-6.05-3.49v9.66h-1.92v-22.4h1.92v3.3c1.25-2.08,3.39-3.49,6.05-3.49,4.45,0,7.55,3.68,7.55,8.19Zm-1.95,0c0-3.49-2.37-6.34-5.79-6.34-3.2,0-5.57,2.53-5.86,5.66v1.34c.29,3.14,2.66,5.7,5.86,5.7,3.42,0,5.79-2.91,5.79-6.37Z"/><path class="o" d="M58.27,333.33v16h-1.92v-3.3c-1.25,2.08-3.39,3.52-6.08,3.52-4.45,0-7.55-3.68-7.55-8.19s3.1-8.22,7.55-8.22c2.69,0,4.83,1.44,6.08,3.55v-3.36h1.92Zm-1.92,8.03c0-3.42-2.46-6.37-5.89-6.37s-5.79,2.91-5.79,6.37,2.37,6.34,5.79,6.34,5.89-2.91,5.89-6.34Z"/><path class="o" d="M70.11,333.07v2.18c-2.59-.19-4.61,1.98-4.61,5.28v8.8h-1.92v-16h1.92v2.94c.83-1.66,2.37-3.2,4.61-3.2Z"/><path class="o" d="M78.98,335.19h-3.3v14.14h-1.92v-14.14h-2.05v-1.86h2.05v-4.29h1.92v4.29h3.3v1.86Z"/><path class="o" d="M111.26,326.93v22.75h-.32l-15.52-18.3v17.95h-1.92v-22.81h.32l15.52,18.46v-18.05h1.92Z"/><path class="o" d="M115.55,359.78c1.51-1.83,2.8-3.43,4.29-5.28,1.01-1.25,2.05-2.44,2.05-3.96,0-1.29-1.03-2.74-2.76-2.74s-2.78,1.32-2.99,2.97l-1.08-.32c.26-1.98,1.68-3.73,4.07-3.73s3.88,1.88,3.88,3.79c0,1.75-1.1,3.12-2.13,4.39-1.08,1.34-2.17,2.67-3.27,4.01h5.5v1.08h-7.58v-.21Z"/><path class="o" d="M140.02,327.09v6.24h3.33v1.86h-3.33v14.14h-1.89v-14.14h-2.05v-1.86h2.05v-6.59c0-2.05,1.31-3.2,3.01-3.2,.93,0,1.66,.29,2.21,.64v1.98c-.51-.32-1.06-.67-1.86-.67s-1.47,.58-1.47,1.6Z"/><path class="o" d="M153.07,333.07v2.18c-2.59-.19-4.61,1.98-4.61,5.28v8.8h-1.92v-16h1.92v2.94c.83-1.66,2.37-3.2,4.61-3.2Z"/><path class="o" d="M154.51,341.3c0-4.42,3.3-8.22,8.1-8.22s8.1,3.81,8.1,8.22-3.3,8.25-8.1,8.25-8.1-3.81-8.1-8.25Zm14.27,0c0-3.39-2.5-6.34-6.18-6.34s-6.14,2.94-6.14,6.34,2.5,6.37,6.14,6.37,6.18-2.98,6.18-6.37Z"/><path class="o" d="M197.84,339.86l-.03,9.47h-1.92v-9.09c0-3.26-1.63-5.38-4.29-5.38s-4.29,2.11-4.29,5.6l-.03,8.86h-1.89v-9.09c0-3.26-1.63-5.38-4.29-5.38s-4.29,2.11-4.29,5.6v8.86h-1.92v-16h1.92v2.4c.86-1.47,2.43-2.69,4.7-2.69s4.29,1.25,5.22,3.62c.8-1.86,2.53-3.62,5.28-3.62,3.2,0,5.82,2.4,5.82,6.82Z"/><path class="o" d="M219.57,335.19h-3.3v14.14h-1.92v-14.14h-2.05v-1.86h2.05v-4.29h1.92v4.29h3.3v1.86Z"/><path class="o" d="M235.98,340.31v9.02h-1.89v-8.67c0-3.84-1.89-5.82-4.67-5.82s-4.74,1.98-4.74,5.82v8.67h-1.92v-25.6h1.92v12.25c.93-1.63,2.75-2.94,5.15-2.94,3.3,0,6.14,2.34,6.14,7.26Z"/><path class="o" d="M254.61,342h-13.21c.29,3.26,2.59,5.73,6.14,5.73,2.24,0,4.06-.9,5.44-2.21v2.18c-1.38,1.12-3.3,1.86-5.5,1.86-5.02,0-8.03-3.78-8.03-8.22s3.14-8.19,7.71-8.19,7.55,4.16,7.46,8.86Zm-13.18-1.7h11.13c-.42-2.98-2.4-5.31-5.41-5.31s-5.31,2.3-5.73,5.31Z"/><path class="o" d="M18.82,371.73v16h-1.92v-3.3c-1.25,2.08-3.39,3.52-6.08,3.52-4.45,0-7.55-3.68-7.55-8.19s3.1-8.22,7.55-8.22c2.69,0,4.83,1.44,6.08,3.55v-3.36h1.92Zm-1.92,8.03c0-3.42-2.46-6.37-5.89-6.37s-5.79,2.91-5.79,6.37,2.37,6.34,5.79,6.34,5.89-2.91,5.89-6.34Z"/><path class="o" d="M29.79,373.59h-3.3v14.14h-1.92v-14.14h-2.05v-1.86h2.05v-4.29h1.92v4.29h3.3v1.86Z"/><path class="o" d="M55.94,378.26l-.03,9.47h-1.92v-9.09c0-3.26-1.63-5.38-4.29-5.38s-4.29,2.11-4.29,5.6l-.03,8.86h-1.89v-9.09c0-3.26-1.63-5.38-4.29-5.38s-4.29,2.11-4.29,5.6v8.86h-1.92v-16h1.92v2.4c.86-1.47,2.43-2.69,4.7-2.69s4.29,1.25,5.22,3.62c.8-1.86,2.53-3.62,5.28-3.62,3.2,0,5.82,2.4,5.82,6.82Z"/><path class="o" d="M59.36,379.7c0-4.42,3.3-8.22,8.1-8.22s8.1,3.81,8.1,8.22-3.3,8.25-8.1,8.25-8.1-3.81-8.1-8.25Zm14.27,0c0-3.39-2.5-6.34-6.18-6.34s-6.14,2.94-6.14,6.34,2.5,6.37,6.14,6.37,6.18-2.98,6.18-6.37Z"/><path class="o" d="M78.34,385.46l1.31-1.41c.96,1.18,2.37,2.08,3.9,2.08,1.73,0,3.1-.99,3.1-2.56,0-4-7.97-2.69-7.94-8,.03-2.3,1.98-4.06,4.67-4.1,2.11,0,3.87,1.18,4.83,2.27l-1.18,1.38c-.8-.86-2.05-1.79-3.62-1.79s-2.75,.96-2.78,2.24c-.06,3.71,7.97,2.43,7.94,8.03-.03,2.46-2.05,4.38-5.09,4.38-1.98,0-4.06-1.12-5.15-2.53Z"/><path class="o" d="M108.16,379.73c0,4.51-3.1,8.22-7.55,8.22-2.66,0-4.8-1.41-6.05-3.49v9.66h-1.92v-22.4h1.92v3.3c1.25-2.08,3.39-3.49,6.05-3.49,4.45,0,7.55,3.68,7.55,8.19Zm-1.95,0c0-3.49-2.37-6.34-5.79-6.34-3.2,0-5.57,2.53-5.86,5.66v1.34c.29,3.14,2.66,5.7,5.86,5.7,3.42,0,5.79-2.91,5.79-6.37Z"/><path class="o" d="M125.57,378.7v9.02h-1.89v-8.67c0-3.84-1.89-5.82-4.67-5.82s-4.74,1.98-4.74,5.82v8.67h-1.92v-25.6h1.92v12.26c.93-1.63,2.75-2.94,5.15-2.94,3.3,0,6.14,2.34,6.14,7.26Z"/><path class="o" d="M144.19,380.4h-13.21c.29,3.26,2.59,5.73,6.14,5.73,2.24,0,4.06-.9,5.44-2.21v2.18c-1.38,1.12-3.3,1.86-5.5,1.86-5.02,0-8.03-3.78-8.03-8.22s3.14-8.19,7.71-8.19,7.55,4.16,7.46,8.86Zm-13.18-1.7h11.14c-.42-2.98-2.4-5.31-5.41-5.31s-5.31,2.3-5.73,5.31Z"/><path class="o" d="M154.75,371.47v2.18c-2.59-.19-4.61,1.98-4.61,5.28v8.8h-1.92v-16h1.92v2.94c.83-1.66,2.37-3.2,4.61-3.2Z"/><path class="o" d="M171.36,380.4h-13.21c.29,3.26,2.59,5.73,6.14,5.73,2.24,0,4.06-.9,5.44-2.21v2.18c-1.38,1.12-3.3,1.86-5.5,1.86-5.02,0-8.03-3.78-8.03-8.22s3.14-8.19,7.71-8.19,7.55,4.16,7.46,8.86Zm-13.18-1.7h11.13c-.42-2.98-2.4-5.31-5.41-5.31s-5.31,2.3-5.73,5.31Z"/><path class="o" d="M200.86,371.73v16h-1.92v-3.3c-1.25,2.08-3.39,3.52-6.08,3.52-4.45,0-7.55-3.68-7.55-8.19s3.1-8.22,7.55-8.22c2.69,0,4.83,1.44,6.08,3.55v-3.36h1.92Zm-1.92,8.03c0-3.42-2.46-6.37-5.89-6.37s-5.79,2.91-5.79,6.37,2.37,6.34,5.79,6.34,5.89-2.91,5.89-6.34Z"/><path class="o" d="M219.36,378.7v9.02h-1.89v-8.67c0-3.84-1.89-5.82-4.67-5.82-2.46,0-4.45,1.7-4.7,5.02v9.47h-1.92v-16h1.92v2.62c.93-1.63,2.75-2.91,5.12-2.91,3.3,0,6.14,2.34,6.14,7.26Z"/><path class="o" d="M238.37,362.13v25.6h-1.92v-3.3c-1.25,2.08-3.39,3.52-6.08,3.52-4.45,0-7.55-3.68-7.55-8.19s3.1-8.22,7.55-8.22c2.69,0,4.83,1.44,6.08,3.55v-12.96h1.92Zm-1.92,17.63c0-3.42-2.46-6.37-5.89-6.37s-5.79,2.91-5.79,6.37,2.37,6.34,5.79,6.34,5.89-2.91,5.89-6.34Z"/><path class="o" d="M3.27,418.13c0-4.45,3.2-8.26,8.16-8.26,2.21,0,4,.74,5.34,1.89v2.37c-1.12-1.34-3.01-2.37-5.28-2.37-3.78,0-6.3,2.91-6.3,6.37s2.53,6.37,6.3,6.37c2.27,0,4.16-1.02,5.28-2.37v2.37c-1.34,1.15-3.14,1.89-5.34,1.89-4.96,0-8.16-3.81-8.16-8.25Z"/><path class="o" d="M20.16,418.1c0-4.42,3.3-8.22,8.1-8.22s8.1,3.81,8.1,8.22-3.3,8.25-8.1,8.25-8.1-3.81-8.1-8.25Zm14.27,0c0-3.39-2.5-6.34-6.18-6.34s-6.14,2.94-6.14,6.34,2.5,6.37,6.14,6.37,6.18-2.98,6.18-6.37Z"/><path class="o" d="M53.73,417.1v9.02h-1.89v-8.67c0-3.84-1.89-5.82-4.67-5.82-2.46,0-4.45,1.7-4.7,5.02v9.47h-1.92v-16h1.92v2.62c.93-1.63,2.75-2.91,5.12-2.91,3.3,0,6.14,2.34,6.14,7.26Z"/><path class="o" d="M71.59,410.13l-7.2,16.06h-1.06l-7.26-16.06h2.08l5.7,13.02,5.7-13.02h2.05Z"/><path class="o" d="M88.1,418.8h-13.21c.29,3.26,2.59,5.73,6.14,5.73,2.24,0,4.06-.9,5.44-2.21v2.18c-1.38,1.12-3.3,1.86-5.5,1.86-5.02,0-8.03-3.78-8.03-8.22s3.14-8.19,7.71-8.19,7.55,4.16,7.46,8.86Zm-13.18-1.7h11.13c-.42-2.98-2.4-5.31-5.41-5.31s-5.31,2.3-5.73,5.31Z"/><path class="o" d="M98.66,409.87v2.18c-2.59-.19-4.61,1.98-4.61,5.28v8.8h-1.92v-16h1.92v2.94c.83-1.66,2.37-3.2,4.61-3.2Z"/><path class="o" d="M107.52,411.99h-3.3v14.14h-1.92v-14.14h-2.05v-1.86h2.05v-4.29h1.92v4.29h3.3v1.86Z"/><path class="o" d="M110.72,405.59c0-.77,.58-1.38,1.34-1.38s1.38,.61,1.38,1.38-.61,1.34-1.38,1.34-1.34-.58-1.34-1.34Zm.42,4.54h1.92v16h-1.92v-16Z"/><path class="o" d="M131.94,417.1v9.02h-1.89v-8.67c0-3.84-1.89-5.82-4.67-5.82-2.46,0-4.45,1.7-4.7,5.02v9.47h-1.92v-16h1.92v2.62c.93-1.63,2.75-2.91,5.12-2.91,3.3,0,6.14,2.34,6.14,7.26Z"/><path class="o" d="M150.94,425.42c0,4.99-3.81,7.33-7.55,7.33-2.43,0-4.38-.8-5.98-1.79l.03-2.08c1.7,1.22,3.68,2.08,5.73,2.08,3.36,0,5.92-2.05,5.92-5.98v-2.24c-1.25,2.14-3.42,3.62-6.14,3.62-4.45,0-7.55-3.68-7.55-8.19s3.1-8.22,7.55-8.22c2.69,0,4.83,1.44,6.08,3.58v-3.39h1.89l.03,15.29Zm-1.92-7.26c0-3.42-2.46-6.37-5.89-6.37s-5.79,2.91-5.79,6.37,2.37,6.34,5.79,6.34,5.89-2.91,5.89-6.34Z"/><path class="o" d="M167.3,405.59c0-.77,.58-1.38,1.34-1.38s1.38,.61,1.38,1.38-.61,1.34-1.38,1.34-1.34-.58-1.34-1.34Zm.42,4.54h1.92v16h-1.92v-16Z"/><path class="o" d="M180.99,411.99h-3.3v14.14h-1.92v-14.14h-2.05v-1.86h2.05v-4.29h1.92v4.29h3.3v1.86Z"/><path class="o" d="M200.9,411.99h-3.3v14.14h-1.92v-14.14h-2.05v-1.86h2.05v-4.29h1.92v4.29h3.3v1.86Z"/><path class="o" d="M202.34,418.1c0-4.42,3.3-8.22,8.1-8.22s8.09,3.81,8.09,8.22-3.29,8.25-8.09,8.25-8.1-3.81-8.1-8.25Zm14.27,0c0-3.39-2.5-6.34-6.17-6.34s-6.14,2.94-6.14,6.34,2.5,6.37,6.14,6.37,6.17-2.98,6.17-6.37Z"/><path class="o" d="M251.81,403.73v22.75h-.32l-15.52-18.3v17.95h-1.92v-22.81h.32l15.52,18.46v-18.05h1.92Z"/><path class="o" d="M274.27,403.73v22.4h-1.92v-10.4h-12.73v10.4h-1.92v-22.4h1.92v10.11h12.73v-10.11h1.92Z"/><path class="o" d="M286.64,432.7c0,2.22-1.7,4.27-4.29,4.27-2.24,0-3.77-1.46-4.24-3.21l1.06-.43c.34,1.44,1.57,2.54,3.17,2.54,1.87,0,3.15-1.42,3.15-3.17s-1.33-3.13-3.19-3.13c-.67,0-1.25,.17-1.77,.47l-.5-.52,4.05-4.67h-5.32v-1.12h7v.77l-3.56,4.03h.11c2.65,0,4.33,1.96,4.33,4.18Z"/><path class="o" d="M289.71,422.1h1.95l-1.57,7.52h-1.38l.99-7.52Z"/><path class="o" d="M18.82,448.53v16h-1.92v-3.3c-1.25,2.08-3.39,3.52-6.08,3.52-4.45,0-7.55-3.68-7.55-8.19s3.1-8.22,7.55-8.22c2.69,0,4.83,1.44,6.08,3.55v-3.36h1.92Zm-1.92,8.03c0-3.42-2.46-6.37-5.89-6.37s-5.79,2.91-5.79,6.37,2.37,6.34,5.79,6.34,5.89-2.91,5.89-6.34Z"/><path class="o" d="M50.69,456.53c0,4.51-3.1,8.22-7.55,8.22-2.66,0-4.8-1.41-6.05-3.49v9.66h-1.92v-22.4h1.92v3.3c1.25-2.08,3.39-3.49,6.05-3.49,4.45,0,7.55,3.68,7.55,8.19Zm-1.95,0c0-3.49-2.37-6.34-5.79-6.34-3.2,0-5.57,2.53-5.86,5.66v1.34c.29,3.14,2.66,5.7,5.86,5.7,3.42,0,5.79-2.91,5.79-6.37Z"/><path class="o" d="M54.88,438.93h1.92v25.6h-1.92v-25.6Z"/><path class="o" d="M76.55,448.53v16h-1.92v-3.3c-1.25,2.08-3.39,3.52-6.08,3.52-4.45,0-7.55-3.68-7.55-8.19s3.1-8.22,7.55-8.22c2.69,0,4.83,1.44,6.08,3.55v-3.36h1.92Zm-1.92,8.03c0-3.42-2.46-6.37-5.89-6.37s-5.79,2.91-5.79,6.37,2.37,6.34,5.79,6.34,5.89-2.91,5.89-6.34Z"/><path class="o" d="M95.04,455.5v9.02h-1.89v-8.67c0-3.84-1.89-5.82-4.67-5.82-2.46,0-4.45,1.7-4.7,5.02v9.47h-1.92v-16h1.92v2.62c.93-1.63,2.75-2.91,5.12-2.91,3.3,0,6.14,2.34,6.14,7.26Z"/><path class="o" d="M105.76,450.39h-3.3v14.14h-1.92v-14.14h-2.05v-1.86h2.05v-4.29h1.92v4.29h3.3v1.86Z"/><path class="o" d="M134.43,448.53v16h-1.92v-3.3c-1.25,2.08-3.39,3.52-6.08,3.52-4.45,0-7.55-3.68-7.55-8.19s3.1-8.22,7.55-8.22c2.69,0,4.83,1.44,6.08,3.55v-3.36h1.92Zm-1.92,8.03c0-3.42-2.46-6.37-5.89-6.37s-5.79,2.91-5.79,6.37,2.37,6.34,5.79,6.34,5.89-2.91,5.89-6.34Z"/><path class="o" d="M152.86,448.53l-7.2,16.06h-1.06l-7.26-16.06h2.08l5.7,13.02,5.7-13.02h2.05Z"/><path class="o" d="M169.76,448.53v16h-1.92v-3.3c-1.25,2.08-3.39,3.52-6.08,3.52-4.45,0-7.55-3.68-7.55-8.19s3.1-8.22,7.55-8.22c2.69,0,4.83,1.44,6.08,3.55v-3.36h1.92Zm-1.92,8.03c0-3.42-2.46-6.37-5.89-6.37s-5.79,2.91-5.79,6.37,2.37,6.34,5.79,6.34,5.89-2.91,5.89-6.34Z"/><path class="o" d="M175.07,443.98c0-.77,.58-1.38,1.34-1.38s1.38,.61,1.38,1.38-.61,1.34-1.38,1.34-1.34-.58-1.34-1.34Zm.42,4.54h1.92v16h-1.92v-16Z"/><path class="o" d="M183.1,438.93h1.92v25.6h-1.92v-25.6Z"/><path class="o" d="M204.77,448.53v16h-1.92v-3.3c-1.25,2.08-3.39,3.52-6.08,3.52-4.45,0-7.55-3.68-7.55-8.19s3.1-8.22,7.55-8.22c2.69,0,4.83,1.44,6.08,3.55v-3.36h1.92Zm-1.92,8.03c0-3.42-2.46-6.37-5.89-6.37s-5.79,2.91-5.79,6.37,2.37,6.34,5.79,6.34,5.89-2.91,5.89-6.34Z"/><path class="o" d="M225.63,456.53c0,4.51-3.1,8.22-7.55,8.22-2.69,0-4.83-1.44-6.08-3.55v3.33h-1.92v-25.6h1.92v12.93c1.25-2.08,3.39-3.52,6.08-3.52,4.45,0,7.55,3.68,7.55,8.19Zm-1.95,0c0-3.49-2.37-6.34-5.79-6.34s-5.89,2.91-5.89,6.34,2.46,6.37,5.89,6.37,5.79-2.91,5.79-6.37Z"/><path class="o" d="M229.82,438.93h1.92v25.6h-1.92v-25.6Z"/><path class="o" d="M251.1,457.2h-13.21c.29,3.26,2.59,5.73,6.14,5.73,2.24,0,4.06-.9,5.44-2.21v2.18c-1.38,1.12-3.3,1.86-5.5,1.86-5.02,0-8.03-3.78-8.03-8.22s3.14-8.19,7.71-8.19,7.55,4.16,7.46,8.86Zm-13.18-1.7h11.14c-.42-2.98-2.4-5.31-5.41-5.31s-5.31,2.3-5.73,5.31Z"/><path class="o" d="M6.72,480.69v6.24h3.33v1.86h-3.33v14.14h-1.89v-14.14H2.79v-1.86h2.05v-6.59c0-2.05,1.31-3.2,3.01-3.2,.93,0,1.66,.29,2.21,.64v1.98c-.51-.32-1.06-.67-1.86-.67s-1.47,.58-1.47,1.6Z"/><path class="o" d="M11.49,494.9c0-4.42,3.3-8.22,8.1-8.22s8.1,3.81,8.1,8.22-3.3,8.25-8.1,8.25-8.1-3.81-8.1-8.25Zm14.27,0c0-3.39-2.5-6.34-6.18-6.34s-6.14,2.94-6.14,6.34,2.5,6.37,6.14,6.37,6.18-2.98,6.18-6.37Z"/><path class="o" d="M38.4,486.67v2.18c-2.59-.19-4.61,1.98-4.61,5.28v8.8h-1.92v-16h1.92v2.94c.83-1.66,2.37-3.2,4.61-3.2Z"/><path class="o" d="M64.54,493.46l-.03,9.47h-1.92v-9.09c0-3.26-1.63-5.38-4.29-5.38s-4.29,2.11-4.29,5.6l-.03,8.86h-1.89v-9.09c0-3.26-1.63-5.38-4.29-5.38s-4.29,2.11-4.29,5.6v8.86h-1.92v-16h1.92v2.4c.86-1.47,2.43-2.69,4.7-2.69s4.29,1.25,5.22,3.62c.8-1.86,2.53-3.62,5.28-3.62,3.2,0,5.82,2.4,5.82,6.82Z"/><path class="o" d="M68.1,501.74c0-.74,.58-1.34,1.34-1.34s1.34,.61,1.34,1.34-.61,1.34-1.34,1.34-1.34-.58-1.34-1.34Z"/></g><g><path class="p" d="M376.01,510.12l-1.98,16.86-2.02-.24,.41-3.47c-1.57,2.04-4.01,3.29-6.84,2.96-4.69-.55-7.5-4.81-6.94-9.57,.56-4.75,4.29-8.28,8.97-7.73,2.83,.33,4.91,2.12,5.97,4.5l.42-3.54,2.02,.24Zm-3.02,8.23c.42-3.61-1.81-7.02-5.42-7.44-3.61-.42-6.46,2.35-6.89,5.99-.43,3.68,1.71,6.97,5.32,7.39,3.61,.42,6.56-2.34,6.99-5.95Z"/><path class="p" d="M404.98,520.49l-1.21,9.98-2.02-.24,1.12-9.58c.4-3.44-1.05-5.87-3.85-6.2s-4.78,1.69-5.21,5.37l-1.13,9.34-1.99-.23,1.12-9.58c.4-3.44-1.05-5.87-3.85-6.2-2.8-.33-4.78,1.69-5.21,5.37l-1.1,9.34-2.02-.24,1.98-16.86,2.02,.24-.3,2.53c1.09-1.45,2.9-2.53,5.29-2.25s4.37,1.85,5.05,4.46c1.07-1.86,3.11-3.5,6.01-3.16,3.37,.4,5.84,3.25,5.29,7.9Z"/><path class="p" d="M434.45,523.96l-1.21,9.98-2.02-.24,1.12-9.58c.4-3.44-1.05-5.87-3.85-6.2-2.8-.33-4.78,1.69-5.21,5.37l-1.13,9.34-1.99-.23,1.12-9.58c.4-3.44-1.05-5.87-3.85-6.2-2.8-.33-4.78,1.69-5.21,5.37l-1.1,9.34-2.02-.24,1.98-16.86,2.02,.24-.3,2.53c1.09-1.45,2.9-2.53,5.29-2.25s4.36,1.85,5.05,4.46c1.07-1.86,3.11-3.5,6.01-3.16,3.37,.4,5.84,3.25,5.29,7.9Z"/><path class="p" d="M437.88,525.9c.55-4.65,4.49-8.26,9.55-7.66,5.06,.59,8.06,5.01,7.51,9.67-.55,4.69-4.49,8.29-9.55,7.7-5.06-.59-8.06-5.01-7.51-9.7Zm15.04,1.77c.42-3.57-1.85-6.99-5.72-7.44-3.84-.45-6.84,2.34-7.26,5.92s1.84,7.02,5.69,7.47c3.88,.46,6.88-2.37,7.3-5.95Z"/><path class="p" d="M473.37,529.01l-1.12,9.51-1.99-.23,1.07-9.14c.48-4.05-1.27-6.37-4.2-6.72-2.6-.3-4.9,1.24-5.58,4.71l-1.17,9.98-2.02-.24,1.98-16.86,2.02,.24-.33,2.77c1.18-1.6,3.26-2.73,5.76-2.44,3.47,.41,6.18,3.22,5.57,8.42Z"/><path class="p" d="M480,522.33l2.02,.24-1.98,16.86-2.02-.24,1.98-16.86Zm.12-4.84c.1-.81,.78-1.38,1.59-1.28,.81,.1,1.38,.81,1.28,1.62-.09,.81-.81,1.34-1.62,1.25-.81-.09-1.34-.77-1.25-1.58Z"/><path class="p" d="M503.24,525.06l-1.98,16.86-2.02-.24,.41-3.47c-1.57,2.04-4.01,3.29-6.84,2.96-4.69-.55-7.5-4.81-6.94-9.57,.56-4.75,4.29-8.28,8.97-7.73,2.83,.33,4.92,2.12,5.97,4.5l.42-3.54,2.02,.24Zm-3.02,8.23c.42-3.61-1.81-7.02-5.42-7.44s-6.46,2.35-6.89,5.99c-.43,3.68,1.71,6.97,5.32,7.39s6.56-2.34,6.99-5.95Z"/></g><g><path class="d" d="M344.98,513.15s-25.63-2.38-43.24-34.09"/><polygon class="p" points="315.65 481.87 303.59 482.29 295.51 491.26 294.46 462.69 315.65 481.87"/></g></g></g></g></svg>