<svg xmlns="http://www.w3.org/2000/svg" viewBox="0 0 1400 632.83"><defs><style>.cls-1{font-size:24.85px;}.cls-1,.cls-3,.cls-37{fill:#5c5052;}.cls-1,.cls-37{font-family:Acre-Light, Acre;font-weight:300;}.cls-2{fill:#336da9;}.cls-4{letter-spacing:-0.01em;}.cls-5{letter-spacing:-0.01em;}.cls-6{letter-spacing:-0.04em;}.cls-7{letter-spacing:-0.02em;}.cls-8{letter-spacing:-0.02em;}.cls-9{letter-spacing:0em;}.cls-10{letter-spacing:0em;}.cls-11,.cls-16,.cls-17,.cls-22,.cls-23,.cls-36,.cls-44{fill:none;stroke-miterlimit:10;}.cls-11,.cls-17,.cls-44{stroke:#5c5052;}.cls-11{stroke-width:1.91px;}.cls-12{fill:#dadbdc;}.cls-13{letter-spacing:-0.02em;}.cls-14{letter-spacing:0em;}.cls-15{letter-spacing:-0.03em;}.cls-16,.cls-23{stroke:#336da9;stroke-linecap:round;}.cls-16{stroke-width:4.69px;}.cls-17{stroke-width:1.74px;}.cls-18{font-size:45.97px;fill:#3daaa1;font-family:Acre-Regular, Acre;}.cls-19{letter-spacing:-0.01em;}.cls-20{letter-spacing:-0.01em;}.cls-21{letter-spacing:-0.01em;}.cls-22{stroke:#5b5052;stroke-width:1.35px;}.cls-23{stroke-width:7.83px;}.cls-24{letter-spacing:-0.01em;}.cls-25{letter-spacing:0.01em;}.cls-26{letter-spacing:-0.02em;}.cls-27{letter-spacing:-0.01em;}.cls-28{letter-spacing:-0.01em;}.cls-29{fill:#e06a7c;}.cls-30{letter-spacing:0em;}.cls-31{fill:#ffc201;}.cls-32{fill:#3d9e95;}.cls-33{letter-spacing:-0.02em;}.cls-34{letter-spacing:-0.03em;}.cls-35{letter-spacing:-0.03em;}.cls-36{stroke:#2e6195;stroke-width:1.72px;}.cls-37{font-size:19.88px;}.cls-38{letter-spacing:-0.02em;}.cls-39{letter-spacing:0em;}.cls-40{fill:#bb252c;}.cls-41{fill:#e67243;}.cls-42{letter-spacing:-0.02em;}.cls-43{letter-spacing:-0.05em;}.cls-44{stroke-width:0.87px;}.cls-45{letter-spacing:-0.02em;}</style></defs><g id="Layer_2" data-name="Layer 2"><g id="Aggregate_Formation" data-name="Aggregate Formation"><g id="Layer_103" data-name="Layer 103"><text class="cls-1" transform="translate(346.91 583.44)">tillage</text><path class="cls-2" d="M433.13,505.69,411.34,468h0a33.46,33.46,0,0,0-2.85-4.18L425,450.7H381.44a35,35,0,0,0-5.05.37l-3.08-20.83L351.53,468h0a33.53,33.53,0,0,0-2.21,4.55l-19.58-7.75,21.78,37.73h0a34.25,34.25,0,0,0,2.84,4.19l-16.51,13.08h43.57a34.86,34.86,0,0,0,5-.37l3.08,20.84,21.78-37.73h0a33.48,33.48,0,0,0,2.2-4.55ZM381.44,494.3a9.07,9.07,0,1,1,9.07-9.07A9.08,9.08,0,0,1,381.44,494.3Z"/></g><g id="Layer_104" data-name="Layer 104"><path class="cls-3" d="M392.43,184.81c-4.45,1.15-5.89,6.75-.78,7.78,5.59,1.13,4.28-7.77.78-7.78"/><path class="cls-3" d="M401.86,175.49c-1.88,2.19-8.58,3.37-4.74,7.86,1.77,2.07,4.94,1.75,6.87.25,7-5.45.91-9.91-2.13-8.11"/><path class="cls-2" d="M407.27,171.07c-3-.38-9.79.77-14,.78-5.63,0-9.72-2.79-15.23-3.38a51,51,0,0,0-15.27.34c-3.81.67-8.15-.81-12-1.13-3-.25-5.89.26-8.82.28-2.27,0-3.67-.8-5.76-1.31-3.81-.92-8,1-11.64.83.78,8.81-.41,18,0,26.89,3.88,1.06,8.07,1,12.05,2.13,3.55,1,6.78,2.74,10.4,3.56,8.11,1.85,14.53.25,22.37-.72,3.56-.44,7.79.19,11-1.75,1.68-1,3.48-1.92,5.15-2.92,2.82-1.67,4.22-5.18,7-7.25a19.35,19.35,0,0,0,3.7-4.17c1.28-1.64,2.45-2,4-3.16s8-7.08,7.57-9"/><text class="cls-1" transform="translate(348.48 274.1)"><tspan class="cls-4">w</tspan><tspan class="cls-5" x="19.41" y="0">e</tspan><tspan x="33.13" y="0">t</tspan><tspan class="cls-6" x="40.01" y="0">/</tspan><tspan x="46.4" y="0">dr</tspan><tspan class="cls-7" x="69.28" y="0">y</tspan><tspan x="6.56" y="29.82">c</tspan><tspan class="cls-8" x="19.68" y="29.82">y</tspan><tspan class="cls-9" x="31.59" y="29.82">cl</tspan><tspan class="cls-10" x="50.32" y="29.82">e</tspan><tspan x="64.24" y="29.82">s</tspan></text><line class="cls-11" x1="442.97" y1="137.11" x2="335.73" y2="244.35"/><path class="cls-3" d="M452.25,224.5H324.52V193.38c4.29-.32,8-2,12.46-1.6,5.17.46,10.22,3.38,15.5,3.95,14.8,1.59,29-3.53,43.64-2.35,10.87.87,20.6,2.08,31.3-.57,8.24-2,17-.37,24.59-2.45Z"/><path class="cls-3" d="M415.83,186.11c-2.41.45-6.12.56-6.49,3.88-.4,3.63,3.16,3.17,5.47,3.37,1.26.11,1.91.93,3.1,0,1-.73,1.4-3.1,1.31-4.17-.22-2.57-2-3.61-4.43-3.37"/><path class="cls-3" d="M433.73,182c-1.87,2.19-8.58,3.37-4.73,7.86,1.76,2.07,4.94,1.75,6.87.25,7-5.45.91-9.91-2.14-8.11"/><path class="cls-3" d="M446.18,177.29c-1.78,2.15-5.85,2-6.68,6.25-.23,1.16-.51,4.05,0,5.11,1.55,3.29,5.92,1.54,8.24,1.41,4.41-.26,6.71-2.12,5.26-7.33-.85-3-3.74-6.49-6.81-5.44"/><path class="cls-3" d="M424.13,184.82c-4.44,1.15-5.88,6.74-.78,7.78,5.6,1.13,4.29-7.77.78-7.78"/><path class="cls-3" d="M406.54,187.37c-1.06-2-7-2.56-8.61-1.85-2.83,1.26-2.45,5.47.06,7,1.56,1,6.73,1.58,8.43.77a3.37,3.37,0,0,0,.12-5.95"/><path class="cls-3" d="M410.13,178.07c-4.13-.07-3.73,6.48-.52,8s7.89-1.1,11.41-.58c1.76.27,2.8,1.43,3.13-1.47.24-2.18-1.44-3.38-3-4.21-2.78-1.44-8.27-3.26-11-1.77"/><path class="cls-3" d="M430.88,176.77c-2.88.18-7.64,1.16-6.95,5s2.95,2.44,5.39,1.69c1.87-.58,4-.37,4.36-2.85.25-1.6-1-4.11-2.8-3.84"/><path class="cls-12" d="M385.53,193.45l-31,31.05h2.2l31.2-31.2C387.09,193.34,386.31,193.39,385.53,193.45Z"/></g><g id="Layer_105" data-name="Layer 105"><text class="cls-1" transform="translate(67.48 276.76)">f<tspan class="cls-13" x="6.88" y="0">r</tspan><tspan x="13.94" y="0">e</tspan><tspan class="cls-14" x="27.98" y="0">e</tspan><tspan class="cls-15" x="41.9" y="0">z</tspan><tspan x="52.24" y="0">e/t</tspan><tspan class="cls-8" x="80.54" y="0">h</tspan><tspan x="94.36" y="0">a</tspan><tspan class="cls-7" x="109.69" y="0">w</tspan><tspan x="128.85" y="0"> </tspan><tspan x="30.52" y="29.82">c</tspan><tspan class="cls-8" x="43.64" y="29.82">y</tspan><tspan class="cls-9" x="55.54" y="29.82">cl</tspan><tspan class="cls-10" x="74.28" y="29.82">e</tspan><tspan x="88.2" y="29.82">s</tspan></text><line class="cls-16" x1="91.57" y1="114.16" x2="91.57" y2="193.39"/><line class="cls-16" x1="57.26" y1="133.97" x2="125.88" y2="173.58"/><line class="cls-16" x1="57.26" y1="173.58" x2="125.88" y2="133.97"/><polyline class="cls-16" points="100.02 188.51 91.57 178.11 83.12 188.51"/><polyline class="cls-16" points="83.12 119.04 91.57 129.45 100.02 119.04"/><polyline class="cls-16" points="125.88 163.83 112.64 165.94 117.43 178.46"/><polyline class="cls-16" points="57.26 143.72 70.5 141.61 65.77 129.24"/><polyline class="cls-16" points="117.43 129.09 112.64 141.61 125.88 143.72"/><polyline class="cls-16" points="65.71 178.46 70.5 165.94 57.26 163.83"/><path class="cls-2" d="M130.3,201.31c8.46-.65,10.2-5.34,17.86-7.25,8.08-2,19.76.84,27.2,3.79,7.74,3.08,11.33,7.5,20.11,8.67,4.5.6,8.6.17,12.26,3,6.81,5.25,5.76,16,1.4,22-7.58,10.42-21.15,6.74-32.72,7.53-8.46.58-14.37,4.72-23.29,4.3a141.4,141.4,0,0,1-29.23-4.76c-17.53-4.64-14.41-20.2-3.79-29.64,2-1.8,4.82-6.33,10.2-7.63"/><line class="cls-17" x1="178.07" y1="134.39" x2="80.22" y2="232.23"/></g><text class="cls-18" transform="translate(0 39.07)">p<tspan class="cls-19" x="28.36" y="0">h</tspan><tspan class="cls-20" x="54.2" y="0">y</tspan><tspan x="77.23" y="0">sical</tspan></text><text class="cls-18" transform="translate(574.52 39.66)">c<tspan class="cls-21" x="23.72" y="0">h</tspan><tspan x="49.6" y="0">emical</tspan></text><text class="cls-18" transform="translate(580.27 418.09)">biological</text><line class="cls-22" x1="512.5" y1="7.96" x2="512.5" y2="628.96"/><g id="Layer_106" data-name="Layer 106"><text class="cls-1" transform="translate(56.43 582.11)">shrink<tspan class="cls-5" x="64.16" y="0">/</tspan><tspan class="cls-9" x="71.22" y="0">s</tspan><tspan class="cls-8" x="81.36" y="0">w</tspan><tspan x="100.77" y="0">ell </tspan><tspan x="29.11" y="29.82">c</tspan><tspan class="cls-8" x="42.23" y="29.82">y</tspan><tspan class="cls-9" x="54.14" y="29.82">cl</tspan><tspan class="cls-10" x="72.88" y="29.82">e</tspan><tspan x="86.79" y="29.82">s</tspan></text><line class="cls-23" x1="54.13" y1="464.2" x2="88.26" y2="464.2"/><polygon class="cls-2" points="77.26 478.7 83.42 464.2 77.26 449.69 111.65 464.2 77.26 478.7"/><line class="cls-23" x1="176.97" y1="464.08" x2="142.84" y2="464.08"/><polygon class="cls-2" points="153.84 449.58 147.68 464.08 153.84 478.59 119.46 464.08 153.84 449.58"/><line class="cls-23" x1="101.17" y1="516.65" x2="135.3" y2="516.65"/><polygon class="cls-2" points="124.3 531.15 130.46 516.65 124.3 502.14 158.69 516.65 124.3 531.15"/><line class="cls-23" x1="129.93" y1="516.65" x2="95.8" y2="516.65"/><polygon class="cls-2" points="106.8 502.14 100.64 516.65 106.8 531.15 72.42 516.65 106.8 502.14"/></g><g id="Layer_107" data-name="Layer 107"><text class="cls-1" transform="translate(584 619.31)">eart<tspan class="cls-24" x="43.81" y="0">h</tspan><tspan class="cls-4" x="57.75" y="0">w</tspan><tspan x="77.16" y="0">or</tspan><tspan class="cls-25" x="99.68" y="0">m</tspan><tspan x="121.57" y="0">s</tspan></text><path class="cls-3" d="M578.29,555.73s6.47-22.5,27.89-20.63c15,1.31,25,14.24,25,14.24S641,561,648,553.11c5.52-6.24,2-18.44,2-18.44s-3-10.1-2.29-18.48c.69-8.1,6.93-17.52,20-17.2,30.74.75,15.4,38.73,15.4,38.73S675.6,554.62,689,554c15.25-.73,8.72-17.14,8.72-17.14s-4.94-10.61-2.62-16.85c2-5.48,8.43,3.48,8.43,3.48s21.07,30.94-5.23,41.25c-14.82,5.81-26.46-2.71-28.18-13.27-1.45-9,2.81-18,2.81-18s7.65-19.29-4.55-21.33c-14.09-2.34-8.38,18.6-8.38,18.6s9,21.78-7.31,32.53-29.92-6.1-29.92-6.1-8.42-9.95-15.1-10c-13.65-.15-18.88,10.31-18.88,10.31S585,562.7,580,560.08C576.86,558.41,578.29,555.73,578.29,555.73Z"/></g><g id="Layer_95" data-name="Layer 95"><text class="cls-1" transform="translate(854.98 619.31)"><tspan class="cls-26">r</tspan><tspan x="7.06" y="0">o</tspan><tspan class="cls-27" x="22.02" y="0">o</tspan><tspan class="cls-28" x="36.66" y="0">t</tspan><tspan x="43.29" y="0">s</tspan></text><path class="cls-3" d="M893.45,472.35a20.81,20.81,0,0,0,.76,7.14,10,10,0,0,0,4.14,5.24c2,1.4,4.37,2.56,6.68,3.89a58.24,58.24,0,0,1,6.78,4.4c8.65,6.35,15.84,14.21,23.33,21.54,1.87,1.85,3.78,3.62,5.72,5.41a65.57,65.57,0,0,1,5.58,5.72,29.84,29.84,0,0,1,4.41,6.73,26.52,26.52,0,0,1,2.2,7.72c.18,1.33.27,2.66.32,4l0,2a13.57,13.57,0,0,1-.22,2c-.49,2.66-1.73,5.05-1.94,7.63a7.8,7.8,0,0,0,.58,3.76,10.88,10.88,0,0,0,2.24,3.17c1.79,1.89,4,3.56,5.11,6-1.23-2.37-3.42-3.95-5.28-5.81a11,11,0,0,1-2.39-3.18,8.23,8.23,0,0,1-.74-3.94c.15-2.72,1.33-5.18,1.72-7.72a12.15,12.15,0,0,0,.14-1.9l-.07-2c-.09-1.3-.22-2.6-.43-3.88a25.83,25.83,0,0,0-2.33-7.35,29.11,29.11,0,0,0-4.41-6.31c-3.46-3.85-7.69-7-11.54-10.68-7.77-7.16-15.13-14.71-23.69-20.6a56.69,56.69,0,0,0-6.59-4c-2.29-1.23-4.7-2.29-7.08-3.85a15.13,15.13,0,0,1-1.74-1.3,14,14,0,0,1-1.61-1.57,7,7,0,0,1-.69-.91,9.77,9.77,0,0,1-.63-.95,13.16,13.16,0,0,1-.95-2.06,24,24,0,0,1-1.21-8.45,1.91,1.91,0,0,1,3.81,0v.11Z"/><path class="cls-3" d="M890.33,473.52c.81,3.55,1.95,7.05,3.08,10.6a62.72,62.72,0,0,1,2.72,11,26.41,26.41,0,0,1-1,11.54c-.32.92-.71,1.81-1.06,2.71s-.87,1.71-1.31,2.57c-.92,1.65-1.9,3.23-2.85,4.83a53.75,53.75,0,0,0-4.91,9.76,25.23,25.23,0,0,0-1.38,10.6,42.33,42.33,0,0,1,.21,5.68,15.58,15.58,0,0,1-1.42,5.66,25.52,25.52,0,0,1-7.15,8.88,57.22,57.22,0,0,1-9.46,6.12c-3.29,1.76-6.66,3.38-10.07,4.88-6.81,3-13.76,5.72-19.68,10.19a49.31,49.31,0,0,0-8,7.59,71.72,71.72,0,0,0-6.55,9,44,44,0,0,0-4.71,10,22.12,22.12,0,0,0-1,5.46,12.65,12.65,0,0,0,.92,5.44,12.66,12.66,0,0,1-1-5.44,21.87,21.87,0,0,1,.89-5.51A44.25,44.25,0,0,1,821.11,595a71.92,71.92,0,0,1,6.45-9.13,49.39,49.39,0,0,1,8-7.82,57.76,57.76,0,0,1,9.54-5.89c3.34-1.68,6.76-3.16,10.13-4.71s6.67-3.2,9.91-5a55.36,55.36,0,0,0,9.14-6.11,24,24,0,0,0,6.6-8.44,14.14,14.14,0,0,0,1.2-5.1,42.7,42.7,0,0,0-.3-5.46,27,27,0,0,1,1.3-11.37A56.56,56.56,0,0,1,888,515.72c.93-1.61,1.88-3.21,2.75-4.82l1.18-2.41c.31-.84.65-1.66.93-2.5a23.89,23.89,0,0,0,.78-10.5A60.58,60.58,0,0,0,890.86,485c-1.17-3.51-2.4-7.07-3.31-10.76a1.43,1.43,0,0,1,2.77-.69Z"/><path class="cls-3" d="M890.3,474.19a18.14,18.14,0,0,1,.61,8.27,25.33,25.33,0,0,1-2.59,7.71,16.07,16.07,0,0,1-2.31,3.46,8.85,8.85,0,0,1-3.6,2.54,9.9,9.9,0,0,1-4.31.46,34.21,34.21,0,0,1-4-.68,32.14,32.14,0,0,0-7.42-1.05,16.23,16.23,0,0,0-3.61.46,16,16,0,0,0-1.75.53l-1.78.69c-4.74,1.91-9.38,4.19-14.1,6.3a93.19,93.19,0,0,1-14.59,5.43c-5,1.29-10.43,1.82-15.51.41a22,22,0,0,1-7-3.37,28.67,28.67,0,0,1-5.62-5.38q-1.22-1.52-2.34-3.09a9.7,9.7,0,0,0-2.55-2.81,4.93,4.93,0,0,0-1.82-.54c-.63-.09-1.27-.13-1.92-.16-1.29-.05-2.58-.06-3.87-.08,1.29,0,2.58,0,3.87,0,.65,0,1.3,0,1.94.11a5,5,0,0,1,1.88.53,9.83,9.83,0,0,1,2.69,2.8c.77,1,1.57,2,2.39,3a29.11,29.11,0,0,0,5.65,5.16,21.4,21.4,0,0,0,6.92,3.12c4.95,1.25,10.17.62,15.06-.76a91.35,91.35,0,0,0,14.26-5.69c4.65-2.2,9.23-4.59,14-6.65l1.81-.75c.64-.23,1.28-.47,1.94-.64a18.43,18.43,0,0,1,4-.6,33.49,33.49,0,0,1,7.89.91c2.5.48,5,.94,7,.14s3.44-2.77,4.49-4.95a22.31,22.31,0,0,0,2.18-7,15.52,15.52,0,0,0-.68-7,1.43,1.43,0,0,1,2.71-.92Z"/><path class="cls-3" d="M895.33,504.82c-1.85,3.37-4.28,6.05-6.36,8.88s-4,5.77-4.37,9a11,11,0,0,0,.45,4.84,14.1,14.1,0,0,0,2.45,4.36c2.14,2.7,4.93,5,7.47,7.54a44.83,44.83,0,0,1,6.8,8.46,26.42,26.42,0,0,1,3.47,10.27,41.22,41.22,0,0,1-.13,10.76c-.45,3.52-.93,7.16.15,10.62-1.2-3.42-.84-7.13-.51-10.65a41.09,41.09,0,0,0-.23-10.63,25.68,25.68,0,0,0-3.68-9.79,44,44,0,0,0-6.89-8c-2.56-2.43-5.45-4.59-7.87-7.43a16.2,16.2,0,0,1-2.93-4.85,13,13,0,0,1-.73-5.74,15.87,15.87,0,0,1,1.63-5.5,34.63,34.63,0,0,1,2.87-4.75c2.06-3,4.37-5.75,5.87-8.72v0a1.43,1.43,0,0,1,2.55,1.29Z"/><path class="cls-3" d="M896.63,484.16a63.39,63.39,0,0,1,12.69,6.54c4,2.55,7.77,5.3,11.52,8.08l5.6,4.15c.94.68,1.88,1.35,2.82,2a22.58,22.58,0,0,0,2.82,1.71,3.06,3.06,0,0,0,1.25.34,10.12,10.12,0,0,0,1.56,0,24.19,24.19,0,0,0,3.28-.51c2.21-.49,4.45-1.18,6.77-1.7a16.55,16.55,0,0,1,7.34-.35,7.24,7.24,0,0,1,3.39,1.9,12.54,12.54,0,0,1,2.17,3,68.38,68.38,0,0,1,2.79,6.48,18.9,18.9,0,0,0,3.34,5.86,16.54,16.54,0,0,0,5.65,3.7,26.73,26.73,0,0,0,6.69,1.64c4.6.57,9.28.37,13.94.45-4.66.08-9.32.46-14,0a27.51,27.51,0,0,1-6.91-1.43,17.34,17.34,0,0,1-6.08-3.7,19.91,19.91,0,0,1-3.78-6.07c-1-2.13-1.82-4.3-3-6.24s-2.62-3.6-4.66-4a14.64,14.64,0,0,0-6.47.59c-2.21.58-4.41,1.33-6.72,1.94a24.27,24.27,0,0,1-3.61.68,12.32,12.32,0,0,1-1.93.05l-.5,0a2.88,2.88,0,0,1-.56-.11,3.12,3.12,0,0,1-.56-.17c-.16-.07-.34-.13-.48-.2a26.49,26.49,0,0,1-3.17-1.87c-1-.66-2-1.34-2.91-2l-5.66-4.11c-3.76-2.73-7.54-5.41-11.45-7.86a60.69,60.69,0,0,0-12.14-6.13h0a1.43,1.43,0,1,1,.93-2.7Z"/><path class="cls-3" d="M933.36,512.86a77.25,77.25,0,0,1,7.47,8.66,40.53,40.53,0,0,1,5.54,10.08,22.89,22.89,0,0,1,1.21,11.48,26,26,0,0,1-4.6,10.53c-2.19,3.14-4.82,5.89-7.26,8.74a25.71,25.71,0,0,0-3.24,4.51,14.37,14.37,0,0,0-1.6,5.25c-.41,3.71.61,7.41,1.28,11.12a24.84,24.84,0,0,1,.46,5.65,13.7,13.7,0,0,1-1.44,5.44,13.73,13.73,0,0,0,1.28-5.45,24.49,24.49,0,0,0-.61-5.59c-.76-3.66-1.9-7.36-1.59-11.23a15,15,0,0,1,1.53-5.55,24.91,24.91,0,0,1,3.24-4.73,111.94,111.94,0,0,0,7-8.79,24.63,24.63,0,0,0,4.22-10.1A21.53,21.53,0,0,0,945,532.12a39.42,39.42,0,0,0-5.5-9.58,75.27,75.27,0,0,0-7.45-8.33h0a1,1,0,0,1,0-1.35.94.94,0,0,1,1.34,0Z"/><path class="cls-3" d="M940.31,519.34a53.33,53.33,0,0,1,6.43,11.59,37,37,0,0,1,2.62,13,48.8,48.8,0,0,1-1.82,13.1c-1.07,4.24-2.49,8.38-3,12.6a18.05,18.05,0,0,0,.25,6.27,15.46,15.46,0,0,0,2.67,5.65,32.79,32.79,0,0,1,1.92,2.68,25.17,25.17,0,0,1,1.56,3,29.4,29.4,0,0,1,2,6.31,41.75,41.75,0,0,1,.35,13.1,44.86,44.86,0,0,1-3.41,12.58,44.72,44.72,0,0,0,3-12.63,41,41,0,0,0-.72-12.89,25.78,25.78,0,0,0-5.62-11.41,16.69,16.69,0,0,1-2.93-6,19.15,19.15,0,0,1-.35-6.7c.5-4.44,1.9-8.61,2.9-12.81A47,47,0,0,0,947.75,544a35.27,35.27,0,0,0-2.64-12.41,51.52,51.52,0,0,0-6.34-11.12,1,1,0,0,1,1.53-1.13Z"/><path class="cls-3" d="M885.15,527.29a22.25,22.25,0,0,0,3,6.5c1.32,2.12,2.75,4.24,4,6.5a28,28,0,0,1,2.94,7.24,21.58,21.58,0,0,1,.51,3.92,20.47,20.47,0,0,1-.3,3.92,24.75,24.75,0,0,1-2.55,7.33c-1.17,2.32-2.68,4.36-3.93,6.53a32,32,0,0,0-3.11,6.84,10.62,10.62,0,0,0,.07,7.37,10.86,10.86,0,0,1-.47-7.48,32.51,32.51,0,0,1,2.79-7.12c1.14-2.3,2.55-4.42,3.61-6.65a23.74,23.74,0,0,0,2.2-7,18.57,18.57,0,0,0,.16-3.65,20.56,20.56,0,0,0-.58-3.58,26.71,26.71,0,0,0-3-6.7c-1.27-2.12-2.75-4.15-4.17-6.29a24.26,24.26,0,0,1-3.56-7.1,1.19,1.19,0,0,1,2.31-.61v.06Z"/><path class="cls-3" d="M894.14,487.22a23.06,23.06,0,0,1,2,7.09,17.43,17.43,0,0,1-.81,7.45,20.64,20.64,0,0,1-3.64,6.38,34,34,0,0,1-5.1,5c-7.4,5.79-15.9,9.34-23.86,13.53-8.08,3.93-14.07,11-20.23,17.56a129.06,129.06,0,0,1-9.63,9.66,34.29,34.29,0,0,1-11.58,7.06,33.77,33.77,0,0,0,11.25-7.42,126,126,0,0,0,9.23-10c3-3.43,5.89-6.92,9.11-10.18a54.88,54.88,0,0,1,5.12-4.62,48.14,48.14,0,0,1,5.79-3.81c4-2.27,8-4.33,11.92-6.57a74.38,74.38,0,0,0,11-7.48c3.31-2.83,6.21-6.22,7.39-10.14s.43-8.11-1.48-11.87a1.91,1.91,0,0,1,3.4-1.73l0,.08Z"/><path class="cls-3" d="M889,510.87a9.2,9.2,0,0,1-2.2,3.22,26.48,26.48,0,0,1-2.63,2.28c-1.8,1.39-3.67,2.61-5.56,3.79-3.77,2.36-7.64,4.48-11.4,6.7-.93.56-1.86,1.12-2.75,1.7-.45.3-.89.59-1.29.9a6.89,6.89,0,0,0-1,.89l0,.07-.11.16-.2.32a6.91,6.91,0,0,0-.38.65,11.3,11.3,0,0,0-.65,1.36,15.55,15.55,0,0,0-.87,2.94c-.78,4.1-.22,8.47.32,12.8.28,2.18.57,4.38.69,6.62a59.67,59.67,0,0,1-.1,6.69,34.27,34.27,0,0,1-3.3,12.9,29,29,0,0,1-3.71,5.54c-1.41,1.71-2.92,3.31-4.3,5a19.54,19.54,0,0,0-3.39,5.57,13.61,13.61,0,0,0-.7,6.46,13.83,13.83,0,0,1,.49-6.54,19.76,19.76,0,0,1,3.25-5.76c2.7-3.49,5.78-6.69,7.55-10.66a33,33,0,0,0,2.77-12.59,58.67,58.67,0,0,0-.12-6.5c-.18-2.15-.54-4.3-.89-6.47-.69-4.33-1.46-8.82-.76-13.44a17.81,17.81,0,0,1,.88-3.41,14.61,14.61,0,0,1,.71-1.63c.14-.26.27-.54.43-.79l.23-.38.12-.19.19-.26a8.49,8.49,0,0,1,1.42-1.32c.47-.36.94-.69,1.41-1,.94-.63,1.88-1.22,2.83-1.8,3.78-2.3,7.6-4.46,11.26-6.8,1.83-1.18,3.63-2.39,5.29-3.7a24.56,24.56,0,0,0,2.32-2.07,6.56,6.56,0,0,0,1.51-2.16l0,0a1.43,1.43,0,1,1,2.71.9Z"/><path class="cls-3" d="M889.57,474.36c.58,3.21,1.65,6.41,2.3,9.87a21.79,21.79,0,0,1,.39,5.38,14.51,14.51,0,0,1-1.43,5.33,18.5,18.5,0,0,1-1.39,2.36,24.66,24.66,0,0,1-1.72,2.08,25.85,25.85,0,0,1-4,3.5,38,38,0,0,1-9.26,4.76c-6.49,2.37-13.21,3.56-19.78,5.05s-13.15,3.12-18.81,6.59a39.62,39.62,0,0,0-4,2.91q-1.9,1.6-3.66,3.41c-2.32,2.41-4.44,5-6.59,7.65a68.85,68.85,0,0,1-6.88,7.54,24.84,24.84,0,0,1-8.75,5.29,26.64,26.64,0,0,1-10.14,1.14c-3.39-.22-6.74-.7-10.1-.85a18.57,18.57,0,0,0-5,.36,8.2,8.2,0,0,0-4.26,2.47c-.26.32-.53.64-.78,1l-.61,1.1a5.67,5.67,0,0,0-.51,1.15l-.45,1.18c-.2.82-.43,1.63-.61,2.46l-.4,2.5.36-2.51c.16-.83.38-1.65.56-2.48l.43-1.19a6.75,6.75,0,0,1,.5-1.17l.6-1.13c.25-.34.52-.67.78-1a8.42,8.42,0,0,1,4.32-2.61,18.87,18.87,0,0,1,5.08-.46c3.39.09,6.76.51,10.12.68a25.79,25.79,0,0,0,9.88-1.29,24.13,24.13,0,0,0,8.38-5.27,67.6,67.6,0,0,0,6.65-7.56c2.09-2.64,4.19-5.33,6.52-7.83,1.17-1.24,2.4-2.44,3.69-3.57a40.57,40.57,0,0,1,4.14-3.1c5.87-3.73,12.61-5.51,19.17-7.12s13.22-2.93,19.42-5.32a35.49,35.49,0,0,0,8.64-4.62,23.55,23.55,0,0,0,3.57-3.26,22.06,22.06,0,0,0,1.49-1.86,16.08,16.08,0,0,0,1.14-2,12.1,12.1,0,0,0,1.11-4.42,19.51,19.51,0,0,0-.44-4.71c-.65-3.18-1.78-6.4-2.48-9.84a1.43,1.43,0,0,1,2.8-.57Z"/><path class="cls-3" d="M851.18,500.46c-5.89,2.76-11.69,5.87-17.5,8.91-2.9,1.53-5.8,3.07-8.74,4.55L822.73,515c-.71.37-1.42.75-2.13,1.16-1.41.82-2.82,1.67-4.29,2.45a23.68,23.68,0,0,1-4.61,2,10.23,10.23,0,0,1-2.55.43,7,7,0,0,1-2.56-.5,45.05,45.05,0,0,0-4.5-1.88,17.82,17.82,0,0,0-4.8-.24,83,83,0,0,0-9.68,1.58,42.44,42.44,0,0,1-4.89.62,29.93,29.93,0,0,1-4.92-.12,31,31,0,0,0,4.91,0,44.44,44.44,0,0,0,4.85-.76,82.48,82.48,0,0,1,9.69-1.87,18.65,18.65,0,0,1,5,.11,45.53,45.53,0,0,1,4.63,1.77,6.09,6.09,0,0,0,2.25.38,8.8,8.8,0,0,0,2.28-.46,22.57,22.57,0,0,0,4.35-2c1.4-.81,2.78-1.69,4.19-2.55.7-.44,1.42-.86,2.15-1.27l2.19-1.12c2.9-1.52,5.77-3.11,8.65-4.69,5.76-3.14,11.49-6.34,17.43-9.25a1,1,0,0,1,.84,1.72h0Z"/><path class="cls-3" d="M842.5,516.28a22.28,22.28,0,0,0-6.73,6.83,54.94,54.94,0,0,0-4.66,8.74c-.66,1.52-1.28,3.07-1.87,4.63s-1.06,3.14-1.8,4.76a11,11,0,0,1-3.24,4.14,27,27,0,0,1-4.47,2.52,17.29,17.29,0,0,0-4.07,2.71,18.7,18.7,0,0,0-3.12,3.79,24.1,24.1,0,0,0-3.14,9.35c-.49,3.3-.6,6.67-1,10a28.47,28.47,0,0,1-2.62,9.68,28.53,28.53,0,0,0,2.37-9.71c.31-3.33.34-6.7.75-10.05a24.62,24.62,0,0,1,3-9.67,19.63,19.63,0,0,1,3.16-4,18.61,18.61,0,0,1,4.21-3,25.79,25.79,0,0,0,4.23-2.51,9.82,9.82,0,0,0,2.8-3.78c.63-1.45,1.08-3.12,1.66-4.7s1.15-3.17,1.79-4.74a55.89,55.89,0,0,1,4.62-9.09,24,24,0,0,1,7.15-7.53,1,1,0,1,1,1,1.61h0Z"/><path class="cls-3" d="M891.14,473.08a18.5,18.5,0,0,1,1.84,4.29c.44,1.44.77,2.87,1.06,4.31.59,2.86,1,5.71,1.44,8.55s.86,5.65,1.41,8.43a36.62,36.62,0,0,0,2.36,7.95,11.34,11.34,0,0,0,1,1.7c.39.56.8,1.11,1.24,1.66.87,1.07,1.82,2.12,2.79,3.17a41.83,41.83,0,0,1,5.54,6.83,18.16,18.16,0,0,1,1.84,4.15,18.43,18.43,0,0,1,.58,4.48,40.41,40.41,0,0,0,.24,4.2,13.31,13.31,0,0,0,1.21,3.86,19.67,19.67,0,0,0,5.1,6.46,33.84,33.84,0,0,0,7.11,4.51A75.85,75.85,0,0,0,942.08,553c5.58,1.3,11.24,2.12,16.9,3.22a22.29,22.29,0,0,1,8,3.25c2.39,1.62,4.5,3.56,6.74,5.36-2.27-1.75-4.44-3.65-6.85-5.2a22,22,0,0,0-7.93-3c-5.64-1-11.36-1.66-17-2.83a77.38,77.38,0,0,1-16.54-5,34.91,34.91,0,0,1-7.48-4.52,21.12,21.12,0,0,1-5.64-6.83,18.85,18.85,0,0,1-.87-2.07,12.06,12.06,0,0,1-.57-2.22,42.08,42.08,0,0,1-.35-4.37,16.81,16.81,0,0,0-.61-4,16.29,16.29,0,0,0-1.72-3.66,40.9,40.9,0,0,0-5.44-6.38c-1-1-2-2.09-3-3.22-.48-.56-.94-1.15-1.38-1.76a14.12,14.12,0,0,1-1.2-2,38.83,38.83,0,0,1-2.67-8.47c-.6-2.85-1.08-5.69-1.56-8.52s-.94-5.65-1.54-8.4a25.52,25.52,0,0,0-2.64-7.61l0,0a1.43,1.43,0,0,1,2.42-1.52Z"/><path class="cls-3" d="M892.56,472.47c1.69-3.59-3.06-.79-3.86-.31-.62.38-2.24,1-1.69,2.09.67,1.33,3.45.74,4.31,0"/></g><g id="Layer_96" data-name="Layer 96"><path class="cls-29" d="M1095,498.4a8.14,8.14,0,0,0-11.62-7.37c-16.91,5.11-25.39,21.3-25.39,21.3h0a7.65,7.65,0,0,0,12.7,8.44A72.58,72.58,0,0,1,1089.79,506a8.4,8.4,0,0,0,1-.5h0A8.14,8.14,0,0,0,1095,498.4Z"/><path class="cls-29" d="M1103.79,528.94a8.84,8.84,0,0,0,1.52-5,8.93,8.93,0,0,0-16.83-4.16,108.5,108.5,0,0,0-12.5,38.87h.06a8.43,8.43,0,0,0-.06,1,8.93,8.93,0,0,0,17.85,0S1093.48,548,1103.79,528.94Z"/><path class="cls-29" d="M1140.77,555.44h0a6.71,6.71,0,0,0-1-.78,65.07,65.07,0,0,1-16.2-19.47h0a6.94,6.94,0,1,0-12.36,6.18h0c11.94,21.93,21,25.73,21,25.73h0a7.3,7.3,0,0,0,10.87-6.36A7.25,7.25,0,0,0,1140.77,555.44Z"/><text class="cls-1" transform="translate(1053.35 619.31)">bac<tspan class="cls-26" x="43.79" y="0">t</tspan><tspan x="50.17" y="0">eria</tspan></text></g><g id="Layer_97" data-name="Layer 97"><text class="cls-1" transform="translate(1268.12 619.31)">fu<tspan class="cls-8" x="21.05" y="0">n</tspan><tspan x="34.84" y="0">gi</tspan></text><path class="cls-2" d="M1300,486.91s-20.67,0-22.13,20.24c-.37,5.2,11.18,4.41,17.68,3.53.52,8.56,2.27,40.76-.67,49.26,0,0-.24,2.23,6.22,2s7.75-4,7.75-4,3.53,3.29-4.85-47.32c6.41.9,18.4,1.85,18.12-3.47C1321.08,487.61,1300,486.91,1300,486.91Z"/><path class="cls-2" d="M1336.74,528.83s12.23,4.4,8.79,16.68c-.88,3.15-7.55.23-11.21-1.67-2.13,4.95-10,23.63-10.08,29.28,0,0-.34,1.38-4.11-.12s-3.73-4-3.73-4-2.79,1.2,12.93-27c-4-.82-11.28-2.81-10-5.9C1324.11,524.76,1336.74,528.83,1336.74,528.83Z"/><path class="cls-2" d="M1255.11,511.19s17-5.75,24.22,11.62c1.84,4.46-7.9,7-13.52,8,2.11,7.67,10.21,36.43,15.15,43.08,0,0,.86,1.9-4.52,3.52s-7.57-1.39-7.57-1.39-1.93,3.87-10-42.91c-5,2.58-14.6,6.75-15.95,2C1237.93,517.67,1255.11,511.19,1255.11,511.19Z"/></g><g id="Layer_98" data-name="Layer 98"><text class="cls-1" transform="translate(1245.68 274.86)"><tspan class="cls-14">e</tspan><tspan x="13.92" y="0">xuda</tspan><tspan class="cls-26" x="70.85" y="0">t</tspan><tspan class="cls-30" x="77.24" y="0">e</tspan><tspan x="91.15" y="0">s</tspan></text><path class="cls-3" d="M1214.36,213.84a22.34,22.34,0,0,1,8-3.24c2.83-.58,5.66-1,8.48-1.51s5.64-1,8.43-1.66a76.81,76.81,0,0,0,16.24-5.31,33.69,33.69,0,0,0,7.14-4.52,19.6,19.6,0,0,0,5.15-6.49,16.72,16.72,0,0,0,.77-1.92,11.18,11.18,0,0,0,.47-2,41.12,41.12,0,0,0,.24-4.22,18.48,18.48,0,0,1,.59-4.43,17.39,17.39,0,0,1,1.82-4.11,43.22,43.22,0,0,1,5.53-6.79c1-1,1.94-2.09,2.82-3.17.44-.54.85-1.1,1.24-1.66.2-.29.36-.56.54-.84s.32-.59.46-.9a36.16,36.16,0,0,0,2.38-8c.32-1.58.59-3.19.86-4.8h0a1.56,1.56,0,0,1,1.36-1.36c1.63-.12,1.38,3.6,1.38,3.6h0a14.07,14.07,0,0,0,.6,4.69c1.22,4,4.17,7.41,7.52,10.24a73.38,73.38,0,0,0,11.11,7.47c3.92,2.24,8,4.28,11.93,6.54a46.27,46.27,0,0,1,5.78,3.78,52.15,52.15,0,0,1,5.13,4.59c3.22,3.24,6.16,6.71,9.13,10.14a126.16,126.16,0,0,0,9.27,9.92,34,34,0,0,0,11.28,7.39,34,34,0,0,1-11.54-7.1,125.25,125.25,0,0,1-9.6-9.68c-3.07-3.34-6.1-6.72-9.37-9.82a52.79,52.79,0,0,0-5.13-4.34,47.13,47.13,0,0,0-5.71-3.5c-1.73-.91-3.48-1.8-5.23-2.68l1.85,1.11c1,.58,1.89,1.16,2.83,1.79.47.31.93.64,1.39,1a8.52,8.52,0,0,1,1.39,1.28l.18.24.11.19.23.38c.16.25.28.51.42.77a13.57,13.57,0,0,1,.71,1.61,17.52,17.52,0,0,1,.88,3.36c.71,4.58,0,9.06-.72,13.39-.34,2.17-.69,4.32-.87,6.48a56.68,56.68,0,0,0-.1,6.52c.06,1.24.17,2.48.33,3.71,1.32.65,2.65,1.29,4,1.9,3.37,1.55,6.79,3,10.13,4.69a58.67,58.67,0,0,1,9.53,5.87,50.16,50.16,0,0,1,8,7.8,70.82,70.82,0,0,1,6.45,9.12,44.05,44.05,0,0,1,4.59,10.16,22.26,22.26,0,0,1,.9,5.5,12.81,12.81,0,0,1-1,5.44,12.65,12.65,0,0,0,.93-5.44,22,22,0,0,0-1-5.46,44.05,44.05,0,0,0-4.7-10,71.13,71.13,0,0,0-6.54-9,49.93,49.93,0,0,0-8-7.62,57.69,57.69,0,0,0-9.51-5.67c-3.33-1.62-6.76-3-10.16-4.55-1.17-.52-2.33-1.05-3.49-1.6.09.55.19,1.1.3,1.64a29.74,29.74,0,0,0,2,6.17,29.29,29.29,0,0,0,3.46,5.51c1.34,1.73,2.8,3.38,4.14,5.13a19.74,19.74,0,0,1,3.26,5.75,13.79,13.79,0,0,1,.52,6.53,13.79,13.79,0,0,0-.69-6.47,19.53,19.53,0,0,0-3.37-5.58c-1.38-1.7-2.89-3.31-4.29-5a28.84,28.84,0,0,1-3.68-5.54,30.29,30.29,0,0,1-2.26-6.27c-.19-.78-.34-1.56-.47-2.35q-2.79-1.34-5.52-2.79a56.64,56.64,0,0,1-9.44-6.12,25.39,25.39,0,0,1-7.09-8.84,15.52,15.52,0,0,1-1.41-5.61,45.72,45.72,0,0,1,.22-5.66,25.8,25.8,0,0,0-.11-5.42c-.07-.59-.18-1.17-.3-1.75a32.4,32.4,0,0,1-2.73,4.83c-1.42,2.13-2.89,4.17-4.16,6.31a35.43,35.43,0,0,0-1.73,3.28,24.2,24.2,0,0,0-1.24,3.46,20.23,20.23,0,0,0-.58,3.62,18.81,18.81,0,0,0,.17,3.67,24.12,24.12,0,0,0,2.24,7.06c.53,1.13,1.16,2.2,1.79,3.3s1.26,2.2,1.85,3.33a33.13,33.13,0,0,1,2.81,7.1,14.31,14.31,0,0,1,.46,3.79,8.49,8.49,0,0,1-.89,3.68,10.59,10.59,0,0,0,.11-7.38,32.23,32.23,0,0,0-3.08-6.86c-.63-1.09-1.3-2.16-2-3.22s-1.35-2.18-1.92-3.32a24.66,24.66,0,0,1-2.52-7.31,21.15,21.15,0,0,1-.29-3.9,22.07,22.07,0,0,1,.52-3.88,27,27,0,0,1,1.22-3.72,36.1,36.1,0,0,1,1.72-3.47c.76-1.35,1.58-2.65,2.4-3.94-1.47,1.34-3,2.62-4.39,4s-2.53,2.48-3.7,3.81a37.16,37.16,0,0,0-3.18,4.21,25.67,25.67,0,0,0-3.66,9.84,36.22,36.22,0,0,0-.44,5.31,41.34,41.34,0,0,0,.24,5.33c.16,1.78.35,3.56.34,5.36A16.66,16.66,0,0,1,1276,234a16.65,16.65,0,0,0,.67-5.29,50.51,50.51,0,0,0-.49-5.33,43.65,43.65,0,0,1-.39-5.37,37.33,37.33,0,0,1,.3-5.38,26.33,26.33,0,0,1,3.49-10.22,36.26,36.26,0,0,1,3.15-4.43c1.16-1.39,2.39-2.71,3.65-4,2.55-2.57,5.35-4.82,7.51-7.53a15.69,15.69,0,0,0,1.94-3,13.88,13.88,0,0,0,.5-1.63v0a.92.92,0,0,1,.25-.44h0c0-.11-.07-.23-.11-.34a53.77,53.77,0,0,0-4.91-9.8c-.95-1.6-1.92-3.18-2.84-4.83-.43-.85-.88-1.7-1.3-2.56s-.73-1.77-1-2.69a23.23,23.23,0,0,1-.85-3.43,28.35,28.35,0,0,1-1.62,4.33c-.16.34-.36.68-.54,1s-.42.67-.64,1c-.43.61-.89,1.19-1.36,1.75-1,1.13-2,2.18-3,3.22a41,41,0,0,0-5.46,6.41,15.81,15.81,0,0,0-1.72,3.71,16.8,16.8,0,0,0-.61,4.07,38.89,38.89,0,0,1-.34,4.36,13.11,13.11,0,0,1-.55,2.2,19.38,19.38,0,0,1-.87,2,20.91,20.91,0,0,1-5.59,6.79,34.4,34.4,0,0,1-7.44,4.52,77,77,0,0,1-16.51,5.07c-2.82.58-5.65,1.06-8.49,1.51s-5.68.83-8.49,1.35a22.05,22.05,0,0,0-7.94,3.06c-2.4,1.56-4.57,3.46-6.84,5.21C1209.85,217.39,1212,215.45,1214.36,213.84Zm84.31-37a13.19,13.19,0,0,1-.34,4.47,26.78,26.78,0,0,1,1,4.61,28,28,0,0,1,0,5.71,40.88,40.88,0,0,0-.29,5.47,14.37,14.37,0,0,0,1.21,5.16,24.42,24.42,0,0,0,6.65,8.48,55.29,55.29,0,0,0,9.18,6.11q2.4,1.32,4.84,2.55c-.14-1-.25-2.07-.33-3.11a59.32,59.32,0,0,1-.08-6.67c.12-2.23.42-4.42.7-6.6.56-4.34,1.13-8.72.36-12.86a15.29,15.29,0,0,0-.86-3,12.58,12.58,0,0,0-.66-1.39c-.13-.22-.24-.45-.39-.66l-.2-.32-.11-.16-.07-.09a5.85,5.85,0,0,0-1-.93c-.41-.31-.85-.61-1.3-.91-.89-.58-1.82-1.15-2.76-1.71-3.76-2.22-7.62-4.35-11.39-6.7-1.88-1.18-3.74-2.41-5.53-3.79-.43-.33-.86-.68-1.27-1,.37.63.73,1.28,1.06,1.95A15.49,15.49,0,0,1,1298.67,176.89Zm-8.32-11.5c.88,1.61,1.83,3.21,2.76,4.82a71,71,0,0,1,3.81,7.3c0-.14,0-.29,0-.43-.4-3.3-2.31-6.31-4.38-9.12-.8-1.11-1.66-2.19-2.52-3.29C1290.11,164.91,1290.24,165.15,1290.35,165.39Z"/><circle class="cls-31" cx="1201.62" cy="234.66" r="2.69"/><circle class="cls-31" cx="1257.59" cy="187.61" r="2.69"/><circle class="cls-29" cx="1230.36" cy="182.23" r="2.69"/><circle class="cls-29" cx="1274.79" cy="222.62" r="2.69"/><circle class="cls-32" cx="1230.36" cy="223.81" r="2.69"/><circle class="cls-31" cx="1239.37" cy="208.05" r="2.69"/><circle class="cls-31" cx="1316.77" cy="239.07" r="2.69"/><circle class="cls-29" cx="1254.9" cy="241.76" r="2.69"/><circle class="cls-32" cx="1320.67" cy="223.81" r="2.69"/><circle class="cls-2" cx="1316.21" cy="189.69" r="2.69"/><circle class="cls-31" cx="1290.66" cy="204.07" r="2.69"/><circle class="cls-29" cx="1336.47" cy="227.92" r="2.69"/><circle class="cls-31" cx="1342.14" cy="197" r="2.69"/><circle class="cls-32" cx="1381.18" cy="194.3" r="2.69"/><circle class="cls-29" cx="1354.56" cy="229.19" r="2.69"/><circle class="cls-29" cx="1310.14" cy="206.76" r="2.69"/></g><g id="Layer_99" data-name="Layer 99"><text class="cls-1" transform="translate(1063.34 274.86)">silica &amp; <tspan x="-22.69" y="29.82">carbo</tspan><tspan class="cls-8" x="43.61" y="29.82">n</tspan><tspan x="57.41" y="29.82">a</tspan><tspan class="cls-33" x="72.74" y="29.82">t</tspan><tspan class="cls-14" x="79.13" y="29.82">e</tspan><tspan x="93.04" y="29.82">s</tspan></text><path class="cls-3" d="M1169.08,217V194.33h-15.14V176.06h-16.18V157.51h-67.33v18.55h-16.18v18.27H1038.1V217Zm-19.76-36.34v13.72h-27.45V180.61Zm-43.51-18.27h27.44v13.72h-27.44Zm-30.88,0h27.45v13.72h-27.45Zm-16.07,18.27h27.45v13.72h-27.45Zm11.42,32h-27.45V198.87h27.45Zm32.06,0h-27.45V198.87h27.45Zm-11.7-18.27h-.54V180.61h28v13.72h-27.45Zm42.65,18h-27.45V198.66h27.45Zm32.07,0h-27.45V198.66h27.45Z"/></g><g id="Layer_100" data-name="Layer 100"><text class="cls-1" transform="translate(790.87 276.39)">o<tspan class="cls-26" x="14.96" y="0">r</tspan><tspan x="22.02" y="0">ganic</tspan><tspan class="cls-34" x="86.21" y="0">-</tspan><tspan x="95.7" y="0">mi</tspan><tspan class="cls-8" x="123.66" y="0">n</tspan><tspan x="137.45" y="0">e</tspan><tspan class="cls-26" x="151.49" y="0">r</tspan><tspan x="158.55" y="0">al </tspan><tspan x="29.72" y="29.82">compl</tspan><tspan class="cls-14" x="100.45" y="29.82">e</tspan><tspan class="cls-35" x="114.36" y="29.82">x</tspan><tspan class="cls-14" x="125.72" y="29.82">e</tspan><tspan x="139.64" y="29.82">s</tspan></text><polygon class="cls-36" points="829.34 175.93 821.16 164.23 827.21 151.3 841.42 150.07 849.6 161.77 843.56 174.7 829.34 175.93"/><polygon class="cls-36" points="857.54 197.47 859.33 181.9 874.68 178.79 882.39 192.44 871.79 203.97 857.54 197.47"/><line class="cls-36" x1="827.21" y1="151.3" x2="821.44" y2="143.05"/><line class="cls-36" x1="811.15" y1="165.27" x2="821.16" y2="164.23"/><line class="cls-36" x1="829.34" y1="175.93" x2="825.16" y2="185.08"/><polyline class="cls-36" points="841.42 150.07 845.61 140.91 844.27 134.34"/><line class="cls-36" x1="873.68" y1="213.58" x2="871.79" y2="203.98"/><line class="cls-36" x1="848.21" y1="202.61" x2="857.33" y2="197.47"/><polyline class="cls-36" points="864.99 165.5 860.45 172.29 859.33 181.9 849.32 182.95 843.56 174.7"/><polyline class="cls-36" points="897.8 199.53 891.17 193.29 882.39 192.44"/><text class="cls-37" transform="translate(910.72 187.4)">i<tspan class="cls-38" x="4.99" y="0">r</tspan><tspan x="10.64" y="0">on </tspan><tspan class="cls-39" x="40.79" y="0">o</tspan><tspan x="52.66" y="0">xide</tspan></text><text class="cls-37" transform="translate(912.8 217.95)">+</text><text class="cls-37" transform="translate(831.07 131.45)">+</text><text class="cls-37" transform="translate(900.05 211.95)">-</text><text class="cls-37" transform="translate(818.24 124.99)">-</text><path class="cls-40" d="M935.29,205.7c2.62.9,3.38,5.5,4.7,7.78s2.07,4.09,1.34,6.86c-1.52,5.82-9,4.73-11.92.87a16.33,16.33,0,0,1-2.68-8.87c-.05-2.68,1.07-5.21,3.69-6,1.55-.46,3.43-1.12,5-.67"/><path class="cls-41" d="M800.33,99.62c-10.92,5.11-12.58,22.33.34,23.93,5.94.73,13.24-5,16-10,3.38-6.08.41-10.06-2.59-15.58,0,0-1.16-1-1.49-1.35-4.89-3.55-7.67-.13-12.26,3"/><text class="cls-37" transform="translate(785.86 88.08)">cla<tspan class="cls-42" x="27.26" y="0">y</tspan></text></g><g id="Layer_101" data-name="Layer 101"><text class="cls-1" transform="translate(638.7 144.41)"><tspan class="cls-43">F</tspan><tspan x="10.14" y="0">e</tspan></text><text class="cls-1" transform="translate(662.88 136.13) scale(0.58)">+</text><text class="cls-1" transform="translate(621.41 274.86)"><tspan class="cls-4">m</tspan><tspan class="cls-5" x="21.35" y="0">e</tspan><tspan class="cls-13" x="35.06" y="0">t</tspan><tspan x="41.45" y="0">al</tspan><tspan x="-16.38" y="29.82">bridgi</tspan><tspan class="cls-8" x="49.65" y="29.82">n</tspan><tspan class="cls-9" x="63.44" y="29.82">g</tspan></text><line class="cls-44" x1="638.59" y1="148.5" x2="606.24" y2="177.64"/><line class="cls-44" x1="665.09" y1="149.14" x2="699.71" y2="169.13"/><text class="cls-37" transform="translate(671.04 215.38)">cla<tspan class="cls-45" x="27.26" y="0">y</tspan></text><path class="cls-41" d="M603.05,196.54c12-1.52,18.83-17.39,7-22.88-5.42-2.52-14.13.69-18.28,4.55-5.08,4.74-3.48,9.45-2.32,15.62,0,0,.79,1.34,1,1.74,3.57,4.89,7.27,2.48,12.58,1"/><path class="cls-41" d="M699.44,166.66c-10.92,5.12-12.58,22.34.34,23.93,5.93.74,13.24-5,16-9.94,3.38-6.08.41-10.06-2.59-15.58,0,0-1.17-1-1.49-1.35-4.89-3.55-7.67-.13-12.26,2.94"/></g></g></g></svg>