<svg xmlns="http://www.w3.org/2000/svg" viewBox="0 0 1383.87 628.96"><defs><style>.cls-1,.cls-2,.cls-3,.cls-4{isolation:isolate;}.cls-2,.cls-3,.cls-4{font-size:45.97px;fill:#3daaa1;font-family:Acre-Regular, Acre;}.cls-3{letter-spacing:-0.01em;}.cls-4{letter-spacing:-0.04em;}.cls-12,.cls-15,.cls-16,.cls-18,.cls-19,.cls-5,.cls-9{fill:none;stroke-miterlimit:10;}.cls-5{stroke:#5b5052;stroke-width:1.35px;}.cls-6{fill:#5c5052;}.cls-7{fill:#336da9;}.cls-8{fill:#e06a7c;}.cls-18,.cls-9{stroke:#336da9;stroke-linecap:round;}.cls-9{stroke-width:7.83px;}.cls-10{fill:#ffc201;}.cls-11{fill:#3d9e95;}.cls-12{stroke:#2e6195;stroke-width:1.72px;}.cls-13{fill:#bb252c;}.cls-14{fill:#e67243;}.cls-15,.cls-16,.cls-19{stroke:#5c5052;}.cls-15{stroke-width:0.87px;}.cls-16{stroke-width:1.91px;}.cls-17{fill:#dadbdc;}.cls-18{stroke-width:4.69px;}.cls-19{stroke-width:1.74px;}</style></defs><g id="Layer_2" data-name="Layer 2"><g id="Layer_1-2" data-name="Layer 1"><g class="cls-1"><text class="cls-2" transform="translate(0 39.07)">p</text><text class="cls-3" transform="translate(28.36 39.07)">h</text><text class="cls-4" transform="translate(54.2 39.07)">y</text><text class="cls-2" transform="translate(77.23 39.07)">sical</text></g><g class="cls-1"><text class="cls-2" transform="translate(574.52 39.66)">c</text><text class="cls-3" transform="translate(598.24 39.66)">h</text><text class="cls-2" transform="translate(624.12 39.66)">emical</text></g><text class="cls-2" transform="translate(580.27 418.09)">biological</text><line class="cls-5" x1="512.5" y1="7.96" x2="512.5" y2="628.96"/></g><g id="Layer_2-2" data-name="Layer 2"><g id="Layer_97" data-name="Layer 97"><g class="cls-1"><g class="cls-1"><path class="cls-6" d="M1272,602v4.85h2.58v1.44H1272v11h-1.47v-11h-1.59v-1.44h1.59v-5.12a2.27,2.27,0,0,1,2.34-2.49,3,3,0,0,1,1.71.5v1.54a2.57,2.57,0,0,0-1.44-.52A1.13,1.13,0,0,0,1272,602Z"/><path class="cls-6" d="M1287.11,606.89v12.42h-1.49v-2a4.53,4.53,0,0,1-4,2.26c-2.56,0-4.77-1.82-4.77-5.64v-7h1.46v6.73c0,3,1.47,4.53,3.63,4.53,1.92,0,3.46-1.32,3.66-3.91v-7.35Z"/></g><g class="cls-1"><path class="cls-6" d="M1301.47,612.3v7H1300v-6.73c0-3-1.47-4.53-3.63-4.53-1.92,0-3.46,1.32-3.66,3.91v7.35h-1.49V606.89h1.49v2a4.54,4.54,0,0,1,4-2.26C1299.26,606.66,1301.47,608.48,1301.47,612.3Z"/></g><g class="cls-1"><path class="cls-6" d="M1316.23,618.77c0,3.88-3,5.69-5.86,5.69a8.64,8.64,0,0,1-4.65-1.39l0-1.62a7.77,7.77,0,0,0,4.45,1.62,4.31,4.31,0,0,0,4.6-4.65v-1.74a5.46,5.46,0,0,1-4.77,2.81c-3.46,0-5.87-2.86-5.87-6.37s2.41-6.38,5.87-6.38a5.36,5.36,0,0,1,4.72,2.78v-2.63h1.47Zm-1.49-5.65a4.73,4.73,0,0,0-4.57-4.94,5,5,0,0,0,0,9.87A4.71,4.71,0,0,0,1314.74,613.12Z"/><path class="cls-6" d="M1320.36,603.36a1,1,0,0,1,1-1.07,1.06,1.06,0,0,1,1.07,1.07,1,1,0,0,1-1.07,1A1,1,0,0,1,1320.36,603.36Zm.32,3.53h1.49v12.42h-1.49Z"/></g></g><path class="cls-7" d="M1300,486.91s-20.67,0-22.13,20.24c-.37,5.2,11.18,4.41,17.68,3.53.52,8.56,2.27,40.76-.67,49.26,0,0-.24,2.23,6.22,2s7.75-4,7.75-4,3.53,3.29-4.85-47.32c6.41.9,18.4,1.85,18.12-3.47C1321.08,487.61,1300,486.91,1300,486.91Z"/><path class="cls-7" d="M1336.74,528.83s12.23,4.4,8.79,16.68c-.88,3.15-7.55.23-11.21-1.67-2.13,4.95-10,23.63-10.08,29.28,0,0-.34,1.38-4.11-.12s-3.73-4-3.73-4-2.79,1.2,12.93-27c-4-.82-11.28-2.81-10-5.9C1324.11,524.76,1336.74,528.83,1336.74,528.83Z"/><path class="cls-7" d="M1255.11,511.19s17-5.75,24.22,11.62c1.84,4.46-7.9,7-13.52,8,2.11,7.67,10.21,36.43,15.15,43.08,0,0,.86,1.9-4.52,3.52s-7.57-1.39-7.57-1.39-1.93,3.87-10-42.91c-5,2.58-14.6,6.75-15.95,2C1237.93,517.67,1255.11,511.19,1255.11,511.19Z"/></g></g><g id="Layer_3" data-name="Layer 3"><g id="Layer_96" data-name="Layer 96"><path class="cls-8" d="M1095,498.4a8.14,8.14,0,0,0-8.13-8.15,8.24,8.24,0,0,0-3.49.78c-16.91,5.11-25.39,21.3-25.39,21.3h0a7.65,7.65,0,0,0,12.7,8.44,72.84,72.84,0,0,1,19.1-14.77,7.77,7.77,0,0,0,1-.5h0A8.12,8.12,0,0,0,1095,498.4Z"/><path class="cls-8" d="M1103.79,528.94a8.79,8.79,0,0,0,1.52-5,8.93,8.93,0,0,0-16.83-4.16,108.51,108.51,0,0,0-12.5,38.87h.06a8.51,8.51,0,0,0-.06,1,8.93,8.93,0,0,0,17.85,0S1093.48,548,1103.79,528.94Z"/><path class="cls-8" d="M1140.77,555.44h0a6.88,6.88,0,0,0-1-.78,65,65,0,0,1-16.2-19.47h0a6.94,6.94,0,0,0-12.94,5,6.61,6.61,0,0,0,.58,1.16h0c11.94,21.93,21,25.73,21,25.73h0a7.28,7.28,0,0,0,8.56-11.66Z"/><g class="cls-1"><g class="cls-1"><path class="cls-6" d="M1067.49,613.1c0,3.5-2.41,6.39-5.86,6.39a5.42,5.42,0,0,1-4.73-2.76v2.58h-1.49V599.43h1.49v10a5.43,5.43,0,0,1,4.73-2.73C1065.08,606.74,1067.49,609.6,1067.49,613.1Zm-1.51,0a4.62,4.62,0,0,0-4.5-4.92,4.95,4.95,0,0,0,0,9.87A4.66,4.66,0,0,0,1066,613.1Z"/><path class="cls-6" d="M1082,606.89v12.42h-1.5v-2.56a5.42,5.42,0,0,1-4.72,2.74c-3.45,0-5.86-2.86-5.86-6.37s2.41-6.38,5.86-6.38a5.38,5.38,0,0,1,4.72,2.76v-2.61Zm-1.5,6.23a4.73,4.73,0,0,0-4.57-4.94,5,5,0,0,0,0,9.87A4.71,4.71,0,0,0,1080.46,613.12Z"/><path class="cls-6" d="M1085.21,613.1a6.21,6.21,0,0,1,6.34-6.41,6.28,6.28,0,0,1,4.15,1.46V610a5.35,5.35,0,0,0-4.1-1.84,5,5,0,0,0,0,9.9,5.35,5.35,0,0,0,4.1-1.84v1.84a6.28,6.28,0,0,1-4.15,1.46A6.2,6.2,0,0,1,1085.21,613.1Z"/></g><g class="cls-1"><path class="cls-6" d="M1103.6,608.33H1101v11h-1.49v-11H1098v-1.44h1.59v-3.33H1101v3.33h2.56Z"/></g><g class="cls-1"><path class="cls-6" d="M1116.5,613.62h-10.27a4.62,4.62,0,0,0,4.77,4.45,6,6,0,0,0,4.23-1.71v1.69a6.76,6.76,0,0,1-4.28,1.44,6.38,6.38,0,0,1-.25-12.75C1114.41,606.74,1116.57,610,1116.5,613.62Zm-10.25-1.32h8.65c-.32-2.31-1.86-4.12-4.2-4.12A4.5,4.5,0,0,0,1106.25,612.3Z"/><path class="cls-6" d="M1124.69,606.69v1.69c-2-.15-3.57,1.54-3.57,4.1v6.83h-1.5V606.89h1.5v2.28A4,4,0,0,1,1124.69,606.69Z"/><path class="cls-6" d="M1127.18,603.36a1,1,0,0,1,1-1.07,1.06,1.06,0,0,1,1.07,1.07,1,1,0,0,1-1.07,1A1,1,0,0,1,1127.18,603.36Zm.32,3.53H1129v12.42h-1.49Z"/><path class="cls-6" d="M1144.62,606.89v12.42h-1.49v-2.56a5.42,5.42,0,0,1-4.72,2.74c-3.45,0-5.87-2.86-5.87-6.37s2.42-6.38,5.87-6.38a5.38,5.38,0,0,1,4.72,2.76v-2.61Zm-1.49,6.23a4.73,4.73,0,0,0-4.57-4.94,5,5,0,0,0,0,9.87A4.71,4.71,0,0,0,1143.13,613.12Z"/></g></g></g></g><g id="Layer_4" data-name="Layer 4"><g id="Layer_95" data-name="Layer 95"><g class="cls-1"><g class="cls-1"><path class="cls-6" d="M862.11,606.69v1.69c-2-.15-3.57,1.54-3.57,4.1v6.83H857V606.89h1.5v2.28A4,4,0,0,1,862.11,606.69Z"/></g><g class="cls-1"><path class="cls-6" d="M863.23,613.07a6.29,6.29,0,1,1,6.29,6.42A6.24,6.24,0,0,1,863.23,613.07Zm11.09,0a4.79,4.79,0,1,0-4.8,4.95A4.78,4.78,0,0,0,874.32,613.07Z"/></g><g class="cls-1"><path class="cls-6" d="M878.19,613.07a6.29,6.29,0,1,1,6.29,6.42A6.24,6.24,0,0,1,878.19,613.07Zm11.09,0a4.79,4.79,0,1,0-4.8,4.95A4.78,4.78,0,0,0,889.28,613.07Z"/></g><g class="cls-1"><path class="cls-6" d="M898.1,608.33h-2.56v11h-1.49v-11h-1.59v-1.44h1.59v-3.33h1.49v3.33h2.56Z"/></g><g class="cls-1"><path class="cls-6" d="M899.36,617.55l1-1.09a4,4,0,0,0,3,1.61,2.15,2.15,0,0,0,2.41-2c0-3.1-6.19-2.09-6.17-6.21a3.38,3.38,0,0,1,3.63-3.18,5.19,5.19,0,0,1,3.75,1.76l-.92,1.07a3.93,3.93,0,0,0-2.8-1.39,2,2,0,0,0-2.17,1.74c0,2.88,6.19,1.89,6.17,6.24,0,1.91-1.59,3.4-4,3.4A5.4,5.4,0,0,1,899.36,617.55Z"/></g></g><path class="cls-6" d="M893.45,472.35a20.72,20.72,0,0,0,.76,7.14,10,10,0,0,0,4.14,5.24c2,1.4,4.37,2.56,6.68,3.89a59.1,59.1,0,0,1,6.78,4.4c8.65,6.35,15.84,14.21,23.33,21.54,1.87,1.85,3.78,3.62,5.72,5.41a68.44,68.44,0,0,1,5.58,5.72,29.94,29.94,0,0,1,4.41,6.73,26.66,26.66,0,0,1,2.2,7.72c.18,1.33.27,2.66.32,4v2a13.3,13.3,0,0,1-.22,2c-.49,2.66-1.73,5.05-1.94,7.63a7.78,7.78,0,0,0,.58,3.76A10.73,10.73,0,0,0,954,562.7c1.79,1.89,4,3.56,5.11,6-1.23-2.37-3.42-4-5.28-5.81a11,11,0,0,1-2.39-3.18,8.21,8.21,0,0,1-.74-3.94c.15-2.72,1.33-5.18,1.72-7.72a12,12,0,0,0,.14-1.9l-.07-2c-.09-1.3-.22-2.6-.43-3.88a25.72,25.72,0,0,0-2.33-7.35,29.32,29.32,0,0,0-4.41-6.31c-3.46-3.85-7.69-7-11.54-10.68-7.77-7.16-15.13-14.71-23.69-20.6a58.1,58.1,0,0,0-6.59-4c-2.29-1.23-4.7-2.29-7.08-3.85a14.58,14.58,0,0,1-1.74-1.3,12.56,12.56,0,0,1-1.61-1.57,6.22,6.22,0,0,1-.69-.91,8.69,8.69,0,0,1-.63-.95,12.43,12.43,0,0,1-.95-2.06,24,24,0,0,1-1.21-8.45,1.91,1.91,0,0,1,3.81,0v.11Z"/><path class="cls-6" d="M890.33,473.52c.81,3.55,1.95,7.05,3.08,10.6a62.26,62.26,0,0,1,2.72,11,26.51,26.51,0,0,1-1,11.54c-.32.92-.71,1.81-1.06,2.71a28.22,28.22,0,0,1-1.31,2.57c-.92,1.65-1.9,3.23-2.85,4.83a54.06,54.06,0,0,0-4.91,9.76,25.31,25.31,0,0,0-1.38,10.6,41.5,41.5,0,0,1,.21,5.68,15.43,15.43,0,0,1-1.42,5.66,25.41,25.41,0,0,1-7.15,8.88,56.44,56.44,0,0,1-9.46,6.12c-3.29,1.76-6.66,3.38-10.07,4.88-6.81,3-13.76,5.72-19.68,10.19a49.57,49.57,0,0,0-8,7.59,73.06,73.06,0,0,0-6.55,9,44.35,44.35,0,0,0-4.71,10,22.17,22.17,0,0,0-1,5.46,12.65,12.65,0,0,0,.92,5.44,12.65,12.65,0,0,1-1-5.44,22,22,0,0,1,.89-5.51A44.46,44.46,0,0,1,821.11,595a73.37,73.37,0,0,1,6.45-9.13,49.73,49.73,0,0,1,8-7.82,58.44,58.44,0,0,1,9.54-5.89c3.34-1.68,6.76-3.16,10.13-4.71s6.67-3.2,9.91-5a54.75,54.75,0,0,0,9.14-6.11,24,24,0,0,0,6.6-8.44,14.25,14.25,0,0,0,1.2-5.1,41.64,41.64,0,0,0-.3-5.46,27.11,27.11,0,0,1,1.3-11.37A56.8,56.8,0,0,1,888,515.72c.93-1.61,1.88-3.21,2.75-4.82l1.18-2.41c.31-.84.65-1.66.93-2.5a23.9,23.9,0,0,0,.78-10.5A60.52,60.52,0,0,0,890.86,485c-1.17-3.51-2.4-7.07-3.31-10.76a1.43,1.43,0,0,1,2.77-.69Z"/><path class="cls-6" d="M890.3,474.19a18.11,18.11,0,0,1,.61,8.27,25.25,25.25,0,0,1-2.59,7.71,15.83,15.83,0,0,1-2.31,3.46,8.88,8.88,0,0,1-3.6,2.54,9.86,9.86,0,0,1-4.31.46,31.82,31.82,0,0,1-4-.68,32.55,32.55,0,0,0-7.42-1.05,16.84,16.84,0,0,0-3.61.46,17.64,17.64,0,0,0-1.75.53l-1.78.69c-4.74,1.91-9.38,4.19-14.1,6.3a92.32,92.32,0,0,1-14.59,5.43c-5,1.29-10.43,1.82-15.51.41a21.8,21.8,0,0,1-7-3.37,28.66,28.66,0,0,1-5.62-5.38q-1.22-1.52-2.34-3.09a9.77,9.77,0,0,0-2.55-2.81,5,5,0,0,0-1.82-.54c-.63-.09-1.27-.13-1.92-.16-1.29-.05-2.58-.06-3.87-.08h3.87a11.42,11.42,0,0,1,1.94.11,5.34,5.34,0,0,1,1.88.53,10,10,0,0,1,2.69,2.8c.77,1,1.57,2,2.39,3a28.83,28.83,0,0,0,5.65,5.16,21.1,21.1,0,0,0,6.92,3.12c5,1.25,10.17.62,15.06-.76a90.77,90.77,0,0,0,14.26-5.69c4.65-2.2,9.23-4.59,14-6.65l1.81-.75c.64-.23,1.28-.47,1.94-.64a19.33,19.33,0,0,1,4-.6,33.76,33.76,0,0,1,7.89.91c2.5.48,5,.94,7,.14s3.44-2.77,4.49-5a22.29,22.29,0,0,0,2.18-7,15.54,15.54,0,0,0-.68-7,1.43,1.43,0,0,1,2.71-.92h0Z"/><path class="cls-6" d="M895.33,504.82c-1.85,3.37-4.28,6.05-6.36,8.88s-4,5.77-4.37,9a11,11,0,0,0,.45,4.84,14,14,0,0,0,2.45,4.36c2.14,2.7,4.93,5,7.47,7.54a45.39,45.39,0,0,1,6.8,8.46,26.47,26.47,0,0,1,3.47,10.27,41.23,41.23,0,0,1-.13,10.76c-.45,3.52-.93,7.16.15,10.62-1.2-3.42-.84-7.13-.51-10.65a41.13,41.13,0,0,0-.23-10.63,25.6,25.6,0,0,0-3.68-9.79,44.19,44.19,0,0,0-6.89-8c-2.56-2.43-5.45-4.59-7.87-7.43a16.13,16.13,0,0,1-2.93-4.85,13,13,0,0,1-.73-5.74,15.88,15.88,0,0,1,1.63-5.5,35.9,35.9,0,0,1,2.87-4.75c2.06-3,4.37-5.75,5.87-8.72h0a1.43,1.43,0,0,1,2.55,1.29Z"/><path class="cls-6" d="M896.63,484.16a63.76,63.76,0,0,1,12.69,6.54c4,2.55,7.77,5.3,11.52,8.08l5.6,4.15c.94.68,1.88,1.35,2.82,2a22.52,22.52,0,0,0,2.82,1.71,2.88,2.88,0,0,0,1.25.34,10.16,10.16,0,0,0,1.56,0,22.82,22.82,0,0,0,3.28-.51c2.21-.49,4.45-1.18,6.77-1.7a16.7,16.7,0,0,1,7.34-.35,7.34,7.34,0,0,1,3.39,1.9,12.55,12.55,0,0,1,2.17,3,69.86,69.86,0,0,1,2.79,6.48,18.65,18.65,0,0,0,3.34,5.86,16.49,16.49,0,0,0,5.65,3.7,26.2,26.2,0,0,0,6.69,1.64c4.6.57,9.28.37,13.94.45-4.66.08-9.32.46-14,0a26.73,26.73,0,0,1-6.91-1.43,17.37,17.37,0,0,1-6.08-3.7,19.61,19.61,0,0,1-3.78-6.07,65.38,65.38,0,0,0-3-6.24c-1.18-1.94-2.62-3.6-4.66-4a14.79,14.79,0,0,0-6.47.59c-2.21.58-4.41,1.33-6.72,1.94a23.21,23.21,0,0,1-3.61.68,11.32,11.32,0,0,1-1.93,0h-.5a2.14,2.14,0,0,1-.56-.11,2.26,2.26,0,0,1-.56-.17c-.16-.07-.34-.13-.48-.2a24.64,24.64,0,0,1-3.17-1.87c-1-.66-2-1.34-2.91-2l-5.66-4.11c-3.76-2.73-7.54-5.41-11.45-7.86a61.19,61.19,0,0,0-12.14-6.13h0a1.43,1.43,0,0,1,.78-2.75l.15.05Z"/><path class="cls-6" d="M933.36,512.86a77.86,77.86,0,0,1,7.47,8.66,40.6,40.6,0,0,1,5.54,10.08,22.91,22.91,0,0,1,1.21,11.48,26,26,0,0,1-4.6,10.53c-2.19,3.14-4.82,5.89-7.26,8.74a26,26,0,0,0-3.24,4.51,14.36,14.36,0,0,0-1.6,5.25c-.41,3.71.61,7.41,1.28,11.12a24.93,24.93,0,0,1,.46,5.65,13.7,13.7,0,0,1-1.44,5.44,13.69,13.69,0,0,0,1.28-5.45,24.49,24.49,0,0,0-.61-5.59c-.76-3.66-1.9-7.36-1.59-11.23a15.17,15.17,0,0,1,1.53-5.55,24.93,24.93,0,0,1,3.24-4.73,109.62,109.62,0,0,0,7-8.79,24.47,24.47,0,0,0,4.22-10.1A21.48,21.48,0,0,0,945,532.12a39.52,39.52,0,0,0-5.5-9.58,75.38,75.38,0,0,0-7.45-8.33h0a1,1,0,0,1,0-1.35.94.94,0,0,1,1.33,0h0Z"/><path class="cls-6" d="M940.31,519.34a53.42,53.42,0,0,1,6.43,11.59,36.93,36.93,0,0,1,2.62,13,48.73,48.73,0,0,1-1.82,13.1c-1.07,4.24-2.49,8.38-3,12.6a18.09,18.09,0,0,0,.25,6.27,15.4,15.4,0,0,0,2.67,5.65c.68.87,1.33,1.76,1.92,2.68a25.12,25.12,0,0,1,1.56,3,29.88,29.88,0,0,1,2,6.31,41.74,41.74,0,0,1,.35,13.1,45,45,0,0,1-3.41,12.58,44.61,44.61,0,0,0,3-12.63,41.07,41.07,0,0,0-.72-12.89,25.78,25.78,0,0,0-5.62-11.41,16.62,16.62,0,0,1-2.93-6,19.1,19.1,0,0,1-.35-6.7c.5-4.44,1.9-8.61,2.9-12.81A47,47,0,0,0,947.75,544a35.32,35.32,0,0,0-2.64-12.41,51.46,51.46,0,0,0-6.34-11.12,1,1,0,0,1,.63-1.26,1,1,0,0,1,.9.13Z"/><path class="cls-6" d="M885.15,527.29a22.22,22.22,0,0,0,3,6.5c1.32,2.12,2.75,4.24,4,6.5a28.46,28.46,0,0,1,2.94,7.24,21.58,21.58,0,0,1,.51,3.92,19.75,19.75,0,0,1-.3,3.92,24.66,24.66,0,0,1-2.55,7.33c-1.17,2.32-2.68,4.36-3.93,6.53a32,32,0,0,0-3.11,6.84,10.62,10.62,0,0,0,.07,7.37,10.83,10.83,0,0,1-.47-7.48,32.71,32.71,0,0,1,2.79-7.12c1.14-2.3,2.55-4.42,3.61-6.65a23.79,23.79,0,0,0,2.2-7,18.53,18.53,0,0,0,.16-3.65,20.87,20.87,0,0,0-.58-3.58,27.05,27.05,0,0,0-3-6.7c-1.27-2.12-2.75-4.15-4.17-6.29a24.15,24.15,0,0,1-3.56-7.1,1.19,1.19,0,1,1,2.31-.61v.06Z"/><path class="cls-6" d="M894.14,487.22a23.17,23.17,0,0,1,2,7.09,17.41,17.41,0,0,1-.81,7.45,20.45,20.45,0,0,1-3.64,6.38,33.49,33.49,0,0,1-5.1,5c-7.4,5.79-15.9,9.34-23.86,13.53-8.08,3.93-14.07,11-20.23,17.56a127.2,127.2,0,0,1-9.63,9.66A34,34,0,0,1,821.29,561a33.61,33.61,0,0,0,11.25-7.42,124.77,124.77,0,0,0,9.23-10c3-3.43,5.89-6.92,9.11-10.18a57.54,57.54,0,0,1,5.12-4.62,49.41,49.41,0,0,1,5.79-3.81c4-2.27,8-4.33,11.92-6.57a74.51,74.51,0,0,0,11-7.48c3.31-2.83,6.21-6.22,7.39-10.14a16,16,0,0,0-1.48-11.87,1.9,1.9,0,0,1,1-2.52,1.93,1.93,0,0,1,2.43.79v.08Z"/><path class="cls-6" d="M889,510.87a9,9,0,0,1-2.2,3.22,25.89,25.89,0,0,1-2.63,2.28c-1.8,1.39-3.67,2.61-5.56,3.79-3.77,2.36-7.64,4.48-11.4,6.7-.93.56-1.86,1.12-2.75,1.7-.45.3-.89.59-1.29.9a7.75,7.75,0,0,0-1,.89v.07l-.11.16-.2.32a6.11,6.11,0,0,0-.38.65,12.08,12.08,0,0,0-.65,1.36,15.25,15.25,0,0,0-.87,2.94c-.78,4.1-.22,8.47.32,12.8.28,2.18.57,4.38.69,6.62a59.71,59.71,0,0,1-.1,6.69,34.36,34.36,0,0,1-3.3,12.9,28.37,28.37,0,0,1-3.71,5.54c-1.41,1.71-2.92,3.31-4.3,5a19.77,19.77,0,0,0-3.39,5.57,13.67,13.67,0,0,0-.7,6.46,13.82,13.82,0,0,1,.49-6.54,19.89,19.89,0,0,1,3.25-5.76c2.7-3.49,5.78-6.69,7.55-10.66a33.08,33.08,0,0,0,2.77-12.59,58.8,58.8,0,0,0-.12-6.5c-.18-2.15-.54-4.3-.89-6.47-.69-4.33-1.46-8.82-.76-13.44a17.62,17.62,0,0,1,.88-3.41,14.61,14.61,0,0,1,.71-1.63c.14-.26.27-.54.43-.79l.23-.38.12-.19.19-.26a8.89,8.89,0,0,1,1.42-1.32c.47-.36.94-.69,1.41-1,.94-.63,1.88-1.22,2.83-1.8,3.78-2.3,7.6-4.46,11.26-6.8,1.83-1.18,3.63-2.39,5.29-3.7a24,24,0,0,0,2.32-2.07,6.53,6.53,0,0,0,1.51-2.16h0a1.43,1.43,0,0,1,2.76.75.66.66,0,0,1,0,.15Z"/><path class="cls-6" d="M889.57,474.36c.58,3.21,1.65,6.41,2.3,9.87a22.07,22.07,0,0,1,.39,5.38,14.46,14.46,0,0,1-1.43,5.33,18,18,0,0,1-1.39,2.36,22.87,22.87,0,0,1-1.72,2.08,25.1,25.1,0,0,1-4,3.5,37.59,37.59,0,0,1-9.26,4.76c-6.49,2.37-13.21,3.56-19.78,5.05s-13.15,3.12-18.81,6.59a40.82,40.82,0,0,0-4,2.91q-1.9,1.6-3.66,3.41c-2.32,2.41-4.44,5-6.59,7.65a68.21,68.21,0,0,1-6.88,7.54,24.63,24.63,0,0,1-8.75,5.29,26.57,26.57,0,0,1-10.14,1.14c-3.39-.22-6.74-.7-10.1-.85a19,19,0,0,0-5,.36,8.2,8.2,0,0,0-4.26,2.47c-.26.32-.53.64-.78,1l-.61,1.1a6.2,6.2,0,0,0-.51,1.15l-.45,1.18c-.2.82-.43,1.63-.61,2.46l-.4,2.5.36-2.51c.16-.83.38-1.65.56-2.48l.43-1.19a7.48,7.48,0,0,1,.5-1.17l.6-1.13c.25-.34.52-.67.78-1a8.46,8.46,0,0,1,4.32-2.61,19.24,19.24,0,0,1,5.08-.46c3.39.09,6.76.51,10.12.68a25.68,25.68,0,0,0,9.88-1.29,24,24,0,0,0,8.38-5.27,67.36,67.36,0,0,0,6.65-7.56c2.09-2.64,4.19-5.33,6.52-7.83,1.17-1.24,2.4-2.44,3.69-3.57a41.71,41.71,0,0,1,4.14-3.1c5.87-3.73,12.61-5.51,19.17-7.12s13.22-2.93,19.42-5.32a35.06,35.06,0,0,0,8.64-4.62,23.46,23.46,0,0,0,3.57-3.26,20.56,20.56,0,0,0,1.49-1.86,14.56,14.56,0,0,0,1.14-2,12.1,12.1,0,0,0,1.11-4.42,19.64,19.64,0,0,0-.44-4.71c-.65-3.18-1.78-6.4-2.48-9.84a1.43,1.43,0,0,1,2.8-.57Z"/><path class="cls-6" d="M851.18,500.46c-5.89,2.76-11.69,5.87-17.5,8.91-2.9,1.53-5.8,3.07-8.74,4.55L822.73,515c-.71.37-1.42.75-2.13,1.16-1.41.82-2.82,1.67-4.29,2.45a23.55,23.55,0,0,1-4.61,2,10.09,10.09,0,0,1-2.55.43,6.79,6.79,0,0,1-2.56-.5,48,48,0,0,0-4.5-1.88,18.39,18.39,0,0,0-4.8-.24,85.62,85.62,0,0,0-9.68,1.58,40.34,40.34,0,0,1-4.89.62,28.87,28.87,0,0,1-4.92-.12,31,31,0,0,0,4.91,0,41.8,41.8,0,0,0,4.85-.76,84.09,84.09,0,0,1,9.69-1.87,19,19,0,0,1,5,.11,48,48,0,0,1,4.63,1.77,6,6,0,0,0,2.25.38,8.48,8.48,0,0,0,2.28-.46,22.26,22.26,0,0,0,4.35-2c1.4-.81,2.78-1.69,4.19-2.55.7-.44,1.42-.86,2.15-1.27l2.19-1.12c2.9-1.52,5.77-3.11,8.65-4.69,5.76-3.14,11.49-6.34,17.43-9.25a1,1,0,0,1,1.15.83,1,1,0,0,1-.31.89h0Z"/><path class="cls-6" d="M842.5,516.28a22.48,22.48,0,0,0-6.73,6.83,55.92,55.92,0,0,0-4.66,8.74c-.66,1.52-1.28,3.07-1.87,4.63s-1.06,3.14-1.8,4.76a10.87,10.87,0,0,1-3.24,4.14,26.56,26.56,0,0,1-4.47,2.52,17.4,17.4,0,0,0-4.07,2.71,19.2,19.2,0,0,0-3.12,3.79,24.1,24.1,0,0,0-3.14,9.35c-.49,3.3-.6,6.67-1,10a28.31,28.31,0,0,1-2.62,9.68,28.3,28.3,0,0,0,2.37-9.71c.31-3.33.34-6.7.75-10.05a24.7,24.7,0,0,1,3-9.67,20,20,0,0,1,3.16-4,18.64,18.64,0,0,1,4.21-3,25.75,25.75,0,0,0,4.23-2.51,9.7,9.7,0,0,0,2.8-3.78c.63-1.45,1.08-3.12,1.66-4.7s1.15-3.17,1.79-4.74a56.69,56.69,0,0,1,4.62-9.09,24.14,24.14,0,0,1,7.15-7.53,1,1,0,0,1,1.54,1.28,1,1,0,0,1-.54.33h0Z"/><path class="cls-6" d="M891.14,473.08a18.7,18.7,0,0,1,1.84,4.29c.44,1.44.77,2.87,1.06,4.31.59,2.86,1,5.71,1.44,8.55s.86,5.65,1.41,8.43a36,36,0,0,0,2.36,7.95,10.68,10.68,0,0,0,1,1.7c.39.56.8,1.11,1.24,1.66.87,1.07,1.82,2.12,2.79,3.17a42.23,42.23,0,0,1,5.54,6.83,18.76,18.76,0,0,1,1.84,4.15,18.35,18.35,0,0,1,.58,4.48,41.89,41.89,0,0,0,.24,4.2,13,13,0,0,0,1.21,3.86,19.68,19.68,0,0,0,5.1,6.46,33.41,33.41,0,0,0,7.11,4.51A75,75,0,0,0,942.08,553c5.58,1.3,11.24,2.12,16.9,3.22a22.55,22.55,0,0,1,8,3.25c2.39,1.62,4.5,3.56,6.74,5.36-2.27-1.75-4.44-3.65-6.85-5.2a22.15,22.15,0,0,0-7.93-3c-5.64-1-11.36-1.66-17-2.83a77.15,77.15,0,0,1-16.54-5,34.35,34.35,0,0,1-7.48-4.52,21.16,21.16,0,0,1-5.64-6.83,18.85,18.85,0,0,1-.87-2.07,12.06,12.06,0,0,1-.57-2.22,42.42,42.42,0,0,1-.35-4.37,17,17,0,0,0-.61-4,16.74,16.74,0,0,0-1.72-3.66,41.33,41.33,0,0,0-5.44-6.38c-1-1-2-2.09-3-3.22-.48-.56-.94-1.15-1.38-1.76a13.94,13.94,0,0,1-1.2-2,38.62,38.62,0,0,1-2.67-8.47c-.6-2.85-1.08-5.69-1.56-8.52s-.94-5.65-1.54-8.4a25.49,25.49,0,0,0-2.64-7.61h0a1.43,1.43,0,0,1,2.42-1.52Z"/><path class="cls-6" d="M892.56,472.47c1.69-3.59-3.06-.79-3.86-.31-.62.38-2.24,1-1.69,2.09.67,1.33,3.45.74,4.31,0"/></g></g><g id="Layer_5" data-name="Layer 5"><g id="Layer_107" data-name="Layer 107"><g class="cls-1"><g class="cls-1"><path class="cls-6" d="M597,613.62H586.71a4.62,4.62,0,0,0,4.77,4.45,6,6,0,0,0,4.23-1.71v1.69a6.76,6.76,0,0,1-4.28,1.44,6.38,6.38,0,0,1-.25-12.75C594.89,606.74,597.05,610,597,613.62Zm-10.25-1.32h8.65c-.32-2.31-1.86-4.12-4.2-4.12A4.5,4.5,0,0,0,586.73,612.3Z"/><path class="cls-6" d="M611.31,606.89v12.42h-1.49v-2.56a5.42,5.42,0,0,1-4.72,2.74c-3.46,0-5.87-2.86-5.87-6.37s2.41-6.38,5.87-6.38a5.38,5.38,0,0,1,4.72,2.76v-2.61Zm-1.49,6.23a4.73,4.73,0,0,0-4.57-4.94,5,5,0,0,0,0,9.87A4.71,4.71,0,0,0,609.82,613.12Z"/><path class="cls-6" d="M620.51,606.69v1.69c-2-.15-3.58,1.54-3.58,4.1v6.83h-1.49V606.89h1.49v2.28A4.06,4.06,0,0,1,620.51,606.69Z"/><path class="cls-6" d="M627.39,608.33h-2.56v11h-1.49v-11h-1.59v-1.44h1.59v-3.33h1.49v3.33h2.56Z"/></g><g class="cls-1"><path class="cls-6" d="M640.14,612.3v7h-1.47v-6.73c0-3-1.46-4.53-3.63-4.53s-3.68,1.55-3.68,4.53v6.73h-1.49V599.43h1.49V609a4.56,4.56,0,0,1,4-2.29C637.93,606.66,640.14,608.48,640.14,612.3Z"/></g><g class="cls-1"><path class="cls-6" d="M661.44,606.89l-6.39,12.57h-.82l-2.61-5.24-2.56,5.24h-.85l-6.36-12.57h1.62l5.22,10.41,2.18-4.55L648,606.89h1.57l2.08,4.45,2.09-4.45h1.57l-2.91,5.86,2.24,4.55,5.19-10.41Z"/></g><g class="cls-1"><path class="cls-6" d="M662.35,613.07a6.29,6.29,0,1,1,6.29,6.42A6.24,6.24,0,0,1,662.35,613.07Zm11.09,0a4.79,4.79,0,1,0-4.8,4.95A4.78,4.78,0,0,0,673.44,613.07Z"/><path class="cls-6" d="M683.25,606.69v1.69c-2-.15-3.58,1.54-3.58,4.1v6.83h-1.49V606.89h1.49v2.28A4.07,4.07,0,0,1,683.25,606.69Z"/></g><g class="cls-1"><path class="cls-6" d="M703.57,612l0,7.35h-1.49v-7.06c0-2.53-1.27-4.17-3.33-4.17s-3.33,1.64-3.33,4.35l0,6.88H693.9v-7.06c0-2.53-1.27-4.17-3.33-4.17s-3.34,1.64-3.34,4.35v6.88h-1.49V606.89h1.49v1.86a4.14,4.14,0,0,1,3.66-2.09,4.24,4.24,0,0,1,4.05,2.81,4.39,4.39,0,0,1,4.1-2.81C701.53,606.66,703.57,608.53,703.57,612Z"/></g><g class="cls-1"><path class="cls-6" d="M706.66,617.55l1-1.09a4,4,0,0,0,3,1.61,2.15,2.15,0,0,0,2.41-2c0-3.1-6.19-2.09-6.17-6.21a3.38,3.38,0,0,1,3.63-3.18,5.19,5.19,0,0,1,3.75,1.76l-.92,1.07a3.93,3.93,0,0,0-2.8-1.39,2,2,0,0,0-2.17,1.74c-.05,2.88,6.19,1.89,6.17,6.24,0,1.91-1.59,3.4-4,3.4A5.4,5.4,0,0,1,706.66,617.55Z"/></g></g><path class="cls-6" d="M578.29,555.73s6.47-22.5,27.89-20.63c15,1.31,25,14.24,25,14.24S641,561,648,553.11c5.52-6.24,2-18.44,2-18.44s-3-10.1-2.29-18.48c.69-8.1,6.93-17.52,20-17.2,30.74.75,15.4,38.73,15.4,38.73S675.6,554.62,689,554c15.25-.73,8.72-17.14,8.72-17.14s-4.94-10.61-2.62-16.85c2-5.48,8.43,3.48,8.43,3.48s21.07,30.94-5.23,41.25c-14.82,5.81-26.46-2.71-28.18-13.27-1.45-9,2.81-18,2.81-18s7.65-19.29-4.55-21.33c-14.09-2.34-8.38,18.6-8.38,18.6s9,21.78-7.31,32.53-29.92-6.1-29.92-6.1-8.42-9.95-15.1-10c-13.65-.15-18.88,10.31-18.88,10.31s-3.79,5.22-8.79,2.6C576.86,558.41,578.29,555.73,578.29,555.73Z"/></g></g><g id="Layer_6" data-name="Layer 6"><g id="Layer_103" data-name="Layer 103"><g class="cls-1"><path class="cls-6" d="M353.37,572.46h-2.56v11h-1.49v-11h-1.59V571h1.59v-3.33h1.49V571h2.56Z"/><path class="cls-6" d="M355.86,567.49a1,1,0,0,1,1-1.07,1.06,1.06,0,0,1,1.07,1.07,1,1,0,0,1-1.07,1A1,1,0,0,1,355.86,567.49Zm.32,3.53h1.49v12.42h-1.49Z"/><path class="cls-6" d="M362.09,563.56h1.5v19.88h-1.5Z"/><path class="cls-6" d="M367.71,563.56h1.49v19.88h-1.49Z"/><path class="cls-6" d="M384.54,571v12.42H383v-2.56a5.41,5.41,0,0,1-4.72,2.74c-3.45,0-5.86-2.86-5.86-6.36s2.41-6.39,5.86-6.39a5.39,5.39,0,0,1,4.72,2.76V571Zm-1.5,6.24a4.73,4.73,0,0,0-4.57-5,4.95,4.95,0,1,0,4.57,5Z"/><path class="cls-6" d="M399.87,582.9c0,3.88-3,5.69-5.87,5.69a8.67,8.67,0,0,1-4.65-1.39l0-1.62a7.77,7.77,0,0,0,4.45,1.62,4.31,4.31,0,0,0,4.6-4.65v-1.74a5.44,5.44,0,0,1-4.78,2.81c-3.45,0-5.86-2.86-5.86-6.36s2.41-6.39,5.86-6.39a5.39,5.39,0,0,1,4.73,2.78V571h1.46Zm-1.49-5.64a4.74,4.74,0,0,0-4.58-5,5,5,0,0,0,0,9.87A4.71,4.71,0,0,0,398.38,577.26Z"/><path class="cls-6" d="M414.9,577.75H404.64a4.62,4.62,0,0,0,4.77,4.45,6,6,0,0,0,4.22-1.71v1.69a6.73,6.73,0,0,1-4.27,1.44,6.38,6.38,0,0,1-.25-12.75C412.81,570.87,415,574.1,414.9,577.75Zm-10.24-1.31h8.65c-.32-2.32-1.86-4.13-4.2-4.13A4.48,4.48,0,0,0,404.66,576.44Z"/></g><path class="cls-7" d="M433.13,505.69,411.34,468h0a33.85,33.85,0,0,0-2.85-4.18L425,450.7H381.44a37.07,37.07,0,0,0-5.05.37l-3.08-20.83L351.53,468h0a33.5,33.5,0,0,0-2.21,4.55l-19.58-7.75,21.78,37.73h0a33.15,33.15,0,0,0,2.84,4.19L337.85,519.8h43.57a33.56,33.56,0,0,0,5-.37l3.08,20.84,21.78-37.73h0a32.88,32.88,0,0,0,2.2-4.55ZM381.44,494.3a9.07,9.07,0,1,1,9.07-9.07A9.07,9.07,0,0,1,381.44,494.3Z"/></g></g><g id="Layer_7" data-name="Layer 7"><g id="Layer_106" data-name="Layer 106"><g class="cls-1"><g class="cls-1"><path class="cls-6" d="M57.52,580.35l1-1.09a4,4,0,0,0,3,1.61,2.15,2.15,0,0,0,2.41-2c0-3.1-6.19-2.08-6.17-6.21a3.38,3.38,0,0,1,3.63-3.18,5.19,5.19,0,0,1,3.75,1.76l-.92,1.07a3.93,3.93,0,0,0-2.8-1.39,2,2,0,0,0-2.17,1.74c-.05,2.88,6.19,1.89,6.17,6.24,0,1.91-1.59,3.4-4,3.4A5.4,5.4,0,0,1,57.52,580.35Z"/><path class="cls-6" d="M78.9,575.1v7H77.43v-6.73c0-3-1.47-4.53-3.63-4.53s-3.68,1.55-3.68,4.53v6.73H68.63V562.23h1.49v9.52a4.55,4.55,0,0,1,4-2.29C76.69,569.46,78.9,571.28,78.9,575.1Z"/><path class="cls-6" d="M87.89,569.49v1.69c-2-.15-3.58,1.54-3.58,4.1v6.83H82.82V569.69h1.49V572A4.07,4.07,0,0,1,87.89,569.49Z"/><path class="cls-6" d="M90.38,566.16a1,1,0,0,1,1-1.07,1.06,1.06,0,0,1,1.07,1.07,1,1,0,0,1-1.07,1A1,1,0,0,1,90.38,566.16Zm.32,3.53h1.49v12.42H90.7Z"/><path class="cls-6" d="M106.85,575.1v7h-1.46v-6.73c0-3-1.47-4.53-3.63-4.53-1.92,0-3.46,1.32-3.66,3.91v7.35H96.61V569.69H98.1v2a4.52,4.52,0,0,1,4-2.27C104.64,569.46,106.85,571.28,106.85,575.1Z"/><path class="cls-6" d="M118.38,582.11l-6.11-5.71v5.71h-1.49V562.23h1.49v13.35l5.91-5.89h1.92L113.73,576l6.64,6.13Z"/></g><g class="cls-1"><path class="cls-6" d="M120.59,585.1l5.92-22.87H128l-5.89,22.87Z"/></g><g class="cls-1"><path class="cls-6" d="M128.74,580.35l1-1.09a4,4,0,0,0,3,1.61,2.15,2.15,0,0,0,2.41-2c0-3.1-6.19-2.08-6.17-6.21a3.38,3.38,0,0,1,3.63-3.18,5.19,5.19,0,0,1,3.75,1.76l-.92,1.07a3.93,3.93,0,0,0-2.8-1.39,2,2,0,0,0-2.17,1.74c-.05,2.88,6.19,1.89,6.17,6.24,0,1.91-1.59,3.4-3.95,3.4A5.4,5.4,0,0,1,128.74,580.35Z"/></g><g class="cls-1"><path class="cls-6" d="M157.48,569.69l-6.39,12.57h-.82L147.66,577l-2.56,5.24h-.85l-6.36-12.57h1.62l5.22,10.41,2.18-4.55L144,569.69h1.57l2.08,4.45,2.09-4.45h1.57l-2.91,5.86,2.24,4.55,5.19-10.41Z"/></g><g class="cls-1"><path class="cls-6" d="M170.18,576.42H159.91a4.62,4.62,0,0,0,4.77,4.45,6,6,0,0,0,4.23-1.71v1.69a6.76,6.76,0,0,1-4.28,1.44,6.38,6.38,0,0,1-.25-12.75C168.09,569.54,170.25,572.77,170.18,576.42Zm-10.25-1.32h8.65c-.32-2.31-1.86-4.12-4.2-4.12A4.5,4.5,0,0,0,159.93,575.1Z"/><path class="cls-6" d="M173.3,562.23h1.49v19.88H173.3Z"/><path class="cls-6" d="M178.92,562.23h1.49v19.88h-1.49Z"/></g><g class="cls-1"><path class="cls-6" d="M86.73,605.72a6.42,6.42,0,0,1,10.49-5v1.84a5.34,5.34,0,0,0-4.1-1.84,5,5,0,0,0,0,9.9,5.34,5.34,0,0,0,4.1-1.84v1.84a6.42,6.42,0,0,1-10.49-4.95Z"/></g><g class="cls-1"><path class="cls-6" d="M110.74,599.51l-7.41,17.4h-1.49l2.24-5.27-5.22-12.13h1.61L104.82,610l4.3-10.49Z"/></g><g class="cls-1"><path class="cls-6" d="M111.76,605.72a6.42,6.42,0,0,1,10.49-5v1.84a5.34,5.34,0,0,0-4.1-1.84,5,5,0,0,0,0,9.9,5.34,5.34,0,0,0,4.1-1.84v1.84a6.42,6.42,0,0,1-10.49-4.95Z"/><path class="cls-6" d="M125.75,592.05h1.5v19.88h-1.5Z"/></g><g class="cls-1"><path class="cls-6" d="M142.29,606.24H132a4.62,4.62,0,0,0,4.77,4.45A6,6,0,0,0,141,609v1.69a6.76,6.76,0,0,1-4.28,1.44,6.38,6.38,0,0,1-.25-12.75C140.2,599.36,142.36,602.59,142.29,606.24ZM132,604.92h8.65c-.32-2.31-1.86-4.12-4.2-4.12A4.5,4.5,0,0,0,132,604.92Z"/></g><g class="cls-1"><path class="cls-6" d="M144.31,610.17l1-1.09a4,4,0,0,0,3,1.61,2.15,2.15,0,0,0,2.41-2c0-3.1-6.19-2.09-6.17-6.21a3.38,3.38,0,0,1,3.63-3.18,5.19,5.19,0,0,1,3.75,1.76l-.92,1.07a3.93,3.93,0,0,0-2.8-1.39,2,2,0,0,0-2.17,1.74c0,2.88,6.19,1.89,6.17,6.24,0,1.91-1.59,3.4-4,3.4A5.4,5.4,0,0,1,144.31,610.17Z"/></g></g><line class="cls-9" x1="54.13" y1="464.2" x2="88.26" y2="464.2"/><polygon class="cls-7" points="77.26 478.7 83.42 464.2 77.26 449.69 111.65 464.2 77.26 478.7"/><line class="cls-9" x1="176.97" y1="464.08" x2="142.84" y2="464.08"/><polygon class="cls-7" points="153.84 449.58 147.68 464.08 153.84 478.59 119.46 464.08 153.84 449.58"/><line class="cls-9" x1="101.17" y1="516.65" x2="135.3" y2="516.65"/><polygon class="cls-7" points="124.3 531.15 130.46 516.65 124.3 502.14 158.69 516.65 124.3 531.15"/><line class="cls-9" x1="129.93" y1="516.65" x2="95.8" y2="516.65"/><polygon class="cls-7" points="106.8 502.14 100.64 516.65 106.8 531.15 72.42 516.65 106.8 502.14"/></g></g><g id="Layer_8" data-name="Layer 8"><g id="Layer_98" data-name="Layer 98"><g class="cls-1"><g class="cls-1"><path class="cls-6" d="M1258.66,269.17h-10.27a4.62,4.62,0,0,0,4.77,4.45,6,6,0,0,0,4.23-1.71v1.69a6.76,6.76,0,0,1-4.28,1.44,6.38,6.38,0,0,1-.25-12.75C1256.57,262.29,1258.73,265.52,1258.66,269.17Zm-10.25-1.32h8.65c-.32-2.31-1.86-4.12-4.2-4.12A4.5,4.5,0,0,0,1248.41,267.85Z"/></g><g class="cls-1"><path class="cls-6" d="M1269.72,274.86l-4-5.19-4.08,5.19h-1.79l5-6.26-4.87-6.16h1.74l4,5.09,4-5.09h1.74l-4.87,6.16,5,6.26Z"/><path class="cls-6" d="M1283.81,262.44v12.42h-1.49v-2a4.53,4.53,0,0,1-4,2.26c-2.56,0-4.77-1.82-4.77-5.64v-7H1275v6.73c0,3,1.47,4.53,3.63,4.53,1.92,0,3.46-1.32,3.66-3.91v-7.35Z"/><path class="cls-6" d="M1299.14,255v19.88h-1.49V272.3a5.44,5.44,0,0,1-4.72,2.74c-3.46,0-5.87-2.86-5.87-6.37s2.41-6.38,5.87-6.38a5.41,5.41,0,0,1,4.72,2.76V255Zm-1.49,13.69a4.73,4.73,0,0,0-4.58-4.94,5,5,0,0,0,0,9.87A4.72,4.72,0,0,0,1297.65,268.67Z"/><path class="cls-6" d="M1314.47,262.44v12.42H1313V272.3a5.42,5.42,0,0,1-4.72,2.74c-3.46,0-5.87-2.86-5.87-6.37s2.41-6.38,5.87-6.38a5.4,5.4,0,0,1,4.72,2.76v-2.61Zm-1.49,6.23a4.73,4.73,0,0,0-4.57-4.94,5,5,0,0,0,0,9.87A4.71,4.71,0,0,0,1313,268.67Z"/></g><g class="cls-1"><path class="cls-6" d="M1323,263.88h-2.56v11h-1.49v-11h-1.59v-1.44h1.59v-3.33h1.49v3.33H1323Z"/></g><g class="cls-1"><path class="cls-6" d="M1335.9,269.17h-10.27a4.62,4.62,0,0,0,4.77,4.45,6,6,0,0,0,4.23-1.71v1.69a6.76,6.76,0,0,1-4.28,1.44,6.38,6.38,0,0,1-.25-12.75C1333.81,262.29,1336,265.52,1335.9,269.17Zm-10.25-1.32h8.65c-.32-2.31-1.86-4.12-4.2-4.12A4.5,4.5,0,0,0,1325.65,267.85Z"/></g><g class="cls-1"><path class="cls-6" d="M1337.92,273.1l1-1.09a4,4,0,0,0,3,1.61,2.15,2.15,0,0,0,2.41-2c0-3.1-6.19-2.09-6.17-6.21a3.38,3.38,0,0,1,3.63-3.18,5.19,5.19,0,0,1,3.75,1.76l-.92,1.07a3.93,3.93,0,0,0-2.8-1.39,2,2,0,0,0-2.17,1.74c0,2.88,6.19,1.89,6.17,6.24,0,1.91-1.59,3.4-4,3.4A5.4,5.4,0,0,1,1337.92,273.1Z"/></g></g><path class="cls-6" d="M1214.36,213.84a22.35,22.35,0,0,1,8-3.24c2.83-.58,5.66-1,8.48-1.51s5.64-1,8.43-1.66a76.78,76.78,0,0,0,16.24-5.31,33.65,33.65,0,0,0,7.14-4.52,19.47,19.47,0,0,0,5.15-6.49,16,16,0,0,0,.77-1.92,10.57,10.57,0,0,0,.47-2c.15-1.4.23-2.81.24-4.22a18.45,18.45,0,0,1,.59-4.43,17.76,17.76,0,0,1,1.82-4.11,43.41,43.41,0,0,1,5.53-6.79,42,42,0,0,0,2.82-3.17c.44-.54.85-1.1,1.24-1.66.2-.29.36-.56.54-.84a6.92,6.92,0,0,0,.46-.9,35.93,35.93,0,0,0,2.38-8c.32-1.58.59-3.19.86-4.8h0a1.57,1.57,0,0,1,1.36-1.36c1.63-.12,1.38,3.6,1.38,3.6h0a14,14,0,0,0,.6,4.69c1.22,4,4.17,7.41,7.52,10.24a72.69,72.69,0,0,0,11.11,7.47c3.92,2.24,8,4.28,11.93,6.54a47.06,47.06,0,0,1,5.78,3.78,53.18,53.18,0,0,1,5.13,4.59c3.22,3.24,6.16,6.71,9.13,10.14a122.5,122.5,0,0,0,9.27,9.92,33.76,33.76,0,0,0,11.28,7.39,33.85,33.85,0,0,1-11.54-7.1,125.26,125.26,0,0,1-9.6-9.68c-3.07-3.34-6.1-6.72-9.37-9.82a54.47,54.47,0,0,0-5.13-4.34,47.7,47.7,0,0,0-5.71-3.5c-1.73-.91-3.48-1.8-5.23-2.68l1.85,1.11c1,.58,1.89,1.16,2.83,1.79.47.31.93.64,1.39,1a8.91,8.91,0,0,1,1.39,1.28l.18.24.11.19.23.38c.16.25.28.51.42.77a14.32,14.32,0,0,1,.71,1.61,17.88,17.88,0,0,1,.88,3.36c.71,4.58,0,9.06-.72,13.39-.34,2.17-.69,4.32-.87,6.48a56.75,56.75,0,0,0-.1,6.52c.06,1.24.17,2.48.33,3.71,1.32.65,2.65,1.29,4,1.9,3.37,1.55,6.79,3,10.13,4.69a58.94,58.94,0,0,1,9.53,5.87,50.45,50.45,0,0,1,8,7.8,71.52,71.52,0,0,1,6.45,9.12,44.24,44.24,0,0,1,4.59,10.16,22.34,22.34,0,0,1,.9,5.5,12.65,12.65,0,0,1-1,5.44,12.65,12.65,0,0,0,.93-5.44,22.09,22.09,0,0,0-1-5.46,44.32,44.32,0,0,0-4.7-10,72,72,0,0,0-6.54-9,50.62,50.62,0,0,0-8-7.62,58.53,58.53,0,0,0-9.51-5.67c-3.33-1.62-6.76-3-10.16-4.55-1.17-.52-2.33-1.05-3.49-1.6.09.55.19,1.1.3,1.64a26.34,26.34,0,0,0,5.46,11.68c1.34,1.73,2.8,3.38,4.14,5.13a20,20,0,0,1,3.26,5.75,13.79,13.79,0,0,1,.52,6.53,13.83,13.83,0,0,0-.69-6.47,19.53,19.53,0,0,0-3.37-5.58c-1.38-1.7-2.89-3.31-4.29-5a28.23,28.23,0,0,1-3.68-5.54,30.29,30.29,0,0,1-2.26-6.27c-.19-.78-.34-1.56-.47-2.35q-2.79-1.33-5.52-2.79a56.68,56.68,0,0,1-9.44-6.12,25.31,25.31,0,0,1-7.09-8.84,15.31,15.31,0,0,1-1.41-5.61,46.5,46.5,0,0,1,.22-5.66,25.86,25.86,0,0,0-.11-5.42c-.07-.59-.18-1.17-.3-1.75a31.4,31.4,0,0,1-2.73,4.83c-1.42,2.13-2.89,4.17-4.16,6.31-.63,1.07-1.21,2.16-1.73,3.28a25,25,0,0,0-1.24,3.46A20.23,20.23,0,0,0,1287,206a18.74,18.74,0,0,0,.17,3.67,23.94,23.94,0,0,0,2.24,7.06c.53,1.13,1.16,2.2,1.79,3.3s1.26,2.2,1.85,3.33a33.13,33.13,0,0,1,2.81,7.1,14.31,14.31,0,0,1,.46,3.79,8.53,8.53,0,0,1-.89,3.68,10.59,10.59,0,0,0,.11-7.38,32.73,32.73,0,0,0-3.08-6.86c-.63-1.09-1.3-2.16-2-3.22a32.16,32.16,0,0,1-1.92-3.32,24.48,24.48,0,0,1-2.52-7.31,21.15,21.15,0,0,1-.29-3.9,22.19,22.19,0,0,1,.52-3.88,27.41,27.41,0,0,1,1.22-3.72,38.57,38.57,0,0,1,1.72-3.47c.76-1.35,1.58-2.65,2.4-3.94-1.47,1.34-3,2.62-4.39,4s-2.53,2.48-3.7,3.81a38.08,38.08,0,0,0-3.18,4.21,25.85,25.85,0,0,0-3.66,9.84,36.45,36.45,0,0,0-.44,5.31,43.13,43.13,0,0,0,.24,5.33c.16,1.78.35,3.56.34,5.36A16.72,16.72,0,0,1,1276,234a16.58,16.58,0,0,0,.67-5.29,50.27,50.27,0,0,0-.49-5.33,43.79,43.79,0,0,1-.39-5.37,37.33,37.33,0,0,1,.3-5.38,26.22,26.22,0,0,1,3.49-10.22,37,37,0,0,1,3.15-4.43c1.16-1.39,2.39-2.71,3.65-4,2.55-2.57,5.35-4.82,7.51-7.53a15.25,15.25,0,0,0,1.94-3,12.81,12.81,0,0,0,.5-1.63h0a1,1,0,0,1,.25-.44h0a1.12,1.12,0,0,0-.11-.34,54.09,54.09,0,0,0-4.91-9.8c-1-1.6-1.92-3.18-2.84-4.83-.43-.85-.88-1.7-1.3-2.56a17,17,0,0,1-1-2.69,23.55,23.55,0,0,1-.85-3.43,27.47,27.47,0,0,1-1.62,4.33c-.16.34-.36.68-.54,1s-.42.67-.64,1c-.43.61-.89,1.19-1.36,1.75-1,1.13-2,2.18-3,3.22a41.69,41.69,0,0,0-5.46,6.41,16,16,0,0,0-1.72,3.71,17.05,17.05,0,0,0-.61,4.07,37.3,37.3,0,0,1-.34,4.36,12.65,12.65,0,0,1-.55,2.2,17.77,17.77,0,0,1-.87,2,20.87,20.87,0,0,1-5.59,6.79,34.08,34.08,0,0,1-7.44,4.52,76.35,76.35,0,0,1-16.51,5.07c-2.82.58-5.65,1.06-8.49,1.51s-5.68.83-8.49,1.35a22.23,22.23,0,0,0-7.94,3.06c-2.4,1.56-4.57,3.46-6.84,5.21C1209.85,217.39,1212,215.45,1214.36,213.84Zm84.31-37a13.19,13.19,0,0,1-.34,4.47,27.08,27.08,0,0,1,1,4.61,28.67,28.67,0,0,1,0,5.71,40.11,40.11,0,0,0-.29,5.47,14.37,14.37,0,0,0,1.21,5.16,24.37,24.37,0,0,0,6.65,8.48,54.67,54.67,0,0,0,9.18,6.11q2.4,1.32,4.84,2.55c-.14-1-.25-2.07-.33-3.11a59.35,59.35,0,0,1-.08-6.67c.12-2.23.42-4.42.7-6.6.56-4.34,1.13-8.72.36-12.86a15.1,15.1,0,0,0-.86-3,12.58,12.58,0,0,0-.66-1.39c-.13-.22-.24-.45-.39-.66l-.2-.32-.11-.16-.07-.09a6.3,6.3,0,0,0-1-.93c-.41-.31-.85-.61-1.3-.91-.89-.58-1.82-1.15-2.76-1.71-3.76-2.22-7.62-4.35-11.39-6.7-1.88-1.18-3.74-2.41-5.53-3.79l-1.27-1c.37.63.73,1.28,1.06,1.95a15.55,15.55,0,0,1,1.58,5.44Zm-8.32-11.5c.88,1.61,1.83,3.21,2.76,4.82a72.27,72.27,0,0,1,3.81,7.3V177c-.4-3.3-2.31-6.31-4.38-9.12-.8-1.11-1.66-2.19-2.52-3.29a6.14,6.14,0,0,0,.33.77Z"/><circle class="cls-10" cx="1201.62" cy="234.66" r="2.69"/><circle class="cls-10" cx="1257.59" cy="187.61" r="2.69"/><circle class="cls-8" cx="1230.36" cy="182.23" r="2.69"/><circle class="cls-8" cx="1274.79" cy="222.62" r="2.69"/><circle class="cls-11" cx="1230.36" cy="223.81" r="2.69"/><circle class="cls-10" cx="1239.37" cy="208.05" r="2.69"/><circle class="cls-10" cx="1316.77" cy="239.07" r="2.69"/><circle class="cls-8" cx="1254.9" cy="241.76" r="2.69"/><circle class="cls-11" cx="1320.67" cy="223.81" r="2.69"/><circle class="cls-7" cx="1316.21" cy="189.69" r="2.69"/><circle class="cls-10" cx="1290.66" cy="204.07" r="2.69"/><circle class="cls-8" cx="1336.47" cy="227.92" r="2.69"/><circle class="cls-10" cx="1342.14" cy="197" r="2.69"/><circle class="cls-11" cx="1381.18" cy="194.3" r="2.69"/><circle class="cls-8" cx="1354.56" cy="229.19" r="2.69"/><circle class="cls-8" cx="1310.14" cy="206.76" r="2.69"/></g></g><g id="Layer_9" data-name="Layer 9"><g id="Layer_99" data-name="Layer 99"><g class="cls-1"><g class="cls-1"><path class="cls-6" d="M1064.43,273.1l1-1.09a4,4,0,0,0,3,1.61,2.15,2.15,0,0,0,2.41-2c0-3.1-6.19-2.09-6.17-6.21a3.38,3.38,0,0,1,3.63-3.18,5.19,5.19,0,0,1,3.75,1.76l-.92,1.07a3.93,3.93,0,0,0-2.8-1.39,2,2,0,0,0-2.17,1.74c0,2.88,6.19,1.89,6.17,6.24,0,1.91-1.59,3.4-4,3.4A5.4,5.4,0,0,1,1064.43,273.1Z"/><path class="cls-6" d="M1075.54,258.91a1,1,0,0,1,1-1.07,1.06,1.06,0,0,1,1.06,1.07,1,1,0,0,1-1.06,1A1,1,0,0,1,1075.54,258.91Zm.33,3.53h1.49v12.42h-1.49Z"/><path class="cls-6" d="M1081.78,255h1.49v19.88h-1.49Z"/><path class="cls-6" d="M1087.39,258.91a1,1,0,0,1,1-1.07,1.06,1.06,0,0,1,1.07,1.07,1,1,0,0,1-1.07,1A1,1,0,0,1,1087.39,258.91Zm.33,3.53h1.49v12.42h-1.49Z"/><path class="cls-6" d="M1092.76,268.65a6.42,6.42,0,0,1,10.49-4.95v1.84a5.34,5.34,0,0,0-4.1-1.84,5,5,0,0,0,0,9.9,5.34,5.34,0,0,0,4.1-1.84v1.84a6.42,6.42,0,0,1-10.49-5Z"/><path class="cls-6" d="M1118,262.44v12.42h-1.49V272.3a5.42,5.42,0,0,1-4.72,2.74c-3.46,0-5.87-2.86-5.87-6.37s2.41-6.38,5.87-6.38a5.4,5.4,0,0,1,4.72,2.76v-2.61Zm-1.49,6.23a4.73,4.73,0,0,0-4.57-4.94,5,5,0,0,0,0,9.87A4.71,4.71,0,0,0,1116.47,268.67Z"/><path class="cls-6" d="M1141.84,274.86c-.59-.67-1.17-1.34-1.76-2a5.79,5.79,0,0,1-4.7,2.26c-2.78,0-5.39-1.67-5.39-4.7,0-2.44,1.69-3.73,3.53-4.82-1.2-1.27-2.51-2.84-2.51-4.48a4.19,4.19,0,0,1,8.37,0c0,2.34-1.84,3.58-3.75,4.72.92,1.05,2.49,2.81,4.2,4.77a11.37,11.37,0,0,0,.77-4.4H1142a11.2,11.2,0,0,1-1.17,5.5c.92,1.07,1.89,2.13,2.79,3.15Zm-2.68-3c-1.57-1.76-3.11-3.48-4.58-5.07l-.17-.2c-1.59,1-2.93,2-2.93,3.81,0,2.16,2,3.35,3.9,3.35A4.52,4.52,0,0,0,1139.16,271.83Zm-4.43-6.93c1.72-1,3.21-2,3.21-3.76a2.53,2.53,0,0,0-2.73-2.58,2.6,2.6,0,0,0-2.69,2.61C1132.52,262.54,1133.67,263.78,1134.73,264.9Z"/></g><g class="cls-1"><path class="cls-6" d="M1041.84,298.47a6.42,6.42,0,0,1,10.49-5v1.84a5.34,5.34,0,0,0-4.1-1.84,5,5,0,0,0,0,9.9,5.34,5.34,0,0,0,4.1-1.84v1.84a6.42,6.42,0,0,1-10.49-4.95Z"/><path class="cls-6" d="M1067,292.26v12.42h-1.49v-2.56a5.42,5.42,0,0,1-4.72,2.74c-3.45,0-5.87-2.86-5.87-6.36s2.42-6.39,5.87-6.39a5.4,5.4,0,0,1,4.72,2.76v-2.61Zm-1.49,6.24a4.73,4.73,0,0,0-4.57-4.95,4.95,4.95,0,1,0,4.57,4.95Z"/><path class="cls-6" d="M1076.24,292.06v1.69c-2-.15-3.58,1.54-3.58,4.1v6.83h-1.49V292.26h1.49v2.28A4.06,4.06,0,0,1,1076.24,292.06Z"/><path class="cls-6" d="M1090.8,298.47c0,3.51-2.41,6.39-5.87,6.39a5.41,5.41,0,0,1-4.72-2.76v2.58h-1.49V284.8h1.49v10a5.45,5.45,0,0,1,4.72-2.73C1088.39,292.11,1090.8,295,1090.8,298.47Zm-1.52,0a4.62,4.62,0,0,0-4.49-4.92,4.95,4.95,0,0,0,0,9.87A4.65,4.65,0,0,0,1089.28,298.47Z"/><path class="cls-6" d="M1093.18,298.45a6.29,6.29,0,1,1,6.29,6.41A6.24,6.24,0,0,1,1093.18,298.45Zm11.09,0a4.79,4.79,0,1,0-4.8,4.94A4.79,4.79,0,0,0,1104.27,298.45Z"/></g><g class="cls-1"><path class="cls-6" d="M1119.25,297.67v7h-1.46V298c0-3-1.47-4.53-3.63-4.53-1.92,0-3.46,1.32-3.66,3.91v7.35H1109V292.26h1.49v2a4.54,4.54,0,0,1,4-2.26C1117,292,1119.25,293.85,1119.25,297.67Z"/></g><g class="cls-1"><path class="cls-6" d="M1134,292.26v12.42h-1.49v-2.56a5.42,5.42,0,0,1-4.72,2.74c-3.46,0-5.87-2.86-5.87-6.36s2.41-6.39,5.87-6.39a5.4,5.4,0,0,1,4.72,2.76v-2.61Zm-1.49,6.24a4.73,4.73,0,0,0-4.57-4.95,4.95,4.95,0,1,0,4.57,4.95Z"/></g><g class="cls-1"><path class="cls-6" d="M1142.54,293.7H1140v11h-1.49v-11h-1.59v-1.44h1.59v-3.33H1140v3.33h2.56Z"/></g><g class="cls-1"><path class="cls-6" d="M1155.45,299h-10.27a4.62,4.62,0,0,0,4.77,4.45,6,6,0,0,0,4.23-1.71v1.69a6.76,6.76,0,0,1-4.28,1.44,6.38,6.38,0,0,1-.25-12.75C1153.36,292.11,1155.52,295.34,1155.45,299Zm-10.25-1.32h8.65c-.32-2.31-1.86-4.12-4.2-4.12A4.5,4.5,0,0,0,1145.2,297.67Z"/></g><g class="cls-1"><path class="cls-6" d="M1157.47,302.92l1-1.09a4,4,0,0,0,3,1.61,2.15,2.15,0,0,0,2.41-2c0-3.1-6.19-2.08-6.17-6.21a3.38,3.38,0,0,1,3.63-3.18,5.19,5.19,0,0,1,3.75,1.76l-.92,1.07a3.93,3.93,0,0,0-2.8-1.39,2,2,0,0,0-2.17,1.74c0,2.88,6.19,1.89,6.17,6.24,0,1.91-1.59,3.4-4,3.4A5.4,5.4,0,0,1,1157.47,302.92Z"/></g></g><path class="cls-6" d="M1169.08,217V194.33h-15.14V176.06h-16.18V157.51h-67.33v18.55h-16.18v18.27H1038.1V217Zm-19.76-36.34v13.72h-27.45V180.61Zm-43.51-18.27h27.44v13.72h-27.44Zm-30.88,0h27.45v13.72h-27.45Zm-16.07,18.27h27.45v13.72h-27.45Zm11.42,32h-27.45V198.87h27.45Zm32.06,0h-27.45V198.87h27.45Zm-11.7-18.27h-.54V180.61h28v13.72h-27.45Zm42.65,18h-27.45V198.66h27.45Zm32.07,0h-27.45V198.66h27.45Z"/></g></g><g id="Layer_10" data-name="Layer 10"><g id="Layer_100" data-name="Layer 100"><g class="cls-1"><g class="cls-1"><path class="cls-6" d="M792.06,270.16a6.29,6.29,0,1,1,6.29,6.41A6.24,6.24,0,0,1,792.06,270.16Zm11.09,0a4.79,4.79,0,1,0-4.8,4.94A4.79,4.79,0,0,0,803.15,270.16Z"/></g><g class="cls-1"><path class="cls-6" d="M813,263.77v1.69c-2-.15-3.58,1.54-3.58,4.1v6.83h-1.49V264h1.49v2.28A4.07,4.07,0,0,1,813,263.77Z"/></g><g class="cls-1"><path class="cls-6" d="M826.16,275.85c0,3.88-2.95,5.69-5.86,5.69a8.64,8.64,0,0,1-4.65-1.39l0-1.62a7.77,7.77,0,0,0,4.45,1.62,4.31,4.31,0,0,0,4.6-4.65v-1.74a5.46,5.46,0,0,1-4.77,2.81c-3.46,0-5.87-2.86-5.87-6.36s2.41-6.39,5.87-6.39a5.38,5.38,0,0,1,4.72,2.78V264h1.47Zm-1.49-5.64a4.73,4.73,0,0,0-4.57-4.95,4.95,4.95,0,1,0,4.57,4.95Z"/><path class="cls-6" d="M841.5,264v12.42H840v-2.56a5.42,5.42,0,0,1-4.72,2.74c-3.45,0-5.86-2.86-5.86-6.36s2.41-6.39,5.86-6.39a5.4,5.4,0,0,1,4.72,2.76V264Zm-1.5,6.24a4.73,4.73,0,0,0-4.57-4.95,4.95,4.95,0,1,0,4.57,4.95Z"/><path class="cls-6" d="M855.86,269.38v7h-1.47v-6.73c0-3-1.46-4.53-3.63-4.53-1.91,0-3.45,1.32-3.65,3.91v7.35h-1.49V264h1.49v2a4.53,4.53,0,0,1,4-2.26C853.65,263.74,855.86,265.56,855.86,269.38Z"/><path class="cls-6" d="M859.78,260.44a1,1,0,0,1,1.05-1.07,1.06,1.06,0,0,1,1.06,1.07,1,1,0,0,1-1.06,1A1,1,0,0,1,859.78,260.44Zm.32,3.53h1.5v12.42h-1.5Z"/><path class="cls-6" d="M865.15,270.18a6.21,6.21,0,0,1,6.34-6.41,6.28,6.28,0,0,1,4.15,1.46v1.84a5.35,5.35,0,0,0-4.1-1.84,5,5,0,0,0,0,9.9,5.35,5.35,0,0,0,4.1-1.84v1.84a6.28,6.28,0,0,1-4.15,1.46A6.2,6.2,0,0,1,865.15,270.18Z"/></g><g class="cls-1"><path class="cls-6" d="M878.22,268.19h8.06v1.37h-8.06Z"/></g><g class="cls-1"><path class="cls-6" d="M906.46,269l0,7.35h-1.49v-7.06c0-2.53-1.27-4.17-3.33-4.17s-3.33,1.64-3.33,4.35l0,6.88h-1.46v-7.06c0-2.53-1.27-4.17-3.33-4.17s-3.34,1.64-3.34,4.35v6.88h-1.49V264h1.49v1.86a4.14,4.14,0,0,1,3.66-2.09,4.24,4.24,0,0,1,4.05,2.81,4.39,4.39,0,0,1,4.1-2.81C904.42,263.74,906.46,265.61,906.46,269Z"/><path class="cls-6" d="M910.35,260.44a1,1,0,0,1,1-1.07,1.06,1.06,0,0,1,1.06,1.07,1,1,0,0,1-1.06,1A1,1,0,0,1,910.35,260.44Zm.32,3.53h1.5v12.42h-1.5Z"/></g><g class="cls-1"><path class="cls-6" d="M926.83,269.38v7h-1.46v-6.73c0-3-1.47-4.53-3.63-4.53-1.92,0-3.46,1.32-3.66,3.91v7.35h-1.49V264h1.49v2a4.54,4.54,0,0,1,4-2.26C924.62,263.74,926.83,265.56,926.83,269.38Z"/></g><g class="cls-1"><path class="cls-6" d="M941.29,270.7H931a4.62,4.62,0,0,0,4.77,4.45,6,6,0,0,0,4.23-1.71v1.69a6.76,6.76,0,0,1-4.28,1.44,6.38,6.38,0,0,1-.25-12.75C939.21,263.82,941.37,267.05,941.29,270.7Zm-10.24-1.32h8.65c-.32-2.31-1.86-4.12-4.2-4.12A4.5,4.5,0,0,0,931.05,269.38Z"/></g><g class="cls-1"><path class="cls-6" d="M949.49,263.77v1.69c-2-.15-3.57,1.54-3.57,4.1v6.83h-1.5V264h1.5v2.28A4,4,0,0,1,949.49,263.77Z"/></g><g class="cls-1"><path class="cls-6" d="M962.69,264v12.42H961.2v-2.56a5.42,5.42,0,0,1-4.72,2.74c-3.46,0-5.87-2.86-5.87-6.36s2.41-6.39,5.87-6.39a5.4,5.4,0,0,1,4.72,2.76V264Zm-1.49,6.24a4.73,4.73,0,0,0-4.57-4.95,4.95,4.95,0,1,0,4.57,4.95Z"/><path class="cls-6" d="M966.82,256.51h1.49v19.88h-1.49Z"/></g><g class="cls-1"><path class="cls-6" d="M821.78,300a6.42,6.42,0,0,1,10.49-4.95v1.84a5.34,5.34,0,0,0-4.1-1.84,5,5,0,0,0,0,9.9,5.34,5.34,0,0,0,4.1-1.84V305A6.42,6.42,0,0,1,821.78,300Z"/><path class="cls-6" d="M834.9,300a6.29,6.29,0,1,1,6.29,6.41A6.24,6.24,0,0,1,834.9,300ZM846,300a4.79,4.79,0,1,0-4.8,4.94A4.79,4.79,0,0,0,846,300Z"/><path class="cls-6" d="M868.56,298.86l0,7.35H867v-7.06c0-2.53-1.27-4.17-3.33-4.17s-3.33,1.64-3.33,4.35l0,6.88h-1.46v-7.06c0-2.53-1.27-4.17-3.33-4.17s-3.34,1.64-3.34,4.35v6.88h-1.49V293.79h1.49v1.86a4.14,4.14,0,0,1,3.66-2.09,4.24,4.24,0,0,1,4,2.81,4.39,4.39,0,0,1,4.1-2.81C866.52,293.56,868.56,295.43,868.56,298.86Z"/><path class="cls-6" d="M884.51,300c0,3.51-2.41,6.39-5.87,6.39a5.42,5.42,0,0,1-4.7-2.71v7.51h-1.49v-17.4h1.49v2.56a5.4,5.4,0,0,1,4.7-2.71C882.1,293.64,884.51,296.5,884.51,300ZM883,300a4.53,4.53,0,1,0-9-.52v1a4.54,4.54,0,1,0,9-.52Z"/><path class="cls-6" d="M887.76,286.33h1.49v19.88h-1.49Z"/></g><g class="cls-1"><path class="cls-6" d="M904.29,300.52H894A4.62,4.62,0,0,0,898.8,305a6,6,0,0,0,4.23-1.71V305a6.76,6.76,0,0,1-4.28,1.44,6.38,6.38,0,0,1-.25-12.75C902.21,293.64,904.37,296.87,904.29,300.52Zm-10.24-1.32h8.65c-.32-2.31-1.86-4.12-4.2-4.12A4.5,4.5,0,0,0,894.05,299.2Z"/></g><g class="cls-1"><path class="cls-6" d="M915.35,306.21,911.29,301l-4.07,5.19h-1.79l5-6.26-4.87-6.16h1.74l4,5.09,4-5.09H917L912.14,300l5,6.26Z"/></g><g class="cls-1"><path class="cls-6" d="M929.57,300.52H919.3a4.62,4.62,0,0,0,4.77,4.45,6,6,0,0,0,4.23-1.71V305a6.76,6.76,0,0,1-4.28,1.44,6.38,6.38,0,0,1-.25-12.75C927.48,293.64,929.64,296.87,929.57,300.52Zm-10.25-1.32H928c-.32-2.31-1.86-4.12-4.2-4.12A4.5,4.5,0,0,0,919.32,299.2Z"/></g><g class="cls-1"><path class="cls-6" d="M931.6,304.45l1-1.09a4,4,0,0,0,3,1.61,2.15,2.15,0,0,0,2.41-2c0-3.1-6.19-2.08-6.17-6.21a3.38,3.38,0,0,1,3.63-3.18,5.19,5.19,0,0,1,3.75,1.76l-.92,1.07a3.93,3.93,0,0,0-2.8-1.39,2,2,0,0,0-2.17,1.74c0,2.88,6.19,1.89,6.17,6.24,0,1.91-1.59,3.4-3.95,3.4A5.4,5.4,0,0,1,931.6,304.45Z"/></g></g><polygon class="cls-12" points="829.34 175.93 821.16 164.23 827.21 151.3 841.42 150.07 849.6 161.77 843.56 174.7 829.34 175.93"/><polygon class="cls-12" points="857.54 197.47 859.33 181.9 874.68 178.79 882.39 192.44 871.79 203.97 857.54 197.47"/><line class="cls-12" x1="827.21" y1="151.3" x2="821.44" y2="143.05"/><line class="cls-12" x1="811.15" y1="165.27" x2="821.16" y2="164.23"/><line class="cls-12" x1="829.34" y1="175.93" x2="825.16" y2="185.08"/><polyline class="cls-12" points="841.42 150.07 845.61 140.91 844.27 134.34"/><line class="cls-12" x1="873.68" y1="213.58" x2="871.79" y2="203.98"/><line class="cls-12" x1="848.21" y1="202.61" x2="857.33" y2="197.47"/><polyline class="cls-12" points="864.99 165.5 860.45 172.29 859.33 181.9 849.32 182.95 843.56 174.7"/><polyline class="cls-12" points="897.8 199.53 891.17 193.29 882.39 192.44"/><g class="cls-1"><g class="cls-1"><path class="cls-6" d="M912.37,174.64a.83.83,0,0,1,.84-.85.84.84,0,0,1,.85.85.83.83,0,0,1-.85.83A.81.81,0,0,1,912.37,174.64Zm.26,2.82h1.19v9.94h-1.19Z"/></g><g class="cls-1"><path class="cls-6" d="M921.42,177.3v1.36c-1.61-.12-2.87,1.23-2.87,3.28v5.46h-1.19v-9.94h1.19v1.83A3.27,3.27,0,0,1,921.42,177.3Z"/></g><g class="cls-1"><path class="cls-6" d="M922.31,182.41a5,5,0,1,1,5,5.13A5,5,0,0,1,922.31,182.41Zm8.87,0a3.83,3.83,0,1,0-3.84,4A3.82,3.82,0,0,0,931.18,182.41Z"/><path class="cls-6" d="M943.17,181.8v5.6H942V182c0-2.39-1.18-3.62-2.91-3.62-1.53,0-2.76,1-2.92,3.12v5.88H935v-9.94h1.19v1.63a3.62,3.62,0,0,1,3.18-1.81C941.4,177.28,943.17,178.74,943.17,181.8Z"/></g><g class="cls-1"><path class="cls-6" d="M952.46,182.41a5,5,0,1,1,5,5.13A5,5,0,0,1,952.46,182.41Zm8.87,0a3.83,3.83,0,1,0-3.84,4A3.82,3.82,0,0,0,961.33,182.41Z"/></g><g class="cls-1"><path class="cls-6" d="M971.47,187.4l-3.24-4.15L965,187.4h-1.43l4-5-3.9-4.93H965l3.2,4.08,3.18-4.08h1.39l-3.89,4.93,4,5Z"/><path class="cls-6" d="M974.71,174.64a.83.83,0,0,1,.84-.85.84.84,0,0,1,.85.85.83.83,0,0,1-.85.83A.81.81,0,0,1,974.71,174.64Zm.26,2.82h1.19v9.94H975Z"/><path class="cls-6" d="M988.67,171.5v15.9h-1.19v-2a4.35,4.35,0,0,1-3.78,2.18,5.12,5.12,0,0,1,0-10.2,4.34,4.34,0,0,1,3.78,2.21V171.5Zm-1.19,10.95a3.79,3.79,0,0,0-3.66-3.95,4,4,0,0,0,0,7.89A3.77,3.77,0,0,0,987.48,182.45Z"/><path class="cls-6" d="M1000.7,182.85h-8.22a3.71,3.71,0,0,0,3.82,3.56,4.82,4.82,0,0,0,3.38-1.37v1.35a5.37,5.37,0,0,1-3.42,1.15,5.11,5.11,0,0,1-.2-10.2C999,177.34,1000.75,179.93,1000.7,182.85Zm-8.2-1h6.92a3.47,3.47,0,0,0-3.36-3.3A3.59,3.59,0,0,0,992.5,181.8Z"/></g></g><g class="cls-1"><path class="cls-6" d="M921.29,212.45h-3.24v3.18h-1.11v-3.18h-3.23v-1.1h3.23v-3h1.11v3h3.24Z"/></g><g class="cls-1"><path class="cls-6" d="M839.56,126h-3.24v3.18h-1.11V126H832v-1.1h3.23v-3h1.11v3h3.24Z"/></g><g class="cls-1"><path class="cls-6" d="M901,205.39h6.45v1.1H901Z"/></g><g class="cls-1"><path class="cls-6" d="M819.15,118.43h6.45v1.1h-6.45Z"/></g><path class="cls-13" d="M935.29,205.7c2.62.9,3.38,5.5,4.7,7.78s2.07,4.09,1.34,6.86c-1.52,5.82-9,4.73-11.92.87a16.32,16.32,0,0,1-2.68-8.87c-.05-2.68,1.07-5.21,3.69-6,1.55-.46,3.43-1.12,5-.67"/><path class="cls-14" d="M800.33,99.62c-10.92,5.11-12.58,22.33.34,23.93,5.94.73,13.24-5,16-10,3.38-6.08.41-10.06-2.59-15.58,0,0-1.16-1-1.49-1.35-4.89-3.55-7.67-.13-12.26,3"/><g class="cls-1"><g class="cls-1"><path class="cls-6" d="M786.81,83.11a5.13,5.13,0,0,1,8.4-4v1.47a4.26,4.26,0,0,0-3.29-1.47,4,4,0,0,0,0,7.91,4.3,4.3,0,0,0,3.29-1.47v1.47a5.14,5.14,0,0,1-8.4-4Z"/><path class="cls-6" d="M798,72.18h1.19v15.9H798Z"/><path class="cls-6" d="M811.47,78.14v9.94h-1.2V86a4.33,4.33,0,0,1-3.77,2.18,5.12,5.12,0,0,1,0-10.2,4.31,4.31,0,0,1,3.77,2.21V78.14Zm-1.2,5a3.78,3.78,0,0,0-3.65-3.95,4,4,0,0,0,0,7.89A3.76,3.76,0,0,0,810.27,83.13Z"/></g><g class="cls-1"><path class="cls-6" d="M822.78,78.14l-5.92,13.92h-1.19l1.78-4.21-4.17-9.71h1.29l3.48,8.39,3.44-8.39Z"/></g></g></g></g><g id="Layer_11" data-name="Layer 11"><g id="Layer_101" data-name="Layer 101"><g class="cls-1"><g class="cls-1"><path class="cls-6" d="M642.48,128.51v7h5.17V137h-5.17v7.43H641V127h8.77v1.49Z"/></g><g class="cls-1"><path class="cls-6" d="M661.81,138.72H651.55a4.62,4.62,0,0,0,4.77,4.45,6,6,0,0,0,4.23-1.71v1.69a6.76,6.76,0,0,1-4.28,1.44,6.38,6.38,0,0,1-.25-12.75C659.73,131.84,661.89,135.07,661.81,138.72Zm-10.24-1.32h8.65c-.32-2.31-1.86-4.12-4.2-4.12A4.5,4.5,0,0,0,651.57,137.4Z"/></g></g><g class="cls-1"><path class="cls-6" d="M669,132.14h-2.35v2.31h-.81v-2.31h-2.34v-.79h2.34v-2.21h.81v2.21H669Z"/></g><g class="cls-1"><g class="cls-1"><path class="cls-6" d="M641.3,267.51l0,7.35h-1.49V267.8c0-2.53-1.27-4.17-3.33-4.17s-3.33,1.64-3.33,4.35l0,6.88h-1.46V267.8c0-2.53-1.27-4.17-3.33-4.17S625,265.27,625,268v6.88h-1.49V262.44H625v1.86a4.14,4.14,0,0,1,3.66-2.09,4.24,4.24,0,0,1,4,2.81,4.39,4.39,0,0,1,4.1-2.81C639.26,262.21,641.3,264.08,641.3,267.51Z"/></g><g class="cls-1"><path class="cls-6" d="M655.73,269.17H645.47a4.62,4.62,0,0,0,4.77,4.45,6,6,0,0,0,4.23-1.71v1.69a6.76,6.76,0,0,1-4.28,1.44,6.38,6.38,0,0,1-.25-12.75C653.65,262.29,655.81,265.52,655.73,269.17Zm-10.24-1.32h8.65c-.32-2.31-1.86-4.12-4.2-4.12A4.5,4.5,0,0,0,645.49,267.85Z"/></g><g class="cls-1"><path class="cls-6" d="M662.93,263.88h-2.56v11h-1.49v-11h-1.59v-1.44h1.59v-3.33h1.49v3.33h2.56Z"/></g><g class="cls-1"><path class="cls-6" d="M676.13,262.44v12.42h-1.49V272.3a5.42,5.42,0,0,1-4.72,2.74c-3.46,0-5.87-2.86-5.87-6.37s2.41-6.38,5.87-6.38a5.4,5.4,0,0,1,4.72,2.76v-2.61Zm-1.49,6.23a4.73,4.73,0,0,0-4.57-4.94,5,5,0,0,0,0,9.87A4.71,4.71,0,0,0,674.64,268.67Z"/><path class="cls-6" d="M680.25,255h1.5v19.88h-1.5Z"/></g><g class="cls-1"><path class="cls-6" d="M619.17,298.47c0,3.51-2.41,6.39-5.86,6.39a5.42,5.42,0,0,1-4.73-2.76v2.58h-1.49V284.8h1.49v10a5.45,5.45,0,0,1,4.73-2.73C616.76,292.11,619.17,295,619.17,298.47Zm-1.51,0a4.62,4.62,0,0,0-4.5-4.92,4.95,4.95,0,0,0,0,9.87A4.66,4.66,0,0,0,617.66,298.47Z"/><path class="cls-6" d="M627.5,292.06v1.69c-2-.15-3.58,1.54-3.58,4.1v6.83h-1.5V292.26h1.5v2.28A4.06,4.06,0,0,1,627.5,292.06Z"/><path class="cls-6" d="M630,288.73a1,1,0,0,1,1-1.07,1.06,1.06,0,0,1,1.07,1.07,1,1,0,0,1-1.07,1A1,1,0,0,1,630,288.73Zm.32,3.53h1.49v12.42H630.3Z"/><path class="cls-6" d="M647.43,284.8v19.88h-1.49v-2.56a5.44,5.44,0,0,1-4.73,2.74c-3.45,0-5.86-2.86-5.86-6.36s2.41-6.39,5.86-6.39a5.42,5.42,0,0,1,4.73,2.76V284.8Zm-1.49,13.7a4.74,4.74,0,0,0-4.58-4.95,5,5,0,0,0,0,9.87A4.71,4.71,0,0,0,645.94,298.5Z"/><path class="cls-6" d="M662.76,304.14c0,3.88-3,5.69-5.87,5.69a8.67,8.67,0,0,1-4.65-1.39l0-1.62a7.77,7.77,0,0,0,4.45,1.62,4.31,4.31,0,0,0,4.6-4.65v-1.74a5.46,5.46,0,0,1-4.78,2.81c-3.45,0-5.86-2.86-5.86-6.36s2.41-6.39,5.86-6.39a5.39,5.39,0,0,1,4.73,2.78v-2.63h1.46Zm-1.49-5.64a4.74,4.74,0,0,0-4.58-4.95,5,5,0,0,0,0,9.87A4.71,4.71,0,0,0,661.27,298.5Z"/><path class="cls-6" d="M666.88,288.73a1,1,0,0,1,1-1.07,1.06,1.06,0,0,1,1.07,1.07,1,1,0,0,1-1.07,1A1,1,0,0,1,666.88,288.73Zm.32,3.53h1.49v12.42H667.2Z"/></g><g class="cls-1"><path class="cls-6" d="M683.36,297.67v7H681.9V298c0-3-1.47-4.53-3.63-4.53-1.92,0-3.46,1.32-3.66,3.91v7.35h-1.49V292.26h1.49v2a4.54,4.54,0,0,1,4-2.26C681.15,292,683.36,293.85,683.36,297.67Z"/></g><g class="cls-1"><path class="cls-6" d="M698.12,304.14c0,3.88-3,5.69-5.86,5.69a8.64,8.64,0,0,1-4.65-1.39l0-1.62a7.77,7.77,0,0,0,4.45,1.62,4.31,4.31,0,0,0,4.6-4.65v-1.74a5.46,5.46,0,0,1-4.77,2.81c-3.46,0-5.87-2.86-5.87-6.36s2.41-6.39,5.87-6.39a5.38,5.38,0,0,1,4.72,2.78v-2.63h1.47Zm-1.49-5.64a4.73,4.73,0,0,0-4.57-4.95,4.95,4.95,0,1,0,4.57,4.95Z"/></g></g><line class="cls-15" x1="638.59" y1="148.5" x2="606.24" y2="177.64"/><line class="cls-15" x1="665.09" y1="149.14" x2="699.71" y2="169.13"/><g class="cls-1"><g class="cls-1"><path class="cls-6" d="M672,210.41a5.12,5.12,0,0,1,8.39-3.95v1.47a4.23,4.23,0,0,0-3.28-1.47,4,4,0,0,0,0,7.91,4.26,4.26,0,0,0,3.28-1.47v1.47a5.13,5.13,0,0,1-8.39-4Z"/><path class="cls-6" d="M683.19,199.48h1.19v15.9h-1.19Z"/><path class="cls-6" d="M696.65,205.44v9.94h-1.2v-2a4.33,4.33,0,0,1-3.77,2.18,5.12,5.12,0,0,1,0-10.2,4.31,4.31,0,0,1,3.77,2.21v-2.09Zm-1.2,5a3.78,3.78,0,0,0-3.66-4,4,4,0,0,0,0,7.89A3.77,3.77,0,0,0,695.45,210.43Z"/></g><g class="cls-1"><path class="cls-6" d="M708,205.44,702,219.36h-1.2l1.79-4.21-4.17-9.71h1.29l3.48,8.39,3.44-8.39Z"/></g></g><path class="cls-14" d="M603.05,196.54c12-1.52,18.83-17.39,7-22.88-5.42-2.52-14.13.69-18.28,4.55-5.08,4.74-3.48,9.45-2.32,15.62,0,0,.79,1.34,1,1.74,3.57,4.89,7.27,2.48,12.58,1"/><path class="cls-14" d="M699.44,166.66c-10.92,5.12-12.58,22.34.34,23.93,5.93.74,13.24-5,16-9.94,3.38-6.08.41-10.06-2.59-15.58,0,0-1.17-1-1.49-1.35-4.89-3.55-7.67-.13-12.26,2.94"/></g></g><g id="Layer_12" data-name="Layer 12"><g id="Layer_104" data-name="Layer 104"><path class="cls-6" d="M392.43,184.81c-4.45,1.15-5.89,6.75-.78,7.78,5.59,1.13,4.28-7.77.78-7.78"/><path class="cls-6" d="M401.86,175.49c-1.88,2.19-8.58,3.37-4.74,7.86,1.77,2.07,4.94,1.75,6.87.25,7-5.45.91-9.91-2.13-8.11"/><path class="cls-7" d="M407.27,171.07c-3-.38-9.79.77-14,.78-5.63,0-9.72-2.79-15.23-3.38a51.43,51.43,0,0,0-15.27.34c-3.81.67-8.15-.81-12-1.13-3-.25-5.89.26-8.82.28-2.27,0-3.67-.8-5.76-1.31-3.81-.92-8,1-11.64.83.78,8.81-.41,18,0,26.89,3.88,1.06,8.07,1,12.05,2.13,3.55,1,6.78,2.74,10.4,3.56,8.11,1.85,14.53.25,22.37-.72,3.56-.44,7.79.19,11-1.75,1.68-1,3.48-1.92,5.15-2.92,2.82-1.67,4.22-5.18,7-7.25a19.12,19.12,0,0,0,3.7-4.17c1.28-1.64,2.45-2,4-3.16s8-7.08,7.57-9"/><g class="cls-1"><g class="cls-1"><path class="cls-6" d="M368.17,261.68l-6.39,12.57H361L358.35,269l-2.56,5.24h-.85l-6.36-12.57h1.62l5.22,10.41,2.18-4.55-2.88-5.86h1.57l2.08,4.45,2.09-4.45H362l-2.91,5.86,2.24,4.55,5.19-10.41Z"/></g><g class="cls-1"><path class="cls-6" d="M380.87,268.41H370.6a4.62,4.62,0,0,0,4.77,4.45,6,6,0,0,0,4.23-1.71v1.69a6.76,6.76,0,0,1-4.28,1.44,6.38,6.38,0,0,1-.25-12.75C378.78,261.53,380.94,264.76,380.87,268.41Zm-10.25-1.32h8.65c-.32-2.31-1.86-4.12-4.2-4.12A4.5,4.5,0,0,0,370.62,267.09Z"/></g><g class="cls-1"><path class="cls-6" d="M388.07,263.12h-2.56v11H384v-11h-1.59v-1.44H384v-3.33h1.49v3.33h2.56Z"/></g><g class="cls-1"><path class="cls-6" d="M388.49,277.09l5.92-22.87h1.46L390,277.09Z"/></g><g class="cls-1"><path class="cls-6" d="M408.15,254.22V274.1h-1.49v-2.56a5.42,5.42,0,0,1-4.72,2.74c-3.46,0-5.87-2.86-5.87-6.36s2.41-6.39,5.87-6.39a5.4,5.4,0,0,1,4.72,2.76V254.22Zm-1.49,13.7a4.73,4.73,0,0,0-4.57-4.95,4.95,4.95,0,1,0,4.57,4.95Z"/><path class="cls-6" d="M417.35,261.48v1.69c-2-.15-3.58,1.54-3.58,4.1v6.83h-1.5V261.68h1.5V264A4.06,4.06,0,0,1,417.35,261.48Z"/></g><g class="cls-1"><path class="cls-6" d="M429.84,261.68l-7.41,17.4h-1.49l2.24-5.27L418,261.68h1.61l4.35,10.49,4.3-10.49Z"/></g><g class="cls-1"><path class="cls-6" d="M356.23,297.71a6.42,6.42,0,0,1,10.49-4.95v1.84a5.34,5.34,0,0,0-4.1-1.84,5,5,0,0,0,0,9.9,5.34,5.34,0,0,0,4.1-1.84v1.84a6.42,6.42,0,0,1-10.49-5Z"/></g><g class="cls-1"><path class="cls-6" d="M380.24,291.5l-7.41,17.4h-1.49l2.24-5.27-5.22-12.13H370L374.32,302l4.3-10.49Z"/></g><g class="cls-1"><path class="cls-6" d="M381.26,297.71a6.42,6.42,0,0,1,10.49-4.95v1.84a5.34,5.34,0,0,0-4.1-1.84,5,5,0,0,0,0,9.9,5.34,5.34,0,0,0,4.1-1.84v1.84a6.42,6.42,0,0,1-10.49-5Z"/><path class="cls-6" d="M395.25,284h1.5v19.88h-1.5Z"/></g><g class="cls-1"><path class="cls-6" d="M411.77,298.23H401.51a4.62,4.62,0,0,0,4.77,4.45,6,6,0,0,0,4.23-1.71v1.69a6.76,6.76,0,0,1-4.28,1.44,6.38,6.38,0,0,1-.25-12.75C409.69,291.35,411.85,294.58,411.77,298.23Zm-10.24-1.32h8.65c-.32-2.31-1.86-4.12-4.2-4.12A4.5,4.5,0,0,0,401.53,296.91Z"/></g><g class="cls-1"><path class="cls-6" d="M413.81,302.16l1-1.09a4,4,0,0,0,3,1.61,2.15,2.15,0,0,0,2.41-2c0-3.1-6.19-2.09-6.17-6.21a3.38,3.38,0,0,1,3.63-3.18,5.19,5.19,0,0,1,3.75,1.76l-.92,1.07a3.93,3.93,0,0,0-2.8-1.39,2,2,0,0,0-2.17,1.74c-.05,2.88,6.19,1.89,6.17,6.24,0,1.91-1.59,3.4-3.95,3.4A5.4,5.4,0,0,1,413.81,302.16Z"/></g></g><line class="cls-16" x1="442.97" y1="137.11" x2="335.73" y2="244.35"/><path class="cls-6" d="M452.25,224.5H324.52V193.38c4.29-.32,8-2,12.46-1.6,5.17.46,10.22,3.38,15.5,3.95,14.8,1.59,29-3.53,43.64-2.35,10.87.87,20.6,2.08,31.3-.57,8.24-2,17-.37,24.59-2.45Z"/><path class="cls-6" d="M415.83,186.11c-2.41.45-6.12.56-6.49,3.88-.4,3.63,3.16,3.17,5.47,3.37,1.26.11,1.91.93,3.1,0,1-.73,1.4-3.1,1.31-4.17-.22-2.57-2-3.61-4.43-3.37"/><path class="cls-6" d="M433.73,182c-1.87,2.19-8.58,3.37-4.73,7.86,1.76,2.07,4.94,1.75,6.87.25,7-5.45.91-9.91-2.14-8.11"/><path class="cls-6" d="M446.18,177.29c-1.78,2.15-5.85,2-6.68,6.25-.23,1.16-.51,4.05,0,5.11,1.55,3.29,5.92,1.54,8.24,1.41,4.41-.26,6.71-2.12,5.26-7.33-.85-3-3.74-6.49-6.81-5.44"/><path class="cls-6" d="M424.13,184.82c-4.44,1.15-5.88,6.74-.78,7.78,5.6,1.13,4.29-7.77.78-7.78"/><path class="cls-6" d="M406.54,187.37c-1.06-2-7-2.56-8.61-1.85-2.83,1.26-2.45,5.47.06,7,1.56,1,6.73,1.58,8.43.77a3.36,3.36,0,0,0,1.49-4.52,3.43,3.43,0,0,0-1.37-1.43"/><path class="cls-6" d="M410.13,178.07c-4.13-.07-3.73,6.48-.52,8s7.89-1.1,11.41-.58c1.76.27,2.8,1.43,3.13-1.47.24-2.18-1.44-3.38-3-4.21-2.78-1.44-8.27-3.26-11-1.77"/><path class="cls-6" d="M430.88,176.77c-2.88.18-7.64,1.16-6.95,5s2.95,2.44,5.39,1.69c1.87-.58,4-.37,4.36-2.85.25-1.6-1-4.11-2.8-3.84"/><path class="cls-17" d="M385.53,193.45l-31,31.05h2.2l31.2-31.2C387.09,193.34,386.31,193.39,385.53,193.45Z"/></g></g><g id="Layer_13" data-name="Layer 13"><g id="Layer_105" data-name="Layer 105"><g class="cls-1"><g class="cls-1"><path class="cls-6" d="M71.36,259.49v4.85h2.58v1.44H71.36v11H69.89v-11H68.3v-1.44h1.59v-5.12a2.27,2.27,0,0,1,2.34-2.49,3,3,0,0,1,1.71.5v1.54a2.57,2.57,0,0,0-1.44-.52A1.13,1.13,0,0,0,71.36,259.49Z"/></g><g class="cls-1"><path class="cls-6" d="M81.49,264.14v1.69c-2-.15-3.58,1.54-3.58,4.1v6.83H76.42V264.34h1.49v2.28A4.07,4.07,0,0,1,81.49,264.14Z"/></g><g class="cls-1"><path class="cls-6" d="M94.4,271.07H84.13a4.62,4.62,0,0,0,4.77,4.45,6,6,0,0,0,4.23-1.71v1.69a6.76,6.76,0,0,1-4.28,1.44,6.38,6.38,0,0,1-.25-12.75C92.31,264.19,94.47,267.42,94.4,271.07Zm-10.25-1.32H92.8c-.32-2.31-1.86-4.12-4.2-4.12A4.5,4.5,0,0,0,84.15,269.75Z"/></g><g class="cls-1"><path class="cls-6" d="M108.44,271.07H98.17a4.62,4.62,0,0,0,4.77,4.45,6,6,0,0,0,4.23-1.71v1.69a6.76,6.76,0,0,1-4.28,1.44,6.38,6.38,0,0,1-.25-12.75C106.35,264.19,108.51,267.42,108.44,271.07Zm-10.25-1.32h8.65c-.32-2.31-1.86-4.12-4.2-4.12A4.5,4.5,0,0,0,98.19,269.75Z"/></g><g class="cls-1"><path class="cls-6" d="M119.84,264.63l-7.33,10.69h7.21v1.44h-9.67v-.34l7.33-10.67H110v-1.41h9.84Z"/></g><g class="cls-1"><path class="cls-6" d="M132.7,271.07H122.43a4.62,4.62,0,0,0,4.77,4.45,6,6,0,0,0,4.23-1.71v1.69a6.76,6.76,0,0,1-4.28,1.44,6.38,6.38,0,0,1-.25-12.75C130.61,264.19,132.77,267.42,132.7,271.07Zm-10.25-1.32h8.65c-.32-2.31-1.86-4.12-4.2-4.12A4.5,4.5,0,0,0,122.45,269.75Z"/><path class="cls-6" d="M133.76,279.75l5.92-22.87h1.46l-5.89,22.87Z"/><path class="cls-6" d="M147.6,265.78H145v11h-1.49v-11H142v-1.44h1.59V261H145v3.33h2.56Z"/></g><g class="cls-1"><path class="cls-6" d="M160.35,269.75v7h-1.47V270c0-3-1.46-4.53-3.63-4.53s-3.68,1.55-3.68,4.53v6.73h-1.49V256.88h1.49v9.52a4.56,4.56,0,0,1,4-2.29C158.14,264.11,160.35,265.93,160.35,269.75Z"/></g><g class="cls-1"><path class="cls-6" d="M175.11,264.34v12.42h-1.49V274.2a5.42,5.42,0,0,1-4.72,2.74c-3.46,0-5.87-2.86-5.87-6.37s2.41-6.38,5.87-6.38a5.4,5.4,0,0,1,4.72,2.76v-2.61Zm-1.49,6.23a4.73,4.73,0,0,0-4.57-4.94,5,5,0,0,0,0,9.87A4.71,4.71,0,0,0,173.62,270.57Z"/></g><g class="cls-1"><path class="cls-6" d="M196.86,264.34l-6.39,12.57h-.82L187,271.67l-2.56,5.24h-.85l-6.36-12.57h1.62l5.21,10.41,2.19-4.55-2.88-5.86H185l2.08,4.45,2.09-4.45h1.57l-2.91,5.86,2.24,4.55,5.19-10.41Z"/></g><g class="cls-1"><path class="cls-6" d="M99.19,300.37a6.42,6.42,0,0,1,10.49-4.95v1.84a5.34,5.34,0,0,0-4.1-1.84,5,5,0,0,0,0,9.9,5.34,5.34,0,0,0,4.1-1.84v1.84a6.42,6.42,0,0,1-10.49-4.95Z"/></g><g class="cls-1"><path class="cls-6" d="M123.2,294.16l-7.41,17.4H114.3l2.24-5.27-5.22-12.13h1.61l4.35,10.49,4.3-10.49Z"/></g><g class="cls-1"><path class="cls-6" d="M124.21,300.37a6.42,6.42,0,0,1,10.49-4.95v1.84a5.34,5.34,0,0,0-4.1-1.84,5,5,0,0,0,0,9.9,5.34,5.34,0,0,0,4.1-1.84v1.84a6.42,6.42,0,0,1-10.49-4.95Z"/><path class="cls-6" d="M138.2,286.7h1.5v19.88h-1.5Z"/></g><g class="cls-1"><path class="cls-6" d="M154.74,300.89H144.47a4.62,4.62,0,0,0,4.77,4.45,6,6,0,0,0,4.23-1.71v1.69a6.76,6.76,0,0,1-4.28,1.44,6.38,6.38,0,0,1-.25-12.75C152.65,294,154.81,297.24,154.74,300.89Zm-10.25-1.32h8.65c-.32-2.31-1.86-4.12-4.2-4.12A4.5,4.5,0,0,0,144.49,299.57Z"/></g><g class="cls-1"><path class="cls-6" d="M156.77,304.82l1-1.09a4,4,0,0,0,3,1.61,2.15,2.15,0,0,0,2.41-2c0-3.1-6.19-2.08-6.17-6.21A3.38,3.38,0,0,1,160.7,294a5.19,5.19,0,0,1,3.75,1.76l-.92,1.07a3.93,3.93,0,0,0-2.8-1.39,2,2,0,0,0-2.17,1.74c-.05,2.88,6.19,1.89,6.17,6.24,0,1.91-1.59,3.4-3.95,3.4A5.4,5.4,0,0,1,156.77,304.82Z"/></g></g><line class="cls-18" x1="91.57" y1="114.16" x2="91.57" y2="193.39"/><line class="cls-18" x1="57.26" y1="133.97" x2="125.88" y2="173.58"/><line class="cls-18" x1="57.26" y1="173.58" x2="125.88" y2="133.97"/><polyline class="cls-18" points="100.02 188.51 91.57 178.11 83.12 188.51"/><polyline class="cls-18" points="83.12 119.04 91.57 129.45 100.02 119.04"/><polyline class="cls-18" points="125.88 163.83 112.64 165.94 117.43 178.46"/><polyline class="cls-18" points="57.26 143.72 70.5 141.61 65.77 129.24"/><polyline class="cls-18" points="117.43 129.09 112.64 141.61 125.88 143.72"/><polyline class="cls-18" points="65.71 178.46 70.5 165.94 57.26 163.83"/><path class="cls-7" d="M130.3,201.31c8.46-.65,10.2-5.34,17.86-7.25,8.08-2,19.76.84,27.2,3.79,7.74,3.08,11.33,7.5,20.11,8.67,4.5.6,8.6.17,12.26,3,6.81,5.25,5.76,16,1.4,22-7.58,10.42-21.15,6.74-32.72,7.53-8.46.58-14.37,4.72-23.29,4.3a140.52,140.52,0,0,1-29.23-4.76c-17.53-4.64-14.41-20.2-3.79-29.64,2-1.8,4.82-6.33,10.2-7.63"/><line class="cls-19" x1="178.07" y1="134.39" x2="80.22" y2="232.23"/></g></g></g></svg>