<svg xmlns="http://www.w3.org/2000/svg" viewBox="0 0 1066.45 838.84"><defs><style>.cls-1{fill:#603813;}.cls-2{fill:#ffc801;}.cls-3{fill:#f27243;}.cls-17,.cls-20,.cls-25,.cls-26,.cls-27,.cls-39,.cls-4,.cls-40,.cls-41,.cls-42,.cls-51,.cls-6{fill:#5c5052;}.cls-5{fill:#ec7243;}.cls-6{font-size:36.58px;}.cls-17,.cls-20,.cls-25,.cls-26,.cls-27,.cls-39,.cls-40,.cls-41,.cls-42,.cls-51,.cls-6{font-family:Acre-Light, Acre;font-weight:300;}.cls-7{letter-spacing:0em;}.cls-20,.cls-8{letter-spacing:-0.01em;}.cls-9{letter-spacing:0em;}.cls-10,.cls-39{letter-spacing:-0.02em;}.cls-11{letter-spacing:-0.02em;}.cls-12,.cls-19,.cls-23,.cls-27,.cls-29,.cls-32,.cls-34{letter-spacing:-0.02em;}.cls-13,.cls-25{letter-spacing:-0.01em;}.cls-14{letter-spacing:-0.01em;}.cls-15,.cls-50{fill:#3d9c93;}.cls-15,.cls-28,.cls-29,.cls-30,.cls-31,.cls-32,.cls-33,.cls-34,.cls-37{font-family:Acre-Semibold, Acre;font-weight:600;}.cls-16,.cls-22,.cls-30{letter-spacing:-0.01em;}.cls-18,.cls-19,.cls-49{fill:#de6a7c;}.cls-21,.cls-22,.cls-23,.cls-24,.cls-30,.cls-31,.cls-32,.cls-47{fill:#e47243;}.cls-24{letter-spacing:0em;}.cls-26,.cls-35{letter-spacing:0em;}.cls-33,.cls-34,.cls-43{fill:#ffc001;}.cls-36,.cls-41{letter-spacing:0em;}.cls-37,.cls-48{fill:#336da7;}.cls-38{letter-spacing:-0.03em;}.cls-40{letter-spacing:-0.02em;}.cls-42{letter-spacing:-0.08em;}.cls-44,.cls-45,.cls-46{fill:none;}.cls-44{stroke:#e47243;}.cls-44,.cls-45,.cls-46,.cls-47,.cls-48,.cls-49{stroke-miterlimit:10;}.cls-44,.cls-46{stroke-width:2.35px;}.cls-45,.cls-46{stroke:#336da7;}.cls-45{stroke-width:2.23px;}.cls-47,.cls-48,.cls-49{stroke:#e3e3e4;stroke-width:0.29px;}.cls-51{font-size:26.13px;}.cls-52{letter-spacing:-0.02em;}.cls-53{letter-spacing:0em;}.cls-54{letter-spacing:-0.02em;}</style></defs><g id="Layer_2" data-name="Layer 2"><g id="Aggregates"><g id="Layer_94" data-name="Layer 94"><path class="cls-1" d="M733.28,34a27.77,27.77,0,0,1,9.25-10.56,21.06,21.06,0,0,1,11.53-3.92,19.82,19.82,0,0,1,11.28,3.46c5,3.37,4.07,6,8.94,9.2,3,1.92,5.74,2.43,11.27,3.46a69,69,0,0,0,11.74,1.08c6.64.11,7.26-.65,12-.12,4.36.49,7.46.84,10.12,3.23,1.88,1.7,2.7,3.9,4.34,8.29,1.48,4,2.48,6.66,2.72,10.45.17,2.71.51,8-2.59,13.12-3,4.88-7.41,6.84-9.93,7.95a28.65,28.65,0,0,1-17,1.6c-7.49-1.38-7.33-4-17.71-7.21A72.81,72.81,0,0,0,764.22,71c-6.77-.59-7.16.38-14.28-.34-9.42-1-13.13-3.1-14.72-4.14-2-1.33-4.52-3-6-6.14s-1-6.32,0-12.38C730.41,41.61,731,38.22,733.28,34Z"/><path class="cls-1" d="M811.61,14.19c2.44-4.49,7.92-5.66,14.26-7,3.43-.74,4.23-.52,10.69-1.17,5.92-.61,6.11-.88,16.62-2.34,13-1.81,10.25-1,19-2.34,6.68-1,9.49-1.62,14.25-1.17,4.26.4,7.92.8,10.69,3.51,3.1,3,3.32,7.17,3.57,11.7a28.09,28.09,0,0,1-2.38,14c-1.17,2.49-5.15,6.37-13.06,14-5.51,5.33-7.12,6.69-9.51,8.19a34.53,34.53,0,0,1-10.69,4.68c-6.31,1.5-11.38.66-15.44,0a44.11,44.11,0,0,1-14.25-4.68c-4.21-2.27-7.87-4.16-10.69-8.19-3.13-4.46-1.47-6.11-4.75-10.53-3.52-4.72-6.35-4.08-8.32-8.19A12,12,0,0,1,811.61,14.19Z"/><path class="cls-1" d="M897.64,34a32.87,32.87,0,0,1,31.28-5.22c3.89,1.23,8.06,2.55,11.73,6.52a21.27,21.27,0,0,1,5.21,10.43c1.54,8.25-2.49,15-5.21,19.55-2.5,4.19-5.58,7.14-11.73,13-6.65,6.38-10.07,9.58-14.34,10.43-4.64.92-11.56.2-14.33-3.91-2.4-3.56.27-6.74-2.61-10.43-2.26-2.9-4.61-1.85-7.82-5.21a17.06,17.06,0,0,1-3.91-7.82,23.9,23.9,0,0,1,0-13C888.09,41,893.51,37.05,897.64,34Z"/><path class="cls-1" d="M842.06,71.54c10.18-2.7,11.19-6.4,17.59-5.86,4.16.34,7.42,2.21,11.73,4.69a56.83,56.83,0,0,1,9.38,7c5.88,5,8.83,7.62,9.38,10.56,1,5.24-2.86,9.78-3.52,10.55-3.77,4.46-9.1,5.4-11.72,5.87-8.12,1.44-10.41-2.12-17.6,0-4.56,1.34-4.37,3-8.2,3.52-5.86.78-10.76-2.48-14.08-4.7-3.91-2.6-8.53-5.68-10.55-11.72-1.61-4.79-1.89-12.34,2.34-16.42C830.1,71.89,832.81,74,842.06,71.54Z"/><path class="cls-1" d="M783.26,93.21a15.73,15.73,0,0,1,5.25-8.46c5.86-4.55,13.54-2.32,14.9-1.93,1.65.48,9.77,2.83,12,10.32,2,6.71-2.27,12.53-3,13.48-3.89,5.34-9.68,6.6-16.35,8-4.58,1-12.65,2.76-14.8-.54-1.33-2,1-3.83,1.63-11.06C783.39,97.67,782.26,96.9,783.26,93.21Z"/><path class="cls-1" d="M728.36,88.46c3.84-3.61,11-3.74,25.3-4,12.18-.21,15.84,1.07,18.64,2.67,1.82,1,7.34,4.18,9.32,10.65,1.73,5.67-.27,10.65-1.34,13.31a19.54,19.54,0,0,1-6.65,9.32c-6.73,4.82-14.9,2.93-16,2.66-6.86-1.7-6.72-5.64-13.31-6.65-5.47-.84-7.22,1.62-12,0a15.61,15.61,0,0,1-8-6.66C720.54,103,723.08,93.43,728.36,88.46Z"/><path class="cls-1" d="M805.7,117.28a21.68,21.68,0,0,1,11.73-10.56,21,21,0,0,1,14.07,0,18.62,18.62,0,0,1,9.39,7c3.5,5.3,2.84,11,2.34,15.25s-1,8.88-4.69,12.9c-5.2,5.71-12.8,5.82-15.25,5.86s-8.13.12-12.9-3.52C802.71,138.38,801.34,126,805.7,117.28Z"/><path class="cls-1" d="M851.17,125.83c-5.51,5.86-5.61,13.59-5.68,19.43-.09,7.13-.17,13.48,4,17,3.64,3,7.55,1.45,12.32,6.07a28.88,28.88,0,0,0,4.27,4,15.39,15.39,0,0,0,6.74,3.1,13.82,13.82,0,0,0,9.71-2.47c2.23-1.68,3.5-4.86,6-11.15,2.89-7.41,2.44-8.66,2.19-9.19-1.38-2.95-5-1.82-8.81-5.69-.71-.71-3.55-3.56-3.9-7.51-.43-5,3.6-6.35,3.62-11.4a11.87,11.87,0,0,0-6-10.1c-4.15-2.14-8.7-.32-14.38,2C857.25,121.47,854.06,122.75,851.17,125.83Z"/><path class="cls-1" d="M781.76,173.68c9.16-4.3,14.2-6.74,18.76-12.5,2.63-3.34,7.1-9,6.25-16.26C805.6,135,795.43,129.8,793,128.67c-3.31-1.54-6.37-1.86-12.51-2.5-6.43-.67-15.85-1.56-27.5,1.25-5.4,1.31-8.87,1-11.25,3.75-.9,1-1.35,3.26-2.5,7.5-.42,1.53-.8,2.92-1.25,5-2.09,9.49-3.27,14.87-2.5,21.26.54,4.54,1,8.15,3.75,11.25,4,4.49,10.21,4.82,15,5C764.69,181.58,772.5,178,781.76,173.68Z"/><path class="cls-1" d="M648.3,96c14.47,1.85,20.55,15.71,21.33,17.57.9,2.16,4,9.92,1.26,18.83-4,13-18,20.31-30.12,20.08-2.84-.06-15.71-.72-21.34-10-3.7-6.14-2.49-13.07-1.25-20.08.94-5.4,1.93-11,6.27-16.32C625.24,105.06,634.42,94.21,648.3,96Z"/><path class="cls-1" d="M647.32,51.07c1.69-4.09,6.27-15.22,16.4-18,4.17-1.13,6.65-.12,10.93-2.39,5.23-2.77,4.72-5.95,9.57-8.39,5.15-2.6,10.94-1.65,13.67-1.2,5.9,1,9.7,3.56,15,7.19,4.34,3,7.14,4.87,9.56,8.39,2.79,4,3.35,7.73,4.1,13.18a55.58,55.58,0,0,1,0,15.57c-1.45,10-2.64,18.1-9.56,24-5.61,4.75-12.12,5.58-24.6,7.19-15.13,2-24.7-.48-27.33-1.2-9.48-2.6-12.79-6.17-13.67-7.19-2.22-2.55-3.21-5.24-4.1-9.58C645.09,67.78,643.54,60.24,647.32,51.07Z"/><path class="cls-1" d="M578.3,116.69c-.76,2.14-4,11.25,1.32,18.42,4,5.39,10.32,6.35,11.84,6.58a20.68,20.68,0,0,0,13.16-2.63c2.69-1.44,8.88-4.76,10.52-11.84,1.41-6.06-1.47-11.13-2.63-13.16-2.91-5.1-10.31-13.37-19.74-11.84C582.86,103.82,578.92,114.94,578.3,116.69Z"/><path class="cls-1" d="M669.89,139.53a21.27,21.27,0,0,1,7.78-11.18c2.75-1.95,3.32-1.21,7.88-3.85a43.44,43.44,0,0,0,8.63-6.44c4.86-4.73,4.46-6.87,8.2-8.81a15.49,15.49,0,0,1,8.3-1.48,16.13,16.13,0,0,1,9.14,3.25,14.37,14.37,0,0,1,4.83,6.48c1,2.92.13,4,1.49,8.29a14.78,14.78,0,0,0,2,4.53c1.63,2.33,2.84,2.37,4.4,4.1,2.74,3,2.83,7.16,2.88,9.27a20.17,20.17,0,0,1-2.07,8.93,23.42,23.42,0,0,1-6.81,9.78c-2.55,2-5.51,2.86-11.42,4.49a61.37,61.37,0,0,1-15.41,2.76c-5.43.19-8.69.31-12.48-1.43-2.32-1.07-4.41-3.05-8.6-7-4.36-4.14-6.54-6.21-7.62-8.42A19.78,19.78,0,0,1,669.89,139.53Z"/><path class="cls-1" d="M972.49,11.86l27.64-2.32a17.43,17.43,0,0,1,11.32,3l8.08,5.55a17.43,17.43,0,0,1,7,9.94l5,19.16a17.52,17.52,0,0,1,.54,5.44l-.8,13.94a17.44,17.44,0,0,1-11.24,15.3h0a17.56,17.56,0,0,1-5.21,1.1l-24.13,1.32a17.68,17.68,0,0,1-3.25-.12l-18.94-2.52a17.49,17.49,0,0,1-10.25-5.18l-3.71-3.86a17.39,17.39,0,0,1-4.72-14.49L952,42.35a17.7,17.7,0,0,1,.56-2.6l4.64-15.51A17.43,17.43,0,0,1,972.49,11.86Z"/><path class="cls-1" d="M979.27,144.25a48.19,48.19,0,0,1-4.49-22,19.38,19.38,0,0,1,.59-2.72l4.87-16.28a18.26,18.26,0,0,1,16-13l29-2.44A18.29,18.29,0,0,1,1037.1,91l8.47,5.81a18.26,18.26,0,0,1,7.34,10.43l5.29,20.1a18.32,18.32,0,0,1,.57,5.71l-.85,14.62a18.26,18.26,0,0,1-11.78,16,18,18,0,0,1-5.47,1.16l-25.3,1.39a18.51,18.51,0,0,1-3.41-.14,35.55,35.55,0,0,1-21-6.64C984.21,154.51,981.19,148.31,979.27,144.25Z"/><path class="cls-1" d="M932.61,89.26l25,9.88a15.86,15.86,0,0,1,8.36,7.65l4.35,8.57a17.6,17.6,0,0,1,1.3,12.11l-4.8,19.68a19,19,0,0,1-2.13,5.2l-7.36,12.38a18.3,18.3,0,0,1-17,9.09h0a16.09,16.09,0,0,1-5-1.26l-21.51-9.26a15.37,15.37,0,0,1-2.75-1.52l-15.18-10.52a16.19,16.19,0,0,1-6.4-9.18L888.07,137a18.48,18.48,0,0,1,2.84-15.27l9.43-13.44a18.51,18.51,0,0,1,1.73-2.13L913.5,94A17.56,17.56,0,0,1,932.61,89.26Z"/><path class="cls-1" d="M575.1,26.58l28.39-6.38a18.23,18.23,0,0,1,12.19,1.48l9.19,4.6a18.22,18.22,0,0,1,8.7,9.32l8,19.19a18.39,18.39,0,0,1,1.35,5.57L644.08,75a18.28,18.28,0,0,1-9.47,17.51h0a17.9,17.9,0,0,1-5.26,1.89l-24.87,4.85a18.49,18.49,0,0,1-3.4.34l-20,.1a18.29,18.29,0,0,1-11.39-3.9l-4.42-3.47a18.29,18.29,0,0,1-7-14.38V61.21a18.49,18.49,0,0,1,.21-2.78L561,41.64A18.28,18.28,0,0,1,575.1,26.58Z"/><path class="cls-2" d="M112.15,35.52C98.69,41,90,40.69,88.1,56.33c-1.43,11.72-5,20.52,6.9,29.14,9.81,7.1,31.13,5.73,41.56,1.56s14-11.36,13.53-22.26c-.51-12.88-10.08-22.72-20.18-27.28-4.31-1.94-11.2-5.64-17.76-2"/><path class="cls-2" d="M240.09,119c-8.36.87-13.24,17.19-2.46,25.81,7.05,5.64,21,5,25.06-4,6.65-14.76-11.64-23.68-22.6-21.8"/><path class="cls-2" d="M186.42,116.21c9,4.67,19.36,3,19.29-10.46-.07-12.64-16.28-12.44-25.28-12.52-10.11-.09-18.86,5-7.93,14.72,3.47,3.09,9.89,5.9,13.92,8.26"/><path class="cls-2" d="M130.71,114.18c-8.15,7.87-29.64,29.64-12.79,39.63,4.71,2.79,21.23,3,26.36-.67,4.52-3.19,5.09-9.1,4.19-14.57s-4.57-9.18-5.67-14.67,2.54-9.31-1.79-11.74c-4.76-2.67-12.16,1.7-12.72,6"/><path class="cls-2" d="M180.14,52.42C176,50.54,166.41,54,161.73,58.09,157.31,62,152,69.44,154,75.7c2.62,5.31,11,5.51,19,5.85,9.87.42,20.47-3.18,30.06-1.42s20.86,7.46,31,2.2C250.76,73.68,235,62,224.28,59c-13.78-3.8-32.52.87-44.14-6.62"/><path class="cls-2" d="M179.05,142.83c-28,39.21,65,25.8,50.92-1.63-5-9.67-16.21-7.65-26.8-9.67-7.6-1.45-19.38-.69-21.54,4.35-1,2.17-1,4.55-2.58,7"/><path class="cls-2" d="M70.7,114.31c-17.82,10.51-12.33,39.45,9.51,39.56,14.31.07,34.93-12.73,29.26-28.42-3.54-9.79-17.88-19.3-27.69-19.63-8.35-.28-9.09,6.62-14.31,10.11"/><path class="cls-2" d="M37.12,43.23c9.25.35,18.13-2.61,23.63,6.64C64.42,56,68.6,66.08,68.6,73.12c0,16.62-15.3,19.57-26.77,15.95-7.26-2.29-12.09-5.85-17.67-10.32C18.24,74,6.71,70.14,2.63,63.27c-10.69-18,14-18.48,23.86-19,3.71-.18,6.71-1.18,10.63-1.07"/><path class="cls-2" d="M369.27,156.44c13.45-5.46,22.13-5.16,24-20.8,1.44-11.72,5-20.52-6.89-29.15-9.82-7.09-31.13-5.72-41.56-1.55s-14,11.36-13.53,22.26c.51,12.88,10.07,22.72,20.18,27.27,4.31,1.94,11.2,5.65,17.76,2"/><path class="cls-2" d="M295,75.76c-8.95-4.68-19.36-3-19.28,10.45C275.77,98.85,292,98.65,301,98.73c10.11.09,18.86-5,7.93-14.71-3.47-3.09-9.9-5.9-13.93-8.26"/><path class="cls-2" d="M350.7,77.79c8.16-7.87,29.65-29.64,12.8-39.64-4.71-2.79-21.23-2.95-26.37.67-4.52,3.19-5.08,9.11-4.19,14.57s4.58,9.19,5.67,14.67-2.53,9.32,1.8,11.75c4.76,2.66,12.16-1.7,12.71-6.06"/><path class="cls-2" d="M302.37,49.13c28-39.2-65-25.79-50.92,1.64,5,9.67,16.2,7.65,26.8,9.67,7.6,1.44,19.37.69,21.54-4.36,1-2.16,1-4.54,2.58-6.95"/><path class="cls-2" d="M410.72,77.66c17.81-10.51,12.33-39.45-9.52-39.56C386.89,38,366.28,50.83,372,66.52c3.54,9.78,17.88,19.3,27.68,19.63,8.35.28,9.1-6.63,14.32-10.11"/><path class="cls-2" d="M444.29,148.74c-9.24-.35-18.12,2.6-23.63-6.64-3.66-6.15-7.84-16.21-7.85-23.25,0-16.63,15.31-19.57,26.78-15.95,7.26,2.29,12.09,5.85,17.66,10.31,5.93,4.75,17.45,8.61,21.53,15.49,10.7,18-14,18.47-23.86,19-3.7.19-6.71,1.19-10.63,1.08"/><path class="cls-2" d="M285.6,130.3a20.87,20.87,0,0,0-8.73-.86c-1.86.23-3.23,1.31-4.82,2.43-3.21,2.26-5,5.62-6.13,9.95-1.62,6.31,1.58,16.36,8.35,19.32,3.58,1.57,17,2.55,16.94-3.13a13.26,13.26,0,0,0-1.38-5.3,14,14,0,0,1-1.48-5.5,118.49,118.49,0,0,1,0-11.92c.27-3.11-.18-3.91-2.78-5"/><path class="cls-2" d="M754.71,113.86c8.95,4.68,19.36,3,19.29-10.45-.07-12.64-16.28-12.44-25.28-12.52-10.11-.09-18.87,5-7.94,14.71,3.48,3.1,9.9,5.91,13.93,8.26"/><path class="cls-2" d="M763.37,35.5c-3.66-2.64-13.76-1.15-19.16,2-5.09,3-11.72,9.26-11,15.77,1.55,5.72,9.72,7.54,17.49,9.42,9.59,2.32,20.69.84,29.76,4.42s19,11.35,30,8.16c18.08-5.25,4.89-19.76-5.06-24.74-12.79-6.39-32.08-5.43-42-15"/><path class="cls-2" d="M938.73,158.79c13.45-5.46,22.13-5.17,24-20.81,1.44-11.72,5-20.52-6.89-29.14-9.82-7.1-31.13-5.73-41.56-1.56s-14,11.36-13.53,22.26c.51,12.89,10.07,22.73,20.18,27.28,4.31,1.94,11.2,5.65,17.76,2"/><path class="cls-2" d="M815.41,112c-8.35.88-13.23,17.2-2.46,25.81,7.06,5.64,21,5,25.07-4,6.64-14.76-11.65-23.68-22.61-21.8"/><path class="cls-2" d="M863.28,75.76c-8.95-4.68-19.36-3-19.29,10.45.07,12.64,16.28,12.44,25.28,12.52,10.11.09,18.87-5,7.94-14.71-3.47-3.09-9.9-5.9-13.93-8.26"/><path class="cls-2" d="M746.16,144c-28,39.2,65,25.79,50.92-1.64-5-9.67-16.2-7.65-26.8-9.67-7.6-1.44-19.37-.69-21.54,4.36-1,2.16-1,4.54-2.58,6.95"/><path class="cls-2" d="M601.89,38.54c9.24.35,18.13-2.61,23.63,6.63,3.67,6.16,7.84,16.22,7.85,23.26,0,16.62-15.3,19.57-26.77,15.95-7.26-2.3-12.09-5.85-17.67-10.32-5.92-4.74-17.45-8.61-21.53-15.48-10.69-18,14-18.48,23.86-19,3.71-.18,6.71-1.18,10.63-1.07"/><path class="cls-2" d="M919,77.79c8.15-7.87,29.65-29.64,12.79-39.64-4.7-2.79-21.22-2.95-26.36.67-4.52,3.19-5.08,9.11-4.19,14.57s4.58,9.19,5.67,14.67-2.54,9.32,1.79,11.75c4.76,2.66,12.17-1.7,12.72-6.06"/><path class="cls-2" d="M1004.53,65.82c17.82-10.51,12.33-39.44-9.52-39.55-14.3-.08-34.92,12.73-29.25,28.41,3.54,9.79,17.88,19.31,27.69,19.64,8.35.28,9.09-6.63,14.31-10.11"/><path class="cls-2" d="M872.2,133a20.88,20.88,0,0,0-8.58-1.82c-1.88,0-3.35,1-5.06,1.9-3.44,1.89-5.61,5-7.18,9.21-2.3,6.1-.22,16.44,6.18,20.12,3.39,1.95,16.64,4.4,17.19-1.26a13.26,13.26,0,0,0-.79-5.41,13.91,13.91,0,0,1-.87-5.64,115.27,115.27,0,0,1,1.33-11.84c.6-3.06.25-3.91-2.22-5.26"/><path class="cls-2" d="M1012.58,148.74c-9.24-.35-18.13,2.6-23.63-6.64-3.66-6.15-7.84-16.21-7.85-23.25,0-16.63,15.3-19.57,26.78-15.95,7.26,2.29,12.08,5.85,17.66,10.31,5.92,4.75,17.45,8.61,21.53,15.49,10.7,18-14,18.47-23.86,19-3.71.19-6.71,1.19-10.63,1.08"/><path class="cls-2" d="M680.43,35.52C667,41,658.3,40.69,656.39,56.33c-1.43,11.72-5,20.52,6.89,29.14,9.82,7.1,31.14,5.73,41.57,1.56s14-11.36,13.52-22.26c-.51-12.88-10.07-22.72-20.18-27.28-4.31-1.94-11.2-5.64-17.76-2"/><path class="cls-2" d="M703.79,118.76c-6.82,9.43-24.6,35.31-5.76,42.36,5.26,2,22-.85,26.51-5.44,4-4,3.5-10.12,1.61-15.48s-6.29-8.45-8.39-13.8.88-9.87-3.93-11.54c-5.29-1.83-12,3.91-11.76,8.42"/><path class="cls-2" d="M633.36,111.31c-15,8.87-10.41,33.3,8,33.4,12.08.06,29.49-10.75,24.7-24-3-8.26-15.1-16.3-23.38-16.57-7.05-.24-7.68,5.59-12.08,8.53"/><path class="cls-2" d="M876.49,36.33c28-39.2-65-25.8-50.92,1.63,5,9.68,16.2,7.65,26.8,9.67,7.6,1.45,19.38.69,21.54-4.35,1-2.17,1-4.55,2.58-7"/><path class="cls-3" d="M230.18,87.94c-7.86-1.06-11.9-3.56-17.06,3.34-3.86,5.17-8,8.37-4.64,15.7,2.73,6,13.22,11.18,19.3,12s9.71-1.6,12.47-6.89c3.25-6.25,1.39-13.52-2.17-18.42-1.52-2.1-3.79-5.73-7.9-5.76"/><path class="cls-3" d="M77.43,51.53c-4.2-1.86-11,4.56-8.18,11.57,1.82,4.6,8.61,8.09,13,4.91,7.16-5.2.9-14.4-4.81-16.48"/><path class="cls-3" d="M160.14,82.72c-4.43-3.3-10.2-3.28-11.32,4-1,6.83,7.72,8.12,12.57,8.94,5.45.92,10.61-1,5.55-7.26-1.6-2-4.83-4-6.8-5.66"/><path class="cls-3" d="M78.22,81.87c-6,1.53-22.12,6-16.84,15.34,1.48,2.6,9.28,7.16,12.69,6.84,3-.29,4.89-2.94,6-5.78s.32-5.6,1.29-8.5,3.74-3.73,2.34-6.06c-1.53-2.55-6.23-2.49-7.68-.58"/><path class="cls-3" d="M227.28,38.05c-1.44-2-6.93-3-10.27-2.31-3.16.65-7.7,2.75-8.47,6.25-.2,3.23,3.72,5.6,7.42,7.93,4.56,2.88,10.57,4,14.65,7.49s7.87,9.2,14.13,9.47c10.28.43,6-9.39,1.69-13.7-5.51-5.55-15.67-8.42-19.15-15.13"/><path class="cls-3" d="M294.9,114.61c-1.44-2-6.93-3-10.28-2.31-3.15.65-7.69,2.75-8.46,6.25-.2,3.24,3.72,5.6,7.42,7.93,4.56,2.88,10.57,4,14.65,7.49s7.87,9.2,14.13,9.47c10.28.44,6-9.39,1.69-13.7-5.51-5.54-15.67-8.42-19.15-15.13"/><path class="cls-3" d="M149.91,102.74c-23.91,11,23.85,29.9,24.61,13.05.27-5.94-5.61-8-10.09-11.86-3.22-2.75-9-5.59-11.41-3.78-1.07.75-1.7,1.89-3.11,2.59"/><path class="cls-3" d="M112.5,94.26c-11.31.15-16.56,15.37-6.23,21.36,6.77,3.92,20,3.44,21.6-5.55,1-5.6-3.24-14-7.81-16.83-3.88-2.4-6.11.68-9.53.91"/><path class="cls-3" d="M156.32,24.52c4.29,2.67,9.31,3.69,9.41,9.57.07,3.91-.68,9.82-2.59,13.16-4.5,7.9-12.58,5.13-17,.3-2.82-3.06-4.14-6.06-5.58-9.69-1.52-3.86-5.94-8.83-6-13.19-.18-11.47,11.66-5,16.47-2.53,1.81.92,3.51,1.26,5.34,2.38"/><path class="cls-3" d="M113.78,157.62c2.42-3.9-3-11.48-10.33-9.71-4.8,1.16-9.2,7.4-6.66,12.18,4.15,7.81,14.13,2.9,17-2.47"/><path class="cls-3" d="M220,132c5.19,1.89,10.71.22,9.7-7.06-.95-6.84-9.72-5.56-14.6-5-5.49.68-9.87,4-3.24,8.55,2.1,1.43,5.79,2.48,8.14,3.47"/><path class="cls-3" d="M189.53,47.28c-.67-6.15-2.88-22.73-12.85-18.8-2.78,1.1-8.38,8.19-8.54,11.62-.13,3,2.23,5.24,4.89,6.69s5.51,1.09,8.24,2.46,3.18,4.22,5.68,3.16c2.75-1.17,3.34-5.83,1.64-7.52"/><path class="cls-3" d="M174.39,136.49c-7.57-25.22-32.92,19.45-16.34,22.55,5.84,1.09,8.73-4.44,13.15-8.35,3.17-2.8,6.79-8.14,5.33-10.76-.59-1.17-1.64-2-2.14-3.44"/><path class="cls-3" d="M58.21,122.54c1.42-11.22-12.92-18.54-20.29-9.14-4.82,6.16-6.19,19.36,2.49,22.16,5.42,1.75,14.33-1.26,17.75-5.39,2.92-3.51.19-6.15.43-9.57"/><path class="cls-3" d="M32.4,109.67c-5,.3-9.72,2.38-13.21-2.36-2.32-3.15-5.13-8.4-5.51-12.23C12.79,86,21,83.62,27.4,85c4.08.86,6.89,2.54,10.16,4.67,3.48,2.26,10,3.75,12.54,7.28,6.78,9.24-6.63,10.8-12,11.59-2,.3-3.59,1-5.73,1.15"/><path class="cls-3" d="M251.23,104c7.87,1.06,11.91,3.56,17.06-3.35,3.86-5.17,8-8.37,4.64-15.7-2.73-6-13.21-11.17-19.3-12s-9.71,1.6-12.46,6.89c-3.26,6.25-1.39,13.52,2.17,18.42,1.52,2.09,3.78,5.72,7.89,5.76"/><path class="cls-3" d="M404,140.44c4.2,1.85,10.95-4.57,8.17-11.58-1.81-4.59-8.6-8.08-13-4.9-7.16,5.2-.91,14.4,4.81,16.48"/><path class="cls-3" d="M321.28,109.25c4.43,3.29,10.19,3.28,11.31-4,1.06-6.83-7.71-8.12-12.56-8.94-5.45-.92-10.62,1-5.56,7.25,1.61,2,4.84,4,6.81,5.67"/><path class="cls-3" d="M403.2,110.09c6-1.52,22.12-6,16.83-15.33-1.47-2.6-9.27-7.17-12.69-6.84-3,.28-4.88,2.94-5.94,5.77s-.33,5.6-1.3,8.5-3.73,3.73-2.33,6.06c1.53,2.56,6.23,2.5,7.67.58"/><path class="cls-3" d="M331.5,89.22c23.92-11-23.84-29.89-24.6-13-.27,5.93,5.61,8,10.09,11.86,3.21,2.75,9,5.59,11.4,3.78,1.07-.75,1.7-1.89,3.11-2.6"/><path class="cls-3" d="M368.92,97.7c11.31-.15,16.56-15.37,6.23-21.35-6.77-3.92-20-3.44-21.6,5.54-1,5.61,3.24,14,7.81,16.83,3.88,2.41,6.11-.67,9.53-.91"/><path class="cls-3" d="M325.1,167.45c-4.29-2.68-9.31-3.69-9.41-9.57-.07-3.92.68-9.82,2.59-13.17,4.5-7.89,12.57-5.12,17-.29,2.82,3.06,4.15,6.05,5.58,9.69,1.53,3.86,5.95,8.82,6,13.19.17,11.46-11.66,5-16.48,2.52-1.81-.92-3.5-1.26-5.33-2.37"/><path class="cls-3" d="M367.64,34.35c-2.42,3.9,3,11.47,10.32,9.7,4.81-1.16,9.2-7.4,6.67-12.17-4.16-7.82-14.14-2.9-17,2.47"/><path class="cls-3" d="M32.66,145.21c-2.42,3.91,3,11.48,10.33,9.71,4.8-1.16,9.2-7.4,6.66-12.17-4.15-7.82-14.13-2.9-17,2.46"/><path class="cls-3" d="M306,115.59c-2.29,3.7,2.84,10.86,9.77,9.19,4.55-1.1,8.71-7,6.31-11.52-3.93-7.4-13.38-2.75-16.08,2.33"/><path class="cls-3" d="M262.44,123.89c-1.95,3.14,2.41,9.24,8.31,7.81,3.87-.93,7.41-6,5.36-9.8-3.34-6.29-11.37-2.33-13.67,2"/><path class="cls-3" d="M261.42,60c-5.19-1.89-10.71-.22-9.69,7.06.94,6.84,9.72,5.56,14.6,5,5.49-.68,9.86-4,3.24-8.54-2.11-1.43-5.79-2.49-8.15-3.47"/><path class="cls-3" d="M291.89,144.68c.67,6.16,2.88,22.74,12.84,18.81,2.78-1.1,8.39-8.19,8.54-11.62.14-3-2.23-5.25-4.89-6.69s-5.5-1.1-8.24-2.46-3.17-4.22-5.67-3.16c-2.75,1.16-3.34,5.82-1.65,7.52"/><path class="cls-3" d="M307,57.55C314.6,82.77,339.94,38.1,323.37,35c-5.84-1.09-8.73,4.44-13.15,8.35-3.17,2.8-6.79,8.14-5.33,10.76.59,1.17,1.63,2,2.13,3.44"/><path class="cls-3" d="M423.21,69.43c-1.43,11.22,12.92,18.54,20.28,9.13,4.82-6.15,6.19-19.35-2.48-22.16-5.42-1.74-14.33,1.27-17.76,5.39-2.92,3.52-.18,6.15-.42,9.57"/><path class="cls-3" d="M449,82.3c5.05-.3,9.73-2.38,13.21,2.35,2.33,3.16,5.13,8.41,5.51,12.24.9,9-7.28,11.46-13.72,10.1-4.07-.86-6.89-2.54-10.16-4.67-3.47-2.27-10-3.76-12.54-7.28-6.78-9.24,6.63-10.8,12-11.59,2-.3,3.58-1,5.72-1.15"/><path class="cls-3" d="M607.52,121.87c1.43-11.22-12.91-18.54-20.28-9.14-4.82,6.16-6.19,19.36,2.49,22.16,5.41,1.75,14.32-1.26,17.75-5.39,2.92-3.51.18-6.15.43-9.57"/><path class="cls-3" d="M743.33,96.47c-4.43-3.29-10.2-3.28-11.32,4-1,6.83,7.72,8.12,12.57,8.94,5.45.93,10.61-1,5.55-7.25-1.61-2-4.83-4-6.8-5.67"/><path class="cls-3" d="M751.47,28.24c-25.59,6.18,17.61,33.94,21.62,17.57,1.41-5.78-4-9-7.61-13.6C762.86,28.89,757.73,25,755,26.3c-1.19.53-2,1.52-3.55,1.94"/><path class="cls-3" d="M818.11,50.63c-2.55-26.21-36.06,12.72-20.4,19,5.52,2.2,9.43-2.67,14.52-5.64,3.65-2.13,8.24-6.67,7.32-9.53-.36-1.26-1.23-2.23-1.44-3.79"/><path class="cls-3" d="M806,127.31c-2.42,3.91,3,11.48,10.33,9.71,4.8-1.16,9.2-7.4,6.66-12.17-4.15-7.82-14.13-2.9-17,2.46"/><path class="cls-3" d="M853.73,98.45c23.92-11-23.84-29.9-24.6-13-.27,5.94,5.61,8,10.09,11.86,3.21,2.75,9,5.59,11.4,3.78,1.07-.75,1.7-1.89,3.11-2.59"/><path class="cls-3" d="M763.52,142.43c-7.87-1.06-11.91-3.55-17.06,3.35-3.86,5.17-8,8.37-4.65,15.7,2.74,6,13.22,11.17,19.3,12s9.71-1.6,12.47-6.89c3.25-6.25,1.39-13.51-2.17-18.42-1.52-2.09-3.78-5.72-7.89-5.76"/><path class="cls-3" d="M791.18,108.91c6.14-.84,22.65-3.5,18.45-13.35-1.17-2.75-8.41-8.16-11.84-8.22-3-.06-5.19,2.37-6.56,5.07s-1,5.53-2.24,8.3-4.13,3.29-3,5.76c1.24,2.71,5.91,3.18,7.56,1.44"/><path class="cls-4" d="M796.09,100.76c-.81-1.62-2.51-2.47-3.9-.5s1.06,3.52,2.37,4.48c1.46,1.07,3.27,1.25,2.7-1.32a17.34,17.34,0,0,0-1.17-2.66"/><path class="cls-3" d="M623,60.63c-4.2-1.86-11,4.56-8.17,11.58,1.81,4.59,8.6,8.08,13,4.9,7.16-5.2.91-14.4-4.81-16.48"/><path class="cls-3" d="M586.84,88.08c-5.05.3-9.72,2.38-13.21-2.36-2.32-3.15-5.13-8.4-5.51-12.23-.9-9,7.29-11.46,13.72-10.1,4.07.86,6.89,2.53,10.16,4.67,3.48,2.26,10,3.75,12.54,7.28,6.78,9.24-6.63,10.79-12,11.58-2,.3-3.59,1-5.73,1.16"/><path class="cls-3" d="M621.06,56.27c-2.42,3.9,3,11.48,10.32,9.71,4.8-1.16,9.2-7.4,6.66-12.18-4.15-7.81-14.13-2.9-17,2.47"/><path class="cls-3" d="M892.76,57c-2.29,3.69,2.83,10.86,9.77,9.18,4.54-1.09,8.71-7,6.3-11.52C904.91,47.3,895.46,52,892.76,57"/><path class="cls-3" d="M856.23,135.13c-3.46-1.3-8.59,4.16-6,9.67,1.66,3.61,7.28,6.11,10.65,3.36,5.52-4.51.08-11.62-4.61-13"/><path class="cls-3" d="M864.6,148.8c0,6.19.38,22.91,10.71,20.09,2.89-.79,9.23-7.22,9.76-10.61.47-3-1.64-5.46-4.13-7.19s-5.35-1.69-7.92-3.34-2.7-4.54-5.3-3.76c-2.85.85-4,5.42-2.46,7.29"/><path class="cls-3" d="M703.53,33c4.29,2.68,9.31,3.69,9.41,9.57.07,3.92-.68,9.82-2.59,13.17-4.5,7.89-12.57,5.13-17,.29-2.82-3.06-4.15-6.05-5.58-9.69-1.53-3.86-6-8.82-6-13.19-.17-11.46,11.66-5,16.48-2.52,1.81.92,3.5,1.26,5.33,2.37"/><path class="cls-3" d="M694.24,84.28c-.67-6.16-2.88-22.74-12.85-18.8-2.78,1.1-8.38,8.18-8.53,11.61-.14,3,2.23,5.25,4.89,6.69s5.5,1.1,8.24,2.47,3.17,4.21,5.67,3.15c2.75-1.16,3.34-5.82,1.65-7.52"/><path class="cls-3" d="M653.26,60.76c-5.08,2.15-8,7.14-2.29,11.78C656.33,76.9,661.88,70,665,66.22c3.55-4.24,4.46-9.68-3.45-8.46-2.51.39-5.93,2.12-8.33,3"/><path class="cls-3" d="M644.87,107.79c-6,1.52-22.12,6-16.83,15.34,1.47,2.6,9.27,7.16,12.69,6.84,3-.29,4.88-2.94,5.94-5.78s.32-5.6,1.29-8.5,3.74-3.73,2.34-6.06c-1.53-2.56-6.23-2.5-7.68-.58"/><path class="cls-3" d="M686.6,138.1c-11.42,2.11-14.1,18.42-2.6,22.69,7.52,2.79,20.86,0,20.89-9.35,0-5.84-5.71-13.62-10.81-15.68-4.35-1.76-6.07,1.74-9.49,2.57"/><path class="cls-3" d="M730.18,143.43c1.74-4.39-5.1-11.06-12.19-8-4.64,2-8,9.14-4.53,13.51,5.61,7.15,14.8.37,16.72-5.56"/><path class="cls-3" d="M830.64,40.42C838.21,65.63,863.56,21,847,17.87c-5.84-1.09-8.73,4.44-13.15,8.34C830.66,29,827,34.35,828.5,37c.59,1.16,1.63,2,2.14,3.44"/><path class="cls-3" d="M871.7,5.91c-1.44-2-6.93-3-10.28-2.31-3.15.65-7.69,2.75-8.46,6.25-.2,3.23,3.72,5.6,7.41,7.93,4.57,2.88,10.58,4,14.66,7.49s7.87,9.2,14.12,9.47c10.29.43,6-9.39,1.7-13.7-5.51-5.55-15.67-8.42-19.15-15.13"/><path class="cls-3" d="M958.9,125.58c5.2,1.85,10.71.14,9.65-7.13-1-6.84-9.76-5.49-14.64-4.85-5.48.72-9.84,4.12-3.18,8.57,2.12,1.41,5.81,2.44,8.17,3.41"/><path class="cls-3" d="M909.25,150.92c7.87,1.06,11.91,3.55,17.06-3.35,3.86-5.17,8-8.37,4.64-15.7-2.73-6-13.21-11.17-19.3-12s-9.71,1.6-12.46,6.89c-3.26,6.25-1.39,13.51,2.17,18.42,1.52,2.09,3.78,5.72,7.89,5.76"/><path class="cls-3" d="M932.36,112.63c4.43,3.3,10.2,3.29,11.32-4,1.05-6.83-7.72-8.12-12.57-8.94-5.45-.92-10.61,1.05-5.55,7.26,1.61,2,4.83,4,6.8,5.66"/><path class="cls-3" d="M942.31,162.32c11.31-.15,16.56-15.37,6.23-21.35-6.77-3.92-20-3.44-21.6,5.54-1,5.61,3.24,14,7.81,16.83,3.88,2.4,6.11-.67,9.53-.91"/><path class="cls-3" d="M995.23,63.48c-1.43,11.21,12.91,18.53,20.28,9.13,4.82-6.16,6.19-19.36-2.49-22.16-5.41-1.74-14.32,1.26-17.75,5.39-2.92,3.52-.18,6.15-.43,9.57"/><path class="cls-3" d="M961.92,37.42c1.39-4.86,1-10,6.61-11.68,3.74-1.14,9.63-2,13.37-1.14,8.83,2.16,8.39,10.68,5,16.3-2.16,3.56-4.68,5.66-7.78,8-3.29,2.53-6.84,8.15-11,9.42-11,3.32-8-9.85-7-15.15.38-2,.24-3.71.81-5.78"/><path class="cls-3" d="M1026.74,150.83c4.2,1.86,11-4.56,8.18-11.57-1.82-4.6-8.61-8.09-13-4.91-7.16,5.2-.9,14.4,4.81,16.48"/><path class="cls-3" d="M1008.51,156.47c-4.29-2.68-9.31-3.69-9.41-9.57-.07-3.92.68-9.82,2.59-13.17,4.5-7.89,12.57-5.13,17-.29,2.82,3.06,4.15,6.05,5.58,9.69,1.53,3.86,6,8.82,6,13.19.17,11.46-11.66,5-16.48,2.52-1.81-.92-3.5-1.26-5.33-2.37"/><path class="cls-3" d="M1024.61,98c-1.43-2-6.93-3-10.27-2.31-3.16.66-7.69,2.76-8.47,6.25-.2,3.24,3.72,5.61,7.42,7.94,4.56,2.87,10.57,4,14.65,7.48s7.87,9.2,14.13,9.47c10.28.44,6-9.38,1.69-13.7-5.51-5.54-15.67-8.42-19.15-15.13"/><path class="cls-4" d="M133.47,99.63c1.76-1.93,3.19-2.55,2.29-5.24-.67-2-.77-3.71-3.37-4.19-2.14-.39-5.49,1.48-6.86,3a3.6,3.6,0,0,0-.47,4.65,5.85,5.85,0,0,0,5.38,2.86c.85,0,2.25,0,3-1.05"/><path class="cls-4" d="M120.62,123.81c1.28-.79.81-3.81-1.6-4.38-1.58-.36-3.79.82-3.76,2.59.07,2.91,3.73,2.94,5.36,1.79"/><path class="cls-4" d="M98.38,107.65c1.28-.79.81-3.81-1.6-4.38-1.58-.37-3.8.82-3.76,2.59.07,2.91,3.72,2.94,5.36,1.79"/><path class="cls-4" d="M153.65,139.44c.93-.57.59-2.75-1.16-3.16-1.14-.26-2.73.59-2.71,1.87.05,2.1,2.69,2.12,3.87,1.29"/><path class="cls-4" d="M134.4,109.22c1.29-.79.81-3.81-1.6-4.38-1.58-.37-3.79.82-3.75,2.59.06,2.91,3.72,2.94,5.35,1.79"/><path class="cls-4" d="M99.41,93.72c1.29-.79.82-3.81-1.6-4.37-1.58-.37-3.79.81-3.75,2.59.07,2.9,3.72,2.93,5.35,1.78"/><path class="cls-4" d="M64.74,116.6c1.29-.79.81-3.81-1.6-4.38-1.58-.36-3.79.82-3.75,2.6.06,2.9,3.72,2.93,5.35,1.78"/><path class="cls-4" d="M31.38,126.12c1.29-.79.81-3.81-1.6-4.37-1.58-.37-3.79.81-3.75,2.59.06,2.91,3.72,2.94,5.35,1.78"/><path class="cls-4" d="M73.34,80.61c1.41-1.15,1.86-3-.36-3.92S69.77,78.5,69.13,80c-.73,1.66-.52,3.47,1.87,2.35a16.74,16.74,0,0,0,2.34-1.72"/><path class="cls-4" d="M179.5,132.92c0-1.82-1.09-3.35-3.24-2.25s-.68,3.62,0,5.07c.81,1.63,2.32,2.62,3,.08a16.51,16.51,0,0,0,.2-2.9"/><path class="cls-4" d="M113.62,121.58c0-1.81-1.09-3.35-3.24-2.25s-.67,3.62,0,5.07c.81,1.63,2.33,2.62,3,.08a16.44,16.44,0,0,0,.2-2.9"/><path class="cls-4" d="M85.48,50.23c-.8-1.64-2.48-2.5-3.91-.56s1,3.54,2.31,4.51c1.45,1.1,3.26,1.31,2.72-1.27a17.86,17.86,0,0,0-1.12-2.68"/><path class="cls-4" d="M155.56,61.29c.72-1.9,2.51-7.1-1-7.41-1-.09-3.67,1.16-4.22,2.15a2.55,2.55,0,0,0,.44,2.68c.58.83,1.46,1.14,2.06,1.94s.31,1.71,1.2,1.77a1.73,1.73,0,0,0,1.59-2"/><path class="cls-4" d="M146.34,101.59c.81,0,2.11-1.31,2.55-2.34s.69-2.59-.11-3.46c-.84-.65-2.21,0-3.53.52-1.63.7-3.07,2.1-4.76,2.56s-4,.41-5.2,2c-2,2.69,1.41,3.37,3.38,3,2.53-.46,5.21-2.66,7.67-2.35"/><path class="cls-4" d="M146.41,89.67c1.5-8.52-12.53.85-8.13,4.2,1.56,1.19,3.22,0,5.1-.5,1.34-.35,3.19-1.39,3.15-2.37a7.73,7.73,0,0,1-.12-1.33"/><path class="cls-4" d="M92.19,92c2.08-3.08-1-7.34-4.6-5.67-2.33,1.09-4.68,4.77-2.54,6.87a6.47,6.47,0,0,0,6,1c1.38-.6,1-1.78,1.54-2.75"/><path class="cls-4" d="M84.35,76.18c2.07-3.08-1.06-7.35-4.61-5.67-2.32,1.09-4.67,4.76-2.54,6.87a6.49,6.49,0,0,0,6,1c1.37-.6,1-1.78,1.53-2.75"/><path class="cls-4" d="M94.15,102.74c-1.53.66-2.74,1.83-4.35.76a9.87,9.87,0,0,1-3.07-3.17c-1.29-2.69,1-4.35,3.11-4.65a9.33,9.33,0,0,1,3.66.3c1.33.31,3.5,0,4.69.84,3.13,2.1-.84,4.08-2.4,4.93-.59.31-1,.71-1.64,1"/><path class="cls-4" d="M30.26,118.62c-1.53.65-2.74,1.82-4.35.75a9.84,9.84,0,0,1-3.07-3.16c-1.29-2.7,1-4.36,3.11-4.66a9.33,9.33,0,0,1,3.66.3c1.33.31,3.49.05,4.69.85,3.13,2.09-.84,4.08-2.4,4.92-.59.32-1,.71-1.64,1"/><path class="cls-4" d="M56.43,151.08c-1.6-.45-3.28-.31-3.84-2.16a9.69,9.69,0,0,1-.38-4.39c.7-2.91,3.5-2.77,5.35-1.65a9.22,9.22,0,0,1,2.64,2.56c.83,1.08,2.68,2.24,3.1,3.62,1.1,3.6-3.23,2.62-5,2.29-.66-.13-1.22-.08-1.9-.27"/><path class="cls-4" d="M160.17,130.36c-1.53.66-2.74,1.83-4.35.76a9.77,9.77,0,0,1-3.07-3.17c-1.29-2.69,1-4.35,3.1-4.65a9.18,9.18,0,0,1,3.67.3c1.32.31,3.49,0,4.68.84,3.13,2.1-.83,4.08-2.4,4.92a18.63,18.63,0,0,1-1.63,1"/><path class="cls-4" d="M187.57,89.78c1.9,1.79,2.49,3.23,5.19,2.39,2-.64,3.73-.7,4.26-3.29.43-2.13-1.37-5.52-2.83-6.92a3.62,3.62,0,0,0-4.64-.56,5.87,5.87,0,0,0-3,5.32c0,.85-.09,2.25,1,3.06"/><path class="cls-4" d="M180.54,90.52c.76,1.3,3.79.89,4.4-1.51.4-1.57-.73-3.81-2.51-3.8-2.91,0-3,3.66-1.89,5.31"/><path class="cls-4" d="M213.59,88.2c1.64-.76,2.55-2.43.63-3.89s-3.56.94-4.56,2.21c-1.12,1.43-1.36,3.23,1.22,2.75a17.34,17.34,0,0,0,2.71-1.07"/><path class="cls-4" d="M61.31,108.78c1.9.75,7,2.65,7.44-.85.11-1-1.09-3.69-2.07-4.26a2.56,2.56,0,0,0-2.69.39c-.84.56-1.16,1.43-2,2s-1.71.27-1.79,1.16a1.74,1.74,0,0,0,1.93,1.64"/><path class="cls-4" d="M51.88,139.45c1.89.75,7,2.65,7.43-.85.11-1-1.09-3.69-2.06-4.26a2.55,2.55,0,0,0-2.7.39c-.84.56-1.16,1.43-2,2s-1.71.27-1.79,1.16a1.73,1.73,0,0,0,1.94,1.63"/><path class="cls-4" d="M172.65,126.6c1.9.75,7,2.65,7.44-.85.11-1-1.09-3.69-2.06-4.26a2.55,2.55,0,0,0-2.7.39c-.84.56-1.16,1.43-2,2s-1.71.27-1.79,1.16a1.72,1.72,0,0,0,1.93,1.63"/><path class="cls-4" d="M144.53,157.26c1.89.75,7,2.65,7.43-.85.11-1-1.09-3.69-2.06-4.26a2.57,2.57,0,0,0-2.7.39c-.84.56-1.16,1.43-2,2s-1.71.27-1.79,1.16a1.74,1.74,0,0,0,1.94,1.64"/><path class="cls-4" d="M343.24,154.5c.22,2,.93,7.47,4.21,6.19.91-.36,2.76-2.68,2.81-3.81a2.53,2.53,0,0,0-1.6-2.2c-.88-.49-1.81-.37-2.7-.82s-1-1.39-1.87-1a1.73,1.73,0,0,0-.54,2.47"/><path class="cls-4" d="M147.19,131.06c0,.81,1.26,2.13,2.29,2.59s2.57.75,3.45,0c.68-.82.09-2.2-.44-3.54-.67-1.64-2-3.11-2.46-4.81s-.33-4-1.94-5.24c-2.66-2.1-3.4,1.35-3.09,3.32.4,2.54,2.55,5.26,2.19,7.72"/><path class="cls-4" d="M111.89,129.34c-.36.22-.36,1.15-.1,1.73a2.71,2.71,0,0,0,1.58,1.51c.66.07,1-.57,1.34-1.18s.44-1.76,1-2.42,1.58-1.24,1.41-2.31c-.28-1.75-2.12-1.12-2.84-.44-.92.89-1.14,2.59-2.37,3.11"/><path class="cls-4" d="M259.5,116.49c-.78.21-1.72,1.79-1.89,2.9s0,2.69,1,3.32c1,.43,2.15-.5,3.29-1.37,1.41-1.08,2.46-2.8,4-3.66s3.74-1.38,4.54-3.27c1.31-3.12-2.21-2.92-4-2.09-2.34,1.06-4.38,3.87-6.85,4.17"/><path class="cls-4" d="M192.84,47.74c-.78.21-1.72,1.79-1.89,2.9s0,2.69,1,3.32c1,.43,2.15-.5,3.29-1.37,1.41-1.08,2.46-2.8,4-3.66s3.74-1.38,4.53-3.27c1.31-3.12-2.2-2.92-4-2.09-2.34,1.06-4.39,3.87-6.85,4.17"/><path class="cls-4" d="M56.61,102c8.49,1.67-.59-12.55-4-8.21-1.21,1.53,0,3.22.41,5.1.32,1.35,1.32,3.23,2.31,3.21a6.81,6.81,0,0,1,1.32-.1"/><path class="cls-4" d="M32.6,138.07c8.49,1.67-.59-12.55-4-8.22-1.21,1.53,0,3.22.41,5.11.32,1.35,1.32,3.22,2.31,3.2a6.13,6.13,0,0,1,1.32-.09"/><path class="cls-4" d="M172.73,90.24c3,2.14,7.37-.9,5.77-4.48-1.05-2.35-4.68-4.78-6.82-2.68a6.43,6.43,0,0,0-1.16,6c.57,1.39,1.75,1,2.71,1.59"/><path class="cls-4" d="M200.6,90.48c-.63-1.54-1.77-2.78-.67-4.36a9.66,9.66,0,0,1,3.23-3c2.71-1.24,4.33,1,4.59,3.2a9.25,9.25,0,0,1-.38,3.65c-.34,1.32-.11,3.5-.94,4.67-2.16,3.09-4.06-.92-4.87-2.49-.3-.6-.69-1-1-1.66"/><path class="cls-4" d="M64.9,43.84c-1.5,2.13-2.84,2.93-1.61,5.48.93,1.91,1.24,3.59,3.88,3.73,2.17.12,5.26-2.16,6.43-3.81a3.62,3.62,0,0,0-.12-4.67,5.86,5.86,0,0,0-5.7-2.16c-.85.13-2.25.24-2.88,1.43"/><path class="cls-4" d="M176.54,115.76c-1.18.94-.33,3.88,2.14,4.13,1.61.17,3.66-1.28,3.39-3-.43-2.88-4.06-2.44-5.53-1.09"/><path class="cls-4" d="M164.58,48c-1.17,1-.32,3.89,2.14,4.14,1.62.17,3.66-1.29,3.4-3-.43-2.88-4.06-2.45-5.54-1.1"/><path class="cls-4" d="M53.78,109c1,1.52,2.78,2.17,3.94.06s-1.45-3.38-2.86-4.18c-1.57-.9-3.39-.88-2.53,1.61A17,17,0,0,0,53.78,109"/><path class="cls-4" d="M22.07,130.44c1,1.52,2.77,2.17,3.94.05s-1.46-3.38-2.87-4.18c-1.57-.9-3.39-.88-2.53,1.61a16.81,16.81,0,0,0,1.46,2.52"/><path class="cls-4" d="M206.15,111.77c-.47,2-1.6,7.36,1.92,7.23a6.75,6.75,0,0,0,3.92-2.66,2.55,2.55,0,0,0-.79-2.61c-.67-.75-1.58-.94-2.28-1.67s-.53-1.65-1.41-1.6a1.74,1.74,0,0,0-1.34,2.16"/><path class="cls-4" d="M182.76,123.19c-1.66,3.32,2,7.15,5.29,5.05,2.17-1.38,4-5.32,1.65-7.14a6.46,6.46,0,0,0-6.09-.27c-1.29.77-.73,1.88-1.18,2.92"/><path class="cls-4" d="M196.68,122.08c1.43-.85,2.48-2.16,4.21-1.3a9.74,9.74,0,0,1,3.45,2.75c1.62,2.51-.41,4.45-2.49,5a9.33,9.33,0,0,1-3.67.17c-1.36-.14-3.48.39-4.76-.25-3.37-1.68.32-4.15,1.76-5.18.54-.39.9-.84,1.5-1.2"/><path class="cls-4" d="M347.94,92.34c-1.76,1.93-3.18,2.55-2.28,5.23.67,2,.77,3.72,3.37,4.19,2.14.39,5.49-1.48,6.86-3a3.64,3.64,0,0,0,.47-4.66A5.87,5.87,0,0,0,351,91.28c-.84,0-2.25,0-3,1.06"/><path class="cls-4" d="M361.84,68.16c-1.29.79-.82,3.81,1.59,4.37,1.59.37,3.8-.81,3.76-2.59-.07-2.9-3.72-2.93-5.35-1.78"/><path class="cls-4" d="M346.08,82c-1.29.79-.82,3.81,1.59,4.37,1.58.37,3.8-.81,3.76-2.59-.07-2.91-3.72-2.93-5.35-1.78"/><path class="cls-4" d="M382,98.25c-1.28.78-.81,3.81,1.6,4.37,1.58.37,3.8-.81,3.76-2.59-.07-2.91-3.73-2.94-5.36-1.78"/><path class="cls-4" d="M416.68,75.37c-1.29.79-.82,3.81,1.6,4.37,1.58.37,3.79-.81,3.75-2.59-.07-2.91-3.72-2.94-5.35-1.78"/><path class="cls-4" d="M407,113.43c-1.41,1.15-1.86,3,.36,3.92s3.21-1.81,3.85-3.29c.73-1.66.52-3.47-1.87-2.35a17.58,17.58,0,0,0-2.34,1.72"/><path class="cls-4" d="M365.35,62.14c-1.41,1.15-1.86,3,.36,3.92s3.21-1.81,3.86-3.29c.72-1.66.51-3.47-1.87-2.35a17,17,0,0,0-2.35,1.72"/><path class="cls-4" d="M395.94,141.74c.79,1.63,2.48,2.5,3.9.55s-1-3.53-2.31-4.51c-1.45-1.09-3.25-1.3-2.72,1.28a17.33,17.33,0,0,0,1.13,2.68"/><path class="cls-4" d="M325.51,123.38c-1.52,1-2.18,2.76-.08,3.94s3.39-1.44,4.2-2.84c.91-1.57.9-3.39-1.59-2.54a16.77,16.77,0,0,0-2.53,1.44"/><path class="cls-5" d="M317.94,131.08c.79,1.63,2.48,2.5,3.9.55s-1-3.54-2.31-4.51c-1.45-1.1-3.25-1.3-2.71,1.27a17.38,17.38,0,0,0,1.12,2.69"/><path class="cls-4" d="M325.85,130.67c-.71,1.91-2.51,7.1,1,7.42a6.72,6.72,0,0,0,4.22-2.15,2.55,2.55,0,0,0-.45-2.69c-.58-.82-1.45-1.13-2.05-1.93s-.31-1.71-1.2-1.77a1.74,1.74,0,0,0-1.6,2"/><path class="cls-4" d="M255.39,108.22c-.72,1.91-2.52,7.1,1,7.41,1,.09,3.67-1.16,4.22-2.15a2.53,2.53,0,0,0-.45-2.68c-.57-.83-1.45-1.14-2-1.94s-.31-1.71-1.2-1.77a1.73,1.73,0,0,0-1.59,2"/><path class="cls-4" d="M335.08,90.37c-.82,0-2.11,1.31-2.55,2.35s-.7,2.59.1,3.45c.84.66,2.21,0,3.53-.52,1.64-.69,3.08-2.1,4.77-2.55s4-.41,5.2-2c2-2.7-1.42-3.37-3.39-3-2.52.45-5.2,2.66-7.66,2.34"/><path class="cls-4" d="M335,102.3c-1.5,8.52,12.54-.85,8.13-4.21-1.55-1.18-3.22,0-5.09.51-1.35.35-3.2,1.39-3.16,2.37a6.09,6.09,0,0,1,.12,1.33"/><path class="cls-4" d="M389.22,99.94c-2.07,3.09,1.06,7.35,4.61,5.68,2.32-1.1,4.68-4.77,2.54-6.87a6.43,6.43,0,0,0-6-1c-1.37.6-1,1.77-1.53,2.74"/><path class="cls-4" d="M397.07,115.78c-2.07,3.09,1.05,7.35,4.6,5.68,2.33-1.09,4.68-4.77,2.55-6.87a6.5,6.5,0,0,0-6-1c-1.38.6-1,1.78-1.54,2.75"/><path class="cls-4" d="M387.27,88.19c1.52-.66,2.73-1.83,4.34-.76a9.77,9.77,0,0,1,3.07,3.17c1.29,2.69-1,4.35-3.1,4.65a9.31,9.31,0,0,1-3.66-.3c-1.33-.31-3.5,0-4.69-.84-3.13-2.1.84-4.08,2.4-4.93.58-.31,1-.71,1.64-1"/><path class="cls-4" d="M450.09,73.35c1.24-1.1,2-2.59,3.89-2.08a9.77,9.77,0,0,1,3.91,2c2.07,2.15.45,4.44-1.49,5.4a9.44,9.44,0,0,1-3.57.86c-1.36.12-3.33,1.05-4.72.67-3.63-1-.48-4.14.74-5.43.45-.48.72-1,1.24-1.46"/><path class="cls-4" d="M293.84,102.19c-1.89-1.8-2.48-3.24-5.19-2.39-2,.63-3.73.7-4.25,3.29-.44,2.13,1.37,5.52,2.82,6.91a3.62,3.62,0,0,0,4.65.57,5.86,5.86,0,0,0,3-5.33c0-.85.1-2.25-1-3"/><path class="cls-4" d="M252,108.92c-1.89-1.79-2.49-3.23-5.19-2.39-2,.64-3.73.7-4.26,3.29-.43,2.13,1.37,5.52,2.83,6.92a3.62,3.62,0,0,0,4.64.56,5.87,5.87,0,0,0,3-5.32c0-.85.1-2.25-1-3.06"/><path class="cls-4" d="M300.88,101.45c-.76-1.31-3.8-.9-4.41,1.5-.4,1.58.74,3.81,2.52,3.81,2.91,0,3-3.66,1.89-5.31"/><path class="cls-4" d="M308.8,105.06c-.76-1.3-3.79-.89-4.4,1.51-.4,1.57.73,3.81,2.51,3.8,2.91,0,3-3.66,1.89-5.31"/><path class="cls-4" d="M329.05,113.35c-.76-1.31-3.79-.9-4.4,1.51-.4,1.57.74,3.8,2.51,3.8,2.91,0,3-3.66,1.89-5.31"/><path class="cls-4" d="M326.67,62.94c-.76-1.3-3.8-.89-4.41,1.51-.4,1.58.74,3.81,2.52,3.81,2.9,0,3-3.66,1.89-5.32"/><path class="cls-4" d="M267.83,103.77c-1.65.76-2.55,2.42-.63,3.89s3.55-1,4.55-2.22c1.13-1.42,1.37-3.22-1.22-2.74a17.23,17.23,0,0,0-2.7,1.07"/><path class="cls-4" d="M420.1,83.19c-1.89-.75-7-2.66-7.43.84a6.75,6.75,0,0,0,2.06,4.27,2.57,2.57,0,0,0,2.7-.4c.84-.56,1.16-1.43,2-2s1.71-.28,1.79-1.17a1.74,1.74,0,0,0-1.94-1.63"/><path class="cls-4" d="M308.76,65.37c-1.89-.75-7-2.65-7.43.84-.11,1,1.09,3.7,2.06,4.27a2.57,2.57,0,0,0,2.7-.39c.84-.56,1.16-1.43,2-2s1.71-.28,1.79-1.16a1.74,1.74,0,0,0-1.94-1.64"/><path class="cls-4" d="M333.19,60.91c0-.81-1.26-2.13-2.29-2.59s-2.58-.75-3.46,0c-.67.83-.08,2.21.45,3.54.66,1.65,2,3.12,2.46,4.82s.33,4,1.94,5.24c2.66,2.09,3.4-1.35,3.09-3.32-.4-2.54-2.55-5.26-2.19-7.72"/><path class="cls-4" d="M424.8,89.93c-8.49-1.67.6,12.55,4,8.22,1.22-1.53.05-3.22-.4-5.11-.33-1.35-1.32-3.22-2.31-3.2a7,7,0,0,1-1.33.09"/><path class="cls-4" d="M302.16,109.58c-3-2.13-7.37.91-5.77,4.49,1.05,2.35,4.67,4.78,6.82,2.68a6.46,6.46,0,0,0,1.16-6c-.57-1.39-1.76-1-2.72-1.59"/><path class="cls-4" d="M242,150.61c-1.89-1.8-2.49-3.24-5.19-2.39-2,.63-3.73.7-4.26,3.29-.43,2.13,1.37,5.51,2.83,6.91A3.61,3.61,0,0,0,240,159a5.87,5.87,0,0,0,3-5.33c0-.85.1-2.25-1-3"/><path class="cls-4" d="M249,150.9c-.77-1.3-3.8-.89-4.41,1.51-.4,1.57.74,3.81,2.51,3.81,2.91,0,3-3.67,1.9-5.32"/><path class="cls-4" d="M255.9,154.51c-.76-1.3-3.79-.89-4.4,1.51-.41,1.58.73,3.81,2.51,3.81,2.91,0,3-3.66,1.89-5.32"/><path class="cls-4" d="M262.63,148.08c-3-2.14-7.37.9-5.77,4.48,1.05,2.35,4.67,4.78,6.82,2.69a6.48,6.48,0,0,0,1.16-6c-.57-1.39-1.76-1-2.71-1.59"/><path class="cls-4" d="M280.82,101.49c.63,1.54,1.77,2.77.66,4.36a9.73,9.73,0,0,1-3.22,3c-2.72,1.23-4.34-1.06-4.59-3.2A9.32,9.32,0,0,1,274,102c.34-1.32.12-3.49.94-4.67,2.16-3.09,4.06.92,4.87,2.5a19,19,0,0,1,1,1.66"/><path class="cls-4" d="M441.58,45.49c-1.89-1.8-2.48-3.24-5.18-2.4-2,.64-3.74.7-4.26,3.29-.44,2.13,1.37,5.52,2.82,6.92a3.63,3.63,0,0,0,4.65.56,5.87,5.87,0,0,0,3-5.32c0-.85.09-2.25-1-3"/><path class="cls-4" d="M429.6,48.93c.62,1.54,1.77,2.78.66,4.36a9.63,9.63,0,0,1-3.22,3c-2.72,1.24-4.34-1-4.6-3.2a9.32,9.32,0,0,1,.38-3.66c.34-1.32.12-3.49.94-4.67,2.16-3.08,4.06.93,4.87,2.5.31.6.69,1,1,1.66"/><path class="cls-4" d="M208.11,55.51c-1.65-.17-3.27.26-4.16-1.46a9.78,9.78,0,0,1-1.14-4.25c.18-3,3-3.34,5-2.56a9.21,9.21,0,0,1,3.05,2c1,.91,3,1.74,3.68,3,1.72,3.35-2.71,3.15-4.49,3.13-.66,0-1.21.13-1.92.07"/><path class="cls-4" d="M416.51,148.13c1.51-2.14,2.84-2.94,1.61-5.48-.92-1.91-1.23-3.59-3.87-3.74-2.18-.11-5.26,2.17-6.43,3.81a3.62,3.62,0,0,0,.12,4.68,5.87,5.87,0,0,0,5.7,2.16c.84-.13,2.24-.24,2.87-1.43"/><path class="cls-4" d="M304.88,76.21c1.17-.95.32-3.89-2.14-4.14-1.62-.16-3.66,1.29-3.4,3.05.43,2.87,4.06,2.44,5.54,1.09"/><path class="cls-4" d="M427.63,83c-1-1.52-2.77-2.17-3.94,0s1.46,3.38,2.86,4.18c1.58.9,3.39.88,2.54-1.61A16.81,16.81,0,0,0,427.63,83"/><path class="cls-4" d="M428.88,38.63c-1-1.52-2.77-2.17-3.94-.06s1.46,3.38,2.86,4.18c1.58.91,3.39.88,2.53-1.6a17.12,17.12,0,0,0-1.45-2.52"/><path class="cls-4" d="M275.27,80.2c.47-2,1.59-7.36-1.93-7.23-1,0-3.49,1.61-3.91,2.66a2.57,2.57,0,0,0,.78,2.61c.68.75,1.59.94,2.29,1.66s.52,1.66,1.41,1.6a1.73,1.73,0,0,0,1.33-2.15"/><path class="cls-4" d="M298.65,68.78c1.67-3.32-2-7.16-5.28-5.05-2.17,1.38-4,5.32-1.66,7.14a6.49,6.49,0,0,0,6.09.27c1.29-.77.73-1.89,1.18-2.92"/><path class="cls-4" d="M284.74,69.89c-1.43.84-2.49,2.15-4.22,1.29a9.78,9.78,0,0,1-3.45-2.74c-1.62-2.51.41-4.45,2.5-5a9.31,9.31,0,0,1,3.67-.16c1.35.14,3.47-.4,4.75.24,3.38,1.69-.31,4.16-1.75,5.19-.54.39-.9.83-1.5,1.2"/><path class="cls-4" d="M89.13,43.66c1.67-3.32-2-7.15-5.28-5-2.17,1.38-4,5.32-1.66,7.13a6.43,6.43,0,0,0,6.09.27c1.29-.76.73-1.88,1.18-2.91"/><path class="cls-4" d="M332.76,43.29c-1.17.69-2,1.76-3.43,1.05a7.79,7.79,0,0,1-2.8-2.23c-1.32-2,.33-3.62,2-4.08a7.57,7.57,0,0,1,3-.13c1.1.12,2.82-.32,3.87.2,2.74,1.37-.26,3.38-1.43,4.22-.44.31-.73.67-1.22,1"/><path class="cls-4" d="M595.43,116.83c1.28-.79.81-3.81-1.6-4.37-1.58-.37-3.79.81-3.75,2.59.06,2.91,3.72,2.94,5.35,1.78"/><path class="cls-4" d="M595.5,130.18c1.9.75,7,2.65,7.44-.85.11-1-1.09-3.69-2.07-4.26a2.54,2.54,0,0,0-2.69.39c-.84.56-1.16,1.43-2,2s-1.71.27-1.79,1.16a1.73,1.73,0,0,0,1.93,1.63"/><path class="cls-4" d="M762.52,104.55c1.89,1.8,2.48,3.24,5.18,2.39,2-.63,3.73-.69,4.26-3.28.43-2.14-1.37-5.52-2.82-6.92a3.63,3.63,0,0,0-4.65-.56,5.86,5.86,0,0,0-3,5.32c0,.85-.09,2.25,1,3"/><path class="cls-4" d="M736.13,110.62c3,2.14,7.37-.9,5.77-4.49-1-2.34-4.67-4.77-6.82-2.68a6.48,6.48,0,0,0-1.16,6c.57,1.38,1.76,1,2.71,1.59"/><path class="cls-4" d="M745.65,96.82c-1.18.94-.33,3.88,2.14,4.14,1.61.16,3.66-1.29,3.39-3-.43-2.87-4.06-2.44-5.53-1.09"/><path class="cls-4" d="M756.05,106.25c-1.67,3.32,2,7.16,5.28,5,2.17-1.38,4-5.32,1.65-7.14a6.48,6.48,0,0,0-6.09-.27c-1.28.77-.73,1.88-1.17,2.92"/><path class="cls-4" d="M761.1,42c1.42-.53,1.54-3.59-.72-4.6-1.48-.67-3.88.06-4.18,1.81-.5,2.87,3.08,3.6,4.9,2.79"/><path class="cls-4" d="M735.72,62.52c1.89.75,7,2.66,7.44-.84.1-1-1.1-3.7-2.07-4.27a2.54,2.54,0,0,0-2.69.4c-.84.55-1.17,1.42-2,2s-1.72.28-1.79,1.16a1.73,1.73,0,0,0,1.93,1.64"/><path class="cls-4" d="M753,56.16c-.81.06-2,1.43-2.41,2.48s-.55,2.63.3,3.45c.87.61,2.21-.08,3.49-.72,1.59-.78,2.95-2.27,4.62-2.82s3.93-.62,5.07-2.33c1.89-2.81-1.6-3.29-3.54-2.83-2.5.59-5,3-7.53,2.77"/><path class="cls-4" d="M785.05,58.3c-.32-1.63-1.2-3.06.19-4.41A9.72,9.72,0,0,1,789,51.57c2.91-.69,4,1.87,3.89,4a9.28,9.28,0,0,1-1.08,3.52c-.58,1.23-.79,3.4-1.82,4.4-2.72,2.61-3.81-1.69-4.3-3.4-.18-.64-.48-1.12-.62-1.81"/><path class="cls-4" d="M801.16,62c-.71,1.9-2.51,7.1,1,7.41,1,.09,3.67-1.16,4.22-2.15a2.55,2.55,0,0,0-.44-2.68c-.58-.83-1.46-1.14-2.06-1.94s-.31-1.71-1.2-1.77a1.73,1.73,0,0,0-1.59,2"/><path class="cls-4" d="M777.76,46c-1.5-2.13-1.81-3.65-4.62-3.35-2.11.23-3.8,0-4.82,2.4-.83,2,.28,5.68,1.44,7.34a3.63,3.63,0,0,0,4.45,1.45,5.88,5.88,0,0,0,3.94-4.65c.16-.83.53-2.19-.39-3.19"/><path class="cls-4" d="M933.14,130.91c.22,2,.93,7.47,4.21,6.19.91-.36,2.76-2.68,2.81-3.81a2.54,2.54,0,0,0-1.6-2.2c-.89-.49-1.81-.37-2.71-.82s-1-1.39-1.86-1a1.74,1.74,0,0,0-.55,2.47"/><path class="cls-4" d="M948.28,116.35c-1.76,1.93-3.19,2.55-2.29,5.23.68,2,.78,3.72,3.38,4.19,2.14.39,5.49-1.48,6.85-3a3.62,3.62,0,0,0,.47-4.66,5.87,5.87,0,0,0-5.38-2.86c-.85,0-2.25,0-3,1.06"/><path class="cls-4" d="M922.6,131.63c-1.4,1.15-1.86,3,.37,3.92s3.2-1.81,3.85-3.29c.73-1.66.51-3.47-1.87-2.35a17.67,17.67,0,0,0-2.35,1.72"/><path class="cls-4" d="M940.46,153.24c.79,1.63,2.48,2.5,3.9.55s-1-3.53-2.31-4.51c-1.45-1.09-3.25-1.3-2.72,1.28a16.93,16.93,0,0,0,1.13,2.68"/><path class="cls-4" d="M955.31,137.6c.79,1.63,2.47,2.5,3.9.55s-1-3.54-2.31-4.51c-1.45-1.09-3.25-1.3-2.72,1.27a17.44,17.44,0,0,0,1.13,2.69"/><path class="cls-4" d="M894.14,130.67c-.71,1.91-2.51,7.1,1,7.42a6.77,6.77,0,0,0,4.22-2.15,2.57,2.57,0,0,0-.45-2.69c-.58-.82-1.45-1.13-2.06-1.93s-.31-1.71-1.2-1.77a1.74,1.74,0,0,0-1.59,2"/><path class="cls-4" d="M909,120.44c-1.5,8.52,12.53-.85,8.13-4.21-1.56-1.18-3.22,0-5.1.51-1.34.35-3.19,1.39-3.15,2.37a7.73,7.73,0,0,1,.12,1.33"/><path class="cls-4" d="M909.79,138.7c-2.07,3.08,1.06,7.35,4.61,5.68,2.32-1.1,4.67-4.77,2.54-6.88a6.49,6.49,0,0,0-6-1c-1.37.61-1,1.78-1.54,2.75"/><path class="cls-4" d="M935.54,108.41c-.76-1.3-3.79-.89-4.4,1.51-.4,1.57.73,3.81,2.51,3.8,2.91,0,3-3.66,1.89-5.31"/><path class="cls-4" d="M825,116.8c-.79.22-1.72,1.79-1.89,2.9s0,2.69,1,3.33c1,.43,2.15-.51,3.29-1.38,1.41-1.08,2.46-2.8,4-3.66s3.74-1.38,4.53-3.27c1.31-3.12-2.2-2.92-4-2.09-2.34,1.06-4.39,3.87-6.85,4.17"/><path class="cls-4" d="M831.19,127.9c-1.89-1.8-2.49-3.24-5.19-2.39-2,.63-3.73.69-4.26,3.28-.43,2.14,1.37,5.52,2.83,6.92a3.62,3.62,0,0,0,4.64.56,5.86,5.86,0,0,0,3-5.32c0-.85.09-2.25-1-3"/><path class="cls-4" d="M816.48,111.17c-.76-1.3-3.79-.89-4.4,1.51-.4,1.57.73,3.81,2.51,3.81,2.91,0,3-3.66,1.89-5.32"/><path class="cls-4" d="M873.78,88.56c-.81,0-2.1,1.31-2.54,2.35s-.7,2.59.1,3.45c.84.66,2.21,0,3.53-.52,1.63-.69,3.08-2.1,4.77-2.56s4-.4,5.2-2c2-2.7-1.42-3.37-3.39-3-2.53.45-5.2,2.66-7.67,2.34"/><path class="cls-4" d="M842.48,88.9c-1.64.76-2.55,2.42-.63,3.89s3.56-1,4.56-2.22c1.12-1.43,1.37-3.23-1.22-2.74a16.41,16.41,0,0,0-2.71,1.07"/><path class="cls-4" d="M871.25,75.06c-3-2.13-7.37.91-5.77,4.49,1,2.35,4.68,4.77,6.82,2.68a6.43,6.43,0,0,0,1.16-6c-.57-1.39-1.76-1-2.71-1.6"/><path class="cls-4" d="M860.7,82.67c.63,1.54,1.77,2.78.67,4.36a9.66,9.66,0,0,1-3.23,3c-2.72,1.24-4.33-1.05-4.59-3.2a9.25,9.25,0,0,1,.38-3.65c.34-1.33.11-3.5.94-4.67,2.16-3.09,4.06.92,4.87,2.49.3.6.69,1,1,1.66"/><path class="cls-4" d="M760.08,146.09c0-1.82-1.09-3.35-3.24-2.25s-.67,3.62,0,5.07c.81,1.63,2.33,2.62,3,.08a16.44,16.44,0,0,0,.2-2.9"/><path class="cls-4" d="M742.05,167.41c0,.81,1.27,2.13,2.29,2.59s2.58.75,3.46,0c.68-.83.09-2.21-.45-3.54-.66-1.65-2-3.12-2.46-4.82s-.32-4-1.94-5.24c-2.65-2.09-3.4,1.35-3.09,3.32.4,2.54,2.56,5.26,2.19,7.72"/><path class="cls-4" d="M774.17,142.6c1.43-.85,2.48-2.16,4.21-1.3a9.81,9.81,0,0,1,3.45,2.75c1.62,2.51-.41,4.44-2.49,5a9.36,9.36,0,0,1-3.68.16c-1.35-.14-3.47.4-4.75-.24-3.37-1.68.31-4.15,1.75-5.19.55-.39.9-.83,1.51-1.19"/><path class="cls-4" d="M781.11,154.77c-.77-1.31-3.8-.9-4.41,1.51-.4,1.57.74,3.8,2.51,3.8,2.91,0,3-3.66,1.9-5.31"/><path class="cls-4" d="M767.4,130.13c-3-2.14-7.37.91-5.77,4.49,1,2.35,4.68,4.77,6.82,2.68a6.43,6.43,0,0,0,1.16-6c-.57-1.39-1.75-1-2.71-1.6"/><path class="cls-4" d="M774,164.26c-1.89-1.8-2.48-3.24-5.18-2.39-2,.63-3.73.7-4.26,3.29-.43,2.13,1.37,5.52,2.82,6.91a3.62,3.62,0,0,0,4.65.57,5.88,5.88,0,0,0,3-5.33c0-.85.09-2.25-1-3.05"/><path class="cls-4" d="M796.46,95.43c.61,1.38,3.67,1.31,4.55-1,.57-1.52-.31-3.87-2.07-4.06-2.9-.32-3.41,3.3-2.48,5.07"/><path class="cls-4" d="M809,95.06c1.65-.76,2.55-2.42.63-3.89s-3.55,1-4.55,2.22c-1.13,1.43-1.37,3.23,1.22,2.74a16.3,16.3,0,0,0,2.7-1.07"/><path class="cls-4" d="M616.45,75.87c1.29-.79.82-3.82-1.59-4.38-1.58-.37-3.8.81-3.76,2.59.07,2.91,3.72,2.94,5.35,1.79"/><path class="cls-4" d="M615.83,55.51c1.41-1.14,1.86-3-.36-3.92s-3.21,1.82-3.86,3.29c-.72,1.67-.51,3.47,1.87,2.35a15.54,15.54,0,0,0,2.35-1.72"/><path class="cls-4" d="M600.51,73.57c2.07-3.09-1.06-7.35-4.61-5.68-2.33,1.09-4.68,4.77-2.54,6.87a6.45,6.45,0,0,0,6,1c1.38-.6,1-1.78,1.54-2.75"/><path class="cls-4" d="M581.62,64.5c2.07-3.08-1.06-7.35-4.61-5.68-2.33,1.1-4.68,4.77-2.54,6.87a6.42,6.42,0,0,0,6,1c1.38-.6,1-1.77,1.54-2.74"/><path class="cls-4" d="M595.11,59.37c-1.52.66-2.73,1.83-4.34.76A9.74,9.74,0,0,1,587.7,57c-1.29-2.7,1-4.36,3.1-4.66a9.38,9.38,0,0,1,3.67.3c1.32.31,3.49,0,4.68.85,3.13,2.09-.84,4.07-2.4,4.92-.58.31-1,.71-1.64,1"/><path class="cls-4" d="M611.92,92.23c1.9.75,7.05,2.65,7.44-.84.11-1-1.09-3.7-2.07-4.27a2.54,2.54,0,0,0-2.69.4c-.84.55-1.16,1.42-2,2s-1.71.28-1.79,1.16a1.74,1.74,0,0,0,1.93,1.64"/><path class="cls-4" d="M597.19,49.33c-1.5,2.13-2.84,2.93-1.61,5.48.93,1.91,1.24,3.59,3.88,3.73,2.17.11,5.26-2.17,6.43-3.81a3.63,3.63,0,0,0-.12-4.68,5.87,5.87,0,0,0-5.7-2.15c-.84.12-2.25.23-2.88,1.43"/><path class="cls-4" d="M581,51.39c1,1.52,2.78,2.17,3.94,0s-1.45-3.38-2.86-4.18c-1.57-.9-3.39-.88-2.53,1.61A17.65,17.65,0,0,0,581,51.39"/><path class="cls-4" d="M609.12,42.49c-1.66-.17-3.28.26-4.17-1.46a9.86,9.86,0,0,1-1.14-4.26c.18-3,3-3.34,5-2.56a9.26,9.26,0,0,1,3.05,2c1,.92,3,1.74,3.69,3,1.71,3.36-2.72,3.15-4.5,3.13-.66,0-1.21.14-1.91.08"/><path class="cls-4" d="M631,50.51c1.66-3.32-2-7.16-5.29-5-2.17,1.38-4,5.32-1.65,7.14a6.46,6.46,0,0,0,6.09.27c1.29-.77.73-1.88,1.18-2.92"/><path class="cls-4" d="M972.79,41.41c-1.28.79-.81,3.82,1.6,4.38,1.58.37,3.79-.82,3.75-2.59-.06-2.91-3.72-2.94-5.35-1.79"/><path class="cls-4" d="M976.12,65.76c-1.29.79-.82,3.81,1.6,4.38,1.58.37,3.79-.82,3.75-2.59-.07-2.91-3.72-2.94-5.35-1.79"/><path class="cls-4" d="M1010.49,63.54c-1.29.78-.82,3.81,1.6,4.37,1.58.37,3.79-.81,3.75-2.59-.06-2.91-3.72-2.94-5.35-1.78"/><path class="cls-4" d="M929.29,55.15c-1.4,1.15-1.85,3,.37,3.93s3.2-1.82,3.85-3.3c.73-1.66.51-3.46-1.87-2.34a17.36,17.36,0,0,0-2.35,1.71"/><path class="cls-4" d="M991.41,60.9c-1.52,1-2.18,2.76-.08,3.94s3.39-1.44,4.2-2.84c.91-1.57.9-3.38-1.59-2.54a16.77,16.77,0,0,0-2.53,1.44"/><path class="cls-4" d="M901.09,53.88c-.76-1.31-3.8-.9-4.41,1.51-.4,1.57.74,3.8,2.52,3.8,2.9,0,3-3.66,1.89-5.31"/><path class="cls-4" d="M909.64,69.14c-.77-1.3-3.8-.89-4.41,1.51-.4,1.57.74,3.81,2.52,3.8,2.9,0,3-3.66,1.89-5.31"/><path class="cls-4" d="M1009.8,38.6c-1.9-.75-7-2.65-7.44.85-.11,1,1.09,3.69,2.07,4.26a2.56,2.56,0,0,0,2.69-.39c.84-.56,1.16-1.43,2-2s1.71-.27,1.79-1.16a1.72,1.72,0,0,0-1.93-1.63"/><path class="cls-4" d="M916.94,52.6c0-.81-1.27-2.13-2.29-2.59s-2.58-.75-3.46,0c-.67.82-.09,2.21.45,3.54.66,1.65,2,3.11,2.46,4.81s.32,4,1.94,5.24c2.65,2.1,3.4-1.34,3.09-3.32-.4-2.53-2.56-5.26-2.19-7.71"/><path class="cls-4" d="M991.91,39.11c.63,1.54,1.77,2.77.67,4.36a9.8,9.8,0,0,1-3.22,3c-2.72,1.24-4.34-1-4.6-3.19a9.3,9.3,0,0,1,.38-3.66c.34-1.32.12-3.5.94-4.67,2.16-3.09,4.06.92,4.87,2.5a19,19,0,0,1,1,1.66"/><path class="cls-4" d="M918.5,46.21c-1.43.85-2.49,2.16-4.22,1.3a9.7,9.7,0,0,1-3.45-2.75c-1.62-2.51.41-4.44,2.5-5a9.31,9.31,0,0,1,3.67-.16c1.35.14,3.47-.4,4.75.24,3.38,1.69-.31,4.15-1.75,5.19-.54.39-.9.83-1.5,1.19"/><path class="cls-4" d="M861.33,153.75c-2.4,2.84.24,7.42,3.95,6.15,2.43-.84,5.17-4.23,3.28-6.56a6.48,6.48,0,0,0-5.86-1.69c-1.43.45-1.15,1.66-1.82,2.57"/><path class="cls-4" d="M876.62,128.14c-1.68-2-2.11-3.49-4.89-2.95-2.08.41-3.79.29-4.59,2.81-.67,2.07.75,5.63,2.05,7.18a3.62,3.62,0,0,0,4.55,1.07,5.88,5.88,0,0,0,3.54-5c.09-.84.34-2.23-.66-3.14"/><path class="cls-4" d="M999.07,133.09c1.52-.66,2.73-1.82,4.34-.75a9.64,9.64,0,0,1,3.07,3.16c1.29,2.69-1,4.36-3.1,4.66a9.2,9.2,0,0,1-3.67-.31c-1.32-.31-3.49,0-4.68-.84-3.13-2.09.84-4.08,2.4-4.92.58-.32,1-.71,1.64-1"/><path class="cls-4" d="M1029.79,132.26c-8.49-1.68.6,12.55,4,8.21,1.22-1.53.05-3.22-.4-5.11-.33-1.35-1.33-3.22-2.31-3.2a6.92,6.92,0,0,1-1.33.1"/><path class="cls-4" d="M1010.56,124.36c1.5-2.14,2.84-2.94,1.61-5.48-.92-1.91-1.24-3.59-3.88-3.73-2.17-.12-5.25,2.16-6.42,3.8a3.62,3.62,0,0,0,.12,4.68,5.87,5.87,0,0,0,5.7,2.16c.84-.13,2.24-.24,2.87-1.43"/><path class="cls-4" d="M1026.21,123.91c-1-1.52-2.78-2.17-3.94-.06s1.45,3.38,2.86,4.18c1.57.9,3.39.88,2.53-1.61a17,17,0,0,0-1.45-2.51"/><path class="cls-4" d="M992.64,119.87c1.44-1.12,1.93-3-.27-3.93s-3.25,1.73-3.93,3.2c-.76,1.64-.59,3.45,1.82,2.39a17.51,17.51,0,0,0,2.38-1.66"/><path class="cls-4" d="M1022.4,109.56c1.24-1.11,2-2.6,3.89-2.08a9.67,9.67,0,0,1,3.9,2c2.07,2.15.45,4.44-1.48,5.4a9.33,9.33,0,0,1-3.58.85c-1.35.13-3.33,1.06-4.71.67-3.63-1-.49-4.13.73-5.42a18.62,18.62,0,0,1,1.25-1.46"/><path class="cls-4" d="M697.49,73.6c1.76-1.93,3.19-2.55,2.29-5.24-.67-2-.77-3.71-3.37-4.19-2.14-.39-5.49,1.48-6.86,3a3.6,3.6,0,0,0-.47,4.65,5.85,5.85,0,0,0,5.38,2.86c.85,0,2.25,0,3-1.05"/><path class="cls-4" d="M702.28,84.14c1.28-.78.81-3.81-1.6-4.37-1.58-.37-3.79.81-3.75,2.59.06,2.91,3.72,2.94,5.35,1.78"/><path class="cls-4" d="M704.67,47.51c1.29-.79.82-3.81-1.6-4.37-1.58-.37-3.79.81-3.75,2.59.07,2.9,3.72,2.93,5.35,1.78"/><path class="cls-4" d="M668.9,71.27c-.79-1.63-2.48-2.5-3.9-.56s1,3.54,2.31,4.51c1.45,1.1,3.25,1.31,2.72-1.27a16.93,16.93,0,0,0-1.13-2.68"/><path class="cls-4" d="M693.89,41.24c.72-1.9,2.52-7.1-1-7.41-1-.09-3.67,1.16-4.22,2.15a2.53,2.53,0,0,0,.45,2.68c.57.83,1.45,1.14,2,1.94s.31,1.71,1.2,1.77a1.73,1.73,0,0,0,1.59-2"/><path class="cls-4" d="M717.65,70.55c1.5-8.52-12.53.85-8.13,4.21,1.56,1.18,3.22,0,5.1-.51,1.34-.35,3.19-1.38,3.15-2.37a7.64,7.64,0,0,1-.12-1.33"/><path class="cls-4" d="M671.94,60c8.49,1.67-.6-12.55-4-8.21-1.22,1.53,0,3.22.4,5.1.33,1.35,1.32,3.22,2.31,3.2a7,7,0,0,1,1.33-.09"/><path class="cls-4" d="M676.2,48c-1.17.94-.32,3.88,2.14,4.14,1.61.16,3.66-1.29,3.4-3-.44-2.87-4.07-2.44-5.54-1.09"/><path class="cls-4" d="M659,62.86c-1.44-.44-3.39,1.93-2.2,4.1.78,1.43,3.14,2.29,4.44,1.08,2.12-2-.29-4.73-2.24-5.18"/><path class="cls-4" d="M683,67.09c-1.53.66-2.74,1.83-4.35.76a9.74,9.74,0,0,1-3.07-3.16c-1.29-2.7,1-4.36,3.1-4.66a9.36,9.36,0,0,1,3.67.3c1.32.31,3.49.05,4.68.85,3.14,2.09-.83,4.08-2.39,4.92-.59.31-1,.71-1.64,1"/><path class="cls-4" d="M650.21,141.81c.93-.57.59-2.76-1.16-3.16-1.14-.27-2.74.58-2.71,1.87,0,2.1,2.69,2.12,3.87,1.29"/><path class="cls-4" d="M635.4,139.93c1.29-.79.82-3.81-1.6-4.37-1.58-.37-3.79.81-3.75,2.59.07,2.91,3.72,2.94,5.35,1.78"/><path class="cls-4" d="M660.53,125.65c0-1.82-1.09-3.35-3.24-2.25s-.67,3.62,0,5.07c.81,1.63,2.33,2.62,3,.08a16.44,16.44,0,0,0,.2-2.9"/><path class="cls-4" d="M652.07,121.49c-1.53.66-2.74,1.82-4.35.75a9.74,9.74,0,0,1-3.07-3.16c-1.29-2.69,1-4.36,3.11-4.66a9.33,9.33,0,0,1,3.66.3c1.33.32,3.5,0,4.69.85,3.13,2.09-.84,4.08-2.4,4.92-.59.32-1,.71-1.64,1"/><path class="cls-4" d="M694.55,136.77c-1.7-.17-3.37.27-4.27-1.49a10,10,0,0,1-1.18-4.37c.19-3.06,3-3.43,5.11-2.63a9.63,9.63,0,0,1,3.13,2.1c1,.94,3.12,1.79,3.79,3.1,1.76,3.44-2.79,3.24-4.61,3.22-.69,0-1.25.14-2,.07"/><path class="cls-4" d="M700.85,123.91c2,.42,7.6,1.41,7.36-2.2-.07-1-1.77-3.53-2.85-3.93a2.63,2.63,0,0,0-2.66.88c-.74.72-.91,1.66-1.63,2.4s-1.68.58-1.6,1.49a1.78,1.78,0,0,0,2.25,1.31"/><path class="cls-4" d="M639.37,135.51c8.49,1.67-.6-12.55-4-8.21-1.22,1.53-.05,3.22.4,5.1.33,1.35,1.32,3.23,2.31,3.21a6.92,6.92,0,0,1,1.33-.1"/><path class="cls-4" d="M659.1,136.23c1,1.52,2.77,2.17,3.94.06s-1.46-3.38-2.86-4.18c-1.58-.9-3.39-.88-2.54,1.61a17.08,17.08,0,0,0,1.46,2.51"/><path class="cls-4" d="M724.53,153.37c.82-.16,1.9-1.71,2.15-2.83s.24-2.75-.73-3.47c-1-.52-2.24.35-3.47,1.16-1.52,1-2.72,2.68-4.35,3.44s-3.93,1.13-4.88,3c-1.58,3.1,2,3.15,4,2.44,2.47-.91,4.78-3.63,7.32-3.75"/><path class="cls-4" d="M691.65,152.34c-.32.29-.16,1.23.21,1.77a2.82,2.82,0,0,0,1.87,1.24c.68,0,.91-.76,1.14-1.43.29-.84.12-1.86.56-2.63s1.37-1.54,1-2.59c-.61-1.71-2.35-.75-3,.08-.77,1.05-.68,2.81-1.83,3.56"/><path class="cls-4" d="M870.79,28.37c-1,.64-.67,3.1,1.3,3.56,1.28.3,3.08-.67,3-2.11,0-2.36-3-2.39-4.35-1.45"/><path class="cls-4" d="M832,22.26c-1.54-.61-5.74-2.16-6,.69a5.49,5.49,0,0,0,1.68,3.47,2.07,2.07,0,0,0,2.19-.32c.68-.46.95-1.16,1.61-1.64s1.39-.22,1.46-.95a1.42,1.42,0,0,0-1.58-1.33"/><path class="cls-4" d="M870.18,41.26c1.18-.95.33-3.89-2.14-4.14-1.61-.16-3.66,1.29-3.4,3.05.44,2.87,4.07,2.44,5.54,1.09"/><path class="cls-4" d="M809.58,55c1.36-2.7-1.61-5.82-4.3-4.11-1.76,1.12-3.28,4.33-1.34,5.81a5.27,5.27,0,0,0,4.95.22c1.05-.63.59-1.54,1-2.38"/><path class="cls-4" d="M863.09,40.71c-1.43.85-2.48,2.16-4.21,1.3a9.83,9.83,0,0,1-3.45-2.75c-1.62-2.51.41-4.45,2.49-5a9.33,9.33,0,0,1,3.67-.17c1.36.14,3.48-.39,4.76.25,3.37,1.68-.32,4.15-1.76,5.18-.54.39-.9.84-1.5,1.2"/><path class="cls-4" d="M777,47.11c.47-2,1.6-7.36-1.92-7.23-1,0-3.5,1.62-3.92,2.67a2.54,2.54,0,0,0,.79,2.6c.67.75,1.58,1,2.28,1.67s.52,1.65,1.41,1.6A1.73,1.73,0,0,0,777,46.27"/><path class="cls-4" d="M855.79,23.71c-.37,1.61-1.29,6,1.57,5.88a5.45,5.45,0,0,0,3.18-2.17,2.06,2.06,0,0,0-.63-2.12c-.55-.61-1.29-.76-1.86-1.35s-.43-1.35-1.15-1.3a1.4,1.4,0,0,0-1.08,1.75"/></g><g id="Layer_93" data-name="Layer 93"><text class="cls-6" transform="translate(167.27 279.47)">as <tspan class="cls-7" x="50.12" y="0">s</tspan><tspan x="64.93" y="0">oils d</tspan><tspan class="cls-8" x="154.52" y="0">ev</tspan><tspan x="192.45" y="0">elo</tspan><tspan class="cls-9" x="243.41" y="0">p</tspan><tspan x="265.76" y="0">, t</tspan><tspan class="cls-8" x="294.58" y="0">he</tspan><tspan class="cls-10" x="335.04" y="0">y</tspan><tspan x="352.2" y="0" xml:space="preserve"> support t</tspan><tspan class="cls-11" x="511.69" y="0">h</tspan><tspan x="532.03" y="0">e g</tspan><tspan class="cls-12" x="587.89" y="0">r</tspan><tspan class="cls-13" x="598.28" y="0">o</tspan><tspan x="619.75" y="0">wth </tspan><tspan class="cls-14" x="692.51" y="0">o</tspan><tspan x="714.05" y="0">f</tspan><tspan class="cls-15"><tspan x="-100.28" y="125.42">plan</tspan><tspan class="cls-16" x="-24.89" y="125.42">t</tspan><tspan x="-13.41" y="125.42">s</tspan><tspan class="cls-17" x="2.84" y="125.42">, </tspan><tspan class="cls-18" x="21.53" y="125.42">mic</tspan><tspan class="cls-19" x="83.17" y="125.42">r</tspan><tspan class="cls-18" x="94.98" y="125.42">ob</tspan><tspan class="cls-19" x="139.21" y="125.42">e</tspan><tspan class="cls-18" x="159" y="125.42">s</tspan><tspan class="cls-17" x="175.24" y="125.42" xml:space="preserve"> a</tspan><tspan class="cls-20" x="210.43" y="125.42">n</tspan><tspan class="cls-17" x="230.73" y="125.42">d </tspan><tspan class="cls-21" x="265.92" y="125.42">in</tspan><tspan class="cls-22" x="297.6" y="125.42">s</tspan><tspan class="cls-21" x="313.48" y="125.42">ect li</tspan><tspan class="cls-23" x="395.89" y="125.42">f</tspan><tspan class="cls-24" x="407.01" y="125.42">e</tspan><tspan class="cls-17" x="427.54" y="125.42">. </tspan><tspan class="cls-25" x="445.9" y="125.42">ov</tspan><tspan class="cls-17" x="485.19" y="125.42">er ti</tspan><tspan class="cls-25" x="548.91" y="125.42">m</tspan><tspan class="cls-26" x="580.33" y="125.42">e</tspan><tspan class="cls-17" x="600.82" y="125.42">, o</tspan><tspan class="cls-27" x="641.53" y="125.42">r</tspan><tspan class="cls-17" x="651.92" y="125.42">ganic a</tspan><tspan class="cls-25" x="781.6" y="125.42">n</tspan><tspan class="cls-17" x="801.9" y="125.42">d </tspan></tspan><tspan x="-73.23" y="250.84">mi</tspan><tspan class="cls-8" x="-32.08" y="250.84">n</tspan><tspan x="-11.78" y="250.84">e</tspan><tspan class="cls-12" x="8.89" y="250.84">r</tspan><tspan x="19.28" y="250.84">al particl</tspan><tspan class="cls-9" x="165.86" y="250.84">e</tspan><tspan x="186.34" y="250.84">s piece </tspan><tspan class="cls-12" x="318.87" y="250.84">t</tspan><tspan x="328.27" y="250.84">og</tspan><tspan class="cls-14" x="372.87" y="250.84">e</tspan><tspan x="393.06" y="250.84">t</tspan><tspan class="cls-13" x="403.19" y="250.84">h</tspan><tspan x="423.53" y="250.84">er </tspan><tspan class="cls-12" x="467.94" y="250.84">t</tspan><tspan x="477.34" y="250.84">o </tspan><tspan class="cls-12" x="511.98" y="250.84">f</tspan><tspan x="521.38" y="250.84">orm </tspan><tspan class="cls-28" x="599.12" y="250.84">agg</tspan><tspan class="cls-29" x="666.76" y="250.84">r</tspan><tspan class="cls-28" x="678.57" y="250.84">ega</tspan><tspan class="cls-29" x="744.2" y="250.84">te</tspan><tspan class="cls-28" x="775.11" y="250.84">s</tspan><tspan x="791.35" y="250.84">, </tspan><tspan x="-162.36" y="376.26">buildi</tspan><tspan class="cls-8" x="-69.74" y="376.26">n</tspan><tspan x="-49.44" y="376.26">g </tspan><tspan class="cls-30" x="-14.25" y="376.26">s</tspan><tspan class="cls-31" x="1.63" y="376.26">tructu</tspan><tspan class="cls-32" x="97.91" y="376.26">r</tspan><tspan class="cls-31" x="109.72" y="376.26">e</tspan><tspan x="130.25" y="376.26">, p</tspan><tspan class="cls-12" x="171.47" y="376.26">r</tspan><tspan class="cls-8" x="181.86" y="376.26">o</tspan><tspan class="cls-9" x="203.33" y="376.26">v</tspan><tspan x="221.51" y="376.26">idi</tspan><tspan class="cls-8" x="262.45" y="376.26">n</tspan><tspan x="282.75" y="376.26">g </tspan><tspan class="cls-33" x="317.94" y="376.26">hom</tspan><tspan class="cls-34" x="393.55" y="376.26">e</tspan><tspan class="cls-33" x="413.34" y="376.26">s</tspan><tspan x="429.59" y="376.26"> </tspan><tspan class="cls-12" x="442.21" y="376.26">f</tspan><tspan x="451.61" y="376.26">or mic</tspan><tspan class="cls-12" x="557.84" y="376.26">r</tspan><tspan x="568.23" y="376.26">ob</tspan><tspan class="cls-35" x="612.82" y="376.26">e</tspan><tspan x="633.3" y="376.26">s, a</tspan><tspan class="cls-13" x="689.49" y="376.26">n</tspan><tspan x="709.79" y="376.26">d all</tspan><tspan class="cls-11" x="784.09" y="376.26">o</tspan><tspan class="cls-36" x="805.56" y="376.26">w</tspan><tspan x="834.5" y="376.26">i</tspan><tspan class="cls-11" x="843.68" y="376.26">n</tspan><tspan x="863.98" y="376.26">g </tspan><tspan class="cls-37"><tspan x="131.01" y="501.69">air</tspan><tspan class="cls-17" x="176.81" y="501.69" xml:space="preserve"> a</tspan><tspan class="cls-20" x="212" y="501.69">n</tspan><tspan class="cls-17" x="232.31" y="501.69">d </tspan><tspan class="cls-38" x="267.5" y="501.69">w</tspan><tspan x="298.04" y="501.69">a</tspan><tspan class="cls-12" x="320.61" y="501.69">t</tspan><tspan x="331.73" y="501.69">er</tspan><tspan class="cls-17" x="364.8" y="501.69"> </tspan><tspan class="cls-27" x="377.42" y="501.69">t</tspan><tspan class="cls-17" x="386.82" y="501.69">o fl</tspan><tspan class="cls-25" x="439.86" y="501.69">o</tspan><tspan class="cls-39" x="461.34" y="501.69">w</tspan><tspan class="cls-17" x="489.54" y="501.69" xml:space="preserve"> f</tspan><tspan class="cls-40" x="512.29" y="501.69">r</tspan><tspan class="cls-17" x="522.68" y="501.69">ee</tspan><tspan class="cls-41" x="564.02" y="501.69">l</tspan><tspan class="cls-42" x="572.1" y="501.69">y</tspan><tspan class="cls-17" x="587.43" y="501.69">.</tspan></tspan></text></g><g id="Layer_84" data-name="Layer 84"><polygon class="cls-43" points="544.36 560.35 532.04 572.73 532.04 565.14 525.02 565.14 525.02 579.77 525.03 579.76 517.05 587.78 525.02 587.7 525.02 613.86 538.25 613.86 538.25 594.94 550.31 594.94 550.31 613.86 563.11 613.86 563.11 587.34 570.41 587.27 544.36 560.35"/></g><g id="Layer_85" data-name="Layer 85"><rect class="cls-44" x="211.33" y="577.33" width="38.81" height="38.81"/><rect class="cls-44" x="223.04" y="565.63" width="38.81" height="38.81"/><line class="cls-44" x1="211.33" y1="577.33" x2="223.04" y2="565.63"/><line class="cls-44" x1="250.14" y1="577.33" x2="261.85" y2="565.63"/><line class="cls-44" x1="250.14" y1="616.14" x2="261.85" y2="604.43"/><line class="cls-44" x1="211.33" y1="616.14" x2="223.04" y2="604.43"/></g><g id="Layer_86" data-name="Layer 86"><path class="cls-45" d="M538.4,706a19.32,19.32,0,0,1-16.55-9.32,19.34,19.34,0,0,1-33.08,0,19.35,19.35,0,0,1-33.09,0A19.32,19.32,0,0,1,439.14,706"/><path class="cls-45" d="M538.4,722.19a19.33,19.33,0,0,1-16.55-9.33,19.33,19.33,0,0,1-33.08,0,19.33,19.33,0,0,1-33.09,0,19.33,19.33,0,0,1-16.54,9.33"/><path class="cls-45" d="M538.4,739.19a19.32,19.32,0,0,1-16.55-9.32,19.34,19.34,0,0,1-33.08,0,19.35,19.35,0,0,1-33.09,0,19.32,19.32,0,0,1-16.54,9.32"/></g><g id="Layer_87" data-name="Layer 87"><path class="cls-46" d="M293.21,734.3c13-1.84,28.15-2.3,41.68-6.74,7.48-2.46,26.64-9.53,27.21-19.77.38-6.8-7.25-9.94-13-8-9.12,3.12-5.49,13.25,1.5,6.37"/><path class="cls-46" d="M285.86,732.39c11.8-12.88,40.6-2.52,48.7-23.89,2.41-6.36.46-15.23-7.58-13.31-10.61,2.53-1.69,16.08,1,8.23"/><path class="cls-46" d="M326.39,735.82c11.07.95,33-17.79,42.56-6.07,3.6,4.4,1.34,11.1-4.32,11.54-6,.47-11-10.32-1.95-8"/></g><g id="Layer_88" data-name="Layer 88"><path class="cls-47" d="M307.07,319.81s-13,12.65-5.53,29.48S326,358.56,326,358.56s15.62-6.44,9.78-21.27S318.56,325.77,316,326.47c0,0-11.85,3.63-8.24,17.7,0,0,4.33,12.74,16.07,8.59,0,0,10-3.69,6.07-13,0,0-1.43-4-5-4.39,0,0-2.19-.06-.5,1.57,0,0,5.46,3.89,1,9.38,0,0-5.71,6.32-11.18-1.24,0,0-5.38-7.52,1.74-12.42a9.31,9.31,0,0,1,12.28,1.87c7.4,8,.19,15.65.19,15.65s-5.14,7.28-15.5,2.95c0,0-10.82-4.66-8.47-18.18,0,0,.54-6.64,2.72-11.11C307.2,323.88,309,318.86,307.07,319.81Z"/><path class="cls-48" d="M255,334.15s.43,7.41,3.25,8.54c3.88,1.56,6.47-3.53,6.47-3.53s1.77-5.75,7.65-.73c4.92,4.2,7,.15,7,.15s2-1.9-.06-4.64c-4.11-5.51,1-7.71,1-7.71,4.84-2.38,4-6.33,4-6.33-2-6.89-10.46-4.41-10.46-4.41-5.2,1-4.13-2.94-4.13-2.94s.94-4.19-5.22-5.86-4.81,6.05-4.81,6.05c-.19,8.36-8.45,9.11-8.45,9.11s-9.5.44-9.52,4.69c0,5.6,8.63,5,8.63,5C255.39,330.69,255,334.15,255,334.15Zm6.5-8c.39-2.4,2.23-4.1,4.12-3.79s3.11,2.49,2.72,4.89-2.23,4.09-4.12,3.79S261.13,328.55,261.52,326.16Z"/><path class="cls-49" d="M223.48,333.1A54.24,54.24,0,0,0,235.11,345a5.24,5.24,0,0,1,.81.59,5.81,5.81,0,0,1-6.43,9.57s-7.3-2.72-17.55-19.75a5.43,5.43,0,0,1-.95-2.88,5.52,5.52,0,0,1,10.31-3Z"/></g><g id="Layer_89" data-name="Layer 89"><path class="cls-50" d="M140,306.26c-.9,2.38-1.81,4.76-2.49,7.22a8.67,8.67,0,0,0-.38,3.36,3.73,3.73,0,0,0,.69,1.84c.16.22.29.23.44,0a44.61,44.61,0,0,0,5.25-9.55,19.5,19.5,0,0,0,.66-2.38.73.73,0,0,1,.17-.42c.14.13.07.27.05.39a23.58,23.58,0,0,1-2.2,6.59c-1.27,2.59-2.82,5-4.28,7.5a54.78,54.78,0,0,0-2.69,5.08.26.26,0,0,1-.19.19c-.76-3.78-1.67-7.52-2.43-11.3,0,.47.08.93.13,1.4.34,2.68.68,5.35,1,8a65.42,65.42,0,0,1,.66,10.56,27.9,27.9,0,0,1-2,10c-.2.47-.2.47-.65.23a16.53,16.53,0,0,1-6-5.43.6.6,0,0,1,0-.81,5.5,5.5,0,0,0,.84-3.06,33.36,33.36,0,0,0-.62-6.68,31.12,31.12,0,0,0-2.09-7.52,20,20,0,0,0-4.44-6.55,12.55,12.55,0,0,0-3.14-2.23c-.48-.23-.53-.19-.49.32a72.87,72.87,0,0,1,.07,7.39,34.33,34.33,0,0,0,2.15,14,12.37,12.37,0,0,0,2.49,4.07,4.5,4.5,0,0,0,2.69,1.54,2.29,2.29,0,0,0,.37,0q.41,0,.21-.39a37.17,37.17,0,0,1-3-10.4c-.53-3.16-.93-6.34-1.69-9.46.36,1.13.64,2.29.9,3.45.67,3,1.14,6,1.88,9a29.17,29.17,0,0,0,2.73,7.35,17.68,17.68,0,0,0,6.52,6.72c.42.25.42.25.2.71-1.37,2.94-2.57,5.91-4,8.83a38.9,38.9,0,0,0-3.17,7.84,15.71,15.71,0,0,0-.08,5.1c.24.35.83.29,1.67-.28,1.31-.89,1.57-1.38,1.78-1.93s.24-3.84.81-5.75c1-3.13,3.08-6.4,4.33-9.41.12-.28.32-.3.56-.31a38.21,38.21,0,0,0,8.5-1.2c.72-.2,1.43-.43,2.14-.65.17-.05.32-.11.48,0a4.53,4.53,0,0,0,3.69,1,14.93,14.93,0,0,0,8-3.58,17.6,17.6,0,0,0,6.35-10.11,18.3,18.3,0,0,0-1.6-12.29c-.09-.19-.15-.5-.37-.5s-.26.32-.36.51a74.7,74.7,0,0,1-4.43,8.22,46.64,46.64,0,0,1-8.7,10.1,14.08,14.08,0,0,0-2.7,3,4.1,4.1,0,0,0-.58,1.42c-.07.37,0,.43.36.33a24.28,24.28,0,0,0,6.5-2.89,20.85,20.85,0,0,0,8.64-11.09,1.84,1.84,0,0,1,.09-.25s0,0,.09-.09a22.36,22.36,0,0,1-1,2.72,21.39,21.39,0,0,1-11,11.13,30.34,30.34,0,0,1-9.9,2.6c-1.19.11-2.38.16-3.57.16-.48,0-.5,0-.32-.48a38.49,38.49,0,0,0,2.11-7.06,28.85,28.85,0,0,0,.44-3.92,1.08,1.08,0,0,1,.35-.74,29.74,29.74,0,0,1,4.78-3.74l1.11-.72c.12-.07.23-.14.37,0a4.77,4.77,0,0,0,4,.78,15.93,15.93,0,0,0,6.54-2.89,12.89,12.89,0,0,0,4.87-6.15A11.12,11.12,0,0,0,157,314.2c-.29-.43-.33-.43-.6,0a29,29,0,0,1-3.21,4.63,24.6,24.6,0,0,1-3,2.72c-1.77,1.42-3.59,2.79-5.31,4.27a9.84,9.84,0,0,0-2.67,3.2,3.72,3.72,0,0,0-.36,1.94c0,.26.13.32.36.2a68.57,68.57,0,0,0,8.37-4.47,14.11,14.11,0,0,0,5-5.63.13.13,0,0,1,.09-.07,9.49,9.49,0,0,1-.74,1.54,16,16,0,0,1-4.71,4.91,50.19,50.19,0,0,1-5.18,3.09,70.88,70.88,0,0,0-7.15,4.17c-.43.3-.84.63-1.27.95-.07.05-.14.17-.24.12s-.07-.17-.07-.26a45.72,45.72,0,0,0-.54-5.73,2.94,2.94,0,0,1,.18-1.66c1.05-2.68,2.21-5.31,3.52-7.88a.55.55,0,0,1,.64-.34,3.82,3.82,0,0,0,2.46-.59,10.63,10.63,0,0,0,3.51-3.61,14.74,14.74,0,0,0,2.75-8,14.42,14.42,0,0,0-1-5.82,13.1,13.1,0,0,0-4-5.37l-.24-.23h-.14c-.45,1.54-.88,3.08-1.37,4.6Z"/></g><g id="Layer_90" data-name="Layer 90"><path class="cls-21" d="M494.17,343.39a6.5,6.5,0,0,0,5.08.31,4.89,4.89,0,0,1,2.94-.42,8.23,8.23,0,0,0-1.41-3.55,2.14,2.14,0,0,1,1.87.7c1.33,1.28,2.07.75,2.07.75,8.87-.72,9.63,2.31,9.63,2.31,0-4.06-9.49-2.81-9.49-2.81l-.18-.27a2.89,2.89,0,0,1-1.58-.51,3.94,3.94,0,0,0-2.58-.51,6.46,6.46,0,0,0-5.68-2.24c-3,.16-2.82,2.15-2.47,3.3a5.06,5.06,0,0,0-4.65,1.25c-2.14,2.27-1,3.1-1,3.1a.62.62,0,0,0-.64.51c-2.57,1.1-2.24,2.81-2.24,2.81l-.47.09s-3.29-3.4-4.78-3.26c-1.16.11-2.91,2.19-3.62,3.09a10.93,10.93,0,0,0-3-.4s-2.39.08-8.05,7.47c0,0-1.09,3,7.13-6.73a12,12,0,0,1,4.21,1.52,8.39,8.39,0,0,0-1.47,1.62c-3.37,4.89-1.13,8.75-1.13,8.75s1.33,2.38,3.41,2.27,4.85-4.22,4.85-4.22c-1.82,7.15-.74,6-.74,6,.8.5,1.93-8.23,1.93-8.23a1.25,1.25,0,0,1,1.79-1.23c1.82.49,1.42-1.22,1.42-1.22,1.24-.31,1.11-2.75,1.11-2.75.58.81,2.31.71,2.31.71a1.82,1.82,0,0,0,1.78.92,2.62,2.62,0,0,0,1.93-.82,3,3,0,0,1,2.28-.79c2.51,4.88,3.47,5.85,3.85,5.94l2.07,3.3c.68-.13,1.22,1,1.22,1,.68-.09.85.32.85.32a.82.82,0,0,0,.77.41,2,2,0,0,0,1.52-.57s.24.72.37.61-.06-1-.06-1c-.43-.27-1.06.25-1.06.25s-.75.49-1,.05-1-.42-1-.42c-.08-.33-1.18-.86-1.18-.86-.24-.56-2.27-3.43-2.27-3.43h0c-.05-1.5-3.81-6-3.81-6-.1-.71-.93-.73-.93-.73a11.35,11.35,0,0,1,3.39-1.38,8.6,8.6,0,0,0-.49,4.27c1.89-4.82.85-5.3.85-5.3s-.15-.59-3,.64c-5.14,2.25-5.06.28-5.06.28,2.34-1,2-2.44,2-2.44,1.51-.74,1.37-3.3,1.37-3.3.15.14.29.27.44.39m-11.72,6.32a6.3,6.3,0,0,0-5.14-.29,2.88,2.88,0,0,0-1-.73l.13,0c1-.35,2.6-2.71,2.6-2.71a18.89,18.89,0,0,0,3.38,2.62Z"/><path class="cls-50" d="M563.45,339.68c2.16-3.8-.23-7.32-3.12-9.86a5.34,5.34,0,0,0,2.1-.56,2.46,2.46,0,0,1,.63-.38c.72.55,1.23-.4,1.23-.4.64.38.84-.18.84-.18.52.41.78.07.78.07.54.51.71.16.71.16a.58.58,0,0,0,.58.25c.63.76.95.57.95.57a.88.88,0,0,0,.47.37c-.64-.75.3-.87.3-.87a.71.71,0,0,0-.64.15,1.31,1.31,0,0,0-.56-.2c-.2,0-.46-.26-.46-.26-.11-.45-.56-.25-.56-.25a.51.51,0,0,0-.68-.22c-.34-.52-.86-.09-.86-.09-.53-.43-.9.24-.9.24-1.09-.4-1.21.29-1.21.29a4.42,4.42,0,0,0-3.15.95,30,30,0,0,0-5.7-3.69s.83-.88.73-1.31c0-.24.3-.47.3-.47,1.21-.13,1.23-.74,1.23-.74.79,0,.81-.5.81-.5a.65.65,0,0,0,.83-.31c.67.22.65-.23.65-.23.48,0,.41-.41.41-.41.79-.58.63-.85.63-.85a.87.87,0,0,0,.39-.48c-.74.74-.8-.31-.8-.31a.69.69,0,0,0,0,.59,1.75,1.75,0,0,0-.32.85c-.31-.1-.48.34-.48.34-.28-.18-.59.25-.59.25a.65.65,0,0,0-.85.3c-.57-.22-.81.52-.81.52-.75-.23-1.32.81-1.32.81-1.34.14-1.48,1.81-1.48,1.81a2.36,2.36,0,0,0-2.26.49,5.42,5.42,0,0,0-1.55-2.61,2.2,2.2,0,0,0-.16-1.85c.28-.23,0-.54,0-.54a1.75,1.75,0,0,0-.14-1.67c.64-.62.24-1.11.24-1.11.43-.73.06-.88.06-.88.24-.71-.19-.75-.19-.75.1-.52-.31-.58-.31-.58a1.17,1.17,0,0,0-.62-.86.45.45,0,0,0-.22-.39c.35.9-.56.56-.56.56.15.19.52.15.52.15.05.27.7.66.7.66a.44.44,0,0,0,.27.56c-.25.24.11.62.11.62-.4.25-.07.81-.07.81s-.51.1-.36.57a2.13,2.13,0,0,1,.12.78c-.83.77,0,1.68,0,1.68a.28.28,0,0,0,.06.37,1.24,1.24,0,0,0-.26.95,2.17,2.17,0,0,0-3,.05,2.12,2.12,0,0,0-1-1s.28-.27-.28-.73a.77.77,0,0,0-1.07.14h-.24s1.22-3-.89-7.17-1.51-6.67-1.51-6.67-1.16,1.77,1.25,6.66c2.09,4.24.9,7.08.9,7.08a.65.65,0,0,0-.49.11c.33-1.05-1-1.75-1-1.75s-.13-.31-.36,0a.27.27,0,0,0,.07.44,1.64,1.64,0,0,0-1.19.58.53.53,0,0,0,.54.08.56.56,0,0,1,.49,0,.44.44,0,0,0-.22.27s.06.12.66,0,.5.24.5.24a1.33,1.33,0,0,0-1.21.44,1.3,1.3,0,0,0-.19,1.26s-.35.17-.33-.44-.1-.65-.1-.65-.14,0-.22.27a.61.61,0,0,1-.06-.5c.1-.27-.19-.51-.19-.51a1.65,1.65,0,0,0-.33,1.28.27.27,0,0,0-.45,0c-.24.29.09.35.09.35s.94,1.13,1.91.6a.63.63,0,0,0,0,.5s-2.56,1.72-7.12.5c-5.27-1.41-6.78.07-6.78.07s2.38-1,6.84.19,7.2-.53,7.2-.53l0,.23a.77.77,0,0,0,.07,1.08c.56.46.77.13.77.13a2.17,2.17,0,0,0,1.19.77,2.17,2.17,0,0,0,.53,2.94,1.26,1.26,0,0,0-.88.44.28.28,0,0,0-.38,0s-1.06-.69-1.65.29a2.14,2.14,0,0,1-.79,0c-.49-.06-.49.46-.49.46s-.61-.22-.78.22c0,0-.45-.27-.63,0a.44.44,0,0,0-.6-.15s-.51-.57-.78-.56c0,0,0-.38-.26-.48,0,0,.52.82-.44.65a.48.48,0,0,0,.44.15,1.14,1.14,0,0,0,1,.44s.15.39.63.19c0,0,.12.41.77,0,0,0,.23.33.86-.23,0,0,.55.29,1-.45a1.76,1.76,0,0,0,1.66-.19s.37.21.53-.11a2.23,2.23,0,0,0,1.85-.21,5.33,5.33,0,0,0,2.86,1,2.37,2.37,0,0,0,0,2.32s-1.61.46-1.48,1.8c0,0-.91.77-.54,1.45,0,0-.68.38-.36.9a.64.64,0,0,0-.12.89s-.36.39-.13.64c0,0-.4.24-.23.53a1.7,1.7,0,0,0-.78.48.68.68,0,0,0-.59.07s1-.15.46.72a.86.86,0,0,0,.39-.48s.3.1.72-.78a.36.36,0,0,0,.32-.48s.45-.07.1-.68a.66.66,0,0,0,.14-.88s.46-.12.33-.89c0,0,.6-.14.49-1.36,0,0,.15-.38.4-.37.43,0,1.15-1,1.15-1a29.9,29.9,0,0,0,4.72,4.87,4.47,4.47,0,0,0-.32,3.28s-.65.25,0,1.24c0,0-.58.5,0,.93,0,0-.32.6.26.82,0,0-.12.52.34.63,0,0-.11.48.36.5,0,0,.31.2.34.4a1.33,1.33,0,0,0,.3.51.76.76,0,0,0,0,.66s-.06-1,.8-.46a.92.92,0,0,0-.46-.4s.13-.35-.74-.81a.6.6,0,0,0-.36-.53s.31-.23-.3-.66c0,0,.29-.32-.22-.76,0,0,.51-.3,0-.85,0,0,.84-.69.16-1.28a2.55,2.55,0,0,1,.25-.7,5.33,5.33,0,0,0,.14-2.17C556.24,340.87,560.15,342.53,563.45,339.68Z"/></g><g id="Layer_91" data-name="Layer 91"><path class="cls-21" d="M881.24,486.66c.87,1.53,2.74,2.34,4.32.52s-1.13-3.31-2.56-4.22c-1.61-1-3.6-1.22-3,1.19a14.32,14.32,0,0,0,1.25,2.51"/><path class="cls-43" d="M879.32,491.86c14.9-5.12,24.51-4.84,26.63-19.48,1.59-11,5.58-19.22-7.63-27.29-10.88-6.65-34.49-5.36-46.05-1.46s-15.46,10.64-15,20.84c.56,12.07,11.16,21.28,22.35,25.54,4.78,1.82,12.41,5.29,19.68,1.85"/><path class="cls-4" d="M901.67,460.76c5.76,1.74,11.86.14,10.68-6.67-1.11-6.4-10.81-5.14-16.22-4.54-6.07.67-10.89,3.85-3.51,8,2.34,1.32,6.43,2.29,9,3.19"/><path class="cls-4" d="M846.66,484.49c8.72,1,13.19,3.33,18.9-3.14,4.28-4.84,8.82-7.83,5.14-14.7-3-5.65-14.64-10.46-21.38-11.25s-10.76,1.49-13.81,6.45c-3.6,5.85-1.54,12.65,2.41,17.24,1.68,2,4.19,5.36,8.74,5.4"/><path class="cls-4" d="M872.27,448.64c4.9,3.09,11.29,3.07,12.53-3.73,1.17-6.39-8.55-7.6-13.92-8.37-6-.86-11.76,1-6.15,6.8,1.78,1.84,5.35,3.78,7.54,5.3"/><path class="cls-21" d="M873.13,465.75c.23,1.9,1,7,4.65,5.8,1-.34,3.06-2.51,3.12-3.57s-.8-1.61-1.77-2.06-2-.34-3-.76-1.15-1.3-2.06-1a1.48,1.48,0,0,0-.61,2.31"/><path class="cls-21" d="M889.9,452.12c-1.95,1.8-3.53,2.39-2.54,4.9.75,1.88.86,3.48,3.74,3.93,2.37.36,6.08-1.39,7.6-2.78s1.53-2.74.52-4.36c-1.2-1.92-3.76-2.72-6-2.68-.94,0-2.5,0-3.36,1"/><path class="cls-21" d="M861.45,466.43c-1.55,1.07-2.06,2.79.41,3.67,2.32.83,3.55-1.7,4.26-3.08.81-1.56.57-3.25-2.07-2.2a19.38,19.38,0,0,0-2.6,1.61"/><path class="cls-21" d="M899,474.21c.88,1.53,2.75,2.34,4.33.52s-1.13-3.31-2.56-4.22c-1.61-1-3.61-1.22-3,1.19a14.27,14.27,0,0,0,1.24,2.51"/><path class="cls-21" d="M831.22,467.73c-.79,1.78-2.78,6.65,1.1,6.94,1.08.08,4.07-1.09,4.68-2a2.1,2.1,0,0,0-.5-2.51c-.64-.78-1.61-1.07-2.28-1.82s-.34-1.6-1.32-1.65-2,1.14-1.77,1.84"/><path class="cls-21" d="M846.4,456c-1.66,8,13.89-.79,9-3.94-1.73-1.11-3.57,0-5.65.48-1.49.33-3.53,1.3-3.49,2.22a5.9,5.9,0,0,1,.13,1.24"/><path class="cls-21" d="M847.26,473.05c-2.3,2.88,1.17,6.88,5.1,5.31,2.58-1,5.18-4.46,2.82-6.43a8.25,8.25,0,0,0-6.66-1c-1.52.57-1.06,1.67-1.7,2.58"/><path class="cls-21" d="M875.79,444.69c-.85-1.22-4.21-.84-4.88,1.41a2.94,2.94,0,0,0,2.78,3.56c3.22,0,3.34-3.43,2.1-5"/></g><g id="Layer_81" data-name="Layer 81"><text class="cls-51" transform="translate(633.72 200.15)">cla<tspan class="cls-52" x="35.82" y="0">y</tspan></text><path class="cls-5" d="M621.85,188.81c-4.91-1.69-10.1,6.1-5.28,9.66,2.21,1.64,6.43,1,8.66-.36,2.73-1.67,2.44-3.94,2.49-6.83,0,0-.24-.68-.29-.87-1.16-2.53-4.51-1.5-7-1.31"/></g><g id="Layer_82" data-name="Layer 82"><text class="cls-51" transform="translate(540.58 200.15)">silt</text><path class="cls-4" d="M524.59,185.75c-7.79-2.68-16,9.69-8.38,15.35,3.51,2.6,10.22,1.58,13.76-.58,4.33-2.65,3.87-6.25,3.95-10.84,0,0-.37-1.08-.47-1.39-1.83-4-7.16-2.38-11.18-2.07"/></g><g id="Layer_83" data-name="Layer 83"><text class="cls-51" transform="translate(409.53 200.15)"><tspan class="cls-53">s</tspan><tspan x="10.58" y="0">a</tspan><tspan class="cls-54" x="26.7" y="0">n</tspan><tspan x="41.21" y="0">d</tspan></text><path class="cls-2" d="M389.19,181.44c-11-3.8-22.71,13.72-11.88,21.74,5,3.68,14.48,2.24,19.49-.82,6.14-3.75,5.49-8.85,5.59-15.35,0,0-.52-1.53-.65-2-2.6-5.69-10.15-3.36-15.85-2.93"/></g></g></g></svg>