<svg xmlns="http://www.w3.org/2000/svg" viewBox="0 0 884 534"><defs><style>.cls-1{fill:#76b7da;}.cls-2,.cls-4{fill:#966d55;}.cls-2,.cls-29,.cls-3,.cls-4{stroke:#ffcf01;}.cls-10,.cls-12,.cls-14,.cls-15,.cls-16,.cls-2,.cls-21,.cls-23,.cls-24,.cls-27,.cls-28,.cls-29,.cls-3,.cls-32,.cls-33,.cls-34,.cls-37,.cls-38,.cls-39,.cls-4,.cls-42,.cls-43,.cls-47,.cls-48,.cls-9{stroke-miterlimit:10;}.cls-2{stroke-width:1.67px;}.cls-3{fill:#9f5b39;stroke-width:1.33px;}.cls-4{stroke-width:1.74px;}.cls-5{font-size:30.55px;font-family:Acre-Medium, Acre;font-weight:500;}.cls-11,.cls-13,.cls-17,.cls-19,.cls-22,.cls-25,.cls-30,.cls-35,.cls-40,.cls-44,.cls-48,.cls-5,.cls-8{fill:#fff;}.cls-6{letter-spacing:-0.04em;}.cls-7{letter-spacing:-0.01em;}.cls-8{opacity:0.8;font-size:27.63px;}.cls-13,.cls-17,.cls-19,.cls-22,.cls-25,.cls-30,.cls-35,.cls-40,.cls-44,.cls-8{font-family:Acre-Bold, Acre;font-weight:700;}.cls-9{fill:#5d5053;stroke:#f37243;stroke-width:0.69px;}.cls-10{fill:#3caba2;stroke-width:0.39px;}.cls-10,.cls-14,.cls-23,.cls-27,.cls-28,.cls-32,.cls-33,.cls-37,.cls-39,.cls-43{stroke:#fff;}.cls-12,.cls-21{fill:#37904b;}.cls-12,.cls-15,.cls-21{stroke:#6d54a3;}.cls-12{stroke-width:1.31px;}.cls-13{font-size:17.45px;}.cls-14,.cls-16,.cls-23{fill:#6d54a3;}.cls-14{stroke-width:0.49px;}.cls-15{fill:#ea6b7c;stroke-width:1.66px;}.cls-16{stroke:#e9e9e9;stroke-width:0.53px;}.cls-17{font-size:16.19px;}.cls-18,.cls-19{font-size:21.29px;}.cls-20,.cls-37{opacity:0.6;}.cls-21{stroke-width:0.79px;}.cls-22{font-size:10.65px;}.cls-23{stroke-width:0.31px;}.cls-24,.cls-32,.cls-33,.cls-34{fill:#ffcf01;}.cls-24,.cls-34{stroke:#2e61a2;}.cls-24{stroke-width:1.71px;}.cls-25{font-size:16.84px;}.cls-26{letter-spacing:0em;}.cls-27,.cls-37{fill:#2e6292;}.cls-27{stroke-width:0.41px;}.cls-28{fill:#2e61a1;stroke-width:0.24px;}.cls-29{fill:#f27243;stroke-width:1.56px;}.cls-30{font-size:15.41px;}.cls-31{letter-spacing:-0.01em;}.cls-32{stroke-width:0.38px;}.cls-33{stroke-width:0.22px;}.cls-34{stroke-width:1.64px;}.cls-35{font-size:16.15px;}.cls-36{letter-spacing:0em;}.cls-37{stroke-width:0.4px;}.cls-38,.cls-42{fill:#2e61a2;stroke:#3daaa1;}.cls-38{stroke-width:1.59px;}.cls-39,.cls-43{fill:#3daaa1;}.cls-39{stroke-width:0.9px;}.cls-40{font-size:20.41px;}.cls-41{letter-spacing:0em;}.cls-42{stroke-width:1.02px;}.cls-43{stroke-width:0.57px;}.cls-44{font-size:13.07px;}.cls-45{letter-spacing:-0.01em;}.cls-46{fill:#fecf08;}.cls-47{fill:#da6a7c;}.cls-47,.cls-48{stroke:#d86b7d;stroke-width:0.99px;}</style></defs><g id="Layer_2" data-name="Layer 2"><g id="Layer_7" data-name="Layer 7"><rect class="cls-1" width="884" height="534"/><path class="cls-2" d="M211,236c-1.87,1.83-3.49,4.55-2.52,7,.41,1.48.17,3.22,0,5.77a3.55,3.55,0,0,1-3.78,3.34l-23.35-1.7a10,10,0,0,1-4-.86,13.18,13.18,0,0,1-2.73-2.2c-5-4.66-12.09-6.43-18.94-6.22-31,1-61.52-4.12-91.89-10.31a3.53,3.53,0,0,1-2.81-3.68c.44-8,.9-15.39-.3-23.29.25-.25-.33-1.11-.06-1.36-.23,2.29,2.77,4.33,5,5s4.87.57,7.33.71c10.68.62,21.57,6.45,32.19,5.2a3,3,0,0,1,.84,0,317.31,317.31,0,0,0,45.36,3.65c6.65.06,14.3.34,18.59,5.39a8.64,8.64,0,0,0,7.13,3.22,213.46,213.46,0,0,1,23.59-.38c5,.21,10,.61,14.51,2.71a2,2,0,0,1,1,.82,1.78,1.78,0,0,1-.1,1.28C215.14,232.56,212.83,234.16,211,236Z"/><path class="cls-3" d="M433.46,192.27c-.29,1.89-1.84,3.06-3.65,3.88a27.61,27.61,0,0,1-3.07,1.18,36.6,36.6,0,0,0-11.57,6.49,4.72,4.72,0,0,0-1.86,2.49c-.53,2.63,2.89,4.9,2.51,7.63-.14,1-.81,2.1-2.43,3.27a9.14,9.14,0,0,1-2.18,1.16c-2.71,1.09-5.88,1.07-8.85,1.24a56.4,56.4,0,0,0-38.15,18.31c-40.82,9.53-83.43,13.14-125.32,11.61a86,86,0,0,1-24-4.18c-2.14-.69-4.28-1.47-6.46-2.35-1-2.44.65-5.16,2.52-7,.44-.42.88-.84,1.34-1.24a12.79,12.79,0,0,0,3.76-4.68,1.78,1.78,0,0,0,.1-1.28,2,2,0,0,0-1-.82c-4.48-2.1-9.56-2.5-14.51-2.71a214.43,214.43,0,0,0-25.22.5c-2.36.19-3.79-1.2-5.26-3.06-4.24-5.32-12.05-5.61-18.83-5.67-6.41-.05-12.81-.32-19.2-.76s-12.53-1.16-18.81-1.95c-2.65-.32-5.31-.61-8-.8s-5.08,0-7.6-.27a69.21,69.21,0,0,1-8.27-1.68c-5.46-1.39-10.9-3.09-16.55-3.41-2.46-.14-5,0-7.33-.71s-5.27-2.69-5-5a1.26,1.26,0,0,1,0-.27c1.07-4.89,5.65-8.1,10-10.48,15.46-8.38,32.76-12.62,49.87-16.76,10-2.41,19.51-4.66,29.7-5.85,2.16-.24,4.34-.42,6.51-.59l16.84-1.35c5.56-.44,12.07.8,17.55-.14,3.95-.67,7.79-1.89,11.68-2.84,11.93-2.92,24.31-3.38,36.56-3.82,9.09-.31,18.31,5.06,27.11,7.39,10.71,2.84,22,1.3,33.14,1.43a109.79,109.79,0,0,1,35.15,6.19c13.31,4.67,28.51,8.22,42.61,8.53,16.39.34,32.38-1,48.65,2a13.76,13.76,0,0,1,5.1,1.76A4.94,4.94,0,0,1,433.46,192.27Z"/><path class="cls-2" d="M417.71,232.12a12.08,12.08,0,0,1-.73,5.11l-.06.1c-1.1,2.29-3.57,3.63-6,4.45-5.63,1.93-11.74,1.91-17.53,3.32-7.18,1.76-14.19,5.62-20.29,9.74s-12.27,6.2-19.53,8.27a278.84,278.84,0,0,1-48.6,9.27,370.08,370.08,0,0,1-49.5,1.23c-14.73-.51-32.57.75-46.48-4.57a3,3,0,0,1-1.65-1.15,3.25,3.25,0,0,1-.21-1.73c.52-6.56,1.41-12.76,1.21-19.18a2.6,2.6,0,0,1,3.42-2.59c1.07.36,2.17.64,3.13,1a86,86,0,0,0,24,4.18,484.84,484.84,0,0,0,65.56-2.19q16.49-1.65,32.84-4.29c8.47-1.36,20.09-1.52,27.44-6.15,5.63-3.55,9.82-8.36,15.9-11.42a55.83,55.83,0,0,1,21.73-5.87c3-.17,6.14-.15,8.85-1.24a4.33,4.33,0,0,0,.54-.21,10,10,0,0,0,1.64-.95,2.62,2.62,0,0,1,4.15,1.95c.08,1,.08,1.91.09,2.86s0,1.77,0,2.67Q417.68,228.38,417.71,232.12Z"/><path class="cls-4" d="M431.31,219.87a19.19,19.19,0,0,1-5.38,5.38,18.83,18.83,0,0,1-7.05,2.83,11.21,11.21,0,0,1-1.84-.91c0-.93,0-1.84,0-2.78,0-2.93,0-6-1.89-8.38.4-2.84-3.15-5.2-2.59-7.93a4.88,4.88,0,0,1,1.92-2.58A55.49,55.49,0,0,1,426,197.81c1.74-.95,4.33-2.4,7.45-4.31a51.2,51.2,0,0,1,1.08,12.21C434.36,211,434.22,215.47,431.31,219.87Z"/><text class="cls-5" transform="translate(174.26 211.3)"><tspan class="cls-6">F</tspan><tspan x="12.92" y="0">e/Al </tspan><tspan class="cls-7" x="77.4" y="0">o</tspan><tspan x="95.18" y="0">xide</tspan></text><text class="cls-8" transform="translate(128.47 138.24)">K</text><path class="cls-9" d="M129.49,161.6c-3-4.75-7-1.2-7-1.2a7.6,7.6,0,0,1-3.94,1.45l.07-.27a.38.38,0,1,0-.74-.21l-.14.48a6.61,6.61,0,0,1-1.34-.25l.17-.42a.38.38,0,1,0-.71-.29l-.19.45a8.79,8.79,0,0,1-1.25-.66l.32-.28a.39.39,0,0,0,0-.55.38.38,0,0,0-.54,0l-.46.41q-.42-.31-.81-.66l.41-.24a.4.4,0,0,0,.14-.53.38.38,0,0,0-.53-.14l-.6.35c-.26-.27-.51-.54-.74-.81L112,158a.39.39,0,0,0-.39-.67l-.53.31c-.25-.31-.47-.62-.66-.9l.39-.16a.39.39,0,0,0,.21-.51.38.38,0,0,0-.5-.21L110,156c-.39-.63-.6-1.05-.6-1.05-7.32,7.07-9.56,3.77-9.56,3.77s-.9-.9-1.21-.21.79,1.34.79,1.34a8.21,8.21,0,0,1,1,1.18.66.66,0,0,0-.32.47.63.63,0,0,0,.55.7.62.62,0,0,0,.42-.1l.08.16a.63.63,0,0,0-.46.53.64.64,0,0,0,.55.7.63.63,0,0,0,.43-.11,14.2,14.2,0,0,1,.84,3,54.25,54.25,0,0,0,2,9.18c.44,0,.87,0,1.28,0l.24-.8.93-.19.41.84c.35,0,.69-.1,1-.17l.06-1,1.07-.26.48.89c.45-.13.86-.26,1.22-.4l-.09-.94a7.52,7.52,0,0,0,.82-.29l.41.78a11.84,11.84,0,0,0,1.17-.58l.21-1.72a18.12,18.12,0,0,0,4.12-.67l.4.89,1.47-.46-.18-.67c.41-.14.81-.3,1.2-.45l.23.66c.42-.15.81-.31,1.2-.48l-.21-.7,1-.48c.13.17.28.4.43.61.37-.18.73-.35,1.06-.53-.08-.26-.17-.53-.24-.72.34-.19.68-.37,1-.56l.43.62c.43-.26.83-.52,1.21-.77l-.28-.67.78-.51.38.56q.47-.34.84-.66l-.3-.55c.52-.38.81-.62.81-.62l.45.33a10.82,10.82,0,0,0,1.48-1.64A8,8,0,0,0,129.49,161.6Z"/><circle class="cls-10" cx="253.64" cy="171.47" r="5.22"/><path class="cls-11" d="M256.19,172.57l-1.82-.15-.14,1.79-1.72-.13.14-1.79-1.74-.14.14-1.68,1.73.14.14-1.78,1.73.13-.15,1.78,1.82.15Z"/><circle class="cls-10" cx="266.74" cy="179.23" r="5.22"/><path class="cls-11" d="M269.3,180.32l-1.82-.14-.14,1.79-1.73-.14.15-1.79-1.74-.13.13-1.69,1.74.14.14-1.78,1.72.14-.14,1.78,1.82.14Z"/><circle class="cls-10" cx="281.68" cy="178.2" r="5.22"/><path class="cls-11" d="M284.23,179.29l-1.81-.14-.15,1.79-1.72-.14.14-1.79-1.73-.14.13-1.68,1.74.14.14-1.78,1.72.14-.14,1.78,1.82.14Z"/><circle class="cls-10" cx="233.88" cy="262.99" r="5.22"/><path class="cls-11" d="M236.44,264.08l-1.82-.14-.14,1.79-1.72-.14.14-1.79-1.74-.14.13-1.68,1.74.14.14-1.78,1.72.14-.14,1.77,1.82.15Z"/><circle class="cls-10" cx="162.71" cy="231.01" r="5.22"/><path class="cls-11" d="M165.34,231.9h-1.82v1.8h-1.73v-1.8h-1.74v-1.69h1.74v-1.78h1.73v1.78h1.82Z"/><circle class="cls-10" cx="362.63" cy="192.02" r="5.22"/><path class="cls-11" d="M365.23,193l-1.82-.06-.06,1.79-1.73-.05.06-1.8-1.74-.05.05-1.69,1.74.06.06-1.78,1.72.05-.05,1.78,1.82.06Z"/><circle class="cls-10" cx="376.77" cy="193.18" r="5.22"/><path class="cls-11" d="M379.37,194.15l-1.82-.06-.06,1.8-1.72-.06.05-1.79-1.74-.06.06-1.68,1.74,0,.05-1.78,1.73.05-.06,1.78,1.83.06Z"/><circle class="cls-10" cx="78.09" cy="219.97" r="5.22"/><path class="cls-11" d="M80.72,220.86H78.89v1.79H77.17v-1.79H75.43v-1.69h1.74v-1.78h1.72v1.78h1.83Z"/><circle class="cls-10" cx="90.68" cy="202.79" r="5.22"/><path class="cls-11" d="M93.31,203.68H91.49v1.79H89.76v-1.79H88V202h1.74v-1.78h1.73V202h1.82Z"/><circle class="cls-10" cx="99.15" cy="189.27" r="5.22"/><path class="cls-11" d="M101.78,190.16H100V192H98.23v-1.8H96.49v-1.69h1.74v-1.78H100v1.78h1.83Z"/><circle class="cls-10" cx="251.99" cy="259.14" r="5.22"/><path class="cls-11" d="M254.54,260.23l-1.82-.14-.14,1.79-1.72-.14L251,260l-1.73-.13.13-1.69,1.73.14.14-1.78,1.73.14-.14,1.78,1.81.14Z"/><circle class="cls-10" cx="398.63" cy="232.99" r="5.22"/><path class="cls-11" d="M401.19,234.08l-1.82-.14-.14,1.79-1.72-.14.14-1.79-1.74-.14L396,232l1.74.14.14-1.78,1.72.14-.14,1.78,1.82.14Z"/><circle class="cls-12" cx="162.71" cy="254.61" r="14.74"/><text class="cls-13" transform="translate(153.78 261.36)">Cl</text><path class="cls-14" d="M171.35,245.28h7.09v2.5h-7.09Z"/><circle class="cls-12" cx="734.51" cy="460.78" r="14.74"/><text class="cls-13" transform="translate(725.58 467.52)">Cl</text><path class="cls-14" d="M743.15,451.45h7.09V454h-7.09Z"/><circle class="cls-12" cx="648.61" cy="408.07" r="14.74"/><text class="cls-13" transform="translate(639.68 414.81)">Cl</text><path class="cls-14" d="M657.24,398.74h7.1v2.5h-7.1Z"/><circle class="cls-12" cx="807.18" cy="323.99" r="14.74"/><text class="cls-13" transform="translate(798.25 330.73)">Cl</text><path class="cls-14" d="M815.82,314.66h7.09v2.5h-7.09Z"/><circle class="cls-12" cx="804" cy="128.58" r="14.74"/><text class="cls-13" transform="translate(795.08 135.33)">Cl</text><path class="cls-14" d="M812.64,119.26h7.09v2.5h-7.09Z"/><circle class="cls-15" cx="423.14" cy="47.37" r="23.8"/><path class="cls-16" d="M441.19,28.4a3.93,3.93,0,0,1-4.28,3.71A4.26,4.26,0,0,1,432.78,29l2.6-1.27A1.82,1.82,0,0,0,437,29.1a1.18,1.18,0,1,0,.1-2.35A2,2,0,0,0,436,27l-1-1.5,2.51-2.2-3.76-.13.1-2.93,6.95.25-.09,2.72-1.82,1.66A3.59,3.59,0,0,1,441.19,28.4Z"/><path class="cls-16" d="M442.29,25.91l5.32.19-.09,2.41-5.32-.19Z"/><text/><text class="cls-17" transform="translate(407.05 54.04) rotate(2.09)">P<tspan class="cls-18" x="8.81" y="0">O4</tspan></text><circle class="cls-15" cx="290.74" cy="461.93" r="23.8"/><path class="cls-16" d="M308.8,443a4,4,0,0,1-4.29,3.71,4.24,4.24,0,0,1-4.12-3.16l2.59-1.27a1.82,1.82,0,0,0,1.58,1.42,1.2,1.2,0,0,0,1.29-1.16,1.16,1.16,0,0,0-1.19-1.19,1.82,1.82,0,0,0-1.08.29l-1-1.5,2.52-2.2-3.77-.14.11-2.92,6.95.25-.1,2.71-1.82,1.67A3.6,3.6,0,0,1,308.8,443Z"/><path class="cls-16" d="M309.89,440.46l5.33.2-.09,2.41-5.32-.19Z"/><text/><text class="cls-17" transform="translate(274.65 468.6) rotate(2.09)">P<tspan class="cls-18" x="8.81" y="0">O4</tspan></text><circle class="cls-15" cx="426.91" cy="336.11" r="23.8"/><path class="cls-16" d="M445,317.13a4,4,0,0,1-4.29,3.71,4.25,4.25,0,0,1-4.13-3.16l2.6-1.27a1.82,1.82,0,0,0,1.58,1.42,1.2,1.2,0,0,0,1.29-1.15,1.18,1.18,0,0,0-1.19-1.2,2,2,0,0,0-1.08.29l-1-1.5,2.51-2.19-3.76-.14.11-2.93,6.95.26-.1,2.71-1.82,1.66A3.62,3.62,0,0,1,445,317.13Z"/><path class="cls-16" d="M446.06,314.64l5.33.19-.09,2.42-5.33-.2Z"/><text/><text class="cls-19" transform="translate(409.44 342.73) rotate(2.09)">PO4</text><circle class="cls-15" cx="255.91" cy="352.11" r="23.8"/><path class="cls-16" d="M274,333.13a4,4,0,0,1-4.29,3.71,4.25,4.25,0,0,1-4.13-3.16l2.6-1.27a1.82,1.82,0,0,0,1.58,1.42,1.2,1.2,0,0,0,1.29-1.15,1.18,1.18,0,0,0-1.19-1.2,2,2,0,0,0-1.08.29l-1-1.5,2.51-2.19-3.76-.14.11-2.93,6.95.26-.1,2.71-1.82,1.66A3.62,3.62,0,0,1,274,333.13Z"/><path class="cls-16" d="M275.06,330.64l5.33.19-.09,2.42-5.33-.2Z"/><text/><text class="cls-19" transform="translate(238.44 358.73) rotate(2.09)">PO4</text><circle class="cls-15" cx="506.38" cy="128.13" r="23.8"/><path class="cls-16" d="M524.43,109.16a3.94,3.94,0,0,1-4.28,3.71,4.26,4.26,0,0,1-4.13-3.16l2.6-1.27a1.81,1.81,0,0,0,1.57,1.42,1.21,1.21,0,0,0,1.3-1.16,1.17,1.17,0,0,0-1.19-1.19,1.8,1.8,0,0,0-1.08.29l-1-1.5,2.52-2.2-3.76-.14L517,101l7,.25-.1,2.71-1.82,1.67A3.59,3.59,0,0,1,524.43,109.16Z"/><path class="cls-16" d="M525.53,106.66l5.32.2-.09,2.41-5.32-.19Z"/><text/><text class="cls-19" transform="translate(488.9 134.75) rotate(2.09)">PO4</text><circle class="cls-15" cx="277.91" cy="148.11" r="23.8"/><path class="cls-16" d="M296,129.13a4,4,0,0,1-4.29,3.71,4.25,4.25,0,0,1-4.13-3.16l2.6-1.27a1.82,1.82,0,0,0,1.58,1.42,1.2,1.2,0,0,0,1.29-1.15,1.18,1.18,0,0,0-1.19-1.2,2,2,0,0,0-1.08.29l-1-1.5,2.51-2.19-3.76-.14.11-2.93,6.95.26-.1,2.71-1.82,1.66A3.62,3.62,0,0,1,296,129.13Z"/><path class="cls-16" d="M297.06,126.64l5.33.19-.09,2.42-5.33-.2Z"/><text/><text class="cls-19" transform="translate(260.44 154.73) rotate(2.09)">PO4</text><g class="cls-20"><circle class="cls-21" cx="381.46" cy="271.39" r="12.29"/><text class="cls-22" transform="translate(372.16 275.3)">NO3</text><path class="cls-23" d="M387.85,263h7.32v3h-7.32Z"/></g><circle class="cls-21" cx="502.68" cy="501.71" r="12.29"/><text class="cls-22" transform="translate(493.38 505.62)">NO3</text><path class="cls-23" d="M509.07,493.31h7.32v3h-7.32Z"/><circle class="cls-21" cx="732.84" cy="73.72" r="12.29"/><text class="cls-22" transform="translate(723.55 77.63)">NO3</text><path class="cls-23" d="M739.24,65.32h7.32v3h-7.32Z"/><circle class="cls-21" cx="702.29" cy="294.83" r="12.29"/><text class="cls-22" transform="translate(692.99 298.73)">NO3</text><path class="cls-23" d="M708.68,286.42H716v3h-7.32Z"/><circle class="cls-24" cx="371.7" cy="165.5" r="18.94"/><text class="cls-25" transform="translate(358.47 171.92) rotate(-1.83)"><tspan class="cls-26">S</tspan><tspan x="9.15" y="0">O4</tspan></text><path class="cls-27" d="M382.22,153.74c1.14-1.26,2.36-2.63,3.43-3.87a3.07,3.07,0,0,0,1-2,1,1,0,0,0-1.08-1c-.78,0-1.21.77-1.17,1.6l-2.8-.64a4,4,0,0,1,3.84-3.92,3.75,3.75,0,0,1,4.11,3.43,5.06,5.06,0,0,1-1.69,3.71c-.35.43-.75.92-1.1,1.37l3-.11.1,2.8-7.51.28Z"/><path class="cls-28" d="M390.86,148.36l5.66-.21.08,2.32-5.65.21Z"/><circle class="cls-24" cx="654.56" cy="239.7" r="18.94"/><text class="cls-25" transform="translate(641.33 246.12) rotate(-1.83)"><tspan class="cls-26">S</tspan><tspan x="9.15" y="0">O4</tspan></text><path class="cls-27" d="M665.08,227.94c1.15-1.27,2.37-2.63,3.43-3.87a3.14,3.14,0,0,0,1-2,1,1,0,0,0-1.09-1c-.78,0-1.21.77-1.16,1.6l-2.8-.65a3.93,3.93,0,0,1,3.84-3.91,3.76,3.76,0,0,1,4.11,3.43,5.14,5.14,0,0,1-1.69,3.71c-.35.43-.76.92-1.11,1.37l3-.11.11,2.8-7.51.27Z"/><path class="cls-28" d="M673.73,222.56l5.65-.21.09,2.32-5.66.21Z"/><circle class="cls-24" cx="521.04" cy="287.31" r="18.94"/><text class="cls-25" transform="translate(507.81 293.73) rotate(-1.83)"><tspan class="cls-26">S</tspan><tspan x="9.15" y="0">O4</tspan></text><path class="cls-27" d="M531.57,275.55c1.14-1.27,2.36-2.63,3.42-3.87a3.09,3.09,0,0,0,1-2,1,1,0,0,0-1.09-1c-.77,0-1.2.77-1.16,1.6l-2.8-.65a3.93,3.93,0,0,1,3.84-3.91,3.75,3.75,0,0,1,4.11,3.43,5.1,5.1,0,0,1-1.69,3.71c-.35.43-.76.92-1.11,1.37l3-.11.1,2.8-7.51.27Z"/><path class="cls-28" d="M540.21,270.17l5.65-.21.09,2.32-5.66.21Z"/><circle class="cls-24" cx="618.91" cy="130.4" r="18.94"/><text class="cls-25" transform="translate(605.68 136.82) rotate(-1.83)"><tspan class="cls-26">S</tspan><tspan x="9.15" y="0">O4</tspan></text><path class="cls-27" d="M629.44,118.65c1.14-1.27,2.36-2.64,3.42-3.88a3.14,3.14,0,0,0,1-2,1.06,1.06,0,0,0-1.09-1,1.36,1.36,0,0,0-1.16,1.6l-2.8-.64a3.94,3.94,0,0,1,3.84-3.92,3.76,3.76,0,0,1,4.11,3.43,5.08,5.08,0,0,1-1.69,3.71c-.35.43-.76.92-1.11,1.37l3-.11L637,120l-7.51.28Z"/><path class="cls-28" d="M638.08,113.26l5.65-.21.09,2.32-5.66.21Z"/><circle class="cls-24" cx="574.52" cy="437.9" r="18.94"/><text class="cls-25" transform="translate(561.29 444.32) rotate(-1.83)"><tspan class="cls-26">S</tspan><tspan x="9.15" y="0">O4</tspan></text><path class="cls-27" d="M585,426.14c1.14-1.27,2.36-2.64,3.43-3.87a3.09,3.09,0,0,0,1-2,1,1,0,0,0-1.08-1c-.78,0-1.21.78-1.17,1.61l-2.8-.65a3.94,3.94,0,0,1,3.84-3.92,3.76,3.76,0,0,1,4.11,3.44,5.06,5.06,0,0,1-1.69,3.71c-.35.42-.76.92-1.1,1.36l3-.11.1,2.8-7.51.28Z"/><path class="cls-28" d="M593.68,420.75l5.66-.21.08,2.33-5.65.21Z"/><circle class="cls-24" cx="414.74" cy="446.54" r="18.94"/><text class="cls-25" transform="translate(401.51 452.96) rotate(-1.83)"><tspan class="cls-26">S</tspan><tspan x="9.15" y="0">O4</tspan></text><path class="cls-27" d="M425.26,434.78c1.14-1.26,2.36-2.63,3.43-3.87a3.07,3.07,0,0,0,1-2,1,1,0,0,0-1.08-1,1.36,1.36,0,0,0-1.16,1.6l-2.81-.64a4,4,0,0,1,3.84-3.92,3.75,3.75,0,0,1,4.11,3.43,5.06,5.06,0,0,1-1.69,3.71c-.35.43-.75.92-1.1,1.37l3-.11.1,2.8-7.51.28Z"/><path class="cls-28" d="M433.9,429.4l5.66-.21.08,2.32-5.65.21Z"/><circle class="cls-29" cx="72.57" cy="181.89" r="17.34"/><text class="cls-30" transform="translate(58.08 187.34) rotate(0.29)"><tspan class="cls-31">M</tspan><tspan x="12.75" y="0">O4</tspan></text><path class="cls-32" d="M82.6,171.5c1.08-1.12,2.25-2.33,3.26-3.43a2.79,2.79,0,0,0,1-1.76,1,1,0,0,0-1-1c-.71,0-1.13.67-1.12,1.43l-2.54-.69a3.61,3.61,0,0,1,3.65-3.45,3.44,3.44,0,0,1,3.64,3.28,4.63,4.63,0,0,1-1.67,3.33c-.33.38-.73.82-1.06,1.21h2.71V173H82.6Z"/><path class="cls-33" d="M90.68,166.86h5.18V169H90.68Z"/><circle class="cls-29" cx="249.22" cy="285.36" r="17.34"/><text class="cls-30" transform="translate(234.73 290.8) rotate(0.29)"><tspan class="cls-31">M</tspan><tspan x="12.75" y="0">O4</tspan></text><path class="cls-32" d="M259.25,274.3c1.08-1.13,2.24-2.34,3.26-3.43a2.84,2.84,0,0,0,1-1.76,1,1,0,0,0-1-1c-.71,0-1.13.67-1.12,1.42l-2.54-.68a3.62,3.62,0,0,1,3.65-3.46,3.45,3.45,0,0,1,3.64,3.28,4.64,4.64,0,0,1-1.67,3.34c-.34.38-.73.82-1.06,1.21h2.71v2.57h-6.87Z"/><path class="cls-33" d="M267.33,270.33h5.18v2.13h-5.18Z"/><circle class="cls-29" cx="536.03" cy="46.45" r="17.34"/><text class="cls-30" transform="translate(521.54 51.89) rotate(0.29)"><tspan class="cls-31">M</tspan><tspan x="12.75" y="0">O4</tspan></text><path class="cls-32" d="M546.05,35.39c1.09-1.12,2.25-2.33,3.27-3.43a2.84,2.84,0,0,0,1-1.76,1,1,0,0,0-1-1c-.71,0-1.13.67-1.12,1.43L545.66,30a3.61,3.61,0,0,1,3.64-3.45A3.44,3.44,0,0,1,553,29.81a4.67,4.67,0,0,1-1.67,3.33c-.34.38-.73.82-1.06,1.21h2.71v2.57h-6.88Z"/><path class="cls-33" d="M554.14,31.42h5.18v2.13h-5.18Z"/><circle class="cls-29" cx="564.4" cy="209.39" r="17.34"/><text class="cls-30" transform="translate(549.91 214.83) rotate(0.29)"><tspan class="cls-31">M</tspan><tspan x="12.75" y="0">O4</tspan></text><path class="cls-32" d="M574.42,198.33c1.09-1.12,2.25-2.33,3.26-3.42a2.84,2.84,0,0,0,1-1.77,1,1,0,0,0-1-1c-.71,0-1.13.67-1.11,1.43l-2.54-.69a3.6,3.6,0,0,1,3.64-3.45,3.43,3.43,0,0,1,3.64,3.28,4.67,4.67,0,0,1-1.67,3.34c-.33.38-.72.81-1.06,1.21h2.72v2.56h-6.88Z"/><path class="cls-33" d="M582.5,194.36h5.18v2.13H582.5Z"/><circle class="cls-29" cx="699.36" cy="150.4" r="17.34"/><text class="cls-30" transform="translate(684.87 155.84) rotate(0.29)"><tspan class="cls-31">M</tspan><tspan x="12.75" y="0">O4</tspan></text><path class="cls-32" d="M709.38,139.34c1.09-1.13,2.25-2.34,3.26-3.43a2.84,2.84,0,0,0,1-1.76,1,1,0,0,0-1-1c-.71,0-1.13.67-1.11,1.42l-2.54-.68a3.59,3.59,0,0,1,3.64-3.45,3.43,3.43,0,0,1,3.64,3.27,4.64,4.64,0,0,1-1.67,3.34l-1.06,1.21h2.72v2.57h-6.88Z"/><path class="cls-33" d="M717.46,135.37h5.18v2.13h-5.18Z"/><circle class="cls-29" cx="590.47" cy="338.32" r="17.34"/><text class="cls-30" transform="translate(575.98 343.76) rotate(0.29)"><tspan class="cls-31">M</tspan><tspan x="12.75" y="0">O4</tspan></text><path class="cls-32" d="M600.5,327.26c1.08-1.12,2.24-2.33,3.26-3.42a2.84,2.84,0,0,0,1-1.77,1,1,0,0,0-1-1c-.71,0-1.13.67-1.12,1.43l-2.54-.69a3.61,3.61,0,0,1,3.65-3.45,3.44,3.44,0,0,1,3.64,3.28,4.67,4.67,0,0,1-1.67,3.34c-.34.38-.73.81-1.06,1.21h2.71v2.56H600.5Z"/><path class="cls-33" d="M608.58,323.29h5.18v2.13h-5.18Z"/><circle class="cls-29" cx="471.46" cy="400.92" r="17.34"/><text class="cls-30" transform="translate(456.97 406.36) rotate(0.29)"><tspan class="cls-31">M</tspan><tspan x="12.75" y="0">O4</tspan></text><path class="cls-32" d="M481.48,389.86c1.09-1.12,2.25-2.33,3.27-3.43a2.84,2.84,0,0,0,1-1.76,1,1,0,0,0-1-1c-.71,0-1.13.67-1.12,1.43l-2.54-.69a3.61,3.61,0,0,1,3.64-3.45,3.44,3.44,0,0,1,3.65,3.28,4.71,4.71,0,0,1-1.67,3.34c-.34.37-.73.81-1.06,1.21h2.71v2.56h-6.88Z"/><path class="cls-33" d="M489.57,385.89h5.18V388h-5.18Z"/><circle class="cls-29" cx="338.93" cy="383.14" r="17.34"/><text class="cls-30" transform="translate(324.44 388.59) rotate(0.29)"><tspan class="cls-31">M</tspan><tspan x="12.75" y="0">O4</tspan></text><path class="cls-32" d="M349,372.08c1.09-1.12,2.25-2.33,3.26-3.42a2.84,2.84,0,0,0,1-1.77,1,1,0,0,0-1-1c-.71,0-1.13.67-1.11,1.43l-2.54-.69a3.6,3.6,0,0,1,3.64-3.45,3.43,3.43,0,0,1,3.64,3.28,4.67,4.67,0,0,1-1.67,3.34c-.33.37-.72.81-1.06,1.21h2.72v2.56H349Z"/><path class="cls-33" d="M357,368.11h5.18v2.13H357Z"/><circle class="cls-29" cx="191.04" cy="416.27" r="17.34"/><text class="cls-30" transform="translate(176.55 421.72) rotate(0.29)"><tspan class="cls-31">M</tspan><tspan x="12.75" y="0">O4</tspan></text><path class="cls-32" d="M201.06,405.21c1.09-1.12,2.25-2.33,3.26-3.42a2.84,2.84,0,0,0,1-1.76,1,1,0,0,0-1-1c-.71,0-1.13.67-1.11,1.43l-2.54-.68a3.6,3.6,0,0,1,3.64-3.46,3.44,3.44,0,0,1,3.64,3.28,4.65,4.65,0,0,1-1.67,3.34l-1.06,1.21h2.72v2.56h-6.88Z"/><path class="cls-33" d="M209.14,401.24h5.18v2.13h-5.18Z"/><g class="cls-20"><circle class="cls-34" cx="130.43" cy="136.22" r="18.17"/><text class="cls-35" transform="translate(117.54 141.93) rotate(0.29)"><tspan class="cls-36">S</tspan><tspan x="8.77" y="0">O4</tspan></text></g><path class="cls-37" d="M140.94,125.32c1.14-1.17,2.36-2.44,3.42-3.59a3,3,0,0,0,1-1.85,1,1,0,0,0-1-1c-.75,0-1.18.7-1.17,1.49l-2.66-.72a3.78,3.78,0,0,1,3.82-3.62,3.6,3.6,0,0,1,3.81,3.44,4.86,4.86,0,0,1-1.75,3.5c-.35.4-.76.85-1.11,1.27h2.85v2.69h-7.21Z"/><circle class="cls-38" cx="75.79" cy="251.3" r="22.82"/><path class="cls-39" d="M89.36,235.63,99,236l-.14,3.79-9.59-.35Z"/><text class="cls-40" transform="translate(59.66 257.63) rotate(2.09)"><tspan class="cls-41">B</tspan><tspan x="12.31" y="0">O3</tspan></text><circle class="cls-38" cx="629.2" cy="51.72" r="22.82"/><path class="cls-39" d="M642.78,36.05l9.59.35-.14,3.78-9.59-.35Z"/><text class="cls-40" transform="translate(613.08 58.05) rotate(2.09)"><tspan class="cls-41">B</tspan><tspan x="12.31" y="0">O3</tspan></text><circle class="cls-38" cx="715.02" cy="362.83" r="22.82"/><path class="cls-39" d="M728.6,347.15l9.59.35-.14,3.79-9.59-.35Z"/><text class="cls-40" transform="translate(698.9 369.15) rotate(2.09)"><tspan class="cls-41">B</tspan><tspan x="12.31" y="0">O3</tspan></text><circle class="cls-38" cx="772.01" cy="215.18" r="22.82"/><path class="cls-39" d="M785.58,199.51l9.59.35-.14,3.78-9.59-.35Z"/><text class="cls-40" transform="translate(755.88 221.51) rotate(2.09)"><tspan class="cls-41">B</tspan><tspan x="12.31" y="0">O3</tspan></text><circle class="cls-38" cx="626.98" cy="491.61" r="22.82"/><path class="cls-39" d="M640.56,475.94l9.59.35-.14,3.78-9.59-.35Z"/><text class="cls-40" transform="translate(610.86 497.94) rotate(2.09)"><tspan class="cls-41">B</tspan><tspan x="12.31" y="0">O3</tspan></text><circle class="cls-42" cx="421.9" cy="226.24" r="14.61"/><path class="cls-43" d="M430.6,216.2l6.14.23-.09,2.42-6.14-.22Z"/><text class="cls-44" transform="translate(411.59 230.3) rotate(2.09)"><tspan class="cls-45">B</tspan><tspan x="7.88" y="0">O3</tspan></text><path class="cls-28" d="M150.21,121.59l5.65-.21.09,2.33-5.66.21Z"/><path class="cls-46" d="M516.76,210.9l2.08.07a1,1,0,0,1,0,1.93l-2.08.07a1,1,0,0,1-.07-2.07Z"/><path class="cls-46" d="M522.61,211.1l3.76.13a.71.71,0,0,1,.69.73.73.73,0,0,1-.69.69l-3.76.12a.84.84,0,1,1-.06-1.67Z"/><path class="cls-46" d="M530.14,211.35l3.77.13a.46.46,0,0,1,0,.91l-3.77.13a.59.59,0,0,1,0-1.17Z"/><path class="cls-46" d="M537.68,211.61l3.77.13a.19.19,0,0,1,.19.2.19.19,0,0,1-.19.19l-3.77.13a.32.32,0,0,1-.34-.31.34.34,0,0,1,.32-.34Z"/><path class="cls-46" d="M545.22,211.86l2.07.08-2.07.07a.08.08,0,0,1,0-.15Z"/><path class="cls-47" d="M494.3,218l-6.78.07-12.54.12a6.2,6.2,0,1,1-.12-12.4l12.54-.13,6.78-.06-.08-7.79-19.32.19a14,14,0,0,0,.28,28l19.31-.19Z"/><rect class="cls-48" x="486.35" y="197.89" width="7.79" height="7.79" transform="translate(687.25 -290.4) rotate(89.44)"/><rect class="cls-48" x="486.55" y="218.08" width="7.79" height="7.79" transform="translate(707.63 -270.61) rotate(89.44)"/><path class="cls-11" d="M497.27,202.18c.88.54,2-.07,2.91-.51s2.39-.47,2.66.53c.21.74-.43,1.66.09,2.23l4-2c.24-.13.56-.25.78-.08a.74.74,0,0,1,.22.43l.62,2.56a27.79,27.79,0,0,1,5.16-2.1"/><path class="cls-46" d="M498.14,200.76c-.06,0-.16,0,0,0a1.69,1.69,0,0,0,.61-.1l1-.36a4.74,4.74,0,0,1,1.48-.29,3.47,3.47,0,0,1,1.71.37,2.39,2.39,0,0,1,.84.78,2.33,2.33,0,0,1,.35,1.07,4.73,4.73,0,0,1-.2,1.35,1.74,1.74,0,0,1-.07.23s-.05-.09-.1-.11l-1.24-.23,3.88-1.63a6.17,6.17,0,0,1,.59-.23,1.24,1.24,0,0,1,1.09.14,1.23,1.23,0,0,1,.46.85l.09.52.35,2.07-.6-.27a27.82,27.82,0,0,1,5.35-1.73,27.64,27.64,0,0,0-5,2.47.4.4,0,0,1-.54-.12.36.36,0,0,1,0-.09l0-.06-.65-2-.16-.5c-.05-.18-.12-.18,0-.07s.18.05.09.1l-.37.21-3.59,2.2a1,1,0,0,1-1.15-.13l-.09-.1a1.79,1.79,0,0,1-.51-1.07,3.09,3.09,0,0,1,0-.81,1.75,1.75,0,0,0,0-.74c-.05,0,0,.17.05.18s-.17,0-.36.05a1.76,1.76,0,0,0-.55.22c-.22.12-.58.33-.94.51a4.83,4.83,0,0,1-1.41.48,3.15,3.15,0,0,1-2.07-.35,1.67,1.67,0,0,1,1.74-2.84Z"/><path class="cls-11" d="M497.52,221.74l3.16-1.36a1.43,1.43,0,0,1,.87-.17c.74.18.71,1.28,1.24,1.82a1.71,1.71,0,0,0,2.18-.16,11.91,11.91,0,0,1,1.85-1.5c1.18-.56,2.56,0,3.87.08s3-.73,2.72-2"/><path class="cls-46" d="M496.86,220.2l2.29-.75,1.17-.39a2.72,2.72,0,0,1,1.14-.17,2,2,0,0,1,1.38.7,3.77,3.77,0,0,1,.67,1.45c.11.29,0,.2.05.27a.7.7,0,0,0,.52,0,2.17,2.17,0,0,0,.35-.15,3.52,3.52,0,0,0,.42-.29c.3-.23.62-.52,1-.78a3.27,3.27,0,0,1,1.39-.53,6.68,6.68,0,0,1,2.57.34,7.2,7.2,0,0,0,1.12.23,3.17,3.17,0,0,0,1.1-.11,1.61,1.61,0,0,0,1.36-1.59,1.34,1.34,0,0,1-.23,1.18,2.55,2.55,0,0,1-1,.8,3.94,3.94,0,0,1-1.24.35,8.61,8.61,0,0,1-1.26,0,5.76,5.76,0,0,0-2.18.07c-.6.17-.95.65-1.53,1.3a5.63,5.63,0,0,1-.49.48,3.46,3.46,0,0,1-.67.46,2.73,2.73,0,0,1-1.82.28,2.1,2.1,0,0,1-1-.56,2.87,2.87,0,0,1-.56-.78c-.22-.45-.43-.81-.4-.69a.47.47,0,0,0,.32.2c.13,0,.1,0,0,.09l-1,.55-2.12,1.14a1.67,1.67,0,1,1-1.58-3A1.23,1.23,0,0,1,496.86,220.2Z"/></g></g></svg>