<svg xmlns="http://www.w3.org/2000/svg" viewBox="0 0 884 534"><defs><style>.cls-1{fill:#76b7da;}.cls-11,.cls-2,.cls-3,.cls-45,.cls-49{fill:#fecf08;}.cls-13,.cls-17,.cls-3,.cls-45,.cls-49{stroke:#2e61a2;}.cls-11,.cls-13,.cls-16,.cls-17,.cls-20,.cls-22,.cls-24,.cls-25,.cls-26,.cls-28,.cls-3,.cls-30,.cls-33,.cls-34,.cls-35,.cls-37,.cls-39,.cls-4,.cls-40,.cls-43,.cls-45,.cls-46,.cls-49,.cls-51,.cls-52,.cls-53,.cls-54,.cls-7,.cls-8{stroke-miterlimit:10;}.cls-3{stroke-width:1.55px;}.cls-34,.cls-4,.cls-46,.cls-51,.cls-52{fill:#2e61a2;}.cls-11,.cls-16,.cls-20,.cls-24,.cls-28,.cls-33,.cls-35,.cls-39,.cls-4,.cls-43,.cls-46,.cls-51,.cls-52{stroke:#fff;}.cls-4{stroke-width:0.46px;}.cls-5{font-size:19.9px;letter-spacing:-0.01em;}.cls-12,.cls-14,.cls-18,.cls-23,.cls-27,.cls-29,.cls-31,.cls-36,.cls-38,.cls-41,.cls-47,.cls-5,.cls-50,.cls-54,.cls-9{fill:#fff;}.cls-14,.cls-18,.cls-23,.cls-27,.cls-29,.cls-31,.cls-36,.cls-38,.cls-41,.cls-47,.cls-5{font-family:Acre-Bold, Acre;font-weight:700;}.cls-6{letter-spacing:0em;}.cls-7{fill:#966d55;}.cls-7,.cls-8{stroke:#5b5052;stroke-width:1.13px;}.cls-8{fill:#7c7172;}.cls-9{font-size:23.42px;font-family:Acre-Medium, Acre;font-weight:500;}.cls-10{letter-spacing:-0.03em;}.cls-11{stroke-width:0.22px;}.cls-13,.cls-17,.cls-35{fill:#3caba2;}.cls-13,.cls-22,.cls-30{stroke-width:1.63px;}.cls-14{font-size:28.2px;}.cls-15{letter-spacing:-0.01em;}.cls-16,.cls-20{fill:#2e6292;}.cls-16,.cls-33{stroke-width:0.54px;}.cls-17{stroke-width:1.37px;}.cls-18{font-size:23.73px;}.cls-19{letter-spacing:-0.01em;}.cls-20{stroke-width:0.46px;}.cls-21{letter-spacing:-0.01em;}.cls-22,.cls-28,.cls-37{fill:#6d54a3;}.cls-22,.cls-37{stroke:#ec6a7c;}.cls-23{font-size:25.91px;}.cls-24,.cls-39{fill:#ec6a7c;}.cls-24{stroke-width:0.33px;}.cls-25{fill:none;stroke:#5f5353;stroke-width:0.82px;}.cls-26{fill:#37904b;stroke:#6d54a3;stroke-width:0.83px;}.cls-27{font-size:13.44px;}.cls-28{stroke-width:0.32px;}.cls-29{font-size:13.44px;}.cls-30,.cls-33,.cls-40{fill:#f37243;}.cls-30,.cls-40{stroke:#fecf08;}.cls-31{font-size:28.2px;}.cls-32{letter-spacing:-0.02em;}.cls-34{stroke:#3caba2;stroke-width:1.22px;}.cls-35{stroke-width:0.56px;}.cls-36{font-size:18.96px;}.cls-37{stroke-width:2.34px;}.cls-38{font-size:37.21px;}.cls-39{stroke-width:0.5px;}.cls-40{stroke-width:1.34px;}.cls-41{font-size:23.2px;}.cls-42{letter-spacing:-0.02em;}.cls-43{fill:#f27243;stroke-width:0.45px;}.cls-44{letter-spacing:-0.01em;}.cls-45{stroke-width:1.64px;}.cls-46{stroke-width:0.49px;}.cls-47{font-size:21.07px;}.cls-48{letter-spacing:-0.01em;}.cls-49{stroke-width:0.41px;}.cls-50{font-size:12.19px;font-family:Acre-Semibold, Acre;font-weight:600;}.cls-51{stroke-width:0.19px;}.cls-52{stroke-width:0.13px;}.cls-53{fill:#da6a7c;}.cls-53,.cls-54{stroke:#d86b7d;stroke-width:1.05px;}</style></defs><g id="Layer_2" data-name="Layer 2"><g id="Layer_7" data-name="Layer 7"><rect class="cls-1" width="884" height="534"/><path class="cls-2" d="M461.64,226.07l2.21.07a1,1,0,0,1,1,1.07,1,1,0,0,1-1,1l-2.21.07a1.11,1.11,0,0,1-.07-2.21Z"/><path class="cls-2" d="M468.26,226.27l4.4.14a.78.78,0,0,1,.74.79.76.76,0,0,1-.74.73l-4.4.14a.9.9,0,1,1-.06-1.8Z"/><path class="cls-2" d="M477.07,226.55l4.4.14a.48.48,0,0,1,.47.5.49.49,0,0,1-.47.47l-4.4.13a.62.62,0,0,1,0-1.24Z"/><path class="cls-2" d="M485.88,226.83l4.4.13a.22.22,0,0,1,.21.22.22.22,0,0,1-.21.2l-4.4.14a.36.36,0,0,1-.36-.34.35.35,0,0,1,.34-.35Z"/><path class="cls-2" d="M494.69,227.1l2.21.07-2.21.07a.07.07,0,0,1-.07-.07.08.08,0,0,1,.07-.07Z"/><circle class="cls-3" cx="234.13" cy="170.49" r="19.8"/><path class="cls-4" d="M252.48,155.66h-3.7v3.66h-3.5v-3.66h-3.53v-3.43h3.53V148.6h3.5v3.63h3.7Z"/><text class="cls-5" transform="translate(221.07 177.41)">N<tspan class="cls-6" x="14.37" y="0">a</tspan></text><path class="cls-7" d="M209.65,248.3c-1.43,1.41-2.68,3.49-1.93,5.36a15.16,15.16,0,0,1,0,4.42,2.73,2.73,0,0,1-2.9,2.56l-17.9-1.3a7.78,7.78,0,0,1-3.11-.66,10.21,10.21,0,0,1-2.09-1.68c-3.86-3.58-9.26-4.94-14.52-4.78-23.76.77-47.16-3.16-70.45-7.89a2.72,2.72,0,0,1-2.15-2.83c.33-6.11.69-11.8-.23-17.86.19-.19-.25-.85,0-1-.17,1.76,2.13,3.32,3.87,3.82a24.47,24.47,0,0,0,5.62.54c8.19.48,16.54,4.95,24.67,4a2.82,2.82,0,0,1,.65,0,242.37,242.37,0,0,0,34.78,2.81c5.1,0,11,.25,14.25,4.12a6.61,6.61,0,0,0,5.47,2.47,162.78,162.78,0,0,1,18.08-.28c3.79.16,7.69.46,11.13,2.07a1.52,1.52,0,0,1,.77.63,1.29,1.29,0,0,1-.07,1C212.86,245.65,211.09,246.88,209.65,248.3Z"/><path class="cls-8" d="M380.23,214.77c-.22,1.45-1.41,2.34-2.8,3a22.72,22.72,0,0,1-2.35.91,28.12,28.12,0,0,0-8.87,5,3.66,3.66,0,0,0-1.42,1.91c-.41,2,2.21,3.76,1.92,5.85a3.89,3.89,0,0,1-1.86,2.5,6.77,6.77,0,0,1-1.67.9c-2.08.83-4.51.82-6.79.95a43.22,43.22,0,0,0-29.25,14,365.8,365.8,0,0,1-96.07,8.89,65.66,65.66,0,0,1-18.4-3.2c-1.64-.53-3.28-1.13-4.95-1.8-.75-1.87.5-3.95,1.93-5.36.34-.32.68-.64,1-1a9.82,9.82,0,0,0,2.88-3.59,1.29,1.29,0,0,0,.07-1,1.52,1.52,0,0,0-.77-.63c-3.44-1.61-7.34-1.91-11.13-2.07a161.91,161.91,0,0,0-19.33.38c-1.82.14-2.91-.93-4-2.35-3.25-4.08-9.24-4.3-14.43-4.34-4.92-.05-9.82-.25-14.73-.59s-9.6-.89-14.41-1.49c-2-.25-4.07-.47-6.11-.62s-3.89,0-5.82-.2a53.52,53.52,0,0,1-6.34-1.29c-4.19-1.07-8.36-2.37-12.69-2.62a24.47,24.47,0,0,1-5.62-.54c-1.74-.5-4-2.06-3.87-3.82a1.77,1.77,0,0,1,0-.21c.82-3.74,4.34-6.2,7.7-8,11.86-6.43,25.12-9.68,38.23-12.85A187.91,187.91,0,0,1,163.08,197c1.65-.19,3.32-.32,5-.45,4.3-.36,8.61-.69,12.91-1s9.25.61,13.45-.11c3-.51,6-1.45,9-2.18,9.15-2.24,18.63-2.59,28-2.92,7-.24,14,3.87,20.78,5.66,8.21,2.18,16.89,1,25.41,1.1a84.43,84.43,0,0,1,26.95,4.74c10.2,3.59,21.85,6.31,32.67,6.54,12.56.27,24.82-.79,37.29,1.55a10.7,10.7,0,0,1,3.91,1.35A3.8,3.8,0,0,1,380.23,214.77Z"/><path class="cls-7" d="M368.15,245.32a9.43,9.43,0,0,1-.55,3.92l-.05.07c-.84,1.76-2.73,2.78-4.59,3.41-4.32,1.48-9,1.47-13.44,2.55-5.5,1.35-10.88,4.31-15.56,7.47s-9.4,4.75-15,6.33a213.63,213.63,0,0,1-37.26,7.11,282.77,282.77,0,0,1-38,.95c-11.29-.39-25,.57-35.64-3.51a2.24,2.24,0,0,1-1.25-.87,2.42,2.42,0,0,1-.16-1.34c.39-5,1.08-9.78.92-14.7a2,2,0,0,1,2.62-2c.82.28,1.66.5,2.4.74a65.66,65.66,0,0,0,18.4,3.2A371.39,371.39,0,0,0,281.32,257q12.65-1.28,25.19-3.29c6.49-1,15.4-1.17,21-4.72,4.31-2.72,7.53-6.41,12.19-8.75a42.63,42.63,0,0,1,16.66-4.5c2.28-.13,4.71-.12,6.79-.95l.41-.16a7.29,7.29,0,0,0,1.26-.74,2,2,0,0,1,3.18,1.5c.06.73.06,1.47.07,2.19s0,1.36,0,2.05C368.13,241.51,368.14,243.41,368.15,245.32Z"/><path class="cls-7" d="M378.65,234.24a14,14,0,0,1-4,4,13.88,13.88,0,0,1-5.2,2.1,8.63,8.63,0,0,1-1.36-.68c0-.69,0-1.36,0-2.05,0-2.16,0-4.42-1.39-6.19.29-2.09-2.33-3.83-1.92-5.85a3.61,3.61,0,0,1,1.42-1.91,40.92,40.92,0,0,1,8.52-5.67c1.28-.7,3.19-1.77,5.5-3.18a38.81,38.81,0,0,1,.8,9C380.9,227.71,380.8,231,378.65,234.24Z"/><text class="cls-9" transform="translate(224.65 234.92)">cla<tspan class="cls-10" x="31.99" y="0">y</tspan></text><circle class="cls-11" cx="181.1" cy="203.15" r="4.46"/><rect class="cls-12" x="178.58" y="202.53" width="5.03" height="1.23"/><circle class="cls-11" cx="232.49" cy="197.64" r="4.46"/><rect class="cls-12" x="229.97" y="197.02" width="5.03" height="1.23"/><circle class="cls-11" cx="290.61" cy="205.59" r="4.46"/><rect class="cls-12" x="288.09" y="204.98" width="5.03" height="1.23"/><circle class="cls-11" cx="305.29" cy="210.49" r="4.46"/><rect class="cls-12" x="302.78" y="209.87" width="5.03" height="1.23"/><circle class="cls-11" cx="373.69" cy="228.33" r="4.46"/><rect class="cls-12" x="371.18" y="227.71" width="5.03" height="1.23"/><circle class="cls-11" cx="308.21" cy="262.88" r="4.46"/><rect class="cls-12" x="305.7" y="262.26" width="5.03" height="1.23"/><circle class="cls-11" cx="361.08" cy="243.44" r="4.46"/><rect class="cls-12" x="358.57" y="242.82" width="5.03" height="1.23"/><circle class="cls-11" cx="263.7" cy="268.18" r="4.46"/><rect class="cls-12" x="261.18" y="267.57" width="5.03" height="1.23"/><circle class="cls-11" cx="145.17" cy="241.51" r="4.46"/><rect class="cls-12" x="142.65" y="240.89" width="5.03" height="1.23"/><circle class="cls-11" cx="196.96" cy="250.03" r="4.46"/><rect class="cls-12" x="194.44" y="249.42" width="5.03" height="1.23"/><circle class="cls-11" cx="101.63" cy="233.5" r="4.46"/><rect class="cls-12" x="99.11" y="232.89" width="5.03" height="1.23"/><circle class="cls-11" cx="111.19" cy="240.89" r="4.46"/><rect class="cls-12" x="108.67" y="240.28" width="5.03" height="1.23"/><circle class="cls-13" cx="308.21" cy="177.14" r="26.46"/><text class="cls-14" transform="translate(287.23 185.96)"><tspan class="cls-15">M</tspan><tspan x="23.46" y="0">g</tspan></text><path class="cls-16" d="M319.74,160.49c1.69-1.74,3.49-3.61,5.07-5.31a4.4,4.4,0,0,0,1.48-2.73,1.48,1.48,0,0,0-1.48-1.49c-1.11,0-1.76,1-1.74,2.21l-3.93-1.06a5.59,5.59,0,0,1,5.64-5.36,5.33,5.33,0,0,1,5.65,5.09c0,2.1-1.06,3.61-2.59,5.17-.52.59-1.12,1.27-1.64,1.88h4.21v4H319.74Z"/><path class="cls-16" d="M340.56,157.37h-3v3h-2.84v-3h-2.86v-2.78h2.86v-2.93h2.84v2.93h3Z"/><circle class="cls-17" cx="588.11" cy="198.53" r="22.27"/><text class="cls-18" transform="translate(570.45 205.95)"><tspan class="cls-19">M</tspan><tspan x="19.75" y="0">g</tspan></text><path class="cls-20" d="M597.82,184.52c1.42-1.47,2.93-3.05,4.26-4.47a3.72,3.72,0,0,0,1.25-2.3,1.25,1.25,0,0,0-1.25-1.26c-.93,0-1.48.88-1.46,1.87l-3.31-.9a4.7,4.7,0,0,1,4.75-4.51,4.49,4.49,0,0,1,4.75,4.28,6.08,6.08,0,0,1-2.18,4.36c-.43.49-.94,1.06-1.38,1.58h3.54v3.34h-9Z"/><path class="cls-20" d="M615.34,181.89h-2.52v2.49h-2.39v-2.49H608v-2.34h2.4v-2.47h2.39v2.47h2.52Z"/><circle class="cls-17" cx="571.54" cy="91" r="22.27"/><text class="cls-18" transform="translate(553.87 98.42)"><tspan class="cls-19">M</tspan><tspan x="19.75" y="0">g</tspan></text><path class="cls-20" d="M581.24,77c1.42-1.46,2.94-3,4.26-4.46a3.72,3.72,0,0,0,1.25-2.31A1.25,1.25,0,0,0,585.5,69c-.93,0-1.47.87-1.46,1.86l-3.31-.89a4.71,4.71,0,0,1,4.75-4.51,4.49,4.49,0,0,1,4.75,4.28,6.12,6.12,0,0,1-2.17,4.36c-.44.49-.95,1.06-1.38,1.57h3.54V79h-9Z"/><path class="cls-20" d="M598.76,74.36h-2.52v2.49h-2.38V74.36h-2.41V72h2.41V69.55h2.38V72h2.52Z"/><circle class="cls-17" cx="528.72" cy="332.14" r="22.27"/><text class="cls-18" transform="translate(511.06 339.57)"><tspan class="cls-19">M</tspan><tspan x="19.75" y="0">g</tspan></text><path class="cls-20" d="M538.43,318.13c1.42-1.47,2.93-3,4.26-4.47a3.68,3.68,0,0,0,1.24-2.3,1.24,1.24,0,0,0-1.24-1.26c-.93,0-1.48.88-1.46,1.87l-3.32-.9a4.71,4.71,0,0,1,4.76-4.5,4.48,4.48,0,0,1,4.75,4.28,6.07,6.07,0,0,1-2.18,4.35l-1.38,1.58h3.54v3.35h-9Z"/><path class="cls-20" d="M555.94,315.5h-2.51V318H551v-2.5h-2.41v-2.33H551v-2.48h2.39v2.48h2.51Z"/><circle class="cls-17" cx="500.86" cy="471.3" r="22.27"/><text class="cls-18" transform="translate(483.2 478.72)"><tspan class="cls-19">M</tspan><tspan x="19.75" y="0">g</tspan></text><path class="cls-20" d="M510.56,457.29c1.42-1.47,2.94-3.05,4.26-4.47a3.72,3.72,0,0,0,1.25-2.3,1.25,1.25,0,0,0-1.25-1.26c-.93,0-1.47.88-1.45,1.87l-3.32-.9a4.72,4.72,0,0,1,4.75-4.51,4.5,4.5,0,0,1,4.76,4.28,6.08,6.08,0,0,1-2.18,4.36c-.44.49-1,1.06-1.38,1.58h3.54v3.34h-9Z"/><path class="cls-20" d="M528.08,454.66h-2.52v2.49h-2.38v-2.49h-2.41v-2.34h2.41v-2.47h2.38v2.47h2.52Z"/><circle class="cls-17" cx="341.63" cy="475.77" r="22.27"/><text class="cls-18" transform="translate(323.97 483.19)"><tspan class="cls-19">M</tspan><tspan x="19.75" y="0">g</tspan></text><path class="cls-20" d="M351.34,461.76c1.42-1.47,2.93-3.05,4.26-4.47a3.72,3.72,0,0,0,1.25-2.3,1.25,1.25,0,0,0-1.25-1.26c-.93,0-1.48.88-1.46,1.86l-3.31-.89a4.7,4.7,0,0,1,4.75-4.51,4.49,4.49,0,0,1,4.75,4.28,6.08,6.08,0,0,1-2.18,4.36c-.43.49-.94,1.06-1.38,1.58h3.54v3.34h-9Z"/><path class="cls-20" d="M368.85,459.13h-2.51v2.49H364v-2.49h-2.4v-2.34H364v-2.47h2.39v2.47h2.51Z"/><circle class="cls-17" cx="184.93" cy="463.85" r="22.27"/><text class="cls-18" transform="translate(167.27 471.28)"><tspan class="cls-21">M</tspan><tspan x="19.75" y="0">g</tspan></text><path class="cls-20" d="M194.64,449.84c1.42-1.46,2.93-3,4.26-4.47a3.68,3.68,0,0,0,1.24-2.3,1.24,1.24,0,0,0-1.24-1.25c-.93,0-1.48.87-1.46,1.86l-3.32-.89a4.71,4.71,0,0,1,4.76-4.51,4.48,4.48,0,0,1,4.75,4.28,6.06,6.06,0,0,1-2.18,4.35l-1.38,1.58h3.54v3.35h-9Z"/><path class="cls-20" d="M212.15,447.22h-2.51v2.49h-2.39v-2.49h-2.41v-2.34h2.41v-2.47h2.39v2.47h2.51Z"/><circle class="cls-22" cx="237.29" cy="271.42" r="17.64"/><text class="cls-23" transform="translate(229.57 280.22)">K</text><path class="cls-24" d="M252.43,258.47h-2.88v2.85h-2.74v-2.85h-2.75v-2.68h2.75V253h2.74v2.83h2.88Z"/><line class="cls-25" x1="344.35" y1="262.93" x2="342.48" y2="262.83"/><circle class="cls-26" cx="332.03" cy="263.3" r="14.15"/><text class="cls-27" transform="translate(321.36 269.69) rotate(-10.75)">NH4</text><path class="cls-28" d="M345,252.67l-2.33.44.45,2.36-1.92.36-.44-2.36-2.28.44-.35-1.87,2.27-.43-.43-2.29,1.92-.37.43,2.29,2.32-.44Z"/><line class="cls-25" x1="191.61" y1="182.78" x2="189.74" y2="182.56"/><circle class="cls-26" cx="179.28" cy="182.38" r="14.15"/><text class="cls-29" transform="matrix(0.99, -0.12, 0.12, 0.99, 168.24, 188.09)">NH4</text><path class="cls-28" d="M192.89,172.58l-2.35.29.3,2.39-1.93.24-.3-2.38-2.3.29-.23-1.89,2.29-.29-.29-2.31,1.94-.24.29,2.31,2.35-.3Z"/><circle class="cls-30" cx="100.25" cy="188.65" r="23.99"/><text class="cls-31" transform="matrix(0.96, -0.27, 0.27, 0.96, 85.83, 201.86)"><tspan class="cls-32">C</tspan><tspan x="16.64" y="0">a</tspan></text><path class="cls-33" d="M104.45,169.87c1-1.84,2.08-3.83,3-5.61a3.86,3.86,0,0,0,.61-2.63,1.3,1.3,0,0,0-1.59-.91,1.69,1.69,0,0,0-.94,2.26L102,163a4.87,4.87,0,0,1,3.49-5.79,4.63,4.63,0,0,1,5.9,2.95c.48,1.76,0,3.27-1,4.93-.3.61-.65,1.32-.94,1.95l3.52-1,.92,3.33L105,171.86Z"/><path class="cls-33" d="M121.14,162.45l-2.5.69.68,2.48-2.37.65-.68-2.47-2.39.66-.65-2.33,2.39-.66L115,159l2.37-.65.68,2.46,2.5-.7Z"/><circle class="cls-34" cx="169.26" cy="251.9" r="17.95"/><path class="cls-35" d="M177.17,240.75c1.19-1.23,2.47-2.56,3.58-3.76a3.12,3.12,0,0,0,1.05-1.94,1,1,0,0,0-1.05-1.05c-.78,0-1.24.73-1.22,1.57l-2.79-.76a4,4,0,0,1,4-3.79,3.77,3.77,0,0,1,4,3.6,5.11,5.11,0,0,1-1.83,3.66l-1.16,1.33h3v2.82h-7.55Z"/><path class="cls-35" d="M192.69,238.12h-2.31v2.28H188.2v-2.28H186V236h2.2v-2.26h2.18V236h2.31Z"/><text class="cls-36" transform="translate(156.92 257.63)">Cu</text><circle class="cls-37" cx="719.54" cy="274.43" r="25.33"/><text class="cls-38" transform="translate(708.46 287.07)">K</text><path class="cls-39" d="M742.24,255.51h-4.47v4.42h-4.24v-4.42h-4.27v-4.15h4.27V247h4.24v4.39h4.47Z"/><circle class="cls-37" cx="677.6" cy="64.04" r="25.33"/><text class="cls-38" transform="translate(666.52 76.68)">K</text><path class="cls-39" d="M700.3,45.12h-4.47v4.42h-4.24V45.12h-4.27V41h4.27V36.58h4.24V41h4.47Z"/><circle class="cls-37" cx="687.77" cy="407.34" r="25.33"/><text class="cls-38" transform="translate(676.69 419.97)">K</text><path class="cls-39" d="M710.47,388.42H706v4.42h-4.24v-4.42h-4.27v-4.16h4.27v-4.38H706v4.38h4.47Z"/><circle class="cls-37" cx="787.29" cy="99.39" r="25.33"/><text class="cls-38" transform="translate(776.21 112.02)">K</text><path class="cls-39" d="M810,80.47h-4.48v4.42h-4.23V80.47H797V76.32h4.27V71.93h4.23v4.39H810Z"/><circle class="cls-40" cx="514.56" cy="228.38" r="19.73"/><text class="cls-41" transform="translate(500.19 235.66)"><tspan class="cls-42">C</tspan><tspan x="13.69" y="0">a</tspan></text><path class="cls-43" d="M523.3,214.23c1.2-1.24,2.49-2.58,3.61-3.79a3.16,3.16,0,0,0,1.06-1.95,1.07,1.07,0,0,0-1.06-1.07c-.79,0-1.25.74-1.24,1.58l-2.81-.76a4,4,0,0,1,4-3.82,3.81,3.81,0,0,1,4,3.63,5.19,5.19,0,0,1-1.85,3.7c-.37.41-.8.9-1.17,1.33h3v2.84H523.3Z"/><path class="cls-43" d="M538.16,212H536v2.12h-2V212h-2v-2h2v-2.1h2V210h2.14Z"/><circle class="cls-40" cx="409.15" cy="426.73" r="19.73"/><text class="cls-41" transform="translate(394.78 434.01)"><tspan class="cls-42">C</tspan><tspan x="13.69" y="0">a</tspan></text><path class="cls-43" d="M417.88,412.58c1.21-1.24,2.49-2.58,3.62-3.79a3.16,3.16,0,0,0,1.06-2,1.06,1.06,0,0,0-1.06-1.07c-.79,0-1.25.74-1.24,1.58l-2.81-.76a4,4,0,0,1,4-3.82,3.8,3.8,0,0,1,4,3.63,5.14,5.14,0,0,1-1.84,3.69l-1.18,1.34h3v2.84h-7.62Z"/><path class="cls-43" d="M432.75,410.35h-2.14v2.12h-2v-2.12h-2v-2h2v-2.1h2v2.1h2.14Z"/><circle class="cls-40" cx="572.74" cy="403.62" r="19.73"/><text class="cls-41" transform="translate(558.37 410.9)"><tspan class="cls-42">C</tspan><tspan x="13.69" y="0">a</tspan></text><path class="cls-43" d="M581.48,389.46c1.2-1.24,2.49-2.58,3.61-3.79a3.09,3.09,0,0,0,1.06-1.95,1.05,1.05,0,0,0-1.06-1.06c-.79,0-1.25.74-1.23,1.58l-2.82-.76a4,4,0,0,1,4-3.82,3.8,3.8,0,0,1,4,3.63,5.15,5.15,0,0,1-1.85,3.69c-.37.42-.8.9-1.17,1.34h3v2.84h-7.61Z"/><path class="cls-43" d="M596.34,387.24H594.2v2.11h-2v-2.11h-2v-2h2v-2.1h2v2.1h2.14Z"/><circle class="cls-40" cx="489.84" cy="59.78" r="19.73"/><text class="cls-41" transform="translate(475.47 67.06)"><tspan class="cls-42">C</tspan><tspan x="13.69" y="0">a</tspan></text><path class="cls-43" d="M498.57,45.63c1.21-1.25,2.49-2.58,3.62-3.79a3.18,3.18,0,0,0,1.06-2,1.06,1.06,0,0,0-1.06-1.06c-.79,0-1.26.74-1.24,1.58l-2.81-.76a4,4,0,0,1,4-3.82,3.8,3.8,0,0,1,4,3.63,5.12,5.12,0,0,1-1.85,3.69l-1.17,1.34h3v2.84h-7.61Z"/><path class="cls-43" d="M513.43,43.4H511.3v2.11h-2V43.4h-2v-2h2v-2.1h2v2.1h2.13Z"/><circle class="cls-40" cx="264.39" cy="431.42" r="19.73"/><text class="cls-41" transform="translate(250.02 438.7)"><tspan class="cls-42">C</tspan><tspan x="13.69" y="0">a</tspan></text><path class="cls-43" d="M273.12,417.27c1.21-1.25,2.49-2.59,3.61-3.79a3.13,3.13,0,0,0,1.06-2,1.05,1.05,0,0,0-1.06-1.06c-.78,0-1.25.74-1.23,1.58l-2.81-.76a4,4,0,0,1,4-3.82,3.8,3.8,0,0,1,4,3.63,5.15,5.15,0,0,1-1.85,3.69l-1.17,1.34h3V419h-7.61Z"/><path class="cls-43" d="M288,415h-2.14v2.11h-2V415h-2v-2h2V411h2v2.1H288Z"/><circle class="cls-40" cx="90.73" cy="453.26" r="19.73"/><text class="cls-41" transform="translate(76.36 460.55)"><tspan class="cls-44">C</tspan><tspan x="13.69" y="0">a</tspan></text><path class="cls-43" d="M99.46,439.11c1.21-1.24,2.49-2.58,3.62-3.79a3.16,3.16,0,0,0,1.06-1.95,1.07,1.07,0,0,0-1.06-1.07c-.79,0-1.25.75-1.24,1.58L99,433.13a4,4,0,0,1,4-3.83,3.81,3.81,0,0,1,4,3.63,5.18,5.18,0,0,1-1.84,3.7c-.37.42-.81.9-1.18,1.34h3v2.83H99.46Z"/><path class="cls-43" d="M114.32,436.88h-2.13V439h-2v-2.12h-2v-2h2v-2.1h2v2.1h2.13Z"/><circle class="cls-40" cx="612.2" cy="300.98" r="19.73"/><text class="cls-41" transform="translate(597.83 308.26)"><tspan class="cls-42">C</tspan><tspan x="13.69" y="0">a</tspan></text><path class="cls-43" d="M620.94,286.82c1.2-1.24,2.49-2.58,3.61-3.79a3.16,3.16,0,0,0,1.06-1.95,1.06,1.06,0,0,0-1.06-1.06c-.79,0-1.25.74-1.24,1.58l-2.81-.76a4,4,0,0,1,4-3.83,3.81,3.81,0,0,1,4,3.63,5.18,5.18,0,0,1-1.84,3.7c-.37.42-.8.9-1.17,1.34h3v2.84h-7.61Z"/><path class="cls-43" d="M635.8,284.6h-2.14v2.11h-2V284.6h-2v-2h2v-2.09h2v2.09h2.14Z"/><circle class="cls-45" cx="701.64" cy="163.46" r="20.97"/><path class="cls-46" d="M721.07,147.76h-3.92v3.87h-3.71v-3.87H709.7v-3.63h3.74v-3.85h3.71v3.85h3.92Z"/><text class="cls-47" transform="translate(687.82 170.78)"><tspan class="cls-48">N</tspan><tspan x="15.21" y="0">a</tspan></text><circle class="cls-45" cx="797.98" cy="384.26" r="20.97"/><path class="cls-46" d="M817.41,368.56h-3.92v3.88h-3.71v-3.88H806v-3.63h3.74v-3.84h3.71v3.84h3.92Z"/><text class="cls-47" transform="translate(784.16 391.58)"><tspan class="cls-48">N</tspan><tspan x="15.21" y="0">a</tspan></text><circle class="cls-45" cx="801.12" cy="223.53" r="20.97"/><path class="cls-46" d="M820.54,207.83h-3.92v3.87h-3.7v-3.87h-3.74v-3.64h3.74v-3.84h3.7v3.84h3.92Z"/><text class="cls-47" transform="translate(787.29 230.85)"><tspan class="cls-48">N</tspan><tspan x="15.21" y="0">a</tspan></text><circle class="cls-45" cx="612.2" cy="484.3" r="20.97"/><path class="cls-46" d="M631.62,468.6h-3.91v3.87H624V468.6h-3.74V465H624v-3.84h3.71V465h3.91Z"/><text class="cls-47" transform="translate(598.37 491.62)"><tspan class="cls-48">N</tspan><tspan x="15.21" y="0">a</tspan></text><circle class="cls-49" cx="510.77" cy="146.02" r="9.81"/><text class="cls-50" transform="translate(504.62 150.15)">Al</text><path class="cls-51" d="M518.21,138.86a1.48,1.48,0,0,1-1.55,1.45,1.6,1.6,0,0,1-1.59-1.13l.95-.51a.69.69,0,0,0,.61.51.45.45,0,0,0,.47-.44.44.44,0,0,0-.46-.43.65.65,0,0,0-.4.12l-.41-.55.91-.85h-1.4v-1.1h2.6v1l-.66.64A1.36,1.36,0,0,1,518.21,138.86Z"/><path class="cls-52" d="M521.13,137.77h-.93v.94h-.77v-.94h-.91V137h.91v-.92h.77V137h.93Z"/><circle class="cls-49" cx="453.89" cy="354.6" r="9.81"/><text class="cls-50" transform="translate(447.74 358.73)">Al</text><path class="cls-51" d="M461.32,347.44a1.48,1.48,0,0,1-1.55,1.45,1.58,1.58,0,0,1-1.58-1.13l.95-.51a.68.68,0,0,0,.61.51.44.44,0,0,0,.46-.45.43.43,0,0,0-.46-.43.68.68,0,0,0-.4.13l-.4-.55.91-.86h-1.41v-1.09h2.6v1l-.66.65A1.34,1.34,0,0,1,461.32,347.44Z"/><path class="cls-52" d="M464.25,346.34h-.94v1h-.76v-1h-.91v-.74h.91v-.92h.76v.92h.94Z"/><circle class="cls-49" cx="341.48" cy="373.88" r="9.81"/><text class="cls-50" transform="translate(335.33 378.01)">Al</text><path class="cls-51" d="M348.92,366.73a1.47,1.47,0,0,1-1.55,1.44,1.6,1.6,0,0,1-1.59-1.12l1-.51a.69.69,0,0,0,.61.51.45.45,0,0,0,.47-.45.44.44,0,0,0-.46-.43.73.73,0,0,0-.4.12l-.41-.55.91-.85H346v-1.1h2.61v1l-.66.64A1.37,1.37,0,0,1,348.92,366.73Z"/><path class="cls-52" d="M351.84,365.63h-.93v.94h-.77v-.94h-.91v-.75h.91V364h.77v.91h.93Z"/><circle class="cls-49" cx="166.65" cy="393.82" r="9.81"/><text class="cls-50" transform="translate(160.5 397.95)">Al</text><path class="cls-51" d="M174.09,386.67a1.47,1.47,0,0,1-1.55,1.44A1.6,1.6,0,0,1,171,387l1-.51a.67.67,0,0,0,.6.51.45.45,0,0,0,.47-.45.43.43,0,0,0-.46-.43.73.73,0,0,0-.4.12l-.41-.55.91-.85h-1.4v-1.1h2.6v1l-.66.64A1.34,1.34,0,0,1,174.09,386.67Z"/><path class="cls-52" d="M177,385.57h-.93v.94h-.77v-.94h-.91v-.75h.91v-.92h.77v.92H177Z"/><circle class="cls-49" cx="417.24" cy="89.12" r="9.81"/><text class="cls-50" transform="translate(411.08 93.25)">Al</text><path class="cls-51" d="M424.67,82a1.48,1.48,0,0,1-1.55,1.45,1.6,1.6,0,0,1-1.59-1.13l1-.51a.67.67,0,0,0,.6.51.45.45,0,0,0,.47-.44.43.43,0,0,0-.46-.43.65.65,0,0,0-.4.12l-.4-.55.91-.85H421.8V79h2.6v1l-.66.64A1.34,1.34,0,0,1,424.67,82Z"/><path class="cls-52" d="M427.59,80.87h-.93v.94h-.77v-.94H425v-.75h.91V79.2h.77v.92h.93Z"/><path class="cls-53" d="M435.68,234.23l-7.83.07-14.48.15a7.17,7.17,0,1,1-.14-14.33l14.48-.15,7.83-.07-.08-9-22.32.22a16.16,16.16,0,0,0,.31,32.32l22.32-.22Z"/><rect class="cls-54" x="426.5" y="210.95" width="8.99" height="8.99" transform="translate(642.24 -217.63) rotate(89.44)"/><rect class="cls-54" x="426.73" y="234.27" width="8.99" height="8.99" transform="translate(665.79 -194.76) rotate(89.44)"/><path class="cls-12" d="M439.11,215.9c1,.62,2.29-.08,3.37-.58s2.76-.55,3.07.6c.24.86-.49,1.93.11,2.58l4.57-2.34c.28-.14.65-.28.9-.09a.86.86,0,0,1,.25.5l.73,3a32.45,32.45,0,0,1,5.95-2.43"/><path class="cls-2" d="M440.05,214.38c-.05,0-.12.05,0,.06a2.09,2.09,0,0,0,.74-.14c.34-.11.65-.24,1.13-.42a5.07,5.07,0,0,1,1.68-.33,3.79,3.79,0,0,1,1.9.41,2.74,2.74,0,0,1,.94.86,2.6,2.6,0,0,1,.38,1.18,4.49,4.49,0,0,1-.22,1.53l-.07.31s-.05-.07-.09-.09l-1.33-.24,4.48-1.91a5.68,5.68,0,0,1,.66-.26,1.36,1.36,0,0,1,1.22.15,1.43,1.43,0,0,1,.51.94l.1.6.42,2.4-.64-.29a32.47,32.47,0,0,1,6.16-2,32.27,32.27,0,0,0-5.75,2.82.4.4,0,0,1-.57-.13.36.36,0,0,1,0-.09l0-.06-.74-2.32-.19-.58c-.05-.2-.13-.22,0-.11s.15.05,0,.1l-.43.25-4.16,2.51a1,1,0,0,1-1.23-.14l-.1-.1a2.09,2.09,0,0,1-.56-1.18,3.9,3.9,0,0,1,0-.91,2.56,2.56,0,0,0,0-.89c-.06,0,0,.13,0,.13a2.42,2.42,0,0,0-.47,0,2.23,2.23,0,0,0-.68.26c-.27.14-.68.38-1.09.58a5.68,5.68,0,0,1-1.59.54,3.57,3.57,0,0,1-2.31-.39,1.78,1.78,0,0,1,1.87-3Z"/><path class="cls-12" d="M439.41,238.49l3.65-1.56a1.61,1.61,0,0,1,1-.2c.85.21.82,1.48,1.44,2.11a2,2,0,0,0,2.51-.19,13.51,13.51,0,0,1,2.14-1.73c1.37-.65,3,0,4.47.08s3.44-.83,3.14-2.31"/><path class="cls-2" d="M438.7,236.86l2.63-.89,1.35-.46a3.18,3.18,0,0,1,1.28-.19,2.25,2.25,0,0,1,1.52.77,4.31,4.31,0,0,1,.75,1.64c.14.35.07.28.12.36a.89.89,0,0,0,.66,0,2.08,2.08,0,0,0,.43-.19,5.52,5.52,0,0,0,.49-.34c.34-.27.71-.6,1.16-.9a3.73,3.73,0,0,1,1.58-.61,8,8,0,0,1,3,.37,9.21,9.21,0,0,0,1.29.26,3.73,3.73,0,0,0,1.28-.14,1.85,1.85,0,0,0,1.56-1.85,1.53,1.53,0,0,1-.27,1.36,2.94,2.94,0,0,1-1.13.9,4.28,4.28,0,0,1-1.43.4,9.8,9.8,0,0,1-1.45,0,6.87,6.87,0,0,0-2.54.06c-.7.19-1.13.76-1.8,1.5a5.86,5.86,0,0,1-.56.55,3.68,3.68,0,0,1-.77.51,3,3,0,0,1-2,.32,2.42,2.42,0,0,1-1.14-.62,3.35,3.35,0,0,1-.63-.89c-.25-.5-.48-.93-.48-.82a.52.52,0,0,0,.31.19c.12,0,.07,0-.07.1l-1.2.63-2.45,1.3a1.79,1.79,0,1,1-1.67-3.16Z"/></g></g></svg>