<svg xmlns="http://www.w3.org/2000/svg" viewBox="0 0 812.81 710.81"><defs><style>.cls-1,.cls-12,.cls-14,.cls-18,.cls-21,.cls-24,.cls-28,.cls-30,.cls-32,.cls-37,.cls-39,.cls-42,.cls-45,.cls-49,.cls-5,.cls-52,.cls-56,.cls-9{fill:#fff;}.cls-1{stroke:#5c5052;stroke-width:0.81px;}.cls-1,.cls-11,.cls-13,.cls-16,.cls-17,.cls-20,.cls-23,.cls-25,.cls-26,.cls-27,.cls-29,.cls-3,.cls-31,.cls-34,.cls-35,.cls-36,.cls-38,.cls-4,.cls-40,.cls-41,.cls-44,.cls-47,.cls-48,.cls-51,.cls-53,.cls-54,.cls-55,.cls-56,.cls-63,.cls-7,.cls-8{stroke-miterlimit:10;}.cls-11,.cls-2,.cls-3,.cls-47,.cls-51{fill:#fecf08;}.cls-13,.cls-17,.cls-3,.cls-47,.cls-51{stroke:#2e61a2;}.cls-3{stroke-width:1.55px;}.cls-35,.cls-4,.cls-48,.cls-53,.cls-54{fill:#2e61a2;}.cls-11,.cls-16,.cls-20,.cls-25,.cls-29,.cls-34,.cls-36,.cls-4,.cls-40,.cls-44,.cls-48,.cls-53,.cls-54{stroke:#fff;}.cls-4{stroke-width:0.46px;}.cls-5{font-size:18.39px;}.cls-14,.cls-18,.cls-21,.cls-24,.cls-28,.cls-30,.cls-32,.cls-37,.cls-39,.cls-42,.cls-45,.cls-49,.cls-5{font-family:Acre-Bold, Acre;font-weight:700;}.cls-6{letter-spacing:-0.01em;}.cls-7{fill:#966d55;}.cls-7,.cls-8{stroke:#5b5052;stroke-width:1.13px;}.cls-8{fill:#7c7172;}.cls-9{font-size:21.64px;font-family:Acre-Medium, Acre;font-weight:500;}.cls-10{letter-spacing:-0.03em;}.cls-11{stroke-width:0.22px;}.cls-13,.cls-17,.cls-36{fill:#3caba2;}.cls-13,.cls-23,.cls-31{stroke-width:1.63px;}.cls-14{font-size:26.07px;}.cls-15{letter-spacing:-0.01em;}.cls-16,.cls-20{fill:#2e6292;}.cls-16,.cls-34{stroke-width:0.54px;}.cls-17{stroke-width:1.37px;}.cls-18,.cls-21{font-size:21.94px;}.cls-19{letter-spacing:-0.01em;}.cls-20{stroke-width:0.46px;}.cls-21{letter-spacing:-0.01em;}.cls-22{letter-spacing:0em;}.cls-23,.cls-29,.cls-38{fill:#6d54a3;}.cls-23,.cls-38{stroke:#ec6a7c;}.cls-24{font-size:23.95px;}.cls-25,.cls-40{fill:#ec6a7c;}.cls-25{stroke-width:0.33px;}.cls-26{fill:none;stroke:#5f5353;stroke-width:0.82px;}.cls-27{fill:#37904b;stroke:#6d54a3;stroke-width:0.83px;}.cls-28{font-size:12.43px;}.cls-29{stroke-width:0.32px;}.cls-30{font-size:12.43px;}.cls-31,.cls-34,.cls-41{fill:#f37243;}.cls-31,.cls-41{stroke:#fecf08;}.cls-32{font-size:26.07px;}.cls-33{letter-spacing:-0.02em;}.cls-35{stroke:#3caba2;stroke-width:1.22px;}.cls-36{stroke-width:0.56px;}.cls-37{font-size:17.52px;}.cls-38{stroke-width:2.34px;}.cls-39{font-size:34.39px;}.cls-40{stroke-width:0.5px;}.cls-41{stroke-width:1.34px;}.cls-42,.cls-45{font-size:21.44px;}.cls-43{letter-spacing:-0.01em;}.cls-44{fill:#f27243;stroke-width:0.45px;}.cls-45{letter-spacing:-0.01em;}.cls-46{letter-spacing:0em;}.cls-47{stroke-width:1.64px;}.cls-48{stroke-width:0.49px;}.cls-49{font-size:19.47px;}.cls-50{letter-spacing:-0.01em;}.cls-51{stroke-width:0.41px;}.cls-52{font-size:11.27px;font-family:Acre-Semibold, Acre;font-weight:600;}.cls-53{stroke-width:0.19px;}.cls-54{stroke-width:0.13px;}.cls-55{fill:#da6a7c;}.cls-55,.cls-56{stroke:#d86b7d;stroke-width:1.05px;}.cls-57{font-size:60.51px;font-family:Acre-Light, Acre;font-weight:300;}.cls-57,.cls-63{fill:#df6572;}.cls-58{letter-spacing:0em;}.cls-59{letter-spacing:-0.03em;}.cls-60{letter-spacing:0em;}.cls-61{letter-spacing:-0.01em;}.cls-62{letter-spacing:-0.02em;}.cls-63{stroke:#df6572;stroke-width:1.4px;}</style></defs><g id="Layer_2" data-name="Layer 2"><g id="Layer_7" data-name="Layer 7"><rect class="cls-1" x="0.41" y="0.41" width="812" height="710"/><path class="cls-2" d="M422.07,383.29l2.21.08a1,1,0,0,1,0,2.06l-2.21.08a1.11,1.11,0,0,1-.08-2.22Z"/><path class="cls-2" d="M428.3,383.5l4,.14a.76.76,0,0,1,0,1.52l-4,.13a.89.89,0,0,1-.92-.86.9.9,0,0,1,.86-.93Z"/><path class="cls-2" d="M436.35,383.78l4,.13a.49.49,0,0,1,.47.51.47.47,0,0,1-.47.46l-4,.14a.62.62,0,1,1,0-1.24Z"/><path class="cls-2" d="M444.4,384.05l4,.14a.21.21,0,0,1,.21.22.22.22,0,0,1-.21.2l-4,.14a.36.36,0,0,1-.36-.34.35.35,0,0,1,.34-.36Z"/><path class="cls-2" d="M452.45,384.32l2.21.08-2.21.07a.07.07,0,0,1-.08-.07.08.08,0,0,1,.07-.08Z"/><circle class="cls-3" cx="211.8" cy="332.01" r="18.3"/><path class="cls-4" d="M228.75,318.31h-3.42v3.38H222.1v-3.38h-3.27v-3.18h3.27v-3.35h3.23v3.35h3.42Z"/><text class="cls-5" transform="translate(199.72 338.4)"><tspan class="cls-6">N</tspan><tspan x="13.28" y="0">a</tspan></text><path class="cls-7" d="M189.17,403.93c-1.33,1.3-2.48,3.22-1.79,4.95a14,14,0,0,1,0,4.09,2.51,2.51,0,0,1-2.68,2.36l-16.55-1.2a7.17,7.17,0,0,1-2.87-.61,9.3,9.3,0,0,1-1.93-1.56c-3.57-3.3-8.56-4.55-13.42-4.41-22,.71-43.59-2.92-65.11-7.3a2.5,2.5,0,0,1-2-2.61c.31-5.65.64-10.91-.21-16.5.17-.18-.24-.79,0-1-.16,1.63,2,3.07,3.58,3.53a22.46,22.46,0,0,0,5.19.5c7.57.45,15.28,4.57,22.81,3.69a2.41,2.41,0,0,1,.6,0,224.43,224.43,0,0,0,32.14,2.6c4.71,0,10.13.23,13.17,3.81a6.11,6.11,0,0,0,5,2.28,150.43,150.43,0,0,1,16.72-.26c3.5.14,7.1.43,10.28,1.92a1.34,1.34,0,0,1,.72.58,1.23,1.23,0,0,1-.07.9C192.13,401.48,190.49,402.62,189.17,403.93Z"/><path class="cls-8" d="M346.82,372.94a3.85,3.85,0,0,1-2.58,2.74,18.79,18.79,0,0,1-2.18.84,26.14,26.14,0,0,0-8.2,4.6,3.4,3.4,0,0,0-1.31,1.76c-.38,1.87,2.05,3.48,1.77,5.41a3.51,3.51,0,0,1-1.71,2.31,6.27,6.27,0,0,1-1.55.83,20.06,20.06,0,0,1-6.27.88,40,40,0,0,0-27,13,338.47,338.47,0,0,1-88.8,8.23,60.72,60.72,0,0,1-17-3c-1.52-.48-3-1-4.58-1.66-.69-1.73.46-3.65,1.79-4.95.31-.3.62-.6,1-.88a9.11,9.11,0,0,0,2.66-3.32,1.23,1.23,0,0,0,.07-.9,1.34,1.34,0,0,0-.72-.58c-3.18-1.49-6.78-1.78-10.28-1.92a150.1,150.1,0,0,0-17.87.35c-1.68.13-2.69-.85-3.73-2.17-3-3.77-8.54-4-13.34-4q-6.82-.08-13.61-.55c-4.48-.31-8.88-.82-13.33-1.38-1.88-.23-3.76-.43-5.64-.56s-3.6,0-5.38-.19a52,52,0,0,1-5.86-1.19c-3.87-1-7.73-2.2-11.73-2.43a22.46,22.46,0,0,1-5.19-.5c-1.61-.46-3.74-1.9-3.58-3.53a1.48,1.48,0,0,1,0-.19c.76-3.46,4-5.73,7.12-7.42,11-5.94,23.21-8.95,35.33-11.88a173.61,173.61,0,0,1,21.05-4.14c1.53-.18,3.07-.3,4.62-.42l11.93-1c3.93-.31,8.55.57,12.43-.09,2.8-.48,5.52-1.34,8.28-2,8.45-2.07,17.22-2.4,25.9-2.71,6.44-.21,13,3.59,19.21,5.24,7.59,2,15.62.92,23.49,1a78.17,78.17,0,0,1,24.9,4.39c9.43,3.31,20.2,5.83,30.2,6,11.61.25,22.94-.73,34.47,1.44a9.69,9.69,0,0,1,3.61,1.24A3.49,3.49,0,0,1,346.82,372.94Z"/><path class="cls-7" d="M335.66,401.17a8.66,8.66,0,0,1-.51,3.62s0,0,0,.07a6.94,6.94,0,0,1-4.25,3.15c-4,1.37-8.32,1.36-12.42,2.36-5.08,1.24-10.06,4-14.38,6.9s-8.69,4.39-13.84,5.86a198.5,198.5,0,0,1-34.43,6.57,261.6,261.6,0,0,1-35.08.87c-10.43-.36-23.08.53-32.94-3.24a2,2,0,0,1-1.16-.81,2.31,2.31,0,0,1-.15-1.23c.36-4.65,1-9,.86-13.59a1.85,1.85,0,0,1,2.42-1.84c.76.26,1.54.46,2.22.68a60.72,60.72,0,0,0,17,3A343.07,343.07,0,0,0,255.41,412c7.79-.77,15.55-1.8,23.28-3,6-1,14.23-1.08,19.44-4.36,4-2.52,6.95-5.93,11.26-8.1a39.55,39.55,0,0,1,15.4-4.15,20.06,20.06,0,0,0,6.27-.88,3.34,3.34,0,0,0,.38-.15,6.86,6.86,0,0,0,1.17-.68,1.86,1.86,0,0,1,2.94,1.39c.05.67.06,1.35.06,2s0,1.26,0,1.9C335.64,397.65,335.65,399.41,335.66,401.17Z"/><path class="cls-7" d="M345.36,390.93a12.93,12.93,0,0,1-8.48,5.6,8.15,8.15,0,0,1-1.26-.62c0-.64,0-1.26,0-1.9,0-2,0-4.08-1.29-5.72.28-1.93-2.15-3.54-1.77-5.41a3.39,3.39,0,0,1,1.31-1.76,37.81,37.81,0,0,1,7.88-5.24c1.19-.65,2.95-1.64,5.08-2.94a35.13,35.13,0,0,1,.74,8.32C347.45,384.9,347.35,387.92,345.36,390.93Z"/><text class="cls-9" transform="translate(203.03 391.56)">cla<tspan class="cls-10" x="29.57" y="0">y</tspan></text><circle class="cls-11" cx="162.78" cy="362.19" r="4.12"/><rect class="cls-12" x="160.45" y="361.62" width="4.65" height="1.14"/><circle class="cls-11" cx="210.27" cy="357.1" r="4.12"/><rect class="cls-12" x="207.95" y="356.53" width="4.65" height="1.14"/><circle class="cls-11" cx="263.99" cy="364.45" r="4.12"/><rect class="cls-12" x="261.67" y="363.88" width="4.65" height="1.14"/><circle class="cls-11" cx="277.56" cy="368.98" r="4.12"/><rect class="cls-12" x="275.24" y="368.41" width="4.65" height="1.14"/><circle class="cls-11" cx="340.78" cy="385.47" r="4.12"/><rect class="cls-12" x="338.46" y="384.9" width="4.65" height="1.14"/><circle class="cls-11" cx="280.26" cy="417.4" r="4.12"/><rect class="cls-12" x="277.94" y="416.83" width="4.65" height="1.14"/><circle class="cls-11" cx="329.13" cy="399.44" r="4.12"/><rect class="cls-12" x="326.8" y="398.86" width="4.65" height="1.14"/><circle class="cls-11" cx="239.12" cy="422.3" r="4.12"/><rect class="cls-12" x="236.79" y="421.73" width="4.65" height="1.14"/><circle class="cls-11" cx="129.57" cy="397.65" r="4.12"/><rect class="cls-12" x="127.25" y="397.08" width="4.65" height="1.14"/><circle class="cls-11" cx="177.43" cy="405.53" r="4.12"/><rect class="cls-12" x="175.11" y="404.96" width="4.65" height="1.14"/><circle class="cls-11" cx="89.32" cy="390.25" r="4.12"/><rect class="cls-12" x="87" y="389.68" width="4.65" height="1.14"/><circle class="cls-11" cx="98.16" cy="397.08" r="4.12"/><rect class="cls-12" x="95.84" y="396.51" width="4.65" height="1.14"/><circle class="cls-13" cx="280.26" cy="338.16" r="24.45"/><text class="cls-14" transform="translate(260.87 346.31)"><tspan class="cls-15">M</tspan><tspan x="21.69" y="0">g</tspan></text><path class="cls-16" d="M290.92,322.77c1.56-1.61,3.22-3.34,4.68-4.91a4,4,0,0,0,1.37-2.52A1.37,1.37,0,0,0,295.6,314c-1,0-1.62,1-1.6,2l-3.64-1a5.17,5.17,0,0,1,5.22-4.95,4.93,4.93,0,0,1,5.22,4.7c0,1.94-1,3.34-2.39,4.78-.48.55-1,1.17-1.52,1.74h3.89V325h-9.86Z"/><path class="cls-16" d="M310.16,319.89h-2.77v2.73h-2.62v-2.73h-2.64v-2.57h2.64V314.6h2.62v2.72h2.77Z"/><circle class="cls-17" cx="538.96" cy="357.93" r="20.58"/><text class="cls-18" transform="translate(522.64 364.79)"><tspan class="cls-19">M</tspan><tspan x="18.25" y="0">g</tspan></text><path class="cls-20" d="M547.93,345c1.31-1.35,2.71-2.81,3.94-4.13a3.4,3.4,0,0,0,1.15-2.12,1.15,1.15,0,0,0-1.15-1.16c-.86,0-1.37.81-1.35,1.72l-3.06-.83a4.35,4.35,0,0,1,4.39-4.16,4.14,4.14,0,0,1,4.39,3.95,5.61,5.61,0,0,1-2,4c-.4.45-.87,1-1.28,1.46h3.28v3.09h-8.3Z"/><path class="cls-20" d="M564.12,342.55H561.8v2.3h-2.21v-2.3h-2.22v-2.16h2.22V338.1h2.21v2.29h2.32Z"/><circle class="cls-17" cx="523.64" cy="258.54" r="20.58"/><text class="cls-21" transform="translate(507.32 265.4)">M<tspan class="cls-22" x="18.25" y="0">g</tspan></text><path class="cls-20" d="M532.61,245.59c1.31-1.36,2.71-2.81,3.94-4.13a3.44,3.44,0,0,0,1.15-2.13,1.16,1.16,0,0,0-1.15-1.16c-.86,0-1.37.81-1.35,1.72l-3.06-.82a4.36,4.36,0,0,1,4.39-4.17,4.14,4.14,0,0,1,4.39,4,5.61,5.61,0,0,1-2,4l-1.28,1.46h3.27v3.09h-8.29Z"/><path class="cls-20" d="M548.8,243.16h-2.33v2.31h-2.2v-2.31h-2.22V241h2.22v-2.28h2.2V241h2.33Z"/><circle class="cls-17" cx="484.07" cy="481.42" r="20.58"/><text class="cls-21" transform="translate(467.74 488.28)">M<tspan class="cls-22" x="18.25" y="0">g</tspan></text><path class="cls-20" d="M493,468.47c1.31-1.36,2.71-2.82,3.93-4.13a3.41,3.41,0,0,0,1.16-2.13,1.16,1.16,0,0,0-1.16-1.16c-.85,0-1.36.81-1.34,1.72l-3.06-.82a4.34,4.34,0,0,1,4.39-4.17,4.15,4.15,0,0,1,4.39,4,5.61,5.61,0,0,1-2,4c-.41.46-.88,1-1.28,1.46h3.27v3.09H493Z"/><path class="cls-20" d="M509.23,466H506.9v2.3h-2.2V466h-2.23v-2.16h2.23v-2.29h2.2v2.29h2.33Z"/><circle class="cls-17" cx="458.32" cy="610.03" r="20.58"/><text class="cls-18" transform="translate(441.99 616.89)"><tspan class="cls-19">M</tspan><tspan x="18.25" y="0">g</tspan></text><path class="cls-20" d="M467.29,597.08c1.31-1.35,2.71-2.81,3.93-4.13a3.41,3.41,0,0,0,1.16-2.12,1.15,1.15,0,0,0-1.16-1.16c-.86,0-1.36.8-1.34,1.72l-3.07-.83a4.35,4.35,0,0,1,4.4-4.16,4.14,4.14,0,0,1,4.39,4,5.67,5.67,0,0,1-2,4c-.41.45-.88,1-1.28,1.46h3.27v3.09h-8.29Z"/><path class="cls-20" d="M483.48,594.66h-2.33V597h-2.21v-2.3h-2.22V592.5h2.22v-2.29h2.21v2.29h2.33Z"/><circle class="cls-17" cx="311.15" cy="614.16" r="20.58"/><text class="cls-18" transform="translate(294.83 621.02)"><tspan class="cls-19">M</tspan><tspan x="18.25" y="0">g</tspan></text><path class="cls-20" d="M320.12,601.21c1.31-1.35,2.71-2.81,3.94-4.13a3.45,3.45,0,0,0,1.15-2.12,1.15,1.15,0,0,0-1.15-1.16c-.86,0-1.37.81-1.35,1.72l-3.06-.83a4.35,4.35,0,0,1,4.39-4.16,4.14,4.14,0,0,1,4.39,4,5.63,5.63,0,0,1-2,4c-.4.45-.87,1-1.28,1.46h3.27v3.09h-8.29Z"/><path class="cls-20" d="M336.31,598.79H334v2.3h-2.2v-2.3h-2.22v-2.16h2.22v-2.29H334v2.29h2.33Z"/><circle class="cls-17" cx="166.32" cy="603.15" r="20.58"/><text class="cls-21" transform="translate(149.99 610.01)">M<tspan class="cls-22" x="18.25" y="0">g</tspan></text><path class="cls-20" d="M175.29,590.2c1.31-1.35,2.71-2.81,3.94-4.13a3.45,3.45,0,0,0,1.15-2.12,1.15,1.15,0,0,0-1.15-1.16c-.86,0-1.37.8-1.35,1.72l-3.06-.83a4.33,4.33,0,0,1,4.39-4.16,4.14,4.14,0,0,1,4.39,4,5.63,5.63,0,0,1-2,4c-.4.45-.88,1-1.28,1.46h3.27v3.09h-8.29Z"/><path class="cls-20" d="M191.48,587.78h-2.33v2.3H187v-2.3h-2.23v-2.16H187v-2.29h2.2v2.29h2.33Z"/><circle class="cls-23" cx="214.71" cy="425.29" r="16.3"/><text class="cls-24" transform="translate(207.58 433.43)">K</text><path class="cls-25" d="M228.71,413.32H226V416h-2.53v-2.64H221v-2.47h2.54v-2.62H226v2.62h2.67Z"/><line class="cls-26" x1="313.66" y1="417.45" x2="311.93" y2="417.35"/><circle class="cls-27" cx="302.28" cy="417.79" r="13.08"/><text class="cls-28" transform="translate(292.4 423.67) rotate(-10.75)">NH4</text><path class="cls-29" d="M314.26,408l-2.15.41.42,2.18-1.77.34-.42-2.18-2.1.4-.33-1.73,2.1-.4-.4-2.11,1.77-.34.41,2.12,2.15-.41Z"/><line class="cls-26" x1="172.49" y1="343.37" x2="170.77" y2="343.17"/><circle class="cls-27" cx="161.1" cy="343" r="13.08"/><text class="cls-30" transform="translate(150.89 348.28) rotate(-7.17)">NH4</text><path class="cls-29" d="M173.68,333.94l-2.17.27.28,2.21-1.8.22-.27-2.2-2.12.27-.22-1.75,2.12-.26-.27-2.14,1.79-.23.27,2.14,2.17-.27Z"/><circle class="cls-31" cx="88.06" cy="348.8" r="22.17"/><text class="cls-32" transform="matrix(0.96, -0.27, 0.27, 0.96, 74.73, 361)"><tspan class="cls-33">C</tspan><tspan x="15.38" y="0">a</tspan></text><path class="cls-34" d="M91.94,331.44c.93-1.71,1.92-3.54,2.77-5.19a3.55,3.55,0,0,0,.57-2.43,1.19,1.19,0,0,0-1.47-.83,1.55,1.55,0,0,0-.87,2.08l-3.27,0a4.5,4.5,0,0,1,3.22-5.35,4.29,4.29,0,0,1,5.46,2.72,5.81,5.81,0,0,1-.9,4.56c-.27.56-.6,1.22-.87,1.8l3.26-.9.85,3.07-8.25,2.28Z"/><path class="cls-34" d="M107.36,324.58l-2.31.64.63,2.29-2.19.6-.63-2.29-2.21.61-.6-2.14,2.21-.61-.63-2.28,2.2-.6.62,2.27,2.32-.64Z"/><circle class="cls-35" cx="151.84" cy="407.26" r="16.59"/><path class="cls-36" d="M159.14,397c1.11-1.14,2.29-2.37,3.32-3.48a2.87,2.87,0,0,0,1-1.79,1,1,0,0,0-1-1c-.73,0-1.15.68-1.14,1.45l-2.57-.7a3.65,3.65,0,0,1,3.69-3.5,3.49,3.49,0,0,1,3.7,3.32,4.74,4.74,0,0,1-1.7,3.39c-.34.38-.73.83-1.07,1.23h2.75v2.6h-7Z"/><path class="cls-36" d="M173.49,394.51h-2.13v2.11h-2v-2.11h-2v-2h2v-2.09h2v2.09h2.13Z"/><text class="cls-37" transform="translate(140.43 412.55)">Cu</text><circle class="cls-38" cx="660.43" cy="428.08" r="23.41"/><text class="cls-39" transform="translate(650.19 439.76)">K</text><path class="cls-40" d="M681.41,410.59h-4.13v4.09h-3.92v-4.09h-3.94v-3.84h3.94V402.7h3.92v4.05h4.13Z"/><circle class="cls-38" cx="621.67" cy="233.62" r="23.41"/><text class="cls-39" transform="translate(611.43 245.3)">K</text><path class="cls-40" d="M642.65,216.14h-4.13v4.08H634.6v-4.08h-3.94V212.3h3.94v-4.06h3.92v4.06h4.13Z"/><circle class="cls-38" cx="631.07" cy="550.92" r="23.41"/><text class="cls-39" transform="translate(620.83 562.6)">K</text><path class="cls-40" d="M652.05,533.43h-4.13v4.09H644v-4.09h-3.94v-3.84H644v-4.05h3.92v4.05h4.13Z"/><circle class="cls-38" cx="723.05" cy="266.3" r="23.41"/><text class="cls-39" transform="translate(712.81 277.97)">K</text><path class="cls-40" d="M744,248.81h-4.14v4.09H736v-4.09h-4V245h4v-4.06h3.91V245H744Z"/><circle class="cls-41" cx="470.98" cy="385.52" r="18.23"/><text class="cls-42" transform="translate(457.7 392.25)"><tspan class="cls-43">C</tspan><tspan x="12.65" y="0">a</tspan></text><path class="cls-44" d="M479.05,372.44c1.12-1.15,2.31-2.39,3.34-3.51a2.89,2.89,0,0,0,1-1.8,1,1,0,0,0-1-1c-.72,0-1.15.68-1.14,1.46l-2.6-.7a3.7,3.7,0,0,1,3.73-3.54,3.52,3.52,0,0,1,3.73,3.36,4.77,4.77,0,0,1-1.71,3.41l-1.09,1.24h2.78V374h-7Z"/><path class="cls-44" d="M492.79,370.38h-2v1.95h-1.87v-1.95h-1.88v-1.83h1.88v-1.94h1.87v1.94h2Z"/><circle class="cls-41" cx="373.55" cy="568.84" r="18.23"/><text class="cls-42" transform="translate(360.27 575.57)"><tspan class="cls-43">C</tspan><tspan x="12.65" y="0">a</tspan></text><path class="cls-44" d="M381.63,555.76c1.11-1.15,2.3-2.38,3.34-3.5a2.91,2.91,0,0,0,1-1.81,1,1,0,0,0-1-1c-.73,0-1.16.69-1.15,1.46l-2.59-.7A3.68,3.68,0,0,1,385,546.7a3.52,3.52,0,0,1,3.73,3.35,4.74,4.74,0,0,1-1.71,3.41l-1.08,1.24h2.77v2.63h-7Z"/><path class="cls-44" d="M395.36,553.7h-2v2h-1.87v-2h-1.89v-1.83h1.89v-1.94h1.87v1.94h2Z"/><circle class="cls-41" cx="524.76" cy="547.48" r="18.23"/><text class="cls-42" transform="translate(511.47 554.21)"><tspan class="cls-43">C</tspan><tspan x="12.65" y="0">a</tspan></text><path class="cls-44" d="M532.83,534.4c1.11-1.15,2.3-2.39,3.34-3.5a2.93,2.93,0,0,0,1-1.81,1,1,0,0,0-1-1c-.73,0-1.16.68-1.14,1.46l-2.6-.7a3.69,3.69,0,0,1,3.72-3.54,3.52,3.52,0,0,1,3.73,3.36,4.75,4.75,0,0,1-1.71,3.41l-1.08,1.24h2.77V536h-7Z"/><path class="cls-44" d="M546.56,532.34h-2v1.95h-1.87v-1.95h-1.89v-1.83h1.89v-1.94h1.87v1.94h2Z"/><circle class="cls-41" cx="448.13" cy="229.69" r="18.23"/><text class="cls-42" transform="translate(434.85 236.42)"><tspan class="cls-43">C</tspan><tspan x="12.65" y="0">a</tspan></text><path class="cls-44" d="M456.2,216.6c1.12-1.14,2.3-2.38,3.34-3.5a2.89,2.89,0,0,0,1-1.8,1,1,0,0,0-1-1c-.72,0-1.15.69-1.14,1.46l-2.6-.7a3.69,3.69,0,0,1,3.73-3.53,3.51,3.51,0,0,1,3.72,3.35,4.76,4.76,0,0,1-1.7,3.42c-.35.39-.74.83-1.09,1.24h2.78v2.62h-7Z"/><path class="cls-44" d="M469.94,214.55h-2v1.95h-1.87v-1.95h-1.88v-1.84h1.88v-1.93H468v1.93h2Z"/><circle class="cls-41" cx="239.76" cy="573.18" r="18.23"/><text class="cls-42" transform="translate(226.47 579.91)"><tspan class="cls-43">C</tspan><tspan x="12.65" y="0">a</tspan></text><path class="cls-44" d="M247.83,560.09c1.11-1.14,2.3-2.38,3.34-3.5a2.89,2.89,0,0,0,1-1.8,1,1,0,0,0-1-1c-.73,0-1.16.69-1.14,1.46l-2.6-.7a3.68,3.68,0,0,1,3.72-3.53,3.52,3.52,0,0,1,3.73,3.35,4.78,4.78,0,0,1-1.71,3.42c-.34.39-.74.83-1.08,1.24h2.77v2.62h-7Z"/><path class="cls-44" d="M261.56,558h-2v2h-1.87v-2h-1.89V556.2h1.89v-1.94h1.87v1.94h2Z"/><circle class="cls-41" cx="79.25" cy="593.37" r="18.23"/><text class="cls-45" transform="translate(65.97 600.1)">C<tspan class="cls-46" x="12.65" y="0">a</tspan></text><path class="cls-44" d="M87.33,580.28c1.11-1.14,2.3-2.38,3.34-3.5a2.94,2.94,0,0,0,1-1.8,1,1,0,0,0-1-1c-.73,0-1.16.69-1.15,1.46l-2.6-.7a3.7,3.7,0,0,1,3.73-3.53,3.52,3.52,0,0,1,3.73,3.35A4.78,4.78,0,0,1,92.67,578c-.34.39-.74.83-1.08,1.24h2.77v2.62h-7Z"/><path class="cls-44" d="M101.06,578.23h-2v1.95H97.22v-1.95H95.33v-1.84h1.89v-1.93h1.87v1.93h2Z"/><circle class="cls-41" cx="561.23" cy="452.61" r="18.23"/><text class="cls-42" transform="translate(547.94 459.34)"><tspan class="cls-43">C</tspan><tspan x="12.65" y="0">a</tspan></text><path class="cls-44" d="M569.3,439.53c1.11-1.15,2.3-2.38,3.34-3.5a2.91,2.91,0,0,0,1-1.81,1,1,0,0,0-1-1c-.73,0-1.16.69-1.15,1.46l-2.59-.7a3.68,3.68,0,0,1,3.72-3.53,3.52,3.52,0,0,1,3.73,3.35,4.78,4.78,0,0,1-1.71,3.42c-.34.38-.74.83-1.08,1.23h2.77v2.63h-7Z"/><path class="cls-44" d="M583,437.47h-2v2h-1.87v-2H577.3v-1.83h1.89V433.7h1.87v1.94h2Z"/><circle class="cls-47" cx="643.89" cy="325.51" r="19.38"/><path class="cls-48" d="M661.84,311h-3.62v3.58H654.8V311h-3.46v-3.36h3.46v-3.55h3.42v3.55h3.62Z"/><text class="cls-49" transform="translate(631.11 332.28)"><tspan class="cls-50">N</tspan><tspan x="14.06" y="0">a</tspan></text><circle class="cls-47" cx="732.93" cy="529.59" r="19.38"/><path class="cls-48" d="M750.89,515.08h-3.62v3.58h-3.43v-3.58h-3.46v-3.36h3.46v-3.55h3.43v3.55h3.62Z"/><text class="cls-49" transform="translate(720.15 536.36)"><tspan class="cls-50">N</tspan><tspan x="14.06" y="0">a</tspan></text><circle class="cls-47" cx="735.83" cy="381.03" r="19.38"/><path class="cls-48" d="M753.78,366.52h-3.62v3.58h-3.42v-3.58h-3.46v-3.36h3.46v-3.55h3.42v3.55h3.62Z"/><text class="cls-49" transform="translate(723.05 387.8)"><tspan class="cls-50">N</tspan><tspan x="14.06" y="0">a</tspan></text><circle class="cls-47" cx="561.23" cy="622.05" r="19.38"/><path class="cls-48" d="M579.18,607.54h-3.62v3.58h-3.43v-3.58h-3.46v-3.36h3.46v-3.55h3.43v3.55h3.62Z"/><text class="cls-49" transform="translate(548.44 628.81)"><tspan class="cls-50">N</tspan><tspan x="14.06" y="0">a</tspan></text><circle class="cls-51" cx="467.48" cy="309.39" r="9.07"/><text class="cls-52" transform="translate(461.79 313.21)">Al</text><path class="cls-53" d="M474.35,302.78a1.36,1.36,0,0,1-1.43,1.34,1.47,1.47,0,0,1-1.47-1l.88-.47a.65.65,0,0,0,.57.47.42.42,0,0,0,.43-.42.41.41,0,0,0-.43-.4.65.65,0,0,0-.37.12l-.37-.51.84-.79h-1.3v-1h2.4V301l-.61.6A1.24,1.24,0,0,1,474.35,302.78Z"/><path class="cls-54" d="M477.05,301.77h-.86v.87h-.71v-.87h-.84v-.69h.84v-.85h.71v.85h.86Z"/><circle class="cls-51" cx="414.9" cy="502.17" r="9.07"/><text class="cls-52" transform="translate(409.22 505.99)">Al</text><path class="cls-53" d="M421.77,495.56a1.36,1.36,0,0,1-1.43,1.33,1.46,1.46,0,0,1-1.46-1l.88-.47a.62.62,0,0,0,.56.47.41.41,0,0,0,.43-.41.41.41,0,0,0-.42-.4.61.61,0,0,0-.37.12l-.38-.51.84-.79h-1.3v-1h2.4v.94l-.6.59A1.25,1.25,0,0,1,421.77,495.56Z"/><path class="cls-54" d="M424.48,494.54h-.86v.88h-.71v-.88h-.84v-.69h.84V493h.71v.84h.86Z"/><circle class="cls-51" cx="311.01" cy="520" r="9.07"/><text class="cls-52" transform="translate(305.33 523.82)">Al</text><path class="cls-53" d="M317.88,513.38a1.36,1.36,0,0,1-1.43,1.34,1.46,1.46,0,0,1-1.46-1l.88-.47a.62.62,0,0,0,.56.47.42.42,0,0,0,.43-.42.4.4,0,0,0-.43-.39.65.65,0,0,0-.37.11l-.37-.51.84-.79h-1.3v-1h2.4v.94l-.61.6A1.22,1.22,0,0,1,317.88,513.38Z"/><path class="cls-54" d="M320.59,512.37h-.86v.87H319v-.87h-.85v-.69H319v-.85h.71v.85h.86Z"/><circle class="cls-51" cx="149.43" cy="538.43" r="9.07"/><text class="cls-52" transform="translate(143.74 542.24)">Al</text><path class="cls-53" d="M156.3,531.81a1.36,1.36,0,0,1-1.43,1.34,1.47,1.47,0,0,1-1.47-1l.88-.47a.63.63,0,0,0,.56.47.41.41,0,0,0,.43-.42.4.4,0,0,0-.42-.4.63.63,0,0,0-.37.12l-.38-.51.85-.79h-1.31v-1h2.41V530l-.61.6A1.24,1.24,0,0,1,156.3,531.81Z"/><path class="cls-54" d="M159,530.8h-.86v.87h-.71v-.87h-.84v-.69h.84v-.85h.71v.85H159Z"/><circle class="cls-51" cx="381.03" cy="256.8" r="9.07"/><text class="cls-52" transform="translate(375.34 260.62)">Al</text><path class="cls-53" d="M387.9,250.19a1.36,1.36,0,0,1-1.43,1.34,1.47,1.47,0,0,1-1.47-1l.88-.47a.64.64,0,0,0,.56.47.41.41,0,0,0,.43-.42.4.4,0,0,0-.42-.4.63.63,0,0,0-.37.12l-.38-.51.85-.79h-1.31v-1h2.41v.94L387,249A1.26,1.26,0,0,1,387.9,250.19Z"/><path class="cls-54" d="M390.6,249.18h-.86v.87H389v-.87h-.84v-.69H389v-.85h.71v.85h.86Z"/><path class="cls-55" d="M398.08,390.92l-7.24.07-13.39.13a6.62,6.62,0,1,1-.13-13.24l13.39-.13,7.24-.07-.08-8.32-20.63.2a14.94,14.94,0,1,0,.29,29.87l20.63-.2Z"/><rect class="cls-56" x="389.59" y="369.4" width="8.31" height="8.31" transform="translate(763.46 -23.81) rotate(89.44)"/><rect class="cls-56" x="389.8" y="390.96" width="8.31" height="8.31" transform="translate(785.22 -2.67) rotate(89.44)"/><path class="cls-12" d="M401.25,374c.94.58,2.11-.08,3.11-.54s2.55-.5,2.84.56c.22.79-.46,1.78.1,2.39l4.22-2.16c.26-.14.6-.27.84-.09a.78.78,0,0,1,.23.46l.67,2.74a29.56,29.56,0,0,1,5.5-2.25"/><path class="cls-2" d="M402.18,372.46c-.07,0-.17,0,0,0a1.77,1.77,0,0,0,.65-.11c.31-.1.59-.22,1-.39a5.14,5.14,0,0,1,1.59-.3,3.61,3.61,0,0,1,1.82.4,2.62,2.62,0,0,1,.9.83,2.51,2.51,0,0,1,.37,1.13,4.23,4.23,0,0,1-.22,1.45,1.73,1.73,0,0,1-.06.25s-.06-.1-.11-.12l-1.33-.24,4.15-1.75a5.87,5.87,0,0,1,.62-.24,1.21,1.21,0,0,1,1.66,1l.1.55.37,2.22-.64-.28a29.52,29.52,0,0,1,5.71-1.86,29.77,29.77,0,0,0-5.3,2.64.42.42,0,0,1-.57-.13.36.36,0,0,1,0-.09l0-.07-.7-2.14-.17-.53c0-.18-.13-.19,0-.07s.19.05.09.1l-.39.23-3.84,2.35a1,1,0,0,1-1.22-.14l-.1-.1a2.09,2.09,0,0,1-.55-1.15,4,4,0,0,1,0-.86,2,2,0,0,0,0-.79s0,.18.05.19-.18,0-.38.05a2,2,0,0,0-.59.23c-.24.14-.62.36-1,.55a5.23,5.23,0,0,1-1.5.52,3.46,3.46,0,0,1-2.21-.38,1.78,1.78,0,0,1,1.86-3Z"/><path class="cls-12" d="M401.52,394.86l3.37-1.45a1.62,1.62,0,0,1,.93-.18c.79.2.76,1.37,1.33,1.95a1.82,1.82,0,0,0,2.32-.17,12.5,12.5,0,0,1,2-1.6c1.26-.6,2.73,0,4.13.08s3.18-.77,2.9-2.14"/><path class="cls-2" d="M400.81,393.23l2.44-.81,1.26-.41a3,3,0,0,1,1.22-.19,2.17,2.17,0,0,1,1.47.75,4,4,0,0,1,.71,1.55c.12.31,0,.22,0,.29a.7.7,0,0,0,.56,0,1.8,1.8,0,0,0,.38-.16,4.6,4.6,0,0,0,.45-.31c.31-.25.66-.55,1.08-.83a3.43,3.43,0,0,1,1.49-.57,7.22,7.22,0,0,1,2.75.37,7.84,7.84,0,0,0,1.19.24A3.34,3.34,0,0,0,417,393c.75-.2,1.56-.78,1.45-1.69a1.44,1.44,0,0,1-.24,1.26,2.62,2.62,0,0,1-1.05.84,3.94,3.94,0,0,1-1.32.38,8.52,8.52,0,0,1-1.35,0,6.58,6.58,0,0,0-2.33.07c-.63.19-1,.69-1.63,1.39a6.37,6.37,0,0,1-.52.52,3.47,3.47,0,0,1-.72.48,2.88,2.88,0,0,1-1.94.31,2.26,2.26,0,0,1-1.1-.6,3.08,3.08,0,0,1-.6-.84c-.23-.47-.45-.86-.43-.73a.52.52,0,0,0,.35.21c.14,0,.11,0,0,.09l-1.1.6-2.26,1.21a1.79,1.79,0,0,1-1.69-3.15A1.69,1.69,0,0,1,400.81,393.23Z"/><text class="cls-57" transform="translate(163.41 85.18)">cation <tspan class="cls-58" x="193.02" y="0">e</tspan><tspan class="cls-59" x="226.9" y="0">x</tspan><tspan class="cls-60" x="254.55" y="0">c</tspan><tspan class="cls-61" x="286.5" y="0">h</tspan><tspan x="320.14" y="0">a</tspan><tspan class="cls-61" x="357.48" y="0">n</tspan><tspan x="391.06" y="0">ge </tspan><tspan x="113.21" y="50">capacit</tspan><tspan class="cls-62" x="320.99" y="50">y</tspan></text><line class="cls-63" x1="162.33" y1="164.68" x2="548.65" y2="164.68"/></g></g></svg>