<svg xmlns="http://www.w3.org/2000/svg" viewBox="0 0 603.9731 266.8996"><defs><style>.cls-1{fill:#9a6d55;}.cls-1,.cls-2{stroke:#5b5052;stroke-width:2.2761px;}.cls-1,.cls-10,.cls-11,.cls-12,.cls-13,.cls-14,.cls-15,.cls-16,.cls-17,.cls-2,.cls-4,.cls-5,.cls-6,.cls-7,.cls-8,.cls-9{stroke-miterlimit:10;}.cls-2{fill:#7c7072;}.cls-3{fill:#fff;}.cls-14,.cls-4,.cls-5{fill:#ffcf01;}.cls-10,.cls-13,.cls-15,.cls-17,.cls-4,.cls-6,.cls-8{stroke:#fff;}.cls-4{stroke-width:0.4476px;}.cls-5,.cls-7{stroke:#2e61a2;}.cls-5{stroke-width:3.1122px;}.cls-16,.cls-6{fill:#2e61a2;}.cls-6{stroke-width:0.9337px;}.cls-17,.cls-7{fill:#3caba2;}.cls-14,.cls-7,.cls-9{stroke-width:3.2788px;}.cls-8{fill:#2e6296;}.cls-15,.cls-8{stroke-width:1.0929px;}.cls-13,.cls-9{fill:#6d54a3;}.cls-9{stroke:#ec6a7c;}.cls-10{fill:#ec6a7c;stroke-width:0.6558px;}.cls-11{fill:none;stroke:#5e5252;stroke-width:1.6426px;}.cls-12{fill:#39944c;stroke:#6d54a3;stroke-width:1.6746px;}.cls-13{stroke-width:0.6443px;}.cls-14{stroke:#f37243;}.cls-15{fill:#f37243;}.cls-16{stroke:#3caba2;stroke-width:2.4531px;}.cls-17{stroke-width:1.1337px;}</style></defs><g id="Layer_2" data-name="Layer 2"><g id="Layer_33" data-name="Layer 33"><g id="Layer_32" data-name="Layer 32"><path class="cls-1" d="M249.777,189.45c-2.6682,2.6137-4.9829,6.48-3.5942,9.9653.5806,2.1185.2448,4.5879.0274,8.226a5.0507,5.0507,0,0,1-5.3895,4.7631q-16.6507-1.2078-33.3012-2.4247a14.25,14.25,0,0,1-5.7723-1.2253,18.72,18.72,0,0,1-3.8935-3.1311c-7.1882-6.6436-17.2353-9.1758-27.01-8.8763-44.1981,1.4231-87.7328-5.8784-131.0487-14.6942a5.047,5.047,0,0,1-4.0043-5.2593c.62-11.3674,1.2849-21.9513-.4281-33.2182.3539-.3539-.4672-1.5833-.0861-1.9373-.3267,3.2674,3.948,6.1806,7.1881,7.1064,3.3763.98,6.9431.8168,10.4556,1.0075,15.2349.8867,30.7617,9.1979,45.9,7.4277a4.5011,4.5011,0,0,1,1.2071.0167,451.8478,451.8478,0,0,0,64.69,5.2165c9.489.08,20.3952.4753,26.51,7.6769a12.2966,12.2966,0,0,0,10.1714,4.59,305.6758,305.6758,0,0,1,33.6484-.5322c7.0515.2995,14.2945.8713,20.6927,3.8663a2.8084,2.8084,0,0,1,1.4431,1.1708,2.5,2.5,0,0,1-.1363,1.8242C255.74,184.5213,252.4453,186.8083,249.777,189.45Z"/><path class="cls-2" d="M567.09,127.0706c-.4085,2.6957-2.6137,4.3565-5.2006,5.5273a41.3807,41.3807,0,0,1-4.3836,1.6881,52.2328,52.2328,0,0,0-16.5,9.2575,6.7774,6.7774,0,0,0-2.641,3.54c-.7625,3.7574,4.1114,6.9975,3.567,10.8911-.1908,1.443-1.1437,2.995-3.458,4.6558a12.6479,12.6479,0,0,1-3.104,1.6611c-3.8665,1.552-8.386,1.5247-12.6337,1.77a80.44,80.44,0,0,0-54.4011,26.1115c-58.213,13.5866-118.9852,18.7327-178.7231,16.5545a122.4035,122.4035,0,0,1-34.2252-5.9629c-3.05-.98-6.099-2.0966-9.2033-3.3491-1.3887-3.4851.926-7.3516,3.5942-9.9653.6262-.5991,1.2524-1.198,1.9059-1.77,2.1783-1.9876,4.3567-3.9751,5.3637-6.6708a2.5,2.5,0,0,0,.1363-1.8242,2.8084,2.8084,0,0,0-1.4431-1.1708c-6.3982-2.995-13.6412-3.5668-20.6927-3.8663a304.8725,304.8725,0,0,0-35.9682.7079c-3.3762.2723-5.4183-1.7153-7.5148-4.3565-6.0445-7.5965-17.1808-8.005-26.8466-8.0866-9.1485-.0817-18.27-.463-27.3911-1.0891-9.0124-.6262-17.8614-1.6609-26.82-2.7773-3.7845-.4629-7.5692-.8712-11.3539-1.1436-3.6214-.2449-7.2425.0546-10.8366-.3812a100.42,100.42,0,0,1-11.79-2.396C68.74,152.6375,60.98,150.2142,52.92,149.7514c-3.5125-.1907-7.0793-.0273-10.4556-1.0075-3.24-.9258-7.5148-3.839-7.1881-7.1064a1.8339,1.8339,0,0,1,.0545-.3812c1.5247-6.97,8.06-11.5446,14.3218-14.948,22.0544-11.9531,46.7228-17.9975,71.1189-23.9061,14.213-3.4307,27.8269-6.6436,42.3665-8.3317,3.0767-.354,6.1807-.5989,9.2847-.844,8.005-.6535,16.01-1.28,24.0148-1.9331,7.9233-.6263,17.2079,1.1435,25.0223-.1906,5.636-.9531,11.1088-2.6955,16.6634-4.0569,17.0173-4.166,34.6609-4.8194,52.1412-5.4456,12.96-.4357,26.1114,7.2153,38.6637,10.5372,15.2744,4.0569,31.4206,1.8514,47.267,2.042a157.1049,157.1049,0,0,1,50.1268,8.8218c18.9776,6.6708,40.6508,11.7352,60.7719,12.1707,23.3616.49,46.1785-1.47,69.3766,2.8862a19.4146,19.4146,0,0,1,7.27,2.5051C565.8645,122.0062,567.4705,124.5112,567.09,127.0706Z"/><path class="cls-1" d="M544.6267,183.8949c0,2.4778,0,5.0373-1.035,7.2972-.0269.0543-.0542.0816-.0814.1361-1.5791,3.2674-5.0916,5.1732-8.55,6.344-8.0321,2.75-16.7448,2.7227-24.9949,4.7377-10.2391,2.5085-20.2462,8.0183-28.94,13.8919-8.8118,5.9531-17.4914,8.836-27.857,11.7881a397.1855,397.1855,0,0,1-69.3019,13.2226c-23.4539,2.34-47.0659,2.5775-70.6069,1.7628-21.0007-.7268-46.4446,1.066-66.287-6.5218a4.1979,4.1979,0,0,1-2.3415-1.6336,4.48,4.48,0,0,1-.2995-2.4778c.7279-9.35,2.009-18.1995,1.7176-27.3446a3.7177,3.7177,0,0,1,4.875-3.7c1.5333.5079,3.0968.9195,4.462,1.3667a122.4035,122.4035,0,0,0,34.2252,5.9629,692.13,692.13,0,0,0,93.4915-3.1232q23.5078-2.35,46.8449-6.1176c12.0712-1.9333,28.6462-2.169,39.1272-8.7748,8.0238-5.0572,13.9986-11.9208,22.6763-16.2842a79.5,79.5,0,0,1,30.9843-8.3662c4.2477-.245,8.7672-.2177,12.6337-1.77a6.3175,6.3175,0,0,0,.7621-.3,13.4331,13.4331,0,0,0,2.3419-1.3614,3.7474,3.7474,0,0,1,5.922,2.7846c.1042,1.35.1133,2.7229.1225,4.0769,0,1.28.0272,2.5321.0272,3.8119C544.5722,176.8158,544.5994,180.3553,544.6267,183.8949Z"/><path class="cls-1" d="M564.1488,163.2836a26.4957,26.4957,0,0,1-7.3922,7.3821,25.9,25.9,0,0,1-9.68,3.89,15.601,15.601,0,0,1-2.532-1.2524c0-1.28-.0272-2.5321-.0272-3.8119-.0273-4.03-.0545-8.2229-2.5865-11.5173.5444-3.8936-4.3295-7.1337-3.567-10.8911.3187-1.57,1.46-2.47,2.641-3.54,5.7782-5.2338,11.732-8.3137,15.8457-10.5542,2.3951-1.3043,5.9465-3.2936,10.2387-5.9187a71.1011,71.1011,0,0,1,1.48,16.7589C568.3393,151.1511,568.1479,157.23,564.1488,163.2836Z"/><path class="cls-3" d="M279.545,149.4108a10.8847,10.8847,0,0,1,11.1088-11.2393A10.3188,10.3188,0,0,1,297.45,140.35v4.7486a8.7829,8.7829,0,0,0-6.4474-2.8321,7.1457,7.1457,0,1,0,0,14.2891,8.7847,8.7847,0,0,0,6.4474-2.8315v4.7485a10.3183,10.3183,0,0,1-6.7959,2.1782A10.8848,10.8848,0,0,1,279.545,149.4108Z"/><path class="cls-3" d="M302.939,125.4508h4.0949v34.8511H302.939Z"/><path class="cls-3" d="M333.9127,138.52v21.7818h-4.095v-3.4854a9.0921,9.0921,0,0,1-7.4494,3.7906c-6.0553,0-10.1939-4.9229-10.1939-11.1963s4.1386-11.1958,10.1939-11.1958a9.0931,9.0931,0,0,1,7.4494,3.79V138.52Zm-4.095,10.8907a6.9413,6.9413,0,0,0-6.7524-7.188c-3.9206,0-6.6653,3.2236-6.6653,7.188,0,4.0078,2.7447,7.2319,6.6653,7.2319A6.98,6.98,0,0,0,329.8177,149.4108Z"/><path class="cls-3" d="M359.7024,138.52l-12.7642,30.4947h-4.1821l3.8336-8.8872L337.5284,138.52h4.4435l6.6653,16.99,6.6217-16.99Z"/><circle class="cls-4" cx="196.6599" cy="105.4477" r="8.2928"/><rect class="cls-3" x="191.9801" y="104.2999" width="9.3596" height="2.2958"/><circle class="cls-4" cx="292.2576" cy="95.2051" r="8.2928"/><rect class="cls-3" x="287.5778" y="94.0572" width="9.3596" height="2.2958"/><circle class="cls-4" cx="400.3742" cy="110" r="8.2928"/><rect class="cls-3" x="395.6944" y="108.8521" width="9.3596" height="2.2958"/><circle class="cls-4" cx="427.6878" cy="119.1046" r="8.2928"/><rect class="cls-3" x="423.008" y="117.9567" width="9.3596" height="2.2958"/><circle class="cls-4" cx="524.4236" cy="153.2466" r="8.2928"/><rect class="cls-3" x="519.7438" y="152.0988" width="9.3596" height="2.2958"/><circle class="cls-4" cx="460.6918" cy="181.6983" r="8.2928"/><rect class="cls-3" x="456.012" y="180.5505" width="9.3596" height="2.2958"/><circle class="cls-4" cx="275.1866" cy="193.079" r="8.2928"/><rect class="cls-3" x="270.5068" y="191.9312" width="9.3596" height="2.2958"/><circle class="cls-4" cx="175.0366" cy="146.4182" r="8.2928"/><rect class="cls-3" x="170.3567" y="145.2703" width="9.3596" height="2.2958"/><circle class="cls-4" cx="208.0405" cy="146.4182" r="8.2928"/><rect class="cls-3" x="203.3607" y="145.2703" width="9.3596" height="2.2958"/><circle class="cls-4" cx="60.0916" cy="135.0375" r="8.2928"/><rect class="cls-3" x="55.4118" y="133.8897" width="9.3596" height="2.2958"/><circle class="cls-4" cx="81.7149" cy="125.933" r="8.2928"/><rect class="cls-3" x="77.0351" y="124.7851" width="9.3596" height="2.2958"/><circle class="cls-5" cx="295.3199" cy="44.7053" r="36.8392"/><path class="cls-6" d="M329.4473,17.1173h-6.8791v6.8063h-6.5163V17.1173h-6.57V10.73h6.57V3.978h6.5163V10.73h6.8791Z"/><path class="cls-3" d="M295.5662,31.6505V57.8961h-2.8875L279.0192,42.3117V57.5631h-5.4417V31.3917h2.8875l13.6965,15.9917V31.6505Z"/><path class="cls-3" d="M318.2592,39.0543V57.5631h-5.3306V55.194a6.9226,6.9226,0,0,1-5.5526,2.6284c-5.0714,0-8.329-4.22-8.329-9.5508,0-5.2934,3.2576-9.5137,8.329-9.5137a6.9227,6.9227,0,0,1,5.5526,2.6285V39.0543Zm-5.3676,9.2173a4.2354,4.2354,0,0,0-4.146-4.3682,4.3764,4.3764,0,0,0,0,8.7364A4.2129,4.2129,0,0,0,312.8916,48.2716Z"/><circle class="cls-7" cx="433.1205" cy="57.0727" r="49.213"/><path class="cls-3" d="M429.5435,73.4782l-4.092-19.3052-8.8656,19.6723h-1.259l-8.7084-19.4624-3.7246,19.0953h-8.0788l8.0263-37.1939h3.305l9.81,22.7676,9.81-22.7676h3.3574l8.3935,37.1939Z"/><path class="cls-3" d="M466.7389,72.0617c0,8.0263-6.19,12.38-13.3248,12.38a22.6434,22.6434,0,0,1-10.0723-2.4131l.0525-7.1342a16.68,16.68,0,0,0,8.7084,2.8852c4.1442,0,7.1868-2.0986,7.1868-6.977v-.7344a9.9574,9.9574,0,0,1-7.9213,3.7768c-7.1871,0-11.8035-5.98-11.8035-13.5346,0-7.5015,4.6164-13.482,11.8035-13.482a9.8965,9.8965,0,0,1,7.8165,3.6719V47.2482h7.5017Zm-7.5542-11.751a6.0017,6.0017,0,0,0-5.8755-6.19,5.866,5.866,0,0,0-5.823,6.19c0,3.4624,2.3606,6.19,5.823,6.19A5.97,5.97,0,0,0,459.1847,60.3107Z"/><path class="cls-8" d="M454.5728,26.1011c3.1383-3.2359,6.487-6.7249,9.4149-9.8771,1.5472-1.7236,2.7614-3.2777,2.7614-5.085a2.7644,2.7644,0,0,0-2.7614-2.7736c-2.0513,0-3.261,1.9327-3.2216,4.1186l-7.3241-1.9768A10.4008,10.4008,0,0,1,463.9483.5465c6.2766,0,10.5018,4.539,10.5018,9.4567,0,3.9094-1.968,6.7248-4.8126,9.6261-.9643,1.0919-2.0907,2.3532-3.055,3.489h7.8238v7.3963H454.5728Z"/><path class="cls-8" d="M493.293,20.3007h-5.5665v5.5076h-5.2728V20.3007H477.137V15.1321h5.3167V9.6686h5.2728v5.4635h5.5665Z"/><circle class="cls-9" cx="301.186" cy="232.4515" r="32.8087"/><path class="cls-3" d="M307.65,248.8165,297.2385,233.97v14.8462h-7.0858V215.0748h7.0858v15.8106l10.2671-15.8106h8.2427l-11.6168,17.208,12.0024,16.5337Z"/><path class="cls-10" d="M329.3547,208.36h-5.3679v5.311h-5.0846V208.36h-5.127v-4.9842h5.127v-5.2685h5.0846v5.2685h5.3679Z"/><circle class="cls-9" cx="569.525" cy="158.9464" r="32.8087"/><path class="cls-3" d="M575.99,175.3117l-10.4117-14.8462v14.8462h-7.0858V141.57h7.0858v15.8105L575.8456,141.57h8.2427l-11.6169,17.208,12.0025,16.5337Z"/><path class="cls-10" d="M597.6937,134.8545h-5.3679v5.311h-5.0847v-5.311h-5.1269V129.87h5.1269v-5.2685h5.0847V129.87h5.3679Z"/><line class="cls-11" x1="500.3487" y1="216.6623" x2="496.8633" y2="216.4723"/><circle class="cls-12" cx="477.4253" cy="217.349" r="26.318"/><path class="cls-3" d="M470.602,208.9215l3.3072,17.42-1.9164.3643-11.03-8.6226,1.9218,10.1226-3.6118.6855L455.9746,211.52l1.9165-.3637,11.1061,8.8887-1.9824-10.4424Z"/><path class="cls-3" d="M487.7762,205.6613l3.2652,17.1987-3.6118.6855-1.3014-6.8549-6.56,1.2456,1.3013,6.8549-3.6119.6856-3.2651-17.1987,3.6118-.6856,1.3015,6.855,6.56-1.2456-1.3014-6.855Z"/><path class="cls-3" d="M498.8887,220.3522l-.7372.14.1868.9829-2.1868.4151-.1868-.9829-3.2923.6255-.2939-1.5479,1.583-5.875,2.8748-.5459.9235,4.8648.7371-.14Zm-3.3157-1.5088-.4058-2.1377-.4787,2.3057Z"/><path class="cls-13" d="M501.5524,197.5728l-4.3246.821.8332,4.3888-3.5679.6774-.8332-4.3888-4.2281.8027-.659-3.4715,4.2281-.8027-.8088-4.26,3.5679-.6773.8088,4.26,4.3245-.821Z"/><line class="cls-11" x1="216.2067" y1="67.565" x2="212.74" y2="67.1578"/><circle class="cls-12" cx="193.2852" cy="66.8193" r="26.318"/><path class="cls-3" d="M187.0057,58l2.2132,17.5928-1.9353.2437-10.4705-9.2945,1.2861,10.2232-3.6477.459L172.2445,59.68l1.9356-.2436L184.71,69.0016l-1.3267-10.5459Z"/><path class="cls-3" d="M204.35,55.818l2.1852,17.37-3.6477.459-.8709-6.9228-6.6252.833.8709,6.9228-3.6475.459L190.43,57.569l3.6476-.459.8709,6.9228,6.6252-.8335-.8709-6.9228Z"/><path class="cls-3" d="M214.524,71.174l-.7443.0937.1247.9927-2.2084.2778-.1248-.9927-3.325.4185-.1968-1.5635,1.9467-5.7646,2.9032-.3653.6182,4.9131.7443-.0937Zm-3.215-1.7124-.2716-2.1592-.6218,2.2715Z"/><path class="cls-13" d="M218.6,48.5879l-4.3674.5494L214.79,53.57l-3.6032.4533-.5576-4.4323-4.27.5372-.441-3.5059,4.27-.5372-.5412-4.3024,3.6032-.4533.5413,4.3025,4.3673-.55Z"/><circle class="cls-14" cx="46.2692" cy="78.4921" r="44.6185"/><path class="cls-3" d="M16.9354,84.6408c-2.8246-10.2129,2.32-20.3443,13.2414-23.3648a19.1306,19.1306,0,0,1,8.5146-.5054l2.302,8.1275a12.6934,12.6934,0,0,0-8.5869-.3472,11.3843,11.3843,0,0,0,6.069,21.9439,12.4051,12.4051,0,0,0,7.1884-4.7095L47.8788,93.99a19.9,19.9,0,0,1-7.578,3.8916C29.3794,100.9025,19.76,94.8541,16.9354,84.6408Z"/><path class="cls-3" d="M70.2039,61.7438,77.1957,87.025l-7.2809,2.0137L69.02,85.8029A9.809,9.809,0,0,1,62.4285,91.49c-6.927,1.916-12.9706-2.6177-14.9843-9.8985-2-7.23.8557-14.2246,7.7827-16.1406a9.8118,9.8118,0,0,1,8.5771,1.4922l-.881-3.186Zm-3.85,14.6181a6.0016,6.0016,0,0,0-7.313-4.4A5.8658,5.8658,0,0,0,55.0791,79.48c.923,3.3369,3.9254,5.3374,7.2624,4.4146A5.9707,5.9707,0,0,0,66.3544,76.3619Z"/><path class="cls-15" d="M54.0775,43.5517c1.8767-3.4332,3.8709-7.1267,5.591-10.4412.8956-1.8,1.5517-3.3809,1.1336-4.8928A2.4,2.4,0,0,0,57.85,26.5362c-1.7161.4746-2.2809,2.3714-1.7422,4.1909l-6.5845.0409a9.0276,9.0276,0,0,1,6.4847-10.7637c5.2508-1.4522,9.8357,1.3674,10.9735,5.4814.9045,3.27-.0905,6.0812-1.799,9.1664-.554,1.1365-1.2046,2.4524-1.7485,3.6257l6.5452-1.81,1.7113,6.1875L55.0986,47.2439Z"/><path class="cls-15" d="M85.1277,29.7407l-4.6568,1.2879,1.2743,4.6075-4.4112,1.22L76.06,32.2486l-4.4478,1.23-1.1958-4.3239,4.4477-1.23L73.6,23.354l4.4111-1.22,1.2641,4.5706,4.6568-1.2879Z"/><circle class="cls-16" cx="174.6421" cy="196.1485" r="33.3825"/><path class="cls-17" d="M189.3489,175.3973c2.2218-2.2909,4.5926-4.7611,6.6655-6.9928,1.0955-1.22,1.955-2.3206,1.955-3.6a1.957,1.957,0,0,0-1.955-1.9636c-1.4522,0-2.3087,1.3683-2.2808,2.9159l-5.1854-1.3995a7.3637,7.3637,0,0,1,7.4383-7.0521c4.4437,0,7.4352,3.2135,7.4352,6.6952,0,2.7678-1.3933,4.7611-3.4073,6.8151-.6827.773-1.48,1.666-2.1629,2.47h5.5391v5.2365H189.3489Z"/><path class="cls-17" d="M218.22,170.5007h-4.2876v4.2487h-4.0645v-4.2487H205.77v-3.9871h4.0984v-4.2147h4.0645v4.2147H218.22Z"/><path class="cls-3" d="M153.4188,194.4547A12.3756,12.3756,0,0,1,166.1841,181.69a12.8529,12.8529,0,0,1,5.6068,1.1992l.0353,5.6772a8.5363,8.5363,0,0,0-5.5011-1.7631,7.6524,7.6524,0,0,0,0,15.3042,8.3385,8.3385,0,0,0,5.5011-1.7632l-.0353,5.7124a13.37,13.37,0,0,1-5.6068,1.164A12.3757,12.3757,0,0,1,153.4188,194.4547Z"/><path class="cls-3" d="M191.1542,189.1657V206.797h-5.0779v-2.1157a6.3485,6.3485,0,0,1-5.0779,2.4682c-3.3852,0-5.9947-2.539-5.9947-7.2993V189.1657h5.0778v9.521c0,2.3979,1.3047,3.7377,3.0326,3.7377,1.5869,0,2.75-1.0932,2.9622-3.0678V189.1657Z"/></g></g></g></svg>