<svg xmlns="http://www.w3.org/2000/svg" viewBox="0 0 1387.44 355.56"><defs><style>.cls-1,.cls-3{fill:#966d55;}.cls-1,.cls-2,.cls-26,.cls-3{stroke:#fecf08;}.cls-1,.cls-10,.cls-12,.cls-13,.cls-15,.cls-16,.cls-17,.cls-2,.cls-21,.cls-24,.cls-25,.cls-26,.cls-29,.cls-3,.cls-30,.cls-34,.cls-35,.cls-36,.cls-37,.cls-39{stroke-miterlimit:10;}.cls-2{fill:#9f5b39;}.cls-2,.cls-3{stroke-width:0.5px;}.cls-4{font-size:45.35px;font-family:Acre-Medium, Acre;font-weight:500;}.cls-11,.cls-14,.cls-18,.cls-20,.cls-23,.cls-27,.cls-31,.cls-33,.cls-38,.cls-4,.cls-40,.cls-9{fill:#fff;}.cls-5{letter-spacing:-0.01em;}.cls-6{letter-spacing:-0.02em;}.cls-7{letter-spacing:-0.02em;}.cls-8{letter-spacing:-0.01em;}.cls-9{font-size:41.02px;font-family:Acre-Bold, Acre;font-weight:700;}.cls-10,.cls-22{fill:#df6572;}.cls-10,.cls-12,.cls-15,.cls-21,.cls-24,.cls-25,.cls-29,.cls-30,.cls-34,.cls-35,.cls-37,.cls-39{stroke:#fff;}.cls-10,.cls-12{stroke-width:0.57px;}.cls-12{fill:#3caba2;}.cls-13{fill:#37904b;}.cls-13,.cls-16,.cls-36{stroke:#ffcf01;}.cls-13,.cls-16,.cls-26,.cls-36{stroke-width:1.06px;}.cls-14{font-size:25.91px;}.cls-14,.cls-18,.cls-20,.cls-23,.cls-27,.cls-31,.cls-33,.cls-38,.cls-40{font-family:Acre-Semibold, Acre;font-weight:600;}.cls-15,.cls-17,.cls-24,.cls-25,.cls-34,.cls-35{fill:#ffcf01;}.cls-15{stroke-width:0.72px;}.cls-16{fill:#3f8880;}.cls-17{stroke:#e9e9e9;stroke-width:0.84px;}.cls-18{font-size:33.18px;}.cls-19{font-size:33.59px;}.cls-20{font-size:15.8px;}.cls-21,.cls-29,.cls-30,.cls-37,.cls-39{fill:#fecf08;}.cls-21{stroke-width:0.46px;}.cls-23{font-size:25px;}.cls-24{stroke-width:0.61px;}.cls-25{stroke-width:0.35px;}.cls-26{fill:#f27243;}.cls-27,.cls-31{font-size:22.88px;}.cls-27{letter-spacing:-0.01em;}.cls-28{letter-spacing:0em;}.cls-29{stroke-width:0.56px;}.cls-30{stroke-width:0.32px;}.cls-32{letter-spacing:-0.01em;}.cls-33{font-size:23.98px;}.cls-34{stroke-width:0.59px;}.cls-35{stroke-width:0.34px;}.cls-36{fill:#2e61a2;}.cls-37{stroke-width:1.33px;}.cls-38{font-size:30.3px;}.cls-39{stroke-width:0.85px;}.cls-40{font-size:19.4px;}.cls-41{font-size:40px;fill:#5c5052;font-family:Acre-Thin, Acre;font-weight:200;}.cls-42{letter-spacing:-0.01em;}.cls-43{letter-spacing:-0.02em;}.cls-44{letter-spacing:-0.01em;}.cls-45{letter-spacing:0em;}.cls-46{letter-spacing:-0.02em;}.cls-47{letter-spacing:-0.01em;}.cls-48{letter-spacing:0em;}.cls-49{letter-spacing:-0.02em;}.cls-50{letter-spacing:-0.04em;}.cls-51{letter-spacing:0.01em;}</style></defs><g id="Layer_2" data-name="Layer 2"><g id="Metal_Oxide_Exchange_Capacity" data-name="Metal Oxide_Exchange Capacity"><g id="Layer_72" data-name="Layer 72"><path class="cls-1" d="M1051.81,178.56c-2.78,2.72-5.19,6.75-3.74,10.38.6,2.2.26,4.77,0,8.56a5.26,5.26,0,0,1-5.61,5l-34.67-2.53a14.89,14.89,0,0,1-6-1.27,20.12,20.12,0,0,1-4-3.26c-7.48-6.92-17.94-9.55-28.12-9.24-46,1.48-91.32-6.12-136.41-15.3a5.24,5.24,0,0,1-4.17-5.47c.64-11.84,1.33-22.85-.45-34.58.37-.37-.48-1.65-.09-2-.34,3.4,4.11,6.44,7.48,7.4s7.23.85,10.89,1.05c15.86.92,32,9.57,47.78,7.73a4.43,4.43,0,0,1,1.26,0,471.32,471.32,0,0,0,67.34,5.43c9.87.08,21.23.49,27.59,8a12.83,12.83,0,0,0,10.59,4.78,317.37,317.37,0,0,1,35-.56c7.34.32,14.88.91,21.54,4a2.89,2.89,0,0,1,1.5,1.22,2.57,2.57,0,0,1-.14,1.9C1058,173.43,1054.59,175.81,1051.81,178.56Z"/><path class="cls-2" d="M1382.13,113.63c-.43,2.8-2.72,4.53-5.42,5.75a42.71,42.71,0,0,1-4.56,1.76,54.18,54.18,0,0,0-17.18,9.64,7.09,7.09,0,0,0-2.75,3.68c-.79,3.91,4.28,7.28,3.72,11.34-.2,1.5-1.19,3.11-3.6,4.84a12.92,12.92,0,0,1-3.23,1.73c-4,1.62-8.73,1.59-13.15,1.85a83.69,83.69,0,0,0-56.63,27.18c-60.6,14.14-123.87,19.5-186,17.23a127.3,127.3,0,0,1-35.63-6.21c-3.17-1-6.35-2.18-9.58-3.48-1.45-3.63,1-7.66,3.74-10.38.65-.62,1.31-1.24,2-1.84,2.26-2.07,4.53-4.14,5.58-6.94a2.57,2.57,0,0,0,.14-1.9,2.89,2.89,0,0,0-1.5-1.22c-6.66-3.12-14.2-3.71-21.54-4a318.19,318.19,0,0,0-37.44.74c-3.52.28-5.64-1.79-7.83-4.53-6.29-7.91-17.88-8.34-27.94-8.42-9.53-.09-19-.48-28.52-1.14s-18.59-1.73-27.92-2.89c-3.93-.48-7.87-.9-11.81-1.19-3.77-.25-7.54.06-11.28-.39a105.15,105.15,0,0,1-12.28-2.5c-8.1-2.07-16.18-4.59-24.57-5.07-3.66-.2-7.37,0-10.89-1.05s-7.82-4-7.48-7.4a1.94,1.94,0,0,1,.06-.4c1.59-7.25,8.39-12,14.91-15.56,23-12.44,48.63-18.73,74-24.88,14.8-3.57,29-6.92,44.1-8.68,3.21-.36,6.44-.62,9.67-.87l25-2c8.25-.65,17.91,1.19,26-.19,5.87-1,11.57-2.81,17.35-4.23,17.72-4.33,36.08-5,54.28-5.67,13.49-.45,27.18,7.51,40.25,11,15.9,4.23,32.7,1.93,49.2,2.13a163.5,163.5,0,0,1,52.18,9.18c19.76,7,42.32,12.22,63.26,12.67,24.32.51,48.07-1.53,72.22,3a20.23,20.23,0,0,1,7.57,2.6C1380.85,108.36,1382.52,111,1382.13,113.63Z"/><path class="cls-3" d="M1358.74,172.78c0,2.58,0,5.24-1.07,7.6,0,.05-.06.08-.09.14-1.64,3.4-5.3,5.38-8.9,6.6-8.36,2.86-17.43,2.84-26,4.93-10.66,2.62-21.07,8.35-30.12,14.47s-18.21,9.19-29,12.27a413.55,413.55,0,0,1-72.14,13.76c-24.42,2.44-49,2.68-73.5,1.84-21.87-.76-48.35,1.11-69-6.79a4.41,4.41,0,0,1-2.43-1.7,4.69,4.69,0,0,1-.32-2.58c.76-9.74,2.09-18.95,1.79-28.47A3.87,3.87,0,0,1,1053,191c1.59.53,3.22,1,4.64,1.42a127.3,127.3,0,0,0,35.63,6.21,720.41,720.41,0,0,0,97.32-3.25q24.48-2.44,48.77-6.37c12.56-2,29.82-2.26,40.73-9.13,8.35-5.27,14.57-12.41,23.6-17a82.89,82.89,0,0,1,32.26-8.7c4.42-.26,9.12-.23,13.15-1.85a6.18,6.18,0,0,0,.79-.31,14.23,14.23,0,0,0,2.44-1.42,3.9,3.9,0,0,1,6.16,2.9c.11,1.41.12,2.84.13,4.25s0,2.63,0,4C1358.69,165.41,1358.72,169.1,1358.74,172.78Z"/><path class="cls-3" d="M1379,154.6a28.71,28.71,0,0,1-8,8,28,28,0,0,1-10.46,4.2,16.54,16.54,0,0,1-2.74-1.35c0-1.39,0-2.74,0-4.12,0-4.36-.06-8.89-2.79-12.46.58-4.21-4.68-7.71-3.86-11.77.34-1.7,1.58-2.67,2.85-3.83,6.25-5.66,12.69-9,17.14-11.41,2.59-1.41,6.42-3.56,11.07-6.4a77.41,77.41,0,0,1,1.6,18.12C1383.48,141.49,1383.27,148.06,1379,154.6Z"/><text class="cls-4" transform="translate(978.16 143.04)"><tspan class="cls-5">m</tspan><tspan class="cls-6" x="40.09" y="0">e</tspan><tspan class="cls-7" x="64.85" y="0">t</tspan><tspan x="77.82" y="0">al </tspan><tspan class="cls-8" x="132.06" y="0">o</tspan><tspan x="158.45" y="0">xid</tspan><tspan class="cls-8" x="222.3" y="0">e</tspan><tspan x="247.2" y="0">s</tspan></text></g><g id="Layer_69" data-name="Layer 69"><text class="cls-9" transform="translate(955.92 55.36)">K</text><circle class="cls-10" cx="1115.17" cy="82.75" r="7.74"/><path class="cls-11" d="M1119,84.37l-2.7-.21-.21,2.66-2.56-.21.21-2.65-2.58-.21.2-2.49,2.58.2.21-2.64,2.55.2-.21,2.64,2.7.22Z"/><circle class="cls-10" cx="1134.62" cy="94.26" r="7.74"/><path class="cls-11" d="M1138.41,95.89l-2.7-.22-.21,2.66-2.55-.2.21-2.66-2.58-.2.2-2.5,2.57.2.21-2.63,2.56.2-.21,2.64,2.7.21Z"/><circle class="cls-10" cx="1156.8" cy="92.73" r="7.74"/><path class="cls-11" d="M1160.59,94.36l-2.7-.22-.21,2.66-2.56-.2.21-2.66-2.57-.2.19-2.5,2.58.2.21-2.64,2.56.21-.21,2.63,2.7.22Z"/><circle class="cls-10" cx="1085.84" cy="218.61" r="7.74"/><path class="cls-11" d="M1089.63,220.23l-2.7-.21-.21,2.66-2.55-.2.21-2.66-2.58-.21.2-2.49,2.57.2.21-2.64,2.56.2-.21,2.64,2.7.22Z"/><circle class="cls-10" cx="980.18" cy="171.14" r="7.74"/><path class="cls-11" d="M984.08,172.46h-2.7v2.67h-2.57v-2.67h-2.58V170h2.58v-2.65h2.57V170h2.7Z"/><circle class="cls-10" cx="1276.97" cy="113.25" r="7.74"/><path class="cls-11" d="M1280.84,114.69l-2.71-.09-.08,2.67-2.57-.08.09-2.67-2.59-.08.08-2.5,2.59.08.08-2.65,2.56.08-.08,2.65,2.71.08Z"/><circle class="cls-10" cx="1297.97" cy="114.97" r="7.74"/><path class="cls-11" d="M1301.84,116.41l-2.71-.08-.08,2.66-2.57-.08.09-2.66-2.59-.09.08-2.5,2.59.08.08-2.64,2.56.08-.08,2.64,2.71.09Z"/><circle class="cls-10" cx="854.54" cy="154.74" r="7.74"/><path class="cls-11" d="M858.45,156.06h-2.71v2.67h-2.56v-2.67h-2.59v-2.5h2.59v-2.65h2.56v2.65h2.71Z"/><circle class="cls-10" cx="873.24" cy="129.24" r="7.74"/><path class="cls-11" d="M877.15,130.56h-2.71v2.67h-2.57v-2.67h-2.58v-2.5h2.58v-2.65h2.57v2.65h2.71Z"/><circle class="cls-10" cx="885.81" cy="109.17" r="7.74"/><path class="cls-11" d="M889.71,110.49H887v2.67h-2.57v-2.67h-2.58V108h2.58v-2.65H887V108h2.7Z"/><circle class="cls-12" cx="1112.72" cy="212.9" r="7.74"/><path class="cls-11" d="M1116.51,214.52l-2.7-.21-.21,2.66-2.56-.2.21-2.66-2.57-.21.19-2.49,2.58.2.21-2.64,2.56.2-.21,2.64,2.7.22Z"/><circle class="cls-10" cx="1330.43" cy="174.07" r="7.74"/><path class="cls-11" d="M1334.22,175.7l-2.7-.22-.21,2.66-2.55-.2.21-2.66-2.58-.2.2-2.5,2.57.2.21-2.63,2.56.2-.21,2.64,2.7.21Z"/><circle class="cls-10" cx="1262.26" cy="201.81" r="7.74"/><path class="cls-11" d="M1266.05,203.43l-2.7-.21-.21,2.65-2.56-.2.21-2.66-2.58-.2.2-2.5,2.58.21.21-2.64,2.55.2-.2,2.64,2.7.21Z"/><circle class="cls-10" cx="950.27" cy="95.5" r="7.74"/><path class="cls-11" d="M954.06,97.12l-2.7-.21-.21,2.66-2.55-.2.21-2.66-2.58-.21.2-2.49,2.57.2.21-2.64,2.56.2-.21,2.64,2.7.22Z"/><circle class="cls-10" cx="978" cy="90.88" r="7.74"/><path class="cls-11" d="M981.8,92.5l-2.7-.21L978.89,95l-2.56-.21.21-2.65L974,91.88l.2-2.49,2.58.2.2-2.64,2.56.2-.21,2.64L982,90Z"/><circle class="cls-13" cx="980.18" cy="206.18" r="21.88"/><text class="cls-14" transform="translate(966.92 216.19)">Cl</text><path class="cls-15" d="M993,192.33h10.53V196H993Z"/><circle class="cls-16" cx="1145.73" cy="43.17" r="37.55"/><path class="cls-17" d="M1174.21,13.24a6.22,6.22,0,0,1-6.76,5.86,6.72,6.72,0,0,1-6.51-5l4.1-2a2.85,2.85,0,0,0,2.48,2.25,1.89,1.89,0,0,0,2-1.82,1.86,1.86,0,0,0-1.88-1.89,3,3,0,0,0-1.7.46l-1.63-2.37,4-3.46-5.94-.22.17-4.61,11,.4-.16,4.27-2.87,2.62A5.7,5.7,0,0,1,1174.21,13.24Z"/><path class="cls-17" d="M1175.94,9.31l8.4.3-.14,3.81-8.4-.3Z"/><text/><text class="cls-18" transform="translate(1118.66 53.62) rotate(2.09)">P<tspan class="cls-19" x="17.12" y="0">O4</tspan></text><circle class="cls-13" cx="1270.26" cy="232.24" r="18.25"/><text class="cls-20" transform="translate(1256.42 238.04)">NO3</text><path class="cls-21" d="M1279.75,219.77h10.87v4.46h-10.87Z"/><circle class="cls-22" cx="1290.44" cy="73.88" r="28.12"/><text class="cls-23" transform="translate(1270.87 83.41) rotate(-1.83)">SO4</text><path class="cls-24" d="M1306.06,56.43c1.7-1.89,3.51-3.92,5.09-5.75a4.66,4.66,0,0,0,1.45-2.92,1.56,1.56,0,0,0-1.61-1.5c-1.16,0-1.8,1.16-1.73,2.38l-4.16-1a5.85,5.85,0,0,1,5.7-5.82c3.53-.13,6,2.33,6.1,5.09.08,2.2-1,3.83-2.5,5.52-.52.63-1.13,1.36-1.65,2l4.4-.16.15,4.16-11.14.41Z"/><path class="cls-25" d="M1318.89,48.43l8.4-.31.13,3.45-8.4.31Z"/><circle class="cls-26" cx="841.73" cy="97.06" r="25.74"/><text class="cls-27" transform="translate(820.39 105.17) rotate(0.29)">M<tspan class="cls-28" x="18.58" y="0">O4</tspan></text><path class="cls-29" d="M856.61,81.63c1.62-1.67,3.34-3.46,4.85-5.09a4.16,4.16,0,0,0,1.42-2.61,1.42,1.42,0,0,0-1.42-1.43c-1.05,0-1.68,1-1.66,2.12l-3.77-1a5.36,5.36,0,0,1,5.41-5.13,5.11,5.11,0,0,1,5.41,4.87c0,2-1,3.46-2.48,5-.5.56-1.08,1.21-1.57,1.79h4V83.9H856.61Z"/><path class="cls-30" d="M873.24,75.9h7.69v3.16h-7.69Z"/><circle class="cls-26" cx="1108.61" cy="251.82" r="25.74"/><text class="cls-31" transform="translate(1087.27 259.93) rotate(0.29)"><tspan class="cls-32">M</tspan><tspan x="18.58" y="0">O4</tspan></text><path class="cls-29" d="M1123.49,235.4c1.62-1.67,3.34-3.46,4.85-5.09a4.16,4.16,0,0,0,1.42-2.61,1.42,1.42,0,0,0-1.42-1.43c-1.06,0-1.68,1-1.66,2.12l-3.77-1a5.36,5.36,0,0,1,5.41-5.13,5.11,5.11,0,0,1,5.41,4.87c0,2-1,3.46-2.48,5-.5.56-1.08,1.21-1.57,1.79h4v3.81h-10.21Z"/><path class="cls-30" d="M1135.5,229.51h7.69v3.16h-7.69Z"/><circle class="cls-22" cx="958.83" cy="52.36" r="26.98"/><text class="cls-33" transform="translate(939.78 60.87) rotate(0.29)">SO4</text><path class="cls-34" d="M974.43,36.19c1.69-1.75,3.5-3.63,5.08-5.33A4.44,4.44,0,0,0,981,28.11a1.49,1.49,0,0,0-1.49-1.49c-1.11,0-1.76,1-1.74,2.22l-3.95-1.07a5.6,5.6,0,0,1,5.67-5.37,5.35,5.35,0,0,1,5.66,5.1c0,2.11-1.06,3.63-2.59,5.19-.52.59-1.13,1.27-1.65,1.89h4.22v4h-10.7Z"/><path class="cls-35" d="M987.67,26.53h8.06v3.31h-8.06Z"/><circle class="cls-36" cx="851.13" cy="201.26" r="33.88"/><path class="cls-37" d="M871.28,178l14.24.51-.21,5.63-14.24-.52Z"/><text class="cls-38" transform="translate(827.33 210.65) rotate(2.09)">BO3</text><circle class="cls-36" cx="1364.98" cy="164.05" r="21.69"/><path class="cls-39" d="M1377.88,149.15l9.12.34-.13,3.59-9.12-.33Z"/><text class="cls-40" transform="translate(1349.75 170.07) rotate(2.09)">BO3</text><circle class="cls-10" cx="1112.71" cy="213.21" r="7.74"/><path class="cls-11" d="M1116.51,214.83l-2.7-.22-.21,2.66-2.56-.2.21-2.66-2.58-.2.2-2.5,2.58.21.21-2.64,2.55.2-.21,2.64,2.7.21Z"/></g><g id="Layer_70" data-name="Layer 70"><text class="cls-41" transform="translate(0 54.66)"><tspan class="cls-42">o</tspan><tspan x="23.84" y="0">t</tspan><tspan class="cls-43" x="34.24" y="0">h</tspan><tspan x="56.2" y="0">er plant nutrien</tspan><tspan class="cls-42" x="331.99" y="0">t</tspan><tspan x="341.99" y="0">s a</tspan><tspan class="cls-43" x="396.47" y="0">r</tspan><tspan x="407.27" y="0">e </tspan><tspan class="cls-43" x="443.95" y="0">n</tspan><tspan x="465.91" y="0">egati</tspan><tspan class="cls-44" x="557.79" y="0">v</tspan><tspan class="cls-45" x="577.15" y="0">el</tspan><tspan class="cls-46" x="608.47" y="0">y</tspan><tspan x="626.75" y="0"> </tspan><tspan x="0" y="48">c</tspan><tspan class="cls-43" x="21.64" y="48">h</tspan><tspan x="43.6" y="48">a</tspan><tspan class="cls-43" x="68.28" y="48">r</tspan><tspan x="79.08" y="48">ged a</tspan><tspan class="cls-43" x="189.8" y="48">n</tspan><tspan x="211.76" y="48">d in </tspan><tspan class="cls-43" x="296.63" y="48">m</tspan><tspan x="330.43" y="48">o</tspan><tspan class="cls-43" x="354.67" y="48">s</tspan><tspan x="369.67" y="48">t soils can be </tspan><tspan x="0" y="96">easil</tspan><tspan class="cls-43" x="81.24" y="96">y</tspan><tspan x="99.52" y="96" xml:space="preserve"> leac</tspan><tspan class="cls-43" x="191.16" y="96">h</tspan><tspan x="213.12" y="96" xml:space="preserve">ed.  in highl</tspan><tspan class="cls-43" x="428.47" y="96">y</tspan><tspan x="446.75" y="96"> </tspan><tspan class="cls-47" x="460.75" y="96">w</tspan><tspan class="cls-48" x="491.23" y="96">eat</tspan><tspan class="cls-49" x="548.99" y="96">h</tspan><tspan class="cls-45" x="570.95" y="96">e</tspan><tspan class="cls-43" x="593.63" y="96">r</tspan><tspan class="cls-48" x="604.43" y="96">ed </tspan><tspan x="0" y="144">soils, i</tspan><tspan class="cls-43" x="103.4" y="144">r</tspan><tspan x="114.2" y="144">on</tspan><tspan class="cls-50" x="161.2" y="144">/</tspan><tspan x="170.76" y="144">aluminum oxides p</tspan><tspan class="cls-43" x="519.31" y="144">r</tspan><tspan class="cls-44" x="530.11" y="144">o</tspan><tspan x="553.95" y="144">vide </tspan><tspan x="0" y="192">positi</tspan><tspan class="cls-42" x="93.96" y="192">v</tspan><tspan x="113.32" y="192">e c</tspan><tspan class="cls-43" x="171.64" y="192">h</tspan><tspan x="193.6" y="192">a</tspan><tspan class="cls-43" x="218.28" y="192">r</tspan><tspan x="229.08" y="192">ge, a</tspan><tspan class="cls-43" x="321.15" y="192">n</tspan><tspan x="343.11" y="192">d t</tspan><tspan class="cls-49" x="392.19" y="192">h</tspan><tspan class="cls-45" x="414.15" y="192">e abilit</tspan><tspan class="cls-46" x="538.11" y="192">y</tspan><tspan x="556.39" y="192"> </tspan><tspan class="cls-49" x="570.39" y="192">t</tspan><tspan class="cls-45" x="579.99" y="192">o </tspan><tspan class="cls-43" x="0" y="240">h</tspan><tspan x="21.96" y="240">old anio</tspan><tspan class="cls-51" x="174.64" y="240">n</tspan><tspan x="197.8" y="240">s (i.e. NO3</tspan></text><text class="cls-41" transform="translate(368.39 281.34) scale(0.58)">-</text><text class="cls-41" transform="translate(378.23 294.66)">, BO3</text><text class="cls-41" transform="translate(465.47 281.34) scale(0.58)">-</text><text class="cls-41" transform="translate(475.31 294.66)">, Cl</text><text class="cls-41" transform="translate(529.19 281.34) scale(0.58)">-</text><text class="cls-41" transform="translate(539.03 294.66)">).</text></g></g></g></svg>