<svg xmlns="http://www.w3.org/2000/svg" viewBox="0 0 809.41 350.25"><defs><style>.cls-1{fill:#603917;}.cls-10,.cls-17,.cls-2,.cls-3{fill:none;}.cls-2,.cls-26,.cls-27,.cls-30{stroke:#fff;}.cls-10,.cls-12,.cls-13,.cls-17,.cls-2,.cls-20,.cls-23,.cls-26,.cls-27,.cls-28,.cls-3,.cls-30,.cls-31,.cls-32{stroke-miterlimit:10;}.cls-2{stroke-width:7px;}.cls-3{stroke:#523016;stroke-width:3.38px;}.cls-4{font-size:55.63px;}.cls-14,.cls-21,.cls-24,.cls-29,.cls-33,.cls-4,.cls-7{fill:#fff;}.cls-4,.cls-7{font-family:Acre-Medium, Acre;font-weight:500;}.cls-5{letter-spacing:-0.01em;}.cls-6{letter-spacing:-0.02em;}.cls-7{font-size:55.63px;}.cls-8{letter-spacing:-0.01em;}.cls-9{letter-spacing:-0.02em;}.cls-10,.cls-12{stroke:#603917;stroke-width:1.58px;}.cls-11{font-size:23.69px;}.cls-11,.cls-12{fill:#5e5252;}.cls-11,.cls-15{font-family:Acre-Thin, Acre;font-weight:200;}.cls-13{fill:#2e61a2;stroke:#3caba2;stroke-width:0.55px;}.cls-14{font-size:13.63px;}.cls-14,.cls-21,.cls-24,.cls-29,.cls-33{font-family:Acre-Bold, Acre;font-weight:700;}.cls-15{font-size:22.05px;fill:#5d5153;}.cls-16{letter-spacing:-0.02em;}.cls-17{stroke:#5b5052;stroke-width:0.51px;}.cls-18{fill:#5b5052;}.cls-19{letter-spacing:-0.02em;}.cls-20{fill:#fecf08;stroke:#f37243;}.cls-20,.cls-23,.cls-28{stroke-width:2.12px;}.cls-21,.cls-24{font-size:32.29px;}.cls-22{letter-spacing:-0.01em;}.cls-23{fill:#3caba2;stroke:#2e61a2;}.cls-24{letter-spacing:-0.01em;}.cls-25{letter-spacing:0em;}.cls-26{fill:#2e6292;}.cls-26,.cls-27{stroke-width:0.71px;}.cls-27{fill:#f37243;}.cls-28,.cls-32{fill:#6d54a3;}.cls-28{stroke:#ec6a7c;}.cls-29{font-size:29.67px;}.cls-30{fill:#ec6a7c;stroke-width:0.42px;}.cls-31{fill:#3f8880;stroke:#6d54a3;stroke-width:2.27px;}.cls-32{stroke:#e9e9e9;stroke-width:0.73px;}.cls-33{font-size:30px;}.cls-34{font-size:29.07px;}</style></defs><g id="Layer_2" data-name="Layer 2"><g id="SOM_Exchange_Capacity" data-name="SOM Exchange Capacity"><g id="Layer_65" data-name="Layer 65"><path class="cls-1" d="M703.78,134.59l-34.68-5-21.71,27.52-20-3.33-20-3.33-11.8,13.93-11.8,13.93-18-4-18-4-15,10.37-15,10.38-17.58-8.14-17.58-8.14-15.3,7.64-15.29,7.64-28.17-20.86-32.14,14-15.56-9.89-15.55-9.89-16.88,8.58-16.88,8.58-14.5-14.36-14.5-14.36-19.47,1.51-19.47,1.51h.08l-22.12-27.24-34.11,5.22-13-15L177.89,103.5l8.22-17,8.21-17L182.86,53.76,171.39,38.1,178,20.8c1.6-4.17,6.5-17.21,6.5-17.21s4.65.17,5.82.17l19.44,0,69.31.13,91.13.16,90.47.16,96.39.17,89.29.16c22.85,0,72.07,0,72.07,0s4.75,11.44,7,16.53l7.89,18L722,54.61,710.63,70.13l8.66,17.61,8.65,17.6L715.86,120l-12.08,14.63L715.86,120l12.08-14.62"/><path class="cls-2" d="M703.78,134.59l-34.68-5-21.71,27.52-20-3.33-20-3.33-11.8,13.93-11.8,13.93-18-4-18-4-15,10.37-15,10.38-17.58-8.14-17.58-8.14-15.3,7.64-15.29,7.64-28.17-20.86-32.14,14-15.56-9.89-15.55-9.89-16.88,8.58-16.88,8.58-14.5-14.36-14.5-14.36-19.47,1.51-19.47,1.51h.08l-22.12-27.24-34.11,5.22-13-15L177.89,103.5l8.22-17,8.21-17L182.86,53.76,171.39,38.1,178,20.8c1.6-4.17,6.5-17.21,6.5-17.21s4.65.17,5.82.17l19.44,0,69.31.13,91.13.16,90.47.16,96.39.17,89.29.16c22.85,0,72.07,0,72.07,0s4.75,11.44,7,16.53l7.89,18L722,54.61,710.63,70.13l8.66,17.61,8.65,17.6L715.86,120l-12.08,14.63L715.86,120l12.08-14.62"/><path class="cls-3" d="M703.78,134.59l-34.68-5-21.71,27.52-20-3.33-20-3.33-11.8,13.93-11.8,13.93-18-4-18-4-15,10.37-15,10.38-17.58-8.14-17.58-8.14-15.3,7.64-15.29,7.64-28.17-20.86-32.14,14-15.56-9.89-15.55-9.89-16.88,8.58-16.88,8.58-14.5-14.36-14.5-14.36-19.47,1.51-19.47,1.51h.08l-22.12-27.24-34.11,5.22-13-15L177.89,103.5l8.22-17,8.21-17L182.86,53.76,171.39,38.1,178,20.8c1.6-4.17,6.5-17.21,6.5-17.21s4.65.17,5.82.17l19.44,0,69.31.13,91.13.16,90.47.16,96.39.17,89.29.16c22.85,0,72.07,0,72.07,0s4.75,11.44,7,16.53l7.89,18L722,54.61,710.63,70.13l8.66,17.61,8.65,17.6L715.86,120l-12.08,14.63L715.86,120l12.08-14.62"/><text class="cls-4" transform="translate(303.24 80.71) rotate(0.1)"><tspan class="cls-5">s</tspan><tspan x="23.53" y="0">oil o</tspan><tspan class="cls-6" x="137.47" y="0">r</tspan><tspan x="154.61" y="0">ganic </tspan></text><text class="cls-7" transform="translate(373.9 136.72) rotate(-0.67)"><tspan class="cls-8">m</tspan><tspan x="49.18" y="0">at</tspan><tspan class="cls-9" x="100.53" y="0">t</tspan><tspan x="116.44" y="0">er</tspan></text></g><g id="Layer_66" data-name="Layer 66"><line class="cls-10" x1="391.93" y1="216.16" x2="395.31" y2="187.3"/><line class="cls-10" x1="416.56" y1="233.45" x2="443.79" y2="221.61"/><line class="cls-10" x1="422.23" y1="175.3" x2="446.08" y2="192.96"/><line class="cls-10" x1="663.35" y1="186.08" x2="652.66" y2="159.05"/><line class="cls-10" x1="693.23" y1="189.65" x2="711.61" y2="166.34"/><line class="cls-10" x1="670.7" y1="135.75" x2="700.07" y2="140.01"/><line class="cls-10" x1="413.81" y1="272.23" x2="415.8" y2="238.72"/><line class="cls-10" x1="708.67" y1="226.51" x2="695.05" y2="194.74"/><line class="cls-10" x1="555.5" y1="272.48" x2="532.55" y2="251.9"/><line class="cls-10" x1="496.43" y1="278" x2="514.86" y2="253.29"/><line class="cls-10" x1="492.19" y1="274.84" x2="510.62" y2="250.13"/><text class="cls-11" transform="translate(473.69 295.54) rotate(0.1)">O</text><text class="cls-11" transform="translate(511.91 246.97) rotate(0.1)">C</text><text class="cls-11" transform="translate(555.44 291.03) rotate(0.1)">O-</text><text class="cls-11" transform="translate(586.73 232.68) rotate(0.1)">O-</text><text class="cls-11" transform="translate(704.96 247.32) rotate(0.1)">O-</text><text class="cls-11" transform="translate(763.22 121.59) rotate(0.1)">O-</text><text class="cls-11" transform="translate(397.13 297.71) rotate(0.1)">O-</text><line class="cls-12" x1="669.1" y1="129.55" x2="647.39" y2="157.07"/><line class="cls-10" x1="759.87" y1="109.96" x2="728.13" y2="105.41"/><polygon class="cls-10" points="669.1 129.55 647.39 157.06 660.37 189.62 695.05 194.66 716.76 167.14 703.78 134.59 669.1 129.55"/><polygon class="cls-10" points="423.75 169.08 391.61 183.05 387.63 217.87 415.8 238.72 447.94 224.76 451.92 189.94 423.75 169.08"/><line class="cls-10" x1="519.14" y1="222.76" x2="517.67" y2="190.94"/><line class="cls-10" x1="592.29" y1="210.04" x2="583.78" y2="178.27"/></g><g id="Layer_154" data-name="Layer 154"><circle class="cls-13" cx="78.02" cy="160.14" r="14.72"/><text class="cls-14" transform="translate(72.56 164.77) rotate(-0.04)">H</text><text class="cls-14" transform="translate(82.08 160.22) rotate(-0.04) scale(0.58)">+</text></g><g id="Layer_75" data-name="Layer 75"><line class="cls-10" x1="119.16" y1="154.78" x2="128.2" y2="125.5"/><line class="cls-10" x1="123.22" y1="101.72" x2="100.21" y2="81.48"/><line class="cls-10" x1="126.02" y1="98.54" x2="103.01" y2="78.3"/><text class="cls-11" transform="translate(77.82 78.31) rotate(0.1)">O</text><text class="cls-11" transform="translate(123.98 118.26) rotate(0.1)">C</text><line class="cls-10" x1="145.65" y1="109.18" x2="177.89" y2="103.5"/><text class="cls-15" transform="translate(8 290.27) rotate(-0.67)">carboxyl <tspan x="8.4" y="26.46">g</tspan><tspan class="cls-16" x="22.01" y="26.46">r</tspan><tspan x="27.96" y="26.46">oups</tspan></text><text class="cls-15" transform="translate(94.58 186.46) rotate(-0.67)">OH</text><path class="cls-17" d="M69.89,196.44c-20.87,13-27.95,38-27.29,62.17"/><polygon class="cls-18" points="67.73 195.62 69.39 196.81 69.68 198.83 72.51 194.92 67.73 195.62"/></g><g id="Layer_74" data-name="Layer 74"><line class="cls-10" x1="194.94" y1="165.08" x2="205.45" y2="137.99"/><line class="cls-10" x1="213.67" y1="187.99" x2="242.99" y2="183.36"/><line class="cls-10" x1="234.86" y1="132.13" x2="253.53" y2="155.21"/><line class="cls-10" x1="199.28" y1="223.97" x2="211.61" y2="192.91"/><polygon class="cls-10" points="236.76 127.48 202.14 132.95 189.56 165.66 211.61 192.91 246.22 187.44 258.8 154.73 236.76 127.48"/><text class="cls-15" transform="translate(137.91 301.65) rotate(-0.67)">p<tspan class="cls-16" x="13.58" y="0">h</tspan><tspan x="25.69" y="0">e</tspan><tspan class="cls-19" x="38.19" y="0">n</tspan><tspan x="50.3" y="0">olic </tspan><tspan x="8.9" y="26.46">g</tspan><tspan class="cls-16" x="22.5" y="26.46">r</tspan><tspan x="28.46" y="26.46">oups</tspan></text><text class="cls-15" transform="translate(170.46 250.47) rotate(-0.67)">OH</text></g><g id="Layer_73" data-name="Layer 73"><line class="cls-10" x1="319.87" y1="211.63" x2="326.74" y2="180.43"/><text class="cls-15" transform="translate(257.57 279.65) rotate(-0.67)">alco<tspan class="cls-16" x="43.66" y="0">h</tspan><tspan x="55.76" y="0">olic </tspan><tspan x="11.63" y="26.46">g</tspan><tspan class="cls-16" x="25.24" y="26.46">r</tspan><tspan x="31.19" y="26.46">oups</tspan></text><text class="cls-15" transform="translate(285.53 238.44) rotate(-0.67)">OH</text></g><g id="Layer_67" data-name="Layer 67"><circle class="cls-20" cx="632.55" cy="279.4" r="27.46"/><text class="cls-21" transform="translate(612.55 289.54)"><tspan class="cls-22">C</tspan><tspan x="19.05" y="0">a</tspan></text><circle class="cls-23" cx="772.03" cy="190.83" r="30.29"/><text class="cls-24" transform="translate(748 200.92)">M<tspan class="cls-25" x="26.86" y="0">g</tspan></text><path class="cls-26" d="M785.23,171.77c1.93-2,4-4.14,5.79-6.08,1-1.06,1.7-2,1.7-3.13a1.7,1.7,0,0,0-1.7-1.71c-1.26,0-2,1.19-2,2.54l-4.51-1.22A6.41,6.41,0,0,1,791,156c3.86,0,6.46,2.79,6.46,5.82,0,2.41-1.21,4.14-3,5.92-.59.68-1.29,1.45-1.88,2.15h4.82v4.55H785.23Z"/><path class="cls-26" d="M809.06,168.2h-3.43v3.39h-3.24V168.2h-3.27V165h3.27v-3.37h3.24V165h3.43Z"/><path class="cls-27" d="M639.32,257c1.68-1.72,3.47-3.59,5-5.27a4.36,4.36,0,0,0,1.48-2.72,1.48,1.48,0,0,0-1.48-1.48c-1.09,0-1.74,1-1.72,2.2l-3.91-1.06a5.55,5.55,0,0,1,5.61-5.32,5.3,5.3,0,0,1,5.61,5.06c0,2.08-1.05,3.59-2.57,5.14-.51.58-1.12,1.25-1.63,1.86h4.18v4h-10.6Z"/><path class="cls-27" d="M660,253.92h-3v2.94h-2.81v-2.94h-2.84v-2.77h2.84v-2.91H657v2.91h3Z"/><circle class="cls-28" cx="424.27" cy="326.1" r="20.19"/><text class="cls-29" transform="translate(415.43 336.17)">K</text><path class="cls-30" d="M441.6,311.27h-3.3v3.27h-3.13v-3.27H432V308.2h3.15V305h3.13v3.24h3.3Z"/></g><g id="Layer_153" data-name="Layer 153"><circle class="cls-31" cx="33.63" cy="116.4" r="32.5"/><path class="cls-32" d="M58.28,90.49a5.38,5.38,0,0,1-5.85,5.07,5.83,5.83,0,0,1-5.64-4.32l3.55-1.73a2.47,2.47,0,0,0,2.15,1.94,1.63,1.63,0,0,0,1.77-1.57,1.61,1.61,0,0,0-1.63-1.64,2.59,2.59,0,0,0-1.47.4l-1.41-2,3.43-3-5.13-.19.14-4,9.49.35-.13,3.7-2.49,2.27A4.91,4.91,0,0,1,58.28,90.49Z"/><path class="cls-32" d="M59.77,87.09l7.27.26-.12,3.3-7.27-.26Z"/><text/><text class="cls-33" transform="translate(9.13 126.13) rotate(2.09)">PO<tspan class="cls-34" x="40.95" y="0">4</tspan></text></g></g></g></svg>