<svg xmlns="http://www.w3.org/2000/svg" viewBox="0 0 1356.59 338.36"><defs><style>.cls-1,.cls-9{fill:#9a6d55;stroke:#5b5052;}.cls-1,.cls-10,.cls-12,.cls-15,.cls-16,.cls-18,.cls-20,.cls-21,.cls-23,.cls-27,.cls-28,.cls-29,.cls-5,.cls-6,.cls-9{stroke-miterlimit:10;}.cls-1,.cls-12,.cls-16,.cls-21,.cls-28,.cls-5{stroke-width:1.07px;}.cls-2{fill:#7c7072;}.cls-3{font-size:46.54px;font-family:Acre-Medium, Acre;font-weight:500;}.cls-11,.cls-13,.cls-17,.cls-19,.cls-22,.cls-24,.cls-25,.cls-3,.cls-30,.cls-7{fill:#fff;}.cls-4{letter-spacing:-0.03em;}.cls-10,.cls-5{fill:#ffcf01;}.cls-12,.cls-16,.cls-21,.cls-28,.cls-5{stroke:#df6572;}.cls-15,.cls-23,.cls-27,.cls-29,.cls-6{fill:#df6572;}.cls-10,.cls-15,.cls-18,.cls-23,.cls-27,.cls-29,.cls-6{stroke:#fff;}.cls-6{stroke-width:0.9px;}.cls-7{font-size:35.55px;}.cls-13,.cls-17,.cls-19,.cls-25,.cls-30,.cls-7{font-family:Acre-Semibold, Acre;font-weight:600;}.cls-8{letter-spacing:-0.01em;}.cls-9{stroke-width:2.43px;}.cls-10{stroke-width:0.48px;}.cls-12{fill:#3caba2;}.cls-13{font-size:50.39px;}.cls-14{letter-spacing:-0.01em;}.cls-15{stroke-width:1.05px;}.cls-16{fill:#6d54a3;}.cls-17{font-size:46.3px;}.cls-18{fill:#ec6a7c;stroke-width:0.63px;}.cls-19{font-size:46.3px;}.cls-20{fill:none;stroke:#5e5252;stroke-width:1.58px;}.cls-21{fill:#39944c;}.cls-22{font-size:24.02px;}.cls-22,.cls-24{font-family:Acre-Bold, Acre;font-weight:700;}.cls-23{stroke-width:0.62px;}.cls-24{font-size:24.02px;}.cls-25{font-size:46.54px;}.cls-26{letter-spacing:-0.02em;}.cls-27{stroke-width:0.97px;}.cls-28{fill:#2e61a2;}.cls-29{stroke-width:0.8px;}.cls-30{font-size:33.87px;}.cls-31{font-size:40px;fill:#5c5052;font-family:Acre-Thin, Acre;font-weight:200;}.cls-32{letter-spacing:-0.02em;}.cls-33{letter-spacing:-0.01em;}.cls-34{letter-spacing:-0.01em;}.cls-35{letter-spacing:-0.02em;}.cls-36{letter-spacing:-0.02em;}.cls-37{letter-spacing:-0.04em;}.cls-38{letter-spacing:0.01em;}.cls-39{letter-spacing:0em;}.cls-40{letter-spacing:0em;}.cls-41{letter-spacing:-0.01em;}.cls-42{letter-spacing:0.01em;}.cls-43{letter-spacing:-0.07em;}</style></defs><g id="Layer_2" data-name="Layer 2"><g id="Clay_Exchange_Capacity" data-name="Clay Exchange Capacity"><g id="Layer_59" data-name="Layer 59"><path class="cls-1" d="M256,188.62c-2.85,2.79-5.32,6.92-3.84,10.65.62,2.26.26,4.9,0,8.78a5.39,5.39,0,0,1-5.76,5.09q-17.78-1.29-35.57-2.59a15.34,15.34,0,0,1-6.17-1.31,19.63,19.63,0,0,1-4.15-3.34c-7.68-7.1-18.42-9.81-28.86-9.49-47.21,1.52-93.72-6.27-140-15.69a5.39,5.39,0,0,1-4.27-5.62c.66-12.14,1.37-23.45-.46-35.48.38-.38-.5-1.7-.09-2.07-.35,3.49,4.21,6.6,7.67,7.59s7.42.87,11.17,1.07c16.28.95,32.86,9.83,49,7.94a4.58,4.58,0,0,1,1.28,0,483,483,0,0,0,69.11,5.57c10.13.08,21.79.51,28.32,8.2a13.15,13.15,0,0,0,10.86,4.9,326.7,326.7,0,0,1,36-.57c7.53.32,15.27.93,22.1,4.13a3,3,0,0,1,1.54,1.25,2.69,2.69,0,0,1-.14,1.95C262.34,183.36,258.82,185.8,256,188.62Z"/><path class="cls-2" d="M594.93,122c-.43,2.87-2.79,4.65-5.55,5.9a42.17,42.17,0,0,1-4.69,1.8,56,56,0,0,0-17.62,9.89c-1.22,1-2.5,2.21-2.82,3.78-.82,4,4.39,7.48,3.81,11.64-.21,1.54-1.22,3.2-3.7,5a13.05,13.05,0,0,1-3.31,1.77c-4.13,1.66-9,1.63-13.5,1.9a85.91,85.91,0,0,0-58.11,27.89c-62.18,14.51-127.1,20-190.92,17.68A130.54,130.54,0,0,1,262,202.84c-2.21-.71-4.43-1.3-6.69-1.86a5.5,5.5,0,0,1-3.14-1.67,3.43,3.43,0,0,1-.43-2.09c-.1-3.31,2-6.4,4.27-8.6.67-.64,1.34-1.28,2-1.89,2.32-2.12,4.65-4.25,5.73-7.13a2.69,2.69,0,0,0,.14-1.95,3,3,0,0,0-1.54-1.25c-6.83-3.2-14.57-3.81-22.1-4.13a326.37,326.37,0,0,0-38.43.76c-3.6.29-5.78-1.83-8-4.65-6.46-8.12-18.36-8.55-28.68-8.64-9.77-.09-19.52-.5-29.26-1.17s-19.08-1.77-28.65-3c-4-.5-8.09-.93-12.13-1.22-3.87-.27-7.74.05-11.58-.41a106.34,106.34,0,0,1-12.59-2.56c-8.32-2.12-16.61-4.71-25.22-5.21-3.75-.2-7.56,0-11.17-1.07-3.46-1-8-4.1-7.67-7.59a2.7,2.7,0,0,1,.05-.41c1.63-7.45,8.61-12.33,15.3-16,23.56-12.77,49.91-19.22,76-25.54,15.19-3.66,29.73-7.09,45.26-8.9,3.29-.37,6.6-.64,9.92-.9,8.55-.7,17.1-1.37,25.65-2.06s18.38,1.22,26.73-.21c6-1,11.87-2.88,17.8-4.33,18.18-4.45,37-5.15,55.7-5.82,13.85-.46,27.89,7.71,41.3,11.26,16.32,4.33,33.57,2,50.49,2.18a167.74,167.74,0,0,1,53.55,9.42c20.27,7.13,43.43,12.54,64.92,13,25,.53,49.33-1.57,74.11,3.09a20.76,20.76,0,0,1,7.77,2.67C593.62,116.58,595.34,119.25,594.93,122Z"/><path class="cls-1" d="M570.94,182.69c0,2.64,0,5.38-1.11,7.79,0,.06-.06.09-.09.15-1.68,3.49-5.43,5.52-9.13,6.77-8.58,2.94-17.89,2.91-26.7,5.06C523,205.14,512.28,211,503,217.3s-18.69,9.44-29.76,12.6a424.42,424.42,0,0,1-74,14.12c-25.06,2.5-50.28,2.75-75.43,1.88-22.43-.77-49.61,1.14-70.8-7a4.55,4.55,0,0,1-2.51-1.75,4.89,4.89,0,0,1-.32-2.64c.31-4.8.9-9.58,1.3-14.37.21-2.5.39-5,.49-7.5a26.74,26.74,0,0,0,.06-5.44,12.44,12.44,0,0,1,.25-5.25c.14-.58.38-1.23.94-1.4a1.81,1.81,0,0,1,1.05.12c2.55.82,5.16,1.29,7.72,2.13a130.54,130.54,0,0,0,36.56,6.37,740,740,0,0,0,99.87-3.33C426.21,203.09,455,200.37,482,193c6-1.65,9.26-4.1,13.91-8.25a68.63,68.63,0,0,1,5.82-4.66c4.22-3,8.91-5.11,13.29-7.79a46.28,46.28,0,0,1,7.43-3.24q3.79-1.44,7.71-2.52a83.45,83.45,0,0,1,17.4-2.89c4.54-.27,9.37-.24,13.5-1.9a5.25,5.25,0,0,0,.81-.32,13.56,13.56,0,0,0,2.5-1.45,4,4,0,0,1,6.33,3c.11,1.44.12,2.9.13,4.35s0,2.71,0,4.07C570.88,175.12,570.91,178.91,570.94,182.69Z"/><text class="cls-3" transform="translate(285.77 157.48)">cla<tspan class="cls-4" x="63.57" y="0">y</tspan></text></g><g id="Layer_71" data-name="Layer 71"><circle class="cls-5" cx="314.98" cy="39.56" r="35.38"/><path class="cls-6" d="M347.76,13.07h-6.61V19.6h-6.26V13.07h-6.31V6.93h6.31V.45h6.26V6.93h6.61Z"/><text class="cls-7" transform="translate(291.65 51.91)"><tspan class="cls-8">N</tspan><tspan x="25.74" y="0">a</tspan></text><path class="cls-9" d="M591.79,160.67a28.2,28.2,0,0,1-7.9,7.88,27.41,27.41,0,0,1-10.34,4.16,16.93,16.93,0,0,1-2.7-1.34c0-1.36,0-2.7,0-4.07,0-4.3-.06-8.78-2.76-12.3.58-4.16-4.63-7.62-3.81-11.64.34-1.67,1.56-2.64,2.82-3.78,6.17-5.59,12.53-8.88,16.93-11.27,2.55-1.4,6.35-3.52,10.93-6.32a75.36,75.36,0,0,1,1.58,17.9C596.27,147.71,596.06,154.2,591.79,160.67Z"/><circle class="cls-10" cx="199.23" cy="98.89" r="8.86"/><rect class="cls-11" x="194.23" y="97.66" width="10" height="2.45"/><circle class="cls-10" cx="304.55" cy="87.95" r="8.86" transform="translate(208.78 390.13) rotate(-88.52)"/><rect class="cls-11" x="299.56" y="86.72" width="10" height="2.45" transform="translate(2.37 -7.83) rotate(1.48)"/><circle class="cls-10" cx="416.84" cy="103.75" r="8.86"/><rect class="cls-11" x="411.84" y="102.52" width="10" height="2.45"/><circle class="cls-10" cx="446.02" cy="113.48" r="8.86"/><rect class="cls-11" x="441.02" y="112.25" width="10" height="2.45"/><circle class="cls-10" cx="547.22" cy="144.61" r="8.86"/><rect class="cls-11" x="542.22" y="143.38" width="10" height="2.45"/><circle class="cls-10" cx="483.41" cy="178.2" r="8.86" transform="translate(-24.28 90.49) rotate(-10.43)"/><rect class="cls-11" x="478.41" y="176.98" width="10" height="2.45" transform="translate(-24.28 90.49) rotate(-10.43)"/><circle class="cls-10" cx="293.52" cy="193.84" r="8.86" transform="translate(81.72 474.68) rotate(-86.42)"/><rect class="cls-11" x="288.52" y="192.61" width="10" height="2.45" transform="translate(12.68 -17.96) rotate(3.58)"/><circle class="cls-10" cx="176.13" cy="142.65" r="8.86"/><rect class="cls-11" x="171.13" y="141.43" width="10" height="2.45"/><circle class="cls-10" cx="211.39" cy="142.65" r="8.86"/><rect class="cls-11" x="206.39" y="141.43" width="10" height="2.45"/><circle class="cls-10" cx="53.34" cy="130.5" r="8.86"/><rect class="cls-11" x="48.35" y="129.27" width="10" height="2.45"/><circle class="cls-10" cx="76.44" cy="120.77" r="8.86"/><rect class="cls-11" x="71.44" y="119.54" width="10" height="2.45"/><circle class="cls-12" cx="455.5" cy="51.86" r="47.27"/><text class="cls-13" transform="translate(416.37 63.07) rotate(6.81)"><tspan class="cls-14">M</tspan><tspan x="40.91" y="0">g</tspan></text><path class="cls-15" d="M479.48,24.77c3.36-2.73,6.95-5.68,10.1-8.35,1.67-1.47,3-2.81,3.21-4.53a2.64,2.64,0,0,0-2.31-3c-2-.24-3.33,1.47-3.54,3.56l-6.76-2.72a10,10,0,0,1,11.15-8.31c6,.72,9.5,5.53,8.94,10.22-.45,3.73-2.64,6.19-5.69,8.63-1,.93-2.26,2-3.31,3l7.46.89-.84,7.05L479,29Z"/><path class="cls-15" d="M517.07,23.64,511.76,23l-.63,5.25-5-.6.63-5.25-5.07-.61.59-4.92,5.07.6.62-5.21,5,.6-.62,5.21,5.3.63Z"/><circle class="cls-16" cx="290.01" cy="240.85" r="31.51"/><text class="cls-17" transform="translate(276.22 256.56)">K</text><path class="cls-18" d="M317.06,217.71h-5.15v5.1H307v-5.1H302.1v-4.79H307v-5.06h4.89v5.06h5.15Z"/><circle class="cls-16" cx="591.83" cy="149.44" r="31.51"/><text class="cls-19" transform="translate(577.79 164.95) rotate(0.75)">K</text><path class="cls-18" d="M619.18,126.66l-5.15-.07-.07,5.1-4.88-.06.06-5.1-4.92-.06.06-4.79,4.92.06.07-5.06,4.88.07-.06,5.06,5.15.06Z"/><line class="cls-20" x1="522.95" y1="216.07" x2="519.6" y2="215.89"/><circle class="cls-21" cx="500.93" cy="216.73" r="25.28"/><text class="cls-22" transform="translate(481.87 228.11) rotate(-10.75)">NH4</text><path class="cls-23" d="M524.11,197.73l-4.16.79.8,4.22-3.42.65-.8-4.22-4.07.77-.63-3.33,4.06-.77-.77-4.09,3.42-.65.78,4.09,4.15-.79Z"/><line class="cls-20" x1="218.7" y1="59.38" x2="215.37" y2="58.99"/><circle class="cls-21" cx="196.69" cy="58.67" r="25.28"/><text class="cls-24" transform="translate(176.96 68.87) rotate(-7.17)">NH4</text><path class="cls-23" d="M221,41.16l-4.19.52.53,4.26-3.46.44-.53-4.26-4.11.52-.42-3.37,4.1-.52-.52-4.13,3.46-.44.52,4.14,4.2-.53Z"/><circle class="cls-5" cx="40.13" cy="78.05" r="39.58"/><text class="cls-25" transform="matrix(0.96, -0.27, 0.27, 0.96, 16.25, 99.82)"><tspan class="cls-26">C</tspan><tspan x="27.93" y="0">a</tspan></text><path class="cls-27" d="M47.06,47.05c1.66-3,3.43-6.33,5-9.27.79-1.59,1.37-3,1-4.34A2.13,2.13,0,0,0,50.4,32c-1.52.42-2,2.1-1.54,3.72l-5.84,0a8,8,0,0,1,5.75-9.55c4.66-1.29,8.72,1.21,9.73,4.86.81,2.9-.08,5.39-1.59,8.13-.49,1-1.07,2.18-1.55,3.22l5.8-1.61,1.52,5.49L48,50.32Z"/><path class="cls-27" d="M74.6,34.79l-4.13,1.15L71.6,40l-3.91,1.09L66.56,37l-4,1.09-1.06-3.84,4-1.09-1.12-4.05,3.91-1.08,1.12,4.05L73.54,31Z"/><circle class="cls-28" cx="189.67" cy="192.83" r="32.06"/><path class="cls-29" d="M205.1,173.89c2.28-2,4.71-4.27,6.84-6.27,1.13-1.1,2-2.1,2.11-3.32a1.88,1.88,0,0,0-1.75-2c-1.39-.1-2.3,1.16-2.37,2.65l-4.88-1.68a7.07,7.07,0,0,1,7.58-6.28c4.26.29,6.92,3.56,6.69,6.9-.17,2.65-1.64,4.47-3.7,6.31-.71.69-1.53,1.5-2.23,2.23l5.3.35-.33,5-13.46-.91Z"/><path class="cls-29" d="M233.08,171.06l-4.1-.28-.28,4.08-3.89-.27.27-4.07-3.93-.26.26-3.82,3.93.26.27-4,3.9.27-.28,4,4.11.28Z"/><text class="cls-30" transform="translate(166.78 201.53) rotate(3.85)">Cu</text></g><g id="Layer_61" data-name="Layer 61"><text class="cls-31" transform="translate(790.2 64.36)"><tspan class="cls-32">m</tspan><tspan x="33.8" y="0">a</tspan><tspan class="cls-33" x="58.48" y="0">n</tspan><tspan class="cls-32" x="80.84" y="0">y</tspan><tspan x="99.12" y="0" xml:space="preserve"> impor</tspan><tspan class="cls-32" x="217.64" y="0">t</tspan><tspan x="227.24" y="0">ant plant nutrien</tspan><tspan class="cls-34" x="526.59" y="0">t</tspan><tspan x="536.59" y="0">s </tspan><tspan x="-13.4" y="48">a</tspan><tspan class="cls-32" x="11.28" y="48">r</tspan><tspan x="22.08" y="48">e positi</tspan><tspan class="cls-33" x="152.72" y="48">v</tspan><tspan x="172.08" y="48">el</tspan><tspan class="cls-32" x="203.4" y="48">y</tspan><tspan x="221.68" y="48" xml:space="preserve"> c</tspan><tspan class="cls-35" x="257.32" y="48">h</tspan><tspan x="279.28" y="48">a</tspan><tspan class="cls-36" x="303.96" y="48">r</tspan><tspan x="314.76" y="48">ged </tspan><tspan class="cls-37" x="400.79" y="48">(</tspan><tspan x="408.35" y="48">catio</tspan><tspan class="cls-38" x="498.75" y="48">n</tspan><tspan class="cls-39" x="521.91" y="48">s). </tspan><tspan x="75.44" y="96">t</tspan><tspan class="cls-32" x="85.84" y="96">h</tspan><tspan x="107.8" y="96">e p</tspan><tspan class="cls-32" x="169.12" y="96">r</tspan><tspan x="179.92" y="96">ese</tspan><tspan class="cls-32" x="241.08" y="96">n</tspan><tspan x="263.04" y="96">ce </tspan><tspan class="cls-34" x="321.35" y="96">o</tspan><tspan class="cls-40" x="345.19" y="96">f </tspan><tspan class="cls-36" x="369.59" y="96">n</tspan><tspan class="cls-40" x="391.55" y="96">egati</tspan><tspan class="cls-34" x="483.43" y="96">v</tspan><tspan x="502.79" y="96">el</tspan><tspan class="cls-32" x="534.11" y="96">y</tspan><tspan x="552.39" y="96"> </tspan><tspan x="40.8" y="144">c</tspan><tspan class="cls-32" x="62.44" y="144">h</tspan><tspan x="84.4" y="144">a</tspan><tspan class="cls-32" x="109.08" y="144">r</tspan><tspan x="119.88" y="144">ged clays p</tspan><tspan class="cls-32" x="334.39" y="144">r</tspan><tspan class="cls-34" x="345.19" y="144">o</tspan><tspan class="cls-32" x="369.03" y="144">t</tspan><tspan class="cls-40" x="378.63" y="144">ec</tspan><tspan class="cls-41" x="422.95" y="144">t</tspan><tspan x="432.95" y="144">s t</tspan><tspan class="cls-32" x="473.15" y="144">h</tspan><tspan x="495.11" y="144">em </tspan><tspan x="120" y="192">agai</tspan><tspan class="cls-42" x="203.48" y="192">n</tspan><tspan class="cls-32" x="226.64" y="192">s</tspan><tspan x="241.64" y="192">t losses </tspan><tspan class="cls-35" x="382.99" y="192">t</tspan><tspan class="cls-39" x="392.59" y="192">o g</tspan><tspan class="cls-36" x="455.51" y="192">r</tspan><tspan x="466.31" y="192">avit</tspan><tspan class="cls-43" x="530.59" y="192">y</tspan><tspan x="546.87" y="192">.</tspan></text></g></g></g></svg>