<svg xmlns="http://www.w3.org/2000/svg" xmlns:xlink="http://www.w3.org/1999/xlink" viewBox="0 0 2474.12 1753.94"><defs><style>.cls-1,.cls-14,.cls-17,.cls-8{fill:none;}.cls-10,.cls-12,.cls-16,.cls-18,.cls-2{fill:#fff;}.cls-2{stroke:#ffcf01;stroke-width:2px;}.cls-11,.cls-13,.cls-14,.cls-17,.cls-2,.cls-8,.cls-9{stroke-miterlimit:10;}.cls-3{clip-path:url(#clip-path);}.cls-4{fill:#81a1c5;}.cls-5{fill:#4e7383;}.cls-6{fill:#2e61a2;}.cls-7{fill:#5c5052;}.cls-11,.cls-8,.cls-9{stroke:#5e5252;}.cls-11,.cls-13,.cls-8,.cls-9{stroke-width:0.5px;}.cls-9{fill:#3d9f96;}.cls-11,.cls-13{fill:#ec6b7c;}.cls-12{font-size:9.09px;}.cls-12,.cls-16,.cls-18{font-family:Acre-Bold, Acre;font-weight:700;}.cls-13{stroke:#5b5052;}.cls-14,.cls-17{stroke:#5c5052;}.cls-14{stroke-width:0.5px;}.cls-15{fill:#5e5252;}.cls-16{font-size:8.36px;}.cls-17{stroke-width:0.5px;}.cls-18{font-size:9.09px;}.cls-19{fill:#5b5052;}</style><clipPath id="clip-path" transform="translate(1342.26 665.92)"><circle class="cls-1" cx="205.32" cy="155.42" r="153.85"/></clipPath></defs><g id="Layer_2" data-name="Layer 2"><g id="Layer_11" data-name="Layer 11"><path class="cls-2" d="M217.74,1.47A153.85,153.85,0,0,0,78.1,68.94L1.81,86.53,52.09,146.8A153.89,153.89,0,1,0,217.74,1.47Z" transform="translate(1342.26 665.92)"/><g class="cls-3"><path class="cls-4" d="M-78.92,1003.1c-33.84,37.72-81.19,65.34-132.49,68.31-28.94,1.68-62.16-13.44-88.28-24.61-46.41-19.84-92.63-48.54-119.76-92.38-14.19-22.94-16.1-44.54-21.88-69.72-7.94-34.57-12.33-63.31-3.53-98.64,5.9-23.68,14.3-46.75,18.47-70.86,4.12-23.81,7.91-47.78,19.26-69.52,27.65-52.94,68.82-106,127.93-124.15,70.15-21.59,143.66-26.42,216-13C6.18,521.29,53.17,572.83,60,642.7c2.25,22.87,4.45,46.39-1.91,68.51-7.84,27.27-28.35,47.24-39.9,72.47C7.41,807.32,5.05,836.29-2.17,861.3-16,909.12-42.17,962.12-78.92,1003.1Z" transform="translate(1342.26 665.92)"/><path class="cls-4" d="M-1255.49,401.42l2.59,1.74c23.38,15.55,47.84,30.2,74.27,40,24.14,8.94,58.11,7,77.25,25.49,14.2,13.71,17.1,35.3,16.72,55-.69,35,.61,64.56,17.71,96.21,31.49,58.27,81.4,100,140.82,127.85,30.72,14.41,65.93,27.34,98.73,35.12,44.86,10.63,91.35,10,137.13,11.64,2.76.1,5.52.2,8.28.32,58.56,2.47,120.45,11.36,165.66,48.65,35.85,29.57,56.82,74.23,81.9,112.42,39.88,60.73,109,108.71,179.46,126.08,109.12,26.89,178.16-39.22,226.43-129Q-1.18,902,23.16,849.5C37.78,818,45.42,779.19,62.61,750.05,72.69,733,91,719.36,110.85,720.5c14.19.82,26.8,8.8,39.07,16a471.65,471.65,0,0,0,128.15,51.68c58,14,94.73-3.56,139.63-40.18,18.61-15.16,37.38-30.51,52.07-49.49,16.19-20.93,30.38-45.38,43.14-68.58,14.78-26.87,31.85-55.23,42.7-83.9,1.25-3.3,3.91-7.74,3.58-11.37-.25-2.67-2.21-4.14-4.48-5.22-5-2.37-10.44-3.87-15.53-6l-28.72-11.93L143.31,358.86-294.9,176.67-716.48,1.39c-38.2-15.88-76.67-31.22-114.44-48.07,1.35.6-.87,13.54-1.15,14.91-.52,2.46-2.49,10.39-6.49,8.15-1.19-.67-2.54-3.52-3.43-4.64-1.45-1.81-2.9-3.62-4.37-5.41Q-854.8-44-863.78-54c-24.63-27.12-54.2-49.48-86.06-67.47-52.73-29.75-103.23-53.41-163.92-31.22-122,44.62-175.62,199.22-214,310.72C-1360,251.81-1339.55,344-1255.49,401.42Z" transform="translate(1342.26 665.92)"/><path class="cls-4" d="M632.57-208c-8.86,27.23-26.84,55.47-32.94,82.87-2.75,12.35.25,25.06-4.06,37.91a87.09,87.09,0,0,1-23.9,36.87c-5.41,4.89-11.41,9.07-17.13,13.59-22.66,17.92-42.89,40.64-57.1,65.62C483.93,52.64,467,73.66,441.74,85.5c-36.86,17.26-88,8.34-126.17,2a466.85,466.85,0,0,1-137-45.39c-34.71-17.9-67.71-40.71-91.4-72S49.85-102,56.63-141.4c4.13-23.95,15.37-45.92,28.5-66.13C91.32-217.06,99-226,104.36-235.92c5.06-9.39,6.16-19,9.88-28.79,4.58-12.12,15.48-20.45,24.14-30.08,11.31-12.6,19.07-27.93,29.13-41.54,9.24-12.52,20.36-23.51,31.43-34.44,6.58-6.5,14.21-13.72,23.61-15.54,2.07-.41,4.86.29,6.74-.28,2.58-.77,5.2-4.81,7-6.76q7.41-7.87,15.05-15.52c20.13-20,42.19-38.65,67.85-51.17,78.44-38.27,167-11,234.2,35.46C626.53-374,662.14-298.89,632.57-208Z" transform="translate(1342.26 665.92)"/><path class="cls-4" d="M22.11-134.66c-44.06,27.5-98.55,41.21-149.91,29.53-29-6.58-57.36-30.93-79.9-49.37l-.66-.54a498.41,498.41,0,0,1-78.52-80.78c-7.84-10.16-16.24-21.12-21.67-32.32-5.34-11-13.64-20-18-31.9-8.73-23.67-9.12-50.1-3.46-74.52,8.16-35.27,27.7-66.8,49-96.1,58.9-81.17,130.75-193.28,243.13-195.19,75.22-1.28,149,14.89,216.42,48.67,64.63,32.36,96.22,96.49,83.09,167.24-4.3,23.16-8.83,46.94-21.39,66.91-15.49,24.62-41.37,38.44-59.92,60-17.38,20.2-28,48.05-42.19,70.62C110.85-209.27,70-164.55,22.11-134.66Z" transform="translate(1342.26 665.92)"/><path class="cls-5" d="M101.7-629.1c-25.34-6.58-52-8.8-77.89-9.62-46.46-1.47-89.87-4.17-133.1,15.76-47.77,22-82.41,62.81-111.7,105.28C-249.5-476.35-288.74-429-295.32-377.9c-6.81,52.82,13.17,105.27,44.22,147.32,31.31,42.4,73.67,92.12,126.33,106.72A145.12,145.12,0,0,0-9-141.48a631.24,631.24,0,0,0,162.38-150c39.91-52.74,96.73-126.8,88.42-196.77-6.2-52.21-49.07-95.12-92.07-121.1A179.15,179.15,0,0,0,101.7-629.1Z" transform="translate(1342.26 665.92)"/><path class="cls-6" d="M211.48-513.34c-6.32-13.81-15.88-27.25-29.33-40.15-17.67-17-36.67-33.92-58.62-45.17s-46.69-12.79-70.43-18.6c-62.41-15.28-129.16.55-182.75,34.51-43.61,27.64-74.47,69.22-100.08,113.26-26.48,45.53-63.35,96.08-48.93,151.59,12.54,48.3,47.54,88.69,78.89,126.11,31.67,37.82,75.1,58.67,125.1,53.29,55.09-5.92,102.8-43.14,141.76-79.89,42-39.59,83.5-83.84,114.14-134C213.85-405.71,234.92-462.12,211.48-513.34Z" transform="translate(1342.26 665.92)"/><path class="cls-5" d="M613.67-216.24c-14.55,42.7-42.13,82.69-65.15,119.48-35.11,56.12-60.82,132.7-127.22,160C353.72,91,246,57.38,182.86,27.09,118.92-3.59,65.19-58.12,76.68-134.24,92.06-236,192.77-309,266.4-370.07c50.63-42,110-76.23,177.81-73.85C557.93-439.94,652-328.82,613.67-216.24Z" transform="translate(1342.26 665.92)"/><path class="cls-6" d="M372.61,61.21q-25.71,2.07-55.33-6.43L239.9,32.7C185.13,17.08,121-13.3,100.25-70.8c-34.51-95.82,49.61-172.68,117.89-225.48,71.3-55.13,151.38-135.22,249.21-118.21,84.79,14.75,151.87,105.62,131.08,189.14-9,36.26-31.74,67.35-53.95,97.41C514.6-87.52,496.74-39,467.35,1.83,440.86,38.66,409.68,58.22,372.61,61.21Z" transform="translate(1342.26 665.92)"/><path class="cls-4" d="M465.38,133.3c-51.53-20.92-120.18-18.37-168.14,11.92-27.45,17.34-68.6,78.11-92.89,99.44-30.41,26.7-51.09,50.5-79.08,67C55.41,352.75,12.49,424.22,9.41,506.36c-1.27,33.74,11.75,61.86,32.76,86.89,23.57,28.07,45.17,55.18,73.49,79.12,53.43,45.16,121.26,113.3,195.24,116.12,40.56,1.54,89.35-6.51,124.85-27,41.27-23.81,68.46-65.66,92.7-106.71a2178.11,2178.11,0,0,0,119.73-234c14.36-32.81,28.6-69.84,17.85-105.81-10.14-33.93-38.14-58.83-61.74-83.64C563.3,188.22,520.66,155.75,465.38,133.3Z" transform="translate(1342.26 665.92)"/><path class="cls-5" d="M438.75,145c-29.88-6.93-60.93-8.28-90.81-1-70.33,17.08-94.08,76.86-140.76,123.6-33.49,33.55-78.51,53.9-113,86.39C46.83,398.45,8.6,482.75,36.92,547c17.2,39,54.15,64.53,80.76,96.79,31.06,37.67,69.89,69.56,112.47,94,70.52,40.47,135.25,35.58,197.41-14.15C526,644.91,559.3,534,604.26,421.67c3.19-8,6.4-15.94,9.42-24,20.18-53.64,18-99.45-14.95-147.13C561.77,197.06,501.67,159.59,438.75,145Z" transform="translate(1342.26 665.92)"/><path class="cls-6" d="M375.66,151.33c-45.93,7.77-80.64,43.82-109.87,79.38S207.14,305,164,322.08C71.22,358.81,1.56,502.82,85.67,579.73c30.34,27.74,50.16,64.37,80.41,92,31.58,28.79,71.07,48.52,111,63.18,146.39,53.77,250.46-175.72,287-279.11,26.08-73.8,46.53-170.22-17.15-232.19C504.65,182.44,436.57,141,375.66,151.33Z" transform="translate(1342.26 665.92)"/><path class="cls-4" d="M-365.21,49.35c-14.33,15.15-23.94,26.09-41,38.12-30.64,21.56-64.45,36.52-92.86,61-26.45,22.81-48,52.71-84.48,59.83-51.79,10.11-110.77-23.87-157-43.26-42-17.61-70.19-44.72-77.51-90.72-6.32-39.77-14.82-84.41-14-124.67.81-37.85,14.26-74.11,26.81-109.82,21-59.66,41.09-121,78.57-172.86,33.21-45.93,83.35-80.58,140-89.72,69-11.13,129.24,20.69,180.61,64,27.62,23.29,53.7,48.19,82.15,70.51,36.42,28.58,78.63,58.65,83.66,109.49,5.74,57.92-28.59,114.74-61.66,159.3C-310.24-8.09-355.53,39.1-365.21,49.35Z" transform="translate(1342.26 665.92)"/><path class="cls-5" d="M-510.13-388.87a166.65,166.65,0,0,0-85.64-1.52c-122,29.47-168.33,180-201,282.79C-827.35-11.21-816.41,119-703.09,156.65c54,17.95,102,26.71,154.25-.14C-463,112.4-377.26,44.06-315-28.49c19.7-23,26.21-52.19,35.84-79.95s24.86-51.29,15.33-81.84c-8.18-26.24-29.88-46.2-52.09-62.92C-378.52-300.34-431.33-366.85-510.13-388.87Z" transform="translate(1342.26 665.92)"/><path class="cls-6" d="M-469.94-348.16c-59.55-33-132.2-24.08-185.62,17.9C-696-298.48-721.82-249.68-742-203c-30.84,71.4-68.46,156.67-46,235.23C-763,119.6-675.25,180.57-586.22,154-530.17,137.25-480,97.12-434.85,60.44-389,23.2-341.48-21.89-312.52-74.4c45.42-82.35,5.46-147.84-60.22-199.73C-406.34-300.67-435.86-329.26-469.94-348.16Z" transform="translate(1342.26 665.92)"/><path class="cls-4" d="M-33.14,416.53q-4.7,4.07-9.45,8.05c-35.28,29.51-72.44,64.67-118.28,75.1-55.28,12.59-114.54-3.37-163.21-30.4-55-30.55-98-90.81-132.88-141.23-21.48-31.08-17.61-64.63-2.67-98.26,16.86-37.93,33.26-69.15,40-110.81,7.28-45.28,39.26-72.87,71.86-101.1C-309.95-14.91-276-45.68-228.46-63.85c96.7-37,224.93-31.83,305.51,36.45a224.12,224.12,0,0,1,40.66,45.78C148.55,64.07,150,122.66,136.42,173.9c-13.91,52.52-37.85,100.38-71.71,141.43C34.77,351.63,2.36,385.76-33.14,416.53Z" transform="translate(1342.26 665.92)"/><path class="cls-5" d="M91.4,14.76C72.69-2.66,49.73-16.59,28.68-27.7-30.62-59-99.49-61-164.84-56.37c-46.33,3.26-90,23.35-127.73,49.63-29.22,20.38-56.78,43.92-77.95,72.79-24.11,32.86-28.65,66.88-42.42,103.6-11.75,31.34-31.89,69.75-35.13,103.18q-.35,3.6-.33,7.22c.17,37.05,35.26,65,55.27,93.29,20.58,29.06,44,57.15,76,74.34,55.32,29.66,137.37,50.11,194.91,19.37,25-13.35,40.76-37,61.48-55.42C-9.67,366.16,36.9,315.86,77.48,260.7c26.45-35.95,39.2-78.09,47.68-121.63C134.46,91.36,128.47,49.27,91.4,14.76Z" transform="translate(1342.26 665.92)"/><path class="cls-6" d="M88.71,52.72q-3.27-5.59-7.25-11.14C52,.66,1.4-22.13-49-29.38Q-199.74-51-315.2,42.25c-13.08,10.58-25.62,22.08-34.8,36-26.56,40.37-35.24,96.2-49.38,141.81-11.76,38-7.81,87.06,13.16,122.26,9.79,16.42,24.24,29.69,38.47,42.7,46.54,42.53,92.53,80.17,159.76,77.75C-122.41,460.44-79.18,419-37.3,375.67A663.5,663.5,0,0,0,78.14,213.57C102.91,164.31,118.81,104.34,88.71,52.72Z" transform="translate(1342.26 665.92)"/><path class="cls-7" d="M-327.21,109.67c-39.36,102.19-89,159.42-15.72,240C-288,410-255.65,461.7-149.3,430.92-61.77,405.59,39.28,276.09,70.12,197.16,100.7,119,80.79,65.82,20.75,19.91-50.21-34.38-151-22.73-226.5,15.58c-32.21,16.34-86.89,39.77-100.71,94.09" transform="translate(1342.26 665.92)"/><path class="cls-7" d="M-560.35-342c22.35-5.51,51.16-9.71,72.12,1.86,15.58,8.6,25.61,24.13,38.94,35.49,16.09,13.7,32.44,27.25,49.16,40.19,23.47,18.16,48.64,36.09,62.62,62.28,18.83,35.27,13.4,79.3-2.89,115.84-19.23,43.17-52,78.87-86.79,110.82-41.06,37.68-86.43,71.68-137.94,92.92-28.3,11.66-59.49,19.4-89.44,13.23C-680,125.34-702.62,110.37-721,92c-21.16-21.13-37.69-47.54-44-76.79-6.26-28.93-2.33-59.24,5.65-87.76s19.93-55.74,30.08-83.56c8.4-23,16.53-46.16,26.6-68.53,5-11.09,11.2-21.2,16.71-32,5.69-11.11,10.14-22.93,17.49-33.11,16.37-22.65,43.15-33,68.71-41.37C-586.81-335.29-573.6-338.76-560.35-342Z" transform="translate(1342.26 665.92)"/><path class="cls-7" d="M435,174C484.17,189.4,530,240.65,540.69,288.27c7.23,32.17,3.13,63.91-4.7,93.41-7.36,27.75-17.94,54.09-28.5,80.38L462.16,574.87c-10.89,27.1-27.09,44.21-43.71,66.56-32.59,43.84-82.56,69.88-144.94,60.82C214.16,693.67,84.59,578.67,74.36,510.71c-9-59.92,35-115.88,86.67-157.59,10.88-8.79,23.44-14.1,35-21.38,12.48-7.86,21.64-21.57,31.44-32.34l64.23-70.55c24.14-26.52,50.76-54.34,89-59.32A126.38,126.38,0,0,1,435,174Z" transform="translate(1342.26 665.92)"/><path class="cls-7" d="M-192.71-492.41c-48.81,95.87-97.47,139.72-37.58,223.25,44.87,62.6,64.82,122.81,168.67,101.14C23.84-185.85,134-303.42,172.08-377.44c37.79-73.3,25.09-126.26-26.3-175.26C85.06-610.64-11.34-607.06-86.95-575.76c-32.26,13.35-86.51,31.86-105.76,83.35" transform="translate(1342.26 665.92)"/><path class="cls-7" d="M488.63-68.85q-4.22,7.9-8.95,15.52-6.63,10.69-14.09,20.86Q457.9-22,449.41-12.08t-17.72,19a250.55,250.55,0,0,1-18.76,16.77,181.22,181.22,0,0,1-19.26,13.61,118.88,118.88,0,0,1-19.24,9.56,73.93,73.93,0,0,1-18.69,4.62,21.06,21.06,0,0,1-2.39-.07,27.79,27.79,0,0,0-3.72.54,61.4,61.4,0,0,1-7.79.52,62.24,62.24,0,0,1-15.32-1.84c-14.48-3.62-27.19-12.3-41.36-17-8.92-2.94-18.26-4.24-27.5-5.72a156.87,156.87,0,0,1-26-6.55C212.84,15.08,194.86,7,176.35-.08,159.72-7.89,144-18.3,131.94-32.34a90.18,90.18,0,0,1-20-40.76c-3.1-15.37-2.21-31.3,1.12-46.56,3.79-17.37,10.64-34,19-49.65a319.21,319.21,0,0,1,33.58-50,446.36,446.36,0,0,1,44.92-47.72,516.1,516.1,0,0,1,53-42.69,484.77,484.77,0,0,1,57.79-34.95,378.88,378.88,0,0,1,59.33-24.52c18.71-5.83,38-10,57.6-11.38,17.62-1.23,35.52-.16,52.61,4.47a115,115,0,0,1,44.34,23c14.1,12,24.89,27.33,32.69,44C611.44-215.94,533.3-152.7,488.63-68.85Z" transform="translate(1342.26 665.92)"/><path class="cls-4" d="M954.77,181.55c-18.86,9.9-38.18,19-57.59,27.72-35.46,16-69.58,35-105.75,49.35C760.32,271,719.58,287.51,685.7,282.89l-1.53-.22c-27.06-4.22-51.2-20.88-70.51-39.53-4.91-4.74-9.1-10.32-14-15-4.59-4.31-10.36-7.49-15.06-11.95A86.63,86.63,0,0,1,573.14,203c-3.09-4.43-7.43-6.85-11.71-10.12a150.15,150.15,0,0,1-26.56-26.16c-4-5.06-6.77-9.51-8-15.82a82,82,0,0,0-2-8.61c-5.12-16.79-7.66-33.55-5.86-51.13,4-39.3,7.18-83.76,18.12-121.72,10.29-35.68,32.17-66.68,53.06-97.38,34.89-51.29,69.4-104.43,118-144.14,43-35.18,99.29-55.43,155.35-49.83,68.23,6.81,117.34,52.13,155.14,106.14,20.33,29,38.79,59.21,60.15,87.53,27.35,36.26,59.81,75.39,51.79,124.86-9.14,56.36-56,101.59-98.53,135.51C1008.05,151.34,981.89,167.3,954.77,181.55Z" transform="translate(1342.26 665.92)"/><path class="cls-5" d="M927.55-270.52a163.43,163.43,0,0,0-80.81-23c-123.07-2.75-204.9,128.37-261.69,217.57C531.76,7.75,509.4,133.91,607.36,198.17c46.66,30.6,90,51,146.29,38.67,92.45-20.23,191-63.45,268.26-116.57,24.46-16.81,38-42.9,54.09-66.79s36.49-42.38,35.14-73.75C1110-47.2,1094.43-71.58,1077.57-93,1030.07-153.47,996.73-229.82,927.55-270.52Z" transform="translate(1342.26 665.92)"/><path class="cls-6" d="M955.41-221.81c-48.15-46.3-119.29-56.09-180.5-29.73-46.33,20-83.09,59.74-113.94,98.91C613.76-92.69,556.64-21.3,558.18,58.83c1.71,89.14,69.56,169,160.65,166.22,57.36-1.77,115.07-27.19,167.07-50.62,52.79-23.79,109.23-54.58,149.9-97.08,63.79-66.65,42.37-138.8-6.85-204.52C1003.77-160.79,983-195.32,955.41-221.81Z" transform="translate(1342.26 665.92)"/><path class="cls-7" d="M854.81-234.85c22.43-1.23,50.73-.08,68.23,14.52,13,10.85,19.29,27.25,29.58,40.31,12.41,15.75,25.11,31.4,38.29,46.54,18.51,21.26,38.68,42.59,46.46,69.72,10.48,36.55-4,77-27.16,108.55-27.41,37.23-66.09,65-106,88.94-47,28.21-97.35,52.18-150.85,63-29.37,6-60.69,7.73-87.89-3.39-23.1-9.44-41.46-27.55-55.08-48.08-15.69-23.64-25.84-51.43-25.69-80.08C584.89,36.87,595,9,608.63-16.4s30.71-48.94,46.23-73.33c12.85-20.19,25.46-40.53,39.75-59.81,7.08-9.55,15.13-18,22.65-27.12,7.75-9.45,14.48-19.79,23.62-28.07,20.35-18.42,48-23.45,74.09-26.77C828.21-233.19,841.52-234.12,854.81-234.85Z" transform="translate(1342.26 665.92)"/></g><line class="cls-8" x1="1517.07" y1="741.15" x2="1525.93" y2="740.97"/><line class="cls-8" x1="1516.68" y1="737.46" x2="1526.16" y2="737.25"/><line class="cls-8" x1="1517.62" y1="739.24" x2="1525.07" y2="739.09"/><circle class="cls-9" cx="1508.89" cy="739.72" r="8.74"/><circle class="cls-9" cx="1533.81" cy="739.19" r="8.74"/><path class="cls-10" d="M169.34,70.53l.16,7.66-.84,0-4.09-4.46.1,4.45-1.59,0-.16-7.64h.84l4.1,4.58-.1-4.59Z" transform="translate(1342.26 665.92)"/><path class="cls-10" d="M194.62,69.36l.16,7.66-.84,0-4.08-4.46L190,77l-1.58,0-.17-7.64h.85L193.14,74,193,69.4Z" transform="translate(1342.26 665.92)"/><circle class="cls-11" cx="1622.59" cy="775.86" r="8.74"/><text class="cls-12" transform="translate(1618.73 779.08) rotate(-1.8)">O</text><text class="cls-12" transform="translate(1626.09 775.82) rotate(-1.8) scale(0.58)">-</text><circle class="cls-13" cx="1647.5" cy="775.08" r="8.74"/><text class="cls-12" transform="translate(1643.65 778.3) rotate(-1.8)">O</text><text class="cls-12" transform="translate(1651.01 775.04) rotate(-1.8) scale(0.58)">-</text><line class="cls-14" x1="1631.3" y1="774.94" x2="1638.75" y2="774.7"/><line class="cls-14" x1="1631.35" y1="776.57" x2="1638.8" y2="776.33"/><circle class="cls-11" cx="1510.27" cy="788.38" r="8.04"/><circle class="cls-15" cx="1532.48" cy="782.61" r="8.04"/><text class="cls-16" transform="matrix(0.97, -0.25, 0.25, 0.97, 1529.6, 786.3)">C</text><text class="cls-16" transform="matrix(0.56, -0.15, 0.15, 0.56, 1533.8, 782.33)">+</text><text class="cls-16" transform="matrix(0.97, -0.25, 0.25, 0.97, 1507.52, 792.04)">O</text><text class="cls-16" transform="matrix(0.56, -0.15, 0.15, 0.56, 1513.46, 787.62)">-</text><circle class="cls-11" cx="1554.68" cy="776.84" r="8.04"/><text class="cls-16" transform="matrix(0.97, -0.25, 0.25, 0.97, 1551.93, 780.5)">O</text><text class="cls-16" transform="matrix(0.56, -0.15, 0.15, 0.56, 1557.87, 776.08)">-</text><line class="cls-17" x1="1517.91" y1="785.78" x2="1524.54" y2="784.05"/><line class="cls-14" x1="1540.11" y1="780.01" x2="1546.75" y2="778.29"/><line class="cls-17" x1="1518.28" y1="787.23" x2="1524.92" y2="785.5"/><line class="cls-14" x1="1540.49" y1="781.46" x2="1547.12" y2="779.74"/><line class="cls-8" x1="1525.57" y1="878.82" x2="1534.13" y2="881.08"/><line class="cls-8" x1="1526.21" y1="875.15" x2="1535.39" y2="877.58"/><line class="cls-8" x1="1526.63" y1="877.13" x2="1533.83" y2="879.04"/><circle class="cls-9" cx="1518.1" cy="875.18" r="8.74"/><circle class="cls-9" cx="1542.2" cy="881.55" r="8.74"/><path class="cls-10" d="M179.34,206.87l-2,7.4-.82-.21-2.69-5.42L172.74,213l-1.53-.41,1.95-7.38.81.21,2.68,5.54,1.17-4.44Z" transform="translate(1342.26 665.92)"/><path class="cls-10" d="M204,212.72l-1.95,7.4-.82-.21-2.69-5.42-1.14,4.31-1.53-.41,1.95-7.38.81.21,2.67,5.54,1.18-4.44Z" transform="translate(1342.26 665.92)"/><circle class="cls-11" cx="1483.27" cy="917.42" r="8.74"/><text class="cls-18" transform="translate(1480.55 921.64) rotate(-19.13)">O</text><text class="cls-18" transform="matrix(0.55, -0.19, 0.19, 0.55, 1486.61, 916.33)">-</text><circle class="cls-11" cx="1506.82" cy="909.25" r="8.74"/><text class="cls-18" transform="translate(1504.1 913.47) rotate(-19.13)">O</text><text class="cls-18" transform="matrix(0.55, -0.19, 0.19, 0.55, 1510.16, 908.17)">-</text><line class="cls-14" x1="1491.31" y1="913.94" x2="1498.35" y2="911.5"/><line class="cls-14" x1="1491.85" y1="915.48" x2="1498.89" y2="913.04"/><path class="cls-19" d="M202.77,147.78a5.3,5.3,0,0,1-5.57,5.57,8.05,8.05,0,0,1-4.47-1.35v-1.11a7.2,7.2,0,0,0,4.34,1.55,4.49,4.49,0,0,0,4.76-4.82l0-2.18a5.38,5.38,0,0,1-4.85,3.11c-3.33,0-5.69-2.76-5.71-6.1s2.27-6.18,5.61-6.21a5.38,5.38,0,0,1,4.87,3l-.05-2.88h1Zm-1-5.42a5,5,0,0,0-4.87-5.19c-2.79,0-4.71,2.44-4.68,5.27s2,5.2,4.77,5.17A5,5,0,0,0,201.77,142.36Z" transform="translate(1342.26 665.92)"/><path class="cls-19" d="M217.48,136.21l.11,12h-1l0-2.88a5.35,5.35,0,0,1-4.82,3.09c-3.34,0-5.69-2.76-5.72-6.09s2.28-6.19,5.61-6.22a5.37,5.37,0,0,1,4.88,3l0-2.91Zm-.9,6a5,5,0,0,0-4.87-5.19c-2.79,0-4.71,2.44-4.69,5.27s2,5.19,4.78,5.17A5,5,0,0,0,216.58,142.24Z" transform="translate(1342.26 665.92)"/><path class="cls-19" d="M220.81,146.45l.71-.68a3.76,3.76,0,0,0,3,1.61,2.37,2.37,0,0,0,2.62-2.26c0-3.4-6.14-2.3-6.12-6.21a3.06,3.06,0,0,1,3.26-2.93,4.74,4.74,0,0,1,3.52,1.67l-.62.66a3.8,3.8,0,0,0-2.87-1.39,2.17,2.17,0,0,0-2.36,2c0,3.12,6.12,2,6.1,6.24a3.29,3.29,0,0,1-3.57,3.2A4.67,4.67,0,0,1,220.81,146.45Z" transform="translate(1342.26 665.92)"/><path class="cls-19" d="M190.46,171.24c0,3.36-2.28,6.19-5.61,6.21A5.32,5.32,0,0,1,180,174.5l.06,7.63h-1l-.14-16.8h1l0,2.85a5.36,5.36,0,0,1,4.8-3C188.08,165.11,190.43,167.9,190.46,171.24Zm-1,0c0-2.84-2-5.19-4.77-5.17A4.91,4.91,0,0,0,180,170.8v1.06a5,5,0,0,0,4.84,4.66C187.6,176.5,189.52,174.08,189.5,171.25Z" transform="translate(1342.26 665.92)"/><path class="cls-19" d="M203.44,170.41l.05,6.72h-1l-.05-6.48c0-3.17-1.56-4.79-3.86-4.77s-3.9,1.66-3.87,4.83l.05,6.48h-1l-.16-19.2h1l.08,9.41a4.55,4.55,0,0,1,4-2.43C201.25,165,203.4,166.69,203.44,170.41Z" transform="translate(1342.26 665.92)"/><path class="cls-19" d="M217.5,165l.1,12h-1l0-2.88a5.37,5.37,0,0,1-4.82,3.09c-3.34,0-5.69-2.77-5.72-6.1s2.28-6.19,5.61-6.22a5.37,5.37,0,0,1,4.88,3l0-2.9Zm-.91,6a5,5,0,0,0-4.87-5.19c-2.78,0-4.7,2.44-4.68,5.27a4.91,4.91,0,0,0,4.77,5.17A5,5,0,0,0,216.59,171Z" transform="translate(1342.26 665.92)"/><path class="cls-19" d="M220.83,175.25l.71-.68a3.76,3.76,0,0,0,3,1.61,2.37,2.37,0,0,0,2.62-2.25c0-3.41-6.14-2.3-6.13-6.22a3.08,3.08,0,0,1,3.27-2.93,4.75,4.75,0,0,1,3.52,1.68l-.62.65a3.84,3.84,0,0,0-2.87-1.39,2.16,2.16,0,0,0-2.36,2c-.05,3.12,6.11,2,6.1,6.24a3.29,3.29,0,0,1-3.57,3.2A4.65,4.65,0,0,1,220.83,175.25Z" transform="translate(1342.26 665.92)"/><path class="cls-19" d="M231.33,171.15a4.92,4.92,0,0,0,5,4.93,5.52,5.52,0,0,0,4.16-1.89l0,1.25a6.26,6.26,0,0,1-4.17,1.58,6.17,6.17,0,0,1-.32-12.32c3.48,0,5.57,3,5.6,6.37Zm9.28-1c-.33-2.47-2-4.52-4.55-4.5a4.76,4.76,0,0,0-4.69,4.58Z" transform="translate(1342.26 665.92)"/></g></g></svg>