<svg xmlns="http://www.w3.org/2000/svg" viewBox="0 0 360.09 556.24"><defs><style>.cls-1{fill:#3d9c93;}.cls-2,.cls-4,.cls-6{fill:#2e6293;}.cls-2{opacity:0.9;}.cls-3{fill:#5d5153;}.cls-4{stroke:#2e6394;stroke-width:4.96px;}.cls-4,.cls-6{stroke-linecap:round;stroke-linejoin:round;}.cls-5,.cls-8{fill:none;stroke:#5c5052;stroke-miterlimit:10;}.cls-5{stroke-width:6.2px;}.cls-6{stroke:#fff;stroke-width:1.67px;}.cls-7{fill:#fff;opacity:0.56;}.cls-8{stroke-width:4px;}.cls-9{font-size:30px;fill:#ec6a7c;font-family:Acre-Light, Acre;font-weight:300;}.cls-10{letter-spacing:-0.02em;}.cls-11{letter-spacing:0em;}.cls-12{letter-spacing:0em;}.cls-13{letter-spacing:-0.01em;}.cls-14{letter-spacing:-0.01em;}</style></defs><g id="Layer_2" data-name="Layer 2"><g id="Layer_11" data-name="Layer 11"><path class="cls-1" d="M109.69,44c-6.32-4.84-9.9-1.73-11.25,0l-.22.31a7.54,7.54,0,0,0-.41.67s-14.29,2.82-1.17,14a21.42,21.42,0,0,0,18.15,4.88S115.2,48.22,109.69,44Z"/><path class="cls-1" d="M100.34,39c2.24,12.35,17.9,4.47,17.9,4.47,11.2-7,12.83-27.21,12.83-27.21-11.8-5.14-26.51,1.22-26.51,1.22-.68.4-1.31.79-1.9,1.19A68,68,0,0,0,91.29,0S75,16.51,79.1,27.12a15.81,15.81,0,0,0,14.41,10.4h0c.43.17,1.74,1.28.6,3.56l1.17-.72c-.22-.7.37-1.94-.64-3.29a22,22,0,0,0,3.17-1.7,17.65,17.65,0,0,0,2.06,2.73"/><path class="cls-1" d="M93.18,43a6.37,6.37,0,0,1,5,3.69s-.48-3.58-5.07-4.73C91.67,41.63,93.18,43,93.18,43Z"/><path class="cls-1" d="M96.14,84.41a46.39,46.39,0,0,0-.8,7.1,22.2,22.2,0,0,0-4.85-5h0a11.4,11.4,0,0,0-2.35,12.71c3.49,8.46-1.19,15.15,11.29,21.6,0,0,4.38-5-.34-14.39a17.57,17.57,0,0,1-2-7.4c1.29,2,3,3.38,4.22,6.49,6.12,16,13.81,15.08,13.81,15.08-3.72-27-16.73-35.15-18.73-36.26"/><path class="cls-1" d="M86.62,88.75c2.63-3.63,3.52-2.36,4.07-1.53a2.89,2.89,0,0,1,.46,1.39C90.84,83.24,87.48,87,87.48,87Z"/><path class="cls-1" d="M88.64,85.86C94.23,81.67,95.4,84,96.5,85c.41.4.63.35.63.35-1.88-4.92-7.53-.84-7.53-.84Z"/><path class="cls-1" d="M99.09,80.67h0c-.25,1.74-1.23,11.4,8.5,12.26,0,0,.31,9.09,7.07,11.83,0,0,1.46,11.93,15.22,9.3,0,0-1.54-8.21-6.94-12.85-4.52-3.89-.81-6-8.35-10.16-5.32-2.92-1.35-10-14.62-10.62A3.66,3.66,0,0,0,99.09,80.67Z"/><path class="cls-1" d="M90.62,82.25a49.32,49.32,0,0,0-13.24,26.58l.55,3.69c1.66-13.79,8-24.14,13.37-29.3,2.73-2.62,5.31-3.91,7.73-2,.92.72,1-.18,1-.19C98.29,79.59,95.35,77.42,90.62,82.25Z"/><path class="cls-1" d="M102.9,37.46l-.11-.55c-15.48,3.92-28.6,25-28.6,25C73.31,51.06,72,46.41,72,46.41c-.23-.24-.45-.49-.67-.73,1.18-1.44,2.2-4.4,1-5.21-2.53-1.76-2.72,1.28-2.61,3.38a44.88,44.88,0,0,1-8.15-16c.1-1.08.7-2.68,2.62-4.81,5.85,6.57,6.34-4.49,6.34-4.49l.35-7.18s-5.26.7-7.88,3.21a12.32,12.32,0,0,0-.7-2.35C59.45,4.92,50.74,1.63,50.74,1.63s-1.36,8.94-.07,15.15h-.38s-4.35.89-8.34,7.51c0,0,12.81,11.23,17.26,1.8a10.24,10.24,0,0,0,.69-1.86,29.06,29.06,0,0,0,.6,4.14,2.57,2.57,0,0,0,.08.4h0a43.08,43.08,0,0,0,8.27,16.8c2.07,4.62,3.43,21.81,4.33,40.93C62.7,72,56.94,64.2,49.34,61a19.27,19.27,0,0,0-.42-2.44c3.42.08,12.41-.48,12-8.64a26.28,26.28,0,0,0-6.89-16.4s-15.23,7.55-13.9,16.13c-.87-4.47-3.79-9.48-12.56-9.27-15.71.38-18.17,7.17-18.17,7.17S12.5,59.86,23.39,66.75a9.44,9.44,0,0,0,5.06,1.62c-2.63,6.76.19,14.57.19,14.57s10,7.46,18.27-4.07c7.73-10.81-1.51-13.93-2.7-14.28,1.16-.87,3.9-2.26,6.55-1.42,9.36,4,18.87,20.42,22.5,25.07,0,.43,0,.86,0,1.3-1.47-.43-3.91-.77-5.79.77-15.29-.59-15.32,12.51-15.32,12.51-13.83,5.47-11.31,21-11.31,21,15-4.32,15.46-16.79,15.46-16.79a28.44,28.44,0,0,0,2.77-1.87h0s2.42,5.56-.53,15.47,3.4,14,3.4,14c13.87-11.81,3.12-14.24,7.26-23.36s-2-16.34-2-16.34a20.94,20.94,0,0,0,.77-3.7c1.81-2,3.78-1.28,5.41,0,1,24.71,1.35,51.1,1.41,57.05A7.78,7.78,0,0,0,77,149.63h1.79c-.18-24,0-22.38-.83-37.12l-.46-3.3C76.58,94,75,64.87,75,64.87,86.87,42.75,102.9,37.46,102.9,37.46ZM59.85,21a1.54,1.54,0,0,0-.08-.19l.09,0Zm.31-.33a5.08,5.08,0,0,0,1.76-1.2A9.68,9.68,0,0,0,63.37,22c.21.28.42.54.62.78a10.59,10.59,0,0,0-2.93,3A46.43,46.43,0,0,1,60.16,20.68ZM43.88,64.21c-.6-.94-2.48-3.47-5.48-3.71.53-1,1-1.84,1.26-2.54a17.43,17.43,0,0,1,8.6,3.73C47.61,61.26,45.85,62.13,43.88,64.21Zm-4.09-6.54c.32-.76.49-1.24.49-1.24a20.36,20.36,0,0,0,0-6.19c1.51,8,7.35,8.29,7.35,8.29l.5,0a3.66,3.66,0,0,0,.37,1.94C44,57.76,41.18,57.52,39.79,57.67Z"/><path class="cls-1" d="M191.11,73.81c3.92-3.19,6.26-1.29,7.15-.2l.15.19a4,4,0,0,1,.27.42s9.14,1.51,1,8.84a13.63,13.63,0,0,1-11.44,3.45S187.7,76.6,191.11,73.81Z"/><path class="cls-1" d="M197,70.48c-1.18,7.88-11.29,3.19-11.29,3.19-7.26-4.25-8.69-17-8.69-17,7.4-3.49,16.87.26,16.87.26.44.23.85.47,1.23.71a43.23,43.23,0,0,1,6.86-12.1s10.69,10.16,8.28,17a10.05,10.05,0,0,1-8.95,6.89h0c-.27.12-1.08.85-.31,2.27l-.76-.43c.13-.45-.27-1.23.34-2.1a14.21,14.21,0,0,1-2-1,10.91,10.91,0,0,1-1.25,1.77"/><path class="cls-1" d="M201.59,72.88a4,4,0,0,0-3.13,2.44,4,4,0,0,1,3.13-3.1C202.52,72,201.59,72.88,201.59,72.88Z"/><path class="cls-1" d="M200.52,99.19a28.72,28.72,0,0,1,.65,4.49,14.06,14.06,0,0,1,3-3.27h0a7.24,7.24,0,0,1,1.73,8c-2,5.44,1.06,9.59-6.74,13.93,0,0-2.88-3.08-.07-9.14a11.16,11.16,0,0,0,1.14-4.73c-.78,1.31-1.86,2.2-2.56,4.2-3.57,10.31-8.48,9.84-8.48,9.84,1.84-17.19,9.94-22.63,11.19-23.38"/><path class="cls-1" d="M206.65,101.76c-1.74-2.26-2.28-1.43-2.61-.89a1.88,1.88,0,0,0-.27.89c.1-3.42,2.3-1.12,2.3-1.12Z"/><path class="cls-1" d="M205.32,100c-3.64-2.55-4.34-1.07-5-.37-.26.27-.4.24-.4.24,1.1-3.16,4.77-.68,4.77-.68Z"/><path class="cls-1" d="M198.57,96.87h0c.2,1.1,1,7.21-5.16,8,0,0,0,5.77-4.25,7.65,0,0-.7,7.59-9.49,6.2,0,0,.81-5.24,4.15-8.29,2.8-2.56.4-3.85,5.11-6.62,3.32-2,.66-6.4,9.08-7A3.31,3.31,0,0,1,198.57,96.87Z"/><path class="cls-1" d="M204,97.71a31.27,31.27,0,0,1,8.93,16.61l-.27,2.35c-1.33-8.72-5.55-15.17-9.08-18.33-1.78-1.61-3.45-2.38-4.95-1.11-.57.48-.62-.09-.61-.1C199.06,96.17,200.88,94.74,204,97.71Z"/><path class="cls-1" d="M243.2,69.93c-5.58,0-7.34,3.27-7.8,6.13.68-5.48-9.15-10-9.15-10a16.64,16.64,0,0,0-4.06,10.54c-.06,5.19,5.66,5.37,7.83,5.25a11.25,11.25,0,0,0-.21,1.56c-4.77,2.15-8.28,7.2-14.65,16.62.19-12.15.71-23.09,1.94-26.06A27.37,27.37,0,0,0,222,63.17h0a2.21,2.21,0,0,0,0-.25,20.7,20.7,0,0,0,.3-2.64,6.28,6.28,0,0,0,.47,1.16c3,5.9,10.93-1.48,10.93-1.48-2.66-4.12-5.44-4.6-5.44-4.6h-.24c.69-4-.35-9.61-.35-9.61s-5.47,2.26-7.16,7a8.32,8.32,0,0,0-.4,1.51c-1.71-1.54-5.07-1.89-5.07-1.89l.36,4.55s.53,7,4.12,2.73a5.64,5.64,0,0,1,1.76,3,28.48,28.48,0,0,1-4.86,10.31c0-1.34-.15-3.26-1.73-2.1-.73.54,0,2.4.76,3.29l-.41.48A58.49,58.49,0,0,0,214,84.49s-8.75-13.13-18.67-15.31l-.06.35s10.29,3,18.26,16.84c0,0-.42,18.55-.69,28.2l-.22,2.1c-.23,9.12.24,8.81-.22,21.7,1.18.61,2-.14,2.88-.9-.11-5.89-.35-20.52-.19-34.34,1-.88,2.24-1.37,3.43-.14a14.22,14.22,0,0,0,.56,2.33,10.1,10.1,0,0,0-1,10.41c2.81,5.71-4,7.46,5.08,14.68,0,0,4-2.73,1.88-9s-.64-9.81-.64-9.81h0a19,19,0,0,0,1.79,1.13s.55,7.91,10.16,10.36c0,0,1.3-9.93-7.6-13.13,0,0-.28-8.32-10-7.64a4,4,0,0,0-3.7-.38c0-.27,0-.55,0-.82,2.21-3,7.93-13.66,13.8-16.36a5,5,0,0,1,4.19.78c-.75.24-6.56,2.41-1.43,9.12,5.47,7.15,11.69,2.22,11.69,2.22s1.64-5-.17-9.25a6,6,0,0,0,3.18-1.13c6.79-4.58,8.49-12.43,8.49-12.43S253.19,69.86,243.2,69.93ZM219.74,59.44l.38-.51a5.91,5.91,0,0,0,.87-1.62,3.19,3.19,0,0,0,1.14.73,30.59,30.59,0,0,1-.47,3.24A6.52,6.52,0,0,0,219.74,59.44Zm10.78,22.4.32,0s3.71-.27,4.51-5.4a12.57,12.57,0,0,0,.12,3.92s.12.3.34.78c-.89-.07-2.69.14-5.48,2A2.35,2.35,0,0,0,230.52,81.84Zm2.81,3.5c-1.29-1.28-2.42-1.8-2.83-1.51a11,11,0,0,1,5.39-2.54c.21.44.5,1,.86,1.59A4.92,4.92,0,0,0,233.33,85.34Z"/><path class="cls-1" d="M222.34,58.24a.56.56,0,0,1,0-.12l0,0A.66.66,0,0,0,222.34,58.24Z"/><path class="cls-2" d="M343.91,247.28c.83-7.54-4.51-13.75-9.59-18.61-1.9-1.82-5-3.66-6.45-5.8s-1.65-6.6-1.07-9c.29-1.2.78-1.47,1.45-2.41a19.82,19.82,0,0,0,4.16-10.32,19.22,19.22,0,0,0-2.87-11.42,37.59,37.59,0,0,0-3.75-4.39c-3.64-4.29-7-12-7.35-17.63-.75-13.17,20.62-22.71,15.26-34.83-1.37-3.11-4.35-5.31-7.51-6.74-12.53-5.65-27.24-.83-39.88,4.6S260,142.27,246.59,139c-5.71-1.39-11-4.44-16.88-4.83-6.81-.45-13.84,2.74-20.32.63-4.12-1.34-7.25-4.62-11.14-6.53-8.84-4.35-20.26-1-28.9-5.75-3.09-1.69-5.64-4.34-9-5.5-5.42-1.88-11.47.67-15.9,4.23s-7.92,8.14-12.56,11.44c-11.77,8.36-27.82,6.77-42.37,5.7-25.21-1.86-55.2-4.09-79.63,3.21-3,.89-6.11,2-8,4.42-3.77,4.65-1.27,11.64,2.65,16.18s9.18,8.17,11.63,13.59c3.37,7.44.6,16.4,3.63,24,1.73,4.34,5.18,7.78,7.84,11.65,6.83,9.93,8.23,22.66,6.23,34.44s-7.12,22.81-12.52,33.54-4.51,25.43,7.27,31.41c3.2,1.63,7.35,2.26,9.83,5.08,1.92,2.19,2.64,9.45.3,11.62-.46.44-2,.47-2.67.68a18,18,0,0,0-11,10.57c-1.71,4.72,1.33,8.45,4.1,12a32.18,32.18,0,0,1,6.21,27.42c-.65,2.89-1.53,5.71-2.07,8.63-1.08,5.92-1.28,13.14,1.23,18.82,1.68,3.83,5.5,6.16,7.44,9.78,2.23,4.14,2.88,9.89,4.13,14.42.64,2.28,2.1,5.12,4.43,4.67a4.66,4.66,0,0,0,2.09-1.28c4.6-4.19,7.68-11.78,12.83-15,6.24-3.91,12.38-7.51,19.39-9.93,2.5-.86,5.16-1.61,7.76-1.12,6.64,1.23,6.64,9.75,7,15s-.46,11.81,1.64,16.76c5.6.23,6.67-14.3,9.06-21.94s9-15.77,17.09-14.08c6.94,1.46,12,9.86,18.89,8.35,3-.66,5.24-3.12,8-4.44,4.46-2.12,9.78-1.08,14.55.27A124.35,124.35,0,0,1,215.47,432c3.43,2.93,6.69,6.05,9.95,9.17,5.55-3.66,3.77-11.92,1.13-17.91s-5.18-13.8-.27-18.24a16.16,16.16,0,0,1,6.09-3l7-2.25a32.71,32.71,0,0,0,4.77-2.4c2.94-1.46,7.61.54,10.63,1.85,1.83.8,2.14,1.74,2.71,3.63,1.3,4.31,3.59,7.93,8.22,9.22s7-1,10.92-2.36,7.37-2,10.68-4.95c4.77-4.23,11.65-5.16,18.08-5.91L335,395.47c8-.93,17.41-2.77,20.76-9.9s-1.61-15.55-7.07-21.52-12-12.27-12.06-20.25c0-3.45,1-6.78,1.42-10.19.43-3.61-.48-5.35-1.8-8.46s-1.86-5.67-4-8.43c-1.78-2.33-3.83-4.45-5.52-6.85s-3.35-5.22-3-8.12c.36-2.71,1-5,1.16-7.92.6-9.88,2.51-20,8.16-28.31C337.17,259.6,343.13,254.33,343.91,247.28Z"/><path class="cls-3" d="M127.22,144.59c-13.45,5.46-22.12,5.16-24,20.8-1.43,11.71-5,20.51,6.89,29.13,9.82,7.1,31.12,5.73,41.55,1.56s14-11.36,13.52-22.25c-.51-12.88-10.07-22.72-20.17-27.27-4.31-1.94-11.2-5.65-17.75-2"/><path class="cls-3" d="M253.37,231.54c-8.35.87-13.23,17.19-2.46,25.8,7,5.64,21,5,25.06-4,6.64-14.76-11.64-23.67-22.6-21.79"/><path class="cls-3" d="M199.73,224.37c8.94,4.68,19.35,3,19.28-10.45-.07-12.63-16.28-12.43-25.28-12.51-10.1-.09-18.85,5-7.93,14.71,3.47,3.09,9.9,5.9,13.93,8.25"/><path class="cls-3" d="M144,222.34C135.89,230.21,114.4,252,131.25,262c4.7,2.78,21.22,2.95,26.35-.67,4.52-3.19,5.08-9.1,4.19-14.57s-4.58-9.18-5.67-14.66,2.54-9.32-1.79-11.74c-4.76-2.67-12.16,1.69-12.71,6"/><path class="cls-3" d="M193.44,160.61c-4.1-1.88-13.72,1.53-18.4,5.66-4.42,3.9-9.71,11.35-7.76,17.61,2.62,5.31,11,5.51,19,5.85,9.86.42,20.46-3.18,30.05-1.42s20.85,7.45,31,2.2c16.72-8.65,1-20.33-9.75-23.28-13.78-3.8-32.51.87-44.13-6.62"/><path class="cls-3" d="M192.87,251c-28,39.19,65,25.79,50.9-1.63-5-9.67-16.2-7.65-26.79-9.67-7.6-1.44-19.37-.69-21.53,4.35-1,2.17-1,4.55-2.58,7"/><path class="cls-3" d="M80.82,224.09C69,235.76,71.72,261.91,93.55,262c14.31.08,34.92-12.73,29.25-28.41-3.54-9.78-17.87-19.29-27.68-19.62-8.34-.28-9.09,6.62-14.3,10.1"/><path class="cls-3" d="M50.48,151.42c9.24.35,18.12-2.6,23.62,6.64,3.67,6.15,7.84,16.2,7.85,23.24,0,16.62-15.3,19.56-26.77,15.94C47.93,195,43.1,191.4,37.52,186.93c-5.92-4.74-17.44-8.6-21.52-15.47-10.69-18,14-18.47,23.85-19,3.71-.19,6.71-1.19,10.63-1.08"/><path class="cls-3" d="M308.25,183.94c-8.94-4.67-19.35-3-19.27,10.45.06,12.64,16.27,12.43,25.27,12.52,10.1.09,18.85-5,7.93-14.71-3.47-3.1-9.9-5.9-13.93-8.26"/><path class="cls-3" d="M315.63,157.33c27.95-39.19-65-25.79-50.9,1.63,5,9.67,16.2,7.65,26.79,9.66,7.59,1.45,19.37.7,21.53-4.35,1-2.16,1-4.55,2.58-6.94"/><path class="cls-3" d="M298.87,238.46a21,21,0,0,0-8.73-.86c-1.86.23-3.23,1.31-4.82,2.43-3.21,2.26-5,5.61-6.13,9.95-1.61,6.31,1.58,16.35,8.35,19.31,3.58,1.57,17,2.55,16.94-3.13a13.42,13.42,0,0,0-1.38-5.3,14,14,0,0,1-1.49-5.5c-.33-3.88,0-8,0-11.91.26-3.11-.18-3.91-2.78-5"/><path class="cls-3" d="M243.47,196.11c-7.87-1.06-11.9-3.55-17.05,3.35-3.86,5.17-8,8.37-4.64,15.69,2.73,6,13.21,11.17,19.29,12s9.71-1.6,12.46-6.88c3.25-6.25,1.39-13.52-2.17-18.42-1.52-2.09-3.78-5.72-7.89-5.76"/><path class="cls-3" d="M91.28,168.73c-4.2-1.85-11,4.56-8.18,11.57,1.82,4.59,8.61,8.08,13,4.9,7.16-5.19.91-14.39-4.8-16.47"/><path class="cls-3" d="M173.45,190.9c-4.43-3.3-10.19-3.29-11.31,4-1.06,6.83,7.71,8.12,12.56,8.94,5.45.92,10.61-1,5.55-7.25-1.6-2-4.83-4-6.8-5.66"/><path class="cls-3" d="M91.56,190.05c-6,1.52-22.11,6-16.83,15.33,1.48,2.6,9.27,7.16,12.69,6.84,3-.28,4.88-2.94,5.94-5.77s.32-5.6,1.29-8.5,3.74-3.73,2.34-6.06c-1.53-2.55-6.23-2.49-7.68-.58"/><path class="cls-3" d="M240.57,146.24c-1.44-2-6.93-3-10.27-2.31-3.16.66-7.69,2.75-8.46,6.25-.2,3.24,3.71,5.6,7.41,7.93,4.56,2.88,10.57,4,14.64,7.48s7.87,9.2,14.13,9.47c10.28.44,6-9.38,1.69-13.69-5.51-5.55-15.66-8.42-19.14-15.13"/><path class="cls-3" d="M308.16,222.78c-1.43-2-6.93-3-10.27-2.31-3.16.65-7.69,2.75-8.46,6.25-.2,3.23,3.72,5.6,7.41,7.93,4.57,2.87,10.58,4,14.65,7.48s7.87,9.2,14.12,9.46c10.28.44,6-9.38,1.69-13.69-5.5-5.54-15.66-8.41-19.14-15.12"/><path class="cls-3" d="M163.23,210.91c-23.91,11,23.84,29.89,24.6,13.05.26-5.94-5.61-8-10.09-11.86-3.21-2.75-9-5.59-11.4-3.78-1.07.75-1.7,1.89-3.11,2.59"/><path class="cls-3" d="M125.83,202.44c-11.31.15-16.56,15.36-6.23,21.35,6.77,3.91,20,3.43,21.59-5.55,1-5.6-3.24-14-7.8-16.82-3.89-2.4-6.11.67-9.53.91"/><path class="cls-3" d="M170.5,132.72c4.29,2.67,9.31,3.68,9.41,9.56.07,3.92-.68,9.82-2.59,13.16-4.5,7.9-12.57,5.13-17,.3-2.82-3.06-4.14-6.05-5.58-9.69-1.52-3.86-5.94-8.82-6-13.19-.18-11.45,11.66-5,16.47-2.52,1.81.92,3.5,1.26,5.33,2.38"/><path class="cls-3" d="M127.11,265.77c2.42-3.9-3-11.47-10.33-9.7-4.8,1.16-9.19,7.39-6.66,12.17,4.16,7.81,14.13,2.9,17-2.47"/><path class="cls-3" d="M233.28,240.11c5.19,1.89,10.71.22,9.7-7.06-.95-6.84-9.72-5.56-14.6-5-5.49.68-9.86,4.05-3.24,8.54,2.11,1.43,5.79,2.48,8.14,3.47"/><path class="cls-3" d="M202.83,155.48c-.67-6.16-2.88-22.74-12.84-18.8-2.78,1.1-8.38,8.18-8.54,11.61-.13,3,2.23,5.25,4.89,6.69s5.5,1.1,8.24,2.46,3.17,4.22,5.67,3.16c2.75-1.17,3.34-5.82,1.65-7.52"/><path class="cls-3" d="M187.7,244.64c-7.58-25.2-32.91,19.45-16.34,22.55,5.84,1.09,8.73-4.44,13.15-8.34,3.17-2.8,6.78-8.14,5.33-10.77-.6-1.16-1.64-1.94-2.14-3.44"/><path class="cls-3" d="M70.68,230.7c1.43-11.21-12.91-18.53-20.27-9.13-4.82,6.16-6.19,19.35,2.48,22.15,5.42,1.75,14.33-1.26,17.75-5.39,2.92-3.51.19-6.14.43-9.56"/><path class="cls-3" d="M45.76,217.84c-5,.3-9.72,2.38-13.2-2.36-2.33-3.15-5.13-8.4-5.51-12.23-.9-9,7.28-11.45,13.71-10.09,4.07.86,6.89,2.53,10.16,4.66,3.48,2.27,9.95,3.76,12.53,7.28,6.78,9.24-6.62,10.79-12,11.58-2,.3-3.59,1-5.73,1.16"/><path class="cls-3" d="M264.51,212.2c7.87,1.06,11.9,3.56,17.05-3.34,3.86-5.17,8-8.37,4.64-15.7-2.73-6-13.21-11.17-19.29-12s-9.7,1.6-12.46,6.89c-3.25,6.25-1.39,13.51,2.17,18.41,1.52,2.1,3.78,5.72,7.89,5.76"/><path class="cls-3" d="M265.86,231.48c4.2,1.85,10.94-4.57,8.17-11.58-1.82-4.59-8.6-8.08-13-4.9-7.16,5.2-.9,14.39,4.81,16.48"/><path class="cls-3" d="M99.37,207.24c.58,5.49,4.5,9.72,10.59,5.62,5.74-3.85.75-11.17-1.94-15.29-3-4.63-8-7.09-9.09.83-.36,2.52.3,6.29.44,8.84"/><path class="cls-3" d="M206.83,154.48c.58,5.48,4.49,9.71,10.59,5.62,5.73-3.85.74-11.17-1.94-15.3-3-4.63-8-7.09-9.1.84-.36,2.51.3,6.29.45,8.84"/><path class="cls-3" d="M207.54,229.21c-5.12-1.51-19.15-5.31-22.06,2.7-.81,2.24,1.29,8.3,3.83,9.5,2.23,1.06,5.35.17,8-1.18s4.11-3.38,6.79-4.8,5.12-.8,5.8-2.84c.74-2.23-2.48-4.12-4.8-3.52"/><path class="cls-3" d="M143.12,204c-2.42,3.9,3,11.47,10.33,9.7,4.8-1.15,9.19-7.39,6.66-12.17-4.16-7.81-14.13-2.9-17,2.47"/><path class="cls-3" d="M46,253.37c-2.42,3.9,3,11.48,10.32,9.71,4.8-1.16,9.2-7.4,6.66-12.17-4.15-7.82-14.13-2.9-17,2.46"/><path class="cls-3" d="M210.24,195.49c-1.86,3,2.29,8.8,7.91,7.44,3.68-.89,7.06-5.67,5.11-9.33-3.18-6-10.83-2.22-13,1.89"/><path class="cls-3" d="M275.71,232.05c-1.95,3.14,2.41,9.24,8.31,7.81,3.87-.93,7.41-6,5.36-9.8-3.34-6.29-11.37-2.33-13.67,2"/><path class="cls-3" d="M274.7,168.2c-5.19-1.88-10.71-.22-9.7,7.06.95,6.84,9.72,5.56,14.6,5,5.49-.68,9.86-4.05,3.24-8.55-2.11-1.42-5.79-2.48-8.14-3.47"/><path class="cls-3" d="M305.15,252.84c.67,6.16,2.88,22.73,12.84,18.79,2.78-1.09,8.38-8.18,8.54-11.61.14-3-2.23-5.24-4.89-6.68s-5.5-1.1-8.24-2.47-3.17-4.21-5.67-3.15c-2.75,1.16-3.34,5.82-1.64,7.52"/><path class="cls-3" d="M100.25,158.55c4.66-8.94-5.06-19.49-14.12-13.91-5.94,3.66-11.17,14.27-4.78,19.29,4,3.14,12.37,3.38,16.51,1,3.53-2,2-5.09,3.31-7.87"/><path class="cls-3" d="M69.37,210.72a3.91,3.91,0,0,0-.4,5.7c1.24,2.19,2.58,4.33,4,6.4a3.14,3.14,0,0,0,1.68,1.46,2.3,2.3,0,0,0,2-.7,17.07,17.07,0,0,0,1.39-1.76c1.06-1.31,2.61-2.4,2.88-4.07a4.74,4.74,0,0,0-1.74-3.94c-1.08-1-2.38-1.83-3.37-2.95a20.27,20.27,0,0,0-1.74-2.07C72,206.91,70.71,209.2,69.37,210.72Z"/><path class="cls-3" d="M193.31,191.74a11.09,11.09,0,0,0-3.64.57,4.51,4.51,0,0,0-2.66,3.91,2.48,2.48,0,0,0,.54,1.75,2.65,2.65,0,0,0,1.2.68,11.29,11.29,0,0,0,3.58.31q4.54-.14,9.06-.65a7.49,7.49,0,0,0,3.52-1c1.43-1,2-2.75,2.57-4.39a1.63,1.63,0,0,0,.1-.92,1.45,1.45,0,0,0-.43-.59C203.39,187.93,197.62,191.41,193.31,191.74Z"/><path class="cls-3" d="M282.87,211.93a14,14,0,0,0-2.19,4.1,4.65,4.65,0,0,0,.86,4.39c1.28,1.33,3.42,1.42,5.18.88s3.32-1.6,5-2.3c3-1.22,6.36-1.26,9.58-1.7a4.16,4.16,0,0,0,2.73-1.14,3.26,3.26,0,0,0,.64-1.53,6.64,6.64,0,0,0-2.2-6.11c-1.88-1.59-4.46-2-6.9-2.31-2-.27-6.06-1.66-7.93-.88S284,210.31,282.87,211.93Z"/><path class="cls-3" d="M163.38,229.61a6.15,6.15,0,0,0-2.42.27,2.49,2.49,0,0,0-1.61,1.7,3.76,3.76,0,0,0,.41,2.12l3.05,7.59a4.6,4.6,0,0,0,1,1.72,3.25,3.25,0,0,0,1.62.7,7.5,7.5,0,0,0,5.16-1.16,15.62,15.62,0,0,0,3.9-3.71,5.77,5.77,0,0,0,1.47-3,4.26,4.26,0,0,0-2.36-3.83C170.9,230.52,166.45,229.76,163.38,229.61Z"/><path class="cls-3" d="M232.46,397.39c13.45-5.46,22.12-5.17,24-20.8,1.43-11.72,5-20.52-6.9-29.14-9.81-7.09-31.12-5.72-41.54-1.55s-14,11.35-13.53,22.25c.52,12.88,10.07,22.72,20.18,27.27,4.31,1.94,11.19,5.64,17.75,2"/><path class="cls-3" d="M106.3,310.44c8.36-.88,13.24-17.19,2.47-25.8-7.06-5.64-21-5-25.06,4-6.64,14.75,11.64,23.67,22.59,21.79"/><path class="cls-3" d="M160,317.6c-8.95-4.67-19.35-3-19.28,10.45.07,12.64,16.28,12.44,25.27,12.52,10.11.09,18.86-5,7.93-14.71C170.4,322.77,164,320,160,317.6"/><path class="cls-3" d="M215.64,319.63c8.15-7.86,29.64-29.63,12.79-39.62-4.7-2.79-21.22-2.95-26.35.67-4.52,3.19-5.09,9.1-4.19,14.56s4.57,9.18,5.67,14.67-2.54,9.31,1.79,11.74c4.76,2.66,12.16-1.7,12.71-6"/><path class="cls-3" d="M166.24,381.37c4.1,1.88,13.72-1.54,18.4-5.67,4.42-3.9,9.71-11.35,7.76-17.6-2.63-5.32-11-5.52-19-5.86-9.86-.42-20.47,3.18-30.05,1.43s-20.86-7.46-31-2.2c-16.72,8.64-1,20.33,9.75,23.28,13.77,3.79,32.51-.87,44.13,6.62"/><path class="cls-3" d="M166.81,291c27.95-39.19-65-25.79-50.9,1.63,5,9.67,16.19,7.65,26.79,9.66,7.59,1.45,19.37.7,21.53-4.35,1-2.16,1-4.54,2.58-6.94"/><path class="cls-3" d="M278.86,317.88c11.81-11.67,9.1-37.81-12.74-37.93-14.3-.07-34.91,12.73-29.24,28.41,3.54,9.79,17.87,19.3,27.67,19.63,8.35.28,9.1-6.63,14.31-10.11"/><path class="cls-3" d="M309.2,390.56c-9.24-.36-18.12,2.6-23.62-6.64-3.67-6.15-7.84-16.21-7.85-23.25,0-16.61,15.3-19.56,26.77-15.94,7.25,2.29,12.08,5.85,17.65,10.31,5.92,4.74,17.45,8.61,21.53,15.48,10.69,18-14,18.47-23.86,19-3.7.18-6.7,1.19-10.62,1.08"/><path class="cls-3" d="M51.42,358c8.95,4.67,19.36,3,19.28-10.45-.07-12.64-16.27-12.44-25.27-12.52-10.11-.09-18.86,5-7.93,14.71,3.47,3.09,9.89,5.9,13.92,8.26"/><path class="cls-3" d="M44.05,384.65c-28,39.19,65,25.79,50.9-1.63-5-9.67-16.2-7.65-26.79-9.67-7.6-1.44-19.37-.69-21.53,4.35-1,2.17-1,4.55-2.58,6.95"/><path class="cls-3" d="M60.81,303.51a20.84,20.84,0,0,0,8.72.87c1.87-.23,3.23-1.32,4.83-2.44,3.2-2.26,5-5.61,6.13-9.94,1.61-6.31-1.59-16.36-8.35-19.32-3.58-1.56-17-2.54-16.94,3.14a13.42,13.42,0,0,0,1.38,5.29,14.1,14.1,0,0,1,1.48,5.51,118.3,118.3,0,0,1,0,11.91c-.26,3.11.18,3.91,2.78,5"/><path class="cls-3" d="M116.21,345.86c7.86,1.06,11.9,3.56,17-3.34,3.86-5.17,8-8.37,4.64-15.7-2.73-6-13.21-11.17-19.29-12s-9.71,1.6-12.46,6.89c-3.26,6.25-1.39,13.51,2.17,18.41,1.52,2.1,3.78,5.72,7.89,5.76"/><path class="cls-3" d="M268.4,373.25c4.2,1.85,11-4.57,8.17-11.58-1.81-4.59-8.6-8.08-13-4.9-7.16,5.2-.91,14.39,4.8,16.48"/><path class="cls-3" d="M186.23,351.08c4.42,3.29,10.19,3.28,11.31-4,1.05-6.83-7.71-8.12-12.56-8.94-5.45-.92-10.61,1-5.56,7.26,1.61,2,4.84,4,6.81,5.66"/><path class="cls-3" d="M268.12,351.92c6-1.52,22.11-6,16.83-15.33-1.48-2.6-9.27-7.16-12.69-6.84-3,.29-4.88,2.94-5.94,5.78S266,341.13,265,344s-3.74,3.74-2.34,6.06c1.53,2.56,6.23,2.5,7.67.59"/><path class="cls-3" d="M119.11,395.73c1.44,2,6.93,3,10.27,2.31,3.16-.65,7.69-2.75,8.46-6.25.2-3.23-3.72-5.6-7.41-7.93-4.56-2.87-10.57-4-14.65-7.48s-7.87-9.2-14.12-9.46c-10.28-.44-6,9.38-1.69,13.69,5.5,5.54,15.66,8.41,19.14,15.12"/><path class="cls-3" d="M51.52,319.2c1.43,2,6.92,3,10.27,2.31,3.15-.66,7.68-2.75,8.46-6.25.2-3.23-3.72-5.6-7.41-7.93-4.57-2.88-10.58-4.05-14.65-7.48s-7.87-9.2-14.12-9.47c-10.28-.44-6,9.38-1.7,13.7,5.51,5.54,15.67,8.41,19.15,15.12"/><path class="cls-3" d="M196.45,331.06c23.9-11-23.84-29.88-24.6-13-.27,5.93,5.61,8,10.09,11.86,3.21,2.75,9,5.58,11.4,3.78,1.07-.75,1.7-1.89,3.11-2.6"/><path class="cls-3" d="M233.85,339.54c11.31-.15,16.56-15.37,6.23-21.35-6.77-3.92-20-3.44-21.59,5.54-1,5.61,3.24,14,7.8,16.83,3.88,2.4,6.11-.68,9.53-.91"/><path class="cls-3" d="M189.18,409.26c-4.29-2.68-9.31-3.69-9.41-9.57-.07-3.91.68-9.81,2.59-13.16,4.5-7.89,12.57-5.13,17-.29,2.82,3.05,4.14,6.05,5.57,9.68,1.53,3.86,5.95,8.82,6,13.19.18,11.46-11.65,5-16.46,2.52-1.81-.92-3.51-1.26-5.33-2.37"/><path class="cls-3" d="M232.57,276.2c-2.42,3.91,3,11.48,10.32,9.71,4.8-1.16,9.2-7.4,6.66-12.17-4.15-7.82-14.12-2.9-17,2.46"/><path class="cls-3" d="M126.39,301.86c-5.18-1.88-10.7-.21-9.69,7.06,1,6.84,9.72,5.56,14.6,5,5.48-.68,9.86-4.05,3.23-8.54-2.1-1.43-5.78-2.49-8.14-3.48"/><path class="cls-3" d="M79.6,259.28c-4.38-3.36-10.15-3.42-11.36,3.82-1.15,6.82,7.6,8.22,12.44,9.11,5.44,1,10.62-.91,5.65-7.18-1.58-2-4.78-4.11-6.73-5.75"/><path class="cls-3" d="M156.85,386.5c.67,6.16,2.88,22.73,12.84,18.8,2.78-1.1,8.38-8.19,8.54-11.61.13-3-2.23-5.25-4.89-6.69s-5.51-1.1-8.24-2.47-3.18-4.21-5.67-3.15c-2.75,1.16-3.34,5.82-1.65,7.52"/><path class="cls-3" d="M172,297.33c7.57,25.21,32.91-19.45,16.34-22.54-5.84-1.09-8.73,4.44-13.15,8.34-3.17,2.8-6.78,8.14-5.33,10.76.6,1.17,1.64,1.95,2.14,3.44"/><path class="cls-3" d="M289,308.29c-1.42,11.22,12.92,18.53,20.28,9.14,4.82-6.16,6.19-19.36-2.49-22.16-5.41-1.74-14.32,1.26-17.74,5.39-2.92,3.51-.19,6.15-.43,9.57"/><path class="cls-3" d="M313.91,324.14c5-.3,9.73-2.38,13.21,2.35,2.32,3.15,5.13,8.4,5.51,12.23.9,9-7.28,11.46-13.72,10.1-4.07-.86-6.88-2.54-10.15-4.67-3.48-2.26-9.95-3.75-12.54-7.27-6.77-9.25,6.63-10.8,12-11.59,2-.3,3.59-1,5.72-1.15"/><path class="cls-3" d="M95.17,329.77c-7.87-1-11.9-3.55-17.06,3.35-3.86,5.17-8,8.37-4.64,15.69,2.73,6,13.22,11.17,19.3,12s9.7-1.6,12.46-6.88c3.25-6.25,1.39-13.52-2.17-18.42-1.52-2.09-3.78-5.72-7.89-5.76"/><path class="cls-3" d="M93.82,310.5c-4.2-1.85-10.94,4.56-8.17,11.57,1.81,4.59,8.6,8.08,13,4.9,7.16-5.19.9-14.39-4.81-16.47"/><path class="cls-3" d="M260.3,334.73c-.57-5.49-4.49-9.72-10.59-5.62-5.73,3.85-.74,11.17,1.94,15.3,3,4.63,8,7.09,9.1-.84.36-2.51-.3-6.29-.45-8.84"/><path class="cls-3" d="M283.91,285.2c0,5.51,3.45,10.13,9.94,6.69,6.11-3.23,1.91-11-.33-15.41-2.52-4.92-7.18-7.88-9.13-.12-.63,2.46-.36,6.29-.48,8.84"/><path class="cls-3" d="M280.15,266.37c-.58-5.49-4.5-9.72-10.59-5.63-5.74,3.86-.74,11.18,1.94,15.3,3,4.63,8,7.09,9.09-.83.37-2.52-.3-6.3-.44-8.84"/><path class="cls-3" d="M152.14,312.77c5.12,1.51,19.15,5.31,22.06-2.71.81-2.23-1.29-8.3-3.83-9.5-2.24-1.06-5.35-.16-8,1.18s-4.12,3.38-6.79,4.8-5.12.81-5.8,2.84c-.74,2.24,2.48,4.13,4.79,3.52"/><path class="cls-3" d="M216.56,338c2.41-3.91-3-11.48-10.33-9.71-4.8,1.16-9.19,7.4-6.66,12.17,4.15,7.81,14.13,2.9,17-2.46"/><path class="cls-3" d="M316.67,283.28c2.42-3.91-3-11.48-10.32-9.71-4.8,1.16-9.2,7.4-6.66,12.17,4.15,7.81,14.12,2.9,17-2.46"/><path class="cls-3" d="M149.44,346.49c1.86-3-2.3-8.8-7.92-7.45-3.68.89-7.05,5.68-5.1,9.34,3.18,6,10.83,2.22,13-1.89"/><path class="cls-3" d="M84.47,311.56c2-3.14-2.41-9.24-8.31-7.81-3.86.93-7.4,5.95-5.36,9.8,3.34,6.28,11.37,2.33,13.67-2"/><path class="cls-3" d="M106.19,273.69c2-3.14-2.41-9.24-8.31-7.81-3.86.93-7.4,5.95-5.36,9.79,3.34,6.29,11.37,2.34,13.67-2"/><path class="cls-3" d="M85,373.77c5.19,1.89,10.7.22,9.69-7.06-1-6.84-9.71-5.56-14.6-4.95-5.48.68-9.86,4.05-3.23,8.54,2.1,1.43,5.79,2.49,8.14,3.47"/><path class="cls-3" d="M54.53,289.14c-.68-6.16-2.89-22.73-12.85-18.8-2.78,1.1-8.38,8.18-8.53,11.61-.14,3,2.23,5.25,4.89,6.69s5.5,1.1,8.23,2.46,3.18,4.22,5.68,3.16c2.74-1.16,3.34-5.82,1.64-7.52"/><path class="cls-3" d="M257.69,385.1c-5.23,10,5.68,21.86,15.85,15.6,6.65-4.1,12.52-16,5.35-21.64-4.47-3.51-13.87-3.78-18.51-1.1-4,2.28-2.31,5.7-3.72,8.82"/><path class="cls-3" d="M290.3,331.26a5.26,5.26,0,0,0,1.35-2.18,5.16,5.16,0,0,0-.94-3.53q-1.86-3.29-4-6.39a3.14,3.14,0,0,0-1.67-1.47,2.29,2.29,0,0,0-2,.71,15.7,15.7,0,0,0-1.39,1.75c-1.06,1.32-2.61,2.41-2.88,4.07a4.72,4.72,0,0,0,1.73,3.95c1.09,1,2.39,1.82,3.38,2.95a20.27,20.27,0,0,0,1.73,2.06C287.71,335.06,289,332.78,290.3,331.26Z"/><path class="cls-3" d="M263.7,275.22a5.26,5.26,0,0,0,1.35-2.18,5.1,5.1,0,0,0-.95-3.53q-1.86-3.28-4-6.39a3.1,3.1,0,0,0-1.67-1.47,2.29,2.29,0,0,0-2,.71,17,17,0,0,0-1.4,1.75c-1.05,1.32-2.6,2.41-2.87,4.07a4.72,4.72,0,0,0,1.73,3.95c1.08,1,2.39,1.82,3.37,2.95a21.75,21.75,0,0,0,1.74,2.06C261.11,279,262.37,276.74,263.7,275.22Z"/><path class="cls-3" d="M166.37,350.24a11.41,11.41,0,0,0,3.64-.57,4.52,4.52,0,0,0,2.65-3.91,2.46,2.46,0,0,0-.53-1.75,2.48,2.48,0,0,0-1.2-.68,10.76,10.76,0,0,0-3.58-.31q-4.54.14-9.06.64a7.58,7.58,0,0,0-3.52,1c-1.43,1-2,2.74-2.57,4.39a1.59,1.59,0,0,0-.1.91,1.42,1.42,0,0,0,.43.6C156.29,354,162.06,350.57,166.37,350.24Z"/><path class="cls-3" d="M76.81,330.05A13.79,13.79,0,0,0,79,325.94a4.66,4.66,0,0,0-.85-4.39c-1.28-1.33-3.42-1.41-5.18-.87s-3.32,1.6-5,2.29c-3,1.22-6.36,1.27-9.58,1.71a4.15,4.15,0,0,0-2.73,1.13,3.29,3.29,0,0,0-.64,1.54,6.63,6.63,0,0,0,2.19,6.1c1.88,1.59,4.47,2,6.91,2.31,2,.27,6.06,1.67,7.93.88S75.69,331.67,76.81,330.05Z"/><path class="cls-3" d="M196.3,312.36a6,6,0,0,0,2.42-.26,2.51,2.51,0,0,0,1.61-1.71,3.87,3.87,0,0,0-.41-2.12l-3.06-7.58a4.38,4.38,0,0,0-1-1.72,3.34,3.34,0,0,0-1.62-.71,7.51,7.51,0,0,0-5.16,1.17,15.63,15.63,0,0,0-3.91,3.7,5.79,5.79,0,0,0-1.46,3,4.27,4.27,0,0,0,2.36,3.83C188.78,311.45,193.23,312.22,196.3,312.36Z"/><path class="cls-4" d="M350.13,519.15c-16.68,1.48-16-.38-32.2-4.5-8.88-2.25-20.35-4.44-25.47,3.16a40.3,40.3,0,0,1,9.3-24l-37.1,19.14c-4.45,2.29-9.26,4.65-14.21,4-3.51-.5-6.63-2.48-10-3.48-4.5-1.32-9.3-.86-14-.4l-27.2,2.71c-5.13.51-10.49,1.1-14.79,3.94a32.21,32.21,0,0,1-5-13.69l-28.88,13.32c-2.36,1.09-4.85,2.21-7.44,2s-4.89-1.74-7.28-2.8c-5.33-2.37-11.37-2.46-17-4.13s-11.23-5.94-11.32-11.77a15.3,15.3,0,0,1-4.24,16.64,17.05,17.05,0,0,1-17.19,2.75c-5.11-2-9.63-6.49-15.11-6-6.11.55-11.44,7.26-17.18,5.09-1.71-.64-3-2-4.53-3-5.18-3.64-12.59-2.83-17.34,1.35l.19,17.93s-1.64,15.51,12.87,15.51h292.2c14.51,0,12.87-15.51,12.87-15.51V519.15"/><line class="cls-5" x1="195.21" y1="502.04" x2="187.11" y2="502.04"/><path class="cls-6" d="M78.86,459.4c-2.14,2.5-.74,6.59,1.83,8.66s5.92,2.78,9,4c11.52,4.73,16,15.74,23.61,24.43,0-6.29-3.86-13.76-7.18-19.27C103.41,472.83,84.89,452.35,78.86,459.4Z"/><path class="cls-6" d="M52.86,463.88c-1.6,5.55-3.2,11.26-2.63,17s3.85,11.59,9.3,13.48a6.89,6.89,0,0,0,6.3-.54,6.13,6.13,0,0,0,2.25-4.2c.68-5.55-4.18-10-8.43-13.66s-8.72-8.8-7-14.13a13,13,0,0,0-2,7.86"/><path class="cls-6" d="M343.7,448.17c1.48-.24,3.18-.35,4.29.65,1.85,1.67.57,4.76-1.07,6.64-5.54,6.38-13.7,9.69-21.14,13.7-13.26,7.12-20.17,17-29.58,27.78C300,473.87,320.61,451.84,343.7,448.17Z"/><path class="cls-6" d="M230.4,476.35a155.91,155.91,0,0,1,0,22.77c-.37,5-2.18,11.35-7.2,11.9-3.61.4-6.82-2.9-7.51-6.47s.54-7.21,2-10.51c3.72-8.18,9.44-16.38,8-25.25C225.79,468.79,230.17,472,230.4,476.35Z"/><path class="cls-6" d="M167.91,467.53c-1.51-1.92-3.15-3.94-5.45-4.76s-5.43.16-6,2.55,1.37,4.26,3,5.87c7.85,7.68,12.3,17.29,18.63,25.7C183.43,486.75,173.9,475.18,167.91,467.53Z"/><rect class="cls-7" x="24.23" y="488.7" width="333.87" height="13.34"/><path class="cls-7" d="M350.13,537.22V502H32.19v35.18s-1.64,15.51,12.87,15.51h292.2C351.77,552.73,350.13,537.22,350.13,537.22Z"/><rect class="cls-8" x="24.23" y="488.7" width="333.87" height="13.34"/><path class="cls-8" d="M350.13,537.22V502H32.19v35.18s-1.64,15.51,12.87,15.51h292.2C351.77,552.73,350.13,537.22,350.13,537.22Z"/><text class="cls-9" transform="translate(61.54 537.04)">g<tspan class="cls-10" x="18.51" y="0">r</tspan><tspan class="cls-11" x="27.03" y="0">a</tspan><tspan class="cls-12" x="45.54" y="0">v</tspan><tspan x="60.45" y="0">i</tspan><tspan class="cls-10" x="67.98" y="0">t</tspan><tspan x="75.69" y="0">atio</tspan><tspan class="cls-13" x="128.1" y="0">n</tspan><tspan class="cls-11" x="144.75" y="0">al</tspan><tspan class="cls-14" x="170.04" y="0"> </tspan><tspan class="cls-13" x="180.15" y="0">w</tspan><tspan x="203.58" y="0">a</tspan><tspan class="cls-10" x="222.09" y="0">t</tspan><tspan x="229.8" y="0">er </tspan></text></g></g></svg>