<?xml version="1.0" encoding="UTF-8"?><svg xmlns="http://www.w3.org/2000/svg" viewBox="0 0 1264 499.79"><defs><style>.d{fill:#ffc001;}.e{fill:#ffc301;}.f{fill:#e77243;}.g{fill:#e47243;}.h{fill:#5c5052;}.i{fill:#336da7;}.j{fill:#336daa;}</style></defs><g id="a"/><g id="b"><g id="c"><g><path class="h" d="M68.59,351.74l-10.28,20.24h-1.32l-4.2-8.44-4.12,8.44h-1.36l-10.24-20.24h2.6l8.4,16.76,3.52-7.32-4.64-9.44h2.52l3.36,7.16,3.36-7.16h2.52l-4.68,9.44,3.6,7.32,8.36-16.76h2.6Z"/><path class="h" d="M89.03,362.58h-16.52c.36,4.08,3.24,7.16,7.68,7.16,2.8,0,5.08-1.12,6.8-2.76v2.72c-1.72,1.4-4.12,2.32-6.88,2.32-6.28,0-10.04-4.72-10.04-10.28s3.92-10.24,9.64-10.24,9.44,5.2,9.32,11.08Zm-16.48-2.12h13.92c-.52-3.72-3-6.64-6.76-6.64s-6.64,2.88-7.16,6.64Z"/><path class="h" d="M94.07,339.74h2.4v31.99h-2.4v-31.99Z"/><path class="h" d="M103.11,339.74h2.4v31.99h-2.4v-31.99Z"/><path class="h" d="M110.67,358.54h12.96v2.2h-12.96v-2.2Z"/><path class="h" d="M145.99,351.74v20h-2.4v-4.12c-1.56,2.6-4.24,4.4-7.6,4.4-5.56,0-9.44-4.6-9.44-10.24s3.88-10.28,9.44-10.28c3.36,0,6.04,1.8,7.6,4.44v-4.2h2.4Zm-2.4,10.04c0-4.28-3.08-7.96-7.36-7.96s-7.24,3.64-7.24,7.96,2.96,7.92,7.24,7.92,7.36-3.64,7.36-7.92Z"/><path class="h" d="M170.67,370.86c0,6.24-4.76,9.16-9.44,9.16-3.04,0-5.48-1-7.48-2.24l.04-2.6c2.12,1.52,4.6,2.6,7.16,2.6,4.2,0,7.4-2.56,7.4-7.48v-2.8c-1.56,2.68-4.28,4.52-7.68,4.52-5.56,0-9.44-4.6-9.44-10.24s3.88-10.28,9.44-10.28c3.36,0,6.04,1.8,7.6,4.48v-4.24h2.36l.04,19.12Zm-2.4-9.08c0-4.28-3.08-7.96-7.36-7.96s-7.24,3.64-7.24,7.96,2.96,7.92,7.24,7.92,7.36-3.64,7.36-7.92Z"/><path class="h" d="M195.35,370.86c0,6.24-4.76,9.16-9.44,9.16-3.04,0-5.48-1-7.48-2.24l.04-2.6c2.12,1.52,4.6,2.6,7.16,2.6,4.2,0,7.4-2.56,7.4-7.48v-2.8c-1.56,2.68-4.28,4.52-7.68,4.52-5.56,0-9.44-4.6-9.44-10.24s3.88-10.28,9.44-10.28c3.36,0,6.04,1.8,7.6,4.48v-4.24h2.36l.04,19.12Zm-2.4-9.08c0-4.28-3.08-7.96-7.36-7.96s-7.24,3.64-7.24,7.96,2.96,7.92,7.24,7.92,7.36-3.64,7.36-7.92Z"/><path class="h" d="M210.15,351.42v2.72c-3.24-.24-5.76,2.48-5.76,6.6v11h-2.4v-20h2.4v3.68c1.04-2.08,2.96-4,5.76-4Z"/><path class="h" d="M230.9,362.58h-16.52c.36,4.08,3.24,7.16,7.68,7.16,2.8,0,5.08-1.12,6.8-2.76v2.72c-1.72,1.4-4.12,2.32-6.88,2.32-6.28,0-10.04-4.72-10.04-10.28s3.92-10.24,9.64-10.24,9.44,5.2,9.32,11.08Zm-16.48-2.12h13.92c-.52-3.72-3-6.64-6.76-6.64s-6.64,2.88-7.16,6.64Z"/><path class="h" d="M253.98,370.86c0,6.24-4.76,9.16-9.44,9.16-3.04,0-5.48-1-7.48-2.24l.04-2.6c2.12,1.52,4.6,2.6,7.16,2.6,4.2,0,7.4-2.56,7.4-7.48v-2.8c-1.56,2.68-4.28,4.52-7.68,4.52-5.56,0-9.44-4.6-9.44-10.24s3.88-10.28,9.44-10.28c3.36,0,6.04,1.8,7.6,4.48v-4.24h2.36l.04,19.12Zm-2.4-9.08c0-4.28-3.08-7.96-7.36-7.96s-7.24,3.64-7.24,7.96,2.96,7.92,7.24,7.92,7.36-3.64,7.36-7.92Z"/><path class="h" d="M278.66,351.74v20h-2.4v-4.12c-1.56,2.6-4.24,4.4-7.6,4.4-5.56,0-9.44-4.6-9.44-10.24s3.88-10.28,9.44-10.28c3.36,0,6.04,1.8,7.6,4.44v-4.2h2.4Zm-2.4,10.04c0-4.28-3.08-7.96-7.36-7.96s-7.24,3.64-7.24,7.96,2.96,7.92,7.24,7.92,7.36-3.64,7.36-7.92Z"/><path class="h" d="M292.39,354.06h-4.12v17.68h-2.4v-17.68h-2.56v-2.32h2.56v-5.36h2.4v5.36h4.12v2.32Z"/><path class="h" d="M313.14,362.58h-16.52c.36,4.08,3.24,7.16,7.68,7.16,2.8,0,5.08-1.12,6.8-2.76v2.72c-1.72,1.4-4.12,2.32-6.88,2.32-6.28,0-10.04-4.72-10.04-10.28s3.92-10.24,9.64-10.24,9.44,5.2,9.32,11.08Zm-16.48-2.12h13.92c-.52-3.72-3-6.64-6.76-6.64s-6.64,2.88-7.16,6.64Z"/><path class="h" d="M336.22,339.74v31.99h-2.4v-4.12c-1.56,2.6-4.24,4.4-7.6,4.4-5.56,0-9.44-4.6-9.44-10.24s3.88-10.28,9.44-10.28c3.36,0,6.04,1.8,7.6,4.44v-16.2h2.4Zm-2.4,22.04c0-4.28-3.08-7.96-7.36-7.96s-7.24,3.64-7.24,7.96,2.96,7.92,7.24,7.92,7.36-3.64,7.36-7.92Z"/><path class="h" d="M355.11,368.9l1.64-1.76c1.2,1.48,2.96,2.6,4.88,2.6,2.16,0,3.88-1.24,3.88-3.2,0-5-9.96-3.36-9.92-10,.04-2.88,2.48-5.08,5.84-5.12,2.64,0,4.84,1.48,6.04,2.84l-1.48,1.72c-1-1.08-2.56-2.24-4.52-2.24s-3.44,1.2-3.48,2.8c-.08,4.64,9.96,3.04,9.92,10.04-.04,3.08-2.56,5.48-6.36,5.48-2.48,0-5.08-1.4-6.44-3.16Z"/><path class="h" d="M371.47,361.7c0-5.52,4.12-10.28,10.12-10.28s10.12,4.76,10.12,10.28-4.12,10.32-10.12,10.32-10.12-4.76-10.12-10.32Zm17.84,0c0-4.24-3.12-7.92-7.72-7.92s-7.68,3.68-7.68,7.92,3.12,7.96,7.68,7.96,7.72-3.72,7.72-7.96Z"/><path class="h" d="M396.94,346.06c0-.96,.72-1.72,1.68-1.72s1.72,.76,1.72,1.72-.76,1.68-1.72,1.68-1.68-.72-1.68-1.68Zm.52,5.68h2.4v20h-2.4v-20Z"/><path class="h" d="M406.98,339.74h2.4v31.99h-2.4v-31.99Z"/><path class="h" d="M414.46,368.9l1.64-1.76c1.2,1.48,2.96,2.6,4.88,2.6,2.16,0,3.88-1.24,3.88-3.2,0-5-9.96-3.36-9.92-10,.04-2.88,2.48-5.08,5.84-5.12,2.64,0,4.84,1.48,6.04,2.84l-1.48,1.72c-1-1.08-2.56-2.24-4.52-2.24s-3.44,1.2-3.48,2.8c-.08,4.64,9.96,3.04,9.92,10.04-.04,3.08-2.56,5.48-6.36,5.48-2.48,0-5.08-1.4-6.44-3.16Z"/><path class="h" d="M464.18,351.74v20h-2.4v-4.12c-1.56,2.6-4.24,4.4-7.6,4.4-5.56,0-9.44-4.6-9.44-10.24s3.88-10.28,9.44-10.28c3.36,0,6.04,1.8,7.6,4.44v-4.2h2.4Zm-2.4,10.04c0-4.28-3.08-7.96-7.36-7.96s-7.24,3.64-7.24,7.96,2.96,7.92,7.24,7.92,7.36-3.64,7.36-7.92Z"/><path class="h" d="M470.82,339.74h2.4v31.99h-2.4v-31.99Z"/><path class="h" d="M479.86,339.74h2.4v31.99h-2.4v-31.99Z"/><path class="h" d="M487.5,361.7c0-5.52,4.12-10.28,10.12-10.28s10.12,4.76,10.12,10.28-4.12,10.32-10.12,10.32-10.12-4.76-10.12-10.32Zm17.84,0c0-4.24-3.12-7.92-7.72-7.92s-7.68,3.68-7.68,7.92,3.12,7.96,7.68,7.96,7.72-3.72,7.72-7.96Z"/><path class="h" d="M540.74,351.74l-10.28,20.24h-1.32l-4.2-8.44-4.12,8.44h-1.36l-10.24-20.24h2.6l8.4,16.76,3.52-7.32-4.64-9.44h2.52l3.36,7.16,3.36-7.16h2.52l-4.68,9.44,3.6,7.32,8.36-16.76h2.6Z"/><path class="h" d="M585.06,351.74l-10.28,20.24h-1.32l-4.2-8.44-4.12,8.44h-1.36l-10.24-20.24h2.6l8.4,16.76,3.52-7.32-4.64-9.44h2.52l3.36,7.16,3.36-7.16h2.52l-4.68,9.44,3.6,7.32,8.36-16.76h2.6Z"/><path class="h" d="M605.98,351.74v20h-2.4v-4.12c-1.56,2.6-4.24,4.4-7.6,4.4-5.56,0-9.44-4.6-9.44-10.24s3.88-10.28,9.44-10.28c3.36,0,6.04,1.8,7.6,4.44v-4.2h2.4Zm-2.4,10.04c0-4.28-3.08-7.96-7.36-7.96s-7.24,3.64-7.24,7.96,2.96,7.92,7.24,7.92,7.36-3.64,7.36-7.92Z"/><path class="h" d="M619.7,354.06h-4.12v17.68h-2.4v-17.68h-2.56v-2.32h2.56v-5.36h2.4v5.36h4.12v2.32Z"/><path class="h" d="M640.46,362.58h-16.52c.36,4.08,3.24,7.16,7.68,7.16,2.8,0,5.08-1.12,6.8-2.76v2.72c-1.72,1.4-4.12,2.32-6.88,2.32-6.28,0-10.04-4.72-10.04-10.28s3.92-10.24,9.64-10.24,9.44,5.2,9.32,11.08Zm-16.48-2.12h13.92c-.52-3.72-3-6.64-6.76-6.64s-6.64,2.88-7.16,6.64Z"/><path class="h" d="M653.66,351.42v2.72c-3.24-.24-5.76,2.48-5.76,6.6v11h-2.4v-20h2.4v3.68c1.04-2.08,2.96-4,5.76-4Z"/><path class="h" d="M678.54,354.06h-4.12v17.68h-2.4v-17.68h-2.56v-2.32h2.56v-5.36h2.4v5.36h4.12v2.32Z"/><path class="h" d="M680.34,361.7c0-5.52,4.12-10.28,10.12-10.28s10.12,4.76,10.12,10.28-4.12,10.32-10.12,10.32-10.12-4.76-10.12-10.32Zm17.84,0c0-4.24-3.12-7.92-7.72-7.92s-7.68,3.68-7.68,7.92,3.12,7.96,7.68,7.96,7.72-3.72,7.72-7.96Z"/><path class="h" d="M719.62,346.06c0-.96,.72-1.72,1.68-1.72s1.72,.76,1.72,1.72-.76,1.68-1.72,1.68-1.68-.72-1.68-1.68Zm.52,5.68h2.4v20h-2.4v-20Z"/><path class="h" d="M746.13,360.46v11.28h-2.36v-10.84c0-4.8-2.36-7.28-5.84-7.28-3.08,0-5.56,2.12-5.88,6.28v11.84h-2.4v-20h2.4v3.28c1.16-2.04,3.44-3.64,6.4-3.64,4.12,0,7.68,2.92,7.68,9.08Z"/><path class="h" d="M764.98,371.74h-2.4v-17.68h-7.2v17.68h-2.36v-17.68h-2.56v-2.32h2.56v-8.24c0-2.56,1.64-4,3.76-4,1.16,0,2.08,.36,2.76,.8v2.48c-.64-.4-1.32-.84-2.32-.84s-1.84,.72-1.84,2v7.8h9.6v20Zm-2.92-25.68c0-.96,.72-1.72,1.68-1.72s1.72,.76,1.72,1.72-.76,1.68-1.72,1.68-1.68-.72-1.68-1.68Z"/><path class="h" d="M772.06,339.74h2.4v31.99h-2.4v-31.99Z"/><path class="h" d="M788.18,354.06h-4.12v17.68h-2.4v-17.68h-2.56v-2.32h2.56v-5.36h2.4v5.36h4.12v2.32Z"/><path class="h" d="M800.34,351.42v2.72c-3.24-.24-5.76,2.48-5.76,6.6v11h-2.4v-20h2.4v3.68c1.04-2.08,2.96-4,5.76-4Z"/><path class="h" d="M821.57,351.74v20h-2.4v-4.12c-1.56,2.6-4.24,4.4-7.6,4.4-5.56,0-9.44-4.6-9.44-10.24s3.88-10.28,9.44-10.28c3.36,0,6.04,1.8,7.6,4.44v-4.2h2.4Zm-2.4,10.04c0-4.28-3.08-7.96-7.36-7.96s-7.24,3.64-7.24,7.96,2.96,7.92,7.24,7.92,7.36-3.64,7.36-7.92Z"/><path class="h" d="M835.3,354.06h-4.12v17.68h-2.4v-17.68h-2.56v-2.32h2.56v-5.36h2.4v5.36h4.12v2.32Z"/><path class="h" d="M856.05,362.58h-16.52c.36,4.08,3.24,7.16,7.68,7.16,2.8,0,5.08-1.12,6.8-2.76v2.72c-1.72,1.4-4.12,2.32-6.88,2.32-6.28,0-10.04-4.72-10.04-10.28s3.92-10.24,9.64-10.24,9.44,5.2,9.32,11.08Zm-16.48-2.12h13.92c-.52-3.72-3-6.64-6.76-6.64s-6.64,2.88-7.16,6.64Z"/><path class="h" d="M860.3,366.7h2.44l-1.96,9.4h-1.72l1.24-9.4Z"/><path class="h" d="M889.49,351.42v2.72c-3.24-.24-5.76,2.48-5.76,6.6v11h-2.4v-20h2.4v3.68c1.04-2.08,2.96-4,5.76-4Z"/><path class="h" d="M910.25,362.58h-16.52c.36,4.08,3.24,7.16,7.68,7.16,2.8,0,5.08-1.12,6.8-2.76v2.72c-1.72,1.4-4.12,2.32-6.88,2.32-6.28,0-10.04-4.72-10.04-10.28s3.92-10.24,9.64-10.24,9.44,5.2,9.32,11.08Zm-16.48-2.12h13.92c-.52-3.72-3-6.64-6.76-6.64s-6.64,2.88-7.16,6.64Z"/><path class="h" d="M933.33,339.74v31.99h-2.4v-4.12c-1.56,2.6-4.24,4.4-7.6,4.4-5.56,0-9.44-4.6-9.44-10.24s3.88-10.28,9.44-10.28c3.36,0,6.04,1.8,7.6,4.44v-16.2h2.4Zm-2.4,22.04c0-4.28-3.08-7.96-7.36-7.96s-7.24,3.64-7.24,7.96,2.96,7.92,7.24,7.92,7.36-3.64,7.36-7.92Z"/><path class="h" d="M956.13,351.74v20h-2.4v-3.28c-1.16,2.04-3.44,3.64-6.4,3.64-4.12,0-7.68-2.92-7.68-9.08v-11.28h2.36v10.84c0,4.8,2.36,7.28,5.84,7.28,3.08,0,5.56-2.12,5.88-6.28v-11.84h2.4Z"/><path class="h" d="M961.37,361.74c0-5.56,4-10.32,10.2-10.32,2.76,0,5,.92,6.68,2.36v2.96c-1.4-1.68-3.76-2.96-6.6-2.96-4.72,0-7.88,3.64-7.88,7.96s3.16,7.96,7.88,7.96c2.84,0,5.2-1.28,6.6-2.96v2.96c-1.68,1.44-3.92,2.36-6.68,2.36-6.2,0-10.2-4.76-10.2-10.32Z"/><path class="h" d="M983.89,346.06c0-.96,.72-1.72,1.68-1.72s1.72,.76,1.72,1.72-.76,1.68-1.72,1.68-1.68-.72-1.68-1.68Zm.52,5.68h2.4v20h-2.4v-20Z"/><path class="h" d="M1010.41,360.46v11.28h-2.36v-10.84c0-4.8-2.36-7.28-5.84-7.28-3.08,0-5.56,2.12-5.88,6.28v11.84h-2.4v-20h2.4v3.28c1.16-2.04,3.44-3.64,6.4-3.64,4.12,0,7.68,2.92,7.68,9.08Z"/><path class="h" d="M1034.17,370.86c0,6.24-4.76,9.16-9.44,9.16-3.04,0-5.48-1-7.48-2.24l.04-2.6c2.12,1.52,4.6,2.6,7.16,2.6,4.2,0,7.4-2.56,7.4-7.48v-2.8c-1.56,2.68-4.28,4.52-7.68,4.52-5.56,0-9.44-4.6-9.44-10.24s3.88-10.28,9.44-10.28c3.36,0,6.04,1.8,7.6,4.48v-4.24h2.36l.04,19.12Zm-2.4-9.08c0-4.28-3.08-7.96-7.36-7.96s-7.24,3.64-7.24,7.96,2.96,7.92,7.24,7.92,7.36-3.64,7.36-7.92Z"/><path class="h" d="M1061.69,354.06h-4.12v17.68h-2.4v-17.68h-2.56v-2.32h2.56v-5.36h2.4v5.36h4.12v2.32Z"/><path class="h" d="M1082.21,360.46v11.28h-2.36v-10.84c0-4.8-2.36-7.28-5.84-7.28s-5.92,2.48-5.92,7.28v10.84h-2.4v-31.99h2.4v15.32c1.16-2.04,3.44-3.68,6.44-3.68,4.12,0,7.68,2.92,7.68,9.08Z"/><path class="h" d="M1105.49,362.58h-16.52c.36,4.08,3.24,7.16,7.68,7.16,2.8,0,5.08-1.12,6.8-2.76v2.72c-1.72,1.4-4.12,2.32-6.88,2.32-6.28,0-10.04-4.72-10.04-10.28s3.92-10.24,9.64-10.24,9.44,5.2,9.32,11.08Zm-16.48-2.12h13.92c-.52-3.72-3-6.64-6.76-6.64s-6.64,2.88-7.16,6.64Z"/><path class="h" d="M1132.49,351.42v2.72c-3.24-.24-5.76,2.48-5.76,6.6v11h-2.4v-20h2.4v3.68c1.04-2.08,2.96-4,5.76-4Z"/><path class="h" d="M1136.49,346.06c0-.96,.72-1.72,1.68-1.72s1.72,.76,1.72,1.72-.76,1.68-1.72,1.68-1.68-.72-1.68-1.68Zm.52,5.68h2.4v20h-2.4v-20Z"/><path class="h" d="M1144.97,368.9l1.64-1.76c1.2,1.48,2.96,2.6,4.88,2.6,2.16,0,3.88-1.24,3.88-3.2,0-5-9.96-3.36-9.92-10,.04-2.88,2.48-5.08,5.84-5.12,2.64,0,4.84,1.48,6.04,2.84l-1.48,1.72c-1-1.08-2.56-2.24-4.52-2.24s-3.44,1.2-3.48,2.8c-.08,4.64,9.96,3.04,9.92,10.04-.04,3.08-2.56,5.48-6.36,5.48-2.48,0-5.08-1.4-6.44-3.16Z"/><path class="h" d="M1175.09,371.74l-9.84-9.2v9.2h-2.4v-31.99h2.4v21.48l9.52-9.48h3.08l-10.24,10.12,10.68,9.88h-3.2Z"/><path class="h" d="M1194.37,361.7c0-5.52,4.12-10.28,10.12-10.28s10.12,4.76,10.12,10.28-4.12,10.32-10.12,10.32-10.12-4.76-10.12-10.32Zm17.84,0c0-4.24-3.12-7.92-7.72-7.92s-7.68,3.68-7.68,7.92,3.12,7.96,7.68,7.96,7.72-3.72,7.72-7.96Z"/><path class="h" d="M1222.25,343.94v7.8h4.16v2.32h-4.16v17.68h-2.36v-17.68h-2.56v-2.32h2.56v-8.24c0-2.56,1.64-4,3.76-4,1.16,0,2.08,.36,2.76,.8v2.48c-.64-.4-1.32-.84-2.32-.84s-1.84,.72-1.84,2Z"/><path class="h" d="M112.83,393.09c1.16,0,2.08,.36,2.76,.8v2.48c-.64-.4-1.32-.84-2.32-.84s-1.84,.72-1.84,2v7.8h4.16v2.32h-4.16v17.68h-2.36v-17.68h-2.56v-2.32h2.56v-8.24c0-2.56,1.64-4,3.76-4Zm9.16,.24v32h-2.4v-32h2.4Z"/><path class="h" d="M127.23,415.29c0-5.52,4.12-10.28,10.12-10.28s10.12,4.76,10.12,10.28-4.12,10.32-10.12,10.32-10.12-4.76-10.12-10.32Zm17.84,0c0-4.24-3.12-7.92-7.72-7.92s-7.68,3.68-7.68,7.92,3.12,7.96,7.68,7.96,7.72-3.72,7.72-7.96Z"/><path class="h" d="M151.31,415.29c0-5.52,4.12-10.28,10.12-10.28s10.12,4.76,10.12,10.28-4.12,10.32-10.12,10.32-10.12-4.76-10.12-10.32Zm17.84,0c0-4.24-3.12-7.92-7.72-7.92s-7.68,3.68-7.68,7.92,3.12,7.96,7.68,7.96,7.72-3.72,7.72-7.96Z"/><path class="h" d="M194.83,393.33v32h-2.4v-4.12c-1.56,2.6-4.24,4.4-7.6,4.4-5.56,0-9.44-4.6-9.44-10.24s3.88-10.28,9.44-10.28c3.36,0,6.04,1.8,7.6,4.44v-16.2h2.4Zm-2.4,22.04c0-4.28-3.08-7.96-7.36-7.96s-7.24,3.64-7.24,7.96,2.96,7.92,7.24,7.92,7.36-3.64,7.36-7.92Z"/><path class="h" d="M201.47,399.65c0-.96,.72-1.72,1.68-1.72s1.72,.76,1.72,1.72-.76,1.68-1.72,1.68-1.68-.72-1.68-1.68Zm.52,5.68h2.4v20h-2.4v-20Z"/><path class="h" d="M227.99,414.05v11.28h-2.36v-10.84c0-4.8-2.36-7.28-5.84-7.28-3.08,0-5.56,2.12-5.88,6.28v11.84h-2.4v-20h2.4v3.28c1.16-2.04,3.44-3.64,6.4-3.64,4.12,0,7.68,2.92,7.68,9.08Z"/><path class="h" d="M251.74,424.45c0,6.24-4.76,9.16-9.44,9.16-3.04,0-5.48-1-7.48-2.24l.04-2.6c2.12,1.52,4.6,2.6,7.16,2.6,4.2,0,7.4-2.56,7.4-7.48v-2.8c-1.56,2.68-4.28,4.52-7.68,4.52-5.56,0-9.44-4.6-9.44-10.24s3.88-10.28,9.44-10.28c3.36,0,6.04,1.8,7.6,4.48v-4.24h2.36l.04,19.12Zm-2.4-9.08c0-4.28-3.08-7.96-7.36-7.96s-7.24,3.64-7.24,7.96,2.96,7.92,7.24,7.92,7.36-3.64,7.36-7.92Z"/><path class="h" d="M257.79,420.29h2.44l-1.96,9.4h-1.72l1.24-9.4Z"/><path class="h" d="M296.86,405.33v20h-2.4v-4.12c-1.56,2.6-4.24,4.4-7.6,4.4-5.56,0-9.44-4.6-9.44-10.24s3.88-10.28,9.44-10.28c3.36,0,6.04,1.8,7.6,4.44v-4.2h2.4Zm-2.4,10.04c0-4.28-3.08-7.96-7.36-7.96s-7.24,3.64-7.24,7.96,2.96,7.92,7.24,7.92,7.36-3.64,7.36-7.92Z"/><path class="h" d="M319.98,414.05v11.28h-2.36v-10.84c0-4.8-2.36-7.28-5.84-7.28-3.08,0-5.56,2.12-5.88,6.28v11.84h-2.4v-20h2.4v3.28c1.16-2.04,3.44-3.64,6.4-3.64,4.12,0,7.68,2.92,7.68,9.08Z"/><path class="h" d="M343.74,393.33v32h-2.4v-4.12c-1.56,2.6-4.24,4.4-7.6,4.4-5.56,0-9.44-4.6-9.44-10.24s3.88-10.28,9.44-10.28c3.36,0,6.04,1.8,7.6,4.44v-16.2h2.4Zm-2.4,22.04c0-4.28-3.08-7.96-7.36-7.96s-7.24,3.64-7.24,7.96,2.96,7.92,7.24,7.92,7.36-3.64,7.36-7.92Z"/><path class="h" d="M364.18,399.65c0-.96,.72-1.72,1.68-1.72s1.72,.76,1.72,1.72-.76,1.68-1.72,1.68-1.68-.72-1.68-1.68Zm.52,5.68h2.4v20h-2.4v-20Z"/><path class="h" d="M390.7,414.05v11.28h-2.36v-10.84c0-4.8-2.36-7.28-5.84-7.28-3.08,0-5.56,2.12-5.88,6.28v11.84h-2.4v-20h2.4v3.28c1.16-2.04,3.44-3.64,6.4-3.64,4.12,0,7.68,2.92,7.68,9.08Z"/><path class="h" d="M395.02,415.33c0-5.56,4-10.32,10.2-10.32,2.76,0,5,.92,6.68,2.36v2.96c-1.4-1.68-3.76-2.96-6.6-2.96-4.72,0-7.88,3.64-7.88,7.96s3.16,7.96,7.88,7.96c2.84,0,5.2-1.28,6.6-2.96v2.96c-1.68,1.44-3.92,2.36-6.68,2.36-6.2,0-10.2-4.76-10.2-10.32Z"/><path class="h" d="M425.7,405.01v2.72c-3.24-.24-5.76,2.48-5.76,6.6v11h-2.4v-20h2.4v3.68c1.04-2.08,2.96-4,5.76-4Z"/><path class="h" d="M446.46,416.17h-16.52c.36,4.08,3.24,7.16,7.68,7.16,2.8,0,5.08-1.12,6.8-2.76v2.72c-1.72,1.4-4.12,2.32-6.88,2.32-6.28,0-10.04-4.72-10.04-10.28s3.92-10.24,9.64-10.24,9.44,5.2,9.32,11.08Zm-16.48-2.12h13.92c-.52-3.72-3-6.64-6.76-6.64s-6.64,2.88-7.16,6.64Z"/><path class="h" d="M469.54,405.33v20h-2.4v-4.12c-1.56,2.6-4.24,4.4-7.6,4.4-5.56,0-9.44-4.6-9.44-10.24s3.88-10.28,9.44-10.28c3.36,0,6.04,1.8,7.6,4.44v-4.2h2.4Zm-2.4,10.04c0-4.28-3.08-7.96-7.36-7.96s-7.24,3.64-7.24,7.96,2.96,7.92,7.24,7.92,7.36-3.64,7.36-7.92Z"/><path class="h" d="M474.62,422.49l1.64-1.76c1.2,1.48,2.96,2.6,4.88,2.6,2.16,0,3.88-1.24,3.88-3.2,0-5-9.96-3.36-9.92-10,.04-2.88,2.48-5.08,5.84-5.12,2.64,0,4.84,1.48,6.04,2.84l-1.48,1.72c-1-1.08-2.56-2.24-4.52-2.24s-3.44,1.2-3.48,2.8c-.08,4.64,9.96,3.04,9.92,10.04-.04,3.08-2.56,5.48-6.36,5.48-2.48,0-5.08-1.4-6.44-3.16Z"/><path class="h" d="M492.5,399.65c0-.96,.72-1.72,1.68-1.72s1.72,.76,1.72,1.72-.76,1.68-1.72,1.68-1.68-.72-1.68-1.68Zm.52,5.68h2.4v20h-2.4v-20Z"/><path class="h" d="M519.02,414.05v11.28h-2.36v-10.84c0-4.8-2.36-7.28-5.84-7.28-3.08,0-5.56,2.12-5.88,6.28v11.84h-2.4v-20h2.4v3.28c1.16-2.04,3.44-3.64,6.4-3.64,4.12,0,7.68,2.92,7.68,9.08Z"/><path class="h" d="M542.78,424.45c0,6.24-4.76,9.16-9.44,9.16-3.04,0-5.48-1-7.48-2.24l.04-2.6c2.12,1.52,4.6,2.6,7.16,2.6,4.2,0,7.4-2.56,7.4-7.48v-2.8c-1.56,2.68-4.28,4.52-7.68,4.52-5.56,0-9.44-4.6-9.44-10.24s3.88-10.28,9.44-10.28c3.36,0,6.04,1.8,7.6,4.48v-4.24h2.36l.04,19.12Zm-2.4-9.08c0-4.28-3.08-7.96-7.36-7.96s-7.24,3.64-7.24,7.96,2.96,7.92,7.24,7.92,7.36-3.64,7.36-7.92Z"/><path class="h" d="M570.3,407.65h-4.12v17.68h-2.4v-17.68h-2.56v-2.32h2.56v-5.36h2.4v5.36h4.12v2.32Z"/><path class="h" d="M590.82,414.05v11.28h-2.36v-10.84c0-4.8-2.36-7.28-5.84-7.28s-5.92,2.48-5.92,7.28v10.84h-2.4v-32h2.4v15.32c1.16-2.04,3.44-3.68,6.44-3.68,4.12,0,7.68,2.92,7.68,9.08Z"/><path class="h" d="M614.1,416.17h-16.52c.36,4.08,3.24,7.16,7.68,7.16,2.8,0,5.08-1.12,6.8-2.76v2.72c-1.72,1.4-4.12,2.32-6.88,2.32-6.28,0-10.04-4.72-10.04-10.28s3.92-10.24,9.64-10.24,9.44,5.2,9.32,11.08Zm-16.48-2.12h13.92c-.52-3.72-3-6.64-6.76-6.64s-6.64,2.88-7.16,6.64Z"/><path class="h" d="M641.1,405.01v2.72c-3.24-.24-5.76,2.48-5.76,6.6v11h-2.4v-20h2.4v3.68c1.04-2.08,2.96-4,5.76-4Z"/><path class="h" d="M661.86,416.17h-16.52c.36,4.08,3.24,7.16,7.68,7.16,2.8,0,5.08-1.12,6.8-2.76v2.72c-1.72,1.4-4.12,2.32-6.88,2.32-6.28,0-10.04-4.72-10.04-10.28s3.92-10.24,9.64-10.24,9.44,5.2,9.32,11.08Zm-16.48-2.12h13.92c-.52-3.72-3-6.64-6.76-6.64s-6.64,2.88-7.16,6.64Z"/><path class="h" d="M673.46,407.65h-4.12v17.68h-2.4v-17.68h-2.56v-2.32h2.56v-5.36h2.4v5.36h4.12v2.32Z"/><path class="h" d="M693.62,405.33v20h-2.4v-3.28c-1.16,2.04-3.44,3.64-6.4,3.64-4.12,0-7.68-2.92-7.68-9.08v-11.28h2.36v10.84c0,4.8,2.36,7.28,5.84,7.28,3.08,0,5.56-2.12,5.88-6.28v-11.84h2.4Z"/><path class="h" d="M708.42,405.01v2.72c-3.24-.24-5.76,2.48-5.76,6.6v11h-2.4v-20h2.4v3.68c1.04-2.08,2.96-4,5.76-4Z"/><path class="h" d="M728.89,414.05v11.28h-2.36v-10.84c0-4.8-2.36-7.28-5.84-7.28-3.08,0-5.56,2.12-5.88,6.28v11.84h-2.4v-20h2.4v3.28c1.16-2.04,3.44-3.64,6.4-3.64,4.12,0,7.68,2.92,7.68,9.08Z"/><path class="h" d="M747.62,415.29c0-5.52,4.12-10.28,10.12-10.28s10.12,4.76,10.12,10.28-4.12,10.32-10.12,10.32-10.12-4.76-10.12-10.32Zm17.84,0c0-4.24-3.12-7.92-7.72-7.92s-7.68,3.68-7.68,7.92,3.12,7.96,7.68,7.96,7.72-3.72,7.72-7.96Z"/><path class="h" d="M775.5,397.53v7.8h4.16v2.32h-4.16v17.68h-2.36v-17.68h-2.56v-2.32h2.56v-8.24c0-2.56,1.64-4,3.76-4,1.16,0,2.08,.36,2.76,.8v2.48c-.64-.4-1.32-.84-2.32-.84s-1.84,.72-1.84,2Z"/><path class="h" d="M825.49,405.33l-10.28,20.24h-1.32l-4.2-8.44-4.12,8.44h-1.36l-10.24-20.24h2.6l8.4,16.76,3.52-7.32-4.64-9.44h2.52l3.36,7.16,3.36-7.16h2.52l-4.68,9.44,3.6,7.32,8.36-16.76h2.6Z"/><path class="h" d="M846.41,405.33v20h-2.4v-4.12c-1.56,2.6-4.24,4.4-7.6,4.4-5.56,0-9.44-4.6-9.44-10.24s3.88-10.28,9.44-10.28c3.36,0,6.04,1.8,7.6,4.44v-4.2h2.4Zm-2.4,10.04c0-4.28-3.08-7.96-7.36-7.96s-7.24,3.64-7.24,7.96,2.96,7.92,7.24,7.92,7.36-3.64,7.36-7.92Z"/><path class="h" d="M860.13,407.65h-4.12v17.68h-2.4v-17.68h-2.56v-2.32h2.56v-5.36h2.4v5.36h4.12v2.32Z"/><path class="h" d="M880.89,416.17h-16.52c.36,4.08,3.24,7.16,7.68,7.16,2.8,0,5.08-1.12,6.8-2.76v2.72c-1.72,1.4-4.12,2.32-6.88,2.32-6.28,0-10.04-4.72-10.04-10.28s3.92-10.24,9.64-10.24,9.44,5.2,9.32,11.08Zm-16.48-2.12h13.92c-.52-3.72-3-6.64-6.76-6.64s-6.64,2.88-7.16,6.64Z"/><path class="h" d="M894.09,405.01v2.72c-3.24-.24-5.76,2.48-5.76,6.6v11h-2.4v-20h2.4v3.68c1.04-2.08,2.96-4,5.76-4Z"/><path class="h" d="M918.97,407.65h-4.12v17.68h-2.4v-17.68h-2.56v-2.32h2.56v-5.36h2.4v5.36h4.12v2.32Z"/><path class="h" d="M920.77,415.29c0-5.52,4.12-10.28,10.12-10.28s10.12,4.76,10.12,10.28-4.12,10.32-10.12,10.32-10.12-4.76-10.12-10.32Zm17.84,0c0-4.24-3.12-7.92-7.72-7.92s-7.68,3.68-7.68,7.92,3.12,7.96,7.68,7.96,7.72-3.72,7.72-7.96Z"/><path class="h" d="M967.13,407.65h-4.12v17.68h-2.4v-17.68h-2.56v-2.32h2.56v-5.36h2.4v5.36h4.12v2.32Z"/><path class="h" d="M987.65,414.05v11.28h-2.36v-10.84c0-4.8-2.36-7.28-5.84-7.28s-5.92,2.48-5.92,7.28v10.84h-2.4v-32h2.4v15.32c1.16-2.04,3.44-3.68,6.44-3.68,4.12,0,7.68,2.92,7.68,9.08Z"/><path class="h" d="M1010.93,416.17h-16.52c.36,4.08,3.24,7.16,7.68,7.16,2.8,0,5.08-1.12,6.8-2.76v2.72c-1.72,1.4-4.12,2.32-6.88,2.32-6.28,0-10.04-4.72-10.04-10.28s3.92-10.24,9.64-10.24,9.44,5.2,9.32,11.08Zm-16.48-2.12h13.92c-.52-3.72-3-6.64-6.76-6.64s-6.64,2.88-7.16,6.64Z"/><path class="h" d="M1047.81,405.33v20h-2.4v-4.12c-1.56,2.6-4.24,4.4-7.6,4.4-5.56,0-9.44-4.6-9.44-10.24s3.88-10.28,9.44-10.28c3.36,0,6.04,1.8,7.6,4.44v-4.2h2.4Zm-2.4,10.04c0-4.28-3.08-7.96-7.36-7.96s-7.24,3.64-7.24,7.96,2.96,7.92,7.24,7.92,7.36-3.64,7.36-7.92Z"/><path class="h" d="M1072.45,405.33v28h-2.4v-12.08c-1.56,2.6-4.24,4.36-7.56,4.36-5.56,0-9.44-4.64-9.44-10.28s3.88-10.24,9.44-10.24c3.32,0,6,1.76,7.56,4.36v-4.12h2.4Zm-2.4,10.84v-1.68c-.36-3.92-3.32-7.08-7.32-7.08-4.28,0-7.24,3.56-7.24,7.92s2.96,7.96,7.24,7.96c4,0,6.96-3.2,7.32-7.12Z"/><path class="h" d="M1095.25,405.33v20h-2.4v-3.28c-1.16,2.04-3.44,3.64-6.4,3.64-4.12,0-7.68-2.92-7.68-9.08v-11.28h2.36v10.84c0,4.8,2.36,7.28,5.84,7.28,3.08,0,5.56-2.12,5.88-6.28v-11.84h2.4Z"/><path class="h" d="M1101.89,399.65c0-.96,.72-1.72,1.68-1.72s1.72,.76,1.72,1.72-.76,1.68-1.72,1.68-1.68-.72-1.68-1.68Zm.52,5.68h2.4v20h-2.4v-20Z"/><path class="h" d="M1114.85,397.53v7.8h4.16v2.32h-4.16v17.68h-2.36v-17.68h-2.56v-2.32h2.56v-8.24c0-2.56,1.64-4,3.76-4,1.16,0,2.08,.36,2.76,.8v2.48c-.64-.4-1.32-.84-2.32-.84s-1.84,.72-1.84,2Z"/><path class="h" d="M1139.77,416.17h-16.52c.36,4.08,3.24,7.16,7.68,7.16,2.8,0,5.08-1.12,6.8-2.76v2.72c-1.72,1.4-4.12,2.32-6.88,2.32-6.28,0-10.04-4.72-10.04-10.28s3.92-10.24,9.64-10.24,9.44,5.2,9.32,11.08Zm-16.48-2.12h13.92c-.52-3.72-3-6.64-6.76-6.64s-6.64,2.88-7.16,6.64Z"/><path class="h" d="M1152.97,405.01v2.72c-3.24-.24-5.76,2.48-5.76,6.6v11h-2.4v-20h2.4v3.68c1.04-2.08,2.96-4,5.76-4Z"/><path class="h" d="M1154.01,423.85c0-.92,.72-1.68,1.68-1.68s1.68,.76,1.68,1.68-.76,1.68-1.68,1.68-1.68-.72-1.68-1.68Z"/></g><g><path class="h" d="M190.88,248.8c0,5.76-3.8,10.28-9.36,10.28-2.96,0-5.28-1.4-6.84-3.48v11.2h-3.76v-28h3.76v3.2c1.56-2.08,3.88-3.48,6.84-3.48,5.56,0,9.36,4.52,9.36,10.28Zm-3.88,0c0-3.68-2.52-6.64-6.12-6.64s-6.2,3.12-6.2,6.64,2.6,6.6,6.2,6.6,6.12-2.96,6.12-6.6Z"/><path class="h" d="M194.36,248.8c0-5.56,4.16-10.32,10.2-10.32s10.2,4.76,10.2,10.32-4.16,10.32-10.2,10.32-10.2-4.76-10.2-10.32Zm16.52-.04c0-3.52-2.48-6.52-6.32-6.52s-6.36,3-6.36,6.52,2.6,6.6,6.36,6.6,6.32-3.04,6.32-6.6Z"/><path class="h" d="M218.2,248.8c0-5.56,4.16-10.32,10.2-10.32s10.2,4.76,10.2,10.32-4.16,10.32-10.2,10.32-10.2-4.76-10.2-10.32Zm16.52-.04c0-3.52-2.48-6.52-6.32-6.52s-6.36,3-6.36,6.52,2.6,6.6,6.36,6.6,6.32-3.04,6.32-6.6Z"/><path class="h" d="M252.84,238.41v4.44c-2.84-.48-5.76,1.04-5.76,5.36l-.04-.16v10.76h-3.76v-20h3.76v3.44c1.08-2.04,3.12-3.84,5.8-3.84Z"/><path class="h" d="M256.4,226.81h3.76v31.99h-3.76v-31.99Z"/><path class="h" d="M283.28,238.8l-11.72,28h-3.84l3.52-8.16-8.32-19.84h4.08l6.12,15.6,6.08-15.6h4.08Z"/><path class="h" d="M284.08,244.84h12.96v3.32h-12.96v-3.32Z"/><path class="h" d="M320.08,238.8v20h-3.76v-3.2c-1.56,2.08-3.88,3.48-6.84,3.48-5.56,0-9.36-4.52-9.36-10.28s3.8-10.28,9.36-10.28c2.96,0,5.28,1.4,6.84,3.48v-3.2h3.76Zm-3.76,10c0-3.52-2.6-6.6-6.2-6.6s-6.12,2.96-6.12,6.6,2.52,6.64,6.12,6.64,6.2-3.12,6.2-6.64Z"/><path class="h" d="M344.76,257.96c0,6.12-4.76,9.12-9.52,9.12-3.04,0-5.4-.88-7.6-2.12l.04-3.96c2.24,1.56,4.8,2.52,7.16,2.52,3.68,0,6.24-2.08,6.24-6.52v-1.52c-1.56,2.16-3.92,3.6-6.92,3.6-5.56,0-9.36-4.52-9.36-10.28s3.8-10.28,9.36-10.28c2.96,0,5.32,1.4,6.84,3.52v-3.24h3.72l.04,19.16Zm-3.76-9.16c0-3.52-2.6-6.6-6.2-6.6s-6.12,2.96-6.12,6.6,2.52,6.64,6.12,6.64,6.2-3.12,6.2-6.64Z"/><path class="h" d="M369.4,257.96c0,6.12-4.76,9.12-9.52,9.12-3.04,0-5.4-.88-7.6-2.12l.04-3.96c2.24,1.56,4.8,2.52,7.16,2.52,3.68,0,6.24-2.08,6.24-6.52v-1.52c-1.56,2.16-3.92,3.6-6.92,3.6-5.56,0-9.36-4.52-9.36-10.28s3.8-10.28,9.36-10.28c2.96,0,5.32,1.4,6.84,3.52v-3.24h3.72l.04,19.16Zm-3.76-9.16c0-3.52-2.6-6.6-6.2-6.6s-6.12,2.96-6.12,6.6,2.52,6.64,6.12,6.64,6.2-3.12,6.2-6.64Z"/><path class="h" d="M384.88,238.41v4.44c-2.84-.48-5.76,1.04-5.76,5.36l-.04-.16v10.76h-3.76v-20h3.76v3.44c1.08-2.04,3.12-3.84,5.8-3.84Z"/><path class="h" d="M405.56,250.32h-15.28c.6,3.16,3.08,5.16,6.52,5.16,2.64,0,4.68-.84,6.6-2.16v3.8c-1.68,1.24-4.08,2-6.8,2-6.36,0-10.2-4.72-10.2-10.32s3.92-10.28,9.8-10.28c6.24,0,9.8,5.48,9.36,11.8Zm-15.24-3.12h11.28c-.56-2.92-2.6-4.92-5.48-4.92-3.04,0-5.2,2.04-5.8,4.92Z"/><path class="h" d="M428.88,257.96c0,6.12-4.76,9.12-9.52,9.12-3.04,0-5.4-.88-7.6-2.12l.04-3.96c2.24,1.56,4.8,2.52,7.16,2.52,3.68,0,6.24-2.08,6.24-6.52v-1.52c-1.56,2.16-3.92,3.6-6.92,3.6-5.56,0-9.36-4.52-9.36-10.28s3.8-10.28,9.36-10.28c2.96,0,5.32,1.4,6.84,3.52v-3.24h3.72l.04,19.16Zm-3.76-9.16c0-3.52-2.6-6.6-6.2-6.6s-6.12,2.96-6.12,6.6,2.52,6.64,6.12,6.64,6.2-3.12,6.2-6.64Z"/><path class="h" d="M453.52,238.8v20h-3.76v-3.2c-1.56,2.08-3.88,3.48-6.84,3.48-5.56,0-9.36-4.52-9.36-10.28s3.8-10.28,9.36-10.28c2.96,0,5.28,1.4,6.84,3.48v-3.2h3.76Zm-3.76,10c0-3.52-2.6-6.6-6.2-6.6s-6.12,2.96-6.12,6.6,2.52,6.64,6.12,6.64,6.2-3.12,6.2-6.64Z"/><path class="h" d="M468.16,242.4h-4.12v16.4h-3.76v-16.4h-2.56v-3.6h2.56v-5.36h3.76v5.36h4.12v3.6Z"/><path class="h" d="M488.84,250.32h-15.28c.6,3.16,3.08,5.16,6.52,5.16,2.64,0,4.68-.84,6.6-2.16v3.8c-1.68,1.24-4.08,2-6.8,2-6.36,0-10.2-4.72-10.2-10.32s3.92-10.28,9.8-10.28c6.24,0,9.8,5.48,9.36,11.8Zm-15.24-3.12h11.28c-.56-2.92-2.6-4.92-5.48-4.92-3.04,0-5.2,2.04-5.8,4.92Z"/><path class="h" d="M512.16,226.81v31.99h-3.76v-3.2c-1.56,2.08-3.88,3.48-6.84,3.48-5.56,0-9.36-4.52-9.36-10.28s3.8-10.28,9.36-10.28c2.96,0,5.28,1.4,6.84,3.48v-15.2h3.76Zm-3.76,22c0-3.52-2.6-6.6-6.2-6.6s-6.12,2.96-6.12,6.6,2.52,6.64,6.12,6.64,6.2-3.12,6.2-6.64Z"/></g><g><path class="h" d="M800.48,241.8l-10.2,20.08h-2.8l-3.64-7.36-3.6,7.36h-2.84l-10.16-20.08h4l7.68,15.48,3.08-6.24-4.64-9.24h3.84l2.64,5.76,2.68-5.76h3.84l-4.68,9.2,3.16,6.28,7.64-15.48h4Z"/><path class="h" d="M820.52,253.32h-15.28c.6,3.16,3.08,5.16,6.52,5.16,2.64,0,4.68-.84,6.6-2.16v3.8c-1.68,1.24-4.08,2-6.8,2-6.36,0-10.2-4.72-10.2-10.32s3.92-10.28,9.8-10.28c6.24,0,9.8,5.48,9.36,11.8Zm-15.24-3.12h11.28c-.56-2.92-2.6-4.92-5.48-4.92-3.04,0-5.2,2.04-5.8,4.92Z"/><path class="h" d="M825.12,229.81h3.76v31.99h-3.76v-31.99Z"/><path class="h" d="M834.84,229.81h3.76v31.99h-3.76v-31.99Z"/><path class="h" d="M843.28,247.84h12.96v3.32h-12.96v-3.32Z"/><path class="h" d="M879.28,241.8v20h-3.76v-3.2c-1.56,2.08-3.88,3.48-6.84,3.48-5.56,0-9.36-4.52-9.36-10.28s3.8-10.28,9.36-10.28c2.96,0,5.28,1.4,6.84,3.48v-3.2h3.76Zm-3.76,10c0-3.52-2.6-6.6-6.2-6.6s-6.12,2.96-6.12,6.6,2.52,6.64,6.12,6.64,6.2-3.12,6.2-6.64Z"/><path class="h" d="M903.96,260.96c0,6.12-4.76,9.12-9.52,9.12-3.04,0-5.4-.88-7.6-2.12l.04-3.96c2.24,1.56,4.8,2.52,7.16,2.52,3.68,0,6.24-2.08,6.24-6.52v-1.52c-1.56,2.16-3.92,3.6-6.92,3.6-5.56,0-9.36-4.52-9.36-10.28s3.8-10.28,9.36-10.28c2.96,0,5.32,1.4,6.84,3.52v-3.24h3.72l.04,19.16Zm-3.76-9.16c0-3.52-2.6-6.6-6.2-6.6s-6.12,2.96-6.12,6.6,2.52,6.64,6.12,6.64,6.2-3.12,6.2-6.64Z"/><path class="h" d="M928.6,260.96c0,6.12-4.76,9.12-9.52,9.12-3.04,0-5.4-.88-7.6-2.12l.04-3.96c2.24,1.56,4.8,2.52,7.16,2.52,3.68,0,6.24-2.08,6.24-6.52v-1.52c-1.56,2.16-3.92,3.6-6.92,3.6-5.56,0-9.36-4.52-9.36-10.28s3.8-10.28,9.36-10.28c2.96,0,5.32,1.4,6.84,3.52v-3.24h3.72l.04,19.16Zm-3.76-9.16c0-3.52-2.6-6.6-6.2-6.6s-6.12,2.96-6.12,6.6,2.52,6.64,6.12,6.64,6.2-3.12,6.2-6.64Z"/><path class="h" d="M944.08,241.41v4.44c-2.84-.48-5.76,1.04-5.76,5.36l-.04-.16v10.76h-3.76v-20h3.76v3.44c1.08-2.04,3.12-3.84,5.8-3.84Z"/><path class="h" d="M964.76,253.32h-15.28c.6,3.16,3.08,5.16,6.52,5.16,2.64,0,4.68-.84,6.6-2.16v3.8c-1.68,1.24-4.08,2-6.8,2-6.36,0-10.2-4.72-10.2-10.32s3.92-10.28,9.8-10.28c6.24,0,9.8,5.48,9.36,11.8Zm-15.24-3.12h11.28c-.56-2.92-2.6-4.92-5.48-4.92-3.04,0-5.2,2.04-5.8,4.92Z"/><path class="h" d="M988.08,260.96c0,6.12-4.76,9.12-9.52,9.12-3.04,0-5.4-.88-7.6-2.12l.04-3.96c2.24,1.56,4.8,2.52,7.16,2.52,3.68,0,6.24-2.08,6.24-6.52v-1.52c-1.56,2.16-3.92,3.6-6.92,3.6-5.56,0-9.36-4.52-9.36-10.28s3.8-10.28,9.36-10.28c2.96,0,5.32,1.4,6.84,3.52v-3.24h3.72l.04,19.16Zm-3.76-9.16c0-3.52-2.6-6.6-6.2-6.6s-6.12,2.96-6.12,6.6,2.52,6.64,6.12,6.64,6.2-3.12,6.2-6.64Z"/><path class="h" d="M1012.72,241.8v20h-3.76v-3.2c-1.56,2.08-3.88,3.48-6.84,3.48-5.56,0-9.36-4.52-9.36-10.28s3.8-10.28,9.36-10.28c2.96,0,5.28,1.4,6.84,3.48v-3.2h3.76Zm-3.76,10c0-3.52-2.6-6.6-6.2-6.6s-6.12,2.96-6.12,6.6,2.52,6.64,6.12,6.64,6.2-3.12,6.2-6.64Z"/><path class="h" d="M1027.36,245.4h-4.12v16.4h-3.76v-16.4h-2.56v-3.6h2.56v-5.36h3.76v5.36h4.12v3.6Z"/><path class="h" d="M1048.04,253.32h-15.28c.6,3.16,3.08,5.16,6.52,5.16,2.64,0,4.68-.84,6.6-2.16v3.8c-1.68,1.24-4.08,2-6.8,2-6.36,0-10.2-4.72-10.2-10.32s3.92-10.28,9.8-10.28c6.24,0,9.8,5.48,9.36,11.8Zm-15.24-3.12h11.28c-.56-2.92-2.6-4.92-5.48-4.92-3.04,0-5.2,2.04-5.8,4.92Z"/><path class="h" d="M1071.36,229.81v31.99h-3.76v-3.2c-1.56,2.08-3.88,3.48-6.84,3.48-5.56,0-9.36-4.52-9.36-10.28s3.8-10.28,9.36-10.28c2.96,0,5.28,1.4,6.84,3.48v-15.2h3.76Zm-3.76,22c0-3.52-2.6-6.6-6.2-6.6s-6.12,2.96-6.12,6.6,2.52,6.64,6.12,6.64,6.2-3.12,6.2-6.64Z"/></g><g><path class="d" d="M862.56,147.78c8.65,4.52,18.7,2.88,18.63-10.1-.07-12.21-15.73-12.02-24.42-12.1-9.77-.09-18.22,4.79-7.66,14.21,3.35,2.99,9.56,5.7,13.46,7.98"/><path class="d" d="M861.54,75.21c-3.96-1.82-13.26,1.48-17.78,5.47-4.27,3.77-9.38,10.97-7.5,17.01,2.54,5.14,10.62,5.33,18.33,5.66,9.53,.41,19.78-3.07,29.04-1.37,9.37,1.72,20.15,7.2,29.98,2.12,16.16-8.35,.94-19.64-9.42-22.5-13.31-3.67-31.42,.84-42.65-6.4"/><path class="d" d="M1039.21,186.66c13-5.28,21.38-4.99,23.23-20.1,1.38-11.32,4.87-19.83-6.66-28.16-9.49-6.86-30.08-5.53-40.15-1.5-9.98,3.99-13.49,10.98-13.07,21.51,.49,12.45,9.73,21.95,19.5,26.35,4.17,1.87,10.82,5.46,17.16,1.9"/><path class="d" d="M914.41,150.5c-8.07,.85-12.79,16.61-2.38,24.93,6.82,5.45,20.29,4.84,24.22-3.87,6.42-14.26-11.25-22.88-21.84-21.06"/><path class="d" d="M967.45,108.71c-8.65-4.52-18.7-2.88-18.63,10.1,.07,12.21,15.73,12.02,24.42,12.1,9.77,.09,18.22-4.79,7.66-14.21-3.35-2.99-9.56-5.7-13.46-7.98"/><path class="d" d="M855.44,173.51c-27.02,37.87,62.81,24.92,49.19-1.58-4.8-9.35-15.65-7.39-25.89-9.34-7.34-1.4-18.72-.67-20.81,4.2-.98,2.09-.95,4.39-2.49,6.71"/><path class="d" d="M716.63,77.28c8.93,.34,17.51-2.51,22.83,6.41,3.54,5.95,7.58,15.66,7.59,22.47,.02,16.06-14.79,18.9-25.87,15.41-7.01-2.21-11.68-5.65-17.07-9.96-5.72-4.58-16.86-8.32-20.8-14.96-10.33-17.42,13.52-17.85,23.05-18.32,3.58-.18,6.48-1.15,10.27-1.04"/><path class="d" d="M1021.27,110.67c7.88-7.6,28.64-28.64,12.36-38.3-4.55-2.7-20.51-2.85-25.47,.65-4.37,3.08-4.91,8.8-4.05,14.08,.88,5.36,4.42,8.87,5.48,14.17,1.06,5.33-2.45,9,1.73,11.35,4.6,2.58,11.75-1.64,12.29-5.85"/><path class="d" d="M1109.58,102.51c17.21-10.15,11.91-38.11-9.19-38.22-13.82-.07-33.74,12.3-28.26,27.46,3.42,9.46,17.27,18.65,26.74,18.97,8.07,.27,8.79-6.4,13.83-9.77"/><path class="d" d="M970.17,161.4c-2.25-.86-5.9-1.15-8.43-.83-1.8,.22-3.12,1.27-4.66,2.35-3.1,2.18-4.85,5.42-5.92,9.61-1.56,6.1,1.53,15.81,8.06,18.67,3.46,1.51,16.44,2.46,16.37-3.03-.02-1.48-.63-3.88-1.33-5.12-.84-1.46-1.27-3.48-1.43-5.32-.33-3.75-.03-7.74,.03-11.51,.25-3.01-.17-3.78-2.69-4.82"/><path class="d" d="M1111.69,179.21c-8.93-.34-17.51,2.51-22.83-6.41-3.54-5.95-7.58-15.66-7.59-22.47-.02-16.06,14.79-18.9,25.87-15.41,7.01,2.21,11.68,5.65,17.07,9.96,5.72,4.58,16.86,8.32,20.8,14.96,10.33,17.43-13.52,17.85-23.05,18.32-3.58,.18-6.48,1.15-10.27,1.04"/><path class="d" d="M786.59,69.83c-13,5.28-21.38,4.99-23.23,20.1-1.38,11.32-4.86,19.83,6.66,28.16,9.49,6.86,30.08,5.53,40.15,1.5,9.98-3.99,13.49-10.98,13.07-21.51-.49-12.45-9.73-21.95-19.5-26.35-4.17-1.88-10.82-5.46-17.16-1.9"/><path class="d" d="M822.04,154.46c-7.88,7.6-28.64,28.64-12.36,38.29,4.55,2.7,20.51,2.85,25.47-.65,4.37-3.08,4.91-8.79,4.05-14.08-.88-5.36-4.42-8.87-5.48-14.17-1.06-5.32,2.45-9-1.73-11.35-4.6-2.57-11.75,1.64-12.29,5.85"/><path class="d" d="M745.33,143.05c-14.54,8.57-10.06,32.18,7.76,32.27,11.67,.06,28.49-10.39,23.87-23.19-2.89-7.99-14.58-15.75-22.58-16.02-6.81-.23-7.42,5.4-11.68,8.25"/><path class="d" d="M977.95,72.88c27.02-37.88-62.81-24.92-49.19,1.58,4.8,9.35,15.65,7.39,25.89,9.34,7.34,1.4,18.72,.67,20.81-4.2,.98-2.09,.95-4.39,2.49-6.71"/><path class="h" d="M724.89,148.72c1.38-10.84-12.48-17.91-19.59-8.83-4.66,5.95-5.98,18.7,2.4,21.41,5.23,1.69,13.84-1.22,17.15-5.21,2.82-3.39,.18-5.94,.41-9.24"/><path class="h" d="M851.56,130.98c-4.28-3.19-9.85-3.17-10.93,3.84-1.02,6.6,7.45,7.85,12.14,8.64,5.27,.89,10.25-1.01,5.36-7.01-1.55-1.9-4.67-3.91-6.57-5.47"/><path class="h" d="M848.91,70.56c-23.1,10.64,23.04,28.88,23.77,12.61,.26-5.74-5.42-7.76-9.75-11.46-3.1-2.66-8.7-5.4-11.02-3.65-1.03,.73-1.64,1.83-3.01,2.51"/><path class="h" d="M916.26,79.32c-7.32-24.36-31.8,18.8-15.79,21.79,5.65,1.05,8.44-4.29,12.71-8.06,3.06-2.7,6.56-7.86,5.15-10.4-.57-1.12-1.58-1.88-2.07-3.32"/><path class="h" d="M905.31,165.31c-2.34,3.77,2.9,11.09,9.98,9.38,4.64-1.12,8.89-7.15,6.44-11.76-4.01-7.55-13.65-2.8-16.41,2.38"/><path class="h" d="M958.23,130.62c23.11-10.64-23.04-28.88-23.77-12.61-.26,5.74,5.42,7.76,9.75,11.46,3.1,2.66,8.7,5.4,11.02,3.65,1.03-.73,1.64-1.83,3.01-2.51"/><path class="h" d="M872.2,171.99c-7.6-1.02-11.5-3.44-16.48,3.23-3.73,5-7.69,8.09-4.49,15.17,2.64,5.83,12.77,10.79,18.65,11.62,5.82,.82,9.38-1.55,12.04-6.66,3.15-6.04,1.34-13.06-2.1-17.8-1.47-2.02-3.65-5.53-7.63-5.56"/><g><path class="h" d="M898.92,141.56c5.8-1.47,21.37-5.81,16.26-14.82-1.42-2.51-8.96-6.92-12.26-6.61-2.91,.28-4.72,2.84-5.74,5.58-1.04,2.78-.31,5.41-1.25,8.21-.94,2.81-3.61,3.61-2.26,5.85,1.48,2.47,6.02,2.41,7.42,.56"/><path class="g" d="M902.75,133.2c-.96-1.47-2.68-2.1-3.81-.05-1.06,1.92,1.41,3.26,2.76,4.04,1.52,.87,3.28,.85,2.45-1.56-.26-.76-1-1.73-1.41-2.43"/></g><path class="h" d="M736.98,98.62c-4.06-1.79-10.58,4.41-7.9,11.19,1.75,4.44,8.31,7.81,12.54,4.74,6.92-5.02,.87-13.91-4.64-15.92"/><path class="h" d="M702.1,125.14c-4.88,.29-9.4,2.3-12.76-2.27-2.24-3.05-4.96-8.12-5.32-11.82-.87-8.74,7.04-11.07,13.26-9.76,3.93,.83,6.65,2.45,9.82,4.51,3.36,2.19,9.62,3.63,12.11,7.03,6.55,8.93-6.41,10.43-11.57,11.2-1.94,.29-3.47,.97-5.53,1.11"/><path class="h" d="M735.15,94.41c-2.34,3.77,2.9,11.09,9.98,9.38,4.64-1.12,8.89-7.15,6.44-11.76-4.01-7.55-13.65-2.8-16.41,2.38"/><path class="h" d="M995.93,90.61c-2.21,3.57,2.74,10.49,9.44,8.88,4.39-1.06,8.41-6.76,6.09-11.13-3.8-7.15-12.92-2.65-15.53,2.26"/><path class="h" d="M955.06,165.14c-3.46-.88-7.81,4.91-4.79,9.93,1.98,3.29,7.64,5.09,10.59,2.09,4.83-4.91-1.16-11.16-5.8-12.02"/><path class="h" d="M964.54,177.39c.65,5.95,2.78,21.97,12.41,18.17,2.69-1.06,8.1-7.91,8.25-11.22,.13-2.92-2.16-5.07-4.73-6.47-2.61-1.42-5.32-1.06-7.96-2.38-2.66-1.33-3.07-4.07-5.48-3.05-2.65,1.13-3.23,5.63-1.59,7.27"/><path class="h" d="M808.9,67.4c4.15,2.59,8.99,3.56,9.09,9.24,.07,3.79-.66,9.49-2.5,12.72-4.35,7.63-12.15,4.96-16.46,.28-2.73-2.95-4.01-5.85-5.39-9.36-1.47-3.73-5.74-8.52-5.81-12.75-.17-11.07,11.26-4.8,15.91-2.44,1.75,.89,3.39,1.22,5.15,2.29"/><path class="h" d="M799.93,116.94c-.65-5.95-2.78-21.97-12.41-18.17-2.69,1.06-8.1,7.91-8.25,11.22-.13,2.92,2.16,5.07,4.73,6.46,2.61,1.42,5.32,1.06,7.96,2.38,2.66,1.33,3.07,4.08,5.48,3.05,2.65-1.13,3.23-5.63,1.59-7.27"/><path class="h" d="M762.02,94.22c-4.91,2.08-7.72,6.89-2.21,11.37,5.18,4.22,10.54-2.46,13.59-6.1,3.43-4.09,4.31-9.36-3.33-8.17-2.43,.37-5.73,2.05-8.05,2.9"/><path class="h" d="M756.44,139.65c-5.8,1.47-21.37,5.81-16.26,14.82,1.42,2.51,8.96,6.92,12.26,6.61,2.91-.28,4.72-2.84,5.74-5.58,1.04-2.78,.31-5.41,1.25-8.21,.94-2.81,3.61-3.61,2.26-5.85-1.48-2.47-6.02-2.41-7.42-.56"/><path class="h" d="M802.91,169.53c-10.93,.06-16.11,14.73-6.17,20.59,6.51,3.84,19.33,3.47,20.91-5.2,.99-5.41-3.03-13.56-7.42-16.32-3.74-2.35-5.91,.61-9.22,.81"/><path class="h" d="M842.4,181.69c2.34-3.77-2.9-11.09-9.98-9.38-4.64,1.12-8.89,7.15-6.44,11.76,4.01,7.55,13.65,2.8,16.41-2.38"/><path class="h" d="M975.82,65.47c7.32,24.36,31.8-18.8,15.79-21.79-5.65-1.05-8.44,4.29-12.71,8.06-3.06,2.7-6.56,7.86-5.15,10.4,.57,1.12,1.58,1.88,2.07,3.33"/><path class="h" d="M938.54,54.12c-1.39-1.94-6.69-2.9-9.93-2.23-3.05,.63-7.43,2.66-8.18,6.04-.19,3.13,3.59,5.41,7.16,7.66,4.41,2.78,10.22,3.91,14.15,7.23,3.98,3.36,7.61,8.89,13.65,9.15,9.93,.42,5.78-9.07,1.64-13.23-5.32-5.35-15.14-8.13-18.5-14.62"/><path class="h" d="M1058.7,154.57c5.03,1.79,10.35,.14,9.32-6.89-.97-6.61-9.43-5.31-14.14-4.69-5.29,.7-9.5,3.98-3.07,8.28,2.04,1.36,5.61,2.36,7.89,3.3"/><path class="h" d="M1010.73,179.05c7.6,1.02,11.5,3.44,16.48-3.23,3.73-5,7.69-8.09,4.49-15.17-2.64-5.83-12.77-10.79-18.65-11.62-5.82-.82-9.38,1.54-12.04,6.66-3.14,6.04-1.34,13.06,2.1,17.8,1.47,2.02,3.65,5.53,7.62,5.56"/><path class="h" d="M1033.06,142.06c4.28,3.18,9.85,3.17,10.93-3.84,1.02-6.6-7.45-7.85-12.14-8.64-5.27-.89-10.25,1.01-5.37,7.01,1.55,1.9,4.67,3.91,6.57,5.47"/><path class="h" d="M1042.67,190.07c10.92-.14,16-14.85,6.02-20.63-6.54-3.79-19.35-3.32-20.87,5.35-.94,5.42,3.13,13.54,7.54,16.26,3.75,2.32,5.91-.65,9.21-.88"/><path class="h" d="M1100.59,100.24c-1.38,10.84,12.48,17.91,19.59,8.83,4.66-5.95,5.98-18.7-2.4-21.41-5.23-1.69-13.84,1.22-17.15,5.21-2.82,3.4-.18,5.94-.41,9.24"/><path class="h" d="M1068.42,75.07c1.34-4.7,.95-9.63,6.38-11.29,3.62-1.1,9.3-1.98,12.92-1.1,8.53,2.08,8.11,10.32,4.8,15.74-2.09,3.43-4.52,5.46-7.52,7.76-3.18,2.44-6.61,7.87-10.65,9.09-10.6,3.21-7.71-9.51-6.72-14.63,.37-1.93,.24-3.59,.79-5.59"/><path class="h" d="M1125.37,181.24c4.06,1.79,10.58-4.41,7.9-11.18-1.75-4.44-8.31-7.81-12.54-4.74-6.92,5.02-.87,13.91,4.64,15.92"/><path class="h" d="M1107.76,186.68c-4.15-2.58-8.99-3.56-9.09-9.24-.07-3.78,.66-9.49,2.5-12.72,4.35-7.63,12.15-4.96,16.46-.29,2.73,2.95,4.01,5.85,5.39,9.36,1.47,3.73,5.74,8.52,5.81,12.74,.17,11.07-11.26,4.8-15.91,2.44-1.75-.89-3.39-1.22-5.15-2.3"/><path class="h" d="M1123.32,130.19c-1.39-1.94-6.69-2.9-9.93-2.23-3.05,.63-7.43,2.66-8.18,6.04-.19,3.13,3.59,5.41,7.16,7.66,4.41,2.78,10.22,3.91,14.15,7.23,3.98,3.36,7.61,8.89,13.65,9.15,9.93,.42,5.78-9.07,1.64-13.23-5.32-5.36-15.14-8.13-18.5-14.62"/><path class="g" d="M713.21,143.86c1.24-.76,.79-3.68-1.54-4.23-1.53-.36-3.66,.79-3.63,2.5,.06,2.81,3.59,2.84,5.17,1.72"/><path class="g" d="M713.28,156.75c1.83,.72,6.81,2.56,7.18-.82,.1-.94-1.05-3.57-1.99-4.12-.83-.49-1.8-.15-2.6,.38-.81,.54-1.12,1.38-1.91,1.95-.79,.57-1.65,.27-1.73,1.12-.08,.94,1.14,1.8,1.87,1.58"/><path class="g" d="M870.1,138.79c1.83,1.74,2.4,3.13,5.01,2.31,1.95-.61,3.6-.67,4.11-3.18,.42-2.06-1.32-5.33-2.73-6.68-1.39-1.34-2.8-1.39-4.49-.55-2,1-2.87,3.22-2.87,5.14,0,.82-.09,2.18,.96,2.95"/><path class="g" d="M844.61,144.65c2.94,2.06,7.12-.88,5.57-4.34-1.01-2.27-4.51-4.61-6.59-2.59-1.29,1.26-1.77,4.21-1.12,5.78,.55,1.34,1.7,.96,2.62,1.54"/><path class="g" d="M853.8,131.32c-1.14,.91-.31,3.75,2.07,4,1.56,.16,3.53-1.24,3.28-2.94-.42-2.78-3.92-2.36-5.35-1.06"/><path class="g" d="M863.85,140.43c-1.61,3.21,1.91,6.91,5.11,4.88,2.09-1.33,3.9-5.14,1.6-6.9-1.44-1.1-4.42-1.14-5.88-.26-1.24,.74-.7,1.82-1.14,2.82"/><path class="g" d="M860.6,81.77c1.24-.76,.79-3.68-1.54-4.23-1.53-.36-3.66,.79-3.63,2.5,.06,2.81,3.6,2.84,5.17,1.72"/><path class="g" d="M844.21,95.92c1.83,.72,6.81,2.57,7.18-.82,.1-.94-1.05-3.57-1.99-4.12-.83-.49-1.8-.15-2.6,.38-.81,.54-1.13,1.38-1.91,1.95-.79,.57-1.65,.27-1.73,1.12-.08,.94,1.14,1.8,1.87,1.58"/><path class="g" d="M861.81,93.54c-.76,.21-1.66,1.73-1.82,2.8-.15,1.01-.03,2.59,.93,3.21,.94,.41,2.08-.49,3.18-1.33,1.36-1.04,2.37-2.7,3.85-3.53,1.49-.84,3.61-1.33,4.38-3.16,1.27-3.01-2.13-2.82-3.89-2.02-2.26,1.03-4.23,3.74-6.62,4.03"/><path class="g" d="M886.35,92.77c-.61-1.49-1.71-2.68-.64-4.21,.71-1.02,2-2.4,3.11-2.91,2.63-1.19,4.19,1.02,4.44,3.09,.16,1.31-.06,2.33-.37,3.53-.33,1.28-.11,3.38-.91,4.51-2.09,2.98-3.92-.89-4.71-2.41-.3-.57-.67-.98-.93-1.6"/><path class="g" d="M907.44,95.45c-.69,1.84-2.43,6.86,.96,7.17,.95,.09,3.55-1.13,4.08-2.08,.47-.84,.12-1.81-.43-2.6-.56-.8-1.4-1.1-1.98-1.87-.58-.78-.3-1.65-1.16-1.71-.95-.06-1.78,1.18-1.54,1.9"/><path class="g" d="M877.16,82.51c-1.83-1.74-2.4-3.13-5.01-2.31-1.95,.61-3.6,.67-4.11,3.18-.42,2.06,1.32,5.33,2.73,6.68,1.39,1.34,2.8,1.39,4.49,.55,2-1,2.87-3.22,2.87-5.14,0-.82,.09-2.18-.96-2.95"/><path class="g" d="M1033.81,159.72c.21,1.95,.9,7.22,4.06,5.98,.88-.35,2.67-2.59,2.72-3.68,.05-.96-.7-1.67-1.55-2.13-.86-.47-1.75-.35-2.61-.79-.87-.44-1.01-1.34-1.8-1.01-.87,.37-1.06,1.85-.53,2.39"/><path class="g" d="M1048.44,145.66c-1.7,1.86-3.08,2.46-2.21,5.06,.65,1.94,.75,3.59,3.26,4.05,2.07,.38,5.3-1.43,6.63-2.86,1.31-1.42,1.34-2.82,.45-4.5-1.04-1.98-3.28-2.81-5.2-2.76-.82,.02-2.18-.05-2.93,1.02"/><path class="g" d="M1023.63,160.42c-1.36,1.11-1.8,2.89,.35,3.79,2.02,.85,3.1-1.75,3.72-3.18,.7-1.61,.49-3.35-1.81-2.27-.73,.34-1.62,1.18-2.27,1.66"/><path class="g" d="M1040.88,181.3c.77,1.58,2.39,2.42,3.77,.53,1.3-1.77-.98-3.42-2.23-4.36-1.4-1.06-3.14-1.26-2.63,1.23,.16,.79,.77,1.85,1.09,2.59"/><path class="g" d="M1056.36,168.45c.76,1.58,2.39,2.42,3.77,.53,1.3-1.77-.98-3.42-2.23-4.36-1.4-1.06-3.14-1.26-2.63,1.23,.16,.79,.77,1.85,1.09,2.59"/><path class="g" d="M997.27,161.76c-.69,1.84-2.43,6.86,.96,7.17,.95,.08,3.54-1.13,4.08-2.08,.47-.84,.12-1.81-.43-2.6-.56-.8-1.4-1.1-1.99-1.87-.58-.78-.3-1.65-1.16-1.71-.95-.06-1.78,1.18-1.54,1.9"/><path class="g" d="M1010.51,149.61c-1.45,8.23,12.11-.82,7.85-4.06-1.5-1.14-3.11,.01-4.92,.49-1.3,.34-3.09,1.34-3.05,2.29,0,.42,.19,.79,.12,1.28"/><path class="g" d="M1011.25,167.25c-2,2.98,1.02,7.1,4.45,5.48,2.25-1.06,4.52-4.61,2.46-6.64-1.29-1.27-4.24-1.69-5.8-1.01-1.33,.58-.93,1.72-1.49,2.65"/><path class="g" d="M1036.13,137.98c-.74-1.26-3.66-.86-4.26,1.46-.39,1.52,.71,3.68,2.43,3.68,2.81,0,2.91-3.54,1.83-5.13"/><path class="g" d="M923.71,155.16c-.76,.21-1.66,1.73-1.82,2.8-.15,1.01-.03,2.59,.93,3.21,.94,.42,2.08-.49,3.18-1.33,1.36-1.04,2.37-2.7,3.85-3.53,1.49-.84,3.61-1.33,4.38-3.16,1.27-3.01-2.13-2.82-3.89-2.02-2.26,1.03-4.23,3.74-6.62,4.03"/><path class="g" d="M929.65,165.88c-1.83-1.74-2.4-3.13-5.01-2.31-1.95,.61-3.6,.67-4.11,3.18-.42,2.06,1.32,5.33,2.73,6.68,1.39,1.34,2.8,1.39,4.49,.55,2-1,2.87-3.22,2.87-5.14,0-.82,.09-2.18-.96-2.95"/><path class="g" d="M915.44,149.72c-.74-1.26-3.67-.86-4.26,1.46-.39,1.52,.71,3.68,2.43,3.68,2.81,0,2.91-3.54,1.83-5.14"/><path class="g" d="M977.6,121.08c-.78,.01-2.04,1.27-2.46,2.26-.4,.94-.67,2.5,.1,3.34,.81,.63,2.13,.04,3.41-.5,1.58-.67,2.97-2.03,4.6-2.47,1.65-.45,3.82-.39,5.02-1.98,1.97-2.6-1.37-3.26-3.27-2.92-2.44,.44-5.03,2.57-7.41,2.26"/><path class="g" d="M947.36,121.4c-1.59,.73-2.46,2.34-.61,3.76,1.74,1.33,3.44-.92,4.4-2.14,1.08-1.38,1.32-3.12-1.18-2.65-.79,.15-1.86,.73-2.61,1.04"/><path class="g" d="M975.15,108.03c-2.94-2.06-7.12,.88-5.57,4.34,1.01,2.27,4.51,4.61,6.59,2.59,1.29-1.26,1.77-4.21,1.12-5.78-.55-1.34-1.7-.96-2.62-1.54"/><path class="g" d="M964.96,115.39c.61,1.49,1.71,2.68,.64,4.21-.71,1.02-2,2.4-3.11,2.91-2.63,1.19-4.19-1.02-4.44-3.09-.16-1.31,.06-2.33,.37-3.53,.33-1.28,.11-3.37,.91-4.51,2.09-2.98,3.92,.89,4.71,2.41,.3,.57,.67,.98,.93,1.6"/><path class="g" d="M868.88,175.52c.02-1.75-1.05-3.23-3.13-2.17-1.95,1-.65,3.5,.04,4.9,.78,1.57,2.24,2.53,2.9,.08,.21-.78,.14-1.99,.19-2.8"/><path class="g" d="M851.47,196.12c0,.78,1.22,2.06,2.21,2.5,.93,.42,2.49,.72,3.34-.03,.65-.8,.08-2.13-.43-3.42-.64-1.59-1.97-3.01-2.38-4.65-.41-1.66-.32-3.83-1.87-5.06-2.56-2.02-3.28,1.3-2.98,3.21,.39,2.45,2.47,5.08,2.11,7.45"/><path class="g" d="M882.49,172.15c1.38-.82,2.4-2.08,4.07-1.25,1.11,.55,2.67,1.63,3.33,2.65,1.57,2.42-.39,4.29-2.41,4.84-1.27,.35-2.31,.28-3.55,.16-1.31-.14-3.36,.38-4.59-.24-3.26-1.63,.3-4.01,1.7-5.01,.52-.38,.87-.81,1.45-1.16"/><path class="g" d="M889.19,183.9c-.74-1.26-3.66-.86-4.26,1.46-.39,1.52,.71,3.68,2.43,3.68,2.81,0,2.91-3.54,1.83-5.13"/><path class="g" d="M875.96,160.1c-2.94-2.06-7.12,.88-5.57,4.34,1.01,2.27,4.51,4.61,6.59,2.59,1.29-1.26,1.77-4.21,1.12-5.78-.55-1.34-1.7-.96-2.62-1.54"/><path class="g" d="M882.31,193.08c-1.83-1.74-2.4-3.13-5.01-2.31-1.96,.61-3.6,.67-4.11,3.18-.42,2.06,1.32,5.33,2.73,6.68,1.39,1.34,2.8,1.39,4.49,.55,2-1,2.87-3.22,2.87-5.14,0-.82,.09-2.17-.96-2.95"/><path class="g" d="M902.52,128.04c.74,1.26,3.66,.86,4.26-1.46,.39-1.52-.71-3.68-2.43-3.68-2.81,0-2.91,3.54-1.83,5.14"/><path class="g" d="M915.05,127.36c1.59-.73,2.46-2.34,.61-3.76-1.74-1.33-3.44,.92-4.4,2.14-1.09,1.38-1.32,3.12,1.18,2.65,.79-.15,1.86-.73,2.61-1.03"/><path class="g" d="M730.7,113.34c1.24-.76,.79-3.68-1.54-4.23-1.53-.36-3.66,.78-3.63,2.5,.06,2.81,3.6,2.84,5.17,1.72"/><path class="g" d="M730.1,93.68c1.36-1.11,1.8-2.89-.35-3.79-2.02-.85-3.1,1.75-3.72,3.18-.7,1.61-.49,3.35,1.81,2.27,.73-.34,1.62-1.18,2.27-1.66"/><path class="g" d="M715.3,111.12c2-2.98-1.02-7.1-4.45-5.48-2.25,1.06-4.52,4.61-2.46,6.64,1.29,1.27,4.24,1.69,5.8,1,1.33-.58,.93-1.72,1.49-2.65"/><path class="g" d="M697.05,102.36c2-2.98-1.02-7.1-4.45-5.48-2.25,1.06-4.52,4.61-2.46,6.64,1.29,1.27,4.24,1.69,5.8,1.01,1.33-.58,.93-1.72,1.49-2.65"/><path class="g" d="M710.09,97.41c-1.47,.64-2.64,1.76-4.2,.73-1.03-.69-2.44-1.95-2.97-3.06-1.25-2.6,.93-4.21,3-4.5,1.31-.18,2.33,.01,3.54,.29,1.28,.3,3.38,.04,4.53,.82,3.02,2.02-.81,3.94-2.32,4.75-.57,.31-.96,.69-1.58,.96"/><path class="g" d="M722.93,124.62c1.83,.73,6.81,2.56,7.18-.82,.1-.94-1.05-3.57-1.99-4.12-.83-.49-1.8-.15-2.6,.38-.81,.54-1.13,1.38-1.91,1.95-.79,.57-1.65,.27-1.73,1.12-.08,.94,1.14,1.8,1.87,1.58"/><path class="g" d="M712.09,87.7c-1.45,2.06-2.74,2.83-1.55,5.3,.89,1.84,1.19,3.47,3.75,3.6,2.1,.11,5.08-2.09,6.21-3.68,1.12-1.57,.97-2.97-.12-4.52-1.29-1.83-3.61-2.37-5.51-2.08-.81,.12-2.17,.23-2.78,1.38"/><path class="g" d="M696.47,89.69c.96,1.47,2.68,2.09,3.81,.05,1.06-1.92-1.41-3.26-2.76-4.04-1.52-.87-3.28-.85-2.45,1.55,.26,.76,1,1.73,1.41,2.43"/><path class="g" d="M723.61,81.09c-1.6-.16-3.17,.25-4.02-1.41-.57-1.11-1.18-2.89-1.11-4.11,.18-2.88,2.86-3.22,4.81-2.47,1.23,.48,2.03,1.15,2.95,1.98,.97,.89,2.93,1.68,3.56,2.92,1.66,3.24-2.63,3.05-4.34,3.02-.64,0-1.18,.13-1.85,.07"/><path class="g" d="M744.75,88.84c1.61-3.21-1.91-6.91-5.11-4.88-2.09,1.33-3.9,5.14-1.6,6.89,1.44,1.1,4.42,1.14,5.88,.26,1.24-.74,.7-1.82,1.14-2.82"/><path class="g" d="M1078.92,78.92c-1.24,.76-.79,3.68,1.54,4.23,1.53,.36,3.66-.79,3.63-2.5-.06-2.81-3.59-2.84-5.17-1.72"/><path class="g" d="M1082.13,102.45c-1.24,.76-.79,3.68,1.54,4.23,1.53,.36,3.66-.79,3.63-2.5-.06-2.81-3.59-2.84-5.17-1.72"/><path class="g" d="M1115.34,100.3c-1.24,.76-.79,3.68,1.54,4.23,1.53,.36,3.66-.79,3.63-2.5-.06-2.81-3.59-2.84-5.17-1.72"/><path class="g" d="M1031.23,88.8c-1.36,1.11-1.8,2.89,.35,3.79,2.02,.85,3.1-1.75,3.72-3.18,.7-1.61,.49-3.35-1.81-2.27-.73,.34-1.62,1.18-2.27,1.66"/><path class="g" d="M1096.91,97.75c-1.47,.95-2.11,2.67-.08,3.81,1.91,1.07,3.27-1.39,4.06-2.74,.88-1.52,.87-3.27-1.54-2.46-.76,.26-1.74,.99-2.44,1.39"/><path class="g" d="M1003.98,87.56c-.74-1.26-3.66-.86-4.26,1.46-.39,1.52,.71,3.68,2.43,3.68,2.81,0,2.91-3.54,1.83-5.13"/><path class="g" d="M1012.24,102.31c-.74-1.26-3.67-.86-4.26,1.46-.39,1.52,.71,3.68,2.43,3.68,2.81,0,2.91-3.54,1.83-5.13"/><path class="g" d="M1114.67,76.21c-1.83-.72-6.81-2.56-7.18,.82-.1,.94,1.05,3.57,1.99,4.12,.83,.49,1.8,.15,2.6-.38,.81-.54,1.12-1.38,1.91-1.95,.79-.57,1.65-.27,1.73-1.12,.08-.94-1.14-1.8-1.87-1.58"/><path class="g" d="M1019.29,86.33c0-.78-1.22-2.06-2.21-2.51-.93-.42-2.49-.72-3.34,.03-.65,.8-.08,2.13,.43,3.42,.64,1.59,1.97,3.01,2.38,4.65,.41,1.66,.32,3.83,1.87,5.06,2.56,2.02,3.28-1.3,2.98-3.21-.39-2.45-2.47-5.08-2.11-7.45"/><path class="g" d="M1097.39,76.7c.61,1.49,1.71,2.68,.64,4.21-.71,1.02-2,2.4-3.11,2.91-2.63,1.19-4.19-1.02-4.44-3.09-.16-1.31,.06-2.33,.37-3.53,.33-1.28,.11-3.38,.91-4.51,2.09-2.98,3.92,.89,4.71,2.41,.3,.57,.67,.98,.93,1.6"/><path class="g" d="M1020.8,80.16c-1.38,.82-2.4,2.08-4.07,1.25-1.11-.55-2.67-1.63-3.33-2.65-1.57-2.42,.39-4.29,2.41-4.84,1.27-.35,2.31-.28,3.55-.16,1.31,.14,3.36-.38,4.59,.24,3.26,1.63-.3,4.01-1.7,5.01-.52,.38-.87,.81-1.45,1.16"/><path class="g" d="M961.92,182.49c-2,2.98,1.02,7.1,4.45,5.48,2.25-1.06,4.52-4.61,2.46-6.64-1.29-1.27-4.24-1.69-5.8-1-1.33,.58-.93,1.72-1.49,2.65"/><path class="g" d="M973.9,156.28c-1.83-1.74-2.4-3.13-5.01-2.31-1.96,.61-3.6,.67-4.11,3.18-.42,2.06,1.32,5.33,2.73,6.68,1.39,1.34,2.8,1.39,4.49,.55,2-1,2.87-3.22,2.87-5.14,0-.82,.09-2.18-.96-2.95"/><path class="g" d="M1098.64,164.1c1.47-.64,2.64-1.76,4.2-.73,1.03,.69,2.44,1.95,2.97,3.05,1.25,2.6-.93,4.21-3,4.5-1.31,.18-2.33-.01-3.54-.29-1.28-.3-3.38-.04-4.53-.82-3.02-2.02,.81-3.94,2.32-4.75,.57-.31,.96-.69,1.58-.96"/><path class="g" d="M1128.32,163.29c-8.2-1.61,.58,12.13,3.9,7.93,1.17-1.48,.05-3.11-.39-4.93-.31-1.3-1.28-3.11-2.23-3.09-.41,0-.79,.17-1.28,.09"/><path class="g" d="M1109.74,155.66c1.45-2.06,2.74-2.83,1.55-5.3-.89-1.84-1.19-3.47-3.75-3.6-2.1-.11-5.08,2.09-6.21,3.68-1.12,1.57-.97,2.97,.12,4.52,1.29,1.83,3.61,2.37,5.51,2.08,.81-.12,2.17-.23,2.78-1.38"/><path class="g" d="M1124.86,155.22c-.96-1.47-2.68-2.09-3.81-.05-1.06,1.92,1.41,3.26,2.76,4.04,1.52,.87,3.28,.85,2.45-1.55-.26-.76-1-1.73-1.41-2.43"/><path class="g" d="M1092.43,151.32c1.38-1.08,1.86-2.84-.27-3.8-2-.9-3.13,1.68-3.79,3.09-.74,1.59-.57,3.34,1.75,2.31,.74-.32,1.64-1.14,2.31-1.61"/><path class="g" d="M1121.18,141.36c1.2-1.07,1.96-2.5,3.76-2.01,1.2,.33,2.93,1.09,3.78,1.97,2,2.08,.43,4.29-1.44,5.21-1.18,.58-2.22,.72-3.45,.83-1.31,.12-3.22,1.02-4.56,.65-3.51-.97-.47-4,.71-5.24,.44-.47,.7-.96,1.2-1.41"/><path class="g" d="M803.07,106.62c1.7-1.86,3.08-2.46,2.21-5.06-.65-1.94-.75-3.59-3.26-4.05-2.07-.38-5.3,1.43-6.63,2.87-1.31,1.42-1.34,2.82-.45,4.5,1.04,1.98,3.28,2.81,5.2,2.76,.82-.02,2.18,.05,2.93-1.02"/><path class="g" d="M807.69,116.81c1.24-.76,.79-3.68-1.54-4.23-1.53-.36-3.66,.79-3.63,2.5,.06,2.81,3.59,2.84,5.17,1.72"/><path class="g" d="M810.01,81.41c1.24-.76,.79-3.68-1.54-4.23-1.53-.36-3.66,.78-3.63,2.5,.06,2.81,3.59,2.84,5.17,1.72"/><path class="g" d="M775.45,104.37c-.76-1.58-2.39-2.42-3.77-.53-1.3,1.77,.98,3.42,2.23,4.36,1.4,1.06,3.14,1.26,2.63-1.23-.16-.79-.77-1.85-1.09-2.59"/><path class="g" d="M799.59,75.36c.69-1.84,2.43-6.86-.96-7.17-.95-.08-3.54,1.13-4.08,2.08-.47,.84-.12,1.81,.43,2.6,.56,.8,1.4,1.1,1.99,1.87,.58,.78,.3,1.65,1.16,1.71,.95,.06,1.78-1.18,1.54-1.9"/><path class="g" d="M822.55,103.68c1.45-8.23-12.11,.82-7.85,4.06,1.5,1.14,3.11-.01,4.92-.49,1.3-.34,3.09-1.34,3.05-2.29,0-.42-.19-.79-.12-1.28"/><path class="g" d="M778.38,93.46c8.2,1.61-.58-12.13-3.9-7.93-1.17,1.48-.05,3.11,.39,4.93,.31,1.3,1.28,3.11,2.23,3.09,.42,0,.79-.17,1.28-.09"/><path class="g" d="M782.5,81.89c-1.14,.91-.31,3.75,2.07,4,1.56,.16,3.53-1.24,3.28-2.94-.42-2.78-3.92-2.36-5.35-1.06"/><path class="g" d="M765.84,96.24c-1.4-.42-3.27,1.87-2.12,3.97,.75,1.38,3.03,2.21,4.28,1.04,2.05-1.92-.28-4.57-2.16-5"/><path class="g" d="M789.08,100.33c-1.47,.64-2.64,1.76-4.2,.73-1.03-.69-2.44-1.95-2.97-3.05-1.25-2.6,.93-4.21,3-4.5,1.31-.18,2.33,.01,3.54,.29,1.28,.3,3.38,.04,4.53,.82,3.02,2.02-.81,3.94-2.32,4.75-.57,.31-.96,.69-1.58,.96"/><path class="g" d="M761.6,172.51c.9-.55,.57-2.66-1.12-3.05-1.1-.26-2.65,.57-2.62,1.81,.05,2.03,2.6,2.05,3.73,1.24"/><path class="g" d="M747.3,170.71c1.24-.76,.79-3.68-1.54-4.23-1.53-.36-3.66,.79-3.63,2.5,.06,2.81,3.6,2.84,5.17,1.72"/><path class="g" d="M771.57,156.9c.02-1.75-1.05-3.23-3.13-2.17-1.95,1-.65,3.5,.04,4.9,.78,1.57,2.25,2.53,2.9,.08,.21-.78,.14-1.99,.19-2.8"/><path class="g" d="M763.4,152.88c-1.47,.64-2.64,1.76-4.2,.73-1.03-.69-2.44-1.95-2.97-3.06-1.25-2.6,.93-4.21,3-4.5,1.31-.18,2.33,.01,3.54,.29,1.28,.3,3.38,.04,4.53,.82,3.02,2.02-.81,3.94-2.32,4.75-.57,.31-.96,.69-1.58,.96"/><path class="g" d="M810.49,169.62c-1.54-.44-3.16-.31-3.71-2.09-.36-1.19-.65-3.06-.37-4.24,.68-2.8,3.39-2.67,5.17-1.59,1.13,.69,1.8,1.48,2.55,2.47,.8,1.04,2.59,2.17,2.99,3.5,1.06,3.48-3.12,2.54-4.8,2.22-.63-.12-1.18-.08-1.84-.26"/><path class="g" d="M818.46,158.75c1.83,.72,6.81,2.56,7.18-.82,.1-.94-1.05-3.57-1.99-4.12-.83-.49-1.8-.15-2.6,.38-.81,.54-1.12,1.38-1.91,1.95-.79,.57-1.65,.27-1.73,1.12-.08,.94,1.14,1.8,1.87,1.58"/><path class="g" d="M751.13,166.44c8.2,1.61-.58-12.13-3.9-7.93-1.17,1.48-.05,3.11,.39,4.93,.31,1.3,1.28,3.11,2.23,3.09,.41,0,.79-.17,1.28-.09"/><path class="g" d="M770.19,167.13c.96,1.47,2.68,2.1,3.81,.05,1.06-1.92-1.41-3.27-2.76-4.04-1.52-.87-3.28-.85-2.45,1.55,.26,.76,1,1.73,1.41,2.43"/><path class="g" d="M835.52,189.96c.78-.01,2.04-1.27,2.46-2.26,.4-.94,.67-2.5-.1-3.34-.81-.64-2.13-.04-3.41,.5-1.58,.67-2.97,2.03-4.6,2.47-1.65,.45-3.82,.39-5.02,1.98-1.97,2.6,1.37,3.26,3.27,2.92,2.44-.44,5.03-2.57,7.41-2.26"/><path class="g" d="M805.22,183.56c-.34,.22-.34,1.11-.09,1.67,.24,.53,.81,1.3,1.52,1.46,.64,.07,.97-.56,1.3-1.14,.4-.72,.42-1.7,.95-2.34,.54-.64,1.53-1.2,1.36-2.23-.27-1.69-2.05-1.08-2.75-.42-.89,.85-1.1,2.5-2.29,3"/><path class="g" d="M945.28,59.57c-1.24,.76-.79,3.68,1.54,4.23,1.53,.36,3.66-.79,3.63-2.5-.06-2.81-3.59-2.84-5.17-1.72"/><path class="g" d="M975.24,58.26c-1.83-.72-6.81-2.56-7.18,.82-.1,.94,1.05,3.57,1.99,4.12,.83,.49,1.8,.15,2.6-.38,.81-.54,1.12-1.38,1.91-1.95,.79-.57,1.65-.27,1.73-1.12,.08-.94-1.14-1.8-1.87-1.58"/><path class="g" d="M971.85,77.64c1.14-.91,.31-3.75-2.07-4-1.56-.16-3.53,1.24-3.28,2.94,.42,2.78,3.92,2.36,5.35,1.06"/><path class="g" d="M962.85,62.66c1.61-3.21-1.91-6.91-5.11-4.88-2.09,1.33-3.9,5.14-1.6,6.9,1.44,1.09,4.42,1.14,5.88,.26,1.24-.74,.71-1.82,1.14-2.82"/><path class="g" d="M965,77.11c-1.38,.82-2.4,2.08-4.07,1.25-1.11-.55-2.67-1.63-3.33-2.66-1.57-2.42,.39-4.29,2.41-4.84,1.27-.35,2.31-.28,3.55-.16,1.31,.13,3.36-.38,4.59,.24,3.26,1.63-.3,4.01-1.7,5.01-.52,.38-.87,.8-1.45,1.16"/><path class="g" d="M940.43,75.8c.45-1.91,1.54-7.11-1.86-6.99-.95,.04-3.37,1.57-3.78,2.58-.36,.89,.11,1.81,.76,2.52,.65,.72,1.53,.91,2.21,1.61,.68,.7,.51,1.6,1.37,1.54,.95-.06,1.62-1.39,1.29-2.08"/><path class="g" d="M926.28,55.23c-.45,1.91-1.54,7.11,1.86,6.99,.95-.04,3.37-1.57,3.78-2.58,.36-.89-.11-1.81-.76-2.52-.65-.73-1.53-.91-2.21-1.61-.68-.7-.51-1.6-1.37-1.54-.95,.06-1.62,1.39-1.29,2.08"/><path class="i" d="M836.77,101.94c-.46,2.12,1.46,6.73,1.83,9.79,1.39,7.96-2.52,15.77-7.25,21.63-6.74,8.7-16.18,14.36-25.34,19.65-7.6,4.47-15.2,8.74-21.08,15.32-4.47,5.03-7.21,11.61-7.2,18.46-.06,4.35,.35,9.08,3.42,12.47-3.44-3.08-4.42-8-4.79-12.42-.59-5.91,.72-11.99,3.66-17.28,7.79-13.74,23.1-20.89,34.41-31.02,6.07-5.48,13.28-13.9,13.4-22.15-.13-3.41-1.9-6.01-2.81-9.55-.44-1.58-.79-3.45-.77-5.48l12.52,.57h0Z"/><path class="i" d="M837.52,105.85c2.94,7.82,.16,16.26-4.76,22.42-1.72,2.1-3.83,4.23-6.44,5.37-15.63,6.95-33.41,8.48-49.7,3.16-10.56-3.48-20.63-11.67-31.82-6.91-8.6,3.56-13.74,12.57-14.84,21.63-1.53,9.8-2.79,20.11-8.54,28.62-3.26,5.08-8.29,8.6-12.24,13.06-1.29,1.48-2.46,3.09-3.21,4.93,.63-1.88,1.71-3.6,2.92-5.17,2.41-3.14,5.36-5.87,7.9-8.86,3.8-4.46,6.16-9.89,7.52-15.56,1.94-7.7,1.6-15.72,3.18-23.56,2.66-12.76,14.55-23.77,28.11-22.33,8.32,.68,15.66,4.88,23.23,6.92,7.08,1.9,14.62,2.16,21.95,1.19,7.42-1,14.78-3.29,21.14-6.79,3.26-3.21,5.99-8.99,3.99-13.37l11.6-4.75h0Z"/><path class="i" d="M1059.28,68.3c2.24,6.17,2.85,12.14,2.3,18.56-.74,9.13-7.9,16.37-14.37,21.58-3.38,2.71-7.43,5.36-11.05,7.48-6.99,4.29-13.83,9.47-21.37,14-6.71,4.09-13.6,5.52-19.79,9.78-6.94,5.22-12.55,13.05-13.69,21.8-.15,.82-.13,2.04-.17,2.87,.07,.77,.09,2.09,.28,2.85,.82,6.33,5.73,11.04,7.4,17.22,3.25,12.96-8.31,24.99-14.25,35.47-2.16,3.64-4.09,7.44-5.22,11.55,2.71-12.53,12.08-22.46,16.02-34.46,5.43-16.51-9.13-18.02-8.81-35.04,.45-10.69,6.44-20.58,14.48-27.39,5.76-4.73,13.71-7.24,19.51-11.26,6.79-4.65,13.21-10.18,20.43-15.26,3.57-2.42,6.54-4.61,9.64-7.41,4.42-4.28,9.15-8.67,9.43-14.77,.15-4.15-.7-9.02-2.33-12.73l11.55-4.87h0Z"/><path class="i" d="M1061.29,70.93c-.05,1.42,1,3.55,1.72,5.37,.65,1.56,1.59,3.96,1.97,6.1,.15,.66,.45,2.57,.57,3.27,1.56,13.54,6.21,22.68,20.31,25.55,7.69,1.89,16.76,2.23,24.47,4.24,13.35,3.89,24.74,12.92,38.88,13.01,2.7-.07,5.39-.78,7.79-2.14-4.57,3.37-10.66,3.69-16.12,2.9-13.58-1.84-25.87-9.43-39.59-9.32-15.36-.52-31.28-.07-40.88-14.74-3.45-4.98-5.44-11.47-6.78-17-.2-.77-.69-2.44-.93-3.2-1.72-4.32-4.8-7.77-5.31-13.18l13.9-.86h0Z"/><path class="i" d="M1105.54,57.62c-7.41-.72-15.39,.14-22.85,.17-1.1,.14-2.21,.16-3.19,.18-.72,.02-1.4,.02-2.06,.01-1.05,.36-2.19,.52-3.33,.54-5.79,2.19-14.18,3.15-19.34,4.59-7.38,2.05-16.58,4.06-24.14,1.78-7.21-2.18-16.91-6.53-21.32-13-6.68-9.8-10.05-15.25-21.74-15.85-11.15-.57-21.56,5.51-33.65,4.91-2.47-.12-5-.38-7.56-.62-1.59,.28-3.21,.4-4.83,.4-4.65,.96-9.37,1.57-13.92,3.13-7.51,2.57-14.31,6.31-19.86,12.02-5.22,5.38-10.67,8.94-18.42,9.05-8.46,.11-16.98-1.79-25.21-3.51-4.54-.95-9.17-1.89-13.83-1.53-4.1,.32-8.12,1.15-12.2,1.65-8.33,1.04-15.06-.91-22.88-3.47-2.74-.9-5.45-1.63-8.16-2.24-.93,.05-1.85-.03-2.68-.3-.19,0-.36-.04-.52-.09-2.19-.09-4.48-.64-6.53-.6-4.25,.09-7.7,.55-11.53,2.42-4.15,3.56-8.08,7.08-13.36,8.93-10.94,3.84-23.8,4.59-35.06,1.8-1.77-.44-3.5-.86-5.21-1.25-.67-.04-1.34-.08-2.02-.14-4.88-.38-9.54-.32-14.38,.2-.92,.2-1.9,.34-2.94,.43-2.26,.2-4.5,.47-6.75,.59-.93,.2-1.9,.28-2.86,.24-.94,.19-1.9,.36-2.93,.49-5.32,.65-10.78,2.3-15.88,3.9-2.93,.92-3.8,2.57-4.51,4.67,.54,1.04,1.39,1.97,2.53,2.64,9.57-3.23,18.29-4.06,28.04-6.11,9.6-2.02,13.32-4.59,22.84,.12,7.39,3.66,14.57,6.48,23.17,4.35,3.9-.97,6.96-3.56,10.62-5.06,3.84-1.58,7.86-1.91,11.4-3.77,6.16-3.24,10.77-10.37,18.36-10.25,7.32,.11,16.63,4.93,23,8.55,8.76,4.98,16.59,2.85,25.81,.98,4.16-.84,8.63-3.21,12.92-2.38,3.68,.71,7.83,3.19,11.35,4.49,7.9,2.91,16.34,6.74,24.98,3.94,6.74-2.18,14.26-6.61,18.22-12.08,5.22-7.21,8.82-12.97,18.37-13.04,4.74-.04,9.21,.87,14.02,.56,4.65-.3,7.89-2.08,12.22-2.93,8.41-1.65,17.28-.29,25.34-3.4,9.49-3.66,13.07,.31,15.71,9.16,1.31,4.38,1.5,8.72,6.2,11.34,4.37,2.44,8.61,.84,13.46,1.53,8.08,1.15,16.19,4.33,24.12,6.32,8.09,2.03,14.78,.5,21.34-4.66,6.5-5.1,13.26-5.37,21.29-6.16,7.67-.75,14.36-.22,21.91,1.65,8.12,2.02,15.03,8.28,23.53,1.71l.56-3.37c-8.48,2.34-16.53-2.76-25.65-3.65Z"/><path class="i" d="M1070.96,63.09c-.72,.67-2.1,1.48-2.87,2.44-.89,1.11-1.52,2.46-2.05,3.77-.88,2.16-2.05,4.21-2.66,6.41-.51,1.84-.74,5.02-2.95,6.01-.82,.37-1.12-.06-1.59-.82-.82-1.32-1.11-2.98-1.45-4.47-.26-1.13-.88-2.25-1.08-3.36-.41-2.19,1.26-5.66,2.69-7.27,1.79-2.02,5.22-2.06,7.66-2.61,1.44-.32,2.71-.69,4.19-.61,.02,.18,.06,.43,.02,.62"/><path class="i" d="M911.91,57.44c1.92,2.95,4.45,4.63,7.33,7.21,2.07,1.83,4.12,4.02,5.77,6.33,5.94,8.23,13.43,18.39,10.52,29.39-2.09,8.2-8.8,12.76-8.87,20.56,0,3.32,.87,5.83,3.18,7.96,2.31,2.18,5.87,3.83,9.42,6.19,3.73,2.45,7.58,6.39,8.12,11.12,.71,6.72-3.85,11.5-5.05,17.6-1.54,12.35,.71,17.51-8.6,28.07-2.53,3.04-5,5.95-6.59,9.47-1.61,3.51-3.41,7.06-4.06,10.88-.61,3.83-.26,7.81-.59,11.73,.08-3.93-.53-7.83-.16-11.82,.17-2,.74-3.96,1.36-5.82,1.3-3.77,2.62-7.58,4.83-10.94,7.23-10.45,10.22-12.57,9.48-26.02-.02-3.02-.03-6.34,.85-9.36,1.44-5.44,6.09-12.06,1.17-16.76-5.45-5.47-15.58-6.64-19.2-14.99-3.07-6.6-1.79-14.35,1.63-20.37,1.71-3.29,3.6-6.28,4.28-9.65,1.08-6.18-3.63-12.2-7.55-17.22l-1.82-2.24c-.3-.35-.65-.82-.91-1.09-4.18-4.89-10.53-7.32-14.61-12.72l10.04-7.5h0Z"/><path class="i" d="M1013.69,58.08c-.95,1.98-1.42,2.85-1.34,5.12,.05,4.99-3.59,8.62-6.63,11.7-4.96,4.84-11.98,8.02-16.8,12.2-2.87,2.44-5.14,5.42-3.95,9.12,2.22,6.94,7.92,10.54,11.64,17.44,3.58,6.47,3.77,14.96-.12,21.36-9.43,14.19-28.55,9.34-42.51,13.71-3.79,1.12-7.39,2.94-9.71,5.92-2.34,3.07-3.02,7.32-3.49,11.17-.43,4.1-.64,8.33-1.12,12.5-.9,8.36-2.3,16.62-3.67,24.88,.9-8.33,1.82-16.65,2.23-24.99,.83-14.34-2.04-27.13,14.64-32.92,4.15-1.48,8.4-2.26,12.57-2.94,10.26-1.65,25.73-2.45,27.18-15.23,.96-8.23-4.57-12.97-9.98-18.97-3.17-3.64-6.19-8.29-6.63-13.38-.94-10.68,9.79-17.51,16.9-22.77,3.1-2.25,5.63-4.43,7.49-7.59,.4-.64,.58-1.22,.45-1.08-.06,.05-.09,.29-.12,.06-.56-3.13,.28-7.23,1.41-10.15l11.57,4.84h0Z"/><path class="i" d="M1009.31,51.03c5.89,11.08-1.14,22.16-9.02,29.28-3.57,3.48-7.82,6.41-11.24,9.77,.01-.01-.02,.02,.03-.05,0-.01,.04-.07,.03-.06l-.06,.1-.25,.42c-1.54,2.72-.32,4.98,1.53,7.65,2.38,3.32,5.43,6.37,7.91,9.97,6.5,9.7,8.24,24.23,2.25,34.51-3.8,6.12-9.01,8.78-12.15,14.35-4.45,7.49,2.66,14.08,6.19,20.41,3.25,5.8,4.53,12.66,4.23,19.17-.51,12.83-5.53,24.81-6.68,37.49,.52-20.44,11.22-42.15-4.62-59.55-2.82-3.57-5.73-7.72-5.83-12.67-.18-5,2.35-9.7,5.37-13.31,2.85-3.47,5.8-6.33,7.37-9.41,3.12-6.21,1.99-14.78-.86-21.04-2.53-5.6-7.3-8.88-11.21-13.7-3.67-4.08-6.35-10.73-4.37-16.48,.33-1.19,.85-2.31,1.39-3.39,.96-1.7,2.31-3,3.6-4.22,5.4-5.02,12.49-10.26,15.43-16.69,1.05-2.54,1.16-4.35-.11-6.68l11.08-5.87h0Z"/><path class="i" d="M1062.6,64.01c.43,1.4,1.33,4.29,1.78,5.69,2.33,6.55,.57,13.8,.12,20.43-.46,4.95-2.91,8.65-4.69,12.39-1.13,2.68-1.49,3.41-.33,5.92,2.77,4.83,7.81,8.33,10.27,13.87,3.86,9.33,6.31,19.19,6.15,29.38-.04,2.13-.31,4.45-.92,6.45-1,3.59-2.65,6.58-2.62,10.06,.46,8.85,5.21,17.16,10.96,23.81,9.71,11.11,23.73,19.9,29.36,34.21-6.94-14.02-21.09-21.1-31.95-31.75-7.02-6.94-12.9-15.83-14.16-25.89-.6-5.08,1.87-9.66,2.22-14.37,.09-8.68-2.65-17.46-6.31-25.46-1.52-3.94-4.7-6.49-7.85-9.6-3.39-3.31-6.79-7.73-6.99-13.16-.34-4.59,2.1-9.38,3.59-13.17,.73-2.02,.94-2.93,.69-4.41-.15-1.05-.45-3.17-.6-4.21-.44-2.5-.56-4.7-1.53-6.76-1.01-1.65-2.71-4.26-3.73-5.98l16.52-7.42h0Z"/><path class="i" d="M840.13,67.44c-.35,9.88-1.6,18.57-2.11,27.84-.09,3.71-.69,6.16,1.5,8.81,3.03,3.55,9.5,5.16,14.4,5.95,2.36,.41,4.52,.29,7.12,.25,11.97-.22,32.13-2.24,35.09,13.49,.36,2.48,.23,5.11-.37,7.51-.79,3.35-2.16,5.49-3.29,8.21-.17,.34-.29,.87-.34,1.19-.04,.89,.33,1.45,.92,2.31,.95,1.4,2.5,2.67,3.55,4.08,6.83,8.17,3.39,19.32-8.56,16.43-3.77-.81-7.22-3.4-10.39-4.61-5.16-1.56-9.7,.23-15.55,.09l.97-.2c-4.75,1.87-9.89,2.93-12.75,7.16-.76,1.28-.35,1.93-.38,3.59,.02,3.52-1.83,6.57-3.14,9.57-2.46,6.11-5.64,13.08-2.86,19.54,2.55,5.69,7.6,9.94,10.19,15.67,.61,1.46,1.01,3.02,1.05,4.59-.15-1.57-.66-3.06-1.36-4.45-6.91-11.29-16.32-13.9-12.11-29.62,.55-2.25,1.37-4.68,2.09-6.88,.71-2.11,1.82-4.37,2.15-6.42,.31-1.68-.04-2.42-.14-4.32-.04-1.59,.6-3.18,1.47-4.46,3.16-4.69,9.05-6.83,13.74-8.96l.37-.17,.6-.03c8.79-.87,14.28-3.59,23.19,1.25,2.14,.95,4.16,1.66,6.28,1.56,.5-.04,.84-.19,.83-.24,0-.06-.22,.14-.22,.13-.03-.01-.01-.29-.16-.71-.41-1.5-2.19-3.45-3.57-4.61-5.74-5.14-7.08-10.36-3.88-17.48,1.19-2.97,1.83-4.98,1.27-7.82-.37-1.41-1.05-1.76-2.21-2.36-5.11-1.82-10.57-1.08-16.2-.66-4.18,.4-8.96,1.05-13.27,.95-8.61-.67-16.44-1.89-23.84-7.7-4.19-3.25-7.36-8.97-7.95-14.3-.35-2.94-.32-4.55-.38-6.57-.17-9.2,.45-18.98,.12-27.59h18.11Z"/><path class="i" d="M759.12,75.21c1.01,3.25,.9,6.35,.8,9.62-.26,4.5-.94,8.99-2.56,13.27-1.59,3.69-3.84,7.15-3.88,10.92,0,.67,.04,1,.18,1.75,.47,2.42,.31,5.04-.86,7.28-1.49,2.89-4.3,4.67-7.19,5.72-4.14,1.36-8.08,2.1-10.79,5.6l-2.77,3.16c1.5-2.12,3.13-5.11,5.2-6.72,2.28-1.9,5.16-2.76,7.51-3.98,3.47-1.76,6.08-4.59,5.48-8.41-.13-1.02-.44-1.78-.72-2.84-.46-2.01-.37-4.18-.02-6.1,.45-2.77,1.65-5.87,2.53-8.29,1.46-4.89,1.7-10.27,1.21-15.35-.11-1.01-.33-2.33-.65-3.15l6.51-2.47h0Z"/><path class="e" d="M219.35,82.64c-12.4,5.03-20.39,4.76-22.16,19.17-1.32,10.8-4.64,18.91,6.35,26.86,9.05,6.54,28.69,5.28,38.3,1.44,9.52-3.81,12.87-10.47,12.47-20.52-.47-11.87-9.28-20.94-18.6-25.14-3.97-1.79-10.32-5.21-16.37-1.82"/><path class="e" d="M337.27,159.59c-7.7,.81-12.2,15.85-2.27,23.79,6.5,5.2,19.36,4.62,23.1-3.7,6.13-13.6-10.73-21.82-20.83-20.09"/><path class="e" d="M287.81,157c8.25,4.31,17.84,2.75,17.77-9.63-.06-11.65-15.01-11.46-23.3-11.54-9.32-.08-17.38,4.57-7.31,13.56,3.2,2.85,9.12,5.44,12.84,7.61"/><path class="e" d="M236.46,155.13c-7.51,7.25-27.32,27.32-11.79,36.53,4.34,2.57,19.56,2.72,24.29-.62,4.17-2.94,4.69-8.39,3.86-13.43-.84-5.11-4.22-8.46-5.23-13.52-1.01-5.08,2.34-8.59-1.65-10.82-4.39-2.46-11.21,1.56-11.72,5.58"/><path class="e" d="M282.01,98.21c-3.78-1.74-12.65,1.41-16.97,5.22-4.08,3.6-8.95,10.46-7.15,16.23,2.42,4.9,10.13,5.08,17.49,5.4,9.09,.39,18.87-2.93,27.7-1.31,8.94,1.64,19.22,6.87,28.6,2.03,15.41-7.97,.9-18.74-8.99-21.46-12.7-3.5-29.98,.8-40.68-6.1"/><path class="e" d="M281.01,181.54c-25.77,36.13,59.92,23.77,46.93-1.51-4.58-8.92-14.93-7.05-24.7-8.91-7-1.33-17.86-.64-19.85,4.01-.94,2-.91,4.19-2.38,6.41"/><path class="e" d="M181.15,155.26c-16.42,9.68-11.36,36.35,8.77,36.46,13.19,.07,32.19-11.74,26.96-26.19-3.26-9.02-16.47-17.79-25.51-18.09-7.7-.26-8.38,6.1-13.19,9.31"/><path class="e" d="M150.21,89.74c8.52,.32,16.71-2.4,21.78,6.12,3.38,5.67,7.23,14.94,7.24,21.43,.02,15.32-14.11,18.03-24.68,14.7-6.69-2.11-11.14-5.39-16.28-9.51-5.46-4.37-16.08-7.93-19.84-14.27-9.86-16.62,12.9-17.03,21.99-17.48,3.42-.17,6.18-1.09,9.8-.99"/><path class="e" d="M456.32,194.08c12.4-5.03,20.4-4.76,22.16-19.17,1.32-10.8,4.64-18.92-6.35-26.86-9.05-6.54-28.69-5.28-38.3-1.43-9.52,3.81-12.87,10.47-12.47,20.52,.47,11.87,9.28,20.94,18.6,25.14,3.97,1.79,10.32,5.21,16.37,1.82"/><path class="e" d="M387.87,119.72c-8.25-4.31-17.84-2.75-17.77,9.63,.06,11.65,15.01,11.46,23.3,11.54,9.32,.08,17.38-4.57,7.31-13.56-3.2-2.85-9.12-5.44-12.84-7.61"/><path class="e" d="M439.21,121.6c7.51-7.25,27.32-27.32,11.79-36.53-4.34-2.57-19.56-2.72-24.29,.62-4.17,2.94-4.69,8.39-3.86,13.43,.84,5.11,4.22,8.46,5.23,13.52,1.01,5.08-2.34,8.59,1.65,10.82,4.39,2.46,11.21-1.56,11.72-5.58"/><path class="e" d="M394.66,95.19c25.77-36.13-59.92-23.77-46.93,1.51,4.58,8.91,14.93,7.05,24.7,8.91,7,1.33,17.86,.64,19.85-4.01,.94-2,.91-4.19,2.38-6.4"/><path class="e" d="M494.52,121.47c16.42-9.69,11.36-36.35-8.77-36.46-13.19-.07-32.19,11.74-26.96,26.19,3.26,9.02,16.47,17.79,25.51,18.09,7.7,.26,8.38-6.11,13.19-9.31"/><path class="e" d="M525.47,186.99c-8.52-.32-16.71,2.4-21.78-6.12-3.38-5.67-7.23-14.94-7.24-21.43-.02-15.32,14.11-18.03,24.68-14.7,6.69,2.11,11.14,5.39,16.28,9.51,5.46,4.37,16.08,7.93,19.84,14.27,9.86,16.62-12.9,17.03-21.99,17.48-3.42,.17-6.18,1.09-9.8,.99"/><path class="e" d="M379.21,169.99c-2.15-.82-5.63-1.09-8.04-.8-1.72,.21-2.98,1.21-4.45,2.25-2.96,2.08-4.63,5.17-5.65,9.17-1.49,5.82,1.46,15.08,7.69,17.81,3.3,1.44,15.68,2.35,15.62-2.89-.02-1.42-.6-3.7-1.27-4.88-.8-1.39-1.22-3.32-1.37-5.08-.31-3.58-.03-7.39,.03-10.98,.24-2.87-.17-3.61-2.56-4.6"/><path class="h" d="M328.14,130.95c-7.25-.98-10.97-3.28-15.72,3.08-3.56,4.77-7.34,7.72-4.28,14.47,2.52,5.56,12.18,10.3,17.79,11.08,5.55,.78,8.95-1.47,11.49-6.35,3-5.76,1.28-12.46-2-16.98-1.4-1.93-3.49-5.27-7.27-5.31"/><path class="h" d="M187.36,97.39c-3.87-1.71-10.09,4.21-7.54,10.67,1.67,4.23,7.93,7.45,11.97,4.52,6.6-4.79,.83-13.27-4.43-15.19"/><path class="h" d="M263.58,126.14c-4.08-3.04-9.4-3.03-10.43,3.67-.97,6.3,7.11,7.49,11.58,8.24,5.02,.85,9.78-.97,5.12-6.69-1.48-1.82-4.45-3.73-6.27-5.22"/><path class="h" d="M188.08,125.36c-5.54,1.4-20.38,5.55-15.51,14.13,1.36,2.4,8.54,6.6,11.7,6.3,2.78-.26,4.5-2.71,5.48-5.32,.99-2.65,.3-5.16,1.19-7.83,.9-2.68,3.44-3.44,2.15-5.58-1.41-2.36-5.74-2.3-7.08-.54"/><path class="h" d="M325.46,84.97c-1.32-1.85-6.39-2.76-9.47-2.13-2.91,.6-7.09,2.54-7.8,5.76-.18,2.98,3.43,5.16,6.83,7.31,4.21,2.65,9.75,3.73,13.5,6.9,3.8,3.2,7.26,8.48,13.02,8.73,9.48,.4,5.51-8.65,1.56-12.62-5.08-5.11-14.44-7.76-17.65-13.94"/><path class="h" d="M387.78,155.53c-1.32-1.85-6.39-2.76-9.47-2.13-2.91,.6-7.09,2.53-7.8,5.76-.18,2.98,3.43,5.17,6.83,7.31,4.21,2.65,9.75,3.73,13.5,6.9,3.8,3.2,7.26,8.48,13.02,8.73,9.48,.4,5.51-8.65,1.56-12.63-5.08-5.11-14.44-7.76-17.65-13.94"/><path class="h" d="M254.16,144.59c-22.04,10.15,21.98,27.55,22.68,12.03,.25-5.47-5.17-7.4-9.3-10.93-2.96-2.54-8.3-5.15-10.51-3.49-.99,.69-1.57,1.74-2.87,2.39"/><path class="h" d="M219.67,136.78c-10.42,.14-15.26,14.17-5.74,19.68,6.24,3.61,18.46,3.17,19.91-5.11,.9-5.17-2.99-12.91-7.2-15.51-3.58-2.21-5.63,.62-8.79,.84"/><path class="h" d="M260.06,72.5c3.96,2.47,8.58,3.4,8.67,8.82,.06,3.61-.63,9.05-2.39,12.14-4.15,7.28-11.59,4.73-15.7,.27-2.6-2.82-3.82-5.58-5.14-8.93-1.4-3.56-5.48-8.13-5.54-12.16-.16-10.56,10.74-4.58,15.18-2.32,1.67,.85,3.23,1.16,4.92,2.19"/><path class="h" d="M220.86,195.17c2.23-3.6-2.76-10.58-9.52-8.95-4.43,1.07-8.48,6.82-6.14,11.22,3.83,7.2,13.03,2.67,15.66-2.27"/><path class="h" d="M318.75,171.51c4.78,1.74,9.87,.2,8.94-6.51-.88-6.31-8.96-5.13-13.46-4.57-5.06,.63-9.09,3.73-2.98,7.88,1.94,1.32,5.34,2.29,7.51,3.2"/><path class="h" d="M290.67,93.48c-.62-5.68-2.66-20.96-11.84-17.33-2.56,1.01-7.73,7.54-7.87,10.7-.13,2.79,2.06,4.84,4.51,6.17,2.49,1.35,5.07,1.01,7.59,2.27,2.53,1.26,2.93,3.89,5.23,2.91,2.53-1.07,3.08-5.37,1.52-6.93"/><path class="h" d="M276.72,175.69c-6.98-23.24-30.34,17.93-15.06,20.78,5.39,1.01,8.05-4.09,12.12-7.69,2.92-2.58,6.26-7.5,4.91-9.92-.55-1.07-1.51-1.79-1.97-3.17"/><path class="h" d="M169.64,162.84c1.31-10.34-11.9-17.09-18.69-8.42-4.45,5.68-5.71,17.84,2.29,20.42,4.99,1.61,13.2-1.16,16.36-4.97,2.69-3.24,.17-5.67,.39-8.82"/><path class="h" d="M145.86,150.98c-4.65,.28-8.96,2.2-12.18-2.17-2.14-2.91-4.73-7.75-5.08-11.28-.83-8.34,6.72-10.56,12.65-9.31,3.75,.79,6.35,2.34,9.36,4.31,3.2,2.09,9.17,3.46,11.56,6.71,6.25,8.52-6.11,9.95-11.03,10.68-1.85,.28-3.31,.93-5.28,1.06"/><path class="h" d="M347.54,145.78c7.25,.98,10.97,3.28,15.72-3.08,3.56-4.76,7.34-7.71,4.28-14.47-2.52-5.56-12.18-10.3-17.79-11.08-5.55-.78-8.95,1.47-11.49,6.35-3,5.76-1.28,12.46,2,16.98,1.4,1.93,3.49,5.27,7.27,5.31"/><path class="h" d="M488.32,179.34c3.87,1.71,10.09-4.21,7.54-10.67-1.67-4.23-7.93-7.45-11.97-4.52-6.6,4.79-.83,13.27,4.43,15.19"/><path class="h" d="M412.09,150.59c4.08,3.04,9.4,3.03,10.43-3.67,.97-6.3-7.11-7.49-11.58-8.24-5.02-.85-9.78,.96-5.12,6.69,1.48,1.82,4.45,3.73,6.27,5.22"/><path class="h" d="M487.59,151.37c5.54-1.4,20.38-5.55,15.51-14.13-1.36-2.4-8.54-6.6-11.7-6.3-2.78,.26-4.5,2.71-5.48,5.32-.99,2.65-.3,5.16-1.19,7.84-.9,2.68-3.44,3.44-2.15,5.58,1.41,2.36,5.74,2.3,7.08,.54"/><path class="h" d="M421.52,132.13c22.04-10.15-21.98-27.55-22.68-12.03-.25,5.47,5.17,7.4,9.3,10.93,2.96,2.54,8.3,5.15,10.51,3.49,.99-.69,1.57-1.74,2.87-2.39"/><path class="h" d="M456,139.95c10.42-.14,15.26-14.16,5.74-19.68-6.24-3.61-18.46-3.17-19.91,5.11-.9,5.17,2.99,12.91,7.2,15.51,3.58,2.21,5.63-.62,8.79-.84"/><path class="h" d="M415.61,204.23c-3.96-2.47-8.58-3.4-8.67-8.82-.06-3.61,.63-9.05,2.39-12.13,4.15-7.28,11.59-4.73,15.7-.27,2.6,2.82,3.82,5.58,5.14,8.93,1.4,3.56,5.48,8.13,5.54,12.16,.16,10.57-10.74,4.58-15.18,2.33-1.67-.85-3.23-1.16-4.92-2.19"/><path class="h" d="M454.82,81.56c-2.23,3.6,2.76,10.58,9.52,8.95,4.43-1.07,8.48-6.82,6.14-11.22-3.83-7.2-13.02-2.67-15.66,2.27"/><path class="h" d="M146.09,183.74c-2.23,3.6,2.76,10.58,9.52,8.95,4.43-1.07,8.48-6.82,6.14-11.22-3.83-7.2-13.03-2.67-15.66,2.27"/><path class="h" d="M398,156.44c-2.11,3.41,2.61,10.01,9.01,8.47,4.19-1.01,8.02-6.45,5.81-10.62-3.62-6.82-12.32-2.53-14.82,2.15"/><path class="h" d="M357.86,164.08c-1.8,2.9,2.22,8.52,7.66,7.2,3.56-.86,6.83-5.49,4.94-9.03-3.08-5.8-10.49-2.15-12.61,1.83"/><path class="h" d="M356.93,105.22c-4.78-1.74-9.87-.2-8.94,6.51,.88,6.31,8.96,5.13,13.46,4.57,5.06-.63,9.09-3.73,2.98-7.88-1.94-1.32-5.34-2.29-7.51-3.2"/><path class="h" d="M385.01,183.25c.62,5.68,2.66,20.96,11.84,17.33,2.56-1.01,7.73-7.54,7.87-10.7,.13-2.79-2.06-4.84-4.51-6.17-2.49-1.35-5.07-1.01-7.59-2.27-2.53-1.26-2.93-3.89-5.23-2.91-2.53,1.07-3.08,5.37-1.52,6.93"/><path class="h" d="M398.96,102.95c6.98,23.24,30.34-17.93,15.06-20.78-5.39-1.01-8.05,4.09-12.12,7.69-2.92,2.58-6.26,7.5-4.91,9.92,.55,1.07,1.51,1.8,1.97,3.17"/><path class="h" d="M506.04,113.89c-1.31,10.34,11.9,17.09,18.69,8.42,4.45-5.68,5.71-17.84-2.29-20.42-4.99-1.61-13.2,1.16-16.36,4.97-2.69,3.24-.17,5.67-.39,8.82"/><path class="h" d="M529.81,125.75c4.65-.28,8.96-2.2,12.18,2.17,2.14,2.91,4.73,7.74,5.08,11.28,.83,8.33-6.72,10.56-12.65,9.31-3.75-.79-6.35-2.34-9.36-4.31-3.2-2.09-9.17-3.46-11.56-6.71-6.25-8.52,6.11-9.95,11.03-10.68,1.85-.28,3.31-.92,5.28-1.06"/><path class="f" d="M239.01,141.72c1.62-1.78,2.94-2.35,2.11-4.82-.62-1.85-.71-3.42-3.11-3.86-1.97-.36-5.06,1.37-6.32,2.73-1.25,1.35-1.28,2.69-.43,4.29,1,1.89,3.13,2.68,4.96,2.63,.78-.02,2.08,.05,2.79-.97"/><path class="f" d="M227.16,164.01c1.19-.73,.75-3.51-1.47-4.03-1.46-.34-3.5,.75-3.46,2.39,.06,2.68,3.43,2.71,4.93,1.64"/><path class="f" d="M206.66,149.11c1.19-.73,.75-3.51-1.47-4.03-1.46-.34-3.5,.75-3.46,2.39,.06,2.68,3.43,2.71,4.93,1.64"/><path class="f" d="M257.6,178.42c.86-.52,.54-2.54-1.06-2.91-1.05-.25-2.52,.54-2.5,1.72,.04,1.94,2.48,1.95,3.56,1.19"/><path class="f" d="M239.86,150.56c1.19-.73,.75-3.51-1.47-4.03-1.46-.34-3.5,.75-3.46,2.39,.06,2.68,3.43,2.71,4.93,1.64"/><path class="f" d="M207.61,136.28c1.19-.73,.75-3.51-1.47-4.03-1.46-.34-3.5,.75-3.46,2.39,.06,2.68,3.43,2.71,4.93,1.64"/><path class="f" d="M175.66,157.36c1.19-.73,.75-3.51-1.47-4.03-1.46-.34-3.5,.75-3.46,2.39,.06,2.68,3.43,2.71,4.93,1.64"/><path class="f" d="M144.91,166.14c1.19-.73,.75-3.51-1.47-4.03-1.46-.34-3.5,.75-3.46,2.39,.06,2.68,3.43,2.71,4.93,1.64"/><path class="f" d="M183.59,124.2c1.29-1.06,1.71-2.75-.34-3.61-1.93-.81-2.95,1.67-3.55,3.03-.67,1.53-.47,3.2,1.72,2.16,.7-.33,1.54-1.12,2.16-1.58"/><path class="f" d="M281.42,172.4c.02-1.67-1.01-3.08-2.98-2.07-1.86,.95-.62,3.33,.04,4.67,.74,1.5,2.14,2.42,2.77,.07,.2-.74,.13-1.9,.18-2.68"/><path class="f" d="M220.71,161.95c.02-1.67-1-3.08-2.98-2.07-1.86,.95-.62,3.33,.04,4.67,.74,1.5,2.14,2.42,2.77,.07,.2-.74,.13-1.9,.18-2.68"/><path class="f" d="M194.77,96.19c-.73-1.5-2.28-2.3-3.6-.51-1.24,1.69,.94,3.26,2.13,4.16,1.34,1.01,3,1.2,2.5-1.17-.16-.75-.73-1.76-1.04-2.47"/><path class="f" d="M259.37,106.39c.66-1.76,2.31-6.54-.92-6.84-.9-.08-3.38,1.07-3.89,1.98-.45,.8-.11,1.72,.41,2.48,.53,.77,1.34,1.05,1.89,1.79,.56,.74,.29,1.57,1.11,1.63,.9,.06,1.7-1.12,1.47-1.81"/><path class="f" d="M250.86,143.53c.75-.01,1.94-1.21,2.35-2.16,.38-.9,.64-2.39-.1-3.19-.77-.61-2.04-.04-3.25,.48-1.5,.64-2.83,1.94-4.39,2.36-1.58,.43-3.65,.37-4.79,1.89-1.88,2.48,1.3,3.11,3.12,2.78,2.33-.42,4.8-2.45,7.07-2.16"/><path class="f" d="M250.93,132.54c1.38-7.85-11.55,.78-7.49,3.88,1.43,1.09,2.97-.01,4.69-.47,1.24-.33,2.94-1.28,2.91-2.19,0-.4-.18-.75-.11-1.22"/><path class="f" d="M200.96,134.72c1.91-2.84-.97-6.77-4.24-5.23-2.14,1.01-4.31,4.39-2.34,6.33,1.23,1.21,4.05,1.61,5.54,.96,1.27-.55,.89-1.64,1.42-2.53"/><path class="f" d="M193.73,120.11c1.91-2.84-.97-6.77-4.24-5.23-2.14,1.01-4.31,4.39-2.34,6.33,1.23,1.21,4.05,1.61,5.54,.96,1.27-.55,.89-1.64,1.42-2.53"/><path class="f" d="M202.76,144.59c-1.41,.61-2.52,1.68-4,.69-.99-.66-2.33-1.86-2.83-2.91-1.19-2.48,.89-4.02,2.86-4.29,1.25-.18,2.22,.01,3.38,.28,1.22,.29,3.22,.04,4.32,.78,2.89,1.93-.77,3.76-2.21,4.54-.54,.29-.92,.66-1.51,.92"/><path class="f" d="M143.88,159.22c-1.41,.61-2.52,1.68-4,.69-.99-.66-2.33-1.86-2.83-2.91-1.19-2.48,.89-4.02,2.86-4.29,1.25-.18,2.22,.01,3.38,.28,1.22,.29,3.22,.04,4.32,.78,2.89,1.93-.77,3.76-2.21,4.54-.54,.29-.92,.66-1.51,.92"/><path class="f" d="M168,189.15c-1.47-.42-3.02-.29-3.54-2-.35-1.13-.62-2.92-.35-4.05,.65-2.67,3.23-2.55,4.93-1.51,1.08,.65,1.71,1.41,2.44,2.35,.77,.99,2.47,2.07,2.85,3.34,1.01,3.32-2.98,2.42-4.58,2.11-.6-.12-1.13-.07-1.75-.24"/><path class="f" d="M263.61,170.05c-1.41,.61-2.52,1.68-4,.69-.99-.66-2.33-1.86-2.83-2.91-1.19-2.48,.89-4.01,2.86-4.29,1.25-.18,2.22,.01,3.38,.28,1.22,.29,3.22,.04,4.32,.78,2.89,1.93-.77,3.76-2.21,4.54-.54,.29-.92,.66-1.51,.92"/><path class="f" d="M288.87,132.64c1.74,1.66,2.29,2.98,4.78,2.21,1.86-.58,3.44-.64,3.92-3.03,.4-1.97-1.26-5.09-2.6-6.38-1.33-1.28-2.67-1.33-4.28-.52-1.91,.96-2.74,3.07-2.73,4.91,0,.78-.09,2.08,.92,2.81"/><path class="f" d="M282.38,133.33c.7,1.2,3.5,.82,4.06-1.39,.37-1.45-.68-3.51-2.32-3.51-2.68,0-2.78,3.37-1.74,4.9"/><path class="f" d="M312.84,131.19c1.52-.7,2.35-2.23,.58-3.58-1.66-1.27-3.28,.87-4.2,2.04-1.04,1.32-1.26,2.97,1.12,2.53,.76-.14,1.78-.7,2.49-.99"/><path class="f" d="M172.5,150.16c1.74,.69,6.49,2.45,6.85-.78,.1-.9-1.01-3.4-1.9-3.93-.79-.46-1.72-.15-2.48,.36-.78,.52-1.07,1.32-1.83,1.86-.76,.54-1.58,.25-1.65,1.07-.08,.9,1.09,1.72,1.78,1.51"/><path class="f" d="M163.8,178.42c1.74,.69,6.49,2.45,6.85-.78,.1-.9-1.01-3.4-1.9-3.93-.79-.47-1.72-.15-2.48,.36-.78,.52-1.07,1.32-1.83,1.86-.76,.54-1.58,.25-1.65,1.07-.08,.9,1.09,1.72,1.78,1.51"/><path class="f" d="M275.12,166.58c1.74,.69,6.49,2.45,6.85-.78,.1-.9-1.01-3.4-1.9-3.93-.79-.46-1.72-.15-2.48,.36-.78,.52-1.07,1.32-1.83,1.86-.76,.54-1.58,.25-1.65,1.07-.08,.9,1.09,1.72,1.78,1.51"/><path class="f" d="M249.19,194.84c1.74,.69,6.49,2.45,6.85-.78,.1-.9-1.01-3.4-1.9-3.93-.79-.46-1.72-.15-2.48,.36-.78,.52-1.07,1.32-1.83,1.86-.76,.54-1.58,.25-1.65,1.07-.08,.9,1.09,1.72,1.78,1.51"/><path class="f" d="M432.34,192.3c.2,1.86,.85,6.89,3.88,5.7,.84-.33,2.54-2.47,2.59-3.51,.04-.92-.67-1.59-1.48-2.03-.82-.45-1.67-.34-2.49-.75-.83-.42-.96-1.28-1.72-.96-.83,.35-1.02,1.76-.5,2.28"/><path class="f" d="M251.64,170.69c0,.75,1.17,1.97,2.11,2.39,.89,.4,2.38,.69,3.19-.03,.62-.76,.08-2.04-.41-3.26-.61-1.52-1.88-2.87-2.27-4.44-.39-1.58-.3-3.66-1.79-4.83-2.45-1.93-3.13,1.24-2.85,3.06,.37,2.34,2.35,4.85,2.02,7.11"/><path class="f" d="M219.11,169.11c-.33,.21-.33,1.06-.09,1.59,.23,.5,.77,1.24,1.45,1.39,.61,.06,.92-.53,1.24-1.09,.38-.69,.4-1.63,.91-2.23,.51-.61,1.46-1.15,1.3-2.13-.26-1.61-1.96-1.03-2.62-.4-.85,.81-1.05,2.38-2.19,2.86"/><path class="f" d="M355.16,157.26c-.72,.2-1.58,1.65-1.74,2.67-.15,.96-.03,2.47,.88,3.06,.9,.4,1.98-.47,3.03-1.27,1.3-.99,2.26-2.58,3.67-3.37,1.42-.8,3.44-1.27,4.18-3.01,1.21-2.87-2.03-2.69-3.71-1.92-2.15,.98-4.04,3.56-6.31,3.85"/><path class="f" d="M293.72,93.9c-.72,.2-1.58,1.65-1.74,2.67-.15,.97-.03,2.47,.88,3.06,.9,.4,1.98-.47,3.03-1.27,1.3-.99,2.26-2.58,3.67-3.37,1.42-.8,3.44-1.27,4.18-3.01,1.21-2.87-2.03-2.69-3.71-1.92-2.15,.98-4.04,3.56-6.31,3.85"/><path class="f" d="M168.17,143.94c7.82,1.54-.55-11.57-3.72-7.57-1.12,1.41-.05,2.97,.37,4.7,.3,1.24,1.22,2.97,2.13,2.95,.4,0,.75-.16,1.22-.09"/><path class="f" d="M146.04,177.15c7.82,1.54-.55-11.57-3.72-7.57-1.12,1.41-.05,2.97,.37,4.7,.3,1.24,1.22,2.97,2.13,2.95,.4,0,.75-.16,1.22-.09"/><path class="f" d="M275.18,133.07c2.8,1.97,6.79-.83,5.32-4.14-.97-2.16-4.31-4.4-6.28-2.47-1.24,1.2-1.69,4.01-1.07,5.52,.53,1.28,1.62,.92,2.5,1.47"/><path class="f" d="M300.87,133.29c-.58-1.42-1.63-2.56-.61-4.02,.68-.97,1.91-2.29,2.97-2.77,2.51-1.14,4,.97,4.23,2.95,.15,1.25-.06,2.22-.35,3.37-.31,1.22-.11,3.22-.87,4.3-1.99,2.85-3.74-.85-4.49-2.3-.28-.55-.64-.93-.89-1.53"/><path class="f" d="M175.81,90.31c-1.38,1.97-2.62,2.7-1.48,5.05,.85,1.76,1.14,3.31,3.57,3.44,2,.11,4.85-1.99,5.92-3.51,1.07-1.5,.92-2.83-.11-4.31-1.23-1.75-3.44-2.26-5.25-1.99-.77,.12-2.07,.22-2.65,1.32"/><path class="f" d="M278.7,156.59c-1.08,.87-.3,3.58,1.97,3.81,1.49,.15,3.37-1.19,3.13-2.81-.4-2.65-3.74-2.25-5.1-1.01"/><path class="f" d="M267.68,94.18c-1.08,.87-.3,3.58,1.97,3.81,1.49,.15,3.37-1.19,3.13-2.81-.4-2.65-3.74-2.25-5.1-1.01"/><path class="f" d="M165.56,150.35c.91,1.4,2.55,2,3.63,.05,1.01-1.83-1.34-3.11-2.64-3.85-1.45-.83-3.13-.81-2.34,1.48,.25,.73,.95,1.65,1.34,2.32"/><path class="f" d="M136.33,170.12c.91,1.4,2.55,2,3.63,.05,1.01-1.83-1.34-3.11-2.64-3.85-1.45-.83-3.13-.81-2.34,1.48,.25,.73,.95,1.65,1.34,2.32"/><path class="f" d="M305.98,152.91c-.43,1.83-1.47,6.78,1.77,6.66,.9-.03,3.22-1.49,3.61-2.46,.34-.85-.11-1.72-.72-2.4-.62-.69-1.46-.87-2.1-1.53-.65-.67-.48-1.52-1.3-1.47-.9,.05-1.54,1.33-1.23,1.98"/><path class="f" d="M284.43,163.44c-1.54,3.06,1.82,6.59,4.87,4.65,2-1.27,3.72-4.9,1.52-6.58-1.37-1.04-4.22-1.08-5.61-.25-1.19,.71-.67,1.74-1.09,2.69"/><path class="f" d="M297.26,162.41c1.32-.78,2.29-1.99,3.88-1.19,1.06,.53,2.55,1.55,3.18,2.53,1.49,2.31-.38,4.1-2.3,4.62-1.22,.33-2.21,.27-3.38,.15-1.25-.13-3.2,.37-4.38-.23-3.11-1.55,.29-3.83,1.62-4.78,.5-.36,.83-.77,1.38-1.1"/><path class="f" d="M436.67,135c-1.62,1.78-2.94,2.35-2.11,4.82,.62,1.85,.71,3.42,3.11,3.86,1.97,.36,5.06-1.37,6.32-2.73,1.25-1.35,1.28-2.69,.43-4.29-1-1.89-3.13-2.68-4.96-2.64-.78,.02-2.08-.05-2.79,.97"/><path class="f" d="M449.47,112.72c-1.19,.73-.75,3.51,1.47,4.03,1.46,.34,3.5-.75,3.46-2.39-.06-2.68-3.43-2.71-4.93-1.64"/><path class="f" d="M434.95,125.49c-1.19,.73-.75,3.51,1.47,4.03,1.46,.34,3.5-.75,3.46-2.39-.06-2.68-3.43-2.71-4.93-1.64"/><path class="f" d="M468.06,140.45c-1.19,.73-.75,3.51,1.47,4.03,1.46,.34,3.5-.75,3.46-2.39-.06-2.68-3.43-2.71-4.93-1.64"/><path class="f" d="M500.01,119.36c-1.19,.73-.75,3.51,1.47,4.03,1.46,.34,3.5-.75,3.46-2.39-.06-2.68-3.43-2.71-4.93-1.64"/><path class="f" d="M491.13,154.44c-1.29,1.06-1.71,2.75,.34,3.62,1.93,.81,2.95-1.67,3.55-3.03,.67-1.53,.47-3.19-1.72-2.16-.7,.33-1.54,1.12-2.16,1.58"/><path class="f" d="M452.71,107.17c-1.29,1.06-1.71,2.75,.34,3.62,1.93,.81,2.95-1.67,3.55-3.03,.67-1.53,.47-3.19-1.72-2.16-.7,.33-1.54,1.12-2.16,1.58"/><path class="f" d="M480.9,180.53c.73,1.5,2.28,2.31,3.6,.51,1.24-1.69-.94-3.26-2.13-4.16-1.34-1.01-3-1.2-2.51,1.18,.16,.75,.73,1.76,1.04,2.47"/><path class="f" d="M415.99,163.61c-1.4,.91-2.01,2.54-.07,3.63,1.83,1.03,3.12-1.33,3.87-2.61,.84-1.45,.83-3.12-1.47-2.34-.73,.25-1.66,.94-2.33,1.33"/><path class="f" d="M409.02,170.71c.73,1.5,2.28,2.3,3.6,.51,1.24-1.69-.94-3.26-2.13-4.16-1.34-1.01-3-1.2-2.5,1.17,.16,.75,.73,1.76,1.04,2.47"/><path class="f" d="M416.31,170.34c-.66,1.76-2.31,6.54,.92,6.84,.9,.08,3.38-1.07,3.89-1.98,.45-.8,.11-1.72-.41-2.48-.53-.76-1.34-1.05-1.89-1.79-.56-.75-.29-1.57-1.11-1.63-.9-.06-1.7,1.12-1.47,1.81"/><path class="f" d="M351.36,149.64c-.66,1.76-2.31,6.54,.92,6.83,.9,.08,3.38-1.07,3.89-1.98,.45-.8,.11-1.72-.41-2.48-.53-.76-1.34-1.05-1.89-1.79-.56-.74-.29-1.57-1.11-1.63-.9-.06-1.7,1.12-1.47,1.81"/><path class="f" d="M424.81,133.19c-.75,.01-1.94,1.21-2.35,2.16-.38,.9-.64,2.39,.1,3.19,.77,.61,2.04,.04,3.25-.48,1.5-.64,2.83-1.94,4.39-2.36,1.58-.43,3.65-.37,4.79-1.89,1.88-2.48-1.3-3.11-3.12-2.78-2.33,.42-4.8,2.45-7.07,2.16"/><path class="f" d="M424.74,144.18c-1.38,7.85,11.55-.78,7.49-3.88-1.43-1.09-2.97,.01-4.69,.47-1.24,.33-2.94,1.28-2.91,2.19,0,.4,.18,.75,.11,1.22"/><path class="f" d="M474.71,142.01c-1.91,2.84,.97,6.77,4.24,5.23,2.14-1.01,4.31-4.39,2.34-6.33-1.23-1.21-4.05-1.61-5.54-.96-1.27,.55-.89,1.64-1.42,2.53"/><path class="f" d="M481.94,156.61c-1.91,2.84,.97,6.77,4.24,5.23,2.14-1.01,4.31-4.39,2.34-6.33-1.23-1.21-4.05-1.61-5.54-.96-1.27,.55-.89,1.64-1.42,2.53"/><path class="f" d="M472.91,131.18c1.41-.61,2.52-1.68,4-.69,.99,.66,2.33,1.86,2.83,2.91,1.19,2.48-.89,4.02-2.86,4.29-1.25,.17-2.22-.01-3.38-.28-1.22-.29-3.22-.04-4.32-.78-2.89-1.93,.77-3.76,2.21-4.54,.54-.29,.92-.66,1.51-.92"/><path class="f" d="M520.81,118.5c1.14-1.02,1.87-2.39,3.58-1.92,1.14,.32,2.79,1.04,3.6,1.88,1.91,1.98,.41,4.09-1.37,4.97-1.13,.56-2.11,.69-3.29,.79-1.25,.11-3.07,.97-4.35,.62-3.35-.93-.45-3.81,.68-5,.42-.45,.67-.91,1.15-1.35"/><path class="f" d="M386.81,144.09c-1.74-1.66-2.29-2.98-4.78-2.21-1.87,.58-3.44,.64-3.92,3.03-.4,1.97,1.26,5.09,2.6,6.37,1.33,1.28,2.67,1.33,4.28,.52,1.91-.96,2.74-3.07,2.73-4.91,0-.78,.09-2.08-.92-2.81"/><path class="f" d="M348.27,150.29c-1.74-1.66-2.29-2.98-4.78-2.21-1.86,.58-3.44,.64-3.92,3.03-.4,1.96,1.26,5.09,2.6,6.37,1.33,1.28,2.67,1.33,4.28,.52,1.91-.96,2.74-3.07,2.73-4.91,0-.78,.09-2.07-.92-2.81"/><path class="f" d="M393.29,143.4c-.7-1.2-3.5-.82-4.06,1.39-.37,1.45,.68,3.51,2.32,3.51,2.68,0,2.78-3.37,1.74-4.9"/><path class="f" d="M400.59,146.73c-.7-1.2-3.5-.82-4.06,1.39-.37,1.45,.68,3.51,2.32,3.51,2.68,0,2.78-3.37,1.74-4.9"/><path class="f" d="M419.26,154.36c-.7-1.2-3.5-.82-4.06,1.39-.37,1.45,.68,3.51,2.32,3.51,2.68,0,2.78-3.37,1.74-4.9"/><path class="f" d="M417.06,107.91c-.7-1.2-3.5-.82-4.06,1.39-.37,1.45,.68,3.51,2.32,3.51,2.68,0,2.78-3.37,1.74-4.9"/><path class="f" d="M362.83,145.54c-1.52,.7-2.35,2.23-.58,3.58,1.66,1.27,3.28-.87,4.2-2.04,1.03-1.32,1.26-2.97-1.12-2.53-.76,.14-1.77,.7-2.49,.99"/><path class="f" d="M503.17,126.57c-1.74-.69-6.49-2.45-6.85,.78-.1,.9,1.01,3.4,1.9,3.93,.79,.47,1.72,.15,2.48-.36,.78-.52,1.07-1.32,1.83-1.86,.76-.54,1.58-.25,1.65-1.07,.08-.9-1.09-1.72-1.78-1.51"/><path class="f" d="M400.56,110.15c-1.74-.69-6.49-2.45-6.85,.78-.1,.9,1.01,3.4,1.9,3.93,.79,.46,1.72,.15,2.48-.36,.78-.52,1.07-1.32,1.83-1.86,.76-.54,1.58-.25,1.65-1.07,.08-.9-1.09-1.72-1.78-1.51"/><path class="f" d="M423.07,106.04c0-.75-1.17-1.97-2.11-2.39-.89-.4-2.38-.69-3.19,.03-.62,.76-.08,2.03,.41,3.26,.61,1.52,1.88,2.87,2.27,4.44,.4,1.58,.3,3.65,1.79,4.83,2.45,1.93,3.13-1.24,2.85-3.06-.37-2.34-2.35-4.85-2.02-7.11"/><path class="f" d="M507.5,132.79c-7.82-1.54,.55,11.57,3.72,7.57,1.12-1.41,.05-2.97-.37-4.7-.3-1.24-1.22-2.97-2.13-2.95-.4,0-.75,.16-1.22,.09"/><path class="f" d="M394.47,150.9c-2.8-1.97-6.79,.83-5.32,4.14,.97,2.16,4.31,4.4,6.28,2.47,1.23-1.2,1.69-4.01,1.07-5.52-.53-1.28-1.62-.92-2.5-1.47"/><path class="f" d="M339.01,188.71c-1.74-1.66-2.29-2.99-4.78-2.21-1.86,.58-3.44,.64-3.92,3.03-.4,1.96,1.26,5.09,2.6,6.37,1.33,1.28,2.67,1.33,4.28,.52,1.91-.96,2.74-3.07,2.73-4.91,0-.78,.09-2.08-.92-2.81"/><path class="f" d="M345.49,188.98c-.7-1.2-3.5-.82-4.06,1.39-.37,1.45,.68,3.51,2.32,3.51,2.68,0,2.78-3.37,1.74-4.9"/><path class="f" d="M351.84,192.31c-.7-1.2-3.5-.82-4.06,1.39-.37,1.45,.68,3.51,2.32,3.51,2.68,0,2.78-3.37,1.74-4.9"/><path class="f" d="M358.04,186.37c-2.8-1.97-6.79,.83-5.32,4.14,.97,2.16,4.31,4.4,6.28,2.47,1.23-1.2,1.69-4.01,1.07-5.52-.53-1.28-1.62-.92-2.5-1.47"/><path class="f" d="M374.8,143.44c.58,1.42,1.63,2.56,.61,4.02-.68,.97-1.91,2.29-2.97,2.77-2.51,1.14-4-.97-4.23-2.95-.15-1.25,.06-2.22,.35-3.37,.31-1.22,.11-3.22,.86-4.3,1.99-2.85,3.74,.85,4.49,2.3,.28,.55,.64,.93,.89,1.53"/><path class="f" d="M522.97,91.82c-1.74-1.66-2.29-2.98-4.78-2.21-1.87,.58-3.44,.64-3.92,3.03-.4,1.97,1.26,5.09,2.6,6.37,1.33,1.28,2.67,1.33,4.28,.52,1.91-.96,2.74-3.07,2.73-4.91,0-.78,.09-2.08-.92-2.81"/><path class="f" d="M511.92,95c.58,1.42,1.63,2.56,.61,4.02-.68,.97-1.91,2.29-2.97,2.77-2.51,1.14-4-.97-4.23-2.95-.15-1.25,.06-2.22,.35-3.37,.31-1.22,.11-3.22,.87-4.3,1.99-2.85,3.74,.85,4.49,2.3,.28,.55,.64,.93,.89,1.53"/><path class="f" d="M307.8,101.06c-1.52-.15-3.02,.24-3.84-1.34-.54-1.05-1.13-2.76-1.05-3.92,.17-2.75,2.73-3.07,4.59-2.36,1.18,.45,1.94,1.09,2.81,1.89,.93,.85,2.79,1.61,3.4,2.78,1.58,3.09-2.51,2.91-4.14,2.88-.61,0-1.12,.13-1.77,.07"/><path class="f" d="M499.87,186.42c1.38-1.97,2.62-2.7,1.48-5.05-.85-1.76-1.14-3.31-3.57-3.44-2-.11-4.85,1.99-5.92,3.51-1.07,1.5-.92,2.83,.11,4.31,1.23,1.75,3.44,2.26,5.25,1.99,.77-.12,2.07-.22,2.65-1.32"/><path class="f" d="M396.98,120.14c1.08-.87,.3-3.58-1.97-3.81-1.49-.15-3.37,1.19-3.13,2.81,.4,2.65,3.74,2.25,5.1,1.01"/><path class="f" d="M510.11,126.38c-.91-1.4-2.55-2-3.63-.05-1.01,1.83,1.34,3.11,2.64,3.85,1.45,.83,3.13,.81,2.34-1.48-.25-.73-.95-1.65-1.34-2.32"/><path class="f" d="M511.26,85.5c-.91-1.4-2.55-2-3.63-.05-1.01,1.83,1.34,3.11,2.64,3.86,1.45,.83,3.13,.81,2.34-1.48-.25-.73-.95-1.65-1.34-2.32"/><path class="f" d="M369.69,123.81c.43-1.83,1.47-6.78-1.77-6.66-.9,.03-3.22,1.49-3.61,2.46-.34,.85,.11,1.72,.72,2.4,.62,.69,1.46,.87,2.1,1.53,.65,.67,.48,1.53,1.3,1.47,.9-.06,1.54-1.33,1.23-1.98"/><path class="f" d="M391.24,113.29c1.54-3.06-1.82-6.6-4.87-4.65-2,1.27-3.72,4.9-1.52,6.58,1.37,1.05,4.22,1.08,5.61,.25,1.19-.71,.67-1.74,1.09-2.69"/><path class="f" d="M378.42,114.31c-1.32,.78-2.29,1.99-3.88,1.19-1.06-.53-2.55-1.55-3.18-2.53-1.49-2.31,.38-4.1,2.3-4.62,1.22-.33,2.21-.27,3.38-.15,1.25,.13,3.2-.37,4.38,.22,3.11,1.55-.29,3.83-1.62,4.78-.5,.36-.83,.77-1.38,1.1"/><path class="f" d="M198.14,90.14c1.54-3.06-1.82-6.6-4.87-4.65-2,1.27-3.72,4.9-1.52,6.58,1.37,1.04,4.22,1.08,5.61,.25,1.19-.71,.67-1.74,1.09-2.69"/><path class="f" d="M482.51,81.76c-1.32,.78-2.29,1.99-3.88,1.2-1.06-.53-2.55-1.55-3.18-2.53-1.49-2.31,.38-4.1,2.3-4.62,1.22-.33,2.21-.27,3.38-.15,1.25,.13,3.2-.37,4.38,.23,3.11,1.55-.29,3.83-1.62,4.78-.5,.36-.83,.77-1.38,1.1"/><path class="j" d="M554.41,16.7c-9.62-.43-19.55-.99-29.14-2.28-8.82-1.18-17.02-3.65-25.81-5.37-7.3-1.43-14.94-1.01-22.44-.94-19.67,.19-39.78,2.75-59.44-.12-8.51-1.24-17.17-1.87-25.65-3.08-8.01-1.14-15.39-3.95-23.59-4.3-14.38-.6-28.26,1.35-42.26,2.14-1.81,.1-3.67,.25-5.54,.38-1.1-.25-2.23-.44-3.39-.54-5.03-.45-10.2-.55-15.44-.46-1.27-.15-2.53-.16-3.7,.1-16.38,.56-33.41,2.77-49.42,2.77-21.06,0-38.81-6.14-60.33-4.82-14.19,.87-27.96,5.74-42.02,7.49-12.44,1.55-20.9-3.59-32.57-5.08V95.34c18.57-10.4,41.42-6.48,61.34-9.74,9.11-1.49,14.08-4.14,23.51-1.37,9.62,2.82,16.67-6.73,33.93-5.13,8.91,1.52,3.61-14.54,12.57-14.4,7.96,.12,14.95,6.59,22.76,9.2,3.65,1.22,11.01,.7,14.56,.7,4.16,0,7.8,4.55,8.33,8.56,1.43,10.92,12.63-2.32,21.93-3.25,9.1-.9,15.23,7.17,23.82,6.95,8.5-.22,13.9-7.07,21.67-10.53,7.33-3.26,18.5-7.16,26.42-6.38,9.05,.88,16.62,8.33,25.35,9.69,15.28,2.38,29.68,4.97,40.12-.9,11.36-6.39,37.26-9.44,39.07-2.54,2.82,10.76,10.47,7.68,19.13,5.83,7.22-1.54,16.78,6.03,17.63,10.5,1.61,8.43,1.36,12.44,12.62,16.28,3.79,1.29,10.37,1.93,15.97,1.29V16.7Z"/></g></g></g></svg>