<svg xmlns="http://www.w3.org/2000/svg" viewBox="0 0 1264 496.79"><defs><style>.cls-1,.cls-17{font-size:40px;}.cls-1,.cls-17,.cls-21{fill:#5c5052;}.cls-1{font-family:Acre-Light, Acre;font-weight:300;}.cls-2{letter-spacing:-0.01em;}.cls-3{letter-spacing:-0.02em;}.cls-4{letter-spacing:-0.02em;}.cls-5{letter-spacing:0em;}.cls-6{letter-spacing:-0.02em;}.cls-7{letter-spacing:-0.01em;}.cls-8{letter-spacing:-0.02em;}.cls-9{letter-spacing:-0.02em;}.cls-10{letter-spacing:-0.02em;}.cls-11{letter-spacing:0em;}.cls-12{letter-spacing:0em;}.cls-13{letter-spacing:-0.01em;}.cls-14{letter-spacing:-0.01em;}.cls-15{letter-spacing:-0.01em;}.cls-16{letter-spacing:-0.03em;}.cls-17{font-family:Acre-Medium, Acre;font-weight:500;}.cls-18{letter-spacing:-0.01em;}.cls-19{letter-spacing:-0.03em;}.cls-20{fill:#ffc301;}.cls-22{fill:#e77243;}.cls-23{fill:#336daa;}.cls-24{fill:#336da7;}.cls-25{fill:#e47243;}.cls-26{fill:#ffc001;}</style></defs><g id="Layer_2" data-name="Layer 2"><g id="Layer_12" data-name="Layer 12"><text class="cls-1" transform="translate(56.27 368.74)"><tspan class="cls-2">w</tspan><tspan x="31.24" y="0">ell-</tspan><tspan class="cls-3" x="88.6" y="0">s</tspan><tspan x="104.24" y="0">tructu</tspan><tspan class="cls-4" x="205.28" y="0">r</tspan><tspan x="216.64" y="0">ed </tspan><tspan class="cls-5" x="277.71" y="0">s</tspan><tspan x="293.91" y="0">oils all</tspan><tspan class="cls-2" x="409.95" y="0">o</tspan><tspan class="cls-6" x="433.43" y="0">w</tspan><tspan class="cls-7" x="464.27" y="0"> </tspan><tspan class="cls-8" x="477.75" y="0">w</tspan><tspan x="508.99" y="0">a</tspan><tspan class="cls-9" x="533.67" y="0">t</tspan><tspan x="543.95" y="0">er </tspan><tspan class="cls-10" x="592.51" y="0">t</tspan><tspan x="602.79" y="0">o infilt</tspan><tspan class="cls-4" x="713.23" y="0">r</tspan><tspan class="cls-11" x="724.59" y="0">a</tspan><tspan class="cls-10" x="749.27" y="0">t</tspan><tspan class="cls-12" x="759.55" y="0">e</tspan><tspan x="781.95" y="0">, </tspan><tspan class="cls-4" x="802.39" y="0">r</tspan><tspan x="813.75" y="0">educi</tspan><tspan class="cls-8" x="914.98" y="0">n</tspan><tspan x="937.18" y="0">g t</tspan><tspan class="cls-13" x="986.74" y="0">h</tspan><tspan x="1008.98" y="0">e risk </tspan><tspan class="cls-14" x="1116.82" y="0">o</tspan><tspan x="1140.38" y="0">f </tspan><tspan x="48.92" y="53.59">floodi</tspan><tspan class="cls-2" x="151.92" y="53.59">n</tspan><tspan x="174.12" y="53.59">g, a</tspan><tspan class="cls-2" x="243.92" y="53.59">n</tspan><tspan x="266.11" y="53.59">d i</tspan><tspan class="cls-2" x="314.63" y="53.59">n</tspan><tspan x="336.83" y="53.59">c</tspan><tspan class="cls-4" x="357.95" y="53.59">r</tspan><tspan x="369.31" y="53.59">easi</tspan><tspan class="cls-2" x="442.95" y="53.59">n</tspan><tspan x="465.15" y="53.59">g t</tspan><tspan class="cls-13" x="514.71" y="53.59">h</tspan><tspan x="536.95" y="53.59">e </tspan><tspan class="cls-4" x="573.35" y="53.59">r</tspan><tspan class="cls-15" x="584.71" y="53.59">e</tspan><tspan x="606.79" y="53.59">turn </tspan><tspan class="cls-14" x="689.43" y="53.59">o</tspan><tspan x="712.99" y="53.59">f</tspan><tspan class="cls-7" x="724.07" y="53.59"> </tspan><tspan class="cls-8" x="737.55" y="53.59">w</tspan><tspan x="768.78" y="53.59">a</tspan><tspan class="cls-4" x="793.46" y="53.59">t</tspan><tspan x="803.74" y="53.59">er </tspan><tspan class="cls-4" x="852.3" y="53.59">t</tspan><tspan x="862.58" y="53.59">o t</tspan><tspan class="cls-8" x="911.54" y="53.59">h</tspan><tspan x="933.78" y="53.59">e aqui</tspan><tspan class="cls-9" x="1052.34" y="53.59">f</tspan><tspan x="1062.62" y="53.59">e</tspan><tspan class="cls-16" x="1085.22" y="53.59">r</tspan><tspan x="1096.26" y="53.59">.</tspan></text></g><g id="Healthy_Structure_Agg" data-name="Healthy Structure_Agg"><g id="Layer_119" data-name="Layer 119"><text class="cls-17" transform="translate(167.97 258.8)">poor<tspan class="cls-18" x="85.48" y="0">l</tspan><tspan class="cls-19" x="94.64" y="0">y</tspan><tspan class="cls-7" x="114.44" y="0">-</tspan><tspan x="130.44" y="0">agg</tspan><tspan class="cls-4" x="204.4" y="0">r</tspan><tspan x="216.72" y="0">ega</tspan><tspan class="cls-4" x="288.56" y="0">t</tspan><tspan x="300" y="0">ed</tspan></text><path class="cls-20" d="M219.35,82.64c-12.4,5-20.39,4.76-22.16,19.18-1.32,10.8-4.64,18.91,6.35,26.86,9.05,6.54,28.7,5.28,38.31,1.43s12.87-10.47,12.47-20.51c-.47-11.88-9.29-20.95-18.6-25.14-4-1.79-10.32-5.21-16.37-1.82"/><path class="cls-20" d="M337.27,159.59c-7.7.81-12.2,15.85-2.27,23.79,6.5,5.2,19.35,4.62,23.1-3.7,6.12-13.6-10.73-21.82-20.83-20.09"/><path class="cls-20" d="M287.81,157c8.25,4.31,17.84,2.75,17.77-9.63-.06-11.65-15-11.47-23.3-11.54-9.32-.08-17.38,4.57-7.31,13.56,3.2,2.85,9.12,5.44,12.84,7.61"/><path class="cls-20" d="M236.46,155.13c-7.51,7.25-27.32,27.32-11.79,36.53,4.34,2.57,19.57,2.72,24.3-.62,4.17-2.94,4.69-8.39,3.86-13.42s-4.22-8.47-5.22-13.52,2.33-8.59-1.66-10.83c-4.38-2.45-11.21,1.57-11.72,5.58"/><path class="cls-20" d="M282,98.21c-3.78-1.73-12.65,1.42-17,5.23-4.08,3.59-8.95,10.46-7.16,16.23,2.42,4.9,10.14,5.08,17.49,5.39,9.09.39,18.87-2.93,27.71-1.31s19.22,6.87,28.6,2c15.41-8,.9-18.74-9-21.47-12.7-3.49-30,.81-40.69-6.1"/><path class="cls-20" d="M281,181.54c-25.77,36.13,59.92,23.78,46.93-1.5-4.58-8.92-14.94-7-24.7-8.91-7-1.34-17.86-.64-19.85,4-.94,2-.91,4.19-2.38,6.4"/><path class="cls-20" d="M181.15,155.26c-16.42,9.68-11.36,36.35,8.77,36.45,13.19.07,32.19-11.73,27-26.19-3.26-9-16.47-17.79-25.51-18.09-7.7-.26-8.38,6.1-13.19,9.31"/><path class="cls-20" d="M150.21,89.74c8.51.33,16.7-2.4,21.77,6.12,3.38,5.67,7.23,14.94,7.24,21.43,0,15.32-14.1,18-24.68,14.7-6.69-2.11-11.14-5.39-16.28-9.51-5.46-4.37-16.08-7.93-19.84-14.27-9.86-16.62,12.9-17,22-17.47,3.42-.17,6.18-1.1,9.8-1"/><path class="cls-20" d="M456.32,194.08c12.4-5,20.4-4.75,22.16-19.17,1.32-10.8,4.64-18.91-6.35-26.86-9.05-6.54-28.69-5.28-38.31-1.43S421,157.09,421.36,167.13c.47,11.88,9.28,20.94,18.59,25.14,4,1.79,10.33,5.2,16.37,1.81"/><path class="cls-20" d="M387.87,119.72c-8.25-4.31-17.85-2.75-17.78,9.64.06,11.65,15,11.46,23.3,11.54,9.32.08,17.39-4.57,7.31-13.56-3.2-2.85-9.12-5.44-12.83-7.62"/><path class="cls-20" d="M439.21,121.6c7.51-7.26,27.32-27.32,11.79-36.53-4.34-2.58-19.56-2.72-24.29.61-4.17,2.94-4.69,8.39-3.87,13.43s4.22,8.47,5.23,13.52-2.34,8.59,1.65,10.82c4.39,2.46,11.21-1.56,11.72-5.57"/><path class="cls-20" d="M394.66,95.19c25.78-36.14-59.91-23.78-46.92,1.5,4.58,8.92,14.93,7,24.7,8.91,7,1.34,17.85.64,19.85-4,.93-2,.9-4.19,2.37-6.4"/><path class="cls-20" d="M494.52,121.47c16.42-9.68,11.36-36.35-8.77-36.46-13.18-.06-32.19,11.74-27,26.2,3.27,9,16.48,17.78,25.52,18.09,7.69.26,8.38-6.11,13.19-9.32"/><path class="cls-20" d="M525.47,187c-8.52-.33-16.71,2.39-21.78-6.12-3.38-5.68-7.23-14.94-7.24-21.44,0-15.32,14.11-18,24.68-14.69,6.69,2.11,11.14,5.39,16.28,9.5,5.46,4.38,16.08,7.94,19.84,14.27,9.86,16.63-12.9,17-22,17.48-3.41.17-6.18,1.1-9.79,1"/><path class="cls-20" d="M379.21,170a19.29,19.29,0,0,0-8-.79c-1.72.21-3,1.21-4.45,2.24-3,2.08-4.63,5.17-5.65,9.17-1.49,5.82,1.46,15.08,7.69,17.8,3.31,1.45,15.68,2.35,15.63-2.88a12.22,12.22,0,0,0-1.28-4.88,13.09,13.09,0,0,1-1.37-5.08,108.71,108.71,0,0,1,0-11c.24-2.87-.17-3.61-2.57-4.6"/><path class="cls-21" d="M328.14,131c-7.25-1-11-3.28-15.73,3.08-3.55,4.77-7.33,7.72-4.27,14.47,2.51,5.56,12.18,10.3,17.78,11.08s8.95-1.47,11.49-6.35c3-5.76,1.28-12.45-2-17-1.4-1.93-3.48-5.28-7.27-5.31"/><path class="cls-21" d="M187.36,97.39c-3.88-1.71-10.1,4.21-7.54,10.67,1.67,4.24,7.93,7.45,12,4.52,6.6-4.79.83-13.27-4.43-15.19"/><path class="cls-21" d="M263.58,126.14c-4.08-3-9.39-3-10.43,3.66-1,6.3,7.11,7.49,11.59,8.25,5,.85,9.77-1,5.11-6.69-1.48-1.82-4.45-3.73-6.27-5.22"/><path class="cls-21" d="M188.08,125.36c-5.53,1.4-20.38,5.54-15.51,14.13,1.36,2.4,8.54,6.61,11.69,6.31,2.78-.27,4.51-2.71,5.48-5.32s.3-5.17,1.19-7.84,3.44-3.44,2.16-5.58c-1.42-2.36-5.75-2.31-7.08-.54"/><path class="cls-21" d="M325.46,85c-1.32-1.85-6.39-2.77-9.47-2.13-2.91.6-7.09,2.54-7.8,5.76-.18,3,3.43,5.16,6.83,7.31,4.21,2.65,9.75,3.73,13.51,6.9s7.25,8.48,13,8.73c9.48.4,5.51-8.65,1.56-12.63C338,93.8,328.67,91.15,325.46,85"/><path class="cls-21" d="M387.78,155.53c-1.32-1.85-6.39-2.76-9.47-2.13-2.91.6-7.09,2.54-7.8,5.76-.18,3,3.43,5.17,6.83,7.31,4.21,2.65,9.75,3.73,13.51,6.9s7.25,8.48,13,8.73c9.48.4,5.51-8.65,1.56-12.63-5.08-5.1-14.44-7.75-17.65-13.94"/><path class="cls-21" d="M254.16,144.59c-22,10.15,22,27.55,22.68,12,.24-5.47-5.18-7.4-9.31-10.93-3-2.54-8.3-5.16-10.51-3.49-1,.69-1.56,1.74-2.86,2.39"/><path class="cls-21" d="M219.67,136.78c-10.42.14-15.26,14.16-5.74,19.68,6.24,3.61,18.47,3.17,19.91-5.11.9-5.17-3-12.91-7.2-15.51-3.58-2.21-5.63.62-8.78.84"/><path class="cls-21" d="M260.06,72.5c4,2.47,8.58,3.4,8.67,8.82.07,3.61-.62,9.05-2.38,12.13-4.15,7.28-11.59,4.73-15.7.27a26,26,0,0,1-5.15-8.93c-1.4-3.55-5.47-8.13-5.54-12.16-.16-10.56,10.75-4.57,15.18-2.32,1.67.85,3.23,1.16,4.92,2.19"/><path class="cls-21" d="M220.86,195.17c2.23-3.6-2.77-10.58-9.52-8.95-4.43,1.07-8.48,6.82-6.14,11.22,3.82,7.21,13,2.68,15.66-2.27"/><path class="cls-21" d="M318.75,171.51c4.78,1.74,9.87.2,8.93-6.5-.87-6.31-9-5.13-13.46-4.57-5.05.62-9.09,3.73-3,7.87,1.94,1.32,5.34,2.29,7.51,3.2"/><path class="cls-21" d="M290.67,93.48c-.62-5.68-2.66-21-11.84-17.33-2.56,1-7.73,7.54-7.87,10.71-.13,2.78,2.05,4.83,4.51,6.16s5.07,1,7.59,2.27,2.93,3.89,5.23,2.91c2.53-1.07,3.08-5.36,1.52-6.93"/><path class="cls-21" d="M276.72,175.69c-7-23.24-30.34,17.93-15.07,20.79,5.39,1,8.05-4.1,12.12-7.69,2.93-2.58,6.26-7.51,4.92-9.93-.55-1.07-1.51-1.79-2-3.17"/><path class="cls-21" d="M169.64,162.84c1.31-10.34-11.91-17.09-18.69-8.42-4.45,5.67-5.71,17.84,2.29,20.42,5,1.61,13.2-1.16,16.36-5,2.69-3.24.17-5.66.39-8.82"/><path class="cls-21" d="M145.86,151c-4.65.27-9,2.19-12.18-2.17-2.14-2.91-4.73-7.75-5.08-11.28-.82-8.34,6.72-10.56,12.65-9.31a25.88,25.88,0,0,1,9.36,4.31c3.21,2.08,9.18,3.46,11.56,6.7,6.25,8.52-6.11,10-11,10.68-1.86.28-3.31.93-5.28,1.07"/><path class="cls-21" d="M347.54,145.78c7.25,1,11,3.28,15.72-3.08,3.56-4.77,7.34-7.72,4.28-14.47-2.52-5.56-12.18-10.3-17.79-11.09s-8.95,1.48-11.49,6.35c-3,5.77-1.28,12.46,2,17,1.4,1.93,3.49,5.28,7.28,5.31"/><path class="cls-21" d="M488.32,179.34c3.87,1.7,10.09-4.21,7.53-10.68-1.67-4.23-7.93-7.44-12-4.51-6.6,4.79-.84,13.27,4.43,15.19"/><path class="cls-21" d="M412.09,150.59c4.08,3,9.4,3,10.43-3.67,1-6.29-7.11-7.48-11.58-8.24-5-.85-9.78,1-5.12,6.69,1.48,1.82,4.45,3.73,6.27,5.22"/><path class="cls-21" d="M487.59,151.37c5.54-1.4,20.39-5.55,15.52-14.14-1.36-2.39-8.55-6.6-11.7-6.3-2.78.26-4.5,2.71-5.48,5.32s-.29,5.16-1.19,7.84-3.44,3.44-2.15,5.58c1.41,2.36,5.74,2.3,7.07.54"/><path class="cls-21" d="M421.52,132.13c22-10.14-22-27.55-22.68-12-.25,5.47,5.17,7.4,9.3,10.93,3,2.54,8.3,5.15,10.51,3.49,1-.69,1.57-1.74,2.87-2.4"/><path class="cls-21" d="M456,140c10.42-.14,15.26-14.17,5.74-19.68-6.24-3.62-18.46-3.17-19.91,5.11-.9,5.16,3,12.91,7.2,15.51,3.58,2.21,5.63-.62,8.79-.84"/><path class="cls-21" d="M415.61,204.23c-3.95-2.47-8.58-3.4-8.67-8.82-.06-3.61.63-9,2.38-12.13,4.16-7.28,11.59-4.73,15.71-.28a26,26,0,0,1,5.14,8.93c1.4,3.56,5.48,8.14,5.54,12.16.16,10.57-10.74,4.58-15.18,2.33-1.67-.85-3.23-1.16-4.92-2.19"/><path class="cls-21" d="M454.82,81.56c-2.23,3.59,2.76,10.58,9.52,8.94,4.42-1.06,8.47-6.82,6.14-11.22-3.83-7.2-13-2.67-15.66,2.28"/><path class="cls-21" d="M146.09,183.74c-2.23,3.6,2.77,10.58,9.52,8.95,4.43-1.08,8.48-6.82,6.14-11.23-3.82-7.2-13-2.67-15.66,2.28"/><path class="cls-21" d="M398,156.44c-2.11,3.4,2.62,10,9,8.46,4.19-1,8-6.45,5.81-10.62-3.62-6.81-12.33-2.52-14.82,2.16"/><path class="cls-21" d="M357.86,164.08c-1.79,2.9,2.23,8.52,7.66,7.2,3.57-.86,6.83-5.49,5-9-3.08-5.8-10.49-2.15-12.61,1.83"/><path class="cls-21" d="M356.93,105.22c-4.78-1.74-9.87-.21-8.94,6.5.88,6.31,9,5.13,13.46,4.57,5.06-.63,9.09-3.73,3-7.87-1.94-1.32-5.33-2.3-7.5-3.2"/><path class="cls-21" d="M385,183.25c.61,5.67,2.65,20.95,11.83,17.33,2.57-1,7.73-7.55,7.87-10.71.13-2.79-2-4.84-4.5-6.17s-5.08-1-7.6-2.27-2.93-3.88-5.23-2.91c-2.53,1.08-3.08,5.37-1.51,6.94"/><path class="cls-21" d="M399,103c7,23.24,30.34-17.93,15.06-20.79-5.39-1-8,4.1-12.12,7.69-2.92,2.58-6.26,7.51-4.92,9.92.55,1.08,1.51,1.8,2,3.18"/><path class="cls-21" d="M506,113.89c-1.32,10.34,11.9,17.09,18.69,8.42,4.44-5.68,5.71-17.84-2.29-20.42-5-1.61-13.21,1.16-16.37,5-2.69,3.24-.16,5.67-.39,8.82"/><path class="cls-21" d="M529.81,125.75c4.66-.28,9-2.19,12.18,2.17,2.14,2.91,4.73,7.75,5.08,11.28.83,8.33-6.72,10.56-12.65,9.31a26.12,26.12,0,0,1-9.36-4.31c-3.2-2.09-9.17-3.46-11.56-6.71-6.25-8.52,6.12-10,11-10.68,1.85-.27,3.3-.92,5.27-1.06"/><path class="cls-22" d="M239,141.72c1.62-1.77,2.93-2.35,2.1-4.82-.62-1.85-.71-3.43-3.11-3.86-2-.36-5.05,1.36-6.32,2.73a3.35,3.35,0,0,0-.43,4.29,5.39,5.39,0,0,0,5,2.63c.79,0,2.08.05,2.8-1"/><path class="cls-22" d="M227.16,164c1.18-.73.75-3.52-1.48-4-1.45-.34-3.49.75-3.46,2.38.07,2.68,3.43,2.71,4.94,1.65"/><path class="cls-22" d="M206.66,149.11c1.18-.72.75-3.51-1.47-4-1.46-.34-3.5.75-3.46,2.39.06,2.68,3.43,2.71,4.93,1.64"/><path class="cls-22" d="M257.6,178.42c.86-.53.54-2.54-1.06-2.91-1.05-.25-2.53.54-2.5,1.72,0,1.93,2.48,2,3.56,1.19"/><path class="cls-22" d="M239.86,150.56c1.19-.73.75-3.51-1.47-4-1.46-.34-3.5.75-3.46,2.39.06,2.67,3.43,2.7,4.93,1.64"/><path class="cls-22" d="M207.61,136.28c1.19-.73.76-3.51-1.47-4-1.46-.34-3.49.75-3.46,2.39.06,2.67,3.43,2.7,4.93,1.64"/><path class="cls-22" d="M175.66,157.36c1.18-.72.75-3.51-1.47-4-1.46-.34-3.5.75-3.46,2.39.06,2.68,3.43,2.71,4.93,1.64"/><path class="cls-22" d="M144.91,166.14c1.19-.73.75-3.51-1.47-4-1.46-.34-3.5.75-3.46,2.39.06,2.68,3.43,2.7,4.93,1.64"/><path class="cls-22" d="M183.59,124.2c1.29-1.06,1.71-2.76-.34-3.62s-2.95,1.67-3.55,3c-.67,1.54-.47,3.2,1.72,2.17a15.81,15.81,0,0,0,2.17-1.58"/><path class="cls-22" d="M281.42,172.4c0-1.67-1-3.08-3-2.07s-.62,3.34,0,4.67c.74,1.5,2.14,2.42,2.76.08a15,15,0,0,0,.18-2.68"/><path class="cls-22" d="M220.71,162c0-1.67-1-3.08-3-2.07s-.62,3.34,0,4.67c.74,1.5,2.14,2.42,2.77.08a15.81,15.81,0,0,0,.18-2.68"/><path class="cls-22" d="M194.77,96.19c-.73-1.5-2.28-2.3-3.6-.51s.94,3.26,2.13,4.16,3,1.2,2.51-1.17a16.7,16.7,0,0,0-1-2.48"/><path class="cls-22" d="M259.37,106.39c.65-1.76,2.31-6.54-.92-6.83a6.19,6.19,0,0,0-3.89,2A2.34,2.34,0,0,0,255,104c.53.77,1.34,1,1.89,1.79s.29,1.57,1.11,1.63a1.59,1.59,0,0,0,1.47-1.81"/><path class="cls-22" d="M250.86,143.53c.75,0,1.95-1.2,2.35-2.16s.64-2.39-.09-3.18c-.78-.61-2,0-3.26.48-1.5.64-2.83,1.93-4.39,2.35s-3.65.38-4.79,1.89c-1.88,2.48,1.3,3.11,3.12,2.78,2.33-.41,4.79-2.45,7.06-2.16"/><path class="cls-22" d="M250.93,132.54c1.38-7.85-11.55.79-7.49,3.88,1.43,1.09,3,0,4.69-.47,1.24-.32,3-1.28,2.91-2.18a6.62,6.62,0,0,1-.11-1.23"/><path class="cls-22" d="M201,134.72c1.91-2.85-1-6.78-4.24-5.24-2.15,1-4.31,4.4-2.35,6.34a6,6,0,0,0,5.54,1c1.27-.56.89-1.64,1.42-2.54"/><path class="cls-22" d="M193.73,120.11c1.91-2.84-1-6.77-4.24-5.23-2.15,1-4.31,4.4-2.35,6.34a6,6,0,0,0,5.54,1c1.27-.55.88-1.63,1.42-2.53"/><path class="cls-22" d="M202.76,144.59c-1.4.61-2.52,1.69-4,.7a9,9,0,0,1-2.83-2.92c-1.19-2.48.89-4,2.86-4.29a8.49,8.49,0,0,1,3.38.28c1.22.29,3.22,0,4.32.78,2.88,1.93-.78,3.76-2.21,4.53a17.52,17.52,0,0,1-1.52.92"/><path class="cls-22" d="M143.88,159.22c-1.41.61-2.52,1.68-4,.7A9.09,9.09,0,0,1,137,157c-1.18-2.48.89-4,2.87-4.29a8.45,8.45,0,0,1,3.37.28c1.23.29,3.22,0,4.32.78,2.89,1.93-.77,3.76-2.21,4.53a17.33,17.33,0,0,1-1.51.92"/><path class="cls-22" d="M168,189.15c-1.48-.42-3-.3-3.54-2a8.89,8.89,0,0,1-.35-4.05c.65-2.67,3.23-2.54,4.93-1.51a8.43,8.43,0,0,1,2.44,2.35c.76,1,2.47,2.07,2.85,3.34,1,3.32-3,2.42-4.58,2.11-.6-.12-1.13-.07-1.75-.24"/><path class="cls-22" d="M263.61,170.05c-1.41.61-2.53,1.68-4,.69a8.93,8.93,0,0,1-2.83-2.91c-1.19-2.48.89-4,2.86-4.29a8.48,8.48,0,0,1,3.38.28c1.22.28,3.22,0,4.32.77,2.88,1.93-.77,3.76-2.21,4.54-.54.29-.92.66-1.51.92"/><path class="cls-22" d="M288.87,132.64c1.74,1.66,2.29,3,4.78,2.21,1.86-.59,3.44-.65,3.92-3,.4-2-1.26-5.09-2.6-6.38a3.35,3.35,0,0,0-4.28-.52,5.42,5.42,0,0,0-2.74,4.91c0,.78-.08,2.07.92,2.81"/><path class="cls-22" d="M282.38,133.33c.7,1.2,3.5.82,4.06-1.39.37-1.45-.68-3.51-2.31-3.51-2.69,0-2.78,3.38-1.75,4.9"/><path class="cls-22" d="M312.84,131.19c1.52-.7,2.35-2.24.58-3.59s-3.27.87-4.2,2.05-1.26,3,1.13,2.52a15.88,15.88,0,0,0,2.49-1"/><path class="cls-22" d="M172.5,150.16c1.75.69,6.5,2.44,6.85-.78a6.18,6.18,0,0,0-1.9-3.93,2.33,2.33,0,0,0-2.48.36c-.78.52-1.07,1.32-1.83,1.86s-1.58.25-1.65,1.07a1.61,1.61,0,0,0,1.79,1.51"/><path class="cls-22" d="M163.8,178.42c1.75.69,6.5,2.45,6.86-.78a6.23,6.23,0,0,0-1.9-3.93,2.37,2.37,0,0,0-2.49.37c-.77.51-1.07,1.31-1.82,1.85s-1.58.26-1.65,1.07a1.6,1.6,0,0,0,1.78,1.51"/><path class="cls-22" d="M275.12,166.58c1.74.69,6.49,2.44,6.85-.78a6.23,6.23,0,0,0-1.9-3.93,2.37,2.37,0,0,0-2.49.36c-.77.52-1.07,1.32-1.82,1.86s-1.58.25-1.65,1.07a1.6,1.6,0,0,0,1.78,1.51"/><path class="cls-22" d="M249.19,194.84c1.75.69,6.5,2.44,6.86-.78a6.17,6.17,0,0,0-1.91-3.93,2.33,2.33,0,0,0-2.48.36c-.77.52-1.07,1.32-1.82,1.86s-1.58.25-1.65,1.07a1.6,1.6,0,0,0,1.78,1.51"/><path class="cls-22" d="M432.34,192.3c.19,1.86.85,6.88,3.87,5.7a6.21,6.21,0,0,0,2.6-3.51,2.37,2.37,0,0,0-1.48-2c-.82-.45-1.67-.34-2.49-.75s-1-1.28-1.72-1a1.59,1.59,0,0,0-.5,2.28"/><path class="cls-22" d="M251.64,170.69c0,.75,1.17,2,2.12,2.39s2.37.69,3.18,0c.62-.76.08-2-.41-3.27-.61-1.51-1.88-2.87-2.27-4.43s-.3-3.66-1.79-4.83c-2.44-1.94-3.13,1.24-2.84,3.06.37,2.34,2.35,4.84,2,7.11"/><path class="cls-22" d="M219.11,169.11c-.33.2-.33,1.06-.09,1.59a2.51,2.51,0,0,0,1.46,1.39c.61.07.92-.53,1.23-1.08s.4-1.63.91-2.23,1.46-1.15,1.3-2.13c-.26-1.62-2-1-2.62-.41-.85.82-1.05,2.39-2.19,2.87"/><path class="cls-22" d="M355.16,157.26c-.73.2-1.59,1.66-1.74,2.68s0,2.47.88,3.06c.9.4,2-.47,3-1.27,1.3-1,2.27-2.58,3.67-3.37s3.44-1.27,4.18-3c1.21-2.87-2-2.68-3.71-1.92-2.16,1-4,3.56-6.31,3.84"/><path class="cls-22" d="M293.72,93.9c-.72.2-1.58,1.65-1.74,2.68s0,2.47.88,3.06c.9.39,2-.47,3-1.27,1.3-1,2.26-2.58,3.67-3.37s3.44-1.27,4.17-3c1.21-2.87-2-2.69-3.71-1.92-2.15,1-4,3.56-6.31,3.84"/><path class="cls-22" d="M168.17,143.94c7.82,1.54-.55-11.57-3.72-7.57-1.12,1.41,0,3,.37,4.7.3,1.25,1.22,3,2.13,3a5.83,5.83,0,0,1,1.22-.09"/><path class="cls-22" d="M146,177.15c7.82,1.54-.55-11.57-3.72-7.57-1.12,1.41,0,3,.37,4.7.3,1.25,1.22,3,2.13,2.95a6.64,6.64,0,0,1,1.22-.08"/><path class="cls-22" d="M275.18,133.07c2.81,2,6.79-.83,5.32-4.13-1-2.16-4.31-4.4-6.28-2.47a5.93,5.93,0,0,0-1.07,5.51c.52,1.28,1.62.92,2.5,1.47"/><path class="cls-22" d="M300.87,133.29c-.58-1.42-1.63-2.56-.61-4a8.92,8.92,0,0,1,3-2.77c2.5-1.14,4,1,4.23,2.95a8.44,8.44,0,0,1-.35,3.37c-.31,1.21-.1,3.22-.86,4.3-2,2.85-3.74-.85-4.49-2.3-.28-.55-.64-.93-.89-1.53"/><path class="cls-22" d="M175.81,90.31c-1.38,2-2.62,2.7-1.48,5,.85,1.76,1.14,3.31,3.57,3.44,2,.11,4.85-2,5.92-3.51a3.33,3.33,0,0,0-.11-4.31,5.41,5.41,0,0,0-5.25-2c-.78.12-2.07.22-2.65,1.32"/><path class="cls-22" d="M278.7,156.59c-1.09.87-.3,3.58,2,3.81,1.49.15,3.37-1.19,3.13-2.81-.4-2.65-3.75-2.25-5.1-1"/><path class="cls-22" d="M267.68,94.18c-1.09.87-.3,3.58,2,3.81,1.49.16,3.37-1.18,3.13-2.8-.4-2.65-3.75-2.25-5.1-1"/><path class="cls-22" d="M165.56,150.35c.92,1.4,2.56,2,3.63.05s-1.34-3.12-2.63-3.86c-1.46-.83-3.13-.81-2.34,1.49a16.39,16.39,0,0,0,1.34,2.32"/><path class="cls-22" d="M136.33,170.12c.91,1.4,2.55,2,3.63,0s-1.34-3.12-2.64-3.86-3.12-.81-2.33,1.49a16.39,16.39,0,0,0,1.34,2.32"/><path class="cls-22" d="M306,152.91c-.43,1.83-1.47,6.79,1.78,6.67a6.27,6.27,0,0,0,3.61-2.46,2.35,2.35,0,0,0-.73-2.4c-.62-.69-1.46-.87-2.1-1.54s-.48-1.52-1.3-1.47a1.58,1.58,0,0,0-1.23,2"/><path class="cls-22" d="M284.43,163.44c-1.53,3.06,1.83,6.59,4.87,4.65,2-1.27,3.72-4.9,1.53-6.58a6,6,0,0,0-5.61-.25c-1.19.71-.68,1.74-1.09,2.69"/><path class="cls-22" d="M297.26,162.41c1.32-.78,2.29-2,3.88-1.19a9,9,0,0,1,3.18,2.53c1.49,2.31-.38,4.1-2.3,4.62a8.6,8.6,0,0,1-3.38.15c-1.25-.13-3.2.37-4.38-.22-3.11-1.55.29-3.83,1.61-4.78.5-.36.83-.77,1.39-1.11"/><path class="cls-22" d="M436.67,135c-1.62,1.78-2.94,2.35-2.11,4.83.62,1.85.71,3.42,3.11,3.86,2,.36,5.06-1.36,6.32-2.73a3.34,3.34,0,0,0,.43-4.29,5.4,5.4,0,0,0-5-2.64c-.78,0-2.08,0-2.79,1"/><path class="cls-22" d="M449.47,112.72c-1.18.73-.75,3.51,1.47,4,1.46.34,3.5-.75,3.46-2.39-.06-2.68-3.43-2.7-4.93-1.64"/><path class="cls-22" d="M435,125.49c-1.19.73-.75,3.52,1.47,4,1.46.34,3.5-.75,3.46-2.38-.06-2.68-3.43-2.71-4.93-1.65"/><path class="cls-22" d="M468.06,140.45c-1.19.72-.75,3.51,1.47,4,1.46.34,3.5-.75,3.46-2.39-.06-2.68-3.43-2.7-4.93-1.64"/><path class="cls-22" d="M500,119.36c-1.18.73-.75,3.52,1.48,4,1.45.34,3.49-.75,3.46-2.39-.06-2.68-3.43-2.71-4.94-1.65"/><path class="cls-22" d="M491.13,154.44c-1.29,1.06-1.71,2.76.34,3.62s2.95-1.67,3.55-3c.67-1.53.47-3.19-1.73-2.16a16.35,16.35,0,0,0-2.16,1.58"/><path class="cls-22" d="M452.71,107.17c-1.3,1.06-1.72,2.76.34,3.62s2.95-1.67,3.55-3c.67-1.53.47-3.19-1.73-2.16a16.35,16.35,0,0,0-2.16,1.58"/><path class="cls-22" d="M480.9,180.53c.73,1.51,2.28,2.31,3.6.51s-.94-3.26-2.13-4.15-3-1.2-2.5,1.17a15.55,15.55,0,0,0,1,2.47"/><path class="cls-22" d="M416,163.61c-1.4.91-2,2.54-.07,3.63s3.12-1.32,3.87-2.61c.84-1.45.83-3.12-1.47-2.35a15.88,15.88,0,0,0-2.33,1.33"/><path class="cls-22" d="M409,170.71c.73,1.5,2.28,2.3,3.59.51s-.94-3.26-2.13-4.16-3-1.2-2.5,1.17a15.7,15.7,0,0,0,1,2.48"/><path class="cls-22" d="M416.31,170.34c-.66,1.75-2.32,6.54.92,6.83a6.19,6.19,0,0,0,3.89-2,2.37,2.37,0,0,0-.42-2.48c-.53-.76-1.34-1-1.89-1.78s-.29-1.58-1.11-1.63a1.6,1.6,0,0,0-1.47,1.81"/><path class="cls-22" d="M351.36,149.64c-.65,1.76-2.31,6.54.92,6.83a6.14,6.14,0,0,0,3.89-2,2.34,2.34,0,0,0-.41-2.47c-.53-.77-1.34-1.05-1.9-1.79s-.28-1.57-1.1-1.63a1.6,1.6,0,0,0-1.47,1.82"/><path class="cls-22" d="M424.81,133.19c-.75,0-1.94,1.21-2.35,2.16s-.64,2.39.1,3.19c.77.61,2,0,3.25-.48,1.5-.64,2.83-1.94,4.39-2.36s3.65-.37,4.79-1.88c1.89-2.49-1.3-3.11-3.11-2.79-2.33.42-4.8,2.45-7.07,2.16"/><path class="cls-22" d="M424.74,144.18c-1.38,7.86,11.55-.78,7.49-3.87-1.43-1.09-3,0-4.69.46-1.24.33-3,1.28-2.91,2.19a6.59,6.59,0,0,1,.11,1.22"/><path class="cls-22" d="M474.71,142c-1.91,2.84,1,6.78,4.25,5.23,2.14-1,4.31-4.39,2.34-6.33a6,6,0,0,0-5.54-1c-1.26.56-.88,1.64-1.41,2.53"/><path class="cls-22" d="M481.94,156.61c-1.91,2.84,1,6.78,4.25,5.23,2.14-1,4.31-4.39,2.34-6.33a6,6,0,0,0-5.54-1c-1.26.56-.88,1.64-1.41,2.54"/><path class="cls-22" d="M472.91,131.18c1.41-.61,2.52-1.68,4-.69a9,9,0,0,1,2.84,2.91c1.18,2.48-.9,4-2.87,4.29a8.43,8.43,0,0,1-3.37-.28c-1.23-.29-3.22,0-4.32-.78-2.89-1.93.77-3.76,2.21-4.53.54-.29.92-.66,1.51-.92"/><path class="cls-22" d="M520.81,118.5c1.14-1,1.87-2.38,3.58-1.91a8.92,8.92,0,0,1,3.61,1.88c1.91,2,.41,4.09-1.37,5a8.45,8.45,0,0,1-3.3.79c-1.25.12-3.07,1-4.34.62-3.35-.93-.45-3.81.67-5,.43-.45.67-.91,1.15-1.35"/><path class="cls-22" d="M386.81,144.09c-1.75-1.66-2.29-3-4.78-2.21-1.87.58-3.44.64-3.93,3-.4,2,1.26,5.09,2.6,6.37a3.35,3.35,0,0,0,4.29.53,5.44,5.44,0,0,0,2.73-4.91c0-.78.09-2.08-.91-2.81"/><path class="cls-22" d="M348.27,150.29c-1.74-1.66-2.29-3-4.78-2.21-1.87.59-3.44.65-3.93,3-.4,2,1.27,5.08,2.61,6.37a3.33,3.33,0,0,0,4.28.52,5.39,5.39,0,0,0,2.73-4.91c0-.78.09-2.07-.91-2.81"/><path class="cls-22" d="M393.29,143.4c-.7-1.2-3.5-.82-4.06,1.39-.37,1.45.68,3.51,2.32,3.51,2.68,0,2.77-3.38,1.74-4.9"/><path class="cls-22" d="M400.59,146.73c-.7-1.2-3.49-.83-4.06,1.39-.37,1.45.68,3.51,2.32,3.5,2.68,0,2.78-3.37,1.74-4.89"/><path class="cls-22" d="M419.26,154.36c-.7-1.19-3.5-.82-4.06,1.4-.37,1.45.68,3.51,2.32,3.5,2.68,0,2.77-3.37,1.74-4.9"/><path class="cls-22" d="M417.06,107.91c-.7-1.2-3.5-.82-4.06,1.39-.37,1.45.68,3.51,2.32,3.51,2.68,0,2.77-3.37,1.74-4.9"/><path class="cls-22" d="M362.83,145.54c-1.52.7-2.35,2.23-.58,3.59s3.28-.88,4.2-2,1.26-3-1.13-2.53a15.93,15.93,0,0,0-2.49,1"/><path class="cls-22" d="M503.17,126.57c-1.74-.69-6.49-2.45-6.85.78a6.18,6.18,0,0,0,1.9,3.93,2.37,2.37,0,0,0,2.48-.36c.78-.52,1.08-1.32,1.83-1.86s1.58-.25,1.65-1.07a1.6,1.6,0,0,0-1.78-1.51"/><path class="cls-22" d="M400.56,110.15c-1.75-.69-6.5-2.45-6.85.78a6.18,6.18,0,0,0,1.9,3.93,2.37,2.37,0,0,0,2.48-.36c.78-.52,1.07-1.32,1.83-1.86s1.57-.26,1.64-1.07a1.6,1.6,0,0,0-1.78-1.51"/><path class="cls-22" d="M423.07,106c0-.75-1.16-2-2.11-2.39s-2.37-.69-3.18,0c-.63.76-.09,2,.41,3.26.61,1.52,1.88,2.87,2.27,4.44s.3,3.66,1.78,4.83c2.45,1.93,3.14-1.24,2.85-3.06-.37-2.34-2.35-4.85-2-7.11"/><path class="cls-22" d="M507.5,132.79c-7.82-1.54.55,11.56,3.73,7.57,1.12-1.41,0-3-.38-4.71-.3-1.24-1.21-3-2.12-3a6.77,6.77,0,0,1-1.23.09"/><path class="cls-22" d="M394.47,150.9c-2.8-2-6.79.83-5.32,4.14,1,2.16,4.31,4.39,6.29,2.47a6,6,0,0,0,1.07-5.52c-.53-1.28-1.62-.92-2.5-1.47"/><path class="cls-22" d="M339,188.71c-1.75-1.66-2.29-3-4.78-2.2-1.87.58-3.44.64-3.93,3-.4,2,1.27,5.08,2.61,6.37a3.33,3.33,0,0,0,4.28.52,5.39,5.39,0,0,0,2.73-4.91c0-.78.09-2.07-.91-2.81"/><path class="cls-22" d="M345.49,189c-.7-1.2-3.49-.83-4.06,1.39-.37,1.45.68,3.51,2.32,3.51,2.68,0,2.78-3.38,1.74-4.9"/><path class="cls-22" d="M351.84,192.31c-.7-1.2-3.5-.83-4.06,1.39-.37,1.45.68,3.51,2.31,3.51,2.69,0,2.78-3.38,1.75-4.9"/><path class="cls-22" d="M358,186.37c-2.8-2-6.79.84-5.32,4.14,1,2.16,4.31,4.4,6.29,2.47a6,6,0,0,0,1.07-5.51c-.53-1.28-1.62-.92-2.5-1.47"/><path class="cls-22" d="M374.8,143.44c.58,1.42,1.63,2.56.62,4a9,9,0,0,1-3,2.77c-2.51,1.14-4-1-4.24-2.95a8.62,8.62,0,0,1,.35-3.37c.31-1.22.11-3.22.86-4.3,2-2.85,3.75.85,4.49,2.3a17.5,17.5,0,0,1,.89,1.53"/><path class="cls-22" d="M523,91.82c-1.75-1.65-2.29-3-4.78-2.2-1.87.58-3.44.64-3.93,3-.4,2,1.26,5.09,2.61,6.37a3.33,3.33,0,0,0,4.28.52,5.37,5.37,0,0,0,2.73-4.9c0-.79.09-2.08-.91-2.82"/><path class="cls-22" d="M511.92,95c.58,1.42,1.63,2.56.61,4a8.92,8.92,0,0,1-3,2.77c-2.5,1.14-4-1-4.23-3a8.44,8.44,0,0,1,.35-3.37c.31-1.22.1-3.22.86-4.3,2-2.85,3.75.85,4.49,2.3.28.55.64.93.89,1.53"/><path class="cls-22" d="M307.8,101.06c-1.53-.15-3,.24-3.84-1.34a9,9,0,0,1-1-3.92c.17-2.75,2.73-3.08,4.59-2.36a8.54,8.54,0,0,1,2.81,1.89c.93.84,2.79,1.6,3.4,2.78,1.58,3.09-2.51,2.91-4.14,2.88a17.23,17.23,0,0,1-1.77.07"/><path class="cls-22" d="M499.87,186.42c1.38-2,2.61-2.7,1.48-5-.85-1.76-1.14-3.31-3.58-3.44-2-.11-4.84,2-5.92,3.51a3.33,3.33,0,0,0,.11,4.31,5.42,5.42,0,0,0,5.26,2c.77-.12,2.06-.22,2.65-1.32"/><path class="cls-22" d="M397,120.14c1.08-.87.3-3.58-2-3.81-1.48-.16-3.37,1.18-3.13,2.8.4,2.65,3.75,2.25,5.11,1"/><path class="cls-22" d="M510.11,126.38c-.91-1.4-2.55-2-3.63,0s1.34,3.11,2.64,3.85,3.12.82,2.33-1.48a15.85,15.85,0,0,0-1.34-2.32"/><path class="cls-22" d="M511.26,85.5c-.91-1.4-2.55-2-3.63,0s1.34,3.12,2.64,3.86c1.45.83,3.12.81,2.33-1.49a16.39,16.39,0,0,0-1.34-2.32"/><path class="cls-22" d="M369.69,123.81c.43-1.82,1.47-6.78-1.77-6.66a6.15,6.15,0,0,0-3.61,2.46A2.34,2.34,0,0,0,365,122c.62.69,1.46.87,2.1,1.53s.49,1.53,1.31,1.48a1.59,1.59,0,0,0,1.22-2"/><path class="cls-22" d="M391.24,113.29c1.54-3.06-1.82-6.59-4.87-4.65-2,1.27-3.72,4.9-1.53,6.58a6,6,0,0,0,5.62.25c1.19-.71.67-1.74,1.08-2.69"/><path class="cls-22" d="M378.42,114.31c-1.32.78-2.29,2-3.89,1.2a9,9,0,0,1-3.18-2.54c-1.49-2.31.38-4.09,2.3-4.62a8.41,8.41,0,0,1,3.38-.14c1.25.12,3.2-.37,4.39.22,3.1,1.55-.29,3.83-1.62,4.78-.5.36-.83.77-1.38,1.1"/><path class="cls-22" d="M198.14,90.14c1.54-3.06-1.82-6.59-4.87-4.65-2,1.27-3.72,4.91-1.52,6.58a6,6,0,0,0,5.61.25c1.19-.71.67-1.74,1.08-2.69"/><path class="cls-22" d="M482.51,81.76c-1.31.78-2.29,2-3.88,1.2a9.11,9.11,0,0,1-3.18-2.53c-1.49-2.32.38-4.1,2.3-4.63a8.41,8.41,0,0,1,3.38-.14c1.25.13,3.2-.37,4.39.22,3.1,1.55-.29,3.83-1.62,4.78a17.25,17.25,0,0,1-1.39,1.1"/></g><g id="Layer_120" data-name="Layer 120"><path class="cls-23" d="M554.41,16.7c-9.62-.43-19.55-1-29.14-2.28-8.81-1.19-17-3.65-25.81-5.37-7.3-1.43-14.94-1-22.43-.94-19.67.2-39.78,2.75-59.44-.12-8.51-1.24-17.16-1.86-25.65-3.07-8-1.15-15.39-4-23.59-4.3C354,0,340.09,2,326.09,2.76c-1.81.1-3.67.25-5.54.38a25,25,0,0,0-3.39-.54,145.86,145.86,0,0,0-15.45-.46,11.42,11.42,0,0,0-3.7.09C281.63,2.79,264.6,5,248.59,5,227.53,5,209.78-1.13,188.27.19c-14.2.87-28,5.74-42,7.48-12.44,1.55-20.9-3.58-32.57-5.08V95.34c18.57-10.4,41.42-6.48,61.34-9.73,9.11-1.49,14.08-4.14,23.51-1.37,9.61,2.82,16.67-6.74,33.93-5.13,8.91,1.51,3.61-14.54,12.57-14.41,8,.12,15,6.59,22.76,9.2,3.66,1.22,11,.7,14.57.7,4.16,0,7.8,4.56,8.32,8.57,1.43,10.92,12.63-2.33,21.93-3.25,9.11-.9,15.23,7.17,23.82,7s13.9-7.07,21.67-10.53c7.33-3.26,18.5-7.16,26.42-6.38,9.05.88,16.63,8.33,25.35,9.69,15.28,2.38,29.67,5,40.12-.9,11.36-6.39,37.26-9.44,39.07-2.54C491.88,87,499.52,83.89,508.19,82c7.22-1.54,16.78,6,17.63,10.5,1.6,8.43,1.35,12.44,12.62,16.28,3.79,1.3,10.36,1.93,16,1.3Z"/></g><g id="Layer_121" data-name="Layer 121"><path class="cls-24" d="M836.77,101.94c-.2,1,.12,2.85.84,5.4a41.88,41.88,0,0,1,1,4.4,21,21,0,0,1,.26,2.6,19.72,19.72,0,0,1-.08,2.57,25,25,0,0,1-2.72,9.23,44.94,44.94,0,0,1-4.71,7.22,58.14,58.14,0,0,1-12,11.31c-4.36,3.16-8.89,5.76-13.31,8.35s-8.77,5.11-12.8,8c-1,.7-2,1.5-3,2.24s-1.86,1.61-2.79,2.42-1.75,1.72-2.54,2.65l-1.16,1.41c-.19.24-.4.46-.57.71l-.51.76a27.35,27.35,0,0,0-4.88,13.71c0,.31-.08.62-.09.93v.94l0,1.89a21.54,21.54,0,0,0,.33,3.76,13.39,13.39,0,0,0,3.07,6.82,13.64,13.64,0,0,1-3.83-6.65,21.77,21.77,0,0,1-.74-3.83l-.22-1.94-.1-1c0-.32,0-.65,0-1A29.65,29.65,0,0,1,780,169.57l.47-.9c.17-.29.37-.56.55-.84l1.11-1.67c.77-1.11,1.65-2.11,2.47-3.17s1.79-2,2.74-2.91,1.89-1.87,2.89-2.72c4-3.5,8.18-6.57,12.32-9.59s8.22-6,11.85-9.22a49.56,49.56,0,0,0,9.27-10.64,35.44,35.44,0,0,0,3.09-6,14.49,14.49,0,0,0,1.05-5.54,9.85,9.85,0,0,0-.11-1.27,9,9,0,0,0-.27-1.19c-.23-.86-.59-1.85-1-3s-1-2.5-1.4-4.08a19.38,19.38,0,0,1-.77-5.48Z"/><path class="cls-24" d="M837.52,105.85a19.41,19.41,0,0,1,1.12,8.57,24.28,24.28,0,0,1-2,7.56,28.83,28.83,0,0,1-3.85,6.29,24.41,24.41,0,0,1-2.62,2.81,16.87,16.87,0,0,1-1.7,1.37c-.31.22-.69.46-1.09.69l-.66.34-.37.16a71.38,71.38,0,0,1-24.64,6.16,64.86,64.86,0,0,1-25.06-3c-4.07-1.37-7.7-3.19-11.23-4.73a41.4,41.4,0,0,0-10.45-3.41,18.66,18.66,0,0,0-10.14,1.23,22.48,22.48,0,0,0-8.48,6.37,26.71,26.71,0,0,0-5.15,9.65c-.5,1.74-.86,3.71-1.21,5.61s-.62,3.88-.93,5.84c-1.13,7.86-3.08,16-7.61,22.78a35.06,35.06,0,0,1-3.78,4.72c-1.39,1.45-2.86,2.78-4.3,4.14s-2.85,2.72-4.16,4.2a18,18,0,0,0-3.21,4.93,18.13,18.13,0,0,1,2.92-5.17c1.22-1.57,2.56-3.05,3.92-4.5s2.73-2.87,4-4.36a34,34,0,0,0,3.35-4.76,40.61,40.61,0,0,0,4.18-10.8A75.83,75.83,0,0,0,726,157c.18-2,.35-3.94.56-5.94s.45-4,.91-6.07a31.12,31.12,0,0,1,5.24-11.52,27.46,27.46,0,0,1,9.85-8.38,24.63,24.63,0,0,1,6.32-2.12,25.15,25.15,0,0,1,6.7-.31,47.37,47.37,0,0,1,12.32,3.1c3.81,1.39,7.4,2.89,10.91,3.82a56.86,56.86,0,0,0,21.95,1.19,62,62,0,0,0,20.84-6.62l.3-.16s0,0,0,0l.14-.14a5.92,5.92,0,0,0,.55-.56,13.88,13.88,0,0,0,1.29-1.66,17.78,17.78,0,0,0,2-4,12.24,12.24,0,0,0,.71-4,6.84,6.84,0,0,0-.69-3.06Z"/><path class="cls-24" d="M1059.28,68.3a36.6,36.6,0,0,1,1.93,7.45,46.8,46.8,0,0,1,.57,7.31,35.4,35.4,0,0,1-.21,3.8,22.72,22.72,0,0,1-.77,4.1,25.21,25.21,0,0,1-3.66,7.34,51.56,51.56,0,0,1-9.94,10.15q-2.67,2.11-5.48,4c-1.83,1.24-3.9,2.47-5.57,3.48-7,4.28-13.83,9.47-21.36,14a95.54,95.54,0,0,1-12,5.64,56.4,56.4,0,0,0-5.4,2.62c-.85.47-1.63,1-2.4,1.51s-1.53,1.16-2.25,1.81a35.65,35.65,0,0,0-4.11,4.22,37.16,37.16,0,0,0-3.43,4.84,33,33,0,0,0-2.54,5.3c-.16.46-.3.92-.45,1.39a9.68,9.68,0,0,0-.39,1.4l-.32,1.41-.2,1.43-.09.72,0,.72-.05,1.44.1,1.43,0,.72.13.7a18.4,18.4,0,0,0,1.73,5.53c.85,1.81,1.92,3.59,3,5.5a28.06,28.06,0,0,1,2.69,6.19,17.1,17.1,0,0,1,.47,6.89A9.11,9.11,0,0,1,989,193l-.36,1.64c-.34,1-.63,2.13-1,3.14a65.69,65.69,0,0,1-6.13,11.41c-2.3,3.59-4.72,7.08-6.88,10.72a47.92,47.92,0,0,0-5.23,11.55,48.21,48.21,0,0,1,4.54-11.93c2-3.8,4.17-7.45,6.23-11.15A63.74,63.74,0,0,0,985.38,197c1.27-3.92,1.74-8,.45-11.66s-4-6.86-6.17-10.82a22.88,22.88,0,0,1-2.47-6.47l-.2-.86-.12-.86-.23-1.74,0-1.75,0-.88.06-.87.13-1.74.28-1.72a15.82,15.82,0,0,1,.35-1.69c.15-.56.28-1.12.44-1.68a37.82,37.82,0,0,1,2.58-6.36,44.13,44.13,0,0,1,8.06-11c.81-.82,1.69-1.58,2.58-2.34a34.1,34.1,0,0,1,2.87-2.08,63.65,63.65,0,0,1,5.88-3.32,91.32,91.32,0,0,0,10.76-5.86c6.79-4.66,13.21-10.18,20.42-15.26,1.9-1.31,3.43-2.35,5-3.59s3.13-2.49,4.6-3.81a41.41,41.41,0,0,0,7.39-8.46,14.15,14.15,0,0,0,1.79-4.13,12.74,12.74,0,0,0,.25-2.18c0-.81,0-1.69,0-2.57a36.53,36.53,0,0,0-.76-5.37,24.06,24.06,0,0,0-1.55-4.79Z"/><path class="cls-24" d="M1061.29,70.93a4.25,4.25,0,0,0,.35,1.86c.31,1,.81,2.15,1.38,3.51a35,35,0,0,1,1.7,4.89l.09.37.06.28.11.56.21,1.12.37,2.16c.43,2.81.77,5.32,1.33,7.56a31.31,31.31,0,0,0,2.44,6.51,20,20,0,0,0,9.44,9.16,29.27,29.27,0,0,0,3.41,1.29c1.19.4,2.43.72,3.68,1,2.52.61,5.15,1,7.82,1.46l8.18,1.16c1.38.21,2.77.42,4.16.67a38.94,38.94,0,0,1,4.31,1c5.62,1.67,10.59,4.1,15.62,6.32a93.73,93.73,0,0,0,15.25,5.73,28.9,28.9,0,0,0,8,.95,16.57,16.57,0,0,0,7.79-2.14,17.1,17.1,0,0,1-7.71,3,30,30,0,0,1-8.41-.11,96.21,96.21,0,0,1-16.19-4.19c-5.24-1.69-10.46-3.55-15.55-4.49a35,35,0,0,0-3.81-.42c-1.34-.1-2.69-.16-4-.22l-8.27-.3c-5.61-.27-11.36-.67-17.38-2.59a28.17,28.17,0,0,1-8.6-4.64,31.5,31.5,0,0,1-6.63-7.21,41.68,41.68,0,0,1-4.29-8.51c-1.11-3-1.79-5.92-2.48-8.49l-.53-1.87-.26-.9-.14-.43-.07-.22-.06-.12a26.84,26.84,0,0,0-1.36-2.77c-.61-1.12-1.34-2.41-2.07-4a18.77,18.77,0,0,1-1.75-6.1Z"/><path class="cls-24" d="M1105.54,57.62c-7.41-.72-15.39.13-22.85.17a30.1,30.1,0,0,1-3.19.18c-.72,0-1.4,0-2.07,0a10.89,10.89,0,0,1-3.32.54c-5.8,2.19-14.18,3.15-19.35,4.59-7.38,2-16.58,4.06-24.13,1.78-7.22-2.18-16.91-6.53-21.32-13-6.68-9.81-10-15.26-21.74-15.85C976.42,35.47,966,41.55,953.93,41c-2.47-.13-5-.38-7.56-.63a28,28,0,0,1-4.83.4c-4.66,1-9.37,1.57-13.92,3.13-7.51,2.57-14.32,6.31-19.86,12-5.22,5.38-10.67,8.94-18.42,9.05-8.46.11-17-1.79-25.22-3.51-4.54-1-9.16-1.89-13.83-1.53-4.1.31-8.12,1.14-12.2,1.65-8.34,1-15.07-.91-22.89-3.47-2.73-.9-5.44-1.64-8.16-2.25a7.42,7.42,0,0,1-2.68-.29,2.09,2.09,0,0,1-.52-.09c-2.19-.1-4.48-.65-6.53-.61-4.26.1-7.7.55-11.53,2.43-4.15,3.56-8.07,7.08-13.35,8.93A63,63,0,0,1,737.37,68c-1.77-.44-3.5-.87-5.21-1.25-.67,0-1.34-.08-2-.14a76.73,76.73,0,0,0-14.38.2,21.63,21.63,0,0,1-2.94.43c-2.26.2-4.5.48-6.75.59a10.93,10.93,0,0,1-2.85.25c-.94.19-1.9.36-2.93.48a91.59,91.59,0,0,0-15.88,3.9c-2.94.93-3.8,2.57-4.51,4.67a6.56,6.56,0,0,0,2.52,2.64c9.57-3.24,18.3-4.06,28-6.11s13.32-4.59,22.85.12c7.38,3.66,14.56,6.48,23.16,4.35,3.9-1,7-3.56,10.62-5.06,3.84-1.58,7.86-1.91,11.4-3.78C784.65,66,789.27,58.91,796.85,59c7.32.11,16.63,4.93,23,8.56,8.76,5,16.59,2.85,25.81,1,4.16-.84,8.62-3.21,12.91-2.38,3.69.71,7.83,3.19,11.35,4.48,7.9,2.92,16.34,6.75,25,3.94,6.73-2.18,14.25-6.6,18.21-12.07,5.22-7.21,8.83-13,18.38-13,4.74,0,9.21.87,14,.56,4.65-.3,7.89-2.08,12.22-2.93,8.41-1.65,17.27-.29,25.34-3.4,4-1.53,10.14-2.63,13.12,1.34A11.09,11.09,0,0,1,997.66,48a22.42,22.42,0,0,1,.13,15.26.71.71,0,0,0,.45,1.13c2.16.86,3,1.32,5.45,1.32a27.36,27.36,0,0,1,5.08-.52c1.43.14,2.9.72,4.37.92,3.26.45,7,1.23,10.22,1.23a70.13,70.13,0,0,1,6.82,1.86c11.64,3.44,23.39,6.27,33.72-1.78,6.5-5.1,13.27-5.37,21.29-6.15a61.61,61.61,0,0,1,21.91,1.65c8.12,2,15,8.28,23.53,1.71l.56-3.36C1122.71,63.61,1114.66,58.5,1105.54,57.62Z"/><path class="cls-24" d="M1071,63.09a25.07,25.07,0,0,0-2.87,2.44,15.83,15.83,0,0,0-2,3.77,61.59,61.59,0,0,0-2.66,6.41c-.51,1.84-.74,5-3,6-.82.37-1.11,0-1.59-.82a14.83,14.83,0,0,1-1.45-4.47c-.26-1.13-.88-2.24-1.08-3.36-.41-2.19,1.26-5.66,2.68-7.27,1.79-2,5.22-2.06,7.66-2.61a15,15,0,0,1,4.19-.61,1.84,1.84,0,0,1,0,.62"/><path class="cls-24" d="M911.91,57.44a19.47,19.47,0,0,0,2.91,3.38c1.22,1.13,2.76,2.34,4.42,3.82a40.61,40.61,0,0,1,4.74,5c.37.45.69.92,1,1.37l.89,1.24,1.75,2.46a59.12,59.12,0,0,1,6.45,11.16,26.9,26.9,0,0,1,1.9,6.89,19.24,19.24,0,0,1-.47,7.64c-1.31,4.78-3.95,8.43-5.83,11.55s-3,5.86-3,9c0,3.33.86,5.83,3.18,8s5.87,3.83,9.41,6.19a23.28,23.28,0,0,1,5.05,4.44,18.18,18.18,0,0,1,1.94,3,11.14,11.14,0,0,1,1.13,3.72,15.6,15.6,0,0,1-1,6.9c-.71,2-1.59,3.86-2.36,5.61-.39.88-.75,1.74-1,2.57a15,15,0,0,0-.66,2.52,45.35,45.35,0,0,0-.55,5.62c-.23,3.87-.21,8-1.58,12.1s-4,7.34-6.47,10.35-5,5.95-6.59,9.47c-.84,1.76-1.65,3.54-2.38,5.35a25,25,0,0,0-1.68,5.53c-.61,3.83-.26,7.82-.59,11.73.08-3.93-.53-7.83-.15-11.82a25.63,25.63,0,0,1,1.36-5.83c.62-1.88,1.32-3.73,2.06-5.57a31,31,0,0,1,2.77-5.37c1.08-1.69,2.27-3.29,3.41-4.87,2.31-3.15,4.43-6.36,5.38-9.87s.72-7.33.69-11.28a51.13,51.13,0,0,1,.21-6.13,19.23,19.23,0,0,1,.64-3.23c.29-1,.64-2,1-3,.7-1.88,1.41-3.67,1.88-5.38a10.64,10.64,0,0,0,.43-4.7,5.63,5.63,0,0,0-.71-1.84,12.2,12.2,0,0,0-1.42-1.88,17.35,17.35,0,0,0-4-3c-3.08-1.85-6.92-3.21-10.63-6.16a16.55,16.55,0,0,1-4.58-5.79,19.55,19.55,0,0,1-1.7-7,21.4,21.4,0,0,1,.75-7.11,31.83,31.83,0,0,1,2.58-6.23c1-1.86,1.92-3.52,2.67-5.11a19.11,19.11,0,0,0,1.61-4.54c.53-2.57-.13-5.44-1.59-8.4A49.91,49.91,0,0,0,919.21,81l-1.82-2.24c-.3-.35-.65-.82-.91-1.09s-.54-.62-.83-.91a29.13,29.13,0,0,0-3.71-3.23c-1.37-1-3-2.1-4.83-3.49a31.37,31.37,0,0,1-5.24-5.09Z"/><path class="cls-24" d="M1013.69,58.08a81.86,81.86,0,0,1-6.56,11.75,45.14,45.14,0,0,1-4.51,5.52c-.83.84-1.75,1.74-2.62,2.51s-1.74,1.46-2.59,2.14a90.79,90.79,0,0,0-9,7.56,15.59,15.59,0,0,0-2.81,3.8,6.45,6.45,0,0,0-.73,3.6,12.55,12.55,0,0,0,1.5,4.29,30.62,30.62,0,0,0,3.1,4.55c2.41,3.08,5.57,6.35,7.74,10.79a21.61,21.61,0,0,1,2.09,7.11A23.4,23.4,0,0,1,999,129a18.37,18.37,0,0,1-2.92,6.88,19.22,19.22,0,0,1-5.28,5.1,31.33,31.33,0,0,1-12.8,4.49c-4.28.64-8.43.89-12.52,1.32a61.94,61.94,0,0,0-11.86,2.13,22.91,22.91,0,0,0-5.3,2.32,14.44,14.44,0,0,0-4.17,3.7,15.88,15.88,0,0,0-2.3,5.21,41.44,41.44,0,0,0-1,6c-.42,4.07-.64,8.28-1.12,12.41-.91,8.3-2.3,16.5-3.68,24.69.89-8.26,1.8-16.53,2.21-24.8.24-4.15.2-8.25.39-12.47a42.12,42.12,0,0,1,.72-6.37,18.51,18.51,0,0,1,2.36-6.28c2.56-3.91,6.65-6.34,10.72-7.86a65.74,65.74,0,0,1,12.48-3c8.23-1.4,16.75-1.89,22.52-6.26a12.35,12.35,0,0,0,5.06-8.34,17,17,0,0,0-.08-5.13,14.64,14.64,0,0,0-1.71-4.69c-1.66-3-4.46-5.69-7.39-8.94a39.56,39.56,0,0,1-4.23-5.51,21.16,21.16,0,0,1-2.93-7.28,15.53,15.53,0,0,1,1-8.57,24.47,24.47,0,0,1,4.11-6.5,97.43,97.43,0,0,1,9.51-9.07c.74-.66,1.46-1.32,2.11-2a19.81,19.81,0,0,0,1.74-1.93,34.33,34.33,0,0,0,2.95-4.45,70.43,70.43,0,0,0,4.56-10.52Z"/><path class="cls-24" d="M1011.66,64.28A37.41,37.41,0,0,1,1007.4,70c-1.48,1.68-3,3.23-4.52,4.68-3,2.92-6,5.52-8.43,8.2A37.31,37.31,0,0,0,991.1,87c-.27.35-.48.71-.71,1.07a10.33,10.33,0,0,0-.66,1.1l-.32.55-.16.28c0,.08,0,.14-.09.21a8.25,8.25,0,0,1-.37.8,5.6,5.6,0,0,0-.16,3.21,13,13,0,0,0,1.85,4,49.19,49.19,0,0,0,3.35,4.43c1.26,1.54,2.61,3.12,3.94,5a32.14,32.14,0,0,1,1.9,3l.8,1.57c.25.52.46,1,.69,1.58a39.11,39.11,0,0,1,2,6.47,37.94,37.94,0,0,1,.42,13.32,25.64,25.64,0,0,1-1.88,6.66A25.08,25.08,0,0,1,998,146c-2.83,3.35-5.88,5.9-7.92,8.82s-3.1,6.23-2.36,9.46,3,6.51,5.24,9.94a32.64,32.64,0,0,1,3,5.56,21.37,21.37,0,0,1,1.16,3l.47,1.51a10.44,10.44,0,0,1,.4,1.53,40.7,40.7,0,0,1,.89,12.41,88.41,88.41,0,0,1-1.77,12.1c-1.64,7.92-3.79,15.68-4.51,23.73.2-8.08,1.87-16.06,3-24a88.65,88.65,0,0,0,1-11.9A38,38,0,0,0,995,186.61a9.19,9.19,0,0,0-.46-1.37L994,183.9a19.05,19.05,0,0,0-1.21-2.59,29.2,29.2,0,0,0-3.07-4.87c-1.16-1.59-2.43-3.19-3.61-5a21.26,21.26,0,0,1-2.93-6,14.88,14.88,0,0,1-.26-7.11,19.88,19.88,0,0,1,2.59-6.42c2.38-3.86,5.44-6.72,7.59-9.7a17.65,17.65,0,0,0,2.5-4.49,19.15,19.15,0,0,0,1.07-5,31,31,0,0,0-1-10.68,24.76,24.76,0,0,0-4.59-9.24c-1.12-1.36-2.47-2.77-3.87-4.26a57.26,57.26,0,0,1-4.25-5,22.73,22.73,0,0,1-3.56-6.72,15.52,15.52,0,0,1-.15-8.71q.35-1,.72-2l.19-.49.19-.4.38-.78c.25-.54.52-1,.8-1.55s.55-1,.87-1.51a46.7,46.7,0,0,1,3.92-5.52c2.78-3.43,5.73-6.36,8.32-9.22,1.31-1.43,2.53-2.83,3.62-4.26a24.78,24.78,0,0,0,2.69-4.13Z"/><path class="cls-24" d="M1062.6,64l.82,2.64,1,3a28,28,0,0,1,.95,4,20,20,0,0,1,.22,2.1c0,.62.06,1.3,0,1.86,0,2.32-.26,4.26-.46,6.22l-.31,2.87-.17,1.43c0,.26-.06.41-.07.77s0,.76-.07,1.13a21.88,21.88,0,0,1-2.19,7.4c-.93,2-1.86,3.6-2.5,5a9.51,9.51,0,0,0-1,3.17,5,5,0,0,0,.69,2.75,20.24,20.24,0,0,0,2.66,3.69c1.13,1.34,2.46,2.75,3.8,4.37a26.45,26.45,0,0,1,3.81,5.81c.15.31.24.54.33.77l.28.7c.2.47.38.94.55,1.41.36.94.68,1.89,1,2.83a84,84,0,0,1,3,11.58,59,59,0,0,1,1,12.08c0,.51-.05,1-.08,1.55l0,.78-.1.86a21.08,21.08,0,0,1-.69,3.26c-.59,2-1.3,3.8-1.82,5.44a14.82,14.82,0,0,0-.8,4.61,23.22,23.22,0,0,0,.69,5,41.3,41.3,0,0,0,4,9.9,49.13,49.13,0,0,0,6.29,8.9c4.86,5.56,10.69,10.45,16.11,15.8s10.47,11.32,13.25,18.41c-3.34-6.85-8.72-12.28-14.46-17.09s-11.93-9.25-17.49-14.67a52.87,52.87,0,0,1-7.52-9,46.23,46.23,0,0,1-5.3-10.73,29.1,29.1,0,0,1-1.34-6.12,20.33,20.33,0,0,1,.56-6.6c.47-2,1-3.81,1.36-5.45a15.38,15.38,0,0,0,.3-2.32l0-.55V153c0-.43,0-.85,0-1.28a63.64,63.64,0,0,0-5.19-20.56c-.36-.81-.71-1.63-1.09-2.43-.19-.4-.38-.81-.58-1.2l-.3-.59c-.1-.21-.2-.4-.26-.51a17.46,17.46,0,0,0-2.74-3.41c-1.17-1.21-2.53-2.46-4-3.9a31,31,0,0,1-4.35-5.2,16.13,16.13,0,0,1-2.64-8,16.38,16.38,0,0,1,.37-4.28,26.15,26.15,0,0,1,1-3.54c.79-2.11,1.62-3.85,2.17-5.35a9.55,9.55,0,0,0,.8-3.48,2.83,2.83,0,0,0,0-.29l-.08-.64-.2-1.41-.4-2.8c-.28-1.82-.56-3.66-.93-5.11-.08-.39-.19-.64-.28-1a4.84,4.84,0,0,0-.32-.68c-.21-.4-.44-.71-.83-1.33l-1.35-2.14-1.55-2.51Z"/><path class="cls-24" d="M840.13,67.44c-.28,7.9-1.17,15.37-1.75,22.53-.15,1.79-.26,3.55-.36,5.31s-.15,3.76-.12,4.51a3.26,3.26,0,0,0,.07.72c0,.22,0,.48.1.69a7.68,7.68,0,0,0,.4,1.2,6.29,6.29,0,0,0,.61,1.14c.12.19.3.36.44.55l.22.28.29.27a17.9,17.9,0,0,0,6.86,3.76,41.19,41.19,0,0,0,4.6,1.19c.79.17,1.61.31,2.43.44l.6.1.44.06,1,.08c1.51.08,3.27.06,5.06,0l5.58-.15a84.36,84.36,0,0,1,12,.38,33.52,33.52,0,0,1,6.57,1.4,22,22,0,0,1,3.49,1.48,16.64,16.64,0,0,1,3.44,2.52,13.63,13.63,0,0,1,2.72,3.68,17,17,0,0,1,.85,2.09,16.64,16.64,0,0,1,.48,2.1,16,16,0,0,1,.18,2v1.86a21.12,21.12,0,0,1-.55,3.66,29.92,29.92,0,0,1-2.34,6.13c-.19.39-.41.82-.55,1.14l-.23.51c-.08.18-.11.29-.17.43l-.17.41c0,.1,0,.2-.07.3a2,2,0,0,0-.1.48c-.06.15,0,.26,0,.4s.1.32.12.49a5.79,5.79,0,0,0,.81,1.42,13.87,13.87,0,0,0,1.38,1.65l.18.21.3.3c.19.21.39.4.58.61.38.42.75.86,1.11,1.31a16.43,16.43,0,0,1,3.28,6.67,9.51,9.51,0,0,1-.14,4.77,7.57,7.57,0,0,1-1.35,2.55,7.67,7.67,0,0,1-2.21,1.84A9.32,9.32,0,0,1,891.7,164a15.29,15.29,0,0,1-3.66-.48,25.62,25.62,0,0,1-5.94-2.4,31.88,31.88,0,0,0-4.45-2.21,10.3,10.3,0,0,0-2.06-.49,22.38,22.38,0,0,0-2.37-.14c-3.3,0-7,.76-11.12.72l1-.2a60.09,60.09,0,0,0-8.39,3.4,13.38,13.38,0,0,0-3.25,2.33,4.78,4.78,0,0,0-.6.69,4.64,4.64,0,0,0-.51.74,2.86,2.86,0,0,0-.45,1.3c0,.48.08,1.34.08,2.28a11.87,11.87,0,0,1-.35,2.77,23.56,23.56,0,0,1-1.84,4.72c-.33.71-.66,1.4-1,2.08l-.88,2.15c-.58,1.45-1.14,2.88-1.61,4.33a23.43,23.43,0,0,0-1.42,8.81,13.46,13.46,0,0,0,1.05,4.25,26.55,26.55,0,0,0,2.25,4c1.73,2.56,3.78,5,5.58,7.58a27.1,27.1,0,0,1,2.36,4.12,12.44,12.44,0,0,1,1.05,4.59,12.57,12.57,0,0,0-1.35-4.45,26.41,26.41,0,0,0-2.61-3.86c-1.94-2.44-4.15-4.67-6.12-7.19a27.39,27.39,0,0,1-2.68-4,15.18,15.18,0,0,1-1.54-4.76,25.61,25.61,0,0,1,.84-9.77c.39-1.57.86-3.11,1.34-4.62l.75-2.26c.27-.79.56-1.54.85-2.27a21.82,21.82,0,0,0,1.3-4.15,7.7,7.7,0,0,0,.1-1.9c0-.63-.21-1.33-.25-2.42a7,7,0,0,1,.19-1.69,8.33,8.33,0,0,1,.56-1.51,10.44,10.44,0,0,1,.72-1.27,10.19,10.19,0,0,1,.87-1.15,17.52,17.52,0,0,1,4.11-3.47,65.22,65.22,0,0,1,8.76-4.34l.38-.16.6,0c3.3-.17,6.85-1.17,11-1.5a27.68,27.68,0,0,1,3.17-.05,16.89,16.89,0,0,1,3.38.54,36,36,0,0,1,5.69,2.27,18.3,18.3,0,0,0,4.43,1.45,7.19,7.19,0,0,0,1.85.11c.5,0,.84-.19.82-.24s-.21.14-.22.13a4.34,4.34,0,0,0-.15-.71,8.85,8.85,0,0,0-1.91-3c-.24-.26-.49-.51-.75-.76s-.27-.24-.41-.36l-.2-.19-.3-.28a22.94,22.94,0,0,1-2.36-2.44,15.13,15.13,0,0,1-2.14-3.25,16.84,16.84,0,0,1-.77-2.13,12.75,12.75,0,0,1-.32-2.36,11.06,11.06,0,0,1,.15-2.27l.19-1.06.26-.91c.09-.29.18-.63.28-.88l.28-.78c.2-.54.37-1,.55-1.4a19.84,19.84,0,0,0,1.35-4.31,10.49,10.49,0,0,0,.13-1.84c0-.31-.06-.61-.08-.92a4.45,4.45,0,0,0-.13-.75,2.73,2.73,0,0,0-1.11-1.72,4.9,4.9,0,0,0-1.09-.64,11.72,11.72,0,0,0-1.67-.54,22.88,22.88,0,0,0-4.33-.56,75.24,75.24,0,0,0-10.21.43l-5.5.55c-1.89.18-3.83.37-6,.42-.57,0-1.13,0-1.75,0l-1,0-.77-.07c-1-.08-2-.18-3.06-.33a52.74,52.74,0,0,1-6.24-1.15,32.06,32.06,0,0,1-12.82-6.1,22.22,22.22,0,0,1-8-14.3A60.16,60.16,0,0,1,821.9,95c0-1.94,0-3.88,0-5.78.07-7.62.4-14.92.14-21.81Z"/><path class="cls-24" d="M759.12,75.21a14.13,14.13,0,0,1,.61,2.73c.11.82.16,1.59.21,2.37.08,1.53,0,3,0,4.52a52.58,52.58,0,0,1-1.22,8.86,33.74,33.74,0,0,1-1.35,4.41c-.62,1.58-1.28,2.67-1.84,3.87a17.68,17.68,0,0,0-2,7,7.4,7.4,0,0,0,0,.82c0,.28.05.47.14.92a13,13,0,0,1,.25,2.42,10.3,10.3,0,0,1-1.1,4.86,10.52,10.52,0,0,1-3.19,3.63,16.11,16.11,0,0,1-4,2.09c-2.76,1-5.47,1.44-7.74,2.9a13.16,13.16,0,0,0-3,2.69l-2.77,3.16,2.35-3.49a13.8,13.8,0,0,1,2.85-3.22c2.27-1.9,5.16-2.76,7.51-4s4.41-2.94,5.16-5.08a6.89,6.89,0,0,0,.32-3.32,10.69,10.69,0,0,0-.4-1.72c-.08-.23-.21-.72-.32-1.13s-.18-.84-.22-1.25a16.52,16.52,0,0,1,.2-4.84,31.76,31.76,0,0,1,1.15-4.42c.46-1.4,1-2.84,1.38-3.87a28.23,28.23,0,0,0,.87-3.68,45,45,0,0,0,.58-7.81c0-1.3-.09-2.61-.23-3.86-.08-.62-.16-1.24-.28-1.79a7.82,7.82,0,0,0-.37-1.36Z"/></g><g id="Layer_122" data-name="Layer 122"><text class="cls-17" transform="translate(767.09 261.8)"><tspan class="cls-6">w</tspan><tspan x="32.56" y="0">ell</tspan><tspan class="cls-7" x="74.52" y="0">-</tspan><tspan x="90.52" y="0">agg</tspan><tspan class="cls-4" x="164.48" y="0">r</tspan><tspan x="176.8" y="0">ega</tspan><tspan class="cls-4" x="248.64" y="0">t</tspan><tspan x="260.08" y="0">ed</tspan></text><path class="cls-25" d="M697.05,102.36c2-3-1-7.1-4.45-5.48-2.25,1.06-4.52,4.6-2.46,6.64a6.26,6.26,0,0,0,5.8,1c1.33-.58.93-1.72,1.49-2.65"/><path class="cls-26" d="M862.56,147.78c8.65,4.52,18.71,2.89,18.64-10.1-.07-12.21-15.73-12-24.43-12.09-9.77-.09-18.22,4.79-7.66,14.21,3.35,3,9.56,5.71,13.45,8"/><path class="cls-26" d="M861.54,75.21c-4-1.82-13.26,1.48-17.78,5.47-4.27,3.78-9.39,11-7.5,17,2.53,5.13,10.62,5.33,18.33,5.66,9.53.4,19.78-3.08,29-1.38s20.16,7.2,30,2.12c16.16-8.35.95-19.64-9.42-22.49-13.31-3.67-31.42.84-42.65-6.4"/><path class="cls-26" d="M1039.21,186.66c13-5.28,21.38-5,23.23-20.1,1.38-11.33,4.87-19.83-6.66-28.16-9.49-6.86-30.08-5.53-40.15-1.5s-13.49,11-13.07,21.5c.49,12.45,9.73,22,19.49,26.35,4.17,1.88,10.83,5.46,17.16,1.91"/><path class="cls-26" d="M914.41,150.5c-8.07.85-12.79,16.61-2.38,24.93,6.82,5.45,20.29,4.85,24.22-3.87,6.42-14.26-11.25-22.88-21.84-21.06"/><path class="cls-26" d="M967.45,108.71c-8.65-4.52-18.7-2.89-18.63,10.1.06,12.21,15.73,12,24.42,12.09,9.77.09,18.23-4.79,7.67-14.21-3.36-3-9.56-5.71-13.46-8"/><path class="cls-26" d="M855.44,173.51c-27,37.87,62.81,24.92,49.19-1.58-4.8-9.35-15.65-7.39-25.89-9.34-7.34-1.4-18.72-.67-20.81,4.2-1,2.1-.95,4.4-2.49,6.72"/><path class="cls-26" d="M716.63,77.28c8.93.34,17.52-2.52,22.83,6.41,3.55,6,7.58,15.66,7.59,22.47,0,16.06-14.79,18.9-25.87,15.4-7-2.21-11.68-5.65-17.07-10-5.72-4.58-16.86-8.32-20.79-15-10.34-17.42,13.52-17.85,23-18.32,3.58-.18,6.48-1.15,10.26-1"/><path class="cls-26" d="M1021.27,110.67c7.88-7.6,28.64-28.64,12.36-38.29-4.54-2.7-20.51-2.86-25.46.64-4.37,3.08-4.92,8.8-4.06,14.08s4.43,8.87,5.48,14.17-2.45,9,1.74,11.35c4.59,2.57,11.75-1.64,12.28-5.85"/><path class="cls-26" d="M1109.58,102.51c17.21-10.16,11.91-38.11-9.19-38.22-13.83-.07-33.75,12.3-28.26,27.46,3.42,9.45,17.27,18.64,26.74,19,8.07.27,8.79-6.4,13.83-9.76"/><path class="cls-26" d="M970.17,161.4a20.12,20.12,0,0,0-8.43-.83c-1.8.22-3.12,1.26-4.66,2.35-3.1,2.18-4.85,5.42-5.93,9.61-1.56,6.1,1.53,15.81,8.07,18.66,3.46,1.52,16.44,2.47,16.37-3a12.69,12.69,0,0,0-1.33-5.12,13.53,13.53,0,0,1-1.44-5.32c-.32-3.75,0-7.74,0-11.51.25-3-.18-3.78-2.69-4.82"/><path class="cls-26" d="M1111.69,179.21c-8.93-.34-17.51,2.52-22.83-6.41-3.54-6-7.57-15.66-7.58-22.47,0-16.06,14.78-18.9,25.87-15.4,7,2.21,11.68,5.65,17.06,10,5.73,4.58,16.86,8.32,20.8,15,10.34,17.43-13.52,17.85-23,18.32-3.58.18-6.48,1.15-10.27,1"/><path class="cls-26" d="M786.59,69.83c-13,5.28-21.38,5-23.23,20.1-1.38,11.33-4.86,19.83,6.66,28.16,9.49,6.86,30.08,5.53,40.16,1.51s13.48-11,13.06-21.51c-.49-12.45-9.73-22-19.49-26.35-4.17-1.88-10.82-5.46-17.16-1.91"/><path class="cls-26" d="M822,154.46c-7.88,7.6-28.64,28.64-12.36,38.3,4.55,2.69,20.51,2.85,25.47-.65,4.37-3.08,4.91-8.8,4.05-14.08s-4.43-8.87-5.48-14.17,2.45-9-1.73-11.35c-4.6-2.57-11.75,1.64-12.29,5.85"/><path class="cls-26" d="M745.33,143.05c-14.54,8.57-10.06,32.18,7.76,32.27,11.67.06,28.49-10.39,23.86-23.18-2.89-8-14.58-15.75-22.58-16-6.82-.23-7.42,5.4-11.68,8.25"/><path class="cls-26" d="M978,72.88C1005,35,915.14,48,928.75,74.46c4.8,9.34,15.66,7.39,25.9,9.34,7.34,1.4,18.71.67,20.8-4.21,1-2.09,1-4.39,2.5-6.71"/><path class="cls-21" d="M724.89,148.72c1.38-10.84-12.47-17.91-19.59-8.83-4.66,6-6,18.7,2.4,21.41,5.23,1.69,13.84-1.22,17.15-5.21,2.82-3.39.18-5.94.42-9.24"/><path class="cls-21" d="M851.56,131c-4.28-3.18-9.85-3.17-10.93,3.85-1,6.6,7.45,7.84,12.14,8.64,5.27.89,10.25-1,5.37-7-1.56-1.91-4.67-3.91-6.58-5.48"/><path class="cls-21" d="M848.91,70.56c-23.11,10.63,23,28.88,23.77,12.6.26-5.73-5.42-7.75-9.75-11.46-3.11-2.65-8.7-5.4-11-3.65-1,.72-1.64,1.82-3,2.51"/><path class="cls-21" d="M916.26,79.32c-7.32-24.36-31.81,18.79-15.79,21.79,5.64,1,8.43-4.3,12.7-8.07,3.07-2.7,6.56-7.86,5.16-10.4-.58-1.12-1.58-1.88-2.07-3.32"/><path class="cls-21" d="M905.31,165.31c-2.34,3.78,2.89,11.09,10,9.38,4.64-1.12,8.88-7.15,6.43-11.76-4-7.55-13.65-2.8-16.41,2.38"/><path class="cls-21" d="M958.23,130.62c23.1-10.63-23-28.88-23.77-12.6-.26,5.73,5.42,7.75,9.75,11.46,3.1,2.66,8.7,5.4,11,3.65,1-.72,1.65-1.82,3-2.51"/><path class="cls-21" d="M872.2,172c-7.6-1-11.5-3.44-16.48,3.23-3.73,5-7.69,8.09-4.49,15.17,2.64,5.83,12.77,10.79,18.65,11.61s9.38-1.54,12-6.65c3.15-6,1.35-13.06-2.09-17.8-1.47-2-3.66-5.53-7.63-5.56"/><path class="cls-21" d="M898.92,141.56c5.8-1.47,21.37-5.81,16.26-14.82-1.42-2.51-9-6.92-12.26-6.61-2.91.28-4.72,2.84-5.74,5.58s-.31,5.42-1.25,8.22-3.61,3.6-2.26,5.85c1.48,2.47,6,2.41,7.42.56"/><path class="cls-25" d="M902.75,133.2c-1-1.46-2.68-2.09-3.8,0s1.4,3.26,2.76,4c1.52.87,3.28.85,2.45-1.56a16.49,16.49,0,0,0-1.41-2.43"/><path class="cls-21" d="M737,98.62c-4.06-1.79-10.58,4.41-7.9,11.19,1.76,4.43,8.32,7.8,12.55,4.73,6.92-5,.87-13.91-4.65-15.92"/><path class="cls-21" d="M702.1,125.14c-4.88.29-9.4,2.3-12.77-2.28-2.24-3-5-8.11-5.32-11.82-.87-8.73,7-11.07,13.25-9.76,3.94.84,6.66,2.46,9.82,4.52,3.36,2.19,9.62,3.63,12.11,7,6.55,8.93-6.4,10.43-11.56,11.2-1.94.29-3.47,1-5.53,1.11"/><path class="cls-21" d="M735.15,94.41c-2.34,3.77,2.9,11.09,10,9.38,4.64-1.12,8.89-7.15,6.43-11.76-4-7.56-13.65-2.81-16.41,2.38"/><path class="cls-21" d="M995.93,90.61c-2.21,3.57,2.74,10.49,9.44,8.88,4.39-1.06,8.41-6.77,6.09-11.13-3.79-7.15-12.92-2.66-15.53,2.25"/><path class="cls-21" d="M955.06,165.14c-3.46-.88-7.81,4.91-4.78,9.94,2,3.29,7.64,5.09,10.58,2.09,4.83-4.91-1.15-11.16-5.8-12"/><path class="cls-21" d="M964.54,177.39c.65,6,2.78,22,12.41,18.16,2.69-1.06,8.1-7.91,8.25-11.22.13-2.92-2.16-5.07-4.73-6.46s-5.31-1.06-8-2.38-3.07-4.08-5.48-3.05c-2.65,1.12-3.23,5.62-1.59,7.26"/><path class="cls-21" d="M808.9,67.4c4.15,2.58,9,3.56,9.1,9.24.06,3.79-.66,9.49-2.5,12.72-4.35,7.63-12.15,5-16.46.29-2.73-3-4-5.85-5.39-9.36-1.48-3.73-5.75-8.53-5.81-12.75-.18-11.07,11.26-4.8,15.91-2.44,1.75.89,3.39,1.22,5.15,2.3"/><path class="cls-21" d="M799.93,116.94c-.65-6-2.79-22-12.41-18.17-2.69,1.06-8.1,7.91-8.25,11.22-.13,2.93,2.15,5.07,4.72,6.47s5.32,1.06,8,2.38,3.07,4.07,5.49,3c2.65-1.13,3.22-5.63,1.59-7.27"/><path class="cls-21" d="M762,94.22c-4.91,2.08-7.72,6.89-2.21,11.37,5.18,4.22,10.54-2.46,13.59-6.1,3.43-4.09,4.31-9.36-3.33-8.17-2.43.37-5.73,2.05-8.05,2.9"/><path class="cls-21" d="M756.44,139.65c-5.8,1.47-21.36,5.81-16.26,14.82,1.42,2.51,9,6.92,12.26,6.61,2.91-.28,4.72-2.84,5.74-5.58s.31-5.41,1.25-8.22,3.61-3.6,2.26-5.85c-1.48-2.47-6-2.42-7.42-.56"/><path class="cls-21" d="M802.91,169.53c-10.93.06-16.12,14.73-6.18,20.59,6.51,3.83,19.33,3.47,20.91-5.2,1-5.41-3-13.56-7.42-16.32-3.74-2.35-5.91.61-9.22.81"/><path class="cls-21" d="M842.4,181.69c2.34-3.77-2.9-11.09-10-9.38-4.64,1.12-8.89,7.15-6.43,11.76,4,7.55,13.65,2.8,16.41-2.38"/><path class="cls-21" d="M975.82,65.47c7.32,24.36,31.8-18.8,15.79-21.79-5.65-1-8.44,4.29-12.71,8.06-3.06,2.71-6.56,7.87-5.15,10.4.58,1.13,1.58,1.89,2.07,3.33"/><path class="cls-21" d="M938.54,54.12c-1.39-1.94-6.7-2.9-9.93-2.23-3.05.63-7.43,2.65-8.18,6-.19,3.13,3.6,5.42,7.17,7.67,4.41,2.77,10.22,3.91,14.15,7.23s7.61,8.89,13.65,9.15c9.94.42,5.78-9.07,1.64-13.24-5.32-5.35-15.14-8.13-18.5-14.61"/><path class="cls-21" d="M1058.7,154.57c5,1.79,10.35.14,9.32-6.88-1-6.61-9.43-5.31-14.14-4.69-5.3.69-9.51,4-3.07,8.28,2,1.36,5.61,2.36,7.89,3.29"/><path class="cls-21" d="M1010.73,179.05c7.6,1,11.5,3.44,16.48-3.23,3.73-5,7.7-8.09,4.49-15.17-2.64-5.83-12.77-10.79-18.65-11.62s-9.38,1.55-12,6.66c-3.14,6-1.34,13.06,2.1,17.8,1.46,2,3.65,5.53,7.62,5.56"/><path class="cls-21" d="M1033.06,142.06c4.28,3.19,9.85,3.18,10.93-3.84,1-6.6-7.45-7.85-12.14-8.64-5.26-.89-10.25,1-5.36,7,1.55,1.91,4.67,3.91,6.57,5.47"/><path class="cls-21" d="M1042.67,190.07c10.93-.14,16-14.85,6-20.63-6.54-3.79-19.35-3.32-20.87,5.35-.94,5.42,3.13,13.54,7.54,16.27,3.76,2.32,5.91-.65,9.22-.88"/><path class="cls-21" d="M1100.59,100.24c-1.38,10.84,12.48,17.91,19.6,8.83,4.66-5.95,6-18.71-2.4-21.41-5.24-1.69-13.85,1.22-17.16,5.2-2.82,3.4-.17,5.94-.41,9.25"/><path class="cls-21" d="M1068.42,75.07c1.34-4.7.94-9.63,6.38-11.29,3.62-1.1,9.3-2,12.92-1.1,8.53,2.09,8.1,10.32,4.8,15.75-2.09,3.43-4.52,5.46-7.51,7.76-3.18,2.44-6.62,7.87-10.66,9.09-10.6,3.22-7.71-9.51-6.72-14.63.37-1.92.24-3.59.79-5.58"/><path class="cls-21" d="M1125.37,181.24c4.06,1.79,10.58-4.41,7.9-11.19-1.75-4.44-8.31-7.81-12.54-4.74-6.92,5-.88,13.91,4.64,15.93"/><path class="cls-21" d="M1107.76,186.68c-4.15-2.59-9-3.56-9.09-9.24-.07-3.79.65-9.49,2.5-12.72,4.35-7.63,12.15-5,16.46-.29,2.72,3,4,5.85,5.39,9.36,1.47,3.73,5.74,8.53,5.81,12.75.17,11.07-11.27,4.8-15.92,2.43-1.75-.88-3.38-1.21-5.15-2.29"/><path class="cls-21" d="M1123.32,130.19c-1.39-1.94-6.7-2.9-9.93-2.23-3.05.63-7.43,2.65-8.18,6-.19,3.13,3.6,5.42,7.17,7.67,4.41,2.78,10.21,3.91,14.15,7.23s7.61,8.89,13.65,9.15c9.93.42,5.78-9.07,1.64-13.24-5.33-5.35-15.14-8.13-18.5-14.61"/><path class="cls-25" d="M713.21,143.86c1.24-.77.79-3.69-1.55-4.23-1.52-.36-3.66.79-3.62,2.5.06,2.81,3.59,2.84,5.17,1.73"/><path class="cls-25" d="M713.28,156.75c1.83.72,6.81,2.56,7.18-.82a6.47,6.47,0,0,0-2-4.12,2.46,2.46,0,0,0-2.6.38c-.82.54-1.13,1.38-1.92,1.95s-1.65.26-1.72,1.12a1.66,1.66,0,0,0,1.86,1.58"/><path class="cls-25" d="M870.1,138.79c1.83,1.73,2.4,3.13,5,2.31,2-.61,3.61-.67,4.12-3.18.42-2.06-1.33-5.33-2.73-6.68a3.51,3.51,0,0,0-4.49-.54,5.67,5.67,0,0,0-2.87,5.14c0,.82-.09,2.18,1,2.95"/><path class="cls-25" d="M844.61,144.65c2.94,2.07,7.12-.87,5.57-4.33-1-2.27-4.51-4.61-6.58-2.59a6.23,6.23,0,0,0-1.13,5.78c.56,1.34,1.7,1,2.63,1.54"/><path class="cls-25" d="M853.8,131.32c-1.13.91-.31,3.75,2.07,4,1.56.16,3.54-1.25,3.28-2.94-.42-2.78-3.92-2.36-5.35-1.06"/><path class="cls-25" d="M863.85,140.43c-1.61,3.21,1.91,6.92,5.11,4.88,2.09-1.33,3.9-5.14,1.59-6.9a6.26,6.26,0,0,0-5.88-.26c-1.24.74-.7,1.82-1.14,2.82"/><path class="cls-25" d="M860.6,81.77c1.24-.77.79-3.69-1.54-4.23-1.53-.36-3.67.79-3.63,2.5.06,2.81,3.6,2.84,5.17,1.73"/><path class="cls-25" d="M844.21,95.92c1.83.72,6.81,2.56,7.19-.82a6.53,6.53,0,0,0-2-4.12,2.46,2.46,0,0,0-2.6.38c-.81.54-1.12,1.38-1.91,2s-1.66.26-1.73,1.12A1.67,1.67,0,0,0,845,96"/><path class="cls-25" d="M861.81,93.54c-.76.2-1.66,1.73-1.82,2.8s0,2.59.92,3.21c1,.41,2.08-.49,3.18-1.33,1.36-1,2.38-2.71,3.85-3.54s3.61-1.33,4.38-3.16c1.26-3-2.14-2.82-3.89-2-2.26,1-4.24,3.74-6.62,4"/><path class="cls-25" d="M886.35,92.77c-.61-1.49-1.71-2.68-.64-4.21a9.48,9.48,0,0,1,3.11-2.91c2.63-1.19,4.19,1,4.44,3.09a9.09,9.09,0,0,1-.36,3.54c-.33,1.27-.12,3.37-.91,4.51-2.09,3-3.92-.89-4.71-2.42-.29-.57-.67-1-.93-1.6"/><path class="cls-25" d="M907.44,95.45c-.69,1.84-2.43,6.86,1,7.16a6.45,6.45,0,0,0,4.07-2.07,2.47,2.47,0,0,0-.43-2.6c-.56-.8-1.4-1.09-2-1.87s-.3-1.65-1.16-1.71a1.67,1.67,0,0,0-1.54,1.9"/><path class="cls-25" d="M877.16,82.51c-1.83-1.73-2.4-3.12-5-2.31-2,.62-3.61.68-4.12,3.18-.42,2.06,1.33,5.33,2.73,6.68a3.5,3.5,0,0,0,4.49.55,5.69,5.69,0,0,0,2.87-5.15c0-.82.09-2.17-1-2.95"/><path class="cls-25" d="M1033.81,159.72c.21,2,.9,7.22,4.06,6a6.43,6.43,0,0,0,2.72-3.68,2.46,2.46,0,0,0-1.54-2.13c-.86-.46-1.75-.35-2.62-.79s-1-1.34-1.8-1a1.67,1.67,0,0,0-.52,2.39"/><path class="cls-25" d="M1048.44,145.66c-1.7,1.86-3.08,2.46-2.21,5.05.65,1.94.74,3.59,3.26,4,2.07.38,5.3-1.43,6.62-2.86a3.51,3.51,0,0,0,.46-4.5,5.66,5.66,0,0,0-5.2-2.76c-.82,0-2.18,0-2.93,1"/><path class="cls-25" d="M1023.63,160.42c-1.35,1.11-1.8,2.88.36,3.79s3.09-1.75,3.72-3.18c.7-1.61.49-3.35-1.81-2.27a15.69,15.69,0,0,0-2.27,1.66"/><path class="cls-25" d="M1040.88,181.3c.77,1.57,2.39,2.41,3.77.53s-1-3.42-2.23-4.36c-1.4-1.05-3.14-1.26-2.62,1.23a16.23,16.23,0,0,0,1.08,2.6"/><path class="cls-25" d="M1056.36,168.45c.77,1.58,2.39,2.42,3.77.53s-1-3.41-2.23-4.35c-1.4-1.06-3.14-1.26-2.63,1.23a17.15,17.15,0,0,0,1.09,2.59"/><path class="cls-25" d="M997.27,161.76c-.69,1.84-2.43,6.86,1,7.17a6.56,6.56,0,0,0,4.08-2.08,2.47,2.47,0,0,0-.44-2.6c-.55-.8-1.4-1.09-2-1.87s-.3-1.65-1.16-1.71a1.67,1.67,0,0,0-1.54,1.9"/><path class="cls-25" d="M1010.51,149.61c-1.45,8.23,12.11-.82,7.85-4.07-1.5-1.14-3.11,0-4.92.49-1.3.35-3.09,1.34-3.05,2.3a7.05,7.05,0,0,1,.12,1.28"/><path class="cls-25" d="M1011.25,167.25c-2,3,1,7.1,4.45,5.48,2.25-1.06,4.52-4.6,2.46-6.64a6.24,6.24,0,0,0-5.8-1c-1.33.58-.93,1.72-1.49,2.65"/><path class="cls-25" d="M1036.13,138c-.73-1.25-3.66-.86-4.25,1.46-.39,1.52.71,3.68,2.43,3.68,2.81,0,2.91-3.54,1.82-5.14"/><path class="cls-25" d="M923.71,155.16c-.76.2-1.66,1.73-1.83,2.8s0,2.59.93,3.21c.94.42,2.08-.49,3.18-1.33,1.36-1,2.37-2.7,3.85-3.54s3.6-1.32,4.37-3.16c1.27-3-2.13-2.81-3.89-2-2.26,1-4.23,3.73-6.61,4"/><path class="cls-25" d="M929.65,165.88c-1.83-1.74-2.4-3.13-5-2.31-2,.61-3.61.67-4.12,3.17-.42,2.06,1.33,5.33,2.73,6.68a3.5,3.5,0,0,0,4.49.55,5.67,5.67,0,0,0,2.87-5.14c0-.83.09-2.18-1-3"/><path class="cls-25" d="M915.44,149.72c-.74-1.26-3.67-.86-4.26,1.46-.38,1.51.72,3.68,2.43,3.67,2.81,0,2.91-3.53,1.83-5.13"/><path class="cls-25" d="M977.6,121.08c-.78,0-2,1.26-2.46,2.26s-.67,2.5.1,3.34c.81.63,2.14,0,3.41-.5,1.58-.67,3-2,4.6-2.47s3.83-.4,5-2c2-2.61-1.37-3.26-3.27-2.92-2.44.44-5,2.57-7.41,2.27"/><path class="cls-25" d="M947.36,121.4c-1.59.73-2.46,2.34-.61,3.76s3.44-.92,4.4-2.15,1.32-3.11-1.18-2.65a16.13,16.13,0,0,0-2.61,1"/><path class="cls-25" d="M975.15,108c-2.93-2.06-7.12.88-5.57,4.34,1,2.27,4.51,4.61,6.59,2.59a6.25,6.25,0,0,0,1.12-5.78c-.55-1.34-1.7-1-2.62-1.54"/><path class="cls-25" d="M965,115.39c.61,1.48,1.71,2.68.64,4.21a9.48,9.48,0,0,1-3.11,2.91c-2.63,1.19-4.19-1-4.44-3.1a8.86,8.86,0,0,1,.37-3.53c.32-1.27.11-3.37.9-4.51,2.09-3,3.93.89,4.71,2.41.29.58.67,1,.93,1.61"/><path class="cls-25" d="M868.88,175.52c0-1.75-1-3.23-3.13-2.17s-.65,3.49,0,4.9c.78,1.57,2.25,2.53,2.9.07a16.27,16.27,0,0,0,.19-2.8"/><path class="cls-25" d="M851.47,196.12c0,.78,1.22,2.06,2.21,2.5s2.49.72,3.34,0c.65-.8.08-2.14-.43-3.42-.64-1.59-2-3-2.38-4.65s-.32-3.84-1.88-5.07c-2.56-2-3.28,1.3-3,3.21.39,2.45,2.47,5.08,2.12,7.46"/><path class="cls-25" d="M882.49,172.15c1.38-.82,2.4-2.09,4.07-1.26a9.38,9.38,0,0,1,3.33,2.66c1.57,2.42-.39,4.29-2.4,4.84a9.09,9.09,0,0,1-3.55.16c-1.31-.14-3.36.38-4.6-.24-3.25-1.62.31-4,1.7-5,.52-.37.87-.8,1.45-1.15"/><path class="cls-25" d="M889.19,183.9c-.73-1.25-3.66-.86-4.25,1.46-.39,1.52.71,3.68,2.43,3.68,2.81,0,2.91-3.54,1.82-5.14"/><path class="cls-25" d="M876,160.1c-2.94-2.06-7.12.88-5.58,4.34,1,2.27,4.52,4.61,6.59,2.59a6.25,6.25,0,0,0,1.12-5.78c-.55-1.34-1.7-1-2.62-1.54"/><path class="cls-25" d="M882.31,193.08c-1.83-1.74-2.41-3.13-5-2.32-1.95.62-3.6.68-4.11,3.18-.42,2.06,1.32,5.33,2.73,6.68a3.5,3.5,0,0,0,4.49.55,5.64,5.64,0,0,0,2.86-5.14c0-.83.1-2.18-1-2.95"/><path class="cls-25" d="M902.52,128c.74,1.26,3.67.87,4.26-1.45.39-1.52-.71-3.68-2.43-3.68-2.81,0-2.91,3.54-1.83,5.13"/><path class="cls-25" d="M915.05,127.36c1.59-.74,2.46-2.35.61-3.76s-3.44.91-4.4,2.14c-1.09,1.38-1.32,3.12,1.18,2.65a17,17,0,0,0,2.61-1"/><path class="cls-25" d="M730.7,113.34c1.25-.76.79-3.68-1.54-4.22-1.53-.36-3.66.78-3.63,2.5.07,2.81,3.6,2.84,5.17,1.72"/><path class="cls-25" d="M730.1,93.68c1.36-1.11,1.8-2.89-.35-3.79s-3.1,1.75-3.72,3.18c-.71,1.61-.5,3.35,1.8,2.27a15.9,15.9,0,0,0,2.27-1.66"/><path class="cls-25" d="M715.3,111.12c2-3-1-7.1-4.45-5.48-2.25,1-4.52,4.6-2.46,6.63a6.24,6.24,0,0,0,5.8,1c1.33-.58.93-1.72,1.49-2.66"/><path class="cls-25" d="M710.09,97.41c-1.48.64-2.65,1.76-4.2.73a9.53,9.53,0,0,1-3-3.06c-1.24-2.6.93-4.21,3-4.5a8.91,8.91,0,0,1,3.54.3c1.28.3,3.38,0,4.53.81,3,2-.81,3.94-2.32,4.76-.57.3-1,.68-1.58,1"/><path class="cls-25" d="M722.93,124.62c1.83.72,6.81,2.56,7.18-.82a6.49,6.49,0,0,0-2-4.12,2.5,2.5,0,0,0-2.61.38c-.81.54-1.12,1.38-1.91,2s-1.65.27-1.73,1.13a1.67,1.67,0,0,0,1.87,1.57"/><path class="cls-25" d="M712.09,87.7c-1.45,2.06-2.74,2.84-1.55,5.3.89,1.84,1.2,3.46,3.75,3.6,2.1.11,5.08-2.09,6.21-3.68a3.5,3.5,0,0,0-.12-4.52,5.67,5.67,0,0,0-5.51-2.08c-.81.12-2.16.23-2.78,1.38"/><path class="cls-25" d="M696.47,89.69c.95,1.47,2.67,2.1,3.8.06s-1.41-3.27-2.76-4c-1.53-.87-3.28-.85-2.45,1.55a15.64,15.64,0,0,0,1.41,2.43"/><path class="cls-25" d="M723.61,81.09c-1.59-.16-3.16.25-4-1.41a9.41,9.41,0,0,1-1.1-4.11c.18-2.88,2.86-3.22,4.81-2.47a9,9,0,0,1,3,2c1,.89,2.93,1.68,3.56,2.92,1.65,3.24-2.63,3-4.34,3-.65,0-1.18.13-1.86.07"/><path class="cls-25" d="M744.75,88.84c1.62-3.2-1.9-6.91-5.1-4.87-2.1,1.33-3.9,5.14-1.6,6.89a6.25,6.25,0,0,0,5.89.27c1.24-.75.7-1.83,1.13-2.82"/><path class="cls-25" d="M1078.92,78.92c-1.25.77-.79,3.69,1.54,4.23,1.53.36,3.67-.79,3.63-2.5-.07-2.81-3.6-2.84-5.17-1.73"/><path class="cls-25" d="M1082.13,102.45c-1.24.76-.79,3.68,1.54,4.22,1.53.36,3.67-.78,3.63-2.5-.06-2.81-3.59-2.84-5.17-1.72"/><path class="cls-25" d="M1115.34,100.3c-1.24.76-.79,3.68,1.54,4.22,1.53.36,3.67-.78,3.63-2.5-.06-2.81-3.6-2.84-5.17-1.72"/><path class="cls-25" d="M1031.23,88.8c-1.36,1.11-1.8,2.89.35,3.79s3.1-1.75,3.72-3.18c.71-1.61.5-3.35-1.8-2.27a16.48,16.48,0,0,0-2.27,1.66"/><path class="cls-25" d="M1096.91,97.75c-1.48,1-2.11,2.67-.08,3.81s3.27-1.39,4.06-2.74c.88-1.52.87-3.28-1.54-2.46a15.17,15.17,0,0,0-2.44,1.39"/><path class="cls-25" d="M1004,87.56c-.74-1.25-3.67-.86-4.26,1.46-.38,1.52.71,3.68,2.43,3.68,2.81,0,2.91-3.54,1.83-5.14"/><path class="cls-25" d="M1012.24,102.31c-.74-1.26-3.67-.86-4.26,1.46-.39,1.52.71,3.68,2.43,3.68,2.81,0,2.91-3.54,1.83-5.14"/><path class="cls-25" d="M1114.67,76.21c-1.83-.73-6.81-2.57-7.18.81a6.44,6.44,0,0,0,2,4.12,2.44,2.44,0,0,0,2.6-.38c.81-.54,1.13-1.38,1.92-1.94s1.65-.27,1.72-1.13a1.67,1.67,0,0,0-1.86-1.58"/><path class="cls-25" d="M1019.29,86.33c0-.78-1.22-2.06-2.21-2.5s-2.49-.73-3.34,0c-.65.79-.09,2.13.43,3.42.64,1.59,2,3,2.38,4.65s.31,3.83,1.87,5.06c2.57,2,3.29-1.3,3-3.21-.39-2.45-2.47-5.08-2.12-7.45"/><path class="cls-25" d="M1097.39,76.7c.61,1.48,1.71,2.68.64,4.21a9.35,9.35,0,0,1-3.11,2.9c-2.63,1.2-4.19-1-4.44-3.09a8.86,8.86,0,0,1,.37-3.53c.32-1.28.11-3.38.9-4.51,2.09-3,3.93.89,4.71,2.41a17.83,17.83,0,0,1,.93,1.61"/><path class="cls-25" d="M1020.8,80.16c-1.38.82-2.4,2.09-4.07,1.26a9.5,9.5,0,0,1-3.34-2.66c-1.56-2.42.4-4.29,2.41-4.84a8.91,8.91,0,0,1,3.55-.16c1.31.14,3.36-.38,4.59.24,3.26,1.62-.3,4-1.69,5-.53.37-.87.8-1.45,1.15"/><path class="cls-25" d="M961.92,182.49c-2,3,1,7.1,4.45,5.48,2.25-1.06,4.52-4.6,2.45-6.64a6.26,6.26,0,0,0-5.8-1c-1.33.58-.93,1.72-1.48,2.65"/><path class="cls-25" d="M973.9,156.28c-1.82-1.74-2.4-3.13-5-2.31-1.95.61-3.6.67-4.11,3.17-.42,2.06,1.32,5.33,2.73,6.68a3.5,3.5,0,0,0,4.49.55,5.64,5.64,0,0,0,2.86-5.14c0-.82.09-2.18-1-2.95"/><path class="cls-25" d="M1098.64,164.1c1.47-.64,2.64-1.77,4.19-.73a9.39,9.39,0,0,1,3,3c1.25,2.61-.93,4.21-3,4.5a8.91,8.91,0,0,1-3.54-.29c-1.28-.3-3.37,0-4.53-.82-3-2,.81-3.94,2.32-4.75a17.63,17.63,0,0,1,1.59-1"/><path class="cls-25" d="M1128.32,163.29c-8.2-1.62.58,12.12,3.9,7.93,1.18-1.48,0-3.11-.39-4.93-.31-1.3-1.27-3.11-2.23-3.09a7.28,7.28,0,0,1-1.28.09"/><path class="cls-25" d="M1109.74,155.66c1.45-2.06,2.75-2.84,1.56-5.3-.9-1.84-1.2-3.46-3.75-3.6-2.1-.11-5.08,2.09-6.21,3.68a3.5,3.5,0,0,0,.12,4.52A5.69,5.69,0,0,0,1107,157c.81-.12,2.16-.23,2.77-1.38"/><path class="cls-25" d="M1124.86,155.22c-1-1.47-2.68-2.09-3.81-.05s1.41,3.26,2.76,4c1.53.87,3.28.85,2.45-1.56a16.42,16.42,0,0,0-1.4-2.43"/><path class="cls-25" d="M1092.43,151.32c1.38-1.08,1.86-2.85-.26-3.8s-3.14,1.68-3.8,3.1c-.74,1.59-.57,3.33,1.76,2.31a17,17,0,0,0,2.3-1.61"/><path class="cls-25" d="M1121.18,141.36c1.19-1.07,2-2.51,3.75-2a9.45,9.45,0,0,1,3.78,2c2,2.08.43,4.29-1.44,5.22a9.18,9.18,0,0,1-3.45.83c-1.31.11-3.22,1-4.56.64-3.5-1-.46-4,.71-5.24.45-.47.7-1,1.21-1.41"/><path class="cls-25" d="M803.07,106.62c1.7-1.87,3.08-2.47,2.21-5.06-.65-1.94-.75-3.59-3.26-4-2.07-.38-5.3,1.43-6.62,2.87a3.49,3.49,0,0,0-.46,4.49,5.66,5.66,0,0,0,5.2,2.76c.82,0,2.18.05,2.93-1"/><path class="cls-25" d="M807.69,116.81c1.25-.76.79-3.68-1.54-4.23-1.53-.35-3.67.79-3.63,2.5.07,2.81,3.6,2.84,5.17,1.73"/><path class="cls-25" d="M810,81.41c1.24-.76.78-3.68-1.55-4.22-1.52-.36-3.66.78-3.62,2.5.06,2.81,3.59,2.84,5.17,1.72"/><path class="cls-25" d="M775.45,104.37c-.77-1.58-2.39-2.42-3.77-.54s1,3.42,2.23,4.36,3.14,1.26,2.62-1.23a16.68,16.68,0,0,0-1.08-2.59"/><path class="cls-25" d="M799.59,75.36c.69-1.84,2.43-6.86-1-7.16a6.45,6.45,0,0,0-4.07,2.07,2.45,2.45,0,0,0,.43,2.6c.55.8,1.4,1.09,2,1.87s.3,1.65,1.16,1.71a1.67,1.67,0,0,0,1.54-1.9"/><path class="cls-25" d="M822.55,103.68c1.45-8.23-12.11.82-7.85,4.06,1.5,1.14,3.11,0,4.92-.49,1.29-.34,3.08-1.34,3-2.29a7.27,7.27,0,0,1-.11-1.28"/><path class="cls-25" d="M778.38,93.46c8.2,1.61-.57-12.13-3.9-7.93-1.18,1.47-.05,3.11.39,4.93.31,1.3,1.28,3.11,2.23,3.09a6.43,6.43,0,0,1,1.28-.09"/><path class="cls-25" d="M782.5,81.89c-1.14.91-.31,3.75,2.07,4,1.56.16,3.53-1.24,3.28-2.94-.42-2.78-3.93-2.36-5.35-1"/><path class="cls-25" d="M765.84,96.24c-1.39-.42-3.27,1.87-2.12,4,.75,1.37,3,2.21,4.28,1,2.06-1.92-.28-4.58-2.16-5"/><path class="cls-25" d="M789.08,100.33c-1.47.64-2.64,1.77-4.19.73a9.39,9.39,0,0,1-3-3c-1.25-2.6.93-4.21,3-4.5a8.91,8.91,0,0,1,3.54.29c1.28.3,3.37,0,4.53.82,3,2-.81,3.94-2.32,4.75a17.63,17.63,0,0,1-1.59,1"/><path class="cls-25" d="M761.6,172.51c.9-.55.57-2.65-1.12-3-1.1-.25-2.64.57-2.61,1.81,0,2,2.59,2,3.73,1.24"/><path class="cls-25" d="M747.3,170.71c1.24-.77.78-3.69-1.55-4.23-1.53-.36-3.66.78-3.62,2.5.06,2.81,3.59,2.84,5.17,1.73"/><path class="cls-25" d="M771.57,156.9c0-1.75-1.05-3.23-3.13-2.16s-.65,3.49,0,4.89c.78,1.57,2.25,2.53,2.9.08a16.39,16.39,0,0,0,.19-2.81"/><path class="cls-25" d="M763.4,152.88c-1.48.64-2.65,1.77-4.2.73a9.5,9.5,0,0,1-3-3.05c-1.24-2.6.94-4.21,3-4.5a8.91,8.91,0,0,1,3.54.29c1.28.3,3.38.05,4.53.82,3,2-.81,3.94-2.32,4.75a17.45,17.45,0,0,1-1.58,1"/><path class="cls-25" d="M810.49,169.62c-1.54-.44-3.16-.31-3.71-2.09a9.48,9.48,0,0,1-.36-4.25c.68-2.8,3.38-2.67,5.17-1.59a9.11,9.11,0,0,1,2.55,2.47c.8,1,2.59,2.17,3,3.5,1.06,3.48-3.12,2.54-4.8,2.21-.63-.12-1.18-.07-1.84-.25"/><path class="cls-25" d="M818.46,158.75c1.83.72,6.81,2.56,7.19-.82a6.53,6.53,0,0,0-2-4.12,2.46,2.46,0,0,0-2.6.38c-.81.54-1.12,1.38-1.91,1.95s-1.66.26-1.73,1.12a1.68,1.68,0,0,0,1.87,1.58"/><path class="cls-25" d="M751.13,166.44c8.2,1.61-.58-12.13-3.91-7.94-1.17,1.48-.05,3.11.39,4.93.32,1.31,1.28,3.11,2.23,3.09a6.57,6.57,0,0,1,1.29-.08"/><path class="cls-25" d="M770.19,167.13c1,1.47,2.68,2.1,3.81.06s-1.41-3.27-2.77-4c-1.52-.88-3.27-.85-2.45,1.55a17.43,17.43,0,0,0,1.41,2.43"/><path class="cls-25" d="M835.52,190c.78,0,2-1.26,2.46-2.26s.67-2.5-.1-3.34c-.81-.64-2.13,0-3.41.5-1.58.67-3,2-4.6,2.47s-3.83.4-5,2c-2,2.61,1.37,3.26,3.27,2.92,2.45-.44,5-2.57,7.41-2.27"/><path class="cls-25" d="M805.22,183.56c-.34.22-.34,1.11-.09,1.67a2.61,2.61,0,0,0,1.52,1.46c.64.07,1-.55,1.3-1.14s.42-1.7.95-2.33,1.53-1.21,1.36-2.24c-.27-1.69-2-1.08-2.75-.42-.89.85-1.09,2.5-2.29,3"/><path class="cls-25" d="M945.28,59.57c-1.24.76-.79,3.68,1.55,4.23,1.52.35,3.66-.79,3.62-2.51-.06-2.8-3.59-2.83-5.17-1.72"/><path class="cls-25" d="M975.24,58.26c-1.83-.73-6.81-2.57-7.18.81a6.44,6.44,0,0,0,2,4.12,2.44,2.44,0,0,0,2.6-.38c.82-.54,1.13-1.38,1.92-1.94s1.65-.27,1.72-1.13a1.67,1.67,0,0,0-1.86-1.58"/><path class="cls-25" d="M971.85,77.64c1.14-.91.32-3.75-2.07-4-1.56-.16-3.53,1.25-3.28,3,.42,2.77,3.93,2.36,5.35,1"/><path class="cls-25" d="M962.85,62.66c1.62-3.21-1.9-6.92-5.1-4.88-2.1,1.33-3.9,5.14-1.6,6.9a6.28,6.28,0,0,0,5.89.26c1.24-.75.7-1.82,1.13-2.82"/><path class="cls-25" d="M965,77.11c-1.38.82-2.4,2.09-4.07,1.25a9.33,9.33,0,0,1-3.33-2.65c-1.56-2.42.39-4.29,2.41-4.84a8.89,8.89,0,0,1,3.55-.16c1.31.13,3.35-.38,4.59.24,3.26,1.62-.3,4-1.7,5-.52.37-.86.8-1.45,1.15"/><path class="cls-25" d="M940.43,75.8c.45-1.91,1.54-7.11-1.86-7a6.55,6.55,0,0,0-3.78,2.58,2.46,2.46,0,0,0,.76,2.52c.65.72,1.53.91,2.2,1.61s.51,1.59,1.37,1.54A1.67,1.67,0,0,0,940.41,75"/><path class="cls-25" d="M926.28,55.23c-.45,1.91-1.54,7.11,1.86,7a6.48,6.48,0,0,0,3.79-2.57,2.47,2.47,0,0,0-.76-2.52c-.66-.73-1.53-.91-2.21-1.61s-.5-1.6-1.36-1.55A1.67,1.67,0,0,0,926.31,56"/></g></g></g></svg>