<svg id="Layer_1" data-name="Layer 1" xmlns="http://www.w3.org/2000/svg" xmlns:xlink="http://www.w3.org/1999/xlink" viewBox="0 0 647.88 619.13"><defs><style>.cls-1,.cls-18,.cls-22,.cls-24{fill:none;}.cls-2{fill:#5b5052;stroke-width:2px;}.cls-14,.cls-2{stroke:#ffcf01;}.cls-11,.cls-12,.cls-13,.cls-14,.cls-15,.cls-17,.cls-18,.cls-19,.cls-2,.cls-20,.cls-24,.cls-8{stroke-miterlimit:10;}.cls-3{clip-path:url(#clip-path);}.cls-4{fill:#81a1c5;}.cls-5{fill:#4e7383;}.cls-17,.cls-6{fill:#2e61a2;}.cls-7{fill:#5c5052;}.cls-8{fill:#6d54a3;stroke:#ec6a7c;}.cls-12,.cls-8{stroke-width:1.03px;}.cls-21,.cls-25,.cls-26,.cls-9{isolation:isolate;}.cls-10,.cls-21,.cls-25,.cls-26{fill:#fff;}.cls-11{fill:#ec6a7c;stroke-width:0.21px;}.cls-11,.cls-13,.cls-15,.cls-17,.cls-22,.cls-23{stroke:#fff;}.cls-12{fill:#3caba2;}.cls-12,.cls-16{stroke:#2e61a2;}.cls-13{fill:#2e6289;stroke-width:0.34px;}.cls-14{fill:#f37243;stroke-width:0.75px;}.cls-15,.cls-16,.cls-23{fill:#ffcf01;}.cls-15{stroke-width:0.2px;}.cls-16{stroke-miterlimit:10;stroke-width:1.16px;}.cls-17{stroke-width:0.35px;}.cls-18,.cls-24{stroke:#5b5052;}.cls-18,.cls-23{stroke-linecap:round;}.cls-18{stroke-width:0.65px;}.cls-19{fill:#c86572;stroke:#e3b222;stroke-width:0.46px;}.cls-20{fill:#39944c;stroke:#6d54a3;stroke-width:0.56px;}.cls-21{font-size:10.9498px;font-family:Acre-Medium, Acre;font-weight:500;}.cls-22{stroke-miterlimit:10.009;stroke-width:0.6306px;}.cls-23{stroke-linejoin:round;stroke-width:0.29px;}.cls-25,.cls-26{font-size:24px;font-family:Acre-Thin, Acre;font-weight:200;}.cls-26{letter-spacing:-0.02em;}</style><clipPath id="clip-path" transform="translate(0 -0.05)"><circle class="cls-1" cx="325.08" cy="314.06" r="155"/></clipPath></defs><g id="Layer_2" data-name="Layer 2"><g id="Layer_11" data-name="Layer 11"><path class="cls-2" d="M414.5,184.45a157.88,157.88,0,0,1,67.14,144.31l49.19,63.53-79.1,15.23A157.93,157.93,0,1,1,414.5,184.45Z" transform="translate(0 -0.05)"/><g class="cls-3"><path class="cls-4" d="M439.26,587.42c3-9.41,9.32-17.65,15.69-25.07,3.35-3.89,6.84-7.66,10.28-11.48,4.16-4.61,8.14-9.38,12.27-14,6.85-7.69,13.94-15.17,21-22.67a7.82,7.82,0,0,1-2.23-6.77,13.3676,13.3676,0,0,1,2.59-5.57,52.16,52.16,0,0,1,6.16-6.79c2.88-2.82,5.82-5.59,8.92-8.17,7.07-5.88,14.69-11.07,21.95-16.71,1.41-2.92,2.7-5.89,4.1-8.81,6.64-13.84,17.89-24.89,28.37-35.88s21.42-22.06,31.05-34.05a7.41,7.41,0,0,1,6-2.77l2.17-2.71q5.31-7.68,10.72-15.29L187.97,25.86,9.81,248.24,438.17,591.4C438.47,590.07,438.83,588.74,439.26,587.42Z" transform="translate(0 -0.05)"/><path class="cls-4" d="M406.99,618.18l1,1a4.6319,4.6319,0,0,1,.66-.22l1.08-.26C408.83,618.51,407.91,618.33,406.99,618.18Z" transform="translate(0 -0.05)"/><path class="cls-4" d="M439.2,589.27a58.07,58.07,0,0,1,8-15.29c-26.79-99.88-89.66-186.28-202.14-231.7-59.38-24-116.84-31.82-167.31-19.77l.76.42c7,3.86,14.07,7.7,20.53,12.43s12.86,10.19,19.18,15.36q9.225,7.5,18.22,15.33c5.98,5.22,12,10.81,17.82,16.5a192.4259,192.4259,0,0,0,15.85,14.63c10.85,8.45,23.45,16.3,30.57,28.45a8.29,8.29,0,0,1,.87,7.18l12.7,10.18q51.54,41.28,103,82.69,12.57,10.14,25.32,20.07c8.45,6.55,17.22,12.7,25.57,19.39,4.15,3.32,8.2,6.76,12.35,10.09,2.21,1.77,4.43,3.51,6.71,5.18,1,.75,2.06,1.48,3.1,2.2l1.74,1.18c.08.05.82.51.7.45,7.25,4.3,15.15,7.31,22.34,11.68a29.31,29.31,0,0,1,11.33,5,5.7687,5.7687,0,0,1,.82.74,49.7519,49.7519,0,0,1,6.79,3.64,6.42,6.42,0,0,1,2.71,4.73h.78A45.3707,45.3707,0,0,1,439.2,589.27Z" transform="translate(0 -0.05)"/><path class="cls-4" d="M364.62,176.85c4.22-8.08,8-16.71,11.68-25.48-6.3-6-12.51-12-18.75-18.13-2.4-2.34-4.8-4.67-7.23-7-5.5-3.1-11-6.15-16.53-9.22-11.68-6.51-23.32-13.11-34.61-20.28C277.2,82.83,256.33,66.18,241.9,44.18a8.5944,8.5944,0,0,1-.5-.88c-1.53-1.12-3.06-2.23-4.61-3.32a7.94,7.94,0,0,1-6.73-1.4c-3.14-2.5-6.36-4.89-9.48-7.38l-1.17-.89c-1.83-1.32-3.68-2.6-5.58-3.82l-1.34-.84-.27-.16c-1-.59-2.1-1.17-3.16-1.73-3.78-2-5.53-5.89-4-10a7.18,7.18,0,0,1,3.35-3.58A8.33,8.33,0,0,1,210,5.74a4.7723,4.7723,0,0,1,.34-.42A84.6107,84.6107,0,0,0,202.49.05c-6.73,8.23-13.24,16.74-20.26,24.6-.46.58-2.17.16-2.63.74-28.19,33.87-55.97,68.57-82.92,103.48-.46.58.55,1.86.08,2.44-18.61,24.5-37.6,48.21-57.45,71.72l-1.24-1a55.9993,55.9993,0,0,0-10.2,12.73l1.25,1c-1,2.52-3.48,4.34-4.48,6.86l1.24,1c-1.16,3.35-3.94,4.92-5.79,9.13C15.31,243.08,7.35,251.43.01,260.18h0a7.67,7.67,0,0,1,5.5,6.41q.09.63.15,1.26a9.2213,9.2213,0,0,1,2.15,1.16,23.28,23.28,0,0,1,7.27,8.78,13.8191,13.8191,0,0,1,1.38.71c15.65,9.5,29,22,43.76,32.83,3.1,2.27,6.23,4.51,9.48,6.54l1.13.7.59.35,2.34,1.35q2.36,1.33,4.74,2.64c7,3.86,14.07,7.7,20.53,12.43s12.86,10.19,19.18,15.36q6.64,5.43,13.19,11c40.22-4.62,78.54-20.18,110.74-42.63C294.99,282.23,337.78,228.34,364.62,176.85Z" transform="translate(0 -0.05)"/><path class="cls-4" d="M643.79,347.61c1.3-1.73,2.68-3.41,4.09-5.09-1.31-1.3-2-3.47-3.46-5.11a32.1387,32.1387,0,0,0-3.12-2.61,7.55,7.55,0,0,1-1.51,5.74c-2.42,3.32-7.57,3.66-10.67,1.18-17.09-13.64-35.58-25.36-53.19-38.3a474.0049,474.0049,0,0,1-43.52-36.51c-6.9-6.47-13.79-13-20.94-19.16-.78-.67-1.55-1.33-2.34-2-16.9-8.55-33.56-17.16-48.81-28.5-18.21-13.53-37-26.22-54.83-40.28-11.44-9-22.14-18.84-32.63-28.89.31.3-.56,3.69-.65,4.23a8.1712,8.1712,0,0,1-.8,3.4c-1.62,2.57-3.84,4.59-5.21,7.38a13.62,13.62,0,0,0-1.21,9.83c.88,2.89,3,5.35,3,8.47a61.5492,61.5492,0,0,1-1.07,8.2q-.93,6.74-1.85,13.47c-.8,5.86-1.58,11.72-2.39,17.58-3.28,23.61-6.19,40-4.58,64.14,2.9,43.3,14.15,85.24,12.71,128.38-1.4,40.17-12.8,80.4,7.6,119.66,12.8,24.68,34.54,45,59.28,62.58a46.9316,46.9316,0,0,1,1.53-6.13c3-9.41,9.32-17.65,15.69-25.07,3.35-3.89,6.84-7.66,10.28-11.47,4.16-4.62,8.14-9.39,12.27-14,6.85-7.69,13.94-15.17,21-22.67a7.81,7.81,0,0,1-2.23-6.77,13.43,13.43,0,0,1,2.59-5.57,52.1454,52.1454,0,0,1,6.16-6.79c2.88-2.82,5.82-5.59,8.92-8.16,7.08-5.89,14.69-11.07,21.95-16.71,1.41-2.92,2.7-5.9,4.1-8.82,6.64-13.84,17.89-24.88,28.37-35.88s21.42-22.06,31.05-34a7.42,7.42,0,0,1,6.33-2.76c9.51-13.79,19.12-27.5,29.58-40.59A7.55,7.55,0,0,1,643.79,347.61Z" transform="translate(0 -0.05)"/><path class="cls-5" d="M643.79,347.61c1.3-1.73,2.68-3.41,4.09-5.09-1.31-1.3-2-3.47-3.46-5.11a32.1387,32.1387,0,0,0-3.12-2.61,7.55,7.55,0,0,1-1.51,5.74c-2.42,3.32-7.57,3.66-10.67,1.18-17.09-13.64-35.58-25.36-53.19-38.3a474.0049,474.0049,0,0,1-43.52-36.51c-6.9-6.47-13.79-13-20.94-19.16-.78-.67-1.55-1.33-2.34-2-16.9-8.55-33.56-17.16-48.81-28.5-18.21-13.53-37-26.22-54.83-40.28-5.34-4.22-10.53-8.61-15.6-13.11-13,97.09-9.78,205.48,10.21,301.7,8.54,41.12,28.08,71.92,54.81,98.61,3.34-3.89,6.82-7.65,10.26-11.45,4.16-4.62,8.14-9.39,12.27-14,6.85-7.69,13.94-15.17,21-22.67a7.81,7.81,0,0,1-2.23-6.77,13.43,13.43,0,0,1,2.59-5.57,52.1655,52.1655,0,0,1,6.16-6.79c2.88-2.82,5.82-5.59,8.92-8.16,7.08-5.89,14.69-11.07,21.95-16.71,1.41-2.92,2.7-5.9,4.1-8.82,6.64-13.84,17.89-24.88,28.37-35.88s21.42-22.06,31.05-34a7.42,7.42,0,0,1,6.33-2.76c9.51-13.79,19.12-27.5,29.58-40.59A7.55,7.55,0,0,1,643.79,347.61Z" transform="translate(0 -0.05)"/><path class="cls-6" d="M643.79,347.61c1.3-1.73,2.68-3.41,4.09-5.09-1.31-1.3-2-3.47-3.46-5.11a32.1387,32.1387,0,0,0-3.12-2.61,7.55,7.55,0,0,1-1.51,5.74c-2.42,3.32-7.57,3.66-10.67,1.18-17.09-13.64-35.58-25.36-53.19-38.3a474.0049,474.0049,0,0,1-43.52-36.51c-6.9-6.47-13.79-13-20.94-19.16-.78-.67-1.55-1.33-2.34-2-16.9-8.55-33.56-17.16-48.81-28.5-16.16-12-32.79-23.35-48.77-35.58-5.75,37.39-7.58,75.81-7.72,112.26-.25,67,.09,141.18,26.12,205.36a186.189,186.189,0,0,0,34.14,54.62l1.08-1.19c4.16-4.62,8.14-9.39,12.27-14,6.85-7.69,13.94-15.17,21-22.67a7.81,7.81,0,0,1-2.23-6.77,13.4283,13.4283,0,0,1,2.59-5.57,52.1454,52.1454,0,0,1,6.16-6.79c2.88-2.82,5.82-5.59,8.92-8.16,7.08-5.89,14.69-11.07,21.95-16.71,1.41-2.92,2.7-5.9,4.1-8.82,6.64-13.84,17.89-24.88,28.37-35.88s21.42-22.06,31.05-34a7.42,7.42,0,0,1,6.33-2.76c9.51-13.79,19.12-27.5,29.58-40.59A7.55,7.55,0,0,1,643.79,347.61Z" transform="translate(0 -0.05)"/><path class="cls-7" d="M643.79,347.61c1.3-1.73,2.68-3.41,4.09-5.09-1.31-1.3-2-3.47-3.46-5.11a32.1387,32.1387,0,0,0-3.12-2.61,7.55,7.55,0,0,1-1.51,5.74c-2.42,3.32-7.57,3.66-10.67,1.18-17.09-13.64-35.58-25.36-53.19-38.3a474.0049,474.0049,0,0,1-43.52-36.51c-6.9-6.47-13.79-13-20.94-19.16-.78-.67-1.55-1.33-2.34-2-16.9-8.55-33.56-17.16-48.81-28.5-8.1-6-16.32-11.87-24.52-17.75-4.06,19.19-6.93,38.77-9.13,58.31-7.16,63.59-7.84,129.11,7.88,192.72,7.84,31.71,20.41,63.74,42.63,88.45l.26-.3c6.85-7.69,13.94-15.17,21-22.67a7.81,7.81,0,0,1-2.23-6.77,13.43,13.43,0,0,1,2.59-5.57,52.16,52.16,0,0,1,6.16-6.79c2.88-2.82,5.82-5.59,8.92-8.16,7.08-5.89,14.69-11.07,21.95-16.71,1.41-2.92,2.7-5.9,4.1-8.82,6.64-13.84,17.89-24.88,28.37-35.88s21.42-22.06,31.05-34a7.42,7.42,0,0,1,6.33-2.76c9.51-13.79,19.12-27.5,29.58-40.59A7.55,7.55,0,0,1,643.79,347.61Z" transform="translate(0 -0.05)"/><path class="cls-5" d="M371.17,146.47c-4.56-4.39-9.08-8.81-13.62-13.23-2.4-2.34-4.8-4.67-7.23-7-5.5-3.1-11-6.15-16.53-9.22-11.68-6.51-23.32-13.11-34.61-20.28C277.2,82.83,256.33,66.18,241.9,44.18a8.5944,8.5944,0,0,1-.5-.88c-1.53-1.12-3.06-2.23-4.61-3.32a7.94,7.94,0,0,1-6.73-1.4c-3.14-2.5-6.36-4.89-9.48-7.38l-1.17-.89c-1.83-1.32-3.68-2.6-5.58-3.82l-1.34-.84-.27-.16c-1-.59-2.1-1.17-3.16-1.73-3.78-2-5.53-5.89-4-10a7.18,7.18,0,0,1,3.35-3.58A8.33,8.33,0,0,1,210,5.74a4.7723,4.7723,0,0,1,.34-.42A84.6107,84.6107,0,0,0,202.49.05c-6.73,8.23-13.24,16.74-20.26,24.6-.46.58-2.17.16-2.63.74-28.19,33.87-55.97,68.57-82.92,103.48-.46.58.55,1.86.08,2.44-18.61,24.5-37.6,48.21-57.45,71.72l-1.24-1a55.9993,55.9993,0,0,0-10.2,12.73l1.25,1c-1,2.52-3.48,4.34-4.48,6.86l1.24,1c-1.16,3.35-3.94,4.92-5.79,9.13C15.31,243.08,7.35,251.43.01,260.18h0a7.67,7.67,0,0,1,5.5,6.41q.09.63.15,1.26a9.2213,9.2213,0,0,1,2.15,1.16,23.28,23.28,0,0,1,7.27,8.78,13.8191,13.8191,0,0,1,1.38.71c15.65,9.5,29,22,43.76,32.83,3.1,2.27,6.23,4.51,9.48,6.54l1.13.7.59.35,2.34,1.35q2.36,1.33,4.74,2.64c7,3.86,14.07,7.7,20.53,12.43,4.17,3.06,8.22,6.33,12.23,9.63,34.26-.09,67.74-10.37,94.73-29.64A671.2185,671.2185,0,0,0,371.17,146.47Z" transform="translate(0 -0.05)"/><path class="cls-6" d="M359.62,135.25l-2.07-2c-2.4-2.34-4.8-4.67-7.23-7-5.5-3.1-11-6.15-16.53-9.22-11.68-6.51-23.32-13.11-34.61-20.28C277.2,82.83,256.33,66.18,241.9,44.18a8.5944,8.5944,0,0,1-.5-.88c-1.53-1.12-3.06-2.23-4.61-3.32a7.94,7.94,0,0,1-6.73-1.4c-3.14-2.5-6.36-4.89-9.48-7.38l-1.17-.89c-1.83-1.32-3.68-2.6-5.58-3.82l-1.34-.84-.27-.16c-1-.59-2.1-1.17-3.16-1.73-3.78-2-5.53-5.89-4-10a7.18,7.18,0,0,1,3.35-3.58A8.33,8.33,0,0,1,210,5.74a4.7723,4.7723,0,0,1,.34-.42A84.6107,84.6107,0,0,0,202.49.05c-6.73,8.23-13.24,16.74-20.26,24.6-.46.58-2.17.16-2.63.74-28.19,33.87-55.97,68.57-82.92,103.48-.46.58.55,1.86.08,2.44-18.61,24.5-37.6,48.21-57.45,71.72l-1.24-1a55.9993,55.9993,0,0,0-10.2,12.73l1.25,1c-1,2.52-3.48,4.34-4.48,6.86l1.24,1c-1.16,3.35-3.94,4.92-5.79,9.13C15.31,243.08,7.35,251.43.01,260.18h0a7.67,7.67,0,0,1,5.5,6.41q.09.63.15,1.26a9.2213,9.2213,0,0,1,2.15,1.16,23.28,23.28,0,0,1,7.27,8.78,13.8191,13.8191,0,0,1,1.38.71c15.65,9.5,29,22,43.76,32.83,3.1,2.27,6.23,4.51,9.48,6.54l1.13.7.59.35,1.73,1a165.3011,165.3011,0,0,0,56.08,1.5c64.3-9.14,116.06-54.54,157.56-99.04C312.19,195.18,337.22,166.18,359.62,135.25Z" transform="translate(0 -0.05)"/><path class="cls-7" d="M338.82,119.84l-5-2.8c-11.68-6.51-23.32-13.11-34.61-20.28C277.2,82.83,256.33,66.18,241.9,44.18a8.5944,8.5944,0,0,1-.5-.88c-1.53-1.12-3.06-2.23-4.61-3.32a7.94,7.94,0,0,1-6.73-1.4c-3.14-2.5-6.36-4.89-9.48-7.38l-1.17-.89c-1.83-1.32-3.68-2.6-5.58-3.82l-1.34-.84-.27-.16c-1-.59-2.1-1.17-3.16-1.73-3.78-2-5.53-5.89-4-10a7.18,7.18,0,0,1,3.35-3.58A8.33,8.33,0,0,1,210,5.74a4.7723,4.7723,0,0,1,.34-.42A84.6107,84.6107,0,0,0,202.49.05c-6.73,8.23-13.24,16.74-20.26,24.6-.46.58-2.17.16-2.63.74-28.19,33.87-55.97,68.57-82.92,103.48-.46.58.55,1.86.08,2.44-18.61,24.5-37.6,48.21-57.45,71.72l-1.24-1a55.9993,55.9993,0,0,0-10.2,12.73l1.25,1c-1,2.52-3.48,4.34-4.48,6.86l1.24,1c-1.16,3.35-3.94,4.92-5.79,9.13C15.31,243.1,7.35,251.45,0,260.21H0a7.67,7.67,0,0,1,5.5,6.41q.09.63.15,1.26a9.2193,9.2193,0,0,1,2.15,1.16,23.28,23.28,0,0,1,7.27,8.78,13.7873,13.7873,0,0,1,1.38.71c4.88,3,9.55,6.23,14.1,9.64,26.31,11.9,58.92,14.9,104.27,3.73C206.14,274.33,286.27,195.45,338.82,119.84Z" transform="translate(0 -0.05)"/><path class="cls-5" d="M406.99,618.18l1,1a4.6319,4.6319,0,0,1,.66-.22l1.08-.26C408.83,618.51,407.91,618.33,406.99,618.18Z" transform="translate(0 -0.05)"/><path class="cls-5" d="M354.49,439.9c-62.76-74.85-163.75-112.54-247.97-98.72,3.94,3.15,7.81,6.41,11.7,9.59q9.225,7.5,18.22,15.33c5.98,5.22,12,10.81,17.82,16.5a200.98,200.98,0,0,0,15.85,14.58c10.85,8.45,23.45,16.3,30.57,28.45a8.29,8.29,0,0,1,.87,7.18l12.7,10.18q51.54,41.28,103,82.69,12.57,10.14,25.32,20.07c8.45,6.55,17.22,12.7,25.57,19.39,4.15,3.32,8.2,6.76,12.35,10.09,2.21,1.77,4.43,3.51,6.71,5.18,1,.75,2.06,1.48,3.1,2.2l1.74,1.18c.08.05.82.51.7.45,7.25,4.3,15.15,7.31,22.34,11.68a34.9988,34.9988,0,0,1,6.33,2.06C413.69,542.6,394.65,487.81,354.49,439.9Z" transform="translate(0 -0.05)"/><path class="cls-6" d="M311.49,429.02c-48.08-45.22-116.53-68.41-178.08-65.56l3,2.59c6.09,5.34,12,10.81,17.82,16.5a197.7975,197.7975,0,0,0,15.88,14.63c10.85,8.45,23.45,16.3,30.57,28.45a8.29,8.29,0,0,1,.87,7.18l12.7,10.18q51.54,41.28,103,82.69,12.57,10.14,25.32,20.07c8.45,6.55,17.22,12.7,25.57,19.39,4.15,3.32,8.2,6.76,12.35,10.09,2.21,1.77,4.43,3.51,6.71,5.18l.57.41C378.28,525.44,357.62,472.36,311.49,429.02Z" transform="translate(0 -0.05)"/><path class="cls-7" d="M324.04,476.3c-32.63-44.35-102.63-82.66-159.72-84.48h-.49c2,1.84,4.1,3.63,6.28,5.34,10.85,8.45,23.45,16.3,30.57,28.45a8.29,8.29,0,0,1,.87,7.18l12.7,10.18q51.54,41.28,103,82.69,12.57,10.14,25.32,20.07c5.62,4.35,11.37,8.53,17.06,12.81C353.64,530.8,343.34,502.52,324.04,476.3Z" transform="translate(0 -0.05)"/><circle class="cls-8" cx="361.07" cy="210.17" r="10.35"/><g class="cls-9"><path class="cls-10" d="M362.23,215.6191l-2.457-5.17-.7823,4.62-2.205-.373,1.7793-10.5,2.205.373-.834,4.92,4.0293-4.378,2.5645.4346-4.5225,4.7432,2.8623,5.7773Z" transform="translate(0 -0.05)"/></g><path class="cls-11" d="M371.11,204.18l-1.7-.26-.28,1.66-1.59-.27.28-1.65-1.59-.27.26-1.56,1.6.28.27-1.64,1.59.26-.28,1.64,1.67.29Z" transform="translate(0 -0.05)"/><circle class="cls-12" cx="242.83" cy="325.31" r="15.53" transform="translate(-117.1765 512.8456) rotate(-80.7825)"/><g class="cls-9"><g class="cls-9"><path class="cls-10" d="M242.3994,330.6123l-2.1-5.8633-1.9365,6.5293-.3936.0537-3.5508-5.7168-.3535,6.13-2.5254.3438.9288-11.9727,1.0332-.14,4.0351,6.7031,2.1006-7.5371,1.05-.1426,4.2051,11.2734Z" transform="translate(0 -0.05)"/></g><g class="cls-9"><path class="cls-10" d="M253.9658,328.5889c.3418,2.5107-1.4092,4.1357-3.64,4.4384a7.1307,7.1307,0,0,1-3.253-.3271l-.2861-2.2324a5.2628,5.2628,0,0,0,2.8447.5322,2.03,2.03,0,0,0,1.9512-2.4883l-.0312-.23a3.1367,3.1367,0,0,1-2.3155,1.5186c-2.248.3056-3.9463-1.3682-4.2675-3.7305-.3184-2.3467.871-4.4121,3.1191-4.7178a3.1182,3.1182,0,0,1,2.6.8164L250.55,321.15l2.3457-.3193Zm-2.8613-3.3526a1.8943,1.8943,0,0,0-2.1006-1.6865,1.9575,1.9575,0,0,0,.5264,3.8721A1.8842,1.8842,0,0,0,251.1045,325.2363Z" transform="translate(0 -0.05)"/></g></g><path class="cls-13" d="M248.22,314.71c.85-1.14,1.75-2.37,2.53-3.48a2.58,2.58,0,0,0,.64-1.71.86.86,0,0,0-.952-.7569q-.0241.0028-.048.0069a1.14,1.14,0,0,0-.8418,1.375l.0118.045-2.37-.3a3.27,3.27,0,0,1,2.86-3.56,3.12,3.12,0,0,1,3.6689,2.4511l.0111.0589a4.2,4.2,0,0,1-1.09,3.21c-.26.38-.55.83-.81,1.22l2.45-.33.31,2.31-6.2.84Z" transform="translate(0 -0.05)"/><path class="cls-13" d="M260.08,311.25l-1.74.24.24,1.72-1.65.23-.24-1.72-1.66.22-.22-1.61,1.66-.23-.23-1.71,1.65-.22.23,1.71,1.74-.24Z" transform="translate(0 -0.05)"/><circle class="cls-14" cx="323.27" cy="243.03" r="10.19"/><g class="cls-9"><g class="cls-9"><path class="cls-10" d="M316.458,243.896a4.1985,4.1985,0,0,1,3.4277-5.0752,4.3684,4.3684,0,0,1,1.9444.0376l.3789,1.8892a2.8942,2.8942,0,0,0-1.9463-.233,2.5964,2.5964,0,0,0,.9883,5.0977,2.8275,2.8275,0,0,0,1.7182-.9429l.357,1.9058a4.54,4.54,0,0,1-1.7915.7485A4.1992,4.1992,0,0,1,316.458,243.896Z" transform="translate(0 -0.05)"/></g><g class="cls-9"><path class="cls-10" d="M328.9756,239.6421l1.1387,5.8721-1.69.3281-.1465-.752a2.2322,2.2322,0,0,1-1.6,1.1753,3.1082,3.1082,0,0,1-1.1728-6.0478,2.2362,2.2362,0,0,1,1.9228.4926l-.1425-.74ZM327.84,242.896a1.3676,1.3676,0,0,0-1.5839-1.1294,1.4142,1.4142,0,0,0,.538,2.7715A1.3625,1.3625,0,0,0,327.84,242.896Z" transform="translate(0 -0.05)"/></g></g><path class="cls-15" d="M324.19,234.44c.49-.74,1-1.55,1.47-2.27a1.69,1.69,0,0,0,.35-1.09.55.55,0,0,0-.64-.44.72.72,0,0,0-.4883.8935l.0083.0265-1.5-.11a2.07,2.07,0,0,1,1.68-2.33,2,2,0,0,1,2.39,1.45,2.63,2.63,0,0,1-.58,2c-.14.25-.32.54-.46.8l1.52-.29.27,1.44-3.86.73Z" transform="translate(0 -0.05)"/><path class="cls-15" d="M331.51,231.88l-1.08.21.2,1.07-1,.19-.22-1.07-1,.2-.19-1,1-.19-.21-1.11,1-.19.21,1.06,1.08-.21Z" transform="translate(0 -0.05)"/><circle class="cls-8" cx="294.45" cy="363.87" r="10.35"/><g class="cls-9"><path class="cls-10" d="M297.58,368.5029l-4.2129-3.874,1.0029,4.5781-2.1846.4785-2.28-10.4023,2.1855-.4785,1.0674,4.873,2.0967-5.5673,2.542-.5567-2.419,6.0908,4.8174,4.2852Z" transform="translate(0 -0.05)"/></g><path class="cls-11" d="M301.51,354.58l-1.66.37.36,1.63-1.57.35-.36-1.64-1.58.35-.33-1.54,1.58-.35-.36-1.62,1.57-.34.35,1.62,1.66-.36Z" transform="translate(0 -0.05)"/><ellipse class="cls-16" cx="358.5896" cy="266.0419" rx="13.63" ry="13.95" transform="translate(56.4075 594.7027) rotate(-83.98)"/><path class="cls-17" d="M372.52,257.25l-2.59-.28-.26,2.51-2.46-.3.27-2.51-2.48-.26.25-2.35,2.47.26.27-2.48,2.42.34-.26,2.48,2.59.28Z" transform="translate(0 -0.05)"/><g class="cls-9"><g class="cls-9"><path class="cls-10" d="M359.1328,261.3184l-.9717,9.6118-1.0888-.1172-4.58-6.2632-.5645,5.585-2.0537-.2217.9678-9.585,1.09.1177L356.51,266.86l.582-5.7618Z" transform="translate(0 -0.05)"/></g><g class="cls-9"><path class="cls-10" d="M367.4229,264.9541l-.6846,6.7783-2.0117-.2168.0879-.8677a2.6436,2.6436,0,0,1-2.1924.7364,3.2546,3.2546,0,0,1-2.791-3.8364,3.2,3.2,0,0,1,3.496-3.1451,2.6746,2.6746,0,0,1,1.9971,1.1885l.0869-.854Zm-2.3663,3.1577a1.5943,1.5943,0,0,0-1.4033-1.769,1.5315,1.5315,0,0,0-1.7119,1.4326,1.5672,1.5672,0,1,0,3.1152.3364Z" transform="translate(0 -0.05)"/></g></g><line class="cls-18" x1="355.3" y1="392.39" x2="341.5" y2="384.7"/><line class="cls-18" x1="355.65" y1="394.51" x2="341.84" y2="386.82"/><circle class="cls-19" cx="340.38" cy="384.13" r="8.52"/><g class="cls-9"><path class="cls-10" d="M336.8164,385.9629a3.9442,3.9442,0,1,1,5.2842,1.81A3.8507,3.8507,0,0,1,336.8164,385.9629Zm5.6025-2.7549a2.3,2.3,0,1,0-1.0195,3.1367A2.2892,2.2892,0,0,0,342.4189,383.208Z" transform="translate(0 -0.05)"/></g><line class="cls-18" x1="354.76" y1="413.8" x2="357.05" y2="403.41"/><circle class="cls-19" cx="354.81" cy="415.36" r="8.52"/><g class="cls-9"><path class="cls-10" d="M351.64,417.875a3.9441,3.9441,0,1,1,5.5352.75A3.8483,3.8483,0,0,1,351.64,417.875Zm4.961-3.7891a2.3,2.3,0,1,0-.3916,3.2754A2.2885,2.2885,0,0,0,356.6006,414.0859Z" transform="translate(0 -0.05)"/></g><line class="cls-18" x1="363.88" y1="389.44" x2="372.6" y2="381.5"/><circle class="cls-19" cx="372.84" cy="381.05" r="8.52"/><g class="cls-9"><path class="cls-10" d="M369.4014,383.1182a3.9439,3.9439,0,1,1,5.3906,1.4619A3.8481,3.8481,0,0,1,369.4014,383.1182Zm5.41-3.1133a2.2995,2.2995,0,1,0-.8135,3.1963A2.2888,2.2888,0,0,0,374.8115,380.0049Z" transform="translate(0 -0.05)"/></g><circle class="cls-20" cx="358.95" cy="395.44" r="8.63"/><text class="cls-21" transform="translate(356.5591 400.1497) rotate(-21.6951)">N</text><g class="cls-9"><path class="cls-22" d="M360.3711,390.43l2.8838,7.248-.1319.0528-6.71-3.1436,1.9482,4.8955-.957.3809-2.88-7.2383.1318-.0527,6.7471,3.2363-1.9892-4.9981Z" transform="translate(0 -0.05)"/></g><path class="cls-23" d="M376.56,373.95l3.92-1.56.55,1.38-3.92,1.57Z" transform="translate(0 -0.05)"/></g><circle class="cls-24" cx="325.08" cy="314.01" r="155"/><g class="cls-9"><text class="cls-25" transform="matrix(1, -0.0086, 0.0086, 1, 289.3699, 306.27)">liquid </text><text class="cls-25" transform="matrix(1, -0.0086, 0.0086, 1, 286.5664, 335.0951)">p</text><text class="cls-26" transform="matrix(1, -0.0086, 0.0086, 1, 301.3558, 334.9686)">h</text><text class="cls-25" transform="matrix(1, -0.0086, 0.0086, 1, 314.5253, 334.8559)">ase</text></g></g></g></svg>