<svg xmlns="http://www.w3.org/2000/svg" viewBox="0 0 684.45 519.26"><defs><style>.cls-1,.cls-13,.cls-14{fill:none;}.cls-1{stroke:#5b5052;stroke-width:1.76px;}.cls-1,.cls-11,.cls-12,.cls-13,.cls-14,.cls-17,.cls-18,.cls-19,.cls-2,.cls-20,.cls-21,.cls-22,.cls-23,.cls-24,.cls-3,.cls-4,.cls-5,.cls-8,.cls-9{stroke-miterlimit:10;}.cls-17,.cls-2,.cls-25,.cls-4{fill:#df6572;}.cls-17,.cls-18,.cls-2,.cls-23,.cls-3,.cls-4{stroke:#fecf08;}.cls-2{stroke-width:0.55px;}.cls-12,.cls-18,.cls-21,.cls-23,.cls-24,.cls-3,.cls-6{fill:#fff;}.cls-3{stroke-width:0.77px;}.cls-4{stroke-width:0.57px;}.cls-16,.cls-20,.cls-22,.cls-5{fill:#3baaa1;}.cls-5{stroke:#6d54a3;stroke-width:1.18px;}.cls-6{font-size:32.51px;font-family:Acre-Semibold, Acre;font-weight:600;}.cls-7{letter-spacing:-0.04em;}.cls-8,.cls-9{fill:#6d54a3;}.cls-12,.cls-20,.cls-22,.cls-24,.cls-8,.cls-9{stroke:#fff;}.cls-8{stroke-width:0.55px;}.cls-9{stroke-width:0.36px;}.cls-10{letter-spacing:-0.04em;}.cls-11{fill:#2e61a2;stroke-width:0.33px;}.cls-11,.cls-13,.cls-21{stroke:#ec6a7c;}.cls-12{font-size:21.51px;}.cls-12,.cls-24{stroke-width:0.12px;font-family:Acre-Bold, Acre;font-weight:700;}.cls-13{stroke-width:5.09px;}.cls-14,.cls-19{stroke:#3baaa1;}.cls-14{stroke-width:4.24px;}.cls-15{fill:#ec6a7c;}.cls-17{stroke-width:0.65px;}.cls-18{stroke-width:0.42px;}.cls-19{fill:#6d548b;stroke-width:0.62px;}.cls-20{stroke-width:0.23px;}.cls-21{stroke-width:0.31px;}.cls-22{font-size:16.47px;stroke-width:0.31px;font-family:Acre-Medium, Acre;font-weight:500;}.cls-23{stroke-width:0.44px;}.cls-24{font-size:20.83px;}.cls-25{font-size:60.51px;font-family:Acre-Light, Acre;font-weight:300;}.cls-26{letter-spacing:-0.01em;}.cls-27{letter-spacing:-0.01em;}.cls-28{letter-spacing:-0.02em;}.cls-29{letter-spacing:0em;}.cls-30{letter-spacing:0em;}.cls-31{font-size:44.91px;fill:#5c5052;font-family:Acre-Thin, Acre;font-weight:200;}.cls-32{letter-spacing:-0.02em;}.cls-33{letter-spacing:-0.02em;}.cls-34{letter-spacing:0em;}</style></defs><g id="Layer_2" data-name="Layer 2"><g id="Layer_7" data-name="Layer 7"><line class="cls-1" x1="89.34" y1="218.3" x2="35.61" y2="266.2"/><line class="cls-1" x1="93.41" y1="225.14" x2="39.67" y2="273.04"/><line class="cls-1" x1="94.86" y1="362.37" x2="38.85" y2="402.51"/><line class="cls-1" x1="95.67" y1="339.7" x2="44.72" y2="313.21"/><line class="cls-1" x1="96.93" y1="464.06" x2="49.98" y2="431"/><line class="cls-1" x1="95.09" y1="471.38" x2="48.14" y2="438.32"/><circle class="cls-2" cx="112" cy="350.81" r="36.93"/><path class="cls-3" d="M108.31,361.77a11.82,11.82,0,1,1,14.52-8.33A11.53,11.53,0,0,1,108.31,361.77Zm4.87-18.06a6.89,6.89,0,1,0,5,8.49A6.86,6.86,0,0,0,113.18,343.71Z"/><circle class="cls-4" cx="111.99" cy="479.21" r="38.63"/><path class="cls-3" d="M107,490.3a11.65,11.65,0,1,1,15.17-6.5A11.37,11.37,0,0,1,107,490.3Zm6.83-17.14a6.8,6.8,0,1,0,4,8.9A6.77,6.77,0,0,0,113.87,473.16Z"/><circle class="cls-4" cx="110.78" cy="222.93" r="38.63"/><path class="cls-3" d="M107.58,233.88a11.66,11.66,0,1,1,14-8.66A11.37,11.37,0,0,1,107.58,233.88Zm4.23-18a6.8,6.8,0,1,0,5.25,8.22A6.77,6.77,0,0,0,111.81,215.92Z"/><circle class="cls-5" cx="30.5" cy="419.12" r="26.16"/><text class="cls-6" transform="translate(14.13 429.98)"><tspan class="cls-7">F</tspan><tspan x="14.08" y="0">e</tspan></text><path class="cls-8" d="M50.33,400a3.94,3.94,0,0,1-4.14,3.85,4.26,4.26,0,0,1-4.23-3l2.55-1.36a1.8,1.8,0,0,0,1.62,1.36,1.19,1.19,0,0,0,1.24-1.2,1.17,1.17,0,0,0-1.23-1.15,1.83,1.83,0,0,0-1.06.33L44,397.41l2.42-2.28H42.67v-2.91H49.6v2.7l-1.75,1.72A3.6,3.6,0,0,1,50.33,400Z"/><path class="cls-9" d="M58.12,397.11H55.64v2.52h-2v-2.52H51.17v-2h2.42v-2.45h2v2.45h2.48Z"/><circle class="cls-5" cx="31.38" cy="290.36" r="26.16"/><text class="cls-6" transform="translate(15.01 301.22)"><tspan class="cls-10">F</tspan><tspan x="14.08" y="0">e</tspan></text><path class="cls-8" d="M51.21,271.27a3.94,3.94,0,0,1-4.14,3.86,4.24,4.24,0,0,1-4.22-3l2.54-1.36A1.81,1.81,0,0,0,47,272.13a1.2,1.2,0,0,0,1.25-1.2A1.17,1.17,0,0,0,47,269.78a1.84,1.84,0,0,0-1.07.33l-1.08-1.46,2.43-2.28H43.55v-2.92h6.94v2.71l-1.76,1.72A3.6,3.6,0,0,1,51.21,271.27Z"/><path class="cls-9" d="M59,268.35H56.52v2.52H54.47v-2.52H52.05v-2h2.42v-2.45h2.05v2.45H59Z"/><circle class="cls-11" cx="551.52" cy="195.79" r="14.49"/><text class="cls-12" transform="translate(544.61 202.69)">H</text><circle class="cls-11" cx="629.73" cy="200.74" r="14.49"/><text class="cls-12" transform="translate(622.12 207.87)">H</text><circle class="cls-11" cx="635.49" cy="503.4" r="14.49"/><text class="cls-12" transform="translate(627.73 512.88)">H</text><circle class="cls-11" cx="555.77" cy="496.57" r="14.49"/><text class="cls-12" transform="translate(548.66 503.77)">H</text><line class="cls-13" x1="552.59" y1="410.13" x2="552.4" y2="348.27"/><line class="cls-14" x1="552.59" y1="410.13" x2="552.4" y2="348.27"/><polygon class="cls-15" points="491.81 411.51 552.37 348.46 498.81 417.56 491.81 411.51"/><polygon class="cls-16" points="492.51 412.11 552.37 348.46 498.12 416.95 492.51 412.11"/><polygon class="cls-15" points="603.05 417.17 552.55 348.47 610.2 411.29 603.05 417.17"/><polygon class="cls-16" points="603.77 416.58 552.55 348.47 609.49 411.88 603.77 416.58"/><line class="cls-13" x1="552.59" y1="286.58" x2="552.4" y2="348.44"/><line class="cls-14" x1="552.59" y1="286.58" x2="552.4" y2="348.44"/><polygon class="cls-15" points="498.76 279.31 552.32 348.41 491.76 285.36 498.76 279.31"/><polygon class="cls-16" points="498.06 279.92 552.32 348.41 492.46 284.75 498.06 279.92"/><polygon class="cls-15" points="610.22 285.6 552.57 348.42 603.07 279.72 610.22 285.6"/><polygon class="cls-16" points="609.5 285.01 552.57 348.42 603.78 280.31 609.5 285.01"/><circle class="cls-17" cx="554.42" cy="443.78" r="44.52"/><circle class="cls-17" cx="630.08" cy="253.53" r="44.52"/><path class="cls-18" d="M642.43,256a11.9,11.9,0,1,1-7.74-15A11.62,11.62,0,0,1,642.43,256Zm-17.95-5.69a6.94,6.94,0,1,0,8.76-4.7A6.91,6.91,0,0,0,624.48,250.3Z"/><path class="cls-18" d="M566.76,446.24a11.89,11.89,0,1,1-7.73-15A11.61,11.61,0,0,1,566.76,446.24Zm-17.94-5.69a6.93,6.93,0,1,0,8.76-4.7A6.91,6.91,0,0,0,548.82,440.55Z"/><circle class="cls-17" cx="635.09" cy="446.5" r="49.02"/><path class="cls-18" d="M647.94,450a13.1,13.1,0,1,1-8.52-16.48A12.79,12.79,0,0,1,647.94,450Zm-19.76-6.27a7.64,7.64,0,1,0,9.65-5.17A7.6,7.6,0,0,0,628.18,443.69Z"/><circle class="cls-19" cx="552.57" cy="348.42" r="27.5"/><polygon class="cls-20" points="580.28 327.75 578.46 327.75 578.46 325.99 576.51 325.99 576.51 327.75 574.69 327.75 574.69 329.71 576.51 329.71 576.51 331.58 578.46 331.58 578.46 329.71 580.28 329.71 580.28 327.75"/><path class="cls-21" d="M549.68,355h-8.22l-1.63,3.9h-3.76l9.23-21h.5l9.26,21h-3.75Zm-1.36-3.31-2.75-6.6-2.75,6.6Z"/><path class="cls-21" d="M558.67,337.38h3.1V359h-3.1Z"/><text class="cls-22" transform="translate(564.24 338.31)">3</text><circle class="cls-11" cx="398.91" cy="196.49" r="14.49"/><text class="cls-12" transform="translate(392 203.39)">H</text><circle class="cls-11" cx="477.12" cy="201.44" r="14.49"/><text class="cls-12" transform="translate(469.51 208.57)">H</text><circle class="cls-11" cx="482.89" cy="504.1" r="14.49"/><text class="cls-12" transform="translate(475.13 513.57)">H</text><circle class="cls-11" cx="403.16" cy="497.26" r="14.49"/><text class="cls-12" transform="translate(396.06 505.92)">H</text><circle class="cls-11" cx="324.15" cy="504.6" r="14.49"/><text class="cls-12" transform="translate(317.12 513.07)">H</text><circle class="cls-11" cx="320.11" cy="201.82" r="14.49"/><line class="cls-13" x1="399.98" y1="410.82" x2="399.79" y2="348.97"/><line class="cls-14" x1="399.98" y1="410.82" x2="399.79" y2="348.97"/><polygon class="cls-15" points="339.2 412.2 399.76 349.16 346.21 418.25 339.2 412.2"/><polygon class="cls-16" points="339.9 412.81 399.76 349.16 345.51 417.65 339.9 412.81"/><polygon class="cls-15" points="450.44 417.87 399.94 349.17 457.59 411.99 450.44 417.87"/><polygon class="cls-16" points="451.16 417.28 399.94 349.17 456.88 412.58 451.16 417.28"/><line class="cls-13" x1="399.99" y1="287.28" x2="399.79" y2="349.13"/><line class="cls-14" x1="399.99" y1="287.28" x2="399.79" y2="349.13"/><polygon class="cls-15" points="346.15 280.01 399.71 349.1 339.15 286.06 346.15 280.01"/><polygon class="cls-16" points="345.45 280.61 399.71 349.1 339.85 285.45 345.45 280.61"/><polygon class="cls-15" points="457.61 286.29 399.96 349.12 450.46 280.42 457.61 286.29"/><polygon class="cls-16" points="456.89 285.7 399.96 349.12 451.18 281 456.89 285.7"/><circle class="cls-17" cx="401.81" cy="444.48" r="44.52"/><circle class="cls-17" cx="477.47" cy="254.23" r="44.52"/><path class="cls-18" d="M489.82,256.69a11.9,11.9,0,1,1-7.73-15A11.62,11.62,0,0,1,489.82,256.69ZM471.87,251a6.94,6.94,0,1,0,8.77-4.7A6.91,6.91,0,0,0,471.87,251Z"/><path class="cls-18" d="M414.15,446.93a11.89,11.89,0,1,1-7.73-15A11.61,11.61,0,0,1,414.15,446.93Zm-17.94-5.69a6.94,6.94,0,1,0,8.76-4.7A6.9,6.9,0,0,0,396.21,441.24Z"/><circle class="cls-17" cx="323.68" cy="254.27" r="44.52"/><path class="cls-18" d="M336,256.73a11.9,11.9,0,1,1-7.73-15A11.61,11.61,0,0,1,336,256.73ZM318.08,251a6.94,6.94,0,1,0,8.77-4.7A6.91,6.91,0,0,0,318.08,251Z"/><circle class="cls-17" cx="398.67" cy="254.26" r="49.02"/><path class="cls-23" d="M411.52,258.15c-2.25,7.09-9.37,11.64-17.45,9.07a13.93,13.93,0,0,1,8.42-26.55C410.57,243.23,413.78,251,411.52,258.15Zm-21-6.65A8.1,8.1,0,1,0,400.8,246,8.07,8.07,0,0,0,390.56,251.5Z"/><circle class="cls-17" cx="326.49" cy="446.98" r="49.02"/><path class="cls-18" d="M340.09,449.69a13.1,13.1,0,1,1-8.51-16.48A12.78,12.78,0,0,1,340.09,449.69Zm-19.76-6.27a7.64,7.64,0,1,0,9.65-5.17A7.6,7.6,0,0,0,320.33,443.42Z"/><circle class="cls-17" cx="482.48" cy="447.2" r="49.02"/><path class="cls-18" d="M495.33,450.66a13.1,13.1,0,1,1-8.52-16.48C494.44,436.6,497.46,443.93,495.33,450.66Zm-19.76-6.27a7.64,7.64,0,1,0,9.65-5.18A7.6,7.6,0,0,0,475.57,444.39Z"/><circle class="cls-19" cx="399.96" cy="349.12" r="27.5"/><polygon class="cls-20" points="427.67 328.45 425.85 328.45 425.85 326.69 423.9 326.69 423.9 328.45 422.08 328.45 422.08 330.4 423.9 330.4 423.9 332.27 425.85 332.27 425.85 330.4 427.67 330.4 427.67 328.45"/><path class="cls-21" d="M397.07,355.7h-8.22l-1.63,3.9h-3.76l9.23-21h.51l9.26,21H398.7Zm-1.36-3.32L393,345.79l-2.75,6.59Z"/><path class="cls-21" d="M406.06,338.07h3.1v21.58h-3.1Z"/><text class="cls-22" transform="translate(411.64 339.01)">3</text><text class="cls-24" transform="translate(313.02 209.79)">H</text><circle class="cls-17" cx="551.28" cy="253.56" r="49.02"/><path class="cls-23" d="M564.12,257.45c-2.25,7.09-9.36,11.64-17.45,9.07A13.93,13.93,0,0,1,555.1,240C563.18,242.54,566.39,250.32,564.12,257.45Zm-21-6.65a8.1,8.1,0,1,0,10.23-5.49A8.06,8.06,0,0,0,543.17,250.8Z"/><text class="cls-25" transform="translate(166.89 51.43)"><tspan class="cls-26">m</tspan><tspan class="cls-27" x="51.98" y="0">e</tspan><tspan class="cls-28" x="85.38" y="0">t</tspan><tspan x="100.93" y="0">al </tspan><tspan class="cls-29" x="172.81" y="0">o</tspan><tspan x="208.93" y="0">xid</tspan><tspan class="cls-30" x="290.92" y="0">e</tspan><tspan x="324.8" y="0">s</tspan><tspan class="cls-31"><tspan x="-154.07" y="58.96">i</tspan><tspan class="cls-32" x="-143.47" y="58.96">r</tspan><tspan x="-131.35" y="58.96">on, aluminum, a</tspan><tspan class="cls-33" x="196.45" y="58.96">n</tspan><tspan x="221.11" y="58.96">d </tspan><tspan class="cls-32" x="264.53" y="58.96">m</tspan><tspan x="302.48" y="58.96">a</tspan><tspan class="cls-33" x="330.18" y="58.96">n</tspan><tspan class="cls-34" x="354.84" y="58.96">ga</tspan><tspan class="cls-32" x="410.25" y="58.96">n</tspan><tspan x="434.9" y="58.96">ese</tspan></tspan></text></g></g></svg>