<?xml version="1.0" encoding="UTF-8"?><svg xmlns="http://www.w3.org/2000/svg" viewBox="0 0 538.19 261.96"><defs><style>.f{stroke-width:2.22px;}.f,.g{fill:#2e61a2;stroke:#3baaa1;}.h{stroke-width:2.29px;}.h,.i,.j{fill:#fecf08;}.h,.j{stroke:#2e61a2;}.k{stroke-width:2.34px;}.k,.l{fill:#966d55;}.k,.l,.m,.n{stroke:#fecf08;}.o{fill:#fff;}.p{fill:#df6572;}.q,.r{fill:#6d54a3;}.s{fill:#3baaa1;}.t{fill:#2e6292;}.u{fill:#2e61a1;}.g{stroke-miterlimit:4;stroke-width:1.42px;}.v{fill:#37904b;}.v,.w{stroke:#6d54a3;}.l{stroke-width:2.43px;}.m{fill:#9f5b39;stroke-width:1.86px;}.n{fill:#f27243;stroke-width:2.18px;}.w{fill:#3f8880;stroke-width:2px;}.r{stroke:#e9e9e9;stroke-width:.79px;}.j{stroke-width:2.38px;}</style></defs><g id="a"/><g id="b"><g id="c"><g><g id="d"><path class="k" d="M222.73,167.81c-2.61,2.56-4.88,6.34-3.52,9.75,.57,2.07,.24,4.49,.03,8.05-.15,2.73-2.48,4.81-5.2,4.66h-.07c-10.86-.79-21.72-1.58-32.58-2.38-1.95,0-3.87-.41-5.65-1.2-1.4-.85-2.68-1.88-3.81-3.06-7.03-6.5-16.86-8.98-26.43-8.68-43.24,1.39-85.84-5.75-128.22-14.38-2.4-.5-4.07-2.69-3.92-5.15,.61-11.12,1.26-21.48-.42-32.5,.35-.35-.46-1.55-.08-1.9-.32,3.2,3.86,6.05,7.03,6.95,3.3,.96,6.79,.8,10.23,.99,14.91,.87,30.1,9,44.91,7.27,.39-.05,.79-.04,1.18,.02,20.95,3.22,42.1,4.92,63.29,5.1,9.28,.08,19.95,.46,25.94,7.51,2.41,3,6.11,4.67,9.95,4.49,10.96-.78,21.95-.95,32.92-.52,6.9,.29,13.99,.85,20.25,3.78,.59,.21,1.08,.61,1.41,1.15,.18,.59,.13,1.23-.13,1.78-1.28,3.44-4.5,5.67-7.11,8.26h0Z"/><path class="m" d="M533.2,106.78c-.4,2.64-2.56,4.26-5.09,5.41-1.4,.63-2.83,1.18-4.29,1.65-5.89,2.01-11.36,5.08-16.14,9.06-1.22,.83-2.13,2.05-2.58,3.46-.75,3.68,4.02,6.85,3.49,10.66-.19,1.41-1.12,2.93-3.38,4.56-.93,.68-1.95,1.23-3.04,1.63-3.78,1.52-8.2,1.49-12.36,1.73-20.39,1.29-39.47,10.45-53.23,25.55-56.96,13.29-116.42,18.33-174.86,16.2-11.38-.34-22.66-2.31-33.49-5.83-2.98-.96-5.97-2.05-9-3.28-1.36-3.41,.91-7.19,3.52-9.75,.61-.59,1.23-1.17,1.86-1.73,2.13-1.94,4.26-3.89,5.25-6.53,.27-.56,.32-1.19,.13-1.78-.33-.53-.82-.93-1.41-1.15-6.26-2.93-13.35-3.49-20.25-3.78-11.73-.46-23.48-.23-35.19,.69-3.3,.27-5.3-1.68-7.35-4.26-5.91-7.43-16.81-7.83-26.27-7.91-8.95-.08-17.88-.45-26.8-1.07-8.82-.61-17.48-1.62-26.24-2.72-3.7-.45-7.41-.85-11.11-1.12-3.54-.24-7.09,.05-10.6-.37-3.89-.55-7.74-1.33-11.54-2.34-7.62-1.94-15.21-4.32-23.1-4.77-3.44-.19-6.93-.03-10.23-.99-3.17-.91-7.35-3.76-7.03-6.95,0-.13,.02-.25,.05-.37,1.49-6.82,7.89-11.3,14.01-14.63,21.58-11.69,45.71-17.61,69.58-23.39,13.91-3.36,27.23-6.5,41.45-8.15,3.01-.35,6.05-.59,9.08-.83,7.83-.64,15.66-1.25,23.5-1.89,7.75-.61,16.84,1.12,24.48-.19,5.51-.93,10.87-2.64,16.3-3.97,16.65-4.08,33.91-4.72,51.02-5.33,12.68-.43,25.55,7.06,37.83,10.31,14.94,3.97,30.74,1.81,46.25,2,16.71,.19,33.27,3.11,49.04,8.63,18.57,6.53,39.77,11.48,59.46,11.91,22.86,.48,45.18-1.44,67.88,2.82,2.51,.33,4.93,1.17,7.11,2.45,2.08,1.41,3.65,3.86,3.28,6.37h.01Z"/><path class="k" d="M511.22,162.38c0,2.42,0,4.93-1.01,7.14-.03,.05-.05,.08-.08,.13-1.55,3.2-4.98,5.06-8.36,6.21-7.86,2.69-16.38,2.66-24.46,4.64-10.02,2.45-19.81,7.85-28.32,13.59-8.62,5.82-17.11,8.65-27.26,11.53-22.17,6.32-44.86,10.64-67.81,12.94-22.96,2.12-46.04,2.69-69.08,1.72-20.55-.71-45.44,1.04-64.86-6.38-.93-.25-1.74-.81-2.29-1.6-.33-.76-.43-1.6-.29-2.42,.71-9.15,1.97-17.81,1.68-26.75-.09-2.01,1.46-3.71,3.47-3.8,.44-.02,.88,.04,1.3,.18,1.5,.5,3.03,.9,4.37,1.34,10.83,3.53,22.1,5.49,33.49,5.83,30.53,1.05,61.09,.02,91.47-3.06,15.33-1.53,30.61-3.53,45.83-5.99,11.81-1.89,28.03-2.12,38.28-8.59,7.85-4.95,13.7-11.66,22.19-15.93,9.44-4.76,19.76-7.55,30.32-8.19,4.16-.24,8.58-.21,12.36-1.73,.25-.08,.5-.18,.75-.29,.81-.37,1.57-.81,2.29-1.33,1.65-1.18,3.94-.8,5.12,.84,.4,.55,.63,1.2,.68,1.88,.1,1.32,.11,2.66,.12,3.99,0,1.25,.03,2.48,.03,3.73,.03,3.44,.05,6.9,.08,10.36h0Z"/><path class="l" d="M530.21,145.29c-1.98,2.97-4.53,5.52-7.51,7.5-2.98,1.97-6.32,3.32-9.84,3.95-.89-.35-1.76-.77-2.57-1.27,0-1.3-.03-2.57-.03-3.87-.03-4.09-.06-8.36-2.63-11.7,.55-3.96-4.4-7.25-3.62-11.07,.32-1.6,1.48-2.51,2.68-3.6,5.87-5.32,11.92-8.45,16.1-10.72,2.43-1.33,6.04-3.35,10.4-6.01,1.17,5.6,1.68,11.31,1.5,17.03-.23,7.44-.43,13.62-4.49,19.77h.01Z"/><path class="o" d="M188.62,122.02l-.04,12.4h-4.01v-11.72c0-3.84-1.92-6.31-4.94-6.31s-4.99,2.47-4.99,6.44v11.59h-4.01v-11.72c0-3.84-1.96-6.31-4.99-6.31s-4.94,2.47-4.94,6.44l-.04-.13v11.72h-4.01v-21.31h4.01v2.9c1.35-2.12,3.71-3.38,6.22-3.32,2.9-.03,5.54,1.66,6.73,4.3,1.4-2.66,4.16-4.32,7.16-4.3,4.39,0,7.84,3.15,7.84,9.33h0Z"/><path class="o" d="M213.43,125.38h-16.28c.57,3.34,3.57,5.71,6.95,5.5,2.53,0,4.99-.8,7.03-2.3v4.05c-2.13,1.45-4.67,2.2-7.24,2.13-6.78,0-10.87-5.03-10.87-11s4.18-10.95,10.44-10.95c6.65,0,10.44,5.84,9.97,12.57h0Zm-16.24-3.32h12.02c-.6-3.11-2.77-5.24-5.84-5.24-3.08-.03-5.71,2.2-6.18,5.24h0Z"/><path class="o" d="M226.86,116.95h-4.39v17.47h-4.01v-17.47h-2.73v-3.83h2.73v-5.71h4.01v5.71h4.39v3.83Z"/><path class="o" d="M249.75,113.11v21.31h-4.01v-3.41c-1.68,2.34-4.4,3.73-7.29,3.71-5.92,0-9.97-4.82-9.97-10.95s4.05-10.95,9.97-10.95c2.89-.02,5.6,1.36,7.29,3.71v-3.41h4.01Zm-4.01,10.63c.14-3.75-2.79-6.9-6.54-7.03h-.06c-3.84,0-6.52,3.15-6.52,7.03s2.68,7.07,6.52,7.07c3.77-.12,6.73-3.27,6.61-7.04v-.03h-.01Z"/><path class="o" d="M256.1,100.33h4.01v34.09h-4.01v-34.09Z"/><path class="o" d="M279.46,123.77c.07-6,4.99-10.81,10.99-10.74s10.81,4.99,10.74,10.99c-.07,5.95-4.91,10.74-10.87,10.74-5.94,.07-10.8-4.69-10.87-10.63v-.36h.01Zm17.6-.04c.16-3.68-2.7-6.78-6.37-6.94h-.36c-3.86-.14-7.11,2.87-7.25,6.73s2.87,7.11,6.73,7.25c3.86,.14,7.11-2.87,7.25-6.73v-.3h0Z"/><path class="o" d="M319.1,134.42l-5.67-7.76-5.71,7.76h-4.94l8.31-10.65-8.23-10.65h4.77l5.8,7.8,5.75-7.8h4.77l-8.18,10.65,8.31,10.65h-4.98Z"/><path class="o" d="M327.54,106.34c.02-1.51,1.26-2.71,2.77-2.69,1.51,.02,2.71,1.26,2.69,2.77-.02,1.49-1.24,2.69-2.73,2.69-1.47,.04-2.69-1.12-2.73-2.58v-.19h0Zm.72,6.78h4.01v21.31h-4.01v-21.31Z"/><path class="o" d="M359.29,100.33v34.09h-4.01v-3.41c-1.68,2.34-4.4,3.73-7.29,3.71-5.92,0-9.97-4.82-9.97-10.95s4.05-10.95,9.97-10.95c2.89-.02,5.6,1.36,7.29,3.71v-16.19h4.01Zm-4.01,23.42c.14-3.75-2.79-6.9-6.54-7.03h-.06c-3.84,0-6.52,3.15-6.52,7.03s2.68,7.07,6.52,7.07c3.77-.12,6.73-3.27,6.61-7.04v-.03h0Z"/><path class="o" d="M384.69,125.38h-16.28c.57,3.34,3.57,5.71,6.95,5.5,2.53,0,4.99-.8,7.03-2.3v4.05c-2.13,1.45-4.67,2.2-7.25,2.13-6.78,0-10.87-5.03-10.87-11s4.18-10.95,10.44-10.95c6.65,0,10.44,5.84,9.97,12.57h0Zm-16.24-3.32h12.02c-.6-3.11-2.77-5.24-5.84-5.24-3.08-.03-5.71,2.2-6.18,5.24Z"/><path class="o" d="M387.55,131.39l2.51-2.98c1.34,1.45,3.19,2.33,5.16,2.47,1.79,0,3.11-.94,3.11-2.34,0-4.13-10.19-2.6-10.14-9.84,0-3.24,2.68-5.92,6.86-5.92,2.6,0,5.07,1.11,6.82,3.03l-2.34,2.94c-1.19-1.19-2.76-1.93-4.43-2.09-1.62,0-2.77,.85-2.77,2.13-.04,3.84,10.19,2.43,10.19,9.84-.04,3.49-2.98,6.14-7.42,6.14-2.86-.09-5.57-1.3-7.54-3.37h0Z"/></g><g id="e"><circle class="p" cx="288.1" cy="77.52" r="7.04"/><path class="o" d="M291.55,78.99l-2.46-.19-.19,2.42-2.32-.18,.19-2.42-2.34-.19,.18-2.27,2.34,.19,.19-2.4,2.32,.18-.19,2.4,2.46,.19-.18,2.27Z"/><circle class="p" cx="305.8" cy="87.99" r="7.04"/><path class="o" d="M309.24,89.47l-2.46-.19-.19,2.42-2.32-.18,.19-2.42-2.34-.19,.18-2.27,2.34,.19,.19-2.4,2.32,.18-.19,2.4,2.46,.19-.18,2.27Z"/><circle class="p" cx="325.96" cy="86.6" r="7.04"/><path class="o" d="M329.41,88.07l-2.46-.19-.19,2.42-2.32-.18,.19-2.42-2.34-.18,.18-2.27,2.34,.19,.19-2.4,2.32,.18-.19,2.4,2.46,.19-.18,2.27h0Z"/><circle class="p" cx="254.72" cy="205.45" r="7.28"/><path class="o" d="M258.28,206.98l-2.54-.2-.2,2.5-2.4-.19,.2-2.5-2.42-.19,.19-2.35,2.42,.19,.2-2.48,2.4,.19-.2,2.48,2.54,.2-.19,2.35Z"/><circle class="p" cx="155.4" cy="160.84" r="7.28"/><path class="o" d="M159.08,162.08h-2.55v2.51h-2.41v-2.51h-2.43v-2.35h2.43v-2.49h2.41v2.49h2.55v2.35Z"/><circle class="p" cx="435.24" cy="105.25" r="7.04"/><path class="o" d="M438.75,106.56l-2.46-.08-.08,2.42-2.33-.07,.08-2.42-2.35-.07,.07-2.28,2.35,.07,.08-2.41,2.33,.07-.08,2.41,2.46,.08-.07,2.28Z"/><circle class="p" cx="454.34" cy="106.82" r="7.04"/><path class="o" d="M457.85,108.13l-2.46-.08-.08,2.42-2.33-.07,.08-2.42-2.35-.07,.07-2.28,2.35,.07,.08-2.41,2.33,.07-.08,2.41,2.46,.08-.07,2.28Z"/><circle class="p" cx="37.32" cy="145.42" r="7.28"/><path class="o" d="M40.99,146.66h-2.55v2.51h-2.41v-2.51h-2.43v-2.35h2.43v-2.49h2.41v2.49h2.55v2.35Z"/><circle class="p" cx="54.89" cy="121.45" r="7.28"/><path class="o" d="M58.57,122.69h-2.55v2.51h-2.41v-2.51h-2.43v-2.35h2.43v-2.49h2.41v2.49h2.55v2.35Z"/><circle class="p" cx="79.54" cy="101.55" r="7.04"/><path class="o" d="M83.09,102.75h-2.46v2.42h-2.33v-2.42h-2.35v-2.28h2.35v-2.41h2.33v2.41h2.46v2.28Z"/><circle class="p" cx="484.61" cy="163.59" r="7.28"/><path class="o" d="M488.17,165.12l-2.54-.2-.2,2.5-2.4-.19,.2-2.5-2.42-.19,.19-2.35,2.42,.19,.2-2.48,2.4,.19-.2,2.48,2.54,.2-.19,2.35Z"/><circle class="p" cx="420.53" cy="189.66" r="7.28"/><path class="o" d="M424.09,191.18l-2.54-.2-.2,2.5-2.4-.19,.2-2.5-2.42-.19,.19-2.35,2.42,.19,.2-2.48,2.4,.19-.2,2.48,2.54,.2-.19,2.35Z"/><circle class="p" cx="138.16" cy="89.11" r="7.04"/><path class="o" d="M141.61,90.59l-2.46-.19-.19,2.42-2.32-.18,.19-2.42-2.34-.19,.18-2.27,2.34,.19,.19-2.4,2.32,.18-.19,2.4,2.46,.19-.18,2.27Z"/><circle class="p" cx="163.38" cy="84.91" r="7.04"/><path class="o" d="M166.83,86.39l-2.46-.19-.19,2.42-2.32-.18,.19-2.42-2.34-.19,.18-2.27,2.34,.19,.19-2.4,2.32,.18-.19,2.4,2.46,.19-.18,2.27Z"/><circle class="p" cx="279.98" cy="200.37" r="7.28"/><path class="o" d="M283.54,201.9l-2.54-.2-.2,2.5-2.4-.19,.2-2.5-2.42-.19,.19-2.35,2.42,.19,.2-2.48,2.4,.19-.2,2.48,2.54,.2-.19,2.35Z"/></g><path class="o" d="M149.26,52.01l-8.33-11.88v11.88h-5.67V25.02h5.67v12.65l8.21-12.65h6.59l-9.29,13.77,9.6,13.23h-6.78Z"/><circle class="v" cx="155.4" cy="193.77" r="20.56"/><path class="o" d="M144.14,194.65c-.15-4.72,3.55-8.66,8.27-8.82h.55c1.34-.02,2.66,.26,3.87,.83l.02,3.92c-1.09-.84-2.43-1.27-3.8-1.22-2.92,.03-5.26,2.42-5.23,5.34,.03,2.88,2.35,5.21,5.23,5.23,1.37,.06,2.72-.37,3.8-1.22l-.02,3.95c-1.22,.54-2.54,.82-3.87,.8-4.72,.15-8.66-3.55-8.82-8.27v-.55h0Z"/><path class="o" d="M159.19,183.69h3.51v19.48h-3.51v-19.48Z"/><path class="q" d="M167.46,180.75h9.89v3.49h-9.89v-3.49Z"/><circle class="w" cx="311" cy="40.56" r="35.29"/><path class="r" d="M337.77,12.43c-.18,3.22-2.93,5.69-6.15,5.52-.07,0-.13,0-.2-.01-2.87,.01-5.39-1.91-6.12-4.69l3.85-1.88c.24,1.13,1.19,1.98,2.34,2.11,.98,.08,1.83-.65,1.91-1.63v-.08c.02-.96-.74-1.75-1.7-1.77h-.06c-.56-.02-1.12,.13-1.6,.43l-1.53-2.23,3.73-3.25-5.58-.2,.16-4.34,10.31,.38-.15,4.02-2.7,2.46c2.16,.79,3.57,2.88,3.5,5.18v-.02h-.01Z"/><path class="r" d="M339.4,8.73l7.89,.29-.13,3.58-7.89-.29,.13-3.58Z"/><path class="o" d="M301.7,37.39c-.14,3.87-2.89,6.79-7.4,6.62l-2.05-.08-.24,6.68-4.31-.16,.75-20.5,6.33,.23c3.81-.01,6.91,3.06,6.93,6.88v.33h-.01Zm-4.42-.16c.05-1.55-1.18-2.85-2.73-2.89h-.13l-1.82-.07-.2,5.54,1.82,.07c1.49,.19,2.85-.87,3.04-2.36,.01-.1,.02-.19,.02-.29h0Z"/><path class="o" d="M303.56,39.98c.21-6.31,5.49-11.26,11.8-11.05s11.26,5.49,11.05,11.8v.09c-.21,6.31-5.49,11.26-11.8,11.05s-11.26-5.49-11.05-11.8v-.09Zm18.08,.66c.03-3.68-2.93-6.69-6.61-6.72s-6.69,2.93-6.72,6.61c-.03,3.61,2.82,6.58,6.42,6.72,3.66,.15,6.75-2.7,6.9-6.36v-.24h0Z"/><path class="o" d="M335.7,50.94l-.95-.03-.05,1.26-2.81-.1,.05-1.26-4.23-.15,.07-1.99,3.6-6.79,3.69,.13-.23,6.25,.95,.03-.1,2.65h.01Zm-3.66-2.79l.1-2.74-1.24,2.7,1.14,.04h0Z"/><circle class="v" cx="428.06" cy="218.26" r="17.15"/><path class="o" d="M424.94,213.31v10.54h-1.16l-5.48-6.26v6.12h-2.18v-10.51h1.16l5.5,6.42v-6.32h2.16Z"/><path class="o" d="M426.69,218.51c0-2.97,2.42-5.37,5.4-5.36s5.37,2.42,5.36,5.4c0,2.97-2.41,5.36-5.38,5.36-2.9,.07-5.31-2.22-5.38-5.12v-.28h0Zm8.52,0c-.05-1.73-1.49-3.1-3.22-3.05s-3.1,1.49-3.05,3.22c.05,1.7,1.44,3.05,3.14,3.05s3.13-1.39,3.14-3.11v-.12h-.01Z"/><path class="o" d="M441.9,222.2c-.02,.91-.77,1.63-1.67,1.61h-.1c-.8,.03-1.52-.48-1.75-1.25l1.26-.52c.06,.23,.26,.39,.49,.4,.21,0,.39-.15,.4-.37h0c0-.21-.16-.39-.37-.39h-.03c-.09,0-.18,.03-.25,.07l-.76-.68,.86-.82h-1.37v-1.32h3.02v1.19l-.71,.62c.6,.23,.99,.81,.98,1.46h0Z"/><path class="q" d="M436.98,206.54h10.21v4.2h-10.21v-4.2Z"/><circle class="j" cx="447.02" cy="69.42" r="26.43"/><path class="o" d="M429.29,75.96l2.03-2.7c.93,1.08,2.26,1.73,3.68,1.81,1.17-.04,1.86-.74,1.83-1.61-.09-2.87-7.21-1.91-7.33-7.27-.08-2.51,1.97-4.65,5.11-4.75,1.96-.03,3.85,.73,5.26,2.09l-1.89,2.67c-.84-.82-1.95-1.31-3.12-1.38-1.06,.03-1.72,.64-1.69,1.46,.08,2.58,7.21,1.91,7.33,7.22,.06,2.66-1.91,4.83-5.37,4.95-2.22,.06-4.35-.85-5.84-2.49h0Z"/><path class="o" d="M442.21,69.71c-.14-4.7,3.56-8.61,8.26-8.75s8.61,3.56,8.75,8.26c.14,4.69-3.55,8.6-8.23,8.75-4.58,.26-8.5-3.24-8.76-7.82,0-.14-.01-.29-.01-.43h0Zm13.46-.45c-.16-2.73-2.51-4.82-5.25-4.65-2.73,.16-4.82,2.51-4.65,5.25,.16,2.68,2.43,4.75,5.11,4.66,2.73-.07,4.88-2.34,4.8-5.07v-.18h0Z"/><path class="o" d="M466.63,76.22l-.7,.02,.03,.94-2.09,.07-.03-.94-3.15,.1-.05-1.48,2.33-5.22,2.75-.09,.15,4.65,.7-.02,.06,1.97Zm-2.86-1.88l-.07-2.04-.78,2.07,.85-.03Z"/><path class="t" d="M461.7,53.02c1.59-1.77,3.3-3.68,4.78-5.4,.77-.72,1.26-1.69,1.36-2.74-.03-.81-.7-1.44-1.51-1.41h0c-1.08,.04-1.69,1.09-1.62,2.24l-3.91-.9c.02-2.97,2.39-5.39,5.36-5.47,2.88-.28,5.45,1.83,5.73,4.71v.08c.08,2.07-.9,3.59-2.35,5.18-.49,.6-1.06,1.28-1.55,1.9l4.13-.15,.14,3.91-10.48,.39-.09-2.33h.01Z"/><path class="u" d="M473.76,45.5l7.89-.29,.12,3.24-7.89,.29-.12-3.24Z"/><circle class="n" cx="25.28" cy="91.21" r="24.19"/><path class="o" d="M19.62,98.88l-1.64-7.92-3.67,8.04h-.52l-3.53-8-1.57,7.82-3.31-.02,3.37-15.23h1.35l3.97,9.36,4.07-9.31h1.38l3.36,15.27-3.27-.02h0Z"/><path class="o" d="M23.96,91.37c-.09-4.19,3.23-7.67,7.42-7.77h.4c4.31,.02,7.78,3.54,7.76,7.85-.02,4.31-3.53,7.78-7.84,7.76-4.19,.09-7.66-3.23-7.75-7.42v-.42h0Zm12.32,.06c-.06-2.51-2.13-4.49-4.64-4.43-2.51,.06-4.49,2.13-4.43,4.64,.06,2.46,2.06,4.42,4.51,4.43,2.5,.02,4.54-1.98,4.56-4.48v-.16Z"/><path class="o" d="M46.08,98.15h-.65v.86h-1.92v-.87h-2.88v-1.37l2.31-4.7h2.52l-.02,4.27h.65v1.81h-.01Zm-2.56-1.82v-1.87l-.77,1.87h.77Z"/><path class="i" d="M39.27,76.7c1.52-1.57,3.14-3.25,4.56-4.78,.73-.63,1.21-1.5,1.34-2.46,0-.74-.59-1.34-1.33-1.34h0c-.99,0-1.58,.94-1.56,1.99l-3.54-.96c.11-2.72,2.37-4.85,5.08-4.82,2.65-.16,4.92,1.86,5.08,4.5v.07c0,1.89-.95,3.25-2.32,4.66-.47,.53-1.01,1.14-1.48,1.69h3.79v3.58h-9.6v-2.14h-.02Z"/><path class="i" d="M54.89,71.32h7.23v2.97h-7.23v-2.97Z"/><circle class="n" cx="276.12" cy="236.68" r="24.19"/><path class="o" d="M270.46,244.33l-1.64-7.92-3.67,8.04h-.52l-3.53-8-1.57,7.82-3.31-.02,3.37-15.23h1.35l3.97,9.36,4.07-9.31h1.38l3.36,15.27-3.27-.02h.01Z"/><path class="o" d="M274.8,236.83c.03-4.3,3.55-7.76,7.84-7.72s7.76,3.55,7.72,7.84c-.03,4.29-3.53,7.74-7.82,7.72-4.19,.08-7.66-3.25-7.75-7.44v-.4h.01Zm12.32,.06c-.06-2.51-2.14-4.49-4.64-4.43-2.51,.06-4.49,2.14-4.43,4.64,.06,2.46,2.06,4.42,4.51,4.43,2.5,.02,4.54-1.98,4.56-4.48v-.17h0Z"/><path class="o" d="M296.92,243.61h-.64v.86h-1.92v-.87h-2.88v-1.37l2.31-4.7h2.52l-.02,4.27h.65v1.81h-.02Zm-2.56-1.82v-1.87l-.77,1.87h.77Z"/><path class="i" d="M290.11,221.23c1.52-1.57,3.14-3.25,4.56-4.78,.73-.63,1.21-1.5,1.34-2.46,0-.74-.59-1.34-1.33-1.34h0c-.99,0-1.58,.94-1.56,1.99l-3.54-.96c.11-2.72,2.37-4.85,5.08-4.82,2.65-.16,4.92,1.86,5.08,4.5v.07c0,1.89-.95,3.25-2.32,4.66-.47,.53-1.01,1.14-1.48,1.69h3.79v3.58h-9.6v-2.14h-.02Z"/><path class="i" d="M301.39,215.69h7.23v2.97h-7.23v-2.97Z"/><circle class="h" cx="135.34" cy="49.19" r="25.36"/><path class="o" d="M118.15,54.87l2.04-2.51c.85,1.07,2.1,1.74,3.46,1.87,1.13,0,1.81-.64,1.81-1.48,.01-2.75-6.84-2.09-6.77-7.22,.01-2.41,2.05-4.38,5.07-4.37,1.88,.04,3.67,.83,4.97,2.19l-1.91,2.49c-.78-.81-1.82-1.32-2.95-1.44-1.01,0-1.67,.56-1.67,1.34-.01,2.48,6.84,2.08,6.77,7.18-.04,2.55-2.01,4.57-5.32,4.55-2.13-.02-4.14-.97-5.51-2.6h.01Z"/><path class="o" d="M130.76,49.35c.03-4.51,3.72-8.13,8.22-8.09s8.13,3.72,8.09,8.22c-.03,4.5-3.7,8.12-8.2,8.1-4.4,.09-8.03-3.41-8.12-7.81v-.42h0Zm12.91,.07c-.06-2.63-2.24-4.71-4.87-4.65-2.63,.06-4.71,2.24-4.65,4.87,.06,2.57,2.16,4.64,4.73,4.65,2.62,.02,4.76-2.08,4.78-4.69v-.17h0Z"/><path class="o" d="M153.94,56.45h-.68v.9h-2.01v-.91h-3.02v-1.43l2.42-4.92h2.64l-.02,4.48h.68v1.88h0Zm-2.69-1.91v-1.96l-.81,1.96h.81Z"/><path class="t" d="M150,33.99c1.59-1.64,3.29-3.41,4.77-5.01,.77-.66,1.26-1.58,1.4-2.58,0-.77-.62-1.4-1.4-1.41h0c-1.04,0-1.65,.98-1.63,2.09l-3.71-1c.12-2.85,2.48-5.08,5.33-5.05,2.77-.17,5.16,1.95,5.32,4.72v.08c0,1.98-.99,3.41-2.44,4.88-.49,.55-1.06,1.19-1.55,1.77h3.97v3.75h-10.06v-2.24Z"/><path class="u" d="M162.45,24.92h7.58v3.11h-7.58v-3.11Z"/><circle class="f" cx="34.11" cy="189.15" r="31.85"/><path class="s" d="M53.05,167.28l13.39,.49-.19,5.28-13.39-.49,.19-5.28Z"/><path class="o" d="M27.94,192.83c-.1,2.88-2.34,5.64-6.44,5.5l-7.94-.29,.73-19.93,6.83,.25c4.1,.15,5.94,2.75,5.84,5.54-.03,1.5-.75,2.9-1.93,3.81,1.91,.97,3.06,2.99,2.92,5.12h0Zm-4.48-.68c0-1.24-1-2.26-2.25-2.26h-.15l-3.02-.11-.16,4.38,3.02,.11c1.24,.17,2.37-.7,2.54-1.94,0-.06,.01-.13,.02-.19h0Zm-5.14-9.83l-.14,3.96,2.11,.08c1.15,.17,2.22-.61,2.39-1.76,0-.05,.01-.1,.02-.15,.04-1.14-.78-2-2.23-2.05l-2.14-.08h-.01Z"/><path class="o" d="M30.51,188.68c.05-5.56,4.6-10.03,10.16-9.98,.18,0,.35,0,.53,.02,5.71,.22,10.15,5.03,9.93,10.74-.22,5.68-5,10.12-10.68,9.93-5.55-.06-10.01-4.6-9.95-10.15,0-.19,0-.37,.02-.56h0Zm16.31,.59c.03-3.32-2.64-6.04-5.96-6.06-3.32-.03-6.04,2.64-6.06,5.96-.03,3.26,2.54,5.94,5.79,6.06,3.3,.14,6.09-2.43,6.23-5.74v-.22h0Z"/><path class="o" d="M59.4,196.8c-.1,1.74-1.58,3.06-3.32,2.97-.06,0-.12,0-.18-.02-1.54,0-2.88-1.03-3.27-2.51l2.46-.91c.09,.44,.46,.76,.91,.8,.41,.03,.76-.27,.79-.67h0c.02-.41-.28-.75-.68-.78h-.06c-.17,0-.34,.04-.49,.12l-1.4-1.36,1.71-1.5-2.62-.1,.09-2.53,5.78,.21-.08,2.28-1.41,1.15c1.13,.49,1.84,1.63,1.78,2.86h0Z"/><circle class="g" cx="517.09" cy="154.17" r="20.39" transform="translate(282.06 639.88) rotate(-80.78)"/><path class="s" d="M529.2,140.17l8.57,.31-.12,3.38-8.57-.31,.12-3.38Z"/><path class="o" d="M513.12,156.54c-.08,2.04-1.8,3.62-3.84,3.54-.09,0-.19,0-.28-.02l-5.08-.19,.46-12.76,4.37,.16c2.62,.1,3.8,1.76,3.74,3.55-.02,.96-.48,1.85-1.24,2.44,1.22,.62,1.96,1.91,1.87,3.28Zm-2.87-.43c0-.8-.64-1.44-1.44-1.45h-.1l-1.93-.07-.1,2.81,1.93,.07c.79,.11,1.52-.45,1.63-1.24,0-.04,0-.08,.01-.12Zm-3.29-6.31l-.09,2.53,1.35,.05c.73,.11,1.42-.39,1.53-1.13,0-.03,0-.06,.01-.09,.03-.73-.5-1.28-1.43-1.31l-1.37-.05h0Z"/><path class="o" d="M514.77,153.88c.14-3.64,3.21-6.48,6.85-6.34,3.64,.14,6.48,3.21,6.34,6.85-.14,3.64-3.2,6.47-6.84,6.34-3.56-.04-6.41-2.96-6.37-6.52,0-.11,0-.22,.01-.34h.01Zm10.44,.4c.02-2.13-1.69-3.86-3.82-3.88s-3.86,1.69-3.88,3.82c-.02,2.08,1.63,3.8,3.71,3.88,2.11,.09,3.9-1.56,3.99-3.67v-.14h0Z"/><path class="o" d="M533.27,159.08c-.06,1.11-1.01,1.96-2.12,1.9h-.12c-.98,0-1.85-.66-2.09-1.61l1.57-.58c.06,.28,.3,.49,.58,.51,.26,.02,.49-.17,.51-.43h0c.01-.26-.18-.48-.44-.5h-.04c-.11,0-.22,.03-.31,.08l-.9-.87,1.09-.96-1.68-.06,.06-1.62,3.7,.13-.05,1.46-.9,.73c.72,.31,1.18,1.04,1.14,1.83h0Z"/></g></g></g></svg>