<svg xmlns="http://www.w3.org/2000/svg" xmlns:xlink="http://www.w3.org/1999/xlink" viewBox="0 0 764.95 522.31"><defs><style>.cls-1,.cls-38{fill:none;}.cls-2,.cls-23,.cls-36,.cls-4,.cls-5{fill:#fff;}.cls-2{stroke:#5e5252;}.cls-2,.cls-23,.cls-24,.cls-25,.cls-26,.cls-27,.cls-28,.cls-29,.cls-30,.cls-31,.cls-32,.cls-33,.cls-38{stroke-miterlimit:10;}.cls-2,.cls-38{stroke-width:0.93px;}.cls-3{clip-path:url(#clip-path);}.cls-4{opacity:0;}.cls-13,.cls-36,.cls-6{font-size:20.48px;}.cls-14,.cls-6{fill:#5e5252;}.cls-13,.cls-36,.cls-39,.cls-6{font-family:Acre-Light, Acre;font-weight:300;}.cls-7{letter-spacing:-0.02em;}.cls-8{letter-spacing:-0.01em;}.cls-9{letter-spacing:0em;}.cls-10{letter-spacing:-0.02em;}.cls-11{letter-spacing:-0.01em;}.cls-12{letter-spacing:-0.01em;}.cls-13{fill:#5c5052;}.cls-14{font-size:21.95px;font-family:Acre-Regular, Acre;}.cls-15{letter-spacing:0em;}.cls-16{letter-spacing:0em;}.cls-17{letter-spacing:-0.02em;}.cls-18{letter-spacing:-0.01em;}.cls-19{letter-spacing:-0.02em;}.cls-20{letter-spacing:-0.01em;}.cls-21{fill:#ffce01;}.cls-22{fill:#f27243;}.cls-23,.cls-24,.cls-25{stroke:#fff;stroke-width:0.52px;}.cls-24,.cls-34{fill:#ec6a7c;}.cls-25,.cls-26,.cls-27,.cls-32,.cls-33{fill:#ffcf01;}.cls-26,.cls-32,.cls-33{stroke:#ffea92;}.cls-26,.cls-27{stroke-width:0.46px;}.cls-27{stroke:#7f7778;}.cls-28,.cls-29,.cls-30,.cls-31{fill:#f37243;stroke:#b9b4b4;}.cls-28{stroke-width:0.35px;}.cls-29{stroke-width:0.38px;}.cls-30{stroke-width:0.32px;}.cls-31{stroke-width:0.35px;}.cls-32{stroke-width:0.44px;}.cls-33{stroke-width:0.42px;}.cls-35{fill:#3daaa1;}.cls-37{letter-spacing:-0.02em;}.cls-38{stroke:#5d5153;}.cls-39{font-size:50px;fill:#3baaa1;}.cls-40{letter-spacing:-0.02em;}.cls-41{letter-spacing:0em;}.cls-42{letter-spacing:-0.02em;}.cls-43{letter-spacing:0em;}</style><clipPath id="clip-path"><rect class="cls-1" x="22.73" y="14.44" width="703.25" height="447.52"/></clipPath></defs><g id="Layer_2" data-name="Layer 2"><g id="Layer_6" data-name="Layer 6"><rect class="cls-2" x="0.46" y="0.46" width="764.02" height="521.39"/><g class="cls-3"><rect class="cls-4" x="22.73" y="14.44" width="703.25" height="447.52"/></g><rect class="cls-5" x="105.63" y="238.79" width="85.59" height="59.99"/><text class="cls-6" transform="translate(108.91 279.06)">g<tspan class="cls-7" x="12.64" y="0">r</tspan><tspan class="cls-8" x="18.45" y="0">o</tspan><tspan class="cls-9" x="30.48" y="0">w</tspan><tspan x="46.68" y="0">i</tspan><tspan class="cls-8" x="51.82" y="0">n</tspan><tspan x="63.19" y="0">g </tspan><tspan x="-0.55" y="24.58">bac</tspan><tspan class="cls-7" x="35.54" y="24.58">t</tspan><tspan x="40.8" y="24.58">eria</tspan></text><text class="cls-6" transform="translate(200.34 132.76)"><tspan class="cls-10">s</tspan><tspan class="cls-7" x="8.01" y="0">t</tspan><tspan x="13.27" y="0">ar</tspan><tspan class="cls-9" x="32.14" y="0">v</tspan><tspan x="42.32" y="0">i</tspan><tspan class="cls-8" x="47.46" y="0">n</tspan><tspan x="58.83" y="0">g </tspan><tspan x="-2.73" y="24.58">bac</tspan><tspan class="cls-7" x="33.36" y="24.58">t</tspan><tspan x="38.62" y="24.58">eria</tspan></text><rect class="cls-5" x="483.11" y="108.58" width="85.59" height="59.99"/><text class="cls-6" transform="translate(490.4 131.29)">deca<tspan class="cls-9" x="47.66" y="0">y</tspan><tspan x="57.68" y="0">i</tspan><tspan class="cls-8" x="62.82" y="0">n</tspan><tspan x="74.19" y="0">g </tspan><tspan x="4.95" y="24.58">bac</tspan><tspan class="cls-7" x="41.04" y="24.58">t</tspan><tspan x="46.3" y="24.58">eria</tspan></text><rect class="cls-5" x="573.15" y="243.18" width="136.73" height="95.83"/><text class="cls-6" transform="translate(588.57 279.29)">cell<tspan class="cls-11" x="31.65" y="0"> </tspan><tspan class="cls-8" x="38.55" y="0">w</tspan><tspan x="54.55" y="0">all </tspan><tspan x="-7.5" y="24.58">f</tspan><tspan class="cls-7" x="-1.82" y="24.58">r</tspan><tspan x="3.99" y="24.58">ag</tspan><tspan class="cls-8" x="29.27" y="24.58">m</tspan><tspan x="46.86" y="24.58">en</tspan><tspan class="cls-12" x="70.11" y="24.58">t</tspan><tspan x="75.58" y="24.58">s </tspan></text><text class="cls-13" transform="translate(297.68 459.32)">f<tspan class="cls-7" x="5.67" y="0">r</tspan><tspan x="11.49" y="0">ag</tspan><tspan class="cls-8" x="36.77" y="0">m</tspan><tspan x="54.36" y="0">en</tspan><tspan class="cls-12" x="77.61" y="0">t</tspan><tspan x="83.08" y="0">s bou</tspan><tspan class="cls-8" x="135.14" y="0">n</tspan><tspan x="146.51" y="0">d </tspan><tspan class="cls-7" x="166.22" y="0">t</tspan><tspan x="171.48" y="0">o </tspan><tspan x="16.44" y="24.58">mi</tspan><tspan class="cls-8" x="39.48" y="24.58">n</tspan><tspan x="50.85" y="24.58">e</tspan><tspan class="cls-7" x="62.42" y="24.58">r</tspan><tspan x="68.24" y="24.58">al sur</tspan><tspan class="cls-7" x="118.83" y="24.58">f</tspan><tspan x="124.09" y="24.58">ac</tspan><tspan class="cls-9" x="147.55" y="24.58">e</tspan><tspan x="159.02" y="24.58">s</tspan></text><rect class="cls-5" x="314.12" y="241.72" width="141.19" height="98.95"/><text class="cls-14" transform="translate(329.08 275.11)"><tspan class="cls-15">s</tspan><tspan class="cls-16" x="9.13" y="0">oil o</tspan><tspan class="cls-17" x="53.83" y="0">r</tspan><tspan x="60.37" y="0">ganic </tspan><tspan class="cls-18" x="-25.84" y="26.34">m</tspan><tspan x="-6.66" y="26.34">at</tspan><tspan class="cls-19" x="13.33" y="26.34">t</tspan><tspan x="19.34" y="26.34">er </tspan><tspan class="cls-19" x="46.14" y="26.34">f</tspan><tspan class="cls-16" x="52.15" y="26.34">or</tspan><tspan class="cls-20" x="72.28" y="26.34">m</tspan><tspan x="91.46" y="26.34">ation</tspan></text><rect class="cls-5" x="517.29" y="247.06" width="48.08" height="48.68"/><rect class="cls-5" x="438.93" y="155.05" width="48.08" height="48.68"/><rect class="cls-5" x="272.12" y="163.36" width="48.08" height="48.68"/><rect class="cls-5" x="194.35" y="254.78" width="48.08" height="48.68"/><path class="cls-21" d="M435.92,403.08a1.22,1.22,0,0,0-1.06-.63l-44.42-.14L346,402.18a1.21,1.21,0,0,0-1.07.62l-12.59,22.32a1.22,1.22,0,0,0,1.06,1.82l56.94.17,56.94.18a1.22,1.22,0,0,0,1.07-1.81Z"/><path class="cls-21" d="M436,376.28a1.23,1.23,0,0,1-1.07.62l-44.42-.14-44.42-.13A1.22,1.22,0,0,1,345,376l-12.45-22.4a1.22,1.22,0,0,1,1.07-1.81l56.94.17,56.94.18a1.22,1.22,0,0,1,1.06,1.82Z"/><rect class="cls-22" x="345.43" y="376.59" width="90.09" height="25.89" rx="1.36" transform="translate(1.19 -1.19) rotate(0.18)"/><rect class="cls-23" x="191.11" y="195.4" width="112.75" height="50.17" transform="matrix(0.99, 0.16, -0.16, 0.99, 38.79, -37.02)"/><path class="cls-24" d="M233.62,331.68l5.33-4.44-6.11-1.66c-.06-.37-.11-.71-.18-1.08a6.39,6.39,0,1,1,12.44-2.81,77.7,77.7,0,0,1-.15,29.22h0a6.66,6.66,0,0,1-.19.7,6.39,6.39,0,1,1-12.14-4S234.53,342.2,233.62,331.68Z"/><path class="cls-24" d="M214.15,323.58l-5.93-2.19L213,318.1l-.18-1a5.82,5.82,0,0,0-9.37-4.21,5.85,5.85,0,0,0-2.17,5.61,70.9,70.9,0,0,0,9.08,25l0,0c.11.18.24.36.37.54a5.82,5.82,0,0,0,9.2-7.13S216.59,332.88,214.15,323.58Z"/><path class="cls-24" d="M250.17,212.2l5.33-4.44-6.11-1.66c-.06-.37-.11-.71-.18-1.08a6.38,6.38,0,1,1,12.44-2.8,77.62,77.62,0,0,1-.15,29.21h0a6.06,6.06,0,0,1-.19.7,6.39,6.39,0,1,1-12.14-4S251.08,222.72,250.17,212.2Z"/><path class="cls-24" d="M230.7,204.1l-5.93-2.19,4.73-3.29c-.06-.33-.12-.64-.17-1a5.82,5.82,0,1,0-11.54,1.4,70.68,70.68,0,0,0,9.07,25l0,0,.37.54a5.82,5.82,0,0,0,9.21-7.13S233.14,213.41,230.7,204.1Z"/><path class="cls-24" d="M269.31,231.34l5.32-4.44-6.11-1.67c-.06-.36-.1-.7-.17-1.07a6.31,6.31,0,0,1,.08-3.72,6.38,6.38,0,0,1,12.36.91,77.56,77.56,0,0,1-.16,29.22h0q-.07.34-.18.69a6.39,6.39,0,1,1-12.14-4S270.21,241.86,269.31,231.34Z"/><path class="cls-24" d="M215.18,225.31l-5.93-2.19,4.74-3.3c-.06-.33-.13-.64-.18-1a5.82,5.82,0,1,0-11.54,1.41,70.67,70.67,0,0,0,9.07,25l0,0a4,4,0,0,0,.37.54,5.82,5.82,0,1,0,9.2-7.12S217.62,234.61,215.18,225.31Z"/><path class="cls-25" d="M383.24,153.86l4.29-3.58-4.93-1.35c-.05-.29-.08-.57-.14-.87a5.15,5.15,0,1,1,10-2.26,62.72,62.72,0,0,1-.12,23.58h0q-.06.28-.15.57a5.16,5.16,0,0,1-9.8-3.21S384,162.35,383.24,153.86Z"/><path class="cls-25" d="M367.52,147.32l-4.79-1.76,3.82-2.66c0-.27-.1-.52-.14-.79a4.7,4.7,0,1,0-9.31,1.13,57,57,0,0,0,7.32,20.2l0,0a4.27,4.27,0,0,0,.3.44,4.7,4.7,0,1,0,7.42-5.76S369.49,154.83,367.52,147.32Z"/><path class="cls-25" d="M398.68,169.31l4.3-3.59-4.93-1.34c-.05-.29-.09-.57-.14-.87a5.15,5.15,0,1,1,10-2.26,62.61,62.61,0,0,1-.13,23.58h0a5.15,5.15,0,1,1-9.94-2.65S399.41,177.8,398.68,169.31Z"/><path class="cls-25" d="M355,164.44l-4.78-1.77L354,160c0-.26-.1-.51-.14-.79a4.59,4.59,0,0,0-1-2.55,4.7,4.7,0,0,0-8.34,3.68,57.29,57.29,0,0,0,7.33,20.2h0a4.15,4.15,0,0,0,.3.43,4.7,4.7,0,0,0,7.43-5.75S357,172,355,164.44Z"/><path class="cls-25" d="M524.23,189.94l3.83-3.2-4.4-1.2c0-.26,1.66-1.48,1.61-1.75-.24-.84-2-.8-1.68-1.7a4.59,4.59,0,0,1,5.8-2.94c1.68.55.82,3,1.1,4.64,0,0,3.38,4,1.11,15.64l.75,4.34a4.07,4.07,0,0,1-.13.5c-.79,2.41-2.3.42-4.71-.37s-4.82-.08-4-2.49C523.48,201.41,524.88,197.51,524.23,189.94Z"/><path class="cls-25" d="M511.38,199.25l-5.59-2.06,4.46-3.1c-.05-.31-.11-.6-.16-.92-.07-1-1.92-1.3-1.92-2.43,0-1.55-3.43-1.54-5.82.32-1.66,1.29-3.47,1.49-3.13,3.43,0,0,.31,2.46,7.51,14.59l1.07,9a3.54,3.54,0,0,0,.35.51,5.49,5.49,0,0,0,7.69,1c2.39-1.85-1.41-5.62-3.26-8C512.58,211.52,513.68,208,511.38,199.25Z"/><path class="cls-25" d="M534,214.13l4.69-1.72-3.74-2.6c0-.27.1-.51.14-.78a4.59,4.59,0,0,1,7.4-3.31c1.39,1.08.15,6.42-.13,8a33.35,33.35,0,0,0-5.34,16.13h0a3.93,3.93,0,0,1-.29.42,4.59,4.59,0,0,1-6.44.82c-2-1.56.43-4.75,2-6.75C532.27,224.37,532.1,221.48,534,214.13Z"/><path class="cls-25" d="M497.62,220.14l-5-1.85,4-2.79c-.05-.28-.11-.54-.15-.83a5,5,0,0,0-1-2.68,4.83,4.83,0,0,0-6.82-1c-1.49,1.16-.44,3.94-1.93,4.84,0,0-.16,3.09,6.31,14l1.4,7.18c.09.15.2.31.31.46a4.93,4.93,0,0,0,6.92.87c2.15-1.66-.39-4.17-2.06-6.32C499.57,232.05,499.69,228,497.62,220.14Z"/><path class="cls-26" d="M552.22,311.34l-4.25-.27a2.44,2.44,0,0,1-2.16-2.63l.1-1.73a2.36,2.36,0,0,1,2.43-2.32l4.25.27a2.43,2.43,0,0,1,2.16,2.62l-.1,1.74A2.37,2.37,0,0,1,552.22,311.34Z"/><path class="cls-26" d="M557.44,324.93l-4.24.45a2.43,2.43,0,0,1-2.57-2.22l-.2-1.72a2.37,2.37,0,0,1,2-2.71l4.24-.45a2.43,2.43,0,0,1,2.57,2.22l.2,1.72A2.38,2.38,0,0,1,557.44,324.93Z"/><path class="cls-26" d="M555.37,337.34l-4.24.45a2.42,2.42,0,0,1-2.57-2.22l-.2-1.72a2.38,2.38,0,0,1,2-2.71l4.24-.45a2.43,2.43,0,0,1,2.57,2.22l.2,1.73A2.37,2.37,0,0,1,555.37,337.34Z"/><path class="cls-26" d="M550.88,348.74l-4.22-.64a2.43,2.43,0,0,1-1.92-2.8l.25-1.72a2.37,2.37,0,0,1,2.62-2.11l4.22.64a2.43,2.43,0,0,1,1.92,2.8l-.25,1.72A2.37,2.37,0,0,1,550.88,348.74Z"/><path class="cls-27" d="M539,346.15l-4.21-.64a2.42,2.42,0,0,1-1.92-2.8l.24-1.72a2.38,2.38,0,0,1,2.62-2.11l4.22.65a2.43,2.43,0,0,1,1.92,2.8l-.25,1.72A2.36,2.36,0,0,1,539,346.15Z"/><path class="cls-27" d="M544.78,323.86l-4.23-.51a2.42,2.42,0,0,1-2-2.75l.19-1.72a2.38,2.38,0,0,1,2.56-2.19l4.23.52a2.43,2.43,0,0,1,2,2.74l-.19,1.73A2.38,2.38,0,0,1,544.78,323.86Z"/><path class="cls-27" d="M528.06,320.57l-4.27-.1a2.42,2.42,0,0,1-2.26-2.53l0-1.73a2.37,2.37,0,0,1,2.33-2.43l4.27.1a2.42,2.42,0,0,1,2.26,2.53l0,1.73A2.37,2.37,0,0,1,528.06,320.57Z"/><path class="cls-26" d="M534.33,336.84l-4.22-.64a2.43,2.43,0,0,1-1.92-2.8l.25-1.72a2.37,2.37,0,0,1,2.62-2.11l4.22.65a2.42,2.42,0,0,1,1.91,2.8l-.24,1.72A2.37,2.37,0,0,1,534.33,336.84Z"/><path class="cls-26" d="M530.71,331.67l-4.22-.64a2.43,2.43,0,0,1-1.92-2.8l.25-1.72a2.37,2.37,0,0,1,2.62-2.11l4.22.65a2.42,2.42,0,0,1,1.91,2.8l-.24,1.71A2.38,2.38,0,0,1,530.71,331.67Z"/><path class="cls-26" d="M522,336.63l-4.2.77a2.44,2.44,0,0,1-2.73-2l-.32-1.71a2.37,2.37,0,0,1,1.78-2.85l4.2-.76a2.43,2.43,0,0,1,2.73,2l.33,1.7A2.38,2.38,0,0,1,522,336.63Z"/><path class="cls-26" d="M528.18,349.56l-4.19.77a2.44,2.44,0,0,1-2.73-2l-.33-1.71a2.36,2.36,0,0,1,1.79-2.84l4.2-.77a2.41,2.41,0,0,1,2.72,2l.33,1.7A2.37,2.37,0,0,1,528.18,349.56Z"/><path class="cls-26" d="M534.69,357.35l-4.26-.22a2.41,2.41,0,0,1-2.19-2.59l.07-1.73a2.36,2.36,0,0,1,2.39-2.36l4.26.21a2.42,2.42,0,0,1,2.19,2.59l-.07,1.74A2.37,2.37,0,0,1,534.69,357.35Z"/><path class="cls-26" d="M537.79,361l-4.26-.22a2.42,2.42,0,0,1-2.19-2.59l.07-1.73a2.37,2.37,0,0,1,2.39-2.36l4.26.21a2.43,2.43,0,0,1,2.2,2.59l-.08,1.74A2.37,2.37,0,0,1,537.79,361Z"/><path class="cls-26" d="M550.56,361.28l-4.14-1a2.44,2.44,0,0,1-1.68-3l.4-1.69a2.37,2.37,0,0,1,2.79-1.87l4.14,1a2.43,2.43,0,0,1,1.68,2.95l-.4,1.69A2.37,2.37,0,0,1,550.56,361.28Z"/><rect class="cls-26" x="529.84" y="301.17" width="8.85" height="6.69" rx="3.35"/><rect class="cls-26" x="533.6" y="307.15" width="8.85" height="6.69" rx="3.35"/><rect class="cls-26" x="512.91" y="304.32" width="8.85" height="6.69" rx="3.35"/><rect class="cls-26" x="504.5" y="325.52" width="8.85" height="6.69" rx="3.35"/><rect class="cls-26" x="538.63" y="327.59" width="8.85" height="6.69" rx="3.35"/><rect class="cls-26" x="504.29" y="337.94" width="8.85" height="6.69" rx="3.35"/><rect class="cls-28" x="425.02" y="357.25" width="6.71" height="5.07" rx="2.54"/><rect class="cls-28" x="420.95" y="359.96" width="6.71" height="5.07" rx="2.54"/><rect class="cls-28" x="417.56" y="357.25" width="6.71" height="5.07" rx="2.54"/><rect class="cls-28" x="414.85" y="361.32" width="6.71" height="5.07" rx="2.54"/><rect class="cls-28" x="418.24" y="364.71" width="6.71" height="5.07" rx="2.54"/><rect class="cls-28" x="412.13" y="364.71" width="6.71" height="5.07" rx="2.54"/><rect class="cls-28" x="423.66" y="364.03" width="6.71" height="5.07" rx="2.54"/><rect class="cls-28" x="427.05" y="360.64" width="6.71" height="5.07" rx="2.54" transform="translate(33.37 -36.21) rotate(5.01)"/><rect class="cls-29" x="429.86" y="417.27" width="7.22" height="5.46" rx="2.73" transform="translate(38.34 -36.26) rotate(5.01)"/><rect class="cls-29" x="424.03" y="417.27" width="7.22" height="5.46" rx="2.73" transform="translate(38.32 -35.75) rotate(5.01)"/><rect class="cls-29" x="422.57" y="409.24" width="7.22" height="5.46" rx="2.73" transform="translate(37.61 -35.65) rotate(5.01)"/><rect class="cls-29" x="417.46" y="417.27" width="7.22" height="5.46" rx="2.73" transform="translate(-81.18 101.49) rotate(-12.55)"/><rect class="cls-29" x="416.73" y="412.16" width="7.22" height="5.46" rx="2.73" transform="translate(-80.09 101.21) rotate(-12.55)"/><rect class="cls-29" x="429.13" y="411.43" width="7.22" height="5.46" rx="2.73" transform="translate(107.68 -88.96) rotate(13.39)"/><rect class="cls-29" x="420.38" y="413.62" width="7.22" height="5.46" rx="2.73" transform="translate(-34.38 38.18) rotate(-4.96)"/><rect class="cls-29" x="426.22" y="413.62" width="7.22" height="5.46" rx="2.73" transform="translate(108.11 -88.22) rotate(13.39)"/><rect class="cls-30" x="375.47" y="417.82" width="6.11" height="4.62" rx="2.31" transform="translate(38.15 -31.46) rotate(5.01)"/><rect class="cls-30" x="370.53" y="417.82" width="6.11" height="4.62" rx="2.31" transform="translate(38.13 -31.03) rotate(5.01)"/><rect class="cls-30" x="369.3" y="411.02" width="6.11" height="4.62" rx="2.31" transform="translate(37.53 -30.95) rotate(5.01)"/><rect class="cls-30" x="364.97" y="417.82" width="6.11" height="4.62" rx="2.31" transform="translate(-82.47 89.97) rotate(-12.55)"/><rect class="cls-30" x="364.35" y="413.49" width="6.11" height="4.62" rx="2.31" transform="translate(-81.55 89.74) rotate(-12.55)"/><rect class="cls-30" x="374.86" y="412.87" width="6.11" height="4.62" rx="2.31" transform="translate(106.43 -76.23) rotate(13.39)"/><rect class="cls-30" x="367.44" y="414.73" width="6.11" height="4.62" rx="2.31" transform="translate(-34.64 33.56) rotate(-4.96)"/><rect class="cls-30" x="372.39" y="414.73" width="6.11" height="4.62" rx="2.31" transform="translate(106.79 -75.61) rotate(13.39)"/><rect class="cls-28" x="412.13" y="357.25" width="6.71" height="5.07" rx="2.54"/><rect class="cls-31" x="344.27" y="358.67" width="6.7" height="5.07" rx="2.53" transform="translate(467.28 848.02) rotate(-149.91)"/><rect class="cls-31" x="345.84" y="362.71" width="6.7" height="5.07" rx="2.53" transform="translate(468.18 856.35) rotate(-149.91)"/><rect class="cls-31" x="350.23" y="360.55" width="6.7" height="5.07" rx="2.53" transform="translate(477.44 854.52) rotate(-149.91)"/><rect class="cls-31" x="348.99" y="355.92" width="6.7" height="5.07" rx="2.53" transform="translate(477.46 845.27) rotate(-149.91)"/><rect class="cls-31" x="354.27" y="358.98" width="6.7" height="5.07" rx="2.53" transform="translate(485.77 853.61) rotate(-149.91)"/><rect class="cls-31" x="350.53" y="365.43" width="6.7" height="5.07" rx="2.53" transform="translate(475.57 863.77) rotate(-149.91)"/><rect class="cls-28" x="408.74" y="361.32" width="6.71" height="5.07" rx="2.54"/><rect class="cls-32" x="511.27" y="348.28" width="8.01" height="6.69" rx="3.35"/><rect class="cls-33" x="509.96" y="316.97" width="8.14" height="6.15" rx="3.08"/><path class="cls-27" d="M524.09,342l-4.23-.51a2.41,2.41,0,0,1-2-2.74l.19-1.73a2.37,2.37,0,0,1,2.56-2.18l4.23.51a2.44,2.44,0,0,1,2,2.74l-.19,1.73A2.37,2.37,0,0,1,524.09,342Z"/><path class="cls-22" d="M474.69,395.93a10,10,0,0,1-.74-2.4,56.56,56.56,0,0,1-2-7.08L460.3,402.84l18.05,10.68-.68-3.58c-.21-1.08-1.42-4.42-.53-5.22s3.69-.36,4.83-.56a30.54,30.54,0,0,0,5.64-1.61c10.16-3.91,18.54-11.09,26.44-18.36,5.41-5,.37-13.51-6.6-5.78-6.41,7.11-15.09,13.95-24,17.55-2.54,1-5.42,1.66-8.07.57A1.46,1.46,0,0,1,474.69,395.93Z"/><path class="cls-34" d="M556.46,270.38a7.71,7.71,0,0,1-1.92.16,43.65,43.65,0,0,1-5.6.37l10.33,11.31,10.88-11.73-2.77-.06c-.84,0-3.52.33-4-.46s.33-2.8.36-3.69a23,23,0,0,0-.28-4.46c-1.28-8.2-5.27-15.6-9.41-22.67-2.84-4.84-10-2.46-5.38,4,4.26,5.93,8,13.51,9.2,20.73A8.14,8.14,0,0,1,557,270,1.07,1.07,0,0,1,556.46,270.38Z"/><path class="cls-34" d="M474,165a7.47,7.47,0,0,1-1.2,1.49,45.15,45.15,0,0,1-3.6,4.31l15.31.33-1-16-2,2c-.6.6-2.19,2.78-3.08,2.57s-1.8-2.18-2.42-2.82A23.43,23.43,0,0,0,472.7,154c-6.81-4.75-14.93-7-22.89-8.85-5.46-1.29-8.69,5.54-.84,6.63,7.23,1,15.26,3.58,21.35,7.67a8.2,8.2,0,0,1,3.81,4.85A1.09,1.09,0,0,1,474,165Z"/><path class="cls-35" d="M311.52,164.69a7.49,7.49,0,0,1,.64,1.81,43.7,43.7,0,0,1,1.78,5.32L322.25,159l-14.1-7.55.64,2.7c.2.82,1.22,3.32.58,4s-2.8.39-3.67.58a23.44,23.44,0,0,0-4.24,1.41c-7.61,3.31-13.76,9.06-19.54,14.85-4,4,.16,10.3,5.21,4.19,4.66-5.62,11.05-11.12,17.72-14.16a8.25,8.25,0,0,1,6.13-.7A1.16,1.16,0,0,1,311.52,164.69Z"/><path class="cls-35" d="M233.31,267.25a8.35,8.35,0,0,1,1.81.66,43.49,43.49,0,0,1,5.22,2l-4.56-14.62-14.82,6,2.49,1.23c.75.38,3.33,1.19,3.41,2.1s-1.49,2.41-1.9,3.19a22.45,22.45,0,0,0-1.63,4.16c-2.33,8-1.85,16.37-1.1,24.52.51,5.59,8,6.47,6.55-1.32-1.34-7.18-1.47-15.61.47-22.68a8.15,8.15,0,0,1,3.38-5.15A1.11,1.11,0,0,1,233.31,267.25Z"/><path class="cls-35" d="M269.34,386.48a8.82,8.82,0,0,1,1.27-1.89,50.27,50.27,0,0,1,3.85-5.43l-19.19,1.35L258.89,399l2.16-2.51c.66-.76,2.32-3.5,3.46-3.35s2.59,2.34,3.45,3a30.24,30.24,0,0,0,4.72,3c9.23,4.76,19.71,6.43,30,7.72,7,.89,10-7.45,0-7.84-9.19-.36-19.62-2.43-27.85-6.51-2.35-1.17-4.61-2.79-5.5-5.23A1.19,1.19,0,0,1,269.34,386.48Z"/><text class="cls-36" transform="translate(370.74 395.77)">cla<tspan class="cls-37" x="28.08" y="0">y</tspan></text><line class="cls-38" x1="16.21" y1="16.96" x2="36.32" y2="35.58"/><line class="cls-38" x1="35.89" y1="16.28" x2="16.51" y2="35.65"/><text class="cls-39" transform="translate(221.72 66.21)">mic<tspan class="cls-40" x="82.65" y="0">r</tspan><tspan class="cls-41" x="96.85" y="0">obial fil</tspan><tspan class="cls-42" x="265.55" y="0">t</tspan><tspan class="cls-43" x="278.4" y="0">er</tspan></text></g></g></svg>