<svg xmlns="http://www.w3.org/2000/svg" xmlns:xlink="http://www.w3.org/1999/xlink" viewBox="0 0 1327.04 745.17"><defs><style>.cls-1{fill:#4d3b2f;}.cls-12,.cls-13,.cls-15,.cls-2,.cls-25,.cls-39,.cls-40,.cls-41,.cls-44,.cls-45,.cls-46,.cls-55,.cls-58,.cls-60,.cls-62,.cls-7{fill:none;}.cls-2{stroke:#336daa;stroke-width:2.07px;}.cls-2,.cls-39,.cls-40,.cls-56,.cls-60{stroke-linecap:round;}.cls-12,.cls-13,.cls-14,.cls-15,.cls-17,.cls-18,.cls-19,.cls-2,.cls-20,.cls-21,.cls-22,.cls-23,.cls-24,.cls-25,.cls-26,.cls-27,.cls-28,.cls-29,.cls-30,.cls-31,.cls-32,.cls-33,.cls-34,.cls-35,.cls-38,.cls-4,.cls-44,.cls-45,.cls-46,.cls-51,.cls-52,.cls-53,.cls-55,.cls-56,.cls-57,.cls-58,.cls-59,.cls-6,.cls-60,.cls-61,.cls-62,.cls-63,.cls-64,.cls-65,.cls-66,.cls-7,.cls-71{stroke-miterlimit:10;}.cls-3{fill:#336daa;}.cls-26,.cls-32,.cls-4,.cls-59{fill:#ffcf01;}.cls-17,.cls-18,.cls-19,.cls-20,.cls-21,.cls-22,.cls-23,.cls-24,.cls-26,.cls-27,.cls-28,.cls-29,.cls-30,.cls-31,.cls-32,.cls-33,.cls-34,.cls-35,.cls-4,.cls-40,.cls-6,.cls-66{stroke:#fff;}.cls-4,.cls-6{stroke-width:0.35px;}.cls-14,.cls-20,.cls-24,.cls-29,.cls-5,.cls-53,.cls-56,.cls-61,.cls-65,.cls-71{fill:#fff;}.cls-17,.cls-21,.cls-30,.cls-51,.cls-6{fill:#ec6a7c;}.cls-55,.cls-56,.cls-57,.cls-58,.cls-59,.cls-60,.cls-61,.cls-62,.cls-63,.cls-64,.cls-7{stroke:#5b5052;}.cls-7{stroke-width:2.77px;}.cls-57,.cls-63,.cls-64,.cls-8{fill:#5b5052;}.cls-66,.cls-9{fill:#5c5052;}.cls-10,.cls-11{fill:#2b6394;}.cls-10{opacity:0.17;}.cls-12,.cls-13,.cls-14,.cls-15{stroke:#5c5052;}.cls-12{stroke-width:0.82px;}.cls-13{stroke-width:0.97px;}.cls-14{stroke-width:1.68px;opacity:0.5;}.cls-15{stroke-width:0.91px;}.cls-16{clip-path:url(#clip-path);}.cls-17,.cls-28,.cls-31{stroke-width:0.33px;}.cls-18,.cls-34{fill:#3caba2;}.cls-18,.cls-32{stroke-width:0.2px;}.cls-19,.cls-27,.cls-28{fill:#6d54a3;}.cls-19{stroke-width:0.54px;}.cls-20{stroke-width:0.12px;}.cls-21{stroke-width:0.07px;}.cls-22{fill:#6b6264;stroke-width:0.44px;}.cls-23,.cls-31{fill:#f37243;}.cls-23{stroke-width:0.07px;}.cls-24{stroke-width:0.11px;}.cls-25{stroke:#5f5353;stroke-width:0.64px;}.cls-26{stroke-width:0.49px;}.cls-27{stroke-width:0.23px;}.cls-29{stroke-width:0.34px;}.cls-30{stroke-width:0.21px;}.cls-33,.cls-35{fill:#2e6290;}.cls-33{stroke-width:0.17px;}.cls-34{stroke-width:0.32px;}.cls-35{stroke-width:0.21px;}.cls-36{fill:#e86a7c;}.cls-37{fill:#3da89f;}.cls-38{fill:#fbcb08;stroke:#efefef;stroke-width:0.05px;}.cls-39{stroke:#fbcb08;stroke-width:0.33px;}.cls-39,.cls-40{stroke-linejoin:round;}.cls-40{stroke-width:0.8px;}.cls-42{fill:#2e61a1;}.cls-43,.cls-72{fill:#ffbf01;}.cls-44,.cls-45,.cls-46{stroke:#e37243;}.cls-44{stroke-width:0.87px;}.cls-45{stroke-width:0.61px;}.cls-46{stroke-width:0.3px;}.cls-47{fill:#3d9b92;}.cls-48{fill:#e37243;}.cls-49{fill:#2e6192;}.cls-50{fill:#dd6a7c;}.cls-51,.cls-52{stroke:#e8ba25;}.cls-51{stroke-width:0.54px;}.cls-52{fill:#e8ba25;stroke-width:0.56px;}.cls-53,.cls-65,.cls-71{stroke:#3daaa1;}.cls-53{stroke-width:3.02px;}.cls-54{fill:#5e5153;}.cls-55{stroke-width:0.62px;stroke-dasharray:2.47;}.cls-56,.cls-57,.cls-59{stroke-width:0.25px;}.cls-58{stroke-width:0.22px;}.cls-60{stroke-width:0.34px;}.cls-61{stroke-width:0.37px;}.cls-62{stroke-width:0.16px;}.cls-63{stroke-width:0.11px;}.cls-64{stroke-width:0.08px;}.cls-65{stroke-width:3.01px;}.cls-66{stroke-width:0.19px;}.cls-67{fill:#ffbd01;}.cls-68{fill:#db6a7c;}.cls-69{fill:#3d9990;}.cls-70{fill:#336da4;}.cls-71{stroke-width:3px;}.cls-72{fill-rule:evenodd;}</style><clipPath id="clip-path"><circle class="cls-1" cx="951.96" cy="551.39" r="97.9"/></clipPath></defs><g id="Layer_2" data-name="Layer 2"><g id="Layer_17" data-name="Layer 17"><g id="Layer_23" data-name="Layer 23"><path class="cls-2" d="M956.92,232.63s-8,46.87-87,89.88"/><polygon class="cls-3" points="871.42 312.9 872.15 321.21 878.63 326.46 858.96 328.22 871.42 312.9"/><path class="cls-2" d="M297.14,232.33s7.43,46.92,85.85,90.39"/><polygon class="cls-3" points="374.26 326.61 380.78 321.41 381.57 313.1 393.92 328.51 374.26 326.61"/></g><g id="Layer_25" data-name="Layer 25"><path class="cls-1" d="M801.84,689.27a23.1,23.1,0,0,0-4.89-4.61c-5.77-4-13.57-5.59-20.89-4.6a40.28,40.28,0,0,0,1.24-27.18c-5.67-18.13-22.8-28.79-42.86-33.32-16.67-3.75-35.2-1.25-49.75,6.93A15.67,15.67,0,0,0,675,615.06,21.14,21.14,0,0,0,664.52,614c-.81.1-4.52.62-6.74,2.43-6.56-18.69-24-30.18-44.54-30.36-15.44-.13-45.37,5.11-56.81,35a45.18,45.18,0,0,0-2,15.08,30,30,0,0,0-21.06.27,25,25,0,0,0-13.47,12.43A32.8,32.8,0,0,0,509,644.4c-14.4-3.26-30.73,1-40.79,10.65-9.31,8.9-12.88,22-9.4,33.63-14.09,1.2-20.43,16.46-21,28.77-.41,8.88,4.3,15.77,12.63,19.23,15,6.21,34.48,3.54,50.36,4,33.72.9,67.36,3.51,101.09,4.21,14.54.32,29.09.42,43.64.19s29-.75,43.44-1.68q12.85-.84,25.68-2.1c1.78-.17,3.56-.36,5.34-.56,6.27-.7,12.45-2.05,18.78-2.4,17.4-.95,36.09,4.85,52.51-3.31a27.54,27.54,0,0,0,14.29-16.87C808.21,709.05,807.89,696.93,801.84,689.27Z"/><circle class="cls-4" cx="719.91" cy="618.3" r="6.01"/><rect class="cls-5" x="716.85" y="617.48" width="6.24" height="1.53"/><circle class="cls-4" cx="561.34" cy="611.31" r="6.01"/><rect class="cls-5" x="558.28" y="610.48" width="6.24" height="1.53"/><circle class="cls-4" cx="485.38" cy="673.38" r="6.01"/><rect class="cls-5" x="482.32" y="672.56" width="6.24" height="1.53"/><circle class="cls-4" cx="510.89" cy="737.91" r="6.01"/><rect class="cls-5" x="507.83" y="737.09" width="6.24" height="1.53"/><circle class="cls-4" cx="717.69" cy="738.68" r="6.01"/><rect class="cls-5" x="714.62" y="737.85" width="6.24" height="1.53"/><circle class="cls-4" cx="784.32" cy="683.6" r="6.01"/><rect class="cls-5" x="781.25" y="682.77" width="6.24" height="1.53"/><circle class="cls-6" cx="619.28" cy="731.95" r="6.01"/><path class="cls-5" d="M622.31,733h-2.1V735h-2V733h-2V731h2v-2h2v2h2.1Z"/><circle class="cls-6" cx="633.61" cy="590.07" r="6.01"/><path class="cls-5" d="M636.64,591.1h-2.1v2.07h-2V591.1h-2v-2h2v-2h2v2h2.1Z"/><circle class="cls-6" cx="441.73" cy="707.68" r="6.01"/><path class="cls-5" d="M444.76,708.71h-2.1v2.07h-2v-2.07h-2v-2h2v-2h2v2h2.1Z"/><circle class="cls-6" cx="797.53" cy="728.33" r="6.01"/><path class="cls-5" d="M800.56,729.35h-2.1v2.07h-2v-2.07h-2v-1.94h2v-2.06h2v2.06h2.1Z"/><path class="cls-5" d="M543.93,670.89l1.26-1.35a5,5,0,0,0,3.74,2c1.66,0,3-1,3-2.46,0-3.84-7.65-2.58-7.62-7.68,0-2.21,1.91-3.9,4.49-3.93a6.39,6.39,0,0,1,4.64,2.18L552.28,661a4.87,4.87,0,0,0-3.47-1.72,2.4,2.4,0,0,0-2.67,2.15c-.06,3.56,7.65,2.33,7.61,7.71,0,2.36-2,4.21-4.88,4.21A6.65,6.65,0,0,1,543.93,670.89Z"/><path class="cls-5" d="M556.49,665.36a7.77,7.77,0,1,1,7.77,7.93A7.7,7.7,0,0,1,556.49,665.36Zm13.7,0a5.92,5.92,0,1,0-5.93,6.11A5.91,5.91,0,0,0,570.19,665.36Z"/><path class="cls-5" d="M576.05,653.35a1.28,1.28,0,0,1,1.29-1.32,1.31,1.31,0,0,1,1.32,1.32,1.28,1.28,0,0,1-1.32,1.29A1.26,1.26,0,0,1,576.05,653.35Zm.4,4.36h1.84v15.36h-1.84Z"/><path class="cls-5" d="M583.76,648.5h1.84v24.57h-1.84Z"/><path class="cls-5" d="M600.22,665.36a7.77,7.77,0,1,1,7.77,7.93A7.7,7.7,0,0,1,600.22,665.36Zm13.7,0a5.92,5.92,0,1,0-5.93,6.11A5.91,5.91,0,0,0,613.92,665.36Z"/><path class="cls-5" d="M626.05,657.47v2.09c-2.49-.19-4.43,1.9-4.43,5.06v8.45h-1.84V657.71h1.84v2.83A5,5,0,0,1,626.05,657.47Z"/><path class="cls-5" d="M642.36,672.4c0,4.79-3.66,7-7.25,7a10.71,10.71,0,0,1-5.75-1.72l0-2a9.64,9.64,0,0,0,5.5,2c3.23,0,5.68-2,5.68-5.74v-2.15a6.73,6.73,0,0,1-5.89,3.47c-4.27,0-7.25-3.54-7.25-7.87s3-7.89,7.25-7.89a6.63,6.63,0,0,1,5.83,3.44v-3.26h1.81Zm-1.85-7a5.84,5.84,0,0,0-5.65-6.11c-3.29,0-5.56,2.8-5.56,6.11s2.27,6.09,5.56,6.09A5.82,5.82,0,0,0,640.51,665.42Z"/><path class="cls-5" d="M661.3,657.71v15.36h-1.84v-3.16a6.74,6.74,0,0,1-5.84,3.38c-4.27,0-7.24-3.54-7.24-7.87s3-7.89,7.24-7.89a6.68,6.68,0,0,1,5.84,3.41v-3.23Zm-1.84,7.71a5.84,5.84,0,0,0-5.65-6.11c-3.29,0-5.56,2.8-5.56,6.11s2.27,6.09,5.56,6.09A5.82,5.82,0,0,0,659.46,665.42Z"/><path class="cls-5" d="M679.05,664.41v8.66h-1.81v-8.32c0-3.69-1.81-5.59-4.48-5.59-2.37,0-4.27,1.63-4.52,4.82v9.09H666.4V657.71h1.84v2.52a5.59,5.59,0,0,1,4.92-2.79C676.32,657.44,679.05,659.68,679.05,664.41Z"/><path class="cls-5" d="M683.9,653.35a1.29,1.29,0,0,1,1.29-1.32,1.31,1.31,0,0,1,1.32,1.32,1.28,1.28,0,0,1-1.32,1.29A1.26,1.26,0,0,1,683.9,653.35Zm.4,4.36h1.85v15.36H684.3Z"/><path class="cls-5" d="M690.54,665.39a7.92,7.92,0,0,1,13-6.11v2.27a6.6,6.6,0,0,0-5.07-2.27,6.12,6.12,0,0,0,0,12.23,6.61,6.61,0,0,0,5.07-2.28v2.28a7.92,7.92,0,0,1-13-6.12Z"/><path class="cls-5" d="M604.29,700.83l0,9.09h-1.84V701.2c0-3.13-1.57-5.16-4.12-5.16s-4.11,2-4.11,5.38l0,8.5h-1.82V701.2c0-3.13-1.56-5.16-4.11-5.16s-4.12,2-4.12,5.38v8.5h-1.84V694.57h1.84v2.3a5.1,5.1,0,0,1,4.52-2.58,5.23,5.23,0,0,1,5,3.47,5.44,5.44,0,0,1,5.07-3.47C601.77,694.29,604.29,696.59,604.29,700.83Z"/><path class="cls-5" d="M622.5,694.57v15.35h-1.84v-3.16a6.72,6.72,0,0,1-5.84,3.38c-4.27,0-7.25-3.53-7.25-7.86s3-7.9,7.25-7.9a6.68,6.68,0,0,1,5.84,3.41v-3.22Zm-1.84,7.71a5.85,5.85,0,0,0-5.65-6.12c-3.29,0-5.56,2.8-5.56,6.12s2.27,6.08,5.56,6.08A5.82,5.82,0,0,0,620.66,702.28Z"/><path class="cls-5" d="M633,696.35h-3.16v13.57H628V696.35h-2v-1.78h2v-4.12h1.84v4.12H633Z"/><path class="cls-5" d="M641.54,696.35h-3.16v13.57h-1.85V696.35h-2v-1.78h2v-4.12h1.85v4.12h3.16Z"/><path class="cls-5" d="M657.48,702.89H644.79a5.73,5.73,0,0,0,5.9,5.5,7.42,7.42,0,0,0,5.22-2.12v2.09a8.37,8.37,0,0,1-5.28,1.78c-4.82,0-7.71-3.62-7.71-7.89s3-7.87,7.4-7.87C654.9,694.38,657.57,698.38,657.48,702.89Zm-12.65-1.63h10.68c-.39-2.85-2.3-5.1-5.19-5.1A5.54,5.54,0,0,0,644.83,701.26Z"/><path class="cls-5" d="M667.61,694.32v2.09c-2.48-.18-4.42,1.9-4.42,5.07v8.44h-1.84V694.57h1.84v2.82A5,5,0,0,1,667.61,694.32Z"/></g><g id="Layer_34" data-name="Layer 34"><path class="cls-7" d="M1146.29,454.75s-34.14-50.75-86.92-12.16"/><polygon class="cls-8" points="1059.21 433.66 1061.3 441.17 1068.16 444.88 1050.39 449.89 1059.21 433.66"/><path class="cls-9" d="M1121.92,496.27a6.72,6.72,0,0,1-6.84,6.84,6.82,6.82,0,0,1-6.72-5.16l1.68-.69a5.15,5.15,0,0,0,5,4.08,5.09,5.09,0,0,0-.09-10.17,5.31,5.31,0,0,0-4.59,2.55l-1.08-.27,2.43-11.64H1120v1.77h-6.9l-1.35,6.72a6.2,6.2,0,0,1,3.27-.87A6.8,6.8,0,0,1,1121.92,496.27Z"/><path class="cls-9" d="M1124.86,492.34c0-5.82,1.8-10.8,6.57-10.8s6.6,5,6.6,10.8-1.83,10.77-6.6,10.77S1124.86,498.19,1124.86,492.34Zm11.37,0c0-4.29-1.08-9-4.8-9s-4.8,4.74-4.8,9,1.08,9,4.8,9S1136.23,496.6,1136.23,492.34Z"/><path class="cls-9" d="M1140.91,492.91h9.72v1.65h-9.72Z"/><path class="cls-9" d="M1167,496.75a6.71,6.71,0,0,1-13.41,0,6.18,6.18,0,0,1,3.63-5.64,4.93,4.93,0,0,1-2.43-4.35,5.51,5.51,0,0,1,11,0,5,5,0,0,1-2.43,4.35A6.23,6.23,0,0,1,1167,496.75Zm-1.8,0a4.91,4.91,0,0,0-9.81,0,4.91,4.91,0,0,0,9.81,0Zm-8.64-9.93a3.74,3.74,0,0,0,7.47,0,3.74,3.74,0,0,0-7.47,0Z"/><path class="cls-9" d="M1170,492.34c0-5.82,1.8-10.8,6.57-10.8s6.6,5,6.6,10.8-1.83,10.77-6.6,10.77S1170,498.19,1170,492.34Zm11.37,0c0-4.29-1.08-9-4.8-9s-4.8,4.74-4.8,9,1.08,9,4.8,9S1181.32,496.6,1181.32,492.34Z"/><path class="cls-9" d="M1185.61,485.71a4.18,4.18,0,0,1,4.17-4.17,4.12,4.12,0,0,1,4.17,4.17,4.18,4.18,0,0,1-4.17,4.17A4.24,4.24,0,0,1,1185.61,485.71Zm14.85-3.9h1.77l-14.13,21h-1.74Zm-8.07,3.93a2.55,2.55,0,0,0-2.64-2.64,2.53,2.53,0,0,0-2.52,2.64,2.5,2.5,0,0,0,2.52,2.52A2.53,2.53,0,0,0,1192.39,485.74Zm2.16,13.17a4.18,4.18,0,0,1,4.17-4.17,4.11,4.11,0,0,1,4.17,4.17,4.16,4.16,0,0,1-4.17,4.17A4.24,4.24,0,0,1,1194.55,498.91Zm6.78,0a2.58,2.58,0,1,0-2.61,2.52A2.52,2.52,0,0,0,1201.33,498.94Z"/><path class="cls-9" d="M1230.28,478.81v24h-1.8v-3.09a6.56,6.56,0,0,1-5.7,3.3c-4.17,0-7.08-3.45-7.08-7.68s2.91-7.71,7.08-7.71a6.52,6.52,0,0,1,5.7,3.33V478.81Zm-1.8,16.53a5.71,5.71,0,0,0-5.52-6c-3.21,0-5.43,2.73-5.43,6s2.22,5.94,5.43,5.94A5.68,5.68,0,0,0,1228.48,495.34Z"/><path class="cls-9" d="M1248.43,495.94H1236a5.59,5.59,0,0,0,5.76,5.37,7.25,7.25,0,0,0,5.1-2.07v2a8.15,8.15,0,0,1-5.16,1.74c-4.71,0-7.53-3.54-7.53-7.71s2.94-7.68,7.23-7.68C1245.91,487.63,1248.52,491.53,1248.43,495.94Zm-12.36-1.59h10.44c-.39-2.79-2.25-5-5.07-5A5.42,5.42,0,0,0,1236.07,494.35Z"/><path class="cls-9" d="M1265.74,487.81v15h-1.8v-3.09a6.56,6.56,0,0,1-5.7,3.3c-4.17,0-7.08-3.45-7.08-7.68s2.91-7.71,7.08-7.71a6.52,6.52,0,0,1,5.7,3.33v-3.15Zm-1.8,7.53a5.71,5.71,0,0,0-5.52-6c-3.21,0-5.43,2.73-5.43,6s2.22,5.94,5.43,5.94A5.68,5.68,0,0,0,1263.94,495.34Z"/><path class="cls-9" d="M1284.25,478.81v24h-1.8v-3.09a6.56,6.56,0,0,1-5.7,3.3c-4.17,0-7.08-3.45-7.08-7.68s2.91-7.71,7.08-7.71a6.52,6.52,0,0,1,5.7,3.33V478.81Zm-1.8,16.53a5.71,5.71,0,0,0-5.52-6c-3.21,0-5.43,2.73-5.43,6s2.22,5.94,5.43,5.94A5.68,5.68,0,0,0,1282.45,495.34Z"/><path class="cls-9" d="M1159,529.93l0,8.88h-1.8v-8.52c0-3.06-1.53-5-4-5s-4,2-4,5.25l0,8.31h-1.77v-8.52c0-3.06-1.53-5-4-5s-4,2-4,5.25v8.31h-1.8v-15h1.8v2.25a5,5,0,0,1,4.41-2.52,5.12,5.12,0,0,1,4.89,3.39,5.3,5.3,0,0,1,5-3.39C1156.51,523.54,1159,525.79,1159,529.93Z"/><path class="cls-9" d="M1163.68,519.55a1.26,1.26,0,0,1,1.26-1.29,1.28,1.28,0,0,1,1.29,1.29,1.26,1.26,0,0,1-1.29,1.26A1.23,1.23,0,0,1,1163.68,519.55Zm.39,4.26h1.8v15h-1.8Z"/><path class="cls-9" d="M1170.16,531.31a7.74,7.74,0,0,1,12.66-6v2.22a6.44,6.44,0,0,0-5-2.22,6,6,0,0,0,0,11.94,6.44,6.44,0,0,0,5-2.22v2.22a7.74,7.74,0,0,1-12.66-6Z"/><path class="cls-9" d="M1193.17,523.57v2c-2.43-.18-4.32,1.86-4.32,4.95v8.25h-1.8v-15h1.8v2.76A4.91,4.91,0,0,1,1193.17,523.57Z"/><path class="cls-9" d="M1194.52,531.28a7.59,7.59,0,1,1,7.59,7.74A7.53,7.53,0,0,1,1194.52,531.28Zm13.38,0a5.78,5.78,0,1,0-5.79,6A5.77,5.77,0,0,0,1207.9,531.28Z"/><path class="cls-9" d="M1228.21,531.31c0,4.23-2.91,7.71-7.08,7.71a6.52,6.52,0,0,1-5.7-3.33v3.12h-1.8v-24h1.8v12.12a6.56,6.56,0,0,1,5.7-3.3C1225.3,523.63,1228.21,527.08,1228.21,531.31Zm-1.83,0c0-3.27-2.22-5.94-5.43-5.94a6,6,0,0,0,0,11.91C1224.16,537.28,1226.38,534.55,1226.38,531.31Z"/><path class="cls-9" d="M1245.31,531.94h-12.39a5.59,5.59,0,0,0,5.76,5.37,7.25,7.25,0,0,0,5.1-2.07v2a8.15,8.15,0,0,1-5.16,1.74c-4.71,0-7.53-3.54-7.53-7.71s2.94-7.68,7.23-7.68C1242.79,523.63,1245.4,527.53,1245.31,531.94ZM1233,530.35h10.44c-.39-2.79-2.25-5-5.07-5A5.42,5.42,0,0,0,1233,530.35Z"/><path class="cls-9" d="M1247.77,536.68l1.23-1.32a4.88,4.88,0,0,0,3.66,1.95c1.62,0,2.91-.93,2.91-2.4,0-3.75-7.47-2.52-7.44-7.5,0-2.16,1.86-3.81,4.38-3.84a6.26,6.26,0,0,1,4.53,2.13l-1.11,1.29a4.75,4.75,0,0,0-3.39-1.68,2.35,2.35,0,0,0-2.61,2.1c-.06,3.48,7.47,2.28,7.44,7.53,0,2.31-1.92,4.11-4.77,4.11A6.49,6.49,0,0,1,1247.77,536.68Z"/><path class="cls-9" d="M1151.55,559.81v15h-1.8v-3.09a6.56,6.56,0,0,1-5.7,3.3c-4.17,0-7.08-3.45-7.08-7.68s2.91-7.71,7.08-7.71a6.52,6.52,0,0,1,5.7,3.33v-3.15Zm-1.8,7.53a5.71,5.71,0,0,0-5.52-6c-3.21,0-5.43,2.73-5.43,6s2.22,5.94,5.43,5.94A5.68,5.68,0,0,0,1149.75,567.34Z"/><path class="cls-9" d="M1168.89,566.35v8.46h-1.77v-8.13c0-3.6-1.77-5.46-4.38-5.46-2.31,0-4.17,1.59-4.41,4.71v8.88h-1.8v-15h1.8v2.46a5.45,5.45,0,0,1,4.8-2.73C1166.22,559.54,1168.89,561.73,1168.89,566.35Z"/><path class="cls-9" d="M1186.7,550.81v24h-1.79v-3.09a6.56,6.56,0,0,1-5.7,3.3c-4.17,0-7.08-3.45-7.08-7.68s2.91-7.71,7.08-7.71a6.52,6.52,0,0,1,5.7,3.33V550.81Zm-1.79,16.53a5.71,5.71,0,0,0-5.52-6c-3.21,0-5.43,2.73-5.43,6s2.22,5.94,5.43,5.94A5.69,5.69,0,0,0,1184.91,567.34Z"/><path class="cls-9" d="M1207.34,561.55h-3.09v13.26h-1.8V561.55h-1.92v-1.74h1.92v-4h1.8v4h3.09Z"/><path class="cls-9" d="M1222.73,566.35v8.46H1221v-8.13c0-3.6-1.77-5.46-4.38-5.46s-4.44,1.86-4.44,5.46v8.13h-1.8v-24h1.8V562.3a5.49,5.49,0,0,1,4.83-2.76C1220.06,559.54,1222.73,561.73,1222.73,566.35Z"/><path class="cls-9" d="M1240.19,567.94H1227.8a5.59,5.59,0,0,0,5.76,5.37,7.25,7.25,0,0,0,5.1-2.07v2a8.15,8.15,0,0,1-5.16,1.74c-4.71,0-7.53-3.54-7.53-7.71s2.94-7.68,7.23-7.68C1237.67,559.63,1240.28,563.53,1240.19,567.94Zm-12.36-1.59h10.44c-.39-2.79-2.25-5-5.07-5A5.42,5.42,0,0,0,1227.83,566.35Z"/><path class="cls-9" d="M1244,555.55a1.26,1.26,0,0,1,1.26-1.29,1.28,1.28,0,0,1,1.29,1.29,1.26,1.26,0,0,1-1.29,1.26A1.23,1.23,0,0,1,1244,555.55Zm.39,4.26h1.8v15h-1.8Z"/><path class="cls-9" d="M1257.62,559.57v2c-2.43-.18-4.32,1.86-4.32,4.95v8.25h-1.8v-15h1.8v2.76A4.91,4.91,0,0,1,1257.62,559.57Z"/><path class="cls-9" d="M1139.08,603.31c0,4.23-2.91,7.71-7.08,7.71a6.52,6.52,0,0,1-5.7-3.33v3.12h-1.8v-24h1.8v12.12a6.56,6.56,0,0,1,5.7-3.3C1136.17,595.63,1139.08,599.08,1139.08,603.31Zm-1.83,0c0-3.27-2.22-5.94-5.43-5.94a6,6,0,0,0,0,11.91C1135,609.28,1137.25,606.55,1137.25,603.31Z"/><path class="cls-9" d="M1154.65,595.81l-8.94,21h-1.8l2.7-6.36-6.3-14.64h2l5.25,12.66,5.19-12.66Z"/><path class="cls-9" d="M1171.93,603.31c0,4.23-2.91,7.71-7.08,7.71a6.52,6.52,0,0,1-5.67-3.27v9.06h-1.8v-21h1.8v3.09a6.52,6.52,0,0,1,5.67-3.27C1169,595.63,1171.93,599.08,1171.93,603.31Zm-1.83,0c0-3.27-2.22-5.94-5.43-5.94a5.6,5.6,0,0,0-5.49,5.31v1.26a5.63,5.63,0,0,0,5.49,5.34C1167.88,609.28,1170.1,606.55,1170.1,603.31Z"/><path class="cls-9" d="M1182,595.57v2c-2.43-.18-4.32,1.86-4.32,4.95v8.25h-1.8v-15h1.8v2.76A4.91,4.91,0,0,1,1182,595.57Z"/><path class="cls-9" d="M1183.33,603.28a7.59,7.59,0,1,1,7.59,7.74A7.53,7.53,0,0,1,1183.33,603.28Zm13.38,0a5.78,5.78,0,1,0-5.79,6A5.77,5.77,0,0,0,1196.71,603.28Z"/><path class="cls-9" d="M1216,586.81v24h-1.8v-3.09a6.56,6.56,0,0,1-5.7,3.3c-4.17,0-7.08-3.45-7.08-7.68s2.91-7.71,7.08-7.71a6.52,6.52,0,0,1,5.7,3.33V586.81Zm-1.8,16.53a5.71,5.71,0,0,0-5.52-6c-3.21,0-5.43,2.73-5.43,6s2.22,5.94,5.43,5.94A5.68,5.68,0,0,0,1214.17,603.34Z"/><path class="cls-9" d="M1233.07,595.81v15h-1.8v-2.46a5.45,5.45,0,0,1-4.8,2.73c-3.09,0-5.76-2.19-5.76-6.81v-8.46h1.77v8.13c0,3.6,1.77,5.46,4.38,5.46,2.31,0,4.17-1.59,4.41-4.71v-8.88Z"/><path class="cls-9" d="M1237,603.31a7.74,7.74,0,0,1,12.66-6v2.22a6.44,6.44,0,0,0-5-2.22,6,6,0,0,0,0,11.94,6.44,6.44,0,0,0,5-2.22v2.22a7.74,7.74,0,0,1-12.66-6Z"/><path class="cls-9" d="M1259.2,597.55h-3.09v13.26h-1.8V597.55h-1.92v-1.74h1.92v-4h1.8v4h3.09Z"/><path class="cls-9" d="M1260.73,608.68l1.23-1.32a4.88,4.88,0,0,0,3.66,1.95c1.62,0,2.91-.93,2.91-2.4,0-3.75-7.47-2.52-7.44-7.5,0-2.16,1.86-3.81,4.38-3.84a6.26,6.26,0,0,1,4.53,2.13l-1.11,1.29a4.75,4.75,0,0,0-3.39-1.68,2.35,2.35,0,0,0-2.61,2.1c-.06,3.48,7.47,2.28,7.44,7.53,0,2.31-1.92,4.11-4.77,4.11A6.49,6.49,0,0,1,1260.73,608.68Z"/><path class="cls-10" d="M736.54,668.66A16.07,16.07,0,1,1,747.83,649,16,16,0,0,1,736.54,668.66Z"/><path class="cls-11" d="M769.85,669.69q-7.38-4.23-14.78-8.44a4.69,4.69,0,0,0-2.27-.65c-.11,0-.22,0-.37,0a21.33,21.33,0,0,0-.8-16.25,21,21,0,0,0-11.87-11.06,21.55,21.55,0,0,0-21.12,37,20.67,20.67,0,0,0,13.83,4.71,21.48,21.48,0,0,0,16.18-7.69,5.13,5.13,0,0,0,2,2l11.45,6.53c1.31.74,2.6,1.52,4,2.16a4.53,4.53,0,0,0,3.76-8.23Zm-33.31-1A16.07,16.07,0,1,1,747.83,649,16,16,0,0,1,736.54,668.66Z"/><path class="cls-12" d="M1022.7,484.31a97.49,97.49,0,1,1-137.82-3.66A97.48,97.48,0,0,1,1022.7,484.31Z"/><line class="cls-13" x1="722.19" y1="640.63" x2="888.77" y2="477.15"/><path class="cls-14" d="M733.86,637.17a15.87,15.87,0,1,1-17.45,14.12A15.88,15.88,0,0,1,733.86,637.17Z"/><line class="cls-15" x1="730.53" y1="668.74" x2="961.36" y2="648.43"/><circle class="cls-1" cx="951.96" cy="551.39" r="97.9"/><g class="cls-16"><path class="cls-1" d="M942.31,439a45.82,45.82,0,0,1-20,17.65c.81-.36,5.8,7.43,6.32,8.29a52.24,52.24,0,0,1,4.7,9.8c3.74,10.45,3.37,19.88.24,30.46-2.24,7.59-6.81,16.73-13.19,21.65,26.71,9.77,47.4,33.45,57.32,60.11a101.15,101.15,0,0,1,6,41.87A114.17,114.17,0,0,1,980.19,650c-.56,2.15-1,4.33-1.7,6.45a16,16,0,0,1-1.16,3.17c-.35.61-1.35.64-2,.7-.88.09-1.76.06-2.64.14-1.85.17-3.7.27-5.56.29-2.54,0-5.08,0-7.62.11-3.4.1-6.82-.11-10.21,0a16.32,16.32,0,0,1-2.69-.4l-2.74-.45-5.39-.92-.74-.12a77.32,77.32,0,0,1-8.44-1.69c-2.53-.71-5-1.68-7.44-2.64-7.65-3-15.34-6.08-22.44-10.25-6.7-3.94-12-9.32-17.87-14.25-5.41-4.52-9.85-10.7-13.56-16.64-7.81-12.53-12.74-26.64-16.67-40.8a76.45,76.45,0,0,1-2.44-11.19,84.57,84.57,0,0,1-.19-13.32l.23-6.33c.28-7.37.56-14.79,2.19-22,1.85-8.23,5.67-14.65,9.94-21.68,8-13.22,16.39-26.78,28.75-36.08,4.13-3.1,6.14-7.12,10.41-10A77.33,77.33,0,0,1,913.32,445a74.5,74.5,0,0,1,14.59-4.53,69,69,0,0,1,7.57-1.11C936.29,439.25,942,439.47,942.31,439Z"/></g><circle class="cls-17" cx="897.88" cy="502.73" r="11.95"/><path class="cls-18" d="M902,494.1c.64-.68,1.31-1.42,1.95-2.13a2.3,2.3,0,0,0,.73-1.31.74.74,0,0,0-.74-.77.9.9,0,0,0-.87,1l-1.15-.35a2,2,0,0,1,2.06-1.86,1.91,1.91,0,0,1,1.94,1.91,2.86,2.86,0,0,1-.94,1.86l-.88,1,1.77.05,0,1.19-3.84-.12Z"/><path class="cls-18" d="M909.69,492.68l-1.14,0,0,1.16-.94,0,0-1.16-1.12,0,0-.91,1.12,0,0-1.13.94,0,0,1.13,1.15,0Z"/><circle class="cls-19" cx="939.93" cy="625.99" r="9.95"/><path class="cls-20" d="M939.65,628.65l-.76-4-2,4h-.14l-1.68-4-.93,3.84-1.17,0,1.76-7h.15l2,5,2.31-4.83h.15l1.42,7.07Z"/><path class="cls-20" d="M946.08,626l-.09,2.85-1.13,0,.08-2.7c0-.84-.41-1.31-1-1.33a1,1,0,0,0-1.08,1.05l-.09,2.92-1.14,0,.16-4.92,1.13,0,0,.59a1.68,1.68,0,0,1,1.44-.65C945.27,623.79,946.12,624.54,946.08,626Z"/><path class="cls-21" d="M944.92,619.37l1.61-1.76a1.9,1.9,0,0,0,.6-1.09.62.62,0,0,0-.61-.63.75.75,0,0,0-.72.81l-.95-.29a1.64,1.64,0,0,1,1.7-1.53,1.57,1.57,0,0,1,1.6,1.57,2.4,2.4,0,0,1-.77,1.54l-.73.83,1.46,0,0,1-3.17-.1Z"/><path class="cls-21" d="M951.28,618.2l-.95,0,0,1-.78,0,0-1-.92,0,0-.76.93,0,0-.93.77,0,0,.93.94,0Z"/><circle class="cls-22" cx="945.21" cy="518.03" r="8.99"/><path class="cls-23" d="M950.45,512.68l1.75-1.24a1.67,1.67,0,0,0,.74-.84.56.56,0,0,0-.41-.68.69.69,0,0,0-.8.58l-.77-.44a1.48,1.48,0,0,1,1.79-1,1.43,1.43,0,0,1,1.11,1.7,2.18,2.18,0,0,1-1,1.21l-.8.59,1.28.32-.22.86-2.78-.7Z"/><path class="cls-23" d="M956.28,512.88l-.83-.21-.21.84-.68-.17.21-.84-.81-.21.17-.66.81.2.2-.81.69.17-.21.81.83.21Z"/><path class="cls-24" d="M945.36,514.73l-3.62,4.37,2.27.57-.25,1-3.73-.95,0-.12,3.65-4.34-2.37-.6.24-1,3.81,1Z"/><path class="cls-24" d="M949.18,519.35l-.63,2.49-1-.25.6-2.36c.18-.74-.11-1.24-.64-1.37a.93.93,0,0,0-1.15.72l-.65,2.55-1-.25,1.09-4.31,1,.25-.13.51a1.52,1.52,0,0,1,1.4-.3A1.74,1.74,0,0,1,949.18,519.35Z"/><line class="cls-25" x1="961.63" y1="564.54" x2="959.89" y2="564.1"/><path class="cls-5" d="M894.11,499.81v2.12h2.34v1.77h-2.34l0,3.27h-1.88l0-9,5.19,0v1.83Z"/><path class="cls-5" d="M903.74,504.4l-4.41,0a1.58,1.58,0,0,0,1.63,1.07,4.61,4.61,0,0,0,2-.5v1.65a4.5,4.5,0,0,1-2.18.51,3.31,3.31,0,0,1-.11-6.62C902.79,500.5,903.93,502.29,903.74,504.4Zm-4.4-1.18,2.61,0a1.31,1.31,0,0,0-1.26-1.05A1.38,1.38,0,0,0,899.34,503.22Z"/><circle class="cls-26" cx="952.63" cy="564.27" r="13.5"/><path class="cls-5" d="M950.9,559l-1.59,9-1-.17-3.71-6.15-.93,5.2-1.86-.33,1.59-8.93,1,.18,3.7,6.29,1-5.37Z"/><path class="cls-5" d="M959.73,560.56l-1.57,8.84-1.86-.33.62-3.52-3.37-.6-.63,3.52-1.85-.33,1.57-8.84,1.86.33-.63,3.52,3.38.6.62-3.52Z"/><path class="cls-5" d="M962.38,569.63l-.38-.06-.09.5-1.13-.2.09-.5-1.69-.31.14-.79,1.83-2.53,1.48.26-.45,2.5.38.07Zm-1.32-1.33.2-1.09-.65,1Z"/><path class="cls-27" d="M967.47,558l-2-.36-.37,2.06-1.68-.3.37-2.06-2-.36.29-1.63,2,.36.36-2,1.67.3-.35,2,2,.36Z"/><circle class="cls-28" cx="937.17" cy="478.27" r="9.48"/><path class="cls-29" d="M938.13,483.25l-2.21-4.75-.75,4.22-2-.36,1.7-9.59,2,.36-.8,4.5,3.72-4,2.34.42-4.17,4.3,2.57,5.31Z"/><path class="cls-30" d="M946.77,472.79l-1.65-.29-.29,1.63-1.56-.28.29-1.63-1.57-.28.27-1.53,1.58.28.28-1.61,1.56.27L945.4,471l1.64.29Z"/><circle class="cls-31" cx="1017.17" cy="557.66" r="12.04"/><path class="cls-32" d="M1022.76,549.2c.76-.74,1.57-1.53,2.28-2.25a1.89,1.89,0,0,0,.68-1.17.65.65,0,0,0-.62-.67c-.48,0-.78.43-.79.94l-1.7-.51a2.44,2.44,0,0,1,2.53-2.26,2.32,2.32,0,0,1,2.39,2.29,3.17,3.17,0,0,1-1.19,2.22c-.24.25-.51.54-.74.8l1.83,0-.06,1.73-4.64-.14Z"/><path class="cls-32" d="M1031.87,548.12l-1.3,0,0,1.29-1.24,0,0-1.29-1.24,0,0-1.21,1.25,0,0-1.28,1.23,0,0,1.28,1.31,0Z"/><path class="cls-33" d="M924.17,590.29l-1.12-.2-.19,1.1L921.8,591l.2-1.1-1.07-.19.19-1,1.06.19.2-1.1,1,.19-.19,1.1,1.11.19Z"/><circle class="cls-34" cx="907.98" cy="597.81" r="12.31"/><path class="cls-5" d="M906.56,601l-.15-4.44-2.74,4-.28,0-1.17-4.66-1.58,4.09-1.79-.32,3.25-7.93.73.13,1.28,5.44,3.08-4.67.74.13.4,8.59Z"/><path class="cls-5" d="M914.87,602.12a2.77,2.77,0,0,1-3.45,2.22,5,5,0,0,1-2.13-.93l.29-1.58a3.76,3.76,0,0,0,1.82,1,1.45,1.45,0,0,0,1.87-1.26l0-.17a2.26,2.26,0,0,1-1.91.53,3.07,3.07,0,0,1,1.07-6,2.23,2.23,0,0,1,1.59,1.12l.13-.72,1.66.29Zm-1.21-2.9a1.35,1.35,0,0,0-1.06-1.61,1.4,1.4,0,0,0-.49,2.75A1.35,1.35,0,0,0,913.66,599.22Z"/><path class="cls-35" d="M914.62,591.13c.91-.66,1.89-1.37,2.75-2a2.1,2.1,0,0,0,.9-1.13.68.68,0,0,0-.56-.8c-.5-.09-.88.33-1,.87l-1.72-.81a2.6,2.6,0,0,1,3-2,2.49,2.49,0,0,1,2.17,2.79,3.36,3.36,0,0,1-1.61,2.16c-.29.22-.62.48-.91.72l1.93.34-.32,1.82-4.89-.87Z"/><path class="cls-36" d="M972.76,607l-3.3-2.24,3.4-1.3c0-.21,0-.41,0-.63a3.64,3.64,0,0,0-.25-2.12,3.68,3.68,0,0,0-7,1.23,44.68,44.68,0,0,0,1.75,16.71h0a2.62,2.62,0,0,0,.15.39,3.67,3.67,0,1,0,6.72-3S972.84,613,972.76,607Z"/><path class="cls-37" d="M873.74,537a3.1,3.1,0,0,1,.4-3.86,3.31,3.31,0,0,1,2.11-1.1,2.54,2.54,0,0,1,2,.66,2.15,2.15,0,0,1,.32.35,3.13,3.13,0,0,1-.41,3.87,3.35,3.35,0,0,1-2.11,1.09,2.5,2.5,0,0,1-2-.66A1.73,1.73,0,0,1,873.74,537Z"/><path class="cls-37" d="M874.15,544.65a3.23,3.23,0,0,1-2.22-3.26,3.46,3.46,0,0,1,.82-2.26,2.42,2.42,0,0,1,1.9-.84,1.82,1.82,0,0,1,.46.06,3.21,3.21,0,0,1,2.22,3.25,3.4,3.4,0,0,1-.82,2.26,2.39,2.39,0,0,1-1.9.85A3.62,3.62,0,0,1,874.15,544.65Z"/><path class="cls-37" d="M874,551.55a3.22,3.22,0,0,1-1.93-3.44,3.37,3.37,0,0,1,1-2.17,2.38,2.38,0,0,1,2-.66,2.42,2.42,0,0,1,.45.1,3.22,3.22,0,0,1,1.93,3.44,3.42,3.42,0,0,1-1,2.17,2.38,2.38,0,0,1-2,.66A2.42,2.42,0,0,1,874,551.55Z"/><path class="cls-37" d="M870.16,557.24a3.19,3.19,0,0,1-.53-3.89,3.32,3.32,0,0,1,1.77-1.58,2.48,2.48,0,0,1,2.1.15,1.7,1.7,0,0,1,.38.26,3.19,3.19,0,0,1,.53,3.89,3.32,3.32,0,0,1-1.77,1.58,2.48,2.48,0,0,1-2.1-.15A2.33,2.33,0,0,1,870.16,557.24Z"/><path class="cls-37" d="M879.74,528.8l2.58-.11a2.74,2.74,0,0,0-.8-2.05,1.71,1.71,0,0,0-.26-.21,2.4,2.4,0,0,0-2-.32,3.45,3.45,0,0,0-1.93,1.45,3.16,3.16,0,0,0,.18,4,2,2,0,0,0,.27.22,2.41,2.41,0,0,0,2,.31,3.25,3.25,0,0,0,1.45-.87Z"/><path class="cls-5" d="M1009.67,556.83a4.5,4.5,0,0,1,4.66-4.62,4.68,4.68,0,0,1,2,.45v2.07a3.07,3.07,0,0,0-2-.66,2.79,2.79,0,0,0,0,5.57,3,3,0,0,0,2-.63l0,2.08a4.74,4.74,0,0,1-2,.41A4.49,4.49,0,0,1,1009.67,556.83Z"/><path class="cls-5" d="M1023.73,555l0,6.42h-1.84v-.82a2.41,2.41,0,0,1-1.93.9c-1.76,0-2.88-1.48-2.87-3.33a3,3,0,0,1,2.9-3.28,2.38,2.38,0,0,1,1.92.92V555Zm-1.88,3.19a1.48,1.48,0,0,0-1.43-1.53,1.44,1.44,0,0,0-1.43,1.51,1.42,1.42,0,0,0,1.41,1.52A1.46,1.46,0,0,0,1021.85,558.17Z"/><path class="cls-38" d="M1002.05,527.51l-8.79,7.2a3,3,0,1,0,3.69,4.53l8.78-7.2a3,3,0,1,0-3.68-4.53Z"/><path class="cls-39" d="M979.47,550.79s1.51,1.86,5.66-1.54a4.07,4.07,0,0,0,1.42-3.89,5.27,5.27,0,0,1,2.26-5.08c3.64-2.81,4.85-1.51,4.85-1.51"/><path class="cls-39" d="M980.94,548.66a4,4,0,0,1,4.57-1.47s2.37,1.45,6.15-2.34c3.51-3.52,3-5.73,3-5.73"/><path class="cls-39" d="M992.79,537.9a7.2,7.2,0,0,1-2.58,4.2s-2.4,1.84-4.11.68-3.21.47-3.91,1a8,8,0,0,0-2.25,3.51"/><path class="cls-39" d="M994.59,537.86c-3.22-1.85-5.21-.57-5.21-.57a4,4,0,0,0-1.68,4.65c.9,3.35-1.26,3.69-2,4.1a5.57,5.57,0,0,1-4.38-.35"/><polygon class="cls-40" points="966.22 485.19 969.71 491.54 977.18 491.64 981.17 485.4 977.67 479.05 970.2 478.94 966.22 485.19"/><line class="cls-40" x1="977.18" y1="491.64" x2="979.65" y2="496.12"/><line class="cls-40" x1="966.82" y1="495.9" x2="969.71" y2="491.54"/><line class="cls-40" x1="966.22" y1="485.19" x2="960.95" y2="485.07"/><line class="cls-40" x1="981.17" y1="485.4" x2="986.44" y2="485.51"/><line class="cls-40" x1="967.73" y1="474.47" x2="970.2" y2="478.95"/><polygon class="cls-40" points="978.29 508.91 985.77 509.55 990.07 503.38 986.87 496.58 979.39 495.95 975.1 502.11 978.29 508.91"/><line class="cls-40" x1="990.07" y1="503.38" x2="995.34" y2="503.83"/><line class="cls-40" x1="987.94" y1="514.38" x2="985.77" y2="509.55"/><line class="cls-40" x1="978.29" y1="508.91" x2="975.22" y2="513.23"/><line class="cls-40" x1="986.87" y1="496.58" x2="989.94" y2="492.26"/><line class="cls-40" x1="969.82" y1="501.66" x2="975.09" y2="502.11"/><polygon class="cls-40" points="1004.68 512.67 1009.74 507.12 1007.46 499.96 1000.13 498.35 995.07 503.91 997.35 511.06 1004.68 512.67"/><line class="cls-40" x1="1007.46" y1="499.96" x2="1011.03" y2="496.04"/><line class="cls-40" x1="977.72" y1="478.85" x2="980.94" y2="474.64"/><line class="cls-40" x1="1014.9" y1="508.34" x2="1009.74" y2="507.12"/><line class="cls-40" x1="1004.68" y1="512.67" x2="1006.25" y2="517.73"/><line class="cls-40" x1="1000.13" y1="498.35" x2="998.56" y2="493.29"/><line class="cls-40" x1="993.78" y1="514.98" x2="997.35" y2="511.06"/><polygon class="cls-40" points="888.37 571.41 895.3 569.32 896.96 562.02 891.68 556.83 884.74 558.93 883.09 566.22 888.37 571.41"/><line class="cls-40" x1="896.96" y1="562.02" x2="901.85" y2="560.55"/><line class="cls-40" x1="898.97" y1="573.04" x2="895.3" y2="569.32"/><line class="cls-40" x1="888.37" y1="571.41" x2="887.16" y2="576.54"/><line class="cls-40" x1="891.68" y1="556.83" x2="892.89" y2="551.7"/><line class="cls-40" x1="878.19" y1="567.7" x2="883.09" y2="566.22"/><polygon class="cls-40" points="914.08 564.53 916.25 557.35 911.12 551.86 903.8 553.57 901.63 560.76 906.76 566.24 914.08 564.53"/><line class="cls-40" x1="911.12" y1="551.86" x2="912.65" y2="546.79"/><line class="cls-40" x1="921.43" y1="556.23" x2="916.25" y2="557.34"/><line class="cls-40" x1="914.08" y1="564.53" x2="917.67" y2="568.43"/><line class="cls-40" x1="903.8" y1="553.57" x2="900.21" y2="549.68"/><line class="cls-40" x1="905.23" y1="571.31" x2="906.76" y2="566.24"/><polygon class="cls-40" points="923.24 539.49 918.86 533.39 911.38 534.13 908.29 540.98 912.67 547.08 920.15 546.34 923.24 539.49"/><line class="cls-40" x1="911.38" y1="534.13" x2="908.29" y2="529.83"/><line class="cls-40" x1="921.13" y1="528.6" x2="918.86" y2="533.39"/><line class="cls-40" x1="923.24" y1="539.49" x2="928.52" y2="539.02"/><line class="cls-40" x1="908.29" y1="540.98" x2="903.01" y2="541.45"/><line class="cls-40" x1="923.23" y1="550.64" x2="920.15" y2="546.34"/><polygon class="cls-40" points="984 598.18 991.24 598.57 995.28 592.28 992.09 585.6 984.85 585.21 980.81 591.5 984 598.18"/><line class="cls-40" x1="995.28" y1="592.28" x2="1000.39" y2="592.56"/><line class="cls-40" x1="993.41" y1="603.33" x2="991.24" y2="598.57"/><line class="cls-40" x1="984.01" y1="598.18" x2="981.12" y2="602.59"/><line class="cls-40" x1="992.09" y1="585.6" x2="994.98" y2="581.19"/><line class="cls-40" x1="975.71" y1="591.22" x2="980.81" y2="591.5"/><polygon class="cls-40" points="1010.63 600.56 1015.13 594.54 1012.16 587.64 1004.71 586.75 1000.21 592.77 1003.17 599.67 1010.63 600.56"/><line class="cls-40" x1="1012.16" y1="587.64" x2="1015.34" y2="583.39"/><line class="cls-40" x1="1020.37" y1="595.26" x2="1015.12" y2="594.54"/><line class="cls-40" x1="1010.63" y1="600.56" x2="1012.67" y2="605.45"/><line class="cls-40" x1="1004.71" y1="586.75" x2="1002.66" y2="581.86"/><line class="cls-40" x1="999.99" y1="603.91" x2="1003.17" y2="599.67"/><line class="cls-40" x1="985.05" y1="585.27" x2="983.18" y2="580.31"/><rect class="cls-41" y="478.98" width="251" height="142"/></g><g id="Layer_26" data-name="Layer 26"><ellipse class="cls-5" cx="624.72" cy="302.86" rx="103.87" ry="20.22"/><g id="Layer_1-2" data-name="Layer 1-2"><g id="white_imagery_text" data-name="white imagery text"><path class="cls-42" d="M624,265.91c-157.17-.06-133.17,44.42-133.17,44.42l115.07,88,2,109.44,37.66-30,0-80.86,111.64-86.54S781.35,266,624,265.91Zm0,57.17S519.68,322,519.69,302.65,624,282.87,624,282.87,727.31,282.45,727.3,303,623.93,323.08,623.93,323.08Z"/></g></g><path class="cls-43" d="M568.4,278.11a7.78,7.78,0,0,1,4.77,3.52,7.66,7.66,0,0,1,1,5.87h0a14,14,0,0,1-1.67,3.73,18.59,18.59,0,0,0-1,1.9,19.68,19.68,0,0,0-1,3.06,13.76,13.76,0,0,0-.38,2.36,20.09,20.09,0,0,0,0,2.32,15.26,15.26,0,0,1-.22,4.35,7.32,7.32,0,0,1-1.41,2.88,7.86,7.86,0,0,1-13.81-6.72c.07-.27.15-.53.24-.79a19.31,19.31,0,0,1,1.7-3.37,15.33,15.33,0,0,0,1.56-3.18c.07-.21.13-.43.19-.65a20.7,20.7,0,0,0,.38-5.18c0-.85,0-1.71,0-2.62a8.21,8.21,0,0,1,.23-1.63l0-.07a8,8,0,0,1,2-3.68S563.22,277.19,568.4,278.11Z"/><path class="cls-44" d="M562.3,281.59a3.58,3.58,0,0,0-.26.29,6.14,6.14,0,0,0-1.26,2.48h0a6.27,6.27,0,0,0-.19,1.31c0,.86,0,1.7,0,2.52a20.11,20.11,0,0,1-.65,6.41,16.72,16.72,0,0,1-1.74,3.58,18.3,18.3,0,0,0-1.55,3.06A5.89,5.89,0,0,0,557,306a5.95,5.95,0,0,0,9.94.9c1.42-1.77,1.32-3.8,1.22-5.95a21.7,21.7,0,0,1,0-2.55,18.62,18.62,0,0,1,1.56-6,19.84,19.84,0,0,1,1.1-2.1,12.37,12.37,0,0,0,1.48-3.22,5.79,5.79,0,0,0-.7-4.42,5.88,5.88,0,0,0-3.66-2.7l-.28-.07A5.88,5.88,0,0,0,562.3,281.59Z"/><path class="cls-43" d="M616.08,327.41a5.52,5.52,0,0,1-.52,7.7h0a9.89,9.89,0,0,1-2.47,1.46,11.36,11.36,0,0,0-1.35.69,13.05,13.05,0,0,0-1.83,1.33,9.4,9.4,0,0,0-1.17,1.2c-.32.4-.62.86-.93,1.34a10.41,10.41,0,0,1-1.89,2.4,5.08,5.08,0,0,1-2,1.08,5.51,5.51,0,0,1-5.19-9.44c.14-.13.3-.24.45-.36a14.3,14.3,0,0,1,2.34-1.24,10.81,10.81,0,0,0,2.18-1.19c.13-.09.25-.2.37-.3a14.78,14.78,0,0,0,2.32-2.81c.34-.49.68-1,1.07-1.49a5.73,5.73,0,0,1,.79-.84l0,0a5.66,5.66,0,0,1,2.66-1.27S613.48,324.78,616.08,327.41Z"/><path class="cls-45" d="M611.17,326.93l-.26.06a4.39,4.39,0,0,0-1.73.91h0a4.6,4.6,0,0,0-.64.68c-.36.47-.7,1-1,1.43a13.68,13.68,0,0,1-3,3.41,11.49,11.49,0,0,1-2.44,1.35,14,14,0,0,0-2.13,1.12,4.17,4.17,0,0,0-1.72,2.9,4.16,4.16,0,0,0,5.33,4.53c1.53-.44,2.3-1.64,3.11-2.91a16.72,16.72,0,0,1,1-1.47,13.19,13.19,0,0,1,3.34-2.83,12.09,12.09,0,0,1,1.48-.75,8.88,8.88,0,0,0,2.15-1.25,4,4,0,0,0,1.38-2.82,4.11,4.11,0,0,0-1-3,1.85,1.85,0,0,0-.14-.14A4.11,4.11,0,0,0,611.17,326.93Z"/><path class="cls-43" d="M595.84,280.53a2.67,2.67,0,0,1,.64,1.94,2.64,2.64,0,0,1-.89,1.84h0a5,5,0,0,1-1.21.72,6.76,6.76,0,0,0-.66.33,6.55,6.55,0,0,0-.9.66,4.6,4.6,0,0,0-.58.59c-.15.19-.3.42-.45.65a5.38,5.38,0,0,1-.92,1.18,2.63,2.63,0,0,1-1,.53,2.71,2.71,0,0,1-2.55-4.63l.23-.17a6.64,6.64,0,0,1,1.14-.61,5.45,5.45,0,0,0,1.07-.58l.18-.15a7,7,0,0,0,1.14-1.38c.17-.24.33-.48.52-.73a3,3,0,0,1,.39-.41l0,0a2.74,2.74,0,0,1,1.31-.62A2.54,2.54,0,0,1,595.84,280.53Z"/><path class="cls-46" d="M593.44,280.3l-.13,0a2.19,2.19,0,0,0-.85.45h0a2,2,0,0,0-.31.33c-.18.23-.35.47-.51.7a6.73,6.73,0,0,1-1.45,1.67,5.43,5.43,0,0,1-1.2.66,6.89,6.89,0,0,0-1,.55,2.05,2.05,0,0,0,1.77,3.64,2.76,2.76,0,0,0,1.52-1.43c.16-.24.32-.49.5-.72a6.34,6.34,0,0,1,1.64-1.38,7,7,0,0,1,.72-.37,4.3,4.3,0,0,0,1.06-.61,2,2,0,0,0,.67-1.38,2,2,0,0,0-.49-1.49l-.06-.07A2,2,0,0,0,593.44,280.3Z"/><path class="cls-47" d="M638.67,307.73a3.31,3.31,0,0,1,3.81,1.72A3.75,3.75,0,0,1,643,312a2.73,2.73,0,0,1-1.29,1.88,2.67,2.67,0,0,1-.46.2,3.31,3.31,0,0,1-3.81-1.72,3.74,3.74,0,0,1-.46-2.57,2.73,2.73,0,0,1,1.29-1.88A2.57,2.57,0,0,1,638.67,307.73Z"/><path class="cls-47" d="M635.64,301.16a3.31,3.31,0,0,1,3.37,2.48,3.69,3.69,0,0,1-.08,2.6,2.69,2.69,0,0,1-1.65,1.57,2.16,2.16,0,0,1-.49.11,3.33,3.33,0,0,1-3.37-2.48,3.83,3.83,0,0,1,.08-2.61,2.73,2.73,0,0,1,1.66-1.57A2.05,2.05,0,0,1,635.64,301.16Z"/><path class="cls-47" d="M628.33,297.4a3.31,3.31,0,0,1,4.16-.36,3.75,3.75,0,0,1,1.67,2,2.77,2.77,0,0,1-.2,2.28,3,3,0,0,1-.3.4,3.32,3.32,0,0,1-4.17.36,3.68,3.68,0,0,1-1.66-2,2.77,2.77,0,0,1,.2-2.28A3,3,0,0,1,628.33,297.4Z"/><path class="cls-47" d="M651.34,335.68c2.43-.32,4.85,1.42,5.76,4.13a6.27,6.27,0,0,1-.08,4.42,4.56,4.56,0,0,1-2.77,2.7,3.93,3.93,0,0,1-.82.2c-2.43.31-4.85-1.43-5.77-4.14a6.33,6.33,0,0,1,.09-4.42,4.61,4.61,0,0,1,2.77-2.7A3.9,3.9,0,0,1,651.34,335.68Z"/><path class="cls-47" d="M638.86,329.46c1.61-1.84,4.58-2.13,7-.7a6.32,6.32,0,0,1,2.87,3.37,4.62,4.62,0,0,1-.3,3.86,3.75,3.75,0,0,1-.49.69c-1.61,1.84-4.58,2.13-7.06.71a6.37,6.37,0,0,1-2.86-3.38,4.62,4.62,0,0,1,.3-3.86A4.57,4.57,0,0,1,638.86,329.46Z"/><path class="cls-47" d="M628.06,323.07c1.77-1.69,4.76-1.72,7.09-.07a6.33,6.33,0,0,1,2.54,3.62,4.64,4.64,0,0,1-.64,3.82,4.87,4.87,0,0,1-.55.64,5.64,5.64,0,0,1-7.09.06,6.32,6.32,0,0,1-2.55-3.62,4.62,4.62,0,0,1,.65-3.82A3.66,3.66,0,0,1,628.06,323.07Z"/><path class="cls-47" d="M622.4,311.64c2.28-.89,5.05.22,6.59,2.63a6.28,6.28,0,0,1,1,4.31,4.6,4.6,0,0,1-2,3.29,4.4,4.4,0,0,1-.75.38c-2.28.89-5-.22-6.59-2.63a6.28,6.28,0,0,1-1-4.31,4.62,4.62,0,0,1,2-3.29A4.4,4.4,0,0,1,622.4,311.64Z"/><path class="cls-48" d="M702.47,317.23a25.25,25.25,0,0,0-6.25-13.72c-12.12-13.88-26.1-1.6-26.1-1.6s-13,10.78-3,23.21S687,331,689.15,329.59c0,0,10.25-7,2.62-19.34,0,0-7.91-10.88-17.89-3.43,0,0-8.48,6.5-2,14.16,0,0,2.54,3.37,6.09,2.71,0,0,2.1-.59,0-1.65,0,0-6.37-2.08-3.74-8.65,0,0,3.58-7.73,11-2.14,0,0,7.38,5.59,2,12.38,0,0-4.77,6.17-12.28,1.85-9.43-5.4-4.83-14.88-4.83-14.88s2.76-8.47,13.93-7.42c0,0,11.71,1.25,13.47,14.85,0,0,1.46,6.5.7,11.41,0,0-.24,5.33,1.34,3.85a29.57,29.57,0,0,0,3-11.89Z"/><path class="cls-49" d="M610.29,300.44c-1.2-2.33-4.82-1.6-4.82-1.6s-4.15,1.63-4-4.1c.17-4.79-3.16-4.14-3.16-4.14a2.5,2.5,0,0,0-2.66,2.17c-1.3,4.92-4.94,3-4.94,3-3.61-1.71-5.53.59-5.53.59-3.06,4.34,2.27,8.09,2.27,8.09,3,2.57.2,3.75.2,3.75s-2.86,1.38-1,5.72,5.72,0,5.72,0c4.94-3.75,9.18.69,9.18.69s4.63,5.31,7.11,3.36c3.25-2.56-1.09-7.3-1.09-7.3-2.76-2.47-.59-3.85-.59-3.85a19.2,19.2,0,0,0,2.25-2.46C610.84,302.07,610.29,300.44,610.29,300.44Zm-10.87,6.26c-1.57.88-3.41.6-4.1-.64s0-2.95,1.59-3.83,3.4-.59,4.09.64S601,305.82,599.42,306.7Z"/><path class="cls-49" d="M656.87,299.64c1.07.23,1.8-1.14,1.8-1.14s.58-1.78,2.38-.18c1.51,1.33,2.19.08,2.19.08a1.05,1.05,0,0,0,0-1.44c-1.25-1.74.36-2.39.36-2.39a1.89,1.89,0,0,0,1.28-1.95c-.59-2.15-3.23-1.43-3.23-1.43-1.62.28-1.26-.93-1.26-.93s.31-1.3-1.59-1.85-1.53,1.85-1.53,1.85a2.9,2.9,0,0,1-2.68,2.79s-3,.08-3,1.4c0,1.74,2.65,1.6,2.65,1.6,1.54-.23,1.4.84,1.4.84a8,8,0,0,0,.2,1.38A2,2,0,0,0,656.87,299.64Zm.87-5.2a1.11,1.11,0,1,1,.82,1.54A1.26,1.26,0,0,1,657.74,294.44Z"/><path class="cls-50" d="M647.08,289.22a33.89,33.89,0,0,1,6.67-8.22,3.72,3.72,0,0,0-3-6.66,3.59,3.59,0,0,0-1.77,1c-9.91,9-10.75,14.17-10.75,14.17a3.9,3.9,0,0,0,6.93,3.32"/><path class="cls-50" d="M571.46,321l-.47-.34a3.39,3.39,0,1,1,3.67-5.68,41.4,41.4,0,0,1,10.79,11.12h0c.06.11.13.22.18.33a3.39,3.39,0,1,1-6.07,3s-1.27-2.77-5.52-6.42"/><path class="cls-50" d="M621.87,277.86l.28-.5a3.39,3.39,0,1,1,6.1,2.92,41,41,0,0,1-9.65,12.11l0,0-.3.23a3.39,3.39,0,1,1-3.75-5.64s2.59-1.62,5.66-6.3"/><rect class="cls-51" x="494.94" y="414.05" width="276.54" height="43.1"/><path class="cls-52" d="M565.17,437.21l0,8.34H564v-8.08c0-3.05-1.51-5-4-5s-4,2-4,5.31l0,7.81h-1.12v-8.09c0-3-1.51-5-4-5s-4,2-4,5.32v7.81h-1.12v-14h1.12v2.24a4.62,4.62,0,0,1,4.17-2.46,4.83,4.83,0,0,1,4.65,3.39,4.76,4.76,0,0,1,4.56-3.39C562.88,431.34,565.18,433.44,565.17,437.21Z"/><path class="cls-52" d="M569.86,427.81a.84.84,0,0,1,1.68,0,.81.81,0,0,1-.84.84A.8.8,0,0,1,569.86,427.81Zm.27,3.75h1.12v14h-1.12Z"/><path class="cls-52" d="M575.42,438.56a6.94,6.94,0,0,1,7.11-7.19,7.13,7.13,0,0,1,4.87,1.8v1.51a6.18,6.18,0,0,0-4.87-2.22,6.11,6.11,0,0,0,0,12.21,6.22,6.22,0,0,0,4.87-2.21V444a7.14,7.14,0,0,1-4.87,1.79A7,7,0,0,1,575.42,438.56Z"/><path class="cls-52" d="M596.75,431.41v1.17c-2.43-.08-4,2.32-4,5.12v7.86H591.6v-14h1.12v2.74A4.43,4.43,0,0,1,596.75,431.41Z"/><path class="cls-52" d="M598.12,438.54a7.06,7.06,0,1,1,7,7.2A7,7,0,0,1,598.12,438.54Zm13,0a5.94,5.94,0,1,0-11.87,0,5.94,5.94,0,1,0,11.87,0Z"/><path class="cls-52" d="M629.49,438.58c0,3.92-2.71,7.19-6.6,7.19a6.22,6.22,0,0,1-5.65-3.55v3.36h-1.12V423.19h1.12V435a6.23,6.23,0,0,1,5.65-3.55C626.78,431.42,629.5,434.69,629.49,438.58Zm-1.12,0c0-3.3-2.26-6.07-5.51-6.07a6.1,6.1,0,0,0,0,12.17C626.11,444.68,628.37,441.89,628.37,438.58Z"/><path class="cls-52" d="M633.39,427.84a.84.84,0,0,1,1.68,0,.84.84,0,0,1-1.68,0Zm.28,3.75h1.12v14h-1.12Z"/><path class="cls-52" d="M652.34,431.6v14h-1.12v-3.36a6.23,6.23,0,0,1-5.65,3.55c-3.89,0-6.6-3.27-6.6-7.16s2.71-7.19,6.6-7.19a6.25,6.25,0,0,1,5.66,3.55V431.6Zm-1.13,7a5.82,5.82,0,0,0-5.62-6.1c-3.24,0-5.51,2.79-5.51,6.1s2.26,6.07,5.51,6.07A5.8,5.8,0,0,0,651.21,438.62Z"/><path class="cls-52" d="M657.27,423.2h1.12v22.38h-1.12Z"/><path class="cls-52" d="M680.54,445.6h-1.11V432.7h-4.92v12.9h-1.12V432.7h-1.77v-1.09h1.77v-6.16a2.32,2.32,0,0,1,2.38-2.43,2.63,2.63,0,0,1,1.65.56v1.2a2.5,2.5,0,0,0-1.57-.64,1.33,1.33,0,0,0-1.34,1.45v6h6Zm.29-17.74a.84.84,0,1,1-1.68,0,.84.84,0,0,1,1.68,0Z"/><path class="cls-52" d="M685.76,423.22h1.12V445.6h-1.12Z"/><path class="cls-52" d="M696.11,432.71h-2.88v12.9h-1.11v-12.9h-1.79v-1.1h1.79v-3.75h1.12v3.75h2.88Z"/><path class="cls-52" d="M698.6,438.92a5.75,5.75,0,0,0,5.82,5.8,6.43,6.43,0,0,0,4.87-2.16V444a7.26,7.26,0,0,1-4.87,1.79c-4.34,0-6.94-3.31-6.94-7.2s2.75-7.16,6.69-7.16,6.47,3.53,6.47,7.48Zm10.83-1.09c-.36-2.88-2.23-5.29-5.26-5.29a5.56,5.56,0,0,0-5.51,5.29Z"/><path class="cls-52" d="M719.54,431.46v1.17c-2.44-.08-4,2.32-4,5.12v7.87h-1.11v-14h1.12v2.75A4.44,4.44,0,0,1,719.54,431.46Z"/></g><g id="Layer_27" data-name="Layer 27"><path class="cls-50" d="M963.74,6l.88,15.83-4.56.25-.11-2a5.91,5.91,0,0,1-4.62,2.51c-4.34.24-7.33-3.21-7.58-7.77s2.33-8.3,6.67-8.54a5.92,5.92,0,0,1,4.87,2l-.11-2Zm-4.15,8.14a3.62,3.62,0,0,0-3.75-3.54,3.54,3.54,0,0,0-3.31,3.93,3.52,3.52,0,0,0,3.72,3.54A3.61,3.61,0,0,0,959.59,14.17Z"/><path class="cls-50" d="M983.18,14.26,982,23.8l-4.54-.56,1-8.5c.27-2.14-.75-3.48-2.29-3.67s-2.58.68-3,2.41l-1.13,9.1L967.59,22l1.94-15.74,4.54.56-.24,1.89a5.75,5.75,0,0,1,4.81-1.64C981.66,7.46,983.71,10,983.18,14.26Z"/><path class="cls-50" d="M989.53,9.48,994,10.63l-4,15.35-4.42-1.16Zm.76-5.28a2.87,2.87,0,0,1,5.55,1.45,2.87,2.87,0,1,1-5.55-1.45Z"/><path class="cls-50" d="M1019.73,28l-4,8.64-4.12-1.9,3.56-7.69c.89-1.93.47-3.59-1-4.27s-3,.07-3.9,2l-3.56,7.69-4.12-1.91,3.56-7.68c.89-1.93.47-3.6-1-4.27s-3,.09-3.88,2l-3.55,7.69-4.15-1.92L1000.25,12l4.15,1.92-.85,1.84a5.68,5.68,0,0,1,5.1-.23,5,5,0,0,1,3,4.53,6.13,6.13,0,0,1,6-.38C1020.57,21,1021.53,24.09,1019.73,28Z"/><path class="cls-50" d="M1039.73,35.36l-9.68,12.56-3.61-2.79,1.24-1.61a5.92,5.92,0,0,1-5.15-1.12c-3.44-2.65-3.44-7.22-.65-10.83s7.19-4.75,10.63-2.1a6,6,0,0,1,2.39,4.69l1.22-1.59Zm-8.46,3.45a3.62,3.62,0,0,0-.53-5.13,3.75,3.75,0,0,0-4.57,5.92A3.61,3.61,0,0,0,1031.27,38.81Z"/><path class="cls-50" d="M1050.21,32.41l3.22,3.23-18,17.9-3.22-3.24Z"/><path class="cls-50" d="M1062.34,62,1058,64.91c-.76-1.93-2.46-3.66-5.17-1.83l-6.36,4.3-2.56-3.79L1057,54.72l2.55,3.79-2,1.33A5.39,5.39,0,0,1,1062.34,62Z"/><path class="cls-50" d="M1061.9,82.26l-4.84-9.75a3.9,3.9,0,0,0-.56,4.78,11.45,11.45,0,0,0,3.36,3.93l-3.65,1.84a11.12,11.12,0,0,1-3.54-4.27,8.19,8.19,0,0,1,14.52-7.58C1069.48,75.84,1066.78,80.33,1061.9,82.26Zm-2.28-11,2.86,5.77a3.21,3.21,0,0,0,.92-3.93A3.4,3.4,0,0,0,1059.62,71.24Z"/><path class="cls-50" d="M1058.31,85.27l3.79,1.1a7.29,7.29,0,0,0-.39,4.33c.28.84.88,1.25,1.42,1.07,2-.64-1-7.19,4.15-8.86,2.51-.81,5.2.58,6.31,3.89a8.18,8.18,0,0,1-.37,5.85l-3.74-1.05a6.41,6.41,0,0,0,.29-3.49c-.24-.76-.77-1.15-1.31-1-1.87.61,1,7.3-4.13,9-2.59.85-5.29-.78-6.4-4.19A9.72,9.72,0,0,1,1058.31,85.27Z"/><path class="cls-50" d="M1076.15,97.27l.91,4.47-15.53,3.19-.92-4.47Zm5.06-1.65A2.87,2.87,0,1,1,1079,99,2.83,2.83,0,0,1,1081.21,95.62Z"/><path class="cls-50" d="M1088.77,122.46l-25.32,1.7-.3-4.56,2-.13a6,6,0,0,1-2.53-4.57c-.29-4.33,3.13-7.36,7.68-7.66s8.32,2.23,8.61,6.57a6,6,0,0,1-1.89,4.86l11.45-.77Zm-17.68-3.39a3.62,3.62,0,0,0,3.49-3.79,3.74,3.74,0,0,0-7.46.5A3.61,3.61,0,0,0,1071.09,119.07Z"/><path class="cls-50" d="M1077.5,143.19l-15.76-1.77.51-4.54,1.89.21a5.69,5.69,0,0,1-1.7-4.78c.34-3,2.87-5.11,7.12-4.63l9.55,1.07-.5,4.54-8.51-.95c-2.15-.24-3.48.79-3.65,2.33s.7,2.57,2.45,3l9.11,1Z"/><path class="cls-50" d="M1063.28,160.23l3-10.45a3.9,3.9,0,0,0-3.65,3.14,11.53,11.53,0,0,0-.17,5.16l-3.94-1.1a11.24,11.24,0,0,1,.28-5.54,7.87,7.87,0,0,1,10.15-5.65c4.24,1.23,7,5.26,5.67,9.86C1073.2,160.62,1068.18,162.11,1063.28,160.23Zm5.76-9.66-1.79,6.18a3.23,3.23,0,0,0,3.34-2.27A3.41,3.41,0,0,0,1069,150.57Z"/><path class="cls-50" d="M1058.59,160.05l2.05,3.37a7.32,7.32,0,0,0-3.21,2.93c-.37.81-.2,1.51.32,1.75,1.87.85,4.14-6,9-3.72,2.4,1.09,3.44,3.93,2,7.12a8.24,8.24,0,0,1-4.22,4.07l-2-3.3a6.54,6.54,0,0,0,2.58-2.38c.33-.72.21-1.37-.31-1.61-1.79-.81-4.16,6.09-9.09,3.81-2.48-1.13-3.37-4.15-1.89-7.41A9.82,9.82,0,0,1,1058.59,160.05Z"/><path class="cls-53" d="M1041.69,126.81A80.67,80.67,0,1,1,967,40.59,80.67,80.67,0,0,1,1041.69,126.81Z"/><path class="cls-54" d="M959.43,98.83c1.63,2,3.19,5.19,1.2,6.88a5.06,5.06,0,0,1-2.87.9c-6.69.57-14.58-.38-19,4.53-3.28,3.66-3.07,9.18-1.73,13.86-3.82-.42-8.55,2.88-10.8,5.9a10.56,10.56,0,0,0-1.06,10.64c-9.71-1.23-20.52,6.5-21.19,16a12.23,12.23,0,0,0,2.58,8.84c2.26,2.64,5.78,3.88,9.16,4.92a185.2,185.2,0,0,0,70.45,7.32c5.21-.47,10.61-1.24,14.94-4.09,6.6-4.37,9.22-13.6,5.85-20.64s-12.33-11.06-20-9c4.78-2.57,6.45-10.38,4.34-15.28a11.76,11.76,0,0,0-13.52-6.28c4.72-6,2.22-17.14-4.61-20.77C968.62,100.14,963.73,101.62,959.43,98.83Z"/><path class="cls-55" d="M998,125.57a6.14,6.14,0,0,0,3.52-.87,7.09,7.09,0,0,0,3.32-3,7.34,7.34,0,0,0,.67-4.63,5.59,5.59,0,0,0-.43-1.33,15.32,15.32,0,0,0-2.86-3.63,7.47,7.47,0,0,1-2.23-4,5,5,0,0,1,2.27-4.54,6.79,6.79,0,0,1,5.14-.81c2.12.46,4.09,1.76,6.25,1.64a5.69,5.69,0,0,0,2.89-1,7.52,7.52,0,0,0,3.13-5.69,9.22,9.22,0,0,0-2-6.24"/><path class="cls-56" d="M1011.48,87.75l.59.34a6.83,6.83,0,0,0,2,.85,1.3,1.3,0,0,0,1.66-1.61,8.79,8.79,0,0,0-1.12-2.8,4.14,4.14,0,0,0-1-1.21,2.43,2.43,0,0,0-2.9-.15,4.41,4.41,0,0,0-.91.87,1.67,1.67,0,0,0-.52,1.38,2.53,2.53,0,0,0,.84,1.37A7.66,7.66,0,0,0,1011.48,87.75Z"/><path class="cls-57" d="M1007.67,83.18c-.31.19-.28.67-.25,1a26.55,26.55,0,0,0,.36,2.66,15.78,15.78,0,0,0,1,3.64,2.93,2.93,0,0,0,.76,1.14,1.08,1.08,0,0,0,.53.27,1.25,1.25,0,0,0,1.06-.45,3.12,3.12,0,0,0,.76-1.53,7.08,7.08,0,0,0,.1-1.72,6.3,6.3,0,0,0-.54-2.55,5.8,5.8,0,0,0-1.56-1.82,3.64,3.64,0,0,0-1-.63A1.42,1.42,0,0,0,1007.67,83.18Z"/><path class="cls-57" d="M1010.61,80.57c.23-.29.7-.2,1-.14.88.17,1.74.41,2.6.66a16.07,16.07,0,0,1,3.5,1.39,3,3,0,0,1,1,.89,1.16,1.16,0,0,1,.21.56,1.28,1.28,0,0,1-.57,1,3.24,3.24,0,0,1-1.61.58,6.69,6.69,0,0,1-1.73-.11,6.25,6.25,0,0,1-2.46-.83,5.6,5.6,0,0,1-1.63-1.76,3.78,3.78,0,0,1-.51-1A1.42,1.42,0,0,1,1010.61,80.57Z"/><path class="cls-58" d="M1003.37,80.55l1.4-.08a.17.17,0,0,1,.18.11l.79,1.74a.2.2,0,0,0,.19.11l1.41-.09"/><path class="cls-58" d="M1005.66,88.48l1.06-2.09a.28.28,0,0,0,0-.18l-.3-1.29a.24.24,0,0,1,0-.2l1.06-1.78"/><path class="cls-58" d="M1016.2,79.2,1014,80a.31.31,0,0,1-.19,0l-1.24-.45a.28.28,0,0,0-.2,0l-1.89.85"/><path class="cls-58" d="M1008.52,76l-.24,1.37a.2.2,0,0,0,.09.21l1.74,1-.28,1.52"/><path class="cls-59" d="M1007.53,82.94a1.92,1.92,0,0,1-.17-1.27,2.27,2.27,0,0,1,1.45-1.52,2,2,0,0,1,1.53.14,3.17,3.17,0,0,1,1.25,1.52,4.26,4.26,0,0,1,.42,1.37c.08.76-.08,1.65-1,1.66a3.52,3.52,0,0,1-1.24-.25,4.48,4.48,0,0,1-1.86-1.09A2.63,2.63,0,0,1,1007.53,82.94Z"/><line class="cls-60" x1="1006.35" y1="78.68" x2="1006.68" y2="79.07"/><path class="cls-61" d="M1008.54,80.12l-1,.93a1,1,0,0,1-.44.24.58.58,0,0,1-.44,0,1.59,1.59,0,0,1-.07-2.26,1.61,1.61,0,0,1,2.31.19.69.69,0,0,1,0,.54A1,1,0,0,1,1008.54,80.12Z"/><path class="cls-62" d="M1007.47,78.72a2,2,0,0,0,0,.64.88.88,0,0,0,1,.67"/><path class="cls-62" d="M1006.23,79.84a2,2,0,0,1,.64.12.9.9,0,0,1,.55,1.05"/><path class="cls-63" d="M962.88,57.68c-.43,0-1,.48-1.26.73a7.65,7.65,0,0,0-1.84,2.13,12.45,12.45,0,0,0-1.64,6.34,15.81,15.81,0,0,0,1.43,6.49,39.89,39.89,0,0,1,2.06,4.57,20.5,20.5,0,0,1,1.41,7.5c-.19,5-2.94,8.92-2.37,8.68a9.08,9.08,0,0,0,2.61-2.53,12.82,12.82,0,0,0,2.12-3.75A13.71,13.71,0,0,0,966,83a18.81,18.81,0,0,0-.61-5.2c-.17-.65-.52-1.53-1.22-3.3-1.06-2.67-1.31-3.06-2-4.91a18.34,18.34,0,0,1-1.1-3.68,11.24,11.24,0,0,1,.09-4.08C961.79,59.22,963.11,57.68,962.88,57.68Z"/><path class="cls-64" d="M972.35,61.44a4.81,4.81,0,0,0-2.42,2.29,8.21,8.21,0,0,0-1,3.18,12.21,12.21,0,0,0,.3,4.31c.67,2.44,1.36,2.71,2.23,5.34a15.26,15.26,0,0,1,1.06,5.6c-.14,3.7-2.2,6.66-1.78,6.49a6.93,6.93,0,0,0,2-1.9A9.66,9.66,0,0,0,974.23,84a10.12,10.12,0,0,0,.47-3.6,13.74,13.74,0,0,0-.45-3.89c-.13-.48-.39-1.14-.91-2.46-.79-2-1-2.29-1.48-3.67a13.49,13.49,0,0,1-.82-2.75,8.46,8.46,0,0,1,.07-3A16.3,16.3,0,0,1,972.35,61.44Z"/><path class="cls-64" d="M953.6,61.09a4.9,4.9,0,0,0-2.42,2.3,8.17,8.17,0,0,0-1,3.17,12.16,12.16,0,0,0,.3,4.31c.67,2.45,1.37,2.72,2.23,5.35a15.26,15.26,0,0,1,1.06,5.6c-.14,3.7-2.2,6.66-1.78,6.49a6.92,6.92,0,0,0,2-1.9,9.66,9.66,0,0,0,1.58-2.79A10.15,10.15,0,0,0,956,80a13.64,13.64,0,0,0-.44-3.89c-.14-.48-.4-1.14-.92-2.46-.79-2-1-2.29-1.48-3.67a13.49,13.49,0,0,1-.82-2.75,8.51,8.51,0,0,1,.07-3A17.07,17.07,0,0,1,953.6,61.09Z"/></g><g id="Layer_28" data-name="Layer 28"><path class="cls-50" d="M586.31,24.64c2.13,3.61,1.61,7.81-1.86,9.85a5.47,5.47,0,0,1-4.85.44l3.94,6.68-3.64,2.14L569.46,26.06l3.64-2.15L574,25.5a5.48,5.48,0,0,1,2.73-4C580.24,19.43,584.16,21,586.31,24.64Zm-3.82,2.25a3.26,3.26,0,0,0-4.56-1.33,3.47,3.47,0,0,0,3.51,6A3.28,3.28,0,0,0,582.49,26.89Z"/><path class="cls-50" d="M582.83,8.73l3.88-1.68,9.36,21.53-3.88,1.69Z"/><path class="cls-50" d="M608.52,9.1l4.14,14.08-4.06,1.19-.53-1.8a5.48,5.48,0,0,1-3.63,3.24c-3.86,1.14-7.28-1.35-8.48-5.4s.35-8,4.21-9.1a5.48,5.48,0,0,1,4.81.76l-.52-1.78Zm-2,8.21a3.37,3.37,0,0,0-4.14-2.39,3.28,3.28,0,0,0-2.14,4.24,3.25,3.25,0,0,0,4.1,2.4A3.35,3.35,0,0,0,606.5,17.31Z"/><path class="cls-50" d="M627.69,12.22l1.06,8.83-4.19.5-.95-7.86c-.24-2-1.46-3-2.88-2.79a2.49,2.49,0,0,0-2.14,2.83l1,8.42-4.19.51L613.65,8.09l4.19-.51.21,1.75a5.3,5.3,0,0,1,4-2.55C624.8,6.45,627.21,8.28,627.69,12.22Z"/><path class="cls-50" d="M639.61,10.46l-2.94,0-.08,10.71-4.23,0,.09-10.71-1.85,0,0-4,1.85,0,0-3.94,4.22,0,0,3.94,2.94,0Z"/><path class="cls-50" d="M661.22,9.26,660.28,14c-1.76-.77-4-.79-4.58,2.18l-1.37,7-4.15-.82L653,8l4.15.82L656.73,11A5,5,0,0,1,661.22,9.26Z"/><path class="cls-50" d="M661.08,16.94a7.59,7.59,0,1,1,14.4,4.78,7.59,7.59,0,1,1-14.4-4.78Zm10.31,3.4a3.27,3.27,0,1,0-6.21-2.07,3.29,3.29,0,0,0,2,4.29A3.26,3.26,0,0,0,671.39,20.34Z"/><path class="cls-50" d="M677.8,22.71a7.59,7.59,0,1,1,13.43,7.06,7.59,7.59,0,1,1-13.43-7.06Zm9.62,5a3.27,3.27,0,1,0-5.79-3,3.3,3.3,0,0,0,1.28,4.56A3.26,3.26,0,0,0,687.42,27.74Z"/><path class="cls-50" d="M701.85,33.22l-2.4-1.69-6.14,8.78-3.47-2.42L696,29.11l-1.51-1.06,2.27-3.25,1.52,1.06,2.25-3.22L704,25.06l-2.25,3.23,2.4,1.68Z"/><path class="cls-50" d="M697.53,40.86l3.53-.92a6.69,6.69,0,0,0,1.74,3.63c.62.54,1.28.58,1.63.19,1.26-1.44-4.17-5.26-.88-9,1.61-1.84,4.41-2,6.85.11a7.56,7.56,0,0,1,2.48,4.83l-3.47.93A6.12,6.12,0,0,0,708,37.7c-.55-.48-1.16-.55-1.51-.15-1.2,1.37,4.28,5.31.95,9.07-1.67,1.9-4.58,1.88-7.07-.31A9,9,0,0,1,697.53,40.86Z"/><path class="cls-65" d="M713.45,119.92A80.48,80.48,0,1,1,633,39.41,80.47,80.47,0,0,1,713.45,119.92Z"/><path class="cls-66" d="M698.86,170.93a8.74,8.74,0,0,1-1.75-1.74,19.23,19.23,0,0,1-2.44-4.3,39.93,39.93,0,0,1-1.65-4.68l-.65-2.39c-.2-.8-.35-1.62-.53-2.43-.38-1.61-.61-3.25-.89-4.88s-.43-3.29-.66-4.94-.47-3.3-.71-4.95l-.19-1.24c-.07-.41-.18-.82-.27-1.22l-.58-2.45-.29-1.23-.38-1.19-.78-2.4a21.42,21.42,0,0,0-.89-2.35l-1-2.33c-.72-1.52-1.47-3-2.28-4.5s-1.68-2.92-2.69-4.28c-.49-.68-.94-1.4-1.46-2.06l-1.57-2c-1.1-1.28-2.2-2.57-3.41-3.75-.59-.6-1.19-1.2-1.83-1.76s-1.25-1.14-1.91-1.67a36.1,36.1,0,0,0-4.15-3h0l-.08,0c-2.87-1.35-5.74-2.77-8.57-4.23-1.42-.72-2.82-1.49-4.22-2.23s-2.78-1.57-4.12-2.36L647,93.06c-.33-.21-.65-.38-1-.62l-.94-.74-1-.74-.12-.09,0,0-.15-.17-.32-.35a7.38,7.38,0,0,1-1-1.7,12.24,12.24,0,0,1-.86-4.16,17.51,17.51,0,0,1,0-2.29,8,8,0,0,0,1.1,1.15,9.74,9.74,0,0,0,4.65,2,15.22,15.22,0,0,0,2.4.23l2.25,0a18.48,18.48,0,0,1,2.13.06c.69,0,1.4.17,2.1.25s1.4.24,2.09.45,1.38.38,2,.61,1.35.49,2,.78,1.31.6,1.94.94,1.26.7,1.87,1.09A20.72,20.72,0,0,1,668,90.94L668,91h0c1.6.89,3.21,1.69,4.85,2.44s3.3,1.46,5,2.07c.42.16.85.29,1.28.44s.85.29,1.29.42c.85.27,1.73.49,2.6.71.44.11.88.18,1.32.27a10.39,10.39,0,0,0,1.34.22c.44,0,.88.15,1.33.16l1.35.07-1.34-.15c-.44,0-.88-.16-1.32-.23s-.87-.18-1.3-.3-.87-.21-1.3-.35c-.85-.26-1.7-.54-2.53-.85-.42-.15-.84-.32-1.25-.49s-.83-.32-1.23-.51c-1.64-.7-3.24-1.5-4.82-2.33s-3.1-1.71-4.57-2.65a20.5,20.5,0,0,0-1.74-1.4c-.61-.45-1.25-.86-1.9-1.26s-1.31-.77-2-1.11-1.38-.66-2.08-1-1.43-.56-2.16-.79-1.48-.41-2.22-.61-1.5-.33-2.29-.41-1.58-.19-2.3-.2l-2.19-.09a14.73,14.73,0,0,1-2-.28,7.18,7.18,0,0,1-3.33-1.62,5.76,5.76,0,0,1-1.69-3.08,9,9,0,0,1-.19-1.88c0-.12,0-.24,0-.36s.08-.41.11-.62l.37-2.44c.11-.82.17-1.63.26-2.45s.17-1.63.21-2.45l.1-2.45.09-2.45,0-2.45c-.06-1.63,0-3.26-.17-4.9l-.44-4.92c-.1-1.67-.42-3.21-.66-4.81l-.74-4.74-4.19.71.87,4.73c.28,1.57.65,3.17.77,4.7l.37,3.22c-.7.26-1.6.6-2.67,1.09a41.57,41.57,0,0,0-4.66,2.45c-.85.56-1.78,1.12-2.68,1.83a31.13,31.13,0,0,0-2.78,2.29,28.71,28.71,0,0,0-5.19,6.24,29.78,29.78,0,0,0-2.06,3.93c-.27.71-.49,1.44-.75,2.17l-.36,1.11-.24,1.14c-.16.77-.31,1.55-.47,2.33s-.25,1.49-.37,2.25l-.2,1.15-.26,1.1a18.75,18.75,0,0,1-.58,2.2,16.17,16.17,0,0,1-.77,2.15l-.47,1a10,10,0,0,1-.56,1,10.48,10.48,0,0,1-1.36,1.73A8,8,0,0,1,611.36,93a10.47,10.47,0,0,1-4.36.91c-1.55,0-3.12-.09-4.7-.22s-3.1-.27-4.77-.34l-1.16,0a5.35,5.35,0,0,0-1.17.12l-1.21.26a8.82,8.82,0,0,0-1.12.41c-2.94,1.2-5.09,3.36-7,5.32s-3.7,3.9-5.46,5.53a46.14,46.14,0,0,1-5.08,4.14c-.81.54-1.6,1-2.32,1.46s-1.43.76-2.05,1.1a27.39,27.39,0,0,1-3,1.33l-1.07.44,1.08-.41a28,28,0,0,0,3-1.24c.63-.32,1.36-.62,2.1-1s1.54-.87,2.37-1.4a44.57,44.57,0,0,0,5.25-4c1.83-1.58,3.68-3.45,5.66-5.37s4.15-3.91,6.87-4.91a6.42,6.42,0,0,1,1-.34l1-.19a4.42,4.42,0,0,1,1.11-.09h1.17c1.43.12,3,.29,4.6.48s3.19.34,4.84.37a11.81,11.81,0,0,0,5-.91A9.23,9.23,0,0,0,614.27,93,11.66,11.66,0,0,0,616,91a12.37,12.37,0,0,0,.68-1.09l.56-1.13a16.65,16.65,0,0,0,.91-2.3,22.51,22.51,0,0,0,.7-2.35l.31-1.18.23-1.14.45-2.3.51-2.13.24-1,.38-1c.25-.66.48-1.32.74-2a27.85,27.85,0,0,1,2-3.53,26.43,26.43,0,0,1,4.91-5.55,30.53,30.53,0,0,1,2.63-2c.85-.63,1.73-1.11,2.53-1.61a39.14,39.14,0,0,1,4.39-2.14c.66-.28,1.26-.5,1.78-.68.05,1,.08,1.94.14,2.91l.12,2.35,0,2.35,0,2.36c0,.78-.09,1.56-.14,2.34s-.09,1.57-.18,2.34l-.28,2.32c-.1.77-.26,1.52-.39,2.27l-.12.59-.13.65c-.07.42-.13.84-.18,1.27s-.09,1-.13,1.47c-1.81,7.21-3.43,14.41-4.93,21.67l-.27,1.37c-.54.19-1.05.39-1.56.6-.68.3-1.35.61-2,1a34.76,34.76,0,0,0-3.75,2.29c-.59.43-1.19.86-1.75,1.32s-1.13.92-1.67,1.42-1.05,1-1.57,1.52-1,1.1-1.45,1.57-1,1.07-1.42,1.52-.94.93-1.46,1.36a27.35,27.35,0,0,1-3.23,2.44,26,26,0,0,1-3.55,2q-.91.44-1.86.78a17.66,17.66,0,0,1-1.89.59l-.17,0-.1,0c-1.75,1-3.41,2.13-5.07,3.27s-3.25,2.34-4.82,3.59a58.85,58.85,0,0,0-4.51,4,33.85,33.85,0,0,0-3.94,4.58,19.23,19.23,0,0,0-1.54,2.63,28.11,28.11,0,0,1-1.21,2.7,12.81,12.81,0,0,1-4,4.21,20.15,20.15,0,0,1-5.33,2.5,26.2,26.2,0,0,1-5.83,1.09,25.56,25.56,0,0,0,5.89-.87,20,20,0,0,0,5.52-2.34,13.29,13.29,0,0,0,4.3-4.24,29.24,29.24,0,0,0,1.34-2.69,18.35,18.35,0,0,1,1.56-2.44,31.75,31.75,0,0,1,4-4.29c1.45-1.33,3-2.56,4.56-3.74s3.21-2.28,4.87-3.34,3.3-2,5-2.94a19.26,19.26,0,0,0,2-.54c.69-.23,1.37-.47,2-.76a28.33,28.33,0,0,0,3.89-2,29.46,29.46,0,0,0,3.59-2.49c.57-.44,1.12-1,1.67-1.45s1-1,1.52-1.5,1-1,1.45-1.46,1-.92,1.52-1.34,1-.85,1.58-1.25,1.1-.78,1.66-1.15a32.58,32.58,0,0,1,3.51-2c.49-.23,1-.44,1.48-.64-.39,2-.76,4-1.13,5.94-.66,3.65-1.29,7.31-1.85,11-.28,1.84-.56,3.67-.8,5.52s-.49,3.69-.69,5.53l-.64,5.51c-.19,1.77-.48,3.52-.73,5.28v.14a3.06,3.06,0,0,0-.11.35c0,.09,0,.17-.07.36a8.46,8.46,0,0,0-.16,1.25c0,.47-.26,1-.34,1.61s-.25,1.27-.39,1.9c-.18.91-.4,1.8-.63,2.69s-.46,1.78-.73,2.65a40.16,40.16,0,0,1-1.87,5.16,22.94,22.94,0,0,1-1.26,2.41,8,8,0,0,1-1.63,2c-1.85.79-3.64,1.65-5.42,2.58s-3.53,1.95-5.22,3a39.82,39.82,0,0,0-4.83,3.63,18,18,0,0,0-3.85,4.63,17.9,17.9,0,0,1,4-4.49,39,39,0,0,1,4.9-3.46,70.66,70.66,0,0,1,10.77-5.28l0,0h0a8.26,8.26,0,0,0,1.93-2.2c.14-.21.26-.43.39-.65.16.19.35.42.57.72a13.8,13.8,0,0,1,2.07,4,12.54,12.54,0,0,1,.58,2.95,11.39,11.39,0,0,1,0,1.65c0,.29,0,.57-.08.86l-.18.86a13,13,0,0,1-.51,1.73c-.2.62-.41,1.25-.62,1.88s-.3,1.35-.45,2l-.28,2a71.66,71.66,0,0,0,.41,14.74c.48,4,1,6.6,1,6.6s-.38-2.64-.66-6.64a71.07,71.07,0,0,1,.31-14.56l.37-1.93c.17-.61.31-1.22.5-1.82s.46-1.21.69-1.8a12.12,12.12,0,0,0,.66-1.89c.09-.32.17-.64.25-.95s.09-.64.14-1a13.21,13.21,0,0,0,.11-1.87,13.8,13.8,0,0,0-.49-3.4,15.48,15.48,0,0,0-2.13-4.66c-.34-.52-.65-.91-.86-1.18l-.3-.35a41.62,41.62,0,0,0,2-5.06c.3-.88.58-1.77.82-2.67.16-.53.3-1.06.44-1.59.07.23.13.45.21.68a11,11,0,0,0,1.88,3.32,4.52,4.52,0,0,0,.69.76l.75.73.88.66.45.32.45.25c.3.17.6.34.91.5l1,.51,1.87,1c.63.33,1.21.74,1.83,1.11a21.54,21.54,0,0,1,1.8,1.19l1.74,1.29,1.63,1.39c.56.45,1,1,1.53,1.47l.74.73.68.77a38.42,38.42,0,0,1,2.44,3.06c.35.52.69,1,1,1.51s.6,1,.87,1.47c.53,1,1,1.84,1.35,2.66s.65,1.53.86,2.13a17.79,17.79,0,0,1,.59,1.92,19.71,19.71,0,0,0-.5-1.95c-.19-.61-.44-1.35-.77-2.18s-.74-1.75-1.23-2.74l-.81-1.52-1-1.57a35.84,35.84,0,0,0-2.34-3.23l-.66-.81-.71-.78c-.5-.52-.95-1.09-1.5-1.57l-1.6-1.5-1.73-1.4a19.08,19.08,0,0,0-1.79-1.31c-.61-.41-1.2-.86-1.83-1.23L634.44,160l-.88-.52-.89-.54-.43-.27-.35-.29c-.24-.2-.47-.39-.71-.57s-.41-.45-.62-.66a3.9,3.9,0,0,1-.55-.68,9.41,9.41,0,0,1-1.47-2.89,12.5,12.5,0,0,1-.53-4.82c0-.59,0-1.11.1-1.41s0-.43,0-.51h0c.31-1.81.67-3.62.93-5.45l.79-5.5q.38-2.76.84-5.48c.28-1.82.61-3.64.93-5.45.65-3.64,1.38-7.26,2.13-10.88.11-.52.23-1,.34-1.57A31.78,31.78,0,0,0,636,117.3a26.62,26.62,0,0,0,1.74,3,25.2,25.2,0,0,0,2.21,2.87,23.5,23.5,0,0,0,2.61,2.48c.46.36.92.74,1.4,1a16,16,0,0,0,1.45.92,14.51,14.51,0,0,0,1.45.78,15,15,0,0,0,1.43.64,27.6,27.6,0,0,0,2.7.95c.87.2,1.64.45,2.35.55s1.32.25,1.83.29l1.6.17-1.58-.31c-.5-.08-1.09-.27-1.78-.44s-1.43-.47-2.26-.73a26.38,26.38,0,0,1-2.55-1.15,11.7,11.7,0,0,1-1.33-.74,11.9,11.9,0,0,1-1.32-.86,14.76,14.76,0,0,1-1.29-1,14.33,14.33,0,0,1-1.24-1.1,23.42,23.42,0,0,1-2.24-2.53,26.87,26.87,0,0,1-4.74-11.31,31.39,31.39,0,0,1-.46-4c0-.48,0-.86,0-1.11s0-.36,0-.36h-.28c.16-.72.32-1.43.49-2.14q1.2-5.16,2.5-10.29c.06.52.14,1.05.24,1.62a34.93,34.93,0,0,0,1.21,4.94,43.53,43.53,0,0,0,2.22,5.54,52.31,52.31,0,0,0,3.23,5.76,73.85,73.85,0,0,0,14.16,16l2.74,2.18c.9.7,1.73,1.48,2.58,2.2,1.66,1.47,3.21,3,4.6,4.47a55.31,55.31,0,0,1,3.71,4.4,41.8,41.8,0,0,1,2.7,4,30.62,30.62,0,0,1,1.71,3.35,15.42,15.42,0,0,1,1,3.1,15.31,15.31,0,0,0-.9-3.16,33.57,33.57,0,0,0-1.56-3.45,44.87,44.87,0,0,0-2.54-4.21,56.86,56.86,0,0,0-3.55-4.62c-1.34-1.58-2.83-3.17-4.45-4.75-.83-.76-1.63-1.59-2.52-2.34l-2.63-2.3a69,69,0,0,1-5-5,69.94,69.94,0,0,1-8.22-11.13,48.86,48.86,0,0,1-2.86-5.62,39.49,39.49,0,0,1-1.89-5.29,33.49,33.49,0,0,1-.94-4.59c-.07-.58-.14-1.13-.17-1.65l.2.21.25.26.11.09,0,0,.06.05.12.09,1,.71a42.42,42.42,0,0,0,4.2,2.67c1.43.81,2.85,1.56,4.29,2.31s2.88,1.46,4.33,2.15c2.89,1.39,5.78,2.72,8.72,4a34,34,0,0,1,3.91,2.73c.65.49,1.28,1,1.89,1.56s1.22,1.07,1.8,1.65c1.21,1.1,2.3,2.32,3.4,3.53l1.57,1.88c.53.63,1,1.31,1.48,2,1,1.29,1.83,2.71,2.72,4.09s1.6,2.86,2.35,4.32l1,2.25a21.44,21.44,0,0,1,.94,2.28l.82,2.32.41,1.17.31,1.19.64,2.39c.1.4.22.79.3,1.2l.22,1.21c.28,1.64.6,3.23.84,4.9s.46,3.28.8,4.92.6,3.29,1,4.9c.21.81.38,1.62.61,2.43l.71,2.39a41.28,41.28,0,0,0,1.8,4.67,18.76,18.76,0,0,0,2.58,4.27,8.68,8.68,0,0,0,1.81,1.72,3.93,3.93,0,0,0,2.32.81A3.9,3.9,0,0,1,698.86,170.93Z"/><circle class="cls-67" cx="605.96" cy="115.16" r="2.33"/><circle class="cls-68" cx="575.4" cy="98.49" r="2.33"/><circle class="cls-68" cx="598.83" cy="138.46" r="2.33"/><circle class="cls-69" cx="575.39" cy="143.47" r="2.33"/><circle class="cls-67" cx="585.19" cy="112.83" r="2.33"/><circle class="cls-67" cx="644.15" cy="180.7" r="2.33"/><circle class="cls-68" cx="596.61" cy="159.01" r="2.33"/><circle class="cls-69" cx="656.53" cy="170.5" r="2.33"/><circle class="cls-69" cx="684.53" cy="105.5" r="2.33"/><circle class="cls-70" cx="647.68" cy="120.98" r="2.33"/><circle class="cls-67" cx="619.57" cy="132.41" r="2.33"/><circle class="cls-68" cx="660.2" cy="184.07" r="2.33"/><circle class="cls-67" cx="672.12" cy="120.31" r="2.33"/><circle class="cls-68" cx="682.85" cy="141.4" r="2.33"/><circle class="cls-42" cx="610.85" cy="181.4" r="2.33"/><circle class="cls-68" cx="642.42" cy="133.75" r="2.33"/></g><g id="Layer_29" data-name="Layer 29"><path class="cls-50" d="M184.86,104.09c4.48.52,7.74,3.68,7.24,8a5.84,5.84,0,0,1-2.77,4.41l8.28,1-.52,4.48-22-2.57.52-4.49,2,.24a5.85,5.85,0,0,1-1.68-4.94C176.45,105.88,180.34,103.56,184.86,104.09Zm-.55,4.7a3.5,3.5,0,0,0-4.1,3,3.73,3.73,0,0,0,7.4.87A3.52,3.52,0,0,0,184.31,108.79Z"/><path class="cls-50" d="M169,96.58l1.1-4.38,24.49,6.18-1.1,4.38Z"/><path class="cls-50" d="M186.27,75.06l14.67,5.84-1.66,4.19-1.88-.74a5.83,5.83,0,0,1,.35,5.19c-1.58,4-5.94,5.22-10.17,3.54s-6.52-5.56-4.94-9.55A5.85,5.85,0,0,1,186.46,80l-1.85-.73Zm5.63,7.13a3.6,3.6,0,0,0-4.75,1.89,3.73,3.73,0,0,0,6.92,2.75A3.59,3.59,0,0,0,191.9,82.19Z"/><path class="cls-50" d="M201.72,61.07l8.13,5-2.37,3.83-7.25-4.49c-1.82-1.13-3.45-.77-4.26.53s-.45,2.6.95,3.69l7.76,4.8-2.38,3.84L188.89,70l2.37-3.84,1.61,1a5.61,5.61,0,0,1,.5-5C195,59.6,198.1,58.82,201.72,61.07Z"/><path class="cls-50" d="M208.3,50l-2,2.42,8.89,7.34-2.88,3.48-8.88-7.34-1.26,1.52-3.28-2.72,1.25-1.52-3.26-2.69L199.76,47,203,49.67l2-2.41Z"/><path class="cls-50" d="M222.1,31.29l3.3,4.07c-1.84.92-3.39,2.75-1.34,5.27l4.81,5.94-3.51,2.84-9.94-12.27,3.51-2.84,1.49,1.84A5.31,5.31,0,0,1,222.1,31.29Z"/><path class="cls-50" d="M242.1,30l-9.16,5.61a3.85,3.85,0,0,0,4.76.16,11.25,11.25,0,0,0,3.56-3.67l2.16,3.46a11.07,11.07,0,0,1-3.88,3.86,7.83,7.83,0,0,1-11.21-2.69c-2.29-3.74-1.64-8.55,2.4-11C235.08,23.07,239.75,25.36,242.1,30Zm-10.65,3.19,5.43-3.32a3.19,3.19,0,0,0-4-.58A3.36,3.36,0,0,0,231.45,33.22Z"/><path class="cls-50" d="M245.41,33.31l.74-3.85a7.17,7.17,0,0,0,4.3,0c.81-.35,1.15-1,.93-1.5-.81-1.88-7,1.58-9.1-3.35-1-2.41.09-5.19,3.25-6.57a8.1,8.1,0,0,1,5.8-.15l-.69,3.8a6.39,6.39,0,0,0-3.47,0c-.72.3-1.07.86-.84,1.38.77,1.8,7.09-1.65,9.19,3.32,1.07,2.5-.29,5.31-3.54,6.7A9.64,9.64,0,0,1,245.41,33.31Z"/><path class="cls-50" d="M253.53,9.73a2.84,2.84,0,1,1,3.53,1.95A2.85,2.85,0,0,1,253.53,9.73Zm2.08,4.89,4.33-1.29,4.53,15.12-4.33,1.29Z"/><path class="cls-50" d="M279.38,0l3.84,25-4.46.68-.31-2a5.93,5.93,0,0,1-4.28,2.89c-4.24.64-7.52-2.5-8.21-7s1.5-8.43,5.74-9.08a5.94,5.94,0,0,1,5,1.48L274.92.68Zm-1.83,17.8a3.6,3.6,0,0,0-4-3.15,3.52,3.52,0,0,0-2.88,4.21,3.5,3.5,0,0,0,4,3.15A3.57,3.57,0,0,0,277.55,17.8Z"/><path class="cls-50" d="M300.71,9.42l-.39,15.78-4.51-.12,0-1.89a5.6,5.6,0,0,1-4.56,2.09c-3-.08-5.27-2.41-5.17-6.67l.24-9.56,4.51.12-.21,8.52c-.05,2.14,1.08,3.37,2.61,3.41s2.47-.91,2.7-2.68l.23-9.11Z"/><path class="cls-50" d="M318.75,22,308.2,20a3.85,3.85,0,0,0,3.4,3.34,11.28,11.28,0,0,0,5.1-.28L316,27a11.08,11.08,0,0,1-5.48.21,7.82,7.82,0,0,1-6.42-9.57c.84-4.3,4.58-7.39,9.23-6.47C318.29,12.18,320.18,17,318.75,22Zm-10-4.87L315,18.41a3.19,3.19,0,0,0-2.52-3.1A3.37,3.37,0,0,0,308.74,17.17Z"/><path class="cls-50" d="M319,26.7l3.16-2.32a7.14,7.14,0,0,0,3.15,2.92c.83.3,1.51.07,1.7-.46.68-1.94-6.22-3.59-4.42-8.64.87-2.47,3.59-3.74,6.85-2.62a8.1,8.1,0,0,1,4.36,3.83l-3.08,2.32a6.51,6.51,0,0,0-2.56-2.35c-.74-.26-1.37-.09-1.56.45-.65,1.84,6.34,3.59,4.51,8.67-.91,2.55-3.81,3.7-7.15,2.51A9.66,9.66,0,0,1,319,26.7Z"/><path class="cls-71" d="M368.82,116c4.24,44.13-27.87,83.33-71.72,87.54s-82.82-28.16-87.06-72.3,27.87-83.33,71.72-87.54S364.58,71.84,368.82,116Z"/><path class="cls-72" d="M333.08,159.71l-2.89,1.52a3.64,3.64,0,0,1-1.2.56c-.32,0-.51-.39-.75-.61a115.6,115.6,0,0,1-8.41-8.45c-1.67-1.82-3.26-3.72-4.86-5.6-1.35-1.6-2.69-3.21-4-4.85s-2.59-3.33-3.87-5c-1.13-1.48-2.26-3-3.37-4.47s-2.2-3-3.29-4.57-2-2.83-3-4.27-1.87-2.7-2.8-4.06l-2.85-4.22q-1.38-2.07-2.75-4.14c-1-1.56-2-3.13-3.06-4.69l-.62-1,2.57-1.51,1.17,1.76,2.75,4.15q1.38,2.09,2.78,4.15l2.88,4.28c.92,1.35,1.84,2.71,2.77,4.05s1.83,2.58,2.75,3.87,1.75,2.46,2.64,3.67c1,1.37,2.05,2.72,3.08,4.07q1.34,1.75,2.69,3.47c.74.93,1.49,1.85,2.26,2.76q1.93,2.27,3.9,4.52c.87,1,1.74,2,2.66,2.91,2.12,2.13,4.23,4.26,6.42,6.3,1.7,1.58,3.53,3,5.31,4.52C332.3,159.14,332.67,159.4,333.08,159.71Z"/><path class="cls-72" d="M281.69,119.31c.57-.84,1.11-1.66,1.68-2.52.5.43,1,.85,1.47,1.29,3,2.71,6.06,5.38,9,8.15,3.86,3.63,7.66,7.33,11.48,11,.87.84,1.75,1.66,2.56,2.55s1.57,1.88,2.34,2.83,1.51,1.89,2.28,2.82c1.09,1.32,2.17,2.63,3.28,3.93.91,1.06,1.85,2.1,2.77,3.15,2.53,2.87,5.25,5.54,7.95,8.23a20.55,20.55,0,0,1,1.9,2.5c.83,1.15,1.64,2.33,2.46,3.5.3.43.58.88.86,1.33a.37.37,0,0,1,0,.31l-2.34,3.89c-.27-.46-.5-.89-.75-1.3-1.06-1.75-2.11-3.51-3.21-5.23-1-1.5-2-3-3-4.41s-2.07-2.78-3.14-4.14c-1.3-1.63-2.61-3.25-4-4.84s-2.52-2.87-3.8-4.29c-3.74-4.16-7.67-8.14-11.71-12-3.47-3.31-7-6.55-10.52-9.8-2.45-2.25-4.91-4.48-7.37-6.72Z"/><path class="cls-72" d="M268.94,122.3c.33-.65.63-1.22,1-1.85l1,.65a7.87,7.87,0,0,0,2.79,1.21,5.05,5.05,0,0,0,1.41.09,2.09,2.09,0,0,1,1.32.43c3.47,1.84,7,3.67,10.4,5.55,3.06,1.67,6.07,3.41,9.11,5.12a.7.7,0,0,1,.17.13l8.71,8.5a1.42,1.42,0,0,1,.29.39C293.54,135.12,281.2,128.76,268.94,122.3Z"/><path class="cls-72" d="M272.44,99.17c4-1.58,7.8-1.79,11.54.42a21.93,21.93,0,0,1,4.89,4.06c-.34.2-.65.4-1,.56a12.74,12.74,0,0,1-4.71,1.61,7.17,7.17,0,0,1-4.85-1.36A56.47,56.47,0,0,1,272.44,99.17Z"/><path class="cls-72" d="M282.8,122.11c-.7-1-1.39-1.81-2-2.72a14.58,14.58,0,0,1-2.41-5.41,12.7,12.7,0,0,1,1-7.61,1.94,1.94,0,0,1,.14-.3,3.42,3.42,0,0,1,2.11,1.25,42.44,42.44,0,0,1,3.07,4.42,7.47,7.47,0,0,1,.26,6.66A16.34,16.34,0,0,1,282.8,122.11Z"/><path class="cls-72" d="M289,102.55c-.73-.64-1.43-1.32-2.19-1.91s-1.8-1.26-2.69-1.91a1.08,1.08,0,0,1-.41-.56,10.9,10.9,0,0,1,.58-6.72c.48-1.15,1.09-2.23,1.7-3.47.54.88,1,1.61,1.43,2.35a30.92,30.92,0,0,1,2.61,4.8,7.61,7.61,0,0,1-.88,7.28.39.39,0,0,1-.08.1Z"/><path class="cls-72" d="M267.72,117.77a18,18,0,0,1,3.65-1.5,11.28,11.28,0,0,1,6.51.08.89.89,0,0,1,.6.52,20.22,20.22,0,0,0,3.18,5l.13.22a8,8,0,0,1-2.4,1,7.28,7.28,0,0,1-6-1.19c-1.64-1.08-3.2-2.29-4.79-3.45C268.33,118.25,268.06,118,267.72,117.77Z"/><path class="cls-72" d="M266.93,123.29a8.89,8.89,0,0,1-3.2,1.75,7.27,7.27,0,0,1-5-.42c-2.17-.94-4.28-2-6.55-3.06.77-.52,1.41-1,2.08-1.4a11.53,11.53,0,0,1,7.67-1.85,1,1,0,0,1,.82.46A21.72,21.72,0,0,0,266.93,123.29Z"/><path class="cls-72" d="M267.51,91.91c3.66-1,7.17-1,10.44,1.13,2.26,1.44,4.8,4.06,4.89,5a.85.85,0,0,1-.23,0,12.82,12.82,0,0,0-9.13-.07.69.69,0,0,1-.82-.16c-.86-.93-1.76-1.82-2.6-2.76s-1.54-1.83-2.3-2.75A3.87,3.87,0,0,1,267.51,91.91Z"/><path class="cls-72" d="M277.93,92.07a12.65,12.65,0,0,0-3.86-1.39,14.41,14.41,0,0,0-5.59.19.77.77,0,0,1-.89-.3,65.5,65.5,0,0,1-4.15-6.19.54.54,0,0,1,0-.17c.84,0,1.68-.12,2.52-.13a11.78,11.78,0,0,1,6.23,1.62,12,12,0,0,1,3.24,2.82c.8,1,1.53,2.09,2.28,3.14C277.77,91.76,277.82,91.87,277.93,92.07Z"/><path class="cls-72" d="M272.42,110a19,19,0,0,1-5.08-5.16,11.78,11.78,0,0,1-1.66-7.81c.07-.62.18-1.23.28-1.84,0-.17.08-.33.13-.56,1.61,1.28,3.21,2.46,4.68,3.79.48.44.9,1,1.36,1.54.07.09,0,.31,0,.45a16.32,16.32,0,0,0-.74,4.44,11.68,11.68,0,0,0,.86,4.63C272.29,109.63,272.33,109.77,272.42,110Z"/><path class="cls-72" d="M241.34,105.61c-.93.23-1.94.43-2.92.73a13.67,13.67,0,0,0-3.73,1.94.78.78,0,0,1-.91.12c-2-1-4.09-2-6.21-3a18.22,18.22,0,0,1,3.49-2.21,11.44,11.44,0,0,1,8.41-.6c.1,0,.24.07.29.15C240.3,103.73,240.83,104.7,241.34,105.61Z"/><path class="cls-72" d="M268.1,64.65c1.18,2.07,2.34,4.07,3.47,6.08a.69.69,0,0,1,0,.56,14.08,14.08,0,0,0-2.12,7.28c-.33-.2-.6-.4-.89-.54-.64-.32-1.31-.59-1.95-.91a.92.92,0,0,1-.4-.45A11.93,11.93,0,0,1,267,66.38c.28-.52.59-1,.88-1.53A1.72,1.72,0,0,1,268.1,64.65Z"/><path class="cls-72" d="M246.27,97.49c3.26-1.74,6.58-2.56,10.17-1.4.65.21,1.28.49,1.92.76a.61.61,0,0,1,.32.31c.37,1,.72,2,1.06,3-.77,0-1.65,0-2.52.09a13.9,13.9,0,0,0-4.58,1.35.69.69,0,0,1-.8,0l-4.77-3.47C246.81,97.92,246.56,97.72,246.27,97.49Z"/><path class="cls-72" d="M277.86,115.54a2.2,2.2,0,0,1-.53-.27,16.14,16.14,0,0,1-4.84-7.57,13,13,0,0,1,.42-7.09c1,1,1.86,1.9,2.81,2.75s2,1.6,3,2.45A13.81,13.81,0,0,0,277.86,115.54Z"/><path class="cls-72" d="M255.47,113c-6.11-2.89-9.25-7-8.82-14,.83.55,1.61,1.06,2.36,1.59s1.51,1.08,2.31,1.65l-1,.59,1.5,1.14c.46.35.93.67,1.36,1a.82.82,0,0,1,.28.58,12.74,12.74,0,0,0,.9,5.11C254.67,111.48,255.08,112.21,255.47,113Z"/><path class="cls-72" d="M261.93,112.72c.92-.39,1.74-.78,2.59-1.1a11.42,11.42,0,0,1,8.18-.09,2.14,2.14,0,0,1,1.08.82c.66.93,1.4,1.81,2.11,2.72-.52,0-1.08,0-1.64,0a14.75,14.75,0,0,0-6.23,1.69.6.6,0,0,1-.72,0L263,113.51C262.65,113.29,262.35,113.05,261.93,112.72Z"/><path class="cls-72" d="M282.57,96.09c-.94-.92-1.88-1.83-2.79-2.77a1.44,1.44,0,0,1-.3-.62,12.22,12.22,0,0,1,1.57-9.88c.13-.23.27-.45.41-.68l.21-.26c.34.57.67,1.09,1,1.63.79,1.35,1.56,2.7,2.36,4a.63.63,0,0,1,0,.75,15.25,15.25,0,0,0-2.06,5C282.74,94.17,282.69,95.12,282.57,96.09Z"/><path class="cls-72" d="M259.88,117.44a11.15,11.15,0,0,0-4.39,1.16c-1.08.56-2.1,1.23-3.12,1.88a.58.58,0,0,1-.64.07l-5.06-2.47c-.28-.13-.55-.28-.9-.46.43-.32.8-.61,1.19-.88a12.21,12.21,0,0,1,7.09-2.41,23.54,23.54,0,0,1,2.5.26.78.78,0,0,1,.42.2C257.94,115.66,258.9,116.55,259.88,117.44Z"/><path class="cls-72" d="M261.44,77c6.4.15,10.21,3.26,12.47,8.8-.8-.46-1.61-1-2.48-1.42a12.79,12.79,0,0,0-6.57-1.08.82.82,0,0,1-1-.56C263.1,80.87,262.28,79,261.44,77Z"/><path class="cls-72" d="M259.07,92.07l2.33,1.26,3.26,1.82A.67.67,0,0,1,265,96a13.14,13.14,0,0,0,.92,8c.11.23.24.46.37.7a6.67,6.67,0,0,1,.34.71,14.71,14.71,0,0,1-6-5.36A14.09,14.09,0,0,1,259.07,92.07Z"/><path class="cls-72" d="M239.27,97.72l6.21,2.15c.29.1.33.27.33.53a14.66,14.66,0,0,0,1.11,5.7,12,12,0,0,0,2.22,3.39c-1.22.09-5.14-2.25-6.85-4.17A13.8,13.8,0,0,1,239.27,97.72Z"/><path class="cls-72" d="M278.23,91c-.29-.42-.56-.87-.88-1.28-.59-.77-1.26-1.48-1.8-2.28a4.14,4.14,0,0,1-.48-1.49,12.16,12.16,0,0,1,1.64-8.41c.18-.32.37-.63.56-1a3.24,3.24,0,0,1,.24-.33c.43.71.85,1.39,1.26,2.08.6,1,1.2,2,1.81,3a.61.61,0,0,1,0,.72,14.53,14.53,0,0,0-2.26,6.07C278.24,89.05,278.26,90,278.23,91Z"/><path class="cls-72" d="M254.53,113.52a13.23,13.23,0,0,0-8.51,2.92.81.81,0,0,1-1,.1c-1.64-.84-3.3-1.65-4.95-2.47-.08,0-.14-.1-.24-.16,3.11-2.46,6.49-3.86,10.5-3a3.36,3.36,0,0,1,1,.61Z"/><path class="cls-72" d="M271.33,110.2a13.88,13.88,0,0,0-8.85,1.41.86.86,0,0,1-1.06-.06c-1.46-1.13-3-2.22-4.45-3.33a1.06,1.06,0,0,1-.21-.2c.89-.38,1.72-.78,2.57-1.09a11.27,11.27,0,0,1,8.26-.05,2,2,0,0,1,.53.37l2.81,2.63A4.31,4.31,0,0,0,271.33,110.2Z"/><path class="cls-72" d="M234,109.8a13.49,13.49,0,0,1,7.88-3.31.9.9,0,0,1,.58.21,16.75,16.75,0,0,0,4.62,3l.2.09s0,.05,0,0c-1,.22-2,.41-2.91.7a15,15,0,0,0-4.05,2.09.55.55,0,0,1-.46.07C237.92,111.71,236,110.77,234,109.8Z"/><path class="cls-72" d="M265,105.4a13.45,13.45,0,0,0-7.36,1.37.6.6,0,0,1-.72,0L253.16,104c-.44-.32-.86-.65-1.34-1a2.93,2.93,0,0,1,.32-.2,14.17,14.17,0,0,1,6.12-1.75c.46,0,.91.06,1.37,0,.78-.06,1.11.52,1.51,1a14.86,14.86,0,0,0,3.49,3.08Z"/><path class="cls-72" d="M272.88,70.69c.75,1.23,1.44,2.36,2.12,3.49.39.64.74,1.3,1.13,1.95a.74.74,0,0,1,0,.84,14,14,0,0,0-1.93,5.42c-.07.54-.09,1.08-.13,1.71l-.74-1.24a15.19,15.19,0,0,0-2.75-3.44.9.9,0,0,1-.25-.56,12,12,0,0,1,1.59-6.44C272.19,71.86,272.52,71.33,272.88,70.69Z"/><path class="cls-72" d="M254.3,105.88l2.06,1.48-1.07.59c.63.48,1.23,1,1.84,1.4,1.09.83,2.19,1.64,3.27,2.47a.59.59,0,0,1,.18.37,11.94,11.94,0,0,0,1.26,5c0,.08.06.16.13.37a3.65,3.65,0,0,1-.79-.3,17.07,17.07,0,0,1-5.47-5.55,11.49,11.49,0,0,1-1.45-5.68A.9.9,0,0,1,254.3,105.88Z"/><path class="cls-72" d="M266.75,117.34l-.5.33c.72.55,1.4,1.09,2.1,1.59.88.64.9.63.5,1.67-.24.63-.51,1.25-.77,1.87a2.89,2.89,0,0,1-.16.25c-3.08-2.55-5.72-5.35-6.35-9.57Z"/><path class="cls-72" d="M325.34,167.09c-.51.18-1,.37-1.5.51-.12,0-.26-.08-.32-.18-.53-.8-1.07-1.59-1.55-2.42q-2.37-4.14-4.7-8.3c-.32-.58-.61-1.19-.94-1.84C317.22,155.47,324.61,165.53,325.34,167.09Z"/><path class="cls-72" d="M264.63,61.3c.7,1.15,1.42,2.3,2.11,3.46a.59.59,0,0,1,0,.47c-.4.85-.87,1.67-1.22,2.54s-.55,1.76-.81,2.63c-.82-.33-1.67-.66-2.51-1-.12-.06-.19-.34-.19-.52a10.15,10.15,0,0,1,.74-4c.51-1.23,1.14-2.41,1.71-3.61Z"/><path class="cls-72" d="M252.19,91.33,258,92.75a.4.4,0,0,1,.24.28c.07,1,.1,2,.15,2.91a18.89,18.89,0,0,0-2-.7c-.95-.22-1.93-.32-2.9-.5a.57.57,0,0,1-.41-.27c-.36-1-.68-2-1-3.06A.57.57,0,0,0,252.19,91.33Z"/><path class="cls-72" d="M232.22,98.28l3.7.17c.78,0,1.55.09,2.33.17.13,0,.35.13.37.25.25.94.45,1.89.66,2.79-.92-.11-1.89-.28-2.86-.34-.73,0-1.46.06-2.19.09-.13,0-.32,0-.37-.12C233.32,100.33,232.8,99.35,232.22,98.28Z"/><path class="cls-72" d="M262.22,76.19c-.27-2-.55-4.1-.86-6.32,1.13.49,2.15.94,3.17,1.41.07,0,.12.19.11.29a12.9,12.9,0,0,0,.71,5,.81.81,0,0,1,0,.15Z"/></g></g></g></svg>