<svg xmlns="http://www.w3.org/2000/svg" viewBox="0 0 939.88 808.56"><defs><style>.cls-1{fill:#4d3b2f;}.cls-2,.cls-29{fill:#ffcf01;}.cls-2,.cls-37,.cls-4{stroke:#fff;}.cls-11,.cls-12,.cls-13,.cls-18,.cls-19,.cls-2,.cls-23,.cls-25,.cls-26,.cls-27,.cls-28,.cls-29,.cls-30,.cls-31,.cls-32,.cls-33,.cls-34,.cls-36,.cls-37,.cls-4,.cls-43,.cls-45{stroke-miterlimit:10;}.cls-2,.cls-4{stroke-width:0.35px;}.cls-23,.cls-26,.cls-3,.cls-31,.cls-36,.cls-43,.cls-5{fill:#fff;}.cls-18,.cls-4{fill:#ec6a7c;}.cls-5{font-size:30.71px;font-family:Acre-Light, Acre;font-weight:300;}.cls-6{letter-spacing:0em;}.cls-7{letter-spacing:-0.02em;}.cls-8{letter-spacing:-0.02em;}.cls-9{fill:#2e61a1;}.cls-10,.cls-44{fill:#ffbf01;}.cls-11,.cls-12,.cls-13,.cls-25,.cls-28,.cls-30,.cls-32,.cls-45{fill:none;}.cls-11,.cls-12,.cls-13{stroke:#e37243;}.cls-11{stroke-width:0.87px;}.cls-12{stroke-width:0.61px;}.cls-13{stroke-width:0.3px;}.cls-14{fill:#3d9b92;}.cls-15{fill:#e37243;}.cls-16{fill:#2e6192;}.cls-17,.cls-22,.cls-35,.cls-42{fill:#dd6a7c;}.cls-18,.cls-19{stroke:#e8ba25;}.cls-18{stroke-width:0.54px;}.cls-19{font-size:27.99px;fill:#e8ba25;stroke-width:0.56px;font-family:Acre-Thin, Acre;font-weight:200;}.cls-20{letter-spacing:-0.02em;}.cls-21{letter-spacing:-0.02em;}.cls-22{font-size:31.72px;}.cls-22,.cls-35,.cls-42{font-family:Acre-Bold, Acre;font-weight:700;}.cls-23,.cls-36,.cls-43{stroke:#3daaa1;}.cls-23{stroke-width:3.02px;}.cls-24{fill:#5e5153;}.cls-25,.cls-26,.cls-27,.cls-28,.cls-29,.cls-30,.cls-31,.cls-32,.cls-33,.cls-34{stroke:#5b5052;}.cls-25{stroke-width:0.62px;stroke-dasharray:2.47;}.cls-26,.cls-30,.cls-45{stroke-linecap:round;}.cls-26,.cls-27,.cls-29{stroke-width:0.25px;}.cls-27,.cls-33,.cls-34{fill:#5b5052;}.cls-28{stroke-width:0.22px;}.cls-30{stroke-width:0.34px;}.cls-31{stroke-width:0.37px;}.cls-32{stroke-width:0.16px;}.cls-33{stroke-width:0.11px;}.cls-34{stroke-width:0.08px;}.cls-35{font-size:29.35px;}.cls-36{stroke-width:3.01px;}.cls-37{fill:#5c5052;stroke-width:0.19px;}.cls-38{fill:#ffbd01;}.cls-39{fill:#db6a7c;}.cls-40{fill:#3d9990;}.cls-41{fill:#336da4;}.cls-42{font-size:31.55px;}.cls-43{stroke-width:3px;}.cls-44{fill-rule:evenodd;}.cls-45{stroke:#336daa;stroke-width:2.07px;}.cls-46{fill:#336daa;}</style></defs><g id="Layer_2" data-name="Layer 2"><g id="organic_matter" data-name="organic matter"><path class="cls-1" d="M653.27,752.67a23.16,23.16,0,0,0-4.9-4.61c-5.77-4-13.57-5.6-20.88-4.61a40.4,40.4,0,0,0,1.24-27.18c-5.68-18.13-22.81-28.79-42.87-33.31-16.66-3.76-35.2-1.26-49.75,6.93a15.66,15.66,0,0,0-9.72-11.43A20.94,20.94,0,0,0,516,677.4c-.81.1-4.53.61-6.74,2.43-6.57-18.69-24.06-30.18-44.54-30.36-15.44-.13-45.37,5.11-56.82,35-.65,1.72-2.48,9.35-2,15.09a29.89,29.89,0,0,0-21.06.27,25,25,0,0,0-13.48,12.43,32.5,32.5,0,0,0-10.9-4.45c-14.39-3.26-30.72,1-40.79,10.64-9.3,8.91-12.88,22-9.39,33.63-14.1,1.2-20.43,16.46-21,28.78-.41,8.87,4.3,15.77,12.63,19.22,15,6.21,34.49,3.55,50.37,4,33.72.89,67.36,3.5,101.09,4.2q21.81.5,43.63.2t43.45-1.69q12.86-.82,25.67-2.09l5.35-.56c6.26-.71,12.44-2.06,18.78-2.4,17.4-1,36.09,4.84,52.51-3.31A27.59,27.59,0,0,0,657,781.51C659.63,772.45,659.32,760.33,653.27,752.67Z"/><circle class="cls-2" cx="571.33" cy="681.7" r="6.01"/><rect class="cls-3" x="568.27" y="680.87" width="6.24" height="1.53"/><circle class="cls-2" cx="412.76" cy="674.7" r="6.01"/><rect class="cls-3" x="409.7" y="673.88" width="6.24" height="1.53"/><circle class="cls-2" cx="336.8" cy="736.78" r="6.01"/><rect class="cls-3" x="333.74" y="735.95" width="6.24" height="1.53"/><circle class="cls-2" cx="362.32" cy="801.31" r="6.01"/><rect class="cls-3" x="359.25" y="800.48" width="6.24" height="1.53"/><circle class="cls-2" cx="569.11" cy="802.07" r="6.01"/><rect class="cls-3" x="566.05" y="801.25" width="6.24" height="1.53"/><circle class="cls-2" cx="635.74" cy="746.99" r="6.01"/><rect class="cls-3" x="632.68" y="746.17" width="6.24" height="1.53"/><circle class="cls-4" cx="470.71" cy="795.34" r="6.01"/><path class="cls-3" d="M473.74,796.37h-2.1v2.07h-2v-2.07h-2v-2h2v-2h2v2h2.1Z"/><circle class="cls-4" cx="485.04" cy="653.47" r="6.01"/><path class="cls-3" d="M488.07,654.49H486v2.07h-2v-2.07h-2v-1.94h2v-2h2v2h2.1Z"/><circle class="cls-4" cx="293.15" cy="771.08" r="6.01"/><path class="cls-3" d="M296.18,772.1h-2.1v2.07h-2V772.1h-2v-1.94h2v-2h2v2h2.1Z"/><circle class="cls-4" cx="648.96" cy="791.72" r="6.01"/><path class="cls-3" d="M652,792.74h-2.1v2.07h-2v-2.07h-2V790.8h2v-2h2v2H652Z"/><text class="cls-5" transform="translate(394 736.47)"><tspan class="cls-6">s</tspan><tspan x="12.44" y="0">oil o</tspan><tspan class="cls-7" x="74.66" y="0">r</tspan><tspan x="83.38" y="0">ganic </tspan><tspan class="cls-8" x="37.14" y="36.85">m</tspan><tspan x="63.52" y="36.85">at</tspan><tspan class="cls-7" x="90.98" y="36.85">t</tspan><tspan x="98.87" y="36.85">er</tspan></text><ellipse class="cls-3" cx="474.95" cy="367.84" rx="103.87" ry="20.22"/><g id="Layer_1-2" data-name="Layer 1-2"><g id="white_imagery_text" data-name="white imagery text"><path class="cls-9" d="M474.19,330.9C317,330.83,341,375.31,341,375.31l115.06,88,2.05,109.44,37.66-30,0-80.86,111.64-86.54S631.58,331,474.19,330.9Zm0,57.16S369.91,387,369.92,367.63s104.26-19.78,104.26-19.78,103.36-.42,103.35,20.15S474.16,388.06,474.16,388.06Z"/></g></g><path class="cls-10" d="M418.63,343.1a7.77,7.77,0,0,1,4.77,3.51,7.68,7.68,0,0,1,1,5.88h0a14.11,14.11,0,0,1-1.67,3.73,17.48,17.48,0,0,0-1,1.89,19.76,19.76,0,0,0-1,3.06,14.93,14.93,0,0,0-.37,2.36,20.28,20.28,0,0,0,0,2.33,14.85,14.85,0,0,1-.23,4.34,7.17,7.17,0,0,1-1.4,2.88,7.86,7.86,0,0,1-13.81-6.72,7,7,0,0,1,.24-.78,19.78,19.78,0,0,1,1.7-3.38,15.85,15.85,0,0,0,1.56-3.18c.07-.21.13-.43.18-.65a20.24,20.24,0,0,0,.39-5.18c0-.84,0-1.71,0-2.61a8.11,8.11,0,0,1,.23-1.63v-.07a8,8,0,0,1,2.06-3.68S413.45,342.18,418.63,343.1Z"/><path class="cls-11" d="M412.52,346.57l-.25.29a6.2,6.2,0,0,0-1.26,2.48h0a6.47,6.47,0,0,0-.19,1.31c0,.86,0,1.7,0,2.52a20.08,20.08,0,0,1-.65,6.41,16.72,16.72,0,0,1-1.74,3.58,18.3,18.3,0,0,0-1.55,3.06,5.91,5.91,0,0,0,.37,4.79,6,6,0,0,0,9.94.89c1.42-1.77,1.32-3.8,1.22-5.95a21.7,21.7,0,0,1,0-2.55,18.69,18.69,0,0,1,1.56-6,19.84,19.84,0,0,1,1.1-2.1,12.22,12.22,0,0,0,1.48-3.22,5.8,5.8,0,0,0-.7-4.42,5.88,5.88,0,0,0-3.66-2.7l-.28-.06A5.88,5.88,0,0,0,412.52,346.57Z"/><path class="cls-10" d="M466.31,392.39a5.47,5.47,0,0,1,1.31,3.94,5.37,5.37,0,0,1-1.83,3.76h0a10.4,10.4,0,0,1-2.47,1.46,10.63,10.63,0,0,0-1.35.68,13.27,13.27,0,0,0-1.83,1.33,10.11,10.11,0,0,0-1.17,1.2,14.3,14.3,0,0,0-.93,1.34,10.2,10.2,0,0,1-1.89,2.4,5,5,0,0,1-2,1.08,5.51,5.51,0,0,1-5.19-9.44c.14-.12.3-.24.45-.35a13.64,13.64,0,0,1,2.34-1.25,10.78,10.78,0,0,0,2.18-1.18l.37-.3a15.16,15.16,0,0,0,2.32-2.82c.34-.48.68-1,1.07-1.49a5.73,5.73,0,0,1,.79-.84l0,0a5.58,5.58,0,0,1,2.66-1.28S463.71,389.77,466.31,392.39Z"/><path class="cls-12" d="M461.4,391.91l-.26.06a4.52,4.52,0,0,0-1.73.91h0a5.15,5.15,0,0,0-.64.68c-.37.48-.7,1-1,1.43a14.12,14.12,0,0,1-3,3.42,11.9,11.9,0,0,1-2.44,1.34,13.2,13.2,0,0,0-2.13,1.13,4.1,4.1,0,0,0-1.72,2.89,4.17,4.17,0,0,0,1,3.27,4.23,4.23,0,0,0,4.35,1.27c1.53-.44,2.3-1.65,3.11-2.92a16.72,16.72,0,0,1,1-1.47,13,13,0,0,1,3.34-2.82,12.16,12.16,0,0,1,1.48-.76,8.75,8.75,0,0,0,2.15-1.25,4,4,0,0,0,1.38-2.81,4.09,4.09,0,0,0-1-3l-.14-.15A4.12,4.12,0,0,0,461.4,391.91Z"/><path class="cls-10" d="M446.07,345.52a2.71,2.71,0,0,1-.25,3.77h0a4.9,4.9,0,0,1-1.21.71,5.09,5.09,0,0,0-.66.34,5.78,5.78,0,0,0-.9.65,5.35,5.35,0,0,0-.58.59,7.55,7.55,0,0,0-.45.66,5.33,5.33,0,0,1-.92,1.17,2.5,2.5,0,0,1-1,.53,2.7,2.7,0,0,1-2.55-4.62,2,2,0,0,1,.23-.18,6.64,6.64,0,0,1,1.14-.61A5,5,0,0,0,440,348l.18-.15a7,7,0,0,0,1.14-1.38c.16-.23.33-.48.52-.73a3,3,0,0,1,.39-.41l0,0a2.74,2.74,0,0,1,1.31-.62A2.53,2.53,0,0,1,446.07,345.52Z"/><path class="cls-13" d="M443.67,345.28l-.13,0a2.19,2.19,0,0,0-.85.45h0a2.42,2.42,0,0,0-.31.33c-.18.23-.35.47-.51.7a6.73,6.73,0,0,1-1.45,1.67,5.43,5.43,0,0,1-1.2.66,6.89,6.89,0,0,0-1,.55,2.06,2.06,0,0,0,1.77,3.65,2.83,2.83,0,0,0,1.52-1.43,7.64,7.64,0,0,1,.5-.72,6.36,6.36,0,0,1,1.64-1.39,7,7,0,0,1,.72-.37,4.3,4.3,0,0,0,1.06-.61,2.05,2.05,0,0,0,.18-2.86l-.06-.08A2,2,0,0,0,443.67,345.28Z"/><path class="cls-14" d="M488.9,372.71a3.32,3.32,0,0,1,3.81,1.72,3.68,3.68,0,0,1,.46,2.57,2.68,2.68,0,0,1-1.28,1.88,2.72,2.72,0,0,1-.46.21,3.33,3.33,0,0,1-3.81-1.73,3.7,3.7,0,0,1-.46-2.56,2.73,2.73,0,0,1,1.29-1.89A2.57,2.57,0,0,1,488.9,372.71Z"/><path class="cls-14" d="M485.87,366.14a3.31,3.31,0,0,1,3.37,2.48,3.68,3.68,0,0,1-.08,2.6,2.72,2.72,0,0,1-1.66,1.58,2.56,2.56,0,0,1-.48.1,3.32,3.32,0,0,1-3.37-2.48,3.74,3.74,0,0,1,.08-2.6,2.72,2.72,0,0,1,1.66-1.58A2.56,2.56,0,0,1,485.87,366.14Z"/><path class="cls-14" d="M478.56,362.38a3.32,3.32,0,0,1,4.16-.36,3.7,3.7,0,0,1,1.66,2,2.67,2.67,0,0,1-.2,2.27,2,2,0,0,1-.29.4,3.33,3.33,0,0,1-4.17.37,3.74,3.74,0,0,1-1.66-2,2.75,2.75,0,0,1,.2-2.27A3.08,3.08,0,0,1,478.56,362.38Z"/><path class="cls-14" d="M501.57,400.66c2.43-.31,4.85,1.43,5.76,4.13a6.27,6.27,0,0,1-.08,4.42,4.6,4.6,0,0,1-2.77,2.71,4.86,4.86,0,0,1-.82.19c-2.43.31-4.85-1.43-5.77-4.14a6.33,6.33,0,0,1,.09-4.42,4.61,4.61,0,0,1,2.77-2.7A3.9,3.9,0,0,1,501.57,400.66Z"/><path class="cls-14" d="M489.09,394.45c1.61-1.84,4.58-2.14,7.05-.71a6.28,6.28,0,0,1,2.86,3.38,4.56,4.56,0,0,1-.29,3.85,4.29,4.29,0,0,1-.49.69c-1.61,1.84-4.58,2.13-7.06.71A6.37,6.37,0,0,1,488.3,399a4.62,4.62,0,0,1,.3-3.86A4,4,0,0,1,489.09,394.45Z"/><path class="cls-14" d="M478.29,388.05c1.77-1.69,4.76-1.71,7.09-.06a6.3,6.3,0,0,1,2.54,3.62,4.65,4.65,0,0,1-.64,3.82,5.52,5.52,0,0,1-.55.63c-1.78,1.69-4.76,1.71-7.1.06a6.31,6.31,0,0,1-2.54-3.61,4.61,4.61,0,0,1,.65-3.82A3.72,3.72,0,0,1,478.29,388.05Z"/><path class="cls-14" d="M472.63,376.62c2.28-.89,5.05.22,6.59,2.63a6.28,6.28,0,0,1,1,4.31,4.58,4.58,0,0,1-2,3.29,4.4,4.4,0,0,1-.75.38c-2.28.89-5.05-.21-6.59-2.62a6.31,6.31,0,0,1-1-4.32,4.58,4.58,0,0,1,2-3.28A4.45,4.45,0,0,1,472.63,376.62Z"/><path class="cls-15" d="M552.7,382.22a25.31,25.31,0,0,0-6.25-13.73c-12.12-13.87-26.1-1.59-26.1-1.59s-13,10.78-3,23.2,19.86,5.89,22.06,4.47c0,0,10.25-7,2.62-19.34,0,0-7.91-10.87-17.89-3.43,0,0-8.48,6.5-2,14.17,0,0,2.54,3.36,6.09,2.7,0,0,2.1-.59,0-1.64,0,0-6.37-2.09-3.74-8.66,0,0,3.58-7.73,11-2.13,0,0,7.38,5.58,2,12.38a9.33,9.33,0,0,1-12.29,1.85c-9.42-5.41-4.82-14.89-4.82-14.89s2.76-8.47,13.93-7.41c0,0,11.71,1.24,13.47,14.85,0,0,1.46,6.5.7,11.41,0,0-.24,5.33,1.34,3.84a29.57,29.57,0,0,0,3-11.89Z"/><path class="cls-16" d="M460.52,365.42c-1.2-2.33-4.82-1.6-4.82-1.6s-4.15,1.63-3.95-4.09c.17-4.8-3.16-4.15-3.16-4.15a2.51,2.51,0,0,0-2.66,2.17c-1.3,4.92-4.94,3-4.94,3-3.61-1.71-5.53.59-5.53.59-3.06,4.34,2.27,8.09,2.27,8.09,3,2.57.2,3.75.2,3.75s-2.87,1.38-1,5.73,5.72,0,5.72,0c4.94-3.75,9.18.69,9.18.69s4.63,5.31,7.11,3.36c3.25-2.56-1.09-7.3-1.09-7.3-2.76-2.47-.59-3.85-.59-3.85a18.42,18.42,0,0,0,2.25-2.46C461.07,367.06,460.52,365.42,460.52,365.42Zm-10.87,6.27c-1.57.88-3.41.59-4.1-.65s0-3,1.58-3.83,3.41-.59,4.1.65S451.22,370.81,449.65,371.69Z"/><path class="cls-16" d="M507.1,364.62c1.07.23,1.8-1.14,1.8-1.14s.58-1.77,2.38-.18c1.51,1.33,2.19.09,2.19.09a1.06,1.06,0,0,0,0-1.45c-1.25-1.73.36-2.39.36-2.39a1.87,1.87,0,0,0,1.28-1.94c-.59-2.16-3.23-1.43-3.23-1.43-1.62.27-1.26-.94-1.26-.94s.31-1.3-1.59-1.85-1.53,1.85-1.53,1.85a2.9,2.9,0,0,1-2.68,2.79s-2.95.08-3,1.41c0,1.73,2.66,1.59,2.66,1.59,1.54-.23,1.4.84,1.4.84a7.89,7.89,0,0,0,.2,1.38A2,2,0,0,0,507.1,364.62Zm.87-5.2a1.11,1.11,0,1,1,.82,1.54A1.24,1.24,0,0,1,508,359.42Z"/><path class="cls-17" d="M497.31,354.21A34.2,34.2,0,0,1,504,346a3.72,3.72,0,0,0-3-6.66,3.75,3.75,0,0,0-1.77,1c-9.91,9-10.75,14.17-10.75,14.17a3.9,3.9,0,0,0,6.93,3.32"/><path class="cls-17" d="M421.69,386l-.47-.34a3.48,3.48,0,0,1-1.35-1.44,3.38,3.38,0,0,1,5-4.24A41,41,0,0,1,435.67,391v0a2.57,2.57,0,0,1,.18.33,3.39,3.39,0,0,1-6.07,3s-1.27-2.77-5.52-6.42"/><path class="cls-17" d="M472.1,342.85c.1-.17.19-.33.28-.51a3.42,3.42,0,0,1,1.26-1.52,3.38,3.38,0,0,1,4.84,4.44,41,41,0,0,1-9.66,12.11v0l-.3.23a3.39,3.39,0,1,1-3.75-5.64s2.59-1.62,5.66-6.29"/><rect class="cls-18" x="345.17" y="479.03" width="276.54" height="43.1"/><text class="cls-19" transform="translate(393.38 510.54) rotate(0.02)">mic<tspan class="cls-20" x="45.96" y="0">r</tspan><tspan x="53.52" y="0">obial fil</tspan><tspan class="cls-21" x="146.16" y="0">t</tspan><tspan x="152.88" y="0">er</tspan></text><text class="cls-22" transform="translate(785.65 79.32) rotate(-3.17)">a</text><text class="cls-22" transform="matrix(0.99, 0.12, -0.12, 0.99, 804.21, 78.26)">n</text><text class="cls-22" transform="matrix(0.97, 0.25, -0.25, 0.97, 821.61, 80.65)">i</text><text class="cls-22" transform="translate(830.38 82.02) rotate(24.84)">m</text><text class="cls-22" transform="matrix(0.79, 0.61, -0.61, 0.79, 854.71, 93.67)">a</text><text class="cls-22" transform="matrix(0.71, 0.71, -0.71, 0.71, 869.41, 105.39)">l</text><text class="cls-22" transform="translate(875.12 111.05) rotate(50.18)"> </text><text class="cls-22" transform="matrix(0.56, 0.83, -0.83, 0.56, 881.36, 118.44)">r</text><text class="cls-22" transform="translate(887.3 126.75) rotate(63.63)">e</text><text class="cls-22" transform="matrix(0.31, 0.95, -0.95, 0.31, 894.54, 141.41)">s</text><text class="cls-22" transform="translate(898.67 154.43) rotate(78.4)">i</text><text class="cls-22" transform="translate(900.85 163.15) rotate(86.16)">d</text><text class="cls-22" transform="translate(902.13 181.7) rotate(96.39)">u</text><text class="cls-22" transform="translate(900.24 198.98) rotate(106.13)">e</text><text class="cls-22" transform="matrix(-0.41, 0.91, -0.91, -0.41, 895.66, 214.7)">s</text><path class="cls-23" d="M880.26,183.29a80.67,80.67,0,1,1-74.7-86.22A80.67,80.67,0,0,1,880.26,183.29Z"/><path class="cls-24" d="M798,155.31c1.63,2,3.19,5.19,1.19,6.88a5.06,5.06,0,0,1-2.86.9c-6.69.57-14.58-.38-19,4.54-3.28,3.65-3.07,9.17-1.73,13.85-3.82-.42-8.55,2.88-10.8,5.9A10.56,10.56,0,0,0,763.77,198c-9.72-1.23-20.53,6.5-21.2,16a12.27,12.27,0,0,0,2.58,8.84c2.27,2.64,5.79,3.89,9.16,4.92a185,185,0,0,0,70.45,7.32c5.21-.47,10.62-1.23,14.94-4.09a16.79,16.79,0,0,0,5.85-20.64c-3.37-7-12.33-11.06-20-9,4.77-2.57,6.44-10.38,4.33-15.27a11.74,11.74,0,0,0-13.52-6.28c4.72-6,2.22-17.15-4.61-20.78C807.19,156.62,802.3,158.11,798,155.31Z"/><path class="cls-25" d="M836.59,182.06a6.35,6.35,0,0,0,3.53-.87,7.13,7.13,0,0,0,3.31-3,7.41,7.41,0,0,0,.68-4.63,5.59,5.59,0,0,0-.43-1.33,15.37,15.37,0,0,0-2.87-3.63,7.46,7.46,0,0,1-2.22-4,4.93,4.93,0,0,1,2.27-4.54,6.79,6.79,0,0,1,5.14-.81c2.11.46,4.08,1.76,6.24,1.64a5.76,5.76,0,0,0,2.9-1,7.56,7.56,0,0,0,3.13-5.68,9.24,9.24,0,0,0-2-6.25"/><path class="cls-26" d="M850.06,144.23l.59.35a7,7,0,0,0,2,.84,1.43,1.43,0,0,0,1.13-.15,1.46,1.46,0,0,0,.52-1.45,8.53,8.53,0,0,0-1.12-2.81,4.28,4.28,0,0,0-.94-1.21,2.46,2.46,0,0,0-2.91-.15,4.69,4.69,0,0,0-.91.87,1.73,1.73,0,0,0-.52,1.38,2.65,2.65,0,0,0,.84,1.38A7.83,7.83,0,0,0,850.06,144.23Z"/><path class="cls-27" d="M846.25,139.66c-.31.2-.28.68-.26,1,.07.89.21,1.78.36,2.66a15.78,15.78,0,0,0,1,3.64,3,3,0,0,0,.76,1.14,1.11,1.11,0,0,0,.54.27,1.22,1.22,0,0,0,1-.45,3.08,3.08,0,0,0,.76-1.53,6.58,6.58,0,0,0,.1-1.72,6.38,6.38,0,0,0-.54-2.55,5.8,5.8,0,0,0-1.56-1.82,3.61,3.61,0,0,0-1-.62A1.44,1.44,0,0,0,846.25,139.66Z"/><path class="cls-27" d="M849.18,137.05c.23-.29.7-.2,1-.14.88.18,1.75.41,2.6.67a15.37,15.37,0,0,1,3.5,1.38,3.14,3.14,0,0,1,1.05.89,1.16,1.16,0,0,1,.21.56,1.25,1.25,0,0,1-.57,1,3.08,3.08,0,0,1-1.61.58,7.11,7.11,0,0,1-1.72-.1,6.31,6.31,0,0,1-2.47-.84,5.84,5.84,0,0,1-1.63-1.76,3.56,3.56,0,0,1-.5-1A1.44,1.44,0,0,1,849.18,137.05Z"/><path class="cls-28" d="M841.94,137l1.4-.08a.19.19,0,0,1,.18.11l.8,1.74a.17.17,0,0,0,.18.11l1.41-.09"/><path class="cls-28" d="M844.24,145l1-2.1a.23.23,0,0,0,0-.18l-.3-1.29a.34.34,0,0,1,0-.2l1.06-1.78"/><path class="cls-28" d="M854.78,135.68l-2.21.81a.28.28,0,0,1-.18,0l-1.25-.45a.28.28,0,0,0-.2,0l-1.89.84"/><path class="cls-28" d="M847.09,132.45l-.24,1.37a.2.2,0,0,0,.1.21l1.73,1.05-.27,1.52"/><path class="cls-29" d="M846.1,139.42a1.9,1.9,0,0,1-.17-1.26,2.31,2.31,0,0,1,1.45-1.53,2,2,0,0,1,1.53.14,3.17,3.17,0,0,1,1.26,1.53,4.34,4.34,0,0,1,.41,1.37c.09.75-.08,1.64-1,1.65a3.56,3.56,0,0,1-1.24-.25,4.4,4.4,0,0,1-1.85-1.09A2,2,0,0,1,846.1,139.42Z"/><line class="cls-30" x1="844.93" y1="135.16" x2="845.25" y2="135.55"/><path class="cls-31" d="M847.12,136.61l-1,.92a1,1,0,0,1-.45.24.6.6,0,0,1-.44,0,1.6,1.6,0,0,1-.07-2.26c.69-.66,2.08-.4,2.31.19a.65.65,0,0,1,0,.54A1.19,1.19,0,0,1,847.12,136.61Z"/><path class="cls-32" d="M846,135.2a2.35,2.35,0,0,0,.05.65.9.9,0,0,0,1,.66"/><path class="cls-32" d="M844.81,136.32a2.27,2.27,0,0,1,.63.12.89.89,0,0,1,.55,1.05"/><path class="cls-33" d="M801.46,114.16c-.43,0-1,.48-1.27.73a7.88,7.88,0,0,0-1.84,2.14,12.4,12.4,0,0,0-1.63,6.33,15.47,15.47,0,0,0,1.43,6.49,40.61,40.61,0,0,1,2.05,4.57,20.54,20.54,0,0,1,1.41,7.5c-.18,5-2.94,8.92-2.37,8.69a9.07,9.07,0,0,0,2.61-2.54,12.88,12.88,0,0,0,2.12-3.74,13.51,13.51,0,0,0,.64-4.83,18.7,18.7,0,0,0-.6-5.2c-.18-.65-.53-1.53-1.23-3.3-1-2.67-1.31-3.06-2-4.91a18.34,18.34,0,0,1-1.1-3.68,11.56,11.56,0,0,1,.1-4.08C800.36,115.71,801.68,114.16,801.46,114.16Z"/><path class="cls-34" d="M810.92,117.92a4.89,4.89,0,0,0-2.41,2.3,7.8,7.8,0,0,0-1,3.17,12.26,12.26,0,0,0,.29,4.31c.68,2.44,1.37,2.71,2.24,5.34a15.48,15.48,0,0,1,1,5.6c-.14,3.7-2.2,6.67-1.77,6.49a6.73,6.73,0,0,0,2-1.9,9.66,9.66,0,0,0,1.58-2.79,10.14,10.14,0,0,0,.48-3.6,14.1,14.1,0,0,0-.45-3.88,25.37,25.37,0,0,0-.92-2.47c-.79-2-1-2.29-1.48-3.67a13.43,13.43,0,0,1-.82-2.74,8.52,8.52,0,0,1,.07-3A16.68,16.68,0,0,1,810.92,117.92Z"/><path class="cls-34" d="M792.18,117.58a4.81,4.81,0,0,0-2.42,2.29,8.21,8.21,0,0,0-1,3.18,12.26,12.26,0,0,0,.29,4.31c.68,2.44,1.37,2.71,2.24,5.34a15.48,15.48,0,0,1,1,5.6c-.14,3.7-2.2,6.66-1.77,6.49a6.73,6.73,0,0,0,2-1.9,9.43,9.43,0,0,0,1.58-2.79,10.14,10.14,0,0,0,.48-3.6,14.12,14.12,0,0,0-.45-3.89c-.13-.48-.39-1.14-.91-2.46-.79-2-1-2.29-1.49-3.67a13.49,13.49,0,0,1-.82-2.75,8.7,8.7,0,0,1,.07-3A15.13,15.13,0,0,1,792.18,117.58Z"/><text class="cls-35" transform="translate(411.4 92.62) rotate(-30.52)">p</text><text class="cls-35" transform="translate(426.55 84) rotate(-23.48)">l</text><text class="cls-35" transform="translate(433.09 80.78) rotate(-16.41)">a</text><text class="cls-35" transform="matrix(0.99, -0.12, 0.12, 0.99, 449.63, 75.89)">n</text><text class="cls-35" transform="matrix(1, 0.01, -0.01, 1, 465.81, 74.11)">t</text><text class="cls-35" transform="matrix(1, 0.1, -0.1, 1, 475.48, 74.18)"> </text><text class="cls-35" transform="matrix(0.98, 0.19, -0.19, 0.98, 484.43, 75.03)">r</text><text class="cls-35" transform="translate(493.79 76.58) rotate(18.38)">o</text><text class="cls-35" transform="matrix(0.88, 0.47, -0.47, 0.88, 509.47, 81.72)">o</text><text class="cls-35" transform="translate(523.76 89.42) rotate(35)">t</text><text class="cls-35" transform="matrix(0.75, 0.66, -0.66, 0.75, 531.53, 94.71)">s</text><path class="cls-36" d="M549.48,172.93A80.48,80.48,0,1,1,469,92.42,80.48,80.48,0,0,1,549.48,172.93Z"/><path class="cls-37" d="M534.89,223.94a8.49,8.49,0,0,1-1.75-1.74,19.23,19.23,0,0,1-2.44-4.3,40.43,40.43,0,0,1-1.65-4.67l-.65-2.4c-.2-.8-.35-1.62-.53-2.43-.38-1.61-.61-3.25-.89-4.88s-.43-3.29-.66-4.93-.48-3.31-.71-5l-.19-1.24c-.07-.41-.18-.81-.27-1.22l-.58-2.45-.29-1.23-.38-1.19-.78-2.4a23.67,23.67,0,0,0-.89-2.35l-1-2.33c-.72-1.52-1.47-3-2.28-4.5s-1.69-2.92-2.69-4.28c-.49-.68-.94-1.4-1.47-2.06l-1.57-2c-1.09-1.28-2.19-2.57-3.4-3.75-.59-.6-1.2-1.2-1.83-1.76s-1.25-1.14-1.91-1.67a37,37,0,0,0-4.15-3.05h0l-.07,0c-2.87-1.36-5.74-2.78-8.58-4.24-1.42-.72-2.81-1.49-4.22-2.23s-2.77-1.57-4.11-2.36L483,146.07c-.32-.21-.64-.38-1-.62l-.95-.74-.94-.74-.12-.09-.05,0-.15-.17-.32-.35a7.17,7.17,0,0,1-1-1.69,12.6,12.6,0,0,1-.87-4.17,19.46,19.46,0,0,1,0-2.29,8,8,0,0,0,1.1,1.15,9.85,9.85,0,0,0,4.65,2,16.47,16.47,0,0,0,2.4.22l2.25,0a18.48,18.48,0,0,1,2.13.06c.68,0,1.4.17,2.1.25s1.4.24,2.09.45,1.37.38,2.05.61,1.35.49,2,.78,1.3.61,1.94.94,1.26.7,1.87,1.09A19,19,0,0,1,504,144l.08.06h0c1.6.89,3.21,1.69,4.85,2.45s3.3,1.45,5,2.06c.42.16.85.3,1.28.44s.85.29,1.28.42c.86.27,1.74.5,2.61.71.44.11.88.18,1.32.27a10.24,10.24,0,0,0,1.33.22c.45,0,.89.15,1.34.16l1.35.07-1.34-.15c-.44,0-.88-.16-1.32-.23s-.87-.18-1.31-.3-.86-.21-1.29-.35c-.85-.26-1.7-.53-2.53-.85-.42-.15-.84-.32-1.25-.49s-.83-.32-1.23-.51c-1.64-.7-3.24-1.5-4.82-2.33s-3.1-1.71-4.57-2.65a20.5,20.5,0,0,0-1.74-1.4c-.62-.45-1.25-.86-1.9-1.26s-1.31-.77-2-1.11-1.37-.66-2.08-.95-1.42-.56-2.15-.79-1.48-.4-2.22-.61-1.5-.33-2.29-.41-1.58-.19-2.3-.2l-2.19-.09a14.31,14.31,0,0,1-2-.28,7.18,7.18,0,0,1-3.33-1.62,5.76,5.76,0,0,1-1.69-3.08,8.24,8.24,0,0,1-.19-1.87c0-.12,0-.25,0-.37s.08-.41.11-.61l.37-2.45c.11-.82.17-1.63.26-2.45s.17-1.63.21-2.45l.1-2.45.09-2.45,0-2.45c-.06-1.63,0-3.26-.18-4.9l-.43-4.92c-.11-1.67-.43-3.21-.66-4.8l-.74-4.75-4.2.71.88,4.73c.27,1.57.65,3.17.77,4.7l.37,3.22c-.7.26-1.6.6-2.67,1.09a40.21,40.21,0,0,0-4.66,2.46c-.85.55-1.78,1.11-2.68,1.82a31.22,31.22,0,0,0-2.79,2.29,29,29,0,0,0-5.18,6.24,29.78,29.78,0,0,0-2.06,3.93c-.27.71-.5,1.44-.75,2.17l-.37,1.11-.23,1.14c-.16.77-.31,1.55-.47,2.33s-.25,1.49-.37,2.25l-.2,1.15-.26,1.1a18.75,18.75,0,0,1-.58,2.2,15.68,15.68,0,0,1-.77,2.15l-.47,1a8.37,8.37,0,0,1-.57,1,9.92,9.92,0,0,1-1.35,1.73,8.23,8.23,0,0,1-1.78,1.21,10.51,10.51,0,0,1-4.36.91c-1.55,0-3.13-.09-4.7-.22s-3.11-.26-4.77-.33l-1.16,0a4.82,4.82,0,0,0-1.17.13l-1.21.26a6.75,6.75,0,0,0-1.12.4c-2.95,1.2-5.09,3.37-7,5.32s-3.7,3.9-5.46,5.53a46.14,46.14,0,0,1-5.08,4.14c-.81.54-1.6,1-2.32,1.46s-1.43.76-2.05,1.1a28.29,28.29,0,0,1-3,1.33l-1.07.44,1.08-.41a28.88,28.88,0,0,0,3-1.24c.63-.32,1.36-.62,2.1-1s1.53-.87,2.37-1.4a44.57,44.57,0,0,0,5.25-4c1.83-1.58,3.68-3.45,5.65-5.37s4.15-3.91,6.87-4.91a6.38,6.38,0,0,1,1-.33l1-.2a4,4,0,0,1,1.11-.08h1.16c1.44.11,3.06.29,4.61.47a47.45,47.45,0,0,0,4.84.37,11.81,11.81,0,0,0,5-.91,9.17,9.17,0,0,0,2.23-1.42,11.23,11.23,0,0,0,1.68-2,11.53,11.53,0,0,0,.69-1.08l.56-1.14a18,18,0,0,0,.91-2.3,22.51,22.51,0,0,0,.7-2.35l.31-1.17.23-1.15.45-2.3c.17-.72.34-1.43.5-2.13l.25-1.05.38-1c.25-.67.47-1.33.74-2a27.23,27.23,0,0,1,6.9-9.08,29.06,29.06,0,0,1,2.63-2c.85-.63,1.73-1.11,2.53-1.61a39.94,39.94,0,0,1,4.38-2.14c.67-.28,1.27-.5,1.79-.68.05,1,.08,1.94.14,2.91l.12,2.35,0,2.36,0,2.35c0,.79-.09,1.56-.14,2.34s-.09,1.57-.18,2.34l-.29,2.32c-.09.77-.25,1.52-.38,2.27l-.13.59-.12.65c-.07.42-.13.84-.18,1.27s-.1,1-.13,1.47c-1.81,7.21-3.43,14.42-4.93,21.67-.09.46-.18.91-.28,1.37-.53.19-1,.39-1.55.6-.68.3-1.35.61-2,1a34.76,34.76,0,0,0-3.75,2.29c-.6.43-1.19.86-1.75,1.32s-1.13.92-1.67,1.42-1.05,1-1.57,1.52-1,1.1-1.45,1.57-.95,1.07-1.42,1.52-.94.93-1.46,1.36a27.35,27.35,0,0,1-3.23,2.44,26.66,26.66,0,0,1-3.55,2c-.61.29-1.24.55-1.87.79a19.09,19.09,0,0,1-1.88.58l-.18,0-.09.05c-1.75,1-3.42,2.13-5.07,3.27s-3.25,2.34-4.82,3.59a58.85,58.85,0,0,0-4.51,4,33.16,33.16,0,0,0-3.94,4.58,18.76,18.76,0,0,0-1.54,2.64c-.42.94-.74,1.86-1.21,2.69a12.74,12.74,0,0,1-4,4.21,19.94,19.94,0,0,1-5.32,2.5,25.64,25.64,0,0,1-5.83,1.09,25.64,25.64,0,0,0,5.89-.87,20,20,0,0,0,5.52-2.34,13.29,13.29,0,0,0,4.3-4.24c.55-.88.92-1.84,1.34-2.68a17.83,17.83,0,0,1,1.56-2.45,31.75,31.75,0,0,1,4-4.29,56.16,56.16,0,0,1,4.56-3.73c1.58-1.18,3.21-2.29,4.87-3.35s3.3-2,5-2.94c.7-.15,1.33-.33,2-.53s1.37-.48,2-.77a30.94,30.94,0,0,0,7.47-4.45c.58-.44,1.13-1,1.68-1.45s1-1,1.51-1.49,1-1,1.46-1.47,1-.92,1.51-1.34,1.05-.85,1.59-1.25,1.1-.77,1.66-1.15a32.58,32.58,0,0,1,3.51-1.95c.48-.23,1-.43,1.48-.63q-.58,3-1.13,5.93c-.66,3.65-1.3,7.31-1.85,11-.28,1.84-.57,3.68-.8,5.52s-.49,3.69-.69,5.53l-.64,5.51c-.19,1.77-.48,3.52-.73,5.28v.14s-.09.24-.12.35,0,.18-.06.36a7.27,7.27,0,0,0-.16,1.25c0,.47-.26,1-.35,1.61s-.24,1.27-.38,1.91c-.18.9-.4,1.79-.63,2.68s-.46,1.78-.73,2.65a38.76,38.76,0,0,1-1.88,5.16,19.7,19.7,0,0,1-1.26,2.41,7.81,7.81,0,0,1-1.62,2c-1.85.79-3.65,1.66-5.42,2.58s-3.53,1.95-5.23,3.05a39.54,39.54,0,0,0-4.82,3.64,17.6,17.6,0,0,0-3.85,4.62,17.9,17.9,0,0,1,4-4.49,39,39,0,0,1,4.9-3.46,71.6,71.6,0,0,1,10.77-5.28l0,0h0a8.44,8.44,0,0,0,1.93-2.2c.14-.21.26-.43.39-.64.16.19.35.41.56.71a13.54,13.54,0,0,1,2.08,4,12.54,12.54,0,0,1,.58,3,11.39,11.39,0,0,1,0,1.65c0,.29,0,.57-.08.86l-.18.86a12.18,12.18,0,0,1-.51,1.73c-.2.62-.41,1.25-.62,1.88s-.3,1.35-.45,2l-.28,2a71.66,71.66,0,0,0,.41,14.74c.47,4,1,6.6,1,6.6s-.38-2.64-.66-6.63a71.15,71.15,0,0,1,.31-14.57l.37-1.93c.17-.61.31-1.22.5-1.82s.46-1.21.69-1.8a13.24,13.24,0,0,0,.66-1.89c.08-.32.17-.64.25-1s.09-.64.14-1a13.21,13.21,0,0,0,.11-1.87,13.8,13.8,0,0,0-.49-3.4,15.48,15.48,0,0,0-2.13-4.66c-.34-.52-.65-.91-.86-1.18l-.3-.34a43,43,0,0,0,2-5.06c.3-.89.58-1.78.82-2.68.15-.53.3-1.06.44-1.59.07.23.13.45.21.68a11,11,0,0,0,1.88,3.32,5.51,5.51,0,0,0,.68.77c.25.23.51.48.76.73l.88.65.45.32.45.26.91.5,1,.5,1.86,1c.64.33,1.22.74,1.84,1.11a21.54,21.54,0,0,1,1.8,1.19l1.74,1.29,1.63,1.4c.55.44,1,1,1.53,1.46l.74.73.67.77a36.46,36.46,0,0,1,2.45,3.06c.35.52.69,1,1,1.51l.87,1.47c.53.95,1,1.84,1.35,2.66s.65,1.53.86,2.13a17.79,17.79,0,0,1,.59,1.92,19.71,19.71,0,0,0-.5-2c-.19-.61-.44-1.35-.77-2.18s-.75-1.75-1.23-2.74l-.82-1.52c-.3-.51-.62-1-.95-1.57a37.8,37.8,0,0,0-2.34-3.22l-.66-.82-.72-.78c-.49-.52-.94-1.08-1.49-1.57l-1.6-1.5-1.73-1.4a21.06,21.06,0,0,0-1.79-1.31c-.61-.41-1.2-.86-1.83-1.23L470.47,213c-.29-.17-.67-.38-.88-.52l-.89-.54-.43-.27-.36-.29c-.23-.2-.47-.38-.7-.57s-.41-.45-.62-.66a3.9,3.9,0,0,1-.55-.68,9.41,9.41,0,0,1-1.47-2.89,12.54,12.54,0,0,1-.54-4.82c.06-.59,0-1.11.11-1.41,0-.14,0-.43,0-.51h0c.31-1.81.67-3.62.93-5.45l.79-5.5c.25-1.84.53-3.66.83-5.48s.62-3.64.94-5.45c.65-3.64,1.38-7.26,2.13-10.87.11-.53.23-1.05.34-1.58a30.76,30.76,0,0,0,1.89,4.81,26.62,26.62,0,0,0,1.74,3,25.2,25.2,0,0,0,2.21,2.87,23.36,23.36,0,0,0,2.6,2.48,17.16,17.16,0,0,0,1.41,1.05,14,14,0,0,0,1.44.92,15.86,15.86,0,0,0,1.46.78,12,12,0,0,0,1.43.64,26.71,26.71,0,0,0,2.7.95c.87.2,1.64.45,2.35.55s1.32.25,1.83.29l1.6.17-1.58-.31c-.5-.08-1.09-.27-1.78-.44s-1.44-.46-2.26-.73a26.38,26.38,0,0,1-2.55-1.15,11.7,11.7,0,0,1-1.33-.74,11.9,11.9,0,0,1-1.32-.86,13.39,13.39,0,0,1-1.29-1,16.12,16.12,0,0,1-1.25-1.1,21.47,21.47,0,0,1-2.23-2.53,26.74,26.74,0,0,1-4.74-11.31,29.67,29.67,0,0,1-.46-4c0-.48,0-.86,0-1.11s0-.36,0-.36h-.29c.17-.71.33-1.43.49-2.14q1.21-5.16,2.51-10.29c.06.52.14,1.05.24,1.62a34.93,34.93,0,0,0,1.21,4.94,43.53,43.53,0,0,0,2.22,5.54,52.31,52.31,0,0,0,3.23,5.76,71.87,71.87,0,0,0,8.88,11.11,69.76,69.76,0,0,0,5.27,4.93l2.75,2.18c.9.71,1.73,1.48,2.58,2.2,1.66,1.48,3.21,3,4.6,4.47a55.31,55.31,0,0,1,3.71,4.4,41.8,41.8,0,0,1,2.7,4,30.62,30.62,0,0,1,1.71,3.35,15.42,15.42,0,0,1,1,3.1,15.31,15.31,0,0,0-.9-3.16,31.82,31.82,0,0,0-1.57-3.45,44.63,44.63,0,0,0-2.53-4.21c-1-1.48-2.21-3.05-3.55-4.62s-2.84-3.17-4.45-4.75c-.83-.76-1.64-1.59-2.52-2.34l-2.64-2.3c-1.71-1.55-3.37-3.26-4.95-5a69.94,69.94,0,0,1-8.22-11.13,49,49,0,0,1-2.87-5.62,41.24,41.24,0,0,1-1.88-5.28,32.45,32.45,0,0,1-.94-4.6c-.08-.58-.14-1.13-.17-1.64l.2.2.25.26.11.09,0,0,.06,0,.12.09,1,.71a44.39,44.39,0,0,0,4.2,2.68c1.43.8,2.85,1.55,4.29,2.3s2.88,1.46,4.33,2.15c2.89,1.39,5.78,2.72,8.72,4a34,34,0,0,1,3.91,2.73c.65.49,1.27,1,1.88,1.56s1.23,1.08,1.81,1.65c1.2,1.1,2.3,2.32,3.39,3.53l1.58,1.88c.53.63,1,1.31,1.48,2,1,1.29,1.83,2.72,2.72,4.09s1.6,2.86,2.35,4.32l1,2.25a21.44,21.44,0,0,1,.94,2.28l.82,2.32.41,1.17.31,1.19.64,2.39c.1.4.22.79.3,1.2l.22,1.21c.27,1.64.6,3.23.84,4.9s.46,3.28.8,4.92.6,3.29,1,4.9c.2.81.38,1.62.6,2.43l.72,2.39a42.42,42.42,0,0,0,1.79,4.67,19.17,19.17,0,0,0,2.59,4.27,8.21,8.21,0,0,0,1.81,1.72,3.93,3.93,0,0,0,2.32.81A3.9,3.9,0,0,1,534.89,223.94Z"/><circle class="cls-38" cx="441.99" cy="168.17" r="2.33"/><circle class="cls-39" cx="411.43" cy="151.5" r="2.33"/><circle class="cls-39" cx="434.86" cy="191.47" r="2.33"/><circle class="cls-40" cx="411.42" cy="196.48" r="2.33"/><circle class="cls-38" cx="421.21" cy="165.85" r="2.33"/><circle class="cls-38" cx="480.18" cy="233.71" r="2.33"/><circle class="cls-39" cx="432.64" cy="212.02" r="2.33"/><circle class="cls-40" cx="492.55" cy="223.51" r="2.33"/><circle class="cls-40" cx="520.55" cy="158.51" r="2.33"/><circle class="cls-41" cx="483.71" cy="173.99" r="2.33"/><circle class="cls-38" cx="455.59" cy="185.42" r="2.33"/><circle class="cls-39" cx="496.23" cy="237.08" r="2.33"/><circle class="cls-38" cx="508.14" cy="173.32" r="2.33"/><circle class="cls-39" cx="518.88" cy="194.41" r="2.33"/><circle class="cls-9" cx="446.88" cy="234.41" r="2.33"/><circle class="cls-39" cx="478.45" cy="186.76" r="2.33"/><text class="cls-42" transform="matrix(0.11, -0.99, 0.99, 0.12, 26.35, 177.46)">p</text><text class="cls-42" transform="matrix(0.24, -0.96, 0.97, 0.24, 28.8, 159.03)">l</text><text class="cls-42" transform="matrix(0.37, -0.92, 0.93, 0.37, 30.29, 151.43)">a</text><text class="cls-42" transform="matrix(0.52, -0.84, 0.85, 0.53, 37.03, 134.35)">n</text><text class="cls-42" transform="matrix(0.63, -0.77, 0.77, 0.64, 46.32, 119.73)">t</text><text class="cls-42" transform="matrix(0.7, -0.7, 0.71, 0.71, 52.85, 111.8)"> </text><text class="cls-42" transform="matrix(0.77, -0.63, 0.63, 0.78, 59.61, 105.02)">r</text><text class="cls-42" transform="matrix(0.85, -0.52, 0.52, 0.85, 67.25, 98.47)">e</text><text class="cls-42" transform="matrix(0.91, -0.39, 0.39, 0.92, 81.04, 90.05)">s</text><text class="cls-42" transform="matrix(0.95, -0.28, 0.29, 0.96, 93.46, 84.86)">i</text><text class="cls-42" transform="matrix(0.98, -0.15, 0.15, 0.99, 101.83, 81.96)">d</text><text class="cls-42" transform="matrix(0.99, 0.03, -0.02, 1, 119.96, 79.18)">u</text><text class="cls-42" transform="matrix(0.97, 0.19, -0.19, 0.98, 137.17, 79.57)">e</text><text class="cls-42" transform="matrix(0.94, 0.33, -0.33, 0.94, 153.03, 82.74)">s</text><path class="cls-43" d="M204.57,170.37c4.24,44.14-27.87,83.33-71.72,87.54S50,229.75,45.79,185.61s27.87-83.33,71.72-87.54S200.33,126.23,204.57,170.37Z"/><path class="cls-44" d="M168.84,214.1l-2.9,1.52a3.64,3.64,0,0,1-1.2.56c-.32,0-.5-.39-.75-.61a113.64,113.64,0,0,1-8.41-8.45c-1.67-1.82-3.26-3.71-4.86-5.6-1.35-1.6-2.69-3.21-4-4.85s-2.59-3.33-3.87-5c-1.13-1.48-2.26-3-3.36-4.47s-2.21-3-3.3-4.56-2-2.84-3-4.27-1.87-2.71-2.8-4.07l-2.85-4.22c-.92-1.38-1.84-2.75-2.75-4.14-1-1.56-2-3.13-3.06-4.69l-.62-1,2.57-1.5,1.17,1.75,2.75,4.15c.92,1.39,1.85,2.77,2.78,4.16l2.88,4.27c.92,1.36,1.84,2.71,2.78,4.05s1.82,2.59,2.74,3.87,1.75,2.46,2.64,3.68,2.05,2.71,3.08,4.07c.89,1.16,1.79,2.32,2.7,3.46.73.93,1.48,1.86,2.25,2.76q1.93,2.28,3.9,4.52c.87,1,1.74,2,2.66,2.92,2.12,2.12,4.23,4.26,6.42,6.29,1.7,1.58,3.53,3,5.31,4.52C168.05,213.53,168.42,213.79,168.84,214.1Z"/><path class="cls-44" d="M117.45,173.7l1.67-2.51,1.48,1.28c3,2.71,6.05,5.38,9,8.15,3.87,3.63,7.66,7.33,11.48,11,.87.84,1.75,1.66,2.56,2.56s1.57,1.88,2.35,2.83,1.5,1.88,2.27,2.81q1.63,2,3.28,3.93c.91,1.07,1.85,2.1,2.77,3.15,2.53,2.87,5.25,5.54,7.95,8.24a18.8,18.8,0,0,1,1.9,2.49c.83,1.16,1.65,2.33,2.46,3.5.3.44.58.88.86,1.33a.37.37,0,0,1,0,.31c-.76,1.28-1.53,2.55-2.34,3.89-.26-.46-.5-.88-.75-1.29-1.06-1.75-2.11-3.52-3.21-5.24-1-1.5-2-3-3-4.41s-2.07-2.78-3.14-4.13c-1.3-1.64-2.61-3.26-4-4.85s-2.52-2.87-3.8-4.29c-3.74-4.16-7.67-8.14-11.71-12-3.47-3.31-7-6.54-10.52-9.8-2.44-2.25-4.91-4.48-7.37-6.72Z"/><path class="cls-44" d="M104.69,176.69c.33-.65.63-1.22,1-1.85.34.23.68.44,1,.65a7.84,7.84,0,0,0,2.8,1.21,5,5,0,0,0,1.4.09,2.16,2.16,0,0,1,1.32.44c3.48,1.83,7,3.66,10.4,5.54,3.06,1.67,6.08,3.41,9.11,5.12a.7.7,0,0,1,.17.13l8.71,8.5a1.24,1.24,0,0,1,.29.39C129.29,189.51,117,183.15,104.69,176.69Z"/><path class="cls-44" d="M108.19,153.56c4-1.58,7.8-1.79,11.54.43a21.61,21.61,0,0,1,4.89,4c-.34.2-.64.4-1,.57a12.66,12.66,0,0,1-4.71,1.6,7.17,7.17,0,0,1-4.85-1.36A54.3,54.3,0,0,1,108.19,153.56Z"/><path class="cls-44" d="M118.55,176.5c-.7-.95-1.39-1.81-2-2.71a14.63,14.63,0,0,1-2.41-5.42,12.7,12.7,0,0,1,1-7.61l.14-.3a3.47,3.47,0,0,1,2.11,1.25,42,42,0,0,1,3.07,4.42,7.44,7.44,0,0,1,.26,6.66A15.92,15.92,0,0,1,118.55,176.5Z"/><path class="cls-44" d="M124.76,156.94c-.73-.64-1.43-1.32-2.19-1.91s-1.8-1.26-2.69-1.9a1.08,1.08,0,0,1-.41-.56,11,11,0,0,1,.58-6.73c.48-1.14,1.09-2.23,1.7-3.47.54.88,1,1.61,1.43,2.35a31.39,31.39,0,0,1,2.61,4.8,7.61,7.61,0,0,1-.87,7.28l-.09.1Z"/><path class="cls-44" d="M103.47,172.17a16.94,16.94,0,0,1,3.65-1.5,11.19,11.19,0,0,1,6.51.07.88.88,0,0,1,.6.53,20.6,20.6,0,0,0,3.18,5c0,.05.07.12.13.21a7.92,7.92,0,0,1-2.4,1,7.31,7.31,0,0,1-6-1.18c-1.64-1.08-3.2-2.3-4.79-3.45Z"/><path class="cls-44" d="M102.68,177.68a8.59,8.59,0,0,1-3.2,1.75,7.27,7.27,0,0,1-5-.42c-2.17-.93-4.28-2-6.55-3.06.77-.52,1.41-1,2.08-1.39a11.54,11.54,0,0,1,7.67-1.86,1,1,0,0,1,.82.46A21.72,21.72,0,0,0,102.68,177.68Z"/><path class="cls-44" d="M103.26,146.31c3.66-1,7.17-1,10.44,1.12,2.27,1.45,4.8,4.07,4.9,5a1.44,1.44,0,0,1-.24-.05,12.88,12.88,0,0,0-9.13-.07.67.67,0,0,1-.82-.16c-.86-.93-1.76-1.81-2.6-2.76s-1.54-1.83-2.3-2.75C103.43,146.57,103.36,146.46,103.26,146.31Z"/><path class="cls-44" d="M113.68,146.47a12.72,12.72,0,0,0-3.85-1.4,14.45,14.45,0,0,0-5.6.19.77.77,0,0,1-.89-.3,64.24,64.24,0,0,1-4.15-6.19,1.54,1.54,0,0,1,0-.17c.84,0,1.68-.12,2.53-.12a11.56,11.56,0,0,1,6.22,1.62,11.86,11.86,0,0,1,3.25,2.82c.79,1,1.52,2.09,2.27,3.14A3,3,0,0,1,113.68,146.47Z"/><path class="cls-44" d="M108.17,164.41a19,19,0,0,1-5.08-5.16,11.81,11.81,0,0,1-1.66-7.81c.07-.62.18-1.23.28-1.84,0-.17.08-.33.13-.55,1.61,1.28,3.21,2.45,4.68,3.78.48.44.9,1,1.36,1.55.07.08,0,.3,0,.44a16.32,16.32,0,0,0-.74,4.44,11.86,11.86,0,0,0,.86,4.63C108,164,108.08,164.16,108.17,164.41Z"/><path class="cls-44" d="M77.09,160c-.93.23-1.94.44-2.92.74a13.14,13.14,0,0,0-3.73,1.94.78.78,0,0,1-.91.11c-2-1-4.09-2-6.21-3a18.22,18.22,0,0,1,3.49-2.21,11.44,11.44,0,0,1,8.41-.6.55.55,0,0,1,.29.16C76.05,158.12,76.58,159.09,77.09,160Z"/><path class="cls-44" d="M103.85,119c1.18,2.07,2.34,4.07,3.47,6.08a.69.69,0,0,1,0,.56,14.08,14.08,0,0,0-2.12,7.28c-.33-.2-.6-.4-.89-.54-.64-.31-1.31-.59-2-.91a.92.92,0,0,1-.4-.45,11.93,11.93,0,0,1,.78-10.29c.28-.52.59-1,.89-1.53C103.68,119.19,103.73,119.16,103.85,119Z"/><path class="cls-44" d="M82,151.88c3.26-1.73,6.58-2.55,10.17-1.4.65.21,1.28.49,1.92.76a.64.64,0,0,1,.32.31c.37,1,.72,2,1.07,3-.78,0-1.66,0-2.53.09A14,14,0,0,0,88.4,156a.69.69,0,0,1-.81-.05c-1.58-1.16-3.18-2.31-4.77-3.47C82.56,152.31,82.31,152.11,82,151.88Z"/><path class="cls-44" d="M113.61,169.93a2.2,2.2,0,0,1-.53-.27,16.08,16.08,0,0,1-4.83-7.57,13,13,0,0,1,.41-7.09c1,1,1.86,1.91,2.81,2.75s2,1.6,3,2.45A13.81,13.81,0,0,0,113.61,169.93Z"/><path class="cls-44" d="M91.22,167.37c-6.11-2.9-9.24-7-8.82-14,.83.56,1.61,1.07,2.37,1.59s1.5,1.08,2.3,1.66l-1,.58,1.5,1.15c.46.34.93.66,1.36,1a.84.84,0,0,1,.28.58,12.76,12.76,0,0,0,.9,5.12C90.42,165.87,90.83,166.6,91.22,167.37Z"/><path class="cls-44" d="M97.68,167.12c.92-.4,1.74-.79,2.59-1.1a11.37,11.37,0,0,1,8.18-.1,2.11,2.11,0,0,1,1.08.83c.66.93,1.4,1.81,2.11,2.71-.52,0-1.08,0-1.64,0a14.59,14.59,0,0,0-6.23,1.68.62.62,0,0,1-.72,0c-1.44-1.07-2.89-2.12-4.34-3.18C98.4,167.68,98.1,167.44,97.68,167.12Z"/><path class="cls-44" d="M118.32,150.48c-.93-.92-1.87-1.83-2.79-2.76a1.5,1.5,0,0,1-.3-.62,12.24,12.24,0,0,1,1.57-9.89l.41-.68c.05-.07.11-.13.21-.25l1,1.62c.79,1.35,1.56,2.7,2.36,4a.65.65,0,0,1,0,.76,15.07,15.07,0,0,0-2.06,5C118.5,148.56,118.44,149.51,118.32,150.48Z"/><path class="cls-44" d="M95.63,171.84A11,11,0,0,0,91.24,173c-1.07.56-2.1,1.22-3.12,1.87a.58.58,0,0,1-.64.07l-5.06-2.47c-.27-.13-.55-.27-.9-.46.43-.32.81-.61,1.2-.87a12,12,0,0,1,7.08-2.41,23.51,23.51,0,0,1,2.5.25.86.86,0,0,1,.42.2Z"/><path class="cls-44" d="M97.19,131.42c6.4.16,10.21,3.26,12.47,8.8-.79-.46-1.61-1-2.48-1.42a12.9,12.9,0,0,0-6.57-1.08.81.81,0,0,1-1-.56C98.85,135.26,98,133.37,97.19,131.42Z"/><path class="cls-44" d="M94.83,146.46c.8.44,1.57.84,2.32,1.26,1.09.6,2.17,1.23,3.27,1.82a.67.67,0,0,1,.36.82,13.22,13.22,0,0,0,.92,8c.11.24.24.47.37.7a7.75,7.75,0,0,1,.34.71,14.63,14.63,0,0,1-6-5.36A14,14,0,0,1,94.83,146.46Z"/><path class="cls-44" d="M75,152.11c2.14.75,4.17,1.46,6.21,2.15.29.1.33.27.33.53a14.7,14.7,0,0,0,1.11,5.71,12.07,12.07,0,0,0,2.22,3.38c-1.22.09-5.14-2.25-6.85-4.17A13.8,13.8,0,0,1,75,152.11Z"/><path class="cls-44" d="M114,145.35c-.28-.42-.56-.87-.87-1.28-.6-.76-1.27-1.48-1.81-2.28a4.14,4.14,0,0,1-.48-1.49,12.16,12.16,0,0,1,1.64-8.41c.18-.32.37-.63.56-.95a3.24,3.24,0,0,1,.24-.33c.43.71.85,1.39,1.26,2.08.6,1,1.2,2,1.81,3a.61.61,0,0,1,0,.72,14.63,14.63,0,0,0-2.26,6.07C114,143.45,114,144.39,114,145.35Z"/><path class="cls-44" d="M90.28,167.91a13.28,13.28,0,0,0-8.51,2.92.81.81,0,0,1-1,.11c-1.64-.85-3.3-1.66-5-2.48a2,2,0,0,1-.24-.16c3.11-2.45,6.49-3.86,10.5-3.05a3.36,3.36,0,0,1,1,.61Z"/><path class="cls-44" d="M107.08,164.6a13.81,13.81,0,0,0-8.85,1.4.85.85,0,0,1-1.06-.06c-1.46-1.13-3-2.22-4.45-3.32a1.91,1.91,0,0,1-.21-.21c.89-.38,1.72-.77,2.57-1.09a11.25,11.25,0,0,1,8.27,0,1.8,1.8,0,0,1,.52.36l2.81,2.63A4.39,4.39,0,0,0,107.08,164.6Z"/><path class="cls-44" d="M69.73,164.19a13.49,13.49,0,0,1,7.88-3.31,1,1,0,0,1,.58.21A16.3,16.3,0,0,0,82.81,164l.2.09s0,.05,0,0c-1,.23-2,.41-2.91.7a15,15,0,0,0-4,2.09.55.55,0,0,1-.46.07C73.67,166.1,71.75,165.16,69.73,164.19Z"/><path class="cls-44" d="M100.73,159.79a13.58,13.58,0,0,0-7.37,1.37.6.6,0,0,1-.72,0l-3.73-2.74c-.44-.32-.86-.65-1.34-1l.32-.21A14.35,14.35,0,0,1,94,155.4c.46,0,.92.06,1.37,0,.78-.06,1.11.52,1.51,1a15.06,15.06,0,0,0,3.49,3.08Z"/><path class="cls-44" d="M108.63,125.08c.75,1.23,1.44,2.36,2.12,3.49.39.65.74,1.31,1.13,2a.75.75,0,0,1,0,.85,13.89,13.89,0,0,0-1.93,5.41c-.07.54-.08,1.09-.13,1.71-.27-.45-.51-.84-.74-1.24a15.41,15.41,0,0,0-2.75-3.44.93.93,0,0,1-.25-.56,12.09,12.09,0,0,1,1.59-6.44C107.94,126.26,108.27,125.72,108.63,125.08Z"/><path class="cls-44" d="M90.06,160.27l2,1.48-1.07.59,1.84,1.41c1.09.82,2.19,1.63,3.28,2.47a.58.58,0,0,1,.17.36,12,12,0,0,0,1.26,5c0,.07.06.15.13.36a4.32,4.32,0,0,1-.79-.29,17.13,17.13,0,0,1-5.46-5.55A11.45,11.45,0,0,1,90,160.44.58.58,0,0,1,90.06,160.27Z"/><path class="cls-44" d="M102.5,171.74l-.5.32c.72.55,1.4,1.09,2.1,1.59.88.64.9.63.5,1.67-.24.63-.51,1.25-.77,1.87a1.88,1.88,0,0,1-.16.25c-3.08-2.54-5.72-5.35-6.35-9.56Z"/><path class="cls-44" d="M161.1,221.48c-.52.18-1,.37-1.51.52-.12,0-.26-.09-.32-.19-.53-.8-1.07-1.59-1.55-2.42q-2.37-4.14-4.7-8.3c-.32-.58-.6-1.19-.93-1.84C153,209.86,160.36,219.92,161.1,221.48Z"/><path class="cls-44" d="M100.38,115.69c.71,1.15,1.42,2.3,2.11,3.46a.61.61,0,0,1,0,.48c-.39.85-.87,1.67-1.21,2.54s-.56,1.75-.82,2.63c-.81-.34-1.67-.67-2.51-1-.12,0-.19-.34-.19-.51a10.16,10.16,0,0,1,.74-4c.51-1.23,1.14-2.41,1.71-3.61Z"/><path class="cls-44" d="M87.94,145.72l5.81,1.42a.39.39,0,0,1,.24.29c.07,1,.1,1.94.15,2.9a18.89,18.89,0,0,0-2-.7c-1-.22-1.93-.32-2.9-.49a.62.62,0,0,1-.41-.28c-.36-1-.68-2-1-3.05Z"/><path class="cls-44" d="M68,152.67c1.33.06,2.51.11,3.7.18.78,0,1.55.09,2.33.16a.52.52,0,0,1,.38.25c.24.94.44,1.89.65,2.79-.92-.11-1.89-.28-2.86-.34-.73,0-1.46.07-2.19.09-.13,0-.32,0-.37-.12C69.07,154.72,68.55,153.74,68,152.67Z"/><path class="cls-44" d="M98,130.59c-.28-2.05-.56-4.11-.86-6.33,1.12.5,2.14.94,3.16,1.41.07,0,.12.2.11.3a12.88,12.88,0,0,0,.71,5,1,1,0,0,1,0,.16Z"/><path class="cls-45" d="M157.91,303.72s7.43,46.91,85.84,90.38"/><polygon class="cls-46" points="235.03 397.99 241.55 392.79 242.34 384.49 254.69 399.9 235.03 397.99"/><path class="cls-45" d="M755.28,301s-8,46.88-87,89.88"/><polygon class="cls-46" points="669.78 381.29 670.51 389.6 676.99 394.85 657.32 396.61 669.78 381.29"/></g></g></svg>