<svg xmlns="http://www.w3.org/2000/svg" xmlns:xlink="http://www.w3.org/1999/xlink" viewBox="0 0 1120 798.18"><defs><style>.cls-1{fill:#4d3b2f;}.cls-16,.cls-17,.cls-19,.cls-2,.cls-29,.cls-4,.cls-49,.cls-50,.cls-53,.cls-54,.cls-55,.cls-67,.cls-70,.cls-72,.cls-74{fill:none;}.cls-2{stroke:#336daa;stroke-width:2.07px;}.cls-2,.cls-49,.cls-50,.cls-68,.cls-72{stroke-linecap:round;}.cls-16,.cls-17,.cls-18,.cls-19,.cls-2,.cls-21,.cls-22,.cls-23,.cls-24,.cls-25,.cls-26,.cls-27,.cls-28,.cls-29,.cls-32,.cls-34,.cls-35,.cls-36,.cls-37,.cls-38,.cls-39,.cls-4,.cls-40,.cls-41,.cls-44,.cls-48,.cls-53,.cls-54,.cls-55,.cls-60,.cls-61,.cls-65,.cls-67,.cls-68,.cls-69,.cls-7,.cls-70,.cls-71,.cls-72,.cls-73,.cls-74,.cls-75,.cls-76,.cls-78,.cls-79,.cls-85,.cls-9{stroke-miterlimit:10;}.cls-3{fill:#336daa;}.cls-4,.cls-67,.cls-68,.cls-69,.cls-70,.cls-71,.cls-72,.cls-73,.cls-74,.cls-75,.cls-76{stroke:#5b5052;}.cls-4{stroke-width:2.77px;}.cls-5,.cls-69,.cls-75,.cls-76{fill:#5b5052;}.cls-6,.cls-79{fill:#5c5052;}.cls-32,.cls-39,.cls-7,.cls-71{fill:#ffcf01;}.cls-21,.cls-22,.cls-23,.cls-24,.cls-25,.cls-26,.cls-27,.cls-28,.cls-32,.cls-34,.cls-35,.cls-36,.cls-37,.cls-38,.cls-39,.cls-40,.cls-41,.cls-44,.cls-50,.cls-7,.cls-79,.cls-9{stroke:#fff;}.cls-7,.cls-9{stroke-width:0.35px;}.cls-12,.cls-18,.cls-24,.cls-28,.cls-30,.cls-33,.cls-36,.cls-42,.cls-65,.cls-68,.cls-73,.cls-78,.cls-8,.cls-85{fill:#fff;}.cls-21,.cls-25,.cls-37,.cls-60,.cls-9{fill:#ec6a7c;}.cls-10,.cls-11{fill:#2b6394;}.cls-10{opacity:0.17;}.cls-12{font-size:30.71px;font-family:Acre-Light, Acre;font-weight:300;}.cls-13{letter-spacing:0em;}.cls-14{letter-spacing:-0.02em;}.cls-15{letter-spacing:-0.02em;}.cls-16,.cls-17,.cls-18,.cls-19{stroke:#5c5052;}.cls-16{stroke-width:0.82px;}.cls-17{stroke-width:0.97px;}.cls-18{stroke-width:1.68px;opacity:0.5;}.cls-19{stroke-width:0.91px;}.cls-20{clip-path:url(#clip-path);}.cls-21,.cls-35,.cls-38{stroke-width:0.33px;}.cls-22,.cls-41{fill:#3caba2;}.cls-22,.cls-39{stroke-width:0.2px;}.cls-23,.cls-34,.cls-35{fill:#6d54a3;}.cls-23{stroke-width:0.54px;}.cls-24{font-size:9.85px;stroke-width:0.12px;}.cls-24,.cls-28{font-family:Acre-Semibold, Acre;font-weight:600;}.cls-25{stroke-width:0.07px;}.cls-26{fill:#6b6264;stroke-width:0.44px;}.cls-27,.cls-38{fill:#f37243;}.cls-27{stroke-width:0.07px;}.cls-28{font-size:8.9px;stroke-width:0.11px;}.cls-29{stroke:#5f5353;stroke-width:0.64px;}.cls-30{font-size:12.83px;}.cls-30,.cls-33,.cls-36,.cls-42,.cls-64,.cls-77,.cls-84{font-family:Acre-Bold, Acre;font-weight:700;}.cls-31{letter-spacing:-0.04em;}.cls-32{stroke-width:0.49px;}.cls-33{font-size:12.83px;}.cls-34{stroke-width:0.23px;}.cls-36{font-size:13.92px;stroke-width:0.34px;}.cls-37{stroke-width:0.21px;}.cls-40,.cls-44{fill:#2e6290;}.cls-40{stroke-width:0.17px;}.cls-41{stroke-width:0.32px;}.cls-42{font-size:11.83px;}.cls-43{letter-spacing:-0.01em;}.cls-44{stroke-width:0.21px;}.cls-45{fill:#e86a7c;}.cls-46{fill:#3da89f;}.cls-47{letter-spacing:-0.01em;}.cls-48{fill:#fbcb08;stroke:#efefef;stroke-width:0.05px;}.cls-49{stroke:#fbcb08;stroke-width:0.33px;}.cls-49,.cls-50{stroke-linejoin:round;}.cls-50{stroke-width:0.8px;}.cls-51{fill:#2e61a1;}.cls-52,.cls-86{fill:#ffbf01;}.cls-53,.cls-54,.cls-55{stroke:#e37243;}.cls-53{stroke-width:0.87px;}.cls-54{stroke-width:0.61px;}.cls-55{stroke-width:0.3px;}.cls-56{fill:#3d9b92;}.cls-57{fill:#e37243;}.cls-58{fill:#2e6192;}.cls-59,.cls-64,.cls-77,.cls-84{fill:#dd6a7c;}.cls-60,.cls-61{stroke:#e8ba25;}.cls-60{stroke-width:0.54px;}.cls-61{font-size:27.99px;fill:#e8ba25;stroke-width:0.56px;font-family:Acre-Thin, Acre;font-weight:200;}.cls-62{letter-spacing:-0.02em;}.cls-63{letter-spacing:-0.02em;}.cls-64{font-size:31.72px;}.cls-65,.cls-78,.cls-85{stroke:#3daaa1;}.cls-65{stroke-width:3.02px;}.cls-66{fill:#5e5153;}.cls-67{stroke-width:0.62px;stroke-dasharray:2.47;}.cls-68,.cls-69,.cls-71{stroke-width:0.25px;}.cls-70{stroke-width:0.22px;}.cls-72{stroke-width:0.34px;}.cls-73{stroke-width:0.37px;}.cls-74{stroke-width:0.16px;}.cls-75{stroke-width:0.11px;}.cls-76{stroke-width:0.08px;}.cls-77{font-size:29.35px;}.cls-78{stroke-width:3.01px;}.cls-79{stroke-width:0.19px;}.cls-80{fill:#ffbd01;}.cls-81{fill:#db6a7c;}.cls-82{fill:#3d9990;}.cls-83{fill:#336da4;}.cls-84{font-size:31.55px;}.cls-85{stroke-width:3px;}.cls-86{fill-rule:evenodd;}</style><clipPath id="clip-path"><circle class="cls-1" cx="787.71" cy="604.4" r="97.9"/></clipPath></defs><g id="Layer_2" data-name="Layer 2"><g id="Layer_17" data-name="Layer 17"><g id="Layer_23" data-name="Layer 23"><path class="cls-2" d="M792.67,285.64s-8,46.87-87,89.88"/><polygon class="cls-3" points="707.17 365.91 707.9 374.22 714.38 379.47 694.71 381.23 707.17 365.91"/><path class="cls-2" d="M132.89,285.34s7.43,46.92,85.85,90.39"/><polygon class="cls-3" points="210.01 379.62 216.53 374.42 217.32 366.11 229.67 381.52 210.01 379.62"/></g><g id="Layer_24" data-name="Layer 24"><path class="cls-4" d="M982,507.76S947.9,457,895.12,495.6"/><polygon class="cls-5" points="894.96 486.67 897.05 494.18 903.91 497.89 886.14 502.9 894.96 486.67"/><path class="cls-6" d="M954.37,543.4a6.93,6.93,0,0,1,3.3,5.88,7,7,0,0,1-.85,3.38,6.58,6.58,0,0,1-2.42,2.52A6.92,6.92,0,0,1,944.11,551l1.68-.69a5.33,5.33,0,0,0,1.8,2.93,4.89,4.89,0,0,0,3.24,1.15,5.06,5.06,0,0,0,2.6-.67,4.79,4.79,0,0,0,1.8-1.83,5.19,5.19,0,0,0,.64-2.57,5.25,5.25,0,0,0-.64-2.58,4.73,4.73,0,0,0-1.82-1.84,5.55,5.55,0,0,0-5.34,0,5.35,5.35,0,0,0-1.92,1.86l-1.08-.27,2.43-11.64h8.28v1.77h-6.9l-1.35,6.72a6.2,6.2,0,0,1,3.27-.87A6.67,6.67,0,0,1,954.37,543.4Z"/><path class="cls-6" d="M962.22,553.12a19.58,19.58,0,0,1,0-15.55,5.6,5.6,0,0,1,9.94,0,19.44,19.44,0,0,1,0,15.54,5.62,5.62,0,0,1-9.94,0Zm8.64-1.39a18.79,18.79,0,0,0,0-12.78,3.88,3.88,0,0,0-7.35,0,18.63,18.63,0,0,0,0,12.78,3.89,3.89,0,0,0,7.35,0Z"/><path class="cls-6" d="M976.66,547.57v-1.65h9.72v1.65Z"/><path class="cls-6" d="M1001.73,546.42a6,6,0,0,1,1,3.34,6.36,6.36,0,0,1-.84,3.21,6.1,6.1,0,0,1-2.37,2.33,7.55,7.55,0,0,1-7,0,6.2,6.2,0,0,1-2.38-2.33,6.28,6.28,0,0,1-.86-3.21,6,6,0,0,1,1-3.34,6.18,6.18,0,0,1,2.65-2.3,5,5,0,0,1-1.78-1.83,5.18,5.18,0,0,1,.06-5.13,5.24,5.24,0,0,1,2-1.92,5.64,5.64,0,0,1,2.85-.72,5.58,5.58,0,0,1,2.82.72,5.24,5.24,0,0,1,2,1.94,5.21,5.21,0,0,1,.06,5.11,5,5,0,0,1-1.79,1.83A6.21,6.21,0,0,1,1001.73,546.42Zm-3.18,7.33a4.54,4.54,0,0,0,1.74-1.68,4.48,4.48,0,0,0,.61-2.31,4.71,4.71,0,0,0-.61-2.35,4.54,4.54,0,0,0-1.74-1.74,5.27,5.27,0,0,0-5.07,0,4.69,4.69,0,0,0-2.39,4.09,4.41,4.41,0,0,0,.63,2.31,4.66,4.66,0,0,0,1.76,1.68,5.42,5.42,0,0,0,5.07,0Zm-5.24-16.44a3.37,3.37,0,0,0-1,2.52,3.48,3.48,0,0,0,1.07,2.54,3.62,3.62,0,0,0,2.68,1.06,3.59,3.59,0,0,0,2.67-1.06,3.5,3.5,0,0,0,1.05-2.54,3.39,3.39,0,0,0-1-2.52,3.67,3.67,0,0,0-2.69-1A3.71,3.71,0,0,0,993.31,537.31Z"/><path class="cls-6" d="M1007.31,553.12a19.58,19.58,0,0,1,0-15.55,5.6,5.6,0,0,1,9.94,0,19.44,19.44,0,0,1,0,15.54,5.62,5.62,0,0,1-9.94,0Zm8.64-1.39a18.79,18.79,0,0,0,0-12.78,3.88,3.88,0,0,0-7.35,0,18.63,18.63,0,0,0,0,12.78,3.89,3.89,0,0,0,7.35,0Z"/><path class="cls-6" d="M1023.46,542.32a4.31,4.31,0,0,1-1.53-1.53,4,4,0,0,1-.57-2.07,4,4,0,0,1,.57-2.1,4.18,4.18,0,0,1,1.53-1.51,4.07,4.07,0,0,1,2.07-.56,4.13,4.13,0,0,1,2.1.56,4.18,4.18,0,0,1,1.52,5.68,4.21,4.21,0,0,1-1.52,1.53,4,4,0,0,1-2.1.57A4,4,0,0,1,1023.46,542.32Zm-1.35,13.5,14.1-21H1038l-14.13,21Zm5.28-15.27a2.39,2.39,0,0,0,.75-1.8,2.56,2.56,0,0,0-2.64-2.64,2.39,2.39,0,0,0-1.8.75,2.62,2.62,0,0,0-.72,1.89,2.45,2.45,0,0,0,.74,1.79,2.41,2.41,0,0,0,1.78.73A2.62,2.62,0,0,0,1027.39,540.55Zm5,15a4.31,4.31,0,0,1-1.53-1.53,4,4,0,0,1-.57-2.07,4,4,0,0,1,.57-2.1,4.18,4.18,0,0,1,1.53-1.51,4.07,4.07,0,0,1,2.07-.56,4.13,4.13,0,0,1,4.17,4.17,4.06,4.06,0,0,1-.55,2.07,4.23,4.23,0,0,1-1.5,1.53,4,4,0,0,1-2.12.57A4,4,0,0,1,1032.4,555.52Zm3.93-1.78a2.42,2.42,0,0,0,.75-1.79,2.59,2.59,0,0,0-.73-1.89,2.52,2.52,0,0,0-1.88-.75,2.43,2.43,0,0,0-1.81.75,2.59,2.59,0,0,0-.74,1.89,2.42,2.42,0,0,0,.75,1.79,2.48,2.48,0,0,0,1.8.73A2.55,2.55,0,0,0,1036.33,553.74Z"/><path class="cls-6" d="M1066,531.82v24h-1.8v-3.09a6.73,6.73,0,0,1-2.38,2.42,6.37,6.37,0,0,1-3.32.88,6.65,6.65,0,0,1-3.66-1,7.08,7.08,0,0,1-2.52-2.79,8.75,8.75,0,0,1,0-7.73,7,7,0,0,1,2.52-2.8,6.66,6.66,0,0,1,3.66-1,6.29,6.29,0,0,1,3.32.9,6.84,6.84,0,0,1,2.38,2.43V531.82Zm-4.5,21.66a5.68,5.68,0,0,0,2-2.17,6.26,6.26,0,0,0,.72-3,6.33,6.33,0,0,0-.72-3,5.66,5.66,0,0,0-2-2.19,5.1,5.1,0,0,0-2.82-.81,5,5,0,0,0-2.8.81,5.53,5.53,0,0,0-1.94,2.18,6.8,6.8,0,0,0,0,6,5.41,5.41,0,0,0,1.94,2.16,5.34,5.34,0,0,0,5.62,0Z"/><path class="cls-6" d="M1081,541.78a7.3,7.3,0,0,1,2.44,3.05,9.44,9.44,0,0,1,.78,4.12h-12.39a5.93,5.93,0,0,0,1.77,3.86,5.49,5.49,0,0,0,4,1.51,7.13,7.13,0,0,0,5.1-2.07v2a7.66,7.66,0,0,1-2.32,1.28,8.58,8.58,0,0,1-2.84.46,7.55,7.55,0,0,1-4-1,7,7,0,0,1-2.62-2.81,8.54,8.54,0,0,1,0-7.71,7.06,7.06,0,0,1,2.56-2.8,6.91,6.91,0,0,1,3.75-1A6.35,6.35,0,0,1,1081,541.78Zm-7.38,2a5.91,5.91,0,0,0-1.76,3.57h10.44a6.2,6.2,0,0,0-1.66-3.57,4.56,4.56,0,0,0-3.41-1.41A5,5,0,0,0,1073.58,543.79Z"/><path class="cls-6" d="M1101.49,540.82v15h-1.8v-3.09a6.76,6.76,0,0,1-2.39,2.42,6.33,6.33,0,0,1-3.31.88,6.65,6.65,0,0,1-3.66-1,7.08,7.08,0,0,1-2.52-2.79,8.75,8.75,0,0,1,0-7.73,7,7,0,0,1,2.52-2.8,6.66,6.66,0,0,1,3.66-1,6.25,6.25,0,0,1,3.31.9,6.87,6.87,0,0,1,2.39,2.43v-3.15Zm-4.5,12.66a5.68,5.68,0,0,0,2-2.17,6.26,6.26,0,0,0,.72-3,6.33,6.33,0,0,0-.72-3,5.66,5.66,0,0,0-2-2.19,5.1,5.1,0,0,0-2.82-.81,5,5,0,0,0-2.81.81,5.51,5.51,0,0,0-1.93,2.18,6.8,6.8,0,0,0,0,6,5.38,5.38,0,0,0,1.93,2.16,5.35,5.35,0,0,0,5.63,0Z"/><path class="cls-6" d="M1120,531.82v24h-1.8v-3.09a6.76,6.76,0,0,1-2.39,2.42,6.33,6.33,0,0,1-3.31.88,6.65,6.65,0,0,1-3.66-1,7.08,7.08,0,0,1-2.52-2.79,8.75,8.75,0,0,1,0-7.73,7,7,0,0,1,2.52-2.8,6.66,6.66,0,0,1,3.66-1,6.25,6.25,0,0,1,3.31.9,6.87,6.87,0,0,1,2.39,2.43V531.82Zm-4.5,21.66a5.68,5.68,0,0,0,2-2.17,6.26,6.26,0,0,0,.72-3,6.33,6.33,0,0,0-.72-3,5.66,5.66,0,0,0-2-2.19,5.1,5.1,0,0,0-2.82-.81,5,5,0,0,0-2.81.81,5.51,5.51,0,0,0-1.93,2.18,6.8,6.8,0,0,0,0,6,5.38,5.38,0,0,0,1.93,2.16,5.35,5.35,0,0,0,5.63,0Z"/><path class="cls-6" d="M992,577.3a5.18,5.18,0,0,1,2,2.19,7.64,7.64,0,0,1,.72,3.45l0,8.88h-1.8V583.3a5.75,5.75,0,0,0-1.08-3.67,3.81,3.81,0,0,0-5.88,0,6.14,6.14,0,0,0-1.08,3.85l0,8.31h-1.77V583.3a5.75,5.75,0,0,0-1.08-3.67,3.81,3.81,0,0,0-5.88,0,6.14,6.14,0,0,0-1.08,3.85v8.31h-1.8v-15H975v2.25a5.34,5.34,0,0,1,1.79-1.81,4.82,4.82,0,0,1,2.62-.71,5.11,5.11,0,0,1,4.89,3.39,6,6,0,0,1,1.89-2.43,4.9,4.9,0,0,1,3.06-1A5.29,5.29,0,0,1,992,577.3Z"/><path class="cls-6" d="M999.79,573.46a1.22,1.22,0,0,1-.36-.9,1.26,1.26,0,0,1,.36-.91,1.2,1.2,0,0,1,.9-.38,1.26,1.26,0,0,1,.92.38,1.23,1.23,0,0,1,.37.91,1.19,1.19,0,0,1-.37.9,1.28,1.28,0,0,1-.92.36A1.22,1.22,0,0,1,999.79,573.46Zm0,18.36v-15h1.8v15Z"/><path class="cls-6" d="M1009.57,591a7.31,7.31,0,0,1-2.7-2.82,8.28,8.28,0,0,1,0-7.74,7.31,7.31,0,0,1,2.7-2.82,7.57,7.57,0,0,1,4-1,7.45,7.45,0,0,1,5,1.77v2.22a6.29,6.29,0,0,0-2.13-1.6,6.47,6.47,0,0,0-2.82-.62,5.83,5.83,0,0,0-3.06.81,5.71,5.71,0,0,0-2.1,2.18,6.32,6.32,0,0,0,0,6,5.68,5.68,0,0,0,2.1,2.17,5.83,5.83,0,0,0,3.06.81,6.46,6.46,0,0,0,2.82-.61,6.32,6.32,0,0,0,2.13-1.61v2.22a7.45,7.45,0,0,1-5,1.77A7.57,7.57,0,0,1,1009.57,591Z"/><path class="cls-6" d="M1026.36,577.44a4,4,0,0,1,2.56-.86v2a3.6,3.6,0,0,0-2.19.51,4.13,4.13,0,0,0-1.56,1.76,6,6,0,0,0-.57,2.68v8.25h-1.8v-15h1.8v2.76A6.35,6.35,0,0,1,1026.36,577.44Z"/><path class="cls-6" d="M1033.93,591a7.27,7.27,0,0,1-2.7-2.83,8,8,0,0,1-1-3.86,7.93,7.93,0,0,1,1-3.84,7.31,7.31,0,0,1,2.7-2.82,7.88,7.88,0,0,1,7.86,0,7.31,7.31,0,0,1,2.7,2.82,7.93,7.93,0,0,1,1,3.84,8,8,0,0,1-1,3.86,7.27,7.27,0,0,1-2.7,2.83,7.88,7.88,0,0,1-7.86,0Zm6.93-1.54a5.78,5.78,0,0,0,2.06-2.19,6.35,6.35,0,0,0,0-5.91,5.68,5.68,0,0,0-2.06-2.18,5.7,5.7,0,0,0-8,2.18,6.27,6.27,0,0,0,0,5.91,5.75,5.75,0,0,0,2.05,2.19,5.84,5.84,0,0,0,6,0Z"/><path class="cls-6" d="M1060.54,577.68a7.08,7.08,0,0,1,2.52,2.79,8.3,8.3,0,0,1,.9,3.85,8.41,8.41,0,0,1-.9,3.87,7.07,7.07,0,0,1-2.52,2.81,6.65,6.65,0,0,1-3.66,1,6.25,6.25,0,0,1-3.31-.9,6.87,6.87,0,0,1-2.39-2.43v3.12h-1.8v-24h1.8v12.12a6.73,6.73,0,0,1,2.39-2.41,6.34,6.34,0,0,1,3.31-.89A6.66,6.66,0,0,1,1060.54,577.68Zm-1,11.8a5.48,5.48,0,0,0,1.93-2.17,6.8,6.8,0,0,0,0-6,5.38,5.38,0,0,0-1.93-2.16,5.32,5.32,0,0,0-5.63,0,5.71,5.71,0,0,0-2,2.18,6.22,6.22,0,0,0-.72,3,6.33,6.33,0,0,0,.72,3,5.66,5.66,0,0,0,2,2.19,5.1,5.1,0,0,0,2.82.81A5,5,0,0,0,1059.51,589.48Z"/><path class="cls-6" d="M1077.84,577.78a7.23,7.23,0,0,1,2.44,3.05,9.44,9.44,0,0,1,.78,4.12h-12.39a5.93,5.93,0,0,0,1.77,3.86,5.49,5.49,0,0,0,4,1.51,7.13,7.13,0,0,0,5.1-2.07v2a7.66,7.66,0,0,1-2.32,1.28,8.58,8.58,0,0,1-2.84.46,7.55,7.55,0,0,1-4-1,7,7,0,0,1-2.62-2.81,8.54,8.54,0,0,1,0-7.71,7.06,7.06,0,0,1,2.56-2.8,6.91,6.91,0,0,1,3.75-1A6.35,6.35,0,0,1,1077.84,577.78Zm-7.38,2a6,6,0,0,0-1.76,3.57h10.44a6.2,6.2,0,0,0-1.66-3.57,4.56,4.56,0,0,0-3.41-1.41A5,5,0,0,0,1070.46,579.79Z"/><path class="cls-6" d="M1085.65,591.39a6,6,0,0,1-2.13-1.7l1.23-1.32a6.06,6.06,0,0,0,1.67,1.41,3.94,3.94,0,0,0,2,.54,3.25,3.25,0,0,0,2.07-.66,2.11,2.11,0,0,0,.84-1.74,2.08,2.08,0,0,0-.45-1.36,3.74,3.74,0,0,0-1.09-.92,18.94,18.94,0,0,0-1.79-.84,17.54,17.54,0,0,1-2.14-1,4.41,4.41,0,0,1-1.4-1.29,3.46,3.46,0,0,1-.57-2,3.52,3.52,0,0,1,1.25-2.73,4.64,4.64,0,0,1,3.13-1.14,5.4,5.4,0,0,1,2.57.63,7,7,0,0,1,2,1.5l-1.11,1.29a4.59,4.59,0,0,0-3.39-1.68,2.81,2.81,0,0,0-1.87.62,1.9,1.9,0,0,0-.74,1.51,1.87,1.87,0,0,0,.42,1.23,3.48,3.48,0,0,0,1,.84,16.93,16.93,0,0,0,1.71.78,19.24,19.24,0,0,1,2.24,1.07,4.47,4.47,0,0,1,1.45,1.36,3.77,3.77,0,0,1,.6,2.19,3.83,3.83,0,0,1-.6,2.09,4.23,4.23,0,0,1-1.68,1.5,5.37,5.37,0,0,1-2.49.55A6,6,0,0,1,1085.65,591.39Z"/><path class="cls-6" d="M987.3,612.82v15h-1.8v-3.09a6.76,6.76,0,0,1-2.39,2.42,6.33,6.33,0,0,1-3.31.88,6.65,6.65,0,0,1-3.66-1,7.08,7.08,0,0,1-2.52-2.79,8.75,8.75,0,0,1,0-7.73,7,7,0,0,1,2.52-2.8,6.66,6.66,0,0,1,3.66-1,6.25,6.25,0,0,1,3.31.9A6.87,6.87,0,0,1,985.5,616v-3.15Zm-4.5,12.66a5.68,5.68,0,0,0,2-2.17,6.26,6.26,0,0,0,.72-3,6.33,6.33,0,0,0-.72-3,5.66,5.66,0,0,0-2-2.19,5.1,5.1,0,0,0-2.82-.81,5,5,0,0,0-2.81.81,5.51,5.51,0,0,0-1.93,2.18,6.8,6.8,0,0,0,0,6,5.38,5.38,0,0,0,1.93,2.16,5.35,5.35,0,0,0,5.63,0Z"/><path class="cls-6" d="M1001.77,613.32a5.43,5.43,0,0,1,2.09,2.29,8.19,8.19,0,0,1,.78,3.75v8.46h-1.77v-8.13a6.13,6.13,0,0,0-1.19-4.05,4,4,0,0,0-3.19-1.41,4.08,4.08,0,0,0-3,1.23,5.38,5.38,0,0,0-1.39,3.48v8.88h-1.8v-15h1.8v2.46a5.46,5.46,0,0,1,1.95-2,5.39,5.39,0,0,1,2.85-.77A5.6,5.6,0,0,1,1001.77,613.32Z"/><path class="cls-6" d="M1022.46,603.82v24h-1.8v-3.09a6.76,6.76,0,0,1-2.39,2.42,6.33,6.33,0,0,1-3.31.88,6.65,6.65,0,0,1-3.66-1,7.08,7.08,0,0,1-2.52-2.79,8.75,8.75,0,0,1,0-7.73,7,7,0,0,1,2.52-2.8,6.66,6.66,0,0,1,3.66-1,6.25,6.25,0,0,1,3.31.9,6.87,6.87,0,0,1,2.39,2.43V603.82Zm-4.5,21.66a5.68,5.68,0,0,0,2-2.17,6.26,6.26,0,0,0,.72-3,6.33,6.33,0,0,0-.72-3,5.66,5.66,0,0,0-2-2.19,5.1,5.1,0,0,0-2.82-.81,5,5,0,0,0-2.81.81,5.51,5.51,0,0,0-1.93,2.18,6.8,6.8,0,0,0,0,6,5.38,5.38,0,0,0,1.93,2.16,5.35,5.35,0,0,0,5.63,0Z"/><path class="cls-6" d="M1043.1,612.82v1.74H1040v13.26h-1.8V614.56h-1.92v-1.74h1.92v-4h1.8v4Z"/><path class="cls-6" d="M1055.62,613.32a5.43,5.43,0,0,1,2.09,2.29,8.19,8.19,0,0,1,.78,3.75v8.46h-1.77v-8.13a6.13,6.13,0,0,0-1.19-4.05,4,4,0,0,0-3.19-1.41,4.06,4.06,0,0,0-3.2,1.43,5.93,5.93,0,0,0-1.24,4v8.13h-1.8v-24h1.8v11.49a5.46,5.46,0,0,1,4.83-2.76A5.6,5.6,0,0,1,1055.62,613.32Z"/><path class="cls-6" d="M1072.72,613.78a7.25,7.25,0,0,1,2.45,3.05A9.44,9.44,0,0,1,1076,621h-12.39a5.93,5.93,0,0,0,1.77,3.86,5.49,5.49,0,0,0,4,1.51,7.13,7.13,0,0,0,5.1-2.07v2a7.6,7.6,0,0,1-2.33,1.28,8.53,8.53,0,0,1-2.83.46,7.55,7.55,0,0,1-4-1,7,7,0,0,1-2.63-2.81,8.62,8.62,0,0,1,0-7.71,7.08,7.08,0,0,1,2.57-2.8,6.91,6.91,0,0,1,3.75-1A6.32,6.32,0,0,1,1072.72,613.78Zm-7.38,2a6,6,0,0,0-1.75,3.57H1074a6.21,6.21,0,0,0-1.67-3.57,4.53,4.53,0,0,0-3.4-1.41A5,5,0,0,0,1065.34,615.79Z"/><path class="cls-6" d="M1080.09,609.46a1.22,1.22,0,0,1-.36-.9,1.26,1.26,0,0,1,.36-.91,1.2,1.2,0,0,1,.9-.38,1.3,1.3,0,0,1,1.29,1.29,1.2,1.2,0,0,1-.38.9,1.26,1.26,0,0,1-.91.36A1.22,1.22,0,0,1,1080.09,609.46Zm0,18.36v-15h1.8v15Z"/><path class="cls-6" d="M1090.81,613.44a4.06,4.06,0,0,1,2.57-.86v2a3.59,3.59,0,0,0-2.19.51,4.07,4.07,0,0,0-1.56,1.76,5.84,5.84,0,0,0-.57,2.68v8.25h-1.8v-15h1.8v2.76A6.2,6.2,0,0,1,1090.81,613.44Z"/><path class="cls-6" d="M971.41,649.68a7.08,7.08,0,0,1,2.52,2.79,8.3,8.3,0,0,1,.9,3.85,8.41,8.41,0,0,1-.9,3.87,7.07,7.07,0,0,1-2.52,2.81,6.65,6.65,0,0,1-3.66,1,6.25,6.25,0,0,1-3.31-.9,6.87,6.87,0,0,1-2.39-2.43v3.12h-1.8v-24h1.8v12.12a6.73,6.73,0,0,1,2.39-2.41,6.34,6.34,0,0,1,3.31-.89A6.66,6.66,0,0,1,971.41,649.68Zm-1,11.8a5.48,5.48,0,0,0,1.93-2.17,6.8,6.8,0,0,0,0-6,5.38,5.38,0,0,0-1.93-2.16,5.32,5.32,0,0,0-5.63,0,5.71,5.71,0,0,0-2,2.18,6.22,6.22,0,0,0-.72,3,6.33,6.33,0,0,0,.72,3,5.66,5.66,0,0,0,2,2.19,5.1,5.1,0,0,0,2.82.81A5,5,0,0,0,970.38,661.48Z"/><path class="cls-6" d="M988.45,648.82h1.95l-8.94,21h-1.8l2.7-6.36-6.3-14.64h2l5.25,12.66Z"/><path class="cls-6" d="M1004.26,649.68a7.08,7.08,0,0,1,2.52,2.79,8.3,8.3,0,0,1,.9,3.85,8.41,8.41,0,0,1-.9,3.87,7.07,7.07,0,0,1-2.52,2.81,6.65,6.65,0,0,1-3.66,1,6.27,6.27,0,0,1-3.3-.88,6.87,6.87,0,0,1-2.37-2.39v9.06h-1.8v-21h1.8v3.09a6.84,6.84,0,0,1,2.37-2.38,6.28,6.28,0,0,1,3.3-.89A6.66,6.66,0,0,1,1004.26,649.68Zm-1,11.8a5.48,5.48,0,0,0,1.93-2.17,6.8,6.8,0,0,0,0-6,5.38,5.38,0,0,0-1.93-2.16,5.12,5.12,0,0,0-2.81-.8,5.18,5.18,0,0,0-2.67.71,5.6,5.6,0,0,0-2,1.92,5.94,5.94,0,0,0-.87,2.68V657a6,6,0,0,0,.87,2.69,5.71,5.71,0,0,0,2,1.93,5.29,5.29,0,0,0,5.48-.09Z"/><path class="cls-6" d="M1015.17,649.44a4,4,0,0,1,2.56-.86v2a3.6,3.6,0,0,0-2.19.51,4.13,4.13,0,0,0-1.56,1.76,6,6,0,0,0-.57,2.68v8.25h-1.8v-15h1.8v2.76A6.35,6.35,0,0,1,1015.17,649.44Z"/><path class="cls-6" d="M1022.74,663a7.27,7.27,0,0,1-2.7-2.83,8,8,0,0,1-1-3.86,7.93,7.93,0,0,1,1-3.84,7.31,7.31,0,0,1,2.7-2.82,7.88,7.88,0,0,1,7.86,0,7.31,7.31,0,0,1,2.7,2.82,7.93,7.93,0,0,1,1,3.84,8,8,0,0,1-1,3.86,7.27,7.27,0,0,1-2.7,2.83,7.88,7.88,0,0,1-7.86,0Zm6.93-1.54a5.78,5.78,0,0,0,2.06-2.19,6.35,6.35,0,0,0,0-5.91,5.68,5.68,0,0,0-2.06-2.18,5.7,5.7,0,0,0-8,2.18,6.27,6.27,0,0,0,0,5.91,5.75,5.75,0,0,0,2.05,2.19,5.84,5.84,0,0,0,6,0Z"/><path class="cls-6" d="M1051.72,639.82v24h-1.8v-3.09a6.73,6.73,0,0,1-2.38,2.42,6.37,6.37,0,0,1-3.32.88,6.65,6.65,0,0,1-3.66-1,7.08,7.08,0,0,1-2.52-2.79,8.75,8.75,0,0,1,0-7.73,7,7,0,0,1,2.52-2.8,6.66,6.66,0,0,1,3.66-1,6.29,6.29,0,0,1,3.32.9,6.84,6.84,0,0,1,2.38,2.43V639.82Zm-4.5,21.66a5.68,5.68,0,0,0,2-2.17,6.26,6.26,0,0,0,.72-3,6.33,6.33,0,0,0-.72-3,5.66,5.66,0,0,0-2-2.19,5.1,5.1,0,0,0-2.82-.81,5,5,0,0,0-2.8.81,5.53,5.53,0,0,0-1.94,2.18,6.8,6.8,0,0,0,0,6,5.41,5.41,0,0,0,1.94,2.16,5.34,5.34,0,0,0,5.62,0Z"/><path class="cls-6" d="M1068.82,648.82v15H1067v-2.46a5.49,5.49,0,0,1-2,2,5.38,5.38,0,0,1-2.85.76,5.6,5.6,0,0,1-2.89-.76,5.45,5.45,0,0,1-2.09-2.3,8.19,8.19,0,0,1-.78-3.75v-8.46h1.77V657a6.13,6.13,0,0,0,1.19,4,4,4,0,0,0,3.19,1.41,4.08,4.08,0,0,0,3-1.23,5.38,5.38,0,0,0,1.39-3.48v-8.88Z"/><path class="cls-6" d="M1076.41,663a7.31,7.31,0,0,1-2.7-2.82,8.28,8.28,0,0,1,0-7.74,7.31,7.31,0,0,1,2.7-2.82,7.57,7.57,0,0,1,4-1,7.45,7.45,0,0,1,5,1.77v2.22a6.29,6.29,0,0,0-2.13-1.6,6.47,6.47,0,0,0-2.82-.62,5.83,5.83,0,0,0-3.06.81,5.71,5.71,0,0,0-2.1,2.18,6.32,6.32,0,0,0,0,6,5.68,5.68,0,0,0,2.1,2.17,5.83,5.83,0,0,0,3.06.81,6.46,6.46,0,0,0,2.82-.61,6.32,6.32,0,0,0,2.13-1.61v2.22a7.45,7.45,0,0,1-5,1.77A7.57,7.57,0,0,1,1076.41,663Z"/><path class="cls-6" d="M1095,648.82v1.74h-3.09v13.26h-1.8V650.56h-1.92v-1.74h1.92v-4h1.8v4Z"/><path class="cls-6" d="M1098.61,663.39a6,6,0,0,1-2.13-1.7l1.23-1.32a6.06,6.06,0,0,0,1.67,1.41,3.94,3.94,0,0,0,2,.54,3.25,3.25,0,0,0,2.07-.66,2.11,2.11,0,0,0,.84-1.74,2.08,2.08,0,0,0-.45-1.36,3.74,3.74,0,0,0-1.09-.92,18.94,18.94,0,0,0-1.79-.84,17.54,17.54,0,0,1-2.14-1,4.41,4.41,0,0,1-1.4-1.29,3.46,3.46,0,0,1-.57-2,3.52,3.52,0,0,1,1.25-2.73,4.64,4.64,0,0,1,3.13-1.14,5.4,5.4,0,0,1,2.57.63,7,7,0,0,1,2,1.5l-1.11,1.29a4.59,4.59,0,0,0-3.39-1.68,2.81,2.81,0,0,0-1.87.62,1.9,1.9,0,0,0-.74,1.51,1.87,1.87,0,0,0,.42,1.23,3.48,3.48,0,0,0,1,.84,16.93,16.93,0,0,0,1.71.78,19.24,19.24,0,0,1,2.24,1.07,4.47,4.47,0,0,1,1.45,1.36,3.77,3.77,0,0,1,.6,2.19,3.83,3.83,0,0,1-.6,2.09,4.23,4.23,0,0,1-1.68,1.5,5.37,5.37,0,0,1-2.49.55A6,6,0,0,1,1098.61,663.39Z"/></g><g id="Layer_25" data-name="Layer 25"><path class="cls-1" d="M637.59,742.28a22.87,22.87,0,0,0-4.89-4.61c-5.77-4-13.57-5.59-20.89-4.6a40.28,40.28,0,0,0,1.24-27.18c-5.67-18.13-22.8-28.79-42.86-33.32-16.67-3.75-35.2-1.25-49.75,6.93a15.64,15.64,0,0,0-9.73-11.42A21,21,0,0,0,500.27,667c-.81.11-4.52.62-6.74,2.43-6.56-18.69-24-30.17-44.54-30.35-15.43-.14-45.37,5.1-56.81,35a45.18,45.18,0,0,0-2,15.08,30,30,0,0,0-21.05.27,25,25,0,0,0-13.48,12.44,32.6,32.6,0,0,0-10.9-4.46c-14.4-3.26-30.73,1-40.79,10.65-9.31,8.9-12.88,22-9.4,33.63-14.09,1.2-20.43,16.46-21,28.77-.41,8.88,4.3,15.78,12.63,19.23,15,6.21,34.48,3.54,50.36,4,33.72.9,67.36,3.51,101.09,4.21q21.81.5,43.64.2c14.49-.23,29-.76,43.45-1.69q12.84-.84,25.67-2.1c1.78-.17,3.56-.36,5.34-.56,6.27-.7,12.45-2.05,18.78-2.4,17.4-.95,36.09,4.85,52.51-3.31a27.52,27.52,0,0,0,14.29-16.87C644,762.06,643.64,749.94,637.59,742.28Z"/><circle class="cls-7" cx="555.66" cy="671.31" r="6.01"/><rect class="cls-8" x="552.6" y="670.49" width="6.24" height="1.53"/><circle class="cls-7" cx="397.09" cy="664.32" r="6.01"/><rect class="cls-8" x="394.03" y="663.49" width="6.24" height="1.53"/><circle class="cls-7" cx="321.13" cy="726.39" r="6.01"/><rect class="cls-8" x="318.07" y="725.57" width="6.24" height="1.53"/><circle class="cls-7" cx="346.64" cy="790.92" r="6.01"/><rect class="cls-8" x="343.58" y="790.1" width="6.24" height="1.53"/><circle class="cls-7" cx="553.44" cy="791.69" r="6.01"/><rect class="cls-8" x="550.38" y="790.86" width="6.24" height="1.53"/><circle class="cls-7" cx="620.07" cy="736.61" r="6.01"/><rect class="cls-8" x="617" y="735.79" width="6.24" height="1.53"/><circle class="cls-9" cx="455.03" cy="784.96" r="6.01"/><path class="cls-8" d="M458.06,786H456v2.07h-2V786h-2V784h2v-2h2v2h2.1Z"/><circle class="cls-9" cx="469.36" cy="643.08" r="6.01"/><path class="cls-8" d="M472.39,644.11h-2.1v2.07h-2v-2.07h-2v-2h2v-2h2v2h2.1Z"/><circle class="cls-9" cx="277.48" cy="760.7" r="6.01"/><path class="cls-8" d="M280.51,761.72h-2.1v2.07h-2v-2.07h-2v-1.94h2v-2.06h2v2.06h2.1Z"/><circle class="cls-9" cx="633.28" cy="781.34" r="6.01"/><path class="cls-8" d="M636.32,782.36h-2.11v2.07h-2v-2.07h-2v-1.94h2v-2.06h2v2.06h2.11Z"/><path class="cls-10" d="M572.29,721.67A16.07,16.07,0,1,1,583.58,702,16,16,0,0,1,572.29,721.67Z"/><path class="cls-11" d="M605.6,722.7q-7.38-4.23-14.78-8.44a4.66,4.66,0,0,0-2.27-.65c-.11,0-.22,0-.37,0a21.29,21.29,0,0,0-.8-16.25,20.9,20.9,0,0,0-11.87-11.05,21.54,21.54,0,0,0-21.12,37,20.68,20.68,0,0,0,13.84,4.71,21.44,21.44,0,0,0,16.17-7.69,5.13,5.13,0,0,0,2,2l11.45,6.53c1.31.74,2.6,1.52,4,2.16a4.53,4.53,0,0,0,3.76-8.23Zm-33.31-1A16.07,16.07,0,1,1,583.58,702,16,16,0,0,1,572.29,721.67Z"/><text class="cls-12" transform="translate(378.33 726.08)"><tspan class="cls-13">s</tspan><tspan x="12.44" y="0">oil o</tspan><tspan class="cls-14" x="74.66" y="0">r</tspan><tspan x="83.38" y="0">ganic </tspan><tspan class="cls-15" x="37.14" y="36.85">m</tspan><tspan x="63.52" y="36.85">at</tspan><tspan class="cls-14" x="90.98" y="36.85">t</tspan><tspan x="98.87" y="36.85">er</tspan></text><path class="cls-16" d="M858.45,537.32a97.49,97.49,0,1,1-137.82-3.66A97.48,97.48,0,0,1,858.45,537.32Z"/><line class="cls-17" x1="557.94" y1="693.65" x2="724.53" y2="530.16"/><path class="cls-18" d="M569.61,690.19a15.87,15.87,0,1,1-17.45,14.11A15.87,15.87,0,0,1,569.61,690.19Z"/><line class="cls-19" x1="566.28" y1="721.75" x2="797.11" y2="701.44"/><circle class="cls-1" cx="787.71" cy="604.4" r="97.9"/><g class="cls-20"><path class="cls-1" d="M778.06,492a45.86,45.86,0,0,1-20,17.64c.81-.36,5.8,7.43,6.32,8.29a52.24,52.24,0,0,1,4.7,9.8c3.74,10.45,3.37,19.88.24,30.46-2.24,7.59-6.81,16.73-13.19,21.65,26.72,9.77,47.4,33.45,57.32,60.11a101,101,0,0,1,6,41.87A114.17,114.17,0,0,1,815.94,703c-.55,2.15-1,4.33-1.7,6.46a16,16,0,0,1-1.16,3.16c-.35.61-1.35.64-2,.7-.88.09-1.75.06-2.64.14-1.85.17-3.7.27-5.56.29-2.54,0-5.08,0-7.62.11-3.4.1-6.82-.11-10.21,0a15.32,15.32,0,0,1-2.69-.4l-2.74-.45-5.39-.92-.74-.12a77.32,77.32,0,0,1-8.44-1.69c-2.53-.71-5-1.68-7.44-2.64-7.65-3-15.33-6.07-22.44-10.25-6.7-3.94-12-9.32-17.87-14.24-5.41-4.53-9.85-10.71-13.56-16.65C696,654,691,639.87,687.12,625.71a74.08,74.08,0,0,1-2.44-11.18,83.42,83.42,0,0,1-.2-13.32l.24-6.34c.27-7.37.56-14.79,2.18-22,1.85-8.23,5.67-14.65,9.94-21.68,8-13.22,16.39-26.78,28.75-36.08,4.13-3.1,6.14-7.12,10.41-10A77.33,77.33,0,0,1,749.07,498a74.5,74.5,0,0,1,14.59-4.53,71.54,71.54,0,0,1,7.57-1.11C772.05,492.26,777.78,492.48,778.06,492Z"/></g><circle class="cls-21" cx="733.63" cy="555.74" r="11.95"/><path class="cls-22" d="M737.74,547.11c.64-.68,1.3-1.42,1.94-2.13a2.3,2.3,0,0,0,.73-1.31.74.74,0,0,0-.74-.77.91.91,0,0,0-.87,1l-1.15-.35a2,2,0,0,1,2.06-1.86,1.91,1.91,0,0,1,1.94,1.91,2.86,2.86,0,0,1-.94,1.86l-.88,1,1.77,0,0,1.19-3.84-.12Z"/><path class="cls-22" d="M745.44,545.69l-1.14,0,0,1.16-.94,0,0-1.16-1.12,0,0-.92,1.12,0,0-1.13.94,0,0,1.13,1.14,0Z"/><circle class="cls-23" cx="775.68" cy="679" r="9.95"/><text class="cls-24" transform="matrix(1, 0.03, -0.03, 1, 768.6, 681.45)">Mn</text><path class="cls-25" d="M780.67,672.38l1.61-1.76a1.91,1.91,0,0,0,.6-1.08.62.62,0,0,0-.61-.64.75.75,0,0,0-.72.81l-.95-.29a1.64,1.64,0,0,1,1.7-1.53,1.57,1.57,0,0,1,1.6,1.57,2.4,2.4,0,0,1-.77,1.54l-.73.83,1.46,0,0,1-3.17-.09Z"/><path class="cls-25" d="M787,671.21l-.95,0,0,1-.78,0,0-1-.92,0,0-.76.93,0,0-.93.77,0,0,.93.94,0Z"/><circle class="cls-26" cx="780.96" cy="571.04" r="8.99"/><path class="cls-27" d="M786.2,565.69c.57-.39,1.18-.83,1.75-1.24a1.63,1.63,0,0,0,.74-.84.56.56,0,0,0-.41-.68.69.69,0,0,0-.8.58l-.77-.44a1.48,1.48,0,0,1,1.79-1,1.43,1.43,0,0,1,1.11,1.7,2.14,2.14,0,0,1-1,1.21l-.8.59,1.28.32-.22.86-2.78-.7Z"/><path class="cls-27" d="M792,565.89l-.83-.21-.21.84-.68-.17.21-.84-.81-.21.17-.66.81.2.2-.81.69.17-.21.81.83.21Z"/><text class="cls-28" transform="matrix(0.97, 0.24, -0.24, 0.97, 775.51, 572.64)">Zn</text><line class="cls-29" x1="797.38" y1="617.55" x2="795.64" y2="617.11"/><text class="cls-30" transform="translate(727.05 559.97) rotate(0.29)"><tspan class="cls-31">F</tspan><tspan x="5.71" y="0">e</tspan></text><circle class="cls-32" cx="788.38" cy="617.28" r="13.5"/><text class="cls-33" transform="matrix(0.98, 0.18, -0.18, 0.98, 776.7, 619.35)">NH4</text><path class="cls-34" d="M803.22,611l-2-.36-.37,2.06-1.67-.3.36-2.06-2-.36.29-1.63,2,.36.36-2,1.67.3-.35,2,2,.36Z"/><circle class="cls-35" cx="772.92" cy="531.28" r="9.48"/><text class="cls-36" transform="matrix(0.98, 0.18, -0.18, 0.98, 767.96, 535.21)">K</text><path class="cls-37" d="M782.52,525.8l-1.64-.29-.29,1.63-1.56-.28.29-1.63-1.58-.28.27-1.53,1.58.28.29-1.61,1.56.27-.29,1.62,1.64.29Z"/><circle class="cls-38" cx="852.92" cy="610.67" r="12.04"/><path class="cls-39" d="M858.52,602.21c.75-.74,1.56-1.53,2.27-2.25a1.89,1.89,0,0,0,.68-1.17.65.65,0,0,0-.62-.67c-.48,0-.78.43-.79,1l-1.7-.52a2.45,2.45,0,0,1,2.53-2.26,2.32,2.32,0,0,1,2.39,2.29,3.13,3.13,0,0,1-1.19,2.22c-.24.25-.51.54-.74.8l1.83,0,0,1.73-4.65-.14Z"/><path class="cls-39" d="M867.62,601.13l-1.3,0,0,1.29-1.24,0,0-1.29-1.24,0,0-1.21,1.24,0,0-1.28,1.23,0,0,1.28,1.31,0Z"/><path class="cls-40" d="M759.92,643.3l-1.12-.2-.19,1.1-1.06-.19.2-1.1-1.07-.19.19-1,1.06.19.2-1.09,1,.18-.19,1.1,1.11.19Z"/><circle class="cls-41" cx="743.73" cy="650.82" r="12.31"/><text class="cls-42" transform="matrix(0.98, 0.18, -0.18, 0.98, 734.44, 652.57)"><tspan class="cls-43">M</tspan><tspan x="9.84" y="0">g</tspan></text><path class="cls-44" d="M750.37,644.14c.91-.66,1.89-1.37,2.75-2A2.05,2.05,0,0,0,754,641a.68.68,0,0,0-.56-.8c-.5-.09-.88.33-1,.87l-1.72-.81a2.6,2.6,0,0,1,3-2,2.49,2.49,0,0,1,2.17,2.79,3.36,3.36,0,0,1-1.61,2.16c-.28.22-.62.48-.9.72l1.92.34-.32,1.83-4.89-.87Z"/><path class="cls-45" d="M808.51,660l-3.3-2.24,3.4-1.3c0-.21,0-.41,0-.63a3.64,3.64,0,0,0-.25-2.12,3.68,3.68,0,0,0-7,1.23,44.68,44.68,0,0,0,1.75,16.71h0c.05.13.09.26.15.38a3.67,3.67,0,1,0,6.72-3S808.59,666.05,808.51,660Z"/><path class="cls-46" d="M709.49,590a3.1,3.1,0,0,1,.4-3.86A3.31,3.31,0,0,1,712,585a2.57,2.57,0,0,1,2,.66,2.67,2.67,0,0,1,.31.35,3.13,3.13,0,0,1-.41,3.87,3.3,3.3,0,0,1-2.11,1.09,2.53,2.53,0,0,1-2-.65A2.11,2.11,0,0,1,709.49,590Z"/><path class="cls-46" d="M709.91,597.66a3.22,3.22,0,0,1-2.23-3.26,3.48,3.48,0,0,1,.82-2.26,2.42,2.42,0,0,1,1.9-.84,1.76,1.76,0,0,1,.46.06,3.21,3.21,0,0,1,2.22,3.25,3.39,3.39,0,0,1-.82,2.26,2.38,2.38,0,0,1-1.9.85A2.22,2.22,0,0,1,709.91,597.66Z"/><path class="cls-46" d="M709.78,604.56a3.22,3.22,0,0,1-1.93-3.44,3.37,3.37,0,0,1,1-2.16,2.36,2.36,0,0,1,2-.67,2.42,2.42,0,0,1,.45.1,3.23,3.23,0,0,1,1.93,3.44,3.42,3.42,0,0,1-1,2.17,2.38,2.38,0,0,1-2,.66A2.42,2.42,0,0,1,709.78,604.56Z"/><path class="cls-46" d="M705.91,610.25a3.19,3.19,0,0,1-.53-3.89,3.32,3.32,0,0,1,1.77-1.58,2.48,2.48,0,0,1,2.1.15,2.16,2.16,0,0,1,.38.27,3.17,3.17,0,0,1,.53,3.88,3.28,3.28,0,0,1-1.77,1.58,2.48,2.48,0,0,1-2.1-.15A2.33,2.33,0,0,1,705.91,610.25Z"/><path class="cls-46" d="M715.49,581.81l2.58-.11a2.74,2.74,0,0,0-.8-2.05,1.71,1.71,0,0,0-.26-.21,2.37,2.37,0,0,0-2-.31,3.38,3.38,0,0,0-1.93,1.44,3.16,3.16,0,0,0,.18,4,2.88,2.88,0,0,0,.27.22,2.42,2.42,0,0,0,2,.31,3.34,3.34,0,0,0,1.46-.87Z"/><text class="cls-30" transform="translate(844.77 614.33) rotate(0.29)"><tspan class="cls-47">C</tspan><tspan x="7.57" y="0">a</tspan></text><path class="cls-48" d="M837.8,580.52l-8.79,7.2a3,3,0,1,0,3.69,4.53l8.79-7.19a3.24,3.24,0,0,0,.81-4.45A3.2,3.2,0,0,0,837.8,580.52Z"/><path class="cls-49" d="M815.22,603.81s1.51,1.85,5.66-1.55a4.07,4.07,0,0,0,1.42-3.89,5.27,5.27,0,0,1,2.26-5.08c3.64-2.81,4.85-1.51,4.85-1.51"/><path class="cls-49" d="M816.69,601.68a4,4,0,0,1,4.57-1.48s2.37,1.45,6.15-2.34c3.51-3.52,3-5.73,3-5.73"/><path class="cls-49" d="M828.55,590.91a7.19,7.19,0,0,1-2.59,4.2s-2.4,1.84-4.11.68-3.21.47-3.91,1a8,8,0,0,0-2.25,3.51"/><path class="cls-49" d="M830.34,590.87c-3.22-1.84-5.21-.57-5.21-.57a4,4,0,0,0-1.68,4.65c.9,3.35-1.26,3.69-2,4.1a5.57,5.57,0,0,1-4.38-.35"/><polygon class="cls-50" points="801.97 538.2 805.46 544.55 812.94 544.65 816.92 538.41 813.42 532.06 805.95 531.96 801.97 538.2"/><line class="cls-50" x1="812.94" y1="544.65" x2="815.4" y2="549.13"/><line class="cls-50" x1="802.57" y1="548.91" x2="805.46" y2="544.55"/><line class="cls-50" x1="801.97" y1="538.2" x2="796.7" y2="538.08"/><line class="cls-50" x1="816.92" y1="538.41" x2="822.19" y2="538.53"/><line class="cls-50" x1="803.48" y1="527.48" x2="805.95" y2="531.96"/><polygon class="cls-50" points="814.04 561.92 821.52 562.56 825.82 556.39 822.63 549.59 815.14 548.96 810.85 555.12 814.04 561.92"/><line class="cls-50" x1="825.82" y1="556.39" x2="831.1" y2="556.84"/><line class="cls-50" x1="823.69" y1="567.39" x2="821.52" y2="562.56"/><line class="cls-50" x1="814.04" y1="561.92" x2="810.97" y2="566.24"/><line class="cls-50" x1="822.62" y1="549.59" x2="825.69" y2="545.27"/><line class="cls-50" x1="805.57" y1="554.67" x2="810.85" y2="555.12"/><polygon class="cls-50" points="840.44 565.68 845.5 560.13 843.22 552.97 835.88 551.36 830.82 556.92 833.1 564.08 840.44 565.68"/><line class="cls-50" x1="843.21" y1="552.97" x2="846.78" y2="549.05"/><line class="cls-50" x1="813.47" y1="531.86" x2="816.69" y2="527.65"/><line class="cls-50" x1="850.65" y1="561.35" x2="845.5" y2="560.13"/><line class="cls-50" x1="840.44" y1="565.68" x2="842" y2="570.74"/><line class="cls-50" x1="835.88" y1="551.36" x2="834.31" y2="546.3"/><line class="cls-50" x1="829.53" y1="567.99" x2="833.1" y2="564.08"/><polygon class="cls-50" points="724.12 624.42 731.05 622.33 732.71 615.03 727.43 609.84 720.49 611.94 718.84 619.23 724.12 624.42"/><line class="cls-50" x1="732.71" y1="615.03" x2="737.6" y2="613.56"/><line class="cls-50" x1="734.72" y1="626.06" x2="731.05" y2="622.33"/><line class="cls-50" x1="724.12" y1="624.42" x2="722.91" y2="629.55"/><line class="cls-50" x1="727.43" y1="609.84" x2="728.64" y2="604.71"/><line class="cls-50" x1="713.94" y1="620.71" x2="718.84" y2="619.23"/><polygon class="cls-50" points="749.83 617.54 752 610.36 746.87 604.88 739.55 606.58 737.38 613.77 742.51 619.25 749.83 617.54"/><line class="cls-50" x1="746.87" y1="604.87" x2="748.4" y2="599.8"/><line class="cls-50" x1="757.18" y1="609.24" x2="752.01" y2="610.36"/><line class="cls-50" x1="749.83" y1="617.54" x2="753.42" y2="621.44"/><line class="cls-50" x1="739.55" y1="606.58" x2="735.96" y2="602.69"/><line class="cls-50" x1="740.98" y1="624.32" x2="742.51" y2="619.25"/><polygon class="cls-50" points="758.99 592.5 754.61 586.4 747.13 587.14 744.04 593.99 748.42 600.09 755.9 599.35 758.99 592.5"/><line class="cls-50" x1="747.13" y1="587.14" x2="744.04" y2="582.84"/><line class="cls-50" x1="756.88" y1="581.61" x2="754.61" y2="586.4"/><line class="cls-50" x1="758.99" y1="592.5" x2="764.27" y2="592.03"/><line class="cls-50" x1="744.04" y1="593.99" x2="738.77" y2="594.47"/><line class="cls-50" x1="758.99" y1="603.65" x2="755.9" y2="599.35"/><polygon class="cls-50" points="819.76 651.19 826.99 651.58 831.03 645.29 827.84 638.61 820.6 638.22 816.56 644.51 819.76 651.19"/><line class="cls-50" x1="831.03" y1="645.29" x2="836.14" y2="645.57"/><line class="cls-50" x1="829.16" y1="656.34" x2="826.99" y2="651.58"/><line class="cls-50" x1="819.76" y1="651.19" x2="816.87" y2="655.6"/><line class="cls-50" x1="827.84" y1="638.61" x2="830.73" y2="634.2"/><line class="cls-50" x1="811.46" y1="644.23" x2="816.56" y2="644.51"/><polygon class="cls-50" points="846.38 653.57 850.88 647.55 847.91 640.65 840.46 639.76 835.96 645.78 838.92 652.68 846.38 653.57"/><line class="cls-50" x1="847.91" y1="640.65" x2="851.09" y2="636.41"/><line class="cls-50" x1="856.12" y1="648.27" x2="850.88" y2="647.55"/><line class="cls-50" x1="846.38" y1="653.57" x2="848.42" y2="658.46"/><line class="cls-50" x1="840.46" y1="639.76" x2="838.41" y2="634.87"/><line class="cls-50" x1="835.75" y1="656.92" x2="838.92" y2="652.68"/><line class="cls-50" x1="820.8" y1="638.28" x2="818.93" y2="633.32"/></g><g id="Layer_26" data-name="Layer 26"><ellipse class="cls-8" cx="460.47" cy="355.87" rx="103.87" ry="20.22"/><g id="Layer_1-2" data-name="Layer 1-2"><g id="white_imagery_text" data-name="white imagery text"><path class="cls-51" d="M459.71,318.92c-157.17-.06-133.17,44.42-133.17,44.42l115.07,88,2,109.44,37.66-30,0-80.86L593,363.45S617.1,319,459.71,318.92Zm0,57.17S355.43,375,355.44,355.66,459.7,335.88,459.7,335.88s103.36-.42,103.35,20.14S459.68,376.09,459.68,376.09Z"/></g></g><path class="cls-52" d="M404.15,331.13a7.86,7.86,0,0,1,5.73,9.38h0a13.82,13.82,0,0,1-1.67,3.73,18.59,18.59,0,0,0-1,1.9,19.68,19.68,0,0,0-1,3.06,13.92,13.92,0,0,0-.38,2.36,20.28,20.28,0,0,0,0,2.33,15.21,15.21,0,0,1-.22,4.34,7.32,7.32,0,0,1-1.41,2.88,7.86,7.86,0,0,1-13.81-6.72c.07-.26.15-.53.24-.79a19.31,19.31,0,0,1,1.7-3.37,15.33,15.33,0,0,0,1.56-3.18c.07-.21.13-.43.19-.65a20.7,20.7,0,0,0,.38-5.18c0-.85,0-1.71,0-2.62a8.21,8.21,0,0,1,.23-1.63l0-.06a8,8,0,0,1,2.05-3.69S399,330.2,404.15,331.13Z"/><path class="cls-53" d="M398.05,334.6a3.58,3.58,0,0,0-.26.29,6.14,6.14,0,0,0-1.26,2.48h0a6.37,6.37,0,0,0-.19,1.31c0,.86,0,1.7,0,2.52a20.11,20.11,0,0,1-.65,6.41,16.72,16.72,0,0,1-1.74,3.58,18.3,18.3,0,0,0-1.55,3.06,5.89,5.89,0,0,0,.37,4.78,6,6,0,0,0,9.94.9c1.42-1.77,1.32-3.8,1.22-5.95a21.7,21.7,0,0,1,0-2.55,18.69,18.69,0,0,1,1.56-6,18.2,18.2,0,0,1,1.11-2.1,12.68,12.68,0,0,0,1.47-3.22,5.79,5.79,0,0,0-.7-4.42,5.88,5.88,0,0,0-3.66-2.7,2.3,2.3,0,0,0-.28-.06A5.87,5.87,0,0,0,398.05,334.6Z"/><path class="cls-52" d="M451.83,380.42a5.44,5.44,0,0,1,1.31,3.94,5.38,5.38,0,0,1-1.83,3.76h0a9.6,9.6,0,0,1-2.47,1.46,11.36,11.36,0,0,0-1.35.69,13.05,13.05,0,0,0-1.83,1.33,10.11,10.11,0,0,0-1.17,1.2c-.32.4-.62.86-.93,1.34a10.42,10.42,0,0,1-1.88,2.4,5.06,5.06,0,0,1-2,1.08,5.51,5.51,0,0,1-5.19-9.44c.14-.12.3-.24.45-.35a14,14,0,0,1,2.34-1.25,10.89,10.89,0,0,0,2.19-1.19q.18-.13.36-.3a14.41,14.41,0,0,0,2.32-2.81c.34-.49.69-1,1.07-1.49a5.73,5.73,0,0,1,.79-.84l0,0a5.65,5.65,0,0,1,2.67-1.27S449.23,377.79,451.83,380.42Z"/><path class="cls-54" d="M446.92,379.94l-.26.06a4.39,4.39,0,0,0-1.73.91h0a4.6,4.6,0,0,0-.64.68c-.36.48-.7,1-1,1.43a13.84,13.84,0,0,1-3,3.41,11.81,11.81,0,0,1-2.45,1.35,14,14,0,0,0-2.13,1.12,4.17,4.17,0,0,0-1.72,2.9,4.17,4.17,0,0,0,5.34,4.53c1.52-.44,2.29-1.64,3.1-2.91a16.72,16.72,0,0,1,1-1.47,13.19,13.19,0,0,1,3.34-2.83,13.69,13.69,0,0,1,1.48-.75,8.88,8.88,0,0,0,2.15-1.25,4,4,0,0,0,1.38-2.81,4.12,4.12,0,0,0-1-3l-.13-.14A4.13,4.13,0,0,0,446.92,379.94Z"/><path class="cls-52" d="M431.59,333.54a2.73,2.73,0,0,1,.65,1.94,2.69,2.69,0,0,1-.9,1.84h0a5.23,5.23,0,0,1-1.21.71,5.09,5.09,0,0,0-.66.34,6.3,6.3,0,0,0-.9.65,4.48,4.48,0,0,0-.57.59,6.76,6.76,0,0,0-.46.65,5.15,5.15,0,0,1-.92,1.18,2.63,2.63,0,0,1-1,.53,2.7,2.7,0,0,1-2.54-4.63,1.84,1.84,0,0,1,.22-.17,6.64,6.64,0,0,1,1.14-.61,5.45,5.45,0,0,0,1.07-.58l.18-.15a6.65,6.65,0,0,0,1.14-1.38l.52-.73a3,3,0,0,1,.39-.41l0,0a2.74,2.74,0,0,1,1.31-.62A2.54,2.54,0,0,1,431.59,333.54Z"/><path class="cls-55" d="M429.19,333.31l-.13,0a2.19,2.19,0,0,0-.85.45h0a2,2,0,0,0-.31.33c-.18.23-.35.47-.5.7a7,7,0,0,1-1.46,1.67,5.43,5.43,0,0,1-1.2.66,7.41,7.41,0,0,0-1,.55,2.07,2.07,0,0,0-.36,3,2.07,2.07,0,0,0,2.13.62,2.76,2.76,0,0,0,1.52-1.43c.16-.24.32-.49.5-.71a6.36,6.36,0,0,1,1.64-1.39,7,7,0,0,1,.72-.37,4.3,4.3,0,0,0,1.06-.61,2,2,0,0,0,.68-1.38,2.07,2.07,0,0,0-.5-1.49l-.06-.07A2,2,0,0,0,429.19,333.31Z"/><path class="cls-56" d="M474.42,360.74a3.32,3.32,0,0,1,3.81,1.72,3.75,3.75,0,0,1,.47,2.57,2.73,2.73,0,0,1-1.29,1.88,2.67,2.67,0,0,1-.46.2,3.31,3.31,0,0,1-3.81-1.72,3.73,3.73,0,0,1-.46-2.57,2.73,2.73,0,0,1,1.29-1.88A2.57,2.57,0,0,1,474.42,360.74Z"/><path class="cls-56" d="M471.39,354.17a3.31,3.31,0,0,1,3.37,2.48,3.68,3.68,0,0,1-.08,2.6,2.69,2.69,0,0,1-1.65,1.57,2.16,2.16,0,0,1-.49.11,3.32,3.32,0,0,1-3.37-2.48,3.83,3.83,0,0,1,.08-2.61,2.73,2.73,0,0,1,1.66-1.57A2.05,2.05,0,0,1,471.39,354.17Z"/><path class="cls-56" d="M464.08,350.41a3.32,3.32,0,0,1,4.16-.36,3.77,3.77,0,0,1,1.67,2,2.75,2.75,0,0,1-.2,2.27,3,3,0,0,1-.3.4,3.33,3.33,0,0,1-4.17.37,3.78,3.78,0,0,1-1.66-2,2.77,2.77,0,0,1,.2-2.28A3,3,0,0,1,464.08,350.41Z"/><path class="cls-56" d="M487.09,388.69a5.64,5.64,0,0,1,5.77,4.13,6.33,6.33,0,0,1-.09,4.42A4.58,4.58,0,0,1,490,400a4.45,4.45,0,0,1-.82.19c-2.43.31-4.85-1.43-5.77-4.14a6.33,6.33,0,0,1,.09-4.42,4.61,4.61,0,0,1,2.77-2.7A3.9,3.9,0,0,1,487.09,388.69Z"/><path class="cls-56" d="M474.61,382.47c1.61-1.83,4.58-2.13,7.05-.7a6.32,6.32,0,0,1,2.87,3.37,4.61,4.61,0,0,1-.3,3.86,3.75,3.75,0,0,1-.49.69c-1.61,1.84-4.58,2.13-7.06.71a6.37,6.37,0,0,1-2.86-3.38,4.62,4.62,0,0,1,.3-3.86A4.57,4.57,0,0,1,474.61,382.47Z"/><path class="cls-56" d="M463.81,376.08c1.77-1.69,4.76-1.72,7.09-.07a6.33,6.33,0,0,1,2.54,3.62,4.6,4.6,0,0,1-.64,3.82,4.87,4.87,0,0,1-.55.64,5.64,5.64,0,0,1-7.09.06,6.32,6.32,0,0,1-2.55-3.62,4.62,4.62,0,0,1,.65-3.82A4.07,4.07,0,0,1,463.81,376.08Z"/><path class="cls-56" d="M458.15,364.65c2.28-.89,5.05.22,6.59,2.63a6.28,6.28,0,0,1,1,4.31,4.6,4.6,0,0,1-2,3.29,4.4,4.4,0,0,1-.75.38c-2.28.89-5.05-.22-6.59-2.63a6.33,6.33,0,0,1-1-4.31,4.62,4.62,0,0,1,2-3.29A4.4,4.4,0,0,1,458.15,364.65Z"/><path class="cls-57" d="M538.22,370.24A25.14,25.14,0,0,0,532,356.52c-12.12-13.88-26.1-1.6-26.1-1.6s-13,10.78-3,23.21S522.7,384,524.9,382.6c0,0,10.25-7,2.62-19.34,0,0-7.91-10.88-17.89-3.43,0,0-8.48,6.5-1.94,14.16,0,0,2.53,3.37,6.08,2.71,0,0,2.1-.59,0-1.65,0,0-6.37-2.08-3.74-8.65,0,0,3.58-7.73,11-2.13,0,0,7.38,5.58,2,12.37,0,0-4.77,6.17-12.28,1.86-9.43-5.41-4.83-14.89-4.83-14.89s2.76-8.47,13.93-7.41c0,0,11.71,1.24,13.47,14.85,0,0,1.46,6.49.71,11.4,0,0-.25,5.34,1.33,3.85a29.68,29.68,0,0,0,3-11.89Z"/><path class="cls-58" d="M446,353.45c-1.2-2.33-4.82-1.6-4.82-1.6s-4.15,1.63-4-4.1c.17-4.79-3.15-4.14-3.15-4.14a2.51,2.51,0,0,0-2.67,2.17c-1.3,4.92-4.94,3-4.94,3-3.61-1.71-5.52.59-5.52.59-3.07,4.34,2.26,8.09,2.26,8.09,3,2.57.2,3.75.2,3.75s-2.86,1.38-1,5.72,5.72,0,5.72,0c4.94-3.75,9.18.69,9.18.69s4.64,5.31,7.11,3.36c3.26-2.56-1.08-7.3-1.08-7.3-2.77-2.47-.6-3.85-.6-3.85a19.2,19.2,0,0,0,2.25-2.46C446.59,355.08,446,353.45,446,353.45Zm-10.87,6.27c-1.57.88-3.4.59-4.1-.65s0-2.95,1.59-3.83,3.4-.59,4.09.64S436.74,358.84,435.17,359.72Z"/><path class="cls-58" d="M492.62,352.65c1.07.23,1.8-1.14,1.8-1.14s.58-1.78,2.38-.18c1.51,1.33,2.19.08,2.19.08a1,1,0,0,0,0-1.44c-1.25-1.73.36-2.39.36-2.39a1.88,1.88,0,0,0,1.28-1.95c-.59-2.15-3.22-1.42-3.22-1.42-1.63.27-1.27-.94-1.27-.94s.32-1.3-1.59-1.85-1.53,1.85-1.53,1.85a2.9,2.9,0,0,1-2.68,2.79s-3,.08-3,1.4c0,1.74,2.65,1.6,2.65,1.6,1.54-.23,1.41.84,1.41.84a7.46,7.46,0,0,0,.19,1.38A2,2,0,0,0,492.62,352.65Zm.87-5.2a1.11,1.11,0,1,1,.82,1.54A1.24,1.24,0,0,1,493.49,347.45Z"/><path class="cls-59" d="M482.83,342.23A34.14,34.14,0,0,1,489.5,334a3.72,3.72,0,0,0-3-6.66,3.59,3.59,0,0,0-1.77,1c-9.91,9-10.75,14.17-10.75,14.17a3.79,3.79,0,0,0,0,2,3.89,3.89,0,0,0,7,1.34"/><path class="cls-59" d="M407.21,374l-.47-.35a3.39,3.39,0,1,1,3.67-5.68,41.24,41.24,0,0,1,10.79,11.12h0l.19.33a3.39,3.39,0,1,1-6.08,3s-1.27-2.77-5.52-6.41"/><path class="cls-59" d="M457.62,330.88c.1-.18.19-.33.28-.51a3.39,3.39,0,1,1,6.1,2.92,41,41,0,0,1-9.65,12.11l0,0-.3.23a3.39,3.39,0,1,1-3.75-5.64s2.59-1.62,5.67-6.29"/><rect class="cls-60" x="330.69" y="467.06" width="276.54" height="43.1"/><text class="cls-61" transform="translate(378.93 498.55) rotate(0.02)">mic<tspan class="cls-62" x="45.96" y="0">r</tspan><tspan x="53.52" y="0">obial fil</tspan><tspan class="cls-63" x="146.16" y="0">t</tspan><tspan x="152.88" y="0">er</tspan></text></g><g id="Layer_27" data-name="Layer 27"><text class="cls-64" transform="translate(782.83 75.85) rotate(-3.17)">a</text><text class="cls-64" transform="matrix(0.99, 0.12, -0.12, 0.99, 801.39, 74.79)">n</text><text class="cls-64" transform="matrix(0.97, 0.25, -0.25, 0.97, 818.79, 77.18)">i</text><text class="cls-64" transform="translate(827.56 78.55) rotate(24.84)">m</text><text class="cls-64" transform="matrix(0.79, 0.61, -0.61, 0.79, 851.89, 90.2)">a</text><text class="cls-64" transform="matrix(0.71, 0.71, -0.71, 0.71, 866.58, 101.92)">l</text><text class="cls-64" transform="translate(872.29 107.58) rotate(50.18)"> </text><text class="cls-64" transform="matrix(0.56, 0.83, -0.83, 0.56, 878.53, 114.97)">r</text><text class="cls-64" transform="translate(884.48 123.28) rotate(63.63)">e</text><text class="cls-64" transform="matrix(0.31, 0.95, -0.95, 0.31, 891.72, 137.94)">s</text><text class="cls-64" transform="translate(895.85 150.95) rotate(78.4)">i</text><text class="cls-64" transform="translate(898.03 159.67) rotate(86.16)">d</text><text class="cls-64" transform="translate(899.3 178.23) rotate(96.39)">u</text><text class="cls-64" transform="translate(897.42 195.5) rotate(106.13)">e</text><text class="cls-64" transform="matrix(-0.41, 0.91, -0.91, -0.41, 892.84, 211.23)">s</text><path class="cls-65" d="M877.44,179.82a80.67,80.67,0,1,1-74.7-86.22A80.67,80.67,0,0,1,877.44,179.82Z"/><path class="cls-66" d="M795.18,151.84c1.63,2,3.2,5.19,1.2,6.88a5.06,5.06,0,0,1-2.87.9c-6.69.57-14.58-.38-19,4.54-3.28,3.65-3.07,9.17-1.73,13.85-3.82-.42-8.55,2.88-10.8,5.9a10.56,10.56,0,0,0-1.06,10.64c-9.71-1.23-20.52,6.5-21.19,16a12.23,12.23,0,0,0,2.58,8.84c2.26,2.64,5.78,3.88,9.16,4.92a185,185,0,0,0,70.45,7.32c5.21-.47,10.61-1.24,14.94-4.09,6.6-4.37,9.22-13.6,5.85-20.64s-12.33-11.06-20-9c4.78-2.57,6.45-10.38,4.34-15.28a11.76,11.76,0,0,0-13.52-6.28c4.72-6,2.22-17.14-4.61-20.77C804.37,153.15,799.48,154.63,795.18,151.84Z"/><path class="cls-67" d="M833.77,178.59a6.23,6.23,0,0,0,3.52-.88,7.09,7.09,0,0,0,3.32-3,7.34,7.34,0,0,0,.67-4.63,6.06,6.06,0,0,0-.42-1.33,15.37,15.37,0,0,0-2.87-3.63,7.39,7.39,0,0,1-2.22-4,4.93,4.93,0,0,1,2.26-4.54,6.79,6.79,0,0,1,5.14-.81c2.12.46,4.09,1.76,6.25,1.64a5.69,5.69,0,0,0,2.89-1,7.56,7.56,0,0,0,3.14-5.69,9.28,9.28,0,0,0-2-6.24"/><path class="cls-68" d="M847.24,140.76l.58.35a7.09,7.09,0,0,0,2,.84,1.46,1.46,0,0,0,1.14-.15,1.51,1.51,0,0,0,.52-1.46,8.79,8.79,0,0,0-1.12-2.8,4.28,4.28,0,0,0-.94-1.21,2.45,2.45,0,0,0-2.91-.15,4.69,4.69,0,0,0-.91.87,1.67,1.67,0,0,0-.52,1.38,2.65,2.65,0,0,0,.84,1.38A7.83,7.83,0,0,0,847.24,140.76Z"/><path class="cls-69" d="M843.42,136.19c-.31.2-.27.67-.25,1a26.55,26.55,0,0,0,.36,2.66,15.78,15.78,0,0,0,1,3.64,2.93,2.93,0,0,0,.76,1.14,1.08,1.08,0,0,0,.53.27,1.24,1.24,0,0,0,1.06-.45,3.08,3.08,0,0,0,.76-1.53,7,7,0,0,0,.1-1.72,6.34,6.34,0,0,0-.54-2.55,5.8,5.8,0,0,0-1.56-1.82,3.64,3.64,0,0,0-1-.63A1.46,1.46,0,0,0,843.42,136.19Z"/><path class="cls-69" d="M846.36,133.58c.23-.29.7-.2,1-.14a26.1,26.1,0,0,1,2.6.67,15.55,15.55,0,0,1,3.5,1.38,3.12,3.12,0,0,1,1,.89,1.16,1.16,0,0,1,.21.56,1.28,1.28,0,0,1-.57,1,3.21,3.21,0,0,1-1.61.58,6.59,6.59,0,0,1-1.72-.11,6.24,6.24,0,0,1-2.47-.83,5.6,5.6,0,0,1-1.63-1.76,3.78,3.78,0,0,1-.51-1A1.42,1.42,0,0,1,846.36,133.58Z"/><path class="cls-70" d="M839.12,133.56l1.4-.08a.19.19,0,0,1,.18.11l.79,1.74a.2.2,0,0,0,.19.11l1.41-.09"/><path class="cls-70" d="M841.41,141.5l1.06-2.1a.28.28,0,0,0,0-.18l-.3-1.29a.24.24,0,0,1,0-.2l1.06-1.78"/><path class="cls-70" d="M852,132.21l-2.2.81a.31.31,0,0,1-.19,0l-1.24-.45a.23.23,0,0,0-.2,0l-1.89.84"/><path class="cls-70" d="M844.27,129l-.24,1.37a.2.2,0,0,0,.09.21l1.74,1.05-.28,1.52"/><path class="cls-71" d="M843.28,136a1.9,1.9,0,0,1-.17-1.26,2.27,2.27,0,0,1,1.45-1.53,2,2,0,0,1,1.53.14,3.25,3.25,0,0,1,1.26,1.52,4.5,4.5,0,0,1,.41,1.37c.08.76-.08,1.65-1,1.66a3.52,3.52,0,0,1-1.24-.25,4.48,4.48,0,0,1-1.86-1.09A2.63,2.63,0,0,1,843.28,136Z"/><line class="cls-72" x1="842.1" y1="131.69" x2="842.43" y2="132.08"/><path class="cls-73" d="M844.29,133.13l-1,.93a.91.91,0,0,1-.44.24.58.58,0,0,1-.44,0,1.59,1.59,0,0,1-.07-2.26,1.61,1.61,0,0,1,2.31.19.69.69,0,0,1,0,.54A1,1,0,0,1,844.29,133.13Z"/><path class="cls-74" d="M843.22,131.73a2,2,0,0,0,0,.64.88.88,0,0,0,1,.67"/><path class="cls-74" d="M842,132.85a2.27,2.27,0,0,1,.63.12.9.9,0,0,1,.55,1.05"/><path class="cls-75" d="M798.64,110.69c-.44,0-1,.48-1.27.73a7.82,7.82,0,0,0-1.84,2.13,12.57,12.57,0,0,0-1.64,6.34,15.81,15.81,0,0,0,1.43,6.49,39.89,39.89,0,0,1,2.06,4.57,20.54,20.54,0,0,1,1.41,7.5c-.19,5-2.94,8.92-2.37,8.69A9.21,9.21,0,0,0,799,144.6a12.82,12.82,0,0,0,2.12-3.75,13.65,13.65,0,0,0,.64-4.82,19.1,19.1,0,0,0-.6-5.2c-.18-.65-.53-1.53-1.23-3.3-1.05-2.67-1.31-3.06-2-4.91a18.34,18.34,0,0,1-1.1-3.68,11.24,11.24,0,0,1,.09-4.08C797.54,112.23,798.86,110.69,798.64,110.69Z"/><path class="cls-76" d="M808.1,114.45a4.85,4.85,0,0,0-2.42,2.3,8.12,8.12,0,0,0-1,3.17,12.21,12.21,0,0,0,.3,4.31c.67,2.44,1.37,2.71,2.23,5.34a15.26,15.26,0,0,1,1.06,5.6c-.14,3.7-2.2,6.67-1.78,6.49a6.79,6.79,0,0,0,2-1.9A9.66,9.66,0,0,0,810,137a10.12,10.12,0,0,0,.47-3.6,13.37,13.37,0,0,0-.45-3.89c-.13-.48-.39-1.14-.91-2.46-.79-2-1-2.29-1.48-3.67a13.31,13.31,0,0,1-.82-2.75,8.46,8.46,0,0,1,.07-3A16.3,16.3,0,0,1,808.1,114.45Z"/><path class="cls-76" d="M789.35,114.1a4.94,4.94,0,0,0-2.42,2.3,8.17,8.17,0,0,0-1,3.17,12.16,12.16,0,0,0,.3,4.31c.67,2.45,1.37,2.72,2.23,5.35a15.26,15.26,0,0,1,1.06,5.6c-.14,3.7-2.2,6.66-1.77,6.49a6.86,6.86,0,0,0,1.95-1.9,9.66,9.66,0,0,0,1.58-2.79,10.12,10.12,0,0,0,.47-3.6,13.64,13.64,0,0,0-.44-3.89c-.13-.48-.4-1.14-.92-2.46-.79-2-1-2.29-1.48-3.67a13.49,13.49,0,0,1-.82-2.75,8.51,8.51,0,0,1,.07-3.05A17.07,17.07,0,0,1,789.35,114.1Z"/></g><g id="Layer_28" data-name="Layer 28"><text class="cls-77" transform="translate(411.12 92.62) rotate(-30.52)">p</text><text class="cls-77" transform="translate(426.27 84) rotate(-23.48)">l</text><text class="cls-77" transform="translate(432.81 80.78) rotate(-16.41)">a</text><text class="cls-77" transform="matrix(0.99, -0.12, 0.12, 0.99, 449.35, 75.89)">n</text><text class="cls-77" transform="matrix(1, 0.01, -0.01, 1, 465.53, 74.11)">t</text><text class="cls-77" transform="matrix(1, 0.1, -0.1, 1, 475.2, 74.18)"> </text><text class="cls-77" transform="matrix(0.98, 0.19, -0.19, 0.98, 484.15, 75.03)">r</text><text class="cls-77" transform="translate(493.51 76.58) rotate(18.38)">o</text><text class="cls-77" transform="matrix(0.88, 0.47, -0.47, 0.88, 509.19, 81.72)">o</text><text class="cls-77" transform="translate(523.48 89.42) rotate(35)">t</text><text class="cls-77" transform="matrix(0.75, 0.66, -0.66, 0.75, 531.25, 94.71)">s</text><path class="cls-78" d="M549.2,172.93a80.48,80.48,0,1,1-80.44-80.51A80.48,80.48,0,0,1,549.2,172.93Z"/><path class="cls-79" d="M534.61,223.94a8.74,8.74,0,0,1-1.75-1.74,19.23,19.23,0,0,1-2.44-4.3,40.43,40.43,0,0,1-1.65-4.67l-.65-2.4c-.2-.8-.35-1.62-.53-2.43-.38-1.61-.6-3.25-.88-4.88s-.44-3.29-.67-4.93-.47-3.31-.71-5l-.19-1.24c-.07-.41-.18-.82-.27-1.22l-.58-2.45-.29-1.23-.38-1.19-.78-2.4a19.57,19.57,0,0,0-.89-2.35l-1-2.33c-.73-1.52-1.48-3-2.29-4.5S517,171.8,516,170.44c-.49-.68-.94-1.4-1.46-2.06l-1.57-2c-1.1-1.28-2.2-2.57-3.41-3.75-.59-.6-1.19-1.2-1.83-1.76s-1.25-1.14-1.91-1.67a36.1,36.1,0,0,0-4.15-3.05h0l-.07,0c-2.88-1.36-5.75-2.78-8.58-4.24-1.42-.72-2.82-1.49-4.22-2.23s-2.78-1.57-4.12-2.36l-1.92-1.23c-.32-.21-.65-.38-1-.62l-.94-.74-.95-.74-.12-.09,0,0-.15-.17-.32-.35a7.38,7.38,0,0,1-1-1.7,12.24,12.24,0,0,1-.86-4.16,17.51,17.51,0,0,1,0-2.29,7.53,7.53,0,0,0,1.11,1.15,9.78,9.78,0,0,0,4.64,2,16.47,16.47,0,0,0,2.4.22l2.25,0a18.41,18.41,0,0,1,2.13.06c.69,0,1.4.17,2.1.25s1.4.24,2.09.45,1.38.38,2,.61,1.35.49,2,.78,1.31.61,1.95.94,1.26.7,1.86,1.09a20.72,20.72,0,0,1,1.74,1.23l.07.06h0c1.6.89,3.21,1.69,4.85,2.45s3.31,1.45,5,2.06c.42.16.85.3,1.28.44s.85.29,1.29.42c.86.27,1.73.5,2.6.71.44.11.89.18,1.33.27a10,10,0,0,0,1.33.22c.45,0,.89.15,1.34.16l1.34.07-1.34-.15c-.44,0-.88-.16-1.32-.23s-.87-.18-1.3-.3-.87-.21-1.3-.35c-.85-.26-1.7-.53-2.53-.85-.42-.15-.84-.32-1.25-.49s-.83-.32-1.23-.51c-1.64-.7-3.24-1.5-4.82-2.33S506,143.9,504.5,143a20.5,20.5,0,0,0-1.74-1.4c-.61-.45-1.25-.86-1.9-1.26s-1.31-.77-2-1.11-1.38-.66-2.08-.95-1.43-.56-2.16-.79-1.48-.4-2.22-.61-1.5-.33-2.29-.41-1.58-.19-2.3-.2l-2.19-.09a14.73,14.73,0,0,1-2-.28,7.18,7.18,0,0,1-3.33-1.62,5.76,5.76,0,0,1-1.69-3.08,8.85,8.85,0,0,1-.19-1.87c0-.12,0-.25,0-.37s.08-.41.11-.61l.37-2.45c.12-.82.17-1.63.26-2.45s.17-1.63.21-2.45l.1-2.45.09-2.45-.05-2.45c-.06-1.63,0-3.26-.17-4.9l-.44-4.92c-.1-1.67-.42-3.21-.65-4.8l-.75-4.75-4.19.71.87,4.73c.28,1.57.65,3.17.77,4.7l.38,3.22c-.71.26-1.61.6-2.68,1.09a40.21,40.21,0,0,0-4.66,2.46c-.85.55-1.78,1.11-2.68,1.82a32.62,32.62,0,0,0-2.78,2.29,29,29,0,0,0-5.19,6.24,29.78,29.78,0,0,0-2.06,3.93c-.27.71-.49,1.44-.74,2.17l-.37,1.11-.24,1.14c-.16.77-.31,1.55-.47,2.33s-.25,1.49-.37,2.25l-.2,1.15-.26,1.1a20.89,20.89,0,0,1-.57,2.2,17.17,17.17,0,0,1-.78,2.15l-.46,1a10.11,10.11,0,0,1-.57,1,10,10,0,0,1-1.36,1.73,8,8,0,0,1-1.78,1.21,10.47,10.47,0,0,1-4.36.91c-1.55,0-3.12-.09-4.7-.22s-3.1-.26-4.77-.33l-1.16,0a5.35,5.35,0,0,0-1.17.12l-1.21.27a7.47,7.47,0,0,0-1.12.4c-2.94,1.2-5.09,3.37-7,5.32s-3.71,3.9-5.47,5.53a45.23,45.23,0,0,1-5.08,4.14c-.81.54-1.6,1-2.31,1.46s-1.44.76-2.05,1.1a27.37,27.37,0,0,1-3,1.33l-1.07.44,1.08-.41a28,28,0,0,0,3-1.24c.63-.32,1.36-.62,2.1-1s1.54-.87,2.37-1.4a44.57,44.57,0,0,0,5.25-4c1.83-1.58,3.68-3.45,5.66-5.37s4.15-3.91,6.87-4.91a6.38,6.38,0,0,1,1-.33l1-.2a4.05,4.05,0,0,1,1.12-.08h1.16c1.43.11,3.05.29,4.6.47a47.67,47.67,0,0,0,4.84.37,11.81,11.81,0,0,0,5-.91A9.23,9.23,0,0,0,450,146a11.66,11.66,0,0,0,1.68-2c.22-.36.51-.71.69-1.08l.55-1.14a16.65,16.65,0,0,0,.91-2.3,22.51,22.51,0,0,0,.7-2.35l.31-1.17.23-1.15c.15-.77.31-1.54.46-2.3s.33-1.43.5-2.13l.24-1.05.38-1c.25-.66.48-1.32.74-2a27.85,27.85,0,0,1,2-3.53,26.19,26.19,0,0,1,4.92-5.55,29,29,0,0,1,2.62-2c.85-.63,1.73-1.11,2.53-1.61a39.14,39.14,0,0,1,4.39-2.14c.67-.28,1.26-.5,1.78-.68.05,1,.08,1.94.14,2.91l.12,2.35,0,2.36,0,2.35c0,.79-.1,1.56-.15,2.34s-.09,1.57-.18,2.34l-.28,2.32c-.1.77-.26,1.52-.38,2.27l-.13.59-.12.65c-.08.42-.14.84-.19,1.27s-.09,1-.13,1.47c-1.81,7.21-3.43,14.42-4.93,21.67l-.27,1.37c-.54.19-1,.39-1.56.6-.68.3-1.35.61-2,1a34.76,34.76,0,0,0-3.75,2.29c-.59.43-1.19.86-1.75,1.32s-1.13.92-1.67,1.42-1.05,1-1.57,1.52-1,1.1-1.45,1.57-.95,1.07-1.42,1.52-.94.93-1.46,1.36a28.67,28.67,0,0,1-6.77,4.4c-.62.29-1.24.55-1.87.78a17.66,17.66,0,0,1-1.89.59l-.17,0-.1.05c-1.75,1-3.41,2.13-5.06,3.27s-3.26,2.34-4.83,3.59a56.88,56.88,0,0,0-4.5,4,33.23,33.23,0,0,0-3.95,4.58,19.72,19.72,0,0,0-1.53,2.64c-.43.94-.74,1.86-1.22,2.69a12.81,12.81,0,0,1-3.95,4.21,20.15,20.15,0,0,1-5.33,2.5,25.64,25.64,0,0,1-5.83,1.09,25.65,25.65,0,0,0,5.9-.87,20.1,20.1,0,0,0,5.51-2.34,13.29,13.29,0,0,0,4.3-4.24c.55-.88.92-1.84,1.34-2.68a17,17,0,0,1,1.57-2.45,31.67,31.67,0,0,1,4-4.29c1.45-1.33,3-2.56,4.56-3.74s3.21-2.28,4.88-3.34,3.29-2,5-2.94c.71-.15,1.34-.33,2-.53s1.38-.48,2-.77a28.33,28.33,0,0,0,3.89-2,29.46,29.46,0,0,0,3.59-2.49c.57-.44,1.12-1,1.67-1.45s1-1,1.52-1.49.95-1,1.45-1.47,1-.92,1.52-1.34,1-.85,1.58-1.25,1.1-.78,1.66-1.15a32.58,32.58,0,0,1,3.51-1.95c.49-.23,1-.43,1.48-.63-.39,2-.76,4-1.13,5.93-.66,3.65-1.29,7.31-1.85,11-.28,1.84-.56,3.67-.8,5.52s-.49,3.69-.69,5.53l-.64,5.51c-.19,1.77-.48,3.52-.73,5.28v.14a3.06,3.06,0,0,0-.11.35c0,.1,0,.18-.07.36a7.52,7.52,0,0,0-.15,1.25c0,.47-.27,1-.35,1.61s-.24,1.27-.39,1.9c-.18.91-.4,1.8-.63,2.69s-.46,1.78-.72,2.65a40.21,40.21,0,0,1-1.88,5.16A22.94,22.94,0,0,1,457,218a8.25,8.25,0,0,1-1.62,2c-1.86.79-3.65,1.65-5.43,2.58s-3.53,1.95-5.22,3.05a38.89,38.89,0,0,0-4.83,3.64,17.56,17.56,0,0,0-3.84,4.62,17.67,17.67,0,0,1,4-4.49,39,39,0,0,1,4.9-3.46,71.6,71.6,0,0,1,10.77-5.28l0,0h0a8.26,8.26,0,0,0,1.93-2.2c.14-.21.26-.43.39-.64.17.19.35.41.57.71a13.8,13.8,0,0,1,2.07,4,12.06,12.06,0,0,1,.58,3,10.13,10.13,0,0,1,0,1.65c0,.29-.05.57-.07.86s-.12.57-.19.86a11.32,11.32,0,0,1-.51,1.73c-.2.62-.41,1.25-.61,1.88s-.31,1.35-.46,2l-.28,2a71.66,71.66,0,0,0,.41,14.74c.48,4,1,6.6,1,6.6s-.38-2.64-.66-6.63a70.51,70.51,0,0,1,.32-14.57l.36-1.93c.17-.61.31-1.22.5-1.82s.47-1.21.69-1.8a12.12,12.12,0,0,0,.66-1.89c.09-.32.17-.64.25-1s.09-.64.14-1a14.91,14.91,0,0,0,.12-1.87,14.27,14.27,0,0,0-.5-3.4,15.48,15.48,0,0,0-2.13-4.66c-.34-.52-.65-.91-.86-1.18l-.3-.34a41.29,41.29,0,0,0,2-5.06c.3-.89.58-1.78.82-2.68.16-.53.3-1.06.44-1.59l.21.68a11.23,11.23,0,0,0,1.88,3.32,5,5,0,0,0,.69.77l.75.72.88.66.45.32.45.25.91.51,1,.5,1.87,1c.63.33,1.21.74,1.83,1.11a21.54,21.54,0,0,1,1.8,1.19l1.74,1.29c.55.46,1.09.93,1.63,1.4a21.1,21.1,0,0,1,1.53,1.46l.74.73.68.77a36.29,36.29,0,0,1,2.44,3.06l1,1.51.87,1.47c.52.95,1,1.84,1.34,2.66s.65,1.53.86,2.13a17.79,17.79,0,0,1,.59,1.92,16.65,16.65,0,0,0-.5-2c-.19-.61-.43-1.35-.77-2.18S486.49,230,486,229l-.81-1.52-1-1.57a35.74,35.74,0,0,0-2.34-3.22l-.66-.82-.71-.78c-.49-.52-.95-1.08-1.5-1.57l-1.6-1.5-1.73-1.4a19.08,19.08,0,0,0-1.79-1.31c-.61-.41-1.2-.86-1.83-1.23L470.19,213c-.29-.17-.66-.38-.88-.52l-.89-.54-.43-.27-.35-.29-.7-.57-.62-.66a3.55,3.55,0,0,1-.56-.68,9.16,9.16,0,0,1-1.46-2.89,12.34,12.34,0,0,1-.54-4.82c.06-.59,0-1.11.1-1.41a4.89,4.89,0,0,0,0-.51h0c.32-1.81.68-3.62.93-5.45l.79-5.5q.38-2.76.84-5.48c.28-1.82.61-3.64.93-5.45.65-3.64,1.38-7.26,2.13-10.87.11-.53.23-1.05.34-1.58a31.78,31.78,0,0,0,1.89,4.81,25.3,25.3,0,0,0,1.75,3,24,24,0,0,0,2.2,2.87,24.41,24.41,0,0,0,2.61,2.48,17,17,0,0,0,1.4,1.05,14.09,14.09,0,0,0,1.45.92,14.51,14.51,0,0,0,1.45.78,12.81,12.81,0,0,0,1.43.64,28.55,28.55,0,0,0,2.7.95c.87.2,1.64.45,2.35.55s1.32.25,1.83.29l1.6.17-1.57-.31c-.51-.08-1.1-.27-1.79-.44s-1.43-.46-2.26-.73a26.38,26.38,0,0,1-2.55-1.15,10.79,10.79,0,0,1-1.32-.74,12,12,0,0,1-1.33-.86,14.76,14.76,0,0,1-1.29-1,14.33,14.33,0,0,1-1.24-1.1,22.5,22.5,0,0,1-2.24-2.53,26.87,26.87,0,0,1-4.74-11.31,31.39,31.39,0,0,1-.46-4c0-.48,0-.86,0-1.11s0-.36,0-.36h-.28c.16-.71.32-1.43.49-2.14q1.2-5.16,2.51-10.29c.06.52.14,1.05.23,1.62a36.36,36.36,0,0,0,1.21,4.94,43.53,43.53,0,0,0,2.22,5.54,52.31,52.31,0,0,0,3.23,5.76,71.36,71.36,0,0,0,8.89,11.11,66.14,66.14,0,0,0,5.27,4.93l2.74,2.18c.9.71,1.73,1.48,2.58,2.2,1.66,1.48,3.21,3,4.6,4.47s2.63,3,3.72,4.4a43.5,43.5,0,0,1,2.69,4,30.62,30.62,0,0,1,1.71,3.35,15.42,15.42,0,0,1,1,3.1,15.31,15.31,0,0,0-.9-3.16,31.54,31.54,0,0,0-1.56-3.45,44.87,44.87,0,0,0-2.54-4.21,56.86,56.86,0,0,0-3.55-4.62c-1.34-1.58-2.83-3.17-4.45-4.75-.83-.76-1.63-1.59-2.51-2.34l-2.64-2.3a72.17,72.17,0,0,1-13.17-16.14,49,49,0,0,1-2.87-5.62,39.49,39.49,0,0,1-1.89-5.29,33.49,33.49,0,0,1-.94-4.59c-.07-.58-.14-1.13-.17-1.64l.2.2.25.26.11.09,0,0,.06,0,.13.09,1,.71a44.39,44.39,0,0,0,4.2,2.68c1.44.8,2.85,1.55,4.29,2.3s2.88,1.46,4.33,2.15c2.89,1.39,5.78,2.72,8.72,4a35,35,0,0,1,3.92,2.73c.64.49,1.27,1,1.88,1.56s1.22,1.08,1.8,1.65c1.21,1.1,2.3,2.32,3.4,3.53l1.57,1.88c.53.63,1,1.31,1.48,2,1,1.29,1.83,2.72,2.73,4.09s1.6,2.86,2.34,4.32l1,2.25a21.44,21.44,0,0,1,.94,2.28l.82,2.32.41,1.17.32,1.19.63,2.39c.1.4.22.79.3,1.2l.22,1.21c.28,1.64.6,3.23.84,4.9s.46,3.28.8,4.92.6,3.29,1,4.9c.21.81.38,1.62.61,2.43l.71,2.39a40.56,40.56,0,0,0,1.8,4.67,18.76,18.76,0,0,0,2.58,4.27,8.68,8.68,0,0,0,1.81,1.72,3.93,3.93,0,0,0,2.32.81A3.9,3.9,0,0,1,534.61,223.94Z"/><circle class="cls-80" cx="441.71" cy="168.17" r="2.33"/><circle class="cls-81" cx="411.16" cy="151.5" r="2.33"/><circle class="cls-81" cx="434.58" cy="191.47" r="2.33"/><circle class="cls-82" cx="411.14" cy="196.48" r="2.33"/><circle class="cls-80" cx="420.94" cy="165.85" r="2.33"/><circle class="cls-80" cx="479.9" cy="233.71" r="2.33"/><circle class="cls-81" cx="432.36" cy="212.02" r="2.33"/><circle class="cls-82" cx="492.28" cy="223.51" r="2.33"/><circle class="cls-82" cx="520.28" cy="158.51" r="2.33"/><circle class="cls-83" cx="483.43" cy="173.99" r="2.33"/><circle class="cls-80" cx="455.32" cy="185.42" r="2.33"/><circle class="cls-81" cx="495.95" cy="237.08" r="2.33"/><circle class="cls-80" cx="507.87" cy="173.32" r="2.33"/><circle class="cls-81" cx="518.6" cy="194.41" r="2.33"/><circle class="cls-51" cx="446.6" cy="234.41" r="2.33"/><circle class="cls-81" cx="478.17" cy="186.76" r="2.33"/></g><g id="Layer_29" data-name="Layer 29"><text class="cls-84" transform="matrix(0.11, -0.99, 0.99, 0.12, 26.35, 176.07)">p</text><text class="cls-84" transform="matrix(0.24, -0.96, 0.97, 0.24, 28.8, 157.65)">l</text><text class="cls-84" transform="matrix(0.37, -0.92, 0.93, 0.37, 30.29, 150.04)">a</text><text class="cls-84" transform="matrix(0.52, -0.84, 0.85, 0.53, 37.03, 132.97)">n</text><text class="cls-84" transform="matrix(0.63, -0.77, 0.77, 0.64, 46.32, 118.35)">t</text><text class="cls-84" transform="matrix(0.7, -0.7, 0.71, 0.71, 52.85, 110.42)"> </text><text class="cls-84" transform="matrix(0.77, -0.63, 0.63, 0.78, 59.61, 103.64)">r</text><text class="cls-84" transform="matrix(0.85, -0.52, 0.52, 0.85, 67.25, 97.09)">e</text><text class="cls-84" transform="matrix(0.91, -0.39, 0.39, 0.92, 81.04, 88.67)">s</text><text class="cls-84" transform="matrix(0.95, -0.28, 0.29, 0.96, 93.46, 83.48)">i</text><text class="cls-84" transform="matrix(0.98, -0.15, 0.15, 0.99, 101.83, 80.58)">d</text><text class="cls-84" transform="matrix(0.99, 0.03, -0.02, 1, 119.96, 77.8)">u</text><text class="cls-84" transform="matrix(0.97, 0.19, -0.19, 0.98, 137.17, 78.19)">e</text><text class="cls-84" transform="matrix(0.94, 0.33, -0.33, 0.94, 153.03, 81.36)">s</text><path class="cls-85" d="M204.57,169c4.24,44.13-27.87,83.33-71.72,87.54S50,228.37,45.79,184.23s27.87-83.33,71.72-87.54S200.33,124.85,204.57,169Z"/><path class="cls-86" d="M168.84,212.72l-2.9,1.52a3.64,3.64,0,0,1-1.2.56c-.32,0-.5-.39-.75-.61a115.6,115.6,0,0,1-8.41-8.45c-1.67-1.82-3.26-3.72-4.86-5.6-1.35-1.6-2.69-3.21-4-4.85s-2.59-3.33-3.87-5c-1.13-1.48-2.26-3-3.36-4.47s-2.21-3-3.3-4.57-2-2.83-3-4.26-1.87-2.71-2.8-4.07l-2.85-4.22q-1.38-2.07-2.75-4.14c-1-1.56-2-3.13-3.06-4.69l-.62-1,2.57-1.51,1.17,1.76,2.75,4.15q1.38,2.09,2.78,4.15l2.88,4.28c.92,1.36,1.84,2.71,2.78,4.05s1.82,2.58,2.74,3.87,1.75,2.46,2.64,3.67c1,1.37,2.05,2.72,3.08,4.07q1.33,1.76,2.7,3.47,1.09,1.4,2.25,2.76,1.93,2.26,3.9,4.52c.87,1,1.74,2,2.66,2.92,2.12,2.12,4.23,4.25,6.42,6.29,1.7,1.58,3.53,3,5.31,4.52C168.05,212.15,168.42,212.41,168.84,212.72Z"/><path class="cls-86" d="M117.45,172.32l1.67-2.51c.5.43,1,.84,1.48,1.28,3,2.71,6.05,5.38,9,8.15,3.87,3.63,7.66,7.33,11.48,11,.87.84,1.75,1.66,2.56,2.55s1.57,1.88,2.35,2.83,1.5,1.89,2.27,2.82q1.63,2,3.28,3.93c.91,1.07,1.85,2.1,2.77,3.15,2.53,2.87,5.25,5.54,7.95,8.23a19.58,19.58,0,0,1,1.9,2.5c.83,1.16,1.65,2.33,2.46,3.5.3.43.58.88.86,1.33a.37.37,0,0,1,0,.31l-2.34,3.89c-.26-.46-.5-.89-.75-1.3-1.06-1.74-2.11-3.51-3.21-5.23-1-1.5-2-3-3-4.41s-2.07-2.78-3.14-4.14c-1.3-1.63-2.61-3.25-4-4.84s-2.52-2.87-3.79-4.29c-3.75-4.16-7.68-8.14-11.72-12-3.47-3.31-7-6.55-10.52-9.8-2.44-2.25-4.91-4.48-7.37-6.72Z"/><path class="cls-86" d="M104.69,175.31c.33-.65.63-1.22,1-1.85l1,.65a7.84,7.84,0,0,0,2.8,1.21,5,5,0,0,0,1.4.09,2.09,2.09,0,0,1,1.32.43c3.48,1.84,7,3.67,10.4,5.55,3.06,1.67,6.08,3.41,9.11,5.12a.7.7,0,0,1,.17.13l8.71,8.5a1.24,1.24,0,0,1,.29.39C129.29,188.13,117,181.77,104.69,175.31Z"/><path class="cls-86" d="M108.19,152.18c4-1.58,7.8-1.79,11.54.42a21.93,21.93,0,0,1,4.89,4.06c-.34.2-.64.4-1,.57a12.84,12.84,0,0,1-4.71,1.6,7.17,7.17,0,0,1-4.85-1.36A55.36,55.36,0,0,1,108.19,152.18Z"/><path class="cls-86" d="M118.55,175.12c-.7-1-1.39-1.81-2-2.72a14.4,14.4,0,0,1-2.4-5.41,12.62,12.62,0,0,1,1-7.61c0-.09.08-.19.14-.3a3.42,3.42,0,0,1,2.11,1.25,41,41,0,0,1,3.07,4.42,7.44,7.44,0,0,1,.26,6.66A16.34,16.34,0,0,1,118.55,175.12Z"/><path class="cls-86" d="M124.76,155.56c-.73-.64-1.43-1.32-2.19-1.91s-1.8-1.26-2.69-1.91a1.08,1.08,0,0,1-.41-.56,11,11,0,0,1,.58-6.72c.48-1.15,1.09-2.23,1.7-3.47.54.88,1,1.61,1.43,2.35a30.92,30.92,0,0,1,2.61,4.8,7.61,7.61,0,0,1-.87,7.28l-.09.1Z"/><path class="cls-86" d="M103.47,170.79a17.51,17.51,0,0,1,3.65-1.51,11.28,11.28,0,0,1,6.51.08.89.89,0,0,1,.6.52,20.22,20.22,0,0,0,3.18,5l.13.22a7.92,7.92,0,0,1-2.4,1,7.31,7.31,0,0,1-6-1.18c-1.64-1.08-3.2-2.3-4.79-3.45Z"/><path class="cls-86" d="M102.68,176.3a8.89,8.89,0,0,1-3.2,1.75,7.27,7.27,0,0,1-5-.42c-2.17-.94-4.28-2-6.55-3.06.77-.52,1.41-1,2.08-1.4a11.53,11.53,0,0,1,7.67-1.85,1,1,0,0,1,.82.46A21.72,21.72,0,0,0,102.68,176.3Z"/><path class="cls-86" d="M103.26,144.92c3.66-1,7.17-1,10.44,1.13,2.27,1.45,4.8,4.06,4.9,5a.86.86,0,0,1-.24,0,12.82,12.82,0,0,0-9.13-.07.69.69,0,0,1-.82-.16c-.86-.93-1.76-1.82-2.6-2.76s-1.54-1.83-2.3-2.75A3.87,3.87,0,0,1,103.26,144.92Z"/><path class="cls-86" d="M113.68,145.08a12.69,12.69,0,0,0-3.85-1.39,14.45,14.45,0,0,0-5.6.19.77.77,0,0,1-.89-.3,65.5,65.5,0,0,1-4.15-6.19,1.54,1.54,0,0,1,0-.17c.84,0,1.68-.12,2.53-.12a11.64,11.64,0,0,1,6.22,1.61,12.06,12.06,0,0,1,3.25,2.83c.79,1,1.52,2.08,2.28,3.13C113.52,144.77,113.57,144.88,113.68,145.08Z"/><path class="cls-86" d="M108.17,163a19,19,0,0,1-5.08-5.16,11.82,11.82,0,0,1-1.66-7.81c.07-.62.18-1.23.28-1.84,0-.17.08-.33.13-.56,1.61,1.28,3.21,2.46,4.68,3.79.48.44.9,1,1.36,1.54.07.09,0,.31,0,.45a16.32,16.32,0,0,0-.74,4.44,11.86,11.86,0,0,0,.86,4.63C108,162.64,108.08,162.78,108.17,163Z"/><path class="cls-86" d="M77.09,158.62c-.93.23-1.94.43-2.92.73a13.67,13.67,0,0,0-3.73,1.94.78.78,0,0,1-.91.12c-2-1-4.09-2-6.21-3a18.22,18.22,0,0,1,3.49-2.21,11.44,11.44,0,0,1,8.41-.6c.1,0,.24.07.29.16C76.05,156.74,76.58,157.71,77.09,158.62Z"/><path class="cls-86" d="M103.85,117.66c1.18,2.07,2.34,4.07,3.47,6.08a.69.69,0,0,1,0,.56,14.08,14.08,0,0,0-2.12,7.28c-.33-.2-.6-.4-.89-.54-.64-.31-1.31-.59-2-.91a.92.92,0,0,1-.4-.45,11.93,11.93,0,0,1,.78-10.29c.28-.52.59-1,.89-1.53C103.68,117.81,103.73,117.78,103.85,117.66Z"/><path class="cls-86" d="M82,150.5c3.26-1.73,6.58-2.55,10.17-1.4.65.21,1.28.49,1.92.76a.61.61,0,0,1,.32.31c.37,1,.72,2.05,1.07,3-.78,0-1.66,0-2.53.09a14,14,0,0,0-4.57,1.35.69.69,0,0,1-.81,0c-1.58-1.16-3.18-2.31-4.77-3.47C82.56,150.93,82.31,150.73,82,150.5Z"/><path class="cls-86" d="M113.61,168.55a2.2,2.2,0,0,1-.53-.27,16.13,16.13,0,0,1-4.83-7.57,13,13,0,0,1,.41-7.09c1,1,1.86,1.9,2.81,2.75s2,1.6,3,2.45A13.81,13.81,0,0,0,113.61,168.55Z"/><path class="cls-86" d="M91.22,166c-6.11-2.89-9.24-7-8.82-14,.83.56,1.61,1.06,2.37,1.59s1.5,1.08,2.3,1.66l-1,.58,1.5,1.14c.46.35.93.67,1.36,1.05a.82.82,0,0,1,.28.58,12.74,12.74,0,0,0,.9,5.11C90.42,164.49,90.83,165.22,91.22,166Z"/><path class="cls-86" d="M97.68,165.74c.92-.4,1.74-.79,2.59-1.11a11.42,11.42,0,0,1,8.18-.09,2.14,2.14,0,0,1,1.08.82c.66.94,1.4,1.82,2.11,2.72-.52,0-1.08-.05-1.64,0a14.75,14.75,0,0,0-6.23,1.69.62.62,0,0,1-.72,0c-1.44-1.07-2.89-2.12-4.34-3.18C98.4,166.3,98.1,166.06,97.68,165.74Z"/><path class="cls-86" d="M118.32,149.1c-.93-.92-1.87-1.83-2.79-2.77a1.44,1.44,0,0,1-.3-.62,12.22,12.22,0,0,1,1.57-9.88c.13-.23.27-.45.41-.68l.21-.26c.34.57.67,1.1,1,1.63.79,1.35,1.56,2.7,2.36,4a.65.65,0,0,1,0,.76,15.11,15.11,0,0,0-2.06,4.94C118.5,147.18,118.44,148.13,118.32,149.1Z"/><path class="cls-86" d="M95.63,170.45a11.16,11.16,0,0,0-4.39,1.17c-1.07.56-2.1,1.22-3.12,1.87a.58.58,0,0,1-.64.07l-5.06-2.47-.9-.46c.43-.32.81-.61,1.2-.88a12.16,12.16,0,0,1,7.08-2.41,23.54,23.54,0,0,1,2.5.26.78.78,0,0,1,.42.2Z"/><path class="cls-86" d="M97.19,130c6.4.15,10.21,3.26,12.47,8.8-.79-.46-1.61-1-2.48-1.42a12.79,12.79,0,0,0-6.57-1.08.82.82,0,0,1-1-.56C98.85,133.88,98,132,97.19,130Z"/><path class="cls-86" d="M94.83,145.08c.8.44,1.57.84,2.32,1.26,1.09.6,2.17,1.22,3.27,1.82a.67.67,0,0,1,.36.82,13.22,13.22,0,0,0,.92,8c.11.23.25.46.37.7a6.67,6.67,0,0,1,.34.71,14.71,14.71,0,0,1-6-5.36A14,14,0,0,1,94.83,145.08Z"/><path class="cls-86" d="M75,150.73c2.14.74,4.17,1.46,6.21,2.15.29.1.33.27.33.53a14.62,14.62,0,0,0,1.11,5.7,12,12,0,0,0,2.22,3.39c-1.22.09-5.14-2.25-6.85-4.17A13.8,13.8,0,0,1,75,150.73Z"/><path class="cls-86" d="M114,144c-.28-.42-.56-.87-.87-1.28-.6-.77-1.27-1.48-1.81-2.28a4.14,4.14,0,0,1-.48-1.49,12.16,12.16,0,0,1,1.64-8.41c.18-.32.37-.63.56-.95a3.24,3.24,0,0,1,.24-.33c.43.71.85,1.39,1.26,2.08.6,1,1.2,2,1.81,3a.61.61,0,0,1,0,.72,14.58,14.58,0,0,0-2.26,6.07C114,142.06,114,143,114,144Z"/><path class="cls-86" d="M90.28,166.53a13.28,13.28,0,0,0-8.51,2.92.8.8,0,0,1-1,.1c-1.64-.84-3.3-1.65-5-2.47a2,2,0,0,1-.24-.16c3.11-2.46,6.49-3.86,10.5-3a3.36,3.36,0,0,1,1,.61Z"/><path class="cls-86" d="M107.08,163.22a13.81,13.81,0,0,0-8.85,1.4.86.86,0,0,1-1.06-.06c-1.46-1.13-3-2.22-4.45-3.32l-.21-.21c.89-.38,1.72-.78,2.57-1.09a11.25,11.25,0,0,1,8.27,0,1.8,1.8,0,0,1,.52.36l2.81,2.63C106.8,163,106.94,163.11,107.08,163.22Z"/><path class="cls-86" d="M69.73,162.81a13.49,13.49,0,0,1,7.88-3.31.9.9,0,0,1,.58.21,16.75,16.75,0,0,0,4.62,2.95l.2.09s0,.05,0,0c-1,.23-2,.41-2.91.7a15,15,0,0,0-4,2.09.55.55,0,0,1-.46.07C73.67,164.72,71.75,163.78,69.73,162.81Z"/><path class="cls-86" d="M100.73,158.41a13.49,13.49,0,0,0-7.37,1.37.6.6,0,0,1-.72-.05L88.91,157c-.44-.32-.86-.65-1.34-1l.32-.2A14.21,14.21,0,0,1,94,154c.46,0,.92.06,1.37,0,.78-.06,1.11.52,1.51,1a15.06,15.06,0,0,0,3.49,3.08Z"/><path class="cls-86" d="M108.63,123.7c.75,1.23,1.44,2.36,2.12,3.49.39.64.75,1.31,1.13,1.95a.74.74,0,0,1,0,.84,14,14,0,0,0-1.93,5.42c-.07.54-.08,1.08-.13,1.71-.27-.45-.51-.84-.74-1.24a15.41,15.41,0,0,0-2.75-3.44,1,1,0,0,1-.25-.56,12.09,12.09,0,0,1,1.59-6.44C107.94,124.87,108.27,124.34,108.63,123.7Z"/><path class="cls-86" d="M90.06,158.89l2,1.48L91,161l1.84,1.41c1.09.82,2.19,1.63,3.28,2.46a.63.63,0,0,1,.17.37,11.94,11.94,0,0,0,1.26,5c0,.08.06.16.13.37a3.65,3.65,0,0,1-.79-.3,16.94,16.94,0,0,1-5.46-5.55A11.39,11.39,0,0,1,90,159.05.54.54,0,0,1,90.06,158.89Z"/><path class="cls-86" d="M102.5,170.36l-.5.32c.72.55,1.4,1.09,2.1,1.59.88.64.9.63.5,1.67-.24.63-.51,1.25-.77,1.87a2.89,2.89,0,0,1-.16.25c-3.08-2.55-5.72-5.35-6.35-9.56C99,167.77,100.75,169.05,102.5,170.36Z"/><path class="cls-86" d="M161.1,220.1c-.52.18-1,.37-1.51.51-.12,0-.26-.08-.32-.18-.53-.8-1.07-1.59-1.55-2.42q-2.37-4.14-4.7-8.3c-.32-.58-.6-1.19-.93-1.84C153,208.48,160.36,218.54,161.1,220.1Z"/><path class="cls-86" d="M100.38,114.31c.71,1.15,1.42,2.3,2.11,3.46a.59.59,0,0,1,0,.47c-.39.85-.87,1.67-1.21,2.54s-.56,1.76-.82,2.63c-.81-.33-1.67-.66-2.51-1-.12-.06-.19-.34-.19-.52a10.15,10.15,0,0,1,.74-4c.51-1.23,1.14-2.41,1.71-3.61Z"/><path class="cls-86" d="M87.94,144.34l5.81,1.42A.4.4,0,0,1,94,146c.07,1,.1,2,.15,2.91a18.89,18.89,0,0,0-2-.7c-1-.22-1.93-.32-2.9-.5a.57.57,0,0,1-.41-.27c-.36-1-.68-2-1-3.06A.57.57,0,0,0,87.94,144.34Z"/><path class="cls-86" d="M68,151.29c1.33.06,2.51.11,3.7.18.78,0,1.55.09,2.33.16.13,0,.35.13.38.25.24.94.45,1.89.65,2.79-.92-.11-1.89-.28-2.86-.34-.73,0-1.46.06-2.19.09-.13,0-.32,0-.37-.12C69.07,153.34,68.55,152.36,68,151.29Z"/><path class="cls-86" d="M98,129.2c-.28-2-.56-4.1-.86-6.32,1.12.5,2.14.94,3.16,1.41.07,0,.12.19.11.29a12.9,12.9,0,0,0,.71,5,.86.86,0,0,1,0,.16Z"/></g></g></g></svg>