<svg xmlns="http://www.w3.org/2000/svg" viewBox="0 0 386.7 466.78"><defs><style>.cls-1{fill:#3d9c93;}.cls-2{fill:#2e6293;opacity:0.9;}.cls-3{fill:#5c5052;}.cls-4{fill:#5d5153;}</style></defs><g id="Layer_2" data-name="Layer 2"><g id="Layer_11" data-name="Layer 11"><path class="cls-1" d="M144.34,47.3c-6.92-5.14-10.74-1.72-12.17.2l-.23.34a6,6,0,0,0-.43.73s-15.41,3.28-1,15.13a23.16,23.16,0,0,0,19.7,5S150.36,51.77,144.34,47.3Z"/><path class="cls-1" d="M134.14,42.08c2.62,13.32,19.43,4.55,19.43,4.55C165.57,38.85,167,17,167,17c-12.84-5.38-28.65,1.73-28.65,1.73-.73.44-1.4.88-2,1.32A73.91,73.91,0,0,0,123.75,0S106.37,18.11,111,29.52a17.09,17.09,0,0,0,15.74,11h0c.48.18,1.91,1.36.71,3.84l1.25-.79c-.25-.76.37-2.11-.74-3.55a24.23,24.23,0,0,0,3.41-1.89,18,18,0,0,0,2.26,2.92"/><path class="cls-1" d="M126.46,46.52a6.89,6.89,0,0,1,5.5,3.91s-.57-3.87-5.55-5C124.81,45,126.46,46.52,126.46,46.52Z"/><path class="cls-1" d="M130.31,91.21a51.67,51.67,0,0,0-.75,7.69,23.54,23.54,0,0,0-5.33-5.33h0a12.3,12.3,0,0,0-2.33,13.78c3.9,9.09-1.05,16.39,12.54,23.18,0,0,4.66-5.47-.59-15.56a19.19,19.19,0,0,1-2.31-8c1.44,2.17,3.35,3.6,4.68,7,6.87,17.26,15.17,16.1,15.17,16.1-4.45-29.12-18.65-37.75-20.83-38.92"/><path class="cls-1" d="M120.09,96.05c2.79-4,3.77-2.61,4.37-1.72a3.11,3.11,0,0,1,.52,1.5c-.42-5.81-4-1.73-4-1.73Z"/><path class="cls-1" d="M122.22,92.89c6-4.62,7.28-2.15,8.49-1,.45.43.69.36.69.36-2.11-5.29-8.15-.78-8.15-.78Z"/><path class="cls-1" d="M133.44,87.11h0c-.25,1.89-1.15,12.35,9.39,13.13,0,0,.47,9.83,7.82,12.68,0,0,1.77,12.87,16.61,9.82,0,0-1.79-8.85-7.7-13.78-5-4.14-1-6.52-9.2-10.87-5.79-3.06-1.61-10.85-16-11.25A4.78,4.78,0,0,0,133.44,87.11Z"/><path class="cls-1" d="M124.31,89a53.3,53.3,0,0,0-13.89,29l.65,4c1.57-14.94,8.25-26.24,14-31.9,2.91-2.87,5.68-4.31,8.33-2.26,1,.77,1.06-.21,1-.22C132.56,86,129.36,83.66,124.31,89Z"/><path class="cls-1" d="M136.89,40.33l-.13-.59c-16.68,4.48-30.53,27.5-30.53,27.5-1.13-11.74-2.61-16.75-2.61-16.75l-.73-.78c1.26-1.58,2.31-4.79,1-5.65-2.77-1.87-2.92,1.42-2.77,3.7A48.44,48.44,0,0,1,92.09,30.6c.09-1.18.72-2.92,2.76-5.25,6.43,7,6.78-5,6.78-5l.27-7.77s-5.68.85-8.48,3.6a13.74,13.74,0,0,0-.78-2.53C89.39,5.82,79.92,2.39,79.92,2.39s-1.33,9.69.16,16.39c-.26,0-.41,0-.41,0s-4.69,1-8.9,8.25c0,0,14,11.94,18.7,1.67a10.92,10.92,0,0,0,.71-2,35.78,35.78,0,0,0,.71,4.48c0,.14.06.28.1.42h0a46.62,46.62,0,0,0,9.2,18c2.31,5,4.06,23.54,5.32,44.2C94,78.29,87.6,70,79.33,66.67A21.27,21.27,0,0,0,78.85,64c3.7,0,13.41-.72,12.9-9.54A28.42,28.42,0,0,0,84,36.88s-16.35,8.4-14.77,17.66c-1-4.82-4.25-10.19-13.73-9.83-17,.66-19.54,8-19.54,8S39.48,66,51.37,73.24a10.11,10.11,0,0,0,5.49,1.68c-2.73,7.36.44,15.75.44,15.75S68.26,98.58,77,86c8.19-11.81-1.85-15-3.14-15.4,1.24-1,4.18-2.51,7.06-1.65,10.18,4.13,20.73,21.79,24.72,26.77,0,.46.05.93.08,1.39-1.6-.43-4.24-.76-6.25.93-16.54-.4-16.38,13.78-16.38,13.78-14.86,6.12-11.9,22.92-11.9,22.92,16.15-4.91,16.47-18.41,16.47-18.41a32.74,32.74,0,0,0,3-2.06h0s2.71,6-.34,16.73,3.9,15.1,3.9,15.1c14.82-13,3.15-15.44,7.49-25.37s-2.46-17.64-2.46-17.64a23.52,23.52,0,0,0,.77-4c1.93-2.18,4.07-1.43,5.85,0,1.52,26.7,2.26,55.23,2.42,61.67a8.15,8.15,0,0,0,2.37,1.32h1.93c-.57-25.94-.35-24.2-1.47-40.13l-.55-3.56c-1.21-16.4-3.35-47.92-3.35-47.92C119.64,46.3,136.89,40.33,136.89,40.33ZM90.08,23.21,90,23l.09,0Zm.33-.36a5.46,5.46,0,0,0,1.88-1.33,10.55,10.55,0,0,0,1.6,2.7c.24.3.47.57.69.83a11.17,11.17,0,0,0-3.11,3.28A46.7,46.7,0,0,1,90.41,22.85ZM73.49,70.18c-.67-1-2.74-3.72-6-3.93.56-1,1-2,1.32-2.76,2.79.25,5.79,1.34,9.36,3.9C77.47,66.93,75.58,67.9,73.49,70.18Zm-4.54-7c.35-.83.52-1.35.52-1.35a22,22,0,0,0-.09-6.69C71.13,63.8,77.45,64,77.45,64L78,64a4.08,4.08,0,0,0,.43,2.1C73.54,63.2,70.47,63,69,63.17Z"/><path class="cls-1" d="M231.8,80.13c4.25-3.46,6.77-1.4,7.74-.22l.16.21a4,4,0,0,1,.29.45s9.88,1.63,1.1,9.56a14.76,14.76,0,0,1-12.36,3.74S228.11,83.14,231.8,80.13Z"/><path class="cls-1" d="M238.13,76.52C236.85,85.05,225.92,80,225.92,80c-7.85-4.59-9.4-18.4-9.4-18.4,8-3.78,18.25.27,18.25.27.47.26.91.52,1.33.78a46.59,46.59,0,0,1,7.42-13.09s11.56,11,8.95,18.36a10.87,10.87,0,0,1-9.68,7.45h0c-.3.12-1.17.91-.34,2.45l-.82-.47c.14-.49-.29-1.32.37-2.27a14.4,14.4,0,0,1-2.21-1.1,11.57,11.57,0,0,1-1.36,1.92"/><path class="cls-1" d="M243.14,79.12a4.38,4.38,0,0,0-3.39,2.64,4.29,4.29,0,0,1,3.39-3.36C244.14,78.12,243.14,79.12,243.14,79.12Z"/><path class="cls-1" d="M242,107.58a31.76,31.76,0,0,1,.7,4.85,15.18,15.18,0,0,1,3.23-3.53h0a7.79,7.79,0,0,1,1.88,8.67c-2.21,5.88,1.14,10.37-7.29,15.07,0,0-3.12-3.34-.08-9.89a12.16,12.16,0,0,0,1.24-5.12c-.85,1.42-2,2.38-2.77,4.54-3.86,11.15-9.17,10.65-9.17,10.65,2-18.6,10.75-24.48,12.1-25.29"/><path class="cls-1" d="M248.61,110.35c-1.88-2.44-2.46-1.55-2.82-1a1.92,1.92,0,0,0-.29,1c.1-3.69,2.49-1.21,2.49-1.21Z"/><path class="cls-1" d="M247.17,108.41c-3.93-2.76-4.69-1.16-5.42-.4-.28.29-.43.25-.43.25,1.19-3.41,5.16-.73,5.16-.73Z"/><path class="cls-1" d="M239.88,105.07h0c.22,1.19,1.09,7.79-5.58,8.59,0,0,0,6.25-4.6,8.27,0,0-.75,8.22-10.26,6.71,0,0,.88-5.67,4.49-9,3-2.77.43-4.16,5.53-7.16,3.59-2.11.71-6.93,9.82-7.6A2.63,2.63,0,0,1,239.88,105.07Z"/><path class="cls-1" d="M245.73,106a33.83,33.83,0,0,1,9.66,18l-.3,2.54c-1.43-9.43-6-16.4-9.81-19.83-1.93-1.73-3.73-2.57-5.36-1.19-.61.51-.67-.1-.65-.11C240.4,104.31,242.37,102.76,245.73,106Z"/><path class="cls-1" d="M288.14,75.92c-6,0-7.94,3.55-8.44,6.63.74-5.91-9.89-10.77-9.89-10.77a18,18,0,0,0-4.39,11.4c-.07,5.61,6.12,5.8,8.46,5.68a15.18,15.18,0,0,0-.23,1.68c-5.15,2.33-8.95,7.79-15.84,18,.21-13.14.78-25,2.1-28.18a29.44,29.44,0,0,0,5.32-11.71h0a1.28,1.28,0,0,0,0-.27,20.51,20.51,0,0,0,.33-2.86,6.94,6.94,0,0,0,.51,1.26c3.26,6.38,11.82-1.6,11.82-1.6-2.88-4.46-5.89-5-5.89-5h-.26c.75-4.29-.37-10.39-.37-10.39s-5.91,2.44-7.75,7.53a8,8,0,0,0-.42,1.63c-1.86-1.67-5.49-2-5.49-2l.39,4.92s.57,7.58,4.45,3A6.09,6.09,0,0,1,264.51,68a30.8,30.8,0,0,1-5.26,11.14c0-1.44-.16-3.53-1.87-2.26-.79.58,0,2.59.82,3.55l-.44.52a63.35,63.35,0,0,0-1.17,10.7s-9.47-14.2-20.19-16.57l-.07.38s11.13,3.29,19.75,18.22c0,0-.45,20.06-.74,30.5l-.25,2.27c-.24,9.86.27,9.53-.23,23.47,1.28.66,2.19-.15,3.11-1-.12-6.36-.37-22.19-.2-37.13,1.09-1,2.43-1.49,3.71-.16a14.4,14.4,0,0,0,.61,2.53A10.93,10.93,0,0,0,261,125.47c3.05,6.17-4.29,8.06,5.5,15.87,0,0,4.28-3,2-9.69s-.7-10.6-.7-10.6h0a19,19,0,0,0,1.94,1.22s.59,8.55,11,11.2c0,0,1.4-10.73-8.22-14.19,0,0-.31-9-10.8-8.27a4.36,4.36,0,0,0-4-.4c0-.3,0-.6,0-.89,2.39-3.28,8.58-14.78,14.93-17.69a5.39,5.39,0,0,1,4.53.84c-.81.26-7.09,2.6-1.55,9.86,5.91,7.73,12.64,2.4,12.64,2.4s1.77-5.42-.17-10a6.4,6.4,0,0,0,3.43-1.22c7.35-5,9.18-13.44,9.18-13.44S299,75.85,288.14,75.92ZM262.76,64.58c.14-.17.28-.35.42-.55a6.75,6.75,0,0,0,.94-1.75,3.51,3.51,0,0,0,1.23.79,29.93,29.93,0,0,1-.51,3.5A7.22,7.22,0,0,0,262.76,64.58Zm11.67,24.24.34,0s4-.3,4.87-5.85a13.93,13.93,0,0,0,.14,4.25s.12.32.36.84c-1-.07-2.91.15-5.93,2.14A2.46,2.46,0,0,0,274.43,88.82Zm3,3.78c-1.4-1.39-2.62-1.95-3.06-1.64a11.88,11.88,0,0,1,5.83-2.74,18,18,0,0,0,.92,1.71A5.3,5.3,0,0,0,277.47,92.6Z"/><path class="cls-1" d="M265.57,63.29l.05-.14h-.06A.76.76,0,0,1,265.57,63.29Z"/><path class="cls-2" d="M385.49,432c3.7-8.13-1.75-17.39-7.67-24.07s-13-13.72-13.07-22.65c-.05-7.34,4.44-16-.77-21.2-2.18-2.17-5.48-2.83-7.85-4.79-4-3.31-4.33-9.22-4.34-14.41,0-16.25.24-33.56,9.16-47.13,4.36-6.63,10.81-12.52,11.66-20.4,1.18-11.08-8.94-19.59-17.16-27.11s-15.75-20-9.18-29c1.64-2.23,4-3.93,5.3-6.39,4.36-8.33-6-17.12-6.56-26.52-.82-14.73,22.34-25.4,16.54-39-1.49-3.48-4.72-5.93-8.14-7.53-13.58-6.32-29.52-.93-43.22,5.13s-28.53,12.95-43.06,9.31c-6.19-1.55-11.93-5-18.29-5.4-7.39-.5-15,3.06-22,.71-4.47-1.5-7.86-5.17-12.07-7.3-9.59-4.87-22-1.15-31.33-6.43-3.35-1.9-6.11-4.86-9.74-6.16-5.87-2.09-12.43.75-17.22,4.73s-8.59,9.11-13.62,12.8c-12.75,9.34-30.15,7.56-45.92,6.37-27.33-2.07-59.83-4.57-86.31,3.59-3.24,1-6.62,2.27-8.71,4.93C-2,169,1.18,173.83,1.71,179c.15,1.47-.11,3,.1,4.42,1.2,8.59,10.44,13,14.63,19.94,5,8.29,1.88,19.79,6.87,28.51,5.83,10.17,13.84,19.39,14.13,31.5a66.53,66.53,0,0,1-.89,12.37c-2.17,13.17-7.72,25.52-13.58,37.51-1.53,3.14-3.13,6.43-3,9.93.1,3.24-1.62,5.82-.81,9.34a20.78,20.78,0,0,0,5.19,9.22c4.58,4.9,13.15,8.56,13.43,16.12.16,4.18-2.44,7.89-5.17,10.83-3.22,3.44-7.12,8.38-6.46,13.44.63,4.85,4.58,9.56,7.24,13.41a33.58,33.58,0,0,1,4.21,29.63c-1.78,5.17-4.88,10-5.3,15.46-.46,5.8,2.19,11.35,4.76,16.57,15,4.09,30.62,4.42,44.52-2.45,6.23-3.08,11.94-7.16,18.31-9.93s13.81-4.1,20.23-1.43c2.93,1.21,5.52,3.21,8.54,4.17,9.55,3.05,19.83-4.95,29.56-2.56,6.86,1.69,11.72,8.17,18.54,10,4.3,1.18,8.88.37,13.32.73,11.61,1,21.4,9.78,33,11,4.16.42,9.49-1.23,9.85-5.4.3-3.39-2.83-7.48-.26-9.71a5.49,5.49,0,0,1,2.63-1l32.5-6.42a14.27,14.27,0,0,1,5.47-.36c3,.61,5.28,3.06,7.8,4.86a20.56,20.56,0,0,0,24.12-.68c2.59-2.08,4.67-4.81,7.54-6.47s6.12-2.07,9.35-2.45a349,349,0,0,1,46.61-2.28C374.86,436.91,382.92,437.61,385.49,432Z"/><path class="cls-3" d="M138,164.25c-14.55,5.9-23.93,5.58-26,22.49-1.54,12.67-5.44,22.18,7.46,31.51,10.61,7.67,33.65,6.19,44.93,1.68s15.09-12.28,14.63-24.07c-.56-13.92-10.89-24.56-21.82-29.48-4.66-2.1-12.11-6.11-19.2-2.13"/><path class="cls-3" d="M274.43,258.28c-9,1-14.31,18.59-2.67,27.9,7.63,6.1,22.71,5.42,27.1-4.33,7.19-16-12.59-25.6-24.43-23.57"/><path class="cls-3" d="M216.41,250.53c9.67,5.06,20.93,3.23,20.85-11.3-.08-13.67-17.6-13.45-27.33-13.54-10.93-.09-20.4,5.37-8.58,15.91,3.75,3.35,10.7,6.38,15.06,8.93"/><path class="cls-3" d="M156.18,248.34c-8.82,8.5-32.05,32-13.83,42.85,5.08,3,23,3.19,28.5-.73,4.89-3.44,5.5-9.84,4.53-15.75s-4.95-9.93-6.13-15.86,2.74-10.07-1.94-12.69c-5.15-2.89-13.15,1.83-13.75,6.54"/><path class="cls-3" d="M209.61,181.57c-4.44-2-14.84,1.66-19.9,6.13-4.78,4.21-10.5,12.27-8.39,19,2.83,5.75,11.88,6,20.51,6.34,10.67.45,22.13-3.44,32.5-1.54s22.55,8.06,33.55,2.37c18.08-9.35,1.05-22-10.55-25.17-14.89-4.11-35.16.94-47.72-7.16"/><path class="cls-3" d="M209,279.32c-30.23,42.38,70.29,27.89,55.05-1.77-5.37-10.46-17.52-8.27-29-10.45-8.22-1.57-20.95-.75-23.29,4.7-1.1,2.34-1.06,4.92-2.79,7.52"/><path class="cls-3" d="M87.8,250.23c-12.77,12.62-9.83,40.9,13.78,41,15.47.08,37.76-13.77,31.63-30.73-3.83-10.58-19.33-20.86-29.93-21.22-9-.3-9.83,7.16-15.48,10.93"/><path class="cls-3" d="M55,171.63c10,.38,19.6-2.81,25.55,7.18,4,6.65,8.48,17.53,8.49,25.14,0,18-16.55,21.15-28.95,17.24C52.23,218.71,47,214.87,41,210c-6.4-5.13-18.86-9.31-23.27-16.74-11.56-19.5,15.13-20,25.79-20.5,4-.2,7.26-1.29,11.49-1.17"/><path class="cls-3" d="M333.78,206.8c-9.67-5.05-20.93-3.22-20.85,11.3.07,13.67,17.6,13.45,27.33,13.54,10.93.1,20.4-5.36,8.58-15.91-3.75-3.34-10.7-6.38-15.06-8.93"/><path class="cls-3" d="M341.75,178c30.24-42.39-70.28-27.89-55,1.77,5.37,10.45,17.51,8.27,29,10.45,8.22,1.56,20.95.75,23.29-4.71,1.1-2.34,1.06-4.92,2.78-7.51"/><path class="cls-3" d="M323.63,265.77a22.73,22.73,0,0,0-9.44-.94c-2,.25-3.49,1.42-5.21,2.64-3.47,2.44-5.43,6.07-6.63,10.75-1.75,6.83,1.71,17.69,9,20.89,3.88,1.69,18.4,2.76,18.33-3.39a14.44,14.44,0,0,0-1.5-5.72,15.33,15.33,0,0,1-1.6-6,125.78,125.78,0,0,1,0-12.88c.28-3.36-.2-4.23-3-5.39"/><path class="cls-3" d="M263.72,220c-8.51-1.15-12.87-3.85-18.45,3.61-4.17,5.6-8.61,9-5,17,3,6.52,14.29,12.08,20.87,13s10.5-1.73,13.47-7.45c3.52-6.76,1.51-14.61-2.34-19.92-1.64-2.26-4.09-6.18-8.53-6.22"/><path class="cls-3" d="M99.12,190.35c-4.54-2-11.84,4.94-8.84,12.52,2,5,9.3,8.74,14,5.3,7.74-5.62,1-15.57-5.2-17.82"/><path class="cls-3" d="M188,214.33c-4.79-3.57-11-3.55-12.23,4.3-1.14,7.38,8.34,8.78,13.58,9.67,5.9,1,11.47-1.14,6-7.85-1.74-2.13-5.23-4.37-7.36-6.12"/><path class="cls-3" d="M99.42,213.41c-6.49,1.65-23.91,6.51-18.19,16.58,1.59,2.82,10,7.75,13.71,7.4,3.26-.31,5.29-3.18,6.43-6.25s.35-6,1.4-9.19,4-4,2.53-6.55c-1.66-2.76-6.74-2.7-8.3-.63"/><path class="cls-3" d="M260.58,166c-1.56-2.17-7.49-3.24-11.11-2.49-3.42.7-8.32,3-9.15,6.75-.22,3.5,4,6.06,8,8.58,4.94,3.11,11.44,4.38,15.84,8.09s8.52,9.95,15.28,10.24c11.12.47,6.47-10.15,1.83-14.81-6-6-16.94-9.1-20.7-16.36"/><path class="cls-3" d="M333.68,248.81c-1.55-2.18-7.49-3.25-11.11-2.5-3.41.7-8.31,3-9.15,6.75-.21,3.5,4,6.06,8,8.58,4.93,3.11,11.43,4.38,15.84,8.1s8.51,9.94,15.27,10.23c11.12.47,6.47-10.14,1.83-14.81-5.95-6-16.94-9.1-20.7-16.35"/><path class="cls-3" d="M176.93,236c-25.85,11.9,25.78,32.31,26.61,14.1.29-6.42-6.07-8.68-10.91-12.82-3.48-3-9.74-6-12.33-4.09-1.16.81-1.84,2-3.37,2.81"/><path class="cls-3" d="M136.48,226.81c-12.22.16-17.9,16.61-6.73,23.09,7.32,4.23,21.66,3.71,23.35-6,1.06-6.06-3.5-15.15-8.44-18.2-4.2-2.59-6.61.73-10.31,1"/><path class="cls-3" d="M184.8,151.41c4.64,2.89,10.06,4,10.18,10.34.07,4.23-.74,10.62-2.8,14.23-4.87,8.54-13.6,5.55-18.42.32-3-3.3-4.49-6.54-6-10.47-1.64-4.18-6.42-9.54-6.5-14.27-.19-12.39,12.61-5.37,17.81-2.72,2,1,3.79,1.36,5.77,2.57"/><path class="cls-3" d="M137.87,295.31c2.62-4.23-3.24-12.42-11.17-10.5-5.19,1.25-9.94,8-7.2,13.16,4.49,8.45,15.28,3.14,18.37-2.66"/><path class="cls-3" d="M252.7,267.55c5.61,2,11.58.24,10.48-7.63-1-7.4-10.51-6-15.79-5.36-5.93.74-10.66,4.38-3.49,9.24,2.27,1.54,6.25,2.68,8.8,3.75"/><path class="cls-3" d="M219.76,176c-.72-6.66-3.11-24.59-13.88-20.33-3,1.19-9.07,8.85-9.24,12.56-.14,3.27,2.41,5.67,5.29,7.23s5.95,1.19,8.91,2.66,3.43,4.56,6.13,3.42c3-1.26,3.62-6.3,1.78-8.13"/><path class="cls-3" d="M203.4,272.45c-8.19-27.25-35.59,21-17.67,24.39,6.32,1.18,9.44-4.81,14.22-9,3.42-3,7.33-8.8,5.76-11.63-.64-1.26-1.77-2.11-2.31-3.73"/><path class="cls-3" d="M76.85,257.38c1.54-12.13-14-20-21.93-9.88-5.21,6.66-6.69,20.93,2.69,24,5.85,1.89,15.49-1.37,19.19-5.83,3.16-3.8.2-6.65.46-10.34"/><path class="cls-3" d="M49.89,243.46c-5.45.33-10.51,2.58-14.28-2.54-2.51-3.41-5.55-9.09-6-13.23-1-9.78,7.88-12.39,14.84-10.92,4.4.93,7.44,2.74,11,5,3.76,2.45,10.76,4.06,13.56,7.87,7.33,10-7.17,11.67-12.94,12.53-2.18.32-3.88,1.08-6.2,1.24"/><path class="cls-3" d="M286.47,237.37c8.51,1.14,12.87,3.84,18.44-3.62,4.18-5.59,8.61-9.05,5-17-2.95-6.53-14.29-12.08-20.86-13s-10.5,1.73-13.48,7.44c-3.52,6.76-1.5,14.62,2.35,19.92,1.64,2.26,4.09,6.19,8.53,6.23"/><path class="cls-3" d="M287.93,258.21c4.54,2,11.83-4.93,8.84-12.51-2-5-9.31-8.74-14-5.3-7.74,5.62-1,15.56,5.2,17.81"/><path class="cls-3" d="M107.88,232c.62,5.94,4.85,10.51,11.45,6.09,6.2-4.17.8-12.09-2.1-16.55-3.26-5-8.61-7.67-9.84.91-.39,2.72.33,6.8.49,9.55"/><path class="cls-3" d="M224.86,255.76c-5.54-1.64-20.72-5.74-23.86,2.92-.88,2.42,1.39,9,4.14,10.28,2.42,1.15,5.79.18,8.7-1.27s4.45-3.66,7.34-5.2,5.54-.87,6.27-3.07c.8-2.41-2.68-4.46-5.18-3.8"/><path class="cls-3" d="M155.19,228.45c-2.62,4.22,3.24,12.41,11.16,10.5,5.2-1.25,10-8,7.21-13.16-4.49-8.45-15.28-3.14-18.37,2.66"/><path class="cls-3" d="M50.17,281.89c-2.61,4.22,3.24,12.41,11.17,10.5,5.19-1.26,9.94-8,7.2-13.16-4.49-8.45-15.28-3.14-18.37,2.66"/><path class="cls-3" d="M227.77,219.29c-2,3.24,2.49,9.52,8.57,8.05,4-1,7.62-6.13,5.52-10.09-3.44-6.48-11.72-2.41-14.09,2"/><path class="cls-3" d="M298.58,258.83c-2.1,3.4,2.61,10,9,8.45,4.18-1,8-6.44,5.8-10.59-3.61-6.81-12.3-2.53-14.79,2.14"/><path class="cls-3" d="M297.49,189.78c-5.61-2-11.58-.23-10.49,7.64,1,7.4,10.51,6,15.79,5.36,5.93-.74,10.67-4.38,3.5-9.24-2.27-1.55-6.26-2.69-8.8-3.76"/><path class="cls-3" d="M330.43,281.32c.72,6.66,3.11,24.58,13.88,20.32,3-1.18,9.07-8.84,9.24-12.55.14-3.27-2.42-5.68-5.29-7.24s-5.95-1.18-8.91-2.66-3.44-4.56-6.14-3.41c-3,1.26-3.61,6.29-1.78,8.13"/><path class="cls-3" d="M110.7,177.53c5.65-10.84-6.14-23.64-17.14-16.87C86.36,165.1,80,178,87.77,184.06c4.84,3.8,15,4.1,20,1.2,4.27-2.47,2.49-6.17,4-9.55"/><path class="cls-3" d="M75.43,235.76A5.68,5.68,0,0,0,74,238.12a5.56,5.56,0,0,0,1,3.81q2,3.56,4.33,6.92a3.41,3.41,0,0,0,1.81,1.59,2.51,2.51,0,0,0,2.2-.77,20,20,0,0,0,1.51-1.9c1.14-1.42,2.81-2.6,3.11-4.4a5.14,5.14,0,0,0-1.88-4.27c-1.17-1.11-2.58-2-3.64-3.19a25.18,25.18,0,0,0-1.88-2.23C78.24,231.65,76.88,234.12,75.43,235.76Z"/><path class="cls-3" d="M209.47,215.23a12.4,12.4,0,0,0-3.94.62,4.87,4.87,0,0,0-2.87,4.23,2.68,2.68,0,0,0,.57,1.89,2.82,2.82,0,0,0,1.3.74,12,12,0,0,0,3.87.33q4.92-.14,9.81-.69a8.26,8.26,0,0,0,3.81-1.1c1.54-1.06,2.2-3,2.77-4.75a1.78,1.78,0,0,0,.11-1,1.55,1.55,0,0,0-.47-.64C220.37,211.12,214.13,214.88,209.47,215.23Z"/><path class="cls-3" d="M306.33,237.07a14.87,14.87,0,0,0-2.37,4.44,5,5,0,0,0,.93,4.75c1.38,1.44,3.69,1.53,5.6.94s3.59-1.73,5.44-2.47c3.26-1.32,6.87-1.38,10.36-1.85a4.49,4.49,0,0,0,2.95-1.23,3.51,3.51,0,0,0,.69-1.66,7.14,7.14,0,0,0-2.37-6.6c-2-1.72-4.83-2.15-7.47-2.5-2.15-.29-6.55-1.8-8.58-.95S307.53,235.32,306.33,237.07Z"/><path class="cls-3" d="M177.1,256.2a6.6,6.6,0,0,0-2.62.28,2.73,2.73,0,0,0-1.74,1.85,4,4,0,0,0,.44,2.29l3.31,8.21a4.75,4.75,0,0,0,1.1,1.85,3.56,3.56,0,0,0,1.75.77,8.2,8.2,0,0,0,5.58-1.26,16.92,16.92,0,0,0,4.22-4,6.24,6.24,0,0,0,1.58-3.21,4.6,4.6,0,0,0-2.55-4.14C185.23,257.18,180.42,256.35,177.1,256.2Z"/><path class="cls-3" d="M251.81,437.65c14.54-5.91,23.92-5.59,26-22.5,1.55-12.67,5.45-22.18-7.45-31.51-10.61-7.67-33.66-6.19-44.93-1.68s-15.1,12.28-14.63,24.07c.55,13.93,10.89,24.56,21.82,29.48,4.66,2.1,12.11,6.11,19.2,2.14"/><path class="cls-3" d="M115.37,343.61c9-.95,14.31-18.59,2.66-27.9-7.62-6.1-22.7-5.42-27.09,4.33-7.19,16,12.58,25.6,24.43,23.57"/><path class="cls-3" d="M173.39,351.36c-9.68-5.06-20.93-3.23-20.85,11.3.07,13.67,17.6,13.45,27.33,13.54,10.93.09,20.39-5.37,8.58-15.91-3.76-3.35-10.7-6.38-15.06-8.93"/><path class="cls-3" d="M233.62,353.55c8.81-8.5,32.05-32,13.83-42.85-5.09-3-22.95-3.19-28.5.73-4.89,3.44-5.5,9.84-4.53,15.75s5,9.93,6.13,15.86-2.74,10.07,1.94,12.69c5.14,2.89,13.15-1.83,13.75-6.54"/><path class="cls-3" d="M180.19,420.32c4.43,2,14.84-1.66,19.9-6.13,4.78-4.21,10.5-12.27,8.39-19-2.84-5.75-11.89-6-20.52-6.34-10.66-.45-22.13,3.44-32.5,1.54s-22.55-8.06-33.54-2.37c-18.08,9.35-1.06,22,10.54,25.17,14.9,4.11,35.16-.94,47.73,7.16"/><path class="cls-3" d="M180.8,322.57c30.24-42.38-70.28-27.89-55,1.77,5.37,10.46,17.51,8.27,29,10.45,8.21,1.57,21,.75,23.29-4.7,1.09-2.34,1.06-4.92,2.78-7.52"/><path class="cls-3" d="M302,351.66c12.78-12.62,9.84-40.89-13.77-41-15.47-.08-37.76,13.77-31.63,30.73,3.83,10.58,19.33,20.86,29.93,21.22,9,.3,9.83-7.16,15.47-10.93"/><path class="cls-3" d="M334.8,430.26c-10-.38-19.59,2.81-25.54-7.18-4-6.65-8.48-17.53-8.49-25.14,0-18,16.54-21.15,28.94-17.24,7.85,2.48,13.07,6.32,19.1,11.15,6.41,5.13,18.87,9.31,23.28,16.74,11.56,19.5-15.13,20-25.8,20.5-4,.2-7.25,1.29-11.49,1.17"/><path class="cls-3" d="M56,395.09c9.67,5.05,20.93,3.22,20.85-11.3-.08-13.67-17.61-13.45-27.34-13.54-10.92-.1-20.39,5.36-8.57,15.91,3.75,3.34,10.7,6.38,15.06,8.93"/><path class="cls-3" d="M48,423.87c-30.23,42.39,70.29,27.89,55.05-1.77-5.37-10.45-17.52-8.27-29-10.45-8.22-1.56-21-.75-23.29,4.71-1.1,2.34-1.06,4.92-2.79,7.51"/><path class="cls-3" d="M66.17,336.12a22.68,22.68,0,0,0,9.43.94c2-.25,3.5-1.42,5.22-2.64,3.47-2.44,5.43-6.07,6.63-10.75,1.74-6.83-1.71-17.69-9-20.89C74.55,301.09,60,300,60.1,306.17a14.43,14.43,0,0,0,1.49,5.72,15.17,15.17,0,0,1,1.61,6,128.7,128.7,0,0,1,0,12.88c-.28,3.36.2,4.23,3,5.39"/><path class="cls-3" d="M126.08,381.92c8.51,1.15,12.87,3.85,18.44-3.61,4.18-5.6,8.61-9.05,5-17-2.95-6.52-14.29-12.08-20.86-13s-10.5,1.73-13.48,7.45c-3.52,6.76-1.5,14.61,2.35,19.92,1.64,2.26,4.09,6.18,8.53,6.22"/><path class="cls-3" d="M290.68,411.54c4.54,2,11.84-4.94,8.84-12.52-2-5-9.31-8.74-14-5.3-7.74,5.62-1,15.57,5.2,17.82"/><path class="cls-3" d="M201.81,387.56c4.78,3.57,11,3.55,12.23-4.3,1.14-7.38-8.34-8.78-13.59-9.67-5.89-1-11.47,1.14-6,7.85,1.74,2.13,5.23,4.37,7.36,6.12"/><path class="cls-3" d="M290.37,388.48c6.5-1.65,23.91-6.51,18.2-16.58-1.59-2.82-10-7.75-13.72-7.4-3.25.31-5.28,3.18-6.42,6.25s-.35,6.05-1.4,9.19-4,4-2.53,6.55c1.66,2.76,6.74,2.7,8.3.63"/><path class="cls-3" d="M129.22,435.86c1.55,2.17,7.49,3.24,11.11,2.49,3.41-.7,8.31-3,9.15-6.75.21-3.5-4-6.06-8-8.58-4.93-3.11-11.43-4.38-15.84-8.09s-8.51-9.95-15.27-10.24c-11.12-.47-6.47,10.15-1.83,14.81,6,6,16.94,9.1,20.7,16.36"/><path class="cls-3" d="M56.12,353.08c1.55,2.18,7.49,3.25,11.1,2.5,3.42-.7,8.32-3,9.16-6.75.21-3.5-4-6.06-8-8.58-4.94-3.11-11.44-4.38-15.84-8.1S44,322.21,37.24,321.92c-11.11-.47-6.46,10.14-1.83,14.81,6,6,16.94,9.1,20.71,16.35"/><path class="cls-3" d="M212.86,365.91c25.86-11.9-25.78-32.31-26.6-14.1-.29,6.42,6.07,8.68,10.91,12.82,3.47,3,9.74,6.05,12.33,4.09,1.16-.81,1.84-2,3.36-2.81"/><path class="cls-3" d="M253.31,375.08c12.23-.16,17.91-16.61,6.74-23.09-7.32-4.23-21.66-3.71-23.35,6-1.06,6.06,3.5,15.15,8.44,18.2,4.2,2.59,6.61-.73,10.3-1"/><path class="cls-3" d="M205,450.48c-4.64-2.89-10.07-4-10.18-10.34-.07-4.23.74-10.62,2.8-14.23,4.87-8.54,13.6-5.55,18.42-.32,3.05,3.3,4.48,6.54,6,10.47,1.65,4.18,6.43,9.54,6.5,14.27.2,12.39-12.6,5.37-17.8,2.72-2-1-3.8-1.36-5.77-2.57"/><path class="cls-3" d="M251.93,306.58c-2.62,4.23,3.24,12.42,11.16,10.5,5.19-1.25,10-8,7.2-13.16-4.49-8.45-15.27-3.14-18.36,2.66"/><path class="cls-3" d="M137.1,334.34c-5.61-2-11.58-.24-10.49,7.63,1,7.4,10.51,6,15.79,5.36,5.93-.74,10.67-4.38,3.5-9.24-2.27-1.54-6.26-2.68-8.8-3.75"/><path class="cls-3" d="M86.49,288.28c-4.74-3.63-11-3.7-12.29,4.14-1.24,7.37,8.23,8.89,13.46,9.84,5.88,1.08,11.48-1,6.11-7.76-1.71-2.15-5.17-4.44-7.28-6.22"/><path class="cls-3" d="M170,425.87c.73,6.66,3.12,24.59,13.89,20.33,3-1.19,9.07-8.85,9.23-12.56.15-3.27-2.41-5.67-5.28-7.23s-6-1.19-8.91-2.66-3.44-4.56-6.14-3.42c-3,1.26-3.61,6.3-1.78,8.14"/><path class="cls-3" d="M186.4,329.44c8.19,27.25,35.59-21,17.67-24.39-6.32-1.18-9.44,4.81-14.22,9-3.43,3-7.34,8.8-5.76,11.63.64,1.26,1.76,2.11,2.31,3.73"/><path class="cls-3" d="M313,341.29c-1.54,12.13,14,20,21.93,9.88,5.21-6.66,6.69-20.93-2.69-24-5.86-1.89-15.49,1.36-19.19,5.83-3.16,3.8-.2,6.64-.47,10.34"/><path class="cls-3" d="M339.9,358.43c5.46-.33,10.52-2.58,14.29,2.54,2.51,3.41,5.54,9.09,5.95,13.23,1,9.78-7.87,12.39-14.83,10.92-4.4-.93-7.45-2.74-11-5.05-3.75-2.45-10.76-4.06-13.55-7.87-7.33-10,7.17-11.67,12.94-12.53,2.17-.32,3.88-1.08,6.19-1.24"/><path class="cls-3" d="M103.32,364.52c-8.5-1.14-12.87-3.84-18.44,3.62-4.17,5.59-8.61,9.05-5,17,3,6.53,14.29,12.08,20.87,13s10.5-1.73,13.47-7.44c3.52-6.76,1.51-14.62-2.34-19.92-1.64-2.26-4.09-6.19-8.54-6.23"/><path class="cls-3" d="M101.87,343.68c-4.54-2-11.84,4.93-8.84,12.51,2,5,9.3,8.74,14,5.31,7.74-5.63,1-15.57-5.2-17.82"/><path class="cls-3" d="M281.92,369.89c-.62-5.94-4.86-10.51-11.45-6.08-6.2,4.16-.8,12.08,2.1,16.54,3.26,5,8.6,7.67,9.83-.91.4-2.72-.32-6.8-.48-9.55"/><path class="cls-3" d="M307.45,316.31c0,6,3.74,11,10.75,7.24,6.61-3.49,2.07-11.93-.36-16.67-2.71-5.32-7.76-8.52-9.87-.13-.68,2.67-.39,6.8-.52,9.56"/><path class="cls-3" d="M303.38,296c-.62-5.94-4.86-10.51-11.45-6.08-6.2,4.16-.8,12.08,2.1,16.54,3.26,5,8.61,7.67,9.84-.9.39-2.72-.33-6.81-.49-9.56"/><path class="cls-3" d="M164.94,346.13c5.54,1.64,20.71,5.74,23.86-2.92.88-2.42-1.4-9-4.14-10.28-2.42-1.15-5.79-.18-8.7,1.27s-4.45,3.66-7.34,5.2-5.54.87-6.27,3.07c-.8,2.41,2.68,4.46,5.18,3.8"/><path class="cls-3" d="M234.61,373.44c2.61-4.22-3.24-12.41-11.17-10.5-5.19,1.25-9.94,8-7.2,13.16,4.49,8.45,15.28,3.14,18.37-2.66"/><path class="cls-3" d="M342.88,314.23c2.62-4.22-3.24-12.41-11.16-10.49-5.19,1.25-10,8-7.2,13.16,4.48,8.45,15.27,3.13,18.36-2.67"/><path class="cls-3" d="M162,382.6c2-3.24-2.48-9.52-8.56-8.05-4,1-7.63,6.13-5.52,10.09,3.44,6.48,11.71,2.41,14.08-2"/><path class="cls-3" d="M91.76,344.82c2.11-3.4-2.61-10-9-8.45-4.18,1-8,6.44-5.8,10.6,3.62,6.8,12.3,2.52,14.79-2.15"/><path class="cls-3" d="M115.25,303.87c2.11-3.4-2.61-10-9-8.45-4.18,1-8,6.44-5.8,10.59,3.62,6.81,12.3,2.53,14.79-2.14"/><path class="cls-3" d="M92.31,412.11c5.61,2,11.58.23,10.48-7.64-1-7.4-10.51-6-15.79-5.36-5.93.74-10.66,4.38-3.5,9.24,2.28,1.55,6.26,2.69,8.81,3.76"/><path class="cls-3" d="M59.37,320.57c-.72-6.66-3.11-24.58-13.89-20.32-3,1.18-9.06,8.84-9.23,12.55-.15,3.27,2.41,5.68,5.29,7.24s6,1.18,8.91,2.66,3.43,4.56,6.13,3.41c3-1.26,3.62-6.29,1.78-8.13"/><path class="cls-3" d="M279.1,424.36c-5.66,10.84,6.14,23.64,17.13,16.87,7.2-4.44,13.54-17.31,5.79-23.4-4.83-3.8-15-4.1-20-1.2-4.28,2.47-2.49,6.17-4,9.55"/><path class="cls-3" d="M314.37,366.13a5.78,5.78,0,0,0,1.46-2.36,5.52,5.52,0,0,0-1-3.81q-2-3.56-4.33-6.92a3.37,3.37,0,0,0-1.81-1.59,2.49,2.49,0,0,0-2.19.77,18.51,18.51,0,0,0-1.51,1.9c-1.14,1.42-2.82,2.6-3.11,4.4a5.11,5.11,0,0,0,1.88,4.27c1.16,1.11,2.58,2,3.64,3.19a23.58,23.58,0,0,0,1.88,2.23C311.56,370.24,312.92,367.77,314.37,366.13Z"/><path class="cls-3" d="M285.59,305.52a5.67,5.67,0,0,0,1.47-2.35,5.53,5.53,0,0,0-1-3.82q-2-3.56-4.33-6.92a3.4,3.4,0,0,0-1.81-1.58,2.49,2.49,0,0,0-2.19.76,18.51,18.51,0,0,0-1.51,1.9c-1.14,1.42-2.82,2.6-3.11,4.4a5.1,5.1,0,0,0,1.87,4.27c1.17,1.11,2.59,2,3.65,3.19a22.38,22.38,0,0,0,1.88,2.23C282.79,309.64,284.15,307.16,285.59,305.52Z"/><path class="cls-3" d="M180.33,386.66a12.29,12.29,0,0,0,3.93-.62,4.88,4.88,0,0,0,2.88-4.23,2.64,2.64,0,0,0-.58-1.89,2.79,2.79,0,0,0-1.29-.74,12,12,0,0,0-3.88-.33q-4.9.13-9.8.69a8.19,8.19,0,0,0-3.81,1.1c-1.54,1.06-2.2,3-2.77,4.75a1.69,1.69,0,0,0-.11,1,1.52,1.52,0,0,0,.46.64C169.43,390.77,175.67,387,180.33,386.66Z"/><path class="cls-3" d="M83.47,364.82a14.62,14.62,0,0,0,2.36-4.44,5,5,0,0,0-.92-4.75c-1.38-1.44-3.7-1.53-5.6-.94s-3.6,1.73-5.45,2.47C70.6,358.49,67,358.54,63.51,359a4.49,4.49,0,0,0-2.95,1.23,3.41,3.41,0,0,0-.69,1.66,7.14,7.14,0,0,0,2.37,6.6c2,1.72,4.82,2.15,7.46,2.5,2.15.29,6.56,1.8,8.58.95S82.26,366.57,83.47,364.82Z"/><path class="cls-3" d="M212.7,345.69a6.62,6.62,0,0,0,2.62-.28,2.69,2.69,0,0,0,1.73-1.85,4.11,4.11,0,0,0-.43-2.29l-3.31-8.21a4.75,4.75,0,0,0-1.1-1.85,3.56,3.56,0,0,0-1.75-.77,8.2,8.2,0,0,0-5.58,1.26,16.92,16.92,0,0,0-4.22,4,6.26,6.26,0,0,0-1.59,3.21,4.61,4.61,0,0,0,2.56,4.14C204.57,344.71,209.38,345.54,212.7,345.69Z"/><path class="cls-4" d="M223.87,174.5c.62,5.93,4.86,10.51,11.45,6.08,6.2-4.17.8-12.09-2.1-16.54-3.26-5-8.61-7.67-9.84.9-.39,2.72.33,6.8.49,9.56"/></g></g></svg>