<svg xmlns="http://www.w3.org/2000/svg" xmlns:xlink="http://www.w3.org/1999/xlink" viewBox="0 0 3288.9772 2123.5313"><defs><style>.cls-1,.cls-37,.cls-39,.cls-40,.cls-42,.cls-50,.cls-53,.cls-60,.cls-64,.cls-86,.cls-92,.cls-94{fill:none;}.cls-2,.cls-44{fill:#81a1c5;}.cls-10,.cls-12,.cls-13,.cls-14,.cls-15,.cls-16,.cls-18,.cls-19,.cls-20,.cls-21,.cls-22,.cls-23,.cls-24,.cls-25,.cls-26,.cls-28,.cls-29,.cls-3,.cls-30,.cls-31,.cls-32,.cls-33,.cls-34,.cls-35,.cls-36,.cls-4,.cls-48,.cls-49,.cls-5,.cls-57,.cls-58,.cls-6,.cls-62,.cls-63,.cls-65,.cls-66,.cls-7,.cls-71,.cls-74,.cls-75,.cls-78,.cls-79,.cls-8,.cls-81,.cls-84,.cls-85,.cls-88,.cls-89,.cls-9,.cls-91,.cls-92,.cls-95,.cls-96{isolation:isolate;}.cls-10,.cls-4,.cls-5,.cls-6,.cls-7,.cls-8,.cls-9{font-size:76.312px;}.cls-10,.cls-12,.cls-13,.cls-14,.cls-15,.cls-16,.cls-18,.cls-19,.cls-20,.cls-21,.cls-22,.cls-23,.cls-24,.cls-25,.cls-26,.cls-4,.cls-5,.cls-6,.cls-7,.cls-8,.cls-9{fill:#df6572;}.cls-12,.cls-13,.cls-18,.cls-19,.cls-20,.cls-21,.cls-22,.cls-23,.cls-4,.cls-5,.cls-6,.cls-7,.cls-91,.cls-92{font-family:Acre-Medium, Acre;font-weight:500;}.cls-10,.cls-5{letter-spacing:-0.02em;}.cls-6{letter-spacing:-0.048em;}.cls-7{letter-spacing:-0.006em;}.cls-10,.cls-14,.cls-15,.cls-16,.cls-24,.cls-25,.cls-26,.cls-28,.cls-29,.cls-30,.cls-31,.cls-32,.cls-33,.cls-34,.cls-35,.cls-36,.cls-48,.cls-49,.cls-8,.cls-9,.cls-95,.cls-96{font-family:Acre-Thin, Acre;font-weight:200;}.cls-8{letter-spacing:-0.03em;}.cls-11{fill:#4e7383;}.cls-12,.cls-13,.cls-14,.cls-15,.cls-16{font-size:76.3123px;}.cls-13{letter-spacing:-0.059em;}.cls-15{letter-spacing:-0.03em;}.cls-16{letter-spacing:-0.02em;}.cls-17,.cls-83{fill:#2e61a2;}.cls-18,.cls-19,.cls-20,.cls-21,.cls-22,.cls-23,.cls-24,.cls-25,.cls-26{font-size:76.3115px;}.cls-18{letter-spacing:-0.01em;}.cls-19{letter-spacing:-0.059em;}.cls-21{letter-spacing:-0.02em;}.cls-22{letter-spacing:-0.014em;}.cls-23{letter-spacing:-0.007em;}.cls-24{letter-spacing:-0.03em;}.cls-26{letter-spacing:-0.02em;}.cls-27{fill:#5c5052;}.cls-28,.cls-29,.cls-30,.cls-31{font-size:76.3118px;}.cls-28,.cls-29,.cls-30,.cls-31,.cls-32,.cls-33,.cls-34,.cls-35,.cls-36,.cls-46,.cls-47,.cls-48,.cls-49,.cls-51,.cls-55,.cls-57,.cls-58,.cls-62,.cls-63,.cls-65,.cls-66,.cls-71,.cls-74,.cls-75,.cls-78,.cls-79,.cls-81,.cls-84,.cls-85,.cls-88,.cls-89,.cls-91,.cls-95,.cls-96{fill:#fff;}.cls-29{letter-spacing:-0.029em;}.cls-30{letter-spacing:-0.02em;}.cls-31{letter-spacing:-0.02em;}.cls-32,.cls-33,.cls-34,.cls-35,.cls-36{font-size:76.3116px;}.cls-32{letter-spacing:-0.03em;}.cls-34{letter-spacing:-0.02em;}.cls-35{letter-spacing:-0.029em;}.cls-36{letter-spacing:-0.02em;}.cls-37,.cls-39,.cls-50,.cls-51,.cls-68,.cls-77{stroke:#ffcf01;}.cls-37,.cls-39,.cls-40,.cls-42,.cls-50,.cls-51,.cls-53,.cls-54,.cls-56,.cls-59,.cls-60,.cls-64,.cls-68,.cls-70,.cls-72,.cls-73,.cls-76,.cls-77,.cls-80,.cls-83,.cls-86,.cls-87,.cls-90,.cls-94{stroke-miterlimit:10;}.cls-37{stroke-width:5.0875px;}.cls-38,.cls-80,.cls-82,.cls-93{fill:#ffcf01;}.cls-39{stroke-width:3.9428px;}.cls-40,.cls-42{stroke:#fecf08;}.cls-40{stroke-width:3.5173px;}.cls-41{fill:#fecf08;}.cls-42{stroke-width:3.9106px;}.cls-43{clip-path:url(#clip-path);}.cls-44,.cls-45,.cls-46,.cls-47,.cls-59,.cls-86,.cls-94{stroke:#5b5052;}.cls-44{stroke-miterlimit:10;stroke-width:0.6407px;}.cls-45,.cls-72{fill:#ec6a7c;}.cls-45,.cls-46{stroke-miterlimit:10;stroke-width:0.6183px;}.cls-47{stroke-miterlimit:9.9999;stroke-width:0.6183px;}.cls-48,.cls-49{font-size:46.9894px;}.cls-49{letter-spacing:-0.02em;}.cls-50{stroke-width:3.9158px;}.cls-51{stroke-width:4.0016px;}.cls-52{clip-path:url(#clip-path-2);}.cls-53,.cls-54,.cls-56{stroke:#5e5252;}.cls-54{fill:#3d9f96;}.cls-56,.cls-59{fill:#ec6b7c;}.cls-57{font-size:18.1781px;}.cls-57,.cls-58,.cls-62,.cls-63,.cls-65,.cls-66,.cls-71,.cls-74,.cls-75,.cls-78,.cls-79,.cls-81,.cls-84,.cls-85,.cls-88,.cls-89{font-family:Acre-Bold, Acre;font-weight:700;}.cls-58{font-size:10.5978px;}.cls-60,.cls-64{stroke:#5c5052;}.cls-60{stroke-width:0.9979px;}.cls-61{fill:#5e5252;}.cls-62{font-size:16.7312px;}.cls-63{font-size:9.7548px;}.cls-64{stroke-width:0.998px;}.cls-65{font-size:18.1779px;}.cls-66{font-size:10.5977px;}.cls-67,.cls-68{fill:#5b5052;}.cls-68{stroke-width:3.8877px;}.cls-69{clip-path:url(#clip-path-3);}.cls-70{fill:#6d54a3;stroke:#ec6a7c;}.cls-70,.cls-73{stroke-width:2.0111px;}.cls-71{font-size:29.5677px;}.cls-72,.cls-76,.cls-80,.cls-83,.cls-92,.cls-93{stroke:#fff;}.cls-72{stroke-width:0.4022px;}.cls-73{fill:#3caba2;}.cls-73,.cls-82{stroke:#2e61a2;}.cls-74,.cls-75{font-size:32.1778px;}.cls-74{letter-spacing:-0.01em;}.cls-76{fill:#2e6289;stroke-width:0.6704px;}.cls-77{fill:#f37243;stroke-width:1.4549px;}.cls-78,.cls-79{font-size:23.2787px;}.cls-78{letter-spacing:-0.014em;}.cls-80{stroke-width:0.3908px;}.cls-81{font-size:29.5678px;}.cls-82{stroke-miterlimit:10;stroke-width:2.2643px;}.cls-83{stroke-width:0.6793px;}.cls-84,.cls-85{font-size:26.6239px;}.cls-84{letter-spacing:-0.01em;}.cls-86,.cls-93{stroke-linecap:round;}.cls-86{stroke-width:1.2593px;}.cls-87{fill:#c86572;stroke:#e3b222;stroke-width:0.9009px;}.cls-88{font-size:21.191px;}.cls-89{font-size:21.1912px;}.cls-90{fill:#39944c;stroke:#6d54a3;stroke-width:1.0804px;}.cls-91,.cls-92{font-size:21.259px;}.cls-92{stroke-miterlimit:10.0001;stroke-width:1.2265px;}.cls-93{stroke-linejoin:round;stroke-width:0.5621px;}.cls-94{stroke-width:1.9439px;}.cls-95,.cls-96{font-size:46.6527px;}.cls-96{letter-spacing:-0.02em;}</style><clipPath id="clip-path" transform="translate(23.4415 14.5873)"><path class="cls-1" d="M1673.4833,380.699a311.6,311.6,0,0,0,169.4825,262.518L1897.32,791.4683l106.8028-115.699c166.0517-11.9671,292.7716-155.3925,284.4242-323.9771C2280.07,180.5906,2135.5115,48.276,1965.6663,56.2584S1665.0062,209.4974,1673.4833,380.699Z"/></clipPath><clipPath id="clip-path-2" transform="translate(23.4415 14.5873)"><circle class="cls-1" cx="2895.1487" cy="809.9352" r="307.8266"/></clipPath><clipPath id="clip-path-3" transform="translate(23.4415 14.5873)"><circle class="cls-1" cx="589.4096" cy="545.6407" r="301.2997"/></clipPath></defs><g id="Layer_2" data-name="Layer 2"><g id="Layer_3" data-name="Layer 3"><rect class="cls-2" x="1098.1231" y="1069.1781" width="611.1208" height="414.5411" transform="translate(64.8357 2611.5724) rotate(-86.3904)"/><path class="cls-2" d="M674.5244,1676.73q1.7574.4824,3.52.9433c31.7817,8.3127,64.4137,15.2237,97.3716,15.9986,30.0995.7076,66.9456-14.3235,95.1372-1.1723,20.93,9.7636,32.3438,32.5451,39.4207,54.53,12.5431,38.9643,25.2291,71.1914,56.18,99.7021,56.9832,52.49,128.0518,79.6345,204.383,87.8867,39.4594,4.266,83.3244,5.1885,122.5722,1.32,53.67-5.29,104.8455-23.6809,156.1257-39.2586q4.6356-1.4082,9.2788-2.7918c65.7164-19.5259,137.5656-33.2249,201.7589-9.1591,50.9,19.0822,91.0742,60.5116,133.3349,93.2227,67.2126,52.0241,161.9093,78.831,246.4677,71.2529,130.9327-11.7343,182.1705-111.1252,201.4195-228.8357q10.9149-66.7459,17.8775-134.0582c4.1841-40.4567-2.1016-86.247,5.84-125.02,4.656-22.7331,19.7793-44.7592,42.123-51.0224,16.012-4.4884,33-.4648,49.2993,2.8312a552,552,0,0,0,161.4192,8.4529c69.5161-6.6164,103.44-39.96,139.1941-97.5345,14.8113-23.85,29.749-47.9645,38.7776-74.5487,9.9517-29.3021,16.3635-61.7457,21.6563-92.2635,6.1284-35.3383,14.2351-73.212,15.3339-109.0516.1272-4.1242,1.38-10.0476-.3652-13.9378-1.2837-2.8608-4.0146-3.7359-6.9346-4.0719-6.3962-.7358-13.02-.3064-19.4616-.7148q-18.15-1.15-36.3006-2.29l-464.2-29.2829-554.03-34.95-533.0078-33.6236c-48.2918-3.0463-96.6811-5.3837-144.869-9.6728,1.7239.1535,4.1845,15.3084,4.39,16.9362.3679,2.9138,1.1966,12.4361-4.0719,11.4822-1.5775-.2857-4.1564-2.9273-5.5686-3.825q-3.432-2.1817-6.8857-4.3289c-8.8627-5.503-17.8477-10.8122-26.99-15.8376-37.564-20.6473-78.7775-34.14-120.8578-41.92-69.6392-12.8739-134.4992-19.8507-193.2074,27.78-118.0164,95.75-118.54,287.1528-118.59,425.087C502.021,1550.97,559.71,1645.2078,674.5244,1676.73Z" transform="translate(23.4415 14.5873)"/><path class="cls-2" d="M2532.4026,300.1307c.5542,33.4991-8.6035,71.5725-4.9341,104.2027,1.6533,14.7018,9.7976,27.6256,9.9216,43.4766a101.859,101.859,0,0,1-12.4265,49.88c-4.125,7.4618-9.1723,14.3668-13.7776,21.5422-18.2539,28.4414-31.9941,61.2644-38.2165,94.304-5.9187,31.4266-16.6162,61.1114-40.0911,83.8212-34.2224,33.1068-94.1755,42.6762-138.8276,50.1533a546.0217,546.0217,0,0,1-168.8525,1.8921c-45.198-6.6045-90.3765-19.2974-128.4979-44.94s-68.6357-65.5587-76.1092-111.6983c-4.5465-28.0689-.4613-56.65,6.3843-83.9918,3.2289-12.8963,8.3153-25.6517,10.4737-38.7213,2.0324-12.3056-.3883-23.3284-.0121-35.6057.4642-15.1427,9.3555-28.5048,15.2649-42.4546,7.7238-18.2329,10.4876-38.1426,16.4362-57.03,5.467-17.3579,13.5881-33.7418,21.6761-50.0443,4.8058-9.6869,10.5014-20.5727,20.2121-26.1708,2.1357-1.2313,5.4848-1.5259,7.3476-2.8624,2.5634-1.8391,3.9261-7.3071,5.2113-10.1571,3.4649-7.6831,7.0273-15.3237,10.7465-22.8871,14.6533-29.7983,31.9717-58.8008,55.604-82.41,72.2266-72.1553,180.5432-75.6727,272.56-49.8011C2462.6106,118.7774,2530.553,188.3379,2532.4026,300.1307Z" transform="translate(23.4415 14.5873)"/><path class="cls-2" d="M1884.0513,597.9781c-38.2829,47.18-93.3439,83.06-154.6006,89.6661-34.5509,3.726-75.2229-12.4092-107.1679-24.2364l-.9357-.3474a583.4707,583.4707,0,0,1-117.5762-59.5163c-12.5319-8.2588-25.9887-17.1827-36.256-27.51-10.0934-10.1526-22.69-16.9454-32.07-28.4407-18.6545-22.8618-29.1375-51.9472-32.1646-81.1168-4.3707-42.1188,5.2474-84.4335,17.6278-124.9287,34.2976-112.1855,71.1691-263.5194,194.7561-308.3561,82.73-30.0139,170.4611-40.1613,257.9213-28.4418,83.8,11.2291,143.123,70.1637,155.4988,153.4175,4.0525,27.2617,8.08,55.2858,1.7717,82.16-7.773,33.1142-31.1445,58.2468-43.4758,89.1405-11.555,28.9488-12.6622,63.782-19.8254,94.1654C1953.8635,481.707,1925.639,546.7249,1884.0513,597.9781Z" transform="translate(23.4415 14.5873)"/><path class="cls-2" d="M1625.2889,1425.91c4.5048,50.002,7.5938,120.7537-10.2923,168.2641-8.0753,21.45-18.7147,42.18-23.7515,64.43-14.6828,64.8609,3.5955,134.0026-49.844,187.6972-36.5916,36.7656-104.321,50.7291-154.7385,61.4936a682.88,682.88,0,0,1-192.6289,13.2252c-52.0947-3.8669-104.6227-14.0766-150.0632-38.2452s-83.2651-63.712-95.2534-111.283c-27.1354-107.7008,27.21-226.6312,74.3071-320.9,76.107-152.3349,210.2554-267.0542,392.61-231.5762C1532.0361,1241.6626,1614.81,1309.5893,1625.2889,1425.91Z" transform="translate(23.4415 14.5873)"/><path class="cls-2" d="M2428.3779,710.4992c-65.041-1.09-138.8671,30.6509-178.42,83.9285-22.6387,30.4944-41.8982,114.1518-59.4055,147.677-21.91,41.9555-34.4414,76.6449-58.0256,106.42-58.8787,74.3333-75.5623,170.4143-44.2776,261.3353,12.8476,37.3385,38.9145,62.5342,72.3926,80.9742,37.5561,20.6863,72.5549,41.1523,113.5583,55.3285,77.3425,26.74,180.0855,72.4666,261.9907,44.3377,44.909-15.4232,94.7456-44.794,124.8313-82.1137,34.9824-43.394,46.9983-100.5158,56.1262-155.5355a2547.9139,2547.9139,0,0,0,31.9234-305.8472c1.8264-41.8591,1.7458-88.2608-25.1626-122.9771-25.3775-32.7411-66.4214-48.0978-102.6426-65.21C2558.3814,729.1083,2498.1609,711.67,2428.3779,710.4992Z" transform="translate(23.4415 14.5873)"/><path class="cls-2" d="M2045.0614,1226.0392q-3.6407,6.2753-7.3913,12.4907c-27.8018,46.0649-55.55,99.085-102.2966,128.0573-56.3619,34.9315-127.982,39.8129-192.0985,28.4107-72.453-12.8847-142.9627-63.1866-200.6908-105.7153-35.5865-26.2171-44.0627-64.8032-40.3109-107.6873,4.2317-48.3686,10.4948-89.1424,2.0723-137.7733-9.1538-52.8544,15.732-95.5369,41.0613-139.1628,29.4189-50.67,55.3073-97.6275,100.96-135.7857,92.9125-77.6591,236.7245-120.7264,351.82-75.8275a262.3514,262.3514,0,0,1,62.39,35.1867c51.48,38.8239,75.3654,103.0861,79.8244,164.9334,4.57,63.3875-3.7133,125.4272-25.5634,183.7206C2095.521,1128.4241,2072.6423,1178.4994,2045.0614,1226.0392Z" transform="translate(23.4415 14.5873)"/><path class="cls-2" d="M3036.0254,593.2036c-17.0979,18.1277-35.0266,35.5136-53.17,52.5657-33.1541,31.1595-63.6792,65.1263-98.2322,94.7962-29.7068,25.5085-68.5,59.2783-107.7285,67.045q-.8892.1746-1.781.3351c-31.53,5.6253-64.5718-3.6291-93.03-16.9158-7.2351-3.3779-13.9873-7.9569-21.2263-11.2177-6.719-3.0266-14.312-4.349-21.2028-7.4967a100.2786,100.2786,0,0,1-17.6373-10.2486c-5.1062-3.7187-10.82-4.7462-16.8029-6.7434a175.8018,175.8018,0,0,1-39.3269-18.8376c-6.3431-4.0761-11.1-7.9477-14.8365-14.4716a95.72,95.72,0,0,0-5.4834-8.7565c-12.0444-16.6306-21.22-34.2072-25.9209-54.3429-10.5051-44.9974-23.9045-95.3889-26.2251-141.5371-2.1816-43.387,10.2322-85.9943,21.6661-127.9039,19.0981-70.0033,37.0805-141.9021,75.72-204.2992,34.2383-55.2906,88.7732-99.0734,152.917-114.1948,78.0684-18.4039,149.6184,13.0631,211.9768,58.4437,33.5227,24.3958,65.42,50.7464,99.82,73.9612,44.0293,29.7139,94.8125,60.6566,104.75,118.4365,11.3193,65.8154-23.2854,133.6608-57.4734,187.3685C3083.48,539.5363,3060.6116,567.137,3036.0254,593.2036Z" transform="translate(23.4415 14.5873)"/><path class="cls-2" d="M558.111,1111.0289c22.8184-54.711,64.455-103.4731,119.9623-126.5466,31.3079-13.0143,73.8211-9.1288,106.979-6.8687,58.9072,4.0152,121.0192,17.8842,167.8826,55.8343,24.5256,19.8609,34.9651,42.9759,51.0641,68.5526,22.1012,35.1117,38.0325,65.1551,41.938,107.565,2.6184,28.434,2.24,57.1479,6.9313,85.3781,4.6354,27.8918,9.6938,55.8188,5.542,84.2026-10.1116,69.1275-35.1318,143.5655-93.385,186.4466-69.1488,50.9018-148.4571,84.59-233.5409,97.7389-81.5227,12.5981-153.2928-26.1994-187.8317-100.7022-11.31-24.3961-22.8067-49.5127-24.3133-76.4033-1.8564-33.1342,13.0863-63.1,16.1081-95.4127,2.8315-30.2787-5.7373-63.1837-7.4114-93.594C524.8363,1239.0947,533.3227,1170.4633,558.111,1111.0289Z" transform="translate(23.4415 14.5873)"/><path class="cls-2" d="M1525.5383,948.7889c-10.0882,22.2077-16.5655,37.97-30.9038,57.7761-25.6991,35.499-57.4115,64.9025-79.5246,102.8076-20.5883,35.2915-33.0727,76.556-70.7093,98.3009-53.4487,30.88-131.6228,15.7142-190.1074,11.83-53.1164-3.5273-94.6566-22.7927-120.2323-70.8918-22.1152-41.591-48.4927-87.74-62.8442-132.6049-13.4926-42.1794-12.4-87.4065-12.0908-131.69.5161-73.9684-.5624-149.5124,21.1963-221.0948,19.2805-63.43,61.5679-120.8269,120.8166-152.4957,72.11-38.5435,150.8362-26.2444,224.1429,2.1671,39.4084,15.2733,77.7266,32.8978,117.69,46.7786,51.1509,17.7667,109.2779,34.9784,134.175,89.3116,28.3626,61.8961,11.9969,137.8017-7.6508,199.6623C1564.5083,864.35,1532.3573,933.779,1525.5383,948.7889Z" transform="translate(23.4415 14.5873)"/><g class="cls-3"><text class="cls-4" transform="matrix(1, -0.0027, 0.0027, 1, 468.4214, 2016.2792)">g</text><text class="cls-5" transform="matrix(1, -0.0027, 0.0027, 1, 515.4293, 2016.1504)">r</text><text class="cls-4" transform="matrix(1, -0.0027, 0.0027, 1, 538.9333, 2016.086)">a</text><text class="cls-6" transform="matrix(1, -0.0027, 0.0027, 1, 586.0168, 2015.957)">v</text><text class="cls-4" transform="matrix(1, -0.0027, 0.0027, 1, 624.3254, 2015.852)">i</text><text class="cls-5" transform="matrix(1, -0.0027, 0.0027, 1, 645.4633, 2015.7941)">t</text><text class="cls-4" transform="matrix(1, -0.0027, 0.0027, 1, 667.2893, 2015.7343)">atio</text><text class="cls-7" transform="matrix(1, -0.0027, 0.0027, 1, 804.3437, 2015.3587)">n</text><text class="cls-4" transform="matrix(1, -0.0027, 0.0027, 1, 847.6125, 2015.2402)">al </text><text class="cls-8" transform="matrix(1, -0.0027, 0.0027, 1, 596.0747, 2107.5043)">w</text><text class="cls-9" transform="matrix(1, -0.0027, 0.0027, 1, 654.2238, 2107.345)">a</text><text class="cls-10" transform="matrix(1, -0.0027, 0.0027, 1, 701.3076, 2107.216)">t</text><text class="cls-9" transform="matrix(1, -0.0027, 0.0027, 1, 719.6227, 2107.1658)">er</text></g></g><g id="Layer_8" data-name="Layer 8"><path class="cls-11" d="M1596.5963,1421.9675c4.109,54.9568-9.2759,112.9851-18.6778,165.2544-14.3426,79.7359-6.4981,178.12-74.37,240.0475-69.0725,63.0236-219.4616,75.7773-313.0238,71.2936-94.7914-4.5429-189.298-40.7569-214.451-131.9365-33.6437-121.9588,52.99-251.4543,112.319-354.8866,40.7911-71.1139,96.3688-137.57,181.3357-166.7553C1412.17,1196.0582,1585.7632,1277.0782,1596.5963,1421.9675Z" transform="translate(23.4415 14.5873)"/><path class="cls-11" d="M2507.6221,294.7591c.1391,52.77-15.1734,107.5-26.6509,156.9468-17.5085,75.43-16.833,169.9263-79.917,225.3433-64.2,56.3975-196.1787,60.1966-277.5088,50.6877-82.3985-9.6338-162.5635-49.5307-178.7881-138.1058-21.7015-118.4749,61.9832-237.4417,120.2176-333.0155,40.0383-65.7107,92.6826-126.1433,168.6255-149.3028C2360.9141,68.4877,2507.2549,155.6351,2507.6221,294.7591Z" transform="translate(23.4415 14.5873)"/><path class="cls-11" d="M2414.2305,741.9154c-35.5269,5.0408-69.9783,16.6637-99.512,37.182-69.5264,48.3032-70.2265,123.5438-101.44,194.2366-22.3963,50.7234-62.9231,91.9189-86.906,141.9369-32.84,68.49-38.9973,176.5915,19.021,234.7809,35.229,35.3328,86.2971,47.5677,128.9367,71.5423,49.781,27.99,105.5948,46.4085,162.3665,55.1126,94.0017,14.4122,162.563-18.2312,209.4133-98.7055,74.21-127.47,63.7412-262.47,65.3992-404.0278.1177-10.0439.26-20.0884.1684-30.1332-.6084-67.0334-22.343-116.0861-78.3725-154.2123C2570.4121,746.8311,2489.0339,731.302,2414.2305,741.9154Z" transform="translate(23.4415 14.5873)"/><path class="cls-11" d="M2027.8106,734.7257c-27.3228-12.155-58.0229-18.8433-85.5252-23.129-77.5046-12.0774-154.4374,11.9251-224.9884,41.86-50.014,21.2213-90.73,60.0568-122.4258,103.4619-24.5746,33.653-46.12,70.1762-58.567,110.1533-14.1728,45.521-6.2635,84.881-7.5353,130.7407-1.0853,39.138-8.7613,89.2777.37,127.495a83.6785,83.6785,0,0,0,2.3711,8.1129c14.27,40.9195,63.7393,58.5458,96.6109,82.1895,33.8182,24.3243,70.3525,46.5057,112.35,53.336,72.4756,11.7868,171.0167,3.2083,222.9793-52.6621,22.587-24.2856,31.0377-56.3957,46.9422-84.6814,39.2019-69.7192,71.5994-143.0688,95.5139-219.5117,15.59-49.8331,13.679-101.2892,6.5132-152.6827C2104.5674,803.09,2081.9326,758.8027,2027.8106,734.7257Z" transform="translate(23.4415 14.5873)"/><path class="cls-11" d="M1957.9548,1382.6238c-27.9864,10.4509-54.3916,25.85-79.0964,42.0207-44.3918,29.0559-86.732,54.96-114.0784,101.9-30.2254,51.8825-35.8964,112.6814-35.4587,171.5524.4261,57.3073-5.244,127.2536,22.0688,179.3322,28.232,53.8309,81.2546,89.7677,137.8116,108.7313,57.0357,19.1241,129.1855,37.8525,187.97,17.01q.8107-.2872,1.6184-.5837c45.4528-16.6817,77.7834-54.3742,98.9108-96.8079,54.3023-109.0637,70.6951-244.4786,49.806-363.8638-7.3975-42.2771-16.9517-86.5288-46.38-119.4482-39.992-44.7372-108.1555-56.77-165.3668-52.8919C1995.8173,1370.9271,1976.5372,1375.6844,1957.9548,1382.6238Z" transform="translate(23.4415 14.5873)"/><path class="cls-11" d="M2834.04,103.456a191.1846,191.1846,0,0,0-98.137,5.2941c-137.1848,43.7457-177.8657,219.9026-206.778,340.1762-27.1248,112.8373-3.9,260.9045,128.896,294.7422,63.2463,16.1157,118.94,22.1972,176.53-12.8318,94.5818-57.5277,187.1421-142.8,252.4446-230.9446,20.6679-27.8974,25.709-61.8955,34.4494-94.4527,8.7273-32.5086,24.2478-60.7485,10.8311-94.9348-11.5227-29.36-37.9961-50.4156-64.7969-67.7349C2991.9524,193.9632,2926.0474,122.1807,2834.04,103.456Z" transform="translate(23.4415 14.5873)"/><path class="cls-11" d="M831.9848,1629.01c27.0519-12.675,52.1283-30.1551,75.4478-48.2662,41.9026-32.5434,82.0144-61.78,105.4839-110.773,25.94-54.1522,26.6871-115.21,21.5-173.8541-5.0489-57.0859-5.0412-127.2617-36.4674-176.9666-32.4836-51.3772-88.233-82.9184-146.1358-97.2564-58.3929-14.4594-131.8187-27.3048-188.729-1.7867-42.0063,18.8353-74.9426,55.9546-88.9228,99.79a720.4848,720.4848,0,0,0-33.42,250.1006c3.3319,75.4165,7.3221,181.87,65.5835,237.3074,43.4716,41.3647,112.3839,47.8578,169.0959,39.376C795.1893,1643.7237,814.0225,1637.4261,831.9848,1629.01Z" transform="translate(23.4415 14.5873)"/><path class="cls-11" d="M1784.1207,20.7479c-30.5284,2.3621-60.9016,10.0469-89.8186,18.9725-51.96,16.0383-101.0069,29.5538-141.2463,68.0386-44.4763,42.537-67.2938,100.8161-83.5476,158.9274-15.8222,56.5678-41.2315,123.857-29.0886,182.8948,12.5515,61.0243,54.5929,111.4492,104.9262,146.1575,50.7594,35.0021,116.5182,73.8979,180.3268,70.0285,47.0982-2.8561,92.1173-26.528,121.39-63.5014A738.4622,738.4622,0,0,0,1969.64,374.54c24.1039-73.5235,58.8112-177.0469,23.0109-251.2956-26.7123-55.4-90.4424-86.5713-147.8942-98.9664C1824.73,19.9577,1804.3912,19.18,1784.1207,20.7479Z" transform="translate(23.4415 14.5873)"/><path class="cls-11" d="M1198.6184,519.1147a194.8943,194.8943,0,0,0-95.3116,30.8728C979.5733,628.9558,985.5435,813.1611,988.5,939.2275c2.7735,118.2715,64.3676,258.0923,204.0592,256.7156,66.5308-.6556,122.9964-9.2239,170.5833-58.7945,78.153-81.41,147.0605-189.6287,188.36-293.5511,13.071-32.891,9.15-67.7077,9.25-102.0718.1-34.3128,8.01-66.1956-14.1475-96.3722-19.029-25.9162-50.6184-39.7417-81.5536-49.8C1377.874,567.0086,1294.17,513.51,1198.6184,519.1147Z" transform="translate(23.4415 14.5873)"/><g class="cls-3"><text class="cls-12" transform="matrix(1, 0.0036, -0.0036, 1, 2361.9004, 1993.9501)">plant a</text><text class="cls-13" transform="matrix(1, 0.0036, -0.0036, 1, 2614.4133, 1994.8668)">v</text><text class="cls-12" transform="matrix(1, 0.0036, -0.0036, 1, 2651.8821, 1995.0028)">ailable</text><text class="cls-14" transform="matrix(1, 0.0036, -0.0036, 1, 2894.3203, 1995.8829)"> </text><text class="cls-15" transform="matrix(1, 0.0036, -0.0036, 1, 2546.6591, 2086.1966)">w</text><text class="cls-14" transform="matrix(1, 0.0036, -0.0036, 1, 2604.8081, 2086.4077)">a</text><text class="cls-16" transform="matrix(1, 0.0036, -0.0036, 1, 2651.8918, 2086.5787)">t</text><text class="cls-14" transform="matrix(1, 0.0036, -0.0036, 1, 2670.207, 2086.6451)">er</text></g></g><g id="Layer_9" data-name="Layer 9"><path class="cls-17" d="M1441.4938,1840.4919q-30.6738,14.41-71.6231,18.7431l-106.9364,11.473c-75.6934,8.1211-170.5953,4.0291-225.8842-51.0428-92.1274-91.7791-28.0126-217.8986,28.9942-309.48,59.5255-95.6273,116.9942-223.4929,246.546-250.2755,112.2972-23.2155,242.0761,47.6823,259.5694,151.5684,7.5964,45.112-4.3712,90.8156-16.2587,135.1217-15.9875,59.5868-12.9818,122.62-28.139,182.47C1514.098,1783.0228,1485.7185,1819.7159,1441.4938,1840.4919Z" transform="translate(23.4415 14.5873)"/><path class="cls-17" d="M2346.0972,686.2267q-27.6592,12.0645-63.6492,13.9214l-93.9963,5c-66.534,3.5391-149.057-5.67-193.8316-61.4067-74.6064-92.8862-10.7757-209.8825,44.69-294.2556,57.9162-88.1008,116.0591-207.1373,230.7417-225.5115,99.4082-15.9269,208.1657,59.0977,216.9126,159.393,3.7981,43.5527-9.5057,86.5791-22.6519,128.2738-17.68,56.0749-19.01,116.5043-35.9827,172.8774C2413.03,635.3366,2385.9751,668.8326,2346.0972,686.2267Z" transform="translate(23.4415 14.5873)"/><path class="cls-17" d="M2356.3972,780.8242c-46.8305,27.8542-69.489,81.8255-86.3838,132.96-16.8945,51.1327-32.655,105.782-72.5217,142.6174-85.7285,79.2109-100.9849,265.72,23.2212,314.1493,44.801,17.4683,81.8779,49.0756,126.5161,66.415,46.5974,18.1,98.0115,22.9655,147.7351,22.1263,182.4024-3.0793,199.146-297.3622,195.4011-425.5787-2.6731-91.5305-21.0356-205.3527-116.65-246.1036C2510.2608,760.365,2418.5086,743.881,2356.3972,780.8242Z" transform="translate(23.4415 14.5873)"/><path class="cls-17" d="M2034.6837,778.7243q-5.7372-4.9491-12.2507-9.5665c-48.1508-34.068-112.7857-40.05-171.324-28.89q-174.958,33.3545-267.2236,180.4309c-10.444,16.675-19.9489,34.171-24.799,53.0933-14.0354,54.7579-2.4128,119.82-.7108,175.6543,1.4166,46.46,24.4585,99.28,61.0421,130.2473,17.0645,14.4445,38.0938,23.6294,58.7853,32.608,67.6515,29.3556,132.8378,53.5165,206.292,25.2708,71.6455-27.55,103.73-89.8014,133.5665-153.6845a775.7507,775.7507,0,0,0,66.08-223.21C2092.8179,896.7728,2087.6106,824.38,2034.6837,778.7243Z" transform="translate(23.4415 14.5873)"/><path class="cls-17" d="M2135.9944,1418.7217c-14.9683-8.7509-32.7124-15.0251-53.7307-18.2473-27.624-4.2351-56.5053-7.6055-84.38-3.7028-27.9679,3.9156-51.99,18.6852-77.9688,28.8359-68.3,26.6884-120.2494,85.273-147.9969,152.1466-22.5841,54.429-24.1277,113.5046-19.14,171.4266,5.1577,59.8919,3.899,131.2871,53.7862,173.6628,43.402,36.8672,102.588,51.6125,156.416,65.9918,54.39,14.5291,108.6184,5.503,151.7864-32.3308,47.5537-41.6788,67.6785-107.7338,79.9492-167.6184,13.219-64.5133,22.951-133.0778,18.6712-199.9913C2208.8313,1517.6649,2191.4944,1451.1685,2135.9944,1418.7217Z" transform="translate(23.4415 14.5873)"/><path class="cls-17" d="M2883.386,146.75c-70.8745-32.91-153.2881-16.699-210.9793,35.7392-43.67,39.6956-69.2116,97.6688-88.4492,152.7346-29.4348,84.2545-65.4856,184.94-33.3178,273.0079,35.7793,97.9545,141.2075,160.53,240.9167,122.7951,62.7827-23.76,116.9522-73.824,165.5662-119.51,49.3611-46.3884,100.0945-101.9025,128.9279-164.3793,45.221-97.9845-5.8981-169.655-85.3313-223.6451C2960.0845,195.8728,2923.9424,165.5819,2883.386,146.75Z" transform="translate(23.4415 14.5873)"/><path class="cls-17" d="M645.9635,1606.2871c15.3339,8.0934,33.3335,13.5919,54.4716,15.8995,27.7817,3.0329,56.782,5.1471,84.4615.039,27.7717-5.1253,51.13-20.9229,76.6445-32.1909,67.0781-29.6261,116.4372-90.4091,141.258-158.4234,20.2016-55.3574,19.1813-114.4443,11.6854-172.0954-7.7508-59.612-9.59-130.9943-61.2688-171.1663-44.96-34.95-104.73-47.1138-159.1314-59.1447-54.9686-12.1561-108.7547-.786-150.2411,38.8847-45.7011,43.7023-62.9415,110.5681-72.6028,170.9286-10.4082,65.0261-17.1567,133.9482-9.9784,200.613C568.9033,1510.5967,589.1084,1576.2784,645.9635,1606.2871Z" transform="translate(23.4415 14.5873)"/><path class="cls-17" d="M1949.5794,107.0739c-12.2459-12.8785-27.93-24.109-47.7071-33.2669-25.9925-12.0362-53.4692-23.5791-82.0265-27.6743-28.6522-4.1088-56.51,3.5926-84.98,6.1891-74.8481,6.828-142.68,49.7171-189.044,107.6593-37.7357,47.16-56.0783,104.8859-67.6613,163.3364-11.9769,60.4384-33.5469,130.3756,3.5048,186.3049,32.2353,48.6588,86.3108,80.0311,135.2152,109.5174,49.4145,29.7935,105.3785,36.3488,158.6556,11.39,58.69-27.4951,97.3151-86.8021,126.45-142.27,31.3867-59.7555,60.4934-124.4929,75.3342-191.5946C1993.119,225.2347,1994.9849,154.8254,1949.5794,107.0739Z" transform="translate(23.4415 14.5873)"/><path class="cls-17" d="M1258.5585,548.8717c-78.4374-13.8972-155.4029,23.6212-198.5373,90.3718-32.651,50.53-42.6611,114.3289-47.22,173.6155-6.9754,90.7124-16.174,199.3445,38.5455,277.7089,60.8626,87.162,181.1018,121.2555,269.4817,58.0074,55.649-39.8247,95.9343-103.3154,131.89-161.04,36.5086-58.6118,71.9834-126.5742,84.06-195.6715,18.94-108.368-50.1657-165.6216-142.5471-198.052C1346.9732,577.2216,1303.4429,556.8244,1258.5585,548.8717Z" transform="translate(23.4415 14.5873)"/><g class="cls-3"><text class="cls-18" transform="translate(23.5325 1417.2498) rotate(0.3209)">h</text><text class="cls-19" transform="translate(66.4961 1417.4904) rotate(0.3209)">y</text><text class="cls-20" transform="translate(104.6518 1417.7041) rotate(0.3209)">g</text><text class="cls-21" transform="translate(151.6596 1417.9673) rotate(0.3209)">r</text><text class="cls-22" transform="translate(175.1635 1418.099) rotate(0.3209)">o</text><text class="cls-23" transform="translate(219.5768 1418.3477) rotate(0.3209)">s</text><text class="cls-20" transform="translate(251.8568 1418.5285) rotate(0.3209)">copic </text><text class="cls-24" transform="translate(137.6402 1509.465) rotate(0.3209)">w</text><text class="cls-25" transform="translate(195.7891 1509.7906) rotate(0.3209)">a</text><text class="cls-26" transform="translate(242.8725 1510.0543) rotate(0.3209)">t</text><text class="cls-25" transform="translate(261.1877 1510.1569) rotate(0.3209)">er</text></g></g><g id="Layer_1-2" data-name="Layer 1"><path class="cls-27" d="M1590.5162,1001.0755c-4.6927,128.0146-37.8288,210.18,73.8334,271.4512,83.67,45.91,139.159,90.7807,245.1072,16.2924,87.1982-61.301,149.7478-242.9673,153.8589-342.015,4.1089-98.1081-38.1259-149.3494-122.002-177.3166-99.1362-33.0722-206.2,18.125-275.1677,89.2159-29.42,30.32-80.9913,77.03-75.63,142.3722" transform="translate(23.4415 14.5873)"/><path class="cls-27" d="M1160.8739,590.0127c22.6264-14.5972,52.9037-30.1985,80.4806-25.369,20.5035,3.5907,37.5132,16.96,56.5789,24.4586,22.9993,9.0461,46.2384,17.8131,69.6535,25.77,32.8714,11.17,67.5287,21.4331,92.9539,45.0922,34.2419,31.8636,44.9714,82.6266,40.85,129.2484-4.8677,55.0677-27.5141,107.0076-53.8816,155.5835-31.1054,57.3041-68.3631,112.1623-117.2775,155.239-26.8639,23.6577-58.4276,44.0774-93.9143,48.636-30.1337,3.871-60.8418-4.0984-88.1565-17.41-31.4442-15.3236-59.7708-38.26-77.8824-68.2087-17.9189-29.63-25.1017-64.6567-27.1082-99.2369s.8564-69.2351,1.5081-103.8684c.5394-28.6676.7386-57.3517,3.3629-85.928,1.3-14.1571,4.3331-27.7117,6.34-41.7135,2.0711-14.4494,2.4976-29.219,6.7647-43.275,9.4949-31.2762,35.1777-52.9389,60.2761-71.8788C1134.1652,607.536,1147.4606,598.6693,1160.8739,590.0127Z" transform="translate(23.4415 14.5873)"/><path class="cls-27" d="M1470.816,1313.3785c-51.8688-32.3748-135.1412-38.0307-188.3548-15.6485-35.9544,15.1228-62.8908,39.7983-84.884,66.213-20.6868,24.8454-37.6016,51.5548-54.4732,78.2045l-72.4149,114.3839c-17.3958,27.4776-21.3013,52.9195-29.8541,82.2-16.7813,57.45-3.5174,118.1338,52.3928,166.2321,32.4261,27.8939,84.0013,42.3133,125.7607,43.9216,52.5548,2.0242,117.8366,1.6537,168.3765-13.9351,50.5594-15.5948,87.5789-55.2041,105.04-104.5,14.5623-41.1129,9.4567-84.593,13.0671-127.2077,3.6477-43.0556,14.6717-86.4212,22.1635-129.0018,6.79-38.5911,12.9363-80.1946-11.3447-116.6625A149.6551,149.6551,0,0,0,1470.816,1313.3785Z" transform="translate(23.4415 14.5873)"/><path class="cls-27" d="M2458.2019,782.4391c60.2058-1.6267,130.3582,37.6471,160.3125,86.2519,20.239,32.84,27.7654,69.5119,30.3242,105.1211,2.407,33.4937.7163,66.6624-.9748,99.7541q-3.63,71.0169-7.2588,142.0334c-1.7439,34.12-13.1631,59.2076-23.0444,90.244-19.3882,60.8958-64.7706,108.7-137.219,122.3891-68.9158,13.066-255.971-64.8914-293.1287-136.1788-32.7261-62.8645-5.3113-141.501,35.9685-207.2886,8.69-13.8488,20.5723-24.5037,30.5969-36.9585,10.8147-13.4364,15.7361-32.0815,22.4866-47.72l44.2332-102.4733c16.6254-38.5157,35.4917-79.4124,75.87-99.446A147.7957,147.7957,0,0,1,2458.2019,782.4391Z" transform="translate(23.4415 14.5873)"/><path class="cls-27" d="M1510.4072,283.8956c-17.5551,124.6143-54.7126,191.6191,43.2936,261.2612,73.4376,52.1829,118.4057,111.2105,225.0424,47.7608,87.7643-52.216,164.8871-224.1512,178.9186-320.5259,13.9324-95.4572-20.2492-149.21-95.7255-183.8861-89.2064-41.0021-194.4884-.3976-266.23,62.98-30.602,27.0294-83.5845,68.1229-85.2989,132.41" transform="translate(23.4415 14.5873)"/><path class="cls-27" d="M2219.5479,675.5052c-514.7933,110.9737-33.5354-727.1663,203.5127-481.9026,83.5849,86.4926,21.187,186.156,3.6474,295.8959-12.5473,78.7093-63.5837,188.63-124.5969,189.1511-26.5154,1.0714-51.4419-8.809-82.5632-3.1444" transform="translate(23.4415 14.5873)"/><path class="cls-27" d="M1769.9154,1711.4138c17.3255,121.5524.6627,194.4245,111.3963,233.13,82.9738,29.0015,141.12,72.1353,223.8656-16.2383,68.1023-72.7292,93.779-254.78,80.8059-348.9095-12.8174-93.2433-59.4244-134.3567-139.5638-146.3978-94.7224-14.248-182.3906,52.3469-232.45,131.1938-21.3549,33.6284-59.8731,86.5048-44.0536,147.2223" transform="translate(23.4415 14.5873)"/><path class="cls-27" d="M2767.1372,170.5694c24.3418-9.89,56.0874-19.3778,80.9966-9.8787,18.52,7.0627,31.6985,22.8216,48.0447,33.3525,19.7187,12.7038,39.7214,25.1842,60.06,36.9238,28.5525,16.48,58.9751,32.4145,77.9,59.4724,25.4878,36.441,24.896,86.7139,11.2144,130.4036-16.16,51.6044-48.3765,97.071-83.3833,138.6718-41.2966,49.0754-87.8628,94.7279-142.9094,127.0846-30.2315,17.77-64.2,31.6207-98.52,29.6619-29.143-1.6633-56.3352-14.71-79.2136-32.2443-26.3371-20.1848-48.1421-47.0691-58.8686-78.8213-10.6123-31.4142-9.9966-66.0633-4.6087-99.3679s15.37-65.8155,23.2679-98.6987c6.5376-27.2189,12.759-54.5138,21.2375-81.2755,4.2-13.2581,9.9031-25.6342,14.7351-38.6188,4.9868-13.4,8.4946-27.3965,15.4629-40.0314,15.5056-28.1137,44.2068-44.193,71.7864-57.7817C2738.3416,182.5224,2752.7058,176.4354,2767.1372,170.5694Z" transform="translate(23.4415 14.5873)"/><path class="cls-27" d="M1000.0247,1323.9463c-3.9326-45.5018-11.2337-89.4911-20.383-134.8226-2.9983-14.8551-6.1228-29.9211-13.1168-43.3654-47.5831-91.4679-254.2407-130.128-319.3406-40.7253-46.6669,64.0882-48.3387,153.0591-51.2754,228.8289-2.4811,64.0139-8.9616,131.259,13.9383,191.7423,3.8258,10.1047,8.0936,20.1941,14.65,28.7873,33.5444,43.9621,120.1618,41.9915,168.1416,29.3247,63.4484-16.7506,117.658-62.6681,155.2528-115.2112,23.1831-32.395,64.5684-83.0587,52.1335-144.5587" transform="translate(23.4415 14.5873)"/><g class="cls-3"><text class="cls-28" transform="translate(2289.5111 1146.2556)">ai</text><text class="cls-29" transform="translate(2354.6036 1146.2556)">r</text><text class="cls-30" transform="translate(2374.4442 1146.2556)">-</text><text class="cls-28" transform="translate(2405.1222 1146.2556)">filled</text><text class="cls-28" transform="translate(2216.5579 1237.8298)"><tspan xml:space="preserve"> po</tspan></text><text class="cls-31" transform="translate(2336.5181 1237.8298)">r</text><text class="cls-28" transform="translate(2357.1226 1237.8298)">e space</text></g></g><g id="Layer_2-2" data-name="Layer 2"><g class="cls-3"><text class="cls-32" transform="matrix(1, -0.0085, 0.0085, 1, 1099.6827, 809.2154)">w</text><text class="cls-33" transform="matrix(1, -0.0085, 0.0085, 1, 1157.8294, 808.7188)">a</text><text class="cls-34" transform="matrix(1, -0.0085, 0.0085, 1, 1204.9112, 808.3167)">t</text><text class="cls-33" transform="matrix(1, -0.0085, 0.0085, 1, 1223.2258, 808.1603)">e</text><text class="cls-35" transform="matrix(1, -0.0085, 0.0085, 1, 1266.4918, 807.7908)">r</text><text class="cls-36" transform="matrix(1, -0.0085, 0.0085, 1, 1286.3317, 807.6214)">-</text><text class="cls-33" transform="matrix(1, -0.0085, 0.0085, 1, 1317.0085, 807.3594)">filled </text><text class="cls-33" transform="matrix(1, -0.0085, 0.0085, 1, 1209.4698, 899.8554)">po</text><text class="cls-34" transform="matrix(1, -0.0085, 0.0085, 1, 1302.7181, 899.059)">r</text><text class="cls-33" transform="matrix(1, -0.0085, 0.0085, 1, 1323.3219, 898.883)">e </text><text class="cls-33" transform="matrix(1, -0.0085, 0.0085, 1, 1184.4224, 991.6468)">space</text></g></g><g id="Layer_10" data-name="Layer 10"><path class="cls-37" d="M1260.9573,1006.92c-1.417,32.8485,1.0738,62.9589,19.5185,91.396,30.5787,47.1436,88.1231,65.2661,142.3174,61.0747" transform="translate(23.4415 14.5873)"/><polygon class="cls-38" points="1436.228 1191.096 1440.897 1174.335 1432.075 1159.339 1471.792 1170.296 1436.228 1191.096"/><path class="cls-37" d="M2430.7673,1021.953c2.514-25.7447-4.1086-51.92-16.34-74.7119-16.57-30.8765-42.6209-58.2647-74.3519-73.5289-41.8471-20.13-89.1391-26.5727-135.4514-28.4708" transform="translate(23.4415 14.5873)"/><polygon class="cls-38" points="2240.684 844.322 2233.4 860.122 2239.716 876.334 2202.257 859.181 2240.684 844.322"/><path class="cls-39" d="M2513.9087,1859.3625c2.311-25.7768-5.6567-52.1694-19.8618-75.2793-19.2432-31.3071-49.0747-59.305-85.0484-75.2529-50.1879-22.249-106.9187-29.2529-161.86-31.7187" transform="translate(23.4415 14.5873)"/><polygon class="cls-38" points="2280.45 1679.677 2274.718 1691.882 2279.523 1704.481 2250.588 1690.981 2280.45 1679.677"/><path class="cls-40" d="M164.3687,1296.68c38.644-176.1064,244.271-235.854,406.71-183.7788q15.15,4.8567,30.0855,10.4322" transform="translate(23.4415 14.5873)"/><polygon class="cls-41" points="612.803 1145.37 621.125 1136.685 620.65 1124.665 641.268 1144.319 612.803 1145.37"/><line class="cls-42" x1="801.1715" y1="1909.8199" x2="950.7741" y2="1701.4836"/><polygon class="cls-41" points="955.327 1716.247 948.378 1704.819 935.33 1701.887 962.348 1685.365 955.327 1716.247"/></g><g id="Layer_13" data-name="Layer 13"><g class="cls-3"><text class="cls-28" transform="translate(1684.4132 1015.1306)">solid - soil</text><text class="cls-28" transform="translate(1719.0191 1106.7048)">particles</text></g></g><g id="Layer_5" data-name="Layer 5"><g id="Layer_60" data-name="Layer 60"><g class="cls-43"><rect class="cls-44" x="1411.0161" y="50.4706" width="1029.0863" height="748.9726" transform="translate(19.8827 31.0467) rotate(-0.4893)"/><path class="cls-2" d="M2018.5191,626.9892q7.4076-2.51,14.774-5.1292c54.5948-19.4184,116.5775-37.837,156.8011-77.114,48.4974-47.3562,68.0987-112.9322,68.8685-173.7934.87-68.7746-38.4539-140.8659-72.08-200.0728-20.729-36.4982-60.07-49.6117-106.4429-52.0029-52.3037-2.6969-96.9369-2.477-146.9736-16.9137-54.3825-15.6906-104.7928,1.4932-156.2957,18.9581-59.8187,20.2849-114.9784,37.8117-164.7536,74.8219-101.3022,75.3227-176.0474,202.4516-151.4411,315.0434a215.3171,215.3171,0,0,0,24.8784,62.515c30.9422,52.9218,94.4963,83.7969,159.3892,96.3742,66.5093,12.8907,134.1706,13.7087,200.5764,1.4662C1904.5293,660.3187,1962.4,646.0019,2018.5191,626.9892Z" transform="translate(23.4415 14.5873)"/><path class="cls-11" d="M1499.3534,543.8821c-7.4331-26.9328-8.3715-56.2421-7.3975-82.2654,2.7449-73.3368,43.7552-141.2133,89.7886-202.3718,24.4677-32.5069,58.2531-56.4808,93.03-76.2222,73.5256-41.7375,147.1774-71.0983,233.9063-58.6219,26.9482,3.8766,53.9084,7.6719,80.8142,11.8583,45.9567,7.1506,89.68,17.793,131.9911,38.3436,30.9131,15.0169,48.2,43.229,64.39,72.4951,47.4092,85.7,60.7256,203.9538-13.6858,276.47-59.294,57.7837-145.1559,81.355-222.8534,100.2123q-6.6255,1.6083-13.2626,3.1672C1884,639.2256,1831.5635,646.86,1778.69,654.0247c-56.1465,7.6084-110.4986-1.192-163.727-14.8441C1556.634,624.22,1514.0773,597.2317,1499.3534,543.8821Z" transform="translate(23.4415 14.5873)"/><path class="cls-17" d="M1544.7744,556.2529a138.3645,138.3645,0,0,1-7.7119-12.6386c-26.5528-49.1921-19.9128-109.792,3.7354-162.41q70.6788-157.2639,245.6939-222.5008c19.8393-7.3808,40.3629-13.7807,61.4671-15.68,61.0726-5.4976,127.9444,14.145,186.9958,23.35,49.1371,7.66,100.6894,36.1917,126.27,74.2613,11.9324,17.7574,17.4722,38.4634,22.86,58.8287,17.617,66.5847,30.2041,130.1794-14.62,194.2584-43.72,62.5012-116.3948,83.6687-190.3531,102.5338a978.5178,978.5178,0,0,1-250.7343,30.6116C1658.6535,626.157,1582.6928,611.4464,1544.7744,556.2529Z" transform="translate(23.4415 14.5873)"/><path class="cls-27" d="M1870.6588,175.8219c137.12,13.1561,231.19-6.262,273.9032,105.3915,32.0047,83.6634,68.5723,141.1193-31.98,228.9324-82.7515,72.2733-288.5833,105.2972-394.7729,95.5622-105.1895-9.6089-151.2007-55.6762-164.0765-137.0778-15.2365-96.2138,60.7636-188.2418,150.2618-242.3156,38.1711-23.0668,98.2349-64.3825,166.6641-50.4927" transform="translate(23.4415 14.5873)"/><ellipse class="cls-45" cx="2083.0418" cy="233.2649" rx="9.5466" ry="9.7575" transform="translate(10.4558 235.8412) rotate(-6.0612)"/><rect class="cls-46" x="2077.6543" y="231.9143" width="10.7747" height="2.7012" transform="translate(10.4558 235.8411) rotate(-6.0612)"/><ellipse class="cls-45" cx="2155.768" cy="400.0212" rx="9.5466" ry="9.7575" transform="translate(-6.7456 244.4526) rotate(-6.0612)"/><rect class="cls-46" x="2150.3805" y="398.6706" width="10.7747" height="2.7012" transform="translate(-6.7456 244.4526) rotate(-6.0612)"/><ellipse class="cls-45" cx="2037.3069" cy="536.5059" rx="9.5466" ry="9.7575" transform="translate(-21.8193 232.7072) rotate(-6.0612)"/><rect class="cls-47" x="2031.9049" y="535.1311" width="10.7746" height="2.7011" transform="translate(-21.8201 232.7269) rotate(-6.0618)"/><ellipse class="cls-45" cx="1875.1063" cy="577.7691" rx="9.5466" ry="9.7575" transform="translate(-27.0831 215.811) rotate(-6.0612)"/><rect class="cls-46" x="1869.719" y="576.4186" width="10.7747" height="2.7012" transform="translate(-27.0831 215.811) rotate(-6.0612)"/><ellipse class="cls-45" cx="1879.1685" cy="198.003" rx="9.5466" ry="9.7575" transform="translate(13.0394 214.1169) rotate(-6.0612)"/><rect class="cls-46" x="1873.7812" y="196.6523" width="10.7747" height="2.7012" transform="translate(13.0394 214.1169) rotate(-6.0612)"/><g class="cls-3"><text class="cls-48" transform="translate(1898.3669 374.1737) rotate(-0.4893) scale(0.9784 1)">solid </text><text class="cls-48" transform="translate(1883.3549 430.6916) rotate(-0.4893) scale(0.9784 1)">p</text><text class="cls-49" transform="translate(1911.6742 430.4498) rotate(-0.4893) scale(0.9784 1)">h</text><text class="cls-48" transform="translate(1936.9135 430.2342) rotate(-0.4893) scale(0.9784 1)">ase</text></g></g><path class="cls-50" d="M1673.4833,380.699a311.6,311.6,0,0,0,169.4825,262.518L1897.32,791.4683l106.8028-115.699c166.0517-11.9671,292.7716-155.3925,284.4242-323.9771C2280.07,180.5906,2135.5115,48.276,1965.6663,56.2584S1665.0062,209.4974,1673.4833,380.699Z" transform="translate(23.4415 14.5873)"/></g></g><g id="Layer_6" data-name="Layer 6"><g id="Layer_59" data-name="Layer 59"><path class="cls-51" d="M2919.9988,501.9109c-114.5864-8.94-219.3928,46.0574-279.3875,134.9862l-152.644,35.1942,100.6045,120.5969c-8.835,166.2746,116.5832,310.138,283.5271,323.1631,169.5354,13.2273,317.6931-113.4852,330.92-283.02S3089.5342,515.1382,2919.9988,501.9109Z" transform="translate(23.4415 14.5873)"/><g class="cls-52"><path class="cls-2" d="M3203.7505,620.2448a100.9124,100.9124,0,0,1,7.073,7.94c12.6477,15.8452,26.4668,48.8385,6.2937,59.9352-17.9807,9.8907-80.7493-10.6989-101.3845-14.1372a933.9463,933.9463,0,0,1-274.1853-90.8067c-23.4986-12.1179-141.1031-63.0743-104.0125-104.1348,10.6992-11.8442,28.0044-14.6571,43.93-15.7214,135.0212-9.023,263.35,55.6252,379.19,125.5764C3175.89,598.0969,3191.32,607.6544,3203.7505,620.2448Z" transform="translate(23.4415 14.5873)"/><path class="cls-11" d="M3177.7432,540.7648a188.968,188.968,0,0,1,27.323,40.1662c6.5376,12.9882,11.6108,27.5783,9.0332,41.89-13.9324,77.3434-317.4558-47.3659-363.8963-69.651-35.4133-16.9937-68.9455-34.6927-93.9589-65.0147,7.8833-14.0684,26.0229-17.9041,41.9758-20.2643,74.6692-11.0473,150.9375-21.3689,225.26-8.1922C3081.6462,470.0112,3139.2009,497.14,3177.7432,540.7648Z" transform="translate(23.4415 14.5873)"/><path class="cls-17" d="M3229.7478,617.9127c-37.9707-3.2186-71.2,1.8817-110.5854-9.3532L2964.3357,564.394c-22.1592-6.3211-195.2126-62.8168-167.3645-94.445,6.3994-7.2681,16.9941-8.7568,26.646-9.5444a451.0965,451.0965,0,0,1,64.62-1.031c106.6607,6.6254,203.9863,60.1066,297.22,112.3353C3204.7473,582.5147,3226.0886,596.108,3229.7478,617.9127Z" transform="translate(23.4415 14.5873)"/><path class="cls-2" d="M3262.59,786.4673q-1.0213-7.7286-2.4158-15.4086c-8.01-44.083-39.2207-31.4294-74.18-23.95-37.6565,8.0562-74.3052,21.81-106.9351,42.4169C3024.1336,824.2129,2941.81,945.798,2893.2017,988.485c-31.8833,27.9994-61.7068,58.2657-93.7171,86.1119-25.426,22.1183-81.3723,46.7763-29.4065,75.2622,14.36,7.872,30.9859,10.3426,47.2532,12.2289,82.7583,9.5969,169.114,6.9421,245.7883-25.6466a332.4194,332.4194,0,0,0,199.47-349.9739Z" transform="translate(23.4415 14.5873)"/><path class="cls-11" d="M3241.0674,784.3082q.0854-2.3693.19-4.7265c-16.4743-7.0269-43.9292,3.3406-60.7512,7.4266-140.7126,34.1792-188.2363,153.784-281.6345,247.3135-21.9732,22.004-47.1692,44.3786-73.7608,60.69-23.5139,14.4234-49.7133,19.6152-58.7094,49.93,62.3974,19.5484,129.0727,20.7435,194.3335,16.6688,28.6924-1.7916,57.9485-4.7275,84.125-16.6126,21.7263-9.8645,40.281-25.4229,58.5351-40.7894,51.3831-43.2541,105.2224-90.1077,125.0161-154.29C3244.5283,897.6558,3239.115,838.58,3241.0674,784.3082Z" transform="translate(23.4415 14.5873)"/><path class="cls-17" d="M3235.4219,803.1317C3189.9724,784.58,3034.9641,937.6678,3016.1306,960.58c-32.5859,39.6421-64.3794,80.405-102.0022,115.4971-19.2539,17.9587-102.3947,52.8371-71.2861,84.325,10.82,10.9515,27.3281,13.5081,42.6489,15.0166,40.0911,3.9477,81.46,4.5555,119.6538-8.2554,51.5769-17.3,92.0574-57.0731,129.2412-96.7824,32.5572-34.7686,64.4339-70.9147,86.8067-112.9656s34.7182-90.9707,25.8435-137.7688l-.0066-.035C3245.35,810.8075,3241.3032,805.5325,3235.4219,803.1317Z" transform="translate(23.4415 14.5873)"/><path class="cls-2" d="M2418.03,1332.3553q-9.3777,8.1267-18.9,16.096c-70.58,59.0589-144.94,129.3976-236.6616,150.2759-110.5891,25.1726-229.1545-6.7458-326.53-60.8327-110.0363-61.12-196.1284-181.6843-265.8665-282.57-42.99-62.1912-35.25-129.32-5.3419-196.6025,33.7337-75.8881,66.5313-138.3615,79.9417-221.7082,14.5752-90.5852,78.558-145.7935,143.7822-202.2814,75.7555-65.6085,143.7366-127.1751,238.7968-163.52,193.465-73.9692,450.0351-63.6878,611.2531,72.923,31.3655,26.5781,58.51,57.7417,81.36,91.6007,61.6914,91.4194,64.6036,208.6472,37.4348,311.169-27.8454,105.0754-75.7329,200.8251-143.4833,282.9732C2553.9172,1202.5055,2489.0718,1270.7883,2418.03,1332.3553Z" transform="translate(23.4415 14.5873)"/><path class="cls-11" d="M2667.2244,528.5c-37.44-34.8507-83.3819-62.736-125.4868-84.9572-118.6563-62.622-256.4451-66.5636-387.2085-57.3615-92.699,6.5241-180.15,46.7095-255.55,99.3007-58.46,40.7756-113.6153,87.8776-155.9725,145.6244-48.2315,65.7553-57.3181,133.8205-84.8692,207.2956-23.5127,62.7055-63.8027,139.5438-70.2782,206.4394a143.1689,143.1689,0,0,0-.6745,14.4413c.3359,74.1238,70.5574,130.1362,110.5865,186.6555,41.1817,58.1468,87.9481,114.3368,152.0865,148.7323,110.6831,59.3562,274.8509,100.26,389.9637,38.7711,50.0371-26.7276,81.5571-73.9708,123.0083-110.8837,102.17-90.9843,195.3518-191.6235,276.531-301.982,52.9209-71.9428,78.4346-156.24,95.4136-243.3567C2753.38,681.7548,2741.3865,597.5337,2667.2244,528.5Z" transform="translate(23.4415 14.5873)"/><path class="cls-17" d="M2661.8291,604.4455q-6.5292-11.1951-14.4985-22.285c-58.9495-81.8753-160.1763-127.4825-261.0711-141.9726q-301.5516-43.307-532.5608,143.31c-26.1638,21.1673-51.2649,44.1849-69.6292,72.0969-53.1441,80.7732-70.5124,192.4781-98.798,283.7409-23.5363,75.941-15.6272,174.1915,26.3351,244.62,19.5732,32.8514,48.4841,59.3993,76.9632,85.4256,93.1131,85.0934,185.1263,160.4135,319.647,155.5574,131.2083-4.7364,217.7139-87.5968,301.49-174.3468,92.7129-96.004,171.3074-205.6756,230.9756-324.3264C2690.2415,827.7164,2722.0625,707.72,2661.8291,604.4455Z" transform="translate(23.4415 14.5873)"/><path class="cls-27" d="M1829.6753,718.3917c-78.7557,204.4658-178.0328,318.955-31.4706,480.14,109.8216,120.777,174.6359,224.2056,387.4249,162.612,175.1285-50.6853,377.2977-309.7743,439.01-467.7071,61.1855-156.4142,21.353-262.78-98.7769-354.6468-141.9761-108.6081-343.6216-85.31-494.7035-8.6544-64.4435,32.69-173.8321,79.5792-201.4838,188.2561" transform="translate(23.4415 14.5873)"/><path class="cls-27" d="M3229.8552,867.4128a81.1777,81.1777,0,0,1,1.0391,13.4434,320.986,320.986,0,0,1-54.8008,179.7627c-9.39,13.8678-20.1245,27.2259-34.112,36.4366-12.12,7.9812-26.136,12.4977-39.9568,16.9226-60.4663,19.4158-136.7964,47.2519-200.5476,29.0358,8.4028-15.8149,25.4245-31.1879,38.0056-45.0074q64.2576-70.5844,128.5158-141.1687c25.8709-28.418,52.3912-57.1092,83.8511-79.4872C3181.2192,856.46,3222.7888,826.4939,3229.8552,867.4128Z" transform="translate(23.4415 14.5873)"/><path class="cls-27" d="M3204.1448,562.98c4.5786,6.0012,8.24,12.6236,8.8469,20.0384,2.0542,25.0833-28.3257,20.901-44.6921,20.9666a124.5942,124.5942,0,0,1-30.6565-3.6925c-28.968-7.2352-54.3955-24.61-82.75-33.9651-17.855-5.8906-36.53-8.4835-55.032-11.4337a315.9046,315.9046,0,0,1-52.0073-13.1063c-23.0852-7.7549-140.9585-38.7548-136.0117-73.19,1.7543-12.212,16.8281-16.6885,29.0759-18.1716,64.1428-7.767,129.9233-6.8161,192.4739,9.3723s121.84,48.2537,165.0087,96.3279C3200.3706,558.32,3202.33,560.6015,3204.1448,562.98Z" transform="translate(23.4415 14.5873)"/></g><line class="cls-53" x1="2857.5535" y1="664.0797" x2="2875.2696" y2="663.7028"/><line class="cls-53" x1="2856.763" y1="656.6779" x2="2875.7447" y2="656.2741"/><line class="cls-53" x1="2858.6539" y1="660.2583" x2="2873.5548" y2="659.9413"/><circle class="cls-54" cx="2841.1871" cy="661.2038" r="17.4827"/><circle class="cls-54" cx="2891.0455" cy="660.143" r="17.4827"/><path class="cls-55" d="M2823.1506,640.0837l.3262,15.322-1.685.036-8.1683-8.9284.19,8.9035-3.1773.068-.3252-15.2793,1.6851-.0356,8.196,9.1658-.1962-9.1848Z" transform="translate(23.4415 14.5873)"/><path class="cls-55" d="M2873.7412,637.7413l.3262,15.322-1.6851.036-8.1682-8.9284.19,8.9036-3.1773.068-.3252-15.2794,1.6851-.0356,8.196,9.1659-.1965-9.1849Z" transform="translate(23.4415 14.5873)"/><circle class="cls-56" cx="3068.6688" cy="733.5216" r="17.4827"/><text class="cls-57" transform="translate(3060.9604 739.9587) rotate(-1.7994)">O</text><text class="cls-58" transform="translate(3075.687 733.4403) rotate(-1.7994)">-</text><circle class="cls-59" cx="3118.5138" cy="731.9557" r="17.4827"/><text class="cls-57" transform="translate(3110.8056 738.3928) rotate(-1.7994)">O</text><text class="cls-58" transform="translate(3125.5316 731.8744) rotate(-1.7994)">-</text><line class="cls-60" x1="3086.1019" y1="731.6751" x2="3100.9989" y2="731.2071"/><line class="cls-60" x1="3086.2042" y1="734.9294" x2="3101.1012" y2="734.4614"/><circle class="cls-56" cx="2843.9505" cy="758.5626" r="16.0913"/><circle class="cls-61" cx="2888.377" cy="747.0235" r="16.0913"/><text class="cls-62" transform="matrix(0.9679, -0.2514, 0.2514, 0.9679, 2882.6246, 754.4055)">C</text><text class="cls-63" transform="matrix(0.9679, -0.2514, 0.2514, 0.9679, 2891.0208, 746.4681)">+</text><text class="cls-62" transform="matrix(0.9679, -0.2514, 0.2514, 0.9679, 2838.4371, 765.8828)">O</text><text class="cls-63" transform="matrix(0.9679, -0.2514, 0.2514, 0.9679, 2850.3314, 757.0368)">-</text><circle class="cls-56" cx="2932.8035" cy="735.4844" r="16.0913"/><text class="cls-62" transform="matrix(0.9679, -0.2514, 0.2514, 0.9679, 2927.2901, 742.804)">O</text><text class="cls-63" transform="matrix(0.9679, -0.2514, 0.2514, 0.9679, 2939.1842, 733.9577)">-</text><line class="cls-64" x1="2859.2225" y1="753.3614" x2="2872.5023" y2="749.9123"/><line class="cls-60" x1="2903.6512" y1="741.8218" x2="2916.9288" y2="738.3732"/><line class="cls-64" x1="2859.9759" y1="756.2619" x2="2873.2555" y2="752.8128"/><line class="cls-60" x1="2904.4046" y1="744.7223" x2="2917.682" y2="741.2737"/><line class="cls-53" x1="2874.5579" y1="939.5177" x2="2891.6903" y2="944.0433"/><line class="cls-53" x1="2875.8402" y1="932.1851" x2="2894.1964" y2="937.0339"/><line class="cls-53" x1="2876.6698" y1="936.1481" x2="2891.0797" y2="939.9546"/><circle class="cls-54" cx="2859.6202" cy="932.2379" r="17.4827"/><circle class="cls-54" cx="2907.836" cy="944.9742" r="17.4827"/><path class="cls-55" d="M2843.1763,912.8626l-3.9138,14.8173-1.63-.43-5.3877-10.8354-2.2737,8.61-3.0728-.8112,3.9029-14.7761,1.6294.4307,5.3491,11.0714,2.3452-8.8827Z" transform="translate(23.4415 14.5873)"/><path class="cls-55" d="M2892.45,924.5691l-3.9138,14.8173-1.63-.43-5.3879-10.8354-2.2737,8.61-3.0728-.8113,3.9029-14.776,1.6294.4308,5.3491,11.0712,2.3452-8.8825Z" transform="translate(23.4415 14.5873)"/><circle class="cls-56" cx="2789.9268" cy="1016.7477" r="17.4827"/><text class="cls-65" transform="matrix(0.9448, -0.3276, 0.3276, 0.9448, 2784.4852, 1025.1886)">O</text><text class="cls-66" transform="translate(2796.6022 1014.5804) rotate(-19.1256)">-</text><circle class="cls-56" cx="2837.0438" cy="1000.4086" r="17.4827"/><text class="cls-65" transform="matrix(0.9448, -0.3276, 0.3276, 0.9448, 2831.6026, 1008.8502)">O</text><text class="cls-66" transform="translate(2843.7195 998.2421) rotate(-19.1256)">-</text><line class="cls-60" x1="2806.0191" y1="1009.7932" x2="2820.1007" y2="1004.91"/><line class="cls-60" x1="2807.0858" y1="1012.8694" x2="2821.1676" y2="1007.9862"/><path class="cls-67" d="M2890.065,794.7025c.0649,7.5859-5.5713,11.0928-11.1417,11.14a15.9181,15.9181,0,0,1-8.955-2.708l.0293-2.209a14.3579,14.3579,0,0,0,8.67,3.0948c5.3779-.0469,9.623-3.4434,9.522-9.6368l-.0371-4.37a10.7414,10.7414,0,0,1-9.6954,6.23c-6.6743.0567-11.38-5.5214-11.437-12.1963-.0576-6.7225,4.5523-12.38,11.2266-12.4365a10.7732,10.7732,0,0,1,9.7515,5.9668l-.0972-5.7617,1.92-.0156Zm-2.0132-10.836c-.0484-5.666-4.1714-10.4316-9.7412-10.3847s-9.4185,4.8818-9.37,10.5478,3.9781,10.3867,9.5479,10.3389S2888.1,789.5326,2888.0518,783.8665Z" transform="translate(23.4415 14.5873)"/><path class="cls-67" d="M2919.4956,771.5453l.2051,24.0087-1.9209.0166-.0493-5.7626a10.7082,10.7082,0,0,1-9.647,6.1816c-6.6748.0566-11.3809-5.5215-11.4375-12.1963-.0576-6.7227,4.5527-12.38,11.2266-12.4365a10.7079,10.7079,0,0,1,9.7519,6.0146l-.05-5.8095Zm-1.8179,12.0683c-.0483-5.666-4.1709-10.4316-9.7407-10.3848s-9.4189,4.8819-9.37,10.5479,3.978,10.3867,9.5483,10.3389,9.6109-4.8356,9.5621-10.502Z" transform="translate(23.4415 14.5873)"/><path class="cls-67" d="M2926.1528,792.0413l1.4288-1.3564a7.5478,7.5478,0,0,0,5.934,3.214c2.8814-.0245,5.2676-1.7256,5.2437-4.51-.0581-6.8192-12.2842-4.6016-12.2554-12.43.02-3.36,2.8316-5.7861,6.5288-5.8652a9.4814,9.4814,0,0,1,7.04,3.3486l-1.2373,1.3067a7.68,7.68,0,0,0-5.7383-2.7832c-2.6895.0233-4.6914,1.72-4.7207,3.9287-.0908,6.244,12.2324,4.0731,12.208,12.4785-.0176,3.6006-2.8272,6.3623-7.1485,6.3994A9.32,9.32,0,0,1,2926.1528,792.0413Z" transform="translate(23.4415 14.5873)"/><path class="cls-67" d="M2865.4233,841.6371c.0577,6.7226-4.5522,12.3808-11.2265,12.4375a10.6893,10.6893,0,0,1-9.7031-5.919l.13,15.2686-1.9209.0156-.2866-33.6123,1.9209-.0156.0489,5.7148a10.6874,10.6874,0,0,1,9.6-6.0859C2860.6607,829.3841,2865.3662,834.9622,2865.4233,841.6371Zm-1.9208.0166c-.0484-5.6661-3.9786-10.3868-9.5479-10.3389-5.2344.0438-9.0879,4.2548-9.5239,9.4453l.018,2.1132c.5245,5.1806,4.45,9.373,9.6841,9.3291C2859.7026,852.1546,2863.5513,847.32,2863.5025,841.6537Z" transform="translate(23.4415 14.5873)"/><path class="cls-67" d="M2891.3882,839.9749l.1147,13.4454-1.9209.0166-.1108-12.9649c-.0537-6.3389-3.1064-9.5791-7.7163-9.539-4.3218.036-7.7993,3.3319-7.7446,9.6708l.11,12.9649-1.9209.0166-.3282-38.415,1.9209-.0166.1612,18.8232a9.1037,9.1037,0,0,1,7.9775-4.87C2887.021,829.0628,2891.3247,832.5316,2891.3882,839.9749Z" transform="translate(23.4415 14.5873)"/><path class="cls-67" d="M2919.5322,829.1693l.2051,24.01-1.9209.0166-.0493-5.7626a10.7081,10.7081,0,0,1-9.6475,6.1816c-6.6743.0566-11.38-5.5215-11.4375-12.1963-.0571-6.7227,4.5528-12.3809,11.2276-12.4375a10.7065,10.7065,0,0,1,9.751,6.0157l-.0494-5.8105Zm-1.8178,12.0693c-.0489-5.666-4.1709-10.4326-9.7412-10.3857s-9.418,4.8828-9.37,10.5488,3.9786,10.3867,9.5489,10.339S2917.7622,846.9046,2917.7144,841.2386Z" transform="translate(23.4415 14.5873)"/><path class="cls-67" d="M2926.189,849.6663l1.4292-1.3564a7.5479,7.5479,0,0,0,5.9341,3.214c2.8808-.0245,5.2675-1.7256,5.2436-4.51-.0581-6.8192-12.2847-4.6016-12.2554-12.43.02-3.3614,2.8316-5.7872,6.5284-5.8663a9.48,9.48,0,0,1,7.04,3.3486l-1.2373,1.3077a7.6777,7.6777,0,0,0-5.7383-2.7842c-2.6894.0234-4.6914,1.7207-4.7207,3.93-.0908,6.2441,12.2324,4.0732,12.208,12.4785-.0171,3.6006-2.8271,6.3623-7.1484,6.3994A9.32,9.32,0,0,1,2926.189,849.6663Z" transform="translate(23.4415 14.5873)"/><path class="cls-67" d="M2947.2,841.4671c.2866,5.4727,4.1182,9.9053,10.0723,9.8545a11.0246,11.0246,0,0,0,8.3232-3.7685l.0215,2.497a12.4629,12.4629,0,0,1-8.3291,3.1446c-7.4424.0634-11.9565-5.5645-12.0137-12.2393s4.6006-12.333,11.3711-12.3916c6.9629-.0586,11.1441,5.9561,11.2022,12.7266Zm18.5664-2.0312c-.666-4.94-3.9189-9.043-9.105-8.999-5.2817.0459-8.8969,4.0625-9.3813,9.1562Z" transform="translate(23.4415 14.5873)"/></g></g><g id="Layer_7" data-name="Layer 7"><g id="Layer_61" data-name="Layer 61"><path class="cls-68" d="M763.2312,293.6917c94.1,65.41,140.302,174.0062,130.4969,280.5178l95.6286,123.4973L835.5879,727.3176C737.4786,861.2538,549.8711,893.1668,412.7741,797.87c-139.2252-96.7763-173.6365-288.0927-76.86-427.3176S624.006,196.9155,763.2312,293.6917Z" transform="translate(23.4415 14.5873)"/><g class="cls-69"><path class="cls-2" d="M811.3557,1077.0135c5.9261-18.2866,18.1117-34.31,30.495-48.7219,6.5062-7.5724,13.2893-14.9008,19.9745-22.3139,8.0927-8.9738,15.8358-18.248,23.8671-27.2756,13.3088-14.96,27.092-29.4986,40.8311-44.07a15.1769,15.1769,0,0,1-4.33-13.1562c.708-4.1364,2.6234-7.4439,5.029-10.8356,3.4219-4.8246,7.7748-9.069,11.9845-13.1954,5.5915-5.4809,11.3116-10.8631,17.3321-15.8741,13.7521-11.4463,28.5479-21.5172,42.667-32.48,2.7373-5.6764,5.2525-11.4588,7.979-17.1406,12.9058-26.895,34.7725-48.37,55.1383-69.7391,20.6044-21.62,41.6344-42.8912,60.3664-66.1943a14.3743,14.3743,0,0,1,11.73-5.3884l4.2136-5.26q10.3263-14.9338,20.8517-29.7224L322.8685-14.5873l-346.31,432.28,832.67,667.0722C809.8173,1082.1768,810.52,1079.5919,811.3557,1077.0135Z" transform="translate(23.4415 14.5873)"/><path class="cls-2" d="M748.6157,1136.7234c.6707.6628,1.3451,1.3222,2.0117,1.99a10.133,10.133,0,0,1,1.2807-.4157c.6984-.1761,1.3985-.3349,2.0975-.5042Q751.3044,1137.2814,748.6157,1136.7234Z" transform="translate(23.4415 14.5873)"/><path class="cls-2" d="M811.2408,1080.6132c3.4437-10.6266,9.0078-20.4843,15.49-29.71-51.9818-194.159-174.23-362.1144-392.8842-450.4023-115.413-46.601-227.1219-61.8611-325.224-38.429q.736.4066,1.4713.8146c13.6028,7.5044,27.3506,14.9715,39.9094,24.1645,12.8187,9.3831,24.9952,19.8,37.2962,29.8477,11.9482,9.76,23.792,19.65,35.4007,29.8125,11.8424,10.3668,23.4413,21.0151,34.6565,32.0591,10.0329,9.88,19.6773,19.7113,30.81,28.385,21.0889,16.43,45.57,31.6811,59.4242,55.2982,2.6933,4.5912,3.3415,9.57,1.6767,13.9723l24.7,19.7881Q474.1352,876.46,574.1131,956.9373c16.3,13.1407,32.6652,26.2022,49.2193,39.022,16.4332,12.7261,33.4884,24.69,49.7041,37.685,8.068,6.4654,15.9525,13.1561,24.0178,19.625,4.2852,3.437,8.6176,6.8172,13.0478,10.066q2.9772,2.1834,6.0159,4.281c1.1223.773,2.259,1.5237,3.3868,2.2885.15.1015,1.5916.9977,1.3518.8668,14.1088,8.3636,29.4674,14.2213,43.4264,22.7147,7.86,1.8452,15.379,4.7268,22.0388,9.7907a12.5836,12.5836,0,0,1,1.58,1.4356,96.0874,96.0874,0,0,1,13.2123,7.0883,12.4575,12.4575,0,0,1,5.26,9.1871c.504-.0038,1.007.0055,1.5106.0064A88.3718,88.3718,0,0,1,811.2408,1080.6132Z" transform="translate(23.4415 14.5873)"/><path class="cls-2" d="M666.2685,278.9244c8.192-15.7148,15.515-32.4838,22.7017-49.5335-12.2542-11.6086-24.33-23.4248-36.4481-35.245q-6.99-6.8181-14.0563-13.5627c-114.11-64.2635-273.92-14.9655-364.169,71.0589-50.155,47.8079-85.6239,109.7985-104.6295,176.2266a425.7956,425.7956,0,0,0-16.1622,102.5991c-1.488,44.0221.0124,58.8359,33.7947,86.4309q12.92,10.5534,25.6245,21.368c78.1891-8.9749,152.688-39.234,215.2726-82.8734C530.9073,483.7741,614.0907,379.0185,666.2685,278.9244Z" transform="translate(23.4415 14.5873)"/><path class="cls-2" d="M1208.9313,610.8648c2.5235-3.3584,5.2071-6.641,7.9536-9.9023-2.54-2.53-3.8018-6.738-6.7207-9.9271a62.0114,62.0114,0,0,0-6.0678-5.0764,14.7653,14.7653,0,0,1-2.9342,11.1613c-4.7122,6.4539-14.72,7.1107-20.7557,2.2918-33.218-26.523-69.1638-49.2966-103.3846-74.4562a923.1937,923.1937,0,0,1-84.6039-70.9567c-13.4163-12.5807-26.7949-25.2108-40.7023-37.2522q-2.2564-1.9538-4.5375-3.8787c-32.8559-16.603-65.24-33.3574-94.898-55.397C816.9008,331.18,780.313,306.5155,745.7124,279.18c-22.2522-17.58-43.043-36.6344-63.443-56.17.6158.59-1.0881,7.1832-1.2454,8.23-.3641,2.4205-.3148,4.5555-1.5915,6.5828-3.1474,4.9972-7.4588,8.9341-10.12,14.35-2.9,5.9025-4.272,12.8292-2.351,19.1187,1.7117,5.6043,5.74,10.3967,5.7759,16.4607.031,5.2658-1.3651,10.7346-2.0844,15.94q-1.8092,13.0931-3.59,26.19c-1.5507,11.3894-3.07,22.7832-4.6516,34.1683-6.3756,45.8958-12.0288,77.7005-8.8936,124.6683,5.62,84.1839,27.4937,165.6948,24.6945,249.5641-2.6063,78.0862-24.7937,156.2926,14.81,232.6013,24.8943,47.9662,67.1535,87.3868,115.2467,121.6441a89.0631,89.0631,0,0,1,2.9716-11.9153c5.9261-18.2865,18.1117-34.3094,30.4949-48.7219,6.5063-7.5724,13.2893-14.9007,19.9746-22.3138,8.0927-8.9739,15.8358-18.2481,23.867-27.2756,13.3088-14.96,27.092-29.4987,40.8312-44.07a15.1773,15.1773,0,0,1-4.33-13.1562c.708-4.1364,2.6235-7.4439,5.0291-10.8356,3.4219-4.8248,7.7748-9.069,11.9844-13.1954,5.5916-5.481,11.3117-10.8632,17.3321-15.8742,13.7521-11.4463,28.5479-21.5172,42.6671-32.48,2.7373-5.6764,5.2525-11.4588,7.9789-17.1406,12.9059-26.8951,34.7725-48.37,55.1382-69.7392,20.6045-21.62,41.6344-42.8912,60.3666-66.1942a14.404,14.404,0,0,1,12.2942-5.3641c18.4812-26.7984,37.16-53.4523,57.5053-78.8946A14.6657,14.6657,0,0,1,1208.9313,610.8648Z" transform="translate(23.4415 14.5873)"/><path class="cls-11" d="M1208.9313,610.8648c2.5235-3.3584,5.2071-6.641,7.9536-9.9023-2.54-2.53-3.8018-6.738-6.7207-9.9271a62.0114,62.0114,0,0,0-6.0678-5.0764,14.7653,14.7653,0,0,1-2.9342,11.1613c-4.7122,6.4539-14.72,7.1107-20.7557,2.2918-33.218-26.523-69.1638-49.2966-103.3846-74.4562a923.1937,923.1937,0,0,1-84.6039-70.9567c-13.4163-12.5807-26.7949-25.2108-40.7023-37.2522q-2.2564-1.9538-4.5375-3.8787c-32.8559-16.603-65.24-33.3574-94.898-55.397C816.9008,331.18,780.313,306.5155,745.7124,279.18c-10.3922-8.21-20.4655-16.7417-30.33-25.4933-25.199,188.7393-19.0151,399.43,19.8474,586.4674,16.6075,79.9307,54.5889,139.813,106.5424,191.6954,6.4953-7.5575,13.2652-14.8728,19.9381-22.2721,8.0927-8.9739,15.8359-18.2481,23.867-27.2756,13.3088-14.96,27.092-29.4987,40.8312-44.07a15.1774,15.1774,0,0,1-4.33-13.1562c.708-4.1365,2.6235-7.444,5.0292-10.8357,3.4218-4.8247,7.7747-9.069,11.9843-13.1954,5.5916-5.481,11.3117-10.8632,17.3321-15.8742,13.7521-11.4462,28.5479-21.5172,42.6671-32.48,2.7373-5.6764,5.2525-11.4588,7.9789-17.1407,12.9059-26.895,34.7725-48.37,55.1383-69.7392,20.6045-21.62,41.6344-42.8911,60.3665-66.1942a14.4041,14.4041,0,0,1,12.2942-5.364c18.4812-26.7984,37.16-53.4523,57.5054-78.8946A14.6657,14.6657,0,0,1,1208.9313,610.8648Z" transform="translate(23.4415 14.5873)"/><path class="cls-17" d="M1208.9313,610.8648c2.5235-3.3584,5.2071-6.641,7.9536-9.9023-2.54-2.53-3.8018-6.738-6.7207-9.9271a62.0114,62.0114,0,0,0-6.0678-5.0764,14.7653,14.7653,0,0,1-2.9342,11.1613c-4.7122,6.4539-14.72,7.1107-20.7557,2.2918-33.218-26.523-69.1638-49.2966-103.3846-74.4562a923.1937,923.1937,0,0,1-84.6039-70.9567c-13.4163-12.5807-26.7949-25.2108-40.7023-37.2522q-2.2564-1.9538-4.5375-3.8787c-32.8559-16.603-65.24-33.3574-94.898-55.397-31.394-23.33-63.7362-45.3824-94.8-69.1529-11.1784,72.6716-14.7229,147.3543-14.9929,218.2069-.4965,130.3.1758,274.4478,50.7735,399.1959A361.86,361.86,0,0,0,859.61,1011.8956l2.1-2.3182c8.0927-8.9739,15.8358-18.2481,23.867-27.2756,13.3088-14.96,27.0919-29.4987,40.8311-44.07a15.1771,15.1771,0,0,1-4.33-13.1562c.708-4.1365,2.6234-7.444,5.0291-10.8357,3.4218-4.8247,7.7748-9.069,11.9844-13.1954,5.5916-5.481,11.3117-10.8632,17.3321-15.8742,13.752-11.4462,28.5479-21.5172,42.6671-32.48,2.7373-5.6764,5.2525-11.4588,7.9789-17.1407,12.9058-26.895,34.7725-48.37,55.1382-69.7392,20.6045-21.62,41.6344-42.8911,60.3666-66.1942a14.4039,14.4039,0,0,1,12.2942-5.364c18.4812-26.7984,37.16-53.4523,57.5053-78.8946A14.6657,14.6657,0,0,1,1208.9313,610.8648Z" transform="translate(23.4415 14.5873)"/><path class="cls-27" d="M1208.9313,610.8648c2.5235-3.3584,5.2071-6.641,7.9536-9.9023-2.54-2.53-3.8018-6.738-6.7207-9.9271a62.0114,62.0114,0,0,0-6.0678-5.0764,14.7653,14.7653,0,0,1-2.9342,11.1613c-4.7122,6.4539-14.72,7.1107-20.7557,2.2918-33.218-26.523-69.1638-49.2966-103.3846-74.4562a923.1937,923.1937,0,0,1-84.6039-70.9567c-13.4163-12.5807-26.7949-25.2108-40.7023-37.2522q-2.2564-1.9538-4.5375-3.8787c-32.8559-16.603-65.24-33.3574-94.898-55.397C836.5409,345.775,820.5629,334.4,804.6266,322.97c-7.8983,37.3113-13.4637,75.3659-17.7419,113.3473-13.925,123.6232-15.2372,250.9725,15.3185,374.63,15.2288,61.63,39.6588,123.9,82.86,171.9367.1718-.1936.3419-.3886.514-.5819,13.3087-14.96,27.0919-29.4987,40.8311-44.07a15.1771,15.1771,0,0,1-4.33-13.1562c.708-4.1365,2.6234-7.4439,5.0291-10.8357,3.4218-4.8247,7.7748-9.0689,11.9843-13.1953,5.5917-5.4811,11.3118-10.8633,17.3321-15.8743,13.7521-11.4462,28.548-21.5172,42.6672-32.48,2.7373-5.6764,5.2525-11.4588,7.9788-17.1407,12.9059-26.895,34.7725-48.37,55.1382-69.7392,20.6045-21.62,41.6344-42.8911,60.3666-66.1942a14.404,14.404,0,0,1,12.2942-5.364c18.4812-26.7984,37.16-53.4523,57.5054-78.8946A14.6655,14.6655,0,0,1,1208.9313,610.8648Z" transform="translate(23.4415 14.5873)"/><path class="cls-11" d="M678.9886,219.8612c-21.0928-20.2888-42.1843-52.8712-73.6445-51.3112-33.7748,1.6746-77.4742,27.81-108.574,40.6677A1979.2129,1979.2129,0,0,0,283.7958,312.582c-28.18,15.8271-56.46,32.74-77.94,56.8893-24.2254,27.2351-38.203,61.8313-51.727,95.68-10.21,25.5541-23.3258,52.8948-27.778,80.2345-4.6888,28.7928.9661,25.0587,23.6531,41.6655,8.1166,5.9413,15.9754,12.2971,23.7718,18.7112,66.5989-.172,131.68-20.1461,184.1477-57.6173A1304.4243,1304.4243,0,0,0,678.9886,219.8612Z" transform="translate(23.4415 14.5873)"/><path class="cls-17" d="M656.54,198.0657q-2.0085-1.96-4.0175-3.92-6.99-6.8181-14.0564-13.5627c-19.1015-10.7574-38.1665-26.3215-59.6283-26.9165-22.8908-.6346-51.6275,14.2073-71.5228,24.1876-44.6159,22.3813-83.4564,54.7976-121.3734,86.8227q-116.0178,97.99-232.0356,195.9792c-28.4,23.9831-59.27,50.0182-23.412,85.8119,19.8808,19.8449,52.84,17.1394,78.2442,13.5185,124.958-17.81,225.5635-106.0614,306.2341-192.5615C564.3367,314.4932,613,258.1557,656.54,198.0657Z" transform="translate(23.4415 14.5873)"/><path class="cls-27" d="M615.9116,167.969l.2006-.3106c-32.8534-27.1253-110.0656-12.7306-148.8252-6.0055-51.7588,8.9806-102.0267,27.3405-146.3047,55.79C237.4763,271.098,176.7829,362.504,169.54,461.4971c-1.0022,13.6991-.8985,28.0353,5.0679,40.4076,90.3272,5.2275,171.0746-52.1567,238.0877-108.08C489.6333,329.6187,561.4911,252.1872,615.9116,167.969Z" transform="translate(23.4415 14.5873)"/><path class="cls-11" d="M748.6157,1136.7234c.6707.6628,1.3451,1.3222,2.0117,1.99a10.133,10.133,0,0,1,1.2807-.4157c.6984-.1761,1.3985-.3349,2.0975-.5042Q751.3044,1137.2814,748.6157,1136.7234Z" transform="translate(23.4415 14.5873)"/><path class="cls-11" d="M646.5648,790.264C524.578,644.7622,328.2664,571.5006,164.5542,598.26c7.6533,6.1351,15.1763,12.4559,22.7453,18.6386,11.9482,9.76,23.792,19.65,35.4007,29.8125,11.8424,10.3668,23.4413,21.0151,34.6565,32.0591,10.0329,9.88,19.6773,19.7113,30.81,28.385,21.0889,16.43,45.57,31.6811,59.4242,55.2983,2.6933,4.5912,3.3415,9.57,1.6767,13.9723l24.7,19.788Q474.1352,876.46,574.1131,956.9373c16.3,13.1407,32.6652,26.2022,49.2193,39.022,16.4332,12.7261,33.4884,24.69,49.7041,37.685,8.068,6.4654,15.9525,13.1561,24.0178,19.625,4.2852,3.437,8.6176,6.8172,13.0478,10.066q2.9772,2.1834,6.0159,4.281c1.1223.773,2.259,1.5237,3.3868,2.2885.15.1015,1.5916.9977,1.3518.8668,14.1088,8.3636,29.4674,14.2213,43.4264,22.7147a67.9076,67.9076,0,0,1,12.3177,4.0656C761.6439,989.9041,724.6364,883.3851,646.5648,790.264Z" transform="translate(23.4415 14.5873)"/><path class="cls-17" d="M562.9873,769.1038C469.442,681.2038,336.46,636.1329,216.8844,641.677c1.9416,1.6745,3.8864,3.3453,5.8157,5.0342,11.8424,10.3668,23.4413,21.0151,34.6565,32.0591,10.0329,9.88,19.6773,19.7113,30.81,28.385,21.0889,16.43,45.57,31.6811,59.4242,55.2982,2.6933,4.5912,3.3415,9.57,1.6767,13.9723l24.7,19.7881Q474.1353,876.46,574.1131,956.9373c16.3,13.1407,32.6652,26.2022,49.2193,39.022,16.4332,12.7261,33.4884,24.69,49.7041,37.685,8.068,6.4654,15.9525,13.1561,24.0178,19.625,4.2852,3.437,8.6176,6.8172,13.0478,10.066.3671.2692.7382.5326,1.1068.8C692.8105,956.5349,652.6493,853.3545,562.9873,769.1038Z" transform="translate(23.4415 14.5873)"/><path class="cls-27" d="M587.3819,861.0152c-63.4441-86.2018-199.5646-160.6808-310.48-164.2245-.3148-.01-.6275-.0091-.9421-.0179,3.9218,3.5882,7.9553,7.07,12.2068,10.3825,21.0889,16.43,45.57,31.6811,59.4242,55.2983,2.6933,4.5912,3.3415,9.57,1.6767,13.9723l24.7,19.788Q474.1352,876.46,574.1131,956.9373c16.3,13.1407,32.6652,26.2022,49.2193,39.022,10.9242,8.46,22.12,16.5876,33.1641,24.9006C644.9244,966.96,624.9,911.9915,587.3819,861.0152Z" transform="translate(23.4415 14.5873)"/><circle class="cls-70" cx="682.8059" cy="358.373" r="20.1235"/><text class="cls-71" transform="matrix(0.9859, 0.1671, -0.1671, 0.9859, 672.4772, 366.7326)">K</text><path class="cls-72" d="M678.868,332.1032l-3.2462-.55-.5442,3.2118-3.0749-.5211.5443-3.2118-3.1005-.5254.5108-3.0141,3.1.5254.54-3.1861,3.0749.5211-.54,3.1861,3.2462.55Z" transform="translate(23.4415 14.5873)"/><circle class="cls-73" cx="452.9667" cy="582.1003" r="30.1853"/><g class="cls-3"><text class="cls-74" transform="translate(430.5835 595.3253) rotate(-7.7447)">M</text><text class="cls-75" transform="translate(457.1111 591.7176) rotate(-7.7447)">g</text></g><path class="cls-76" d="M440.0032,546.9164c1.64-2.2261,3.3867-4.6234,4.9056-6.7812.7979-1.1754,1.4073-2.22,1.2579-3.3187a1.6956,1.6956,0,0,0-1.9036-1.4581l-.0039,0c-1.2467.17-1.8221,1.4443-1.6175,2.77l-4.6147-.596a6.3794,6.3794,0,0,1,5.562-6.9223c3.8147-.5188,6.7578,1.8906,7.1643,4.8794.3232,2.376-.64,4.25-2.1293,6.2483-.4958.7432-1.0761,1.6029-1.5683,2.373l4.755-.6468.6114,4.4952-12.0541,1.6394Z" transform="translate(23.4415 14.5873)"/><path class="cls-76" d="M463.0565,540.1906l-3.3831.46.4552,3.3473-3.2046.4359-.4553-3.3473-3.2313.4394-.4271-3.1413,3.2312-.4394-.4516-3.3206,3.2048-.4358.4516,3.3205,3.383-.46Z" transform="translate(23.4415 14.5873)"/><circle class="cls-77" cx="609.3294" cy="422.2369" r="19.7986"/><g class="cls-3"><text class="cls-78" transform="translate(596.5176 432.0507) rotate(-10.7708)">C</text><text class="cls-79" transform="translate(610.01 429.484) rotate(-10.7708)">a</text></g><path class="cls-80" d="M587.6706,390.8773c.9545-1.45,1.97-3.0113,2.8513-4.4147a3.1508,3.1508,0,0,0,.6788-2.1227,1.0646,1.0646,0,0,0-1.2419-.8512l-.0025,0a1.3856,1.3856,0,0,0-.9462,1.7159q.0108.0374.0237.0741l-2.9135-.2208a4.0059,4.0059,0,0,1,3.2583-4.525,3.8194,3.8194,0,0,1,4.64,2.765l.014.0572a5.1777,5.1777,0,0,1-1.128,3.9886c-.2863.4825-.6217,1.0408-.9048,1.54l2.96-.5631.5324,2.7984-7.5042,1.4276Z" transform="translate(23.4415 14.5873)"/><path class="cls-80" d="M601.9034,385.8958l-2.1062.4006.3964,2.0839-1.995.38-.3964-2.0838-2.0117.3826-.372-1.9556,2.0116-.3826-.3932-2.0673,1.995-.38.3933,2.0672,2.1062-.4006Z" transform="translate(23.4415 14.5873)"/><circle class="cls-70" cx="553.3049" cy="657.1391" r="20.1235"/><text class="cls-81" transform="translate(546.9077 668.7855) rotate(-12.3628)">K</text><path class="cls-72" d="M543.5765,624.4183l-3.216.7049.6974,3.182-3.0464.6678-.6974-3.1822-3.0718.6733-.6545-2.9862,3.0718-.6732-.6923-3.1565,3.0464-.6678.6919,3.1566,3.216-.7049Z" transform="translate(23.4415 14.5873)"/><ellipse class="cls-82" cx="654.5582" cy="452.3028" rx="26.4944" ry="27.113" transform="translate(159.5251 1070.3869) rotate(-83.9782)"/><path class="cls-83" d="M681.618,435.2059l-5.035-.5311-.5135,4.868L671.3,439.04l.5135-4.868-4.809-.5073.482-4.5684,4.809.5073.5094-4.8291,4.7693.5031-.5094,4.8291,5.035.5311Z" transform="translate(23.4415 14.5873)"/><g class="cls-3"><text class="cls-84" transform="matrix(1.0177, 0.1074, -0.1049, 0.9945, 659.181, 474.2005)">N</text><text class="cls-85" transform="matrix(1.0177, 0.1074, -0.1049, 0.9945, 678.7433, 476.2642)">a</text></g><line class="cls-86" x1="671.6026" y1="712.5777" x2="644.7691" y2="697.6301"/><line class="cls-86" x1="672.2701" y1="716.7013" x2="645.4365" y2="701.7537"/><circle class="cls-87" cx="642.5861" cy="696.5229" r="16.5556"/><text class="cls-88" transform="translate(637.9478 707.1631) rotate(-26.1761)">O</text><line class="cls-86" x1="670.5453" y1="754.2071" x2="674.9943" y2="734.0019"/><circle class="cls-87" cx="670.6465" cy="757.2254" r="16.5556"/><text class="cls-89" transform="matrix(0.7947, -0.607, 0.607, 0.7947, 668.1642, 768.5655)">O</text><line class="cls-86" x1="688.2822" y1="706.8463" x2="705.2213" y2="691.4053"/><circle class="cls-87" cx="705.6936" cy="690.5375" r="16.5556"/><text class="cls-88" transform="translate(701.7574 701.4578) rotate(-29.9062)">O</text><circle class="cls-90" cx="678.698" cy="718.5088" r="16.7705"/><text class="cls-91" transform="matrix(0.9288, -0.3706, 0.3706, 0.9288, 674.0813, 727.6898)">N</text><text class="cls-92" transform="matrix(0.9288, -0.3706, 0.3706, 0.9288, 674.0813, 727.6898)">N</text><path class="cls-93" d="M689.4748,662.0714l7.6218-3.0412,1.0725,2.688-7.6217,3.0412Z" transform="translate(23.4415 14.5873)"/></g><circle class="cls-94" cx="612.8511" cy="560.228" r="301.2997"/><g class="cls-3"><text class="cls-95" transform="matrix(1, -0.0085, 0.0085, 1, 543.4583, 545.241)">liquid </text><text class="cls-95" transform="matrix(1, -0.0085, 0.0085, 1, 538.0113, 601.273)">p</text><text class="cls-96" transform="matrix(1, -0.0085, 0.0085, 1, 566.748, 601.0277)">h</text><text class="cls-95" transform="matrix(1, -0.0085, 0.0085, 1, 592.3592, 600.8089)">ase</text></g></g></g></g></svg>