<svg xmlns="http://www.w3.org/2000/svg" xmlns:xlink="http://www.w3.org/1999/xlink" viewBox="0 0 3070.4138 2176.6396"><defs><style>.cls-1,.cls-15,.cls-19,.cls-23,.cls-34,.cls-37,.cls-4,.cls-42,.cls-57,.cls-61,.cls-63{fill:none;}.cls-2,.cls-22,.cls-24,.cls-25,.cls-26,.cls-27,.cls-31,.cls-32,.cls-33,.cls-35,.cls-40,.cls-44,.cls-45,.cls-60,.cls-64,.cls-65{fill:#fff;}.cls-29,.cls-3{fill:#81a1c5;}.cls-19,.cls-4{stroke:#fecf08;}.cls-15,.cls-19,.cls-23,.cls-29,.cls-30,.cls-31,.cls-34,.cls-35,.cls-37,.cls-38,.cls-39,.cls-4,.cls-41,.cls-42,.cls-47,.cls-49,.cls-50,.cls-51,.cls-52,.cls-53,.cls-54,.cls-56,.cls-57,.cls-58,.cls-59,.cls-63{stroke-miterlimit:10;}.cls-4{stroke-width:1.54px;}.cls-5{fill:#fecf08;}.cls-10,.cls-11,.cls-12,.cls-13,.cls-17,.cls-20,.cls-22,.cls-24,.cls-25,.cls-26,.cls-27,.cls-32,.cls-33,.cls-40,.cls-44,.cls-45,.cls-6,.cls-60,.cls-64,.cls-65,.cls-7,.cls-8,.cls-9{isolation:isolate;}.cls-10,.cls-11,.cls-12,.cls-13,.cls-17,.cls-20,.cls-22,.cls-24,.cls-25,.cls-26,.cls-27,.cls-7,.cls-8,.cls-9{font-size:30px;}.cls-10,.cls-11,.cls-12,.cls-13,.cls-17,.cls-20,.cls-7,.cls-8,.cls-9{fill:#df6572;}.cls-10,.cls-17,.cls-20,.cls-60,.cls-7,.cls-8,.cls-9{font-family:Acre-Medium, Acre;font-weight:500;}.cls-27,.cls-8{letter-spacing:-0.019em;}.cls-9{letter-spacing:-0.043em;}.cls-10{letter-spacing:-0.009em;}.cls-11,.cls-12,.cls-13,.cls-22,.cls-24,.cls-25,.cls-26,.cls-27,.cls-32,.cls-33,.cls-64,.cls-65{font-family:Acre-Thin, Acre;font-weight:200;}.cls-11,.cls-24{letter-spacing:-0.029em;}.cls-13,.cls-25{letter-spacing:-0.019em;}.cls-14{fill:#4e7383;}.cls-15,.cls-23,.cls-34,.cls-35,.cls-47,.cls-53{stroke:#ffcf01;}.cls-15{stroke-width:1.55px;}.cls-16,.cls-54,.cls-55,.cls-62{fill:#ffcf01;}.cls-17{letter-spacing:-0.053em;}.cls-18,.cls-56{fill:#2e61a2;}.cls-19{stroke-width:1.38px;}.cls-20{letter-spacing:-0.064em;}.cls-21{fill:#5c5052;}.cls-23{stroke-width:2px;}.cls-26{letter-spacing:-0.03em;}.cls-28{clip-path:url(#clip-path);}.cls-29,.cls-30,.cls-31,.cls-41,.cls-57,.cls-63{stroke:#5b5052;}.cls-29{stroke-width:0.4349px;}.cls-30,.cls-50{fill:#ec6a7c;}.cls-30,.cls-31{stroke-width:0.3865px;}.cls-32,.cls-33{font-size:28.99px;}.cls-33{letter-spacing:-0.02em;}.cls-34{stroke-width:2.4158px;}.cls-35{stroke-width:2.482px;}.cls-36{clip-path:url(#clip-path-2);}.cls-37,.cls-38,.cls-39{stroke:#5e5252;}.cls-37,.cls-38,.cls-39,.cls-41,.cls-42{stroke-width:0.6205px;}.cls-38{fill:#3d9f96;}.cls-39,.cls-41{fill:#ec6b7c;}.cls-40{font-size:6.5429px;}.cls-40,.cls-44,.cls-45{font-family:Acre-Bold, Acre;font-weight:700;}.cls-42{stroke:#5c5052;}.cls-43{fill:#5e5252;}.cls-44{font-size:6.0147px;}.cls-45{font-size:6.5642px;}.cls-46,.cls-47{fill:#5b5052;}.cls-47{stroke-width:2.4642px;}.cls-48{clip-path:url(#clip-path-3);}.cls-49{fill:#6d54a3;stroke:#ec6a7c;}.cls-49,.cls-51{stroke-width:1.2691px;}.cls-50,.cls-52,.cls-54,.cls-56,.cls-61,.cls-62{stroke:#fff;}.cls-50{stroke-width:0.2587px;}.cls-51{fill:#3caba2;}.cls-51,.cls-55{stroke:#2e61a2;}.cls-52{fill:#2e6289;stroke-width:0.4189px;}.cls-53{fill:#f37243;stroke-width:0.9241px;}.cls-54{stroke-width:0.2464px;}.cls-55{stroke-miterlimit:10;stroke-width:1.4293px;}.cls-56{stroke-width:0.4312px;}.cls-57,.cls-62{stroke-linecap:round;}.cls-57{stroke-width:0.8009px;}.cls-58{fill:#c86572;stroke:#e3b222;stroke-width:0.5668px;}.cls-59{fill:#39944c;stroke:#6d54a3;stroke-width:0.69px;}.cls-60{font-size:13.4916px;}.cls-61{stroke-miterlimit:10.009;stroke-width:0.7769px;}.cls-62{stroke-linejoin:round;stroke-width:0.3573px;}.cls-63{stroke-width:1.2321px;}.cls-64,.cls-65{font-size:29.571px;}.cls-65{letter-spacing:-0.02em;}</style><clipPath id="clip-path" transform="translate(816.2706 560.9527)"><path class="cls-1" d="M627.1557,181.5562a192.2283,192.2283,0,0,0,86.8735,172.0921l23.6873,94.4955,73.067-64.02c102.6731,3.4667,189.7278-76.268,195.5983-180.2335C1012.3247,98.3064,932.2639,7.7125,827.5373,1.54S633.1108,75.972,627.1557,181.5562Z"/></clipPath><clipPath id="clip-path-2" transform="translate(816.2706 560.9527)"><circle class="cls-1" cx="1104.2936" cy="458.3423" r="190.93"/></clipPath><clipPath id="clip-path-3" transform="translate(816.2706 560.9527)"><circle class="cls-1" cx="327.4703" cy="411.5542" r="190.9793"/></clipPath></defs><g id="Layer_2" data-name="Layer 2"><g id="Layer_4" data-name="Layer 4"><g id="Layer_1-2" data-name="Layer 1"><g id="Layer_2-2" data-name="Layer 2"><g id="Pore_Space" data-name="Pore Space"><g id="Layer_123" data-name="Layer 123"><path class="cls-2" d="M260.2952,416.4507c19.14-21.59,42.38-40.8,61.31-61.66,27.63-30.44,53.91-62.06,80.17-93.67,52.36-63.03,104.92-126.54,167.14-180.27,25.25-21.79,52.29-42,82.84-55.41,37.84-16.58,75.2-13.27,115.35-10.86q65.49,3.87,130.81,9.64c56,5,112,10.22,167.85,17.31,52,6.6,109.44,10.78,159.47,27,16.28,5.27,31.89,13.83,43,26.88,39.36,46.39,23.31,123.28-14.3,165.52-14.43,16.21-31.46,29.88-46.65,45.36-38.49,39.22-70.56,85.72-97.17,133.67-7,12.7-14.15,26.14-26.16,34.3-16.54,11.23-37.15,9.44-56.12,9.35-217.71-1-435.5,1.08-653.27-1.36-39-.44-77.52-1.6-116.47-1.6-10-.14-19.24-2.77-24.65-11.66-1.57-2.59-1.51-4.89-.83-7.8,1.75-7.52,5.42-14.7,9.57-21.15A195.0027,195.0027,0,0,1,260.2952,416.4507Z" transform="translate(816.2706 560.9527)"/></g><g id="Layer_130" data-name="Layer 130"><path class="cls-3" d="M638.9352,608.1807c1.78,19.66,3,47.48-4,66.15-3.18,8.44-7.36,16.59-9.34,25.33-5.77,25.5,1.41,52.68-19.59,73.79-14.39,14.45-41,19.94-60.83,24.18a268.4207,268.4207,0,0,1-75.73,5.19c-20.48-1.52-41.13-5.53-59-15s-32.73-25.05-37.44-43.75c-10.67-42.34,10.7-89.09,29.21-126.15,29.92-59.89,82.66-105,154.34-91C602.2852,535.7507,634.8252,562.4608,638.9352,608.1807Z" transform="translate(816.2706 560.9527)"/><path class="cls-3" d="M803.9652,529.5807c-1,1.65-1.93,3.28-2.91,4.91-10.93,18.11-21.84,38.95-40.21,50.34-22.16,13.74-50.32,15.66-75.52,11.17-28.48-5.06-56.2-24.84-78.9-41.56-14-10.3-17.32-25.47-15.85-42.33,1.67-19,4.13-35,.82-54.16-3.6-20.78,6.18-37.56,16.14-54.71,11.57-19.92,21.74-38.38,39.69-53.38,36.53-30.53,93.06-47.46,138.31-29.81a103.241,103.241,0,0,1,24.53,13.83c20.24,15.26,29.63,40.53,31.38,64.84a169.9,169.9,0,0,1-10.05,72.26A388.6267,388.6267,0,0,1,803.9652,529.5807Z" transform="translate(816.2706 560.9527)"/><path class="cls-3" d="M265.1752,706.7908l1.38.37c12.49,3.27,25.32,6,38.28,6.29,11.83.28,26.32-5.63,37.4-.46,8.23,3.84,12.72,12.79,15.5,21.43,4.93,15.32,9.92,28,22.08,39.2,22.4,20.63,50.34,31.31,80.35,34.55a242.6083,242.6083,0,0,0,48.19.52c21.1-2.08,41.21-9.31,61.37-15.43l3.65-1.1c25.84-7.68,54.08-13.06,79.32-3.6,20,7.5,35.8,23.79,52.41,36.65,26.43,20.45,63.66,31,96.9,28,51.47-4.62,71.61-43.69,79.18-90q4.29-26.25,7-52.71c1.64-15.9-.83-33.9,2.29-49.14,1.83-8.94,7.78-17.6,16.56-20.06,6.3-1.77,13-.18,19.38,1.11a217.0019,217.0019,0,0,0,63.46,3.32c27.33-2.6,40.67-15.71,54.72-38.34,5.82-9.38,11.7-18.86,15.25-29.31,3.91-11.52,6.43-24.27,8.51-36.27,2.41-13.89,5.6-28.78,6-42.87,0-1.62.54-4-.15-5.48a3,3,0,0,0-2.72-1.6c-2.52-.29-5.12-.12-7.65-.28l-14.27-.9-182.43-11.46c-20.73-1.31-41.49-3.07-62.25-3.92-5-.21-11.9,1.66-16.45-1-2.65-1.54-4-4.57-5-7.34-.36-1-2.6-13.08-1.29-13-125.23-9.92-250.7-19.86-374.35-42-4.9-.88-10.11-1.74-14.72.13-7.89,3.21-9.71,12.13-9.44,19.79.14,4.31,1.36,8.51.8,12.81a34.2642,34.2642,0,0,0-.63,4.84c0,1.74,2.28,10.65-.84,10-.62-.12-1.62-1.15-2.18-1.5l-2.7-1.7c-3.49-2.17-7-4.26-10.61-6.23a158.2108,158.2108,0,0,0-47.52-16.48c-27.37-5.06-52.87-7.8-76,10.92-46.36,37.74-46.56,113.04-46.58,167.21C197.3552,657.3508,220.0352,694.4008,265.1752,706.7908Z" transform="translate(816.2706 560.9527)"/><path class="cls-3" d="M995.5952,165.5807c.22,13.17-3.38,28.14-1.94,41,.65,5.78,3.85,10.86,3.9,17.09a39.9987,39.9987,0,0,1-4.96,19.61c-1.62,2.93-3.61,5.65-5.42,8.47a106.2625,106.2625,0,0,0-15,37.07c-2.33,12.36-6.53,24-15.76,32.95-13.46,13-37,16.78-54.58,19.72a214.4852,214.4852,0,0,1-66.38.74c-17.77-2.59-35.53-7.58-50.51-17.66s-27-25.78-29.92-43.91c-1.79-11-.19-22.27,2.51-33,1.26-5.07,3.26-10.09,4.11-15.23.8-4.83-.15-9.17,0-14,.18-6,3.68-11.21,6-16.69,3-7.17,4.12-15,6.46-22.42,2.15-6.83,5.34-13.27,8.52-19.68,1.89-3.8,4.13-8.08,8-10.28.84-.49,2.15-.6,2.89-1.13,1-.72,1.54-2.87,2-4,1.37-3,2.77-6,4.23-9,5.76-11.71,12.57-23.12,21.86-32.4,28.39-28.36,70.99-29.75,107.15-19.58C968.1152,94.3207,994.8252,121.6707,995.5952,165.5807Z" transform="translate(816.2706 560.9527)"/><path class="cls-3" d="M740.6652,282.7108c-15.05,18.54-36.7,32.65-60.78,35.25-13.58,1.46-29.57-4.88-42.13-9.53l-.36-.14a228.9018,228.9018,0,0,1-46.23-23.4c-4.92-3.24-10.21-6.75-14.25-10.81s-8.92-6.66-12.61-11.18c-7.33-9-11.45-20.42-12.64-31.89-1.72-16.56,2.06-33.19,6.93-49.11,13.48-44.11,28-103.6,76.56-121.23a213.38,213.38,0,0,1,101.44-11.18c32.94,4.42,56.26,27.59,61.13,60.32,1.59,10.71,3.17,21.73.69,32.29-3,13-12.24,22.9-17.09,35-4.54,11.38-5,25.07-7.79,37C768.1152,237.0007,757.0152,262.5807,740.6652,282.7108Z" transform="translate(816.2706 560.9527)"/><path class="cls-3" d="M954.6552,326.9407c-25.57-.43-54.59,12.05-70.14,33-8.9,12-16.47,44.88-23.36,58.06-8.56,16.48-13.56,30.12-22.81,41.83-23.14,29.22-29.7,67-17.4,102.73,5,14.68,15.29,24.59,28.45,31.84,14.77,8.13,28.53,16.17,44.65,21.75,30.4,10.51,70.79,28.49,103,17.43,17.66-6.07,37.25-17.61,49.08-32.28,13.75-17.06,18.47-39.52,22.06-61.15a1001.781,1001.781,0,0,0,12.55-120.23c.72-16.46.69-34.7-9.89-48.35-10-12.87-26.11-18.91-40.35-25.64C1005.7652,334.2607,982.0852,327.4008,954.6552,326.9407Z" transform="translate(816.2706 560.9527)"/><path class="cls-3" d="M599.7252,420.5807c-4,8.73-6.51,14.92-12.15,22.71-10.1,14-22.57,25.52-31.26,40.42-8.1,13.87-13,30.09-27.8,38.64-21,12.14-51.74,6.18-74.73,4.65-20.89-1.38-37.22-9-47.27-27.87-8.69-16.35-19.06-34.49-24.71-52.13-5.3-16.58-4.87-34.36-4.75-51.77.2-29.08-.22-58.77,8.33-86.92,7.58-24.93,24.21-47.5,47.5-59.95,28.35-15.15,59.3-10.31,88.12.86,15.49,6,30.55,12.93,46.26,18.39,20.11,7,43,13.75,52.75,35.11,11.15,24.33,4.72,54.17-3,78.49C615.0452,387.4207,602.4052,414.7208,599.7252,420.5807Z" transform="translate(816.2706 560.9527)"/><path class="cls-3" d="M1193.5352,280.8307c-6.72,7.12-13.77,14-20.9,20.66-13,12.25-25,25.61-38.62,37.27-11.68,10-26.93,23.3-42.35,26.36l-.7.13c-12.4,2.21-25.39-1.43-36.57-6.65-2.85-1.33-5.5-3.13-8.35-4.41-2.64-1.19-5.62-1.71-8.33-2.95a39.0017,39.0017,0,0,1-6.94-4c-2-1.46-4.25-1.86-6.6-2.65a69.1154,69.1154,0,0,1-15.46-7.4,16.0988,16.0988,0,0,1-5.84-5.69,39.6893,39.6893,0,0,0-2.15-3.45,58.8214,58.8214,0,0,1-10.19-21.36c-4.13-17.69-9.4-37.5-10.31-55.64-.86-17.06,4-33.81,8.52-50.28,7.5-27.52,14.57-55.79,29.76-80.32,13.46-21.73,34.9-38.95,60.12-44.89,30.69-7.24,58.82,5.14,83.33,23,13.18,9.59,25.72,19.94,39.24,29.07,17.31,11.68,37.28,23.85,41.18,46.56,4.45,25.87-9.15,52.55-22.59,73.66A223.7257,223.7257,0,0,1,1193.5352,280.8307Z" transform="translate(816.2706 560.9527)"/><path class="cls-3" d="M219.4052,484.4008c9-21.51,25.34-40.68,47.16-49.75,12.31-5.12,29-3.59,42.06-2.7,23.16,1.58,47.57,7,66,21.95,9.64,7.81,13.74,16.89,20.07,26.95,8.69,13.8,14.95,25.61,16.49,42.28,1,11.18.88,22.47,2.72,33.57s3.81,21.94,2.18,33.1c-4,27.18-13.81,56.44-36.71,73.3a208,208,0,0,1-91.78,38.42c-32.05,4.95-60.26-10.3-73.84-39.59-4.45-9.59-9-19.46-9.56-30-.73-13,5.14-24.81,6.33-37.51,1.07-11.94-2.28-24.84-2.93-36.84C206.3252,534.7407,209.6652,507.7607,219.4052,484.4008Z" transform="translate(816.2706 560.9527)"/><path class="cls-3" d="M866.7752,792.5807c-9.08,21.46-25.54,40.55-47.41,49.51-12.33,5.05-29,3.44-42.07,2.49-23.15-1.69-47.54-7.27-65.89-22.28-9.6-7.85-13.66-17-19.94-27-8.61-13.84-14.82-25.69-16.27-42.37-1-11.18-.77-22.47-2.56-33.57s-3.7-22-2-33.12c4.11-27.15,14.09-56.37,37.08-73.11a208.0013,208.0013,0,0,1,92-38c32.07-4.8,60.21,10.6,73.64,39.95,4.4,9.62,8.87,19.51,9.41,30.09.66,13-5.27,24.78-6.52,37.47-1.17,11.9,2.13,24.85,2.73,36.81C880.1052,742.3307,876.5952,769.2908,866.7752,792.5807Z" transform="translate(816.2706 560.9527)"/><line class="cls-4" x1="1122.0158" y1="1353.6434" x2="1180.8258" y2="1271.7334"/><polygon class="cls-5" points="1182.616 1277.543 1179.886 1273.053 1174.756 1271.893 1185.376 1265.403 1182.616 1277.543"/><g class="cls-6"><text class="cls-7" transform="translate(991.0958 1395.1834)">g</text><text class="cls-8" transform="translate(1009.5658 1395.1834)">r</text><text class="cls-7" transform="translate(1018.8158 1395.1834)">a</text><text class="cls-9" transform="translate(1037.3158 1395.1834)">v</text><text class="cls-7" transform="translate(1052.3758 1395.1834)">i</text><text class="cls-8" transform="translate(1060.6858 1395.1834)">t</text><text class="cls-7" transform="translate(1069.2759 1395.1834)">atio</text><text class="cls-10" transform="translate(1123.1459 1395.1834)">n</text><text class="cls-7" transform="translate(1140.1559 1395.1834)">al </text><text class="cls-11" transform="translate(1041.1758 1431.1834)">w</text><text class="cls-12" transform="translate(1064.0359 1431.1834)">a</text><text class="cls-13" transform="translate(1082.5459 1431.1834)">t</text><text class="cls-12" transform="translate(1089.7458 1431.1834)">er</text></g></g><g id="Layer_129" data-name="Layer 129"><path class="cls-14" d="M701.3852,55.7807c-12,.93-23.95,3.95-35.31,7.46-20.43,6.34-39.71,11.62-55.48,26.75-17.54,16.72-26.51,39.59-32.9,62.48-6.22,22.23-16.21,48.69-11.43,71.9,4.93,24,21.46,43.81,41.25,57.45,20,13.76,45.8,29.06,70.89,27.53a66.71,66.71,0,0,0,47.72-25,290.4387,290.4387,0,0,0,48.19-89.52c9.47-28.91,23.12-69.61,9-98.79-10.5-21.78-35.55-34-58.14-38.91A82.609,82.609,0,0,0,701.3852,55.7807Z" transform="translate(816.2706 560.9527)"/><path class="cls-14" d="M985.8052,163.5007c.06,20.75-6,42.26-10.48,61.7-6.88,29.66-6.61,66.8-31.41,88.59-25.24,22.17-77.13,23.66-109.1,19.93-32.39-3.79-63.91-19.48-70.28-54.3-8.54-46.57,24.36-93.34,47.26-130.91,15.74-25.83,36.43-49.59,66.29-58.7C928.1352,74.5807,985.6652,108.8107,985.8052,163.5007Z" transform="translate(816.2706 560.9527)"/><path class="cls-14" d="M949.0952,339.2907c-14,2-27.51,6.55-39.12,14.62-27.34,19-27.61,48.57-39.88,76.36-8.81,19.94-24.74,36.13-34.17,55.8-12.91,26.92-15.33,69.42,7.48,92.29,13.85,13.89,33.93,18.7,50.69,28.13a189.3711,189.3711,0,0,0,63.83,21.66c36.95,5.67,63.91-7.16,82.32-38.8,29.18-50.11,25.06-103.18,25.71-158.83.05-3.95.11-7.9.07-11.85-.24-26.35-8.78-45.63-30.81-60.62C1010.4952,341.2208,978.4952,335.1208,949.0952,339.2907Z" transform="translate(816.2706 560.9527)"/><path class="cls-14" d="M471.2052,251.7007a76.6806,76.6806,0,0,0-37.47,12.14c-48.64,31-46.29,103.46-45.13,153,1.09,46.49,25.3,101.46,80.22,100.92,26.15-.26,48.35-3.63,67.06-23.11,30.72-32,57.81-74.55,74.05-115.41,5.14-12.93,3.59-26.61,3.63-40.12s3.15-26-5.56-37.89c-7.48-10.19-19.9-15.62-32.06-19.58C541.6752,270.5807,508.7652,249.5007,471.2052,251.7007Z" transform="translate(816.2706 560.9527)"/><path class="cls-14" d="M797.1852,336.4608c-10.75-4.77-22.81-7.4-33.63-9.09-30.47-4.75-60.71,4.69-88.44,16.46-19.67,8.34-35.67,23.61-48.13,40.67-9.66,13.23-18.13,27.59-23,43.3-5.57,17.9-2.46,33.37-3,51.4-.43,15.39-3.44,35.1.15,50.12a29.1269,29.1269,0,0,0,.93,3.19c5.61,16.09,25.06,23,38,32.31,13.29,9.57,27.66,18.29,44.17,21,28.49,4.63,67.23,1.26,87.65-20.7,8.88-9.55,12.21-22.17,18.46-33.29a451.0037,451.0037,0,0,0,37.55-86.3c6.13-19.59,5.37-39.82,2.56-60C827.3552,363.3408,818.4552,345.9308,797.1852,336.4608Z" transform="translate(816.2706 560.9527)"/><path class="cls-14" d="M769.7152,591.1708c-11,4.11-21.38,10.16-31.09,16.52-17.45,11.42-34.1,21.6-44.85,40.06-11.88,20.39-14.11,44.29-13.94,67.44.17,22.53-2.06,50,8.68,70.5,11.1,21.16,31.94,35.29,54.18,42.74,22.42,7.52,50.78,14.88,73.89,6.69l.64-.23c17.87-6.56,30.58-21.38,38.88-38.06,21.35-42.87,27.79-96.11,19.58-143-2.91-16.62-6.66-34-18.23-47-15.72-17.59-42.52-22.32-65-20.79A80.4093,80.4093,0,0,0,769.7152,591.1708Z" transform="translate(816.2706 560.9527)"/><path class="cls-14" d="M1114.1252,88.3007a75.141,75.141,0,0,0-38.53,2.08c-54,17.2-70,86.45-81.34,133.73-10.66,44.36-1.53,102.57,50.68,115.87,24.86,6.34,46.75,8.73,69.39-5,37.19-22.62,73.57-56.14,99.25-90.79,8.12-11,10.1-24.34,13.54-37.14s9.53-23.88,4.26-37.32c-4.53-11.54-14.94-19.82-25.48-26.63C1176.2052,123.8807,1150.2952,95.6607,1114.1252,88.3007Z" transform="translate(816.2706 560.9527)"/><path class="cls-14" d="M327.0752,688.0308c10.63-5,20.49-11.86,29.66-19,16.47-12.79,32.24-24.28,41.47-43.54,10.19-21.29,10.49-45.3,8.45-68.35-2-22.44-2-50-14.34-69.57-12.77-20.2-34.68-32.6-57.45-38.23-22.95-5.69-51.82-10.74-74.19-.71a65.15,65.15,0,0,0-35,39.23c-14.37,45.07-20.38,95-12.39,141.83,1.84,10.78,4.43,21.59,9.55,31.26,3.42,6.45,10.17,13.47,15.49,18.53,17.09,16.26,44.18,18.81,66.47,15.48A80.7,80.7,0,0,0,327.0752,688.0308Z" transform="translate(816.2706 560.9527)"/><path class="cls-14" d="M627.6652,606.6407c1.61,21.6-3.65,44.41-7.35,65-5.64,31.35-2.55,70-29.23,94.37-27.16,24.77-86.28,29.79-123.06,28-37.27-1.79-74.42-16-84.31-51.87-13.22-47.96,20.88-98.86,44.16-139.56,16-27.95,37.88-54.08,71.29-65.55C555.1552,517.8207,623.4052,549.6807,627.6652,606.6407Z" transform="translate(816.2706 560.9527)"/><path class="cls-15" d="M988.2752,778.5807c.91-10.14-2.22-20.51-7.81-29.6a76.41,76.41,0,0,0-33.43-29.58c-19.73-8.75-42-11.5-63.63-12.47" transform="translate(816.2706 560.9527)"/><polygon class="cls-16" points="1703.606 1263.303 1701.296 1268.073 1703.126 1273.053 1691.816 1267.613 1703.606 1263.303"/><g class="cls-6"><text class="cls-7" transform="translate(1735.5758 1386.7134)">plant a</text><text class="cls-17" transform="translate(1834.8458 1386.7134)">v</text><text class="cls-7" transform="translate(1849.5758 1386.7134)">ailable</text><text class="cls-12" transform="translate(1944.8858 1386.7134)"> </text><text class="cls-11" transform="translate(1808.3358 1422.7134)">w</text><text class="cls-12" transform="translate(1831.1959 1422.7134)">a</text><text class="cls-13" transform="translate(1849.7058 1422.7134)">t</text><text class="cls-12" transform="translate(1856.9059 1422.7134)">er</text></g></g><g id="Layer_128" data-name="Layer 128"><path class="cls-18" d="M766.4252,89.7207a60.6415,60.6415,0,0,0-18.75-13.08c-10.22-4.73-21-9.27-32.25-10.88s-22.22,1.41-33.41,2.43c-29.42,2.69-56.09,19.55-74.32,42.33-14.83,18.54-22,41.23-26.59,64.21-4.71,23.76-13.19,51.25,1.37,73.24,12.68,19.13,33.93,31.46,53.16,43.05,19.43,11.72,41.43,14.29,62.37,4.48,23.07-10.81,38.26-34.12,49.71-55.93,12.34-23.49,23.78-48.94,29.62-75.32C783.5952,136.1707,784.2752,108.4907,766.4252,89.7207Z" transform="translate(816.2706 560.9527)"/><path class="cls-18" d="M566.6852,771.1708a88.82,88.82,0,0,1-28.16,7.41l-42,4.51c-29.75,3.19-67.06,1.58-88.8-20.07-36.21-36.08-11-85.66,11.4-121.66,23.4-37.6,46-87.86,96.93-98.39,44.14-9.13,95.16,18.74,102,59.58,3,17.74-1.72,35.7-6.39,53.12-6.29,23.43-5.11,48.21-11.07,71.73C595.2252,748.5807,584.0752,763.0007,566.6852,771.1708Z" transform="translate(816.2706 560.9527)"/><path class="cls-18" d="M922.3052,317.4008a71.6815,71.6815,0,0,1-25,5.47l-37,2c-26.16,1.39-58.6-2.23-76.2-24.14-29.33-36.52-4.24-82.51,17.57-115.68,22.79-34.67,45.65-81.47,90.74-88.69,39.08-6.26,81.83,23.24,85.27,62.66,1.49,17.13-3.74,34-8.9,50.43-7,22-7.48,45.8-14.15,68C948.5952,297.3907,937.9852,310.5807,922.3052,317.4008Z" transform="translate(816.2706 560.9527)"/><path class="cls-18" d="M926.3552,354.5807c-18.41,10.95-27.32,32.16-34,52.27s-12.76,41.59-28.47,56.07c-33.7,31.14-39.7,104.46,9.13,123.5,17.61,6.87,32.19,19.29,49.74,26.11,18.32,7.12,38.53,9,58.07,8.7,71.71-1.21,78.29-116.9,76.82-167.31-1-36-8.27-80.72-45.86-96.74C986.8452,346.5807,950.7752,340.0608,926.3552,354.5807Z" transform="translate(816.2706 560.9527)"/><path class="cls-18" d="M494.7652,263.4008c-30.83-5.46-61.09,9.29-78.05,35.53-12.83,19.86-16.77,44.94-18.56,68.25-2.74,35.66-6.36,78.37,15.15,109.17,23.93,34.27,71.2,47.67,105.94,22.81,21.88-15.66,37.72-40.62,51.85-63.31,14.36-23,28.3-49.76,33-76.92,7.45-42.61-19.72-65.11-56-77.86C529.5252,274.5807,512.4152,266.5807,494.7652,263.4008Z" transform="translate(816.2706 560.9527)"/><path class="cls-18" d="M799.8852,353.7607c-1.51-1.3-3.11-2.55-4.82-3.76-18.93-13.39-44.34-15.74-67.35-11.36q-68.77,13.11-105,70.93c-4.11,6.56-7.84,13.44-9.75,20.88-5.52,21.52-1,47.1-.28,69.05.56,18.27,9.61,39,24,51.2,6.71,5.68,15,9.29,23.11,12.82,26.59,11.54,52.22,21,81.1,9.94,28.16-10.83,40.77-35.31,52.5-60.42a305.0471,305.0471,0,0,0,26-87.75C822.7352,400.1707,820.6852,371.7108,799.8852,353.7607Z" transform="translate(816.2706 560.9527)"/><path class="cls-18" d="M839.7152,605.3608a58.9993,58.9993,0,0,0-21.12-7.17c-10.86-1.67-22.21-3-33.17-1.46s-20.44,7.35-30.65,11.34c-26.86,10.51-47.28,33.51-58.18,59.81-8.88,21.4-9.49,44.62-7.53,67.39,2,23.55,1.54,51.61,21.15,68.27,17.06,14.49,40.33,20.29,61.49,25.94,21.38,5.72,42.7,2.17,59.67-12.71,18.69-16.38,26.61-42.35,31.43-65.89,5.2-25.36,9-52.32,7.34-78.62C868.3452,644.2607,861.5252,618.1108,839.7152,605.3608Z" transform="translate(816.2706 560.9527)"/><path class="cls-18" d="M1133.5253,105.3207c-27.86-12.94-60.26-6.57-82.94,14.05-17.17,15.6-27.21,38.39-34.77,60-11.57,33.12-25.74,72.7-13.1,107.33,14.07,38.5,55.51,63.1,94.71,48.27,24.68-9.34,46-29,65.09-47,19.41-18.24,39.35-40.06,50.68-64.62,17.78-38.52-2.31-66.7-33.54-87.92C1163.6752,124.6307,1149.4752,112.7207,1133.5253,105.3207Z" transform="translate(816.2706 560.9527)"/><path class="cls-18" d="M255.8952,673.6807a121.3194,121.3194,0,0,0,35.18,7.61c17.89,1,31.06-4.86,46.37-13.24,15-8.24,29.55-18.13,40.1-31.86,9.51-12.38,17.83-25,20.82-40.56,4.47-23.21,1.45-45.93-1.48-69.07-2.37-18.64-6.45-38.87-22.15-51.08-17.68-13.74-41.18-18.52-62.56-23.25-21.61-4.78-42.76-.31-59.06,15.29-18,17.18-24.75,43.46-28.55,67.19-2.27,14.23-2.62,28.63-4.6,42.69a156.4583,156.4583,0,0,0,.53,47.67c3.23,19.26,13.62,40.08,32.69,47.58C254.0852,673.0007,254.9952,673.3508,255.8952,673.6807Z" transform="translate(816.2706 560.9527)"/><path class="cls-19" d="M71.9952,549.3807c15.19-69.23,96-92.72,159.88-72.25q6,1.92,11.83,4.1" transform="translate(816.2706 560.9527)"/><polygon class="cls-5" points="1055.336 1045.113 1058.606 1041.703 1058.426 1036.973 1066.526 1044.703 1055.336 1045.113"/><g class="cls-6"><text class="cls-10" transform="translate(816.3061 1160.0038) rotate(0.32)">h</text><text class="cls-20" transform="translate(833.1958 1160.0981) rotate(0.32)">y</text><text class="cls-7" transform="translate(848.1955 1160.1819) rotate(0.32)">g</text><text class="cls-8" transform="translate(866.6753 1160.2851) rotate(0.32)">r</text><text class="cls-10" transform="translate(875.9151 1160.3367) rotate(0.32)">o</text><text class="cls-10" transform="translate(893.3748 1160.4342) rotate(0.32)">s</text><text class="cls-7" transform="translate(906.0647 1160.5051) rotate(0.32)">copic </text><text class="cls-11" transform="translate(861.1643 1196.2549) rotate(0.32)">w</text><text class="cls-12" transform="translate(884.0239 1196.3825) rotate(0.32)">a</text><text class="cls-13" transform="translate(902.5337 1196.4859) rotate(0.32)">t</text><text class="cls-12" transform="translate(909.7335 1196.5261) rotate(0.32)">er</text></g></g><g id="Layer_127" data-name="Layer 127"><path class="cls-21" d="M625.2652,441.1707c-1.84,50.33-14.87,82.63,29,106.72,32.89,18,54.71,35.68,96.36,6.4,34.28-24.1,58.87-95.52,60.48-134.45,1.62-38.57-15-58.72-48-69.71-39-13-81.06,7.12-108.17,35.07-11.57,11.92-31.84,30.28-29.74,56" transform="translate(816.2706 560.9527)"/><path class="cls-21" d="M456.3652,279.5807c8.9-5.73,20.8-11.87,31.64-10,8.06,1.41,14.75,6.67,22.24,9.62,9.05,3.55,18.18,7,27.39,10.13,12.92,4.39,26.54,8.42,36.54,17.72,13.42,12.53,17.68,32.53,16.06,50.83-1.92,21.65-10.82,42.07-21.18,61.17-12.23,22.53-26.88,44.09-46.11,61-10.56,9.3-23,17.32-36.92,19.12-11.85,1.52-23.92-1.62-34.66-6.85-12.36-6-23.49-15-30.61-26.81s-9.87-25.42-10.66-39,.34-27.21.59-40.83c.22-11.27.29-22.54,1.33-33.78.51-5.56,1.7-10.89,2.49-16.4.81-5.68,1-11.48,2.66-17,3.73-12.3,13.83-20.81,23.69-28.26C445.8652,286.4608,451.0952,282.9807,456.3652,279.5807Z" transform="translate(816.2706 560.9527)"/><path class="cls-21" d="M578.2152,563.9507c-20.39-12.73-53.13-15-74.05-6.16-14.13,5.95-24.72,15.65-33.37,26-8.13,9.77-14.78,20.27-21.41,30.75l-28.47,45c-6.84,10.8-8.38,20.8-11.74,32.31-6.59,22.59-1.38,46.44,20.6,65.35,12.75,11,33,16.63,49.44,17.27,20.66.79,46.32.65,66.19-5.48s34.43-21.7,41.29-41.08c5.73-16.17,3.72-33.26,5.14-50,1.44-16.93,5.77-34,8.71-50.72,2.67-15.17,5.09-31.52-4.45-45.86A58.8221,58.8221,0,0,0,578.2152,563.9507Z" transform="translate(816.2706 560.9527)"/><path class="cls-21" d="M966.3752,355.2208c23.67-.64,51.25,14.8,63,33.91,8,12.91,10.91,27.33,11.92,41.32.94,13.17.28,26.21-.39,39.22l-2.85,55.84c-.69,13.41-5.18,23.27-9.06,35.47-7.62,23.94-25.46,42.74-53.94,48.12-27.07,5.13-100.6-25.52-115.21-53.52-12.86-24.71-2.09-55.62,14.14-81.49,3.42-5.44,8.09-9.63,12-14.53,4.25-5.28,6.19-12.61,8.84-18.76l17.39-40.28c6.53-15.14,14-31.22,29.82-39.1A58.23,58.23,0,0,1,966.3752,355.2208Z" transform="translate(816.2706 560.9527)"/><path class="cls-21" d="M593.7752,159.2307c-6.9,49-21.51,75.33,17,102.71,28.87,20.51,46.55,43.72,88.47,18.78,34.5-20.53,64.82-88.12,70.34-126,5.48-37.53-8-58.66-37.63-72.29-35.07-16.12-76.46-.16-104.66,24.76-12,10.62-32.86,26.78-33.54,52.05" transform="translate(816.2706 560.9527)"/><path class="cls-21" d="M872.5952,313.1808c-202.38,43.63-13.18-285.86,80-189.44,32.86,34,8.33,73.18,1.43,116.32-4.93,30.94-25,74.15-49,74.36-10.42.42-20.22-3.46-32.46-1.24" transform="translate(816.2706 560.9527)"/><path class="cls-21" d="M695.7952,720.4208c6.81,47.79.26,76.44,43.79,91.65,32.62,11.4,55.48,28.36,88-6.38,26.77-28.59,36.87-100.16,31.77-137.17-5-36.65-23.36-52.82-54.87-57.55-37.24-5.6-71.7,20.58-91.38,51.58-8.4,13.22-23.54,34-17.32,57.87" transform="translate(816.2706 560.9527)"/><path class="cls-21" d="M1087.8252,114.6807c9.57-3.89,22-7.62,31.84-3.88,7.28,2.77,12.47,9,18.89,13.11,7.75,5,15.62,9.9,23.61,14.51,11.23,6.48,23.19,12.75,30.63,23.38,10,14.33,9.78,34.09,4.41,51.27-6.36,20.29-19,38.16-32.78,54.51-16.24,19.3-34.55,37.24-56.19,50-11.88,7-25.23,12.44-38.73,11.67-11.45-.66-22.14-5.79-31.14-12.68-10.35-7.94-18.92-18.5-23.14-31s-3.93-26-1.81-39.06,6-25.87,9.15-38.8c2.57-10.7,5-21.43,8.35-31.95,1.65-5.22,3.89-10.08,5.79-15.19,2-5.26,3.34-10.77,6.08-15.73,6.09-11,17.38-17.38,28.22-22.72C1076.5052,119.3807,1082.1553,116.9907,1087.8252,114.6807Z" transform="translate(816.2706 560.9527)"/><path class="cls-21" d="M355.9952,644.7707c11.89-11.52,25.12-26.6,29.87-42.73,5.32-18.05,6.82-36.23,6.47-55-.34-18.12-1.19-37.12-11.91-52.53s-28.83-23.7-46.54-30.1c-12-4.34-24.72-8.2-37.32-6.26-10.8,1.67-20.64,7.55-28.48,15.16-14.24,13.83-22.15,32.84-28.33,51.69-7.76,23.66-13.46,48.25-13.63,73.15-.1,15.29,2.05,31.08,9.86,44.24,11.75,19.8,35.5,30.86,58.52,30.23S339.4552,660.7908,355.9952,644.7707Z" transform="translate(816.2706 560.9527)"/><g class="cls-6"><text class="cls-22" transform="translate(1469.2358 1001.9134)">solid - soil</text><text class="cls-22" transform="translate(1482.8358 1037.9134)">particles</text></g></g><g id="Layer_132" data-name="Layer 132"><path class="cls-23" d="M495.7152,443.4708c-.56,12.91.42,24.75,7.67,35.93,12,18.53,34.64,25.66,55.95,24" transform="translate(816.2706 560.9527)"/><polygon class="cls-16" points="1371.666 1071.093 1373.506 1064.503 1370.036 1058.603 1385.656 1062.913 1371.666 1071.093"/><g class="cls-6"><text class="cls-24" transform="matrix(1, -0.0086, 0.0086, 1, 1239.3558, 920.9334)">w</text><text class="cls-22" transform="matrix(1, -0.0086, 0.0086, 1, 1262.215, 920.7379)">a</text><text class="cls-25" transform="matrix(1, -0.0086, 0.0086, 1, 1280.7243, 920.5796)">t</text><text class="cls-22" transform="matrix(1, -0.0086, 0.0086, 1, 1287.924, 920.5181)">e</text><text class="cls-26" transform="matrix(1, -0.0086, 0.0086, 1, 1304.9334, 920.3726)">r</text><text class="cls-27" transform="matrix(1, -0.0086, 0.0086, 1, 1312.7331, 920.3058)">-</text><text class="cls-22" transform="matrix(1, -0.0086, 0.0086, 1, 1324.7927, 920.2028)">filled </text><text class="cls-22" transform="matrix(1, -0.0086, 0.0086, 1, 1282.5122, 956.5657)">po</text><text class="cls-25" transform="matrix(1, -0.0086, 0.0086, 1, 1319.1708, 956.2521)">r</text><text class="cls-22" transform="matrix(1, -0.0086, 0.0086, 1, 1327.2705, 956.1829)">e </text><text class="cls-22" transform="matrix(1, -0.0086, 0.0086, 1, 1272.6704, 992.6511)">space</text></g></g><g id="Layer_133" data-name="Layer 133"><path class="cls-23" d="M955.5952,449.3807c1-10.12-1.62-20.41-6.43-29.37-6.51-12.14-16.75-22.91-29.23-28.91-16.45-7.91-35-10.44-53.25-11.19" transform="translate(816.2706 560.9527)"/><polygon class="cls-16" points="1687.956 934.843 1685.056 941.043 1687.506 947.423 1672.816 940.613 1687.956 934.843"/><g class="cls-6"><text class="cls-22" transform="translate(1707.1158 1053.4634)">ai</text><text class="cls-26" transform="translate(1732.7059 1053.4634)">r</text><text class="cls-27" transform="translate(1740.5058 1053.4634)">-</text><text class="cls-22" transform="translate(1752.5658 1053.4634)">filled</text><text class="cls-22" transform="translate(1678.4359 1089.4634)"><tspan xml:space="preserve"> po</tspan></text><text class="cls-25" transform="translate(1725.5958 1089.4634)">r</text><text class="cls-22" transform="translate(1733.6959 1089.4634)">e space</text></g></g></g></g></g><g id="Layer_2-3" data-name="Layer 2"><g id="Layer_2-4" data-name="Layer 2"><g id="Layer_11" data-name="Layer 11"><g class="cls-28"><rect class="cls-29" x="1274.0157" y="555.2573" width="634.8941" height="553.8911"/><path class="cls-3" d="M822.79,355.1341q4.7109-1.063,9.3976-2.1864c34.7519-8.3588,73.985-15.6183,101.2236-37.0951,32.8554-25.9461,49.1261-64.8532,53.5712-102.1417,5.0128-42.1322-14.4226-88.9148-31.1885-127.4354-10.34-23.7356-33.6284-34.329-61.9179-38.8346-31.9132-5.0611-59.3088-7.8393-89.06-19.9548-32.3481-13.1663-64.43-5.9067-97.1287,1.51C669.6624,37.4515,634.6811,44.699,601.7411,64.11c-67.0636,39.6077-121.2025,112.7351-113.4356,183.41a132.87,132.87,0,0,0,11.1853,39.97c15.5459,34.4861,52.52,57.5694,91.5119,69.5157A332.18,332.18,0,0,0,713.9568,370.97,762.7274,762.7274,0,0,0,822.79,355.1341Z" transform="translate(816.2706 560.9527)"/><path class="cls-14" d="M509.6736,270.3261c-2.8145-17.0075-1.4737-35.03.8213-50.95,6.4624-44.8138,36.0443-83.7813,68.26-118.3036C595.9069,82.7243,618.205,70.21,640.8173,60.4019c47.8336-20.8124,94.93-34.0271,147.3661-20.7279,16.2706,4.1311,32.6138,8.2139,48.8,12.5382,27.7821,7.38,53.8611,16.7659,78.5147,32.1186,17.9859,11.2336,26.7554,29.6665,34.788,48.6791,23.4941,55.6609,23.9651,129.0782-26.4172,168.7221-40.1391,31.5871-94.3505,40.4532-143.247,46.9638l-8.3347,1.0751c-32.8191,4.1552-65.4933,5.3632-98.3366,6.3174-34.9451,1.0147-67.7159-7.9239-99.4721-19.7615C539.6058,323.3416,515.2541,304.0149,509.6736,270.3261Z" transform="translate(816.2706 560.9527)"/><path class="cls-18" d="M536.7551,280.8712a85.0275,85.0275,0,0,1-3.9137-8.25c-13.0817-31.9132-5.0491-68.658,12.8764-99.4Q599.3253,81.3351,710.949,52.72c12.6469-3.189,25.6562-5.8222,38.7259-5.6048,37.832.616,77.5725,17.02,113.2061,26.5138,29.6424,7.9,59.4176,28.7606,72.62,53.7886,6.1725,11.6685,8.2138,24.7261,10.1948,37.5784,6.4745,41.9993,10.05,81.8244-21.6217,118.219-30.8986,35.5007-76.86,43.7508-123.4613,50.5031a603.768,603.768,0,0,1-155.8215,2.4158C602.0673,331.1811,556.42,317.2054,536.7551,280.8712Z" transform="translate(816.2706 560.9527)"/><path class="cls-21" d="M761.4642,68.7124c83.2739,16.9954,142.2445,11.2095,161.1726,82.5008,14.193,53.4142,32.88,91.0409-34.5344,138.3671-55.4676,38.98-183.9539,45.7922-248.4085,32.94-63.911-12.7436-89.1444-44.0045-91.7414-94.7854-3.08-60.0215,49.5247-111.5271,107.9758-138.9107,24.9194-11.6564,64.4667-33.0969,105.5359-20.1118" transform="translate(816.2706 560.9527)"/><ellipse class="cls-30" cx="1704.2885" cy="678.7428" rx="5.8946" ry="6.0154"/><rect class="cls-31" x="1700.9667" y="677.9093" width="6.6436" height="1.6669"/><ellipse class="cls-30" cx="1738.0377" cy="785.7765" rx="5.8946" ry="6.0154"/><rect class="cls-31" x="1734.7159" y="784.943" width="6.6436" height="1.6669"/><ellipse class="cls-30" cx="1656.479" cy="861.8029" rx="5.8946" ry="6.0154"/><rect class="cls-31" x="1653.1572" y="860.9694" width="6.6436" height="1.6669"/><ellipse class="cls-30" cx="1554.277" cy="876.5516" rx="5.8946" ry="6.0154"/><rect class="cls-31" x="1550.9552" y="875.7181" width="6.6436" height="1.6669"/><ellipse class="cls-30" cx="1581.5035" cy="643.8219" rx="5.8946" ry="6.0154"/><rect class="cls-31" x="1578.1817" y="642.9884" width="6.6435" height="1.6669"/><g class="cls-6"><text class="cls-32" transform="translate(1564.2068 742.3883) scale(0.98 1)">solid </text><text class="cls-32" transform="translate(1554.6296 777.1764) scale(0.98 1)">p</text><text class="cls-33" transform="translate(1572.1374 777.1764) scale(0.98 1)">h</text><text class="cls-32" transform="translate(1587.7273 777.1764) scale(0.98 1)">ase</text></g></g><path class="cls-34" d="M627.1557,181.5562a192.2283,192.2283,0,0,0,86.8735,172.0921l23.6873,94.4955,73.067-64.02c102.6731,3.4667,189.7278-76.268,195.5983-180.2335C1012.3247,98.3064,932.2639,7.7125,827.5373,1.54S633.1108,75.972,627.1557,181.5562Z" transform="translate(816.2706 560.9527)"/></g></g></g><g id="Layer_5" data-name="Layer 5"><g id="Layer_2-5" data-name="Layer 2"><g id="Layer_11-2" data-name="Layer 11"><path class="cls-35" d="M1119.707,267.2882a190.93,190.93,0,0,0-173.2952,83.7312l-94.6769,21.8294,62.3981,74.7959c-5.5472,105.3292,75.342,195.2123,180.6712,200.76s195.2123-75.342,200.7595-180.6712A190.98,190.98,0,0,0,1119.707,267.2882Z" transform="translate(816.2706 560.9527)"/><g class="cls-36"><path class="cls-3" d="M751.5478,1510.325c-41.9959,46.811-100.7579,81.0878-164.422,84.7736-35.9149,2.085-77.1414-16.6792-109.5567-30.5413-57.5954-24.6217-114.9551-60.2388-148.6238-114.6449-17.61-28.4689-19.98-55.2748-27.1534-86.5235-9.8537-42.9018-15.3017-78.5686-4.3808-122.4136,7.322-29.3872,17.7465-58.0174,22.9215-87.9383,5.113-29.5485,9.8165-59.2956,23.902-86.2753,34.314-65.6993,85.4066-131.5475,158.7629-154.0719,87.0571-26.7935,178.2841-32.7876,268.059-16.1332,86.1016,15.8354,144.4168,79.7974,152.893,166.507,2.7923,28.382,5.5225,57.5707-2.37,85.0219-9.73,33.8425-35.1827,58.6255-49.5164,89.9363-13.3782,29.3375-16.307,65.29-25.2671,96.3274C829.6324,1393.6945,797.1551,1459.4683,751.5478,1510.325Z" transform="translate(816.2706 560.9527)"/><path class="cls-3" d="M-708.5921,763.6317l3.2142,2.1594c29.0149,19.2977,59.37,37.4786,92.17,49.64,29.9581,11.0947,72.1153,8.6871,95.8683,31.6335,17.6223,17.0143,21.2213,43.8078,20.75,68.2558-.8562,43.4355.757,80.12,21.9783,119.398,39.0795,72.3139,101.0186,124.1014,174.76,158.6636,38.1239,17.883,81.82,33.9293,122.5253,43.5844,55.6719,13.192,113.3666,12.41,170.18,14.4454,3.4252.1241,6.85.2482,10.2756.3972,72.6738,3.0652,149.48,14.0979,205.5864,60.3753,44.49,36.6968,70.5144,92.1205,101.639,139.5148,49.4916,75.3667,135.27,134.9107,222.7124,156.4671,135.4194,33.3708,221.099-48.6726,281.0028-160.0908q33.9541-63.2175,64.16-128.3706c18.1436-39.092,27.625-87.2557,48.958-123.4189,12.5094-21.1593,35.2324-38.0867,59.8665-36.6719,17.61,1.0176,33.2592,10.9209,48.4864,19.8562a585.3266,585.3266,0,0,0,159.036,64.1356c71.9788,17.3742,117.5613-4.418,173.2828-49.8639,23.0953-18.8138,46.3891-37.8634,64.62-61.4178,20.092-25.9744,37.702-56.3172,53.5374-85.1088,18.3422-33.346,39.5262-68.5412,52.9913-104.1211,1.5513-4.0953,4.8523-9.6054,4.4428-14.11-.31-3.3135-2.7426-5.1378-5.56-6.4781-6.205-2.9412-12.9562-4.8027-19.273-7.446l-35.6419-14.8053L1027.3383,710.8141l-543.8247-226.1L-39.6731,267.1889c-47.4067-19.7073-95.1485-38.7445-142.0216-59.6556,1.6753.7446-1.08,16.8034-1.4272,18.5036-.6454,3.0528-3.09,12.8941-8.0542,10.1142-1.4768-.8315-3.1521-4.3684-4.2567-5.7583-1.7994-2.2462-3.5989-4.4925-5.4232-6.7139q-10.474-12.82-21.6185-25.23c-30.5662-33.6563-67.263-61.4054-106.8017-83.7312-65.4386-36.92-128.11-66.2826-203.427-38.7445C-684.1069,131.3475-750.65,323.2082-798.28,461.5813-838.29,577.9636-812.9118,692.3727-708.5921,763.6317Z" transform="translate(816.2706 560.9527)"/><path class="cls-3" d="M1634.5169,7.3329c-10.9954,33.7929-33.3089,68.8391-40.879,102.8429-3.4128,15.3265.31,31.1-5.0385,47.0468a108.0812,108.0812,0,0,1-29.66,45.7562c-6.7139,6.0686-14.16,11.256-21.2586,16.8654-28.1213,22.239-53.2271,50.4348-70.8619,81.4353-16.7661,29.5113-37.7764,55.5975-69.1244,70.2911-45.7438,21.42-109.2093,10.35-156.5788,2.482a579.3667,579.3667,0,0,1-170.0189-56.33c-43.0756-22.2142-84.029-50.5217-113.4287-89.353s-46.3146-89.49-37.9005-138.3855c5.1253-29.7223,19.0743-56.9874,35.3689-82.0683,7.6818-11.8268,17.2128-22.9215,23.8647-35.2324,6.2795-11.6531,7.6446-23.5792,12.2612-35.7287,5.6838-15.0411,19.2109-25.3788,29.9581-37.33,14.0358-15.6368,23.6661-34.6615,36.1507-51.5518,11.467-15.5374,25.267-29.1762,39.0051-42.74,8.1658-8.0666,17.6348-17.0267,29.3-19.2854,2.5689-.5088,6.0313.36,8.3644-.3474,3.2019-.9556,6.4533-5.9693,8.6871-8.3893q9.1961-9.7668,18.6773-19.2605c24.9816-24.82,52.3584-47.9652,84.2028-63.5027,97.3451-47.4936,207.2493-13.6512,290.6455,44.0063C1627.0212-198.6754,1671.2137-105.4628,1634.5169,7.3329Z" transform="translate(816.2706 560.9527)"/><path class="cls-3" d="M876.9274,98.3489c-54.679,34.1279-122.3019,51.1422-186.04,36.6472-35.9894-8.1659-71.1845-38.3846-99.157-61.2689l-.8191-.67A618.5329,618.5329,0,0,1,493.4665-27.1921c-9.7295-12.6087-20.154-26.21-26.8928-40.1095-6.627-13.6512-16.9274-24.82-22.3382-39.5884-10.8341-29.3748-11.3181-62.1748-4.2939-92.48,10.1267-43.7706,34.3761-82.9,60.81-119.2615C573.847-419.3648,663.0138-558.4949,802.479-560.8653c93.3491-1.5885,184.9111,18.4787,268.58,60.4C1151.266-460.306,1190.47-380.72,1174.1751-292.918c-5.3363,28.7419-10.9581,58.2532-26.5453,83.0363-19.2233,30.5537-51.3407,47.7045-74.3615,74.4608C1051.7-110.3524,1038.52-75.79,1020.91-47.78,987.055,5.7569,936.36,61.255,876.9274,98.3489Z" transform="translate(816.2706 560.9527)"/><path class="cls-14" d="M975.7-515.258c-31.4473-8.1659-64.5328-10.9209-96.6626-11.9386-57.6575-1.8242-111.53-5.175-165.179,19.5584-59.2833,27.3023-102.272,77.9481-138.6213,130.654-35.3813,51.291-84.0787,110.053-92.2445,173.4689-8.4513,65.55,16.3441,130.6415,54.8776,182.8262,38.8561,52.619,91.4255,114.3222,156.7773,132.441A180.0956,180.0956,0,0,0,838.32,89.8852,783.3776,783.3776,0,0,0,1039.8354-96.2669c49.5288-65.451,120.0433-157.36,109.73-244.1943-7.6943-64.7934-60.8965-118.0453-114.26-150.2868A222.3289,222.3289,0,0,0,975.7-515.258Z" transform="translate(816.2706 560.9527)"/><path class="cls-18" d="M1111.9383-371.5983c-7.8432-17.1384-19.7073-33.8176-36.399-49.8267-21.9287-21.0973-45.508-42.0952-72.7482-56.0566s-57.943-15.8726-87.4046-23.0829c-77.4517-18.9627-160.2894.6826-226.7953,42.8274-54.1207,34.3017-92.4183,85.903-124.2007,140.5573-32.8621,56.5034-78.6182,119.2367-60.7228,188.1253C519.23-69.1135,562.6655-18.9889,601.5713,27.45c39.3029,46.9351,93.2,72.81,155.2508,66.1336C825.19,86.2366,884.3983,40.0461,932.7482-5.5612c52.1226-49.1317,103.6247-104.0466,141.6494-166.2959C1114.88-238.0279,1141.0276-308.0335,1111.9383-371.5983Z" transform="translate(816.2706 560.9527)"/><path class="cls-14" d="M1611.0617-2.893c-18.0568,52.9913-52.2839,102.6194-80.8521,148.2763-43.572,69.6458-75.4785,164.6826-157.8818,198.5623-83.8677,34.45-217.55-7.2723-295.9073-44.8627C997.07,261.0086,930.39,193.3361,944.65,98.87c19.0868-126.2855,144.0693-216.88,235.4452-292.6683,62.8325-52.1226,136.5115-94.6025,220.6647-91.6489C1541.8876-280.5078,1658.63-142.6064,1611.0617-2.893Z" transform="translate(816.2706 560.9527)"/><path class="cls-18" d="M1311.9028,341.4263q-31.9065,2.5689-68.6653-7.98l-96.03-27.4016C1079.2376,286.66,999.6513,248.9584,973.9,177.6c-42.8274-118.914,61.5667-214.2983,146.3031-279.8239,88.4843-68.4171,187.8648-167.81,309.2731-146.7,105.2256,18.3049,188.4728,131.0759,162.6721,234.7254-11.1691,44.9991-39.39,83.5823-66.9527,120.8871-37.0815,50.1618-59.246,110.3758-95.7194,161.0464C1396.6021,313.4415,1357.9072,337.7157,1311.9028,341.4263Z" transform="translate(816.2706 560.9527)"/><path class="cls-3" d="M1427.0317,430.891c-63.9494-25.962-149.145-22.7974-208.6641,14.7929C1184.3018,467.2031,1133.2341,542.62,1103.09,569.09c-37.7392,33.1351-63.4034,62.6712-98.1394,83.1479-86.6972,50.9933-139.9615,139.6885-143.7838,241.6254-1.5761,41.8718,14.5819,76.7691,40.6556,107.8317,29.2507,34.8353,56.0566,68.4792,91.2021,98.1891,66.3074,56.0441,150.4854,140.6068,242.2956,144.1065,50.3355,1.9111,110.8846-8.079,154.9406-33.5074,51.2166-29.5485,84.96-81.485,115.042-132.4286a2703.0645,2703.0645,0,0,0,148.5866-290.3973c17.8209-40.7177,35.493-86.6724,22.1521-131.3117-12.5839-42.1076-47.3323-73.0089-76.62-103.7984C1548.5518,499.0475,1495.635,458.7518,1427.0317,430.891Z" transform="translate(816.2706 560.9527)"/><path class="cls-14" d="M1393.9835,445.4109c-37.0815-8.6-75.6149-10.2756-112.6964-1.241-87.2806,21.1965-116.7547,95.3843-174.6852,153.3893C1065.04,639.1952,1009.17,664.45,966.3673,704.77c-58.762,55.1755-106.206,159.793-71.06,239.5281,21.3454,48.4,67.2009,80.0827,100.2243,120.1178,38.5459,46.7489,86.7344,86.3249,139.5768,116.6553,87.5163,50.2239,167.8471,44.1553,244.9886-17.56,122.1654-97.705,163.4912-235.3458,219.2872-374.7489,3.9588-9.9281,7.9425-19.7818,11.69-29.7844,25.0437-66.5679,22.3383-123.4188-18.5532-182.59C1546.6531,510.0181,1472.0682,463.5173,1393.9835,445.4109Z" transform="translate(816.2706 560.9527)"/><path class="cls-18" d="M1315.688,453.2665c-57,9.6427-100.0754,54.3812-136.35,98.5117s-72.7855,92.1949-126.3229,113.3914c-115.1413,45.5825-201.59,224.3009-97.2086,319.7473,37.6524,34.4257,62.2493,79.8841,99.79,114.1733,39.1913,35.7288,88.1989,60.214,137.7526,78.4073,181.6721,66.7293,310.8244-218.0711,356.171-346.3795,32.3657-91.5868,57.7444-211.2454-21.2834-288.151C1475.7663,491.8745,1391.2781,440.4468,1315.688,453.2665Z" transform="translate(816.2706 560.9527)"/><path class="cls-3" d="M396.2579,326.7079c-17.7837,18.8014-29.71,32.3781-50.8816,47.3075-38.0246,26.7562-79.9833,45.3218-115.2406,75.7018-32.8248,28.3075-59.5686,65.4139-104.8408,74.25-64.2721,12.5466-137.4671-29.623-194.8392-53.6863-52.1226-21.8542-87.1068-55.4981-96.191-112.5848-7.8432-49.3551-18.3918-104.754-17.3742-154.7172,1.0052-46.9724,17.6969-91.9715,33.2716-136.2881C-123.7766-7.3482-98.8446-83.472-52.3314-147.831c41.2141-57,103.4385-100.0009,173.7419-111.3438,85.63-13.8125,160.3887,25.6766,224.14,79.4249,34.2768,28.9033,66.6424,59.8045,101.9492,87.5039C492.6971-56.7778,545.08-19.46,551.3226,43.6326c7.1234,71.88-35.4806,142.394-76.5209,197.6936C464.4764,255.4241,408.2709,313.9875,396.2579,326.7079Z" transform="translate(816.2706 560.9527)"/><path class="cls-14" d="M216.41-217.1293a206.8158,206.8158,0,0,0-106.28-1.8863C-41.274-182.4429-98.77,4.3669-139.3141,131.9308c-37.95,119.6213-24.3735,281.2137,116.2581,327.9379,67.0148,22.2762,126.5835,33.1475,191.4265-.1737,106.5286-54.7412,212.9332-139.5521,290.1987-229.5876,24.448-28.5433,32.527-64.7685,44.4779-99.2191s30.8517-63.6516,19.0248-101.5646C511.92-3.24,484.99-28.0111,457.4275-48.7609,379.74-107.2623,314.2021-189.8021,216.41-217.1293Z" transform="translate(816.2706 560.9527)"/><path class="cls-18" d="M266.2865-166.6076C192.3841-207.561,102.2244-196.4912,35.93-144.3934-14.2571-104.954-46.3-44.3925-71.3438,13.538c-38.2729,88.6084-84.96,194.43-57.0866,291.9237C-97.4051,413.8891,11.4939,489.5538,121.9814,456.58c69.5588-20.787,131.82-70.5888,187.8523-116.1092,56.9-46.2154,115.8734-102.1727,151.8132-167.3384,56.3669-102.1975,6.776-183.4715-74.7338-247.8677C345.215-107.6718,308.58-143.1524,266.2865-166.6076Z" transform="translate(816.2706 560.9527)"/><path class="cls-3" d="M808.3614,782.3834q-5.8328,5.0509-11.7276,9.99c-43.7829,36.6223-89.899,80.2564-146.7871,93.2-68.6032,15.6244-142.1458-4.1822-202.5459-37.7268C379.045,809.934,325.6814,735.15,282.3948,672.5785c-26.657-38.5707-21.8542-80.2067-3.3135-121.942,20.9235-47.0717,41.2761-85.8162,49.6406-137.5168,9.0345-56.1931,48.7222-90.4327,89.1793-125.4665,46.9351-40.6929,89.0676-78.8789,148.0654-101.4281,120.006-45.9175,279.1412-39.5015,379.1422,45.235a278.1386,278.1386,0,0,1,50.46,56.8136c38.2729,56.7019,40.0723,129.413,23.2194,193.0025-17.2626,65.1781-46.9724,124.573-88.9932,175.5166C892.6387,701.8416,852.4174,744.1975,808.3614,782.3834Z" transform="translate(816.2706 560.9527)"/><path class="cls-14" d="M962.9173,283.7812c-23.2194-21.6184-51.713-38.9058-77.8364-52.6934C811.4888,192.244,726.02,189.762,644.92,195.5079c-57.4962,4.0457-111.6913,28.9777-158.5148,61.5915-36.2624,25.2919-70.4647,54.5054-96.737,90.3334-29.9208,40.78-35.5551,82.9991-52.6438,128.5691-14.5819,38.8934-39.576,86.5607-43.5968,128.0478a87.5422,87.5422,0,0,0-.41,8.96c.211,45.98,43.7582,80.6659,68.5909,115.7742,25.54,36.0639,54.6046,70.924,94.317,92.257C524.5787,857.85,626.4039,883.2282,697.8119,845.08c31.0253-16.5676,50.5837-45.9176,76.2975-68.777,63.3786-56.4289,121.1726-118.852,171.533-187.3063,32.8248-44.6144,48.6478-96.9107,59.1715-150.9445C1016.3554,378.8429,1008.9217,326.6086,962.9173,283.7812Z" transform="translate(816.2706 560.9527)"/><path class="cls-18" d="M959.579,330.89q-4.0581-6.9372-8.9974-13.8249c-36.56-50.7823-99.3556-79.065-161.9027-88.0623q-187.07-26.8308-330.3579,88.8938c-16.2325,13.13-31.7948,27.4016-43.1873,44.6765-32.9613,50.1-43.7333,119.3856-61.2813,175.9882C339.2581,585.72,344.16,646.6041,370.1842,690.2878c12.15,20.3775,30.0822,36.8457,47.7418,52.9913,57.7568,52.78,114.831,99.4921,198.2644,96.4889,81.3857-2.8916,135.0347-54.3193,187.0084-108.0924A823.4123,823.4123,0,0,0,946.4615,530.5072C977.2014,469.3749,996.9335,394.9513,959.579,330.89Z" transform="translate(816.2706 560.9527)"/><path class="cls-21" d="M443.4164,401.5659c-48.8463,126.8192-110.45,197.8424-19.5087,297.8433C492.0766,774.28,532.2234,838.44,664.2052,800.2416c108.626-31.4349,234.03-192.1462,272.3033-290.0994,37.95-96.9977,13.2417-162.9948-61.2688-219.97-88.0624-67.3747-213.1442-52.9169-306.8407-5.3736-39.9731,20.2781-107.8318,49.3551-124.9826,116.767" transform="translate(816.2706 560.9527)"/><path class="cls-21" d="M154.0864-158.9629c27.7367-6.838,63.49-12.05,89.502,2.3082,19.335,10.6728,31.7823,29.9457,48.3251,44.0436,19.9679,17.0019,40.2585,33.8176,61.0082,49.8764,29.1266,22.5368,60.3629,44.7882,77.7123,77.29,23.3683,43.7706,16.63,98.4124-3.5865,143.7591-23.8648,53.5746-64.5328,97.8788-107.7077,137.5292C268.3838,342.6053,212.079,384.8,148.1544,411.1589c-35.1207,14.47-73.8279,24.0757-110.9963,16.4186-31.559-6.5649-59.6307-25.1429-82.4406-47.94-26.26-26.2227-46.7738-58.9979-54.6046-95.2975-7.7688-35.9025-2.8916-73.5177,7.0118-108.9114s24.7334-69.1741,37.33-103.6991c10.4245-28.5434,20.514-57.2852,33.0109-85.0467C-16.33-27.08-8.6353-39.627-1.7973-53.03,5.2641-66.8176,10.7866-81.4864,19.908-94.12c20.3154-28.109,53.55-40.9535,85.27-51.3408C121.2492-150.6357,137.643-154.9421,154.0864-158.9629Z" transform="translate(816.2706 560.9527)"/><path class="cls-21" d="M1389.33,481.4c61.0207,19.1116,117.8964,82.7136,131.1628,141.8107,8.9725,39.9234,3.8844,79.3132-5.8328,115.9231-9.1338,34.4381-22.2638,67.1264-35.3689,99.7527l-56.2551,139.9988c-13.5147,33.6314-33.6191,54.8653-54.2447,82.6019-40.4447,54.4061-102.4582,86.7221-179.8726,75.4785-73.6542-10.648-234.4524-153.3646-247.148-237.7039-11.1691-74.3615,43.4355-143.8087,107.5587-195.5714,13.5023-10.9085,29.0894-17.4983,43.4355-26.5329,15.4879-9.7543,26.8555-26.7686,39.0175-40.1343l79.71-87.5536c29.9581-32.9117,62.9939-67.4367,110.45-73.6169A156.8378,156.8378,0,0,1,1389.33,481.4Z" transform="translate(816.2706 560.9527)"/><path class="cls-21" d="M610.3328-345.6239C549.7589-226.6478,489.3712-172.2294,563.6955-68.5675,619.38,9.12,644.138,83.8415,773.0173,56.9487c106.0571-22.1273,242.7672-168.0333,290.025-259.8932,46.8979-90.9663,31.1371-156.69-32.6386-217.5-75.3544-71.9044-194.9882-67.4615-288.8212-28.6178-40.0351,16.5675-107.36,39.5387-131.25,103.4385" transform="translate(816.2706 560.9527)"/><path class="cls-21" d="M1455.8853,180.02q-5.2371,9.804-11.1071,19.26-8.2278,13.2665-17.4859,25.8875-9.5433,12.9934-20.08,25.3043t-21.9907,23.5793a310.9458,310.9458,0,0,1-23.2815,20.8118,224.8837,224.8837,0,0,1-23.9019,16.89,147.5319,147.5319,0,0,1-23.8771,11.8641,91.7485,91.7485,0,0,1-23.1946,5.7335,26.1443,26.1443,0,0,1-2.966-.0869,34.4878,34.4878,0,0,0-4.6166.67,76.1919,76.1919,0,0,1-9.6675.6454,77.2414,77.2414,0,0,1-19.0123-2.2835c-17.97-4.4925-33.7432-15.2645-51.3283-21.0972-11.07-3.6486-22.661-5.2619-34.1279-7.0986a194.6777,194.6777,0,0,1-32.2664-8.1287c-23.3559-7.7935-45.6693-17.8209-68.64-26.6073-20.6381-9.6923-40.1469-22.6113-55.1135-40.0351a111.9157,111.9157,0,0,1-24.82-50.5838c-3.8471-19.0743-2.7426-38.8437,1.39-57.7816,4.7034-21.5564,13.2044-42.1945,23.5792-61.6163A396.1484,396.1484,0,0,1,1055.05-6.7029a553.9448,553.9448,0,0,1,55.7463-59.2212A640.4869,640.4869,0,0,1,1176.57-118.903a601.6045,601.6045,0,0,1,71.7182-43.3735,470.2024,470.2024,0,0,1,73.6293-30.43c23.2194-7.2351,47.1586-12.41,71.4825-14.1227,21.8666-1.5265,44.0808-.1986,65.29,5.5473a142.7164,142.7164,0,0,1,55.0266,28.5433c17.4983,14.8922,30.8889,33.9169,40.5688,54.6046C1608.2942-2.5207,1511.3214,75.961,1455.8853,180.02Z" transform="translate(816.2706 560.9527)"/><path class="cls-3" d="M2034.3716,490.77c-23.4055,12.286-47.3819,23.5792-71.47,34.4009-44.0064,19.8562-86.35,43.4355-131.2373,61.244-38.6079,15.3638-89.1668,35.8529-131.2123,30.1194l-1.8988-.273c-33.5819-5.2371-63.54-25.9124-87.5039-49.0573-6.0934-5.8824-11.2932-12.8072-17.3742-18.6152-5.6963-5.3487-12.8569-9.2952-18.69-14.83a107.5125,107.5125,0,0,1-14.222-16.369c-3.8347-5.4977-9.2207-8.5009-14.5323-12.559a186.3376,186.3376,0,0,1-32.9613-32.465c-4.9641-6.2795-8.4017-11.802-9.9281-19.6328a101.7653,101.7653,0,0,0-2.482-10.6852c-6.354-20.8366-9.5062-41.636-7.2724-63.453,4.9641-48.7719,8.9105-103.9473,22.4872-151.0562,12.77-44.2794,39.9234-82.7509,65.8482-120.85,43.299-63.6516,86.1264-129.5991,146.44-178.88,53.3636-43.6588,123.22-68.7893,192.7915-61.84,84.6744,8.4513,145.6206,64.6941,192.531,131.7212,25.23,35.9894,48.1389,73.48,74.647,108.626,33.9417,44.9991,74.2251,93.56,64.2722,154.953-11.3429,69.9435-69.4968,126.0746-122.2772,168.17C2100.4928,453.2789,2068.0279,473.0855,2034.3716,490.77Z" transform="translate(816.2706 560.9527)"/><path class="cls-14" d="M2000.5912-70.2552a202.8192,202.8192,0,0,0-100.2864-28.5434c-152.7316-3.4127-254.2838,159.309-324.7609,270.0075-66.1336,103.8728-93.8827,260.4392,27.687,340.1867,57.9057,37.9751,111.6913,63.2917,181.5479,47.99,114.7318-25.1057,237.0337-78.7423,332.9144-144.665,30.3553-20.8614,47.1585-53.2395,67.1265-82.8873s45.2846-52.5942,43.6093-91.5248c-1.4148-33.4205-20.7373-63.6764-41.661-90.2589C2127.82,75.0054,2086.4445-19.746,2000.5912-70.2552Z" transform="translate(816.2706 560.9527)"/><path class="cls-18" d="M2035.1658-9.8055c-59.7549-57.4589-148.0405-69.6084-224.003-36.8953-57.4962,24.82-103.1159,74.1382-141.4012,122.7487-58.5882,74.3864-129.4749,162.9824-127.5638,262.4248,2.1222,110.624,86.325,209.7314,199.3689,206.2814,71.1845-2.1966,142.8035-33.7432,207.3362-62.82,65.5131-29.5238,135.5559-67.7346,186.028-120.4777,79.1643-82.7136,52.5817-172.2527-8.501-253.8122C2095.1813,65.9212,2069.4054,23.069,2035.1658-9.8055Z" transform="translate(816.2706 560.9527)"/><path class="cls-21" d="M1910.32-25.9883c27.836-1.5264,62.9566-.0993,84.6744,18.02,16.1332,13.4651,23.9391,33.8177,36.7092,50.0253,15.401,19.546,31.1618,38.9678,47.5184,57.7568,22.9712,26.384,48.0024,52.8548,57.6575,86.5235,13.0058,45.3591-4.964,95.5581-33.7059,134.7121-34.0161,46.2029-82.0186,80.6659-131.5475,110.3758-58.3276,35.009-120.8126,64.7561-187.207,78.1839-36.4485,7.446-75.3171,9.593-109.0727-4.2071-28.6674-11.7152-51.4525-34.19-68.3551-59.6679-19.4715-29.3376-32.0678-63.8254-31.8816-99.38.2358-35.1331,12.7825-69.72,29.6975-101.242s38.1116-60.7352,57.3721-91.0035c15.947-25.0561,31.5962-50.2983,49.33-74.2251,8.7864-11.8517,18.7765-22.3382,28.109-33.6563,9.6178-11.7276,17.97-24.56,29.3127-34.8352,25.2546-22.8595,59.5687-29.1018,91.9467-33.222C1877.3089-23.9282,1893.8268-25.0823,1910.32-25.9883Z" transform="translate(816.2706 560.9527)"/></g><line class="cls-37" x1="1882.7008" y1="919.7781" x2="1893.6963" y2="919.5546"/><line class="cls-37" x1="1882.217" y1="915.1987" x2="1893.9818" y2="914.9381"/><line class="cls-37" x1="1883.3834" y1="917.4077" x2="1892.6289" y2="917.2216"/><circle class="cls-38" cx="1872.5494" cy="918.0034" r="10.8465"/><circle class="cls-38" cx="1903.4755" cy="917.3457" r="10.8465"/><path class="cls-2" d="M1059.6419,352.9926l.1986,9.5062h-1.0424l-5.0758-5.535.1241,5.5225h-1.9732l-.1986-9.4813h1.0425l5.0882,5.6838-.1241-5.6962Z" transform="translate(816.2706 560.9527)"/><path class="cls-2" d="M1091.0148,351.5406l.1985,9.5062h-1.0424l-5.0633-5.5349.1737,5.51h-1.9608l-.211-9.4813h1.0549l5.0137,5.7583-.1738-5.7087Z" transform="translate(816.2706 560.9527)"/><circle class="cls-39" cx="2013.6526" cy="962.8536" r="10.8465"/><g class="cls-6"><path class="cls-2" d="M1193.021,401.9352a4.0821,4.0821,0,1,1,4.208,3.962A3.985,3.985,0,0,1,1193.021,401.9352Zm6.458-.2031a2.38,2.38,0,1,0-2.3018,2.5195A2.3715,2.3715,0,0,0,1199.479,401.7321Z" transform="translate(816.2706 560.9527)"/></g><text class="cls-40" transform="matrix(0.9995, -0.0314, 0.0314, 0.9995, 2017.997, 962.8049)">-</text><circle class="cls-41" cx="2044.5664" cy="961.8857" r="10.8465"/><g class="cls-6"><path class="cls-2" d="M1223.9468,400.9675a4.0821,4.0821,0,1,1,4.208,3.9619A3.9849,3.9849,0,0,1,1223.9468,400.9675Zm6.458-.2032a2.38,2.38,0,1,0-2.3008,2.52A2.371,2.371,0,0,0,1230.4048,400.7643Z" transform="translate(816.2706 560.9527)"/></g><text class="cls-40" transform="matrix(0.9995, -0.0314, 0.0314, 0.9995, 2048.9233, 961.8369)">-</text><line class="cls-42" x1="2024.462" y1="961.7119" x2="2033.7075" y2="961.4141"/><line class="cls-42" x1="2024.5239" y1="963.7348" x2="2033.7696" y2="963.4369"/><circle class="cls-39" cx="1874.262" cy="978.3911" r="9.9778"/><circle class="cls-43" cx="1901.8249" cy="971.2305" r="9.9778"/><g class="cls-6"><path class="cls-2" d="M1081.5659,411.2087a3.6463,3.6463,0,0,1,2.7041-4.5811,3.7832,3.7832,0,0,1,1.6875-.07l.4278,1.6172a2.511,2.511,0,0,0-1.6993-.0986,2.255,2.255,0,0,0,1.125,4.3672,2.46,2.46,0,0,0,1.4405-.9073l.41,1.6328a3.96,3.96,0,0,1-1.5137.7442A3.648,3.648,0,0,1,1081.5659,411.2087Z" transform="translate(816.2706 560.9527)"/></g><text class="cls-44" transform="matrix(0.9659, -0.2587, 0.2587, 0.9659, 1903.4629, 970.8807)">+</text><g class="cls-6"><path class="cls-2" d="M1054.1636,418.3317a3.7616,3.7616,0,1,1,4.584,2.7129A3.6736,3.6736,0,0,1,1054.1636,418.3317Zm5.7656-1.4863a2.1933,2.1933,0,1,0-1.56,2.7305A2.1835,2.1835,0,0,0,1059.9292,416.8454Z" transform="translate(816.2706 560.9527)"/></g><g class="cls-6"><path class="cls-2" d="M1061.5806,414.3024l1.8818-.5039.19.709-1.8809.5039Z" transform="translate(816.2706 560.9527)"/></g><circle class="cls-39" cx="1929.3755" cy="964.0699" r="9.9778"/><g class="cls-6"><path class="cls-2" d="M1109.2769,404.01a3.7616,3.7616,0,1,1,4.5839,2.7119A3.6742,3.6742,0,0,1,1109.2769,404.01Zm5.7656-1.4863a2.1933,2.1933,0,1,0-1.56,2.7305A2.1841,2.1841,0,0,0,1115.0425,402.5241Z" transform="translate(816.2706 560.9527)"/></g><text class="cls-44" transform="matrix(0.9659, -0.2587, 0.2587, 0.9659, 1933.3341, 963.1262)">-</text><line class="cls-42" x1="1883.7434" y1="975.1645" x2="1891.9713" y2="973.0175"/><line class="cls-42" x1="1911.2938" y1="968.0039" x2="1919.5342" y2="965.8693"/><line class="cls-42" x1="1884.2026" y1="976.964" x2="1892.4429" y2="974.817"/><line class="cls-42" x1="1911.7654" y1="969.8034" x2="1919.9934" y2="967.6688"/><line class="cls-37" x1="1893.2494" y1="1090.6285" x2="1903.8726" y2="1093.4332"/><line class="cls-37" x1="1894.0437" y1="1086.074" x2="1905.4363" y2="1089.0896"/><line class="cls-37" x1="1894.565" y1="1088.5311" x2="1903.5002" y2="1090.9014"/><circle class="cls-38" cx="1883.9791" cy="1086.1112" r="10.8465"/><circle class="cls-38" cx="1913.8875" cy="1094.0164" r="10.8465"/><path class="cls-2" d="M1072.0521,522.1924l-2.482,9.1835-1.0177-.2606-3.3383-6.7263-1.3527,5.4109-1.8988-.5089,2.42-9.1587,1.0052.2607,3.3259,6.8752,1.452-5.51Z" transform="translate(816.2706 560.9527)"/><path class="cls-2" d="M1102.6555,529.4524l-2.42,9.1835-1.0176-.2607-3.3384-6.7262-1.4147,5.3487-1.8988-.5088,2.42-9.1587,1.0052.2606,3.3135,6.8752,1.4644-5.51Z" transform="translate(816.2706 560.9527)"/><circle class="cls-39" cx="1840.7546" cy="1138.5316" r="10.8465"/><g class="cls-6"><path class="cls-2" d="M1020.3374,578.9059a4.0818,4.0818,0,1,1,5.1982,2.5293A3.9855,3.9855,0,0,1,1020.3374,578.9059Zm6.1045-2.1171a2.38,2.38,0,1,0-1.4453,3.0908A2.37,2.37,0,0,0,1026.4419,576.7888Z" transform="translate(816.2706 560.9527)"/></g><text class="cls-45" transform="translate(1844.8987 1137.1782) rotate(-19.0577)">-</text><circle class="cls-39" cx="1869.9804" cy="1128.3925" r="10.8465"/><g class="cls-6"><path class="cls-2" d="M1049.564,568.7663a4.0813,4.0813,0,1,1,5.1972,2.5293A3.984,3.984,0,0,1,1049.564,568.7663Zm6.1035-2.1172a2.38,2.38,0,1,0-1.4453,3.0908A2.371,2.371,0,0,0,1055.6675,566.6491Z" transform="translate(816.2706 560.9527)"/></g><text class="cls-45" transform="translate(1874.1245 1127.0511) rotate(-19.0577)">-</text><line class="cls-42" x1="1850.7324" y1="1134.2129" x2="1859.4691" y2="1131.1848"/><line class="cls-42" x1="1851.4025" y1="1136.124" x2="1860.1393" y2="1133.0959"/><path class="cls-46" d="M1101.129,448.8609a6.5773,6.5773,0,0,1-6.9124,6.9125,9.9894,9.9894,0,0,1-5.5473-1.6754v-1.3775a8.935,8.935,0,0,0,5.386,1.9235,5.5723,5.5723,0,0,0,5.9072-5.9816V445.957a6.6767,6.6767,0,0,1-6.019,3.86c-4.1325,0-7.0613-3.4252-7.0862-7.57s2.8172-7.6694,6.9621-7.7067a6.6768,6.6768,0,0,1,6.0438,3.723l-.0621-3.5741h1.241Zm-1.241-6.7263a6.2051,6.2051,0,0,0-5.9627-6.4383l-.081-.0025c-3.4624,0-5.8452,3.028-5.8079,6.54s2.482,6.4533,5.92,6.416a6.2049,6.2049,0,0,0,5.9344-6.4644Z" transform="translate(816.2706 560.9527)"/><path class="cls-46" d="M1119.3844,434.5024l.1365,14.8922h-1.241V445.82a6.64,6.64,0,0,1-5.9817,3.8348c-4.145,0-7.0614-3.4252-7.0986-7.5578s2.83-7.6819,6.962-7.7191a6.6643,6.6643,0,0,1,6.0562,3.723V434.49Zm-1.117,7.4461a6.2049,6.2049,0,0,0-5.9627-6.4383l-.081-.0026c-3.4624,0-5.8452,3.0281-5.82,6.54s2.482,6.4408,5.932,6.416a6.2051,6.2051,0,0,0,5.9326-6.4661l-.0006-.012Z" transform="translate(816.2706 560.9527)"/><path class="cls-46" d="M1123.5169,447.21l.8812-.8439a4.6662,4.6662,0,0,0,3.723,1.998,2.9411,2.9411,0,0,0,3.2372-2.6118q.01-.0961.0143-.1929c0-4.2194-7.62-2.8543-7.595-7.7067a3.7975,3.7975,0,0,1,3.9474-3.6414c.0328.0013.0655.0031.0983.0053a5.8823,5.8823,0,0,1,4.3683,2.0725l-.7694.819a4.7163,4.7163,0,0,0-3.5617-1.725,2.693,2.693,0,0,0-2.9252,2.4388l-.0036.0433c0,3.8719,7.595,2.482,7.57,7.7439a4.083,4.083,0,0,1-4.1786,3.985q-.1262-.003-.2518-.0138A5.7955,5.7955,0,0,1,1123.5169,447.21Z" transform="translate(816.2706 560.9527)"/><path class="cls-46" d="M1085.8522,477.9751c0,4.17-2.83,7.6819-6.9621,7.7067a6.6021,6.6021,0,0,1-6.0189-3.661l.0744,9.469h-1.241l-.1737-20.8491h1.241v3.5369a6.6518,6.6518,0,0,1,5.9568-3.723C1082.8985,470.3677,1085.8149,473.83,1085.8522,477.9751Zm-1.241,0c0-3.5245-2.4821-6.4408-5.92-6.416a6.0932,6.0932,0,0,0-5.82,5.87v1.3154a6.205,6.205,0,0,0,6.0065,5.7832c3.4252-.0249,5.8079-3.0281,5.7831-6.54Z" transform="translate(816.2706 560.9527)"/><path class="cls-46" d="M1101.9605,476.9451l.0621,8.34h-1.241l-.0621-8.0418c0-3.934-1.936-5.9444-4.79-5.92s-4.84,2.06-4.8027,5.9941l.062,8.0417h-1.241l-.1985-23.8274h1.241l.0992,11.6779a5.6468,5.6468,0,0,1,4.9641-3.0156C1099.2427,470.2312,1101.9109,472.3285,1101.9605,476.9451Z" transform="translate(816.2706 560.9527)"/><path class="cls-46" d="M1119.4092,470.2312l.1241,14.8921h-1.241v-3.5741a6.6642,6.6642,0,0,1-5.9817,3.8348c-4.145,0-7.0614-3.4377-7.0986-7.57s2.83-7.6819,6.9621-7.7191a6.6641,6.6641,0,0,1,6.0561,3.723v-3.5989Zm-1.1293,7.4461a6.2051,6.2051,0,0,0-5.9628-6.4383l-.081-.0026c-3.45,0-5.8327,3.0281-5.8079,6.54a6.0934,6.0934,0,0,0,5.76,6.41q.08.0042.16.0064a6.205,6.205,0,0,0,5.9344-6.4644Z" transform="translate(816.2706 560.9527)"/><path class="cls-46" d="M1123.5418,482.9516l.8811-.8439a4.6662,4.6662,0,0,0,3.723,1.998,2.9412,2.9412,0,0,0,3.2377-2.6112q.01-.09.0138-.1811c0-4.2318-7.62-2.8543-7.6074-7.7191a3.8222,3.8222,0,0,1,3.9967-3.6395l.0614.0034a5.895,5.895,0,0,1,4.3684,2.0849l-.77.8066a4.7654,4.7654,0,0,0-3.5617-1.725,2.6806,2.6806,0,0,0-2.9231,2.4138c-.0022.0227-.0041.0455-.0057.0682-.062,3.872,7.5826,2.4821,7.57,7.744a4.0829,4.0829,0,0,1-4.1786,3.985q-.126-.003-.2518-.0138A5.7706,5.7706,0,0,1,1123.5418,482.9516Z" transform="translate(816.2706 560.9527)"/><path class="cls-46" d="M1136.5724,477.8634a6.1058,6.1058,0,0,0,6.0926,6.119q.0563,0,.1125-.0008a6.8505,6.8505,0,0,0,5.1626-2.3455v1.5513a7.7694,7.7694,0,0,1-5.175,1.9608,7.6571,7.6571,0,0,1-.3972-15.2893c4.3188,0,6.9125,3.723,6.95,7.9052Zm11.5166-1.241c-.4095-3.0653-2.482-5.6094-5.6466-5.5846a5.9073,5.9073,0,0,0-5.82,5.6839Z" transform="translate(816.2706 560.9527)"/></g></g></g><g id="Layer_3" data-name="Layer 3"><g id="Layer_2-6" data-name="Layer 2"><g id="Layer_11-3" data-name="Layer 11"><path class="cls-47" d="M437.6469,251.8586a194.5277,194.5277,0,0,1,82.7248,177.8079L580.98,507.9433l-97.461,18.7653c-63.5472,86.6677-185.32,105.4106-271.9882,41.8634S106.12,383.2516,169.6673,296.5839A194.5894,194.5894,0,0,1,437.6469,251.8586Z" transform="translate(816.2706 560.9527)"/><g class="cls-48"><path class="cls-3" d="M468.1543,748.3678c3.6964-11.5943,11.4834-21.747,19.332-30.8894,4.1277-4.7929,8.4278-9.438,12.6663-14.1448,5.1256-5.68,10.0295-11.5573,15.1181-17.25,8.44-9.4751,17.1759-18.6914,25.8747-27.9323a9.6354,9.6354,0,0,1-2.7477-8.3415,16.4734,16.4734,0,0,1,3.1912-6.8629,64.2639,64.2639,0,0,1,7.59-8.3661c3.5485-3.4746,7.171-6.8876,10.9906-10.0665,8.7111-7.2449,18.1-13.64,27.0451-20.5888,1.7373-3.5978,3.3268-7.2572,5.0517-10.855,8.1814-17.0526,22.0428-30.6676,34.9554-44.2087s26.3921-27.1806,38.2575-41.9538a9.13,9.13,0,0,1,7.3927-3.413l2.6737-3.3391q6.5426-9.4626,13.2084-18.8391L158.5337,56.4559l-219.5153,274L466.8113,753.2717C467.1809,751.633,467.6245,749.9942,468.1543,748.3678Z" transform="translate(816.2706 560.9527)"/><path class="cls-3" d="M428.3936,786.268l1.2322,1.2321a5.7158,5.7158,0,0,1,.8132-.2711l1.3307-.32C430.6607,786.6746,429.5272,786.4528,428.3936,786.268Z" transform="translate(816.2706 560.9527)"/><path class="cls-3" d="M468.08,750.6472a71.5477,71.5477,0,0,1,9.857-18.8391c-33.0087-123.0646-110.4723-229.52-249.0617-285.4833-73.1636-29.571-143.9614-39.2062-206.1468-24.3591l.9364.5175c8.6249,4.756,17.336,9.4873,25.2956,15.3153S64.806,450.3538,72.593,456.7239q11.3664,9.2409,22.4493,18.8885c7.3681,6.4317,14.7855,13.3193,21.9565,20.33,6.3454,6.2592,12.506,12.4938,19.5292,18.026,13.3685,10.4115,28.8933,20.0837,37.666,35.054a10.214,10.214,0,0,1,1.0719,8.8466l15.648,12.5431q63.5037,50.862,126.9089,101.8843Q333.3106,684.79,349.02,697.0252c10.4114,8.07,21.2172,15.648,31.5054,23.8909,5.1133,4.0907,10.1034,8.3292,15.2168,12.4321,2.723,2.1809,5.4583,4.3248,8.2675,6.3824,1.2321.9241,2.5382,1.8236,3.82,2.7107l2.1439,1.4539c.0986.0616,1.01.6284.8625.5545,8.9329,5.2981,18.6667,9.0068,27.5257,14.3912a36.1129,36.1129,0,0,1,13.96,6.1606,7.1118,7.1118,0,0,1,1.01.9118,61.312,61.312,0,0,1,8.3661,4.4849,7.91,7.91,0,0,1,3.3391,5.828h.961A55.9014,55.9014,0,0,1,468.08,750.6472Z" transform="translate(816.2706 560.9527)"/><path class="cls-3" d="M376.1885,242.4944c5.2-9.9556,9.857-20.5888,14.3912-31.3945-7.7623-7.3928-15.4138-14.7855-23.1023-22.3384-2.9571-2.8832-5.9142-5.7541-8.9082-8.6249-6.7767-3.82-13.5534-7.5776-20.3671-11.36-14.3912-8.0211-28.7331-16.1532-42.6438-24.9875-27.0821-17.1388-52.7966-37.6537-70.5761-64.7605a10.5892,10.5892,0,0,1-.6161-1.0842c-1.8851-1.38-3.77-2.7477-5.68-4.0907a9.7828,9.7828,0,0,1-8.2922-1.725c-3.8689-3.08-7.8363-6.025-11.68-9.093l-1.4416-1.0966c-2.2548-1.6264-4.5342-3.2036-6.8753-4.7067l-1.651-1.035L188.4127,56c-1.2321-.7269-2.5874-1.4416-3.8935-2.1315-4.6574-2.4643-6.8136-7.2573-4.9285-12.3213a8.8469,8.8469,0,0,1,4.1276-4.411,10.2631,10.2631,0,0,1,1.9591-5.4706,5.8775,5.8775,0,0,1,.4189-.5175,104.2171,104.2171,0,0,0-9.6722-6.4933c-8.2921,10.14-16.3133,20.6257-24.9628,30.31-.5668.7146-2.6737.1971-3.24.9117-34.7336,41.7321-68.962,84.4868-102.1678,127.5-.5667.7146.6777,2.2917.0986,3.0064-22.93,30.187-46.3279,59.4007-70.7855,88.3679l-1.5279-1.2321a69,69,0,0,0-12.5676,15.685l1.54,1.2321c-1.2321,3.1049-4.2878,5.3474-5.52,8.4524l1.5278,1.2321c-1.4292,4.1276-4.8545,6.062-7.134,11.2493-5.89,12.7278-15.6972,23.0161-24.741,33.7972h0a9.45,9.45,0,0,1,6.7766,7.8979q.111.7763.1849,1.5525a11.36,11.36,0,0,1,2.649,1.4292,28.6852,28.6852,0,0,1,8.9576,10.8181,17.0237,17.0237,0,0,1,1.7.8748c19.2827,11.7052,35.7316,27.1067,53.9178,40.4506,3.82,2.797,7.6761,5.5569,11.6805,8.0581l1.3923.8625.727.4313,2.8831,1.6633q2.9079,1.6388,5.84,3.2529c8.6249,4.756,17.336,9.4873,25.2955,15.3153s15.8451,12.5553,23.6322,18.9254q8.1813,6.69,16.2517,13.5534c49.556-5.6925,96.7711-24.8643,136.4455-52.5255C290.3957,372.3357,343.1183,305.9365,376.1885,242.4944Z" transform="translate(816.2706 560.9527)"/><path class="cls-3" d="M720.1607,452.892c1.6018-2.1316,3.3021-4.2015,5.0394-6.2715-1.614-1.6018-2.4642-4.2755-4.2631-6.2962a39.6063,39.6063,0,0,0-3.8442-3.2158,9.3029,9.3029,0,0,1-1.8605,7.0724c-2.9818,4.0907-9.3272,4.51-13.1468,1.4539-21.057-16.8062-43.839-31.2467-65.5367-47.19A584.03,584.03,0,0,1,582.9267,353.46c-8.5016-7.9719-16.991-16.0177-25.8007-23.6075-.961-.8256-1.91-1.6388-2.8832-2.4643-20.8229-10.5347-41.35-21.1433-60.14-35.1155-22.4369-16.6707-45.5886-32.3063-67.5574-49.63-14.0955-11.0891-27.2792-23.2132-40.2042-35.5961.382.37-.69,4.5465-.8009,5.2119a10.066,10.066,0,0,1-.9857,4.1892c-1.996,3.1666-4.7313,5.6555-6.4193,9.0931a16.7813,16.7813,0,0,0-1.4909,12.1118c1.0843,3.5608,3.6964,6.5918,3.6964,10.4361,0,3.339-.8625,6.8013-1.3184,10.1034q-1.146,8.3044-2.2795,16.5967c-.9857,7.22-1.9467,14.44-2.9447,21.6608-4.0414,29.09-7.6269,49.2849-5.6432,79.0284,3.5732,53.351,17.4346,105.0263,15.66,158.18-1.7249,49.4944-15.7711,99.0628,9.3642,147.436,15.7712,30.4089,42.5576,55.4456,73.04,77.1064a57.8273,57.8273,0,0,1,1.8851-7.5529c3.6964-11.5943,11.4834-21.747,19.332-30.8894,4.1277-4.793,8.4278-9.4381,12.6663-14.1325,5.1256-5.6924,10.0295-11.57,15.1181-17.25,8.44-9.475,17.1759-18.6913,25.8747-27.9323a9.6229,9.6229,0,0,1-2.7477-8.3415,16.5476,16.5476,0,0,1,3.1912-6.8629,64.2639,64.2639,0,0,1,7.59-8.3661c3.5485-3.4746,7.171-6.8876,10.9906-10.0542,8.7234-7.2572,18.1-13.64,27.0451-20.5888,1.7373-3.5978,3.3268-7.2695,5.0517-10.8673,8.1814-17.0526,22.0427-30.6553,34.9554-44.2087s26.3921-27.1806,38.2575-41.8922a9.1423,9.1423,0,0,1,7.7993-3.4006c11.7175-16.991,23.5582-33.8835,36.4462-50.012A9.3025,9.3025,0,0,1,720.1607,452.892Z" transform="translate(816.2706 560.9527)"/><path class="cls-14" d="M720.1607,452.892c1.6018-2.1316,3.3021-4.2015,5.0394-6.2715-1.614-1.6018-2.4642-4.2755-4.2631-6.2962a39.6063,39.6063,0,0,0-3.8442-3.2158,9.3029,9.3029,0,0,1-1.8605,7.0724c-2.9818,4.0907-9.3272,4.51-13.1468,1.4539-21.057-16.8062-43.839-31.2467-65.5367-47.19A584.03,584.03,0,0,1,582.9267,353.46c-8.5016-7.9719-16.991-16.0177-25.8007-23.6075-.961-.8256-1.91-1.6388-2.8832-2.4643-20.8229-10.5347-41.35-21.1433-60.14-35.1155-22.4369-16.6707-45.5886-32.3063-67.5574-49.63-6.5795-5.2-12.9742-10.6086-19.2211-16.1532-16.0176,119.627-12.05,253.177,12.58,371.7321,10.5223,50.6649,34.598,88.6144,67.5327,121.5,4.1153-4.793,8.4031-9.4258,12.6417-14.1079,5.1256-5.6924,10.0295-11.57,15.1181-17.25,8.44-9.475,17.1758-18.6913,25.8746-27.9323a9.6228,9.6228,0,0,1-2.7476-8.3414,16.5462,16.5462,0,0,1,3.1912-6.863,64.2568,64.2568,0,0,1,7.59-8.3661c3.5485-3.4746,7.1709-6.8876,10.99-10.0542,8.7235-7.2572,18.1-13.64,27.0452-20.5888,1.7373-3.5978,3.3267-7.2695,5.0517-10.8673,8.1813-17.0526,22.0427-30.6553,34.9554-44.2086s26.3921-27.1807,38.2574-41.8923a9.1426,9.1426,0,0,1,7.7994-3.4006c11.7175-16.991,23.5582-33.8835,36.4462-50.012A9.3024,9.3024,0,0,1,720.1607,452.892Z" transform="translate(816.2706 560.9527)"/><path class="cls-18" d="M720.1607,452.892c1.6018-2.1316,3.3021-4.2015,5.0394-6.2715-1.614-1.6018-2.4642-4.2755-4.2631-6.2962a39.6063,39.6063,0,0,0-3.8442-3.2158,9.3029,9.3029,0,0,1-1.8605,7.0724c-2.9818,4.0907-9.3272,4.51-13.1468,1.4539-21.057-16.8062-43.839-31.2467-65.5367-47.19A584.03,584.03,0,0,1,582.9267,353.46c-8.5016-7.9719-16.991-16.0177-25.8007-23.6075-.961-.8256-1.91-1.6388-2.8832-2.4643-20.8229-10.5347-41.35-21.1433-60.14-35.1155-19.9111-14.7855-40.4013-28.77-60.0907-43.839-7.0847,46.0691-9.3395,93.4073-9.512,138.3183-.308,82.5523.1109,173.9513,32.1831,253.0291a229.4108,229.4108,0,0,0,42.0647,67.2986l1.3307-1.4662c5.1257-5.6924,10.0295-11.57,15.1182-17.25,8.44-9.475,17.1758-18.6913,25.8746-27.9323a9.6226,9.6226,0,0,1-2.7477-8.3414,16.5487,16.5487,0,0,1,3.1912-6.863,64.2711,64.2711,0,0,1,7.59-8.3661c3.5486-3.4746,7.171-6.8876,10.9906-10.0541,8.7234-7.2573,18.1-13.64,27.0451-20.5888,1.7373-3.5979,3.3268-7.27,5.0518-10.8674,8.1813-17.0526,22.0427-30.6553,34.9553-44.2086s26.3922-27.1807,38.2575-41.8923a9.1425,9.1425,0,0,1,7.7993-3.4006c11.7175-16.991,23.5582-33.8834,36.4463-50.012A9.3025,9.3025,0,0,1,720.1607,452.892Z" transform="translate(816.2706 560.9527)"/><path class="cls-21" d="M720.1607,452.892c1.6018-2.1316,3.3021-4.2015,5.0394-6.2715-1.614-1.6018-2.4642-4.2755-4.2631-6.2962a39.6063,39.6063,0,0,0-3.8442-3.2158,9.3029,9.3029,0,0,1-1.8605,7.0724c-2.9818,4.0907-9.3272,4.51-13.1468,1.4539-21.057-16.8062-43.839-31.2467-65.5367-47.19A584.03,584.03,0,0,1,582.9267,353.46c-8.5016-7.9719-16.991-16.0177-25.8007-23.6075-.961-.8256-1.91-1.6388-2.8832-2.4643-20.8229-10.5347-41.35-21.1433-60.14-35.1155-9.98-7.3928-20.1082-14.6254-30.2116-21.87-5.0025,23.6445-8.5387,47.7695-11.2493,71.8452-8.8221,78.3508-9.66,159.08,9.7091,237.4551,9.66,39.0707,25.1477,78.5356,52.5255,108.9814l.32-.37c8.44-9.4751,17.1759-18.6914,25.8747-27.9323a9.6229,9.6229,0,0,1-2.7477-8.3415,16.5483,16.5483,0,0,1,3.1912-6.8629,64.2712,64.2712,0,0,1,7.59-8.3662c3.5485-3.4746,7.171-6.8875,10.9906-10.0541,8.7234-7.2572,18.1-13.64,27.0451-20.5888,1.7373-3.5978,3.3268-7.2695,5.0517-10.8673,8.1814-17.0526,22.0427-30.6553,34.9554-44.2087S653.54,523.9117,665.4052,509.2a9.1421,9.1421,0,0,1,7.7993-3.4007c11.7175-16.991,23.5582-33.8834,36.4462-50.0119A9.3026,9.3026,0,0,1,720.1607,452.892Z" transform="translate(816.2706 560.9527)"/><path class="cls-14" d="M384.2589,205.0625c-5.6185-5.4091-11.1877-10.855-16.7815-16.301-2.9571-2.8832-5.9142-5.7541-8.9083-8.6249-6.7767-3.82-13.5533-7.5776-20.367-11.36-14.3912-8.0211-28.7331-16.1532-42.6438-24.9875-27.0821-17.1388-52.7966-37.6537-70.5761-64.7605a10.5892,10.5892,0,0,1-.6161-1.0842c-1.8851-1.38-3.77-2.7477-5.68-4.0907a9.7828,9.7828,0,0,1-8.2922-1.725c-3.8689-3.08-7.8363-6.025-11.68-9.093l-1.4416-1.0966c-2.2548-1.6264-4.5342-3.2036-6.8753-4.7067l-1.651-1.035L188.4127,56c-1.2321-.7269-2.5874-1.4416-3.8935-2.1315-4.6574-2.4643-6.8136-7.2573-4.9285-12.3213a8.8469,8.8469,0,0,1,4.1276-4.411,10.2631,10.2631,0,0,1,1.9591-5.4706,5.8775,5.8775,0,0,1,.4189-.5175,104.2171,104.2171,0,0,0-9.6722-6.4933c-8.2921,10.14-16.3133,20.6257-24.9628,30.31-.5668.7146-2.6737.1971-3.24.9117-34.7336,41.7321-68.962,84.4868-102.1678,127.5-.5667.7146.6777,2.2917.0986,3.0064-22.93,30.187-46.3279,59.4007-70.7855,88.3679l-1.5279-1.2321a69,69,0,0,0-12.5676,15.685l1.54,1.2321c-1.2321,3.1049-4.2878,5.3474-5.52,8.4524l1.5278,1.2321c-1.4292,4.1276-4.8545,6.062-7.134,11.2493-5.89,12.7278-15.6972,23.0161-24.741,33.7972h0a9.45,9.45,0,0,1,6.7766,7.8979q.111.7763.1849,1.5525a11.36,11.36,0,0,1,2.649,1.4292,28.6852,28.6852,0,0,1,8.9576,10.8181,17.0237,17.0237,0,0,1,1.7.8748c19.2827,11.7052,35.7316,27.1067,53.9178,40.4506,3.82,2.797,7.6761,5.5569,11.6805,8.0581l1.3923.8625.727.4313,2.8831,1.6633q2.9079,1.6388,5.84,3.2529c8.6249,4.756,17.336,9.4873,25.2955,15.3153,5.138,3.77,10.1281,7.7993,15.0689,11.8653,42.2126-.1109,83.4641-12.7771,116.7192-36.52A827.0276,827.0276,0,0,0,384.2589,205.0625Z" transform="translate(816.2706 560.9527)"/><path class="cls-18" d="M370.0279,191.238l-2.55-2.4642c-2.9571-2.8832-5.9142-5.754-8.9083-8.6249-6.7767-3.82-13.5533-7.5776-20.367-11.36-14.3912-8.0211-28.7331-16.1531-42.6438-24.9875-27.0821-17.1511-52.7966-37.666-70.5761-64.7728a10.5892,10.5892,0,0,1-.6161-1.0842c-1.8851-1.38-3.77-2.7477-5.68-4.0907a9.7828,9.7828,0,0,1-8.2922-1.725c-3.8689-3.08-7.8363-6.025-11.68-9.093l-1.4416-1.0966c-2.2548-1.6264-4.5342-3.2036-6.8753-4.7067l-1.651-1.035L188.4127,56c-1.2321-.7269-2.5874-1.4416-3.8935-2.1315-4.6574-2.4643-6.8136-7.2573-4.9285-12.3213a8.8469,8.8469,0,0,1,4.1276-4.411,10.2631,10.2631,0,0,1,1.9591-5.4706,5.8775,5.8775,0,0,1,.4189-.5175,104.2171,104.2171,0,0,0-9.6722-6.4933c-8.2921,10.14-16.3133,20.6257-24.9628,30.31-.5668.7146-2.6737.1971-3.24.9117-34.7336,41.7321-68.962,84.4868-102.1678,127.5-.5667.7146.6777,2.2917.0986,3.0064-22.93,30.187-46.3279,59.4007-70.7855,88.3679l-1.5279-1.2321a69,69,0,0,0-12.5676,15.685l1.54,1.2321c-1.2321,3.1049-4.2878,5.3474-5.52,8.4524l1.5278,1.2321c-1.4292,4.1276-4.8545,6.062-7.134,11.2493-5.89,12.7278-15.6972,23.0161-24.741,33.7972h0a9.45,9.45,0,0,1,6.7766,7.8979q.111.7763.1849,1.5525a11.36,11.36,0,0,1,2.649,1.4292,28.6852,28.6852,0,0,1,8.9576,10.8181,17.0237,17.0237,0,0,1,1.7.8748c19.2827,11.7052,35.7316,27.1067,53.9178,40.4506,3.82,2.797,7.6761,5.5569,11.6805,8.0581l1.3923.8625.727.4313,2.1315,1.2321a203.6717,203.6717,0,0,0,69.0976,1.8482c79.2256-11.2616,143-67.2,194.1335-122.03C311.5882,265.0793,342.4283,229.3476,370.0279,191.238Z" transform="translate(816.2706 560.9527)"/><path class="cls-21" d="M344.4,172.251l-6.1606-3.45c-14.3912-8.0211-28.7332-16.1531-42.6439-24.9874-27.119-17.1635-52.8335-37.6784-70.613-64.7852a10.5892,10.5892,0,0,1-.6161-1.0842c-1.8851-1.38-3.77-2.7477-5.68-4.0907a9.7828,9.7828,0,0,1-8.2922-1.725c-3.8689-3.08-7.8363-6.025-11.68-9.093l-1.4416-1.0966c-2.2548-1.6264-4.5342-3.2036-6.8753-4.7067l-1.651-1.035L188.4127,56c-1.2321-.7269-2.5874-1.4416-3.8935-2.1315-4.6574-2.4643-6.8136-7.2573-4.9285-12.3213a8.8469,8.8469,0,0,1,4.1276-4.411,10.2631,10.2631,0,0,1,1.9591-5.4706,5.8775,5.8775,0,0,1,.4189-.5175,104.2171,104.2171,0,0,0-9.6722-6.4933c-8.2921,10.14-16.3133,20.6257-24.9628,30.31-.5668.7146-2.6737.1971-3.24.9117-34.7336,41.7321-68.962,84.4868-102.1678,127.5-.5667.7146.6777,2.2917.0986,3.0064-22.93,30.187-46.3279,59.4007-70.7855,88.3679l-1.5279-1.2321a69,69,0,0,0-12.5676,15.685l1.54,1.2321c-1.2321,3.1049-4.2878,5.3474-5.52,8.4524l1.5278,1.2321c-1.4292,4.1276-4.8545,6.062-7.134,11.2493-5.89,12.7525-15.6972,23.0407-24.7533,33.8341h0a9.4506,9.4506,0,0,1,6.7767,7.8979q.1108.7763.1848,1.5525a11.36,11.36,0,0,1,2.649,1.4293,28.6849,28.6849,0,0,1,8.9576,10.818,17.0237,17.0237,0,0,1,1.7.8748c6.0128,3.6964,11.7668,7.6762,17.373,11.8777C-3.01,394.3168,37.17,398.0132,93.0463,384.25,180.9214,362.6019,279.6515,265.4119,344.4,172.251Z" transform="translate(816.2706 560.9527)"/><path class="cls-14" d="M428.3936,786.268l1.2322,1.2321a5.7158,5.7158,0,0,1,.8132-.2711l1.3307-.32C430.6607,786.6746,429.5272,786.4528,428.3936,786.268Z" transform="translate(816.2706 560.9527)"/><path class="cls-14" d="M363.7071,566.6048C286.3789,474.38,161.9467,427.9415,58.1771,444.97c4.8546,3.8811,9.6229,7.8979,14.4159,11.816q11.3664,9.2409,22.4493,18.8885c7.3681,6.4317,14.7855,13.3193,21.9565,20.33,6.3454,6.1975,12.506,12.4321,19.5292,17.9643,13.3685,10.4115,28.8933,20.0837,37.666,35.054a10.214,10.214,0,0,1,1.0719,8.8466l15.648,12.5431q63.5037,50.862,126.9089,101.8843Q333.3106,684.79,349.02,697.0252c10.4114,8.07,21.2172,15.648,31.5054,23.8909,5.1133,4.0907,10.1034,8.3292,15.2168,12.4321,2.723,2.1809,5.4583,4.3248,8.2675,6.3824,1.2321.9241,2.5382,1.8236,3.82,2.7107l2.1439,1.4539c.0986.0616,1.01.6284.8625.5545,8.9329,5.2981,18.6667,9.0068,27.5257,14.3912a43.1244,43.1244,0,0,1,7.7993,2.5381C436.6489,693.144,413.1892,625.6359,363.7071,566.6048Z" transform="translate(816.2706 560.9527)"/><path class="cls-18" d="M310.7257,553.1993c-59.2405-55.7167-143.58-84.29-219.4167-80.7781l3.6964,3.1912c7.5036,6.5795,14.7854,13.3193,21.9564,20.33,6.3824,6.2592,12.543,12.4938,19.5662,18.026,13.3685,10.4115,28.8933,20.0837,37.666,35.054a10.214,10.214,0,0,1,1.0719,8.8466l15.648,12.5431q63.5037,50.862,126.9089,101.8843Q333.3106,684.79,349.02,697.0252c10.4114,8.07,21.2172,15.648,31.5054,23.8909,5.1133,4.0907,10.1034,8.3292,15.2168,12.4321,2.723,2.1809,5.4583,4.3248,8.2675,6.3824l.7023.5052C393.0193,672.0008,367.5636,606.6,310.7257,553.1993Z" transform="translate(816.2706 560.9527)"/><path class="cls-21" d="M326.1889,611.4541c-40.2042-54.6447-126.453-101.8474-196.795-104.09H128.79c2.4643,2.2672,5.0517,4.4727,7.7378,6.58,13.3685,10.4114,28.8933,20.0836,37.666,35.0539a10.2142,10.2142,0,0,1,1.0719,8.8467l15.648,12.543Q254.4176,621.25,317.8228,672.2718q15.4878,12.4938,31.1974,24.7287c6.9245,5.36,14.0092,10.51,21.02,15.7835C362.66,678.6049,349.9689,643.76,326.1889,611.4541Z" transform="translate(816.2706 560.9527)"/><circle class="cls-49" cx="1188.0851" cy="844.5631" r="12.7525"/><g class="cls-6"><path class="cls-2" d="M373.2431,290.2628l-3.0274-6.37-.9638,5.6925-2.7169-.46,2.1923-12.9373,2.717.46-1.0276,6.062,4.9646-5.3942,3.16.5354-5.5722,5.8442,3.5267,7.1184Z" transform="translate(816.2706 560.9527)"/></g><path class="cls-50" d="M384.185,276.1684l-2.0946-.32-.345,2.0454-1.9591-.3327.345-2.033-1.9591-.3327.32-1.9221,1.9714.345.3327-2.0207,1.959.32-.3449,2.0207,2.0576.3573Z" transform="translate(816.2706 560.9527)"/><circle class="cls-51" cx="226.1281" cy="425.4156" r="19.1349" transform="translate(586.2545 1141.4325) rotate(-80.7825)"/><g class="cls-6"><g class="cls-6"><path class="cls-2" d="M225.5975,431.9487l-2.587-7.2242-2.386,8.0449-.4849.0661-4.375-7.0438-.4356,7.5528-3.1116.4236,1.1443-14.7518,1.273-.1721,4.9718,8.2591,2.5882-9.2867,1.2935-.1757,5.1812,13.89Z" transform="translate(816.2706 560.9527)"/></g><g class="cls-6"><path class="cls-2" d="M239.8488,429.4556c.4211,3.0936-1.7363,5.0958-4.4845,5.4688a8.787,8.787,0,0,1-4.008-.4031l-.3526-2.7506a6.484,6.484,0,0,0,3.5051.6557,2.5006,2.5006,0,0,0,2.404-3.0658l-.0385-.2828a3.8637,3.8637,0,0,1-2.8529,1.871c-2.77.3767-4.8623-1.6857-5.2581-4.5964-.3923-2.8914,1.0733-5.4362,3.8431-5.8128a3.8415,3.8415,0,0,1,3.2031,1.0059l-.17-1.255,2.89-.3935Zm-3.5255-4.1307a2.334,2.334,0,0,0-2.5882-2.078,2.4119,2.4119,0,0,0,.6485,4.7708A2.3215,2.3215,0,0,0,236.3233,425.3249Z" transform="translate(816.2706 560.9527)"/></g></g><path class="cls-52" d="M232.7692,412.3551c1.0473-1.4046,2.1562-2.92,3.1173-4.2878a3.1785,3.1785,0,0,0,.7885-2.1069,1.06,1.06,0,0,0-1.173-.9325q-.03.0033-.0591.0084a1.4046,1.4046,0,0,0-1.0372,1.6941q.0068.0279.0145.0555l-2.92-.37a4.0291,4.0291,0,0,1,3.5239-4.3864,3.8442,3.8442,0,0,1,4.52,3.02l.0137.0725a5.175,5.175,0,0,1-1.343,3.9552c-.32.4682-.6777,1.0226-.998,1.5032l3.0187-.4067.3819,2.8463-7.6391,1.0349Z" transform="translate(816.2706 560.9527)"/><path class="cls-52" d="M247.3822,408.092l-2.1439.2957.2957,2.1192-2.033.2834-.2957-2.1192-2.0453.271-.2711-1.9837,2.0453-.2834-.2834-2.1069,2.033-.2711.2834,2.107,2.1439-.2957Z" transform="translate(816.2706 560.9527)"/><circle class="cls-53" cx="1141.5108" cy="885.0507" r="12.5554"/><g class="cls-6"><g class="cls-6"><path class="cls-2" d="M316.8469,325.1034A5.1732,5.1732,0,0,1,321.07,318.85a5.3826,5.3826,0,0,1,2.3957.0463l.4669,2.3277a3.5658,3.5658,0,0,0-2.3981-.287,3.1991,3.1991,0,0,0,1.2177,6.281,3.485,3.485,0,0,0,2.1171-1.1618l.44,2.3482a5.5944,5.5944,0,0,1-2.2074.9222A5.1739,5.1739,0,0,1,316.8469,325.1034Z" transform="translate(816.2706 560.9527)"/></g><g class="cls-6"><path class="cls-2" d="M332.27,319.8621l1.403,7.2351-2.0828.4043-.18-.9265a2.7506,2.7506,0,0,1-1.9709,1.4481c-1.9829.3845-3.576-1.0179-3.98-3.1019-.4007-2.0684.5523-3.9653,2.5352-4.35a2.7551,2.7551,0,0,1,2.3692.6071l-.1757-.9121Zm-1.3993,4.0092a1.685,1.685,0,0,0-1.9517-1.3915,1.7425,1.7425,0,0,0,.663,3.4148A1.6789,1.6789,0,0,0,330.8708,323.8713Z" transform="translate(816.2706 560.9527)"/></g></g><path class="cls-54" d="M326.3737,313.4525c.6038-.9118,1.2321-1.91,1.8112-2.7969a2.0818,2.0818,0,0,0,.4313-1.3431.6777.6777,0,0,0-.7886-.5421.8873.8873,0,0,0-.6017,1.1009l.01.0327-1.8482-.1356a2.55,2.55,0,0,1,2.07-2.8708,2.4643,2.4643,0,0,1,2.9448,1.7866,3.2408,3.2408,0,0,1-.7147,2.4642c-.1725.308-.3943.6653-.5668.9857l1.8729-.3573.3327,1.7742-4.756.8995Z" transform="translate(816.2706 560.9527)"/><path class="cls-54" d="M335.3929,310.2982l-1.3307.2588.2464,1.3183-1.2321.2342-.2711-1.3184-1.2321.2464-.2341-1.2321,1.2321-.2341-.2587-1.3677,1.2321-.2341.2587,1.3061,1.3307-.2588Z" transform="translate(816.2706 560.9527)"/><circle class="cls-49" cx="1106.001" cy="1033.9407" r="12.7525"/><g class="cls-6"><path class="cls-2" d="M293.587,478.6347l-5.1908-4.7733,1.2357,5.6409-2.6917.59-2.81-12.817,2.6928-.59,1.3152,6.0042,2.5833-6.86,3.1321-.6859-2.9805,7.5047,5.9357,5.28Z" transform="translate(816.2706 560.9527)"/></g><path class="cls-50" d="M298.4291,461.48l-2.0453.4559.4436,2.0084-1.9345.4312-.4435-2.0207-1.9468.4313-.4066-1.8975,1.9468-.4312-.4436-1.9961,1.9344-.4189.4313,1.9961,2.0453-.4436Z" transform="translate(816.2706 560.9527)"/><ellipse class="cls-55" cx="368.7583" cy="352.3899" rx="16.7939" ry="17.1881" transform="translate(795.9085 1243.1102) rotate(-83.98)"/><path class="cls-56" d="M385.9223,341.5572l-3.1912-.345-.32,3.0927-3.0311-.37.3327-3.0926-3.0557-.32.3081-2.8954,3.0433.32.3327-3.0557,2.9817.419-.32,3.0556,3.1912.345Z" transform="translate(816.2706 560.9527)"/><g class="cls-6"><g class="cls-6"><path class="cls-2" d="M369.4276,346.57,368.23,358.4129l-1.3416-.1444-5.6433-7.717-.6954,6.8814-2.53-.2732,1.1924-11.81,1.3429.145,5.6408,7.9035.7171-7.0992Z" transform="translate(816.2706 560.9527)"/></g><g class="cls-6"><path class="cls-2" d="M379.642,351.05l-.8435,8.3517-2.4787-.2671.1083-1.0691a3.2568,3.2568,0,0,1-2.7013.9072c-2.36-.2545-3.6819-2.3216-3.4389-4.7269.2419-2.3885,1.9481-4.13,4.3077-3.8751a3.2954,3.2954,0,0,1,2.4606,1.4644l.1071-1.0523Zm-2.9155,3.8907a1.9644,1.9644,0,0,0-1.7291-2.18,1.887,1.887,0,0,0-2.1093,1.7651,1.931,1.931,0,1,0,3.8384.4146Z" transform="translate(816.2706 560.9527)"/></g></g><line class="cls-57" x1="1180.9757" y1="1069.0809" x2="1163.9724" y2="1059.6058"/><line class="cls-57" x1="1181.407" y1="1071.693" x2="1164.3913" y2="1062.2179"/><circle class="cls-58" cx="1162.5924" cy="1058.9035" r="10.4977"/><g class="cls-6"><path class="cls-2" d="M341.931,500.1476a4.86,4.86,0,1,1,6.5108,2.23A4.7444,4.7444,0,0,1,341.931,500.1476Zm6.903-3.3944a2.8338,2.8338,0,1,0-1.2561,3.8648A2.82,2.82,0,0,0,348.834,496.7532Z" transform="translate(816.2706 560.9527)"/></g><line class="cls-57" x1="1180.3104" y1="1095.4606" x2="1183.1319" y2="1082.6589"/><circle class="cls-58" cx="1180.372" cy="1097.3828" r="10.4977"/><g class="cls-6"><path class="cls-2" d="M360.1951,539.4673a4.86,4.86,0,1,1,6.82.9241A4.7415,4.7415,0,0,1,360.1951,539.4673Zm6.1125-4.6686a2.8335,2.8335,0,1,0-.4825,4.0357A2.82,2.82,0,0,0,366.3076,534.7987Z" transform="translate(816.2706 560.9527)"/></g><line class="cls-57" x1="1191.5474" y1="1065.4461" x2="1202.2915" y2="1055.663"/><circle class="cls-58" cx="1202.5872" cy="1055.1086" r="10.4977"/><g class="cls-6"><path class="cls-2" d="M382.08,496.6425a4.8594,4.8594,0,1,1,6.642,1.8013A4.7413,4.7413,0,0,1,382.08,496.6425Zm6.666-3.8359a2.8332,2.8332,0,1,0-1.0023,3.9382A2.82,2.82,0,0,0,388.7457,492.8066Z" transform="translate(816.2706 560.9527)"/></g><circle class="cls-59" cx="1185.473" cy="1072.8388" r="10.6332"/><text class="cls-60" transform="translate(1182.5255 1078.6393) rotate(-21.6951)">N</text><g class="cls-6"><path class="cls-61" d="M370.9533,505.6512l3.5532,8.93-.1624.065-8.2675-3.8733,2.4,6.0319-1.1791.4693-3.5484-8.9185.1624-.065,8.3133,3.9876-2.4511-6.1582Z" transform="translate(816.2706 560.9527)"/></g><path class="cls-62" d="M390.9,485.3462l4.83-1.9221.6777,1.7-4.83,1.9345Z" transform="translate(816.2706 560.9527)"/></g><circle class="cls-63" cx="1143.7409" cy="972.5069" r="190.9793"/><g class="cls-6"><text class="cls-64" transform="translate(1099.7408 962.9689) rotate(-0.49)">liquid </text><text class="cls-64" transform="translate(1096.2866 998.4851) rotate(-0.49)">p</text><text class="cls-65" transform="translate(1114.5096 998.3292) rotate(-0.49)">h</text><text class="cls-64" transform="translate(1130.7355 998.1904) rotate(-0.49)">ase</text></g></g></g></g></g></g></svg>