<svg xmlns="http://www.w3.org/2000/svg" xmlns:xlink="http://www.w3.org/1999/xlink" viewBox="0 0 3288.8623 2220.9118"><defs><style>.cls-1,.cls-15,.cls-17,.cls-18,.cls-2,.cls-20,.cls-3,.cls-44,.cls-50,.cls-53,.cls-80{fill:none;}.cls-15,.cls-17,.cls-2,.cls-42,.cls-62,.cls-71{stroke:#ffcf01;}.cls-15,.cls-17,.cls-18,.cls-2,.cls-20,.cls-3,.cls-42,.cls-44,.cls-45,.cls-47,.cls-49,.cls-50,.cls-53,.cls-57,.cls-58,.cls-59,.cls-62,.cls-64,.cls-66,.cls-67,.cls-70,.cls-71,.cls-74,.cls-76,.cls-77,.cls-80,.cls-81,.cls-85,.cls-86{stroke-miterlimit:10;}.cls-2{stroke-width:3.9158px;}.cls-3,.cls-49,.cls-57,.cls-58,.cls-59,.cls-80{stroke:#5b5052;}.cls-3{stroke-width:1.9439px;}.cls-4,.cls-57{fill:#81a1c5;}.cls-5{fill:#4e7383;}.cls-6,.cls-77{fill:#2e61a2;}.cls-7{fill:#5c5052;}.cls-8{font-size:76.3118px;}.cls-11,.cls-42,.cls-46,.cls-48,.cls-52,.cls-54,.cls-59,.cls-60,.cls-65,.cls-68,.cls-72,.cls-75,.cls-78,.cls-8,.cls-82,.cls-83,.cls-84,.cls-86,.cls-88{fill:#fff;}.cls-11,.cls-21,.cls-31,.cls-39,.cls-60,.cls-8,.cls-88{font-family:Acre-Thin, Acre;font-weight:200;}.cls-9{letter-spacing:-0.03em;}.cls-10{letter-spacing:-0.02em;}.cls-11{font-size:76.3116px;}.cls-12{letter-spacing:-0.01em;}.cls-13{letter-spacing:-0.02em;}.cls-14{letter-spacing:-0.03em;}.cls-15{stroke-width:5.0875px;}.cls-16,.cls-74,.cls-76,.cls-87{fill:#ffcf01;}.cls-17{stroke-width:3.9428px;}.cls-18,.cls-20{stroke:#fecf08;}.cls-18{stroke-width:3.5173px;}.cls-19{fill:#fecf08;}.cls-20{stroke-width:3.9106px;}.cls-21{font-size:76.3115px;}.cls-21,.cls-31,.cls-37{fill:#df6572;}.cls-22,.cls-37,.cls-86{font-family:Acre-Medium, Acre;font-weight:500;}.cls-23{letter-spacing:-0.01em;}.cls-24{letter-spacing:-0.025em;}.cls-25{letter-spacing:-0.02em;}.cls-26{letter-spacing:-0.014em;}.cls-27{letter-spacing:-0.007em;}.cls-28{letter-spacing:0em;}.cls-29{letter-spacing:-0.02em;}.cls-30{letter-spacing:0em;}.cls-31{font-size:76.312px;}.cls-32{letter-spacing:-0.02em;}.cls-33{letter-spacing:0em;}.cls-34{letter-spacing:-0.014em;}.cls-35{letter-spacing:-0.006em;}.cls-36{letter-spacing:-0.01em;}.cls-37{font-size:76.3123px;}.cls-38{letter-spacing:-0.025em;}.cls-40{letter-spacing:-0.01em;}.cls-41{letter-spacing:-0.02em;}.cls-42{stroke-width:4.0016px;}.cls-43{clip-path:url(#clip-path);}.cls-44,.cls-45,.cls-47{stroke:#5e5252;}.cls-45{fill:#3d9f96;}.cls-47,.cls-49{fill:#ec6b7c;}.cls-48{font-size:18.1781px;}.cls-48,.cls-52,.cls-54,.cls-65,.cls-68,.cls-72,.cls-75,.cls-78,.cls-82,.cls-83,.cls-84{font-family:Acre-Bold, Acre;font-weight:700;}.cls-50,.cls-53{stroke:#5c5052;}.cls-50{stroke-width:0.9979px;}.cls-51{fill:#5e5252;}.cls-52{font-size:16.7312px;}.cls-53{stroke-width:0.998px;}.cls-54{font-size:18.1779px;}.cls-55,.cls-62{fill:#5b5052;}.cls-56{clip-path:url(#clip-path-2);}.cls-57{stroke-width:0.6407px;}.cls-58,.cls-66{fill:#ec6a7c;}.cls-58,.cls-59{stroke-width:0.6183px;}.cls-60{font-size:46.9894px;}.cls-61{letter-spacing:-0.02em;}.cls-62{stroke-width:3.8877px;}.cls-63{clip-path:url(#clip-path-3);}.cls-64{fill:#6d54a3;stroke:#ec6a7c;}.cls-64,.cls-67{stroke-width:2.0111px;}.cls-65{font-size:29.5677px;}.cls-66,.cls-70,.cls-74,.cls-77,.cls-86,.cls-87{stroke:#fff;}.cls-66{stroke-width:0.4022px;}.cls-67{fill:#3caba2;}.cls-67,.cls-76{stroke:#2e61a2;}.cls-68{font-size:32.1778px;}.cls-69{letter-spacing:-0.01em;}.cls-70{fill:#2e6289;stroke-width:0.6704px;}.cls-71{fill:#f37243;stroke-width:1.4549px;}.cls-72{font-size:23.2787px;}.cls-73{letter-spacing:-0.015em;}.cls-74{stroke-width:0.3908px;}.cls-75{font-size:29.5678px;}.cls-76{stroke-width:2.2643px;}.cls-77{stroke-width:0.6793px;}.cls-78{font-size:26.6239px;letter-spacing:-0.01em;}.cls-79{letter-spacing:0em;}.cls-80,.cls-87{stroke-linecap:round;}.cls-80{stroke-width:1.2593px;}.cls-81{fill:#c86572;stroke:#e3b222;stroke-width:0.9009px;}.cls-82{font-size:21.191px;}.cls-83{font-size:21.1912px;}.cls-84{font-size:21.191px;}.cls-85{fill:#39944c;stroke:#6d54a3;stroke-width:1.0804px;}.cls-86{font-size:21.259px;stroke-width:1.2265px;}.cls-87{stroke-linejoin:round;stroke-width:0.5621px;}.cls-88{font-size:46.6527px;}.cls-89{letter-spacing:-0.02em;}</style><clipPath id="clip-path" transform="translate(22.4087 14.5873)"><circle class="cls-1" cx="2896.1814" cy="809.9352" r="307.8266"/></clipPath><clipPath id="clip-path-2" transform="translate(22.4087 14.5873)"><path class="cls-2" d="M1674.516,380.699a311.6,311.6,0,0,0,169.4825,262.518l54.3542,148.2513,106.8029-115.699c166.0516-11.9671,292.7716-155.3926,284.4242-323.9771-8.477-171.2016-153.0357-303.5162-322.8808-295.5338S1666.039,209.4974,1674.516,380.699Z"/></clipPath><clipPath id="clip-path-3" transform="translate(22.4087 14.5873)"><circle class="cls-3" cx="590.4423" cy="545.6407" r="301.2997"/></clipPath></defs><g id="Layer_2" data-name="Layer 2"><g id="Layer_11" data-name="Layer 11"><rect class="cls-4" x="1197.4453" y="970.8882" width="414.5411" height="611.1209" transform="translate(2748.6916 2653.3902) rotate(-176.3904)"/><path class="cls-4" d="M2205.8708,1895.0318c-23.0912,54.5965-64.9708,103.15-120.5926,125.9462-31.3726,12.8578-73.8658,8.76-107.0119,6.3345-58.8864-4.3093-120.9284-18.4882-167.6019-56.6718-24.4262-19.9831-34.75-43.15-50.7212-68.8067-21.9256-35.2216-37.7067-65.3441-41.4-107.7731-2.4764-28.4466-1.9544-57.1583-6.505-85.4117-4.496-27.9146-9.415-55.8665-5.1215-84.2293,10.4566-69.0761,35.8482-143.3882,94.3146-185.9781,69.4021-50.5559,148.8775-83.8479,234.026-96.5716,81.5846-12.1911,153.16,26.9643,187.3267,101.6386,11.1879,24.4523,22.5591,49.626,23.9315,76.5237,1.6909,33.1431-13.4012,63.0337-16.5843,95.3312-2.9826,30.2641,5.4218,63.2115,6.9441,93.63C2239.7844,1767.1337,2230.9555,1835.722,2205.8708,1895.0318Z" transform="translate(22.4087 14.5873)"/><path class="cls-4" d="M675.5571,1676.73q1.7573.4824,3.52.9434c31.7816,8.3126,64.4137,15.2236,97.3715,15.9985,30.0995.7076,66.9456-14.3235,95.1372-1.1723,20.93,9.7636,32.3438,32.545,39.4208,54.5295,12.543,38.9644,25.229,71.1914,56.18,99.7021,56.9831,52.49,128.0518,79.6345,204.3829,87.8867,39.4595,4.266,83.3245,5.1885,122.5723,1.32,53.67-5.29,104.8454-23.6809,156.1256-39.2585q4.6357-1.4082,9.2788-2.7919c65.7164-19.5259,137.5657-33.2248,201.7589-9.159,50.9,19.0822,91.0742,60.5116,133.335,93.2226,67.2125,52.0242,161.9093,78.831,246.4676,71.2529,130.9328-11.7343,182.1705-111.1252,201.4195-228.8357q10.9147-66.7459,17.8774-134.0582c4.1841-40.4567-2.1016-86.247,5.84-125.02,4.6561-22.733,19.7794-44.7592,42.123-51.0224,16.0119-4.4884,33-.4648,49.2992,2.8312a551.9992,551.9992,0,0,0,161.4193,8.4529c69.516-6.6163,103.44-39.96,139.1942-97.5344,14.8114-23.8505,29.7491-47.9646,38.7776-74.5487,9.9516-29.3021,16.3635-61.7457,21.6562-92.2636,6.1285-35.3383,14.2351-73.2121,15.3341-109.0517.1273-4.1242,1.38-10.0476-.3653-13.9378-1.2837-2.8609-4.0147-3.736-6.9346-4.0719-6.3962-.7358-13.02-.3064-19.4617-.7148q-18.15-1.15-36.3006-2.2895l-464.2-29.283-554.03-34.95-533.0078-33.6237c-48.2919-3.0463-96.6811-5.3836-144.8691-9.6728,1.724.1535,4.1846,15.3084,4.39,16.9362.3679,2.9138,1.1966,12.4362-4.0719,11.4822-1.5775-.2856-4.1564-2.9273-5.5686-3.8249q-3.432-2.1816-6.8857-4.3289c-8.8627-5.5031-17.8477-10.8122-26.99-15.8377-37.564-20.6473-78.7775-34.14-120.8578-41.92-69.6392-12.8739-134.4992-19.8508-193.2074,27.78-118.0164,95.75-118.54,287.1528-118.59,425.0869C503.0537,1550.97,560.7425,1645.2078,675.5571,1676.73Z" transform="translate(22.4087 14.5873)"/><path class="cls-4" d="M2533.4353,300.1307c.5542,33.4991-8.6035,71.5725-4.934,104.2027,1.6534,14.7018,9.7975,27.6256,9.9217,43.4766a101.86,101.86,0,0,1-12.4265,49.88c-4.1249,7.4618-9.1723,14.3668-13.7776,21.5422-18.2539,28.4414-31.9942,61.2644-38.2166,94.3041-5.9186,31.4266-16.6161,61.1113-40.0911,83.8212-34.2223,33.1068-94.1756,42.6762-138.8277,50.1533a546.0234,546.0234,0,0,1-168.8526,1.8921c-45.1981-6.6045-90.3764-19.2974-128.4978-44.94s-68.6357-65.5587-76.1092-111.6983c-4.5465-28.0689-.4613-56.65,6.3843-83.9918,3.2289-12.8963,8.3153-25.6517,10.4738-38.7213,2.0323-12.3056-.3883-23.3285-.0121-35.6057.4641-15.1427,9.3555-28.5048,15.2649-42.4546,7.7238-18.2329,10.4876-38.1426,16.4362-57.0295,5.467-17.3579,13.5881-33.7418,21.6761-50.0443,4.8058-9.6869,10.5014-20.5727,20.212-26.1708,2.1358-1.2313,5.4849-1.5259,7.3477-2.8624,2.5633-1.8391,3.926-7.3071,5.2113-10.1571,3.4648-7.6831,7.0272-15.3237,10.7465-22.8871,14.6533-29.7983,31.9718-58.8008,55.604-82.41,72.2266-72.1553,180.5431-75.6727,272.56-49.8011C2463.6432,118.7774,2531.5858,188.3379,2533.4353,300.1307Z" transform="translate(22.4087 14.5873)"/><path class="cls-4" d="M1885.084,597.9781c-38.2828,47.18-93.3439,83.06-154.6006,89.6661-34.5509,3.726-75.2229-12.4092-107.1679-24.2363l-.9358-.3475a583.4673,583.4673,0,0,1-117.5762-59.5163c-12.5319-8.2588-25.9886-17.1826-36.256-27.51-10.0934-10.1526-22.69-16.9453-32.07-28.4406-18.6544-22.8619-29.1375-51.9472-32.1646-81.1168-4.3707-42.1189,5.2474-84.4335,17.6278-124.9287C1456.2385,229.3624,1493.11,78.0285,1616.697,33.1918c82.73-30.0139,170.4611-40.1613,257.9213-28.4418,83.8,11.2291,143.123,70.1637,155.4988,153.4175,4.0525,27.2617,8.08,55.2858,1.7717,82.16-7.773,33.1142-31.1445,58.2468-43.4758,89.1405-11.5549,28.9488-12.6621,63.782-19.8253,94.1654C1954.8962,481.707,1926.6717,546.7249,1885.084,597.9781Z" transform="translate(22.4087 14.5873)"/><path class="cls-5" d="M1785.1534,20.7479c-30.5284,2.3621-60.9016,10.0469-89.8186,18.9725-51.9605,16.0383-101.0069,29.5538-141.2463,68.0386-44.4763,42.537-67.2938,100.8161-83.5476,158.9274-15.8222,56.5678-41.2314,123.857-29.0886,182.8948,12.5515,61.0243,54.5929,111.4492,104.9263,146.1575,50.7594,35.0021,116.5182,73.8979,180.3268,70.0285,47.0981-2.8561,92.1173-26.528,121.39-63.5014A738.4648,738.4648,0,0,0,1970.6723,374.54c24.1039-73.5235,58.8112-177.0469,23.0109-251.2956-26.7123-55.4-90.4424-86.5713-147.8942-98.9664C1825.7629,19.9577,1805.4239,19.18,1785.1534,20.7479Z" transform="translate(22.4087 14.5873)"/><path class="cls-6" d="M1950.6121,107.0739c-12.2459-12.8785-27.93-24.109-47.707-33.2669-25.9926-12.0362-53.4692-23.5791-82.0265-27.6743-28.6522-4.1088-56.51,3.5926-84.9795,6.1891-74.8481,6.828-142.68,49.7171-189.044,107.6593-37.7357,47.16-56.0782,104.8859-67.6612,163.3364-11.9769,60.4384-33.5469,130.3756,3.5048,186.3049,32.2353,48.6588,86.3108,80.0311,135.2152,109.5174,49.4146,29.7935,105.3786,36.3488,158.6557,11.39,58.69-27.4952,97.3151-86.8022,126.45-142.27,31.3867-59.7555,60.4934-124.4929,75.3342-191.5946C1994.1517,225.2347,1996.0176,154.8254,1950.6121,107.0739Z" transform="translate(22.4087 14.5873)"/><path class="cls-4" d="M1626.3216,1425.91c4.5047,50.002,7.5937,120.7537-10.2924,168.2641-8.0753,21.45-18.7147,42.18-23.7515,64.43-14.6828,64.8608,3.5954,134.0025-49.844,187.6971-36.5917,36.7656-104.3211,50.7291-154.7385,61.4936a682.88,682.88,0,0,1-192.6289,13.2252c-52.0947-3.8669-104.6227-14.0767-150.0633-38.2452s-83.2651-63.712-95.2534-111.2829c-27.1354-107.7008,27.21-226.6312,74.3071-320.9,76.1071-152.335,210.2554-267.0542,392.61-231.5762C1533.0689,1241.6626,1615.8422,1309.5893,1626.3216,1425.91Z" transform="translate(22.4087 14.5873)"/><path class="cls-5" d="M1597.629,1421.9675c4.109,54.9568-9.2759,112.9851-18.6778,165.2544-14.3425,79.7358-6.498,178.12-74.37,240.0475-69.0725,63.0236-219.4616,75.7774-313.0238,71.2936-94.7914-4.5428-189.298-40.7568-214.451-131.9365-33.6437-121.9588,52.99-251.4542,112.319-354.8866,40.7912-71.1139,96.3688-137.57,181.3357-166.7552C1413.2025,1196.0582,1586.7959,1277.0783,1597.629,1421.9675Z" transform="translate(22.4087 14.5873)"/><path class="cls-6" d="M1442.5265,1840.4919q-30.6738,14.41-71.623,18.743L1263.967,1870.708c-75.6935,8.1211-170.5953,4.0291-225.8843-51.0428-92.1274-91.779-28.0126-217.8985,28.9943-309.48,59.5255-95.6273,116.9941-223.4929,246.546-250.2755,112.2971-23.2155,242.0761,47.6824,259.5693,151.5685,7.5964,45.1119-4.3712,90.8156-16.2587,135.1217-15.9875,59.5868-12.9818,122.62-28.1391,182.47C1515.1307,1783.0228,1486.7512,1819.7159,1442.5265,1840.4919Z" transform="translate(22.4087 14.5873)"/><path class="cls-5" d="M2508.6549,294.7591c.1392,52.77-15.1734,107.5-26.6508,156.9468-17.5085,75.43-16.8331,169.9263-79.9169,225.3433-64.2,56.3975-196.1788,60.1966-277.5088,50.6877-82.3986-9.6338-162.5635-49.5307-178.7881-138.1058-21.7015-118.4749,61.9831-237.4417,120.2175-333.0155,40.0384-65.7107,92.6825-126.1433,168.6256-149.3028C2361.9467,68.4877,2508.2876,155.6351,2508.6549,294.7591Z" transform="translate(22.4087 14.5873)"/><path class="cls-6" d="M2347.13,686.2267q-27.6591,12.0645-63.6492,13.9214l-93.9963,5c-66.5339,3.5392-149.057-5.67-193.8316-61.4067-74.6065-92.8862-10.7758-209.8825,44.69-294.2556,57.9163-88.1008,116.0592-207.1373,230.7417-225.5115,99.4082-15.9269,208.1658,59.0977,216.9127,159.393,3.7982,43.5527-9.5055,86.5791-22.6519,128.2738-17.68,56.0749-19.01,116.5043-35.9826,172.8774C2414.0623,635.3366,2387.0078,668.8326,2347.13,686.2267Z" transform="translate(22.4087 14.5873)"/><path class="cls-4" d="M2429.4107,710.4992c-65.041-1.09-138.8672,30.6509-178.42,83.9285-22.6386,30.4944-41.8982,114.1518-59.4056,147.677-21.91,41.9555-34.4413,76.6449-58.0256,106.42-58.8786,74.3334-75.5623,170.4143-44.2777,261.3354,12.8477,37.3385,38.9145,62.5342,72.3926,80.9743,37.5561,20.6863,72.5549,41.1522,113.5583,55.3285,77.3425,26.74,180.0854,72.4665,261.9907,44.3376,44.909-15.4232,94.7457-44.794,124.8312-82.1136,34.9824-43.394,46.9983-100.5159,56.1262-155.5355a2547.9149,2547.9149,0,0,0,31.9233-305.8472c1.8263-41.8592,1.7458-88.2608-25.1627-122.9772-25.3774-32.741-66.4213-48.0978-102.6427-65.21C2559.414,729.1083,2499.1936,711.67,2429.4107,710.4992Z" transform="translate(22.4087 14.5873)"/><path class="cls-5" d="M2415.2633,741.9154c-35.5268,5.0408-69.9782,16.6637-99.5119,37.182-69.5264,48.3032-70.2266,123.5438-101.44,194.2366-22.3962,50.7234-62.9232,91.9189-86.9059,141.9369-32.84,68.49-38.9974,176.5915,19.0211,234.7809,35.2291,35.3329,86.2972,47.5677,128.9367,71.5424,49.7809,27.99,105.5947,46.4085,162.3665,55.1126,94.0017,14.4122,162.5631-18.2312,209.4133-98.7054,74.21-127.4705,63.7411-262.47,65.3992-404.0278.1176-10.0439.26-20.0884.1685-30.1332-.6083-67.0334-22.3431-116.0861-78.3726-154.2123C2571.4449,746.8311,2490.0666,731.302,2415.2633,741.9154Z" transform="translate(22.4087 14.5873)"/><path class="cls-6" d="M2357.43,780.8242c-46.8306,27.8542-69.4889,81.8255-86.3839,132.96-16.8945,51.1326-32.655,105.782-72.5218,142.6174-85.7285,79.211-100.9849,265.72,23.2213,314.1493,44.801,17.4683,81.878,49.0756,126.5162,66.415,46.5974,18.1,98.0114,22.9655,147.7351,22.1262,182.4024-3.0792,199.1459-297.3622,195.4012-425.5786-2.6732-91.5306-21.0357-205.3527-116.65-246.1036C2511.2935,760.365,2419.5413,743.881,2357.43,780.8242Z" transform="translate(22.4087 14.5873)"/><path class="cls-4" d="M1526.571,948.7889c-10.0882,22.2077-16.5656,37.97-30.9038,57.7761-25.6991,35.4989-57.4115,64.9025-79.5246,102.8076-20.5883,35.2915-33.0726,76.556-70.7092,98.3009-53.4487,30.88-131.6228,15.7142-190.1074,11.8306-53.1164-3.5273-94.6566-22.7927-120.2323-70.8919-22.1152-41.591-48.4927-87.74-62.8442-132.6049-13.4926-42.1794-12.4-87.4064-12.0909-131.69.5162-73.9683-.5624-149.5124,21.1963-221.0947,19.2806-63.43,61.568-120.8269,120.8167-152.4957,72.11-38.5435,150.8362-26.2444,224.143,2.167,39.4083,15.2734,77.7265,32.8978,117.69,46.7786,51.1509,17.7667,109.278,34.9784,134.1751,89.3116,28.3626,61.8962,11.9968,137.8017-7.6509,199.6623C1565.541,864.35,1533.39,933.779,1526.571,948.7889Z" transform="translate(22.4087 14.5873)"/><path class="cls-5" d="M1199.6511,519.1147a194.8949,194.8949,0,0,0-95.3116,30.8728c-123.7335,78.9683-117.7633,263.1736-114.8071,389.24,2.7735,118.2715,64.3675,258.0924,204.0592,256.7156,66.5308-.6557,122.9963-9.2239,170.5832-58.7946,78.1529-81.41,147.0606-189.6287,188.36-293.5511,13.071-32.8909,9.15-67.7077,9.25-102.0718.1-34.3128,8.01-66.1956-14.1475-96.3722-19.0291-25.9162-50.6184-39.7417-81.5536-49.8C1378.9067,567.0086,1295.2031,513.51,1199.6511,519.1147Z" transform="translate(22.4087 14.5873)"/><path class="cls-6" d="M1259.5912,548.8717c-78.4374-13.8972-155.4028,23.6212-198.5373,90.3718-32.651,50.53-42.6612,114.3289-47.22,173.6155-6.9754,90.7124-16.174,199.3445,38.5455,277.7089,60.8625,87.162,181.1018,121.2555,269.4817,58.0075,55.6491-39.8247,95.9343-103.3154,131.89-161.04,36.5086-58.6119,71.9834-126.5743,84.06-195.6716,18.94-108.368-50.1656-165.6215-142.5471-198.052C1348.0059,577.2216,1304.4756,556.8244,1259.5912,548.8717Z" transform="translate(22.4087 14.5873)"/><path class="cls-4" d="M2046.0941,1226.0392q-3.6407,6.2751-7.3913,12.4907c-27.8017,46.065-55.55,99.085-102.2965,128.0572-56.3619,34.9315-127.9821,39.813-192.0985,28.4108-72.453-12.8848-142.9627-63.1867-200.6908-105.7153-35.5866-26.217-44.0627-64.8032-40.3109-107.6872,4.2317-48.3687,10.4947-89.1424,2.0723-137.7733-9.1538-52.8544,15.7321-95.5369,41.0613-139.1628,29.4189-50.67,55.3074-97.6275,100.96-135.7857,92.9125-77.6591,236.7245-120.7264,351.82-75.8276a262.3558,262.3558,0,0,1,62.39,35.1867c51.48,38.8239,75.3655,103.0862,79.8244,164.9334,4.57,63.3875-3.7133,125.4272-25.5634,183.7207C2096.5536,1128.4241,2073.675,1178.4994,2046.0941,1226.0392Z" transform="translate(22.4087 14.5873)"/><path class="cls-5" d="M2028.8433,734.7257c-27.3228-12.155-58.0228-18.8433-85.5251-23.129-77.5046-12.0774-154.4374,11.9251-224.9884,41.86-50.014,21.2213-90.73,60.0569-122.4258,103.4619-24.5746,33.6531-46.12,70.1763-58.567,110.1533-14.1728,45.521-6.2635,84.881-7.5353,130.7407-1.0853,39.1379-8.7614,89.2777.37,127.495a83.6949,83.6949,0,0,0,2.3711,8.1129c14.27,40.9194,63.7392,58.5458,96.6108,82.1894,33.8182,24.3244,70.3525,46.5058,112.3505,53.336,72.4756,11.7868,171.0167,3.2082,222.9793-52.6621,22.587-24.2856,31.0377-56.3957,46.9422-84.6814,39.2018-69.7192,71.5994-143.0689,95.514-219.5117,15.59-49.8331,13.6789-101.2892,6.5132-152.6827C2105.6,803.09,2082.9653,758.8027,2028.8433,734.7257Z" transform="translate(22.4087 14.5873)"/><path class="cls-6" d="M2035.7164,778.7243q-5.7372-4.9491-12.2507-9.5665c-48.1508-34.0679-112.7856-40.05-171.324-28.89q-174.9579,33.3546-267.2236,180.4309c-10.444,16.675-19.9488,34.1711-24.7989,53.0933-14.0354,54.7579-2.4128,119.82-.7108,175.6543,1.4166,46.46,24.4585,99.28,61.0421,130.2473,17.0644,14.4445,38.0937,23.6294,58.7853,32.608,67.6515,29.3556,132.8378,53.5165,206.292,25.2707,71.6455-27.55,103.73-89.8014,133.5665-153.6844a775.7491,775.7491,0,0,0,66.08-223.21C2093.8505,896.7728,2088.6434,824.38,2035.7164,778.7243Z" transform="translate(22.4087 14.5873)"/><path class="cls-7" d="M1591.5489,1001.0755c-4.6928,128.0146-37.8289,210.18,73.8334,271.4512,83.67,45.91,139.159,90.7807,245.1072,16.2923,87.1982-61.301,149.7477-242.9673,153.8589-342.015,4.1088-98.1081-38.1258-149.3494-122.002-177.3165-99.1362-33.0722-206.2,18.125-275.1677,89.2158-29.42,30.3195-80.9913,77.03-75.63,142.3722" transform="translate(22.4087 14.5873)"/><path class="cls-7" d="M1161.9066,590.0127c22.6263-14.5972,52.9037-30.1985,80.4806-25.369,20.5035,3.5907,37.5132,16.96,56.5788,24.4586,22.9994,9.0461,46.2384,17.8131,69.6536,25.77,32.8713,11.17,67.5287,21.4331,92.9538,45.0922,34.2419,31.8635,44.9714,82.6266,40.85,129.2484-4.8677,55.0677-27.514,107.0075-53.8816,155.5835-31.1053,57.304-68.363,112.1623-117.2775,155.239-26.8639,23.6577-58.4276,44.0774-93.9143,48.636-30.1337,3.871-60.8418-4.0984-88.1565-17.41-31.4442-15.3236-59.7708-38.26-77.8824-68.2087-17.9188-29.63-25.1017-64.6567-27.1082-99.2369s.8564-69.2352,1.5081-103.8685c.5394-28.6676.7387-57.3517,3.3629-85.928,1.3-14.1571,4.3331-27.7117,6.34-41.7135,2.0711-14.4494,2.4975-29.219,6.7646-43.275,9.4949-31.2761,35.1777-52.9389,60.2761-71.8788C1135.1979,607.536,1148.4933,598.6693,1161.9066,590.0127Z" transform="translate(22.4087 14.5873)"/><path class="cls-7" d="M1471.8488,1313.3785c-51.8689-32.3749-135.1412-38.0308-188.3549-15.6485-35.9543,15.1228-62.8907,39.7983-84.884,66.213-20.6868,24.8454-37.6015,51.5548-54.4732,78.2045l-72.4149,114.3839c-17.3957,27.4776-21.3013,52.9195-29.8541,82.2-16.7812,57.45-3.5173,118.1338,52.3928,166.232,32.4261,27.8939,84.0013,42.3133,125.7608,43.9216,52.5548,2.0242,117.8366,1.6537,168.3765-13.935,50.5594-15.5948,87.5788-55.2041,105.04-104.5,14.5623-41.1129,9.4567-84.593,13.067-127.2077,3.6477-43.0556,14.6718-86.4211,22.1636-129.0018,6.79-38.5911,12.9363-80.1946-11.3447-116.6625A149.6558,149.6558,0,0,0,1471.8488,1313.3785Z" transform="translate(22.4087 14.5873)"/><path class="cls-7" d="M2459.2345,782.4391c60.2058-1.6267,130.3581,37.6471,160.3125,86.2519,20.239,32.84,27.7653,69.5119,30.3243,105.1211,2.407,33.4938.7164,66.6624-.9749,99.7541q-3.6294,71.0168-7.2589,142.0335c-1.7438,34.12-13.163,59.2076-23.0444,90.244-19.3881,60.8958-64.7705,108.7-137.2191,122.389-68.9157,13.066-255.971-64.8914-293.1286-136.1787-32.7261-62.8645-5.3114-141.5011,35.9686-207.2887,8.6905-13.8487,20.5722-24.5037,30.5969-36.9585,10.8147-13.4364,15.7361-32.0815,22.4866-47.72l44.2332-102.4733c16.6255-38.5157,35.4918-79.4124,75.87-99.446A147.7956,147.7956,0,0,1,2459.2345,782.4391Z" transform="translate(22.4087 14.5873)"/><text class="cls-8" transform="translate(2289.511 1146.2556)">ai<tspan class="cls-9" x="65.0925" y="0">r</tspan><tspan class="cls-10" x="84.9331" y="0">-</tspan><tspan x="115.6111" y="0">filled</tspan><tspan x="-72.9531" y="91.5742" xml:space="preserve"> po</tspan><tspan class="cls-10" x="47.0071" y="91.5742">r</tspan><tspan x="67.6116" y="91.5742">e space</tspan></text><text class="cls-8" transform="translate(1684.4131 1015.1306)">solid - soil<tspan x="34.606" y="91.5742">particles</tspan></text><path class="cls-7" d="M1511.44,283.8956c-17.5552,124.6143-54.7127,191.6191,43.2936,261.2612,73.4376,52.1829,118.4057,111.2105,225.0424,47.7608,87.7643-52.216,164.8871-224.1512,178.9186-320.5259,13.9325-95.4572-20.2491-149.21-95.7255-183.8861-89.2064-41.0021-194.4884-.3976-266.23,62.98-30.6021,27.0294-83.5845,68.1229-85.2989,132.41" transform="translate(22.4087 14.5873)"/><path class="cls-7" d="M2220.5805,675.5052c-514.7932,110.9737-33.5354-727.1663,203.5126-481.9026,83.5849,86.4926,21.1869,186.156,3.6475,295.8959-12.5474,78.7093-63.5837,188.63-124.5969,189.1511-26.5154,1.0714-51.4418-8.809-82.5632-3.1444" transform="translate(22.4087 14.5873)"/><text class="cls-11" transform="translate(1099.6826 809.2154) rotate(-0.4893)"><tspan class="cls-12">w</tspan><tspan x="58.1489" y="0">a</tspan><tspan class="cls-13" x="105.2324" y="0">t</tspan><tspan x="123.5476" y="0">e</tspan><tspan class="cls-14" x="166.8152" y="0">r</tspan><tspan class="cls-13" x="186.6558" y="0">-</tspan><tspan x="217.3337" y="0">filled </tspan><tspan x="109.009" y="91.5742">po</tspan><tspan class="cls-13" x="202.2607" y="91.5742">r</tspan><tspan x="222.8652" y="91.5742">e </tspan><tspan x="83.1787" y="183.1484">space</tspan></text><path class="cls-5" d="M1958.9876,1382.6238c-27.9865,10.4509-54.3916,25.8505-79.0965,42.0208-44.3919,29.0559-86.7321,54.96-114.0784,101.9-30.2255,51.8824-35.8965,112.6814-35.4587,171.5523.4262,57.3073-5.244,127.2535,22.0688,179.3321,28.2319,53.8309,81.2545,89.7677,137.8115,108.7313,57.0358,19.1241,129.1856,37.8525,187.9694,17.01q.8108-.2874,1.6183-.5838c45.453-16.6816,77.7834-54.3741,98.911-96.8078,54.3023-109.0637,70.6951-244.4786,49.8058-363.8637-7.3974-42.2771-16.9516-86.5288-46.38-119.4483-39.992-44.7372-108.1555-56.77-165.3668-52.8918C1996.85,1370.9271,1977.57,1375.6845,1958.9876,1382.6238Z" transform="translate(22.4087 14.5873)"/><path class="cls-6" d="M2137.0272,1418.7217c-14.9683-8.7508-32.7125-15.025-53.7306-18.2473-27.624-4.2351-56.5052-7.6055-84.38-3.7027-27.9679,3.9157-51.99,18.6852-77.9688,28.8359-68.3,26.6884-120.2494,85.273-147.997,152.1466-22.5841,54.4289-24.1277,113.5045-19.14,171.4265,5.1577,59.892,3.8991,131.2871,53.7862,173.6629,43.402,36.8672,102.588,51.6125,156.416,65.9918,54.39,14.5291,108.6183,5.5029,151.7865-32.3308,47.5538-41.6788,67.6785-107.7338,79.9491-167.6184,13.2191-64.5133,22.9509-133.0778,18.6712-199.9913C2209.864,1517.6649,2192.5271,1451.1684,2137.0272,1418.7217Z" transform="translate(22.4087 14.5873)"/><path class="cls-7" d="M1770.9481,1711.4138c17.3254,121.5524.6627,194.4244,111.3962,233.13,82.9739,29.0015,141.12,72.1352,223.8656-16.2383,68.1024-72.7292,93.779-254.78,80.8059-348.9095-12.8173-93.2433-59.4244-134.3567-139.5637-146.3978-94.7224-14.2479-182.3906,52.3469-232.45,131.1938-21.3548,33.6284-59.873,86.5048-44.0536,147.2223" transform="translate(22.4087 14.5873)"/><path class="cls-4" d="M3037.0582,593.2036c-17.0979,18.1277-35.0267,35.5136-53.17,52.5657-33.154,31.1595-63.6792,65.1263-98.2321,94.7962-29.7067,25.5085-68.5,59.2783-107.7285,67.045q-.8892.1746-1.781.3351c-31.53,5.6253-64.5717-3.629-93.03-16.9157-7.235-3.3779-13.9872-7.9569-21.2263-11.2177-6.7189-3.0266-14.312-4.349-21.203-7.4967a100.29,100.29,0,0,1-17.6371-10.2486c-5.1061-3.7187-10.82-4.7462-16.803-6.7434a175.81,175.81,0,0,1-39.3268-18.8376c-6.3431-4.0762-11.1-7.9477-14.8365-14.4717a95.7571,95.7571,0,0,0-5.4834-8.7564c-12.0445-16.6306-21.22-34.2072-25.9208-54.3429-10.5051-44.9975-23.9046-95.389-26.2251-141.5371-2.1817-43.387,10.2323-85.9943,21.6659-127.9039,19.0981-70.0033,37.0806-141.9021,75.72-204.2992,34.2384-55.2907,88.7731-99.0734,152.917-114.1948,78.0683-18.4039,149.6184,13.0631,211.9769,58.4437,33.5227,24.3958,65.42,50.7463,99.82,73.9612,44.0292,29.7139,94.8126,60.6566,104.75,118.4364,11.3193,65.8154-23.2854,133.6608-57.4735,187.3685C3084.5122,539.5363,3061.6442,567.137,3037.0582,593.2036Z" transform="translate(22.4087 14.5873)"/><path class="cls-5" d="M2835.0724,103.456a191.184,191.184,0,0,0-98.137,5.2941c-137.1848,43.7457-177.8658,219.9026-206.778,340.1762-27.1247,112.8373-3.9,260.9045,128.8959,294.7422,63.2464,16.1158,118.94,22.1972,176.53-12.8317,94.5817-57.5277,187.142-142.8,252.4445-230.9446,20.6679-27.8974,25.709-61.8955,34.4494-94.4527,8.7274-32.5086,24.2479-60.7485,10.831-94.9348-11.5226-29.36-37.996-50.4156-64.7969-67.7349C2992.9852,193.9632,2927.08,122.1807,2835.0724,103.456Z" transform="translate(22.4087 14.5873)"/><path class="cls-6" d="M2884.4186,146.75c-70.8745-32.91-153.2882-16.699-210.9793,35.7392-43.67,39.6956-69.2117,97.6688-88.4493,152.7346-29.4347,84.2545-65.4857,184.94-33.3178,273.0079,35.7792,97.9545,141.2074,160.53,240.9168,122.7952,62.7828-23.76,116.9521-73.8241,165.5661-119.51,49.3611-46.3884,100.0944-101.9026,128.928-164.3793,45.221-97.9845-5.8983-169.655-85.3314-223.6451C2961.1171,195.8728,2924.9752,165.5819,2884.4186,146.75Z" transform="translate(22.4087 14.5873)"/><path class="cls-7" d="M2768.17,170.5694c24.3417-9.89,56.0875-19.3778,80.9967-9.8787,18.52,7.0627,31.6985,22.8216,48.0446,33.3525,19.7188,12.7038,39.7215,25.1842,60.06,36.9238,28.5526,16.48,58.9751,32.4145,77.9,59.4724,25.4879,36.441,24.896,86.7139,11.2143,130.4036-16.16,51.6044-48.3764,97.071-83.3833,138.6718-41.2967,49.0754-87.8629,94.7279-142.9093,127.0845-30.2315,17.77-64.2,31.6208-98.52,29.662-29.143-1.6634-56.3353-14.71-79.2137-32.2443-26.3371-20.1848-48.1421-47.0691-58.8687-78.8213-10.6124-31.4142-9.9967-66.0633-4.6086-99.3679s15.37-65.8156,23.2678-98.6988c6.5377-27.2188,12.7591-54.5138,21.2376-81.2755,4.2-13.2581,9.903-25.6342,14.7352-38.6188,4.9868-13.4,8.4946-27.3965,15.463-40.0314,15.5055-28.1137,44.2069-44.193,71.7863-57.7817C2739.3743,182.5224,2753.7386,176.4354,2768.17,170.5694Z" transform="translate(22.4087 14.5873)"/><path class="cls-4" d="M559.1437,1111.0289c22.8184-54.7111,64.455-103.4731,119.9623-126.5466,31.308-13.0143,73.8212-9.1288,106.979-6.8687,58.9072,4.0152,121.0192,17.8842,167.8827,55.8343,24.5256,19.8609,34.9651,42.976,51.0641,68.5526,22.1012,35.1117,38.0325,65.1551,41.938,107.5651,2.6184,28.4339,2.24,57.1478,6.9313,85.3781,4.6354,27.8918,9.6938,55.8188,5.542,84.2027-10.1116,69.1274-35.1318,143.5654-93.385,186.4466-69.1488,50.9018-148.457,84.59-233.5409,97.7389-81.5227,12.5982-153.2928-26.1994-187.8317-100.7022-11.31-24.3961-22.8067-49.5127-24.3133-76.4033-1.8564-33.1341,13.0863-63.1,16.1081-95.4127,2.8315-30.2787-5.7373-63.1837-7.4114-93.594C525.869,1239.0947,534.3554,1170.4632,559.1437,1111.0289Z" transform="translate(22.4087 14.5873)"/><path class="cls-5" d="M833.0175,1629.01c27.0519-12.6751,52.1283-30.1552,75.4478-48.2662,41.9026-32.5433,82.0144-61.78,105.4839-110.773,25.94-54.1522,26.6871-115.2105,21.5-173.8541-5.049-57.086-5.0413-127.2617-36.4674-176.9666-32.4836-51.3772-88.233-82.9184-146.1358-97.2565-58.3929-14.4594-131.8187-27.3048-188.729-1.7867-42.0063,18.8353-74.9426,55.9547-88.9228,99.79a720.4844,720.4844,0,0,0-33.42,250.1006c3.3319,75.4165,7.3221,181.87,65.5835,237.3075,43.4716,41.3646,112.3839,47.8578,169.0959,39.376C796.222,1643.7238,815.0552,1637.4261,833.0175,1629.01Z" transform="translate(22.4087 14.5873)"/><path class="cls-6" d="M646.9962,1606.2871c15.3339,8.0934,33.3335,13.5919,54.4716,15.8995,27.7817,3.0328,56.7819,5.1471,84.4615.0389,27.7717-5.1252,51.13-20.9229,76.6445-32.1909,67.078-29.6261,116.4372-90.4091,141.2579-158.4233,20.2017-55.3574,19.1813-114.4443,11.6854-172.0955-7.7508-59.6119-9.59-130.9943-61.2688-171.1662-44.96-34.95-104.73-47.1138-159.1314-59.1446-54.9686-12.1561-108.7547-.786-150.2411,38.8847-45.7011,43.7023-62.9415,110.5681-72.6028,170.9286-10.4082,65.0261-17.1567,133.9482-9.9784,200.613C569.936,1510.5967,590.1411,1576.2785,646.9962,1606.2871Z" transform="translate(22.4087 14.5873)"/><path class="cls-7" d="M1001.0574,1323.9463c-10.5721-122.325,10.0979-194.1631-98.3239-238.937-81.2418-33.5489-136.9122-79.8344-224.4212,3.8245-72.0229,68.8489-107.7351,249.1993-99.991,343.903,7.6375,93.81,51.8978,137.4393,131.248,153.8969,93.7887,19.4681,185.008-42.173,239.3546-118.1287,23.1831-32.395,64.5684-83.0587,52.1335-144.5587" transform="translate(22.4087 14.5873)"/><path class="cls-15" d="M1261.99,1006.92c-1.417,32.8486,1.0738,62.9589,19.5186,91.396,30.5786,47.1435,88.123,65.2661,142.3174,61.0747" transform="translate(22.4087 14.5873)"/><polygon class="cls-16" points="1436.228 1191.096 1440.897 1174.335 1432.075 1159.339 1471.792 1170.296 1436.228 1191.096"/><path class="cls-15" d="M2431.8,1021.953c2.5139-25.7447-4.1087-51.92-16.34-74.7119-16.57-30.8765-42.6209-58.2647-74.3518-73.5289-41.8472-20.13-89.1392-26.5727-135.4515-28.4707" transform="translate(22.4087 14.5873)"/><polygon class="cls-16" points="2240.684 844.322 2233.4 860.122 2239.716 876.334 2202.257 859.181 2240.684 844.322"/><path class="cls-17" d="M2514.9414,1859.3626c2.311-25.7768-5.6567-52.1694-19.8618-75.2793-19.2432-31.3071-49.0747-59.3051-85.0484-75.2529-50.1879-22.249-106.9187-29.2529-161.86-31.7187" transform="translate(22.4087 14.5873)"/><polygon class="cls-16" points="2280.45 1679.677 2274.718 1691.882 2279.523 1704.481 2250.588 1690.981 2280.45 1679.677"/><path class="cls-18" d="M227.4014,1296.68c38.644-176.1064,244.271-235.854,406.71-183.7788q15.15,4.8567,30.0855,10.4321" transform="translate(22.4087 14.5873)"/><polygon class="cls-19" points="674.803 1145.37 683.125 1136.685 682.65 1124.665 703.268 1144.319 674.803 1145.37"/><line class="cls-20" x1="801.1714" y1="1909.82" x2="950.774" y2="1701.4836"/><polygon class="cls-19" points="955.327 1716.247 948.378 1704.819 935.33 1701.887 962.348 1685.365 955.327 1716.247"/><text class="cls-21" transform="matrix(1, 0.0056, -0.0056, 1, 233.1381, 1326.8466)"> <tspan class="cls-22"><tspan class="cls-23" x="-209.0929" y="91.5742">h</tspan><tspan class="cls-24" x="-166.1293" y="91.5742">y</tspan><tspan x="-127.9735" y="91.5742">g</tspan><tspan class="cls-25" x="-80.9658" y="91.5742">r</tspan><tspan class="cls-26" x="-57.4619" y="91.5742">o</tspan><tspan class="cls-27" x="-13.0486" y="91.5742">s</tspan><tspan class="cls-28" x="19.2314" y="91.5742">copic </tspan></tspan><tspan class="cls-23" x="-94.4724" y="183.1475">w</tspan><tspan x="-36.3235" y="183.1475">a</tspan><tspan class="cls-29" x="10.7599" y="183.1475">t</tspan><tspan class="cls-30" x="29.0751" y="183.1475">er </tspan></text><text class="cls-31" transform="translate(690.0456 1924.097) rotate(-0.157)"> <tspan class="cls-22"><tspan x="-221.8752" y="91.5742">g</tspan><tspan class="cls-32" x="-174.8673" y="91.5742">r</tspan><tspan class="cls-33" x="-151.3633" y="91.5742">a</tspan><tspan class="cls-34" x="-104.2798" y="91.5742">v</tspan><tspan x="-65.9712" y="91.5742">i</tspan><tspan class="cls-32" x="-44.8333" y="91.5742">t</tspan><tspan x="-23.0073" y="91.5742">atio</tspan><tspan class="cls-35" x="114.0471" y="91.5742">n</tspan><tspan x="157.3159" y="91.5742">al </tspan></tspan><tspan class="cls-36" x="-94.4729" y="183.1484">w</tspan><tspan x="-36.3237" y="183.1484">a</tspan><tspan class="cls-32" x="10.76" y="183.1484">t</tspan><tspan x="29.0752" y="183.1484">er </tspan></text><text class="cls-37" transform="translate(2361.9004 1993.9501) rotate(0.208)">plant a<tspan class="cls-38" x="252.5146" y="0">v</tspan><tspan x="289.9834" y="0">ailable</tspan><tspan class="cls-39" x="532.4233" y="0"> </tspan><tspan class="cls-39"><tspan class="cls-40" x="185.0923" y="91.5752">w</tspan><tspan x="243.2417" y="91.5752">a</tspan><tspan class="cls-41" x="290.3257" y="91.5752">t</tspan><tspan x="308.6411" y="91.5752">er</tspan></tspan></text><g id="Layer_59" data-name="Layer 59"><path class="cls-42" d="M2921.0316,501.9109c-114.5865-8.94-219.3929,46.0574-279.3874,134.9862L2489,672.0913l100.6044,120.5969c-8.835,166.2745,116.5833,310.138,283.5271,323.1631,169.5353,13.2273,317.693-113.4852,330.92-283.02S3090.5669,515.1382,2921.0316,501.9109Z" transform="translate(22.4087 14.5873)"/><g class="cls-43"><path class="cls-4" d="M3204.7831,620.2448a100.9,100.9,0,0,1,7.073,7.94c12.6478,15.8452,26.4669,48.8385,6.2937,59.9352-17.9807,9.8907-80.7492-10.6989-101.3846-14.1372A933.9471,933.9471,0,0,1,2842.58,583.1761c-23.4986-12.1179-141.1031-63.0743-104.0124-104.1348,10.6991-11.8442,28.0045-14.6571,43.93-15.7214,135.0212-9.023,263.35,55.6252,379.19,125.5764C3176.9232,598.0969,3192.3524,607.6544,3204.7831,620.2448Z" transform="translate(22.4087 14.5873)"/><path class="cls-5" d="M3178.7758,540.7648a188.9687,188.9687,0,0,1,27.323,40.1662c6.5377,12.9882,11.6108,27.5783,9.0333,41.89-13.9323,77.3434-317.4559-47.3659-363.8962-69.651-35.4133-16.9937-68.9455-34.6926-93.959-65.0147,7.8834-14.0684,26.023-17.9041,41.9758-20.2643,74.6692-11.0473,150.9375-21.3689,225.26-8.1922C3082.679,470.0112,3140.2336,497.14,3178.7758,540.7648Z" transform="translate(22.4087 14.5873)"/><path class="cls-6" d="M3230.7806,617.9127c-37.9706-3.2186-71.2,1.8817-110.5855-9.3532L2965.3684,564.394c-22.1591-6.3211-195.2126-62.8168-167.3646-94.445,6.3994-7.2681,16.9942-8.7568,26.646-9.5444a451.0972,451.0972,0,0,1,64.62-1.031c106.6607,6.6255,203.9863,60.1066,297.22,112.3353C3205.78,582.5147,3227.1214,596.108,3230.7806,617.9127Z" transform="translate(22.4087 14.5873)"/><path class="cls-4" d="M3263.6223,786.4673q-1.0215-7.7286-2.4157-15.4086c-8.0094-44.083-39.2207-31.4294-74.18-23.95-37.6564,8.0562-74.3051,21.81-106.935,42.4169-54.9252,34.6873-137.2488,156.2724-185.8571,198.9594-31.8832,27.9993-61.7067,58.2657-93.717,86.1119-25.426,22.1183-81.3722,46.7762-29.4064,75.2622,14.36,7.8719,30.9858,10.3425,47.2532,12.2289,82.7582,9.5969,169.1139,6.9421,245.7884-25.6466a332.4194,332.4194,0,0,0,199.47-349.9739Z" transform="translate(22.4087 14.5873)"/><path class="cls-5" d="M3242.1,784.3082q.0852-2.3694.19-4.7265c-16.4744-7.0269-43.9293,3.3406-60.7512,7.4266-140.7126,34.1792-188.2363,153.784-281.6345,247.3135-21.9731,22.004-47.1692,44.3786-73.7608,60.69-23.514,14.4234-49.7135,19.6152-58.7094,49.93,62.3974,19.5484,129.0727,20.7435,194.3335,16.6688,28.6925-1.7916,57.9484-4.7275,84.1251-16.6126,21.7264-9.8645,40.2809-25.423,58.5352-40.7894,51.3831-43.2541,105.2223-90.1077,125.016-154.29C3245.5611,897.6558,3240.1476,838.58,3242.1,784.3082Z" transform="translate(22.4087 14.5873)"/><path class="cls-6" d="M3236.4546,803.1317C3191.0052,784.58,3035.9968,937.6678,3017.1633,960.58c-32.586,39.6421-64.3793,80.405-102.0022,115.4971-19.2538,17.9586-102.3948,52.837-71.2861,84.3249,10.82,10.9515,27.3282,13.508,42.6489,15.0166,40.0911,3.9477,81.46,4.5556,119.6538-8.2554,51.5769-17.3,92.0573-57.0731,129.2411-96.7825,32.5572-34.7685,64.4338-70.9147,86.8067-112.9656s34.7183-90.9707,25.8435-137.7688l-.0066-.035C3246.3828,810.8075,3242.336,805.5325,3236.4546,803.1317Z" transform="translate(22.4087 14.5873)"/><path class="cls-4" d="M2419.0622,1332.3554q-9.3775,8.1267-18.9,16.0959c-70.58,59.0589-144.94,129.3976-236.6616,150.2759-110.5891,25.1726-229.1546-6.7457-326.53-60.8327-110.0362-61.12-196.1284-181.6843-265.8665-282.57-42.99-62.1911-35.25-129.32-5.3419-196.6024,33.7337-75.8881,66.5312-138.3616,79.9417-221.7082,14.5752-90.5853,78.558-145.7936,143.7822-202.2814,75.7555-65.6085,143.7366-127.1751,238.7968-163.52,193.4652-73.9692,450.0352-63.6878,611.2532,72.923,31.3654,26.5781,58.5106,57.7417,81.36,91.6007,61.6914,91.4194,64.6034,208.6472,37.4347,311.1691-27.8454,105.0754-75.7328,200.8251-143.4833,282.9731C2554.95,1202.5055,2490.1046,1270.7883,2419.0622,1332.3554Z" transform="translate(22.4087 14.5873)"/><path class="cls-5" d="M2668.257,528.5c-37.44-34.8507-83.3818-62.736-125.4867-84.9572-118.6563-62.622-256.445-66.5636-387.2084-57.3615-92.6991,6.5241-180.15,46.7095-255.55,99.3008-58.46,40.7755-113.6153,87.8775-155.9725,145.6244-48.2314,65.7553-57.3181,133.8205-84.8691,207.2955-23.5127,62.7055-63.8027,139.5438-70.2782,206.4395a143.1689,143.1689,0,0,0-.6745,14.4413c.3359,74.1238,70.5574,130.1362,110.5865,186.6555,41.1816,58.1467,87.9481,114.3368,152.0864,148.7323,110.6831,59.3562,274.8509,100.26,389.9637,38.7711,50.037-26.7277,81.5571-73.9708,123.0082-110.8838,102.17-90.9842,195.3517-191.6234,276.531-301.9819,52.9208-71.9428,78.4346-156.24,95.4136-243.3567C2754.4131,681.7548,2742.4192,597.5337,2668.257,528.5Z" transform="translate(22.4087 14.5873)"/><path class="cls-6" d="M2662.8618,604.4455q-6.5294-11.1951-14.4985-22.285c-58.9494-81.8753-160.1763-127.4825-261.0711-141.9726q-301.5517-43.307-532.5607,143.31c-26.1638,21.1673-51.2649,44.1849-69.6293,72.0969-53.1441,80.7732-70.5123,192.4781-98.798,283.7408-23.5362,75.941-15.6272,174.1915,26.3351,244.62,19.5733,32.8515,48.4841,59.3993,76.9632,85.4256,93.113,85.0934,185.1262,160.4134,319.6469,155.5574,131.2082-4.7364,217.7138-87.5968,301.49-174.3468,92.7129-96.004,171.3073-205.6757,230.9755-324.3264C2691.2742,827.7164,2723.0953,707.72,2662.8618,604.4455Z" transform="translate(22.4087 14.5873)"/><path class="cls-7" d="M1830.708,718.3917c-78.7557,204.4658-178.0328,318.9549-31.4706,480.14,109.8215,120.777,174.6358,224.2055,387.425,162.6119,175.1284-50.6853,377.2977-309.7743,439.01-467.7071,61.1856-156.4142,21.3531-262.78-98.7768-354.6468-141.9762-108.6081-343.6215-85.31-494.7035-8.6544-64.4435,32.69-173.8322,79.5792-201.4838,188.2561" transform="translate(22.4087 14.5873)"/><path class="cls-7" d="M3230.8879,867.4128a81.1649,81.1649,0,0,1,1.0391,13.4434,320.9861,320.9861,0,0,1-54.8007,179.7627c-9.39,13.8678-20.1246,27.2259-34.1121,36.4366-12.12,7.9812-26.1359,12.4977-39.9568,16.9226-60.4664,19.4158-136.7964,47.2518-200.5476,29.0358,8.4029-15.815,25.4246-31.1879,38.0055-45.0074q64.2579-70.5843,128.5159-141.1687c25.8709-28.418,52.391-57.1091,83.8511-79.4871C3182.2519,856.46,3223.8216,826.4939,3230.8879,867.4128Z" transform="translate(22.4087 14.5873)"/><path class="cls-7" d="M3205.1776,562.98c4.5787,6.0012,8.24,12.6236,8.8469,20.0384,2.0542,25.0834-28.3257,20.901-44.6922,20.9667a124.598,124.598,0,0,1-30.6566-3.6925c-28.968-7.2352-54.3954-24.61-82.75-33.9651-17.855-5.8906-36.53-8.4836-55.0321-11.4337a315.9183,315.9183,0,0,1-52.0073-13.1063c-23.0853-7.7549-140.9586-38.7548-136.0118-73.19,1.7544-12.212,16.8281-16.6885,29.076-18.1716,64.1429-7.767,129.9234-6.8161,192.4739,9.3723s121.84,48.2537,165.0088,96.3279C3201.4034,558.32,3203.3626,560.6015,3205.1776,562.98Z" transform="translate(22.4087 14.5873)"/></g><line class="cls-44" x1="2857.5535" y1="664.0797" x2="2875.2696" y2="663.7028"/><line class="cls-44" x1="2856.763" y1="656.6779" x2="2875.7446" y2="656.2741"/><line class="cls-44" x1="2858.6537" y1="660.2583" x2="2873.5546" y2="659.9413"/><circle class="cls-45" cx="2841.1871" cy="661.2038" r="17.4827"/><circle class="cls-45" cx="2891.0455" cy="660.143" r="17.4827"/><path class="cls-46" d="M2824.1833,640.0837l.3261,15.322-1.6851.036-8.1681-8.9284.19,8.9035-3.1773.068-.3253-15.2793,1.685-.0356,8.196,9.1658-.1964-9.1848Z" transform="translate(22.4087 14.5873)"/><path class="cls-46" d="M2874.774,637.7413l.3262,15.322-1.6851.036-8.1682-8.9284.19,8.9036-3.1773.068-.3253-15.2794,1.685-.0356,8.196,9.1659-.1965-9.1849Z" transform="translate(22.4087 14.5873)"/><circle class="cls-47" cx="3068.6686" cy="733.5216" r="17.4827"/><text class="cls-48" transform="translate(3060.9601 739.9587) rotate(-1.7994)">O</text><text class="cls-48" transform="translate(3075.687 733.4404) rotate(-1.7994) scale(0.583)">-</text><circle class="cls-49" cx="3118.5137" cy="731.9557" r="17.4827"/><text class="cls-48" transform="translate(3110.8054 738.3928) rotate(-1.7994)">O</text><text class="cls-48" transform="translate(3125.532 731.8745) rotate(-1.7994) scale(0.583)">-</text><line class="cls-50" x1="3086.1019" y1="731.6751" x2="3100.9988" y2="731.2071"/><line class="cls-50" x1="3086.2042" y1="734.9294" x2="3101.1011" y2="734.4614"/><circle class="cls-47" cx="2843.9504" cy="758.5626" r="16.0913"/><circle class="cls-51" cx="2888.377" cy="747.0235" r="16.0913"/><text class="cls-52" transform="translate(2882.6244 754.4056) rotate(-14.5604)">C</text><text class="cls-52" transform="matrix(0.5643, -0.1466, 0.1466, 0.5643, 2891.021, 746.4685)">+</text><text class="cls-52" transform="translate(2838.437 765.8829) rotate(-14.5604)">O</text><text class="cls-52" transform="matrix(0.5643, -0.1466, 0.1466, 0.5643, 2850.3315, 757.0373)">-</text><circle class="cls-47" cx="2932.8035" cy="735.4844" r="16.0913"/><text class="cls-52" transform="translate(2927.29 742.804) rotate(-14.5604)">O</text><text class="cls-52" transform="matrix(0.5643, -0.1466, 0.1466, 0.5643, 2939.1845, 733.9583)">-</text><line class="cls-53" x1="2859.2225" y1="753.3614" x2="2872.5021" y2="749.9123"/><line class="cls-50" x1="2903.6511" y1="741.8218" x2="2916.9286" y2="738.3732"/><line class="cls-53" x1="2859.9759" y1="756.2619" x2="2873.2554" y2="752.8128"/><line class="cls-50" x1="2904.4045" y1="744.7223" x2="2917.682" y2="741.2737"/><line class="cls-44" x1="2874.5578" y1="939.5177" x2="2891.6903" y2="944.0433"/><line class="cls-44" x1="2875.8401" y1="932.1851" x2="2894.1964" y2="937.0339"/><line class="cls-44" x1="2876.6696" y1="936.1481" x2="2891.0796" y2="939.9546"/><circle class="cls-45" cx="2859.6201" cy="932.2379" r="17.4827"/><circle class="cls-45" cx="2907.836" cy="944.9742" r="17.4827"/><path class="cls-46" d="M2844.2089,912.8626l-3.9138,14.8173-1.63-.43-5.3878-10.8354-2.2738,8.61-3.0727-.8113,3.9029-14.776,1.6294.4306,5.349,11.0714,2.3453-8.8826Z" transform="translate(22.4087 14.5873)"/><path class="cls-46" d="M2893.4823,924.5691l-3.9138,14.8173-1.63-.43-5.3879-10.8354-2.2738,8.61-3.0727-.8113,3.9029-14.776,1.6294.4307,5.3491,11.0713,2.3452-8.8825Z" transform="translate(22.4087 14.5873)"/><circle class="cls-47" cx="2789.9267" cy="1016.7477" r="17.4827"/><text class="cls-54" transform="translate(2784.4851 1025.1886) rotate(-19.1256)">O</text><text class="cls-54" transform="translate(2796.6022 1014.5802) rotate(-19.1256) scale(0.583)">-</text><circle class="cls-47" cx="2837.0437" cy="1000.4086" r="17.4827"/><text class="cls-54" transform="translate(2831.6025 1008.8501) rotate(-19.1256)">O</text><text class="cls-54" transform="translate(2843.7196 998.2418) rotate(-19.1256) scale(0.583)">-</text><line class="cls-50" x1="2806.019" y1="1009.7932" x2="2820.1006" y2="1004.91"/><line class="cls-50" x1="2807.0858" y1="1012.8694" x2="2821.1674" y2="1007.9862"/><path class="cls-55" d="M2891.0977,794.7025c.0649,7.5859-5.5713,11.0928-11.1416,11.14a15.9184,15.9184,0,0,1-8.9551-2.708l.0293-2.209a14.3585,14.3585,0,0,0,8.67,3.0948c5.3779-.0469,9.623-3.4434,9.522-9.6368l-.0371-4.37a10.7416,10.7416,0,0,1-9.6954,6.2295c-6.6743.0567-11.38-5.5215-11.437-12.1963-.0576-6.7226,4.5523-12.38,11.2266-12.4365a10.773,10.773,0,0,1,9.7515,5.9668l-.0972-5.7617,1.92-.0156Zm-2.0132-10.836c-.0484-5.666-4.1714-10.4316-9.7412-10.3847s-9.4185,4.8818-9.37,10.5478,3.9781,10.3867,9.5479,10.3389S2889.1328,789.5326,2889.0845,783.8665Z" transform="translate(22.4087 14.5873)"/><path class="cls-55" d="M2920.5283,771.5453l.2051,24.0087-1.9209.0166-.0493-5.7626a10.7081,10.7081,0,0,1-9.647,6.1816c-6.6748.0566-11.3808-5.5215-11.4375-12.1963-.0576-6.7227,4.5527-12.38,11.2266-12.4365a10.7079,10.7079,0,0,1,9.7519,6.0146l-.05-5.8095Zm-1.8179,12.0683c-.0483-5.666-4.1708-10.4316-9.7407-10.3848s-9.4189,4.8819-9.37,10.5479,3.978,10.3867,9.5483,10.3389S2918.7588,789.28,2918.71,783.6136Z" transform="translate(22.4087 14.5873)"/><path class="cls-55" d="M2927.1855,792.0413l1.4288-1.3564a7.5483,7.5483,0,0,0,5.934,3.2139c2.8814-.0244,5.2676-1.7256,5.2437-4.51-.0581-6.8193-12.2842-4.6016-12.2554-12.43.02-3.36,2.8316-5.7861,6.5288-5.8652a9.4813,9.4813,0,0,1,7.04,3.3486l-1.2373,1.3067a7.68,7.68,0,0,0-5.7383-2.7832c-2.6895.0234-4.6914,1.72-4.7207,3.9287-.0908,6.2441,12.2324,4.0732,12.208,12.4785-.0176,3.6006-2.8272,6.3623-7.1484,6.3994A9.32,9.32,0,0,1,2927.1855,792.0413Z" transform="translate(22.4087 14.5873)"/><path class="cls-55" d="M2866.4561,841.6371c.0576,6.7226-4.5523,12.3808-11.2266,12.4375a10.6892,10.6892,0,0,1-9.7031-5.919l.13,15.2686-1.9209.0156-.2866-33.6123,1.9209-.0156.0488,5.7148a10.6875,10.6875,0,0,1,9.6-6.0859C2861.6934,829.3841,2866.3989,834.9622,2866.4561,841.6371Zm-1.9209.0166c-.0484-5.6661-3.9786-10.3868-9.5479-10.3389-5.2344.0439-9.0879,4.2549-9.5239,9.4453l.018,2.1133c.5245,5.1806,4.45,9.373,9.6841,9.3291C2860.7354,852.1546,2864.584,847.32,2864.5352,841.6537Z" transform="translate(22.4087 14.5873)"/><path class="cls-55" d="M2892.4209,839.9749l.1147,13.4454-1.9209.0166-.1108-12.9649c-.0537-6.3389-3.1064-9.5791-7.7163-9.539-4.3218.0361-7.7993,3.332-7.7446,9.6708l.11,12.9649-1.9209.0166-.3281-38.415,1.9209-.0166.1611,18.8232a9.1039,9.1039,0,0,1,7.9776-4.87C2888.0537,829.0628,2892.3574,832.5316,2892.4209,839.9749Z" transform="translate(22.4087 14.5873)"/><path class="cls-55" d="M2920.5649,829.1693l.2051,24.01-1.9209.0166-.0493-5.7626a10.7081,10.7081,0,0,1-9.6475,6.1816c-6.6743.0566-11.38-5.5215-11.4375-12.1963-.0571-6.7227,4.5528-12.3809,11.2276-12.4375a10.7063,10.7063,0,0,1,9.751,6.0156l-.0494-5.8105Zm-1.8178,12.0693c-.0489-5.666-4.1709-10.4326-9.7412-10.3857s-9.418,4.8828-9.37,10.5488,3.9786,10.3867,9.5489,10.3389S2918.7949,846.9046,2918.7471,841.2386Z" transform="translate(22.4087 14.5873)"/><path class="cls-55" d="M2927.2217,849.6663l1.4292-1.3564a7.5476,7.5476,0,0,0,5.9341,3.2139c2.8808-.0244,5.2675-1.7256,5.2436-4.51-.0581-6.8193-12.2847-4.6016-12.2554-12.43.02-3.3613,2.8316-5.7871,6.5284-5.8662a9.48,9.48,0,0,1,7.04,3.3486l-1.2373,1.3077a7.6779,7.6779,0,0,0-5.7383-2.7842c-2.6894.0234-4.6914,1.7207-4.7207,3.93-.0908,6.2441,12.2324,4.0732,12.208,12.4785-.0171,3.6006-2.8271,6.3623-7.1484,6.3994A9.32,9.32,0,0,1,2927.2217,849.6663Z" transform="translate(22.4087 14.5873)"/><path class="cls-55" d="M2948.2324,841.4671c.2866,5.4727,4.1182,9.9053,10.0723,9.8545a11.0246,11.0246,0,0,0,8.3232-3.7685l.0215,2.497a12.463,12.463,0,0,1-8.3291,3.1446c-7.4424.0634-11.9565-5.5645-12.0137-12.2393s4.6006-12.333,11.3711-12.3916c6.9629-.0586,11.1441,5.9561,11.2022,12.7266Zm18.5664-2.0312c-.666-4.94-3.9189-9.043-9.105-8.999-5.2817.0459-8.8969,4.0625-9.3813,9.1562Z" transform="translate(22.4087 14.5873)"/></g><g id="Layer_60" data-name="Layer 60"><g class="cls-56"><rect class="cls-57" x="1412.0489" y="50.4701" width="1029.0862" height="748.9726" transform="translate(18.8498 31.056) rotate(-0.4893)"/><path class="cls-4" d="M2019.5518,626.9892q7.4078-2.51,14.7741-5.1292c54.5949-19.4184,116.5775-37.837,156.8012-77.114,48.4974-47.3562,68.0986-112.9322,68.8684-173.7934.87-68.7746-38.4538-140.8659-72.08-200.0728-20.729-36.4982-60.07-49.6117-106.4428-52.0029-52.3037-2.6969-96.9369-2.477-146.9736-16.9137-54.3825-15.6906-104.7927,1.4932-156.2956,18.9581-59.8187,20.2849-114.9784,37.8117-164.7537,74.8219-101.3021,75.3227-176.0473,202.4516-151.441,315.0434a215.3161,215.3161,0,0,0,24.8784,62.5151c30.9421,52.9218,94.4962,83.7969,159.3892,96.3742,66.5093,12.8906,134.1707,13.7086,200.5764,1.4662C1905.562,660.3187,1963.4325,646.0019,2019.5518,626.9892Z" transform="translate(22.4087 14.5873)"/><path class="cls-5" d="M1500.3861,543.8821c-7.4331-26.9328-8.3715-56.2421-7.3975-82.2654,2.7449-73.3368,43.7551-141.2133,89.7886-202.3718,24.4676-32.5069,58.253-56.4808,93.03-76.2222,73.5255-41.7375,147.1773-71.0983,233.9062-58.6219,26.9482,3.8766,53.9084,7.6719,80.8142,11.8583,45.9567,7.1506,89.68,17.793,131.991,38.3436,30.913,15.0169,48.2,43.229,64.39,72.4951,47.4093,85.7,60.7255,203.9538-13.6857,276.47-59.294,57.7837-145.1559,81.3549-222.8534,100.2123q-6.6255,1.6082-13.2626,3.1672c-52.0739,12.2784-104.5107,19.9126-157.3839,27.0775-56.1465,7.6084-110.4987-1.192-163.7271-14.8441C1557.6668,624.22,1515.11,597.2317,1500.3861,543.8821Z" transform="translate(22.4087 14.5873)"/><path class="cls-6" d="M1545.8071,556.2529a138.3486,138.3486,0,0,1-7.7119-12.6386c-26.5528-49.1921-19.9128-109.792,3.7353-162.41q70.6791-157.264,245.694-222.5008c19.8392-7.3808,40.3629-13.7807,61.4671-15.68,61.0726-5.4976,127.9445,14.145,186.9959,23.35,49.1372,7.66,100.6893,36.1917,126.27,74.2613,11.9323,17.7574,17.4721,38.4634,22.86,58.8287,17.617,66.5847,30.204,130.1794-14.62,194.2584-43.72,62.5012-116.3948,83.6687-190.3531,102.5338a978.5179,978.5179,0,0,1-250.7343,30.6116C1659.6861,626.157,1583.7255,611.4464,1545.8071,556.2529Z" transform="translate(22.4087 14.5873)"/><path class="cls-7" d="M1871.6915,175.8219c137.12,13.1561,231.19-6.262,273.9031,105.3915,32.0046,83.6634,68.5722,141.1193-31.98,228.9324-82.7516,72.2733-288.5834,105.2972-394.7729,95.5622-105.1894-9.6089-151.2007-55.6762-164.0765-137.0778-15.2365-96.2138,60.7637-188.2418,150.2618-242.3156,38.1711-23.0668,98.2349-64.3825,166.6641-50.4927" transform="translate(22.4087 14.5873)"/><ellipse class="cls-58" cx="2084.0745" cy="233.2638" rx="9.5466" ry="9.7575" transform="translate(9.4289 235.9513) rotate(-6.0612)"/><rect class="cls-59" x="2078.6871" y="231.9132" width="10.7747" height="2.7012" transform="translate(9.4289 235.9513) rotate(-6.0612)"/><ellipse class="cls-58" cx="2156.8007" cy="400.0201" rx="9.5466" ry="9.7575" transform="translate(-7.7726 244.5627) rotate(-6.0612)"/><rect class="cls-59" x="2151.4134" y="398.6695" width="10.7747" height="2.7012" transform="translate(-7.7726 244.5627) rotate(-6.0612)"/><ellipse class="cls-58" cx="2038.3397" cy="536.5049" rx="9.5466" ry="9.7575" transform="translate(-22.8464 232.8173) rotate(-6.0612)"/><rect class="cls-59" x="2032.9524" y="535.1542" width="10.7747" height="2.7012" transform="matrix(0.9944, -0.1056, 0.1056, 0.9944, -22.8464, 232.8173)"/><ellipse class="cls-58" cx="1876.1391" cy="577.7682" rx="9.5466" ry="9.7575" transform="translate(-28.1102 215.921) rotate(-6.0612)"/><rect class="cls-59" x="1870.7518" y="576.4176" width="10.7747" height="2.7012" transform="translate(-28.1102 215.921) rotate(-6.0612)"/><ellipse class="cls-58" cx="1880.2012" cy="198.002" rx="9.5466" ry="9.7575" transform="translate(12.0125 214.2269) rotate(-6.0612)"/><rect class="cls-59" x="1874.8139" y="196.6513" width="10.7747" height="2.7012" transform="translate(12.0125 214.2269) rotate(-6.0612)"/><text class="cls-60" transform="translate(1898.3671 374.1739) rotate(-0.4893) scale(0.9784 1)">solid <tspan x="-15.8358" y="56.3877">p</tspan><tspan class="cls-61" x="13.1096" y="56.3877">h</tspan><tspan x="38.9066" y="56.3877">ase</tspan></text></g><path class="cls-2" d="M1674.516,380.699a311.6,311.6,0,0,0,169.4825,262.518l54.3542,148.2513,106.8029-115.699c166.0516-11.9671,292.7716-155.3926,284.4242-323.9771-8.477-171.2016-153.0357-303.5162-322.8808-295.5338S1666.039,209.4974,1674.516,380.699Z" transform="translate(22.4087 14.5873)"/></g><g id="Layer_61" data-name="Layer 61"><path class="cls-62" d="M764.2639,293.6917c94.1,65.41,140.302,174.0062,130.4969,280.5178l95.6286,123.4974L836.6206,727.3176C738.5113,861.2538,550.9038,893.1668,413.8068,797.87c-139.2252-96.7763-173.6365-288.0927-76.86-427.3176S625.0387,196.9155,764.2639,293.6917Z" transform="translate(22.4087 14.5873)"/><g class="cls-63"><path class="cls-4" d="M812.3884,1077.0136c5.9261-18.2866,18.1117-34.31,30.495-48.7219,6.5062-7.5724,13.2893-14.9008,19.9745-22.3139,8.0927-8.9738,15.8358-18.248,23.8671-27.2756,13.3088-14.96,27.0919-29.4986,40.8311-44.07a15.1769,15.1769,0,0,1-4.33-13.1562c.708-4.1365,2.6234-7.4439,5.029-10.8357,3.4219-4.8246,7.7748-9.0689,11.9845-13.1954,5.5915-5.4809,11.3116-10.8631,17.3321-15.8741,13.7521-11.4463,28.5479-21.5172,42.667-32.48,2.7373-5.6764,5.2525-11.4588,7.979-17.1406,12.9058-26.895,34.7725-48.37,55.1382-69.7391,20.6045-21.62,41.6344-42.8912,60.3665-66.1943a14.3746,14.3746,0,0,1,11.73-5.3885l4.2136-5.26q10.3262-14.9339,20.8517-29.7225L323.9012-14.5873l-346.31,432.28,832.67,667.0722C810.85,1082.1768,811.5529,1079.5919,812.3884,1077.0136Z" transform="translate(22.4087 14.5873)"/><path class="cls-4" d="M749.6484,1136.7234c.6708.6629,1.3451,1.3223,2.0117,1.99a10.1419,10.1419,0,0,1,1.2807-.4156c.6984-.1762,1.3985-.3349,2.0975-.5043Q752.3371,1137.2815,749.6484,1136.7234Z" transform="translate(22.4087 14.5873)"/><path class="cls-4" d="M812.2735,1080.6131c3.4437-10.6266,9.0078-20.4842,15.49-29.71C775.7817,856.7442,653.5339,688.7888,434.8793,600.5009c-115.413-46.601-227.1219-61.8611-325.224-38.429q.7361.4066,1.4713.8146c13.6028,7.5044,27.3506,14.9715,39.9094,24.1645,12.8187,9.3832,24.9952,19.8,37.2962,29.8477,11.9482,9.76,23.792,19.65,35.4007,29.8125,11.8424,10.3668,23.4413,21.0151,34.6565,32.0591,10.0329,9.88,19.6773,19.7113,30.81,28.385,21.0889,16.43,45.57,31.6811,59.4242,55.2983,2.6933,4.5912,3.3415,9.57,1.6767,13.9723l24.7,19.788Q475.1679,876.46,575.1458,956.9373c16.3,13.1407,32.6652,26.2022,49.2193,39.022,16.4332,12.7261,33.4884,24.69,49.7041,37.685,8.068,6.4655,15.9525,13.1561,24.0178,19.625,4.2852,3.437,8.6176,6.8172,13.0477,10.0661q2.9772,2.1834,6.0159,4.281c1.1223.773,2.259,1.5237,3.3868,2.2884.15.1016,1.5917.9977,1.3518.8668,14.1088,8.3636,29.4674,14.2213,43.4264,22.7147,7.86,1.8452,15.379,4.7268,22.0389,9.7906a12.5749,12.5749,0,0,1,1.5795,1.4357,96.0721,96.0721,0,0,1,13.2123,7.0882,12.4574,12.4574,0,0,1,5.26,9.1871c.504-.0038,1.007.0055,1.5106.0063A88.372,88.372,0,0,1,812.2735,1080.6131Z" transform="translate(22.4087 14.5873)"/><path class="cls-4" d="M667.3012,278.9244c8.192-15.7148,15.515-32.4838,22.7017-49.5335-12.2543-11.6086-24.33-23.4248-36.4481-35.245q-6.99-6.8181-14.0563-13.5627c-114.11-64.2635-273.92-14.9655-364.169,71.0589C225.1745,299.45,189.7056,361.4406,170.7,427.8687a425.8,425.8,0,0,0-16.1622,102.5991c-1.488,44.0221.0124,58.8359,33.7947,86.4309q12.92,10.5534,25.6245,21.368c78.1891-8.9749,152.688-39.234,215.2726-82.8734C531.94,483.7741,615.1234,379.0185,667.3012,278.9244Z" transform="translate(22.4087 14.5873)"/><path class="cls-4" d="M1209.964,610.8648c2.5236-3.3584,5.2072-6.641,7.9536-9.9023-2.54-2.53-3.8018-6.738-6.7207-9.9271a62.011,62.011,0,0,0-6.0677-5.0764,14.7661,14.7661,0,0,1-2.9342,11.1613c-4.7123,6.4539-14.72,7.1107-20.7557,2.2918-33.218-26.523-69.1638-49.2966-103.3847-74.4562a923.195,923.195,0,0,1-84.6038-70.9567c-13.4164-12.5807-26.795-25.2108-40.7023-37.2522q-2.2565-1.9538-4.5375-3.8787c-32.8559-16.603-65.24-33.3575-94.8981-55.397C817.9335,331.18,781.3457,306.5155,746.7451,279.18c-22.2522-17.58-43.043-36.6344-63.443-56.17.6158.59-1.0881,7.1832-1.2454,8.23-.3641,2.4205-.3148,4.5555-1.5915,6.5828-3.1474,4.9972-7.4588,8.9341-10.12,14.35-2.9,5.9025-4.272,12.8292-2.351,19.1187,1.7117,5.6043,5.74,10.3967,5.7759,16.4607.031,5.2658-1.3651,10.7346-2.0844,15.9405q-1.8091,13.0931-3.59,26.19c-1.5507,11.3894-3.07,22.7832-4.6516,34.1683-6.3756,45.8958-12.0288,77.7005-8.8936,124.6683,5.62,84.1839,27.4937,165.6948,24.6945,249.5641-2.6063,78.0862-24.7937,156.2927,14.81,232.6013,24.8942,47.9662,67.1535,87.3868,115.2467,121.6441a89.0472,89.0472,0,0,1,2.9716-11.9153c5.926-18.2865,18.1117-34.3094,30.4949-48.7219,6.5063-7.5724,13.2893-14.9007,19.9746-22.3138,8.0927-8.9739,15.8358-18.2481,23.867-27.2756,13.3088-14.96,27.0919-29.4987,40.8311-44.07a15.1772,15.1772,0,0,1-4.33-13.1562c.708-4.1365,2.6235-7.444,5.0291-10.8357,3.4218-4.8247,7.7748-9.069,11.9844-13.1954,5.5916-5.481,11.3117-10.8632,17.3321-15.8742,13.7521-11.4463,28.5479-21.5172,42.6671-32.48,2.7373-5.6764,5.2525-11.4588,7.9789-17.1406,12.9059-26.8951,34.7725-48.37,55.1382-69.7392,20.6045-21.62,41.6344-42.8912,60.3666-66.1942a14.4039,14.4039,0,0,1,12.2942-5.364c18.4812-26.7984,37.16-53.4523,57.5054-78.8946A14.6656,14.6656,0,0,1,1209.964,610.8648Z" transform="translate(22.4087 14.5873)"/><path class="cls-5" d="M1209.964,610.8648c2.5236-3.3584,5.2072-6.641,7.9536-9.9023-2.54-2.53-3.8018-6.738-6.7207-9.9271a62.011,62.011,0,0,0-6.0677-5.0764,14.7661,14.7661,0,0,1-2.9342,11.1613c-4.7123,6.4539-14.72,7.1107-20.7557,2.2918-33.218-26.523-69.1638-49.2966-103.3847-74.4562a923.195,923.195,0,0,1-84.6038-70.9567c-13.4164-12.5807-26.795-25.2108-40.7023-37.2522q-2.2565-1.9538-4.5375-3.8787c-32.8559-16.603-65.24-33.3575-94.8981-55.397C817.9335,331.18,781.3457,306.5155,746.7451,279.18c-10.3922-8.21-20.4655-16.7417-30.33-25.4933C691.2161,442.426,697.4,653.1166,736.2625,840.1541c16.6075,79.9307,54.5889,139.813,106.5424,191.6954,6.4953-7.5575,13.2652-14.8728,19.9381-22.2721,8.0927-8.9739,15.8358-18.2481,23.867-27.2756,13.3088-14.96,27.0919-29.4987,40.8311-44.07a15.1772,15.1772,0,0,1-4.33-13.1562c.708-4.1365,2.6235-7.444,5.0291-10.8357,3.4218-4.8247,7.7748-9.069,11.9844-13.1954,5.5916-5.481,11.3117-10.8632,17.3321-15.8742,13.7521-11.4463,28.5479-21.5172,42.6671-32.48,2.7373-5.6764,5.2525-11.4588,7.9789-17.1406,12.9059-26.8951,34.7725-48.37,55.1382-69.7392,20.6045-21.62,41.6344-42.8912,60.3666-66.1942a14.4039,14.4039,0,0,1,12.2942-5.364c18.4812-26.7984,37.16-53.4523,57.5054-78.8946A14.6656,14.6656,0,0,1,1209.964,610.8648Z" transform="translate(22.4087 14.5873)"/><path class="cls-6" d="M1209.964,610.8648c2.5236-3.3584,5.2072-6.641,7.9536-9.9023-2.54-2.53-3.8018-6.738-6.7207-9.9271a62.011,62.011,0,0,0-6.0677-5.0764,14.7661,14.7661,0,0,1-2.9342,11.1613c-4.7123,6.4539-14.72,7.1107-20.7557,2.2918-33.218-26.523-69.1638-49.2966-103.3847-74.4562a923.195,923.195,0,0,1-84.6038-70.9567c-13.4164-12.5807-26.795-25.2108-40.7023-37.2522q-2.2565-1.9538-4.5375-3.8787c-32.8559-16.603-65.24-33.3575-94.8981-55.397-31.3939-23.33-63.7362-45.3824-94.8-69.1529C747.3345,360.99,743.79,435.6727,743.52,506.5253c-.4965,130.3.1758,274.4478,50.7735,399.1959a361.8579,361.8579,0,0,0,66.3492,106.1744q1.05-1.1592,2.1-2.3182c8.0927-8.9739,15.8358-18.2481,23.867-27.2756,13.3088-14.96,27.0919-29.4987,40.8311-44.07a15.1772,15.1772,0,0,1-4.33-13.1562c.708-4.1365,2.6235-7.444,5.0291-10.8357,3.4218-4.8247,7.7748-9.069,11.9844-13.1954,5.5916-5.481,11.3117-10.8632,17.3321-15.8742,13.7521-11.4463,28.5479-21.5172,42.6671-32.48,2.7373-5.6764,5.2525-11.4588,7.9789-17.1406,12.9059-26.8951,34.7725-48.37,55.1382-69.7392,20.6045-21.62,41.6344-42.8912,60.3666-66.1942a14.4039,14.4039,0,0,1,12.2942-5.364c18.4812-26.7984,37.16-53.4523,57.5054-78.8946A14.6656,14.6656,0,0,1,1209.964,610.8648Z" transform="translate(22.4087 14.5873)"/><path class="cls-7" d="M1209.964,610.8648c2.5236-3.3584,5.2072-6.641,7.9536-9.9023-2.54-2.53-3.8018-6.738-6.7207-9.9271a62.011,62.011,0,0,0-6.0677-5.0764,14.7661,14.7661,0,0,1-2.9342,11.1613c-4.7123,6.4539-14.72,7.1107-20.7557,2.2918-33.218-26.523-69.1638-49.2966-103.3847-74.4562a923.195,923.195,0,0,1-84.6038-70.9567c-13.4164-12.5807-26.795-25.2108-40.7023-37.2522q-2.2565-1.9538-4.5375-3.8787c-32.8559-16.603-65.24-33.3575-94.8981-55.397C837.5736,345.775,821.5956,334.4,805.6593,322.97c-7.8983,37.3113-13.4637,75.3659-17.7419,113.3473-13.925,123.6232-15.2372,250.9725,15.3185,374.63,15.2288,61.63,39.6588,123.9,82.86,171.9368.1718-.1936.3419-.3886.514-.5819,13.3088-14.96,27.0919-29.4987,40.8311-44.07a15.1772,15.1772,0,0,1-4.33-13.1562c.708-4.1365,2.6235-7.444,5.0291-10.8357,3.4218-4.8247,7.7748-9.069,11.9844-13.1954,5.5916-5.481,11.3117-10.8632,17.3321-15.8742,13.7521-11.4463,28.5479-21.5172,42.6671-32.48,2.7373-5.6764,5.2525-11.4588,7.9789-17.1406,12.9059-26.8951,34.7725-48.37,55.1382-69.7392,20.6045-21.62,41.6344-42.8912,60.3666-66.1942a14.4039,14.4039,0,0,1,12.2942-5.364c18.4812-26.7984,37.16-53.4523,57.5054-78.8946A14.6656,14.6656,0,0,1,1209.964,610.8648Z" transform="translate(22.4087 14.5873)"/><path class="cls-5" d="M680.0213,219.8612C658.9285,199.5724,637.837,166.99,606.3768,168.55c-33.7748,1.6746-77.4742,27.81-108.574,40.6677A1979.222,1979.222,0,0,0,284.8285,312.582c-28.18,15.8271-56.46,32.74-77.9405,56.8893-24.2254,27.2351-38.203,61.8313-51.727,95.68-10.21,25.5541-23.3258,52.8948-27.778,80.2345-4.6888,28.7928.9661,25.0587,23.6531,41.6655,8.1166,5.9413,15.9754,12.2971,23.7718,18.7112,66.5989-.172,131.68-20.1461,184.1477-57.6173A1304.4247,1304.4247,0,0,0,680.0213,219.8612Z" transform="translate(22.4087 14.5873)"/><path class="cls-6" d="M657.5723,198.0657q-2.0085-1.96-4.0175-3.92-6.99-6.8181-14.0564-13.5627c-19.1015-10.7574-38.1665-26.3215-59.6283-26.9165-22.8908-.6346-51.6275,14.2073-71.5228,24.1876-44.6159,22.3813-83.4564,54.7976-121.3734,86.8227q-116.0178,97.99-232.0356,195.9792c-28.4,23.9831-59.27,50.0182-23.412,85.8119,19.8808,19.8449,52.84,17.1394,78.2442,13.5185,124.958-17.81,225.5635-106.0614,306.2341-192.5615C565.3694,314.4932,614.0326,258.1557,657.5723,198.0657Z" transform="translate(22.4087 14.5873)"/><path class="cls-7" d="M616.9443,167.969l.2006-.3106c-32.8534-27.1253-110.0656-12.7306-148.8252-6.0055-51.7588,8.9806-102.0267,27.3405-146.3047,55.79C238.509,271.098,177.8156,362.504,170.573,461.4971c-1.0022,13.6991-.8985,28.0353,5.0679,40.4076,90.3272,5.2275,171.0746-52.1567,238.0877-108.08C490.666,329.6187,562.5238,252.1872,616.9443,167.969Z" transform="translate(22.4087 14.5873)"/><path class="cls-5" d="M749.6484,1136.7234c.6708.6629,1.3451,1.3223,2.0117,1.99a10.1419,10.1419,0,0,1,1.2807-.4156c.6984-.1762,1.3985-.3349,2.0975-.5043Q752.3371,1137.2815,749.6484,1136.7234Z" transform="translate(22.4087 14.5873)"/><path class="cls-5" d="M647.5975,790.264C525.6107,644.7622,329.2991,571.5006,165.5869,598.26c7.6533,6.1351,15.1763,12.4559,22.7453,18.6386,11.9482,9.76,23.792,19.65,35.4007,29.8125,11.8424,10.3668,23.4413,21.0151,34.6565,32.0591,10.0329,9.88,19.6773,19.7113,30.81,28.385,21.0889,16.43,45.57,31.6811,59.4242,55.2983,2.6933,4.5912,3.3415,9.57,1.6767,13.9723l24.7,19.788Q475.1679,876.46,575.1458,956.9373c16.3,13.1407,32.6652,26.2022,49.2193,39.022,16.4332,12.7261,33.4884,24.69,49.7041,37.685,8.068,6.4655,15.9525,13.1561,24.0178,19.625,4.2852,3.437,8.6176,6.8172,13.0477,10.0661q2.9772,2.1834,6.0159,4.281c1.1223.773,2.259,1.5237,3.3868,2.2884.15.1016,1.5917.9977,1.3518.8668,14.1088,8.3636,29.4674,14.2213,43.4264,22.7147a67.8994,67.8994,0,0,1,12.3177,4.0656C762.6766,989.9041,725.6691,883.3851,647.5975,790.264Z" transform="translate(22.4087 14.5873)"/><path class="cls-6" d="M564.02,769.1038c-93.5453-87.9-226.5269-132.9709-346.1029-127.4268,1.9416,1.6745,3.8864,3.3453,5.8157,5.0342,11.8424,10.3668,23.4413,21.0151,34.6565,32.0591,10.0329,9.88,19.6773,19.7113,30.81,28.385,21.0889,16.43,45.57,31.6811,59.4242,55.2983,2.6933,4.5912,3.3415,9.57,1.6767,13.9723l24.7,19.788Q475.1679,876.46,575.1458,956.9373c16.3,13.1407,32.6652,26.2022,49.2193,39.022,16.4332,12.7261,33.4884,24.69,49.7041,37.685,8.068,6.4655,15.9525,13.1561,24.0178,19.625,4.2852,3.437,8.6176,6.8172,13.0477,10.0661.3671.2692.7383.5326,1.1068.8C693.8432,956.5349,653.682,853.3545,564.02,769.1038Z" transform="translate(22.4087 14.5873)"/><path class="cls-7" d="M588.4146,861.0152C524.9705,774.8134,388.85,700.3344,277.935,696.7907c-.3148-.01-.6275-.0091-.9421-.0179,3.9218,3.5882,7.9553,7.07,12.2068,10.3825,21.0889,16.43,45.57,31.6811,59.4242,55.2983,2.6933,4.5912,3.3415,9.57,1.6767,13.9723l24.7,19.788Q475.1679,876.46,575.1458,956.9373c16.3,13.1407,32.6652,26.2022,49.2193,39.022,10.9242,8.46,22.12,16.5876,33.1641,24.9006C645.9571,966.96,625.933,911.9915,588.4146,861.0152Z" transform="translate(22.4087 14.5873)"/><circle class="cls-64" cx="682.8058" cy="358.373" r="20.1235"/><text class="cls-65" transform="translate(672.4772 366.7325) rotate(9.6181)">K</text><path class="cls-66" d="M679.9007,332.1032l-3.2462-.55-.5442,3.2118-3.0749-.5211.5443-3.2118-3.1005-.5254.5108-3.0141,3.1.5254.54-3.1861,3.0749.5211-.54,3.1861,3.2462.55Z" transform="translate(22.4087 14.5873)"/><circle class="cls-67" cx="452.9666" cy="582.1003" r="30.1853"/><text class="cls-68" transform="translate(430.5834 595.3253) rotate(-7.7447)"><tspan class="cls-69">M</tspan><tspan x="26.7719" y="0">g</tspan></text><path class="cls-70" d="M441.0359,546.9164c1.64-2.2261,3.3867-4.6234,4.9056-6.7812.7979-1.1754,1.4073-2.22,1.2579-3.3187a1.6955,1.6955,0,0,0-1.9075-1.4575c-1.2467.17-1.8221,1.4442-1.6175,2.7695l-4.6147-.596a6.3794,6.3794,0,0,1,5.562-6.9223c3.8147-.5188,6.7578,1.8906,7.1643,4.8794.3232,2.376-.64,4.25-2.1293,6.2483-.4958.7432-1.0761,1.6029-1.5683,2.373l4.755-.6467.6114,4.4952-12.0541,1.6394Z" transform="translate(22.4087 14.5873)"/><path class="cls-70" d="M464.0892,540.1906l-3.3831.46.4552,3.3473-3.2046.4359-.4553-3.3473-3.2313.4394-.4272-3.1413,3.2313-.4394-.4516-3.3206,3.2047-.4358.4516,3.3205,3.3831-.46Z" transform="translate(22.4087 14.5873)"/><circle class="cls-71" cx="609.3293" cy="422.2369" r="19.7986"/><text class="cls-72" transform="translate(596.5175 432.0507) rotate(-10.7708)"><tspan class="cls-73">C</tspan><tspan x="13.7344" y="0">a</tspan></text><path class="cls-74" d="M588.7033,390.8773c.9545-1.45,1.97-3.0113,2.8513-4.4147a3.1506,3.1506,0,0,0,.6788-2.1227,1.0646,1.0646,0,0,0-1.2444-.8507,1.3856,1.3856,0,0,0-.9225,1.79l-2.9135-.2208a4.006,4.006,0,0,1,3.2583-4.525,3.8194,3.8194,0,0,1,4.6541,2.8222,5.1777,5.1777,0,0,1-1.128,3.9886c-.2863.4825-.6217,1.0408-.9048,1.54l2.96-.5631.5324,2.7984-7.5042,1.4276Z" transform="translate(22.4087 14.5873)"/><path class="cls-74" d="M602.9361,385.8958l-2.1062.4006.3964,2.0839-1.995.38-.3964-2.0838-2.0117.3826-.372-1.9556,2.0116-.3826-.3932-2.0673,1.995-.38.3933,2.0672,2.1062-.4006Z" transform="translate(22.4087 14.5873)"/><circle class="cls-64" cx="553.3048" cy="657.1391" r="20.1235"/><text class="cls-75" transform="translate(546.9076 668.7854) rotate(-12.3628)">K</text><path class="cls-66" d="M544.6092,624.4183l-3.216.7049.6974,3.182-3.0464.6678-.6974-3.1821-3.0718.6733-.6545-2.9862,3.0717-.6732L537,619.6482l3.0464-.6678.6919,3.1566,3.216-.7049Z" transform="translate(22.4087 14.5873)"/><ellipse class="cls-76" cx="655.5907" cy="452.3025" rx="26.4944" ry="27.113" transform="translate(159.417 1071.4137) rotate(-83.9782)"/><path class="cls-77" d="M682.6507,435.2059l-5.035-.5311-.5135,4.868-4.7694-.5031.5135-4.868-4.809-.5073.482-4.5684,4.809.5073.5094-4.8291,4.7693.5031-.5094,4.8291,5.035.5311Z" transform="translate(22.4087 14.5873)"/><text class="cls-78" transform="translate(659.1809 474.2007) rotate(6.022) scale(1.0233 1)">N<tspan class="cls-79" x="19.2225" y="0">a</tspan></text><line class="cls-80" x1="671.6025" y1="712.5777" x2="644.769" y2="697.6301"/><line class="cls-80" x1="672.27" y1="716.7013" x2="645.4364" y2="701.7537"/><circle class="cls-81" cx="642.586" cy="696.5229" r="16.5556"/><text class="cls-82" transform="translate(637.9478 707.1631) rotate(-26.1761)">O</text><line class="cls-80" x1="670.5452" y1="754.2071" x2="674.9942" y2="734.0019"/><circle class="cls-81" cx="670.6464" cy="757.2254" r="16.5556"/><text class="cls-83" transform="matrix(0.7947, -0.607, 0.607, 0.7947, 668.1641, 768.5655)">O</text><line class="cls-80" x1="688.2821" y1="706.8463" x2="705.2212" y2="691.4053"/><circle class="cls-81" cx="705.6935" cy="690.5375" r="16.5556"/><text class="cls-84" transform="translate(701.7574 701.4579) rotate(-29.9062)">O</text><circle class="cls-85" cx="678.6979" cy="718.5088" r="16.7705"/><text class="cls-86" transform="matrix(0.9288, -0.3706, 0.3706, 0.9288, 674.0812, 727.6897)">N</text><path class="cls-87" d="M690.5075,662.0714l7.6218-3.0412,1.0725,2.688-7.6217,3.0412Z" transform="translate(22.4087 14.5873)"/></g><circle class="cls-3" cx="612.851" cy="560.228" r="301.2997"/><text class="cls-88" transform="translate(543.4582 545.2411) rotate(-0.4893)">liquid <tspan x="-5.9253" y="55.9834">p</tspan><tspan class="cls-89" x="22.8125" y="55.9834">h</tspan><tspan x="48.4246" y="55.9834">ase</tspan></text></g></g></g></svg>