<svg xmlns="http://www.w3.org/2000/svg" viewBox="0 0 1291.41 900.19"><defs><style>.cls-1,.cls-25{fill:#fff;}.cls-2{fill:#81a1c5;}.cls-14,.cls-20,.cls-26,.cls-3{fill:none;stroke-miterlimit:10;}.cls-20,.cls-3{stroke:#fecf08;}.cls-3{stroke-width:1.54px;}.cls-4{fill:#fecf08;}.cls-16,.cls-25,.cls-5{font-size:30px;}.cls-16,.cls-5{fill:#df6572;}.cls-18,.cls-25,.cls-5{font-family:Acre-Thin, Acre;font-weight:200;}.cls-16,.cls-21,.cls-6{font-family:Acre-Medium, Acre;font-weight:500;}.cls-7{letter-spacing:-0.02em;}.cls-8{letter-spacing:-0.01em;}.cls-9{letter-spacing:0em;}.cls-10{letter-spacing:-0.01em;}.cls-11{letter-spacing:0em;}.cls-12,.cls-21{letter-spacing:-0.01em;}.cls-13{fill:#4e7383;}.cls-14,.cls-26{stroke:#ffcf01;}.cls-14{stroke-width:1.55px;}.cls-15{fill:#ffcf01;}.cls-17{letter-spacing:-0.02em;}.cls-19{fill:#2e61a2;}.cls-20{stroke-width:1.38px;}.cls-22{letter-spacing:-0.03em;}.cls-23{letter-spacing:-0.01em;}.cls-24{fill:#5c5052;}.cls-26{stroke-width:2px;}.cls-27{letter-spacing:-0.02em;}.cls-28{letter-spacing:-0.03em;}.cls-29{letter-spacing:0em;}.cls-30{letter-spacing:-0.02em;}.cls-31{letter-spacing:0em;}</style></defs><g id="Layer_2" data-name="Layer 2"><g id="Pore_Space" data-name="Pore Space"><g id="Layer_123" data-name="Layer 123"><path class="cls-1" d="M260.7,403.87c19.14-21.59,42.38-40.8,61.31-61.66,27.63-30.44,53.91-62.06,80.17-93.67C454.54,185.51,507.1,122,569.32,68.27c25.25-21.79,52.29-42,82.84-55.41C690-3.72,727.36-.41,767.51,2Q833,5.87,898.32,11.64c56,5,112,10.22,167.85,17.31,52,6.6,109.44,10.78,159.47,27,16.28,5.27,31.89,13.83,43,26.88,39.36,46.39,23.31,123.28-14.3,165.52-14.43,16.21-31.46,29.88-46.65,45.36-38.49,39.22-70.56,85.72-97.17,133.67-7,12.7-14.15,26.14-26.16,34.3-16.54,11.23-37.15,9.44-56.12,9.35-217.71-1-435.5,1.08-653.27-1.36-39-.44-77.52-1.6-116.47-1.6-10-.14-19.24-2.77-24.65-11.66-1.57-2.59-1.51-4.89-.83-7.8,1.75-7.52,5.42-14.7,9.57-21.15A195,195,0,0,1,260.7,403.87Z"/></g><g id="Layer_130" data-name="Layer 130"><path class="cls-2" d="M639.34,595.6c1.78,19.66,3,47.48-4,66.15-3.18,8.44-7.36,16.59-9.34,25.33-5.77,25.5,1.41,52.68-19.59,73.79-14.39,14.45-41,19.94-60.83,24.18a268.42,268.42,0,0,1-75.73,5.19c-20.48-1.52-41.13-5.53-59-15s-32.73-25.05-37.44-43.75c-10.67-42.34,10.7-89.09,29.21-126.15,29.92-59.89,82.66-105,154.34-91C602.69,523.17,635.23,549.88,639.34,595.6Z"/><path class="cls-2" d="M804.37,517c-1,1.65-1.93,3.28-2.91,4.91-10.93,18.11-21.84,38.95-40.21,50.34-22.16,13.74-50.32,15.66-75.52,11.17-28.48-5.06-56.2-24.84-78.9-41.56-14-10.3-17.32-25.47-15.85-42.33,1.67-19,4.13-35,.82-54.16-3.6-20.78,6.18-37.56,16.14-54.71,11.57-19.92,21.74-38.38,39.69-53.38,36.53-30.53,93.06-47.46,138.31-29.81a103.24,103.24,0,0,1,24.53,13.83c20.24,15.26,29.63,40.53,31.38,64.84A169.9,169.9,0,0,1,831.8,458.4,388.63,388.63,0,0,1,804.37,517Z"/><path class="cls-2" d="M265.58,694.21l1.38.37c12.49,3.27,25.32,6,38.28,6.29,11.83.28,26.32-5.63,37.4-.46,8.23,3.84,12.72,12.79,15.5,21.43,4.93,15.32,9.92,28,22.08,39.2,22.4,20.63,50.34,31.31,80.35,34.55a242.61,242.61,0,0,0,48.19.52c21.1-2.08,41.21-9.31,61.37-15.43l3.65-1.1c25.84-7.68,54.08-13.06,79.32-3.6,20,7.5,35.8,23.79,52.41,36.65,26.43,20.45,63.66,31,96.9,28,51.47-4.62,71.61-43.69,79.18-90q4.29-26.25,7-52.71c1.64-15.9-.83-33.9,2.29-49.14,1.83-8.94,7.78-17.6,16.56-20.06,6.3-1.77,13-.18,19.38,1.11a217,217,0,0,0,63.46,3.32c27.33-2.6,40.67-15.71,54.72-38.34,5.82-9.38,11.7-18.86,15.25-29.31,3.91-11.52,6.43-24.27,8.51-36.27,2.41-13.89,5.6-28.78,6-42.87,0-1.62.54-4-.15-5.48a3,3,0,0,0-2.72-1.6c-2.52-.29-5.12-.12-7.65-.28l-14.27-.9L867.54,466.64c-20.73-1.31-41.49-3.07-62.25-3.92-5-.21-11.9,1.66-16.45-1-2.65-1.54-4-4.57-5-7.34-.36-1-2.6-13.08-1.29-13-125.23-9.92-250.7-19.86-374.35-42-4.9-.88-10.11-1.74-14.72.13-7.89,3.21-9.71,12.13-9.44,19.79.14,4.31,1.36,8.51.8,12.81a34.28,34.28,0,0,0-.63,4.84c0,1.74,2.28,10.65-.84,10-.62-.12-1.62-1.15-2.18-1.5l-2.7-1.7c-3.49-2.17-7-4.26-10.61-6.23a158.21,158.21,0,0,0-47.52-16.48c-27.37-5.06-52.87-7.8-76,10.92C198,469.7,197.8,545,197.78,599.17,197.76,644.77,220.44,681.82,265.58,694.21Z"/><path class="cls-2" d="M996,153c.22,13.17-3.38,28.14-1.94,41,.65,5.78,3.85,10.86,3.9,17.09A40,40,0,0,1,993,230.7c-1.62,2.93-3.61,5.65-5.42,8.47a106.26,106.26,0,0,0-15,37.07c-2.33,12.36-6.53,24-15.76,32.95-13.46,13-37,16.78-54.58,19.72a214.49,214.49,0,0,1-66.38.74c-17.77-2.59-35.53-7.58-50.51-17.66s-27-25.78-29.92-43.91c-1.79-11-.19-22.27,2.51-33,1.26-5.07,3.26-10.09,4.11-15.23.8-4.83-.15-9.17,0-14,.18-6,3.68-11.21,6-16.69,3-7.17,4.12-15,6.46-22.42,2.15-6.83,5.34-13.27,8.52-19.68,1.89-3.8,4.13-8.08,8-10.28.84-.49,2.15-.6,2.89-1.13,1-.72,1.54-2.87,2-4,1.37-3,2.77-6,4.23-9,5.76-11.71,12.57-23.12,21.86-32.4C850.4,61.89,893,60.5,929.16,70.67,968.52,81.74,995.23,109.09,996,153Z"/><path class="cls-2" d="M741.07,270.13c-15.05,18.54-36.7,32.65-60.78,35.25-13.58,1.46-29.57-4.88-42.13-9.53l-.36-.14a228.91,228.91,0,0,1-46.23-23.4c-4.92-3.24-10.21-6.75-14.25-10.81s-8.92-6.66-12.61-11.18c-7.33-9-11.45-20.42-12.64-31.89-1.72-16.56,2.06-33.19,6.93-49.11,13.48-44.11,28-103.6,76.56-121.23A213.38,213.38,0,0,1,737,36.91c32.94,4.42,56.26,27.59,61.13,60.32,1.59,10.71,3.17,21.73.69,32.29-3,13-12.24,22.9-17.09,35-4.54,11.38-5,25.07-7.79,37C768.52,224.42,757.42,250,741.07,270.13Z"/><path class="cls-2" d="M955.06,314.36c-25.57-.43-54.59,12.05-70.14,33-8.9,12-16.47,44.88-23.36,58.06C853,421.9,848,435.54,838.75,447.25c-23.14,29.22-29.7,67-17.4,102.73,5,14.68,15.29,24.59,28.45,31.84,14.77,8.13,28.53,16.17,44.65,21.75,30.4,10.51,70.79,28.49,103,17.43,17.66-6.07,37.25-17.61,49.08-32.28,13.75-17.06,18.47-39.52,22.06-61.15a1001.76,1001.76,0,0,0,12.55-120.23c.72-16.46.69-34.7-9.89-48.35-10-12.87-26.11-18.91-40.35-25.64C1006.17,321.68,982.49,314.82,955.06,314.36Z"/><path class="cls-2" d="M600.13,408c-4,8.73-6.51,14.92-12.15,22.71-10.1,14-22.57,25.52-31.26,40.42-8.1,13.87-13,30.09-27.8,38.64-21,12.14-51.74,6.18-74.73,4.65-20.89-1.38-37.22-9-47.27-27.87-8.69-16.35-19.06-34.49-24.71-52.13-5.3-16.58-4.87-34.36-4.75-51.77.2-29.08-.22-58.77,8.33-86.92,7.58-24.93,24.21-47.5,47.5-59.95,28.35-15.15,59.3-10.31,88.12.86,15.49,6,30.55,12.93,46.26,18.39,20.11,7,43,13.75,52.75,35.11,11.15,24.33,4.72,54.17-3,78.49C615.45,374.84,602.81,402.14,600.13,408Z"/><path class="cls-2" d="M1193.94,268.25c-6.72,7.12-13.77,14-20.9,20.66-13,12.25-25,25.61-38.62,37.27-11.68,10-26.93,23.3-42.35,26.36l-.7.13c-12.4,2.21-25.39-1.43-36.57-6.65-2.85-1.33-5.5-3.13-8.35-4.41-2.64-1.19-5.62-1.71-8.33-2.95a39,39,0,0,1-6.94-4c-2-1.46-4.25-1.86-6.6-2.65a69.12,69.12,0,0,1-15.46-7.4,16.1,16.1,0,0,1-5.84-5.69,39.69,39.69,0,0,0-2.15-3.45,58.82,58.82,0,0,1-10.19-21.36c-4.13-17.69-9.4-37.5-10.31-55.64-.86-17.06,4-33.81,8.52-50.28,7.5-27.52,14.57-55.79,29.76-80.32,13.46-21.73,34.9-38.95,60.12-44.89,30.69-7.24,58.82,5.14,83.33,23,13.18,9.59,25.72,19.94,39.24,29.07,17.31,11.68,37.28,23.85,41.18,46.56,4.45,25.87-9.15,52.55-22.59,73.66A223.73,223.73,0,0,1,1193.94,268.25Z"/><path class="cls-2" d="M219.81,471.82c9-21.51,25.34-40.68,47.16-49.75,12.31-5.12,29-3.59,42.06-2.7,23.16,1.58,47.57,7,66,21.95,9.64,7.81,13.74,16.89,20.07,26.95,8.69,13.8,14.95,25.61,16.49,42.28,1,11.18.88,22.47,2.72,33.57s3.81,21.94,2.18,33.1c-4,27.18-13.81,56.44-36.71,73.3A208,208,0,0,1,288,688.94c-32.05,4.95-60.26-10.3-73.84-39.59-4.45-9.59-9-19.46-9.56-30-.73-13,5.14-24.81,6.33-37.51C212,569.9,208.65,557,208,545,206.73,522.16,210.07,495.18,219.81,471.82Z"/><path class="cls-2" d="M867.18,780c-9.08,21.46-25.54,40.55-47.41,49.51-12.33,5.05-29,3.44-42.07,2.49-23.15-1.69-47.54-7.27-65.89-22.28-9.6-7.85-13.66-17-19.94-27-8.61-13.84-14.82-25.69-16.27-42.37-1-11.18-.77-22.47-2.56-33.57s-3.7-22-2-33.12c4.11-27.15,14.09-56.37,37.08-73.11a208,208,0,0,1,92-38c32.07-4.8,60.21,10.6,73.64,39.95,4.4,9.62,8.87,19.51,9.41,30.09.66,13-5.27,24.78-6.52,37.47-1.17,11.9,2.13,24.85,2.73,36.81C880.51,729.75,877,756.71,867.18,780Z"/><line class="cls-3" x1="306.15" y1="780.11" x2="364.96" y2="698.2"/><polygon class="cls-4" points="366.75 704.01 364.02 699.52 358.89 698.36 369.51 691.87 366.75 704.01"/><text class="cls-5" transform="matrix(1, 0, 0, 1, 262.45, 785.65)"> <tspan class="cls-6"><tspan x="-87.22" y="36">g</tspan><tspan class="cls-7" x="-68.75" y="36">r</tspan><tspan x="-59.5" y="36">a</tspan><tspan class="cls-8" x="-41" y="36">v</tspan><tspan class="cls-9" x="-25.94" y="36">i</tspan><tspan class="cls-7" x="-17.63" y="36">t</tspan><tspan x="-9.04" y="36">atio</tspan><tspan class="cls-10" x="44.83" y="36">n</tspan><tspan class="cls-11" x="61.84" y="36">al </tspan></tspan><tspan class="cls-12" x="-37.14" y="72">w</tspan><tspan x="-14.28" y="72">a</tspan><tspan class="cls-7" x="4.23" y="72">t</tspan><tspan x="11.43" y="72">er </tspan></text></g><g id="Layer_129" data-name="Layer 129"><path class="cls-13" d="M701.79,43.2c-12,.93-23.95,3.95-35.31,7.46C646.05,57,626.77,62.28,611,77.41,593.46,94.13,584.49,117,578.1,139.89c-6.22,22.23-16.21,48.69-11.43,71.9,4.93,24,21.46,43.81,41.25,57.45,20,13.76,45.8,29.06,70.89,27.53a66.71,66.71,0,0,0,47.72-25,290.44,290.44,0,0,0,48.19-89.52c9.47-28.91,23.12-69.61,9-98.79-10.5-21.78-35.55-34-58.14-38.91A82.61,82.61,0,0,0,701.79,43.2Z"/><path class="cls-13" d="M986.21,150.92c.06,20.75-6,42.26-10.48,61.7-6.88,29.66-6.61,66.8-31.41,88.59-25.24,22.17-77.13,23.66-109.1,19.93-32.39-3.79-63.91-19.48-70.28-54.3-8.54-46.57,24.36-93.34,47.26-130.91,15.74-25.83,36.43-49.59,66.29-58.7C928.54,62,986.07,96.23,986.21,150.92Z"/><path class="cls-13" d="M949.5,326.71c-14,2-27.51,6.55-39.12,14.62-27.34,19-27.61,48.57-39.88,76.36-8.81,19.94-24.74,36.13-34.17,55.8-12.91,26.92-15.33,69.42,7.48,92.29,13.85,13.89,33.93,18.7,50.69,28.13a189.37,189.37,0,0,0,63.83,21.66c36.95,5.67,63.91-7.16,82.32-38.8,29.18-50.11,25.06-103.18,25.71-158.83.05-3.95.11-7.9.07-11.85-.24-26.35-8.78-45.63-30.81-60.62C1010.9,328.64,978.9,322.54,949.5,326.71Z"/><path class="cls-13" d="M471.61,239.12a76.68,76.68,0,0,0-37.47,12.14c-48.64,31-46.29,103.46-45.13,153,1.09,46.49,25.3,101.46,80.22,100.92,26.15-.26,48.35-3.63,67.06-23.11,30.72-32,57.81-74.55,74.05-115.41,5.14-12.93,3.59-26.61,3.63-40.12s3.15-26-5.56-37.89c-7.48-10.19-19.9-15.62-32.06-19.58C542.08,258,509.17,236.92,471.61,239.12Z"/><path class="cls-13" d="M797.59,323.88c-10.75-4.77-22.81-7.4-33.63-9.09-30.47-4.75-60.71,4.69-88.44,16.46-19.67,8.34-35.67,23.61-48.13,40.67-9.66,13.23-18.13,27.59-23,43.3-5.57,17.9-2.46,33.37-3,51.4-.43,15.39-3.44,35.1.15,50.12a29.14,29.14,0,0,0,.93,3.19c5.61,16.09,25.06,23,38,32.31,13.29,9.57,27.66,18.29,44.17,21,28.49,4.63,67.23,1.26,87.65-20.7,8.88-9.55,12.21-22.17,18.46-33.29a451,451,0,0,0,37.55-86.3c6.13-19.59,5.37-39.82,2.56-60C827.76,350.76,818.86,333.35,797.59,323.88Z"/><path class="cls-13" d="M770.12,578.59c-11,4.11-21.38,10.16-31.09,16.52-17.45,11.42-34.1,21.6-44.85,40.06-11.88,20.39-14.11,44.29-13.94,67.44.17,22.53-2.06,50,8.68,70.5,11.1,21.16,31.94,35.29,54.18,42.74,22.42,7.52,50.78,14.88,73.89,6.69l.64-.23c17.87-6.56,30.58-21.38,38.88-38.06,21.35-42.87,27.79-96.11,19.58-143-2.91-16.62-6.66-34-18.23-47-15.72-17.59-42.52-22.32-65-20.79A80.41,80.41,0,0,0,770.12,578.59Z"/><path class="cls-13" d="M1114.53,75.72A75.14,75.14,0,0,0,1076,77.8C1022,95,1006,164.25,994.66,211.53,984,255.89,993.13,314.1,1045.34,327.4c24.86,6.34,46.75,8.73,69.39-5,37.19-22.62,73.57-56.14,99.25-90.79,8.12-11,10.1-24.34,13.54-37.14s9.53-23.88,4.26-37.32c-4.53-11.54-14.94-19.82-25.48-26.63C1176.61,111.3,1150.7,83.08,1114.53,75.72Z"/><path class="cls-13" d="M327.48,675.45c10.63-5,20.49-11.86,29.66-19,16.47-12.79,32.24-24.28,41.47-43.54,10.19-21.29,10.49-45.3,8.45-68.35-2-22.44-2-50-14.34-69.57-12.77-20.2-34.68-32.6-57.45-38.23-22.95-5.69-51.82-10.74-74.19-.71a65.15,65.15,0,0,0-35,39.23c-14.37,45.07-20.38,95-12.39,141.83,1.84,10.78,4.43,21.59,9.55,31.26,3.42,6.45,10.17,13.47,15.49,18.53,17.09,16.26,44.18,18.81,66.47,15.48A80.7,80.7,0,0,0,327.48,675.45Z"/><path class="cls-13" d="M628.07,594.06c1.61,21.6-3.65,44.41-7.35,65-5.64,31.35-2.55,70-29.23,94.37-27.16,24.77-86.28,29.79-123.06,28-37.27-1.79-74.42-16-84.31-51.87C370.9,681.6,405,630.7,428.28,590c16-27.95,37.88-54.08,71.29-65.55C555.56,505.24,623.81,537.1,628.07,594.06Z"/><path class="cls-14" d="M988.68,766c.91-10.14-2.22-20.51-7.81-29.6a76.41,76.41,0,0,0-33.43-29.58c-19.73-8.75-42-11.5-63.63-12.47"/><polygon class="cls-15" points="887.74 689.77 885.43 694.54 887.26 699.52 875.95 694.08 887.74 689.77"/><text class="cls-16" transform="matrix(1, 0, 0, 1, 919.71, 813.18)">plant a<tspan class="cls-17" x="99.27" y="0">v</tspan><tspan x="114" y="0">ailable</tspan><tspan class="cls-18" x="209.31" y="0"> </tspan><tspan class="cls-18"><tspan class="cls-12" x="72.76" y="36">w</tspan><tspan x="95.62" y="36">a</tspan><tspan class="cls-7" x="114.13" y="36">t</tspan><tspan x="121.33" y="36">er</tspan></tspan></text></g><g id="Layer_128" data-name="Layer 128"><path class="cls-19" d="M766.83,77.14a60.64,60.64,0,0,0-18.75-13.08c-10.22-4.73-21-9.27-32.25-10.88s-22.22,1.41-33.41,2.43C653,58.3,626.33,75.16,608.1,97.94c-14.83,18.54-22,41.23-26.59,64.21-4.71,23.76-13.19,51.25,1.37,73.24,12.68,19.13,33.93,31.46,53.16,43.05,19.43,11.72,41.43,14.29,62.37,4.48,23.07-10.81,38.26-34.12,49.71-55.93,12.34-23.49,23.78-48.94,29.62-75.32C784,123.59,784.68,95.91,766.83,77.14Z"/><path class="cls-19" d="M567.09,758.59Q555,764.25,538.93,766l-42,4.51c-29.75,3.19-67.06,1.58-88.8-20.07-36.21-36.08-11-85.66,11.4-121.66,23.4-37.6,46-87.86,96.93-98.39,44.14-9.13,95.16,18.74,102,59.58,3,17.74-1.72,35.7-6.39,53.12-6.29,23.43-5.11,48.21-11.07,71.73C595.63,736,584.48,750.42,567.09,758.59Z"/><path class="cls-19" d="M922.71,304.82a71.68,71.68,0,0,1-25,5.47l-37,2c-26.16,1.39-58.6-2.23-76.2-24.14-29.33-36.52-4.24-82.51,17.57-115.68C824.87,137.8,847.73,91,892.82,83.78c39.08-6.26,81.83,23.24,85.27,62.66,1.49,17.13-3.74,34-8.9,50.43-7,22-7.48,45.8-14.15,68C949,284.81,938.39,298,922.71,304.82Z"/><path class="cls-19" d="M926.76,342c-18.41,10.95-27.32,32.16-34,52.27S880,435.86,864.29,450.34c-33.7,31.14-39.7,104.46,9.13,123.5,17.61,6.87,32.19,19.29,49.74,26.11,18.32,7.12,38.53,9,58.07,8.7,71.71-1.21,78.29-116.9,76.82-167.31-1-36-8.27-80.72-45.86-96.74C987.25,334,951.18,327.48,926.76,342Z"/><path class="cls-19" d="M495.17,250.82c-30.83-5.46-61.09,9.29-78.05,35.53-12.83,19.86-16.77,44.94-18.56,68.25-2.74,35.66-6.36,78.37,15.15,109.17,23.93,34.27,71.2,47.67,105.94,22.81,21.88-15.66,37.72-40.62,51.85-63.31,14.36-23,28.3-49.76,33-76.92,7.45-42.61-19.72-65.11-56-77.86C529.93,262,512.82,254,495.17,250.82Z"/><path class="cls-19" d="M800.29,341.18c-1.51-1.3-3.11-2.55-4.82-3.76-18.93-13.39-44.34-15.74-67.35-11.36q-68.77,13.11-105,70.93c-4.11,6.56-7.84,13.44-9.75,20.88-5.52,21.52-1,47.1-.28,69.05.56,18.27,9.61,39,24,51.2,6.71,5.68,15,9.29,23.11,12.82,26.59,11.54,52.22,21,81.1,9.94,28.16-10.83,40.77-35.31,52.5-60.42a305.05,305.05,0,0,0,26-87.75C823.14,387.59,821.09,359.13,800.29,341.18Z"/><path class="cls-19" d="M840.12,592.78A59,59,0,0,0,819,585.61c-10.86-1.67-22.21-3-33.17-1.46s-20.44,7.35-30.65,11.34C728.32,606,707.9,629,697,655.3c-8.88,21.4-9.49,44.62-7.53,67.39,2,23.55,1.54,51.61,21.15,68.27,17.06,14.49,40.33,20.29,61.49,25.94,21.38,5.72,42.7,2.17,59.67-12.71,18.69-16.38,26.61-42.35,31.43-65.89,5.2-25.36,9-52.32,7.34-78.62C868.75,631.68,861.93,605.53,840.12,592.78Z"/><path class="cls-19" d="M1133.93,92.74c-27.86-12.94-60.26-6.57-82.94,14.05-17.17,15.6-27.21,38.39-34.77,60-11.57,33.12-25.74,72.7-13.1,107.33,14.07,38.5,55.51,63.1,94.71,48.27,24.68-9.34,46-29,65.09-47,19.41-18.24,39.35-40.06,50.68-64.62,17.78-38.52-2.31-66.7-33.54-87.92C1164.08,112.05,1149.88,100.14,1133.93,92.74Z"/><path class="cls-19" d="M256.3,661.1a121.32,121.32,0,0,0,35.18,7.61c17.89,1,31.06-4.86,46.37-13.24,15-8.24,29.55-18.13,40.1-31.86,9.51-12.38,17.83-25,20.82-40.56,4.47-23.21,1.45-45.93-1.48-69.07-2.37-18.64-6.45-38.87-22.15-51.08-17.68-13.74-41.18-18.52-62.56-23.25-21.61-4.78-42.76-.31-59.06,15.29-18,17.18-24.75,43.46-28.55,67.19-2.27,14.23-2.62,28.63-4.6,42.69a156.46,156.46,0,0,0,.53,47.67c3.23,19.26,13.62,40.08,32.69,47.58C254.49,660.42,255.4,660.77,256.3,661.1Z"/><path class="cls-20" d="M72.4,536.8c15.19-69.23,96-92.72,159.88-72.25q6,1.92,11.83,4.1"/><polygon class="cls-4" points="239.47 471.58 242.74 468.17 242.56 463.44 250.66 471.17 239.47 471.58"/><text class="cls-5" transform="translate(82.84 550.93) rotate(0.32)"> <tspan class="cls-21"><tspan x="-82.2" y="36">h</tspan><tspan class="cls-22" x="-65.31" y="36">y</tspan><tspan class="cls-9" x="-50.31" y="36">g</tspan><tspan class="cls-7" x="-31.83" y="36">r</tspan><tspan class="cls-8" x="-22.59" y="36">o</tspan><tspan class="cls-23" x="-5.13" y="36">s</tspan><tspan class="cls-9" x="7.56" y="36">copic </tspan></tspan><tspan class="cls-12" x="-37.14" y="72">w</tspan><tspan x="-14.28" y="72">a</tspan><tspan class="cls-7" x="4.23" y="72">t</tspan><tspan x="11.43" y="72">er </tspan></text></g><g id="Layer_127" data-name="Layer 127"><path class="cls-24" d="M625.67,428.59c-1.84,50.33-14.87,82.63,29,106.72,32.89,18,54.71,35.68,96.36,6.4,34.28-24.1,58.87-95.52,60.48-134.45,1.62-38.57-15-58.72-48-69.71-39-13-81.06,7.12-108.17,35.07-11.57,11.92-31.84,30.28-29.74,56"/><path class="cls-24" d="M456.77,267c8.9-5.73,20.8-11.87,31.64-10,8.06,1.41,14.75,6.67,22.24,9.62,9.05,3.55,18.18,7,27.39,10.13,12.92,4.39,26.54,8.42,36.54,17.72C588,307,592.26,327,590.64,345.3c-1.92,21.65-10.82,42.07-21.18,61.17-12.23,22.53-26.88,44.09-46.11,61-10.56,9.3-23,17.32-36.92,19.12-11.85,1.52-23.92-1.62-34.66-6.85-12.36-6-23.49-15-30.61-26.81s-9.87-25.42-10.66-39,.34-27.21.59-40.83c.22-11.27.29-22.54,1.33-33.78.51-5.56,1.7-10.89,2.49-16.4.81-5.68,1-11.48,2.66-17,3.73-12.3,13.83-20.81,23.69-28.26C446.27,273.88,451.5,270.4,456.77,267Z"/><path class="cls-24" d="M578.62,551.37c-20.39-12.73-53.13-15-74.05-6.16-14.13,5.95-24.72,15.65-33.37,26-8.13,9.77-14.78,20.27-21.41,30.75l-28.47,45c-6.84,10.8-8.38,20.8-11.74,32.31-6.59,22.59-1.38,46.44,20.6,65.35,12.75,11,33,16.63,49.44,17.27,20.66.79,46.32.65,66.19-5.48s34.43-21.7,41.29-41.08c5.73-16.17,3.72-33.26,5.14-50,1.44-16.93,5.77-34,8.71-50.72,2.67-15.17,5.09-31.52-4.45-45.86A58.82,58.82,0,0,0,578.62,551.37Z"/><path class="cls-24" d="M966.78,342.64c23.67-.64,51.25,14.8,63,33.91,8,12.91,10.91,27.33,11.92,41.32.94,13.17.28,26.21-.39,39.22l-2.85,55.84c-.69,13.41-5.18,23.27-9.06,35.47-7.62,23.94-25.46,42.74-53.94,48.12C948.39,601.65,874.86,571,860.25,543c-12.86-24.71-2.09-55.62,14.14-81.49,3.42-5.44,8.09-9.63,12-14.53,4.25-5.28,6.19-12.61,8.84-18.76l17.39-40.28c6.53-15.14,14-31.22,29.82-39.1A58.23,58.23,0,0,1,966.78,342.64Z"/><path class="cls-24" d="M594.18,146.65c-6.9,49-21.51,75.33,17,102.71,28.87,20.51,46.55,43.72,88.47,18.78,34.5-20.53,64.82-88.12,70.34-126,5.48-37.53-8-58.66-37.63-72.29-35.07-16.12-76.46-.16-104.66,24.76-12,10.62-32.86,26.78-33.54,52.05"/><path class="cls-24" d="M873,300.6c-202.38,43.63-13.18-285.86,80-189.44,32.86,34,8.33,73.18,1.43,116.32-4.93,30.94-25,74.15-49,74.36-10.42.42-20.22-3.46-32.46-1.24"/><path class="cls-24" d="M696.2,707.84c6.81,47.79.26,76.44,43.79,91.65,32.62,11.4,55.48,28.36,88-6.38,26.77-28.59,36.87-100.16,31.77-137.17-5-36.65-23.36-52.82-54.87-57.55-37.24-5.6-71.7,20.58-91.38,51.58-8.4,13.22-23.54,34-17.32,57.87"/><path class="cls-24" d="M1088.23,102.1c9.57-3.89,22-7.62,31.84-3.88,7.28,2.77,12.47,9,18.89,13.11,7.75,5,15.62,9.9,23.61,14.51,11.23,6.48,23.19,12.75,30.63,23.38,10,14.33,9.78,34.09,4.41,51.27-6.36,20.29-19,38.16-32.78,54.51-16.24,19.3-34.55,37.24-56.19,50-11.88,7-25.23,12.44-38.73,11.67-11.45-.66-22.14-5.79-31.14-12.68-10.35-7.94-18.92-18.5-23.14-31s-3.93-26-1.81-39.06,6-25.87,9.15-38.8c2.57-10.7,5-21.43,8.35-31.95,1.65-5.22,3.89-10.08,5.79-15.19,2-5.26,3.34-10.77,6.08-15.73,6.09-11,17.38-17.38,28.22-22.72C1076.91,106.8,1082.56,104.41,1088.23,102.1Z"/><path class="cls-24" d="M356.4,632.19c11.89-11.52,25.12-26.6,29.87-42.73,5.32-18.05,6.82-36.23,6.47-55-.34-18.12-1.19-37.12-11.91-52.53S352,458.23,334.29,451.83c-12-4.34-24.72-8.2-37.32-6.26-10.8,1.67-20.64,7.55-28.48,15.16-14.24,13.83-22.15,32.84-28.33,51.69-7.76,23.66-13.46,48.25-13.63,73.15-.1,15.29,2.05,31.08,9.86,44.24,11.75,19.8,35.5,30.86,58.52,30.23S339.86,648.21,356.4,632.19Z"/><text class="cls-25" transform="translate(653.37 428.38)">solid - soil<tspan x="13.6" y="36">particles</tspan></text></g><g id="Layer_132" data-name="Layer 132"><path class="cls-26" d="M496.12,430.89c-.56,12.91.42,24.75,7.67,35.93,12,18.53,34.64,25.66,55.95,24"/><polygon class="cls-15" points="555.8 497.56 557.64 490.97 554.17 485.07 569.79 489.38 555.8 497.56"/><text class="cls-25" transform="translate(423.49 347.4) rotate(-0.49)"><tspan class="cls-12">w</tspan><tspan x="22.86" y="0">a</tspan><tspan class="cls-27" x="41.37" y="0">t</tspan><tspan x="48.57" y="0">e</tspan><tspan class="cls-28" x="65.58" y="0">r</tspan><tspan class="cls-27" x="73.38" y="0">-</tspan><tspan x="85.44" y="0">filled </tspan><tspan x="42.85" y="36">po</tspan><tspan class="cls-27" x="79.51" y="36">r</tspan><tspan class="cls-29" x="87.61" y="36">e </tspan><tspan x="32.7" y="72">space</tspan></text></g><g id="Layer_133" data-name="Layer 133"><path class="cls-26" d="M956,436.8c1-10.12-1.62-20.41-6.43-29.37-6.51-12.14-16.75-22.91-29.23-28.91-16.45-7.91-35-10.44-53.25-11.19"/><polygon class="cls-15" points="872.09 361.31 869.19 367.51 871.64 373.89 856.95 367.08 872.09 361.31"/><text class="cls-25" transform="translate(891.25 479.93)">ai<tspan class="cls-28" x="25.59" y="0">r</tspan><tspan class="cls-30" x="33.39" y="0">-</tspan><tspan class="cls-31" x="45.45" y="0">filled</tspan><tspan x="-28.68" y="36" xml:space="preserve"> po</tspan><tspan class="cls-7" x="18.48" y="36">r</tspan><tspan x="26.58" y="36">e space</tspan></text></g></g></g></svg>