<svg xmlns="http://www.w3.org/2000/svg" viewBox="0 0 803.5996 768.3929"><defs><style>.cls-1{fill:#ebbd25;stroke:#5e5252;}.cls-1,.cls-2,.cls-8,.cls-9{stroke-miterlimit:10;}.cls-1,.cls-9{stroke-width:4.4625px;}.cls-2{fill:none;stroke-width:1.4875px;}.cls-2,.cls-8,.cls-9{stroke:#5c5052;}.cls-3{font-size:40px;font-family:Acre-Regular, Acre;}.cls-4{letter-spacing:-0.009em;}.cls-5{letter-spacing:0em;}.cls-6{letter-spacing:-0.016em;}.cls-7{letter-spacing:-0.14em;}.cls-8{fill:#c17443;stroke-width:2.975px;}.cls-9{fill:#5c5052;}.cls-10{letter-spacing:-0.031em;}</style></defs><g id="Layer_2" data-name="Layer 2"><g id="Layer_20" data-name="Layer 20"><g id="Layer_19" data-name="Layer 19"><polygon class="cls-1" points="83.242 199.192 124.64 161.394 167.838 136.195 227.235 107.397 290.231 89.398 358.628 76.798 412.625 76.798 473.822 87.598 526.019 98.397 578.216 128.996 625.013 170.393 657.412 215.391 695.21 272.988 709.609 317.985 718.609 370.183 718.609 407.981 718.609 458.378 706.009 514.175 686.21 562.772 644.812 629.369 616.014 665.367 574.616 695.965 529.619 721.164 468.422 751.762 400.025 766.162 349.628 766.162 281.232 758.962 225.435 746.363 178.637 722.964 126.44 688.766 83.242 650.968 52.644 604.17 25.645 553.773 9.446 496.176 2.247 429.58 13.046 344.984 27.445 280.187 83.242 199.192"/><line class="cls-2" x1="454.0226" y1="83.9979" x2="526.0188" y2="44.4"/><text class="cls-3" transform="translate(536.9973 33.9996)">Sa<tspan class="cls-4" x="45.3596" y="0">n</tspan><tspan class="cls-5" x="67.8796" y="0">d</tspan><tspan x="0" y="48">0.05</tspan><tspan class="cls-6" x="72.3982" y="48">-</tspan><tspan x="88.1985" y="48">2.00</tspan><tspan class="cls-7" x="159.8367" y="48"> </tspan><tspan x="167.7961" y="48">mm</tspan></text><line class="cls-2" x1="281.3551" y1="252.0341" x2="329.7059" y2="247.1441"/><polygon class="cls-8" points="182.237 238.79 203.836 220.791 216.435 215.391 236.234 213.591 257.833 218.991 272.232 233.39 281.232 251.389 281.232 274.788 268.632 290.987 250.633 307.186 225.435 312.586 200.236 307.186 182.237 289.187 176.837 272.988 176.837 258.589 182.237 238.79"/><text class="cls-3" transform="translate(342.6076 251.788)">Silt<tspan x="0" y="48">0.0</tspan><tspan class="cls-6" x="50.3584" y="48">0</tspan><tspan x="71.3582" y="48">2 - 0.05</tspan><tspan class="cls-7" x="208.595" y="48"> </tspan><tspan x="216.5544" y="48">mm</tspan></text><polygon class="cls-9" points="257.833 575.372 261.433 569.972 268.632 569.972 275.832 575.372 270.432 582.571 259.633 582.571 257.833 575.372"/><line class="cls-2" x1="274.821" y1="574.4863" x2="303.8417" y2="572.6574"/><text class="cls-3" transform="translate(324.6086 579.3706)">Cla<tspan class="cls-10" x="59.0789" y="0">y</tspan></text><text class="cls-3" transform="translate(314.6086 631.3706)"><tspan xml:space="preserve">   0.0</tspan><tspan class="cls-6" x="91.0371" y="0">0</tspan><tspan x="112.0369" y="0">2</tspan><tspan class="cls-7" x="133.3167" y="0"> </tspan><tspan x="141.2761" y="0">mm</tspan></text><path d="M340.246,612.9337l-9.6384,6.3989,9.6384,6.399v3.3194l-13.8776-9.5984v-.32l13.8776-9.5184Z"/></g></g></g></svg>