<?xml version="1.0" encoding="UTF-8"?><svg xmlns="http://www.w3.org/2000/svg" viewBox="0 0 778.23 766.39"><defs><style>.g{fill:none;stroke-width:1.49px;}.g,.h,.i,.j{stroke-miterlimit:10;}.g,.i,.j{stroke:#5c5052;}.k{fill:#494145;}.h{fill:#ebbd25;stroke:#5e5252;}.h,.i{stroke-width:4.46px;}.i{fill:#5c5052;}.j{fill:#c17443;stroke-width:2.98px;}</style></defs><g id="a"/><g id="b"><g id="c"><g id="d"><g><polygon class="h" points="83.24 197.19 124.64 159.39 167.84 134.19 227.23 105.39 290.23 87.39 358.63 74.79 412.62 74.79 473.82 85.59 526.02 96.39 578.22 126.99 625.01 168.39 657.41 213.39 695.21 270.98 709.61 315.98 718.61 368.18 718.61 405.98 718.61 456.37 706.01 512.17 686.21 560.77 644.81 627.36 616.01 663.36 574.62 693.96 529.62 719.16 468.42 749.76 400.03 764.16 349.63 764.16 281.23 756.96 225.43 744.36 178.64 720.96 126.44 686.76 83.24 648.96 52.64 602.17 25.65 551.77 9.45 494.17 2.25 427.57 13.05 342.98 27.45 278.18 83.24 197.19"/><line class="g" x1="454.02" y1="81.99" x2="526.02" y2="42.4"/><g><path class="k" d="M538.72,27.56l2.36-2.2c1.56,2.32,4,3.92,6.56,3.92,3,0,5.08-1.88,5.08-4.36,0-7.2-13.28-5.2-13.24-14.28,.04-4,3.4-7,7.88-7.04,3.48,0,6.2,1.92,7.88,3.92l-2.08,2.16c-1.36-1.56-3.44-3-5.76-3-2.72,.04-4.68,1.72-4.68,4-.08,6.48,13.32,4.76,13.24,14.24-.04,4.08-3.24,7.48-8.52,7.48-3.72,0-6.96-2.16-8.72-4.84Z"/><path class="k" d="M579.23,12V31.99h-3.16v-3.6c-1.56,2.32-4.04,3.88-7.2,3.88-5.56,0-9.4-4.56-9.4-10.28s3.84-10.28,9.4-10.28c3.16,0,5.64,1.56,7.2,3.88v-3.6h3.16Zm-3.16,10c0-3.84-2.84-7.2-6.72-7.2s-6.6,3.24-6.6,7.2,2.72,7.2,6.6,7.2,6.72-3.36,6.72-7.2Z"/><path class="k" d="M602.43,20.6v11.4h-3.2v-10.88c0-4.32-2.16-6.56-5.24-6.56s-5.36,2.24-5.36,6.56v10.88h-3.16V12h3.16v3.04c1.16-1.96,3.36-3.44,6.24-3.44,4,0,7.56,2.96,7.56,9Z"/><path class="k" d="M626.39,0V31.99h-3.16v-3.56c-1.56,2.28-4.04,3.84-7.16,3.84-5.56,0-9.4-4.56-9.4-10.28s3.84-10.28,9.4-10.28c3.12,0,5.6,1.56,7.16,3.84V0h3.16Zm-3.16,22.8v-1.6c-.36-3.48-3.08-6.4-6.68-6.4-3.88,0-6.6,3.24-6.6,7.2s2.72,7.2,6.6,7.2c3.6,0,6.32-2.92,6.68-6.4Z"/><path class="k" d="M538.88,66c0-7.76,2.4-14.4,8.96-14.4s8.96,6.64,8.96,14.4-2.44,14.4-8.96,14.4-8.96-6.6-8.96-14.4Zm14.76,0c0-5.44-1.28-11.24-5.8-11.24s-5.8,5.8-5.8,11.24,1.24,11.24,5.8,11.24,5.8-5.76,5.8-11.24Z"/><path class="k" d="M560.04,78.07c0-1.16,.92-2.16,2.12-2.16s2.16,1,2.16,2.16c0,1.24-.96,2.16-2.16,2.16s-2.12-.92-2.12-2.16Z"/><path class="k" d="M567.6,66c0-7.76,2.4-14.4,8.96-14.4s8.96,6.64,8.96,14.4-2.44,14.4-8.96,14.4-8.96-6.6-8.96-14.4Zm14.76,0c0-5.44-1.28-11.24-5.8-11.24s-5.8,5.8-5.8,11.24,1.24,11.24,5.8,11.24,5.8-5.76,5.8-11.24Z"/><path class="k" d="M607.59,71.12c0,4.88-3.6,9.28-9.32,9.28-4.68,0-8.12-3.08-9.12-7l2.92-1.28c.72,2.88,3.08,5.12,6.2,5.12,3.6,0,6.08-2.68,6.08-6.12s-2.52-6.2-6.28-6.2c-2.52,0-4.44,1.24-5.64,2.96l-1.92-.4,3.32-15.48h11.28v3.12h-8.88l-1.48,7.44c.96-.48,2.12-.76,3.52-.76,5.64,0,9.32,4.52,9.32,9.32Z"/><path class="k" d="M611.16,66.36h12.96v2.84h-12.96v-2.84Z"/><path class="k" d="M627.88,79.55c3.12-3.84,6-7.44,9.12-11.4,2.12-2.64,4.2-5.08,4.2-8.2,0-2.56-2-5.32-5.36-5.32s-5.56,2.64-5.88,6.12l-3-.88c.4-4.4,3.6-8.36,8.88-8.36s8.6,4.08,8.6,8.32c0,3.64-2.08,6.48-4.32,9.28-2.08,2.56-4.2,5.2-6.28,7.8h10.88v3.08h-16.84v-.44Z"/><path class="k" d="M647.88,78.07c0-1.16,.92-2.16,2.12-2.16s2.16,1,2.16,2.16c0,1.24-.96,2.16-2.16,2.16s-2.12-.92-2.12-2.16Z"/><path class="k" d="M655.43,66c0-7.76,2.4-14.4,8.96-14.4s8.96,6.64,8.96,14.4-2.44,14.4-8.96,14.4-8.96-6.6-8.96-14.4Zm14.76,0c0-5.44-1.28-11.24-5.8-11.24s-5.8,5.8-5.8,11.24,1.24,11.24,5.8,11.24,5.8-5.76,5.8-11.24Z"/><path class="k" d="M677.07,66c0-7.76,2.4-14.4,8.96-14.4s8.96,6.64,8.96,14.4-2.44,14.4-8.96,14.4-8.96-6.6-8.96-14.4Zm14.76,0c0-5.44-1.28-11.24-5.8-11.24s-5.8,5.8-5.8,11.24,1.24,11.24,5.8,11.24,5.8-5.76,5.8-11.24Z"/><path class="k" d="M742.91,68.28v11.72h-3.2v-11.16c0-3.8-1.88-6.28-4.96-6.28s-4.96,2.48-4.96,6.48v10.96h-3.2v-11.16c0-3.8-1.88-6.28-4.96-6.28s-4.96,2.48-4.96,6.48v10.96h-3.16v-20h3.16v2.88c1.12-1.8,3.12-3.28,5.88-3.28s5.16,1.44,6.4,4.28c1.16-2.28,3.36-4.28,6.68-4.28,4.04,0,7.28,3,7.28,8.68Z"/><path class="k" d="M778.23,68.28v11.72h-3.2v-11.16c0-3.8-1.88-6.28-4.96-6.28s-4.96,2.48-4.96,6.48v10.96h-3.2v-11.16c0-3.8-1.88-6.28-4.96-6.28s-4.96,2.48-4.96,6.48v10.96h-3.16v-20h3.16v2.88c1.12-1.8,3.12-3.28,5.88-3.28s5.16,1.44,6.4,4.28c1.16-2.28,3.36-4.28,6.68-4.28,4.04,0,7.28,3,7.28,8.68Z"/></g></g></g><g id="e"><g><line class="g" x1="281.36" y1="250.03" x2="329.71" y2="245.14"/><polygon class="j" points="182.24 236.78 203.84 218.79 216.44 213.39 236.23 211.59 257.83 216.99 272.23 231.38 281.23 249.38 281.23 272.78 268.63 288.98 250.63 305.18 225.43 310.58 200.24 305.18 182.24 287.18 176.84 270.98 176.84 256.58 182.24 236.78"/><g><path class="k" d="M344.33,245.34l2.36-2.2c1.56,2.32,4,3.92,6.56,3.92,3,0,5.08-1.88,5.08-4.36,0-7.2-13.28-5.2-13.24-14.28,.04-4,3.4-7,7.88-7.04,3.48,0,6.2,1.92,7.88,3.92l-2.08,2.16c-1.36-1.56-3.44-3-5.76-3-2.72,.04-4.68,1.72-4.68,4-.08,6.48,13.32,4.76,13.24,14.24-.04,4.08-3.24,7.48-8.52,7.48-3.72,0-6.96-2.16-8.72-4.84Z"/><path class="k" d="M366.41,223.71c0-1.2,.96-2.16,2.2-2.16s2.16,.96,2.16,2.16c0,1.28-.92,2.2-2.16,2.2s-2.2-.92-2.2-2.2Zm.6,6.08h3.16v20h-3.16v-20Z"/><path class="k" d="M377.01,217.79h3.16v31.99h-3.16v-31.99Z"/><path class="k" d="M394.41,232.83h-4.12v16.96h-3.2v-16.96h-2.56v-3.04h2.56v-5.36h3.2v5.36h4.12v3.04Z"/><path class="k" d="M344.49,283.79c0-7.76,2.4-14.4,8.96-14.4s8.96,6.64,8.96,14.4-2.44,14.4-8.96,14.4-8.96-6.6-8.96-14.4Zm14.76,0c0-5.44-1.28-11.24-5.8-11.24s-5.8,5.8-5.8,11.24,1.24,11.24,5.8,11.24,5.8-5.76,5.8-11.24Z"/><path class="k" d="M365.65,295.86c0-1.16,.92-2.16,2.12-2.16s2.16,1,2.16,2.16c0,1.24-.96,2.16-2.16,2.16s-2.12-.92-2.12-2.16Z"/><path class="k" d="M373.21,283.79c0-7.76,2.4-14.4,8.96-14.4s8.96,6.64,8.96,14.4-2.44,14.4-8.96,14.4-8.96-6.6-8.96-14.4Zm14.76,0c0-5.44-1.28-11.24-5.8-11.24s-5.8,5.8-5.8,11.24,1.24,11.24,5.8,11.24,5.8-5.76,5.8-11.24Z"/><path class="k" d="M394.85,283.79c0-7.76,2.4-14.4,8.96-14.4s8.96,6.64,8.96,14.4-2.44,14.4-8.96,14.4-8.96-6.6-8.96-14.4Zm14.76,0c0-5.44-1.28-11.24-5.8-11.24s-5.8,5.8-5.8,11.24,1.24,11.24,5.8,11.24,5.8-5.76,5.8-11.24Z"/><path class="k" d="M416.65,297.34c3.12-3.84,6-7.44,9.12-11.4,2.12-2.64,4.2-5.08,4.2-8.2,0-2.56-2-5.32-5.36-5.32s-5.56,2.64-5.88,6.12l-3-.88c.4-4.4,3.6-8.36,8.88-8.36s8.6,4.08,8.6,8.32c0,3.64-2.08,6.48-4.32,9.28-2.08,2.56-4.2,5.2-6.28,7.8h10.88v3.08h-16.84v-.44Z"/><path class="k" d="M450.56,284.15h12.96v2.84h-12.96v-2.84Z"/><path class="k" d="M480.68,283.79c0-7.76,2.4-14.4,8.96-14.4s8.96,6.64,8.96,14.4-2.44,14.4-8.96,14.4-8.96-6.6-8.96-14.4Zm14.76,0c0-5.44-1.28-11.24-5.8-11.24s-5.8,5.8-5.8,11.24,1.24,11.24,5.8,11.24,5.8-5.76,5.8-11.24Z"/><path class="k" d="M501.84,295.86c0-1.16,.92-2.16,2.12-2.16s2.16,1,2.16,2.16c0,1.24-.96,2.16-2.16,2.16s-2.12-.92-2.12-2.16Z"/><path class="k" d="M509.4,283.79c0-7.76,2.4-14.4,8.96-14.4s8.96,6.64,8.96,14.4-2.44,14.4-8.96,14.4-8.96-6.6-8.96-14.4Zm14.76,0c0-5.44-1.28-11.24-5.8-11.24s-5.8,5.8-5.8,11.24,1.24,11.24,5.8,11.24,5.8-5.76,5.8-11.24Z"/><path class="k" d="M549.4,288.9c0,4.88-3.6,9.28-9.32,9.28-4.68,0-8.12-3.08-9.12-7l2.92-1.28c.72,2.88,3.08,5.12,6.2,5.12,3.6,0,6.08-2.68,6.08-6.12s-2.52-6.2-6.28-6.2c-2.52,0-4.44,1.24-5.64,2.96l-1.92-.4,3.32-15.48h11.28v3.12h-8.88l-1.48,7.44c.96-.48,2.12-.76,3.52-.76,5.64,0,9.32,4.52,9.32,9.32Z"/><path class="k" d="M597.28,286.06v11.72h-3.2v-11.16c0-3.8-1.88-6.28-4.96-6.28s-4.96,2.48-4.96,6.48v10.96h-3.2v-11.16c0-3.8-1.88-6.28-4.96-6.28s-4.96,2.48-4.96,6.48v10.96h-3.16v-20h3.16v2.88c1.12-1.8,3.12-3.28,5.88-3.28s5.16,1.44,6.4,4.28c1.16-2.28,3.36-4.28,6.68-4.28,4.04,0,7.28,3,7.28,8.68Z"/><path class="k" d="M632.6,286.06v11.72h-3.2v-11.16c0-3.8-1.88-6.28-4.96-6.28s-4.96,2.48-4.96,6.48v10.96h-3.2v-11.16c0-3.8-1.88-6.28-4.96-6.28s-4.96,2.48-4.96,6.48v10.96h-3.16v-20h3.16v2.88c1.12-1.8,3.12-3.28,5.88-3.28s5.16,1.44,6.4,4.28c1.16-2.28,3.36-4.28,6.68-4.28,4.04,0,7.28,3,7.28,8.68Z"/></g></g></g><g id="f"><g><polygon class="i" points="257.83 573.37 261.43 567.97 268.63 567.97 275.83 573.37 270.43 580.57 259.63 580.57 257.83 573.37"/><line class="g" x1="274.82" y1="572.48" x2="303.84" y2="570.65"/><g><path class="k" d="M327.05,563.37c0-7.76,5.6-14.48,14.28-14.48,2.6,0,4.72,.56,6.52,1.48v3.52c-1.68-1.16-3.68-1.88-6.48-1.88-6.6,0-11.08,5.28-11.08,11.36s4.48,11.36,11.08,11.36c2.8,0,4.8-.72,6.48-1.88v3.52c-1.8,.92-3.92,1.48-6.52,1.48-8.68,0-14.28-6.72-14.28-14.48Z"/><path class="k" d="M352.73,545.37h3.16v31.99h-3.16v-31.99Z"/><path class="k" d="M380.56,557.37v20h-3.16v-3.6c-1.56,2.32-4.04,3.88-7.2,3.88-5.56,0-9.4-4.56-9.4-10.28s3.84-10.28,9.4-10.28c3.16,0,5.64,1.56,7.2,3.88v-3.6h3.16Zm-3.16,10c0-3.84-2.84-7.2-6.72-7.2s-6.6,3.24-6.6,7.2,2.72,7.2,6.6,7.2,6.72-3.36,6.72-7.2Z"/><path class="k" d="M403.84,557.37l-11.8,28h-3.24l3.56-8.28-8.36-19.72h3.44l6.48,16.2,6.48-16.2h3.44Z"/><path class="k" d="M340.25,606.93l-9.64,6.4,9.64,6.4v3.32l-13.88-9.6v-.32l13.88-9.52v3.32Z"/><path class="k" d="M357.45,611.37c0-7.76,2.4-14.4,8.96-14.4s8.96,6.64,8.96,14.4-2.44,14.4-8.96,14.4-8.96-6.6-8.96-14.4Zm14.76,0c0-5.44-1.28-11.24-5.8-11.24s-5.8,5.8-5.8,11.24,1.24,11.24,5.8,11.24,5.8-5.76,5.8-11.24Z"/><path class="k" d="M378.61,623.45c0-1.16,.92-2.16,2.12-2.16s2.16,1,2.16,2.16c0,1.24-.96,2.16-2.16,2.16s-2.12-.92-2.12-2.16Z"/><path class="k" d="M386.17,611.37c0-7.76,2.4-14.4,8.96-14.4s8.96,6.64,8.96,14.4-2.44,14.4-8.96,14.4-8.96-6.6-8.96-14.4Zm14.76,0c0-5.44-1.28-11.24-5.8-11.24s-5.8,5.8-5.8,11.24,1.24,11.24,5.8,11.24,5.8-5.76,5.8-11.24Z"/><path class="k" d="M407.81,611.37c0-7.76,2.4-14.4,8.96-14.4s8.96,6.64,8.96,14.4-2.44,14.4-8.96,14.4-8.96-6.6-8.96-14.4Zm14.76,0c0-5.44-1.28-11.24-5.8-11.24s-5.8,5.8-5.8,11.24,1.24,11.24,5.8,11.24,5.8-5.76,5.8-11.24Z"/><path class="k" d="M429.61,624.93c3.12-3.84,6-7.44,9.12-11.4,2.12-2.64,4.2-5.08,4.2-8.2,0-2.56-2-5.32-5.36-5.32s-5.56,2.64-5.88,6.12l-3-.88c.4-4.4,3.6-8.36,8.88-8.36s8.6,4.08,8.6,8.32c0,3.64-2.08,6.48-4.32,9.28-2.08,2.56-4.2,5.2-6.28,7.8h10.88v3.08h-16.84v-.44Z"/><path class="k" d="M494.72,613.65v11.72h-3.2v-11.16c0-3.8-1.88-6.28-4.96-6.28s-4.96,2.48-4.96,6.48v10.96h-3.2v-11.16c0-3.8-1.88-6.28-4.96-6.28s-4.96,2.48-4.96,6.48v10.96h-3.16v-20h3.16v2.88c1.12-1.8,3.12-3.28,5.88-3.28s5.16,1.44,6.4,4.28c1.16-2.28,3.36-4.28,6.68-4.28,4.04,0,7.28,3,7.28,8.68Z"/><path class="k" d="M530.04,613.65v11.72h-3.2v-11.16c0-3.8-1.88-6.28-4.96-6.28s-4.96,2.48-4.96,6.48v10.96h-3.2v-11.16c0-3.8-1.88-6.28-4.96-6.28s-4.96,2.48-4.96,6.48v10.96h-3.16v-20h3.16v2.88c1.12-1.8,3.12-3.28,5.88-3.28s5.16,1.44,6.4,4.28c1.16-2.28,3.36-4.28,6.68-4.28,4.04,0,7.28,3,7.28,8.68Z"/></g></g></g></g></g></svg>