<svg xmlns="http://www.w3.org/2000/svg" viewBox="0 0 1352.85 776.39"><defs><style>.cls-1{fill:#c17443;}.cls-1,.cls-10,.cls-11,.cls-12,.cls-14,.cls-2,.cls-3,.cls-4,.cls-5,.cls-6,.cls-7,.cls-8,.cls-9{stroke:#5c5052;}.cls-1,.cls-10,.cls-11,.cls-12,.cls-14,.cls-2,.cls-21,.cls-3,.cls-39,.cls-4,.cls-5,.cls-6,.cls-7,.cls-8,.cls-9{stroke-miterlimit:10;}.cls-1,.cls-10,.cls-11,.cls-12,.cls-2,.cls-21,.cls-3,.cls-39,.cls-4,.cls-5,.cls-6,.cls-7,.cls-8,.cls-9{stroke-width:2.22px;}.cls-2{fill:#754f46;}.cls-15,.cls-3,.cls-40,.cls-41{fill:#5c5052;}.cls-4{fill:#805a3a;}.cls-5{fill:#c39552;}.cls-6{fill:#4c3117;}.cls-7{fill:#8d732c;}.cls-8{fill:#cda161;}.cls-9{fill:#eda017;}.cls-10{fill:#9a8c8f;}.cls-11{fill:#904b32;}.cls-12{fill:#979280;}.cls-13{opacity:0.18;}.cls-14,.cls-21{fill:none;}.cls-14{stroke-width:1.11px;}.cls-15,.cls-41{font-size:44.43px;}.cls-15{font-family:Acre-Light, Acre;font-weight:300;}.cls-16,.cls-17,.cls-18,.cls-19,.cls-20{font-size:45px;}.cls-16{letter-spacing:0em;}.cls-18{letter-spacing:-0.02em;}.cls-19{letter-spacing:0em;}.cls-20{letter-spacing:-0.03em;}.cls-21{stroke:#5e5252;}.cls-22{fill:#5e5252;}.cls-23{font-size:28.61px;}.cls-23,.cls-25,.cls-28,.cls-33,.cls-39{fill:#fff;}.cls-23,.cls-25,.cls-28,.cls-41{font-family:Acre-Regular, Acre;}.cls-24{letter-spacing:-0.03em;}.cls-25{font-size:16px;}.cls-26{letter-spacing:0em;}.cls-27{letter-spacing:-0.01em;}.cls-28,.cls-33{font-size:25.24px;}.cls-29{letter-spacing:0em;}.cls-30{letter-spacing:-0.01em;}.cls-31{letter-spacing:-0.01em;}.cls-32{letter-spacing:-0.03em;}.cls-33{font-family:Acre-Medium, Acre;font-weight:500;}.cls-34{letter-spacing:-0.01em;}.cls-35{letter-spacing:-0.03em;}.cls-36{letter-spacing:1.47em;}.cls-37{letter-spacing:-0.01em;}.cls-38{letter-spacing:-0.01em;}.cls-39{stroke:#df6572;}.cls-40{font-size:75.54px;font-family:Acre-Bold, Acre;font-weight:700;}.cls-42{letter-spacing:0em;}.cls-43{letter-spacing:-0.01em;}.cls-44{letter-spacing:-0.03em;}</style></defs><g id="Layer_2" data-name="Layer 2"><g id="textural_class"><g id="Layer_32" data-name="Layer 32"><polygon class="cls-1" points="208.93 305.12 383.94 2.22 537.07 268.1 461.35 402.72 264.46 402.72 208.93 305.12"/></g><g id="Layer_26" data-name="Layer 26"><polygon class="cls-2" points="616.16 402.72 461.35 402.72 537.07 268.1 616.16 402.72"/></g><g id="Layer_27" data-name="Layer 27"><polygon class="cls-3" points="659.91 485.18 616.16 402.72 461.35 402.72 506.78 485.18 659.91 485.18"/></g><g id="Layer_28" data-name="Layer 28"><polygon class="cls-4" points="612.8 665.23 659.91 584.46 717.13 584.46 659.91 485.18 491.64 485.18 405.82 634.94 385.62 665.23 612.8 665.23"/></g><g id="Layer_29" data-name="Layer 29"><polygon class="cls-5" points="765.93 665.23 612.8 665.23 659.91 584.46 717.13 584.46 765.93 665.23"/></g><g id="Layer_30" data-name="Layer 30"><polygon class="cls-6" points="491.53 485.18 405.82 634.94 345.24 634.94 286.34 539.02 318.31 485.18 491.53 485.18"/></g><g id="Layer_31" data-name="Layer 31"><polygon class="cls-7" points="385.62 665.23 229.13 665.23 57.48 569.31 75.99 539.02 286.34 539.02 345.24 634.94 405.82 634.94 385.62 665.23"/></g><g id="Layer_34" data-name="Layer 34"><polygon class="cls-8" points="57.48 569.31 38.97 602.97 75.99 665.23 229.13 665.23 57.48 569.31"/></g><g id="Layer_35" data-name="Layer 35"><polygon class="cls-9" points="286.34 539.02 318.31 485.18 286.34 443.95 131.53 443.11 75.99 539.02 286.34 539.02"/></g><g id="Layer_36" data-name="Layer 36"><polygon class="cls-10" points="208.93 305.12 131.53 443.11 286.34 443.11 208.93 305.12"/></g><g id="Layer_37" data-name="Layer 37"><polygon class="cls-11" points="318.31 485.18 506.78 485.18 461.35 402.72 264.46 402.72 286.34 443.11 318.31 485.18"/></g><g id="Layer_38" data-name="Layer 38"><polygon class="cls-12" points="1.95 665.23 38.97 602.97 75.99 665.23 1.95 665.23"/></g><g id="textural_class-2" data-name="textural class"><g id="Layer_33" data-name="Layer 33"><g class="cls-13"><polygon class="cls-14" points="2.43 667.07 383.52 4.91 767.13 666.23 2.43 667.07"/><line class="cls-14" x1="345.83" y1="68.01" x2="692.58" y2="667.07"/><line class="cls-14" x1="305.63" y1="138.69" x2="613.85" y2="667.07"/><line class="cls-14" x1="268.77" y1="204.31" x2="530.09" y2="667.07"/><line class="cls-14" x1="231.92" y1="266.58" x2="459.74" y2="667.07"/><line class="cls-14" x1="193.39" y1="335.57" x2="382.68" y2="667.07"/><line class="cls-14" x1="153.19" y1="402.88" x2="303.95" y2="667.07"/><line class="cls-14" x1="118.01" y1="466.82" x2="228.57" y2="667.07"/><line class="cls-14" x1="77.81" y1="535.82" x2="154.87" y2="667.07"/><line class="cls-14" x1="39.28" y1="601.45" x2="81.16" y2="667.07"/><line class="cls-14" x1="419.54" y1="68.01" x2="81.16" y2="667.07"/><line class="cls-14" x1="460.63" y1="135.72" x2="154.87" y2="667.07"/><line class="cls-14" x1="497.63" y1="198.72" x2="228.57" y2="667.07"/><line class="cls-14" x1="533.63" y1="263.72" x2="303.95" y2="667.07"/><line class="cls-14" x1="573.63" y1="332.72" x2="382.68" y2="667.07"/><line class="cls-14" x1="459.74" y1="667.07" x2="612.63" y2="399.72"/><line class="cls-14" x1="530.09" y1="667.07" x2="649.63" y2="463.72"/><line class="cls-14" x1="613.85" y1="667.07" x2="687.63" y2="532.72"/><line class="cls-14" x1="692.58" y1="667.07" x2="725.63" y2="598.72"/></g><text class="cls-15" transform="translate(74.41 401.66) rotate(-59.93)">% <tspan class="cls-16" x="43.9" y="0">s</tspan><tspan class="cls-17" x="62.12" y="0">a</tspan><tspan class="cls-18" x="89.89" y="0">n</tspan><tspan class="cls-19" x="114.86" y="0">d</tspan></text><text class="cls-15" transform="translate(621.48 264.36) rotate(59.89)">% <tspan class="cls-17" x="43.9" y="0">silt</tspan></text><text class="cls-15" transform="matrix(1, 0.01, -0.01, 1, 331.35, 765.17)">% <tspan class="cls-17" x="43.9" y="0">cla</tspan><tspan class="cls-20" x="105.59" y="0">y</tspan></text><line class="cls-21" x1="88.13" y1="434.22" x2="186.52" y2="262.73"/><polygon class="cls-22" points="190.56 272.23 185.16 265.11 176.28 264.05 193.13 251.22 190.56 272.23"/><line class="cls-21" x1="571.13" y1="249.22" x2="668.49" y2="417.74"/><polygon class="cls-22" points="658.25 416.45 667.12 415.36 672.49 408.22 675.13 429.22 658.25 416.45"/><line class="cls-21" x1="499.13" y1="707.58" x2="302.39" y2="707.58"/><polygon class="cls-22" points="308.63 699.35 305.13 707.58 308.63 715.8 289.13 707.58 308.63 699.35"/><text class="cls-23" transform="translate(353.65 247.88)">cla<tspan class="cls-24" x="39.13" y="0">y</tspan></text><text class="cls-23" transform="translate(671.31 640.88)">silt</text><text class="cls-25" transform="translate(19.99 653.8)"><tspan class="cls-26">s</tspan><tspan x="6.66" y="0">a</tspan><tspan class="cls-27" x="16.53" y="0">n</tspan><tspan x="25.54" y="0">d</tspan></text><text class="cls-28" transform="translate(175.52 389.91)"><tspan class="cls-29">s</tspan><tspan x="10.5" y="0">a</tspan><tspan class="cls-30" x="26.07" y="0">n</tspan><tspan class="cls-31" x="40.29" y="0">d</tspan><tspan class="cls-32" x="55.56" y="0">y</tspan><tspan x="67.7" y="0"> </tspan><tspan x="10.51" y="30.29">cla</tspan><tspan class="cls-32" x="45.04" y="30.29">y</tspan></text><text class="cls-28" transform="translate(516.1 351.2)">silt<tspan class="cls-32" x="30.67" y="0">y</tspan><tspan x="-1.93" y="30.29">cla</tspan><tspan class="cls-32" x="32.6" y="30.29">y</tspan></text><text class="cls-28" transform="translate(502.79 433.66)">silt<tspan class="cls-32" x="30.67" y="0">y</tspan><tspan x="42.81" y="0" xml:space="preserve"> cla</tspan><tspan class="cls-32" x="85.89" y="0">y</tspan><tspan x="98.04" y="0"> </tspan><tspan x="19.56" y="30.29">loam</tspan></text><text class="cls-28" transform="translate(145.38 488.87)"><tspan class="cls-29">s</tspan><tspan x="10.5" y="0">a</tspan><tspan class="cls-30" x="26.07" y="0">n</tspan><tspan class="cls-31" x="40.29" y="0">d</tspan><tspan class="cls-32" x="55.56" y="0">y</tspan><tspan x="67.7" y="0" xml:space="preserve"> cla</tspan><tspan class="cls-32" x="110.78" y="0">y</tspan><tspan x="122.93" y="0"> </tspan><tspan x="32.01" y="30.29">loam</tspan></text><text class="cls-28" transform="translate(333.88 450.12)">cla<tspan class="cls-32" x="34.53" y="0">y</tspan><tspan x="46.67" y="0" xml:space="preserve"> loam</tspan></text><text class="cls-28" transform="translate(158.58 603.38)"><tspan class="cls-29">s</tspan><tspan x="10.5" y="0">a</tspan><tspan class="cls-30" x="26.07" y="0">n</tspan><tspan class="cls-31" x="40.29" y="0">d</tspan><tspan class="cls-32" x="55.56" y="0">y</tspan><tspan x="67.7" y="0" xml:space="preserve"> loam</tspan></text><text class="cls-28" transform="translate(502.84 583.06)">silt loam</text><text class="cls-28" transform="translate(350.28 561.55)">loam</text><text class="cls-33" transform="translate(60.01 628.86)">loa<tspan class="cls-34" x="36.75" y="0">m</tspan><tspan class="cls-35" x="58.96" y="0">y</tspan><tspan x="71.36" y="0" xml:space="preserve">  </tspan><tspan class="cls-36" x="88.32" y="0">	</tspan><tspan class="cls-37" x="36.73" y="30.29">s</tspan><tspan x="47.41" y="30.29">a</tspan><tspan class="cls-38" x="62.98" y="30.29">n</tspan><tspan x="77.29" y="30.29">d</tspan></text></g><g id="Layer_23" data-name="Layer 23"><rect class="cls-39" x="840.76" y="257.61" width="195.51" height="104.42" rx="19.47"/></g><g id="Layer_24" data-name="Layer 24"><rect class="cls-39" x="840.76" y="108.76" width="195.51" height="104.42" rx="19.47"/></g><g id="Layer_25" data-name="Layer 25"><rect class="cls-39" x="840.76" y="406.47" width="195.51" height="104.42" rx="19.47"/></g><text class="cls-40" transform="translate(1085.39 188.07)">=</text><text class="cls-40" transform="translate(1085.39 332.48)">=</text><text class="cls-40" transform="translate(1085.39 483.56)">=</text><text class="cls-41" transform="translate(1156.59 179.02)">% <tspan class="cls-42" x="44.3" y="0">s</tspan><tspan x="62.78" y="0">a</tspan><tspan class="cls-43" x="90.2" y="0">n</tspan><tspan x="115.22" y="0">d</tspan></text><text class="cls-41" transform="translate(1157.64 324.54)">% silt</text><text class="cls-41" transform="translate(1156.88 474.5)">% cla<tspan class="cls-44" x="105.08" y="0">y</tspan></text></g></g></g></svg>