<svg xmlns="http://www.w3.org/2000/svg" viewBox="0 0 795.89 729.36"><defs><style>.cls-1{fill:#c39552;}.cls-1,.cls-10,.cls-11,.cls-12,.cls-13,.cls-3,.cls-4,.cls-5,.cls-6,.cls-7,.cls-8,.cls-9{stroke:#5c5052;stroke-miterlimit:10;stroke-width:2.22px;}.cls-2{fill:#fff;}.cls-3{fill:#979280;}.cls-4{fill:#cda161;}.cls-5{fill:#8d732c;}.cls-6{fill:#805a3a;}.cls-7{fill:#904b32;}.cls-8{fill:#4c3117;}.cls-9{fill:#eda017;}.cls-10{fill:#9a8c8f;}.cls-11{fill:#c17443;}.cls-12{fill:#754f46;}.cls-13{fill:#5c5052;}</style></defs><g id="Layer_2" data-name="Layer 2"><g id="Layer_81" data-name="Layer 81"><g id="Layer_68" data-name="Layer 68"><polygon class="cls-1" points="793.92 665.23 640.79 665.23 687.9 584.46 745.12 584.46 793.92 665.23"/><path class="cls-2" d="M708.1,639.27l1.28-1.49a4.42,4.42,0,0,0,3.08,1.54c1.19,0,2.1-.66,2.1-1.64,0-2.78-6.16-1.82-6.14-6.06,0-1.87,1.59-3.38,3.92-3.38a5.32,5.32,0,0,1,3.93,1.79l-1.18,1.46a4.19,4.19,0,0,0-2.73-1.31c-1.08,0-1.87.61-1.87,1.46,0,2.58,6.14,1.67,6.11,6.06,0,2-1.69,3.56-4.21,3.56A6,6,0,0,1,708.1,639.27Z"/><path class="cls-2" d="M719.63,624.6a1.37,1.37,0,0,1,1.39-1.36,1.38,1.38,0,0,1,0,2.75A1.36,1.36,0,0,1,719.63,624.6Zm.38,3.84h2v12.62h-2Z"/><path class="cls-2" d="M726.32,620.87h2v20.19h-2Z"/><path class="cls-2" d="M737.3,630.36h-2.6v10.7h-2v-10.7h-1.62v-1.92h1.62v-3.38h2v3.38h2.6Z"/></g><g id="Layer_80" data-name="Layer 80"><polygon class="cls-3" points="29.95 665.23 66.97 602.97 103.99 665.23 29.95 665.23"/><path class="cls-2" d="M43.36,656.24l1.18-1.4A3.66,3.66,0,0,0,47,656c.84,0,1.46-.44,1.46-1.1,0-1.94-4.78-1.22-4.76-4.62a2.92,2.92,0,0,1,3.22-2.78,4.34,4.34,0,0,1,3.2,1.42L49,650.3a3.4,3.4,0,0,0-2.08-1c-.76,0-1.3.4-1.3,1,0,1.8,4.78,1.14,4.78,4.62,0,1.64-1.4,2.89-3.48,2.89A5.07,5.07,0,0,1,43.36,656.24Z"/><path class="cls-2" d="M61.86,647.66v10H60v-1.61a4.16,4.16,0,0,1-3.42,1.75c-2.78,0-4.68-2.27-4.68-5.15s1.9-5.14,4.68-5.14A4.17,4.17,0,0,1,60,649.26v-1.6Zm-1.88,5a3.19,3.19,0,0,0-3.1-3.3,3.32,3.32,0,0,0,0,6.62A3.2,3.2,0,0,0,60,652.66Z"/><path class="cls-2" d="M73.48,651.92v5.75H71.6V652.2c0-2-1-3-2.44-3s-2.44,1-2.44,3v5.47H64.84v-10h1.88v1.4a3.45,3.45,0,0,1,3-1.6C71.7,647.46,73.48,648.94,73.48,651.92Z"/><path class="cls-2" d="M85.54,641.66v16H83.66v-1.61a4.16,4.16,0,0,1-3.42,1.75c-2.78,0-4.68-2.27-4.68-5.15s1.9-5.14,4.68-5.14a4.17,4.17,0,0,1,3.42,1.74v-7.6Zm-1.88,11a3.19,3.19,0,0,0-3.1-3.3,3.32,3.32,0,0,0,0,6.62A3.2,3.2,0,0,0,83.66,652.66Z"/></g><g id="Layer_69" data-name="Layer 69"><polygon class="cls-4" points="85.48 569.31 66.97 602.97 103.99 665.23 257.12 665.23 85.48 569.31"/><path class="cls-2" d="M89.87,608.67h2.37v20.19H89.87Z"/><path class="cls-2" d="M95.22,622.55a6.44,6.44,0,1,1,6.43,6.51A6.36,6.36,0,0,1,95.22,622.55Zm10.42,0a3.94,3.94,0,0,0-4-4.11,4.14,4.14,0,1,0,4,4.11Z"/><path class="cls-2" d="M122.86,616.24v12.62h-2.38v-2a5.26,5.26,0,0,1-4.31,2.2c-3.51,0-5.91-2.86-5.91-6.49s2.4-6.49,5.91-6.49a5.26,5.26,0,0,1,4.31,2.2v-2Zm-2.38,6.31a4,4,0,0,0-3.91-4.17,4.19,4.19,0,0,0,0,8.36A4,4,0,0,0,120.48,622.55Z"/><path class="cls-2" d="M145.55,621.51l0,7.35h-2.37v-6.94c0-2.27-1.14-3.74-2.93-3.74s-2.95,1.47-2.95,3.81v6.87H134.9v-6.94c0-2.27-1.16-3.74-3-3.74S129,619.65,129,622l0-.07v6.94h-2.37V616.24H129V618a4.27,4.27,0,0,1,3.69-2,4.32,4.32,0,0,1,4,2.55A4.78,4.78,0,0,1,140.9,616C143.5,616,145.55,617.85,145.55,621.51Z"/><path class="cls-2" d="M160,616.24l-7.39,17.67h-2.43l2.22-5.15-5.24-12.52h2.57l3.86,9.84,3.84-9.84Z"/><path class="cls-2" d="M125.74,657.36l1.49-1.77a4.6,4.6,0,0,0,3,1.46c1.06,0,1.85-.55,1.85-1.38,0-2.45-6-1.54-6-5.83,0-1.92,1.59-3.51,4.06-3.51a5.47,5.47,0,0,1,4,1.79l-1.39,1.74a4.29,4.29,0,0,0-2.62-1.24c-1,0-1.64.51-1.64,1.27,0,2.27,6,1.43,6,5.83,0,2.07-1.77,3.63-4.39,3.63A6.44,6.44,0,0,1,125.74,657.36Z"/><path class="cls-2" d="M149.09,646.53v12.62h-2.38v-2a5.25,5.25,0,0,1-4.31,2.19c-3.51,0-5.91-2.85-5.91-6.48s2.4-6.49,5.91-6.49a5.26,5.26,0,0,1,4.31,2.2v-2Zm-2.38,6.31a4,4,0,0,0-3.91-4.17,4.19,4.19,0,0,0,0,8.36A4,4,0,0,0,146.71,652.84Z"/><path class="cls-2" d="M163.75,651.9v7.25h-2.37v-6.89c0-2.5-1.29-3.81-3.08-3.81s-3.08,1.31-3.08,3.81v6.89h-2.37V646.53h2.37v1.77a4.34,4.34,0,0,1,3.81-2C161.51,646.28,163.75,648.14,163.75,651.9Z"/><path class="cls-2" d="M179,639v20.19H176.6v-2a5.27,5.27,0,0,1-4.32,2.19c-3.5,0-5.9-2.85-5.9-6.48s2.4-6.49,5.9-6.49a5.28,5.28,0,0,1,4.32,2.2V639Zm-2.37,13.88a4,4,0,0,0-3.91-4.17,4.19,4.19,0,0,0,0,8.36A4,4,0,0,0,176.6,652.84Z"/></g><g id="Layer_70" data-name="Layer 70"><polygon class="cls-5" points="413.62 665.23 257.12 665.23 85.48 569.31 103.99 539.02 314.33 539.02 373.23 634.94 433.81 634.94 413.62 665.23"/><path class="cls-2" d="M142.64,576.58l1.28-1.49a4.37,4.37,0,0,0,3.08,1.54c1.19,0,2.1-.65,2.1-1.64,0-2.77-6.16-1.81-6.14-6,0-1.87,1.59-3.39,3.92-3.39a5.32,5.32,0,0,1,3.93,1.8l-1.18,1.46a4.19,4.19,0,0,0-2.73-1.31c-1.08,0-1.87.6-1.87,1.46-.05,2.58,6.14,1.67,6.11,6.06,0,2-1.69,3.56-4.21,3.56A6,6,0,0,1,142.64,576.58Z"/><path class="cls-2" d="M165.68,565.76v12.62h-2V576.1a5.35,5.35,0,0,1-4.55,2.45c-3.51,0-5.93-2.87-5.93-6.48s2.42-6.49,5.93-6.49a5.35,5.35,0,0,1,4.55,2.45v-2.27Zm-2,6.31a4.39,4.39,0,0,0-4.24-4.55,4.56,4.56,0,0,0,0,9.09A4.39,4.39,0,0,0,163.69,572.07Z"/><path class="cls-2" d="M180.32,571.18v7.2h-2v-6.87c0-2.72-1.36-4.14-3.31-4.14s-3.38,1.42-3.38,4.14v6.87h-2V565.76h2v1.91a4.49,4.49,0,0,1,3.94-2.17C178.07,565.5,180.32,567.37,180.32,571.18Z"/><path class="cls-2" d="M195.44,558.19v20.19h-2v-2.25a5.35,5.35,0,0,1-4.51,2.42c-3.51,0-5.93-2.87-5.93-6.48s2.42-6.49,5.93-6.49a5.35,5.35,0,0,1,4.51,2.42v-9.81Zm-2,14.38v-1a4.35,4.35,0,0,0-4.21-4,4.56,4.56,0,0,0,0,9.09A4.34,4.34,0,0,0,193.44,572.57Z"/><path class="cls-2" d="M209.85,565.76l-7.44,17.66h-2l2.25-5.22-5.28-12.44h2.17L203.59,576l4.09-10.22Z"/><path class="cls-2" d="M219.8,558.19h2v20.19h-2Z"/><path class="cls-2" d="M224.9,572.07a6.41,6.41,0,1,1,6.41,6.51A6.36,6.36,0,0,1,224.9,572.07Zm10.77,0a4.37,4.37,0,1,0-8.73,0,4.37,4.37,0,1,0,8.73,0Z"/><path class="cls-2" d="M252.48,565.76v12.62h-2V576.1a5.33,5.33,0,0,1-4.54,2.45c-3.51,0-5.93-2.87-5.93-6.48s2.42-6.49,5.93-6.49a5.33,5.33,0,0,1,4.54,2.45v-2.27Zm-2,6.31a4.38,4.38,0,0,0-4.24-4.55,4.56,4.56,0,0,0,0,9.09A4.38,4.38,0,0,0,250.49,572.07Z"/><path class="cls-2" d="M275,571v7.4h-2v-7c0-2.39-1.18-4-3.13-4s-3.13,1.57-3.13,4.09v6.92h-2v-7c0-2.39-1.19-4-3.13-4s-3.13,1.57-3.13,4.09v6.92h-2V565.76h2v1.81a4.36,4.36,0,0,1,7.74.63,4.67,4.67,0,0,1,4.22-2.7C272.93,565.5,275,567.4,275,571Z"/></g><g id="Layer_71" data-name="Layer 71"><polygon class="cls-6" points="640.79 665.23 687.9 584.46 745.12 584.46 687.9 485.18 519.63 485.18 433.81 634.94 413.62 665.23 640.79 665.23"/><path class="cls-2" d="M517.9,578.27l1.28-1.49a4.42,4.42,0,0,0,3.08,1.54c1.19,0,2.1-.66,2.1-1.64,0-2.78-6.16-1.82-6.14-6.06,0-1.87,1.59-3.38,3.92-3.38a5.32,5.32,0,0,1,3.93,1.79l-1.18,1.46a4.19,4.19,0,0,0-2.73-1.31c-1.08,0-1.87.61-1.87,1.46,0,2.58,6.14,1.67,6.11,6.06,0,2-1.69,3.56-4.21,3.56A6,6,0,0,1,517.9,578.27Z"/><path class="cls-2" d="M529.43,563.6a1.37,1.37,0,0,1,1.39-1.36,1.38,1.38,0,0,1,0,2.75A1.36,1.36,0,0,1,529.43,563.6Zm.38,3.84h2v12.62h-2Z"/><path class="cls-2" d="M536.12,559.87h2v20.19h-2Z"/><path class="cls-2" d="M547.1,569.36h-2.6v10.7h-2v-10.7h-1.61v-1.92h1.61v-3.38h2v3.38h2.6Z"/><path class="cls-2" d="M558,559.87h2v20.19h-2Z"/><path class="cls-2" d="M563.13,573.75a6.41,6.41,0,1,1,6.41,6.51A6.36,6.36,0,0,1,563.13,573.75Zm10.77,0a4.37,4.37,0,1,0-8.73,0,4.37,4.37,0,1,0,8.73,0Z"/><path class="cls-2" d="M590.71,567.44v12.62h-2v-2.27a5.35,5.35,0,0,1-4.54,2.45c-3.51,0-5.93-2.88-5.93-6.49s2.42-6.49,5.93-6.49a5.35,5.35,0,0,1,4.54,2.45v-2.27Zm-2,6.31a4.38,4.38,0,0,0-4.24-4.54,4.56,4.56,0,0,0,0,9.08A4.38,4.38,0,0,0,588.72,573.75Z"/><path class="cls-2" d="M613.2,572.66v7.4h-2v-7c0-2.4-1.18-4-3.12-4s-3.13,1.57-3.13,4.09v6.92h-2v-7c0-2.4-1.19-4-3.13-4s-3.13,1.57-3.13,4.09v6.92h-2V567.44h2v1.82a4.37,4.37,0,0,1,7.75.63,4.64,4.64,0,0,1,4.21-2.7C611.16,567.19,613.2,569.08,613.2,572.66Z"/></g><g id="Layer_73" data-name="Layer 73"><polygon class="cls-7" points="346.3 485.18 534.77 485.18 489.34 402.72 292.46 402.72 314.33 443.11 346.3 485.18"/><path class="cls-2" d="M364,440.81a6.52,6.52,0,0,1,10.5-5.15V438a5.26,5.26,0,0,0-3.92-1.74,4.52,4.52,0,1,0,0,9,5.22,5.22,0,0,0,3.92-1.74V446a6.52,6.52,0,0,1-10.5-5.15Z"/><path class="cls-2" d="M377.86,426.93h2v20.19h-2Z"/><path class="cls-2" d="M395.43,434.5v12.62h-2v-2.27a5.37,5.37,0,0,1-4.55,2.45c-3.5,0-5.93-2.88-5.93-6.49s2.43-6.49,5.93-6.49a5.37,5.37,0,0,1,4.55,2.45V434.5Zm-2,6.31a4.39,4.39,0,0,0-4.24-4.54,4.56,4.56,0,0,0,0,9.08A4.39,4.39,0,0,0,393.44,440.81Z"/><path class="cls-2" d="M410.12,434.5l-7.44,17.67h-2.05l2.25-5.23L397.6,434.5h2.17l4.09,10.22L408,434.5Z"/><path class="cls-2" d="M420.07,426.93h2v20.19h-2Z"/><path class="cls-2" d="M425.17,440.81a6.41,6.41,0,1,1,6.41,6.51A6.36,6.36,0,0,1,425.17,440.81Zm10.77,0a4.37,4.37,0,1,0-8.73,0,4.37,4.37,0,1,0,8.73,0Z"/><path class="cls-2" d="M452.75,434.5v12.62h-2v-2.27a5.37,5.37,0,0,1-4.54,2.45c-3.51,0-5.93-2.88-5.93-6.49s2.42-6.49,5.93-6.49a5.37,5.37,0,0,1,4.54,2.45V434.5Zm-2,6.31a4.38,4.38,0,0,0-4.24-4.54,4.56,4.56,0,0,0,0,9.08A4.38,4.38,0,0,0,450.76,440.81Z"/><path class="cls-2" d="M475.24,439.73v7.39h-2v-7c0-2.4-1.18-4-3.13-4S467,437.68,467,440.2v6.92h-2v-7c0-2.4-1.18-4-3.12-4s-3.13,1.56-3.13,4.08v6.92h-2V434.5h2v1.82a4.36,4.36,0,0,1,7.74.63,4.65,4.65,0,0,1,4.22-2.7C473.2,434.25,475.24,436.14,475.24,439.73Z"/></g><g id="Layer_74" data-name="Layer 74"><polygon class="cls-8" points="519.52 485.18 433.81 634.94 373.23 634.94 314.33 539.02 346.3 485.18 519.52 485.18"/><path class="cls-2" d="M380.24,541.36h2v20.19h-2Z"/><path class="cls-2" d="M385.34,555.24a6.41,6.41,0,1,1,6.41,6.51A6.36,6.36,0,0,1,385.34,555.24Zm10.77,0a4.37,4.37,0,1,0-8.73,0,4.37,4.37,0,1,0,8.73,0Z"/><path class="cls-2" d="M412.92,548.93v12.62h-2v-2.27a5.36,5.36,0,0,1-4.54,2.44c-3.51,0-5.93-2.87-5.93-6.48s2.42-6.49,5.93-6.49a5.37,5.37,0,0,1,4.54,2.45v-2.27Zm-2,6.31a4.38,4.38,0,0,0-4.24-4.54,4.56,4.56,0,0,0,0,9.08A4.38,4.38,0,0,0,410.93,555.24Z"/><path class="cls-2" d="M435.41,554.15v7.4h-2v-7c0-2.4-1.18-4-3.13-4s-3.13,1.57-3.13,4.09v6.92h-2v-7c0-2.4-1.18-4-3.12-4s-3.13,1.57-3.13,4.09v6.92h-2V548.93h2v1.82a4.36,4.36,0,0,1,7.74.63,4.65,4.65,0,0,1,4.22-2.7C433.37,548.68,435.41,550.57,435.41,554.15Z"/></g><g id="Layer_75" data-name="Layer 75"><polygon class="cls-9" points="314.33 539.02 346.3 485.18 314.33 443.95 159.52 443.11 103.99 539.02 314.33 539.02"/><path class="cls-2" d="M174.43,489.08l1.29-1.49a4.4,4.4,0,0,0,3.08,1.54c1.19,0,2.1-.66,2.1-1.64,0-2.78-6.16-1.82-6.14-6.06a3.6,3.6,0,0,1,3.91-3.38,5.36,5.36,0,0,1,3.94,1.79l-1.18,1.47A4.2,4.2,0,0,0,178.7,480c-1.09,0-1.87.61-1.87,1.47-.05,2.57,6.14,1.66,6.11,6.06,0,2-1.69,3.55-4.21,3.55A6,6,0,0,1,174.43,489.08Z"/><path class="cls-2" d="M197.48,478.25v12.62h-2V488.6a5.34,5.34,0,0,1-4.54,2.45c-3.51,0-5.93-2.88-5.93-6.49s2.42-6.48,5.93-6.48a5.33,5.33,0,0,1,4.54,2.44v-2.27Zm-2,6.31a4.38,4.38,0,0,0-4.24-4.54,4.56,4.56,0,0,0,0,9.09A4.38,4.38,0,0,0,195.48,484.56Z"/><path class="cls-2" d="M212.12,483.68v7.19h-2V484c0-2.73-1.36-4.14-3.31-4.14s-3.38,1.41-3.38,4.14v6.86h-2V478.25h2v1.92a4.47,4.47,0,0,1,3.94-2.17C209.87,478,212.12,479.87,212.12,483.68Z"/><path class="cls-2" d="M227.24,470.68v20.19h-2v-2.24a5.37,5.37,0,0,1-4.51,2.42c-3.51,0-5.93-2.88-5.93-6.49s2.42-6.48,5.93-6.48a5.35,5.35,0,0,1,4.51,2.42v-9.82Zm-2,14.39v-1a4.34,4.34,0,0,0-4.21-4,4.56,4.56,0,0,0,0,9.09A4.35,4.35,0,0,0,225.24,485.07Z"/><path class="cls-2" d="M241.65,478.25l-7.44,17.67h-2.05l2.25-5.22-5.28-12.45h2.17l4.09,10.22,4.09-10.22Z"/><path class="cls-2" d="M250.76,484.56a6.31,6.31,0,0,1,6.44-6.51,6.2,6.2,0,0,1,4.06,1.36v2.38a5.19,5.19,0,0,0-3.91-1.75,4.52,4.52,0,1,0,0,9,5.19,5.19,0,0,0,3.91-1.74v2.37a6.2,6.2,0,0,1-4.06,1.36A6.31,6.31,0,0,1,250.76,484.56Z"/><path class="cls-2" d="M264.62,470.68h2v20.19h-2Z"/><path class="cls-2" d="M282.19,478.25v12.62h-2V488.6a5.34,5.34,0,0,1-4.54,2.45c-3.51,0-5.93-2.88-5.93-6.49s2.42-6.48,5.93-6.48a5.33,5.33,0,0,1,4.54,2.44v-2.27Zm-2,6.31A4.38,4.38,0,0,0,276,480a4.56,4.56,0,0,0,0,9.09A4.38,4.38,0,0,0,280.19,484.56Z"/><path class="cls-2" d="M296.88,478.25l-7.45,17.67h-2l2.25-5.22-5.28-12.45h2.17l4.09,10.22,4.09-10.22Z"/><path class="cls-2" d="M207.35,501h2v20.19h-2Z"/><path class="cls-2" d="M212.45,514.85a6.41,6.41,0,1,1,6.41,6.51A6.36,6.36,0,0,1,212.45,514.85Zm10.77,0a4.37,4.37,0,1,0-8.73,0,4.37,4.37,0,1,0,8.73,0Z"/><path class="cls-2" d="M240,508.54v12.62h-2v-2.27a5.35,5.35,0,0,1-4.54,2.45c-3.51,0-5.93-2.88-5.93-6.49s2.42-6.48,5.93-6.48a5.35,5.35,0,0,1,4.54,2.44v-2.27Zm-2,6.31a4.38,4.38,0,0,0-4.24-4.54,4.56,4.56,0,0,0,0,9.08A4.38,4.38,0,0,0,238,514.85Z"/><path class="cls-2" d="M262.52,513.77v7.39h-2v-7c0-2.4-1.19-4-3.13-4s-3.13,1.56-3.13,4.09v6.91h-2v-7c0-2.4-1.19-4-3.13-4s-3.13,1.56-3.13,4.09v6.91h-2V508.54h2v1.82a4.37,4.37,0,0,1,7.75.63,4.64,4.64,0,0,1,4.21-2.7C260.48,508.29,262.52,510.18,262.52,513.77Z"/></g><g id="Layer_76" data-name="Layer 76"><polygon class="cls-10" points="236.93 305.12 159.52 443.11 314.33 443.11 236.93 305.12"/><path class="cls-2" d="M204.57,388.11l1.29-1.48a4.39,4.39,0,0,0,3.08,1.53c1.18,0,2.09-.65,2.09-1.64,0-2.77-6.15-1.81-6.13-6,0-1.87,1.59-3.38,3.91-3.38a5.29,5.29,0,0,1,3.94,1.79l-1.19,1.46a4.17,4.17,0,0,0-2.72-1.31c-1.09,0-1.87.6-1.87,1.46-.05,2.58,6.13,1.67,6.11,6.06,0,2-1.69,3.56-4.22,3.56A6,6,0,0,1,204.57,388.11Z"/><path class="cls-2" d="M227.62,377.29v12.62h-2v-2.28a5.33,5.33,0,0,1-4.54,2.45c-3.51,0-5.93-2.87-5.93-6.48s2.42-6.49,5.93-6.49a5.33,5.33,0,0,1,4.54,2.45v-2.27Zm-2,6.31a4.38,4.38,0,0,0-4.24-4.55,4.56,4.56,0,0,0,0,9.09A4.38,4.38,0,0,0,225.62,383.6Z"/><path class="cls-2" d="M242.26,382.71v7.2h-2V383c0-2.72-1.37-4.14-3.31-4.14s-3.38,1.42-3.38,4.14v6.87h-2V377.29h2v1.92a4.48,4.48,0,0,1,3.94-2.18C240,377,242.26,378.9,242.26,382.71Z"/><path class="cls-2" d="M257.38,369.72v20.19h-2v-2.25a5.37,5.37,0,0,1-4.52,2.42c-3.5,0-5.93-2.87-5.93-6.48s2.43-6.49,5.93-6.49a5.37,5.37,0,0,1,4.52,2.42v-9.81Zm-2,14.38v-1a4.35,4.35,0,0,0-4.21-4,4.56,4.56,0,0,0,0,9.09A4.35,4.35,0,0,0,255.38,384.1Z"/><path class="cls-2" d="M271.79,377.29,264.34,395h-2l2.25-5.22-5.28-12.44h2.17l4.09,10.22,4.09-10.22Z"/><path class="cls-2" d="M215.16,413.89a6.32,6.32,0,0,1,6.44-6.52,6.15,6.15,0,0,1,4.06,1.37v2.37a5.19,5.19,0,0,0-3.91-1.74,4.52,4.52,0,1,0,0,9,5.19,5.19,0,0,0,3.91-1.74V419a6.2,6.2,0,0,1-4.06,1.36A6.31,6.31,0,0,1,215.16,413.89Z"/><path class="cls-2" d="M229,400h2V420.2h-2Z"/><path class="cls-2" d="M246.59,407.58V420.2h-2v-2.28a5.33,5.33,0,0,1-4.54,2.45c-3.51,0-5.93-2.87-5.93-6.48s2.42-6.49,5.93-6.49a5.33,5.33,0,0,1,4.54,2.45v-2.27Zm-2,6.31a4.38,4.38,0,0,0-4.24-4.55,4.56,4.56,0,0,0,0,9.09A4.38,4.38,0,0,0,244.59,413.89Z"/><path class="cls-2" d="M261.28,407.58l-7.45,17.66h-2L254,420l-5.27-12.44h2.17L255,417.8l4.09-10.22Z"/></g><g id="Layer_77" data-name="Layer 77"><polygon class="cls-11" points="236.93 305.12 411.93 2.22 565.06 268.1 489.34 402.72 292.46 402.72 236.93 305.12"/><path class="cls-2" d="M382.93,240.73a7.14,7.14,0,0,1,7.29-7.38,7.06,7.06,0,0,1,4.61,1.54v2.69a5.9,5.9,0,0,0-4.44-2,5.12,5.12,0,1,0,0,10.24,5.93,5.93,0,0,0,4.44-2v2.68a7,7,0,0,1-4.61,1.55A7.14,7.14,0,0,1,382.93,240.73Z"/><path class="cls-2" d="M398.63,225h2.26v22.89h-2.26Z"/><path class="cls-2" d="M418.54,233.58v14.3h-2.26v-2.57a6.05,6.05,0,0,1-5.15,2.77c-4,0-6.72-3.26-6.72-7.35s2.75-7.35,6.72-7.35a6.05,6.05,0,0,1,5.15,2.77v-2.57Zm-2.26,7.15a5,5,0,0,0-4.8-5.15,5.17,5.17,0,0,0,0,10.3A5,5,0,0,0,416.28,240.73Z"/><path class="cls-2" d="M435.19,233.58l-8.44,20h-2.32l2.55-5.92-6-14.1h2.46l4.64,11.58,4.63-11.58Z"/></g><g id="Layer_78" data-name="Layer 78"><polygon class="cls-12" points="644.15 402.72 489.34 402.72 565.06 268.1 644.15 402.72"/><path class="cls-2" d="M545.16,349.41l1.28-1.49a4.42,4.42,0,0,0,3.08,1.54c1.19,0,2.1-.66,2.1-1.64,0-2.78-6.16-1.82-6.14-6.06,0-1.86,1.59-3.38,3.92-3.38a5.35,5.35,0,0,1,3.93,1.79l-1.18,1.47a4.2,4.2,0,0,0-2.73-1.32c-1.08,0-1.87.61-1.87,1.47,0,2.57,6.14,1.66,6.11,6.06,0,2-1.69,3.55-4.21,3.55A6,6,0,0,1,545.16,349.41Z"/><path class="cls-2" d="M556.69,334.75a1.37,1.37,0,0,1,1.39-1.37,1.38,1.38,0,0,1,0,2.76A1.36,1.36,0,0,1,556.69,334.75Zm.38,3.83h2V351.2h-2Z"/><path class="cls-2" d="M563.38,331h2V351.2h-2Z"/><path class="cls-2" d="M574.36,340.5h-2.6v10.7h-2V340.5h-1.62v-1.92h1.62V335.2h2v3.38h2.6Z"/><path class="cls-2" d="M587.48,338.58,580,356.25h-2l2.25-5.22L575,338.58h2.17l4.08,10.22,4.09-10.22Z"/><path class="cls-2" d="M543.3,375.18a6.3,6.3,0,0,1,6.44-6.51A6.22,6.22,0,0,1,553.8,370v2.38a5.19,5.19,0,0,0-3.91-1.75,4.52,4.52,0,1,0,0,9A5.19,5.19,0,0,0,553.8,378v2.37a6.22,6.22,0,0,1-4.06,1.36A6.3,6.3,0,0,1,543.3,375.18Z"/><path class="cls-2" d="M557.16,361.3h2v20.19h-2Z"/><path class="cls-2" d="M574.72,368.87v12.62h-2v-2.27a5.35,5.35,0,0,1-4.54,2.45c-3.51,0-5.93-2.88-5.93-6.49s2.42-6.48,5.93-6.48a5.35,5.35,0,0,1,4.54,2.44v-2.27Zm-2,6.31a4.38,4.38,0,0,0-4.24-4.54,4.56,4.56,0,0,0,0,9.09A4.38,4.38,0,0,0,572.73,375.18Z"/><path class="cls-2" d="M589.41,368.87,582,386.54h-2.05l2.25-5.22-5.27-12.45h2.17l4.09,10.22,4.08-10.22Z"/></g><g id="Layer_79" data-name="Layer 79"><polygon class="cls-13" points="687.9 485.18 644.15 402.72 489.34 402.72 534.77 485.18 687.9 485.18"/><path class="cls-2" d="M531.85,431.87l1.28-1.49a4.42,4.42,0,0,0,3.08,1.54c1.19,0,2.1-.66,2.1-1.64,0-2.78-6.16-1.82-6.14-6.06,0-1.87,1.59-3.38,3.92-3.38a5.32,5.32,0,0,1,3.93,1.79l-1.18,1.46a4.19,4.19,0,0,0-2.73-1.31c-1.08,0-1.87.61-1.87,1.46,0,2.58,6.14,1.67,6.11,6.06,0,2-1.69,3.56-4.21,3.56A6,6,0,0,1,531.85,431.87Z"/><path class="cls-2" d="M543.38,417.2a1.37,1.37,0,0,1,1.39-1.36,1.38,1.38,0,0,1,0,2.75A1.36,1.36,0,0,1,543.38,417.2Zm.38,3.84h2v12.62h-2Z"/><path class="cls-2" d="M550.07,413.47h2v20.19h-2Z"/><path class="cls-2" d="M561.05,423h-2.6v10.7h-2V423h-1.62V421h1.62v-3.38h2V421h2.6Z"/><path class="cls-2" d="M574.17,421l-7.44,17.67h-2.05l2.25-5.23L561.66,421h2.17l4.08,10.22L572,421Z"/><path class="cls-2" d="M583.29,427.35a6.52,6.52,0,0,1,10.5-5.15v2.37a5.22,5.22,0,0,0-3.92-1.74,4.52,4.52,0,1,0,0,9,5.23,5.23,0,0,0,3.92-1.75v2.38a6.52,6.52,0,0,1-10.5-5.15Z"/><path class="cls-2" d="M597.14,413.47h2v20.19h-2Z"/><path class="cls-2" d="M614.71,421v12.62h-2v-2.27a5.36,5.36,0,0,1-4.55,2.44c-3.5,0-5.93-2.87-5.93-6.48s2.43-6.49,5.93-6.49a5.37,5.37,0,0,1,4.55,2.45V421Zm-2,6.31a4.39,4.39,0,0,0-4.24-4.54,4.56,4.56,0,0,0,0,9.08A4.39,4.39,0,0,0,612.72,427.35Z"/><path class="cls-2" d="M629.4,421,622,438.71h-2.05l2.25-5.23L616.88,421h2.17l4.09,10.22L627.23,421Z"/><path class="cls-2" d="M552.32,443.76h2V464h-2Z"/><path class="cls-2" d="M557.41,457.64a6.42,6.42,0,1,1,6.41,6.51A6.36,6.36,0,0,1,557.41,457.64Zm10.78,0a4.37,4.37,0,1,0-8.73,0,4.37,4.37,0,1,0,8.73,0Z"/><path class="cls-2" d="M585,451.33V464h-2v-2.27a5.36,5.36,0,0,1-4.55,2.44c-3.5,0-5.93-2.87-5.93-6.48s2.43-6.49,5.93-6.49A5.37,5.37,0,0,1,583,453.6v-2.27Zm-2,6.31a4.38,4.38,0,0,0-4.24-4.54,4.56,4.56,0,0,0,0,9.08A4.38,4.38,0,0,0,583,457.64Z"/><path class="cls-2" d="M607.49,456.55V464h-2v-7c0-2.4-1.18-4-3.13-4s-3.13,1.57-3.13,4.09V464h-2v-7c0-2.4-1.18-4-3.13-4s-3.13,1.57-3.13,4.09V464h-2V451.33h2v1.82a4.37,4.37,0,0,1,7.75.63,4.64,4.64,0,0,1,4.22-2.7C605.45,451.08,607.49,453,607.49,456.55Z"/></g></g></g></svg>