<svg xmlns="http://www.w3.org/2000/svg" viewBox="0 0 778.228 766.3879"><defs><style>.cls-1{fill:#ebbd25;stroke:#5e5252;}.cls-1,.cls-2,.cls-3,.cls-4{stroke-miterlimit:10;}.cls-1,.cls-3{stroke-width:4.4625px;}.cls-2{fill:none;stroke-width:1.4875px;}.cls-2,.cls-3,.cls-4{stroke:#5c5052;}.cls-3{fill:#5c5052;}.cls-4{fill:#c17443;stroke-width:2.975px;}</style></defs><g id="Layer_2" data-name="Layer 2"><g id="Layer_2-2" data-name="Layer 2"><polygon class="cls-1" points="83.242 197.187 124.64 159.389 167.838 134.19 227.235 105.392 290.231 87.393 358.628 74.793 412.625 74.793 473.822 85.593 526.019 96.392 578.216 126.991 625.013 168.388 657.412 213.386 695.21 270.983 709.609 315.98 718.609 368.178 718.609 405.976 718.609 456.373 706.009 512.17 686.21 560.767 644.812 627.364 616.014 663.362 574.616 693.96 529.619 719.159 468.422 749.757 400.025 764.157 349.628 764.157 281.232 756.957 225.435 744.358 178.637 720.959 126.44 686.761 83.242 648.963 52.644 602.165 25.645 551.768 9.446 494.171 2.247 427.575 13.046 342.979 27.445 278.182 83.242 197.187"/><line class="cls-2" x1="454.0226" y1="81.9929" x2="526.0188" y2="42.395"/><path d="M538.717,27.5554l2.36-2.2a8.2334,8.2334,0,0,0,6.5588,3.9193c3,0,5.0791-1.88,5.0791-4.3592,0-7.1988-13.2775-5.1991-13.2377-14.2776.04-3.9993,3.3994-6.9988,7.8786-7.0388a10.4108,10.4108,0,0,1,7.8789,3.9193l-2.08,2.16a8.035,8.035,0,0,0-5.759-3c-2.7195.04-4.6792,1.72-4.6792,3.9994-.08,6.4789,13.3178,4.7592,13.2377,14.2376-.04,4.0793-3.2395,7.4787-8.5185,7.4787A10.6713,10.6713,0,0,1,538.717,27.5554Z"/><path d="M579.2336,11.9979V31.9946h-3.1594V28.3953a8.4784,8.4784,0,0,1-7.1988,3.8792c-5.559,0-9.3984-4.5592-9.3984-10.2782s3.8394-10.2783,9.3984-10.2783a8.4781,8.4781,0,0,1,7.1988,3.8794v-3.6Zm-3.1594,9.9984a6.9469,6.9469,0,0,0-6.719-7.1988c-3.8794,0-6.5989,3.2395-6.5989,7.1988s2.72,7.1988,6.5989,7.1988A6.9468,6.9468,0,0,0,576.0742,21.9963Z"/><path d="M602.4335,20.5966v11.398h-3.1994V21.1165c0-4.3193-2.16-6.559-5.2393-6.559-3.0393,0-5.3589,2.24-5.3589,6.559V31.9946h-3.16V11.9979h3.16v3.04a7.1011,7.1011,0,0,1,6.2388-3.4395C598.8742,11.598,602.4335,14.5575,602.4335,20.5966Z"/><path d="M626.3933,0V31.9946h-3.1595V28.4352a8.52,8.52,0,0,1-7.1587,3.8393c-5.559,0-9.3984-4.5592-9.3984-10.2782s3.8394-10.2783,9.3984-10.2783a8.5194,8.5194,0,0,1,7.1587,3.8394V0Zm-3.1595,22.7961v-1.6a6.89,6.89,0,0,0-6.6789-6.3989c-3.8794,0-6.5989,3.2395-6.5989,7.1988s2.72,7.1988,6.5989,7.1988A6.89,6.89,0,0,0,623.2338,22.7961Z"/><path d="M538.8769,65.9969c0-7.7586,2.4-14.3975,8.9585-14.3975,6.519,0,8.9585,6.6389,8.9585,14.3975,0,7.7988-2.4395,14.3976-8.9585,14.3976C541.2766,80.3945,538.8769,73.7957,538.8769,65.9969Zm14.7576,0c0-5.439-1.28-11.238-5.7991-11.238-4.5591,0-5.7991,5.799-5.7991,11.238,0,5.4792,1.24,11.2382,5.7991,11.2382C552.3547,77.2351,553.6345,71.4761,553.6345,65.9969Z"/><path d="M560.0363,78.075a2.1422,2.1422,0,0,1,2.12-2.16,2.1763,2.1763,0,0,1,2.1594,2.16,2.1257,2.1257,0,0,1-2.1594,2.16A2.0931,2.0931,0,0,1,560.0363,78.075Z"/><path d="M567.5959,65.9969c0-7.7586,2.4-14.3975,8.9585-14.3975,6.519,0,8.9585,6.6389,8.9585,14.3975,0,7.7988-2.4395,14.3976-8.9585,14.3976C569.9955,80.3945,567.5959,73.7957,567.5959,65.9969Zm14.7576,0c0-5.439-1.28-11.238-5.7991-11.238-4.5591,0-5.7991,5.799-5.7991,11.238,0,5.4792,1.24,11.2382,5.7991,11.2382C581.0737,77.2351,582.3535,71.4761,582.3535,65.9969Z"/><path d="M607.5922,71.1161a9.0912,9.0912,0,0,1-9.3183,9.2784,9.2284,9.2284,0,0,1-9.1184-6.9987l2.9194-1.28a6.4505,6.4505,0,0,0,6.199,5.1191,5.9151,5.9151,0,0,0,6.0788-6.119,6.0294,6.0294,0,0,0-6.2788-6.199,6.7194,6.7194,0,0,0-5.6391,2.96l-1.92-.4,3.32-15.4773h11.278v3.1194h-8.8786l-1.48,7.4387a7.7611,7.7611,0,0,1,3.52-.76A9.2206,9.2206,0,0,1,607.5922,71.1161Z"/><path d="M611.1552,66.3569H624.113v2.84H611.1552Z"/><path d="M627.8752,79.5547c3.12-3.8394,5.999-7.4387,9.1186-11.3981,2.12-2.6395,4.1993-5.0791,4.1993-8.1986a5.3167,5.3167,0,0,0-5.3592-5.3191c-3.3593,0-5.5591,2.6395-5.8789,6.1189l-3-.88c.4-4.3993,3.5994-8.3587,8.8784-8.3587a8.3734,8.3734,0,0,1,8.5987,8.3186c0,3.6394-2.08,6.4789-4.3194,9.2785-2.08,2.56-4.1992,5.1991-6.2788,7.7987h10.8779v3.0794H627.8752Z"/><path d="M647.8752,78.075a2.1422,2.1422,0,0,1,2.12-2.16,2.1763,2.1763,0,0,1,2.1594,2.16,2.1257,2.1257,0,0,1-2.1594,2.16A2.0931,2.0931,0,0,1,647.8752,78.075Z"/><path d="M655.4348,65.9969c0-7.7586,2.4-14.3975,8.9585-14.3975,6.519,0,8.9585,6.6389,8.9585,14.3975,0,7.7988-2.44,14.3976-8.9585,14.3976C657.8344,80.3945,655.4348,73.7957,655.4348,65.9969Zm14.7575,0c0-5.439-1.28-11.238-5.799-11.238-4.5591,0-5.7991,5.799-5.7991,11.238,0,5.4792,1.24,11.2382,5.7991,11.2382C668.9125,77.2351,670.1923,71.4761,670.1923,65.9969Z"/><path d="M677.0742,65.9969c0-7.7586,2.4-14.3975,8.9585-14.3975,6.519,0,8.9585,6.6389,8.9585,14.3975,0,7.7988-2.44,14.3976-8.9585,14.3976C679.4738,80.3945,677.0742,73.7957,677.0742,65.9969Zm14.7575,0c0-5.439-1.28-11.238-5.799-11.238-4.5591,0-5.7991,5.799-5.7991,11.238,0,5.4792,1.24,11.2382,5.7991,11.2382C690.5519,77.2351,691.8317,71.4761,691.8317,65.9969Z"/><path d="M742.9081,68.2766v11.718h-3.1994V68.8365c0-3.7994-1.88-6.279-4.9592-6.279-3.04,0-4.9593,2.48-4.9593,6.479V79.9946h-3.1994V68.8365c0-3.7994-1.88-6.279-4.9593-6.279-3.0393,0-4.9589,2.48-4.9589,6.479V79.9946h-3.16V59.9979h3.16v2.88a6.9171,6.9171,0,0,1,12.2778,1,7.36,7.36,0,0,1,6.6789-4.2793C739.6686,59.598,742.9081,62.5975,742.9081,68.2766Z"/><path d="M778.228,68.2766v11.718h-3.1995V68.8365c0-3.7994-1.88-6.279-4.9592-6.279-3.04,0-4.9592,2.48-4.9592,6.479V79.9946h-3.1995V68.8365c0-3.7994-1.88-6.279-4.9592-6.279-3.0393,0-4.959,2.48-4.959,6.479V79.9946h-3.16V59.9979h3.16v2.88a6.9171,6.9171,0,0,1,12.2778,1,7.36,7.36,0,0,1,6.679-4.2793C774.9885,59.598,778.228,62.5975,778.228,68.2766Z"/><polygon class="cls-3" points="257.833 573.367 261.433 567.967 268.632 567.967 275.832 573.367 270.432 580.566 259.633 580.566 257.833 573.367"/><line class="cls-2" x1="274.821" y1="572.4813" x2="303.8417" y2="570.6524"/><path d="M327.0483,563.3679c0-7.7586,5.5989-14.4775,14.2776-14.4775a14.0141,14.0141,0,0,1,6.5188,1.48V553.89a10.8358,10.8358,0,0,0-6.479-1.88,11.3616,11.3616,0,0,0,0,22.7162,10.8351,10.8351,0,0,0,6.479-1.88v3.5194a14.0129,14.0129,0,0,1-6.5188,1.48C332.6472,577.8456,327.0483,571.1266,327.0483,563.3679Z"/><path d="M352.728,545.371h3.16v31.9946h-3.16Z"/><path d="M380.5644,557.369v19.9966H377.405v-3.5994a8.4782,8.4782,0,0,1-7.199,3.8793c-5.5588,0-9.3982-4.5592-9.3982-10.2782s3.8394-10.2783,9.3982-10.2783a8.4783,8.4783,0,0,1,7.199,3.8794V557.369Zm-3.1594,9.9983a6.9469,6.9469,0,0,0-6.719-7.1988c-3.8794,0-6.5989,3.24-6.5989,7.1988s2.7195,7.1987,6.5989,7.1987A6.9467,6.9467,0,0,0,377.405,567.3673Z"/><path d="M403.8442,557.369l-11.7981,27.9953h-3.24l3.5593-8.2786-8.3586-19.7167h3.4394l6.479,16.1973,6.479-16.1973Z"/><path d="M340.246,606.9287l-9.6384,6.3989,9.6384,6.399v3.3194l-13.8776-9.5984v-.32l13.8776-9.5184Z"/><path d="M357.4477,611.3679c0-7.7586,2.4-14.3976,8.9585-14.3976,6.519,0,8.9585,6.639,8.9585,14.3976,0,7.7987-2.44,14.3976-8.9585,14.3976C359.8474,625.7655,357.4477,619.1666,357.4477,611.3679Zm14.7576,0c0-5.4391-1.28-11.238-5.7991-11.238-4.5591,0-5.7991,5.7989-5.7991,11.238,0,5.4791,1.24,11.2382,5.7991,11.2382C370.9255,622.6061,372.2053,616.847,372.2053,611.3679Z"/><path d="M378.6071,623.4459a2.1421,2.1421,0,0,1,2.12-2.16,2.1762,2.1762,0,0,1,2.1594,2.16,2.1258,2.1258,0,0,1-2.1594,2.16A2.0931,2.0931,0,0,1,378.6071,623.4459Z"/><path d="M386.1667,611.3679c0-7.7586,2.4-14.3976,8.9585-14.3976,6.519,0,8.9585,6.639,8.9585,14.3976,0,7.7987-2.44,14.3976-8.9585,14.3976C388.5664,625.7655,386.1667,619.1666,386.1667,611.3679Zm14.7576,0c0-5.4391-1.28-11.238-5.7991-11.238-4.5591,0-5.7991,5.7989-5.7991,11.238,0,5.4791,1.24,11.2382,5.7991,11.2382C399.6445,622.6061,400.9243,616.847,400.9243,611.3679Z"/><path d="M407.8061,611.3679c0-7.7586,2.4-14.3976,8.9585-14.3976,6.519,0,8.9585,6.639,8.9585,14.3976,0,7.7987-2.44,14.3976-8.9585,14.3976C410.2058,625.7655,407.8061,619.1666,407.8061,611.3679Zm14.7576,0c0-5.4391-1.28-11.238-5.7991-11.238-4.5591,0-5.7991,5.7989-5.7991,11.238,0,5.4791,1.24,11.2382,5.7991,11.2382C421.2839,622.6061,422.5637,616.847,422.5637,611.3679Z"/><path d="M429.6057,624.9257c3.12-3.8394,5.999-7.4388,9.1186-11.3981,2.12-2.6395,4.1992-5.0791,4.1992-8.1986a5.3167,5.3167,0,0,0-5.3591-5.3191c-3.3594,0-5.5591,2.6395-5.8789,6.1189l-3-.88c.4-4.3993,3.5993-8.3586,8.8784-8.3586a8.3732,8.3732,0,0,1,8.5986,8.3186c0,3.6394-2.08,6.4789-4.3193,9.2784-2.08,2.56-4.1992,5.1991-6.2788,7.7987h10.8779v3.0795H429.6057Z"/><path d="M494.7206,613.6476v11.718h-3.1994V614.2075c0-3.7994-1.88-6.2789-4.9592-6.2789-3.04,0-4.9593,2.48-4.9593,6.4789v10.9581h-3.1994V614.2075c0-3.7994-1.88-6.2789-4.9593-6.2789-3.0393,0-4.9589,2.48-4.9589,6.4789v10.9581h-3.16V605.369h3.16v2.8794a6.9172,6.9172,0,0,1,12.2778,1,7.36,7.36,0,0,1,6.6789-4.2793C491.4811,604.969,494.7206,607.9685,494.7206,613.6476Z"/><path d="M530.0405,613.6476v11.718H526.841V614.2075c0-3.7994-1.88-6.2789-4.9592-6.2789-3.04,0-4.9592,2.48-4.9592,6.4789v10.9581h-3.1995V614.2075c0-3.7994-1.88-6.2789-4.9592-6.2789-3.0393,0-4.959,2.48-4.959,6.4789v10.9581h-3.16V605.369h3.16v2.8794a6.9172,6.9172,0,0,1,12.2778,1,7.36,7.36,0,0,1,6.679-4.2793C526.801,604.969,530.0405,607.9685,530.0405,613.6476Z"/><line class="cls-2" x1="281.3551" y1="250.0291" x2="329.7059" y2="245.1391"/><polygon class="cls-4" points="182.237 236.785 203.836 218.786 216.435 213.386 236.234 211.586 257.833 216.986 272.232 231.385 281.232 249.384 281.232 272.783 268.632 288.982 250.633 305.181 225.435 310.581 200.236 305.181 182.237 287.182 176.837 270.983 176.837 256.584 182.237 236.785"/><path d="M344.3273,245.3438l2.36-2.2a8.2334,8.2334,0,0,0,6.5588,3.9194c3,0,5.0791-1.88,5.0791-4.3593,0-7.1987-13.2776-5.1991-13.2378-14.2776.04-3.9993,3.3994-6.9988,7.8787-7.0388a10.4113,10.4113,0,0,1,7.8789,3.9193l-2.08,2.16a8.0344,8.0344,0,0,0-5.759-3c-2.72.04-4.6792,1.72-4.6792,3.9994-.08,6.4788,13.3179,4.7591,13.2378,14.2375-.04,4.0793-3.2395,7.4788-8.5186,7.4788A10.6715,10.6715,0,0,1,344.3273,245.3438Z"/><path d="M366.4069,223.7074a2.16,2.16,0,0,1,2.2-2.16,2.18,2.18,0,1,1-2.2,2.16Zm.6,6.0789h3.1594V249.783H367.007Z"/><path d="M377.007,217.7883h3.16V249.783h-3.16Z"/><path d="M394.4052,232.8258h-4.1194V249.783h-3.1994V232.8258h-2.56v-3.0395h2.56v-5.3591h3.1994v5.3591h4.1194Z"/><path d="M344.4872,283.7853c0-7.7587,2.4-14.3976,8.9585-14.3976,6.5191,0,8.9585,6.6389,8.9585,14.3976,0,7.7987-2.4394,14.3976-8.9585,14.3976C346.8869,298.1829,344.4872,291.584,344.4872,283.7853Zm14.7576,0c0-5.4391-1.28-11.2381-5.7991-11.2381-4.559,0-5.799,5.799-5.799,11.2381,0,5.4791,1.24,11.2381,5.799,11.2381C357.965,295.0234,359.2448,289.2644,359.2448,283.7853Z"/><path d="M365.6467,295.8633a2.1422,2.1422,0,0,1,2.12-2.16,2.1763,2.1763,0,0,1,2.1595,2.16,2.1258,2.1258,0,0,1-2.1595,2.16A2.0931,2.0931,0,0,1,365.6467,295.8633Z"/><path d="M373.2062,283.7853c0-7.7587,2.4-14.3976,8.9585-14.3976,6.5191,0,8.9585,6.6389,8.9585,14.3976,0,7.7987-2.4394,14.3976-8.9585,14.3976C375.6059,298.1829,373.2062,291.584,373.2062,283.7853Zm14.7576,0c0-5.4391-1.28-11.2381-5.7991-11.2381-4.559,0-5.799,5.799-5.799,11.2381,0,5.4791,1.24,11.2381,5.799,11.2381C386.684,295.0234,387.9638,289.2644,387.9638,283.7853Z"/><path d="M394.8456,283.7853c0-7.7587,2.4-14.3976,8.9585-14.3976,6.5191,0,8.9585,6.6389,8.9585,14.3976,0,7.7987-2.4394,14.3976-8.9585,14.3976C397.2453,298.1829,394.8456,291.584,394.8456,283.7853Zm14.7576,0c0-5.4391-1.28-11.2381-5.7991-11.2381-4.559,0-5.799,5.799-5.799,11.2381,0,5.4791,1.24,11.2381,5.799,11.2381C408.3234,295.0234,409.6032,289.2644,409.6032,283.7853Z"/><path d="M416.6452,297.343c3.12-3.8393,5.999-7.4387,9.1187-11.3981,2.12-2.6395,4.1992-5.0791,4.1992-8.1986a5.3168,5.3168,0,0,0-5.3592-5.3191c-3.3593,0-5.559,2.64-5.8789,6.1189l-3-.88c.4-4.3993,3.5994-8.3587,8.8784-8.3587a8.3734,8.3734,0,0,1,8.5987,8.3186c0,3.6394-2.08,6.4789-4.3194,9.2785-2.0795,2.56-4.1992,5.1991-6.2788,7.7987h10.878v3.0795H416.6452Z"/><path d="M450.5649,284.1453h12.9577v2.8394H450.5649Z"/><path d="M480.6843,283.7853c0-7.7587,2.4-14.3976,8.9585-14.3976,6.519,0,8.9585,6.6389,8.9585,14.3976,0,7.7987-2.4395,14.3976-8.9585,14.3976C483.0839,298.1829,480.6843,291.584,480.6843,283.7853Zm14.7575,0c0-5.4391-1.28-11.2381-5.799-11.2381-4.5591,0-5.7991,5.799-5.7991,11.2381,0,5.4791,1.24,11.2381,5.7991,11.2381C494.1621,295.0234,495.4418,289.2644,495.4418,283.7853Z"/><path d="M501.8437,295.8633a2.1421,2.1421,0,0,1,2.12-2.16,2.1763,2.1763,0,0,1,2.16,2.16,2.1258,2.1258,0,0,1-2.16,2.16A2.093,2.093,0,0,1,501.8437,295.8633Z"/><path d="M509.403,283.7853c0-7.7587,2.4-14.3976,8.9585-14.3976,6.5191,0,8.9585,6.6389,8.9585,14.3976,0,7.7987-2.4394,14.3976-8.9585,14.3976C511.8027,298.1829,509.403,291.584,509.403,283.7853Zm14.7576,0c0-5.4391-1.28-11.2381-5.7991-11.2381-4.5591,0-5.7991,5.799-5.7991,11.2381,0,5.4791,1.24,11.2381,5.7991,11.2381C522.8808,295.0234,524.1606,289.2644,524.1606,283.7853Z"/><path d="M549.3994,288.9044a9.0914,9.0914,0,0,1-9.3184,9.2785,9.2285,9.2285,0,0,1-9.1184-6.9988l2.9194-1.28a6.4506,6.4506,0,0,0,6.199,5.1191,5.9151,5.9151,0,0,0,6.0789-6.119,6.03,6.03,0,0,0-6.2789-6.199,6.7194,6.7194,0,0,0-5.6391,2.96l-1.92-.4,3.32-15.4773H546.92v3.1194h-8.8787l-1.48,7.4387a7.7617,7.7617,0,0,1,3.5195-.76A9.2206,9.2206,0,0,1,549.3994,288.9044Z"/><path d="M597.2768,286.0649V297.783h-3.1995V286.6249c0-3.8-1.88-6.2791-4.9592-6.2791-3.0395,0-4.9592,2.48-4.9592,6.479V297.783h-3.2V286.6249c0-3.8-1.88-6.2791-4.9592-6.2791-3.0393,0-4.959,2.48-4.959,6.479V297.783h-3.16V277.7863h3.16v2.88a6.9172,6.9172,0,0,1,12.2778,1,7.36,7.36,0,0,1,6.679-4.2792C594.0373,277.3864,597.2768,280.3859,597.2768,286.0649Z"/><path d="M632.5966,286.0649V297.783h-3.1994V286.6249c0-3.8-1.88-6.2791-4.9593-6.2791-3.0395,0-4.9592,2.48-4.9592,6.479V297.783h-3.2V286.6249c0-3.8-1.88-6.2791-4.9592-6.2791-3.0393,0-4.959,2.48-4.959,6.479V297.783h-3.16V277.7863h3.16v2.88a6.9172,6.9172,0,0,1,12.2779,1,7.36,7.36,0,0,1,6.6789-4.2792C629.3571,277.3864,632.5966,280.3859,632.5966,286.0649Z"/></g></g></svg>