<svg xmlns="http://www.w3.org/2000/svg" xmlns:xlink="http://www.w3.org/1999/xlink" viewBox="0 0 525.97 458.91"><defs><style>.cls-1{fill:none;stroke:#ffcf01;stroke-width:2px;}.cls-1,.cls-3,.cls-8,.cls-9{stroke-miterlimit:10;}.cls-2{clip-path:url(#clip-path);}.cls-3,.cls-4{fill:#81a1c5;}.cls-3,.cls-8,.cls-9{stroke:#5b5052;}.cls-3{stroke-width:0.36px;}.cls-5{fill:#4e7383;}.cls-6{fill:#2e61a2;}.cls-7{fill:#5c5052;}.cls-8{fill:#ec6a7c;}.cls-8,.cls-9{stroke-width:0.32px;}.cls-10,.cls-9{fill:#fff;}.cls-10{font-size:24px;font-family:Acre-Thin, Acre;font-weight:200;}.cls-11{letter-spacing:-0.02em;}.cls-12{letter-spacing:0em;}</style><clipPath id="clip-path" transform="translate(139.17 4.9)"><path class="cls-1" d="M1.26,150.3A159.14,159.14,0,0,0,73.18,292.77L92.79,371l60.49-53c85,2.87,157.07-63.14,161.93-149.21C320.13,81.38,253.85,6.38,167.15,1.27S6.19,62.89,1.26,150.3Z"/></clipPath></defs><g id="Layer_2" data-name="Layer 2"><g id="Layer_11" data-name="Layer 11"><g class="cls-2"><rect class="cls-3" x="0.18" y="0.18" width="525.61" height="458.55"/><path class="cls-4" d="M163.22,294q3.9-.88,7.78-1.81c28.77-6.92,61.25-12.93,83.8-30.71C282,240,295.47,207.79,299.15,176.92c4.15-34.88-11.94-73.61-25.82-105.5C264.77,51.77,245.49,43,222.07,39.27c-26.42-4.19-49.1-6.49-73.73-16.52C121.56,11.85,95,17.86,67.93,24,36.45,31,7.49,37-19.78,53.07-75.3,85.86-120.12,146.4-113.69,204.91A110,110,0,0,0-104.43,238c12.87,28.55,43.48,47.66,75.76,57.55A275,275,0,0,0,73.12,307.11,631.43,631.43,0,0,0,163.22,294Z" transform="translate(139.17 4.9)"/><path class="cls-5" d="M-96,223.79c-2.33-14.08-1.22-29,.68-42.18,5.35-37.1,29.84-69.36,56.51-97.94C-24.61,68.48-6.15,58.12,12.57,50c39.6-17.23,78.59-28.17,122-17.16,13.47,3.42,27,6.8,40.4,10.38,23,6.11,44.59,13.88,65,26.59,14.89,9.3,22.15,24.56,28.8,40.3,19.45,46.08,19.84,106.86-21.87,139.68-33.23,26.15-78.11,33.49-118.59,38.88l-6.9.89C94.24,293,67.19,294,40,294.79c-28.93.84-56.06-6.56-82.35-16.36C-71.22,267.68-91.38,251.68-96,223.79Z" transform="translate(139.17 4.9)"/><path class="cls-6" d="M-73.58,232.52a70.41,70.41,0,0,1-3.24-6.83C-87.65,199.27-81,168.85-66.16,143.4Q-21.78,67.33,70.63,43.64C81.1,41,91.87,38.82,102.69,39c31.32.51,64.22,14.09,93.72,21.95,24.54,6.54,49.19,23.81,60.12,44.53,5.11,9.66,6.8,20.47,8.44,31.11,5.36,34.77,8.32,67.74-17.9,97.87-25.58,29.39-63.63,36.22-102.21,41.81a499.84,499.84,0,0,1-129,2C-19.51,274.17-57.3,262.6-73.58,232.52Z" transform="translate(139.17 4.9)"/><path class="cls-7" d="M112.45,56.88c68.94,14.07,117.76,9.28,133.43,68.3,11.75,44.22,27.22,75.37-28.59,114.55C171.37,272,65,277.64,11.64,267c-52.91-10.55-73.8-36.43-75.95-78.47-2.55-49.69,41-92.33,89.39-115,20.63-9.65,53.37-27.4,87.37-16.65" transform="translate(139.17 4.9)"/><ellipse class="cls-8" cx="356.39" cy="102.41" rx="4.88" ry="4.98"/><rect class="cls-9" x="353.64" y="101.72" width="5.5" height="1.38"/><ellipse class="cls-8" cx="384.33" cy="191.02" rx="4.88" ry="4.98"/><rect class="cls-9" x="381.58" y="190.33" width="5.5" height="1.38"/><ellipse class="cls-8" cx="316.81" cy="253.96" rx="4.88" ry="4.98"/><rect class="cls-9" x="314.06" y="253.27" width="5.5" height="1.38"/><ellipse class="cls-8" cx="232.2" cy="266.17" rx="4.88" ry="4.98"/><rect class="cls-9" x="229.45" y="265.48" width="5.5" height="1.38"/><ellipse class="cls-8" cx="254.74" cy="73.5" rx="4.88" ry="4.98"/><rect class="cls-9" x="251.99" y="72.81" width="5.5" height="1.38"/><text class="cls-10" transform="translate(240.42 155.1) scale(0.98 1)">solid <tspan x="-8.09" y="28.8">p</tspan><tspan class="cls-11" x="6.7" y="28.8">h</tspan><tspan class="cls-12" x="19.87" y="28.8">ase</tspan></text></g><path class="cls-1" d="M1.26,150.3A159.14,159.14,0,0,0,73.18,292.77L92.79,371l60.49-53c85,2.87,157.07-63.14,161.93-149.21C320.13,81.38,253.85,6.38,167.15,1.27S6.19,62.89,1.26,150.3Z" transform="translate(139.17 4.9)"/></g></g></svg>