<svg xmlns="http://www.w3.org/2000/svg" viewBox="0 0 884 534"><defs><style>.cls-1{fill:#76b7da;}.cls-2{fill:#ea6b7c;stroke-width:1.6595px;}.cls-2,.cls-27{stroke:#6d54a3;}.cls-10,.cls-11,.cls-12,.cls-13,.cls-14,.cls-15,.cls-16,.cls-17,.cls-18,.cls-19,.cls-2,.cls-20,.cls-23,.cls-24,.cls-26,.cls-27,.cls-28,.cls-29,.cls-3,.cls-31,.cls-33,.cls-34,.cls-43,.cls-5,.cls-6,.cls-7,.cls-9{stroke-miterlimit:10;}.cls-16,.cls-28,.cls-3{fill:#6d54a3;}.cls-28,.cls-3{stroke:#e9e9e9;}.cls-3{stroke-width:0.5336px;}.cls-10,.cls-21,.cls-35,.cls-38,.cls-4{fill:#fff;}.cls-5{fill:#f27243;stroke:#ffcf01;stroke-width:1.5631px;}.cls-11,.cls-6,.cls-7{fill:#ffcf01;}.cls-12,.cls-13,.cls-15,.cls-17,.cls-19,.cls-23,.cls-26,.cls-33,.cls-6,.cls-7{stroke:#fff;}.cls-6{stroke-width:0.379px;}.cls-7{stroke-width:0.2181px;}.cls-18,.cls-24,.cls-8{fill:#fecf08;}.cls-9{fill:#da6a7c;}.cls-10,.cls-9{stroke:#d86b7d;stroke-width:0.9871px;}.cls-11,.cls-18,.cls-20{stroke:#2e61a2;}.cls-11{stroke-width:1.708px;}.cls-12,.cls-23{fill:#2e6292;}.cls-12{stroke-width:0.4141px;}.cls-13{fill:#2e61a1;stroke-width:0.2383px;}.cls-14,.cls-19,.cls-43{fill:#2e61a2;}.cls-14{stroke:#3daaa1;stroke-width:1.591px;}.cls-15{fill:#3daaa1;stroke-width:0.8968px;}.cls-16{stroke:#ec6a7c;stroke-width:2.3394px;}.cls-17{fill:#ec6a7c;stroke-width:0.5049px;}.cls-18{stroke-width:1.637px;}.cls-19{stroke-width:0.4911px;}.cls-20{fill:#3caba2;}.cls-20,.cls-24{stroke-width:1.7368px;}.cls-21{font-size:26.4798px;font-family:Acre-Bold, Acre;font-weight:700;}.cls-22{letter-spacing:-0.01em;}.cls-23,.cls-26{stroke-width:0.5789px;}.cls-24{stroke:#f37243;}.cls-25{letter-spacing:-0.015em;}.cls-26{fill:#f37243;}.cls-27{fill:#3f8880;stroke-width:1.8581px;}.cls-28{stroke-width:0.5975px;}.cls-29,.cls-33,.cls-34{fill:none;}.cls-29,.cls-31{stroke:#603917;stroke-width:1.2953px;}.cls-30{font-size:19.4292px;}.cls-30,.cls-31{fill:#5e5252;}.cls-30,.cls-42{font-family:Acre-Thin, Acre;font-weight:200;}.cls-32{fill:#603917;}.cls-33{stroke-width:5.7411px;}.cls-34{stroke:#523016;stroke-width:2.7689px;}.cls-35{font-size:45.6294px;}.cls-35,.cls-38{font-family:Acre-Medium, Acre;font-weight:500;}.cls-36{letter-spacing:-0.007em;}.cls-37{letter-spacing:-0.02em;}.cls-38{font-size:45.6292px;}.cls-39{letter-spacing:-0.006em;}.cls-40{letter-spacing:-0.02em;}.cls-41{letter-spacing:0em;}.cls-42{font-size:18.0848px;fill:#5d5153;}.cls-43{stroke:#3caba2;stroke-width:0.4492px;}</style></defs><g id="Layer_2" data-name="Layer 2"><g id="Layer_22" data-name="Layer 22"><g id="Layer_21" data-name="Layer 21"><rect class="cls-1" width="884" height="534"/><circle class="cls-2" cx="98.1381" cy="480.3735" r="23.8038"/><path class="cls-3" d="M116.1931,461.4a3.941,3.941,0,0,1-4.283,3.7106,4.2558,4.2558,0,0,1-4.1295-3.1615l2.5973-1.2705a1.8171,1.8171,0,0,0,1.5772,1.4227,1.1983,1.1983,0,0,0,1.2916-1.1544,1.1724,1.1724,0,0,0-1.19-1.1948,1.8734,1.8734,0,0,0-1.0795.2892l-1.031-1.5019,2.5152-2.1955-3.7641-.1371.1065-2.9247,6.9514.2533-.0988,2.7117-1.8211,1.6612A3.601,3.601,0,0,1,116.1931,461.4Z"/><path class="cls-3" d="M117.2884,458.9055l5.3244.1941-.0881,2.4153-5.3243-.194Z"/><path class="cls-4" d="M92.2944,477.5557a4.8334,4.8334,0,0,1-5.3725,4.81l-1.4893-.0537-.1767,4.85-3.127-.1142.543-14.8907,4.5947.168A5.0124,5.0124,0,0,1,92.2944,477.5557Zm-3.2124-.1172a2.0392,2.0392,0,0,0-2.0747-2.0987l-1.3188-.0488-.1465,4.0205,1.3188.0489A1.9757,1.9757,0,0,0,89.082,477.4385Z"/><path class="cls-4" d="M93.5488,480.0078a7.7056,7.7056,0,1,1,7.4195,8.0029A7.5223,7.5223,0,0,1,93.5488,480.0078Zm12.1885.4443a4.4928,4.4928,0,1,0-4.6562,4.4532A4.4728,4.4728,0,0,0,105.7373,480.4521Z"/><path class="cls-4" d="M115.2217,487.4l-.6382-.0225-.0313.8506L112.66,488.16l.0312-.8516-2.8506-.1035.0489-1.34,2.4248-4.5771,2.4882.0908-.1538,4.2119.6382.0235Zm-2.4658-1.8779.0673-1.8506-.8335,1.8222Z"/><circle class="cls-2" cx="337.1381" cy="419.3735" r="23.8038"/><path class="cls-3" d="M355.1931,400.4a3.941,3.941,0,0,1-4.283,3.7106,4.2558,4.2558,0,0,1-4.13-3.1615l2.5973-1.2705a1.8171,1.8171,0,0,0,1.5772,1.4227,1.1983,1.1983,0,0,0,1.2916-1.1544,1.1724,1.1724,0,0,0-1.19-1.1948,1.8734,1.8734,0,0,0-1.0795.2892l-1.031-1.5019,2.5152-2.1955-3.7641-.1371.1065-2.9247,6.9514.2533-.0988,2.7117-1.8211,1.6612A3.601,3.601,0,0,1,355.1931,400.4Z"/><path class="cls-3" d="M356.2884,397.9055l5.3244.1941-.0881,2.4153-5.3243-.194Z"/><path class="cls-4" d="M331.2944,416.5557a4.8334,4.8334,0,0,1-5.3725,4.81l-1.4893-.0537-.1767,4.85-3.127-.1142.543-14.8907,4.5947.168A5.0124,5.0124,0,0,1,331.2944,416.5557Zm-3.2124-.1172a2.0392,2.0392,0,0,0-2.0747-2.0987l-1.3188-.0488-.1465,4.0205,1.3188.0489A1.9757,1.9757,0,0,0,328.082,416.4385Z"/><path class="cls-4" d="M332.5488,419.0078a7.7056,7.7056,0,1,1,7.4195,8.0029A7.5223,7.5223,0,0,1,332.5488,419.0078Zm12.1885.4443a4.4928,4.4928,0,1,0-4.6562,4.4532A4.4728,4.4728,0,0,0,344.7373,419.4521Z"/><path class="cls-4" d="M354.2217,426.4l-.6382-.0225-.0313.8506L351.66,427.16l.0312-.8516-2.8506-.1035.0489-1.34,2.4248-4.5771,2.4882.0908-.1538,4.2119.6382.0235Zm-2.4658-1.8779.0673-1.8506-.8335,1.8222Z"/><circle class="cls-5" cx="58.0305" cy="98.4497" r="17.3372"/><path class="cls-4" d="M53.958,103.9453l-1.1733-5.6777-2.6338,5.7666-.37-.002-2.53-5.7314-1.1221,5.6045-2.3735-.0117,2.413-10.9151.9707.0049,2.8487,6.7031,2.9155-6.6738.9863.0049,2.4107,10.9394Z"/><path class="cls-4" d="M57.0693,98.5664a5.579,5.579,0,1,1,5.55,5.6231A5.4456,5.4456,0,0,1,57.0693,98.5664Zm8.8306.0449a3.2533,3.2533,0,1,0-3.269,3.3282A3.2384,3.2384,0,0,0,65.9,98.6113Z"/><path class="cls-4" d="M72.92,103.4248l-.4624-.0029-.0034.6172-1.3716-.0069.0034-.6172-2.0649-.0107.0049-.9707,1.65-3.3662,1.8032.0088-.0156,3.0517.4624.002Zm-1.8276-1.3037L71.1,100.78l-.5615,1.3379Z"/><path class="cls-6" d="M68.0533,87.3889c1.0883-1.1221,2.25-2.3319,3.2647-3.425a2.8367,2.8367,0,0,0,.9576-1.7633.9585.9585,0,0,0-.9576-.9617c-.7113,0-1.1308.67-1.1171,1.4281l-2.54-.6854a3.6066,3.6066,0,0,1,3.6432-3.454,3.4388,3.4388,0,0,1,3.6416,3.2792,4.662,4.662,0,0,1-1.6688,3.338c-.3344.3786-.725.8159-1.0594,1.21h2.713v2.5648H68.0533Z"/><path class="cls-7" d="M76.1384,83.42h5.18v2.1293h-5.18Z"/><circle class="cls-5" cx="246.0305" cy="490.4497" r="17.3372"/><path class="cls-4" d="M241.958,495.9453l-1.1733-5.6777-2.6338,5.7666-.37-.002-2.53-5.7314-1.1221,5.6045-2.3735-.0117,2.413-10.9151.9707.0049,2.8487,6.7031,2.9155-6.6738.9863.0049,2.4107,10.9394Z"/><path class="cls-4" d="M245.0693,490.5664a5.579,5.579,0,1,1,5.55,5.6231A5.4456,5.4456,0,0,1,245.0693,490.5664Zm8.8306.0449a3.2533,3.2533,0,1,0-3.269,3.3282A3.2384,3.2384,0,0,0,253.9,490.6113Z"/><path class="cls-4" d="M260.92,495.4248l-.4624-.0029-.0034.6172-1.3716-.0069.0034-.6172-2.0649-.0107.0049-.9707,1.65-3.3662,1.8032.0088-.0156,3.0517.4624.002Zm-1.8276-1.3037L259.1,492.78l-.5615,1.3379Z"/><path class="cls-6" d="M256.0533,479.3889c1.0883-1.1221,2.25-2.3319,3.2647-3.425a2.8367,2.8367,0,0,0,.9576-1.7633.9585.9585,0,0,0-.9576-.9617c-.7113,0-1.1308.67-1.1171,1.4281l-2.54-.6854a3.6066,3.6066,0,0,1,3.6432-3.454,3.4388,3.4388,0,0,1,3.6416,3.2792,4.662,4.662,0,0,1-1.6688,3.338c-.3344.3786-.725.8159-1.0594,1.21h2.713v2.5648h-6.8775Z"/><path class="cls-7" d="M264.1384,475.42h5.18v2.1293h-5.18Z"/><path class="cls-8" d="M742.7866,292.9048l1.2784,1.6328a.9665.9665,0,0,1-1.48,1.2418l-1.3862-1.5423a1.0369,1.0369,0,1,1,1.5424-1.3862C742.7565,292.8677,742.7727,292.8872,742.7866,292.9048Z"/><path class="cls-8" d="M746.39,297.5066l2.3247,2.969a.71.71,0,0,1-1.0878.9129l-2.5206-2.8045a.8385.8385,0,0,1,1.2472-1.121C746.3653,297.4766,746.3784,297.4924,746.39,297.5066Z"/><path class="cls-8" d="M751.0389,303.4446l2.3247,2.969a.4545.4545,0,0,1-.6958.584l-2.5207-2.8045a.5825.5825,0,1,1,.8664-.7787Z"/><path class="cls-8" d="M755.6882,309.3827l2.3246,2.969a.1984.1984,0,0,1-.3038.2549l-2.5206-2.8045a.3264.3264,0,0,1,.4856-.4364Z"/><path class="cls-8" d="M760.3375,315.3207l1.2784,1.6328-1.3862-1.5424a.07.07,0,0,1,.1047-.0941Z"/><path class="cls-9" d="M722.872,280.2878l-4.4093-5.1513-8.1528-9.5248a6.2023,6.2023,0,1,1,9.4238-8.0663l8.1528,9.5248,4.4092,5.1513,5.9145-5.0626-12.562-14.6761a13.9876,13.9876,0,1,0-21.2528,18.1914L716.9575,285.35Z"/><rect class="cls-10" x="728.8291" y="262.8403" width="7.7853" height="7.7853" transform="translate(1462.8213 -7.096) rotate(139.4381)"/><rect class="cls-10" x="713.4908" y="275.9691" width="7.7853" height="7.7853" transform="translate(1444.3677 25.9809) rotate(139.4381)"/><path class="cls-4" d="M736.9343,272.3653c.1526,1.0209,1.3276,1.4683,2.2617,1.9074s1.8917,1.5246,1.3061,2.3746c-.4358.6325-1.5524.7434-1.6519,1.505l4.092,1.7275c.2565.1083.5539.2725.5644.5507a.7459.7459,0,0,1-.1928.4436L741.7557,283a28.054,28.054,0,0,1,4.9259,2.594"/><path class="cls-8" d="M738.5838,272.1188c-.0252-.0632-.119-.1092-.0554-.0056.6314.6736,1.9412,1.0385,2.5524,1.8707a2.5427,2.5427,0,0,1-.9994,4.3531,2.4487,2.4487,0,0,1-.2229.1051c-.0141.0047.0362-.0971.0229-.1549l-.6267-1.093,3.7492,1.9221c.9065.3468,1.6,1.2438.7962,2.1265l-.3419.4005-1.3678,1.6022-.1787-.63a28.1819,28.1819,0,0,1,4.77,2.9784,27.764,27.764,0,0,0-5.0817-2.2095.3975.3975,0,0,1-.1787-.63l1.1156-1.7869.2789-.4467c.104-.1433.0622-.2063.0422-.0518.0137.1521.0731.1654-.02.1248-.0653-.0287-.2242-.0772-.4-.1378l-3.9923-1.3461c-.9614-.318-.676-1.6435-.1351-2.1728.2993-.3833,1.1012-.7659,1.2071-.9752-.024-.05-.11.1365-.11.152a2.21,2.21,0,0,0-.7869-.527,7.1076,7.1076,0,0,1-2.2739-1.1622c-1.2291-.9367-1.693-3.3054.3408-3.7095a1.6678,1.6678,0,0,1,1.896,1.403Z"/><path class="cls-4" d="M722.1151,285.13l3.0709,1.5472a1.413,1.413,0,0,1,.6869.5564c.3375.6825-.5257,1.37-.5957,2.128-.0733.7929.7455,1.39,1.5224,1.5653a11.3635,11.3635,0,0,1,2.3376.4474c1.1894.5493,1.6724,1.9442,2.4306,3.0126s2.47,1.8206,3.2852.7953"/><path class="cls-8" d="M722.8655,283.6409l2.0462,1.2643,1.0519.649c1.6184.9054,1.4646,2.5691.5348,3.7122-.152.2807-.14.1547-.1768.2135.0583.3766.76.6549,1.165.7156a4.8326,4.8326,0,0,1,2.5477,1.0065c1.3458,1.2195,1.2856,2.9776,2.7284,3.9582a1.5971,1.5971,0,0,0,2.09.0224,1.3577,1.3577,0,0,1-1.0493.5878c-2.2828.1877-3.086-2.5408-4.5448-3.5871-.61-.449-1.7474-.2468-2.66-.3931a2.519,2.519,0,0,1-2.1659-3.5208c.2032-.4522.3481-.8408.2667-.7458a.51.51,0,0,0,.06.3783c.0693.1082.0524.0853-.0751.0419-.7042-.2817-2.5947-1.0321-3.32-1.324a1.6725,1.6725,0,1,1,1.5009-2.9789Z"/><path class="cls-8" d="M512.5179,354.0055l-.3156,2.05a.9665.9665,0,0,1-1.9182-.2291l.1759-2.0663a1.0368,1.0368,0,0,1,2.0662.176C512.5244,353.9583,512.5212,353.9834,512.5179,354.0055Z"/><path class="cls-8" d="M511.6283,359.782l-.574,3.7269a.71.71,0,0,1-1.41-.1685l.32-3.7572a.8384.8384,0,1,1,1.6708.1423C511.6335,359.7437,511.631,359.764,511.6283,359.782Z"/><path class="cls-8" d="M510.48,367.2357l-.574,3.7269a.4544.4544,0,0,1-.9019-.1078l.32-3.7572a.5825.5825,0,0,1,1.1607.0989Z"/><path class="cls-8" d="M509.3323,374.69l-.574,3.7268a.1984.1984,0,0,1-.3938-.047l.32-3.7572a.3264.3264,0,1,1,.6505.0553Z"/><path class="cls-8" d="M508.1843,382.1431l-.3156,2.05.1759-2.0662a.07.07,0,1,1,.14.0119Z"/><path class="cls-9" d="M508.089,330.85l.7386-6.74,1.3657-12.463a6.2023,6.2023,0,1,1,12.3307,1.3512l-1.3656,12.4629-.7386,6.74,7.7389.8481,2.1043-19.2033a13.9876,13.9876,0,0,0-27.8087-3.0472L500.35,330.0022Z"/><rect class="cls-10" x="520.8206" y="324.8633" width="7.7853" height="7.7853" transform="translate(1010.4945 712.7105) rotate(-173.7466)"/><rect class="cls-10" x="500.7509" y="322.6641" width="7.7853" height="7.7853" transform="translate(970.7141 706.1391) rotate(-173.7466)"/><path class="cls-4" d="M523.4893,335.6821c-.64.81-.1621,1.9728.157,2.9544s.183,2.4227-.8376,2.5774c-.7594.1151-1.6044-.6231-2.2279-.1745l1.5408,4.166c.0966.2611.18.59-.0153.7883a.7456.7456,0,0,1-.4554.163l-2.6166.319a28.0449,28.0449,0,0,1,1.48,5.367"/><path class="cls-8" d="M524.7979,336.7161c.0289-.0616-.0018-.1615-.0339-.0442-.059.9213.5713,2.1262.3828,3.1413a2.5428,2.5428,0,0,1-3.8581,2.25,2.4444,2.4444,0,0,1-.2291-.09c-.0132-.0072.0955-.04.1286-.0893l.3681-1.205,1.1643,4.0491c.1288.5078.3923,1.0625-.1129,1.6787-.5825.5058-.8917.3083-1.4188.382l-2.1042.099.3367-.5611a28.1848,28.1848,0,0,1,1.0925,5.5163,27.76,27.76,0,0,0-1.8666-5.2175.3911.3911,0,0,1,.2742-.549c.4371-.0848,2.2445-.4457,2.6457-.524.1757-.0223.193-.0959.0667-.0047-.1016.1141-.0706.1664-.1048.0708-.0237-.0674-.0972-.2164-.1731-.3858L519.6054,341.4c-.5032-1.3082,1.415-1.8275,2.2975-1.4876a1.9921,1.9921,0,0,0,.7315.1149c.02-.0519-.1748.0132-.1861.0239-.02-.0156.0183-.1681-.0065-.3611-.1939-1.0388-.8318-1.8087-.8564-3.0268-.1709-1.5232,1.2726-3.5037,2.938-2.29a1.6679,1.6679,0,0,1,.2745,2.3426Z"/><path class="cls-4" d="M504.04,333.6125l.9734,3.298a1.4124,1.4124,0,0,1,.0644.8816c-.2667.7132-1.3586.5541-1.9593,1.0219a1.72,1.72,0,0,0-.1,2.1813,11.3688,11.3688,0,0,1,1.2735,2.0106c.4134,1.2432-.2731,2.55-.5332,3.834s.3626,3.0468,1.6683,2.94"/><path class="cls-8" d="M505.64,333.14l.4784,2.3572.2468,1.2111c.4383,1.8178-.8568,2.814-2.3408,2.93-.3087.0813-.2087.0036-.2767.0172-.2346.3.0422,1.002.2755,1.3391a4.8322,4.8322,0,0,1,1.01,2.5465c.0318,1.8159-1.2912,2.9752-1.0189,4.6983.0992.7161.5567,1.5332,1.4142,1.5394a1.3571,1.3571,0,0,1-1.1467-.3628c-1.7048-1.5569-.2562-3.9778-.4947-5.7686-.1-.6076-.5319-1.0116-1.1081-1.666-1.3457-1.3124-1.4458-3.8738.66-4.5311.4687-.1613.8513-.3216.7263-.3159a.5094.5094,0,0,0-.2348.3026c-.0316.1246-.0264.0966-.082-.0261-.2765-.7062-1.0231-2.5982-1.3069-3.3271a1.6725,1.6725,0,1,1,3.1992-.9442Z"/><path class="cls-8" d="M180.8663,212.5691l-1.76,1.0969a.9665.9665,0,0,1-1.0769-1.6039l1.6815-1.2137a1.0368,1.0368,0,1,1,1.2137,1.6814C180.9063,212.5431,180.8852,212.5572,180.8663,212.5691Z"/><path class="cls-8" d="M175.9062,215.6605l-3.2,1.9946a.71.71,0,0,1-.7916-1.179l3.0574-2.207a.8385.8385,0,1,1,.9815,1.36C175.9387,215.64,175.9216,215.6509,175.9062,215.6605Z"/><path class="cls-8" d="M169.506,219.65l-3.2,1.9946a.4545.4545,0,0,1-.5063-.7542l3.0575-2.2069a.5824.5824,0,0,1,.6818.9445Z"/><path class="cls-8" d="M163.1058,223.6387l-3.2,1.9946a.1984.1984,0,0,1-.2211-.3293l3.0575-2.207a.3264.3264,0,0,1,.3821.5294Z"/><path class="cls-8" d="M156.7056,227.6278l-1.76,1.0969,1.6814-1.2137a.07.07,0,1,1,.0824.1142Z"/><path class="cls-9" d="M195.5363,194.1145l5.5923-3.8345,10.34-7.09a6.2023,6.2023,0,0,1,7.0147,10.2307l-10.34,7.09-5.5924,3.8345,4.4026,6.4209,15.9327-10.9243a13.9876,13.9876,0,0,0-15.82-23.0726l-15.9328,10.9243Z"/><rect class="cls-10" x="204.07" y="201.4617" width="7.7853" height="7.7853" transform="translate(156.1973 492.9986) rotate(-124.4365)"/><rect class="cls-10" x="192.6528" y="184.8101" width="7.7853" height="7.7853" transform="translate(152.0572 457.5143) rotate(-124.4365)"/><path class="cls-4" d="M201.9129,208.9419c-1.0313.0428-1.6015,1.1633-2.1378,2.0452s-1.7177,1.7182-2.5,1.0453c-.5824-.5008-.5735-1.6228-1.32-1.8031L193.8,214.1137c-.1351.2434-.33.5216-.6078.5023a.7455.7455,0,0,1-.4205-.239l-1.9478-1.776a28.0543,28.0543,0,0,1-3.1048,4.6209"/><path class="cls-8" d="M201.9821,210.6083c.0655-.0183.1213-.1067.0114-.0546-.737.556-1.24,1.8194-2.1324,2.3383a2.5427,2.5427,0,0,1-4.2216-1.4582c-.0445-.1315-.0846-.22-.0807-.2328-.0031-.0146.0927.0463.1516.0393l1.1536-.5065-2.3111,3.5227c-.4416.8643-1.4074,1.4578-2.1994.5647l-.3617-.3827-1.4471-1.5309.6451-.1105a28.1818,28.1818,0,0,1-3.47,4.4248,27.7732,27.7732,0,0,0,2.7392-4.8169.3974.3974,0,0,1,.6452-.1105l1.6576,1.3.4144.325c.1315.1187.1986.0838.047.0475-.1526-.0026-.1722.055-.1219-.0333.0356-.0619.1006-.2148.18-.3828l1.7644-3.8258c.4186-.9219,1.7063-.4968,2.1748.0975.3493.3386.6439,1.1767.8409,1.3043.0525-.0185-.1241-.1239-.1395-.1256-.001-.025.1393-.0956.2695-.24.6613-.8242.8292-1.81,1.7368-2.6227,1.0624-1.1221,3.467-1.3306,3.6519.7347a1.6679,1.6679,0,0,1-1.5973,1.7355Z"/><path class="cls-4" d="M190.802,192.8452l-1.866,2.8883a1.4117,1.4117,0,0,1-.6266.6235c-.7146.2628-1.3058-.6688-2.0522-.8194-.7806-.1574-1.4621.5929-1.7188,1.3468a11.3735,11.3735,0,0,1-.6943,2.2765c-.6731,1.1239-2.1116,1.4554-3.2548,2.0953s-2.0737,2.2613-1.1412,3.1815"/><path class="cls-8" d="M192.2029,193.75l-1.4754,1.9-.7575.9767c-1.0729,1.5125-2.7106,1.1821-3.7481.1356-.2629-.181-.1388-.1559-.1934-.1986-.3806.0178-.7323.6853-.8357,1.082a4.8334,4.8334,0,0,1-1.2727,2.4257c-1.3561,1.2081-3.0978.9606-4.2268,2.2905a1.5971,1.5971,0,0,0-.2452,2.076,1.3569,1.3569,0,0,1-.4725-1.106c.0568-2.29,2.8556-2.7973,4.0515-4.1361a3.6284,3.6284,0,0,0,.5408-1.9264c.1178-1.876,1.9947-3.6217,3.8657-2.4539.4279.25.7989.4358.7131.3447a.51.51,0,0,0-.3825.0193c-.1151.0573-.09.043-.0337-.0792.3552-.67,1.3031-2.47,1.6707-3.16a1.6724,1.6724,0,1,1,2.8017,1.81Z"/><circle class="cls-11" cx="74.5159" cy="371.8962" r="18.9442"/><path class="cls-12" d="M85.04,360.14c1.1429-1.2693,2.362-2.6373,3.4264-3.8719a3.1,3.1,0,0,0,.9743-1.9641,1.0474,1.0474,0,0,0-1.0845-1.0115c-.7767.0287-1.2077.7775-1.1621,1.6046l-2.8009-.6458a3.9409,3.9409,0,0,1,3.8384-3.9189,3.7576,3.7576,0,0,1,4.1091,3.4335,5.0942,5.0942,0,0,1-1.6873,3.7124c-.35.4269-.7587.92-1.1078,1.3639l2.9624-.11.1037,2.8-7.51.2781Z"/><path class="cls-13" d="M93.6809,354.7519l5.6559-.2094.0861,2.3251-5.6559.2094Z"/><path class="cls-4" d="M61.8047,376.58l1.4551-1.9336a3.7709,3.7709,0,0,0,2.6367,1.2969c.8418-.0274,1.3315-.5313,1.3115-1.1543-.0654-2.0537-5.1675-1.3692-5.2563-5.209-.0577-1.8018,1.4106-3.3321,3.6665-3.4033a5.3277,5.3277,0,0,1,3.7724,1.497l-1.354,1.9141a3.5541,3.5541,0,0,0-2.24-.99c-.7573.0244-1.2319.4609-1.2129,1.05.0591,1.8525,5.167,1.3681,5.2549,5.1748.0439,1.9033-1.3721,3.4658-3.8477,3.5449A5.4733,5.4733,0,0,1,61.8047,376.58Z"/><path class="cls-4" d="M71.064,372.1045a6.0981,6.0981,0,1,1,6.2905,5.916A5.9537,5.9537,0,0,1,71.064,372.1045Zm9.6479-.3086a3.5559,3.5559,0,1,0-3.436,3.7666A3.5405,3.5405,0,0,0,80.7119,371.7959Z"/><path class="cls-4" d="M88.57,376.7686l-.5053.0166.0214.6738-1.498.0478-.0215-.6738-2.2568.0723-.0337-1.0606,1.667-3.7451,1.97-.0625.1069,3.334.5054-.0166Zm-2.0483-1.35-.0469-1.4648-.56,1.4844Z"/><circle class="cls-11" cx="279.5159" cy="314.8962" r="18.9442"/><path class="cls-12" d="M290.04,303.14c1.1429-1.2693,2.362-2.6373,3.4264-3.8719a3.1,3.1,0,0,0,.9743-1.9641,1.0474,1.0474,0,0,0-1.0845-1.0115c-.7767.0287-1.2077.7775-1.1621,1.6046l-2.8009-.6458a3.9409,3.9409,0,0,1,3.8384-3.9189,3.7576,3.7576,0,0,1,4.1091,3.4335,5.0942,5.0942,0,0,1-1.6873,3.7124c-.35.4269-.7587.92-1.1078,1.3639l2.9624-.11.1037,2.8-7.51.2781Z"/><path class="cls-13" d="M298.6809,297.7519l5.6559-.2094.0861,2.3251-5.6559.2094Z"/><path class="cls-4" d="M266.8047,319.58l1.4551-1.9336a3.7709,3.7709,0,0,0,2.6367,1.2969c.8418-.0274,1.3315-.5313,1.3115-1.1543-.0654-2.0537-5.1675-1.3692-5.2563-5.209-.0577-1.8018,1.4106-3.3321,3.6665-3.4033a5.3277,5.3277,0,0,1,3.7724,1.497l-1.354,1.9141a3.5541,3.5541,0,0,0-2.24-.99c-.7573.0244-1.2319.4609-1.2129,1.05.0591,1.8525,5.167,1.3681,5.2549,5.1748.0439,1.9033-1.3721,3.4658-3.8477,3.5449A5.4733,5.4733,0,0,1,266.8047,319.58Z"/><path class="cls-4" d="M276.064,315.1045a6.0981,6.0981,0,1,1,6.29,5.916A5.9537,5.9537,0,0,1,276.064,315.1045Zm9.6479-.3086a3.5559,3.5559,0,1,0-3.436,3.7666A3.5405,3.5405,0,0,0,285.7119,314.7959Z"/><path class="cls-4" d="M293.57,319.7686l-.5053.0166.0214.6738-1.498.0478-.0215-.6738-2.2568.0723-.0337-1.0606,1.667-3.7451,1.97-.0625.1069,3.334.5054-.0166Zm-2.0483-1.35-.0469-1.4648-.56,1.4844Z"/><circle class="cls-14" cx="194.9828" cy="378.6113" r="22.8222"/><path class="cls-15" d="M208.5563,362.9383l9.5929.35-.138,3.7861-9.5929-.35Z"/><path class="cls-4" d="M190.5757,381.2588a4.1356,4.1356,0,0,1-4.6172,3.9375l-5.6929-.207.52-14.2823,4.897.1778c2.938.1074,4.2593,1.9746,4.186,3.9736a3.53,3.53,0,0,1-1.3867,2.7275A3.8394,3.8394,0,0,1,190.5757,381.2588Zm-3.21-.4854a1.6145,1.6145,0,0,0-1.7187-1.6152l-2.1631-.0791-.1143,3.1416,2.1631.0791A1.62,1.62,0,0,0,187.3657,380.7734Zm-3.686-7.06-.1035,2.8369,1.51.0547a1.5044,1.5044,0,0,0,1.7251-1.3672c.03-.8164-.56-1.4307-1.6015-1.4678Z"/><path class="cls-4" d="M192.418,378.2812a7.3907,7.3907,0,1,1,7.1157,7.6758A7.2147,7.2147,0,0,1,192.418,378.2812Zm11.69.4268a4.3095,4.3095,0,1,0-4.4658,4.2695A4.2909,4.2909,0,0,0,204.1084,378.708Z"/><path class="cls-4" d="M213.1226,384.1025a2.2558,2.2558,0,0,1-2.5083,2.1153,2.4127,2.4127,0,0,1-2.3453-1.8018l1.76-.6514a.7318.7318,0,0,0,.6533.5752.5282.5282,0,0,0,.5694-.4892.52.52,0,0,0-.5313-.5508.7489.7489,0,0,0-.3506.09l-1.0063-.9765,1.2241-1.0791-1.877-.0684.066-1.8164,4.1416.1514-.0591,1.6318-1.01.8213A2.1219,2.1219,0,0,1,213.1226,384.1025Z"/><circle class="cls-16" cx="504.2892" cy="434.3896" r="25.3268"/><path class="cls-4" d="M507.2852,448.0244l-8.0386-11.4624v11.4624h-5.4707V421.9731h5.4707V434.18l7.9272-12.2071h6.3638l-8.9688,13.2862,9.2666,12.7651Z"/><path class="cls-17" d="M526.9857,415.4673h-4.4716v4.4243h-4.2357v-4.4243h-4.2709v-4.1519h4.2709v-4.3889h4.2357v4.3889h4.4716Z"/><circle class="cls-16" cx="738.3894" cy="475.3849" r="25.3268"/><path class="cls-4" d="M742.65,488.6788l-9.0778-10.6583,1.0746,11.4119-5.4466.5129-2.4423-25.9365,5.4466-.5129,1.1444,12.1533,6.7479-12.8965,6.3357-.5966-7.6836,14.0684,10.4225,11.84Z"/><path class="cls-17" d="M759.2119,454.4181l-4.4519.4192.4148,4.4048-4.2171.3971-.4148-4.4048-4.252.4-.3893-4.1336,4.2521-.4-.4115-4.37,4.2171-.3971.4114,4.37,4.4519-.4192Z"/><circle class="cls-18" cx="636.1174" cy="379.5287" r="20.9652"/><path class="cls-19" d="M655.5393,363.8283h-3.9149v3.8735H647.916v-3.8735h-3.7392v-3.635h3.7392v-3.8425h3.7084v3.8425h3.9149Z"/><path class="cls-4" d="M636.2593,372.0972v14.94h-1.6441L626.84,378.166v8.6817h-3.0976V371.95h1.6435l7.7969,9.103v-8.9555Z"/><path class="cls-4" d="M649.1733,376.3115v10.5362h-3.0346V385.499a3.94,3.94,0,0,1-3.1607,1.4961c-2.8872,0-4.7417-2.4023-4.7417-5.4365,0-3.0137,1.8545-5.4155,4.7417-5.4155a3.94,3.94,0,0,1,3.1607,1.4961v-1.3277Zm-3.0556,5.2471a2.4111,2.4111,0,0,0-2.36-2.4868,2.4912,2.4912,0,0,0,0,4.9731A2.3979,2.3979,0,0,0,646.1177,381.5586Z"/><circle class="cls-20" cx="819.75" cy="186.4971" r="24.8401"/><text class="cls-21" transform="translate(800.0459 194.7773)"><tspan class="cls-22">M</tspan><tspan x="22.0313" y="0">g</tspan></text><path class="cls-23" d="M830.578,170.8642c1.5841-1.6333,3.2743-3.3943,4.7521-4.9854a4.1293,4.1293,0,0,0,1.3938-2.5666,1.3953,1.3953,0,0,0-1.3938-1.4c-1.0353,0-1.6459.9755-1.626,2.0788l-3.6969-.9977a5.25,5.25,0,0,1,5.303-5.0277,5.0055,5.0055,0,0,1,5.3008,4.7732c0,1.9733-.9933,3.3944-2.4291,4.8588-.4868.5511-1.0553,1.1878-1.542,1.7611h3.949v3.7333H830.578Z"/><path class="cls-23" d="M850.1219,167.9365h-2.81v2.78h-2.6614v-2.78h-2.6836v-2.6088h2.6836V162.57h2.6614v2.7577h2.81Z"/><circle class="cls-20" cx="600.75" cy="482.4971" r="24.8401"/><text class="cls-21" transform="translate(581.0459 490.7773)"><tspan class="cls-22">M</tspan><tspan x="22.0313" y="0">g</tspan></text><path class="cls-23" d="M611.578,466.8642c1.5841-1.6333,3.2743-3.3943,4.7521-4.9854a4.1293,4.1293,0,0,0,1.3938-2.5666,1.3953,1.3953,0,0,0-1.3938-1.4c-1.0353,0-1.6459.9755-1.626,2.0788l-3.6969-.9977a5.25,5.25,0,0,1,5.303-5.0277,5.0055,5.0055,0,0,1,5.3008,4.7732c0,1.9733-.9933,3.3944-2.4291,4.8588-.4868.5511-1.0553,1.1878-1.542,1.7611h3.949v3.7333H611.578Z"/><path class="cls-23" d="M631.1219,463.9365h-2.81v2.78h-2.6614v-2.78h-2.6836v-2.6088h2.6836V458.57h2.6614v2.7577h2.81Z"/><circle class="cls-24" cx="790.3532" cy="355.145" r="22.5211"/><text class="cls-21" transform="translate(773.9361 363.4265) rotate(0.102)"><tspan class="cls-25">C</tspan><tspan x="15.623" y="0">a</tspan></text><path class="cls-26" d="M795.9106,336.7816c1.3749-1.4177,2.842-2.9463,4.1247-4.3273a3.584,3.584,0,0,0,1.21-2.2277,1.2111,1.2111,0,0,0-1.21-1.2152c-.8986,0-1.4286.8468-1.4113,1.8044l-3.2088-.866a4.5567,4.5567,0,0,1,4.6029-4.3639,4.3446,4.3446,0,0,1,4.6009,4.143,5.89,5.89,0,0,1-2.1084,4.2173c-.4225.4784-.916,1.031-1.3385,1.5286H804.6v3.24h-8.6892Z"/><path class="cls-26" d="M812.8742,334.24h-2.4387v2.4129h-2.31V334.24h-2.3293V331.976h2.3293v-2.3936h2.31v2.3936h2.4387Z"/><circle class="cls-27" cx="113.1435" cy="253.4529" r="26.6531"/><path class="cls-28" d="M133.36,232.2076a4.4128,4.4128,0,0,1-4.7957,4.1548,4.7652,4.7652,0,0,1-4.6238-3.54l2.9082-1.4226a2.0346,2.0346,0,0,0,1.766,1.593,1.3416,1.3416,0,0,0,1.4461-1.2926,1.3127,1.3127,0,0,0-1.3327-1.3378,2.0984,2.0984,0,0,0-1.2088.3238l-1.1543-1.6816,2.8163-2.4583-4.2148-.1536.1194-3.2748,7.7834.2836-.1107,3.0363-2.039,1.86A4.0322,4.0322,0,0,1,133.36,232.2076Z"/><path class="cls-28" d="M134.5861,229.4152l5.9617.2172-.0985,2.7045-5.9617-.2172Z"/><text/><path class="cls-4" d="M106.4931,250.5231c-.1177,3.2454-2.4228,5.6979-6.2089,5.5593l-1.722-.0624-.205,5.6057-3.6139-.1313.628-17.2114,5.311.193A5.7933,5.7933,0,0,1,106.4931,250.5231Zm-3.7131-.1353a2.3568,2.3568,0,0,0-2.3973-2.4261l-1.525-.0561-.17,4.6471,1.5249.0561A2.2826,2.2826,0,0,0,102.78,250.3878Z"/><path class="cls-4" d="M107.9412,253.3584a8.9068,8.9068,0,1,1,8.5749,9.2493A8.6947,8.6947,0,0,1,107.9412,253.3584Zm14.0886.5126a5.1932,5.1932,0,1,0-5.3832,5.1469A5.17,5.17,0,0,0,122.03,253.871Z"/><path class="cls-4" d="M132.792,261.9269l-.7152-.0264-.0353.9531-2.1209-.0777.0353-.9531-3.1918-.1162.0545-1.5009,2.716-5.1252,2.7872.1017-.1722,4.7167.7153.0265Zm-2.7633-2.1049.0753-2.0728-.9323,2.0416Z"/><line class="cls-29" x1="346.4476" y1="165.3809" x2="355.0609" y2="143.1583"/><line class="cls-29" x1="361.8036" y1="184.1691" x2="385.8521" y2="180.3714"/><line class="cls-29" x1="508.0077" y1="207.2731" x2="510.7766" y2="183.601"/><line class="cls-29" x1="528.2096" y1="221.4518" x2="550.5388" y2="211.7482"/><line class="cls-29" x1="532.8546" y1="173.7636" x2="552.4228" y2="188.2495"/><line class="cls-29" x1="379.184" y1="138.3577" x2="394.4971" y2="157.2855"/><line class="cls-29" x1="730.6135" y1="182.6011" x2="721.8495" y2="160.4374"/><line class="cls-29" x1="755.1201" y1="185.5306" x2="770.198" y2="166.4149"/><line class="cls-29" x1="736.6428" y1="141.3228" x2="760.7365" y2="144.8228"/><line class="cls-29" x1="350.0006" y1="213.6778" x2="360.1134" y2="188.2035"/><line class="cls-29" x1="525.949" y1="253.259" x2="527.5846" y2="225.7811"/><line class="cls-29" x1="767.7839" y1="215.7599" x2="756.6182" y2="189.7049"/><line class="cls-29" x1="642.1595" y1="253.4664" x2="623.3393" y2="236.5839"/><line class="cls-29" x1="593.713" y1="257.9936" x2="608.8284" y2="237.7268"/><line class="cls-29" x1="590.2386" y1="255.4023" x2="605.354" y2="235.1355"/><line class="cls-29" x1="284.2916" y1="156.9348" x2="291.7067" y2="132.92"/><line class="cls-29" x1="287.6239" y1="113.4134" x2="268.7518" y2="96.814"/><line class="cls-29" x1="289.9157" y1="110.8078" x2="271.0436" y2="94.2084"/><text class="cls-30" transform="matrix(1, 0.0018, -0.0018, 1, 250.3908, 94.2298)">O</text><text class="cls-30" transform="matrix(1, 0.0018, -0.0018, 1, 575.0698, 272.3952)">O</text><text class="cls-30" transform="matrix(1, 0.0018, -0.0018, 1, 606.4152, 232.5598)">C</text><text class="cls-30" transform="matrix(1, 0.0018, -0.0018, 1, 642.1147, 268.6937)">O-</text><text class="cls-30" transform="matrix(1, 0.0018, -0.0018, 1, 667.779, 220.8418)">O-</text><text class="cls-30" transform="matrix(1, 0.0018, -0.0018, 1, 764.7511, 232.8416)">O-</text><text class="cls-30" transform="matrix(1, 0.0018, -0.0018, 1, 812.5301, 129.7222)">O-</text><text class="cls-30" transform="matrix(1, 0.0018, -0.0018, 1, 288.2515, 126.9946)">C</text><text class="cls-30" transform="matrix(1, 0.0018, -0.0018, 1, 512.2759, 274.176)">O-</text><line class="cls-31" x1="735.3296" y1="136.2383" x2="717.5281" y2="158.807"/><path class="cls-32" d="M763.7755,140.3705,735.33,136.2383,717.5281,158.807l-16.4068-2.73-16.4067-2.7295-9.6812,11.425-9.6811,11.4249-14.799-3.3134-14.7989-3.3135-12.3107,8.51-12.3107,8.51-14.4165-6.6754L582.3,173.24l-12.5465,6.2631-12.5465,6.263-23.103-17.1025L507.7413,180.12l-12.7566-8.1133-12.7567-8.1132-13.8418,7.037-13.8418,7.037L442.6487,166.19,430.753,154.4123l-15.9668,1.2385-15.9669,1.2385c.0267,0,.0423-.0038.069-.0037L380.74,134.5425l-27.9709,4.2817L342.1248,126.526l-9.6627-11.6534,6.7375-13.976,6.7375-13.9761-9.4032-12.8438-9.4032-12.8439,5.4525-14.185c1.3158-3.4231,5.3312-14.1168,5.3312-14.1168s3.817.1374,4.77.1391l15.9472.0284L415.478,33.2l74.7435.1334,74.1949.1324,79.0558.1411,73.2324.1306c18.7429.0335,59.112-.0213,59.112-.0213s3.8926,9.3821,5.7212,13.5585l6.4716,14.7806L778.7023,74.78l-9.3071,12.7247,7.097,14.4411,7.0971,14.4411-9.9069,11.9918-9.9069,11.9918,9.9069-11.9918,9.9069-11.9918"/><path class="cls-33" d="M763.7755,140.3705,735.33,136.2383,717.5281,158.807l-16.4068-2.73-16.4067-2.7295-9.6812,11.425-9.6811,11.4249-14.799-3.3134-14.7989-3.3135-12.3107,8.51-12.3107,8.51-14.4165-6.6754L582.3,173.24l-12.5465,6.2631-12.5465,6.263-23.103-17.1025L507.7413,180.12l-12.7566-8.1133-12.7567-8.1132-13.8418,7.037-13.8418,7.037L442.6487,166.19,430.753,154.4123l-15.9668,1.2385-15.9669,1.2385c.0267,0,.0423-.0038.069-.0037L380.74,134.5425l-27.9709,4.2817L342.1248,126.526l-9.6627-11.6534,6.7375-13.976,6.7375-13.9761-9.4032-12.8438-9.4032-12.8439,5.4525-14.185c1.3158-3.4231,5.3312-14.1168,5.3312-14.1168s3.817.1374,4.77.1391l15.9472.0284L415.478,33.2l74.7435.1334,74.1949.1324,79.0558.1411,73.2324.1306c18.7429.0335,59.112-.0213,59.112-.0213s3.8926,9.3821,5.7212,13.5585l6.4716,14.7806L778.7023,74.78l-9.3071,12.7247,7.097,14.4411,7.0971,14.4411-9.9069,11.9918-9.9069,11.9918,9.9069-11.9918,9.9069-11.9918"/><path class="cls-34" d="M763.7755,140.3705,735.33,136.2383,717.5281,158.807l-16.4068-2.73-16.4067-2.7295-9.6812,11.425-9.6811,11.4249-14.799-3.3134-14.7989-3.3135-12.3107,8.51-12.3107,8.51-14.4165-6.6754L582.3,173.24l-12.5465,6.2631-12.5465,6.263-23.103-17.1025L507.7413,180.12l-12.7566-8.1133-12.7567-8.1132-13.8418,7.037-13.8418,7.037L442.6487,166.19,430.753,154.4123l-15.9668,1.2385-15.9669,1.2385c.0267,0,.0423-.0038.069-.0037L380.74,134.5425l-27.9709,4.2817L342.1248,126.526l-9.6627-11.6534,6.7375-13.976,6.7375-13.9761-9.4032-12.8438-9.4032-12.8439,5.4525-14.185c1.3158-3.4231,5.3312-14.1168,5.3312-14.1168s3.817.1374,4.77.1391l15.9472.0284L415.478,33.2l74.7435.1334,74.1949.1324,79.0558.1411,73.2324.1306c18.7429.0335,59.112-.0213,59.112-.0213s3.8926,9.3821,5.7212,13.5585l6.4716,14.7806L778.7023,74.78l-9.3071,12.7247,7.097,14.4411,7.0971,14.4411-9.9069,11.9918-9.9069,11.9918,9.9069-11.9918,9.9069-11.9918"/><line class="cls-29" x1="809.7823" y1="120.1703" x2="783.7432" y2="116.4392"/><polygon class="cls-29" points="735.33 136.238 717.528 158.807 728.172 185.508 756.618 189.64 774.42 167.071 763.775 140.371 735.33 136.238"/><line class="cls-29" x1="306.0191" y1="119.5294" x2="332.4621" y2="114.8726"/><polygon class="cls-29" points="380.74 134.542 352.347 139.026 342.034 165.857 360.113 188.204 388.506 183.72 398.819 156.889 380.74 134.542"/><polygon class="cls-29" points="534.104 168.663 507.741 180.12 504.482 208.679 527.585 225.781 553.947 214.325 557.207 185.766 534.104 168.663"/><line class="cls-29" x1="448.9082" y1="203.5559" x2="454.5444" y2="177.9671"/><line class="cls-29" x1="612.3411" y1="212.689" x2="611.133" y2="186.5903"/><line class="cls-29" x1="672.3318" y1="202.2571" x2="665.3523" y2="176.1979"/><text class="cls-35" transform="matrix(1, 0.0018, -0.0018, 1, 435.2902, 96.1986)"><tspan class="cls-36">s</tspan><tspan x="19.3013" y="0">oil o</tspan><tspan class="cls-37" x="112.7495" y="0">r</tspan><tspan x="126.8032" y="0">ganic </tspan></text><text class="cls-38" transform="matrix(0.9999, -0.0118, 0.0118, 0.9999, 493.219, 142.1173)"><tspan class="cls-39">m</tspan><tspan x="40.3364" y="0">at</tspan><tspan class="cls-40" x="82.4517" y="0">t</tspan><tspan class="cls-41" x="95.502" y="0">er</tspan></text><text class="cls-42" transform="matrix(0.9999, -0.0118, 0.0118, 0.9999, 264.1333, 182.9269)">OH</text><text class="cls-42" transform="matrix(0.9999, -0.0118, 0.0118, 0.9999, 326.3643, 235.4238)">OH</text><text class="cls-42" transform="matrix(0.9999, -0.0118, 0.0118, 0.9999, 420.7441, 225.5574)">OH</text><circle class="cls-43" cx="250.5499" cy="161.3255" r="12.0724"/><path class="cls-4" d="M252.2841,157.2983l.0048,7.8228-1.6427.0008-.002-3.118-2.9839.0024.002,3.1172-1.6428.0016-.0048-7.8236h1.6428l.002,3.1173,2.9839-.0016-.002-3.1181Z"/><path class="cls-4" d="M255.7894,159.7476h-.8934l0,.9067H254.16l0-.9059-.8738.0008,0-.7176h.8738l0-.8811h.7365l0,.88h.8934Z"/></g></g></g></svg>