<svg xmlns="http://www.w3.org/2000/svg" viewBox="0 0 1108.77 599.9"><defs><style>.cls-1,.cls-18{font-size:31.36px;fill:#5c5052;font-family:Acre-Regular, Acre;}.cls-2{letter-spacing:-0.01em;}.cls-3{letter-spacing:-0.02em;}.cls-4{fill:#c39552;}.cls-5{letter-spacing:-0.03em;}.cls-6{fill:#805a3a;}.cls-15,.cls-16,.cls-6{stroke:gray;}.cls-10,.cls-11,.cls-12,.cls-15,.cls-16,.cls-21,.cls-6,.cls-8{stroke-miterlimit:10;}.cls-7{letter-spacing:-0.01em;}.cls-8{fill:#c17443;}.cls-10,.cls-8{stroke:#8a8a8a;stroke-width:0.8px;}.cls-10,.cls-9{fill:#e1d7bc;}.cls-11,.cls-15{fill:#754f46;}.cls-11,.cls-21{stroke:#5c5052;}.cls-11,.cls-12,.cls-21{stroke-width:1.92px;}.cls-12{fill:none;stroke:#807073;stroke-linecap:round;}.cls-13{letter-spacing:-0.01em;}.cls-14,.cls-18{letter-spacing:-0.02em;}.cls-16{fill:#904b32;}.cls-17{fill:#4c3117;}.cls-19{letter-spacing:0em;}.cls-20{letter-spacing:-0.02em;}.cls-21{fill:#6c5118;}</style></defs><g id="Layer_2" data-name="Layer 2"><g id="Structure"><g id="Layer_109" data-name="Layer 109"><text class="cls-1" transform="translate(929.4 576.07)">si<tspan class="cls-2" x="21.51" y="0">n</tspan><tspan x="39.17" y="0">gle g</tspan><tspan class="cls-3" x="113.48" y="0">r</tspan><tspan x="122.83" y="0">ain</tspan></text><path class="cls-4" d="M965.4,442.76A27.72,27.72,0,0,0,954,444.35c-1.57.57-3.35,1.73-3.15,3.39s2.24,2.34,3.89,2.64l12.91,2.36c3.34.61,7.74.68,9.05-2.45,1.08-2.59-1.1-5.54-3.7-6.59s-4.84-.57-7.62-.94"/><path class="cls-4" d="M987.88,439.69c-1.33,1.3-1.9,3.53-.83,5.05s3.08,1.74,4.88,1.79a55.32,55.32,0,0,0,7.05-.25,10.23,10.23,0,0,0,3.5-.82,3.52,3.52,0,0,0,.93-6.09,8.6,8.6,0,0,0-3.39-1.73C995.92,436.4,991.16,436.5,987.88,439.69Z"/><path class="cls-4" d="M1028.62,424.69a12.47,12.47,0,0,0-3.4,1.24c-1,.69-1.63,2.13-.94,3.13a24.3,24.3,0,0,0,7.06.61,9.94,9.94,0,0,1,2.18,0,14.34,14.34,0,0,1,2.59.87c2.66,1,5.57.81,8.39.65,2.38-.13,5.28-.63,6.08-2.88a4,4,0,0,0-1.17-4.05,9.26,9.26,0,0,0-3.9-2,23.62,23.62,0,0,0-9.57-1.17C1032.83,421.47,1031.65,423.71,1028.62,424.69Z"/><path class="cls-4" d="M1017.66,445.72c-1.46.54-3.13,1.31-3.47,2.84a3.24,3.24,0,0,0,1.61,3.22,8.76,8.76,0,0,0,3.65,1,100.84,100.84,0,0,0,15.24.82,16.53,16.53,0,0,0,6.1-1c1.76-.72,3.43-2.62,2.66-4.35a4.23,4.23,0,0,0-1.21-1.39,21.22,21.22,0,0,0-12-4.66C1025.26,442,1022.08,444.06,1017.66,445.72Z"/><path class="cls-4" d="M972.94,466a4,4,0,0,0,0,2.32,6.71,6.71,0,0,0,3.06,4.08c2.41,1.4,5.41,1.15,8.15.67a66.46,66.46,0,0,0,10.21-2.61,4.48,4.48,0,0,0,1.88-1,3.69,3.69,0,0,0,.75-2.8,6.4,6.4,0,0,0-3.59-5.56,10,10,0,0,0-3-.52C986.18,460.23,974.75,460.92,972.94,466Z"/><path class="cls-4" d="M949.4,476.67a21.7,21.7,0,0,0-4.31,1.77,2.63,2.63,0,0,0-1,1.12,2.38,2.38,0,0,0,1.47,2.85,8.1,8.1,0,0,0,3.51.36c4.56-.12,9.09.74,13.62,1.37,2.43.34,5.39.39,6.77-1.64,1.18-1.75.43-4.27-1.12-5.7a12.58,12.58,0,0,0-5.72-2.53c-1.41-.34-2.83-.65-4.25-.94C953.76,472.41,953.27,475.15,949.4,476.67Z"/><path class="cls-4" d="M1000.71,483.07a19.66,19.66,0,0,0-6.44,1.26c-.79.3-1.67.81-1.69,1.64,0,1,1.2,1.55,2.21,1.75a43.53,43.53,0,0,0,10.81.75,5.89,5.89,0,0,0,3.72-1.16c1-.89,1.14-2.75,0-3.42a3.35,3.35,0,0,0-1.33-.34c-2.84-.29-4.44-.18-7.28-.48"/><path class="cls-4" d="M969.42,496.19c-.95.42-2,1-2.25,2a2.4,2.4,0,0,0,1.51,2.52,10.17,10.17,0,0,0,3.11.61c2.88.36,5.61,1.52,8.49,1.89,4,.53,8.11-.51,12.05-1.54,1.38-.36,2.93-.86,3.54-2.15s.09-2.57-.39-3.78a6.54,6.54,0,0,0-1.33-2.32,6.88,6.88,0,0,0-3.92-1.48c-3.74-.57-8.39-1.53-12.05-.11C975.24,492.94,972.35,494.89,969.42,496.19Z"/><path class="cls-4" d="M1008.88,464.53a2.76,2.76,0,0,0-1.33,1.68,2.44,2.44,0,0,0,.62,1.83c2,2.64,5.8,3,9.13,3.08,3.78,0,7.91-.25,10.7-2.79a3.36,3.36,0,0,0,1.31-2.57,2.81,2.81,0,0,0-1.66-2.18,8.19,8.19,0,0,0-2.78-.65C1019.5,462.31,1013.67,461.26,1008.88,464.53Z"/><path class="cls-4" d="M1021.56,503.43a22.26,22.26,0,0,0-3.54.64,4,4,0,0,0-2.59,2.32,1.32,1.32,0,0,0,0,.94,1.8,1.8,0,0,0,1.08.81,34.33,34.33,0,0,0,7.47,2.23,40.34,40.34,0,0,0,8.51,0,28.37,28.37,0,0,0,6.1-.84c1.66-.48,3.39-1.44,3.89-3.1s-.61-3.7-2.18-4.67a12.83,12.83,0,0,0-5.3-1.43c-2.73-.33-4.47-.63-6.7.31S1024.21,503,1021.56,503.43Z"/><path class="cls-4" d="M1026.68,488.77a3.14,3.14,0,0,0,.69,5.79,9.59,9.59,0,0,0,3.74.47,113.07,113.07,0,0,0,14.12-1,4.89,4.89,0,0,0,2-.59c1.46-1,1.38-3.32.25-4.65a7.74,7.74,0,0,0-4.67-2.19C1037.77,485.67,1031.07,485.66,1026.68,488.77Z"/><path class="cls-4" d="M1048.76,478.53a3.59,3.59,0,0,0-.73,2.11,2.81,2.81,0,0,0,2.08,2.29,8.12,8.12,0,0,0,3.26.12c5.18-.53,10.37-1.11,15.48-2.11,1.8-.35,4-1.12,4.23-2.93s-1.53-3.2-3.2-3.92C1062.82,471,1053.3,471.55,1048.76,478.53Z"/><path class="cls-4" d="M1058,457.33a11.42,11.42,0,0,0-5.11,2.11c-1.39,1.23-2.07,3.5-1,5s3,1.55,4.7,1.54c5.45,0,10.92-.46,16.34.16,2.22.25,4.51.68,6.66.06s4.07-2.74,3.57-4.92c-.45-2-2.55-3-4.47-3.7a38.13,38.13,0,0,0-13.1-2C1063.2,455.61,1060.35,456.78,1058,457.33Z"/><path class="cls-4" d="M1059.41,495.75c-1.8.32-3.81,1.1-4.38,2.85a3.79,3.79,0,0,0,2.13,4.27,8,8,0,0,0,5.09.36,49.49,49.49,0,0,1,5.09-1.07,31.39,31.39,0,0,1,4.44.1c2,.11,4.39-.16,5.37-1.92a3.88,3.88,0,0,0-1.1-4.59,8.86,8.86,0,0,0-4.68-1.82C1066.67,493.24,1063.83,495,1059.41,495.75Z"/></g><g id="Layer_110" data-name="Layer 110"><text class="cls-1" transform="translate(665.02 576.07)">block<tspan class="cls-5" x="77.23" y="0">y</tspan></text><path class="cls-6" d="M774.52,392.46c3-.87,6.06-1,9.09-1.57a33.19,33.19,0,0,0,9.75-3.46c1.53-.84,3.24-1.82,4.9-1.3a7,7,0,0,1,2.47,1.83c5.5,5.3,13.23,7.45,19.86,11.25a7.45,7.45,0,0,1,2.37,1.86,5.49,5.49,0,0,1,.9,3.69c-.29,3.88-3.26,7.05-6.51,9.2a29,29,0,0,1-29.19,1.22c-6.63-3.62-12.46-10.07-20-9.8.58-2.69-.88-6.27-.07-8.55S772.48,393.07,774.52,392.46Z"/><path class="cls-6" d="M823.54,400.88q1.92,11.08,3,22.29c-1.67-.12-3.17.94-4.46,2a50.28,50.28,0,0,0-9.34,10.2c-1.7-.81-3.48-1.69-4.48-3.28a10,10,0,0,1-1.15-3.84c-.48-3-.93-6.32.47-9.06,2.32-4.53,1.84-7.67,6.57-10.58C817.54,406.55,822.33,405.11,823.54,400.88Z"/><path class="cls-6" d="M766.05,424.49a44.61,44.61,0,0,0,10.76,1.74,51.54,51.54,0,0,1,6.69.37c5.19.89,9.58,4.19,14.19,6.73s10.28,4.38,15,2.16a49.07,49.07,0,0,1-2.53-20.4,1.73,1.73,0,0,0-.25-1.35,1.66,1.66,0,0,0-1-.39c-4.6-.72-9.54,1-13.85-.78a24.92,24.92,0,0,1-5.53-3.74,49.11,49.11,0,0,0-11-6.16c-2.22-.93-8.62-4.49-11-3.28C765.85,400.26,765.48,424.32,766.05,424.49Z"/><path class="cls-6" d="M743.64,431c-3.76,1.82-7.17,4.79-11.33,5.06-5,.34-9.54-3.54-11.92-8a23.42,23.42,0,0,1-2-16.57,7.42,7.42,0,0,1,1.26-2.87,8.32,8.32,0,0,1,2.89-2c4.27-2.06,17.53-10.36,19.39-2.67C742.61,406.74,746.13,429.79,743.64,431Z"/><path class="cls-6" d="M674.52,434.37a4.14,4.14,0,0,0,2.87,4.21l6.76,3.45c4,2,8.14,4.12,12.62,4.69,2.1.26,4.25.19,6.32.63,3.55.75,6.62,2.94,10.09,4,4.12,1.23,8.53.77,12.8.29a4.21,4.21,0,0,0,1.82-.48,4,4,0,0,0,1.37-1.9,31.73,31.73,0,0,0,1.28-21.74c-1.77-5.86-5.3-11.57-4.38-17.61-4.85-.46-9.71-.93-14.55-1.48a48.2,48.2,0,0,1-12.45-2.62c-5.27-2.09-9.73-5.87-15-8-2.74-1.14-9.1-3.42-12-1.9-3.21,1.68-1.1,7.43-.75,10.5Q672.94,420.37,674.52,434.37Z"/><path class="cls-6" d="M680.22,400a28.62,28.62,0,0,1,3.21.12A14.92,14.92,0,0,1,688,402a236.42,236.42,0,0,0,21.84,9.68c3.13,1.27,6.61,2.54,9.78,1.39,1.38-.5,2.58-1.43,4-2s3.14-.54,4.11.57c.29.33.51.75.91.93.6.27,1.27-.16,1.8-.56l8.83-6.82c1.54-1.19,3.24-2.69,3.16-4.64-.1-2.39-2.74-3.74-5-4.48a80.82,80.82,0,0,0-22.88-3.87c-3.4-.08-7,0-10-1.5a8.91,8.91,0,0,0-1.81-.82c-1.57-.38-3.14.48-4.58,1.22A36.46,36.46,0,0,1,675,394.53c-1.65-.31-3.58-.6-4.71.79C672.11,398.39,676.83,399.92,680.22,400Z"/><path class="cls-6" d="M685.06,421c.05,1.66-.5,3.28-.61,4.94-.38,5.8,4.64,11.14,3.57,16.85-2.27.26-3.69,2.59-4.34,4.78s-.93,4.6-2.4,6.34c-1.68,2-4.65,2.75-5.86,5.05-1,1.87-.5,4.22-1.3,6.17-1,2.41-3.62,3.63-6,4.63L660,473.1c-2.67,1.12-5.62,2.51-6.61,5.23-1.35-3.65-6.39-4.77-7.94-8.34a10.6,10.6,0,0,1-.61-4.16c-.09-10.19-.06-20.76,4.15-30s12-16.13,19.55-22.78a23.49,23.49,0,0,1,6-4.24C684.39,404.46,684.85,413.65,685.06,421Z"/><path class="cls-6" d="M600.16,436.22c-.45,1.54-1.37,2.92-1.66,4.5a11.63,11.63,0,0,0,.15,3.81l2.84,19.27c.59-1.4,2.49-1.77,3.92-1.29a18.5,18.5,0,0,1,3.86,2.36c5.27,3.37,12.5,2.33,17.71,5.79,2.23,1.48,4,3.73,6.49,4.64,2.15.79,4.52.48,6.81.4a31.73,31.73,0,0,1,13.29,2.44c-3.66-6.42-4.37-14.14-3.77-21.5s2.43-14.56,3.54-21.86a9.13,9.13,0,0,0-.29-5.29,8.83,8.83,0,0,0-3.72-3.46,60,60,0,0,0-15.71-6.56A117.87,117.87,0,0,0,619.76,417c-5-.69-20-5.6-23.41-.39C593.85,420.47,600.16,431.38,600.16,436.22Z"/><path class="cls-6" d="M595.92,415.13l16.2,4.95,7.28,2.23,35.2,10.75c.89-3.17,4.15-5.05,7.3-6s6.53-1.38,9.31-3.14c5.64-3.59,7.28-11.79,13.28-14.73-1.38-3.1-4.82-4.8-8.17-5.3s-6.77-.05-10.16-.14a32.05,32.05,0,0,1-20.54-8.24c-1.66-1.51-3.46-3.32-5.71-3.22a7.65,7.65,0,0,0-3.22,1.17c-7.46,4.05-14.13,7.38-22,9.77C612,404,596,415.16,595.92,415.13Z"/><path class="cls-6" d="M793,456.54a10.86,10.86,0,0,1-.32,4,41.26,41.26,0,0,0-.29,13.8c.41,2.77,1,5.85-.51,8.19-2,3.08-7.14,3.57-8.22,7.11-.32,1-.24,2.24-.91,3.09-.82,1-2.33,1.06-3.63,1.27-5.83.95-9.39,6.95-11.07,12.61-.54,1.8-1,3.71-2.25,5.13a11.62,11.62,0,0,1-4.19,2.66l-10.81,4.84c-.38-2.79-3.62-4-5.84-5.75-3.11-2.45-4.46-6.54-4.87-10.48-.88-8.45,1.81-16.82,4.47-24.89,2.46-7.47,5.7-15.81,13-18.76a49.68,49.68,0,0,0,5.24-1.93,22.5,22.5,0,0,0,4-3.14,40.93,40.93,0,0,1,21.09-9.82C787.05,444.58,792.82,455.74,793,456.54Z"/><path class="cls-6" d="M715.45,435.27,725.3,430a26.1,26.1,0,0,1,13.38-3.95c6-.51,12.7-.85,17.54,2.81,1.66,1.25,3,2.92,4.77,4a13.23,13.23,0,0,0,6.39,1.73c5.57.28,11.45-1.35,16.56.9A12.13,12.13,0,0,1,790,450.69c-3.65-.09-7.93.13-10,3.15-1.13,1.66-1.3,3.88-2.62,5.4-1.95,2.26-5.5,2.06-8.11,3.51a20.6,20.6,0,0,0-3.94,3.42c-3.59,3.42-8.23,5.47-12.77,7.46a13.12,13.12,0,0,1-4.2,1.29,12.78,12.78,0,0,1-3.87-.53l-11.19-2.69c-6.28-1.5-13-3.29-17.1-8.29-2.06-2.53-3.26-5.68-5.4-8.15-1.35-1.57-3.06-2.83-4.32-4.47C701.16,443.76,710.1,438.12,715.45,435.27Z"/><path class="cls-6" d="M704.6,457a40.58,40.58,0,0,0,.12,5.73c.3,2.56,1.09,5,1.36,7.6a43.43,43.43,0,0,1-.1,7.3,145.76,145.76,0,0,0,1.25,29.74c4.2-2.25,9,1.49,13.7,2.3,2.47.42,5,0,7.51.25,8.18.78,14.44,8.37,22.61,9.37,1-3.46,2-7.25.53-10.54-1.07-2.47-3.31-4.2-4.88-6.39A13.66,13.66,0,0,1,745,489.81c1.05-2.81,3-5.19,4.35-7.87s2-6,.48-8.61-4.49-3.42-7.24-4.21L728.3,465c-3.31-.95-6.91-2.1-8.76-5-.55-.87-.9-1.85-1.4-2.75-2.86-5.21-9.32-7.68-13-12.3C704.09,448.47,704.7,453.24,704.6,457Z"/></g><g id="Layer_111" data-name="Layer 111"><text class="cls-1" transform="translate(326.84 575.61)">colum<tspan class="cls-7" x="87.96" y="0">n</tspan><tspan x="105.61" y="0">ar</tspan></text><path class="cls-8" d="M425.05,438.86a14.36,14.36,0,0,1-4.55,4.08c-9.2,5.62-20.76,5.06-31.49,4a25.35,25.35,0,0,1-7.59-1.57,8.66,8.66,0,0,1-5.15-5.46,12.85,12.85,0,0,1,.34-5.9l1.48-6.87a1.29,1.29,0,0,1,.47-.91,1.33,1.33,0,0,1,.79-.12l9.79.61c8.79,0,17.71,1.11,26.48,1.66,2.63.16,8-.61,10.06,1.47S426.49,436.71,425.05,438.86Z"/><path class="cls-8" d="M377.78,432.26c2,3.46,5.81,5.57,9.65,6.77,12,3.74,25-.09,36.47-5.19a6.56,6.56,0,0,0,2.76-1.87,6.72,6.72,0,0,0,.87-4.09l-.07-13.63c-12.9,1.59-26,3.17-38.84,1.11-3.55-.57-10.06-1.94-12.08,2C374.68,421.06,375.79,428.88,377.78,432.26Z"/><path class="cls-8" d="M428.83,416.44c-1.52,2.25-4.44,3-7.1,3.56-7.26,1.55-14.55,3.09-22,3.41s-15-.63-21.69-3.85a4,4,0,0,1-1.8-1.37,4.24,4.24,0,0,1-.4-2.37l.31-12.78a3.89,3.89,0,0,1,.33-1.79,3.09,3.09,0,0,1,2.35-1.36c2.55-.38,5.06.69,7.49,1.54a46.9,46.9,0,0,0,23,2c4.87-.81,13.52-4,18-.52C430.52,405.27,430.87,413.43,428.83,416.44Z"/><path class="cls-8" d="M429.67,402.89a5.56,5.56,0,0,1-.87,2.66,5.35,5.35,0,0,1-2.14,1.46c-15.64,7.17-34.39,3.6-49.64-4.37a2.77,2.77,0,0,1-1.79-3.47A75.07,75.07,0,0,1,376.9,389a1.6,1.6,0,0,1,2.23-1.35l33.67,3.13c4.05.37,11.12-1.33,14.73.46C431.34,393.07,430.11,399.46,429.67,402.89Z"/><path class="cls-8" d="M377.47,386.47a7.23,7.23,0,0,0,.19,2.5,6.08,6.08,0,0,0,1.69,2.39c4.49,4.33,10.8,6.37,17,6.82s12.45-.55,18.6-1.59c4.39-.74,8.83-1.51,12.89-3.34a4.24,4.24,0,0,0,2.28-1.84,4.5,4.5,0,0,0,.09-2.55L428.09,375c-7.86.82-15.77,1.65-23.66,1.07-6.26-.46-12.51-1.83-18.82-1.54-2.12.1-6.49.06-7.7,1.91S377.57,384.28,377.47,386.47Z"/><path class="cls-8" d="M426.29,380.8a14.42,14.42,0,0,1-5.41,2.66,47.94,47.94,0,0,1-9.75,1.6,92.56,92.56,0,0,1-21-.82c-4.79-.73-10.06-2.24-12.43-6.46a13.35,13.35,0,0,1-1.36-7,27.63,27.63,0,0,1,2.66-11c.5-1,17.45,1.64,19.37,1.82l19.76,1.85c3.86.37,10.11-.46,11.82,3.87C431.58,371.39,429.47,378.08,426.29,380.8Z"/><path class="cls-8" d="M430.91,364.29a2.78,2.78,0,0,1-2.61,3.06c-14.8,4-30.45.46-45.36-3a11.63,11.63,0,0,1-3.79-1.37,7.91,7.91,0,0,1-3.17-6.19,23.63,23.63,0,0,1,1-7.1c.26-1,.66-2.16,1.65-2.46a3,3,0,0,1,1.23,0q17.18,1.92,34.41,3.15c3.71.26,11.31-.79,14.42,1.52S431.17,361,430.91,364.29Z"/><path class="cls-8" d="M378.16,349.48a9.82,9.82,0,0,0,3.65,3.17c5.44,3,11.92,3.36,18.14,3.46,5,.08,10.08,0,15.12,0,5.28,0,10.82-.15,15.39-2.78a2.71,2.71,0,0,0,1.06-.92,3,3,0,0,0,.24-1.6l-.4-11.38a2.46,2.46,0,0,0-2.89-2.94l-37.84-1.77c-3.69-.17-9.88-1.87-12.34,1.79C376.16,339.69,376.57,346.29,378.16,349.48Z"/><path class="cls-8" d="M431.3,338.8c-10.89,3-22.23,5.93-33.34,3.93a77.22,77.22,0,0,1-10.23-2.86l-10.9-3.59c-1.12-5.6-2.19-11.61.07-16.85a3.17,3.17,0,0,1,1.31-1.69,3.56,3.56,0,0,1,1.72-.26l17.66.22c9.41.12,18.94.24,28.14,2.41,3.12.73,6.5,1.23,7.25,4.75C433.84,328.89,431.86,334.74,431.3,338.8Z"/><path class="cls-9" d="M428.77,313.71c2.58,1.63,4.92,4.14,5.1,7.19a8.26,8.26,0,0,1-4,7.05,18.08,18.08,0,0,1-8.09,2.39c-13.73,1.35-27.24-3.5-40.19-8.26a10,10,0,0,1-3.85-2.11,3.42,3.42,0,0,1-.73-4,4.9,4.9,0,0,1,2.42-1.66,102.48,102.48,0,0,1,31.38-7.37C417.68,306.41,423.11,310.15,428.77,313.71Z"/><path class="cls-8" d="M335.54,496.55a19.75,19.75,0,0,0,6.09,2c12.25,2.45,25.44,3.83,36.81-1.32a9.19,9.19,0,0,0,3.75-2.64c1.31-1.77,1.4-4.14,1.37-6.35q-.06-4.18-.44-8.37c-.07-.77-.22-1.67-.91-2a2.4,2.4,0,0,0-1.63,0c-12.09,2.53-24.21,5.57-36.6,6-3.07.11-14.14-2.24-15.41,1.17S332.88,495,335.54,496.55Z"/><path class="cls-8" d="M326.53,483.58c1.94,3.65,6.34,5.17,10.39,6,13.18,2.81,27.34,2,39.55-3.71,3.58-1.68,7.31-4.23,8-8.13.81-4.56-2.91-8.88-2.6-13.5-10.55,2.49-21.38,3.53-32.17,4.57a104.93,104.93,0,0,1-10.63.65c-3.21,0-7.93-1.94-10.88-1.38C323,469.11,324.79,480.3,326.53,483.58Z"/><path class="cls-8" d="M383,462.44a8.66,8.66,0,0,1-.08,2.83,7.22,7.22,0,0,1-1.9,3c-5.2,5.53-12.91,8-20.44,8.89a62.68,62.68,0,0,1-32.79-5.05,5.76,5.76,0,0,1-2.93-2.22c-.69-1.26-.41-2.81-.1-4.21l1.64-7.59a4.1,4.1,0,0,1,1-2.23,3.41,3.41,0,0,1,1.64-.73c4.94-1,9.78,1.77,14.67,3,9.77,2.47,19.9-1.27,29.41-4.58,2.19-.76,6.68-2.66,8.66-.65C383.38,454.61,382.79,460.23,383,462.44Z"/><path class="cls-8" d="M382.37,450.29a14.21,14.21,0,0,1-3.59,8.52c-3.45,3.56-8.83,4.24-13.77,4.72-6.33.61-12.71,1.23-19.06.74s-12.72-2.15-18-5.73a3.15,3.15,0,0,1-1-.93,3.66,3.66,0,0,1-.35-1.67c-.37-5.61-3.18-11.41-1-16.6.2-.47.49-1,1-1.1a1.89,1.89,0,0,1,1.25.31c9.4,4.76,20.59,3,31.11,2.4,5.38-.29,10.78-.22,16.18-.15,2,0,5.91-.68,6.9.87C383.14,443.39,382.57,448.31,382.37,450.29Z"/><path class="cls-8" d="M383.27,437.63A7.84,7.84,0,0,1,383,441c-.64,1.63-2.27,2.62-3.86,3.34a45.15,45.15,0,0,1-11.69,3.16c-13.67,2.21-28.47,2.12-40.39-4.91a2.36,2.36,0,0,1-1.08-1,2.31,2.31,0,0,1-.15-1.08l.09-9.36a4.92,4.92,0,0,1,.49-2.58,4.44,4.44,0,0,1,2.72-1.68c12.29-3.48,25.67,5.54,37.85,1.69,5.23-1.65,10.92-6.64,16.71-5.26C381.23,427,383,433.4,383.27,437.63Z"/><path class="cls-8" d="M383.32,419.51c.16,2.94.27,6.06-1.15,8.64-1.73,3.12-5.3,4.7-8.73,5.67-8.46,2.37-17.39,2.23-26.18,2-6.86-.22-14-.58-20-3.92a3.44,3.44,0,0,1-1.31-1.07,3.6,3.6,0,0,1-.44-1.72,67.84,67.84,0,0,1,.26-13.44,2.84,2.84,0,0,1,.52-1.54,2.63,2.63,0,0,1,1.25-.7c7.4-2.4,15.39-.5,23.16-.28,9.2.26,18.32-1.87,27.53-2,1.91,0,4.07,0,4.85,1.84C383.74,414.53,383.23,417.76,383.32,419.51Z"/><path class="cls-8" d="M325.46,413a7.2,7.2,0,0,0,.17,2.13,5.27,5.27,0,0,0,1.38,2.13c3.48,3.51,8.84,4.11,13.75,4.52,8.88.73,18,1.45,26.58-.8,5.13-1.34,9.93-3.69,14.7-6a2.25,2.25,0,0,0,1.51-2.89l-1.48-14.59c-5.6.31-11.05,1.8-16.56,2.82a100.5,100.5,0,0,1-35.82.15c-2.94-.52-3.91.22-4,2.93C325.6,406.59,325.54,409.8,325.46,413Z"/><path class="cls-8" d="M382.55,396.81a9.54,9.54,0,0,1-.36,2.72,7.54,7.54,0,0,1-2.22,3.14c-4.45,4-10.83,4.93-16.81,5.48-11.55,1.05-23.52,1.41-34.39-2.63a8.6,8.6,0,0,1-2.5-1.29c-2.29-1.88-2.3-5.32-2.12-8.27.24-3.84.86-8.33,4.23-10.19a10.62,10.62,0,0,1,4.28-1c9.35-.8,18.8.33,28.1-.85,3.44-.44,6.81-1.2,10.22-1.75,2.67-.44,6.62-1.49,9.24-.41C384.4,383.47,382.67,393.19,382.55,396.81Z"/><path class="cls-8" d="M325.15,386.87a3.39,3.39,0,0,0,.47,1.6,3.2,3.2,0,0,0,1,.79c7.5,4.43,16.63,5.45,25.28,4.44s16.95-3.94,25.11-7c2.28-.85,4.75-1.88,5.87-4a8.57,8.57,0,0,0,.73-4.26,31,31,0,0,0-2.11-10.55c-14.74-.13-29,8.66-43.52,6.15-3.31-.57-10.28-3.35-13.43-1C322.27,374.69,324.82,384,325.15,386.87Z"/><path class="cls-8" d="M323.17,371.76a10.78,10.78,0,0,0,.7,4.86,7.21,7.21,0,0,0,4.78,3.56,21.27,21.27,0,0,0,6.12.4c15.33-.48,31.38-1.23,44.62-9a6.68,6.68,0,0,0,2.37-2,7.29,7.29,0,0,0,.75-4.12l-.14-8.12a1.09,1.09,0,0,0-1-1.37c-6-1.41-12.18.39-18.18,1.72a119.39,119.39,0,0,1-24.27,2.8,41,41,0,0,1-7.42-.44c-1.82-.32-4.19-1.54-6.06-.93C321.59,360.44,323.21,368.64,323.17,371.76Z"/><path class="cls-8" d="M322.94,360a6.56,6.56,0,0,0,1.34,3.78,6.3,6.3,0,0,0,3.38,1.5,78.7,78.7,0,0,0,54.65-8.47l-1.52-13.57a2.63,2.63,0,0,0-.58-1.67,2.73,2.73,0,0,0-2-.51l-43,.71c-3,.05-13.42-1.85-14,1.44S322.51,356.69,322.94,360Z"/><path class="cls-10" d="M321.43,347.68c1.4,5,7.76,6.32,12.95,6.59,13.19.68,26.71.39,39.16-4,4.25-1.51,9.13-5.18,7.64-9.43-1-2.84-4.33-4-7.26-4.67C366.64,334.47,315.59,326.81,321.43,347.68Z"/><path class="cls-8" d="M417.78,472.73a14.48,14.48,0,0,0,4.55,4.08c9.2,5.62,20.76,5.05,31.49,4a24.75,24.75,0,0,0,7.59-1.57,8.66,8.66,0,0,0,5.15-5.46,12.87,12.87,0,0,0-.34-5.9L464.74,461a1,1,0,0,0-1.26-1l-9.79.61c-8.78,0-17.71,1.1-26.48,1.65-2.63.17-8-.6-10.06,1.47S416.34,470.57,417.78,472.73Z"/><path class="cls-8" d="M465.05,466.13c-2,3.46-5.81,5.57-9.65,6.76-12,3.74-25-.09-36.47-5.19a6.63,6.63,0,0,1-2.76-1.86,6.76,6.76,0,0,1-.87-4.1l.07-13.63c12.9,1.59,26,3.18,38.84,1.11,3.55-.57,10.06-1.93,12.08,2C468.15,454.92,467.05,462.74,465.05,466.13Z"/><path class="cls-8" d="M414,450.3c1.52,2.25,4.45,3,7.1,3.56,7.26,1.55,14.55,3.09,22,3.41s15-.62,21.69-3.84a4,4,0,0,0,1.8-1.37,4.27,4.27,0,0,0,.4-2.38l-.31-12.77a3.91,3.91,0,0,0-.33-1.8,3.12,3.12,0,0,0-2.35-1.36c-2.55-.38-5.06.69-7.49,1.54a46.78,46.78,0,0,1-23,2c-4.87-.82-13.52-4-18-.53C412.31,439.13,412,447.29,414,450.3Z"/><path class="cls-8" d="M413.16,436.76a5.52,5.52,0,0,0,.87,2.65,5.37,5.37,0,0,0,2.14,1.47c15.64,7.16,34.39,3.59,49.64-4.38A2.77,2.77,0,0,0,467.6,433a72,72,0,0,0-1.67-10.21,2.07,2.07,0,0,0-.42-1,2.14,2.14,0,0,0-1.81-.39L430,424.59c-4,.38-11.12-1.33-14.73.46C411.49,426.94,412.72,433.32,413.16,436.76Z"/><path class="cls-8" d="M465.36,420.34a7.23,7.23,0,0,1-.19,2.5,6,6,0,0,1-1.69,2.38c-4.49,4.33-10.8,6.38-17,6.83s-12.45-.56-18.6-1.59c-4.39-.74-8.83-1.52-12.89-3.34a4.19,4.19,0,0,1-2.27-1.85,4.5,4.5,0,0,1-.1-2.55l2.14-13.87c7.86.83,15.77,1.66,23.66,1.08,6.26-.47,12.51-1.83,18.82-1.54,2.12.1,6.49.05,7.7,1.91S465.27,418.15,465.36,420.34Z"/><path class="cls-8" d="M416.54,414.67a14.57,14.57,0,0,0,5.41,2.66,47.24,47.24,0,0,0,9.75,1.59,92.56,92.56,0,0,0,21-.81c4.79-.74,10.06-2.24,12.43-6.46a13.4,13.4,0,0,0,1.36-7,27.67,27.67,0,0,0-2.66-11c-.5-1-17.45,1.64-19.37,1.82l-19.76,1.86c-3.86.36-10.11-.46-11.82,3.87C411.25,405.25,413.36,412,416.54,414.67Z"/><path class="cls-8" d="M411.92,398.16a3.75,3.75,0,0,0,.57,2,3.62,3.62,0,0,0,2,1.07c14.8,4,30.45.47,45.36-3a11.41,11.41,0,0,0,3.79-1.37,7.87,7.87,0,0,0,3.17-6.18,23.58,23.58,0,0,0-1.05-7.1c-.26-1-.66-2.17-1.65-2.47a3,3,0,0,0-1.23,0q-17.18,1.91-34.4,3.14c-3.72.27-11.32-.78-14.43,1.52S411.66,394.82,411.92,398.16Z"/><path class="cls-8" d="M464.67,383.34a9.82,9.82,0,0,1-3.65,3.17c-5.44,3-11.92,3.37-18.14,3.46-5,.08-10.08,0-15.12,0-5.28,0-10.82-.15-15.39-2.79a2.61,2.61,0,0,1-1.06-.91,3,3,0,0,1-.24-1.61l.4-11.37a3.32,3.32,0,0,1,.66-2.28,3.27,3.27,0,0,1,2.23-.66l37.84-1.78c3.69-.17,9.89-1.87,12.34,1.8C466.67,373.55,466.26,380.16,464.67,383.34Z"/><path class="cls-8" d="M411.53,372.67c10.89,2.95,22.23,5.93,33.34,3.92a75.69,75.69,0,0,0,10.23-2.85l10.9-3.59c1.12-5.6,2.2-11.61-.07-16.86a3.15,3.15,0,0,0-1.31-1.68,3.69,3.69,0,0,0-1.72-.27l-17.66.23c-9.41.11-18.94.24-28.14,2.4-3.12.74-6.5,1.24-7.25,4.75C409,362.75,411,368.61,411.53,372.67Z"/><path class="cls-10" d="M414.06,347.58c-2.58,1.63-4.92,4.14-5.1,7.18a8.23,8.23,0,0,0,4,7.05,18.08,18.08,0,0,0,8.09,2.39c13.73,1.35,27.24-3.49,40.19-8.26a10.11,10.11,0,0,0,3.85-2.1,3.42,3.42,0,0,0,.73-4,4.83,4.83,0,0,0-2.42-1.66,101.91,101.91,0,0,0-31.38-7.37C425.15,340.28,419.72,344,414.06,347.58Z"/><path class="cls-8" d="M396.53,510a14.36,14.36,0,0,0,4.55,4.08c9.2,5.62,20.76,5.06,31.49,4a25.35,25.35,0,0,0,7.59-1.57,8.68,8.68,0,0,0,5.15-5.46,12.85,12.85,0,0,0-.34-5.9l-1.48-6.87a1,1,0,0,0-1.26-1l-9.79.61c-8.79,0-17.71,1.11-26.48,1.66-2.63.16-8-.6-10.06,1.47S395.09,507.89,396.53,510Z"/><path class="cls-8" d="M443.8,503.44c-2.05,3.46-5.81,5.57-9.65,6.77-12,3.74-25-.09-36.47-5.19a6.56,6.56,0,0,1-2.76-1.87,6.72,6.72,0,0,1-.87-4.09l.07-13.63c12.9,1.59,26,3.17,38.84,1.11,3.55-.57,10.06-1.94,12.08,2C446.9,492.24,445.79,500.06,443.8,503.44Z"/><path class="cls-8" d="M392.75,487.62c1.52,2.25,4.44,3,7.1,3.56,7.26,1.55,14.55,3.09,22,3.41s15-.63,21.69-3.84a4.12,4.12,0,0,0,1.8-1.37,4.29,4.29,0,0,0,.4-2.38l-.31-12.78a4,4,0,0,0-.33-1.79,3.09,3.09,0,0,0-2.35-1.36c-2.55-.38-5.06.69-7.49,1.54a46.9,46.9,0,0,1-23,2c-4.87-.81-13.52-4-18-.52C391.06,476.45,390.71,484.61,392.75,487.62Z"/><path class="cls-8" d="M391.91,474.07a5.56,5.56,0,0,0,.87,2.66,5.35,5.35,0,0,0,2.14,1.46c15.64,7.17,34.39,3.6,49.64-4.37a2.77,2.77,0,0,0,1.79-3.47,75.07,75.07,0,0,0-1.67-10.22,1.6,1.6,0,0,0-2.23-1.35l-33.67,3.13c-4,.37-11.12-1.33-14.73.46C390.24,464.26,391.47,470.64,391.91,474.07Z"/><path class="cls-8" d="M444.11,457.66a7.17,7.17,0,0,1-.19,2.49,6.08,6.08,0,0,1-1.69,2.39c-4.49,4.33-10.8,6.37-17,6.82s-12.45-.55-18.6-1.59c-4.39-.74-8.83-1.51-12.89-3.34a4.2,4.2,0,0,1-2.28-1.84,4.5,4.5,0,0,1-.09-2.55l2.14-13.87c7.86.83,15.77,1.65,23.66,1.07,6.26-.46,12.51-1.83,18.82-1.54,2.12.1,6.48.06,7.7,1.91S444,455.46,444.11,457.66Z"/><path class="cls-8" d="M395.29,452a14.42,14.42,0,0,0,5.41,2.66,47.26,47.26,0,0,0,9.75,1.6,92.56,92.56,0,0,0,21-.82c4.79-.73,10.06-2.23,12.43-6.46a13.35,13.35,0,0,0,1.36-7,27.63,27.63,0,0,0-2.66-11c-.5-1-17.45,1.64-19.37,1.82l-19.76,1.85c-3.86.37-10.12-.46-11.82,3.87C390,442.57,392.11,449.26,395.29,452Z"/><path class="cls-8" d="M390.67,435.47a2.78,2.78,0,0,0,2.61,3.06c14.79,4,30.45.46,45.36-3a11.63,11.63,0,0,0,3.79-1.37,7.91,7.91,0,0,0,3.17-6.19,23.63,23.63,0,0,0-1.05-7.1c-.26-1-.66-2.16-1.65-2.46a2.83,2.83,0,0,0-1.23,0q-17.18,1.91-34.41,3.14c-3.71.26-11.31-.79-14.42,1.52S390.41,432.14,390.67,435.47Z"/><path class="cls-8" d="M443.41,420.66a9.71,9.71,0,0,1-3.64,3.17c-5.44,3-11.92,3.36-18.14,3.46-5,.08-10.08,0-15.12,0-5.28,0-10.82-.15-15.39-2.78a2.71,2.71,0,0,1-1.06-.92,3,3,0,0,1-.24-1.6l.4-11.38a2.46,2.46,0,0,1,2.89-2.94L431,405.9c3.69-.17,9.88-1.87,12.34,1.79C445.42,410.87,445,417.47,443.41,420.66Z"/><path class="cls-8" d="M390.28,410c10.89,3,22.23,5.93,33.34,3.93a77.65,77.65,0,0,0,10.23-2.86l10.9-3.59c1.12-5.6,2.19-11.61-.07-16.85a3.22,3.22,0,0,0-1.31-1.69,3.56,3.56,0,0,0-1.72-.26l-17.67.22c-9.4.12-18.93.24-28.13,2.41-3.12.73-6.5,1.23-7.25,4.75C387.74,400.07,389.72,405.92,390.28,410Z"/><path class="cls-10" d="M392.81,384.9c-2.59,1.62-4.92,4.13-5.1,7.18a8.26,8.26,0,0,0,4,7.05,18.08,18.08,0,0,0,8.09,2.39c13.73,1.35,27.24-3.5,40.19-8.26a9.89,9.89,0,0,0,3.84-2.11,3.41,3.41,0,0,0,.74-4,4.9,4.9,0,0,0-2.42-1.66,102.48,102.48,0,0,0-31.38-7.37C403.9,377.59,398.47,381.33,392.81,384.9Z"/></g><g id="Layer_112" data-name="Layer 112"><path class="cls-11" d="M4.6,477.31c-1.74,4.17-3.51,8.46-3.63,13-.23,8,4.94,15.5,11.77,19.69s15.06,5.5,23.07,5.54c33.56.16,67.3-20.1,99.15-9.53,8.68,2.88,16.51,7.91,25.18,10.8s19.08,3.22,26.12-2.61c6.36-5.27,8.32-14,9.9-22.15l4.83-24.8c1-5.2,2-10.79-.18-15.62-1.76-3.93-5.34-6.71-9-9-28.46-17.63-64.77-12.11-98.08-15.49-16.86-1.72-45.67-11.46-61.81-3.38C17.2,431.13,10.85,462.33,4.6,477.31Z"/><path class="cls-12" d="M22.81,479.93c11,.27,21.72-7.84,24.42-18.54"/><path class="cls-12" d="M86.14,488.53c6.33-10.57,20-15.28,32.17-13.17s22.65,10,30.34,19.64"/><text class="cls-1" transform="translate(44.47 575.61)"><tspan class="cls-7">m</tspan><tspan x="27.41" y="0">ass</tspan><tspan class="cls-13" x="73.16" y="0">i</tspan><tspan class="cls-14" x="81.12" y="0">v</tspan><tspan x="96.46" y="0">e</tspan></text></g><g id="Layer_113" data-name="Layer 113"><text class="cls-1" transform="translate(948.73 260.79)">pris<tspan class="cls-2" x="50.83" y="0">m</tspan><tspan x="78.24" y="0">atic</tspan></text><polygon class="cls-15" points="1033.51 0.5 1007.99 0.5 995.24 12.99 1007.99 25.48 1033.51 25.48 1046.27 12.99 1033.51 0.5"/><rect class="cls-15" x="1007.99" y="25.48" width="25.52" height="106.27"/><polygon class="cls-15" points="1046.27 119.25 1033.51 131.76 1033.51 25.48 1046.27 12.98 1046.27 119.25"/><polygon class="cls-15" points="995.24 119.25 1007.99 131.76 1007.99 25.48 995.24 12.98 995.24 119.25"/><polygon class="cls-15" points="988.86 28.46 963.34 28.46 950.58 40.95 963.34 53.44 988.86 53.44 1001.61 40.95 988.86 28.46"/><rect class="cls-15" x="963.34" y="53.44" width="25.52" height="106.27"/><polygon class="cls-15" points="1001.61 147.21 988.86 159.72 988.86 53.44 1001.61 40.94 1001.61 147.21"/><polygon class="cls-15" points="950.58 147.21 963.34 159.72 963.34 53.44 950.58 40.94 950.58 147.21"/><polygon class="cls-15" points="1065.4 52.15 1039.89 52.15 1027.13 64.64 1039.89 77.13 1065.4 77.13 1078.16 64.64 1065.4 52.15"/><rect class="cls-15" x="1039.89" y="77.13" width="25.52" height="106.27"/><polygon class="cls-15" points="1078.16 170.9 1065.4 183.41 1065.4 77.13 1078.16 64.63 1078.16 170.9"/><polygon class="cls-15" points="1027.13 170.9 1039.89 183.41 1039.89 77.13 1027.13 64.63 1027.13 170.9"/><polygon class="cls-15" points="1020.75 80.11 995.24 80.11 982.48 92.6 995.24 105.09 1020.75 105.09 1033.51 92.6 1020.75 80.11"/><rect class="cls-15" x="995.24" y="105.09" width="25.52" height="106.27"/><polygon class="cls-15" points="1033.51 198.86 1020.75 211.36 1020.75 105.09 1033.51 92.59 1033.51 198.86"/><polygon class="cls-15" points="982.48 198.86 995.24 211.36 995.24 105.09 982.48 92.59 982.48 198.86"/></g><g id="Layer_114" data-name="Layer 114"><text class="cls-1" transform="translate(675.99 255.72)">plat<tspan class="cls-5" x="55.28" y="0">y</tspan></text><path class="cls-16" d="M615.65,195c1.92,1.47,4.62,1.17,7,.83,27.23-3.81,54.88-2.23,82.33-.64l7.9.46,28.22,1.63c6.73.39,13.46.79,20.19,1,1.92.05,3.95.06,5.61-.9a10.44,10.44,0,0,0,2.87-2.83c6.13-7.81,12.29-15.66,17.08-24.35,2.8-5.09,5.17-10.52,9.07-14.84,3-3.37,7.08-6.18,8.46-10.52,1.12-3.52.54-8.07,3.56-10.21-22.55.88-44.4,7.76-66.72,11.1-14.61,2.18-29.44,2.85-43.88,6-25.93,5.59-49.51,18.81-72.17,32.58C622.86,185.69,610.08,190.76,615.65,195Z"/><path class="cls-16" d="M613,187.12c1.5,1.28,3.69,1.22,5.65,1.1l34.25-2.17c5.45-.34,10.94-.68,16.35.07a23.87,23.87,0,0,0,6.67.48,38.38,38.38,0,0,0,5.11-1.52c7.71-2.26,15.86.92,23.89,1.09a69.26,69.26,0,0,0,10-.82,376,376,0,0,1,53.13-2.9,10.3,10.3,0,0,0,4-.47,8.66,8.66,0,0,0,2.7-2c7-6.86,10.33-16.66,16.54-24.26C797,148.84,805.18,143.53,808,135c-17.65,2.3-35.33,4.6-52.79,8.08-17.17,3.42-34.17,8-51.61,9.64-13.28,1.26-26.71.81-39.9,2.79-7.05,1-14.06,2.82-20.33,6.2A43.4,43.4,0,0,0,626.54,178c-1.47,2.52-2.79,5.3-5.25,6.87-3.6,2.29-5.86-.61-8.89-1.49A3,3,0,0,0,613,187.12Z"/><path class="cls-16" d="M613.55,177.15c13.16-1.27,26.44-2.53,39.58-1,4.4.51,8.79,1.34,13.21,1.22,6.43-.17,12.69-2.33,19.12-2.43,5.35-.08,10.62,1.28,15.95,1.69,13.05,1,25.87-3.56,38.93-4.24a106.15,106.15,0,0,1,19.34,1.12c7.59,1,16.34,2,21.93-3.22a24.85,24.85,0,0,0,4-5.48l14.46-23.88c2.71-4.47,5.51-9.78,3.67-14.67C779.43,130.19,756,138.5,731.71,143c-19.39,3.63-39.17,4.82-58.65,8a179.6,179.6,0,0,0-33.82,8.44C632.88,161.79,612.48,168.13,613.55,177.15Z"/><path class="cls-16" d="M611.88,164.23c-.84.58-1.76,1.32-1.74,2.33,0,1.52,2,2.11,3.48,2.19a59.3,59.3,0,0,0,17.66-1.63c4.67-1.15,9.21-2.87,14-3.6,13.61-2.1,27.53,4.09,41.12,1.79,4-.68,7.83-2.08,11.81-2.84,7.59-1.46,15.43-.58,23,.87,4.26.82,8.51,1.82,12.84,1.86,4.86.05,9.65-1.1,14.51-1.28,6.63-.25,13.35,1.31,19.86,0,8.18-1.6,15.09-7.73,18.62-15.27.77-1.64,1.39-3.34,2-5l4.41-12c-28.22-2.46-56.11,6.74-84.4,8.14-9.88.48-19.85,0-29.6,1.71-12.13,2.11-23.44,7.48-35.61,9.4-5.69.89-10.23-.14-15.26,2.74C622.87,156.88,617.31,160.5,611.88,164.23Z"/><path class="cls-16" d="M609.71,152.65c1.92,1.55,4.73.95,7.14.4a74,74,0,0,1,26.69-1.18c4.89.68,9.79,1.85,14.72,1.5a80.43,80.43,0,0,0,10-1.88c7-1.42,14.19-1.59,21.33-1.75l40.57-.92a33.16,33.16,0,0,1,10,.78c2.87.83,5.53,2.43,8.5,2.78,3.33.39,6.61-.82,9.8-1.84a87.37,87.37,0,0,1,23.39-4.06,17.61,17.61,0,0,0,5-.61c3-1,5.06-3.6,7.05-6a155.74,155.74,0,0,1,23.19-22.8c-7.79-2.75-16.35-1.61-24.53-.43l-79.77,11.46c-21.6,3.1-42.53,1.38-63.71,6.63-5.41,1.34-11.2-2.17-16.76-2.6-2.8-.22-8.44,2.82-11.25,2.93s-8.5,6.76-10.73,8.13C607.82,144.78,607.15,150.59,609.71,152.65Z"/><path class="cls-16" d="M605.17,147.05a37.66,37.66,0,0,0,13.74-3.75c2.79-1.37,5.43-3.11,8.41-4,6-1.84,12.4-.13,18.62.54a55.56,55.56,0,0,0,18.45-1.12c4.49-1,9.32-2.62,13.53-.75,1.36.6,2.58,1.54,4,1.83,1.88.36,3.76-.43,5.57-1.08a41.36,41.36,0,0,1,26.67-.46A26.59,26.59,0,0,0,721,140c2.57.13,5.07-.74,7.55-1.41A52.62,52.62,0,0,1,751,137.47c4.83.81,9.72,2.3,14.54,1.41a30.36,30.36,0,0,0,6.55-2.3l12.3-5.42a4.24,4.24,0,0,0,2-1.42c.58-.92.37-2.16.88-3.12.62-1.18,2.25-1.87,2.24-3.2,0-1-1-1.72-1.94-2.18-6.75-3.37-14.53-3.84-22.07-4-20.9-.42-41.79,1.14-62.6,3.17-15.73,1.53-31.52,3.34-46.74,7.58-6.35,1.78-12.65,4-19.21,4.66-7.5.77-15.2-1-22.65.09C607.67,133.68,607.26,141.34,605.17,147.05Z"/><path class="cls-16" d="M608.06,132.6c10.32,3.6,21.65,1.88,32.44.12l24.53-4c4.67-.76,9.4-1.53,14.13-1.22,5.24.35,10.33,2,15.58,2.41a65.54,65.54,0,0,0,12.58-.7l31.7-3.85c5-.61,10.09-1.21,15.07-.44,2.29.35,4.52,1,6.8,1.41a36.68,36.68,0,0,0,31.68-9.58A14.89,14.89,0,0,0,796,112.2c1.44-3.27.91-7.07,1.81-10.53,1.68-6.51,7.88-10.59,12.68-15.31a5,5,0,0,0,1.83-3.16c.1-2.89-3.91-3.71-6.8-3.52l-88.72,5.57c-15.44,1-31.28,2-45.31,8.56-9.19,4.28-17.18,10.71-25.62,16.33-7.79,5.19-16.29,9.76-25.69,11-3.55.48-6.67,0-9.49,2.48C608.91,125.14,604.45,131.34,608.06,132.6Z"/><path class="cls-16" d="M812.47,74.34a2.6,2.6,0,0,1,2.09.21c1.24,1-.19,2.9-1.59,3.64-4.82,2.56-10.39,3.39-15.28,5.82s-9.3,7.43-8.27,12.79c1,5.19,6.74,9,6.41,14.23-.19,3.12-2.65,5.77-5.54,7a19.43,19.43,0,0,1-9.25,1A54.73,54.73,0,0,1,767.6,116c-4.25-1.51-8.85-3.57-13.06-2-1.86.71-3.41,2.08-5.27,2.8a16.44,16.44,0,0,1-5.55.79l-15,.42c-16.39.45-32.79.9-49.18.67-12.57-.18-25.25-.75-37.63,1.45-5.93,1.05-12.86,2.49-17.34-1.55-1.29-1.16-2.39-2.79-4.11-3.06-1.16-.19-2.33.31-3.51.21-2.66-.21-4.17-3.63-3.19-6.11s3.63-4,6.26-4.45,5.33-.23,8-.34c7.76-.32,15-3.77,22.51-5.81,12-3.26,24.59-2.9,37-3.53,13-.67,25.93-2.46,38.84-4.26,5.4-.74,10.84-1.5,16-3.34s10.07-4.85,15.13-7.22c8-3.75,18.65-7.46,27.65-6.69C794.56,74.86,802.84,76.07,812.47,74.34Z"/><path class="cls-16" d="M768.78,69.78c7.07-1.66,15.09-3.46,21.15.56,0,5.54-6.16,8.61-11.17,11A74.19,74.19,0,0,0,757,97.12c-5,5.25-9.71,11.56-16.71,13.44a28.76,28.76,0,0,1-8.74.6c-22.44-1-44.83-6.17-67.16-3.71-8.25.9-16.37,2.85-24.65,3.43s-17-.3-24.05-4.65c.94-3.39,5-4.56,8.32-5.71,7-2.43,13.06-7,19.72-10.32,21.72-10.69,47.82-6.39,71.07-13.11,9.54-2.75,19.53-8.84,29.58-9.27,4-.17,6.25,2.12,10.14,3C759.16,71.81,764.21,70.86,768.78,69.78Z"/><path class="cls-16" d="M628,89.16C626,91,624,94,625.77,96a5,5,0,0,0,3,1.23,57.22,57.22,0,0,0,10.7.76c8.4-.18,16.66-2.2,25.05-2.76,16.35-1.09,33.08,3.38,49-.54a14.07,14.07,0,0,0,4.45-1.75,23.86,23.86,0,0,0,4.28-4.41c6.27-7.16,16-10.5,25.45-11.28,3.72-.31,8.29-.8,9.72-4.25,1.12-2.68-.55-5.87-3-7.46s-5.44-1.94-8.33-2.27c-9.77-1.1-19.75-2.2-29.35-.09-4.51,1-8.86,2.66-13.38,3.62A71.22,71.22,0,0,1,688.16,68q-9.43-.06-18.84-1c-4.5-.44-9.08-1-13.52-.15-6.38,1.27-8.18,5.47-12.23,9.57C638.94,81.08,632.93,84.74,628,89.16Z"/></g><g id="Layer_115" data-name="Layer 115"><path class="cls-17" d="M348,142.16l.08,2.86c.22,7.11,14.5,5.07,18.69,5.12,10.57.11,21.14.2,31.71.2,5.27,0,36.44,1.9,36.93-4.84.33-4.69-13.71-6.62-16.83-7.52-15.74-4.53-31.9-7.57-47.62-12-4.63-1.32-9.1-3-13.73-4.4a11.22,11.22,0,0,0-6.5-.38c-5.15,1.66-3.14,7.5-3,11.47C347.81,135.8,347.9,139,348,142.16Z"/><path class="cls-17" d="M449.11,117.34l-.06-2.86c-.13-7.11-14.44-5.24-18.62-5.33-10.57-.23-21.14-.44-31.71-.56-5.26-.07-36.41-2.32-37,4.42-.39,4.69,13.63,6.78,16.74,7.71,15.69,4.71,31.81,7.93,47.49,12.59,4.61,1.37,9.06,3.14,13.67,4.55a11.16,11.16,0,0,0,6.5.46c5.16-1.6,3.22-7.47,3.14-11.44C449.22,123.7,449.17,120.52,449.11,117.34Z"/><path class="cls-17" d="M310.53,195.89l.07,3c.18,7.49,11.83,5.34,15.24,5.39,8.62.12,17.25.21,25.87.21,4.3,0,29.72,2,30.12-5.09.28-4.94-11.18-7-13.72-7.92-12.85-4.77-26-8-38.85-12.68-3.78-1.39-7.42-3.2-11.19-4.63-1.73-.66-3.6-1.11-5.31-.4-4.2,1.74-2.56,7.9-2.46,12.07Q310.42,190.87,310.53,195.89Z"/><path class="cls-17" d="M392.23,171.09l-.15-3c-.38-7.47-12-5.28-15.4-5.31-8.63-.07-17.27-.12-25.89-.08-4.3,0-29.8-1.86-30,5.24-.14,4.94,11.38,6.91,13.95,7.84,13,4.7,26.26,7.83,39.22,12.49,3.82,1.37,7.52,3.16,11.33,4.57,1.74.64,3.63,1.09,5.32.37,4.15-1.76,2.34-7.91,2.13-12.08Z"/><path class="cls-17" d="M404.75,196.89l.07,3c.18,7.49,11.83,5.34,15.24,5.39,8.62.12,17.25.21,25.87.21,4.3,0,29.72,2,30.12-5.09.28-4.94-11.18-7-13.72-7.92-12.85-4.77-26-8-38.85-12.68-3.78-1.39-7.42-3.2-11.19-4.63-1.73-.66-3.6-1.11-5.31-.4-4.2,1.74-2.56,7.9-2.46,12.07C404.6,190.19,404.67,193.54,404.75,196.89Z"/><path class="cls-17" d="M486.72,173.51l0-3c-.06-7.49-11.74-5.79-15.15-6-8.62-.45-17.25-.88-25.87-1.21-4.29-.17-29.68-3.14-30.19,3.93-.36,4.93,11.06,7.4,13.59,8.45,12.77,5.26,25.9,9,38.65,14.17,3.75,1.53,7.37,3.48,11.12,5.06,1.71.72,3.57,1.24,5.3.6,4.22-1.58,2.68-7.8,2.65-12C486.77,180.21,486.75,176.86,486.72,173.51Z"/><text class="cls-18" transform="translate(344.76 255.27)">w<tspan class="cls-19" x="25.09" y="0">edge</tspan></text></g><g id="Layer_116" data-name="Layer 116"><text class="cls-1" transform="translate(41.25 255.27)">g<tspan class="cls-20" x="19.32" y="0">r</tspan><tspan x="28.66" y="0">anular</tspan></text><path class="cls-21" d="M61.35,173.24c-1.54,3.34-1.5,7.16-1.44,10.83a13.84,13.84,0,0,0,.63,4.67,4.66,4.66,0,0,0,3.31,3.08c2.38.41,4.44-1.68,5.59-3.8a19,19,0,0,0,2.32-8.53,11.49,11.49,0,0,0-1.42-6.31C67.93,169.27,63.39,168.82,61.35,173.24Z"/><path class="cls-21" d="M85.33,100.76l.1,8.66a6.72,6.72,0,0,0,.39,2.68,2.31,2.31,0,0,0,2.1,1.48c1.21-.08,1.94-1.36,2.35-2.51A23.94,23.94,0,0,0,90.58,96C88.44,89.2,85.3,97.94,85.33,100.76Z"/><path class="cls-21" d="M104.93,95.66c-3.33.33-5.6,2.5-7.22,5.43-.66,1.19-1,2.93.17,3.69a3.65,3.65,0,0,0,2.05.35c4-.06,7.91,1.36,11.92,1.52a9.77,9.77,0,0,0,5.31-1.05,5,5,0,0,0,2.62-4.49c-.24-2.79-3.26-4.43-6-5.07a23.85,23.85,0,0,0-8.87-.38"/><path class="cls-21" d="M101.38,111.15c-2.26-.15-.88.07-3.14.14a3.56,3.56,0,0,0-2.58.78,2.48,2.48,0,0,0,.53,3.43,6.42,6.42,0,0,0,3.65,1.14c1.34.12,2.69.18,4,.18,1.69,0,3.74-.33,4.38-1.89s-.58-3.23-2.1-3.79a9.12,9.12,0,0,0-4.78,0"/><path class="cls-21" d="M125.4,104.27c-3.25,2-2.73,6.38-2.57,10.19a7.48,7.48,0,0,0,.69,3.38,2.59,2.59,0,0,0,2.89,1.38,3.32,3.32,0,0,0,1.36-1,11.47,11.47,0,0,0,2.28-10.47c-.61-2.1-2.64-4.3-4.65-3.43"/><path class="cls-21" d="M67.52,131.77a22.91,22.91,0,0,0-5.23.94A5,5,0,0,0,59,134.8c-.84,1.58.07,3.65,1.55,4.67a10.11,10.11,0,0,0,5.15,1.33c2.3.15,4.6.18,6.89.12a6.14,6.14,0,0,0,3.39-.81c2.18-1.53,1.42-5.25-.75-6.8s-5.06-1.58-7.73-1.54"/><path class="cls-21" d="M86.65,115.82c-4.16-.34-7.18.46-10.35,3.19a2.49,2.49,0,0,0-.84,1.14,2,2,0,0,0,1,2.13,5.73,5.73,0,0,0,2.41.68,100.37,100.37,0,0,0,10.4.73,5.08,5.08,0,0,0,2.57-.4c1.82-1,1.84-3.81.47-5.35s-3.58-2-5.64-2.12"/><path class="cls-21" d="M71.85,95.16c-3.7.71-6.59,2-7.68,5.6a6.08,6.08,0,0,0,.5,4.46,8.62,8.62,0,0,0,5.1,4.09,9.54,9.54,0,0,0,9.31-2,7.83,7.83,0,0,0,1.6-9.15,7.2,7.2,0,0,0-8.83-3"/><path class="cls-21" d="M55,102.6c-1.87.44-2,.26-3.63,1.32a1.92,1.92,0,0,0,.36,2.43,4.41,4.41,0,0,0,2.43,1,5.27,5.27,0,0,0,3.59-.49,2.46,2.46,0,0,0,1-3.19c-.72-1.17-2.37-1.19-3.74-1.08"/><path class="cls-21" d="M53.1,121.66a38,38,0,0,0-.47,11.51c.13,1.14.54,2.53,1.67,2.72,1,.16,1.78-.69,2.36-1.47a15.65,15.65,0,0,0,3.25-7.11,7.37,7.37,0,0,0-2.76-7,3.19,3.19,0,0,0-2.87-.53c-.94.37-.82.44-1.18,1.87"/><path class="cls-21" d="M35,123.54c-1.23,0-1.84,1.62-2.24,2.78a9.09,9.09,0,0,0-.22,3.64c.27,3.51.65,7.31,3,9.91a1.68,1.68,0,0,0,1.06.64,1.71,1.71,0,0,0,1.1-.49,10.15,10.15,0,0,0,3.4-9.6A8.4,8.4,0,0,0,35,123.54"/><path class="cls-21" d="M25.34,139c-1.71-.07-3,.48-4.52.25s-3.42.15-3.91,1.6a2.66,2.66,0,0,0,1.23,2.91,6.79,6.79,0,0,0,3.24.87,35,35,0,0,0,7.85-.26,6.48,6.48,0,0,0,3.7-1.46c1-.95,1.2-2.73.16-3.59a3.6,3.6,0,0,0-2.29-.58,45.27,45.27,0,0,0-5.46.26"/><path class="cls-21" d="M11.26,163.11a4.75,4.75,0,0,0-4.36,3.13,5.19,5.19,0,0,0,1.78,5.3,8,8,0,0,0,5.56,1.61,5.15,5.15,0,0,0,3.9-1.72,4.24,4.24,0,0,0,.74-1.84,5.93,5.93,0,0,0-2-5.4c-1.53-1.3-3.08-1.38-5.65-1.08"/><path class="cls-21" d="M20.7,159.27a2.91,2.91,0,0,0-2,1.4c-.48,1.27.93,2.42,2.19,2.91,7.3,2.79,15.44-.57,23.25-.2,2,.1,4.21.44,6.1-.37s3.2-3.38,1.89-5a4.26,4.26,0,0,0-2.88-1.22c-2.9-.34-5.8.17-8.69-.08-2.7-.24-5.85-2.26-8.42-2.06C28.7,154.94,24.19,158.1,20.7,159.27Z"/><path class="cls-21" d="M14.19,147.4c-2.06.62-3.61,1.67-4,3.44a4.56,4.56,0,0,0,2.09,4.63c2.53,1.59,6.47.11,7.16-2.8s-2.38-6.06-5.27-5.27"/><path class="cls-21" d="M41.33,168.26c-1.8,0-2.23.61-3.79,1.79s-2.82,2.44-3.07,4.2c-.3,2.2,1.38,4.29,3.42,5.17a14.05,14.05,0,0,0,6.55.64,15.68,15.68,0,0,0,5.84-1.26,6,6,0,0,0,3.5-4.55c.24-2.66-2-5-4.53-5.85s-5.28-.48-7.92-.14"/><path class="cls-21" d="M42,141.61a6.59,6.59,0,1,0,6.22,8.1,6.13,6.13,0,0,0-1-5.13c-1.11-1.42-3.38-3.2-5.17-3"/><path class="cls-21" d="M58.33,155.5a16,16,0,0,0,1.32,6.63c1,2,3.12,3.67,5.39,3.5,2.81-.21,4.7-3,5.66-5.62,1.35-3.76,1.62-8.17-.49-11.57-1.56-2.51-5.49-4.79-8.51-3.59C57.88,146.37,58.17,152,58.33,155.5Z"/><path class="cls-21" d="M54,181.33c-.74,1.43-3,2-3.71,3.63a35.23,35.23,0,0,0-2.17,6.78,5.5,5.5,0,0,0,.09,3.5c.8,1.67,2.88,2.18,4.7,2.51a2.39,2.39,0,0,0,1.61-.08,2.26,2.26,0,0,0,.7-.71c2.38-3.38,3.13-7.66,3.19-11.79a5.71,5.71,0,0,0-1-3.88c-.89-1-2.85-1.18-3.46,0"/><path class="cls-21" d="M75.36,158c-2.4.36-2.23,2.47-1.94,4.89a4.52,4.52,0,0,0,5.24,3.78,4.19,4.19,0,0,0,2.74-5.7,7.3,7.3,0,0,0-2.52-2.48c-1.06-.72-2.59-1.38-3.52-.49"/><path class="cls-21" d="M84.47,136.6c-1.24,2-3,3.81-3.24,6.14a5.51,5.51,0,0,0,3.87,5.48,6.81,6.81,0,0,0,6.66-1.81,9,9,0,0,0,2.43-6.63,5.2,5.2,0,0,0-1-3.16c-1.32-1.61-3.71-1.68-5.79-1.62-1,0-2.84.61-2.93,1.6"/><path class="cls-21" d="M96.23,125.53c-2.47.9-2.72,3.91-2.43,5.51a32.55,32.55,0,0,0,1.71,6c.56,1.42,1.78,3.06,3.21,2.56a3.09,3.09,0,0,0,1.56-1.92c1-2.45,2-5.09,1.53-7.71s-3-5-5.58-4.43"/><path class="cls-21" d="M96.93,152.19a6.79,6.79,0,0,0,1,4.1,6.12,6.12,0,0,0,3.68,1.86,9.24,9.24,0,0,0,4.41.31c1.25-.89,1.55-5.07,1.51-7.84,0-2.41-.19-5-1.61-6.93C100.37,136.11,96.82,148.26,96.93,152.19Z"/><path class="cls-21" d="M100.81,168.84c-3,.26-3.94.73-6.74.89-1.72.1-3.93.71-4,2.43-.13,1.89,2.33,2.69,4.21,2.86l14.43,1.32c1.49.14,3.22.19,4.23-.92s.71-3.15-.38-4.29a7.8,7.8,0,0,0-4.26-1.92,27.3,27.3,0,0,0-7.44-.37"/><path class="cls-21" d="M110.37,157.94c-2.24.3-5,1-5.47,3.2a3.84,3.84,0,0,0,2,3.93,11.26,11.26,0,0,0,4.56,1.15,2.81,2.81,0,0,0,2.38-.48,2.44,2.44,0,0,0,.5-1.08,6.92,6.92,0,0,0-.16-4.45,4.47,4.47,0,0,0-3.84-2.27"/><path class="cls-21" d="M90.73,183.6a16.26,16.26,0,0,0-6.33.12,8.71,8.71,0,0,0-6.49,4.2,3.46,3.46,0,0,0-.31,2.88,4,4,0,0,0,1.81,1.74c3.73,2.12,8.25,2.29,12.54,2a19.74,19.74,0,0,0,7-1.5,8.37,8.37,0,0,0,4.7-5.12,2.58,2.58,0,0,0,0-1.69,3.13,3.13,0,0,0-1.95-1.47,22.42,22.42,0,0,0-11-1.13"/><path class="cls-21" d="M119.85,167.57c-1.39,3.05-.26,6.48,0,9.71.11,1.55.34,3.33,1.65,4.17a3.29,3.29,0,0,0,3.88-.61,7.29,7.29,0,0,0,1.87-3.72c.6-2.52.67-5.33-.68-7.53s-4.5-3.42-6.68-2"/><path class="cls-21" d="M124.19,156.05a14.09,14.09,0,0,0-2.71,1.06,4,4,0,0,0-2,1.3,1.55,1.55,0,0,0,.27,2.15,2.3,2.3,0,0,0,.86.24l5.66.82a4.68,4.68,0,0,0,1.9,0c1.76-.49,2.24-3.09,1.07-4.5a4.65,4.65,0,0,0-5.05-1.08"/><path class="cls-21" d="M117.88,144a5.93,5.93,0,0,0-2.9,1.26,3.73,3.73,0,0,0-1.64,3.74c.59,2.28,3.56,2.77,5.92,2.81l7.18.11a5.48,5.48,0,0,0,3.71-.84c1.67-1.42.94-4.36-.84-5.63s-4.13-1.35-6.31-1.38l-5.12-.07"/><path class="cls-21" d="M127.49,124.12c-2.87.16-4.75,3.66-3.85,6.39s3.83,4.41,6.7,4.56a15.3,15.3,0,0,0,8.16-2.42c1.34-.76,2.77-1.86,2.82-3.41.06-1.92-2-3.14-3.85-3.73a23.18,23.18,0,0,0-10-1.39"/><path class="cls-21" d="M121.66,135.8c-1.58-.55-1.83.4-2.16,2a2.22,2.22,0,0,0,1.51,2.32,6.46,6.46,0,0,0,3,.2,3.6,3.6,0,0,0-2.32-4.56"/><path class="cls-21" d="M140.41,145.08a6.33,6.33,0,0,0-1.42,2.39,10.78,10.78,0,0,0-.41,6.72,5.51,5.51,0,0,0,5,4,2.55,2.55,0,0,0,1.69-.6,3.41,3.41,0,0,0,.77-2,40.55,40.55,0,0,0,.3-4.12,8.71,8.71,0,0,0-1.16-5.26c-1.06-1.49-3.35-2.23-4.77-1.08"/><path class="cls-21" d="M141.16,109.47c-1.87-.6-2.77.17-4.42,1.25a4.11,4.11,0,0,0-1.44,4.16c.5,2.32,3.55,2.82,5.92,2.82h4.6a9.63,9.63,0,0,0,4-.57,3.3,3.3,0,0,0,2.07-3.19c-.28-2.06-2.88-2.8-5-2.81a9.71,9.71,0,0,1-5.77-1.65"/><path class="cls-21" d="M162.94,121.25c.7,2.15,2.13,4.77,4.36,4.39,1.27-.21,2.14-1.39,2.78-2.51a16.08,16.08,0,0,0,2.38-7c.21-3.75-3.07-10.17-7.81-8.15S161.76,117.65,162.94,121.25Z"/><path class="cls-21" d="M167.84,133.21a10.57,10.57,0,0,0-5.26.95c-1.21.56-2.44,1.62-2.31,3,.2,1.89,2.7,2.36,4.6,2.33l13.53-.23a6.71,6.71,0,0,0,3.47-.69,2.29,2.29,0,0,0,.93-3.06,28.84,28.84,0,0,0-16.13-2.31"/><path class="cls-21" d="M177.06,123.74a6.26,6.26,0,0,0-3.75,1.42c-1.56,1-2.61,3.11-1.83,4.81.91,2,3.54,2.34,5.72,2.31,1.44,0,2.89-.1,4.32-.22a9.7,9.7,0,0,0,4.72-1.29,3.71,3.71,0,0,0,1.63-4.26c-.78-1.87-3.21-2.28-5.23-2.41l-5.58-.36"/><path class="cls-21" d="M160,144.71c-1.59.4-1.54,1.4-3.13,1.81-2,.49-4.18,1.23-4.84,3.12a4,4,0,0,0,.87,3.76,9.6,9.6,0,0,0,3.25,2.33,8.52,8.52,0,0,0,3.19,1c2.31.12,4.35-1.41,6.08-2.95,1.56-1.39,3-2.84,4.46-4.36a2.94,2.94,0,0,0,1-2c-.07-1.24-1.52-1.84-2.73-2.09a32.25,32.25,0,0,0-8.2-.62"/><path class="cls-21" d="M184.26,154c-1.88-.6-2.25.05-3.09,1.84a2.85,2.85,0,0,0,1.27,3.36,8.28,8.28,0,0,0,3.75,1A6.3,6.3,0,0,0,189,160a2.22,2.22,0,0,0,1.62-2c-.07-1.21-1.35-1.92-2.46-2.39L184.26,154"/><path class="cls-21" d="M191.09,140.44a4.53,4.53,0,0,1-2.31,3.27,9.52,9.52,0,0,0-2.51,1.63c-1.3,1.58-.18,4.17,1.66,5.09s4,.66,6,.39a2.58,2.58,0,0,0,1.56-.59,2.53,2.53,0,0,0,.5-1.4,15.41,15.41,0,0,0,.2-4.88,5.29,5.29,0,0,0-2.61-3.94,1.93,1.93,0,0,0-2.53.43"/><path class="cls-21" d="M87.44,154.3a3.28,3.28,0,0,0-1.07,1.86,2.07,2.07,0,0,0,.73,2.49,1.89,1.89,0,0,0,2.56-1.72c0-1.23-.59-2.8-2.22-2.63"/><path class="cls-21" d="M73.49,173.12c.42.84.78,1,1.56,1.48a2.1,2.1,0,0,0,2.6-.13,1.9,1.9,0,0,0-1.08-2.89c-1.2-.31-2.87-.08-3.08,1.54"/><path class="cls-21" d="M113.61,130.74a3.3,3.3,0,0,0,2.11.43,2.07,2.07,0,0,0,2.13-1.48,1.89,1.89,0,0,0-2.43-1.89c-1.18.37-2.48,1.44-1.81,2.94"/><path class="cls-21" d="M114.1,139.8c-.3-.9-.63-1.06-1.34-1.68a2.07,2.07,0,0,0-2.58-.24,1.89,1.89,0,0,0,.66,3c1.14.48,2.83.48,3.26-1.09"/><path class="cls-21" d="M89.66,165c-1.13.25-2.35,2.19-1.75,3.34a3.55,3.55,0,0,0,3.22-.71A1.62,1.62,0,0,0,89.66,165"/><path class="cls-21" d="M44.74,122.4c-1.13.25-2.35,2.19-1.75,3.33a3.55,3.55,0,0,0,3.22-.71,1.61,1.61,0,0,0-1.47-2.62"/><path class="cls-21" d="M58.08,116.13c.62-1,.11-3.21-1.12-3.6a3.59,3.59,0,0,0-1.78,2.78,1.62,1.62,0,0,0,2.9.82"/><path class="cls-21" d="M111.42,123.73c-.47-1.07-2.61-1.88-3.61-1.07a3.56,3.56,0,0,0,1.32,3,1.62,1.62,0,0,0,2.29-2"/></g></g></g></svg>