<svg xmlns="http://www.w3.org/2000/svg" viewBox="0 0 890.24 802.25"><defs><style>.cls-1,.cls-11,.cls-26,.cls-27,.cls-9{fill:none;}.cls-1{stroke:#5c5052;stroke-width:6px;}.cls-1,.cls-10,.cls-11,.cls-12,.cls-26,.cls-27,.cls-28,.cls-29,.cls-30,.cls-31,.cls-32,.cls-33,.cls-34,.cls-9{stroke-miterlimit:10;}.cls-14,.cls-2,.cls-35{fill:#5c5052;}.cls-12,.cls-13,.cls-3{fill:#ffc001;}.cls-4{fill:#805d3b;}.cls-31,.cls-34,.cls-5{fill:#e47243;}.cls-6{fill:#b9252c;}.cls-7{fill:#80b73f;}.cls-8{fill:#336da7;}.cls-9{stroke:#336da7;stroke-width:2px;}.cls-10{fill:#3d9c93;}.cls-10,.cls-12,.cls-28,.cls-29,.cls-30,.cls-31,.cls-32,.cls-33,.cls-34{stroke:#fff;}.cls-11,.cls-27{stroke:#e47243;}.cls-11{stroke-width:0.79px;}.cls-13{fill-rule:evenodd;}.cls-14{font-size:22.69px;}.cls-14,.cls-35{font-family:Acre-Light, Acre;font-weight:300;}.cls-15{letter-spacing:-0.02em;}.cls-16{letter-spacing:-0.01em;}.cls-17{letter-spacing:-0.01em;}.cls-18{letter-spacing:-0.02em;}.cls-19{letter-spacing:-0.03em;}.cls-20{letter-spacing:-0.02em;}.cls-21{letter-spacing:0em;}.cls-22{letter-spacing:0em;}.cls-23{letter-spacing:0em;}.cls-24{letter-spacing:-0.02em;}.cls-25{letter-spacing:0em;}.cls-26{stroke:#ffc001;stroke-linecap:round;stroke-width:3px;}.cls-28,.cls-29,.cls-30{fill:#de6a7c;}.cls-28{stroke-width:1.82px;}.cls-30{stroke-width:1.21px;}.cls-31{stroke-width:0.76px;}.cls-32,.cls-33{fill:#2e6193;}.cls-32{stroke-width:0.81px;}.cls-33{stroke-width:0.68px;}.cls-34{stroke-width:0.83px;}.cls-35{font-size:65px;}.cls-36{letter-spacing:-0.02em;}.cls-37{letter-spacing:0em;}</style></defs><g id="Layer_2" data-name="Layer 2"><g id="Layer_8" data-name="Layer 8"><path class="cls-1" d="M382,186.76c-17.43,6.15-40.42-2.16-58.78-1.09-29.66,1.73-47.82,16.47-72.88,30.9-11.18,6.43-22.58,13.81-33.44,21.18-11.07,7.52-30,13.91-35.5,26.24-5.94,13.37-2.21,24-11.88,37.07-12,16.2-33.69,27.66-40.13,47.8-4.58,14.32.13,30.44-4,45.31-4.24,15.24-12.89,26.41-13,42.7-.19,20.82,2.73,55.63,11.33,75,4.46,10,12.47,14.46,20.09,22.21,13.61,13.85,23.91,24.27,41.16,34.12,23,13.11,31.56,39.2,55.42,52.9,21.86,12.55,44.26,21.33,64.17,36.22C328,675,370.09,666.4,397.88,666.4c19.45,0,36,1.26,54.36,5.15,26.85,5.68,53-.66,79.92-4.89,20.89-3.29,52.07,5.3,64.07-15.46,4.28-7.4,2.92-10.76,10.9-16,8.44-5.49,22.27-8,31.72-11.35,20.8-7.33,43-14.12,60.28-28.38,24.7-20.44,9.25-54.77,15.92-82.35,3.2-13.24,5.41-25.91,7.8-39.21,3-16.77,14-27.87,19.57-43.39,9.34-26.07-6.88-58.49-17-82.48-9.69-23.06-19.86-47.35-40.18-62.75C657.79,264.49,623,237.13,589.44,227c-18.13-5.47-23.14-5.86-39-18.29-22.66-17.73-57.9-29.83-86.79-28.41-25.19,1.23-52.54-2.71-76.26,1.5-1.13,2.41-4.08,3-5.4,5"/><path class="cls-2" d="M207.67,113c1.34,4.49,2.16,8.57,2.92,12.45s1.39,7.51,2.11,10.94c1.41,6.82,3.23,12.9,5.75,16.81.15.25.32.48.47.71a7.07,7.07,0,0,0,.49.66l.24.33.4.48.8,1c1.07,1.29,2.17,2.53,3.29,3.76a89.27,89.27,0,0,0,7.14,6.88c2.53,2.17,5.2,4.24,8.05,6.27,1.43,1,2.89,2,4.39,3l2.26,1.49c.76.5,1.55,1,2.22,1.42,11.12,7.1,24.11,11.24,38.13,13.49s29,2.86,44.34,4c7.7.56,15.53,1.28,23.43,2.45,3.95.58,7.91,1.31,11.86,2.15s7.89,1.9,11.74,3c15.4,4.6,29.58,11,43.41,17s27.41,11.39,41.38,14.3c3.49.72,7,1.31,10.51,1.71,3.68.4,7.44.77,11.2,1.13,7.52.71,15.15,1.39,22.84,2.32a230.62,230.62,0,0,1,23.15,3.9c3.84.9,7.68,1.89,11.47,3.08A92.29,92.29,0,0,1,553,251.94c7.35,3.28,14,7.18,20.56,10.58,3.31,1.74,6.48,3.26,9.88,4.7s6.86,2.79,10.4,4.14c7.06,2.71,14.33,5.42,21.45,8.95a86.67,86.67,0,0,1,10.41,6.06,57.57,57.57,0,0,1,4.9,3.73,58.66,58.66,0,0,1,4.49,4.26c5.55,5.91,9.71,12.22,14.79,17.06.61.63,1.28,1.18,1.92,1.77s1.32,1.1,2,1.63c1.43,1.07,2.9,2.1,4.43,3.07,3.06,1.94,6.28,3.71,9.6,5.4,6.63,3.35,13.7,6.45,20.45,10.11,6.31,3.35,13.43,5.2,20.78,6.47s15,2.08,22.56,3.85a71.44,71.44,0,0,1,11.17,3.56c3.6,1.57,7,3.25,10.39,5,6.8,3.48,13.39,7.21,20.2,10.41a95.83,95.83,0,0,0,21.21,7.4l2.76.56c.93.16,1.86.28,2.79.43,1.85.3,3.74.5,5.62.7,3.76.39,7.53.66,11.3.69a79.28,79.28,0,0,0,22.44-2.93,80,80,0,0,1-22.43,3.82c-3.81.12-7.62,0-11.43-.25-1.9-.13-3.79-.26-5.7-.49-1-.11-1.9-.2-2.85-.32l-2.84-.46a98,98,0,0,1-22-6.71c-7.06-3-13.83-6.48-20.67-9.65-3.41-1.58-6.89-3.14-10.31-4.47a66.19,66.19,0,0,0-10.62-2.93c-7.28-1.42-14.8-1.91-22.45-2.93s-15.47-2.67-22.75-6.17c-6.74-3.33-13.7-6.05-20.75-9.28-3.51-1.61-7-3.35-10.45-5.35-1.72-1-3.4-2.08-5.06-3.22-.83-.57-1.66-1.21-2.48-1.84s-1.61-1.29-2.35-2c-6.11-5.46-10.62-11.78-15.7-16.71-4.91-4.86-11-8.45-17.64-11.43s-13.67-5.31-20.88-7.75c-3.61-1.22-7.26-2.47-10.92-3.86s-7.39-3-10.86-4.65c-7-3.31-13.66-6.84-20.3-9.49a82.05,82.05,0,0,0-10.08-3.34c-3.49-.95-7-1.71-10.61-2.4a214.53,214.53,0,0,0-21.87-2.81c-7.41-.6-14.92-1-22.53-1.4-3.8-.21-7.61-.43-11.49-.71-4-.29-8.05-.81-12-1.47-15.92-2.68-30.88-8.07-45.14-13.55s-28.06-11.06-41.94-14.59q-5.2-1.32-10.4-2.26t-10.6-1.5c-7.16-.77-14.47-1.16-21.93-1.41-14.91-.52-30.4-.43-46.46-2.39a147.63,147.63,0,0,1-24.23-5,127,127,0,0,1-12-4.33,111.8,111.8,0,0,1-11.48-5.75c-1-.54-1.8-1-2.65-1.54l-2.55-1.54q-2.55-1.56-5.13-3.24c-3.43-2.24-6.86-4.67-10.2-7.32a112.15,112.15,0,0,1-9.58-8.54c-1.51-1.51-3-3.06-4.4-4.63l-1.06-1.18-.52-.6-.65-.78c-.44-.53-.86-1.06-1.25-1.6s-.79-1.08-1.15-1.62a58.87,58.87,0,0,1-6.57-13.14A115.61,115.61,0,0,1,186,142.4c-1-4-1.74-7.78-2.54-11.34s-1.61-6.89-2.53-9.65Z"/><path class="cls-2" d="M375.8,207.2a87.77,87.77,0,0,0,27,6.58,125.56,125.56,0,0,0,28.55-1,193.24,193.24,0,0,0,28.44-6.33c9.39-2.77,18.65-6.11,27.8-9.79,4.6-1.82,9.07-3.81,13.84-5.66s9.53-3.41,14.38-4.79a206.84,206.84,0,0,1,29.52-5.93c19.86-2.6,39.77-2.95,59.62-3.92-19.77,2.05-39.67,3.5-59.11,7.15a202.28,202.28,0,0,0-28.57,7.37c-4.63,1.6-9.19,3.39-13.64,5.39s-8.89,4.29-13.44,6.38c-9.08,4.23-18.35,8.16-27.87,11.55a204.92,204.92,0,0,1-29.35,8.21,135.93,135.93,0,0,1-30.84,2.7,99.92,99.92,0,0,1-31.1-5.86Z"/><path class="cls-3" d="M218.62,264.54c9.19-11.89,26.09-16.85,39.67-24.72,8.88-5.15,22.9-10.77,34.06-7.56,25,7.19,29.06,50.94,21.94,72.47-6,18.21-16.33,12.21-32.12,13-12.44.59-25.41,5.45-37.62,7.85-19.06,3.75-52.5,1.54-44.12-27.29,2-6.75,13.81-32.47,18.19-33.71"/><path class="cls-3" d="M356,403.25c-40.51.35-75.45,29.28-62,71.48,6.09,19,4.45,34.33,25.45,30.89a367.15,367.15,0,0,1,39-4.14c22.27-1.35,30.66-3.65,36.35-25.67,2.39-9.25,8.64-22.76,7.88-32.38-1.3-16.54-13.58-22.85-26.31-27.22-8-2.74-13.2-11.13-20.42-13"/><path class="cls-3" d="M662,367c-7.86-1.87-19.66-12-30.79-10.43-8,1.14-23.15,12.08-27.83,18.18-5.33,6.95-3.22,14.37-3.6,22.78-.24,5.32-3.52,14-2.94,18.76.78,6.56,4.08,8.61,9.19,14.36,4.43,5,12.12,19.71,16.72,22.24,8.14,4.48,10.48-4.14,18.16-7.19,6.74-2.68,16.48-.84,24-2.21,13.33-2.42,22.92-8,27.23-22.11,2.27-7.48,2.77-24-.29-31.05-3.55-8.2-20.07-25.81-29.88-23.33"/><path class="cls-3" d="M308.07,589.27c-5.08,3.61-6.6,7.82-10.33,11.81-4.52,4.85-10.21,5.81-10.43,13.47-.09,3.23,1.12,5.61.66,8.91s-1.81,5.94-1.94,9.24c-.29,7.16,2.92,7.39,7.78,11.65,6.94,6.09,7.2,5.27,16.83,7.13,5.84,1.12,10.76,4.6,16.73,6.33,6.82,2,10.5,4,18.21,4.67,10.25.87,18-5.83,27.87-9.1,0-13.24,7.85-23.65,7.24-36.86-.31-6.91-1.11-17.52-5.38-23.38-2.74-3.76-7.13-5.79-11-8.88-6.78-5.42-10.75-5.43-19.28-2.79-5.52,1.71-7.24,5.3-11.69,7.81-7.84,4.44-18.56-4.86-25.92,0"/><path class="cls-4" d="M452,308.62c-18-7.78-37.51-7.61-53.4,3.86-15.71,11.33-12.48,14.92-14.3,32.46-1.12,10.7-8.17,20.44-2,31.09,7.5,12.94,21.41,2.78,33.64,14.73,12,11.77,21,16.93,39.64,19.29,17.86,2.26,16.6-15.49,27.41-26.28,10.4-10.38,23.05-11.12,23.18-28.42.12-16.26-5.88-19.19-14.9-28.91-4.49-4.84-6.95-10-9.7-16C467.49,315.64,463.62,313.66,452,308.62Z"/><path class="cls-4" d="M226.4,461.58c-14.31-16.62-39.34,23.8-38.9,37.86.41,12.88,16.76,19.53,19.36,31.08.82,3.62-2.86,9.18-2.52,13.7.76,10.21,11.39,21.59,21.21,23.69,8.08,1.72,11.61-1.93,18.43-4.5,8-3,15.14-2.61,21.66-4.54,9.88-2.92,11.56-5.2,16.79-14.29,9-15.69,5.69-32.94.78-50.36-14.79-4.89-38.23-15.68-47.68-28.59-4.49,1.58-6.75-.34-9.13-4.05"/><path class="cls-4" d="M480.48,551c-11.81,8.63-47.93,15.58-56.49,32.31-5.95,11.64,1.13,20.45-.43,29.87-2.25,13.52-12.74,9.88,5.78,19.2,26.91,13.52,39.83,10.64,68.67,4.43,9-1.94,14.61.69,20.22-7.1,5-7,2-16.93,11.18-24.4,6-4.87,13.84-5.76,18.82-12.54,4-5.4,3.75-12.63,6.07-18.56,2.67-6.82,7.71-5.32,4.34-14.14-2.16-5.68-7.31-7.18-12.09-9.07-8-3.18-23.34-6.46-31.66-5.5-6.31.73-11.95,3.49-18.57,4.27C489.94,550.54,486.78,546.42,480.48,551Z"/><path class="cls-2" d="M160.29,421.4c-21,3.29-23.65,15.12-20.72,33.67,2.67,16.92,13.4,14.73,29.79,15.59,16.24.84,24.69-9.15,20.77-25.93-3.8-16.29-18.81-20.81-32.44-23.33"/><path class="cls-2" d="M378.07,519.92c-10.81-1.9-23.54,7.86-22.07,22,1.71,16.49,20.1,23.3,35.13,19.12,33-9.19,16.54-50-11.77-41.16"/><path class="cls-2" d="M281.4,364.68c-2.57,2.5-13.6,5.84-16.85,11.61s-2.16,19.33-1.23,25.65c1.1,7.55-2.49,10.46,7.71,13.33,9.18,2.59,9.89-3.76,18.15-6.25,13.67-4.13,30.82,2.64,22.35-21-4.84-13.51-19-16.21-28.84-24.63"/><path class="cls-2" d="M353.84,229.45c-18.71-12.71-40.43,39.83-13,44.16,4.66.74,15.6-4.31,19.48-6.57,7.11-4.15,7.36,1,7.77-10.08S358,239.17,353.84,229.45"/><path class="cls-2" d="M596.77,320.24c-11.47-.62-17.15,3.6-20.77,12.58-1.5,3.72-.56,9.83-1.85,14.09-1.18,3.89-6.11,7.78-6,12.28.47,17.84,21.94,16.39,28.93,6.52,6.7-9.47,17.3-54.36-9.4-44.18"/><path class="cls-2" d="M485.56,246.42c-1.31,25.37,18.82,20.59,38.73,19.42,20.23-1.19,18.91-13.44,13.16-29.72C524.77,200.2,487.44,210.36,485.56,246.42Z"/><path class="cls-2" d="M536.22,444.73c-3.47-14.26-26.23-13.28-31.43-1.3-1.69,3.91-2.46,23.52-1.07,27,2.81,7.05,5.76,5.8,11.76,8.3,12.94,5.41,22.57,2.91,27.29-10.59s-.8-22.1-10.44-29.88"/><path class="cls-2" d="M658.07,570.47c-7.7-.52-23.84,2.15-27.05,14.56-1.43,5.54.36,20.83,6.28,24.42,4.89,3,27.57,1.94,32.44-.38,20.72-9.87,2.55-44.8-16.86-38.6"/><path class="cls-5" d="M515.5,500.85c-10.43,2.16-14.26,16.57-.8,15.1,10.72-1.17,11.78-16.7.8-15.1"/><path class="cls-5" d="M533,510.4c.19,4.12-2.65,6.27-.81,10.34a6.15,6.15,0,0,0,10.55,1c7-9.88-9.38-18-9.74-11.33"/><path class="cls-6" d="M525.67,506.28c-2.26.65-3,4.19-4.18,5.92s-1.86,3.12-1.3,5.29c1.18,4.53,7.62,3.83,10.16.9a11.88,11.88,0,0,0,2.48-6.8,4.33,4.33,0,0,0-3-4.7c-1.31-.38-2.9-.93-4.23-.61"/><path class="cls-5" d="M486.6,464.64c9.11,6.9,5.86,24.09-6.54,16.6-9.88-6-3.39-23.14,6.54-16.6"/><path class="cls-5" d="M464.91,467.23c-2.18,4.35-.46,7.92-4.22,11.49-3.59,3.42-9.9,2.12-10.76-3.57-2.09-13.73,17.87-15.27,15-7.92"/><path class="cls-6" d="M474.05,466c1.89,1.69.9,5.82,1.2,8.21s.3,4.17-1.29,6.25c-3.34,4.36-9.28.78-10.34-3.49a15,15,0,0,1,.88-8.41c.91-2.27,2.74-4,5.22-3.72,1.47.17,3.28.27,4.42,1.2"/><path class="cls-5" d="M521.18,569.71c9.11,6.9,5.86,24.09-6.54,16.6-9.89-6-3.39-23.14,6.54-16.6"/><path class="cls-5" d="M499.49,572.3c-2.19,4.35-.46,7.92-4.22,11.49-3.6,3.42-9.9,2.13-10.77-3.56-2.08-13.74,17.87-15.27,15-7.93"/><path class="cls-6" d="M508.63,571.09c1.88,1.69.9,5.83,1.2,8.21s.3,4.17-1.29,6.25c-3.34,4.36-9.28.79-10.35-3.48a15,15,0,0,1,.89-8.41c.91-2.28,2.74-4,5.22-3.73,1.46.17,3.27.27,4.41,1.2"/><path class="cls-5" d="M692.76,478.57c1.13,11.37-13.68,20.67-16.62,6.48-2.34-11.3,14.66-18.21,16.62-6.48"/><path class="cls-5" d="M676.11,464.42c-4.68,1.36-6.11,5.05-11.29,4.72-5-.31-8.29-5.82-4.71-10.32,8.65-10.87,23.35,2.72,16,5.6"/><path class="cls-6" d="M683.21,470.3c0,2.53-3.66,4.62-5.2,6.46s-2.86,3.06-5.46,3.31c-5.47.51-6.89-6.28-4.48-10a14.92,14.92,0,0,1,6.77-5.07c2.29-.88,4.8-.71,6.28,1.3.87,1.18,2,2.58,2.12,4.05"/><path class="cls-5" d="M600.38,581.1c11.07-2.84,22.51,10.4,8.92,15.45-10.82,4-20.22-11.75-8.92-15.45"/><path class="cls-5" d="M588.91,599.69c2.05,4.42,5.91,5.28,6.37,10.45.44,4.94-4.5,9.07-9.49,6.21-12-6.91-.84-23.49,3.12-16.66"/><path class="cls-6" d="M593.65,591.78c2.49-.43,5.12,2.92,7.17,4.16s3.46,2.37,4.1,4.91c1.33,5.32-5.17,7.75-9.17,5.93a15.1,15.1,0,0,1-6-5.93c-1.21-2.13-1.42-4.64.34-6.4,1-1,2.25-2.4,3.68-2.71"/><path class="cls-5" d="M434.25,513.82c-9.25,2.64-12.65,20.3-.7,18.5,9.51-1.44,10.44-20.46.7-18.5"/><path class="cls-5" d="M449.78,525.51c.17,5-2.35,7.69-.72,12.68,1.56,4.76,6.77,6.23,9.36,1.21,6.26-12.11-8.32-22.07-8.64-13.89"/><path class="cls-6" d="M443.28,520.47c-2,.79-2.67,5.13-3.71,7.26a9.28,9.28,0,0,0-1.15,6.47c1,5.55,6.76,4.7,9,1.11a18.13,18.13,0,0,0,2.2-8.34c.09-2.54-.71-5-2.68-5.75-1.16-.47-2.57-1.14-3.75-.75"/><path class="cls-5" d="M460,344c-4.25,8.63,6.55,23,13.23,12.94,5.32-8-8.15-21.47-13.23-12.94"/><path class="cls-5" d="M479.05,340.36c3.86,3.26,4.12,6.9,8.91,9,4.58,2,9.16-.84,7.18-6.13-4.77-12.77-21.94-8.65-16.09-2.91"/><path class="cls-6" d="M471,341.79c-.76,2,2,5.42,2.89,7.62a9.28,9.28,0,0,0,4,5.2c4.81,2.95,8-1.86,6.87-5.94a18.18,18.18,0,0,0-4.7-7.23c-1.83-1.77-4.15-2.8-6.06-1.87-1.13.55-2.57,1.14-3.07,2.28"/><path class="cls-5" d="M338.29,295.39c-9.25,2.64-12.65,20.3-.7,18.5,9.51-1.44,10.44-20.46.7-18.5"/><path class="cls-5" d="M353.82,307.09c.17,5.05-2.35,7.68-.72,12.67,1.55,4.76,6.77,6.23,9.36,1.21,6.26-12.11-8.32-22.07-8.64-13.88"/><path class="cls-6" d="M347.32,302c-2,.79-2.67,5.13-3.71,7.26a9.28,9.28,0,0,0-1.15,6.47c1,5.55,6.76,4.7,9,1.11a18.13,18.13,0,0,0,2.2-8.34c.09-2.54-.71-5-2.68-5.75-1.17-.47-2.57-1.14-3.75-.75"/><path class="cls-5" d="M541.42,622c-2.83.44-5.14.49-6.67,3.12s-1.71,5.25-1.89,8.07c-.3,4.8,2.73,7.32,7.26,6.66,4-.59,5.84-2.35,7-6.22a11.24,11.24,0,0,0-.31-7.24c-.9-2.39-2.54-4.83-5.38-4.39"/><path class="cls-5" d="M564.86,628.25c-3.75,1.07-5.54,1.94-6.77,5.85a26.9,26.9,0,0,0-1.26,7.25c-.07,3.23,5.26,4.12,7.9,3.74,4-.6,5.06-8.08,4.68-11.46-.23-2.06-1.79-6.08-4.55-5.38"/><path class="cls-7" d="M554.48,624.59c-2.13-.32-6,4.31-6.64,6.4-.75,2.57-2.18,6.23-1.22,9,1.1,3.18,8.78,3.24,10.21.14.6-1.31.43-3.07.88-4.47a13.4,13.4,0,0,0,.85-3.56c.17-3.23-.58-7.31-4.49-7.48"/><path class="cls-5" d="M431.39,422.14c-2.83.44-5.14.49-6.67,3.12s-1.71,5.25-1.89,8.07c-.3,4.8,2.73,7.32,7.26,6.66,4-.59,5.84-2.35,7-6.22a11.3,11.3,0,0,0-.31-7.24c-.9-2.39-2.54-4.83-5.38-4.39"/><path class="cls-5" d="M454.83,428.38c-3.75,1.07-5.54,1.94-6.78,5.85a27.28,27.28,0,0,0-1.25,7.25c-.07,3.23,5.26,4.12,7.9,3.74,4-.6,5.06-8.08,4.68-11.46-.23-2.06-1.79-6.08-4.55-5.38"/><path class="cls-7" d="M444.45,424.72c-2.13-.32-6,4.31-6.64,6.39-.76,2.58-2.18,6.24-1.23,9,1.11,3.18,8.79,3.24,10.22.14.6-1.31.43-3.07.88-4.47a13.4,13.4,0,0,0,.85-3.56c.17-3.23-.58-7.31-4.49-7.48"/><path class="cls-5" d="M198.65,497.7c-1.16,1.62-2.28,2.79-1.72,4.84a12.33,12.33,0,0,0,3.08,4.9c2.24,2.51,5,2.24,6.87-.34,1.67-2.27,1.7-4.05.34-6.52a7.78,7.78,0,0,0-3.75-3.39c-1.63-.73-3.64-1.11-4.82.51"/><path class="cls-5" d="M213.25,489.11c-1.31,2.4-1.76,3.71-.42,6.24a18.88,18.88,0,0,0,3,4.18c1.57,1.62,4.63-.59,5.73-2.09,1.69-2.3-1.53-6.48-3.39-7.95-1.14-.89-3.91-2.09-4.91-.38"/><path class="cls-7" d="M206.34,492.48c-1.2.9-.81,5.11-.08,6.43.91,1.64,2,4.15,3.86,5,2.12,1,5.92-2.78,5.08-5-.36-.94-1.31-1.72-1.79-2.63a9.87,9.87,0,0,0-1.35-2.17c-1.53-1.67-3.92-3.3-5.92-1.44"/><path class="cls-5" d="M156.36,384.29c-1.92,1.74-3.65,2.89-3.41,5.85s1.51,5.27,2.88,7.73c2.33,4.2,6,4.88,9.08,2.13,2.73-2.41,3.19-4.79,2-8.61a12.39,12.39,0,0,0-4.11-6c-2-1.59-4.51-2.86-6.43-1.13"/><path class="cls-5" d="M177.53,378.28c-2.29,2.71-3.18,4.31-2,8.2a29.69,29.69,0,0,0,2.92,6.73c1.68,2.77,6.21,1,8-.64,2.76-2.45-.47-9.26-2.56-11.93-1.28-1.63-4.62-4.28-6.34-2.36"/><path class="cls-7" d="M167.67,380.19c-1.79.75-2.28,6.54-1.63,8.6.8,2.54,1.67,6.32,3.87,8.17,2.54,2.16,8.42-1.49,7.84-4.8-.24-1.4-1.3-2.8-1.72-4.2a14.5,14.5,0,0,0-1.26-3.42c-1.59-2.81-4.35-5.89-7.41-4.15"/><path class="cls-5" d="M402.36,261.63c-1.91,1.74-3.64,2.88-3.4,5.85s1.51,5.26,2.88,7.73c2.33,4.2,6,4.87,9.08,2.13,2.72-2.42,3.19-4.79,2-8.62a12.43,12.43,0,0,0-4.11-6c-2-1.59-4.51-2.86-6.44-1.12"/><path class="cls-5" d="M423.54,255.61c-2.29,2.72-3.19,4.31-2,8.21a30.08,30.08,0,0,0,2.92,6.73c1.67,2.77,6.21,1,8-.65,2.76-2.45-.47-9.26-2.56-11.93-1.28-1.63-4.62-4.27-6.34-2.36"/><path class="cls-7" d="M413.68,257.53c-1.79.75-2.28,6.54-1.63,8.59.8,2.55,1.67,6.32,3.87,8.18,2.54,2.15,8.41-1.5,7.84-4.8-.24-1.4-1.31-2.8-1.72-4.2a14.34,14.34,0,0,0-1.26-3.42c-1.6-2.81-4.35-5.9-7.41-4.16"/><path class="cls-8" d="M643.54,218.9a5,5,0,0,0-5.34,2.51c-1.91,3.31,1,8.4,1,8.4s3.56,3.39,8.66,0C647.87,229.81,653,221,643.54,218.9Z"/><path class="cls-8" d="M587.83,646.36a5,5,0,0,0-5.34,2.51c-1.91,3.31,1,8.4,1,8.4s3.56,3.39,8.66,0C592.16,657.27,597.25,648.43,587.83,646.36Z"/><path class="cls-8" d="M567.12,182.11c-2.85-.59-6.66-.44-8.92-2.33-3.21-2.67-.18-3,1.42-5.67a8,8,0,0,0,.64-3.46,8.78,8.78,0,0,0-1.43-4.24c-1.71-2.3-5-3.5-9.68-1.64-9.66,3.8-2.11,9.22.76,13.89,3.55,5.75.2,12.6,5.86,18.05,5.25,5,14.53,4.47,17.86-1.74S574.89,183.71,567.12,182.11Z"/><path class="cls-8" d="M726.42,545.86c-2.86-.59-6.67-.45-8.93-2.33-3.21-2.67-.18-3,1.42-5.68a7.85,7.85,0,0,0,.64-3.45,8.86,8.86,0,0,0-1.43-4.25c-1.71-2.29-5-3.49-9.67-1.63-9.67,3.8-2.12,9.22.76,13.89,3.54,5.75.19,12.59,5.86,18.05,5.24,5,14.52,4.47,17.85-1.75S734.18,547.45,726.42,545.86Z"/><path class="cls-8" d="M749.56,367.84a6.31,6.31,0,0,0-5.4,3,4.84,4.84,0,0,0-.81,4.07,9.8,9.8,0,0,0,.82,3.22c1.49,2.75-12.28,6.05-9.89,13.17,1,2.83,4.71,5.6,7.51,7,3.48,1.79,6.52.2,9.09-2.33,3.78-3.72,3.44-6.64,1-10.39-1-1.5-2-3.53-1.3-5.23.8-2,3.6-2.85,4.88-4.51C758.19,372.33,754.29,367.52,749.56,367.84Z"/><path class="cls-8" d="M674.2,284.66a4,4,0,0,0-3.35,2,3.09,3.09,0,0,0-.42,2.61,6.55,6.55,0,0,0,.61,2c1,1.71-7.64,4.17-5.93,8.63.67,1.77,3.13,3.43,4.95,4.27,2.26,1,4.15,0,5.71-1.71,2.31-2.47,2-4.32.39-6.63-.65-.93-1.35-2.19-1-3.29.45-1.28,2.22-1.91,3-3C679.8,287.29,677.2,284.33,674.2,284.66Z"/><path class="cls-8" d="M678.33,621a4,4,0,0,0-3.35,2,3.11,3.11,0,0,0-.41,2.61,6.05,6.05,0,0,0,.61,2c1,1.71-7.64,4.17-5.94,8.63.68,1.77,3.14,3.44,5,4.28,2.26,1,4.15,0,5.72-1.72,2.31-2.47,2-4.31.39-6.63-.65-.93-1.36-2.19-1-3.29.45-1.28,2.21-1.9,3-3C683.94,623.61,681.33,620.65,678.33,621Z"/><path class="cls-9" d="M389.85,205.32c10,0,20.16-1.7,29.94-.29,10.88,1.58,21.77,6.13,32.47,8.77,12.11,3,17.83,4.83,27.08-4.38a113.27,113.27,0,0,0,13.8-17.5c4.47-6.72,4.79-11.73,13.44-11.9,4.34-.08,8.94,5,13.49,4.76s6.11-4.72,9.77-5.78c9.87-2.86,6.91,3.92,13.08,7.12,6.92,3.57,15.32.15,20-4.13"/><path class="cls-9" d="M293.6,191.71c-2.11,11.38-.92,28.94,15.76,26.6,11.34-1.6,18.17-13.34,29.7-14.1,8.55-.56,8.81,4.36,14.57,7.18,5.45,2.68,23.47,6.28,29.45,2,3.64-2.59,2.2-7.34,5-9.79,3.27-2.83,8.48-2.05,12.13-5,11.17-8.94,5.51-31.26,23.53-26.23,9.53,2.67,9,14,18.73,12.35,5.39-.9,9.51-10.51,15.41-10.37,7.16.17,5.86,7.7,11.45,10.32,15.38,7.2,16.25-21.29,27.44-26.08"/><path class="cls-9" d="M530.81,174.21c-.64,7.81-3.51,13.8,1.89,21.32,3.56,5,11.67,7,14.59,12,3,5.15-.9,12,1,17.31,8.51,23.51,28.57-4.75,40.67-1.3,12.53,3.58,14.41,17.67,25.41,13,5.6-2.4,7.61-5.34,14.6-6.85,7.23-1.57,11.88-4.53,18.48-7.78"/><path class="cls-9" d="M517.2,187.82c-.3,1-.15,1.84-.83,2.67,6.09,9.23,25.65-5,34.9-1,4.48,1.94,6.21,7.47,11.61,9.06,5,1.45,12.21,0,17.51,0"/><path class="cls-9" d="M561.92,180c9-6,12.45-6.2,11.88-15.55-.38-6.25-4.72-11.91.76-17.5"/><path class="cls-9" d="M557.06,182c9.42-.16,16,5.66,26.57,4.59,11.58-1.16,16,3.09,26.9,7.07"/><path class="cls-9" d="M616.37,236.43c15.55-2.35,11.91,1,16.76,12.49,4.08,9.63,12.45,7.15,18.06,12.94s1.14,14.83,3.09,21.23c1.73,5.69,11.72,14.29,17.5,10.7"/><path class="cls-9" d="M549.28,251c2.14,12.29,17.57,11.69,22.15,21.54,1.78,3.85-.54,9.65,1.88,13.48,3.65,5.8,12.27,6.71,18.08,9.78,3.71,2,7.12,6.39,10.4,7.77,3.63,1.53,9.6-.9,12.75.81,6.51,3.55,2.39,16,11.55,17.59"/><path class="cls-9" d="M689.28,336.56c21.43,0,35.83,9.2,57.36,5.09,11.84-2.27,26.82-.29,38-4.17,6.55-2.26,10.67-13.16,17.39-12.58"/><path class="cls-9" d="M701.92,338.51c9.79,9.6,28.1,1.71,37.94,7.93,7.13,4.51,9.77,17.16,13.61,24.15a154.1,154.1,0,0,0,13,19.44c7.15,9.17,12.71,8.59,23.88,11.67"/><path class="cls-9" d="M666,325.87c4.9,2.86,10.33-1,15.77-1,8.83,0,17,5.67,26,4.89,11.93-1,17.28-7.31,21.41-16.32,2.73-5.95,2-9.53,10.55-9.82a12,12,0,0,0,1.12,2.8"/><path class="cls-9" d="M656.23,264.62c.1,10.92-.15,15.42,10.55,20.37,10.49,4.85,26.69,5.21,31.29,18.28,3.44,9.81-6.12,22.17-1.83,31.88,1.3,3,9.87,11.18,12.21,12.33,8.79,4.31,11.59-2.59,19.74-5.8,8.12,11.33,9.55,21.14,1.94,31.88,5.63,5,13.3,6.67,19.43,11-6.84,16.22-11.32,16.31,2.91,28.83"/><path class="cls-9" d="M566.78,257.82c3.13,11.52,4.63,13,19.21,14.87,12.81,1.65,20.47-2.11,32.14-7.83,6.83-3.34,19.29-9.83,27.23-6,3.07,1.48,5.93,9.41,9.2,11.8a31.31,31.31,0,0,0,18.17,5.52c10.3-.11,19.38-8.33,29.19.12"/><path class="cls-9" d="M540.53,244.21c9.79,22.87,31.28,4.52,47.66,13.61,6.76,3.75,22.56,24.9,26,33,3.65,8.5-2.09,15.31,6.72,21.45,10.21,7.12,11.44-1.4,19.51-5.14,12.4-5.75,26.83,13.72,36.19,2.2"/><path class="cls-9" d="M728.17,472.67c-4.72,2.71-14.35,5.93-16.89,11.72-2.61,5.95,2.83,14.23,3.51,19.56.83,6.52.5,8.92,2.93,15.49,1.8,4.86,4.86,6.66,3.64,12.53-1.43,6.85-9.38,8.69-10.93,14.78-2.81,11,11.1,8.18,19.53,8.7a15.88,15.88,0,0,1,.15,4.72"/><path class="cls-9" d="M707.75,548.5c-1.12,10.08,9.87,17.67,11.72,27.89,1.63,9-.86,14.35,8,19,5.75,3,15-1.58,17.18,5.6"/><path class="cls-9" d="M727.19,531c-3.57,16.1-24,12.11-26.24,31.87-.94,8.09,1.86,16.15,1,24.18-1.33,12.88-8,15-16.93,22.53-8.3,7-11.92,17.69-3.55,26.42"/><path class="cls-9" d="M585.26,652.52C598.51,651,606.88,637,621.4,637c8.34,0,16,5.22,24.06,5,11-.34,20.12-9.93,30.35-13,9-2.68,15.69,5.28,22.22,2.21"/><path class="cls-9" d="M630,619.47c12.24,4.35,27.08,1.57,39.8,2.07,5.49,28.7,35.65-15.1,47.86-22.49,11.08-6.7,22.29-17.26,35.84-10.83,8.67,4.11,6,6.37,14.86,3.93,7-1.93,15.09-9.2,16.21-16.43"/><path class="cls-9" d="M561,675.86c31.69-.39,28-55.83,66.38-44,10,3.09,8.48,3.86,14.12-8.77,4.78-10.71,9.84-11.89,22.34-14.57s15.92,1.57,26.85,4.88c14.21,4.32,24-2.74,35.58-10.45"/><path class="cls-9" d="M713.09,529.12c.46,12-23.1,18.26-18.32,36,3.12,11.57,17.25,11.36,18.68,21.94,2.14,15.92-11.29,27.62-23.77,33.1-17,7.44-13,12.29-11.91,30.17.69,10.92-3.08,11-12.88,15"/><path class="cls-9" d="M214.85,193.65c3.72,10.89,3.36,22.82,7.83,34.07,4.33,10.9,4.71,17.34-1.29,28.22-3.2,5.79-6.55,8.39-6.53,15.75,0,6,3.45,10.25.26,16.05-4.88,8.84-17.36,3-22.41,10.15-3.25,4.59,1.76,8.26.83,12.45-1.19,5.33-8,9.28-11.74,12.61"/><path class="cls-9" d="M211,207.26c3.64,9.81,3.32,20.66.76,31.16-1,4.25-3.59,7.06-2.62,11.72,2.59,12.37,22.91,13.31,23.38,26.49.34,9.61-12.38,17.61-11.89,26.95s13.59,16.57,19.77,21.5c7,5.58,16.82,21.4,24.07,24.12"/><path class="cls-9" d="M234.3,262.68c7.84,9.55,1.22,20.92,6.9,29.87,6.37,10,19.48,3.87,27.93,1.35.56,2.16,2,4.5,2.11,6.69"/><path class="cls-9" d="M178.88,286c-1.81,9.18-11,15.47-12.66,24.5-1.86,10.07,4.73,18.47,6.9,27.78,1.86,8-3.58,18.75-.18,25.54,3.22,6.45,17.66,11.19,24.41,11.62"/><path class="cls-9" d="M131.25,374.48c-3.13,8.6-9.42,16.43-8.83,27.87,1.08,20.7,5.11,33.93-14.94,46.81-17,10.92-45.9,7.52-37.48,34.2"/><path class="cls-9" d="M126.38,444.48c-.84,12.66,1.26,24.48,0,37.16-1.57,15.94,7.12,18.32,13.66,31,6.19,12,7.47,26,6.8,39.25-.63,12.69.68,23,16.48,24.79"/><path class="cls-9" d="M126.38,490.17c0,11.43,1.6,21.68,3.89,32.82,1.84,9-.75,31.07,5.6,38,7.7,8.39,14.51-4.26,23-5.54,7.89-1.19,8.68,3.57,13.44,9.81a67.8,67.8,0,0,0,15.5,15.06c11.55,8.45,9.5,11.59,8.35,26.1-.9,11.42-2,16.27,10.49,18.69,5,.95,12.31.8,17-.78"/><path class="cls-9" d="M124.44,488.23c-4.77,17.56-4.44,41,8.76,57.45,8,9.94,11.44,4.73,22.35,4,23.61-1.65,3.38,32.61,17.54,43.65,4.41-3.08,22.14-18.89,27.39-17.51,4.14,1.1,6.62,8.31,7.22,11.9,1.21,7.15-4.46,9.43-4.42,14.11.07,8.54,8,9.72,13.31,17.37C223,628.32,228,635.7,241.1,637.94"/><path class="cls-9" d="M121.52,492.12c1.46,18.82-22.81,24.41-32.07,36-15.61,19.48,17.32,55.14-4.87,74.85"/><path class="cls-9" d="M137.08,372.54c-5,10.38-11.24,29.45-21.32,35.23-11.78,6.76-22.29,9.48-28.26,24.07"/><path class="cls-9" d="M123.47,517.39c-.36,11-5.15,21.13-3.74,32.62,2.15,17.54,13.37,32.8,15.25,50.33,2.87,26.78-22.61,50.47-7.62,76.49"/><path class="cls-9" d="M134.16,563.08c12.52,17.31,18.35,37.25,35.75,51.32,8.6,7,16.8,10.42,27.66,8,6.61-1.5,23.61-15.45,29.94-12.75,12.88,5.52,9.13,33.93,17.18,44.44,4.88,6.37,12.06,7.58,18.18,11.65,4.41,2.94,6,7.22,10.31,10.17"/><path class="cls-9" d="M206.1,224.76c-1.19,6.72-6,12.07-9.19,18.05-8.49,15.74-11.19,27.77-7.55,44.46,2.83,13,1.27,18.62-3.48,30.94-4,10.38-2.52,19.34-2.14,29.71.35,9.65-.94,9.72,6.25,15.14,9.15,6.9,9.35,3,9.31,16.59,0,8.46-5.75,38.13,5.83,40.52"/><path class="cls-9" d="M128.33,442.53c1.25,7.24,2.89,17.32,9.11,21.4,4.15,2.72,10.35.08,14.86,3.49,5.08,3.84,6.49,13.9,7.94,19.59,1.92,7.59,1.12,17.06,6.15,23.4,4.8,6.06,14.71,9.36,21.24,12.82"/><path class="cls-9" d="M138.05,375.45c-.24,5.84,6.78,9.22,7.6,15.82,1.72,13.83-7.46,11.55,8,21.39,6.43,4.1,14.38,7.18,12.42,16.07-.66,2.94-6.1,5.33-6.4,10.13-.45,7.32,7.46,12.88,4.47,20.23-4.16,10.24-12.86,5.6-11.31,18.5s8.29,19.24,3.51,32c-3.43,9.15-11,18.13-5.63,28.24"/><path class="cls-2" d="M207.48,110a47.79,47.79,0,0,1,4.58,14.68,109.7,109.7,0,0,1,1.1,12.14l.39,10.49c0,.83.08,1.59.14,2.35s.11,1.47.17,2.18.16,1.32.23,2c0,.27.11.78.18,1.22l.21,1.34c1.13,7.17,2.15,14.56,2.69,22.21a140.34,140.34,0,0,1-.16,23.36c-.17,2-.43,3.94-.68,5.88s-.53,3.67-.85,5.49c-.58,3.66-1.28,7.3-2,10.93q-2.25,10.88-5.35,21.53c-2.05,7.1-4.41,14.09-7,21-1.29,3.38-2.72,7-4.27,10.44-.78,1.73-1.55,3.46-2.39,5.14s-1.66,3.39-2.54,5c-7,13.29-15.19,25.31-23.09,37-3.93,5.82-7.87,11.63-11.43,17.36A98.74,98.74,0,0,0,149,359.1a196.89,196.89,0,0,0-6.11,19.24c-1.72,6.59-3.16,13.3-4.41,20.06s-2.26,13.59-3.07,20.44-1.45,13.72-1.76,20.56c-.63,13.75-.24,27.88-.72,42.27-.35,14.88-3.62,28.71-2.09,41.41.12.79.2,1.58.33,2.36l.45,2.32.58,2.26c.19.76.5,1.62.74,2.43l1.57,4.91c.51,1.64,1.15,3.26,1.72,4.89,2.3,6.51,5,13,7.75,19.4l8.47,19.44c1.42,3.24,2.74,6.58,4.11,9.87l1.93,5,1,2.51.88,2.56,1.75,5.1,1.53,5.19.76,2.6.63,2.64,1.25,5.28.94,5.35.46,2.67c.15.89.2,1.8.31,2.7l.56,5.4c.18,1.8.15,3.62.24,5.43l.08,2.71,0,1.35c0,.45,0,.9,0,1.36l-.23,5.41c-.05.9-.07,1.8-.14,2.7l-.31,2.75c-.06.45-.1.91-.17,1.36l-.25,1.37c-.18.9-.32,1.81-.53,2.71a56.29,56.29,0,0,1-3.58,10.45,62.11,62.11,0,0,1-5.58,9.42c-4.24,5.9-9.24,11-14.17,16.08s-9.88,10.1-14.71,15.23-9.57,10.35-14,15.81c-2.22,2.73-4.39,5.51-6.33,8.45a37,37,0,0,0-2.63,4.57c-.71,1.56-1.47,3.31-1,5.05a4.85,4.85,0,0,1-.07-2.62A17,17,0,0,1,106,745a38.44,38.44,0,0,1,2.46-4.72,106.06,106.06,0,0,1,6-8.78c4.23-5.68,8.76-11.12,13.37-16.49s9.35-10.62,14.06-15.89A139.55,139.55,0,0,0,155,682.88a58.2,58.2,0,0,0,4.82-9,52.57,52.57,0,0,0,2.85-9.7c.15-.83.24-1.67.37-2.51l.18-1.25c0-.42.06-.84.09-1.26l.18-2.53c0-.86,0-1.73,0-2.59v-5.18c0-.43,0-.86,0-1.3l-.1-1.29-.19-2.57c-.16-1.72-.2-3.44-.45-5.15l-.76-5.11c-.14-.85-.23-1.7-.41-2.55l-.55-2.52-1.12-5-1.41-5-.71-2.48-.84-2.46-1.68-4.9-1.9-4.84-.95-2.41-1-2.4-2.08-4.79c-1.49-3.16-2.91-6.34-4.47-9.5l-9.31-19c-3.06-6.43-6.13-12.89-8.84-19.59-.67-1.67-1.41-3.31-2-5l-1.88-5.1c-.31-.87-.64-1.66-.93-2.6l-.86-2.83-.68-2.86c-.21-1-.35-1.91-.53-2.87a103.91,103.91,0,0,1-.69-22.39l.6-10.56c.09-1.73.15-3.43.19-5.11l0-2.51,0-2.59c-.15-13.86-1.17-28-1.15-42.47,0-7.28.36-14.53.88-21.73s1.27-14.4,2.27-21.58,2.22-14.36,3.75-21.52a214.13,214.13,0,0,1,5.78-21.41,117.42,117.42,0,0,1,9.09-21.12c3.62-6.43,7.35-12.49,11.06-18.54,7.43-12.06,14.65-23.77,20.27-35.8.72-1.5,1.38-3,2-4.52s1.27-3,1.88-4.55c1.21-3.06,2.25-6.06,3.34-9.33,2.09-6.44,4-12.94,5.55-19.49s2.92-13.16,4-19.79c.52-3.33,1-6.65,1.39-10,.21-1.66.36-3.33.54-5s.27-3.11.33-4.67c.66-12.44-1.28-25.21-4-38.68l-.26-1.27c-.09-.43-.16-.79-.27-1.4-.19-1.09-.42-2.25-.54-3.26s-.3-2.11-.4-3.08-.22-2-.3-2.94l-.87-10.66a78.12,78.12,0,0,0-1.19-8.9,17.7,17.7,0,0,0-1.82-5.43Z"/><path class="cls-4" d="M561.51,528.57c2.09-3,5.6-2.54,10.13-8.29,10.67-13.53,9.32-27.32,26.07-27.41,9.76-.06,13.09-4.15,22.52-8.61s7.82,2.4,17.72,6.92c7,3.19,13.31-1,19.88,6,4,4.3,11,15.68,13.54,20.44,9.13,17.17,1.68,14.53-6.8,23.25-6.58,6.75-3.15,9.67-11.53,9.05s-13.69-7.57-22.45-6.26c-10.34,1.54-20.19-.63-29.17,0-11.21.78-16.42,3.84-27.32.46-2.54-.78-23.29-2.3-15-13.23.54-.63,1.76-2.6,2.37-2.35"/><path class="cls-5" d="M526.82,376.65c-6.61-.68-11,7.71-9,13.29,1.79,5,10.37,9.84,15.5,8.18,4.3-1.4,6-7.21,5.42-11.43-.68-5.21-7.44-9.51-12.57-9.72"/><path class="cls-5" d="M599.91,528.38c3.52-4.28-.28-11.22-5.09-12.4-4.29-1.05-11.64,2.68-12.85,7-1,3.63,2.26,7.47,5.45,9,3.94,1.94,10-.78,12.56-4.25"/><path class="cls-5" d="M248.2,492c-4.47-.46-7.45,5.22-6.09,9,1.21,3.37,7,6.67,10.5,5.54,2.91-.94,4-4.88,3.67-7.74-.46-3.53-5-6.44-8.51-6.58"/><path class="cls-5" d="M332.1,345.47c-6.6-.68-11,7.71-9,13.29,1.79,5,10.37,9.84,15.51,8.18,4.29-1.4,6-7.21,5.41-11.43-.68-5.21-7.43-9.5-12.56-9.72"/><path class="cls-10" d="M344.92,349.28a4.32,4.32,0,0,1,4.51,3,4.83,4.83,0,0,1,0,3.39,3.48,3.48,0,0,1-2.06,2.13,2.69,2.69,0,0,1-.62.16,4.32,4.32,0,0,1-4.51-3,4.89,4.89,0,0,1,0-3.39,3.52,3.52,0,0,1,2.07-2.13A3.35,3.35,0,0,1,344.92,349.28Z"/><path class="cls-10" d="M335.22,344.81a4.32,4.32,0,0,1,5.39-.71,4.83,4.83,0,0,1,2.26,2.53,3.54,3.54,0,0,1-.13,3,3.34,3.34,0,0,1-.37.53,4.31,4.31,0,0,1-5.38.71,4.87,4.87,0,0,1-2.27-2.52,3.53,3.53,0,0,1,.14-3A2.75,2.75,0,0,1,335.22,344.81Z"/><path class="cls-10" d="M326.8,340.15a4.32,4.32,0,0,1,5.43-.21,4.83,4.83,0,0,1,2,2.72,3.53,3.53,0,0,1-.41,2.94,4.61,4.61,0,0,1-.4.5,4.32,4.32,0,0,1-5.43.2,4.81,4.81,0,0,1-2-2.71,3.53,3.53,0,0,1,.4-2.94A3.31,3.31,0,0,1,326.8,340.15Z"/><path class="cls-10" d="M322.21,331.52a4.33,4.33,0,0,1,5.11,1.87,4.85,4.85,0,0,1,.85,3.28,3.52,3.52,0,0,1-1.49,2.56,2.63,2.63,0,0,1-.57.31,4.33,4.33,0,0,1-5.11-1.86,4.85,4.85,0,0,1-.85-3.28,3.56,3.56,0,0,1,1.49-2.57A3.91,3.91,0,0,1,322.21,331.52Z"/><path class="cls-10" d="M526.92,573.12a4.32,4.32,0,0,1,4.51,3,4.83,4.83,0,0,1,0,3.39,3.51,3.51,0,0,1-2.06,2.13,3.32,3.32,0,0,1-.62.16,4.32,4.32,0,0,1-4.51-3,4.89,4.89,0,0,1,0-3.39,3.5,3.5,0,0,1,2.07-2.13A2.72,2.72,0,0,1,526.92,573.12Z"/><path class="cls-10" d="M517.22,568.64a4.32,4.32,0,0,1,5.39-.7,4.91,4.91,0,0,1,2.27,2.52,3.6,3.6,0,0,1-.14,3,3.34,3.34,0,0,1-.37.53,4.31,4.31,0,0,1-5.38.71,4.85,4.85,0,0,1-2.27-2.53,3.51,3.51,0,0,1,.14-3A3.17,3.17,0,0,1,517.22,568.64Z"/><path class="cls-10" d="M508.8,564a4.32,4.32,0,0,1,5.43-.21,4.85,4.85,0,0,1,2,2.71,3.53,3.53,0,0,1-.41,2.94,3.25,3.25,0,0,1-.4.5,4.32,4.32,0,0,1-5.43.21,4.85,4.85,0,0,1-2-2.71,3.53,3.53,0,0,1,.4-2.94A3.31,3.31,0,0,1,508.8,564Z"/><path class="cls-10" d="M504.21,555.36a4.32,4.32,0,0,1,5.11,1.87,4.85,4.85,0,0,1,.85,3.28,3.52,3.52,0,0,1-1.49,2.56,3.15,3.15,0,0,1-.57.31,4.33,4.33,0,0,1-5.11-1.86,4.86,4.86,0,0,1-.85-3.28,3.56,3.56,0,0,1,1.49-2.57A3.91,3.91,0,0,1,504.21,555.36Z"/><path class="cls-10" d="M352,362.71a4.34,4.34,0,0,1,5.38-.83,4.84,4.84,0,0,1,2.32,2.47,3.51,3.51,0,0,1-.06,3,3.94,3.94,0,0,1-.35.55,4.33,4.33,0,0,1-5.37.83,4.86,4.86,0,0,1-2.33-2.47,3.51,3.51,0,0,1,.07-3A3.14,3.14,0,0,1,352,362.71Z"/><path class="cls-10" d="M341.88,366a4.32,4.32,0,0,1,3.48-4.17,4.88,4.88,0,0,1,3.38.31,3.52,3.52,0,0,1,1.91,2.27,3.41,3.41,0,0,1,.1.64,4.32,4.32,0,0,1-3.48,4.17,4.88,4.88,0,0,1-3.38-.31,3.54,3.54,0,0,1-1.91-2.27A3.41,3.41,0,0,1,341.88,366Z"/><path class="cls-10" d="M332.54,368.3a4.32,4.32,0,0,1,3.85-3.84,4.88,4.88,0,0,1,3.33.62,3.57,3.57,0,0,1,1.7,2.44,4.58,4.58,0,0,1,0,.64,4.32,4.32,0,0,1-3.85,3.84,4.87,4.87,0,0,1-3.33-.62,3.49,3.49,0,0,1-1.7-2.43A2.81,2.81,0,0,1,332.54,368.3Z"/><path class="cls-10" d="M323.31,365.09a4.33,4.33,0,0,1,5-2.1,4.82,4.82,0,0,1,2.85,1.83,3.59,3.59,0,0,1,.65,2.9,3.39,3.39,0,0,1-.21.61,4.32,4.32,0,0,1-5,2.1,4.88,4.88,0,0,1-2.85-1.84,3.49,3.49,0,0,1-.65-2.89A4,4,0,0,1,323.31,365.09Z"/><path class="cls-3" d="M320.85,346.41a4.62,4.62,0,0,1,4.27,4.9h0a8.21,8.21,0,0,1-.61,2.34,10.43,10.43,0,0,0-.39,1.2,11.2,11.2,0,0,0-.3,1.89,8.26,8.26,0,0,0,0,1.41,12.75,12.75,0,0,0,.25,1.36,8.87,8.87,0,0,1,.3,2.55,4.41,4.41,0,0,1-.53,1.82,4.65,4.65,0,0,1-8.72-2.54,4.1,4.1,0,0,1,.06-.49,11.52,11.52,0,0,1,.66-2.13,9.91,9.91,0,0,0,.59-2c0-.13,0-.26,0-.4a12.18,12.18,0,0,0-.29-3.05c-.09-.5-.18-1-.25-1.53a5.25,5.25,0,0,1,0-1v0a4.81,4.81,0,0,1,.83-2.36S317.74,346.38,320.85,346.41Z"/><path class="cls-11" d="M317.64,349a1.22,1.22,0,0,0-.12.19,3.58,3.58,0,0,0-.49,1.57h0a4.19,4.19,0,0,0,0,.79c.06.5.15,1,.24,1.46a12.09,12.09,0,0,1,.26,3.81,10.53,10.53,0,0,1-.66,2.26,10.54,10.54,0,0,0-.6,1.93,3.51,3.51,0,0,0,.7,2.76,3.52,3.52,0,0,0,5.88-.48,4.81,4.81,0,0,0,.12-3.58,12.79,12.79,0,0,1-.27-1.48,11.12,11.12,0,0,1,.31-3.68,11.48,11.48,0,0,1,.43-1.33,7.43,7.43,0,0,0,.54-2,3.39,3.39,0,0,0-.85-2.5,3.44,3.44,0,0,0-2.4-1.21h-.17A3.47,3.47,0,0,0,317.64,349Z"/><path class="cls-12" d="M499.24,592.24a4.65,4.65,0,0,1-6.33,1.5h0a8,8,0,0,1-1.79-1.62,11.17,11.17,0,0,0-.88-.92,11.65,11.65,0,0,0-1.53-1.14,8.89,8.89,0,0,0-1.26-.65,12.67,12.67,0,0,0-1.31-.41,8.64,8.64,0,0,1-2.4-.93,4.29,4.29,0,0,1-1.36-1.32,4.65,4.65,0,0,1,6.32-6.52c.13.08.27.18.39.27a12.5,12.5,0,0,1,1.59,1.58,8.91,8.91,0,0,0,1.49,1.46,4,4,0,0,0,.34.23,12.3,12.3,0,0,0,2.84,1.17c.47.15,1,.3,1.46.49a4.78,4.78,0,0,1,.88.43l0,0a4.69,4.69,0,0,1,1.69,1.83S500.71,589.5,499.24,592.24Z"/><path class="cls-11" d="M498.41,588.18c0-.07-.07-.14-.11-.2a3.57,3.57,0,0,0-1.16-1.16h0a3.13,3.13,0,0,0-.71-.35c-.47-.18-.95-.33-1.41-.48a11.84,11.84,0,0,1-3.48-1.54,9.74,9.74,0,0,1-1.69-1.64,11.36,11.36,0,0,0-1.43-1.43,3.55,3.55,0,0,0-5.15.93,3.57,3.57,0,0,0,.06,3.82,4.82,4.82,0,0,0,3.12,1.78,14,14,0,0,1,1.43.45,11,11,0,0,1,3.1,2,11.64,11.64,0,0,1,1,1,7.43,7.43,0,0,0,1.54,1.42,3.44,3.44,0,0,0,2.61.42,3.51,3.51,0,0,0,2.19-1.56l.09-.15A3.47,3.47,0,0,0,498.41,588.18Z"/><path class="cls-13" d="M472.07,611.55a7.4,7.4,0,0,1-1.13,2.88,6.17,6.17,0,0,1-3.46,2.47c-1.91.58-3.85,1.05-5.9,1.6.22-.75.38-1.4.59-2a9.82,9.82,0,0,1,4-5.39.86.86,0,0,1,.78-.16A18,18,0,0,0,472.07,611.55Z"/><path class="cls-13" d="M481,610.27a16.11,16.11,0,0,1-6.1-.54,9.87,9.87,0,0,1-5.31-4.13c-.29-.43-.55-.89-.82-1.33-.07-.13-.13-.26-.21-.44,1.73-.05,3.41-.17,5.08-.11.56,0,1.15.17,1.72.25.09,0,.19.18.24.29a13.47,13.47,0,0,0,1.93,3.27,9.9,9.9,0,0,0,3.06,2.51C480.74,610.09,480.84,610.16,481,610.27Z"/><path class="cls-13" d="M444.94,593.7l5.55,2a.58.58,0,0,1,.32.35,11.85,11.85,0,0,0,2.58,5.85c-.32.05-.6.07-.87.14-.59.15-1.17.33-1.76.47a.73.73,0,0,1-.5-.07,10,10,0,0,1-5.08-7.06c-.1-.48-.17-1-.26-1.46A1.43,1.43,0,0,1,444.94,593.7Z"/><path class="cls-13" d="M445.29,612.12c1.17-2.91,2.87-5.25,5.82-6.47.54-.22,1.1-.39,1.66-.56a.55.55,0,0,1,.38,0c.79.45,1.58.92,2.33,1.36-.49.44-1.07.91-1.58,1.44a11.55,11.55,0,0,0-2.23,3.38.6.6,0,0,1-.55.4l-5,.38Z"/><path class="cls-13" d="M454.64,598.17l2.19-.46c1-.21,2.07-.4,3.11-.62a.56.56,0,0,1,.68.33,11.08,11.08,0,0,0,4.94,4.66l.62.25a4.59,4.59,0,0,1,.6.27,12.27,12.27,0,0,1-6.77-.19A11.85,11.85,0,0,1,454.64,598.17Z"/><path class="cls-13" d="M468.11,605.19a11.85,11.85,0,0,0-5,5.75.73.73,0,0,1-.71.54c-1.57.07-3.13.19-4.7.29a1.1,1.1,0,0,1-.24,0c.37-.74.69-1.45,1.07-2.12a9.67,9.67,0,0,1,5.33-4.55,1.94,1.94,0,0,1,.54-.05l3.24.16A3.2,3.2,0,0,0,468.11,605.19Z"/><path class="cls-13" d="M458.2,614.67a11.54,11.54,0,0,0-4,4.92.55.55,0,0,1-.5.36c-1.3.08-2.6.18-3.9.27l-1.42.08a1.89,1.89,0,0,1,.1-.31,12.18,12.18,0,0,1,3-4.48c.29-.26.62-.46.9-.73.48-.47,1-.28,1.53-.17a13,13,0,0,0,3.94.08Z"/><path class="cls-13" d="M473.4,614.11l3.26,1.09c.6.2,1.19.43,1.79.63a.63.63,0,0,1,.44.56,12,12,0,0,0,1.69,4.55c.25.38.54.74.84,1.17l-1.14-.4a13.34,13.34,0,0,0-3.65-.71.77.77,0,0,1-.47-.22,10.21,10.21,0,0,1-2.47-5C473.58,615.24,473.5,614.72,473.4,614.11Z"/><path class="cls-13" d="M449.66,583.26c1.08.36,2.17.7,3.25,1.07a.49.49,0,0,1,.25.31c.21.77.34,1.55.59,2.3s.6,1.44.9,2.15c-.7.23-1.44.48-2.19.69-.11,0-.3-.11-.4-.23a8.46,8.46,0,0,1-1.68-3c-.33-1.07-.57-2.17-.85-3.26Z"/><path class="cls-13" d="M438.35,603.69l4.53-2.26a.34.34,0,0,1,.31.05c.57.59,1.12,1.19,1.68,1.79-.55.21-1.14.37-1.68.64-.74.38-1.43.85-2.15,1.27a.55.55,0,0,1-.41.05c-.78-.46-1.55-.94-2.32-1.42A.56.56,0,0,1,438.35,603.69Z"/><path class="cls-13" d="M242.86,527.27c1.71-3.19,4.08-5.42,7.71-6a18.15,18.15,0,0,1,5.36-.06c-.11.31-.2.61-.31.89a10.89,10.89,0,0,1-2.18,3.6,6,6,0,0,1-3.88,1.78A47,47,0,0,1,242.86,527.27Z"/><path class="cls-13" d="M266.17,535.38c-1-.22-1.88-.4-2.78-.64a12.31,12.31,0,0,1-4.5-2.18,10.65,10.65,0,0,1-3.46-5.46,1.5,1.5,0,0,1-.07-.27,2.86,2.86,0,0,1,2-.35,35.06,35.06,0,0,1,4.39,1.17,6.24,6.24,0,0,1,3.78,4.15A13.28,13.28,0,0,1,266.17,535.38Z"/><path class="cls-13" d="M271.21,517.52a10.77,10.77,0,0,0-3.26,1.21,12.44,12.44,0,0,0-3.52,3.18.65.65,0,0,1-.74.3,57.87,57.87,0,0,1-6.05-1.72s0,0-.1-.11c.53-.49,1-1,1.57-1.46a10,10,0,0,1,4.91-2.36,10.12,10.12,0,0,1,3.64,0c1.07.22,2.12.51,3.18.78C270.93,517.4,271,517.45,271.21,517.52Z"/><path class="cls-13" d="M256.7,542.12a15.86,15.86,0,0,1-6.09-.54,9.83,9.83,0,0,1-5.31-4.13c-.29-.43-.55-.89-.82-1.33-.08-.13-.13-.26-.22-.44,1.74,0,3.42-.17,5.09-.11.55,0,1.14.17,1.72.25.09,0,.18.18.23.29a13.8,13.8,0,0,0,1.93,3.27,10.06,10.06,0,0,0,3.07,2.51Z"/><path class="cls-13" d="M276.61,533a1.78,1.78,0,0,1-.48.12,13.54,13.54,0,0,1-7.25-2.23,10.94,10.94,0,0,1-3.58-4.8c1.17.09,2.24.21,3.32.23s2.15,0,3.3-.08A11.57,11.57,0,0,0,276.61,533Z"/><path class="cls-13" d="M265.45,541.37a9.52,9.52,0,0,0-2.22,3.15c-.39,1-.69,1.93-1,2.91a.5.5,0,0,1-.38.4L257.23,549l-.83.2c.11-.44.19-.83.3-1.22a10.38,10.38,0,0,1,3.28-5.43,21,21,0,0,1,1.76-1.2.62.62,0,0,1,.38-.1Z"/><path class="cls-13" d="M282,527.86c-.42-.12-.84-.25-1.26-.34-.81-.17-1.63-.26-2.41-.49a3.4,3.4,0,0,1-1.12-.7,10.17,10.17,0,0,1-3.5-6.31c-.06-.31-.11-.61-.16-.92,0-.1,0-.19,0-.35l1.94.66,2.82,1a.52.52,0,0,1,.4.46,12.17,12.17,0,0,0,1.83,5.15C281,526.63,281.5,527.22,282,527.86Z"/><path class="cls-13" d="M249.06,546l3.27,1.09c.6.2,1.19.43,1.79.64a.61.61,0,0,1,.44.56,11.79,11.79,0,0,0,1.69,4.54c.25.38.53.74.84,1.17l-1.14-.39a13.36,13.36,0,0,0-3.65-.72.77.77,0,0,1-.47-.22,10,10,0,0,1-2.47-5C249.25,547.09,249.17,546.57,249.06,546Z"/><path class="cls-13" d="M434.74,348.21c1.71-3.19,4.08-5.41,7.71-6a18.49,18.49,0,0,1,5.36-.05c-.11.31-.2.6-.31.88a10.84,10.84,0,0,1-2.18,3.61,6,6,0,0,1-3.88,1.78A45.64,45.64,0,0,1,434.74,348.21Z"/><path class="cls-13" d="M435,340.21a14.55,14.55,0,0,1,1.55-3,9.69,9.69,0,0,1,4.26-3.52.72.72,0,0,1,.67,0,17.54,17.54,0,0,0,4.79,1.49l.2.06a6.87,6.87,0,0,1-1,1.95,6.2,6.2,0,0,1-4.53,2.51c-1.65.21-3.32.28-5,.4Z"/><path class="cls-13" d="M422.78,335.21c1.85-2.63,4.13-4.55,7.38-5,2.25-.31,5.32,0,5.9.56a1.12,1.12,0,0,1-.18.1,10.93,10.93,0,0,0-5.95,4.95.58.58,0,0,1-.62.34c-1.06-.12-2.13-.2-3.19-.35s-2-.34-3-.52Z"/><path class="cls-13" d="M448.58,363.07a16.06,16.06,0,0,1-6.09-.54,9.88,9.88,0,0,1-5.31-4.13c-.29-.43-.56-.89-.82-1.34a4.19,4.19,0,0,1-.22-.43c1.74-.05,3.42-.17,5.09-.11a15.51,15.51,0,0,1,1.72.25c.09,0,.18.18.23.29a13.74,13.74,0,0,0,1.93,3.26,9.83,9.83,0,0,0,3.07,2.52C448.29,362.89,448.39,363,448.58,363.07Z"/><path class="cls-13" d="M412.48,346.5c1.89.68,3.73,1.34,5.56,2a.58.58,0,0,1,.32.35,11.85,11.85,0,0,0,2.58,5.85,8.36,8.36,0,0,0-.87.14c-.59.14-1.17.33-1.76.47a.75.75,0,0,1-.51-.07,10,10,0,0,1-5.07-7.06c-.1-.48-.18-1-.26-1.46A1.09,1.09,0,0,1,412.48,346.5Z"/><path class="cls-13" d="M412.83,364.92c1.17-2.91,2.88-5.25,5.83-6.47.54-.22,1.1-.39,1.65-.56a.55.55,0,0,1,.38,0l2.34,1.37c-.49.44-1.07.91-1.59,1.44a12,12,0,0,0-2.23,3.38.6.6,0,0,1-.55.4l-5,.38Z"/><path class="cls-13" d="M423.05,344.71c4.23-3.41,8.38-3.49,12.86-1.16-.77.14-1.59.24-2.38.45a10.92,10.92,0,0,0-4.85,2.9.68.68,0,0,1-.92.16Z"/><path class="cls-13" d="M422.19,351l2.19-.47c1-.2,2.07-.39,3.1-.61a.56.56,0,0,1,.68.33,11.13,11.13,0,0,0,4.94,4.66l.63.25a5.28,5.28,0,0,1,.6.27,12.4,12.4,0,0,1-6.78-.19A11.83,11.83,0,0,1,422.19,351Z"/><path class="cls-13" d="M435.66,358a11.85,11.85,0,0,0-5,5.75.74.74,0,0,1-.72.54c-1.56.07-3.13.19-4.69.29a.87.87,0,0,1-.25,0c.38-.73.7-1.44,1.08-2.11a9.64,9.64,0,0,1,5.33-4.55,1.91,1.91,0,0,1,.54-.05l3.24.16Z"/><path class="cls-13" d="M417.2,336.06c1.09.36,2.17.7,3.25,1.07a.51.51,0,0,1,.26.31c.2.77.34,1.55.59,2.3s.59,1.44.9,2.15c-.71.22-1.45.48-2.2.69-.1,0-.3-.11-.4-.23a8.36,8.36,0,0,1-1.67-3c-.34-1.07-.58-2.17-.85-3.26Z"/><path class="cls-13" d="M255.69,538.16l2.49-1.91c.53-.4,1.06-.8,1.6-1.17a.41.41,0,0,1,.38-.05c.66.47,1.31,1,1.94,1.44-.66.43-1.38.86-2,1.35-.49.37-.91.84-1.38,1.25-.07.07-.22.16-.29.13Z"/><path class="cls-13" d="M644.39,499.77c3.28,1.53,5.64,3.76,6.47,7.35a18.36,18.36,0,0,1,.37,5.35c-.33-.09-.62-.16-.91-.26a10.89,10.89,0,0,1-3.73-2,6.06,6.06,0,0,1-2-3.78A46.43,46.43,0,0,1,644.39,499.77Z"/><path class="cls-13" d="M637.62,523.5c.17-1,.29-1.9.48-2.81a12.32,12.32,0,0,1,1.92-4.61,10.54,10.54,0,0,1,5.25-3.77,1.71,1.71,0,0,1,.27-.09,2.94,2.94,0,0,1,.47,2,35.49,35.49,0,0,1-.92,4.45,6.23,6.23,0,0,1-3.93,4A13.36,13.36,0,0,1,637.62,523.5Z"/><path class="cls-13" d="M655.74,527.51a10.89,10.89,0,0,0-1.39-3.18A12.45,12.45,0,0,0,651,521a.67.67,0,0,1-.34-.73,55.92,55.92,0,0,1,1.37-6.13l.1-.1c.52.49,1.06,1,1.55,1.48a9.91,9.91,0,0,1,2.64,4.76,10.14,10.14,0,0,1,.16,3.64c-.15,1.08-.39,2.14-.59,3.22C655.84,527.23,655.8,527.32,655.74,527.51Z"/><path class="cls-13" d="M630.35,514.44a16.24,16.24,0,0,1,.19-6.11,9.9,9.9,0,0,1,3.82-5.55c.42-.31.85-.6,1.29-.89.11-.08.25-.14.42-.24.15,1.73.36,3.4.4,5.07,0,.55-.1,1.15-.15,1.73,0,.09-.17.2-.28.25a13.71,13.71,0,0,0-3.15,2.12,10,10,0,0,0-2.33,3.2C630.51,514.13,630.45,514.24,630.35,514.44Z"/><path class="cls-13" d="M640.64,533.79a1.74,1.74,0,0,1-.14-.48,13.47,13.47,0,0,1,1.81-7.36,10.87,10.87,0,0,1,4.59-3.85c0,1.17-.09,2.25,0,3.33s.18,2.15.28,3.29A11.54,11.54,0,0,0,640.64,533.79Z"/><path class="cls-13" d="M631.6,523.13a9.46,9.46,0,0,0-3.27-2c-1-.33-2-.58-3-.83a.5.5,0,0,1-.41-.36l-1.44-4.54c-.08-.25-.15-.49-.24-.82.44.08.84.14,1.23.23a10.33,10.33,0,0,1,5.61,3,19.29,19.29,0,0,1,1.3,1.68.71.71,0,0,1,.12.38C631.56,520.9,631.58,522,631.6,523.13Z"/><path class="cls-13" d="M646,538.87c.09-.42.2-.84.26-1.27.13-.82.17-1.64.35-2.44a3.52,3.52,0,0,1,.63-1.15,10.21,10.21,0,0,1,6.11-3.86l.91-.21.34,0c-.18.68-.36,1.33-.54,2-.27,1-.54,1.91-.8,2.87a.51.51,0,0,1-.43.42,12.18,12.18,0,0,0-5,2.12C647.2,537.78,646.64,538.34,646,538.87Z"/><path class="cls-13" d="M626.08,507c-.31,1.17-.6,2.25-.9,3.32-.17.61-.36,1.21-.53,1.82a.63.63,0,0,1-.54.48,11.67,11.67,0,0,0-4.43,2c-.37.27-.72.57-1.13.9.12-.42.22-.8.33-1.16a13.14,13.14,0,0,0,.5-3.69.79.79,0,0,1,.2-.48,10.14,10.14,0,0,1,4.87-2.75C625,507.28,625.48,507.17,626.08,507Z"/><path class="cls-13" d="M634.25,513.2c.74.85,1.4,1.61,2,2.38.43.5.85,1,1.26,1.52a.45.45,0,0,1,.07.38c-.44.69-.9,1.37-1.33,2-.47-.63-.93-1.33-1.46-2s-.89-.87-1.33-1.31c-.08-.07-.17-.21-.15-.29C633.64,515.06,633.93,514.17,634.25,513.2Z"/><text class="cls-14" transform="translate(47.46 185.62)">plant <tspan class="cls-15" x="60.14" y="0">r</tspan><tspan x="66.58" y="0">o</tspan><tspan class="cls-16" x="80.24" y="0">o</tspan><tspan x="93.6" y="0">t</tspan></text><text class="cls-14" transform="translate(630.84 157.52)"><tspan class="cls-17">m</tspan><tspan class="cls-18" x="19.6" y="0">y</tspan><tspan x="30.47" y="0">corrhi</tspan><tspan class="cls-19" x="88.54" y="0">z</tspan><tspan x="97.98" y="0">al fu</tspan><tspan class="cls-18" x="144.14" y="0">n</tspan><tspan x="156.73" y="0">gi</tspan></text><text class="cls-14" transform="translate(753.49 486.82)">o<tspan class="cls-15" x="13.66" y="0">r</tspan><tspan x="20.1" y="0">ganic</tspan><tspan class="cls-18" x="6.69" y="27.22">m</tspan><tspan x="26.18" y="27.22">at</tspan><tspan class="cls-20" x="46.46" y="27.22">t</tspan><tspan class="cls-21" x="52.29" y="27.22">er</tspan></text><text class="cls-14" transform="translate(451.15 722.75)">plant debris</text><text class="cls-14" transform="translate(117.27 794.78)">calcium</text><text class="cls-14" transform="translate(297.28 794.78)">i<tspan class="cls-15" x="5.69" y="0">r</tspan><tspan x="12.14" y="0">on </tspan><tspan class="cls-22" x="46.55" y="0">o</tspan><tspan x="60.09" y="0">xid</tspan><tspan class="cls-23" x="90.83" y="0">e</tspan><tspan x="103.53" y="0">s</tspan></text><text class="cls-14" transform="translate(505.21 794.78)">cla<tspan class="cls-24" x="31.1" y="0">y</tspan></text><text class="cls-14" transform="translate(632.31 794.78)">silt</text><text class="cls-14" transform="translate(744.47 794.78)"><tspan class="cls-25">s</tspan><tspan x="9.19" y="0">a</tspan><tspan class="cls-18" x="23.18" y="0">n</tspan><tspan x="35.77" y="0">d</tspan></text><text class="cls-14" transform="translate(719.83 234.95)">spo<tspan class="cls-15" x="36.89" y="0">r</tspan><tspan class="cls-22" x="43.33" y="0">e</tspan><tspan x="56.03" y="0">s</tspan></text><path class="cls-3" d="M725.63,777.5c-10-3.45-20.65,12.49-10.8,19.78,4.53,3.35,13.17,2,17.73-.75,5.58-3.41,5-8,5.09-14,0,0-.48-1.39-.6-1.79-2.36-5.18-9.23-3.06-14.42-2.67"/><path class="cls-2" d="M616.67,780.63c-7.09-2.44-14.58,8.81-7.62,14,3.19,2.37,9.29,1.44,12.51-.52,4-2.41,3.53-5.69,3.6-9.87,0,0-.34-1-.42-1.27-1.67-3.65-6.52-2.15-10.18-1.88"/><path class="cls-5" d="M491.6,784.71c-4.46-1.54-9.18,5.55-4.8,8.79,2,1.49,5.86.91,7.88-.33,2.48-1.52,2.22-3.58,2.26-6.21,0,0-.21-.62-.26-.8-1.05-2.3-4.1-1.36-6.41-1.18"/><path class="cls-6" d="M279.36,781c2.49-.42,5.12,2.92,7.17,4.17s3.46,2.36,4.09,4.9c1.34,5.33-5.16,7.76-9.16,5.93a15,15,0,0,1-6-5.92c-1.21-2.13-1.43-4.64.34-6.41,1-1,2.25-2.39,3.68-2.71"/><path class="cls-7" d="M106.39,778.61c-2.13-.33-6,4.31-6.64,6.39-.76,2.58-2.18,6.23-1.23,9,1.11,3.17,8.79,3.23,10.21.13.61-1.31.44-3.06.89-4.46a13.56,13.56,0,0,0,.85-3.57c.17-3.23-.58-7.31-4.49-7.47"/><path class="cls-26" d="M94.17,200.11s14.21,30.11,71.18,26.89"/><polygon class="cls-3" points="158.05 238.73 161.65 227.21 155.85 216.62 183.16 225.07 158.05 238.73"/><path class="cls-26" d="M658.61,167.47s9,27.92-44.39,42.44"/><polygon class="cls-3" points="619.93 197.04 617.8 208.93 624.88 218.71 596.73 213.74 619.93 197.04"/><path class="cls-26" d="M710.06,231.32s-12.65-11.91-33.42-10.59"/><polygon class="cls-3" points="682.79 208.64 680.37 220.47 687.2 230.42 659.18 224.76 682.79 208.64"/><path class="cls-26" d="M719.05,240.35s-25.87,2.19-39,27.37"/><polygon class="cls-3" points="672.95 256.11 681.72 264.39 693.77 263.84 674.2 284.66 672.95 256.11"/><path class="cls-26" d="M752.47,492.24s-21.78-12.94-59,10.32"/><polygon class="cls-3" points="694.12 488.79 696.62 500.6 706.86 506.99 678.92 513 694.12 488.79"/><path class="cls-26" d="M442.93,713.44s-22-31.88,2.37-74.12"/><polygon class="cls-3" points="450.03 652.63 443.43 642.52 431.58 640.25 455.48 624.58 450.03 652.63"/><path class="cls-2" d="M215.24,154c.85,7.58.52,14.2.63,20.24a61.74,61.74,0,0,0,1.95,16.4,133.49,133.49,0,0,0,6.41,16.8c2.53,5.74,5.33,11.68,7.81,18,.62,1.58,1.21,3.19,1.78,4.81s1.09,3.18,1.58,4.8c1,3.21,1.91,6.47,2.71,9.74a140.7,140.7,0,0,1,3.4,19.95,155.4,155.4,0,0,1-1.49,39.9c-1,6.51-2.38,12.92-3.91,19.25l-2.36,9.3c-.73,3-1.35,6.07-1.88,9.15A185.18,185.18,0,0,0,229.24,380a161.58,161.58,0,0,0,5.52,37.48,138.75,138.75,0,0,0,15,35.08,140,140,0,0,1-17.62-34.25,165.53,165.53,0,0,1-8.41-37.93,192.06,192.06,0,0,1-.08-39.1c.33-3.26.75-6.52,1.29-9.8L226.6,322c1.05-6.22,1.9-12.44,2.43-18.64a143.1,143.1,0,0,0-1.2-36.75,129,129,0,0,0-4.32-17.67c-.93-2.89-1.94-5.75-3.07-8.57-.54-1.42-1.15-2.83-1.73-4.22s-1.2-2.73-1.86-4.09c-2.6-5.45-5.65-10.92-8.72-16.7a149.62,149.62,0,0,1-8.59-18.55,65.46,65.46,0,0,1-2.93-10.88c-.66-3.61-1.05-7.14-1.34-10.52-.57-6.75-.8-13-1.79-18.1Z"/><path class="cls-10" d="M486.89,329.81a4.31,4.31,0,0,1,5.37-.83,4.82,4.82,0,0,1,2.32,2.46,3.53,3.53,0,0,1-.06,3,3.84,3.84,0,0,1-.35.54,4.3,4.3,0,0,1-5.37.83,4.84,4.84,0,0,1-2.33-2.46,3.53,3.53,0,0,1,.07-3A3.11,3.11,0,0,1,486.89,329.81Z"/><path class="cls-10" d="M476.72,333.11a4.31,4.31,0,0,1,3.48-4.17,4.77,4.77,0,0,1,3.38.31,3.52,3.52,0,0,1,1.91,2.27,3.44,3.44,0,0,1,.1.63,4.33,4.33,0,0,1-3.48,4.18,4.88,4.88,0,0,1-3.38-.31,3.41,3.41,0,0,1-2-2.91Z"/><path class="cls-10" d="M467.38,335.4a4.33,4.33,0,0,1,3.85-3.84,4.87,4.87,0,0,1,3.33.62,3.55,3.55,0,0,1,1.7,2.43,4.73,4.73,0,0,1,0,.65,4.33,4.33,0,0,1-3.85,3.84,4.87,4.87,0,0,1-3.33-.62,3.51,3.51,0,0,1-1.7-2.44A3.39,3.39,0,0,1,467.38,335.4Z"/><path class="cls-10" d="M458.16,332.18a4.3,4.3,0,0,1,5-2.09,4.82,4.82,0,0,1,2.85,1.83,3.49,3.49,0,0,1,.65,2.89,3.14,3.14,0,0,1-.21.61,4.31,4.31,0,0,1-5,2.1,4.82,4.82,0,0,1-2.85-1.83,3.49,3.49,0,0,1-.65-2.89A3.23,3.23,0,0,1,458.16,332.18Z"/><path class="cls-12" d="M488,364.52a5.81,5.81,0,0,1,1.1,4.28,5.72,5.72,0,0,1-2.24,3.85h0a10.39,10.39,0,0,1-2.73,1.36,14.65,14.65,0,0,0-1.48.62,15.58,15.58,0,0,0-2.05,1.28,10.38,10.38,0,0,0-1.33,1.19,15.6,15.6,0,0,0-1.09,1.35,11,11,0,0,1-2.19,2.4,5.35,5.35,0,0,1-2.18,1A5.87,5.87,0,0,1,469,371.43a4.52,4.52,0,0,1,.51-.34,14.52,14.52,0,0,1,2.58-1.14,12,12,0,0,0,2.4-1.1l.42-.29a15.24,15.24,0,0,0,2.67-2.82c.4-.48.81-1,1.25-1.5a7.17,7.17,0,0,1,.91-.83l0,0a6.06,6.06,0,0,1,2.93-1.16S485.4,361.53,488,364.52Z"/><path class="cls-27" d="M482.79,363.63l-.29.05a4.54,4.54,0,0,0-1.9.84h0a5.06,5.06,0,0,0-.73.66c-.43.48-.82,1-1.2,1.45a15.12,15.12,0,0,1-3.42,3.4,12.77,12.77,0,0,1-2.69,1.24,13.62,13.62,0,0,0-2.35,1,4.46,4.46,0,0,0,3.27,8.17c1.66-.35,2.56-1.57,3.52-2.86a15.51,15.51,0,0,1,1.2-1.48,13.71,13.71,0,0,1,3.76-2.75,12.25,12.25,0,0,1,1.63-.69,9.72,9.72,0,0,0,2.38-1.16,4.35,4.35,0,0,0,1.68-2.89,4.4,4.4,0,0,0-.83-3.29l-.14-.17A4.4,4.4,0,0,0,482.79,363.63Z"/><path class="cls-10" d="M245.16,512.26a5.07,5.07,0,0,1,6.24-1.38,5.66,5.66,0,0,1,2.92,2.71,4.12,4.12,0,0,1,.15,3.49,3.82,3.82,0,0,1-.36.66,5.09,5.09,0,0,1-6.25,1.39,5.75,5.75,0,0,1-2.92-2.72,4.13,4.13,0,0,1-.14-3.48A3.61,3.61,0,0,1,245.16,512.26Z"/><path class="cls-10" d="M235.43,507a5.07,5.07,0,0,1,6.39-.05,5.61,5.61,0,0,1,2.29,3.26,4.12,4.12,0,0,1-.58,3.44,3.41,3.41,0,0,1-.5.58,5.08,5.08,0,0,1-6.39,0,5.69,5.69,0,0,1-2.29-3.26,4.17,4.17,0,0,1,.58-3.45A4.53,4.53,0,0,1,235.43,507Z"/><path class="cls-10" d="M223,509.12a5.08,5.08,0,0,1,4.77-4.27,5.67,5.67,0,0,1,3.87.93,4.17,4.17,0,0,1,1.84,3,3.86,3.86,0,0,1,0,.76,5.09,5.09,0,0,1-4.76,4.27,5.69,5.69,0,0,1-3.88-.94,4.15,4.15,0,0,1-1.84-3A3.87,3.87,0,0,1,223,509.12Z"/><path class="cls-28" d="M400.74,338.75a48.68,48.68,0,0,1,9.5-11.72,5.3,5.3,0,1,0-6.83-8.06c-14.11,12.82-15.3,20.19-15.3,20.19a5.57,5.57,0,0,0,6.68,6.92,5.53,5.53,0,0,0,3.2-2.2Z"/><path class="cls-29" d="M507,612.76c-2.64,6.19-2.54,9.86-2.54,9.86a4.07,4.07,0,0,1-8.14,0,3.44,3.44,0,0,1,0-.46h0a49.81,49.81,0,0,1,5.7-17.72,4.07,4.07,0,0,1,7.67,1.9,4,4,0,0,1-.69,2.26l-.32.62Z"/><path class="cls-30" d="M596.89,506.78l-.53-.38a3.81,3.81,0,1,1,4.13-6.39,46.21,46.21,0,0,1,12.12,12.49l0,0a2.22,2.22,0,0,1,.21.37,3.8,3.8,0,1,1-6.82,3.37s-1.43-3.11-6.21-7.21Z"/><path class="cls-31" d="M442.35,375.28a19.91,19.91,0,0,0-4.42,11.05c-1.31,14.47,13.31,15.75,13.31,15.75s13.24,1.54,14.89-10.92-7.46-14.53-9.47-15c0,0-9.57-2-12.46,9.05,0,0-1.89,10.44,7.79,12.07,0,0,8.34,1.3,9.14-6.61,0,0,.54-3.28-1.77-4.94,0,0-1.48-.88-.94.89a4.9,4.9,0,0,1-2.9,6.85s-6.36,2.17-7.24-5.13c0,0-.83-7.25,6-7.91a7.36,7.36,0,0,1,7.75,6c2.05,8.32-5.86,10.86-5.86,10.86s-6.33,3.05-11.82-3.9c0,0-5.68-7.36,1.12-15.78a29.51,29.51,0,0,1,6.13-6.61s3.17-2.77,1.46-2.86a23.13,23.13,0,0,0-8.39,4.79Z"/><path class="cls-32" d="M238.83,466.1c-1.39-2.7-5.59-1.85-5.59-1.85s-4.81,1.89-4.58-4.75c.19-5.57-3.67-4.81-3.67-4.81s-2.34-.33-3.09,2.51c-1.5,5.72-5.73,3.44-5.73,3.44-4.19-2-6.41.69-6.41.69-3.55,5,2.63,9.39,2.63,9.39,3.44,3,.23,4.35.23,4.35s-3.32,1.61-1.14,6.65,6.64,0,6.64,0c5.72-4.36,10.65.8,10.65.8s5.38,6.15,8.25,3.89c3.78-3-1.26-8.47-1.26-8.47-3.21-2.87-.69-4.47-.69-4.47a22,22,0,0,0,2.6-2.85A5.8,5.8,0,0,0,238.83,466.1Zm-12.61,7.28c-1.82,1-3.95.69-4.75-.75s0-3.42,1.83-4.45,3.95-.68,4.76.75S228,472.36,226.22,473.38Z"/><path class="cls-33" d="M633.25,534.46c-1.15-2.24-4.65-1.54-4.65-1.54s-4,1.57-3.81-3.95c.16-4.62-3-4-3-4a2.42,2.42,0,0,0-2.57,2.09c-1.25,4.75-4.76,2.86-4.76,2.86-3.49-1.64-5.34.57-5.34.57-3,4.19,2.2,7.81,2.2,7.81,2.85,2.48.19,3.62.19,3.62s-2.77,1.34-1,5.53,5.53,0,5.53,0c4.76-3.62,8.85.66,8.85.66s4.48,5.12,6.86,3.24c3.15-2.47-1-7.05-1-7.05-2.67-2.38-.58-3.71-.58-3.71a18.22,18.22,0,0,0,2.17-2.37A4.85,4.85,0,0,0,633.25,534.46Zm-10.48,6c-1.52.85-3.29.58-4-.62s0-2.85,1.53-3.7,3.28-.57,3.95.63S624.28,539.66,622.77,540.51Z"/><path class="cls-34" d="M218.09,557.11a22.24,22.24,0,0,0,11.25,2.37c16.11-.67,15.38-16.94,15.38-16.94s-.24-14.78-14.18-14.78-14.9,10.33-15.13,12.62c0,0-.85,10.81,11.77,12.37,0,0,11.75.56,12.13-10.33,0,0,.21-9.35-8.6-9.08,0,0-3.69-.11-5.18,2.66,0,0-.75,1.77,1.12.91,0,0,4.91-3.2,8,2.19,0,0,3.31,6.68-4.6,8.71,0,0-7.85,2-9.55-5.4a8.15,8.15,0,0,1,5.46-9.4c8.85-3.47,12.8,4.86,12.8,4.86s4.27,6.52-2.57,13.57c0,0-7.26,7.31-17.51,1.07,0,0-5.23-2.57-8.17-5.77,0,0-3.51-3.09-3.35-1.2a25.9,25.9,0,0,0,7.52,9.37Z"/><text class="cls-35" transform="translate(239.58 55.25)">agg<tspan class="cls-36" x="120.31" y="0">r</tspan><tspan x="138.77" y="0">ega</tspan><tspan class="cls-36" x="255.71" y="0">t</tspan><tspan class="cls-37" x="272.41" y="0">e</tspan><tspan x="308.81" y="0">s</tspan></text></g></g></svg>